<?xml version="1.0" encoding="UTF-8" ?>
<!DOCTYPE svg PUBLIC "-//W3C//DTD SVG 1.1//EN" "http://www.w3.org/Graphics/SVG/1.1/DTD/svg11.dtd">
<svg width="210pt" height="220pt" viewBox="0 0 210 220" version="1.1" xmlns="http://www.w3.org/2000/svg">
<g id="#050505fb">
<path fill="#050505" opacity="1.00" d=" M 115.98 57.58 C 137.35 57.65 158.70 57.05 180.07 57.23 C 185.31 57.32 191.04 60.38 192.16 65.88 C 192.63 69.96 192.84 74.17 191.78 78.18 C 192.10 79.44 192.44 80.71 192.49 82.03 C 192.60 96.38 192.49 110.74 192.85 125.08 C 192.96 128.30 190.70 130.82 188.98 133.28 C 188.77 132.92 188.35 132.21 188.14 131.86 C 189.69 129.88 191.56 127.73 191.35 125.04 C 191.45 105.98 190.44 86.94 190.76 67.88 C 191.24 62.68 185.91 58.76 181.04 59.29 C 131.32 59.75 81.60 59.49 31.88 59.88 C 26.76 59.56 21.43 63.50 21.58 68.90 C 21.73 86.60 21.77 104.31 21.74 122.01 C 21.72 125.58 22.00 129.68 24.96 132.15 C 27.60 134.75 31.60 134.29 34.99 134.33 C 50.00 134.10 65.01 134.42 80.01 133.83 C 107.06 133.78 134.12 133.85 161.17 133.63 C 163.04 138.14 164.87 142.98 164.19 147.95 C 163.76 151.33 163.08 154.69 162.63 158.07 C 168.21 151.29 173.43 142.60 171.19 133.46 C 176.16 133.49 181.15 133.73 186.10 133.09 C 186.54 133.26 187.42 133.60 187.86 133.77 C 183.48 136.39 178.46 137.11 173.44 136.73 C 172.69 147.15 166.90 156.83 159.10 163.55 C 159.95 159.39 161.59 155.35 161.59 151.05 C 161.73 145.91 159.74 140.95 156.97 136.70 C 145.97 136.83 134.97 136.66 123.99 137.19 C 91.96 137.40 59.93 137.16 27.90 137.46 C 23.91 137.67 20.05 134.92 18.80 131.16 C 17.37 126.23 17.80 121.06 17.76 116.01 C 17.83 102.99 17.53 89.97 17.57 76.96 C 17.30 72.13 16.98 66.42 20.74 62.74 C 25.98 58.19 33.36 57.56 40.00 57.98 C 65.32 57.43 90.66 57.78 115.98 57.58 Z" />
</g>
<g id="#fefefeff">
<path fill="#fefefe" opacity="1.00" d=" M 31.88 59.88 C 81.60 59.49 131.32 59.75 181.04 59.29 C 185.91 58.76 191.24 62.68 190.76 67.88 C 190.44 86.94 191.45 105.98 191.35 125.04 C 191.56 127.73 189.69 129.88 188.14 131.86 C 187.63 132.16 186.61 132.78 186.10 133.09 C 181.15 133.73 176.16 133.49 171.19 133.46 C 173.43 142.60 168.21 151.29 162.63 158.07 C 163.08 154.69 163.76 151.33 164.19 147.95 C 164.87 142.98 163.04 138.14 161.17 133.63 C 134.12 133.85 107.06 133.78 80.01 133.83 C 65.01 134.42 50.00 134.10 34.99 134.33 C 31.60 134.29 27.60 134.75 24.96 132.15 C 22.00 129.68 21.72 125.58 21.74 122.01 C 21.77 104.31 21.73 86.60 21.58 68.90 C 21.43 63.50 26.76 59.56 31.88 59.88 Z" />
</g>
</svg>
