<?xml version="1.0" encoding="UTF-8" ?>
<!DOCTYPE svg PUBLIC "-//W3C//DTD SVG 1.1//EN" "http://www.w3.org/Graphics/SVG/1.1/DTD/svg11.dtd">
<svg width="210pt" height="220pt" viewBox="0 0 210 220" version="1.1" xmlns="http://www.w3.org/2000/svg">
<g id="#000000ff">
<path fill="#000000" opacity="1.00" d=" M 164.53 23.96 C 164.44 22.14 164.75 20.33 166.17 19.04 C 166.71 23.34 166.49 27.67 166.41 31.99 C 166.21 40.65 166.43 49.32 165.83 57.97 C 165.57 72.65 165.49 87.35 165.15 102.03 C 164.67 107.45 164.66 113.05 166.77 118.16 C 170.44 128.24 171.38 138.98 174.33 149.25 C 175.37 157.12 178.36 164.48 180.62 172.03 C 181.95 179.66 184.54 187.15 184.38 194.98 C 184.35 203.32 184.34 211.66 184.36 220.00 L 183.34 220.00 C 182.88 208.47 184.38 196.77 181.85 185.40 C 180.19 177.10 178.10 168.89 175.62 160.80 C 173.97 155.52 173.44 149.99 171.94 144.67 C 169.30 134.13 166.25 123.69 162.95 113.34 C 161.57 118.68 162.07 124.51 159.34 129.49 C 155.58 136.51 152.77 143.98 149.40 151.19 C 142.33 153.45 136.24 158.20 128.89 159.62 C 123.30 160.01 117.68 159.72 112.08 159.54 C 107.66 159.59 103.82 157.16 99.72 155.90 C 99.78 159.70 100.58 163.47 102.28 166.88 C 105.77 174.30 107.87 182.25 110.44 190.01 C 111.13 200.11 108.46 210.04 107.18 220.00 L 105.45 220.00 C 107.38 210.76 109.21 201.37 109.29 191.92 C 107.64 183.65 104.14 175.90 100.92 168.16 C 99.22 163.99 98.89 159.43 99.21 154.98 C 98.58 154.30 97.31 152.94 96.68 152.27 L 98.46 152.24 C 101.61 154.68 105.32 156.41 109.13 157.51 C 114.07 157.97 119.03 158.47 124.00 158.36 C 131.40 158.73 137.72 154.24 144.22 151.39 C 145.75 150.57 147.73 150.14 148.52 148.42 C 150.88 144.25 152.42 139.68 154.55 135.39 C 156.40 131.21 158.98 127.28 159.77 122.70 C 160.70 119.31 159.98 115.64 161.37 112.36 C 163.92 106.89 162.50 100.64 161.55 94.94 C 159.68 88.44 156.16 82.51 152.06 77.16 C 148.85 80.35 144.73 83.35 139.95 82.83 C 135.92 83.05 132.93 80.06 129.86 77.94 C 129.11 74.78 128.58 71.56 128.41 68.31 C 122.19 68.62 115.76 67.96 109.87 70.48 C 104.10 69.91 98.52 71.94 92.97 73.19 C 87.71 75.18 81.48 76.93 78.99 82.54 C 82.04 84.88 83.78 88.28 84.34 92.03 C 83.39 97.25 79.57 101.42 74.50 102.92 C 74.61 111.65 78.46 119.74 82.71 127.17 C 85.36 131.21 87.57 135.58 89.12 140.17 L 89.27 140.77 C 89.02 140.82 88.53 140.92 88.29 140.97 C 87.22 138.57 86.14 136.18 85.08 133.78 C 69.23 148.03 53.80 162.74 38.09 177.13 C 36.87 178.19 35.53 179.10 34.19 180.01 C 34.90 176.82 37.73 175.03 39.92 172.91 C 54.64 159.29 69.34 145.66 84.04 132.03 C 78.79 123.02 73.23 113.37 73.43 102.60 C 66.81 101.31 61.93 94.32 63.68 87.68 L 65.69 87.16 L 64.41 88.97 C 64.40 93.60 66.53 98.29 70.80 100.44 C 76.56 102.32 82.76 96.73 82.37 90.95 C 81.62 86.46 77.17 81.59 72.29 82.80 C 70.38 83.49 68.71 84.68 66.98 85.71 L 67.69 84.04 C 70.35 81.23 74.37 81.68 77.80 80.83 C 80.16 78.90 82.02 76.46 84.22 74.36 C 78.94 72.30 75.57 67.26 70.19 65.42 C 68.49 64.64 66.21 64.13 66.18 61.81 C 75.95 58.31 86.35 55.16 96.85 56.40 C 98.91 56.69 101.17 56.80 102.88 58.14 C 106.24 60.70 109.68 63.51 111.31 67.54 C 116.20 67.33 121.11 67.59 126.00 67.21 C 130.42 66.58 132.22 61.49 136.45 60.35 L 138.04 60.15 C 135.30 62.45 132.33 65.27 132.24 69.12 C 131.62 74.41 135.79 79.62 140.96 80.52 C 148.25 81.49 154.97 72.84 151.55 66.11 C 149.69 60.96 143.56 58.09 138.42 60.07 L 138.12 58.76 C 141.55 58.20 145.48 56.99 148.52 59.39 C 153.92 62.47 155.11 69.25 154.27 74.93 C 157.65 79.89 160.46 85.19 163.38 90.43 C 163.56 68.26 164.44 46.12 164.53 23.96 M 78.86 58.92 C 75.90 60.19 72.77 61.01 69.75 62.12 C 69.53 62.58 69.09 63.49 68.87 63.95 C 76.11 64.53 79.83 72.54 86.88 73.69 C 93.83 70.58 101.42 69.32 108.90 68.19 C 108.81 67.33 108.63 65.61 108.54 64.75 C 106.05 62.52 103.71 59.98 100.66 58.52 C 93.53 56.11 86.06 57.94 78.86 58.92 Z" />
<path fill="#000000" opacity="1.00" d=" M 144.42 67.55 C 144.94 67.55 145.98 67.54 146.50 67.54 C 146.50 68.10 146.51 69.22 146.51 69.78 C 146.00 69.78 144.97 69.79 144.45 69.79 C 144.45 69.23 144.43 68.11 144.42 67.55 Z" />
<path fill="#000000" opacity="1.00" d=" M 95.87 89.03 C 101.82 85.47 108.05 82.13 114.84 80.49 C 118.24 80.04 121.70 80.22 125.12 80.24 C 127.68 80.15 129.49 82.22 130.82 84.14 C 134.36 89.30 137.33 94.95 138.76 101.09 C 140.16 105.61 139.84 110.45 141.20 114.98 C 141.21 120.64 141.28 126.30 141.57 131.95 C 141.92 134.20 139.98 135.44 138.02 135.64 C 137.42 139.00 134.95 141.33 132.53 143.50 C 125.00 144.09 117.00 146.26 109.76 143.10 C 107.22 141.85 104.86 140.26 102.29 139.06 C 101.89 135.40 103.07 131.63 102.02 128.05 C 101.68 126.71 101.82 125.19 101.05 124.00 C 95.68 116.96 87.89 112.47 81.56 106.44 C 78.84 102.73 82.86 99.04 85.03 96.24 C 87.45 92.35 92.14 91.22 95.87 89.03 M 116.94 82.33 C 114.58 81.79 114.57 84.40 114.23 85.96 C 114.93 86.39 116.34 87.23 117.05 87.65 C 117.56 87.29 118.58 86.58 119.09 86.23 C 120.76 86.89 122.45 86.91 123.95 85.85 C 127.05 88.49 129.71 83.08 126.26 81.77 C 123.15 81.86 120.07 82.57 116.94 82.33 M 108.21 85.16 C 106.32 85.38 104.64 86.29 102.93 87.04 C 102.41 87.70 101.90 88.37 101.38 89.03 C 99.37 89.15 97.63 90.17 95.84 90.98 C 95.40 91.55 94.52 92.68 94.08 93.25 C 95.05 94.03 95.80 95.19 96.98 95.66 C 98.12 95.46 98.95 94.54 99.93 94.00 C 101.39 93.60 102.51 92.78 102.90 91.26 C 103.48 91.34 104.64 91.50 105.23 91.58 C 106.91 90.47 108.80 89.53 109.87 87.73 C 110.39 87.71 111.41 87.66 111.93 87.64 C 114.35 87.79 113.58 84.82 113.55 83.33 C 111.43 82.91 109.41 83.20 108.21 85.16 M 89.92 93.57 C 89.53 93.48 88.75 93.30 88.36 93.21 C 87.85 94.67 87.55 96.19 87.42 97.73 C 87.03 97.97 86.26 98.43 85.87 98.67 C 84.83 100.32 83.64 101.88 82.26 103.26 C 82.85 104.39 83.55 105.47 84.29 106.51 C 84.85 106.48 85.97 106.42 86.54 106.38 C 86.64 105.26 86.74 104.14 86.83 103.02 C 88.19 102.49 89.51 101.88 90.83 101.25 C 90.77 100.22 90.73 99.19 90.68 98.16 C 92.45 97.48 94.13 96.50 95.08 94.76 C 93.88 93.27 91.50 91.13 89.92 93.57 M 138.43 122.56 C 137.41 123.89 139.72 125.46 140.63 124.08 C 141.66 122.69 139.39 121.26 138.43 122.56 M 139.05 126.47 L 138.57 127.26 C 139.77 129.29 141.71 125.79 139.05 126.47 M 137.73 128.33 C 136.65 130.44 135.10 132.21 132.89 133.16 C 132.69 134.08 132.49 135.01 132.29 135.94 C 129.14 135.95 127.91 139.54 124.81 139.68 C 122.78 139.88 120.66 139.57 118.74 140.40 C 118.28 140.14 117.37 139.61 116.92 139.34 C 116.44 139.74 115.48 140.54 114.99 140.95 C 113.98 138.08 111.20 138.37 108.71 138.62 C 108.15 137.63 107.59 136.64 107.03 135.65 C 105.42 135.66 102.47 135.26 103.94 137.86 C 105.16 138.71 106.57 141.60 108.17 139.57 C 108.54 140.94 109.66 141.72 111.07 141.51 C 116.12 141.22 121.13 142.51 126.17 141.88 C 126.86 142.04 128.23 142.37 128.92 142.53 C 129.98 142.07 131.06 141.63 132.15 141.22 C 135.74 138.90 135.40 132.90 140.21 132.35 C 141.77 130.22 139.26 129.26 137.73 128.33 Z" />
<path fill="#000000" opacity="1.00" d=" M 67.61 90.94 C 68.11 89.34 71.08 89.97 70.46 91.73 C 69.96 93.37 67.09 92.65 67.61 90.94 Z" />
<path fill="#000000" opacity="1.00" d=" M 89.57 141.13 C 92.14 143.97 93.40 147.75 96.27 150.33 C 96.03 150.73 95.54 151.51 95.30 151.90 C 92.96 148.57 90.43 145.21 89.57 141.13 Z" />
</g>
<g id="#fdfe9aff">
<path fill="#fdfe9a" opacity="1.00" d=" M 78.86 58.92 C 86.06 57.94 93.53 56.11 100.66 58.52 C 103.71 59.98 106.05 62.52 108.54 64.75 C 108.63 65.61 108.81 67.33 108.90 68.19 C 101.42 69.32 93.83 70.58 86.88 73.69 C 79.83 72.54 76.11 64.53 68.87 63.95 C 69.09 63.49 69.53 62.58 69.75 62.12 C 72.77 61.01 75.90 60.19 78.86 58.92 Z" />
</g>
<g id="#fefefeff">
<path fill="#fefefe" opacity="1.00" d=" M 138.04 60.15 C 138.14 60.13 138.32 60.09 138.42 60.07 C 143.56 58.09 149.69 60.96 151.55 66.11 C 154.97 72.84 148.25 81.49 140.96 80.52 C 135.79 79.62 131.62 74.41 132.24 69.12 C 132.33 65.27 135.30 62.45 138.04 60.15 M 144.42 67.55 C 144.43 68.11 144.45 69.23 144.45 69.79 C 144.97 69.79 146.00 69.78 146.51 69.78 C 146.51 69.22 146.50 68.10 146.50 67.54 C 145.98 67.54 144.94 67.55 144.42 67.55 Z" />
<path fill="#fefefe" opacity="1.00" d=" M 109.87 70.48 C 115.76 67.96 122.19 68.62 128.41 68.31 C 128.58 71.56 129.11 74.78 129.86 77.94 C 132.93 80.06 135.92 83.05 139.95 82.83 C 144.73 83.35 148.85 80.35 152.06 77.16 C 156.16 82.51 159.68 88.44 161.55 94.94 C 162.50 100.64 163.92 106.89 161.37 112.36 C 159.98 115.64 160.70 119.31 159.77 122.70 C 158.98 127.28 156.40 131.21 154.55 135.39 C 152.42 139.68 150.88 144.25 148.52 148.42 C 147.73 150.14 145.75 150.57 144.22 151.39 C 137.72 154.24 131.40 158.73 124.00 158.36 C 119.03 158.47 114.07 157.97 109.13 157.51 C 105.32 156.41 101.61 154.68 98.46 152.24 C 97.73 151.60 97.01 150.96 96.27 150.33 C 93.40 147.75 92.14 143.97 89.57 141.13 L 89.27 140.77 L 89.12 140.17 C 87.57 135.58 85.36 131.21 82.71 127.17 C 78.46 119.74 74.61 111.65 74.50 102.92 C 79.57 101.42 83.39 97.25 84.34 92.03 C 83.78 88.28 82.04 84.88 78.99 82.54 C 81.48 76.93 87.71 75.18 92.97 73.19 C 98.52 71.94 104.10 69.91 109.87 70.48 M 95.87 89.03 C 92.14 91.22 87.45 92.35 85.03 96.24 C 82.86 99.04 78.84 102.73 81.56 106.44 C 87.89 112.47 95.68 116.96 101.05 124.00 C 101.82 125.19 101.68 126.71 102.02 128.05 C 103.07 131.63 101.89 135.40 102.29 139.06 C 104.86 140.26 107.22 141.85 109.76 143.10 C 117.00 146.26 125.00 144.09 132.53 143.50 C 134.95 141.33 137.42 139.00 138.02 135.64 C 139.98 135.44 141.92 134.20 141.57 131.95 C 141.28 126.30 141.21 120.64 141.20 114.98 C 139.84 110.45 140.16 105.61 138.76 101.09 C 137.33 94.95 134.36 89.30 130.82 84.14 C 129.49 82.22 127.68 80.15 125.12 80.24 C 121.70 80.22 118.24 80.04 114.84 80.49 C 108.05 82.13 101.82 85.47 95.87 89.03 Z" />
<path fill="#fefefe" opacity="1.00" d=" M 116.94 82.33 C 120.07 82.57 123.15 81.86 126.26 81.77 C 129.71 83.08 127.05 88.49 123.95 85.85 C 122.45 86.91 120.76 86.89 119.09 86.23 C 118.58 86.58 117.56 87.29 117.05 87.65 C 116.34 87.23 114.93 86.39 114.23 85.96 C 114.57 84.40 114.58 81.79 116.94 82.33 Z" />
<path fill="#fefefe" opacity="1.00" d=" M 72.29 82.80 C 77.17 81.59 81.62 86.46 82.37 90.95 C 82.76 96.73 76.56 102.32 70.80 100.44 C 66.53 98.29 64.40 93.60 64.41 88.97 L 65.69 87.16 C 66.12 86.68 66.55 86.19 66.98 85.71 C 68.71 84.68 70.38 83.49 72.29 82.80 M 67.61 90.94 C 67.09 92.65 69.96 93.37 70.46 91.73 C 71.08 89.97 68.11 89.34 67.61 90.94 Z" />
<path fill="#fefefe" opacity="1.00" d=" M 108.21 85.16 C 109.41 83.20 111.43 82.91 113.55 83.33 C 113.58 84.82 114.35 87.79 111.93 87.64 C 111.41 87.66 110.39 87.71 109.87 87.73 C 108.80 89.53 106.91 90.47 105.23 91.58 C 104.64 91.50 103.48 91.34 102.90 91.26 C 102.51 92.78 101.39 93.60 99.93 94.00 C 98.95 94.54 98.12 95.46 96.98 95.66 C 95.80 95.19 95.05 94.03 94.08 93.25 C 94.52 92.68 95.40 91.55 95.84 90.98 C 97.63 90.17 99.37 89.15 101.38 89.03 C 101.90 88.37 102.41 87.70 102.93 87.04 C 104.64 86.29 106.32 85.38 108.21 85.16 Z" />
<path fill="#fefefe" opacity="1.00" d=" M 89.92 93.57 C 91.50 91.13 93.88 93.27 95.08 94.76 C 94.13 96.50 92.45 97.48 90.68 98.16 C 90.73 99.19 90.77 100.22 90.83 101.25 C 89.51 101.88 88.19 102.49 86.83 103.02 C 86.74 104.14 86.64 105.26 86.54 106.38 C 85.97 106.42 84.85 106.48 84.29 106.51 C 83.55 105.47 82.85 104.39 82.26 103.26 C 83.64 101.88 84.83 100.32 85.87 98.67 C 86.26 98.43 87.03 97.97 87.42 97.73 C 87.55 96.19 87.85 94.67 88.36 93.21 C 88.75 93.30 89.53 93.48 89.92 93.57 Z" />
<path fill="#fefefe" opacity="1.00" d=" M 138.43 122.56 C 139.39 121.26 141.66 122.69 140.63 124.08 C 139.72 125.46 137.41 123.89 138.43 122.56 Z" />
<path fill="#fefefe" opacity="1.00" d=" M 139.05 126.47 C 141.71 125.79 139.77 129.29 138.57 127.26 L 139.05 126.47 Z" />
<path fill="#fefefe" opacity="1.00" d=" M 137.73 128.33 C 139.26 129.26 141.77 130.22 140.21 132.35 C 135.40 132.90 135.74 138.90 132.15 141.22 C 131.06 141.63 129.98 142.07 128.92 142.53 C 128.23 142.37 126.86 142.04 126.17 141.88 C 121.13 142.51 116.12 141.22 111.07 141.51 C 109.66 141.72 108.54 140.94 108.17 139.57 C 106.57 141.60 105.16 138.71 103.94 137.86 C 102.47 135.26 105.42 135.66 107.03 135.65 C 107.59 136.64 108.15 137.63 108.71 138.62 C 111.20 138.37 113.98 138.08 114.99 140.95 C 115.48 140.54 116.44 139.74 116.92 139.34 C 117.37 139.61 118.28 140.14 118.74 140.40 C 120.66 139.57 122.78 139.88 124.81 139.68 C 127.91 139.54 129.14 135.95 132.29 135.94 C 132.49 135.01 132.69 134.08 132.89 133.16 C 135.10 132.21 136.65 130.44 137.73 128.33 Z" />
</g>
<g id="#fe007eff">
<path fill="#fe007e" opacity="1.00" d=" M 162.95 113.34 C 166.25 123.69 169.30 134.13 171.94 144.67 C 173.44 149.99 173.97 155.52 175.62 160.80 C 178.10 168.89 180.19 177.10 181.85 185.40 C 184.38 196.77 182.88 208.47 183.34 220.00 L 107.18 220.00 C 108.46 210.04 111.13 200.11 110.44 190.01 C 107.87 182.25 105.77 174.30 102.28 166.88 C 100.58 163.47 99.78 159.70 99.72 155.90 C 103.82 157.16 107.66 159.59 112.08 159.54 C 117.68 159.72 123.30 160.01 128.89 159.62 C 136.24 158.20 142.33 153.45 149.40 151.19 C 152.77 143.98 155.58 136.51 159.34 129.49 C 162.07 124.51 161.57 118.68 162.95 113.34 Z" />
</g>
</svg>
