<?xml version="1.0" encoding="UTF-8" ?>
<!DOCTYPE svg PUBLIC "-//W3C//DTD SVG 1.1//EN" "http://www.w3.org/Graphics/SVG/1.1/DTD/svg11.dtd">
<svg width="210pt" height="220pt" viewBox="0 0 210 220" version="1.1" xmlns="http://www.w3.org/2000/svg">
<g id="#323232fa">
<path fill="#323232" opacity="0.98" d=" M 103.03 15.29 C 105.06 11.90 109.49 13.75 112.70 13.32 C 113.29 14.01 113.88 14.69 114.48 15.38 C 119.82 15.49 125.11 14.52 130.45 14.65 C 132.47 17.84 136.95 15.01 138.90 18.28 C 140.83 17.67 143.05 17.12 144.22 19.29 C 145.94 19.66 148.52 18.87 148.95 21.32 C 150.43 21.06 151.91 20.79 153.40 20.53 C 153.76 21.02 154.49 22.00 154.85 22.49 C 155.62 22.47 157.15 22.44 157.91 22.42 C 164.51 26.27 171.96 29.23 176.81 35.40 C 180.38 36.56 183.65 39.57 184.74 43.19 C 185.57 44.03 186.42 44.85 187.27 45.67 C 187.38 46.24 187.60 47.38 187.71 47.95 C 188.49 48.61 189.27 49.27 190.05 49.94 C 190.47 53.75 194.83 54.97 195.77 58.58 C 196.97 61.83 199.82 64.64 199.52 68.31 C 200.50 69.92 201.51 71.51 202.59 73.06 C 202.55 73.84 202.47 75.39 202.43 76.17 C 202.97 76.53 204.04 77.24 204.57 77.60 C 204.24 78.78 203.91 79.96 203.60 81.14 C 206.67 83.71 205.30 87.76 205.46 91.21 C 208.53 91.65 206.92 95.19 207.38 97.20 C 206.88 97.60 205.86 98.38 205.36 98.77 C 205.49 100.22 205.62 101.67 205.76 103.12 C 205.35 103.56 204.54 104.43 204.13 104.87 C 204.16 105.52 204.23 106.81 204.27 107.45 C 202.05 110.31 202.30 114.39 199.47 117.02 C 199.24 119.44 200.52 122.54 198.29 124.33 C 198.24 125.84 198.23 127.36 198.22 128.87 C 197.77 129.22 196.86 129.91 196.41 130.26 C 195.09 138.13 197.35 146.36 195.12 154.07 C 193.86 147.09 193.50 139.94 194.12 132.87 C 194.68 127.48 194.05 121.98 195.48 116.70 C 196.15 116.57 197.48 116.31 198.15 116.18 C 199.34 110.19 200.84 104.17 200.54 98.01 C 200.50 86.64 194.87 76.41 192.70 65.46 C 193.73 67.33 194.77 69.20 195.83 71.07 C 195.59 62.93 190.77 56.06 186.85 49.25 C 183.55 43.01 177.37 39.11 171.61 35.40 C 157.23 25.74 140.35 19.76 123.06 18.48 C 105.55 17.77 87.20 17.26 70.90 24.75 C 68.03 26.28 65.29 28.04 62.34 29.44 C 60.00 29.99 62.10 32.14 63.03 32.93 C 64.09 34.13 65.27 35.20 66.50 36.22 C 59.59 39.86 51.79 42.51 46.48 48.51 C 42.89 52.33 38.94 56.12 37.05 61.14 C 38.45 59.92 39.77 58.62 41.07 57.31 C 42.06 57.85 43.05 58.38 44.05 58.91 C 42.27 61.52 40.55 64.16 38.93 66.87 C 42.31 63.81 45.40 60.37 49.29 57.92 C 47.72 62.67 43.73 66.00 41.62 70.46 C 38.50 75.56 36.32 82.13 30.21 84.37 C 31.32 80.14 31.95 75.81 32.69 71.50 C 28.11 75.77 26.90 82.18 23.36 87.17 C 23.56 77.46 29.16 69.21 35.00 61.90 C 36.10 60.89 35.26 59.43 35.20 58.20 C 39.79 52.28 44.66 46.30 51.15 42.35 C 54.03 40.54 57.44 39.33 59.47 36.44 C 51.85 38.01 44.97 41.56 38.20 45.25 C 38.59 43.30 39.07 41.38 39.48 39.45 C 39.67 39.14 40.06 38.52 40.25 38.21 C 46.60 40.22 49.70 32.33 55.70 32.79 C 55.59 33.94 55.49 35.09 55.39 36.23 C 57.74 35.65 60.07 34.94 62.30 33.97 C 59.28 32.70 55.51 31.76 54.81 28.01 L 54.86 27.42 C 57.22 26.91 60.12 27.89 62.01 25.94 C 66.28 22.22 72.11 21.13 76.61 17.74 C 77.23 17.77 78.48 17.83 79.10 17.86 C 79.56 17.45 80.48 16.65 80.94 16.25 C 83.40 16.39 85.86 16.52 88.32 16.65 C 88.70 16.14 89.47 15.11 89.86 14.60 C 94.25 14.77 98.62 15.49 103.03 15.29 Z" />
<path fill="#323232" opacity="0.98" d=" M 122.19 23.37 C 125.50 23.71 128.77 24.34 132.07 24.75 C 139.66 26.72 147.05 29.41 154.17 32.71 C 155.89 33.69 157.90 33.41 159.79 33.36 C 162.62 34.26 164.97 36.08 166.83 38.37 C 163.28 37.40 159.78 36.25 156.31 35.04 C 160.69 37.38 164.83 40.25 168.35 43.77 C 169.58 44.92 169.83 46.66 170.40 48.17 C 164.20 44.92 159.38 38.19 151.96 37.90 C 148.50 35.44 145.57 32.20 141.62 30.47 C 135.55 27.91 129.08 26.10 122.53 25.28 C 122.45 24.81 122.28 23.85 122.19 23.37 Z" />
<path fill="#323232" opacity="0.98" d=" M 38.92 32.22 C 42.02 29.48 46.01 28.13 49.74 26.51 C 48.99 27.48 48.15 28.39 47.17 29.14 C 43.00 32.05 38.47 34.38 34.33 37.34 C 30.47 40.04 27.64 43.94 23.69 46.53 C 24.07 43.46 26.68 41.67 28.64 39.60 C 31.51 36.44 35.45 34.61 38.92 32.22 Z" />
<path fill="#323232" opacity="0.98" d=" M 113.20 28.35 C 123.18 27.76 132.94 30.69 142.06 34.45 C 141.28 35.08 140.50 35.70 139.71 36.31 L 138.95 36.07 C 130.77 33.31 122.51 29.88 113.71 30.18 C 113.59 29.72 113.33 28.81 113.20 28.35 Z" />
<path fill="#323232" opacity="0.98" d=" M 114.89 32.63 C 120.85 32.46 126.57 34.42 132.31 35.74 C 130.52 35.94 128.74 36.14 126.97 36.34 C 134.62 39.57 142.60 42.53 149.03 47.95 C 151.17 49.98 153.25 52.05 155.56 53.88 C 155.18 54.04 154.81 54.19 154.44 54.35 C 149.13 51.13 142.65 51.19 137.20 48.28 C 132.69 46.78 127.72 44.25 122.97 46.24 C 117.77 44.24 113.11 41.08 108.14 38.57 C 111.69 38.86 115.19 39.61 118.55 40.79 L 118.54 39.24 C 124.84 38.60 130.09 43.53 136.38 42.42 C 129.79 37.99 122.00 36.03 114.89 32.63 Z" />
<path fill="#323232" opacity="0.98" d=" M 101.04 39.61 C 101.78 40.13 102.52 40.65 103.26 41.18 C 108.64 42.18 113.39 45.08 118.55 46.79 C 115.60 46.23 112.60 45.88 109.59 45.85 C 106.42 44.26 103.54 42.13 101.04 39.61 Z" />
<path fill="#323232" opacity="0.98" d=" M 73.62 42.54 C 74.28 42.19 75.59 41.49 76.24 41.14 C 77.10 42.25 77.94 43.38 78.85 44.46 C 78.86 46.01 78.88 47.56 78.89 49.11 C 76.14 47.82 74.63 45.29 73.62 42.54 Z" />
<path fill="#323232" opacity="0.98" d=" M 91.78 43.80 C 91.86 43.39 91.97 42.98 91.88 42.56 C 92.25 42.95 92.99 43.73 93.35 44.12 C 101.25 47.90 109.41 51.09 117.48 54.49 C 116.77 54.73 115.37 55.21 114.67 55.46 C 125.21 60.37 136.53 63.24 147.74 66.20 C 151.40 67.12 153.90 70.25 157.37 71.62 C 161.43 73.27 165.65 75.00 168.58 78.42 C 166.23 77.87 164.08 76.74 162.08 75.43 C 160.70 75.51 159.33 75.59 157.96 75.68 C 157.51 75.28 156.62 74.48 156.17 74.07 C 155.55 74.11 154.29 74.20 153.66 74.24 C 153.24 73.74 152.38 72.74 151.96 72.24 C 150.96 73.06 149.96 73.88 148.96 74.69 C 147.34 73.40 145.82 71.97 144.09 70.82 C 139.95 70.44 135.79 70.93 131.64 70.93 L 130.86 70.52 C 130.89 70.18 130.95 69.50 130.98 69.16 C 134.12 67.60 138.37 68.77 141.96 68.55 C 133.73 66.32 125.61 63.63 117.78 60.27 C 114.87 58.89 111.90 57.62 108.72 57.03 C 112.29 60.54 117.41 61.58 121.30 64.62 C 123.05 65.93 124.73 67.35 126.59 68.51 C 124.28 68.59 121.98 68.51 119.68 68.42 C 121.19 69.53 122.68 70.67 124.24 71.73 C 122.27 71.84 120.30 71.98 118.36 72.30 L 117.93 72.88 C 117.68 73.25 117.18 73.97 116.93 74.34 C 114.82 74.15 112.61 73.97 110.93 72.53 C 110.22 72.49 108.80 72.42 108.09 72.38 C 106.24 71.24 104.31 70.27 102.45 69.16 C 101.35 68.33 100.32 67.41 99.30 66.50 C 100.30 65.83 101.30 65.15 102.30 64.46 C 104.29 64.91 106.29 65.37 108.29 65.80 C 102.55 61.14 95.17 59.06 89.60 54.20 C 89.58 52.60 89.11 51.10 88.16 49.81 C 87.17 48.58 86.20 47.33 85.27 46.05 C 87.90 47.92 90.47 49.88 93.01 51.88 C 93.25 50.23 95.00 50.16 96.01 50.88 C 99.39 52.68 102.62 54.76 105.80 56.89 C 101.41 52.23 96.49 48.10 91.78 43.80 Z" />
<path fill="#323232" opacity="0.98" d=" M 19.28 52.29 C 19.40 49.82 21.49 48.44 23.25 47.09 C 21.18 53.18 15.42 57.18 13.80 63.47 C 15.94 61.44 17.90 59.24 19.86 57.04 C 18.75 62.48 14.34 66.21 12.16 71.16 C 10.44 75.02 8.33 78.84 7.66 83.05 C 7.79 87.00 9.07 90.92 8.32 94.89 C 7.03 102.53 6.22 110.25 6.62 118.01 C 6.37 123.14 7.94 128.42 6.38 133.44 C 5.91 133.11 4.96 132.47 4.49 132.15 C 4.26 125.74 4.57 119.31 4.48 112.89 C 4.76 111.33 3.57 110.18 2.82 108.99 C 2.80 108.24 2.76 106.73 2.74 105.98 C 2.39 105.71 1.68 105.16 1.33 104.89 C 1.73 100.95 0.04 96.26 3.31 93.20 C 3.00 91.63 2.73 90.05 2.48 88.46 C 3.18 87.76 3.87 87.06 4.55 86.35 C 4.46 84.47 4.05 82.39 5.42 80.83 C 4.13 78.69 3.65 75.74 6.07 74.19 C 6.35 69.67 9.55 66.10 10.93 61.90 C 11.68 61.24 12.43 60.57 13.18 59.91 C 13.40 58.95 13.62 57.99 13.85 57.03 C 15.76 55.56 17.60 54.01 19.28 52.29 Z" />
<path fill="#323232" opacity="0.98" d=" M 125.16 46.92 C 130.11 48.70 134.65 51.42 139.41 53.64 C 142.51 54.93 144.23 57.92 146.05 60.55 C 138.95 55.19 129.53 54.17 122.62 48.57 C 123.40 48.59 124.95 48.64 125.73 48.66 C 125.59 48.22 125.31 47.35 125.16 46.92 Z" />
<path fill="#323232" opacity="0.98" d=" M 64.62 48.38 C 65.56 48.49 66.49 48.61 67.42 48.75 L 67.92 49.62 C 67.58 50.67 66.79 51.44 65.87 52.01 C 62.77 54.02 60.48 57.02 57.35 58.99 C 57.70 57.44 58.06 55.89 58.44 54.34 C 56.02 55.94 53.83 58.52 50.70 58.47 C 50.71 57.88 50.73 56.71 50.74 56.13 C 53.08 52.87 56.41 50.46 60.07 48.89 L 59.07 50.59 C 60.44 50.58 61.82 50.57 63.20 50.55 C 63.56 50.00 64.27 48.92 64.62 48.38 Z" />
<path fill="#323232" opacity="0.98" d=" M 65.06 61.04 C 66.70 58.75 67.96 55.90 70.71 54.74 C 70.45 57.29 68.52 59.28 66.73 60.96 C 66.62 61.50 66.40 62.57 66.29 63.10 C 65.43 63.78 64.57 64.45 63.71 65.13 C 63.62 65.74 63.42 66.96 63.32 67.56 C 62.47 68.37 61.63 69.17 60.78 69.97 C 60.66 70.48 60.42 71.51 60.29 72.02 C 58.70 73.47 57.29 75.13 55.58 76.45 C 52.54 77.91 48.90 79.00 47.32 82.29 C 46.18 84.80 44.04 86.56 41.77 88.01 C 43.20 84.79 44.67 81.53 47.00 78.85 C 51.14 74.13 55.00 69.18 58.75 64.15 C 58.38 65.96 58.02 67.78 57.69 69.60 C 60.56 67.13 63.04 64.24 65.06 61.04 Z" />
<path fill="#323232" opacity="0.98" d=" M 25.28 60.72 C 26.68 58.90 28.13 57.13 29.69 55.45 C 29.62 56.15 29.49 57.55 29.43 58.26 C 25.07 64.46 21.96 71.48 19.39 78.58 L 23.23 75.13 C 21.07 82.01 18.19 88.78 17.73 96.06 C 17.51 100.76 16.76 105.40 15.50 109.93 C 15.26 109.63 14.78 109.02 14.53 108.72 C 14.24 106.00 13.86 103.29 13.62 100.57 C 13.15 96.09 14.84 91.81 15.44 87.43 C 16.63 79.20 20.99 71.97 24.19 64.42 C 22.68 65.07 21.18 65.71 19.67 66.33 C 20.70 62.81 22.63 59.61 25.53 57.32 C 25.47 58.17 25.34 59.87 25.28 60.72 Z" />
<path fill="#323232" opacity="0.98" d=" M 129.07 56.24 C 129.48 56.08 130.29 55.76 130.70 55.61 C 134.73 57.11 138.64 59.00 142.04 61.67 C 137.15 61.23 132.04 60.98 127.71 58.39 C 128.53 58.45 130.17 58.59 130.99 58.66 C 130.51 58.05 129.55 56.84 129.07 56.24 Z" />
<path fill="#323232" opacity="0.98" d=" M 178.14 79.75 C 182.24 82.10 183.90 86.77 186.76 90.30 C 189.55 93.55 190.01 97.95 190.29 102.05 C 190.18 106.03 188.14 109.61 185.83 112.73 C 184.54 117.04 183.64 121.44 182.86 125.87 C 182.52 126.37 181.82 127.37 181.47 127.88 C 181.43 126.52 181.18 125.09 181.87 123.85 C 183.30 121.32 182.49 118.35 182.59 115.61 C 183.68 114.22 184.69 112.77 185.60 111.26 C 185.13 108.14 187.45 105.81 188.56 103.13 C 188.83 100.75 188.99 98.26 188.33 95.94 C 186.95 93.79 184.91 92.09 183.99 89.65 C 183.63 89.59 182.92 89.46 182.56 89.39 C 182.62 90.89 182.67 92.39 182.72 93.88 C 179.48 94.20 178.59 91.03 177.19 88.87 C 175.31 86.61 172.98 84.78 170.92 82.69 C 170.96 82.11 171.03 80.95 171.06 80.37 C 174.39 82.96 177.13 86.19 180.07 89.19 C 179.36 86.05 178.64 82.92 178.14 79.75 Z" />
<path fill="#323232" opacity="0.98" d=" M 29.10 88.13 C 30.80 85.24 36.92 83.65 37.88 88.06 C 37.15 92.19 35.33 96.03 34.29 100.08 C 32.86 104.48 33.27 109.30 31.50 113.60 C 31.05 113.94 30.15 114.63 29.69 114.97 C 28.26 109.80 30.66 104.67 31.31 99.56 C 31.92 94.99 35.07 91.36 36.02 86.90 C 31.37 89.15 30.67 94.68 28.79 98.93 C 28.50 100.19 27.25 100.62 26.26 101.18 C 26.74 96.75 27.73 92.37 29.10 88.13 Z" />
<path fill="#323232" opacity="0.98" d=" M 22.14 95.16 C 22.19 93.57 25.89 92.45 25.24 94.87 C 24.77 98.83 24.37 103.74 20.97 106.36 C 20.34 102.60 20.87 98.73 22.14 95.16 Z" />
<path fill="#323232" opacity="0.98" d=" M 37.66 121.87 C 37.37 117.12 37.52 112.22 39.06 107.67 C 39.70 108.71 40.83 109.63 40.72 110.98 C 40.81 116.13 40.75 121.29 40.41 126.43 C 39.38 125.01 37.79 123.74 37.66 121.87 Z" />
<path fill="#323232" opacity="0.98" d=" M 9.51 121.98 C 10.08 119.05 9.14 115.29 12.07 113.41 C 13.04 118.43 12.54 123.55 12.81 128.62 C 13.61 134.72 14.66 140.82 16.59 146.67 C 16.94 147.72 16.45 148.71 15.64 149.38 L 15.18 149.88 C 14.67 147.96 14.94 146.01 15.21 144.09 C 13.08 142.72 13.53 139.33 10.66 138.81 C 10.67 141.26 10.68 143.72 10.69 146.17 C 8.01 145.84 6.65 143.69 7.52 141.04 L 5.75 141.42 C 5.76 141.03 5.78 140.26 5.79 139.88 C 6.05 138.53 6.40 137.21 6.75 135.89 C 7.82 131.29 8.78 126.65 9.51 121.98 M 9.56 129.47 C 9.53 130.77 9.49 132.08 9.45 133.38 C 9.77 133.73 10.42 134.42 10.75 134.77 C 10.35 134.71 9.54 134.58 9.14 134.52 C 8.55 137.02 9.26 140.00 12.52 138.70 C 12.26 137.92 11.74 136.35 11.48 135.57 C 11.54 133.50 11.55 131.42 11.57 129.35 C 11.07 129.38 10.06 129.44 9.56 129.47 Z" />
<path fill="#323232" opacity="0.98" d=" M 28.62 118.42 C 28.90 116.89 29.74 117.30 30.49 118.25 C 31.17 124.86 29.74 131.58 31.28 138.13 C 31.29 143.80 32.98 149.36 32.48 155.04 C 29.72 143.07 27.61 130.75 28.62 118.42 Z" />
<path fill="#323232" opacity="0.98" d=" M 14.73 128.97 C 14.49 127.21 15.68 125.85 16.59 124.51 C 18.78 130.86 18.34 137.70 20.21 144.12 C 21.87 149.79 22.78 155.64 24.50 161.29 C 24.80 159.21 25.07 157.12 25.35 155.04 C 27.38 157.53 29.47 160.03 30.90 162.94 C 30.80 163.57 30.62 164.82 30.53 165.44 C 29.72 164.43 28.94 163.39 28.21 162.33 C 27.78 162.32 26.93 162.29 26.51 162.28 C 26.52 164.49 27.38 166.46 28.49 168.32 C 28.90 172.89 28.29 177.53 28.65 182.13 C 28.42 183.41 29.78 183.96 30.43 184.80 C 30.43 187.44 30.40 190.09 30.38 192.73 C 29.48 192.99 28.58 193.25 27.69 193.52 C 27.49 192.93 27.09 191.75 26.89 191.16 C 27.40 188.69 27.76 186.08 25.48 184.40 C 25.50 181.92 25.58 179.45 25.65 176.97 C 25.13 176.58 24.11 175.80 23.59 175.40 C 23.99 173.00 24.78 170.34 22.97 168.30 C 22.10 167.09 22.05 164.65 19.86 165.20 C 19.85 164.87 19.82 164.21 19.81 163.88 C 19.94 161.21 19.28 158.62 18.88 156.01 C 17.97 154.98 17.10 153.92 16.34 152.77 C 17.58 150.78 18.37 148.45 17.67 146.11 C 16.22 140.50 14.99 134.77 14.73 128.97 Z" />
<path fill="#323232" opacity="0.98" d=" M 42.37 133.31 C 40.42 133.57 40.07 130.57 41.27 129.54 C 42.78 130.41 43.15 131.66 42.37 133.31 Z" />
<path fill="#323232" opacity="0.98" d=" M 179.63 131.62 C 180.14 131.27 181.15 130.55 181.65 130.19 C 182.44 142.05 179.94 153.83 179.25 165.64 C 181.29 163.56 181.70 160.70 181.98 157.93 C 183.68 161.25 184.56 164.88 185.40 168.50 C 186.42 164.65 185.60 160.59 186.77 156.77 C 188.08 158.66 189.57 160.53 190.23 162.78 C 190.28 163.58 190.39 165.17 190.44 165.96 C 190.03 166.22 189.21 166.74 188.79 167.01 C 188.31 170.30 189.62 173.86 188.00 176.95 C 187.19 178.50 187.66 180.30 187.58 181.96 C 186.78 181.83 185.19 181.58 184.39 181.46 C 184.52 183.94 184.61 186.42 184.52 188.91 C 181.02 187.42 181.31 183.10 181.12 179.96 C 180.74 179.71 179.98 179.23 179.60 178.99 C 179.57 175.95 179.64 172.92 179.70 169.89 C 177.62 167.45 174.88 163.84 177.85 160.92 C 177.55 159.67 175.69 158.29 176.98 157.10 C 179.42 154.76 178.10 151.32 176.50 148.92 C 177.56 147.66 178.65 146.41 179.74 145.17 C 179.71 140.65 179.37 136.13 179.63 131.62 Z" />
<path fill="#323232" opacity="0.98" d=" M 41.43 141.85 C 40.91 140.50 41.26 139.14 41.75 137.86 C 42.45 139.04 43.29 140.12 44.28 141.08 C 44.17 142.83 43.89 144.57 43.46 146.28 C 44.15 147.01 44.83 147.74 45.53 148.47 C 45.50 149.12 45.46 150.43 45.44 151.08 C 46.64 152.52 47.31 154.25 47.29 156.14 C 47.61 156.45 48.25 157.07 48.57 157.39 C 48.54 158.08 48.48 159.46 48.46 160.15 C 49.71 161.44 50.24 163.11 50.41 164.88 C 51.27 166.19 51.60 167.68 51.53 169.24 C 52.51 170.90 53.52 172.55 54.59 174.17 C 54.54 174.91 54.45 176.40 54.40 177.14 C 54.89 177.48 55.86 178.17 56.35 178.52 C 56.25 179.97 56.16 181.43 56.06 182.89 C 56.45 183.37 57.24 184.33 57.64 184.82 C 57.36 187.11 56.99 189.61 59.30 190.99 C 59.16 192.96 58.97 194.92 58.79 196.88 C 59.50 198.13 60.21 199.37 60.93 200.61 C 59.78 200.63 58.63 200.65 57.48 200.67 C 57.53 198.28 57.44 195.30 54.41 194.84 C 54.47 196.71 54.56 198.59 54.65 200.47 C 54.21 200.47 53.33 200.46 52.89 200.46 C 52.43 199.22 51.94 198.00 51.43 196.80 C 51.40 196.09 51.33 194.69 51.29 193.98 C 50.20 192.35 49.20 190.66 48.21 188.97 C 48.33 187.57 48.40 186.17 48.42 184.77 C 47.08 182.45 43.93 183.67 41.75 183.14 C 39.79 187.07 41.33 191.46 41.43 195.61 C 40.56 195.60 39.69 195.59 38.82 195.59 C 38.89 192.68 37.36 189.99 37.62 187.08 C 37.44 184.20 38.67 180.74 36.35 178.45 C 36.37 177.73 36.41 176.28 36.44 175.55 L 34.52 175.25 C 34.74 180.82 34.67 186.40 34.80 191.97 C 35.13 195.36 32.58 198.24 33.56 201.72 L 31.35 201.76 C 31.67 194.19 31.80 186.60 31.65 179.02 C 31.12 177.99 30.34 177.11 29.66 176.18 C 30.65 172.94 30.36 169.53 30.45 166.19 C 31.79 167.63 33.19 169.02 34.61 170.38 C 33.55 166.50 31.96 162.65 32.29 158.54 C 36.65 164.06 34.82 172.15 39.86 177.36 C 39.86 174.23 39.36 171.14 38.81 168.07 C 38.27 165.04 38.98 161.91 38.24 158.90 C 37.57 155.91 35.94 152.81 37.34 149.77 C 40.89 156.39 43.90 163.33 45.50 170.68 C 45.88 170.92 46.64 171.40 47.02 171.63 C 48.61 169.64 49.08 167.01 48.11 164.63 C 45.50 157.16 43.51 149.49 41.43 141.85 M 41.22 169.91 C 40.52 171.20 42.47 173.64 43.67 172.20 C 44.27 170.92 42.43 168.52 41.22 169.91 M 42.56 172.67 C 41.55 176.46 43.49 180.72 47.02 182.39 C 46.51 180.13 45.21 178.07 45.32 175.68 C 44.42 174.66 43.49 173.66 42.56 172.67 M 52.67 184.73 C 52.73 188.21 51.65 192.54 55.44 194.54 C 56.63 190.95 53.26 187.94 54.64 184.24 C 54.15 184.36 53.17 184.60 52.67 184.73 Z" />
<path fill="#323232" opacity="0.98" d=" M 192.84 167.14 C 193.28 162.62 194.20 158.14 196.22 154.04 C 199.73 156.03 197.83 160.38 198.33 163.58 C 197.30 164.50 196.26 165.42 195.17 166.27 C 194.59 166.49 193.42 166.92 192.84 167.14 Z" />
<path fill="#323232" opacity="0.98" d=" M 191.75 170.93 C 190.45 170.01 187.78 166.95 191.56 166.96 C 192.73 168.40 192.71 170.29 192.98 172.02 C 193.43 170.97 193.91 169.92 194.36 168.86 C 198.13 170.71 196.11 175.31 196.36 178.58 C 196.82 178.92 197.75 179.61 198.21 179.96 C 198.24 181.79 198.28 183.63 198.34 185.46 C 197.87 185.44 196.93 185.39 196.46 185.36 C 195.83 184.63 195.20 183.90 194.57 183.17 C 194.63 182.40 194.76 180.85 194.82 180.08 C 194.42 179.78 193.62 179.18 193.22 178.88 C 193.29 178.09 193.42 176.50 193.48 175.71 C 193.04 175.32 192.15 174.55 191.70 174.17 C 191.72 173.09 191.73 172.01 191.75 170.93 Z" />
</g>
<g id="#fdfdfdff">
<path fill="#fdfdfd" opacity="1.00" d=" M 70.90 24.75 C 87.20 17.26 105.55 17.77 123.06 18.48 C 140.35 19.76 157.23 25.74 171.61 35.40 C 177.37 39.11 183.55 43.01 186.85 49.25 C 190.77 56.06 195.59 62.93 195.83 71.07 C 194.77 69.20 193.73 67.33 192.70 65.46 C 189.71 56.62 183.49 49.39 177.29 42.62 C 170.71 36.12 162.59 31.44 154.17 27.73 C 151.12 26.63 148.01 25.65 144.80 25.13 C 143.34 24.80 141.87 24.52 140.40 24.26 L 140.52 23.46 C 137.90 23.50 135.27 23.48 132.68 23.87 C 135.43 24.32 138.29 24.33 140.94 25.33 C 141.60 25.37 142.93 25.44 143.60 25.48 L 143.49 26.60 C 144.24 26.55 145.73 26.46 146.48 26.41 L 146.57 27.19 C 151.18 28.79 155.37 31.33 159.79 33.36 C 157.90 33.41 155.89 33.69 154.17 32.71 C 147.05 29.41 139.66 26.72 132.07 24.75 C 128.77 24.34 125.50 23.71 122.19 23.37 C 122.28 23.85 122.45 24.81 122.53 25.28 C 129.08 26.10 135.55 27.91 141.62 30.47 C 145.57 32.20 148.50 35.44 151.96 37.90 C 153.32 38.92 154.70 39.93 156.06 40.97 C 154.05 39.94 152.05 38.88 150.05 37.83 C 148.68 37.29 147.31 36.73 145.94 36.19 C 144.65 35.60 143.36 35.02 142.06 34.45 C 132.94 30.69 123.18 27.76 113.20 28.35 C 113.33 28.81 113.59 29.72 113.71 30.18 C 122.51 29.88 130.77 33.31 138.95 36.07 L 139.71 36.31 C 140.27 36.50 141.39 36.89 141.95 37.09 C 149.20 40.13 155.96 44.31 161.68 49.73 C 159.42 48.06 157.13 46.40 154.57 45.20 C 153.05 44.43 151.54 43.64 150.05 42.82 C 146.15 40.97 142.10 39.49 138.15 37.78 C 136.20 37.10 134.26 36.39 132.31 35.74 C 126.57 34.42 120.85 32.46 114.89 32.63 C 122.00 36.03 129.79 37.99 136.38 42.42 C 130.09 43.53 124.84 38.60 118.54 39.24 L 118.55 40.79 C 115.19 39.61 111.69 38.86 108.14 38.57 C 113.11 41.08 117.77 44.24 122.97 46.24 C 123.52 46.41 124.62 46.75 125.16 46.92 C 125.31 47.35 125.59 48.22 125.73 48.66 C 124.95 48.64 123.40 48.59 122.62 48.57 C 122.42 48.43 122.03 48.15 121.84 48.01 C 120.75 47.56 119.65 47.18 118.55 46.79 C 113.39 45.08 108.64 42.18 103.26 41.18 C 102.52 40.65 101.78 40.13 101.04 39.61 C 103.54 42.13 106.42 44.26 109.59 45.85 C 114.08 48.28 118.58 50.69 122.99 53.25 C 125.41 54.51 127.88 55.82 130.70 55.61 C 130.29 55.76 129.48 56.08 129.07 56.24 C 129.55 56.84 130.51 58.05 130.99 58.66 C 130.17 58.59 128.53 58.45 127.71 58.39 C 124.57 56.98 121.31 55.88 118.10 54.67 L 117.48 54.49 C 109.41 51.09 101.25 47.90 93.35 44.12 C 92.99 43.73 92.25 42.95 91.88 42.56 C 91.97 42.98 91.86 43.39 91.78 43.80 C 96.49 48.10 101.41 52.23 105.80 56.89 C 102.62 54.76 99.39 52.68 96.01 50.88 C 95.00 50.16 93.25 50.23 93.01 51.88 C 90.47 49.88 87.90 47.92 85.27 46.05 C 86.20 47.33 87.17 48.58 88.16 49.81 C 89.11 51.10 89.58 52.60 89.60 54.20 C 89.24 53.87 88.52 53.21 88.15 52.88 C 85.11 50.01 81.78 47.45 78.85 44.46 C 77.94 43.38 77.10 42.25 76.24 41.14 C 75.59 41.49 74.28 42.19 73.62 42.54 C 73.09 42.45 72.02 42.25 71.49 42.15 C 71.41 42.82 71.26 44.15 71.19 44.82 C 69.75 46.16 68.54 47.73 67.92 49.62 L 67.42 48.75 C 66.49 48.61 65.56 48.49 64.62 48.38 C 64.27 48.92 63.56 50.00 63.20 50.55 C 61.82 50.57 60.44 50.58 59.07 50.59 L 60.07 48.89 C 61.91 47.77 63.65 46.49 65.36 45.19 C 65.43 44.66 65.57 43.61 65.64 43.09 C 60.46 43.73 56.53 47.52 52.58 50.58 C 49.56 53.17 46.23 55.52 44.05 58.91 C 43.05 58.38 42.06 57.85 41.07 57.31 C 39.77 58.62 38.45 59.92 37.05 61.14 C 38.94 56.12 42.89 52.33 46.48 48.51 C 51.79 42.51 59.59 39.86 66.50 36.22 C 65.27 35.20 64.09 34.13 63.03 32.93 C 62.10 32.14 60.00 29.99 62.34 29.44 C 65.29 28.04 68.03 26.28 70.90 24.75 Z" />
<path fill="#fdfdfd" opacity="1.00" d=" M 38.20 45.25 C 44.97 41.56 51.85 38.01 59.47 36.44 C 57.44 39.33 54.03 40.54 51.15 42.35 C 44.66 46.30 39.79 52.28 35.20 58.20 C 30.85 63.58 26.13 68.77 23.23 75.13 L 19.39 78.58 C 21.96 71.48 25.07 64.46 29.43 58.26 C 29.49 57.55 29.62 56.15 29.69 55.45 C 28.13 57.13 26.68 58.90 25.28 60.72 C 25.34 59.87 25.47 58.17 25.53 57.32 C 25.56 56.94 25.62 56.17 25.65 55.78 C 29.26 49.56 33.69 43.79 39.48 39.45 C 39.07 41.38 38.59 43.30 38.20 45.25 Z" />
<path fill="#fdfdfd" opacity="1.00" d=" M 72.87 47.16 C 73.25 47.48 74.01 48.11 74.39 48.43 C 74.80 48.43 75.63 48.42 76.05 48.41 C 76.17 50.40 77.63 51.71 79.04 52.91 C 83.74 57.11 89.22 60.24 94.11 64.19 C 94.76 64.25 96.07 64.37 96.72 64.43 C 97.39 65.11 97.97 65.85 98.47 66.68 L 99.30 66.50 C 100.32 67.41 101.35 68.33 102.45 69.16 C 101.22 69.29 99.99 69.42 98.75 69.53 C 98.21 67.99 97.99 66.20 96.72 65.05 C 95.37 64.44 93.82 64.73 92.38 64.58 L 92.68 63.47 C 92.00 63.39 90.65 63.25 89.97 63.18 C 89.70 62.65 89.17 61.61 88.90 61.08 C 88.43 60.78 87.49 60.19 87.02 59.89 C 84.94 58.15 83.18 55.64 80.29 55.25 L 80.66 54.46 C 79.44 54.36 78.23 54.26 77.02 54.16 C 77.14 51.57 75.59 49.62 73.72 48.03 C 72.77 49.98 72.62 52.39 71.08 54.02 C 71.17 53.85 71.33 53.50 71.41 53.33 C 72.51 51.44 72.78 49.29 72.87 47.16 Z" />
<path fill="#fdfdfd" opacity="1.00" d=" M 119.68 68.42 C 121.98 68.51 124.28 68.59 126.59 68.51 C 127.17 68.76 128.35 69.26 128.93 69.51 C 130.08 71.30 127.89 72.39 126.40 72.50 C 125.86 72.30 124.78 71.92 124.24 71.73 C 122.68 70.67 121.19 69.53 119.68 68.42 Z" />
<path fill="#fdfdfd" opacity="1.00" d=" M 9.56 129.47 C 10.06 129.44 11.07 129.38 11.57 129.35 C 11.55 131.42 11.54 133.50 11.48 135.57 L 10.75 134.77 C 10.42 134.42 9.77 133.73 9.45 133.38 C 9.49 132.08 9.53 130.77 9.56 129.47 Z" />
</g>
<g id="#030303ff">
<path fill="#030303" opacity="1.00" d=" M 132.68 23.87 C 135.27 23.48 137.90 23.50 140.52 23.46 L 140.40 24.26 C 141.87 24.52 143.34 24.80 144.80 25.13 C 148.01 25.65 151.12 26.63 154.17 27.73 C 162.59 31.44 170.71 36.12 177.29 42.62 C 183.49 49.39 189.71 56.62 192.70 65.46 C 194.87 76.41 200.50 86.64 200.54 98.01 C 200.84 104.17 199.34 110.19 198.15 116.18 C 197.48 116.31 196.15 116.57 195.48 116.70 C 194.05 121.98 194.68 127.48 194.12 132.87 C 193.50 139.94 193.86 147.09 195.12 154.07 C 197.35 146.36 195.09 138.13 196.41 130.26 C 197.07 138.13 197.28 146.20 196.22 154.04 C 194.20 158.14 193.28 162.62 192.84 167.14 C 193.42 166.92 194.59 166.49 195.17 166.27 L 195.43 166.17 C 195.16 166.84 194.63 168.19 194.36 168.86 C 193.91 169.92 193.43 170.97 192.98 172.02 C 192.71 170.29 192.73 168.40 191.56 166.96 C 190.87 165.66 190.79 164.13 190.23 162.78 C 189.57 160.53 188.08 158.66 186.77 156.77 C 185.60 160.59 186.42 164.65 185.40 168.50 C 184.56 164.88 183.68 161.25 181.98 157.93 C 181.70 160.70 181.29 163.56 179.25 165.64 C 179.94 153.83 182.44 142.05 181.65 130.19 C 181.59 129.64 181.46 128.53 181.40 127.98 L 181.47 127.88 C 181.82 127.37 182.52 126.37 182.86 125.87 C 183.64 121.44 184.54 117.04 185.83 112.73 C 188.14 109.61 190.18 106.03 190.29 102.05 C 190.01 97.95 189.55 93.55 186.76 90.30 C 183.90 86.77 182.24 82.10 178.14 79.75 C 178.64 82.92 179.36 86.05 180.07 89.19 C 177.13 86.19 174.39 82.96 171.06 80.37 C 171.03 80.95 170.96 82.11 170.92 82.69 C 169.82 81.49 169.73 79.62 168.58 78.42 C 165.65 75.00 161.43 73.27 157.37 71.62 C 153.90 70.25 151.40 67.12 147.74 66.20 C 136.53 63.24 125.21 60.37 114.67 55.46 C 115.37 55.21 116.77 54.73 117.48 54.49 L 118.10 54.67 C 121.31 55.88 124.57 56.98 127.71 58.39 C 132.04 60.98 137.15 61.23 142.04 61.67 C 138.64 59.00 134.73 57.11 130.70 55.61 C 127.88 55.82 125.41 54.51 122.99 53.25 C 118.58 50.69 114.08 48.28 109.59 45.85 C 112.60 45.88 115.60 46.23 118.55 46.79 C 119.65 47.18 120.75 47.56 121.84 48.01 C 122.03 48.15 122.42 48.43 122.62 48.57 C 129.53 54.17 138.95 55.19 146.05 60.55 C 144.23 57.92 142.51 54.93 139.41 53.64 C 134.65 51.42 130.11 48.70 125.16 46.92 C 124.62 46.75 123.52 46.41 122.97 46.24 C 127.72 44.25 132.69 46.78 137.20 48.28 C 142.65 51.19 149.13 51.13 154.44 54.35 C 154.81 54.19 155.18 54.04 155.56 53.88 C 153.25 52.05 151.17 49.98 149.03 47.95 C 142.60 42.53 134.62 39.57 126.97 36.34 C 128.74 36.14 130.52 35.94 132.31 35.74 C 134.26 36.39 136.20 37.10 138.15 37.78 C 142.10 39.49 146.15 40.97 150.05 42.82 C 151.54 43.64 153.05 44.43 154.57 45.20 C 157.13 46.40 159.42 48.06 161.68 49.73 C 155.96 44.31 149.20 40.13 141.95 37.09 C 141.39 36.89 140.27 36.50 139.71 36.31 C 140.50 35.70 141.28 35.08 142.06 34.45 C 143.36 35.02 144.65 35.60 145.94 36.19 C 147.31 36.73 148.68 37.29 150.05 37.83 C 152.05 38.88 154.05 39.94 156.06 40.97 C 154.70 39.93 153.32 38.92 151.96 37.90 C 159.38 38.19 164.20 44.92 170.40 48.17 C 169.83 46.66 169.58 44.92 168.35 43.77 C 164.83 40.25 160.69 37.38 156.31 35.04 C 159.78 36.25 163.28 37.40 166.83 38.37 C 164.97 36.08 162.62 34.26 159.79 33.36 C 155.37 31.33 151.18 28.79 146.57 27.19 L 146.48 26.41 C 145.73 26.46 144.24 26.55 143.49 26.60 L 143.60 25.48 C 142.93 25.44 141.60 25.37 140.94 25.33 C 138.29 24.33 135.43 24.32 132.68 23.87 Z" />
<path fill="#030303" opacity="1.00" d=" M 50.58 29.08 L 49.75 27.12 C 50.84 27.27 53.02 27.58 54.11 27.73 L 54.81 28.01 C 55.51 31.76 59.28 32.70 62.30 33.97 C 60.07 34.94 57.74 35.65 55.39 36.23 C 55.49 35.09 55.59 33.94 55.70 32.79 C 49.70 32.33 46.60 40.22 40.25 38.21 C 40.06 38.52 39.67 39.14 39.48 39.45 C 33.69 43.79 29.26 49.56 25.65 55.78 C 25.62 56.17 25.56 56.94 25.53 57.32 C 22.63 59.61 20.70 62.81 19.67 66.33 C 21.18 65.71 22.68 65.07 24.19 64.42 C 20.99 71.97 16.63 79.20 15.44 87.43 C 14.84 91.81 13.15 96.09 13.62 100.57 C 13.86 103.29 14.24 106.00 14.53 108.72 C 14.78 109.02 15.26 109.63 15.50 109.93 C 16.76 105.40 17.51 100.76 17.73 96.06 C 18.19 88.78 21.07 82.01 23.23 75.13 C 26.13 68.77 30.85 63.58 35.20 58.20 C 35.26 59.43 36.10 60.89 35.00 61.90 C 29.16 69.21 23.56 77.46 23.36 87.17 C 26.90 82.18 28.11 75.77 32.69 71.50 C 31.95 75.81 31.32 80.14 30.21 84.37 C 36.32 82.13 38.50 75.56 41.62 70.46 C 43.73 66.00 47.72 62.67 49.29 57.92 C 45.40 60.37 42.31 63.81 38.93 66.87 C 40.55 64.16 42.27 61.52 44.05 58.91 C 46.23 55.52 49.56 53.17 52.58 50.58 C 56.53 47.52 60.46 43.73 65.64 43.09 C 65.57 43.61 65.43 44.66 65.36 45.19 C 63.65 46.49 61.91 47.77 60.07 48.89 C 56.41 50.46 53.08 52.87 50.74 56.13 C 50.73 56.71 50.71 57.88 50.70 58.47 C 53.83 58.52 56.02 55.94 58.44 54.34 C 58.06 55.89 57.70 57.44 57.35 58.99 C 60.48 57.02 62.77 54.02 65.87 52.01 C 66.79 51.44 67.58 50.67 67.92 49.62 C 68.54 47.73 69.75 46.16 71.19 44.82 C 71.26 44.15 71.41 42.82 71.49 42.15 C 72.02 42.25 73.09 42.45 73.62 42.54 C 74.63 45.29 76.14 47.82 78.89 49.11 C 78.88 47.56 78.86 46.01 78.85 44.46 C 81.78 47.45 85.11 50.01 88.15 52.88 C 88.52 53.21 89.24 53.87 89.60 54.20 C 95.17 59.06 102.55 61.14 108.29 65.80 C 106.29 65.37 104.29 64.91 102.30 64.46 C 101.30 65.15 100.30 65.83 99.30 66.50 L 98.47 66.68 C 97.97 65.85 97.39 65.11 96.72 64.43 C 96.07 64.37 94.76 64.25 94.11 64.19 C 89.22 60.24 83.74 57.11 79.04 52.91 C 77.63 51.71 76.17 50.40 76.05 48.41 C 75.63 48.42 74.80 48.43 74.39 48.43 C 74.01 48.11 73.25 47.48 72.87 47.16 C 72.78 49.29 72.51 51.44 71.41 53.33 C 71.33 53.50 71.17 53.85 71.08 54.02 L 70.71 54.74 C 67.96 55.90 66.70 58.75 65.06 61.04 C 63.04 64.24 60.56 67.13 57.69 69.60 C 58.02 67.78 58.38 65.96 58.75 64.15 C 55.00 69.18 51.14 74.13 47.00 78.85 C 44.67 81.53 43.20 84.79 41.77 88.01 C 37.79 93.67 39.99 100.70 39.24 107.09 L 39.06 107.67 C 37.52 112.22 37.37 117.12 37.66 121.87 C 37.79 123.74 39.38 125.01 40.41 126.43 L 40.71 126.79 C 40.44 128.98 40.14 131.17 39.78 133.35 C 40.76 134.18 43.65 134.03 42.34 136.09 C 42.19 136.54 41.90 137.42 41.75 137.86 C 41.26 139.14 40.91 140.50 41.43 141.85 C 43.51 149.49 45.50 157.16 48.11 164.63 C 49.08 167.01 48.61 169.64 47.02 171.63 C 46.64 171.40 45.88 170.92 45.50 170.68 C 43.90 163.33 40.89 156.39 37.34 149.77 C 35.94 152.81 37.57 155.91 38.24 158.90 C 38.98 161.91 38.27 165.04 38.81 168.07 C 39.36 171.14 39.86 174.23 39.86 177.36 C 34.82 172.15 36.65 164.06 32.29 158.54 C 31.96 162.65 33.55 166.50 34.61 170.38 C 33.19 169.02 31.79 167.63 30.45 166.19 C 30.47 166.01 30.51 165.63 30.53 165.44 C 30.62 164.82 30.80 163.57 30.90 162.94 C 29.47 160.03 27.38 157.53 25.35 155.04 C 25.07 157.12 24.80 159.21 24.50 161.29 C 22.78 155.64 21.87 149.79 20.21 144.12 C 18.34 137.70 18.78 130.86 16.59 124.51 C 15.68 125.85 14.49 127.21 14.73 128.97 C 14.99 134.77 16.22 140.50 17.67 146.11 C 18.37 148.45 17.58 150.78 16.34 152.77 C 17.10 153.92 17.97 154.98 18.88 156.01 C 19.28 158.62 19.94 161.21 19.81 163.88 C 18.88 161.61 18.26 159.13 18.21 156.67 C 17.78 156.34 16.92 155.69 16.49 155.36 C 16.39 153.35 15.63 151.33 15.64 149.38 C 16.45 148.71 16.94 147.72 16.59 146.67 C 14.66 140.82 13.61 134.72 12.81 128.62 C 12.54 123.55 13.04 118.43 12.07 113.41 C 9.14 115.29 10.08 119.05 9.51 121.98 C 8.78 126.65 7.82 131.29 6.75 135.89 C 6.40 137.21 6.05 138.53 5.79 139.88 C 4.35 137.92 5.56 135.40 6.38 133.44 C 7.94 128.42 6.37 123.14 6.62 118.01 C 6.22 110.25 7.03 102.53 8.32 94.89 C 9.07 90.92 7.79 87.00 7.66 83.05 C 8.33 78.84 10.44 75.02 12.16 71.16 C 14.34 66.21 18.75 62.48 19.86 57.04 C 17.90 59.24 15.94 61.44 13.80 63.47 C 15.42 57.18 21.18 53.18 23.25 47.09 L 23.41 46.74 L 23.69 46.53 C 27.64 43.94 30.47 40.04 34.33 37.34 C 38.47 34.38 43.00 32.05 47.17 29.14 L 48.24 28.41 C 48.83 28.58 50.00 28.91 50.58 29.08 M 29.10 88.13 C 27.73 92.37 26.74 96.75 26.26 101.18 C 27.25 100.62 28.50 100.19 28.79 98.93 C 30.67 94.68 31.37 89.15 36.02 86.90 C 35.07 91.36 31.92 94.99 31.31 99.56 C 30.66 104.67 28.26 109.80 29.69 114.97 C 30.15 114.63 31.05 113.94 31.50 113.60 C 33.27 109.30 32.86 104.48 34.29 100.08 C 35.33 96.03 37.15 92.19 37.88 88.06 C 36.92 83.65 30.80 85.24 29.10 88.13 M 22.14 95.16 C 20.87 98.73 20.34 102.60 20.97 106.36 C 24.37 103.74 24.77 98.83 25.24 94.87 C 25.89 92.45 22.19 93.57 22.14 95.16 M 28.62 118.42 C 27.61 130.75 29.72 143.07 32.48 155.04 C 32.98 149.36 31.29 143.80 31.28 138.13 C 29.74 131.58 31.17 124.86 30.49 118.25 C 29.74 117.30 28.90 116.89 28.62 118.42 Z" />
<path fill="#030303" opacity="1.00" d=" M 108.72 57.03 C 111.90 57.62 114.87 58.89 117.78 60.27 C 125.61 63.63 133.73 66.32 141.96 68.55 C 138.37 68.77 134.12 67.60 130.98 69.16 C 130.95 69.50 130.89 70.18 130.86 70.52 C 130.55 71.09 129.92 72.24 129.61 72.82 C 125.71 72.53 121.82 72.52 117.93 72.88 L 118.36 72.30 C 120.30 71.98 122.27 71.84 124.24 71.73 C 124.78 71.92 125.86 72.30 126.40 72.50 C 127.89 72.39 130.08 71.30 128.93 69.51 C 128.35 69.26 127.17 68.76 126.59 68.51 C 124.73 67.35 123.05 65.93 121.30 64.62 C 117.41 61.58 112.29 60.54 108.72 57.03 Z" />
</g>
</svg>
