<?xml version="1.0" encoding="UTF-8" ?>
<!DOCTYPE svg PUBLIC "-//W3C//DTD SVG 1.1//EN" "http://www.w3.org/Graphics/SVG/1.1/DTD/svg11.dtd">
<svg width="210pt" height="220pt" viewBox="0 0 210 220" version="1.1" xmlns="http://www.w3.org/2000/svg">
<g id="#686868f7">
<path fill="#686868" opacity="0.97" d=" M 104.22 14.27 C 106.40 12.74 109.25 13.25 111.74 13.43 C 117.70 18.35 125.83 12.88 132.38 15.80 C 137.03 17.34 141.90 18.10 146.51 19.79 C 150.57 21.26 155.05 21.30 158.96 23.24 C 164.53 26.03 170.30 28.79 174.70 33.32 C 177.35 36.06 181.39 37.22 183.39 40.64 C 185.31 43.92 187.68 46.93 189.47 50.28 C 189.63 51.54 189.78 52.79 189.94 54.05 C 185.78 47.77 181.30 41.36 174.58 37.58 C 173.28 36.89 171.78 36.87 170.36 36.70 C 167.18 35.39 164.30 33.51 161.32 31.82 C 153.14 27.04 143.72 24.99 134.50 23.38 C 147.30 25.28 159.01 31.76 169.05 39.73 C 165.71 38.15 162.29 36.74 158.72 35.80 C 162.69 39.65 167.61 42.67 170.30 47.68 C 165.94 45.10 162.10 41.75 157.72 39.21 C 156.23 38.26 154.42 38.50 152.75 38.41 C 148.48 35.64 144.75 31.99 139.99 30.04 C 132.55 26.92 124.39 26.33 116.78 23.80 C 124.13 23.51 131.45 22.79 138.76 21.93 C 137.22 21.24 135.71 20.40 134.01 20.11 C 122.77 18.18 111.31 17.94 99.94 18.40 C 86.33 19.07 72.50 22.47 61.38 30.66 C 63.25 32.46 65.08 34.31 66.92 36.13 C 60.51 39.97 53.14 42.39 47.67 47.66 C 44.91 50.29 42.48 53.24 40.15 56.25 C 42.01 56.56 43.88 56.85 45.75 57.14 C 43.85 59.48 41.89 61.78 39.70 63.86 C 38.24 64.11 36.38 63.84 35.52 65.36 C 32.08 69.83 29.80 75.14 25.77 79.18 C 27.15 72.14 31.83 66.50 36.13 61.00 C 35.83 60.35 35.23 59.04 34.94 58.38 C 38.35 53.70 42.11 49.26 46.50 45.46 C 49.80 42.57 53.73 40.53 57.23 37.90 C 47.76 38.95 40.17 45.12 33.17 51.04 C 34.86 48.10 36.56 45.16 38.10 42.13 C 37.61 42.09 36.63 42.01 36.14 41.97 C 37.70 40.18 39.75 38.76 42.23 38.90 C 46.73 39.06 49.79 35.25 53.52 33.33 C 54.44 34.25 55.39 35.15 56.36 36.02 C 58.79 35.87 60.99 34.72 63.16 33.72 C 61.16 32.83 59.15 31.96 57.14 31.11 C 56.64 30.01 56.13 28.92 55.60 27.85 C 57.52 27.40 59.61 27.34 61.36 26.34 C 66.98 22.57 73.24 19.85 79.48 17.29 C 82.20 15.77 85.44 17.15 88.25 16.09 C 93.17 13.19 99.41 17.51 104.22 14.27 Z" />
<path fill="#686868" opacity="0.97" d=" M 46.74 27.71 C 47.83 27.09 49.10 27.34 50.29 27.37 C 45.68 29.59 41.26 32.19 36.97 34.97 C 32.14 38.06 28.37 42.47 23.98 46.11 C 25.04 42.04 28.78 39.48 31.81 36.86 C 36.80 33.83 41.36 30.06 46.74 27.71 Z" />
<path fill="#686868" opacity="0.97" d=" M 109.81 28.71 C 114.09 26.55 118.96 27.73 123.28 29.14 C 121.51 29.21 119.74 29.31 117.97 29.36 C 119.39 29.77 120.81 30.19 122.23 30.60 C 118.02 30.57 113.73 30.44 109.81 28.71 Z" />
<path fill="#686868" opacity="0.97" d=" M 107.84 38.78 C 112.12 38.78 116.41 38.48 120.68 38.76 C 125.35 39.63 129.68 41.80 134.43 42.36 C 132.52 40.57 130.41 39.01 128.12 37.72 C 132.40 38.99 136.50 40.77 140.51 42.70 C 140.51 43.74 140.52 44.78 140.52 45.82 C 134.33 44.47 128.03 43.15 121.71 44.49 C 128.52 49.48 137.09 51.68 143.27 57.56 C 134.20 54.63 125.57 50.50 116.97 46.42 C 117.84 46.34 119.58 46.17 120.45 46.08 C 116.61 43.05 111.98 41.33 107.84 38.78 Z" />
<path fill="#686868" opacity="0.97" d=" M 146.42 38.95 C 152.39 41.26 158.32 44.53 162.09 49.88 C 155.38 47.24 149.46 43.03 142.96 39.95 C 144.11 39.62 145.26 39.29 146.42 38.95 Z" />
<path fill="#686868" opacity="0.97" d=" M 71.49 41.44 C 73.20 41.43 74.90 41.39 76.61 41.35 C 77.43 42.41 78.24 43.47 79.09 44.49 C 78.76 45.75 78.43 47.02 78.12 48.28 C 76.55 46.55 74.98 44.83 73.45 43.07 C 72.04 44.51 70.63 45.95 69.16 47.34 C 70.01 45.40 70.74 43.41 71.49 41.44 Z" />
<path fill="#686868" opacity="0.97" d=" M 85.34 46.16 C 88.90 49.03 93.41 50.44 97.92 49.15 C 101.28 51.13 104.40 53.48 107.06 56.34 C 105.68 57.08 104.32 57.84 102.89 58.49 C 99.50 57.54 96.45 55.51 92.87 55.23 C 89.55 55.00 87.19 52.47 84.98 50.26 C 85.48 50.32 86.46 50.44 86.95 50.50 C 86.43 49.04 85.89 47.60 85.34 46.16 Z" />
<path fill="#686868" opacity="0.97" d=" M 20.83 64.62 C 22.93 60.26 25.03 55.87 27.92 51.96 C 27.19 53.98 26.56 56.02 25.93 58.06 C 28.08 56.39 30.19 54.65 32.40 53.05 C 30.57 57.37 27.75 61.13 25.23 65.05 C 25.19 64.71 25.09 64.04 25.04 63.71 C 23.63 63.98 22.24 64.31 20.83 64.62 Z" />
<path fill="#686868" opacity="0.97" d=" M 122.23 52.69 C 128.74 55.19 135.39 57.55 141.21 61.47 C 136.36 60.90 131.42 60.28 126.98 58.10 C 127.54 57.99 128.67 57.78 129.23 57.68 C 126.99 55.89 124.65 54.23 122.23 52.69 Z" />
<path fill="#686868" opacity="0.97" d=" M 13.91 57.74 C 14.95 56.14 16.54 55.03 18.02 53.87 C 16.34 57.01 14.68 60.17 13.37 63.48 C 15.33 62.16 17.22 60.74 19.04 59.23 C 14.37 65.27 10.98 72.20 8.32 79.33 C 6.25 84.41 9.27 89.77 7.95 94.98 C 5.70 106.29 6.12 117.92 7.03 129.35 C 10.85 124.97 10.29 118.99 11.16 113.63 C 12.36 116.60 12.73 119.80 12.55 122.99 C 12.26 129.72 13.72 136.34 14.59 142.97 C 12.40 140.25 12.20 136.51 9.80 133.92 C 7.73 135.96 9.75 138.22 10.46 140.34 C 10.76 142.15 10.65 144.01 10.71 145.85 C 10.10 145.76 8.87 145.60 8.26 145.52 C 7.39 142.39 6.27 139.29 6.11 136.02 C 6.05 133.57 4.24 131.54 4.42 129.07 C 4.39 123.41 4.77 117.73 4.35 112.08 C 2.88 107.47 0.55 102.96 1.37 97.97 C 3.46 91.06 4.83 83.78 4.67 76.50 C 7.17 69.99 9.97 63.52 13.91 57.74 Z" />
<path fill="#686868" opacity="0.97" d=" M 107.61 53.74 C 113.47 54.83 118.78 57.67 124.37 59.61 C 131.65 62.29 139.23 64.05 146.66 66.24 C 151.01 67.37 153.89 71.18 158.05 72.71 C 161.33 74.00 164.47 75.66 167.17 77.95 C 161.94 75.15 156.27 73.38 150.45 72.31 C 140.93 69.53 130.75 71.69 121.34 68.22 C 122.34 69.65 123.30 71.11 124.24 72.58 C 122.12 72.26 120.01 71.86 117.93 71.34 C 118.68 71.19 120.17 70.89 120.92 70.73 C 118.25 69.30 115.67 67.69 113.36 65.71 C 123.46 66.29 133.17 71.10 143.43 68.99 C 137.54 66.44 131.17 65.31 125.22 62.93 C 119.08 60.48 112.35 58.62 107.61 53.74 Z" />
<path fill="#686868" opacity="0.97" d=" M 97.85 66.28 C 100.67 66.75 103.55 66.65 106.40 66.93 C 109.24 67.23 111.62 68.96 114.06 70.29 C 113.44 70.10 112.19 69.73 111.57 69.54 C 112.77 70.86 113.94 72.22 115.05 73.63 C 108.54 73.45 103.14 69.59 97.85 66.28 Z" />
<path fill="#686868" opacity="0.97" d=" M 196.29 67.89 C 198.02 71.58 199.08 75.55 199.29 79.62 C 195.86 76.97 194.89 72.70 194.05 68.70 C 194.77 69.49 195.50 70.26 196.24 71.02 C 196.25 70.24 196.28 68.67 196.29 67.89 Z" />
<path fill="#686868" opacity="0.97" d=" M 16.73 90.71 C 15.70 85.57 16.98 80.37 19.65 75.95 C 19.77 76.26 20.00 76.88 20.12 77.19 C 20.62 77.24 21.62 77.35 22.13 77.40 C 20.60 81.94 19.14 86.54 16.73 90.71 Z" />
<path fill="#686868" opacity="0.97" d=" M 87.71 77.50 C 96.81 75.87 106.87 81.61 109.90 90.32 C 104.43 93.21 98.54 90.81 93.34 88.61 C 88.23 86.66 82.59 86.03 77.20 87.05 C 69.85 88.43 62.31 87.35 55.04 86.01 C 57.03 84.04 59.68 83.10 62.09 81.78 C 64.22 80.63 65.96 78.85 68.20 77.91 C 70.36 77.34 72.63 77.56 74.85 77.45 C 69.52 79.07 64.45 81.46 60.26 85.20 C 61.49 85.57 62.72 85.95 63.94 86.34 C 65.82 85.19 67.69 84.02 69.69 83.08 C 69.41 84.00 69.12 84.93 68.84 85.86 C 71.94 85.05 77.49 85.95 77.77 81.59 C 76.12 81.62 74.48 81.71 72.84 81.84 C 74.34 81.27 75.84 80.69 77.34 80.14 C 78.28 81.84 79.20 83.54 80.12 85.25 C 83.42 85.49 86.72 85.72 90.02 85.98 C 90.83 83.54 91.53 81.08 92.13 78.58 C 90.66 78.21 89.19 77.82 87.71 77.50 M 91.45 85.21 C 96.35 86.40 101.07 88.91 106.12 89.18 L 106.49 88.15 C 103.61 83.59 98.37 81.38 93.63 79.28 C 92.90 81.25 92.18 83.23 91.45 85.21 Z" />
<path fill="#686868" opacity="0.97" d=" M 140.68 82.88 C 144.48 79.84 149.47 80.50 154.01 80.36 C 157.02 80.38 160.56 81.02 162.03 83.99 C 161.67 84.10 160.96 84.32 160.60 84.42 C 158.17 81.43 154.22 80.93 150.85 82.58 C 148.44 83.32 145.92 83.60 143.40 83.66 C 142.72 83.47 141.36 83.08 140.68 82.88 Z" />
<path fill="#686868" opacity="0.97" d=" M 40.36 100.59 C 41.36 93.69 42.33 86.38 46.82 80.74 C 42.44 90.58 41.58 101.39 40.74 111.99 C 40.80 117.34 41.55 122.67 41.52 128.03 C 41.32 133.78 44.80 138.62 47.83 143.19 C 54.26 152.70 63.09 160.69 73.68 165.29 C 86.52 171.57 99.50 177.90 113.44 181.35 C 126.48 184.19 139.49 189.02 153.05 187.48 C 158.53 187.11 163.55 184.80 168.24 182.08 C 168.12 182.54 167.88 183.45 167.76 183.90 L 167.55 184.68 C 162.68 187.91 156.98 190.12 151.04 189.72 C 147.04 189.51 143.03 189.85 139.04 189.61 C 136.44 188.78 133.77 188.30 131.04 188.37 C 123.87 186.94 117.05 184.02 109.85 182.67 C 104.11 181.83 99.01 178.82 93.43 177.37 C 85.92 175.44 79.01 171.71 72.59 167.43 C 62.15 161.62 51.80 154.45 45.91 143.76 C 45.68 143.48 45.21 142.92 44.98 142.63 C 44.77 142.99 44.35 143.70 44.14 144.05 L 43.35 145.48 C 41.96 140.95 42.42 136.12 40.88 131.61 C 39.39 121.37 38.64 110.86 40.36 100.59 Z" />
<path fill="#686868" opacity="0.97" d=" M 204.37 83.18 L 205.55 83.01 C 205.53 85.34 205.25 87.68 205.57 89.99 C 206.46 92.23 208.29 94.61 206.86 97.05 C 205.29 99.65 206.41 103.50 203.40 105.11 C 202.54 101.01 204.54 97.12 204.66 93.05 C 204.85 89.76 204.59 86.46 204.37 83.18 Z" />
<path fill="#686868" opacity="0.97" d=" M 29.52 87.43 C 31.31 87.03 33.11 86.59 34.91 86.19 C 31.43 90.29 29.76 95.42 27.34 100.12 C 27.42 95.80 28.49 91.60 29.52 87.43 Z" />
<path fill="#686868" opacity="0.97" d=" M 137.07 90.33 C 138.71 89.20 140.29 87.96 141.67 86.53 C 144.46 87.95 147.54 86.50 150.43 86.26 C 150.06 86.63 149.31 87.37 148.94 87.73 C 150.97 87.42 152.99 87.12 155.01 86.74 C 149.64 89.94 143.17 90.24 137.07 90.33 Z" />
<path fill="#686868" opacity="0.97" d=" M 31.63 100.31 C 32.21 95.61 34.30 91.25 37.60 87.86 C 36.16 92.69 34.45 97.44 33.19 102.32 C 32.06 106.60 33.00 111.54 30.06 115.22 C 28.57 110.20 31.07 105.27 31.63 100.31 Z" />
<path fill="#686868" opacity="0.97" d=" M 130.36 94.02 C 130.73 93.10 129.85 90.63 131.44 90.90 C 132.89 90.89 134.35 90.85 135.81 90.96 C 134.75 92.47 133.51 93.84 132.25 95.18 C 133.79 100.48 138.43 103.75 141.67 107.92 C 139.66 111.13 137.46 114.21 135.39 117.37 C 134.79 118.72 133.43 119.14 132.05 119.00 C 132.46 114.46 136.11 111.38 138.72 108.00 C 135.01 104.09 129.72 100.07 130.36 94.02 Z" />
<path fill="#686868" opacity="0.97" d=" M 21.43 105.14 C 21.68 101.36 20.42 95.73 24.74 93.83 C 24.89 97.87 23.68 101.80 21.43 105.14 Z" />
<path fill="#686868" opacity="0.97" d=" M 198.10 124.18 C 198.93 117.80 198.23 110.18 203.43 105.45 C 204.03 109.67 201.56 113.46 199.81 117.10 C 198.77 119.34 200.67 122.69 198.10 124.18 Z" />
<path fill="#686868" opacity="0.97" d=" M 99.16 111.92 C 98.73 109.50 100.88 108.19 102.41 106.79 C 101.64 109.96 102.32 113.09 103.65 116.01 C 101.67 115.36 98.63 114.71 99.16 111.92 Z" />
<path fill="#686868" opacity="0.97" d=" M 151.25 122.37 C 155.68 120.98 159.50 118.32 163.24 115.65 C 167.60 119.28 166.31 125.48 165.87 130.44 C 164.67 130.73 163.47 131.03 162.28 131.34 C 167.04 128.38 164.95 122.43 164.75 117.88 C 161.62 120.09 158.63 122.70 154.91 123.88 C 150.00 125.44 144.74 125.18 139.81 126.63 C 136.94 127.25 134.08 128.69 131.10 128.05 C 126.32 127.11 121.59 125.87 116.76 125.20 C 110.13 124.00 103.27 125.51 96.73 123.59 C 97.55 123.42 99.20 123.09 100.03 122.93 C 98.92 122.33 97.82 121.74 96.70 121.18 C 107.42 122.93 118.54 121.74 128.98 125.20 C 132.37 126.38 135.80 124.90 139.13 124.29 C 143.12 123.28 147.39 123.95 151.25 122.37 Z" />
<path fill="#686868" opacity="0.97" d=" M 196.14 130.68 C 195.72 128.64 195.68 126.52 197.54 125.18 C 198.69 127.23 198.30 129.52 196.14 130.68 Z" />
<path fill="#686868" opacity="0.97" d=" M 15.86 129.20 C 18.96 132.60 18.27 137.45 19.34 141.61 C 21.01 148.57 22.37 155.62 24.74 162.38 C 25.13 160.51 25.50 158.64 25.87 156.77 C 28.18 158.75 29.80 161.35 30.42 164.34 C 29.13 163.48 27.85 162.61 26.54 161.79 C 26.46 164.38 27.57 166.71 28.49 169.06 C 28.83 173.50 27.95 178.03 28.80 182.41 C 30.39 185.72 31.74 190.44 29.08 193.47 C 26.48 193.43 27.47 190.68 27.21 188.98 C 27.25 186.20 25.32 183.80 25.61 180.98 C 25.81 177.89 24.31 175.08 24.17 172.02 C 23.96 168.87 21.69 166.48 20.26 163.82 C 18.96 158.94 17.10 154.07 17.44 148.93 C 17.76 142.28 15.12 135.86 15.86 129.20 Z" />
<path fill="#686868" opacity="0.97" d=" M 195.04 131.51 C 197.26 133.45 196.11 136.49 196.17 139.00 C 195.95 141.60 197.08 144.47 195.11 146.54 C 194.23 141.58 194.25 136.48 195.04 131.51 Z" />
<path fill="#686868" opacity="0.97" d=" M 15.25 146.22 C 17.63 145.61 17.91 149.71 15.35 148.66 C 15.33 148.05 15.28 146.83 15.25 146.22 Z" />
<path fill="#686868" opacity="0.97" d=" M 43.64 147.34 C 45.61 146.15 46.84 150.52 44.51 150.41 C 43.93 149.47 43.64 148.45 43.64 147.34 Z" />
<path fill="#686868" opacity="0.97" d=" M 36.72 150.93 C 41.28 156.11 42.78 163.03 44.16 169.59 C 42.61 169.63 41.07 169.69 39.53 169.85 C 39.70 163.40 38.40 157.13 36.72 150.93 Z" />
<path fill="#686868" opacity="0.97" d=" M 44.81 151.06 C 45.68 151.91 46.59 152.79 46.88 154.03 C 48.06 157.64 49.73 161.20 49.77 165.06 C 46.97 160.86 45.92 155.89 44.81 151.06 Z" />
<path fill="#686868" opacity="0.97" d=" M 135.99 155.34 C 142.81 155.31 149.63 154.68 156.36 153.56 C 155.56 153.87 154.76 154.20 153.96 154.54 C 155.31 154.58 156.66 154.61 158.02 154.62 C 150.88 157.91 142.66 157.32 135.00 158.23 C 126.85 157.99 118.58 157.36 110.67 155.32 C 111.90 154.77 113.13 154.23 114.37 153.69 C 121.59 154.04 128.73 155.59 135.99 155.34 Z" />
<path fill="#686868" opacity="0.97" d=" M 83.98 154.91 C 88.08 153.87 92.09 155.99 95.15 158.55 C 94.55 158.56 93.35 158.57 92.75 158.57 C 89.54 158.32 86.81 156.28 83.98 154.91 Z" />
<path fill="#686868" opacity="0.97" d=" M 192.05 167.68 C 193.36 163.15 194.96 158.72 196.26 154.20 C 199.16 156.15 198.38 159.92 198.13 162.88 C 197.09 164.70 195.60 166.20 194.30 167.83 C 196.72 170.65 196.55 174.20 196.58 177.67 C 197.93 180.22 198.57 183.00 198.40 185.89 C 197.46 185.42 196.35 185.17 195.62 184.37 C 193.39 179.18 193.17 173.11 189.74 168.50 C 188.57 172.86 188.03 177.38 187.25 181.82 C 186.31 181.72 185.36 181.61 184.43 181.50 C 184.50 183.92 184.54 186.34 184.33 188.75 C 180.17 185.77 181.86 180.22 179.57 176.16 C 181.23 176.25 182.90 176.36 184.56 176.46 C 186.61 171.53 186.78 166.18 187.04 160.93 C 189.66 162.37 190.80 165.12 192.05 167.68 Z" />
<path fill="#686868" opacity="0.97" d=" M 30.62 164.94 C 33.26 169.94 38.11 173.52 39.74 179.14 C 40.44 178.79 41.82 178.08 42.52 177.72 C 43.75 179.43 44.88 181.21 45.94 183.04 C 44.18 183.32 42.42 183.62 40.67 183.93 C 41.43 184.46 42.94 185.52 43.70 186.05 C 42.68 186.62 41.66 187.18 40.67 187.80 C 40.74 190.64 40.82 193.49 40.65 196.34 C 38.97 194.95 38.57 192.76 37.97 190.79 C 36.88 186.73 39.00 182.11 36.66 178.36 C 36.02 177.11 35.33 175.89 34.58 174.70 C 34.44 180.39 34.64 186.08 34.69 191.76 C 34.85 195.17 33.28 198.35 33.39 201.77 C 32.88 201.74 31.86 201.69 31.34 201.66 C 31.42 193.31 33.78 184.64 30.58 176.57 C 30.00 172.74 30.55 168.81 30.62 164.94 Z" />
<path fill="#686868" opacity="0.97" d=" M 50.26 166.04 C 52.54 170.96 55.96 175.95 55.62 181.57 C 52.36 177.02 50.79 171.57 50.26 166.04 Z" />
<path fill="#686868" opacity="0.97" d=" M 39.73 170.76 C 40.73 171.49 41.73 172.22 42.73 172.96 C 42.52 173.82 42.09 175.55 41.88 176.41 C 41.00 174.59 40.28 172.70 39.73 170.76 Z" />
<path fill="#686868" opacity="0.97" d=" M 44.37 170.35 C 45.66 173.52 46.76 176.79 47.04 180.22 C 44.78 177.54 43.79 173.81 44.37 170.35 Z" />
<path fill="#686868" opacity="0.97" d=" M 49.31 174.99 C 52.15 177.05 53.87 180.17 54.28 183.63 C 53.44 184.65 52.60 185.67 51.76 186.70 C 50.29 182.96 49.37 179.02 49.31 174.99 Z" />
<path fill="#686868" opacity="0.97" d=" M 54.81 187.14 C 55.38 185.98 56.00 184.84 56.62 183.71 C 57.10 185.75 57.56 187.79 58.11 189.82 C 58.99 193.46 58.68 197.39 60.70 200.73 C 59.70 200.69 58.69 200.67 57.68 200.67 C 56.94 196.15 55.03 191.55 54.81 187.14 Z" />
<path fill="#686868" opacity="0.97" d=" M 48.60 185.42 C 49.60 187.23 50.16 189.22 50.35 191.27 C 48.11 190.04 47.94 187.66 48.60 185.42 Z" />
<path fill="#686868" opacity="0.97" d=" M 51.10 193.24 C 51.88 193.28 52.66 193.31 53.44 193.31 L 54.32 193.30 C 54.41 195.74 54.46 198.18 54.31 200.62 C 52.01 198.78 51.08 196.11 51.10 193.24 Z" />
</g>
<g id="#fdfdfdff">
<path fill="#fdfdfd" opacity="1.00" d=" M 61.38 30.66 C 72.50 22.47 86.33 19.07 99.94 18.40 C 111.31 17.94 122.77 18.18 134.01 20.11 C 135.71 20.40 137.22 21.24 138.76 21.93 C 131.45 22.79 124.13 23.51 116.78 23.80 C 124.39 26.33 132.55 26.92 139.99 30.04 C 144.75 31.99 148.48 35.64 152.75 38.41 C 150.77 38.36 148.96 37.48 147.18 36.73 C 139.53 33.32 131.58 30.41 123.28 29.14 C 118.96 27.73 114.09 26.55 109.81 28.71 C 113.73 30.44 118.02 30.57 122.23 30.60 C 130.57 32.56 138.54 35.64 146.42 38.95 C 145.26 39.29 144.11 39.62 142.96 39.95 C 134.80 36.11 125.83 33.49 116.78 33.39 C 120.49 34.99 124.30 36.40 128.12 37.72 C 130.41 39.01 132.52 40.57 134.43 42.36 C 129.68 41.80 125.35 39.63 120.68 38.76 C 116.41 38.48 112.12 38.78 107.84 38.78 C 111.98 41.33 116.61 43.05 120.45 46.08 C 119.58 46.17 117.84 46.34 116.97 46.42 C 112.03 44.35 107.03 42.39 102.04 40.44 C 108.14 45.48 115.30 48.95 122.23 52.69 C 124.65 54.23 126.99 55.89 129.23 57.68 C 128.67 57.78 127.54 57.99 126.98 58.10 C 115.25 53.45 103.14 49.55 92.08 43.38 C 94.10 45.23 95.90 47.30 97.92 49.15 C 93.41 50.44 88.90 49.03 85.34 46.16 C 85.89 47.60 86.43 49.04 86.95 50.50 C 86.46 50.44 85.48 50.32 84.98 50.26 C 82.99 48.37 80.92 46.55 79.09 44.49 C 78.24 43.47 77.43 42.41 76.61 41.35 C 74.90 41.39 73.20 41.43 71.49 41.44 C 70.74 43.41 70.01 45.40 69.16 47.34 C 67.60 49.12 65.30 49.82 63.15 50.59 C 62.79 51.51 62.44 52.43 62.10 53.36 C 61.40 52.58 60.68 51.80 59.96 51.02 C 57.35 53.67 54.58 56.23 51.15 57.76 C 54.41 51.35 62.64 49.75 65.75 43.21 C 61.95 43.41 58.83 45.72 55.90 47.91 C 52.29 50.72 48.67 53.60 45.75 57.14 C 43.88 56.85 42.01 56.56 40.15 56.25 C 42.48 53.24 44.91 50.29 47.67 47.66 C 53.14 42.39 60.51 39.97 66.92 36.13 C 65.08 34.31 63.25 32.46 61.38 30.66 Z" />
<path fill="#fdfdfd" opacity="1.00" d=" M 170.36 36.70 C 171.78 36.87 173.28 36.89 174.58 37.58 C 181.30 41.36 185.78 47.77 189.94 54.05 C 192.48 58.46 194.44 63.16 196.29 67.89 C 196.28 68.67 196.25 70.24 196.24 71.02 C 195.50 70.26 194.77 69.49 194.05 68.70 C 189.80 55.88 180.87 44.98 170.36 36.70 Z" />
<path fill="#fdfdfd" opacity="1.00" d=" M 33.17 51.04 C 40.17 45.12 47.76 38.95 57.23 37.90 C 53.73 40.53 49.80 42.57 46.50 45.46 C 42.11 49.26 38.35 53.70 34.94 58.38 C 30.28 64.43 24.91 70.16 22.13 77.40 C 21.62 77.35 20.62 77.24 20.12 77.19 C 20.00 76.88 19.77 76.26 19.65 75.95 C 21.54 72.33 23.25 68.62 25.23 65.05 C 27.75 61.13 30.57 57.37 32.40 53.05 C 30.19 54.65 28.08 56.39 25.93 58.06 C 26.56 56.02 27.19 53.98 27.92 51.96 C 30.39 48.43 33.11 45.05 36.14 41.97 C 36.63 42.01 37.61 42.09 38.10 42.13 C 36.56 45.16 34.86 48.10 33.17 51.04 Z" />
<path fill="#fdfdfd" opacity="1.00" d=" M 73.72 47.33 C 80.40 55.20 88.96 61.17 97.85 66.28 C 103.14 69.59 108.54 73.45 115.05 73.63 C 113.94 72.22 112.77 70.86 111.57 69.54 C 112.19 69.73 113.44 70.10 114.06 70.29 C 115.34 70.67 116.63 71.03 117.93 71.34 C 120.01 71.86 122.12 72.26 124.24 72.58 C 123.30 71.11 122.34 69.65 121.34 68.22 C 130.75 71.69 140.93 69.53 150.45 72.31 C 156.27 73.38 161.94 75.15 167.17 77.95 C 173.20 82.24 176.85 88.95 182.65 93.49 C 182.14 90.75 181.48 88.04 181.28 85.25 C 187.16 91.25 191.38 101.01 186.87 108.96 C 182.84 115.66 181.94 123.58 180.72 131.15 C 180.14 141.34 179.63 151.56 178.10 161.66 C 176.14 169.04 171.75 175.41 168.24 182.08 C 163.55 184.80 158.53 187.11 153.05 187.48 C 139.49 189.02 126.48 184.19 113.44 181.35 C 99.50 177.90 86.52 171.57 73.68 165.29 C 63.09 160.69 54.26 152.70 47.83 143.19 C 44.80 138.62 41.32 133.78 41.52 128.03 C 41.55 122.67 40.80 117.34 40.74 111.99 C 41.58 101.39 42.44 90.58 46.82 80.74 C 49.63 75.39 56.39 74.59 59.95 69.96 C 65.55 63.13 70.73 55.72 73.72 47.33 M 74.85 77.45 C 72.63 77.56 70.36 77.34 68.20 77.91 C 65.96 78.85 64.22 80.63 62.09 81.78 C 59.68 83.10 57.03 84.04 55.04 86.01 C 62.31 87.35 69.85 88.43 77.20 87.05 C 82.59 86.03 88.23 86.66 93.34 88.61 C 98.54 90.81 104.43 93.21 109.90 90.32 C 106.87 81.61 96.81 75.87 87.71 77.50 C 83.42 77.71 78.94 75.48 74.85 77.45 M 140.68 82.88 C 137.23 85.10 133.87 87.55 131.44 90.90 C 129.85 90.63 130.73 93.10 130.36 94.02 C 129.72 100.07 135.01 104.09 138.72 108.00 C 136.11 111.38 132.46 114.46 132.05 119.00 C 133.43 119.14 134.79 118.72 135.39 117.37 C 137.46 114.21 139.66 111.13 141.67 107.92 C 138.43 103.75 133.79 100.48 132.25 95.18 C 133.51 93.84 134.75 92.47 135.81 90.96 C 136.12 90.80 136.76 90.49 137.07 90.33 C 143.17 90.24 149.64 89.94 155.01 86.74 C 156.97 86.21 158.76 85.24 160.60 84.42 C 160.96 84.32 161.67 84.10 162.03 83.99 C 160.56 81.02 157.02 80.38 154.01 80.36 C 149.47 80.50 144.48 79.84 140.68 82.88 M 48.84 98.16 C 48.32 100.03 46.84 101.91 47.50 103.93 C 48.52 106.12 49.58 108.29 50.31 110.61 C 53.12 118.53 57.99 125.47 62.84 132.25 C 66.10 136.96 71.24 139.76 75.66 143.23 C 86.26 149.65 98.36 153.99 110.67 155.32 C 118.58 157.36 126.85 157.99 135.00 158.23 C 142.66 157.32 150.88 157.91 158.02 154.62 C 162.03 154.01 166.43 151.34 167.27 147.07 C 169.63 138.22 167.31 128.96 168.92 120.01 C 169.61 116.86 169.26 113.50 170.63 110.51 C 171.25 108.42 174.79 108.25 174.62 105.91 C 173.48 102.79 170.52 105.78 168.94 106.91 C 168.17 110.50 166.34 113.60 163.24 115.65 C 159.50 118.32 155.68 120.98 151.25 122.37 C 147.39 123.95 143.12 123.28 139.13 124.29 C 135.80 124.90 132.37 126.38 128.98 125.20 C 118.54 121.74 107.42 122.93 96.70 121.18 C 90.58 119.02 83.95 118.49 77.97 115.84 C 69.94 112.92 62.90 107.95 56.09 102.91 C 54.01 100.80 51.90 98.67 48.84 98.16 M 99.16 111.92 C 98.63 114.71 101.67 115.36 103.65 116.01 C 102.32 113.09 101.64 109.96 102.41 106.79 C 100.88 108.19 98.73 109.50 99.16 111.92 M 110.31 112.28 C 110.33 112.98 110.38 114.38 110.41 115.08 C 112.54 114.26 114.56 113.21 116.63 112.26 C 116.54 111.84 116.35 110.99 116.26 110.56 C 114.31 111.26 112.30 111.75 110.31 112.28 M 83.98 154.91 C 86.81 156.28 89.54 158.32 92.75 158.57 C 105.22 164.85 119.01 168.67 133.03 168.65 C 143.49 170.92 154.83 169.36 164.05 163.83 C 167.55 161.42 169.69 157.63 171.79 154.05 C 168.16 158.14 164.62 162.64 159.46 164.86 C 143.46 169.76 126.54 166.82 110.55 163.46 C 105.31 162.21 100.41 159.59 95.15 158.55 C 92.09 155.99 88.08 153.87 83.98 154.91 Z" />
<path fill="#fdfdfd" opacity="1.00" d=" M 91.45 85.21 C 92.18 83.23 92.90 81.25 93.63 79.28 C 98.37 81.38 103.61 83.59 106.49 88.15 L 106.12 89.18 C 101.07 88.91 96.35 86.40 91.45 85.21 Z" />
<path fill="#fdfdfd" opacity="1.00" d=" M 69.69 83.08 C 70.73 82.64 71.78 82.23 72.84 81.84 C 74.48 81.71 76.12 81.62 77.77 81.59 C 77.49 85.95 71.94 85.05 68.84 85.86 C 69.12 84.93 69.41 84.00 69.69 83.08 Z" />
<path fill="#fdfdfd" opacity="1.00" d=" M 143.40 83.66 C 145.92 83.60 148.44 83.32 150.85 82.58 C 151.11 83.15 151.63 84.29 151.89 84.86 C 151.53 85.21 150.80 85.91 150.43 86.26 C 147.54 86.50 144.46 87.95 141.67 86.53 C 142.11 85.81 142.97 84.38 143.40 83.66 Z" />
<path fill="#fdfdfd" opacity="1.00" d=" M 51.08 102.38 C 57.02 105.83 61.68 111.07 67.74 114.35 C 76.46 119.88 86.78 121.62 96.73 123.59 C 103.27 125.51 110.13 124.00 116.76 125.20 C 121.59 125.87 126.32 127.11 131.10 128.05 C 134.08 128.69 136.94 127.25 139.81 126.63 C 144.74 125.18 150.00 125.44 154.91 123.88 C 158.63 122.70 161.62 120.09 164.75 117.88 C 164.95 122.43 167.04 128.38 162.28 131.34 C 159.90 132.03 157.47 132.59 154.98 132.62 C 150.58 132.74 146.47 134.88 142.02 134.59 C 134.33 134.22 126.62 135.32 118.94 134.40 C 112.83 134.32 106.54 135.32 100.64 133.18 C 96.98 132.58 94.53 129.04 90.72 129.05 C 82.55 128.68 74.80 124.89 68.90 119.35 C 64.71 117.96 59.77 117.98 56.46 114.57 C 52.42 111.88 51.32 106.92 51.08 102.38 Z" />
<path fill="#fdfdfd" opacity="1.00" d=" M 64.31 129.86 C 68.11 130.96 70.78 134.92 74.98 134.46 C 80.31 134.35 85.10 136.90 89.82 139.02 C 92.06 140.12 94.61 139.41 96.99 139.49 C 103.32 139.16 109.16 142.06 115.26 143.20 C 120.44 143.15 125.69 143.12 130.63 144.93 C 133.74 146.39 136.86 144.31 140.04 144.44 C 142.45 144.81 144.61 146.04 146.98 146.61 C 150.49 145.70 154.05 143.79 157.68 145.38 C 159.41 143.24 161.76 142.00 164.55 142.08 C 164.53 144.20 164.67 146.35 164.32 148.46 C 162.78 151.41 159.22 152.33 156.36 153.56 C 149.63 154.68 142.81 155.31 135.99 155.34 C 128.73 155.59 121.59 154.04 114.37 153.69 C 106.47 153.26 99.04 150.36 91.48 148.33 C 87.67 147.13 84.19 145.12 80.60 143.42 C 74.37 140.14 67.51 136.47 64.31 129.86 Z" />
<path fill="#fdfdfd" opacity="1.00" d=" M 172.00 180.10 C 172.28 178.94 172.83 177.86 173.74 177.08 C 175.22 178.01 173.48 180.75 172.00 180.10 Z" />
</g>
<g id="#030303ff">
<path fill="#030303" opacity="1.00" d=" M 134.50 23.38 C 143.72 24.99 153.14 27.04 161.32 31.82 C 164.30 33.51 167.18 35.39 170.36 36.70 C 180.87 44.98 189.80 55.88 194.05 68.70 C 194.89 72.70 195.86 76.97 199.29 79.62 C 199.08 75.55 198.02 71.58 196.29 67.89 C 194.44 63.16 192.48 58.46 189.94 54.05 C 189.78 52.79 189.63 51.54 189.47 50.28 C 193.54 54.62 196.64 59.75 198.72 65.31 C 200.81 71.19 204.08 76.82 204.37 83.18 C 204.59 86.46 204.85 89.76 204.66 93.05 C 204.54 97.12 202.54 101.01 203.40 105.11 L 203.43 105.45 C 198.23 110.18 198.93 117.80 198.10 124.18 L 198.06 124.56 L 197.54 125.18 C 195.68 126.52 195.72 128.64 196.14 130.68 C 197.28 138.48 196.49 146.37 196.26 154.20 C 194.96 158.72 193.36 163.15 192.05 167.68 C 190.80 165.12 189.66 162.37 187.04 160.93 C 186.78 166.18 186.61 171.53 184.56 176.46 C 182.90 176.36 181.23 176.25 179.57 176.16 C 179.68 173.66 179.72 171.15 179.60 168.66 C 176.40 170.46 175.85 174.36 173.74 177.08 C 172.83 177.86 172.28 178.94 172.00 180.10 C 170.96 181.73 169.30 182.80 167.76 183.90 C 167.88 183.45 168.12 182.54 168.24 182.08 C 171.75 175.41 176.14 169.04 178.10 161.66 C 179.63 151.56 180.14 141.34 180.72 131.15 C 181.94 123.58 182.84 115.66 186.87 108.96 C 191.38 101.01 187.16 91.25 181.28 85.25 C 181.48 88.04 182.14 90.75 182.65 93.49 C 176.85 88.95 173.20 82.24 167.17 77.95 C 164.47 75.66 161.33 74.00 158.05 72.71 C 153.89 71.18 151.01 67.37 146.66 66.24 C 139.23 64.05 131.65 62.29 124.37 59.61 C 118.78 57.67 113.47 54.83 107.61 53.74 C 112.35 58.62 119.08 60.48 125.22 62.93 C 131.17 65.31 137.54 66.44 143.43 68.99 C 133.17 71.10 123.46 66.29 113.36 65.71 C 115.67 67.69 118.25 69.30 120.92 70.73 C 120.17 70.89 118.68 71.19 117.93 71.34 C 116.63 71.03 115.34 70.67 114.06 70.29 C 111.62 68.96 109.24 67.23 106.40 66.93 C 103.55 66.65 100.67 66.75 97.85 66.28 C 88.96 61.17 80.40 55.20 73.72 47.33 C 70.73 55.72 65.55 63.13 59.95 69.96 C 56.39 74.59 49.63 75.39 46.82 80.74 C 42.33 86.38 41.36 93.69 40.36 100.59 C 38.64 110.86 39.39 121.37 40.88 131.61 C 42.42 136.12 41.96 140.95 43.35 145.48 C 43.42 145.95 43.57 146.88 43.64 147.34 C 43.64 148.45 43.93 149.47 44.51 150.41 L 44.81 151.06 C 45.92 155.89 46.97 160.86 49.77 165.06 C 49.89 165.31 50.14 165.80 50.26 166.04 C 50.79 171.57 52.36 177.02 55.62 181.57 C 57.41 183.97 57.58 186.98 58.11 189.82 C 57.56 187.79 57.10 185.75 56.62 183.71 C 56.00 184.84 55.38 185.98 54.81 187.14 C 54.65 185.96 54.48 184.79 54.28 183.63 C 53.87 180.17 52.15 177.05 49.31 174.99 C 49.37 179.02 50.29 182.96 51.76 186.70 C 52.55 188.84 52.92 191.09 53.44 193.31 C 52.66 193.31 51.88 193.28 51.10 193.24 C 50.92 192.75 50.54 191.77 50.35 191.27 C 50.16 189.22 49.60 187.23 48.60 185.42 C 47.71 183.82 47.19 182.05 47.04 180.22 C 46.76 176.79 45.66 173.52 44.37 170.35 L 44.16 169.59 C 42.78 163.03 41.28 156.11 36.72 150.93 C 38.40 157.13 39.70 163.40 39.53 169.85 L 39.73 170.76 C 40.28 172.70 41.00 174.59 41.88 176.41 C 42.04 176.74 42.36 177.39 42.52 177.72 C 41.82 178.08 40.44 178.79 39.74 179.14 C 38.11 173.52 33.26 169.94 30.62 164.94 L 30.42 164.34 C 29.80 161.35 28.18 158.75 25.87 156.77 C 25.50 158.64 25.13 160.51 24.74 162.38 C 22.37 155.62 21.01 148.57 19.34 141.61 C 18.27 137.45 18.96 132.60 15.86 129.20 C 15.12 135.86 17.76 142.28 17.44 148.93 C 17.10 154.07 18.96 158.94 20.26 163.82 C 18.19 158.91 16.88 153.75 15.35 148.66 C 17.91 149.71 17.63 145.61 15.25 146.22 C 15.02 145.14 14.80 144.06 14.59 142.97 C 13.72 136.34 12.26 129.72 12.55 122.99 C 12.73 119.80 12.36 116.60 11.16 113.63 C 10.29 118.99 10.85 124.97 7.03 129.35 C 6.12 117.92 5.70 106.29 7.95 94.98 C 9.27 89.77 6.25 84.41 8.32 79.33 C 10.98 72.20 14.37 65.27 19.04 59.23 C 17.22 60.74 15.33 62.16 13.37 63.48 C 14.68 60.17 16.34 57.01 18.02 53.87 C 19.48 50.92 21.40 48.20 23.98 46.11 C 28.37 42.47 32.14 38.06 36.97 34.97 C 41.26 32.19 45.68 29.59 50.29 27.37 C 52.00 27.45 54.24 26.54 55.60 27.85 C 56.13 28.92 56.64 30.01 57.14 31.11 C 59.15 31.96 61.16 32.83 63.16 33.72 C 60.99 34.72 58.79 35.87 56.36 36.02 C 55.39 35.15 54.44 34.25 53.52 33.33 C 49.79 35.25 46.73 39.06 42.23 38.90 C 39.75 38.76 37.70 40.18 36.14 41.97 C 33.11 45.05 30.39 48.43 27.92 51.96 C 25.03 55.87 22.93 60.26 20.83 64.62 C 22.24 64.31 23.63 63.98 25.04 63.71 C 25.09 64.04 25.19 64.71 25.23 65.05 C 23.25 68.62 21.54 72.33 19.65 75.95 C 16.98 80.37 15.70 85.57 16.73 90.71 C 19.14 86.54 20.60 81.94 22.13 77.40 C 24.91 70.16 30.28 64.43 34.94 58.38 C 35.23 59.04 35.83 60.35 36.13 61.00 C 31.83 66.50 27.15 72.14 25.77 79.18 C 29.80 75.14 32.08 69.83 35.52 65.36 C 36.38 63.84 38.24 64.11 39.70 63.86 C 41.89 61.78 43.85 59.48 45.75 57.14 C 48.67 53.60 52.29 50.72 55.90 47.91 C 58.83 45.72 61.95 43.41 65.75 43.21 C 62.64 49.75 54.41 51.35 51.15 57.76 C 54.58 56.23 57.35 53.67 59.96 51.02 C 60.68 51.80 61.40 52.58 62.10 53.36 C 62.44 52.43 62.79 51.51 63.15 50.59 C 65.30 49.82 67.60 49.12 69.16 47.34 C 70.63 45.95 72.04 44.51 73.45 43.07 C 74.98 44.83 76.55 46.55 78.12 48.28 C 78.43 47.02 78.76 45.75 79.09 44.49 C 80.92 46.55 82.99 48.37 84.98 50.26 C 87.19 52.47 89.55 55.00 92.87 55.23 C 96.45 55.51 99.50 57.54 102.89 58.49 C 104.32 57.84 105.68 57.08 107.06 56.34 C 104.40 53.48 101.28 51.13 97.92 49.15 C 95.90 47.30 94.10 45.23 92.08 43.38 C 103.14 49.55 115.25 53.45 126.98 58.10 C 131.42 60.28 136.36 60.90 141.21 61.47 C 135.39 57.55 128.74 55.19 122.23 52.69 C 115.30 48.95 108.14 45.48 102.04 40.44 C 107.03 42.39 112.03 44.35 116.97 46.42 C 125.57 50.50 134.20 54.63 143.27 57.56 C 137.09 51.68 128.52 49.48 121.71 44.49 C 128.03 43.15 134.33 44.47 140.52 45.82 C 140.52 44.78 140.51 43.74 140.51 42.70 C 136.50 40.77 132.40 38.99 128.12 37.72 C 124.30 36.40 120.49 34.99 116.78 33.39 C 125.83 33.49 134.80 36.11 142.96 39.95 C 149.46 43.03 155.38 47.24 162.09 49.88 C 158.32 44.53 152.39 41.26 146.42 38.95 C 138.54 35.64 130.57 32.56 122.23 30.60 C 120.81 30.19 119.39 29.77 117.97 29.36 C 119.74 29.31 121.51 29.21 123.28 29.14 C 131.58 30.41 139.53 33.32 147.18 36.73 C 148.96 37.48 150.77 38.36 152.75 38.41 C 154.42 38.50 156.23 38.26 157.72 39.21 C 162.10 41.75 165.94 45.10 170.30 47.68 C 167.61 42.67 162.69 39.65 158.72 35.80 C 162.29 36.74 165.71 38.15 169.05 39.73 C 159.01 31.76 147.30 25.28 134.50 23.38 M 29.52 87.43 C 28.49 91.60 27.42 95.80 27.34 100.12 C 29.76 95.42 31.43 90.29 34.91 86.19 C 33.11 86.59 31.31 87.03 29.52 87.43 M 31.63 100.31 C 31.07 105.27 28.57 110.20 30.06 115.22 C 33.00 111.54 32.06 106.60 33.19 102.32 C 34.45 97.44 36.16 92.69 37.60 87.86 C 34.30 91.25 32.21 95.61 31.63 100.31 M 21.43 105.14 C 23.68 101.80 24.89 97.87 24.74 93.83 C 20.42 95.73 21.68 101.36 21.43 105.14 M 195.04 131.51 C 194.25 136.48 194.23 141.58 195.11 146.54 C 197.08 144.47 195.95 141.60 196.17 139.00 C 196.11 136.49 197.26 133.45 195.04 131.51 Z" />
<path fill="#030303" opacity="1.00" d=" M 74.85 77.45 C 78.94 75.48 83.42 77.71 87.71 77.50 C 89.19 77.82 90.66 78.21 92.13 78.58 C 91.53 81.08 90.83 83.54 90.02 85.98 C 86.72 85.72 83.42 85.49 80.12 85.25 C 79.20 83.54 78.28 81.84 77.34 80.14 C 75.84 80.69 74.34 81.27 72.84 81.84 C 71.78 82.23 70.73 82.64 69.69 83.08 C 67.69 84.02 65.82 85.19 63.94 86.34 C 62.72 85.95 61.49 85.57 60.26 85.20 C 64.45 81.46 69.52 79.07 74.85 77.45 Z" />
<path fill="#030303" opacity="1.00" d=" M 150.85 82.58 C 154.22 80.93 158.17 81.43 160.60 84.42 C 158.76 85.24 156.97 86.21 155.01 86.74 C 152.99 87.12 150.97 87.42 148.94 87.73 C 149.31 87.37 150.06 86.63 150.43 86.26 C 150.80 85.91 151.53 85.21 151.89 84.86 C 151.63 84.29 151.11 83.15 150.85 82.58 Z" />
<path fill="#030303" opacity="1.00" d=" M 131.44 90.90 C 133.87 87.55 137.23 85.10 140.68 82.88 C 141.36 83.08 142.72 83.47 143.40 83.66 C 142.97 84.38 142.11 85.81 141.67 86.53 C 140.29 87.96 138.71 89.20 137.07 90.33 C 136.76 90.49 136.12 90.80 135.81 90.96 C 134.35 90.85 132.89 90.89 131.44 90.90 Z" />
<path fill="#030303" opacity="1.00" d=" M 48.84 98.16 C 51.90 98.67 54.01 100.80 56.09 102.91 C 62.90 107.95 69.94 112.92 77.97 115.84 C 83.95 118.49 90.58 119.02 96.70 121.18 C 97.82 121.74 98.92 122.33 100.03 122.93 C 99.20 123.09 97.55 123.42 96.73 123.59 C 86.78 121.62 76.46 119.88 67.74 114.35 C 61.68 111.07 57.02 105.83 51.08 102.38 C 51.32 106.92 52.42 111.88 56.46 114.57 C 59.77 117.98 64.71 117.96 68.90 119.35 C 74.80 124.89 82.55 128.68 90.72 129.05 C 94.53 129.04 96.98 132.58 100.64 133.18 C 106.54 135.32 112.83 134.32 118.94 134.40 C 126.62 135.32 134.33 134.22 142.02 134.59 C 146.47 134.88 150.58 132.74 154.98 132.62 C 157.47 132.59 159.90 132.03 162.28 131.34 C 163.47 131.03 164.67 130.73 165.87 130.44 C 166.31 125.48 167.60 119.28 163.24 115.65 C 166.34 113.60 168.17 110.50 168.94 106.91 C 170.52 105.78 173.48 102.79 174.62 105.91 C 174.79 108.25 171.25 108.42 170.63 110.51 C 169.26 113.50 169.61 116.86 168.92 120.01 C 167.31 128.96 169.63 138.22 167.27 147.07 C 166.43 151.34 162.03 154.01 158.02 154.62 C 156.66 154.61 155.31 154.58 153.96 154.54 C 154.76 154.20 155.56 153.87 156.36 153.56 C 159.22 152.33 162.78 151.41 164.32 148.46 C 164.67 146.35 164.53 144.20 164.55 142.08 C 161.76 142.00 159.41 143.24 157.68 145.38 C 154.05 143.79 150.49 145.70 146.98 146.61 C 144.61 146.04 142.45 144.81 140.04 144.44 C 136.86 144.31 133.74 146.39 130.63 144.93 C 125.69 143.12 120.44 143.15 115.26 143.20 C 109.16 142.06 103.32 139.16 96.99 139.49 C 94.61 139.41 92.06 140.12 89.82 139.02 C 85.10 136.90 80.31 134.35 74.98 134.46 C 70.78 134.92 68.11 130.96 64.31 129.86 C 67.51 136.47 74.37 140.14 80.60 143.42 C 84.19 145.12 87.67 147.13 91.48 148.33 C 99.04 150.36 106.47 153.26 114.37 153.69 C 113.13 154.23 111.90 154.77 110.67 155.32 C 98.36 153.99 86.26 149.65 75.66 143.23 C 71.24 139.76 66.10 136.96 62.84 132.25 C 57.99 125.47 53.12 118.53 50.31 110.61 C 49.58 108.29 48.52 106.12 47.50 103.93 C 46.84 101.91 48.32 100.03 48.84 98.16 Z" />
<path fill="#030303" opacity="1.00" d=" M 110.31 112.28 C 112.30 111.75 114.31 111.26 116.26 110.56 C 116.35 110.99 116.54 111.84 116.63 112.26 C 114.56 113.21 112.54 114.26 110.41 115.08 C 110.38 114.38 110.33 112.98 110.31 112.28 Z" />
<path fill="#030303" opacity="1.00" d=" M 44.14 144.05 C 44.35 143.70 44.77 142.99 44.98 142.63 C 45.21 142.92 45.68 143.48 45.91 143.76 C 45.47 143.83 44.58 143.98 44.14 144.05 Z" />
<path fill="#030303" opacity="1.00" d=" M 159.46 164.86 C 164.62 162.64 168.16 158.14 171.79 154.05 C 169.69 157.63 167.55 161.42 164.05 163.83 C 154.83 169.36 143.49 170.92 133.03 168.65 C 119.01 168.67 105.22 164.85 92.75 158.57 C 93.35 158.57 94.55 158.56 95.15 158.55 C 100.41 159.59 105.31 162.21 110.55 163.46 C 126.54 166.82 143.46 169.76 159.46 164.86 Z" />
</g>
</svg>
