<?xml version="1.0" encoding="UTF-8" ?>
<!DOCTYPE svg PUBLIC "-//W3C//DTD SVG 1.1//EN" "http://www.w3.org/Graphics/SVG/1.1/DTD/svg11.dtd">
<svg width="210pt" height="220pt" viewBox="0 0 210 220" version="1.1" xmlns="http://www.w3.org/2000/svg">
<g id="#5b5b5bff">
<path fill="#5b5b5b" opacity="1.00" d=" M 67.85 21.21 C 72.13 19.94 76.44 21.24 79.96 23.77 C 79.92 25.38 80.69 26.21 82.28 26.25 C 82.86 27.19 83.47 28.11 83.99 29.09 C 84.29 29.98 84.55 30.88 84.79 31.79 C 84.75 32.27 84.68 33.22 84.64 33.69 C 83.04 30.98 81.31 28.35 79.26 25.95 C 79.07 24.48 78.25 23.76 76.79 23.78 C 73.79 22.99 70.81 22.14 67.85 21.21 Z" />
<path fill="#5b5b5b" opacity="1.00" d=" M 90.51 36.87 C 100.49 36.73 110.48 37.35 120.46 36.80 L 121.78 37.73 C 113.90 37.36 105.98 36.96 98.11 37.70 C 95.13 38.02 92.13 37.92 89.18 37.41 L 90.51 36.87 Z" />
<path fill="#5b5b5b" opacity="1.00" d=" M 53.22 47.24 C 53.87 47.29 55.18 47.37 55.84 47.42 C 54.86 48.52 53.64 49.57 52.07 49.49 C 52.35 48.93 52.93 47.80 53.22 47.24 Z" />
<path fill="#5b5b5b" opacity="1.00" d=" M 34.10 62.11 C 34.92 60.49 36.25 59.14 38.15 58.98 C 38.04 61.15 36.08 62.19 34.10 62.11 Z" />
<path fill="#5b5b5b" opacity="1.00" d=" M 24.11 76.87 C 24.86 73.33 27.08 70.44 29.36 67.74 C 27.81 70.90 26.08 73.96 24.11 76.87 Z" />
<path fill="#5b5b5b" opacity="1.00" d=" M 2.93 119.05 C 5.32 124.08 8.63 128.51 12.47 132.52 C 7.53 129.73 4.22 124.47 2.93 119.05 Z" />
<path fill="#5b5b5b" opacity="1.00" d=" M 197.36 137.90 C 199.57 134.11 202.47 130.78 205.36 127.51 C 204.08 130.05 202.39 132.35 200.68 134.61 C 199.98 136.05 198.97 137.42 197.36 137.90 Z" />
<path fill="#5b5b5b" opacity="1.00" d=" M 133.87 147.02 C 135.81 144.06 137.63 141.02 139.42 137.97 C 139.72 141.59 137.57 146.06 133.87 147.02 Z" />
<path fill="#5b5b5b" opacity="1.00" d=" M 162.78 162.24 C 165.80 158.58 169.18 155.18 173.22 152.64 C 169.84 155.94 167.03 159.98 162.78 162.24 Z" />
<path fill="#5b5b5b" opacity="1.00" d=" M 60.94 178.58 C 61.88 176.17 64.78 176.44 66.90 176.18 C 70.58 176.21 74.55 175.88 77.74 178.07 C 77.31 178.58 76.89 179.08 76.46 179.59 C 75.86 179.28 74.66 178.66 74.06 178.36 C 69.68 177.73 65.30 177.83 60.94 178.58 Z" />
<path fill="#5b5b5b" opacity="1.00" d=" M 135.29 181.36 C 138.60 179.44 141.82 177.34 145.38 175.89 C 138.04 181.31 129.71 185.46 121.09 188.24 C 125.59 185.47 130.73 184.01 135.29 181.36 Z" />
<path fill="#5b5b5b" opacity="1.00" d=" M 95.27 195.80 C 101.65 193.82 107.95 191.32 114.58 190.36 C 108.70 192.30 102.71 193.88 96.96 196.18 C 96.54 196.08 95.69 195.89 95.27 195.80 Z" />
<path fill="#5b5b5b" opacity="1.00" d=" M 31.65 191.20 C 35.16 192.11 38.53 193.44 41.86 194.88 L 40.28 195.12 C 37.24 194.20 34.44 192.68 31.65 191.20 Z" />
</g>
<g id="#c0c0c0ff">
<path fill="#c0c0c0" opacity="1.00" d=" M 62.53 22.27 C 63.29 21.27 65.96 21.64 64.41 23.10 C 63.30 24.74 59.46 23.28 62.53 22.27 Z" />
<path fill="#c0c0c0" opacity="1.00" d=" M 179.13 78.79 L 179.31 79.78 C 179.40 80.56 179.58 82.13 179.67 82.91 C 180.36 82.89 181.74 82.85 182.43 82.83 C 182.87 83.06 183.76 83.52 184.21 83.74 C 182.40 83.63 180.60 83.55 178.80 83.47 C 178.93 81.91 179.04 80.35 179.13 78.79 Z" />
<path fill="#c0c0c0" opacity="1.00" d=" M 128.40 80.31 C 132.90 79.93 137.90 82.78 138.98 87.33 C 136.45 83.69 132.43 81.79 128.40 80.31 Z" />
<path fill="#c0c0c0" opacity="1.00" d=" M 19.22 84.22 C 19.42 82.14 22.00 82.25 23.47 82.77 C 23.63 85.02 20.63 84.73 19.22 84.22 Z" />
<path fill="#c0c0c0" opacity="1.00" d=" M 128.79 104.81 C 134.02 103.98 139.38 104.37 144.66 104.65 C 145.32 110.56 139.02 113.67 134.15 114.66 C 130.02 115.38 125.03 116.52 121.47 113.65 C 119.87 108.91 125.23 106.27 128.79 104.81 Z" />
<path fill="#c0c0c0" opacity="1.00" d=" M 208.29 107.60 C 209.31 111.71 209.20 116.11 208.29 120.23 C 208.79 116.03 208.56 111.81 208.29 107.60 Z" />
<path fill="#c0c0c0" opacity="1.00" d=" M 18.70 169.86 C 19.67 173.49 20.87 177.06 21.72 180.73 C 20.30 177.74 19.21 174.57 18.87 171.26 L 18.70 169.86 Z" />
</g>
<g id="#000000ff">
<path fill="#000000" opacity="1.00" d=" M 76.79 23.78 C 78.25 23.76 79.07 24.48 79.26 25.95 C 77.89 25.83 77.07 25.11 76.79 23.78 Z" />
<path fill="#000000" opacity="1.00" d=" M 75.74 40.47 C 79.75 39.47 83.75 38.44 87.80 37.66 C 88.15 37.60 88.84 37.48 89.18 37.41 C 92.13 37.92 95.13 38.02 98.11 37.70 C 105.98 36.96 113.90 37.36 121.78 37.73 C 121.94 37.73 122.25 37.75 122.41 37.76 C 132.29 41.14 142.57 43.27 152.20 47.37 C 158.54 49.63 163.98 53.72 170.16 56.34 C 170.30 56.48 170.58 56.76 170.72 56.91 C 176.60 64.49 177.40 74.33 178.80 83.47 C 180.60 83.55 182.40 83.63 184.21 83.74 C 184.59 83.78 185.37 83.86 185.76 83.90 C 186.30 84.17 187.39 84.73 187.93 85.01 L 188.89 84.91 C 189.46 85.15 190.60 85.62 191.17 85.86 C 191.90 86.27 192.62 86.68 193.35 87.10 C 194.03 87.37 195.39 87.92 196.07 88.20 C 196.19 88.27 196.44 88.43 196.56 88.51 C 198.25 90.85 200.31 92.88 202.66 94.55 C 203.15 95.31 203.62 96.08 204.09 96.85 C 203.88 98.24 204.24 100.34 206.06 100.28 L 205.99 101.07 C 206.27 101.61 206.84 102.68 207.13 103.21 L 207.03 104.16 C 207.29 104.71 207.81 105.82 208.08 106.37 C 208.13 106.68 208.24 107.29 208.29 107.60 C 208.56 111.81 208.79 116.03 208.29 120.23 L 208.20 120.71 C 207.90 121.24 207.28 122.30 206.97 122.83 L 207.06 123.79 C 206.82 124.35 206.35 125.49 206.11 126.06 C 205.93 126.42 205.55 127.15 205.36 127.51 C 202.47 130.78 199.57 134.11 197.36 137.90 C 197.04 138.10 196.39 138.51 196.07 138.71 C 193.33 140.28 190.75 142.12 188.32 144.13 L 188.08 144.21 C 185.24 144.71 182.31 144.89 179.60 145.93 C 177.89 147.27 176.65 149.11 175.23 150.73 C 174.56 151.37 173.90 152.01 173.22 152.64 C 169.18 155.18 165.80 158.58 162.78 162.24 C 162.67 162.32 162.46 162.48 162.36 162.56 C 160.27 163.85 158.15 165.21 156.73 167.26 C 156.59 167.45 156.31 167.83 156.17 168.03 C 154.18 167.63 152.67 169.11 151.96 170.81 C 151.76 171.14 151.35 171.81 151.15 172.15 C 149.16 171.71 147.11 173.01 147.13 175.14 C 146.69 175.33 145.82 175.70 145.38 175.89 C 141.82 177.34 138.60 179.44 135.29 181.36 C 130.73 184.01 125.59 185.47 121.09 188.24 L 120.92 188.21 C 120.38 188.38 119.29 188.71 118.74 188.87 L 118.01 189.85 L 117.10 189.05 L 116.03 189.37 C 116.44 189.62 117.25 190.11 117.65 190.36 C 117.57 190.49 117.40 190.74 117.31 190.86 C 116.63 190.74 115.27 190.49 114.58 190.36 C 107.95 191.32 101.65 193.82 95.27 195.80 L 94.71 195.66 C 93.26 195.20 92.16 195.62 91.39 196.93 L 90.77 196.65 C 89.41 196.16 88.28 196.59 87.38 197.94 C 87.12 198.02 86.60 198.17 86.34 198.25 C 77.23 198.95 68.12 198.38 59.03 197.92 L 58.30 197.92 C 55.89 197.51 53.46 197.19 51.01 197.17 C 50.76 197.14 50.26 197.10 50.01 197.07 C 49.45 196.83 48.32 196.36 47.75 196.12 C 47.40 196.09 46.71 196.03 46.36 196.00 C 45.36 194.85 44.15 194.42 42.75 194.72 C 42.52 194.76 42.08 194.84 41.86 194.88 C 38.53 193.44 35.16 192.11 31.65 191.20 L 31.17 191.07 C 31.28 189.24 29.28 188.53 27.79 188.92 C 27.66 188.79 27.41 188.54 27.28 188.41 C 26.09 186.17 24.52 184.18 22.61 182.51 C 22.39 182.06 21.94 181.17 21.72 180.73 C 20.87 177.06 19.67 173.49 18.70 169.86 C 18.66 169.52 18.57 168.85 18.53 168.51 C 18.43 164.32 18.60 160.14 18.58 155.96 C 18.50 154.49 18.32 153.03 18.03 151.59 C 18.19 151.55 18.52 151.46 18.68 151.42 C 18.93 151.80 19.43 152.58 19.68 152.97 L 20.00 151.90 L 19.19 151.03 C 19.32 150.72 19.59 150.11 19.72 149.80 C 20.92 146.71 21.37 143.38 21.55 140.10 C 21.90 138.32 19.94 137.65 18.91 136.67 C 18.71 136.50 18.31 136.17 18.11 136.01 C 17.56 135.72 16.47 135.15 15.92 134.86 C 15.71 134.66 15.30 134.26 15.10 134.06 C 14.56 133.76 13.48 133.16 12.94 132.86 C 12.82 132.78 12.59 132.61 12.47 132.52 C 8.63 128.51 5.32 124.08 2.93 119.05 L 2.89 118.88 C 2.62 118.35 2.07 117.27 1.79 116.74 C 1.94 115.34 2.09 113.94 2.26 112.54 C 2.25 111.97 2.24 110.83 2.24 110.26 C 2.16 109.43 2.01 107.77 1.94 106.94 C 3.14 105.59 3.62 103.77 3.01 102.04 L 2.91 101.25 C 3.13 100.68 3.57 99.52 3.78 98.95 C 4.21 98.08 4.65 97.23 5.10 96.38 C 7.33 93.21 10.07 90.44 12.54 87.46 C 13.03 86.99 13.52 86.51 14.00 86.03 C 15.69 86.38 17.69 85.76 18.30 84.00 L 19.22 84.22 C 20.63 84.73 23.63 85.02 23.47 82.77 C 23.58 80.80 23.48 78.77 24.11 76.87 C 26.08 73.96 27.81 70.90 29.36 67.74 C 29.49 67.56 29.75 67.21 29.87 67.03 C 31.90 66.66 33.04 64.95 33.20 63.00 C 33.43 62.77 33.87 62.33 34.10 62.11 C 36.08 62.19 38.04 61.15 38.15 58.98 C 38.35 58.79 38.75 58.41 38.95 58.22 C 41.63 56.88 44.24 55.30 46.13 52.92 C 46.33 52.71 46.72 52.28 46.91 52.06 C 48.38 52.55 50.17 51.38 49.96 49.75 C 50.49 49.68 51.54 49.56 52.07 49.49 C 53.64 49.57 54.86 48.52 55.84 47.42 C 56.37 47.07 57.45 46.39 57.99 46.04 C 63.87 44.09 69.73 42.01 75.74 40.47 M 69.76 45.86 C 66.21 46.99 62.64 48.08 59.07 49.18 C 50.95 52.42 43.93 57.75 37.06 63.06 C 31.32 68.15 27.44 74.97 24.58 82.02 C 25.12 82.99 25.43 84.02 25.52 85.11 C 22.80 88.24 17.95 86.36 14.94 88.90 C 10.02 92.73 7.02 98.81 7.32 105.08 C 6.29 112.32 8.91 119.75 13.97 124.97 C 16.59 127.57 20.00 129.27 22.44 132.05 C 24.02 136.49 24.75 141.33 24.20 146.04 C 20.56 156.92 22.14 169.36 27.84 179.26 C 31.95 185.83 39.87 188.19 46.89 190.19 C 59.79 193.52 73.20 193.77 86.44 193.26 C 90.73 192.63 94.92 191.42 99.10 190.30 C 112.67 185.82 127.03 182.86 139.22 175.04 C 151.14 168.55 160.99 159.01 171.02 150.00 C 174.84 146.87 177.15 142.17 181.57 139.73 C 184.45 138.79 187.77 139.18 190.37 137.46 C 198.25 132.60 203.52 123.30 202.62 113.97 C 202.69 106.00 199.01 98.19 193.04 92.97 C 188.60 89.76 183.14 88.48 178.04 86.70 C 177.21 86.93 175.55 87.40 174.72 87.64 C 173.96 80.37 172.03 73.26 169.22 66.52 C 167.46 62.69 164.32 59.68 160.35 58.25 C 151.08 52.42 140.76 48.52 130.18 45.84 C 124.60 43.96 118.91 42.42 113.04 41.85 C 108.01 41.77 102.97 41.67 97.94 41.87 C 95.65 42.30 93.32 42.28 91.00 42.31 C 83.78 42.38 76.73 44.14 69.76 45.86 Z" />
<path fill="#000000" opacity="1.00" d=" M 100.96 86.00 C 106.53 80.43 114.17 77.48 121.87 76.44 C 127.71 76.16 134.48 75.43 139.09 79.86 C 141.18 81.87 145.10 85.95 141.00 87.95 C 140.39 90.07 139.31 92.00 137.50 93.34 C 139.17 94.18 140.86 95.10 142.08 96.56 C 138.62 96.37 135.56 94.25 132.03 94.49 C 120.79 94.30 109.88 99.25 101.52 106.58 C 101.52 106.06 101.52 105.01 101.51 104.49 C 106.56 98.78 113.55 95.33 120.76 93.22 C 119.17 91.18 117.52 88.96 117.32 86.29 C 117.42 85.71 117.60 84.55 117.70 83.97 C 118.88 84.32 120.05 84.69 121.23 85.07 L 122.02 85.38 C 123.36 84.70 124.69 84.00 126.06 83.35 C 126.44 83.45 127.20 83.65 127.58 83.76 C 125.38 85.83 122.61 87.02 119.57 87.09 C 119.86 88.01 120.16 88.92 120.48 89.83 C 122.28 92.26 125.32 93.14 128.19 92.29 C 129.80 90.04 131.40 87.76 133.41 85.83 C 133.92 86.53 134.41 87.24 134.88 87.98 C 132.43 88.37 131.02 90.18 130.93 92.62 C 132.65 92.64 134.37 92.63 136.09 92.63 C 136.29 92.25 136.69 91.49 136.88 91.11 C 137.60 89.92 138.32 88.73 139.05 87.55 L 138.98 87.33 C 137.90 82.78 132.90 79.93 128.40 80.31 C 128.01 80.91 127.62 81.52 127.24 82.12 C 127.18 81.27 127.07 79.58 127.01 78.73 C 122.56 78.92 118.06 79.32 113.84 80.86 C 109.87 82.12 106.14 84.15 103.00 86.90 C 101.08 88.57 99.66 90.80 97.43 92.11 C 97.10 89.45 99.36 87.72 100.96 86.00 Z" />
<path fill="#000000" opacity="1.00" d=" M 34.78 90.83 C 37.65 88.52 41.49 88.08 45.00 87.44 C 49.48 87.12 54.26 85.72 58.57 87.59 C 63.50 89.97 67.70 93.73 71.01 98.05 C 73.79 102.81 73.94 108.60 73.61 113.95 C 72.45 118.75 65.69 120.61 66.34 126.14 C 68.08 126.97 69.89 127.98 71.90 127.70 C 73.94 126.67 75.70 125.18 77.68 124.06 C 77.72 128.47 72.60 130.28 69.04 131.33 C 65.91 129.57 62.38 129.09 58.94 128.29 C 58.58 127.78 57.86 126.78 57.50 126.27 C 57.76 124.95 58.56 123.85 59.41 122.85 C 59.44 123.72 59.49 125.47 59.51 126.35 C 60.75 126.86 62.01 127.34 63.29 127.77 C 63.42 126.42 63.54 125.07 63.64 123.72 C 65.45 120.62 68.05 118.17 70.40 115.51 C 72.19 111.97 70.07 107.93 70.33 104.17 C 69.38 105.55 68.38 106.90 67.52 108.34 C 67.97 109.55 69.22 110.40 69.66 111.67 C 64.80 110.54 60.09 108.59 56.04 105.65 C 50.39 104.02 44.72 106.30 39.09 106.39 C 42.17 103.84 46.23 103.38 50.04 102.78 C 51.31 103.10 52.59 103.40 53.87 103.68 C 52.26 99.96 52.10 95.85 52.57 91.87 C 52.95 91.11 53.71 89.57 54.09 88.81 C 47.51 87.63 41.22 90.19 34.78 90.83 M 54.31 88.93 C 54.19 91.75 54.17 94.59 54.63 97.38 C 56.64 97.73 58.62 97.55 60.20 96.17 C 60.60 95.12 61.00 94.08 61.42 93.05 C 59.07 91.65 56.74 90.19 54.31 88.93 M 55.15 99.72 C 55.46 101.19 55.84 102.65 56.44 104.03 C 57.66 104.53 58.87 105.05 60.07 105.58 C 60.71 105.16 61.99 104.31 62.63 103.89 L 62.02 103.18 C 63.17 102.79 64.33 102.40 65.48 102.00 C 65.43 101.32 65.34 99.95 65.30 99.26 C 66.32 100.31 67.61 100.89 69.09 100.50 C 67.33 98.39 65.49 96.36 63.67 94.31 C 61.84 97.47 59.00 99.85 55.15 99.72 M 62.21 105.46 C 62.73 106.30 63.26 107.13 63.80 107.97 C 64.42 107.83 65.65 107.55 66.27 107.41 C 66.60 106.73 67.27 105.36 67.60 104.67 C 65.72 103.86 63.78 104.27 62.21 105.46 Z" />
<path fill="#000000" opacity="1.00" d=" M 148.10 90.24 C 148.25 89.72 148.56 88.67 148.71 88.15 C 150.04 88.55 151.37 88.97 152.68 89.43 C 152.59 90.02 152.40 91.20 152.30 91.79 C 150.87 91.36 149.49 90.79 148.10 90.24 Z" />
<path fill="#000000" opacity="1.00" d=" M 131.98 120.49 C 133.39 116.93 138.15 118.78 140.05 121.00 C 142.39 122.72 142.10 126.61 139.54 127.97 C 139.32 125.75 139.59 122.90 137.30 121.66 C 135.79 120.40 133.80 120.56 131.98 120.49 Z" />
<path fill="#000000" opacity="1.00" d=" M 83.40 121.22 C 84.35 121.56 86.09 121.19 86.29 122.55 C 87.14 124.66 85.11 126.82 83.04 126.97 C 83.46 125.99 83.90 125.02 84.36 124.06 C 84.03 123.12 83.71 122.17 83.40 121.22 Z" />
<path fill="#000000" opacity="1.00" d=" M 107.60 138.32 C 115.30 136.24 122.39 132.49 129.24 128.49 C 132.12 133.58 130.69 140.05 127.83 144.86 C 124.17 151.47 119.26 158.00 112.03 160.89 C 107.26 162.74 102.86 165.41 98.06 167.19 C 93.08 168.67 88.06 170.01 82.94 170.94 C 80.65 171.39 78.32 171.62 76.06 172.23 C 68.20 172.27 59.16 173.90 52.60 168.45 C 48.89 164.13 48.16 158.25 46.95 152.89 C 46.18 148.09 47.96 142.90 51.67 139.72 C 54.78 138.08 57.11 141.95 60.14 142.20 C 65.11 142.48 70.02 143.43 75.00 143.48 C 85.97 142.65 97.09 141.90 107.60 138.32 M 119.63 136.46 C 110.98 139.76 102.26 143.14 92.98 144.20 C 91.81 147.88 90.48 151.73 87.62 154.47 C 82.97 157.46 77.19 156.52 71.96 156.59 C 66.42 156.34 59.53 152.44 61.07 145.95 C 58.84 143.60 55.37 142.85 52.27 143.53 C 49.13 145.99 49.34 150.45 49.74 154.02 C 50.32 158.39 50.68 163.45 54.37 166.45 C 58.56 169.64 64.17 168.22 69.03 168.73 C 75.58 169.24 81.94 167.45 88.35 166.44 C 90.70 162.96 92.12 158.93 94.40 155.43 C 99.58 151.71 105.85 149.16 112.24 148.61 C 115.51 148.27 118.92 150.09 122.04 149.20 C 124.90 144.33 128.24 139.37 128.75 133.57 C 125.36 132.86 122.60 135.31 119.63 136.46 M 77.52 145.80 C 77.27 148.73 76.96 151.65 76.62 154.57 C 80.07 154.48 83.81 154.44 86.84 152.60 C 89.02 150.52 89.98 147.55 89.66 144.57 C 85.74 145.86 81.59 145.82 77.52 145.80 M 63.45 145.39 C 63.35 147.01 63.33 148.63 63.41 150.26 C 66.74 152.59 70.27 155.01 74.53 154.92 C 74.48 152.04 74.41 149.10 75.68 146.43 C 71.56 146.65 67.51 145.94 63.45 145.39 M 104.13 152.45 C 97.70 154.45 93.55 160.57 91.26 166.58 C 96.90 166.14 101.86 163.03 106.98 160.89 C 111.34 158.76 116.34 157.41 119.59 153.56 C 120.38 151.37 116.93 151.55 115.74 150.53 C 115.35 150.95 114.57 151.79 114.17 152.21 C 111.16 153.39 110.02 156.79 107.12 158.06 C 107.14 154.58 110.39 152.77 112.47 150.52 C 109.67 151.02 106.84 151.51 104.13 152.45 Z" />
</g>
<g id="#252525b2">
<path fill="#252525" opacity="0.70" d=" M 79.96 23.77 C 81.18 24.18 81.95 25.01 82.28 26.25 C 80.69 26.21 79.92 25.38 79.96 23.77 Z" />
</g>
<g id="#6e6e6efe">
<path fill="#6e6e6e" opacity="1.00" d=" M 86.87 37.05 C 89.27 33.11 91.56 28.93 95.72 26.57 C 95.98 26.92 96.50 27.61 96.76 27.96 C 94.59 29.31 92.59 30.92 90.74 32.68 C 89.80 34.36 88.79 36.01 87.80 37.66 C 83.75 38.44 79.75 39.47 75.74 40.47 C 69.73 42.01 63.87 44.09 57.99 46.04 C 63.73 42.98 70.10 41.36 76.27 39.40 C 78.81 38.38 82.52 39.70 84.17 37.13 C 84.72 35.77 85.23 34.41 85.68 33.02 C 85.98 34.03 86.57 36.04 86.87 37.05 Z" />
<path fill="#6e6e6e" opacity="1.00" d=" M 122.41 37.76 C 123.05 37.72 124.34 37.64 124.98 37.59 C 125.34 37.82 126.08 38.27 126.44 38.49 C 140.21 42.47 154.49 46.07 166.42 54.42 C 166.93 54.42 167.94 54.43 168.45 54.44 C 168.87 54.91 169.73 55.86 170.16 56.34 C 163.98 53.72 158.54 49.63 152.20 47.37 C 142.57 43.27 132.29 41.14 122.41 37.76 Z" />
<path fill="#6e6e6e" opacity="1.00" d=" M 170.72 56.91 C 177.08 62.35 177.45 71.20 179.13 78.79 C 179.04 80.35 178.93 81.91 178.80 83.47 C 177.40 74.33 176.60 64.49 170.72 56.91 Z" />
<path fill="#6e6e6e" opacity="1.00" d=" M 5.10 96.38 C 6.93 92.95 8.73 89.10 12.54 87.46 C 10.07 90.44 7.33 93.21 5.10 96.38 Z" />
<path fill="#6e6e6e" opacity="1.00" d=" M 55.15 99.72 C 59.00 99.85 61.84 97.47 63.67 94.31 C 65.49 96.36 67.33 98.39 69.09 100.50 C 67.61 100.89 66.32 100.31 65.30 99.26 C 65.34 99.95 65.43 101.32 65.48 102.00 C 64.33 102.40 63.17 102.79 62.02 103.18 C 60.71 101.29 58.78 100.16 56.44 100.10 C 56.44 101.08 56.44 103.05 56.44 104.03 C 55.84 102.65 55.46 101.19 55.15 99.72 Z" />
<path fill="#6e6e6e" opacity="1.00" d=" M 18.91 136.67 C 19.94 137.65 21.90 138.32 21.55 140.10 C 21.37 143.38 20.92 146.71 19.72 149.80 C 19.97 146.07 20.57 142.37 20.77 138.64 C 20.31 138.15 19.38 137.16 18.91 136.67 Z" />
<path fill="#6e6e6e" opacity="1.00" d=" M 188.32 144.13 C 190.75 142.12 193.33 140.28 196.07 138.71 C 193.89 141.02 191.41 143.17 188.32 144.13 Z" />
</g>
<g id="#181818ff">
<path fill="#181818" opacity="1.00" d=" M 83.99 29.09 C 84.67 30.35 85.27 31.65 85.68 33.02 C 85.23 34.41 84.72 35.77 84.17 37.13 C 84.35 35.98 84.51 34.84 84.64 33.69 C 84.68 33.22 84.75 32.27 84.79 31.79 C 84.55 30.88 84.29 29.98 83.99 29.09 Z" />
<path fill="#181818" opacity="1.00" d=" M 28.50 93.39 C 29.88 93.31 32.65 91.70 32.46 94.17 L 31.11 95.13 C 31.91 95.75 32.72 96.36 33.51 96.99 C 32.66 98.77 31.05 99.57 29.13 99.57 C 29.92 98.47 30.85 97.52 31.93 96.72 C 30.76 96.17 29.72 95.38 28.53 94.88 C 28.52 94.51 28.50 93.76 28.50 93.39 Z" />
</g>
<g id="#20202055">
<path fill="#202020" opacity="0.33" d=" M 90.51 36.87 C 92.21 36.06 94.15 36.15 95.99 36.11 C 101.99 36.16 108.00 36.22 114.01 36.11 C 116.16 36.14 118.43 35.93 120.46 36.80 C 110.48 37.35 100.49 36.73 90.51 36.87 Z" />
</g>
<g id="#fefefeff">
<path fill="#fefefe" opacity="1.00" d=" M 69.76 45.86 C 76.73 44.14 83.78 42.38 91.00 42.31 C 93.32 42.28 95.65 42.30 97.94 41.87 C 102.97 41.67 108.01 41.77 113.04 41.85 C 118.91 42.42 124.60 43.96 130.18 45.84 C 140.76 48.52 151.08 52.42 160.35 58.25 C 164.32 59.68 167.46 62.69 169.22 66.52 C 172.03 73.26 173.96 80.37 174.72 87.64 C 175.55 87.40 177.21 86.93 178.04 86.70 C 183.14 88.48 188.60 89.76 193.04 92.97 C 199.01 98.19 202.69 106.00 202.62 113.97 C 203.52 123.30 198.25 132.60 190.37 137.46 C 187.77 139.18 184.45 138.79 181.57 139.73 C 177.15 142.17 174.84 146.87 171.02 150.00 C 160.99 159.01 151.14 168.55 139.22 175.04 C 127.03 182.86 112.67 185.82 99.10 190.30 C 94.92 191.42 90.73 192.63 86.44 193.26 C 73.20 193.77 59.79 193.52 46.89 190.19 C 39.87 188.19 31.95 185.83 27.84 179.26 C 22.14 169.36 20.56 156.92 24.20 146.04 C 24.75 141.33 24.02 136.49 22.44 132.05 C 20.00 129.27 16.59 127.57 13.97 124.97 C 8.91 119.75 6.29 112.32 7.32 105.08 C 7.02 98.81 10.02 92.73 14.94 88.90 C 17.95 86.36 22.80 88.24 25.52 85.11 C 25.43 84.02 25.12 82.99 24.58 82.02 C 27.44 74.97 31.32 68.15 37.06 63.06 C 43.93 57.75 50.95 52.42 59.07 49.18 C 62.64 48.08 66.21 46.99 69.76 45.86 M 100.96 86.00 C 99.36 87.72 97.10 89.45 97.43 92.11 C 99.66 90.80 101.08 88.57 103.00 86.90 C 106.14 84.15 109.87 82.12 113.84 80.86 C 114.74 80.71 116.53 80.42 117.42 80.27 C 117.00 82.27 116.43 84.34 117.32 86.29 C 117.52 88.96 119.17 91.18 120.76 93.22 C 113.55 95.33 106.56 98.78 101.51 104.49 C 101.52 105.01 101.52 106.06 101.52 106.58 C 109.88 99.25 120.79 94.30 132.03 94.49 C 135.56 94.25 138.62 96.37 142.08 96.56 C 140.86 95.10 139.17 94.18 137.50 93.34 C 139.31 92.00 140.39 90.07 141.00 87.95 C 145.10 85.95 141.18 81.87 139.09 79.86 C 134.48 75.43 127.71 76.16 121.87 76.44 C 114.17 77.48 106.53 80.43 100.96 86.00 M 150.21 86.29 C 149.53 87.61 149.99 88.00 151.62 87.45 C 152.28 86.14 151.81 85.75 150.21 86.29 M 34.78 90.83 C 41.22 90.19 47.51 87.63 54.09 88.81 C 53.71 89.57 52.95 91.11 52.57 91.87 C 52.10 95.85 52.26 99.96 53.87 103.68 C 52.59 103.40 51.31 103.10 50.04 102.78 C 46.23 103.38 42.17 103.84 39.09 106.39 C 44.72 106.30 50.39 104.02 56.04 105.65 C 60.09 108.59 64.80 110.54 69.66 111.67 C 69.22 110.40 67.97 109.55 67.52 108.34 C 68.38 106.90 69.38 105.55 70.33 104.17 C 70.07 107.93 72.19 111.97 70.40 115.51 C 68.05 118.17 65.45 120.62 63.64 123.72 C 63.54 125.07 63.42 126.42 63.29 127.77 C 62.01 127.34 60.75 126.86 59.51 126.35 C 59.49 125.47 59.44 123.72 59.41 122.85 C 58.56 123.85 57.76 124.95 57.50 126.27 C 57.86 126.78 58.58 127.78 58.94 128.29 C 62.38 129.09 65.91 129.57 69.04 131.33 C 72.60 130.28 77.72 128.47 77.68 124.06 C 75.70 125.18 73.94 126.67 71.90 127.70 C 69.89 127.98 68.08 126.97 66.34 126.14 C 65.69 120.61 72.45 118.75 73.61 113.95 C 73.94 108.60 73.79 102.81 71.01 98.05 C 67.70 93.73 63.50 89.97 58.57 87.59 C 54.26 85.72 49.48 87.12 45.00 87.44 C 41.49 88.08 37.65 88.52 34.78 90.83 M 148.10 90.24 C 149.49 90.79 150.87 91.36 152.30 91.79 C 152.40 91.20 152.59 90.02 152.68 89.43 C 151.37 88.97 150.04 88.55 148.71 88.15 C 148.56 88.67 148.25 89.72 148.10 90.24 M 28.50 93.39 C 28.50 93.76 28.52 94.51 28.53 94.88 C 29.72 95.38 30.76 96.17 31.93 96.72 C 30.85 97.52 29.92 98.47 29.13 99.57 C 31.05 99.57 32.66 98.77 33.51 96.99 C 32.72 96.36 31.91 95.75 31.11 95.13 L 32.46 94.17 C 32.65 91.70 29.88 93.31 28.50 93.39 M 128.79 104.81 C 125.23 106.27 119.87 108.91 121.47 113.65 C 125.03 116.52 130.02 115.38 134.15 114.66 C 139.02 113.67 145.32 110.56 144.66 104.65 C 139.38 104.37 134.02 103.98 128.79 104.81 M 27.14 124.14 C 25.23 126.64 26.89 130.63 30.04 130.94 C 34.36 131.70 39.07 131.01 42.95 128.95 C 45.88 126.36 48.97 122.68 47.59 118.50 C 40.65 116.62 31.17 117.32 27.14 124.14 M 131.98 120.49 C 133.80 120.56 135.79 120.40 137.30 121.66 C 139.59 122.90 139.32 125.75 139.54 127.97 C 142.10 126.61 142.39 122.72 140.05 121.00 C 138.15 118.78 133.39 116.93 131.98 120.49 M 83.40 121.22 C 83.71 122.17 84.03 123.12 84.36 124.06 C 83.90 125.02 83.46 125.99 83.04 126.97 C 85.11 126.82 87.14 124.66 86.29 122.55 C 86.09 121.19 84.35 121.56 83.40 121.22 M 97.92 122.48 C 100.35 125.40 104.22 126.97 107.99 126.84 C 110.84 126.66 114.29 127.02 116.20 124.42 C 112.47 124.57 108.66 125.87 104.97 124.69 C 102.59 124.05 100.48 122.42 97.92 122.48 M 107.60 138.32 C 97.09 141.90 85.97 142.65 75.00 143.48 C 70.02 143.43 65.11 142.48 60.14 142.20 C 57.11 141.95 54.78 138.08 51.67 139.72 C 47.96 142.90 46.18 148.09 46.95 152.89 C 48.16 158.25 48.89 164.13 52.60 168.45 C 59.16 173.90 68.20 172.27 76.06 172.23 C 78.32 171.62 80.65 171.39 82.94 170.94 C 88.06 170.01 93.08 168.67 98.06 167.19 C 102.86 165.41 107.26 162.74 112.03 160.89 C 119.26 158.00 124.17 151.47 127.83 144.86 C 130.69 140.05 132.12 133.58 129.24 128.49 C 122.39 132.49 115.30 136.24 107.60 138.32 M 49.18 134.22 C 47.36 135.05 47.11 137.25 46.29 138.86 C 48.02 136.70 50.49 135.51 53.09 134.72 C 51.80 134.41 50.50 134.25 49.18 134.22 M 133.87 147.02 C 137.57 146.06 139.72 141.59 139.42 137.97 C 137.63 141.02 135.81 144.06 133.87 147.02 M 44.87 158.19 C 44.21 155.32 43.11 152.58 42.09 149.83 C 39.91 152.55 42.35 156.56 44.87 158.19 M 60.94 178.58 C 65.30 177.83 69.68 177.73 74.06 178.36 C 74.66 178.66 75.86 179.28 76.46 179.59 C 76.89 179.08 77.31 178.58 77.74 178.07 C 74.55 175.88 70.58 176.21 66.90 176.18 C 64.78 176.44 61.88 176.17 60.94 178.58 Z" />
<path fill="#fefefe" opacity="1.00" d=" M 54.31 88.93 C 56.74 90.19 59.07 91.65 61.42 93.05 C 61.00 94.08 60.60 95.12 60.20 96.17 C 58.62 97.55 56.64 97.73 54.63 97.38 C 54.17 94.59 54.19 91.75 54.31 88.93 Z" />
<path fill="#fefefe" opacity="1.00" d=" M 62.21 105.46 C 63.78 104.27 65.72 103.86 67.60 104.67 C 67.27 105.36 66.60 106.73 66.27 107.41 C 65.65 107.55 64.42 107.83 63.80 107.97 C 63.26 107.13 62.73 106.30 62.21 105.46 Z" />
<path fill="#fefefe" opacity="1.00" d=" M 77.52 145.80 C 81.59 145.82 85.74 145.86 89.66 144.57 C 89.98 147.55 89.02 150.52 86.84 152.60 C 83.81 154.44 80.07 154.48 76.62 154.57 C 76.96 151.65 77.27 148.73 77.52 145.80 Z" />
</g>
<g id="#4040409a">
<path fill="#404040" opacity="0.60" d=" M 46.91 52.06 C 47.56 50.94 48.51 49.70 49.96 49.75 C 50.17 51.38 48.38 52.55 46.91 52.06 Z" />
</g>
<g id="#404040ff">
<path fill="#404040" opacity="1.00" d=" M 38.95 58.22 C 40.95 55.97 43.52 54.38 46.13 52.92 C 44.24 55.30 41.63 56.88 38.95 58.22 Z" />
<path fill="#404040" opacity="1.00" d=" M 113.84 80.86 C 118.06 79.32 122.56 78.92 127.01 78.73 C 127.07 79.58 127.18 81.27 127.24 82.12 C 127.62 81.52 128.01 80.91 128.40 80.31 C 132.43 81.79 136.45 83.69 138.98 87.33 L 139.05 87.55 C 138.32 88.73 137.60 89.92 136.88 91.11 C 136.22 90.06 135.55 89.02 134.88 87.98 C 134.41 87.24 133.92 86.53 133.41 85.83 C 131.51 85.02 129.55 84.35 127.58 83.76 C 127.20 83.65 126.44 83.45 126.06 83.35 C 126.18 82.37 126.43 80.41 126.56 79.43 C 124.14 79.49 121.72 79.55 119.30 79.62 C 119.26 81.13 119.25 82.63 119.27 84.14 C 119.76 84.37 120.74 84.84 121.23 85.07 C 120.05 84.69 118.88 84.32 117.70 83.97 C 117.60 84.55 117.42 85.71 117.32 86.29 C 116.43 84.34 117.00 82.27 117.42 80.27 C 116.53 80.42 114.74 80.71 113.84 80.86 Z" />
<path fill="#404040" opacity="1.00" d=" M 204.09 96.85 C 205.08 97.70 206.47 98.77 206.06 100.28 C 204.24 100.34 203.88 98.24 204.09 96.85 Z" />
<path fill="#404040" opacity="1.00" d=" M 97.92 122.48 C 100.48 122.42 102.59 124.05 104.97 124.69 C 108.66 125.87 112.47 124.57 116.20 124.42 C 114.29 127.02 110.84 126.66 107.99 126.84 C 104.22 126.97 100.35 125.40 97.92 122.48 Z" />
<path fill="#404040" opacity="1.00" d=" M 119.63 136.46 C 122.60 135.31 125.36 132.86 128.75 133.57 C 128.24 139.37 124.90 144.33 122.04 149.20 C 118.92 150.09 115.51 148.27 112.24 148.61 C 105.85 149.16 99.58 151.71 94.40 155.43 C 92.12 158.93 90.70 162.96 88.35 166.44 C 81.94 167.45 75.58 169.24 69.03 168.73 C 64.17 168.22 58.56 169.64 54.37 166.45 C 50.68 163.45 50.32 158.39 49.74 154.02 C 49.34 150.45 49.13 145.99 52.27 143.53 C 55.37 142.85 58.84 143.60 61.07 145.95 C 59.53 152.44 66.42 156.34 71.96 156.59 C 77.19 156.52 82.97 157.46 87.62 154.47 C 90.48 151.73 91.81 147.88 92.98 144.20 C 102.26 143.14 110.98 139.76 119.63 136.46 Z" />
</g>
<g id="#3737379e">
<path fill="#373737" opacity="0.62" d=" M 29.87 67.03 C 30.00 65.04 31.35 63.58 33.20 63.00 C 33.04 64.95 31.90 66.66 29.87 67.03 Z" />
</g>
<g id="#ffffffff">
<path fill="#ffffff" opacity="1.00" d=" M 119.30 79.62 C 121.72 79.55 124.14 79.49 126.56 79.43 C 126.43 80.41 126.18 82.37 126.06 83.35 C 124.69 84.00 123.36 84.70 122.02 85.38 L 121.23 85.07 C 120.74 84.84 119.76 84.37 119.27 84.14 C 119.25 82.63 119.26 81.13 119.30 79.62 Z" />
<path fill="#ffffff" opacity="1.00" d=" M 130.93 92.62 C 131.02 90.18 132.43 88.37 134.88 87.98 C 135.55 89.02 136.22 90.06 136.88 91.11 C 136.69 91.49 136.29 92.25 136.09 92.63 C 134.37 92.63 132.65 92.64 130.93 92.62 Z" />
<path fill="#ffffff" opacity="1.00" d=" M 63.45 145.39 C 67.51 145.94 71.56 146.65 75.68 146.43 C 74.41 149.10 74.48 152.04 74.53 154.92 C 70.27 155.01 66.74 152.59 63.41 150.26 C 63.33 148.63 63.35 147.01 63.45 145.39 Z" />
</g>
<g id="#383838c6">
<path fill="#383838" opacity="0.78" d=" M 14.00 86.03 C 15.07 84.86 16.57 83.43 18.30 84.00 C 17.69 85.76 15.69 86.38 14.00 86.03 Z" />
</g>
<g id="#717171ff">
<path fill="#717171" opacity="1.00" d=" M 127.58 83.76 C 129.55 84.35 131.51 85.02 133.41 85.83 C 131.40 87.76 129.80 90.04 128.19 92.29 C 128.35 91.62 128.65 90.28 128.81 89.60 C 126.39 88.42 121.30 85.51 120.48 89.83 C 120.16 88.92 119.86 88.01 119.57 87.09 C 122.61 87.02 125.38 85.83 127.58 83.76 Z" />
<path fill="#717171" opacity="1.00" d=" M 1.94 106.94 C 1.40 105.23 1.41 103.19 3.01 102.04 C 3.62 103.77 3.14 105.59 1.94 106.94 Z" />
<path fill="#717171" opacity="1.00" d=" M 49.18 134.22 C 50.50 134.25 51.80 134.41 53.09 134.72 C 50.49 135.51 48.02 136.70 46.29 138.86 C 47.11 137.25 47.36 135.05 49.18 134.22 Z" />
<path fill="#717171" opacity="1.00" d=" M 179.60 145.93 C 182.31 144.89 185.24 144.71 188.08 144.21 C 186.12 144.97 184.08 145.48 182.01 145.84 C 178.93 145.96 177.31 148.90 175.23 150.73 C 176.65 149.11 177.89 147.27 179.60 145.93 Z" />
<path fill="#717171" opacity="1.00" d=" M 44.87 158.19 C 42.35 156.56 39.91 152.55 42.09 149.83 C 43.11 152.58 44.21 155.32 44.87 158.19 Z" />
<path fill="#717171" opacity="1.00" d=" M 17.83 157.56 L 18.58 155.96 C 18.60 160.14 18.43 164.32 18.53 168.51 C 16.91 165.11 17.65 161.18 17.83 157.56 Z" />
<path fill="#717171" opacity="1.00" d=" M 42.75 194.72 C 44.15 194.42 45.36 194.85 46.36 196.00 C 45.13 196.89 42.22 196.91 42.75 194.72 Z" />
<path fill="#717171" opacity="1.00" d=" M 91.39 196.93 C 92.16 195.62 93.26 195.20 94.71 195.66 C 95.12 197.67 92.56 198.03 91.39 196.93 Z" />
<path fill="#717171" opacity="1.00" d=" M 51.01 197.17 C 53.46 197.19 55.89 197.51 58.30 197.92 C 55.84 198.18 53.25 198.49 51.01 197.17 Z" />
<path fill="#717171" opacity="1.00" d=" M 87.38 197.94 C 88.28 196.59 89.41 196.16 90.77 196.65 C 91.19 198.74 88.60 198.88 87.38 197.94 Z" />
<path fill="#717171" opacity="1.00" d=" M 59.03 197.92 C 68.12 198.38 77.23 198.95 86.34 198.25 C 82.72 199.72 78.77 198.87 75.00 198.94 C 70.25 198.99 65.50 199.21 60.74 199.28 C 60.32 198.94 59.46 198.26 59.03 197.92 Z" />
</g>
<g id="#464646c2">
<path fill="#464646" opacity="0.76" d=" M 185.76 83.90 C 186.30 84.17 187.39 84.73 187.93 85.01 C 187.39 84.73 186.30 84.17 185.76 83.90 Z" />
</g>
<g id="#3c3c3cc0">
<path fill="#3c3c3c" opacity="0.75" d=" M 188.89 84.91 C 189.46 85.15 190.60 85.62 191.17 85.86 C 190.60 85.62 189.46 85.15 188.89 84.91 Z" />
</g>
<g id="#242424fe">
<path fill="#242424" opacity="1.00" d=" M 150.21 86.29 C 151.81 85.75 152.28 86.14 151.62 87.45 C 149.99 88.00 149.53 87.61 150.21 86.29 Z" />
</g>
<g id="#4646468f">
<path fill="#464646" opacity="0.56" d=" M 193.35 87.10 C 194.30 85.67 196.19 86.64 196.07 88.20 C 195.39 87.92 194.03 87.37 193.35 87.10 Z" />
</g>
<g id="#cbcbcbff">
<path fill="#cbcbcb" opacity="1.00" d=" M 120.48 89.83 C 121.30 85.51 126.39 88.42 128.81 89.60 C 128.65 90.28 128.35 91.62 128.19 92.29 C 125.32 93.14 122.28 92.26 120.48 89.83 Z" />
<path fill="#cbcbcb" opacity="1.00" d=" M 0.00 111.77 C 0.56 111.39 1.68 110.64 2.24 110.26 C 2.24 110.83 2.25 111.97 2.26 112.54 C 1.69 112.50 0.56 112.42 0.00 112.38 L 0.00 111.77 Z" />
</g>
<g id="#494949bf">
<path fill="#494949" opacity="0.75" d=" M 196.56 88.51 C 199.30 89.71 201.37 91.88 202.66 94.55 C 200.31 92.88 198.25 90.85 196.56 88.51 Z" />
</g>
<g id="#2d2d2db7">
<path fill="#2d2d2d" opacity="0.72" d=" M 2.91 101.25 C 3.13 100.68 3.57 99.52 3.78 98.95 C 3.57 99.52 3.13 100.68 2.91 101.25 Z" />
</g>
<g id="#cfcfcfff">
<path fill="#cfcfcf" opacity="1.00" d=" M 56.44 100.10 C 58.78 100.16 60.71 101.29 62.02 103.18 L 62.63 103.89 C 61.99 104.31 60.71 105.16 60.07 105.58 C 58.87 105.05 57.66 104.53 56.44 104.03 C 56.44 103.05 56.44 101.08 56.44 100.10 Z" />
</g>
<g id="#393939b9">
<path fill="#393939" opacity="0.73" d=" M 205.99 101.07 C 206.27 101.61 206.84 102.68 207.13 103.21 C 206.84 102.68 206.27 101.61 205.99 101.07 Z" />
</g>
<g id="#555555bb">
<path fill="#555555" opacity="0.73" d=" M 207.03 104.16 C 207.29 104.71 207.81 105.82 208.08 106.37 C 207.81 105.82 207.29 104.71 207.03 104.16 Z" />
</g>
<g id="#424242b6">
<path fill="#424242" opacity="0.71" d=" M 1.79 116.74 C 2.07 117.27 2.62 118.35 2.89 118.88 C 2.62 118.35 2.07 117.27 1.79 116.74 Z" />
</g>
<g id="#c1c1c1ff">
<path fill="#c1c1c1" opacity="1.00" d=" M 27.14 124.14 C 31.17 117.32 40.65 116.62 47.59 118.50 C 48.97 122.68 45.88 126.36 42.95 128.95 C 39.07 131.01 34.36 131.70 30.04 130.94 C 26.89 130.63 25.23 126.64 27.14 124.14 Z" />
</g>
<g id="#525252b0">
<path fill="#525252" opacity="0.69" d=" M 206.97 122.83 C 207.28 122.30 207.90 121.24 208.20 120.71 C 207.90 121.24 207.28 122.30 206.97 122.83 Z" />
</g>
<g id="#3f3f3faf">
<path fill="#3f3f3f" opacity="0.69" d=" M 206.11 126.06 C 206.35 125.49 206.82 124.35 207.06 123.79 C 206.82 124.35 206.35 125.49 206.11 126.06 Z" />
</g>
<g id="#3b3b3bb7">
<path fill="#3b3b3b" opacity="0.72" d=" M 12.94 132.86 C 13.48 133.16 14.56 133.76 15.10 134.06 C 14.56 133.76 13.48 133.16 12.94 132.86 Z" />
</g>
<g id="#3d3d3db9">
<path fill="#3d3d3d" opacity="0.73" d=" M 15.92 134.86 C 16.47 135.15 17.56 135.72 18.11 136.01 C 17.56 135.72 16.47 135.15 15.92 134.86 Z" />
</g>
<g id="#4a4a4aff">
<path fill="#4a4a4a" opacity="1.00" d=" M 18.68 151.42 L 19.19 151.03 L 20.00 151.90 L 19.68 152.97 C 19.43 152.58 18.93 151.80 18.68 151.42 Z" />
</g>
<g id="#fcfcfcfe">
<path fill="#fcfcfc" opacity="1.00" d=" M 104.13 152.45 C 106.84 151.51 109.67 151.02 112.47 150.52 C 110.39 152.77 107.14 154.58 107.12 158.06 C 110.02 156.79 111.16 153.39 114.17 152.21 C 114.57 151.79 115.35 150.95 115.74 150.53 C 116.93 151.55 120.38 151.37 119.59 153.56 C 116.34 157.41 111.34 158.76 106.98 160.89 C 101.86 163.03 96.90 166.14 91.26 166.58 C 93.55 160.57 97.70 154.45 104.13 152.45 Z" />
</g>
<g id="#343434b4">
<path fill="#343434" opacity="0.71" d=" M 156.73 167.26 C 158.15 165.21 160.27 163.85 162.36 162.56 C 160.82 164.50 159.17 166.46 156.73 167.26 Z" />
</g>
<g id="#3b3b3bb4">
<path fill="#3b3b3b" opacity="0.71" d=" M 151.96 170.81 C 152.67 169.11 154.18 167.63 156.17 168.03 C 155.36 169.64 153.97 171.23 151.96 170.81 Z" />
</g>
<g id="#363636b4">
<path fill="#363636" opacity="0.71" d=" M 147.13 175.14 C 147.11 173.01 149.16 171.71 151.15 172.15 C 150.41 173.80 148.80 174.68 147.13 175.14 Z" />
</g>
<g id="#232323c4">
<path fill="#232323" opacity="0.77" d=" M 22.61 182.51 C 24.52 184.18 26.09 186.17 27.28 188.41 C 25.28 186.83 23.57 184.90 22.61 182.51 Z" />
</g>
<g id="#4d4d4de1">
<path fill="#4d4d4d" opacity="0.88" d=" M 118.74 188.87 C 119.29 188.71 120.38 188.38 120.92 188.21 L 120.55 188.97 C 120.09 188.95 119.19 188.90 118.74 188.87 Z" />
</g>
<g id="#343434d7">
<path fill="#343434" opacity="0.84" d=" M 27.79 188.92 C 29.28 188.53 31.28 189.24 31.17 191.07 C 29.76 190.91 28.53 190.13 27.79 188.92 Z" />
</g>
<g id="#4c4c4ce4">
<path fill="#4c4c4c" opacity="0.89" d=" M 116.03 189.37 L 117.10 189.05 L 118.01 189.85 L 117.65 190.36 C 117.25 190.11 116.44 189.62 116.03 189.37 Z" />
</g>
<g id="#454545e7">
<path fill="#454545" opacity="0.91" d=" M 47.75 196.12 C 48.32 196.36 49.45 196.83 50.01 197.07 C 49.45 196.83 48.32 196.36 47.75 196.12 Z" />
</g>
</svg>
