<?xml version="1.0" encoding="UTF-8" ?>
<!DOCTYPE svg PUBLIC "-//W3C//DTD SVG 1.1//EN" "http://www.w3.org/Graphics/SVG/1.1/DTD/svg11.dtd">
<svg width="210pt" height="220pt" viewBox="0 0 210 220" version="1.1" xmlns="http://www.w3.org/2000/svg">
<g id="#060605fd">
<path fill="#060605" opacity="1.00" d=" M 108.01 2.75 C 112.37 2.88 116.62 1.46 120.95 1.50 C 124.85 3.73 128.20 6.81 132.17 8.96 C 137.26 11.72 140.61 16.75 145.79 19.39 C 151.22 22.44 152.63 28.98 154.57 34.37 C 157.28 37.72 159.95 41.26 160.87 45.58 C 162.11 51.70 164.37 57.54 166.44 63.41 C 167.86 67.25 167.03 71.48 168.37 75.35 C 169.91 83.43 171.52 91.81 169.63 99.99 C 169.81 107.63 168.88 115.30 166.34 122.53 C 164.65 126.57 163.58 131.13 160.24 134.22 C 156.55 137.57 152.12 140.19 149.24 144.37 C 148.10 146.24 146.14 147.22 144.15 147.94 C 138.88 149.94 135.15 154.59 129.80 156.45 C 124.23 159.13 117.96 158.19 112.00 158.32 C 107.44 158.24 102.74 158.83 98.35 157.27 C 95.79 156.32 93.05 156.18 90.35 156.22 C 90.28 159.59 90.22 162.97 90.43 166.34 C 88.92 166.28 87.41 166.33 85.91 166.41 C 85.88 162.22 85.74 158.03 85.23 153.87 C 81.08 152.21 76.69 151.35 72.43 150.04 C 64.51 146.74 58.74 140.08 51.97 135.09 C 44.86 131.17 43.00 122.91 39.79 116.12 C 37.44 109.08 33.03 102.60 32.50 95.06 C 32.52 79.68 32.45 64.31 32.56 48.94 C 32.59 46.25 34.30 43.99 34.99 41.46 C 37.58 32.34 43.09 24.32 49.60 17.54 C 54.60 13.35 60.27 9.07 67.02 8.60 C 73.18 8.15 78.46 4.11 84.71 4.22 C 92.42 2.96 100.22 2.80 108.01 2.75 M 79.66 9.00 C 76.92 9.95 74.49 11.70 71.69 12.46 C 68.15 12.63 64.57 13.05 61.28 14.46 C 54.58 16.71 50.42 22.84 46.27 28.16 C 42.24 35.60 37.24 43.18 37.22 51.95 C 37.31 66.98 37.15 82.01 37.30 97.03 C 38.26 103.79 42.05 109.63 44.19 116.03 C 46.44 120.60 48.10 125.65 51.41 129.58 C 57.31 133.93 63.00 138.56 68.62 143.26 C 75.64 147.37 83.83 148.58 91.44 151.20 C 95.11 151.34 98.52 152.59 102.00 153.59 C 108.99 153.79 116.01 153.68 123.00 153.65 C 129.11 152.01 134.65 148.57 139.73 144.83 C 146.30 142.17 149.92 135.65 155.44 131.55 C 157.79 130.07 158.81 127.42 160.02 125.07 C 161.70 121.55 163.91 118.01 163.56 113.94 C 163.18 110.78 165.62 108.19 165.41 105.07 C 165.33 95.81 167.06 86.18 163.60 77.28 C 161.75 73.42 163.43 68.97 161.92 65.02 C 160.80 61.99 159.79 58.92 158.82 55.83 C 156.70 50.90 156.20 45.31 153.20 40.76 C 151.74 38.30 149.65 36.12 149.09 33.22 C 148.07 28.81 145.22 24.90 141.16 22.83 C 136.39 20.45 133.76 15.38 128.98 13.03 C 125.02 10.39 120.45 9.00 116.03 7.39 C 103.91 7.37 91.61 6.55 79.66 9.00 Z" />
<path fill="#060605" opacity="1.00" d=" M 121.44 37.81 C 120.36 33.04 125.02 29.96 128.91 28.68 C 130.64 29.68 132.18 30.96 133.89 31.99 C 136.48 33.65 139.67 33.59 142.54 34.48 C 142.54 35.53 142.55 36.59 142.56 37.64 C 137.80 37.94 133.73 35.11 129.54 33.31 C 125.88 32.19 124.90 37.63 121.44 37.81 Z" />
<path fill="#060605" opacity="1.00" d=" M 68.98 47.07 C 69.79 46.24 70.63 45.42 71.48 44.62 C 72.38 45.33 73.33 45.98 74.31 46.58 C 71.60 49.22 68.41 51.29 65.74 53.97 C 59.37 55.05 52.83 56.23 46.39 55.03 C 50.74 52.46 56.29 53.64 61.11 52.22 C 64.48 51.92 66.79 49.37 68.98 47.07 Z" />
<path fill="#060605" opacity="1.00" d=" M 135.42 49.86 C 137.13 47.72 140.18 48.45 142.42 49.25 C 142.10 52.14 143.53 54.43 146.52 54.83 C 146.57 55.41 146.68 56.55 146.74 57.13 C 143.05 57.86 139.27 57.09 135.83 55.69 C 134.89 53.94 135.43 51.78 135.42 49.86 Z" />
<path fill="#060605" opacity="1.00" d=" M 57.66 67.75 C 55.29 64.69 57.09 61.13 58.89 58.35 C 62.48 58.28 66.04 58.65 69.41 59.92 C 69.16 63.23 70.41 66.98 68.41 69.92 C 67.89 69.29 66.84 68.05 66.31 67.43 C 63.44 67.73 60.54 67.67 57.66 67.75 Z" />
<path fill="#060605" opacity="1.00" d=" M 139.89 75.40 C 142.86 75.35 144.85 72.13 147.93 72.62 C 151.84 72.80 155.98 71.95 159.62 73.75 C 159.87 83.45 159.98 93.19 159.32 102.88 C 157.26 109.11 155.10 115.62 150.49 120.49 C 145.17 126.74 137.86 131.42 129.87 133.36 C 124.92 133.76 119.93 133.45 114.97 133.55 C 111.16 133.72 107.66 131.88 103.91 131.56 C 100.26 131.33 96.67 130.39 92.99 130.62 C 85.76 131.02 78.72 128.99 71.90 126.88 C 69.63 126.12 67.76 124.57 66.05 122.95 C 62.14 119.23 57.82 115.88 54.59 111.52 C 54.29 109.69 54.41 107.83 54.40 105.99 C 54.64 101.14 52.38 96.62 52.26 91.79 C 54.30 90.00 57.08 90.78 59.48 90.15 C 65.13 87.03 71.88 89.68 77.81 87.55 C 83.09 85.56 88.92 85.98 94.11 83.74 C 102.27 83.81 109.84 79.62 118.06 80.48 C 121.61 81.07 124.48 78.34 127.98 78.47 C 132.18 78.31 135.61 75.13 139.89 75.40 M 143.90 79.51 C 137.83 80.02 132.02 81.98 126.15 83.47 C 121.37 85.77 115.93 83.66 110.96 85.04 C 101.53 87.55 91.86 88.81 82.33 90.82 C 75.92 92.98 69.05 93.07 62.36 93.54 C 60.61 94.09 58.98 94.99 57.29 95.70 C 57.55 99.44 58.41 103.13 58.39 106.89 C 66.22 106.80 72.92 101.71 80.73 101.35 C 87.05 99.88 93.57 100.61 100.00 100.43 C 104.39 100.17 108.56 102.04 112.97 101.64 C 117.80 101.24 122.36 103.07 126.95 104.27 C 135.97 104.69 145.05 104.87 154.08 104.49 C 154.41 104.13 155.08 103.40 155.42 103.04 C 155.94 94.52 155.84 85.97 155.66 77.44 C 153.42 77.39 151.18 77.27 148.94 77.36 C 147.16 77.87 145.85 79.56 143.90 79.51 M 61.23 111.14 C 61.27 111.75 61.34 112.97 61.38 113.58 C 64.73 116.54 67.88 119.77 71.50 122.40 C 82.49 127.39 94.81 126.54 106.52 127.93 C 113.11 130.35 120.15 129.56 127.02 129.62 C 132.05 129.94 136.27 126.77 140.42 124.39 C 144.04 122.46 146.47 119.08 149.05 116.01 C 150.82 113.84 152.66 111.50 152.74 108.57 C 144.49 108.53 136.22 108.65 127.97 108.34 C 124.56 107.90 121.41 106.32 118.02 105.73 C 114.32 105.44 110.55 105.98 106.90 105.18 C 101.71 103.78 96.29 104.55 91.00 104.33 C 80.62 103.90 70.84 107.78 61.23 111.14 Z" />
<path fill="#060605" opacity="1.00" d=" M 87.56 174.19 C 88.07 173.98 89.09 173.54 89.60 173.32 C 89.68 175.42 90.03 177.51 90.74 179.49 C 89.68 179.30 88.63 179.13 87.58 178.95 C 87.73 177.37 87.75 175.77 87.56 174.19 Z" />
<path fill="#060605" opacity="1.00" d=" M 71.36 198.52 C 78.09 196.20 84.99 198.59 91.82 198.70 C 92.64 205.43 92.24 212.23 92.19 219.00 C 90.63 218.88 89.06 218.81 87.50 218.78 C 87.65 212.11 87.79 205.43 87.49 198.77 C 81.88 198.10 76.23 198.01 70.61 198.68 L 71.36 198.52 Z" />
</g>
<g id="#fdfdfbff">
<path fill="#fdfdfb" opacity="1.00" d=" M 79.66 9.00 C 91.61 6.55 103.91 7.37 116.03 7.39 C 120.45 9.00 125.02 10.39 128.98 13.03 C 133.76 15.38 136.39 20.45 141.16 22.83 C 145.22 24.90 148.07 28.81 149.09 33.22 C 149.65 36.12 151.74 38.30 153.20 40.76 C 156.20 45.31 156.70 50.90 158.82 55.83 C 159.79 58.92 160.80 61.99 161.92 65.02 C 163.43 68.97 161.75 73.42 163.60 77.28 C 167.06 86.18 165.33 95.81 165.41 105.07 C 165.62 108.19 163.18 110.78 163.56 113.94 C 163.91 118.01 161.70 121.55 160.02 125.07 C 158.81 127.42 157.79 130.07 155.44 131.55 C 149.92 135.65 146.30 142.17 139.73 144.83 C 134.65 148.57 129.11 152.01 123.00 153.65 C 116.01 153.68 108.99 153.79 102.00 153.59 C 98.52 152.59 95.11 151.34 91.44 151.20 C 83.83 148.58 75.64 147.37 68.62 143.26 C 63.00 138.56 57.31 133.93 51.41 129.58 C 48.10 125.65 46.44 120.60 44.19 116.03 C 42.05 109.63 38.26 103.79 37.30 97.03 C 37.15 82.01 37.31 66.98 37.22 51.95 C 37.24 43.18 42.24 35.60 46.27 28.16 C 50.42 22.84 54.58 16.71 61.28 14.46 C 64.57 13.05 68.15 12.63 71.69 12.46 C 74.49 11.70 76.92 9.95 79.66 9.00 M 121.44 37.81 C 124.90 37.63 125.88 32.19 129.54 33.31 C 133.73 35.11 137.80 37.94 142.56 37.64 C 142.55 36.59 142.54 35.53 142.54 34.48 C 139.67 33.59 136.48 33.65 133.89 31.99 C 132.18 30.96 130.64 29.68 128.91 28.68 C 125.02 29.96 120.36 33.04 121.44 37.81 M 71.48 44.62 C 70.63 45.42 69.79 46.24 68.98 47.07 C 66.93 48.43 65.11 50.13 62.93 51.27 C 57.24 52.43 51.44 52.76 45.64 52.81 C 45.64 53.95 45.63 55.09 45.62 56.22 C 50.12 56.61 54.63 56.45 59.06 55.60 C 61.23 54.99 64.31 56.13 65.74 53.97 C 68.41 51.29 71.60 49.22 74.31 46.58 C 76.66 45.30 72.14 41.99 71.48 44.62 M 135.42 49.86 C 135.43 51.78 134.89 53.94 135.83 55.69 C 139.27 57.09 143.05 57.86 146.74 57.13 C 146.68 56.55 146.57 55.41 146.52 54.83 C 143.53 54.43 142.10 52.14 142.42 49.25 C 140.18 48.45 137.13 47.72 135.42 49.86 M 57.66 67.75 C 60.54 67.67 63.44 67.73 66.31 67.43 C 66.84 68.05 67.89 69.29 68.41 69.92 C 70.41 66.98 69.16 63.23 69.41 59.92 C 66.04 58.65 62.48 58.28 58.89 58.35 C 57.09 61.13 55.29 64.69 57.66 67.75 M 139.89 75.40 C 135.61 75.13 132.18 78.31 127.98 78.47 C 124.48 78.34 121.61 81.07 118.06 80.48 C 109.84 79.62 102.27 83.81 94.11 83.74 C 88.92 85.98 83.09 85.56 77.81 87.55 C 71.88 89.68 65.13 87.03 59.48 90.15 C 57.08 90.78 54.30 90.00 52.26 91.79 C 52.38 96.62 54.64 101.14 54.40 105.99 C 54.41 107.83 54.29 109.69 54.59 111.52 C 57.82 115.88 62.14 119.23 66.05 122.95 C 67.76 124.57 69.63 126.12 71.90 126.88 C 78.72 128.99 85.76 131.02 92.99 130.62 C 96.67 130.39 100.26 131.33 103.91 131.56 C 107.66 131.88 111.16 133.72 114.97 133.55 C 119.93 133.45 124.92 133.76 129.87 133.36 C 137.86 131.42 145.17 126.74 150.49 120.49 C 155.10 115.62 157.26 109.11 159.32 102.88 C 159.98 93.19 159.87 83.45 159.62 73.75 C 155.98 71.95 151.84 72.80 147.93 72.62 C 144.85 72.13 142.86 75.35 139.89 75.40 Z" />
<path fill="#fdfdfb" opacity="1.00" d=" M 143.90 79.51 C 145.85 79.56 147.16 77.87 148.94 77.36 C 151.18 77.27 153.42 77.39 155.66 77.44 C 155.84 85.97 155.94 94.52 155.42 103.04 C 155.08 103.40 154.41 104.13 154.08 104.49 C 145.05 104.87 135.97 104.69 126.95 104.27 C 122.36 103.07 117.80 101.24 112.97 101.64 C 108.56 102.04 104.39 100.17 100.00 100.43 C 93.57 100.61 87.05 99.88 80.73 101.35 C 72.92 101.71 66.22 106.80 58.39 106.89 C 58.41 103.13 57.55 99.44 57.29 95.70 C 58.98 94.99 60.61 94.09 62.36 93.54 C 69.05 93.07 75.92 92.98 82.33 90.82 C 91.86 88.81 101.53 87.55 110.96 85.04 C 115.93 83.66 121.37 85.77 126.15 83.47 C 132.02 81.98 137.83 80.02 143.90 79.51 Z" />
<path fill="#fdfdfb" opacity="1.00" d=" M 61.23 111.14 C 70.84 107.78 80.62 103.90 91.00 104.33 C 96.29 104.55 101.71 103.78 106.90 105.18 C 110.55 105.98 114.32 105.44 118.02 105.73 C 121.41 106.32 124.56 107.90 127.97 108.34 C 136.22 108.65 144.49 108.53 152.74 108.57 C 152.66 111.50 150.82 113.84 149.05 116.01 C 146.47 119.08 144.04 122.46 140.42 124.39 C 136.27 126.77 132.05 129.94 127.02 129.62 C 120.15 129.56 113.11 130.35 106.52 127.93 C 94.81 126.54 82.49 127.39 71.50 122.40 C 67.88 119.77 64.73 116.54 61.38 113.58 C 61.34 112.97 61.27 111.75 61.23 111.14 Z" />
<path fill="#fdfdfb" opacity="1.00" d=" M 13.59 132.73 C 14.42 132.76 15.24 132.78 16.07 132.80 C 16.26 133.98 16.44 135.17 16.62 136.36 C 18.20 136.41 19.76 136.55 21.33 136.75 L 20.48 137.32 C 18.07 137.04 15.67 136.66 13.24 136.56 C 13.36 135.28 13.47 134.00 13.59 132.73 Z" />
<path fill="#fdfdfb" opacity="1.00" d=" M 49.59 136.26 C 50.23 135.54 51.02 135.16 51.97 135.09 C 58.74 140.08 64.51 146.74 72.43 150.04 C 76.69 151.35 81.08 152.21 85.23 153.87 C 85.74 158.03 85.88 162.22 85.91 166.41 C 82.74 166.63 79.65 168.33 76.45 167.38 C 74.60 167.17 72.27 166.11 70.81 167.81 C 69.11 170.30 67.97 173.19 65.89 175.44 C 65.74 173.15 65.74 170.86 65.93 168.57 C 68.71 169.21 70.16 165.80 72.85 166.50 C 77.09 167.65 81.43 166.81 85.69 166.30 C 85.44 162.35 86.42 158.02 84.64 154.36 C 79.52 151.11 72.74 151.82 67.79 148.09 C 63.41 145.77 60.37 141.04 55.34 140.10 C 55.24 145.66 55.42 151.22 55.49 156.78 C 54.69 151.64 55.69 146.38 54.88 141.24 C 53.96 138.91 51.53 137.65 49.59 136.26 Z" />
<path fill="#fdfdfb" opacity="1.00" d=" M 37.14 137.55 C 37.77 137.58 39.03 137.64 39.66 137.67 C 40.44 142.54 40.75 147.56 39.56 152.40 C 37.60 147.70 37.34 142.57 37.14 137.55 Z" />
<path fill="#fdfdfb" opacity="1.00" d=" M 22.42 139.43 C 24.09 139.22 25.75 138.86 27.40 138.53 C 26.13 146.11 25.09 153.75 24.30 161.40 C 26.26 161.54 28.22 161.69 30.19 161.69 C 30.80 160.32 31.41 158.95 32.03 157.59 C 32.72 159.11 33.38 160.65 34.06 162.18 C 41.33 161.99 49.36 163.83 55.80 159.43 C 56.37 160.51 57.89 161.19 57.64 162.59 C 57.58 170.70 57.46 178.83 57.61 186.95 C 57.48 188.52 57.99 190.36 56.74 191.61 C 56.14 191.71 54.94 191.92 54.34 192.02 C 54.29 186.06 54.64 180.10 54.34 174.15 C 54.09 170.31 50.99 166.20 46.88 166.30 C 43.94 166.23 40.47 165.89 38.23 168.20 C 36.04 170.14 35.50 173.21 35.51 176.00 C 35.39 181.90 35.59 187.86 36.70 193.67 C 38.00 198.24 43.43 199.86 47.64 198.88 C 50.43 197.94 51.95 195.20 54.05 193.33 C 51.94 196.19 49.13 199.77 45.12 199.30 C 41.93 198.67 38.71 198.14 35.44 198.39 C 35.69 192.98 35.61 187.56 35.41 182.15 C 31.24 182.59 27.55 185.19 23.72 186.87 C 23.72 190.67 23.60 194.47 23.25 198.26 C 21.28 198.28 19.31 198.43 17.35 198.53 C 13.06 192.95 18.80 183.85 12.97 178.99 C 17.06 176.30 15.03 170.91 15.85 166.87 L 15.84 167.67 C 15.60 175.96 15.71 184.27 15.99 192.56 C 16.17 194.27 15.82 196.39 17.59 197.39 C 19.09 198.71 21.15 198.00 22.95 198.06 C 23.31 193.91 23.66 189.76 23.60 185.59 C 26.97 184.78 31.49 184.41 33.10 180.83 C 33.63 176.92 34.12 172.44 32.03 168.90 C 28.54 164.83 22.45 167.13 17.80 166.46 C 17.68 165.12 17.56 163.79 17.45 162.46 C 15.16 162.16 11.84 163.60 10.32 161.58 C 14.59 161.09 20.91 163.60 23.31 158.72 C 24.88 154.59 21.32 150.56 22.72 146.45 C 23.51 144.12 23.58 141.64 22.42 139.43 Z" />
<path fill="#fdfdfb" opacity="1.00" d=" M 46.50 140.30 C 46.98 140.43 47.93 140.69 48.41 140.82 C 48.88 146.42 48.60 152.04 48.56 157.66 C 48.03 157.66 46.99 157.67 46.47 157.68 C 46.51 151.89 46.33 146.09 46.50 140.30 Z" />
<path fill="#fdfdfb" opacity="1.00" d=" M 15.48 141.36 C 15.99 141.36 17.01 141.37 17.52 141.38 C 17.45 143.09 17.43 144.80 17.44 146.52 C 16.97 146.52 16.02 146.54 15.55 146.55 C 15.56 144.81 15.54 143.08 15.48 141.36 Z" />
<path fill="#fdfdfb" opacity="1.00" d=" M 15.54 151.46 C 16.01 151.46 16.96 151.46 17.43 151.46 C 17.41 153.50 17.43 155.54 17.48 157.58 C 16.99 157.58 16.02 157.58 15.53 157.58 C 15.57 155.54 15.57 153.50 15.54 151.46 Z" />
<path fill="#fdfdfb" opacity="1.00" d=" M 98.90 166.50 C 101.98 166.50 105.24 164.59 108.20 166.17 C 112.74 168.14 115.50 173.23 115.38 178.05 L 114.88 177.29 C 114.73 172.96 112.75 168.02 108.30 166.60 C 104.39 166.36 99.42 165.36 96.45 168.54 C 96.07 177.77 96.87 187.04 96.18 196.27 C 95.68 196.35 94.68 196.51 94.19 196.59 C 92.80 193.49 91.21 190.40 90.50 187.07 C 91.32 184.69 92.19 182.32 92.84 179.89 C 92.31 179.79 91.26 179.59 90.74 179.49 C 90.03 177.51 89.68 175.42 89.60 173.32 C 90.28 173.04 91.63 172.48 92.30 172.20 C 92.82 171.08 93.33 169.97 93.84 168.86 C 95.89 168.72 96.83 166.33 98.90 166.50 Z" />
<path fill="#fdfdfb" opacity="1.00" d=" M 77.02 168.69 C 77.60 168.65 78.76 168.58 79.35 168.54 C 79.41 177.40 79.60 186.27 79.33 195.12 C 79.00 195.62 78.34 196.63 78.01 197.14 C 76.02 192.92 75.16 188.30 73.81 183.86 C 72.06 178.57 75.09 173.45 77.02 168.69 Z" />
<path fill="#fdfdfb" opacity="1.00" d=" M 138.44 169.13 L 138.80 168.42 C 139.49 168.48 140.89 168.61 141.58 168.68 C 140.53 175.54 139.83 182.45 138.76 189.31 C 138.32 192.19 138.78 195.11 138.94 198.00 C 140.29 198.06 141.65 198.10 143.01 198.12 C 145.44 197.36 145.75 194.74 146.29 192.64 C 147.29 192.56 148.30 192.47 149.30 192.39 C 150.15 194.27 151.06 196.12 152.13 197.88 C 150.36 196.65 146.93 193.46 145.58 196.72 C 144.77 199.89 140.97 198.11 138.70 198.08 C 138.74 194.13 138.04 190.28 137.30 186.42 C 136.32 186.41 134.37 186.39 133.40 186.38 C 133.32 188.04 133.17 189.70 132.97 191.36 L 132.74 190.32 C 132.75 188.99 132.77 187.68 132.78 186.36 C 134.92 184.84 137.71 183.37 137.70 180.35 C 135.98 179.49 134.24 178.67 132.53 177.79 C 132.56 176.62 132.57 175.46 132.59 174.30 C 135.08 173.20 137.72 172.04 138.44 169.13 Z" />
<path fill="#fdfdfb" opacity="1.00" d=" M 24.35 171.32 C 24.87 171.42 25.90 171.62 26.42 171.72 C 26.36 174.53 27.68 178.14 24.89 180.06 C 23.14 177.39 23.50 174.23 24.35 171.32 Z" />
<path fill="#fdfdfb" opacity="1.00" d=" M 179.10 171.47 C 179.92 171.16 181.55 170.53 182.37 170.21 C 183.03 178.00 182.47 185.83 182.63 193.64 C 181.83 193.62 180.23 193.58 179.43 193.56 C 179.49 190.82 179.53 188.10 179.57 185.37 C 176.90 185.32 174.24 185.33 171.59 185.42 C 171.45 188.41 172.27 191.83 170.00 194.24 C 167.79 192.40 168.50 189.50 168.37 187.00 C 168.40 181.81 168.30 176.61 168.50 171.42 C 169.23 171.43 170.70 171.44 171.43 171.44 C 171.53 174.11 171.62 176.79 171.68 179.47 C 174.33 179.65 176.98 179.71 179.64 179.64 C 179.60 176.91 179.59 174.16 179.10 171.47 Z" />
<path fill="#fdfdfb" opacity="1.00" d=" M 43.48 179.00 C 43.53 176.20 43.08 173.12 44.98 170.77 C 45.39 171.29 46.21 172.33 46.63 172.84 C 46.85 179.78 46.87 186.75 46.47 193.68 C 45.78 193.23 44.40 192.32 43.71 191.86 C 43.26 187.59 43.60 183.28 43.48 179.00 Z" />
<path fill="#fdfdfb" opacity="1.00" d=" M 104.81 179.15 C 103.20 176.59 103.29 173.50 104.91 170.98 C 106.37 172.65 108.07 174.47 107.34 176.90 C 106.71 177.46 105.44 178.59 104.81 179.15 Z" />
<path fill="#fdfdfb" opacity="1.00" d=" M 147.34 176.54 C 147.79 176.43 148.70 176.20 149.16 176.09 C 149.34 179.07 149.62 182.06 149.40 185.06 C 148.73 185.57 147.39 186.60 146.71 187.12 C 145.65 183.67 146.41 179.94 147.34 176.54 Z" />
<path fill="#fdfdfb" opacity="1.00" d=" M 103.58 197.80 C 103.70 193.09 103.13 188.22 104.87 183.72 C 108.27 187.58 107.42 192.88 107.29 197.60 C 107.04 198.40 106.53 200.00 106.27 200.80 C 104.26 197.24 100.13 198.65 96.80 198.00 L 97.78 197.77 C 99.71 197.76 101.65 197.77 103.58 197.80 Z" />
<path fill="#fdfdfb" opacity="1.00" d=" M 155.94 185.47 C 157.18 185.29 158.42 185.09 159.66 184.87 C 160.09 188.36 160.65 191.83 161.38 195.27 C 160.05 195.26 158.72 195.29 157.39 195.38 C 156.97 192.07 156.43 188.77 155.94 185.47 Z" />
<path fill="#fdfdfb" opacity="1.00" d=" M 65.89 186.78 C 67.27 189.18 68.28 191.76 68.99 194.44 C 67.44 195.42 66.20 196.75 65.26 198.32 C 65.65 194.48 65.67 190.63 65.89 186.78 Z" />
</g>
<g id="#dc202dfd">
<path fill="#dc202d" opacity="1.00" d=" M 71.48 44.62 C 72.14 41.99 76.66 45.30 74.31 46.58 C 73.33 45.98 72.38 45.33 71.48 44.62 Z" />
<path fill="#dc202d" opacity="1.00" d=" M 62.93 51.27 C 65.11 50.13 66.93 48.43 68.98 47.07 C 66.79 49.37 64.48 51.92 61.11 52.22 C 56.29 53.64 50.74 52.46 46.39 55.03 C 52.83 56.23 59.37 55.05 65.74 53.97 C 64.31 56.13 61.23 54.99 59.06 55.60 C 54.63 56.45 50.12 56.61 45.62 56.22 C 45.63 55.09 45.64 53.95 45.64 52.81 C 51.44 52.76 57.24 52.43 62.93 51.27 Z" />
<path fill="#dc202d" opacity="1.00" d=" M 8.60 137.79 C 10.15 137.38 11.67 136.90 13.24 136.56 C 15.67 136.66 18.07 137.04 20.48 137.32 C 20.96 137.85 21.93 138.90 22.42 139.43 C 23.58 141.64 23.51 144.12 22.72 146.45 C 21.32 150.56 24.88 154.59 23.31 158.72 C 20.91 163.60 14.59 161.09 10.32 161.58 L 9.37 161.55 C 10.08 153.59 8.00 145.76 8.60 137.79 M 15.48 141.36 C 15.54 143.08 15.56 144.81 15.55 146.55 C 16.02 146.54 16.97 146.52 17.44 146.52 C 17.43 144.80 17.45 143.09 17.52 141.38 C 17.01 141.37 15.99 141.36 15.48 141.36 M 15.54 151.46 C 15.57 153.50 15.57 155.54 15.53 157.58 C 16.02 157.58 16.99 157.58 17.48 157.58 C 17.43 155.54 17.41 153.50 17.43 151.46 C 16.96 151.46 16.01 151.46 15.54 151.46 Z" />
<path fill="#dc202d" opacity="1.00" d=" M 27.40 138.53 C 29.15 134.84 33.89 136.60 37.08 136.39 L 37.14 137.55 C 37.34 142.57 37.60 147.70 39.56 152.40 C 40.75 147.56 40.44 142.54 39.66 137.67 C 42.53 135.49 46.25 136.33 49.59 136.26 C 51.53 137.65 53.96 138.91 54.88 141.24 C 55.69 146.38 54.69 151.64 55.49 156.78 C 55.67 158.17 57.29 158.83 57.64 160.16 C 57.94 161.78 57.73 163.44 57.79 165.08 C 60.68 165.72 63.93 166.11 65.93 168.57 C 65.74 170.86 65.74 173.15 65.89 175.44 C 67.97 173.19 69.11 170.30 70.81 167.81 C 72.27 166.11 74.60 167.17 76.45 167.38 C 79.65 168.33 82.74 166.63 85.91 166.41 C 87.41 166.33 88.92 166.28 90.43 166.34 C 91.74 166.88 92.88 167.72 93.84 168.86 C 93.33 169.97 92.82 171.08 92.30 172.20 C 91.63 172.48 90.28 173.04 89.60 173.32 C 89.09 173.54 88.07 173.98 87.56 174.19 C 87.75 175.77 87.73 177.37 87.58 178.95 C 88.63 179.13 89.68 179.30 90.74 179.49 C 91.26 179.59 92.31 179.79 92.84 179.89 C 92.19 182.32 91.32 184.69 90.50 187.07 C 91.21 190.40 92.80 193.49 94.19 196.59 C 94.68 196.51 95.68 196.35 96.18 196.27 C 96.87 187.04 96.07 177.77 96.45 168.54 C 99.42 165.36 104.39 166.36 108.30 166.60 C 112.75 168.02 114.73 172.96 114.88 177.29 C 114.12 178.87 113.24 180.40 112.42 181.95 C 115.45 186.31 115.04 191.86 114.01 196.76 C 112.78 199.45 109.52 198.15 107.24 198.44 L 107.29 197.60 C 107.42 192.88 108.27 187.58 104.87 183.72 C 103.13 188.22 103.70 193.09 103.58 197.80 C 101.65 197.77 99.71 197.76 97.78 197.77 C 95.67 197.11 93.53 197.17 91.82 198.70 C 84.99 198.59 78.09 196.20 71.36 198.52 C 70.43 197.24 69.29 196.05 68.99 194.44 C 68.28 191.76 67.27 189.18 65.89 186.78 C 65.67 190.63 65.65 194.48 65.26 198.32 C 62.73 198.42 60.04 198.79 57.77 197.38 C 57.60 195.71 57.42 194.03 57.15 192.38 C 56.37 192.62 54.83 193.09 54.05 193.33 C 51.95 195.20 50.43 197.94 47.64 198.88 C 43.43 199.86 38.00 198.24 36.70 193.67 C 35.59 187.86 35.39 181.90 35.51 176.00 C 35.50 173.21 36.04 170.14 38.23 168.20 C 40.47 165.89 43.94 166.23 46.88 166.30 C 50.99 166.20 54.09 170.31 54.34 174.15 C 54.64 180.10 54.29 186.06 54.34 192.02 C 54.94 191.92 56.14 191.71 56.74 191.61 C 57.99 190.36 57.48 188.52 57.61 186.95 C 57.46 178.83 57.58 170.70 57.64 162.59 C 57.89 161.19 56.37 160.51 55.80 159.43 C 49.36 163.83 41.33 161.99 34.06 162.18 C 33.38 160.65 32.72 159.11 32.03 157.59 C 31.41 158.95 30.80 160.32 30.19 161.69 C 28.22 161.69 26.26 161.54 24.30 161.40 C 25.09 153.75 26.13 146.11 27.40 138.53 M 46.50 140.30 C 46.33 146.09 46.51 151.89 46.47 157.68 C 46.99 157.67 48.03 157.66 48.56 157.66 C 48.60 152.04 48.88 146.42 48.41 140.82 C 47.93 140.69 46.98 140.43 46.50 140.30 M 77.02 168.69 C 75.09 173.45 72.06 178.57 73.81 183.86 C 75.16 188.30 76.02 192.92 78.01 197.14 C 78.34 196.63 79.00 195.62 79.33 195.12 C 79.60 186.27 79.41 177.40 79.35 168.54 C 78.76 168.58 77.60 168.65 77.02 168.69 M 43.48 179.00 C 43.60 183.28 43.26 187.59 43.71 191.86 C 44.40 192.32 45.78 193.23 46.47 193.68 C 46.87 186.75 46.85 179.78 46.63 172.84 C 46.21 172.33 45.39 171.29 44.98 170.77 C 43.08 173.12 43.53 176.20 43.48 179.00 M 104.81 179.15 C 105.44 178.59 106.71 177.46 107.34 176.90 C 108.07 174.47 106.37 172.65 104.91 170.98 C 103.29 173.50 103.20 176.59 104.81 179.15 Z" />
<path fill="#dc202d" opacity="1.00" d=" M 17.80 166.46 C 22.45 167.13 28.54 164.83 32.03 168.90 C 34.12 172.44 33.63 176.92 33.10 180.83 C 31.49 184.41 26.97 184.78 23.60 185.59 C 23.66 189.76 23.31 193.91 22.95 198.06 C 21.15 198.00 19.09 198.71 17.59 197.39 C 15.82 196.39 16.17 194.27 15.99 192.56 C 15.71 184.27 15.60 175.96 15.84 167.67 C 16.33 167.36 17.31 166.76 17.80 166.46 M 24.35 171.32 C 23.50 174.23 23.14 177.39 24.89 180.06 C 27.68 178.14 26.36 174.53 26.42 171.72 C 25.90 171.62 24.87 171.42 24.35 171.32 Z" />
<path fill="#dc202d" opacity="1.00" d=" M 124.29 168.08 C 126.21 167.25 128.03 166.20 129.94 165.33 C 132.79 166.56 136.23 166.71 138.44 169.13 C 137.72 172.04 135.08 173.20 132.59 174.30 C 132.57 175.46 132.56 176.62 132.53 177.79 C 134.24 178.67 135.98 179.49 137.70 180.35 C 137.71 183.37 134.92 184.84 132.78 186.36 C 132.77 187.68 132.75 188.99 132.74 190.32 C 132.15 192.97 133.49 196.49 131.01 198.36 C 129.27 198.45 127.53 198.47 125.79 198.56 C 125.03 197.48 124.63 196.30 124.57 195.01 C 124.38 186.04 124.24 177.06 124.29 168.08 Z" />
<path fill="#dc202d" opacity="1.00" d=" M 162.89 165.48 C 166.98 165.77 170.98 167.06 174.98 165.32 C 176.11 166.80 177.22 168.31 178.53 169.65 C 181.47 171.04 183.10 167.60 185.38 166.49 C 188.65 163.90 192.42 166.84 195.73 167.76 C 195.63 169.56 195.47 171.37 195.46 173.18 C 194.04 173.32 192.63 173.45 191.22 173.59 C 191.32 175.16 191.36 176.74 191.33 178.31 C 192.75 178.79 194.17 179.27 195.59 179.76 C 195.62 181.27 195.66 182.78 195.72 184.29 C 194.23 184.78 192.73 185.27 191.24 185.75 C 191.35 187.59 191.40 189.43 191.39 191.28 C 193.16 191.62 194.93 192.01 196.69 192.45 C 196.35 194.44 197.33 197.28 194.97 198.27 C 191.67 198.55 188.34 198.55 185.04 198.30 C 182.59 197.60 182.08 194.53 179.92 193.61 C 177.19 195.31 175.62 198.55 172.51 199.65 C 168.39 199.78 164.35 198.12 161.38 195.27 C 160.65 191.83 160.09 188.36 159.66 184.87 C 159.46 181.91 159.42 178.94 159.60 175.99 C 160.53 172.43 162.58 169.22 162.89 165.48 M 179.10 171.47 C 179.59 174.16 179.60 176.91 179.64 179.64 C 176.98 179.71 174.33 179.65 171.68 179.47 C 171.62 176.79 171.53 174.11 171.43 171.44 C 170.70 171.44 169.23 171.43 168.50 171.42 C 168.30 176.61 168.40 181.81 168.37 187.00 C 168.50 189.50 167.79 192.40 170.00 194.24 C 172.27 191.83 171.45 188.41 171.59 185.42 C 174.24 185.33 176.90 185.32 179.57 185.37 C 179.53 188.10 179.49 190.82 179.43 193.56 C 180.23 193.58 181.83 193.62 182.63 193.64 C 182.47 185.83 183.03 178.00 182.37 170.21 C 181.55 170.53 179.92 171.16 179.10 171.47 Z" />
<path fill="#dc202d" opacity="1.00" d=" M 141.72 167.71 C 144.98 165.93 148.78 166.84 152.31 166.52 C 154.66 172.56 155.48 179.05 155.94 185.47 C 156.43 188.77 156.97 192.07 157.39 195.38 C 157.38 196.56 156.99 197.64 156.22 198.64 C 154.78 198.67 153.41 198.41 152.13 197.88 C 151.06 196.12 150.15 194.27 149.30 192.39 C 148.30 192.47 147.29 192.56 146.29 192.64 C 145.75 194.74 145.44 197.36 143.01 198.12 C 141.65 198.10 140.29 198.06 138.94 198.00 C 138.78 195.11 138.32 192.19 138.76 189.31 C 139.83 182.45 140.53 175.54 141.58 168.68 L 141.72 167.71 M 147.34 176.54 C 146.41 179.94 145.65 183.67 146.71 187.12 C 147.39 186.60 148.73 185.57 149.40 185.06 C 149.62 182.06 149.34 179.07 149.16 176.09 C 148.70 176.20 147.79 176.43 147.34 176.54 Z" />
</g>
</svg>
