<?xml version="1.0" encoding="UTF-8" ?>
<!DOCTYPE svg PUBLIC "-//W3C//DTD SVG 1.1//EN" "http://www.w3.org/Graphics/SVG/1.1/DTD/svg11.dtd">
<svg width="210pt" height="220pt" viewBox="0 0 210 220" version="1.1" xmlns="http://www.w3.org/2000/svg">
<g id="#626262ed">
<path fill="#626262" opacity="0.93" d=" M 83.03 29.43 C 88.69 28.14 95.10 26.04 100.66 28.63 C 95.11 29.42 89.41 28.32 83.96 29.82 C 81.27 30.48 78.60 31.22 75.89 31.80 C 78.16 30.72 80.52 29.79 83.03 29.43 Z" />
<path fill="#626262" opacity="0.93" d=" M 104.26 28.87 C 105.51 27.84 107.88 28.23 107.74 30.18 C 106.31 30.67 105.15 30.24 104.26 28.87 Z" />
<path fill="#626262" opacity="0.93" d=" M 108.45 29.88 C 109.80 28.69 111.73 29.36 111.98 31.16 C 110.41 31.69 109.23 31.26 108.45 29.88 Z" />
<path fill="#626262" opacity="0.93" d=" M 112.23 31.30 C 113.00 29.79 114.84 30.56 115.13 31.96 C 114.41 31.80 112.96 31.47 112.23 31.30 Z" />
<path fill="#626262" opacity="0.93" d=" M 74.35 31.99 C 74.74 31.95 75.51 31.85 75.89 31.80 C 71.57 34.45 67.11 36.88 62.59 39.18 C 65.98 36.01 70.09 33.73 74.35 31.99 Z" />
<path fill="#626262" opacity="0.93" d=" M 126.63 37.99 C 127.84 38.09 128.71 38.69 129.25 39.80 C 127.70 40.22 126.82 39.61 126.63 37.99 Z" />
<path fill="#626262" opacity="0.93" d=" M 53.08 48.53 C 54.90 44.82 58.16 41.90 61.69 39.83 C 59.22 43.10 56.25 45.95 53.08 48.53 Z" />
<path fill="#626262" opacity="0.93" d=" M 50.94 50.95 C 51.24 50.61 51.86 49.93 52.17 49.59 C 50.92 52.22 49.44 54.73 47.93 57.21 C 45.84 60.73 45.13 64.84 43.13 68.40 C 42.73 66.10 44.28 64.21 44.99 62.17 C 46.21 58.80 47.65 55.50 49.80 52.62 C 50.09 52.20 50.65 51.36 50.94 50.95 Z" />
<path fill="#626262" opacity="0.93" d=" M 145.04 60.83 C 145.25 61.41 145.66 62.56 145.86 63.14 C 145.66 62.56 145.25 61.41 145.04 60.83 Z" />
<path fill="#626262" opacity="0.93" d=" M 145.84 63.99 C 146.20 64.29 146.93 64.89 147.29 65.19 L 147.09 66.01 C 146.78 65.50 146.15 64.49 145.84 63.99 Z" />
<path fill="#626262" opacity="0.93" d=" M 148.23 71.06 C 149.22 71.93 149.53 72.98 149.18 74.22 C 147.82 73.53 147.50 72.48 148.23 71.06 Z" />
<path fill="#626262" opacity="0.93" d=" M 40.70 76.54 C 41.06 76.17 41.78 75.44 42.14 75.07 C 41.97 79.86 42.23 84.65 42.12 89.44 C 39.21 85.88 41.49 80.76 40.70 76.54 Z" />
<path fill="#626262" opacity="0.93" d=" M 148.19 93.05 C 147.64 91.69 147.62 89.67 149.27 89.09 C 149.60 90.52 149.40 92.08 148.19 93.05 Z" />
<path fill="#626262" opacity="0.93" d=" M 41.90 91.98 C 42.20 92.47 42.80 93.45 43.10 93.94 C 42.80 93.45 42.20 92.47 41.90 91.98 Z" />
<path fill="#626262" opacity="0.93" d=" M 146.76 97.07 C 147.02 96.40 147.55 95.05 147.81 94.38 C 149.19 95.18 148.56 98.08 146.76 97.07 Z" />
<path fill="#626262" opacity="0.93" d=" M 43.27 95.31 C 44.85 99.38 46.36 103.47 47.91 107.55 C 47.53 107.16 46.78 106.38 46.40 105.99 C 45.73 102.30 43.16 99.18 43.27 95.31 Z" />
<path fill="#626262" opacity="0.93" d=" M 146.08 100.31 C 146.29 99.75 146.72 98.63 146.93 98.07 C 146.72 98.63 146.29 99.75 146.08 100.31 Z" />
<path fill="#626262" opacity="0.93" d=" M 141.22 110.41 C 142.29 106.88 144.24 103.74 146.01 100.54 C 145.36 104.18 143.81 107.74 141.22 110.41 Z" />
<path fill="#626262" opacity="0.93" d=" M 22.42 108.38 C 25.84 108.83 29.02 110.18 32.23 111.36 C 28.86 110.75 25.40 110.19 22.42 108.38 Z" />
<path fill="#626262" opacity="0.93" d=" M 11.80 115.96 C 13.55 113.40 13.17 109.63 16.58 108.22 C 16.17 109.64 15.36 110.75 14.16 111.54 C 14.05 112.66 13.96 113.78 13.89 114.91 C 14.38 114.36 15.35 113.27 15.84 112.72 C 15.45 113.80 15.09 114.90 14.72 116.00 C 14.34 115.75 13.58 115.26 13.21 115.02 C 12.78 116.07 12.35 117.13 11.92 118.18 C 10.82 117.55 9.72 116.92 8.61 116.32 C 9.40 116.23 11.00 116.05 11.80 115.96 Z" />
<path fill="#626262" opacity="0.93" d=" M 138.83 114.00 C 137.90 112.48 139.19 110.62 140.91 110.76 C 141.36 112.26 140.09 113.47 138.83 114.00 Z" />
<path fill="#626262" opacity="0.93" d=" M 0.00 113.67 C 1.24 113.30 2.47 113.34 3.70 113.79 L 4.04 114.00 C 2.97 114.77 1.75 115.31 0.49 115.68 L 0.00 115.63 L 0.00 113.67 Z" />
<path fill="#626262" opacity="0.93" d=" M 37.49 112.86 C 39.54 113.88 38.76 116.27 38.86 118.11 C 38.73 119.72 38.95 121.53 37.76 122.85 C 37.76 119.52 37.59 116.19 37.49 112.86 Z" />
<path fill="#626262" opacity="0.93" d=" M 132.28 120.56 C 133.98 118.42 136.00 116.57 138.03 114.74 C 137.47 117.78 133.40 118.91 133.23 121.72 C 133.76 122.22 134.81 123.22 135.34 123.72 C 133.67 123.42 131.68 122.66 132.28 120.56 Z" />
<path fill="#626262" opacity="0.93" d=" M 1.83 115.76 C 2.38 116.00 3.49 116.49 4.04 116.74 C 3.49 116.49 2.38 116.00 1.83 115.76 Z" />
<path fill="#626262" opacity="0.93" d=" M 6.82 117.99 C 7.43 118.11 8.66 118.35 9.27 118.47 C 8.66 118.35 7.43 118.11 6.82 117.99 Z" />
<path fill="#626262" opacity="0.93" d=" M 37.38 124.69 C 37.43 124.59 37.52 124.41 37.56 124.32 L 37.54 124.46 L 37.38 124.69 Z" />
<path fill="#626262" opacity="0.93" d=" M 135.81 124.03 C 137.83 123.59 138.93 125.60 139.75 127.06 C 137.94 126.89 135.91 126.17 135.81 124.03 Z" />
<path fill="#626262" opacity="0.93" d=" M 150.19 126.38 C 152.30 126.23 154.39 125.89 156.47 125.50 C 157.05 125.49 158.21 125.47 158.78 125.45 C 157.29 126.24 155.68 126.78 154.00 126.98 C 149.73 127.57 145.50 128.90 141.15 128.42 C 141.84 128.39 143.21 128.32 143.89 128.28 C 145.91 127.40 148.06 126.91 150.19 126.38 Z" />
<path fill="#626262" opacity="0.93" d=" M 8.14 127.33 C 11.50 127.42 6.62 130.30 8.14 127.33 Z" />
<path fill="#626262" opacity="0.93" d=" M 36.41 126.40 C 36.56 127.09 36.86 128.46 37.01 129.14 C 41.60 130.32 46.05 132.04 50.77 132.69 C 52.09 133.40 53.53 133.61 55.02 133.50 C 55.43 133.81 56.26 134.42 56.67 134.72 C 57.30 134.70 58.56 134.66 59.19 134.64 C 59.52 134.87 60.19 135.33 60.53 135.56 C 51.94 134.28 43.35 132.24 35.28 129.02 C 35.56 128.36 36.12 127.05 36.41 126.40 Z" />
<path fill="#626262" opacity="0.93" d=" M 13.68 128.63 C 15.56 127.97 16.62 129.70 17.76 130.86 C 20.94 128.61 25.27 130.22 28.63 128.06 C 28.49 129.52 28.35 130.99 28.21 132.45 C 27.65 131.83 26.52 130.59 25.96 129.97 C 25.61 130.67 24.90 132.06 24.54 132.75 C 23.21 132.50 21.88 132.26 20.55 132.02 C 20.55 132.44 20.56 133.28 20.57 133.70 C 19.95 133.65 18.73 133.56 18.12 133.51 C 16.99 133.98 15.84 134.40 14.68 134.79 C 13.70 133.29 15.27 132.44 16.04 131.51 L 14.31 130.92 C 14.12 131.35 13.72 132.20 13.53 132.63 C 13.37 131.27 13.42 129.94 13.68 128.63 Z" />
<path fill="#626262" opacity="0.93" d=" M 67.18 127.85 C 71.46 129.01 75.12 131.71 79.46 132.68 C 83.42 133.82 87.61 134.07 91.46 135.57 C 86.93 136.24 82.72 134.09 78.32 133.48 C 74.71 131.35 70.24 130.93 67.18 127.85 Z" />
<path fill="#626262" opacity="0.93" d=" M 130.51 128.91 C 132.29 129.69 133.91 130.81 135.08 132.38 C 130.06 133.90 125.21 136.09 120.02 136.97 C 120.36 136.59 121.03 135.82 121.36 135.44 C 122.01 135.51 123.31 135.66 123.96 135.73 C 126.75 133.74 130.09 132.98 133.39 132.34 C 132.44 131.19 131.48 130.05 130.51 128.91 Z" />
<path fill="#626262" opacity="0.93" d=" M 4.07 134.83 C 2.47 134.73 2.73 132.58 4.03 132.18 C 4.04 132.85 4.06 134.17 4.07 134.83 Z" />
<path fill="#626262" opacity="0.93" d=" M 162.29 132.60 C 162.11 130.89 165.18 130.78 165.92 132.00 C 164.87 132.80 163.53 132.84 162.29 132.60 Z" />
<path fill="#626262" opacity="0.93" d=" M 62.72 135.91 C 63.88 134.94 66.94 134.78 66.30 137.04 C 64.91 137.35 63.72 136.98 62.72 135.91 Z" />
<path fill="#626262" opacity="0.93" d=" M 100.36 135.36 C 100.37 133.93 103.00 133.97 103.79 134.81 C 103.58 136.19 101.27 135.92 100.36 135.36 Z" />
<path fill="#626262" opacity="0.93" d=" M 204.10 134.50 C 205.85 136.31 207.05 138.56 207.97 140.88 C 207.90 141.35 207.75 142.30 207.67 142.77 C 206.31 140.09 205.15 137.32 204.10 134.50 Z" />
<path fill="#626262" opacity="0.93" d=" M 114.77 137.74 C 115.82 136.27 117.63 136.00 119.19 136.78 C 118.43 138.57 116.21 138.86 114.77 137.74 Z" />
<path fill="#626262" opacity="0.93" d=" M 5.16 137.36 C 8.52 137.59 3.55 140.28 5.16 137.36 Z" />
<path fill="#626262" opacity="0.93" d=" M 67.57 136.90 C 71.67 136.42 75.72 137.54 79.80 137.84 C 80.26 138.09 81.17 138.57 81.63 138.82 C 76.89 138.70 72.19 137.90 67.57 136.90 Z" />
<path fill="#626262" opacity="0.93" d=" M 108.22 138.80 C 109.00 137.12 112.39 137.82 113.59 138.55 C 112.02 139.18 109.61 140.02 108.22 138.80 Z" />
<path fill="#626262" opacity="0.93" d=" M 161.47 138.54 C 162.27 137.24 164.55 137.79 165.89 137.94 L 166.22 138.34 C 164.97 139.46 162.85 139.35 161.47 138.54 Z" />
<path fill="#626262" opacity="0.93" d=" M 170.30 138.73 C 171.42 138.61 172.54 138.48 173.68 138.45 C 173.93 138.79 174.44 139.47 174.69 139.81 C 173.62 141.20 170.19 140.77 170.30 138.73 Z" />
<path fill="#626262" opacity="0.93" d=" M 87.97 139.52 C 92.95 138.88 98.04 138.93 103.02 139.55 C 98.01 139.82 92.98 139.87 87.97 139.52 Z" />
<path fill="#626262" opacity="0.93" d=" M 52.56 141.12 C 55.62 141.11 58.62 141.77 61.44 142.94 C 60.46 143.06 59.48 143.19 58.50 143.33 C 58.11 143.00 57.32 142.35 56.93 142.02 C 55.46 141.79 54.00 141.49 52.56 141.12 Z" />
<path fill="#626262" opacity="0.93" d=" M 184.99 140.93 C 187.70 141.50 190.39 142.29 192.74 143.80 C 189.80 144.00 187.45 142.20 184.99 140.93 Z" />
<path fill="#626262" opacity="0.93" d=" M 124.62 142.86 C 125.31 142.48 126.68 141.70 127.36 141.32 C 128.06 142.77 128.47 144.35 128.35 145.97 C 128.23 152.97 128.23 159.97 128.33 166.97 C 128.30 168.51 128.50 170.24 127.23 171.39 C 126.81 162.02 127.65 152.61 126.76 143.26 C 126.22 143.16 125.16 142.96 124.62 142.86 Z" />
<path fill="#626262" opacity="0.93" d=" M 62.02 143.05 C 63.92 142.87 65.76 143.23 67.44 144.09 C 65.55 144.29 63.55 144.46 62.02 143.05 Z" />
<path fill="#626262" opacity="0.93" d=" M 120.50 143.67 C 121.15 143.43 122.47 142.96 123.13 142.72 C 124.09 144.49 121.00 145.48 120.50 143.67 Z" />
<path fill="#626262" opacity="0.93" d=" M 68.41 144.06 C 70.99 143.82 73.49 144.54 75.98 145.09 C 73.45 145.05 70.39 146.22 68.41 144.06 Z" />
<path fill="#626262" opacity="0.93" d=" M 76.95 145.05 C 79.77 144.73 82.54 145.36 85.23 146.14 C 82.99 146.20 80.74 146.33 78.50 146.45 C 78.11 146.10 77.34 145.40 76.95 145.05 Z" />
<path fill="#626262" opacity="0.93" d=" M 105.65 146.12 C 107.71 145.50 109.82 144.90 111.99 145.08 C 111.62 145.42 110.87 146.10 110.49 146.44 C 108.88 146.32 107.27 146.20 105.65 146.12 Z" />
<path fill="#626262" opacity="0.93" d=" M 207.38 152.02 C 207.75 149.33 207.77 146.61 207.99 143.90 C 209.34 146.23 209.27 148.90 209.00 151.47 C 207.88 153.77 207.72 156.35 206.94 158.76 C 206.72 156.50 207.06 154.25 207.38 152.02 Z" />
<path fill="#626262" opacity="0.93" d=" M 200.49 145.16 L 201.69 145.75 C 202.50 149.66 201.04 153.48 200.11 157.23 C 199.48 159.61 198.48 162.29 195.92 163.15 C 200.92 158.53 200.72 151.40 200.49 145.16 Z" />
<path fill="#626262" opacity="0.93" d=" M 30.49 146.45 C 30.21 148.52 29.73 150.55 29.29 152.59 C 27.76 153.29 26.06 153.91 24.50 152.84 C 25.34 152.83 27.01 152.82 27.85 152.82 C 28.72 150.69 29.61 148.57 30.49 146.45 Z" />
<path fill="#626262" opacity="0.93" d=" M 193.46 160.72 C 192.45 157.20 192.96 153.24 194.24 149.86 C 194.15 153.48 195.16 157.32 193.46 160.72 Z" />
<path fill="#626262" opacity="0.93" d=" M 193.12 164.00 C 193.52 164.00 194.31 163.99 194.71 163.98 C 194.16 165.57 193.63 165.57 193.12 164.00 Z" />
<path fill="#626262" opacity="0.93" d=" M 193.54 171.77 C 196.21 170.86 198.75 169.59 201.16 168.11 C 198.27 170.99 194.07 172.44 192.11 176.22 C 192.10 175.69 192.07 174.63 192.05 174.10 C 192.53 173.31 193.02 172.53 193.54 171.77 Z" />
<path fill="#626262" opacity="0.93" d=" M 76.08 170.30 C 89.38 170.16 102.69 170.51 115.99 170.29 C 119.04 170.22 122.23 169.72 125.12 171.04 C 122.49 171.25 119.85 171.27 117.22 171.47 C 106.78 170.22 96.23 170.58 85.79 171.49 C 82.61 170.81 78.88 172.15 76.08 170.30 Z" />
<path fill="#626262" opacity="0.93" d=" M 59.91 172.35 C 62.67 170.32 66.20 171.62 69.35 171.50 C 64.75 173.43 59.72 171.94 54.97 172.99 C 50.06 173.92 45.04 174.01 40.09 174.61 C 28.13 175.63 16.26 177.71 4.30 178.66 C 9.45 176.45 15.31 176.85 20.77 175.92 C 29.20 175.07 37.56 173.40 46.03 173.19 C 50.55 171.77 55.28 172.66 59.91 172.35 Z" />
<path fill="#626262" opacity="0.93" d=" M 184.11 176.04 C 184.28 173.66 187.30 174.56 188.88 174.14 C 188.95 180.74 187.43 187.27 187.88 193.88 C 187.52 193.85 186.78 193.78 186.42 193.74 C 188.26 187.49 187.29 180.86 188.25 174.46 C 186.99 175.06 184.47 174.93 184.75 177.00 C 184.43 181.50 183.83 186.00 184.04 190.52 L 183.19 190.75 C 183.28 185.84 183.40 180.90 184.11 176.04 Z" />
<path fill="#626262" opacity="0.93" d=" M 192.00 184.13 C 192.18 187.22 193.15 190.61 191.17 193.34 C 190.57 190.23 190.71 187.07 192.00 184.13 Z" />
</g>
<g id="#000000ff">
<path fill="#000000" opacity="1.00" d=" M 83.96 29.82 C 89.41 28.32 95.11 29.42 100.66 28.63 C 101.85 28.71 103.05 28.79 104.26 28.87 C 105.15 30.24 106.31 30.67 107.74 30.18 L 108.45 29.88 C 109.23 31.26 110.41 31.69 111.98 31.16 L 112.23 31.30 C 112.96 31.47 114.41 31.80 115.13 31.96 C 119.17 33.54 123.11 35.42 126.63 37.99 C 126.82 39.61 127.70 40.22 129.25 39.80 C 132.27 43.16 135.76 46.06 138.75 49.45 C 141.49 52.85 143.34 56.84 145.04 60.83 C 145.25 61.41 145.66 62.56 145.86 63.14 L 145.84 63.99 C 146.15 64.49 146.78 65.50 147.09 66.01 C 147.56 67.67 147.94 69.36 148.23 71.06 C 147.50 72.48 147.82 73.53 149.18 74.22 C 149.27 79.17 149.08 84.14 149.27 89.09 C 147.62 89.67 147.64 91.69 148.19 93.05 C 148.09 93.38 147.91 94.04 147.81 94.38 C 147.55 95.05 147.02 96.40 146.76 97.07 L 146.93 98.07 C 146.72 98.63 146.29 99.75 146.08 100.31 L 146.01 100.54 C 144.24 103.74 142.29 106.88 141.22 110.41 C 141.14 110.50 140.98 110.67 140.91 110.76 C 139.19 110.62 137.90 112.48 138.83 114.00 C 138.63 114.19 138.23 114.56 138.03 114.74 C 136.00 116.57 133.98 118.42 132.28 120.56 C 131.68 122.66 133.67 123.42 135.34 123.72 C 135.46 123.80 135.69 123.95 135.81 124.03 C 135.91 126.17 137.94 126.89 139.75 127.06 C 140.10 127.40 140.80 128.08 141.15 128.42 C 145.50 128.90 149.73 127.57 154.00 126.98 C 155.68 126.78 157.29 126.24 158.78 125.45 C 165.71 123.52 172.91 124.48 179.99 124.20 C 184.57 123.95 188.97 125.36 193.28 126.70 C 197.69 127.94 201.07 131.24 204.10 134.50 C 205.15 137.32 206.31 140.09 207.67 142.77 C 207.05 145.82 207.32 148.93 207.38 152.02 C 207.06 154.25 206.72 156.50 206.94 158.76 C 206.08 162.41 204.03 165.69 201.16 168.11 C 198.75 169.59 196.21 170.86 193.54 171.77 C 193.02 172.53 192.53 173.31 192.05 174.10 C 192.07 174.63 192.10 175.69 192.11 176.22 C 192.20 178.85 192.21 181.50 192.00 184.13 C 190.71 187.07 190.57 190.23 191.17 193.34 C 190.92 197.93 191.38 202.50 192.46 206.95 C 189.99 206.99 187.52 206.99 185.05 206.98 C 183.28 198.31 175.99 192.15 168.41 188.40 C 155.20 182.03 140.46 179.88 125.99 178.62 C 109.00 177.89 91.99 178.11 74.99 178.62 C 58.92 179.78 42.84 181.13 26.86 183.26 C 17.82 183.56 8.92 185.23 0.00 186.54 L 0.00 178.64 C 1.43 178.66 2.87 178.70 4.30 178.66 C 16.26 177.71 28.13 175.63 40.09 174.61 C 45.04 174.01 50.06 173.92 54.97 172.99 C 59.72 171.94 64.75 173.43 69.35 171.50 C 74.83 170.94 80.33 172.44 85.79 171.49 C 96.23 170.58 106.78 170.22 117.22 171.47 C 120.53 172.06 123.91 171.84 127.23 171.39 C 128.50 170.24 128.30 168.51 128.33 166.97 C 128.23 159.97 128.23 152.97 128.35 145.97 C 128.47 144.35 128.06 142.77 127.36 141.32 C 126.68 141.70 125.31 142.48 124.62 142.86 C 124.25 142.83 123.50 142.75 123.13 142.72 C 122.47 142.96 121.15 143.43 120.50 143.67 C 117.98 145.44 114.91 145.32 111.99 145.08 C 109.82 144.90 107.71 145.50 105.65 146.12 C 98.85 146.36 92.04 146.33 85.23 146.14 C 82.54 145.36 79.77 144.73 76.95 145.05 L 75.98 145.09 C 73.49 144.54 70.99 143.82 68.41 144.06 C 68.17 144.07 67.68 144.08 67.44 144.09 C 65.76 143.23 63.92 142.87 62.02 143.05 C 61.88 143.03 61.58 142.97 61.44 142.94 C 58.62 141.77 55.62 141.11 52.56 141.12 C 47.11 140.11 41.59 138.86 36.55 136.51 C 33.29 138.92 31.34 142.55 30.49 146.45 C 29.61 148.57 28.72 150.69 27.85 152.82 C 27.01 152.82 25.34 152.83 24.50 152.84 C 17.73 151.28 11.38 148.25 4.49 147.13 C 3.94 146.44 3.40 145.76 2.85 145.07 C 3.30 144.54 4.20 143.46 4.64 142.93 C 3.78 141.19 2.90 139.47 1.99 137.76 C 2.70 136.79 3.40 135.83 4.07 134.83 C 4.06 134.17 4.04 132.85 4.03 132.18 C 4.48 131.83 5.39 131.11 5.85 130.76 C 5.88 130.64 5.95 130.40 5.98 130.28 C 5.70 126.53 9.54 125.83 10.93 123.02 C 11.35 122.51 11.90 122.17 12.57 122.02 L 12.45 124.30 C 20.44 122.66 28.50 121.35 36.56 120.08 C 36.47 118.34 36.36 116.59 36.24 114.85 C 30.41 112.92 24.49 111.26 18.68 109.27 C 17.72 110.41 16.77 111.55 15.84 112.72 C 15.35 113.27 14.38 114.36 13.89 114.91 C 13.96 113.78 14.05 112.66 14.16 111.54 C 15.36 110.75 16.17 109.64 16.58 108.22 C 18.18 106.40 20.56 107.85 22.42 108.38 C 25.40 110.19 28.86 110.75 32.23 111.36 C 33.98 111.85 35.74 112.33 37.49 112.86 C 37.59 116.19 37.76 119.52 37.76 122.85 C 37.71 123.22 37.61 123.95 37.56 124.32 C 37.52 124.41 37.43 124.59 37.38 124.69 C 37.14 125.11 36.65 125.97 36.41 126.40 C 36.12 127.05 35.56 128.36 35.28 129.02 C 43.35 132.24 51.94 134.28 60.53 135.56 C 61.08 135.65 62.18 135.83 62.72 135.91 C 63.72 136.98 64.91 137.35 66.30 137.04 C 66.62 137.00 67.25 136.93 67.57 136.90 C 72.19 137.90 76.89 138.70 81.63 138.82 C 89.79 138.57 97.96 139.01 106.11 138.57 C 108.41 136.14 111.91 137.55 114.77 137.74 C 116.21 138.86 118.43 138.57 119.19 136.78 L 120.02 136.97 C 125.21 136.09 130.06 133.90 135.08 132.38 C 133.91 130.81 132.29 129.69 130.51 128.91 C 128.52 127.96 126.14 126.48 123.96 127.79 C 118.60 130.52 113.21 133.50 107.24 134.62 C 104.04 134.69 100.46 132.93 97.80 135.54 C 95.69 135.63 93.57 135.62 91.46 135.57 C 87.61 134.07 83.42 133.82 79.46 132.68 C 75.12 131.71 71.46 129.01 67.18 127.85 C 64.99 126.51 62.72 125.27 60.80 123.56 C 55.86 118.80 50.60 114.03 47.91 107.55 C 46.36 103.47 44.85 99.38 43.27 95.31 C 43.23 94.97 43.15 94.28 43.10 93.94 C 42.80 93.45 42.20 92.47 41.90 91.98 C 41.96 91.35 42.07 90.08 42.12 89.44 C 42.23 84.65 41.97 79.86 42.14 75.07 C 42.09 73.46 42.18 71.82 43.38 70.61 C 43.30 69.87 43.22 69.13 43.13 68.40 C 45.13 64.84 45.84 60.73 47.93 57.21 C 49.44 54.73 50.92 52.22 52.17 49.59 C 52.40 49.33 52.86 48.80 53.08 48.53 C 56.25 45.95 59.22 43.10 61.69 39.83 C 61.92 39.67 62.37 39.34 62.59 39.18 C 67.11 36.88 71.57 34.45 75.89 31.80 L 75.89 31.80 C 78.60 31.22 81.27 30.48 83.96 29.82 M 82.70 32.85 L 82.21 33.21 C 68.49 36.75 56.61 46.58 50.32 59.25 C 41.60 76.45 43.94 98.74 56.44 113.53 C 65.74 124.87 80.14 132.32 94.96 131.85 C 117.61 132.97 139.52 116.10 144.66 94.09 C 150.04 73.80 140.84 50.74 123.04 39.65 C 111.32 31.74 96.35 29.69 82.70 32.85 M 11.56 126.45 C 10.97 127.93 10.34 129.43 10.20 131.04 C 11.06 132.01 12.16 132.54 13.53 132.63 C 13.72 132.20 14.12 131.35 14.31 130.92 L 16.04 131.51 C 15.27 132.44 13.70 133.29 14.68 134.79 C 13.24 134.80 11.80 134.51 10.49 133.90 C 8.77 135.47 7.61 132.99 6.27 132.26 C 6.26 134.33 8.30 135.40 8.98 137.23 C 10.31 137.60 11.65 137.96 12.98 138.36 C 17.93 137.20 22.97 136.46 27.91 135.28 C 28.59 135.86 29.27 136.44 29.96 137.02 C 22.74 138.17 15.68 140.50 8.35 140.80 C 8.45 141.13 8.66 141.79 8.76 142.13 C 10.75 142.05 11.70 142.90 11.62 144.69 C 9.75 144.61 8.01 144.03 6.34 143.22 C 6.36 143.73 6.40 144.74 6.42 145.24 C 13.46 146.66 20.06 149.78 27.16 150.89 C 27.87 147.58 29.15 144.43 29.95 141.14 C 28.16 141.22 26.37 141.32 24.58 141.41 L 24.46 139.51 C 26.44 139.31 28.38 138.87 30.33 138.45 C 30.64 138.11 31.26 137.42 31.57 137.08 C 30.71 136.40 29.86 135.71 29.01 135.03 C 29.80 134.84 31.38 134.45 32.17 134.26 C 33.31 130.23 34.61 126.24 35.77 122.21 C 27.71 123.70 19.62 124.99 11.56 126.45 M 8.14 127.33 C 6.62 130.30 11.50 127.42 8.14 127.33 M 162.29 132.60 C 160.42 132.30 158.48 132.35 156.87 133.46 C 154.16 133.32 151.63 134.38 149.00 134.83 C 150.93 138.67 155.92 135.35 159.04 137.41 C 161.19 138.73 164.11 136.02 165.89 137.94 C 164.55 137.79 162.27 137.24 161.47 138.54 C 162.85 139.35 164.97 139.46 166.22 138.34 L 166.74 138.96 C 167.63 138.90 169.41 138.79 170.30 138.73 C 170.19 140.77 173.62 141.20 174.69 139.81 C 178.17 139.65 181.63 140.00 184.99 140.93 C 187.45 142.20 189.80 144.00 192.74 143.80 C 193.14 144.02 193.95 144.47 194.35 144.69 C 194.31 146.41 194.24 148.13 194.24 149.86 C 192.96 153.24 192.45 157.20 193.46 160.72 C 193.24 161.79 193.12 162.89 193.12 164.00 C 193.63 165.57 194.16 165.57 194.71 163.98 C 195.01 163.77 195.62 163.36 195.92 163.15 C 198.48 162.29 199.48 159.61 200.11 157.23 C 201.04 153.48 202.50 149.66 201.69 145.75 L 200.49 145.16 C 200.14 141.57 197.72 138.52 195.16 136.11 C 186.33 131.19 175.63 130.67 165.92 132.00 C 165.18 130.78 162.11 130.89 162.29 132.60 M 5.16 137.36 C 3.55 140.28 8.52 137.59 5.16 137.36 M 108.22 138.80 C 109.61 140.02 112.02 139.18 113.59 138.55 C 112.39 137.82 109.00 137.12 108.22 138.80 M 87.97 139.52 C 92.98 139.87 98.01 139.82 103.02 139.55 C 98.04 138.93 92.95 138.88 87.97 139.52 M 131.59 140.89 C 131.54 149.02 131.50 157.16 131.61 165.29 C 139.77 165.14 147.68 167.51 155.75 168.43 C 155.34 157.71 150.13 147.57 142.93 139.79 C 139.08 138.26 135.14 138.94 131.59 140.89 M 153.82 141.11 C 156.16 146.04 159.34 150.61 160.77 155.96 C 162.37 160.03 162.51 164.42 163.48 168.62 C 169.18 170.17 175.38 168.95 181.19 168.27 C 181.27 160.37 182.13 152.53 182.50 144.66 C 172.92 143.63 163.41 141.98 153.82 141.11 M 186.44 146.11 C 186.07 153.31 185.33 160.49 185.21 167.71 C 186.60 167.39 187.94 166.91 189.24 166.29 C 189.39 160.07 189.65 153.85 190.50 147.69 C 189.24 146.93 187.89 146.38 186.44 146.11 M 184.11 176.04 C 183.40 180.90 183.28 185.84 183.19 190.75 L 184.04 190.52 C 184.78 191.63 185.57 192.71 186.42 193.74 C 186.78 193.78 187.52 193.85 187.88 193.88 C 187.43 187.27 188.95 180.74 188.88 174.14 C 187.30 174.56 184.28 173.66 184.11 176.04 M 163.38 176.26 C 163.42 176.76 163.50 177.77 163.55 178.27 C 169.47 179.66 174.47 183.15 179.62 186.16 C 179.99 182.65 180.57 179.14 180.44 175.59 C 174.84 176.84 169.07 176.37 163.38 176.26 Z" />
<path fill="#000000" opacity="1.00" d=" M 51.48 58.45 C 52.08 58.29 53.30 57.96 53.91 57.80 C 59.66 57.82 65.41 57.71 71.16 57.82 C 73.12 58.00 74.04 59.31 73.41 61.25 C 70.72 62.26 67.79 61.44 65.01 61.84 C 65.35 64.16 67.74 65.61 67.64 68.07 C 68.19 71.32 66.80 74.61 64.05 76.45 C 66.51 76.98 69.04 76.77 71.54 76.64 C 71.61 77.17 71.76 78.23 71.83 78.76 C 64.90 78.33 57.77 79.45 50.97 78.08 C 51.72 77.66 53.22 76.84 53.98 76.42 C 52.14 74.39 50.16 72.03 50.47 69.08 C 50.28 66.19 52.66 64.19 53.83 61.79 C 51.52 62.62 50.01 60.18 51.48 58.45 Z" />
<path fill="#000000" opacity="1.00" d=" M 86.55 60.01 C 86.72 58.27 88.67 58.33 89.94 58.33 C 98.13 58.45 106.33 58.14 114.52 58.51 C 114.53 59.86 115.23 61.99 113.28 62.33 C 109.94 62.43 106.60 62.23 103.26 62.50 C 106.76 64.76 107.65 69.42 106.08 73.13 C 105.24 74.68 103.75 75.77 103.10 77.43 C 105.66 77.39 108.22 77.33 110.78 77.29 C 110.80 77.64 110.84 78.35 110.86 78.71 C 104.29 78.67 97.71 78.67 91.14 78.69 C 91.14 78.38 91.15 77.75 91.16 77.44 C 91.68 77.39 92.72 77.29 93.24 77.24 C 91.63 74.70 89.03 72.29 89.51 68.98 C 89.48 66.34 91.43 64.34 92.94 62.39 C 91.20 62.35 89.46 62.35 87.73 62.36 C 87.43 61.78 86.84 60.60 86.55 60.01 Z" />
<path fill="#000000" opacity="1.00" d=" M 69.15 100.97 C 76.95 93.04 86.10 85.82 96.96 82.74 C 102.22 81.91 108.07 81.51 112.88 84.21 C 119.02 87.48 123.54 93.42 125.37 100.10 C 123.78 105.80 117.22 107.49 112.02 107.66 C 103.03 107.93 93.91 108.10 85.05 106.32 C 82.96 105.41 81.23 103.76 79.00 103.10 C 75.92 101.78 72.55 102.51 69.50 103.51 C 69.41 102.88 69.24 101.61 69.15 100.97 M 110.26 105.35 C 113.67 104.56 117.40 104.50 120.41 102.53 C 121.57 102.06 122.03 100.92 121.66 99.75 C 117.14 96.82 111.85 101.10 110.26 105.35 Z" />
<path fill="#000000" opacity="1.00" d=" M 0.49 115.68 C 1.75 115.31 2.97 114.77 4.04 114.00 C 5.52 114.84 7.07 115.58 8.61 116.32 C 9.72 116.92 10.82 117.55 11.92 118.18 C 12.35 117.13 12.78 116.07 13.21 115.02 C 13.58 115.26 14.34 115.75 14.72 116.00 C 14.11 117.89 13.54 119.79 13.10 121.74 C 12.18 120.93 11.25 120.15 10.32 119.36 L 9.27 118.47 C 8.66 118.35 7.43 118.11 6.82 117.99 C 5.89 117.57 4.97 117.15 4.04 116.74 C 3.49 116.49 2.38 116.00 1.83 115.76 L 0.49 115.68 Z" />
</g>
<g id="#fefefeff">
<path fill="#fefefe" opacity="1.00" d=" M 82.70 32.85 C 96.35 29.69 111.32 31.74 123.04 39.65 C 140.84 50.74 150.04 73.80 144.66 94.09 C 139.52 116.10 117.61 132.97 94.96 131.85 C 80.14 132.32 65.74 124.87 56.44 113.53 C 43.94 98.74 41.60 76.45 50.32 59.25 C 56.61 46.58 68.49 36.75 82.21 33.21 L 82.70 32.85 M 51.48 58.45 C 50.01 60.18 51.52 62.62 53.83 61.79 C 52.66 64.19 50.28 66.19 50.47 69.08 C 50.16 72.03 52.14 74.39 53.98 76.42 C 53.22 76.84 51.72 77.66 50.97 78.08 C 57.77 79.45 64.90 78.33 71.83 78.76 C 71.76 78.23 71.61 77.17 71.54 76.64 C 69.04 76.77 66.51 76.98 64.05 76.45 C 66.80 74.61 68.19 71.32 67.64 68.07 C 67.74 65.61 65.35 64.16 65.01 61.84 C 67.79 61.44 70.72 62.26 73.41 61.25 C 74.04 59.31 73.12 58.00 71.16 57.82 C 65.41 57.71 59.66 57.82 53.91 57.80 C 53.30 57.96 52.08 58.29 51.48 58.45 M 86.55 60.01 C 86.84 60.60 87.43 61.78 87.73 62.36 C 89.46 62.35 91.20 62.35 92.94 62.39 C 91.43 64.34 89.48 66.34 89.51 68.98 C 89.03 72.29 91.63 74.70 93.24 77.24 C 92.72 77.29 91.68 77.39 91.16 77.44 C 91.15 77.75 91.14 78.38 91.14 78.69 C 97.71 78.67 104.29 78.67 110.86 78.71 C 110.84 78.35 110.80 77.64 110.78 77.29 C 108.22 77.33 105.66 77.39 103.10 77.43 C 103.75 75.77 105.24 74.68 106.08 73.13 C 107.65 69.42 106.76 64.76 103.26 62.50 C 106.60 62.23 109.94 62.43 113.28 62.33 C 115.23 61.99 114.53 59.86 114.52 58.51 C 106.33 58.14 98.13 58.45 89.94 58.33 C 88.67 58.33 86.72 58.27 86.55 60.01 M 69.15 100.97 C 69.24 101.61 69.41 102.88 69.50 103.51 C 72.55 102.51 75.92 101.78 79.00 103.10 C 81.23 103.76 82.96 105.41 85.05 106.32 C 93.91 108.10 103.03 107.93 112.02 107.66 C 117.22 107.49 123.78 105.80 125.37 100.10 C 123.54 93.42 119.02 87.48 112.88 84.21 C 108.07 81.51 102.22 81.91 96.96 82.74 C 86.10 85.82 76.95 93.04 69.15 100.97 Z" />
<path fill="#fefefe" opacity="1.00" d=" M 110.26 105.35 C 111.85 101.10 117.14 96.82 121.66 99.75 C 122.03 100.92 121.57 102.06 120.41 102.53 C 117.40 104.50 113.67 104.56 110.26 105.35 Z" />
<path fill="#fefefe" opacity="1.00" d=" M 15.84 112.72 C 16.77 111.55 17.72 110.41 18.68 109.27 C 24.49 111.26 30.41 112.92 36.24 114.85 C 36.36 116.59 36.47 118.34 36.56 120.08 C 28.50 121.35 20.44 122.66 12.45 124.30 L 12.57 122.02 C 11.90 122.17 11.35 122.51 10.93 123.02 C 9.54 125.83 5.70 126.53 5.98 130.28 C 5.95 130.40 5.88 130.64 5.85 130.76 C 5.75 130.12 5.55 128.86 5.45 128.22 C 5.84 127.38 6.23 126.54 6.63 125.70 C 9.43 125.42 11.50 121.90 10.32 119.36 C 11.25 120.15 12.18 120.93 13.10 121.74 C 13.54 119.79 14.11 117.89 14.72 116.00 C 15.09 114.90 15.45 113.80 15.84 112.72 Z" />
<path fill="#fefefe" opacity="1.00" d=" M 11.56 126.45 C 19.62 124.99 27.71 123.70 35.77 122.21 C 34.61 126.24 33.31 130.23 32.17 134.26 C 31.38 134.45 29.80 134.84 29.01 135.03 C 29.86 135.71 30.71 136.40 31.57 137.08 C 31.26 137.42 30.64 138.11 30.33 138.45 C 28.38 138.87 26.44 139.31 24.46 139.51 L 24.58 141.41 C 26.37 141.32 28.16 141.22 29.95 141.14 C 29.15 144.43 27.87 147.58 27.16 150.89 C 20.06 149.78 13.46 146.66 6.42 145.24 C 6.40 144.74 6.36 143.73 6.34 143.22 C 8.01 144.03 9.75 144.61 11.62 144.69 C 11.70 142.90 10.75 142.05 8.76 142.13 C 8.66 141.79 8.45 141.13 8.35 140.80 C 15.68 140.50 22.74 138.17 29.96 137.02 C 29.27 136.44 28.59 135.86 27.91 135.28 C 22.97 136.46 17.93 137.20 12.98 138.36 C 11.65 137.96 10.31 137.60 8.98 137.23 C 8.30 135.40 6.26 134.33 6.27 132.26 C 7.61 132.99 8.77 135.47 10.49 133.90 C 11.80 134.51 13.24 134.80 14.68 134.79 C 15.84 134.40 16.99 133.98 18.12 133.51 C 18.73 133.56 19.95 133.65 20.57 133.70 C 20.56 133.28 20.55 132.44 20.55 132.02 C 21.88 132.26 23.21 132.50 24.54 132.75 C 24.90 132.06 25.61 130.67 25.96 129.97 C 26.52 130.59 27.65 131.83 28.21 132.45 C 28.35 130.99 28.49 129.52 28.63 128.06 C 25.27 130.22 20.94 128.61 17.76 130.86 C 16.62 129.70 15.56 127.97 13.68 128.63 C 13.42 129.94 13.37 131.27 13.53 132.63 C 12.16 132.54 11.06 132.01 10.20 131.04 C 10.34 129.43 10.97 127.93 11.56 126.45 Z" />
<path fill="#fefefe" opacity="1.00" d=" M 131.59 140.89 C 135.14 138.94 139.08 138.26 142.93 139.79 C 150.13 147.57 155.34 157.71 155.75 168.43 C 147.68 167.51 139.77 165.14 131.61 165.29 C 131.50 157.16 131.54 149.02 131.59 140.89 Z" />
<path fill="#fefefe" opacity="1.00" d=" M 153.82 141.11 C 163.41 141.98 172.92 143.63 182.50 144.66 C 182.13 152.53 181.27 160.37 181.19 168.27 C 175.38 168.95 169.18 170.17 163.48 168.62 C 162.51 164.42 162.37 160.03 160.77 155.96 C 159.34 150.61 156.16 146.04 153.82 141.11 Z" />
<path fill="#fefefe" opacity="1.00" d=" M 186.44 146.11 C 187.89 146.38 189.24 146.93 190.50 147.69 C 189.65 153.85 189.39 160.07 189.24 166.29 C 187.94 166.91 186.60 167.39 185.21 167.71 C 185.33 160.49 186.07 153.31 186.44 146.11 Z" />
<path fill="#fefefe" opacity="1.00" d=" M 184.75 177.00 C 184.47 174.93 186.99 175.06 188.25 174.46 C 187.29 180.86 188.26 187.49 186.42 193.74 C 185.57 192.71 184.78 191.63 184.04 190.52 C 183.83 186.00 184.43 181.50 184.75 177.00 Z" />
<path fill="#fefefe" opacity="1.00" d=" M 163.38 176.26 C 169.07 176.37 174.84 176.84 180.44 175.59 C 180.57 179.14 179.99 182.65 179.62 186.16 C 174.47 183.15 169.47 179.66 163.55 178.27 C 163.50 177.77 163.42 176.76 163.38 176.26 Z" />
<path fill="#fefefe" opacity="1.00" d=" M 26.86 183.26 C 42.84 181.13 58.92 179.78 74.99 178.62 C 91.99 178.11 109.00 177.89 125.99 178.62 C 140.46 179.88 155.20 182.03 168.41 188.40 C 175.99 192.15 183.28 198.31 185.05 206.98 C 123.36 207.02 61.68 206.99 0.00 207.00 L 0.00 186.54 C 8.92 185.23 17.82 183.56 26.86 183.26 Z" />
</g>
</svg>
