<?xml version="1.0" encoding="UTF-8" ?>
<!DOCTYPE svg PUBLIC "-//W3C//DTD SVG 1.1//EN" "http://www.w3.org/Graphics/SVG/1.1/DTD/svg11.dtd">
<svg width="210pt" height="220pt" viewBox="0 0 210 220" version="1.1" xmlns="http://www.w3.org/2000/svg">
<g id="#010101ff">
<path fill="#010101" opacity="1.00" d=" M 108.83 16.84 C 111.37 15.71 112.84 13.27 114.21 10.97 C 114.69 12.43 116.17 13.84 115.40 15.47 C 113.89 21.70 109.83 26.79 107.23 32.53 C 112.71 32.33 118.09 33.50 123.35 34.89 C 123.88 36.31 124.71 37.66 124.78 39.21 C 121.06 42.45 115.52 40.14 111.24 42.25 C 110.38 42.46 109.53 42.67 108.68 42.88 C 112.09 45.83 118.04 46.92 119.08 51.85 C 117.80 52.71 116.55 53.61 115.28 54.46 C 114.70 52.70 112.34 52.99 111.93 54.68 L 111.40 55.57 L 110.64 55.40 C 110.01 55.28 108.75 55.03 108.12 54.90 C 106.85 55.55 105.61 56.25 104.35 56.89 L 104.34 56.90 C 99.04 58.27 91.52 59.77 90.27 66.08 L 90.04 67.06 C 85.71 69.31 80.59 67.25 76.13 69.23 C 75.75 69.52 75.01 70.11 74.64 70.41 C 74.30 70.68 73.62 71.22 73.27 71.48 L 72.49 71.06 C 70.90 69.55 68.87 70.69 67.18 71.35 C 64.75 72.44 62.25 73.56 60.26 75.37 C 57.76 78.31 56.47 82.04 55.55 85.73 C 54.64 89.45 52.58 92.83 52.24 96.68 C 52.10 99.73 52.63 102.81 52.10 105.84 C 51.37 107.71 50.51 109.56 50.21 111.57 C 50.41 112.07 50.81 113.07 51.02 113.57 C 51.53 115.40 51.28 117.33 51.37 119.20 C 51.99 126.09 57.17 133.22 64.40 134.08 L 65.25 134.24 C 65.16 134.61 64.99 135.36 64.91 135.73 C 64.60 136.17 63.98 137.05 63.67 137.49 C 63.63 137.52 63.57 137.59 63.53 137.63 L 62.78 138.38 C 61.67 138.31 60.55 138.26 59.44 138.25 C 59.41 140.35 59.33 142.46 59.28 144.57 C 58.94 149.15 61.25 153.38 61.15 157.93 C 61.13 161.72 60.80 165.57 61.82 169.27 C 62.47 173.15 65.17 176.30 68.65 178.00 L 68.82 178.11 C 71.32 179.94 74.29 180.79 77.36 181.06 C 71.26 184.50 64.05 183.69 57.37 184.50 C 54.68 187.46 52.70 190.98 50.02 193.95 C 47.97 195.47 45.75 196.86 44.52 199.20 C 43.98 199.16 42.89 199.06 42.34 199.02 C 45.59 192.68 44.85 185.08 41.30 179.03 C 37.40 173.19 34.86 166.66 31.31 160.63 C 27.94 153.85 28.51 146.09 28.78 138.77 C 29.82 133.38 30.86 127.97 30.99 122.47 C 28.95 123.19 26.99 124.11 25.02 125.02 C 20.14 126.55 14.82 127.71 9.98 125.35 C 10.11 123.82 11.65 123.40 12.74 122.69 C 14.61 121.70 15.99 120.00 17.07 118.21 C 20.62 113.41 18.49 107.32 19.68 101.90 C 20.74 96.52 21.97 91.15 22.32 85.65 C 22.60 83.01 22.57 80.34 22.60 77.68 C 17.62 74.84 10.55 79.23 6.83 73.83 C 12.91 74.03 18.23 69.82 21.46 64.99 C 21.65 63.31 21.74 61.37 23.37 60.40 C 26.86 57.83 28.74 53.60 32.44 51.28 C 33.71 50.58 35.01 49.60 35.16 48.04 L 35.31 47.45 C 38.82 44.73 42.95 43.03 46.80 40.87 C 51.30 40.61 55.81 40.94 60.32 40.72 C 61.12 37.48 62.03 34.26 62.68 30.98 C 65.76 27.61 70.59 25.94 72.13 21.26 C 74.42 22.73 75.09 25.14 74.65 27.74 C 78.70 25.93 82.34 23.09 86.94 23.00 C 93.74 19.30 102.07 20.69 108.83 16.84 Z" />
<path fill="#010101" opacity="1.00" d=" M 139.25 46.57 C 140.59 46.26 141.99 46.19 143.32 46.66 C 150.19 49.72 158.14 53.07 165.67 50.39 C 166.61 53.16 164.77 55.44 162.90 57.23 C 163.20 58.40 164.01 59.23 165.15 59.63 C 171.15 62.39 175.55 67.79 181.82 70.07 C 184.61 71.06 186.91 72.98 189.55 74.27 C 194.83 76.33 200.36 78.04 206.09 77.83 C 205.40 79.22 204.70 80.60 204.00 81.99 C 195.96 86.37 187.74 90.53 179.07 93.58 C 176.68 93.96 174.26 94.21 171.86 94.53 C 172.50 95.98 173.15 97.44 173.82 98.89 C 176.24 103.65 179.26 108.47 179.31 113.99 C 179.27 118.34 181.73 122.06 182.96 126.09 C 184.25 129.92 184.75 134.32 187.77 137.30 C 189.60 139.14 191.51 140.98 193.86 142.14 C 195.77 142.76 197.83 142.44 199.80 142.62 C 199.48 144.43 198.04 145.70 196.55 146.61 C 189.75 148.80 182.63 148.20 175.63 148.82 C 179.94 149.13 184.27 149.07 188.59 149.16 L 189.07 149.17 C 184.94 150.13 180.64 149.98 176.47 149.44 C 176.03 150.50 175.71 151.60 175.34 152.69 C 175.13 151.23 174.96 149.76 174.75 148.31 C 173.81 147.56 172.24 147.26 171.93 145.94 C 171.49 142.47 171.93 138.90 170.92 135.50 L 171.07 135.35 C 172.37 134.48 171.80 132.72 171.28 131.58 C 171.07 129.51 171.04 127.41 171.31 125.35 C 172.20 124.20 172.29 121.39 170.19 121.81 C 170.20 121.49 170.20 120.83 170.20 120.50 C 170.53 116.86 168.54 113.66 167.20 110.43 L 167.15 110.28 C 166.15 106.74 164.80 103.30 162.88 100.16 C 162.51 99.50 162.14 98.85 161.78 98.20 C 161.72 96.66 161.96 95.06 161.54 93.56 C 159.72 87.71 159.36 81.25 155.36 76.30 L 155.26 76.08 C 155.25 74.60 154.57 73.85 153.24 73.83 L 153.24 73.14 C 153.33 71.82 152.73 70.97 151.43 70.57 C 151.16 70.46 150.62 70.22 150.35 70.10 C 150.30 69.87 150.20 69.40 150.15 69.17 C 149.63 66.86 149.51 64.12 147.67 62.39 C 144.60 59.78 141.16 57.62 137.45 56.05 C 136.53 55.62 135.61 55.18 134.71 54.73 L 134.85 53.85 C 134.51 53.44 133.83 52.60 133.49 52.19 C 135.18 51.04 136.81 49.78 138.26 48.34 C 138.51 47.90 139.00 47.01 139.25 46.57 Z" />
<path fill="#010101" opacity="1.00" d=" M 169.03 158.82 C 170.34 157.44 171.71 156.13 173.09 154.83 C 173.10 155.70 173.13 157.43 173.14 158.30 C 172.86 159.67 172.36 160.99 171.95 162.33 C 171.42 162.47 170.36 162.75 169.84 162.90 C 168.55 169.16 166.24 175.07 163.40 180.79 L 163.35 180.25 C 162.63 177.40 164.40 174.87 164.73 172.13 C 164.84 171.65 165.06 170.69 165.17 170.21 C 166.04 168.15 166.63 165.98 167.09 163.80 L 167.23 163.27 C 167.44 162.79 167.86 161.82 168.07 161.34 C 168.08 160.39 168.40 159.55 169.03 158.82 Z" />
</g>
<g id="#d8198eff">
<path fill="#d8198e" opacity="1.00" d=" M 138.32 23.51 C 139.38 21.54 140.45 19.09 143.02 18.96 C 143.73 22.82 145.98 26.13 146.68 29.98 C 147.95 33.45 148.91 37.07 150.76 40.30 C 151.69 41.95 151.70 43.86 151.55 45.70 C 149.40 44.14 146.64 45.11 144.25 44.34 C 142.08 43.10 139.97 44.36 139.25 46.57 C 139.00 47.01 138.51 47.90 138.26 48.34 C 136.96 48.31 135.67 48.28 134.37 48.24 C 132.65 50.82 130.58 53.13 128.15 55.06 C 125.56 52.93 122.73 51.10 119.88 49.33 C 119.71 49.88 119.36 50.96 119.19 51.50 L 119.08 51.85 C 118.04 46.92 112.09 45.83 108.68 42.88 C 109.53 42.67 110.38 42.46 111.24 42.25 C 115.87 42.43 120.49 42.04 125.07 41.39 C 125.51 40.09 125.95 38.80 126.39 37.50 C 128.25 37.18 130.10 36.87 131.94 36.45 C 132.30 35.26 132.67 34.07 133.05 32.88 C 134.76 29.73 136.61 26.66 138.32 23.51 Z" />
<path fill="#d8198e" opacity="1.00" d=" M 169.86 143.47 C 170.04 140.80 169.25 137.84 170.92 135.50 C 170.35 138.58 170.24 141.73 170.76 144.83 C 170.53 144.49 170.09 143.81 169.86 143.47 Z" />
<path fill="#d8198e" opacity="1.00" d=" M 162.93 175.73 C 163.40 174.62 162.79 171.65 164.73 172.13 C 164.40 174.87 162.63 177.40 163.35 180.25 C 163.41 181.32 162.43 182.10 162.04 183.05 C 161.65 183.17 160.86 183.40 160.46 183.52 C 160.65 182.17 161.42 181.06 162.16 179.96 C 162.24 178.52 162.45 177.09 162.93 175.73 Z" />
</g>
<g id="#5e133ede">
<path fill="#5e133e" opacity="0.87" d=" M 125.08 36.68 C 128.19 36.63 131.79 36.22 133.05 32.88 C 132.67 34.07 132.30 35.26 131.94 36.45 C 130.10 36.87 128.25 37.18 126.39 37.50 C 125.95 38.80 125.51 40.09 125.07 41.39 C 120.49 42.04 115.87 42.43 111.24 42.25 C 115.52 40.14 121.06 42.45 124.78 39.21 C 124.71 37.66 123.88 36.31 123.35 34.89 C 123.78 35.34 124.65 36.23 125.08 36.68 Z" />
</g>
<g id="#a17190e2">
<path fill="#a17190" opacity="0.89" d=" M 139.25 46.57 C 139.97 44.36 142.08 43.10 144.25 44.34 C 144.02 44.92 143.55 46.08 143.32 46.66 C 141.99 46.19 140.59 46.26 139.25 46.57 Z" />
</g>
<g id="#151515c1">
<path fill="#151515" opacity="0.76" d=" M 32.44 51.28 C 31.67 49.87 33.64 47.41 35.16 48.04 C 35.01 49.60 33.71 50.58 32.44 51.28 Z" />
</g>
<g id="#b1357efa">
<path fill="#b1357e" opacity="0.98" d=" M 134.37 48.24 C 135.67 48.28 136.96 48.31 138.26 48.34 C 136.81 49.78 135.18 51.04 133.49 52.19 C 132.36 53.12 131.92 54.60 130.83 55.58 C 130.45 56.00 129.70 56.84 129.32 57.26 C 125.45 56.18 123.24 52.26 119.19 51.50 C 119.36 50.96 119.71 49.88 119.88 49.33 C 122.73 51.10 125.56 52.93 128.15 55.06 C 130.58 53.13 132.65 50.82 134.37 48.24 Z" />
</g>
<g id="#777675eb">
<path fill="#777675" opacity="0.92" d=" M 111.93 54.68 C 112.34 52.99 114.70 52.70 115.28 54.46 C 114.34 55.65 113.22 55.73 111.93 54.68 Z" />
</g>
<g id="#554a59e6">
<path fill="#554a59" opacity="0.90" d=" M 133.33 53.76 C 133.71 53.78 134.47 53.83 134.85 53.85 L 134.71 54.73 C 134.36 54.69 133.67 54.62 133.32 54.59 L 133.33 53.76 Z" />
</g>
<g id="#414141db">
<path fill="#414141" opacity="0.86" d=" M 104.35 56.89 C 105.61 56.25 106.85 55.55 108.12 54.90 C 108.75 55.03 110.01 55.28 110.64 55.40 C 108.50 55.87 106.49 59.27 104.35 56.89 Z" />
</g>
<g id="#69405da2">
<path fill="#69405d" opacity="0.64" d=" M 129.32 57.26 C 129.70 56.84 130.45 56.00 130.83 55.58 C 134.62 56.25 129.54 60.70 129.32 57.26 Z" />
</g>
<g id="#313030a9">
<path fill="#313030" opacity="0.66" d=" M 137.45 56.05 C 141.16 57.62 144.60 59.78 147.67 62.39 C 149.51 64.12 149.63 66.86 150.15 69.17 C 147.95 67.77 148.52 64.70 146.71 63.03 C 143.88 60.36 139.99 59.07 137.45 56.05 Z" />
</g>
<g id="#3333339f">
<path fill="#333333" opacity="0.62" d=" M 90.27 66.08 C 91.52 59.77 99.04 58.27 104.34 56.90 C 101.37 59.80 96.56 59.70 93.12 62.08 C 92.48 63.62 91.59 65.04 90.27 66.08 Z" />
</g>
<g id="#3e3e3eaa">
<path fill="#3e3e3e" opacity="0.67" d=" M 76.13 69.23 C 80.59 67.25 85.71 69.31 90.04 67.06 C 90.19 67.42 90.49 68.14 90.64 68.51 C 88.14 68.57 85.99 70.01 83.51 70.17 L 83.75 69.04 C 82.68 69.04 81.60 69.05 80.53 69.06 C 79.66 71.56 76.60 71.20 74.64 70.41 C 75.01 70.11 75.75 69.52 76.13 69.23 Z" />
</g>
<g id="#3030309d">
<path fill="#303030" opacity="0.62" d=" M 67.18 71.35 C 68.87 70.69 70.90 69.55 72.49 71.06 L 73.19 71.87 C 68.63 71.30 64.63 73.75 60.89 75.99 C 59.00 78.49 57.56 81.43 57.17 84.57 C 56.79 87.67 54.88 90.23 53.49 92.94 C 53.54 94.38 54.00 96.10 52.24 96.68 C 52.58 92.83 54.64 89.45 55.55 85.73 C 56.47 82.04 57.76 78.31 60.26 75.37 C 62.25 73.56 64.75 72.44 67.18 71.35 Z" />
</g>
<g id="#2f2f2f98">
<path fill="#2f2f2f" opacity="0.60" d=" M 151.43 70.57 C 152.73 70.97 153.33 71.82 153.24 73.14 C 151.41 73.31 150.81 72.45 151.43 70.57 Z" />
</g>
<g id="#35353596">
<path fill="#353535" opacity="0.59" d=" M 153.24 73.83 C 154.57 73.85 155.25 74.60 155.26 76.08 C 153.47 76.39 152.80 75.64 153.24 73.83 Z" />
</g>
<g id="#2b2b2b90">
<path fill="#2b2b2b" opacity="0.56" d=" M 155.36 76.30 C 159.36 81.25 159.72 87.71 161.54 93.56 C 160.49 92.28 159.45 91.00 158.41 89.71 L 159.12 89.88 C 158.96 88.48 158.82 87.09 158.78 85.68 C 158.56 82.21 155.42 79.80 155.36 76.30 Z" />
</g>
<g id="#2d2d2d4e">
<path fill="#2d2d2d" opacity="0.31" d=" M 154.25 85.43 C 155.87 84.90 156.41 85.46 155.89 87.10 C 154.27 87.63 153.72 87.07 154.25 85.43 Z" />
</g>
<g id="#10101086">
<path fill="#101010" opacity="0.53" d=" M 21.60 86.60 L 22.32 85.65 C 21.97 91.15 20.74 96.52 19.68 101.90 C 18.49 107.32 20.62 113.41 17.07 118.21 C 18.09 114.53 18.53 110.75 18.21 106.94 C 19.05 100.11 20.78 93.42 21.60 86.60 Z" />
</g>
<g id="#13131394">
<path fill="#131313" opacity="0.58" d=" M 171.86 94.53 C 174.26 94.21 176.68 93.96 179.07 93.58 C 177.19 94.53 175.12 95.00 173.07 95.40 C 173.24 96.58 173.49 97.74 173.82 98.89 C 173.15 97.44 172.50 95.98 171.86 94.53 Z" />
</g>
<g id="#353535bd">
<path fill="#353535" opacity="0.74" d=" M 167.15 110.28 C 165.29 107.23 162.20 103.96 162.88 100.16 C 164.80 103.30 166.15 106.74 167.15 110.28 Z" />
</g>
<g id="#323232ce">
<path fill="#323232" opacity="0.81" d=" M 50.21 111.57 C 50.51 109.56 51.37 107.71 52.10 105.84 C 52.57 107.44 52.60 109.09 51.46 110.42 C 51.35 111.21 51.13 112.78 51.02 113.57 C 50.81 113.07 50.41 112.07 50.21 111.57 Z" />
</g>
<g id="#1212122e">
<path fill="#121212" opacity="0.18" d=" M 56.13 108.15 C 57.76 107.65 58.30 108.22 57.75 109.85 C 56.12 110.34 55.58 109.77 56.13 108.15 Z" />
</g>
<g id="#404040d4">
<path fill="#404040" opacity="0.83" d=" M 167.20 110.43 C 168.54 113.66 170.53 116.86 170.20 120.50 C 168.81 119.59 169.04 117.81 168.60 116.42 C 168.03 114.42 166.13 112.63 167.20 110.43 Z" />
</g>
<g id="#393939ab">
<path fill="#393939" opacity="0.67" d=" M 51.37 119.20 L 52.26 119.18 C 52.20 123.28 55.26 126.31 57.59 129.33 C 59.31 131.61 62.09 132.57 64.40 134.08 C 57.17 133.22 51.99 126.09 51.37 119.20 Z" />
</g>
<g id="#3e3e3ee5">
<path fill="#3e3e3e" opacity="0.90" d=" M 170.19 121.81 C 172.29 121.39 172.20 124.20 171.31 125.35 C 169.59 124.63 169.22 123.45 170.19 121.81 Z" />
</g>
<g id="#0e0e0e70">
<path fill="#0e0e0e" opacity="0.44" d=" M 25.02 125.02 C 26.99 124.11 28.95 123.19 30.99 122.47 C 30.86 127.97 29.82 133.38 28.78 138.77 C 28.16 133.72 30.37 128.86 30.45 123.84 C 28.66 124.31 26.84 124.67 25.02 125.02 Z" />
</g>
<g id="#48484874">
<path fill="#484848" opacity="0.45" d=" M 86.23 123.07 C 86.73 123.58 86.73 123.58 86.23 123.07 Z" />
</g>
<g id="#454545e5">
<path fill="#454545" opacity="0.90" d=" M 171.07 135.35 C 169.00 135.23 169.31 131.63 171.28 131.58 C 171.80 132.72 172.37 134.48 171.07 135.35 Z" />
</g>
<g id="#3f3f3fb0">
<path fill="#3f3f3f" opacity="0.69" d=" M 65.25 134.24 C 67.35 132.26 67.01 137.28 64.91 135.73 C 64.99 135.36 65.16 134.61 65.25 134.24 Z" />
</g>
<g id="#2d2d2ddb">
<path fill="#2d2d2d" opacity="0.86" d=" M 170.92 135.50 C 171.93 138.90 171.49 142.47 171.93 145.94 C 172.24 147.26 173.81 147.56 174.75 148.31 C 174.96 149.76 175.13 151.23 175.34 152.69 L 175.41 153.22 C 173.43 154.09 173.73 156.57 173.14 158.30 C 173.13 157.43 173.10 155.70 173.09 154.83 C 171.71 156.13 170.34 157.44 169.03 158.82 C 170.06 156.05 171.88 153.71 173.25 151.12 C 172.23 149.11 171.09 147.09 170.76 144.83 C 170.24 141.73 170.35 138.58 170.92 135.50 Z" />
</g>
<g id="#313131a7">
<path fill="#313131" opacity="0.65" d=" M 63.53 137.63 C 63.57 137.59 63.63 137.52 63.67 137.49 C 63.63 137.52 63.57 137.59 63.53 137.63 Z" />
</g>
<g id="#383838bf">
<path fill="#383838" opacity="0.75" d=" M 59.28 144.57 C 61.42 145.43 60.59 147.73 60.43 149.43 C 60.78 149.85 61.46 150.68 61.81 151.09 C 61.68 152.95 61.56 154.82 61.71 156.69 C 62.13 160.87 62.01 165.08 61.82 169.27 C 60.80 165.57 61.13 161.72 61.15 157.93 C 61.25 153.38 58.94 149.15 59.28 144.57 Z" />
</g>
<g id="#111111b2">
<path fill="#111111" opacity="0.70" d=" M 175.63 148.82 C 182.63 148.20 189.75 148.80 196.55 146.61 C 194.01 147.78 191.29 148.46 188.59 149.16 C 184.27 149.07 179.94 149.13 175.63 148.82 Z" />
</g>
<g id="#717171b0">
<path fill="#717171" opacity="0.69" d=" M 80.34 154.23 C 82.06 154.26 81.30 157.01 79.93 157.05 C 78.11 157.01 78.96 154.29 80.34 154.23 Z" />
</g>
<g id="#4242429e">
<path fill="#424242" opacity="0.62" d=" M 61.71 156.69 L 62.97 156.72 C 62.88 161.19 63.08 165.68 62.53 170.13 C 64.21 173.04 66.96 175.11 68.65 178.00 C 65.17 176.30 62.47 173.15 61.82 169.27 C 62.01 165.08 62.13 160.87 61.71 156.69 Z" />
</g>
<g id="#464646a2">
<path fill="#464646" opacity="0.64" d=" M 167.17 161.51 L 168.07 161.34 C 167.86 161.82 167.44 162.79 167.23 163.27 L 166.73 162.49 L 167.17 161.51 Z" />
</g>
<g id="#383838a0">
<path fill="#383838" opacity="0.63" d=" M 164.79 171.14 C 164.40 168.44 165.61 165.95 167.09 163.80 C 166.63 165.98 166.04 168.15 165.17 170.21 L 164.79 171.14 Z" />
</g>
<g id="#464646b2">
<path fill="#464646" opacity="0.70" d=" M 68.82 178.11 C 69.50 178.31 70.87 178.72 71.55 178.93 C 74.04 179.23 76.80 178.75 79.04 180.11 C 78.60 183.41 73.77 182.31 71.90 184.69 C 70.48 184.57 69.06 184.43 67.65 184.26 C 67.22 184.61 66.38 185.31 65.95 185.66 C 62.22 184.88 58.59 186.38 55.75 188.74 C 53.97 190.66 53.10 193.84 50.02 193.95 C 52.70 190.98 54.68 187.46 57.37 184.50 C 64.05 183.69 71.26 184.50 77.36 181.06 C 74.29 180.79 71.32 179.94 68.82 178.11 Z" />
</g>
<g id="#5b5b5bac">
<path fill="#5b5b5b" opacity="0.67" d=" M 41.30 179.03 C 44.85 185.08 45.59 192.68 42.34 199.02 C 42.89 199.06 43.98 199.16 44.52 199.20 C 44.05 200.31 42.89 201.74 41.77 200.32 C 39.95 199.26 40.92 197.09 41.75 195.74 C 43.54 192.91 43.09 189.36 42.72 186.20 C 41.83 183.92 40.94 181.53 41.30 179.03 Z" />
</g>
</svg>
