<?xml version="1.0" encoding="UTF-8" ?>
<!DOCTYPE svg PUBLIC "-//W3C//DTD SVG 1.1//EN" "http://www.w3.org/Graphics/SVG/1.1/DTD/svg11.dtd">
<svg width="210pt" height="220pt" viewBox="0 0 210 220" version="1.1" xmlns="http://www.w3.org/2000/svg">
<g id="#000000ff">
<path fill="#000000" opacity="1.00" d=" M 99.72 4.10 C 114.71 1.62 130.61 4.52 143.68 12.33 C 148.47 15.07 153.60 17.47 157.47 21.52 C 162.23 26.38 166.36 32.13 168.27 38.74 C 169.80 43.74 170.24 49.00 170.60 54.20 C 170.62 60.27 168.71 66.54 171.10 72.41 C 172.89 72.72 174.68 73.04 176.47 73.41 C 177.42 77.73 177.30 82.13 177.01 86.51 C 177.44 91.68 178.23 96.83 178.11 102.04 C 177.99 106.03 179.15 110.08 178.12 114.03 C 176.47 121.25 174.87 128.53 174.48 135.94 C 174.27 140.94 172.41 146.16 168.43 149.38 C 163.76 152.09 158.26 152.58 152.98 152.83 C 150.59 153.12 147.69 153.11 146.15 155.29 C 145.90 157.44 148.35 158.28 149.86 159.17 C 154.01 160.75 158.48 161.65 162.93 161.79 C 172.62 160.80 182.06 163.84 191.49 165.58 C 197.76 166.78 201.00 172.92 203.14 178.32 C 204.95 183.48 207.06 188.63 207.72 194.09 C 208.14 202.74 207.93 211.48 206.23 220.00 L 173.37 220.00 C 175.47 209.93 173.54 199.77 172.34 189.73 C 171.16 183.62 169.55 177.54 167.12 171.80 C 165.77 168.72 163.92 165.31 160.47 164.28 C 155.02 162.64 149.42 161.08 144.77 157.67 C 142.63 161.67 140.25 165.56 138.35 169.70 C 136.56 173.31 137.27 177.45 137.00 181.33 C 136.33 176.09 136.87 170.65 138.84 165.73 C 140.82 161.55 143.39 157.66 145.11 153.35 C 139.58 149.37 132.81 147.87 127.05 144.28 C 135.95 146.74 144.55 151.27 154.00 150.81 C 159.51 150.67 166.20 150.71 169.91 145.89 C 174.66 140.05 172.15 132.00 174.20 125.25 C 176.10 118.67 176.20 111.78 177.18 105.04 C 177.81 98.81 176.36 92.61 175.31 86.50 C 171.01 89.13 166.58 91.84 161.37 91.98 C 159.93 89.76 158.50 87.53 157.05 85.32 C 154.00 86.16 150.78 87.18 148.76 89.78 C 146.43 92.23 145.99 96.04 143.16 98.06 C 137.07 102.57 129.30 103.47 122.03 104.52 C 119.88 102.20 118.33 99.11 115.36 97.71 C 110.07 95.16 104.21 94.25 98.48 93.25 C 98.62 101.86 98.69 110.47 98.72 119.08 C 98.58 121.01 99.49 122.79 100.62 124.30 C 103.59 128.31 107.34 131.63 110.75 135.25 C 106.39 131.91 102.79 127.75 98.83 123.98 C 98.48 130.43 99.41 136.84 99.63 143.28 C 100.79 154.88 100.50 166.64 102.79 178.11 C 106.03 178.85 109.36 179.83 111.79 182.23 C 114.84 185.22 118.76 187.00 122.67 188.59 C 126.14 190.10 130.03 189.68 133.66 190.54 C 129.14 190.60 124.54 190.02 120.29 188.43 C 114.66 185.89 109.79 181.89 104.00 179.69 C 104.91 189.42 108.16 199.03 113.63 207.16 C 105.09 198.53 96.94 189.06 92.78 177.46 C 93.13 177.53 93.85 177.67 94.20 177.74 C 96.92 184.91 100.78 191.82 106.62 196.93 C 104.60 186.95 100.44 177.34 100.34 167.04 C 99.60 153.01 98.15 139.04 97.67 125.00 C 97.82 100.86 95.96 76.55 99.77 52.59 C 100.57 47.07 102.76 41.90 104.14 36.52 C 112.54 38.26 120.62 41.45 129.25 42.04 C 140.03 42.87 150.07 47.16 160.66 48.97 C 158.99 45.88 157.00 43.00 155.13 40.04 C 157.62 43.52 159.85 47.29 163.32 49.92 C 162.76 47.22 161.98 44.59 161.34 41.92 C 164.55 49.15 164.21 57.78 169.05 64.29 C 170.43 52.37 169.16 39.70 162.73 29.32 C 155.32 18.38 143.06 12.21 131.01 7.72 C 121.18 4.94 110.81 3.92 100.66 5.32 C 92.84 5.10 86.27 9.75 79.13 12.17 C 85.12 7.76 92.12 4.14 99.72 4.10 M 104.69 36.90 C 98.99 54.08 98.32 72.37 98.45 90.31 C 104.54 91.61 110.70 92.94 116.96 92.65 C 117.81 92.13 119.51 91.09 120.36 90.57 C 118.44 90.21 116.86 88.98 114.97 88.54 C 117.77 86.38 120.31 83.45 123.97 82.84 C 127.72 82.28 131.65 83.04 135.28 81.70 C 135.56 82.72 135.88 83.73 136.24 84.73 C 134.59 84.73 132.95 84.72 131.31 84.68 C 131.37 85.68 131.44 86.68 131.49 87.68 C 127.13 89.72 121.42 88.63 118.12 92.64 C 119.08 96.10 119.19 100.76 122.99 102.45 C 130.79 101.48 139.32 100.27 145.45 94.91 C 146.12 92.84 145.61 90.60 145.61 88.46 C 145.85 88.83 146.32 89.55 146.56 89.91 C 149.40 86.96 152.92 84.38 157.19 84.32 C 158.17 86.54 159.38 88.64 160.79 90.60 C 165.83 90.25 170.73 88.40 174.69 85.24 C 174.55 84.59 174.28 83.28 174.14 82.63 L 174.46 81.92 C 175.26 84.41 177.27 80.57 174.80 81.17 C 175.68 79.06 174.53 76.74 174.38 74.57 C 173.88 74.33 172.88 73.86 172.38 73.62 C 172.99 75.79 173.46 78.01 173.63 80.26 C 172.27 77.68 170.92 75.09 169.76 72.40 C 168.20 73.63 166.87 75.12 165.29 76.33 C 162.35 78.08 158.86 78.49 155.50 78.43 C 156.27 74.69 159.25 72.09 161.98 69.69 C 163.59 69.32 165.26 69.37 166.91 69.41 C 166.47 67.72 165.98 66.04 165.36 64.41 C 162.14 67.52 159.39 71.17 155.56 73.61 C 153.86 74.50 153.74 76.59 153.01 78.16 C 152.96 76.01 151.95 73.38 153.60 71.61 C 157.07 67.79 160.64 63.61 165.95 62.49 C 165.54 58.66 164.66 54.73 162.50 51.49 C 158.11 48.80 152.75 48.59 147.95 46.98 C 138.69 43.76 128.77 43.56 119.26 41.47 C 114.39 40.01 109.66 38.06 104.69 36.90 M 160.34 74.54 C 158.88 74.66 158.63 77.38 160.29 77.38 C 161.87 77.34 161.90 74.61 160.34 74.54 M 119.03 88.22 C 120.13 88.36 122.33 88.63 123.42 88.76 C 123.93 87.52 124.43 86.29 124.89 85.03 C 122.75 85.71 120.78 86.81 119.03 88.22 M 183.75 166.16 C 185.36 169.84 187.26 173.39 188.61 177.19 C 190.47 182.24 191.49 187.56 193.51 192.56 C 195.59 199.45 198.83 205.90 201.49 212.58 C 202.31 214.76 203.54 216.75 205.08 218.50 C 206.29 209.80 207.50 200.93 206.06 192.19 C 203.74 184.64 202.12 176.34 196.74 170.27 C 193.52 166.50 188.31 166.30 183.75 166.16 Z" />
<path fill="#000000" opacity="1.00" d=" M 57.90 29.85 C 60.92 23.04 67.27 18.71 73.83 15.73 C 70.90 17.82 67.99 19.94 65.19 22.20 C 60.39 26.17 58.10 32.15 55.51 37.61 C 53.86 41.48 51.79 45.19 50.55 49.22 C 49.29 55.21 49.38 61.37 48.61 67.43 C 48.75 83.20 47.81 99.03 49.45 114.75 C 50.20 128.32 51.23 141.88 51.28 155.48 C 57.20 155.18 63.08 154.30 69.03 154.47 C 74.17 154.53 78.09 150.95 82.13 148.31 C 77.59 152.84 71.98 156.04 65.80 157.74 C 64.35 166.02 66.31 174.43 67.93 182.54 C 71.76 193.83 74.37 205.85 81.27 215.80 C 82.43 217.68 84.36 218.86 86.19 220.00 L 33.99 220.00 C 34.70 216.35 35.42 212.69 35.58 208.97 C 36.61 191.38 39.75 173.92 39.66 156.27 C 32.20 156.04 23.37 155.80 18.13 162.12 C 11.58 171.43 7.98 182.48 5.68 193.53 C 4.65 202.31 4.29 211.16 4.28 220.00 L 3.21 220.00 C 2.95 214.34 2.92 208.67 2.97 203.00 C 3.02 193.39 5.86 184.06 9.18 175.13 C 10.86 170.47 13.17 166.05 16.05 162.02 C 18.72 158.20 23.04 155.89 27.38 154.48 C 33.51 153.43 39.73 154.59 45.88 154.88 C 47.07 155.21 49.71 155.91 49.78 153.97 C 50.28 149.62 49.77 145.26 49.38 140.93 C 48.14 118.63 45.78 96.28 47.70 73.95 C 47.80 66.52 48.46 59.11 49.81 51.80 C 50.45 43.86 54.87 37.02 57.90 29.85 Z" />
<path fill="#000000" opacity="1.00" d=" M 141.87 77.77 C 142.67 76.92 143.48 76.09 144.30 75.27 C 143.51 76.57 142.89 78.05 141.69 79.04 C 134.82 80.53 127.79 79.04 120.94 78.22 C 118.23 77.82 116.14 79.80 113.90 80.92 C 116.47 78.00 120.02 76.01 123.99 75.99 C 129.93 75.85 136.66 73.94 141.87 77.77 Z" />
<path fill="#000000" opacity="1.00" d=" M 165.02 95.77 C 166.86 100.49 162.31 104.82 157.76 105.02 C 161.05 102.68 165.26 100.49 165.02 95.77 Z" />
<path fill="#000000" opacity="1.00" d=" M 148.06 123.12 C 154.73 119.71 161.87 117.25 168.91 114.73 C 168.78 117.76 168.88 120.85 168.13 123.82 C 166.86 127.03 163.05 127.50 160.19 128.51 C 159.35 128.78 157.67 129.34 156.83 129.62 C 157.32 130.23 158.30 131.46 158.79 132.08 C 154.09 129.73 149.18 127.81 144.10 126.43 C 145.42 125.33 146.67 124.13 148.06 123.12 M 152.77 122.19 C 157.25 123.19 162.04 121.12 165.08 117.84 C 161.00 119.33 156.59 120.06 152.77 122.19 M 155.90 127.10 C 160.00 128.01 164.38 126.46 167.30 123.53 C 163.32 123.31 159.51 125.56 155.90 127.10 Z" />
<path fill="#000000" opacity="1.00" d=" M 107.23 161.01 C 111.05 168.46 115.58 175.54 118.89 183.25 C 113.73 176.60 110.42 168.74 107.23 161.01 Z" />
<path fill="#000000" opacity="1.00" d=" M 153.96 182.15 C 156.45 179.71 157.73 176.05 161.13 174.58 C 158.53 177.97 156.08 181.89 152.03 183.70 C 148.69 185.20 145.29 186.54 141.83 187.69 C 145.69 185.44 150.23 184.64 153.96 182.15 Z" />
<path fill="#000000" opacity="1.00" d=" M 130.09 211.97 C 132.09 214.60 133.91 217.35 135.88 220.00 L 134.80 220.00 C 133.17 217.36 131.59 214.69 130.09 211.97 Z" />
</g>
<g id="#e6cd97ff">
<path fill="#e6cd97" opacity="1.00" d=" M 100.66 5.32 C 110.81 3.92 121.18 4.94 131.01 7.72 C 143.06 12.21 155.32 18.38 162.73 29.32 C 169.16 39.70 170.43 52.37 169.05 64.29 C 164.21 57.78 164.55 49.15 161.34 41.92 C 161.98 44.59 162.76 47.22 163.32 49.92 C 159.85 47.29 157.62 43.52 155.13 40.04 C 157.00 43.00 158.99 45.88 160.66 48.97 C 150.07 47.16 140.03 42.87 129.25 42.04 C 120.62 41.45 112.54 38.26 104.14 36.52 C 102.76 41.90 100.57 47.07 99.77 52.59 C 95.96 76.55 97.82 100.86 97.67 125.00 C 98.15 139.04 99.60 153.01 100.34 167.04 C 100.44 177.34 104.60 186.95 106.62 196.93 C 100.78 191.82 96.92 184.91 94.20 177.74 C 93.85 177.67 93.13 177.53 92.78 177.46 C 87.03 176.30 81.53 174.20 75.98 172.33 C 72.53 171.21 69.32 169.43 66.53 167.10 C 75.09 169.01 83.20 172.48 91.62 174.90 C 87.79 165.92 86.14 156.29 84.43 146.75 C 83.66 147.26 82.89 147.78 82.13 148.31 C 78.09 150.95 74.17 154.53 69.03 154.47 C 63.08 154.30 57.20 155.18 51.28 155.48 C 51.23 141.88 50.20 128.32 49.45 114.75 C 47.81 99.03 48.75 83.20 48.61 67.43 C 49.38 61.37 49.29 55.21 50.55 49.22 C 51.79 45.19 53.86 41.48 55.51 37.61 C 58.10 32.15 60.39 26.17 65.19 22.20 C 67.99 19.94 70.90 17.82 73.83 15.73 C 75.64 14.61 77.39 13.39 79.13 12.17 C 86.27 9.75 92.84 5.10 100.66 5.32 Z" />
<path fill="#e6cd97" opacity="1.00" d=" M 174.80 81.17 C 177.27 80.57 175.26 84.41 174.46 81.92 L 174.80 81.17 Z" />
<path fill="#e6cd97" opacity="1.00" d=" M 153.25 104.07 C 154.67 102.87 156.44 105.02 154.45 105.76 C 153.01 107.00 151.27 104.83 153.25 104.07 Z" />
<path fill="#e6cd97" opacity="1.00" d=" M 155.30 116.18 C 158.62 115.17 161.95 114.20 165.25 113.11 C 166.86 112.49 168.36 113.72 169.83 114.20 C 169.58 119.16 171.28 124.78 168.29 129.18 C 166.83 131.57 163.99 132.17 161.47 132.77 C 161.06 131.34 160.65 129.92 160.19 128.51 C 163.05 127.50 166.86 127.03 168.13 123.82 C 168.88 120.85 168.78 117.76 168.91 114.73 C 161.87 117.25 154.73 119.71 148.06 123.12 C 149.89 120.32 151.92 117.21 155.30 116.18 Z" />
<path fill="#e6cd97" opacity="1.00" d=" M 45.88 154.88 C 46.97 154.06 48.42 153.37 49.78 153.97 C 49.71 155.91 47.07 155.21 45.88 154.88 Z" />
</g>
<g id="#fefefeff">
<path fill="#fefefe" opacity="1.00" d=" M 104.69 36.90 C 109.66 38.06 114.39 40.01 119.26 41.47 C 128.77 43.56 138.69 43.76 147.95 46.98 C 152.75 48.59 158.11 48.80 162.50 51.49 C 164.66 54.73 165.54 58.66 165.95 62.49 C 160.64 63.61 157.07 67.79 153.60 71.61 C 151.95 73.38 152.96 76.01 153.01 78.16 C 153.74 76.59 153.86 74.50 155.56 73.61 C 159.39 71.17 162.14 67.52 165.36 64.41 C 165.98 66.04 166.47 67.72 166.91 69.41 C 165.26 69.37 163.59 69.32 161.98 69.69 C 159.25 72.09 156.27 74.69 155.50 78.43 C 158.86 78.49 162.35 78.08 165.29 76.33 C 166.87 75.12 168.20 73.63 169.76 72.40 C 170.92 75.09 172.27 77.68 173.63 80.26 C 173.76 80.86 174.01 82.04 174.14 82.63 C 174.28 83.28 174.55 84.59 174.69 85.24 C 170.73 88.40 165.83 90.25 160.79 90.60 C 159.38 88.64 158.17 86.54 157.19 84.32 C 152.92 84.38 149.40 86.96 146.56 89.91 C 146.32 89.55 145.85 88.83 145.61 88.46 C 145.61 90.60 146.12 92.84 145.45 94.91 C 139.32 100.27 130.79 101.48 122.99 102.45 C 119.19 100.76 119.08 96.10 118.12 92.64 C 121.42 88.63 127.13 89.72 131.49 87.68 C 131.44 86.68 131.37 85.68 131.31 84.68 C 132.95 84.72 134.59 84.73 136.24 84.73 C 135.88 83.73 135.56 82.72 135.28 81.70 C 131.65 83.04 127.72 82.28 123.97 82.84 C 120.31 83.45 117.77 86.38 114.97 88.54 C 116.86 88.98 118.44 90.21 120.36 90.57 C 119.51 91.09 117.81 92.13 116.96 92.65 C 110.70 92.94 104.54 91.61 98.45 90.31 C 98.32 72.37 98.99 54.08 104.69 36.90 M 141.87 77.77 C 136.66 73.94 129.93 75.85 123.99 75.99 C 120.02 76.01 116.47 78.00 113.90 80.92 C 116.14 79.80 118.23 77.82 120.94 78.22 C 127.79 79.04 134.82 80.53 141.69 79.04 C 142.89 78.05 143.51 76.57 144.30 75.27 C 143.48 76.09 142.67 76.92 141.87 77.77 Z" />
<path fill="#fefefe" opacity="1.00" d=" M 160.34 74.54 C 161.90 74.61 161.87 77.34 160.29 77.38 C 158.63 77.38 158.88 74.66 160.34 74.54 Z" />
<path fill="#fefefe" opacity="1.00" d=" M 119.03 88.22 C 120.78 86.81 122.75 85.71 124.89 85.03 C 124.43 86.29 123.93 87.52 123.42 88.76 C 122.33 88.63 120.13 88.36 119.03 88.22 Z" />
<path fill="#fefefe" opacity="1.00" d=" M 148.76 89.78 C 150.78 87.18 154.00 86.16 157.05 85.32 C 158.50 87.53 159.93 89.76 161.37 91.98 C 166.58 91.84 171.01 89.13 175.31 86.50 C 176.36 92.61 177.81 98.81 177.18 105.04 C 176.20 111.78 176.10 118.67 174.20 125.25 C 172.15 132.00 174.66 140.05 169.91 145.89 C 166.20 150.71 159.51 150.67 154.00 150.81 C 144.55 151.27 135.95 146.74 127.05 144.28 C 132.81 147.87 139.58 149.37 145.11 153.35 C 143.39 157.66 140.82 161.55 138.84 165.73 C 136.87 170.65 136.33 176.09 137.00 181.33 C 137.27 177.45 136.56 173.31 138.35 169.70 C 140.25 165.56 142.63 161.67 144.77 157.67 C 149.42 161.08 155.02 162.64 160.47 164.28 C 163.92 165.31 165.77 168.72 167.12 171.80 C 169.55 177.54 171.16 183.62 172.34 189.73 C 173.54 199.77 175.47 209.93 173.37 220.00 L 135.88 220.00 C 133.91 217.35 132.09 214.60 130.09 211.97 C 131.59 214.69 133.17 217.36 134.80 220.00 L 86.19 220.00 C 84.36 218.86 82.43 217.68 81.27 215.80 C 74.37 205.85 71.76 193.83 67.93 182.54 C 66.31 174.43 64.35 166.02 65.80 157.74 C 71.98 156.04 77.59 152.84 82.13 148.31 C 82.89 147.78 83.66 147.26 84.43 146.75 C 86.14 156.29 87.79 165.92 91.62 174.90 C 83.20 172.48 75.09 169.01 66.53 167.10 C 69.32 169.43 72.53 171.21 75.98 172.33 C 81.53 174.20 87.03 176.30 92.78 177.46 C 96.94 189.06 105.09 198.53 113.63 207.16 C 108.16 199.03 104.91 189.42 104.00 179.69 C 109.79 181.89 114.66 185.89 120.29 188.43 C 124.54 190.02 129.14 190.60 133.66 190.54 C 130.03 189.68 126.14 190.10 122.67 188.59 C 118.76 187.00 114.84 185.22 111.79 182.23 C 109.36 179.83 106.03 178.85 102.79 178.11 C 100.50 166.64 100.79 154.88 99.63 143.28 C 99.41 136.84 98.48 130.43 98.83 123.98 C 102.79 127.75 106.39 131.91 110.75 135.25 C 107.34 131.63 103.59 128.31 100.62 124.30 C 99.49 122.79 98.58 121.01 98.72 119.08 C 98.69 110.47 98.62 101.86 98.48 93.25 C 104.21 94.25 110.07 95.16 115.36 97.71 C 118.33 99.11 119.88 102.20 122.03 104.52 C 129.30 103.47 137.07 102.57 143.16 98.06 C 145.99 96.04 146.43 92.23 148.76 89.78 M 165.02 95.77 C 165.26 100.49 161.05 102.68 157.76 105.02 C 162.31 104.82 166.86 100.49 165.02 95.77 M 153.25 104.07 C 151.27 104.83 153.01 107.00 154.45 105.76 C 156.44 105.02 154.67 102.87 153.25 104.07 M 155.30 116.18 C 151.92 117.21 149.89 120.32 148.06 123.12 C 146.67 124.13 145.42 125.33 144.10 126.43 C 149.18 127.81 154.09 129.73 158.79 132.08 C 158.30 131.46 157.32 130.23 156.83 129.62 C 157.67 129.34 159.35 128.78 160.19 128.51 C 160.65 129.92 161.06 131.34 161.47 132.77 C 163.99 132.17 166.83 131.57 168.29 129.18 C 171.28 124.78 169.58 119.16 169.83 114.20 C 168.36 113.72 166.86 112.49 165.25 113.11 C 161.95 114.20 158.62 115.17 155.30 116.18 M 107.23 161.01 C 110.42 168.74 113.73 176.60 118.89 183.25 C 115.58 175.54 111.05 168.46 107.23 161.01 M 153.96 182.15 C 150.23 184.64 145.69 185.44 141.83 187.69 C 145.29 186.54 148.69 185.20 152.03 183.70 C 156.08 181.89 158.53 177.97 161.13 174.58 C 157.73 176.05 156.45 179.71 153.96 182.15 Z" />
<path fill="#fefefe" opacity="1.00" d=" M 152.77 122.19 C 156.59 120.06 161.00 119.33 165.08 117.84 C 162.04 121.12 157.25 123.19 152.77 122.19 Z" />
<path fill="#fefefe" opacity="1.00" d=" M 155.90 127.10 C 159.51 125.56 163.32 123.31 167.30 123.53 C 164.38 126.46 160.00 128.01 155.90 127.10 Z" />
<path fill="#fefefe" opacity="1.00" d=" M 18.13 162.12 C 23.37 155.80 32.20 156.04 39.66 156.27 C 39.75 173.92 36.61 191.38 35.58 208.97 C 35.42 212.69 34.70 216.35 33.99 220.00 L 4.28 220.00 C 4.29 211.16 4.65 202.31 5.68 193.53 C 7.98 182.48 11.58 171.43 18.13 162.12 Z" />
<path fill="#fefefe" opacity="1.00" d=" M 183.75 166.16 C 188.31 166.30 193.52 166.50 196.74 170.27 C 202.12 176.34 203.74 184.64 206.06 192.19 C 207.50 200.93 206.29 209.80 205.08 218.50 C 203.54 216.75 202.31 214.76 201.49 212.58 C 198.83 205.90 195.59 199.45 193.51 192.56 C 191.49 187.56 190.47 182.24 188.61 177.19 C 187.26 173.39 185.36 169.84 183.75 166.16 Z" />
</g>
</svg>
