<?xml version="1.0" encoding="UTF-8" ?>
<!DOCTYPE svg PUBLIC "-//W3C//DTD SVG 1.1//EN" "http://www.w3.org/Graphics/SVG/1.1/DTD/svg11.dtd">
<svg width="210pt" height="220pt" viewBox="0 0 210 220" version="1.1" xmlns="http://www.w3.org/2000/svg">
<g id="#040404fe">
<path fill="#040404" opacity="1.00" d=" M 64.96 26.98 C 67.79 26.67 70.63 26.35 73.34 25.45 C 73.93 26.07 74.51 26.69 75.09 27.32 C 77.06 27.10 79.02 26.67 81.01 26.66 C 85.91 27.93 90.20 30.75 94.42 33.46 C 96.28 32.10 97.69 29.76 100.18 29.54 C 105.24 28.79 110.07 30.79 115.00 31.48 C 121.16 36.41 128.33 39.76 134.81 44.23 C 137.43 46.29 139.85 48.60 142.75 50.28 C 144.14 47.33 146.27 43.58 150.16 45.20 C 150.02 49.85 151.50 54.36 151.29 59.01 C 154.15 62.37 157.41 65.33 160.62 68.34 C 164.12 72.82 169.18 75.67 172.94 79.90 C 175.44 82.80 179.19 83.89 182.25 86.00 C 183.55 87.02 185.09 87.83 186.79 87.67 C 186.57 87.14 186.12 86.10 185.90 85.57 C 186.74 85.11 187.59 84.65 188.43 84.19 C 188.67 83.49 189.13 82.10 189.36 81.41 C 189.77 82.88 190.11 84.38 190.43 85.88 C 189.90 86.48 188.83 87.67 188.30 88.26 C 189.65 88.70 191.01 89.12 192.38 89.54 C 188.30 90.68 186.78 94.75 184.90 98.10 C 183.24 101.27 180.06 103.17 177.34 105.32 C 178.13 114.20 180.28 123.03 179.25 131.99 C 178.44 136.46 178.58 141.22 176.43 145.35 C 174.49 148.81 173.30 152.61 171.65 156.22 C 170.87 155.89 169.29 155.23 168.51 154.91 C 167.56 157.20 166.47 159.45 165.80 161.84 C 165.21 164.29 166.32 166.66 166.94 168.99 C 167.81 169.91 168.67 170.86 169.53 171.81 C 170.42 171.36 171.32 170.91 172.21 170.47 C 172.53 171.06 173.16 172.24 173.47 172.84 C 174.32 172.86 176.01 172.90 176.86 172.93 C 176.19 174.03 175.52 175.14 174.84 176.23 C 169.05 175.07 164.26 178.73 159.51 181.39 C 158.83 181.38 157.47 181.36 156.79 181.35 C 156.40 184.21 155.30 186.89 154.15 189.51 C 150.01 189.94 145.86 190.60 141.69 190.24 C 140.96 187.89 140.59 185.46 140.47 183.01 C 142.41 181.19 144.29 179.29 146.39 177.64 L 146.61 177.47 L 146.67 177.20 C 148.32 169.47 152.03 162.02 157.60 156.37 C 157.05 154.91 156.51 153.45 155.99 151.98 C 155.68 150.20 155.48 148.40 155.32 146.61 C 155.07 146.21 154.58 145.40 154.33 144.99 C 154.27 136.71 154.56 128.42 154.35 120.15 C 152.14 118.01 151.03 115.17 150.85 112.14 C 150.51 110.35 150.28 108.54 150.10 106.74 C 149.85 106.30 149.36 105.42 149.11 104.98 C 149.15 104.19 149.25 102.60 149.29 101.81 C 148.33 99.78 147.30 97.79 146.38 95.75 C 145.50 93.30 146.02 90.10 143.69 88.38 C 141.59 87.09 139.05 87.72 136.77 87.94 C 136.63 87.41 136.37 86.34 136.23 85.80 C 130.56 86.09 124.30 84.73 120.12 80.67 C 118.25 79.07 116.10 77.84 114.02 76.54 C 113.34 76.33 111.99 75.90 111.31 75.69 C 110.90 75.36 110.09 74.70 109.68 74.37 C 105.18 74.22 100.70 74.44 96.22 74.74 C 96.63 74.49 97.45 73.98 97.86 73.73 C 98.31 73.65 99.19 73.50 99.63 73.43 C 96.42 72.82 93.32 71.79 90.21 70.78 C 88.20 69.80 85.91 70.27 83.76 70.25 C 82.08 69.18 80.42 68.07 78.82 66.88 C 76.60 66.94 74.32 67.31 72.13 66.82 C 69.58 66.01 67.93 63.78 65.93 62.14 C 60.91 66.60 57.16 72.18 52.72 77.16 C 49.79 80.63 49.04 85.29 46.35 88.91 C 44.81 91.02 44.12 93.55 44.01 96.14 C 43.57 96.26 42.68 96.52 42.24 96.64 C 41.39 98.91 40.52 101.20 39.21 103.25 C 38.78 104.83 38.37 106.42 37.86 107.98 C 37.76 110.39 37.75 112.80 37.55 115.20 C 37.03 120.30 36.68 125.53 37.72 130.59 C 38.87 138.97 41.27 147.06 44.54 154.84 C 47.30 157.86 50.30 161.01 51.06 165.18 C 51.73 168.49 54.62 170.79 57.56 172.10 C 57.53 172.45 57.46 173.15 57.43 173.51 C 55.38 173.95 53.31 174.35 51.21 174.53 C 49.79 174.55 48.27 174.79 46.99 173.99 C 42.99 171.78 37.89 173.53 34.08 170.85 C 31.56 169.18 29.22 167.19 26.35 166.13 C 25.63 165.11 24.94 164.06 24.26 163.01 C 20.67 162.86 20.62 158.55 19.95 155.92 C 19.26 155.05 18.57 154.19 17.88 153.32 C 19.38 150.03 18.01 146.42 18.23 142.97 C 17.90 138.34 19.73 133.98 20.99 129.62 C 20.29 129.36 18.90 128.86 18.20 128.61 C 19.41 126.51 19.08 123.71 21.07 122.07 C 24.60 118.76 26.77 114.29 28.11 109.70 C 29.22 104.14 27.69 98.61 27.11 93.10 C 26.24 92.36 25.37 91.63 24.50 90.89 C 24.66 87.53 24.56 84.16 24.52 80.80 C 25.26 80.17 25.99 79.54 26.73 78.91 C 26.64 78.21 26.47 76.81 26.39 76.11 C 29.70 71.30 33.48 66.80 36.55 61.83 C 38.23 57.87 42.07 55.56 44.40 52.05 C 42.65 51.80 40.79 51.77 39.33 50.64 C 42.35 47.86 44.90 44.61 48.06 41.97 C 53.53 37.56 60.15 34.90 65.71 30.61 C 66.51 30.48 68.12 30.24 68.93 30.12 C 67.62 29.05 66.29 28.02 64.96 26.98 M 62.48 36.54 C 56.08 40.05 50.66 45.01 45.33 49.93 C 46.13 50.08 47.73 50.38 48.53 50.53 C 45.39 55.93 39.86 59.34 36.73 64.73 C 32.99 70.82 28.60 76.80 27.32 84.00 C 27.14 85.73 27.78 87.39 28.15 89.05 C 29.95 95.60 29.62 102.47 30.03 109.20 C 28.78 114.69 27.20 120.18 24.26 125.04 C 24.60 125.50 25.29 126.44 25.64 126.90 C 23.82 132.65 19.61 137.79 19.78 144.03 C 20.70 149.40 22.83 154.50 24.94 159.50 C 25.43 158.96 26.41 157.87 26.91 157.32 C 27.33 157.27 28.19 157.17 28.62 157.12 C 27.45 162.28 31.59 166.96 36.26 168.50 C 41.51 170.14 46.73 172.23 52.26 172.61 C 49.26 167.60 47.74 161.69 43.58 157.43 C 37.75 149.66 37.79 139.55 35.60 130.47 C 34.89 122.97 35.27 115.41 36.27 107.95 C 36.16 103.29 38.79 99.18 39.07 94.58 C 39.61 94.51 40.69 94.36 41.22 94.29 C 43.28 90.78 45.65 87.18 45.52 82.93 C 49.21 76.11 53.57 69.52 59.56 64.49 C 63.91 61.13 66.88 56.11 72.29 54.22 C 79.16 49.62 87.17 47.48 95.13 45.66 C 104.84 44.75 114.91 46.65 123.26 51.80 C 126.08 53.98 128.77 56.32 131.45 58.66 C 133.31 58.63 135.17 58.59 137.03 58.57 C 138.12 56.46 139.33 54.41 140.70 52.46 C 134.82 47.53 128.71 42.80 122.02 38.99 C 117.88 36.38 113.76 33.51 108.92 32.35 C 105.13 31.34 100.29 30.29 97.35 33.66 C 97.90 34.96 98.44 36.26 98.98 37.56 C 99.54 37.68 100.66 37.92 101.22 38.04 C 99.97 38.19 98.72 38.34 97.48 38.49 C 92.35 35.67 88.30 30.13 82.01 30.14 C 81.53 29.69 80.57 28.79 80.09 28.33 C 73.19 28.21 68.09 33.34 62.48 36.54 M 85.11 50.42 C 78.56 52.35 73.32 56.92 67.53 60.32 C 72.09 66.01 80.04 63.65 85.86 67.00 C 90.88 68.10 95.24 71.08 100.29 72.08 C 102.49 72.76 104.79 72.70 107.05 72.46 C 112.15 71.91 117.24 74.82 122.21 72.63 C 122.58 73.29 123.32 74.62 123.70 75.29 C 121.39 75.35 119.09 75.39 116.79 75.44 C 120.71 77.86 124.19 81.11 128.68 82.48 C 133.54 84.56 138.91 83.97 144.04 84.39 C 142.16 78.56 139.00 73.20 134.93 68.64 C 133.64 71.31 132.50 74.07 131.76 76.95 C 128.64 75.29 128.21 71.46 126.16 68.87 C 123.55 65.61 119.75 63.32 118.03 59.37 C 122.31 60.18 126.27 62.17 130.65 62.64 C 130.53 62.22 130.31 61.38 130.20 60.96 C 126.62 57.47 122.91 53.95 118.37 51.72 C 113.31 49.13 107.66 47.95 102.05 47.44 C 96.24 46.97 90.61 48.83 85.11 50.42 M 152.43 64.15 C 152.34 65.92 152.27 67.69 152.19 69.47 C 147.66 68.66 143.31 67.09 138.77 66.34 C 138.45 66.74 137.81 67.53 137.49 67.93 C 141.32 72.26 143.75 77.50 145.97 82.78 C 146.92 82.71 148.83 82.58 149.79 82.51 C 149.30 84.40 148.74 86.27 148.23 88.16 C 148.81 88.53 149.97 89.26 150.55 89.62 C 148.75 93.45 150.87 97.49 152.08 101.14 C 151.22 104.79 152.68 108.42 153.24 112.01 C 153.99 117.66 159.03 122.76 164.93 122.55 C 164.89 123.17 164.81 124.41 164.76 125.03 C 162.38 124.46 160.01 123.86 157.63 123.28 C 155.11 134.98 157.99 146.83 159.69 158.43 C 157.72 160.30 155.42 162.10 154.80 164.89 C 154.38 166.68 153.08 167.99 151.81 169.24 C 151.33 170.45 150.86 171.66 150.40 172.88 C 152.24 175.37 152.83 180.66 157.02 179.67 C 161.12 178.52 164.57 175.83 167.95 173.34 C 165.81 171.02 162.54 168.64 163.31 165.04 C 163.57 157.74 168.06 151.38 167.87 144.03 C 168.82 144.78 169.74 145.56 170.63 146.39 C 170.74 148.05 170.51 149.72 170.47 151.38 C 176.82 143.84 177.61 133.45 177.51 124.00 C 176.96 119.37 176.66 114.71 176.07 110.09 C 175.91 106.55 173.00 104.20 171.88 101.01 C 173.63 101.77 175.32 102.63 177.01 103.51 C 180.67 99.67 183.94 95.36 185.72 90.31 C 182.39 88.73 178.62 87.71 176.01 84.96 C 173.69 82.64 171.33 80.35 168.60 78.52 C 162.52 74.53 158.33 68.36 152.43 64.15 M 148.87 178.49 C 146.65 181.12 144.19 183.61 142.76 186.79 C 143.47 187.75 144.19 188.72 144.89 189.69 C 147.10 189.41 149.31 189.17 151.53 188.96 C 152.41 186.54 153.63 184.26 154.81 181.98 C 152.60 181.73 151.34 180.11 150.34 178.33 C 149.97 178.37 149.24 178.45 148.87 178.49 Z" />
<path fill="#040404" opacity="1.00" d=" M 43.56 160.17 C 46.91 160.50 41.87 163.07 43.56 160.17 Z" />
</g>
<g id="#d19914ff">
<path fill="#d19914" opacity="1.00" d=" M 62.48 36.54 C 68.09 33.34 73.19 28.21 80.09 28.33 C 80.57 28.79 81.53 29.69 82.01 30.14 C 88.30 30.13 92.35 35.67 97.48 38.49 C 98.72 38.34 99.97 38.19 101.22 38.04 C 100.66 37.92 99.54 37.68 98.98 37.56 C 98.44 36.26 97.90 34.96 97.35 33.66 C 100.29 30.29 105.13 31.34 108.92 32.35 C 113.76 33.51 117.88 36.38 122.02 38.99 C 128.71 42.80 134.82 47.53 140.70 52.46 C 139.33 54.41 138.12 56.46 137.03 58.57 C 135.17 58.59 133.31 58.63 131.45 58.66 C 128.77 56.32 126.08 53.98 123.26 51.80 C 114.91 46.65 104.84 44.75 95.13 45.66 C 87.17 47.48 79.16 49.62 72.29 54.22 C 66.88 56.11 63.91 61.13 59.56 64.49 C 53.57 69.52 49.21 76.11 45.52 82.93 C 45.65 87.18 43.28 90.78 41.22 94.29 C 40.69 94.36 39.61 94.51 39.07 94.58 C 38.79 99.18 36.16 103.29 36.27 107.95 C 35.27 115.41 34.89 122.97 35.60 130.47 C 37.79 139.55 37.75 149.66 43.58 157.43 C 47.74 161.69 49.26 167.60 52.26 172.61 C 46.73 172.23 41.51 170.14 36.26 168.50 C 31.59 166.96 27.45 162.28 28.62 157.12 C 28.19 157.17 27.33 157.27 26.91 157.32 C 26.41 157.87 25.43 158.96 24.94 159.50 C 22.83 154.50 20.70 149.40 19.78 144.03 C 19.61 137.79 23.82 132.65 25.64 126.90 C 25.29 126.44 24.60 125.50 24.26 125.04 C 27.20 120.18 28.78 114.69 30.03 109.20 C 29.62 102.47 29.95 95.60 28.15 89.05 C 27.78 87.39 27.14 85.73 27.32 84.00 C 28.60 76.80 32.99 70.82 36.73 64.73 C 39.86 59.34 45.39 55.93 48.53 50.53 C 47.73 50.38 46.13 50.08 45.33 49.93 C 50.66 45.01 56.08 40.05 62.48 36.54 M 43.56 160.17 C 41.87 163.07 46.91 160.50 43.56 160.17 Z" />
<path fill="#d19914" opacity="1.00" d=" M 85.11 50.42 C 90.61 48.83 96.24 46.97 102.05 47.44 C 107.66 47.95 113.31 49.13 118.37 51.72 C 122.91 53.95 126.62 57.47 130.20 60.96 C 130.31 61.38 130.53 62.22 130.65 62.64 C 126.27 62.17 122.31 60.18 118.03 59.37 C 119.75 63.32 123.55 65.61 126.16 68.87 C 128.21 71.46 128.64 75.29 131.76 76.95 C 132.50 74.07 133.64 71.31 134.93 68.64 C 139.00 73.20 142.16 78.56 144.04 84.39 C 138.91 83.97 133.54 84.56 128.68 82.48 C 124.19 81.11 120.71 77.86 116.79 75.44 C 119.09 75.39 121.39 75.35 123.70 75.29 C 123.32 74.62 122.58 73.29 122.21 72.63 C 117.24 74.82 112.15 71.91 107.05 72.46 C 104.79 72.70 102.49 72.76 100.29 72.08 C 95.24 71.08 90.88 68.10 85.86 67.00 C 80.04 63.65 72.09 66.01 67.53 60.32 C 73.32 56.92 78.56 52.35 85.11 50.42 Z" />
<path fill="#d19914" opacity="1.00" d=" M 152.43 64.15 C 158.33 68.36 162.52 74.53 168.60 78.52 C 171.33 80.35 173.69 82.64 176.01 84.96 C 178.62 87.71 182.39 88.73 185.72 90.31 C 183.94 95.36 180.67 99.67 177.01 103.51 C 175.32 102.63 173.63 101.77 171.88 101.01 C 173.00 104.20 175.91 106.55 176.07 110.09 C 176.66 114.71 176.96 119.37 177.51 124.00 C 177.61 133.45 176.82 143.84 170.47 151.38 C 170.51 149.72 170.74 148.05 170.63 146.39 C 169.74 145.56 168.82 144.78 167.87 144.03 C 168.06 151.38 163.57 157.74 163.31 165.04 C 162.54 168.64 165.81 171.02 167.95 173.34 C 164.57 175.83 161.12 178.52 157.02 179.67 C 152.83 180.66 152.24 175.37 150.40 172.88 C 150.86 171.66 151.33 170.45 151.81 169.24 C 153.08 167.99 154.38 166.68 154.80 164.89 C 155.42 162.10 157.72 160.30 159.69 158.43 C 157.99 146.83 155.11 134.98 157.63 123.28 C 160.01 123.86 162.38 124.46 164.76 125.03 C 164.81 124.41 164.89 123.17 164.93 122.55 C 159.03 122.76 153.99 117.66 153.24 112.01 C 152.68 108.42 151.22 104.79 152.08 101.14 C 150.87 97.49 148.75 93.45 150.55 89.62 C 149.97 89.26 148.81 88.53 148.23 88.16 C 148.74 86.27 149.30 84.40 149.79 82.51 C 148.83 82.58 146.92 82.71 145.97 82.78 C 143.75 77.50 141.32 72.26 137.49 67.93 C 137.81 67.53 138.45 66.74 138.77 66.34 C 143.31 67.09 147.66 68.66 152.19 69.47 C 152.27 67.69 152.34 65.92 152.43 64.15 Z" />
<path fill="#d19914" opacity="1.00" d=" M 87.12 70.56 C 87.89 70.62 89.44 70.73 90.21 70.78 C 93.32 71.79 96.42 72.82 99.63 73.43 C 99.19 73.50 98.31 73.65 97.86 73.73 C 97.45 73.98 96.63 74.49 96.22 74.74 L 95.74 75.07 C 94.19 74.52 92.98 73.41 91.71 72.43 L 91.66 73.44 C 90.92 73.41 89.44 73.34 88.70 73.31 C 88.30 72.62 87.51 71.25 87.12 70.56 Z" />
<path fill="#d19914" opacity="1.00" d=" M 109.68 74.37 C 110.09 74.70 110.90 75.36 111.31 75.69 C 111.99 75.90 113.34 76.33 114.02 76.54 C 116.10 77.84 118.25 79.07 120.12 80.67 C 118.84 80.62 117.57 80.56 116.29 80.48 C 115.08 78.28 113.11 76.52 110.46 76.59 C 110.26 76.03 109.87 74.92 109.68 74.37 Z" />
<path fill="#d19914" opacity="1.00" d=" M 182.25 86.00 C 183.37 85.07 184.59 84.93 185.90 85.57 C 186.12 86.10 186.57 87.14 186.79 87.67 C 185.09 87.83 183.55 87.02 182.25 86.00 Z" />
<path fill="#d19914" opacity="1.00" d=" M 37.72 130.59 C 36.68 125.53 37.03 120.30 37.55 115.20 C 37.94 120.32 37.66 125.46 37.72 130.59 Z" />
<path fill="#d19914" opacity="1.00" d=" M 146.39 177.64 C 146.46 177.53 146.60 177.31 146.67 177.20 L 146.61 177.47 L 146.39 177.64 Z" />
<path fill="#d19914" opacity="1.00" d=" M 148.87 178.49 C 149.24 178.45 149.97 178.37 150.34 178.33 C 151.34 180.11 152.60 181.73 154.81 181.98 C 153.63 184.26 152.41 186.54 151.53 188.96 C 149.31 189.17 147.10 189.41 144.89 189.69 C 144.19 188.72 143.47 187.75 142.76 186.79 C 144.19 183.61 146.65 181.12 148.87 178.49 Z" />
</g>
</svg>
