<?xml version="1.0" encoding="UTF-8" ?>
<!DOCTYPE svg PUBLIC "-//W3C//DTD SVG 1.1//EN" "http://www.w3.org/Graphics/SVG/1.1/DTD/svg11.dtd">
<svg width="210pt" height="220pt" viewBox="0 0 210 220" version="1.1" xmlns="http://www.w3.org/2000/svg">
<g id="#000000ff">
<path fill="#000000" opacity="1.00" d=" M 86.82 12.79 C 96.95 8.04 107.65 3.63 119.00 3.28 C 126.84 3.14 134.91 2.89 142.41 5.52 C 146.48 7.40 150.09 10.14 154.22 11.92 C 157.82 13.43 160.68 16.10 163.38 18.84 C 161.06 18.12 159.44 16.14 157.28 15.11 C 151.78 12.38 147.35 7.38 141.08 6.42 C 127.90 3.33 113.73 4.00 101.09 8.96 C 94.16 11.22 87.26 14.01 81.47 18.52 C 76.95 21.98 73.72 26.74 70.23 31.17 C 66.77 35.69 62.59 39.57 58.91 43.91 C 55.97 47.09 53.12 50.81 48.83 52.18 C 47.48 52.67 46.14 53.21 44.83 53.79 C 48.33 56.02 51.87 58.27 55.80 59.69 C 55.69 60.10 55.48 60.90 55.38 61.30 C 53.91 61.39 52.43 61.48 50.96 61.59 C 51.99 64.12 55.12 63.95 57.31 64.75 C 56.65 71.89 57.09 79.78 52.16 85.62 C 53.94 85.54 55.73 85.47 57.51 85.39 C 57.64 92.65 58.01 100.20 61.15 106.89 C 62.71 110.75 64.36 114.59 65.47 118.60 C 66.37 122.18 65.57 126.08 62.93 128.74 C 62.63 128.77 62.02 128.84 61.72 128.87 C 62.77 125.96 65.30 123.21 64.26 119.91 C 62.60 113.07 58.80 106.95 57.28 100.06 C 56.16 96.03 56.32 91.82 56.37 87.68 C 53.44 87.21 50.53 86.70 47.60 86.22 C 55.35 83.19 55.50 73.69 55.65 66.68 C 51.42 64.49 47.41 61.86 42.78 60.55 C 45.60 60.40 48.42 60.35 51.24 60.29 C 48.13 57.33 44.59 54.87 41.52 51.87 C 44.95 51.37 48.73 51.03 51.46 48.63 C 56.67 44.09 60.81 38.51 65.72 33.68 C 72.11 26.15 77.58 17.19 86.82 12.79 Z" />
<path fill="#000000" opacity="1.00" d=" M 105.01 29.05 C 114.70 23.39 125.87 20.64 136.99 19.75 C 139.91 19.56 142.81 20.30 145.52 21.34 C 148.81 22.88 150.94 25.98 153.13 28.75 C 155.27 31.62 158.27 33.75 160.11 36.86 C 164.97 45.00 168.90 53.71 171.09 62.96 C 171.80 66.83 174.36 69.97 175.40 73.72 C 177.73 81.74 180.50 89.70 181.34 98.06 C 181.76 101.93 180.98 106.06 182.92 109.64 C 185.53 103.92 184.43 97.57 184.37 91.51 C 186.78 93.44 187.02 96.69 187.98 99.42 C 188.30 99.10 188.93 98.45 189.24 98.13 C 189.80 93.09 188.86 88.04 188.20 83.05 C 187.39 77.36 184.10 72.53 182.12 67.23 C 183.78 68.85 185.45 70.46 187.18 72.01 C 184.36 64.74 181.37 57.54 179.09 50.08 C 175.78 39.26 170.10 29.08 162.52 20.68 L 164.08 20.60 C 168.73 25.55 172.34 31.42 175.71 37.29 C 182.33 50.99 184.47 66.81 193.98 79.09 C 191.72 77.78 189.58 76.27 187.43 74.79 C 189.09 79.36 190.28 84.10 190.80 88.94 C 192.04 95.73 189.79 102.44 188.65 109.08 C 188.20 106.42 187.55 103.78 187.29 101.09 C 187.20 100.65 187.00 99.79 186.91 99.35 C 186.82 99.89 186.64 100.96 186.54 101.50 C 185.86 105.72 184.20 109.71 183.58 113.94 C 183.56 116.95 184.81 119.75 185.64 122.60 C 185.19 122.51 184.29 122.33 183.85 122.24 C 182.68 119.05 181.81 115.77 180.62 112.60 C 178.23 121.46 176.77 130.62 176.28 139.78 L 175.36 139.60 C 175.29 133.89 175.19 128.14 176.68 122.57 L 177.50 122.45 C 177.47 121.09 177.44 119.72 177.42 118.36 C 177.67 118.41 178.16 118.52 178.40 118.58 C 177.79 111.66 179.93 104.88 179.43 97.97 C 178.96 89.10 176.92 80.25 172.84 72.32 C 171.88 70.35 171.09 68.31 170.29 66.28 C 169.88 64.87 169.49 63.46 169.11 62.05 C 166.56 63.05 164.61 65.00 163.06 67.21 C 161.99 66.49 160.91 65.76 159.84 65.04 C 162.33 62.63 165.54 61.22 168.80 60.18 C 166.97 51.03 162.30 42.70 156.53 35.46 C 154.67 33.36 152.32 31.79 150.05 30.17 C 146.28 37.60 139.23 42.59 133.53 48.47 C 128.77 52.65 125.28 58.65 119.09 60.91 C 115.83 62.23 112.39 63.01 109.01 63.99 C 107.29 64.36 105.53 64.52 103.78 64.63 C 110.08 62.34 116.74 60.88 122.73 57.83 C 129.91 52.02 135.72 44.75 142.54 38.54 C 146.06 35.38 148.05 31.03 150.67 27.18 C 142.55 21.76 132.20 22.76 123.13 24.68 C 114.73 26.93 106.31 30.78 100.52 37.47 C 96.77 41.76 93.28 46.43 91.50 51.90 C 91.96 53.08 92.41 54.27 92.85 55.45 C 95.38 55.21 98.08 54.98 100.11 53.26 C 105.00 49.39 110.63 46.65 115.77 43.14 C 112.80 45.39 109.99 47.85 106.95 50.01 C 105.35 51.20 103.52 52.30 102.82 54.28 C 106.04 54.09 109.21 53.43 112.43 53.15 C 110.46 57.92 105.94 60.42 102.24 63.61 C 98.49 66.52 98.63 71.68 97.12 75.80 C 96.23 75.57 95.33 75.33 94.44 75.10 C 91.04 83.16 93.65 91.90 95.37 100.03 C 96.38 105.39 99.62 109.88 102.44 114.42 C 103.24 114.86 104.03 115.31 104.82 115.77 C 100.89 114.78 97.98 111.82 94.93 109.34 C 95.46 111.32 96.09 113.28 96.64 115.26 C 98.95 119.27 102.24 122.58 104.71 126.49 C 107.21 129.36 109.91 132.04 112.64 134.70 C 109.48 132.19 106.34 129.59 103.86 126.39 C 101.85 123.83 99.66 121.37 96.86 119.66 C 95.72 124.25 95.75 129.14 93.76 133.49 C 92.29 136.87 90.22 139.98 87.58 142.55 C 84.40 145.70 81.55 149.19 78.04 151.99 C 74.97 154.41 71.10 155.34 67.47 156.60 C 65.01 162.59 67.13 169.08 67.78 175.22 C 68.55 182.30 71.48 188.85 73.40 195.66 C 75.73 203.60 79.21 211.17 83.97 217.96 C 67.71 217.99 51.46 218.08 35.20 217.91 C 36.88 209.31 36.79 200.50 37.73 191.81 L 38.25 191.06 C 38.64 179.13 40.99 167.31 40.55 155.34 C 33.02 155.10 24.34 155.04 18.92 161.19 C 14.23 167.87 10.87 175.47 8.79 183.35 C 8.52 183.47 7.96 183.70 7.69 183.81 C 6.79 189.87 5.40 195.87 5.14 202.01 C 4.96 206.15 4.67 210.31 3.35 214.26 C 1.89 206.47 3.37 198.56 4.77 190.88 C 7.01 181.30 9.87 171.64 15.35 163.36 C 18.44 158.63 23.22 154.52 28.89 153.53 C 39.27 153.45 49.65 153.72 60.03 153.44 C 63.46 153.12 66.93 152.15 70.30 153.38 C 75.31 151.63 80.60 149.47 83.75 144.97 C 82.47 145.47 79.92 146.47 78.64 146.98 C 79.33 145.66 80.02 144.35 80.71 143.04 C 82.34 143.35 83.98 143.50 85.62 143.67 C 84.25 143.00 82.87 142.36 81.48 141.74 C 81.95 140.74 82.42 139.74 82.88 138.75 C 77.16 139.11 71.41 138.19 66.05 136.14 L 66.25 134.22 C 72.63 137.35 79.88 136.98 86.77 136.36 C 85.36 137.69 84.01 139.07 82.70 140.50 C 84.03 140.40 85.63 140.94 86.73 139.88 C 91.68 136.39 93.73 130.30 94.78 124.59 C 92.53 124.50 90.25 124.61 88.04 124.14 C 84.64 122.18 81.37 119.98 78.01 117.93 C 72.63 113.66 68.18 107.80 66.73 100.98 C 66.55 97.76 68.45 94.69 70.60 92.44 C 73.60 90.29 77.53 91.62 80.58 92.95 C 81.04 80.79 83.23 68.71 82.30 56.52 C 78.31 57.81 74.15 58.47 69.97 58.71 C 70.35 54.74 72.08 51.13 73.71 47.54 C 75.44 43.87 76.00 39.82 76.83 35.89 C 81.78 39.09 83.28 45.28 84.86 50.60 C 86.43 50.20 88.62 50.42 89.36 48.61 C 93.33 41.23 98.45 34.31 105.01 29.05 M 102.87 55.75 C 104.11 57.71 106.51 57.46 108.53 57.68 C 109.20 56.68 109.59 55.55 109.84 54.37 C 107.60 55.20 105.23 55.50 102.87 55.75 M 85.73 64.06 C 84.18 71.28 83.51 78.67 83.23 86.05 C 83.18 89.31 82.05 92.72 82.90 95.91 C 86.88 100.36 91.14 104.67 96.02 108.14 C 93.04 99.43 90.73 90.26 91.29 80.98 C 91.35 78.00 92.95 75.38 94.56 72.99 C 93.73 68.35 89.89 65.19 88.06 60.99 C 87.30 61.99 85.92 62.69 85.73 64.06 M 68.52 97.58 C 68.52 100.05 68.17 102.60 69.07 104.96 C 71.73 110.00 75.22 115.11 80.52 117.64 C 83.22 118.97 85.55 120.94 88.33 122.13 C 88.39 121.12 88.50 119.09 88.55 118.08 L 90.34 118.85 C 90.27 117.70 90.21 116.55 90.17 115.40 L 91.61 115.87 C 92.11 111.46 87.21 112.74 84.76 111.22 C 84.52 109.86 84.46 108.47 84.31 107.10 C 82.58 106.60 81.31 105.34 79.96 104.24 C 79.04 105.09 78.14 105.97 77.26 106.87 C 77.00 109.74 79.43 111.58 80.98 113.66 C 79.29 112.13 77.26 110.89 75.98 108.97 C 75.41 108.33 75.41 107.67 75.99 107.01 C 76.94 105.43 79.07 104.24 78.85 102.18 C 77.93 100.47 76.84 98.84 75.97 97.10 C 75.23 97.32 73.74 97.77 72.99 97.99 C 72.37 99.16 72.00 100.41 71.89 101.74 C 71.78 99.87 71.11 97.31 73.55 96.70 C 77.13 96.22 79.34 99.26 80.88 102.01 C 82.03 104.60 85.23 105.17 86.33 107.76 C 86.33 108.42 86.33 109.72 86.32 110.38 C 88.30 110.62 90.33 110.91 92.08 111.93 C 93.08 113.37 92.40 115.20 92.40 116.81 L 90.40 115.97 C 90.61 117.36 90.99 118.69 91.56 119.97 C 91.47 120.74 91.30 122.27 91.22 123.04 C 93.76 122.75 95.68 120.47 95.61 117.91 C 96.21 114.85 94.31 112.10 94.36 109.06 C 87.86 104.76 83.66 97.85 77.00 93.80 C 73.58 92.63 70.47 95.01 68.52 97.58 Z" />
<path fill="#000000" opacity="1.00" d=" M 163.35 68.36 C 165.04 68.00 166.73 67.68 168.44 67.40 L 169.77 68.52 C 170.15 69.05 170.92 70.12 171.31 70.65 C 170.63 70.60 169.27 70.51 168.59 70.46 C 169.61 73.85 165.42 74.28 163.49 75.80 C 163.48 74.83 163.47 72.88 163.47 71.91 C 161.76 73.15 160.62 75.07 158.72 76.03 C 157.95 73.74 159.89 72.09 161.27 70.58 C 161.96 69.84 162.66 69.11 163.35 68.36 Z" />
<path fill="#000000" opacity="1.00" d=" M 145.75 72.52 C 145.92 72.53 146.26 72.56 146.43 72.58 C 146.40 74.45 145.00 75.73 144.07 77.21 C 142.33 77.33 140.60 77.57 138.98 78.24 C 137.01 78.27 135.03 78.27 133.06 78.30 L 133.59 76.76 C 135.72 76.64 137.86 76.65 140.00 76.67 C 139.86 76.14 139.58 75.08 139.44 74.55 C 136.50 74.59 133.57 74.63 130.64 74.68 C 131.16 75.47 132.20 77.05 132.72 77.84 C 128.35 77.61 124.15 75.86 119.73 76.56 C 118.65 77.33 117.54 78.06 116.40 78.72 L 116.25 79.52 C 116.00 79.49 115.51 79.44 115.27 79.41 C 116.52 78.25 117.77 77.09 119.02 75.92 C 119.92 75.50 120.83 75.08 121.73 74.65 C 123.19 74.45 124.65 74.25 126.12 74.04 C 130.98 73.52 136.10 72.86 140.86 74.19 C 141.96 74.88 143.11 75.45 144.32 75.90 L 144.70 74.76 L 145.17 73.98 C 145.32 73.62 145.60 72.88 145.75 72.52 Z" />
<path fill="#000000" opacity="1.00" d=" M 130.14 81.14 C 132.57 80.27 135.19 80.54 137.72 80.31 C 137.58 80.84 137.29 81.91 137.14 82.44 C 137.57 82.62 138.44 82.97 138.87 83.15 C 137.03 83.44 135.23 83.30 133.48 82.72 L 133.06 85.47 C 134.28 85.42 135.51 85.43 136.74 85.50 C 135.96 85.93 135.12 86.21 134.23 86.32 C 134.11 88.63 132.69 86.94 131.70 86.43 C 127.09 88.08 122.03 89.18 117.26 87.51 C 117.31 87.12 117.42 86.34 117.48 85.95 C 119.48 84.53 121.30 82.83 123.46 81.65 C 125.64 81.11 127.91 81.28 130.14 81.14 M 120.61 86.16 C 123.23 88.72 126.66 86.62 126.68 83.33 C 124.48 83.85 122.54 85.04 120.61 86.16 Z" />
<path fill="#000000" opacity="1.00" d=" M 167.48 114.71 C 168.38 114.34 170.18 113.59 171.08 113.22 C 170.95 116.24 170.68 119.26 170.39 122.27 C 169.78 122.06 168.57 121.64 167.96 121.44 C 164.84 123.13 161.32 123.80 158.09 125.19 C 157.86 125.59 157.40 126.39 157.17 126.79 C 153.71 126.60 150.32 125.88 146.91 125.34 C 148.37 122.58 151.32 121.22 154.10 120.16 C 155.00 122.87 158.18 121.78 160.07 120.95 C 162.22 120.14 164.35 119.20 166.17 117.77 C 167.43 117.24 167.28 115.83 167.48 114.71 Z" />
<path fill="#000000" opacity="1.00" d=" M 56.10 128.61 C 57.79 128.70 59.48 128.81 61.16 128.94 C 61.23 129.55 61.37 130.77 61.44 131.38 C 67.29 131.90 73.17 131.79 79.03 131.49 C 76.07 132.60 73.09 133.65 70.06 134.55 C 68.86 133.94 67.66 133.35 66.41 132.86 C 62.46 133.10 58.67 131.68 56.10 128.61 Z" />
<path fill="#000000" opacity="1.00" d=" M 124.14 141.04 C 127.70 142.52 131.19 144.25 134.95 145.21 C 140.34 146.56 145.36 149.47 151.02 149.69 C 156.83 149.98 162.72 149.89 168.38 148.36 C 170.84 146.27 173.19 143.98 174.70 141.09 C 175.42 144.57 172.46 147.20 169.81 148.82 C 164.12 152.18 157.25 151.31 151.03 152.69 C 149.62 153.03 147.56 154.23 148.28 156.00 C 152.07 160.24 158.13 159.37 163.07 161.11 C 165.41 162.16 167.77 160.78 170.02 160.11 C 175.88 161.96 182.10 162.04 188.02 163.66 C 192.20 164.43 196.81 164.77 200.00 167.97 C 205.80 173.88 206.88 182.48 210.00 189.82 L 210.00 214.86 C 208.65 215.62 208.39 216.61 209.23 217.85 L 208.31 217.85 C 208.23 214.56 208.38 211.23 209.19 208.02 C 209.52 203.36 209.43 198.68 209.24 194.02 C 207.05 186.45 205.34 178.55 201.08 171.81 C 199.10 168.59 195.66 166.76 192.14 165.70 C 190.12 165.62 188.10 165.49 186.08 165.39 C 189.93 172.91 192.73 180.86 194.79 189.05 C 198.27 198.85 202.02 208.58 206.73 217.87 C 196.54 218.12 186.34 217.99 176.14 217.95 C 177.48 207.54 175.48 197.19 174.22 186.89 C 173.48 184.26 172.81 181.61 172.18 178.96 C 170.15 173.72 168.96 167.37 163.95 164.05 C 159.26 162.46 154.30 161.44 150.01 158.83 C 148.87 158.26 147.83 157.17 146.46 157.39 C 144.45 160.83 142.85 164.51 140.68 167.87 C 138.61 171.91 139.22 176.49 138.99 180.86 C 138.39 176.13 138.79 171.28 139.99 166.66 C 141.73 161.57 145.60 157.44 146.88 152.16 C 142.19 149.05 136.64 147.76 131.87 144.84 C 129.38 143.40 126.74 142.24 124.14 141.04 Z" />
<path fill="#000000" opacity="1.00" d=" M 68.85 167.58 C 69.96 167.60 71.06 167.62 72.17 167.65 C 73.37 168.17 74.60 168.67 75.81 169.19 C 76.83 169.50 77.84 169.82 78.85 170.16 C 88.66 173.73 98.78 176.27 108.92 178.74 C 113.15 179.95 115.12 184.62 119.40 185.77 C 124.20 188.83 129.93 189.77 135.55 189.77 C 135.55 189.91 135.53 190.17 135.53 190.31 C 130.84 190.39 126.24 189.28 121.68 188.28 L 121.55 187.61 C 118.79 187.03 116.76 184.85 114.25 183.71 C 111.61 182.91 109.76 180.69 107.19 179.75 C 96.10 177.78 85.31 174.34 74.78 170.38 C 74.27 170.10 73.25 169.55 72.74 169.27 C 71.46 168.66 70.16 168.11 68.85 167.58 Z" />
</g>
<g id="#d18d10ff">
<path fill="#d18d10" opacity="1.00" d=" M 101.09 8.96 C 113.73 4.00 127.90 3.33 141.08 6.42 C 147.35 7.38 151.78 12.38 157.28 15.11 C 158.93 17.05 160.65 18.94 162.52 20.68 C 170.10 29.08 175.78 39.26 179.09 50.08 C 181.37 57.54 184.36 64.74 187.18 72.01 C 185.45 70.46 183.78 68.85 182.12 67.23 C 184.10 72.53 187.39 77.36 188.20 83.05 C 188.86 88.04 189.80 93.09 189.24 98.13 C 188.93 98.45 188.30 99.10 187.98 99.42 C 187.02 96.69 186.78 93.44 184.37 91.51 C 184.43 97.57 185.53 103.92 182.92 109.64 C 180.98 106.06 181.76 101.93 181.34 98.06 C 180.50 89.70 177.73 81.74 175.40 73.72 C 174.36 69.97 171.80 66.83 171.09 62.96 C 168.90 53.71 164.97 45.00 160.11 36.86 C 158.27 33.75 155.27 31.62 153.13 28.75 C 150.94 25.98 148.81 22.88 145.52 21.34 C 142.81 20.30 139.91 19.56 136.99 19.75 C 125.87 20.64 114.70 23.39 105.01 29.05 C 98.45 34.31 93.33 41.23 89.36 48.61 C 88.62 50.42 86.43 50.20 84.86 50.60 C 83.28 45.28 81.78 39.09 76.83 35.89 C 76.00 39.82 75.44 43.87 73.71 47.54 C 72.08 51.13 70.35 54.74 69.97 58.71 C 74.15 58.47 78.31 57.81 82.30 56.52 C 83.23 68.71 81.04 80.79 80.58 92.95 C 77.53 91.62 73.60 90.29 70.60 92.44 C 68.45 94.69 66.55 97.76 66.73 100.98 C 68.18 107.80 72.63 113.66 78.01 117.93 C 81.37 119.98 84.64 122.18 88.04 124.14 C 90.25 124.61 92.53 124.50 94.78 124.59 C 93.73 130.30 91.68 136.39 86.73 139.88 C 85.63 140.94 84.03 140.40 82.70 140.50 C 84.01 139.07 85.36 137.69 86.77 136.36 C 79.88 136.98 72.63 137.35 66.25 134.22 C 66.29 133.88 66.37 133.20 66.41 132.86 C 67.66 133.35 68.86 133.94 70.06 134.55 C 73.09 133.65 76.07 132.60 79.03 131.49 C 73.17 131.79 67.29 131.90 61.44 131.38 C 61.37 130.77 61.23 129.55 61.16 128.94 L 61.72 128.87 C 62.02 128.84 62.63 128.77 62.93 128.74 C 65.57 126.08 66.37 122.18 65.47 118.60 C 64.36 114.59 62.71 110.75 61.15 106.89 C 58.01 100.20 57.64 92.65 57.51 85.39 C 55.73 85.47 53.94 85.54 52.16 85.62 C 57.09 79.78 56.65 71.89 57.31 64.75 C 55.12 63.95 51.99 64.12 50.96 61.59 C 52.43 61.48 53.91 61.39 55.38 61.30 C 55.48 60.90 55.69 60.10 55.80 59.69 C 51.87 58.27 48.33 56.02 44.83 53.79 C 46.14 53.21 47.48 52.67 48.83 52.18 C 53.12 50.81 55.97 47.09 58.91 43.91 C 62.59 39.57 66.77 35.69 70.23 31.17 C 73.72 26.74 76.95 21.98 81.47 18.52 C 87.26 14.01 94.16 11.22 101.09 8.96 Z" />
<path fill="#d18d10" opacity="1.00" d=" M 123.13 24.68 C 132.20 22.76 142.55 21.76 150.67 27.18 C 148.05 31.03 146.06 35.38 142.54 38.54 C 135.72 44.75 129.91 52.02 122.73 57.83 C 116.74 60.88 110.08 62.34 103.78 64.63 C 105.53 64.52 107.29 64.36 109.01 63.99 C 106.57 64.90 104.37 66.34 102.18 67.74 C 102.90 66.01 103.60 64.26 104.27 62.51 L 102.24 63.61 C 105.94 60.42 110.46 57.92 112.43 53.15 C 109.21 53.43 106.04 54.09 102.82 54.28 C 103.52 52.30 105.35 51.20 106.95 50.01 C 109.99 47.85 112.80 45.39 115.77 43.14 C 110.63 46.65 105.00 49.39 100.11 53.26 C 98.08 54.98 95.38 55.21 92.85 55.45 C 92.41 54.27 91.96 53.08 91.50 51.90 C 93.28 46.43 96.77 41.76 100.52 37.47 C 106.31 30.78 114.73 26.93 123.13 24.68 Z" />
<path fill="#d18d10" opacity="1.00" d=" M 85.73 64.06 C 85.92 62.69 87.30 61.99 88.06 60.99 C 89.89 65.19 93.73 68.35 94.56 72.99 C 92.95 75.38 91.35 78.00 91.29 80.98 C 90.73 90.26 93.04 99.43 96.02 108.14 C 91.14 104.67 86.88 100.36 82.90 95.91 C 82.05 92.72 83.18 89.31 83.23 86.05 C 83.51 78.67 84.18 71.28 85.73 64.06 Z" />
<path fill="#d18d10" opacity="1.00" d=" M 159.84 65.04 C 160.91 65.76 161.99 66.49 163.06 67.21 C 164.27 67.10 165.49 66.98 166.70 66.84 C 167.05 66.23 167.75 65.00 168.09 64.39 C 168.18 65.14 168.35 66.65 168.44 67.40 C 166.73 67.68 165.04 68.00 163.35 68.36 C 162.66 69.11 161.96 69.84 161.27 70.58 L 161.98 69.14 C 160.18 70.30 158.42 71.51 156.69 72.75 C 156.24 73.96 155.78 75.17 155.31 76.38 C 154.96 75.29 154.48 74.21 154.47 73.04 C 154.02 69.39 157.66 67.33 159.84 65.04 Z" />
<path fill="#d18d10" opacity="1.00" d=" M 170.29 66.28 C 171.09 68.31 171.88 70.35 172.84 72.32 C 171.95 72.45 170.83 71.98 170.09 72.57 C 168.19 75.48 164.48 75.80 161.64 77.41 C 160.58 77.08 159.52 76.72 158.46 76.39 L 158.72 76.03 C 160.62 75.07 161.76 73.15 163.47 71.91 C 163.47 72.88 163.48 74.83 163.49 75.80 C 165.42 74.28 169.61 73.85 168.59 70.46 C 169.27 70.51 170.63 70.60 171.31 70.65 C 170.92 70.12 170.15 69.05 169.77 68.52 C 169.90 67.96 170.16 66.84 170.29 66.28 Z" />
<path fill="#d18d10" opacity="1.00" d=" M 130.64 74.68 C 133.57 74.63 136.50 74.59 139.44 74.55 C 139.58 75.08 139.86 76.14 140.00 76.67 C 137.86 76.65 135.72 76.64 133.59 76.76 C 133.37 77.03 132.94 77.57 132.72 77.84 C 132.20 77.05 131.16 75.47 130.64 74.68 Z" />
<path fill="#d18d10" opacity="1.00" d=" M 186.54 101.50 C 186.64 100.96 186.82 99.89 186.91 99.35 C 187.00 99.79 187.20 100.65 187.29 101.09 L 186.54 101.50 Z" />
<path fill="#d18d10" opacity="1.00" d=" M 163.25 114.36 C 164.79 113.37 166.35 112.40 167.92 111.44 C 169.25 112.02 170.60 112.60 171.95 113.15 C 171.66 117.05 171.56 120.96 171.41 124.87 C 170.56 129.41 165.35 132.38 160.96 131.05 C 155.56 130.14 151.15 126.60 145.85 125.38 C 148.83 122.49 152.15 119.97 154.89 116.83 C 156.96 114.45 160.33 114.43 163.25 114.36 M 167.48 114.71 C 167.28 115.83 167.43 117.24 166.17 117.77 L 166.93 116.48 C 163.18 118.63 158.81 119.05 154.95 120.86 C 156.66 120.95 158.36 121.00 160.07 120.95 C 158.18 121.78 155.00 122.87 154.10 120.16 C 151.32 121.22 148.37 122.58 146.91 125.34 C 150.32 125.88 153.71 126.60 157.17 126.79 C 157.40 126.39 157.86 125.59 158.09 125.19 C 161.32 123.80 164.84 123.13 167.96 121.44 C 168.57 121.64 169.78 122.06 170.39 122.27 C 170.68 119.26 170.95 116.24 171.08 113.22 C 170.18 113.59 168.38 114.34 167.48 114.71 M 160.64 129.06 C 160.88 130.75 163.82 130.73 164.09 129.07 C 163.76 127.57 160.95 127.51 160.64 129.06 Z" />
<path fill="#d18d10" opacity="1.00" d=" M 7.69 183.81 C 7.96 183.70 8.52 183.47 8.79 183.35 C 8.76 188.00 5.85 192.06 5.89 196.74 C 6.04 203.81 4.93 210.82 5.18 217.89 C 4.85 217.87 4.20 217.83 3.87 217.81 C 3.70 216.63 3.52 215.44 3.35 214.26 C 4.67 210.31 4.96 206.15 5.14 202.01 C 5.40 195.87 6.79 189.87 7.69 183.81 Z" />
<path fill="#d18d10" opacity="1.00" d=" M 209.23 217.85 C 208.39 216.61 208.65 215.62 210.00 214.86 L 210.00 217.82 L 209.23 217.85 Z" />
</g>
<g id="#fdfdfdff">
<path fill="#fdfdfd" opacity="1.00" d=" M 150.05 30.17 C 152.32 31.79 154.67 33.36 156.53 35.46 C 162.30 42.70 166.97 51.03 168.80 60.18 C 165.54 61.22 162.33 62.63 159.84 65.04 C 157.66 67.33 154.02 69.39 154.47 73.04 C 154.48 74.21 154.96 75.29 155.31 76.38 C 155.78 75.17 156.24 73.96 156.69 72.75 C 158.42 71.51 160.18 70.30 161.98 69.14 L 161.27 70.58 C 159.89 72.09 157.95 73.74 158.72 76.03 L 158.46 76.39 C 159.52 76.72 160.58 77.08 161.64 77.41 C 164.48 75.80 168.19 75.48 170.09 72.57 C 170.83 71.98 171.95 72.45 172.84 72.32 C 176.92 80.25 178.96 89.10 179.43 97.97 C 179.93 104.88 177.79 111.66 178.40 118.58 C 178.16 118.52 177.67 118.41 177.42 118.36 C 177.44 119.72 177.47 121.09 177.50 122.45 L 176.68 122.57 C 175.19 128.14 175.29 133.89 175.36 139.60 L 174.68 139.46 C 174.68 139.87 174.70 140.68 174.70 141.09 C 173.19 143.98 170.84 146.27 168.38 148.36 C 162.72 149.89 156.83 149.98 151.02 149.69 C 145.36 149.47 140.34 146.56 134.95 145.21 C 131.19 144.25 127.70 142.52 124.14 141.04 C 126.74 142.24 129.38 143.40 131.87 144.84 C 136.64 147.76 142.19 149.05 146.88 152.16 C 145.60 157.44 141.73 161.57 139.99 166.66 C 138.79 171.28 138.39 176.13 138.99 180.86 C 139.22 176.49 138.61 171.91 140.68 167.87 C 142.85 164.51 144.45 160.83 146.46 157.39 C 147.83 157.17 148.87 158.26 150.01 158.83 C 154.30 161.44 159.26 162.46 163.95 164.05 C 168.96 167.37 170.15 173.72 172.18 178.96 C 172.81 181.61 173.48 184.26 174.22 186.89 C 175.48 197.19 177.48 207.54 176.14 217.95 C 145.41 217.99 114.70 218.01 83.97 217.96 C 79.21 211.17 75.73 203.60 73.40 195.66 C 71.48 188.85 68.55 182.30 67.78 175.22 C 67.13 169.08 65.01 162.59 67.47 156.60 C 71.10 155.34 74.97 154.41 78.04 151.99 C 81.55 149.19 84.40 145.70 87.58 142.55 C 90.22 139.98 92.29 136.87 93.76 133.49 C 95.75 129.14 95.72 124.25 96.86 119.66 C 99.66 121.37 101.85 123.83 103.86 126.39 C 106.34 129.59 109.48 132.19 112.64 134.70 C 109.91 132.04 107.21 129.36 104.71 126.49 C 102.24 122.58 98.95 119.27 96.64 115.26 C 96.09 113.28 95.46 111.32 94.93 109.34 C 97.98 111.82 100.89 114.78 104.82 115.77 C 104.03 115.31 103.24 114.86 102.44 114.42 C 99.62 109.88 96.38 105.39 95.37 100.03 C 93.65 91.90 91.04 83.16 94.44 75.10 C 95.33 75.33 96.23 75.57 97.12 75.80 C 98.63 71.68 98.49 66.52 102.24 63.61 L 104.27 62.51 C 103.60 64.26 102.90 66.01 102.18 67.74 C 104.37 66.34 106.57 64.90 109.01 63.99 C 112.39 63.01 115.83 62.23 119.09 60.91 C 125.28 58.65 128.77 52.65 133.53 48.47 C 139.23 42.59 146.28 37.60 150.05 30.17 M 145.75 72.52 C 145.60 72.88 145.32 73.62 145.17 73.98 L 144.70 74.76 L 144.32 75.90 C 143.11 75.45 141.96 74.88 140.86 74.19 C 136.10 72.86 130.98 73.52 126.12 74.04 C 124.65 74.25 123.19 74.45 121.73 74.65 C 120.83 75.08 119.92 75.50 119.02 75.92 C 117.77 77.09 116.52 78.25 115.27 79.41 C 115.51 79.44 116.00 79.49 116.25 79.52 L 116.40 78.72 C 117.54 78.06 118.65 77.33 119.73 76.56 C 124.15 75.86 128.35 77.61 132.72 77.84 C 132.94 77.57 133.37 77.03 133.59 76.76 L 133.06 78.30 C 135.03 78.27 137.01 78.27 138.98 78.24 C 140.60 77.57 142.33 77.33 144.07 77.21 C 145.00 75.73 146.40 74.45 146.43 72.58 C 146.26 72.56 145.92 72.53 145.75 72.52 M 130.14 81.14 C 127.91 81.28 125.64 81.11 123.46 81.65 C 121.30 82.83 119.48 84.53 117.48 85.95 C 117.42 86.34 117.31 87.12 117.26 87.51 C 122.03 89.18 127.09 88.08 131.70 86.43 C 132.69 86.94 134.11 88.63 134.23 86.32 C 135.12 86.21 135.96 85.93 136.74 85.50 C 135.51 85.43 134.28 85.42 133.06 85.47 L 133.48 82.72 C 135.23 83.30 137.03 83.44 138.87 83.15 C 138.44 82.97 137.57 82.62 137.14 82.44 C 137.29 81.91 137.58 80.84 137.72 80.31 C 135.19 80.54 132.57 80.27 130.14 81.14 M 163.25 114.36 C 160.33 114.43 156.96 114.45 154.89 116.83 C 152.15 119.97 148.83 122.49 145.85 125.38 C 151.15 126.60 155.56 130.14 160.96 131.05 C 165.35 132.38 170.56 129.41 171.41 124.87 C 171.56 120.96 171.66 117.05 171.95 113.15 C 170.60 112.60 169.25 112.02 167.92 111.44 C 166.35 112.40 164.79 113.37 163.25 114.36 M 68.85 167.58 C 70.16 168.11 71.46 168.66 72.74 169.27 C 73.25 169.55 74.27 170.10 74.78 170.38 C 85.31 174.34 96.10 177.78 107.19 179.75 C 109.76 180.69 111.61 182.91 114.25 183.71 C 116.76 184.85 118.79 187.03 121.55 187.61 L 121.68 188.28 C 126.24 189.28 130.84 190.39 135.53 190.31 C 135.53 190.17 135.55 189.91 135.55 189.77 C 129.93 189.77 124.20 188.83 119.40 185.77 C 115.12 184.62 113.15 179.95 108.92 178.74 C 98.78 176.27 88.66 173.73 78.85 170.16 C 77.84 169.82 76.83 169.50 75.81 169.19 C 74.60 168.67 73.37 168.17 72.17 167.65 C 71.06 167.62 69.96 167.60 68.85 167.58 Z" />
<path fill="#fdfdfd" opacity="1.00" d=" M 102.87 55.75 C 105.23 55.50 107.60 55.20 109.84 54.37 C 109.59 55.55 109.20 56.68 108.53 57.68 C 106.51 57.46 104.11 57.71 102.87 55.75 Z" />
<path fill="#fdfdfd" opacity="1.00" d=" M 163.06 67.21 C 164.61 65.00 166.56 63.05 169.11 62.05 C 169.49 63.46 169.88 64.87 170.29 66.28 C 170.16 66.84 169.90 67.96 169.77 68.52 L 168.44 67.40 C 168.35 66.65 168.18 65.14 168.09 64.39 C 167.75 65.00 167.05 66.23 166.70 66.84 C 165.49 66.98 164.27 67.10 163.06 67.21 Z" />
<path fill="#fdfdfd" opacity="1.00" d=" M 120.61 86.16 C 122.54 85.04 124.48 83.85 126.68 83.33 C 126.66 86.62 123.23 88.72 120.61 86.16 Z" />
<path fill="#fdfdfd" opacity="1.00" d=" M 68.52 97.58 C 70.47 95.01 73.58 92.63 77.00 93.80 C 83.66 97.85 87.86 104.76 94.36 109.06 C 94.31 112.10 96.21 114.85 95.61 117.91 C 95.68 120.47 93.76 122.75 91.22 123.04 C 91.30 122.27 91.47 120.74 91.56 119.97 C 90.99 118.69 90.61 117.36 90.40 115.97 L 92.40 116.81 C 92.40 115.20 93.08 113.37 92.08 111.93 C 90.33 110.91 88.30 110.62 86.32 110.38 C 86.33 109.72 86.33 108.42 86.33 107.76 C 85.23 105.17 82.03 104.60 80.88 102.01 C 79.34 99.26 77.13 96.22 73.55 96.70 C 71.11 97.31 71.78 99.87 71.89 101.74 C 72.00 100.41 72.37 99.16 72.99 97.99 C 73.74 97.77 75.23 97.32 75.97 97.10 C 76.84 98.84 77.93 100.47 78.85 102.18 C 79.07 104.24 76.94 105.43 75.99 107.01 C 75.41 107.67 75.41 108.33 75.98 108.97 C 77.26 110.89 79.29 112.13 80.98 113.66 C 79.43 111.58 77.00 109.74 77.26 106.87 C 78.14 105.97 79.04 105.09 79.96 104.24 C 81.31 105.34 82.58 106.60 84.31 107.10 C 84.46 108.47 84.52 109.86 84.76 111.22 C 87.21 112.74 92.11 111.46 91.61 115.87 L 90.17 115.40 C 90.21 116.55 90.27 117.70 90.34 118.85 L 88.55 118.08 C 88.50 119.09 88.39 121.12 88.33 122.13 C 85.55 120.94 83.22 118.97 80.52 117.64 C 75.22 115.11 71.73 110.00 69.07 104.96 C 68.17 102.60 68.52 100.05 68.52 97.58 Z" />
<path fill="#fdfdfd" opacity="1.00" d=" M 154.95 120.86 C 158.81 119.05 163.18 118.63 166.93 116.48 L 166.17 117.77 C 164.35 119.20 162.22 120.14 160.07 120.95 C 158.36 121.00 156.66 120.95 154.95 120.86 Z" />
<path fill="#fdfdfd" opacity="1.00" d=" M 160.64 129.06 C 160.95 127.51 163.76 127.57 164.09 129.07 C 163.82 130.73 160.88 130.75 160.64 129.06 Z" />
<path fill="#fdfdfd" opacity="1.00" d=" M 18.92 161.19 C 24.34 155.04 33.02 155.10 40.55 155.34 C 40.99 167.31 38.64 179.13 38.25 191.06 L 37.73 191.81 C 36.79 200.50 36.88 209.31 35.20 217.91 C 25.20 218.02 15.19 218.11 5.18 217.89 C 4.93 210.82 6.04 203.81 5.89 196.74 C 5.85 192.06 8.76 188.00 8.79 183.35 C 10.87 175.47 14.23 167.87 18.92 161.19 Z" />
<path fill="#fdfdfd" opacity="1.00" d=" M 186.08 165.39 C 188.10 165.49 190.12 165.62 192.14 165.70 C 195.66 166.76 199.10 168.59 201.08 171.81 C 205.34 178.55 207.05 186.45 209.24 194.02 C 209.43 198.68 209.52 203.36 209.19 208.02 C 208.38 211.23 208.23 214.56 208.31 217.85 C 207.91 217.86 207.13 217.87 206.73 217.87 C 202.02 208.58 198.27 198.85 194.79 189.05 C 192.73 180.86 189.93 172.91 186.08 165.39 Z" />
</g>
</svg>
