<?xml version="1.0" encoding="UTF-8" ?>
<!DOCTYPE svg PUBLIC "-//W3C//DTD SVG 1.1//EN" "http://www.w3.org/Graphics/SVG/1.1/DTD/svg11.dtd">
<svg width="210pt" height="220pt" viewBox="0 0 210 220" version="1.1" xmlns="http://www.w3.org/2000/svg">
<g id="#a56768ec">
<path fill="#a56768" opacity="0.93" d=" M 2.35 23.34 C 5.53 22.60 8.82 22.65 11.98 23.48 C 17.19 22.66 22.49 23.62 27.73 23.01 C 29.36 23.07 31.79 22.05 32.41 24.22 C 34.05 26.36 33.72 30.90 37.22 30.73 C 38.94 28.46 38.89 25.67 37.36 23.32 C 39.57 22.88 41.81 22.83 43.97 23.56 C 44.71 26.61 45.77 29.62 47.77 32.08 C 48.67 30.35 49.54 28.61 50.41 26.87 C 49.70 25.74 48.98 24.61 48.27 23.48 C 50.35 23.36 52.80 21.95 54.63 23.48 C 56.15 25.60 56.84 28.18 57.83 30.56 C 58.65 30.54 59.48 30.51 60.30 30.48 C 61.42 27.93 61.14 25.29 60.32 22.71 C 62.17 22.78 64.05 22.66 65.86 23.06 C 68.14 25.31 67.37 30.43 71.24 30.82 C 72.99 28.51 72.73 25.76 71.32 23.37 C 73.23 23.04 75.15 22.81 77.07 22.64 C 78.28 25.44 79.41 28.29 80.91 30.95 C 84.38 30.42 84.19 26.17 82.76 23.82 C 82.98 23.54 83.44 22.98 83.66 22.70 C 85.54 22.93 87.73 22.39 89.35 23.61 C 90.76 26.30 90.81 29.71 93.03 31.94 C 95.75 29.58 95.55 26.04 94.12 23.06 C 96.08 23.20 98.67 21.95 100.17 23.65 C 101.66 26.40 102.61 29.41 104.07 32.18 C 106.36 29.78 107.79 26.22 105.29 23.37 C 107.19 23.12 109.10 22.88 111.02 22.66 C 112.38 25.99 113.83 29.30 115.90 32.26 C 116.79 30.49 117.65 28.71 118.52 26.93 C 117.73 25.80 116.94 24.68 116.16 23.56 C 118.25 23.13 120.35 22.83 122.47 22.58 C 124.08 25.64 124.72 29.32 127.07 31.89 C 128.23 30.53 128.91 28.86 129.62 27.24 C 129.11 25.75 126.74 22.69 129.88 22.85 C 135.97 20.83 134.64 29.87 139.17 30.91 C 141.16 28.62 140.79 25.77 139.27 23.37 C 141.23 23.04 143.20 22.80 145.17 22.62 C 146.51 25.88 147.72 29.24 149.82 32.11 C 150.77 30.43 151.70 28.74 152.63 27.05 C 151.80 25.89 150.98 24.74 150.17 23.57 C 152.47 23.21 156.21 21.39 157.45 24.36 C 157.23 26.00 156.29 27.36 155.07 28.42 C 154.89 28.58 154.54 28.89 154.37 29.05 C 155.45 28.90 156.57 28.19 157.65 28.52 C 158.82 29.70 159.89 30.96 160.98 32.20 C 161.36 32.02 162.12 31.65 162.50 31.46 C 163.38 29.27 163.94 26.98 164.19 24.63 C 165.29 23.93 166.64 23.82 167.87 23.45 C 168.83 25.95 169.83 28.43 170.68 30.98 C 172.71 31.73 173.06 32.68 171.71 33.84 C 171.11 33.84 169.91 33.83 169.31 33.83 C 168.91 33.34 168.09 32.36 167.69 31.88 C 167.16 31.84 166.63 31.81 166.11 31.78 C 165.76 32.28 165.05 33.26 164.70 33.75 C 161.96 34.57 159.03 34.19 156.22 34.54 L 156.81 31.29 L 156.55 31.37 C 155.63 31.37 154.72 31.30 153.81 31.33 C 153.02 35.66 148.02 33.88 144.97 33.99 C 145.06 33.45 145.24 32.37 145.33 31.84 C 144.46 31.81 143.60 31.78 142.74 31.74 C 142.74 32.41 142.74 33.74 142.75 34.41 C 139.93 34.78 137.08 34.95 134.26 34.53 C 134.23 33.83 134.17 32.44 134.14 31.74 C 133.47 31.80 132.81 31.87 132.14 31.93 C 131.71 32.31 130.85 33.07 130.41 33.45 C 128.50 34.71 125.55 34.59 123.60 33.43 C 123.18 33.04 122.33 32.26 121.91 31.87 C 121.37 31.84 120.83 31.81 120.30 31.77 C 119.54 35.80 114.21 33.93 111.32 34.82 C 111.31 34.06 111.28 32.55 111.27 31.79 C 110.43 31.80 109.59 31.81 108.76 31.81 C 108.74 32.54 108.70 33.99 108.68 34.72 C 105.81 34.73 102.93 34.71 100.05 34.67 C 100.07 33.95 100.12 32.52 100.14 31.80 C 99.31 31.79 98.48 31.79 97.65 31.78 C 97.60 32.50 97.51 33.95 97.47 34.67 C 94.47 34.71 91.48 34.71 88.49 34.69 C 88.46 33.96 88.40 32.49 88.37 31.76 C 87.53 31.78 86.69 31.79 85.85 31.81 C 85.87 32.53 85.91 33.98 85.92 34.71 C 83.05 34.72 80.17 34.72 77.29 34.71 C 77.28 33.99 77.26 32.55 77.25 31.83 C 76.40 31.81 75.54 31.79 74.69 31.77 C 74.69 32.49 74.69 33.94 74.69 34.66 C 71.84 34.71 68.98 34.74 66.13 34.73 C 66.13 34.00 66.13 32.55 66.13 31.82 C 65.29 31.79 64.46 31.77 63.63 31.75 C 63.58 32.49 63.49 33.96 63.45 34.70 C 60.30 34.84 57.15 34.61 54.06 33.94 C 54.18 33.39 54.42 32.29 54.54 31.74 C 53.64 31.77 52.74 31.80 51.84 31.83 C 51.81 32.49 51.76 33.80 51.73 34.46 C 48.98 34.73 46.19 34.99 43.44 34.52 C 43.39 33.82 43.27 32.43 43.22 31.73 C 42.54 31.81 41.86 31.88 41.19 31.96 C 40.75 32.33 39.87 33.08 39.43 33.46 C 37.05 35.15 33.27 34.36 31.53 32.01 C 31.09 31.97 30.65 31.92 30.21 31.88 C 28.98 33.63 26.87 34.28 24.92 33.38 C 26.22 30.69 27.45 27.89 27.58 24.86 C 26.64 24.74 25.70 24.62 24.76 24.50 C 24.29 27.34 25.09 30.84 22.77 33.01 C 21.26 33.46 20.48 31.79 19.64 30.90 C 19.04 32.72 17.51 34.79 15.30 34.19 L 13.70 33.42 C 10.26 35.40 6.30 35.47 2.54 34.52 C 4.07 30.92 4.09 26.88 2.35 23.34 Z" />
<path fill="#a56768" opacity="0.93" d=" M 173.84 22.87 C 177.09 23.05 180.35 23.19 183.59 23.46 C 183.21 27.02 183.05 30.62 183.81 34.14 C 186.33 31.09 185.24 27.02 185.18 23.42 C 185.60 23.38 186.45 23.31 186.87 23.27 C 189.45 23.17 192.02 23.08 194.60 22.99 L 194.60 24.60 C 194.49 27.51 194.49 30.43 194.67 33.34 C 195.10 33.34 195.98 33.33 196.41 33.32 C 196.64 30.11 196.55 26.90 196.45 23.69 L 196.58 22.73 C 197.68 22.89 199.88 23.19 200.98 23.35 C 200.49 24.67 200.00 25.99 199.51 27.31 C 200.48 27.39 201.45 27.48 202.43 27.56 C 201.85 25.77 202.53 23.65 204.73 24.17 C 205.62 27.32 205.27 30.67 205.51 33.90 C 204.36 34.04 203.22 33.78 202.22 33.24 C 202.30 32.49 202.47 30.99 202.56 30.24 C 201.41 30.38 200.27 30.52 199.13 30.66 C 200.10 31.99 201.07 33.31 202.02 34.67 C 198.77 34.81 195.51 34.74 192.26 34.84 C 187.84 34.60 183.40 34.71 178.97 34.58 C 179.44 33.22 179.92 31.87 180.40 30.52 C 179.18 30.49 177.97 30.47 176.76 30.44 C 177.14 31.63 177.97 32.95 176.64 33.86 C 176.06 33.85 174.91 33.82 174.33 33.80 C 174.22 32.86 174.29 31.91 174.55 30.97 C 175.06 28.26 174.93 25.44 173.84 22.87 M 188.07 30.41 C 188.60 31.55 188.60 33.25 190.07 33.60 C 190.89 32.70 191.36 31.57 191.92 30.51 C 190.64 30.47 189.36 30.43 188.07 30.41 Z" />
<path fill="#a56768" opacity="0.93" d=" M 82.72 61.83 C 85.73 60.65 88.57 58.61 91.91 58.66 C 95.59 58.45 99.20 59.94 102.18 61.99 L 102.74 63.73 C 100.10 62.88 97.68 61.48 95.05 60.60 C 90.45 59.63 86.63 62.85 82.34 63.81 C 82.44 63.31 82.63 62.32 82.72 61.83 Z" />
<path fill="#a56768" opacity="0.93" d=" M 118.58 59.34 C 121.88 64.89 119.80 71.49 121.61 77.38 C 115.99 77.65 110.16 79.67 104.66 77.63 C 109.86 77.90 115.05 77.36 120.25 77.37 C 119.75 71.35 118.96 65.36 118.58 59.34 Z" />
<path fill="#a56768" opacity="0.93" d=" M 78.69 69.71 C 83.27 67.60 88.02 65.80 92.97 64.79 C 97.88 63.82 102.15 67.01 106.53 68.65 C 106.53 69.18 106.53 70.24 106.53 70.78 C 101.77 68.41 96.51 65.33 91.03 67.09 C 86.86 68.53 82.69 69.97 78.54 71.49 C 78.58 71.04 78.66 70.15 78.69 69.71 Z" />
<path fill="#a56768" opacity="0.93" d=" M 128.28 78.68 L 128.58 79.50 C 128.71 83.05 128.57 86.61 128.71 90.16 C 128.15 92.51 127.73 94.88 127.38 97.27 C 126.81 93.28 127.92 88.62 125.54 85.16 C 125.20 85.01 124.53 84.69 124.20 84.54 C 125.44 84.11 126.78 84.16 128.08 84.07 C 128.16 82.27 128.22 80.47 128.28 78.68 Z" />
<path fill="#a56768" opacity="0.93" d=" M 117.69 80.19 C 119.36 79.88 121.03 79.62 122.72 79.46 C 122.47 80.06 121.95 81.24 121.69 81.84 L 121.62 83.09 C 121.55 84.60 121.50 86.11 121.42 87.63 C 121.64 87.07 122.07 85.95 122.28 85.39 C 122.33 86.09 122.42 87.47 122.47 88.17 C 121.87 88.57 120.66 89.37 120.06 89.77 C 120.80 90.59 121.54 91.41 122.28 92.24 C 122.82 94.51 123.57 96.73 124.49 98.88 C 125.21 98.47 126.65 97.67 127.38 97.27 C 126.09 100.08 122.64 99.46 120.10 99.89 C 115.33 100.10 110.32 101.28 105.69 99.61 C 111.34 99.68 116.97 99.35 122.61 99.43 C 122.54 98.41 122.38 96.37 122.30 95.35 C 121.05 95.37 119.80 95.40 118.55 95.43 C 120.55 92.36 118.88 88.39 116.03 86.53 C 113.38 86.01 110.65 86.27 107.98 86.40 C 107.57 88.04 107.16 89.69 106.54 91.27 C 106.45 88.92 106.56 86.56 106.72 84.21 C 108.23 84.80 109.73 85.40 111.24 85.99 C 112.26 85.48 113.27 84.96 114.29 84.44 C 116.39 85.68 118.44 87.00 120.46 88.38 C 120.46 85.94 120.49 83.50 120.54 81.07 C 119.73 81.15 118.11 81.33 117.30 81.42 C 117.93 83.04 118.71 84.67 118.37 86.48 C 116.76 84.61 115.37 82.55 114.13 80.42 C 115.31 80.34 116.50 80.27 117.69 80.19 Z" />
<path fill="#a56768" opacity="0.93" d=" M 72.79 82.74 C 77.96 82.80 83.33 80.61 88.36 82.26 C 83.28 82.95 77.63 81.48 72.95 83.93 C 72.65 84.63 72.06 86.03 71.76 86.73 C 75.75 85.67 79.88 85.23 84.01 85.47 C 84.88 88.20 85.85 90.90 86.83 93.60 C 86.37 93.51 85.46 93.33 85.00 93.24 C 84.62 91.35 84.46 89.37 83.59 87.62 C 81.01 86.20 77.84 86.33 75.02 86.71 C 71.46 89.04 69.74 93.13 70.44 97.31 C 72.99 97.40 75.54 97.48 78.08 97.57 C 78.86 95.84 78.48 92.86 80.95 92.61 C 82.18 94.17 82.16 96.29 82.62 98.15 C 78.36 98.21 73.95 99.40 69.79 98.23 C 66.50 95.63 70.19 91.35 70.88 88.28 C 70.21 88.29 68.87 88.31 68.20 88.32 C 68.77 86.72 69.35 85.11 69.92 83.51 C 68.58 83.32 67.24 83.13 65.91 82.93 L 64.85 82.67 C 67.48 82.17 70.15 82.42 72.79 82.74 Z" />
<path fill="#a56768" opacity="0.93" d=" M 38.76 90.31 C 39.05 91.85 39.35 93.39 39.64 94.93 C 39.79 94.40 40.09 93.33 40.24 92.79 C 41.00 93.04 41.76 93.31 42.52 93.58 C 40.08 94.10 39.89 97.00 39.70 99.02 C 39.16 103.60 41.38 107.78 42.70 112.02 C 43.60 112.96 44.51 113.88 45.43 114.79 C 41.95 115.37 40.76 111.78 39.90 109.20 C 37.35 103.20 39.23 96.60 38.76 90.31 Z" />
<path fill="#a56768" opacity="0.93" d=" M 112.69 91.15 C 113.30 91.02 114.52 90.75 115.14 90.62 C 116.05 92.11 116.24 93.90 116.71 95.55 C 113.34 96.57 109.81 96.50 106.34 96.52 C 106.31 95.85 106.25 94.49 106.22 93.81 C 107.12 94.41 108.02 95.00 108.91 95.61 C 109.84 95.57 111.71 95.50 112.64 95.47 C 112.66 94.03 112.68 92.59 112.69 91.15 Z" />
<path fill="#a56768" opacity="0.93" d=" M 42.14 95.77 C 46.44 97.51 45.61 102.43 45.60 106.17 C 42.39 103.67 43.97 99.09 42.14 95.77 Z" />
<path fill="#a56768" opacity="0.93" d=" M 110.93 102.51 C 117.08 102.14 123.45 102.52 129.27 100.15 C 129.11 100.41 128.79 100.92 128.63 101.17 C 127.89 101.34 126.42 101.68 125.68 101.85 C 125.76 106.90 125.75 111.98 124.86 116.97 C 123.50 124.27 124.88 131.67 124.56 139.03 C 125.23 145.43 125.84 151.90 125.03 158.32 L 124.56 160.00 C 122.54 155.83 124.94 151.36 124.53 147.00 C 124.01 140.93 125.01 134.71 123.29 128.78 C 122.57 125.95 122.73 123.00 122.87 120.11 C 125.18 114.73 126.27 108.57 123.79 103.04 C 119.52 102.66 115.22 102.37 110.93 102.51 Z" />
<path fill="#a56768" opacity="0.93" d=" M 104.24 102.54 C 105.04 102.55 105.84 102.56 106.64 102.57 C 108.39 105.99 111.89 107.90 114.07 110.95 C 115.34 112.63 114.30 114.75 114.03 116.58 C 113.77 115.32 113.53 114.06 113.32 112.80 C 110.45 109.23 106.52 106.57 104.24 102.54 Z" />
<path fill="#a56768" opacity="0.93" d=" M 87.44 117.42 C 85.36 114.18 88.01 110.36 90.96 108.80 C 90.56 110.72 89.58 112.42 88.48 114.02 C 88.88 115.16 89.29 116.29 89.70 117.43 C 89.14 117.43 88.01 117.42 87.44 117.42 Z" />
<path fill="#a56768" opacity="0.93" d=" M 93.09 114.10 C 94.59 114.56 96.08 115.06 97.57 115.57 C 97.57 116.07 97.57 117.07 97.57 117.57 C 95.69 116.80 92.43 117.03 93.09 114.10 Z" />
<path fill="#a56768" opacity="0.93" d=" M 43.38 115.00 C 44.83 115.16 46.28 115.31 47.73 115.45 C 47.34 116.61 46.56 117.72 46.76 119.00 C 47.35 126.11 49.78 132.89 50.90 139.91 C 52.42 149.40 52.93 159.08 55.24 168.43 C 56.07 172.08 54.61 176.49 57.55 179.42 C 64.34 187.90 75.22 190.79 84.98 194.31 C 79.01 194.85 73.66 191.86 68.44 189.45 C 61.69 186.13 54.94 181.22 52.95 173.55 C 49.54 175.46 46.58 178.02 43.57 180.47 C 39.87 183.49 35.23 184.91 30.99 186.96 C 34.99 182.84 41.49 182.56 44.93 177.81 C 47.48 175.71 50.35 174.04 52.84 171.88 C 53.64 170.06 53.31 167.97 53.07 166.07 C 51.54 157.87 50.28 149.60 50.11 141.26 C 49.75 133.54 44.96 126.68 45.55 118.87 C 46.02 117.10 44.38 116.13 43.38 115.00 Z" />
<path fill="#a56768" opacity="0.93" d=" M 117.08 115.07 C 119.00 115.89 121.21 116.81 122.22 118.75 C 122.36 121.00 119.97 119.43 119.36 118.65 C 118.38 117.61 117.75 116.32 117.08 115.07 Z" />
<path fill="#a56768" opacity="0.93" d=" M 81.71 117.68 C 82.25 117.68 83.34 117.68 83.88 117.67 C 81.39 120.97 77.43 124.03 73.06 123.38 C 72.17 123.23 71.75 122.28 71.10 121.76 C 74.96 121.52 79.32 121.20 81.71 117.68 Z" />
<path fill="#a56768" opacity="0.93" d=" M 89.80 130.86 C 93.70 127.34 98.50 123.99 103.99 124.18 C 108.50 123.93 112.75 125.63 117.09 126.52 C 116.20 129.10 113.95 130.60 111.87 132.14 C 110.82 135.97 111.60 140.51 114.36 143.48 C 115.26 145.30 116.15 147.14 116.94 149.03 C 115.14 148.52 113.40 147.80 111.72 146.97 C 112.24 146.08 112.76 145.19 113.29 144.31 C 113.03 143.84 112.52 142.90 112.27 142.43 C 110.44 138.67 110.24 134.40 111.29 130.39 C 108.97 130.83 106.62 131.20 104.25 131.29 C 99.47 131.70 94.39 132.73 89.80 130.86 M 93.27 129.74 C 93.25 130.02 93.20 130.58 93.17 130.87 C 100.43 131.27 107.80 129.47 115.14 129.39 C 112.86 126.30 108.41 126.41 104.94 126.16 C 100.68 125.64 96.80 127.61 93.27 129.74 Z" />
<path fill="#a56768" opacity="0.93" d=" M 87.73 150.34 C 84.19 145.31 83.48 137.76 87.95 133.08 C 86.32 136.67 85.66 140.60 85.63 144.53 C 88.02 144.64 90.40 144.75 92.79 144.78 C 90.72 145.68 86.24 144.83 87.54 148.38 C 89.67 148.73 91.82 148.45 93.95 148.27 C 96.13 146.24 100.45 147.50 101.33 144.20 C 100.41 144.24 98.57 144.30 97.65 144.33 C 99.91 143.65 102.26 143.34 104.62 143.30 C 104.56 144.23 104.50 145.16 104.45 146.09 C 98.82 147.31 93.64 150.57 87.73 150.34 Z" />
<path fill="#a56768" opacity="0.93" d=" M 52.26 136.39 C 52.74 136.42 53.72 136.48 54.21 136.50 C 54.03 142.40 56.32 148.13 60.01 152.66 C 57.65 153.28 56.74 150.84 55.71 149.28 C 53.47 145.36 52.71 140.82 52.26 136.39 Z" />
<path fill="#a56768" opacity="0.93" d=" M 79.41 144.37 C 79.91 144.36 80.89 144.34 81.38 144.33 C 80.89 147.79 81.43 151.16 83.86 153.78 C 78.93 154.10 79.39 147.70 79.41 144.37 Z" />
<path fill="#a56768" opacity="0.93" d=" M 102.32 151.51 C 104.82 150.10 107.69 149.65 110.52 149.62 C 110.61 150.14 110.79 151.19 110.88 151.72 C 107.82 151.35 104.79 151.80 102.33 153.80 C 102.33 153.22 102.32 152.08 102.32 151.51 Z" />
<path fill="#a56768" opacity="0.93" d=" M 110.33 172.26 C 115.48 169.02 121.16 165.61 123.75 159.82 C 123.76 160.68 123.78 162.41 123.79 163.27 C 122.05 165.95 120.25 168.59 118.64 171.34 C 118.70 170.46 118.84 168.70 118.90 167.81 C 117.89 168.89 116.89 169.98 115.91 171.09 C 108.08 176.67 96.78 177.48 88.45 172.58 C 88.45 172.02 88.44 170.92 88.44 170.37 C 94.80 174.65 103.29 174.68 110.33 172.26 Z" />
<path fill="#a56768" opacity="0.93" d=" M 116.44 177.27 L 117.19 177.07 C 116.66 178.32 116.29 180.02 118.02 180.42 C 123.54 181.96 128.34 185.38 134.01 186.48 C 140.59 187.91 146.01 192.30 152.46 194.15 C 152.69 194.59 153.15 195.49 153.38 195.93 C 172.25 196.33 191.13 196.02 210.00 196.10 L 210.00 196.79 C 140.00 196.77 70.00 197.18 0.00 196.70 L 0.00 195.87 C 5.27 195.81 10.57 196.12 15.83 195.61 C 39.09 195.85 62.38 195.96 85.65 195.60 C 85.98 195.10 86.64 194.10 86.97 193.60 C 89.19 193.91 91.41 194.22 93.63 194.47 C 93.57 194.76 93.44 195.34 93.38 195.63 C 107.58 195.90 121.80 195.76 136.01 195.78 C 141.21 195.75 146.43 196.08 151.60 195.35 C 142.58 191.25 133.21 187.94 124.26 183.68 C 122.37 182.74 120.28 182.39 118.23 182.04 C 113.17 189.59 103.95 195.75 94.58 194.22 C 101.78 192.53 109.25 189.96 114.43 184.42 C 116.37 182.56 116.17 179.72 116.44 177.27 Z" />
</g>
<g id="#fefefeff">
<path fill="#fefefe" opacity="1.00" d=" M 161.91 23.61 C 163.89 23.42 165.88 23.14 167.88 23.32 C 170.47 25.40 169.47 30.42 173.05 31.28 C 175.59 29.45 173.86 25.59 173.84 22.87 C 174.93 25.44 175.06 28.26 174.55 30.97 C 174.29 31.91 174.22 32.86 174.33 33.80 C 174.91 33.82 176.06 33.85 176.64 33.86 C 177.97 32.95 177.14 31.63 176.76 30.44 C 177.97 30.47 179.18 30.49 180.40 30.52 C 179.92 31.87 179.44 33.22 178.97 34.58 C 174.91 34.34 170.81 35.07 166.79 34.30 C 163.29 34.79 159.74 34.79 156.22 34.54 C 159.03 34.19 161.96 34.57 164.70 33.75 C 165.05 33.26 165.76 32.28 166.11 31.78 C 166.63 31.81 167.16 31.84 167.69 31.88 C 168.09 32.36 168.91 33.34 169.31 33.83 C 169.91 33.83 171.11 33.84 171.71 33.84 C 173.06 32.68 172.71 31.73 170.68 30.98 C 169.83 28.43 168.83 25.95 167.87 23.45 C 166.64 23.82 165.29 23.93 164.19 24.63 C 163.94 26.98 163.38 29.27 162.50 31.46 C 162.12 31.65 161.36 32.02 160.98 32.20 C 159.89 30.96 158.82 29.70 157.65 28.52 C 156.57 28.19 155.45 28.90 154.37 29.05 C 154.54 28.89 154.89 28.58 155.07 28.42 C 156.29 27.36 157.23 26.00 157.45 24.36 C 157.59 25.06 157.70 25.76 157.80 26.47 C 158.94 28.18 159.10 31.29 161.96 30.97 C 162.64 28.41 164.59 25.66 161.91 23.61 Z" />
<path fill="#fefefe" opacity="1.00" d=" M 200.98 23.35 C 202.78 23.36 204.58 23.33 206.39 23.38 C 205.04 27.09 205.59 30.98 206.93 34.59 C 205.29 34.64 203.65 34.66 202.02 34.67 C 201.07 33.31 200.10 31.99 199.13 30.66 C 200.27 30.52 201.41 30.38 202.56 30.24 C 202.47 30.99 202.30 32.49 202.22 33.24 C 203.22 33.78 204.36 34.04 205.51 33.90 C 205.27 30.67 205.62 27.32 204.73 24.17 C 202.53 23.65 201.85 25.77 202.43 27.56 C 201.45 27.48 200.48 27.39 199.51 27.31 C 200.00 25.99 200.49 24.67 200.98 23.35 Z" />
<path fill="#fefefe" opacity="1.00" d=" M 24.76 24.50 C 25.70 24.62 26.64 24.74 27.58 24.86 C 27.45 27.89 26.22 30.69 24.92 33.38 C 26.87 34.28 28.98 33.63 30.21 31.88 C 30.65 31.92 31.09 31.97 31.53 32.01 C 33.27 34.36 37.05 35.15 39.43 33.46 C 39.87 33.08 40.75 32.33 41.19 31.96 C 41.86 31.88 42.54 31.81 43.22 31.73 C 43.27 32.43 43.39 33.82 43.44 34.52 C 43.06 34.31 42.31 33.90 41.93 33.69 C 39.01 34.67 35.92 34.95 32.88 34.49 C 28.80 34.09 24.52 35.33 20.59 33.61 C 19.51 32.99 18.76 33.98 18.05 34.66 L 17.24 34.78 C 16.76 34.63 15.79 34.34 15.30 34.19 C 17.51 34.79 19.04 32.72 19.64 30.90 C 20.48 31.79 21.26 33.46 22.77 33.01 C 25.09 30.84 24.29 27.34 24.76 24.50 Z" />
<path fill="#fefefe" opacity="1.00" d=" M 183.59 23.46 C 183.99 23.45 184.78 23.43 185.18 23.42 C 185.24 27.02 186.33 31.09 183.81 34.14 C 183.05 30.62 183.21 27.02 183.59 23.46 Z" />
<path fill="#fefefe" opacity="1.00" d=" M 194.60 24.60 C 195.06 24.37 195.99 23.92 196.45 23.69 C 196.55 26.90 196.64 30.11 196.41 33.32 C 195.98 33.33 195.10 33.34 194.67 33.34 C 194.49 30.43 194.49 27.51 194.60 24.60 Z" />
<path fill="#fefefe" opacity="1.00" d=" M 188.07 30.41 C 189.36 30.43 190.64 30.47 191.92 30.51 C 191.36 31.57 190.89 32.70 190.07 33.60 C 188.60 33.25 188.60 31.55 188.07 30.41 Z" />
<path fill="#fefefe" opacity="1.00" d=" M 51.84 31.83 C 52.74 31.80 53.64 31.77 54.54 31.74 C 54.42 32.29 54.18 33.39 54.06 33.94 C 57.15 34.61 60.30 34.84 63.45 34.70 C 63.49 33.96 63.58 32.49 63.63 31.75 C 64.46 31.77 65.29 31.79 66.13 31.82 C 66.13 32.55 66.13 34.00 66.13 34.73 C 68.98 34.74 71.84 34.71 74.69 34.66 C 74.69 33.94 74.69 32.49 74.69 31.77 C 75.54 31.79 76.40 31.81 77.25 31.83 C 77.26 32.55 77.28 33.99 77.29 34.71 C 80.17 34.72 83.05 34.72 85.92 34.71 C 85.91 33.98 85.87 32.53 85.85 31.81 C 86.69 31.79 87.53 31.78 88.37 31.76 C 88.40 32.49 88.46 33.96 88.49 34.69 C 91.48 34.71 94.47 34.71 97.47 34.67 C 97.51 33.95 97.60 32.50 97.65 31.78 C 98.48 31.79 99.31 31.79 100.14 31.80 C 100.12 32.52 100.07 33.95 100.05 34.67 C 102.93 34.71 105.81 34.73 108.68 34.72 C 108.70 33.99 108.74 32.54 108.76 31.81 C 109.59 31.81 110.43 31.80 111.27 31.79 C 111.28 32.55 111.31 34.06 111.32 34.82 C 114.21 33.93 119.54 35.80 120.30 31.77 C 120.83 31.81 121.37 31.84 121.91 31.87 C 122.33 32.26 123.18 33.04 123.60 33.43 C 125.55 34.59 128.50 34.71 130.41 33.45 C 130.85 33.07 131.71 32.31 132.14 31.93 C 132.81 31.87 133.47 31.80 134.14 31.74 C 134.17 32.44 134.23 33.83 134.26 34.53 C 133.93 34.33 133.26 33.92 132.92 33.71 C 128.30 35.88 123.29 33.44 118.63 34.77 C 115.72 35.11 112.91 36.18 109.95 35.96 C 99.65 35.43 89.32 36.15 79.01 35.71 C 74.72 36.97 70.34 35.46 66.01 36.08 C 63.17 36.38 60.28 36.05 57.46 36.53 C 53.10 38.94 49.14 42.12 45.80 45.81 C 42.83 49.05 41.30 53.23 39.51 57.17 C 41.42 50.40 45.53 44.28 51.34 40.26 C 53.49 38.53 56.26 37.43 57.73 34.97 C 55.74 34.78 53.74 34.32 51.73 34.46 C 51.76 33.80 51.81 32.49 51.84 31.83 Z" />
<path fill="#fefefe" opacity="1.00" d=" M 142.74 31.74 C 143.60 31.78 144.46 31.81 145.33 31.84 C 145.24 32.37 145.06 33.45 144.97 33.99 C 148.02 33.88 153.02 35.66 153.81 31.33 C 154.72 31.30 155.63 31.37 156.55 31.37 C 154.84 31.71 153.77 33.06 153.32 34.67 C 149.79 34.93 146.27 34.42 142.75 34.41 C 142.74 33.74 142.74 32.41 142.74 31.74 Z" />
<path fill="#fefefe" opacity="1.00" d=" M 93.00 52.46 C 99.78 51.70 106.67 50.58 113.49 51.53 C 114.93 53.26 115.97 55.27 117.34 57.05 C 117.34 57.64 117.36 58.81 117.37 59.40 L 118.58 59.34 C 118.96 65.36 119.75 71.35 120.25 77.37 C 115.05 77.36 109.86 77.90 104.66 77.63 C 104.38 77.56 103.83 77.41 103.55 77.33 C 102.88 78.17 102.21 79.00 101.54 79.83 C 101.51 81.50 101.48 83.16 101.46 84.83 C 97.86 84.24 94.21 84.38 90.79 85.70 C 90.40 83.62 91.37 80.02 88.44 79.51 C 79.89 78.82 71.42 80.80 62.87 80.64 C 62.37 82.19 62.27 83.95 61.30 85.30 C 57.90 87.16 54.22 88.43 50.66 89.95 C 50.13 83.59 49.12 77.25 49.69 70.84 C 51.26 68.33 52.57 65.68 53.67 62.93 C 54.94 58.24 60.20 57.12 63.75 54.63 C 69.21 54.92 74.51 53.09 79.97 53.43 C 84.30 52.85 88.62 52.20 93.00 52.46 M 82.72 61.83 C 82.63 62.32 82.44 63.31 82.34 63.81 C 86.63 62.85 90.45 59.63 95.05 60.60 C 97.68 61.48 100.10 62.88 102.74 63.73 L 102.18 61.99 C 99.20 59.94 95.59 58.45 91.91 58.66 C 88.57 58.61 85.73 60.65 82.72 61.83 M 78.69 69.71 C 78.66 70.15 78.58 71.04 78.54 71.49 C 82.69 69.97 86.86 68.53 91.03 67.09 C 96.51 65.33 101.77 68.41 106.53 70.78 C 106.53 70.24 106.53 69.18 106.53 68.65 C 102.15 67.01 97.88 63.82 92.97 64.79 C 88.02 65.80 83.27 67.60 78.69 69.71 Z" />
<path fill="#fefefe" opacity="1.00" d=" M 122.72 79.46 C 124.22 79.96 125.70 80.50 127.18 81.06 C 125.51 82.08 123.79 83.84 121.62 83.09 L 121.69 81.84 C 121.95 81.24 122.47 80.06 122.72 79.46 Z" />
<path fill="#fefefe" opacity="1.00" d=" M 104.43 80.59 C 107.66 80.62 110.90 80.59 114.13 80.42 C 115.37 82.55 116.76 84.61 118.37 86.48 C 118.71 84.67 117.93 83.04 117.30 81.42 C 118.11 81.33 119.73 81.15 120.54 81.07 C 120.49 83.50 120.46 85.94 120.46 88.38 C 118.44 87.00 116.39 85.68 114.29 84.44 C 113.27 84.96 112.26 85.48 111.24 85.99 C 109.73 85.40 108.23 84.80 106.72 84.21 C 106.56 86.56 106.45 88.92 106.54 91.27 C 107.16 89.69 107.57 88.04 107.98 86.40 C 110.65 86.27 113.38 86.01 116.03 86.53 C 118.88 88.39 120.55 92.36 118.55 95.43 C 119.80 95.40 121.05 95.37 122.30 95.35 C 122.38 96.37 122.54 98.41 122.61 99.43 C 116.97 99.35 111.34 99.68 105.69 99.61 C 103.70 96.42 104.70 92.56 103.99 89.05 C 103.41 86.23 103.31 83.29 104.43 80.59 M 112.69 91.15 C 112.68 92.59 112.66 94.03 112.64 95.47 C 111.71 95.50 109.84 95.57 108.91 95.61 C 108.02 95.00 107.12 94.41 106.22 93.81 C 106.25 94.49 106.31 95.85 106.34 96.52 C 109.81 96.50 113.34 96.57 116.71 95.55 C 116.24 93.90 116.05 92.11 115.14 90.62 C 114.52 90.75 113.30 91.02 112.69 91.15 Z" />
<path fill="#fefefe" opacity="1.00" d=" M 65.91 82.93 C 67.24 83.13 68.58 83.32 69.92 83.51 C 69.35 85.11 68.77 86.72 68.20 88.32 C 68.87 88.31 70.21 88.29 70.88 88.28 C 70.19 91.35 66.50 95.63 69.79 98.23 C 73.95 99.40 78.36 98.21 82.62 98.15 C 82.16 96.29 82.18 94.17 80.95 92.61 C 78.48 92.86 78.86 95.84 78.08 97.57 C 75.54 97.48 72.99 97.40 70.44 97.31 C 69.74 93.13 71.46 89.04 75.02 86.71 C 77.84 86.33 81.01 86.20 83.59 87.62 C 84.46 89.37 84.62 91.35 85.00 93.24 C 85.46 93.33 86.37 93.51 86.83 93.60 C 85.85 90.90 84.88 88.20 84.01 85.47 C 79.88 85.23 75.75 85.67 71.76 86.73 C 72.06 86.03 72.65 84.63 72.95 83.93 C 77.63 81.48 83.28 82.95 88.36 82.26 C 87.74 88.20 90.49 94.81 87.32 100.24 C 86.21 100.59 85.10 100.97 84.01 101.37 C 78.26 101.56 72.51 101.70 66.77 101.49 C 63.23 96.02 64.55 89.19 64.37 83.05 L 65.91 82.93 Z" />
<path fill="#fefefe" opacity="1.00" d=" M 122.28 85.39 C 122.76 85.18 123.72 84.75 124.20 84.54 C 124.53 84.69 125.20 85.01 125.54 85.16 C 127.92 88.62 126.81 93.28 127.38 97.27 C 126.65 97.67 125.21 98.47 124.49 98.88 C 123.57 96.73 122.82 94.51 122.28 92.24 C 121.54 91.41 120.80 90.59 120.06 89.77 C 120.66 89.37 121.87 88.57 122.47 88.17 C 122.42 87.47 122.33 86.09 122.28 85.39 Z" />
<path fill="#fefefe" opacity="1.00" d=" M 50.61 92.76 C 54.33 90.87 58.08 88.86 62.23 88.06 C 62.35 91.75 62.38 95.44 62.73 99.12 C 63.17 102.44 66.75 104.86 69.99 104.25 C 75.80 103.35 81.70 103.64 87.56 103.50 C 92.54 99.95 91.22 93.56 91.27 88.31 C 94.38 87.00 97.86 86.89 101.10 87.77 C 102.26 90.71 101.50 93.99 101.66 97.07 C 102.52 98.89 103.33 100.74 104.24 102.54 C 106.52 106.57 110.45 109.23 113.32 112.80 C 113.53 114.06 113.77 115.32 114.03 116.58 C 114.30 114.75 115.34 112.63 114.07 110.95 C 111.89 107.90 108.39 105.99 106.64 102.57 C 107.71 102.56 109.86 102.52 110.93 102.51 C 115.22 102.37 119.52 102.66 123.79 103.04 C 126.27 108.57 125.18 114.73 122.87 120.11 C 122.73 123.00 122.57 125.95 123.29 128.78 C 125.01 134.71 124.01 140.93 124.53 147.00 C 124.94 151.36 122.54 155.83 124.56 160.00 C 124.29 161.09 124.07 162.19 123.79 163.27 C 123.78 162.41 123.76 160.68 123.75 159.82 C 121.16 165.61 115.48 169.02 110.33 172.26 C 103.29 174.68 94.80 174.65 88.44 170.37 C 88.44 170.92 88.45 172.02 88.45 172.58 C 96.78 177.48 108.08 176.67 115.91 171.09 C 116.89 169.98 117.89 168.89 118.90 167.81 C 118.84 168.70 118.70 170.46 118.64 171.34 C 118.46 172.56 118.18 173.75 117.78 174.92 C 117.63 175.46 117.33 176.54 117.19 177.07 L 116.44 177.27 C 116.17 179.72 116.37 182.56 114.43 184.42 C 109.25 189.96 101.78 192.53 94.58 194.22 C 103.95 195.75 113.17 189.59 118.23 182.04 C 120.28 182.39 122.37 182.74 124.26 183.68 C 133.21 187.94 142.58 191.25 151.60 195.35 C 146.43 196.08 141.21 195.75 136.01 195.78 C 121.80 195.76 107.58 195.90 93.38 195.63 C 93.44 195.34 93.57 194.76 93.63 194.47 C 91.41 194.22 89.19 193.91 86.97 193.60 C 86.64 194.10 85.98 195.10 85.65 195.60 C 62.38 195.96 39.09 195.85 15.83 195.61 C 17.29 195.17 18.76 194.75 20.26 194.46 C 23.99 192.18 27.45 189.51 30.99 186.96 C 35.23 184.91 39.87 183.49 43.57 180.47 C 46.58 178.02 49.54 175.46 52.95 173.55 C 54.94 181.22 61.69 186.13 68.44 189.45 C 73.66 191.86 79.01 194.85 84.98 194.31 C 75.22 190.79 64.34 187.90 57.55 179.42 C 54.61 176.49 56.07 172.08 55.24 168.43 C 52.93 159.08 52.42 149.40 50.90 139.91 C 49.78 132.89 47.35 126.11 46.76 119.00 C 46.56 117.72 47.34 116.61 47.73 115.45 C 47.98 114.85 48.48 113.65 48.72 113.05 C 47.66 113.52 46.69 114.12 45.79 114.85 L 45.43 114.79 C 44.51 113.88 43.60 112.96 42.70 112.02 C 41.38 107.78 39.16 103.60 39.70 99.02 C 39.89 97.00 40.08 94.10 42.52 93.58 C 44.88 94.74 46.73 96.66 48.55 98.51 C 49.02 98.49 49.95 98.44 50.42 98.41 C 50.49 96.53 50.55 94.64 50.61 92.76 M 42.14 95.77 C 43.97 99.09 42.39 103.67 45.60 106.17 C 45.61 102.43 46.44 97.51 42.14 95.77 M 87.44 117.42 C 88.01 117.42 89.14 117.43 89.70 117.43 C 89.29 116.29 88.88 115.16 88.48 114.02 C 89.58 112.42 90.56 110.72 90.96 108.80 C 88.01 110.36 85.36 114.18 87.44 117.42 M 106.38 116.55 L 105.46 116.44 L 105.63 117.54 C 104.66 117.56 102.72 117.59 101.75 117.61 C 102.78 118.53 104.17 118.48 105.46 118.65 C 106.33 117.62 107.19 116.57 107.98 115.47 C 108.64 115.44 109.97 115.39 110.63 115.37 C 110.59 114.82 110.51 113.71 110.47 113.16 C 108.33 113.21 107.25 114.82 106.38 116.55 M 93.09 114.10 C 92.43 117.03 95.69 116.80 97.57 117.57 C 97.57 117.07 97.57 116.07 97.57 115.57 C 96.08 115.06 94.59 114.56 93.09 114.10 M 117.08 115.07 C 117.75 116.32 118.38 117.61 119.36 118.65 C 119.97 119.43 122.36 121.00 122.22 118.75 C 121.21 116.81 119.00 115.89 117.08 115.07 M 81.71 117.68 C 79.32 121.20 74.96 121.52 71.10 121.76 C 71.75 122.28 72.17 123.23 73.06 123.38 C 77.43 124.03 81.39 120.97 83.88 117.67 C 83.34 117.68 82.25 117.68 81.71 117.68 M 89.80 130.86 C 89.17 131.59 88.55 132.33 87.95 133.08 C 83.48 137.76 84.19 145.31 87.73 150.34 C 93.64 150.57 98.82 147.31 104.45 146.09 C 104.50 145.16 104.56 144.23 104.62 143.30 C 105.97 143.31 107.32 143.39 108.66 143.52 C 108.57 144.01 108.38 145.00 108.29 145.50 C 108.97 145.51 110.33 145.54 111.01 145.55 C 110.44 145.17 109.31 144.42 108.74 144.04 C 109.92 143.51 111.10 142.97 112.27 142.43 C 112.52 142.90 113.03 143.84 113.29 144.31 C 112.76 145.19 112.24 146.08 111.72 146.97 C 113.40 147.80 115.14 148.52 116.94 149.03 C 116.15 147.14 115.26 145.30 114.36 143.48 C 111.60 140.51 110.82 135.97 111.87 132.14 C 113.95 130.60 116.20 129.10 117.09 126.52 C 112.75 125.63 108.50 123.93 103.99 124.18 C 98.50 123.99 93.70 127.34 89.80 130.86 M 52.26 136.39 C 52.71 140.82 53.47 145.36 55.71 149.28 C 56.74 150.84 57.65 153.28 60.01 152.66 C 56.32 148.13 54.03 142.40 54.21 136.50 C 53.72 136.48 52.74 136.42 52.26 136.39 M 79.41 144.37 C 79.39 147.70 78.93 154.10 83.86 153.78 C 81.43 151.16 80.89 147.79 81.38 144.33 C 80.89 144.34 79.91 144.36 79.41 144.37 M 102.32 151.51 C 102.32 152.08 102.33 153.22 102.33 153.80 C 104.79 151.80 107.82 151.35 110.88 151.72 C 110.79 151.19 110.61 150.14 110.52 149.62 C 107.69 149.65 104.82 150.10 102.32 151.51 Z" />
<path fill="#fefefe" opacity="1.00" d=" M 93.27 129.74 C 96.80 127.61 100.68 125.64 104.94 126.16 C 108.41 126.41 112.86 126.30 115.14 129.39 C 107.80 129.47 100.43 131.27 93.17 130.87 C 93.20 130.58 93.25 130.02 93.27 129.74 Z" />
<path fill="#fefefe" opacity="1.00" d=" M 92.79 144.78 C 94.42 144.72 96.04 144.57 97.65 144.33 C 98.57 144.30 100.41 144.24 101.33 144.20 C 100.45 147.50 96.13 146.24 93.95 148.27 C 91.82 148.45 89.67 148.73 87.54 148.38 C 86.24 144.83 90.72 145.68 92.79 144.78 Z" />
</g>
<g id="#000001ff">
<path fill="#000001" opacity="1.00" d=" M 109.95 35.96 C 112.91 36.18 115.72 35.11 118.63 34.77 C 117.93 35.68 117.16 36.53 116.44 37.41 C 119.79 43.92 119.41 51.46 119.29 58.56 C 118.63 58.07 117.98 57.56 117.34 57.05 C 115.97 55.27 114.93 53.26 113.49 51.53 C 106.67 50.58 99.78 51.70 93.00 52.46 C 88.62 52.20 84.30 52.85 79.97 53.43 C 74.51 53.09 69.21 54.92 63.75 54.63 C 60.20 57.12 54.94 58.24 53.67 62.93 C 52.57 65.68 51.26 68.33 49.69 70.84 C 49.12 77.25 50.13 83.59 50.66 89.95 C 54.22 88.43 57.90 87.16 61.30 85.30 C 62.27 83.95 62.37 82.19 62.87 80.64 C 71.42 80.80 79.89 78.82 88.44 79.51 C 91.37 80.02 90.40 83.62 90.79 85.70 C 94.21 84.38 97.86 84.24 101.46 84.83 C 101.48 83.16 101.51 81.50 101.54 79.83 C 102.21 79.00 102.88 78.17 103.55 77.33 C 103.83 77.41 104.38 77.56 104.66 77.63 C 110.16 79.67 115.99 77.65 121.61 77.38 C 123.92 77.19 126.35 77.22 128.28 78.68 C 128.22 80.47 128.16 82.27 128.08 84.07 C 126.78 84.16 125.44 84.11 124.20 84.54 C 123.72 84.75 122.76 85.18 122.28 85.39 C 122.07 85.95 121.64 87.07 121.42 87.63 C 121.50 86.11 121.55 84.60 121.62 83.09 C 123.79 83.84 125.51 82.08 127.18 81.06 C 125.70 80.50 124.22 79.96 122.72 79.46 C 121.03 79.62 119.36 79.88 117.69 80.19 C 116.50 80.27 115.31 80.34 114.13 80.42 C 110.90 80.59 107.66 80.62 104.43 80.59 C 103.31 83.29 103.41 86.23 103.99 89.05 C 104.70 92.56 103.70 96.42 105.69 99.61 C 110.32 101.28 115.33 100.10 120.10 99.89 C 122.64 99.46 126.09 100.08 127.38 97.27 C 127.73 94.88 128.15 92.51 128.71 90.16 C 129.22 93.47 129.47 96.81 129.27 100.15 C 123.45 102.52 117.08 102.14 110.93 102.51 C 109.86 102.52 107.71 102.56 106.64 102.57 C 105.84 102.56 105.04 102.55 104.24 102.54 C 103.33 100.74 102.52 98.89 101.66 97.07 C 101.50 93.99 102.26 90.71 101.10 87.77 C 97.86 86.89 94.38 87.00 91.27 88.31 C 91.22 93.56 92.54 99.95 87.56 103.50 C 81.70 103.64 75.80 103.35 69.99 104.25 C 66.75 104.86 63.17 102.44 62.73 99.12 C 62.38 95.44 62.35 91.75 62.23 88.06 C 58.08 88.86 54.33 90.87 50.61 92.76 C 50.55 94.64 50.49 96.53 50.42 98.41 C 49.95 98.44 49.02 98.49 48.55 98.51 C 46.73 96.66 44.88 94.74 42.52 93.58 C 41.76 93.31 41.00 93.04 40.24 92.79 C 40.09 93.33 39.79 94.40 39.64 94.93 C 39.35 93.39 39.05 91.85 38.76 90.31 C 38.25 85.89 37.54 81.48 37.57 77.01 C 37.69 70.35 36.64 63.45 39.51 57.17 C 41.30 53.23 42.83 49.05 45.80 45.81 C 49.14 42.12 53.10 38.94 57.46 36.53 C 60.28 36.05 63.17 36.38 66.01 36.08 C 70.34 35.46 74.72 36.97 79.01 35.71 C 89.32 36.15 99.65 35.43 109.95 35.96 M 72.79 82.74 C 70.15 82.42 67.48 82.17 64.85 82.67 L 65.91 82.93 L 64.37 83.05 C 64.55 89.19 63.23 96.02 66.77 101.49 C 72.51 101.70 78.26 101.56 84.01 101.37 C 85.10 100.97 86.21 100.59 87.32 100.24 C 90.49 94.81 87.74 88.20 88.36 82.26 C 83.33 80.61 77.96 82.80 72.79 82.74 Z" />
<path fill="#000001" opacity="1.00" d=" M 106.38 116.55 C 107.25 114.82 108.33 113.21 110.47 113.16 C 110.51 113.71 110.59 114.82 110.63 115.37 C 109.97 115.39 108.64 115.44 107.98 115.47 C 107.19 116.57 106.33 117.62 105.46 118.65 C 104.17 118.48 102.78 118.53 101.75 117.61 C 102.72 117.59 104.66 117.56 105.63 117.54 L 105.46 116.44 L 106.38 116.55 Z" />
<path fill="#000001" opacity="1.00" d=" M 87.95 133.08 C 88.55 132.33 89.17 131.59 89.80 130.86 C 94.39 132.73 99.47 131.70 104.25 131.29 C 106.62 131.20 108.97 130.83 111.29 130.39 C 110.24 134.40 110.44 138.67 112.27 142.43 C 111.10 142.97 109.92 143.51 108.74 144.04 C 109.31 144.42 110.44 145.17 111.01 145.55 C 110.33 145.54 108.97 145.51 108.29 145.50 C 108.38 145.00 108.57 144.01 108.66 143.52 C 107.32 143.39 105.97 143.31 104.62 143.30 C 102.26 143.34 99.91 143.65 97.65 144.33 C 96.04 144.57 94.42 144.72 92.79 144.78 C 90.40 144.75 88.02 144.64 85.63 144.53 C 85.66 140.60 86.32 136.67 87.95 133.08 Z" />
</g>
</svg>
