<?xml version="1.0" encoding="UTF-8" ?>
<!DOCTYPE svg PUBLIC "-//W3C//DTD SVG 1.1//EN" "http://www.w3.org/Graphics/SVG/1.1/DTD/svg11.dtd">
<svg width="210pt" height="220pt" viewBox="0 0 210 220" version="1.1" xmlns="http://www.w3.org/2000/svg">
<g id="#6e6e6ef4">
<path fill="#6e6e6e" opacity="0.96" d=" M 94.54 9.81 C 97.42 8.72 100.37 7.26 103.52 7.51 C 98.28 9.58 93.04 11.62 87.77 13.62 C 90.82 13.71 93.87 13.77 96.92 13.70 C 95.78 14.49 94.67 15.32 93.57 16.16 C 98.03 16.12 102.50 15.98 106.92 16.58 C 106.76 17.28 106.42 18.70 106.25 19.41 C 96.54 20.63 86.69 21.01 77.09 22.98 C 74.64 23.32 73.41 25.62 72.01 27.36 C 63.82 27.10 55.75 28.72 47.91 30.95 C 53.88 26.52 61.59 27.31 68.28 24.95 C 79.55 18.47 93.09 20.85 105.26 17.55 C 100.40 17.10 95.55 17.51 90.74 18.14 C 86.76 18.69 83.01 16.66 79.06 16.73 C 73.85 17.77 68.83 19.62 63.70 20.97 C 63.78 20.38 63.95 19.19 64.04 18.60 L 64.18 17.58 C 66.38 17.87 68.57 18.27 70.77 18.55 C 72.68 16.61 75.26 16.33 77.83 16.19 C 83.34 13.88 89.31 12.78 94.54 9.81 Z" />
<path fill="#6e6e6e" opacity="0.96" d=" M 112.17 7.65 C 113.02 7.42 113.88 7.21 114.74 7.02 C 117.78 8.63 120.98 9.90 124.11 11.32 C 127.59 11.38 131.23 9.62 134.53 11.52 C 139.23 12.56 143.53 15.22 146.00 19.45 C 147.70 18.81 149.41 18.25 151.17 17.79 C 149.31 19.22 147.47 20.69 145.60 22.10 C 143.61 20.13 141.61 18.17 139.59 16.23 C 138.89 17.51 138.20 18.81 137.43 20.05 C 137.23 18.78 137.03 17.52 136.81 16.25 C 132.40 15.31 127.88 15.14 123.43 14.42 C 119.16 13.75 115.18 11.96 110.98 10.98 C 107.59 10.07 104.13 11.13 100.81 11.85 C 104.34 9.83 108.26 8.68 112.17 7.65 Z" />
<path fill="#6e6e6e" opacity="0.96" d=" M 153.67 16.34 C 154.37 15.44 155.22 14.69 156.23 14.09 C 156.42 15.87 156.58 17.65 156.71 19.43 C 155.48 19.75 154.25 20.07 153.03 20.39 C 153.23 19.04 153.44 17.69 153.67 16.34 Z" />
<path fill="#6e6e6e" opacity="0.96" d=" M 49.66 25.77 C 52.40 24.56 53.54 21.57 55.42 19.44 C 57.96 20.14 60.45 20.99 62.93 21.85 C 61.72 23.17 60.50 24.48 59.28 25.79 C 58.09 24.77 56.90 23.76 55.72 22.74 C 51.35 26.58 46.30 29.52 40.81 31.44 C 42.71 28.23 46.70 27.64 49.66 25.77 Z" />
<path fill="#6e6e6e" opacity="0.96" d=" M 90.51 24.26 C 92.98 23.02 96.17 21.23 98.74 23.26 C 98.03 26.97 93.43 26.98 90.51 27.75 C 90.51 26.59 90.51 25.42 90.51 24.26 Z" />
<path fill="#6e6e6e" opacity="0.96" d=" M 148.18 23.83 C 148.59 23.53 149.41 22.93 149.82 22.63 C 150.65 24.55 151.56 26.45 152.83 28.12 C 155.22 31.24 156.25 35.18 158.74 38.24 C 164.38 43.85 166.39 51.85 170.53 58.47 C 172.25 60.61 170.85 63.22 170.26 65.49 C 168.20 57.90 165.21 50.58 160.99 43.94 C 156.60 37.31 153.15 30.07 148.18 23.83 Z" />
<path fill="#6e6e6e" opacity="0.96" d=" M 92.40 31.47 C 98.57 32.80 104.13 28.68 110.28 29.08 C 109.82 30.51 109.48 32.11 108.13 32.99 C 108.26 31.98 108.40 30.96 108.54 29.94 C 103.95 30.95 98.94 31.74 95.62 35.41 C 97.62 35.18 99.62 34.93 101.60 34.58 C 101.02 35.54 100.45 36.50 99.88 37.46 C 103.26 37.15 106.62 36.58 110.01 36.46 C 109.26 37.81 108.70 39.66 106.88 39.84 C 102.66 40.88 98.32 41.45 94.13 42.69 C 94.86 41.15 95.60 39.61 96.35 38.08 C 95.04 35.87 93.84 33.59 92.40 31.47 Z" />
<path fill="#6e6e6e" opacity="0.96" d=" M 128.96 39.37 C 130.99 36.01 133.10 32.63 135.96 29.90 C 133.81 33.64 131.73 37.42 129.84 41.29 C 130.39 41.19 131.48 40.97 132.02 40.86 C 130.55 43.04 128.91 45.09 127.38 47.21 C 126.75 46.81 125.49 45.99 124.86 45.58 C 125.51 44.67 126.15 43.76 126.80 42.84 C 125.67 42.27 124.55 41.69 123.43 41.11 C 123.75 40.41 124.38 39.01 124.70 38.31 C 126.12 38.65 127.54 39.01 128.96 39.37 Z" />
<path fill="#6e6e6e" opacity="0.96" d=" M 25.00 45.26 C 30.92 43.44 30.83 34.77 37.40 34.23 C 32.83 39.15 28.63 44.39 24.52 49.68 C 22.90 53.20 23.16 57.25 22.69 61.03 C 22.11 56.49 21.31 51.87 22.18 47.30 C 23.08 46.57 24.06 45.93 25.00 45.26 Z" />
<path fill="#6e6e6e" opacity="0.96" d=" M 132.02 40.86 C 137.19 39.48 142.53 41.10 147.22 43.30 C 146.58 43.59 145.31 44.18 144.68 44.48 C 144.19 48.38 143.58 52.28 142.91 56.16 C 141.92 52.43 142.59 48.57 142.84 44.80 C 140.13 44.67 137.42 44.61 134.71 44.58 C 136.71 43.65 138.78 42.89 140.84 42.12 C 137.89 41.77 134.94 41.37 132.02 40.86 Z" />
<path fill="#6e6e6e" opacity="0.96" d=" M 30.46 57.73 C 31.66 52.51 32.01 47.08 33.93 42.06 C 33.68 45.96 33.49 49.88 32.65 53.71 C 30.26 65.20 28.13 76.84 28.40 88.62 C 27.15 90.00 24.79 90.96 24.87 93.11 C 24.84 107.40 35.32 119.29 34.76 133.68 C 39.98 133.14 45.25 132.68 50.37 131.43 C 53.52 130.68 55.61 127.95 58.52 126.71 C 62.77 124.94 67.41 124.44 71.74 122.88 C 75.34 121.73 77.80 118.17 81.77 117.97 C 94.83 116.51 108.12 117.11 120.98 114.10 C 116.13 116.99 110.34 117.21 104.87 117.87 C 97.43 118.73 89.85 118.02 82.48 119.50 C 79.28 120.18 76.94 122.72 73.90 123.77 C 68.12 125.76 61.61 125.90 56.43 129.45 C 53.77 131.29 51.00 132.98 48.25 134.68 C 54.91 134.99 61.22 132.07 67.84 132.28 C 72.49 133.17 77.20 133.95 81.96 133.37 C 82.69 130.79 83.75 128.31 85.49 126.25 C 86.68 127.09 87.87 127.93 89.08 128.75 C 87.88 128.54 86.69 128.34 85.49 128.16 C 85.15 128.67 84.46 129.71 84.12 130.23 C 83.68 131.67 83.55 133.18 83.36 134.67 C 78.19 133.72 72.56 135.87 67.81 133.17 C 64.97 131.65 62.91 135.11 60.04 134.50 C 56.47 133.96 53.59 136.74 50.06 136.48 C 47.12 136.43 44.41 137.66 41.58 138.24 C 43.76 137.01 45.88 135.69 47.97 134.32 C 43.21 133.99 38.45 135.14 33.71 134.53 C 32.75 129.13 32.70 123.53 30.66 118.36 C 27.67 110.45 23.67 102.62 23.57 93.96 C 23.14 90.15 27.23 87.79 27.13 84.02 C 27.52 75.18 28.63 66.39 30.46 57.73 Z" />
<path fill="#6e6e6e" opacity="0.96" d=" M 107.84 44.43 C 108.65 44.53 109.47 44.62 110.30 44.70 C 110.35 47.12 110.39 49.55 110.49 51.97 C 109.51 51.65 108.54 51.34 107.57 51.03 C 107.59 52.40 107.62 53.77 107.65 55.15 C 105.14 51.89 107.79 48.02 107.84 44.43 Z" />
<path fill="#6e6e6e" opacity="0.96" d=" M 43.88 50.40 C 43.95 47.58 45.60 45.67 48.33 45.02 C 47.27 46.20 46.25 47.42 45.22 48.64 C 59.18 50.47 73.44 48.96 87.29 51.72 C 90.11 52.15 91.62 54.76 93.14 56.86 C 91.00 55.30 89.04 53.14 86.28 52.77 C 82.86 52.25 79.42 51.90 75.98 51.55 C 76.66 52.50 77.35 53.45 78.03 54.40 C 73.76 54.47 69.48 54.67 65.21 54.50 C 65.44 53.72 65.89 52.17 66.12 51.39 C 58.68 51.60 51.29 50.81 43.88 50.40 Z" />
<path fill="#6e6e6e" opacity="0.96" d=" M 27.54 47.23 C 28.34 47.68 29.93 48.58 30.72 49.03 C 29.83 51.58 30.18 55.81 26.51 55.87 C 26.52 52.96 26.92 50.07 27.54 47.23 Z" />
<path fill="#6e6e6e" opacity="0.96" d=" M 160.14 48.71 C 161.96 52.29 164.15 55.76 165.07 59.72 C 166.37 65.07 166.27 70.86 168.96 75.79 C 171.02 75.33 172.25 73.54 173.63 72.12 C 176.18 76.99 177.49 82.36 179.34 87.52 C 179.79 88.59 179.89 89.79 179.53 90.91 C 178.93 93.10 178.29 95.27 177.65 97.44 C 175.56 98.49 173.49 99.60 171.57 100.95 C 171.28 96.34 172.15 91.76 172.04 87.17 C 170.77 84.18 168.75 81.56 167.68 78.47 C 165.17 71.32 165.35 63.52 162.71 56.40 C 161.76 53.87 160.89 51.31 160.14 48.71 M 169.50 79.66 C 171.48 82.86 173.85 85.95 174.31 89.81 C 175.58 89.77 176.86 89.74 178.13 89.71 C 178.97 86.04 177.18 82.68 175.96 79.34 C 173.81 79.46 171.65 79.56 169.50 79.66 Z" />
<path fill="#6e6e6e" opacity="0.96" d=" M 160.84 59.78 C 162.83 67.04 163.46 75.00 161.47 82.32 C 161.33 79.84 161.21 77.37 161.09 74.90 C 160.16 76.64 159.24 78.39 158.26 80.10 C 158.95 73.88 159.10 67.54 157.92 61.37 C 158.89 60.84 159.87 60.31 160.84 59.78 Z" />
<path fill="#6e6e6e" opacity="0.96" d=" M 110.56 62.02 C 110.86 61.48 111.45 60.42 111.74 59.89 C 114.90 62.79 117.83 66.15 118.93 70.40 C 118.30 70.40 117.04 70.40 116.40 70.41 C 114.36 67.69 111.94 65.16 110.56 62.02 Z" />
<path fill="#6e6e6e" opacity="0.96" d=" M 19.51 66.35 C 20.08 65.89 21.23 64.96 21.80 64.50 C 22.21 67.07 21.76 69.61 20.11 71.68 C 19.84 69.91 19.59 68.13 19.51 66.35 Z" />
<path fill="#6e6e6e" opacity="0.96" d=" M 136.15 67.09 C 139.37 72.25 138.48 78.53 138.53 84.31 C 135.63 79.05 136.90 72.81 136.15 67.09 Z" />
<path fill="#6e6e6e" opacity="0.96" d=" M 170.55 69.67 C 170.52 68.57 170.48 67.48 170.43 66.39 C 173.15 66.74 172.63 69.45 172.81 71.47 C 172.05 70.87 171.30 70.27 170.55 69.67 Z" />
<path fill="#6e6e6e" opacity="0.96" d=" M 134.46 70.57 C 136.54 75.20 135.88 80.39 137.02 85.22 C 137.49 87.25 139.69 87.40 141.39 87.13 C 145.58 86.70 149.86 86.61 153.89 85.23 C 153.91 86.33 153.94 87.44 153.98 88.54 C 148.92 90.69 142.50 91.31 137.75 88.18 C 132.92 83.67 134.83 76.41 134.46 70.57 Z" />
<path fill="#6e6e6e" opacity="0.96" d=" M 22.61 71.54 C 23.29 71.55 24.64 71.56 25.32 71.57 C 25.84 73.65 24.79 75.51 23.97 77.34 C 22.82 75.62 22.06 73.62 22.61 71.54 Z" />
<path fill="#6e6e6e" opacity="0.96" d=" M 17.71 78.99 C 17.09 77.29 18.59 76.55 19.78 75.80 C 19.81 79.88 19.12 83.92 19.18 88.00 C 19.23 92.28 20.19 96.48 20.30 100.76 C 19.59 100.36 18.16 99.56 17.44 99.16 C 18.61 92.50 18.91 85.67 17.71 78.99 Z" />
<path fill="#6e6e6e" opacity="0.96" d=" M 158.43 91.48 C 159.99 91.27 161.56 91.49 163.12 91.62 C 161.24 93.40 159.07 95.39 156.25 94.72 C 154.55 92.93 156.85 91.84 158.43 91.48 Z" />
<path fill="#6e6e6e" opacity="0.96" d=" M 47.26 96.13 C 50.20 96.44 53.62 95.88 56.03 97.98 C 59.44 100.70 63.23 102.88 67.10 104.86 C 66.57 105.32 66.02 105.76 65.45 106.18 C 58.98 105.57 53.42 101.94 47.61 99.37 C 47.49 98.29 47.37 97.21 47.26 96.13 M 48.60 97.37 C 51.39 100.44 55.41 101.89 59.24 103.18 C 57.87 101.42 56.61 99.41 54.61 98.31 C 52.70 97.57 50.62 97.54 48.60 97.37 Z" />
<path fill="#6e6e6e" opacity="0.96" d=" M 169.77 105.53 C 172.41 104.01 174.87 101.98 177.97 101.51 C 172.99 105.42 167.27 108.16 161.94 111.51 C 161.11 111.20 159.44 110.58 158.61 110.26 C 162.41 108.89 166.29 107.61 169.77 105.53 Z" />
<path fill="#6e6e6e" opacity="0.96" d=" M 20.45 102.62 C 21.21 105.60 22.28 108.54 23.90 111.17 C 25.50 113.92 27.58 116.71 27.32 120.07 L 27.34 121.21 C 25.36 119.58 25.28 116.92 24.22 114.77 C 22.82 112.73 20.60 111.28 19.54 109.01 C 19.40 106.84 19.92 104.71 20.45 102.62 Z" />
<path fill="#6e6e6e" opacity="0.96" d=" M 151.00 106.78 C 155.43 106.74 159.79 105.91 164.13 105.08 C 157.19 108.84 149.10 108.51 141.46 108.57 C 141.66 109.47 142.07 111.27 142.28 112.17 C 144.89 112.33 147.51 112.50 150.14 112.52 C 149.74 113.08 148.96 114.19 148.57 114.75 C 144.99 114.83 141.07 113.50 137.82 115.50 C 136.35 116.21 134.80 116.72 133.26 117.26 C 132.18 120.74 131.30 124.70 128.46 127.21 C 125.94 127.50 123.39 127.41 120.85 127.53 C 121.38 129.44 122.54 131.29 122.32 133.33 C 121.08 134.66 119.70 136.98 117.60 136.49 C 115.98 134.90 114.54 133.15 112.97 131.51 C 114.90 131.97 116.84 132.45 118.77 132.93 C 119.68 129.42 120.78 125.95 122.25 122.63 C 123.69 123.11 125.15 123.51 126.62 123.90 C 127.55 121.70 128.41 119.47 129.17 117.21 C 125.68 117.34 122.21 117.82 118.81 118.66 C 119.56 119.81 120.30 120.98 121.08 122.11 C 119.85 121.54 118.62 120.96 117.40 120.37 C 119.86 114.65 126.85 116.91 131.67 115.71 C 134.63 115.10 133.12 111.33 133.53 109.24 C 130.58 110.02 127.66 110.89 124.79 111.93 C 127.06 110.40 129.32 108.74 131.98 107.95 C 138.14 106.00 144.67 107.00 151.00 106.78 Z" />
<path fill="#6e6e6e" opacity="0.96" d=" M 151.49 112.36 C 153.38 111.82 155.26 111.26 157.16 110.73 C 156.10 113.15 153.67 112.94 151.49 112.36 Z" />
<path fill="#6e6e6e" opacity="0.96" d=" M 45.27 125.42 C 46.61 125.47 47.95 125.52 49.29 125.58 C 49.39 126.70 49.48 127.83 49.58 128.96 C 48.40 129.13 47.21 129.26 46.02 129.34 C 44.86 128.33 45.31 126.74 45.27 125.42 Z" />
<path fill="#6e6e6e" opacity="0.96" d=" M 26.55 129.00 C 26.89 128.29 27.57 126.85 27.91 126.13 C 28.50 128.13 29.08 130.15 29.43 132.21 C 28.45 131.18 26.97 130.45 26.55 129.00 Z" />
<path fill="#6e6e6e" opacity="0.96" d=" M 102.25 134.21 C 103.57 134.88 103.56 135.56 102.23 136.24 C 100.93 135.56 100.93 134.88 102.25 134.21 Z" />
<path fill="#6e6e6e" opacity="0.96" d=" M 27.43 135.37 C 30.27 136.92 32.95 138.73 35.64 140.51 C 34.52 141.23 33.40 141.93 32.27 142.63 C 31.04 140.66 29.65 138.73 27.38 137.88 C 27.40 137.25 27.42 136.00 27.43 135.37 Z" />
<path fill="#6e6e6e" opacity="0.96" d=" M 36.66 139.46 C 37.39 138.31 38.78 138.04 40.04 138.27 C 40.65 140.05 37.43 141.10 36.66 139.46 Z" />
<path fill="#6e6e6e" opacity="0.96" d=" M 136.93 145.88 C 138.95 144.06 141.30 142.66 143.55 141.15 C 145.84 143.08 148.88 143.38 151.46 144.70 C 155.41 148.23 157.25 153.57 156.43 158.80 C 157.84 158.73 159.25 158.69 160.66 158.66 C 157.94 159.89 155.16 160.99 152.28 161.78 C 152.37 158.76 152.48 155.73 152.36 152.71 C 153.56 154.48 154.71 156.29 155.90 158.08 C 155.66 153.42 154.59 148.40 150.47 145.61 C 146.79 141.67 141.01 143.79 136.93 145.88 Z" />
<path fill="#6e6e6e" opacity="0.96" d=" M 114.34 141.70 C 116.96 140.67 119.08 142.46 120.87 144.12 C 118.78 143.98 116.71 143.77 114.64 143.51 L 114.34 141.70 Z" />
<path fill="#6e6e6e" opacity="0.96" d=" M 116.57 156.64 C 124.80 156.12 133.04 156.78 141.27 156.50 C 140.00 157.40 138.63 158.33 137.02 158.36 C 130.91 158.83 124.76 156.79 118.72 158.49 C 124.02 159.88 129.47 158.54 134.85 158.91 C 134.12 160.32 133.38 161.74 132.54 163.09 C 132.56 162.47 132.58 161.22 132.59 160.60 C 127.23 160.35 121.85 160.62 116.48 160.41 C 116.51 159.15 116.54 157.89 116.57 156.64 Z" />
<path fill="#6e6e6e" opacity="0.96" d=" M 84.13 166.50 C 89.07 165.20 92.00 160.82 95.91 157.92 C 94.16 160.45 92.63 163.27 90.09 165.13 C 88.20 165.92 86.12 166.07 84.13 166.50 Z" />
<path fill="#6e6e6e" opacity="0.96" d=" M 165.27 158.22 C 167.78 158.28 168.47 161.88 171.06 161.82 C 172.92 161.99 175.06 161.65 176.47 163.20 C 170.60 163.94 166.10 168.27 160.31 169.21 C 157.35 169.74 154.33 169.60 151.34 169.61 C 151.08 169.03 150.56 167.86 150.30 167.28 L 151.16 167.48 C 157.15 169.61 163.34 167.10 168.85 164.76 C 166.29 162.82 163.20 161.73 159.99 161.64 C 161.72 161.22 163.46 160.85 165.22 160.51 C 165.21 159.74 165.22 158.98 165.27 158.22 Z" />
<path fill="#6e6e6e" opacity="0.96" d=" M 177.59 161.49 C 180.68 157.41 188.45 159.80 187.53 165.22 C 184.54 163.25 181.25 161.60 177.59 161.49 Z" />
<path fill="#6e6e6e" opacity="0.96" d=" M 62.66 168.87 C 65.76 168.57 68.90 168.80 72.00 169.11 C 69.75 169.24 67.43 169.02 65.26 169.71 C 62.27 171.66 60.24 175.01 56.55 175.82 C 56.55 177.11 56.55 178.40 56.55 179.69 C 54.31 178.72 52.03 177.02 49.47 177.80 C 45.94 178.69 42.32 179.01 38.71 178.42 C 38.55 180.39 38.39 182.37 38.34 184.36 C 34.58 183.29 35.93 179.08 35.78 176.20 C 38.04 176.43 40.06 177.46 42.16 178.24 C 47.94 177.93 53.03 174.55 58.77 173.83 C 59.99 172.13 60.85 170.05 62.66 168.87 Z" />
<path fill="#6e6e6e" opacity="0.96" d=" M 187.33 168.72 C 190.42 169.56 189.26 172.48 188.47 174.71 C 187.90 172.75 187.43 170.76 187.33 168.72 Z" />
<path fill="#6e6e6e" opacity="0.96" d=" M 86.72 169.73 C 89.50 172.31 92.11 175.10 94.38 178.15 C 88.92 179.60 82.90 180.45 77.49 178.38 C 77.76 177.93 78.32 177.04 78.59 176.59 L 79.26 176.77 C 83.28 178.05 87.54 177.54 91.68 177.46 C 89.97 174.92 88.23 172.40 86.72 169.73 Z" />
<path fill="#6e6e6e" opacity="0.96" d=" M 189.08 176.96 C 190.40 178.95 192.00 180.90 192.60 183.24 C 192.71 186.46 192.54 189.69 192.51 192.92 C 190.95 192.55 189.40 192.13 187.87 191.67 C 186.81 192.38 185.76 193.09 184.69 193.79 C 185.32 193.06 185.95 192.33 186.58 191.60 C 188.36 191.54 190.14 191.48 191.92 191.41 C 191.51 186.50 190.36 181.71 189.08 176.96 Z" />
<path fill="#6e6e6e" opacity="0.96" d=" M 42.66 184.52 C 41.80 183.28 42.79 181.68 44.26 181.74 C 57.10 180.64 70.10 182.66 82.32 186.65 C 74.08 186.70 66.23 183.66 58.03 183.39 C 53.23 183.16 48.42 183.26 43.62 183.51 C 46.24 188.14 46.94 193.44 48.40 198.42 C 51.50 200.15 54.98 201.06 58.03 202.90 C 57.07 203.90 56.12 204.91 55.18 205.93 C 58.89 208.00 62.46 210.39 65.19 213.69 C 67.43 212.52 69.69 211.37 72.02 210.37 C 71.36 211.18 70.69 211.99 70.02 212.78 C 68.27 214.53 66.38 217.80 63.45 216.44 C 59.28 214.29 54.13 213.84 50.78 210.30 C 48.47 207.88 45.42 205.69 44.99 202.12 C 48.95 205.88 52.74 209.84 57.14 213.11 C 56.03 209.96 54.93 206.78 53.27 203.87 C 51.86 201.15 48.72 200.22 46.28 198.71 C 46.08 193.75 44.63 189.03 42.66 184.52 Z" />
<path fill="#6e6e6e" opacity="0.96" d=" M 94.70 185.39 C 99.27 185.33 103.79 186.04 108.29 186.81 C 108.44 187.72 108.59 188.63 108.75 189.54 C 101.82 189.75 94.74 189.85 88.07 187.66 C 93.09 187.65 98.12 187.65 103.14 187.58 C 100.32 186.86 97.52 186.08 94.70 185.39 Z" />
<path fill="#6e6e6e" opacity="0.96" d=" M 38.76 185.57 C 40.92 190.60 41.61 196.15 44.04 201.08 C 42.06 199.56 39.21 197.96 39.72 195.00 C 40.08 192.64 38.80 190.72 37.48 188.92 C 37.80 188.08 38.44 186.41 38.76 185.57 Z" />
<path fill="#6e6e6e" opacity="0.96" d=" M 177.63 202.84 C 179.38 199.92 181.42 197.19 183.81 194.77 C 184.02 198.66 180.19 200.64 177.63 202.84 Z" />
<path fill="#6e6e6e" opacity="0.96" d=" M 169.63 207.22 C 171.21 205.98 173.03 205.11 174.99 204.68 C 174.80 205.44 174.41 206.96 174.22 207.71 C 172.68 207.56 171.15 207.39 169.63 207.22 Z" />
<path fill="#6e6e6e" opacity="0.96" d=" M 62.93 207.32 C 73.65 208.07 84.24 210.49 95.02 210.40 C 100.18 210.42 105.17 208.99 110.22 208.14 C 110.42 209.84 110.62 211.55 110.83 213.26 C 123.92 213.57 137.14 214.53 150.10 212.11 C 136.94 217.79 122.29 213.32 108.53 215.16 C 115.92 218.53 124.14 217.46 132.00 217.61 C 136.77 217.72 141.49 216.94 146.19 216.24 C 152.17 215.59 157.20 211.90 163.08 210.82 C 158.80 214.03 153.83 216.14 149.03 218.42 C 141.00 218.99 133.02 217.40 125.00 217.84 C 119.34 218.47 113.64 218.39 107.95 218.51 C 104.71 218.97 102.34 215.69 99.05 216.34 C 94.89 216.00 90.23 217.78 86.51 215.26 C 84.12 213.75 81.15 214.79 78.49 214.64 C 78.15 214.15 77.48 213.18 77.14 212.69 C 81.78 213.35 86.39 214.19 91.08 214.41 C 96.03 214.59 100.93 217.32 105.83 215.32 C 104.51 214.18 103.27 212.92 101.75 212.04 C 99.22 211.42 96.58 211.68 93.99 211.58 C 87.29 211.60 80.63 210.71 73.96 210.21 C 70.18 209.77 66.20 209.44 62.93 207.32 Z" />
</g>
<g id="#010101fe">
<path fill="#010101" opacity="1.00" d=" M 87.77 13.62 C 93.04 11.62 98.28 9.58 103.52 7.51 C 106.40 7.19 109.30 7.43 112.17 7.65 C 108.26 8.68 104.34 9.83 100.81 11.85 C 99.51 12.47 98.22 13.09 96.92 13.70 C 93.87 13.77 90.82 13.71 87.77 13.62 Z" />
<path fill="#010101" opacity="1.00" d=" M 139.59 16.23 C 141.61 18.17 143.61 20.13 145.60 22.10 C 147.47 20.69 149.31 19.22 151.17 17.79 C 151.97 17.26 152.80 16.77 153.67 16.34 C 153.44 17.69 153.23 19.04 153.03 20.39 C 151.95 21.13 150.88 21.87 149.82 22.63 C 149.41 22.93 148.59 23.53 148.18 23.83 C 153.15 30.07 156.60 37.31 160.99 43.94 C 165.21 50.58 168.20 57.90 170.26 65.49 C 170.30 65.71 170.39 66.16 170.43 66.39 C 170.48 67.48 170.52 68.57 170.55 69.67 C 171.30 70.27 172.05 70.87 172.81 71.47 L 173.63 72.12 C 172.25 73.54 171.02 75.33 168.96 75.79 C 166.27 70.86 166.37 65.07 165.07 59.72 C 164.15 55.76 161.96 52.29 160.14 48.71 C 158.32 44.28 154.26 41.34 152.15 37.08 C 149.72 32.43 147.51 27.46 143.24 24.17 C 140.69 25.92 138.09 27.64 135.96 29.90 C 133.10 32.63 130.99 36.01 128.96 39.37 C 127.54 39.01 126.12 38.65 124.70 38.31 C 124.38 39.01 123.75 40.41 123.43 41.11 C 124.55 41.69 125.67 42.27 126.80 42.84 C 126.15 43.76 125.51 44.67 124.86 45.58 C 123.71 47.34 122.19 48.94 121.56 50.99 C 121.47 53.99 122.60 56.89 122.42 59.89 C 121.63 61.12 120.79 62.30 119.87 63.44 C 119.21 61.30 118.63 59.14 118.17 56.96 C 116.62 57.66 115.07 58.38 113.51 59.07 C 113.30 53.21 113.08 47.25 114.82 41.57 C 116.36 41.58 117.91 41.58 119.45 41.57 C 121.07 37.83 122.44 33.95 124.36 30.35 C 125.12 28.56 127.08 28.08 128.70 27.39 C 132.36 26.01 134.90 22.87 137.43 20.05 C 138.20 18.81 138.89 17.51 139.59 16.23 Z" />
<path fill="#010101" opacity="1.00" d=" M 63.70 20.97 C 68.83 19.62 73.85 17.77 79.06 16.73 C 83.01 16.66 86.76 18.69 90.74 18.14 C 95.55 17.51 100.40 17.10 105.26 17.55 C 93.09 20.85 79.55 18.47 68.28 24.95 C 61.59 27.31 53.88 26.52 47.91 30.95 C 42.72 33.83 37.16 36.87 33.93 42.06 C 32.01 47.08 31.66 52.51 30.46 57.73 C 28.63 66.39 27.52 75.18 27.13 84.02 C 27.23 87.79 23.14 90.15 23.57 93.96 C 23.67 102.62 27.67 110.45 30.66 118.36 C 32.70 123.53 32.75 129.13 33.71 134.53 C 38.45 135.14 43.21 133.99 47.97 134.32 C 45.88 135.69 43.76 137.01 41.58 138.24 C 41.19 138.25 40.42 138.26 40.04 138.27 C 38.78 138.04 37.39 138.31 36.66 139.46 C 36.41 139.72 35.90 140.25 35.64 140.51 C 32.95 138.73 30.27 136.92 27.43 135.37 C 28.14 134.35 28.85 133.32 29.43 132.21 C 29.08 130.15 28.50 128.13 27.91 126.13 C 27.30 124.17 27.44 122.09 27.32 120.07 C 27.58 116.71 25.50 113.92 23.90 111.17 C 22.28 108.54 21.21 105.60 20.45 102.62 C 20.41 102.15 20.34 101.22 20.30 100.76 C 20.19 96.48 19.23 92.28 19.18 88.00 C 19.12 83.92 19.81 79.88 19.78 75.80 C 19.79 72.37 19.64 68.94 19.46 65.51 L 19.51 66.35 C 19.59 68.13 19.84 69.91 20.11 71.68 C 21.76 69.61 22.21 67.07 21.80 64.50 C 21.51 59.66 21.72 54.79 21.13 49.97 C 20.73 47.66 23.05 45.80 25.00 45.26 C 24.06 45.93 23.08 46.57 22.18 47.30 C 21.31 51.87 22.11 56.49 22.69 61.03 C 23.16 57.25 22.90 53.20 24.52 49.68 C 28.63 44.39 32.83 39.15 37.40 34.23 C 38.42 33.18 39.48 32.09 40.81 31.44 C 46.30 29.52 51.35 26.58 55.72 22.74 C 56.90 23.76 58.09 24.77 59.28 25.79 C 60.50 24.48 61.72 23.17 62.93 21.85 C 60.45 20.99 57.96 20.14 55.42 19.44 L 54.81 19.27 C 57.87 19.75 61.23 20.31 64.04 18.60 C 63.95 19.19 63.78 20.38 63.70 20.97 M 27.54 47.23 C 26.92 50.07 26.52 52.96 26.51 55.87 C 30.18 55.81 29.83 51.58 30.72 49.03 C 29.93 48.58 28.34 47.68 27.54 47.23 M 22.61 71.54 C 22.06 73.62 22.82 75.62 23.97 77.34 C 24.79 75.51 25.84 73.65 25.32 71.57 C 24.64 71.56 23.29 71.55 22.61 71.54 Z" />
<path fill="#010101" opacity="1.00" d=" M 95.62 35.41 C 98.94 31.74 103.95 30.95 108.54 29.94 C 108.40 30.96 108.26 31.98 108.13 32.99 C 105.91 33.33 103.79 34.12 101.60 34.58 C 99.62 34.93 97.62 35.18 95.62 35.41 Z" />
<path fill="#010101" opacity="1.00" d=" M 132.02 40.86 C 134.94 41.37 137.89 41.77 140.84 42.12 C 138.78 42.89 136.71 43.65 134.71 44.58 C 131.98 46.81 128.58 49.75 129.36 53.70 C 130.61 58.60 133.97 62.59 136.15 67.09 C 136.90 72.81 135.63 79.05 138.53 84.31 C 139.45 85.28 140.42 86.20 141.39 87.13 C 139.69 87.40 137.49 87.25 137.02 85.22 C 135.88 80.39 136.54 75.20 134.46 70.57 C 132.07 62.79 123.14 55.98 127.38 47.21 C 128.91 45.09 130.55 43.04 132.02 40.86 Z" />
<path fill="#010101" opacity="1.00" d=" M 67.03 43.97 C 74.25 43.02 81.96 41.15 88.93 44.10 C 94.53 48.58 100.60 52.91 104.65 58.92 C 104.41 60.99 103.77 62.99 103.30 65.01 C 98.92 63.81 95.57 60.56 93.14 56.86 C 91.62 54.76 90.11 52.15 87.29 51.72 C 73.44 48.96 59.18 50.47 45.22 48.64 C 46.25 47.42 47.27 46.20 48.33 45.02 C 54.43 43.62 60.87 45.23 67.03 43.97 Z" />
<path fill="#010101" opacity="1.00" d=" M 144.68 44.48 C 145.31 44.18 146.58 43.59 147.22 43.30 C 150.09 45.96 152.91 48.70 156.16 50.91 C 159.10 52.91 159.64 56.70 160.84 59.78 C 159.87 60.31 158.89 60.84 157.92 61.37 C 157.61 59.97 157.24 58.60 156.84 57.23 C 153.72 58.46 150.49 59.97 147.04 59.39 C 145.37 58.76 144.18 57.35 142.91 56.16 C 143.58 52.28 144.19 48.38 144.68 44.48 M 145.73 48.20 C 145.67 50.40 145.03 52.74 145.83 54.85 C 147.85 57.91 152.42 56.41 155.18 55.17 C 152.85 52.07 150.12 47.96 145.73 48.20 Z" />
<path fill="#010101" opacity="1.00" d=" M 107.57 51.03 C 108.54 51.34 109.51 51.65 110.49 51.97 C 110.60 53.57 110.72 55.17 110.85 56.77 C 110.06 56.72 108.48 56.62 107.69 56.57 C 107.68 56.22 107.66 55.50 107.65 55.15 C 107.62 53.77 107.59 52.40 107.57 51.03 Z" />
<path fill="#010101" opacity="1.00" d=" M 63.44 54.45 C 63.89 54.47 64.77 54.49 65.21 54.50 C 69.48 54.67 73.76 54.47 78.03 54.40 C 84.06 54.75 89.56 58.09 94.04 61.95 C 98.13 65.27 99.04 71.10 97.94 76.01 C 97.13 80.14 97.94 84.37 97.44 88.51 C 93.85 94.01 87.48 96.57 82.40 100.40 C 79.07 103.09 74.75 100.82 71.03 100.52 C 67.72 100.53 65.25 98.08 62.69 96.33 C 57.20 92.04 51.34 87.12 49.66 80.02 C 49.27 77.49 49.22 74.75 50.24 72.35 C 53.04 65.37 57.94 59.48 63.44 54.45 M 63.32 58.36 C 59.94 61.83 56.97 65.77 54.92 70.17 C 52.79 74.78 59.00 81.04 63.33 77.39 C 65.85 76.09 66.91 73.62 66.72 70.86 C 64.90 69.04 63.03 67.27 61.38 65.30 C 63.10 65.59 65.28 64.94 66.56 66.44 C 69.43 68.35 68.93 72.24 68.26 75.15 C 66.18 78.20 63.35 82.14 59.16 81.58 C 56.35 81.59 54.99 78.53 53.08 76.91 C 52.82 85.79 60.26 92.65 67.78 96.05 C 71.91 97.76 77.17 100.40 81.25 97.22 C 86.32 94.12 93.10 92.15 95.29 86.00 C 95.86 78.94 96.20 71.52 93.38 64.85 C 86.35 64.34 81.32 58.80 75.01 56.47 C 71.16 56.40 66.12 54.93 63.32 58.36 Z" />
<path fill="#010101" opacity="1.00" d=" M 106.23 64.50 C 107.33 64.46 108.43 64.43 109.53 64.40 C 110.41 66.76 110.58 69.27 110.48 71.77 C 107.81 70.15 105.77 67.79 106.23 64.50 Z" />
<path fill="#010101" opacity="1.00" d=" M 158.26 80.10 C 159.24 78.39 160.16 76.64 161.09 74.90 C 161.21 77.37 161.33 79.84 161.47 82.32 C 159.38 84.83 156.73 86.81 153.98 88.54 C 153.94 87.44 153.91 86.33 153.89 85.23 C 155.63 83.80 157.18 82.10 158.26 80.10 Z" />
<path fill="#010101" opacity="1.00" d=" M 169.50 79.66 C 171.65 79.56 173.81 79.46 175.96 79.34 C 177.18 82.68 178.97 86.04 178.13 89.71 C 176.86 89.74 175.58 89.77 174.31 89.81 C 173.85 85.95 171.48 82.86 169.50 79.66 Z" />
<path fill="#010101" opacity="1.00" d=" M 177.65 97.44 C 178.29 95.27 178.93 93.10 179.53 90.91 C 179.73 94.31 179.73 97.72 179.72 101.12 C 179.28 101.22 178.40 101.41 177.97 101.51 C 174.87 101.98 172.41 104.01 169.77 105.53 C 166.29 107.61 162.41 108.89 158.61 110.26 C 158.25 110.38 157.52 110.61 157.16 110.73 C 155.26 111.26 153.38 111.82 151.49 112.36 C 151.15 112.40 150.48 112.48 150.14 112.52 C 147.51 112.50 144.89 112.33 142.28 112.17 C 142.07 111.27 141.66 109.47 141.46 108.57 C 149.10 108.51 157.19 108.84 164.13 105.08 C 166.73 103.95 169.24 102.58 171.57 100.95 C 173.49 99.60 175.56 98.49 177.65 97.44 Z" />
<path fill="#010101" opacity="1.00" d=" M 48.60 97.37 C 50.62 97.54 52.70 97.57 54.61 98.31 C 56.61 99.41 57.87 101.42 59.24 103.18 C 55.41 101.89 51.39 100.44 48.60 97.37 Z" />
<path fill="#010101" opacity="1.00" d=" M 124.79 111.93 C 127.66 110.89 130.58 110.02 133.53 109.24 C 133.12 111.33 134.63 115.10 131.67 115.71 C 126.85 116.91 119.86 114.65 117.40 120.37 C 118.62 120.96 119.85 121.54 121.08 122.11 C 121.38 122.24 121.96 122.50 122.25 122.63 C 120.78 125.95 119.68 129.42 118.77 132.93 C 116.84 132.45 114.90 131.97 112.97 131.51 C 112.62 131.41 111.93 131.21 111.59 131.11 C 109.08 129.97 106.78 128.46 104.38 127.12 C 103.38 130.31 103.52 133.67 103.42 136.97 C 101.77 136.48 99.75 136.20 99.06 134.35 C 98.45 132.85 97.02 132.10 95.49 131.83 C 93.16 131.26 91.02 130.14 89.08 128.75 C 87.87 127.93 86.68 127.09 85.49 126.25 C 83.75 128.31 82.69 130.79 81.96 133.37 C 77.20 133.95 72.49 133.17 67.84 132.28 C 61.22 132.07 54.91 134.99 48.25 134.68 C 51.00 132.98 53.77 131.29 56.43 129.45 C 61.61 125.90 68.12 125.76 73.90 123.77 C 76.94 122.72 79.28 120.18 82.48 119.50 C 89.85 118.02 97.43 118.73 104.87 117.87 C 110.34 117.21 116.13 116.99 120.98 114.10 C 122.28 113.42 123.53 112.67 124.79 111.93 M 104.80 121.74 C 107.14 126.39 112.56 128.77 117.57 128.85 C 117.74 125.60 117.36 122.38 116.13 119.35 C 112.24 119.48 108.58 120.97 104.80 121.74 M 88.34 122.63 C 88.38 123.42 88.47 124.99 88.51 125.78 C 92.64 127.40 96.66 129.28 100.66 131.20 C 100.79 128.26 100.73 125.33 100.62 122.39 C 96.53 122.38 92.43 122.36 88.34 122.63 M 72.34 128.48 C 72.36 129.11 72.41 130.37 72.43 131.00 C 74.70 131.41 76.95 131.94 79.15 132.62 C 80.54 130.28 81.95 127.85 81.75 125.02 C 78.55 126.00 75.48 127.35 72.34 128.48 M 102.25 134.21 C 100.93 134.88 100.93 135.56 102.23 136.24 C 103.56 135.56 103.57 134.88 102.25 134.21 Z" />
<path fill="#010101" opacity="1.00" d=" M 114.34 141.70 C 116.09 141.64 117.90 140.97 119.62 141.41 C 122.15 144.68 125.50 147.26 129.17 149.15 C 132.37 150.47 134.70 147.67 136.93 145.88 C 141.01 143.79 146.79 141.67 150.47 145.61 C 154.59 148.40 155.66 153.42 155.90 158.08 C 154.71 156.29 153.56 154.48 152.36 152.71 C 150.16 149.63 147.24 145.87 142.99 146.32 C 138.45 145.65 136.42 150.54 132.94 152.40 C 127.91 153.33 123.66 149.95 119.80 147.26 C 116.42 144.24 110.74 145.73 108.13 149.09 C 102.25 156.19 95.18 162.27 90.09 170.02 C 92.89 173.04 96.05 175.86 99.84 177.57 C 105.32 173.98 107.21 167.18 111.83 162.76 C 112.62 162.04 114.12 162.27 114.83 163.02 C 118.05 166.08 120.57 169.78 123.28 173.28 C 126.98 170.51 130.12 167.02 132.54 163.09 C 133.38 161.74 134.12 160.32 134.85 158.91 C 129.47 158.54 124.02 159.88 118.72 158.49 C 124.76 156.79 130.91 158.83 137.02 158.36 C 138.63 158.33 140.00 157.40 141.27 156.50 C 143.48 154.40 145.76 151.97 149.12 152.30 C 147.28 156.12 143.53 158.24 140.04 160.32 C 142.73 162.58 145.77 164.41 149.00 165.81 C 150.09 164.47 151.17 163.12 152.28 161.78 C 155.16 160.99 157.94 159.89 160.66 158.66 C 162.33 158.16 163.96 157.03 165.77 157.35 C 167.15 158.20 168.03 159.66 169.28 160.69 C 171.98 161.45 174.82 161.36 177.59 161.49 C 181.25 161.60 184.54 163.25 187.53 165.22 C 187.40 166.38 187.34 167.55 187.33 168.72 C 187.43 170.76 187.90 172.75 188.47 174.71 C 188.62 175.27 188.93 176.40 189.08 176.96 C 190.36 181.71 191.51 186.50 191.92 191.41 C 190.14 191.48 188.36 191.54 186.58 191.60 C 185.95 192.33 185.32 193.06 184.69 193.79 C 184.47 194.03 184.03 194.52 183.81 194.77 C 181.42 197.19 179.38 199.92 177.63 202.84 C 177.41 203.19 176.95 203.90 176.73 204.26 C 176.29 204.37 175.42 204.58 174.99 204.68 C 173.03 205.11 171.21 205.98 169.63 207.22 C 167.61 208.67 165.54 210.21 163.08 210.82 C 157.20 211.90 152.17 215.59 146.19 216.24 C 141.49 216.94 136.77 217.72 132.00 217.61 C 124.14 217.46 115.92 218.53 108.53 215.16 C 122.29 213.32 136.94 217.79 150.10 212.11 C 154.16 210.04 158.56 209.00 162.99 208.08 C 163.55 207.45 164.67 206.20 165.24 205.57 C 161.61 205.34 158.03 205.91 154.47 206.49 C 154.47 205.75 154.47 204.27 154.47 203.53 C 159.27 201.83 164.16 203.33 169.04 203.45 C 171.82 201.80 173.48 198.91 175.62 196.59 C 177.88 194.02 181.14 192.56 183.24 189.84 C 184.42 181.60 184.21 173.00 181.23 165.14 C 178.31 166.76 175.79 168.95 173.00 170.76 C 170.16 172.16 167.04 172.89 164.07 173.95 C 159.51 175.58 154.69 173.89 150.01 174.23 C 133.64 173.66 118.33 181.41 102.01 181.39 C 91.75 181.81 81.54 179.50 71.28 180.88 C 78.65 184.22 86.92 183.70 94.70 185.39 C 97.52 186.08 100.32 186.86 103.14 187.58 C 98.12 187.65 93.09 187.65 88.07 187.66 C 86.14 187.39 84.22 187.03 82.32 186.65 C 70.10 182.66 57.10 180.64 44.26 181.74 C 42.79 181.68 41.80 183.28 42.66 184.52 C 44.63 189.03 46.08 193.75 46.28 198.71 C 48.72 200.22 51.86 201.15 53.27 203.87 C 54.93 206.78 56.03 209.96 57.14 213.11 C 52.74 209.84 48.95 205.88 44.99 202.12 C 44.75 201.86 44.28 201.34 44.04 201.08 C 41.61 196.15 40.92 190.60 38.76 185.57 C 38.65 185.26 38.44 184.66 38.34 184.36 C 38.39 182.37 38.55 180.39 38.71 178.42 C 42.32 179.01 45.94 178.69 49.47 177.80 C 52.03 177.02 54.31 178.72 56.55 179.69 C 56.55 178.40 56.55 177.11 56.55 175.82 C 60.24 175.01 62.27 171.66 65.26 169.71 C 67.43 169.02 69.75 169.24 72.00 169.11 C 73.79 171.10 75.75 172.94 77.86 174.58 C 79.79 171.86 80.79 167.75 84.13 166.50 C 86.12 166.07 88.20 165.92 90.09 165.13 C 92.63 163.27 94.16 160.45 95.91 157.92 C 98.68 154.25 102.42 151.39 104.72 147.35 L 104.45 147.85 C 104.30 148.15 103.99 148.74 103.84 149.04 C 105.71 147.32 107.46 145.45 109.05 143.47 C 110.91 143.49 112.77 143.43 114.64 143.51 C 116.71 143.77 118.78 143.98 120.87 144.12 C 119.08 142.46 116.96 140.67 114.34 141.70 M 165.27 158.22 C 165.22 158.98 165.21 159.74 165.22 160.51 C 163.46 160.85 161.72 161.22 159.99 161.64 C 156.92 163.39 153.82 165.14 151.16 167.48 L 150.30 167.28 C 150.56 167.86 151.08 169.03 151.34 169.61 C 154.33 169.60 157.35 169.74 160.31 169.21 C 166.10 168.27 170.60 163.94 176.47 163.20 C 175.06 161.65 172.92 161.99 171.06 161.82 C 168.47 161.88 167.78 158.28 165.27 158.22 M 136.87 161.97 C 134.50 166.39 131.03 169.98 127.75 173.70 C 134.44 172.73 141.07 171.40 147.77 170.40 C 147.71 169.94 147.59 169.00 147.53 168.54 C 143.78 166.67 140.43 164.14 136.87 161.97 M 112.36 166.36 C 110.15 170.41 107.32 174.05 104.46 177.66 C 110.09 178.02 115.67 176.95 121.00 175.20 C 118.70 172.39 116.60 169.44 114.54 166.45 C 113.99 166.43 112.90 166.38 112.36 166.36 M 79.26 176.77 L 78.59 176.59 C 78.32 177.04 77.76 177.93 77.49 178.38 C 82.90 180.45 88.92 179.60 94.38 178.15 C 92.11 175.10 89.50 172.31 86.72 169.73 L 86.09 168.67 C 83.82 171.38 81.89 174.38 79.26 176.77 M 66.49 170.99 C 64.72 173.25 62.34 175.35 62.09 178.40 C 66.44 178.21 71.01 179.07 75.14 177.29 C 72.29 175.17 70.01 172.04 66.49 170.99 Z" />
<path fill="#010101" opacity="1.00" d=" M 58.03 202.90 C 59.71 204.32 61.28 205.86 62.93 207.32 C 66.20 209.44 70.18 209.77 73.96 210.21 C 80.63 210.71 87.29 211.60 93.99 211.58 C 96.58 211.68 99.22 211.42 101.75 212.04 C 103.27 212.92 104.51 214.18 105.83 215.32 C 100.93 217.32 96.03 214.59 91.08 214.41 C 86.39 214.19 81.78 213.35 77.14 212.69 C 74.77 212.46 72.39 212.62 70.02 212.78 C 70.69 211.99 71.36 211.18 72.02 210.37 C 69.69 211.37 67.43 212.52 65.19 213.69 C 62.46 210.39 58.89 208.00 55.18 205.93 C 56.12 204.91 57.07 203.90 58.03 202.90 Z" />
</g>
<g id="#fdfdfdff">
<path fill="#fdfdfd" opacity="1.00" d=" M 100.81 11.85 C 104.13 11.13 107.59 10.07 110.98 10.98 C 115.18 11.96 119.16 13.75 123.43 14.42 C 127.88 15.14 132.40 15.31 136.81 16.25 C 137.03 17.52 137.23 18.78 137.43 20.05 C 134.90 22.87 132.36 26.01 128.70 27.39 C 127.08 28.08 125.12 28.56 124.36 30.35 C 122.44 33.95 121.07 37.83 119.45 41.57 C 117.91 41.58 116.36 41.58 114.82 41.57 C 113.08 47.25 113.30 53.21 113.51 59.07 C 115.07 58.38 116.62 57.66 118.17 56.96 C 118.63 59.14 119.21 61.30 119.87 63.44 C 120.79 62.30 121.63 61.12 122.42 59.89 C 122.60 56.89 121.47 53.99 121.56 50.99 C 122.19 48.94 123.71 47.34 124.86 45.58 C 125.49 45.99 126.75 46.81 127.38 47.21 C 123.14 55.98 132.07 62.79 134.46 70.57 C 134.83 76.41 132.92 83.67 137.75 88.18 C 142.50 91.31 148.92 90.69 153.98 88.54 C 156.73 86.81 159.38 84.83 161.47 82.32 C 163.46 75.00 162.83 67.04 160.84 59.78 C 159.64 56.70 159.10 52.91 156.16 50.91 C 152.91 48.70 150.09 45.96 147.22 43.30 C 142.53 41.10 137.19 39.48 132.02 40.86 C 131.48 40.97 130.39 41.19 129.84 41.29 C 131.73 37.42 133.81 33.64 135.96 29.90 C 138.09 27.64 140.69 25.92 143.24 24.17 C 147.51 27.46 149.72 32.43 152.15 37.08 C 154.26 41.34 158.32 44.28 160.14 48.71 C 160.89 51.31 161.76 53.87 162.71 56.40 C 165.35 63.52 165.17 71.32 167.68 78.47 C 168.75 81.56 170.77 84.18 172.04 87.17 C 172.15 91.76 171.28 96.34 171.57 100.95 C 169.24 102.58 166.73 103.95 164.13 105.08 C 159.79 105.91 155.43 106.74 151.00 106.78 C 144.67 107.00 138.14 106.00 131.98 107.95 C 129.32 108.74 127.06 110.40 124.79 111.93 C 123.53 112.67 122.28 113.42 120.98 114.10 C 108.12 117.11 94.83 116.51 81.77 117.97 C 77.80 118.17 75.34 121.73 71.74 122.88 C 67.41 124.44 62.77 124.94 58.52 126.71 C 55.61 127.95 53.52 130.68 50.37 131.43 C 45.25 132.68 39.98 133.14 34.76 133.68 C 35.32 119.29 24.84 107.40 24.87 93.11 C 24.79 90.96 27.15 90.00 28.40 88.62 C 28.13 76.84 30.26 65.20 32.65 53.71 C 33.49 49.88 33.68 45.96 33.93 42.06 C 37.16 36.87 42.72 33.83 47.91 30.95 C 55.75 28.72 63.82 27.10 72.01 27.36 C 73.41 25.62 74.64 23.32 77.09 22.98 C 86.69 21.01 96.54 20.63 106.25 19.41 C 106.42 18.70 106.76 17.28 106.92 16.58 C 102.50 15.98 98.03 16.12 93.57 16.16 C 94.67 15.32 95.78 14.49 96.92 13.70 C 98.22 13.09 99.51 12.47 100.81 11.85 M 90.51 24.26 C 90.51 25.42 90.51 26.59 90.51 27.75 C 93.43 26.98 98.03 26.97 98.74 23.26 C 96.17 21.23 92.98 23.02 90.51 24.26 M 92.40 31.47 C 93.84 33.59 95.04 35.87 96.35 38.08 C 95.60 39.61 94.86 41.15 94.13 42.69 C 98.32 41.45 102.66 40.88 106.88 39.84 C 108.70 39.66 109.26 37.81 110.01 36.46 C 106.62 36.58 103.26 37.15 99.88 37.46 C 100.45 36.50 101.02 35.54 101.60 34.58 C 103.79 34.12 105.91 33.33 108.13 32.99 C 109.48 32.11 109.82 30.51 110.28 29.08 C 104.13 28.68 98.57 32.80 92.40 31.47 M 67.03 43.97 C 60.87 45.23 54.43 43.62 48.33 45.02 C 45.60 45.67 43.95 47.58 43.88 50.40 C 51.29 50.81 58.68 51.60 66.12 51.39 C 65.89 52.17 65.44 53.72 65.21 54.50 C 64.77 54.49 63.89 54.47 63.44 54.45 C 57.94 59.48 53.04 65.37 50.24 72.35 C 49.22 74.75 49.27 77.49 49.66 80.02 C 51.34 87.12 57.20 92.04 62.69 96.33 C 65.25 98.08 67.72 100.53 71.03 100.52 C 74.75 100.82 79.07 103.09 82.40 100.40 C 87.48 96.57 93.85 94.01 97.44 88.51 C 97.94 84.37 97.13 80.14 97.94 76.01 C 99.04 71.10 98.13 65.27 94.04 61.95 C 89.56 58.09 84.06 54.75 78.03 54.40 C 77.35 53.45 76.66 52.50 75.98 51.55 C 79.42 51.90 82.86 52.25 86.28 52.77 C 89.04 53.14 91.00 55.30 93.14 56.86 C 95.57 60.56 98.92 63.81 103.30 65.01 C 103.77 62.99 104.41 60.99 104.65 58.92 C 100.60 52.91 94.53 48.58 88.93 44.10 C 81.96 41.15 74.25 43.02 67.03 43.97 M 107.84 44.43 C 107.79 48.02 105.14 51.89 107.65 55.15 C 107.66 55.50 107.68 56.22 107.69 56.57 C 108.48 56.62 110.06 56.72 110.85 56.77 C 110.72 55.17 110.60 53.57 110.49 51.97 C 110.39 49.55 110.35 47.12 110.30 44.70 C 109.47 44.62 108.65 44.53 107.84 44.43 M 110.56 62.02 C 111.94 65.16 114.36 67.69 116.40 70.41 C 117.04 70.40 118.30 70.40 118.93 70.40 C 117.83 66.15 114.90 62.79 111.74 59.89 C 111.45 60.42 110.86 61.48 110.56 62.02 M 106.23 64.50 C 105.77 67.79 107.81 70.15 110.48 71.77 C 110.58 69.27 110.41 66.76 109.53 64.40 C 108.43 64.43 107.33 64.46 106.23 64.50 M 158.43 91.48 C 156.85 91.84 154.55 92.93 156.25 94.72 C 159.07 95.39 161.24 93.40 163.12 91.62 C 161.56 91.49 159.99 91.27 158.43 91.48 M 47.26 96.13 C 47.37 97.21 47.49 98.29 47.61 99.37 C 53.42 101.94 58.98 105.57 65.45 106.18 C 66.02 105.76 66.57 105.32 67.10 104.86 C 63.23 102.88 59.44 100.70 56.03 97.98 C 53.62 95.88 50.20 96.44 47.26 96.13 M 45.27 125.42 C 45.31 126.74 44.86 128.33 46.02 129.34 C 47.21 129.26 48.40 129.13 49.58 128.96 C 49.48 127.83 49.39 126.70 49.29 125.58 C 47.95 125.52 46.61 125.47 45.27 125.42 Z" />
<path fill="#fdfdfd" opacity="1.00" d=" M 129.36 53.70 C 128.58 49.75 131.98 46.81 134.71 44.58 C 137.42 44.61 140.13 44.67 142.84 44.80 C 142.59 48.57 141.92 52.43 142.91 56.16 C 144.18 57.35 145.37 58.76 147.04 59.39 C 150.49 59.97 153.72 58.46 156.84 57.23 C 157.24 58.60 157.61 59.97 157.92 61.37 C 159.10 67.54 158.95 73.88 158.26 80.10 C 157.18 82.10 155.63 83.80 153.89 85.23 C 149.86 86.61 145.58 86.70 141.39 87.13 C 140.42 86.20 139.45 85.28 138.53 84.31 C 138.48 78.53 139.37 72.25 136.15 67.09 C 133.97 62.59 130.61 58.60 129.36 53.70 Z" />
<path fill="#fdfdfd" opacity="1.00" d=" M 145.73 48.20 C 150.12 47.96 152.85 52.07 155.18 55.17 C 152.42 56.41 147.85 57.91 145.83 54.85 C 145.03 52.74 145.67 50.40 145.73 48.20 Z" />
<path fill="#fdfdfd" opacity="1.00" d=" M 63.32 58.36 C 66.12 54.93 71.16 56.40 75.01 56.47 C 81.32 58.80 86.35 64.34 93.38 64.85 C 96.20 71.52 95.86 78.94 95.29 86.00 C 93.10 92.15 86.32 94.12 81.25 97.22 C 77.17 100.40 71.91 97.76 67.78 96.05 C 60.26 92.65 52.82 85.79 53.08 76.91 C 54.99 78.53 56.35 81.59 59.16 81.58 C 63.35 82.14 66.18 78.20 68.26 75.15 C 68.93 72.24 69.43 68.35 66.56 66.44 C 65.28 64.94 63.10 65.59 61.38 65.30 C 63.03 67.27 64.90 69.04 66.72 70.86 C 66.91 73.62 65.85 76.09 63.33 77.39 C 59.00 81.04 52.79 74.78 54.92 70.17 C 56.97 65.77 59.94 61.83 63.32 58.36 Z" />
<path fill="#fdfdfd" opacity="1.00" d=" M 118.81 118.66 C 122.21 117.82 125.68 117.34 129.17 117.21 C 128.41 119.47 127.55 121.70 126.62 123.90 C 125.15 123.51 123.69 123.11 122.25 122.63 C 121.96 122.50 121.38 122.24 121.08 122.11 C 120.30 120.98 119.56 119.81 118.81 118.66 Z" />
<path fill="#fdfdfd" opacity="1.00" d=" M 104.80 121.74 C 108.58 120.97 112.24 119.48 116.13 119.35 C 117.36 122.38 117.74 125.60 117.57 128.85 C 112.56 128.77 107.14 126.39 104.80 121.74 Z" />
<path fill="#fdfdfd" opacity="1.00" d=" M 88.34 122.63 C 92.43 122.36 96.53 122.38 100.62 122.39 C 100.73 125.33 100.79 128.26 100.66 131.20 C 96.66 129.28 92.64 127.40 88.51 125.78 C 88.47 124.99 88.38 123.42 88.34 122.63 Z" />
<path fill="#fdfdfd" opacity="1.00" d=" M 72.34 128.48 C 75.48 127.35 78.55 126.00 81.75 125.02 C 81.95 127.85 80.54 130.28 79.15 132.62 C 76.95 131.94 74.70 131.41 72.43 131.00 C 72.41 130.37 72.36 129.11 72.34 128.48 Z" />
<path fill="#fdfdfd" opacity="1.00" d=" M 104.38 127.12 C 106.78 128.46 109.08 129.97 111.59 131.11 C 110.63 131.16 109.67 131.21 108.71 131.27 C 107.28 129.87 105.81 128.51 104.38 127.12 Z" />
<path fill="#fdfdfd" opacity="1.00" d=" M 95.49 131.83 C 97.02 132.10 98.45 132.85 99.06 134.35 C 97.53 135.69 94.30 133.84 95.49 131.83 Z" />
<path fill="#fdfdfd" opacity="1.00" d=" M 104.45 147.85 C 105.59 146.05 107.35 144.72 109.05 143.47 C 107.46 145.45 105.71 147.32 103.84 149.04 C 103.99 148.74 104.30 148.15 104.45 147.85 Z" />
<path fill="#fdfdfd" opacity="1.00" d=" M 108.13 149.09 C 110.74 145.73 116.42 144.24 119.80 147.26 C 123.66 149.95 127.91 153.33 132.94 152.40 C 136.42 150.54 138.45 145.65 142.99 146.32 C 147.24 145.87 150.16 149.63 152.36 152.71 C 152.48 155.73 152.37 158.76 152.28 161.78 C 151.17 163.12 150.09 164.47 149.00 165.81 C 145.77 164.41 142.73 162.58 140.04 160.32 C 143.53 158.24 147.28 156.12 149.12 152.30 C 145.76 151.97 143.48 154.40 141.27 156.50 C 133.04 156.78 124.80 156.12 116.57 156.64 C 116.54 157.89 116.51 159.15 116.48 160.41 C 121.85 160.62 127.23 160.35 132.59 160.60 C 132.58 161.22 132.56 162.47 132.54 163.09 C 130.12 167.02 126.98 170.51 123.28 173.28 C 120.57 169.78 118.05 166.08 114.83 163.02 C 114.12 162.27 112.62 162.04 111.83 162.76 C 107.21 167.18 105.32 173.98 99.84 177.57 C 96.05 175.86 92.89 173.04 90.09 170.02 C 95.18 162.27 102.25 156.19 108.13 149.09 Z" />
<path fill="#fdfdfd" opacity="1.00" d=" M 136.87 161.97 C 140.43 164.14 143.78 166.67 147.53 168.54 C 147.59 169.00 147.71 169.94 147.77 170.40 C 141.07 171.40 134.44 172.73 127.75 173.70 C 131.03 169.98 134.50 166.39 136.87 161.97 Z" />
<path fill="#fdfdfd" opacity="1.00" d=" M 151.16 167.48 C 153.82 165.14 156.92 163.39 159.99 161.64 C 163.20 161.73 166.29 162.82 168.85 164.76 C 163.34 167.10 157.15 169.61 151.16 167.48 Z" />
<path fill="#fdfdfd" opacity="1.00" d=" M 112.36 166.36 C 112.90 166.38 113.99 166.43 114.54 166.45 C 116.60 169.44 118.70 172.39 121.00 175.20 C 115.67 176.95 110.09 178.02 104.46 177.66 C 107.32 174.05 110.15 170.41 112.36 166.36 Z" />
<path fill="#fdfdfd" opacity="1.00" d=" M 173.00 170.76 C 175.79 168.95 178.31 166.76 181.23 165.14 C 184.21 173.00 184.42 181.60 183.24 189.84 C 181.14 192.56 177.88 194.02 175.62 196.59 C 173.48 198.91 171.82 201.80 169.04 203.45 C 164.16 203.33 159.27 201.83 154.47 203.53 C 154.47 204.27 154.47 205.75 154.47 206.49 C 158.03 205.91 161.61 205.34 165.24 205.57 C 164.67 206.20 163.55 207.45 162.99 208.08 C 158.56 209.00 154.16 210.04 150.10 212.11 C 137.14 214.53 123.92 213.57 110.83 213.26 C 110.62 211.55 110.42 209.84 110.22 208.14 C 105.17 208.99 100.18 210.42 95.02 210.40 C 84.24 210.49 73.65 208.07 62.93 207.32 C 61.28 205.86 59.71 204.32 58.03 202.90 C 54.98 201.06 51.50 200.15 48.40 198.42 C 46.94 193.44 46.24 188.14 43.62 183.51 C 48.42 183.26 53.23 183.16 58.03 183.39 C 66.23 183.66 74.08 186.70 82.32 186.65 C 84.22 187.03 86.14 187.39 88.07 187.66 C 94.74 189.85 101.82 189.75 108.75 189.54 C 108.59 188.63 108.44 187.72 108.29 186.81 C 103.79 186.04 99.27 185.33 94.70 185.39 C 86.92 183.70 78.65 184.22 71.28 180.88 C 81.54 179.50 91.75 181.81 102.01 181.39 C 118.33 181.41 133.64 173.66 150.01 174.23 C 154.69 173.89 159.51 175.58 164.07 173.95 C 167.04 172.89 170.16 172.16 173.00 170.76 Z" />
<path fill="#fdfdfd" opacity="1.00" d=" M 79.26 176.77 C 81.89 174.38 83.82 171.38 86.09 168.67 L 86.72 169.73 C 88.23 172.40 89.97 174.92 91.68 177.46 C 87.54 177.54 83.28 178.05 79.26 176.77 Z" />
<path fill="#fdfdfd" opacity="1.00" d=" M 66.49 170.99 C 70.01 172.04 72.29 175.17 75.14 177.29 C 71.01 179.07 66.44 178.21 62.09 178.40 C 62.34 175.35 64.72 173.25 66.49 170.99 Z" />
</g>
</svg>
