<?xml version="1.0" encoding="UTF-8" ?>
<!DOCTYPE svg PUBLIC "-//W3C//DTD SVG 1.1//EN" "http://www.w3.org/Graphics/SVG/1.1/DTD/svg11.dtd">
<svg width="210pt" height="220pt" viewBox="0 0 210 220" version="1.1" xmlns="http://www.w3.org/2000/svg">
<g id="#636363ec">
<path fill="#636363" opacity="0.93" d=" M 0.00 28.90 C 2.22 26.91 5.40 24.84 8.29 26.86 C 6.38 27.02 4.45 26.92 2.56 27.25 C 1.38 28.27 0.84 29.81 0.00 31.10 L 0.00 28.90 Z" />
<path fill="#636363" opacity="0.93" d=" M 76.34 29.07 C 77.95 26.30 81.91 25.02 84.63 26.99 C 81.71 26.92 78.57 26.85 76.34 29.07 Z" />
<path fill="#636363" opacity="0.93" d=" M 103.55 26.53 C 106.15 25.43 108.93 26.30 111.00 28.07 C 112.07 30.44 111.68 33.22 111.85 35.77 C 110.00 35.67 108.09 35.69 106.36 34.92 L 107.50 34.66 C 108.32 34.43 109.96 33.98 110.78 33.75 C 112.49 31.90 110.74 29.27 109.58 27.58 C 107.60 27.06 105.56 26.86 103.55 26.53 Z" />
<path fill="#636363" opacity="0.93" d=" M 116.48 27.27 C 116.50 25.42 120.91 25.16 120.77 27.15 C 119.34 27.25 117.91 27.32 116.48 27.27 Z" />
<path fill="#636363" opacity="0.93" d=" M 95.88 30.79 C 95.75 29.68 95.06 27.48 96.29 26.96 C 97.21 27.81 97.39 30.71 95.88 30.79 Z" />
<path fill="#636363" opacity="0.93" d=" M 175.53 27.00 C 177.46 25.98 178.10 30.42 176.08 30.66 L 175.46 30.27 C 175.48 29.46 175.52 27.82 175.53 27.00 Z" />
<path fill="#636363" opacity="0.93" d=" M 197.60 27.39 L 198.17 27.36 C 198.19 28.06 198.24 29.45 198.27 30.15 L 197.69 30.26 C 197.67 29.54 197.63 28.11 197.60 27.39 Z" />
<path fill="#636363" opacity="0.93" d=" M 24.59 37.74 C 24.81 34.21 24.81 30.27 26.52 27.17 C 26.22 30.73 26.24 34.47 24.59 37.74 Z" />
<path fill="#636363" opacity="0.93" d=" M 101.51 28.63 C 101.54 28.60 101.60 28.53 101.63 28.50 C 101.60 28.53 101.54 28.60 101.51 28.63 Z" />
<path fill="#636363" opacity="0.93" d=" M 114.39 28.51 C 114.42 28.47 114.47 28.40 114.50 28.37 C 114.47 28.40 114.42 28.47 114.39 28.51 Z" />
<path fill="#636363" opacity="0.93" d=" M 105.36 30.02 C 105.65 28.39 106.15 28.25 106.86 29.60 C 106.49 29.71 105.74 29.92 105.36 30.02 Z" />
<path fill="#636363" opacity="0.93" d=" M 33.97 36.72 C 33.36 35.58 33.47 34.62 34.31 33.83 C 34.31 34.65 34.30 36.30 34.30 37.12 L 33.97 36.72 Z" />
<path fill="#636363" opacity="0.93" d=" M 6.91 34.71 C 8.18 34.04 9.45 34.04 10.72 34.70 C 10.61 36.03 7.13 35.99 6.91 34.71 Z" />
<path fill="#636363" opacity="0.93" d=" M 138.89 35.12 C 139.25 35.51 139.98 36.30 140.35 36.69 L 139.43 36.79 L 138.69 35.99 L 138.89 35.12 Z" />
<path fill="#636363" opacity="0.93" d=" M 29.14 37.61 C 30.84 37.08 31.43 37.60 30.88 39.16 C 29.17 39.68 28.59 39.17 29.14 37.61 Z" />
<path fill="#636363" opacity="0.93" d=" M 141.95 37.68 C 142.93 38.20 143.94 38.66 144.95 39.14 C 144.89 40.72 144.82 42.30 144.73 43.88 C 144.41 43.77 143.76 43.55 143.43 43.44 C 144.70 42.61 144.30 40.71 143.83 39.52 L 143.02 39.60 C 141.92 39.61 139.72 39.63 138.62 39.64 L 137.32 39.59 C 138.77 38.75 140.41 38.34 141.95 37.68 Z" />
<path fill="#636363" opacity="0.93" d=" M 35.21 42.63 C 34.15 41.69 34.07 40.19 34.59 38.95 C 36.61 38.73 37.44 42.40 35.21 42.63 Z" />
<path fill="#636363" opacity="0.93" d=" M 23.34 39.90 C 23.76 39.90 24.59 39.90 25.00 39.90 C 25.91 40.93 25.08 43.86 23.47 42.67 C 23.44 41.98 23.38 40.59 23.34 39.90 Z" />
<path fill="#636363" opacity="0.93" d=" M 62.23 42.01 C 62.58 42.09 63.28 42.23 63.63 42.30 C 63.78 42.79 64.08 43.75 64.24 44.24 C 63.38 45.34 62.55 45.31 61.74 44.15 C 61.86 43.62 62.11 42.55 62.23 42.01 Z" />
<path fill="#636363" opacity="0.93" d=" M 95.72 41.40 C 97.04 42.46 97.51 45.36 95.59 45.99 C 95.61 44.46 95.65 42.93 95.72 41.40 Z" />
<path fill="#636363" opacity="0.93" d=" M 175.13 45.35 C 175.13 44.09 175.40 42.89 175.92 41.76 C 178.09 42.13 177.83 46.55 175.44 45.92 L 175.13 45.35 Z" />
<path fill="#636363" opacity="0.93" d=" M 197.56 42.45 L 198.13 42.35 C 199.06 43.64 198.93 44.64 197.72 45.34 C 197.68 44.62 197.60 43.17 197.56 42.45 Z" />
<path fill="#636363" opacity="0.93" d=" M 138.23 42.70 L 138.74 42.55 C 139.55 43.50 140.35 44.46 141.09 45.48 C 139.54 46.56 137.31 44.27 138.23 42.70 Z" />
<path fill="#636363" opacity="0.93" d=" M 76.82 43.94 C 79.18 45.22 81.91 46.15 84.55 44.97 C 84.56 45.13 84.58 45.47 84.59 45.63 C 81.92 46.89 78.10 47.29 76.82 43.94 Z" />
<path fill="#636363" opacity="0.93" d=" M 141.36 45.85 C 142.31 44.43 144.21 44.90 145.48 45.54 C 145.20 47.32 141.92 47.51 141.36 45.85 Z" />
<path fill="#636363" opacity="0.93" d=" M 92.07 53.79 C 96.14 54.00 99.96 52.01 104.05 52.77 C 107.29 54.15 110.98 53.67 114.36 54.68 C 122.23 57.22 130.28 60.04 136.65 65.50 C 135.80 65.46 134.11 65.37 133.26 65.32 C 133.00 65.16 132.47 64.84 132.21 64.69 C 118.04 54.79 98.92 52.57 82.71 58.48 C 76.82 59.90 71.97 63.68 67.10 67.09 C 55.11 76.65 47.94 91.73 47.54 107.00 C 48.15 116.20 50.75 125.38 55.85 133.13 C 66.23 150.19 87.11 159.73 106.81 157.51 C 105.50 155.39 104.17 153.28 102.99 151.08 C 106.74 150.54 107.28 155.09 109.59 156.85 C 112.92 156.80 116.07 155.18 119.44 155.34 C 117.84 156.87 115.77 157.77 114.16 159.30 C 116.98 159.68 119.82 159.89 122.67 159.86 C 122.98 160.00 123.60 160.27 123.91 160.40 C 128.05 161.38 133.93 162.99 137.13 159.30 C 138.40 155.15 137.50 150.67 137.67 146.39 C 138.59 145.62 139.52 144.86 140.45 144.09 C 140.33 148.89 140.78 153.72 140.33 158.50 C 138.42 164.40 130.97 164.66 125.85 164.05 C 121.09 162.29 116.13 161.20 111.13 160.39 C 112.50 165.67 115.41 170.48 115.87 176.01 C 116.65 178.99 117.78 181.97 117.37 185.10 C 117.63 185.52 118.14 186.36 118.39 186.78 C 118.32 189.13 118.29 191.48 118.29 193.83 C 117.63 193.85 116.31 193.91 115.65 193.94 C 115.44 190.58 116.43 186.99 114.90 183.85 C 114.69 181.55 114.52 179.25 114.24 176.96 C 113.63 175.68 113.18 174.35 112.73 173.02 C 111.79 168.47 110.30 163.67 107.17 160.15 C 106.83 161.57 105.99 162.42 104.65 162.70 C 105.20 161.82 105.75 160.92 106.28 160.02 C 105.75 160.17 104.67 160.47 104.14 160.62 C 101.62 159.54 98.82 160.60 96.30 159.61 C 93.56 158.67 90.60 158.85 87.81 158.15 C 83.95 157.18 80.33 155.49 76.56 154.22 C 68.51 149.80 61.16 144.07 55.70 136.60 C 54.81 135.08 53.93 133.55 53.03 132.02 C 50.21 127.15 48.03 121.84 46.98 116.28 C 43.96 108.48 45.86 100.03 48.12 92.31 C 50.64 82.95 56.38 74.79 63.10 67.95 C 68.62 63.76 74.14 59.09 80.96 57.22 C 82.91 56.23 85.01 55.59 87.15 55.18 C 88.80 54.76 90.45 54.30 92.07 53.79 Z" />
<path fill="#636363" opacity="0.93" d=" M 89.32 59.51 C 94.29 58.29 99.61 57.95 104.44 59.92 C 104.51 61.06 103.63 63.20 102.13 61.94 C 98.09 59.86 93.66 61.40 89.42 61.66 C 89.40 61.13 89.35 60.05 89.32 59.51 Z" />
<path fill="#636363" opacity="0.93" d=" M 89.66 65.88 C 95.77 65.52 102.68 66.46 107.07 71.16 C 109.09 73.02 110.82 75.85 109.59 78.65 C 107.68 82.69 104.03 85.90 99.89 87.53 C 96.00 88.48 92.02 89.31 88.02 89.47 C 83.33 88.51 77.82 88.52 74.33 84.77 C 72.33 82.31 70.06 78.89 71.90 75.72 C 75.35 69.30 82.79 66.56 89.66 65.88 M 75.69 73.64 C 85.69 72.51 95.78 72.35 105.83 72.72 C 102.31 68.91 96.96 68.13 92.05 67.78 C 86.21 68.19 80.18 69.66 75.69 73.64 M 89.43 77.08 C 89.40 77.93 89.34 79.62 89.31 80.47 C 90.91 80.82 92.51 81.26 94.15 81.38 C 87.38 82.05 80.58 81.24 73.81 81.57 C 78.86 87.37 86.89 87.96 94.03 87.27 C 98.38 85.85 103.01 84.48 106.03 80.79 C 102.35 81.05 98.66 81.24 94.97 81.35 C 95.50 79.63 95.43 77.84 95.25 76.06 C 95.51 76.25 96.02 76.61 96.28 76.80 C 96.32 77.49 96.41 78.87 96.46 79.56 C 99.94 79.07 103.48 78.95 106.93 78.24 C 107.91 77.17 107.81 74.46 105.88 74.61 C 101.81 74.51 97.57 73.70 93.60 74.93 C 93.22 74.68 92.46 74.20 92.09 73.96 C 91.21 75.00 90.32 76.04 89.43 77.08 M 75.10 75.94 C 74.55 76.53 73.46 77.69 72.91 78.28 C 77.60 80.78 83.26 79.36 88.39 79.91 C 88.54 77.90 89.16 76.00 90.29 74.32 C 85.23 74.90 80.13 75.16 75.10 75.94 Z" />
<path fill="#636363" opacity="0.93" d=" M 136.84 65.78 C 140.98 70.39 146.37 74.04 149.09 79.76 C 152.06 84.38 153.83 89.64 155.22 94.91 C 157.02 101.18 155.93 107.72 156.28 114.13 C 155.71 115.39 155.40 116.74 155.22 118.10 C 154.27 121.63 153.07 125.10 151.37 128.34 C 149.31 132.30 147.86 136.85 144.19 139.68 C 144.43 138.79 144.91 137.01 145.15 136.12 C 149.35 129.44 152.69 122.09 153.97 114.27 C 155.55 105.03 154.14 95.41 150.46 86.83 C 146.76 91.24 140.52 93.70 134.87 92.04 C 130.73 90.89 126.47 89.40 123.19 86.54 C 123.39 86.16 123.80 85.40 124.00 85.02 C 127.88 87.68 132.40 89.42 137.05 90.14 C 141.58 90.74 145.99 88.69 149.28 85.70 C 146.11 84.56 142.73 84.39 139.45 83.72 C 142.10 83.52 144.75 83.30 147.40 83.23 C 147.33 82.82 147.27 82.41 147.22 82.00 C 147.25 81.46 147.32 80.38 147.36 79.84 C 144.61 79.18 141.85 78.60 139.08 78.05 L 139.80 80.16 C 138.58 78.72 137.29 77.34 135.99 75.97 C 135.65 76.86 134.96 78.62 134.62 79.50 C 133.90 78.23 133.28 76.80 132.03 75.95 C 128.92 74.42 124.44 77.35 122.14 74.06 C 122.50 73.87 123.22 73.50 123.58 73.31 C 130.45 75.50 137.89 75.53 144.97 76.96 C 144.26 76.18 142.85 74.63 142.15 73.86 C 142.05 73.50 141.85 72.79 141.74 72.44 C 139.74 72.43 137.78 71.95 136.36 70.44 L 139.69 70.70 C 138.45 69.58 137.21 68.46 135.96 67.36 C 136.18 66.96 136.62 66.17 136.84 65.78 Z" />
<path fill="#636363" opacity="0.93" d=" M 87.79 108.76 C 88.30 108.60 89.33 108.27 89.84 108.11 C 89.82 109.32 89.80 110.53 89.77 111.74 C 89.22 111.69 88.12 111.61 87.57 111.56 C 87.64 110.63 87.72 109.69 87.79 108.76 Z" />
<path fill="#636363" opacity="0.93" d=" M 118.41 121.55 C 121.08 120.77 121.60 124.43 123.21 125.83 C 126.06 128.37 129.98 129.52 132.68 132.31 C 135.43 135.22 137.26 138.82 139.27 142.25 C 140.21 141.54 141.15 140.83 142.08 140.10 C 141.79 140.57 141.22 141.50 140.94 141.96 C 139.78 142.77 138.61 143.56 137.47 144.40 C 135.21 138.59 131.53 132.85 125.65 130.20 C 121.66 127.66 117.03 130.23 113.23 131.83 C 113.73 130.77 114.73 128.66 115.23 127.60 C 112.66 127.37 110.10 127.04 107.57 126.50 C 107.51 125.87 107.39 124.62 107.33 123.99 C 111.23 124.92 115.20 125.48 119.19 125.81 C 119.00 124.74 118.61 122.61 118.41 121.55 Z" />
<path fill="#636363" opacity="0.93" d=" M 98.57 167.36 C 99.21 166.38 100.08 165.74 101.19 165.43 C 101.19 167.11 100.32 167.75 98.57 167.36 Z" />
<path fill="#636363" opacity="0.93" d=" M 92.50 172.13 C 94.04 171.00 95.60 169.90 97.13 168.75 C 94.52 173.25 88.31 176.18 88.29 181.79 C 92.63 187.21 99.30 190.25 105.19 193.77 C 101.35 194.86 98.34 192.31 95.04 190.90 C 93.41 189.41 91.52 188.27 89.63 187.15 C 87.09 185.63 86.16 182.60 85.22 179.98 C 87.86 176.70 89.87 172.97 92.69 169.83 C 92.64 170.40 92.55 171.56 92.50 172.13 Z" />
</g>
<g id="#000000fe">
<path fill="#000000" opacity="1.00" d=" M 45.40 26.58 C 47.00 26.63 48.60 26.67 50.19 26.72 C 50.22 31.66 50.25 36.59 50.15 41.53 C 51.30 41.89 53.62 42.62 54.77 42.99 C 54.60 37.55 54.65 32.10 54.70 26.65 C 58.89 26.64 63.07 26.67 67.26 26.60 C 68.27 28.88 69.16 31.22 70.42 33.38 C 70.60 31.15 70.62 28.90 70.62 26.66 C 71.59 26.65 73.51 26.63 74.48 26.62 C 74.48 32.96 74.32 39.31 74.59 45.66 C 73.01 45.67 71.43 45.67 69.85 45.66 C 69.21 43.96 70.07 40.90 67.34 40.85 C 67.37 42.46 67.42 44.07 67.48 45.69 C 62.97 46.05 58.44 45.91 53.96 45.31 C 48.28 46.12 42.52 45.30 36.81 45.81 L 36.61 45.09 C 36.68 38.91 36.42 32.74 36.50 26.56 C 38.03 26.91 40.24 25.87 41.22 27.52 C 41.45 32.23 41.20 36.97 41.25 41.69 C 42.28 41.73 44.33 41.82 45.36 41.87 C 45.32 36.77 45.27 31.68 45.40 26.58 M 59.34 33.35 C 61.64 33.88 63.52 34.87 62.77 37.65 C 61.97 37.68 60.38 37.74 59.58 37.77 C 59.53 39.06 59.47 40.35 59.41 41.64 C 60.12 41.73 61.53 41.92 62.23 42.01 C 62.11 42.55 61.86 43.62 61.74 44.15 C 62.55 45.31 63.38 45.34 64.24 44.24 C 64.08 43.75 63.78 42.79 63.63 42.30 C 63.32 38.42 63.48 34.52 63.40 30.64 C 62.46 30.64 60.58 30.64 59.64 30.64 C 59.54 31.54 59.44 32.45 59.34 33.35 Z" />
<path fill="#000000" opacity="1.00" d=" M 138.46 28.39 C 141.13 24.68 147.78 25.46 149.37 29.89 C 149.65 29.05 150.22 27.37 150.50 26.53 C 151.49 26.56 153.46 26.64 154.45 26.68 C 154.51 33.07 154.54 39.46 154.44 45.85 C 152.00 45.79 148.87 46.31 149.28 42.59 C 148.55 44.07 147.59 46.55 145.48 45.54 C 144.21 44.90 142.31 44.43 141.36 45.85 L 141.09 45.48 C 140.35 44.46 139.55 43.50 138.74 42.55 C 138.71 41.82 138.65 40.37 138.62 39.64 C 139.72 39.63 141.92 39.61 143.02 39.60 C 142.92 40.49 142.72 42.28 142.62 43.17 L 143.43 43.44 C 143.76 43.55 144.41 43.77 144.73 43.88 C 144.82 42.30 144.89 40.72 144.95 39.14 C 143.94 38.66 142.93 38.20 141.95 37.68 L 140.35 36.69 C 139.98 36.30 139.25 35.51 138.89 35.12 C 137.63 33.20 138.22 30.57 138.46 28.39 M 142.47 30.87 C 143.86 33.90 147.76 35.27 149.51 38.30 C 149.65 36.27 149.75 34.23 149.85 32.20 C 148.11 32.29 146.37 32.38 144.64 32.46 C 144.53 31.61 144.32 29.90 144.21 29.05 C 143.77 29.50 142.91 30.41 142.47 30.87 Z" />
<path fill="#000000" opacity="1.00" d=" M 2.56 27.25 C 4.45 26.92 6.38 27.02 8.29 26.86 C 8.83 27.12 9.91 27.64 10.45 27.90 C 10.76 29.96 11.06 32.02 11.31 34.10 C 9.77 34.12 8.23 34.16 6.70 34.21 C 6.57 32.68 6.46 31.15 6.35 29.62 C 5.91 29.59 5.03 29.52 4.60 29.49 C 4.67 33.82 4.46 38.15 4.63 42.47 C 7.44 43.95 6.10 39.40 6.67 37.80 C 8.01 37.76 9.36 37.72 10.70 37.67 C 11.05 39.92 11.00 42.21 10.57 44.45 C 9.02 45.21 7.55 46.22 5.84 46.62 C 3.65 46.66 1.85 45.17 0.00 44.21 L 0.00 31.10 C 0.84 29.81 1.38 28.27 2.56 27.25 Z" />
<path fill="#000000" opacity="1.00" d=" M 12.66 26.65 C 14.23 26.65 15.79 26.64 17.35 26.64 C 17.36 29.01 17.36 31.38 17.34 33.76 C 17.82 33.71 18.78 33.63 19.26 33.59 C 19.25 31.27 19.27 28.94 19.31 26.61 C 20.38 26.62 22.52 26.62 23.59 26.62 C 23.49 31.05 23.92 35.50 23.34 39.90 C 23.38 40.59 23.44 41.98 23.47 42.67 C 25.08 43.86 25.91 40.93 25.00 39.90 C 24.86 39.46 24.58 38.56 24.44 38.12 L 24.59 37.74 C 26.24 34.47 26.22 30.73 26.52 27.17 C 26.53 27.03 26.55 26.75 26.56 26.62 C 28.57 26.61 30.59 26.59 32.60 26.54 C 33.23 27.99 34.20 29.38 34.25 31.00 C 33.95 32.84 32.29 35.08 33.97 36.72 L 34.30 37.12 C 34.37 37.58 34.51 38.49 34.59 38.95 C 34.07 40.19 34.15 41.69 35.21 42.63 C 35.20 43.23 35.18 44.44 35.17 45.04 C 34.22 45.26 32.32 45.70 31.37 45.92 C 31.14 45.08 30.69 43.40 30.47 42.56 L 30.53 41.98 C 29.88 42.33 29.24 42.71 28.61 43.10 C 28.66 43.73 28.75 44.98 28.80 45.60 C 25.61 45.72 22.42 45.74 19.23 45.73 C 19.24 43.27 19.25 40.80 19.28 38.33 C 18.79 38.29 17.82 38.21 17.33 38.17 C 17.36 40.68 17.38 43.20 17.40 45.71 C 15.80 45.71 14.21 45.70 12.62 45.70 C 12.72 39.35 12.68 33.00 12.66 26.65 M 29.14 37.61 C 28.59 39.17 29.17 39.68 30.88 39.16 C 31.43 37.60 30.84 37.08 29.14 37.61 Z" />
<path fill="#000000" opacity="1.00" d=" M 76.34 29.07 C 78.57 26.85 81.71 26.92 84.63 26.99 C 87.14 28.07 87.54 31.05 88.28 33.35 C 86.38 33.53 84.47 33.66 82.56 33.74 C 82.55 32.31 82.55 30.89 82.55 29.46 C 82.08 29.47 81.13 29.50 80.66 29.51 C 80.72 33.91 80.73 38.32 80.62 42.72 C 81.16 42.69 82.22 42.64 82.75 42.61 C 82.75 41.02 82.44 39.50 81.82 38.05 C 81.63 37.45 81.23 36.24 81.04 35.64 C 83.42 35.61 85.81 35.63 88.19 35.70 C 88.33 38.85 88.36 42.01 88.49 45.16 C 88.93 38.97 87.96 32.78 88.29 26.58 C 90.62 26.62 92.96 26.67 95.29 26.79 C 95.23 28.12 95.19 29.45 95.17 30.78 C 93.09 30.40 92.17 31.33 92.40 33.58 C 93.16 33.64 94.69 33.75 95.46 33.81 C 95.77 34.96 96.09 36.12 96.42 37.27 C 95.13 37.67 93.84 38.07 92.55 38.48 C 92.58 39.55 92.62 40.63 92.65 41.71 C 93.42 41.63 94.95 41.48 95.72 41.40 C 95.65 42.93 95.61 44.46 95.59 45.99 C 91.95 45.61 88.25 45.38 84.60 45.85 L 84.59 45.63 C 84.58 45.47 84.56 45.13 84.55 44.97 C 81.91 46.15 79.18 45.22 76.82 43.94 L 76.22 43.65 C 76.47 38.79 76.22 33.93 76.34 29.07 Z" />
<path fill="#000000" opacity="1.00" d=" M 101.63 28.50 C 102.11 28.01 103.07 27.02 103.55 26.53 C 105.56 26.86 107.60 27.06 109.58 27.58 C 110.74 29.27 112.49 31.90 110.78 33.75 C 109.96 33.98 108.32 34.43 107.50 34.66 C 107.32 32.97 107.26 31.26 106.86 29.60 C 106.15 28.25 105.65 28.39 105.36 30.02 C 105.42 34.32 105.43 38.61 105.33 42.91 C 105.81 42.77 106.76 42.49 107.24 42.35 C 107.27 40.81 107.32 39.27 107.37 37.73 C 108.76 37.74 110.14 37.75 111.53 37.77 C 111.35 40.24 112.61 43.84 109.81 45.21 C 106.93 47.93 100.96 46.37 100.68 42.14 C 100.45 37.97 100.72 33.80 100.56 29.64 L 101.51 28.63 C 101.54 28.60 101.60 28.53 101.63 28.50 Z" />
<path fill="#000000" opacity="1.00" d=" M 115.42 27.24 L 116.48 27.27 C 117.91 27.32 119.34 27.25 120.77 27.15 C 122.57 26.79 123.48 28.66 124.60 29.66 C 124.25 34.24 124.83 38.86 124.31 43.42 C 121.96 47.63 115.78 47.31 113.41 43.27 C 113.53 38.72 113.43 34.17 113.49 29.62 L 114.39 28.51 C 114.42 28.47 114.47 28.40 114.50 28.37 L 115.42 27.24 M 117.82 31.90 C 117.90 35.57 118.33 39.22 118.18 42.89 C 118.57 42.86 119.35 42.81 119.74 42.78 C 119.68 38.16 119.84 33.52 119.56 28.90 C 118.63 29.62 117.54 30.56 117.82 31.90 Z" />
<path fill="#000000" opacity="1.00" d=" M 125.46 26.60 C 126.40 26.62 128.27 26.66 129.20 26.68 C 130.09 28.97 131.04 31.24 132.31 33.35 C 132.46 31.11 132.49 28.86 132.51 26.62 C 133.48 26.62 135.42 26.64 136.39 26.64 C 136.38 33.01 136.36 39.37 136.43 45.74 C 134.86 45.71 133.29 45.68 131.72 45.64 C 131.31 43.21 130.66 40.83 129.57 38.62 C 129.32 40.95 129.26 43.30 129.24 45.65 C 128.29 45.68 126.38 45.74 125.42 45.77 C 125.45 39.38 125.39 32.99 125.46 26.60 Z" />
<path fill="#000000" opacity="1.00" d=" M 156.37 45.73 C 156.42 39.35 156.27 32.98 156.47 26.60 C 159.04 26.63 161.60 26.65 164.17 26.66 C 165.47 27.48 166.76 28.29 168.07 29.09 C 168.45 34.03 168.39 38.99 168.08 43.93 C 164.71 46.60 160.33 45.57 156.37 45.73 M 160.71 30.69 C 160.74 34.62 160.73 38.55 160.71 42.48 C 161.19 42.52 162.15 42.59 162.63 42.63 C 162.60 38.19 162.77 33.75 162.39 29.33 C 161.83 29.78 161.27 30.24 160.71 30.69 Z" />
<path fill="#000000" opacity="1.00" d=" M 168.32 26.57 C 170.73 26.58 173.15 26.64 175.53 27.00 C 175.52 27.82 175.48 29.46 175.46 30.27 C 173.63 30.40 172.46 31.36 172.34 33.30 C 173.48 33.61 174.62 33.92 175.77 34.23 C 175.80 35.26 175.83 36.29 175.87 37.32 C 173.63 37.87 171.90 38.95 172.57 41.58 C 173.68 41.64 174.80 41.70 175.92 41.76 C 175.40 42.89 175.13 44.09 175.13 45.35 C 172.85 45.74 170.53 45.77 168.23 45.75 C 168.84 39.37 168.64 32.96 168.32 26.57 Z" />
<path fill="#000000" opacity="1.00" d=" M 177.59 26.66 C 180.41 26.66 183.25 26.49 186.07 26.77 C 189.55 28.50 188.83 32.87 187.98 35.96 C 188.88 39.13 188.61 42.44 188.62 45.69 C 187.51 45.70 185.29 45.72 184.18 45.73 C 183.79 42.81 185.52 38.80 182.47 36.89 C 182.29 39.82 182.32 42.75 182.35 45.69 C 180.78 45.70 179.22 45.70 177.67 45.71 C 177.55 39.36 177.64 33.01 177.59 26.66 Z" />
<path fill="#000000" opacity="1.00" d=" M 189.62 26.63 C 192.28 26.71 195.09 26.23 197.60 27.39 C 197.63 28.11 197.67 29.54 197.69 30.26 C 196.89 30.38 195.28 30.64 194.48 30.76 C 194.38 31.62 194.28 32.48 194.19 33.34 C 196.64 33.78 198.29 34.97 197.49 37.73 C 196.73 37.73 195.22 37.74 194.46 37.74 C 194.40 38.99 194.34 40.24 194.29 41.49 C 195.11 41.73 196.74 42.21 197.56 42.45 C 197.60 43.17 197.68 44.62 197.72 45.34 C 194.98 45.81 192.21 45.75 189.45 45.69 C 189.58 39.34 189.41 32.98 189.62 26.63 Z" />
<path fill="#000000" opacity="1.00" d=" M 199.33 45.74 C 199.25 39.34 199.15 32.94 199.45 26.54 C 203.04 26.52 206.76 26.42 210.00 28.22 L 210.00 44.28 C 207.03 46.78 202.87 45.42 199.33 45.74 M 203.58 30.43 C 203.68 34.43 203.67 38.44 203.61 42.44 C 204.09 42.50 205.05 42.62 205.53 42.68 C 205.53 38.52 205.52 34.36 205.57 30.20 C 205.07 30.26 204.08 30.37 203.58 30.43 Z" />
<path fill="#000000" opacity="1.00" d=" M 132.21 64.69 C 132.47 64.84 133.00 65.16 133.26 65.32 C 134.11 65.37 135.80 65.46 136.65 65.50 L 136.99 65.52 L 136.84 65.78 C 136.62 66.17 136.18 66.96 135.96 67.36 C 133.17 67.35 130.38 67.37 127.58 67.36 C 127.56 66.91 127.51 66.01 127.48 65.57 C 129.41 65.52 131.33 65.48 133.25 65.41 L 132.21 64.69 Z" />
<path fill="#000000" opacity="1.00" d=" M 122.72 71.74 C 126.99 69.76 131.82 68.60 136.36 70.44 C 137.78 71.95 139.74 72.43 141.74 72.44 C 141.85 72.79 142.05 73.50 142.15 73.86 C 136.35 71.22 129.06 69.91 123.29 73.17 L 123.58 73.31 C 123.22 73.50 122.50 73.87 122.14 74.06 C 124.44 77.35 128.92 74.42 132.03 75.95 C 133.28 76.80 133.90 78.23 134.62 79.50 C 134.96 78.62 135.65 76.86 135.99 75.97 C 137.29 77.34 138.58 78.72 139.80 80.16 C 140.01 80.74 140.42 81.91 140.63 82.49 C 142.81 82.44 145.18 83.04 147.22 82.00 C 147.27 82.41 147.33 82.82 147.40 83.23 C 144.75 83.30 142.10 83.52 139.45 83.72 C 133.16 83.23 127.12 81.25 120.88 80.40 C 121.49 82.20 122.61 83.74 124.00 85.02 C 123.80 85.40 123.39 86.16 123.19 86.54 C 120.97 84.12 118.95 81.28 118.57 77.93 C 118.88 75.25 120.82 73.41 122.72 71.74 M 120.52 76.45 C 120.49 77.16 120.44 78.58 120.41 79.29 C 121.78 79.42 123.15 79.54 124.52 79.65 L 124.22 80.59 C 127.45 79.76 132.04 82.46 134.06 79.01 C 133.16 78.25 132.30 77.43 131.33 76.75 C 127.74 76.53 124.11 76.04 120.52 76.45 Z" />
<path fill="#000000" opacity="1.00" d=" M 89.43 77.08 C 90.32 76.04 91.21 75.00 92.09 73.96 C 92.46 74.20 93.22 74.68 93.60 74.93 C 94.01 75.21 94.84 75.78 95.25 76.06 C 95.43 77.84 95.50 79.63 94.97 81.35 L 94.15 81.38 C 92.51 81.26 90.91 80.82 89.31 80.47 C 89.34 79.62 89.40 77.93 89.43 77.08 Z" />
<path fill="#000000" opacity="1.00" d=" M 140.53 98.05 C 143.86 100.01 146.45 105.13 142.60 107.92 C 142.50 106.25 142.52 104.58 142.40 102.92 C 141.37 101.44 140.13 100.00 140.53 98.05 Z" />
<path fill="#000000" opacity="1.00" d=" M 121.11 104.01 C 125.26 103.43 129.73 101.85 133.81 103.34 C 133.73 104.90 133.65 106.46 133.50 108.02 C 130.08 110.74 127.46 114.66 123.17 116.12 C 123.27 115.60 123.47 114.55 123.57 114.03 C 127.15 111.56 131.48 109.00 132.68 104.53 C 125.53 104.60 118.49 106.21 111.84 108.78 C 110.53 109.16 109.20 109.42 107.87 109.70 C 106.62 110.21 105.35 110.69 104.10 111.20 C 101.86 112.13 99.61 113.02 97.33 113.83 C 97.37 113.31 97.43 112.27 97.46 111.75 C 99.33 111.23 101.15 110.52 102.90 109.67 C 103.45 109.57 104.55 109.35 105.10 109.24 C 106.09 108.84 107.09 108.48 108.10 108.15 C 109.33 107.66 110.57 107.17 111.80 106.67 C 112.35 106.53 113.46 106.23 114.01 106.09 C 115.05 105.73 116.09 105.39 117.14 105.07 C 118.46 104.70 119.78 104.37 121.11 104.01 Z" />
<path fill="#000000" opacity="1.00" d=" M 142.08 140.10 C 143.13 138.80 144.20 137.50 145.15 136.12 C 144.91 137.01 144.43 138.79 144.19 139.68 C 143.64 141.62 141.93 142.86 140.45 144.09 C 139.52 144.86 138.59 145.62 137.67 146.39 C 134.98 148.62 132.36 151.03 129.23 152.65 C 125.47 154.40 121.51 155.74 117.84 157.72 C 118.97 159.25 121.08 159.09 122.67 159.86 C 119.82 159.89 116.98 159.68 114.16 159.30 C 115.77 157.77 117.84 156.87 119.44 155.34 C 122.49 153.03 125.95 150.78 129.81 150.21 C 132.47 148.42 134.88 146.29 137.47 144.40 C 138.61 143.56 139.78 142.77 140.94 141.96 C 141.22 141.50 141.79 140.57 142.08 140.10 Z" />
<path fill="#000000" opacity="1.00" d=" M 104.14 160.62 C 104.67 160.47 105.75 160.17 106.28 160.02 C 105.75 160.92 105.20 161.82 104.65 162.70 C 103.70 163.82 102.61 164.94 101.19 165.43 C 100.08 165.74 99.21 166.38 98.57 167.36 C 98.21 167.71 97.49 168.40 97.13 168.75 C 95.60 169.90 94.04 171.00 92.50 172.13 C 92.55 171.56 92.64 170.40 92.69 169.83 L 92.70 169.70 C 96.48 166.64 99.81 162.94 104.14 160.62 Z" />
</g>
<g id="#fefefeff">
<path fill="#fefefe" opacity="1.00" d=" M 28.61 43.10 C 29.24 42.71 29.88 42.33 30.53 41.98 L 30.47 42.56 C 30.19 42.93 29.63 43.66 29.35 44.03 C 29.23 44.54 28.97 45.55 28.84 46.06 L 28.80 45.60 C 28.75 44.98 28.66 43.73 28.61 43.10 Z" />
<path fill="#fefefe" opacity="1.00" d=" M 82.71 58.48 C 98.92 52.57 118.04 54.79 132.21 64.69 L 133.25 65.41 C 131.33 65.48 129.41 65.52 127.48 65.57 C 127.51 66.01 127.56 66.91 127.58 67.36 C 130.38 67.37 133.17 67.35 135.96 67.36 C 137.21 68.46 138.45 69.58 139.69 70.70 L 136.36 70.44 C 131.82 68.60 126.99 69.76 122.72 71.74 C 120.82 73.41 118.88 75.25 118.57 77.93 C 118.95 81.28 120.97 84.12 123.19 86.54 C 126.47 89.40 130.73 90.89 134.87 92.04 C 140.52 93.70 146.76 91.24 150.46 86.83 C 154.14 95.41 155.55 105.03 153.97 114.27 C 152.69 122.09 149.35 129.44 145.15 136.12 C 144.20 137.50 143.13 138.80 142.08 140.10 C 141.15 140.83 140.21 141.54 139.27 142.25 C 137.26 138.82 135.43 135.22 132.68 132.31 C 129.98 129.52 126.06 128.37 123.21 125.83 C 121.60 124.43 121.08 120.77 118.41 121.55 C 118.61 122.61 119.00 124.74 119.19 125.81 C 115.20 125.48 111.23 124.92 107.33 123.99 C 107.39 124.62 107.51 125.87 107.57 126.50 C 110.10 127.04 112.66 127.37 115.23 127.60 C 114.73 128.66 113.73 130.77 113.23 131.83 C 117.03 130.23 121.66 127.66 125.65 130.20 C 131.53 132.85 135.21 138.59 137.47 144.40 C 134.88 146.29 132.47 148.42 129.81 150.21 C 125.95 150.78 122.49 153.03 119.44 155.34 C 116.07 155.18 112.92 156.80 109.59 156.85 C 107.28 155.09 106.74 150.54 102.99 151.08 C 104.17 153.28 105.50 155.39 106.81 157.51 C 87.11 159.73 66.23 150.19 55.85 133.13 C 50.75 125.38 48.15 116.20 47.54 107.00 C 47.94 91.73 55.11 76.65 67.10 67.09 C 71.97 63.68 76.82 59.90 82.71 58.48 M 89.32 59.51 C 89.35 60.05 89.40 61.13 89.42 61.66 C 93.66 61.40 98.09 59.86 102.13 61.94 C 103.63 63.20 104.51 61.06 104.44 59.92 C 99.61 57.95 94.29 58.29 89.32 59.51 M 89.66 65.88 C 82.79 66.56 75.35 69.30 71.90 75.72 C 70.06 78.89 72.33 82.31 74.33 84.77 C 77.82 88.52 83.33 88.51 88.02 89.47 C 92.02 89.31 96.00 88.48 99.89 87.53 C 104.03 85.90 107.68 82.69 109.59 78.65 C 110.82 75.85 109.09 73.02 107.07 71.16 C 102.68 66.46 95.77 65.52 89.66 65.88 M 140.53 98.05 C 140.13 100.00 141.37 101.44 142.40 102.92 C 142.52 104.58 142.50 106.25 142.60 107.92 C 146.45 105.13 143.86 100.01 140.53 98.05 M 121.11 104.01 C 119.78 104.37 118.46 104.70 117.14 105.07 C 116.09 105.39 115.05 105.73 114.01 106.09 C 113.46 106.23 112.35 106.53 111.80 106.67 C 110.57 107.17 109.33 107.66 108.10 108.15 C 107.09 108.48 106.09 108.84 105.10 109.24 C 104.55 109.35 103.45 109.57 102.90 109.67 C 101.15 110.52 99.33 111.23 97.46 111.75 C 97.43 112.27 97.37 113.31 97.33 113.83 C 99.61 113.02 101.86 112.13 104.10 111.20 C 105.35 110.69 106.62 110.21 107.87 109.70 C 109.20 109.42 110.53 109.16 111.84 108.78 C 118.49 106.21 125.53 104.60 132.68 104.53 C 131.48 109.00 127.15 111.56 123.57 114.03 C 123.47 114.55 123.27 115.60 123.17 116.12 C 127.46 114.66 130.08 110.74 133.50 108.02 C 133.65 106.46 133.73 104.90 133.81 103.34 C 129.73 101.85 125.26 103.43 121.11 104.01 M 87.79 108.76 C 87.72 109.69 87.64 110.63 87.57 111.56 C 88.12 111.61 89.22 111.69 89.77 111.74 C 89.80 110.53 89.82 109.32 89.84 108.11 C 89.33 108.27 88.30 108.60 87.79 108.76 Z" />
<path fill="#fefefe" opacity="1.00" d=" M 75.69 73.64 C 80.18 69.66 86.21 68.19 92.05 67.78 C 96.96 68.13 102.31 68.91 105.83 72.72 C 95.78 72.35 85.69 72.51 75.69 73.64 Z" />
<path fill="#fefefe" opacity="1.00" d=" M 123.29 73.17 C 129.06 69.91 136.35 71.22 142.15 73.86 C 142.85 74.63 144.26 76.18 144.97 76.96 C 137.89 75.53 130.45 75.50 123.58 73.31 L 123.29 73.17 Z" />
<path fill="#fefefe" opacity="1.00" d=" M 93.60 74.93 C 97.57 73.70 101.81 74.51 105.88 74.61 C 107.81 74.46 107.91 77.17 106.93 78.24 C 103.48 78.95 99.94 79.07 96.46 79.56 C 96.41 78.87 96.32 77.49 96.28 76.80 C 96.02 76.61 95.51 76.25 95.25 76.06 C 94.84 75.78 94.01 75.21 93.60 74.93 Z" />
<path fill="#fefefe" opacity="1.00" d=" M 75.10 75.94 C 80.13 75.16 85.23 74.90 90.29 74.32 C 89.16 76.00 88.54 77.90 88.39 79.91 C 83.26 79.36 77.60 80.78 72.91 78.28 C 73.46 77.69 74.55 76.53 75.10 75.94 Z" />
<path fill="#fefefe" opacity="1.00" d=" M 120.52 76.45 C 124.11 76.04 127.74 76.53 131.33 76.75 C 132.30 77.43 133.16 78.25 134.06 79.01 C 132.04 82.46 127.45 79.76 124.22 80.59 L 124.52 79.65 C 123.15 79.54 121.78 79.42 120.41 79.29 C 120.44 78.58 120.49 77.16 120.52 76.45 Z" />
<path fill="#fefefe" opacity="1.00" d=" M 139.08 78.05 C 141.85 78.60 144.61 79.18 147.36 79.84 C 147.32 80.38 147.25 81.46 147.22 82.00 C 145.18 83.04 142.81 82.44 140.63 82.49 C 140.42 81.91 140.01 80.74 139.80 80.16 L 139.08 78.05 Z" />
<path fill="#fefefe" opacity="1.00" d=" M 73.81 81.57 C 80.58 81.24 87.38 82.05 94.15 81.38 L 94.97 81.35 C 98.66 81.24 102.35 81.05 106.03 80.79 C 103.01 84.48 98.38 85.85 94.03 87.27 C 86.89 87.96 78.86 87.37 73.81 81.57 Z" />
<path fill="#fefefe" opacity="1.00" d=" M 120.88 80.40 C 127.12 81.25 133.16 83.23 139.45 83.72 C 142.73 84.39 146.11 84.56 149.28 85.70 C 145.99 88.69 141.58 90.74 137.05 90.14 C 132.40 89.42 127.88 87.68 124.00 85.02 C 122.61 83.74 121.49 82.20 120.88 80.40 Z" />
</g>
</svg>
