<?xml version="1.0" encoding="UTF-8" ?>
<!DOCTYPE svg PUBLIC "-//W3C//DTD SVG 1.1//EN" "http://www.w3.org/Graphics/SVG/1.1/DTD/svg11.dtd">
<svg width="210pt" height="220pt" viewBox="0 0 210 220" version="1.1" xmlns="http://www.w3.org/2000/svg">
<g id="#a79a7cfe">
<path fill="#a79a7c" opacity="1.00" d=" M 65.29 0.00 L 66.90 0.00 C 69.23 3.65 71.95 7.04 74.69 10.38 C 77.30 13.33 78.99 16.95 81.56 19.94 C 80.89 20.54 80.22 21.14 79.55 21.73 C 79.59 22.58 79.66 24.28 79.69 25.13 C 80.11 26.14 80.53 27.14 80.96 28.14 C 79.57 28.06 78.17 28.00 76.78 27.98 C 78.12 29.49 79.52 30.94 80.98 32.33 C 81.06 32.81 81.23 33.79 81.32 34.27 C 79.97 33.86 78.62 33.47 77.28 33.05 C 75.89 31.60 74.19 30.56 72.19 30.20 L 71.73 30.04 C 71.61 29.66 71.38 28.90 71.27 28.52 C 72.01 28.55 73.50 28.61 74.24 28.64 C 74.05 27.80 73.68 26.12 73.50 25.29 C 74.41 24.56 75.33 23.84 76.25 23.12 C 76.35 24.28 76.57 26.61 76.68 27.77 C 77.38 27.14 78.07 26.49 78.76 25.85 C 78.68 23.11 78.60 20.38 78.51 17.65 C 76.83 15.57 75.34 13.35 74.02 11.03 C 73.52 10.82 72.52 10.38 72.03 10.16 C 70.14 6.52 66.86 3.85 65.29 0.00 M 77.46 31.00 C 77.42 34.38 80.49 29.51 77.46 31.00 Z" />
<path fill="#a79a7c" opacity="1.00" d=" M 127.22 29.57 C 127.83 27.17 128.55 24.79 129.47 22.48 C 129.57 24.21 129.62 25.95 129.65 27.68 C 130.10 27.62 131.02 27.51 131.48 27.46 L 131.13 28.62 C 130.47 30.20 129.74 31.74 129.07 33.31 C 130.04 32.53 130.97 31.69 131.78 30.73 C 131.65 32.02 131.49 33.31 131.30 34.60 C 130.70 34.35 129.50 33.86 128.90 33.62 C 128.36 32.26 127.83 30.90 127.22 29.57 Z" />
</g>
<g id="#6f6456ff">
<path fill="#6f6456" opacity="1.00" d=" M 83.68 5.31 C 85.18 5.39 86.76 5.35 88.12 6.11 C 92.57 8.20 97.20 9.89 101.51 12.27 C 102.38 14.16 103.43 15.99 103.95 18.02 C 104.40 20.10 102.52 21.48 101.56 23.04 C 101.82 23.61 102.34 24.75 102.61 25.32 C 101.86 25.43 101.12 25.54 100.37 25.66 C 99.64 24.28 98.88 22.91 98.11 21.55 C 99.25 21.71 100.38 21.88 101.52 22.04 C 101.47 19.49 102.47 16.49 100.62 14.34 C 95.98 9.59 88.62 9.56 83.68 5.31 Z" />
<path fill="#6f6456" opacity="1.00" d=" M 41.64 32.37 C 41.49 30.76 41.55 29.16 41.80 27.56 C 42.43 28.93 43.04 30.32 43.61 31.72 C 43.96 31.71 44.65 31.70 45.00 31.70 L 45.36 32.37 C 44.69 32.65 43.35 33.21 42.68 33.49 C 42.14 33.68 41.07 34.05 40.53 34.24 C 39.91 33.70 39.30 33.15 38.71 32.59 C 39.44 32.53 40.90 32.42 41.64 32.37 Z" />
<path fill="#6f6456" opacity="1.00" d=" M 98.26 211.29 C 99.70 211.17 101.14 211.09 102.58 211.03 C 102.96 211.90 103.71 213.65 104.09 214.53 C 104.37 213.68 104.94 211.98 105.22 211.13 C 105.89 213.08 106.82 214.93 107.70 216.79 C 104.09 217.06 103.20 211.96 99.55 212.31 C 99.03 214.30 98.50 216.29 98.02 218.30 C 95.36 217.90 96.45 215.17 96.39 213.33 C 95.54 213.47 94.69 213.66 93.85 213.86 C 93.74 215.00 93.51 217.29 93.39 218.43 C 92.56 216.86 92.17 215.12 91.79 213.40 C 93.91 212.60 96.09 211.96 98.26 211.29 Z" />
</g>
<g id="#967544ff">
<path fill="#967544" opacity="1.00" d=" M 145.88 5.54 C 146.95 5.58 148.03 5.65 149.08 5.90 C 149.47 7.29 149.45 8.74 149.55 10.16 C 151.97 14.34 155.85 17.17 159.44 20.26 C 159.89 20.38 160.78 20.62 161.23 20.74 C 161.40 22.25 161.68 23.75 162.31 25.15 C 159.57 27.04 155.60 28.06 154.10 31.13 C 155.55 32.58 157.39 33.57 159.06 34.75 C 161.41 32.84 163.59 30.73 165.91 28.79 C 164.99 34.87 158.24 37.25 153.37 39.60 C 153.30 40.12 153.15 41.17 153.08 41.69 L 153.15 42.27 C 154.88 42.10 156.62 41.89 158.36 41.77 C 156.51 42.64 154.45 42.83 152.44 43.00 C 153.09 44.59 153.72 46.18 154.32 47.79 C 154.09 47.86 153.62 48.01 153.39 48.09 C 152.44 46.93 151.49 45.79 150.49 44.68 C 150.97 43.17 151.51 41.68 152.02 40.17 C 153.02 38.53 154.50 37.36 156.44 37.05 C 156.53 36.25 156.62 35.45 156.70 34.65 C 155.42 33.55 154.14 32.45 152.87 31.34 C 152.06 31.41 150.42 31.56 149.61 31.64 C 149.73 30.90 149.97 29.42 150.09 28.68 L 150.18 28.15 C 152.58 27.16 154.95 26.09 157.33 25.03 C 154.75 24.43 152.13 23.83 149.81 22.50 C 149.34 22.96 148.41 23.88 147.94 24.34 C 147.27 25.01 146.61 25.67 145.95 26.34 C 145.77 26.06 145.41 25.50 145.23 25.22 C 145.50 24.13 145.78 23.04 146.08 21.96 C 145.85 21.40 145.37 20.27 145.13 19.71 C 144.63 16.53 143.17 12.97 145.05 9.96 C 145.77 8.53 147.50 8.12 148.75 7.28 C 148.61 7.15 148.32 6.90 148.18 6.78 C 147.26 7.28 146.33 7.78 145.40 8.26 C 145.52 7.58 145.76 6.22 145.88 5.54 M 145.51 10.20 C 144.72 14.73 146.37 19.07 147.60 23.35 C 148.17 22.83 149.32 21.81 149.89 21.29 C 151.94 23.06 154.63 22.88 157.15 22.75 C 157.51 23.28 158.24 24.33 158.60 24.86 C 159.30 24.42 160.69 23.56 161.38 23.13 C 158.48 21.25 155.91 18.92 152.94 17.15 C 151.21 14.24 148.93 11.13 145.51 10.20 Z" />
</g>
<g id="#fffff7ff">
<path fill="#fffff7" opacity="1.00" d=" M 145.40 8.26 C 146.33 7.78 147.26 7.28 148.18 6.78 C 148.32 6.90 148.61 7.15 148.75 7.28 C 147.50 8.12 145.77 8.53 145.05 9.96 C 143.17 12.97 144.63 16.53 145.13 19.71 C 145.17 20.48 145.26 22.03 145.30 22.80 C 143.13 21.71 141.71 19.92 141.60 17.45 C 143.06 16.06 144.17 14.46 143.76 12.32 C 144.26 11.23 144.77 10.14 145.23 9.03 C 145.28 8.84 145.36 8.45 145.40 8.26 Z" />
<path fill="#fffff7" opacity="1.00" d=" M 117.10 30.19 C 117.57 29.01 118.08 27.84 118.61 26.68 C 118.53 27.70 118.36 29.75 118.28 30.78 C 118.90 30.94 120.14 31.27 120.76 31.44 C 120.64 32.54 120.52 33.64 120.40 34.75 L 119.13 33.98 C 118.89 33.51 118.40 32.55 118.16 32.07 L 118.02 31.61 C 117.27 31.92 115.77 32.54 115.02 32.85 C 115.98 32.35 116.94 31.86 117.91 31.37 L 117.10 30.19 Z" />
<path fill="#fffff7" opacity="1.00" d=" M 131.48 27.46 C 131.58 27.09 131.78 26.36 131.89 25.99 C 132.14 26.78 132.65 28.36 132.91 29.15 C 132.63 29.55 132.06 30.34 131.78 30.73 C 130.97 31.69 130.04 32.53 129.07 33.31 C 129.74 31.74 130.47 30.20 131.13 28.62 L 131.48 27.46 Z" />
<path fill="#fffff7" opacity="1.00" d=" M 154.27 49.22 C 155.47 49.37 156.67 49.52 157.88 49.68 C 158.59 49.78 159.31 49.88 160.03 49.98 C 158.92 50.39 157.82 50.80 156.72 51.22 C 156.08 51.40 154.80 51.78 154.16 51.96 C 154.18 51.28 154.24 49.90 154.27 49.22 Z" />
</g>
<g id="#958a73ff">
<path fill="#958a73" opacity="1.00" d=" M 102.49 8.24 C 106.12 9.56 105.31 14.04 106.90 16.89 C 108.34 19.56 109.87 22.27 109.86 25.41 C 108.07 24.63 108.14 22.43 107.46 20.86 C 106.31 16.46 103.21 12.77 102.49 8.24 Z" />
<path fill="#958a73" opacity="1.00" d=" M 83.58 18.09 C 83.71 18.14 83.98 18.25 84.11 18.30 C 84.39 19.59 84.69 20.87 85.03 22.14 C 85.24 23.36 85.45 24.57 85.65 25.79 C 84.79 28.00 82.95 30.41 84.82 32.63 C 84.93 32.88 85.14 33.37 85.24 33.62 C 84.68 33.78 83.56 34.11 83.01 34.28 C 83.26 32.65 82.58 32.00 80.98 32.33 C 79.52 30.94 78.12 29.49 76.78 27.98 C 78.17 28.00 79.57 28.06 80.96 28.14 C 81.58 28.60 82.82 29.52 83.44 29.98 C 83.17 26.01 83.19 22.04 83.58 18.09 Z" />
<path fill="#958a73" opacity="1.00" d=" M 175.26 48.18 C 176.05 47.22 176.82 46.24 177.60 45.27 C 179.03 51.18 171.49 50.80 168.51 53.82 C 168.41 53.33 168.22 52.34 168.13 51.85 C 169.35 51.15 170.58 50.47 171.83 49.81 C 173.06 49.47 174.60 49.49 175.26 48.18 Z" />
</g>
<g id="#4a44398f">
<path fill="#4a4439" opacity="0.56" d=" M 124.42 8.47 C 124.73 8.44 125.36 8.38 125.67 8.35 C 126.85 14.51 126.12 20.87 125.90 27.10 C 124.94 26.01 123.90 24.99 122.94 23.91 L 123.81 22.76 C 124.77 18.08 123.32 13.18 124.42 8.47 Z" />
</g>
<g id="#998f81ff">
<path fill="#998f81" opacity="1.00" d=" M 135.15 10.54 C 135.94 10.50 136.74 10.46 137.54 10.42 C 137.54 11.89 137.53 13.36 137.50 14.83 C 137.49 15.43 137.47 16.65 137.46 17.26 C 136.30 16.23 135.90 12.07 133.94 13.75 C 133.30 16.82 132.65 19.91 131.52 22.85 C 131.36 21.24 131.31 19.63 131.37 18.02 C 131.42 15.04 133.88 13.03 135.15 10.54 Z" />
</g>
<g id="#8e8365ff">
<path fill="#8e8365" opacity="1.00" d=" M 55.04 10.98 C 57.72 12.12 59.45 14.58 61.49 16.53 C 62.99 18.00 63.77 20.03 63.68 22.13 C 61.75 20.38 60.52 18.05 59.08 15.92 C 57.14 14.83 55.80 13.05 55.04 10.98 Z" />
<path fill="#8e8365" opacity="1.00" d=" M 109.32 13.86 C 111.70 14.23 112.23 17.59 114.74 17.33 L 116.34 16.66 C 118.29 16.47 120.26 16.46 122.23 16.44 C 122.11 19.35 121.69 22.45 119.03 24.16 C 118.01 24.96 117.00 25.77 115.96 26.54 C 115.79 26.41 115.45 26.16 115.27 26.04 C 115.79 24.71 115.50 23.61 114.38 22.74 L 114.56 21.98 C 114.68 21.43 114.92 20.33 115.04 19.78 C 115.53 20.76 116.04 21.74 116.57 22.71 C 118.13 22.23 119.68 21.76 121.25 21.29 C 121.18 20.32 121.05 18.37 120.99 17.40 C 119.07 17.74 117.17 18.15 115.25 18.41 C 113.73 18.55 112.21 18.60 110.69 18.65 C 110.33 17.03 109.81 15.45 109.32 13.86 Z" />
</g>
<g id="#87714bff">
<path fill="#87714b" opacity="1.00" d=" M 139.97 17.93 C 140.99 15.91 141.98 13.81 143.76 12.32 C 144.17 14.46 143.06 16.06 141.60 17.45 C 141.22 18.96 140.94 20.50 140.64 22.04 L 139.69 21.46 C 139.63 21.21 139.51 20.73 139.44 20.48 C 138.79 19.40 138.07 18.36 137.46 17.26 C 137.47 16.65 137.49 15.43 137.50 14.83 C 138.32 15.86 139.14 16.89 139.97 17.93 Z" />
<path fill="#87714b" opacity="1.00" d=" M 92.98 23.24 C 93.54 24.29 94.11 25.34 94.69 26.38 C 95.28 25.40 95.86 24.42 96.43 23.43 C 96.93 24.33 97.49 25.19 98.11 26.02 C 99.08 27.55 100.68 28.82 100.95 30.69 C 100.66 31.44 100.08 32.94 99.79 33.68 C 98.34 31.01 96.64 28.42 94.20 26.55 C 94.29 27.84 94.39 29.13 94.49 30.42 C 94.65 30.66 94.97 31.16 95.13 31.41 C 94.42 32.79 94.35 34.34 94.27 35.86 L 92.43 35.68 C 92.74 33.39 93.13 31.11 93.60 28.85 C 92.80 27.92 92.01 27.00 91.21 26.07 C 90.38 26.17 88.72 26.37 87.89 26.47 C 86.58 28.47 85.71 30.71 86.59 33.11 L 84.82 32.63 C 82.95 30.41 84.79 28.00 85.65 25.79 C 86.25 25.64 87.43 25.35 88.03 25.20 C 89.87 25.14 91.70 25.20 93.54 25.23 C 93.40 24.73 93.12 23.74 92.98 23.24 M 98.14 27.82 C 96.81 30.99 101.49 27.81 98.14 27.82 Z" />
<path fill="#87714b" opacity="1.00" d=" M 153.08 41.69 C 155.48 40.90 157.81 39.92 160.10 38.84 C 159.37 40.35 158.64 41.85 157.94 43.37 C 156.31 43.44 154.68 43.52 153.06 43.60 C 153.78 44.36 155.24 45.90 155.96 46.66 C 158.97 45.92 161.65 44.25 164.54 43.16 C 164.56 43.69 164.61 44.74 164.63 45.27 C 162.24 45.17 160.34 46.32 159.93 48.77 C 161.15 48.52 162.36 48.25 163.58 47.98 C 163.54 48.80 163.48 50.45 163.44 51.27 C 161.87 51.64 160.30 52.01 158.74 52.38 C 159.39 53.06 160.04 53.74 160.70 54.42 C 160.74 54.94 160.81 55.99 160.85 56.52 C 159.57 55.64 158.08 55.28 156.55 55.47 L 156.05 55.47 C 155.82 55.21 155.36 54.70 155.13 54.44 C 155.67 53.37 156.20 52.30 156.72 51.22 C 157.82 50.80 158.92 50.39 160.03 49.98 C 159.31 49.88 158.59 49.78 157.88 49.68 C 158.07 49.04 158.46 47.74 158.66 47.10 C 157.21 47.30 155.76 47.49 154.32 47.79 C 153.72 46.18 153.09 44.59 152.44 43.00 C 154.45 42.83 156.51 42.64 158.36 41.77 C 156.62 41.89 154.88 42.10 153.15 42.27 L 153.08 41.69 Z" />
<path fill="#87714b" opacity="1.00" d=" M 48.61 51.70 C 49.95 52.64 51.30 53.58 52.65 54.52 C 52.58 55.77 52.50 57.03 52.43 58.28 C 53.25 59.21 54.07 60.14 54.95 61.01 C 55.63 60.19 56.29 59.35 56.93 58.50 C 57.81 58.87 58.70 59.23 59.59 59.59 C 58.76 60.09 57.91 60.56 57.06 61.03 C 57.35 62.18 57.64 63.32 57.93 64.47 C 57.62 64.91 57.01 65.80 56.70 66.24 C 56.14 66.16 55.02 66.00 54.46 65.92 C 54.12 65.35 53.44 64.21 53.10 63.64 C 51.86 64.07 50.63 64.49 49.39 64.91 C 49.47 64.47 49.63 63.58 49.71 63.13 C 50.88 62.45 52.05 61.75 53.22 61.06 C 52.14 58.89 51.09 56.72 50.04 54.54 C 49.57 53.59 49.09 52.64 48.61 51.70 Z" />
</g>
<g id="#2b28245a">
<path fill="#2b2824" opacity="0.35" d=" M 91.36 14.21 C 92.04 14.09 93.41 13.86 94.09 13.75 C 94.15 14.63 94.27 16.40 94.33 17.28 C 93.96 16.58 93.23 15.18 92.86 14.48 C 91.70 17.15 92.05 20.47 92.98 23.24 C 93.12 23.74 93.40 24.73 93.54 25.23 C 91.70 25.20 89.87 25.14 88.03 25.20 C 89.40 24.85 90.77 24.50 92.15 24.17 C 91.43 20.90 90.94 17.55 91.36 14.21 Z" />
</g>
<g id="#7e694bff">
<path fill="#7e694b" opacity="1.00" d=" M 50.70 15.46 C 51.19 15.48 52.17 15.53 52.67 15.56 C 52.08 16.58 51.50 17.60 50.92 18.63 C 51.16 20.28 54.18 23.10 51.98 24.16 C 50.44 23.16 50.42 20.93 48.87 19.86 C 48.80 21.04 48.65 23.41 48.58 24.59 C 51.52 25.96 55.23 24.63 57.49 27.38 C 57.61 28.29 57.69 29.20 57.78 30.11 C 55.90 30.74 54.92 31.99 55.47 33.97 C 57.59 32.76 59.43 31.13 60.86 29.14 C 61.11 30.50 61.30 31.88 61.51 33.25 C 59.27 33.46 56.64 33.93 55.95 36.46 C 55.07 35.71 54.22 34.88 53.18 34.34 C 52.17 34.89 51.20 35.52 50.28 36.22 C 48.76 35.36 47.11 34.64 46.00 33.20 C 47.24 33.36 49.73 33.68 50.97 33.84 C 50.75 33.35 50.30 32.39 50.07 31.90 L 50.04 31.28 C 51.81 31.38 53.59 31.39 55.36 31.21 C 53.88 30.27 52.37 29.38 50.88 28.46 C 50.98 28.14 51.18 27.50 51.27 27.17 C 50.89 27.11 50.12 26.97 49.74 26.90 C 44.90 24.49 40.51 21.23 35.45 19.23 C 35.46 18.73 35.47 17.73 35.47 17.23 C 37.40 18.19 39.37 19.10 41.40 19.85 C 42.29 20.23 43.19 20.61 44.09 20.99 C 45.07 21.97 46.06 22.96 47.05 23.94 C 47.60 21.87 48.20 19.82 48.77 17.76 C 49.41 17.00 50.06 16.23 50.70 15.46 Z" />
<path fill="#7e694b" opacity="1.00" d=" M 27.81 31.91 C 32.83 33.86 37.18 37.12 42.05 39.39 C 41.72 39.72 41.06 40.40 40.73 40.73 C 41.55 43.14 43.95 44.27 46.06 45.32 C 44.73 43.49 43.25 41.78 41.73 40.12 L 43.81 40.38 C 43.82 39.78 43.85 38.59 43.86 37.99 C 44.03 38.18 44.37 38.58 44.54 38.77 C 46.04 40.99 47.34 43.32 48.73 45.61 C 49.31 45.03 49.90 44.44 50.48 43.85 C 49.65 43.11 48.83 42.38 47.99 41.65 C 48.45 40.47 48.91 39.30 49.37 38.12 C 49.66 38.49 50.23 39.23 50.51 39.60 C 51.84 39.58 53.17 39.58 54.50 39.59 C 53.79 40.84 52.69 41.73 51.49 42.47 C 51.53 42.85 51.61 43.62 51.65 44.00 C 51.70 44.44 51.80 45.33 51.85 45.77 C 50.27 46.02 48.70 46.27 47.13 46.57 C 45.97 46.81 44.80 47.06 43.64 47.32 C 44.33 48.14 45.01 48.96 45.74 49.74 C 45.03 49.72 43.63 49.68 42.92 49.67 C 41.83 50.05 40.75 50.45 39.62 50.73 C 39.40 49.57 39.22 48.40 39.07 47.24 C 40.36 47.74 41.65 48.26 42.95 48.77 C 42.78 47.23 42.62 45.69 42.46 44.15 C 39.50 41.19 36.72 37.81 32.75 36.17 C 30.83 35.11 27.98 34.62 27.81 31.91 Z" />
</g>
<g id="#c2b69bff">
<path fill="#c2b69b" opacity="1.00" d=" M 92.98 23.24 C 92.05 20.47 91.70 17.15 92.86 14.48 C 93.23 15.18 93.96 16.58 94.33 17.28 L 94.36 17.35 C 94.24 19.41 93.96 21.69 96.19 22.77 C 96.25 22.93 96.37 23.27 96.43 23.43 C 95.86 24.42 95.28 25.40 94.69 26.38 C 94.11 25.34 93.54 24.29 92.98 23.24 Z" />
<path fill="#c2b69b" opacity="1.00" d=" M 106.89 29.96 C 107.26 28.21 108.16 26.70 109.45 25.48 C 109.62 26.16 109.96 27.50 110.14 28.17 L 110.14 29.20 C 109.44 31.05 108.10 32.52 106.50 33.66 C 105.93 32.74 105.37 31.81 104.83 30.88 C 104.87 30.15 104.96 28.70 105.01 27.98 C 105.48 28.47 106.42 29.46 106.89 29.96 Z" />
<path fill="#c2b69b" opacity="1.00" d=" M 61.67 28.36 C 62.29 28.37 63.53 28.39 64.15 28.40 C 65.25 28.93 66.35 29.45 67.46 29.96 C 67.46 30.25 67.47 30.84 67.48 31.13 L 67.50 32.84 C 65.12 31.96 62.65 30.90 61.67 28.36 Z" />
<path fill="#c2b69b" opacity="1.00" d=" M 161.98 58.26 C 162.57 58.31 163.75 58.40 164.34 58.45 C 165.34 58.57 167.36 58.81 168.37 58.93 C 167.29 59.12 166.22 59.31 165.14 59.49 C 165.53 61.63 166.71 63.48 167.95 65.23 C 166.63 63.70 165.24 62.24 163.88 60.74 C 163.21 59.93 162.58 59.11 161.98 58.26 Z" />
</g>
<g id="#68390cff">
<path fill="#68390c" opacity="1.00" d=" M 116.34 16.66 C 118.33 16.33 120.37 16.36 122.39 16.31 C 122.39 18.85 122.32 21.42 122.94 23.91 C 123.90 24.99 124.94 26.01 125.90 27.10 C 126.23 27.72 126.89 28.95 127.22 29.57 C 127.83 30.90 128.36 32.26 128.90 33.62 C 129.50 33.86 130.70 34.35 131.30 34.60 C 131.16 35.29 130.89 36.69 130.76 37.39 L 131.34 37.25 C 132.09 37.11 133.59 36.83 134.35 36.69 C 134.35 37.33 134.35 38.60 134.36 39.23 C 135.05 38.96 136.43 38.43 137.12 38.16 C 137.49 39.88 139.07 41.00 140.81 40.63 C 143.49 39.75 145.46 37.59 147.68 35.94 C 147.71 35.61 147.77 34.97 147.79 34.64 C 148.10 33.27 148.44 31.90 148.78 30.53 C 149.10 30.07 149.76 29.14 150.09 28.68 C 149.97 29.42 149.73 30.90 149.61 31.64 L 149.41 33.22 C 150.13 33.82 150.86 34.41 151.60 35.00 C 149.84 36.46 148.11 37.96 146.42 39.49 C 146.32 40.19 146.12 41.60 146.02 42.30 C 144.90 42.69 143.72 42.74 142.47 42.45 C 142.43 42.82 142.35 43.57 142.30 43.94 C 141.86 44.05 140.98 44.25 140.54 44.36 C 139.56 44.90 138.67 45.58 137.82 46.30 C 138.97 47.04 140.13 47.77 141.28 48.51 C 140.55 48.59 139.10 48.75 138.37 48.83 C 138.02 48.57 137.32 48.05 136.97 47.79 C 136.47 47.58 135.46 47.16 134.95 46.94 C 135.74 45.94 136.52 44.94 137.28 43.91 C 135.30 43.69 133.99 45.09 132.78 46.40 C 130.49 46.03 128.22 45.48 126.08 44.56 C 126.87 44.15 128.45 43.34 129.24 42.94 C 128.54 41.99 127.84 41.04 127.14 40.09 C 127.30 39.29 127.61 37.70 127.77 36.91 C 127.57 37.63 127.18 39.08 126.98 39.80 C 125.21 39.73 123.44 39.64 121.68 39.54 C 118.25 39.16 114.52 38.32 111.40 40.33 C 111.22 40.29 110.84 40.21 110.65 40.16 C 108.98 39.76 107.30 39.35 105.62 38.97 L 104.39 38.69 C 104.61 37.08 104.81 35.47 105.01 33.85 C 106.02 35.01 107.03 36.18 108.03 37.36 C 108.79 37.05 109.56 36.75 110.32 36.45 L 111.77 37.24 C 112.34 37.54 112.91 37.84 113.49 38.15 C 113.71 37.33 114.15 35.71 114.37 34.89 C 114.71 35.18 115.41 35.76 115.76 36.05 C 116.66 37.10 117.71 37.37 118.92 36.86 C 119.95 36.46 120.98 36.05 122.01 35.64 L 123.11 36.15 C 123.89 36.35 124.67 36.54 125.47 36.71 C 125.53 34.86 125.71 32.99 125.46 31.14 C 124.31 29.53 122.78 28.24 121.51 26.72 C 121.13 25.43 120.30 24.58 119.03 24.16 C 121.69 22.45 122.11 19.35 122.23 16.44 C 120.26 16.46 118.29 16.47 116.34 16.66 M 131.28 42.98 C 130.77 44.58 131.35 45.12 133.00 44.63 C 133.51 43.03 132.94 42.48 131.28 42.98 Z" />
<path fill="#68390c" opacity="1.00" d=" M 146.67 41.40 C 148.50 41.19 150.40 41.19 152.02 40.17 C 151.51 41.68 150.97 43.17 150.49 44.68 C 148.97 44.10 145.58 43.82 146.67 41.40 Z" />
</g>
<g id="#867f70e8">
<path fill="#867f70" opacity="0.91" d=" M 65.47 17.55 C 66.41 17.47 67.36 17.40 68.30 17.33 C 68.35 17.97 68.44 19.24 68.48 19.88 C 69.79 21.19 70.92 22.66 72.08 24.11 C 71.00 23.64 69.91 23.18 68.82 22.74 C 68.84 24.10 68.87 25.47 68.90 26.84 C 67.02 26.69 65.13 26.52 63.25 26.36 C 61.76 26.12 60.32 26.58 58.99 27.25 C 59.16 26.83 59.48 25.99 59.65 25.58 C 62.45 25.46 65.23 25.10 67.97 24.53 C 67.14 22.20 66.30 19.88 65.47 17.55 Z" />
<path fill="#867f70" opacity="0.91" d=" M 157.19 187.98 C 157.83 187.86 159.11 187.62 159.75 187.50 C 159.63 188.81 161.84 191.57 159.86 191.80 C 159.85 190.03 158.39 188.98 157.19 187.98 Z" />
<path fill="#867f70" opacity="0.91" d=" M 158.60 197.65 C 159.50 197.33 160.40 197.01 161.30 196.70 C 161.49 198.65 162.05 200.54 163.44 202.00 L 163.56 202.55 C 163.02 202.59 161.94 202.68 161.40 202.72 C 161.38 201.34 161.34 199.95 161.29 198.57 L 161.25 197.25 C 160.59 197.35 159.26 197.55 158.60 197.65 Z" />
</g>
<g id="#c2b39cfe">
<path fill="#c2b39c" opacity="1.00" d=" M 140.64 22.04 C 140.94 20.50 141.22 18.96 141.60 17.45 C 141.71 19.92 143.13 21.71 145.30 22.80 C 145.26 22.03 145.17 20.48 145.13 19.71 C 145.37 20.27 145.85 21.40 146.08 21.96 C 145.78 23.04 145.50 24.13 145.23 25.22 C 143.77 24.06 142.24 23.00 140.64 22.04 Z" />
</g>
<g id="#856934ff">
<path fill="#856934" opacity="1.00" d=" M 94.36 17.35 C 94.87 17.76 95.89 18.56 96.40 18.96 C 96.35 19.91 96.24 21.81 96.19 22.77 C 93.96 21.69 94.24 19.41 94.36 17.35 Z" />
<path fill="#856934" opacity="1.00" d=" M 110.22 26.22 L 111.10 26.35 C 112.11 28.24 112.44 30.89 114.82 31.60 C 114.84 30.87 114.88 29.41 114.90 28.68 C 115.45 29.06 116.55 29.82 117.10 30.19 L 117.91 31.37 C 116.94 31.86 115.98 32.35 115.02 32.85 C 115.77 32.54 117.27 31.92 118.02 31.61 L 118.16 32.07 C 118.40 32.55 118.89 33.51 119.13 33.98 L 120.40 34.75 C 120.93 35.06 121.47 35.35 122.01 35.64 C 120.98 36.05 119.95 36.46 118.92 36.86 C 119.89 34.47 116.31 33.76 115.76 36.05 C 115.41 35.76 114.71 35.18 114.37 34.89 C 114.15 35.71 113.71 37.33 113.49 38.15 C 112.91 37.84 112.34 37.54 111.77 37.24 C 112.14 36.95 112.88 36.39 113.25 36.10 C 111.39 35.17 109.19 35.27 107.21 34.71 C 107.03 34.45 106.68 33.92 106.50 33.66 C 108.10 32.52 109.44 31.05 110.14 29.20 L 110.14 28.17 C 110.16 27.68 110.20 26.70 110.22 26.22 Z" />
</g>
<g id="#937c52ff">
<path fill="#937c52" opacity="1.00" d=" M 110.69 18.65 C 112.21 18.60 113.73 18.55 115.25 18.41 L 115.04 19.78 C 114.92 20.33 114.68 21.43 114.56 21.98 C 113.68 23.85 112.24 25.30 110.23 25.90 C 110.46 23.49 110.62 21.07 110.69 18.65 M 113.15 19.26 C 111.61 22.29 116.44 19.41 113.15 19.26 Z" />
</g>
<g id="#f7f3ecff">
<path fill="#f7f3ec" opacity="1.00" d=" M 115.25 18.41 C 117.17 18.15 119.07 17.74 120.99 17.40 C 121.05 18.37 121.18 20.32 121.25 21.29 C 119.68 21.76 118.13 22.23 116.57 22.71 C 116.04 21.74 115.53 20.76 115.04 19.78 L 115.25 18.41 Z" />
</g>
<g id="#543804ff">
<path fill="#543804" opacity="1.00" d=" M 113.15 19.26 C 116.44 19.41 111.61 22.29 113.15 19.26 Z" />
</g>
<g id="#a5a191ff">
<path fill="#a5a191" opacity="1.00" d=" M 110.23 25.90 C 112.24 25.30 113.68 23.85 114.56 21.98 L 114.38 22.74 C 113.81 24.11 114.11 25.21 115.27 26.04 C 115.45 26.16 115.79 26.41 115.96 26.54 C 117.00 25.77 118.01 24.96 119.03 24.16 C 120.30 24.58 121.13 25.43 121.51 26.72 C 122.16 29.84 122.76 32.98 123.11 36.15 L 122.01 35.64 C 121.47 35.35 120.93 35.06 120.40 34.75 C 120.52 33.64 120.64 32.54 120.76 31.44 C 120.14 31.27 118.90 30.94 118.28 30.78 C 118.36 29.75 118.53 27.70 118.61 26.68 C 118.08 27.84 117.57 29.01 117.10 30.19 C 116.55 29.82 115.45 29.06 114.90 28.68 C 114.08 27.97 113.28 27.25 112.45 26.56 C 112.11 26.51 111.43 26.41 111.10 26.35 L 110.22 26.22 C 110.22 26.14 110.23 25.98 110.23 25.90 Z" />
<path fill="#a5a191" opacity="1.00" d=" M 138.18 70.26 C 140.84 70.41 143.48 70.80 146.06 71.46 C 145.40 72.42 145.55 74.43 143.91 74.26 C 142.87 73.75 141.86 73.19 140.88 72.58 C 140.22 72.57 138.91 72.54 138.26 72.53 C 138.24 71.96 138.20 70.82 138.18 70.26 Z" />
<path fill="#a5a191" opacity="1.00" d=" M 108.92 203.67 C 109.68 202.32 110.84 201.89 112.39 202.36 L 112.88 202.96 C 112.27 204.68 110.14 204.66 108.92 203.67 Z" />
<path fill="#a5a191" opacity="1.00" d=" M 104.16 205.81 C 106.84 205.71 109.52 205.53 112.21 205.46 C 110.54 206.19 108.84 206.87 107.14 207.51 C 107.05 208.05 106.87 209.12 106.79 209.66 L 108.97 209.45 C 107.74 209.85 106.53 210.30 105.33 210.77 C 105.43 210.08 105.50 209.39 105.55 208.69 C 103.78 208.18 102.94 207.25 104.16 205.81 Z" />
<path fill="#a5a191" opacity="1.00" d=" M 99.19 209.33 C 99.80 208.31 100.48 207.30 101.70 206.97 C 101.69 207.60 101.65 208.87 101.63 209.51 C 101.02 209.46 99.80 209.38 99.19 209.33 Z" />
</g>
<g id="#fdfefeff">
<path fill="#fdfefe" opacity="1.00" d=" M 139.69 21.46 L 140.64 22.04 C 142.24 23.00 143.77 24.06 145.23 25.22 C 145.41 25.50 145.77 26.06 145.95 26.34 C 146.49 27.20 147.02 28.06 147.56 28.92 C 146.59 29.73 145.64 30.56 144.70 31.39 C 144.81 29.96 144.95 28.53 145.20 27.12 C 144.43 29.02 142.73 30.11 141.05 31.13 C 140.70 31.59 140.00 32.51 139.65 32.96 C 138.67 29.39 140.64 25.84 139.75 22.22 L 139.69 21.46 Z" />
</g>
<g id="#794e20f7">
<path fill="#794e20" opacity="0.97" d=" M 68.82 22.74 C 69.91 23.18 71.00 23.64 72.08 24.11 C 72.43 24.40 73.14 24.99 73.50 25.29 C 73.68 26.12 74.05 27.80 74.24 28.64 C 73.50 28.61 72.01 28.55 71.27 28.52 C 70.48 27.96 69.69 27.40 68.90 26.84 C 68.87 25.47 68.84 24.10 68.82 22.74 Z" />
</g>
<g id="#eadfc4fe">
<path fill="#eadfc4" opacity="1.00" d=" M 114.38 22.74 C 115.50 23.61 115.79 24.71 115.27 26.04 C 114.11 25.21 113.81 24.11 114.38 22.74 Z" />
</g>
<g id="#978e7dee">
<path fill="#978e7d" opacity="0.93" d=" M 137.48 32.97 C 137.46 29.26 138.61 25.70 139.75 22.22 C 140.64 25.84 138.67 29.39 139.65 32.96 C 138.99 33.72 138.28 34.43 137.52 35.10 L 137.48 32.97 Z" />
</g>
<g id="#fefefefe">
<path fill="#fefefe" opacity="1.00" d=" M 147.94 24.34 C 148.41 23.88 149.34 22.96 149.81 22.50 C 152.13 23.83 154.75 24.43 157.33 25.03 C 154.95 26.09 152.58 27.16 150.18 28.15 C 149.48 26.86 148.70 25.60 147.94 24.34 Z" />
</g>
<g id="#b4a486ff">
<path fill="#b4a486" opacity="1.00" d=" M 145.95 26.34 C 146.61 25.67 147.27 25.01 147.94 24.34 C 148.70 25.60 149.48 26.86 150.18 28.15 L 150.09 28.68 C 149.76 29.14 149.10 30.07 148.78 30.53 C 148.44 31.90 148.10 33.27 147.79 34.64 C 147.56 34.09 147.08 33.00 146.84 32.45 C 145.19 33.91 143.14 34.61 140.97 34.83 C 141.79 33.56 143.29 33.16 144.58 32.55 C 144.61 32.26 144.67 31.68 144.70 31.39 C 145.64 30.56 146.59 29.73 147.56 28.92 C 147.02 28.06 146.49 27.20 145.95 26.34 Z" />
</g>
<g id="#baae8eff">
<path fill="#baae8e" opacity="1.00" d=" M 100.37 25.66 C 101.12 25.54 101.86 25.43 102.61 25.32 C 103.37 26.24 104.19 27.11 105.01 27.98 C 104.96 28.70 104.87 30.15 104.83 30.88 C 105.37 31.81 105.93 32.74 106.50 33.66 C 106.68 33.92 107.03 34.45 107.21 34.71 C 109.19 35.27 111.39 35.17 113.25 36.10 C 112.88 36.39 112.14 36.95 111.77 37.24 L 110.32 36.45 C 109.56 36.75 108.79 37.05 108.03 37.36 C 107.03 36.18 106.02 35.01 105.01 33.85 C 104.81 35.47 104.61 37.08 104.39 38.69 C 104.68 41.51 101.94 40.52 100.93 38.91 C 101.63 38.78 103.03 38.52 103.73 38.39 C 103.59 35.91 106.12 32.02 103.05 30.81 C 102.65 31.62 101.86 33.25 101.46 34.07 C 101.30 32.94 101.16 31.81 100.95 30.69 C 100.68 28.82 99.08 27.55 98.11 26.02 C 98.82 26.20 100.24 26.56 100.95 26.75 L 100.37 25.66 M 101.52 27.03 C 100.60 28.04 101.24 31.05 102.97 29.93 C 104.24 29.04 103.03 25.93 101.52 27.03 Z" />
<path fill="#baae8e" opacity="1.00" d=" M 64.36 39.51 C 65.22 38.04 66.09 37.93 66.97 39.18 C 66.12 40.74 65.25 40.85 64.36 39.51 Z" />
<path fill="#baae8e" opacity="1.00" d=" M 61.08 52.08 C 64.33 51.02 67.30 49.20 69.14 46.25 C 69.68 46.37 70.74 46.60 71.27 46.71 C 68.37 48.34 65.85 50.57 63.90 53.26 C 63.65 54.19 63.39 55.12 63.13 56.05 C 63.03 56.18 62.83 56.44 62.73 56.57 C 61.67 56.03 60.61 55.50 59.55 54.98 C 59.06 54.26 58.57 53.53 58.09 52.81 C 55.06 51.67 51.83 50.60 48.61 51.70 C 48.29 51.50 47.65 51.09 47.33 50.89 C 46.93 50.60 46.14 50.03 45.74 49.74 C 45.01 48.96 44.33 48.14 43.64 47.32 C 44.80 47.06 45.97 46.81 47.13 46.57 C 49.14 48.96 51.96 50.18 55.02 50.44 C 55.57 50.82 56.11 51.20 56.66 51.58 C 57.21 51.44 58.32 51.18 58.87 51.04 C 59.42 51.30 60.53 51.82 61.08 52.08 Z" />
</g>
<g id="#6f6654c4">
<path fill="#6f6654" opacity="0.77" d=" M 131.89 25.99 C 133.79 25.28 135.77 24.82 137.74 24.36 C 137.31 25.96 136.30 27.11 134.73 27.81 C 134.11 28.24 133.50 28.69 132.91 29.15 C 132.65 28.36 132.14 26.78 131.89 25.99 Z" />
</g>
<g id="#75420aff">
<path fill="#75420a" opacity="1.00" d=" M 58.99 27.25 C 60.32 26.58 61.76 26.12 63.25 26.36 L 64.15 28.40 C 63.53 28.39 62.29 28.37 61.67 28.36 C 62.65 30.90 65.12 31.96 67.50 32.84 L 67.48 31.13 C 68.78 31.41 70.07 31.73 71.36 32.07 C 71.43 32.72 71.58 34.02 71.65 34.67 C 73.11 35.35 74.62 35.92 76.19 36.32 C 77.71 33.57 74.84 33.12 72.87 32.48 C 72.70 31.91 72.36 30.77 72.19 30.20 C 74.19 30.56 75.89 31.60 77.28 33.05 C 78.62 33.47 79.97 33.86 81.32 34.27 L 82.18 34.55 L 83.01 34.28 C 83.56 34.11 84.68 33.78 85.24 33.62 L 85.32 35.01 C 85.03 37.84 84.20 40.59 82.35 42.80 C 83.58 42.12 84.81 41.44 86.00 40.69 C 86.73 40.57 88.17 40.33 88.90 40.21 C 88.41 38.57 87.33 37.25 86.14 36.06 C 86.68 34.41 87.22 32.75 87.88 31.14 C 90.09 32.44 90.85 35.48 90.31 37.88 C 91.68 35.87 94.52 36.51 96.27 34.94 C 97.52 33.72 99.00 34.85 100.28 35.32 C 100.68 34.91 101.07 34.49 101.46 34.07 C 101.86 33.25 102.65 31.62 103.05 30.81 C 106.12 32.02 103.59 35.91 103.73 38.39 C 103.03 38.52 101.63 38.78 100.93 38.91 C 99.99 38.76 99.06 38.62 98.13 38.48 C 99.22 40.38 99.34 42.45 98.38 44.43 C 97.06 44.44 95.74 44.45 94.42 44.46 C 94.41 44.87 94.40 45.70 94.39 46.11 C 96.33 46.89 98.47 47.67 99.34 49.76 C 97.12 49.28 94.91 48.73 92.69 48.24 C 92.58 47.42 92.34 45.77 92.22 44.95 C 90.80 45.59 89.51 46.42 88.35 47.46 C 88.39 45.86 88.98 44.37 89.62 42.93 C 88.98 42.61 88.33 42.30 87.68 41.99 C 86.04 44.60 84.30 47.34 84.44 50.55 C 80.96 50.18 77.52 49.45 74.11 48.65 C 73.70 48.56 72.86 48.39 72.45 48.30 C 70.68 50.03 68.89 51.74 67.10 53.44 C 66.30 53.40 64.70 53.31 63.90 53.26 C 65.85 50.57 68.37 48.34 71.27 46.71 C 70.74 46.60 69.68 46.37 69.14 46.25 C 67.30 49.20 64.33 51.02 61.08 52.08 C 60.53 51.82 59.42 51.30 58.87 51.04 C 58.32 51.18 57.21 51.44 56.66 51.58 C 56.11 51.20 55.57 50.82 55.02 50.44 C 51.96 50.18 49.14 48.96 47.13 46.57 C 48.70 46.27 50.27 46.02 51.85 45.77 C 51.80 45.33 51.70 44.44 51.65 44.00 C 52.62 44.13 53.60 44.25 54.57 44.36 C 56.10 45.97 57.66 47.56 59.20 49.15 C 59.98 49.06 61.53 48.89 62.31 48.80 C 61.25 47.99 60.18 47.19 59.12 46.40 C 59.68 45.91 60.25 45.43 60.82 44.96 C 62.03 44.68 63.26 44.44 64.49 44.26 C 65.43 43.31 66.37 42.35 67.31 41.40 C 65.45 41.60 63.56 41.65 61.81 40.88 C 62.46 39.16 63.15 37.45 63.61 35.67 C 63.58 35.24 63.52 34.37 63.50 33.94 C 63.00 33.76 62.01 33.42 61.51 33.25 C 61.30 31.88 61.11 30.50 60.86 29.14 C 60.39 28.67 59.46 27.72 58.99 27.25 M 79.16 35.32 C 78.65 36.75 80.51 38.95 82.04 38.45 C 82.98 36.96 80.68 34.73 79.16 35.32 M 64.36 39.51 C 65.25 40.85 66.12 40.74 66.97 39.18 C 66.09 37.93 65.22 38.04 64.36 39.51 M 71.17 40.03 C 70.86 41.52 72.63 42.13 73.40 43.08 C 73.45 43.72 73.54 44.98 73.58 45.62 C 74.18 45.64 75.38 45.69 75.99 45.72 C 74.84 44.36 73.60 43.03 73.02 41.31 C 74.39 41.26 75.60 41.68 76.63 42.59 C 76.59 41.53 76.57 40.46 76.55 39.40 C 75.18 41.54 72.85 40.76 73.13 38.16 C 72.46 38.76 71.70 39.28 71.17 40.03 M 68.39 42.03 C 67.40 43.25 69.07 45.46 70.39 44.27 C 71.72 43.12 69.64 40.62 68.39 42.03 M 80.29 45.38 C 79.06 46.66 81.27 48.68 82.46 47.41 C 83.73 46.13 81.48 44.18 80.29 45.38 M 52.23 46.06 C 50.89 46.73 50.88 47.39 52.20 48.04 C 53.55 47.38 53.56 46.71 52.23 46.06 Z" />
<path fill="#75420a" opacity="1.00" d=" M 145.20 27.12 C 144.95 28.53 144.81 29.96 144.70 31.39 C 144.67 31.68 144.61 32.26 144.58 32.55 C 143.29 33.16 141.79 33.56 140.97 34.83 C 139.88 36.31 138.62 37.66 136.78 38.15 C 136.61 37.35 136.27 35.75 136.10 34.95 C 136.56 34.29 137.03 33.63 137.48 32.97 L 137.52 35.10 C 138.28 34.43 138.99 33.72 139.65 32.96 C 140.00 32.51 140.70 31.59 141.05 31.13 C 142.73 30.11 144.43 29.02 145.20 27.12 Z" />
<path fill="#75420a" opacity="1.00" d=" M 160.70 54.42 C 161.10 54.63 161.90 55.07 162.30 55.28 C 162.90 55.57 164.10 56.13 164.70 56.41 L 165.82 56.92 L 164.34 58.45 C 163.75 58.40 162.57 58.31 161.98 58.26 C 161.58 57.69 161.20 57.11 160.85 56.52 C 160.81 55.99 160.74 54.94 160.70 54.42 Z" />
</g>
<g id="#d1c0a0fe">
<path fill="#d1c0a0" opacity="1.00" d=" M 111.10 26.35 C 111.43 26.41 112.11 26.51 112.45 26.56 C 113.28 27.25 114.08 27.97 114.90 28.68 C 114.88 29.41 114.84 30.87 114.82 31.60 C 112.44 30.89 112.11 28.24 111.10 26.35 Z" />
</g>
<g id="#655941ba">
<path fill="#655941" opacity="0.73" d=" M 42.94 26.44 C 45.07 27.62 48.99 31.35 49.74 26.90 C 50.12 26.97 50.89 27.11 51.27 27.17 C 51.18 27.50 50.98 28.14 50.88 28.46 C 50.67 29.16 50.25 30.58 50.04 31.28 L 50.07 31.90 C 48.96 31.43 47.85 30.94 46.74 30.44 C 46.22 30.50 45.18 30.63 44.66 30.70 C 44.15 29.25 43.54 27.85 42.94 26.44 Z" />
</g>
<g id="#d0bd9dff">
<path fill="#d0bd9d" opacity="1.00" d=" M 57.49 27.38 C 57.87 27.34 58.62 27.28 58.99 27.25 C 59.46 27.72 60.39 28.67 60.86 29.14 C 59.43 31.13 57.59 32.76 55.47 33.97 C 54.92 31.99 55.90 30.74 57.78 30.11 C 57.69 29.20 57.61 28.29 57.49 27.38 Z" />
<path fill="#d0bd9d" opacity="1.00" d=" M 147.17 48.57 C 147.51 49.14 148.18 50.28 148.51 50.85 C 149.01 50.99 150.01 51.25 150.51 51.38 C 150.91 52.42 151.31 53.46 151.72 54.51 C 152.57 54.49 154.28 54.46 155.13 54.44 C 155.36 54.70 155.82 55.21 156.05 55.47 C 153.17 55.54 150.30 55.19 147.48 54.62 C 147.46 54.37 147.42 53.86 147.41 53.61 C 147.63 51.91 147.05 50.57 145.67 49.59 C 146.04 49.33 146.80 48.82 147.17 48.57 Z" />
</g>
<g id="#fefef8ff">
<path fill="#fefef8" opacity="1.00" d=" M 87.89 26.47 C 88.72 26.37 90.38 26.17 91.21 26.07 C 92.01 27.00 92.80 27.92 93.60 28.85 C 93.13 31.11 92.74 33.39 92.43 35.68 L 94.27 35.86 C 94.35 34.34 94.42 32.79 95.13 31.41 C 96.04 33.48 97.59 34.24 99.79 33.68 C 100.08 32.94 100.66 31.44 100.95 30.69 C 101.16 31.81 101.30 32.94 101.46 34.07 C 101.07 34.49 100.68 34.91 100.28 35.32 C 99.00 34.85 97.52 33.72 96.27 34.94 C 94.52 36.51 91.68 35.87 90.31 37.88 C 90.85 35.48 90.09 32.44 87.88 31.14 C 87.22 32.75 86.68 34.41 86.14 36.06 C 87.33 37.25 88.41 38.57 88.90 40.21 C 88.17 40.33 86.73 40.57 86.00 40.69 C 84.81 41.44 83.58 42.12 82.35 42.80 C 84.20 40.59 85.03 37.84 85.32 35.01 L 85.24 33.62 C 85.14 33.37 84.93 32.88 84.82 32.63 L 86.59 33.11 C 85.71 30.71 86.58 28.47 87.89 26.47 Z" />
</g>
<g id="#6a4d24fe">
<path fill="#6a4d24" opacity="1.00" d=" M 94.20 26.55 C 96.64 28.42 98.34 31.01 99.79 33.68 C 97.59 34.24 96.04 33.48 95.13 31.41 C 94.97 31.16 94.65 30.66 94.49 30.42 C 94.39 29.13 94.29 27.84 94.20 26.55 Z" />
</g>
<g id="#fffffdff">
<path fill="#fffffd" opacity="1.00" d=" M 121.51 26.72 C 122.78 28.24 124.31 29.53 125.46 31.14 C 125.71 32.99 125.53 34.86 125.47 36.71 C 124.67 36.54 123.89 36.35 123.11 36.15 C 122.76 32.98 122.16 29.84 121.51 26.72 Z" />
</g>
<g id="#4c3d29a8">
<path fill="#4c3d29" opacity="0.66" d=" M 132.91 29.15 C 133.50 28.69 134.11 28.24 134.73 27.81 C 134.82 28.34 135.01 29.41 135.10 29.94 C 133.73 32.31 132.52 34.77 131.34 37.25 L 130.76 37.39 C 130.89 36.69 131.16 35.29 131.30 34.60 C 131.49 33.31 131.65 32.02 131.78 30.73 C 132.06 30.34 132.63 29.55 132.91 29.15 Z" />
</g>
<g id="#fcf7d9ff">
<path fill="#fcf7d9" opacity="1.00" d=" M 98.14 27.82 C 101.49 27.81 96.81 30.99 98.14 27.82 Z" />
</g>
<g id="#fefcfdff">
<path fill="#fefcfd" opacity="1.00" d=" M 50.04 31.28 C 50.25 30.58 50.67 29.16 50.88 28.46 C 52.37 29.38 53.88 30.27 55.36 31.21 C 53.59 31.39 51.81 31.38 50.04 31.28 Z" />
<path fill="#fefcfd" opacity="1.00" d=" M 140.36 62.01 C 146.57 58.68 154.03 59.57 160.32 62.20 C 163.70 63.40 166.76 65.83 168.03 69.28 C 162.01 69.81 156.03 68.77 150.18 67.48 C 146.82 66.50 143.30 65.88 140.25 64.08 C 140.28 63.57 140.33 62.53 140.36 62.01 Z" />
</g>
<g id="#fdf7feff">
<path fill="#fdf7fe" opacity="1.00" d=" M 44.66 30.70 C 45.18 30.63 46.22 30.50 46.74 30.44 C 47.85 30.94 48.96 31.43 50.07 31.90 C 50.30 32.39 50.75 33.35 50.97 33.84 C 49.73 33.68 47.24 33.36 46.00 33.20 C 47.11 34.64 48.76 35.36 50.28 36.22 L 50.48 37.51 L 50.63 38.48 C 51.85 38.48 53.07 38.49 54.29 38.49 C 54.57 39.02 55.13 40.08 55.41 40.61 C 57.54 40.48 59.76 40.06 61.81 40.88 C 63.56 41.65 65.45 41.60 67.31 41.40 C 66.37 42.35 65.43 43.31 64.49 44.26 C 63.26 44.44 62.03 44.68 60.82 44.96 C 58.73 44.82 56.65 44.55 54.57 44.36 C 53.60 44.25 52.62 44.13 51.65 44.00 C 51.61 43.62 51.53 42.85 51.49 42.47 C 52.69 41.73 53.79 40.84 54.50 39.59 C 53.17 39.58 51.84 39.58 50.51 39.60 C 50.23 39.23 49.66 38.49 49.37 38.12 C 47.93 36.28 46.50 34.42 45.36 32.37 L 45.00 31.70 L 44.66 30.70 Z" />
</g>
<g id="#f3e6c9ff">
<path fill="#f3e6c9" opacity="1.00" d=" M 77.46 31.00 C 80.49 29.51 77.42 34.38 77.46 31.00 Z" />
</g>
<g id="#efe8ceff">
<path fill="#efe8ce" opacity="1.00" d=" M 80.98 32.33 C 82.58 32.00 83.26 32.65 83.01 34.28 L 82.18 34.55 L 81.32 34.27 C 81.23 33.79 81.06 32.81 80.98 32.33 Z" />
</g>
<g id="#593f1bff">
<path fill="#593f1b" opacity="1.00" d=" M 118.16 32.07 C 118.40 32.55 118.89 33.51 119.13 33.98 C 118.89 33.51 118.40 32.55 118.16 32.07 Z" />
</g>
<g id="#feffffff">
<path fill="#feffff" opacity="1.00" d=" M 140.97 34.83 C 143.14 34.61 145.19 33.91 146.84 32.45 C 147.08 33.00 147.56 34.09 147.79 34.64 C 147.77 34.97 147.71 35.61 147.68 35.94 C 145.46 37.59 143.49 39.75 140.81 40.63 C 139.07 41.00 137.49 39.88 137.12 38.16 C 136.43 38.43 135.05 38.96 134.36 39.23 C 134.35 38.60 134.35 37.33 134.35 36.69 C 134.97 36.15 135.55 35.57 136.10 34.95 C 136.27 35.75 136.61 37.35 136.78 38.15 C 138.62 37.66 139.88 36.31 140.97 34.83 Z" />
</g>
<g id="#fefefcfe">
<path fill="#fefefc" opacity="1.00" d=" M 149.61 31.64 C 150.42 31.56 152.06 31.41 152.87 31.34 C 154.14 32.45 155.42 33.55 156.70 34.65 C 156.62 35.45 156.53 36.25 156.44 37.05 C 154.50 37.36 153.02 38.53 152.02 40.17 C 150.40 41.19 148.50 41.19 146.67 41.40 C 145.58 43.82 148.97 44.10 150.49 44.68 C 151.49 45.79 152.44 46.93 153.39 48.09 C 151.36 49.27 149.35 48.27 147.75 46.92 C 147.51 46.27 147.04 44.97 146.80 44.32 C 145.87 44.42 144.95 44.56 144.04 44.74 C 143.60 44.54 142.74 44.14 142.30 43.94 C 142.35 43.57 142.43 42.82 142.47 42.45 C 143.72 42.74 144.90 42.69 146.02 42.30 C 146.12 41.60 146.32 40.19 146.42 39.49 C 148.11 37.96 149.84 36.46 151.60 35.00 C 150.86 34.41 150.13 33.82 149.41 33.22 L 149.61 31.64 Z" />
</g>
<g id="#fcfcf8ff">
<path fill="#fcfcf8" opacity="1.00" d=" M 40.53 34.24 C 41.07 34.05 42.14 33.68 42.68 33.49 L 43.60 33.16 C 43.70 34.77 43.75 36.38 43.86 37.99 C 43.85 38.59 43.82 39.78 43.81 40.38 L 41.73 40.12 C 43.25 41.78 44.73 43.49 46.06 45.32 C 43.95 44.27 41.55 43.14 40.73 40.73 C 41.06 40.40 41.72 39.72 42.05 39.39 C 43.63 38.10 43.52 35.79 42.27 34.32 L 40.53 34.24 Z" />
<path fill="#fcfcf8" opacity="1.00" d=" M 109.09 68.43 C 112.86 67.93 116.49 66.60 119.76 64.68 C 119.73 66.57 119.70 68.47 119.56 70.36 C 117.40 74.60 113.34 77.54 109.07 79.39 C 104.35 78.53 99.67 77.44 94.93 76.66 C 91.83 78.60 88.11 78.10 84.64 78.48 C 85.63 73.33 79.38 72.15 75.58 72.45 C 75.53 70.77 75.56 69.09 75.58 67.41 C 76.65 67.33 78.78 67.17 79.85 67.09 C 79.71 68.00 79.44 69.83 79.30 70.74 C 79.80 70.65 80.80 70.46 81.30 70.36 C 81.30 69.65 81.31 68.23 81.31 67.53 C 84.37 68.77 87.70 68.49 90.91 68.86 C 91.22 69.47 91.84 70.69 92.15 71.30 C 89.01 71.42 85.45 69.73 82.74 71.98 C 86.61 73.77 90.88 73.49 94.86 72.26 C 95.09 70.05 97.13 69.60 98.92 69.16 C 102.25 68.33 105.70 68.75 109.09 68.43 M 108.09 71.30 C 106.26 71.22 107.72 74.04 108.95 72.79 C 111.91 72.12 115.69 71.37 117.01 68.26 C 113.84 68.65 111.08 70.33 108.09 71.30 M 93.61 75.43 C 97.55 75.42 101.48 75.71 105.39 76.24 C 104.70 73.64 101.87 74.58 99.91 74.28 C 97.92 72.72 94.86 73.04 93.61 75.43 M 89.44 75.74 C 90.26 76.55 92.71 76.51 92.73 75.09 C 91.90 74.41 89.45 74.36 89.44 75.74 Z" />
</g>
<g id="#725321fa">
<path fill="#725321" opacity="0.98" d=" M 42.68 33.49 C 43.35 33.21 44.69 32.65 45.36 32.37 C 46.50 34.42 47.93 36.28 49.37 38.12 C 48.91 39.30 48.45 40.47 47.99 41.65 C 46.86 40.67 45.70 39.72 44.54 38.77 C 44.37 38.58 44.03 38.18 43.86 37.99 C 43.75 36.38 43.70 34.77 43.60 33.16 L 42.68 33.49 Z" />
</g>
<g id="#e5c9afff">
<path fill="#e5c9af" opacity="1.00" d=" M 55.95 36.46 C 56.64 33.93 59.27 33.46 61.51 33.25 C 62.01 33.42 63.00 33.76 63.50 33.94 C 63.52 34.37 63.58 35.24 63.61 35.67 C 61.08 36.11 58.53 36.58 55.95 36.46 Z" />
<path fill="#e5c9af" opacity="1.00" d=" M 126.98 39.80 C 127.18 39.08 127.57 37.63 127.77 36.91 C 127.61 37.70 127.30 39.29 127.14 40.09 C 127.84 41.04 128.54 41.99 129.24 42.94 C 128.45 43.34 126.87 44.15 126.08 44.56 L 125.91 44.63 C 125.56 43.51 125.21 42.39 124.86 41.27 C 123.59 41.32 122.31 41.37 121.03 41.43 C 120.42 43.12 118.81 43.63 117.26 44.08 C 116.96 43.57 116.38 42.55 116.08 42.04 C 115.16 42.29 114.24 42.54 113.32 42.79 C 113.33 42.05 113.36 40.55 113.38 39.80 C 114.59 40.32 115.81 40.84 117.02 41.38 C 118.18 40.89 119.34 40.40 120.52 39.95 L 121.68 39.54 C 123.44 39.64 125.21 39.73 126.98 39.80 Z" />
<path fill="#e5c9af" opacity="1.00" d=" M 71.17 40.03 C 71.70 39.28 72.46 38.76 73.13 38.16 C 72.85 40.76 75.18 41.54 76.55 39.40 C 76.57 40.46 76.59 41.53 76.63 42.59 C 75.60 41.68 74.39 41.26 73.02 41.31 C 73.60 43.03 74.84 44.36 75.99 45.72 C 75.38 45.69 74.18 45.64 73.58 45.62 C 73.54 44.98 73.45 43.72 73.40 43.08 C 72.63 42.13 70.86 41.52 71.17 40.03 Z" />
<path fill="#e5c9af" opacity="1.00" d=" M 44.54 38.77 C 45.70 39.72 46.86 40.67 47.99 41.65 C 48.83 42.38 49.65 43.11 50.48 43.85 C 49.90 44.44 49.31 45.03 48.73 45.61 C 47.34 43.32 46.04 40.99 44.54 38.77 Z" />
<path fill="#e5c9af" opacity="1.00" d=" M 105.62 38.97 C 107.30 39.35 108.98 39.76 110.65 40.16 C 109.09 40.91 107.47 41.50 105.82 42.01 C 106.26 42.44 107.16 43.29 107.60 43.72 C 107.01 44.38 106.41 45.03 105.81 45.68 C 104.56 44.52 103.30 43.36 102.04 42.22 C 102.90 42.35 104.63 42.62 105.49 42.75 C 105.53 41.49 105.57 40.23 105.62 38.97 Z" />
</g>
<g id="#ad9568fe">
<path fill="#ad9568" opacity="1.00" d=" M 71.36 32.07 C 71.74 32.17 72.49 32.38 72.87 32.48 C 74.84 33.12 77.71 33.57 76.19 36.32 C 74.62 35.92 73.11 35.35 71.65 34.67 C 71.58 34.02 71.43 32.72 71.36 32.07 Z" />
</g>
<g id="#674312ff">
<path fill="#674312" opacity="1.00" d=" M 53.18 34.34 C 54.22 34.88 55.07 35.71 55.95 36.46 C 54.14 36.84 52.31 37.18 50.48 37.51 L 50.28 36.22 C 51.20 35.52 52.17 34.89 53.18 34.34 Z" />
</g>
<g id="#b39774fe">
<path fill="#b39774" opacity="1.00" d=" M 79.16 35.32 C 80.68 34.73 82.98 36.96 82.04 38.45 C 80.51 38.95 78.65 36.75 79.16 35.32 Z" />
</g>
<g id="#d8c398ff">
<path fill="#d8c398" opacity="1.00" d=" M 115.76 36.05 C 116.31 33.76 119.89 34.47 118.92 36.86 C 117.71 37.37 116.66 37.10 115.76 36.05 Z" />
</g>
<g id="#70522fff">
<path fill="#70522f" opacity="1.00" d=" M 55.95 36.46 C 58.53 36.58 61.08 36.11 63.61 35.67 C 63.15 37.45 62.46 39.16 61.81 40.88 C 59.76 40.06 57.54 40.48 55.41 40.61 C 55.13 40.08 54.57 39.02 54.29 38.49 C 53.07 38.49 51.85 38.48 50.63 38.48 L 50.48 37.51 C 52.31 37.18 54.14 36.84 55.95 36.46 Z" />
</g>
<g id="#674b11ff">
<path fill="#674b11" opacity="1.00" d=" M 98.13 38.48 C 99.06 38.62 99.99 38.76 100.93 38.91 C 101.94 40.52 104.68 41.51 104.39 38.69 L 105.62 38.97 C 105.57 40.23 105.53 41.49 105.49 42.75 C 104.63 42.62 102.90 42.35 102.04 42.22 C 103.30 43.36 104.56 44.52 105.81 45.68 C 106.41 45.03 107.01 44.38 107.60 43.72 C 107.16 43.29 106.26 42.44 105.82 42.01 C 107.47 41.50 109.09 40.91 110.65 40.16 C 110.84 40.21 111.22 40.29 111.40 40.33 C 114.52 38.32 118.25 39.16 121.68 39.54 L 120.52 39.95 C 119.34 40.40 118.18 40.89 117.02 41.38 C 115.81 40.84 114.59 40.32 113.38 39.80 C 113.36 40.55 113.33 42.05 113.32 42.79 C 114.24 42.54 115.16 42.29 116.08 42.04 C 116.38 42.55 116.96 43.57 117.26 44.08 C 118.81 43.63 120.42 43.12 121.03 41.43 C 122.31 41.37 123.59 41.32 124.86 41.27 C 125.21 42.39 125.56 43.51 125.91 44.63 C 124.48 45.19 122.99 45.61 121.50 45.97 C 117.49 44.53 113.40 44.83 109.29 45.57 C 108.68 45.99 108.07 46.42 107.46 46.85 C 107.80 47.66 108.47 49.27 108.80 50.07 C 107.17 48.65 105.67 47.09 104.18 45.53 C 102.72 45.56 101.26 45.60 99.81 45.65 C 99.45 45.35 98.73 44.74 98.38 44.43 C 99.34 42.45 99.22 40.38 98.13 38.48 M 110.01 42.61 C 109.37 44.20 109.91 44.73 111.63 44.18 C 112.25 42.59 111.71 42.07 110.01 42.61 Z" />
</g>
<g id="#af996fff">
<path fill="#af996f" opacity="1.00" d=" M 68.39 42.03 C 69.64 40.62 71.72 43.12 70.39 44.27 C 69.07 45.46 67.40 43.25 68.39 42.03 Z" />
</g>
<g id="#7f6b46ff">
<path fill="#7f6b46" opacity="1.00" d=" M 87.68 41.99 C 88.33 42.30 88.98 42.61 89.62 42.93 C 88.98 44.37 88.39 45.86 88.35 47.46 C 87.41 48.52 86.52 49.62 85.62 50.71 C 85.55 52.33 85.39 53.97 84.83 55.51 C 84.69 54.57 84.41 52.70 84.27 51.76 C 81.90 49.78 78.63 50.73 76.35 52.34 C 74.15 53.30 75.64 55.20 76.30 56.66 C 77.77 55.86 79.25 55.07 80.75 54.33 C 79.67 55.99 78.70 57.87 76.88 58.84 C 74.98 57.89 73.63 56.17 71.99 54.86 C 72.51 53.54 73.06 52.23 73.62 50.93 C 73.19 51.07 72.33 51.34 71.90 51.48 C 72.62 50.53 73.36 49.58 74.11 48.65 C 77.52 49.45 80.96 50.18 84.44 50.55 C 84.30 47.34 86.04 44.60 87.68 41.99 M 85.96 45.98 C 86.52 46.57 86.52 46.57 85.96 45.98 Z" />
</g>
<g id="#dbcdb2ff">
<path fill="#dbcdb2" opacity="1.00" d=" M 110.01 42.61 C 111.71 42.07 112.25 42.59 111.63 44.18 C 109.91 44.73 109.37 44.20 110.01 42.61 Z" />
</g>
<g id="#a98c61ff">
<path fill="#a98c61" opacity="1.00" d=" M 131.28 42.98 C 132.94 42.48 133.51 43.03 133.00 44.63 C 131.35 45.12 130.77 44.58 131.28 42.98 Z" />
</g>
<g id="#3e3b35a5">
<path fill="#3e3b35" opacity="0.65" d=" M 172.37 43.72 C 174.08 43.75 175.79 43.79 177.51 43.82 C 177.53 44.18 177.57 44.91 177.60 45.27 C 176.82 46.24 176.05 47.22 175.26 48.18 C 175.37 47.60 175.58 46.45 175.69 45.87 C 174.77 45.86 172.95 45.84 172.03 45.82 C 172.12 45.30 172.28 44.25 172.37 43.72 Z" />
<path fill="#3e3b35" opacity="0.65" d=" M 91.85 174.01 C 100.00 175.11 108.15 176.41 116.41 176.05 C 116.06 179.06 112.98 179.84 110.74 181.10 C 112.16 179.67 113.72 178.39 115.30 177.14 C 111.48 177.14 107.65 177.15 103.83 177.26 C 102.97 176.66 102.11 176.06 101.26 175.46 C 99.88 175.63 98.50 175.80 97.13 175.96 C 96.66 175.64 95.72 175.00 95.24 174.67 C 94.68 174.59 93.54 174.43 92.97 174.36 L 91.85 174.01 Z" />
<path fill="#3e3b35" opacity="0.65" d=" M 155.98 197.01 C 158.21 196.44 160.52 195.89 162.40 194.48 C 163.60 195.21 164.79 195.97 165.96 196.76 C 165.34 196.49 164.10 195.97 163.48 195.71 C 163.49 197.80 163.47 199.90 163.44 202.00 C 162.05 200.54 161.49 198.65 161.30 196.70 C 160.40 197.01 159.50 197.33 158.60 197.65 C 157.96 197.83 157.33 198.01 156.69 198.15 C 151.22 198.69 145.95 200.41 140.47 200.89 L 140.11 199.82 C 142.81 199.48 145.51 199.14 148.20 198.68 C 150.81 198.20 153.39 197.61 155.98 197.01 Z" />
</g>
<g id="#ac8f65ff">
<path fill="#ac8f65" opacity="1.00" d=" M 54.57 44.36 C 56.65 44.55 58.73 44.82 60.82 44.96 C 60.25 45.43 59.68 45.91 59.12 46.40 C 60.18 47.19 61.25 47.99 62.31 48.80 C 61.53 48.89 59.98 49.06 59.20 49.15 C 57.66 47.56 56.10 45.97 54.57 44.36 Z" />
</g>
<g id="#fdfefbff">
<path fill="#fdfefb" opacity="1.00" d=" M 94.42 44.46 C 95.74 44.45 97.06 44.44 98.38 44.43 C 98.73 44.74 99.45 45.35 99.81 45.65 C 101.26 45.60 102.72 45.56 104.18 45.53 C 105.67 47.09 107.17 48.65 108.80 50.07 C 108.47 49.27 107.80 47.66 107.46 46.85 C 108.07 46.42 108.68 45.99 109.29 45.57 C 113.40 44.83 117.49 44.53 121.50 45.97 C 125.04 46.75 128.71 46.16 132.24 47.03 C 132.23 47.60 132.21 48.75 132.19 49.32 C 130.61 49.57 129.37 50.42 128.77 51.95 C 130.32 51.60 131.86 51.22 133.40 50.81 C 133.77 51.25 134.51 52.14 134.87 52.58 C 136.97 52.50 139.06 52.40 141.16 52.42 C 143.25 52.74 145.32 53.21 147.41 53.61 C 147.42 53.86 147.46 54.37 147.48 54.62 C 150.30 55.19 153.17 55.54 156.05 55.47 L 156.55 55.47 C 158.11 56.94 159.70 58.40 161.23 59.92 C 156.44 59.48 151.91 57.35 147.04 57.65 C 141.61 59.00 136.30 61.74 133.70 66.97 C 132.44 68.66 132.13 71.05 133.64 72.69 C 135.40 74.59 136.76 76.81 137.89 79.13 C 139.15 79.99 140.40 80.87 141.63 81.78 C 145.74 85.14 151.03 86.46 156.12 87.53 C 163.03 88.84 170.00 85.45 174.25 80.07 C 178.59 90.19 180.26 101.35 179.45 112.32 C 178.34 122.46 175.41 132.54 170.03 141.27 C 160.54 157.57 143.82 169.18 125.44 173.12 C 124.24 173.53 123.04 173.96 121.84 174.41 C 120.06 171.42 118.29 168.42 116.47 165.46 C 115.91 165.49 114.81 165.57 114.25 165.60 C 115.77 168.57 117.43 171.46 118.88 174.46 C 111.63 174.46 104.29 174.88 97.21 173.00 C 81.60 169.89 67.32 160.91 57.54 148.39 C 49.71 138.52 45.03 126.41 43.37 113.97 C 41.46 106.97 43.38 99.88 44.43 92.94 L 44.49 92.27 C 46.94 82.96 50.60 73.79 56.70 66.24 C 57.01 65.80 57.62 64.91 57.93 64.47 C 59.53 62.11 61.65 60.18 63.83 58.36 C 64.89 58.40 67.01 58.48 68.07 58.52 C 68.14 61.40 65.59 61.83 63.40 62.44 C 65.08 62.43 66.75 62.41 68.42 62.39 C 68.41 60.87 68.38 59.34 68.36 57.82 C 69.71 57.27 71.06 56.71 72.40 56.15 C 71.87 55.68 70.81 54.74 70.28 54.27 C 70.80 53.33 71.28 52.36 71.90 51.48 C 72.33 51.34 73.19 51.07 73.62 50.93 C 73.06 52.23 72.51 53.54 71.99 54.86 C 73.63 56.17 74.98 57.89 76.88 58.84 C 78.70 57.87 79.67 55.99 80.75 54.33 C 79.25 55.07 77.77 55.86 76.30 56.66 C 75.64 55.20 74.15 53.30 76.35 52.34 C 78.63 50.73 81.90 49.78 84.27 51.76 C 84.41 52.70 84.69 54.57 84.83 55.51 C 85.39 53.97 85.55 52.33 85.62 50.71 C 86.52 49.62 87.41 48.52 88.35 47.46 C 89.51 46.42 90.80 45.59 92.22 44.95 C 92.34 45.77 92.58 47.42 92.69 48.24 C 94.91 48.73 97.12 49.28 99.34 49.76 C 98.47 47.67 96.33 46.89 94.39 46.11 C 94.40 45.70 94.41 44.87 94.42 44.46 M 84.67 56.71 C 79.23 58.98 74.51 63.49 72.82 69.23 C 72.75 71.80 74.55 74.01 75.94 76.05 C 77.27 77.78 79.08 79.04 80.88 80.23 C 82.57 80.83 84.22 81.50 85.85 82.24 C 92.43 84.40 99.60 84.05 106.20 82.17 C 107.81 81.47 109.46 80.83 111.14 80.29 C 114.91 78.39 118.33 75.65 120.66 72.09 C 123.23 69.38 123.09 64.60 120.26 62.11 C 118.07 59.13 114.90 57.01 111.52 55.59 C 102.88 52.35 93.06 53.09 84.67 56.71 M 161.05 96.41 C 161.43 98.88 163.28 100.69 164.41 102.82 C 163.85 104.32 163.48 105.86 163.30 107.45 L 165.28 107.48 C 165.69 106.01 166.21 104.56 166.48 103.05 C 166.17 100.57 164.45 98.59 163.20 96.52 C 162.66 96.49 161.59 96.43 161.05 96.41 M 127.81 105.93 C 122.44 107.71 117.05 109.51 111.87 111.80 C 110.09 112.57 108.25 113.19 106.38 113.73 C 106.33 114.34 106.21 115.56 106.15 116.17 C 105.98 116.63 105.65 117.56 105.49 118.02 C 103.82 118.04 103.16 118.83 103.50 120.38 C 100.79 121.20 99.88 124.90 97.50 126.56 C 97.46 127.02 97.38 127.96 97.34 128.42 C 98.89 129.17 100.53 129.92 102.31 129.57 C 103.71 128.21 103.27 126.14 103.66 124.41 C 104.22 122.86 105.10 121.46 105.88 120.02 L 106.12 119.37 C 106.65 118.24 107.20 117.11 107.77 116.00 C 109.23 117.67 110.89 119.15 112.81 120.25 C 114.18 120.36 115.54 120.63 116.81 121.16 C 122.53 121.94 128.36 121.96 134.08 121.13 C 135.57 120.31 137.29 120.31 138.95 120.21 C 144.33 116.22 150.27 112.25 153.25 106.02 C 154.41 102.93 150.18 100.80 147.65 101.87 C 140.93 101.77 133.89 102.99 127.81 105.93 M 94.30 113.57 C 94.82 113.60 95.85 113.65 96.37 113.68 C 96.57 112.36 96.67 110.99 97.40 109.84 C 97.14 109.46 96.62 108.68 96.36 108.30 C 94.01 108.99 94.41 111.64 94.30 113.57 Z" />
<path fill="#fdfefb" opacity="1.00" d=" M 86.52 58.20 C 95.15 54.52 105.58 54.38 113.86 59.07 C 115.48 60.09 117.61 60.97 117.91 63.12 C 114.36 63.59 111.38 65.78 107.90 66.45 C 105.12 66.80 102.29 66.28 99.52 66.79 C 94.03 68.22 88.04 67.32 82.90 65.05 C 81.31 64.71 79.67 64.64 78.06 64.42 C 79.68 61.09 83.31 59.57 86.52 58.20 Z" />
</g>
<g id="#ad9a75ff">
<path fill="#ad9a75" opacity="1.00" d=" M 125.91 44.63 L 126.08 44.56 C 128.22 45.48 130.49 46.03 132.78 46.40 C 133.99 45.09 135.30 43.69 137.28 43.91 C 136.52 44.94 135.74 45.94 134.95 46.94 C 135.46 47.16 136.47 47.58 136.97 47.79 C 136.44 48.15 135.36 48.87 134.83 49.23 C 133.96 49.52 133.07 49.50 132.19 49.32 C 132.21 48.75 132.23 47.60 132.24 47.03 C 128.71 46.16 125.04 46.75 121.50 45.97 C 122.99 45.61 124.48 45.19 125.91 44.63 Z" />
</g>
<g id="#332109ff">
<path fill="#332109" opacity="1.00" d=" M 140.54 44.36 C 140.98 44.25 141.86 44.05 142.30 43.94 C 142.74 44.14 143.60 44.54 144.04 44.74 C 144.95 44.56 145.87 44.42 146.80 44.32 C 147.04 44.97 147.51 46.27 147.75 46.92 C 149.35 48.27 151.36 49.27 153.39 48.09 C 153.62 48.01 154.09 47.86 154.32 47.79 C 155.76 47.49 157.21 47.30 158.66 47.10 C 158.46 47.74 158.07 49.04 157.88 49.68 C 156.67 49.52 155.47 49.37 154.27 49.22 C 154.24 49.90 154.18 51.28 154.16 51.96 C 154.80 51.78 156.08 51.40 156.72 51.22 C 156.20 52.30 155.67 53.37 155.13 54.44 C 154.28 54.46 152.57 54.49 151.72 54.51 C 151.31 53.46 150.91 52.42 150.51 51.38 C 150.01 51.25 149.01 50.99 148.51 50.85 C 148.18 50.28 147.51 49.14 147.17 48.57 C 146.60 48.30 145.46 47.76 144.89 47.49 L 144.33 48.03 C 144.23 48.11 144.03 48.27 143.92 48.35 C 142.84 46.98 141.70 45.65 140.54 44.36 Z" />
<path fill="#332109" opacity="1.00" d=" M 72.45 48.30 C 72.86 48.39 73.70 48.56 74.11 48.65 C 73.36 49.58 72.62 50.53 71.90 51.48 C 71.28 52.36 70.80 53.33 70.28 54.27 C 70.81 54.74 71.87 55.68 72.40 56.15 C 71.06 56.71 69.71 57.27 68.36 57.82 C 68.38 59.34 68.41 60.87 68.42 62.39 C 66.75 62.41 65.08 62.43 63.40 62.44 C 65.59 61.83 68.14 61.40 68.07 58.52 C 67.01 58.48 64.89 58.40 63.83 58.36 C 61.65 60.18 59.53 62.11 57.93 64.47 C 57.64 63.32 57.35 62.18 57.06 61.03 C 57.91 60.56 58.76 60.09 59.59 59.59 C 60.66 58.60 61.71 57.60 62.73 56.57 C 62.83 56.44 63.03 56.18 63.13 56.05 C 63.39 55.12 63.65 54.19 63.90 53.26 C 64.70 53.31 66.30 53.40 67.10 53.44 C 68.89 51.74 70.68 50.03 72.45 48.30 M 66.03 55.01 C 65.53 56.42 65.99 56.87 67.42 56.36 C 67.92 54.95 67.46 54.50 66.03 55.01 Z" />
</g>
<g id="#8d5e29ff">
<path fill="#8d5e29" opacity="1.00" d=" M 80.29 45.38 C 81.48 44.18 83.73 46.13 82.46 47.41 C 81.27 48.68 79.06 46.66 80.29 45.38 Z" />
</g>
<g id="#afa188ff">
<path fill="#afa188" opacity="1.00" d=" M 137.82 46.30 C 138.67 45.58 139.56 44.90 140.54 44.36 C 141.70 45.65 142.84 46.98 143.92 48.35 C 142.12 49.14 141.20 50.50 141.16 52.42 C 139.06 52.40 136.97 52.50 134.87 52.58 C 134.51 52.14 133.77 51.25 133.40 50.81 C 131.86 51.22 130.32 51.60 128.77 51.95 C 129.37 50.42 130.61 49.57 132.19 49.32 C 133.07 49.50 133.96 49.52 134.83 49.23 C 135.44 51.23 138.59 51.27 138.37 48.83 C 139.10 48.75 140.55 48.59 141.28 48.51 C 140.13 47.77 138.97 47.04 137.82 46.30 Z" />
</g>
<g id="#a58555ff">
<path fill="#a58555" opacity="1.00" d=" M 52.23 46.06 C 53.56 46.71 53.55 47.38 52.20 48.04 C 50.88 47.39 50.89 46.73 52.23 46.06 Z" />
</g>
<g id="#ffffdaff">
<path fill="#ffffda" opacity="1.00" d=" M 85.96 45.98 C 86.52 46.57 86.52 46.57 85.96 45.98 Z" />
</g>
<g id="#ecead9ff">
<path fill="#ecead9" opacity="1.00" d=" M 134.83 49.23 C 135.36 48.87 136.44 48.15 136.97 47.79 C 137.32 48.05 138.02 48.57 138.37 48.83 C 138.59 51.27 135.44 51.23 134.83 49.23 Z" />
</g>
<g id="#cab9a1ff">
<path fill="#cab9a1" opacity="1.00" d=" M 144.89 47.49 C 145.46 47.76 146.60 48.30 147.17 48.57 C 146.80 48.82 146.04 49.33 145.67 49.59 C 145.33 49.20 144.67 48.42 144.33 48.03 L 144.89 47.49 Z" />
</g>
<g id="#734a1aff">
<path fill="#734a1a" opacity="1.00" d=" M 141.16 52.42 C 141.20 50.50 142.12 49.14 143.92 48.35 C 144.03 48.27 144.23 48.11 144.33 48.03 C 144.67 48.42 145.33 49.20 145.67 49.59 C 147.05 50.57 147.63 51.91 147.41 53.61 C 145.32 53.21 143.25 52.74 141.16 52.42 Z" />
</g>
<g id="#5a5437cd">
<path fill="#5a5437" opacity="0.80" d=" M 47.33 50.89 C 47.65 51.09 48.29 51.50 48.61 51.70 C 49.09 52.64 49.57 53.59 50.04 54.54 C 49.29 54.52 47.78 54.48 47.03 54.46 C 46.06 54.72 45.12 55.33 44.09 55.20 C 43.59 54.26 43.12 53.30 42.69 52.32 C 44.50 52.49 46.31 52.65 48.12 52.81 L 47.33 50.89 Z" />
</g>
<g id="#fdfdfcff">
<path fill="#fdfdfc" opacity="1.00" d=" M 48.61 51.70 C 51.83 50.60 55.06 51.67 58.09 52.81 C 58.57 53.53 59.06 54.26 59.55 54.98 C 60.61 55.50 61.67 56.03 62.73 56.57 C 61.71 57.60 60.66 58.60 59.59 59.59 C 58.70 59.23 57.81 58.87 56.93 58.50 C 56.29 59.35 55.63 60.19 54.95 61.01 C 54.07 60.14 53.25 59.21 52.43 58.28 C 52.50 57.03 52.58 55.77 52.65 54.52 C 51.30 53.58 49.95 52.64 48.61 51.70 Z" />
</g>
<g id="#3d37297f">
<path fill="#3d3729" opacity="0.50" d=" M 164.94 53.72 C 166.00 53.10 167.06 52.47 168.13 51.85 C 168.22 52.34 168.41 53.33 168.51 53.82 C 168.66 54.53 168.94 55.94 169.09 56.65 C 168.00 56.74 166.91 56.83 165.82 56.92 L 164.70 56.41 C 165.54 56.27 167.23 55.98 168.08 55.83 C 167.78 55.36 167.18 54.42 166.89 53.94 C 166.40 53.89 165.42 53.78 164.94 53.72 Z" />
</g>
<g id="#272826ff">
<path fill="#272826" opacity="1.00" d=" M 84.67 56.71 C 93.06 53.09 102.88 52.35 111.52 55.59 C 114.90 57.01 118.07 59.13 120.26 62.11 C 120.42 62.60 120.74 63.58 120.89 64.07 C 120.61 64.22 120.04 64.52 119.76 64.68 C 116.49 66.60 112.86 67.93 109.09 68.43 C 105.70 68.75 102.25 68.33 98.92 69.16 C 96.25 69.43 93.57 69.17 90.91 68.86 C 87.70 68.49 84.37 68.77 81.31 67.53 C 81.31 68.23 81.30 69.65 81.30 70.36 C 80.80 70.46 79.80 70.65 79.30 70.74 C 79.44 69.83 79.71 68.00 79.85 67.09 C 78.78 67.17 76.65 67.33 75.58 67.41 C 75.56 69.09 75.53 70.77 75.58 72.45 C 75.65 73.66 75.78 74.86 75.94 76.05 C 74.55 74.01 72.75 71.80 72.82 69.23 C 74.51 63.49 79.23 58.98 84.67 56.71 M 86.52 58.20 C 83.31 59.57 79.68 61.09 78.06 64.42 C 79.67 64.64 81.31 64.71 82.90 65.05 C 88.04 67.32 94.03 68.22 99.52 66.79 C 102.29 66.28 105.12 66.80 107.90 66.45 C 111.38 65.78 114.36 63.59 117.91 63.12 C 117.61 60.97 115.48 60.09 113.86 59.07 C 105.58 54.38 95.15 54.52 86.52 58.20 Z" />
</g>
<g id="#766748d2">
<path fill="#766748" opacity="0.82" d=" M 162.30 55.28 C 162.96 54.89 164.28 54.11 164.94 53.72 C 165.42 53.78 166.40 53.89 166.89 53.94 C 167.18 54.42 167.78 55.36 168.08 55.83 C 167.23 55.98 165.54 56.27 164.70 56.41 C 164.10 56.13 162.90 55.57 162.30 55.28 Z" />
</g>
<g id="#9c8055ff">
<path fill="#9c8055" opacity="1.00" d=" M 66.03 55.01 C 67.46 54.50 67.92 54.95 67.42 56.36 C 65.99 56.87 65.53 56.42 66.03 55.01 Z" />
</g>
<g id="#090906ff">
<path fill="#090906" opacity="1.00" d=" M 156.55 55.47 C 158.08 55.28 159.57 55.64 160.85 56.52 C 161.20 57.11 161.58 57.69 161.98 58.26 C 162.58 59.11 163.21 59.93 163.88 60.74 C 162.69 61.22 161.50 61.71 160.32 62.20 C 154.03 59.57 146.57 58.68 140.36 62.01 C 140.33 62.53 140.28 63.57 140.25 64.08 C 143.30 65.88 146.82 66.50 150.18 67.48 C 149.34 67.92 148.51 68.38 147.69 68.85 C 143.95 68.11 140.34 66.85 136.83 65.38 C 136.39 66.90 135.85 68.40 135.56 69.96 C 135.84 72.32 137.74 73.94 139.15 75.68 C 139.61 78.31 141.55 80.00 143.86 81.09 C 143.30 81.26 142.19 81.60 141.63 81.78 C 140.40 80.87 139.15 79.99 137.89 79.13 C 136.76 76.81 135.40 74.59 133.64 72.69 C 133.60 70.79 133.59 68.87 133.70 66.97 C 136.30 61.74 141.61 59.00 147.04 57.65 C 151.91 57.35 156.44 59.48 161.23 59.92 C 159.70 58.40 158.11 56.94 156.55 55.47 Z" />
<path fill="#090906" opacity="1.00" d=" M 161.05 96.41 C 161.59 96.43 162.66 96.49 163.20 96.52 C 164.45 98.59 166.17 100.57 166.48 103.05 C 166.21 104.56 165.69 106.01 165.28 107.48 L 163.30 107.45 C 163.48 105.86 163.85 104.32 164.41 102.82 C 163.28 100.69 161.43 98.88 161.05 96.41 Z" />
</g>
<g id="#050100ff">
<path fill="#050100" opacity="1.00" d=" M 160.32 62.20 C 161.50 61.71 162.69 61.22 163.88 60.74 C 165.24 62.24 166.63 63.70 167.95 65.23 C 168.52 65.95 169.11 66.66 169.67 67.38 C 170.12 68.54 170.56 69.70 171.00 70.86 C 168.39 70.77 165.54 70.29 163.25 71.89 C 161.29 73.22 159.41 74.74 157.14 75.49 C 154.20 75.94 151.55 74.24 149.49 72.34 C 149.51 71.67 149.54 70.35 149.55 69.68 C 149.09 69.47 148.15 69.06 147.69 68.85 C 148.51 68.38 149.34 67.92 150.18 67.48 C 156.03 68.77 162.01 69.81 168.03 69.28 C 166.76 65.83 163.70 63.40 160.32 62.20 Z" />
</g>
<g id="#9b9c9aff">
<path fill="#9b9c9a" opacity="1.00" d=" M 120.26 62.11 C 123.09 64.60 123.23 69.38 120.66 72.09 C 120.69 71.18 120.76 69.34 120.80 68.42 C 120.49 68.91 119.87 69.88 119.56 70.36 C 119.70 68.47 119.73 66.57 119.76 64.68 C 120.04 64.52 120.61 64.22 120.89 64.07 C 120.74 63.58 120.42 62.60 120.26 62.11 Z" />
</g>
<g id="#363836ff">
<path fill="#363836" opacity="1.00" d=" M 54.46 65.92 C 55.02 66.00 56.14 66.16 56.70 66.24 C 50.60 73.79 46.94 82.96 44.49 92.27 C 44.11 88.32 45.83 84.65 46.32 80.80 C 47.86 75.29 51.12 70.49 54.46 65.92 Z" />
<path fill="#363836" opacity="1.00" d=" M 41.70 94.97 C 42.60 94.27 43.51 93.60 44.43 92.94 C 43.38 99.88 41.46 106.97 43.37 113.97 C 45.03 126.41 49.71 138.52 57.54 148.39 C 67.32 160.91 81.60 169.89 97.21 173.00 C 104.29 174.88 111.63 174.46 118.88 174.46 C 119.68 175.15 120.49 175.84 121.30 176.53 C 123.21 176.01 125.35 175.56 125.44 173.12 C 143.82 169.18 160.54 157.57 170.03 141.27 C 175.41 132.54 178.34 122.46 179.45 112.32 C 179.57 108.44 179.60 104.53 180.68 100.77 C 184.20 106.39 180.33 112.99 180.58 119.06 C 178.73 127.52 175.93 135.94 171.38 143.36 C 169.81 146.06 167.19 148.11 166.27 151.17 C 164.90 151.00 164.09 151.66 163.82 153.13 C 159.68 157.18 155.96 161.77 150.88 164.71 C 143.72 169.13 136.06 173.18 127.71 174.73 C 125.30 174.15 126.53 177.24 128.10 175.58 C 130.03 176.40 132.10 176.69 134.19 176.67 C 134.65 176.87 135.59 177.28 136.06 177.48 C 145.70 178.90 154.69 182.92 162.88 188.07 C 164.19 191.71 167.54 194.29 168.18 198.18 C 167.62 197.83 166.51 197.11 165.96 196.76 C 164.79 195.97 163.60 195.21 162.40 194.48 C 162.78 194.22 163.53 193.71 163.91 193.45 C 163.43 192.27 162.95 191.09 162.48 189.90 C 161.80 191.02 161.48 192.44 160.47 193.33 C 158.88 193.35 157.31 193.01 155.75 192.79 C 155.22 193.83 154.70 194.87 154.19 195.92 C 154.64 196.19 155.53 196.73 155.98 197.01 C 153.39 197.61 150.81 198.20 148.20 198.68 C 147.70 197.61 147.21 196.54 146.73 195.47 C 141.30 197.58 135.64 199.01 129.96 200.26 C 125.02 201.38 120.04 203.22 114.90 202.71 C 116.96 200.70 119.84 201.61 122.37 201.60 C 122.79 201.27 123.64 200.61 124.06 200.28 C 124.98 200.34 126.83 200.48 127.75 200.55 C 127.18 198.38 126.74 196.20 126.34 194.00 C 125.18 188.29 122.25 183.13 120.93 177.48 C 116.85 180.18 112.26 182.30 109.04 186.11 C 102.30 192.91 94.76 199.85 92.05 209.36 C 92.67 209.43 93.91 209.58 94.53 209.65 L 94.19 210.27 C 93.26 210.90 92.31 211.49 91.35 212.05 C 90.95 211.74 90.16 211.11 89.76 210.79 C 89.67 209.49 89.60 208.20 89.56 206.91 C 91.33 203.94 92.54 200.62 94.84 197.99 C 96.75 197.64 98.12 196.02 97.84 194.04 C 99.17 192.70 100.30 191.19 101.41 189.67 C 101.46 189.59 101.57 189.44 101.63 189.36 C 101.90 188.98 102.45 188.21 102.72 187.82 C 104.71 188.43 106.11 186.76 106.95 185.21 C 108.13 183.77 109.39 182.39 110.74 181.10 C 112.98 179.84 116.06 179.06 116.41 176.05 C 108.15 176.41 100.00 175.11 91.85 174.01 L 91.37 173.86 C 84.24 171.59 77.44 168.20 71.26 163.99 C 71.08 162.40 69.46 160.96 67.92 162.01 C 66.33 160.25 64.63 158.59 63.03 156.83 C 62.35 155.88 61.34 154.97 60.09 155.18 L 60.06 154.14 C 51.39 145.40 45.07 134.05 43.18 121.85 C 40.23 115.59 41.55 108.63 41.24 101.97 C 41.26 99.63 41.00 97.23 41.70 94.97 M 123.51 178.95 C 126.85 185.39 128.74 192.49 130.52 199.50 C 133.67 198.59 136.84 197.61 139.66 195.89 C 141.86 195.79 143.97 195.18 146.00 194.37 C 148.66 193.52 151.42 192.94 153.92 191.65 C 155.90 191.64 157.88 191.69 159.86 191.80 C 161.84 191.57 159.63 188.81 159.75 187.50 C 159.11 187.62 157.83 187.86 157.19 187.98 C 155.94 186.92 154.53 186.02 152.94 185.56 C 149.25 184.44 145.86 182.16 141.89 182.17 C 139.28 181.44 136.57 179.00 133.83 180.21 L 133.65 179.35 C 133.24 179.38 132.43 179.46 132.03 179.49 L 131.30 178.39 C 130.12 178.70 128.95 179.02 127.78 179.34 C 126.79 178.16 123.64 175.94 123.51 178.95 Z" />
</g>
<g id="#f9fdfbff">
<path fill="#f9fdfb" opacity="1.00" d=" M 136.83 65.38 C 140.34 66.85 143.95 68.11 147.69 68.85 C 148.15 69.06 149.09 69.47 149.55 69.68 C 149.54 70.35 149.51 71.67 149.49 72.34 C 151.55 74.24 154.20 75.94 157.14 75.49 C 159.41 74.74 161.29 73.22 163.25 71.89 C 166.37 71.30 170.73 70.51 171.44 74.73 C 169.22 74.44 167.04 73.91 164.83 73.56 C 166.77 75.44 169.35 75.71 171.94 75.49 C 171.84 77.18 171.69 78.87 171.50 80.55 C 168.25 78.73 165.18 76.62 161.93 74.80 C 162.34 78.97 167.04 79.93 169.89 82.05 C 166.12 84.94 161.24 85.68 156.62 85.54 C 156.51 85.21 156.31 84.57 156.20 84.24 C 156.48 83.10 156.76 81.97 157.05 80.83 C 155.47 79.86 153.89 78.90 152.30 77.94 C 153.13 80.18 153.80 82.51 153.49 84.93 C 150.13 84.07 146.84 82.89 143.86 81.09 C 141.55 80.00 139.61 78.31 139.15 75.68 C 137.74 73.94 135.84 72.32 135.56 69.96 C 135.85 68.40 136.39 66.90 136.83 65.38 M 138.18 70.26 C 138.20 70.82 138.24 71.96 138.26 72.53 C 138.91 72.54 140.22 72.57 140.88 72.58 C 141.86 73.19 142.87 73.75 143.91 74.26 C 145.55 74.43 145.40 72.42 146.06 71.46 C 143.48 70.80 140.84 70.41 138.18 70.26 Z" />
</g>
<g id="#9a9c9aff">
<path fill="#9a9c9a" opacity="1.00" d=" M 133.64 72.69 C 132.13 71.05 132.44 68.66 133.70 66.97 C 133.59 68.87 133.60 70.79 133.64 72.69 Z" />
</g>
<g id="#696764db">
<path fill="#696764" opacity="0.86" d=" M 169.67 67.38 C 170.90 68.87 172.06 70.41 173.08 72.04 L 173.32 72.78 L 171.47 73.22 C 171.56 73.75 171.75 74.79 171.84 75.31 C 171.74 75.16 171.54 74.88 171.44 74.73 C 170.73 70.51 166.37 71.30 163.25 71.89 C 165.54 70.29 168.39 70.77 171.00 70.86 C 170.56 69.70 170.12 68.54 169.67 67.38 Z" />
</g>
<g id="#b08f91ff">
<path fill="#b08f91" opacity="1.00" d=" M 90.91 68.86 C 93.57 69.17 96.25 69.43 98.92 69.16 C 97.13 69.60 95.09 70.05 94.86 72.26 C 90.88 73.49 86.61 73.77 82.74 71.98 C 85.45 69.73 89.01 71.42 92.15 71.30 C 91.84 70.69 91.22 69.47 90.91 68.86 Z" />
</g>
<g id="#ba6070ff">
<path fill="#ba6070" opacity="1.00" d=" M 108.09 71.30 C 111.08 70.33 113.84 68.65 117.01 68.26 C 115.69 71.37 111.91 72.12 108.95 72.79 C 107.72 74.04 106.26 71.22 108.09 71.30 Z" />
<path fill="#ba6070" opacity="1.00" d=" M 93.61 75.43 C 94.86 73.04 97.92 72.72 99.91 74.28 C 101.87 74.58 104.70 73.64 105.39 76.24 C 101.48 75.71 97.55 75.42 93.61 75.43 Z" />
<path fill="#ba6070" opacity="1.00" d=" M 161.93 74.80 C 165.18 76.62 168.25 78.73 171.50 80.55 C 170.97 81.06 170.43 81.56 169.89 82.05 C 167.04 79.93 162.34 78.97 161.93 74.80 Z" />
<path fill="#ba6070" opacity="1.00" d=" M 152.30 77.94 C 153.89 78.90 155.47 79.86 157.05 80.83 C 156.76 81.97 156.48 83.10 156.20 84.24 L 155.86 85.48 C 155.06 85.31 154.27 85.13 153.49 84.93 C 153.80 82.51 153.13 80.18 152.30 77.94 Z" />
</g>
<g id="#000107ff">
<path fill="#000107" opacity="1.00" d=" M 119.56 70.36 C 119.87 69.88 120.49 68.91 120.80 68.42 C 120.76 69.34 120.69 71.18 120.66 72.09 C 118.33 75.65 114.91 78.39 111.14 80.29 C 109.46 80.83 107.81 81.47 106.20 82.17 C 99.60 84.05 92.43 84.40 85.85 82.24 C 84.22 81.50 82.57 80.83 80.88 80.23 C 79.08 79.04 77.27 77.78 75.94 76.05 C 75.78 74.86 75.65 73.66 75.58 72.45 C 79.38 72.15 85.63 73.33 84.64 78.48 C 88.11 78.10 91.83 78.60 94.93 76.66 C 99.67 77.44 104.35 78.53 109.07 79.39 C 113.34 77.54 117.40 74.60 119.56 70.36 M 92.14 80.39 C 90.63 80.51 89.12 80.65 87.61 80.80 C 92.50 82.12 97.67 81.83 102.65 81.23 C 102.69 80.84 102.76 80.06 102.80 79.67 C 99.24 79.98 95.31 77.98 92.14 80.39 Z" />
</g>
<g id="#272d25ff">
<path fill="#272d25" opacity="1.00" d=" M 164.83 73.56 C 167.04 73.91 169.22 74.44 171.44 74.73 C 171.54 74.88 171.74 75.16 171.84 75.31 C 172.61 76.71 173.34 78.14 174.07 79.57 C 174.28 78.90 174.69 77.56 174.90 76.89 C 177.97 84.44 181.53 92.43 180.68 100.77 C 179.60 104.53 179.57 108.44 179.45 112.32 C 180.26 101.35 178.59 90.19 174.25 80.07 C 170.00 85.45 163.03 88.84 156.12 87.53 C 151.03 86.46 145.74 85.14 141.63 81.78 C 142.19 81.60 143.30 81.26 143.86 81.09 C 146.84 82.89 150.13 84.07 153.49 84.93 C 154.27 85.13 155.06 85.31 155.86 85.48 L 156.20 84.24 C 156.31 84.57 156.51 85.21 156.62 85.54 C 161.24 85.68 166.12 84.94 169.89 82.05 C 170.43 81.56 170.97 81.06 171.50 80.55 C 171.69 78.87 171.84 77.18 171.94 75.49 C 169.35 75.71 166.77 75.44 164.83 73.56 Z" />
</g>
<g id="#1c1715fd">
<path fill="#1c1715" opacity="1.00" d=" M 171.47 73.22 L 173.32 72.78 C 173.75 74.18 174.28 75.56 174.90 76.89 C 174.69 77.56 174.28 78.90 174.07 79.57 C 173.34 78.14 172.61 76.71 171.84 75.31 C 171.75 74.79 171.56 73.75 171.47 73.22 Z" />
</g>
<g id="#a68487fe">
<path fill="#a68487" opacity="1.00" d=" M 89.44 75.74 C 89.45 74.36 91.90 74.41 92.73 75.09 C 92.71 76.51 90.26 76.55 89.44 75.74 Z" />
</g>
<g id="#ffffffff">
<path fill="#ffffff" opacity="1.00" d=" M 92.14 80.39 C 95.31 77.98 99.24 79.98 102.80 79.67 C 102.76 80.06 102.69 80.84 102.65 81.23 C 97.67 81.83 92.50 82.12 87.61 80.80 C 89.12 80.65 90.63 80.51 92.14 80.39 Z" />
</g>
<g id="#363734ee">
<path fill="#363734" opacity="0.93" d=" M 41.70 94.97 C 43.16 90.22 44.18 85.31 46.32 80.80 C 45.83 84.65 44.11 88.32 44.49 92.27 L 44.43 92.94 C 43.51 93.60 42.60 94.27 41.70 94.97 Z" />
<path fill="#363734" opacity="0.93" d=" M 156.69 198.15 C 157.33 198.01 157.96 197.83 158.60 197.65 C 159.26 197.55 160.59 197.35 161.25 197.25 L 161.29 198.57 L 159.28 197.59 C 159.26 199.60 159.27 201.63 159.29 203.65 C 158.44 203.62 157.60 203.60 156.76 203.58 C 156.74 201.76 156.72 199.95 156.69 198.15 Z" />
</g>
<g id="#8c8e8bff">
<path fill="#8c8e8b" opacity="1.00" d=" M 127.81 105.93 C 133.89 102.99 140.93 101.77 147.65 101.87 C 141.02 103.17 134.38 104.38 127.81 105.93 Z" />
<path fill="#8c8e8b" opacity="1.00" d=" M 132.77 106.93 C 135.70 105.15 139.22 104.68 142.60 104.84 C 139.39 105.84 136.09 106.45 132.77 106.93 Z" />
</g>
<g id="#090a07ff">
<path fill="#090a07" opacity="1.00" d=" M 147.65 101.87 C 150.18 100.80 154.41 102.93 153.25 106.02 C 150.27 112.25 144.33 116.22 138.95 120.21 C 137.29 120.31 135.57 120.31 134.08 121.13 C 128.36 121.96 122.53 121.94 116.81 121.16 C 115.54 120.63 114.18 120.36 112.81 120.25 C 110.89 119.15 109.23 117.67 107.77 116.00 C 107.20 117.11 106.65 118.24 106.12 119.37 C 105.96 119.03 105.65 118.36 105.49 118.02 C 105.65 117.56 105.98 116.63 106.15 116.17 C 106.21 115.56 106.33 114.34 106.38 113.73 C 108.25 113.19 110.09 112.57 111.87 111.80 C 117.05 109.51 122.44 107.71 127.81 105.93 C 134.38 104.38 141.02 103.17 147.65 101.87 M 132.77 106.93 C 125.38 108.49 118.66 112.23 111.33 113.89 C 111.33 115.18 111.60 116.47 112.90 117.06 C 115.53 118.56 118.59 118.70 121.50 119.26 C 127.50 120.35 133.26 117.78 139.18 117.25 C 143.73 113.74 149.59 110.22 150.90 104.27 C 148.13 104.40 145.33 104.34 142.60 104.84 C 139.22 104.68 135.70 105.15 132.77 106.93 Z" />
<path fill="#090a07" opacity="1.00" d=" M 114.25 165.60 C 114.81 165.57 115.91 165.49 116.47 165.46 C 118.29 168.42 120.06 171.42 121.84 174.41 C 123.04 173.96 124.24 173.53 125.44 173.12 C 125.35 175.56 123.21 176.01 121.30 176.53 C 120.49 175.84 119.68 175.15 118.88 174.46 C 117.43 171.46 115.77 168.57 114.25 165.60 Z" />
<path fill="#090a07" opacity="1.00" d=" M 129.96 200.26 C 135.64 199.01 141.30 197.58 146.73 195.47 C 147.21 196.54 147.70 197.61 148.20 198.68 C 145.51 199.14 142.81 199.48 140.11 199.82 C 131.57 201.30 123.22 203.77 114.80 205.82 C 114.47 205.30 113.81 204.26 113.48 203.74 C 113.33 203.55 113.03 203.16 112.88 202.96 L 112.39 202.36 C 113.23 202.48 114.06 202.60 114.90 202.71 C 120.04 203.22 125.02 201.38 129.96 200.26 Z" />
</g>
<g id="#fcfefbff">
<path fill="#fcfefb" opacity="1.00" d=" M 142.60 104.84 C 145.33 104.34 148.13 104.40 150.90 104.27 C 149.59 110.22 143.73 113.74 139.18 117.25 C 135.71 117.00 132.25 117.38 128.88 118.25 C 123.54 119.66 118.23 117.39 112.90 117.06 C 111.60 116.47 111.33 115.18 111.33 113.89 C 118.66 112.23 125.38 108.49 132.77 106.93 C 136.09 106.45 139.39 105.84 142.60 104.84 Z" />
</g>
<g id="#141614ff">
<path fill="#141614" opacity="1.00" d=" M 94.30 113.57 C 94.41 111.64 94.01 108.99 96.36 108.30 C 96.62 108.68 97.14 109.46 97.40 109.84 C 96.67 110.99 96.57 112.36 96.37 113.68 C 95.85 113.65 94.82 113.60 94.30 113.57 Z" />
</g>
<g id="#90918fff">
<path fill="#90918f" opacity="1.00" d=" M 112.90 117.06 C 118.23 117.39 123.54 119.66 128.88 118.25 C 132.25 117.38 135.71 117.00 139.18 117.25 C 133.26 117.78 127.50 120.35 121.50 119.26 C 118.59 118.70 115.53 118.56 112.90 117.06 Z" />
</g>
<g id="#4c5091ff">
<path fill="#4c5091" opacity="1.00" d=" M 103.50 120.38 C 103.16 118.83 103.82 118.04 105.49 118.02 C 105.65 118.36 105.96 119.03 106.12 119.37 L 105.88 120.02 C 105.29 120.11 104.09 120.29 103.50 120.38 Z" />
</g>
<g id="#0000beff">
<path fill="#0000be" opacity="1.00" d=" M 103.50 120.38 C 104.09 120.29 105.29 120.11 105.88 120.02 C 105.10 121.46 104.22 122.86 103.66 124.41 C 103.27 126.14 103.71 128.21 102.31 129.57 C 100.53 129.92 98.89 129.17 97.34 128.42 C 97.38 127.96 97.46 127.02 97.50 126.56 C 99.88 124.90 100.79 121.20 103.50 120.38 Z" />
</g>
<g id="#1d1d1c4b">
<path fill="#1d1d1c" opacity="0.29" d=" M 163.82 153.13 C 164.09 151.66 164.90 151.00 166.27 151.17 C 166.01 152.51 165.20 153.17 163.82 153.13 Z" />
</g>
<g id="#1d1e1d4e">
<path fill="#1d1e1d" opacity="0.31" d=" M 60.09 155.18 C 61.34 154.97 62.35 155.88 63.03 156.83 C 61.79 157.88 59.64 156.89 60.09 155.18 Z" />
</g>
<g id="#18191899">
<path fill="#181918" opacity="0.60" d=" M 67.92 162.01 C 69.46 160.96 71.08 162.40 71.26 163.99 C 69.93 163.77 68.66 163.17 67.92 162.01 Z" />
</g>
<g id="#676865e7">
<path fill="#676865" opacity="0.91" d=" M 128.10 175.58 C 126.53 177.24 125.30 174.15 127.71 174.73 L 128.10 175.58 Z" />
</g>
<g id="#50514fb0">
<path fill="#50514f" opacity="0.69" d=" M 132.03 179.49 C 132.43 179.46 133.24 179.38 133.65 179.35 L 133.83 180.21 L 133.13 180.55 C 132.85 180.29 132.30 179.76 132.03 179.49 Z" />
</g>
<g id="#4e4f4db9">
<path fill="#4e4f4d" opacity="0.73" d=" M 102.72 187.82 C 103.52 186.21 104.97 184.68 106.95 185.21 C 106.11 186.76 104.71 188.43 102.72 187.82 Z" />
</g>
<g id="#57585793">
<path fill="#575857" opacity="0.58" d=" M 101.41 189.67 C 101.46 189.59 101.57 189.44 101.63 189.36 C 101.57 189.44 101.46 189.59 101.41 189.67 Z" />
</g>
<g id="#0e100eff">
<path fill="#0e100e" opacity="1.00" d=" M 162.48 189.90 C 162.95 191.09 163.43 192.27 163.91 193.45 C 163.53 193.71 162.78 194.22 162.40 194.48 C 160.52 195.89 158.21 196.44 155.98 197.01 C 155.53 196.73 154.64 196.19 154.19 195.92 C 154.70 194.87 155.22 193.83 155.75 192.79 C 157.31 193.01 158.88 193.35 160.47 193.33 C 161.48 192.44 161.80 191.02 162.48 189.90 Z" />
</g>
<g id="#4b4c4aba">
<path fill="#4b4c4a" opacity="0.73" d=" M 94.84 197.99 C 94.66 196.03 96.25 194.78 97.84 194.04 C 98.12 196.02 96.75 197.64 94.84 197.99 Z" />
</g>
<g id="#262826e6">
<path fill="#262826" opacity="0.90" d=" M 114.80 205.82 C 123.22 203.77 131.57 201.30 140.11 199.82 L 140.47 200.89 C 137.39 202.05 133.87 201.20 131.02 203.13 C 131.27 204.35 131.54 205.56 131.83 206.78 C 129.82 207.27 131.49 211.43 132.17 208.79 C 132.18 208.40 132.19 207.63 132.20 207.25 C 133.29 210.79 131.82 214.77 132.52 218.47 C 132.38 218.86 132.10 219.62 131.96 220.00 L 129.76 220.00 C 130.37 214.40 128.29 209.03 128.57 203.45 C 123.96 204.09 119.75 206.17 115.29 207.37 C 113.73 207.11 111.07 207.10 111.08 209.30 C 110.37 209.32 109.67 209.37 108.97 209.45 L 106.79 209.66 C 106.87 209.12 107.05 208.05 107.14 207.51 C 108.84 206.87 110.54 206.19 112.21 205.46 C 109.52 205.53 106.84 205.71 104.16 205.81 C 102.79 205.33 101.42 204.84 100.06 204.33 C 102.89 203.23 105.96 203.35 108.92 203.67 C 110.14 204.66 112.27 204.68 112.88 202.96 C 113.03 203.16 113.33 203.55 113.48 203.74 C 113.81 204.26 114.47 205.30 114.80 205.82 Z" />
</g>
<g id="#222422ff">
<path fill="#222422" opacity="1.00" d=" M 94.53 209.65 C 95.37 207.84 96.45 206.16 97.74 204.64 C 98.32 204.56 99.48 204.41 100.06 204.33 C 101.42 204.84 102.79 205.33 104.16 205.81 C 102.94 207.25 103.78 208.18 105.55 208.69 C 105.50 209.39 105.43 210.08 105.33 210.77 L 105.22 211.13 C 104.94 211.98 104.37 213.68 104.09 214.53 C 103.71 213.65 102.96 211.90 102.58 211.03 C 101.14 211.09 99.70 211.17 98.26 211.29 C 96.09 211.96 93.91 212.60 91.79 213.40 C 92.17 215.12 92.56 216.86 93.39 218.43 C 92.85 218.59 92.31 218.75 91.77 218.90 C 91.78 216.61 91.81 214.30 91.35 212.05 C 92.31 211.49 93.26 210.90 94.19 210.27 L 94.53 209.65 M 99.19 209.33 C 99.80 209.38 101.02 209.46 101.63 209.51 C 101.65 208.87 101.69 207.60 101.70 206.97 C 100.48 207.30 99.80 208.31 99.19 209.33 Z" />
</g>
<g id="#2a2b2a65">
<path fill="#2a2b2a" opacity="0.40" d=" M 111.08 209.30 C 111.07 207.10 113.73 207.11 115.29 207.37 C 114.56 209.03 112.79 209.69 111.08 209.30 Z" />
</g>
<g id="#4f504dd8">
<path fill="#4f504d" opacity="0.85" d=" M 131.83 206.78 L 132.20 207.25 C 132.19 207.63 132.18 208.40 132.17 208.79 C 131.49 211.43 129.82 207.27 131.83 206.78 Z" />
</g>
<g id="#4c4d4b92">
<path fill="#4c4d4b" opacity="0.57" d=" M 131.96 220.00 C 132.10 219.62 132.38 218.86 132.52 218.47 C 132.79 218.86 133.35 219.62 133.63 220.00 L 131.96 220.00 Z" />
</g>
</svg>
