<?xml version="1.0" encoding="UTF-8" ?>
<!DOCTYPE svg PUBLIC "-//W3C//DTD SVG 1.1//EN" "http://www.w3.org/Graphics/SVG/1.1/DTD/svg11.dtd">
<svg width="210pt" height="220pt" viewBox="0 0 210 220" version="1.1" xmlns="http://www.w3.org/2000/svg">
<g id="#56454759">
<path fill="#564547" opacity="0.35" d=" M 108.93 35.27 C 113.29 33.64 125.85 32.42 130.23 35.29 C 123.14 35.11 116.01 34.62 108.93 35.27 Z" />
</g>
<g id="#5852535b">
<path fill="#585253" opacity="0.36" d=" M 104.32 37.12 C 104.18 35.17 107.47 34.19 108.93 35.27 C 107.61 36.36 106.06 37.12 104.32 37.12 Z" />
</g>
<g id="#d07681d4">
<path fill="#d07681" opacity="0.83" d=" M 108.93 35.27 C 116.01 34.62 123.14 35.11 130.23 35.29 L 130.08 35.86 C 124.01 36.10 117.82 35.50 111.84 36.72 C 110.43 36.57 108.97 36.77 107.89 37.76 C 104.85 39.01 101.77 40.20 98.88 41.77 C 96.26 42.61 93.65 43.50 90.97 44.12 L 91.34 43.28 C 91.50 42.95 91.84 42.28 92.01 41.95 C 94.34 40.85 96.80 40.10 99.20 39.20 C 100.93 38.56 102.55 37.63 104.32 37.12 C 106.06 37.12 107.61 36.36 108.93 35.27 Z" />
</g>
<g id="#5e535560">
<path fill="#5e5355" opacity="0.38" d=" M 130.23 35.29 C 131.96 33.74 136.11 35.42 134.63 37.93 L 134.02 37.96 C 133.65 36.26 131.64 35.55 130.08 35.86 L 130.23 35.29 Z" />
</g>
<g id="#fb4558fe">
<path fill="#fb4558" opacity="1.00" d=" M 111.84 36.72 C 117.82 35.50 124.01 36.10 130.08 35.86 C 130.73 37.43 132.37 38.25 134.02 37.96 C 135.64 40.00 137.24 42.06 138.88 44.09 C 131.47 36.81 121.55 36.60 111.84 36.72 Z" />
</g>
<g id="#d47e8ad8">
<path fill="#d47e8a" opacity="0.85" d=" M 130.08 35.86 C 131.64 35.55 133.65 36.26 134.02 37.96 C 132.37 38.25 130.73 37.43 130.08 35.86 Z" />
</g>
<g id="#fc3d4eff">
<path fill="#fc3d4e" opacity="1.00" d=" M 107.89 37.76 C 108.97 36.77 110.43 36.57 111.84 36.72 C 111.47 38.63 109.22 38.40 107.89 37.76 Z" />
</g>
<g id="#ee1120ff">
<path fill="#ee1120" opacity="1.00" d=" M 111.84 36.72 C 121.55 36.60 131.47 36.81 138.88 44.09 C 139.16 44.30 139.71 44.73 139.99 44.94 C 143.97 49.32 147.47 54.16 152.01 58.00 C 153.72 67.04 162.05 72.65 168.09 78.96 C 171.62 90.30 176.43 101.25 179.09 112.83 C 177.20 112.99 177.07 114.76 176.72 116.24 C 169.37 107.81 169.44 95.77 167.67 85.29 C 164.67 82.26 160.81 78.73 156.48 81.38 C 157.06 84.97 154.22 86.73 152.34 88.98 C 153.56 91.57 153.42 94.43 153.34 97.23 C 152.99 97.46 152.28 97.91 151.93 98.13 C 147.15 99.02 139.11 88.61 146.64 87.47 C 150.57 85.46 140.36 83.15 143.73 79.78 C 143.91 75.57 149.73 75.51 149.93 72.14 C 144.54 66.45 144.85 57.49 139.51 51.52 C 129.47 39.98 109.35 38.95 100.66 52.75 C 97.64 56.25 98.15 61.00 97.71 65.31 C 93.14 63.81 95.16 58.19 92.82 54.97 C 82.57 55.48 80.46 68.76 70.98 70.95 C 61.16 76.58 50.88 84.76 48.67 96.64 C 43.94 99.58 40.34 104.28 34.92 106.03 C 36.00 103.35 37.15 100.69 38.29 98.03 C 39.26 96.55 39.42 94.72 38.79 93.07 C 43.18 87.48 49.74 84.50 55.39 80.42 C 70.83 68.63 83.84 54.04 98.88 41.77 C 101.77 40.20 104.85 39.01 107.89 37.76 C 109.22 38.40 111.47 38.63 111.84 36.72 Z" />
</g>
<g id="#56575758">
<path fill="#565757" opacity="0.35" d=" M 92.01 41.95 C 90.90 37.80 96.66 37.79 99.20 39.20 C 96.80 40.10 94.34 40.85 92.01 41.95 Z" />
</g>
<g id="#b08086b3">
<path fill="#b08086" opacity="0.70" d=" M 134.02 37.96 L 134.63 37.93 C 138.39 39.86 142.91 42.71 144.03 46.96 C 142.70 46.24 141.35 45.58 139.99 44.94 C 139.71 44.73 139.16 44.30 138.88 44.09 C 137.24 42.06 135.64 40.00 134.02 37.96 Z" />
</g>
<g id="#f4374bfd">
<path fill="#f4374b" opacity="1.00" d=" M 90.97 44.12 C 93.65 43.50 96.26 42.61 98.88 41.77 C 83.84 54.04 70.83 68.63 55.39 80.42 C 49.74 84.50 43.18 87.48 38.79 93.07 C 40.37 87.16 46.52 84.00 48.33 78.23 C 49.45 76.73 50.60 75.26 51.85 73.87 L 52.72 73.67 C 52.07 75.34 49.10 80.15 52.88 78.85 C 66.14 69.83 77.15 57.70 89.16 47.00 C 87.39 47.21 85.64 47.54 83.90 47.87 L 83.89 46.88 C 86.11 45.64 88.53 44.84 90.97 44.12 Z" />
</g>
<g id="#cb040cff">
<path fill="#cb040c" opacity="1.00" d=" M 100.66 52.75 C 109.35 38.95 129.47 39.98 139.51 51.52 C 144.85 57.49 144.54 66.45 149.93 72.14 C 149.73 75.51 143.91 75.57 143.73 79.78 C 140.36 83.15 150.57 85.46 146.64 87.47 C 139.11 88.61 147.15 99.02 151.93 98.13 C 150.47 99.28 149.11 100.54 147.81 101.87 C 146.10 100.72 144.71 99.20 143.31 97.70 C 141.37 92.19 139.04 98.20 139.86 101.25 C 136.44 101.02 135.79 97.23 134.12 94.89 C 138.62 97.63 140.52 94.37 137.45 90.57 C 133.30 87.23 142.87 85.96 138.78 83.22 C 130.27 79.29 121.77 74.20 116.86 66.00 C 121.54 61.71 127.69 60.15 134.01 61.01 C 138.17 62.15 139.27 55.74 135.98 54.01 C 129.70 50.85 123.62 43.32 115.82 45.73 C 110.48 47.38 105.62 50.23 100.66 52.75 Z" />
</g>
<g id="#5e515260">
<path fill="#5e5152" opacity="0.38" d=" M 81.97 47.40 C 83.97 44.62 87.73 42.14 91.34 43.28 L 90.97 44.12 C 88.53 44.84 86.11 45.64 83.89 46.88 C 83.41 47.01 82.45 47.27 81.97 47.40 Z" />
</g>
<g id="#9c0207ff">
<path fill="#9c0207" opacity="1.00" d=" M 115.82 45.73 C 123.62 43.32 129.70 50.85 135.98 54.01 C 139.27 55.74 138.17 62.15 134.01 61.01 C 127.69 60.15 121.54 61.71 116.86 66.00 C 121.77 74.20 130.27 79.29 138.78 83.22 C 142.87 85.96 133.30 87.23 137.45 90.57 C 140.52 94.37 138.62 97.63 134.12 94.89 C 130.93 92.08 127.62 89.42 124.13 86.99 C 128.06 87.95 127.53 84.32 126.96 81.11 C 123.24 78.38 119.24 76.07 115.18 73.90 C 112.58 71.11 106.15 69.92 107.10 65.22 C 112.87 60.31 122.60 58.73 127.00 52.95 C 120.13 44.10 108.96 53.72 101.82 57.75 C 97.47 58.84 99.25 63.81 98.80 67.23 C 98.53 66.75 97.98 65.79 97.71 65.31 C 98.15 61.00 97.64 56.25 100.66 52.75 C 105.62 50.23 110.48 47.38 115.82 45.73 Z" />
</g>
<g id="#fa4d60fd">
<path fill="#fa4d60" opacity="1.00" d=" M 139.99 44.94 C 141.35 45.58 142.70 46.24 144.03 46.96 C 146.72 50.60 150.13 53.81 152.01 58.00 C 147.47 54.16 143.97 49.32 139.99 44.94 Z" />
</g>
<g id="#51525254">
<path fill="#515252" opacity="0.33" d=" M 77.29 50.01 C 76.99 47.95 80.32 46.48 81.97 47.40 C 80.83 48.89 79.11 49.71 77.29 50.01 Z" />
</g>
<g id="#d46c77d9">
<path fill="#d46c77" opacity="0.85" d=" M 81.97 47.40 C 82.45 47.27 83.41 47.01 83.89 46.88 L 83.90 47.87 C 76.59 52.47 70.43 58.64 62.98 63.01 C 63.71 62.02 64.43 61.02 65.16 60.04 C 65.75 59.35 66.32 58.64 66.87 57.92 C 67.22 57.46 67.93 56.54 68.28 56.08 C 69.25 55.56 70.23 55.03 70.96 54.20 C 71.27 53.92 71.89 53.36 72.20 53.08 C 73.19 52.58 74.15 52.01 74.98 51.27 C 75.56 50.96 76.71 50.33 77.29 50.01 C 79.11 49.71 80.83 48.89 81.97 47.40 Z" />
</g>
<g id="#e00f1cfe">
<path fill="#e00f1c" opacity="1.00" d=" M 83.90 47.87 C 85.64 47.54 87.39 47.21 89.16 47.00 C 77.15 57.70 66.14 69.83 52.88 78.85 C 49.10 80.15 52.07 75.34 52.72 73.67 C 55.96 70.60 59.25 67.53 62.01 64.00 C 62.25 63.76 62.74 63.26 62.98 63.01 C 70.43 58.64 76.59 52.47 83.90 47.87 Z" />
</g>
<g id="#aa797ead">
<path fill="#aa797e" opacity="0.68" d=" M 144.03 46.96 C 149.14 49.45 152.60 54.70 156.10 59.09 C 156.39 60.08 156.67 61.08 156.95 62.07 C 155.32 60.68 153.67 59.33 152.01 58.00 C 150.13 53.81 146.72 50.60 144.03 46.96 Z" />
</g>
<g id="#730104ff">
<path fill="#730104" opacity="1.00" d=" M 101.82 57.75 C 108.96 53.72 120.13 44.10 127.00 52.95 C 122.60 58.73 112.87 60.31 107.10 65.22 C 106.15 69.92 112.58 71.11 115.18 73.90 C 110.42 78.46 106.26 71.75 101.12 71.90 C 100.94 73.65 100.88 75.40 100.88 77.15 C 100.20 73.84 99.62 70.51 98.80 67.23 C 99.25 63.81 97.47 58.84 101.82 57.75 Z" />
</g>
<g id="#5b5a5a5e">
<path fill="#5b5a5a" opacity="0.37" d=" M 72.20 53.08 C 70.91 51.38 73.84 49.83 74.98 51.27 C 74.15 52.01 73.19 52.58 72.20 53.08 Z" />
</g>
<g id="#524f4f54">
<path fill="#524f4f" opacity="0.33" d=" M 68.28 56.08 C 66.95 54.44 69.79 52.80 70.96 54.20 C 70.23 55.03 69.25 55.56 68.28 56.08 Z" />
</g>
<g id="#d10610ff">
<path fill="#d10610" opacity="1.00" d=" M 70.98 70.95 C 80.46 68.76 82.57 55.48 92.82 54.97 C 95.16 58.19 93.14 63.81 97.71 65.31 C 97.98 65.79 98.53 66.75 98.80 67.23 C 99.62 70.51 100.20 73.84 100.88 77.15 C 101.17 78.12 101.50 79.08 101.87 80.02 C 101.89 80.80 101.93 82.38 101.94 83.17 C 92.54 83.83 87.17 75.16 80.07 70.76 C 77.86 86.60 98.57 89.62 109.41 93.46 C 116.71 94.56 119.18 102.85 125.53 105.57 C 130.73 107.40 124.70 113.93 129.20 116.81 C 132.21 120.44 132.92 110.73 136.30 113.68 C 139.13 115.20 136.97 118.10 136.16 120.19 C 135.91 120.65 135.40 121.56 135.15 122.02 C 129.08 123.86 122.90 123.13 116.95 124.97 C 118.89 122.59 121.58 120.69 123.00 117.93 C 120.84 108.14 107.59 109.54 104.90 100.03 C 104.17 98.23 102.62 96.93 100.86 96.21 C 90.04 91.04 81.41 82.55 71.27 76.37 C 66.67 80.46 56.48 81.33 57.16 88.84 C 58.29 91.90 60.83 94.49 61.06 97.83 C 54.02 100.76 43.11 101.80 40.99 110.71 C 43.20 111.89 45.89 112.74 46.61 115.45 C 44.97 116.83 43.42 118.36 42.54 120.35 C 38.54 118.66 37.85 113.39 33.29 112.45 C 32.87 110.20 34.20 108.09 34.92 106.03 C 40.34 104.28 43.94 99.58 48.67 96.64 C 50.88 84.76 61.16 76.58 70.98 70.95 Z" />
</g>
<g id="#2b2b2b2d">
<path fill="#2b2b2b" opacity="0.18" d=" M 61.11 61.90 C 58.04 57.14 62.75 57.54 66.87 57.92 C 66.32 58.64 65.75 59.35 65.16 60.04 C 63.79 60.61 62.43 61.22 61.11 61.90 Z" />
</g>
<g id="#fb3b50fe">
<path fill="#fb3b50" opacity="1.00" d=" M 152.01 58.00 C 153.67 59.33 155.32 60.68 156.95 62.07 C 157.17 62.34 157.62 62.86 157.84 63.12 C 161.34 68.33 165.33 73.29 168.09 78.96 C 162.05 72.65 153.72 67.04 152.01 58.00 Z" />
</g>
<g id="#4a45464d">
<path fill="#4a4546" opacity="0.30" d=" M 156.10 59.09 C 159.95 56.28 159.16 61.72 159.90 64.21 C 159.39 63.94 158.35 63.39 157.84 63.12 C 157.62 62.86 157.17 62.34 156.95 62.07 C 156.67 61.08 156.39 60.08 156.10 59.09 Z" />
</g>
<g id="#7763667a">
<path fill="#776366" opacity="0.48" d=" M 61.11 61.90 C 62.43 61.22 63.79 60.61 65.16 60.04 C 64.43 61.02 63.71 62.02 62.98 63.01 C 62.74 63.26 62.25 63.76 62.01 64.00 C 61.54 64.03 60.59 64.08 60.12 64.11 C 60.36 63.56 60.86 62.45 61.11 61.90 Z" />
</g>
<g id="#b98589bd">
<path fill="#b98589" opacity="0.74" d=" M 157.84 63.12 C 158.35 63.39 159.39 63.94 159.90 64.21 C 160.81 65.23 161.70 66.27 162.56 67.33 C 163.60 68.97 164.96 70.33 166.53 71.48 C 167.01 74.50 168.83 76.99 171.04 79.02 C 171.03 79.83 170.99 81.44 170.98 82.25 C 170.04 81.12 169.07 80.03 168.09 78.96 C 165.33 73.29 161.34 68.33 157.84 63.12 Z" />
</g>
<g id="#3839393a">
<path fill="#383939" opacity="0.23" d=" M 159.90 64.21 C 163.80 62.00 164.81 63.68 162.56 67.33 C 161.70 66.27 160.81 65.23 159.90 64.21 Z" />
</g>
<g id="#3f404041">
<path fill="#3f4040" opacity="0.25" d=" M 54.83 66.57 C 55.82 64.40 57.77 63.49 60.12 64.11 C 57.38 66.34 54.75 68.70 52.23 71.17 C 50.30 68.62 51.22 64.97 54.83 66.57 Z" />
</g>
<g id="#d37c84da">
<path fill="#d37c84" opacity="0.85" d=" M 60.12 64.11 C 60.59 64.08 61.54 64.03 62.01 64.00 C 59.25 67.53 55.96 70.60 52.72 73.67 L 51.85 73.87 C 51.91 73.42 52.03 72.52 52.08 72.07 L 52.23 71.17 C 54.75 68.70 57.38 66.34 60.12 64.11 Z" />
</g>
<g id="#ea0b18ff">
<path fill="#ea0b18" opacity="1.00" d=" M 80.07 70.76 C 87.17 75.16 92.54 83.83 101.94 83.17 C 108.14 86.29 115.52 85.37 122.20 85.84 C 122.68 86.12 123.65 86.70 124.13 86.99 C 127.62 89.42 130.93 92.08 134.12 94.89 C 135.79 97.23 136.44 101.02 139.86 101.25 C 140.28 106.98 144.24 119.50 136.16 120.19 C 136.97 118.10 139.13 115.20 136.30 113.68 C 132.92 110.73 132.21 120.44 129.20 116.81 C 124.70 113.93 130.73 107.40 125.53 105.57 C 119.18 102.85 116.71 94.56 109.41 93.46 C 98.57 89.62 77.86 86.60 80.07 70.76 Z" />
</g>
<g id="#393b3a3b">
<path fill="#393b3a" opacity="0.23" d=" M 166.53 71.48 C 168.05 72.04 173.80 77.17 171.04 79.02 C 168.83 76.99 167.01 74.50 166.53 71.48 Z" />
</g>
<g id="#6c595b6f">
<path fill="#6c595b" opacity="0.44" d=" M 48.33 78.23 C 47.10 74.77 48.30 72.14 52.08 72.07 C 52.03 72.52 51.91 73.42 51.85 73.87 C 50.60 75.26 49.45 76.73 48.33 78.23 Z" />
</g>
<g id="#3d0202ff">
<path fill="#3d0202" opacity="1.00" d=" M 101.12 71.90 C 106.26 71.75 110.42 78.46 115.18 73.90 C 119.24 76.07 123.24 78.38 126.96 81.11 C 127.53 84.32 128.06 87.95 124.13 86.99 C 123.65 86.70 122.68 86.12 122.20 85.84 C 116.29 80.98 106.39 86.49 101.87 80.02 C 101.50 79.08 101.17 78.12 100.88 77.15 C 100.88 75.40 100.94 73.65 101.12 71.90 Z" />
</g>
<g id="#bb040bff">
<path fill="#bb040b" opacity="1.00" d=" M 71.27 76.37 C 81.41 82.55 90.04 91.04 100.86 96.21 C 102.62 96.93 104.17 98.23 104.90 100.03 C 107.59 109.54 120.84 108.14 123.00 117.93 C 121.58 120.69 118.89 122.59 116.95 124.97 C 114.84 123.53 112.50 122.96 110.05 123.91 C 110.06 120.78 110.92 116.96 107.71 115.26 C 100.10 112.28 91.35 113.02 84.15 108.91 C 74.56 103.65 63.31 105.43 53.37 108.43 C 50.47 109.37 50.55 112.59 52.72 114.29 C 55.39 116.29 51.79 118.12 50.74 119.96 C 47.89 120.34 47.80 117.26 46.61 115.45 C 45.89 112.74 43.20 111.89 40.99 110.71 C 43.11 101.80 54.02 100.76 61.06 97.83 C 60.83 94.49 58.29 91.90 57.16 88.84 C 56.48 81.33 66.67 80.46 71.27 76.37 M 70.33 81.32 C 66.55 81.98 58.58 85.91 64.23 89.76 C 73.47 92.99 82.54 105.21 92.95 97.82 C 90.02 88.90 78.39 83.64 70.33 81.32 Z" />
</g>
<g id="#d57e88da">
<path fill="#d57e88" opacity="0.85" d=" M 45.99 79.16 C 46.58 78.93 47.75 78.46 48.33 78.23 C 46.52 84.00 40.37 87.16 38.79 93.07 L 38.09 92.96 C 38.04 91.76 37.99 90.56 37.93 89.37 C 40.04 86.90 42.12 84.41 44.23 81.95 C 45.05 81.18 45.56 80.18 45.99 79.16 Z" />
</g>
<g id="#5d5a5b60">
<path fill="#5d5a5b" opacity="0.38" d=" M 44.23 81.95 C 42.83 80.84 44.32 77.93 45.99 79.16 C 45.56 80.18 45.05 81.18 44.23 81.95 Z" />
</g>
<g id="#f54f5ff9">
<path fill="#f54f5f" opacity="0.98" d=" M 168.09 78.96 C 169.07 80.03 170.04 81.12 170.98 82.25 C 170.66 84.08 171.56 85.70 172.67 87.08 C 173.37 88.21 174.11 89.32 174.86 90.42 C 174.81 91.56 174.88 92.69 175.08 93.81 C 176.52 99.55 179.26 104.92 180.33 110.80 C 180.02 111.31 179.40 112.32 179.09 112.83 C 176.43 101.25 171.62 90.30 168.09 78.96 Z" />
</g>
<g id="#88060cff">
<path fill="#88060c" opacity="1.00" d=" M 101.87 80.02 C 106.39 86.49 116.29 80.98 122.20 85.84 C 115.52 85.37 108.14 86.29 101.94 83.17 C 101.93 82.38 101.89 80.80 101.87 80.02 Z" />
</g>
<g id="#c10b14ff">
<path fill="#c10b14" opacity="1.00" d=" M 156.48 81.38 C 160.81 78.73 164.67 82.26 167.67 85.29 C 169.44 95.77 169.37 107.81 176.72 116.24 C 176.48 117.64 175.74 118.87 175.07 120.09 C 169.18 122.46 166.29 118.39 163.15 113.92 C 162.89 113.65 162.38 113.11 162.12 112.84 C 161.39 111.66 160.71 110.46 160.04 109.26 C 159.85 105.40 160.90 102.62 164.70 102.54 C 167.58 96.46 166.41 89.12 160.12 85.89 C 155.51 88.35 156.39 94.23 153.34 97.23 C 153.42 94.43 153.56 91.57 152.34 88.98 C 154.22 86.73 157.06 84.97 156.48 81.38 Z" />
</g>
<g id="#a00208ff">
<path fill="#a00208" opacity="1.00" d=" M 70.33 81.32 C 78.39 83.64 90.02 88.90 92.95 97.82 C 82.54 105.21 73.47 92.99 64.23 89.76 C 58.58 85.91 66.55 81.98 70.33 81.32 Z" />
</g>
<g id="#4f4e4e52">
<path fill="#4f4e4e" opacity="0.32" d=" M 37.93 89.37 C 38.96 86.20 40.07 81.84 44.23 81.95 C 42.12 84.41 40.04 86.90 37.93 89.37 Z" />
</g>
<g id="#a97177ad">
<path fill="#a97177" opacity="0.68" d=" M 170.98 82.25 C 171.30 82.31 171.94 82.45 172.26 82.52 C 172.92 83.96 172.97 85.54 172.67 87.08 C 171.56 85.70 170.66 84.08 170.98 82.25 Z" />
</g>
<g id="#66595a68">
<path fill="#66595a" opacity="0.41" d=" M 172.26 82.52 C 174.38 84.04 176.40 87.96 174.86 90.42 C 174.11 89.32 173.37 88.21 172.67 87.08 C 172.97 85.54 172.92 83.96 172.26 82.52 Z" />
</g>
<g id="#9b050bfe">
<path fill="#9b050b" opacity="1.00" d=" M 153.34 97.23 C 156.39 94.23 155.51 88.35 160.12 85.89 C 166.41 89.12 167.58 96.46 164.70 102.54 C 160.90 102.62 159.85 105.40 160.04 109.26 C 155.93 106.85 151.75 104.55 147.81 101.87 C 149.11 100.54 150.47 99.28 151.93 98.13 C 152.28 97.91 152.99 97.46 153.34 97.23 Z" />
</g>
<g id="#685b5c6b">
<path fill="#685b5c" opacity="0.42" d=" M 36.37 94.83 C 35.56 93.18 36.46 90.09 37.93 89.37 C 37.99 90.56 38.04 91.76 38.09 92.96 C 37.51 93.58 36.94 94.21 36.37 94.83 Z" />
</g>
<g id="#493f404b">
<path fill="#493f40" opacity="0.29" d=" M 174.86 90.42 C 176.48 90.11 176.69 92.96 175.76 93.82 L 175.08 93.81 C 174.88 92.69 174.81 91.56 174.86 90.42 Z" />
</g>
<g id="#cf666ded">
<path fill="#cf666d" opacity="0.93" d=" M 36.37 94.83 C 36.94 94.21 37.51 93.58 38.09 92.96 C 37.45 94.61 37.90 96.38 38.29 98.03 C 37.15 100.69 36.00 103.35 34.92 106.03 C 34.20 108.09 32.87 110.20 33.29 112.45 C 37.85 113.39 38.54 118.66 42.54 120.35 L 43.32 121.05 C 37.49 122.16 35.23 115.54 30.76 113.08 L 30.19 112.60 C 30.41 112.23 30.85 111.50 31.07 111.13 C 31.81 109.98 31.95 108.58 32.32 107.29 C 33.38 103.01 36.39 99.41 36.37 94.83 Z" />
</g>
<g id="#f13a4cff">
<path fill="#f13a4c" opacity="1.00" d=" M 38.09 92.96 L 38.79 93.07 C 39.42 94.72 39.26 96.55 38.29 98.03 C 37.90 96.38 37.45 94.61 38.09 92.96 Z" />
</g>
<g id="#b88387bc">
<path fill="#b88387" opacity="0.74" d=" M 175.08 93.81 L 175.76 93.82 C 176.89 95.88 177.85 98.03 178.77 100.19 C 179.19 101.15 179.57 102.13 179.90 103.13 C 180.52 105.44 181.02 107.77 181.56 110.12 C 181.62 110.89 181.74 112.44 181.80 113.21 C 181.30 112.41 180.81 111.60 180.33 110.80 C 179.26 104.92 176.52 99.55 175.08 93.81 Z" />
</g>
<g id="#54565657">
<path fill="#545656" opacity="0.34" d=" M 175.76 93.82 C 180.21 92.93 180.75 97.28 178.77 100.19 C 177.85 98.03 176.89 95.88 175.76 93.82 Z" />
</g>
<g id="#504c4c52">
<path fill="#504c4c" opacity="0.32" d=" M 32.32 107.29 C 29.17 100.04 34.62 99.17 36.37 94.83 C 36.39 99.41 33.38 103.01 32.32 107.29 Z" />
</g>
<g id="#dc4e57fe">
<path fill="#dc4e57" opacity="1.00" d=" M 139.86 101.25 C 139.04 98.20 141.37 92.19 143.31 97.70 C 139.89 95.92 141.05 99.07 141.94 101.84 C 142.08 106.50 141.76 111.19 142.25 115.84 C 142.30 116.32 142.40 117.29 142.45 117.77 C 141.32 121.17 138.42 122.16 135.15 122.02 C 135.40 121.56 135.91 120.65 136.16 120.19 C 144.24 119.50 140.28 106.98 139.86 101.25 Z" />
</g>
<g id="#b67079cf">
<path fill="#b67079" opacity="0.81" d=" M 141.94 101.84 C 141.05 99.07 139.89 95.92 143.31 97.70 C 144.71 99.20 146.10 100.72 147.81 101.87 C 151.75 104.55 155.93 106.85 160.04 109.26 C 160.71 110.46 161.39 111.66 162.12 112.84 C 161.67 112.75 160.78 112.57 160.33 112.48 C 159.63 111.61 159.04 110.63 158.13 109.97 C 156.30 108.40 153.90 107.87 151.65 107.19 C 149.38 105.74 147.05 104.38 144.95 102.70 C 144.53 100.94 141.54 98.39 141.94 101.84 Z" />
</g>
<g id="#45424246">
<path fill="#454242" opacity="0.27" d=" M 141.94 101.84 C 141.54 98.39 144.53 100.94 144.95 102.70 C 144.33 104.18 143.77 105.69 143.22 107.20 C 143.12 105.35 142.76 103.52 141.94 101.84 Z" />
</g>
<g id="#9262669e">
<path fill="#926266" opacity="0.62" d=" M 141.94 101.84 C 142.76 103.52 143.12 105.35 143.22 107.20 C 143.12 110.26 142.92 113.38 143.79 116.35 C 143.41 116.22 142.64 115.97 142.25 115.84 C 141.76 111.19 142.08 106.50 141.94 101.84 Z" />
</g>
<g id="#0c0c0c0d">
<path fill="#0c0c0c" opacity="0.05" d=" M 143.22 107.20 C 143.77 105.69 144.33 104.18 144.95 102.70 C 147.05 104.38 149.38 105.74 151.65 107.19 C 152.95 109.55 155.79 109.55 158.13 109.97 C 159.04 110.63 159.63 111.61 160.33 112.48 C 158.04 114.21 156.10 116.39 154.96 119.05 C 153.41 118.29 151.71 117.89 149.99 118.18 C 149.52 117.83 148.57 117.14 148.10 116.80 C 147.02 115.48 145.16 115.55 143.79 116.35 C 142.92 113.38 143.12 110.26 143.22 107.20 Z" />
</g>
<g id="#34363637">
<path fill="#343636" opacity="0.22" d=" M 179.90 103.13 C 184.88 102.90 184.83 107.54 181.56 110.12 C 181.02 107.77 180.52 105.44 179.90 103.13 Z" />
</g>
<g id="#a00408ff">
<path fill="#a00408" opacity="1.00" d=" M 53.37 108.43 C 63.31 105.43 74.56 103.65 84.15 108.91 C 91.35 113.02 100.10 112.28 107.71 115.26 C 110.92 116.96 110.06 120.78 110.05 123.91 C 104.57 124.31 99.33 126.68 93.90 124.32 C 88.65 125.50 83.36 125.87 77.97 125.18 C 76.60 124.62 75.25 124.02 73.91 123.38 C 73.76 118.32 67.30 118.71 64.11 120.71 C 63.36 119.23 62.33 115.48 60.32 117.78 C 58.34 119.99 55.78 121.49 53.43 123.25 C 52.50 122.18 51.64 121.05 50.74 119.96 C 51.79 118.12 55.39 116.29 52.72 114.29 C 50.55 112.59 50.47 109.37 53.37 108.43 Z" />
</g>
<g id="#3b32333c">
<path fill="#3b3233" opacity="0.24" d=" M 25.98 110.98 C 27.92 110.23 31.27 109.07 32.32 107.29 C 31.95 108.58 31.81 109.98 31.07 111.13 C 29.37 111.09 27.67 111.04 25.98 110.98 Z" />
</g>
<g id="#5e595a5f">
<path fill="#5e595a" opacity="0.37" d=" M 151.65 107.19 C 153.90 107.87 156.30 108.40 158.13 109.97 C 155.79 109.55 152.95 109.55 151.65 107.19 Z" />
</g>
<g id="#38383739">
<path fill="#383837" opacity="0.22" d=" M 181.56 110.12 C 182.82 114.06 189.64 111.63 192.05 114.05 C 188.75 114.01 185.48 114.03 182.19 113.91 L 181.80 113.21 C 181.74 112.44 181.62 110.89 181.56 110.12 Z" />
</g>
<g id="#72717175">
<path fill="#727171" opacity="0.46" d=" M 17.18 115.18 C 18.49 112.01 22.62 110.42 25.98 110.98 C 27.67 111.04 29.37 111.09 31.07 111.13 C 30.85 111.50 30.41 112.23 30.19 112.60 C 25.61 111.75 21.06 112.60 17.18 115.18 Z" />
</g>
<g id="#e8aaacfc">
<path fill="#e8aaac" opacity="1.00" d=" M 180.33 110.80 C 180.81 111.60 181.30 112.41 181.80 113.21 L 182.19 113.91 C 182.35 114.21 182.68 114.82 182.85 115.12 L 182.97 115.84 C 180.99 119.30 178.66 123.73 174.03 123.14 C 174.99 122.07 175.98 121.04 176.92 119.96 C 178.61 118.06 178.09 115.09 179.09 112.83 C 179.40 112.32 180.02 111.31 180.33 110.80 Z" />
</g>
<g id="#eaddd5fd">
<path fill="#eaddd5" opacity="1.00" d=" M 17.18 115.18 C 21.06 112.60 25.61 111.75 30.19 112.60 L 30.76 113.08 C 29.26 118.62 35.54 117.18 36.54 121.58 C 37.59 124.48 41.21 121.30 43.32 121.05 C 45.96 124.03 51.55 125.41 54.81 124.01 C 58.57 118.22 60.76 126.84 64.48 126.69 C 65.91 119.36 72.91 126.77 77.65 126.23 C 81.17 129.57 89.04 131.30 91.38 126.27 C 92.50 126.20 93.62 126.21 94.74 126.30 C 99.55 132.63 108.15 124.82 114.22 128.56 C 118.70 127.46 123.84 128.78 127.91 126.88 C 128.14 126.68 128.61 126.27 128.84 126.07 C 133.71 126.84 143.18 124.55 142.45 117.77 C 142.40 117.29 142.30 116.32 142.25 115.84 C 142.64 115.97 143.41 116.22 143.79 116.35 C 145.02 117.38 146.67 117.36 148.10 116.80 C 148.57 117.14 149.52 117.83 149.99 118.18 C 151.28 119.56 153.12 120.65 155.01 119.69 C 155.04 122.92 157.78 126.05 156.32 129.18 C 153.40 120.98 142.73 125.99 137.40 129.42 C 123.85 130.64 110.16 135.01 96.66 131.35 C 94.29 130.48 92.31 132.50 90.07 132.83 C 82.47 131.66 71.97 125.20 65.89 132.85 C 74.59 132.33 80.38 142.13 89.12 138.16 C 94.28 137.03 101.60 134.65 104.50 140.49 C 109.50 143.69 116.29 143.87 121.83 146.40 C 122.87 151.24 118.05 157.62 112.85 156.31 C 108.13 155.16 103.87 164.51 99.85 159.15 C 96.91 153.00 90.90 168.81 88.04 160.98 C 96.06 164.57 90.67 147.22 84.85 149.70 C 78.04 150.91 79.01 141.79 75.73 138.26 C 66.84 135.62 57.31 132.15 48.00 134.50 C 42.73 133.69 37.59 131.99 32.20 132.06 C 28.71 135.08 34.21 137.80 35.20 140.68 C 29.80 139.26 26.35 142.74 22.13 145.32 C 22.15 149.75 21.75 155.59 26.80 157.27 C 32.06 159.48 25.51 165.75 22.20 162.78 C 18.62 159.71 14.01 161.26 13.04 165.89 C 17.52 168.34 21.75 172.08 26.90 172.90 C 30.72 172.41 33.28 175.59 36.85 176.11 C 38.78 177.15 39.39 178.17 36.81 178.70 C 36.13 178.79 34.78 178.98 34.10 179.07 L 33.08 178.67 C 31.60 177.87 29.89 177.86 28.25 177.92 C 18.92 175.00 9.03 169.90 2.01 163.95 C 2.03 161.40 2.06 158.86 2.11 156.33 C 3.78 154.61 5.33 152.74 7.21 151.25 C 8.77 150.39 9.53 148.72 10.14 147.13 C 10.70 143.50 11.04 139.84 11.16 136.17 L 11.24 135.23 C 11.56 131.26 12.51 127.18 11.79 123.21 C 11.51 121.88 11.15 120.58 10.93 119.25 C 13.99 119.59 15.96 117.78 17.18 115.18 Z" />
</g>
<g id="#dda7a7ff">
<path fill="#dda7a7" opacity="1.00" d=" M 30.76 113.08 C 35.23 115.54 37.49 122.16 43.32 121.05 C 41.21 121.30 37.59 124.48 36.54 121.58 C 35.54 117.18 29.26 118.62 30.76 113.08 Z" />
</g>
<g id="#dec7bcfb">
<path fill="#dec7bc" opacity="1.00" d=" M 154.96 119.05 C 156.10 116.39 158.04 114.21 160.33 112.48 C 160.78 112.57 161.67 112.75 162.12 112.84 C 162.38 113.11 162.89 113.65 163.15 113.92 C 166.48 119.77 159.25 115.02 159.29 119.82 C 161.37 124.89 168.74 122.36 172.96 123.88 C 169.49 126.18 164.51 122.26 161.02 125.04 C 162.78 129.18 165.78 132.62 167.81 136.62 C 163.15 136.02 160.72 142.75 157.01 140.98 C 154.84 137.12 153.12 133.06 156.32 129.18 C 157.78 126.05 155.04 122.92 155.01 119.69 L 154.96 119.05 Z" />
</g>
<g id="#d64f57fe">
<path fill="#d64f57" opacity="1.00" d=" M 176.72 116.24 C 177.07 114.76 177.20 112.99 179.09 112.83 C 178.09 115.09 178.61 118.06 176.92 119.96 C 176.46 119.99 175.53 120.06 175.07 120.09 C 175.74 118.87 176.48 117.64 176.72 116.24 Z" />
</g>
<g id="#bb847cff">
<path fill="#bb847c" opacity="1.00" d=" M 163.15 113.92 C 166.29 118.39 169.18 122.46 175.07 120.09 C 175.53 120.06 176.46 119.99 176.92 119.96 C 175.98 121.04 174.99 122.07 174.03 123.14 C 173.76 123.32 173.23 123.69 172.96 123.88 C 168.74 122.36 161.37 124.89 159.29 119.82 C 159.25 115.02 166.48 119.77 163.15 113.92 Z" />
</g>
<g id="#a8a3a3ab">
<path fill="#a8a3a3" opacity="0.67" d=" M 182.19 113.91 C 185.48 114.03 188.75 114.01 192.05 114.05 L 191.92 115.02 C 188.88 115.02 185.87 115.06 182.85 115.12 C 182.68 114.82 182.35 114.21 182.19 113.91 Z" />
</g>
<g id="#7977787c">
<path fill="#797778" opacity="0.49" d=" M 10.93 119.25 C 12.91 118.11 14.75 115.59 17.18 115.18 C 15.96 117.78 13.99 119.59 10.93 119.25 Z" />
</g>
<g id="#f6f0edfe">
<path fill="#f6f0ed" opacity="1.00" d=" M 182.85 115.12 C 185.87 115.06 188.88 115.02 191.92 115.02 C 194.06 115.86 196.22 116.85 197.98 118.36 C 198.89 119.64 200.07 120.80 201.69 121.09 C 201.90 124.15 201.89 127.29 202.80 130.26 C 203.88 134.81 204.01 139.52 204.60 144.15 L 204.63 144.91 C 203.60 148.08 203.21 151.37 203.78 154.65 C 203.27 156.41 202.88 158.25 201.95 159.86 C 201.32 160.96 200.71 162.09 200.00 163.15 C 198.84 162.20 196.44 161.76 196.99 164.06 L 196.12 164.09 C 189.68 160.72 183.07 154.69 175.26 156.77 C 166.87 151.34 172.11 142.77 178.24 137.89 C 173.56 135.11 166.99 132.94 165.43 127.21 C 166.77 121.16 171.83 132.01 174.72 127.72 C 177.87 124.37 189.29 121.44 182.97 115.84 L 182.85 115.12 Z" />
</g>
<g id="#be5559fe">
<path fill="#be5559" opacity="1.00" d=" M 46.61 115.45 C 47.80 117.26 47.89 120.34 50.74 119.96 C 51.64 121.05 52.50 122.18 53.43 123.25 L 53.99 123.93 C 50.70 123.79 50.20 119.93 46.25 121.84 C 46.56 117.92 45.13 117.72 42.54 120.35 C 43.42 118.36 44.97 116.83 46.61 115.45 Z" />
</g>
<g id="#80808084">
<path fill="#808080" opacity="0.52" d=" M 143.79 116.35 C 145.16 115.55 147.02 115.48 148.10 116.80 C 146.67 117.36 145.02 117.38 143.79 116.35 Z" />
</g>
<g id="#ece0d8ff">
<path fill="#ece0d8" opacity="1.00" d=" M 174.03 123.14 C 178.66 123.73 180.99 119.30 182.97 115.84 C 189.29 121.44 177.87 124.37 174.72 127.72 C 171.83 132.01 166.77 121.16 165.43 127.21 C 166.99 132.94 173.56 135.11 178.24 137.89 C 172.11 142.77 166.87 151.34 175.26 156.77 C 183.07 154.69 189.68 160.72 196.12 164.09 L 195.72 165.00 C 193.82 164.91 191.92 164.87 190.02 165.01 C 192.62 159.55 180.97 161.31 179.36 165.23 C 181.97 157.59 173.76 162.18 172.02 157.99 C 170.93 155.31 168.03 156.10 165.85 156.65 C 167.10 154.24 167.98 150.52 164.55 149.56 C 160.36 148.50 158.63 144.57 157.01 140.98 C 160.72 142.75 163.15 136.02 167.81 136.62 C 165.78 132.62 162.78 129.18 161.02 125.04 C 164.51 122.26 169.49 126.18 172.96 123.88 C 173.23 123.69 173.76 123.32 174.03 123.14 Z" />
</g>
<g id="#b14347ff">
<path fill="#b14347" opacity="1.00" d=" M 60.32 117.78 C 62.33 115.48 63.36 119.23 64.11 120.71 C 67.30 118.71 73.76 118.32 73.91 123.38 C 68.63 118.24 60.89 127.20 60.32 117.78 Z" />
</g>
<g id="#d2a3a1ff">
<path fill="#d2a3a1" opacity="1.00" d=" M 42.54 120.35 C 45.13 117.72 46.56 117.92 46.25 121.84 C 50.20 119.93 50.70 123.79 53.99 123.93 L 54.81 124.01 C 51.55 125.41 45.96 124.03 43.32 121.05 L 42.54 120.35 Z" />
</g>
<g id="#c98f90ff">
<path fill="#c98f90" opacity="1.00" d=" M 60.32 117.78 C 60.89 127.20 68.63 118.24 73.91 123.38 C 75.25 124.02 76.60 124.62 77.97 125.18 L 77.65 126.23 C 72.91 126.77 65.91 119.36 64.48 126.69 C 60.76 126.84 58.57 118.22 54.81 124.01 L 53.99 123.93 L 53.43 123.25 C 55.78 121.49 58.34 119.99 60.32 117.78 Z" />
</g>
<g id="#e59fa0ff">
<path fill="#e59fa0" opacity="1.00" d=" M 142.45 117.77 C 143.18 124.55 133.71 126.84 128.84 126.07 C 130.58 124.18 133.24 123.70 135.15 122.02 C 138.42 122.16 141.32 121.17 142.45 117.77 Z" />
</g>
<g id="#807e7e84">
<path fill="#807e7e" opacity="0.52" d=" M 149.99 118.18 C 151.71 117.89 153.41 118.29 154.96 119.05 L 155.01 119.69 C 153.12 120.65 151.28 119.56 149.99 118.18 Z" />
</g>
<g id="#82807f84">
<path fill="#82807f" opacity="0.52" d=" M 197.98 118.36 C 199.56 117.21 202.29 119.32 201.69 121.09 C 200.07 120.80 198.89 119.64 197.98 118.36 Z" />
</g>
<g id="#c1bebcc4">
<path fill="#c1bebc" opacity="0.77" d=" M 201.69 121.09 L 202.90 120.95 C 202.87 124.04 202.88 127.15 202.80 130.26 C 201.89 127.29 201.90 124.15 201.69 121.09 Z" />
</g>
<g id="#45434346">
<path fill="#454343" opacity="0.27" d=" M 202.90 120.95 C 206.27 121.06 203.40 127.58 203.74 130.03 L 202.80 130.26 C 202.88 127.15 202.87 124.04 202.90 120.95 Z" />
</g>
<g id="#c04d53ff">
<path fill="#c04d53" opacity="1.00" d=" M 116.95 124.97 C 122.90 123.13 129.08 123.86 135.15 122.02 C 133.24 123.70 130.58 124.18 128.84 126.07 C 128.61 126.27 128.14 126.68 127.91 126.88 C 124.52 123.05 120.42 127.52 116.35 126.44 C 109.31 124.22 101.95 127.52 94.74 126.30 C 93.62 126.21 92.50 126.20 91.38 126.27 C 86.80 126.65 82.22 126.54 77.65 126.23 L 77.97 125.18 C 83.36 125.87 88.65 125.50 93.90 124.32 C 99.33 126.68 104.57 124.31 110.05 123.91 C 112.50 122.96 114.84 123.53 116.95 124.97 Z" />
</g>
<g id="#bdbbb9c3">
<path fill="#bdbbb9" opacity="0.76" d=" M 10.97 123.92 C 11.17 123.74 11.58 123.38 11.79 123.21 C 12.51 127.18 11.56 131.26 11.24 135.23 C 11.16 131.45 11.02 127.69 10.97 123.92 Z" />
</g>
<g id="#4b4b4b4e">
<path fill="#4b4b4b" opacity="0.31" d=" M 10.11 135.94 C 11.26 132.92 7.65 125.33 10.97 123.92 C 11.02 127.69 11.16 131.45 11.24 135.23 L 11.16 136.17 L 10.11 135.94 Z" />
</g>
<g id="#d4999aff">
<path fill="#d4999a" opacity="1.00" d=" M 94.74 126.30 C 101.95 127.52 109.31 124.22 116.35 126.44 C 120.42 127.52 124.52 123.05 127.91 126.88 C 123.84 128.78 118.70 127.46 114.22 128.56 C 108.15 124.82 99.55 132.63 94.74 126.30 Z" />
</g>
<g id="#efe5deff">
<path fill="#efe5de" opacity="1.00" d=" M 137.40 129.42 C 142.73 125.99 153.40 120.98 156.32 129.18 C 153.12 133.06 154.84 137.12 157.01 140.98 C 153.75 138.53 151.50 142.55 148.61 143.57 C 142.09 146.59 134.79 144.30 128.12 146.09 C 126.24 154.18 121.47 163.14 113.13 165.89 C 112.39 159.34 107.28 164.52 103.63 165.58 C 101.25 166.74 97.06 167.17 100.08 171.78 C 104.46 173.90 109.52 171.89 114.05 173.57 C 118.82 172.89 123.56 166.44 128.20 170.80 C 134.91 174.08 143.16 163.99 149.75 170.25 C 149.59 174.19 132.72 171.05 135.94 177.81 C 134.72 177.85 133.53 178.05 132.37 178.40 C 126.02 183.69 127.25 172.07 120.81 174.40 C 114.53 175.15 108.31 176.76 102.17 177.80 C 98.28 175.08 93.59 174.85 88.98 175.01 C 86.98 173.14 87.64 170.56 87.79 168.15 C 86.31 165.46 83.16 163.55 82.95 160.15 C 84.47 158.34 87.18 158.82 88.04 160.98 C 90.90 168.81 96.91 153.00 99.85 159.15 C 103.87 164.51 108.13 155.16 112.85 156.31 C 118.05 157.62 122.87 151.24 121.83 146.40 C 116.29 143.87 109.50 143.69 104.50 140.49 C 101.60 134.65 94.28 137.03 89.12 138.16 C 80.38 142.13 74.59 132.33 65.89 132.85 C 71.97 125.20 82.47 131.66 90.07 132.83 C 92.31 132.50 94.29 130.48 96.66 131.35 C 110.16 135.01 123.85 130.64 137.40 129.42 Z" />
</g>
<g id="#cf9a9cff">
<path fill="#cf9a9c" opacity="1.00" d=" M 77.65 126.23 C 82.22 126.54 86.80 126.65 91.38 126.27 C 89.04 131.30 81.17 129.57 77.65 126.23 Z" />
</g>
<g id="#9b98989c">
<path fill="#9b9898" opacity="0.61" d=" M 202.80 130.26 L 203.74 130.03 C 204.06 130.54 204.71 131.57 205.03 132.08 C 204.90 136.10 204.76 140.13 204.60 144.15 C 204.01 139.52 203.88 134.81 202.80 130.26 Z" />
</g>
<g id="#e1d6caff">
<path fill="#e1d6ca" opacity="1.00" d=" M 32.20 132.06 C 37.59 131.99 42.73 133.69 48.00 134.50 C 57.31 132.15 66.84 135.62 75.73 138.26 C 79.01 141.79 78.04 150.91 84.85 149.70 C 90.67 147.22 96.06 164.57 88.04 160.98 C 87.18 158.82 84.47 158.34 82.95 160.15 C 83.16 163.55 86.31 165.46 87.79 168.15 C 87.64 170.56 86.98 173.14 88.98 175.01 C 80.04 176.42 71.18 173.00 62.19 173.11 C 64.32 181.54 57.77 172.20 53.83 172.10 C 48.77 168.50 41.57 173.44 37.45 168.59 C 33.12 165.90 24.01 163.42 26.90 172.90 C 21.75 172.08 17.52 168.34 13.04 165.89 C 14.01 161.26 18.62 159.71 22.20 162.78 C 25.51 165.75 32.06 159.48 26.80 157.27 C 21.75 155.59 22.15 149.75 22.13 145.32 C 26.35 142.74 29.80 139.26 35.20 140.68 C 34.21 137.80 28.71 135.08 32.20 132.06 M 36.17 134.50 C 35.66 134.64 34.64 134.93 34.13 135.07 C 38.52 139.23 40.19 147.75 47.46 147.54 C 51.01 154.48 58.85 150.30 64.81 153.71 C 65.87 147.96 76.06 151.81 72.59 144.37 C 71.11 135.62 59.83 135.69 53.08 135.21 C 49.96 136.55 46.90 137.23 43.92 135.15 C 41.15 136.11 38.53 135.98 36.17 134.50 Z" />
</g>
<g id="#2e2e2d2f">
<path fill="#2e2e2d" opacity="0.18" d=" M 205.03 132.08 C 206.01 134.57 207.77 146.39 205.00 148.99 C 204.88 147.63 204.75 146.27 204.63 144.91 L 204.60 144.15 C 204.76 140.13 204.90 136.10 205.03 132.08 Z" />
</g>
<g id="#dccebfff">
<path fill="#dccebf" opacity="1.00" d=" M 36.17 134.50 C 38.53 135.98 41.15 136.11 43.92 135.15 C 46.90 137.23 49.96 136.55 53.08 135.21 C 59.83 135.69 71.11 135.62 72.59 144.37 C 76.06 151.81 65.87 147.96 64.81 153.71 C 58.85 150.30 51.01 154.48 47.46 147.54 C 40.19 147.75 38.52 139.23 34.13 135.07 C 34.64 134.93 35.66 134.64 36.17 134.50 Z" />
</g>
<g id="#61605f65">
<path fill="#61605f" opacity="0.40" d=" M 7.21 151.25 C 9.79 146.65 7.11 138.85 10.11 135.94 C 10.05 139.66 10.06 143.40 10.14 147.13 C 9.53 148.72 8.77 150.39 7.21 151.25 Z" />
</g>
<g id="#c0bdbaca">
<path fill="#c0bdba" opacity="0.79" d=" M 10.11 135.94 L 11.16 136.17 C 11.04 139.84 10.70 143.50 10.14 147.13 C 10.06 143.40 10.05 139.66 10.11 135.94 Z" />
</g>
<g id="#f5efecfe">
<path fill="#f5efec" opacity="1.00" d=" M 148.61 143.57 C 151.50 142.55 153.75 138.53 157.01 140.98 C 158.63 144.57 160.36 148.50 164.55 149.56 C 167.98 150.52 167.10 154.24 165.85 156.65 C 160.44 158.44 165.44 165.32 162.03 169.07 C 161.27 170.25 160.33 171.97 158.77 172.00 C 157.21 171.93 155.41 171.59 154.09 172.67 C 153.00 173.39 151.89 174.09 150.70 174.65 C 146.55 175.25 142.60 176.73 138.63 178.02 C 137.96 177.97 136.62 177.86 135.94 177.81 C 132.72 171.05 149.59 174.19 149.75 170.25 C 143.16 163.99 134.91 174.08 128.20 170.80 C 123.56 166.44 118.82 172.89 114.05 173.57 C 109.52 171.89 104.46 173.90 100.08 171.78 C 97.06 167.17 101.25 166.74 103.63 165.58 C 107.28 164.52 112.39 159.34 113.13 165.89 C 121.47 163.14 126.24 154.18 128.12 146.09 C 134.79 144.30 142.09 146.59 148.61 143.57 Z" />
</g>
<g id="#8987878b">
<path fill="#898787" opacity="0.55" d=" M 203.78 154.65 C 203.21 151.37 203.60 148.08 204.63 144.91 C 204.75 146.27 204.88 147.63 205.00 148.99 C 204.69 150.40 204.08 153.23 203.78 154.65 Z" />
</g>
<g id="#6b6a6b6f">
<path fill="#6b6a6b" opacity="0.44" d=" M 2.01 163.95 C 0.22 163.75 0.39 155.82 2.11 156.33 C 2.06 158.86 2.03 161.40 2.01 163.95 Z" />
</g>
<g id="#dad0c5fc">
<path fill="#dad0c5" opacity="1.00" d=" M 165.85 156.65 C 168.03 156.10 170.93 155.31 172.02 157.99 C 173.76 162.18 181.97 157.59 179.36 165.23 C 180.97 161.31 192.62 159.55 190.02 165.01 C 189.81 165.20 189.38 165.59 189.16 165.79 C 185.18 165.84 181.20 165.83 177.23 165.75 C 173.48 165.38 169.72 165.05 165.97 164.76 C 165.93 162.05 165.89 159.35 165.85 156.65 Z" />
</g>
<g id="#dfd8d3f0">
<path fill="#dfd8d3" opacity="0.94" d=" M 162.03 169.07 C 165.44 165.32 160.44 158.44 165.85 156.65 C 165.89 159.35 165.93 162.05 165.97 164.76 C 165.74 165.09 165.30 165.74 165.08 166.07 C 164.31 167.29 163.22 168.27 162.03 169.07 Z" />
</g>
<g id="#8785868b">
<path fill="#878586" opacity="0.55" d=" M 200.00 163.15 C 200.71 162.09 201.32 160.96 201.95 159.86 C 203.41 164.31 199.46 165.96 195.72 165.00 L 196.12 164.09 L 196.99 164.06 C 198.26 164.36 199.27 164.06 200.00 163.15 Z" />
</g>
<g id="#e9e5e2f8">
<path fill="#e9e5e2" opacity="0.97" d=" M 196.99 164.06 C 196.44 161.76 198.84 162.20 200.00 163.15 C 199.27 164.06 198.26 164.36 196.99 164.06 Z" />
</g>
<g id="#a9a3a0b7">
<path fill="#a9a3a0" opacity="0.72" d=" M 165.08 166.07 C 165.30 165.74 165.74 165.09 165.97 164.76 C 169.72 165.05 173.48 165.38 177.23 165.75 C 174.48 165.81 171.73 165.89 168.98 166.00 C 167.68 166.05 166.38 166.07 165.08 166.07 Z" />
</g>
<g id="#95928f9f">
<path fill="#95928f" opacity="0.62" d=" M 189.16 165.79 C 189.38 165.59 189.81 165.20 190.02 165.01 C 191.92 164.87 193.82 164.91 195.72 165.00 C 195.63 166.66 192.91 166.19 191.76 166.24 C 191.11 166.12 189.81 165.90 189.16 165.79 Z" />
</g>
<g id="#c0b9acff">
<path fill="#c0b9ac" opacity="1.00" d=" M 26.90 172.90 C 24.01 163.42 33.12 165.90 37.45 168.59 C 41.57 173.44 48.77 168.50 53.83 172.10 C 57.77 172.20 64.32 181.54 62.19 173.11 C 71.18 173.00 80.04 176.42 88.98 175.01 C 93.59 174.85 98.28 175.08 102.17 177.80 C 108.31 176.76 114.53 175.15 120.81 174.40 C 121.66 175.66 124.73 176.61 123.39 178.41 C 94.53 182.59 65.39 180.47 36.85 176.11 C 33.28 175.59 30.72 172.41 26.90 172.90 Z" />
</g>
<g id="#5654545a">
<path fill="#565454" opacity="0.35" d=" M 168.98 166.00 C 171.73 165.89 174.48 165.81 177.23 165.75 C 181.20 165.83 185.18 165.84 189.16 165.79 C 189.81 165.90 191.11 166.12 191.76 166.24 C 187.67 166.74 173.81 168.84 168.98 166.00 Z" />
</g>
<g id="#7c7a797f">
<path fill="#7c7a79" opacity="0.50" d=" M 154.09 172.67 C 155.41 171.59 157.21 171.93 158.77 172.00 C 158.60 173.89 155.28 173.54 154.09 172.67 Z" />
</g>
<g id="#dad4cff3">
<path fill="#dad4cf" opacity="0.95" d=" M 120.81 174.40 C 127.25 172.07 126.02 183.69 132.37 178.40 L 132.18 178.82 C 131.82 180.08 131.06 180.79 129.93 180.94 C 122.15 181.34 114.30 181.41 106.59 182.68 L 105.74 182.83 C 104.16 182.83 102.60 183.01 101.08 183.44 L 100.37 183.54 C 95.84 183.46 91.14 182.32 86.71 183.72 C 85.22 183.78 83.73 183.81 82.24 183.80 C 77.17 183.24 72.08 182.88 66.97 182.98 C 65.29 182.92 61.94 182.81 60.26 182.76 C 57.45 182.36 54.65 182.02 51.85 181.59 C 50.41 181.34 47.53 180.86 46.09 180.62 C 44.47 180.07 42.78 179.80 41.08 179.67 C 39.67 179.29 38.25 178.94 36.81 178.70 C 39.39 178.17 38.78 177.15 36.85 176.11 C 65.39 180.47 94.53 182.59 123.39 178.41 C 124.73 176.61 121.66 175.66 120.81 174.40 Z" />
</g>
<g id="#92908f94">
<path fill="#92908f" opacity="0.58" d=" M 138.63 178.02 C 142.60 176.73 146.55 175.25 150.70 174.65 C 148.74 176.46 142.60 179.27 138.63 178.02 Z" />
</g>
<g id="#56565658">
<path fill="#565656" opacity="0.35" d=" M 28.25 177.92 C 29.89 177.86 31.60 177.87 33.08 178.67 C 31.83 179.54 28.37 179.94 28.25 177.92 Z" />
</g>
<g id="#7978777c">
<path fill="#797877" opacity="0.49" d=" M 132.37 178.40 C 133.53 178.05 134.72 177.85 135.94 177.81 C 136.62 177.86 137.96 177.97 138.63 178.02 C 137.78 179.94 134.02 179.27 132.18 178.82 L 132.37 178.40 Z" />
</g>
<g id="#7776777b">
<path fill="#777677" opacity="0.48" d=" M 34.10 179.07 C 34.78 178.98 36.13 178.79 36.81 178.70 C 38.25 178.94 39.67 179.29 41.08 179.67 C 39.04 180.18 35.34 181.06 34.10 179.07 Z" />
</g>
<g id="#7777787a">
<path fill="#777778" opacity="0.48" d=" M 41.08 179.67 C 42.78 179.80 44.47 180.07 46.09 180.62 C 44.73 181.58 41.26 181.85 41.08 179.67 Z" />
</g>
<g id="#7a7a7a7d">
<path fill="#7a7a7a" opacity="0.49" d=" M 46.09 180.62 C 47.53 180.86 50.41 181.34 51.85 181.59 C 50.34 182.78 46.39 183.05 46.09 180.62 Z" />
</g>
<g id="#64636368">
<path fill="#646363" opacity="0.41" d=" M 106.59 182.68 C 114.30 181.41 122.15 181.34 129.93 180.94 C 123.81 182.38 114.30 183.56 106.59 182.68 Z" />
</g>
<g id="#71717174">
<path fill="#717171" opacity="0.45" d=" M 51.85 181.59 C 54.65 182.02 57.45 182.36 60.26 182.76 C 57.72 182.49 52.69 184.42 51.85 181.59 Z" />
</g>
<g id="#7978787d">
<path fill="#797878" opacity="0.49" d=" M 66.97 182.98 C 72.08 182.88 77.17 183.24 82.24 183.80 L 81.20 183.86 C 77.18 182.95 69.42 185.98 66.97 182.98 Z" />
</g>
<g id="#8886868f">
<path fill="#888686" opacity="0.56" d=" M 86.71 183.72 C 91.14 182.32 95.84 183.46 100.37 183.54 C 97.59 183.86 94.80 184.02 92.01 184.03 C 90.24 183.94 88.48 183.81 86.71 183.72 Z" />
</g>
<g id="#76757679">
<path fill="#767576" opacity="0.47" d=" M 101.08 183.44 C 102.60 183.01 104.16 182.83 105.74 182.83 C 105.85 184.99 102.14 184.66 101.08 183.44 Z" />
</g>
<g id="#38383838">
<path fill="#383838" opacity="0.22" d=" M 81.20 183.86 L 82.24 183.80 C 83.73 183.81 85.22 183.78 86.71 183.72 C 88.48 183.81 90.24 183.94 92.01 184.03 C 92.11 185.26 80.34 186.68 81.20 183.86 Z" />
</g>
</svg>
