<?xml version="1.0" encoding="UTF-8" ?>
<!DOCTYPE svg PUBLIC "-//W3C//DTD SVG 1.1//EN" "http://www.w3.org/Graphics/SVG/1.1/DTD/svg11.dtd">
<svg width="210pt" height="220pt" viewBox="0 0 210 220" version="1.1" xmlns="http://www.w3.org/2000/svg">
<g id="#050201ff">
<path fill="#050201" opacity="1.00" d=" M 145.36 60.39 C 147.04 60.66 149.45 59.87 150.24 61.94 C 150.30 63.18 150.23 64.43 150.05 65.67 C 148.61 65.17 147.16 64.69 145.70 64.23 C 145.58 62.95 145.47 61.67 145.36 60.39 Z" />
<path fill="#050201" opacity="1.00" d=" M 148.54 68.98 C 148.49 68.07 148.82 67.32 149.54 66.72 C 149.45 70.32 149.19 73.92 149.41 77.53 L 148.74 77.89 C 147.50 88.19 146.36 98.52 145.40 108.85 C 145.59 115.60 143.31 122.19 143.74 128.93 C 145.22 135.02 147.64 140.89 148.46 147.14 C 145.47 140.46 144.78 133.00 141.80 126.31 C 141.56 127.89 141.38 129.48 141.22 131.07 C 139.97 137.17 136.35 142.41 134.23 148.22 C 130.36 149.75 126.76 151.97 122.77 153.18 C 119.84 153.54 116.87 153.38 113.93 153.37 C 110.44 153.54 107.40 151.53 104.02 151.02 C 106.67 157.60 109.56 164.12 111.38 171.00 C 112.11 177.05 110.03 182.92 109.51 188.89 C 109.23 188.04 109.02 187.18 108.88 186.31 C 110.11 181.31 111.03 176.12 110.43 170.97 C 109.16 165.39 106.89 160.12 104.59 154.91 C 102.99 148.99 98.28 144.71 96.15 139.01 C 87.62 144.60 78.73 149.61 70.03 154.91 C 63.32 158.90 56.82 163.22 49.95 166.92 C 55.70 174.49 62.21 181.46 68.03 188.99 C 65.32 188.99 62.61 189.00 59.90 189.00 C 51.81 178.97 43.32 169.28 35.08 159.38 C 32.99 155.63 28.47 155.01 25.58 152.28 C 27.30 152.75 29.02 153.22 30.74 153.66 C 29.30 152.20 27.88 150.74 26.48 149.23 C 25.55 149.70 24.62 150.17 23.69 150.64 C 23.46 150.46 22.99 150.09 22.75 149.91 C 23.60 149.53 25.29 148.78 26.14 148.40 C 24.50 146.88 23.30 144.67 21.20 143.76 C 17.29 143.41 13.13 144.12 9.50 142.25 C 5.38 138.54 3.73 132.93 0.00 128.89 L 0.00 123.47 C 2.55 125.08 2.45 120.08 0.00 120.64 L 0.00 118.14 C 1.36 118.55 2.71 118.96 4.06 119.39 C 5.39 118.94 6.72 118.50 8.05 118.06 C 8.72 116.17 9.37 114.26 9.94 112.33 C 15.46 113.70 19.22 118.13 23.04 121.99 C 26.51 125.34 28.18 129.99 29.97 134.34 C 30.99 136.73 28.73 138.64 28.17 140.80 C 29.68 142.94 31.39 144.97 33.38 146.67 C 35.12 147.03 36.88 146.37 38.63 146.36 C 38.52 146.56 38.28 146.95 38.17 147.15 C 36.96 147.20 34.55 147.32 33.35 147.37 C 38.79 153.35 43.58 159.96 49.13 165.82 C 51.91 165.39 54.09 163.01 56.60 161.76 C 69.73 154.13 82.47 145.86 95.70 138.42 C 93.92 133.96 90.29 130.11 90.08 125.14 C 89.68 123.54 89.57 121.83 88.82 120.35 C 87.31 119.16 85.22 118.55 84.29 116.74 C 83.33 115.15 83.70 113.18 83.51 111.42 C 84.78 110.12 86.07 108.84 87.38 107.59 C 88.87 107.56 90.36 107.53 91.86 107.48 C 93.11 106.24 94.40 105.04 95.71 103.86 C 92.46 101.59 89.38 98.77 85.36 98.01 C 85.33 97.63 85.26 96.87 85.23 96.49 C 90.54 94.27 96.20 92.43 102.01 92.49 C 106.16 92.78 111.03 95.10 111.77 99.63 C 115.16 99.56 118.55 99.54 121.94 99.38 C 123.72 96.34 126.64 94.39 130.03 93.56 C 132.05 94.49 134.63 95.01 135.73 97.17 C 137.46 99.94 135.27 103.72 137.57 106.25 C 140.96 110.34 142.11 115.56 143.05 120.65 C 144.91 116.66 144.40 112.25 144.62 108.00 C 145.59 98.60 146.84 89.21 147.62 79.78 C 147.05 79.77 145.91 79.75 145.34 79.74 C 146.03 79.25 146.75 78.80 147.50 78.40 C 148.55 75.36 148.50 72.14 148.54 68.98 M 96.08 94.24 C 94.96 94.34 93.85 94.43 92.73 94.51 C 90.77 95.32 88.80 96.12 86.86 96.97 C 89.79 98.38 92.57 100.05 95.12 102.06 C 96.55 103.36 98.50 102.65 100.15 102.35 C 101.26 101.26 102.90 101.66 104.30 101.44 C 106.12 100.06 108.48 100.67 110.59 100.52 C 111.13 97.55 108.18 96.40 106.50 94.60 C 103.39 93.03 99.18 92.58 96.08 94.24 M 126.80 95.75 C 124.29 97.93 123.08 101.82 125.26 104.66 C 126.87 107.43 130.44 107.00 133.09 106.40 C 135.35 104.35 136.15 101.54 135.55 98.56 C 133.88 96.55 131.83 94.57 129.04 94.45 C 128.48 94.78 127.36 95.43 126.80 95.75 M 111.18 101.35 C 106.93 101.15 102.75 102.30 98.79 103.73 C 96.64 104.74 94.66 106.07 93.09 107.88 C 95.66 110.23 96.96 113.63 96.13 117.12 C 98.30 113.74 102.24 112.68 105.47 110.69 C 108.40 108.97 111.66 108.01 114.78 106.70 C 117.41 106.88 120.80 105.79 122.56 108.44 C 126.47 113.38 128.67 119.61 128.84 125.90 C 130.13 129.90 128.53 134.24 129.38 138.37 C 128.93 138.69 128.05 139.33 127.60 139.64 C 126.54 141.95 124.83 143.92 122.38 144.81 L 122.65 143.08 C 125.45 141.84 126.28 138.68 128.64 136.93 L 128.64 135.24 C 128.33 135.24 127.70 135.26 127.38 135.27 C 127.71 135.16 128.36 134.94 128.69 134.82 C 128.73 134.01 128.82 132.39 128.86 131.58 C 126.97 129.87 127.60 133.45 127.53 134.38 C 125.77 136.35 124.60 138.89 122.25 140.28 C 120.02 142.34 116.81 141.22 114.15 142.07 L 121.66 144.13 C 116.69 147.00 112.62 143.80 108.22 142.47 C 110.20 142.53 112.19 142.56 114.18 142.55 C 112.98 140.00 109.62 140.41 107.45 139.19 C 107.50 139.94 107.60 141.43 107.65 142.18 C 105.07 139.59 108.13 135.00 105.74 132.11 C 102.86 128.33 98.71 125.83 95.05 122.88 C 93.57 121.70 94.93 119.43 94.63 117.90 C 93.39 118.94 91.99 119.54 90.41 119.71 C 90.39 121.19 90.43 122.67 90.53 124.14 C 92.03 125.00 91.44 126.83 91.73 128.23 C 93.11 130.02 94.20 132.02 94.81 134.21 C 98.91 139.25 99.87 146.77 105.97 150.20 C 111.15 153.31 117.34 152.64 123.13 152.34 C 126.15 150.99 129.00 149.26 132.14 148.21 C 134.49 145.97 135.41 142.79 136.75 139.93 C 138.47 136.49 140.48 132.94 140.53 128.98 C 140.32 126.11 142.32 123.73 142.33 120.89 C 141.24 118.24 141.48 115.24 140.35 112.57 L 139.66 112.37 C 138.94 109.75 137.51 106.59 134.92 105.45 C 132.32 110.00 125.67 109.16 122.64 105.47 C 122.31 103.77 122.58 101.83 121.64 100.33 C 118.18 100.43 114.35 99.71 111.18 101.35 M 112.93 109.62 L 112.07 108.13 C 109.33 110.29 106.16 112.04 102.81 113.03 C 102.74 113.80 102.60 115.33 102.53 116.10 C 106.57 114.92 109.93 112.29 113.75 110.63 C 116.36 110.84 118.97 110.63 121.58 110.50 C 121.53 109.75 121.44 108.26 121.39 107.51 C 120.48 107.56 118.66 107.67 117.75 107.72 C 116.08 108.19 114.31 108.48 112.93 109.62 M 84.43 111.83 C 83.49 115.63 86.59 118.47 89.92 119.51 C 91.47 118.68 92.93 117.08 94.89 117.59 C 94.67 117.03 94.23 115.89 94.00 115.33 L 95.77 115.76 C 96.09 112.56 93.75 109.72 90.98 108.44 C 88.12 107.47 86.06 109.90 84.43 111.83 M 11.73 113.99 C 11.22 115.27 10.36 116.16 9.15 116.66 C 9.16 117.27 9.18 118.50 9.20 119.11 C 6.33 119.73 3.78 121.37 1.01 119.21 C 1.93 120.94 2.89 122.67 3.84 124.39 C 3.15 124.43 1.76 124.52 1.06 124.57 C 1.12 125.46 1.24 127.25 1.30 128.15 C 3.29 130.50 3.84 133.70 5.93 135.97 C 7.39 137.61 8.73 139.36 9.73 141.32 C 13.04 143.21 16.86 142.74 20.50 142.66 L 20.65 141.70 C 22.48 141.66 24.31 141.50 26.15 141.42 C 29.06 139.52 29.07 135.95 28.64 132.85 C 27.91 132.03 27.42 131.09 27.19 130.01 C 26.52 128.65 25.89 127.26 25.35 125.84 C 20.76 121.97 17.26 116.62 11.73 113.99 M 98.90 114.28 C 98.97 117.41 94.55 118.90 95.75 122.00 L 97.25 122.49 C 98.48 120.07 100.25 117.54 102.57 116.11 C 101.54 115.16 100.70 113.50 98.90 114.28 Z" />
</g>
<g id="#fcfe00ff">
<path fill="#fcfe00" opacity="1.00" d=" M 163.71 69.14 C 170.90 65.19 177.85 60.71 185.75 58.24 C 184.53 62.54 180.88 65.43 178.42 69.01 C 172.13 77.97 165.39 86.65 160.09 96.26 C 154.25 104.96 150.63 114.90 147.30 124.76 C 154.63 124.48 161.54 120.89 168.98 121.61 C 165.94 124.68 162.29 127.17 159.73 130.69 C 157.95 133.11 155.99 135.39 154.15 137.78 C 162.92 134.57 171.30 130.39 179.82 126.59 C 188.85 121.91 198.57 118.81 208.35 116.12 C 206.70 120.00 202.40 121.50 199.40 124.14 C 190.62 131.50 180.17 136.71 171.96 144.80 C 168.72 148.07 165.49 151.35 162.12 154.47 C 165.74 154.82 169.39 154.52 173.02 154.76 C 180.27 155.88 187.67 154.96 194.92 156.20 C 200.25 156.43 205.56 157.72 210.00 160.78 L 210.00 163.13 C 194.04 167.29 178.43 172.77 163.52 179.83 C 163.53 180.22 163.55 181.00 163.56 181.38 C 166.73 183.64 169.70 186.17 172.60 188.77 C 166.53 189.18 160.44 188.99 154.36 188.92 C 154.33 183.26 154.69 177.59 154.22 171.96 C 153.04 163.53 150.41 155.40 148.46 147.14 C 147.64 140.89 145.22 135.02 143.74 128.93 C 143.31 122.19 145.59 115.60 145.40 108.85 C 146.36 98.52 147.50 88.19 148.74 77.89 L 149.41 77.53 C 154.31 74.96 158.72 71.56 163.71 69.14 Z" />
<path fill="#fcfe00" opacity="1.00" d=" M 43.51 69.19 C 47.04 70.57 50.50 72.15 53.76 74.11 C 58.76 77.06 64.54 78.52 69.25 81.99 C 72.89 84.38 75.79 87.69 79.29 90.26 C 78.86 84.46 80.62 78.90 81.72 73.27 C 82.14 73.33 82.97 73.43 83.38 73.48 C 87.10 79.88 92.34 85.14 97.24 90.61 C 98.74 85.01 99.23 79.11 101.66 73.77 C 102.64 71.88 102.97 69.21 105.16 68.28 C 106.49 76.47 108.13 84.62 109.75 92.76 C 115.14 89.72 120.56 86.66 125.25 82.59 C 131.47 78.02 137.04 71.47 145.28 70.91 C 143.44 75.53 138.85 78.81 138.16 84.01 C 140.75 82.93 143.19 81.52 145.34 79.74 C 145.91 79.75 147.05 79.77 147.62 79.78 C 146.84 89.21 145.59 98.60 144.62 108.00 C 144.40 112.25 144.91 116.66 143.05 120.65 C 142.11 115.56 140.96 110.34 137.57 106.25 C 135.27 103.72 137.46 99.94 135.73 97.17 C 134.63 95.01 132.05 94.49 130.03 93.56 C 126.64 94.39 123.72 96.34 121.94 99.38 C 118.55 99.54 115.16 99.56 111.77 99.63 C 111.03 95.10 106.16 92.78 102.01 92.49 C 96.20 92.43 90.54 94.27 85.23 96.49 C 85.26 96.87 85.33 97.63 85.36 98.01 C 89.38 98.77 92.46 101.59 95.71 103.86 C 94.40 105.04 93.11 106.24 91.86 107.48 C 90.36 107.53 88.87 107.56 87.38 107.59 C 86.07 108.84 84.78 110.12 83.51 111.42 C 83.70 113.18 83.33 115.15 84.29 116.74 C 85.22 118.55 87.31 119.16 88.82 120.35 C 89.57 121.83 89.68 123.54 90.08 125.14 C 90.29 130.11 93.92 133.96 95.70 138.42 C 82.47 145.86 69.73 154.13 56.60 161.76 C 54.09 163.01 51.91 165.39 49.13 165.82 C 43.58 159.96 38.79 153.35 33.35 147.37 C 34.55 147.32 36.96 147.20 38.17 147.15 C 38.28 146.95 38.52 146.56 38.63 146.36 C 42.97 146.15 47.18 145.04 51.47 144.43 C 49.43 140.46 45.54 138.11 42.51 135.00 C 39.86 132.29 36.89 129.85 34.66 126.75 C 38.22 126.67 41.77 126.81 45.32 126.71 C 43.75 124.39 40.94 123.35 39.29 121.10 C 37.55 118.78 36.05 116.30 34.31 113.99 C 29.57 107.77 23.18 103.15 17.81 97.56 C 18.93 97.63 20.11 97.49 21.16 97.99 C 29.49 101.28 37.44 105.46 45.26 109.80 C 49.48 112.09 54.06 113.63 58.68 114.88 C 52.17 100.20 45.79 85.19 43.51 69.19 Z" />
<path fill="#fcfe00" opacity="1.00" d=" M 70.03 154.91 C 78.73 149.61 87.62 144.60 96.15 139.01 C 98.28 144.71 102.99 148.99 104.59 154.91 C 106.89 160.12 109.16 165.39 110.43 170.97 C 111.03 176.12 110.11 181.31 108.88 186.31 C 108.53 187.28 108.17 188.26 107.80 189.23 C 94.56 188.69 81.28 189.16 68.03 188.99 C 62.21 181.46 55.70 174.49 49.95 166.92 C 56.82 163.22 63.32 158.90 70.03 154.91 Z" />
<path fill="#fcfe00" opacity="1.00" d=" M 23.69 150.64 C 24.62 150.17 25.55 149.70 26.48 149.23 C 27.88 150.74 29.30 152.20 30.74 153.66 C 29.02 153.22 27.30 152.75 25.58 152.28 C 25.06 151.89 24.03 151.12 23.52 150.73 L 23.69 150.64 Z" />
<path fill="#fcfe00" opacity="1.00" d=" M 9.36 155.57 C 18.19 154.28 26.49 158.22 35.08 159.38 C 43.32 169.28 51.81 178.97 59.90 189.00 C 49.99 188.87 40.06 189.27 30.17 188.78 C 28.40 185.16 25.33 182.43 23.06 179.15 C 20.42 175.41 18.06 171.46 16.14 167.30 C 14.29 163.16 11.32 159.66 9.36 155.57 Z" />
</g>
<g id="#fcfc9aff">
<path fill="#fcfc9a" opacity="1.00" d=" M 96.08 94.24 C 99.18 92.58 103.39 93.03 106.50 94.60 C 108.18 96.40 111.13 97.55 110.59 100.52 C 108.48 100.67 106.12 100.06 104.30 101.44 C 102.90 101.66 101.26 101.26 100.15 102.35 C 98.50 102.65 96.55 103.36 95.12 102.06 C 92.57 100.05 89.79 98.38 86.86 96.97 C 88.80 96.12 90.77 95.32 92.73 94.51 C 93.85 94.43 94.96 94.34 96.08 94.24 Z" />
<path fill="#fcfc9a" opacity="1.00" d=" M 131.21 99.16 C 132.85 98.69 133.38 99.26 132.81 100.87 C 131.16 101.35 130.63 100.78 131.21 99.16 Z" />
<path fill="#fcfc9a" opacity="1.00" d=" M 0.00 120.64 C 2.45 120.08 2.55 125.08 0.00 123.47 L 0.00 120.64 Z" />
</g>
<g id="#fefefeff">
<path fill="#fefefe" opacity="1.00" d=" M 126.80 95.75 C 127.36 95.43 128.48 94.78 129.04 94.45 C 131.83 94.57 133.88 96.55 135.55 98.56 C 136.15 101.54 135.35 104.35 133.09 106.40 C 130.44 107.00 126.87 107.43 125.26 104.66 C 123.08 101.82 124.29 97.93 126.80 95.75 M 131.21 99.16 C 130.63 100.78 131.16 101.35 132.81 100.87 C 133.38 99.26 132.85 98.69 131.21 99.16 Z" />
<path fill="#fefefe" opacity="1.00" d=" M 111.18 101.35 C 114.35 99.71 118.18 100.43 121.64 100.33 C 122.58 101.83 122.31 103.77 122.64 105.47 C 125.67 109.16 132.32 110.00 134.92 105.45 C 137.51 106.59 138.94 109.75 139.66 112.37 L 140.35 112.57 C 141.48 115.24 141.24 118.24 142.33 120.89 C 142.32 123.73 140.32 126.11 140.53 128.98 C 140.48 132.94 138.47 136.49 136.75 139.93 C 135.41 142.79 134.49 145.97 132.14 148.21 C 129.00 149.26 126.15 150.99 123.13 152.34 C 117.34 152.64 111.15 153.31 105.97 150.20 C 99.87 146.77 98.91 139.25 94.81 134.21 C 94.20 132.02 93.11 130.02 91.73 128.23 C 91.44 126.83 92.03 125.00 90.53 124.14 C 90.43 122.67 90.39 121.19 90.41 119.71 C 91.99 119.54 93.39 118.94 94.63 117.90 C 94.93 119.43 93.57 121.70 95.05 122.88 C 98.71 125.83 102.86 128.33 105.74 132.11 C 108.13 135.00 105.07 139.59 107.65 142.18 C 107.60 141.43 107.50 139.94 107.45 139.19 C 109.62 140.41 112.98 140.00 114.18 142.55 C 112.19 142.56 110.20 142.53 108.22 142.47 C 112.62 143.80 116.69 147.00 121.66 144.13 L 114.15 142.07 C 116.81 141.22 120.02 142.34 122.25 140.28 C 124.60 138.89 125.77 136.35 127.53 134.38 C 127.60 133.45 126.97 129.87 128.86 131.58 C 128.82 132.39 128.73 134.01 128.69 134.82 C 128.36 134.94 127.71 135.16 127.38 135.27 C 127.70 135.26 128.33 135.24 128.64 135.24 L 128.64 136.93 C 126.28 138.68 125.45 141.84 122.65 143.08 L 122.38 144.81 C 124.83 143.92 126.54 141.95 127.60 139.64 C 128.05 139.33 128.93 138.69 129.38 138.37 C 128.53 134.24 130.13 129.90 128.84 125.90 C 128.67 119.61 126.47 113.38 122.56 108.44 C 120.80 105.79 117.41 106.88 114.78 106.70 C 111.66 108.01 108.40 108.97 105.47 110.69 C 102.24 112.68 98.30 113.74 96.13 117.12 C 96.96 113.63 95.66 110.23 93.09 107.88 C 94.66 106.07 96.64 104.74 98.79 103.73 C 102.75 102.30 106.93 101.15 111.18 101.35 Z" />
<path fill="#fefefe" opacity="1.00" d=" M 112.93 109.62 C 114.31 108.48 116.08 108.19 117.75 107.72 C 118.66 107.67 120.48 107.56 121.39 107.51 C 121.44 108.26 121.53 109.75 121.58 110.50 C 118.97 110.63 116.36 110.84 113.75 110.63 C 109.93 112.29 106.57 114.92 102.53 116.10 C 102.60 115.33 102.74 113.80 102.81 113.03 C 106.16 112.04 109.33 110.29 112.07 108.13 L 112.93 109.62 Z" />
<path fill="#fefefe" opacity="1.00" d=" M 84.43 111.83 C 86.06 109.90 88.12 107.47 90.98 108.44 C 93.75 109.72 96.09 112.56 95.77 115.76 L 94.00 115.33 C 94.23 115.89 94.67 117.03 94.89 117.59 C 92.93 117.08 91.47 118.68 89.92 119.51 C 86.59 118.47 83.49 115.63 84.43 111.83 Z" />
<path fill="#fefefe" opacity="1.00" d=" M 98.90 114.28 C 100.70 113.50 101.54 115.16 102.57 116.11 C 100.25 117.54 98.48 120.07 97.25 122.49 L 95.75 122.00 C 94.55 118.90 98.97 117.41 98.90 114.28 Z" />
</g>
<g id="#fdfe7bff">
<path fill="#fdfe7b" opacity="1.00" d=" M 11.73 113.99 C 17.26 116.62 20.76 121.97 25.35 125.84 C 25.89 127.26 26.52 128.65 27.19 130.01 C 27.42 131.09 27.91 132.03 28.64 132.85 C 29.07 135.95 29.06 139.52 26.15 141.42 C 24.31 141.50 22.48 141.66 20.65 141.70 L 20.50 142.66 C 16.86 142.74 13.04 143.21 9.73 141.32 C 8.73 139.36 7.39 137.61 5.93 135.97 C 3.84 133.70 3.29 130.50 1.30 128.15 C 1.24 127.25 1.12 125.46 1.06 124.57 C 1.76 124.52 3.15 124.43 3.84 124.39 C 2.89 122.67 1.93 120.94 1.01 119.21 C 3.78 121.37 6.33 119.73 9.20 119.11 C 9.18 118.50 9.16 117.27 9.15 116.66 C 10.36 116.16 11.22 115.27 11.73 113.99 Z" />
</g>
<g id="#fe007eff">
<path fill="#fe007e" opacity="1.00" d=" M 141.22 131.07 C 141.38 129.48 141.56 127.89 141.80 126.31 C 144.78 133.00 145.47 140.46 148.46 147.14 C 150.41 155.40 153.04 163.53 154.22 171.96 C 154.69 177.59 154.33 183.26 154.36 188.92 C 139.41 189.02 124.45 189.11 109.51 188.89 C 110.03 182.92 112.11 177.05 111.38 171.00 C 109.56 164.12 106.67 157.60 104.02 151.02 C 107.40 151.53 110.44 153.54 113.93 153.37 C 116.87 153.38 119.84 153.54 122.77 153.18 C 126.76 151.97 130.36 149.75 134.23 148.22 C 136.35 142.41 139.97 137.17 141.22 131.07 Z" />
</g>
</svg>
