<?xml version="1.0" encoding="UTF-8" ?>
<!DOCTYPE svg PUBLIC "-//W3C//DTD SVG 1.1//EN" "http://www.w3.org/Graphics/SVG/1.1/DTD/svg11.dtd">
<svg width="210pt" height="220pt" viewBox="0 0 210 220" version="1.1" xmlns="http://www.w3.org/2000/svg">
<g id="#070606fa">
<path fill="#070606" opacity="0.98" d=" M 107.28 36.62 C 107.41 36.00 107.69 34.75 107.82 34.13 C 109.80 35.44 111.47 37.55 113.89 38.00 C 116.94 37.80 119.97 37.38 123.03 37.23 C 127.49 33.37 132.95 37.24 137.96 37.38 C 142.80 37.46 146.40 41.08 150.23 43.54 C 152.45 43.85 154.68 42.79 156.90 42.51 C 156.60 44.92 154.55 45.77 152.34 45.90 C 157.89 52.42 163.66 59.41 165.42 68.01 C 166.67 77.39 165.03 86.89 162.38 95.89 C 160.50 102.25 157.72 109.07 151.73 112.61 C 148.68 114.27 146.44 117.30 142.94 118.10 C 135.27 121.05 126.87 119.07 118.87 119.60 C 124.59 131.99 134.71 141.43 144.19 150.94 C 148.31 155.26 154.08 157.22 159.51 159.32 C 166.01 161.51 172.33 164.24 178.91 166.20 C 181.05 167.35 183.33 168.26 185.43 169.50 C 187.34 173.80 189.18 178.30 189.55 183.03 C 189.14 183.56 188.34 184.61 187.93 185.13 C 187.10 182.33 186.35 179.49 185.38 176.73 C 184.69 179.05 183.98 181.37 182.84 183.52 C 181.65 179.98 182.71 176.27 182.60 172.65 C 182.19 172.52 181.37 172.27 180.96 172.14 C 180.21 175.28 179.55 178.45 179.39 181.69 C 178.89 181.69 177.88 181.70 177.38 181.70 C 176.94 177.31 178.22 173.11 179.56 169.00 C 174.84 167.27 170.04 165.76 165.37 163.90 C 157.91 161.28 150.36 158.59 143.78 154.11 C 137.72 148.87 132.00 143.29 126.89 137.12 C 125.88 135.86 124.85 134.62 123.87 133.35 C 120.75 129.18 118.45 124.49 116.20 119.83 C 116.81 124.51 117.43 129.18 118.09 133.85 C 118.59 137.79 119.75 141.59 121.12 145.31 C 122.26 156.99 126.88 167.86 130.09 179.02 C 131.52 182.21 132.46 185.58 133.81 188.80 C 132.76 188.77 131.71 188.75 130.67 188.72 C 130.02 185.76 129.19 182.83 127.84 180.11 C 126.99 175.39 124.75 171.09 123.53 166.48 C 120.40 156.47 118.01 146.24 115.57 136.05 C 115.32 130.54 114.32 125.13 113.51 119.68 C 108.52 118.99 103.72 117.41 98.80 116.46 C 92.87 117.13 87.60 120.25 81.85 121.65 C 76.32 122.97 70.70 124.26 65.59 126.82 C 62.55 128.96 60.27 131.98 57.76 134.69 C 57.04 140.30 53.07 144.60 51.10 149.75 C 48.70 152.26 46.80 155.18 44.85 158.03 C 44.11 159.86 43.45 161.71 42.94 163.61 C 45.99 163.78 49.05 163.94 52.05 164.56 C 53.83 167.41 56.31 169.69 58.76 171.95 C 58.36 172.37 57.56 173.23 57.17 173.65 C 54.63 171.32 51.93 169.12 49.89 166.31 C 47.69 166.29 45.50 166.31 43.31 166.37 C 44.72 169.11 45.68 172.05 46.99 174.83 C 48.45 176.96 50.53 178.58 52.10 180.63 C 45.44 181.41 43.98 173.48 41.77 168.91 C 41.64 168.06 41.39 166.38 41.26 165.54 C 39.58 168.47 38.27 171.66 38.37 175.11 C 39.91 177.39 42.32 179.48 42.51 182.38 C 39.25 182.76 38.26 178.19 36.30 176.16 C 36.32 174.63 36.32 173.11 36.32 171.59 C 35.46 172.61 34.60 173.64 33.76 174.67 C 33.83 177.68 33.85 180.69 33.83 183.70 C 33.28 183.65 32.18 183.56 31.64 183.52 C 31.64 180.26 31.64 176.99 31.66 173.73 C 34.25 169.68 36.90 165.65 39.95 161.92 C 44.08 155.56 47.17 148.57 51.56 142.38 C 53.04 139.73 53.97 136.84 55.06 134.02 C 57.61 131.28 59.92 128.28 62.82 125.89 C 66.52 123.52 70.71 121.99 74.96 120.93 C 81.63 119.64 87.89 117.03 94.35 115.01 C 94.12 114.37 93.65 113.09 93.42 112.45 C 92.89 112.42 91.82 112.36 91.29 112.33 C 88.78 109.91 85.83 107.99 83.34 105.54 C 77.59 99.24 71.82 92.47 69.47 84.09 C 68.86 78.79 68.88 73.29 70.60 68.18 C 70.99 67.94 71.76 67.44 72.14 67.19 C 73.80 63.99 75.83 61.00 77.75 57.95 C 78.23 57.70 79.19 57.21 79.67 56.96 C 81.01 55.51 82.46 54.17 83.97 52.90 C 92.04 46.58 101.53 42.61 111.08 39.12 C 109.81 38.29 108.54 37.45 107.28 36.62 M 126.86 37.58 C 127.03 38.19 127.37 39.43 127.54 40.05 C 127.15 40.40 126.37 41.11 125.98 41.47 C 125.54 41.03 124.67 40.16 124.23 39.72 C 122.01 39.73 119.79 39.71 117.57 39.78 C 118.17 40.09 119.39 40.70 120.00 41.00 C 121.06 41.37 122.12 41.76 123.16 42.18 C 126.38 42.50 129.55 43.49 132.26 45.29 C 132.53 42.47 136.18 42.47 137.64 44.36 C 138.33 45.87 136.65 46.22 135.65 46.78 C 134.85 47.64 134.01 48.48 133.10 49.24 C 131.41 49.61 130.80 47.59 129.70 46.79 C 128.44 49.32 126.85 51.91 124.24 53.23 C 120.44 55.12 116.09 54.12 112.02 54.38 C 108.56 54.66 105.26 53.55 101.95 52.76 C 100.13 51.30 98.29 49.86 96.59 48.26 C 91.19 50.61 86.47 54.17 82.08 58.04 C 77.35 62.36 74.33 68.13 71.56 73.81 C 71.75 77.91 70.79 82.32 72.98 86.05 C 75.22 91.73 78.88 96.63 82.98 101.08 C 86.85 106.82 93.41 109.58 98.82 113.56 C 101.68 112.05 104.81 111.16 107.94 110.37 C 110.32 109.30 112.66 108.16 115.04 107.08 C 115.95 110.54 116.48 114.14 118.21 117.32 C 124.48 117.25 130.75 117.30 137.02 117.28 C 138.01 116.91 138.99 116.54 139.98 116.19 C 141.26 115.64 142.61 115.30 143.97 115.01 C 147.03 112.02 151.32 110.62 154.07 107.26 C 158.07 101.98 159.85 95.46 161.44 89.13 C 163.20 81.19 164.70 72.78 161.94 64.87 C 160.99 63.08 160.04 61.29 159.14 59.47 C 158.22 60.18 157.29 60.88 156.36 61.58 C 150.23 61.81 142.34 59.89 139.95 53.51 C 139.61 52.30 139.30 51.07 139.00 49.85 C 138.88 49.32 138.64 48.25 138.51 47.71 C 140.81 46.97 143.12 46.17 144.91 44.46 C 145.58 44.69 146.94 45.15 147.62 45.38 C 145.45 42.63 142.12 41.34 139.09 39.81 C 134.85 40.19 130.91 38.50 126.86 37.58 M 100.37 45.40 C 108.90 45.90 117.48 45.79 126.02 45.49 C 121.77 44.62 117.61 43.29 113.80 41.20 C 109.26 42.34 105.09 44.82 100.37 45.40 M 146.55 48.30 C 146.08 48.38 145.15 48.53 144.68 48.61 C 144.52 48.94 144.20 49.61 144.04 49.95 C 147.57 51.04 150.96 52.78 154.71 52.98 C 153.35 51.09 151.83 49.32 150.37 47.50 C 150.02 47.27 149.32 46.79 148.97 46.55 C 148.16 47.13 147.36 47.71 146.55 48.30 M 100.46 48.58 C 106.57 52.45 113.82 51.47 120.66 51.80 C 119.76 50.70 118.95 49.52 118.17 48.33 C 112.27 48.56 106.35 48.11 100.46 48.58 M 142.78 52.29 C 143.08 55.06 145.74 56.11 147.83 57.33 C 149.72 57.92 151.61 58.50 153.54 58.97 C 152.25 58.12 150.95 57.31 149.65 56.50 C 149.64 56.05 149.62 55.14 149.61 54.68 C 147.28 54.03 145.06 53.07 142.78 52.29 M 109.21 113.12 C 107.24 113.21 105.44 113.95 103.82 115.02 C 105.23 115.43 106.64 115.82 108.06 116.19 C 109.77 116.43 111.49 116.54 113.21 116.61 C 112.63 114.88 112.07 113.16 111.46 111.45 C 110.90 111.87 109.77 112.71 109.21 113.12 Z" />
<path fill="#070606" opacity="0.98" d=" M 105.31 61.64 C 112.37 59.59 119.74 60.36 126.99 60.24 C 132.78 60.49 138.64 61.71 143.88 64.22 C 147.07 66.86 151.05 68.96 152.89 72.86 C 153.89 75.13 155.23 77.21 156.78 79.13 C 156.69 80.23 156.08 80.75 154.92 80.69 C 153.24 79.40 151.84 77.78 150.32 76.32 C 150.33 75.66 150.36 74.33 150.37 73.67 C 146.87 70.14 143.14 66.62 138.39 64.89 C 130.14 62.44 121.53 62.51 113.02 62.78 C 110.06 63.59 107.06 64.21 104.16 65.19 C 102.75 65.80 100.28 65.44 101.31 63.38 C 102.62 62.74 103.98 62.23 105.31 61.64 Z" />
<path fill="#070606" opacity="0.98" d=" M 97.38 68.75 C 97.44 66.32 95.94 62.64 99.16 61.82 C 99.55 64.04 100.16 66.22 101.31 68.19 C 100.00 68.41 98.70 68.62 97.38 68.75 Z" />
<path fill="#070606" opacity="0.98" d=" M 121.97 66.93 C 126.85 64.80 132.35 66.70 137.02 68.54 C 137.69 68.59 139.04 68.69 139.71 68.74 C 141.53 69.77 143.58 70.21 145.54 70.87 C 145.18 71.35 144.47 72.31 144.11 72.80 C 142.36 72.71 140.53 72.73 139.10 71.55 C 133.96 70.24 128.87 68.86 123.56 68.34 C 123.16 67.99 122.36 67.29 121.97 66.93 Z" />
</g>
<g id="#fefefeff">
<path fill="#fefefe" opacity="1.00" d=" M 126.86 37.58 C 130.91 38.50 134.85 40.19 139.09 39.81 C 142.12 41.34 145.45 42.63 147.62 45.38 C 146.94 45.15 145.58 44.69 144.91 44.46 C 143.12 46.17 140.81 46.97 138.51 47.71 C 138.64 48.25 138.88 49.32 139.00 49.85 C 139.30 51.07 139.61 52.30 139.95 53.51 C 142.34 59.89 150.23 61.81 156.36 61.58 C 157.29 60.88 158.22 60.18 159.14 59.47 C 160.04 61.29 160.99 63.08 161.94 64.87 C 164.70 72.78 163.20 81.19 161.44 89.13 C 159.85 95.46 158.07 101.98 154.07 107.26 C 151.32 110.62 147.03 112.02 143.97 115.01 C 142.61 115.30 141.26 115.64 139.98 116.19 C 138.99 116.54 138.01 116.91 137.02 117.28 C 130.75 117.30 124.48 117.25 118.21 117.32 C 116.48 114.14 115.95 110.54 115.04 107.08 C 112.66 108.16 110.32 109.30 107.94 110.37 C 104.81 111.16 101.68 112.05 98.82 113.56 C 93.41 109.58 86.85 106.82 82.98 101.08 C 78.88 96.63 75.22 91.73 72.98 86.05 C 70.79 82.32 71.75 77.91 71.56 73.81 C 74.33 68.13 77.35 62.36 82.08 58.04 C 86.47 54.17 91.19 50.61 96.59 48.26 C 98.29 49.86 100.13 51.30 101.95 52.76 C 105.26 53.55 108.56 54.66 112.02 54.38 C 116.09 54.12 120.44 55.12 124.24 53.23 C 126.85 51.91 128.44 49.32 129.70 46.79 C 130.80 47.59 131.41 49.61 133.10 49.24 C 134.01 48.48 134.85 47.64 135.65 46.78 C 136.65 46.22 138.33 45.87 137.64 44.36 C 136.18 42.47 132.53 42.47 132.26 45.29 C 129.55 43.49 126.38 42.50 123.16 42.18 C 122.12 41.76 121.06 41.37 120.00 41.00 C 119.39 40.70 118.17 40.09 117.57 39.78 C 119.79 39.71 122.01 39.73 124.23 39.72 C 124.67 40.16 125.54 41.03 125.98 41.47 C 126.37 41.11 127.15 40.40 127.54 40.05 C 127.37 39.43 127.03 38.19 126.86 37.58 M 105.31 61.64 C 103.98 62.23 102.62 62.74 101.31 63.38 C 100.28 65.44 102.75 65.80 104.16 65.19 C 107.06 64.21 110.06 63.59 113.02 62.78 C 121.53 62.51 130.14 62.44 138.39 64.89 C 143.14 66.62 146.87 70.14 150.37 73.67 C 150.36 74.33 150.33 75.66 150.32 76.32 C 151.84 77.78 153.24 79.40 154.92 80.69 C 156.08 80.75 156.69 80.23 156.78 79.13 C 155.23 77.21 153.89 75.13 152.89 72.86 C 151.05 68.96 147.07 66.86 143.88 64.22 C 138.64 61.71 132.78 60.49 126.99 60.24 C 119.74 60.36 112.37 59.59 105.31 61.64 M 97.38 68.75 C 98.70 68.62 100.00 68.41 101.31 68.19 C 100.16 66.22 99.55 64.04 99.16 61.82 C 95.94 62.64 97.44 66.32 97.38 68.75 M 121.97 66.93 C 122.36 67.29 123.16 67.99 123.56 68.34 C 128.87 68.86 133.96 70.24 139.10 71.55 C 140.53 72.73 142.36 72.71 144.11 72.80 C 144.47 72.31 145.18 71.35 145.54 70.87 C 143.58 70.21 141.53 69.77 139.71 68.74 C 139.04 68.69 137.69 68.59 137.02 68.54 C 132.35 66.70 126.85 64.80 121.97 66.93 Z" />
<path fill="#fefefe" opacity="1.00" d=" M 100.37 45.40 C 105.09 44.82 109.26 42.34 113.80 41.20 C 117.61 43.29 121.77 44.62 126.02 45.49 C 117.48 45.79 108.90 45.90 100.37 45.40 Z" />
<path fill="#fefefe" opacity="1.00" d=" M 146.55 48.30 C 147.36 47.71 148.16 47.13 148.97 46.55 C 149.32 46.79 150.02 47.27 150.37 47.50 C 151.83 49.32 153.35 51.09 154.71 52.98 C 150.96 52.78 147.57 51.04 144.04 49.95 C 144.20 49.61 144.52 48.94 144.68 48.61 C 145.15 48.53 146.08 48.38 146.55 48.30 Z" />
<path fill="#fefefe" opacity="1.00" d=" M 100.46 48.58 C 106.35 48.11 112.27 48.56 118.17 48.33 C 118.95 49.52 119.76 50.70 120.66 51.80 C 113.82 51.47 106.57 52.45 100.46 48.58 Z" />
<path fill="#fefefe" opacity="1.00" d=" M 142.78 52.29 C 145.06 53.07 147.28 54.03 149.61 54.68 C 149.62 55.14 149.64 56.05 149.65 56.50 C 150.95 57.31 152.25 58.12 153.54 58.97 C 151.61 58.50 149.72 57.92 147.83 57.33 C 145.74 56.11 143.08 55.06 142.78 52.29 Z" />
<path fill="#fefefe" opacity="1.00" d=" M 109.21 113.12 C 109.77 112.71 110.90 111.87 111.46 111.45 C 112.07 113.16 112.63 114.88 113.21 116.61 C 111.49 116.54 109.77 116.43 108.06 116.19 C 106.64 115.82 105.23 115.43 103.82 115.02 C 105.44 113.95 107.24 113.21 109.21 113.12 Z" />
<path fill="#fefefe" opacity="1.00" d=" M 116.20 119.83 C 118.45 124.49 120.75 129.18 123.87 133.35 C 123.26 133.78 122.69 134.26 122.06 134.64 C 121.32 132.49 120.56 130.34 119.86 128.18 C 117.75 129.32 118.78 132.03 118.09 133.85 C 117.43 129.18 116.81 124.51 116.20 119.83 Z" />
</g>
</svg>
