<?xml version="1.0" encoding="UTF-8" ?>
<!DOCTYPE svg PUBLIC "-//W3C//DTD SVG 1.1//EN" "http://www.w3.org/Graphics/SVG/1.1/DTD/svg11.dtd">
<svg width="210pt" height="220pt" viewBox="0 0 210 220" version="1.1" xmlns="http://www.w3.org/2000/svg">
<g id="#040404fc">
<path fill="#040404" opacity="1.00" d=" M 110.38 32.13 C 110.76 32.21 111.53 32.36 111.91 32.44 C 112.98 33.93 114.08 35.61 115.97 36.13 C 119.07 35.99 122.17 35.59 125.26 35.21 C 127.73 33.98 130.41 32.79 133.17 33.93 C 137.51 35.55 142.44 34.91 146.48 37.34 C 148.90 38.58 151.07 40.23 153.14 41.97 C 154.96 41.49 156.77 40.98 158.58 40.45 C 158.62 41.45 158.65 42.44 158.68 43.44 C 157.74 43.50 155.86 43.62 154.92 43.68 C 157.59 46.53 159.80 49.74 161.78 53.09 C 165.42 56.60 166.90 61.79 168.19 66.55 C 169.36 76.43 167.42 86.41 164.46 95.82 C 162.97 100.14 161.16 104.54 158.05 107.96 C 155.03 110.60 151.49 112.57 148.42 115.15 C 140.16 119.44 130.63 117.18 121.74 117.76 C 122.58 119.69 123.51 121.60 124.24 123.58 C 123.78 123.94 122.87 124.66 122.42 125.02 C 121.15 122.83 119.96 120.59 118.66 118.42 C 118.88 119.90 119.22 121.36 119.54 122.83 L 119.14 123.10 C 118.46 123.18 117.10 123.34 116.43 123.41 C 116.52 121.52 116.55 119.64 116.60 117.75 C 113.66 117.23 110.71 116.70 107.77 116.19 C 105.65 115.44 103.50 114.49 101.22 114.47 C 94.86 115.29 89.25 118.82 82.99 120.04 C 79.44 120.71 76.04 121.94 72.56 122.85 C 70.91 123.33 68.99 123.45 67.69 124.69 C 66.73 126.46 67.01 128.59 66.65 130.52 C 66.23 129.30 65.81 128.08 65.37 126.87 C 64.71 126.34 64.06 125.81 63.41 125.30 C 67.21 123.30 71.16 121.62 75.01 119.72 C 75.78 119.70 77.30 119.65 78.07 119.63 C 78.45 119.35 79.22 118.80 79.60 118.52 C 85.68 117.98 91.11 115.04 96.89 113.37 C 96.83 112.69 96.69 111.33 96.63 110.64 C 95.77 110.54 94.92 110.45 94.06 110.35 C 84.57 102.90 75.95 93.54 72.13 81.87 C 71.19 76.71 71.61 71.30 73.52 66.40 C 73.93 66.13 74.74 65.58 75.15 65.30 C 77.54 59.44 81.98 54.81 87.00 51.09 C 90.98 47.55 95.96 45.55 100.35 42.62 C 104.84 40.74 109.54 39.37 113.90 37.17 C 112.74 36.35 111.59 35.53 110.44 34.71 C 110.42 34.06 110.39 32.78 110.38 32.13 M 129.66 35.54 C 129.67 36.80 129.68 38.06 129.67 39.32 C 127.00 37.88 124.01 37.65 121.04 37.67 C 121.23 38.06 121.61 38.84 121.80 39.23 C 122.36 39.28 123.49 39.36 124.05 39.41 C 127.58 41.38 132.28 40.57 135.19 43.82 C 134.45 39.73 139.60 41.03 141.10 43.11 C 140.07 43.68 139.04 44.24 138.01 44.78 C 137.38 45.99 136.39 46.94 135.12 47.44 C 133.99 46.70 133.00 45.81 131.99 44.93 C 131.02 48.72 127.83 51.28 124.23 52.41 C 119.15 52.14 114.00 52.85 108.98 51.94 C 107.60 51.61 106.22 51.30 104.83 51.02 C 102.88 49.53 100.94 48.00 99.17 46.29 C 88.31 51.41 78.91 60.14 74.50 71.45 C 74.02 76.15 73.69 81.28 76.21 85.51 C 78.25 90.75 81.92 95.01 85.54 99.21 C 89.57 104.98 96.10 107.98 101.74 111.85 C 106.58 108.87 112.68 108.65 117.37 105.20 C 118.76 108.51 119.07 112.18 120.64 115.43 C 127.11 115.35 133.57 115.43 140.04 115.38 C 142.22 114.51 144.37 113.50 146.72 113.21 C 148.01 112.02 149.26 110.73 150.87 109.99 C 158.12 106.53 161.24 98.35 163.00 91.03 C 163.99 88.50 164.47 85.83 164.88 83.15 C 165.81 77.15 167.51 70.60 164.73 64.84 C 164.69 64.30 164.61 63.24 164.57 62.70 C 163.58 61.12 162.69 59.47 161.85 57.80 C 160.91 58.42 159.98 59.03 159.04 59.65 C 153.32 60.15 147.31 58.17 143.49 53.78 C 143.04 52.43 142.52 51.09 141.97 49.77 C 141.72 48.44 141.43 47.13 141.21 45.80 C 143.44 44.98 145.84 44.39 147.49 42.53 C 148.28 42.91 149.08 43.28 149.88 43.64 C 148.80 40.47 144.83 39.35 141.97 38.30 C 137.71 38.17 133.73 36.64 129.66 35.54 M 104.56 43.12 C 104.47 43.32 104.30 43.71 104.21 43.90 C 112.27 43.46 120.38 43.78 128.45 43.94 C 127.66 43.75 126.07 43.36 125.27 43.16 C 122.43 41.66 119.11 41.13 116.60 39.01 C 112.60 40.41 108.78 42.41 104.56 43.12 M 146.10 47.93 C 149.72 49.05 153.28 50.33 156.89 51.50 C 156.32 48.74 154.03 46.71 151.98 44.96 C 149.89 45.62 147.79 46.52 146.10 47.93 M 103.25 46.55 C 109.77 51.05 118.12 49.53 125.55 49.50 C 126.29 48.23 127.11 47.01 127.89 45.75 C 125.99 46.79 124.47 48.34 122.80 49.68 C 122.36 48.87 121.48 47.26 121.04 46.45 C 115.11 46.52 109.18 46.35 103.25 46.55 M 145.03 50.32 C 146.51 54.26 150.88 55.68 154.59 56.69 C 154.72 57.04 154.97 57.75 155.09 58.10 L 154.94 56.47 C 156.75 56.99 158.63 57.23 159.85 55.52 C 159.31 55.28 158.24 54.80 157.70 54.56 L 157.79 56.45 C 155.25 56.32 151.93 55.57 151.97 52.40 C 151.50 52.36 150.56 52.30 150.09 52.26 C 148.45 51.50 146.76 50.85 145.03 50.32 M 111.84 111.31 C 109.91 111.43 108.09 112.04 106.46 113.06 C 109.37 114.31 112.56 114.72 115.71 114.78 C 115.30 113.04 114.80 111.32 114.34 109.59 C 113.50 110.15 112.66 110.72 111.84 111.31 Z" />
<path fill="#040404" opacity="1.00" d=" M 106.55 60.35 C 114.44 57.41 122.93 58.37 131.17 58.37 C 136.39 59.04 141.77 59.90 146.47 62.36 C 149.74 65.06 153.83 67.18 155.62 71.25 C 156.63 73.56 157.99 75.69 159.83 77.44 C 157.11 80.64 154.83 75.93 152.97 74.21 C 153.30 70.80 150.03 69.05 147.89 67.05 C 145.90 65.22 143.43 64.11 141.01 62.98 C 131.59 60.62 121.61 59.91 112.05 61.77 C 109.35 62.11 106.78 64.09 104.05 63.29 C 102.41 61.35 105.46 61.00 106.55 60.35 Z" />
<path fill="#040404" opacity="1.00" d=" M 99.67 66.47 C 99.96 64.17 98.71 60.85 101.54 59.83 C 102.18 62.02 102.92 64.18 103.76 66.30 C 102.45 66.98 101.04 66.76 99.67 66.47 Z" />
<path fill="#040404" opacity="1.00" d=" M 125.46 64.54 C 128.66 63.78 131.93 64.59 135.15 64.82 C 137.45 65.78 139.76 66.81 142.28 67.03 C 144.32 68.01 147.17 67.86 148.27 70.24 C 146.57 70.51 144.86 70.69 143.14 70.75 C 142.17 69.31 140.43 69.57 138.98 69.29 C 134.88 66.82 129.93 67.58 125.46 66.39 C 125.46 65.93 125.46 65.00 125.46 64.54 Z" />
<path fill="#040404" opacity="1.00" d=" M 126.54 131.52 C 126.61 129.85 126.71 128.18 126.89 126.52 C 128.09 128.49 128.42 130.75 128.32 133.02 C 127.73 132.52 127.13 132.02 126.54 131.52 Z" />
<path fill="#040404" opacity="1.00" d=" M 120.41 129.34 L 120.69 128.93 C 121.36 133.37 121.28 137.86 121.51 142.33 C 124.16 143.30 126.85 144.21 129.69 144.41 C 127.16 145.08 124.46 144.98 122.22 143.54 C 124.85 150.38 126.41 157.53 128.64 164.49 C 129.79 168.87 131.96 172.93 132.71 177.41 C 134.24 180.64 135.10 184.12 136.42 187.43 C 135.70 187.20 134.27 186.74 133.55 186.51 C 130.34 176.71 127.06 166.92 123.92 157.09 C 122.91 151.93 121.12 146.95 119.89 141.83 C 119.82 137.70 119.21 133.33 120.41 129.34 Z" />
<path fill="#040404" opacity="1.00" d=" M 58.31 135.89 C 58.41 134.00 57.43 131.28 59.86 130.48 C 59.77 131.60 59.59 132.70 59.32 133.79 C 59.06 134.31 58.56 135.37 58.31 135.89 Z" />
<path fill="#040404" opacity="1.00" d=" M 53.33 140.20 C 53.87 141.27 54.37 142.34 54.91 143.40 C 54.92 146.14 52.85 148.15 51.37 150.22 C 48.72 153.85 46.03 157.73 45.34 162.28 C 48.07 162.41 50.85 162.10 53.55 162.66 C 55.98 164.92 58.26 167.39 60.43 169.91 L 60.50 172.04 C 57.63 169.76 54.92 167.28 52.64 164.40 C 50.39 164.38 48.14 164.38 45.89 164.41 C 47.16 167.44 48.14 170.60 49.59 173.54 C 51.02 175.44 52.87 176.97 54.34 178.85 C 52.50 178.77 50.59 178.31 49.43 176.76 C 46.40 173.07 45.07 168.31 43.89 163.78 C 41.70 166.34 40.81 169.84 41.15 173.16 C 41.83 176.07 45.34 178.01 44.47 181.32 C 41.25 178.28 38.57 174.44 38.78 169.82 C 37.98 170.78 37.17 171.73 36.36 172.69 C 36.43 175.66 36.45 178.62 36.46 181.59 C 35.96 181.60 34.95 181.62 34.45 181.63 C 34.45 178.41 34.46 175.20 34.49 171.99 C 37.98 166.08 42.92 161.13 45.94 154.94 C 44.72 154.21 43.51 153.47 42.31 152.73 C 44.37 150.69 46.43 148.64 48.34 146.47 C 49.77 146.11 51.19 145.76 52.62 145.43 C 53.05 144.00 53.25 142.55 53.23 141.08 C 53.26 140.86 53.31 140.42 53.33 140.20 Z" />
<path fill="#040404" opacity="1.00" d=" M 139.23 144.57 C 140.44 144.79 141.66 145.00 142.88 145.22 L 142.62 145.67 C 146.12 148.36 149.14 151.74 153.10 153.79 C 159.34 156.77 165.95 158.82 172.36 161.38 C 176.25 162.93 180.48 163.73 184.10 165.89 C 185.50 166.48 186.91 167.04 188.31 167.61 C 189.45 172.63 192.98 177.58 191.63 182.84 C 191.30 182.77 190.62 182.61 190.28 182.54 C 189.33 180.02 188.90 177.33 187.99 174.80 C 187.42 176.81 186.90 178.83 186.40 180.85 C 185.88 180.73 184.84 180.48 184.32 180.36 C 184.60 178.86 184.92 177.38 185.29 175.90 C 185.47 173.66 184.99 171.48 184.11 169.42 C 182.84 172.95 182.17 176.64 182.05 180.39 C 178.95 179.78 179.65 176.40 180.23 174.15 C 180.90 171.81 181.50 169.44 181.83 167.03 C 175.20 165.01 168.75 162.49 162.25 160.12 C 156.78 157.94 151.16 155.89 146.44 152.27 C 143.42 150.33 141.63 147.14 139.23 144.57 Z" />
</g>
<g id="#fefefeff">
<path fill="#fefefe" opacity="1.00" d=" M 129.66 35.54 C 133.73 36.64 137.71 38.17 141.97 38.30 C 144.83 39.35 148.80 40.47 149.88 43.64 C 149.08 43.28 148.28 42.91 147.49 42.53 C 145.84 44.39 143.44 44.98 141.21 45.80 C 141.43 47.13 141.72 48.44 141.97 49.77 C 142.52 51.09 143.04 52.43 143.49 53.78 C 147.31 58.17 153.32 60.15 159.04 59.65 C 159.98 59.03 160.91 58.42 161.85 57.80 C 162.69 59.47 163.58 61.12 164.57 62.70 C 164.61 63.24 164.69 64.30 164.73 64.84 C 167.51 70.60 165.81 77.15 164.88 83.15 C 164.47 85.83 163.99 88.50 163.00 91.03 C 161.24 98.35 158.12 106.53 150.87 109.99 C 149.26 110.73 148.01 112.02 146.72 113.21 C 144.37 113.50 142.22 114.51 140.04 115.38 C 133.57 115.43 127.11 115.35 120.64 115.43 C 119.07 112.18 118.76 108.51 117.37 105.20 C 112.68 108.65 106.58 108.87 101.74 111.85 C 96.10 107.98 89.57 104.98 85.54 99.21 C 81.92 95.01 78.25 90.75 76.21 85.51 C 73.69 81.28 74.02 76.15 74.50 71.45 C 78.91 60.14 88.31 51.41 99.17 46.29 C 100.94 48.00 102.88 49.53 104.83 51.02 C 106.22 51.30 107.60 51.61 108.98 51.94 C 114.00 52.85 119.15 52.14 124.23 52.41 C 127.83 51.28 131.02 48.72 131.99 44.93 C 133.00 45.81 133.99 46.70 135.12 47.44 C 136.39 46.94 137.38 45.99 138.01 44.78 C 139.04 44.24 140.07 43.68 141.10 43.11 C 139.60 41.03 134.45 39.73 135.19 43.82 C 132.28 40.57 127.58 41.38 124.05 39.41 C 123.49 39.36 122.36 39.28 121.80 39.23 C 121.61 38.84 121.23 38.06 121.04 37.67 C 124.01 37.65 127.00 37.88 129.67 39.32 C 129.68 38.06 129.67 36.80 129.66 35.54 M 106.55 60.35 C 105.46 61.00 102.41 61.35 104.05 63.29 C 106.78 64.09 109.35 62.11 112.05 61.77 C 121.61 59.91 131.59 60.62 141.01 62.98 C 143.43 64.11 145.90 65.22 147.89 67.05 C 150.03 69.05 153.30 70.80 152.97 74.21 C 154.83 75.93 157.11 80.64 159.83 77.44 C 157.99 75.69 156.63 73.56 155.62 71.25 C 153.83 67.18 149.74 65.06 146.47 62.36 C 141.77 59.90 136.39 59.04 131.17 58.37 C 122.93 58.37 114.44 57.41 106.55 60.35 M 99.67 66.47 C 101.04 66.76 102.45 66.98 103.76 66.30 C 102.92 64.18 102.18 62.02 101.54 59.83 C 98.71 60.85 99.96 64.17 99.67 66.47 M 125.46 64.54 C 125.46 65.00 125.46 65.93 125.46 66.39 C 129.93 67.58 134.88 66.82 138.98 69.29 C 140.43 69.57 142.17 69.31 143.14 70.75 C 144.86 70.69 146.57 70.51 148.27 70.24 C 147.17 67.86 144.32 68.01 142.28 67.03 C 139.76 66.81 137.45 65.78 135.15 64.82 C 131.93 64.59 128.66 63.78 125.46 64.54 Z" />
<path fill="#fefefe" opacity="1.00" d=" M 104.56 43.12 C 108.78 42.41 112.60 40.41 116.60 39.01 C 119.11 41.13 122.43 41.66 125.27 43.16 C 126.07 43.36 127.66 43.75 128.45 43.94 C 120.38 43.78 112.27 43.46 104.21 43.90 C 104.30 43.71 104.47 43.32 104.56 43.12 Z" />
<path fill="#fefefe" opacity="1.00" d=" M 146.10 47.93 C 147.79 46.52 149.89 45.62 151.98 44.96 C 154.03 46.71 156.32 48.74 156.89 51.50 C 153.28 50.33 149.72 49.05 146.10 47.93 Z" />
<path fill="#fefefe" opacity="1.00" d=" M 103.25 46.55 C 109.18 46.35 115.11 46.52 121.04 46.45 C 121.48 47.26 122.36 48.87 122.80 49.68 C 124.47 48.34 125.99 46.79 127.89 45.75 C 127.11 47.01 126.29 48.23 125.55 49.50 C 118.12 49.53 109.77 51.05 103.25 46.55 Z" />
<path fill="#fefefe" opacity="1.00" d=" M 145.03 50.32 C 146.76 50.85 148.45 51.50 150.09 52.26 C 150.56 52.30 151.50 52.36 151.97 52.40 C 151.93 55.57 155.25 56.32 157.79 56.45 L 157.70 54.56 C 158.24 54.80 159.31 55.28 159.85 55.52 C 158.63 57.23 156.75 56.99 154.94 56.47 L 155.09 58.10 C 154.97 57.75 154.72 57.04 154.59 56.69 C 150.88 55.68 146.51 54.26 145.03 50.32 Z" />
<path fill="#fefefe" opacity="1.00" d=" M 111.84 111.31 C 112.66 110.72 113.50 110.15 114.34 109.59 C 114.80 111.32 115.30 113.04 115.71 114.78 C 112.56 114.72 109.37 114.31 106.46 113.06 C 108.09 112.04 109.91 111.43 111.84 111.31 Z" />
<path fill="#fefefe" opacity="1.00" d=" M 119.54 122.83 C 119.22 121.36 118.88 119.90 118.66 118.42 C 119.96 120.59 121.15 122.83 122.42 125.02 C 121.72 126.27 121.20 127.60 120.69 128.93 L 120.41 129.34 L 120.03 129.87 C 119.53 127.84 120.53 125.38 119.14 123.60 L 119.14 123.10 L 119.54 122.83 Z" />
<path fill="#fefefe" opacity="1.00" d=" M 126.54 131.52 C 127.13 132.02 127.73 132.52 128.32 133.02 C 128.25 135.57 128.25 138.13 128.25 140.69 C 127.83 140.73 127.01 140.82 126.60 140.86 C 126.61 137.75 126.62 134.63 126.54 131.52 Z" />
<path fill="#fefefe" opacity="1.00" d=" M 58.31 135.89 C 58.56 135.37 59.06 134.31 59.32 133.79 C 59.58 136.11 59.64 138.45 59.69 140.79 C 59.21 140.76 58.25 140.70 57.76 140.67 C 57.90 139.08 57.69 137.40 58.31 135.89 Z" />
</g>
<g id="#fc0001fe">
<path fill="#fc0001" opacity="1.00" d=" M 67.69 124.69 C 68.99 123.45 70.91 123.33 72.56 122.85 C 74.16 123.42 75.72 124.12 77.29 124.78 C 77.63 126.30 77.96 127.82 78.32 129.34 C 76.82 129.35 75.32 129.36 73.83 129.36 C 73.77 128.50 73.65 126.76 73.58 125.89 C 71.17 125.79 70.82 127.77 71.36 129.75 C 73.05 131.42 75.23 132.44 77.00 134.02 C 79.00 135.94 78.27 138.93 78.55 141.40 C 76.38 144.38 71.98 145.33 68.98 143.01 C 66.82 141.82 67.47 139.14 67.22 137.11 C 68.64 137.14 70.06 137.19 71.49 137.25 C 71.55 138.78 71.63 140.31 71.71 141.85 C 74.42 141.95 74.33 139.55 74.53 137.54 C 72.10 135.14 68.75 133.68 66.98 130.63 L 66.65 130.52 C 67.01 128.59 66.73 126.46 67.69 124.69 Z" />
<path fill="#fc0001" opacity="1.00" d=" M 81.20 123.75 C 83.91 123.77 86.63 123.77 89.34 123.78 C 89.31 124.64 89.25 126.37 89.22 127.23 C 87.99 127.28 86.77 127.33 85.54 127.38 C 85.55 128.83 85.55 130.28 85.56 131.74 C 86.64 131.74 87.72 131.75 88.81 131.76 C 88.79 132.92 88.77 134.09 88.75 135.27 C 87.95 135.26 86.35 135.24 85.55 135.23 C 85.56 136.96 85.57 138.68 85.58 140.41 C 86.92 140.40 88.25 140.40 89.59 140.40 C 89.59 141.51 89.58 142.62 89.57 143.73 C 86.77 143.70 83.97 143.70 81.17 143.71 C 81.23 137.06 81.18 130.40 81.20 123.75 Z" />
<path fill="#fc0001" opacity="1.00" d=" M 124.24 123.58 C 127.03 122.98 129.92 123.36 132.37 124.86 C 133.59 128.80 133.36 132.96 133.50 137.03 C 133.59 139.96 132.44 143.04 129.69 144.41 C 126.85 144.21 124.16 143.30 121.51 142.33 C 121.28 137.86 121.36 133.37 120.69 128.93 C 121.20 127.60 121.72 126.27 122.42 125.02 C 122.87 124.66 123.78 123.94 124.24 123.58 M 126.54 131.52 C 126.62 134.63 126.61 137.75 126.60 140.86 C 127.01 140.82 127.83 140.73 128.25 140.69 C 128.25 138.13 128.25 135.57 128.32 133.02 C 128.42 130.75 128.09 128.49 126.89 126.52 C 126.71 128.18 126.61 129.85 126.54 131.52 Z" />
<path fill="#fc0001" opacity="1.00" d=" M 136.15 123.61 C 137.70 123.61 139.25 123.61 140.81 123.60 C 140.77 129.64 140.77 135.67 140.80 141.70 L 142.52 141.18 C 143.12 135.37 142.61 129.49 142.76 123.65 C 144.40 123.63 146.05 123.61 147.71 123.60 C 147.50 129.57 148.18 135.60 147.32 141.52 C 145.84 144.79 141.91 144.22 138.97 144.28 C 137.70 142.96 136.40 141.65 135.43 140.08 C 136.45 134.64 136.20 129.11 136.15 123.61 Z" />
<path fill="#fc0001" opacity="1.00" d=" M 150.60 126.46 C 152.00 123.00 156.86 122.48 159.83 124.17 C 162.16 125.39 161.87 128.42 162.54 130.62 C 160.80 130.69 159.05 130.74 157.30 130.79 C 157.28 129.20 157.25 127.62 157.22 126.04 C 156.73 126.21 155.76 126.55 155.27 126.73 C 155.22 131.83 155.02 136.96 155.56 142.05 C 159.09 140.36 156.87 136.11 156.19 133.41 C 158.22 133.37 160.25 133.37 162.28 133.38 C 162.23 136.66 162.42 139.96 162.18 143.24 C 161.23 145.18 159.62 143.49 158.29 142.98 C 155.92 145.49 151.60 144.30 150.59 141.13 C 150.05 136.27 150.12 131.32 150.60 126.46 Z" />
<path fill="#fc0001" opacity="1.00" d=" M 29.96 125.17 C 32.26 122.80 36.60 122.75 39.05 124.93 C 41.15 126.55 40.37 129.55 40.80 131.85 C 39.15 131.84 37.50 131.82 35.86 131.78 C 35.84 129.90 35.82 128.02 35.78 126.13 C 35.15 126.16 33.90 126.23 33.27 126.26 C 33.21 131.33 33.16 136.40 33.33 141.48 C 33.93 141.51 35.14 141.57 35.74 141.60 C 35.80 139.83 35.84 138.05 35.87 136.28 C 37.52 136.24 39.17 136.20 40.82 136.18 C 40.44 138.29 40.71 140.69 39.27 142.47 C 36.74 144.88 31.95 145.03 29.77 142.09 C 28.07 139.77 28.64 136.73 28.50 134.05 C 28.64 131.07 27.95 127.68 29.96 125.17 Z" />
<path fill="#fc0001" opacity="1.00" d=" M 43.25 123.79 C 44.78 123.77 46.32 123.76 47.85 123.75 C 47.85 129.26 47.84 134.77 47.84 140.27 C 48.97 140.38 50.10 140.48 51.23 140.59 C 51.26 141.61 51.28 142.62 51.31 143.64 C 48.62 143.70 45.94 143.71 43.26 143.74 C 43.29 137.09 43.30 130.44 43.25 123.79 Z" />
<path fill="#fc0001" opacity="1.00" d=" M 53.59 125.97 C 54.45 125.19 55.31 124.41 56.17 123.62 C 58.71 123.31 61.55 123.18 63.41 125.30 C 64.06 125.81 64.71 126.34 65.37 126.87 C 63.29 131.44 65.88 136.93 63.77 141.50 C 62.13 144.82 57.85 144.73 54.91 143.40 C 54.37 142.34 53.87 141.27 53.33 140.20 L 53.13 139.49 C 53.28 134.98 52.98 130.46 53.59 125.97 M 58.31 135.89 C 57.69 137.40 57.90 139.08 57.76 140.67 C 58.25 140.70 59.21 140.76 59.69 140.79 C 59.64 138.45 59.58 136.11 59.32 133.79 C 59.59 132.70 59.77 131.60 59.86 130.48 C 57.43 131.28 58.41 134.00 58.31 135.89 Z" />
<path fill="#fc0001" opacity="1.00" d=" M 96.78 124.28 C 99.18 123.20 102.05 123.99 104.63 123.74 C 104.63 124.65 104.62 126.45 104.62 127.36 C 103.80 127.34 102.18 127.32 101.37 127.31 C 101.37 128.80 101.37 130.29 101.38 131.78 C 102.14 131.77 103.67 131.75 104.43 131.74 C 104.38 133.70 105.60 138.16 101.49 134.91 C 101.43 136.74 101.38 138.56 101.35 140.39 C 102.64 140.41 103.93 140.42 105.22 140.44 C 105.21 141.52 105.21 142.60 105.21 143.68 C 102.37 143.71 99.53 143.71 96.70 143.68 C 96.83 137.22 96.60 130.74 96.78 124.28 Z" />
<path fill="#fc0001" opacity="1.00" d=" M 107.51 123.76 C 108.44 123.76 110.30 123.76 111.23 123.76 C 112.33 126.35 112.03 129.94 114.69 131.55 C 114.79 128.87 114.74 126.19 114.75 123.50 C 116.42 123.82 118.05 124.34 119.66 124.89 C 118.62 131.15 119.91 137.52 118.72 143.74 C 117.41 143.73 116.10 143.72 114.79 143.70 C 113.99 140.69 113.39 137.54 111.67 134.88 C 111.13 137.78 111.27 140.75 111.33 143.68 C 110.37 143.70 108.47 143.74 107.51 143.75 C 107.50 137.09 107.50 130.43 107.51 123.76 Z" />
<path fill="#fc0001" opacity="1.00" d=" M 164.75 123.64 C 166.40 123.63 168.06 123.61 169.71 123.59 C 170.24 126.20 168.27 130.15 171.17 131.69 C 171.99 129.08 171.61 126.32 171.66 123.63 C 173.31 123.62 174.96 123.62 176.60 123.61 C 176.63 130.35 176.59 137.09 176.63 143.83 C 174.97 143.83 173.31 143.82 171.65 143.82 C 171.66 140.96 171.67 138.11 171.68 135.26 C 171.17 135.29 170.15 135.34 169.65 135.36 C 169.69 138.21 169.70 141.05 169.71 143.90 C 168.05 143.83 166.39 143.77 164.73 143.69 C 164.83 137.01 164.78 130.33 164.75 123.64 Z" />
<path fill="#fc0001" opacity="1.00" d=" M 178.69 140.32 C 179.91 140.33 181.14 140.33 182.36 140.34 C 182.33 141.66 182.29 142.98 182.26 144.30 C 181.03 144.10 179.81 143.89 178.59 143.69 C 178.62 142.57 178.66 141.45 178.69 140.32 Z" />
</g>
</svg>
