<?xml version="1.0" encoding="UTF-8" ?>
<!DOCTYPE svg PUBLIC "-//W3C//DTD SVG 1.1//EN" "http://www.w3.org/Graphics/SVG/1.1/DTD/svg11.dtd">
<svg width="210pt" height="220pt" viewBox="0 0 210 220" version="1.1" xmlns="http://www.w3.org/2000/svg">
<g id="#040404ff">
<path fill="#040404" opacity="1.00" d=" M 101.08 31.83 C 107.50 30.04 114.25 29.74 120.86 30.39 C 125.84 30.65 129.78 34.03 133.92 36.42 C 140.97 40.56 144.76 48.07 149.87 54.14 C 153.82 58.66 157.64 63.83 158.38 69.95 C 159.17 75.17 161.86 79.83 164.82 84.11 C 166.40 86.78 169.14 89.16 168.94 92.52 C 168.34 91.50 167.12 89.45 166.51 88.43 C 166.41 90.08 166.37 91.73 166.37 93.39 C 167.35 93.33 168.34 93.27 169.33 93.21 C 169.58 93.19 170.08 93.16 170.32 93.14 C 170.32 94.03 170.31 95.79 170.30 96.67 C 170.78 96.90 171.73 97.35 172.21 97.58 C 175.68 104.96 174.05 113.15 175.10 120.97 C 175.82 128.28 175.01 135.62 175.19 142.94 C 175.24 148.01 177.12 152.89 176.86 157.99 C 177.03 161.30 175.45 164.29 174.30 167.30 C 172.88 170.93 173.88 175.21 171.67 178.58 C 168.65 183.28 165.46 187.88 162.97 192.89 C 161.67 192.92 160.37 192.94 159.07 192.97 C 160.63 189.41 162.99 186.26 164.35 182.62 C 165.87 178.61 166.94 174.43 168.64 170.48 C 169.53 168.44 170.38 166.30 170.27 164.03 C 170.40 147.00 170.46 129.96 170.20 112.94 C 168.48 102.66 163.20 93.48 159.67 83.78 C 157.64 89.31 158.42 95.32 159.35 100.98 C 155.83 104.51 150.54 103.70 146.04 103.70 C 137.96 103.26 129.30 104.37 121.92 100.33 C 117.76 97.99 113.19 95.80 110.35 91.82 C 108.29 88.25 108.40 83.92 108.55 79.93 C 108.71 75.43 112.03 71.98 113.37 67.85 C 114.58 64.26 115.43 60.10 118.65 57.69 C 122.48 55.33 126.98 54.43 131.33 53.55 C 138.05 58.49 144.30 64.31 148.70 71.46 C 151.60 76.09 155.26 80.19 158.21 84.80 C 158.61 84.12 159.00 83.45 159.40 82.78 C 152.96 73.24 148.53 62.57 143.61 52.22 C 139.67 44.31 132.74 38.17 124.76 34.55 C 120.84 33.79 116.83 33.57 112.94 32.64 C 109.96 33.24 107.05 34.23 103.98 34.33 C 99.29 37.68 93.35 36.57 88.05 37.76 C 76.80 41.20 66.00 47.34 58.78 56.82 C 55.19 60.61 51.55 64.38 48.96 68.96 C 44.60 74.17 41.64 80.29 37.88 85.91 C 35.46 89.88 34.56 94.56 33.80 99.08 C 33.20 108.04 33.09 117.02 33.20 125.99 C 33.01 131.25 35.74 135.95 36.62 141.03 C 38.13 146.54 36.76 152.40 38.49 157.87 C 39.71 161.65 40.74 165.66 43.00 168.96 C 47.72 173.31 53.31 176.66 57.60 181.50 C 60.03 184.50 63.67 186.02 66.55 188.50 C 65.93 189.89 65.31 191.28 64.67 192.66 C 61.29 190.01 58.29 186.89 54.78 184.40 C 52.23 182.57 49.21 181.31 47.12 178.89 C 45.65 177.17 44.38 175.30 42.97 173.53 C 44.76 179.88 47.28 186.26 46.37 193.00 C 45.71 192.98 44.39 192.96 43.73 192.95 C 42.83 187.33 40.66 182.05 39.10 176.61 C 38.13 173.29 38.22 169.65 36.50 166.59 C 34.39 162.37 31.58 158.48 30.03 154.00 C 28.88 149.09 27.50 144.19 27.24 139.12 C 25.25 133.63 26.55 127.67 26.22 121.97 C 26.50 110.47 25.59 98.92 26.68 87.47 C 29.77 91.49 27.73 96.79 28.91 101.37 C 31.08 97.98 29.99 93.85 30.55 90.10 C 30.54 86.21 33.88 83.53 34.79 79.96 C 35.06 77.10 34.84 74.22 34.81 71.35 C 35.16 71.33 35.87 71.30 36.23 71.29 C 36.21 73.38 36.18 75.48 36.17 77.57 C 39.96 72.60 44.01 67.82 47.95 62.97 C 54.41 56.39 60.34 49.32 66.74 42.69 C 70.27 39.35 75.38 38.89 79.58 36.73 C 86.31 33.47 94.00 33.86 101.08 31.83 M 123.12 60.94 L 122.62 60.62 C 121.72 60.68 120.83 60.75 119.94 60.83 C 119.12 62.19 118.35 63.58 117.52 64.94 C 118.59 64.54 119.40 62.84 120.70 63.30 C 122.36 64.33 119.92 65.39 119.36 66.36 C 116.29 68.58 117.27 73.04 114.53 75.51 C 111.30 78.45 111.93 83.21 112.74 87.05 C 114.50 91.66 118.71 94.84 122.97 97.00 C 126.67 94.12 129.15 89.74 133.46 87.60 C 135.86 86.97 138.67 86.98 140.95 88.04 C 145.31 90.90 143.36 97.02 145.60 101.13 C 148.23 100.06 151.13 99.06 152.99 96.80 C 155.27 93.63 154.59 89.46 154.40 85.82 C 153.16 83.69 151.13 82.18 149.57 80.30 C 147.12 77.59 146.15 73.94 143.99 71.03 C 140.43 65.90 135.24 62.30 130.89 57.91 C 128.39 59.02 126.02 61.78 123.12 60.94 M 153.96 66.71 C 154.34 68.39 155.13 69.84 156.90 70.36 C 156.71 69.11 156.51 67.86 156.28 66.62 C 155.70 66.64 154.54 66.69 153.96 66.71 M 132.88 91.22 C 134.78 91.90 136.75 92.03 138.67 91.32 C 136.96 89.38 134.70 89.64 132.88 91.22 M 130.30 99.22 C 133.64 100.62 137.28 100.71 140.86 100.59 C 140.26 98.51 139.65 96.43 139.10 94.34 C 137.42 93.97 135.72 93.37 133.98 93.66 C 132.30 95.18 131.36 97.27 130.30 99.22 M 172.89 106.98 C 172.93 104.72 172.66 102.48 172.09 100.30 C 169.24 102.04 170.89 105.40 172.89 106.98 M 32.29 148.13 C 32.42 149.51 32.55 150.90 32.69 152.29 C 33.22 152.40 34.26 152.63 34.79 152.74 C 34.61 151.38 34.43 150.01 34.24 148.65 C 33.75 148.52 32.78 148.26 32.29 148.13 M 173.39 149.35 C 173.43 153.11 173.42 156.88 173.43 160.64 C 173.75 160.65 174.39 160.67 174.70 160.68 C 174.72 156.89 174.72 153.11 174.70 149.33 C 174.38 149.34 173.72 149.34 173.39 149.35 Z" />
<path fill="#040404" opacity="1.00" d=" M 52.17 81.33 C 56.04 77.35 61.83 76.82 66.91 75.43 C 69.15 74.95 71.56 73.82 73.83 74.83 C 76.97 76.24 79.82 78.29 83.19 79.18 C 83.26 80.80 83.35 82.42 83.46 84.04 C 85.48 85.43 87.53 86.79 89.39 88.40 C 88.90 93.76 88.30 99.12 87.42 104.42 C 82.51 108.54 76.15 111.82 74.45 118.55 C 68.40 120.73 61.94 120.28 55.63 120.23 C 53.72 117.96 51.73 115.76 49.63 113.66 C 49.86 107.16 45.72 101.24 46.96 94.73 C 47.68 89.99 48.85 84.96 52.17 81.33 M 58.79 81.65 C 54.99 83.37 51.78 86.75 51.06 90.96 C 49.34 99.78 52.14 108.97 57.09 116.31 C 60.54 113.11 58.12 107.68 61.43 104.48 C 62.25 103.52 63.13 102.62 64.00 101.71 C 67.06 101.73 70.13 101.53 73.18 101.85 C 75.37 102.69 76.68 104.78 78.25 106.40 C 80.44 104.70 83.79 103.64 84.28 100.53 C 84.72 97.87 85.40 94.71 83.62 92.38 C 82.16 90.35 80.99 88.14 79.97 85.86 C 78.80 82.63 75.19 81.66 72.42 80.25 C 68.01 78.12 62.96 79.70 58.79 81.65 M 65.93 107.96 C 65.38 110.81 65.81 113.74 65.91 116.61 C 68.87 113.73 70.49 109.62 74.55 107.91 C 73.43 106.73 72.31 105.54 71.19 104.36 C 69.46 105.54 66.81 105.85 65.93 107.96 Z" />
<path fill="#040404" opacity="1.00" d=" M 148.86 131.95 C 151.60 131.10 154.69 130.92 157.20 132.52 C 159.11 138.31 160.32 144.81 157.08 150.39 C 146.71 150.39 136.34 150.51 125.98 150.19 C 117.94 150.55 109.61 149.83 101.90 152.57 C 94.44 156.06 87.33 160.25 79.96 163.91 C 80.36 162.80 80.09 161.19 81.36 160.58 C 86.65 157.26 92.47 154.89 97.87 151.76 C 106.23 147.39 115.91 149.03 124.92 147.89 C 129.09 147.33 133.48 149.52 137.39 147.19 C 143.72 144.43 145.22 137.09 148.86 131.95 M 149.57 135.45 C 147.39 140.20 144.63 144.65 141.23 148.63 C 145.87 149.10 150.46 147.63 153.71 144.25 C 153.68 145.92 153.67 147.60 153.69 149.27 C 157.97 146.17 157.18 140.31 155.88 135.90 C 155.37 132.81 150.48 132.40 149.57 135.45 Z" />
</g>
<g id="#fefefeff">
<path fill="#fefefe" opacity="1.00" d=" M 103.98 34.33 C 107.05 34.23 109.96 33.24 112.94 32.64 C 116.83 33.57 120.84 33.79 124.76 34.55 C 132.74 38.17 139.67 44.31 143.61 52.22 C 148.53 62.57 152.96 73.24 159.40 82.78 C 159.00 83.45 158.61 84.12 158.21 84.80 C 155.26 80.19 151.60 76.09 148.70 71.46 C 144.30 64.31 138.05 58.49 131.33 53.55 C 126.98 54.43 122.48 55.33 118.65 57.69 C 115.43 60.10 114.58 64.26 113.37 67.85 C 112.03 71.98 108.71 75.43 108.55 79.93 C 108.40 83.92 108.29 88.25 110.35 91.82 C 113.19 95.80 117.76 97.99 121.92 100.33 C 129.30 104.37 137.96 103.26 146.04 103.70 C 150.54 103.70 155.83 104.51 159.35 100.98 C 158.42 95.32 157.64 89.31 159.67 83.78 C 163.20 93.48 168.48 102.66 170.20 112.94 C 170.46 129.96 170.40 147.00 170.27 164.03 C 170.38 166.30 169.53 168.44 168.64 170.48 C 166.94 174.43 165.87 178.61 164.35 182.62 C 162.99 186.26 160.63 189.41 159.07 192.97 C 121.50 192.96 83.94 192.89 46.37 193.00 C 47.28 186.26 44.76 179.88 42.97 173.53 C 44.38 175.30 45.65 177.17 47.12 178.89 C 49.21 181.31 52.23 182.57 54.78 184.40 C 58.29 186.89 61.29 190.01 64.67 192.66 C 65.31 191.28 65.93 189.89 66.55 188.50 C 63.67 186.02 60.03 184.50 57.60 181.50 C 53.31 176.66 47.72 173.31 43.00 168.96 C 40.74 165.66 39.71 161.65 38.49 157.87 C 36.76 152.40 38.13 146.54 36.62 141.03 C 35.74 135.95 33.01 131.25 33.20 125.99 C 33.09 117.02 33.20 108.04 33.80 99.08 C 34.56 94.56 35.46 89.88 37.88 85.91 C 41.64 80.29 44.60 74.17 48.96 68.96 C 51.55 64.38 55.19 60.61 58.78 56.82 C 66.00 47.34 76.80 41.20 88.05 37.76 C 93.35 36.57 99.29 37.68 103.98 34.33 M 52.17 81.33 C 48.85 84.96 47.68 89.99 46.96 94.73 C 45.72 101.24 49.86 107.16 49.63 113.66 C 51.73 115.76 53.72 117.96 55.63 120.23 C 61.94 120.28 68.40 120.73 74.45 118.55 C 76.15 111.82 82.51 108.54 87.42 104.42 C 88.30 99.12 88.90 93.76 89.39 88.40 C 87.53 86.79 85.48 85.43 83.46 84.04 C 83.35 82.42 83.26 80.80 83.19 79.18 C 79.82 78.29 76.97 76.24 73.83 74.83 C 71.56 73.82 69.15 74.95 66.91 75.43 C 61.83 76.82 56.04 77.35 52.17 81.33 M 148.86 131.95 C 145.22 137.09 143.72 144.43 137.39 147.19 C 133.48 149.52 129.09 147.33 124.92 147.89 C 115.91 149.03 106.23 147.39 97.87 151.76 C 92.47 154.89 86.65 157.26 81.36 160.58 C 80.09 161.19 80.36 162.80 79.96 163.91 C 87.33 160.25 94.44 156.06 101.90 152.57 C 109.61 149.83 117.94 150.55 125.98 150.19 C 136.34 150.51 146.71 150.39 157.08 150.39 C 160.32 144.81 159.11 138.31 157.20 132.52 C 154.69 130.92 151.60 131.10 148.86 131.95 Z" />
<path fill="#fefefe" opacity="1.00" d=" M 123.12 60.94 C 126.02 61.78 128.39 59.02 130.89 57.91 C 135.24 62.30 140.43 65.90 143.99 71.03 C 146.15 73.94 147.12 77.59 149.57 80.30 C 151.13 82.18 153.16 83.69 154.40 85.82 C 154.59 89.46 155.27 93.63 152.99 96.80 C 151.13 99.06 148.23 100.06 145.60 101.13 C 143.36 97.02 145.31 90.90 140.95 88.04 C 138.67 86.98 135.86 86.97 133.46 87.60 C 129.15 89.74 126.67 94.12 122.97 97.00 C 118.71 94.84 114.50 91.66 112.74 87.05 C 111.93 83.21 111.30 78.45 114.53 75.51 C 117.27 73.04 116.29 68.58 119.36 66.36 C 119.92 65.39 122.36 64.33 120.70 63.30 C 119.40 62.84 118.59 64.54 117.52 64.94 C 118.35 63.58 119.12 62.19 119.94 60.83 C 120.83 60.75 121.72 60.68 122.62 60.62 L 123.12 60.94 Z" />
<path fill="#fefefe" opacity="1.00" d=" M 153.96 66.71 C 154.54 66.69 155.70 66.64 156.28 66.62 C 156.51 67.86 156.71 69.11 156.90 70.36 C 155.13 69.84 154.34 68.39 153.96 66.71 Z" />
<path fill="#fefefe" opacity="1.00" d=" M 58.79 81.65 C 62.96 79.70 68.01 78.12 72.42 80.25 C 75.19 81.66 78.80 82.63 79.97 85.86 C 80.99 88.14 82.16 90.35 83.62 92.38 C 85.40 94.71 84.72 97.87 84.28 100.53 C 83.79 103.64 80.44 104.70 78.25 106.40 C 76.68 104.78 75.37 102.69 73.18 101.85 C 70.13 101.53 67.06 101.73 64.00 101.71 C 63.13 102.62 62.25 103.52 61.43 104.48 C 58.12 107.68 60.54 113.11 57.09 116.31 C 52.14 108.97 49.34 99.78 51.06 90.96 C 51.78 86.75 54.99 83.37 58.79 81.65 Z" />
<path fill="#fefefe" opacity="1.00" d=" M 132.88 91.22 C 134.70 89.64 136.96 89.38 138.67 91.32 C 136.75 92.03 134.78 91.90 132.88 91.22 Z" />
<path fill="#fefefe" opacity="1.00" d=" M 166.37 93.39 C 166.37 91.73 166.41 90.08 166.51 88.43 C 167.12 89.45 168.34 91.50 168.94 92.52 C 169.04 92.69 169.24 93.04 169.33 93.21 C 168.34 93.27 167.35 93.33 166.37 93.39 Z" />
<path fill="#fefefe" opacity="1.00" d=" M 130.30 99.22 C 131.36 97.27 132.30 95.18 133.98 93.66 C 135.72 93.37 137.42 93.97 139.10 94.34 C 139.65 96.43 140.26 98.51 140.86 100.59 C 137.28 100.71 133.64 100.62 130.30 99.22 Z" />
<path fill="#fefefe" opacity="1.00" d=" M 172.89 106.98 C 170.89 105.40 169.24 102.04 172.09 100.30 C 172.66 102.48 172.93 104.72 172.89 106.98 Z" />
<path fill="#fefefe" opacity="1.00" d=" M 65.93 107.96 C 66.81 105.85 69.46 105.54 71.19 104.36 C 72.31 105.54 73.43 106.73 74.55 107.91 C 70.49 109.62 68.87 113.73 65.91 116.61 C 65.81 113.74 65.38 110.81 65.93 107.96 Z" />
<path fill="#fefefe" opacity="1.00" d=" M 149.57 135.45 C 150.48 132.40 155.37 132.81 155.88 135.90 C 157.18 140.31 157.97 146.17 153.69 149.27 C 153.67 147.60 153.68 145.92 153.71 144.25 C 150.46 147.63 145.87 149.10 141.23 148.63 C 144.63 144.65 147.39 140.20 149.57 135.45 Z" />
<path fill="#fefefe" opacity="1.00" d=" M 32.29 148.13 C 32.78 148.26 33.75 148.52 34.24 148.65 C 34.43 150.01 34.61 151.38 34.79 152.74 C 34.26 152.63 33.22 152.40 32.69 152.29 C 32.55 150.90 32.42 149.51 32.29 148.13 Z" />
<path fill="#fefefe" opacity="1.00" d=" M 173.39 149.35 C 173.72 149.34 174.38 149.34 174.70 149.33 C 174.72 153.11 174.72 156.89 174.70 160.68 C 174.39 160.67 173.75 160.65 173.43 160.64 C 173.42 156.88 173.43 153.11 173.39 149.35 Z" />
</g>
</svg>
