<?xml version="1.0" encoding="UTF-8" ?>
<!DOCTYPE svg PUBLIC "-//W3C//DTD SVG 1.1//EN" "http://www.w3.org/Graphics/SVG/1.1/DTD/svg11.dtd">
<svg width="210pt" height="220pt" viewBox="0 0 210 220" version="1.1" xmlns="http://www.w3.org/2000/svg">
<g id="#060605fd">
<path fill="#060605" opacity="1.00" d=" M 97.93 38.00 C 105.03 36.75 112.09 35.23 119.16 33.78 C 123.40 33.10 127.83 33.37 131.80 35.08 C 134.81 36.48 138.14 36.34 141.36 36.10 C 140.57 37.10 139.75 38.08 139.00 39.11 C 142.22 41.87 145.92 44.05 148.95 47.04 C 152.82 50.56 155.63 55.02 159.03 58.96 C 162.05 62.37 164.70 66.24 166.25 70.55 C 167.13 75.29 167.83 80.29 170.76 84.30 C 175.82 91.20 179.85 98.88 182.32 107.09 C 183.31 111.67 182.49 116.41 183.17 121.03 C 184.16 129.33 183.44 137.66 183.49 145.98 C 183.36 152.30 186.12 158.43 185.02 164.77 C 184.39 168.66 181.79 171.76 180.24 175.28 C 177.83 180.69 176.29 186.51 173.20 191.61 C 172.70 191.73 171.69 191.97 171.19 192.09 C 173.96 182.98 176.29 173.52 181.46 165.40 C 183.44 162.53 183.95 158.83 182.77 155.54 C 179.33 146.55 182.56 136.77 180.87 127.50 C 180.03 123.31 179.05 119.14 178.53 114.89 C 179.58 115.48 180.63 116.08 181.69 116.68 C 181.55 107.98 178.84 99.30 173.61 92.35 C 173.10 100.43 180.69 106.50 179.51 114.58 C 174.84 107.73 173.59 99.29 170.41 91.76 C 168.97 88.40 168.46 84.64 166.39 81.56 C 163.48 77.04 159.23 73.26 157.78 67.91 C 156.35 62.91 154.59 57.91 151.25 53.83 C 150.69 52.16 150.37 50.26 148.84 49.15 C 143.74 44.70 138.24 40.68 132.34 37.34 C 127.89 35.00 122.73 36.02 117.95 36.28 C 111.15 36.57 104.67 38.82 97.98 39.82 C 95.86 40.07 93.91 40.93 92.19 42.18 C 97.42 42.24 102.78 41.23 107.85 43.02 C 113.45 45.04 119.34 42.48 125.03 43.68 C 128.93 44.50 133.02 45.19 136.35 47.53 C 133.19 47.82 130.03 47.41 126.87 47.52 C 125.21 48.34 124.28 50.06 123.07 51.39 C 122.40 50.12 121.73 48.86 121.04 47.61 C 115.68 46.70 110.41 45.32 105.05 44.42 C 98.37 43.89 91.62 44.18 84.94 44.73 C 79.52 45.13 75.51 49.27 72.21 53.18 C 68.50 57.80 63.43 61.47 61.30 67.20 C 58.86 68.77 56.98 70.99 55.32 73.34 C 52.43 77.31 47.91 79.94 45.63 84.38 C 43.80 87.66 44.57 91.53 43.97 95.09 C 43.54 98.57 41.38 101.51 40.90 104.98 C 40.40 108.64 41.36 112.30 41.40 115.96 C 41.48 124.69 43.39 133.35 42.61 142.10 C 42.24 143.26 42.79 145.65 41.03 145.79 C 39.75 145.49 38.92 144.33 37.92 143.57 C 41.09 150.49 39.38 158.82 43.96 165.27 C 44.51 164.96 45.08 164.67 45.64 164.39 C 45.67 165.69 45.61 166.99 45.59 168.30 C 46.44 168.17 48.14 167.91 48.99 167.78 C 49.17 169.10 49.31 170.42 49.42 171.75 C 52.57 174.70 54.81 178.37 57.05 182.01 C 62.09 186.24 68.96 187.53 74.07 191.73 C 73.36 191.75 71.96 191.79 71.25 191.82 C 66.58 189.53 61.65 187.64 57.35 184.67 C 53.41 182.26 52.73 176.99 48.66 174.69 C 48.99 180.73 50.70 186.54 52.96 192.11 C 51.70 191.84 50.72 191.08 50.38 189.81 C 48.17 184.77 46.86 179.36 46.43 173.88 C 46.32 170.37 42.09 169.28 40.75 166.37 C 38.99 162.51 38.88 158.19 38.47 154.04 C 37.98 148.96 36.63 144.02 35.67 139.02 C 34.68 134.32 37.10 129.75 36.39 125.04 C 34.88 116.41 35.40 107.60 35.59 98.89 C 36.14 98.73 37.24 98.40 37.79 98.24 C 37.04 107.84 37.55 117.48 38.14 127.07 C 38.04 131.99 37.51 136.89 37.62 141.82 C 38.11 141.99 39.10 142.32 39.60 142.48 C 42.03 133.74 39.54 124.84 39.52 116.00 C 39.39 111.69 38.81 107.34 39.50 103.05 C 40.21 99.78 41.59 96.71 42.72 93.58 C 42.26 93.37 41.35 92.94 40.89 92.72 C 40.68 93.62 40.24 95.42 40.03 96.32 C 37.57 90.50 44.36 86.33 43.58 80.55 C 45.95 81.18 47.13 78.95 48.39 77.44 C 51.01 73.86 53.46 70.17 56.00 66.53 C 52.37 66.59 48.76 66.90 45.17 67.38 C 45.21 66.76 45.28 65.52 45.32 64.90 C 45.97 64.95 47.28 65.05 47.93 65.10 C 50.41 65.09 52.89 65.12 55.37 65.23 C 55.33 64.69 55.24 63.62 55.20 63.08 C 56.75 63.20 58.32 63.50 59.89 63.33 C 65.47 58.07 69.97 51.77 75.43 46.39 C 79.20 42.71 84.80 42.63 89.55 41.10 C 92.34 40.06 94.94 38.43 97.93 38.00 M 161.41 68.96 C 161.46 71.53 162.46 74.23 164.94 75.35 C 165.02 72.62 163.95 70.14 161.41 68.96 Z" />
<path fill="#060605" opacity="1.00" d=" M 120.49 61.55 C 119.45 57.29 123.46 54.76 126.95 53.69 C 130.78 52.69 134.76 52.03 138.73 52.41 C 138.13 56.61 133.65 56.29 130.47 56.81 C 126.90 57.85 124.26 60.92 120.49 61.55 Z" />
<path fill="#060605" opacity="1.00" d=" M 130.03 62.75 C 130.13 60.96 131.00 59.13 133.03 59.28 C 137.00 59.21 141.54 58.46 144.95 61.03 C 148.36 63.62 150.37 67.55 153.44 70.48 C 156.82 73.57 158.89 77.73 161.53 81.42 C 163.73 86.34 166.62 91.64 165.42 97.22 C 163.72 102.81 158.75 107.31 153.00 108.40 C 145.61 109.12 137.95 108.20 131.26 104.83 C 128.08 103.17 124.73 101.31 122.84 98.13 C 120.91 94.93 118.09 92.32 116.36 89.00 C 115.39 82.13 118.66 75.28 123.69 70.73 C 127.17 67.59 130.54 64.29 134.40 61.61 C 132.98 62.13 131.52 62.51 130.03 62.75 M 129.08 69.04 C 124.35 73.70 119.24 78.99 118.63 85.97 C 119.10 89.82 122.27 92.54 124.25 95.67 C 130.17 104.10 141.34 106.56 151.07 105.77 C 156.01 106.14 159.70 102.02 162.29 98.36 C 164.49 91.38 160.08 84.93 156.87 79.09 C 154.70 80.15 152.65 81.55 150.26 82.09 C 146.96 81.85 143.77 80.83 140.53 80.18 C 140.33 76.94 140.27 73.70 140.28 70.46 C 140.89 70.44 142.10 70.40 142.71 70.38 C 142.71 72.98 142.82 75.60 143.33 78.17 C 145.26 78.53 147.17 79.08 149.14 79.25 C 151.41 78.52 153.63 77.61 155.97 77.11 C 153.00 74.03 149.78 71.18 147.22 67.73 C 145.49 65.54 143.75 63.12 141.12 61.97 C 137.04 64.20 132.25 65.44 129.08 69.04 Z" />
<path fill="#060605" opacity="1.00" d=" M 55.30 77.87 C 61.30 74.32 67.53 70.27 74.76 70.23 C 74.71 71.35 74.66 72.46 74.60 73.58 C 70.04 75.02 65.48 76.64 61.45 79.29 C 59.60 80.57 57.46 81.31 55.26 81.73 C 55.26 80.44 55.28 79.15 55.30 77.87 Z" />
<path fill="#060605" opacity="1.00" d=" M 70.70 81.89 C 75.84 80.98 81.04 82.14 86.04 83.31 C 88.52 83.63 89.79 86.03 91.50 87.56 C 93.20 89.48 96.03 90.22 97.41 92.40 C 98.21 97.64 96.92 103.31 93.56 107.47 C 89.30 113.13 84.83 118.69 79.46 123.33 C 76.39 125.19 72.48 123.96 69.06 124.30 C 64.15 124.89 61.02 120.43 57.75 117.56 C 57.54 113.62 57.74 109.49 56.08 105.80 C 54.43 102.24 55.13 98.19 56.33 94.60 C 57.20 92.25 57.77 89.48 59.99 87.98 C 63.25 85.48 66.78 83.20 70.70 81.89 M 57.76 94.47 C 60.88 94.43 64.00 94.44 67.12 94.58 C 67.59 96.68 69.04 98.82 68.32 101.00 C 66.32 104.47 62.18 105.69 58.44 106.04 C 58.80 110.70 58.92 116.02 62.58 119.48 C 66.61 123.42 72.92 122.40 78.01 121.90 C 83.04 117.62 87.17 112.36 91.22 107.16 C 93.93 103.79 95.66 99.75 96.33 95.48 C 94.43 95.69 92.53 95.70 90.62 95.65 C 89.36 91.55 87.80 87.09 83.52 85.26 C 74.21 79.79 62.78 86.07 57.76 94.47 M 90.74 91.05 C 91.39 92.70 92.66 93.93 94.03 95.02 C 94.64 94.25 95.26 93.48 95.88 92.71 C 94.34 91.67 92.56 91.21 90.74 91.05 M 58.11 95.36 C 57.35 98.15 56.63 100.97 56.36 103.87 C 60.65 104.12 67.66 102.68 66.36 96.88 C 63.60 96.44 60.86 95.86 58.11 95.36 Z" />
<path fill="#060605" opacity="1.00" d=" M 79.18 137.20 C 81.71 135.82 83.63 133.62 86.00 132.02 C 88.34 131.17 90.94 131.72 93.39 131.60 C 95.77 133.90 98.87 135.69 100.26 138.83 C 102.29 142.95 104.88 146.75 107.52 150.50 C 110.75 150.52 113.98 150.55 117.22 150.58 C 117.25 151.55 117.30 152.52 117.34 153.49 C 115.21 153.61 113.08 153.71 110.96 153.82 C 108.38 156.30 105.04 157.57 101.76 158.83 C 96.95 162.39 91.27 164.66 86.81 168.71 C 83.45 171.47 80.20 175.66 75.28 174.56 C 75.97 171.32 78.76 169.61 81.34 167.98 C 77.98 165.20 74.31 162.74 71.34 159.53 C 69.12 155.04 68.24 149.43 70.65 144.81 C 71.65 140.67 75.99 139.25 79.18 137.20 M 82.03 140.97 C 84.07 144.27 87.66 147.12 86.79 151.46 C 82.52 150.15 80.51 146.09 78.98 142.28 C 74.19 143.91 71.35 149.71 73.57 154.38 C 75.89 158.61 79.94 161.49 83.20 164.95 C 90.55 162.21 96.05 155.98 103.77 153.95 C 102.04 149.66 99.40 145.85 97.08 141.88 C 95.41 139.36 93.52 136.67 90.72 135.37 C 86.96 134.73 83.96 138.17 82.03 140.97 Z" />
<path fill="#060605" opacity="1.00" d=" M 41.11 150.88 C 40.48 150.06 40.23 147.24 41.66 147.23 C 44.60 152.72 46.89 158.75 46.98 165.05 C 46.25 164.23 44.78 162.59 44.04 161.77 L 44.93 161.67 C 43.94 157.98 42.61 154.39 41.11 150.88 Z" />
</g>
<g id="#fefefeff">
<path fill="#fefefe" opacity="1.00" d=" M 97.98 39.82 C 104.67 38.82 111.15 36.57 117.95 36.28 C 122.73 36.02 127.89 35.00 132.34 37.34 C 138.24 40.68 143.74 44.70 148.84 49.15 C 150.37 50.26 150.69 52.16 151.25 53.83 C 154.59 57.91 156.35 62.91 157.78 67.91 C 159.23 73.26 163.48 77.04 166.39 81.56 C 168.46 84.64 168.97 88.40 170.41 91.76 C 173.59 99.29 174.84 107.73 179.51 114.58 C 180.69 106.50 173.10 100.43 173.61 92.35 C 178.84 99.30 181.55 107.98 181.69 116.68 C 180.63 116.08 179.58 115.48 178.53 114.89 C 179.05 119.14 180.03 123.31 180.87 127.50 C 182.56 136.77 179.33 146.55 182.77 155.54 C 183.95 158.83 183.44 162.53 181.46 165.40 C 176.29 173.52 173.96 182.98 171.19 192.09 C 138.92 191.76 106.64 192.06 74.37 191.94 C 74.30 191.89 74.15 191.78 74.07 191.73 C 68.96 187.53 62.09 186.24 57.05 182.01 C 54.81 178.37 52.57 174.70 49.42 171.75 C 49.31 170.42 49.17 169.10 48.99 167.78 C 48.14 167.91 46.44 168.17 45.59 168.30 C 45.61 166.99 45.67 165.69 45.64 164.39 C 45.08 164.67 44.51 164.96 43.96 165.27 C 39.38 158.82 41.09 150.49 37.92 143.57 C 38.92 144.33 39.75 145.49 41.03 145.79 C 42.79 145.65 42.24 143.26 42.61 142.10 C 43.39 133.35 41.48 124.69 41.40 115.96 C 41.36 112.30 40.40 108.64 40.90 104.98 C 41.38 101.51 43.54 98.57 43.97 95.09 C 44.57 91.53 43.80 87.66 45.63 84.38 C 47.91 79.94 52.43 77.31 55.32 73.34 C 56.98 70.99 58.86 68.77 61.30 67.20 C 63.43 61.47 68.50 57.80 72.21 53.18 C 75.51 49.27 79.52 45.13 84.94 44.73 C 91.62 44.18 98.37 43.89 105.05 44.42 C 110.41 45.32 115.68 46.70 121.04 47.61 C 121.73 48.86 122.40 50.12 123.07 51.39 C 124.28 50.06 125.21 48.34 126.87 47.52 C 130.03 47.41 133.19 47.82 136.35 47.53 C 133.02 45.19 128.93 44.50 125.03 43.68 C 119.34 42.48 113.45 45.04 107.85 43.02 C 102.78 41.23 97.42 42.24 92.19 42.18 C 93.91 40.93 95.86 40.07 97.98 39.82 M 120.49 61.55 C 124.26 60.92 126.90 57.85 130.47 56.81 C 133.65 56.29 138.13 56.61 138.73 52.41 C 134.76 52.03 130.78 52.69 126.95 53.69 C 123.46 54.76 119.45 57.29 120.49 61.55 M 130.03 62.75 C 131.52 62.51 132.98 62.13 134.40 61.61 C 130.54 64.29 127.17 67.59 123.69 70.73 C 118.66 75.28 115.39 82.13 116.36 89.00 C 118.09 92.32 120.91 94.93 122.84 98.13 C 124.73 101.31 128.08 103.17 131.26 104.83 C 137.95 108.20 145.61 109.12 153.00 108.40 C 158.75 107.31 163.72 102.81 165.42 97.22 C 166.62 91.64 163.73 86.34 161.53 81.42 C 158.89 77.73 156.82 73.57 153.44 70.48 C 150.37 67.55 148.36 63.62 144.95 61.03 C 141.54 58.46 137.00 59.21 133.03 59.28 C 131.00 59.13 130.13 60.96 130.03 62.75 M 55.30 77.87 C 55.28 79.15 55.26 80.44 55.26 81.73 C 57.46 81.31 59.60 80.57 61.45 79.29 C 65.48 76.64 70.04 75.02 74.60 73.58 C 74.66 72.46 74.71 71.35 74.76 70.23 C 67.53 70.27 61.30 74.32 55.30 77.87 M 70.70 81.89 C 66.78 83.20 63.25 85.48 59.99 87.98 C 57.77 89.48 57.20 92.25 56.33 94.60 C 55.13 98.19 54.43 102.24 56.08 105.80 C 57.74 109.49 57.54 113.62 57.75 117.56 C 61.02 120.43 64.15 124.89 69.06 124.30 C 72.48 123.96 76.39 125.19 79.46 123.33 C 84.83 118.69 89.30 113.13 93.56 107.47 C 96.92 103.31 98.21 97.64 97.41 92.40 C 96.03 90.22 93.20 89.48 91.50 87.56 C 89.79 86.03 88.52 83.63 86.04 83.31 C 81.04 82.14 75.84 80.98 70.70 81.89 M 79.18 137.20 C 75.99 139.25 71.65 140.67 70.65 144.81 C 68.24 149.43 69.12 155.04 71.34 159.53 C 74.31 162.74 77.98 165.20 81.34 167.98 C 78.76 169.61 75.97 171.32 75.28 174.56 C 80.20 175.66 83.45 171.47 86.81 168.71 C 91.27 164.66 96.95 162.39 101.76 158.83 C 105.04 157.57 108.38 156.30 110.96 153.82 C 113.08 153.71 115.21 153.61 117.34 153.49 C 117.30 152.52 117.25 151.55 117.22 150.58 C 113.98 150.55 110.75 150.52 107.52 150.50 C 104.88 146.75 102.29 142.95 100.26 138.83 C 98.87 135.69 95.77 133.90 93.39 131.60 C 90.94 131.72 88.34 131.17 86.00 132.02 C 83.63 133.62 81.71 135.82 79.18 137.20 M 41.11 150.88 C 42.61 154.39 43.94 157.98 44.93 161.67 L 44.04 161.77 C 44.78 162.59 46.25 164.23 46.98 165.05 C 46.89 158.75 44.60 152.72 41.66 147.23 C 40.23 147.24 40.48 150.06 41.11 150.88 Z" />
<path fill="#fefefe" opacity="1.00" d=" M 129.08 69.04 C 132.25 65.44 137.04 64.20 141.12 61.97 C 143.75 63.12 145.49 65.54 147.22 67.73 C 149.78 71.18 153.00 74.03 155.97 77.11 C 153.63 77.61 151.41 78.52 149.14 79.25 C 147.17 79.08 145.26 78.53 143.33 78.17 C 142.82 75.60 142.71 72.98 142.71 70.38 C 142.10 70.40 140.89 70.44 140.28 70.46 C 140.27 73.70 140.33 76.94 140.53 80.18 C 143.77 80.83 146.96 81.85 150.26 82.09 C 152.65 81.55 154.70 80.15 156.87 79.09 C 160.08 84.93 164.49 91.38 162.29 98.36 C 159.70 102.02 156.01 106.14 151.07 105.77 C 141.34 106.56 130.17 104.10 124.25 95.67 C 122.27 92.54 119.10 89.82 118.63 85.97 C 119.24 78.99 124.35 73.70 129.08 69.04 Z" />
<path fill="#fefefe" opacity="1.00" d=" M 161.41 68.96 C 163.95 70.14 165.02 72.62 164.94 75.35 C 162.46 74.23 161.46 71.53 161.41 68.96 Z" />
<path fill="#fefefe" opacity="1.00" d=" M 57.76 94.47 C 62.78 86.07 74.21 79.79 83.52 85.26 C 87.80 87.09 89.36 91.55 90.62 95.65 C 92.53 95.70 94.43 95.69 96.33 95.48 C 95.66 99.75 93.93 103.79 91.22 107.16 C 87.17 112.36 83.04 117.62 78.01 121.90 C 72.92 122.40 66.61 123.42 62.58 119.48 C 58.92 116.02 58.80 110.70 58.44 106.04 C 62.18 105.69 66.32 104.47 68.32 101.00 C 69.04 98.82 67.59 96.68 67.12 94.58 C 64.00 94.44 60.88 94.43 57.76 94.47 Z" />
<path fill="#fefefe" opacity="1.00" d=" M 90.74 91.05 C 92.56 91.21 94.34 91.67 95.88 92.71 C 95.26 93.48 94.64 94.25 94.03 95.02 C 92.66 93.93 91.39 92.70 90.74 91.05 Z" />
<path fill="#fefefe" opacity="1.00" d=" M 58.11 95.36 C 60.86 95.86 63.60 96.44 66.36 96.88 C 67.66 102.68 60.65 104.12 56.36 103.87 C 56.63 100.97 57.35 98.15 58.11 95.36 Z" />
<path fill="#fefefe" opacity="1.00" d=" M 48.66 174.69 C 52.73 176.99 53.41 182.26 57.35 184.67 C 61.65 187.64 66.58 189.53 71.25 191.82 C 65.16 192.18 59.05 191.71 52.96 192.11 C 50.70 186.54 48.99 180.73 48.66 174.69 Z" />
</g>
<g id="#f30404ff">
<path fill="#f30404" opacity="1.00" d=" M 82.03 140.97 C 83.96 138.17 86.96 134.73 90.72 135.37 C 93.52 136.67 95.41 139.36 97.08 141.88 C 99.40 145.85 102.04 149.66 103.77 153.95 C 96.05 155.98 90.55 162.21 83.20 164.95 C 79.94 161.49 75.89 158.61 73.57 154.38 C 71.35 149.71 74.19 143.91 78.98 142.28 C 80.51 146.09 82.52 150.15 86.79 151.46 C 87.66 147.12 84.07 144.27 82.03 140.97 Z" />
</g>
</svg>
