<?xml version="1.0" encoding="UTF-8" ?>
<!DOCTYPE svg PUBLIC "-//W3C//DTD SVG 1.1//EN" "http://www.w3.org/Graphics/SVG/1.1/DTD/svg11.dtd">
<svg width="210pt" height="220pt" viewBox="0 0 210 220" version="1.1" xmlns="http://www.w3.org/2000/svg">
<g id="#595959fe">
<path fill="#595959" opacity="1.00" d=" M 133.32 19.89 C 136.52 19.09 139.46 17.53 142.04 15.50 C 149.08 14.76 156.01 15.81 162.96 16.67 C 169.66 18.29 175.09 23.00 182.03 23.82 C 185.15 26.41 188.93 28.31 191.29 31.71 C 193.87 35.38 197.12 38.54 199.45 42.39 C 202.09 46.59 205.97 50.39 206.45 55.58 C 207.01 60.01 208.62 64.40 207.92 68.90 C 207.16 77.11 208.76 85.57 206.38 93.58 C 205.70 96.15 207.04 98.64 207.18 101.18 C 206.66 102.62 205.84 103.91 205.08 105.22 C 202.80 105.84 200.30 106.07 198.33 107.47 C 196.66 108.32 197.37 110.36 197.18 111.84 C 192.64 118.26 191.36 126.13 190.45 133.76 C 187.20 133.62 184.07 132.75 181.02 131.66 C 180.41 131.93 179.20 132.46 178.59 132.73 C 178.46 131.60 178.19 129.32 178.05 128.19 C 175.81 131.89 176.89 136.57 174.51 140.30 C 173.78 140.46 172.32 140.78 171.58 140.94 C 172.64 141.61 173.71 142.27 174.78 142.93 C 174.71 143.63 174.65 144.34 174.60 145.04 C 171.50 146.77 168.58 148.91 165.12 149.88 C 163.47 153.12 162.23 156.84 159.13 159.03 C 157.30 160.70 154.79 161.07 152.47 161.58 C 152.43 162.08 152.34 163.10 152.30 163.61 C 149.85 165.14 147.74 167.11 145.59 169.02 C 145.52 169.88 145.45 170.73 145.38 171.59 C 149.20 174.43 153.30 176.87 157.34 179.38 C 162.29 183.43 164.86 189.48 168.06 194.84 C 171.11 198.07 173.98 201.55 175.24 205.91 C 117.50 206.02 59.75 206.05 2.02 205.89 C 2.30 203.36 2.27 200.80 2.82 198.30 C 4.54 191.47 2.46 184.20 4.81 177.46 C 6.08 174.04 6.83 170.23 9.38 167.47 C 15.10 161.05 18.92 152.91 25.91 147.66 C 29.55 141.15 35.99 136.77 42.89 134.32 C 47.12 132.86 51.74 134.30 55.99 132.90 C 61.35 130.26 66.56 127.30 72.00 124.81 C 77.10 125.12 79.59 119.81 83.85 117.92 C 87.61 113.73 88.79 108.01 92.55 103.89 C 92.64 102.60 92.72 101.30 92.81 100.00 C 94.91 96.07 94.54 91.51 95.86 87.35 C 97.12 83.33 97.84 79.17 98.85 75.09 C 100.08 70.03 98.50 64.70 99.81 59.68 C 102.58 54.43 106.14 49.64 109.09 44.48 C 111.78 39.55 116.36 36.12 119.69 31.67 C 124.13 27.64 128.76 23.79 133.32 19.89 Z" />
</g>
</svg>
