<?xml version="1.0" encoding="UTF-8" ?>
<!DOCTYPE svg PUBLIC "-//W3C//DTD SVG 1.1//EN" "http://www.w3.org/Graphics/SVG/1.1/DTD/svg11.dtd">
<svg width="320pt" height="240pt" viewBox="0 0 320 240" version="1.1" xmlns="http://www.w3.org/2000/svg">
<g id="#000000fe">
<path fill="#000000" opacity="1.00" d=" M 121.12 5.37 C 122.89 4.30 125.05 4.42 127.05 4.36 C 136.36 4.45 145.68 4.42 155.00 4.37 C 158.84 4.12 162.53 5.45 165.81 7.36 C 175.63 12.82 181.54 22.94 184.99 33.31 C 186.11 33.44 187.23 33.55 188.36 33.67 C 189.83 35.58 191.77 37.39 192.05 39.91 C 192.68 44.07 194.05 48.03 195.29 52.02 C 194.17 54.88 192.37 57.41 191.07 60.19 C 196.63 64.88 200.25 71.42 202.08 78.41 C 203.25 86.88 207.63 94.48 212.09 101.63 C 213.49 104.49 214.89 107.48 217.73 109.19 C 216.38 114.64 220.99 118.74 222.38 123.64 C 223.41 128.98 222.17 134.47 223.03 139.83 C 224.18 146.16 223.16 152.63 224.31 158.96 C 224.56 164.69 225.86 170.90 223.51 176.34 C 223.37 179.50 223.48 182.66 223.62 185.82 C 224.97 185.58 226.33 185.35 227.69 185.12 C 227.59 189.04 228.08 193.14 226.59 196.88 C 225.25 200.37 224.32 204.00 223.18 207.56 C 221.29 213.38 216.98 218.01 215.09 223.84 C 213.23 229.44 211.50 235.24 207.80 239.96 C 207.84 238.65 207.90 237.34 207.97 236.03 C 212.30 227.74 213.49 218.27 217.80 210.00 C 218.57 206.10 220.08 202.41 223.25 199.83 C 224.25 190.77 220.48 182.09 221.27 173.02 C 218.66 166.66 220.25 159.71 219.83 153.05 C 219.45 147.34 219.68 141.43 217.54 136.01 C 215.75 131.44 215.57 126.35 213.34 121.95 C 211.46 118.74 210.94 114.99 209.43 111.61 C 207.20 111.67 204.96 111.61 202.74 111.84 C 200.23 113.72 199.01 116.81 197.38 119.42 C 193.57 121.70 189.67 124.60 184.98 124.36 C 175.89 124.32 166.57 124.88 157.76 122.20 C 153.37 120.90 150.03 117.58 147.06 114.26 L 146.14 113.08 C 143.60 109.22 140.54 105.75 137.51 102.28 C 137.50 98.19 137.45 94.09 137.67 90.01 C 138.06 88.94 138.44 87.87 138.82 86.81 C 140.42 83.55 142.31 80.32 145.27 78.10 C 145.69 77.73 146.52 76.97 146.94 76.59 C 145.80 73.59 143.62 71.17 141.68 68.67 C 140.83 67.55 139.95 66.44 139.07 65.33 C 138.85 64.26 138.59 63.19 138.29 62.14 C 136.92 62.48 135.56 62.82 134.20 63.16 C 134.35 64.89 134.49 66.62 134.64 68.35 C 136.53 68.72 138.42 69.11 140.31 69.51 C 139.44 71.01 138.57 72.50 137.73 74.01 C 136.41 76.35 135.18 78.75 133.91 81.12 C 133.23 84.39 132.79 87.71 132.60 91.05 C 132.81 93.40 130.81 94.90 129.52 96.56 C 127.51 96.61 125.50 96.66 123.49 96.67 C 123.46 96.17 123.40 95.16 123.37 94.65 C 124.51 94.17 125.64 93.69 126.78 93.21 C 126.39 90.40 124.75 88.24 122.38 86.78 C 121.43 79.45 123.04 72.13 126.38 65.60 C 122.98 66.99 119.65 68.84 115.87 68.87 C 114.98 69.29 114.08 69.69 113.19 70.09 C 111.11 70.67 109.08 71.39 107.09 72.19 C 103.84 73.43 100.65 74.83 97.42 76.11 C 97.40 77.57 97.39 79.02 97.40 80.48 C 94.87 81.34 92.29 82.01 89.72 82.72 C 91.67 84.71 93.56 86.77 95.52 88.75 C 95.21 89.38 94.58 90.63 94.27 91.26 C 91.35 88.42 88.65 85.39 86.08 82.25 C 79.84 86.88 73.28 91.15 66.23 94.44 C 58.24 100.34 52.24 109.18 42.69 112.87 C 42.06 115.22 41.53 117.68 40.12 119.72 C 38.74 121.25 36.59 122.60 36.77 124.96 C 36.57 131.31 38.32 137.61 37.47 143.98 C 37.09 151.40 35.02 159.35 38.43 166.36 C 40.49 171.48 40.52 177.12 42.48 182.27 C 43.91 186.94 45.48 191.55 47.51 195.99 C 49.49 200.11 48.51 204.73 48.86 209.10 C 50.87 212.59 55.01 214.30 56.97 217.89 C 58.49 220.13 59.24 223.06 61.67 224.55 C 66.71 227.84 72.24 230.32 77.13 233.84 C 77.12 232.63 77.12 231.42 77.11 230.21 L 78.66 231.21 C 78.28 231.91 77.89 232.60 77.48 233.29 C 79.53 234.54 81.60 235.79 83.45 237.35 C 83.54 237.83 83.71 238.80 83.80 239.28 L 83.92 240.00 L 83.40 240.00 L 81.59 239.37 C 74.27 234.43 66.59 229.96 58.69 226.06 C 57.62 224.42 56.73 222.67 56.08 220.83 C 54.47 217.93 52.22 215.46 49.42 213.67 C 49.35 216.79 49.53 219.91 49.71 223.02 C 50.32 226.98 51.20 231.03 54.14 233.97 C 55.20 235.84 56.03 237.84 56.47 239.95 C 53.43 237.46 51.02 234.24 49.20 230.78 C 46.94 225.48 47.44 219.59 47.31 213.97 C 47.47 210.40 44.85 207.64 43.17 204.74 C 37.85 196.83 33.14 187.76 33.39 177.98 C 33.61 174.53 32.08 171.38 31.12 168.16 C 30.21 165.17 31.28 162.07 31.46 159.05 C 31.93 154.67 31.05 150.32 30.76 145.97 C 30.57 138.40 30.46 130.78 31.80 123.30 C 30.15 123.37 28.50 123.44 26.85 123.50 C 28.31 123.30 29.78 123.11 31.24 122.92 C 27.80 122.52 22.81 122.77 21.50 118.74 C 19.82 112.92 17.60 107.10 17.41 100.99 C 17.06 98.09 19.18 95.92 20.83 93.83 C 24.22 88.10 25.91 81.61 28.88 75.68 C 32.07 66.26 37.30 57.75 42.13 49.11 C 48.47 41.23 55.46 33.71 63.78 27.88 C 70.59 21.34 78.17 15.32 87.04 11.84 C 92.68 9.62 98.21 6.98 104.10 5.49 C 109.44 4.86 114.94 4.82 120.21 5.95 C 120.18 6.23 120.12 6.80 120.08 7.08 C 113.90 7.89 107.38 6.28 101.47 8.76 C 95.64 11.12 89.73 13.29 84.02 15.93 C 76.42 19.55 70.34 25.48 63.93 30.80 C 58.03 34.85 53.46 40.40 48.45 45.42 C 43.60 50.19 41.08 56.64 37.62 62.37 C 32.42 71.74 29.25 82.04 24.85 91.77 C 23.11 96.01 18.28 99.66 20.17 104.66 C 21.51 109.56 22.43 114.70 24.80 119.22 C 26.60 120.61 28.25 118.52 29.59 117.51 C 35.91 111.74 44.85 110.04 51.10 104.14 C 56.83 99.54 61.28 93.11 68.24 90.22 C 72.03 88.57 75.41 86.16 78.75 83.76 C 84.30 79.69 90.73 77.14 96.62 73.66 C 106.80 67.84 118.64 66.26 129.14 61.19 C 135.28 58.08 142.42 60.14 148.88 58.19 C 161.74 54.62 175.13 54.32 188.34 53.28 C 188.53 55.07 188.01 57.10 189.07 58.70 C 190.94 56.92 191.62 54.33 192.65 52.04 C 191.17 48.12 190.26 44.04 189.44 39.95 C 188.98 36.06 183.46 36.29 182.26 32.73 C 178.34 23.55 173.45 13.70 164.00 9.14 C 158.00 5.29 150.67 6.80 143.96 6.57 C 136.25 6.32 128.47 7.25 120.84 5.81 L 121.12 5.37 M 144.21 61.78 C 144.70 63.10 145.44 64.25 146.46 65.22 C 146.68 65.40 147.13 65.76 147.35 65.94 L 147.59 66.10 C 147.90 66.44 148.53 67.13 148.85 67.47 L 149.23 67.56 C 150.31 69.08 151.42 70.64 153.40 70.93 C 153.50 70.55 153.70 69.78 153.80 69.39 C 156.61 68.47 156.04 65.59 156.07 63.24 C 159.69 62.39 163.34 61.68 167.04 61.38 L 163.90 59.92 C 166.14 60.68 168.44 61.30 170.71 62.00 C 170.95 62.35 171.44 63.05 171.69 63.40 C 173.44 66.15 176.40 67.49 179.30 68.69 C 180.47 70.87 181.54 73.11 182.67 75.31 C 184.25 77.13 185.99 78.81 187.75 80.46 L 188.15 80.54 C 188.48 80.87 189.13 81.53 189.46 81.86 L 189.61 82.21 C 189.92 82.73 190.54 83.78 190.86 84.30 L 191.54 84.49 L 191.37 85.58 L 192.48 85.72 C 192.46 86.16 192.42 87.04 192.40 87.48 L 193.15 87.63 C 193.44 88.56 193.78 89.46 194.16 90.35 C 194.03 94.83 198.64 96.97 200.43 100.59 C 201.34 103.17 200.36 106.14 201.40 108.65 C 204.07 109.57 207.52 109.95 209.58 107.59 C 210.90 108.32 212.34 108.72 213.86 108.67 C 212.55 106.30 212.45 101.24 208.54 102.31 C 208.59 103.42 208.68 105.63 208.73 106.74 C 206.24 99.86 205.17 91.31 198.70 86.88 C 196.47 84.15 194.57 81.19 192.83 78.13 C 192.73 77.96 192.52 77.62 192.42 77.44 C 190.42 70.20 188.37 62.92 184.82 56.25 C 171.11 55.78 157.33 57.74 144.21 61.78 M 131.22 64.47 C 131.20 67.29 132.42 70.37 130.76 72.95 C 130.65 73.37 130.42 74.20 130.31 74.62 C 130.88 75.35 131.46 76.08 132.04 76.81 C 132.78 74.67 133.47 72.51 133.70 70.25 L 131.99 70.80 C 132.42 68.55 133.10 66.36 133.85 64.19 C 133.19 64.26 131.88 64.40 131.22 64.47 M 192.07 68.42 C 192.29 70.42 192.90 72.33 193.72 74.16 C 196.06 77.46 197.03 81.98 200.68 84.16 C 200.85 78.26 196.73 73.64 194.07 68.74 C 193.57 68.66 192.57 68.50 192.07 68.42 M 126.86 71.13 C 126.14 74.19 124.99 77.21 125.31 80.41 C 126.81 78.38 127.73 76.00 127.76 73.45 L 128.55 73.58 C 128.53 71.69 128.52 69.80 128.45 67.91 C 128.05 68.72 127.25 70.33 126.86 71.13 M 130.09 74.69 C 129.91 75.94 129.54 78.44 129.35 79.69 L 128.88 79.58 C 127.80 81.10 126.62 82.56 125.37 83.95 C 125.36 84.70 125.35 85.46 125.35 86.21 C 126.75 86.81 128.14 87.43 129.55 87.97 C 129.68 85.81 129.69 83.64 129.64 81.47 L 130.57 81.49 C 130.45 79.22 130.34 76.95 130.09 74.69 M 212.56 111.83 C 212.69 112.10 212.97 112.64 213.10 112.91 C 213.47 114.28 213.58 115.70 213.95 117.07 C 214.81 119.44 215.83 121.75 216.80 124.08 C 217.31 125.67 217.65 127.32 218.05 128.94 C 218.31 130.47 218.52 132.01 218.73 133.55 L 219.21 133.42 C 219.43 134.56 219.82 135.65 220.35 136.68 C 220.59 131.76 221.69 126.39 219.21 121.85 C 218.31 120.23 217.48 118.58 216.57 116.96 C 216.51 116.74 216.38 116.30 216.32 116.08 C 215.91 114.88 215.49 113.68 215.06 112.49 L 214.26 112.69 L 214.58 111.47 C 214.07 111.56 213.06 111.74 212.56 111.83 M 33.53 118.01 C 32.53 123.55 32.41 129.20 32.53 134.82 L 33.53 134.35 C 33.14 138.73 33.26 143.14 33.47 147.52 L 32.36 146.92 C 32.59 152.39 32.62 157.86 32.33 163.32 C 32.33 165.08 31.96 167.10 33.46 168.41 C 33.47 168.58 33.49 168.92 33.49 169.09 C 34.13 170.39 34.73 171.71 35.34 173.03 C 35.66 176.32 35.61 179.62 35.78 182.93 C 36.32 184.36 36.62 185.86 36.93 187.36 C 37.03 187.37 37.22 187.40 37.32 187.41 C 37.53 188.68 37.89 189.90 38.40 191.08 C 38.41 191.42 38.43 192.10 38.44 192.44 L 39.58 192.63 C 39.52 193.08 39.41 193.98 39.36 194.43 L 40.10 194.65 C 41.30 197.78 43.22 200.54 44.87 203.43 L 45.52 203.27 L 45.58 204.57 L 47.04 204.42 L 46.55 205.63 C 46.71 205.67 47.03 205.75 47.19 205.79 C 47.26 205.20 47.38 204.03 47.45 203.44 L 46.61 203.79 C 46.46 202.20 46.30 200.60 45.99 199.04 C 45.62 197.26 45.04 195.54 44.15 193.96 C 43.12 192.14 42.30 190.21 41.53 188.28 C 41.51 187.10 41.48 185.93 41.45 184.75 C 40.78 183.90 40.11 183.04 39.44 182.19 C 39.41 181.50 39.36 180.13 39.33 179.45 L 38.68 179.54 C 38.53 177.38 38.42 175.20 37.89 173.09 C 37.60 171.41 37.34 169.74 36.93 168.09 C 36.20 166.79 35.58 165.45 34.92 164.12 L 33.84 164.58 L 34.87 163.64 C 34.41 159.95 34.29 156.18 35.91 152.74 C 36.09 142.33 35.91 131.85 35.70 121.41 L 36.10 121.07 C 37.34 119.19 38.61 117.33 39.93 115.50 C 37.36 114.97 35.44 116.59 33.53 118.01 Z" />
<path fill="#000000" opacity="1.00" d=" M 75.24 92.23 C 78.30 89.75 82.34 89.51 86.11 89.60 C 87.34 90.15 88.57 90.70 89.80 91.26 C 91.25 91.80 92.69 92.36 94.15 92.87 C 92.74 93.68 91.19 93.81 89.70 93.17 C 85.75 91.90 80.79 90.59 77.29 93.60 C 74.09 96.86 70.05 98.98 66.22 101.35 C 62.56 103.73 61.09 107.93 59.74 111.85 C 58.87 114.83 58.00 117.95 59.75 120.81 C 64.19 119.45 68.76 118.40 72.91 116.26 C 72.57 114.66 72.21 113.06 71.78 111.49 C 68.63 111.10 63.70 111.46 62.85 107.45 C 66.12 107.64 69.54 107.43 72.64 108.67 C 75.07 110.48 75.22 113.82 75.79 116.55 C 72.40 120.53 67.17 121.59 62.35 122.81 C 62.44 124.56 62.55 126.31 62.68 128.07 C 63.21 129.31 63.72 130.57 64.23 131.83 C 64.27 134.58 63.69 137.79 65.99 139.85 C 67.99 142.86 71.71 143.37 74.88 144.36 C 79.01 144.69 83.15 144.89 87.29 144.57 C 89.49 142.42 91.61 140.17 93.91 138.12 C 97.80 135.09 98.82 129.83 102.55 126.62 C 107.29 122.28 110.78 115.96 110.03 109.40 C 109.20 109.65 107.53 110.17 106.69 110.43 C 104.56 109.06 104.03 106.46 103.07 104.31 C 101.97 101.50 99.93 99.23 98.09 96.90 C 97.76 96.49 97.09 95.66 96.76 95.24 C 96.11 95.11 94.82 94.84 94.17 94.70 C 95.17 93.25 96.15 91.79 97.15 90.33 C 101.41 94.77 107.31 97.73 110.23 103.35 C 111.35 103.50 112.47 103.64 113.59 103.79 C 113.79 107.64 113.27 111.47 112.43 115.21 C 110.64 118.53 109.68 122.34 107.13 125.21 C 104.62 128.12 101.78 130.79 100.00 134.25 C 97.96 138.31 94.26 141.07 91.06 144.13 C 88.97 146.16 86.23 147.88 83.20 147.41 C 75.95 146.61 67.88 145.83 62.73 139.99 C 60.76 137.74 61.39 134.58 61.27 131.85 C 60.76 130.23 60.27 128.61 59.71 127.00 C 59.56 125.60 59.43 124.21 59.30 122.81 C 58.35 122.19 57.40 121.58 56.45 120.97 C 55.78 115.11 57.16 109.11 60.06 104.00 C 63.68 98.39 70.38 96.44 75.24 92.23 M 104.33 101.21 C 105.23 102.33 105.74 103.67 106.17 105.03 C 106.81 107.42 109.07 108.04 111.34 107.98 C 110.56 106.50 109.85 105.00 109.21 103.47 C 108.50 103.42 107.08 103.34 106.36 103.30 C 106.44 102.94 106.61 102.21 106.69 101.84 C 106.10 101.69 104.92 101.37 104.33 101.21 Z" />
<path fill="#000000" opacity="1.00" d=" M 121.30 123.40 C 129.43 118.63 139.23 119.73 148.08 121.39 C 158.05 124.57 166.51 131.01 175.90 135.47 C 177.96 133.83 179.81 130.58 182.87 131.41 C 186.13 132.09 189.30 133.82 191.22 136.60 C 196.29 143.47 199.63 151.43 204.72 158.28 C 208.42 162.66 207.21 168.72 207.44 173.99 C 207.66 178.12 206.60 182.18 204.61 185.79 C 202.78 187.34 200.93 189.04 198.56 189.71 C 196.89 189.42 195.23 189.09 193.57 188.78 C 195.85 188.21 198.28 187.79 200.13 186.23 C 202.22 184.36 204.44 182.05 204.61 179.10 C 205.02 173.38 204.87 167.64 204.45 161.93 C 197.20 153.63 194.38 142.24 186.07 134.82 C 183.98 134.30 181.89 133.80 179.77 133.43 C 179.74 134.23 179.72 135.02 179.69 135.82 C 181.71 136.77 183.70 137.77 185.66 138.83 C 185.63 139.86 185.58 140.89 185.51 141.92 C 182.85 140.36 180.15 138.86 177.28 137.71 C 176.24 137.63 175.21 137.54 174.18 137.45 C 165.45 132.91 157.30 127.20 148.09 123.61 C 145.52 123.43 142.95 123.30 140.38 123.22 C 140.38 125.20 140.35 127.18 140.37 129.16 C 141.92 129.83 143.39 130.68 144.92 131.38 C 146.93 131.43 148.97 131.61 150.97 131.25 C 151.16 130.46 151.55 128.88 151.75 128.08 C 152.74 128.33 153.73 128.57 154.72 128.82 C 154.67 131.20 153.14 132.97 151.53 134.54 C 147.77 134.64 144.09 133.86 140.66 132.37 C 140.64 135.90 140.18 139.40 139.21 142.80 C 136.15 141.84 133.21 140.57 130.38 139.08 C 130.49 143.73 130.93 148.87 127.50 152.56 C 125.54 152.55 123.57 152.53 121.61 152.51 C 120.97 151.83 120.32 151.15 119.67 150.48 C 119.17 150.41 118.16 150.28 117.66 150.21 C 117.35 151.64 117.40 153.20 116.63 154.49 C 113.51 156.46 110.00 157.74 106.55 159.01 C 106.51 158.35 106.44 157.02 106.40 156.36 C 109.14 154.99 112.02 153.87 114.58 152.16 C 115.13 149.02 111.98 148.04 109.51 147.98 C 109.45 147.10 109.40 146.21 109.34 145.33 C 111.04 145.32 112.74 145.31 114.43 145.31 C 112.78 143.32 111.11 140.92 108.22 141.02 C 107.35 142.32 106.47 143.61 105.57 144.90 C 105.62 148.67 105.31 152.48 103.72 155.96 C 103.60 158.65 103.56 161.36 103.04 164.01 C 100.66 170.09 101.87 176.60 101.18 182.90 C 100.27 185.24 99.51 187.64 99.03 190.10 C 98.76 191.48 98.54 192.87 98.30 194.26 C 94.58 201.25 92.79 209.27 87.33 215.26 C 88.83 216.94 90.70 218.18 92.68 219.21 C 93.77 219.60 94.85 220.02 95.92 220.46 C 98.31 221.07 100.74 221.56 103.13 222.19 C 108.00 222.17 112.90 222.30 117.65 223.50 C 115.16 225.63 111.93 224.45 109.04 224.20 C 104.60 223.56 99.95 224.01 95.69 222.38 C 92.23 221.05 88.53 219.86 85.74 217.34 C 84.47 214.13 87.53 211.45 88.84 208.78 C 93.04 201.03 96.57 192.76 98.00 184.00 C 99.31 178.39 98.25 172.55 99.52 166.94 C 100.72 161.33 101.76 155.69 102.42 149.99 C 102.72 147.67 102.90 145.22 104.16 143.17 C 108.82 135.79 113.99 128.40 121.30 123.40 M 129.06 123.18 C 128.03 123.46 126.99 123.75 125.96 124.03 C 124.34 124.52 122.74 125.09 121.22 125.82 C 122.89 127.80 124.63 129.75 125.95 132.00 C 126.13 132.57 126.47 133.71 126.65 134.28 C 128.42 135.15 130.21 135.97 132.00 136.79 C 133.65 137.92 135.44 138.81 137.48 138.90 C 137.79 133.44 137.54 127.96 137.52 122.49 C 134.70 122.44 131.76 122.12 129.06 123.18 M 118.10 128.60 C 116.28 130.78 114.30 132.82 112.38 134.90 C 112.41 135.27 112.48 136.01 112.51 136.38 L 111.15 136.66 C 112.00 139.41 114.28 141.09 116.28 142.96 C 116.62 144.40 116.49 145.90 116.59 147.37 C 117.80 147.44 119.01 147.52 120.22 147.61 C 121.84 149.41 124.07 149.99 126.42 149.73 C 128.08 146.03 127.26 141.90 127.43 137.97 C 126.28 137.25 125.24 136.38 124.12 135.62 L 123.58 135.47 C 123.52 134.81 123.42 133.50 123.36 132.85 C 122.26 131.34 121.18 129.81 120.13 128.26 C 119.45 128.37 118.77 128.48 118.10 128.60 Z" />
<path fill="#000000" opacity="1.00" d=" M 148.51 171.63 C 154.15 167.12 158.31 159.82 165.98 158.57 C 169.61 159.66 171.90 163.01 174.59 165.47 C 178.15 168.54 178.85 173.89 183.17 176.22 C 183.29 174.39 183.40 172.57 183.51 170.75 C 185.24 169.54 187.01 168.41 188.85 167.38 C 194.12 169.83 199.64 172.64 202.71 177.82 C 201.53 177.55 200.05 177.95 199.10 177.04 C 196.35 174.57 193.33 172.40 189.98 170.80 C 189.45 170.70 188.38 170.51 187.84 170.41 C 186.71 170.93 185.57 171.69 185.40 173.05 C 184.22 177.65 184.02 182.72 185.78 187.21 C 187.87 191.42 193.56 189.34 197.31 190.00 C 190.91 190.72 184.43 190.38 178.00 190.60 C 171.84 195.60 165.36 200.19 159.01 204.91 C 150.63 209.00 144.43 216.84 135.19 219.21 C 129.33 218.47 126.92 224.80 122.20 226.63 C 120.53 226.19 118.86 225.76 117.20 225.29 C 119.12 224.80 121.11 224.44 122.90 223.54 C 124.93 221.29 127.03 219.02 129.71 217.53 C 132.06 215.96 135.20 216.96 137.59 215.43 C 140.71 213.63 143.83 211.85 146.96 210.06 C 145.70 207.48 144.46 204.78 142.35 202.79 C 140.30 201.06 137.92 199.78 135.71 198.26 C 132.61 199.08 128.88 199.98 127.53 203.28 C 125.12 208.92 122.78 214.60 119.73 219.94 C 115.47 217.61 112.97 213.24 109.08 210.45 C 103.16 211.18 99.78 217.44 94.07 219.02 C 94.29 218.33 94.73 216.94 94.96 216.24 C 98.67 212.78 102.98 210.03 107.20 207.24 C 111.84 208.11 114.97 211.92 117.67 215.48 C 118.04 215.49 118.80 215.52 119.18 215.54 C 121.65 210.77 123.12 205.53 125.83 200.88 C 127.75 197.58 131.65 196.53 135.03 195.43 C 139.37 197.20 143.36 199.74 146.54 203.21 C 146.60 200.50 146.61 197.79 146.70 195.09 C 147.80 192.26 148.43 189.26 149.73 186.51 C 151.81 184.74 154.32 183.47 156.95 182.76 C 160.37 182.01 163.17 184.67 166.09 185.97 C 167.69 183.80 169.32 181.55 169.87 178.85 C 171.13 176.17 173.17 173.98 175.73 172.51 C 175.50 171.47 175.42 170.32 174.63 169.52 C 172.12 166.53 169.42 163.56 166.09 161.47 C 159.53 162.64 155.67 168.94 151.10 173.24 C 150.00 173.65 148.90 174.06 147.81 174.48 C 145.86 173.19 144.34 170.79 141.89 170.58 C 137.51 173.43 133.77 177.59 132.89 182.90 C 131.67 185.54 130.23 188.07 128.59 190.46 C 128.04 190.44 126.94 190.41 126.39 190.39 C 126.48 189.67 126.57 188.95 126.67 188.24 C 127.88 186.53 128.96 184.73 129.96 182.90 C 131.14 176.24 135.91 170.60 141.89 167.65 C 144.67 167.15 146.44 170.26 148.51 171.63 M 173.05 178.17 C 172.40 181.95 170.46 185.24 167.50 187.66 C 167.42 188.92 167.35 190.18 167.30 191.45 C 166.66 191.49 165.38 191.57 164.74 191.61 C 164.21 190.38 163.74 189.13 163.22 187.90 C 162.22 187.12 161.23 186.33 160.23 185.57 C 158.73 185.58 157.24 185.60 155.75 185.61 C 153.38 187.03 151.67 189.17 150.65 191.72 C 148.87 196.70 149.82 202.03 149.46 207.20 C 152.69 205.59 155.77 203.71 158.87 201.87 C 161.54 199.88 164.04 197.69 166.71 195.71 C 170.51 193.55 173.53 190.29 177.33 188.12 L 177.58 187.68 C 179.54 187.69 181.52 187.68 183.48 187.59 C 182.83 185.00 182.43 182.36 182.40 179.69 C 181.00 178.16 179.68 176.53 178.02 175.29 C 175.71 174.68 174.38 176.73 173.05 178.17 Z" />
</g>
<g id="#4e444afe">
<path fill="#4e444a" opacity="1.00" d=" M 120.21 5.95 L 120.84 5.81 C 128.47 7.25 136.25 6.32 143.96 6.57 C 150.67 6.80 158.00 5.29 164.00 9.14 C 173.45 13.70 178.34 23.55 182.26 32.73 C 183.46 36.29 188.98 36.06 189.44 39.95 C 190.26 44.04 191.17 48.12 192.65 52.04 C 191.62 54.33 190.94 56.92 189.07 58.70 C 188.01 57.10 188.53 55.07 188.34 53.28 C 175.13 54.32 161.74 54.62 148.88 58.19 C 142.42 60.14 135.28 58.08 129.14 61.19 C 118.64 66.26 106.80 67.84 96.62 73.66 C 90.73 77.14 84.30 79.69 78.75 83.76 C 75.41 86.16 72.03 88.57 68.24 90.22 C 61.28 93.11 56.83 99.54 51.10 104.14 C 44.85 110.04 35.91 111.74 29.59 117.51 C 28.25 118.52 26.60 120.61 24.80 119.22 C 22.43 114.70 21.51 109.56 20.17 104.66 C 18.28 99.66 23.11 96.01 24.85 91.77 C 29.25 82.04 32.42 71.74 37.62 62.37 C 41.08 56.64 43.60 50.19 48.45 45.42 C 53.46 40.40 58.03 34.85 63.93 30.80 C 70.34 25.48 76.42 19.55 84.02 15.93 C 89.73 13.29 95.64 11.12 101.47 8.76 C 107.38 6.28 113.90 7.89 120.08 7.08 C 120.12 6.80 120.18 6.23 120.21 5.95 Z" />
<path fill="#4e444a" opacity="1.00" d=" M 235.65 39.75 C 238.81 39.61 242.57 39.08 244.68 42.06 C 244.67 43.42 244.56 44.77 244.35 46.12 C 242.98 45.36 242.16 44.19 241.90 42.60 C 240.43 42.50 238.96 42.41 237.50 42.34 C 237.45 43.41 237.40 44.49 237.36 45.56 C 239.22 45.56 241.07 45.52 242.93 45.50 C 243.54 46.97 244.52 48.22 245.78 49.21 C 245.18 50.81 244.34 52.31 243.34 53.70 C 240.40 53.70 237.45 53.68 234.51 53.57 C 234.55 49.61 234.55 45.66 234.43 41.70 C 234.84 41.05 235.24 40.40 235.65 39.75 M 237.56 47.39 C 237.48 48.79 237.42 50.20 237.38 51.60 C 239.07 51.59 240.76 51.57 242.46 51.54 C 242.52 50.52 242.59 49.50 242.66 48.47 C 240.97 48.05 239.27 47.68 237.56 47.39 Z" />
<path fill="#4e444a" opacity="1.00" d=" M 246.56 44.73 C 248.16 42.50 250.12 40.10 252.99 39.61 C 255.98 39.73 258.44 42.04 259.57 44.70 C 259.96 44.73 260.73 44.79 261.12 44.82 C 262.39 42.14 264.88 39.59 268.03 39.63 C 270.92 40.24 272.78 42.72 274.57 44.86 C 275.00 49.16 272.04 54.48 267.13 53.75 C 263.86 54.17 262.15 51.01 260.86 48.59 C 258.55 50.87 256.61 54.14 252.99 54.30 C 250.12 53.75 248.17 51.46 246.52 49.24 C 246.54 47.73 246.56 46.23 246.56 44.73 M 264.41 44.29 C 262.37 46.64 264.21 49.51 265.72 51.54 C 266.89 51.56 268.07 51.58 269.25 51.60 C 269.98 50.58 270.73 49.56 271.47 48.54 C 271.44 47.31 271.41 46.08 271.38 44.85 C 270.66 44.01 269.94 43.16 269.23 42.31 C 267.41 42.43 265.21 42.23 264.41 44.29 M 249.50 44.70 C 249.49 46.20 249.49 47.71 249.51 49.21 C 250.26 50.03 251.01 50.84 251.76 51.66 C 252.57 51.61 254.19 51.51 255.00 51.46 C 255.83 50.39 256.68 49.33 257.54 48.28 C 257.53 46.08 256.44 44.20 255.22 42.46 C 254.35 42.44 252.61 42.40 251.74 42.38 C 250.99 43.15 250.24 43.93 249.50 44.70 Z" />
<path fill="#4e444a" opacity="1.00" d=" M 201.40 40.32 C 202.14 40.35 203.62 40.41 204.36 40.44 C 204.32 41.92 204.27 43.39 204.23 44.87 C 204.69 44.76 205.61 44.54 206.07 44.43 C 207.64 42.35 209.25 39.97 212.22 39.96 C 211.21 42.38 208.53 43.93 208.34 46.69 C 210.28 48.77 211.76 51.22 212.99 53.77 C 208.18 54.88 208.96 47.47 204.47 48.17 C 204.39 49.95 204.34 51.72 204.31 53.50 C 203.58 53.53 202.13 53.60 201.40 53.63 C 201.48 49.19 201.48 44.76 201.40 40.32 Z" />
<path fill="#4e444a" opacity="1.00" d=" M 217.38 40.62 C 218.40 40.50 220.42 40.27 221.44 40.15 C 222.99 44.73 224.85 49.22 225.97 53.94 C 223.55 54.06 222.47 52.61 222.14 50.51 C 220.74 50.47 219.35 50.44 217.96 50.42 C 216.89 51.85 216.32 54.06 214.03 53.96 C 214.58 50.66 215.70 47.51 216.76 44.35 C 217.05 44.40 217.62 44.52 217.91 44.57 L 218.12 44.75 C 218.25 45.71 218.53 47.62 218.66 48.57 C 219.67 48.52 220.68 48.47 221.69 48.42 C 221.25 46.67 220.81 44.93 220.38 43.19 C 219.67 43.53 218.97 43.87 218.26 44.20 C 218.04 43.30 217.60 41.51 217.38 40.62 Z" />
<path fill="#4e444a" opacity="1.00" d=" M 227.22 47.50 C 228.98 48.00 232.78 46.35 232.62 49.23 C 230.95 51.58 226.85 50.67 227.22 47.50 Z" />
<path fill="#4e444a" opacity="1.00" d=" M 144.21 61.78 C 157.33 57.74 171.11 55.78 184.82 56.25 C 188.37 62.92 190.42 70.20 192.42 77.44 C 191.05 75.25 189.80 72.95 189.18 70.43 C 188.06 65.83 185.91 61.59 184.23 57.19 C 176.64 57.65 169.02 57.64 161.49 58.88 L 163.90 59.92 L 167.04 61.38 C 163.34 61.68 159.69 62.39 156.07 63.24 C 156.04 65.59 156.61 68.47 153.80 69.39 C 154.40 67.32 154.52 65.16 155.05 63.07 C 157.66 61.40 160.97 61.10 163.76 59.72 C 157.70 57.99 152.20 61.65 146.25 61.96 C 146.30 63.04 146.37 64.13 146.46 65.22 C 145.44 64.25 144.70 63.10 144.21 61.78 Z" />
<path fill="#4e444a" opacity="1.00" d=" M 210.63 64.99 C 211.75 62.36 214.66 61.51 217.02 60.39 C 219.69 61.56 222.04 63.33 223.56 65.86 C 223.54 67.29 223.53 68.72 223.52 70.15 C 221.68 73.15 217.94 76.87 214.25 74.44 C 210.47 73.05 209.51 68.49 210.63 64.99 M 215.38 63.52 C 212.03 65.58 212.82 70.40 215.29 72.86 C 217.73 72.95 220.56 71.76 220.65 68.96 C 221.44 65.89 218.73 62.19 215.38 63.52 Z" />
<path fill="#4e444a" opacity="1.00" d=" M 224.43 65.86 C 225.95 63.34 228.29 61.57 230.96 60.39 C 232.67 61.24 234.61 61.80 236.04 63.12 C 237.75 64.94 237.52 67.58 237.92 69.87 C 238.12 69.83 238.53 69.77 238.74 69.74 C 238.67 68.98 238.52 67.46 238.44 66.70 C 239.92 63.72 242.42 60.73 246.04 60.73 C 248.89 61.37 251.00 63.53 252.12 66.16 C 253.68 65.66 254.47 64.36 255.01 62.91 C 256.67 62.04 258.35 61.21 260.04 60.41 C 262.80 61.49 265.03 63.45 266.71 65.88 C 267.24 70.20 264.47 74.56 260.08 75.32 C 258.14 75.06 256.50 73.88 254.76 73.10 C 253.79 70.89 253.28 68.53 253.23 66.11 C 253.03 66.10 252.62 66.09 252.42 66.08 C 252.43 66.81 252.46 68.26 252.47 68.99 C 251.98 70.01 251.52 71.05 251.07 72.09 C 249.07 74.67 245.72 75.42 242.68 74.40 C 241.29 73.35 240.15 72.02 238.85 70.88 C 237.00 69.95 236.65 71.90 236.03 73.17 C 233.85 74.57 231.17 75.29 228.63 74.46 C 226.76 73.57 225.69 71.72 224.49 70.15 C 224.47 68.72 224.46 67.29 224.43 65.86 M 229.69 63.26 C 228.93 64.08 228.18 64.89 227.42 65.69 C 226.98 68.43 227.69 71.02 229.72 72.97 C 231.74 72.75 233.52 71.95 234.79 70.33 C 234.77 68.76 234.77 67.19 234.79 65.62 C 233.52 63.98 231.76 63.15 229.69 63.26 M 243.67 63.40 C 242.32 65.18 241.36 67.18 241.46 69.46 C 242.26 70.49 243.05 71.52 243.85 72.55 C 245.02 72.58 246.19 72.60 247.37 72.63 C 248.10 71.39 249.09 70.25 249.50 68.84 C 249.97 66.74 248.40 65.09 247.43 63.42 C 246.17 63.41 244.92 63.41 243.67 63.40 M 255.31 68.00 C 256.48 70.49 257.97 73.15 261.17 72.88 C 261.96 72.00 262.76 71.13 263.56 70.26 C 263.57 68.74 263.57 67.23 263.56 65.71 C 262.85 64.92 262.14 64.12 261.43 63.31 C 258.14 62.61 256.43 65.42 255.31 68.00 Z" />
<path fill="#4e444a" opacity="1.00" d=" M 267.37 70.08 C 266.55 65.46 269.89 61.86 273.97 60.39 C 276.10 61.42 278.69 62.09 280.00 64.24 C 282.13 68.25 280.13 74.82 274.91 74.76 C 271.42 75.52 269.10 72.60 267.37 70.08 M 272.62 63.28 C 271.90 64.11 271.18 64.92 270.46 65.74 C 270.44 67.23 270.44 68.73 270.45 70.22 C 271.20 71.06 271.94 71.91 272.69 72.76 C 275.34 73.16 277.03 71.27 278.54 69.41 C 278.54 66.12 276.34 62.56 272.62 63.28 Z" />
<path fill="#4e444a" opacity="1.00" d=" M 134.20 63.16 C 135.56 62.82 136.92 62.48 138.29 62.14 C 138.59 63.19 138.85 64.26 139.07 65.33 C 139.95 66.44 140.83 67.55 141.68 68.67 C 143.62 71.17 145.80 73.59 146.94 76.59 C 146.52 76.97 145.69 77.73 145.27 78.10 C 145.38 77.61 145.59 76.63 145.69 76.14 C 144.44 74.17 143.15 72.22 141.92 70.24 C 140.52 71.49 139.13 72.76 137.73 74.01 C 138.57 72.50 139.44 71.01 140.31 69.51 C 138.42 69.11 136.53 68.72 134.64 68.35 C 134.49 66.62 134.35 64.89 134.20 63.16 Z" />
<path fill="#4e444a" opacity="1.00" d=" M 216.57 87.75 C 217.97 85.65 219.51 83.25 222.10 82.55 C 226.31 81.55 230.50 85.81 229.80 89.99 C 230.31 94.53 224.92 98.08 220.91 96.10 C 218.79 95.21 217.75 93.06 216.54 91.27 C 216.55 90.39 216.56 88.63 216.57 87.75 M 220.52 86.46 C 219.09 87.77 219.67 89.86 219.41 91.57 C 220.52 92.57 221.53 93.72 222.85 94.46 C 224.61 94.92 225.63 93.03 226.97 92.28 C 226.86 90.03 226.70 87.79 226.44 85.55 C 224.46 85.59 221.81 84.29 220.52 86.46 Z" />
<path fill="#4e444a" opacity="1.00" d=" M 235.76 82.73 C 240.59 81.08 245.66 86.29 244.47 91.10 C 243.61 93.94 241.09 96.66 237.95 96.62 C 235.05 96.95 232.93 94.48 231.57 92.25 C 228.90 88.89 232.69 84.43 235.76 82.73 M 236.58 84.56 C 235.24 86.44 232.68 88.49 233.99 91.06 C 234.60 93.40 236.82 94.52 239.08 94.72 C 240.98 92.73 242.03 90.25 241.64 87.46 C 240.63 86.51 239.63 85.56 238.63 84.62 C 238.12 84.60 237.09 84.57 236.58 84.56 Z" />
<path fill="#4e444a" opacity="1.00" d=" M 250.58 82.64 C 254.47 81.43 258.62 85.13 258.69 88.98 C 259.36 93.47 254.63 97.93 250.17 96.41 C 246.97 95.08 244.62 91.36 245.56 87.88 C 246.36 85.50 248.12 83.40 250.58 82.64 M 248.32 87.42 C 248.01 90.21 248.89 92.76 250.89 94.74 C 253.82 94.71 255.38 92.33 256.66 90.06 C 255.92 87.51 254.28 85.47 252.00 84.14 C 250.76 85.23 249.54 86.32 248.32 87.42 Z" />
<path fill="#4e444a" opacity="1.00" d=" M 259.27 91.02 C 259.55 87.26 261.87 82.88 265.97 82.46 C 269.72 81.96 271.77 85.79 273.93 88.12 C 275.09 86.01 276.48 83.83 278.73 82.75 C 282.74 81.34 287.44 84.84 287.56 89.01 C 288.14 93.09 284.10 97.27 279.97 96.58 C 276.91 96.33 275.21 93.29 273.91 90.88 C 271.97 93.48 269.74 97.12 265.95 96.61 C 262.68 96.53 261.01 93.28 259.27 91.02 M 265.46 84.58 C 264.47 85.62 263.50 86.66 262.53 87.71 C 262.51 88.63 262.47 90.45 262.45 91.36 C 263.50 92.48 264.53 93.61 265.75 94.55 C 267.96 94.80 269.13 92.74 270.54 91.47 C 270.82 88.70 269.61 86.33 267.60 84.52 C 267.06 84.54 266.00 84.57 265.46 84.58 M 277.34 86.60 C 277.31 88.58 277.30 90.56 277.30 92.54 C 278.74 93.56 280.32 94.37 282.06 94.74 C 283.27 92.99 285.18 91.30 284.69 88.94 C 284.76 86.76 282.67 85.47 281.09 84.41 C 279.78 85.03 278.55 85.81 277.34 86.60 Z" />
<path fill="#4e444a" opacity="1.00" d=" M 198.70 86.88 C 205.17 91.31 206.24 99.86 208.73 106.74 C 208.68 105.63 208.59 103.42 208.54 102.31 C 212.45 101.24 212.55 106.30 213.86 108.67 C 212.34 108.72 210.90 108.32 209.58 107.59 C 207.52 109.95 204.07 109.57 201.40 108.65 C 200.36 106.14 201.34 103.17 200.43 100.59 C 198.64 96.97 194.03 94.83 194.16 90.35 C 195.93 93.90 198.90 96.57 201.16 99.76 C 202.95 102.25 202.22 105.49 202.47 108.35 C 204.28 108.35 206.09 108.34 207.91 108.33 C 205.78 100.82 203.70 93.08 198.70 86.88 Z" />
<path fill="#4e444a" opacity="1.00" d=" M 95.52 88.75 C 96.06 89.28 96.60 89.81 97.15 90.33 C 96.15 91.79 95.17 93.25 94.17 94.70 C 94.82 94.84 96.11 95.11 96.76 95.24 C 97.09 95.66 97.76 96.49 98.09 96.90 C 94.95 96.10 91.88 95.10 88.85 93.98 C 85.15 92.56 81.11 93.22 77.29 93.60 C 80.79 90.59 85.75 91.90 89.70 93.17 C 91.19 93.81 92.74 93.68 94.15 92.87 C 94.26 92.83 94.47 92.75 94.58 92.71 C 94.48 92.23 94.37 91.74 94.27 91.26 C 94.58 90.63 95.21 89.38 95.52 88.75 Z" />
<path fill="#4e444a" opacity="1.00" d=" M 222.51 110.73 C 223.98 108.06 226.08 105.10 229.50 105.21 C 232.94 105.06 235.16 108.10 236.33 110.96 C 238.28 108.20 240.60 105.67 243.97 104.73 C 248.07 105.90 251.32 109.51 250.58 114.00 C 250.06 115.02 249.55 116.04 249.06 117.08 C 246.95 118.33 244.51 120.46 241.93 119.04 C 239.33 118.15 238.19 115.43 236.25 113.70 C 235.04 116.23 233.15 119.17 230.09 119.46 C 226.58 119.94 224.40 116.60 222.60 114.16 C 222.57 113.30 222.53 111.58 222.51 110.73 M 242.48 107.53 C 241.72 108.31 240.97 109.08 240.21 109.86 C 240.35 112.16 239.70 115.24 242.14 116.59 C 244.44 117.53 246.45 116.07 247.75 114.29 C 247.67 112.84 247.60 111.39 247.52 109.94 C 246.79 109.14 246.06 108.35 245.33 107.55 C 244.38 107.54 243.43 107.53 242.48 107.53 M 225.54 110.73 C 225.53 111.61 225.52 113.35 225.51 114.23 C 226.57 115.14 227.34 116.80 228.95 116.78 C 231.06 117.33 232.35 115.43 233.67 114.19 C 234.09 110.72 231.89 106.92 228.01 107.37 C 227.19 108.49 226.36 109.61 225.54 110.73 Z" />
<path fill="#4e444a" opacity="1.00" d=" M 265.14 111.13 C 266.92 108.63 268.74 105.19 272.30 105.26 C 276.88 104.91 279.98 109.85 279.56 114.01 C 278.04 116.10 276.51 118.45 273.96 119.35 C 270.23 120.30 267.11 117.03 265.91 113.84 C 264.44 114.45 263.83 115.95 263.05 117.19 C 261.78 117.99 260.63 119.15 259.10 119.42 C 255.66 119.99 252.69 117.06 251.62 114.04 C 250.41 109.79 254.41 104.47 259.00 105.31 C 262.17 105.49 263.91 108.59 265.14 111.13 M 256.95 107.32 C 256.12 108.19 255.29 109.06 254.45 109.93 C 254.61 111.78 253.78 114.14 255.43 115.52 C 256.46 117.13 258.44 116.63 260.05 116.76 C 260.85 115.63 261.67 114.50 262.50 113.39 C 262.61 110.23 260.38 107.06 256.95 107.32 M 268.52 113.06 C 269.10 114.43 269.90 115.67 270.67 116.94 C 273.12 117.08 275.18 116.11 276.70 114.21 C 276.81 111.67 275.79 109.44 274.19 107.53 C 273.37 107.54 271.72 107.55 270.89 107.55 C 269.76 109.21 267.98 110.82 268.52 113.06 Z" />
<path fill="#4e444a" opacity="1.00" d=" M 280.56 109.86 C 281.41 107.93 283.19 106.67 284.71 105.30 C 286.23 105.33 287.76 105.35 289.28 105.38 C 291.14 107.20 293.99 108.92 293.66 111.93 C 294.24 116.90 287.83 121.65 283.57 118.33 C 280.67 116.66 279.76 112.94 280.56 109.86 M 282.72 112.14 C 282.89 113.83 284.04 115.22 284.73 116.73 C 286.38 116.51 288.57 117.25 289.62 115.56 C 291.23 114.02 290.47 111.60 290.65 109.62 C 289.22 108.46 287.75 107.00 285.71 107.50 C 284.13 108.55 282.98 110.25 282.72 112.14 Z" />
<path fill="#4e444a" opacity="1.00" d=" M 147.06 114.26 C 150.03 117.58 153.37 120.90 157.76 122.20 C 166.57 124.88 175.89 124.32 184.98 124.36 C 189.67 124.60 193.57 121.70 197.38 119.42 C 198.83 124.26 199.14 129.58 202.27 133.76 C 205.09 139.76 207.48 146.31 212.67 150.77 C 212.74 147.18 212.56 143.59 212.54 140.00 C 212.29 133.95 214.12 128.01 213.34 121.95 C 215.57 126.35 215.75 131.44 217.54 136.01 C 219.68 141.43 219.45 147.34 219.83 153.05 C 220.25 159.71 218.66 166.66 221.27 173.02 C 220.48 182.09 224.25 190.77 223.25 199.83 C 220.08 202.41 218.57 206.10 217.80 210.00 C 213.49 218.27 212.30 227.74 207.97 236.03 L 207.95 235.66 C 208.49 229.81 211.88 224.77 212.91 219.03 C 213.42 215.77 215.40 213.08 216.66 210.11 C 216.89 206.10 214.50 202.59 213.26 198.91 C 211.61 193.92 208.04 189.92 205.97 185.13 C 205.63 185.30 204.95 185.62 204.61 185.79 C 206.60 182.18 207.66 178.12 207.44 173.99 C 207.21 168.72 208.42 162.66 204.72 158.28 C 199.63 151.43 196.29 143.47 191.22 136.60 C 189.30 133.82 186.13 132.09 182.87 131.41 C 179.81 130.58 177.96 133.83 175.90 135.47 C 166.51 131.01 158.05 124.57 148.08 121.39 C 139.23 119.73 129.43 118.63 121.30 123.40 C 113.99 128.40 108.82 135.79 104.16 143.17 C 102.90 145.22 102.72 147.67 102.42 149.99 C 101.76 155.69 100.72 161.33 99.52 166.94 C 98.25 172.55 99.31 178.39 98.00 184.00 C 96.57 192.76 93.04 201.03 88.84 208.78 C 87.53 211.45 84.47 214.13 85.74 217.34 C 88.53 219.86 92.23 221.05 95.69 222.38 C 99.95 224.01 104.60 223.56 109.04 224.20 C 111.93 224.45 115.16 225.63 117.65 223.50 C 119.39 223.62 121.15 223.48 122.90 223.54 C 121.11 224.44 119.12 224.80 117.20 225.29 C 118.86 225.76 120.53 226.19 122.20 226.63 C 118.08 227.03 114.07 225.75 109.99 225.47 C 106.66 225.19 103.28 225.39 99.99 224.66 C 94.79 223.63 90.19 220.86 85.24 219.10 C 83.73 222.13 81.84 224.94 79.78 227.62 C 79.42 228.82 79.05 230.02 78.66 231.21 L 77.11 230.21 C 77.12 231.42 77.12 232.63 77.13 233.84 C 72.24 230.32 66.71 227.84 61.67 224.55 C 59.24 223.06 58.49 220.13 56.97 217.89 C 55.01 214.30 50.87 212.59 48.86 209.10 C 48.51 204.73 49.49 200.11 47.51 195.99 C 45.48 191.55 43.91 186.94 42.48 182.27 C 40.52 177.12 40.49 171.48 38.43 166.36 C 35.02 159.35 37.09 151.40 37.47 143.98 C 38.32 137.61 36.57 131.31 36.77 124.96 C 36.59 122.60 38.74 121.25 40.12 119.72 C 37.08 123.91 38.02 129.45 38.98 134.18 C 40.60 134.60 42.82 134.14 43.87 135.79 C 46.82 139.73 50.31 143.39 52.18 148.03 C 53.39 150.88 54.21 153.88 54.79 156.92 C 55.85 158.99 56.84 161.09 57.75 163.23 C 58.90 165.46 60.09 167.68 61.35 169.85 C 61.45 170.41 61.64 171.52 61.74 172.08 C 66.38 178.91 70.41 186.12 73.87 193.61 C 74.75 193.62 75.63 193.64 76.51 193.66 C 77.06 190.71 77.56 187.76 78.34 184.86 C 78.47 182.23 78.45 179.59 78.58 176.97 C 78.69 173.59 80.22 170.46 80.40 167.10 C 80.56 163.65 80.41 160.20 80.42 156.76 C 81.02 156.03 81.62 155.30 82.23 154.57 C 82.43 152.54 82.66 150.51 82.89 148.49 C 77.94 147.77 72.84 147.33 68.18 145.39 C 65.73 144.38 64.23 142.04 62.73 139.99 C 67.88 145.83 75.95 146.61 83.20 147.41 C 86.23 147.88 88.97 146.16 91.06 144.13 C 94.26 141.07 97.96 138.31 100.00 134.25 C 101.78 130.79 104.62 128.12 107.13 125.21 C 109.68 122.34 110.64 118.53 112.43 115.21 C 112.41 116.19 112.37 118.14 112.35 119.12 C 113.83 117.98 115.30 116.83 116.78 115.70 C 126.78 113.76 136.95 114.52 147.06 114.26 Z" />
<path fill="#4e444a" opacity="1.00" d=" M 32.53 134.82 C 32.41 129.20 32.53 123.55 33.53 118.01 C 33.63 119.67 33.74 121.34 33.85 123.01 C 34.32 122.61 35.24 121.81 35.70 121.41 C 35.91 131.85 36.09 142.33 35.91 152.74 C 34.29 156.18 34.41 159.95 34.87 163.64 L 33.84 164.58 C 33.76 164.66 33.60 164.82 33.52 164.90 C 33.49 166.07 33.47 167.24 33.46 168.41 C 31.96 167.10 32.33 165.08 32.33 163.32 C 32.62 157.86 32.59 152.39 32.36 146.92 L 33.47 147.52 L 34.38 148.02 C 34.69 143.31 34.79 138.59 34.53 133.87 L 33.53 134.35 L 32.53 134.82 Z" />
<path fill="#4e444a" opacity="1.00" d=" M 237.41 132.83 C 239.65 130.32 243.37 127.28 246.72 129.74 C 251.57 132.08 251.95 139.69 247.05 142.19 C 244.32 144.63 240.61 142.80 238.54 140.45 C 236.64 138.39 237.59 135.35 237.41 132.83 M 240.10 133.70 C 240.22 136.11 239.91 139.06 242.32 140.51 C 244.47 141.29 246.22 139.92 247.69 138.53 C 247.92 135.86 247.41 133.26 245.58 131.22 C 243.39 131.15 241.47 131.98 240.10 133.70 Z" />
<path fill="#4e444a" opacity="1.00" d=" M 251.32 138.09 C 250.88 133.82 253.66 129.51 257.97 128.70 C 261.61 128.90 264.02 131.90 265.10 135.13 C 266.78 131.91 269.34 129.31 272.97 128.44 C 276.04 129.65 278.22 132.06 279.74 134.92 C 279.51 138.78 276.98 142.42 273.14 143.39 C 269.75 143.52 267.07 140.65 265.87 137.71 C 264.45 138.43 263.77 139.87 262.98 141.14 C 261.13 142.13 259.25 144.04 256.98 143.23 C 254.45 142.36 252.90 140.09 251.32 138.09 M 256.34 131.28 C 254.67 133.34 254.11 135.85 254.31 138.46 C 255.84 140.14 257.81 140.91 260.10 140.64 C 260.50 140.04 261.31 138.83 261.72 138.22 C 261.77 136.72 261.82 135.23 261.88 133.73 C 260.53 131.90 258.58 131.11 256.34 131.28 M 270.78 131.44 C 269.72 133.18 267.93 134.88 268.59 137.13 C 269.18 138.34 269.92 139.46 270.64 140.60 C 271.93 140.59 273.22 140.59 274.51 140.59 C 275.32 139.15 276.71 137.82 276.56 136.04 C 276.66 134.20 275.17 132.87 274.34 131.39 C 273.45 131.41 271.67 131.43 270.78 131.44 Z" />
<path fill="#4e444a" opacity="1.00" d=" M 283.77 129.87 C 288.21 126.60 294.66 132.04 293.62 137.03 C 293.49 140.20 290.43 141.82 288.23 143.56 C 285.51 143.33 282.50 142.29 281.22 139.68 C 279.30 136.45 280.40 131.68 283.77 129.87 M 285.31 131.20 C 284.00 132.89 282.69 134.79 283.22 137.06 C 283.09 140.18 287.66 142.18 289.57 139.49 C 292.55 136.37 289.93 130.28 285.31 131.20 Z" />
<path fill="#4e444a" opacity="1.00" d=" M 251.28 156.88 C 252.96 154.58 254.85 151.63 258.01 151.52 C 261.43 151.56 264.03 154.43 264.91 157.55 C 265.20 157.54 265.79 157.52 266.09 157.51 C 266.43 154.73 268.74 153.10 270.79 151.55 C 271.66 151.54 273.39 151.53 274.26 151.52 C 277.20 153.48 279.69 156.37 279.71 160.10 C 278.02 162.44 276.46 165.88 273.04 165.69 C 269.30 166.24 266.36 163.05 266.08 159.53 C 265.79 159.51 265.23 159.48 264.94 159.46 C 264.19 161.40 263.67 163.79 261.60 164.78 C 259.89 165.97 257.69 165.51 255.75 165.73 C 253.03 163.55 250.98 160.51 251.28 156.88 M 255.43 155.46 C 253.31 157.79 254.22 161.79 256.81 163.42 C 260.42 164.64 262.16 160.60 262.57 157.75 C 261.73 156.60 260.92 155.45 260.12 154.28 C 258.53 154.49 256.40 153.77 255.43 155.46 M 269.21 156.33 C 267.37 158.80 269.34 161.49 270.90 163.46 C 271.72 163.46 273.35 163.47 274.17 163.47 C 275.94 161.49 277.63 158.53 275.81 156.02 C 274.61 153.41 270.09 153.51 269.21 156.33 Z" />
<path fill="#4e444a" opacity="1.00" d=" M 237.35 155.68 C 238.97 154.08 240.55 152.23 242.84 151.60 C 247.31 150.94 251.45 155.61 250.49 159.98 C 249.83 164.81 243.42 167.73 239.71 164.18 C 236.89 162.23 237.30 158.67 237.35 155.68 M 241.72 154.26 C 241.03 155.75 239.78 157.10 239.65 158.79 C 239.95 160.70 241.10 162.46 242.72 163.52 C 247.10 164.56 249.30 158.23 246.58 155.40 C 245.53 153.74 243.34 154.51 241.72 154.26 Z" />
<path fill="#4e444a" opacity="1.00" d=" M 283.48 152.71 C 287.73 149.34 294.22 153.99 293.65 159.01 C 293.85 164.18 286.72 168.09 282.84 164.19 C 279.15 161.38 279.55 155.12 283.48 152.71 M 282.36 159.02 C 283.34 160.60 284.12 162.43 285.71 163.52 C 287.79 164.05 289.22 162.51 290.60 161.26 C 290.64 159.72 290.68 158.19 290.74 156.66 C 289.60 155.72 288.69 154.02 286.98 154.19 C 284.05 153.73 283.49 157.12 282.36 159.02 Z" />
<path fill="#4e444a" opacity="1.00" d=" M 185.40 173.05 C 185.57 171.69 186.71 170.93 187.84 170.41 C 187.51 171.00 186.84 172.19 186.51 172.79 C 185.61 177.65 185.31 182.62 186.60 187.45 C 191.14 187.48 195.72 187.43 200.13 186.23 C 198.28 187.79 195.85 188.21 193.57 188.78 C 195.23 189.09 196.89 189.42 198.56 189.71 C 198.25 189.78 197.63 189.93 197.31 190.00 C 193.56 189.34 187.87 191.42 185.78 187.21 C 184.02 182.72 184.22 177.65 185.40 173.05 Z" />
<path fill="#4e444a" opacity="1.00" d=" M 237.36 178.65 C 239.35 176.42 241.61 173.50 245.04 174.46 C 251.28 175.53 252.58 185.12 246.78 187.81 C 243.14 190.18 239.51 187.18 237.36 184.34 C 237.36 182.44 237.36 180.54 237.36 178.65 M 239.64 181.17 C 239.65 182.89 240.95 184.27 241.64 185.78 C 243.20 185.75 244.76 185.71 246.32 185.66 C 248.47 182.58 247.84 178.75 245.10 176.27 C 242.32 176.36 240.11 178.49 239.64 181.17 Z" />
<path fill="#4e444a" opacity="1.00" d=" M 256.48 174.56 C 260.86 173.22 265.40 177.59 264.74 181.99 C 264.85 186.73 258.72 190.64 254.75 187.45 C 249.61 184.44 250.91 176.21 256.48 174.56 M 254.33 181.99 C 254.39 184.35 256.86 187.02 259.36 186.24 C 260.82 185.21 262.03 183.62 262.39 181.86 C 262.52 178.85 259.84 176.30 256.87 176.29 C 255.76 178.05 253.88 179.69 254.33 181.99 Z" />
<path fill="#4e444a" opacity="1.00" d=" M 266.25 181.06 C 265.70 176.56 270.97 172.95 274.99 174.86 C 277.21 175.80 278.28 178.09 279.67 179.90 C 279.72 183.58 277.51 187.42 273.86 188.48 C 269.66 189.46 265.46 185.27 266.25 181.06 M 268.30 179.81 C 268.22 182.45 269.54 184.67 271.41 186.44 C 271.94 186.42 273.02 186.38 273.55 186.36 C 274.54 185.36 275.53 184.35 276.50 183.32 C 276.52 182.41 276.55 180.57 276.57 179.65 C 275.12 178.45 274.01 175.95 271.76 176.52 C 270.48 177.49 269.41 178.67 268.30 179.81 Z" />
<path fill="#4e444a" opacity="1.00" d=" M 284.54 174.71 C 289.06 172.92 294.24 177.32 293.65 182.00 C 293.63 185.17 290.84 187.76 287.92 188.51 C 282.56 189.55 278.43 182.68 281.02 178.18 C 281.91 176.78 283.10 175.55 284.54 174.71 M 283.73 184.28 C 284.66 186.53 287.39 185.48 289.26 185.80 C 291.48 182.70 290.94 178.75 288.10 176.26 C 284.17 176.22 281.20 181.02 283.73 184.28 Z" />
<path fill="#4e444a" opacity="1.00" d=" M 237.67 200.99 C 239.36 198.29 243.27 195.44 246.36 197.61 C 250.05 199.27 251.91 204.11 249.66 207.63 C 248.44 210.25 245.45 210.90 242.97 211.69 C 240.96 210.41 239.03 208.99 237.35 207.30 C 237.39 205.20 237.20 203.06 237.67 200.99 M 240.49 206.50 C 241.35 208.89 244.91 209.67 246.49 207.60 C 248.17 206.07 247.46 203.60 247.66 201.60 C 246.24 200.37 244.74 198.96 242.69 199.45 C 240.50 200.84 238.53 204.15 240.49 206.50 Z" />
<path fill="#4e444a" opacity="1.00" d=" M 256.33 197.29 C 258.69 195.77 261.06 198.13 263.23 198.93 C 263.94 200.87 265.03 202.81 264.73 204.95 C 264.65 208.49 261.27 211.24 257.92 211.44 C 254.10 210.68 250.65 206.88 251.50 202.83 C 252.28 200.44 253.94 198.24 256.33 197.29 M 254.50 201.76 C 254.44 203.32 254.40 204.88 254.35 206.44 C 255.88 208.30 257.98 209.02 260.36 208.76 C 261.59 206.68 261.94 204.31 261.86 201.93 C 261.38 201.35 260.44 200.20 259.97 199.63 C 259.16 199.58 257.55 199.47 256.74 199.42 C 255.99 200.20 255.24 200.98 254.50 201.76 Z" />
<path fill="#4e444a" opacity="1.00" d=" M 265.22 205.02 C 265.76 201.26 268.16 197.74 271.97 196.76 C 276.73 196.72 281.56 202.75 278.54 207.15 C 277.03 209.97 273.27 212.68 270.14 210.68 C 267.70 209.65 266.69 207.02 265.22 205.02 M 268.58 205.17 C 269.18 206.39 269.95 207.52 270.68 208.67 C 271.61 208.68 273.48 208.70 274.41 208.71 C 275.26 207.23 276.74 205.86 276.56 204.00 C 276.63 202.19 275.12 200.91 274.26 199.48 C 273.40 199.48 271.68 199.50 270.82 199.50 C 269.72 201.22 267.94 202.91 268.58 205.17 Z" />
<path fill="#4e444a" opacity="1.00" d=" M 283.84 197.90 C 288.22 194.59 294.67 200.16 293.62 205.09 C 293.40 208.21 290.48 209.99 288.17 211.59 C 285.47 211.33 282.49 210.33 281.22 207.73 C 279.25 204.43 280.45 199.76 283.84 197.90 M 282.35 204.01 C 283.58 205.83 284.14 209.21 287.03 208.74 C 290.73 208.73 290.94 204.35 290.67 201.57 C 289.26 200.38 287.78 198.96 285.74 199.44 C 284.02 200.44 283.29 202.38 282.35 204.01 Z" />
<path fill="#4e444a" opacity="1.00" d=" M 266.10 225.51 C 266.66 221.74 270.37 219.39 273.98 219.35 C 276.43 221.30 279.53 223.47 279.54 226.95 C 279.38 230.70 276.04 232.94 272.99 234.42 C 269.63 233.52 266.35 231.52 265.84 227.75 C 264.29 229.60 263.19 232.01 260.98 233.20 C 259.32 233.89 257.47 233.59 255.73 233.75 C 254.02 232.11 252.03 230.45 251.47 228.03 C 250.79 224.34 253.64 220.95 256.92 219.69 C 260.71 218.90 263.98 222.17 264.90 225.62 C 265.20 225.59 265.80 225.54 266.10 225.51 M 254.31 224.66 C 254.37 226.13 254.43 227.60 254.49 229.07 C 255.25 229.90 256.01 230.74 256.78 231.58 C 257.62 231.54 259.30 231.45 260.14 231.40 C 261.29 229.69 262.42 227.88 262.53 225.76 C 261.70 224.62 260.89 223.48 260.10 222.33 C 257.79 222.03 255.66 222.68 254.31 224.66 M 268.45 228.40 C 269.30 229.40 270.14 230.41 270.98 231.43 C 271.79 231.46 273.42 231.53 274.23 231.56 C 277.00 229.03 277.25 224.93 274.46 222.31 C 273.50 222.31 271.58 222.32 270.62 222.32 C 269.30 224.11 268.31 226.11 268.45 228.40 Z" />
<path fill="#4e444a" opacity="1.00" d=" M 280.32 226.99 C 279.95 222.60 284.14 219.30 288.29 219.41 C 290.69 220.83 292.76 222.75 293.73 225.44 C 294.57 226.18 295.41 226.92 296.28 227.64 C 297.68 227.58 299.09 227.52 300.50 227.48 C 300.43 228.41 300.37 229.34 300.31 230.27 C 298.67 230.26 297.03 230.24 295.40 230.22 L 296.12 228.68 C 295.32 228.70 293.72 228.75 292.91 228.77 C 292.78 229.36 292.52 230.55 292.39 231.14 C 291.30 231.98 290.22 232.84 289.15 233.71 C 284.92 234.63 280.11 231.57 280.32 226.99 M 285.02 231.03 C 286.92 232.67 289.19 230.73 290.65 229.42 C 290.74 226.85 291.03 223.19 287.91 222.33 C 283.00 221.05 281.46 228.75 285.02 231.03 Z" />
<path fill="#4e444a" opacity="1.00" d=" M 237.38 223.70 C 239.30 221.35 241.87 219.60 244.99 219.38 C 246.36 220.30 247.75 221.18 249.17 222.05 C 250.83 225.22 251.42 229.59 248.20 232.02 C 244.99 235.52 240.02 233.26 237.46 230.17 C 237.41 228.01 237.38 225.86 237.38 223.70 M 241.95 222.29 C 241.53 222.93 240.69 224.21 240.27 224.85 C 240.25 226.36 240.23 227.87 240.21 229.38 C 241.56 230.85 243.35 231.61 245.31 231.88 C 247.26 229.93 247.85 227.35 247.83 224.67 C 246.28 222.93 244.32 221.92 241.95 222.29 Z" />
</g>
<g id="#fdfdfdfe">
<path fill="#fdfdfd" opacity="1.00" d=" M 218.26 44.20 C 218.97 43.87 219.67 43.53 220.38 43.19 C 220.81 44.93 221.25 46.67 221.69 48.42 C 220.68 48.47 219.67 48.52 218.66 48.57 C 218.53 47.62 218.25 45.71 218.12 44.75 L 217.91 44.57 L 218.26 44.20 Z" />
<path fill="#fdfdfd" opacity="1.00" d=" M 161.49 58.88 C 169.02 57.64 176.64 57.65 184.23 57.19 C 185.91 61.59 188.06 65.83 189.18 70.43 C 189.80 72.95 191.05 75.25 192.42 77.44 C 192.52 77.62 192.73 77.96 192.83 78.13 C 194.57 81.19 196.47 84.15 198.70 86.88 C 203.70 93.08 205.78 100.82 207.91 108.33 C 206.09 108.34 204.28 108.35 202.47 108.35 C 202.22 105.49 202.95 102.25 201.16 99.76 C 198.90 96.57 195.93 93.90 194.16 90.35 C 193.78 89.46 193.44 88.56 193.15 87.63 L 192.40 87.48 C 192.42 87.04 192.46 86.16 192.48 85.72 L 191.37 85.58 L 191.54 84.49 L 190.86 84.30 C 190.54 83.78 189.92 82.73 189.61 82.21 L 189.46 81.86 C 189.13 81.53 188.48 80.87 188.15 80.54 L 187.75 80.46 C 185.99 78.81 184.25 77.13 182.67 75.31 C 181.54 73.11 180.47 70.87 179.30 68.69 C 176.40 67.49 173.44 66.15 171.69 63.40 C 171.44 63.05 170.95 62.35 170.71 62.00 C 168.44 61.30 166.14 60.68 163.90 59.92 L 161.49 58.88 Z" />
<path fill="#fdfdfd" opacity="1.00" d=" M 146.25 61.96 C 152.20 61.65 157.70 57.99 163.76 59.72 C 160.97 61.10 157.66 61.40 155.05 63.07 C 154.52 65.16 154.40 67.32 153.80 69.39 C 153.70 69.78 153.50 70.55 153.40 70.93 C 151.42 70.64 150.31 69.08 149.23 67.56 L 148.85 67.47 C 148.53 67.13 147.90 66.44 147.59 66.10 L 147.35 65.94 C 147.13 65.76 146.68 65.40 146.46 65.22 C 146.37 64.13 146.30 63.04 146.25 61.96 Z" />
<path fill="#fdfdfd" opacity="1.00" d=" M 131.22 64.47 C 131.88 64.40 133.19 64.26 133.85 64.19 C 133.10 66.36 132.42 68.55 131.99 70.80 L 133.70 70.25 C 133.47 72.51 132.78 74.67 132.04 76.81 C 131.46 76.08 130.88 75.35 130.31 74.62 C 130.42 74.20 130.65 73.37 130.76 72.95 C 132.42 70.37 131.20 67.29 131.22 64.47 Z" />
<path fill="#fdfdfd" opacity="1.00" d=" M 115.87 68.87 C 119.65 68.84 122.98 66.99 126.38 65.60 C 123.04 72.13 121.43 79.45 122.38 86.78 C 124.75 88.24 126.39 90.40 126.78 93.21 C 125.64 93.69 124.51 94.17 123.37 94.65 C 123.40 95.16 123.46 96.17 123.49 96.67 C 125.50 96.66 127.51 96.61 129.52 96.56 C 130.81 94.90 132.81 93.40 132.60 91.05 C 132.79 87.71 133.23 84.39 133.91 81.12 C 135.18 78.75 136.41 76.35 137.73 74.01 C 139.13 72.76 140.52 71.49 141.92 70.24 C 143.15 72.22 144.44 74.17 145.69 76.14 C 145.59 76.63 145.38 77.61 145.27 78.10 C 142.31 80.32 140.42 83.55 138.82 86.81 C 138.44 87.87 138.06 88.94 137.67 90.01 C 137.45 94.09 137.50 98.19 137.51 102.28 C 140.54 105.75 143.60 109.22 146.14 113.08 L 147.06 114.26 C 136.95 114.52 126.78 113.76 116.78 115.70 C 115.30 116.83 113.83 117.98 112.35 119.12 C 112.37 118.14 112.41 116.19 112.43 115.21 C 113.27 111.47 113.79 107.64 113.59 103.79 C 112.47 103.64 111.35 103.50 110.23 103.35 C 107.31 97.73 101.41 94.77 97.15 90.33 C 96.60 89.81 96.06 89.28 95.52 88.75 C 93.56 86.77 91.67 84.71 89.72 82.72 C 92.29 82.01 94.87 81.34 97.40 80.48 C 97.39 79.02 97.40 77.57 97.42 76.11 C 100.65 74.83 103.84 73.43 107.09 72.19 C 109.08 71.39 111.11 70.67 113.19 70.09 C 114.08 69.69 114.98 69.29 115.87 68.87 Z" />
<path fill="#fdfdfd" opacity="1.00" d=" M 192.07 68.42 C 192.57 68.50 193.57 68.66 194.07 68.74 C 196.73 73.64 200.85 78.26 200.68 84.16 C 197.03 81.98 196.06 77.46 193.72 74.16 C 192.90 72.33 192.29 70.42 192.07 68.42 Z" />
<path fill="#fdfdfd" opacity="1.00" d=" M 126.86 71.13 C 127.25 70.33 128.05 68.72 128.45 67.91 C 128.52 69.80 128.53 71.69 128.55 73.58 L 127.76 73.45 C 127.73 76.00 126.81 78.38 125.31 80.41 C 124.99 77.21 126.14 74.19 126.86 71.13 Z" />
<path fill="#fdfdfd" opacity="1.00" d=" M 130.09 74.69 C 130.34 76.95 130.45 79.22 130.57 81.49 L 129.64 81.47 C 129.69 83.64 129.68 85.81 129.55 87.97 C 128.14 87.43 126.75 86.81 125.35 86.21 C 125.35 85.46 125.36 84.70 125.37 83.95 C 126.62 82.56 127.80 81.10 128.88 79.58 L 129.35 79.69 C 129.54 78.44 129.91 75.94 130.09 74.69 Z" />
<path fill="#fdfdfd" opacity="1.00" d=" M 66.23 94.44 C 73.28 91.15 79.84 86.88 86.08 82.25 C 88.65 85.39 91.35 88.42 94.27 91.26 C 94.37 91.74 94.48 92.23 94.58 92.71 C 94.47 92.75 94.26 92.83 94.15 92.87 C 92.69 92.36 91.25 91.80 89.80 91.26 C 88.57 90.70 87.34 90.15 86.11 89.60 C 82.34 89.51 78.30 89.75 75.24 92.23 C 70.38 96.44 63.68 98.39 60.06 104.00 C 57.16 109.11 55.78 115.11 56.45 120.97 C 57.40 121.58 58.35 122.19 59.30 122.81 C 59.43 124.21 59.56 125.60 59.71 127.00 C 60.27 128.61 60.76 130.23 61.27 131.85 C 61.39 134.58 60.76 137.74 62.73 139.99 C 64.23 142.04 65.73 144.38 68.18 145.39 C 72.84 147.33 77.94 147.77 82.89 148.49 C 82.66 150.51 82.43 152.54 82.23 154.57 C 81.62 155.30 81.02 156.03 80.42 156.76 C 80.41 160.20 80.56 163.65 80.40 167.10 C 80.22 170.46 78.69 173.59 78.58 176.97 C 78.45 179.59 78.47 182.23 78.34 184.86 C 77.56 187.76 77.06 190.71 76.51 193.66 C 75.63 193.64 74.75 193.62 73.87 193.61 C 70.41 186.12 66.38 178.91 61.74 172.08 C 61.64 171.52 61.45 170.41 61.35 169.85 C 60.09 167.68 58.90 165.46 57.75 163.23 C 56.84 161.09 55.85 158.99 54.79 156.92 C 54.21 153.88 53.39 150.88 52.18 148.03 C 50.31 143.39 46.82 139.73 43.87 135.79 C 42.82 134.14 40.60 134.60 38.98 134.18 C 38.02 129.45 37.08 123.91 40.12 119.72 C 41.53 117.68 42.06 115.22 42.69 112.87 C 52.24 109.18 58.24 100.34 66.23 94.44 Z" />
<path fill="#fdfdfd" opacity="1.00" d=" M 77.29 93.60 C 81.11 93.22 85.15 92.56 88.85 93.98 C 91.88 95.10 94.95 96.10 98.09 96.90 C 99.93 99.23 101.97 101.50 103.07 104.31 C 104.03 106.46 104.56 109.06 106.69 110.43 C 107.53 110.17 109.20 109.65 110.03 109.40 C 110.78 115.96 107.29 122.28 102.55 126.62 C 98.82 129.83 97.80 135.09 93.91 138.12 C 91.61 140.17 89.49 142.42 87.29 144.57 C 83.15 144.89 79.01 144.69 74.88 144.36 C 71.71 143.37 67.99 142.86 65.99 139.85 C 63.69 137.79 64.27 134.58 64.23 131.83 C 63.72 130.57 63.21 129.31 62.68 128.07 C 62.55 126.31 62.44 124.56 62.35 122.81 C 67.17 121.59 72.40 120.53 75.79 116.55 C 75.22 113.82 75.07 110.48 72.64 108.67 C 69.54 107.43 66.12 107.64 62.85 107.45 C 63.70 111.46 68.63 111.10 71.78 111.49 C 72.21 113.06 72.57 114.66 72.91 116.26 C 68.76 118.40 64.19 119.45 59.75 120.81 C 58.00 117.95 58.87 114.83 59.74 111.85 C 61.09 107.93 62.56 103.73 66.22 101.35 C 70.05 98.98 74.09 96.86 77.29 93.60 Z" />
<path fill="#fdfdfd" opacity="1.00" d=" M 104.33 101.21 C 104.92 101.37 106.10 101.69 106.69 101.84 C 106.61 102.21 106.44 102.94 106.36 103.30 C 107.08 103.34 108.50 103.42 109.21 103.47 C 109.85 105.00 110.56 106.50 111.34 107.98 C 109.07 108.04 106.81 107.42 106.17 105.03 C 105.74 103.67 105.23 102.33 104.33 101.21 Z" />
<path fill="#fdfdfd" opacity="1.00" d=" M 212.56 111.83 C 213.06 111.74 214.07 111.56 214.58 111.47 L 214.26 112.69 L 215.06 112.49 C 215.49 113.68 215.91 114.88 216.32 116.08 C 216.38 116.30 216.51 116.74 216.57 116.96 C 217.48 118.58 218.31 120.23 219.21 121.85 C 221.69 126.39 220.59 131.76 220.35 136.68 C 219.82 135.65 219.43 134.56 219.21 133.42 L 218.73 133.55 C 218.52 132.01 218.31 130.47 218.05 128.94 C 217.65 127.32 217.31 125.67 216.80 124.08 C 215.83 121.75 214.81 119.44 213.95 117.07 C 213.58 115.70 213.47 114.28 213.10 112.91 C 212.97 112.64 212.69 112.10 212.56 111.83 Z" />
<path fill="#fdfdfd" opacity="1.00" d=" M 197.38 119.42 C 199.01 116.81 200.23 113.72 202.74 111.84 C 204.96 111.61 207.20 111.67 209.43 111.61 C 210.94 114.99 211.46 118.74 213.34 121.95 C 214.12 128.01 212.29 133.95 212.54 140.00 C 212.56 143.59 212.74 147.18 212.67 150.77 C 207.48 146.31 205.09 139.76 202.27 133.76 C 199.14 129.58 198.83 124.26 197.38 119.42 Z" />
<path fill="#fdfdfd" opacity="1.00" d=" M 33.53 118.01 C 35.44 116.59 37.36 114.97 39.93 115.50 C 38.61 117.33 37.34 119.19 36.10 121.07 L 35.70 121.41 C 35.24 121.81 34.32 122.61 33.85 123.01 C 33.74 121.34 33.63 119.67 33.53 118.01 Z" />
<path fill="#fdfdfd" opacity="1.00" d=" M 129.06 123.18 C 131.76 122.12 134.70 122.44 137.52 122.49 C 137.54 127.96 137.79 133.44 137.48 138.90 C 135.44 138.81 133.65 137.92 132.00 136.79 C 130.21 135.97 128.42 135.15 126.65 134.28 C 126.47 133.71 126.13 132.57 125.95 132.00 C 124.63 129.75 122.89 127.80 121.22 125.82 C 122.74 125.09 124.34 124.52 125.96 124.03 C 126.99 123.75 128.03 123.46 129.06 123.18 Z" />
<path fill="#fdfdfd" opacity="1.00" d=" M 140.38 123.22 C 142.95 123.30 145.52 123.43 148.09 123.61 C 157.30 127.20 165.45 132.91 174.18 137.45 C 175.21 137.54 176.24 137.63 177.28 137.71 C 180.15 138.86 182.85 140.36 185.51 141.92 C 185.58 140.89 185.63 139.86 185.66 138.83 C 183.70 137.77 181.71 136.77 179.69 135.82 C 179.72 135.02 179.74 134.23 179.77 133.43 C 181.89 133.80 183.98 134.30 186.07 134.82 C 194.38 142.24 197.20 153.63 204.45 161.93 C 204.87 167.64 205.02 173.38 204.61 179.10 C 204.44 182.05 202.22 184.36 200.13 186.23 C 195.72 187.43 191.14 187.48 186.60 187.45 C 185.31 182.62 185.61 177.65 186.51 172.79 C 186.84 172.19 187.51 171.00 187.84 170.41 C 188.38 170.51 189.45 170.70 189.98 170.80 C 193.33 172.40 196.35 174.57 199.10 177.04 C 200.05 177.95 201.53 177.55 202.71 177.82 C 199.64 172.64 194.12 169.83 188.85 167.38 C 187.01 168.41 185.24 169.54 183.51 170.75 C 183.40 172.57 183.29 174.39 183.17 176.22 C 178.85 173.89 178.15 168.54 174.59 165.47 C 171.90 163.01 169.61 159.66 165.98 158.57 C 158.31 159.82 154.15 167.12 148.51 171.63 C 146.44 170.26 144.67 167.15 141.89 167.65 C 135.91 170.60 131.14 176.24 129.96 182.90 C 128.96 184.73 127.88 186.53 126.67 188.24 C 126.57 188.95 126.48 189.67 126.39 190.39 C 126.94 190.41 128.04 190.44 128.59 190.46 C 130.23 188.07 131.67 185.54 132.89 182.90 C 133.77 177.59 137.51 173.43 141.89 170.58 C 144.34 170.79 145.86 173.19 147.81 174.48 C 148.90 174.06 150.00 173.65 151.10 173.24 C 155.67 168.94 159.53 162.64 166.09 161.47 C 169.42 163.56 172.12 166.53 174.63 169.52 C 175.42 170.32 175.50 171.47 175.73 172.51 C 173.17 173.98 171.13 176.17 169.87 178.85 C 169.32 181.55 167.69 183.80 166.09 185.97 C 163.17 184.67 160.37 182.01 156.95 182.76 C 154.32 183.47 151.81 184.74 149.73 186.51 C 148.43 189.26 147.80 192.26 146.70 195.09 C 146.61 197.79 146.60 200.50 146.54 203.21 C 143.36 199.74 139.37 197.20 135.03 195.43 C 131.65 196.53 127.75 197.58 125.83 200.88 C 123.12 205.53 121.65 210.77 119.18 215.54 C 118.80 215.52 118.04 215.49 117.67 215.48 C 114.97 211.92 111.84 208.11 107.20 207.24 C 102.98 210.03 98.67 212.78 94.96 216.24 C 94.73 216.94 94.29 218.33 94.07 219.02 C 99.78 217.44 103.16 211.18 109.08 210.45 C 112.97 213.24 115.47 217.61 119.73 219.94 C 122.78 214.60 125.12 208.92 127.53 203.28 C 128.88 199.98 132.61 199.08 135.71 198.26 C 137.92 199.78 140.30 201.06 142.35 202.79 C 144.46 204.78 145.70 207.48 146.96 210.06 C 143.83 211.85 140.71 213.63 137.59 215.43 C 135.20 216.96 132.06 215.96 129.71 217.53 C 127.03 219.02 124.93 221.29 122.90 223.54 C 121.15 223.48 119.39 223.62 117.65 223.50 C 112.90 222.30 108.00 222.17 103.13 222.19 C 100.74 221.56 98.31 221.07 95.92 220.46 C 94.85 220.02 93.77 219.60 92.68 219.21 C 90.70 218.18 88.83 216.94 87.33 215.26 C 92.79 209.27 94.58 201.25 98.30 194.26 C 98.54 192.87 98.76 191.48 99.03 190.10 C 99.51 187.64 100.27 185.24 101.18 182.90 C 101.87 176.60 100.66 170.09 103.04 164.01 C 103.56 161.36 103.60 158.65 103.72 155.96 C 105.31 152.48 105.62 148.67 105.57 144.90 C 106.47 143.61 107.35 142.32 108.22 141.02 C 111.11 140.92 112.78 143.32 114.43 145.31 C 112.74 145.31 111.04 145.32 109.34 145.33 C 109.40 146.21 109.45 147.10 109.51 147.98 C 111.98 148.04 115.13 149.02 114.58 152.16 C 112.02 153.87 109.14 154.99 106.40 156.36 C 106.44 157.02 106.51 158.35 106.55 159.01 C 110.00 157.74 113.51 156.46 116.63 154.49 C 117.40 153.20 117.35 151.64 117.66 150.21 C 118.16 150.28 119.17 150.41 119.67 150.48 C 120.32 151.15 120.97 151.83 121.61 152.51 C 123.57 152.53 125.54 152.55 127.50 152.56 C 130.93 148.87 130.49 143.73 130.38 139.08 C 133.21 140.57 136.15 141.84 139.21 142.80 C 140.18 139.40 140.64 135.90 140.66 132.37 C 144.09 133.86 147.77 134.64 151.53 134.54 C 153.14 132.97 154.67 131.20 154.72 128.82 C 153.73 128.57 152.74 128.33 151.75 128.08 C 151.55 128.88 151.16 130.46 150.97 131.25 C 148.97 131.61 146.93 131.43 144.92 131.38 C 143.39 130.68 141.92 129.83 140.37 129.16 C 140.35 127.18 140.38 125.20 140.38 123.22 Z" />
<path fill="#fdfdfd" opacity="1.00" d=" M 118.10 128.60 C 118.77 128.48 119.45 128.37 120.13 128.26 C 121.18 129.81 122.26 131.34 123.36 132.85 C 123.42 133.50 123.52 134.81 123.58 135.47 L 124.12 135.62 C 125.24 136.38 126.28 137.25 127.43 137.97 C 127.26 141.90 128.08 146.03 126.42 149.73 C 124.07 149.99 121.84 149.41 120.22 147.61 C 119.01 147.52 117.80 147.44 116.59 147.37 C 116.49 145.90 116.62 144.40 116.28 142.96 C 114.28 141.09 112.00 139.41 111.15 136.66 L 112.51 136.38 C 112.48 136.01 112.41 135.27 112.38 134.90 C 114.30 132.82 116.28 130.78 118.10 128.60 Z" />
<path fill="#fdfdfd" opacity="1.00" d=" M 33.53 134.35 L 34.53 133.87 C 34.79 138.59 34.69 143.31 34.38 148.02 L 33.47 147.52 C 33.26 143.14 33.14 138.73 33.53 134.35 Z" />
<path fill="#fdfdfd" opacity="1.00" d=" M 33.52 164.90 C 33.60 164.82 33.76 164.66 33.84 164.58 L 34.92 164.12 C 35.58 165.45 36.20 166.79 36.93 168.09 C 37.34 169.74 37.60 171.41 37.89 173.09 C 38.42 175.20 38.53 177.38 38.68 179.54 L 39.33 179.45 C 39.36 180.13 39.41 181.50 39.44 182.19 C 40.11 183.04 40.78 183.90 41.45 184.75 C 41.48 185.93 41.51 187.10 41.53 188.28 C 42.30 190.21 43.12 192.14 44.15 193.96 C 45.04 195.54 45.62 197.26 45.99 199.04 C 46.30 200.60 46.46 202.20 46.61 203.79 L 47.45 203.44 C 47.38 204.03 47.26 205.20 47.19 205.79 C 47.03 205.75 46.71 205.67 46.55 205.63 L 47.04 204.42 L 45.58 204.57 L 45.52 203.27 L 44.87 203.43 C 43.22 200.54 41.30 197.78 40.10 194.65 L 39.36 194.43 C 39.41 193.98 39.52 193.08 39.58 192.63 L 38.44 192.44 C 38.43 192.10 38.41 191.42 38.40 191.08 C 37.89 189.90 37.53 188.68 37.32 187.41 C 37.22 187.40 37.03 187.37 36.93 187.36 C 36.62 185.86 36.32 184.36 35.78 182.93 C 35.61 179.62 35.66 176.32 35.34 173.03 C 34.73 171.71 34.13 170.39 33.49 169.09 C 33.49 168.92 33.47 168.58 33.46 168.41 C 33.47 167.24 33.49 166.07 33.52 164.90 Z" />
<path fill="#fdfdfd" opacity="1.00" d=" M 173.05 178.17 C 174.38 176.73 175.71 174.68 178.02 175.29 C 179.68 176.53 181.00 178.16 182.40 179.69 C 182.43 182.36 182.83 185.00 183.48 187.59 C 181.52 187.68 179.54 187.69 177.58 187.68 L 177.33 188.12 C 173.53 190.29 170.51 193.55 166.71 195.71 C 164.04 197.69 161.54 199.88 158.87 201.87 C 155.77 203.71 152.69 205.59 149.46 207.20 C 149.82 202.03 148.87 196.70 150.65 191.72 C 151.67 189.17 153.38 187.03 155.75 185.61 C 157.24 185.60 158.73 185.58 160.23 185.57 C 161.23 186.33 162.22 187.12 163.22 187.90 C 163.74 189.13 164.21 190.38 164.74 191.61 C 165.38 191.57 166.66 191.49 167.30 191.45 C 167.35 190.18 167.42 188.92 167.50 187.66 C 170.46 185.24 172.40 181.95 173.05 178.17 Z" />
<path fill="#fdfdfd" opacity="1.00" d=" M 198.56 189.71 C 200.93 189.04 202.78 187.34 204.61 185.79 C 204.95 185.62 205.63 185.30 205.97 185.13 C 208.04 189.92 211.61 193.92 213.26 198.91 C 214.50 202.59 216.89 206.10 216.66 210.11 C 215.40 213.08 213.42 215.77 212.91 219.03 C 211.88 224.77 208.49 229.81 207.95 235.66 C 207.64 235.66 207.02 235.65 206.71 235.64 C 206.62 236.57 206.45 238.44 206.37 239.37 C 165.51 239.32 124.65 239.50 83.80 239.28 C 83.71 238.80 83.54 237.83 83.45 237.35 C 81.60 235.79 79.53 234.54 77.48 233.29 C 77.89 232.60 78.28 231.91 78.66 231.21 C 79.05 230.02 79.42 228.82 79.78 227.62 C 81.84 224.94 83.73 222.13 85.24 219.10 C 90.19 220.86 94.79 223.63 99.99 224.66 C 103.28 225.39 106.66 225.19 109.99 225.47 C 114.07 225.75 118.08 227.03 122.20 226.63 C 126.92 224.80 129.33 218.47 135.19 219.21 C 144.43 216.84 150.63 209.00 159.01 204.91 C 165.36 200.19 171.84 195.60 178.00 190.60 C 184.43 190.38 190.91 190.72 197.31 190.00 C 197.63 189.93 198.25 189.78 198.56 189.71 Z" />
<path fill="#fdfdfd" opacity="1.00" d=" M 49.42 213.67 C 52.22 215.46 54.47 217.93 56.08 220.83 C 56.73 222.67 57.62 224.42 58.69 226.06 C 66.59 229.96 74.27 234.43 81.59 239.37 C 73.40 239.39 65.21 239.31 57.02 239.44 C 56.96 237.20 55.81 235.37 54.14 233.97 C 51.20 231.03 50.32 226.98 49.71 223.02 C 49.53 219.91 49.35 216.79 49.42 213.67 Z" />
</g>
</svg>
