<?xml version="1.0" encoding="UTF-8" ?>
<!DOCTYPE svg PUBLIC "-//W3C//DTD SVG 1.1//EN" "http://www.w3.org/Graphics/SVG/1.1/DTD/svg11.dtd">
<svg width="210pt" height="220pt" viewBox="0 0 210 220" version="1.1" xmlns="http://www.w3.org/2000/svg">
<g id="#020202ff">
<path fill="#020202" opacity="1.00" d=" M 102.77 4.98 C 105.79 4.23 108.89 3.74 112.01 3.67 C 118.36 5.11 125.00 5.23 131.15 7.48 C 137.36 9.78 143.40 12.51 149.19 15.73 C 153.72 18.32 159.05 19.51 163.03 23.02 C 166.43 25.98 169.51 29.32 172.03 33.07 C 176.00 39.02 184.16 40.04 188.19 45.97 C 190.87 50.39 192.14 55.56 195.26 59.74 C 199.71 65.98 201.10 73.71 203.92 80.72 C 206.48 86.47 205.24 92.89 205.50 98.97 C 204.13 116.40 201.53 133.89 195.87 150.50 C 192.81 160.53 189.13 170.37 184.91 179.97 C 182.85 185.03 180.62 190.38 176.14 193.78 C 168.56 199.21 159.10 200.74 150.04 201.60 C 143.75 202.06 137.30 200.82 131.14 202.64 C 131.20 207.77 133.19 212.70 132.58 217.87 C 131.58 217.91 130.58 217.95 129.59 218.00 C 129.46 213.34 129.20 208.43 127.08 204.19 C 124.22 200.62 118.61 201.25 114.75 202.56 C 109.19 206.31 106.96 213.25 102.07 217.70 C 101.40 217.82 100.06 218.05 99.39 218.17 C 101.69 213.16 105.40 209.00 108.70 204.65 C 109.38 203.78 111.15 202.78 110.51 201.51 C 109.32 201.36 108.28 201.74 107.39 202.64 C 107.16 202.81 106.70 203.15 106.47 203.32 C 99.12 205.24 93.53 211.13 90.02 217.63 C 89.47 217.79 88.37 218.12 87.82 218.28 C 89.08 212.37 93.27 207.66 98.17 204.38 C 99.79 203.30 101.60 202.59 103.39 201.87 C 103.40 201.65 103.42 201.20 103.43 200.97 C 95.37 198.52 87.01 197.44 78.81 195.54 C 73.36 195.01 68.06 193.40 63.07 191.17 C 52.51 186.96 45.50 177.49 39.88 168.06 C 34.13 158.38 25.75 150.65 19.80 141.13 C 17.54 137.65 14.35 134.26 14.37 129.86 C 14.33 124.97 14.09 120.05 14.84 115.20 C 16.14 107.52 14.50 99.66 15.94 91.98 C 16.73 87.35 15.94 82.61 16.68 77.96 C 18.21 70.05 16.16 61.79 18.73 54.02 C 20.18 47.33 25.62 42.78 29.51 37.51 C 35.99 29.53 40.61 19.09 50.60 14.83 C 64.57 10.20 79.49 10.15 94.05 10.50 C 103.22 11.76 112.58 11.76 121.78 10.76 C 121.71 9.74 121.65 8.71 121.60 7.69 C 115.31 6.81 109.07 5.68 102.77 4.98 M 123.56 9.02 C 122.42 11.22 126.87 11.65 127.65 10.24 C 126.73 9.19 124.90 8.23 123.56 9.02 M 109.70 13.83 C 115.97 14.43 121.83 19.52 121.66 26.12 C 118.75 21.52 114.15 18.37 108.87 17.09 C 94.46 13.58 79.14 14.12 64.82 17.78 C 42.39 24.98 24.91 45.50 21.57 68.84 C 20.82 76.92 22.18 85.03 21.41 93.11 C 20.84 97.16 18.73 100.86 18.49 104.97 C 18.22 109.38 18.32 113.80 18.76 118.19 C 17.93 118.70 17.10 119.20 16.25 119.69 C 16.33 122.56 16.45 125.42 16.63 128.28 C 17.02 128.98 17.81 130.38 18.20 131.07 C 18.31 129.85 18.40 128.62 18.47 127.40 C 19.00 126.65 19.40 125.86 19.67 125.01 C 19.32 123.19 16.46 122.63 17.64 120.17 C 18.38 119.53 19.10 118.85 19.85 118.23 C 18.15 120.68 20.20 123.42 20.53 125.94 C 20.74 129.79 22.33 133.37 23.64 136.95 C 30.02 152.52 41.10 165.42 51.74 178.21 C 53.42 180.10 54.65 182.88 57.46 183.20 C 70.21 185.88 81.39 193.31 94.19 195.83 C 100.46 197.01 106.83 197.57 113.21 197.77 C 121.97 198.61 130.92 198.67 139.68 197.78 C 143.63 197.66 147.58 197.35 151.48 196.62 L 152.03 197.07 C 152.21 197.42 152.56 198.13 152.74 198.48 C 163.02 199.71 172.25 193.44 178.68 186.01 C 178.66 185.16 178.63 183.45 178.61 182.60 C 175.44 185.72 172.94 189.54 169.24 192.12 C 166.00 194.77 161.94 195.96 158.06 197.31 C 156.70 197.56 155.42 197.40 154.22 196.85 C 154.24 196.64 154.29 196.20 154.32 195.98 C 159.46 195.12 164.98 193.65 168.28 189.27 C 178.69 178.42 189.71 166.74 192.75 151.46 C 196.08 132.54 200.22 113.32 197.99 94.02 C 197.46 87.36 193.87 81.49 193.13 74.89 C 190.83 63.30 187.10 50.30 176.16 43.98 C 178.00 52.09 178.99 60.92 175.82 68.84 C 174.42 72.84 171.10 75.69 167.26 77.29 C 160.81 77.77 154.26 77.74 147.94 76.23 C 142.80 75.04 137.14 73.82 133.58 69.57 C 132.98 65.70 133.86 61.89 134.50 58.10 C 132.03 60.64 129.28 62.92 125.88 64.09 C 123.20 64.49 120.49 64.68 117.79 64.80 C 112.93 65.49 108.01 65.18 103.13 65.46 C 103.51 70.78 102.79 76.14 101.28 81.25 C 99.00 86.12 95.18 90.24 90.16 92.33 C 83.09 95.16 75.19 96.29 67.63 95.20 C 71.28 93.29 76.32 95.07 79.24 92.01 C 72.46 91.71 65.66 91.07 59.05 89.47 C 55.62 88.54 52.08 87.14 49.73 84.36 C 46.30 79.52 46.82 72.28 51.03 68.05 C 53.21 65.52 56.62 64.50 58.76 61.94 C 53.12 60.97 46.95 62.85 41.70 60.12 C 45.90 58.25 50.39 57.34 54.93 56.74 C 58.99 57.16 63.07 57.43 67.13 57.86 C 73.98 59.26 80.99 59.86 87.98 59.52 C 86.26 58.48 84.49 57.50 82.91 56.27 C 84.22 56.44 86.84 56.77 88.15 56.94 C 95.11 58.31 103.78 55.23 109.20 61.17 C 120.03 56.53 131.43 53.35 142.12 48.37 C 150.98 49.18 159.77 46.87 168.07 43.96 C 169.95 43.07 172.57 42.61 173.25 40.33 C 173.03 36.83 170.43 34.11 167.77 32.11 C 160.63 26.77 153.33 21.42 144.93 18.20 C 134.84 14.00 123.90 12.14 112.98 12.85 C 112.16 13.10 110.52 13.58 109.70 13.83 M 51.66 17.73 C 47.44 19.50 43.20 22.45 41.96 27.11 C 49.03 23.22 55.98 19.03 63.57 16.22 L 63.43 15.48 L 65.28 14.93 C 60.64 15.22 55.96 15.88 51.66 17.73 M 21.19 57.56 C 21.44 57.59 21.94 57.65 22.18 57.68 C 23.35 54.94 24.81 52.33 26.47 49.85 C 26.15 49.48 25.51 48.72 25.19 48.35 C 23.69 51.34 21.82 54.22 21.19 57.56 M 172.70 48.28 C 171.39 49.79 169.91 51.15 168.21 52.21 C 168.46 54.71 168.51 57.56 166.49 59.38 C 163.18 62.69 158.17 61.79 153.97 61.53 C 153.61 61.18 152.89 60.48 152.53 60.13 C 152.53 58.54 152.55 56.94 152.55 55.34 C 150.03 55.29 147.50 55.40 145.00 55.82 C 142.59 56.57 140.11 57.06 137.65 57.59 C 137.22 61.84 136.96 66.12 137.49 70.37 C 144.98 73.77 153.47 75.45 161.64 74.02 C 167.33 73.00 172.71 69.33 174.91 63.87 C 176.56 58.85 176.96 53.08 174.08 48.42 C 173.73 48.39 173.04 48.32 172.70 48.28 M 54.32 69.00 C 50.63 71.25 49.28 76.17 50.72 80.14 C 54.01 84.75 59.76 86.72 64.99 88.23 C 73.86 90.29 83.83 91.72 92.20 87.22 C 98.87 83.01 100.41 74.31 100.56 67.01 C 99.38 66.57 98.21 66.11 97.04 65.64 C 96.23 65.67 94.62 65.74 93.81 65.77 C 91.39 66.37 88.90 66.33 86.44 66.19 C 86.91 69.88 85.99 73.67 83.16 76.21 C 78.77 77.24 74.24 77.64 69.86 76.29 C 69.29 75.96 68.15 75.30 67.58 74.97 C 67.54 73.52 67.51 72.07 67.49 70.62 C 69.03 68.67 70.93 67.06 72.87 65.52 C 66.55 65.05 59.68 65.15 54.32 69.00 M 194.31 64.85 C 194.86 69.37 196.71 73.60 197.55 78.08 C 200.27 89.93 200.94 102.09 201.79 114.17 C 204.97 102.26 204.00 89.48 200.24 77.82 C 198.59 73.35 196.88 68.87 194.31 64.85 Z" />
<path fill="#020202" opacity="1.00" d=" M 114.43 33.76 C 117.87 32.61 122.50 27.98 125.61 31.94 C 114.29 38.47 100.59 32.25 88.97 37.63 C 92.37 32.32 99.60 32.70 104.89 34.42 C 108.08 34.79 111.29 34.79 114.49 34.53 L 114.43 33.76 Z" />
<path fill="#020202" opacity="1.00" d=" M 118.49 41.41 C 121.27 39.60 124.39 37.74 127.86 38.59 C 122.12 44.96 113.00 45.44 105.03 45.22 C 97.49 44.50 89.85 44.25 82.37 45.70 C 82.03 45.88 81.34 46.22 81.00 46.39 C 84.77 42.22 90.93 42.31 96.09 42.68 C 100.05 43.17 104.08 43.36 107.96 44.33 C 111.63 44.24 115.41 43.51 118.49 41.41 Z" />
<path fill="#020202" opacity="1.00" d=" M 113.91 69.86 C 117.71 69.16 121.74 70.10 125.37 68.53 C 125.42 69.03 125.50 70.03 125.55 70.53 C 123.37 71.38 121.04 71.63 118.76 72.02 C 120.74 72.69 122.85 72.66 124.91 72.84 C 124.73 73.43 124.37 74.62 124.19 75.22 C 121.64 74.92 119.12 74.37 116.58 74.02 C 116.62 73.42 116.68 72.22 116.72 71.63 C 116.02 71.18 114.61 70.30 113.91 69.86 Z" />
<path fill="#020202" opacity="1.00" d=" M 132.91 75.77 C 137.39 74.79 141.74 76.43 146.07 77.33 C 153.23 79.09 160.61 79.13 167.90 79.64 C 157.75 84.00 147.04 79.08 136.95 77.10 C 135.60 76.66 134.24 76.25 132.91 75.77 Z" />
<path fill="#020202" opacity="1.00" d=" M 124.77 80.84 C 129.61 85.82 134.92 91.20 135.95 98.39 C 131.52 100.21 126.72 100.95 121.94 100.55 C 124.16 96.58 129.62 98.88 132.91 96.40 C 130.09 91.27 123.85 87.43 124.77 80.84 Z" />
<path fill="#020202" opacity="1.00" d=" M 166.71 109.57 C 170.66 104.21 176.22 100.34 181.40 96.26 C 181.31 96.63 181.12 97.37 181.03 97.74 C 177.64 103.88 169.94 106.40 167.30 113.06 C 165.77 116.32 166.98 119.86 167.43 123.21 C 166.99 122.35 166.56 121.48 166.15 120.61 L 165.43 120.55 C 164.15 116.89 164.36 112.76 166.71 109.57 Z" />
<path fill="#020202" opacity="1.00" d=" M 108.98 112.41 C 115.63 110.80 122.45 112.00 129.11 112.81 C 133.29 113.81 137.50 114.73 141.68 115.74 C 141.44 118.77 141.52 121.81 141.56 124.84 C 137.85 122.66 135.34 118.57 130.96 117.63 C 118.99 114.33 106.21 119.19 97.03 126.96 C 96.26 125.62 95.21 124.45 94.64 123.00 C 97.14 117.21 102.80 113.28 108.98 112.41 Z" />
<path fill="#020202" opacity="1.00" d=" M 48.86 115.67 C 50.38 115.60 51.98 115.16 53.46 115.73 C 59.65 118.22 64.21 123.30 69.58 127.06 C 69.28 131.88 70.41 136.54 71.84 141.09 C 68.53 140.51 67.34 136.93 67.59 133.96 C 67.32 132.07 68.26 129.74 66.73 128.24 C 62.04 122.48 55.42 118.88 48.86 115.67 Z" />
<path fill="#020202" opacity="1.00" d=" M 110.20 140.75 C 111.33 133.65 124.84 132.89 124.77 140.81 C 123.20 140.04 121.68 139.14 120.03 138.54 C 116.58 138.02 113.51 140.18 110.20 140.75 Z" />
</g>
<g id="#fefefeff">
<path fill="#fefefe" opacity="1.00" d=" M 123.56 9.02 C 124.90 8.23 126.73 9.19 127.65 10.24 C 126.87 11.65 122.42 11.22 123.56 9.02 Z" />
<path fill="#fefefe" opacity="1.00" d=" M 109.70 13.83 C 110.52 13.58 112.16 13.10 112.98 12.85 C 123.90 12.14 134.84 14.00 144.93 18.20 C 153.33 21.42 160.63 26.77 167.77 32.11 C 170.43 34.11 173.03 36.83 173.25 40.33 C 172.57 42.61 169.95 43.07 168.07 43.96 C 159.77 46.87 150.98 49.18 142.12 48.37 C 131.43 53.35 120.03 56.53 109.20 61.17 C 103.78 55.23 95.11 58.31 88.15 56.94 C 86.84 56.77 84.22 56.44 82.91 56.27 C 84.49 57.50 86.26 58.48 87.98 59.52 C 80.99 59.86 73.98 59.26 67.13 57.86 C 63.07 57.43 58.99 57.16 54.93 56.74 C 50.39 57.34 45.90 58.25 41.70 60.12 C 46.95 62.85 53.12 60.97 58.76 61.94 C 56.62 64.50 53.21 65.52 51.03 68.05 C 46.82 72.28 46.30 79.52 49.73 84.36 C 52.08 87.14 55.62 88.54 59.05 89.47 C 65.66 91.07 72.46 91.71 79.24 92.01 C 76.32 95.07 71.28 93.29 67.63 95.20 C 75.19 96.29 83.09 95.16 90.16 92.33 C 95.18 90.24 99.00 86.12 101.28 81.25 C 102.79 76.14 103.51 70.78 103.13 65.46 C 108.01 65.18 112.93 65.49 117.79 64.80 C 120.49 64.68 123.20 64.49 125.88 64.09 C 129.28 62.92 132.03 60.64 134.50 58.10 C 133.86 61.89 132.98 65.70 133.58 69.57 C 137.14 73.82 142.80 75.04 147.94 76.23 C 154.26 77.74 160.81 77.77 167.26 77.29 C 171.10 75.69 174.42 72.84 175.82 68.84 C 178.99 60.92 178.00 52.09 176.16 43.98 C 187.10 50.30 190.83 63.30 193.13 74.89 C 193.87 81.49 197.46 87.36 197.99 94.02 C 200.22 113.32 196.08 132.54 192.75 151.46 C 189.71 166.74 178.69 178.42 168.28 189.27 C 164.98 193.65 159.46 195.12 154.32 195.98 C 154.29 196.20 154.24 196.64 154.22 196.85 C 155.42 197.40 156.70 197.56 158.06 197.31 C 161.94 195.96 166.00 194.77 169.24 192.12 C 172.94 189.54 175.44 185.72 178.61 182.60 C 178.63 183.45 178.66 185.16 178.68 186.01 C 172.25 193.44 163.02 199.71 152.74 198.48 C 152.56 198.13 152.21 197.42 152.03 197.07 L 151.48 196.62 C 147.58 197.35 143.63 197.66 139.68 197.78 C 130.92 198.67 121.97 198.61 113.21 197.77 C 106.83 197.57 100.46 197.01 94.19 195.83 C 81.39 193.31 70.21 185.88 57.46 183.20 C 54.65 182.88 53.42 180.10 51.74 178.21 C 41.10 165.42 30.02 152.52 23.64 136.95 C 22.33 133.37 20.74 129.79 20.53 125.94 C 20.20 123.42 18.15 120.68 19.85 118.23 C 19.10 118.85 18.38 119.53 17.64 120.17 C 16.46 122.63 19.32 123.19 19.67 125.01 C 19.40 125.86 19.00 126.65 18.47 127.40 C 18.40 128.62 18.31 129.85 18.20 131.07 C 17.81 130.38 17.02 128.98 16.63 128.28 C 16.45 125.42 16.33 122.56 16.25 119.69 C 17.10 119.20 17.93 118.70 18.76 118.19 C 18.32 113.80 18.22 109.38 18.49 104.97 C 18.73 100.86 20.84 97.16 21.41 93.11 C 22.18 85.03 20.82 76.92 21.57 68.84 C 24.91 45.50 42.39 24.98 64.82 17.78 C 79.14 14.12 94.46 13.58 108.87 17.09 C 114.15 18.37 118.75 21.52 121.66 26.12 C 121.83 19.52 115.97 14.43 109.70 13.83 M 114.43 33.76 L 114.49 34.53 C 111.29 34.79 108.08 34.79 104.89 34.42 C 99.60 32.70 92.37 32.32 88.97 37.63 C 100.59 32.25 114.29 38.47 125.61 31.94 C 122.50 27.98 117.87 32.61 114.43 33.76 M 118.49 41.41 C 115.41 43.51 111.63 44.24 107.96 44.33 C 104.08 43.36 100.05 43.17 96.09 42.68 C 90.93 42.31 84.77 42.22 81.00 46.39 C 81.34 46.22 82.03 45.88 82.37 45.70 C 89.85 44.25 97.49 44.50 105.03 45.22 C 113.00 45.44 122.12 44.96 127.86 38.59 C 124.39 37.74 121.27 39.60 118.49 41.41 M 113.91 69.86 C 114.61 70.30 116.02 71.18 116.72 71.63 C 116.68 72.22 116.62 73.42 116.58 74.02 C 119.12 74.37 121.64 74.92 124.19 75.22 C 124.37 74.62 124.73 73.43 124.91 72.84 C 122.85 72.66 120.74 72.69 118.76 72.02 C 121.04 71.63 123.37 71.38 125.55 70.53 C 125.50 70.03 125.42 69.03 125.37 68.53 C 121.74 70.10 117.71 69.16 113.91 69.86 M 132.91 75.77 C 134.24 76.25 135.60 76.66 136.95 77.10 C 147.04 79.08 157.75 84.00 167.90 79.64 C 160.61 79.13 153.23 79.09 146.07 77.33 C 141.74 76.43 137.39 74.79 132.91 75.77 M 124.77 80.84 C 123.85 87.43 130.09 91.27 132.91 96.40 C 129.62 98.88 124.16 96.58 121.94 100.55 C 126.72 100.95 131.52 100.21 135.95 98.39 C 134.92 91.20 129.61 85.82 124.77 80.84 M 166.71 109.57 C 164.36 112.76 164.15 116.89 165.43 120.55 L 166.15 120.61 C 166.56 121.48 166.99 122.35 167.43 123.21 C 166.98 119.86 165.77 116.32 167.30 113.06 C 169.94 106.40 177.64 103.88 181.03 97.74 C 181.12 97.37 181.31 96.63 181.40 96.26 C 176.22 100.34 170.66 104.21 166.71 109.57 M 108.98 112.41 C 102.80 113.28 97.14 117.21 94.64 123.00 C 95.21 124.45 96.26 125.62 97.03 126.96 C 106.21 119.19 118.99 114.33 130.96 117.63 C 135.34 118.57 137.85 122.66 141.56 124.84 C 141.52 121.81 141.44 118.77 141.68 115.74 C 137.50 114.73 133.29 113.81 129.11 112.81 C 122.45 112.00 115.63 110.80 108.98 112.41 M 48.86 115.67 C 55.42 118.88 62.04 122.48 66.73 128.24 C 68.26 129.74 67.32 132.07 67.59 133.96 C 67.34 136.93 68.53 140.51 71.84 141.09 C 70.41 136.54 69.28 131.88 69.58 127.06 C 64.21 123.30 59.65 118.22 53.46 115.73 C 51.98 115.16 50.38 115.60 48.86 115.67 M 110.20 140.75 C 113.51 140.18 116.58 138.02 120.03 138.54 C 121.68 139.14 123.20 140.04 124.77 140.81 C 124.84 132.89 111.33 133.65 110.20 140.75 Z" />
<path fill="#fefefe" opacity="1.00" d=" M 51.66 17.73 C 55.96 15.88 60.64 15.22 65.28 14.93 L 63.43 15.48 L 63.57 16.22 C 55.98 19.03 49.03 23.22 41.96 27.11 C 43.20 22.45 47.44 19.50 51.66 17.73 Z" />
<path fill="#fefefe" opacity="1.00" d=" M 21.19 57.56 C 21.82 54.22 23.69 51.34 25.19 48.35 C 25.51 48.72 26.15 49.48 26.47 49.85 C 24.81 52.33 23.35 54.94 22.18 57.68 C 21.94 57.65 21.44 57.59 21.19 57.56 Z" />
<path fill="#fefefe" opacity="1.00" d=" M 172.70 48.28 C 173.04 48.32 173.73 48.39 174.08 48.42 C 176.96 53.08 176.56 58.85 174.91 63.87 C 172.71 69.33 167.33 73.00 161.64 74.02 C 153.47 75.45 144.98 73.77 137.49 70.37 C 136.96 66.12 137.22 61.84 137.65 57.59 C 140.11 57.06 142.59 56.57 145.00 55.82 C 147.50 55.40 150.03 55.29 152.55 55.34 C 152.55 56.94 152.53 58.54 152.53 60.13 C 152.89 60.48 153.61 61.18 153.97 61.53 C 158.17 61.79 163.18 62.69 166.49 59.38 C 168.51 57.56 168.46 54.71 168.21 52.21 C 169.91 51.15 171.39 49.79 172.70 48.28 Z" />
<path fill="#fefefe" opacity="1.00" d=" M 54.32 69.00 C 59.68 65.15 66.55 65.05 72.87 65.52 C 70.93 67.06 69.03 68.67 67.49 70.62 C 67.51 72.07 67.54 73.52 67.58 74.97 C 68.15 75.30 69.29 75.96 69.86 76.29 C 74.24 77.64 78.77 77.24 83.16 76.21 C 85.99 73.67 86.91 69.88 86.44 66.19 C 88.90 66.33 91.39 66.37 93.81 65.77 C 94.62 65.74 96.23 65.67 97.04 65.64 C 98.21 66.11 99.38 66.57 100.56 67.01 C 100.41 74.31 98.87 83.01 92.20 87.22 C 83.83 91.72 73.86 90.29 64.99 88.23 C 59.76 86.72 54.01 84.75 50.72 80.14 C 49.28 76.17 50.63 71.25 54.32 69.00 Z" />
<path fill="#fefefe" opacity="1.00" d=" M 194.31 64.85 C 196.88 68.87 198.59 73.35 200.24 77.82 C 204.00 89.48 204.97 102.26 201.79 114.17 C 200.94 102.09 200.27 89.93 197.55 78.08 C 196.71 73.60 194.86 69.37 194.31 64.85 Z" />
<path fill="#fefefe" opacity="1.00" d=" M 63.07 191.17 C 68.06 193.40 73.36 195.01 78.81 195.54 C 87.01 197.44 95.37 198.52 103.43 200.97 C 103.42 201.20 103.40 201.65 103.39 201.87 C 101.60 202.59 99.79 203.30 98.17 204.38 C 98.95 203.24 99.56 202.01 100.00 200.71 C 92.98 198.42 85.70 197.06 78.38 196.32 C 73.29 194.53 67.86 193.75 63.07 191.17 Z" />
<path fill="#fefefe" opacity="1.00" d=" M 107.39 202.64 C 108.28 201.74 109.32 201.36 110.51 201.51 C 111.15 202.78 109.38 203.78 108.70 204.65 L 107.86 204.43 C 107.74 203.98 107.51 203.09 107.39 202.64 Z" />
</g>
</svg>
