<?xml version="1.0" encoding="UTF-8" ?>
<!DOCTYPE svg PUBLIC "-//W3C//DTD SVG 1.1//EN" "http://www.w3.org/Graphics/SVG/1.1/DTD/svg11.dtd">
<svg width="210pt" height="220pt" viewBox="0 0 210 220" version="1.1" xmlns="http://www.w3.org/2000/svg">
<g id="#020202fe">
<path fill="#020202" opacity="1.00" d=" M 80.51 7.41 C 80.61 6.19 80.76 4.98 80.97 3.77 C 85.03 3.07 87.26 7.28 89.36 10.00 C 90.95 13.04 93.69 15.15 96.05 17.55 C 109.98 16.34 124.03 16.71 137.90 18.43 C 144.87 18.45 151.70 19.93 158.47 21.41 C 160.27 21.78 162.28 23.25 164.05 22.01 C 167.74 19.90 171.90 17.97 174.15 14.18 C 175.29 14.75 176.42 15.33 177.55 15.92 C 177.50 17.86 177.48 19.80 177.48 21.74 C 175.61 24.02 173.85 26.40 172.37 28.96 C 176.37 31.84 175.18 36.99 176.74 41.10 C 179.97 43.08 183.52 45.41 184.48 49.34 C 184.80 52.56 184.63 55.80 184.63 59.03 C 184.89 63.02 182.13 66.21 180.51 69.61 C 177.62 74.96 178.88 81.21 178.60 87.01 C 178.14 94.68 181.46 102.23 179.72 109.88 C 177.81 114.93 173.27 118.43 168.30 120.20 C 163.81 122.28 158.78 121.41 154.01 121.58 C 143.00 122.23 132.78 117.29 122.04 115.77 C 115.12 113.39 109.06 109.03 102.21 106.45 C 98.26 105.02 94.59 102.98 90.83 101.13 C 90.99 101.69 91.31 102.80 91.48 103.35 C 94.05 104.66 96.71 105.92 98.65 108.14 C 98.53 110.80 98.45 113.45 98.30 116.11 C 98.64 116.68 99.30 117.82 99.63 118.39 C 100.52 115.52 101.90 112.85 103.91 110.61 C 106.90 110.64 109.35 112.19 111.54 114.06 C 111.19 116.49 110.87 119.21 109.01 121.02 C 107.21 121.95 105.03 121.49 103.09 121.76 C 105.04 124.83 107.01 127.91 109.51 130.56 C 111.49 132.72 111.84 135.89 113.91 137.97 L 115.19 137.52 C 115.13 134.34 112.69 132.01 111.79 129.10 C 111.58 127.10 111.62 125.08 111.60 123.07 C 113.87 121.10 115.89 118.54 118.91 117.72 C 122.50 117.02 126.38 118.45 128.72 121.22 C 129.06 122.77 129.13 124.37 129.29 125.95 C 130.11 126.72 130.93 127.49 131.74 128.27 C 134.20 128.85 136.72 129.55 139.26 128.88 C 139.20 129.61 139.08 131.05 139.02 131.78 C 136.48 131.61 133.95 131.36 131.41 131.21 C 132.81 132.34 134.28 133.40 135.76 134.44 C 137.93 133.66 140.16 133.05 142.48 132.92 C 141.61 134.00 140.74 135.10 139.71 136.05 C 137.77 136.53 135.73 136.34 133.75 136.48 C 132.74 135.66 131.74 134.84 130.73 134.02 C 130.49 133.37 130.00 132.08 129.76 131.43 C 128.82 132.40 128.97 134.05 129.80 135.04 C 130.79 136.55 131.87 138.01 132.97 139.45 C 134.05 139.52 135.13 139.60 136.21 139.68 C 136.45 140.37 136.93 141.75 137.18 142.44 C 135.17 142.28 133.17 142.01 131.18 141.74 C 128.98 139.42 127.70 136.51 126.31 133.69 C 126.16 138.01 129.18 141.44 130.32 145.43 C 128.87 144.78 127.44 144.08 126.04 143.34 C 125.39 141.48 124.63 139.65 123.81 137.86 C 123.75 136.21 123.71 134.55 123.66 132.90 C 124.27 131.99 124.89 131.09 125.51 130.19 C 123.01 130.34 118.44 132.94 117.99 129.03 C 121.58 129.14 124.61 127.32 127.18 125.00 C 127.00 124.37 126.65 123.12 126.47 122.49 C 124.47 121.34 122.37 119.56 119.89 120.25 C 117.38 120.92 115.25 122.83 113.92 125.01 C 113.00 128.47 116.15 130.91 117.12 133.91 C 117.34 136.06 117.25 138.23 117.25 140.39 C 115.38 140.18 113.22 140.65 111.68 139.32 C 110.24 137.61 109.54 135.45 108.54 133.49 C 108.12 136.17 109.54 140.05 106.53 141.57 C 104.18 142.94 99.60 144.11 98.22 140.86 C 97.26 138.44 97.16 135.16 99.08 133.15 C 100.61 131.26 102.90 130.28 105.04 129.25 C 103.00 126.07 101.21 122.63 98.21 120.22 C 95.87 118.57 95.47 115.51 96.20 112.91 C 97.52 109.05 92.94 107.33 90.38 105.81 C 91.62 117.84 96.80 130.32 91.80 142.17 C 96.55 144.82 101.40 147.31 106.32 149.65 C 111.64 154.01 113.99 160.75 115.87 167.13 C 117.63 172.59 117.65 178.47 116.67 184.08 C 115.95 188.56 113.27 192.36 111.03 196.20 C 112.96 196.18 114.89 196.16 116.82 196.12 C 117.96 197.02 119.12 197.90 120.30 198.76 C 122.28 204.60 122.66 210.73 122.49 216.85 C 120.85 217.97 119.02 218.70 117.04 218.94 C 116.66 211.03 114.99 202.07 107.90 197.36 C 109.63 192.34 113.50 188.26 114.42 182.94 C 115.29 179.38 114.58 175.69 113.92 172.17 C 112.39 166.18 110.80 159.98 107.19 154.86 C 102.47 149.67 95.39 147.91 89.68 144.13 C 89.73 148.73 90.36 153.54 88.60 157.93 C 87.41 161.89 84.71 165.08 82.06 168.16 C 78.95 168.14 75.83 168.14 72.72 168.24 C 70.54 166.88 67.93 165.80 66.66 163.41 C 64.92 160.17 64.98 156.36 64.33 152.82 C 61.20 155.88 58.42 159.34 54.79 161.83 C 52.22 163.35 49.07 162.71 46.23 162.91 C 45.50 162.14 44.77 161.38 44.04 160.63 C 44.23 158.31 44.40 155.99 44.96 153.73 C 46.27 154.52 47.50 155.44 48.73 156.36 C 51.11 156.27 53.84 156.71 55.71 154.86 C 58.73 152.22 61.66 149.03 66.05 149.17 C 67.53 154.30 66.26 161.32 71.47 164.54 C 73.90 166.44 77.11 165.81 79.97 165.96 C 83.97 161.52 86.67 155.97 87.34 150.01 C 87.36 148.14 87.78 145.80 85.95 144.60 C 83.71 143.52 81.18 143.16 78.96 142.01 C 76.73 140.68 74.87 138.84 72.97 137.09 C 72.14 134.79 71.23 132.51 70.37 130.22 C 68.40 130.23 66.43 130.23 64.45 130.21 C 63.08 131.67 61.67 133.09 60.22 134.47 C 58.43 134.40 56.63 134.34 54.84 134.28 C 54.83 135.53 54.81 136.78 54.80 138.03 C 53.64 139.24 52.49 140.46 51.37 141.71 C 47.61 142.59 42.65 143.52 40.66 139.26 C 40.71 137.09 40.73 134.92 40.70 132.75 C 41.29 131.72 41.89 130.69 42.48 129.66 C 43.67 128.48 44.83 127.27 45.99 126.05 C 44.08 118.77 48.43 112.21 50.63 105.59 C 51.15 101.35 50.03 96.35 46.42 93.66 C 44.49 92.45 42.13 92.47 39.94 92.20 C 38.85 93.25 37.76 94.31 36.66 95.37 C 37.49 96.76 38.33 98.14 39.18 99.52 C 41.54 100.13 44.92 99.41 45.78 102.41 C 43.12 102.44 40.46 102.22 37.83 101.82 C 41.85 105.29 40.91 111.03 40.69 115.76 C 39.50 118.66 37.82 121.95 34.60 122.99 C 34.71 120.66 35.19 118.35 36.79 116.58 C 39.10 114.16 38.24 110.65 38.41 107.65 C 36.19 111.76 35.07 118.21 29.29 118.40 C 29.32 115.19 32.44 113.59 33.64 110.91 C 34.96 108.00 35.84 104.71 35.30 101.52 C 32.40 105.03 30.25 110.87 24.80 110.62 C 26.39 107.36 29.82 105.62 31.64 102.52 C 34.34 98.87 32.73 92.62 37.59 90.61 C 40.40 90.12 43.31 90.27 46.14 90.57 C 48.40 90.80 49.57 93.09 51.11 94.45 C 51.57 93.89 52.02 93.33 52.47 92.77 C 48.31 88.20 44.92 82.89 39.98 79.07 C 36.11 76.16 32.70 72.73 29.19 69.42 C 27.47 62.93 27.55 55.80 29.18 49.30 C 31.21 46.50 32.73 43.26 32.82 39.75 C 29.90 39.76 26.99 39.81 24.08 39.60 C 26.97 35.62 30.25 31.92 34.04 28.78 C 35.04 26.19 35.85 23.53 36.48 20.83 C 37.94 21.34 39.39 21.86 40.85 22.37 C 41.74 25.64 42.92 28.82 43.99 32.03 C 44.65 37.14 44.94 42.32 44.76 47.47 C 41.59 45.26 39.19 42.15 36.05 39.90 C 34.99 43.33 33.76 46.73 32.04 49.90 C 29.54 54.15 30.42 59.27 30.40 63.96 C 30.29 67.86 33.88 70.09 36.37 72.48 C 45.94 80.37 55.74 89.64 58.68 102.18 C 59.43 106.56 58.79 111.03 58.96 115.45 C 61.48 111.41 64.89 107.08 63.93 102.00 C 63.08 100.20 61.80 98.66 60.93 96.88 C 60.47 94.87 60.64 92.78 60.53 90.73 C 63.99 89.00 67.97 88.26 71.77 89.20 C 74.56 90.24 76.13 92.96 78.16 94.96 C 79.16 92.69 78.09 91.04 76.09 89.96 C 72.52 86.73 71.16 82.11 68.95 78.02 C 64.91 73.07 58.85 69.04 57.66 62.32 C 57.30 58.80 56.74 54.82 58.89 51.74 C 61.36 47.62 65.03 44.45 68.62 41.36 C 71.39 39.17 72.28 35.61 73.69 32.55 C 74.98 29.38 77.23 26.77 79.32 24.11 C 79.31 19.08 79.38 14.05 79.21 9.02 C 79.53 8.62 80.19 7.81 80.51 7.41 M 82.59 6.39 C 82.52 6.98 82.39 8.15 82.32 8.73 C 81.65 9.69 81.34 10.75 81.38 11.89 C 81.36 16.37 81.31 20.86 81.79 25.32 C 82.68 26.00 83.57 26.67 84.48 27.33 C 88.01 27.23 91.55 27.25 95.08 27.28 C 96.41 26.17 97.71 25.02 98.97 23.83 C 98.01 23.14 97.03 22.45 96.05 21.78 C 92.48 16.95 87.47 13.30 84.93 7.71 C 84.15 7.27 83.37 6.83 82.59 6.39 M 161.03 27.81 C 162.66 28.53 164.25 29.50 166.06 29.66 C 167.94 29.28 169.57 28.20 171.27 27.36 C 171.81 24.98 172.96 22.83 175.06 21.48 C 175.37 20.22 175.63 18.95 175.87 17.67 C 170.66 20.59 165.46 23.78 161.03 27.81 M 97.16 19.16 C 97.32 19.48 97.64 20.11 97.80 20.43 L 98.08 20.41 C 99.52 21.10 100.98 21.76 102.45 22.41 C 101.84 23.48 101.23 24.56 100.65 25.64 C 98.22 27.95 95.32 29.49 91.97 29.93 C 89.68 31.73 87.40 33.58 84.82 34.96 C 87.13 32.88 89.83 31.30 92.24 29.33 C 89.01 29.23 85.77 29.23 82.54 29.27 C 81.69 28.56 80.84 27.85 79.99 27.13 C 76.56 31.41 75.21 36.83 72.35 41.44 C 71.29 42.32 70.22 43.20 69.15 44.07 C 68.14 45.11 66.69 45.87 66.07 47.22 C 63.20 49.83 60.36 52.93 59.70 56.90 C 59.13 64.05 64.02 71.51 71.27 72.81 C 70.27 72.64 68.26 72.30 67.26 72.13 C 71.37 75.36 73.07 80.23 75.23 84.75 C 82.55 94.40 93.64 100.45 104.81 104.59 C 110.63 107.25 116.29 110.27 121.91 113.33 C 126.73 113.11 131.12 115.25 135.75 116.16 C 142.11 117.48 148.39 119.86 155.00 119.35 C 162.04 119.70 170.00 118.40 174.90 112.86 C 179.21 107.83 177.50 100.86 176.58 94.94 C 176.14 89.31 176.49 83.65 176.33 78.00 C 175.94 71.65 179.04 65.81 182.28 60.57 C 182.36 57.37 182.57 54.15 182.27 50.95 C 181.38 46.92 177.31 45.13 174.70 42.37 C 172.49 39.15 174.02 34.55 171.56 31.47 C 167.19 31.47 162.16 32.35 159.14 28.36 C 158.25 27.09 157.35 25.83 156.45 24.57 C 156.89 24.30 157.77 23.78 158.21 23.52 C 154.65 22.97 151.08 22.48 147.61 21.54 C 143.77 21.02 139.91 20.73 136.05 20.41 C 123.17 18.47 110.12 19.82 97.16 19.16 M 37.49 24.57 C 37.49 25.25 37.49 26.61 37.49 27.29 C 36.82 28.34 36.17 29.39 35.52 30.44 C 33.94 31.86 32.47 33.40 31.06 34.99 C 30.12 35.94 29.18 36.88 28.24 37.84 C 31.46 38.21 34.72 38.35 37.90 38.95 C 40.21 39.39 41.39 41.66 42.94 43.15 C 42.61 39.74 42.28 36.34 42.16 32.91 C 40.77 30.18 39.96 27.22 39.25 24.25 C 38.81 24.33 37.93 24.49 37.49 24.57 M 63.23 96.19 C 64.78 98.18 66.66 100.28 66.27 103.03 C 66.90 108.61 63.51 113.49 60.10 117.54 C 60.24 117.95 60.51 118.77 60.65 119.18 C 61.99 120.16 63.33 121.16 64.65 122.17 C 64.94 123.85 64.36 125.98 65.89 127.19 C 67.31 128.02 69.01 128.17 70.57 128.63 C 69.93 127.42 69.27 126.22 68.61 125.02 C 68.65 121.35 68.41 117.67 68.78 114.02 C 69.70 108.90 72.72 104.49 74.10 99.51 C 74.48 99.06 75.25 98.15 75.63 97.70 C 73.67 94.63 71.32 90.18 66.91 91.26 C 64.20 91.23 63.20 93.90 63.23 96.19 M 80.34 94.13 C 79.05 96.19 77.83 98.30 76.51 100.34 C 76.44 100.85 76.31 101.87 76.25 102.37 C 74.24 106.08 72.41 109.91 71.43 114.03 C 73.72 114.35 76.00 114.75 78.25 115.30 C 78.42 111.65 78.85 107.88 80.93 104.77 C 82.23 108.02 82.87 111.47 83.44 114.91 C 85.27 114.63 87.10 114.36 88.93 114.12 C 88.28 109.13 88.29 104.11 88.86 99.11 C 85.98 97.52 83.19 95.78 80.34 94.13 M 52.26 95.33 C 53.12 99.46 54.02 103.72 53.37 107.95 C 51.48 113.29 47.45 118.72 48.64 124.56 C 51.25 122.22 54.01 120.05 56.46 117.54 C 57.08 114.05 56.75 110.46 56.78 106.93 C 56.83 103.29 55.11 99.98 54.43 96.46 C 53.89 96.18 52.80 95.61 52.26 95.33 M 80.66 109.34 C 80.20 111.80 79.90 114.28 79.68 116.78 C 83.61 116.36 82.75 111.41 80.66 109.34 M 101.51 120.03 C 103.70 119.52 106.68 120.14 107.98 117.84 C 109.81 115.86 106.83 113.98 105.95 112.35 C 104.00 114.61 102.44 117.18 101.51 120.03 M 72.50 115.93 C 72.80 116.51 73.40 117.67 73.70 118.25 C 74.73 118.55 75.74 118.87 76.75 119.23 C 76.90 120.53 76.07 121.11 74.25 120.95 C 73.72 121.87 73.18 122.80 72.65 123.73 C 74.25 123.37 75.85 122.98 77.44 122.59 C 77.57 120.75 77.75 118.91 77.86 117.07 C 76.07 116.70 74.29 116.31 72.50 115.93 M 83.19 116.37 C 83.29 116.84 83.49 117.80 83.58 118.27 C 84.13 118.39 85.22 118.63 85.76 118.75 C 86.85 117.61 87.94 116.47 89.01 115.32 C 87.06 115.61 85.12 115.97 83.19 116.37 M 71.42 117.73 C 70.74 118.80 70.73 120.39 71.47 121.43 C 74.01 122.33 73.64 117.22 71.42 117.73 M 80.01 118.67 C 78.76 119.58 80.12 122.04 81.47 120.89 C 82.73 119.97 81.36 117.56 80.01 118.67 M 88.26 118.60 C 86.66 119.59 88.33 122.38 89.94 121.44 C 91.35 120.41 89.91 117.57 88.26 118.60 M 83.53 121.34 C 82.19 124.51 87.45 123.43 89.09 124.31 C 87.74 122.58 86.00 120.48 83.53 121.34 M 55.50 132.44 C 57.15 131.88 59.14 131.81 60.41 130.48 C 62.47 128.75 61.40 125.84 61.50 123.56 C 60.05 122.80 58.75 121.53 57.05 121.40 C 53.67 124.21 55.64 128.74 55.50 132.44 M 80.53 122.75 C 80.00 124.66 79.46 126.57 78.90 128.47 C 78.72 127.46 78.37 125.44 78.19 124.43 C 76.03 124.89 73.86 125.32 71.68 125.70 C 72.93 129.44 73.68 133.32 74.53 137.16 C 76.65 137.99 78.78 138.90 80.50 140.44 C 83.32 141.58 86.30 142.19 89.29 142.68 C 91.13 137.10 92.08 131.26 91.45 125.39 C 88.73 125.50 86.01 125.24 83.36 124.64 C 83.18 125.86 83.00 127.08 82.85 128.31 C 82.37 126.34 82.23 124.12 80.53 122.75 M 49.67 126.83 C 50.73 128.03 51.79 129.23 52.86 130.43 C 52.61 128.57 52.36 126.71 52.13 124.84 C 51.31 125.50 50.49 126.16 49.67 126.83 M 47.22 128.09 C 45.09 130.99 41.90 133.94 43.08 137.95 C 44.26 140.72 47.49 139.92 49.83 139.57 C 50.85 138.50 51.89 137.45 52.94 136.41 C 52.90 134.36 52.01 132.68 50.16 131.74 C 49.17 130.53 48.20 129.30 47.22 128.09 M 100.98 140.31 C 103.05 140.62 104.76 139.23 106.49 138.34 C 106.45 136.00 106.42 133.67 106.34 131.35 C 102.89 132.49 97.98 136.41 100.98 140.31 M 46.61 158.01 C 46.11 159.58 46.65 160.51 48.21 160.79 C 50.77 161.48 54.09 160.51 55.26 157.93 C 52.38 157.87 49.49 157.80 46.61 158.01 M 112.46 197.45 C 115.15 201.16 116.96 205.30 117.96 209.77 C 118.11 211.72 118.32 213.67 118.53 215.62 C 118.98 215.61 119.87 215.60 120.32 215.59 C 120.30 213.18 120.29 210.77 120.29 208.37 L 119.61 208.47 C 119.36 205.70 118.82 202.91 117.67 200.38 C 116.35 198.78 114.36 198.07 112.46 197.45 Z" />
<path fill="#020202" opacity="1.00" d=" M 92.71 46.31 C 96.19 38.80 105.39 37.70 112.70 38.35 C 117.59 38.69 121.83 41.57 125.10 45.02 C 125.33 45.90 125.39 46.81 125.50 47.71 C 123.86 48.74 122.24 49.81 120.65 50.92 C 116.30 48.85 112.02 45.82 106.95 46.29 C 102.13 45.62 97.27 48.84 92.71 46.31 M 111.62 40.42 C 111.50 41.79 111.30 43.16 111.24 44.54 C 111.95 44.58 113.38 44.64 114.09 44.68 C 116.81 45.80 120.29 49.42 122.85 46.22 C 121.34 44.95 119.77 43.77 118.22 42.57 C 116.06 41.73 113.85 41.04 111.62 40.42 M 95.91 45.22 C 97.87 44.80 99.94 44.54 101.43 43.05 C 99.17 42.62 97.30 43.50 95.91 45.22 Z" />
<path fill="#020202" opacity="1.00" d=" M 145.11 42.41 C 149.10 41.07 153.35 41.48 157.48 41.43 C 158.71 42.76 160.15 43.97 160.93 45.65 C 154.58 47.92 147.40 46.48 141.22 49.55 C 141.33 51.53 141.29 53.52 141.64 55.47 C 144.51 57.76 148.24 59.02 150.55 61.97 C 151.11 64.66 148.64 64.98 146.83 63.92 C 144.41 67.06 141.40 71.08 136.87 70.32 C 134.85 69.59 135.47 67.36 135.59 65.75 C 136.24 66.47 137.54 67.91 138.19 68.63 C 141.25 67.21 143.50 64.69 145.55 62.10 C 145.28 61.49 144.72 60.28 144.44 59.68 C 142.48 58.85 140.72 57.67 139.17 56.22 C 139.26 54.12 139.31 52.03 139.36 49.93 C 137.35 49.00 135.40 47.94 133.53 46.74 C 135.40 46.34 137.31 46.43 139.18 46.75 C 141.02 45.15 142.68 43.12 145.11 42.41 M 149.35 44.51 C 151.93 44.87 154.55 44.82 157.13 44.44 C 154.61 43.65 151.82 43.46 149.35 44.51 Z" />
<path fill="#020202" opacity="1.00" d=" M 100.19 52.31 C 103.39 51.44 105.40 47.43 109.06 48.57 C 107.57 50.13 106.11 51.75 104.35 53.02 C 101.06 54.15 97.51 55.12 94.03 54.34 C 90.41 53.57 87.00 52.08 83.52 50.85 C 80.39 49.66 76.88 50.34 73.87 51.57 C 73.58 50.96 73.48 50.32 73.58 49.65 C 77.19 47.63 81.66 48.45 85.52 49.26 C 90.23 50.90 95.02 54.02 100.19 52.31 Z" />
<path fill="#020202" opacity="1.00" d=" M 68.30 58.92 C 68.03 56.07 69.67 53.63 71.04 51.30 C 71.48 51.51 72.36 51.93 72.80 52.15 L 73.12 52.84 C 72.31 55.24 69.82 57.19 70.46 59.96 C 70.71 62.45 73.00 64.76 72.03 67.29 C 68.69 66.04 68.39 61.96 68.30 58.92 Z" />
<path fill="#020202" opacity="1.00" d=" M 158.55 55.63 C 160.01 54.26 161.45 52.84 163.19 51.83 C 165.80 51.18 168.53 51.46 171.19 51.34 C 172.66 52.60 174.05 54.00 173.88 56.10 C 172.48 55.29 171.12 54.41 169.79 53.51 C 167.34 53.55 164.91 53.90 162.54 54.50 C 162.51 55.28 162.45 56.83 162.42 57.60 C 159.32 57.62 156.24 57.28 153.26 56.43 C 153.29 55.36 153.32 54.30 153.37 53.24 C 155.08 54.06 156.81 54.87 158.55 55.63 Z" />
<path fill="#020202" opacity="1.00" d=" M 80.45 52.97 C 80.94 53.02 81.92 53.14 82.41 53.19 C 82.43 53.89 82.47 55.27 82.49 55.97 C 88.84 58.74 94.83 62.36 101.50 64.40 C 111.24 67.15 120.78 70.69 130.86 72.06 C 139.30 72.82 148.17 73.56 156.21 70.31 C 159.22 69.02 161.78 66.93 164.35 64.93 C 164.73 62.03 164.94 59.09 165.72 56.26 C 168.19 56.79 166.86 59.83 167.29 61.60 C 167.74 61.58 168.63 61.56 169.08 61.54 C 170.72 71.16 172.21 81.77 167.66 90.84 C 166.26 93.96 162.86 95.19 159.76 95.84 C 145.20 99.32 129.90 98.98 115.32 95.83 C 100.89 92.21 88.93 81.67 81.88 68.76 C 81.54 68.46 80.85 67.84 80.51 67.54 C 80.04 65.44 79.50 63.36 78.85 61.31 C 76.71 61.94 73.86 63.33 72.47 60.70 C 74.80 59.99 77.14 59.30 79.45 58.54 C 79.78 56.68 80.12 54.83 80.45 52.97 M 83.41 65.60 C 87.02 67.49 90.69 69.29 94.35 71.10 C 94.10 68.82 94.06 66.53 93.75 64.26 C 89.64 62.31 85.58 60.23 81.47 58.27 C 80.76 60.92 82.03 63.40 83.41 65.60 M 96.06 65.50 C 96.09 68.60 98.32 70.67 100.21 72.81 C 104.43 73.20 108.01 75.68 112.04 76.77 C 112.37 74.65 112.67 72.51 113.34 70.46 C 111.62 69.92 109.89 69.40 108.16 68.91 C 104.07 67.98 100.18 66.35 96.06 65.50 M 166.00 65.87 C 165.35 66.83 166.38 68.99 167.62 68.47 C 168.22 67.51 167.27 65.32 166.00 65.87 M 162.48 69.91 C 163.64 72.36 163.39 75.07 163.46 77.70 C 164.45 76.96 165.44 76.22 166.41 75.45 C 165.65 72.95 164.90 70.45 164.00 67.99 C 163.49 68.63 162.98 69.27 162.48 69.91 M 85.59 69.88 C 87.70 73.74 90.42 77.24 93.32 80.53 C 95.46 78.64 94.69 76.09 93.80 73.79 C 90.99 72.63 88.29 71.26 85.59 69.88 M 155.06 73.53 C 155.82 75.32 156.86 77.10 156.49 79.13 C 157.76 78.82 159.04 78.54 160.33 78.27 C 160.58 75.95 161.72 73.17 160.03 71.13 C 158.32 71.83 156.72 72.74 155.06 73.53 M 115.11 72.94 C 114.96 74.65 114.71 76.35 114.43 78.05 C 119.36 78.61 124.08 80.26 129.11 79.99 C 129.10 77.98 129.08 75.97 129.04 73.97 C 124.87 73.71 120.83 72.57 116.80 71.55 C 116.38 71.90 115.53 72.60 115.11 72.94 M 146.99 75.19 C 145.74 75.03 144.49 74.87 143.24 74.72 C 143.38 76.48 143.50 78.24 143.59 80.01 C 145.55 79.84 147.52 79.72 149.49 79.66 C 151.09 79.34 152.72 79.19 154.34 79.05 C 153.70 77.33 153.14 75.59 152.70 73.81 C 150.80 74.28 148.86 74.59 146.99 75.19 M 131.70 74.06 C 131.65 76.03 131.63 78.01 131.63 79.99 C 134.88 79.65 138.16 79.74 141.43 79.78 C 141.03 78.23 140.63 76.68 140.25 75.12 C 137.34 75.34 134.53 74.55 131.70 74.06 M 97.20 75.57 C 97.21 77.01 97.24 78.44 97.28 79.88 C 96.49 80.71 95.70 81.54 94.92 82.38 C 95.50 82.70 96.66 83.34 97.24 83.65 C 98.36 84.54 99.52 85.38 100.69 86.21 C 103.01 87.69 105.29 89.24 107.65 90.67 C 108.33 87.37 111.16 84.72 110.66 81.19 C 109.72 80.08 108.16 80.46 106.90 80.23 C 103.69 78.64 100.34 77.32 97.20 75.57 M 112.78 81.58 C 112.92 82.92 113.06 84.27 113.20 85.62 C 111.67 87.37 110.81 89.53 110.22 91.75 C 115.44 93.54 120.84 94.60 126.32 95.19 C 126.36 92.06 126.46 88.93 126.54 85.80 C 121.80 84.89 117.29 83.22 112.78 81.58 M 163.92 90.30 C 162.94 90.72 161.95 91.12 160.96 91.50 C 161.35 89.64 161.99 87.84 162.59 86.04 C 159.12 87.15 158.61 91.17 157.06 93.99 C 159.59 93.47 162.03 92.60 164.30 91.36 C 165.16 89.76 166.04 88.17 166.94 86.59 C 167.09 85.62 167.23 84.64 167.36 83.67 C 165.95 85.74 164.70 87.92 163.92 90.30 M 128.89 86.07 C 129.07 89.01 129.34 92.02 128.45 94.89 C 129.07 95.19 129.68 95.50 130.30 95.81 C 132.92 95.66 135.54 95.81 138.17 95.86 C 138.91 93.17 139.29 90.38 140.08 87.69 C 136.26 87.95 132.45 87.55 128.89 86.07 M 152.38 88.31 C 151.75 90.70 150.77 92.97 149.74 95.21 C 151.25 94.93 152.76 94.64 154.28 94.36 C 154.70 91.88 155.97 89.70 157.10 87.49 C 155.52 87.74 153.95 88.03 152.38 88.31 M 140.85 95.99 C 142.88 95.75 145.25 96.23 146.92 94.77 C 148.10 92.71 148.89 90.44 149.80 88.25 C 147.40 88.30 145.01 88.35 142.61 88.27 C 141.78 90.79 141.45 93.42 140.85 95.99 Z" />
<path fill="#020202" opacity="1.00" d=" M 116.59 59.49 C 118.68 57.59 121.80 57.93 124.39 58.02 C 122.48 59.14 120.45 60.04 118.39 60.85 C 117.94 63.00 118.32 64.93 120.58 65.92 C 120.24 66.36 119.56 67.23 119.23 67.67 C 115.68 66.58 114.96 62.49 116.59 59.49 Z" />
<path fill="#020202" opacity="1.00" d=" M 122.20 66.37 C 122.21 65.07 122.23 63.78 122.27 62.49 C 125.36 62.52 128.50 62.65 131.37 63.93 C 130.39 64.24 129.41 64.55 128.43 64.88 C 126.29 65.10 124.14 65.37 122.20 66.37 Z" />
</g>
<g id="#fefefeff">
<path fill="#fefefe" opacity="1.00" d=" M 82.59 6.39 C 83.37 6.83 84.15 7.27 84.93 7.71 C 87.47 13.30 92.48 16.95 96.05 21.78 C 97.03 22.45 98.01 23.14 98.97 23.83 C 97.71 25.02 96.41 26.17 95.08 27.28 C 91.55 27.25 88.01 27.23 84.48 27.33 C 83.57 26.67 82.68 26.00 81.79 25.32 C 81.31 20.86 81.36 16.37 81.38 11.89 C 81.34 10.75 81.65 9.69 82.32 8.73 C 82.39 8.15 82.52 6.98 82.59 6.39 Z" />
<path fill="#fefefe" opacity="1.00" d=" M 161.03 27.81 C 165.46 23.78 170.66 20.59 175.87 17.67 C 175.63 18.95 175.37 20.22 175.06 21.48 C 172.96 22.83 171.81 24.98 171.27 27.36 C 169.57 28.20 167.94 29.28 166.06 29.66 C 164.25 29.50 162.66 28.53 161.03 27.81 Z" />
<path fill="#fefefe" opacity="1.00" d=" M 111.62 40.42 C 113.85 41.04 116.06 41.73 118.22 42.57 C 119.77 43.77 121.34 44.95 122.85 46.22 C 120.29 49.42 116.81 45.80 114.09 44.68 C 113.38 44.64 111.95 44.58 111.24 44.54 C 111.30 43.16 111.50 41.79 111.62 40.42 Z" />
<path fill="#fefefe" opacity="1.00" d=" M 95.91 45.22 C 97.30 43.50 99.17 42.62 101.43 43.05 C 99.94 44.54 97.87 44.80 95.91 45.22 Z" />
<path fill="#fefefe" opacity="1.00" d=" M 149.35 44.51 C 151.82 43.46 154.61 43.65 157.13 44.44 C 154.55 44.82 151.93 44.87 149.35 44.51 Z" />
<path fill="#fefefe" opacity="1.00" d=" M 83.41 65.60 C 82.03 63.40 80.76 60.92 81.47 58.27 C 85.58 60.23 89.64 62.31 93.75 64.26 C 94.06 66.53 94.10 68.82 94.35 71.10 C 90.69 69.29 87.02 67.49 83.41 65.60 Z" />
<path fill="#fefefe" opacity="1.00" d=" M 96.06 65.50 C 100.18 66.35 104.07 67.98 108.16 68.91 C 109.89 69.40 111.62 69.92 113.34 70.46 C 112.67 72.51 112.37 74.65 112.04 76.77 C 108.01 75.68 104.43 73.20 100.21 72.81 C 98.32 70.67 96.09 68.60 96.06 65.50 Z" />
<path fill="#fefefe" opacity="1.00" d=" M 166.00 65.87 C 167.27 65.32 168.22 67.51 167.62 68.47 C 166.38 68.99 165.35 66.83 166.00 65.87 Z" />
<path fill="#fefefe" opacity="1.00" d=" M 162.48 69.91 C 162.98 69.27 163.49 68.63 164.00 67.99 C 164.90 70.45 165.65 72.95 166.41 75.45 C 165.44 76.22 164.45 76.96 163.46 77.70 C 163.39 75.07 163.64 72.36 162.48 69.91 Z" />
<path fill="#fefefe" opacity="1.00" d=" M 85.59 69.88 C 88.29 71.26 90.99 72.63 93.80 73.79 C 94.69 76.09 95.46 78.64 93.32 80.53 C 90.42 77.24 87.70 73.74 85.59 69.88 Z" />
<path fill="#fefefe" opacity="1.00" d=" M 155.06 73.53 C 156.72 72.74 158.32 71.83 160.03 71.13 C 161.72 73.17 160.58 75.95 160.33 78.27 C 159.04 78.54 157.76 78.82 156.49 79.13 C 156.86 77.10 155.82 75.32 155.06 73.53 Z" />
<path fill="#fefefe" opacity="1.00" d=" M 115.11 72.94 C 115.53 72.60 116.38 71.90 116.80 71.55 C 120.83 72.57 124.87 73.71 129.04 73.97 C 129.08 75.97 129.10 77.98 129.11 79.99 C 124.08 80.26 119.36 78.61 114.43 78.05 C 114.71 76.35 114.96 74.65 115.11 72.94 Z" />
<path fill="#fefefe" opacity="1.00" d=" M 146.99 75.19 C 148.86 74.59 150.80 74.28 152.70 73.81 C 153.14 75.59 153.70 77.33 154.34 79.05 C 152.72 79.19 151.09 79.34 149.49 79.66 C 147.52 79.72 145.55 79.84 143.59 80.01 C 143.50 78.24 143.38 76.48 143.24 74.72 C 144.49 74.87 145.74 75.03 146.99 75.19 Z" />
<path fill="#fefefe" opacity="1.00" d=" M 131.70 74.06 C 134.53 74.55 137.34 75.34 140.25 75.12 C 140.63 76.68 141.03 78.23 141.43 79.78 C 138.16 79.74 134.88 79.65 131.63 79.99 C 131.63 78.01 131.65 76.03 131.70 74.06 Z" />
<path fill="#fefefe" opacity="1.00" d=" M 97.20 75.57 C 100.34 77.32 103.69 78.64 106.90 80.23 C 108.16 80.46 109.72 80.08 110.66 81.19 C 111.16 84.72 108.33 87.37 107.65 90.67 C 105.29 89.24 103.01 87.69 100.69 86.21 C 99.52 85.38 98.36 84.54 97.24 83.65 C 96.66 83.34 95.50 82.70 94.92 82.38 C 95.70 81.54 96.49 80.71 97.28 79.88 C 97.24 78.44 97.21 77.01 97.20 75.57 Z" />
<path fill="#fefefe" opacity="1.00" d=" M 112.78 81.58 C 117.29 83.22 121.80 84.89 126.54 85.80 C 126.46 88.93 126.36 92.06 126.32 95.19 C 120.84 94.60 115.44 93.54 110.22 91.75 C 110.81 89.53 111.67 87.37 113.20 85.62 C 113.06 84.27 112.92 82.92 112.78 81.58 Z" />
<path fill="#fefefe" opacity="1.00" d=" M 163.92 90.30 C 164.70 87.92 165.95 85.74 167.36 83.67 C 167.23 84.64 167.09 85.62 166.94 86.59 C 166.04 88.17 165.16 89.76 164.30 91.36 C 162.03 92.60 159.59 93.47 157.06 93.99 C 158.61 91.17 159.12 87.15 162.59 86.04 C 161.99 87.84 161.35 89.64 160.96 91.50 C 161.95 91.12 162.94 90.72 163.92 90.30 Z" />
<path fill="#fefefe" opacity="1.00" d=" M 128.89 86.07 C 132.45 87.55 136.26 87.95 140.08 87.69 C 139.29 90.38 138.91 93.17 138.17 95.86 C 135.54 95.81 132.92 95.66 130.30 95.81 C 129.68 95.50 129.07 95.19 128.45 94.89 C 129.34 92.02 129.07 89.01 128.89 86.07 Z" />
<path fill="#fefefe" opacity="1.00" d=" M 152.38 88.31 C 153.95 88.03 155.52 87.74 157.10 87.49 C 155.97 89.70 154.70 91.88 154.28 94.36 C 152.76 94.64 151.25 94.93 149.74 95.21 C 150.77 92.97 151.75 90.70 152.38 88.31 Z" />
<path fill="#fefefe" opacity="1.00" d=" M 140.85 95.99 C 141.45 93.42 141.78 90.79 142.61 88.27 C 145.01 88.35 147.40 88.30 149.80 88.25 C 148.89 90.44 148.10 92.71 146.92 94.77 C 145.25 96.23 142.88 95.75 140.85 95.99 Z" />
<path fill="#fefefe" opacity="1.00" d=" M 129.80 135.04 C 128.97 134.05 128.82 132.40 129.76 131.43 C 130.00 132.08 130.49 133.37 130.73 134.02 C 130.50 134.27 130.03 134.79 129.80 135.04 Z" />
</g>
<g id="#7f3427ff">
<path fill="#7f3427" opacity="1.00" d=" M 97.16 19.16 C 110.12 19.82 123.17 18.47 136.05 20.41 C 139.91 20.73 143.77 21.02 147.61 21.54 C 151.08 22.48 154.65 22.97 158.21 23.52 C 157.77 23.78 156.89 24.30 156.45 24.57 C 157.35 25.83 158.25 27.09 159.14 28.36 C 157.88 27.58 156.56 26.59 154.98 26.77 C 149.33 27.06 143.76 28.47 138.07 28.21 C 130.96 28.26 124.13 25.59 117.01 25.97 C 111.16 26.25 105.30 27.45 99.98 29.93 C 95.41 32.03 92.17 36.08 87.87 38.60 C 92.02 32.13 99.30 28.60 106.44 26.47 C 114.85 24.51 123.64 25.14 132.05 26.74 C 139.94 27.59 148.12 27.22 155.82 25.27 C 155.79 25.00 155.72 24.47 155.68 24.21 C 151.22 22.91 146.55 23.93 141.99 23.94 C 134.61 24.33 127.35 22.75 120.04 22.06 C 113.37 21.40 106.79 23.24 100.65 25.64 C 101.23 24.56 101.84 23.48 102.45 22.41 C 102.87 22.60 103.72 22.98 104.15 23.17 C 107.69 22.16 111.24 21.02 114.95 20.91 C 121.25 20.52 127.38 22.31 133.63 22.76 C 134.29 22.10 134.96 21.44 135.62 20.78 C 123.12 19.91 110.59 19.52 98.08 20.41 L 97.80 20.43 C 97.64 20.11 97.32 19.48 97.16 19.16 M 136.07 23.58 C 140.23 23.28 144.42 23.26 148.55 22.55 C 144.36 21.72 140.11 21.25 135.84 21.18 C 135.90 21.78 136.01 22.98 136.07 23.58 Z" />
<path fill="#7f3427" opacity="1.00" d=" M 91.72 39.61 C 95.71 32.38 104.14 29.52 111.93 29.02 C 116.13 28.94 120.80 28.23 124.46 30.78 C 123.87 30.73 122.68 30.64 122.09 30.59 C 115.50 29.45 108.67 30.07 102.37 32.30 C 98.20 33.76 95.61 37.66 91.72 39.61 Z" />
<path fill="#7f3427" opacity="1.00" d=" M 137.99 32.91 C 141.85 30.50 146.59 30.78 150.96 30.51 C 156.23 30.27 162.10 33.63 162.10 39.45 C 160.35 37.06 158.98 34.12 156.05 32.96 C 150.39 29.85 143.97 32.73 137.99 32.91 Z" />
<path fill="#7f3427" opacity="1.00" d=" M 120.04 30.74 C 120.55 30.70 121.58 30.63 122.09 30.59 C 123.88 33.19 124.25 36.35 123.98 39.43 C 123.02 36.38 121.87 33.38 120.04 30.74 Z" />
<path fill="#7f3427" opacity="1.00" d=" M 140.50 42.60 C 140.29 39.46 139.55 35.62 142.74 33.67 C 142.06 36.67 141.34 39.65 140.50 42.60 Z" />
<path fill="#7f3427" opacity="1.00" d=" M 69.15 44.07 C 70.22 43.20 71.29 42.32 72.35 41.44 C 71.99 42.03 71.28 43.22 70.92 43.81 C 74.65 43.76 78.39 44.21 81.88 45.59 C 77.15 46.20 71.07 44.35 67.59 48.57 C 63.98 52.33 64.88 58.01 65.36 62.72 C 65.71 66.90 70.09 68.48 72.95 70.71 C 70.10 69.64 66.06 69.27 64.92 65.90 C 63.31 61.36 64.01 56.43 64.12 51.73 C 64.63 50.89 65.11 50.04 65.58 49.19 C 65.70 48.69 65.95 47.71 66.07 47.22 C 66.69 45.87 68.14 45.11 69.15 44.07 Z" />
<path fill="#7f3427" opacity="1.00" d=" M 85.22 44.55 C 87.59 44.29 89.97 44.07 92.34 43.88 C 91.38 44.54 90.41 45.20 89.45 45.85 C 90.04 46.22 91.21 46.94 91.80 47.30 C 91.45 47.78 91.10 48.26 90.76 48.74 C 88.90 47.36 87.01 46.03 85.22 44.55 Z" />
<path fill="#7f3427" opacity="1.00" d=" M 161.32 45.54 C 165.17 43.62 169.59 45.33 173.69 45.04 C 177.15 47.71 180.90 50.56 181.73 55.17 C 180.50 53.69 179.36 52.14 178.29 50.55 C 176.45 49.05 174.60 47.57 172.75 46.09 C 168.93 46.45 165.06 46.56 161.32 45.54 Z" />
<path fill="#7f3427" opacity="1.00" d=" M 71.04 51.30 C 72.23 48.09 75.97 47.87 78.90 47.60 C 81.18 47.63 84.08 46.90 85.52 49.26 C 81.66 48.45 77.19 47.63 73.58 49.65 C 73.48 50.32 73.58 50.96 73.87 51.57 L 74.63 52.72 C 74.17 52.58 73.26 52.29 72.80 52.15 C 72.36 51.93 71.48 51.51 71.04 51.30 Z" />
<path fill="#7f3427" opacity="1.00" d=" M 170.48 48.25 C 172.44 48.92 174.70 49.22 176.22 50.76 C 177.29 53.63 177.36 56.77 177.80 59.78 C 176.16 61.00 174.50 62.19 172.78 63.29 C 174.43 60.71 177.33 58.34 176.33 54.93 C 176.40 51.44 172.70 50.19 170.48 48.25 Z" />
<path fill="#7f3427" opacity="1.00" d=" M 83.52 50.85 C 87.00 52.08 90.41 53.57 94.03 54.34 C 97.51 55.12 101.06 54.15 104.35 53.02 C 101.23 55.97 96.68 55.93 92.76 54.99 C 89.48 54.15 86.11 53.13 83.52 50.85 Z" />
<path fill="#7f3427" opacity="1.00" d=" M 180.31 57.44 C 181.77 57.28 181.65 59.79 180.74 60.41 C 179.29 60.56 179.39 58.06 180.31 57.44 Z" />
<path fill="#7f3427" opacity="1.00" d=" M 104.17 60.43 C 108.01 60.33 113.08 61.79 115.13 57.45 C 115.08 58.36 114.98 60.19 114.93 61.11 C 110.98 61.42 107.02 61.52 103.06 61.64 C 103.34 61.34 103.90 60.73 104.17 60.43 Z" />
<path fill="#7f3427" opacity="1.00" d=" M 124.39 58.02 C 124.45 58.80 124.52 59.59 124.59 60.38 C 122.52 60.50 120.45 60.63 118.39 60.85 C 120.45 60.04 122.48 59.14 124.39 58.02 Z" />
<path fill="#7f3427" opacity="1.00" d=" M 128.43 64.88 C 129.41 64.55 130.39 64.24 131.37 63.93 L 131.83 64.17 C 132.30 65.89 129.35 66.88 128.47 65.43 L 128.43 64.88 Z" />
<path fill="#7f3427" opacity="1.00" d=" M 171.31 67.30 C 173.19 64.68 176.31 63.72 179.34 63.17 C 177.01 65.14 174.27 66.54 171.31 67.30 Z" />
<path fill="#7f3427" opacity="1.00" d=" M 85.25 91.80 C 85.43 91.49 85.79 90.86 85.97 90.54 C 102.14 100.83 120.85 107.13 140.03 108.03 C 146.98 108.69 153.99 109.38 160.96 108.65 C 164.32 107.71 167.09 105.43 170.09 103.74 C 170.37 102.33 170.65 100.91 170.93 99.50 C 171.20 101.13 171.45 102.77 171.71 104.40 C 168.23 106.31 165.05 109.15 161.06 109.88 C 144.45 110.84 127.88 108.08 111.78 104.26 C 102.52 101.09 93.66 96.79 85.25 91.80 Z" />
<path fill="#7f3427" opacity="1.00" d=" M 91.55 90.85 C 96.68 91.34 100.69 94.85 105.31 96.74 C 111.18 99.57 117.85 100.60 123.34 104.20 C 119.34 104.16 115.83 101.89 112.08 100.75 C 104.81 98.43 98.03 94.84 91.55 90.85 Z" />
<path fill="#7f3427" opacity="1.00" d=" M 154.34 104.47 C 159.09 104.06 162.44 100.44 166.13 97.88 C 164.01 103.01 158.37 105.62 153.06 105.71 C 143.08 106.13 133.12 105.11 123.19 104.33 C 133.56 103.49 143.98 105.59 154.34 104.47 Z" />
<path fill="#7f3427" opacity="1.00" d=" M 127.48 101.30 C 135.17 100.64 143.03 100.27 150.67 101.46 C 142.98 102.05 135.14 102.38 127.48 101.30 Z" />
<path fill="#7f3427" opacity="1.00" d=" M 119.61 208.47 L 120.29 208.37 C 120.29 210.77 120.30 213.18 120.32 215.59 C 119.87 215.60 118.98 215.61 118.53 215.62 C 118.32 213.67 118.11 211.72 117.96 209.77 C 118.51 211.11 119.14 212.41 119.77 213.72 C 119.74 211.96 119.72 210.22 119.61 208.47 Z" />
</g>
<g id="#ff3000ff">
<path fill="#ff3000" opacity="1.00" d=" M 98.08 20.41 C 110.59 19.52 123.12 19.91 135.62 20.78 C 134.96 21.44 134.29 22.10 133.63 22.76 C 127.38 22.31 121.25 20.52 114.95 20.91 C 111.24 21.02 107.69 22.16 104.15 23.17 C 103.72 22.98 102.87 22.60 102.45 22.41 C 100.98 21.76 99.52 21.10 98.08 20.41 Z" />
<path fill="#ff3000" opacity="1.00" d=" M 100.65 25.64 C 106.79 23.24 113.37 21.40 120.04 22.06 C 127.35 22.75 134.61 24.33 141.99 23.94 C 146.55 23.93 151.22 22.91 155.68 24.21 C 155.72 24.47 155.79 25.00 155.82 25.27 C 148.12 27.22 139.94 27.59 132.05 26.74 C 123.64 25.14 114.85 24.51 106.44 26.47 C 99.30 28.60 92.02 32.13 87.87 38.60 C 92.17 36.08 95.41 32.03 99.98 29.93 C 105.30 27.45 111.16 26.25 117.01 25.97 C 124.13 25.59 130.96 28.26 138.07 28.21 C 143.76 28.47 149.33 27.06 154.98 26.77 C 156.56 26.59 157.88 27.58 159.14 28.36 C 162.16 32.35 167.19 31.47 171.56 31.47 C 174.02 34.55 172.49 39.15 174.70 42.37 C 177.31 45.13 181.38 46.92 182.27 50.95 C 182.57 54.15 182.36 57.37 182.28 60.57 C 179.04 65.81 175.94 71.65 176.33 78.00 C 176.49 83.65 176.14 89.31 176.58 94.94 C 177.50 100.86 179.21 107.83 174.90 112.86 C 170.00 118.40 162.04 119.70 155.00 119.35 C 148.39 119.86 142.11 117.48 135.75 116.16 C 131.12 115.25 126.73 113.11 121.91 113.33 C 116.29 110.27 110.63 107.25 104.81 104.59 C 93.64 100.45 82.55 94.40 75.23 84.75 C 73.07 80.23 71.37 75.36 67.26 72.13 C 68.26 72.30 70.27 72.64 71.27 72.81 C 64.02 71.51 59.13 64.05 59.70 56.90 C 60.36 52.93 63.20 49.83 66.07 47.22 C 65.95 47.71 65.70 48.69 65.58 49.19 C 65.11 50.04 64.63 50.89 64.12 51.73 C 64.01 56.43 63.31 61.36 64.92 65.90 C 66.06 69.27 70.10 69.64 72.95 70.71 C 70.09 68.48 65.71 66.90 65.36 62.72 C 64.88 58.01 63.98 52.33 67.59 48.57 C 71.07 44.35 77.15 46.20 81.88 45.59 C 78.39 44.21 74.65 43.76 70.92 43.81 C 71.28 43.22 71.99 42.03 72.35 41.44 C 75.21 36.83 76.56 31.41 79.99 27.13 C 80.84 27.85 81.69 28.56 82.54 29.27 C 85.77 29.23 89.01 29.23 92.24 29.33 C 89.83 31.30 87.13 32.88 84.82 34.96 C 87.40 33.58 89.68 31.73 91.97 29.93 C 95.32 29.49 98.22 27.95 100.65 25.64 M 91.72 39.61 C 95.61 37.66 98.20 33.76 102.37 32.30 C 108.67 30.07 115.50 29.45 122.09 30.59 C 122.68 30.64 123.87 30.73 124.46 30.78 C 120.80 28.23 116.13 28.94 111.93 29.02 C 104.14 29.52 95.71 32.38 91.72 39.61 M 137.99 32.91 C 143.97 32.73 150.39 29.85 156.05 32.96 C 158.98 34.12 160.35 37.06 162.10 39.45 C 162.10 33.63 156.23 30.27 150.96 30.51 C 146.59 30.78 141.85 30.50 137.99 32.91 M 120.04 30.74 C 121.87 33.38 123.02 36.38 123.98 39.43 C 124.25 36.35 123.88 33.19 122.09 30.59 C 121.58 30.63 120.55 30.70 120.04 30.74 M 140.50 42.60 C 141.34 39.65 142.06 36.67 142.74 33.67 C 139.55 35.62 140.29 39.46 140.50 42.60 M 92.71 46.31 C 97.27 48.84 102.13 45.62 106.95 46.29 C 112.02 45.82 116.30 48.85 120.65 50.92 C 122.24 49.81 123.86 48.74 125.50 47.71 C 125.39 46.81 125.33 45.90 125.10 45.02 C 121.83 41.57 117.59 38.69 112.70 38.35 C 105.39 37.70 96.19 38.80 92.71 46.31 M 145.11 42.41 C 142.68 43.12 141.02 45.15 139.18 46.75 C 137.31 46.43 135.40 46.34 133.53 46.74 C 135.40 47.94 137.35 49.00 139.36 49.93 C 139.31 52.03 139.26 54.12 139.17 56.22 C 140.72 57.67 142.48 58.85 144.44 59.68 C 144.72 60.28 145.28 61.49 145.55 62.10 C 143.50 64.69 141.25 67.21 138.19 68.63 C 137.54 67.91 136.24 66.47 135.59 65.75 C 135.47 67.36 134.85 69.59 136.87 70.32 C 141.40 71.08 144.41 67.06 146.83 63.92 C 148.64 64.98 151.11 64.66 150.55 61.97 C 148.24 59.02 144.51 57.76 141.64 55.47 C 141.29 53.52 141.33 51.53 141.22 49.55 C 147.40 46.48 154.58 47.92 160.93 45.65 C 160.15 43.97 158.71 42.76 157.48 41.43 C 153.35 41.48 149.10 41.07 145.11 42.41 M 85.22 44.55 C 87.01 46.03 88.90 47.36 90.76 48.74 C 91.10 48.26 91.45 47.78 91.80 47.30 C 91.21 46.94 90.04 46.22 89.45 45.85 C 90.41 45.20 91.38 44.54 92.34 43.88 C 89.97 44.07 87.59 44.29 85.22 44.55 M 161.32 45.54 C 165.06 46.56 168.93 46.45 172.75 46.09 C 174.60 47.57 176.45 49.05 178.29 50.55 C 179.36 52.14 180.50 53.69 181.73 55.17 C 180.90 50.56 177.15 47.71 173.69 45.04 C 169.59 45.33 165.17 43.62 161.32 45.54 M 71.04 51.30 C 69.67 53.63 68.03 56.07 68.30 58.92 C 68.39 61.96 68.69 66.04 72.03 67.29 C 73.00 64.76 70.71 62.45 70.46 59.96 C 69.82 57.19 72.31 55.24 73.12 52.84 L 72.80 52.15 C 73.26 52.29 74.17 52.58 74.63 52.72 L 73.87 51.57 C 76.88 50.34 80.39 49.66 83.52 50.85 C 86.11 53.13 89.48 54.15 92.76 54.99 C 96.68 55.93 101.23 55.97 104.35 53.02 C 106.11 51.75 107.57 50.13 109.06 48.57 C 105.40 47.43 103.39 51.44 100.19 52.31 C 95.02 54.02 90.23 50.90 85.52 49.26 C 84.08 46.90 81.18 47.63 78.90 47.60 C 75.97 47.87 72.23 48.09 71.04 51.30 M 170.48 48.25 C 172.70 50.19 176.40 51.44 176.33 54.93 C 177.33 58.34 174.43 60.71 172.78 63.29 C 174.50 62.19 176.16 61.00 177.80 59.78 C 177.36 56.77 177.29 53.63 176.22 50.76 C 174.70 49.22 172.44 48.92 170.48 48.25 M 158.55 55.63 C 156.81 54.87 155.08 54.06 153.37 53.24 C 153.32 54.30 153.29 55.36 153.26 56.43 C 156.24 57.28 159.32 57.62 162.42 57.60 C 162.45 56.83 162.51 55.28 162.54 54.50 C 164.91 53.90 167.34 53.55 169.79 53.51 C 171.12 54.41 172.48 55.29 173.88 56.10 C 174.05 54.00 172.66 52.60 171.19 51.34 C 168.53 51.46 165.80 51.18 163.19 51.83 C 161.45 52.84 160.01 54.26 158.55 55.63 M 80.45 52.97 C 80.12 54.83 79.78 56.68 79.45 58.54 C 77.14 59.30 74.80 59.99 72.47 60.70 C 73.86 63.33 76.71 61.94 78.85 61.31 C 79.50 63.36 80.04 65.44 80.51 67.54 C 80.85 67.84 81.54 68.46 81.88 68.76 C 88.93 81.67 100.89 92.21 115.32 95.83 C 129.90 98.98 145.20 99.32 159.76 95.84 C 162.86 95.19 166.26 93.96 167.66 90.84 C 172.21 81.77 170.72 71.16 169.08 61.54 C 168.63 61.56 167.74 61.58 167.29 61.60 C 166.86 59.83 168.19 56.79 165.72 56.26 C 164.94 59.09 164.73 62.03 164.35 64.93 C 161.78 66.93 159.22 69.02 156.21 70.31 C 148.17 73.56 139.30 72.82 130.86 72.06 C 120.78 70.69 111.24 67.15 101.50 64.40 C 94.83 62.36 88.84 58.74 82.49 55.97 C 82.47 55.27 82.43 53.89 82.41 53.19 C 81.92 53.14 80.94 53.02 80.45 52.97 M 180.31 57.44 C 179.39 58.06 179.29 60.56 180.74 60.41 C 181.65 59.79 181.77 57.28 180.31 57.44 M 104.17 60.43 C 103.90 60.73 103.34 61.34 103.06 61.64 C 107.02 61.52 110.98 61.42 114.93 61.11 C 114.98 60.19 115.08 58.36 115.13 57.45 C 113.08 61.79 108.01 60.33 104.17 60.43 M 116.59 59.49 C 114.96 62.49 115.68 66.58 119.23 67.67 C 119.56 67.23 120.24 66.36 120.58 65.92 C 118.32 64.93 117.94 63.00 118.39 60.85 C 120.45 60.63 122.52 60.50 124.59 60.38 C 124.52 59.59 124.45 58.80 124.39 58.02 C 121.80 57.93 118.68 57.59 116.59 59.49 M 122.20 66.37 C 124.14 65.37 126.29 65.10 128.43 64.88 L 128.47 65.43 C 129.35 66.88 132.30 65.89 131.83 64.17 L 131.37 63.93 C 128.50 62.65 125.36 62.52 122.27 62.49 C 122.23 63.78 122.21 65.07 122.20 66.37 M 171.31 67.30 C 174.27 66.54 177.01 65.14 179.34 63.17 C 176.31 63.72 173.19 64.68 171.31 67.30 M 85.25 91.80 C 93.66 96.79 102.52 101.09 111.78 104.26 C 127.88 108.08 144.45 110.84 161.06 109.88 C 165.05 109.15 168.23 106.31 171.71 104.40 C 171.45 102.77 171.20 101.13 170.93 99.50 C 170.65 100.91 170.37 102.33 170.09 103.74 C 167.09 105.43 164.32 107.71 160.96 108.65 C 153.99 109.38 146.98 108.69 140.03 108.03 C 120.85 107.13 102.14 100.83 85.97 90.54 C 85.79 90.86 85.43 91.49 85.25 91.80 M 91.55 90.85 C 98.03 94.84 104.81 98.43 112.08 100.75 C 115.83 101.89 119.34 104.16 123.34 104.20 C 117.85 100.60 111.18 99.57 105.31 96.74 C 100.69 94.85 96.68 91.34 91.55 90.85 M 154.34 104.47 C 143.98 105.59 133.56 103.49 123.19 104.33 C 133.12 105.11 143.08 106.13 153.06 105.71 C 158.37 105.62 164.01 103.01 166.13 97.88 C 162.44 100.44 159.09 104.06 154.34 104.47 M 127.48 101.30 C 135.14 102.38 142.98 102.05 150.67 101.46 C 143.03 100.27 135.17 100.64 127.48 101.30 Z" />
<path fill="#ff3000" opacity="1.00" d=" M 136.07 23.58 C 136.01 22.98 135.90 21.78 135.84 21.18 C 140.11 21.25 144.36 21.72 148.55 22.55 C 144.42 23.26 140.23 23.28 136.07 23.58 Z" />
<path fill="#ff3000" opacity="1.00" d=" M 37.49 24.57 C 37.93 24.49 38.81 24.33 39.25 24.25 C 39.96 27.22 40.77 30.18 42.16 32.91 C 42.28 36.34 42.61 39.74 42.94 43.15 C 41.39 41.66 40.21 39.39 37.90 38.95 C 34.72 38.35 31.46 38.21 28.24 37.84 C 29.18 36.88 30.12 35.94 31.06 34.99 C 32.47 33.40 33.94 31.86 35.52 30.44 C 36.17 29.39 36.82 28.34 37.49 27.29 C 37.49 26.61 37.49 25.25 37.49 24.57 Z" />
<path fill="#ff3000" opacity="1.00" d=" M 80.34 94.13 C 83.19 95.78 85.98 97.52 88.86 99.11 C 88.29 104.11 88.28 109.13 88.93 114.12 C 87.10 114.36 85.27 114.63 83.44 114.91 C 82.87 111.47 82.23 108.02 80.93 104.77 C 78.85 107.88 78.42 111.65 78.25 115.30 C 76.00 114.75 73.72 114.35 71.43 114.03 C 72.41 109.91 74.24 106.08 76.25 102.37 C 76.31 101.87 76.44 100.85 76.51 100.34 C 77.83 98.30 79.05 96.19 80.34 94.13 Z" />
<path fill="#ff3000" opacity="1.00" d=" M 80.66 109.34 C 82.75 111.41 83.61 116.36 79.68 116.78 C 79.90 114.28 80.20 111.80 80.66 109.34 Z" />
<path fill="#ff3000" opacity="1.00" d=" M 72.50 115.93 C 74.29 116.31 76.07 116.70 77.86 117.07 C 77.75 118.91 77.57 120.75 77.44 122.59 C 75.85 122.98 74.25 123.37 72.65 123.73 C 73.18 122.80 73.72 121.87 74.25 120.95 C 76.07 121.11 76.90 120.53 76.75 119.23 C 75.74 118.87 74.73 118.55 73.70 118.25 C 73.40 117.67 72.80 116.51 72.50 115.93 Z" />
<path fill="#ff3000" opacity="1.00" d=" M 83.19 116.37 C 85.12 115.97 87.06 115.61 89.01 115.32 C 87.94 116.47 86.85 117.61 85.76 118.75 C 85.22 118.63 84.13 118.39 83.58 118.27 C 83.49 117.80 83.29 116.84 83.19 116.37 Z" />
<path fill="#ff3000" opacity="1.00" d=" M 71.42 117.73 C 73.64 117.22 74.01 122.33 71.47 121.43 C 70.73 120.39 70.74 118.80 71.42 117.73 Z" />
<path fill="#ff3000" opacity="1.00" d=" M 80.01 118.67 C 81.36 117.56 82.73 119.97 81.47 120.89 C 80.12 122.04 78.76 119.58 80.01 118.67 Z" />
<path fill="#ff3000" opacity="1.00" d=" M 88.26 118.60 C 89.91 117.57 91.35 120.41 89.94 121.44 C 88.33 122.38 86.66 119.59 88.26 118.60 Z" />
<path fill="#ff3000" opacity="1.00" d=" M 83.53 121.34 C 86.00 120.48 87.74 122.58 89.09 124.31 C 87.45 123.43 82.19 124.51 83.53 121.34 Z" />
<path fill="#ff3000" opacity="1.00" d=" M 80.53 122.75 C 82.23 124.12 82.37 126.34 82.85 128.31 C 83.00 127.08 83.18 125.86 83.36 124.64 C 86.01 125.24 88.73 125.50 91.45 125.39 C 92.08 131.26 91.13 137.10 89.29 142.68 C 86.30 142.19 83.32 141.58 80.50 140.44 C 78.78 138.90 76.65 137.99 74.53 137.16 C 73.68 133.32 72.93 129.44 71.68 125.70 C 73.86 125.32 76.03 124.89 78.19 124.43 C 78.37 125.44 78.72 127.46 78.90 128.47 C 79.46 126.57 80.00 124.66 80.53 122.75 Z" />
<path fill="#ff3000" opacity="1.00" d=" M 46.61 158.01 C 49.49 157.80 52.38 157.87 55.26 157.93 C 54.09 160.51 50.77 161.48 48.21 160.79 C 46.65 160.51 46.11 159.58 46.61 158.01 Z" />
<path fill="#ff3000" opacity="1.00" d=" M 112.46 197.45 C 114.36 198.07 116.35 198.78 117.67 200.38 C 118.82 202.91 119.36 205.70 119.61 208.47 C 119.72 210.22 119.74 211.96 119.77 213.72 C 119.14 212.41 118.51 211.11 117.96 209.77 C 116.96 205.30 115.15 201.16 112.46 197.45 Z" />
</g>
</svg>
