<?xml version="1.0" encoding="UTF-8" ?>
<!DOCTYPE svg PUBLIC "-//W3C//DTD SVG 1.1//EN" "http://www.w3.org/Graphics/SVG/1.1/DTD/svg11.dtd">
<svg width="210pt" height="220pt" viewBox="0 0 210 220" version="1.1" xmlns="http://www.w3.org/2000/svg">
<g id="#010101fe">
<path fill="#010101" opacity="1.00" d=" M 87.00 22.44 C 97.49 22.66 107.99 22.26 118.48 22.68 C 120.51 25.29 123.62 26.44 126.63 27.50 C 128.38 29.14 130.15 30.75 131.85 32.44 C 134.87 32.78 140.09 30.94 140.65 35.42 C 140.79 35.37 141.08 35.27 141.23 35.22 C 142.07 38.30 143.06 41.91 146.40 43.13 C 146.94 47.48 149.05 51.60 148.74 56.04 C 146.73 71.57 146.69 87.27 147.16 102.92 C 142.88 107.60 142.40 114.52 138.05 119.24 C 133.81 119.84 129.42 121.42 125.22 119.75 C 120.66 117.20 115.81 120.44 110.98 119.42 C 108.93 118.18 106.49 118.43 104.22 118.22 C 101.66 117.05 98.81 117.57 96.11 117.14 C 91.64 116.66 87.54 114.72 83.36 113.22 C 81.10 110.74 78.87 108.22 76.22 106.14 C 76.19 105.68 76.13 104.78 76.10 104.32 C 75.10 103.71 74.10 103.10 73.12 102.46 C 72.78 101.01 72.07 99.78 70.99 98.79 C 70.89 100.50 70.82 102.21 70.77 103.92 C 70.14 103.90 68.87 103.86 68.24 103.84 C 68.25 100.45 68.28 97.05 68.31 93.66 C 67.93 93.49 67.16 93.16 66.77 93.00 C 66.62 91.34 66.23 89.76 64.45 89.23 C 64.68 89.10 65.15 88.84 65.38 88.72 C 62.28 84.88 61.06 79.92 61.39 75.06 C 61.48 69.02 61.36 62.98 61.42 56.94 C 61.89 49.73 65.04 42.96 65.45 35.74 C 65.75 35.55 66.34 35.17 66.64 34.98 C 67.80 33.41 68.98 31.86 70.14 30.30 C 69.56 30.25 68.41 30.15 67.83 30.10 C 68.61 29.87 70.16 29.42 70.94 29.20 C 74.96 24.80 80.98 22.03 87.00 22.44 M 83.35 25.91 C 81.22 26.01 79.14 26.50 77.27 27.53 C 76.01 29.09 74.56 30.47 73.04 31.78 C 70.10 34.98 66.20 39.26 68.54 43.89 C 70.43 42.79 72.74 41.99 73.05 39.53 C 76.89 38.16 80.09 35.55 83.86 34.07 C 86.71 32.84 89.86 32.79 92.89 32.48 C 104.70 32.32 116.50 32.58 128.30 32.35 C 127.04 31.43 125.80 30.49 124.57 29.53 C 124.05 29.51 123.01 29.48 122.49 29.46 C 119.57 26.92 115.92 25.09 111.98 25.15 C 102.88 25.11 93.79 25.23 84.70 25.10 C 84.36 25.30 83.68 25.71 83.35 25.91 M 92.20 35.60 C 90.44 35.64 88.68 35.68 86.95 36.03 C 84.49 37.15 82.06 38.33 79.61 39.49 C 79.51 39.72 79.31 40.18 79.21 40.41 C 76.86 40.63 75.10 42.10 73.54 43.73 C 73.21 44.48 72.88 45.23 72.54 45.98 C 71.67 46.31 70.81 46.65 69.94 47.01 C 70.59 47.07 71.88 47.20 72.52 47.26 C 73.47 55.36 73.11 63.53 73.11 71.67 C 75.66 74.92 76.15 79.14 78.49 82.50 C 80.65 85.43 82.70 88.44 84.46 91.62 C 88.87 98.93 95.92 104.24 103.63 107.69 C 111.26 112.69 119.95 115.70 128.89 117.28 C 127.71 113.38 124.41 111.21 121.52 108.68 C 121.70 105.94 121.17 103.03 122.56 100.51 C 122.26 99.99 121.67 98.96 121.37 98.45 C 112.98 98.57 104.60 98.45 96.21 98.52 C 96.20 98.07 96.18 97.16 96.17 96.70 C 93.89 96.58 91.96 95.87 92.50 93.08 C 95.05 93.76 97.63 94.39 100.29 94.34 C 102.28 93.20 104.46 92.48 106.68 91.91 C 108.20 91.34 109.67 90.63 111.13 89.91 C 106.71 89.72 102.24 90.21 97.92 88.96 C 94.52 85.89 89.95 86.21 85.70 86.41 C 85.70 85.74 85.71 84.40 85.71 83.74 C 88.08 83.74 90.44 83.74 92.80 83.75 C 97.17 83.20 99.67 79.63 101.98 76.28 C 102.65 76.39 103.99 76.61 104.65 76.73 C 103.67 79.84 100.72 82.06 100.37 85.37 C 103.87 87.25 108.03 86.09 111.82 86.35 C 114.16 83.65 116.98 81.46 119.80 79.31 C 121.21 79.35 122.61 79.40 124.01 79.45 C 124.31 79.93 124.91 80.88 125.21 81.36 C 125.77 81.71 126.87 82.40 127.42 82.75 C 131.46 82.67 135.50 82.73 139.54 82.68 C 140.20 80.34 138.57 79.13 136.37 79.07 C 134.78 77.28 132.58 75.78 132.43 73.16 C 135.58 72.78 137.41 75.77 139.73 77.37 C 141.07 77.89 142.42 78.38 143.80 78.82 C 144.19 78.06 144.96 76.54 145.35 75.77 C 145.74 68.53 144.55 61.13 146.62 54.07 C 144.60 50.69 144.43 46.54 142.36 43.14 C 141.27 41.78 140.20 40.41 139.10 39.07 C 139.13 38.46 139.19 37.25 139.22 36.64 C 138.75 36.58 137.81 36.44 137.34 36.37 C 136.86 35.96 135.90 35.12 135.42 34.70 C 121.44 34.77 107.46 34.79 93.49 34.71 C 93.16 34.93 92.52 35.38 92.20 35.60 M 66.60 44.31 C 65.61 48.46 65.59 52.82 63.91 56.79 C 63.75 63.96 63.86 71.13 63.85 78.29 C 64.67 80.82 65.52 83.33 66.81 85.66 C 67.14 85.93 67.80 86.47 68.13 86.75 C 68.30 87.85 68.48 88.95 68.67 90.06 C 69.55 89.63 70.42 89.20 71.29 88.77 C 72.56 86.65 74.82 85.52 76.66 84.00 C 75.41 82.57 74.12 81.19 72.86 79.77 C 73.06 77.35 72.05 75.21 70.77 73.24 C 70.79 66.82 70.86 60.39 70.77 53.96 C 70.85 52.21 69.46 50.93 68.28 49.85 C 67.89 48.07 69.65 43.91 66.60 44.31 M 142.99 82.55 C 141.24 84.16 139.72 86.01 138.55 88.09 C 140.84 88.17 143.12 88.18 145.41 88.20 C 145.40 85.00 145.42 81.81 145.27 78.62 C 144.47 79.91 143.72 81.22 142.99 82.55 M 121.06 85.35 C 118.99 86.32 117.10 87.58 115.41 89.12 C 120.41 89.09 125.42 89.24 130.42 89.11 C 129.51 88.69 128.59 88.28 127.67 87.88 C 125.44 87.10 123.26 86.21 121.06 85.35 M 72.78 91.57 C 72.48 92.25 71.89 93.61 71.59 94.29 C 74.84 98.21 77.19 102.81 81.08 106.19 C 82.50 107.53 83.70 109.08 84.98 110.56 C 88.68 111.75 92.02 114.01 96.06 113.90 C 97.43 114.24 98.80 114.58 100.14 115.02 C 105.72 115.60 111.25 116.73 116.87 116.94 C 107.22 114.21 98.82 108.62 90.41 103.37 C 85.68 98.23 80.12 93.10 78.88 85.88 C 76.40 87.23 74.61 89.48 72.78 91.57 M 112.25 92.80 C 109.78 94.34 106.81 94.68 104.23 95.99 C 112.29 96.18 120.36 95.67 128.42 96.10 C 131.18 94.65 134.03 93.38 136.74 91.86 C 130.85 91.36 124.93 91.74 119.03 91.60 C 116.69 91.41 114.46 92.17 112.25 92.80 M 139.46 93.56 C 136.46 96.35 132.20 97.10 128.55 98.79 C 129.55 101.54 130.98 104.11 132.06 106.82 C 132.35 110.28 132.08 113.76 132.20 117.23 C 133.42 117.11 134.64 116.91 135.84 116.65 C 140.03 114.64 139.09 109.14 142.15 106.10 C 142.55 103.89 143.36 101.79 144.37 99.79 C 144.37 99.05 144.38 97.59 144.39 96.86 C 144.65 96.54 145.19 95.91 145.46 95.60 C 145.42 94.52 145.35 92.37 145.32 91.29 C 143.38 92.09 141.42 92.82 139.46 93.56 M 125.43 98.80 C 125.12 101.56 124.60 104.30 124.20 107.06 C 125.96 108.48 127.79 109.81 129.55 111.23 C 129.54 110.45 129.52 108.89 129.52 108.11 C 127.78 105.18 126.61 101.98 125.43 98.80 Z" />
<path fill="#010101" opacity="1.00" d=" M 124.50 49.67 C 129.06 49.64 133.39 47.84 137.96 48.19 C 139.56 48.22 141.42 48.00 142.42 49.56 C 144.27 51.06 143.25 53.59 143.36 55.60 C 141.28 54.38 140.34 52.06 138.78 50.32 C 135.74 50.39 132.81 51.24 129.80 51.53 C 128.31 53.32 127.06 55.42 124.89 56.50 C 124.71 56.92 124.34 57.77 124.16 58.19 C 123.76 58.49 122.97 59.08 122.58 59.37 C 121.99 59.34 120.81 59.27 120.22 59.24 C 120.23 57.94 120.25 56.65 120.27 55.35 C 121.73 53.50 123.03 51.52 124.50 49.67 Z" />
<path fill="#010101" opacity="1.00" d=" M 78.05 58.30 C 77.88 54.89 80.52 52.48 81.87 49.59 C 90.66 49.81 99.48 49.24 108.26 49.90 C 112.23 52.17 115.92 55.22 117.74 59.54 C 114.34 60.26 111.27 58.34 109.11 55.91 C 106.64 52.99 102.57 52.46 98.98 52.36 C 94.11 52.42 89.24 52.25 84.37 52.43 C 82.74 54.32 81.35 56.42 79.91 58.45 C 79.44 58.41 78.51 58.34 78.05 58.30 Z" />
<path fill="#010101" opacity="1.00" d=" M 126.34 59.21 C 130.59 59.29 134.85 59.28 139.12 59.24 C 140.28 60.38 141.45 61.51 142.64 62.63 C 142.63 63.73 142.63 64.82 142.62 65.92 C 138.38 65.83 134.15 65.82 129.91 65.91 C 128.63 64.16 127.07 62.64 124.82 62.28 C 125.32 61.26 125.83 60.24 126.34 59.21 Z" />
<path fill="#010101" opacity="1.00" d=" M 88.05 63.74 C 89.55 62.67 91.10 61.68 92.63 60.66 C 97.11 60.78 101.59 60.64 106.07 60.72 C 107.96 60.35 108.26 62.74 108.93 63.94 C 107.63 64.97 106.37 66.06 105.16 67.19 C 103.84 67.17 102.53 67.15 101.21 67.13 C 100.24 67.84 99.26 68.54 98.28 69.25 C 94.53 69.17 90.78 69.20 87.04 69.22 C 86.64 68.69 85.85 67.63 85.45 67.10 C 86.41 66.05 87.32 64.95 88.05 63.74 Z" />
<path fill="#010101" opacity="1.00" d=" M 124.21 75.69 C 126.62 75.31 128.21 76.04 127.98 78.56 C 125.80 78.68 123.58 78.61 124.21 75.69 Z" />
<path fill="#010101" opacity="1.00" d=" M 111.39 77.50 C 113.21 77.88 116.34 76.49 116.75 79.41 C 114.87 79.18 111.29 80.86 111.39 77.50 Z" />
<path fill="#010101" opacity="1.00" d=" M 89.48 117.30 C 90.62 117.23 91.76 117.17 92.91 117.11 C 92.22 119.60 91.71 122.15 91.77 124.75 C 92.68 126.41 93.43 128.14 94.03 129.94 C 95.22 132.19 97.24 134.24 97.14 136.95 C 97.23 145.29 97.13 153.64 97.13 161.98 C 97.11 163.97 97.35 165.95 97.93 167.85 C 99.41 171.54 99.14 175.52 99.60 179.37 C 101.12 185.82 99.99 192.52 101.53 198.97 C 97.01 198.40 98.44 193.72 98.23 190.56 C 97.97 190.14 97.45 189.30 97.19 188.88 C 97.20 184.25 97.22 179.61 97.09 174.98 C 97.24 173.45 96.48 172.19 95.59 171.05 C 95.77 170.83 96.14 170.37 96.33 170.15 C 95.33 167.86 93.92 165.61 93.84 163.05 C 93.63 154.09 94.04 145.12 93.70 136.17 C 93.81 134.10 92.18 132.74 90.81 131.48 C 90.64 147.68 90.91 163.88 90.68 180.08 C 90.99 180.43 91.62 181.13 91.94 181.48 C 91.85 182.26 91.66 183.80 91.57 184.57 C 92.10 184.74 93.15 185.08 93.68 185.25 C 93.65 186.56 93.63 187.88 93.62 189.20 C 95.45 192.02 96.79 195.14 97.54 198.42 C 96.67 198.38 94.92 198.31 94.05 198.27 C 92.93 192.57 89.07 187.84 88.41 181.97 C 88.34 163.58 88.38 145.18 88.39 126.79 C 86.91 129.49 85.34 132.16 83.48 134.63 C 82.62 137.36 81.33 140.04 81.41 142.96 C 81.36 161.64 81.57 180.32 81.31 198.99 C 80.85 198.71 79.93 198.13 79.47 197.85 C 79.13 178.91 79.53 159.94 79.28 141.00 C 79.15 138.37 79.72 135.78 80.58 133.31 C 81.68 131.83 82.74 130.33 83.80 128.82 C 84.15 127.22 84.54 125.62 84.95 124.03 C 86.17 123.84 87.38 123.65 88.59 123.46 C 88.91 121.41 89.20 119.35 89.48 117.30 Z" />
</g>
<g id="#fefefeff">
<path fill="#fefefe" opacity="1.00" d=" M 83.35 25.91 C 83.68 25.71 84.36 25.30 84.70 25.10 C 93.79 25.23 102.88 25.11 111.98 25.15 C 115.92 25.09 119.57 26.92 122.49 29.46 C 123.01 29.48 124.05 29.51 124.57 29.53 C 125.80 30.49 127.04 31.43 128.30 32.35 C 116.50 32.58 104.70 32.32 92.89 32.48 C 89.86 32.79 86.71 32.84 83.86 34.07 C 80.09 35.55 76.89 38.16 73.05 39.53 C 72.74 41.99 70.43 42.79 68.54 43.89 C 66.20 39.26 70.10 34.98 73.04 31.78 C 74.56 30.47 76.01 29.09 77.27 27.53 C 79.14 26.50 81.22 26.01 83.35 25.91 Z" />
<path fill="#fefefe" opacity="1.00" d=" M 92.20 35.60 C 92.52 35.38 93.16 34.93 93.49 34.71 C 107.46 34.79 121.44 34.77 135.42 34.70 C 135.90 35.12 136.86 35.96 137.34 36.37 C 137.81 36.44 138.75 36.58 139.22 36.64 C 139.19 37.25 139.13 38.46 139.10 39.07 C 140.20 40.41 141.27 41.78 142.36 43.14 C 144.43 46.54 144.60 50.69 146.62 54.07 C 144.55 61.13 145.74 68.53 145.35 75.77 C 144.96 76.54 144.19 78.06 143.80 78.82 C 142.42 78.38 141.07 77.89 139.73 77.37 C 137.41 75.77 135.58 72.78 132.43 73.16 C 132.58 75.78 134.78 77.28 136.37 79.07 C 138.57 79.13 140.20 80.34 139.54 82.68 C 135.50 82.73 131.46 82.67 127.42 82.75 C 126.87 82.40 125.77 81.71 125.21 81.36 C 124.91 80.88 124.31 79.93 124.01 79.45 C 122.61 79.40 121.21 79.35 119.80 79.31 C 116.98 81.46 114.16 83.65 111.82 86.35 C 108.03 86.09 103.87 87.25 100.37 85.37 C 100.72 82.06 103.67 79.84 104.65 76.73 C 103.99 76.61 102.65 76.39 101.98 76.28 C 99.67 79.63 97.17 83.20 92.80 83.75 C 90.44 83.74 88.08 83.74 85.71 83.74 C 85.71 84.40 85.70 85.74 85.70 86.41 C 89.95 86.21 94.52 85.89 97.92 88.96 C 102.24 90.21 106.71 89.72 111.13 89.91 C 109.67 90.63 108.20 91.34 106.68 91.91 C 104.46 92.48 102.28 93.20 100.29 94.34 C 97.63 94.39 95.05 93.76 92.50 93.08 C 91.96 95.87 93.89 96.58 96.17 96.70 C 96.18 97.16 96.20 98.07 96.21 98.52 C 104.60 98.45 112.98 98.57 121.37 98.45 C 121.67 98.96 122.26 99.99 122.56 100.51 C 121.17 103.03 121.70 105.94 121.52 108.68 C 124.41 111.21 127.71 113.38 128.89 117.28 C 119.95 115.70 111.26 112.69 103.63 107.69 C 95.92 104.24 88.87 98.93 84.46 91.62 C 82.70 88.44 80.65 85.43 78.49 82.50 C 76.15 79.14 75.66 74.92 73.11 71.67 C 73.11 63.53 73.47 55.36 72.52 47.26 C 71.88 47.20 70.59 47.07 69.94 47.01 C 70.81 46.65 71.67 46.31 72.54 45.98 C 72.88 45.23 73.21 44.48 73.54 43.73 C 75.10 42.10 76.86 40.63 79.21 40.41 C 79.31 40.18 79.51 39.72 79.61 39.49 C 82.06 38.33 84.49 37.15 86.95 36.03 C 88.68 35.68 90.44 35.64 92.20 35.60 M 124.50 49.67 C 123.03 51.52 121.73 53.50 120.27 55.35 C 120.25 56.65 120.23 57.94 120.22 59.24 C 120.81 59.27 121.99 59.34 122.58 59.37 C 122.97 59.08 123.76 58.49 124.16 58.19 C 124.34 57.77 124.71 56.92 124.89 56.50 C 127.06 55.42 128.31 53.32 129.80 51.53 C 132.81 51.24 135.74 50.39 138.78 50.32 C 140.34 52.06 141.28 54.38 143.36 55.60 C 143.25 53.59 144.27 51.06 142.42 49.56 C 141.42 48.00 139.56 48.22 137.96 48.19 C 133.39 47.84 129.06 49.64 124.50 49.67 M 78.05 58.30 C 78.51 58.34 79.44 58.41 79.91 58.45 C 81.35 56.42 82.74 54.32 84.37 52.43 C 89.24 52.25 94.11 52.42 98.98 52.36 C 102.57 52.46 106.64 52.99 109.11 55.91 C 111.27 58.34 114.34 60.26 117.74 59.54 C 115.92 55.22 112.23 52.17 108.26 49.90 C 99.48 49.24 90.66 49.81 81.87 49.59 C 80.52 52.48 77.88 54.89 78.05 58.30 M 126.34 59.21 C 125.83 60.24 125.32 61.26 124.82 62.28 C 127.07 62.64 128.63 64.16 129.91 65.91 C 134.15 65.82 138.38 65.83 142.62 65.92 C 142.63 64.82 142.63 63.73 142.64 62.63 C 141.45 61.51 140.28 60.38 139.12 59.24 C 134.85 59.28 130.59 59.29 126.34 59.21 M 88.05 63.74 C 87.32 64.95 86.41 66.05 85.45 67.10 C 85.85 67.63 86.64 68.69 87.04 69.22 C 90.78 69.20 94.53 69.17 98.28 69.25 C 99.26 68.54 100.24 67.84 101.21 67.13 C 102.53 67.15 103.84 67.17 105.16 67.19 C 106.37 66.06 107.63 64.97 108.93 63.94 C 108.26 62.74 107.96 60.35 106.07 60.72 C 101.59 60.64 97.11 60.78 92.63 60.66 C 91.10 61.68 89.55 62.67 88.05 63.74 M 124.21 75.69 C 123.58 78.61 125.80 78.68 127.98 78.56 C 128.21 76.04 126.62 75.31 124.21 75.69 M 111.39 77.50 C 111.29 80.86 114.87 79.18 116.75 79.41 C 116.34 76.49 113.21 77.88 111.39 77.50 Z" />
<path fill="#fefefe" opacity="1.00" d=" M 66.60 44.31 C 69.65 43.91 67.89 48.07 68.28 49.85 C 69.46 50.93 70.85 52.21 70.77 53.96 C 70.86 60.39 70.79 66.82 70.77 73.24 C 72.05 75.21 73.06 77.35 72.86 79.77 C 74.12 81.19 75.41 82.57 76.66 84.00 C 74.82 85.52 72.56 86.65 71.29 88.77 C 70.42 89.20 69.55 89.63 68.67 90.06 C 68.48 88.95 68.30 87.85 68.13 86.75 C 67.80 86.47 67.14 85.93 66.81 85.66 C 65.52 83.33 64.67 80.82 63.85 78.29 C 63.86 71.13 63.75 63.96 63.91 56.79 C 65.59 52.82 65.61 48.46 66.60 44.31 Z" />
<path fill="#fefefe" opacity="1.00" d=" M 142.99 82.55 C 143.72 81.22 144.47 79.91 145.27 78.62 C 145.42 81.81 145.40 85.00 145.41 88.20 C 143.12 88.18 140.84 88.17 138.55 88.09 C 139.72 86.01 141.24 84.16 142.99 82.55 Z" />
<path fill="#fefefe" opacity="1.00" d=" M 121.06 85.35 C 123.26 86.21 125.44 87.10 127.67 87.88 C 128.59 88.28 129.51 88.69 130.42 89.11 C 125.42 89.24 120.41 89.09 115.41 89.12 C 117.10 87.58 118.99 86.32 121.06 85.35 Z" />
<path fill="#fefefe" opacity="1.00" d=" M 72.78 91.57 C 74.61 89.48 76.40 87.23 78.88 85.88 C 80.12 93.10 85.68 98.23 90.41 103.37 C 98.82 108.62 107.22 114.21 116.87 116.94 C 111.25 116.73 105.72 115.60 100.14 115.02 C 98.80 114.58 97.43 114.24 96.06 113.90 C 92.02 114.01 88.68 111.75 84.98 110.56 C 83.70 109.08 82.50 107.53 81.08 106.19 C 77.19 102.81 74.84 98.21 71.59 94.29 C 71.89 93.61 72.48 92.25 72.78 91.57 Z" />
<path fill="#fefefe" opacity="1.00" d=" M 112.25 92.80 C 114.46 92.17 116.69 91.41 119.03 91.60 C 124.93 91.74 130.85 91.36 136.74 91.86 C 134.03 93.38 131.18 94.65 128.42 96.10 C 120.36 95.67 112.29 96.18 104.23 95.99 C 106.81 94.68 109.78 94.34 112.25 92.80 Z" />
<path fill="#fefefe" opacity="1.00" d=" M 139.46 93.56 C 141.42 92.82 143.38 92.09 145.32 91.29 C 145.35 92.37 145.42 94.52 145.46 95.60 C 145.19 95.91 144.65 96.54 144.39 96.86 C 144.38 97.59 144.37 99.05 144.37 99.79 C 143.36 101.79 142.55 103.89 142.15 106.10 C 139.09 109.14 140.03 114.64 135.84 116.65 C 134.64 116.91 133.42 117.11 132.20 117.23 C 132.08 113.76 132.35 110.28 132.06 106.82 C 130.98 104.11 129.55 101.54 128.55 98.79 C 132.20 97.10 136.46 96.35 139.46 93.56 Z" />
<path fill="#fefefe" opacity="1.00" d=" M 125.43 98.80 C 126.61 101.98 127.78 105.18 129.52 108.11 C 129.52 108.89 129.54 110.45 129.55 111.23 C 127.79 109.81 125.96 108.48 124.20 107.06 C 124.60 104.30 125.12 101.56 125.43 98.80 Z" />
</g>
</svg>
