<?xml version="1.0" encoding="UTF-8" ?>
<!DOCTYPE svg PUBLIC "-//W3C//DTD SVG 1.1//EN" "http://www.w3.org/Graphics/SVG/1.1/DTD/svg11.dtd">
<svg width="210pt" height="220pt" viewBox="0 0 210 220" version="1.1" xmlns="http://www.w3.org/2000/svg">
<g id="#010101fe">
<path fill="#010101" opacity="1.00" d=" M 91.78 39.13 C 97.16 37.34 103.04 38.28 107.94 40.99 C 110.05 40.64 112.22 40.57 114.34 40.97 C 112.91 41.61 111.46 42.22 110.00 42.79 C 114.09 45.39 118.00 48.34 121.28 51.93 C 122.50 49.55 122.17 46.81 122.67 44.26 L 122.85 44.48 C 122.87 46.92 122.93 49.35 123.09 51.78 C 123.02 52.30 122.88 53.35 122.82 53.87 C 125.70 57.86 128.72 61.79 132.34 65.15 C 132.44 65.73 132.66 66.87 132.77 67.44 C 135.17 70.39 134.73 74.39 136.17 77.76 C 137.30 81.87 139.80 85.34 142.35 88.67 C 141.79 88.61 140.67 88.49 140.10 88.43 C 140.26 91.27 140.39 94.10 140.53 96.94 C 140.96 97.31 141.82 98.04 142.25 98.41 C 145.10 101.57 145.78 105.94 146.80 109.91 C 146.23 109.58 145.09 108.91 144.52 108.58 C 143.96 105.53 143.36 102.26 141.07 99.99 C 137.41 96.77 139.67 91.49 137.83 87.46 C 136.01 79.82 128.78 75.00 127.12 67.31 C 130.23 69.62 131.29 73.55 133.72 76.44 C 133.64 74.88 133.50 73.33 133.37 71.78 C 131.61 69.51 129.85 67.24 127.69 65.33 C 127.54 64.42 127.39 63.51 127.23 62.61 C 126.92 64.35 126.61 66.09 126.33 67.83 C 125.55 63.88 125.20 59.20 121.50 56.77 C 121.46 56.10 121.39 54.78 121.36 54.12 C 118.38 50.23 114.08 47.71 110.53 44.42 C 106.33 40.09 99.87 40.45 94.36 39.48 C 86.95 43.09 78.29 42.51 70.68 45.54 C 77.16 46.22 83.80 45.85 89.95 48.43 C 87.15 50.49 83.94 48.10 80.97 47.85 C 74.22 47.31 67.31 47.54 60.77 49.41 C 54.46 53.03 51.71 60.41 45.37 63.97 C 45.39 64.49 45.42 65.53 45.43 66.05 C 43.58 68.37 41.62 70.61 39.81 72.97 C 36.77 76.83 32.66 79.85 30.24 84.18 C 28.93 87.93 30.34 92.20 28.62 95.86 C 27.65 98.11 27.04 100.47 26.54 102.86 C 26.40 102.83 26.11 102.78 25.97 102.75 C 24.77 99.26 27.10 96.14 28.16 92.98 C 28.65 91.58 27.18 90.73 26.62 89.67 C 26.52 91.25 26.45 92.83 26.39 94.42 L 25.01 94.58 C 24.62 90.64 26.25 87.14 28.50 84.04 C 28.81 80.87 27.24 77.02 29.53 74.37 C 29.75 76.73 29.79 79.10 29.88 81.46 C 31.92 78.90 33.98 76.35 35.73 73.58 C 39.02 68.42 43.63 64.31 47.92 60.00 C 48.92 58.89 49.47 57.47 50.15 56.15 C 52.69 54.03 54.85 51.51 57.17 49.17 C 59.98 46.94 63.71 46.57 67.06 45.59 C 70.14 44.91 72.78 42.97 75.90 42.44 C 81.24 41.57 86.54 40.46 91.78 39.13 Z" />
<path fill="#010101" opacity="1.00" d=" M 95.90 59.97 C 102.85 57.01 110.78 57.54 118.08 58.34 C 117.79 62.20 123.40 61.78 122.95 65.52 C 124.37 66.86 125.02 68.73 125.85 70.45 C 124.29 70.10 122.76 69.68 121.22 69.26 C 121.59 69.82 122.33 70.93 122.70 71.49 C 127.16 73.39 128.02 78.79 131.25 82.04 C 131.23 83.05 131.22 84.05 131.20 85.06 C 132.08 86.01 132.97 86.95 133.86 87.90 C 133.80 90.58 133.80 93.26 133.81 95.94 C 131.79 99.59 128.76 102.59 124.84 104.14 C 115.77 105.06 105.69 104.00 98.86 97.34 C 96.56 94.29 94.84 90.82 92.26 87.94 C 90.84 82.85 93.70 77.63 96.56 73.52 C 99.86 70.19 103.23 66.87 107.06 64.13 C 105.91 64.31 104.77 64.50 103.63 64.68 C 103.87 63.68 104.35 61.66 104.60 60.66 C 103.10 60.54 101.60 60.41 100.10 60.27 C 98.63 62.04 97.14 61.93 95.90 59.97 M 110.85 60.51 C 113.76 62.10 116.91 63.32 120.20 63.83 C 117.34 62.20 114.29 60.22 110.85 60.51 M 111.61 64.01 C 111.40 64.44 110.99 65.32 110.78 65.75 C 110.44 65.90 109.76 66.20 109.42 66.35 L 107.90 65.72 C 104.29 67.77 101.91 71.31 98.53 73.65 C 95.80 77.56 93.21 82.01 93.57 86.95 C 95.64 89.07 97.25 91.58 98.69 94.16 C 100.07 96.94 103.11 98.14 105.39 100.03 C 111.44 102.56 117.96 103.14 124.44 102.47 C 127.83 101.01 130.53 98.40 132.24 95.15 C 132.21 92.84 132.20 90.53 132.15 88.22 C 131.34 87.51 130.53 86.80 129.73 86.08 C 130.21 81.48 126.02 78.57 124.26 74.72 C 121.14 73.25 120.34 69.74 117.75 67.74 C 117.45 67.48 116.84 66.96 116.53 66.70 C 115.86 64.43 113.72 63.90 111.61 64.01 Z" />
<path fill="#010101" opacity="1.00" d=" M 52.02 72.75 C 55.04 72.04 57.74 70.28 60.89 70.09 C 61.36 73.48 58.06 74.45 55.64 75.69 C 55.40 76.10 54.92 76.93 54.68 77.34 C 48.07 79.74 43.24 85.08 37.93 89.40 C 37.18 89.10 35.70 88.49 34.95 88.19 C 36.59 86.31 38.23 84.43 40.02 82.70 C 39.04 82.90 37.08 83.30 36.09 83.50 C 40.29 78.58 45.61 74.26 52.02 72.75 M 43.33 77.92 C 41.84 78.29 42.32 80.76 43.89 79.86 C 45.44 79.52 44.92 76.97 43.33 77.92 Z" />
<path fill="#010101" opacity="1.00" d=" M 52.29 80.82 C 55.65 80.66 59.09 80.55 62.31 81.75 C 63.14 82.17 63.98 82.58 64.82 82.99 C 66.18 85.13 68.04 86.86 69.94 88.51 C 69.94 90.76 71.47 92.28 73.44 93.17 C 72.46 93.79 71.35 94.08 70.21 93.72 C 68.29 91.43 68.37 88.01 66.12 85.95 C 62.45 83.22 57.92 81.83 53.34 82.49 C 49.84 84.55 46.02 86.33 43.31 89.47 C 41.14 92.72 40.38 96.66 40.06 100.50 C 40.55 100.79 41.53 101.37 42.01 101.66 C 42.16 104.15 42.59 106.60 42.82 109.08 C 42.64 112.80 46.00 115.41 49.05 116.83 C 52.03 117.04 55.03 116.98 58.02 116.87 C 62.19 113.82 65.81 110.02 68.53 105.60 C 72.14 101.99 73.98 97.10 74.61 92.11 C 74.08 91.49 73.02 90.25 72.50 89.63 C 73.29 89.69 74.89 89.81 75.68 89.87 C 77.19 96.34 73.53 102.69 69.34 107.37 C 67.22 111.05 64.11 113.95 61.03 116.83 C 58.56 119.86 54.30 118.29 50.94 118.67 C 47.05 119.06 44.27 115.65 41.95 113.02 C 40.25 109.29 41.85 104.22 38.56 101.16 C 38.46 98.69 38.33 96.06 40.14 94.12 C 39.48 86.84 47.56 84.38 52.29 80.82 Z" />
<path fill="#010101" opacity="1.00" d=" M 108.51 83.53 C 110.73 81.35 115.10 79.77 117.32 82.71 C 118.25 85.18 119.87 88.19 118.53 90.75 C 116.47 92.17 113.74 92.04 111.40 91.58 C 108.04 90.36 108.64 86.37 108.51 83.53 Z" />
<path fill="#010101" opacity="1.00" d=" M 55.37 91.39 C 57.83 90.88 60.71 91.40 62.18 93.62 C 63.94 95.43 63.24 98.08 63.52 100.34 C 62.10 103.12 59.39 105.65 56.01 104.77 C 51.34 102.20 50.75 94.34 55.37 91.39 Z" />
<path fill="#010101" opacity="1.00" d=" M 145.91 97.69 C 146.11 97.70 146.51 97.72 146.70 97.73 C 148.53 99.94 148.53 102.97 149.04 105.66 C 149.59 112.77 148.77 120.00 150.19 127.03 C 148.72 135.09 149.45 143.40 150.60 151.45 C 151.09 148.66 148.97 144.51 152.16 142.92 C 152.77 148.51 151.73 154.19 149.13 159.19 C 145.60 165.42 143.90 172.47 140.68 178.86 C 140.22 179.94 139.43 180.69 138.31 181.13 C 138.87 179.21 139.43 177.30 139.81 175.34 C 141.72 171.49 142.75 167.29 144.00 163.20 C 145.19 160.93 146.09 158.52 146.79 156.06 C 147.28 155.64 148.27 154.78 148.77 154.36 C 148.95 146.56 147.74 138.82 148.19 131.02 C 148.64 124.51 146.79 118.23 145.52 111.92 C 146.00 111.36 146.49 110.80 146.98 110.25 L 147.97 112.43 C 148.08 107.41 146.92 102.56 145.91 97.69 M 148.31 157.28 C 148.73 157.88 148.73 157.88 148.31 157.28 Z" />
<path fill="#010101" opacity="1.00" d=" M 93.33 113.46 L 95.07 113.71 C 97.12 116.30 99.29 118.98 100.56 122.04 C 100.44 125.34 101.40 129.13 100.01 132.16 C 96.07 132.39 91.11 133.10 88.06 130.00 C 86.07 125.71 86.53 120.81 86.50 116.20 C 86.93 116.22 87.80 116.27 88.23 116.29 C 88.18 120.45 87.98 124.70 89.27 128.72 C 91.78 131.26 95.75 130.51 98.99 130.67 C 98.86 127.78 99.09 124.87 98.73 121.99 C 97.10 119.04 94.82 116.50 93.33 113.46 Z" />
<path fill="#010101" opacity="1.00" d=" M 117.80 143.72 C 122.98 140.62 126.56 135.62 130.42 131.12 C 131.05 133.19 129.73 134.92 128.42 136.36 C 125.29 139.60 122.37 143.15 118.36 145.36 C 112.21 148.86 106.31 153.51 99.00 154.18 C 92.80 155.91 86.33 155.17 79.98 155.21 C 76.18 154.22 72.23 153.74 68.50 152.47 C 64.73 150.58 61.25 148.13 57.82 145.68 C 58.32 145.59 59.31 145.40 59.81 145.30 C 64.04 147.49 67.64 151.15 72.56 151.78 C 76.07 152.23 79.39 153.91 83.00 153.62 C 87.98 153.47 93.06 154.14 97.90 152.62 C 105.41 152.00 111.49 147.32 117.80 143.72 Z" />
<path fill="#010101" opacity="1.00" d=" M 98.85 157.72 C 104.07 157.49 108.27 154.15 112.88 152.12 C 112.70 152.63 112.35 153.65 112.17 154.16 C 106.33 158.37 99.12 160.26 91.95 159.68 C 88.65 159.23 84.12 160.28 81.86 157.25 C 87.53 157.38 93.18 158.92 98.85 157.72 Z" />
</g>
<g id="#fefefeff">
<path fill="#fefefe" opacity="1.00" d=" M 70.68 45.54 C 78.29 42.51 86.95 43.09 94.36 39.48 C 99.87 40.45 106.33 40.09 110.53 44.42 C 114.08 47.71 118.38 50.23 121.36 54.12 C 121.39 54.78 121.46 56.10 121.50 56.77 C 125.20 59.20 125.55 63.88 126.33 67.83 C 126.61 66.09 126.92 64.35 127.23 62.61 C 127.39 63.51 127.54 64.42 127.69 65.33 C 129.85 67.24 131.61 69.51 133.37 71.78 C 133.50 73.33 133.64 74.88 133.72 76.44 C 131.29 73.55 130.23 69.62 127.12 67.31 C 128.78 75.00 136.01 79.82 137.83 87.46 C 139.67 91.49 137.41 96.77 141.07 99.99 C 143.36 102.26 143.96 105.53 144.52 108.58 C 145.09 108.91 146.23 109.58 146.80 109.91 C 145.78 105.94 145.10 101.57 142.25 98.41 L 141.91 97.99 C 143.49 97.73 145.07 97.44 146.65 97.21 L 146.70 97.73 C 146.51 97.72 146.11 97.70 145.91 97.69 C 146.92 102.56 148.08 107.41 147.97 112.43 L 146.98 110.25 C 146.49 110.80 146.00 111.36 145.52 111.92 C 146.79 118.23 148.64 124.51 148.19 131.02 C 147.74 138.82 148.95 146.56 148.77 154.36 C 148.27 154.78 147.28 155.64 146.79 156.06 C 146.09 158.52 145.19 160.93 144.00 163.20 C 142.75 167.29 141.72 171.49 139.81 175.34 C 139.43 177.30 138.87 179.21 138.31 181.13 C 104.86 180.57 71.36 181.36 37.91 180.73 C 37.67 179.02 36.82 177.55 35.89 176.14 C 35.52 175.13 35.14 174.14 34.73 173.15 C 33.90 169.79 33.27 166.40 32.51 163.03 C 35.22 163.30 36.70 165.76 37.66 168.03 C 38.49 170.18 40.29 171.62 42.15 172.86 C 43.46 173.56 44.80 174.22 46.17 174.79 C 48.23 175.87 50.21 177.12 52.38 177.98 L 52.50 178.23 C 52.97 178.62 53.90 179.40 54.37 179.80 C 54.65 179.58 55.22 179.16 55.50 178.95 C 54.47 177.35 52.63 176.73 50.97 176.01 C 47.47 173.72 43.50 172.30 40.01 169.99 C 39.42 168.61 38.79 167.23 38.23 165.84 C 36.70 163.70 34.79 161.88 32.81 160.16 C 32.75 157.79 32.51 155.43 32.20 153.08 C 30.78 150.03 29.90 146.76 29.40 143.44 L 28.91 143.41 C 28.64 142.80 28.09 141.57 27.81 140.95 C 27.59 138.62 27.48 136.29 27.16 133.97 C 26.63 132.44 26.27 130.72 24.72 129.87 C 24.63 126.57 24.65 123.28 24.71 119.98 C 26.27 114.53 24.71 108.64 25.48 103.11 L 25.97 102.75 C 26.11 102.78 26.40 102.83 26.54 102.86 C 27.04 100.47 27.65 98.11 28.62 95.86 C 30.34 92.20 28.93 87.93 30.24 84.18 C 32.66 79.85 36.77 76.83 39.81 72.97 C 41.62 70.61 43.58 68.37 45.43 66.05 C 45.42 65.53 45.39 64.49 45.37 63.97 C 51.71 60.41 54.46 53.03 60.77 49.41 C 67.31 47.54 74.22 47.31 80.97 47.85 C 83.94 48.10 87.15 50.49 89.95 48.43 C 83.80 45.85 77.16 46.22 70.68 45.54 M 95.90 59.97 C 97.14 61.93 98.63 62.04 100.10 60.27 C 101.60 60.41 103.10 60.54 104.60 60.66 C 104.35 61.66 103.87 63.68 103.63 64.68 C 104.77 64.50 105.91 64.31 107.06 64.13 C 103.23 66.87 99.86 70.19 96.56 73.52 C 93.70 77.63 90.84 82.85 92.26 87.94 C 94.84 90.82 96.56 94.29 98.86 97.34 C 105.69 104.00 115.77 105.06 124.84 104.14 C 128.76 102.59 131.79 99.59 133.81 95.94 C 133.80 93.26 133.80 90.58 133.86 87.90 C 132.97 86.95 132.08 86.01 131.20 85.06 C 131.22 84.05 131.23 83.05 131.25 82.04 C 128.02 78.79 127.16 73.39 122.70 71.49 C 122.33 70.93 121.59 69.82 121.22 69.26 C 122.76 69.68 124.29 70.10 125.85 70.45 C 125.02 68.73 124.37 66.86 122.95 65.52 C 123.40 61.78 117.79 62.20 118.08 58.34 C 110.78 57.54 102.85 57.01 95.90 59.97 M 52.02 72.75 C 45.61 74.26 40.29 78.58 36.09 83.50 C 37.08 83.30 39.04 82.90 40.02 82.70 C 38.23 84.43 36.59 86.31 34.95 88.19 C 35.70 88.49 37.18 89.10 37.93 89.40 C 43.24 85.08 48.07 79.74 54.68 77.34 C 54.92 76.93 55.40 76.10 55.64 75.69 C 58.06 74.45 61.36 73.48 60.89 70.09 C 57.74 70.28 55.04 72.04 52.02 72.75 M 52.29 80.82 C 47.56 84.38 39.48 86.84 40.14 94.12 C 38.33 96.06 38.46 98.69 38.56 101.16 C 41.85 104.22 40.25 109.29 41.95 113.02 C 44.27 115.65 47.05 119.06 50.94 118.67 C 54.30 118.29 58.56 119.86 61.03 116.83 C 64.11 113.95 67.22 111.05 69.34 107.37 C 73.53 102.69 77.19 96.34 75.68 89.87 C 74.89 89.81 73.29 89.69 72.50 89.63 C 73.02 90.25 74.08 91.49 74.61 92.11 C 73.98 97.10 72.14 101.99 68.53 105.60 C 65.81 110.02 62.19 113.82 58.02 116.87 C 55.03 116.98 52.03 117.04 49.05 116.83 C 46.00 115.41 42.64 112.80 42.82 109.08 C 42.59 106.60 42.16 104.15 42.01 101.66 C 41.53 101.37 40.55 100.79 40.06 100.50 C 40.38 96.66 41.14 92.72 43.31 89.47 C 46.02 86.33 49.84 84.55 53.34 82.49 C 57.92 81.83 62.45 83.22 66.12 85.95 C 68.37 88.01 68.29 91.43 70.21 93.72 C 71.35 94.08 72.46 93.79 73.44 93.17 C 71.47 92.28 69.94 90.76 69.94 88.51 C 68.04 86.86 66.18 85.13 64.82 82.99 C 63.98 82.58 63.14 82.17 62.31 81.75 C 59.09 80.55 55.65 80.66 52.29 80.82 M 55.37 91.39 C 50.75 94.34 51.34 102.20 56.01 104.77 C 59.39 105.65 62.10 103.12 63.52 100.34 C 63.24 98.08 63.94 95.43 62.18 93.62 C 60.71 91.40 57.83 90.88 55.37 91.39 M 93.33 113.46 C 94.82 116.50 97.10 119.04 98.73 121.99 C 99.09 124.87 98.86 127.78 98.99 130.67 C 95.75 130.51 91.78 131.26 89.27 128.72 C 87.98 124.70 88.18 120.45 88.23 116.29 C 87.80 116.27 86.93 116.22 86.50 116.20 C 86.53 120.81 86.07 125.71 88.06 130.00 C 91.11 133.10 96.07 132.39 100.01 132.16 C 101.40 129.13 100.44 125.34 100.56 122.04 C 99.29 118.98 97.12 116.30 95.07 113.71 L 93.33 113.46 M 117.80 143.72 C 111.49 147.32 105.41 152.00 97.90 152.62 C 93.06 154.14 87.98 153.47 83.00 153.62 C 79.39 153.91 76.07 152.23 72.56 151.78 C 67.64 151.15 64.04 147.49 59.81 145.30 C 59.31 145.40 58.32 145.59 57.82 145.68 C 61.25 148.13 64.73 150.58 68.50 152.47 C 72.23 153.74 76.18 154.22 79.98 155.21 C 86.33 155.17 92.80 155.91 99.00 154.18 C 106.31 153.51 112.21 148.86 118.36 145.36 C 122.37 143.15 125.29 139.60 128.42 136.36 C 129.73 134.92 131.05 133.19 130.42 131.12 C 126.56 135.62 122.98 140.62 117.80 143.72 M 98.85 157.72 C 93.18 158.92 87.53 157.38 81.86 157.25 C 84.12 160.28 88.65 159.23 91.95 159.68 C 99.12 160.26 106.33 158.37 112.17 154.16 C 112.35 153.65 112.70 152.63 112.88 152.12 C 108.27 154.15 104.07 157.49 98.85 157.72 Z" />
<path fill="#fefefe" opacity="1.00" d=" M 110.85 60.51 C 114.29 60.22 117.34 62.20 120.20 63.83 C 116.91 63.32 113.76 62.10 110.85 60.51 Z" />
<path fill="#fefefe" opacity="1.00" d=" M 98.53 73.65 C 101.91 71.31 104.29 67.77 107.90 65.72 L 109.42 66.35 C 112.12 67.18 114.95 67.44 117.75 67.74 C 120.34 69.74 121.14 73.25 124.26 74.72 C 126.02 78.57 130.21 81.48 129.73 86.08 C 130.53 86.80 131.34 87.51 132.15 88.22 C 132.20 90.53 132.21 92.84 132.24 95.15 C 130.53 98.40 127.83 101.01 124.44 102.47 C 117.96 103.14 111.44 102.56 105.39 100.03 C 103.11 98.14 100.07 96.94 98.69 94.16 C 97.25 91.58 95.64 89.07 93.57 86.95 C 93.21 82.01 95.80 77.56 98.53 73.65 M 108.51 83.53 C 108.64 86.37 108.04 90.36 111.40 91.58 C 113.74 92.04 116.47 92.17 118.53 90.75 C 119.87 88.19 118.25 85.18 117.32 82.71 C 115.10 79.77 110.73 81.35 108.51 83.53 Z" />
<path fill="#fefefe" opacity="1.00" d=" M 158.28 92.01 C 159.92 91.50 160.47 92.05 159.93 93.66 C 158.29 94.17 157.74 93.62 158.28 92.01 Z" />
</g>
<g id="#9f3232da">
<path fill="#9f3232" opacity="0.85" d=" M 122.85 44.48 L 123.42 44.09 C 124.92 44.10 126.43 44.13 127.94 44.19 C 127.94 44.51 127.93 45.16 127.93 45.49 C 126.78 45.80 125.63 46.13 124.49 46.48 C 125.33 46.58 127.02 46.78 127.87 46.89 L 127.86 48.04 C 126.68 48.44 125.51 48.86 124.36 49.32 C 125.94 49.92 127.54 50.49 129.12 51.11 C 127.17 51.21 124.82 53.20 123.09 51.78 C 122.93 49.35 122.87 46.92 122.85 44.48 Z" />
<path fill="#9f3232" opacity="0.85" d=" M 129.14 43.89 C 131.77 44.30 131.85 47.29 132.83 49.20 C 133.39 47.53 133.91 45.85 134.39 44.16 C 137.43 44.19 140.55 43.89 143.48 44.92 C 141.92 45.39 140.36 45.83 138.79 46.22 C 140.25 46.68 141.70 47.19 143.16 47.68 C 141.86 48.06 140.54 48.40 139.23 48.74 L 139.18 49.70 C 140.26 50.04 142.42 50.71 143.50 51.05 C 141.54 51.74 139.47 51.76 137.43 51.78 C 137.06 49.67 138.16 47.00 136.75 45.25 C 135.03 46.86 134.68 49.96 133.47 52.12 C 130.19 50.86 130.13 46.77 129.14 43.89 Z" />
<path fill="#9f3232" opacity="0.85" d=" M 144.26 44.17 C 146.92 44.09 150.31 43.81 150.72 47.42 C 149.17 46.73 147.63 46.00 146.06 45.36 C 146.08 45.86 146.12 46.86 146.14 47.36 C 148.99 47.29 149.94 50.12 151.07 52.16 C 149.16 51.69 147.81 50.28 146.53 48.88 C 146.23 49.77 145.63 51.55 145.33 52.44 C 143.36 50.14 144.35 46.92 144.26 44.17 Z" />
<path fill="#9f3232" opacity="0.85" d=" M 156.29 44.40 C 159.32 44.38 162.46 43.79 165.40 44.79 C 162.08 45.72 162.95 49.13 162.72 51.73 C 162.26 51.70 161.34 51.65 160.88 51.62 C 160.82 48.87 161.57 45.37 157.88 44.76 C 156.60 46.91 155.78 49.26 155.42 51.74 C 155.07 51.71 154.35 51.65 154.00 51.62 C 153.71 48.81 152.36 46.31 151.25 43.77 C 152.76 44.49 154.03 45.51 155.06 46.84 C 155.37 46.23 155.98 45.01 156.29 44.40 Z" />
<path fill="#9f3232" opacity="0.85" d=" M 167.57 52.38 C 165.09 50.43 165.27 45.71 167.49 43.60 C 167.74 44.53 168.25 46.37 168.50 47.29 C 170.27 46.93 171.09 45.52 171.44 43.78 C 173.28 45.79 173.74 50.90 170.91 52.22 C 170.83 51.27 170.67 49.38 170.60 48.43 C 170.03 48.40 168.89 48.35 168.33 48.33 C 168.09 49.68 167.83 51.03 167.57 52.38 Z" />
<path fill="#9f3232" opacity="0.85" d=" M 174.13 44.10 C 175.58 44.21 177.03 44.31 178.49 44.42 C 176.82 46.58 176.83 49.41 178.50 51.56 C 177.04 51.65 175.59 51.75 174.13 51.85 C 175.45 49.31 175.43 46.63 174.13 44.10 Z" />
<path fill="#9f3232" opacity="0.85" d=" M 180.25 43.67 C 182.26 44.54 183.54 46.31 184.75 48.05 C 184.81 46.38 184.80 44.57 186.48 43.72 C 186.65 46.55 186.61 49.39 186.44 52.22 C 184.25 51.10 183.05 48.90 181.74 46.94 C 181.11 48.34 182.94 52.27 180.22 51.77 C 179.58 49.10 179.92 46.35 180.25 43.67 Z" />
<path fill="#9f3232" opacity="0.85" d=" M 190.36 44.52 C 191.74 43.78 195.03 43.82 194.83 46.01 C 194.70 48.06 195.98 51.59 192.91 51.73 C 188.54 53.11 185.80 46.07 190.36 44.52 M 190.45 46.55 C 188.70 48.72 191.34 50.06 193.19 50.56 C 192.73 49.85 191.80 48.45 191.34 47.74 C 192.10 47.73 193.62 47.69 194.38 47.68 C 194.28 47.12 194.07 46.00 193.96 45.44 C 193.08 45.72 191.33 46.27 190.45 46.55 Z" />
<path fill="#9f3232" opacity="0.85" d=" M 143.42 54.65 C 145.32 54.79 147.25 54.90 149.02 55.66 C 147.53 56.19 146.06 56.71 144.57 57.22 C 145.45 57.36 147.20 57.63 148.07 57.77 L 148.11 58.57 C 146.80 58.99 145.42 59.36 144.52 60.48 C 145.62 60.69 147.82 61.11 148.92 61.31 C 147.46 62.94 145.22 62.40 143.30 62.56 C 143.26 59.92 143.29 57.28 143.42 54.65 Z" />
<path fill="#9f3232" opacity="0.85" d=" M 131.40 55.20 C 131.88 55.18 132.82 55.14 133.30 55.12 C 133.72 56.45 134.15 57.78 134.58 59.11 C 135.15 57.36 135.75 55.59 136.85 54.08 C 137.48 55.77 138.07 57.46 138.63 59.18 C 139.16 57.53 139.69 55.88 140.29 54.26 C 142.92 56.47 139.94 59.89 139.62 62.58 C 139.20 62.51 138.35 62.36 137.93 62.28 C 137.40 60.85 136.86 59.42 136.30 58.01 C 135.97 59.46 135.65 60.92 135.33 62.39 C 134.87 62.42 133.95 62.49 133.49 62.53 C 132.77 60.09 132.08 57.65 131.40 55.20 Z" />
<path fill="#9f3232" opacity="0.85" d=" M 151.12 63.00 C 149.05 60.72 149.75 56.92 150.93 54.32 C 152.51 55.55 153.59 57.24 154.77 58.82 C 154.82 57.67 154.93 55.37 154.98 54.22 C 157.69 56.30 156.16 60.04 156.42 62.89 C 154.26 61.90 153.12 59.79 151.94 57.86 C 151.96 59.63 151.69 61.34 151.12 63.00 Z" />
<path fill="#9f3232" opacity="0.85" d=" M 157.16 54.93 C 159.54 54.83 162.01 54.61 164.29 55.52 C 160.81 56.34 161.92 59.89 161.66 62.44 L 159.82 62.38 C 159.82 60.66 159.82 58.95 159.82 57.23 C 158.92 56.48 158.03 55.71 157.16 54.93 Z" />
<path fill="#9f3232" opacity="0.85" d=" M 111.61 64.01 C 113.72 63.90 115.86 64.43 116.53 66.70 C 116.84 66.96 117.45 67.48 117.75 67.74 C 114.95 67.44 112.12 67.18 109.42 66.35 C 109.76 66.20 110.44 65.90 110.78 65.75 C 110.99 65.32 111.40 64.44 111.61 64.01 Z" />
<path fill="#9f3232" opacity="0.85" d=" M 173.25 66.63 C 175.62 66.63 178.19 66.58 179.73 68.74 C 179.30 69.32 178.43 70.48 178.00 71.06 C 178.64 72.33 179.28 73.61 179.85 74.92 C 178.21 74.03 176.78 72.83 175.45 71.53 C 175.19 72.71 174.72 73.78 174.02 74.73 C 172.12 72.55 173.42 69.26 173.25 66.63 M 175.22 68.37 C 174.67 69.99 175.23 70.54 176.87 70.02 C 177.40 68.41 176.85 67.86 175.22 68.37 Z" />
<path fill="#9f3232" opacity="0.85" d=" M 138.85 66.62 C 140.71 66.73 142.56 66.95 144.37 67.41 C 144.31 69.17 144.58 70.91 145.24 72.55 C 143.64 74.51 141.13 74.35 138.84 74.34 C 138.83 71.77 138.84 69.20 138.85 66.62 M 141.47 67.63 C 141.28 69.55 141.23 71.49 141.23 73.43 C 143.69 72.44 142.56 69.27 141.47 67.63 Z" />
<path fill="#9f3232" opacity="0.85" d=" M 146.24 66.79 C 147.94 66.76 149.66 66.73 151.37 66.71 L 151.28 68.06 C 150.07 68.28 148.87 68.51 147.66 68.74 C 149.10 69.25 150.54 69.76 151.93 70.41 C 150.81 70.68 148.58 71.23 147.46 71.50 C 148.54 72.54 150.03 72.71 151.44 72.99 L 151.36 74.34 C 149.65 74.31 147.95 74.27 146.25 74.23 C 146.21 71.75 146.20 69.27 146.24 66.79 Z" />
<path fill="#9f3232" opacity="0.85" d=" M 151.86 66.88 C 154.29 66.79 156.72 66.76 159.16 66.79 C 155.85 68.26 156.60 71.87 156.32 74.76 C 153.57 74.06 154.90 70.90 154.49 68.93 C 153.83 68.42 152.52 67.39 151.86 66.88 Z" />
<path fill="#9f3232" opacity="0.85" d=" M 159.34 66.69 C 161.57 66.74 163.80 66.80 166.04 66.91 C 165.36 67.42 163.99 68.42 163.31 68.92 C 163.29 70.88 163.26 72.83 163.17 74.78 C 159.55 73.75 163.14 68.57 159.29 67.79 L 159.34 66.69 Z" />
<path fill="#9f3232" opacity="0.85" d=" M 166.37 66.81 C 168.08 66.77 169.78 66.73 171.49 66.69 L 171.51 68.26 C 170.59 68.27 168.75 68.31 167.83 68.32 C 169.16 69.07 170.51 69.77 171.85 70.50 C 170.77 70.75 168.60 71.24 167.51 71.49 C 169.08 72.38 170.70 73.17 172.28 74.05 C 170.29 74.19 168.29 74.27 166.30 74.34 C 166.26 71.83 166.28 69.32 166.37 66.81 Z" />
<path fill="#9f3232" opacity="0.85" d=" M 43.33 77.92 C 44.92 76.97 45.44 79.52 43.89 79.86 C 42.32 80.76 41.84 78.29 43.33 77.92 Z" />
<path fill="#9f3232" opacity="0.85" d=" M 153.72 78.38 C 154.10 78.50 154.85 78.74 155.22 78.85 C 155.18 81.49 155.11 84.13 154.83 86.76 C 153.23 85.86 153.12 84.00 152.69 82.43 C 150.65 82.85 150.48 84.95 149.74 86.53 C 147.43 85.00 149.22 81.64 148.81 79.45 C 147.61 79.80 146.40 80.15 145.19 80.48 C 144.89 82.47 146.06 85.13 144.20 86.60 C 142.21 84.64 144.73 80.56 141.31 79.61 L 141.23 78.43 C 143.79 78.54 146.37 78.66 148.91 79.08 C 150.57 78.93 150.96 81.58 152.68 81.13 C 152.94 80.44 153.46 79.07 153.72 78.38 Z" />
<path fill="#9f3232" opacity="0.85" d=" M 158.94 78.69 C 159.67 78.67 160.40 78.64 161.13 78.62 C 162.10 81.24 163.01 83.88 163.72 86.59 C 162.44 85.81 161.17 85.03 159.91 84.23 C 158.77 85.06 157.63 85.87 156.48 86.68 C 157.09 83.95 157.98 81.31 158.94 78.69 Z" />
<path fill="#9f3232" opacity="0.85" d=" M 164.85 78.66 C 167.44 77.88 168.32 81.11 169.79 82.54 C 169.83 81.43 169.91 79.21 169.95 78.09 C 171.88 78.57 171.53 80.57 171.62 82.00 C 171.38 83.50 172.18 85.80 170.26 86.40 C 168.95 84.89 167.88 83.18 166.75 81.54 C 166.49 83.37 166.98 85.67 165.04 86.78 C 164.78 84.08 164.62 81.36 164.85 78.66 Z" />
<path fill="#9f3232" opacity="0.85" d=" M 148.12 89.88 C 149.30 90.61 150.44 91.38 151.57 92.18 C 152.69 91.37 153.83 90.60 155.00 89.87 C 154.36 91.28 153.65 92.66 152.93 94.03 C 153.61 95.53 154.28 97.02 154.89 98.55 C 153.69 97.73 152.54 96.86 151.39 95.98 C 150.39 96.85 149.37 97.69 148.33 98.50 C 148.86 97.00 149.48 95.53 150.14 94.07 C 149.43 92.69 148.75 91.30 148.12 89.88 Z" />
<path fill="#9f3232" opacity="0.85" d=" M 156.29 90.32 C 158.30 90.62 162.18 89.78 162.05 92.92 C 162.42 94.97 159.56 94.92 158.30 95.61 C 158.11 96.32 157.72 97.74 157.53 98.44 C 155.06 96.51 156.59 92.99 156.29 90.32 M 158.28 92.01 C 157.74 93.62 158.29 94.17 159.93 93.66 C 160.47 92.05 159.92 91.50 158.28 92.01 Z" />
<path fill="#9f3232" opacity="0.85" d=" M 163.61 90.43 C 165.52 90.41 167.44 90.42 169.35 90.53 C 168.27 91.82 166.62 92.18 165.10 92.65 C 166.51 93.04 167.95 93.44 169.26 94.10 C 168.13 94.36 165.86 94.88 164.72 95.14 C 166.18 95.86 167.70 96.46 169.27 96.91 C 167.73 98.48 165.45 97.78 163.52 97.84 C 163.55 95.37 163.59 92.90 163.61 90.43 Z" />
<path fill="#9f3232" opacity="0.85" d=" M 170.16 94.91 C 169.44 91.42 173.38 89.66 176.25 90.61 C 180.36 90.46 184.49 90.35 188.59 90.52 C 188.90 90.84 189.51 91.48 189.82 91.80 C 188.76 91.93 186.64 92.20 185.58 92.33 C 186.97 92.81 188.36 93.29 189.75 93.77 C 188.54 94.21 187.31 94.61 186.09 95.01 L 186.10 96.00 C 187.28 96.22 188.46 96.49 189.63 96.79 C 188.97 99.00 185.94 97.50 184.22 97.88 C 184.19 95.55 184.19 93.21 184.20 90.88 C 180.29 91.45 181.28 95.23 181.13 98.06 C 177.32 97.86 180.90 92.24 177.30 91.46 C 175.68 92.42 172.17 91.59 172.10 94.03 C 171.80 96.86 175.43 96.02 177.18 96.52 C 175.01 98.75 170.78 98.32 170.16 94.91 Z" />
<path fill="#9f3232" opacity="0.85" d=" M 191.09 90.30 C 194.01 89.96 197.63 90.85 198.49 94.01 C 198.05 97.45 193.98 98.39 191.05 97.92 C 190.91 95.38 190.93 92.83 191.09 90.30 M 192.98 91.51 C 192.91 93.23 192.88 94.95 192.88 96.68 C 193.58 96.41 194.98 95.88 195.68 95.61 C 197.06 93.31 194.92 92.11 192.98 91.51 Z" />
<path fill="#9f3232" opacity="0.85" d=" M 141.84 90.57 C 143.46 90.45 145.09 90.34 146.72 90.24 L 146.77 91.97 C 145.91 92.08 144.19 92.30 143.33 92.41 C 144.74 92.92 146.22 93.38 147.45 94.28 C 146.53 94.40 144.68 94.63 143.76 94.74 L 143.72 96.11 C 145.34 95.60 146.32 95.96 146.65 97.21 C 145.07 97.44 143.49 97.73 141.91 97.99 C 141.85 95.52 141.83 93.04 141.84 90.57 Z" />
<path fill="#9f3232" opacity="0.85" d=" M 148.31 157.28 C 148.73 157.88 148.73 157.88 148.31 157.28 Z" />
</g>
</svg>
