<?xml version="1.0" encoding="UTF-8" ?>
<!DOCTYPE svg PUBLIC "-//W3C//DTD SVG 1.1//EN" "http://www.w3.org/Graphics/SVG/1.1/DTD/svg11.dtd">
<svg width="210pt" height="220pt" viewBox="0 0 210 220" version="1.1" xmlns="http://www.w3.org/2000/svg">
<g id="#010101ff">
<path fill="#010101" opacity="1.00" d=" M 63.06 19.75 C 66.42 19.80 69.58 18.28 72.96 18.47 C 86.31 18.49 99.67 18.54 113.03 18.45 C 118.24 18.24 123.20 20.13 128.35 20.68 C 132.15 21.83 136.14 21.86 140.07 21.69 C 145.94 21.41 151.35 24.20 157.14 24.62 C 159.73 24.95 162.21 25.81 164.68 26.60 C 167.01 27.39 169.35 28.16 171.66 29.02 C 171.89 29.13 172.35 29.35 172.59 29.46 C 175.47 31.82 178.57 33.91 182.07 35.26 C 185.50 36.47 187.33 39.79 189.53 42.44 C 192.78 46.34 191.60 51.76 193.14 56.31 C 193.39 59.89 196.10 62.32 198.12 65.01 C 198.82 66.30 200.12 67.04 201.48 67.48 C 203.75 69.19 204.78 72.29 205.74 74.92 C 205.58 82.67 205.64 90.43 205.67 98.19 C 204.76 101.59 204.46 105.33 202.31 108.24 C 199.51 112.37 197.40 117.05 196.55 121.97 C 196.31 130.77 196.71 139.58 196.40 148.38 C 195.95 152.39 196.57 156.40 198.04 160.14 C 200.53 166.15 199.20 172.75 199.52 179.06 C 199.78 182.59 197.53 185.54 196.37 188.71 C 194.83 192.22 194.17 196.46 190.94 198.93 C 188.34 200.79 185.39 202.15 182.37 203.13 C 179.09 203.93 175.70 204.39 172.59 205.77 C 171.10 206.43 169.90 207.95 168.13 207.78 C 155.02 207.91 141.91 207.87 128.80 207.78 C 127.27 208.06 126.49 206.57 125.52 205.73 C 120.94 205.66 116.35 206.00 111.79 205.48 C 104.95 204.64 98.46 202.38 92.09 199.85 L 91.45 199.57 C 85.45 196.24 78.95 193.98 72.84 190.87 C 71.76 190.12 70.93 189.08 70.18 188.02 C 67.73 184.14 64.53 180.87 61.22 177.73 C 57.91 173.34 55.11 168.59 52.17 163.95 C 51.10 162.32 49.94 160.75 48.77 159.19 C 45.34 163.33 43.06 168.23 40.23 172.76 C 40.56 173.64 40.89 174.52 41.22 175.40 C 41.25 175.69 41.31 176.27 41.34 176.56 C 40.88 179.07 40.55 181.61 40.53 184.16 C 40.44 186.83 40.57 189.51 40.24 192.17 C 39.90 193.41 39.97 195.31 41.55 195.62 C 46.54 197.66 52.04 198.01 57.12 199.82 C 61.06 201.27 65.62 201.24 69.06 203.86 C 70.44 205.20 71.76 206.60 73.06 208.01 C 70.73 207.67 68.39 207.31 66.10 206.76 C 62.94 205.98 59.96 204.67 56.97 203.45 C 55.00 202.67 52.97 202.05 50.91 201.59 C 49.71 201.35 48.53 201.04 47.36 200.68 C 46.50 199.91 44.18 199.77 44.56 201.50 C 44.97 202.34 45.57 203.04 46.36 203.60 C 46.96 204.23 48.16 205.49 48.76 206.12 C 48.18 206.50 47.00 207.25 46.42 207.63 C 45.22 206.77 44.02 205.91 42.83 205.04 L 42.75 204.21 C 42.88 202.37 41.81 200.75 40.11 200.08 C 39.08 199.46 38.05 198.84 37.02 198.23 C 34.83 201.91 32.39 205.44 29.85 208.90 C 29.02 208.89 27.38 208.88 26.55 208.88 C 28.54 203.25 32.36 198.58 36.35 194.25 C 38.02 192.82 37.43 190.49 37.38 188.57 C 36.41 182.01 36.13 175.25 38.05 168.82 C 38.24 168.57 38.62 168.06 38.81 167.81 C 41.69 164.71 43.70 160.96 45.35 157.10 C 44.69 156.49 44.04 155.89 43.39 155.28 C 42.23 154.22 41.09 153.14 40.03 151.98 C 37.61 149.34 35.27 146.63 32.87 143.97 C 29.23 140.97 27.50 136.64 26.97 132.04 C 26.13 124.82 19.97 120.29 15.05 115.69 C 13.78 114.34 12.80 112.73 11.99 111.06 C 9.59 106.46 7.29 101.75 6.37 96.58 C 6.12 93.39 6.15 90.18 6.30 86.99 C 7.06 81.00 10.36 75.73 14.17 71.19 C 16.92 68.08 18.90 64.21 22.47 61.87 C 25.90 59.89 26.93 55.84 28.73 52.59 C 30.79 48.85 31.49 44.45 34.03 40.97 C 36.25 38.09 38.37 35.14 40.25 32.02 C 43.35 26.73 48.06 22.50 53.68 20.03 C 56.75 19.36 59.94 19.92 63.06 19.75 M 55.61 24.69 C 50.64 27.44 45.85 30.97 42.94 35.96 C 40.75 39.63 37.70 42.85 36.35 46.97 C 34.86 51.26 33.17 55.48 31.56 59.73 C 30.89 61.51 29.17 62.58 27.97 63.97 C 25.90 66.27 23.33 68.11 21.52 70.62 C 15.68 74.95 13.08 81.94 10.01 88.24 C 8.79 91.33 10.22 94.42 11.41 97.25 C 10.87 101.85 14.50 105.08 16.06 109.06 C 16.65 110.63 17.65 112.15 19.36 112.63 C 21.76 114.78 22.29 118.33 24.98 120.20 C 29.36 123.90 31.45 129.42 32.96 134.79 C 34.66 141.09 40.28 144.89 44.01 149.88 C 46.28 153.04 50.34 154.30 52.27 157.76 C 55.84 163.49 60.24 168.66 63.53 174.58 C 65.68 178.56 69.11 181.59 72.05 184.96 C 76.47 190.11 83.16 192.11 89.07 194.96 C 95.65 197.28 101.86 200.94 108.96 201.41 C 112.41 201.55 115.43 203.85 118.95 203.39 C 126.26 203.05 133.59 204.02 140.87 203.36 C 148.18 201.42 155.84 203.41 163.21 201.97 C 169.83 201.13 176.84 201.50 183.08 198.89 C 188.25 196.80 188.92 190.74 191.54 186.50 C 193.25 183.22 195.86 179.97 195.37 176.06 C 195.16 172.51 195.85 168.83 194.67 165.40 C 193.41 161.74 193.29 157.83 193.27 153.99 C 193.32 142.33 193.26 130.66 193.32 118.99 C 193.22 112.88 196.33 107.36 199.20 102.17 L 199.66 102.01 C 201.04 98.79 203.06 95.68 203.17 92.07 C 203.50 87.37 203.40 82.62 202.48 77.99 C 200.28 75.31 199.06 71.92 196.48 69.54 C 193.40 66.51 189.43 63.92 188.43 59.43 C 186.28 55.46 188.69 50.65 186.42 46.76 C 184.18 41.44 178.34 39.48 174.32 35.82 C 171.03 34.14 167.92 31.80 164.25 31.07 C 159.49 29.22 154.40 28.26 149.29 28.21 C 147.64 25.25 143.95 27.08 141.27 26.25 C 136.17 24.79 130.68 26.69 125.71 24.61 C 120.07 24.90 114.65 23.06 109.00 23.45 C 96.11 23.57 83.19 23.29 70.32 23.71 C 65.53 25.24 60.48 23.96 55.61 24.69 M 128.10 206.21 C 128.82 208.27 131.36 207.26 132.96 207.27 C 143.30 207.01 153.66 207.13 164.01 207.21 C 165.71 207.25 168.87 208.16 169.05 205.56 C 155.35 205.95 141.64 205.75 127.93 205.58 L 128.10 206.21 Z" />
<path fill="#010101" opacity="1.00" d=" M 147.97 42.44 C 151.21 42.46 154.47 42.26 157.70 42.57 C 160.69 43.59 163.31 45.47 165.95 47.16 C 168.64 48.74 168.84 52.95 172.26 53.44 C 179.31 55.58 186.38 59.79 189.18 66.96 C 190.27 70.05 192.89 72.11 195.36 74.08 C 194.82 74.24 193.73 74.56 193.19 74.72 C 191.98 73.92 190.72 73.21 189.46 72.52 C 189.43 73.28 189.37 74.80 189.35 75.55 C 190.95 76.62 192.53 77.73 194.09 78.87 C 193.60 79.16 192.63 79.73 192.14 80.02 C 191.05 79.06 189.98 78.09 188.91 77.13 C 188.01 78.01 187.12 78.89 186.24 79.78 C 187.39 80.94 188.55 82.08 189.70 83.25 C 189.53 84.47 189.37 85.70 189.20 86.94 C 186.96 86.33 184.94 85.19 182.81 84.33 C 178.25 85.00 174.64 88.69 169.99 89.26 C 165.66 89.70 161.30 89.56 156.95 89.50 C 149.91 89.31 143.97 85.17 138.06 81.83 C 138.27 83.90 138.52 86.22 140.57 87.32 C 144.93 89.82 148.65 93.24 152.06 96.90 C 155.28 100.78 160.37 101.99 164.57 104.44 C 164.55 105.10 164.51 106.42 164.50 107.08 C 161.09 104.85 157.63 102.58 153.71 101.35 C 151.53 102.03 149.44 102.97 147.27 103.66 C 143.37 106.32 141.19 111.17 136.70 113.07 C 134.22 113.66 131.05 113.91 129.31 111.64 C 127.51 110.37 128.61 107.96 128.50 106.15 C 130.61 106.93 132.61 108.01 134.80 108.60 C 138.90 106.17 141.72 102.00 143.81 97.80 C 143.83 94.90 140.60 93.92 138.80 92.25 C 136.76 90.37 134.08 88.19 134.50 85.10 C 134.49 82.36 134.55 79.62 134.51 76.88 C 131.87 75.41 127.01 74.69 127.28 70.87 C 128.75 68.75 131.39 69.72 133.53 69.67 C 134.31 67.40 135.23 65.18 136.29 63.03 C 137.34 61.89 138.45 60.81 139.62 59.80 C 143.08 56.87 147.14 54.64 151.51 53.42 C 156.87 51.81 162.52 52.73 168.02 52.39 C 166.14 48.39 161.77 46.80 158.23 44.66 C 155.58 42.83 152.18 43.44 149.23 44.00 C 148.83 44.09 148.03 44.27 147.62 44.36 C 147.71 43.88 147.89 42.92 147.97 42.44 M 155.29 54.94 C 148.24 56.54 140.92 59.55 137.25 66.20 C 134.79 70.61 138.41 75.09 139.60 79.29 C 149.16 88.24 164.14 89.67 175.96 84.82 C 178.84 82.77 182.14 81.23 184.70 78.79 C 186.72 74.78 188.65 69.97 186.19 65.66 C 182.81 60.53 177.23 56.78 171.09 55.97 C 166.02 54.29 160.53 53.99 155.29 54.94 Z" />
<path fill="#010101" opacity="1.00" d=" M 134.44 44.59 C 134.98 44.41 136.07 44.05 136.61 43.87 C 137.92 44.44 139.24 44.98 140.57 45.51 C 138.53 45.93 136.50 46.45 134.45 46.86 C 134.45 46.29 134.44 45.16 134.44 44.59 Z" />
<path fill="#010101" opacity="1.00" d=" M 57.37 65.37 C 57.81 58.94 62.99 54.03 67.10 49.48 C 67.60 50.81 68.09 52.14 68.57 53.47 C 62.46 56.61 57.86 63.84 60.11 70.78 C 62.74 77.05 69.16 80.73 75.33 82.84 C 74.67 83.31 73.35 84.26 72.68 84.73 C 70.34 83.24 67.86 81.99 65.49 80.54 C 62.15 78.63 60.30 75.09 57.37 72.69 L 57.36 71.83 C 57.36 69.68 57.33 67.52 57.37 65.37 Z" />
<path fill="#010101" opacity="1.00" d=" M 78.81 68.85 C 76.89 63.63 82.53 59.46 87.00 58.55 C 91.53 57.66 95.30 60.66 98.51 63.42 C 98.52 65.18 98.59 66.94 98.46 68.69 C 95.41 76.68 82.16 76.88 78.81 68.85 Z" />
<path fill="#010101" opacity="1.00" d=" M 155.37 71.00 C 154.90 67.58 158.52 65.94 161.13 64.84 C 165.04 63.63 168.90 65.22 172.34 67.02 C 172.62 69.62 173.19 72.35 172.24 74.89 C 169.09 78.41 163.88 77.94 159.69 77.18 C 157.51 75.86 154.87 73.90 155.37 71.00 Z" />
<path fill="#010101" opacity="1.00" d=" M 51.32 66.79 C 52.02 67.04 53.41 67.52 54.11 67.77 C 53.44 68.70 52.77 69.63 52.10 70.55 C 51.55 69.36 51.29 68.11 51.32 66.79 Z" />
<path fill="#010101" opacity="1.00" d=" M 29.03 77.04 C 31.10 75.30 33.50 73.95 35.94 72.81 C 39.30 72.60 42.66 72.67 46.02 72.68 C 48.78 72.32 50.04 75.52 52.60 75.99 C 55.88 76.80 58.66 78.76 61.51 80.47 C 61.00 81.92 60.53 83.38 60.12 84.85 C 55.68 83.11 50.97 81.81 47.07 78.96 C 44.60 76.66 41.04 77.76 38.01 77.64 C 31.62 79.44 28.10 86.00 26.59 92.04 C 26.65 96.64 28.79 100.98 30.67 105.11 C 29.74 106.00 28.81 106.89 27.87 107.77 C 22.42 102.83 22.23 94.90 22.73 88.10 C 24.37 84.20 26.10 80.17 29.03 77.04 Z" />
<path fill="#010101" opacity="1.00" d=" M 40.14 90.36 C 41.23 87.34 41.89 84.18 42.76 81.08 C 45.09 81.05 45.57 83.10 45.84 84.97 C 46.07 87.10 48.13 88.09 49.74 89.11 C 60.19 94.54 70.27 100.97 81.75 104.06 C 88.15 106.98 95.56 107.18 101.56 111.00 C 108.37 112.72 115.36 113.82 122.13 115.58 C 132.45 116.28 143.08 117.91 153.27 115.14 C 161.04 113.11 168.37 108.85 173.57 102.69 C 176.20 98.79 175.00 93.91 175.59 89.54 C 176.63 87.49 178.09 88.90 179.24 90.00 C 179.39 91.83 179.36 93.66 179.40 95.49 C 184.19 98.49 182.58 104.78 184.38 109.41 C 184.59 119.02 188.00 128.34 187.45 138.00 C 187.43 145.02 187.46 152.03 187.41 159.04 C 187.10 162.04 189.42 164.80 188.35 167.80 C 187.21 171.73 186.73 175.91 184.71 179.54 C 183.29 182.11 182.63 185.45 179.90 187.02 C 174.57 190.42 168.35 192.61 162.02 192.73 C 158.24 194.06 153.98 192.48 150.39 194.44 C 148.11 195.68 145.48 195.28 143.00 195.33 C 137.31 195.25 131.61 195.37 125.92 195.31 C 123.45 195.36 121.49 193.25 118.99 193.43 C 114.41 193.53 109.99 192.17 105.40 192.33 C 101.46 190.76 97.22 190.14 93.58 187.86 C 85.90 186.17 80.00 180.65 73.87 176.09 C 68.42 172.28 64.39 166.93 59.78 162.22 C 56.37 157.47 53.81 152.16 50.43 147.38 C 45.02 139.78 47.13 129.83 44.14 121.42 C 43.03 117.02 44.70 111.99 41.98 108.00 C 40.88 106.59 41.53 104.78 41.38 103.16 C 40.84 101.49 40.07 99.89 39.42 98.27 C 36.56 98.28 33.16 99.62 30.65 97.92 C 30.59 97.20 30.46 95.77 30.40 95.05 C 33.95 94.23 37.47 92.95 40.14 90.36 M 43.77 92.02 C 42.58 96.42 44.93 100.35 46.94 104.06 C 52.25 107.71 58.08 110.57 63.57 113.96 C 63.62 110.37 63.44 106.78 63.51 103.18 C 57.25 99.00 50.89 94.62 43.77 92.02 M 67.05 105.39 C 67.54 110.07 70.72 113.82 73.67 117.24 C 80.11 117.92 85.06 122.44 91.29 123.84 C 92.78 120.65 92.39 117.02 93.68 113.75 C 89.68 111.30 84.93 110.69 80.68 108.78 C 76.05 107.98 71.87 104.87 67.05 105.39 M 176.07 105.10 C 177.09 107.90 178.73 110.51 178.94 113.55 C 179.34 113.57 180.13 113.62 180.53 113.64 C 180.27 110.57 180.33 107.06 177.98 104.72 C 177.50 104.81 176.55 105.01 176.07 105.10 M 172.35 113.86 C 172.46 117.95 172.34 122.05 172.51 126.14 C 175.45 124.98 178.29 122.77 177.69 119.23 L 177.16 120.01 C 175.88 116.46 175.15 112.75 174.14 109.13 C 172.46 110.34 170.79 111.77 172.35 113.86 M 160.38 118.24 C 160.75 121.79 162.51 125.03 162.66 128.63 C 164.25 128.12 165.85 127.63 167.48 127.24 C 168.10 124.86 168.83 122.47 168.69 119.98 C 168.46 118.24 169.14 115.88 167.22 114.92 C 164.91 115.96 162.68 117.18 160.38 118.24 M 95.38 125.52 C 99.30 127.40 103.76 127.46 107.66 129.38 C 111.07 131.04 114.97 130.15 118.62 130.29 C 118.54 126.42 119.53 122.20 117.42 118.68 C 111.04 119.09 104.98 116.78 98.85 115.44 C 97.02 118.56 96.79 122.23 95.38 125.52 M 141.29 121.36 C 141.43 124.26 141.48 127.16 141.49 130.06 C 145.00 130.30 148.81 131.03 152.02 129.14 C 153.76 128.14 155.84 128.54 157.75 128.38 C 157.67 125.30 156.83 122.33 156.37 119.31 C 151.59 121.12 146.38 121.81 141.29 121.36 M 124.05 130.26 C 128.60 130.32 133.25 130.78 137.71 129.67 C 137.72 126.86 137.04 124.14 136.36 121.44 C 132.03 121.79 127.76 121.28 123.58 120.18 C 122.81 123.31 121.33 127.83 124.05 130.26 M 55.14 145.03 C 58.09 151.46 61.63 157.92 66.99 162.66 C 69.13 159.34 68.60 155.39 67.21 151.90 C 63.62 148.94 59.03 147.56 55.14 145.03 M 72.61 154.87 C 72.48 157.35 72.74 159.86 72.40 162.34 C 71.37 163.63 70.20 164.80 69.09 166.03 C 76.05 170.23 81.27 177.37 89.14 179.95 C 89.34 176.16 92.02 173.35 93.44 170.02 C 93.58 167.93 93.47 165.83 93.47 163.74 C 85.82 162.80 79.31 158.32 72.61 154.87 M 97.62 166.19 C 97.43 168.74 98.20 171.57 96.78 173.89 C 95.36 176.66 94.40 179.63 93.21 182.50 C 96.37 183.93 99.60 185.22 102.90 186.29 C 107.46 188.23 112.56 187.36 117.28 188.77 C 118.82 183.66 118.98 178.12 118.17 172.90 C 114.75 171.36 111.10 170.49 107.53 169.38 C 104.26 168.20 101.22 166.16 97.62 166.19 M 176.29 182.35 C 174.98 182.00 173.67 181.64 172.36 181.30 C 173.54 178.59 174.50 175.80 175.49 173.02 C 170.48 174.80 170.15 180.93 167.94 185.04 L 167.09 184.85 C 167.15 185.44 167.27 186.62 167.32 187.21 C 170.63 186.67 174.11 186.04 176.70 183.75 C 181.10 180.73 182.81 175.21 183.41 170.16 C 178.71 172.40 178.31 178.14 176.29 182.35 M 122.63 174.02 C 122.76 179.00 122.56 184.00 122.68 188.98 C 126.57 191.82 131.78 189.80 136.27 190.48 C 139.02 186.12 138.22 180.92 139.90 176.20 C 136.20 175.22 132.29 176.27 128.63 175.14 C 126.66 174.58 124.64 174.30 122.63 174.02 M 158.84 177.50 C 157.98 181.47 156.68 185.31 155.50 189.19 C 158.14 188.92 160.78 188.60 163.43 188.41 C 163.39 186.51 163.40 184.61 163.44 182.71 C 164.15 181.51 164.81 180.28 165.38 179.01 C 165.95 177.76 166.45 176.48 166.94 175.19 C 164.14 175.57 161.46 176.49 158.84 177.50 M 143.82 177.54 C 143.42 181.89 142.43 186.15 142.14 190.51 C 144.05 190.43 146.00 190.58 147.88 190.20 C 152.34 187.68 153.52 182.13 154.81 177.58 C 151.15 177.27 147.48 177.38 143.82 177.54 Z" />
<path fill="#010101" opacity="1.00" d=" M 99.72 93.23 C 102.21 89.10 108.13 90.26 111.87 91.79 C 111.41 92.98 110.94 94.18 110.47 95.37 C 107.78 95.42 105.07 95.44 102.42 95.97 C 102.33 97.90 102.25 99.82 102.19 101.75 C 103.51 103.13 104.75 104.57 105.87 106.12 C 103.76 109.14 100.52 107.26 98.42 105.41 C 98.79 101.35 98.77 97.22 99.72 93.23 Z" />
<path fill="#010101" opacity="1.00" d=" M 107.52 99.55 C 112.56 99.12 117.82 98.73 122.58 100.79 C 122.54 102.09 122.48 103.39 122.41 104.69 C 119.16 105.22 116.13 103.89 112.98 103.47 C 111.53 104.48 110.22 105.68 108.86 106.82 C 107.44 104.64 107.10 102.09 107.52 99.55 Z" />
</g>
<g id="#747474f9">
<path fill="#747474" opacity="0.98" d=" M 128.35 20.68 C 133.11 18.96 138.48 19.19 143.04 21.38 C 147.93 21.37 153.04 21.57 157.14 24.62 C 151.35 24.20 145.94 21.41 140.07 21.69 C 136.14 21.86 132.15 21.83 128.35 20.68 Z" />
<path fill="#747474" opacity="0.98" d=" M 77.38 29.48 C 82.57 27.60 87.80 25.18 93.46 25.51 C 102.25 25.85 111.21 24.69 119.84 26.92 C 129.52 28.88 139.47 29.08 149.29 28.21 C 154.40 28.26 159.49 29.22 164.25 31.07 C 159.44 30.41 154.51 29.35 149.70 30.67 C 137.80 32.98 125.94 29.79 114.07 29.05 C 110.71 28.66 107.45 27.58 104.06 27.48 C 89.95 26.36 76.27 32.11 64.72 39.76 C 58.97 42.89 54.75 48.16 48.94 51.18 C 49.66 49.04 50.47 46.76 52.48 45.48 C 60.51 39.77 68.00 32.94 77.38 29.48 Z" />
<path fill="#747474" opacity="0.98" d=" M 164.68 26.60 C 165.52 26.33 167.18 25.78 168.02 25.51 C 169.24 26.67 170.46 27.83 171.66 29.02 C 169.35 28.16 167.01 27.39 164.68 26.60 Z" />
<path fill="#747474" opacity="0.98" d=" M 172.59 29.46 C 176.63 28.77 178.86 33.47 182.07 35.26 C 178.57 33.91 175.47 31.82 172.59 29.46 Z" />
<path fill="#747474" opacity="0.98" d=" M 34.03 40.97 C 35.14 37.42 36.85 33.89 40.25 32.02 C 38.37 35.14 36.25 38.09 34.03 40.97 Z" />
<path fill="#747474" opacity="0.98" d=" M 68.44 41.37 C 77.50 34.74 88.92 32.37 99.97 32.44 C 104.95 32.53 110.00 32.13 114.88 33.29 C 118.92 33.91 122.80 35.48 126.92 35.50 C 134.95 35.46 143.02 35.86 150.94 34.35 C 156.18 34.69 162.30 31.48 166.82 35.24 C 167.99 36.18 169.85 38.02 167.89 39.18 C 165.54 38.63 163.88 36.71 161.97 35.37 C 158.21 36.94 154.11 36.61 150.16 37.16 C 142.25 39.12 134.03 38.21 125.97 38.27 C 118.29 37.23 110.85 34.29 103.00 34.54 C 89.99 34.61 76.49 37.98 66.14 46.16 C 62.17 49.08 59.89 53.70 55.82 56.51 C 55.41 56.17 54.61 55.48 54.20 55.13 C 58.33 49.99 62.46 44.49 68.44 41.37 Z" />
<path fill="#747474" opacity="0.98" d=" M 77.30 42.10 C 86.80 38.83 97.01 38.12 106.97 38.99 C 108.86 39.09 109.96 40.74 111.00 42.09 C 110.27 42.36 108.80 42.91 108.07 43.18 C 109.91 46.53 110.64 50.71 113.93 53.06 C 117.85 56.25 121.57 60.64 121.53 65.98 C 121.88 71.15 118.99 75.95 115.23 79.26 C 108.98 84.34 101.08 87.26 93.05 87.57 C 86.20 87.74 78.98 87.83 72.68 84.73 C 73.35 84.26 74.67 83.31 75.33 82.84 C 85.50 84.93 96.67 85.77 106.28 81.11 C 111.44 79.07 116.26 75.27 117.93 69.78 C 119.42 64.49 116.61 58.88 112.41 55.67 C 109.42 53.47 105.92 52.07 102.47 50.75 C 96.61 48.58 90.24 49.03 84.11 49.20 C 78.66 49.41 73.61 51.62 68.57 53.47 C 68.09 52.14 67.60 50.81 67.10 49.48 L 66.82 48.73 C 70.29 46.48 73.38 43.58 77.30 42.10 M 79.96 44.10 C 76.66 44.93 73.90 47.02 71.05 48.77 C 77.21 46.98 83.53 45.39 90.00 45.68 C 96.32 45.42 102.38 47.37 108.35 49.15 C 106.43 46.53 104.71 43.45 101.90 41.74 C 94.50 40.85 87.09 42.18 79.96 44.10 Z" />
<path fill="#747474" opacity="0.98" d=" M 136.61 43.87 C 140.24 42.50 144.15 42.50 147.97 42.44 C 147.89 42.92 147.71 43.88 147.62 44.36 C 148.03 44.27 148.83 44.09 149.23 44.00 C 146.38 44.70 143.49 45.19 140.57 45.51 C 139.24 44.98 137.92 44.44 136.61 43.87 Z" />
<path fill="#747474" opacity="0.98" d=" M 137.10 51.04 C 137.60 49.22 139.70 49.03 141.14 48.30 C 140.57 51.95 136.31 56.53 139.62 59.80 C 138.45 60.81 137.34 61.89 136.29 63.03 C 136.63 59.05 135.73 54.87 137.10 51.04 Z" />
<path fill="#747474" opacity="0.98" d=" M 72.00 54.49 C 74.13 55.13 76.29 55.61 78.48 56.01 C 78.02 57.30 77.60 58.61 77.22 59.92 C 75.52 58.07 73.78 56.26 72.00 54.49 Z" />
<path fill="#747474" opacity="0.98" d=" M 102.05 58.35 C 102.90 56.68 104.06 55.20 105.47 53.96 C 105.37 55.87 105.24 57.78 105.12 59.69 C 104.09 59.24 103.07 58.80 102.05 58.35 Z" />
<path fill="#747474" opacity="0.98" d=" M 21.52 70.62 C 23.33 68.11 25.90 66.27 27.97 63.97 C 33.24 66.73 40.50 64.33 44.54 69.72 C 37.93 70.86 30.34 68.27 24.51 72.49 C 21.40 76.31 17.85 80.68 18.33 85.94 C 18.46 92.41 17.81 99.29 20.52 105.34 C 23.53 108.89 28.65 109.84 31.25 113.85 C 26.28 113.30 21.13 111.07 18.29 106.79 C 14.77 100.06 15.60 92.26 15.54 84.94 C 15.19 79.42 19.39 75.33 21.52 70.62 Z" />
<path fill="#747474" opacity="0.98" d=" M 50.74 66.59 C 52.96 66.24 55.17 65.84 57.37 65.37 C 57.33 67.52 57.36 69.68 57.36 71.83 C 55.60 71.42 53.85 70.98 52.10 70.55 C 52.77 69.63 53.44 68.70 54.11 67.77 C 53.41 67.52 52.02 67.04 51.32 66.79 L 50.74 66.59 Z" />
<path fill="#747474" opacity="0.98" d=" M 198.12 65.01 C 199.46 63.45 202.60 65.71 201.48 67.48 C 200.12 67.04 198.82 66.30 198.12 65.01 Z" />
<path fill="#747474" opacity="0.98" d=" M 102.95 72.90 C 106.95 72.30 110.96 71.69 114.99 71.35 C 111.99 72.08 109.29 73.56 106.57 74.95 C 105.19 74.66 104.13 73.60 102.95 72.90 Z" />
<path fill="#747474" opacity="0.98" d=" M 195.36 74.08 C 198.29 76.24 199.95 79.55 201.92 82.52 C 202.11 81.01 202.30 79.50 202.48 77.99 C 203.40 82.62 203.50 87.37 203.17 92.07 C 203.06 95.68 201.04 98.79 199.66 102.01 L 199.20 102.17 C 194.69 103.72 190.49 106.04 186.09 107.87 C 186.26 106.79 186.44 105.71 186.62 104.63 C 189.80 102.87 193.71 102.00 196.16 99.17 C 198.16 95.42 198.79 91.09 199.23 86.91 C 198.93 82.28 196.76 77.72 193.19 74.72 C 193.73 74.56 194.82 74.24 195.36 74.08 M 200.91 95.83 C 202.40 94.12 202.23 91.87 202.06 89.77 C 200.10 91.36 200.03 93.61 200.91 95.83 Z" />
<path fill="#747474" opacity="0.98" d=" M 205.74 74.92 C 206.53 76.15 207.44 77.42 207.26 78.97 C 207.29 83.99 207.25 89.00 207.28 94.02 C 207.45 95.62 206.87 97.12 205.67 98.19 C 205.64 90.43 205.58 82.67 205.74 74.92 Z" />
<path fill="#747474" opacity="0.98" d=" M 194.09 78.87 C 194.72 83.45 196.21 88.04 195.60 92.70 C 194.65 96.76 190.85 99.51 186.83 100.00 C 188.55 97.35 190.89 95.17 192.61 92.52 C 193.18 88.38 192.28 84.17 192.14 80.02 C 192.63 79.73 193.60 79.16 194.09 78.87 Z" />
<path fill="#747474" opacity="0.98" d=" M 95.13 90.14 C 96.69 91.02 98.24 91.94 99.83 92.77 L 99.72 93.23 C 98.77 97.22 98.79 101.35 98.42 105.41 C 97.44 102.35 97.52 99.12 97.45 95.95 C 91.12 97.31 84.55 96.30 78.26 98.00 C 78.68 96.83 78.83 94.75 80.51 94.77 C 84.66 94.32 88.85 94.96 92.99 94.41 C 93.98 93.14 94.48 91.59 95.13 90.14 Z" />
<path fill="#747474" opacity="0.98" d=" M 11.99 111.06 C 7.91 107.48 6.95 101.70 6.37 96.58 C 7.29 101.75 9.59 106.46 11.99 111.06 Z" />
<path fill="#747474" opacity="0.98" d=" M 176.07 105.10 C 176.55 105.01 177.50 104.81 177.98 104.72 C 180.33 107.06 180.27 110.57 180.53 113.64 C 180.13 113.62 179.34 113.57 178.94 113.55 C 178.73 110.51 177.09 107.90 176.07 105.10 Z" />
<path fill="#747474" opacity="0.98" d=" M 19.36 112.63 C 22.07 113.84 24.68 115.24 27.28 116.65 C 26.52 117.83 25.75 119.01 24.98 120.20 C 22.29 118.33 21.76 114.78 19.36 112.63 Z" />
<path fill="#747474" opacity="0.98" d=" M 172.35 113.86 C 173.70 117.24 173.66 120.93 174.04 124.50 C 175.12 123.03 176.15 121.53 177.16 120.01 L 177.69 119.23 C 178.29 122.77 175.45 124.98 172.51 126.14 C 172.34 122.05 172.46 117.95 172.35 113.86 Z" />
<path fill="#747474" opacity="0.98" d=" M 15.05 115.69 C 19.97 120.29 26.13 124.82 26.97 132.04 C 25.35 129.38 23.62 126.79 21.91 124.19 C 19.91 121.12 16.37 119.24 15.05 115.69 Z" />
<path fill="#747474" opacity="0.98" d=" M 32.87 143.97 C 35.27 146.63 37.61 149.34 40.03 151.98 C 38.54 151.14 36.99 150.40 35.60 149.39 C 34.38 147.76 33.69 145.81 32.87 143.97 Z" />
<path fill="#747474" opacity="0.98" d=" M 198.04 160.14 C 196.57 156.40 195.95 152.39 196.40 148.38 C 197.81 149.09 198.64 150.43 198.39 152.03 C 198.43 154.74 198.25 157.44 198.04 160.14 Z" />
<path fill="#747474" opacity="0.98" d=" M 43.39 155.28 C 44.04 155.89 44.69 156.49 45.35 157.10 C 43.70 160.96 41.69 164.71 38.81 167.81 C 40.01 163.51 43.77 159.94 43.39 155.28 Z" />
<path fill="#747474" opacity="0.98" d=" M 40.23 172.76 C 43.06 168.23 45.34 163.33 48.77 159.19 C 49.94 160.75 51.10 162.32 52.17 163.95 C 50.98 163.00 49.81 162.01 48.62 161.05 C 46.74 163.03 46.47 165.86 44.93 168.04 C 43.37 170.32 42.28 172.86 41.22 175.40 C 40.89 174.52 40.56 173.64 40.23 172.76 Z" />
<path fill="#747474" opacity="0.98" d=" M 35.65 168.49 C 36.25 168.57 37.45 168.74 38.05 168.82 C 36.13 175.25 36.41 182.01 37.38 188.57 C 36.22 186.45 35.31 184.20 34.19 182.05 C 37.35 178.20 36.34 173.00 35.65 168.49 Z" />
<path fill="#747474" opacity="0.98" d=" M 176.29 182.35 C 178.31 178.14 178.71 172.40 183.41 170.16 C 182.81 175.21 181.10 180.73 176.70 183.75 C 174.11 186.04 170.63 186.67 167.32 187.21 C 167.27 186.62 167.15 185.44 167.09 184.85 L 167.94 185.04 C 170.20 185.73 172.48 184.87 174.68 184.37 C 173.90 183.34 173.13 182.32 172.36 181.30 C 173.67 181.64 174.98 182.00 176.29 182.35 Z" />
<path fill="#747474" opacity="0.98" d=" M 158.84 177.50 C 161.46 176.49 164.14 175.57 166.94 175.19 C 166.45 176.48 165.95 177.76 165.38 179.01 C 165.33 178.54 165.21 177.59 165.16 177.11 C 163.49 177.32 161.83 177.61 160.17 177.89 C 159.17 181.48 158.05 185.04 157.09 188.65 C 159.97 187.59 162.16 185.49 163.44 182.71 C 163.40 184.61 163.39 186.51 163.43 188.41 C 160.78 188.60 158.14 188.92 155.50 189.19 C 156.68 185.31 157.98 181.47 158.84 177.50 Z" />
<path fill="#747474" opacity="0.98" d=" M 40.53 184.16 C 40.55 181.61 40.88 179.07 41.34 176.56 C 42.68 179.14 42.51 181.99 40.53 184.16 Z" />
<path fill="#747474" opacity="0.98" d=" M 61.22 177.73 C 64.53 180.87 67.73 184.14 70.18 188.02 C 66.89 184.93 62.44 182.36 61.22 177.73 Z" />
<path fill="#747474" opacity="0.98" d=" M 72.84 190.87 C 78.95 193.98 85.45 196.24 91.45 199.57 C 88.36 200.07 85.82 197.95 83.22 196.67 C 79.81 194.65 75.81 193.60 72.84 190.87 Z" />
<path fill="#747474" opacity="0.98" d=" M 40.24 192.17 C 42.10 191.49 43.28 194.79 41.55 195.62 C 39.97 195.31 39.90 193.41 40.24 192.17 Z" />
<path fill="#747474" opacity="0.98" d=" M 44.56 201.50 C 44.18 199.77 46.50 199.91 47.36 200.68 C 47.11 201.41 46.61 202.87 46.36 203.60 C 45.57 203.04 44.97 202.34 44.56 201.50 Z" />
<path fill="#747474" opacity="0.98" d=" M 92.09 199.85 C 98.46 202.38 104.95 204.64 111.79 205.48 C 109.50 206.77 107.29 204.72 104.97 204.58 C 100.42 204.01 95.55 203.10 92.09 199.85 Z" />
<path fill="#747474" opacity="0.98" d=" M 50.91 201.59 C 52.97 202.05 55.00 202.67 56.97 203.45 C 55.15 203.32 53.32 203.29 51.49 203.27 C 51.35 202.85 51.05 202.01 50.91 201.59 Z" />
<path fill="#747474" opacity="0.98" d=" M 172.59 205.77 C 175.70 204.39 179.09 203.93 182.37 203.13 C 179.36 204.69 176.07 206.18 172.59 205.77 Z" />
<path fill="#747474" opacity="0.98" d=" M 69.06 203.86 C 72.02 205.08 74.89 206.59 77.24 208.78 C 73.40 209.12 69.25 209.39 66.10 206.76 C 68.39 207.31 70.73 207.67 73.06 208.01 C 71.76 206.60 70.44 205.20 69.06 203.86 Z" />
<path fill="#747474" opacity="0.98" d=" M 42.83 205.04 C 44.02 205.91 45.22 206.77 46.42 207.63 C 47.00 207.25 48.18 206.50 48.76 206.12 C 49.25 206.99 49.64 207.90 50.08 208.80 C 48.51 208.85 46.93 209.00 45.38 208.75 C 44.37 207.63 43.63 206.31 42.83 205.04 Z" />
<path fill="#747474" opacity="0.98" d=" M 128.10 206.21 L 127.93 205.58 C 141.64 205.75 155.35 205.95 169.05 205.56 C 168.87 208.16 165.71 207.25 164.01 207.21 C 153.66 207.13 143.30 207.01 132.96 207.27 C 131.36 207.26 128.82 208.27 128.10 206.21 Z" />
</g>
<g id="#fbfbfbff">
<path fill="#fbfbfb" opacity="1.00" d=" M 55.61 24.69 C 60.48 23.96 65.53 25.24 70.32 23.71 C 83.19 23.29 96.11 23.57 109.00 23.45 C 114.65 23.06 120.07 24.90 125.71 24.61 C 130.68 26.69 136.17 24.79 141.27 26.25 C 143.95 27.08 147.64 25.25 149.29 28.21 C 139.47 29.08 129.52 28.88 119.84 26.92 C 111.21 24.69 102.25 25.85 93.46 25.51 C 87.80 25.18 82.57 27.60 77.38 29.48 C 68.00 32.94 60.51 39.77 52.48 45.48 C 50.47 46.76 49.66 49.04 48.94 51.18 C 54.75 48.16 58.97 42.89 64.72 39.76 C 76.27 32.11 89.95 26.36 104.06 27.48 C 107.45 27.58 110.71 28.66 114.07 29.05 C 125.94 29.79 137.80 32.98 149.70 30.67 C 154.51 29.35 159.44 30.41 164.25 31.07 C 167.92 31.80 171.03 34.14 174.32 35.82 C 178.34 39.48 184.18 41.44 186.42 46.76 C 188.69 50.65 186.28 55.46 188.43 59.43 C 189.43 63.92 193.40 66.51 196.48 69.54 C 199.06 71.92 200.28 75.31 202.48 77.99 C 202.30 79.50 202.11 81.01 201.92 82.52 C 199.95 79.55 198.29 76.24 195.36 74.08 C 192.89 72.11 190.27 70.05 189.18 66.96 C 186.38 59.79 179.31 55.58 172.26 53.44 C 168.84 52.95 168.64 48.74 165.95 47.16 C 163.31 45.47 160.69 43.59 157.70 42.57 C 154.47 42.26 151.21 42.46 147.97 42.44 C 144.15 42.50 140.24 42.50 136.61 43.87 C 136.07 44.05 134.98 44.41 134.44 44.59 C 134.44 45.16 134.45 46.29 134.45 46.86 C 136.50 46.45 138.53 45.93 140.57 45.51 C 143.49 45.19 146.38 44.70 149.23 44.00 C 152.18 43.44 155.58 42.83 158.23 44.66 C 161.77 46.80 166.14 48.39 168.02 52.39 C 162.52 52.73 156.87 51.81 151.51 53.42 C 147.14 54.64 143.08 56.87 139.62 59.80 C 136.31 56.53 140.57 51.95 141.14 48.30 C 139.70 49.03 137.60 49.22 137.10 51.04 C 135.73 54.87 136.63 59.05 136.29 63.03 C 135.23 65.18 134.31 67.40 133.53 69.67 C 131.39 69.72 128.75 68.75 127.28 70.87 C 127.01 74.69 131.87 75.41 134.51 76.88 C 134.55 79.62 134.49 82.36 134.50 85.10 C 134.08 88.19 136.76 90.37 138.80 92.25 C 140.60 93.92 143.83 94.90 143.81 97.80 C 141.72 102.00 138.90 106.17 134.80 108.60 C 132.61 108.01 130.61 106.93 128.50 106.15 C 128.61 107.96 127.51 110.37 129.31 111.64 C 131.05 113.91 134.22 113.66 136.70 113.07 C 141.19 111.17 143.37 106.32 147.27 103.66 C 149.44 102.97 151.53 102.03 153.71 101.35 C 157.63 102.58 161.09 104.85 164.50 107.08 C 164.51 106.42 164.55 105.10 164.57 104.44 C 160.37 101.99 155.28 100.78 152.06 96.90 C 148.65 93.24 144.93 89.82 140.57 87.32 C 138.52 86.22 138.27 83.90 138.06 81.83 C 143.97 85.17 149.91 89.31 156.95 89.50 C 161.30 89.56 165.66 89.70 169.99 89.26 C 174.64 88.69 178.25 85.00 182.81 84.33 C 184.94 85.19 186.96 86.33 189.20 86.94 C 189.37 85.70 189.53 84.47 189.70 83.25 C 188.55 82.08 187.39 80.94 186.24 79.78 C 187.12 78.89 188.01 78.01 188.91 77.13 C 189.98 78.09 191.05 79.06 192.14 80.02 C 192.28 84.17 193.18 88.38 192.61 92.52 C 190.89 95.17 188.55 97.35 186.83 100.00 C 190.85 99.51 194.65 96.76 195.60 92.70 C 196.21 88.04 194.72 83.45 194.09 78.87 C 192.53 77.73 190.95 76.62 189.35 75.55 C 189.37 74.80 189.43 73.28 189.46 72.52 C 190.72 73.21 191.98 73.92 193.19 74.72 C 196.76 77.72 198.93 82.28 199.23 86.91 C 198.79 91.09 198.16 95.42 196.16 99.17 C 193.71 102.00 189.80 102.87 186.62 104.63 C 186.44 105.71 186.26 106.79 186.09 107.87 C 190.49 106.04 194.69 103.72 199.20 102.17 C 196.33 107.36 193.22 112.88 193.32 118.99 C 193.26 130.66 193.32 142.33 193.27 153.99 C 193.29 157.83 193.41 161.74 194.67 165.40 C 195.85 168.83 195.16 172.51 195.37 176.06 C 195.86 179.97 193.25 183.22 191.54 186.50 C 188.92 190.74 188.25 196.80 183.08 198.89 C 176.84 201.50 169.83 201.13 163.21 201.97 C 155.84 203.41 148.18 201.42 140.87 203.36 C 133.59 204.02 126.26 203.05 118.95 203.39 C 115.43 203.85 112.41 201.55 108.96 201.41 C 101.86 200.94 95.65 197.28 89.07 194.96 C 83.16 192.11 76.47 190.11 72.05 184.96 C 69.11 181.59 65.68 178.56 63.53 174.58 C 60.24 168.66 55.84 163.49 52.27 157.76 C 50.34 154.30 46.28 153.04 44.01 149.88 C 40.28 144.89 34.66 141.09 32.96 134.79 C 31.45 129.42 29.36 123.90 24.98 120.20 C 25.75 119.01 26.52 117.83 27.28 116.65 C 24.68 115.24 22.07 113.84 19.36 112.63 C 17.65 112.15 16.65 110.63 16.06 109.06 C 14.50 105.08 10.87 101.85 11.41 97.25 C 10.22 94.42 8.79 91.33 10.01 88.24 C 13.08 81.94 15.68 74.95 21.52 70.62 C 19.39 75.33 15.19 79.42 15.54 84.94 C 15.60 92.26 14.77 100.06 18.29 106.79 C 21.13 111.07 26.28 113.30 31.25 113.85 C 28.65 109.84 23.53 108.89 20.52 105.34 C 17.81 99.29 18.46 92.41 18.33 85.94 C 17.85 80.68 21.40 76.31 24.51 72.49 C 30.34 68.27 37.93 70.86 44.54 69.72 C 40.50 64.33 33.24 66.73 27.97 63.97 C 29.17 62.58 30.89 61.51 31.56 59.73 C 33.17 55.48 34.86 51.26 36.35 46.97 C 37.70 42.85 40.75 39.63 42.94 35.96 C 45.85 30.97 50.64 27.44 55.61 24.69 M 68.44 41.37 C 62.46 44.49 58.33 49.99 54.20 55.13 C 54.61 55.48 55.41 56.17 55.82 56.51 C 59.89 53.70 62.17 49.08 66.14 46.16 C 76.49 37.98 89.99 34.61 103.00 34.54 C 110.85 34.29 118.29 37.23 125.97 38.27 C 134.03 38.21 142.25 39.12 150.16 37.16 C 154.11 36.61 158.21 36.94 161.97 35.37 C 163.88 36.71 165.54 38.63 167.89 39.18 C 169.85 38.02 167.99 36.18 166.82 35.24 C 162.30 31.48 156.18 34.69 150.94 34.35 C 143.02 35.86 134.95 35.46 126.92 35.50 C 122.80 35.48 118.92 33.91 114.88 33.29 C 110.00 32.13 104.95 32.53 99.97 32.44 C 88.92 32.37 77.50 34.74 68.44 41.37 M 77.30 42.10 C 73.38 43.58 70.29 46.48 66.82 48.73 L 67.10 49.48 C 62.99 54.03 57.81 58.94 57.37 65.37 C 55.17 65.84 52.96 66.24 50.74 66.59 L 51.32 66.79 C 51.29 68.11 51.55 69.36 52.10 70.55 C 53.85 70.98 55.60 71.42 57.36 71.83 L 57.37 72.69 C 60.30 75.09 62.15 78.63 65.49 80.54 C 67.86 81.99 70.34 83.24 72.68 84.73 C 78.98 87.83 86.20 87.74 93.05 87.57 C 101.08 87.26 108.98 84.34 115.23 79.26 C 118.99 75.95 121.88 71.15 121.53 65.98 C 121.57 60.64 117.85 56.25 113.93 53.06 C 110.64 50.71 109.91 46.53 108.07 43.18 C 108.80 42.91 110.27 42.36 111.00 42.09 C 109.96 40.74 108.86 39.09 106.97 38.99 C 97.01 38.12 86.80 38.83 77.30 42.10 M 29.03 77.04 C 26.10 80.17 24.37 84.20 22.73 88.10 C 22.23 94.90 22.42 102.83 27.87 107.77 C 28.81 106.89 29.74 106.00 30.67 105.11 C 28.79 100.98 26.65 96.64 26.59 92.04 C 28.10 86.00 31.62 79.44 38.01 77.64 C 41.04 77.76 44.60 76.66 47.07 78.96 C 50.97 81.81 55.68 83.11 60.12 84.85 C 60.53 83.38 61.00 81.92 61.51 80.47 C 58.66 78.76 55.88 76.80 52.60 75.99 C 50.04 75.52 48.78 72.32 46.02 72.68 C 42.66 72.67 39.30 72.60 35.94 72.81 C 33.50 73.95 31.10 75.30 29.03 77.04 M 40.14 90.36 C 37.47 92.95 33.95 94.23 30.40 95.05 C 30.46 95.77 30.59 97.20 30.65 97.92 C 33.16 99.62 36.56 98.28 39.42 98.27 C 40.07 99.89 40.84 101.49 41.38 103.16 C 41.53 104.78 40.88 106.59 41.98 108.00 C 44.70 111.99 43.03 117.02 44.14 121.42 C 47.13 129.83 45.02 139.78 50.43 147.38 C 53.81 152.16 56.37 157.47 59.78 162.22 C 64.39 166.93 68.42 172.28 73.87 176.09 C 80.00 180.65 85.90 186.17 93.58 187.86 C 97.22 190.14 101.46 190.76 105.40 192.33 C 109.99 192.17 114.41 193.53 118.99 193.43 C 121.49 193.25 123.45 195.36 125.92 195.31 C 131.61 195.37 137.31 195.25 143.00 195.33 C 145.48 195.28 148.11 195.68 150.39 194.44 C 153.98 192.48 158.24 194.06 162.02 192.73 C 168.35 192.61 174.57 190.42 179.90 187.02 C 182.63 185.45 183.29 182.11 184.71 179.54 C 186.73 175.91 187.21 171.73 188.35 167.80 C 189.42 164.80 187.10 162.04 187.41 159.04 C 187.46 152.03 187.43 145.02 187.45 138.00 C 188.00 128.34 184.59 119.02 184.38 109.41 C 182.58 104.78 184.19 98.49 179.40 95.49 C 179.36 93.66 179.39 91.83 179.24 90.00 C 178.09 88.90 176.63 87.49 175.59 89.54 C 175.00 93.91 176.20 98.79 173.57 102.69 C 168.37 108.85 161.04 113.11 153.27 115.14 C 143.08 117.91 132.45 116.28 122.13 115.58 C 115.36 113.82 108.37 112.72 101.56 111.00 C 95.56 107.18 88.15 106.98 81.75 104.06 C 70.27 100.97 60.19 94.54 49.74 89.11 C 48.13 88.09 46.07 87.10 45.84 84.97 C 45.57 83.10 45.09 81.05 42.76 81.08 C 41.89 84.18 41.23 87.34 40.14 90.36 M 95.13 90.14 C 94.48 91.59 93.98 93.14 92.99 94.41 C 88.85 94.96 84.66 94.32 80.51 94.77 C 78.83 94.75 78.68 96.83 78.26 98.00 C 84.55 96.30 91.12 97.31 97.45 95.95 C 97.52 99.12 97.44 102.35 98.42 105.41 C 100.52 107.26 103.76 109.14 105.87 106.12 C 104.75 104.57 103.51 103.13 102.19 101.75 C 102.25 99.82 102.33 97.90 102.42 95.97 C 105.07 95.44 107.78 95.42 110.47 95.37 C 110.94 94.18 111.41 92.98 111.87 91.79 C 108.13 90.26 102.21 89.10 99.72 93.23 L 99.83 92.77 C 98.24 91.94 96.69 91.02 95.13 90.14 M 107.52 99.55 C 107.10 102.09 107.44 104.64 108.86 106.82 C 110.22 105.68 111.53 104.48 112.98 103.47 C 116.13 103.89 119.16 105.22 122.41 104.69 C 122.48 103.39 122.54 102.09 122.58 100.79 C 117.82 98.73 112.56 99.12 107.52 99.55 Z" />
<path fill="#fbfbfb" opacity="1.00" d=" M 79.96 44.10 C 87.09 42.18 94.50 40.85 101.90 41.74 C 104.71 43.45 106.43 46.53 108.35 49.15 C 102.38 47.37 96.32 45.42 90.00 45.68 C 83.53 45.39 77.21 46.98 71.05 48.77 C 73.90 47.02 76.66 44.93 79.96 44.10 Z" />
<path fill="#fbfbfb" opacity="1.00" d=" M 68.57 53.47 C 73.61 51.62 78.66 49.41 84.11 49.20 C 90.24 49.03 96.61 48.58 102.47 50.75 C 105.92 52.07 109.42 53.47 112.41 55.67 C 116.61 58.88 119.42 64.49 117.93 69.78 C 116.26 75.27 111.44 79.07 106.28 81.11 C 96.67 85.77 85.50 84.93 75.33 82.84 C 69.16 80.73 62.74 77.05 60.11 70.78 C 57.86 63.84 62.46 56.61 68.57 53.47 M 72.00 54.49 C 73.78 56.26 75.52 58.07 77.22 59.92 C 77.60 58.61 78.02 57.30 78.48 56.01 C 76.29 55.61 74.13 55.13 72.00 54.49 M 102.05 58.35 C 103.07 58.80 104.09 59.24 105.12 59.69 C 105.24 57.78 105.37 55.87 105.47 53.96 C 104.06 55.20 102.90 56.68 102.05 58.35 M 78.81 68.85 C 82.16 76.88 95.41 76.68 98.46 68.69 C 98.59 66.94 98.52 65.18 98.51 63.42 C 95.30 60.66 91.53 57.66 87.00 58.55 C 82.53 59.46 76.89 63.63 78.81 68.85 M 102.95 72.90 C 104.13 73.60 105.19 74.66 106.57 74.95 C 109.29 73.56 111.99 72.08 114.99 71.35 C 110.96 71.69 106.95 72.30 102.95 72.90 Z" />
<path fill="#fbfbfb" opacity="1.00" d=" M 155.29 54.94 C 160.53 53.99 166.02 54.29 171.09 55.97 C 177.23 56.78 182.81 60.53 186.19 65.66 C 188.65 69.97 186.72 74.78 184.70 78.79 C 182.14 81.23 178.84 82.77 175.96 84.82 C 164.14 89.67 149.16 88.24 139.60 79.29 C 138.41 75.09 134.79 70.61 137.25 66.20 C 140.92 59.55 148.24 56.54 155.29 54.94 M 155.37 71.00 C 154.87 73.90 157.51 75.86 159.69 77.18 C 163.88 77.94 169.09 78.41 172.24 74.89 C 173.19 72.35 172.62 69.62 172.34 67.02 C 168.90 65.22 165.04 63.63 161.13 64.84 C 158.52 65.94 154.90 67.58 155.37 71.00 Z" />
<path fill="#fbfbfb" opacity="1.00" d=" M 200.91 95.83 C 200.03 93.61 200.10 91.36 202.06 89.77 C 202.23 91.87 202.40 94.12 200.91 95.83 Z" />
<path fill="#fbfbfb" opacity="1.00" d=" M 43.77 92.02 C 50.89 94.62 57.25 99.00 63.51 103.18 C 63.44 106.78 63.62 110.37 63.57 113.96 C 58.08 110.57 52.25 107.71 46.94 104.06 C 44.93 100.35 42.58 96.42 43.77 92.02 Z" />
<path fill="#fbfbfb" opacity="1.00" d=" M 67.05 105.39 C 71.87 104.87 76.05 107.98 80.68 108.78 C 84.93 110.69 89.68 111.30 93.68 113.75 C 92.39 117.02 92.78 120.65 91.29 123.84 C 85.06 122.44 80.11 117.92 73.67 117.24 C 70.72 113.82 67.54 110.07 67.05 105.39 Z" />
<path fill="#fbfbfb" opacity="1.00" d=" M 172.35 113.86 C 170.79 111.77 172.46 110.34 174.14 109.13 C 175.15 112.75 175.88 116.46 177.16 120.01 C 176.15 121.53 175.12 123.03 174.04 124.50 C 173.66 120.93 173.70 117.24 172.35 113.86 Z" />
<path fill="#fbfbfb" opacity="1.00" d=" M 160.38 118.24 C 162.68 117.18 164.91 115.96 167.22 114.92 C 169.14 115.88 168.46 118.24 168.69 119.98 C 168.83 122.47 168.10 124.86 167.48 127.24 C 165.85 127.63 164.25 128.12 162.66 128.63 C 162.51 125.03 160.75 121.79 160.38 118.24 Z" />
<path fill="#fbfbfb" opacity="1.00" d=" M 95.38 125.52 C 96.79 122.23 97.02 118.56 98.85 115.44 C 104.98 116.78 111.04 119.09 117.42 118.68 C 119.53 122.20 118.54 126.42 118.62 130.29 C 114.97 130.15 111.07 131.04 107.66 129.38 C 103.76 127.46 99.30 127.40 95.38 125.52 Z" />
<path fill="#fbfbfb" opacity="1.00" d=" M 141.29 121.36 C 146.38 121.81 151.59 121.12 156.37 119.31 C 156.83 122.33 157.67 125.30 157.75 128.38 C 155.84 128.54 153.76 128.14 152.02 129.14 C 148.81 131.03 145.00 130.30 141.49 130.06 C 141.48 127.16 141.43 124.26 141.29 121.36 Z" />
<path fill="#fbfbfb" opacity="1.00" d=" M 124.05 130.26 C 121.33 127.83 122.81 123.31 123.58 120.18 C 127.76 121.28 132.03 121.79 136.36 121.44 C 137.04 124.14 137.72 126.86 137.71 129.67 C 133.25 130.78 128.60 130.32 124.05 130.26 Z" />
<path fill="#fbfbfb" opacity="1.00" d=" M 55.14 145.03 C 59.03 147.56 63.62 148.94 67.21 151.90 C 68.60 155.39 69.13 159.34 66.99 162.66 C 61.63 157.92 58.09 151.46 55.14 145.03 Z" />
<path fill="#fbfbfb" opacity="1.00" d=" M 72.61 154.87 C 79.31 158.32 85.82 162.80 93.47 163.74 C 93.47 165.83 93.58 167.93 93.44 170.02 C 92.02 173.35 89.34 176.16 89.14 179.95 C 81.27 177.37 76.05 170.23 69.09 166.03 C 70.20 164.80 71.37 163.63 72.40 162.34 C 72.74 159.86 72.48 157.35 72.61 154.87 Z" />
<path fill="#fbfbfb" opacity="1.00" d=" M 97.62 166.19 C 101.22 166.16 104.26 168.20 107.53 169.38 C 111.10 170.49 114.75 171.36 118.17 172.90 C 118.98 178.12 118.82 183.66 117.28 188.77 C 112.56 187.36 107.46 188.23 102.90 186.29 C 99.60 185.22 96.37 183.93 93.21 182.50 C 94.40 179.63 95.36 176.66 96.78 173.89 C 98.20 171.57 97.43 168.74 97.62 166.19 Z" />
<path fill="#fbfbfb" opacity="1.00" d=" M 167.94 185.04 C 170.15 180.93 170.48 174.80 175.49 173.02 C 174.50 175.80 173.54 178.59 172.36 181.30 C 173.13 182.32 173.90 183.34 174.68 184.37 C 172.48 184.87 170.20 185.73 167.94 185.04 Z" />
<path fill="#fbfbfb" opacity="1.00" d=" M 122.63 174.02 C 124.64 174.30 126.66 174.58 128.63 175.14 C 132.29 176.27 136.20 175.22 139.90 176.20 C 138.22 180.92 139.02 186.12 136.27 190.48 C 131.78 189.80 126.57 191.82 122.68 188.98 C 122.56 184.00 122.76 179.00 122.63 174.02 Z" />
<path fill="#fbfbfb" opacity="1.00" d=" M 143.82 177.54 C 147.48 177.38 151.15 177.27 154.81 177.58 C 153.52 182.13 152.34 187.68 147.88 190.20 C 146.00 190.58 144.05 190.43 142.14 190.51 C 142.43 186.15 143.42 181.89 143.82 177.54 Z" />
<path fill="#fbfbfb" opacity="1.00" d=" M 160.17 177.89 C 161.83 177.61 163.49 177.32 165.16 177.11 C 165.21 177.59 165.33 178.54 165.38 179.01 C 164.81 180.28 164.15 181.51 163.44 182.71 C 162.16 185.49 159.97 187.59 157.09 188.65 C 158.05 185.04 159.17 181.48 160.17 177.89 Z" />
<path fill="#fbfbfb" opacity="1.00" d=" M 40.11 200.08 C 41.81 200.75 42.88 202.37 42.75 204.21 C 41.22 204.50 38.94 201.40 40.11 200.08 Z" />
</g>
</svg>
