<?xml version="1.0" encoding="UTF-8" ?>
<!DOCTYPE svg PUBLIC "-//W3C//DTD SVG 1.1//EN" "http://www.w3.org/Graphics/SVG/1.1/DTD/svg11.dtd">
<svg width="210pt" height="220pt" viewBox="0 0 210 220" version="1.1" xmlns="http://www.w3.org/2000/svg">
<g id="#fefefeff">
<path fill="#fefefe" opacity="1.00" d=" M 0.00 0.00 L 210.00 0.00 L 210.00 220.00 L 0.00 220.00 L 0.00 0.00 M 167.57 7.36 C 166.82 13.04 166.10 18.74 166.16 24.48 C 160.29 22.37 154.06 21.82 147.91 21.11 C 145.40 21.63 142.85 21.61 140.32 21.87 C 138.12 23.08 135.68 23.71 133.18 23.81 C 130.29 25.80 127.06 27.24 124.18 29.24 C 120.91 31.19 118.79 34.44 115.87 36.81 C 112.79 40.46 111.02 45.21 106.89 47.94 C 105.37 50.34 103.72 53.39 100.79 54.16 C 73.44 54.22 46.09 54.13 18.74 54.21 C 12.72 53.22 6.75 54.83 0.72 54.80 C 4.10 55.37 7.56 55.17 10.97 55.50 C 40.99 55.60 71.02 55.48 101.04 55.57 C 100.10 58.85 98.42 61.83 96.80 64.80 C 96.56 66.19 96.28 67.57 95.98 68.94 C 95.00 71.98 96.14 75.47 94.22 78.20 C 91.25 83.30 90.57 89.32 90.18 95.11 C 90.61 99.30 90.43 103.51 90.48 107.72 C 88.00 107.32 85.55 106.57 83.02 106.56 C 80.61 106.47 77.96 106.98 75.95 105.28 C 74.93 105.28 73.90 105.29 72.88 105.29 C 71.62 104.79 70.36 104.30 69.10 103.80 C 64.39 103.59 59.87 101.91 55.09 102.38 C 50.90 98.94 45.09 100.80 40.13 100.47 C 35.93 103.25 30.81 104.66 27.35 108.49 C 24.25 111.01 20.78 113.06 17.84 115.79 C 13.55 119.98 8.38 123.19 3.95 127.28 C 3.20 127.36 1.69 127.53 0.93 127.62 C 1.39 128.68 1.36 130.30 2.90 130.34 C 6.19 129.70 8.39 126.99 11.06 125.21 C 12.39 123.45 13.98 121.90 15.96 120.91 C 17.76 119.07 19.35 116.90 21.65 115.64 C 25.54 115.28 29.47 115.55 33.37 115.55 C 33.33 117.31 33.41 119.09 33.16 120.85 C 31.00 124.66 30.35 129.05 28.76 133.10 C 28.45 135.08 28.36 137.09 28.32 139.10 C 27.93 139.47 27.17 140.23 26.78 140.60 C 27.30 144.30 25.96 147.75 24.77 151.16 C 25.43 155.72 23.95 159.99 21.75 163.92 C 21.21 166.88 19.99 170.18 16.86 171.23 C 16.57 171.63 15.99 172.44 15.70 172.85 C 15.56 173.32 15.28 174.27 15.14 174.74 C 13.65 176.18 12.83 178.08 12.04 179.96 C 11.34 180.53 10.65 181.11 9.96 181.69 C 8.40 185.86 4.47 188.36 1.60 191.56 C 1.02 193.57 1.48 195.80 1.37 197.89 C 2.29 196.61 3.15 195.31 4.03 194.02 C 5.86 193.34 7.94 192.76 8.95 190.92 C 10.77 188.92 11.22 185.43 14.35 185.03 C 14.46 186.67 14.48 188.32 14.27 189.95 C 13.30 192.25 12.50 194.62 11.85 197.03 C 11.66 203.88 3.82 207.69 3.22 214.34 C 4.38 214.38 5.54 214.43 6.70 214.47 C 6.72 213.24 6.73 212.02 6.73 210.80 C 8.60 208.06 10.19 205.04 12.86 202.96 C 15.82 197.95 15.86 191.84 19.21 187.03 C 19.30 186.54 19.48 185.55 19.57 185.05 C 20.17 183.79 20.70 182.50 21.17 181.19 C 22.15 178.13 22.23 174.81 23.76 171.93 C 24.67 170.33 24.76 168.50 24.84 166.72 C 25.28 165.84 25.73 164.96 26.18 164.09 C 26.34 162.67 26.35 161.20 26.92 159.86 C 29.12 154.08 29.93 147.82 29.57 141.66 C 29.95 141.20 30.70 140.28 31.07 139.82 C 31.57 137.12 32.38 134.50 33.14 131.87 C 33.57 129.24 34.10 126.62 35.17 124.17 C 35.58 121.57 35.68 118.75 37.50 116.66 C 39.59 117.93 42.00 118.42 44.21 119.41 C 44.75 119.48 45.83 119.61 46.37 119.67 C 49.71 122.06 53.37 123.97 56.65 126.45 C 58.96 128.19 61.48 129.70 64.28 130.48 C 64.70 130.84 65.55 131.57 65.97 131.93 C 69.29 132.57 71.87 134.95 75.11 135.77 C 78.78 136.71 81.25 140.07 85.01 140.83 C 88.38 141.49 91.73 142.41 95.18 142.63 C 96.77 144.19 98.38 145.73 99.89 147.36 C 102.57 149.21 105.58 149.78 108.72 148.77 C 113.18 150.87 117.35 146.89 121.38 145.42 C 123.76 147.73 125.66 150.45 127.57 153.14 C 125.12 152.99 122.14 150.01 120.16 152.65 C 117.08 153.40 113.94 153.93 110.99 155.11 C 109.69 155.46 108.40 155.82 107.11 156.20 C 101.17 156.29 95.27 157.14 89.31 156.78 C 89.33 157.66 89.35 158.54 89.38 159.43 C 93.29 159.77 97.24 159.48 101.15 159.88 C 108.24 159.79 114.95 157.51 121.83 156.15 C 122.37 155.74 123.46 154.93 124.00 154.52 C 126.68 155.74 129.41 157.03 131.27 159.42 C 124.06 159.70 116.93 160.90 109.88 162.40 C 107.14 162.39 104.31 162.14 101.70 163.16 C 94.57 161.87 87.20 163.22 80.08 161.81 C 75.53 161.79 70.92 160.60 66.45 161.83 C 74.97 166.84 85.11 163.05 94.15 165.33 C 97.73 165.41 101.32 165.46 104.90 165.28 C 108.18 164.32 111.66 164.44 115.02 163.89 C 120.57 163.74 126.17 162.72 131.68 163.86 C 132.23 169.12 126.08 171.16 122.62 173.80 C 121.50 175.26 120.59 176.89 120.57 178.79 C 122.35 181.93 123.23 185.54 125.50 188.41 C 125.55 188.90 125.64 189.87 125.69 190.36 C 127.42 194.17 129.95 197.52 132.49 200.82 C 132.55 201.30 132.65 202.25 132.71 202.73 C 135.12 204.94 135.68 208.04 135.73 211.17 C 136.39 212.64 136.05 215.14 138.61 214.85 C 139.17 210.67 138.03 206.56 136.11 202.87 C 135.88 202.42 135.42 201.51 135.18 201.06 C 133.38 198.19 131.43 195.39 129.76 192.45 C 128.49 187.65 125.37 183.71 123.56 179.13 C 123.62 178.50 123.74 177.23 123.80 176.59 C 124.41 178.24 124.94 179.92 125.53 181.58 C 126.15 181.64 127.40 181.77 128.02 181.83 C 131.88 183.63 135.89 181.30 139.53 180.03 C 142.48 179.14 144.84 176.94 147.95 176.47 C 149.79 175.01 151.66 173.55 153.84 172.62 C 157.41 170.70 160.57 168.08 164.20 166.25 C 166.99 164.82 169.21 162.52 172.03 161.17 C 172.42 162.44 172.81 163.71 173.20 164.98 C 173.31 167.88 174.88 170.35 176.15 172.87 C 176.94 174.99 177.90 177.04 178.88 179.08 C 180.64 182.52 180.33 186.61 182.26 189.99 C 182.45 190.45 182.83 191.38 183.02 191.84 C 184.29 195.90 185.18 200.09 186.92 203.99 C 188.88 207.20 189.55 210.89 190.41 214.48 C 191.37 214.46 193.30 214.41 194.27 214.39 C 193.96 213.54 193.35 211.85 193.05 211.00 C 192.00 207.50 190.12 204.35 188.88 200.93 C 190.49 200.46 192.09 199.95 193.69 199.43 C 194.75 198.70 195.75 197.58 197.17 197.70 C 201.02 197.40 204.88 197.19 208.73 196.75 C 208.67 195.89 208.55 194.17 208.49 193.31 C 203.71 194.36 198.85 194.30 194.00 194.68 C 192.48 195.06 190.98 195.51 189.60 196.25 C 189.19 196.29 188.37 196.37 187.96 196.41 C 187.30 194.63 186.64 192.86 186.20 191.02 C 187.72 190.33 188.68 189.14 188.94 187.49 C 191.64 184.71 189.95 180.96 190.05 177.57 C 189.23 177.42 188.41 177.27 187.59 177.13 C 187.29 179.46 186.82 181.76 186.28 184.05 C 185.55 183.90 184.09 183.58 183.35 183.42 C 183.24 182.06 183.17 180.71 183.14 179.35 C 181.84 177.31 180.44 175.26 180.16 172.80 C 179.82 171.82 179.49 170.85 179.15 169.89 C 178.41 168.57 177.72 167.24 177.14 165.86 C 176.11 163.51 174.69 161.37 172.75 159.69 C 172.67 159.29 172.51 158.50 172.42 158.11 C 171.27 157.27 169.96 156.49 169.51 155.04 C 170.04 152.45 172.14 153.62 173.84 154.21 C 178.88 154.96 183.99 155.08 189.00 156.02 C 190.76 156.45 192.55 156.77 194.35 157.03 C 198.96 159.00 203.68 161.02 208.72 161.50 C 207.29 153.97 207.84 146.29 207.87 138.68 C 202.59 135.64 197.28 132.65 191.52 130.63 C 187.67 127.00 182.19 127.75 177.78 125.35 C 176.33 122.13 175.35 118.74 174.18 115.42 C 177.68 114.87 178.84 111.21 181.03 108.95 C 182.68 105.71 184.07 102.36 185.32 98.95 C 185.34 95.79 185.35 92.63 185.29 89.47 C 184.68 88.13 182.80 86.67 183.82 85.06 C 185.72 82.63 188.23 80.45 188.15 77.07 C 188.43 72.90 190.13 69.08 191.23 65.10 C 191.61 62.19 191.34 59.24 191.25 56.31 C 196.78 56.33 202.30 56.35 207.82 56.80 C 207.82 56.44 207.82 55.73 207.82 55.37 C 206.25 55.38 204.67 55.38 203.10 55.36 C 199.18 53.71 194.75 54.87 190.61 54.55 C 190.59 53.13 190.58 51.70 190.55 50.28 C 189.78 49.25 188.54 48.45 188.25 47.12 C 187.30 42.89 183.79 39.99 181.10 36.81 C 178.12 34.24 175.44 31.32 172.27 28.96 C 172.56 28.57 173.14 27.80 173.43 27.41 C 173.53 22.60 174.52 17.87 175.01 13.09 C 175.40 11.19 175.59 9.26 175.79 7.33 C 175.32 7.35 174.37 7.39 173.89 7.41 C 173.57 9.86 173.32 12.32 173.08 14.78 C 172.25 19.06 172.02 23.44 171.57 27.78 C 170.15 27.08 168.72 26.39 167.29 25.72 C 167.21 22.43 167.64 19.16 168.17 15.92 C 168.60 13.03 168.70 10.09 169.57 7.28 C 169.07 7.30 168.07 7.34 167.57 7.36 M 42.49 144.39 C 41.96 144.47 40.91 144.61 40.38 144.69 C 37.17 147.15 33.39 149.23 32.13 153.38 C 31.90 153.59 31.44 154.00 31.20 154.20 C 32.17 154.25 33.13 154.30 34.10 154.36 C 35.95 152.43 37.68 150.36 39.78 148.70 C 41.67 147.74 43.75 147.23 45.67 146.34 C 47.00 145.59 48.29 144.41 49.92 144.53 C 56.56 144.53 63.20 144.48 69.84 144.59 C 73.75 146.05 78.04 144.92 82.08 145.82 C 82.42 146.16 83.10 146.85 83.44 147.19 C 85.44 147.71 87.46 148.28 89.25 149.35 C 92.01 149.45 94.77 149.45 97.52 149.42 C 97.81 149.86 98.37 150.74 98.65 151.17 C 100.53 152.22 102.26 154.12 104.63 153.48 C 105.66 151.08 102.72 150.21 101.29 149.07 C 99.04 147.84 96.57 146.98 93.97 147.15 C 90.30 146.33 86.81 144.89 83.20 143.86 C 80.59 143.07 77.77 143.55 75.18 142.67 C 73.17 142.10 71.23 141.06 69.07 141.24 C 62.06 141.28 55.04 141.23 48.03 141.26 C 45.72 141.12 44.18 143.15 42.49 144.39 Z" />
<path fill="#fefefe" opacity="1.00" d=" M 137.96 26.18 C 140.31 25.21 142.80 24.06 145.33 25.22 C 146.11 24.72 146.90 24.21 147.68 23.70 C 152.15 24.64 156.70 25.16 161.22 25.77 C 164.77 27.93 168.65 29.56 171.83 32.28 C 174.37 34.35 176.52 36.86 179.06 38.94 C 181.50 42.12 185.37 44.89 185.44 49.27 C 186.04 49.85 186.64 50.43 187.25 51.01 C 187.63 53.70 188.86 57.16 185.98 58.87 C 185.00 59.56 184.02 60.25 183.05 60.96 C 181.39 61.95 179.67 62.83 177.95 63.71 C 175.40 66.31 172.61 68.76 171.15 72.19 C 170.17 74.71 167.59 75.63 165.37 76.74 C 164.83 78.51 164.42 80.31 164.03 82.11 C 161.66 86.35 162.38 91.16 163.80 95.60 C 165.12 95.52 166.44 95.43 167.76 95.32 C 169.69 94.52 171.79 94.29 173.78 93.68 C 175.43 91.99 176.94 90.15 178.73 88.59 C 180.27 88.52 181.81 88.44 183.35 88.40 C 183.58 92.35 184.24 96.50 182.75 100.29 L 183.87 101.06 L 181.81 102.05 L 182.88 103.07 C 181.74 103.21 180.62 103.36 179.49 103.52 C 180.54 101.80 181.49 100.01 182.52 98.27 C 182.43 96.50 182.47 94.71 182.08 92.97 C 180.49 92.59 178.56 91.86 177.13 93.02 C 176.76 93.88 176.00 95.61 175.63 96.47 C 176.96 95.92 179.61 94.81 180.94 94.25 C 180.70 96.04 180.53 98.18 178.54 98.89 C 178.45 100.92 178.71 103.13 177.06 104.67 C 178.41 104.93 179.76 105.25 181.08 105.64 C 179.36 108.67 177.70 112.91 173.82 113.58 C 171.09 111.85 170.97 108.42 169.79 105.73 C 169.30 107.67 169.21 109.68 169.14 111.68 C 166.76 114.32 164.65 117.23 161.96 119.58 C 161.50 119.55 160.57 119.49 160.11 119.46 C 158.42 115.89 157.50 112.03 156.90 108.15 C 157.46 106.36 157.62 104.49 157.68 102.63 C 159.13 99.73 163.61 96.81 160.64 93.39 C 159.73 93.47 157.90 93.61 156.99 93.69 C 157.11 93.11 157.35 91.94 157.47 91.36 C 156.50 91.96 155.52 92.54 154.54 93.12 C 154.53 93.71 154.51 94.90 154.50 95.49 C 154.00 95.47 153.00 95.42 152.49 95.40 L 152.11 97.59 C 151.69 96.93 150.84 95.61 150.42 94.95 C 150.46 95.89 150.54 97.78 150.58 98.73 C 149.50 98.60 148.42 98.47 147.35 98.34 C 147.49 100.07 147.64 101.80 147.70 103.54 C 146.75 103.57 144.84 103.63 143.89 103.66 C 140.49 100.19 137.17 96.61 133.54 93.38 C 126.21 87.86 118.43 82.99 110.90 77.75 C 108.15 77.57 105.07 76.88 102.66 78.61 C 102.41 79.85 102.23 81.10 102.13 82.36 C 98.77 83.05 94.26 84.51 95.19 88.90 C 97.34 93.23 102.47 94.81 105.92 97.96 C 108.78 100.75 111.46 103.79 114.76 106.08 C 113.42 104.14 111.65 102.58 110.02 100.89 C 108.33 99.34 106.67 97.76 104.96 96.23 C 102.96 94.93 101.08 93.40 99.81 91.35 C 103.27 90.91 102.61 87.59 102.58 85.08 C 105.65 88.22 109.04 91.06 113.05 92.92 C 116.62 95.23 119.59 98.35 122.93 100.98 C 124.50 102.35 126.19 103.58 127.89 104.79 C 128.11 104.61 128.56 104.24 128.78 104.06 C 124.40 100.58 120.66 96.36 116.11 93.10 C 114.83 91.62 113.25 90.47 111.29 90.11 C 111.35 89.90 111.47 89.46 111.53 89.25 C 109.70 88.33 107.91 87.33 106.21 86.19 C 106.17 83.33 110.63 82.14 109.53 78.63 C 114.03 82.27 119.12 85.04 123.90 88.26 C 125.74 89.30 127.46 90.52 129.12 91.82 C 135.08 96.14 139.25 102.64 145.87 106.07 C 146.98 105.12 147.96 104.05 148.93 102.98 C 149.55 101.88 150.18 100.79 150.79 99.68 C 152.83 97.86 155.88 97.02 157.00 94.33 C 157.97 94.45 159.92 94.69 160.89 94.80 C 158.94 97.71 155.96 100.33 155.86 104.07 C 155.16 109.50 154.44 115.58 158.06 120.19 C 159.41 125.05 158.40 130.19 158.72 135.17 C 159.29 136.71 159.75 138.29 160.29 139.85 C 160.53 141.55 160.74 143.26 160.99 144.97 C 161.30 146.13 161.58 147.29 161.84 148.47 C 162.58 149.30 163.33 150.12 164.07 150.96 C 164.96 154.02 167.32 156.44 167.94 159.59 C 166.36 160.47 164.79 161.37 163.24 162.31 C 162.18 162.53 161.12 162.76 160.07 163.02 C 159.11 163.30 158.15 163.58 157.20 163.86 C 156.21 164.93 155.20 165.99 154.17 167.02 C 152.42 168.00 150.75 169.11 149.14 170.29 C 146.83 171.72 144.49 173.23 141.64 172.89 C 141.04 171.64 140.46 170.39 139.90 169.12 C 138.87 166.78 137.49 164.59 135.78 162.68 C 135.66 162.19 135.41 161.22 135.28 160.73 C 134.01 159.33 132.69 157.97 131.55 156.46 C 127.15 148.18 120.71 141.26 115.08 133.84 C 112.50 131.68 110.55 128.96 109.07 125.97 C 106.88 124.63 104.79 123.14 102.66 121.72 C 102.66 121.13 102.68 119.94 102.69 119.35 C 103.07 118.70 103.83 117.41 104.21 116.77 C 103.08 117.96 102.09 119.27 101.07 120.56 C 99.84 118.84 98.46 117.24 97.13 115.61 C 98.38 114.80 99.24 113.58 100.07 112.37 C 101.84 113.77 103.68 115.08 105.52 116.39 C 106.97 116.92 108.43 117.45 109.92 117.86 L 109.24 118.38 C 110.76 118.88 112.28 119.39 113.84 119.81 C 111.62 116.17 108.25 113.53 104.82 111.11 C 105.16 110.20 105.48 109.29 105.72 108.36 C 106.74 107.28 107.74 106.17 108.70 105.05 C 106.64 106.53 104.72 108.21 102.83 109.90 C 100.98 107.34 99.10 104.78 96.70 102.70 C 96.55 102.22 96.25 101.24 96.10 100.76 C 97.83 99.79 99.34 98.13 101.50 98.43 C 104.20 101.95 107.90 104.48 111.99 106.12 C 107.88 103.21 104.18 99.79 100.06 96.90 C 99.16 96.11 98.26 95.31 97.35 94.52 C 96.89 94.54 95.98 94.58 95.52 94.60 C 95.49 95.08 95.44 96.04 95.41 96.52 C 95.83 96.45 96.66 96.32 97.07 96.25 C 97.57 96.76 98.57 97.78 99.07 98.29 C 97.59 100.07 95.54 100.06 93.93 98.48 C 93.53 98.47 92.73 98.44 92.33 98.43 C 92.45 96.83 92.79 95.29 93.35 93.80 C 93.39 91.76 93.38 89.68 92.69 87.74 C 93.49 83.79 96.07 80.68 98.29 77.45 C 97.96 73.48 98.88 69.61 99.71 65.76 C 101.87 62.58 102.87 58.84 104.74 55.53 C 107.78 52.26 110.14 48.47 113.52 45.53 C 118.19 37.73 124.99 31.12 133.30 27.30 C 134.70 26.41 136.38 26.42 137.96 26.18 M 152.20 91.63 L 151.84 91.41 C 149.46 93.51 146.89 95.51 145.22 98.26 C 145.88 97.86 147.21 97.05 147.88 96.64 L 148.50 96.50 L 148.47 95.94 C 148.83 95.56 149.56 94.80 149.93 94.42 L 150.56 94.55 L 150.62 94.05 C 152.04 92.88 153.34 91.56 154.33 89.99 C 153.80 90.40 152.73 91.22 152.20 91.63 M 110.32 105.73 C 112.04 107.74 114.28 109.54 117.02 109.78 L 116.35 110.60 C 116.85 110.51 117.85 110.33 118.35 110.24 C 118.37 110.75 118.42 111.76 118.45 112.27 C 119.03 112.24 120.21 112.20 120.80 112.18 C 119.59 109.94 118.04 107.92 116.25 106.12 L 116.72 108.84 C 116.22 108.75 115.21 108.59 114.71 108.50 C 113.41 107.33 112.02 106.25 110.32 105.73 Z" />
<path fill="#fefefe" opacity="1.00" d=" M 104.13 79.15 C 105.59 77.33 107.38 79.65 108.97 79.98 C 108.01 81.35 107.00 82.69 105.98 84.02 C 105.27 82.46 102.89 81.02 104.13 79.15 Z" />
<path fill="#fefefe" opacity="1.00" d=" M 96.23 85.70 C 98.03 85.67 99.83 85.63 101.63 85.59 C 102.31 87.94 101.06 89.68 99.20 91.01 C 98.01 89.36 96.19 87.94 96.23 85.70 Z" />
<path fill="#fefefe" opacity="1.00" d=" M 92.44 98.48 C 94.41 101.17 96.27 103.97 98.72 106.26 C 99.01 106.58 99.58 107.22 99.87 107.54 L 100.08 107.58 C 101.03 108.74 102.03 109.86 103.04 110.97 C 105.60 112.83 108.09 114.78 110.44 116.92 C 108.70 116.75 107.05 116.22 105.47 115.51 C 103.08 113.78 100.89 111.81 98.65 109.90 L 98.39 109.21 C 97.25 109.33 96.09 109.39 94.97 109.66 C 94.72 110.82 94.23 113.15 93.98 114.31 C 93.88 111.14 92.18 107.82 93.38 104.69 C 93.03 102.62 92.51 100.58 92.44 98.48 Z" />
<path fill="#fefefe" opacity="1.00" d=" M 96.25 113.89 C 93.49 112.63 97.82 109.37 98.44 112.22 C 98.03 113.17 97.30 113.72 96.25 113.89 Z" />
<path fill="#fefefe" opacity="1.00" d=" M 162.69 120.88 C 164.89 117.96 167.55 115.36 170.49 113.19 C 169.56 118.41 166.23 122.74 162.44 126.27 C 162.46 124.48 162.10 122.61 162.69 120.88 Z" />
<path fill="#fefefe" opacity="1.00" d=" M 93.19 113.36 C 96.32 116.94 99.27 120.78 103.23 123.50 C 106.42 125.74 108.79 128.84 111.10 131.94 C 113.19 135.23 115.80 138.15 118.47 140.97 C 118.95 142.06 119.42 143.16 119.90 144.25 C 117.26 145.38 114.58 146.41 111.85 147.32 C 109.82 147.30 107.79 147.29 105.77 147.33 C 100.93 146.16 97.64 141.59 96.62 136.91 C 96.09 134.59 95.74 132.22 94.73 130.04 C 94.20 126.76 94.18 123.44 94.05 120.12 C 93.45 117.92 93.16 115.66 93.19 113.36 Z" />
<path fill="#fefefe" opacity="1.00" d=" M 126.07 176.26 C 129.17 174.77 130.39 170.99 133.72 169.98 C 133.19 172.39 131.51 174.19 130.02 176.05 C 130.52 176.84 131.02 177.63 131.52 178.43 C 132.29 178.55 133.82 178.81 134.59 178.94 C 132.48 179.29 130.33 179.27 128.20 179.33 C 127.45 178.34 126.73 177.31 126.07 176.26 Z" />
</g>
<g id="#010101ff">
<path fill="#010101" opacity="1.00" d=" M 167.57 7.36 C 168.07 7.34 169.07 7.30 169.57 7.28 C 168.70 10.09 168.60 13.03 168.17 15.92 C 167.64 19.16 167.21 22.43 167.29 25.72 C 168.72 26.39 170.15 27.08 171.57 27.78 C 172.02 23.44 172.25 19.06 173.08 14.78 C 173.32 12.32 173.57 9.86 173.89 7.41 C 174.37 7.39 175.32 7.35 175.79 7.33 C 175.59 9.26 175.40 11.19 175.01 13.09 C 174.52 17.87 173.53 22.60 173.43 27.41 C 173.14 27.80 172.56 28.57 172.27 28.96 C 175.44 31.32 178.12 34.24 181.10 36.81 C 183.79 39.99 187.30 42.89 188.25 47.12 C 188.54 48.45 189.78 49.25 190.55 50.28 C 190.58 51.70 190.59 53.13 190.61 54.55 C 194.75 54.87 199.18 53.71 203.10 55.36 C 204.67 55.38 206.25 55.38 207.82 55.37 C 207.82 55.73 207.82 56.44 207.82 56.80 C 202.30 56.35 196.78 56.33 191.25 56.31 C 191.34 59.24 191.61 62.19 191.23 65.10 C 190.13 69.08 188.43 72.90 188.15 77.07 C 188.23 80.45 185.72 82.63 183.82 85.06 C 182.80 86.67 184.68 88.13 185.29 89.47 C 185.35 92.63 185.34 95.79 185.32 98.95 C 184.07 102.36 182.68 105.71 181.03 108.95 C 178.84 111.21 177.68 114.87 174.18 115.42 C 175.35 118.74 176.33 122.13 177.78 125.35 C 182.19 127.75 187.67 127.00 191.52 130.63 C 197.28 132.65 202.59 135.64 207.87 138.68 C 207.84 146.29 207.29 153.97 208.72 161.50 C 203.68 161.02 198.96 159.00 194.35 157.03 C 192.55 156.77 190.76 156.45 189.00 156.02 C 183.99 155.08 178.88 154.96 173.84 154.21 C 172.14 153.62 170.04 152.45 169.51 155.04 C 169.96 156.49 171.27 157.27 172.42 158.11 C 172.51 158.50 172.67 159.29 172.75 159.69 C 174.69 161.37 176.11 163.51 177.14 165.86 C 177.72 167.24 178.41 168.57 179.15 169.89 C 179.49 170.85 179.82 171.82 180.16 172.80 C 180.44 175.26 181.84 177.31 183.14 179.35 C 183.17 180.71 183.24 182.06 183.35 183.42 C 184.09 183.58 185.55 183.90 186.28 184.05 C 186.82 181.76 187.29 179.46 187.59 177.13 C 188.41 177.27 189.23 177.42 190.05 177.57 C 189.95 180.96 191.64 184.71 188.94 187.49 C 188.68 189.14 187.72 190.33 186.20 191.02 C 186.64 192.86 187.30 194.63 187.96 196.41 C 188.37 196.37 189.19 196.29 189.60 196.25 C 190.98 195.51 192.48 195.06 194.00 194.68 C 198.85 194.30 203.71 194.36 208.49 193.31 C 208.55 194.17 208.67 195.89 208.73 196.75 C 204.88 197.19 201.02 197.40 197.17 197.70 C 195.75 197.58 194.75 198.70 193.69 199.43 C 192.09 199.95 190.49 200.46 188.88 200.93 C 190.12 204.35 192.00 207.50 193.05 211.00 C 193.35 211.85 193.96 213.54 194.27 214.39 C 193.30 214.41 191.37 214.46 190.41 214.48 C 189.55 210.89 188.88 207.20 186.92 203.99 C 185.18 200.09 184.29 195.90 183.02 191.84 C 182.83 191.38 182.45 190.45 182.26 189.99 C 180.33 186.61 180.64 182.52 178.88 179.08 C 177.90 177.04 176.94 174.99 176.15 172.87 C 174.88 170.35 173.31 167.88 173.20 164.98 C 172.81 163.71 172.42 162.44 172.03 161.17 C 169.21 162.52 166.99 164.82 164.20 166.25 C 160.57 168.08 157.41 170.70 153.84 172.62 C 151.66 173.55 149.79 175.01 147.95 176.47 C 144.84 176.94 142.48 179.14 139.53 180.03 C 135.89 181.30 131.88 183.63 128.02 181.83 C 127.40 181.77 126.15 181.64 125.53 181.58 C 124.94 179.92 124.41 178.24 123.80 176.59 C 123.74 177.23 123.62 178.50 123.56 179.13 C 125.37 183.71 128.49 187.65 129.76 192.45 C 131.43 195.39 133.38 198.19 135.18 201.06 C 135.42 201.51 135.88 202.42 136.11 202.87 C 138.03 206.56 139.17 210.67 138.61 214.85 C 136.05 215.14 136.39 212.64 135.73 211.17 C 135.68 208.04 135.12 204.94 132.71 202.73 C 132.65 202.25 132.55 201.30 132.49 200.82 C 129.95 197.52 127.42 194.17 125.69 190.36 C 125.64 189.87 125.55 188.90 125.50 188.41 C 123.23 185.54 122.35 181.93 120.57 178.79 C 120.59 176.89 121.50 175.26 122.62 173.80 C 126.08 171.16 132.23 169.12 131.68 163.86 C 126.17 162.72 120.57 163.74 115.02 163.89 C 111.66 164.44 108.18 164.32 104.90 165.28 C 101.32 165.46 97.73 165.41 94.15 165.33 C 85.11 163.05 74.97 166.84 66.45 161.83 C 70.92 160.60 75.53 161.79 80.08 161.81 C 87.20 163.22 94.57 161.87 101.70 163.16 C 104.31 162.14 107.14 162.39 109.88 162.40 C 116.93 160.90 124.06 159.70 131.27 159.42 C 129.41 157.03 126.68 155.74 124.00 154.52 C 123.46 154.93 122.37 155.74 121.83 156.15 C 114.95 157.51 108.24 159.79 101.15 159.88 C 97.24 159.48 93.29 159.77 89.38 159.43 C 89.35 158.54 89.33 157.66 89.31 156.78 C 95.27 157.14 101.17 156.29 107.11 156.20 C 108.40 155.82 109.69 155.46 110.99 155.11 C 113.94 153.93 117.08 153.40 120.16 152.65 C 122.14 150.01 125.12 152.99 127.57 153.14 C 125.66 150.45 123.76 147.73 121.38 145.42 C 117.35 146.89 113.18 150.87 108.72 148.77 C 105.58 149.78 102.57 149.21 99.89 147.36 C 98.38 145.73 96.77 144.19 95.18 142.63 C 91.73 142.41 88.38 141.49 85.01 140.83 C 81.25 140.07 78.78 136.71 75.11 135.77 C 71.87 134.95 69.29 132.57 65.97 131.93 C 65.55 131.57 64.70 130.84 64.28 130.48 C 61.48 129.70 58.96 128.19 56.65 126.45 C 53.37 123.97 49.71 122.06 46.37 119.67 C 45.83 119.61 44.75 119.48 44.21 119.41 C 42.00 118.42 39.59 117.93 37.50 116.66 C 35.68 118.75 35.58 121.57 35.17 124.17 C 34.10 126.62 33.57 129.24 33.14 131.87 C 32.38 134.50 31.57 137.12 31.07 139.82 C 30.70 140.28 29.95 141.20 29.57 141.66 C 29.93 147.82 29.12 154.08 26.92 159.86 C 26.35 161.20 26.34 162.67 26.18 164.09 C 25.73 164.96 25.28 165.84 24.84 166.72 C 24.76 168.50 24.67 170.33 23.76 171.93 C 22.23 174.81 22.15 178.13 21.17 181.19 C 20.70 182.50 20.17 183.79 19.57 185.05 C 19.48 185.55 19.30 186.54 19.21 187.03 C 15.86 191.84 15.82 197.95 12.86 202.96 C 10.19 205.04 8.60 208.06 6.73 210.80 C 6.73 212.02 6.72 213.24 6.70 214.47 C 5.54 214.43 4.38 214.38 3.22 214.34 C 3.82 207.69 11.66 203.88 11.85 197.03 C 12.50 194.62 13.30 192.25 14.27 189.95 C 14.48 188.32 14.46 186.67 14.35 185.03 C 11.22 185.43 10.77 188.92 8.95 190.92 C 7.94 192.76 5.86 193.34 4.03 194.02 C 3.15 195.31 2.29 196.61 1.37 197.89 C 1.48 195.80 1.02 193.57 1.60 191.56 C 4.47 188.36 8.40 185.86 9.96 181.69 C 10.65 181.11 11.34 180.53 12.04 179.96 C 12.83 178.08 13.65 176.18 15.14 174.74 C 15.28 174.27 15.56 173.32 15.70 172.85 C 15.99 172.44 16.57 171.63 16.86 171.23 C 19.99 170.18 21.21 166.88 21.75 163.92 C 23.95 159.99 25.43 155.72 24.77 151.16 C 25.96 147.75 27.30 144.30 26.78 140.60 C 27.17 140.23 27.93 139.47 28.32 139.10 C 28.36 137.09 28.45 135.08 28.76 133.10 C 30.35 129.05 31.00 124.66 33.16 120.85 C 33.41 119.09 33.33 117.31 33.37 115.55 C 29.47 115.55 25.54 115.28 21.65 115.64 C 19.35 116.90 17.76 119.07 15.96 120.91 C 13.98 121.90 12.39 123.45 11.06 125.21 C 8.39 126.99 6.19 129.70 2.90 130.34 C 1.36 130.30 1.39 128.68 0.93 127.62 C 1.69 127.53 3.20 127.36 3.95 127.28 C 8.38 123.19 13.55 119.98 17.84 115.79 C 20.78 113.06 24.25 111.01 27.35 108.49 C 30.81 104.66 35.93 103.25 40.13 100.47 C 45.09 100.80 50.90 98.94 55.09 102.38 C 59.87 101.91 64.39 103.59 69.10 103.80 C 70.36 104.30 71.62 104.79 72.88 105.29 C 73.90 105.29 74.93 105.28 75.95 105.28 C 77.96 106.98 80.61 106.47 83.02 106.56 C 85.55 106.57 88.00 107.32 90.48 107.72 C 90.43 103.51 90.61 99.30 90.18 95.11 C 90.57 89.32 91.25 83.30 94.22 78.20 C 96.14 75.47 95.00 71.98 95.98 68.94 C 96.28 67.57 96.56 66.19 96.80 64.80 C 98.42 61.83 100.10 58.85 101.04 55.57 C 71.02 55.48 40.99 55.60 10.97 55.50 C 7.56 55.17 4.10 55.37 0.72 54.80 C 6.75 54.83 12.72 53.22 18.74 54.21 C 46.09 54.13 73.44 54.22 100.79 54.16 C 103.72 53.39 105.37 50.34 106.89 47.94 C 111.02 45.21 112.79 40.46 115.87 36.81 C 118.79 34.44 120.91 31.19 124.18 29.24 C 127.06 27.24 130.29 25.80 133.18 23.81 C 135.68 23.71 138.12 23.08 140.32 21.87 C 142.85 21.61 145.40 21.63 147.91 21.11 C 154.06 21.82 160.29 22.37 166.16 24.48 C 166.10 18.74 166.82 13.04 167.57 7.36 M 137.96 26.18 C 136.38 26.42 134.70 26.41 133.30 27.30 C 124.99 31.12 118.19 37.73 113.52 45.53 C 110.14 48.47 107.78 52.26 104.74 55.53 C 102.87 58.84 101.87 62.58 99.71 65.76 C 98.88 69.61 97.96 73.48 98.29 77.45 C 96.07 80.68 93.49 83.79 92.69 87.74 C 93.38 89.68 93.39 91.76 93.35 93.80 C 92.79 95.29 92.45 96.83 92.33 98.43 C 92.73 98.44 93.53 98.47 93.93 98.48 C 95.54 100.06 97.59 100.07 99.07 98.29 C 98.57 97.78 97.57 96.76 97.07 96.25 C 96.66 96.32 95.83 96.45 95.41 96.52 C 95.44 96.04 95.49 95.08 95.52 94.60 C 95.98 94.58 96.89 94.54 97.35 94.52 C 98.26 95.31 99.16 96.11 100.06 96.90 C 104.18 99.79 107.88 103.21 111.99 106.12 C 107.90 104.48 104.20 101.95 101.50 98.43 C 99.34 98.13 97.83 99.79 96.10 100.76 C 96.25 101.24 96.55 102.22 96.70 102.70 C 99.10 104.78 100.98 107.34 102.83 109.90 C 104.72 108.21 106.64 106.53 108.70 105.05 C 107.74 106.17 106.74 107.28 105.72 108.36 C 105.48 109.29 105.16 110.20 104.82 111.11 C 108.25 113.53 111.62 116.17 113.84 119.81 C 112.28 119.39 110.76 118.88 109.24 118.38 L 109.92 117.86 C 108.43 117.45 106.97 116.92 105.52 116.39 C 103.68 115.08 101.84 113.77 100.07 112.37 C 99.24 113.58 98.38 114.80 97.13 115.61 C 98.46 117.24 99.84 118.84 101.07 120.56 C 102.09 119.27 103.08 117.96 104.21 116.77 C 103.83 117.41 103.07 118.70 102.69 119.35 C 102.68 119.94 102.66 121.13 102.66 121.72 C 104.79 123.14 106.88 124.63 109.07 125.97 C 110.55 128.96 112.50 131.68 115.08 133.84 C 120.71 141.26 127.15 148.18 131.55 156.46 C 132.69 157.97 134.01 159.33 135.28 160.73 C 135.41 161.22 135.66 162.19 135.78 162.68 C 137.49 164.59 138.87 166.78 139.90 169.12 C 140.46 170.39 141.04 171.64 141.64 172.89 C 144.49 173.23 146.83 171.72 149.14 170.29 C 150.75 169.11 152.42 168.00 154.17 167.02 C 155.20 165.99 156.21 164.93 157.20 163.86 C 158.15 163.58 159.11 163.30 160.07 163.02 C 161.12 162.76 162.18 162.53 163.24 162.31 C 164.79 161.37 166.36 160.47 167.94 159.59 C 167.32 156.44 164.96 154.02 164.07 150.96 C 163.33 150.12 162.58 149.30 161.84 148.47 C 161.58 147.29 161.30 146.13 160.99 144.97 C 160.74 143.26 160.53 141.55 160.29 139.85 C 159.75 138.29 159.29 136.71 158.72 135.17 C 158.40 130.19 159.41 125.05 158.06 120.19 C 154.44 115.58 155.16 109.50 155.86 104.07 C 155.96 100.33 158.94 97.71 160.89 94.80 C 159.92 94.69 157.97 94.45 157.00 94.33 C 155.88 97.02 152.83 97.86 150.79 99.68 C 150.18 100.79 149.55 101.88 148.93 102.98 C 147.96 104.05 146.98 105.12 145.87 106.07 C 139.25 102.64 135.08 96.14 129.12 91.82 C 127.46 90.52 125.74 89.30 123.90 88.26 C 119.12 85.04 114.03 82.27 109.53 78.63 C 110.63 82.14 106.17 83.33 106.21 86.19 C 107.91 87.33 109.70 88.33 111.53 89.25 C 111.47 89.46 111.35 89.90 111.29 90.11 C 113.25 90.47 114.83 91.62 116.11 93.10 C 120.66 96.36 124.40 100.58 128.78 104.06 C 128.56 104.24 128.11 104.61 127.89 104.79 C 126.19 103.58 124.50 102.35 122.93 100.98 C 119.59 98.35 116.62 95.23 113.05 92.92 C 109.04 91.06 105.65 88.22 102.58 85.08 C 102.61 87.59 103.27 90.91 99.81 91.35 C 101.08 93.40 102.96 94.93 104.96 96.23 C 106.67 97.76 108.33 99.34 110.02 100.89 C 111.65 102.58 113.42 104.14 114.76 106.08 C 111.46 103.79 108.78 100.75 105.92 97.96 C 102.47 94.81 97.34 93.23 95.19 88.90 C 94.26 84.51 98.77 83.05 102.13 82.36 C 102.23 81.10 102.41 79.85 102.66 78.61 C 105.07 76.88 108.15 77.57 110.90 77.75 C 118.43 82.99 126.21 87.86 133.54 93.38 C 137.17 96.61 140.49 100.19 143.89 103.66 C 144.84 103.63 146.75 103.57 147.70 103.54 C 147.64 101.80 147.49 100.07 147.35 98.34 C 148.42 98.47 149.50 98.60 150.58 98.73 C 150.54 97.78 150.46 95.89 150.42 94.95 C 150.84 95.61 151.69 96.93 152.11 97.59 L 152.49 95.40 C 153.00 95.42 154.00 95.47 154.50 95.49 C 154.51 94.90 154.53 93.71 154.54 93.12 C 155.52 92.54 156.50 91.96 157.47 91.36 C 157.35 91.94 157.11 93.11 156.99 93.69 C 157.90 93.61 159.73 93.47 160.64 93.39 C 163.61 96.81 159.13 99.73 157.68 102.63 C 157.62 104.49 157.46 106.36 156.90 108.15 C 157.50 112.03 158.42 115.89 160.11 119.46 C 160.57 119.49 161.50 119.55 161.96 119.58 C 164.65 117.23 166.76 114.32 169.14 111.68 C 169.21 109.68 169.30 107.67 169.79 105.73 C 170.97 108.42 171.09 111.85 173.82 113.58 C 177.70 112.91 179.36 108.67 181.08 105.64 C 179.76 105.25 178.41 104.93 177.06 104.67 C 178.71 103.13 178.45 100.92 178.54 98.89 C 180.53 98.18 180.70 96.04 180.94 94.25 C 179.61 94.81 176.96 95.92 175.63 96.47 C 176.00 95.61 176.76 93.88 177.13 93.02 C 178.56 91.86 180.49 92.59 182.08 92.97 C 182.47 94.71 182.43 96.50 182.52 98.27 C 181.49 100.01 180.54 101.80 179.49 103.52 C 180.62 103.36 181.74 103.21 182.88 103.07 L 181.81 102.05 L 183.87 101.06 L 182.75 100.29 C 184.24 96.50 183.58 92.35 183.35 88.40 C 181.81 88.44 180.27 88.52 178.73 88.59 C 176.94 90.15 175.43 91.99 173.78 93.68 C 171.79 94.29 169.69 94.52 167.76 95.32 C 166.44 95.43 165.12 95.52 163.80 95.60 C 162.38 91.16 161.66 86.35 164.03 82.11 C 164.42 80.31 164.83 78.51 165.37 76.74 C 167.59 75.63 170.17 74.71 171.15 72.19 C 172.61 68.76 175.40 66.31 177.95 63.71 C 179.67 62.83 181.39 61.95 183.05 60.96 C 184.02 60.25 185.00 59.56 185.98 58.87 C 188.86 57.16 187.63 53.70 187.25 51.01 C 186.64 50.43 186.04 49.85 185.44 49.27 C 185.37 44.89 181.50 42.12 179.06 38.94 C 176.52 36.86 174.37 34.35 171.83 32.28 C 168.65 29.56 164.77 27.93 161.22 25.77 C 156.70 25.16 152.15 24.64 147.68 23.70 C 146.90 24.21 146.11 24.72 145.33 25.22 C 142.80 24.06 140.31 25.21 137.96 26.18 M 104.13 79.15 C 102.89 81.02 105.27 82.46 105.98 84.02 C 107.00 82.69 108.01 81.35 108.97 79.98 C 107.38 79.65 105.59 77.33 104.13 79.15 M 96.23 85.70 C 96.19 87.94 98.01 89.36 99.20 91.01 C 101.06 89.68 102.31 87.94 101.63 85.59 C 99.83 85.63 98.03 85.67 96.23 85.70 M 92.44 98.48 C 92.51 100.58 93.03 102.62 93.38 104.69 C 92.18 107.82 93.88 111.14 93.98 114.31 C 94.23 113.15 94.72 110.82 94.97 109.66 C 96.09 109.39 97.25 109.33 98.39 109.21 L 98.65 109.90 C 100.89 111.81 103.08 113.78 105.47 115.51 C 107.05 116.22 108.70 116.75 110.44 116.92 C 108.09 114.78 105.60 112.83 103.04 110.97 C 102.03 109.86 101.03 108.74 100.08 107.58 L 99.87 107.54 C 99.58 107.22 99.01 106.58 98.72 106.26 C 96.27 103.97 94.41 101.17 92.44 98.48 M 96.25 113.89 C 97.30 113.72 98.03 113.17 98.44 112.22 C 97.82 109.37 93.49 112.63 96.25 113.89 M 162.69 120.88 C 162.10 122.61 162.46 124.48 162.44 126.27 C 166.23 122.74 169.56 118.41 170.49 113.19 C 167.55 115.36 164.89 117.96 162.69 120.88 M 93.19 113.36 C 93.16 115.66 93.45 117.92 94.05 120.12 C 94.18 123.44 94.20 126.76 94.73 130.04 C 95.74 132.22 96.09 134.59 96.62 136.91 C 97.64 141.59 100.93 146.16 105.77 147.33 C 107.79 147.29 109.82 147.30 111.85 147.32 C 114.58 146.41 117.26 145.38 119.90 144.25 C 119.42 143.16 118.95 142.06 118.47 140.97 C 115.80 138.15 113.19 135.23 111.10 131.94 C 108.79 128.84 106.42 125.74 103.23 123.50 C 99.27 120.78 96.32 116.94 93.19 113.36 M 126.07 176.26 C 126.73 177.31 127.45 178.34 128.20 179.33 C 130.33 179.27 132.48 179.29 134.59 178.94 C 133.82 178.81 132.29 178.55 131.52 178.43 C 131.02 177.63 130.52 176.84 130.02 176.05 C 131.51 174.19 133.19 172.39 133.72 169.98 C 130.39 170.99 129.17 174.77 126.07 176.26 Z" />
<path fill="#010101" opacity="1.00" d=" M 152.20 91.63 C 152.73 91.22 153.80 90.40 154.33 89.99 C 153.34 91.56 152.04 92.88 150.62 94.05 L 150.56 94.55 L 149.93 94.42 C 149.56 94.80 148.83 95.56 148.47 95.94 L 148.50 96.50 L 147.88 96.64 C 147.21 97.05 145.88 97.86 145.22 98.26 C 146.89 95.51 149.46 93.51 151.84 91.41 L 152.20 91.63 Z" />
<path fill="#010101" opacity="1.00" d=" M 110.32 105.73 C 112.02 106.25 113.41 107.33 114.71 108.50 C 115.21 108.59 116.22 108.75 116.72 108.84 L 116.25 106.12 C 118.04 107.92 119.59 109.94 120.80 112.18 C 120.21 112.20 119.03 112.24 118.45 112.27 C 118.42 111.76 118.37 110.75 118.35 110.24 C 117.85 110.33 116.85 110.51 116.35 110.60 L 117.02 109.78 C 114.28 109.54 112.04 107.74 110.32 105.73 Z" />
<path fill="#010101" opacity="1.00" d=" M 42.49 144.39 C 44.18 143.15 45.72 141.12 48.03 141.26 C 55.04 141.23 62.06 141.28 69.07 141.24 C 71.23 141.06 73.17 142.10 75.18 142.67 C 77.77 143.55 80.59 143.07 83.20 143.86 C 86.81 144.89 90.30 146.33 93.97 147.15 C 96.57 146.98 99.04 147.84 101.29 149.07 C 102.72 150.21 105.66 151.08 104.63 153.48 C 102.26 154.12 100.53 152.22 98.65 151.17 C 98.37 150.74 97.81 149.86 97.52 149.42 C 94.77 149.45 92.01 149.45 89.25 149.35 C 87.46 148.28 85.44 147.71 83.44 147.19 C 83.10 146.85 82.42 146.16 82.08 145.82 C 78.04 144.92 73.75 146.05 69.84 144.59 C 63.20 144.48 56.56 144.53 49.92 144.53 C 48.29 144.41 47.00 145.59 45.67 146.34 C 43.75 147.23 41.67 147.74 39.78 148.70 C 37.68 150.36 35.95 152.43 34.10 154.36 C 33.13 154.30 32.17 154.25 31.20 154.20 C 31.44 154.00 31.90 153.59 32.13 153.38 C 33.39 149.23 37.17 147.15 40.38 144.69 C 40.91 144.61 41.96 144.47 42.49 144.39 Z" />
</g>
</svg>
