<?xml version="1.0" encoding="UTF-8" ?>
<!DOCTYPE svg PUBLIC "-//W3C//DTD SVG 1.1//EN" "http://www.w3.org/Graphics/SVG/1.1/DTD/svg11.dtd">
<svg width="210pt" height="220pt" viewBox="0 0 210 220" version="1.1" xmlns="http://www.w3.org/2000/svg">
<g id="#18181865">
<path fill="#181818" opacity="0.40" d=" M 98.04 3.22 C 100.08 3.53 102.93 2.34 104.31 4.36 C 102.41 4.40 100.52 4.40 98.63 4.39 C 97.53 12.38 97.22 20.46 96.06 28.44 C 96.89 28.48 98.56 28.56 99.39 28.60 C 99.50 27.28 99.61 25.96 99.73 24.64 C 100.65 24.51 101.58 24.39 102.51 24.27 C 102.69 25.72 102.87 27.17 103.05 28.63 C 103.77 28.58 105.22 28.48 105.95 28.43 L 105.86 27.38 C 105.96 23.82 105.65 20.28 105.26 16.75 C 105.60 14.33 106.44 12.02 107.24 9.73 C 107.25 14.34 107.37 18.96 107.41 23.57 C 107.42 24.84 107.45 26.11 107.51 27.37 C 107.05 27.95 106.13 29.09 105.68 29.67 C 104.57 29.64 103.46 29.61 102.35 29.58 C 102.04 28.16 101.73 26.75 101.43 25.33 C 100.97 26.70 100.52 28.07 100.08 29.44 C 98.41 29.50 96.74 29.47 95.08 29.31 C 96.57 20.68 96.09 11.77 98.04 3.22 Z" />
</g>
<g id="#1a1a1a71">
<path fill="#1a1a1a" opacity="0.44" d=" M 108.77 5.18 C 110.29 2.75 113.79 2.61 115.33 5.11 C 113.16 4.54 110.93 4.53 108.77 5.18 Z" />
</g>
<g id="#18181872">
<path fill="#181818" opacity="0.45" d=" M 120.65 5.20 C 122.46 2.22 126.30 3.13 128.13 5.55 C 129.76 8.51 129.34 12.01 129.27 15.25 C 128.06 16.17 126.42 15.66 125.03 15.82 C 124.98 14.43 124.93 13.05 124.88 11.67 C 125.50 12.96 125.62 16.41 127.68 14.69 C 128.72 11.34 128.94 6.10 125.07 4.40 C 123.57 4.56 122.10 4.83 120.65 5.20 Z" />
</g>
<g id="#242424ae">
<path fill="#242424" opacity="0.68" d=" M 130.36 3.48 C 132.93 3.89 136.65 2.33 138.18 5.11 C 138.49 6.48 138.12 7.88 137.12 8.87 C 137.04 7.46 136.97 6.05 136.92 4.63 C 134.99 4.68 133.06 4.73 131.13 4.79 C 131.23 12.61 130.94 20.43 131.08 28.24 C 133.08 28.26 135.09 28.26 137.09 28.27 C 137.00 27.64 136.82 26.37 136.72 25.73 C 133.75 24.74 133.47 21.99 134.01 19.28 C 134.41 19.15 135.20 18.88 135.60 18.75 C 135.20 20.49 134.96 22.26 134.81 24.03 C 135.68 24.18 137.41 24.46 138.28 24.60 C 138.23 26.21 138.02 27.80 137.66 29.37 C 135.23 29.34 132.79 29.36 130.36 29.40 C 130.14 20.77 130.11 12.12 130.36 3.48 Z" />
<path fill="#242424" opacity="0.68" d=" M 147.99 5.90 C 149.01 1.63 154.32 4.10 157.42 3.53 C 157.65 4.23 158.10 5.63 158.33 6.33 C 158.70 5.38 159.06 4.44 159.42 3.49 C 161.58 3.50 163.74 3.51 165.90 3.50 C 166.05 5.16 166.20 6.81 166.34 8.47 C 162.33 8.05 162.31 14.59 166.15 14.64 C 166.15 15.88 166.14 17.12 166.13 18.37 C 162.66 18.58 162.25 23.97 165.43 24.81 L 165.66 25.39 C 165.98 26.15 166.60 27.68 166.91 28.44 C 164.30 29.07 161.61 29.18 158.94 29.39 C 158.55 22.30 158.58 15.18 158.90 8.09 C 158.52 8.14 157.75 8.23 157.36 8.28 C 157.32 7.37 157.23 5.56 157.19 4.66 C 154.33 4.63 151.47 4.65 148.62 4.78 C 149.28 6.57 150.23 8.22 151.43 9.69 C 151.82 15.87 151.10 22.08 151.80 28.24 C 153.49 28.92 154.42 28.49 154.58 26.94 C 155.14 21.31 154.41 15.65 154.76 10.01 C 155.10 9.77 155.78 9.31 156.12 9.07 C 155.20 15.82 156.10 22.64 155.55 29.41 C 154.13 29.39 152.71 29.37 151.30 29.35 C 150.90 23.00 151.43 16.63 151.03 10.30 C 150.35 9.70 149.00 8.49 148.33 7.89 C 147.93 11.51 149.22 15.78 146.88 18.91 C 147.36 14.70 148.71 10.14 146.58 6.15 C 144.86 4.17 141.93 4.88 139.63 4.58 C 139.77 12.45 139.33 20.35 139.84 28.22 C 140.43 28.23 141.61 28.26 142.20 28.27 C 142.53 25.27 142.43 22.26 142.40 19.25 C 143.81 19.14 145.22 19.03 146.63 18.93 C 145.81 19.21 144.18 19.78 143.37 20.07 C 143.36 23.13 143.33 26.18 143.30 29.24 C 141.98 29.31 140.66 29.39 139.34 29.46 C 138.28 20.88 138.77 12.19 139.07 3.57 C 142.30 3.13 145.50 3.66 147.99 5.90 M 159.75 4.69 C 159.44 12.57 159.27 20.46 159.74 28.33 C 161.73 28.35 163.71 28.36 165.69 28.36 C 165.72 26.13 163.73 25.18 162.48 23.72 C 162.27 22.28 162.29 20.82 162.26 19.37 C 163.65 18.66 166.52 17.08 164.63 15.42 C 161.39 13.95 161.07 8.30 165.20 7.94 C 165.24 7.12 165.32 5.50 165.36 4.68 C 163.49 4.69 161.62 4.69 159.75 4.69 Z" />
<path fill="#242424" opacity="0.68" d=" M 118.41 17.09 C 118.56 13.28 117.93 9.10 120.23 5.78 C 119.51 12.44 119.03 19.26 120.06 25.92 C 120.63 28.48 123.84 28.92 125.91 28.02 C 129.14 26.70 127.58 22.51 128.09 19.82 C 127.22 19.78 125.49 19.69 124.62 19.65 C 125.87 18.09 129.65 18.52 129.30 20.92 C 128.98 23.66 129.18 27.77 125.99 28.84 C 123.96 30.15 121.80 28.72 119.78 28.17 C 118.64 24.59 118.30 20.83 118.41 17.09 Z" />
<path fill="#242424" opacity="0.68" d=" M 115.85 6.44 C 117.75 8.77 117.06 11.85 116.98 14.60 C 115.66 14.60 114.35 14.61 113.03 14.62 C 112.92 12.99 112.83 11.36 112.74 9.74 L 111.55 9.69 C 111.56 14.19 111.58 18.69 111.51 23.19 C 111.87 23.71 112.60 24.75 112.96 25.27 C 112.33 25.12 111.07 24.84 110.45 24.70 C 110.68 19.58 110.24 14.45 110.58 9.34 C 110.92 9.13 111.58 8.69 111.92 8.48 C 114.59 9.61 112.67 14.30 116.27 14.58 C 116.22 11.86 116.07 9.15 115.85 6.44 Z" />
<path fill="#242424" opacity="0.68" d=" M 73.77 8.96 C 75.02 9.67 76.33 10.30 77.51 11.14 C 77.99 12.50 77.73 13.96 77.56 15.35 C 74.56 15.36 71.57 15.41 68.57 15.48 C 68.56 18.86 69.12 22.43 67.63 25.61 C 66.15 25.36 64.67 25.10 63.22 24.72 C 64.25 24.58 66.31 24.29 67.34 24.14 C 67.41 21.20 67.44 18.25 67.43 15.31 C 70.51 14.80 73.70 14.74 76.66 13.71 C 77.93 11.67 74.78 10.43 73.77 8.96 Z" />
<path fill="#242424" opacity="0.68" d=" M 65.50 52.89 C 69.34 51.79 73.06 50.16 77.08 49.74 C 82.06 49.21 87.04 50.62 92.02 49.92 C 95.88 49.42 100.21 49.59 103.35 52.19 C 95.81 49.68 87.79 50.63 80.00 50.57 C 72.45 50.51 65.69 54.45 58.25 55.16 C 60.45 53.80 63.07 53.59 65.50 52.89 Z" />
<path fill="#242424" opacity="0.68" d=" M 40.85 74.08 L 40.85 74.08 C 39.69 78.83 36.55 82.93 36.13 87.90 C 35.57 94.32 33.29 100.52 33.50 107.01 C 33.59 111.12 33.59 115.23 33.38 119.34 C 32.03 116.07 32.85 112.43 32.59 109.00 C 32.17 102.22 34.15 95.66 35.00 89.00 C 35.60 83.59 38.10 78.68 40.85 74.08 Z" />
<path fill="#242424" opacity="0.68" d=" M 98.07 158.17 C 104.43 158.13 110.19 155.05 116.37 153.94 C 112.67 155.93 108.51 156.83 104.56 158.15 C 98.57 159.12 92.47 158.56 86.43 158.56 L 86.40 160.25 C 85.17 159.82 83.51 157.92 86.00 158.08 C 90.02 157.90 94.05 158.32 98.07 158.17 Z" />
<path fill="#242424" opacity="0.68" d=" M 87.99 167.01 C 90.13 167.60 92.18 168.55 93.71 170.20 C 85.39 177.71 79.50 187.83 76.20 198.48 C 82.19 193.29 90.49 193.61 97.63 191.12 C 97.11 184.65 95.45 178.37 94.13 172.04 C 94.64 171.21 95.16 170.38 95.68 169.55 C 96.71 169.74 98.77 170.13 99.80 170.32 C 98.68 169.26 97.57 168.19 96.43 167.15 C 102.97 170.48 110.41 172.14 116.16 176.91 C 119.86 179.94 121.48 184.64 122.96 189.02 C 121.79 188.39 120.63 187.74 119.47 187.10 C 119.57 188.86 119.64 190.64 119.68 192.41 C 118.78 191.27 117.96 190.07 117.16 188.87 C 117.22 190.73 117.24 192.59 117.25 194.46 L 115.94 194.41 C 115.85 192.65 115.77 190.90 115.68 189.15 C 110.47 189.99 105.55 192.01 100.36 192.96 C 100.14 200.34 102.18 207.76 100.79 215.10 C 99.86 214.35 99.42 213.28 99.49 212.10 C 99.13 205.89 98.60 199.69 98.11 193.49 C 105.27 189.60 114.06 190.22 120.79 185.46 C 120.48 184.68 120.19 183.90 119.89 183.12 C 117.46 183.76 115.01 184.33 112.58 184.95 C 114.50 184.07 116.39 183.13 118.29 182.21 C 112.64 175.34 103.86 172.65 95.57 170.53 C 96.96 177.27 98.36 184.00 99.84 190.71 C 100.37 190.53 101.42 190.18 101.95 190.00 C 98.17 191.68 94.22 192.91 90.28 194.19 C 89.99 194.52 89.40 195.19 89.10 195.52 C 88.71 195.48 87.93 195.40 87.54 195.36 C 85.10 194.94 82.66 195.39 80.30 195.99 C 79.93 196.58 79.19 197.75 78.82 198.33 L 78.35 199.02 C 77.68 199.01 76.34 198.98 75.67 198.97 C 76.07 201.58 76.56 204.16 77.12 206.74 C 77.17 207.00 77.26 207.52 77.31 207.78 L 77.11 208.36 C 76.74 208.48 76.01 208.73 75.65 208.85 C 76.33 203.73 73.20 198.53 75.63 193.62 C 77.77 188.63 80.47 183.89 83.20 179.21 C 85.35 175.34 90.15 173.51 91.20 168.97 C 90.13 168.31 89.06 167.66 87.99 167.01 Z" />
<path fill="#242424" opacity="0.68" d=" M 80.68 199.57 C 81.00 200.07 81.64 201.08 81.95 201.59 L 82.00 201.67 C 80.99 203.42 80.22 205.28 79.48 207.16 C 79.25 206.32 78.79 204.65 78.56 203.82 C 77.95 202.00 79.80 200.86 80.68 199.57 Z" />
</g>
<g id="#828282ff">
<path fill="#828282" opacity="1.00" d=" M 167.48 25.39 C 167.54 18.13 167.22 10.84 167.77 3.60 C 167.94 10.74 167.87 17.89 167.70 25.03 C 167.07 26.65 168.41 28.05 169.87 28.33 C 171.93 28.69 174.03 28.81 176.11 28.55 C 173.54 29.05 170.94 29.42 168.32 29.50 C 165.21 29.50 162.05 30.05 158.94 29.39 C 161.61 29.18 164.30 29.07 166.91 28.44 C 166.60 27.68 165.98 26.15 165.66 25.39 L 167.48 25.39 Z" />
<path fill="#828282" opacity="1.00" d=" M 108.87 62.88 C 109.30 62.79 110.15 62.62 110.58 62.53 C 111.51 63.13 112.36 63.83 113.13 64.65 C 111.58 64.72 109.38 64.71 108.87 62.88 Z" />
<path fill="#828282" opacity="1.00" d=" M 119.30 110.85 C 123.47 111.88 123.38 117.68 121.86 120.87 C 119.25 126.12 114.01 132.58 107.40 130.31 C 110.68 128.43 115.02 128.56 117.28 125.06 C 120.67 121.16 121.47 115.54 119.30 110.85 Z" />
<path fill="#828282" opacity="1.00" d=" M 43.33 137.52 C 44.67 138.16 45.42 139.49 45.41 140.96 C 43.99 140.51 42.61 139.10 43.33 137.52 Z" />
</g>
<g id="#020202ff">
<path fill="#020202" opacity="1.00" d=" M 167.77 3.60 C 170.97 3.60 175.91 3.67 176.80 7.54 C 176.76 13.95 176.79 20.35 176.78 26.75 C 176.61 27.20 176.28 28.10 176.11 28.55 C 174.03 28.81 171.93 28.69 169.87 28.33 C 168.41 28.05 167.07 26.65 167.70 25.03 C 167.87 17.89 167.94 10.74 167.77 3.60 M 171.41 9.33 C 171.29 14.50 171.45 19.66 171.38 24.82 C 171.86 24.67 172.82 24.35 173.30 24.19 C 173.42 19.20 173.37 14.21 173.33 9.22 C 172.85 9.24 171.89 9.30 171.41 9.33 Z" />
<path fill="#020202" opacity="1.00" d=" M 108.77 5.18 C 110.93 4.53 113.16 4.54 115.33 5.11 L 115.73 5.18 C 115.76 5.49 115.82 6.13 115.85 6.44 C 116.07 9.15 116.22 11.86 116.27 14.58 C 112.67 14.30 114.59 9.61 111.92 8.48 C 111.58 8.69 110.92 9.13 110.58 9.34 C 110.24 14.45 110.68 19.58 110.45 24.70 C 111.07 24.84 112.33 25.12 112.96 25.27 C 113.02 23.28 113.07 21.29 113.12 19.30 C 114.13 19.32 116.13 19.35 117.14 19.36 L 116.95 20.30 C 116.47 22.63 116.08 24.98 115.74 27.33 C 113.63 27.95 111.40 28.84 109.22 28.02 C 108.43 26.62 107.90 25.10 107.41 23.57 C 107.37 18.96 107.25 14.34 107.24 9.73 C 107.29 9.33 107.37 8.52 107.42 8.12 C 107.64 7.65 108.08 6.72 108.30 6.25 L 108.12 5.32 L 108.77 5.18 Z" />
<path fill="#020202" opacity="1.00" d=" M 120.29 5.28 L 120.65 5.20 C 122.10 4.83 123.57 4.56 125.07 4.40 C 128.94 6.10 128.72 11.34 127.68 14.69 C 125.62 16.41 125.50 12.96 124.88 11.67 C 124.83 11.09 124.72 9.94 124.67 9.36 L 124.89 8.20 C 124.36 8.54 123.29 9.22 122.76 9.56 C 122.41 14.60 122.30 19.74 122.86 24.77 C 123.41 25.00 124.51 25.45 125.05 25.68 C 125.01 25.18 124.93 24.18 124.88 23.68 C 124.82 22.67 124.69 20.65 124.62 19.65 C 125.49 19.69 127.22 19.78 128.09 19.82 C 127.58 22.51 129.14 26.70 125.91 28.02 C 123.84 28.92 120.63 28.48 120.06 25.92 C 119.03 19.26 119.51 12.44 120.23 5.78 L 120.29 5.28 Z" />
<path fill="#020202" opacity="1.00" d=" M 29.80 9.01 C 34.46 8.92 39.16 8.87 43.76 9.77 L 44.99 9.99 C 42.65 12.84 38.48 11.44 35.31 11.87 C 35.38 12.49 35.50 13.75 35.56 14.37 C 38.76 14.94 42.33 15.17 45.05 13.08 C 48.80 11.48 54.08 10.46 56.99 14.09 C 57.98 16.58 57.34 19.38 57.40 22.00 C 56.55 22.10 54.85 22.30 54.00 22.40 C 53.26 21.35 52.50 20.31 51.74 19.27 C 51.60 19.60 51.34 20.25 51.21 20.58 L 50.93 21.37 C 50.47 22.75 50.04 24.14 49.63 25.53 C 44.83 26.09 44.17 20.78 43.25 17.32 C 41.11 17.28 38.98 17.24 36.84 17.37 C 37.09 18.43 37.37 19.47 37.68 20.51 L 37.98 21.63 C 37.76 22.64 37.53 23.65 37.30 24.65 C 36.37 24.47 34.51 24.09 33.58 23.90 C 32.99 22.89 32.53 21.81 32.21 20.69 C 31.33 16.81 30.45 12.93 29.80 9.01 Z" />
<path fill="#020202" opacity="1.00" d=" M 106.38 92.37 C 106.91 92.38 107.98 92.41 108.52 92.42 C 108.51 92.97 108.50 94.07 108.50 94.62 C 107.96 94.61 106.88 94.59 106.34 94.57 C 106.35 94.02 106.37 92.92 106.38 92.37 Z" />
</g>
<g id="#030303ff">
<path fill="#030303" opacity="1.00" d=" M 98.63 4.39 C 100.52 4.40 102.41 4.40 104.31 4.36 L 104.19 5.61 C 103.73 12.89 104.87 20.18 105.86 27.38 L 105.95 28.43 C 105.22 28.48 103.77 28.58 103.05 28.63 C 102.87 27.17 102.69 25.72 102.51 24.27 C 101.58 24.39 100.65 24.51 99.73 24.64 C 99.61 25.96 99.50 27.28 99.39 28.60 C 98.56 28.56 96.89 28.48 96.06 28.44 C 97.22 20.46 97.53 12.38 98.63 4.39 M 99.62 20.55 C 100.33 20.92 101.04 21.30 101.76 21.67 C 102.36 17.66 101.94 13.59 101.23 9.63 C 100.20 13.18 100.44 16.95 99.62 20.55 Z" />
<path fill="#030303" opacity="1.00" d=" M 62.20 11.53 C 62.90 10.51 63.69 9.56 64.43 8.56 C 67.49 8.49 70.56 8.49 73.60 8.82 L 73.77 8.96 C 74.78 10.43 77.93 11.67 76.66 13.71 C 73.70 14.74 70.51 14.80 67.43 15.31 C 67.44 18.25 67.41 21.20 67.34 24.14 C 66.31 24.29 64.25 24.58 63.22 24.72 C 63.22 24.29 63.24 23.44 63.24 23.01 C 62.99 22.55 62.48 21.62 62.22 21.16 L 62.01 20.62 C 61.93 17.59 61.94 14.55 62.20 11.53 M 69.12 10.52 C 67.38 11.54 69.48 13.77 70.86 12.69 C 72.50 11.67 70.49 9.43 69.12 10.52 Z" />
</g>
<g id="#000000ff">
<path fill="#000000" opacity="1.00" d=" M 131.13 4.79 C 133.06 4.73 134.99 4.68 136.92 4.63 C 136.97 6.05 137.04 7.46 137.12 8.87 C 136.63 8.88 135.65 8.89 135.16 8.89 L 133.79 8.95 C 133.75 10.58 133.70 12.23 133.94 13.85 C 135.02 14.35 136.11 14.81 137.22 15.22 C 137.22 15.98 137.22 17.51 137.22 18.27 C 136.81 18.39 136.01 18.63 135.60 18.75 C 135.20 18.88 134.41 19.15 134.01 19.28 C 133.47 21.99 133.75 24.74 136.72 25.73 C 136.82 26.37 137.00 27.64 137.09 28.27 C 135.09 28.26 133.08 28.26 131.08 28.24 C 130.94 20.43 131.23 12.61 131.13 4.79 Z" />
<path fill="#000000" opacity="1.00" d=" M 148.62 4.78 C 151.47 4.65 154.33 4.63 157.19 4.66 C 157.23 5.56 157.32 7.37 157.36 8.28 C 157.05 8.48 156.43 8.87 156.12 9.07 C 155.78 9.31 155.10 9.77 154.76 10.01 C 154.41 15.65 155.14 21.31 154.58 26.94 C 154.42 28.49 153.49 28.92 151.80 28.24 C 151.10 22.08 151.82 15.87 151.43 9.69 C 150.23 8.22 149.28 6.57 148.62 4.78 Z" />
<path fill="#000000" opacity="1.00" d=" M 67.07 60.06 C 70.21 58.43 74.47 57.24 77.50 59.68 C 77.41 60.19 77.23 61.21 77.14 61.73 C 76.98 61.41 76.64 60.78 76.48 60.46 C 73.89 60.54 71.21 60.53 68.88 61.83 C 65.40 63.47 63.97 67.28 62.28 70.46 C 61.69 70.50 60.52 70.58 59.94 70.62 C 61.18 66.49 63.11 62.24 67.07 60.06 Z" />
</g>
<g id="#010101ff">
<path fill="#010101" opacity="1.00" d=" M 139.63 4.58 C 141.93 4.88 144.86 4.17 146.58 6.15 C 148.71 10.14 147.36 14.70 146.88 18.91 L 146.63 18.93 C 145.22 19.03 143.81 19.14 142.40 19.25 C 142.43 22.26 142.53 25.27 142.20 28.27 C 141.61 28.26 140.43 28.23 139.84 28.22 C 139.33 20.35 139.77 12.45 139.63 4.58 M 142.68 8.86 C 142.70 10.63 142.73 12.40 142.77 14.18 C 143.28 14.33 144.28 14.64 144.78 14.80 C 144.91 12.68 144.94 10.55 144.79 8.43 C 144.27 8.53 143.21 8.75 142.68 8.86 Z" />
<path fill="#010101" opacity="1.00" d=" M 159.75 4.69 C 161.62 4.69 163.49 4.69 165.36 4.68 C 165.32 5.50 165.24 7.12 165.20 7.94 C 161.07 8.30 161.39 13.95 164.63 15.42 C 166.52 17.08 163.65 18.66 162.26 19.37 C 162.29 20.82 162.27 22.28 162.48 23.72 C 163.73 25.18 165.72 26.13 165.69 28.36 C 163.71 28.36 161.73 28.35 159.74 28.33 C 159.27 20.46 159.44 12.57 159.75 4.69 Z" />
</g>
<g id="#22222296">
<path fill="#222222" opacity="0.59" d=" M 104.19 5.61 C 104.85 9.29 104.92 13.03 105.26 16.75 C 105.65 20.28 105.96 23.82 105.86 27.38 C 104.87 20.18 103.73 12.89 104.19 5.61 Z" />
</g>
<g id="#25252549">
<path fill="#252525" opacity="0.29" d=" M 107.41 6.40 L 108.30 6.25 C 108.08 6.72 107.64 7.65 107.42 8.12 C 107.42 7.69 107.42 6.83 107.41 6.40 Z" />
</g>
<g id="#19191985">
<path fill="#191919" opacity="0.52" d=" M 64.43 8.56 C 67.17 7.05 71.07 6.80 73.60 8.82 C 70.56 8.49 67.49 8.49 64.43 8.56 Z" />
</g>
<g id="#1d1d1d6f">
<path fill="#1d1d1d" opacity="0.44" d=" M 29.04 8.04 C 33.95 7.74 39.25 7.50 43.76 9.77 C 39.16 8.87 34.46 8.92 29.80 9.01 C 30.45 12.93 31.33 16.81 32.21 20.69 C 30.03 16.88 29.21 12.38 29.04 8.04 Z" />
</g>
<g id="#bebebeff">
<path fill="#bebebe" opacity="1.00" d=" M 142.68 8.86 C 143.21 8.75 144.27 8.53 144.79 8.43 C 144.94 10.55 144.91 12.68 144.78 14.80 C 144.28 14.64 143.28 14.33 142.77 14.18 C 142.73 12.40 142.70 10.63 142.68 8.86 Z" />
<path fill="#bebebe" opacity="1.00" d=" M 99.62 20.55 C 100.44 16.95 100.20 13.18 101.23 9.63 C 101.94 13.59 102.36 17.66 101.76 21.67 C 101.04 21.30 100.33 20.92 99.62 20.55 Z" />
<path fill="#bebebe" opacity="1.00" d=" M 142.50 90.01 C 142.65 100.01 142.58 110.01 142.53 120.00 C 142.32 110.01 142.40 100.01 142.50 90.01 Z" />
</g>
<g id="#2c2c2c43">
<path fill="#2c2c2c" opacity="0.26" d=" M 176.80 7.54 C 178.97 10.55 177.69 14.54 178.04 17.99 C 177.68 20.85 178.99 24.46 176.78 26.75 C 176.79 20.35 176.76 13.95 176.80 7.54 Z" />
</g>
<g id="#14141482">
<path fill="#141414" opacity="0.51" d=" M 122.76 9.56 C 123.29 9.22 124.36 8.54 124.89 8.20 L 124.67 9.36 C 122.77 13.76 122.66 19.38 124.88 23.68 C 124.93 24.18 125.01 25.18 125.05 25.68 C 124.51 25.45 123.41 25.00 122.86 24.77 C 122.30 19.74 122.41 14.60 122.76 9.56 Z" />
</g>
<g id="#1c1c1cb1">
<path fill="#1c1c1c" opacity="0.69" d=" M 133.79 8.95 L 135.16 8.89 C 134.68 11.37 134.79 13.85 137.22 15.22 C 136.11 14.81 135.02 14.35 133.94 13.85 C 133.70 12.23 133.75 10.58 133.79 8.95 Z" />
</g>
<g id="#cdcdcdff">
<path fill="#cdcdcd" opacity="1.00" d=" M 171.41 9.33 C 171.89 9.30 172.85 9.24 173.33 9.22 C 173.37 14.21 173.42 19.20 173.30 24.19 C 172.82 24.35 171.86 24.67 171.38 24.82 C 171.45 19.66 171.29 14.50 171.41 9.33 Z" />
<path fill="#cdcdcd" opacity="1.00" d=" M 87.54 195.36 C 87.93 195.40 88.71 195.48 89.10 195.52 L 87.46 197.28 C 87.83 197.49 88.59 197.93 88.96 198.15 C 88.57 198.24 87.79 198.42 87.39 198.50 C 86.18 198.20 84.98 197.90 83.77 197.59 C 85.02 196.84 86.28 196.10 87.54 195.36 Z" />
</g>
<g id="#e4e4e4ff">
<path fill="#e4e4e4" opacity="1.00" d=" M 69.12 10.52 C 70.49 9.43 72.50 11.67 70.86 12.69 C 69.48 13.77 67.38 11.54 69.12 10.52 Z" />
<path fill="#e4e4e4" opacity="1.00" d=" M 103.85 125.26 C 108.39 126.52 112.88 123.63 117.28 125.06 C 115.02 128.56 110.68 128.43 107.40 130.31 L 107.30 130.36 C 106.07 128.72 104.94 127.01 103.85 125.26 Z" />
</g>
<g id="#3b3b3bff">
<path fill="#3b3b3b" opacity="1.00" d=" M 45.05 13.08 C 48.78 10.21 54.07 10.77 57.69 13.52 C 57.72 16.52 57.72 19.53 57.65 22.53 C 55.29 22.66 52.73 22.75 51.21 20.58 C 51.34 20.25 51.60 19.60 51.74 19.27 C 52.50 20.31 53.26 21.35 54.00 22.40 C 54.85 22.30 56.55 22.10 57.40 22.00 C 57.34 19.38 57.98 16.58 56.99 14.09 C 54.08 10.46 48.80 11.48 45.05 13.08 Z" />
<path fill="#3b3b3b" opacity="1.00" d=" M 67.55 72.77 C 69.27 69.85 71.63 67.41 74.10 65.13 C 74.75 66.23 75.70 66.82 76.97 66.90 C 80.59 67.53 84.18 68.74 87.15 70.95 C 87.65 72.18 87.12 73.50 87.00 74.75 C 86.56 74.03 85.67 72.57 85.22 71.85 C 84.67 73.86 84.86 76.66 82.51 77.60 C 78.83 80.40 74.04 79.25 70.04 77.88 C 69.41 76.68 68.87 75.43 68.28 74.21 L 67.55 72.77 M 74.05 68.91 C 71.01 69.32 68.54 72.76 70.62 75.53 C 72.30 78.18 75.67 75.94 78.09 76.95 C 81.55 78.34 83.42 73.82 82.85 71.13 C 80.64 68.85 77.08 67.99 74.05 68.91 Z" />
<path fill="#3b3b3b" opacity="1.00" d=" M 99.79 75.02 C 102.74 74.34 106.05 74.60 108.28 76.85 C 105.39 76.56 102.49 76.12 99.79 75.02 Z" />
<path fill="#3b3b3b" opacity="1.00" d=" M 83.34 84.77 C 83.92 82.35 85.00 80.11 86.30 78.00 C 86.35 79.16 86.40 80.32 86.43 81.49 C 85.42 82.59 84.39 83.69 83.34 84.77 Z" />
<path fill="#3b3b3b" opacity="1.00" d=" M 112.67 78.55 C 114.52 78.43 116.38 78.52 118.24 78.66 C 118.18 80.09 118.12 81.51 118.06 82.94 C 117.45 81.76 116.82 80.60 116.20 79.44 C 115.00 79.20 113.79 79.04 112.67 78.55 Z" />
<path fill="#3b3b3b" opacity="1.00" d=" M 121.61 101.30 C 121.85 101.29 122.33 101.29 122.58 101.28 C 122.57 103.17 122.35 105.10 120.41 105.94 C 120.46 104.31 120.93 102.76 121.61 101.30 Z" />
<path fill="#3b3b3b" opacity="1.00" d=" M 128.40 111.80 C 131.78 116.27 128.04 122.54 123.13 123.83 C 124.32 121.51 126.57 120.04 128.43 118.30 C 128.33 116.13 128.28 113.96 128.40 111.80 Z" />
</g>
<g id="#1a1a1a4c">
<path fill="#1a1a1a" opacity="0.30" d=" M 62.01 20.62 C 60.51 18.05 60.14 13.87 62.20 11.53 C 61.94 14.55 61.93 17.59 62.01 20.62 Z" />
</g>
<g id="#1a1a1a8f">
<path fill="#1a1a1a" opacity="0.56" d=" M 36.84 17.37 C 38.98 17.24 41.11 17.28 43.25 17.32 C 44.17 20.78 44.83 26.09 49.63 25.53 C 50.04 24.14 50.47 22.75 50.93 21.37 C 50.94 23.11 50.71 24.83 50.34 26.53 C 49.04 26.47 47.74 26.47 46.45 26.28 C 43.81 24.52 43.09 21.18 42.59 18.25 C 41.11 18.13 39.62 18.01 38.14 17.89 C 38.02 18.55 37.80 19.86 37.68 20.51 C 37.37 19.47 37.09 18.43 36.84 17.37 Z" />
</g>
<g id="#19191999">
<path fill="#191919" opacity="0.60" d=" M 37.98 21.63 L 38.29 20.38 C 38.53 21.32 39.00 23.18 39.23 24.12 C 37.45 25.44 34.96 26.32 33.58 23.90 C 34.51 24.09 36.37 24.47 37.30 24.65 C 37.53 23.65 37.76 22.64 37.98 21.63 Z" />
</g>
<g id="#28282888">
<path fill="#282828" opacity="0.53" d=" M 62.22 21.16 C 62.48 21.62 62.99 22.55 63.24 23.01 L 62.33 22.91 L 61.81 21.96 L 62.22 21.16 Z" />
</g>
<g id="#1b1b1b8a">
<path fill="#1b1b1b" opacity="0.54" d=" M 115.74 27.33 C 116.08 24.98 116.47 22.63 116.95 20.30 C 117.14 23.01 117.54 26.49 115.39 28.54 C 113.00 29.18 108.83 29.85 107.51 27.37 C 107.45 26.11 107.42 24.84 107.41 23.57 C 107.90 25.10 108.43 26.62 109.22 28.02 C 111.40 28.84 113.63 27.95 115.74 27.33 Z" />
</g>
<g id="#040404ff">
<path fill="#040404" opacity="1.00" d=" M 58.25 55.16 C 65.69 54.45 72.45 50.51 80.00 50.57 C 87.79 50.63 95.81 49.68 103.35 52.19 C 105.63 53.03 107.84 54.11 109.84 55.50 C 111.03 56.44 112.43 57.08 113.96 57.19 C 116.24 57.43 118.23 58.83 119.72 60.50 C 120.57 61.59 121.57 62.56 122.87 63.08 C 123.91 63.39 124.54 64.06 124.78 65.09 C 125.02 66.10 125.62 66.83 126.59 67.28 C 128.03 68.33 128.69 70.11 129.52 71.64 C 130.79 74.71 132.71 77.43 134.95 79.86 C 137.36 83.03 139.60 86.36 141.46 89.89 C 141.91 93.23 141.62 96.62 141.67 99.99 C 141.53 110.33 142.35 120.81 140.07 130.99 C 139.73 132.03 139.26 133.02 138.68 133.95 C 137.89 135.16 137.11 136.44 136.89 137.90 L 136.67 138.85 C 135.29 139.27 134.51 140.52 133.85 141.70 C 132.49 143.78 130.16 144.96 127.99 145.99 C 126.44 146.57 125.03 147.48 124.00 148.79 C 121.95 151.11 119.42 153.16 116.37 153.94 C 110.19 155.05 104.43 158.13 98.07 158.17 C 94.05 158.32 90.02 157.90 86.00 158.08 C 83.51 157.92 85.17 159.82 86.40 160.25 C 87.87 161.21 89.43 162.09 90.69 163.34 C 91.29 164.17 92.08 164.72 93.07 164.98 C 93.68 165.33 94.89 166.01 95.50 166.36 C 95.54 166.39 95.62 166.45 95.67 166.48 L 96.43 167.15 C 97.57 168.19 98.68 169.26 99.80 170.32 C 98.77 170.13 96.71 169.74 95.68 169.55 C 95.16 170.38 94.64 171.21 94.13 172.04 L 93.71 170.20 C 92.18 168.55 90.13 167.60 87.99 167.01 L 87.71 166.91 C 83.12 166.35 81.64 161.95 80.48 158.15 C 76.29 157.98 72.10 158.19 67.91 157.96 C 63.62 157.71 59.55 156.18 55.50 154.85 C 55.22 154.76 54.65 154.56 54.37 154.47 L 54.21 153.87 C 53.97 152.89 53.37 152.17 52.43 151.71 C 50.71 149.90 49.00 148.07 47.48 146.09 C 47.15 145.11 46.81 144.14 46.48 143.17 L 47.33 144.82 C 47.59 144.15 48.10 142.80 48.35 142.12 C 48.18 142.98 47.84 144.69 47.67 145.54 C 48.94 145.64 51.60 144.34 52.39 146.21 C 52.43 147.20 52.15 148.18 52.06 149.17 C 55.39 150.82 58.40 153.20 62.03 154.19 C 73.25 156.16 84.68 155.11 96.00 155.38 C 105.16 155.86 114.72 152.98 121.55 146.75 C 125.63 143.90 130.38 141.80 133.37 137.64 C 138.45 130.51 138.41 121.34 138.68 112.95 C 138.37 105.64 139.16 98.26 138.30 90.99 C 136.08 86.39 132.68 82.49 129.93 78.20 C 127.36 74.62 125.60 70.53 122.90 67.06 C 120.09 63.86 116.46 61.45 112.63 59.65 C 108.63 58.35 104.94 56.32 101.14 54.53 C 97.66 52.86 93.70 53.30 89.96 53.21 C 83.25 53.42 76.24 52.38 69.88 55.11 C 65.93 56.86 60.87 56.39 57.87 59.91 C 54.15 63.53 49.24 65.96 46.41 70.44 C 44.29 73.89 42.82 77.69 40.95 81.28 C 38.37 86.13 38.57 91.77 37.37 97.01 C 35.45 104.78 36.71 112.84 36.29 120.74 C 36.08 121.71 35.66 123.64 35.45 124.60 C 34.50 122.97 33.35 121.31 33.38 119.34 C 33.59 115.23 33.59 111.12 33.50 107.01 C 33.29 100.52 35.57 94.32 36.13 87.90 C 36.55 82.93 39.69 78.83 40.85 74.08 L 41.28 73.09 C 42.56 70.95 43.74 68.75 45.20 66.73 C 49.27 62.57 54.08 59.20 58.25 55.16 Z" />
<path fill="#040404" opacity="1.00" d=" M 112.58 184.95 C 115.01 184.33 117.46 183.76 119.89 183.12 C 120.19 183.90 120.48 184.68 120.79 185.46 C 114.06 190.22 105.27 189.60 98.11 193.49 C 96.34 194.27 94.64 195.22 92.81 195.85 C 91.58 196.17 90.35 196.68 89.59 197.76 L 88.96 198.15 C 88.59 197.93 87.83 197.49 87.46 197.28 L 89.10 195.52 C 89.40 195.19 89.99 194.52 90.28 194.19 C 94.22 192.91 98.17 191.68 101.95 190.00 C 102.44 189.81 103.43 189.42 103.93 189.22 C 105.75 189.49 107.52 188.61 108.20 186.87 C 109.66 186.21 111.11 185.56 112.58 184.95 Z" />
</g>
<g id="#fbfbfbff">
<path fill="#fbfbfb" opacity="1.00" d=" M 69.88 55.11 C 76.24 52.38 83.25 53.42 89.96 53.21 C 93.70 53.30 97.66 52.86 101.14 54.53 C 104.94 56.32 108.63 58.35 112.63 59.65 C 111.97 60.62 111.28 61.58 110.58 62.53 C 110.15 62.62 109.30 62.79 108.87 62.88 C 109.38 64.71 111.58 64.72 113.13 64.65 C 118.14 66.90 120.63 72.04 123.57 76.35 C 127.11 82.33 131.51 88.02 133.22 94.88 C 135.51 104.02 136.18 113.54 135.40 122.93 C 134.73 127.84 132.81 132.60 133.37 137.64 C 130.38 141.80 125.63 143.90 121.55 146.75 C 114.72 152.98 105.16 155.86 96.00 155.38 C 84.68 155.11 73.25 156.16 62.03 154.19 C 58.40 153.20 55.39 150.82 52.06 149.17 C 52.15 148.18 52.43 147.20 52.39 146.21 C 51.60 144.34 48.94 145.64 47.67 145.54 C 47.84 144.69 48.18 142.98 48.35 142.12 C 48.10 142.80 47.59 144.15 47.33 144.82 L 46.48 143.17 C 46.21 142.62 45.67 141.51 45.41 140.96 C 45.42 139.49 44.67 138.16 43.33 137.52 C 39.87 132.50 37.41 126.74 36.29 120.74 C 36.71 112.84 35.45 104.78 37.37 97.01 C 38.57 91.77 38.37 86.13 40.95 81.28 C 42.82 77.69 44.29 73.89 46.41 70.44 C 49.24 65.96 54.15 63.53 57.87 59.91 C 60.87 56.39 65.93 56.86 69.88 55.11 M 82.97 59.49 C 82.55 59.10 81.72 58.32 81.31 57.93 C 81.41 58.50 81.62 59.65 81.72 60.22 C 83.14 60.70 84.50 61.49 86.03 61.55 C 88.02 60.64 89.89 59.44 91.97 58.73 C 95.33 58.20 98.77 58.59 102.10 57.86 C 99.70 56.23 96.79 56.39 94.03 56.56 C 90.12 56.58 86.82 59.11 82.97 59.49 M 67.07 60.06 C 63.11 62.24 61.18 66.49 59.94 70.62 C 60.52 70.58 61.69 70.50 62.28 70.46 C 63.97 67.28 65.40 63.47 68.88 61.83 C 71.21 60.53 73.89 60.54 76.48 60.46 C 76.64 60.78 76.98 61.41 77.14 61.73 C 77.23 61.21 77.41 60.19 77.50 59.68 C 74.47 57.24 70.21 58.43 67.07 60.06 M 89.74 62.95 C 89.76 63.21 89.80 63.71 89.81 63.97 C 91.34 66.77 93.40 69.22 95.59 71.52 C 94.96 71.61 93.71 71.80 93.09 71.89 C 91.94 74.72 97.03 75.84 95.54 72.14 C 97.99 72.71 100.51 73.72 103.05 73.04 C 106.54 72.49 109.98 69.54 109.70 65.77 C 106.51 61.77 100.34 59.70 95.94 62.90 C 94.64 63.52 93.74 65.78 92.09 64.89 C 91.46 63.72 91.20 62.46 91.30 61.11 C 90.78 61.72 90.26 62.34 89.74 62.95 M 77.17 64.68 C 75.99 66.11 78.65 67.39 79.47 66.01 C 80.43 64.59 78.03 63.54 77.17 64.68 M 67.55 72.77 L 68.28 74.21 C 67.91 75.71 68.61 79.28 65.46 77.28 C 65.40 76.53 65.29 75.03 65.23 74.28 C 64.87 74.40 64.16 74.65 63.80 74.77 C 63.60 76.21 63.40 77.64 63.22 79.09 C 65.92 78.95 68.47 79.79 70.91 80.86 C 70.63 79.86 70.34 78.87 70.04 77.88 C 74.04 79.25 78.83 80.40 82.51 77.60 C 84.86 76.66 84.67 73.86 85.22 71.85 C 85.67 72.57 86.56 74.03 87.00 74.75 C 87.12 73.50 87.65 72.18 87.15 70.95 C 84.18 68.74 80.59 67.53 76.97 66.90 C 75.70 66.82 74.75 66.23 74.10 65.13 C 71.63 67.41 69.27 69.85 67.55 72.77 M 99.79 75.02 C 102.49 76.12 105.39 76.56 108.28 76.85 C 106.05 74.60 102.74 74.34 99.79 75.02 M 83.34 84.77 C 84.39 83.69 85.42 82.59 86.43 81.49 C 86.40 80.32 86.35 79.16 86.30 78.00 C 85.00 80.11 83.92 82.35 83.34 84.77 M 112.67 78.55 C 113.79 79.04 115.00 79.20 116.20 79.44 C 116.82 80.60 117.45 81.76 118.06 82.94 C 118.12 81.51 118.18 80.09 118.24 78.66 C 116.38 78.52 114.52 78.43 112.67 78.55 M 103.89 81.99 C 100.54 82.91 96.74 83.52 94.33 86.27 C 92.06 88.98 90.27 92.05 88.24 94.94 C 88.34 95.73 88.53 97.31 88.63 98.09 C 90.63 96.11 91.53 93.25 93.78 91.49 C 96.27 91.40 98.77 91.38 101.27 91.45 C 101.37 92.38 101.57 94.26 101.66 95.19 C 102.77 94.27 103.11 92.90 103.42 91.56 C 105.22 91.60 106.67 89.83 108.33 89.22 C 109.47 90.74 110.59 92.27 111.78 93.75 C 111.35 93.05 110.92 92.36 110.49 91.67 C 110.59 91.11 110.79 90.00 110.89 89.45 L 108.72 89.58 C 109.97 88.25 111.51 87.39 113.35 87.02 C 114.19 88.89 115.08 90.73 115.95 92.59 C 116.55 92.08 117.16 91.57 117.77 91.07 C 115.31 88.54 115.56 84.76 114.54 81.60 C 111.00 81.20 107.37 81.05 103.89 81.99 M 106.38 92.37 C 106.37 92.92 106.35 94.02 106.34 94.57 C 106.88 94.59 107.96 94.61 108.50 94.62 C 108.50 94.07 108.51 92.97 108.52 92.42 C 107.98 92.41 106.91 92.38 106.38 92.37 M 85.39 98.20 C 85.55 98.62 85.87 99.46 86.03 99.88 C 86.66 101.91 87.48 104.68 90.00 104.91 C 91.83 105.18 92.94 103.77 94.07 102.63 C 92.43 102.59 90.73 102.95 89.13 102.48 C 87.78 101.15 86.59 99.67 85.39 98.20 M 121.61 101.30 C 120.93 102.76 120.46 104.31 120.41 105.94 C 122.35 105.10 122.57 103.17 122.58 101.28 C 122.33 101.29 121.85 101.29 121.61 101.30 M 123.49 109.19 C 122.77 110.82 126.59 112.08 126.98 110.32 C 126.55 108.99 124.61 108.40 123.49 109.19 M 119.30 110.85 C 121.47 115.54 120.67 121.16 117.28 125.06 C 112.88 123.63 108.39 126.52 103.85 125.26 C 104.94 127.01 106.07 128.72 107.30 130.36 L 107.40 130.31 C 114.01 132.58 119.25 126.12 121.86 120.87 C 123.38 117.68 123.47 111.88 119.30 110.85 M 128.40 111.80 C 128.28 113.96 128.33 116.13 128.43 118.30 C 126.57 120.04 124.32 121.51 123.13 123.83 C 128.04 122.54 131.78 116.27 128.40 111.80 Z" />
</g>
<g id="#1d1d1d9c">
<path fill="#1d1d1d" opacity="0.61" d=" M 109.84 55.50 C 111.09 54.44 114.36 55.34 113.96 57.19 C 112.43 57.08 111.03 56.44 109.84 55.50 Z" />
</g>
<g id="#222222ff">
<path fill="#222222" opacity="1.00" d=" M 82.97 59.49 C 86.82 59.11 90.12 56.58 94.03 56.56 C 96.79 56.39 99.70 56.23 102.10 57.86 C 98.77 58.59 95.33 58.20 91.97 58.73 C 89.89 59.44 88.02 60.64 86.03 61.55 C 84.50 61.49 83.14 60.70 81.72 60.22 C 81.62 59.65 81.41 58.50 81.31 57.93 C 81.72 58.32 82.55 59.10 82.97 59.49 Z" />
</g>
<g id="#dcdcdcff">
<path fill="#dcdcdc" opacity="1.00" d=" M 112.63 59.65 C 116.46 61.45 120.09 63.86 122.90 67.06 C 125.60 70.53 127.36 74.62 129.93 78.20 C 132.68 82.49 136.08 86.39 138.30 90.99 C 139.16 98.26 138.37 105.64 138.68 112.95 C 138.41 121.34 138.45 130.51 133.37 137.64 C 132.81 132.60 134.73 127.84 135.40 122.93 C 136.18 113.54 135.51 104.02 133.22 94.88 C 131.51 88.02 127.11 82.33 123.57 76.35 C 120.63 72.04 118.14 66.90 113.13 64.65 C 112.36 63.83 111.51 63.13 110.58 62.53 C 111.28 61.58 111.97 60.62 112.63 59.65 Z" />
</g>
<g id="#1616167e">
<path fill="#161616" opacity="0.49" d=" M 119.72 60.50 C 121.17 59.35 123.96 61.45 122.87 63.08 C 121.57 62.56 120.57 61.59 119.72 60.50 Z" />
<path fill="#161616" opacity="0.49" d=" M 55.50 154.85 C 59.55 156.18 63.62 157.71 67.91 157.96 C 72.10 158.19 76.29 157.98 80.48 158.15 C 81.64 161.95 83.12 166.35 87.71 166.91 C 86.02 166.59 83.83 166.96 82.60 165.45 C 81.41 163.48 80.71 161.27 79.85 159.15 C 71.73 158.71 62.38 160.10 55.50 154.85 Z" />
</g>
<g id="#303030ff">
<path fill="#303030" opacity="1.00" d=" M 89.74 62.95 C 90.26 62.34 90.78 61.72 91.30 61.11 C 91.20 62.46 91.46 63.72 92.09 64.89 C 93.74 65.78 94.64 63.52 95.94 62.90 C 100.34 59.70 106.51 61.77 109.70 65.77 C 109.98 69.54 106.54 72.49 103.05 73.04 C 100.51 73.72 97.99 72.71 95.54 72.14 C 97.03 75.84 91.94 74.72 93.09 71.89 C 93.71 71.80 94.96 71.61 95.59 71.52 C 93.40 69.22 91.34 66.77 89.81 63.97 C 89.80 63.71 89.76 63.21 89.74 62.95 M 94.25 66.09 C 93.47 68.82 96.48 71.40 99.09 70.30 C 101.01 69.21 102.72 66.89 105.19 68.10 C 103.66 69.21 102.08 70.25 100.56 71.38 C 102.51 71.40 104.34 70.71 106.17 70.15 C 106.71 68.82 107.29 67.51 107.71 66.14 C 104.57 62.15 97.47 62.29 94.25 66.09 Z" />
<path fill="#303030" opacity="1.00" d=" M 78.82 73.81 C 79.84 73.17 80.72 73.32 81.46 74.24 C 81.77 75.71 79.47 76.39 78.53 75.53 C 78.60 75.10 78.75 74.24 78.82 73.81 Z" />
<path fill="#303030" opacity="1.00" d=" M 36.29 120.74 C 37.41 126.74 39.87 132.50 43.33 137.52 C 42.61 139.10 43.99 140.51 45.41 140.96 C 45.67 141.51 46.21 142.62 46.48 143.17 C 46.81 144.14 47.15 145.11 47.48 146.09 C 42.34 143.83 41.64 138.03 39.91 133.37 C 38.92 130.20 36.61 127.68 35.45 124.60 C 35.66 123.64 36.08 121.71 36.29 120.74 Z" />
</g>
<g id="#0a0a0aff">
<path fill="#0a0a0a" opacity="1.00" d=" M 77.17 64.68 C 78.03 63.54 80.43 64.59 79.47 66.01 C 78.65 67.39 75.99 66.11 77.17 64.68 Z" />
<path fill="#0a0a0a" opacity="1.00" d=" M 103.89 81.99 C 107.37 81.05 111.00 81.20 114.54 81.60 C 115.56 84.76 115.31 88.54 117.77 91.07 C 117.16 91.57 116.55 92.08 115.95 92.59 C 115.08 90.73 114.19 88.89 113.35 87.02 C 111.51 87.39 109.97 88.25 108.72 89.58 L 110.89 89.45 C 110.79 90.00 110.59 91.11 110.49 91.67 C 110.92 92.36 111.35 93.05 111.78 93.75 C 110.59 92.27 109.47 90.74 108.33 89.22 C 106.67 89.83 105.22 91.60 103.42 91.56 C 100.27 90.81 96.79 89.66 93.78 91.49 C 91.53 93.25 90.63 96.11 88.63 98.09 C 88.53 97.31 88.34 95.73 88.24 94.94 C 90.27 92.05 92.06 88.98 94.33 86.27 C 96.74 83.52 100.54 82.91 103.89 81.99 M 95.77 87.08 C 96.48 88.19 97.66 88.77 98.78 89.37 C 99.26 88.88 100.23 87.89 100.72 87.40 C 101.26 87.93 102.34 89.01 102.88 89.54 C 103.47 89.15 104.65 88.37 105.24 87.99 C 108.02 87.42 110.73 85.88 112.20 83.39 C 106.48 83.05 100.89 84.65 95.77 87.08 Z" />
<path fill="#0a0a0a" opacity="1.00" d=" M 75.67 198.97 C 76.34 198.98 77.68 199.01 78.35 199.02 C 78.93 199.16 80.10 199.43 80.68 199.57 C 79.80 200.86 77.95 202.00 78.56 203.82 C 78.09 205.14 77.77 206.51 77.33 207.85 L 77.31 207.78 C 77.26 207.52 77.17 207.00 77.12 206.74 C 76.56 204.16 76.07 201.58 75.67 198.97 Z" />
</g>
<g id="#f6f6f6ff">
<path fill="#f6f6f6" opacity="1.00" d=" M 94.25 66.09 C 97.47 62.29 104.57 62.15 107.71 66.14 C 107.29 67.51 106.71 68.82 106.17 70.15 C 104.34 70.71 102.51 71.40 100.56 71.38 C 102.08 70.25 103.66 69.21 105.19 68.10 C 102.72 66.89 101.01 69.21 99.09 70.30 C 96.48 71.40 93.47 68.82 94.25 66.09 Z" />
<path fill="#f6f6f6" opacity="1.00" d=" M 74.05 68.91 C 77.08 67.99 80.64 68.85 82.85 71.13 C 83.42 73.82 81.55 78.34 78.09 76.95 C 75.67 75.94 72.30 78.18 70.62 75.53 C 68.54 72.76 71.01 69.32 74.05 68.91 M 78.82 73.81 C 78.75 74.24 78.60 75.10 78.53 75.53 C 79.47 76.39 81.77 75.71 81.46 74.24 C 80.72 73.32 79.84 73.17 78.82 73.81 Z" />
</g>
<g id="#1d1d1dab">
<path fill="#1d1d1d" opacity="0.67" d=" M 124.78 65.09 C 126.50 64.84 127.10 65.57 126.59 67.28 C 125.62 66.83 125.02 66.10 124.78 65.09 Z" />
</g>
<g id="#15151561">
<path fill="#151515" opacity="0.38" d=" M 41.28 73.09 C 41.16 70.32 42.75 67.92 45.20 66.73 C 43.74 68.75 42.56 70.95 41.28 73.09 Z" />
</g>
<g id="#1414148a">
<path fill="#141414" opacity="0.54" d=" M 129.52 71.64 C 131.93 73.94 133.77 76.75 134.95 79.86 C 132.71 77.43 130.79 74.71 129.52 71.64 Z" />
</g>
<g id="#393939ff">
<path fill="#393939" opacity="1.00" d=" M 63.80 74.77 C 64.16 74.65 64.87 74.40 65.23 74.28 C 65.29 75.03 65.40 76.53 65.46 77.28 C 68.61 79.28 67.91 75.71 68.28 74.21 C 68.87 75.43 69.41 76.68 70.04 77.88 C 70.34 78.87 70.63 79.86 70.91 80.86 C 68.47 79.79 65.92 78.95 63.22 79.09 C 63.40 77.64 63.60 76.21 63.80 74.77 Z" />
</g>
<g id="#fdfdfdff">
<path fill="#fdfdfd" opacity="1.00" d=" M 95.77 87.08 C 100.89 84.65 106.48 83.05 112.20 83.39 C 110.73 85.88 108.02 87.42 105.24 87.99 C 104.65 88.37 103.47 89.15 102.88 89.54 C 102.34 89.01 101.26 87.93 100.72 87.40 C 100.23 87.89 99.26 88.88 98.78 89.37 C 97.66 88.77 96.48 88.19 95.77 87.08 Z" />
<path fill="#fdfdfd" opacity="1.00" d=" M 78.82 198.33 C 80.16 198.29 81.50 198.30 82.84 198.37 C 82.58 199.45 82.29 200.52 81.95 201.59 C 81.64 201.08 81.00 200.07 80.68 199.57 C 80.10 199.43 78.93 199.16 78.35 199.02 L 78.82 198.33 Z" />
</g>
<g id="#9d9d9dff">
<path fill="#9d9d9d" opacity="1.00" d=" M 93.78 91.49 C 96.79 89.66 100.27 90.81 103.42 91.56 C 103.11 92.90 102.77 94.27 101.66 95.19 C 101.57 94.26 101.37 92.38 101.27 91.45 C 98.77 91.38 96.27 91.40 93.78 91.49 Z" />
</g>
<g id="#373737ff">
<path fill="#373737" opacity="1.00" d=" M 85.39 98.20 C 86.59 99.67 87.78 101.15 89.13 102.48 C 90.73 102.95 92.43 102.59 94.07 102.63 C 92.94 103.77 91.83 105.18 90.00 104.91 C 87.48 104.68 86.66 101.91 86.03 99.88 C 85.87 99.46 85.55 98.62 85.39 98.20 Z" />
</g>
<g id="#9b9b9bff">
<path fill="#9b9b9b" opacity="1.00" d=" M 123.49 109.19 C 124.61 108.40 126.55 108.99 126.98 110.32 C 126.59 112.08 122.77 110.82 123.49 109.19 Z" />
</g>
<g id="#1c1c1c6c">
<path fill="#1c1c1c" opacity="0.42" d=" M 136.89 137.90 C 137.11 136.44 137.89 135.16 138.68 133.95 C 139.91 135.18 138.80 138.54 136.89 137.90 Z" />
</g>
<g id="#1616166a">
<path fill="#161616" opacity="0.42" d=" M 133.85 141.70 C 134.51 140.52 135.29 139.27 136.67 138.85 C 137.67 140.35 135.36 142.73 133.85 141.70 Z" />
<path fill="#161616" opacity="0.42" d=" M 124.00 148.79 C 125.03 147.48 126.44 146.57 127.99 145.99 C 128.74 147.89 125.59 149.76 124.00 148.79 Z" />
</g>
<g id="#1b1b1b2d">
<path fill="#1b1b1b" opacity="0.18" d=" M 52.43 151.71 C 53.37 152.17 53.97 152.89 54.21 153.87 C 52.46 154.15 51.86 153.43 52.43 151.71 Z" />
</g>
<g id="#1616164d">
<path fill="#161616" opacity="0.30" d=" M 90.69 163.34 C 92.43 162.66 93.23 163.21 93.07 164.98 C 92.08 164.72 91.29 164.17 90.69 163.34 Z" />
</g>
<g id="#2e2e2e92">
<path fill="#2e2e2e" opacity="0.57" d=" M 95.50 166.36 C 95.54 166.39 95.62 166.45 95.67 166.48 C 95.62 166.45 95.54 166.39 95.50 166.36 Z" />
</g>
<g id="#1c1c1c92">
<path fill="#1c1c1c" opacity="0.57" d=" M 103.93 189.22 C 104.77 187.63 106.45 186.85 108.20 186.87 C 107.52 188.61 105.75 189.49 103.93 189.22 Z" />
</g>
<g id="#0e0e0ef1">
<path fill="#0e0e0e" opacity="0.95" d=" M 80.30 195.99 C 82.66 195.39 85.10 194.94 87.54 195.36 C 86.28 196.10 85.02 196.84 83.77 197.59 C 84.98 197.90 86.18 198.20 87.39 198.50 L 87.94 198.64 C 87.26 198.94 85.89 199.55 85.20 199.86 L 84.44 200.25 C 83.99 201.62 83.61 203.00 83.22 204.39 C 82.92 203.71 82.31 202.35 82.00 201.67 L 81.95 201.59 C 82.29 200.52 82.58 199.45 82.84 198.37 C 81.50 198.30 80.16 198.29 78.82 198.33 C 79.19 197.75 79.93 196.58 80.30 195.99 Z" />
</g>
<g id="#1f1f1f62">
<path fill="#1f1f1f" opacity="0.38" d=" M 89.59 197.76 C 90.35 196.68 91.58 196.17 92.81 195.85 C 92.61 197.52 91.59 198.30 89.76 198.19 L 89.59 197.76 Z" />
</g>
<g id="#24242465">
<path fill="#242424" opacity="0.40" d=" M 84.44 200.25 L 85.20 199.86 C 85.17 202.25 85.10 204.64 84.97 207.03 C 84.33 206.34 83.69 205.66 83.06 204.97 L 83.22 204.39 C 83.61 203.00 83.99 201.62 84.44 200.25 Z" />
</g>
</svg>
