<?xml version="1.0" encoding="UTF-8" ?>
<!DOCTYPE svg PUBLIC "-//W3C//DTD SVG 1.1//EN" "http://www.w3.org/Graphics/SVG/1.1/DTD/svg11.dtd">
<svg width="210pt" height="220pt" viewBox="0 0 210 220" version="1.1" xmlns="http://www.w3.org/2000/svg">
<g id="#000000ff">
<path fill="#000000" opacity="1.00" d=" M 170.44 22.27 C 173.10 21.59 175.85 21.40 178.59 21.35 C 179.00 24.31 179.39 27.28 179.74 30.25 C 178.01 30.84 176.29 31.43 174.56 32.00 C 174.48 34.44 174.43 36.88 174.37 39.32 C 173.29 39.45 172.21 39.59 171.14 39.72 L 171.14 39.72 C 170.37 33.93 170.63 28.09 170.44 22.27 M 173.73 24.72 C 173.65 25.98 173.58 27.25 173.51 28.51 C 174.46 28.45 175.42 28.39 176.37 28.33 C 176.39 27.11 176.40 25.88 176.41 24.66 C 175.51 24.68 174.62 24.70 173.73 24.72 Z" />
<path fill="#000000" opacity="1.00" d=" M 137.83 25.76 C 141.28 25.83 144.80 25.67 147.76 23.68 C 148.37 24.25 148.98 24.83 149.60 25.40 C 148.39 26.75 147.36 28.40 145.63 29.14 C 143.17 29.55 140.67 29.44 138.19 29.59 C 139.13 30.91 139.48 33.00 141.06 33.64 C 143.57 33.40 145.97 32.58 148.44 32.14 C 148.45 32.72 148.47 33.89 148.48 34.48 C 146.49 35.53 144.52 36.60 142.56 37.70 C 142.57 39.70 142.58 41.70 142.56 43.70 C 141.62 43.67 140.68 43.64 139.74 43.61 C 136.47 39.82 134.33 35.31 132.33 30.78 C 133.20 30.19 134.07 29.60 134.93 29.00 C 135.64 27.80 135.86 25.38 137.83 25.76 Z" />
<path fill="#000000" opacity="1.00" d=" M 154.57 28.71 C 157.03 26.97 160.65 25.54 163.35 27.64 C 164.37 30.09 164.92 32.69 165.66 35.23 C 165.87 35.37 166.27 35.64 166.48 35.78 C 166.39 37.30 166.31 38.83 166.23 40.35 C 165.07 40.47 163.92 40.58 162.77 40.69 C 162.37 39.21 161.96 37.75 161.55 36.28 C 160.31 36.42 159.07 36.56 157.84 36.70 C 157.35 38.05 156.85 39.39 156.36 40.74 C 155.40 40.60 154.44 40.46 153.48 40.33 C 153.63 36.44 153.84 32.54 154.57 28.71 M 157.62 30.53 C 157.53 31.11 157.35 32.26 157.26 32.84 C 158.42 32.81 159.57 32.79 160.73 32.76 C 160.72 32.13 160.68 30.87 160.67 30.24 C 159.65 30.34 158.64 30.44 157.62 30.53 Z" />
<path fill="#000000" opacity="1.00" d=" M 56.85 35.73 C 62.94 36.47 68.16 32.91 73.87 31.65 C 81.58 31.28 89.30 31.46 97.02 31.32 C 103.89 30.81 108.94 36.37 115.01 38.57 C 119.09 39.86 122.18 42.93 125.50 45.47 C 128.95 48.11 131.06 51.98 133.43 55.53 C 137.39 61.53 141.40 67.51 145.44 73.47 C 147.12 75.60 146.58 78.45 146.71 80.97 C 146.41 91.11 147.52 101.21 147.39 111.35 C 146.75 112.15 146.12 112.95 145.49 113.74 C 146.36 120.85 144.16 128.72 138.30 133.21 C 133.14 137.40 129.11 142.97 123.24 146.24 C 119.80 148.12 116.55 150.38 112.97 151.99 C 103.49 153.85 93.79 153.37 84.18 153.46 C 84.38 153.80 84.77 154.49 84.96 154.83 C 89.65 157.41 92.48 162.13 96.61 165.39 C 100.78 169.28 105.40 172.65 109.45 176.66 C 109.79 182.28 108.14 187.66 107.20 193.12 C 106.80 194.15 106.40 195.18 106.01 196.21 C 105.16 196.23 104.31 196.25 103.46 196.27 C 104.24 190.18 106.78 184.38 106.66 178.17 C 100.63 173.99 95.64 168.66 90.46 163.53 C 89.89 163.52 88.77 163.50 88.21 163.49 C 90.01 169.32 93.62 174.74 93.47 181.02 C 93.41 186.92 94.02 192.78 94.75 198.61 C 93.72 198.52 92.68 198.42 91.65 198.33 C 91.24 193.23 90.62 188.14 90.64 183.02 C 90.73 177.60 88.71 172.48 86.92 167.46 C 86.21 166.50 85.47 165.56 84.71 164.64 C 84.33 170.24 85.26 175.87 84.36 181.44 C 82.82 184.83 81.09 188.13 79.28 191.38 C 80.89 193.56 83.36 194.67 85.63 195.99 C 86.25 196.53 87.50 197.59 88.12 198.13 C 85.94 198.29 83.77 198.44 81.60 198.60 C 79.82 196.87 78.04 195.13 76.33 193.33 C 76.01 186.92 82.15 182.38 81.63 176.00 C 81.52 169.89 81.75 163.78 81.44 157.68 C 80.58 156.28 79.77 154.86 78.98 153.43 C 71.97 152.28 64.83 152.75 57.80 151.83 C 54.83 151.46 52.43 149.50 50.10 147.79 C 46.13 144.49 41.52 141.63 39.06 136.90 C 35.68 130.78 31.04 125.30 28.52 118.73 C 28.05 111.16 28.51 103.58 28.58 96.01 C 28.63 86.06 30.57 76.26 32.42 66.53 C 33.52 63.65 35.14 60.99 36.19 58.08 C 37.22 55.60 37.73 52.69 40.05 51.03 C 45.95 46.26 51.48 41.07 56.85 35.73 M 71.48 35.56 L 71.53 36.23 C 70.39 36.54 69.24 36.86 68.11 37.21 C 66.68 37.74 65.27 38.31 63.85 38.86 C 61.79 39.46 59.64 39.47 57.51 39.55 L 57.57 40.53 L 56.83 40.59 C 56.51 40.89 55.87 41.50 55.55 41.80 L 55.51 42.51 L 54.48 42.48 L 54.51 43.52 L 53.78 43.54 C 53.53 43.83 53.01 44.43 52.76 44.73 C 48.80 48.38 44.46 51.61 40.72 55.50 C 40.46 56.66 40.16 57.81 39.82 58.95 C 38.52 61.71 37.37 64.56 35.57 67.04 C 34.73 69.45 34.44 71.99 34.28 74.53 L 33.68 74.47 C 33.60 76.51 33.48 78.56 33.40 80.60 L 32.68 80.49 C 32.55 82.83 32.37 85.17 32.27 87.52 L 31.69 87.48 C 31.59 95.76 31.65 104.06 31.35 112.34 C 31.37 114.20 31.54 116.06 31.84 117.90 C 32.30 118.88 32.75 119.86 33.19 120.84 C 33.86 121.84 34.53 122.85 35.21 123.85 C 38.63 128.96 40.98 134.98 45.49 139.25 C 46.03 139.87 46.64 140.43 47.33 140.95 L 47.55 141.14 C 49.13 142.30 50.66 143.55 52.19 144.79 C 52.45 145.02 52.97 145.47 53.23 145.70 C 53.79 145.98 54.93 146.55 55.49 146.83 L 55.61 147.80 C 56.07 147.67 56.99 147.41 57.46 147.28 L 57.37 148.44 C 58.75 148.48 60.13 148.52 61.52 148.57 L 61.53 149.34 C 76.68 149.74 91.86 149.80 107.02 149.37 C 110.35 149.52 113.37 148.01 116.01 146.14 C 119.44 143.85 123.14 141.95 126.42 139.43 C 130.15 136.08 133.63 132.47 137.29 129.05 L 137.17 128.65 C 139.39 128.78 139.82 126.45 140.71 124.94 C 141.25 123.61 141.82 122.30 142.43 121.01 C 142.70 117.62 141.64 113.94 143.40 110.83 C 143.59 99.24 143.76 87.59 143.32 76.02 C 137.92 67.40 132.22 58.94 126.51 50.52 C 122.99 46.80 118.50 43.53 113.53 42.17 C 113.51 42.12 113.46 42.02 113.44 41.97 C 111.52 41.11 109.72 40.02 107.96 38.90 C 107.48 38.62 106.53 38.05 106.06 37.77 C 104.32 36.92 102.60 36.04 100.90 35.11 C 94.15 33.87 87.22 34.99 80.39 34.67 L 80.60 35.32 C 77.56 35.26 74.52 35.36 71.48 35.56 Z" />
<path fill="#000000" opacity="1.00" d=" M 158.20 82.60 C 159.29 77.42 160.61 72.20 162.81 67.36 C 165.35 67.62 167.90 67.84 170.42 68.22 C 172.16 68.98 173.76 70.00 175.41 70.92 C 175.30 71.77 175.19 72.62 175.09 73.47 C 171.98 72.42 168.86 71.09 165.50 71.49 C 165.49 72.55 165.53 73.61 165.63 74.67 C 167.38 76.13 169.84 77.08 169.98 79.75 C 167.54 79.46 165.13 78.94 162.73 78.41 C 162.59 79.82 162.46 81.23 162.32 82.65 C 160.94 82.64 159.57 82.62 158.20 82.60 Z" />
<path fill="#000000" opacity="1.00" d=" M 172.35 84.43 C 172.36 80.62 172.66 76.53 175.89 73.98 C 176.82 74.87 177.74 75.77 178.67 76.67 C 178.57 80.09 178.85 83.56 178.18 86.93 C 177.57 87.17 176.33 87.65 175.71 87.89 C 175.58 87.14 175.30 85.64 175.16 84.89 C 174.46 84.77 173.06 84.55 172.35 84.43 Z" />
<path fill="#000000" opacity="1.00" d=" M 181.66 76.91 C 182.91 75.06 185.31 75.71 187.20 75.39 C 188.31 76.21 189.43 77.02 190.56 77.84 C 190.51 79.24 190.47 80.65 190.42 82.06 C 189.35 82.85 188.30 83.65 187.24 84.44 C 186.69 84.51 185.59 84.64 185.04 84.71 C 183.99 86.63 182.92 88.54 181.83 90.44 C 181.66 89.04 181.51 87.64 181.39 86.23 C 182.25 83.17 181.44 80.01 181.66 76.91 M 184.97 79.35 C 184.51 81.00 185.08 81.52 186.69 80.91 C 187.15 79.26 186.58 78.74 184.97 79.35 Z" />
<path fill="#000000" opacity="1.00" d=" M 182.88 121.09 C 184.08 118.75 187.15 119.97 189.24 119.66 C 190.84 121.55 190.65 124.06 190.65 126.37 C 188.89 126.83 187.15 127.30 185.39 127.74 C 185.31 131.16 185.29 134.58 185.28 138.00 C 184.51 137.83 182.97 137.48 182.20 137.30 C 182.29 131.90 181.73 126.40 182.88 121.09 M 185.31 122.47 C 184.19 123.78 186.51 125.30 187.45 124.01 C 188.57 122.70 186.25 121.18 185.31 122.47 Z" />
<path fill="#000000" opacity="1.00" d=" M 160.33 121.24 C 163.14 120.85 165.97 120.57 168.82 120.62 L 170.25 122.25 C 168.31 123.09 166.23 123.53 164.12 123.72 C 164.23 124.65 164.34 125.58 164.46 126.51 C 166.25 126.60 168.04 126.66 169.84 126.67 C 171.06 123.74 173.88 123.01 176.80 123.27 C 179.43 126.71 178.46 131.20 178.50 135.21 C 177.76 134.89 176.30 134.25 175.57 133.93 C 175.57 133.56 175.58 132.81 175.58 132.44 C 175.14 132.50 174.26 132.61 173.82 132.67 C 173.51 134.63 173.40 136.65 172.76 138.55 C 172.52 138.58 172.04 138.64 171.80 138.67 C 170.57 135.64 170.15 132.33 168.65 129.40 C 167.77 129.70 166.02 130.31 165.14 130.62 C 165.47 133.39 166.05 136.13 166.56 138.88 C 163.20 138.72 162.70 135.16 162.18 132.58 C 161.63 128.78 161.04 125.00 160.33 121.24 Z" />
<path fill="#000000" opacity="1.00" d=" M 35.50 143.69 C 38.49 143.36 42.11 143.26 43.68 146.41 C 45.88 149.37 42.97 152.32 40.82 154.20 C 40.67 155.83 40.52 157.47 40.35 159.10 C 39.45 159.30 38.55 159.50 37.65 159.70 L 37.53 159.14 C 37.27 158.00 37.02 156.86 36.77 155.73 C 34.58 155.62 32.39 155.52 30.19 155.42 C 29.63 157.53 29.08 159.81 26.94 160.90 C 26.63 157.15 26.37 153.40 25.64 149.70 C 27.21 147.80 29.35 146.52 31.28 145.03 C 32.74 147.17 34.13 149.36 35.58 151.52 C 35.58 148.90 35.48 146.30 35.50 143.69 M 39.13 147.42 C 37.78 148.38 39.15 151.12 40.67 149.94 C 42.02 148.97 40.65 146.25 39.13 147.42 M 29.25 150.35 C 27.77 151.68 30.08 153.96 31.40 152.50 C 32.86 151.18 30.57 148.89 29.25 150.35 Z" />
<path fill="#000000" opacity="1.00" d=" M 12.06 147.90 C 16.12 146.88 20.07 145.05 24.35 145.36 C 24.41 146.36 24.46 147.36 24.52 148.36 C 22.84 148.87 21.16 149.39 19.47 149.87 C 19.47 151.06 19.47 152.25 19.48 153.44 C 21.65 152.96 23.83 152.56 26.05 152.32 C 25.28 155.20 23.17 156.95 20.34 157.60 C 20.99 160.17 21.41 162.80 21.55 165.45 C 20.64 165.52 19.72 165.60 18.81 165.68 C 17.02 159.89 13.34 155.02 10.21 149.92 C 10.68 149.41 11.60 148.40 12.06 147.90 Z" />
<path fill="#000000" opacity="1.00" d=" M 145.68 180.67 C 146.88 180.62 148.07 180.57 149.27 180.53 C 149.82 182.81 150.26 185.11 150.48 187.44 C 149.31 187.42 148.16 187.40 147.00 187.38 C 146.60 185.13 146.17 182.90 145.68 180.67 Z" />
</g>
<g id="#0303037f">
<path fill="#030303" opacity="0.50" d=" M 178.59 21.35 C 180.93 23.81 181.07 27.25 179.74 30.25 C 179.39 27.28 179.00 24.31 178.59 21.35 Z" />
</g>
<g id="#07070778">
<path fill="#070707" opacity="0.47" d=" M 169.49 36.03 C 169.54 31.46 168.76 26.65 170.44 22.27 C 170.63 28.09 170.37 33.93 171.14 39.72 C 170.34 38.60 169.29 37.53 169.49 36.03 Z" />
</g>
<g id="#0303036e">
<path fill="#030303" opacity="0.43" d=" M 153.48 40.33 C 151.85 36.54 152.22 32.11 154.57 28.71 C 153.84 32.54 153.63 36.44 153.48 40.33 Z" />
</g>
<g id="#fefefeff">
<path fill="#fefefe" opacity="1.00" d=" M 71.48 35.56 C 74.52 35.36 77.56 35.26 80.60 35.32 L 80.39 34.67 C 87.22 34.99 94.15 33.87 100.90 35.11 C 102.60 36.04 104.32 36.92 106.06 37.77 C 106.53 38.05 107.48 38.62 107.96 38.90 C 109.72 40.02 111.52 41.11 113.44 41.97 C 113.46 42.02 113.51 42.12 113.53 42.17 C 113.89 43.15 114.25 44.14 114.60 45.13 C 111.73 44.16 108.75 43.60 105.71 43.71 C 101.17 43.16 96.86 44.81 93.16 47.32 C 92.81 47.46 92.10 47.73 91.75 47.87 C 92.00 45.78 92.25 43.70 92.47 41.61 C 93.44 41.30 94.41 41.00 95.39 40.71 C 97.79 40.47 100.21 40.53 102.62 40.50 C 102.58 39.97 102.52 38.91 102.49 38.38 C 99.33 38.33 96.16 38.18 93.01 38.52 C 89.89 38.91 87.15 40.65 84.09 41.32 C 82.86 40.81 81.71 40.13 80.53 39.51 C 80.55 40.44 80.57 41.36 80.58 42.29 C 82.28 42.94 83.93 43.76 85.71 44.11 C 87.31 43.43 88.72 42.38 90.26 41.59 C 90.61 41.60 91.31 41.63 91.65 41.65 C 90.41 43.71 89.36 45.90 89.02 48.30 C 89.89 48.34 91.62 48.41 92.48 48.45 C 93.31 52.16 92.83 56.63 95.94 59.40 C 96.09 58.48 96.37 56.63 96.52 55.71 C 98.27 56.90 100.03 58.08 101.77 59.29 C 104.53 60.19 107.26 61.16 109.99 62.13 C 109.79 61.64 109.40 60.66 109.20 60.17 C 107.95 59.23 106.71 58.28 105.45 57.35 C 108.75 55.60 112.96 52.31 110.81 48.07 L 110.20 45.80 C 111.10 46.49 112.89 47.88 113.79 48.57 C 114.00 48.72 114.42 49.01 114.62 49.16 C 115.46 48.81 116.27 48.41 117.03 47.92 C 127.20 60.50 136.15 74.93 138.36 91.24 C 138.99 98.82 138.52 106.44 139.20 114.01 C 139.82 119.11 134.88 123.63 137.17 128.65 L 137.29 129.05 C 133.63 132.47 130.15 136.08 126.42 139.43 C 123.14 141.95 119.44 143.85 116.01 146.14 C 113.37 148.01 110.35 149.52 107.02 149.37 C 91.86 149.80 76.68 149.74 61.53 149.34 L 61.52 148.57 C 60.13 148.52 58.75 148.48 57.37 148.44 L 57.46 147.28 C 56.99 147.41 56.07 147.67 55.61 147.80 L 55.49 146.83 C 54.93 146.55 53.79 145.98 53.23 145.70 C 52.97 145.47 52.45 145.02 52.19 144.79 C 50.66 143.55 49.13 142.30 47.55 141.14 L 47.33 140.95 C 46.64 140.43 46.03 139.87 45.49 139.25 C 44.40 135.71 42.72 132.40 40.62 129.36 C 37.07 124.25 36.19 117.96 33.98 112.26 C 33.32 112.28 32.00 112.32 31.35 112.34 C 31.65 104.06 31.59 95.76 31.69 87.48 L 32.27 87.52 C 32.37 85.17 32.55 82.83 32.68 80.49 L 33.40 80.60 C 33.48 78.56 33.60 76.51 33.68 74.47 L 34.28 74.53 C 34.44 71.99 34.73 69.45 35.57 67.04 C 37.37 64.56 38.52 61.71 39.82 58.95 C 40.16 57.81 40.46 56.66 40.72 55.50 C 44.46 51.61 48.80 48.38 52.76 44.73 C 53.01 44.43 53.53 43.83 53.78 43.54 L 54.51 43.52 L 54.48 42.48 L 55.51 42.51 L 55.55 41.80 C 55.87 41.50 56.51 40.89 56.83 40.59 L 57.57 40.53 L 57.51 39.55 C 59.64 39.47 61.79 39.46 63.85 38.86 C 65.27 38.31 66.68 37.74 68.11 37.21 C 69.24 36.86 70.39 36.54 71.53 36.23 L 71.48 35.56 M 68.73 41.15 C 62.90 42.19 59.50 47.54 57.71 52.74 C 57.70 53.24 57.67 54.25 57.66 54.76 C 61.83 53.91 61.43 48.70 64.32 46.32 C 67.53 42.64 72.77 43.04 77.17 43.32 C 76.86 43.09 76.23 42.62 75.91 42.39 C 75.30 38.82 71.07 40.74 68.73 41.15 M 70.32 50.07 C 68.55 52.90 63.64 55.76 66.59 59.40 C 69.13 63.96 74.53 64.93 79.31 64.45 C 81.05 63.05 83.13 61.84 84.11 59.74 C 85.40 59.29 86.70 58.85 87.99 58.42 C 87.70 56.27 87.12 54.17 85.98 52.31 C 84.65 52.35 83.33 52.38 82.00 52.41 C 81.55 52.03 80.63 51.27 80.18 50.89 C 79.53 50.63 78.24 50.10 77.59 49.83 C 77.61 49.13 77.63 47.73 77.64 47.03 C 74.95 47.33 71.79 47.34 70.32 50.07 M 61.65 58.12 C 61.19 59.95 60.71 61.76 60.21 63.58 C 63.45 63.57 66.51 64.57 69.39 65.97 C 68.48 63.34 66.10 62.11 63.53 61.52 C 63.45 60.45 63.36 59.39 63.29 58.33 C 62.88 58.28 62.06 58.17 61.65 58.12 M 86.05 61.81 C 84.95 64.38 83.80 66.93 82.53 69.42 C 83.38 69.36 84.23 69.29 85.08 69.23 C 85.98 66.83 88.17 64.15 86.05 61.81 M 115.16 62.30 C 115.33 62.67 115.68 63.41 115.86 63.78 C 118.10 65.01 120.09 66.64 122.01 68.30 C 121.55 66.75 121.84 64.68 120.34 63.63 C 118.79 62.65 116.90 62.62 115.16 62.30 M 108.01 66.70 C 106.64 67.18 105.22 67.53 103.79 67.82 C 95.77 69.16 90.75 76.57 87.90 83.58 C 88.28 83.65 89.02 83.78 89.39 83.85 C 89.68 83.15 90.25 81.74 90.53 81.04 L 90.39 80.49 L 91.17 80.42 C 92.75 79.06 94.38 77.77 96.00 76.47 C 98.12 76.79 100.33 77.69 102.38 76.38 C 103.37 78.42 102.16 80.56 101.77 82.60 C 103.50 80.60 105.64 78.93 106.80 76.51 C 108.11 76.04 109.44 75.59 110.78 75.20 C 111.52 74.37 112.25 73.54 112.98 72.70 C 113.81 72.67 115.47 72.61 116.30 72.59 C 116.35 73.27 116.46 74.64 116.52 75.32 C 117.53 76.36 118.27 79.98 120.17 78.20 C 121.70 76.75 119.10 75.31 118.39 74.16 C 118.34 73.93 118.24 73.46 118.19 73.22 C 117.84 71.61 117.59 69.97 117.37 68.34 C 116.75 67.72 116.12 67.10 115.50 66.48 C 113.00 66.47 110.50 66.51 108.01 66.70 M 108.13 79.22 C 108.14 79.91 108.14 81.28 108.14 81.96 C 108.81 81.95 110.14 81.92 110.80 81.90 C 110.90 81.16 111.09 79.67 111.18 78.93 C 110.42 79.00 108.90 79.15 108.13 79.22 M 85.11 84.49 C 85.10 87.43 85.97 90.65 88.53 92.39 C 90.78 93.34 93.81 92.77 94.38 90.05 C 92.82 90.30 91.26 90.56 89.70 90.84 C 88.27 88.65 87.04 86.30 85.11 84.49 M 124.46 87.46 C 124.40 88.59 124.34 89.72 124.29 90.86 C 123.85 91.33 122.98 92.28 122.54 92.75 C 122.57 93.29 122.63 94.37 122.66 94.91 C 123.93 93.84 125.19 92.76 126.44 91.66 C 126.40 90.35 126.37 89.05 126.33 87.74 C 125.86 87.67 124.93 87.53 124.46 87.46 M 125.54 97.10 C 127.74 99.50 130.56 101.24 132.73 103.69 C 131.37 107.80 128.92 111.41 125.15 113.65 C 126.09 114.06 127.15 114.97 128.17 114.14 C 132.03 111.95 134.35 107.45 134.56 103.10 C 133.08 99.57 129.54 96.70 125.54 97.10 M 122.43 98.91 C 123.88 104.80 123.61 111.54 119.21 116.16 C 118.69 115.81 117.65 115.10 117.13 114.75 C 112.87 116.71 108.26 115.77 103.88 114.82 C 105.68 117.43 107.57 120.00 109.87 122.21 C 117.82 123.84 123.91 115.88 125.42 108.94 C 125.60 105.54 126.86 100.04 122.43 98.91 Z" />
</g>
<g id="#646464ff">
<path fill="#646464" opacity="1.00" d=" M 84.09 41.32 C 87.15 40.65 89.89 38.91 93.01 38.52 C 96.16 38.18 99.33 38.33 102.49 38.38 C 102.52 38.91 102.58 39.97 102.62 40.50 C 100.21 40.53 97.79 40.47 95.39 40.71 C 93.67 40.90 91.94 41.12 90.26 41.59 C 88.72 42.38 87.31 43.43 85.71 44.11 C 83.93 43.76 82.28 42.94 80.58 42.29 C 80.57 41.36 80.55 40.44 80.53 39.51 C 81.71 40.13 82.86 40.81 84.09 41.32 Z" />
<path fill="#646464" opacity="1.00" d=" M 93.16 47.32 C 96.86 44.81 101.17 43.16 105.71 43.71 C 107.49 45.06 109.21 46.49 110.81 48.07 C 112.96 52.31 108.75 55.60 105.45 57.35 C 105.20 57.18 104.71 56.84 104.47 56.67 C 105.17 55.98 105.86 55.28 106.55 54.57 C 107.97 52.98 110.66 50.73 108.63 48.52 C 105.38 44.10 98.61 45.35 95.16 48.88 C 94.98 49.02 94.64 49.32 94.46 49.46 C 94.14 48.93 93.48 47.85 93.16 47.32 Z" />
<path fill="#646464" opacity="1.00" d=" M 66.59 59.40 C 63.64 55.76 68.55 52.90 70.32 50.07 C 73.49 51.24 76.86 51.47 80.18 50.89 C 80.63 51.27 81.55 52.03 82.00 52.41 C 83.78 54.43 84.22 57.13 84.11 59.74 C 83.13 61.84 81.05 63.05 79.31 64.45 C 74.53 64.93 69.13 63.96 66.59 59.40 M 67.10 56.96 C 69.06 59.55 71.42 61.87 74.63 62.79 C 74.63 61.43 74.62 60.06 74.61 58.70 C 75.33 58.35 76.77 57.65 77.49 57.30 C 78.52 58.69 78.83 60.37 79.01 62.06 C 80.12 61.11 81.23 60.17 82.34 59.22 C 82.39 58.29 82.47 56.42 82.52 55.49 C 78.53 50.80 70.21 51.62 67.10 56.96 M 76.14 59.08 C 74.69 60.05 76.28 62.63 77.74 61.46 C 79.24 60.47 77.63 57.91 76.14 59.08 Z" />
<path fill="#646464" opacity="1.00" d=" M 124.46 87.46 C 124.93 87.53 125.86 87.67 126.33 87.74 C 126.37 89.05 126.40 90.35 126.44 91.66 C 125.19 92.76 123.93 93.84 122.66 94.91 C 122.63 94.37 122.57 93.29 122.54 92.75 C 122.98 92.28 123.85 91.33 124.29 90.86 C 124.34 89.72 124.40 88.59 124.46 87.46 Z" />
</g>
<g id="#323232fe">
<path fill="#323232" opacity="1.00" d=" M 68.73 41.15 C 71.07 40.74 75.30 38.82 75.91 42.39 C 76.23 42.62 76.86 43.09 77.17 43.32 C 72.77 43.04 67.53 42.64 64.32 46.32 C 61.43 48.70 61.83 53.91 57.66 54.76 C 57.67 54.25 57.70 53.24 57.71 52.74 C 59.50 47.54 62.90 42.19 68.73 41.15 Z" />
</g>
<g id="#9c9c9cff">
<path fill="#9c9c9c" opacity="1.00" d=" M 90.26 41.59 C 91.94 41.12 93.67 40.90 95.39 40.71 C 94.41 41.00 93.44 41.30 92.47 41.61 C 92.25 43.70 92.00 45.78 91.75 47.87 C 92.10 47.73 92.81 47.46 93.16 47.32 C 93.48 47.85 94.14 48.93 94.46 49.46 C 94.64 49.32 94.98 49.02 95.16 48.88 C 95.28 51.77 97.28 53.97 99.99 54.78 C 101.48 55.42 102.97 56.04 104.47 56.67 C 104.71 56.84 105.20 57.18 105.45 57.35 C 106.71 58.28 107.95 59.23 109.20 60.17 C 109.40 60.66 109.79 61.64 109.99 62.13 C 107.26 61.16 104.53 60.19 101.77 59.29 C 100.03 58.08 98.27 56.90 96.52 55.71 C 96.37 56.63 96.09 58.48 95.94 59.40 C 92.83 56.63 93.31 52.16 92.48 48.45 C 91.62 48.41 89.89 48.34 89.02 48.30 C 89.36 45.90 90.41 43.71 91.65 41.65 C 91.31 41.63 90.61 41.60 90.26 41.59 Z" />
</g>
<g id="#adadadff">
<path fill="#adadad" opacity="1.00" d=" M 105.71 43.71 C 108.75 43.60 111.73 44.16 114.60 45.13 C 114.70 45.99 114.74 46.86 114.71 47.73 C 114.48 47.94 114.02 48.36 113.79 48.57 C 112.89 47.88 111.10 46.49 110.20 45.80 L 110.81 48.07 C 109.21 46.49 107.49 45.06 105.71 43.71 Z" />
<path fill="#adadad" opacity="1.00" d=" M 70.32 50.07 C 71.79 47.34 74.95 47.33 77.64 47.03 C 77.63 47.73 77.61 49.13 77.59 49.83 C 78.24 50.10 79.53 50.63 80.18 50.89 C 76.86 51.47 73.49 51.24 70.32 50.07 Z" />
</g>
<g id="#e0e0e0ff">
<path fill="#e0e0e0" opacity="1.00" d=" M 113.53 42.17 C 118.50 43.53 122.99 46.80 126.51 50.52 C 132.22 58.94 137.92 67.40 143.32 76.02 C 143.76 87.59 143.59 99.24 143.40 110.83 C 141.64 113.94 142.70 117.62 142.43 121.01 C 141.82 122.30 141.25 123.61 140.71 124.94 C 139.82 126.45 139.39 128.78 137.17 128.65 C 134.88 123.63 139.82 119.11 139.20 114.01 C 138.52 106.44 138.99 98.82 138.36 91.24 C 136.15 74.93 127.20 60.50 117.03 47.92 C 116.27 48.41 115.46 48.81 114.62 49.16 C 114.42 49.01 114.00 48.72 113.79 48.57 C 114.02 48.36 114.48 47.94 114.71 47.73 C 114.74 46.86 114.70 45.99 114.60 45.13 C 114.25 44.14 113.89 43.15 113.53 42.17 Z" />
<path fill="#e0e0e0" opacity="1.00" d=" M 106.73 69.59 C 109.25 68.50 112.02 68.47 114.72 68.41 C 114.72 69.00 114.73 70.20 114.73 70.79 C 114.04 70.73 112.66 70.60 111.97 70.54 C 110.22 70.23 108.48 69.87 106.73 69.59 Z" />
</g>
<g id="#ffffffff">
<path fill="#ffffff" opacity="1.00" d=" M 95.16 48.88 C 98.61 45.35 105.38 44.10 108.63 48.52 C 110.66 50.73 107.97 52.98 106.55 54.57 C 106.26 52.76 105.99 50.96 105.72 49.15 C 104.38 49.47 103.04 49.79 101.71 50.12 C 101.70 51.11 101.69 52.11 101.70 53.10 C 101.71 53.69 101.72 54.85 101.73 55.44 C 101.29 55.27 100.43 54.94 99.99 54.78 C 97.28 53.97 95.28 51.77 95.16 48.88 Z" />
<path fill="#ffffff" opacity="1.00" d=" M 67.10 56.96 C 70.21 51.62 78.53 50.80 82.52 55.49 C 82.47 56.42 82.39 58.29 82.34 59.22 C 81.23 60.17 80.12 61.11 79.01 62.06 C 78.83 60.37 78.52 58.69 77.49 57.30 C 76.77 57.65 75.33 58.35 74.61 58.70 C 74.62 60.06 74.63 61.43 74.63 62.79 C 71.42 61.87 69.06 59.55 67.10 56.96 Z" />
<path fill="#ffffff" opacity="1.00" d=" M 96.86 74.52 C 98.55 70.77 103.19 70.32 106.73 69.59 C 108.48 69.87 110.22 70.23 111.97 70.54 L 113.11 70.77 C 111.05 71.83 108.96 72.86 106.76 73.60 C 105.99 74.19 105.22 74.78 104.46 75.36 C 102.23 73.64 99.39 74.74 96.86 74.52 Z" />
</g>
<g id="#afafafff">
<path fill="#afafaf" opacity="1.00" d=" M 101.71 50.12 C 103.04 49.79 104.38 49.47 105.72 49.15 C 105.99 50.96 106.26 52.76 106.55 54.57 C 105.86 55.28 105.17 55.98 104.47 56.67 C 102.97 56.04 101.48 55.42 99.99 54.78 C 100.43 54.94 101.29 55.27 101.73 55.44 C 101.72 54.85 101.71 53.69 101.70 53.10 C 102.50 53.33 104.09 53.77 104.88 54.00 C 104.85 53.08 104.79 52.17 104.71 51.26 C 103.96 50.97 102.46 50.40 101.71 50.12 Z" />
</g>
<g id="#010101ff">
<path fill="#010101" opacity="1.00" d=" M 101.70 53.10 C 101.69 52.11 101.70 51.11 101.71 50.12 C 102.46 50.40 103.96 50.97 104.71 51.26 C 104.79 52.17 104.85 53.08 104.88 54.00 C 104.09 53.77 102.50 53.33 101.70 53.10 Z" />
<path fill="#010101" opacity="1.00" d=" M 66.85 186.14 C 59.75 184.72 62.25 173.62 68.50 173.00 C 68.45 173.55 68.35 174.66 68.30 175.21 C 67.15 176.95 66.31 178.86 65.60 180.81 C 66.19 182.54 66.62 184.32 66.85 186.14 Z" />
<path fill="#010101" opacity="1.00" d=" M 122.26 174.41 C 123.20 174.49 125.06 174.66 126.00 174.74 C 128.29 178.38 129.44 182.63 131.71 186.30 C 130.77 186.85 129.83 187.40 128.89 187.96 C 126.74 183.41 124.49 178.92 122.26 174.41 Z" />
</g>
<g id="#b9b9b9ff">
<path fill="#b9b9b9" opacity="1.00" d=" M 82.00 52.41 C 83.33 52.38 84.65 52.35 85.98 52.31 C 87.12 54.17 87.70 56.27 87.99 58.42 C 86.70 58.85 85.40 59.29 84.11 59.74 C 84.22 57.13 83.78 54.43 82.00 52.41 Z" />
</g>
<g id="#808080ff">
<path fill="#808080" opacity="1.00" d=" M 61.65 58.12 C 62.06 58.17 62.88 58.28 63.29 58.33 C 63.36 59.39 63.45 60.45 63.53 61.52 C 66.10 62.11 68.48 63.34 69.39 65.97 C 66.51 64.57 63.45 63.57 60.21 63.58 C 60.71 61.76 61.19 59.95 61.65 58.12 Z" />
</g>
<g id="#121212ff">
<path fill="#121212" opacity="1.00" d=" M 76.14 59.08 C 77.63 57.91 79.24 60.47 77.74 61.46 C 76.28 62.63 74.69 60.05 76.14 59.08 Z" />
</g>
<g id="#909090ff">
<path fill="#909090" opacity="1.00" d=" M 86.05 61.81 C 88.17 64.15 85.98 66.83 85.08 69.23 C 84.23 69.29 83.38 69.36 82.53 69.42 C 83.80 66.93 84.95 64.38 86.05 61.81 Z" />
<path fill="#909090" opacity="1.00" d=" M 115.16 62.30 C 116.90 62.62 118.79 62.65 120.34 63.63 C 121.84 64.68 121.55 66.75 122.01 68.30 C 120.09 66.64 118.10 65.01 115.86 63.78 C 115.68 63.41 115.33 62.67 115.16 62.30 Z" />
<path fill="#909090" opacity="1.00" d=" M 122.43 98.91 C 126.86 100.04 125.60 105.54 125.42 108.94 C 123.91 115.88 117.82 123.84 109.87 122.21 C 109.37 121.58 108.38 120.32 107.88 119.69 C 111.93 119.70 116.58 119.87 119.21 116.16 C 123.61 111.54 123.88 104.80 122.43 98.91 Z" />
</g>
<g id="#1c1c1cff">
<path fill="#1c1c1c" opacity="1.00" d=" M 108.01 66.70 C 110.50 66.51 113.00 66.47 115.50 66.48 C 116.12 67.10 116.75 67.72 117.37 68.34 C 117.59 69.97 117.84 71.61 118.19 73.22 C 118.24 73.46 118.34 73.93 118.39 74.16 C 119.10 75.31 121.70 76.75 120.17 78.20 C 118.27 79.98 117.53 76.36 116.52 75.32 C 116.46 74.64 116.35 73.27 116.30 72.59 C 115.47 72.61 113.81 72.67 112.98 72.70 C 112.25 73.54 111.52 74.37 110.78 75.20 C 109.44 75.59 108.11 76.04 106.80 76.51 C 105.64 78.93 103.50 80.60 101.77 82.60 C 102.16 80.56 103.37 78.42 102.38 76.38 C 100.33 77.69 98.12 76.79 96.00 76.47 C 94.38 77.77 92.75 79.06 91.17 80.42 L 90.39 80.49 L 90.53 81.04 C 90.25 81.74 89.68 83.15 89.39 83.85 C 89.02 83.78 88.28 83.65 87.90 83.58 C 90.75 76.57 95.77 69.16 103.79 67.82 C 105.22 67.53 106.64 67.18 108.01 66.70 M 106.73 69.59 C 103.19 70.32 98.55 70.77 96.86 74.52 C 99.39 74.74 102.23 73.64 104.46 75.36 C 105.22 74.78 105.99 74.19 106.76 73.60 C 108.96 72.86 111.05 71.83 113.11 70.77 L 111.97 70.54 C 112.66 70.60 114.04 70.73 114.73 70.79 C 114.73 70.20 114.72 69.00 114.72 68.41 C 112.02 68.47 109.25 68.50 106.73 69.59 Z" />
</g>
<g id="#0404046a">
<path fill="#040404" opacity="0.42" d=" M 162.81 67.36 C 165.36 66.25 168.33 66.06 170.42 68.22 C 167.90 67.84 165.35 67.62 162.81 67.36 Z" />
</g>
<g id="#02020276">
<path fill="#020202" opacity="0.46" d=" M 30.44 70.91 C 30.60 69.26 31.50 67.86 32.42 66.53 C 30.57 76.26 28.63 86.06 28.58 96.01 C 28.51 103.58 28.05 111.16 28.52 118.73 C 26.50 115.11 27.37 110.89 27.40 106.95 C 27.78 100.14 27.35 93.30 27.91 86.50 C 28.71 81.30 29.66 76.12 30.44 70.91 Z" />
</g>
<g id="#03030340">
<path fill="#030303" opacity="0.25" d=" M 179.07 76.85 C 179.64 78.57 180.21 80.28 180.80 82.00 C 181.00 83.41 181.20 84.82 181.39 86.23 C 181.51 87.64 181.66 89.04 181.83 90.44 C 182.92 88.54 183.99 86.63 185.04 84.71 C 184.74 86.49 185.25 88.67 183.84 90.07 C 182.63 90.80 181.53 90.68 180.56 89.72 C 179.14 85.59 179.37 81.15 179.07 76.85 Z" />
</g>
<g id="#dfdfdfff">
<path fill="#dfdfdf" opacity="1.00" d=" M 108.13 79.22 C 108.90 79.15 110.42 79.00 111.18 78.93 C 111.09 79.67 110.90 81.16 110.80 81.90 C 110.14 81.92 108.81 81.95 108.14 81.96 C 108.14 81.28 108.14 79.91 108.13 79.22 Z" />
</g>
<g id="#0505056e">
<path fill="#050505" opacity="0.43" d=" M 184.97 79.35 C 186.58 78.74 187.15 79.26 186.69 80.91 C 185.08 81.52 184.51 81.00 184.97 79.35 Z" />
</g>
<g id="#828282ff">
<path fill="#828282" opacity="1.00" d=" M 85.11 84.49 C 87.04 86.30 88.27 88.65 89.70 90.84 C 91.26 90.56 92.82 90.30 94.38 90.05 C 93.81 92.77 90.78 93.34 88.53 92.39 C 85.97 90.65 85.10 87.43 85.11 84.49 Z" />
<path fill="#828282" opacity="1.00" d=" M 125.54 97.10 C 129.54 96.70 133.08 99.57 134.56 103.10 C 134.35 107.45 132.03 111.95 128.17 114.14 C 127.15 114.97 126.09 114.06 125.15 113.65 C 128.92 111.41 131.37 107.80 132.73 103.69 C 130.56 101.24 127.74 99.50 125.54 97.10 Z" />
</g>
<g id="#e5e5e5ff">
<path fill="#e5e5e5" opacity="1.00" d=" M 31.35 112.34 C 32.00 112.32 33.32 112.28 33.98 112.26 C 36.19 117.96 37.07 124.25 40.62 129.36 C 42.72 132.40 44.40 135.71 45.49 139.25 C 40.98 134.98 38.63 128.96 35.21 123.85 C 34.53 122.85 33.86 121.84 33.19 120.84 C 32.75 119.86 32.30 118.88 31.84 117.90 C 31.54 116.06 31.37 114.20 31.35 112.34 Z" />
</g>
<g id="#e9e9e9ff">
<path fill="#e9e9e9" opacity="1.00" d=" M 103.88 114.82 C 108.26 115.77 112.87 116.71 117.13 114.75 C 117.65 115.10 118.69 115.81 119.21 116.16 C 116.58 119.87 111.93 119.70 107.88 119.69 C 108.38 120.32 109.37 121.58 109.87 122.21 C 107.57 120.00 105.68 117.43 103.88 114.82 Z" />
</g>
<g id="#02020268">
<path fill="#020202" opacity="0.41" d=" M 181.81 120.79 C 182.87 117.56 186.95 118.35 189.24 119.66 C 187.15 119.97 184.08 118.75 182.88 121.09 C 181.73 126.40 182.29 131.90 182.20 137.30 C 180.66 131.96 181.28 126.23 181.81 120.79 Z" />
</g>
<g id="#03030368">
<path fill="#030303" opacity="0.41" d=" M 159.59 121.48 C 161.41 118.37 166.05 119.24 168.82 120.62 C 165.97 120.57 163.14 120.85 160.33 121.24 C 161.04 125.00 161.63 128.78 162.18 132.58 C 160.37 129.19 159.56 125.30 159.59 121.48 Z" />
</g>
<g id="#080808c3">
<path fill="#080808" opacity="0.76" d=" M 185.31 122.47 C 186.25 121.18 188.57 122.70 187.45 124.01 C 186.51 125.30 184.19 123.78 185.31 122.47 Z" />
</g>
<g id="#0404047a">
<path fill="#040404" opacity="0.48" d=" M 168.65 129.40 C 170.15 132.33 170.57 135.64 171.80 138.67 C 172.04 138.64 172.52 138.58 172.76 138.55 C 173.40 136.65 173.51 134.63 173.82 132.67 C 174.26 132.61 175.14 132.50 175.58 132.44 C 175.58 132.81 175.57 133.56 175.57 133.93 C 174.93 135.88 174.22 137.81 173.57 139.76 C 172.58 139.67 171.58 139.64 170.59 139.69 C 169.69 136.31 168.83 132.90 168.65 129.40 Z" />
</g>
<g id="#07070788">
<path fill="#070707" opacity="0.53" d=" M 39.13 147.42 C 40.65 146.25 42.02 148.97 40.67 149.94 C 39.15 151.12 37.78 148.38 39.13 147.42 Z" />
</g>
<g id="#040404b7">
<path fill="#040404" opacity="0.72" d=" M 29.25 150.35 C 30.57 148.89 32.86 151.18 31.40 152.50 C 30.08 153.96 27.77 151.68 29.25 150.35 Z" />
</g>
<g id="#0202028d">
<path fill="#020202" opacity="0.55" d=" M 57.80 151.83 C 64.83 152.75 71.97 152.28 78.98 153.43 C 71.54 153.75 63.74 154.54 56.65 151.73 L 57.80 151.83 Z" />
</g>
<g id="#04040489">
<path fill="#040404" opacity="0.54" d=" M 30.19 155.42 C 32.39 155.52 34.58 155.62 36.77 155.73 C 37.02 156.86 37.27 158.00 37.53 159.14 C 37.05 158.74 36.09 157.94 35.61 157.53 C 33.99 157.07 32.38 156.59 30.77 156.11 C 30.66 157.59 30.55 159.06 30.44 160.54 C 29.27 160.65 28.11 160.76 26.94 160.90 C 29.08 159.81 29.63 157.53 30.19 155.42 Z" />
</g>
<g id="#020202ff">
<path fill="#020202" opacity="1.00" d=" M 119.19 159.62 C 124.84 156.82 130.94 161.15 133.50 166.09 C 133.97 167.84 132.73 168.54 131.19 168.80 C 129.86 164.02 124.94 161.98 120.44 161.42 C 120.02 160.82 119.61 160.22 119.19 159.62 Z" />
</g>
<g id="#020202dd">
<path fill="#020202" opacity="0.87" d=" M 52.94 165.04 C 53.96 163.15 55.79 161.97 57.73 161.18 C 56.49 165.16 54.95 169.12 55.05 173.37 C 53.93 173.48 52.81 173.60 51.69 173.71 C 51.84 170.82 51.05 167.54 52.94 165.04 Z" />
</g>
<g id="#0303037c">
<path fill="#030303" opacity="0.49" d=" M 84.36 181.44 C 85.26 175.87 84.33 170.24 84.71 164.64 C 85.47 165.56 86.21 166.50 86.92 167.46 C 86.52 167.54 85.71 167.70 85.30 167.78 C 85.35 172.30 87.09 177.39 84.36 181.44 Z" />
</g>
<g id="#030303ff">
<path fill="#030303" opacity="1.00" d=" M 59.76 168.75 C 61.06 168.67 62.36 168.60 63.66 168.54 C 62.28 171.67 61.33 174.97 61.06 178.40 C 60.12 178.50 59.18 178.60 58.25 178.71 C 58.56 175.36 59.24 172.06 59.76 168.75 Z" />
<path fill="#030303" opacity="1.00" d=" M 126.67 170.43 C 127.33 170.43 128.64 170.42 129.30 170.41 C 132.67 173.97 134.99 178.42 135.94 183.22 C 134.55 182.68 132.55 182.57 132.36 180.70 C 131.35 176.81 128.42 173.95 126.67 170.43 Z" />
</g>
<g id="#04040468">
<path fill="#040404" opacity="0.41" d=" M 85.63 195.99 C 86.97 196.63 89.20 196.42 89.59 198.27 C 87.47 200.45 84.14 199.27 81.60 198.60 C 83.77 198.44 85.94 198.29 88.12 198.13 C 87.50 197.59 86.25 196.53 85.63 195.99 Z" />
</g>
</svg>
