<?xml version="1.0" encoding="UTF-8" ?>
<!DOCTYPE svg PUBLIC "-//W3C//DTD SVG 1.1//EN" "http://www.w3.org/Graphics/SVG/1.1/DTD/svg11.dtd">
<svg width="210pt" height="220pt" viewBox="0 0 210 220" version="1.1" xmlns="http://www.w3.org/2000/svg">
<g id="#090909f9">
<path fill="#090909" opacity="0.98" d=" M 91.02 29.23 C 99.24 27.57 107.65 28.65 115.97 28.30 C 128.21 28.91 140.55 31.69 151.15 38.06 C 152.44 40.27 155.24 40.84 156.51 43.06 C 160.34 48.42 165.21 53.33 166.96 59.87 C 168.55 64.09 169.76 68.44 170.80 72.83 C 172.32 71.51 173.52 69.48 175.75 69.33 C 175.04 72.42 173.28 75.20 170.97 77.33 L 173.35 78.07 C 173.06 77.66 172.48 76.84 172.19 76.43 L 173.69 75.65 L 175.12 75.90 L 175.62 76.95 C 174.27 78.95 172.78 80.85 171.40 82.82 C 171.91 90.79 171.21 98.90 168.45 106.42 C 163.84 114.52 159.72 123.35 152.22 129.24 C 149.83 131.89 146.40 133.12 143.63 135.28 C 148.23 136.51 153.35 134.38 157.67 136.51 C 152.15 137.02 146.45 135.90 141.04 136.94 C 135.86 140.17 129.78 140.83 123.95 142.19 C 113.91 144.07 103.66 142.57 93.56 143.56 C 94.53 150.07 94.53 156.71 94.71 163.29 C 100.71 167.26 106.11 172.75 108.90 179.45 C 108.44 179.76 107.53 180.39 107.08 180.70 C 106.51 179.81 105.94 178.92 105.37 178.03 C 102.83 173.75 99.35 170.15 95.63 166.89 C 95.51 170.95 95.20 175.02 95.63 179.07 C 94.54 179.60 93.47 180.19 92.44 180.83 C 92.75 175.74 92.72 170.65 92.54 165.56 C 87.87 164.60 83.68 168.00 80.21 170.71 C 76.85 173.94 71.38 175.34 70.03 180.28 C 69.56 180.51 68.61 180.95 68.14 181.17 C 67.45 186.46 68.06 191.80 67.82 197.11 L 67.21 196.93 C 67.04 191.24 66.81 185.50 67.63 179.85 C 65.68 179.81 64.42 181.25 63.21 182.49 C 63.45 183.40 63.95 185.21 64.19 186.12 L 63.09 185.39 C 62.26 188.42 61.09 191.34 59.74 194.18 C 59.13 195.48 58.44 196.74 57.76 198.01 C 57.18 197.86 56.01 197.55 55.42 197.39 L 55.76 196.63 C 57.94 191.13 62.62 186.36 62.63 180.22 C 63.95 180.05 65.33 180.07 66.61 179.65 C 68.72 177.40 69.89 174.28 72.77 172.79 C 77.11 170.27 80.42 166.27 85.09 164.28 C 87.50 163.15 90.06 162.39 92.53 161.41 C 92.18 155.12 90.99 148.90 91.59 142.57 C 86.19 142.22 81.27 139.85 76.11 138.47 C 72.46 137.60 69.29 135.54 65.92 133.97 C 64.18 132.99 62.46 131.81 61.42 130.04 C 72.96 134.40 84.33 140.59 97.00 140.50 C 104.68 140.34 112.38 140.80 120.04 140.27 C 127.48 139.00 135.46 138.33 141.81 133.82 C 145.25 131.34 148.95 129.26 152.71 127.29 C 151.85 126.47 150.98 125.68 150.10 124.88 C 151.39 123.66 152.66 122.44 153.94 121.22 C 153.34 122.59 152.74 123.97 152.14 125.34 C 152.80 125.23 154.13 125.01 154.80 124.90 C 158.34 118.27 163.47 112.50 166.00 105.35 C 154.96 108.61 143.48 109.85 132.05 110.65 C 121.59 110.10 110.63 108.38 101.90 102.17 C 95.23 97.84 90.88 90.63 88.77 83.09 C 88.39 81.30 87.79 79.26 88.65 77.54 C 94.57 70.01 103.09 63.68 113.05 63.59 C 123.36 62.56 133.10 67.11 141.78 72.16 C 145.74 74.37 149.11 78.16 153.82 78.67 C 160.07 77.64 163.55 71.76 167.58 67.52 C 165.04 58.42 159.93 50.34 153.73 43.31 C 145.57 35.37 133.92 33.20 123.13 31.29 C 117.50 30.03 111.71 30.69 105.99 30.56 C 95.15 30.21 83.83 31.71 74.32 37.25 C 69.17 39.91 63.41 41.97 59.70 46.69 C 52.75 53.95 48.55 63.17 44.14 72.06 C 39.91 82.92 36.86 95.12 39.64 106.71 C 44.22 113.22 49.17 119.49 55.05 124.89 C 57.31 126.70 59.62 128.47 61.41 130.78 C 59.90 130.33 58.41 129.83 56.94 129.28 C 50.12 124.09 44.60 117.36 39.67 110.40 C 37.16 107.55 37.01 103.58 35.88 100.12 C 36.80 94.65 35.64 88.74 38.34 83.69 C 38.58 78.61 41.00 74.02 42.79 69.36 C 45.17 66.59 45.58 62.73 47.99 60.04 C 50.15 54.06 54.68 49.44 58.52 44.51 C 61.77 41.89 64.70 38.57 68.88 37.45 C 76.01 34.13 82.98 29.87 91.02 29.23 M 105.43 67.54 C 99.58 70.15 93.43 73.78 90.68 79.83 C 91.57 84.73 93.09 89.76 96.52 93.53 C 99.88 97.13 103.31 100.91 107.93 102.90 C 109.03 104.07 110.62 104.49 112.11 104.96 C 113.43 105.29 114.76 105.60 116.09 105.89 C 119.53 106.88 123.06 107.34 126.62 107.57 C 130.70 108.65 134.99 108.50 139.04 107.39 C 142.91 107.54 146.69 106.85 150.47 106.12 C 156.34 105.80 162.54 105.07 167.50 101.63 C 168.03 99.91 168.79 98.20 168.75 96.37 C 167.60 95.47 166.15 96.36 165.10 96.94 C 162.85 97.79 160.58 98.69 158.12 98.56 C 158.60 96.59 160.49 95.71 161.94 94.56 C 161.41 94.46 160.34 94.26 159.81 94.16 C 159.24 96.05 158.03 97.49 156.09 98.14 C 156.81 92.35 162.66 89.51 164.72 84.39 C 166.13 81.18 169.15 78.69 169.47 75.06 C 168.75 73.86 168.32 72.55 168.18 71.13 C 164.69 72.63 164.73 77.18 161.39 78.83 C 161.49 79.25 161.69 80.08 161.79 80.49 L 160.57 80.45 C 161.08 83.94 156.71 84.57 154.72 86.47 C 151.31 86.70 147.83 86.72 144.44 86.23 L 144.37 85.15 C 147.49 85.52 150.62 86.23 153.78 85.92 L 154.25 86.20 C 154.79 84.72 156.43 84.46 157.45 83.46 C 157.89 82.17 158.78 81.25 160.10 80.71 C 158.28 79.82 156.43 80.59 154.67 81.19 C 152.33 81.09 150.39 79.37 148.14 79.24 C 144.37 76.40 140.26 74.05 136.12 71.79 C 130.44 69.08 124.53 65.99 118.05 66.26 C 113.84 66.36 109.41 65.76 105.43 67.54 M 164.28 89.81 C 165.48 90.92 166.01 92.47 166.58 93.95 C 167.47 93.75 168.36 93.56 169.26 93.36 C 169.24 90.64 169.30 87.91 169.28 85.19 C 167.27 86.33 165.79 88.11 164.28 89.81 Z" />
<path fill="#090909" opacity="0.98" d=" M 197.51 60.83 C 199.80 60.86 202.09 60.86 204.38 60.84 C 204.41 61.22 204.45 61.98 204.48 62.36 C 202.13 62.34 199.78 62.35 197.43 62.40 C 197.45 62.00 197.49 61.22 197.51 60.83 Z" />
<path fill="#090909" opacity="0.98" d=" M 98.16 81.01 C 104.01 82.28 109.52 84.70 115.08 86.85 C 121.13 88.44 126.64 91.56 132.73 93.02 C 137.26 94.12 141.59 95.86 146.01 97.32 C 145.80 97.84 145.39 98.86 145.19 99.37 C 131.28 99.56 117.37 99.44 103.46 99.44 C 103.48 98.78 103.53 97.45 103.55 96.78 C 107.25 96.88 110.95 96.94 114.65 96.67 C 113.23 94.88 113.75 92.76 114.58 90.83 C 113.06 90.65 111.53 90.46 110.06 90.01 C 105.44 88.73 100.61 88.09 96.18 86.19 C 96.30 83.40 99.06 84.54 100.57 85.04 C 102.35 85.63 104.24 85.87 106.12 85.62 C 104.81 84.99 103.46 84.49 102.10 84.02 C 101.01 83.70 99.91 83.41 98.81 83.13 C 98.65 82.60 98.32 81.54 98.16 81.01 M 121.99 92.95 C 120.16 93.52 120.85 95.75 120.56 97.16 C 127.47 97.10 134.39 97.06 141.28 97.55 C 138.82 96.59 136.18 96.32 133.55 96.45 L 133.47 95.54 C 131.00 95.25 128.57 94.67 126.19 93.95 C 124.79 93.62 123.43 93.03 121.99 92.95 Z" />
<path fill="#090909" opacity="0.98" d=" M 76.40 86.41 C 76.62 86.38 77.05 86.32 77.27 86.29 C 77.46 90.56 80.73 93.68 83.21 96.84 C 86.82 101.52 92.42 103.80 97.36 106.71 C 102.81 108.21 108.62 108.38 113.99 110.32 C 109.40 111.30 104.72 111.54 100.05 111.41 C 99.60 111.17 98.70 110.68 98.25 110.44 C 95.40 110.61 92.38 110.72 89.95 108.95 C 86.46 106.68 81.87 106.29 79.03 103.05 C 73.86 97.85 68.68 92.66 64.19 86.85 C 67.52 88.19 68.56 91.84 71.15 94.01 C 74.93 97.56 77.92 102.07 82.40 104.80 C 88.07 106.53 92.94 110.99 99.26 109.70 C 97.82 106.64 94.05 106.11 91.48 104.29 C 85.00 101.19 80.82 95.13 76.76 89.48 C 76.64 88.45 76.52 87.43 76.40 86.41 M 99.31 108.97 C 99.44 112.39 102.26 107.41 99.31 108.97 Z" />
<path fill="#090909" opacity="0.98" d=" M 151.71 95.82 C 152.44 96.89 152.45 98.19 152.60 99.43 L 153.64 99.41 L 153.45 100.35 C 154.39 100.67 155.27 101.09 156.11 101.62 C 154.53 101.57 152.88 101.32 151.80 100.04 C 151.33 98.69 151.69 97.21 151.71 95.82 Z" />
<path fill="#090909" opacity="0.98" d=" M 146.58 100.04 C 146.52 97.25 151.50 97.62 149.28 100.36 C 148.15 101.27 147.25 101.16 146.58 100.04 Z" />
<path fill="#090909" opacity="0.98" d=" M 67.98 121.11 C 69.82 122.15 72.47 122.73 73.10 125.04 C 71.20 124.07 68.58 123.49 67.98 121.11 Z" />
<path fill="#090909" opacity="0.98" d=" M 0.68 142.68 C 7.78 141.82 15.05 142.34 22.20 142.48 C 15.10 143.37 7.83 142.89 0.68 142.68 Z" />
<path fill="#090909" opacity="0.98" d=" M 109.02 183.65 C 109.20 183.17 109.54 182.20 109.72 181.72 C 110.13 182.30 110.94 183.46 111.35 184.04 C 114.70 188.93 116.09 194.81 118.65 200.11 C 117.96 200.05 116.59 199.93 115.90 199.88 C 113.41 194.57 111.11 189.09 109.02 183.65 Z" />
<path fill="#090909" opacity="0.98" d=" M 89.52 199.65 C 89.80 198.34 89.65 196.85 90.59 195.78 C 91.78 196.89 91.81 198.55 92.14 200.03 C 91.49 199.94 90.18 199.74 89.52 199.65 Z" />
</g>
<g id="#7e7e7eff">
<path fill="#7e7e7e" opacity="1.00" d=" M 74.32 37.25 C 83.83 31.71 95.15 30.21 105.99 30.56 C 111.71 30.69 117.50 30.03 123.13 31.29 C 133.92 33.20 145.57 35.37 153.73 43.31 C 159.93 50.34 165.04 58.42 167.58 67.52 C 163.55 71.76 160.07 77.64 153.82 78.67 C 149.11 78.16 145.74 74.37 141.78 72.16 C 133.10 67.11 123.36 62.56 113.05 63.59 C 103.09 63.68 94.57 70.01 88.65 77.54 C 87.79 79.26 88.39 81.30 88.77 83.09 C 90.88 90.63 95.23 97.84 101.90 102.17 C 110.63 108.38 121.59 110.10 132.05 110.65 C 143.48 109.85 154.96 108.61 166.00 105.35 C 163.47 112.50 158.34 118.27 154.80 124.90 C 154.13 125.01 152.80 125.23 152.14 125.34 C 152.74 123.97 153.34 122.59 153.94 121.22 C 152.66 122.44 151.39 123.66 150.10 124.88 C 150.98 125.68 151.85 126.47 152.71 127.29 C 148.95 129.26 145.25 131.34 141.81 133.82 C 135.46 138.33 127.48 139.00 120.04 140.27 C 112.38 140.80 104.68 140.34 97.00 140.50 C 84.33 140.59 72.96 134.40 61.42 130.04 C 62.46 131.81 64.18 132.99 65.92 133.97 C 62.89 132.47 59.83 131.04 56.94 129.28 C 58.41 129.83 59.90 130.33 61.41 130.78 C 59.62 128.47 57.31 126.70 55.05 124.89 C 49.17 119.49 44.22 113.22 39.64 106.71 C 36.86 95.12 39.91 82.92 44.14 72.06 C 48.55 63.17 52.75 53.95 59.70 46.69 C 63.41 41.97 69.17 39.91 74.32 37.25 M 76.40 86.41 C 76.52 87.43 76.64 88.45 76.76 89.48 C 80.82 95.13 85.00 101.19 91.48 104.29 C 94.05 106.11 97.82 106.64 99.26 109.70 C 92.94 110.99 88.07 106.53 82.40 104.80 C 77.92 102.07 74.93 97.56 71.15 94.01 C 68.56 91.84 67.52 88.19 64.19 86.85 C 68.68 92.66 73.86 97.85 79.03 103.05 C 81.87 106.29 86.46 106.68 89.95 108.95 C 92.38 110.72 95.40 110.61 98.25 110.44 C 98.70 110.68 99.60 111.17 100.05 111.41 C 104.72 111.54 109.40 111.30 113.99 110.32 C 108.62 108.38 102.81 108.21 97.36 106.71 C 92.42 103.80 86.82 101.52 83.21 96.84 C 80.73 93.68 77.46 90.56 77.27 86.29 C 77.05 86.32 76.62 86.38 76.40 86.41 M 67.98 121.11 C 68.58 123.49 71.20 124.07 73.10 125.04 C 72.47 122.73 69.82 122.15 67.98 121.11 Z" />
<path fill="#7e7e7e" opacity="1.00" d=" M 121.78 68.83 C 127.87 71.23 132.69 76.29 139.20 77.74 C 141.54 78.27 143.75 79.20 146.00 80.02 C 146.54 79.83 147.61 79.43 148.14 79.24 C 150.39 79.37 152.33 81.09 154.67 81.19 C 153.59 81.41 152.51 81.61 151.42 81.79 L 151.37 83.05 C 153.39 83.17 155.42 83.29 157.45 83.46 C 156.43 84.46 154.79 84.72 154.25 86.20 L 153.78 85.92 C 149.76 82.64 144.05 84.44 139.88 81.45 C 139.23 81.69 138.57 81.92 137.92 82.16 C 140.17 82.90 142.67 83.36 144.37 85.15 L 144.44 86.23 C 141.15 85.18 137.89 84.02 134.55 83.15 C 134.57 82.58 134.62 81.45 134.65 80.88 C 129.80 76.07 121.87 75.72 117.80 70.09 C 121.63 70.99 124.59 73.76 128.22 75.13 C 125.98 73.13 123.53 71.31 121.78 68.83 M 134.41 78.46 C 134.72 79.77 137.38 80.79 138.56 79.87 C 138.63 78.01 135.69 77.90 134.41 78.46 Z" />
<path fill="#7e7e7e" opacity="1.00" d=" M 167.03 75.50 C 167.56 76.08 167.56 76.08 167.03 75.50 Z" />
<path fill="#7e7e7e" opacity="1.00" d=" M 158.36 86.62 C 158.78 86.48 159.60 86.20 160.02 86.07 C 158.39 89.38 156.48 93.10 153.14 94.95 C 153.89 91.69 156.39 89.20 158.36 86.62 Z" />
<path fill="#7e7e7e" opacity="1.00" d=" M 133.28 88.59 C 133.89 88.53 135.10 88.40 135.71 88.34 C 139.12 92.03 145.94 91.12 148.08 96.00 C 144.19 94.07 139.71 93.34 136.26 90.62 C 135.66 90.51 134.48 90.30 133.89 90.19 C 133.74 89.79 133.43 88.99 133.28 88.59 Z" />
<path fill="#7e7e7e" opacity="1.00" d=" M 165.10 96.94 C 166.15 96.36 167.60 95.47 168.75 96.37 C 168.79 98.20 168.03 99.91 167.50 101.63 C 162.54 105.07 156.34 105.80 150.47 106.12 C 154.37 104.96 158.37 104.21 162.36 103.43 C 160.72 102.35 159.12 101.21 157.60 99.97 C 159.96 99.44 162.35 98.98 164.75 98.60 L 165.10 96.94 Z" />
<path fill="#7e7e7e" opacity="1.00" d=" M 125.00 101.91 C 128.42 101.35 131.89 101.09 135.36 101.32 C 133.92 104.74 129.62 102.90 126.74 103.40 C 129.06 103.84 131.87 103.31 133.61 105.30 C 128.07 105.54 122.39 105.75 117.05 103.97 C 115.31 103.27 113.66 104.31 112.11 104.96 C 110.62 104.49 109.03 104.07 107.93 102.90 C 108.47 103.00 109.55 103.21 110.10 103.32 C 114.78 100.99 120.06 102.81 125.00 101.91 Z" />
<path fill="#7e7e7e" opacity="1.00" d=" M 99.31 108.97 C 102.26 107.41 99.44 112.39 99.31 108.97 Z" />
<path fill="#7e7e7e" opacity="1.00" d=" M 105.37 178.03 C 105.94 178.92 106.51 179.81 107.08 180.70 C 107.53 180.39 108.44 179.76 108.90 179.45 C 109.86 179.85 110.83 180.24 111.80 180.62 C 111.64 181.76 111.49 182.90 111.35 184.04 C 110.94 183.46 110.13 182.30 109.72 181.72 C 109.54 182.20 109.20 183.17 109.02 183.65 C 107.73 182.84 106.29 182.27 104.73 182.47 C 103.24 183.86 103.08 186.89 105.03 187.94 C 106.64 188.54 108.43 188.32 110.12 188.56 C 109.70 191.83 105.87 190.07 103.71 190.58 C 103.70 192.84 103.69 195.09 103.69 197.35 C 106.22 197.59 108.76 197.57 111.29 197.75 C 111.46 198.31 111.81 199.41 111.99 199.96 C 105.37 199.87 98.76 199.90 92.14 200.03 C 91.81 198.55 91.78 196.89 90.59 195.78 C 90.51 194.42 90.43 193.06 90.37 191.70 C 86.32 192.26 87.80 197.04 87.59 199.85 C 86.75 199.89 85.08 199.98 84.24 200.02 C 84.18 195.97 84.29 191.93 84.17 187.89 C 83.21 186.36 83.01 184.48 84.15 183.00 C 84.18 182.29 84.25 180.87 84.28 180.16 C 85.26 180.24 87.23 180.38 88.22 180.46 C 88.18 181.94 88.18 183.43 88.24 184.92 C 90.76 186.10 91.05 182.08 92.44 180.83 C 93.47 180.19 94.54 179.60 95.63 179.07 C 97.69 182.61 94.06 186.40 93.57 190.01 C 95.85 192.86 95.83 197.97 99.65 199.19 C 99.48 193.08 99.56 186.98 99.54 180.87 C 100.04 180.59 101.04 180.04 101.54 179.76 C 103.04 179.79 104.54 179.81 106.05 179.84 L 105.37 178.03 Z" />
<path fill="#7e7e7e" opacity="1.00" d=" M 126.85 179.83 C 127.96 179.83 129.07 179.83 130.18 179.84 C 131.41 182.46 132.52 185.18 132.70 188.11 C 134.17 191.94 135.23 195.90 135.92 199.94 C 134.48 199.86 133.04 199.77 131.60 199.68 C 131.49 197.91 131.37 196.13 131.28 194.36 C 129.44 194.33 127.60 194.32 125.76 194.31 C 125.49 196.23 125.08 198.12 124.53 199.98 C 123.27 199.88 122.01 199.78 120.75 199.69 C 121.52 196.79 121.61 193.69 123.19 191.05 C 123.86 187.15 125.16 183.40 126.85 179.83 M 127.40 189.01 C 126.06 190.00 127.39 192.68 128.94 191.56 C 130.30 190.62 128.90 187.75 127.40 189.01 Z" />
<path fill="#7e7e7e" opacity="1.00" d=" M 199.69 180.87 C 201.09 179.84 202.75 179.77 204.37 180.23 C 204.79 182.19 205.33 184.13 205.87 186.06 C 207.07 190.03 208.08 194.06 209.28 198.03 C 210.57 200.80 207.11 199.63 205.69 199.81 C 205.53 197.74 204.61 195.94 203.23 194.43 C 202.29 194.40 200.41 194.35 199.47 194.32 C 198.63 196.03 198.49 197.95 198.33 199.82 C 196.97 199.86 195.61 199.91 194.26 199.96 C 194.77 197.84 195.29 195.72 195.81 193.60 C 196.62 189.21 198.44 185.13 199.69 180.87 M 200.69 187.35 C 200.60 189.03 200.53 190.72 200.49 192.41 C 201.19 192.33 202.61 192.18 203.32 192.11 C 203.67 189.90 203.97 186.59 200.69 187.35 Z" />
<path fill="#7e7e7e" opacity="1.00" d=" M 2.44 180.34 C 10.99 180.50 19.57 179.99 28.09 180.61 C 26.91 184.06 22.03 181.02 20.46 183.99 C 20.39 185.19 20.36 186.40 20.39 187.61 C 22.08 187.53 23.77 187.45 25.46 187.38 C 25.81 188.43 26.16 189.48 26.52 190.53 C 24.19 190.47 21.87 190.41 19.54 190.39 C 19.55 192.78 19.56 195.17 19.59 197.57 C 22.19 197.70 24.79 197.72 27.39 197.70 C 27.50 198.25 27.72 199.35 27.83 199.90 C 23.78 199.98 19.72 199.95 15.67 199.83 C 15.73 193.97 15.66 188.12 15.72 182.26 C 12.71 182.50 9.68 182.56 6.65 182.57 C 6.62 184.60 6.58 186.63 6.55 188.66 C 8.87 189.11 13.35 187.38 12.68 191.28 C 10.65 191.34 8.63 191.39 6.60 191.47 C 6.59 194.32 6.58 197.17 6.59 200.03 C 5.19 199.95 3.79 199.87 2.40 199.80 C 2.52 193.31 2.36 186.82 2.44 180.34 Z" />
<path fill="#7e7e7e" opacity="1.00" d=" M 30.37 180.29 C 36.40 180.41 42.43 180.21 48.46 180.50 C 48.83 185.91 48.61 191.33 48.63 196.75 C 51.01 196.86 53.39 196.85 55.76 196.63 L 55.42 197.39 C 56.01 197.55 57.18 197.86 57.76 198.01 C 57.24 198.67 56.69 199.30 56.12 199.92 C 52.19 200.00 48.25 199.81 44.31 199.90 C 44.24 196.26 44.32 192.62 43.98 189.00 C 44.43 186.74 44.29 184.45 43.90 182.20 C 40.77 182.53 37.61 182.57 34.46 182.56 C 34.40 184.44 34.43 186.33 34.58 188.22 C 36.57 188.26 38.57 188.33 40.56 188.40 L 40.52 190.44 C 38.54 190.54 36.56 190.63 34.58 190.72 C 34.37 192.96 34.34 195.20 34.48 197.44 C 37.02 197.50 39.56 197.53 42.10 197.59 C 42.23 198.15 42.50 199.25 42.63 199.81 C 38.51 200.03 34.39 199.91 30.27 199.86 C 30.41 193.34 30.21 186.81 30.37 180.29 Z" />
<path fill="#7e7e7e" opacity="1.00" d=" M 154.45 180.35 C 155.48 180.34 156.51 180.35 157.54 180.35 C 157.62 182.34 157.69 184.34 157.91 186.33 C 158.50 190.87 158.34 195.45 157.73 199.97 C 156.11 199.90 154.50 199.81 152.89 199.67 C 152.18 196.91 151.06 194.29 149.96 191.68 C 149.40 191.86 148.30 192.23 147.74 192.41 C 147.60 194.92 147.72 197.44 147.70 199.96 C 146.68 199.95 144.65 199.93 143.64 199.91 C 143.63 193.42 143.60 186.94 143.72 180.45 C 145.50 180.42 147.28 180.42 149.07 180.45 C 149.89 182.87 150.97 187.59 154.44 185.43 C 154.44 183.73 154.45 182.04 154.45 180.35 Z" />
<path fill="#7e7e7e" opacity="1.00" d=" M 63.21 182.49 C 64.42 181.25 65.68 179.81 67.63 179.85 C 66.81 185.50 67.04 191.24 67.21 196.93 L 67.82 197.11 C 69.98 197.76 72.39 197.11 74.46 198.17 C 74.39 198.70 74.24 199.78 74.17 200.32 C 70.57 199.59 66.88 199.92 63.24 199.99 C 63.22 197.82 63.33 195.65 63.11 193.50 C 62.21 191.69 60.64 193.45 59.74 194.18 C 61.09 191.34 62.26 188.42 63.09 185.39 L 64.19 186.12 C 63.95 185.21 63.45 183.40 63.21 182.49 Z" />
<path fill="#7e7e7e" opacity="1.00" d=" M 75.70 180.30 C 77.26 180.28 78.81 180.29 80.37 180.35 C 80.30 186.81 80.33 193.27 80.41 199.73 C 79.24 199.90 76.91 200.24 75.74 200.41 C 75.96 193.70 74.96 186.98 75.70 180.30 Z" />
<path fill="#7e7e7e" opacity="1.00" d=" M 161.67 180.57 C 162.59 180.56 164.44 180.53 165.36 180.51 C 165.45 182.44 165.54 184.37 165.60 186.30 C 165.50 190.81 165.56 195.33 165.52 199.84 C 164.15 199.87 162.78 199.90 161.42 199.94 C 161.36 193.48 161.35 187.02 161.67 180.57 Z" />
<path fill="#7e7e7e" opacity="1.00" d=" M 169.70 183.86 C 169.69 182.47 170.15 180.45 171.98 180.69 C 174.50 180.68 174.78 183.73 175.70 185.46 L 176.77 185.17 C 177.59 187.17 178.44 189.15 179.33 191.12 C 179.57 187.84 179.01 184.28 180.44 181.24 C 182.16 179.84 183.74 182.21 183.01 183.83 C 181.60 189.04 182.14 194.48 182.68 199.77 C 181.68 199.85 179.68 200.00 178.67 200.07 C 177.59 197.66 176.48 195.21 176.17 192.56 C 175.54 192.39 174.26 192.04 173.62 191.87 C 173.20 194.54 173.19 197.24 173.43 199.93 C 172.17 199.95 170.92 199.89 169.69 199.73 C 169.54 194.44 169.35 189.14 169.70 183.86 Z" />
<path fill="#7e7e7e" opacity="1.00" d=" M 188.05 182.18 C 189.19 181.87 191.34 180.07 192.04 181.96 C 192.61 187.30 191.99 192.72 192.51 198.08 C 191.66 198.68 190.81 199.28 189.96 199.88 C 188.01 199.87 186.05 199.88 184.11 199.88 C 184.18 197.11 186.60 197.70 188.54 197.81 C 188.91 192.61 189.25 187.31 188.05 182.18 Z" />
</g>
<g id="#fcfcfcff">
<path fill="#fcfcfc" opacity="1.00" d=" M 105.43 67.54 C 109.41 65.76 113.84 66.36 118.05 66.26 C 124.53 65.99 130.44 69.08 136.12 71.79 C 140.26 74.05 144.37 76.40 148.14 79.24 C 147.61 79.43 146.54 79.83 146.00 80.02 C 143.75 79.20 141.54 78.27 139.20 77.74 C 132.69 76.29 127.87 71.23 121.78 68.83 C 123.53 71.31 125.98 73.13 128.22 75.13 C 124.59 73.76 121.63 70.99 117.80 70.09 C 121.87 75.72 129.80 76.07 134.65 80.88 C 134.62 81.45 134.57 82.58 134.55 83.15 C 137.89 84.02 141.15 85.18 144.44 86.23 C 147.83 86.72 151.31 86.70 154.72 86.47 C 156.71 84.57 161.08 83.94 160.57 80.45 L 161.79 80.49 C 161.69 80.08 161.49 79.25 161.39 78.83 C 164.73 77.18 164.69 72.63 168.18 71.13 C 168.32 72.55 168.75 73.86 169.47 75.06 C 169.15 78.69 166.13 81.18 164.72 84.39 C 162.66 89.51 156.81 92.35 156.09 98.14 C 158.03 97.49 159.24 96.05 159.81 94.16 C 160.34 94.26 161.41 94.46 161.94 94.56 C 160.49 95.71 158.60 96.59 158.12 98.56 C 160.58 98.69 162.85 97.79 165.10 96.94 L 164.75 98.60 C 162.35 98.98 159.96 99.44 157.60 99.97 C 159.12 101.21 160.72 102.35 162.36 103.43 C 158.37 104.21 154.37 104.96 150.47 106.12 C 146.69 106.85 142.91 107.54 139.04 107.39 C 134.99 108.50 130.70 108.65 126.62 107.57 C 123.06 107.34 119.53 106.88 116.09 105.89 C 114.76 105.60 113.43 105.29 112.11 104.96 C 113.66 104.31 115.31 103.27 117.05 103.97 C 122.39 105.75 128.07 105.54 133.61 105.30 C 131.87 103.31 129.06 103.84 126.74 103.40 C 129.62 102.90 133.92 104.74 135.36 101.32 C 131.89 101.09 128.42 101.35 125.00 101.91 C 120.06 102.81 114.78 100.99 110.10 103.32 C 109.55 103.21 108.47 103.00 107.93 102.90 C 103.31 100.91 99.88 97.13 96.52 93.53 C 93.09 89.76 91.57 84.73 90.68 79.83 C 93.43 73.78 99.58 70.15 105.43 67.54 M 167.03 75.50 C 167.56 76.08 167.56 76.08 167.03 75.50 M 98.16 81.01 C 98.32 81.54 98.65 82.60 98.81 83.13 C 99.91 83.41 101.01 83.70 102.10 84.02 C 103.46 84.49 104.81 84.99 106.12 85.62 C 104.24 85.87 102.35 85.63 100.57 85.04 C 99.06 84.54 96.30 83.40 96.18 86.19 C 100.61 88.09 105.44 88.73 110.06 90.01 C 111.53 90.46 113.06 90.65 114.58 90.83 C 113.75 92.76 113.23 94.88 114.65 96.67 C 110.95 96.94 107.25 96.88 103.55 96.78 C 103.53 97.45 103.48 98.78 103.46 99.44 C 117.37 99.44 131.28 99.56 145.19 99.37 C 145.39 98.86 145.80 97.84 146.01 97.32 C 141.59 95.86 137.26 94.12 132.73 93.02 C 126.64 91.56 121.13 88.44 115.08 86.85 C 109.52 84.70 104.01 82.28 98.16 81.01 M 158.36 86.62 C 156.39 89.20 153.89 91.69 153.14 94.95 C 156.48 93.10 158.39 89.38 160.02 86.07 C 159.60 86.20 158.78 86.48 158.36 86.62 M 133.28 88.59 C 133.43 88.99 133.74 89.79 133.89 90.19 C 134.48 90.30 135.66 90.51 136.26 90.62 C 139.71 93.34 144.19 94.07 148.08 96.00 C 145.94 91.12 139.12 92.03 135.71 88.34 C 135.10 88.40 133.89 88.53 133.28 88.59 M 151.71 95.82 C 151.69 97.21 151.33 98.69 151.80 100.04 C 152.88 101.32 154.53 101.57 156.11 101.62 C 155.27 101.09 154.39 100.67 153.45 100.35 L 153.64 99.41 L 152.60 99.43 C 152.45 98.19 152.44 96.89 151.71 95.82 M 146.58 100.04 C 147.25 101.16 148.15 101.27 149.28 100.36 C 151.50 97.62 146.52 97.25 146.58 100.04 Z" />
<path fill="#fcfcfc" opacity="1.00" d=" M 134.41 78.46 C 135.69 77.90 138.63 78.01 138.56 79.87 C 137.38 80.79 134.72 79.77 134.41 78.46 Z" />
<path fill="#fcfcfc" opacity="1.00" d=" M 154.67 81.19 C 156.43 80.59 158.28 79.82 160.10 80.71 C 158.78 81.25 157.89 82.17 157.45 83.46 C 155.42 83.29 153.39 83.17 151.37 83.05 L 151.42 81.79 C 152.51 81.61 153.59 81.41 154.67 81.19 Z" />
<path fill="#fcfcfc" opacity="1.00" d=" M 137.92 82.16 C 138.57 81.92 139.23 81.69 139.88 81.45 C 144.05 84.44 149.76 82.64 153.78 85.92 C 150.62 86.23 147.49 85.52 144.37 85.15 C 142.67 83.36 140.17 82.90 137.92 82.16 Z" />
<path fill="#fcfcfc" opacity="1.00" d=" M 164.28 89.81 C 165.79 88.11 167.27 86.33 169.28 85.19 C 169.30 87.91 169.24 90.64 169.26 93.36 C 168.36 93.56 167.47 93.75 166.58 93.95 C 166.01 92.47 165.48 90.92 164.28 89.81 Z" />
<path fill="#fcfcfc" opacity="1.00" d=" M 121.99 92.95 C 123.43 93.03 124.79 93.62 126.19 93.95 C 128.57 94.67 131.00 95.25 133.47 95.54 L 133.55 96.45 C 136.18 96.32 138.82 96.59 141.28 97.55 C 134.39 97.06 127.47 97.10 120.56 97.16 C 120.85 95.75 120.16 93.52 121.99 92.95 Z" />
<path fill="#fcfcfc" opacity="1.00" d=" M 169.38 181.89 C 168.77 179.43 171.93 179.10 173.56 179.67 C 175.92 181.33 175.41 185.81 179.12 185.78 C 179.32 183.91 179.68 182.05 179.52 180.18 C 180.83 180.26 182.15 180.33 183.46 180.44 C 184.10 183.68 182.66 186.76 182.68 189.98 C 182.61 192.55 182.76 195.13 182.78 197.70 C 184.69 197.57 186.50 196.95 188.25 196.20 C 188.79 191.35 188.29 186.49 187.68 181.67 C 189.10 180.98 190.46 179.11 192.16 179.54 C 195.56 183.28 191.67 189.36 193.87 193.25 C 194.35 193.34 195.33 193.52 195.81 193.60 C 195.29 195.72 194.77 197.84 194.26 199.96 C 192.82 199.93 191.39 199.90 189.96 199.88 C 190.81 199.28 191.66 198.68 192.51 198.08 C 191.99 192.72 192.61 187.30 192.04 181.96 C 191.34 180.07 189.19 181.87 188.05 182.18 C 189.25 187.31 188.91 192.61 188.54 197.81 C 186.60 197.70 184.18 197.11 184.11 199.88 C 183.75 199.86 183.04 199.80 182.68 199.77 C 182.14 194.48 181.60 189.04 183.01 183.83 C 183.74 182.21 182.16 179.84 180.44 181.24 C 179.01 184.28 179.57 187.84 179.33 191.12 C 178.44 189.15 177.59 187.17 176.77 185.17 L 175.70 185.46 C 174.78 183.73 174.50 180.68 171.98 180.69 C 170.15 180.45 169.69 182.47 169.70 183.86 C 169.35 189.14 169.54 194.44 169.69 199.73 C 168.99 193.88 169.63 187.82 169.38 181.89 Z" />
<path fill="#fcfcfc" opacity="1.00" d=" M 161.59 180.47 C 162.85 180.43 164.11 180.39 165.38 180.36 C 165.52 182.34 165.81 184.32 165.60 186.30 C 165.54 184.37 165.45 182.44 165.36 180.51 C 164.44 180.53 162.59 180.56 161.67 180.57 C 161.35 187.02 161.36 193.48 161.42 199.94 C 160.50 199.95 158.65 199.97 157.73 199.97 C 158.34 195.45 158.50 190.87 157.91 186.33 C 158.77 186.33 160.51 186.33 161.37 186.33 C 161.43 184.37 161.49 182.42 161.59 180.47 Z" />
</g>
</svg>
