<?xml version="1.0" encoding="UTF-8" ?>
<!DOCTYPE svg PUBLIC "-//W3C//DTD SVG 1.1//EN" "http://www.w3.org/Graphics/SVG/1.1/DTD/svg11.dtd">
<svg width="210pt" height="220pt" viewBox="0 0 210 220" version="1.1" xmlns="http://www.w3.org/2000/svg">
<g id="#000000fe">
<path fill="#000000" opacity="1.00" d=" M 66.20 13.29 C 69.25 11.57 71.01 7.44 74.95 7.55 C 80.85 7.42 86.98 6.91 92.65 8.94 C 95.33 9.82 97.62 11.51 100.08 12.83 C 103.41 11.82 106.43 9.67 110.00 9.55 C 115.56 9.01 120.91 11.03 125.94 13.17 C 135.29 16.95 143.34 23.61 153.19 26.22 C 156.24 27.12 158.94 25.21 161.41 23.74 C 162.26 32.28 167.33 39.86 174.31 44.68 C 182.52 50.43 191.55 54.88 200.15 60.00 C 201.75 58.12 203.50 56.37 205.46 54.86 C 205.55 57.09 205.96 59.39 205.36 61.57 C 202.68 67.67 196.86 71.33 192.24 75.81 C 194.28 86.33 195.48 97.48 191.91 107.83 C 190.92 110.82 189.11 113.52 186.49 115.32 C 182.72 117.96 180.39 122.52 175.86 124.04 C 170.11 125.97 163.96 125.68 157.99 125.69 C 153.23 125.63 148.31 126.21 143.73 124.55 C 143.73 126.87 143.79 130.32 140.87 130.90 C 136.76 131.87 134.11 125.95 130.12 127.97 C 127.29 129.26 128.90 132.69 129.11 135.01 C 128.70 137.59 128.50 140.19 128.10 142.77 C 124.89 152.91 122.77 163.39 120.75 173.81 C 119.19 175.85 117.35 177.69 116.03 179.92 C 117.18 180.77 118.38 181.56 119.44 182.53 C 120.01 184.68 118.85 186.89 117.23 188.26 C 112.96 189.88 108.89 187.27 105.01 185.83 C 98.64 185.15 92.25 184.63 85.88 183.97 C 78.07 183.10 70.79 179.07 62.80 179.62 C 62.63 182.21 62.30 184.80 61.51 187.29 C 63.11 190.06 66.19 190.91 68.65 192.63 C 69.93 192.75 71.23 192.76 72.50 192.50 C 75.27 191.23 77.91 192.20 80.31 193.79 C 80.92 196.29 81.45 198.85 80.80 201.42 C 77.60 202.62 74.50 204.39 71.02 204.51 C 65.84 204.76 60.67 204.22 55.49 204.51 C 55.47 209.72 55.09 214.97 53.62 220.00 L 49.90 220.00 C 48.70 218.43 47.81 216.66 46.76 214.99 C 48.04 215.49 49.32 216.01 50.59 216.55 C 50.99 216.57 51.81 216.61 52.21 216.63 C 52.45 212.77 53.18 208.96 53.50 205.11 C 53.57 203.49 54.64 201.87 56.13 201.23 C 62.51 203.16 69.42 203.12 75.86 201.42 C 77.39 201.11 80.37 200.20 79.06 198.04 C 78.84 197.23 78.39 195.61 78.17 194.80 C 73.67 192.62 68.59 194.10 63.86 193.13 C 58.17 190.03 58.52 182.12 61.66 177.29 C 66.47 177.04 71.11 178.66 75.87 179.01 C 80.42 180.71 85.14 181.71 89.98 182.18 C 93.98 182.50 98.05 182.08 101.99 183.05 C 105.95 184.17 109.84 185.65 113.89 186.44 C 115.66 186.72 116.82 185.12 117.98 184.10 C 116.26 182.84 114.58 181.52 112.98 180.12 C 115.68 177.23 118.68 174.14 118.55 169.87 C 122.28 161.55 121.57 151.89 125.79 143.70 C 126.25 138.84 126.75 133.88 126.73 128.95 C 127.59 125.48 131.21 125.28 134.18 125.38 C 136.11 126.93 138.13 128.36 140.22 129.69 C 142.07 128.28 141.86 126.03 141.38 123.99 C 136.19 121.21 129.03 118.74 127.87 112.15 C 127.80 108.02 126.34 104.18 125.29 100.24 C 125.96 100.60 127.29 101.32 127.95 101.68 C 130.19 106.44 129.01 112.37 132.44 116.55 C 135.98 119.95 140.97 121.07 145.35 122.99 C 149.61 125.10 154.45 124.18 159.01 124.13 C 164.53 123.20 170.37 124.12 175.56 121.58 C 179.18 120.82 181.37 117.76 183.66 115.15 C 183.12 104.74 182.38 93.94 177.46 84.51 C 175.95 79.49 171.75 75.95 170.14 70.98 C 163.68 67.31 158.29 61.65 151.03 59.47 C 147.93 58.27 144.57 58.30 141.31 58.05 C 139.71 57.76 138.10 57.87 136.56 58.34 C 133.65 59.09 130.77 59.94 127.88 60.75 C 126.95 61.76 126.01 62.76 125.07 63.76 C 124.62 63.66 123.71 63.45 123.26 63.34 C 123.35 62.25 123.48 61.17 123.66 60.09 C 127.32 58.12 131.59 57.82 135.24 56.01 C 128.82 54.33 123.04 51.01 116.94 48.54 C 101.02 48.07 85.18 44.51 70.91 37.35 C 58.00 43.81 49.16 56.10 43.85 69.22 C 42.58 72.99 41.27 76.93 41.23 80.94 C 42.18 88.01 42.50 95.18 41.86 102.30 C 41.35 106.34 43.48 110.06 44.99 113.67 C 49.14 122.43 56.28 129.62 64.88 134.04 C 67.19 135.47 65.09 138.67 64.27 140.48 C 62.28 143.79 59.62 146.67 56.57 149.02 C 55.76 144.12 59.42 138.75 55.50 134.53 C 50.09 134.77 44.90 133.04 39.65 132.03 C 39.60 143.39 39.73 154.74 39.76 166.09 L 40.32 166.84 C 40.29 167.66 40.23 169.28 40.20 170.09 C 38.73 176.95 37.12 183.92 37.64 190.99 C 37.85 196.00 37.79 201.02 37.62 206.04 C 37.53 210.90 35.31 215.36 34.14 220.00 L 30.88 220.00 C 35.94 214.86 34.00 207.39 34.90 200.96 C 35.56 195.99 35.60 190.98 35.44 185.98 C 35.25 179.91 37.59 174.12 37.41 168.05 C 37.32 156.33 37.42 144.61 37.38 132.89 C 37.67 130.54 34.79 130.11 33.32 129.12 C 25.37 125.19 17.22 117.73 18.22 108.04 C 17.89 103.58 20.91 99.99 21.76 95.79 C 20.92 95.59 19.25 95.20 18.41 95.00 C 19.93 90.04 23.68 86.27 27.64 83.11 C 26.87 70.26 25.88 56.49 32.09 44.70 C 35.07 38.39 40.76 34.14 45.97 29.79 C 45.08 29.64 43.30 29.34 42.41 29.19 C 42.41 28.73 42.42 27.82 42.42 27.36 C 48.80 20.37 58.28 17.96 66.20 13.29 M 51.14 25.21 C 48.98 27.33 49.92 30.74 48.28 33.14 C 42.90 40.83 33.52 45.16 29.54 53.92 C 28.04 62.50 33.71 70.38 32.37 78.94 C 30.73 87.56 25.02 94.53 21.51 102.39 C 19.62 106.37 19.70 111.65 22.81 115.02 C 26.55 119.25 31.85 122.07 34.38 127.32 C 40.77 129.04 47.03 131.25 53.55 132.43 C 53.65 128.42 50.33 125.22 48.15 122.12 C 47.61 122.50 46.53 123.26 45.99 123.64 C 39.81 114.56 38.66 103.34 37.44 92.73 C 37.07 83.71 36.96 74.49 39.81 65.81 C 42.24 65.11 44.41 63.84 46.14 62.00 C 47.23 59.05 47.45 55.74 48.92 52.99 C 68.30 28.50 103.60 16.74 133.31 27.80 C 135.93 29.39 137.56 32.21 140.21 33.79 C 142.24 35.06 144.68 35.20 146.99 35.39 C 147.92 33.80 149.04 32.34 150.26 30.97 C 138.25 19.74 122.37 11.53 105.58 12.53 C 104.66 15.22 107.86 16.46 108.68 18.67 C 104.82 16.65 101.17 14.05 96.83 13.14 C 80.89 8.23 62.88 13.70 51.14 25.21 M 73.94 37.16 C 87.93 41.88 102.48 44.76 117.11 46.63 C 122.41 47.64 127.81 47.81 133.19 47.89 C 133.32 48.32 133.59 49.18 133.73 49.61 C 131.54 49.47 129.33 49.36 127.15 49.71 C 129.10 52.16 132.51 52.31 135.11 53.78 C 140.90 56.66 147.52 56.88 153.86 56.72 C 153.53 51.93 150.11 48.27 146.66 45.30 C 143.83 44.88 144.46 49.44 142.06 50.40 C 140.22 51.42 139.55 49.32 139.05 48.06 C 136.98 42.44 129.01 41.18 128.02 35.04 C 131.80 35.48 135.22 38.61 139.13 37.26 L 139.91 35.96 C 131.15 28.51 119.26 26.09 108.03 26.31 C 96.01 26.26 82.97 28.64 73.94 37.16 M 164.71 41.12 C 164.20 42.31 163.74 43.52 163.33 44.75 C 158.51 44.31 154.11 41.14 149.13 42.51 C 150.05 44.90 152.46 46.11 154.09 47.95 C 158.43 52.13 160.48 57.94 162.62 63.42 C 164.39 65.40 166.82 66.57 169.24 67.55 C 176.76 76.64 182.06 87.50 184.40 99.08 C 185.01 102.76 184.86 106.58 185.94 110.16 C 187.60 112.19 188.24 108.85 188.89 107.85 C 193.43 96.24 192.47 82.57 186.51 71.62 C 189.37 71.73 192.76 72.33 194.91 69.91 C 197.17 67.13 200.28 64.35 200.64 60.62 C 196.58 61.12 192.90 59.17 189.41 57.39 C 180.67 52.74 174.16 44.53 164.71 41.12 Z" />
<path fill="#000000" opacity="1.00" d=" M 52.39 59.52 C 57.68 55.77 60.77 49.34 66.87 46.70 C 75.61 46.62 84.60 46.32 93.01 49.14 C 100.37 51.42 105.65 57.46 112.50 60.72 C 115.32 62.03 117.86 63.85 120.09 66.02 C 120.61 65.37 121.64 64.09 122.16 63.44 C 122.43 63.57 122.95 63.83 123.21 63.96 L 123.32 64.67 C 122.70 65.83 122.06 66.98 121.38 68.11 C 123.21 70.57 125.50 72.87 126.32 75.92 C 126.66 79.29 126.57 82.71 126.39 86.09 C 125.84 88.23 124.06 89.79 123.31 91.86 C 123.33 94.56 125.67 96.32 127.08 98.37 L 127.33 99.84 C 126.80 99.65 125.74 99.28 125.20 99.10 C 123.36 97.69 122.47 95.51 121.03 93.76 C 117.10 97.30 114.40 102.24 109.54 104.69 C 106.20 106.49 102.88 108.62 99.04 109.09 C 95.61 109.53 92.53 111.43 89.04 111.52 C 83.72 111.82 78.38 112.82 73.05 112.19 C 69.16 110.89 65.45 109.06 61.81 107.17 C 58.69 105.71 57.21 102.48 55.28 99.86 C 53.52 97.25 50.62 95.71 48.79 93.17 C 47.72 89.26 46.86 85.26 44.72 81.76 C 44.94 78.49 45.02 75.21 44.59 71.95 L 44.67 70.05 C 46.25 65.90 48.67 62.05 52.39 59.52 M 62.36 55.08 C 56.26 58.89 49.05 62.54 46.62 69.87 C 46.65 72.89 46.57 75.94 47.02 78.94 C 47.14 82.50 49.87 85.24 50.10 88.79 C 50.13 92.23 53.29 94.21 55.08 96.79 C 58.18 100.31 60.48 105.03 65.14 106.74 C 68.60 108.08 72.01 110.08 75.80 110.09 C 80.50 109.33 85.26 109.42 89.99 109.25 C 93.86 108.24 97.39 106.07 101.52 106.26 C 108.81 103.79 114.44 98.08 119.49 92.47 C 121.10 90.05 122.42 87.41 124.45 85.28 C 123.19 80.61 125.14 74.62 121.00 71.11 C 120.61 72.43 119.92 72.75 118.93 72.08 C 117.89 70.81 118.67 69.14 118.68 67.70 C 108.55 61.83 99.95 52.49 87.97 50.46 C 81.53 48.26 74.63 49.60 67.97 49.47 C 64.67 49.16 62.82 52.22 62.36 55.08 Z" />
<path fill="#000000" opacity="1.00" d=" M 91.08 69.08 C 94.25 66.83 98.29 67.36 101.95 67.50 C 105.58 68.80 107.80 72.18 110.35 74.86 C 113.61 78.06 115.58 82.25 118.50 85.73 C 118.59 91.06 114.30 95.47 109.54 97.27 C 104.74 99.85 99.11 98.51 94.40 96.48 C 90.18 91.05 83.59 87.54 80.93 80.93 C 79.75 78.64 81.01 76.12 81.64 73.87 C 84.25 71.36 87.60 69.91 91.08 69.08 M 89.06 72.08 C 87.24 72.94 85.36 73.69 83.64 74.76 C 83.43 76.03 83.47 77.48 82.18 78.19 C 82.49 78.28 83.10 78.47 83.40 78.57 C 83.06 85.42 90.31 88.33 93.98 93.01 C 93.39 91.34 92.39 89.88 91.35 88.46 L 90.39 88.49 C 90.33 87.82 90.20 86.47 90.14 85.79 C 94.89 87.43 95.71 93.80 100.40 95.77 C 100.61 95.97 101.02 96.36 101.22 96.56 C 101.25 96.15 101.31 95.34 101.34 94.94 C 99.02 93.49 97.29 91.37 95.63 89.24 C 95.51 87.59 94.97 86.01 93.52 85.06 C 93.52 83.66 93.54 82.26 93.57 80.87 C 92.27 80.64 91.10 80.14 90.05 79.36 C 88.49 80.79 86.41 80.47 84.48 80.42 C 83.94 77.81 85.48 75.11 87.71 73.85 C 89.22 73.84 90.32 73.03 91.04 71.76 C 92.19 71.52 93.23 71.05 94.15 70.35 C 94.73 70.68 95.88 71.34 96.45 71.67 C 96.50 72.21 96.61 73.29 96.66 73.83 C 99.45 72.96 102.34 73.29 105.20 73.52 C 106.47 74.41 107.46 75.63 108.48 76.79 C 108.45 76.32 108.39 75.39 108.36 74.92 C 106.18 73.25 104.31 71.19 101.99 69.69 C 97.52 69.30 92.94 69.62 89.06 72.08 M 91.49 73.95 C 92.21 75.08 93.22 75.25 94.51 74.46 C 94.37 73.98 94.09 73.04 93.95 72.57 C 93.34 72.91 92.11 73.61 91.49 73.95 M 87.12 76.47 C 86.45 78.16 86.93 78.70 88.56 78.08 C 89.22 76.39 88.74 75.85 87.12 76.47 M 92.14 76.59 C 90.45 77.67 92.50 79.87 93.89 78.69 C 95.52 77.64 93.47 75.39 92.14 76.59 M 95.32 94.31 C 95.66 95.02 95.66 95.02 95.32 94.31 Z" />
<path fill="#000000" opacity="1.00" d=" M 153.81 84.73 C 159.57 84.17 166.30 83.75 170.79 88.16 C 174.67 91.95 177.19 97.01 179.25 101.98 C 178.94 106.70 180.68 111.92 178.27 116.23 C 169.58 123.19 154.48 122.98 147.66 113.42 C 143.77 108.81 145.95 102.42 145.53 96.97 C 144.88 91.53 148.37 85.99 153.81 84.73 M 155.85 86.76 C 155.36 87.09 154.39 87.74 153.90 88.07 C 154.55 88.20 155.85 88.48 156.49 88.61 C 156.06 90.29 158.86 91.96 158.99 89.63 C 158.49 89.61 157.48 89.57 156.98 89.55 C 157.12 88.94 157.41 87.72 157.55 87.11 C 159.96 87.79 162.75 90.08 160.42 92.54 C 158.81 92.54 157.20 92.55 155.59 92.57 C 155.59 93.08 155.58 94.09 155.57 94.60 C 153.94 94.60 152.31 94.55 150.68 94.49 C 150.15 93.07 149.62 91.66 149.10 90.25 C 146.20 95.77 148.19 102.22 147.66 108.17 C 147.94 109.49 148.88 110.55 149.11 111.90 C 150.52 114.20 152.68 115.75 155.03 116.99 C 156.05 117.35 157.09 117.66 158.15 117.89 C 162.98 119.34 167.87 117.55 172.69 117.30 C 172.70 117.14 172.71 116.81 172.71 116.65 C 170.71 116.77 168.69 116.74 166.71 116.41 C 165.23 115.58 163.45 115.84 161.84 115.54 C 159.84 114.16 158.18 112.34 156.60 110.50 C 155.13 108.98 155.09 106.62 153.58 105.13 C 153.56 104.32 153.51 102.70 153.49 101.88 C 154.06 100.94 154.56 99.95 154.97 98.92 C 155.45 98.65 156.39 98.11 156.87 97.84 C 158.18 97.13 159.44 96.15 160.89 95.79 C 162.55 95.49 164.62 96.01 165.86 94.54 C 167.30 94.85 168.70 95.34 170.11 95.76 C 172.14 96.81 173.75 98.55 175.33 100.17 C 175.71 101.12 176.12 102.07 176.55 103.00 C 176.50 99.38 173.61 96.76 172.32 93.55 C 169.82 90.54 167.18 87.34 163.09 86.63 C 160.68 86.40 158.26 86.56 155.85 86.76 M 150.63 88.54 C 150.59 89.01 150.52 89.94 150.49 90.41 C 151.04 90.46 152.15 90.55 152.71 90.60 C 152.62 91.23 152.44 92.49 152.35 93.12 L 153.27 94.22 C 153.48 92.37 153.48 90.50 153.37 88.63 C 152.46 88.60 151.54 88.57 150.63 88.54 Z" />
<path fill="#000000" opacity="1.00" d=" M 114.29 106.38 C 117.69 106.15 120.67 108.86 121.51 112.04 C 122.63 116.14 125.80 119.71 125.62 124.10 C 121.87 132.07 118.51 140.31 113.93 147.89 C 112.07 150.68 113.54 154.64 110.91 156.98 C 108.05 159.67 106.14 163.11 104.77 166.75 C 104.68 167.44 104.51 168.82 104.43 169.51 C 102.25 169.61 100.08 169.56 97.92 169.38 C 93.18 167.81 89.75 163.90 87.70 159.48 C 86.56 156.97 88.38 154.59 89.64 152.56 C 90.89 150.26 93.72 149.95 95.78 148.69 C 98.90 147.34 100.58 144.12 101.35 140.98 C 102.08 135.50 101.29 129.51 97.75 125.08 C 97.61 122.52 94.93 120.92 95.38 118.26 C 100.17 120.22 100.89 125.96 103.49 129.86 C 103.70 133.94 103.81 138.07 103.25 142.13 C 102.27 145.40 100.11 148.28 97.62 150.57 C 94.52 152.22 91.12 153.72 89.28 156.92 C 91.89 161.95 95.45 168.65 102.20 167.60 C 103.38 162.89 105.72 158.20 109.59 155.16 C 110.37 152.09 110.64 148.90 111.78 145.93 C 113.47 142.70 115.96 139.98 117.69 136.77 C 119.57 132.81 120.40 128.17 123.56 124.95 C 123.66 121.53 121.43 118.75 120.61 115.54 C 119.43 112.64 118.40 108.66 114.76 108.06 C 114.65 107.64 114.41 106.80 114.29 106.38 Z" />
</g>
<g id="#d49814ff">
<path fill="#d49814" opacity="1.00" d=" M 51.14 25.21 C 62.88 13.70 80.89 8.23 96.83 13.14 C 101.17 14.05 104.82 16.65 108.68 18.67 C 107.86 16.46 104.66 15.22 105.58 12.53 C 122.37 11.53 138.25 19.74 150.26 30.97 C 149.04 32.34 147.92 33.80 146.99 35.39 C 144.68 35.20 142.24 35.06 140.21 33.79 C 137.56 32.21 135.93 29.39 133.31 27.80 C 103.60 16.74 68.30 28.50 48.92 52.99 C 47.45 55.74 47.23 59.05 46.14 62.00 C 44.41 63.84 42.24 65.11 39.81 65.81 C 36.96 74.49 37.07 83.71 37.44 92.73 C 38.66 103.34 39.81 114.56 45.99 123.64 C 46.53 123.26 47.61 122.50 48.15 122.12 C 50.33 125.22 53.65 128.42 53.55 132.43 C 47.03 131.25 40.77 129.04 34.38 127.32 C 31.85 122.07 26.55 119.25 22.81 115.02 C 19.70 111.65 19.62 106.37 21.51 102.39 C 25.02 94.53 30.73 87.56 32.37 78.94 C 33.71 70.38 28.04 62.50 29.54 53.92 C 33.52 45.16 42.90 40.83 48.28 33.14 C 49.92 30.74 48.98 27.33 51.14 25.21 Z" />
<path fill="#d49814" opacity="1.00" d=" M 73.94 37.16 C 82.97 28.64 96.01 26.26 108.03 26.31 C 119.26 26.09 131.15 28.51 139.91 35.96 L 139.13 37.26 C 135.22 38.61 131.80 35.48 128.02 35.04 C 129.01 41.18 136.98 42.44 139.05 48.06 C 139.55 49.32 140.22 51.42 142.06 50.40 C 144.46 49.44 143.83 44.88 146.66 45.30 C 150.11 48.27 153.53 51.93 153.86 56.72 C 147.52 56.88 140.90 56.66 135.11 53.78 C 132.51 52.31 129.10 52.16 127.15 49.71 C 129.33 49.36 131.54 49.47 133.73 49.61 C 133.59 49.18 133.32 48.32 133.19 47.89 C 127.81 47.81 122.41 47.64 117.11 46.63 C 102.48 44.76 87.93 41.88 73.94 37.16 Z" />
<path fill="#d49814" opacity="1.00" d=" M 164.71 41.12 C 174.16 44.53 180.67 52.74 189.41 57.39 C 192.90 59.17 196.58 61.12 200.64 60.62 C 200.28 64.35 197.17 67.13 194.91 69.91 C 192.76 72.33 189.37 71.73 186.51 71.62 C 192.47 82.57 193.43 96.24 188.89 107.85 C 188.24 108.85 187.60 112.19 185.94 110.16 C 184.86 106.58 185.01 102.76 184.40 99.08 C 182.06 87.50 176.76 76.64 169.24 67.55 C 166.82 66.57 164.39 65.40 162.62 63.42 C 160.48 57.94 158.43 52.13 154.09 47.95 C 152.46 46.11 150.05 44.90 149.13 42.51 C 154.11 41.14 158.51 44.31 163.33 44.75 C 163.74 43.52 164.20 42.31 164.71 41.12 Z" />
<path fill="#d49814" opacity="1.00" d=" M 68.42 52.37 C 69.14 49.10 72.90 50.77 75.31 50.54 C 76.31 51.87 77.46 53.18 77.65 54.91 C 76.36 53.83 75.16 52.64 74.01 51.42 C 72.13 51.62 70.26 51.93 68.42 52.37 Z" />
<path fill="#d49814" opacity="1.00" d=" M 136.56 58.34 C 138.10 57.87 139.71 57.76 141.31 58.05 C 142.87 59.17 144.53 60.17 146.34 60.87 C 148.18 63.08 149.18 65.78 149.57 68.62 C 146.27 67.59 147.29 63.10 144.41 61.69 C 141.91 60.32 139.24 59.28 136.56 58.34 Z" />
<path fill="#d49814" opacity="1.00" d=" M 58.07 64.00 C 60.29 63.11 62.67 61.81 65.11 62.67 C 66.42 65.94 70.09 67.71 70.99 71.06 C 67.58 70.05 65.49 67.05 63.98 64.03 C 60.61 63.95 58.10 66.37 54.94 66.99 C 55.34 65.45 56.67 64.54 58.07 64.00 Z" />
<path fill="#d49814" opacity="1.00" d=" M 123.26 63.34 C 123.71 63.45 124.62 63.66 125.07 63.76 C 126.89 64.37 129.30 64.54 130.34 66.41 C 130.67 68.72 130.43 71.07 130.34 73.39 C 135.19 77.86 141.09 80.97 146.62 84.50 C 147.08 85.26 147.49 86.04 147.86 86.85 C 141.55 83.08 135.22 79.27 129.56 74.54 C 129.60 71.52 129.37 68.48 128.48 65.57 C 126.75 65.31 125.02 65.07 123.32 64.67 L 123.21 63.96 L 123.26 63.34 Z" />
<path fill="#d49814" opacity="1.00" d=" M 133.74 63.45 C 138.34 62.15 140.81 67.14 140.83 70.98 C 138.03 71.13 139.12 67.55 137.76 66.02 C 137.05 64.36 135.01 65.48 133.67 65.19 C 133.69 64.75 133.72 63.89 133.74 63.45 Z" />
<path fill="#d49814" opacity="1.00" d=" M 41.23 80.94 C 41.27 76.93 42.58 72.99 43.85 69.22 C 43.77 69.59 43.62 70.33 43.54 70.70 L 44.59 71.95 C 45.02 75.21 44.94 78.49 44.72 81.76 C 43.21 78.88 45.21 75.13 42.96 72.58 C 40.54 82.25 43.91 92.27 42.44 102.06 C 41.68 106.13 43.50 110.00 44.99 113.67 C 43.48 110.06 41.35 106.34 41.86 102.30 C 42.50 95.18 42.18 88.01 41.23 80.94 Z" />
<path fill="#d49814" opacity="1.00" d=" M 55.40 79.65 C 60.32 79.68 65.04 77.87 69.88 77.34 C 71.11 77.62 71.48 78.90 72.03 79.86 C 70.82 79.75 69.81 79.24 69.00 78.32 C 67.31 79.76 65.11 79.62 63.04 79.61 C 60.76 81.17 58.11 81.77 55.37 81.56 C 55.38 81.08 55.39 80.13 55.40 79.65 Z" />
<path fill="#d49814" opacity="1.00" d=" M 95.32 94.31 C 95.66 95.02 95.66 95.02 95.32 94.31 Z" />
<path fill="#d49814" opacity="1.00" d=" M 127.08 98.37 C 127.32 98.63 127.80 99.15 128.03 99.40 C 130.34 99.66 135.51 98.55 135.65 101.76 C 133.03 101.33 130.42 100.83 127.79 100.43 L 127.95 101.68 C 127.29 101.32 125.96 100.60 125.29 100.24 C 125.27 99.95 125.23 99.38 125.20 99.10 C 125.74 99.28 126.80 99.65 127.33 99.84 L 127.08 98.37 Z" />
</g>
<g id="#fefefeff">
<path fill="#fefefe" opacity="1.00" d=" M 43.85 69.22 C 49.16 56.10 58.00 43.81 70.91 37.35 C 85.18 44.51 101.02 48.07 116.94 48.54 C 123.04 51.01 128.82 54.33 135.24 56.01 C 131.59 57.82 127.32 58.12 123.66 60.09 C 123.48 61.17 123.35 62.25 123.26 63.34 L 123.21 63.96 C 122.95 63.83 122.43 63.57 122.16 63.44 C 121.64 64.09 120.61 65.37 120.09 66.02 C 117.86 63.85 115.32 62.03 112.50 60.72 C 105.65 57.46 100.37 51.42 93.01 49.14 C 84.60 46.32 75.61 46.62 66.87 46.70 C 60.77 49.34 57.68 55.77 52.39 59.52 C 48.67 62.05 46.25 65.90 44.67 70.05 L 44.59 71.95 L 43.54 70.70 C 43.62 70.33 43.77 69.59 43.85 69.22 Z" />
<path fill="#fefefe" opacity="1.00" d=" M 62.36 55.08 C 62.82 52.22 64.67 49.16 67.97 49.47 C 74.63 49.60 81.53 48.26 87.97 50.46 C 99.95 52.49 108.55 61.83 118.68 67.70 C 118.67 69.14 117.89 70.81 118.93 72.08 C 119.92 72.75 120.61 72.43 121.00 71.11 C 125.14 74.62 123.19 80.61 124.45 85.28 C 122.42 87.41 121.10 90.05 119.49 92.47 C 114.44 98.08 108.81 103.79 101.52 106.26 C 97.39 106.07 93.86 108.24 89.99 109.25 C 85.26 109.42 80.50 109.33 75.80 110.09 C 72.01 110.08 68.60 108.08 65.14 106.74 C 60.48 105.03 58.18 100.31 55.08 96.79 C 53.29 94.21 50.13 92.23 50.10 88.79 C 49.87 85.24 47.14 82.50 47.02 78.94 C 46.57 75.94 46.65 72.89 46.62 69.87 C 49.05 62.54 56.26 58.89 62.36 55.08 M 68.42 52.37 C 70.26 51.93 72.13 51.62 74.01 51.42 C 75.16 52.64 76.36 53.83 77.65 54.91 C 77.46 53.18 76.31 51.87 75.31 50.54 C 72.90 50.77 69.14 49.10 68.42 52.37 M 58.07 64.00 C 56.67 64.54 55.34 65.45 54.94 66.99 C 58.10 66.37 60.61 63.95 63.98 64.03 C 65.49 67.05 67.58 70.05 70.99 71.06 C 70.09 67.71 66.42 65.94 65.11 62.67 C 62.67 61.81 60.29 63.11 58.07 64.00 M 91.08 69.08 C 87.60 69.91 84.25 71.36 81.64 73.87 C 81.01 76.12 79.75 78.64 80.93 80.93 C 83.59 87.54 90.18 91.05 94.40 96.48 C 99.11 98.51 104.74 99.85 109.54 97.27 C 114.30 95.47 118.59 91.06 118.50 85.73 C 115.58 82.25 113.61 78.06 110.35 74.86 C 107.80 72.18 105.58 68.80 101.95 67.50 C 98.29 67.36 94.25 66.83 91.08 69.08 M 55.40 79.65 C 55.39 80.13 55.38 81.08 55.37 81.56 C 58.11 81.77 60.76 81.17 63.04 79.61 C 65.11 79.62 67.31 79.76 69.00 78.32 C 69.81 79.24 70.82 79.75 72.03 79.86 C 71.48 78.90 71.11 77.62 69.88 77.34 C 65.04 77.87 60.32 79.68 55.40 79.65 Z" />
<path fill="#fefefe" opacity="1.00" d=" M 141.31 58.05 C 144.57 58.30 147.93 58.27 151.03 59.47 C 158.29 61.65 163.68 67.31 170.14 70.98 C 171.75 75.95 175.95 79.49 177.46 84.51 C 182.38 93.94 183.12 104.74 183.66 115.15 C 181.37 117.76 179.18 120.82 175.56 121.58 C 170.37 124.12 164.53 123.20 159.01 124.13 C 154.45 124.18 149.61 125.10 145.35 122.99 C 140.97 121.07 135.98 119.95 132.44 116.55 C 129.01 112.37 130.19 106.44 127.95 101.68 L 127.79 100.43 C 130.42 100.83 133.03 101.33 135.65 101.76 C 135.51 98.55 130.34 99.66 128.03 99.40 C 127.80 99.15 127.32 98.63 127.08 98.37 C 125.67 96.32 123.33 94.56 123.31 91.86 C 124.06 89.79 125.84 88.23 126.39 86.09 C 126.57 82.71 126.66 79.29 126.32 75.92 C 125.50 72.87 123.21 70.57 121.38 68.11 C 122.06 66.98 122.70 65.83 123.32 64.67 C 125.02 65.07 126.75 65.31 128.48 65.57 C 129.37 68.48 129.60 71.52 129.56 74.54 C 135.22 79.27 141.55 83.08 147.86 86.85 C 147.49 86.04 147.08 85.26 146.62 84.50 C 141.09 80.97 135.19 77.86 130.34 73.39 C 130.43 71.07 130.67 68.72 130.34 66.41 C 129.30 64.54 126.89 64.37 125.07 63.76 C 126.01 62.76 126.95 61.76 127.88 60.75 C 130.77 59.94 133.65 59.09 136.56 58.34 C 139.24 59.28 141.91 60.32 144.41 61.69 C 147.29 63.10 146.27 67.59 149.57 68.62 C 149.18 65.78 148.18 63.08 146.34 60.87 C 144.53 60.17 142.87 59.17 141.31 58.05 M 133.74 63.45 C 133.72 63.89 133.69 64.75 133.67 65.19 C 135.01 65.48 137.05 64.36 137.76 66.02 C 139.12 67.55 138.03 71.13 140.83 70.98 C 140.81 67.14 138.34 62.15 133.74 63.45 M 153.81 84.73 C 148.37 85.99 144.88 91.53 145.53 96.97 C 145.95 102.42 143.77 108.81 147.66 113.42 C 154.48 122.98 169.58 123.19 178.27 116.23 C 180.68 111.92 178.94 106.70 179.25 101.98 C 177.19 97.01 174.67 91.95 170.79 88.16 C 166.30 83.75 159.57 84.17 153.81 84.73 Z" />
<path fill="#fefefe" opacity="1.00" d=" M 89.06 72.08 C 92.94 69.62 97.52 69.30 101.99 69.69 C 104.31 71.19 106.18 73.25 108.36 74.92 C 108.39 75.39 108.45 76.32 108.48 76.79 C 107.46 75.63 106.47 74.41 105.20 73.52 C 102.34 73.29 99.45 72.96 96.66 73.83 C 96.61 73.29 96.50 72.21 96.45 71.67 C 95.88 71.34 94.73 70.68 94.15 70.35 C 93.23 71.05 92.19 71.52 91.04 71.76 C 90.32 73.03 89.22 73.84 87.71 73.85 C 85.48 75.11 83.94 77.81 84.48 80.42 C 86.41 80.47 88.49 80.79 90.05 79.36 C 91.10 80.14 92.27 80.64 93.57 80.87 C 93.54 82.26 93.52 83.66 93.52 85.06 C 94.97 86.01 95.51 87.59 95.63 89.24 C 97.29 91.37 99.02 93.49 101.34 94.94 C 101.31 95.34 101.25 96.15 101.22 96.56 C 101.02 96.36 100.61 95.97 100.40 95.77 C 95.71 93.80 94.89 87.43 90.14 85.79 C 90.20 86.47 90.33 87.82 90.39 88.49 L 91.35 88.46 C 92.39 89.88 93.39 91.34 93.98 93.01 C 90.31 88.33 83.06 85.42 83.40 78.57 C 83.10 78.47 82.49 78.28 82.18 78.19 C 83.47 77.48 83.43 76.03 83.64 74.76 C 85.36 73.69 87.24 72.94 89.06 72.08 Z" />
<path fill="#fefefe" opacity="1.00" d=" M 91.49 73.95 C 92.11 73.61 93.34 72.91 93.95 72.57 C 94.09 73.04 94.37 73.98 94.51 74.46 C 93.22 75.25 92.21 75.08 91.49 73.95 Z" />
<path fill="#fefefe" opacity="1.00" d=" M 42.96 72.58 C 45.21 75.13 43.21 78.88 44.72 81.76 C 46.86 85.26 47.72 89.26 48.79 93.17 C 50.62 95.71 53.52 97.25 55.28 99.86 C 57.21 102.48 58.69 105.71 61.81 107.17 C 65.45 109.06 69.16 110.89 73.05 112.19 C 78.38 112.82 83.72 111.82 89.04 111.52 C 92.53 111.43 95.61 109.53 99.04 109.09 C 102.88 108.62 106.20 106.49 109.54 104.69 C 114.40 102.24 117.10 97.30 121.03 93.76 C 122.47 95.51 123.36 97.69 125.20 99.10 C 125.23 99.38 125.27 99.95 125.29 100.24 C 126.34 104.18 127.80 108.02 127.87 112.15 C 129.03 118.74 136.19 121.21 141.38 123.99 C 141.86 126.03 142.07 128.28 140.22 129.69 C 138.13 128.36 136.11 126.93 134.18 125.38 C 131.21 125.28 127.59 125.48 126.73 128.95 C 126.75 133.88 126.25 138.84 125.79 143.70 C 121.57 151.89 122.28 161.55 118.55 169.87 C 118.68 174.14 115.68 177.23 112.98 180.12 C 114.58 181.52 116.26 182.84 117.98 184.10 C 116.82 185.12 115.66 186.72 113.89 186.44 C 109.84 185.65 105.95 184.17 101.99 183.05 C 98.05 182.08 93.98 182.50 89.98 182.18 C 85.14 181.71 80.42 180.71 75.87 179.01 C 71.11 178.66 66.47 177.04 61.66 177.29 C 58.52 182.12 58.17 190.03 63.86 193.13 C 68.59 194.10 73.67 192.62 78.17 194.80 C 78.39 195.61 78.84 197.23 79.06 198.04 C 80.37 200.20 77.39 201.11 75.86 201.42 C 69.42 203.12 62.51 203.16 56.13 201.23 C 54.64 201.87 53.57 203.49 53.50 205.11 C 53.18 208.96 52.45 212.77 52.21 216.63 C 51.81 216.61 50.99 216.57 50.59 216.55 C 49.32 216.01 48.04 215.49 46.76 214.99 C 47.81 216.66 48.70 218.43 49.90 220.00 L 34.14 220.00 C 35.31 215.36 37.53 210.90 37.62 206.04 C 37.79 201.02 37.85 196.00 37.64 190.99 C 37.12 183.92 38.73 176.95 40.20 170.09 C 40.23 169.28 40.29 167.66 40.32 166.84 L 39.76 166.09 C 39.73 154.74 39.60 143.39 39.65 132.03 C 44.90 133.04 50.09 134.77 55.50 134.53 C 59.42 138.75 55.76 144.12 56.57 149.02 C 59.62 146.67 62.28 143.79 64.27 140.48 C 65.09 138.67 67.19 135.47 64.88 134.04 C 56.28 129.62 49.14 122.43 44.99 113.67 C 43.50 110.00 41.68 106.13 42.44 102.06 C 43.91 92.27 40.54 82.25 42.96 72.58 M 114.29 106.38 C 114.41 106.80 114.65 107.64 114.76 108.06 C 118.40 108.66 119.43 112.64 120.61 115.54 C 121.43 118.75 123.66 121.53 123.56 124.95 C 120.40 128.17 119.57 132.81 117.69 136.77 C 115.96 139.98 113.47 142.70 111.78 145.93 C 110.64 148.90 110.37 152.09 109.59 155.16 C 105.72 158.20 103.38 162.89 102.20 167.60 C 95.45 168.65 91.89 161.95 89.28 156.92 C 91.12 153.72 94.52 152.22 97.62 150.57 C 100.11 148.28 102.27 145.40 103.25 142.13 C 103.81 138.07 103.70 133.94 103.49 129.86 C 100.89 125.96 100.17 120.22 95.38 118.26 C 94.93 120.92 97.61 122.52 97.75 125.08 C 101.29 129.51 102.08 135.50 101.35 140.98 C 100.58 144.12 98.90 147.34 95.78 148.69 C 93.72 149.95 90.89 150.26 89.64 152.56 C 88.38 154.59 86.56 156.97 87.70 159.48 C 89.75 163.90 93.18 167.81 97.92 169.38 C 100.08 169.56 102.25 169.61 104.43 169.51 C 104.51 168.82 104.68 167.44 104.77 166.75 C 106.14 163.11 108.05 159.67 110.91 156.98 C 113.54 154.64 112.07 150.68 113.93 147.89 C 118.51 140.31 121.87 132.07 125.62 124.10 C 125.80 119.71 122.63 116.14 121.51 112.04 C 120.67 108.86 117.69 106.15 114.29 106.38 Z" />
<path fill="#fefefe" opacity="1.00" d=" M 87.12 76.47 C 88.74 75.85 89.22 76.39 88.56 78.08 C 86.93 78.70 86.45 78.16 87.12 76.47 Z" />
<path fill="#fefefe" opacity="1.00" d=" M 92.14 76.59 C 93.47 75.39 95.52 77.64 93.89 78.69 C 92.50 79.87 90.45 77.67 92.14 76.59 Z" />
<path fill="#fefefe" opacity="1.00" d=" M 155.85 86.76 C 158.26 86.56 160.68 86.40 163.09 86.63 C 167.18 87.34 169.82 90.54 172.32 93.55 C 173.61 96.76 176.50 99.38 176.55 103.00 C 176.12 102.07 175.71 101.12 175.33 100.17 C 173.75 98.55 172.14 96.81 170.11 95.76 C 168.70 95.34 167.30 94.85 165.86 94.54 C 164.62 96.01 162.55 95.49 160.89 95.79 C 159.44 96.15 158.18 97.13 156.87 97.84 C 156.39 98.11 155.45 98.65 154.97 98.92 C 154.56 99.95 154.06 100.94 153.49 101.88 C 153.51 102.70 153.56 104.32 153.58 105.13 C 155.09 106.62 155.13 108.98 156.60 110.50 C 158.18 112.34 159.84 114.16 161.84 115.54 C 163.45 115.84 165.23 115.58 166.71 116.41 C 168.69 116.74 170.71 116.77 172.71 116.65 C 172.71 116.81 172.70 117.14 172.69 117.30 C 167.87 117.55 162.98 119.34 158.15 117.89 C 157.09 117.66 156.05 117.35 155.03 116.99 C 152.68 115.75 150.52 114.20 149.11 111.90 C 148.88 110.55 147.94 109.49 147.66 108.17 C 148.19 102.22 146.20 95.77 149.10 90.25 C 149.62 91.66 150.15 93.07 150.68 94.49 C 152.31 94.55 153.94 94.60 155.57 94.60 C 155.58 94.09 155.59 93.08 155.59 92.57 C 157.20 92.55 158.81 92.54 160.42 92.54 C 162.75 90.08 159.96 87.79 157.55 87.11 C 157.41 87.72 157.12 88.94 156.98 89.55 C 157.48 89.57 158.49 89.61 158.99 89.63 C 158.86 91.96 156.06 90.29 156.49 88.61 C 155.85 88.48 154.55 88.20 153.90 88.07 C 154.39 87.74 155.36 87.09 155.85 86.76 Z" />
<path fill="#fefefe" opacity="1.00" d=" M 150.63 88.54 C 151.54 88.57 152.46 88.60 153.37 88.63 C 153.48 90.50 153.48 92.37 153.27 94.22 L 152.35 93.12 C 152.44 92.49 152.62 91.23 152.71 90.60 C 152.15 90.55 151.04 90.46 150.49 90.41 C 150.52 89.94 150.59 89.01 150.63 88.54 Z" />
<path fill="#fefefe" opacity="1.00" d=" M 67.80 191.06 C 67.97 190.77 68.32 190.18 68.50 189.89 C 73.72 189.62 78.85 190.57 83.59 192.74 C 83.02 196.08 81.65 199.71 83.25 202.98 C 83.30 203.33 83.41 204.04 83.47 204.40 C 83.05 204.41 82.21 204.44 81.79 204.45 C 81.54 203.69 81.05 202.17 80.80 201.42 C 81.45 198.85 80.92 196.29 80.31 193.79 C 77.91 192.20 75.27 191.23 72.50 192.50 C 70.96 192.21 68.80 192.52 67.80 191.06 Z" />
<path fill="#fefefe" opacity="1.00" d=" M 79.78 210.68 C 80.24 210.55 81.15 210.28 81.61 210.15 C 81.62 210.88 81.66 212.35 81.67 213.08 C 82.31 214.00 82.91 214.96 83.38 215.99 C 82.81 216.61 82.30 217.28 81.85 218.00 C 81.22 216.02 80.43 214.09 79.64 212.18 C 79.68 211.80 79.75 211.05 79.78 210.68 Z" />
</g>
</svg>
