<?xml version="1.0" encoding="UTF-8" ?>
<!DOCTYPE svg PUBLIC "-//W3C//DTD SVG 1.1//EN" "http://www.w3.org/Graphics/SVG/1.1/DTD/svg11.dtd">
<svg width="210pt" height="220pt" viewBox="0 0 210 220" version="1.1" xmlns="http://www.w3.org/2000/svg">
<g id="#0d0b08fe">
<path fill="#0d0b08" opacity="1.00" d=" M 61.68 19.80 C 64.18 19.48 66.65 18.02 69.19 18.77 C 72.69 19.76 76.43 19.45 79.87 20.71 C 84.50 21.99 88.59 24.60 93.01 26.40 C 95.06 25.59 96.55 23.85 98.48 22.84 C 106.95 21.88 116.02 23.93 122.75 29.31 C 127.84 32.95 133.19 36.22 138.32 39.81 C 141.10 41.93 143.71 44.39 146.99 45.76 C 149.51 44.05 151.63 41.83 154.08 40.02 C 154.91 42.39 155.92 44.72 156.49 47.17 C 156.84 50.04 156.33 52.98 156.89 55.83 C 158.61 58.17 160.81 60.08 162.83 62.15 C 167.73 66.93 172.15 72.27 177.90 76.08 C 183.22 80.81 189.07 85.34 196.16 86.92 C 197.98 85.78 199.84 84.70 201.81 83.86 C 201.69 87.15 201.05 90.47 199.31 93.32 C 197.00 97.18 195.98 102.21 191.90 104.70 C 189.88 105.97 187.79 107.35 187.14 109.80 C 184.07 109.52 182.34 106.98 180.78 104.64 C 183.24 104.50 185.99 105.36 188.27 104.28 C 191.97 100.89 194.15 96.24 196.59 91.94 C 182.58 84.89 171.84 73.13 160.00 63.14 C 159.04 64.66 158.10 66.19 157.17 67.72 C 152.18 66.33 147.17 64.91 142.00 64.35 C 144.96 70.38 148.08 76.42 152.06 81.84 C 156.19 86.02 155.51 92.38 157.08 97.64 C 159.52 105.91 158.44 115.26 163.19 122.77 C 165.29 126.30 169.59 127.04 173.22 128.07 C 173.28 128.91 173.35 129.77 173.41 130.62 C 169.38 130.21 164.18 130.60 162.21 126.23 C 155.47 118.21 159.24 106.70 153.94 98.05 C 150.99 94.08 151.36 88.11 146.45 85.64 C 146.43 87.38 146.06 89.28 147.10 90.82 C 150.94 97.94 155.74 105.50 154.36 113.98 C 152.26 118.73 148.00 122.71 143.03 124.30 C 135.29 124.70 127.23 125.04 119.96 121.87 C 111.42 118.86 105.84 111.06 101.69 103.43 C 100.39 98.58 103.42 94.08 104.83 89.62 C 106.32 86.58 104.77 83.35 104.11 80.33 C 104.64 80.33 105.69 80.35 106.22 80.35 C 107.06 81.91 107.94 83.46 108.84 84.99 C 111.57 82.50 114.24 79.91 116.26 76.80 C 114.36 75.64 112.48 74.46 110.52 73.43 C 110.49 72.88 110.42 71.77 110.39 71.22 C 114.92 71.61 119.48 71.74 124.04 71.60 C 124.28 72.11 124.76 73.14 125.00 73.66 C 123.37 74.19 121.74 74.72 120.11 75.27 C 127.75 81.89 138.10 86.20 148.28 83.79 C 146.98 77.39 143.12 72.03 139.14 67.02 C 137.53 69.73 136.03 72.49 134.48 75.23 C 129.75 69.14 125.08 63.01 119.91 57.27 C 124.53 57.30 128.93 58.86 133.43 59.71 C 129.24 52.41 121.38 48.00 113.67 45.27 C 106.76 43.29 99.37 41.87 92.24 43.50 C 85.42 44.98 78.49 46.74 72.47 50.40 C 68.93 52.49 65.54 54.82 62.16 57.15 C 64.41 58.95 66.76 60.63 69.11 62.30 C 67.72 62.40 66.33 62.49 64.94 62.58 C 63.27 61.43 61.76 60.04 59.95 59.11 C 57.28 59.55 55.55 61.93 53.67 63.66 C 49.10 68.72 44.15 73.59 40.73 79.55 C 36.63 88.61 32.41 97.64 27.65 106.37 C 26.97 117.49 25.21 128.74 26.97 139.86 C 29.28 149.08 29.73 159.29 35.87 167.04 C 40.90 173.14 42.24 182.24 49.89 186.01 C 51.42 187.00 52.95 188.00 54.32 189.21 C 54.22 190.61 53.60 191.89 53.14 193.20 C 51.43 191.32 49.74 189.44 47.93 187.66 C 48.31 192.11 49.72 196.47 49.46 200.97 C 49.28 201.36 48.91 202.12 48.73 202.50 C 47.62 202.59 46.50 202.69 45.39 202.80 C 48.31 197.55 44.52 192.09 45.24 186.57 C 39.46 187.04 33.98 185.19 28.35 184.25 C 23.65 182.46 18.95 180.22 15.30 176.67 C 12.93 174.34 9.65 172.68 8.53 169.35 C 6.20 162.39 3.76 155.24 4.66 147.79 C 5.17 147.60 6.17 147.24 6.67 147.06 C 4.78 150.03 4.45 154.32 6.81 157.14 C 9.43 160.59 10.88 164.71 12.18 168.80 C 13.56 168.35 14.93 167.89 16.31 167.43 C 17.00 171.44 18.26 175.82 22.07 177.96 C 28.34 181.64 35.71 182.76 42.62 184.75 C 41.26 180.44 39.19 176.41 37.00 172.46 C 35.94 172.71 34.88 172.96 33.82 173.23 C 34.64 166.85 29.46 162.14 28.17 156.23 C 26.03 147.32 24.00 138.22 24.52 129.00 C 24.29 118.19 24.23 106.90 29.09 96.95 C 32.73 90.21 35.28 82.89 39.53 76.49 C 43.98 69.48 49.91 63.58 55.95 57.95 C 62.13 52.05 69.91 48.21 77.61 44.72 C 92.17 38.93 109.78 38.37 123.55 46.53 C 128.04 49.06 131.40 53.30 136.18 55.32 C 140.38 56.41 143.25 52.20 144.64 48.86 C 144.48 47.20 142.79 46.37 141.69 45.35 C 131.00 37.49 119.77 30.30 107.84 24.46 C 105.46 23.27 102.67 23.18 100.11 23.75 C 96.80 25.38 97.23 29.32 97.16 32.39 C 88.92 29.12 82.22 22.05 72.97 21.46 C 67.26 22.08 62.81 26.19 58.00 28.96 C 50.92 33.15 44.10 37.85 38.21 43.63 C 38.35 45.56 39.18 47.88 37.57 49.45 C 33.05 55.03 27.61 59.91 24.10 66.27 C 20.00 73.09 14.14 80.69 16.53 89.11 C 18.75 101.11 20.37 114.31 14.65 125.63 C 12.28 130.13 12.97 135.47 10.91 140.07 C 9.85 142.60 8.21 144.81 6.67 147.06 C 5.83 143.35 7.65 140.02 9.12 136.76 C 8.45 136.61 7.10 136.30 6.42 136.15 C 6.56 134.12 5.95 131.84 7.16 130.04 C 9.59 126.22 12.17 122.49 14.89 118.86 C 17.32 116.16 16.03 112.26 16.33 108.99 C 15.94 104.16 17.53 98.78 14.68 94.46 C 12.01 90.55 12.32 85.54 13.06 81.09 C 16.45 72.47 22.06 65.00 27.13 57.31 C 29.07 54.22 31.94 51.87 34.02 48.89 C 33.09 47.79 31.86 47.11 30.33 46.84 C 32.69 44.07 34.41 40.65 37.60 38.69 C 40.35 36.88 42.40 34.19 45.27 32.56 C 50.55 29.71 55.55 26.37 60.99 23.81 C 61.22 22.48 61.45 21.14 61.68 19.80 M 104.15 97.34 C 103.40 99.29 103.05 101.66 104.35 103.47 C 106.42 107.02 108.61 110.56 111.45 113.54 C 118.02 120.91 128.53 123.21 138.05 122.53 C 146.52 123.21 154.84 114.64 152.20 106.12 C 149.66 100.10 146.83 94.10 142.84 88.89 C 142.41 91.11 142.00 93.35 141.48 95.55 C 137.22 95.26 132.50 95.55 128.74 93.25 C 126.46 90.60 127.93 86.95 128.52 83.95 C 125.28 82.70 122.55 80.26 119.21 79.32 C 112.50 83.49 106.28 89.50 104.15 97.34 Z" />
<path fill="#0d0b08" opacity="1.00" d=" M 70.21 63.30 C 72.81 62.42 75.63 61.84 78.28 62.87 C 86.07 65.46 93.67 68.61 101.39 71.42 C 98.28 71.47 95.16 71.50 92.07 71.16 C 84.78 68.56 77.74 65.22 70.21 63.30 Z" />
<path fill="#0d0b08" opacity="1.00" d=" M 40.10 92.78 C 41.70 94.40 43.06 96.30 44.97 97.59 C 46.97 97.50 48.81 96.66 50.75 96.26 C 54.41 96.57 58.15 96.39 61.49 94.73 C 66.61 98.15 72.85 100.16 76.86 105.06 C 76.23 105.34 74.97 105.91 74.34 106.19 C 72.83 106.57 71.37 106.06 70.19 105.09 C 65.70 100.98 60.11 96.24 53.57 97.55 C 47.30 98.78 42.18 102.94 37.71 107.28 C 40.72 109.39 45.36 109.44 47.07 113.11 C 48.40 115.44 47.07 118.65 44.70 119.74 C 42.51 121.00 40.00 121.50 37.53 121.86 C 37.73 126.15 36.61 130.93 39.18 134.72 C 40.97 137.86 44.25 139.79 47.71 140.60 C 48.80 140.92 49.89 141.24 50.99 141.56 C 48.87 141.56 46.76 141.60 44.65 141.61 C 41.10 140.25 38.08 137.16 36.70 133.65 C 36.59 128.23 34.14 123.32 32.98 118.12 C 33.37 115.68 34.46 113.41 34.85 110.97 C 33.66 108.75 30.47 108.17 30.00 105.39 C 31.68 105.84 33.38 106.26 35.08 106.67 C 37.72 105.29 39.74 102.88 41.84 100.80 C 41.60 98.05 40.06 95.59 40.10 92.78 Z" />
<path fill="#0d0b08" opacity="1.00" d=" M 78.37 107.09 C 78.91 107.27 79.99 107.62 80.53 107.79 C 81.31 115.08 77.48 121.71 73.23 127.29 C 69.29 132.23 65.43 137.40 60.27 141.14 C 59.92 141.24 59.22 141.43 58.86 141.53 C 57.62 141.65 56.38 141.77 55.14 141.89 C 55.86 141.46 56.58 141.04 57.30 140.61 C 65.89 134.78 72.43 126.21 77.29 117.13 C 79.25 114.12 78.29 110.44 78.37 107.09 Z" />
<path fill="#0d0b08" opacity="1.00" d=" M 181.08 156.21 C 183.00 154.31 185.00 152.48 187.23 150.95 C 184.69 155.20 183.21 159.92 181.51 164.52 C 180.04 165.00 178.49 165.13 176.97 165.35 C 173.99 169.91 173.67 175.66 174.80 180.86 C 176.12 183.71 179.36 183.59 181.94 184.34 C 183.78 184.71 185.00 186.22 186.31 187.44 C 182.84 188.09 179.14 187.95 175.96 189.66 C 172.32 191.48 168.53 193.06 165.06 195.22 C 162.96 197.05 162.27 199.96 161.17 202.43 C 155.68 203.03 150.19 202.59 144.70 202.47 C 145.16 201.56 145.62 200.65 146.09 199.76 C 149.20 201.96 153.08 202.90 156.81 202.01 C 158.84 200.66 159.70 198.19 160.97 196.20 C 159.29 194.64 157.62 193.08 155.95 191.51 C 153.65 193.68 151.39 195.91 149.06 198.06 C 149.01 197.36 148.89 195.96 148.83 195.26 C 152.42 191.62 154.43 186.97 156.07 182.21 C 158.07 176.29 161.84 171.26 165.72 166.46 C 165.98 167.05 166.50 168.24 166.76 168.84 C 163.58 173.17 160.82 177.79 158.23 182.50 C 156.09 185.95 158.76 189.95 161.10 192.52 C 166.71 193.08 171.18 188.83 175.63 186.08 C 173.94 183.52 171.83 181.11 171.00 178.11 C 171.57 175.71 173.89 173.64 173.06 171.04 C 172.78 169.35 172.40 167.56 173.10 165.91 C 174.58 161.70 176.10 157.48 176.94 153.08 C 178.32 154.11 179.70 155.16 181.08 156.21 Z" />
<path fill="#0d0b08" opacity="1.00" d=" M 124.59 157.68 C 125.47 157.73 126.36 157.77 127.24 157.82 C 127.44 163.21 127.44 168.60 127.31 173.99 C 127.08 179.42 123.15 184.24 118.16 186.16 C 111.67 187.88 104.82 187.69 98.30 186.23 C 91.83 183.94 86.56 178.51 84.51 171.95 C 84.85 171.46 85.53 170.46 85.87 169.97 C 89.25 176.30 94.76 181.96 102.11 183.18 C 106.71 183.56 111.38 183.63 115.98 183.24 C 119.47 181.47 123.01 178.61 123.65 174.52 C 124.95 168.99 124.19 163.29 124.59 157.68 Z" />
</g>
<g id="#d19712ff">
<path fill="#d19712" opacity="1.00" d=" M 58.00 28.96 C 62.81 26.19 67.26 22.08 72.97 21.46 C 82.22 22.05 88.92 29.12 97.16 32.39 C 97.23 29.32 96.80 25.38 100.11 23.75 C 102.67 23.18 105.46 23.27 107.84 24.46 C 119.77 30.30 131.00 37.49 141.69 45.35 C 142.79 46.37 144.48 47.20 144.64 48.86 C 143.25 52.20 140.38 56.41 136.18 55.32 C 131.40 53.30 128.04 49.06 123.55 46.53 C 109.78 38.37 92.17 38.93 77.61 44.72 C 69.91 48.21 62.13 52.05 55.95 57.95 C 49.91 63.58 43.98 69.48 39.53 76.49 C 35.28 82.89 32.73 90.21 29.09 96.95 C 24.23 106.90 24.29 118.19 24.52 129.00 C 24.00 138.22 26.03 147.32 28.17 156.23 C 29.46 162.14 34.64 166.85 33.82 173.23 C 34.88 172.96 35.94 172.71 37.00 172.46 C 39.19 176.41 41.26 180.44 42.62 184.75 C 35.71 182.76 28.34 181.64 22.07 177.96 C 18.26 175.82 17.00 171.44 16.31 167.43 C 14.93 167.89 13.56 168.35 12.18 168.80 C 10.88 164.71 9.43 160.59 6.81 157.14 C 4.45 154.32 4.78 150.03 6.67 147.06 C 8.21 144.81 9.85 142.60 10.91 140.07 C 12.97 135.47 12.28 130.13 14.65 125.63 C 20.37 114.31 18.75 101.11 16.53 89.11 C 14.14 80.69 20.00 73.09 24.10 66.27 C 27.61 59.91 33.05 55.03 37.57 49.45 C 39.18 47.88 38.35 45.56 38.21 43.63 C 44.10 37.85 50.92 33.15 58.00 28.96 Z" />
<path fill="#d19712" opacity="1.00" d=" M 72.47 50.40 C 78.49 46.74 85.42 44.98 92.24 43.50 C 99.37 41.87 106.76 43.29 113.67 45.27 C 121.38 48.00 129.24 52.41 133.43 59.71 C 128.93 58.86 124.53 57.30 119.91 57.27 C 125.08 63.01 129.75 69.14 134.48 75.23 C 136.03 72.49 137.53 69.73 139.14 67.02 C 143.12 72.03 146.98 77.39 148.28 83.79 C 138.10 86.20 127.75 81.89 120.11 75.27 C 121.74 74.72 123.37 74.19 125.00 73.66 C 124.76 73.14 124.28 72.11 124.04 71.60 C 119.48 71.74 114.92 71.61 110.39 71.22 C 110.42 71.77 110.49 72.88 110.52 73.43 C 104.31 73.36 98.05 72.95 92.07 71.16 C 95.16 71.50 98.28 71.47 101.39 71.42 C 93.67 68.61 86.07 65.46 78.28 62.87 C 75.63 61.84 72.81 62.42 70.21 63.30 C 68.43 63.22 66.66 63.00 64.94 62.58 C 66.33 62.49 67.72 62.40 69.11 62.30 C 66.76 60.63 64.41 58.95 62.16 57.15 C 65.54 54.82 68.93 52.49 72.47 50.40 Z" />
<path fill="#d19712" opacity="1.00" d=" M 157.17 67.72 C 158.10 66.19 159.04 64.66 160.00 63.14 C 171.84 73.13 182.58 84.89 196.59 91.94 C 194.15 96.24 191.97 100.89 188.27 104.28 C 185.99 105.36 183.24 104.50 180.78 104.64 C 182.34 106.98 184.07 109.52 187.14 109.80 C 187.41 113.35 187.03 116.99 188.67 120.29 C 188.65 127.48 188.45 134.68 188.68 141.87 C 187.71 144.81 186.95 147.79 187.23 150.95 C 185.00 152.48 183.00 154.31 181.08 156.21 C 179.70 155.16 178.32 154.11 176.94 153.08 C 176.10 157.48 174.58 161.70 173.10 165.91 C 172.40 167.56 172.78 169.35 173.06 171.04 C 173.89 173.64 171.57 175.71 171.00 178.11 C 171.83 181.11 173.94 183.52 175.63 186.08 C 171.18 188.83 166.71 193.08 161.10 192.52 C 158.76 189.95 156.09 185.95 158.23 182.50 C 160.82 177.79 163.58 173.17 166.76 168.84 C 166.50 168.24 165.98 167.05 165.72 166.46 C 161.72 155.68 160.83 143.89 162.15 132.52 C 162.38 130.43 162.46 128.32 162.21 126.23 C 164.18 130.60 169.38 130.21 173.41 130.62 C 173.35 129.77 173.28 128.91 173.22 128.07 C 169.59 127.04 165.29 126.30 163.19 122.77 C 158.44 115.26 159.52 105.91 157.08 97.64 C 155.51 92.38 156.19 86.02 152.06 81.84 C 148.08 76.42 144.96 70.38 142.00 64.35 C 147.17 64.91 152.18 66.33 157.17 67.72 Z" />
<path fill="#d19712" opacity="1.00" d=" M 59.57 88.61 C 60.57 88.56 61.57 88.51 62.57 88.46 C 62.17 90.54 61.78 92.62 61.49 94.73 C 58.15 96.39 54.41 96.57 50.75 96.26 L 49.75 96.19 C 52.32 95.19 55.31 96.05 57.74 94.73 C 59.02 92.96 59.01 90.65 59.57 88.61 Z" />
<path fill="#d19712" opacity="1.00" d=" M 70.19 105.09 C 71.37 106.06 72.83 106.57 74.34 106.19 C 74.44 107.77 74.56 109.34 74.68 110.92 C 74.15 110.81 73.08 110.60 72.54 110.49 C 71.75 108.69 70.95 106.89 70.19 105.09 Z" />
<path fill="#d19712" opacity="1.00" d=" M 47.71 140.60 C 50.90 140.57 54.10 140.57 57.30 140.61 C 56.58 141.04 55.86 141.46 55.14 141.89 C 56.38 141.77 57.62 141.65 58.86 141.53 C 54.18 144.30 48.64 143.03 43.75 141.63 L 44.65 141.61 C 46.76 141.60 48.87 141.56 50.99 141.56 C 49.89 141.24 48.80 140.92 47.71 140.60 Z" />
<path fill="#d19712" opacity="1.00" d=" M 49.89 186.01 C 51.55 186.69 53.24 187.30 54.92 187.92 C 54.84 192.85 51.56 196.75 49.46 200.97 C 49.72 196.47 48.31 192.11 47.93 187.66 C 49.74 189.44 51.43 191.32 53.14 193.20 C 53.60 191.89 54.22 190.61 54.32 189.21 C 52.95 188.00 51.42 187.00 49.89 186.01 Z" />
<path fill="#d19712" opacity="1.00" d=" M 149.06 198.06 C 151.39 195.91 153.65 193.68 155.95 191.51 C 157.62 193.08 159.29 194.64 160.97 196.20 C 159.70 198.19 158.84 200.66 156.81 202.01 C 153.08 202.90 149.20 201.96 146.09 199.76 C 146.95 198.22 147.83 196.70 148.83 195.26 C 148.89 195.96 149.01 197.36 149.06 198.06 Z" />
</g>
<g id="#fdfdfdff">
<path fill="#fdfdfd" opacity="1.00" d=" M 53.67 63.66 C 55.55 61.93 57.28 59.55 59.95 59.11 C 61.76 60.04 63.27 61.43 64.94 62.58 C 66.66 63.00 68.43 63.22 70.21 63.30 C 77.74 65.22 84.78 68.56 92.07 71.16 C 98.05 72.95 104.31 73.36 110.52 73.43 C 112.48 74.46 114.36 75.64 116.26 76.80 C 114.24 79.91 111.57 82.50 108.84 84.99 C 107.94 83.46 107.06 81.91 106.22 80.35 C 105.69 80.35 104.64 80.33 104.11 80.33 C 104.77 83.35 106.32 86.58 104.83 89.62 C 103.42 94.08 100.39 98.58 101.69 103.43 C 105.84 111.06 111.42 118.86 119.96 121.87 C 127.23 125.04 135.29 124.70 143.03 124.30 C 148.00 122.71 152.26 118.73 154.36 113.98 C 155.74 105.50 150.94 97.94 147.10 90.82 C 146.06 89.28 146.43 87.38 146.45 85.64 C 151.36 88.11 150.99 94.08 153.94 98.05 C 159.24 106.70 155.47 118.21 162.21 126.23 C 162.46 128.32 162.38 130.43 162.15 132.52 C 160.83 143.89 161.72 155.68 165.72 166.46 C 161.84 171.26 158.07 176.29 156.07 182.21 C 154.43 186.97 152.42 191.62 148.83 195.26 C 147.83 196.70 146.95 198.22 146.09 199.76 C 145.62 200.65 145.16 201.56 144.70 202.47 C 112.71 202.57 80.72 202.51 48.73 202.50 C 48.91 202.12 49.28 201.36 49.46 200.97 C 51.56 196.75 54.84 192.85 54.92 187.92 C 53.24 187.30 51.55 186.69 49.89 186.01 C 42.24 182.24 40.90 173.14 35.87 167.04 C 29.73 159.29 29.28 149.08 26.97 139.86 C 25.21 128.74 26.97 117.49 27.65 106.37 C 32.41 97.64 36.63 88.61 40.73 79.55 C 44.15 73.59 49.10 68.72 53.67 63.66 M 59.57 88.61 C 59.01 90.65 59.02 92.96 57.74 94.73 C 55.31 96.05 52.32 95.19 49.75 96.19 L 50.75 96.26 C 48.81 96.66 46.97 97.50 44.97 97.59 C 43.06 96.30 41.70 94.40 40.10 92.78 C 40.06 95.59 41.60 98.05 41.84 100.80 C 39.74 102.88 37.72 105.29 35.08 106.67 C 33.38 106.26 31.68 105.84 30.00 105.39 C 30.47 108.17 33.66 108.75 34.85 110.97 C 34.46 113.41 33.37 115.68 32.98 118.12 C 34.14 123.32 36.59 128.23 36.70 133.65 C 38.08 137.16 41.10 140.25 44.65 141.61 L 43.75 141.63 C 48.64 143.03 54.18 144.30 58.86 141.53 C 59.22 141.43 59.92 141.24 60.27 141.14 C 65.43 137.40 69.29 132.23 73.23 127.29 C 77.48 121.71 81.31 115.08 80.53 107.79 C 79.99 107.62 78.91 107.27 78.37 107.09 C 78.29 110.44 79.25 114.12 77.29 117.13 C 72.43 126.21 65.89 134.78 57.30 140.61 C 54.10 140.57 50.90 140.57 47.71 140.60 C 44.25 139.79 40.97 137.86 39.18 134.72 C 36.61 130.93 37.73 126.15 37.53 121.86 C 40.00 121.50 42.51 121.00 44.70 119.74 C 47.07 118.65 48.40 115.44 47.07 113.11 C 45.36 109.44 40.72 109.39 37.71 107.28 C 42.18 102.94 47.30 98.78 53.57 97.55 C 60.11 96.24 65.70 100.98 70.19 105.09 C 70.95 106.89 71.75 108.69 72.54 110.49 C 73.08 110.60 74.15 110.81 74.68 110.92 C 74.56 109.34 74.44 107.77 74.34 106.19 C 74.97 105.91 76.23 105.34 76.86 105.06 C 72.85 100.16 66.61 98.15 61.49 94.73 C 61.78 92.62 62.17 90.54 62.57 88.46 C 61.57 88.51 60.57 88.56 59.57 88.61 M 124.59 157.68 C 124.19 163.29 124.95 168.99 123.65 174.52 C 123.01 178.61 119.47 181.47 115.98 183.24 C 111.38 183.63 106.71 183.56 102.11 183.18 C 94.76 181.96 89.25 176.30 85.87 169.97 C 85.53 170.46 84.85 171.46 84.51 171.95 C 86.56 178.51 91.83 183.94 98.30 186.23 C 104.82 187.69 111.67 187.88 118.16 186.16 C 123.15 184.24 127.08 179.42 127.31 173.99 C 127.44 168.60 127.44 163.21 127.24 157.82 C 126.36 157.77 125.47 157.73 124.59 157.68 Z" />
<path fill="#fdfdfd" opacity="1.00" d=" M 104.15 97.34 C 106.28 89.50 112.50 83.49 119.21 79.32 C 122.55 80.26 125.28 82.70 128.52 83.95 C 127.93 86.95 126.46 90.60 128.74 93.25 C 132.50 95.55 137.22 95.26 141.48 95.55 C 142.00 93.35 142.41 91.11 142.84 88.89 C 146.83 94.10 149.66 100.10 152.20 106.12 C 154.84 114.64 146.52 123.21 138.05 122.53 C 128.53 123.21 118.02 120.91 111.45 113.54 C 108.61 110.56 106.42 107.02 104.35 103.47 C 103.05 101.66 103.40 99.29 104.15 97.34 Z" />
</g>
</svg>
