<?xml version="1.0" encoding="UTF-8" ?>
<!DOCTYPE svg PUBLIC "-//W3C//DTD SVG 1.1//EN" "http://www.w3.org/Graphics/SVG/1.1/DTD/svg11.dtd">
<svg width="210pt" height="220pt" viewBox="0 0 210 220" version="1.1" xmlns="http://www.w3.org/2000/svg">
<g id="#050404fe">
<path fill="#050404" opacity="1.00" d=" M 69.90 26.30 C 72.63 24.72 75.23 26.77 78.04 26.64 C 84.33 26.14 89.52 30.33 94.61 33.37 C 96.01 32.17 97.26 30.81 98.58 29.52 C 104.26 28.72 109.67 30.55 115.20 31.40 C 121.48 36.09 128.28 39.97 134.97 44.05 C 137.68 45.73 139.42 48.96 142.59 49.83 C 144.11 48.26 144.97 46.02 146.90 44.88 C 148.01 44.97 149.12 45.09 150.22 45.24 C 150.15 47.77 150.09 50.36 151.10 52.74 C 151.20 54.79 151.27 56.85 151.36 58.90 C 153.31 60.80 155.14 62.82 156.80 64.97 C 159.77 66.65 161.93 69.31 163.87 72.05 C 170.16 75.80 174.38 82.49 181.46 84.91 C 181.59 85.16 181.85 85.65 181.98 85.89 L 182.19 86.30 C 183.54 86.87 184.92 87.35 186.35 87.72 C 186.34 87.28 186.32 86.42 186.32 85.99 L 186.29 85.27 C 187.79 84.56 188.58 83.24 188.94 81.68 L 190.55 81.76 C 190.39 83.96 189.97 86.13 189.19 88.20 C 190.40 88.75 191.57 89.41 192.55 90.33 C 191.68 90.47 189.94 90.73 189.07 90.87 C 186.46 96.73 182.84 102.25 177.27 105.69 C 178.68 116.05 180.69 126.62 178.55 137.04 C 178.31 144.23 173.88 150.17 171.43 156.69 C 170.32 156.21 169.20 155.73 168.09 155.26 C 167.33 159.01 164.51 162.78 166.22 166.66 C 166.95 169.24 169.24 172.76 172.31 170.75 C 172.62 171.24 173.26 172.21 173.57 172.69 C 174.39 172.68 176.02 172.65 176.83 172.64 C 177.25 176.69 172.94 175.50 170.36 176.22 C 166.56 177.14 163.17 179.20 159.98 181.39 C 159.21 181.42 157.68 181.49 156.91 181.52 C 156.56 184.33 155.50 186.94 154.20 189.43 C 150.40 190.16 146.54 190.63 142.66 190.43 C 141.59 189.59 140.52 188.77 139.44 187.96 C 139.71 187.51 140.24 186.61 140.51 186.17 C 134.77 189.13 129.39 193.35 122.68 193.74 C 121.28 193.72 119.92 194.05 118.63 194.57 C 112.79 195.28 106.64 195.37 100.82 194.50 C 99.45 193.90 97.98 193.63 96.49 193.61 C 89.14 192.84 82.46 189.13 75.09 188.50 C 74.28 186.05 71.96 187.11 70.09 187.31 C 69.19 185.52 68.19 183.78 67.11 182.09 C 65.96 183.09 64.81 184.09 63.66 185.10 C 63.24 182.86 63.97 179.80 61.08 179.09 C 60.00 184.78 56.44 189.83 51.59 192.96 C 51.94 190.92 52.37 188.90 52.74 186.86 C 53.36 185.97 53.98 185.08 54.60 184.20 C 55.30 184.29 56.72 184.48 57.42 184.58 C 57.95 182.46 58.72 180.36 58.78 178.16 C 58.58 176.15 56.66 175.05 55.40 173.71 C 55.74 177.09 56.19 180.46 56.37 183.86 C 54.46 183.30 53.20 181.99 52.59 179.93 C 52.60 178.04 52.59 176.15 52.58 174.26 C 50.64 174.49 48.63 174.96 46.78 174.08 C 43.41 172.81 39.76 172.81 36.28 172.06 C 33.32 170.77 30.85 168.62 28.25 166.77 C 27.65 166.66 26.46 166.43 25.86 166.32 C 25.40 165.22 24.94 164.12 24.47 163.03 C 23.83 163.12 22.56 163.30 21.92 163.39 C 21.21 161.00 20.49 158.61 19.93 156.18 C 19.24 155.23 18.55 154.29 17.87 153.35 C 19.32 147.12 16.89 140.49 19.61 134.48 C 19.29 134.44 18.65 134.36 18.33 134.33 C 20.03 133.22 20.42 131.21 21.08 129.44 C 20.27 129.39 18.67 129.30 17.86 129.25 C 18.42 128.28 18.98 127.30 19.54 126.33 C 19.06 124.86 19.07 123.42 20.43 122.47 C 24.08 118.81 27.08 114.28 28.18 109.17 C 28.52 106.08 28.33 102.96 28.23 99.87 C 27.36 97.22 26.72 94.49 26.40 91.71 C 26.32 90.78 26.24 89.84 26.16 88.90 C 25.93 88.59 25.48 87.96 25.25 87.64 C 24.25 85.15 24.62 82.40 24.51 79.78 C 25.04 79.62 26.10 79.31 26.63 79.15 C 26.58 78.37 26.48 76.80 26.43 76.02 C 30.19 70.59 34.19 65.32 37.59 59.66 C 39.58 56.86 42.63 54.94 44.30 51.88 C 42.60 51.74 40.91 51.60 39.21 51.45 C 45.56 41.82 56.06 36.50 65.64 30.70 C 66.48 30.53 68.15 30.18 68.98 30.01 C 67.61 29.23 66.24 28.43 64.89 27.61 C 66.18 26.20 68.21 26.60 69.90 26.30 M 62.47 36.55 C 56.10 40.05 50.69 44.96 45.41 49.88 C 46.21 50.07 47.83 50.45 48.64 50.63 C 45.66 55.26 41.13 58.54 37.91 62.94 C 34.06 69.21 29.44 75.21 27.64 82.48 C 26.62 85.44 28.21 88.37 28.67 91.28 C 29.73 97.45 30.12 103.77 29.69 110.02 C 28.87 115.31 26.96 120.40 24.26 125.01 C 24.60 125.49 25.28 126.43 25.63 126.90 C 23.80 132.95 19.05 138.39 19.88 145.01 C 21.04 150.02 22.99 154.80 24.86 159.57 C 25.98 158.45 27.15 157.35 28.61 156.70 C 27.26 162.36 31.91 167.38 37.08 168.81 C 42.10 170.17 47.00 172.45 52.26 172.51 C 50.43 169.22 48.70 165.89 47.22 162.43 C 46.00 159.53 43.19 157.71 41.92 154.85 C 37.77 147.37 37.48 138.64 35.59 130.47 C 34.75 121.79 35.52 113.05 36.61 104.43 C 37.29 101.10 39.01 98.03 39.01 94.55 C 39.56 94.50 40.66 94.39 41.21 94.33 C 43.15 90.75 45.63 87.18 45.52 82.92 C 48.82 76.98 52.45 71.08 57.46 66.42 C 59.98 63.93 62.99 61.95 65.17 59.11 C 67.60 55.96 71.60 54.91 74.82 52.81 C 80.93 48.83 88.18 47.45 95.13 45.67 C 104.84 44.73 114.90 46.67 123.25 51.79 C 126.10 53.99 128.82 56.36 131.55 58.70 C 133.38 58.64 135.22 58.60 137.05 58.56 C 138.11 56.45 139.29 54.39 140.72 52.50 C 134.66 47.34 128.27 42.53 121.34 38.59 C 117.43 36.05 113.46 33.41 108.85 32.34 C 105.06 31.36 100.25 30.25 97.36 33.70 C 97.91 34.99 98.45 36.29 98.97 37.59 C 99.81 37.74 100.65 37.89 101.49 38.04 C 100.16 38.18 98.83 38.33 97.50 38.48 C 92.35 35.76 88.38 30.13 82.10 30.18 C 81.61 29.73 80.62 28.82 80.13 28.37 C 73.20 28.16 68.10 33.36 62.47 36.55 M 85.07 50.43 C 78.53 52.35 73.32 56.96 67.50 60.31 C 72.02 66.12 80.07 63.53 85.83 67.06 C 92.47 68.39 98.36 73.29 105.41 72.50 C 111.05 71.28 116.70 75.14 122.19 72.59 C 122.57 73.26 123.32 74.59 123.70 75.26 C 121.25 75.36 118.81 75.44 116.37 75.52 C 120.85 77.66 124.43 81.42 129.33 82.73 C 133.98 84.73 139.09 83.68 143.91 84.55 C 142.43 78.52 138.82 73.33 135.00 68.55 C 133.67 71.24 132.47 74.00 131.84 76.95 C 128.38 75.26 128.19 70.93 125.73 68.32 C 123.17 65.48 119.99 63.18 118.04 59.82 C 118.68 59.75 119.97 59.62 120.61 59.56 C 123.70 61.63 127.45 62.03 131.05 62.55 C 123.48 51.81 109.77 46.59 96.91 47.54 C 92.89 48.16 88.96 49.26 85.07 50.43 M 51.79 77.67 C 49.08 80.74 48.83 85.02 46.65 88.37 C 44.52 91.79 43.53 95.79 41.04 99.01 C 44.07 101.18 46.30 104.92 50.39 105.02 C 50.41 103.00 50.29 100.99 50.06 98.99 L 49.31 100.53 C 47.36 98.60 45.91 96.22 46.05 93.39 C 46.49 93.42 47.35 93.47 47.78 93.49 C 48.54 95.55 49.61 97.50 51.47 98.80 C 51.86 96.23 51.26 93.76 50.37 91.38 C 51.30 91.66 53.14 92.21 54.07 92.49 C 56.38 91.03 58.52 89.29 61.00 88.12 C 62.02 87.67 63.04 87.25 64.07 86.81 C 66.05 86.34 68.07 86.00 70.09 85.66 C 71.77 86.93 73.53 88.14 75.68 88.40 C 78.92 88.94 80.24 92.44 82.92 94.00 C 84.00 94.57 85.03 95.22 86.05 95.89 C 85.58 98.59 85.56 101.33 85.33 104.05 C 83.06 108.73 79.59 112.71 76.28 116.67 C 75.66 113.02 71.89 114.80 69.88 116.05 C 69.55 117.45 69.76 118.79 70.50 120.05 C 71.81 118.16 73.78 116.99 75.80 116.01 C 74.55 119.14 71.89 121.25 69.39 123.34 C 65.88 123.29 62.36 123.32 58.85 123.36 C 56.71 121.55 54.68 119.62 52.54 117.81 C 52.45 114.39 51.83 111.02 51.40 107.63 C 46.91 107.19 42.60 105.10 40.78 100.74 C 38.94 102.67 38.29 105.33 38.25 107.94 C 38.42 112.98 36.89 117.90 37.28 122.96 C 36.83 128.08 38.19 133.04 39.15 138.02 C 39.77 140.73 40.34 143.45 40.94 146.16 C 41.52 147.84 42.12 149.51 42.68 151.20 C 43.76 153.69 45.29 155.93 47.16 157.91 C 50.35 161.44 50.31 166.90 54.04 170.04 C 56.17 172.51 59.25 173.74 62.28 174.71 C 62.50 175.25 62.94 176.33 63.16 176.87 C 65.41 180.80 70.20 181.90 73.15 185.17 C 74.05 185.28 74.95 185.40 75.85 185.52 C 77.99 187.02 80.61 187.48 83.14 187.92 C 85.12 188.59 87.11 189.24 89.11 189.88 C 90.41 190.34 91.72 190.80 93.01 191.29 C 96.67 191.56 100.19 192.62 103.78 193.31 C 108.13 193.44 112.49 193.39 116.85 193.25 C 121.24 191.61 126.24 192.02 130.42 189.68 C 136.20 186.24 141.45 182.01 146.54 177.63 C 147.02 176.10 147.49 174.56 147.94 173.02 C 148.35 172.11 148.76 171.21 149.17 170.31 C 150.88 165.26 153.43 160.33 157.60 156.86 C 156.97 154.56 156.57 152.22 155.88 149.94 C 154.52 142.34 154.59 134.62 154.86 126.92 C 155.23 124.67 155.74 122.37 154.35 120.33 C 152.94 119.04 151.95 117.37 151.58 115.49 C 150.69 109.59 149.46 103.76 148.49 97.87 C 148.02 97.08 147.56 96.28 147.11 95.48 C 145.65 96.41 144.16 97.30 142.65 98.14 C 142.60 99.18 142.55 100.22 142.51 101.26 C 140.73 104.94 137.65 107.56 134.05 109.37 C 126.90 109.63 119.41 109.66 112.99 106.06 C 110.35 104.16 107.36 102.33 106.22 99.09 C 104.88 97.45 103.62 95.74 102.26 94.11 C 102.18 90.32 102.09 86.45 103.84 82.97 C 105.81 80.37 107.83 77.75 110.50 75.82 C 110.52 75.46 110.55 74.74 110.57 74.39 C 106.73 74.28 102.73 75.08 99.03 73.79 C 97.16 73.69 95.29 73.60 93.42 73.52 L 93.66 72.40 C 92.17 72.42 90.69 72.44 89.20 72.41 C 88.29 71.49 87.28 70.66 86.27 69.84 C 82.90 69.94 80.23 67.59 77.09 66.77 C 75.39 66.56 73.69 66.39 72.00 66.25 C 69.53 65.49 67.55 63.86 65.93 61.90 C 60.66 66.66 56.34 72.27 51.79 77.67 M 152.38 64.18 C 152.32 65.93 152.27 67.69 152.23 69.44 C 147.61 68.77 143.23 67.01 138.62 66.28 C 138.31 66.68 137.69 67.47 137.37 67.87 C 141.36 72.14 143.70 77.49 145.97 82.78 C 146.92 82.71 148.82 82.57 149.78 82.49 C 149.27 84.39 148.72 86.28 148.24 88.19 C 148.83 88.55 150.01 89.26 150.60 89.61 C 148.57 93.56 151.19 97.74 152.02 101.66 C 151.83 102.19 151.45 103.26 151.26 103.79 C 151.50 104.27 151.99 105.22 152.24 105.70 C 152.63 108.82 152.93 112.01 153.99 114.99 C 155.88 119.22 160.01 122.79 164.88 122.52 C 164.86 123.14 164.83 124.38 164.82 125.00 C 162.41 124.47 160.03 123.87 157.64 123.29 C 155.10 134.98 158.02 146.82 159.70 158.41 C 158.09 160.11 155.89 161.48 155.18 163.82 C 154.41 167.30 151.09 169.34 150.29 172.84 C 151.63 175.02 152.81 177.29 153.92 179.60 C 159.35 180.40 163.48 176.15 167.89 173.76 C 165.69 170.94 162.19 168.06 163.43 164.05 C 163.82 157.15 168.16 151.15 167.79 144.17 C 168.98 145.02 170.17 145.88 171.37 146.74 C 170.89 148.10 170.42 149.47 169.97 150.85 C 170.44 150.68 171.39 150.35 171.86 150.19 C 176.80 141.71 178.08 131.63 177.34 121.98 C 176.55 116.95 176.56 111.83 175.48 106.85 C 174.02 105.09 172.43 103.30 172.06 100.96 C 173.72 101.76 175.34 102.64 176.96 103.53 C 180.01 100.26 183.01 96.83 184.70 92.63 C 184.97 91.84 186.02 91.08 185.47 90.19 C 181.99 88.63 178.14 87.47 175.54 84.51 C 172.51 81.14 168.70 78.67 165.13 75.93 C 160.83 72.06 157.13 67.54 152.38 64.18 M 107.94 80.11 C 106.65 82.46 105.32 84.79 103.92 87.08 C 103.55 89.06 103.40 91.07 103.33 93.09 C 103.83 93.47 104.83 94.24 105.34 94.62 C 107.59 97.52 108.85 102.00 112.78 102.99 C 114.77 101.57 116.96 98.25 119.62 100.40 C 122.61 101.53 122.84 104.69 122.97 107.44 C 126.73 107.50 130.48 107.47 134.24 107.48 C 136.28 105.69 138.60 104.16 140.18 101.92 C 141.07 98.30 141.17 94.13 138.88 90.97 C 139.09 86.07 133.54 85.07 129.74 85.25 C 127.84 84.35 125.91 83.38 123.76 83.34 C 122.09 82.13 120.41 80.95 118.82 79.65 C 115.57 79.50 112.32 79.43 109.07 79.44 L 118.50 78.75 L 112.39 78.36 L 115.44 76.91 C 112.30 75.21 110.25 78.61 107.94 80.11 M 140.28 86.61 C 140.36 88.31 140.45 90.01 140.54 91.71 C 141.93 90.59 143.48 89.76 145.18 89.21 C 144.93 91.74 141.77 93.16 142.65 95.89 C 143.99 94.80 145.26 93.63 146.45 92.37 C 145.97 91.20 145.52 90.02 145.12 88.83 C 144.38 86.43 142.55 85.82 140.28 86.61 M 61.83 89.59 C 58.09 92.13 52.72 94.29 52.26 99.44 C 51.79 101.34 51.58 103.30 51.34 105.24 C 51.98 105.79 52.64 106.34 53.29 106.89 C 53.05 107.74 52.57 109.45 52.32 110.30 L 53.59 110.47 C 53.54 111.98 53.49 113.50 53.45 115.02 C 55.13 117.58 57.10 119.99 59.89 121.42 C 62.53 121.35 65.18 121.36 67.83 121.40 C 67.71 119.51 67.61 117.61 67.52 115.72 C 68.28 114.74 69.03 113.77 69.79 112.80 C 72.34 112.52 74.91 112.30 77.48 112.41 C 81.21 107.73 86.77 101.46 83.45 95.17 C 82.33 95.27 81.21 95.37 80.09 95.50 C 81.15 96.88 82.27 98.21 83.33 99.60 C 81.16 99.55 79.67 98.24 78.77 96.39 C 78.98 93.74 76.73 92.17 75.06 90.50 C 73.91 90.50 72.76 90.50 71.61 90.50 C 71.23 89.97 70.46 88.90 70.08 88.37 C 67.27 88.28 64.34 88.09 61.83 89.59 M 114.05 105.00 C 116.39 105.50 118.59 106.46 120.85 107.22 C 120.60 105.18 119.86 103.05 117.88 102.09 C 116.38 102.74 115.27 103.96 114.05 105.00 M 148.89 178.45 C 146.70 181.11 144.16 183.55 142.77 186.76 C 143.48 187.73 144.18 188.70 144.88 189.68 C 146.90 189.74 148.92 189.78 150.94 189.79 C 152.19 187.04 153.58 184.35 154.96 181.66 C 154.22 181.57 152.74 181.38 152.00 181.28 C 151.55 180.29 151.10 179.30 150.66 178.31 C 150.21 178.35 149.33 178.42 148.89 178.45 Z" />
<path fill="#050404" opacity="1.00" d=" M 123.15 142.10 C 124.72 140.98 125.91 139.45 127.24 138.08 C 127.53 138.61 128.12 139.67 128.42 140.20 C 126.27 143.90 121.99 145.25 118.92 147.96 C 115.97 150.42 112.56 152.30 109.85 155.06 C 108.06 155.97 106.38 157.08 104.84 158.37 C 98.92 158.55 92.99 158.61 87.10 158.03 C 82.42 156.59 77.29 156.59 72.94 154.18 C 71.01 152.61 69.64 150.44 68.71 148.16 C 68.54 145.61 68.65 143.05 68.63 140.50 C 69.18 140.47 70.28 140.42 70.82 140.39 C 70.80 142.42 70.77 144.44 70.68 146.47 C 71.72 149.07 73.25 151.45 75.25 153.43 C 79.26 153.33 82.96 155.04 86.88 155.57 C 92.34 155.98 97.78 156.51 103.26 156.29 C 110.31 152.15 116.28 146.49 123.15 142.10 Z" />
<path fill="#050404" opacity="1.00" d=" M 43.59 160.16 C 46.93 160.59 41.81 163.00 43.59 160.16 Z" />
</g>
<g id="#d19914ff">
<path fill="#d19914" opacity="1.00" d=" M 62.47 36.55 C 68.10 33.36 73.20 28.16 80.13 28.37 C 80.62 28.82 81.61 29.73 82.10 30.18 C 88.38 30.13 92.35 35.76 97.50 38.48 C 98.83 38.33 100.16 38.18 101.49 38.04 C 100.65 37.89 99.81 37.74 98.97 37.59 C 98.45 36.29 97.91 34.99 97.36 33.70 C 100.25 30.25 105.06 31.36 108.85 32.34 C 113.46 33.41 117.43 36.05 121.34 38.59 C 128.27 42.53 134.66 47.34 140.72 52.50 C 139.29 54.39 138.11 56.45 137.05 58.56 C 135.22 58.60 133.38 58.64 131.55 58.70 C 128.82 56.36 126.10 53.99 123.25 51.79 C 114.90 46.67 104.84 44.73 95.13 45.67 C 88.18 47.45 80.93 48.83 74.82 52.81 C 71.60 54.91 67.60 55.96 65.17 59.11 C 62.99 61.95 59.98 63.93 57.46 66.42 C 52.45 71.08 48.82 76.98 45.52 82.92 C 45.63 87.18 43.15 90.75 41.21 94.33 C 40.66 94.39 39.56 94.50 39.01 94.55 C 39.01 98.03 37.29 101.10 36.61 104.43 C 35.52 113.05 34.75 121.79 35.59 130.47 C 37.48 138.64 37.77 147.37 41.92 154.85 C 43.19 157.71 46.00 159.53 47.22 162.43 C 48.70 165.89 50.43 169.22 52.26 172.51 C 47.00 172.45 42.10 170.17 37.08 168.81 C 31.91 167.38 27.26 162.36 28.61 156.70 C 27.15 157.35 25.98 158.45 24.86 159.57 C 22.99 154.80 21.04 150.02 19.88 145.01 C 19.05 138.39 23.80 132.95 25.63 126.90 C 25.28 126.43 24.60 125.49 24.26 125.01 C 26.96 120.40 28.87 115.31 29.69 110.02 C 30.12 103.77 29.73 97.45 28.67 91.28 C 28.21 88.37 26.62 85.44 27.64 82.48 C 29.44 75.21 34.06 69.21 37.91 62.94 C 41.13 58.54 45.66 55.26 48.64 50.63 C 47.83 50.45 46.21 50.07 45.41 49.88 C 50.69 44.96 56.10 40.05 62.47 36.55 M 43.59 160.16 C 41.81 163.00 46.93 160.59 43.59 160.16 Z" />
<path fill="#d19914" opacity="1.00" d=" M 85.07 50.43 C 88.96 49.26 92.89 48.16 96.91 47.54 C 109.77 46.59 123.48 51.81 131.05 62.55 C 127.45 62.03 123.70 61.63 120.61 59.56 C 119.97 59.62 118.68 59.75 118.04 59.82 C 119.99 63.18 123.17 65.48 125.73 68.32 C 128.19 70.93 128.38 75.26 131.84 76.95 C 132.47 74.00 133.67 71.24 135.00 68.55 C 138.82 73.33 142.43 78.52 143.91 84.55 C 139.09 83.68 133.98 84.73 129.33 82.73 C 124.43 81.42 120.85 77.66 116.37 75.52 C 118.81 75.44 121.25 75.36 123.70 75.26 C 123.32 74.59 122.57 73.26 122.19 72.59 C 116.70 75.14 111.05 71.28 105.41 72.50 C 98.36 73.29 92.47 68.39 85.83 67.06 C 80.07 63.53 72.02 66.12 67.50 60.31 C 73.32 56.96 78.53 52.35 85.07 50.43 Z" />
<path fill="#d19914" opacity="1.00" d=" M 152.38 64.18 C 157.13 67.54 160.83 72.06 165.13 75.93 C 168.70 78.67 172.51 81.14 175.54 84.51 C 178.14 87.47 181.99 88.63 185.47 90.19 C 186.02 91.08 184.97 91.84 184.70 92.63 C 183.01 96.83 180.01 100.26 176.96 103.53 C 175.34 102.64 173.72 101.76 172.06 100.96 C 172.43 103.30 174.02 105.09 175.48 106.85 C 176.56 111.83 176.55 116.95 177.34 121.98 C 178.08 131.63 176.80 141.71 171.86 150.19 C 171.39 150.35 170.44 150.68 169.97 150.85 C 170.42 149.47 170.89 148.10 171.37 146.74 C 170.17 145.88 168.98 145.02 167.79 144.17 C 168.16 151.15 163.82 157.15 163.43 164.05 C 162.19 168.06 165.69 170.94 167.89 173.76 C 163.48 176.15 159.35 180.40 153.92 179.60 C 152.81 177.29 151.63 175.02 150.29 172.84 C 151.09 169.34 154.41 167.30 155.18 163.82 C 155.89 161.48 158.09 160.11 159.70 158.41 C 158.02 146.82 155.10 134.98 157.64 123.29 C 160.03 123.87 162.41 124.47 164.82 125.00 C 164.83 124.38 164.86 123.14 164.88 122.52 C 160.01 122.79 155.88 119.22 153.99 114.99 C 152.93 112.01 152.63 108.82 152.24 105.70 C 151.99 105.22 151.50 104.27 151.26 103.79 C 151.45 103.26 151.83 102.19 152.02 101.66 C 151.19 97.74 148.57 93.56 150.60 89.61 C 150.01 89.26 148.83 88.55 148.24 88.19 C 148.72 86.28 149.27 84.39 149.78 82.49 C 148.82 82.57 146.92 82.71 145.97 82.78 C 143.70 77.49 141.36 72.14 137.37 67.87 C 137.69 67.47 138.31 66.68 138.62 66.28 C 143.23 67.01 147.61 68.77 152.23 69.44 C 152.27 67.69 152.32 65.93 152.38 64.18 Z" />
<path fill="#d19914" opacity="1.00" d=" M 181.98 85.89 C 183.08 84.87 185.26 84.89 186.32 85.99 C 186.32 86.42 186.34 87.28 186.35 87.72 C 184.92 87.35 183.54 86.87 182.19 86.30 L 181.98 85.89 Z" />
<path fill="#d19914" opacity="1.00" d=" M 25.25 87.64 C 25.48 87.96 25.93 88.59 26.16 88.90 C 26.24 89.84 26.32 90.78 26.40 91.71 L 26.50 93.08 C 24.27 91.86 23.67 89.80 24.71 86.91 L 25.25 87.64 Z" />
<path fill="#d19914" opacity="1.00" d=" M 55.40 173.71 C 56.66 175.05 58.58 176.15 58.78 178.16 C 58.72 180.36 57.95 182.46 57.42 184.58 C 56.72 184.48 55.30 184.29 54.60 184.20 L 52.38 183.87 C 53.38 183.87 55.37 183.86 56.37 183.86 C 56.19 180.46 55.74 177.09 55.40 173.71 Z" />
<path fill="#d19914" opacity="1.00" d=" M 148.89 178.45 C 149.33 178.42 150.21 178.35 150.66 178.31 C 151.10 179.30 151.55 180.29 152.00 181.28 C 152.74 181.38 154.22 181.57 154.96 181.66 C 153.58 184.35 152.19 187.04 150.94 189.79 C 148.92 189.78 146.90 189.74 144.88 189.68 C 144.18 188.70 143.48 187.73 142.77 186.76 C 144.16 183.55 146.70 181.11 148.89 178.45 Z" />
</g>
<g id="#fdfdfdff">
<path fill="#fdfdfd" opacity="1.00" d=" M 51.79 77.67 C 56.34 72.27 60.66 66.66 65.93 61.90 C 67.55 63.86 69.53 65.49 72.00 66.25 C 73.69 66.39 75.39 66.56 77.09 66.77 C 80.23 67.59 82.90 69.94 86.27 69.84 C 87.28 70.66 88.29 71.49 89.20 72.41 C 90.69 72.44 92.17 72.42 93.66 72.40 L 93.42 73.52 C 95.29 73.60 97.16 73.69 99.03 73.79 C 102.73 75.08 106.73 74.28 110.57 74.39 C 110.55 74.74 110.52 75.46 110.50 75.82 C 107.83 77.75 105.81 80.37 103.84 82.97 C 102.09 86.45 102.18 90.32 102.26 94.11 C 103.62 95.74 104.88 97.45 106.22 99.09 C 107.36 102.33 110.35 104.16 112.99 106.06 C 119.41 109.66 126.90 109.63 134.05 109.37 C 137.65 107.56 140.73 104.94 142.51 101.26 C 142.55 100.22 142.60 99.18 142.65 98.14 C 144.16 97.30 145.65 96.41 147.11 95.48 C 147.56 96.28 148.02 97.08 148.49 97.87 C 149.46 103.76 150.69 109.59 151.58 115.49 C 151.95 117.37 152.94 119.04 154.35 120.33 C 155.74 122.37 155.23 124.67 154.86 126.92 C 154.59 134.62 154.52 142.34 155.88 149.94 C 156.57 152.22 156.97 154.56 157.60 156.86 C 153.43 160.33 150.88 165.26 149.17 170.31 C 148.76 171.21 148.35 172.11 147.94 173.02 C 147.49 174.56 147.02 176.10 146.54 177.63 C 141.45 182.01 136.20 186.24 130.42 189.68 C 126.24 192.02 121.24 191.61 116.85 193.25 C 112.49 193.39 108.13 193.44 103.78 193.31 C 100.19 192.62 96.67 191.56 93.01 191.29 C 91.72 190.80 90.41 190.34 89.11 189.88 C 87.11 189.24 85.12 188.59 83.14 187.92 C 80.61 187.48 77.99 187.02 75.85 185.52 C 74.95 185.40 74.05 185.28 73.15 185.17 C 70.20 181.90 65.41 180.80 63.16 176.87 C 62.94 176.33 62.50 175.25 62.28 174.71 C 59.25 173.74 56.17 172.51 54.04 170.04 C 50.31 166.90 50.35 161.44 47.16 157.91 C 45.29 155.93 43.76 153.69 42.68 151.20 C 42.12 149.51 41.52 147.84 40.94 146.16 C 40.34 143.45 39.77 140.73 39.15 138.02 C 38.19 133.04 36.83 128.08 37.28 122.96 C 36.89 117.90 38.42 112.98 38.25 107.94 C 38.29 105.33 38.94 102.67 40.78 100.74 C 42.60 105.10 46.91 107.19 51.40 107.63 C 51.83 111.02 52.45 114.39 52.54 117.81 C 54.68 119.62 56.71 121.55 58.85 123.36 C 62.36 123.32 65.88 123.29 69.39 123.34 C 71.89 121.25 74.55 119.14 75.80 116.01 C 73.78 116.99 71.81 118.16 70.50 120.05 C 69.76 118.79 69.55 117.45 69.88 116.05 C 71.89 114.80 75.66 113.02 76.28 116.67 C 79.59 112.71 83.06 108.73 85.33 104.05 C 85.56 101.33 85.58 98.59 86.05 95.89 C 85.03 95.22 84.00 94.57 82.92 94.00 C 80.24 92.44 78.92 88.94 75.68 88.40 C 73.53 88.14 71.77 86.93 70.09 85.66 C 68.07 86.00 66.05 86.34 64.07 86.81 C 63.04 87.25 62.02 87.67 61.00 88.12 C 58.52 89.29 56.38 91.03 54.07 92.49 C 53.14 92.21 51.30 91.66 50.37 91.38 C 51.26 93.76 51.86 96.23 51.47 98.80 C 49.61 97.50 48.54 95.55 47.78 93.49 C 47.35 93.47 46.49 93.42 46.05 93.39 C 45.91 96.22 47.36 98.60 49.31 100.53 L 50.06 98.99 C 50.29 100.99 50.41 103.00 50.39 105.02 C 46.30 104.92 44.07 101.18 41.04 99.01 C 43.53 95.79 44.52 91.79 46.65 88.37 C 48.83 85.02 49.08 80.74 51.79 77.67 M 123.15 142.10 C 116.28 146.49 110.31 152.15 103.26 156.29 C 97.78 156.51 92.34 155.98 86.88 155.57 C 82.96 155.04 79.26 153.33 75.25 153.43 C 73.25 151.45 71.72 149.07 70.68 146.47 C 70.77 144.44 70.80 142.42 70.82 140.39 C 70.28 140.42 69.18 140.47 68.63 140.50 C 68.65 143.05 68.54 145.61 68.71 148.16 C 69.64 150.44 71.01 152.61 72.94 154.18 C 77.29 156.59 82.42 156.59 87.10 158.03 C 92.99 158.61 98.92 158.55 104.84 158.37 C 106.38 157.08 108.06 155.97 109.85 155.06 C 112.56 152.30 115.97 150.42 118.92 147.96 C 121.99 145.25 126.27 143.90 128.42 140.20 C 128.12 139.67 127.53 138.61 127.24 138.08 C 125.91 139.45 124.72 140.98 123.15 142.10 Z" />
<path fill="#fdfdfd" opacity="1.00" d=" M 107.94 80.11 C 110.25 78.61 112.30 75.21 115.44 76.91 L 112.39 78.36 L 118.50 78.75 L 109.07 79.44 C 112.32 79.43 115.57 79.50 118.82 79.65 C 120.41 80.95 122.09 82.13 123.76 83.34 C 125.91 83.38 127.84 84.35 129.74 85.25 C 133.54 85.07 139.09 86.07 138.88 90.97 C 141.17 94.13 141.07 98.30 140.18 101.92 C 138.60 104.16 136.28 105.69 134.24 107.48 C 130.48 107.47 126.73 107.50 122.97 107.44 C 122.84 104.69 122.61 101.53 119.62 100.40 C 116.96 98.25 114.77 101.57 112.78 102.99 C 108.85 102.00 107.59 97.52 105.34 94.62 C 104.83 94.24 103.83 93.47 103.33 93.09 C 103.40 91.07 103.55 89.06 103.92 87.08 C 105.32 84.79 106.65 82.46 107.94 80.11 Z" />
<path fill="#fdfdfd" opacity="1.00" d=" M 140.28 86.61 C 142.55 85.82 144.38 86.43 145.12 88.83 C 145.52 90.02 145.97 91.20 146.45 92.37 C 145.26 93.63 143.99 94.80 142.65 95.89 C 141.77 93.16 144.93 91.74 145.18 89.21 C 143.48 89.76 141.93 90.59 140.54 91.71 C 140.45 90.01 140.36 88.31 140.28 86.61 Z" />
<path fill="#fdfdfd" opacity="1.00" d=" M 61.83 89.59 C 64.34 88.09 67.27 88.28 70.08 88.37 C 70.46 88.90 71.23 89.97 71.61 90.50 C 72.76 90.50 73.91 90.50 75.06 90.50 C 76.73 92.17 78.98 93.74 78.77 96.39 C 79.67 98.24 81.16 99.55 83.33 99.60 C 82.27 98.21 81.15 96.88 80.09 95.50 C 81.21 95.37 82.33 95.27 83.45 95.17 C 86.77 101.46 81.21 107.73 77.48 112.41 C 74.91 112.30 72.34 112.52 69.79 112.80 C 69.03 113.77 68.28 114.74 67.52 115.72 C 67.61 117.61 67.71 119.51 67.83 121.40 C 65.18 121.36 62.53 121.35 59.89 121.42 C 57.10 119.99 55.13 117.58 53.45 115.02 C 53.49 113.50 53.54 111.98 53.59 110.47 L 52.32 110.30 C 52.57 109.45 53.05 107.74 53.29 106.89 C 52.64 106.34 51.98 105.79 51.34 105.24 C 51.58 103.30 51.79 101.34 52.26 99.44 C 52.72 94.29 58.09 92.13 61.83 89.59 Z" />
<path fill="#fdfdfd" opacity="1.00" d=" M 114.05 105.00 C 115.27 103.96 116.38 102.74 117.88 102.09 C 119.86 103.05 120.60 105.18 120.85 107.22 C 118.59 106.46 116.39 105.50 114.05 105.00 Z" />
<path fill="#fdfdfd" opacity="1.00" d=" M 96.49 193.61 C 97.98 193.63 99.45 193.90 100.82 194.50 C 99.73 195.64 97.20 195.65 96.36 194.19 L 96.49 193.61 Z" />
<path fill="#fdfdfd" opacity="1.00" d=" M 118.63 194.57 C 119.92 194.05 121.28 193.72 122.68 193.74 L 122.68 194.40 C 121.37 195.49 120.01 195.55 118.63 194.57 Z" />
</g>
</svg>
