<?xml version="1.0" encoding="UTF-8" ?>
<!DOCTYPE svg PUBLIC "-//W3C//DTD SVG 1.1//EN" "http://www.w3.org/Graphics/SVG/1.1/DTD/svg11.dtd">
<svg width="210pt" height="220pt" viewBox="0 0 210 220" version="1.1" xmlns="http://www.w3.org/2000/svg">
<g id="#fdfdfdff">
<path fill="#fdfdfd" opacity="1.00" d=" M 98.87 31.98 C 103.93 30.04 109.21 27.88 114.75 28.50 L 114.90 29.00 C 121.26 30.53 128.84 27.69 134.55 32.09 C 129.93 32.40 125.29 33.01 121.11 35.15 C 111.36 33.95 101.59 36.16 92.25 38.78 C 91.27 38.75 89.30 38.69 88.31 38.66 C 92.69 36.39 97.33 34.69 101.94 32.98 C 105.54 31.58 109.48 31.45 113.07 30.04 C 112.97 29.80 112.77 29.33 112.66 29.09 C 107.94 28.79 103.33 30.58 98.87 31.98 Z" />
<path fill="#fdfdfd" opacity="1.00" d=" M 32.56 53.33 C 34.15 51.37 36.29 50.08 38.80 49.76 C 38.90 52.41 41.35 52.45 43.33 52.92 C 39.75 52.05 36.13 52.95 32.56 53.33 Z" />
<path fill="#fdfdfd" opacity="1.00" d=" M 147.12 60.19 C 149.24 60.34 151.35 60.53 153.47 60.73 C 156.57 60.26 159.72 60.63 162.84 60.29 L 162.46 61.05 C 162.22 63.93 162.19 66.87 162.92 69.68 C 163.14 68.59 163.58 66.42 163.80 65.33 C 164.51 65.34 165.92 65.36 166.63 65.36 C 166.61 64.93 166.57 64.08 166.55 63.65 C 166.00 63.70 164.90 63.80 164.35 63.86 L 164.01 61.71 C 165.81 61.88 167.63 62.01 169.44 62.14 C 169.52 64.59 167.82 68.37 171.03 69.52 C 171.09 68.64 171.20 66.89 171.26 66.01 C 172.52 65.52 174.07 65.42 174.94 64.24 C 173.78 63.85 172.62 63.50 171.44 63.19 L 171.26 61.85 C 172.92 61.73 174.58 61.42 176.25 61.44 L 176.30 61.94 C 176.50 64.18 176.57 66.42 176.60 68.67 C 177.10 68.67 178.10 68.66 178.60 68.66 C 178.54 67.87 178.44 66.28 178.38 65.49 C 179.19 65.38 180.81 65.16 181.62 65.05 C 180.67 64.47 179.72 63.90 178.77 63.33 C 178.54 62.88 178.08 62.00 177.85 61.56 L 178.51 61.51 C 179.86 61.56 181.21 61.42 182.53 61.17 L 183.58 60.98 C 183.84 63.77 182.02 68.24 185.54 69.53 C 185.74 68.69 186.14 67.02 186.33 66.19 C 187.33 65.58 188.34 64.99 189.31 64.33 C 188.57 64.04 187.09 63.45 186.35 63.16 L 186.26 61.94 C 187.39 61.78 189.64 61.47 190.77 61.31 C 190.70 63.76 190.64 66.21 190.57 68.66 C 190.96 68.68 191.75 68.74 192.14 68.76 C 192.60 67.90 193.11 67.06 193.65 66.24 C 193.31 67.20 192.95 68.15 192.58 69.09 C 192.51 70.51 192.45 71.92 192.40 73.33 C 194.13 73.43 195.87 73.47 197.58 73.85 C 195.27 73.77 192.97 73.66 190.67 73.57 C 190.64 77.91 190.91 82.25 191.41 86.56 C 190.51 86.76 188.69 87.16 187.79 87.36 C 187.38 90.07 187.50 92.82 187.46 95.55 C 185.06 95.54 185.49 93.33 185.30 91.67 C 183.12 92.67 181.72 94.61 180.35 96.48 L 180.54 96.12 C 181.87 94.07 182.44 91.67 182.54 89.26 C 183.76 88.91 184.96 88.53 186.16 88.11 C 185.14 86.19 182.55 87.13 180.82 86.63 C 180.57 86.97 180.08 87.65 179.83 87.99 L 179.09 88.98 C 178.80 88.61 178.22 87.85 177.93 87.47 C 176.15 87.27 174.35 87.38 172.56 87.37 C 172.53 90.11 172.51 92.85 172.48 95.59 L 174.48 95.50 C 174.53 93.14 174.54 90.78 174.49 88.43 C 175.32 88.48 176.99 88.59 177.82 88.64 L 176.23 89.95 C 176.75 90.46 177.80 91.48 178.32 91.99 C 177.57 91.84 176.05 91.54 175.29 91.39 C 175.35 92.65 175.47 93.92 175.52 95.18 C 173.63 96.17 171.57 96.76 169.48 97.16 C 169.84 98.23 170.20 99.31 170.54 100.39 C 172.04 100.27 173.39 100.63 174.59 101.49 C 172.61 101.26 170.62 101.06 168.65 100.84 C 168.54 103.14 169.31 105.90 167.54 107.74 L 167.21 108.19 C 166.61 107.77 165.40 106.92 164.79 106.50 C 165.34 105.90 165.90 105.31 166.46 104.73 C 165.06 104.22 163.72 103.59 162.45 102.82 C 164.08 102.40 165.75 102.04 167.39 101.62 C 165.84 101.50 164.29 101.40 162.74 101.32 C 162.28 98.81 161.86 96.24 160.51 94.03 C 161.31 93.33 162.11 92.62 162.92 91.92 C 162.21 91.12 161.51 90.33 160.81 89.53 C 161.74 89.16 163.61 88.40 164.54 88.02 C 163.05 87.52 161.56 86.98 160.08 86.43 C 158.88 84.66 157.59 82.92 156.69 80.96 C 156.39 79.29 158.02 78.60 159.11 77.80 C 158.20 77.12 157.30 76.44 156.40 75.75 C 158.10 75.50 159.80 75.22 161.50 74.93 C 159.75 73.11 157.17 73.61 154.94 73.40 C 154.34 74.92 153.73 76.44 153.11 77.96 C 152.79 76.68 152.51 75.38 152.29 74.09 C 148.81 72.89 145.63 70.07 141.80 70.45 C 140.46 69.54 139.08 68.69 137.54 68.17 C 137.96 67.77 138.82 66.97 139.25 66.57 C 137.78 65.85 136.32 65.14 134.84 64.44 C 134.95 64.45 135.16 64.48 135.26 64.49 C 136.39 64.72 137.55 64.83 138.71 64.89 L 138.92 64.90 C 139.35 66.58 140.17 68.10 141.05 69.59 C 142.32 69.53 143.59 69.53 144.86 69.59 C 145.46 69.37 146.68 68.92 147.29 68.69 C 147.57 68.56 148.14 68.30 148.43 68.17 C 149.44 66.41 151.16 65.43 152.88 64.50 C 151.74 64.01 150.57 63.56 149.43 63.08 L 149.31 62.05 C 150.30 61.82 152.27 61.36 153.25 61.12 C 151.43 60.89 149.61 60.69 147.79 60.54 C 147.67 60.93 147.44 61.72 147.32 62.12 C 147.27 61.64 147.17 60.67 147.12 60.19 M 154.46 61.29 C 154.54 63.72 154.54 66.15 154.48 68.58 C 155.00 68.59 156.03 68.60 156.55 68.61 C 156.50 67.87 156.39 66.39 156.34 65.65 C 157.52 65.27 158.71 64.88 159.89 64.50 C 158.59 64.11 157.29 63.72 155.99 63.33 C 157.01 61.97 158.49 61.29 160.41 61.32 C 158.43 61.25 156.45 61.33 154.46 61.29 M 169.51 73.70 C 169.77 76.80 168.63 80.28 170.31 83.10 C 170.53 81.54 170.69 79.98 170.77 78.42 C 171.41 78.42 172.70 78.41 173.34 78.41 C 173.75 78.15 174.56 77.62 174.96 77.35 C 174.01 77.39 172.12 77.48 171.17 77.52 L 171.19 75.28 C 171.95 75.20 173.46 75.02 174.22 74.94 C 174.63 74.97 175.47 75.05 175.88 75.08 C 177.26 77.23 176.35 79.91 176.56 82.29 C 177.05 82.30 178.03 82.32 178.52 82.33 C 178.50 80.98 178.47 79.64 178.44 78.30 C 179.03 78.34 180.19 78.42 180.77 78.46 C 180.80 78.18 180.84 77.62 180.87 77.35 L 179.10 77.48 L 179.16 75.18 C 179.76 75.23 180.95 75.33 181.54 75.39 C 181.54 74.95 181.54 74.09 181.55 73.65 C 177.53 73.43 173.52 73.71 169.51 73.70 M 183.73 73.78 C 183.70 76.60 183.71 79.42 183.71 82.24 C 184.18 82.29 185.11 82.38 185.58 82.43 C 185.58 81.16 185.59 79.89 185.59 78.62 C 186.86 78.38 188.15 78.18 189.39 77.80 C 188.56 77.68 186.91 77.45 186.08 77.34 L 186.18 75.16 C 186.84 75.22 188.16 75.33 188.81 75.39 C 188.80 74.93 188.78 74.03 188.77 73.58 C 187.08 73.65 185.41 73.71 183.73 73.78 M 162.29 81.95 C 162.64 81.92 163.35 81.87 163.70 81.84 C 163.64 80.97 163.54 79.23 163.48 78.36 C 164.28 78.36 165.87 78.37 166.66 78.37 C 166.68 78.12 166.72 77.61 166.74 77.36 C 165.93 77.40 164.31 77.48 163.50 77.52 L 163.57 75.43 C 164.99 75.32 166.45 75.28 167.81 74.79 C 166.39 73.26 164.27 73.79 162.43 73.63 C 162.36 76.40 162.35 79.18 162.29 81.95 M 165.45 87.12 C 165.49 89.99 165.48 92.85 165.44 95.72 C 165.96 95.71 167.00 95.68 167.52 95.67 C 167.53 94.96 167.56 93.53 167.58 92.81 C 168.71 92.47 169.86 92.14 171.00 91.79 C 169.61 91.17 168.22 90.55 166.83 89.93 C 168.31 89.41 169.79 88.87 171.26 88.31 C 170.11 86.02 167.46 86.99 165.45 87.12 Z" />
<path fill="#fdfdfd" opacity="1.00" d=" M 71.78 86.10 C 72.39 85.86 73.01 85.62 73.63 85.38 C 72.95 86.67 72.29 87.96 71.65 89.26 C 73.42 88.50 75.14 87.66 76.83 86.75 C 82.05 88.24 88.14 87.22 92.69 90.59 C 93.95 89.99 95.21 89.41 96.48 88.85 C 96.44 90.21 96.38 91.58 96.29 92.95 C 95.85 92.53 94.97 91.70 94.53 91.29 C 94.20 92.44 93.91 93.60 93.67 94.78 C 93.37 95.47 92.77 96.85 92.47 97.55 C 94.50 97.11 96.51 96.62 98.52 96.13 C 98.55 93.92 98.57 91.72 98.63 89.51 C 100.29 89.50 101.95 89.47 103.61 89.43 C 101.95 92.84 101.02 96.52 101.41 100.34 C 103.80 102.73 105.54 105.63 107.57 108.31 C 110.10 110.76 113.49 112.07 116.57 113.69 C 112.91 113.60 109.37 112.64 105.89 111.60 C 102.30 111.53 98.63 110.34 95.09 111.24 C 90.19 113.27 85.33 116.49 83.16 121.54 C 82.74 121.79 81.89 122.29 81.47 122.54 C 79.26 127.79 79.52 133.55 78.01 138.97 C 76.43 144.61 76.56 150.61 74.57 156.15 C 72.32 160.74 70.21 165.41 68.31 170.16 C 71.91 171.73 75.53 173.68 79.57 173.60 C 84.03 173.61 88.38 174.93 92.84 174.76 C 93.80 173.73 94.63 172.43 96.08 172.06 C 107.41 167.80 117.21 160.49 126.98 153.51 C 132.54 153.58 138.26 154.00 143.44 151.54 C 144.02 149.38 144.53 147.21 144.95 145.02 C 146.02 145.96 147.10 146.91 148.18 147.86 C 148.23 148.64 148.33 150.19 148.37 150.97 C 147.21 154.77 145.80 158.50 144.03 162.07 C 142.87 164.04 143.30 166.36 143.37 168.52 C 144.41 168.40 145.46 168.28 146.50 168.16 C 146.31 166.82 145.93 165.52 145.06 164.45 C 145.37 163.69 145.69 162.94 146.01 162.18 C 147.13 162.27 148.25 162.36 149.37 162.45 C 149.83 163.81 150.30 165.18 150.75 166.55 C 148.38 171.89 147.28 177.70 144.75 182.97 C 145.13 183.19 145.90 183.61 146.28 183.82 C 148.46 179.60 150.34 175.23 152.11 170.83 C 153.93 174.95 156.21 179.88 153.64 184.19 C 153.23 187.19 152.57 190.14 152.41 193.17 C 119.19 192.75 85.95 193.15 52.73 192.96 C 54.24 191.89 55.79 190.87 57.42 189.99 C 57.84 189.23 58.25 188.47 58.67 187.70 C 59.85 185.72 60.88 183.65 61.87 181.56 C 63.40 181.39 64.89 181.72 66.29 182.34 C 66.67 179.00 69.63 176.52 68.85 172.93 C 67.07 172.61 64.76 173.07 63.83 171.09 C 61.51 167.38 61.11 162.86 60.11 158.69 C 60.74 158.55 62.01 158.27 62.64 158.12 C 65.63 152.93 58.42 149.97 59.20 144.91 C 60.72 143.95 62.90 143.18 62.73 140.98 C 61.80 135.37 56.44 132.55 52.39 129.34 C 53.59 127.76 54.76 126.17 55.89 124.55 C 57.08 125.52 58.21 126.60 59.52 127.42 C 62.96 127.82 66.47 127.73 69.92 127.50 C 75.31 123.72 79.35 118.38 83.36 113.22 C 85.78 109.81 85.79 105.50 85.74 101.49 C 85.09 101.53 83.78 101.61 83.13 101.65 C 83.63 102.51 84.63 104.22 85.12 105.08 C 83.62 104.52 82.12 103.94 80.63 103.34 C 80.62 102.93 80.61 102.10 80.60 101.68 C 81.45 101.60 83.15 101.44 84.00 101.36 C 79.51 97.80 75.51 93.69 71.48 89.64 C 71.59 88.46 71.69 87.28 71.78 86.10 Z" />
<path fill="#fdfdfd" opacity="1.00" d=" M 56.50 89.96 C 59.14 88.88 61.82 87.86 64.50 86.86 C 62.12 89.05 59.67 91.19 57.60 93.69 C 57.33 92.76 56.77 90.89 56.50 89.96 Z" />
<path fill="#fdfdfd" opacity="1.00" d=" M 57.01 96.92 C 60.18 93.56 63.35 90.19 67.06 87.42 C 69.85 89.36 71.83 92.16 74.10 94.64 C 70.47 94.16 66.81 94.21 63.16 94.22 C 61.87 95.21 60.35 95.76 58.79 96.16 C 58.70 96.86 58.52 98.27 58.43 98.97 C 63.27 94.59 70.87 93.97 76.12 97.98 C 78.72 99.65 79.08 102.92 80.52 105.43 C 81.94 105.32 83.35 105.22 84.78 105.12 C 83.68 111.53 78.75 115.99 75.03 120.95 C 73.24 122.52 71.42 124.06 69.82 125.82 C 65.29 125.46 58.07 127.63 56.47 121.68 C 55.97 121.30 54.96 120.53 54.46 120.15 C 54.56 117.88 54.28 115.64 53.44 113.53 C 55.13 112.95 56.87 112.58 58.64 112.42 C 59.97 110.79 63.20 109.38 61.92 106.86 C 61.47 104.36 58.89 103.66 56.97 102.60 C 55.71 103.61 54.47 104.66 53.20 105.68 C 53.30 103.09 55.18 101.19 57.28 99.93 C 56.88 99.36 56.49 98.78 56.10 98.21 C 55.58 98.63 54.55 99.49 54.03 99.92 C 54.65 98.30 55.31 96.70 55.95 95.09 C 56.22 95.55 56.75 96.46 57.01 96.92 Z" />
<path fill="#fdfdfd" opacity="1.00" d=" M 105.72 89.51 C 110.95 88.93 116.15 88.18 121.32 87.23 C 121.22 89.01 121.15 90.79 121.09 92.57 C 121.80 92.61 123.20 92.69 123.90 92.74 C 126.33 94.78 129.81 94.87 131.99 92.43 C 134.03 96.76 138.86 99.84 138.87 104.98 C 139.46 108.87 135.25 110.61 132.89 112.81 C 125.95 112.71 118.37 113.88 112.28 109.74 C 107.97 107.29 106.06 102.52 102.66 99.12 C 102.19 95.60 104.29 92.54 105.72 89.51 Z" />
<path fill="#fdfdfd" opacity="1.00" d=" M 48.60 98.35 C 50.06 95.46 51.37 91.95 54.69 90.75 C 54.66 95.66 51.52 99.57 49.66 103.89 C 48.79 105.56 48.27 107.99 45.82 107.62 C 46.42 104.44 47.12 101.25 48.60 98.35 Z" />
<path fill="#fdfdfd" opacity="1.00" d=" M 174.59 101.49 C 175.88 101.00 177.20 100.24 178.61 100.84 C 178.02 100.98 176.83 101.28 176.23 101.42 C 176.33 104.52 176.10 107.67 176.97 110.68 C 177.38 109.02 177.73 107.34 178.01 105.65 C 178.85 105.52 180.53 105.26 181.37 105.13 C 180.35 104.75 179.34 104.39 178.31 104.05 C 178.32 103.25 178.33 102.46 178.35 101.66 C 179.13 101.60 180.71 101.47 181.50 101.40 C 182.05 101.36 183.16 101.28 183.71 101.23 C 183.02 104.11 183.28 107.13 184.66 109.77 C 186.44 109.56 188.20 109.18 189.71 108.15 C 189.68 106.20 189.80 104.25 189.69 102.30 C 189.43 102.17 188.93 101.89 188.67 101.75 C 188.43 103.73 188.40 105.73 188.32 107.72 C 187.12 107.69 185.91 107.65 184.71 107.61 C 184.62 105.56 184.59 103.50 184.30 101.47 C 187.29 103.04 190.38 100.47 193.44 100.53 C 194.67 100.89 195.90 101.27 197.12 101.68 C 196.66 103.95 196.45 106.26 196.08 108.55 C 193.35 107.30 193.61 104.34 193.65 101.84 C 193.06 101.81 191.87 101.77 191.28 101.75 C 191.83 104.55 191.23 109.22 195.12 109.75 C 197.04 110.73 197.76 107.83 198.85 106.78 C 198.99 105.38 198.88 103.97 198.79 102.57 L 199.22 102.43 C 199.23 104.36 199.40 106.28 199.39 108.21 C 199.11 108.72 198.55 109.75 198.27 110.27 C 195.87 110.06 193.50 109.64 191.16 109.11 C 190.25 110.79 189.11 112.38 188.77 114.30 C 190.51 114.33 192.27 114.40 194.03 114.48 C 194.54 116.50 195.77 118.42 195.72 120.54 C 194.54 121.62 193.37 122.79 191.94 123.53 C 189.84 123.62 187.76 123.26 185.67 123.15 C 185.57 123.64 185.38 124.64 185.28 125.14 C 184.50 125.06 182.94 124.90 182.16 124.82 C 182.18 125.70 182.21 127.45 182.23 128.32 C 182.17 128.64 182.04 129.29 181.98 129.61 C 181.78 130.86 181.65 132.12 181.52 133.38 C 182.09 134.14 182.66 134.90 183.24 135.67 C 185.02 135.65 186.80 135.64 188.58 135.61 C 188.30 133.43 189.48 130.51 187.97 128.80 C 186.79 130.39 187.67 132.74 187.31 134.60 C 186.09 134.64 184.88 134.68 183.67 134.71 C 183.62 132.13 183.56 129.55 183.37 126.98 C 183.96 127.37 185.13 128.16 185.72 128.55 C 187.51 126.25 190.69 128.15 193.12 127.58 C 192.94 129.27 193.63 130.23 195.19 130.48 C 194.65 128.26 195.45 127.19 197.59 127.24 C 197.72 130.51 197.62 133.79 197.69 137.06 C 194.13 136.57 193.51 140.54 195.12 142.95 C 195.77 145.56 196.77 148.44 194.25 150.44 C 193.12 150.42 191.98 150.40 190.85 150.39 C 190.40 151.82 189.96 153.26 189.53 154.70 C 190.80 154.53 192.06 154.51 193.33 154.67 C 194.92 155.18 197.46 153.39 198.28 155.50 C 199.03 159.30 198.15 163.30 195.68 166.31 C 194.44 168.81 195.64 171.78 195.68 174.46 C 196.69 174.58 197.72 174.69 198.74 174.81 C 198.65 174.38 198.47 173.53 198.38 173.10 C 199.12 173.30 200.60 173.71 201.34 173.91 C 201.31 174.32 201.27 175.16 201.25 175.58 C 199.46 175.52 197.67 175.47 195.88 175.45 C 195.99 176.40 196.20 178.31 196.31 179.26 C 194.63 178.14 192.92 176.34 191.00 178.21 C 185.96 178.85 181.05 177.42 176.05 177.46 C 175.82 177.94 175.37 178.90 175.15 179.38 C 174.09 178.39 171.24 177.13 171.42 179.71 C 170.62 177.32 168.56 178.41 166.90 179.14 C 166.07 176.72 163.95 178.37 162.22 178.46 C 161.02 177.97 159.83 177.46 158.65 176.93 C 157.03 180.69 156.99 185.01 154.71 188.51 C 154.59 190.00 154.52 191.50 154.48 193.01 L 153.44 192.64 C 153.63 191.46 153.80 190.27 153.97 189.09 C 157.54 182.85 157.47 175.50 160.02 168.94 C 160.49 172.03 161.34 175.05 162.51 177.95 C 164.15 177.46 165.85 177.09 167.41 176.35 C 168.31 173.97 168.07 171.36 168.19 168.87 C 167.58 168.08 166.97 167.29 166.38 166.49 C 167.98 165.01 169.75 163.70 171.19 162.06 C 172.05 159.72 171.52 157.12 171.54 154.69 C 168.67 155.96 169.79 159.42 169.42 161.92 C 168.49 161.63 167.56 161.34 166.64 161.05 C 167.06 157.83 166.76 154.57 165.96 151.43 C 169.30 151.58 172.33 150.10 175.49 149.29 C 175.91 148.06 176.33 146.84 176.75 145.62 C 177.14 145.47 177.91 145.17 178.30 145.02 C 178.64 146.54 178.96 148.09 179.73 149.47 C 181.32 149.67 182.93 149.63 184.53 149.67 C 185.14 147.00 185.42 144.28 185.48 141.54 L 183.68 141.52 C 183.69 143.90 183.66 146.28 183.57 148.65 C 182.46 148.62 181.35 148.58 180.24 148.54 C 180.01 146.61 180.75 145.12 182.66 144.39 C 181.86 143.82 181.08 143.24 180.25 142.73 C 181.69 137.58 180.41 132.32 179.86 127.15 C 179.13 128.21 178.40 129.26 177.69 130.33 C 176.13 129.25 174.57 128.17 173.01 127.10 C 172.37 125.77 171.73 124.45 171.12 123.11 L 171.12 122.84 C 173.05 123.53 175.25 123.52 176.45 121.60 C 176.94 119.23 176.76 116.78 176.80 114.37 C 176.28 114.39 175.24 114.41 174.72 114.43 C 174.58 117.22 175.53 120.72 172.24 122.12 C 171.89 119.49 172.11 116.76 171.33 114.21 C 170.56 112.38 169.14 110.92 168.01 109.32 C 168.66 109.37 169.96 109.46 170.61 109.51 C 170.63 108.43 170.66 107.36 170.69 106.29 C 171.35 105.55 174.27 106.08 173.64 104.52 C 172.85 104.17 171.26 103.47 170.46 103.11 C 171.84 102.58 173.22 102.05 174.59 101.49 M 178.57 114.38 C 178.57 117.19 178.38 120.09 179.62 122.70 C 181.13 122.68 182.67 122.79 184.17 122.47 C 186.15 120.57 185.05 117.60 185.38 115.17 L 183.67 115.19 C 183.67 117.37 183.63 119.55 183.50 121.72 C 182.75 121.63 181.24 121.45 180.49 121.37 C 180.21 119.16 180.26 116.94 180.26 114.73 C 179.84 114.64 179.00 114.47 178.57 114.38 M 187.58 115.42 C 187.61 117.88 187.56 120.40 188.53 122.72 C 190.20 122.47 192.62 123.37 193.54 121.46 C 193.82 119.47 193.72 117.46 193.86 115.47 C 193.52 115.36 192.84 115.14 192.50 115.03 C 192.50 117.17 192.48 119.32 192.45 121.46 C 191.43 121.52 190.41 121.57 189.39 121.63 C 189.36 119.44 189.35 117.24 189.35 115.05 C 188.91 115.14 188.02 115.32 187.58 115.42 M 190.66 127.81 C 190.65 130.35 190.67 132.90 190.64 135.44 C 192.49 136.10 194.43 136.43 196.39 136.62 C 197.90 133.88 197.48 130.69 197.37 127.70 C 193.35 128.34 197.28 134.19 193.39 135.10 C 192.81 132.49 194.71 127.84 190.66 127.81 M 187.66 141.56 C 187.68 143.78 187.69 145.99 187.72 148.21 C 188.03 148.57 188.64 149.30 188.95 149.67 C 190.44 149.61 191.95 149.55 193.45 149.47 C 193.30 146.70 194.88 143.08 192.66 140.89 C 192.48 143.48 192.51 146.08 192.44 148.67 C 191.71 148.64 190.26 148.57 189.53 148.53 C 189.27 146.20 189.35 143.85 189.38 141.52 C 188.95 141.53 188.09 141.55 187.66 141.56 M 173.44 161.32 C 174.58 163.45 176.97 164.53 179.16 163.19 C 180.23 160.77 179.53 158.00 179.78 155.45 L 178.56 155.39 C 178.57 157.84 178.55 160.29 178.40 162.75 C 176.79 162.54 175.46 161.82 174.61 160.43 C 174.71 158.55 174.71 156.67 174.57 154.79 C 172.62 156.37 173.80 159.18 173.44 161.32 M 181.73 155.61 C 181.73 157.27 181.71 158.93 181.69 160.59 C 182.44 161.61 183.18 162.63 183.92 163.67 C 185.47 163.49 188.23 164.17 188.48 161.96 C 188.40 159.72 189.75 156.43 187.54 154.90 C 187.09 157.71 188.67 161.77 184.93 162.73 C 182.73 160.88 183.84 157.82 183.61 155.33 C 183.14 155.40 182.20 155.54 181.73 155.61 M 191.25 162.49 L 192.02 162.64 C 193.69 164.58 195.87 163.26 197.51 162.09 C 197.49 159.87 197.50 157.66 197.56 155.45 L 195.57 155.58 C 195.13 157.97 196.90 162.04 193.59 162.90 C 191.95 160.81 193.67 157.60 191.97 155.86 C 190.14 157.29 191.73 160.40 191.25 162.49 M 174.19 175.32 C 173.53 175.39 172.22 175.55 171.56 175.62 C 171.46 173.06 171.46 170.48 171.10 167.94 C 169.55 170.54 170.44 173.66 170.49 176.51 C 172.17 176.59 173.86 176.65 175.55 176.72 C 177.11 174.06 176.47 170.90 176.24 168.00 C 174.15 169.98 176.55 173.57 174.19 175.32 M 187.70 168.73 C 187.67 171.37 187.50 174.07 188.22 176.65 C 189.98 176.63 191.74 176.60 193.50 176.53 C 193.51 173.70 194.53 170.46 192.78 167.96 C 192.48 170.42 192.48 172.89 192.43 175.36 C 191.66 175.40 190.12 175.48 189.34 175.51 C 189.35 173.23 189.38 170.96 189.39 168.68 C 188.97 168.69 188.12 168.71 187.70 168.73 M 178.50 169.00 C 178.53 171.58 178.48 174.24 179.54 176.66 C 181.11 176.63 182.67 176.61 184.24 176.59 C 184.53 176.00 185.11 174.83 185.39 174.25 C 184.79 172.66 186.76 168.39 183.74 169.17 C 183.60 171.31 183.63 173.46 183.53 175.61 C 182.78 175.54 181.27 175.39 180.52 175.32 C 179.67 173.26 181.74 169.10 178.50 169.00 Z" />
<path fill="#fdfdfd" opacity="1.00" d=" M 48.50 110.14 C 49.87 108.13 50.36 105.02 52.76 104.04 C 51.23 106.83 51.15 109.97 51.26 113.06 C 50.13 112.29 47.37 112.13 48.50 110.14 Z" />
<path fill="#fdfdfd" opacity="1.00" d=" M 11.46 108.96 C 11.70 108.68 12.20 108.10 12.45 107.81 C 13.68 110.99 13.74 114.39 13.36 117.74 C 14.29 117.65 16.16 117.47 17.10 117.38 C 15.30 117.62 12.56 118.60 11.49 116.56 C 11.36 114.03 11.68 111.50 11.46 108.96 Z" />
<path fill="#fdfdfd" opacity="1.00" d=" M 142.14 107.75 C 143.57 108.92 145.04 110.04 146.54 111.13 C 146.24 113.48 145.89 115.82 145.39 118.13 C 144.34 114.65 144.18 110.87 142.14 107.75 Z" />
<path fill="#fdfdfd" opacity="1.00" d=" M 165.12 116.89 C 161.90 114.63 162.09 110.57 163.31 107.25 C 165.57 109.75 168.33 112.03 169.61 115.23 C 169.99 117.60 169.43 119.99 169.19 122.35 C 168.71 121.58 168.24 120.81 167.77 120.04 C 167.90 117.91 167.81 115.77 167.35 113.68 C 166.79 114.48 165.68 116.08 165.12 116.89 Z" />
<path fill="#fdfdfd" opacity="1.00" d=" M 128.97 114.64 C 133.61 115.19 138.19 112.06 140.04 107.88 C 143.18 111.76 141.84 117.33 145.42 120.98 C 144.54 125.32 144.03 129.73 143.49 134.13 C 140.03 129.68 138.91 123.61 134.04 120.32 C 131.88 118.35 128.04 117.35 125.97 119.99 C 122.14 118.77 118.52 116.96 115.10 114.89 C 115.80 114.44 116.52 113.99 117.23 113.56 C 120.98 115.06 125.04 114.55 128.97 114.64 Z" />
<path fill="#fdfdfd" opacity="1.00" d=" M 91.05 114.77 C 94.27 113.11 97.75 112.18 101.40 112.68 C 101.51 116.15 101.50 119.62 101.48 123.08 C 100.00 122.48 98.54 121.87 97.07 121.27 C 96.28 120.66 95.48 120.07 94.68 119.47 C 94.01 117.52 92.67 116.00 91.05 114.77 Z" />
<path fill="#fdfdfd" opacity="1.00" d=" M 103.32 112.99 C 106.25 113.43 109.14 114.11 112.04 114.75 C 113.82 116.00 115.72 117.05 117.52 118.27 C 119.66 119.23 121.68 120.51 124.05 120.84 C 125.07 121.49 126.11 122.13 127.13 122.79 C 127.78 121.79 128.41 120.77 129.01 119.73 C 137.27 121.39 137.92 131.31 143.55 136.12 C 143.64 139.38 143.60 142.64 143.74 145.89 L 142.31 145.78 C 140.95 143.67 139.06 141.95 137.08 140.43 C 134.89 140.25 132.69 140.41 130.50 140.53 C 130.43 141.98 130.38 143.43 130.35 144.89 C 129.24 144.25 128.14 143.61 127.04 142.97 C 126.33 139.14 122.53 137.11 119.95 134.57 C 116.92 134.00 113.88 136.22 111.58 138.08 C 111.14 139.16 110.62 140.20 110.04 141.21 C 108.56 141.66 107.16 141.14 105.88 140.45 C 104.56 140.39 103.24 140.35 101.92 140.30 C 97.51 143.34 96.48 148.75 94.22 153.24 C 98.03 153.21 97.62 148.66 99.07 146.21 C 100.46 144.05 102.31 141.62 105.05 141.28 C 105.38 141.78 106.04 142.78 106.37 143.28 C 107.86 143.15 109.40 143.25 110.86 142.86 C 111.71 141.69 112.26 140.33 112.91 139.05 C 114.92 137.87 116.92 136.66 118.98 135.55 C 121.06 138.30 124.21 140.11 125.80 143.23 C 125.05 143.39 123.53 143.71 122.77 143.87 C 121.66 146.61 120.44 149.31 119.19 151.98 C 118.46 150.90 117.73 149.81 117.01 148.72 C 115.64 148.71 114.27 148.70 112.90 148.70 C 111.43 149.56 109.95 150.41 108.46 151.24 C 107.81 154.74 106.23 158.07 106.45 161.72 C 104.90 160.17 103.60 158.40 102.20 156.73 C 95.75 155.67 90.09 161.79 89.95 167.95 C 86.29 168.11 85.55 162.70 81.86 163.68 C 78.80 165.30 76.32 167.72 73.72 169.86 C 72.21 170.72 71.20 169.22 70.09 168.44 C 71.37 166.69 72.63 164.93 73.91 163.18 C 74.26 159.58 76.93 156.61 76.73 152.88 C 77.06 152.44 77.73 151.57 78.06 151.13 C 78.79 145.48 79.75 139.87 80.59 134.23 C 82.66 134.66 85.05 135.10 86.20 132.83 C 86.72 132.66 87.77 132.33 88.30 132.16 C 88.33 131.37 88.41 129.80 88.44 129.02 C 90.40 130.68 92.86 130.74 95.30 130.57 C 96.72 128.27 96.42 125.56 96.67 122.99 C 98.25 122.10 99.05 123.92 100.12 124.62 C 101.17 124.58 102.21 124.54 103.26 124.49 C 103.23 122.49 103.21 120.49 103.19 118.49 C 105.15 119.21 107.07 120.07 109.09 120.62 C 111.19 119.96 112.21 117.68 110.96 115.75 C 110.73 116.46 110.26 117.88 110.03 118.59 C 107.50 118.93 105.40 117.29 103.11 116.53 C 103.18 115.35 103.25 114.17 103.32 112.99 M 128.57 123.21 C 129.46 124.47 132.91 124.06 131.53 122.08 C 130.69 120.91 128.28 121.71 128.57 123.21 Z" />
<path fill="#fdfdfd" opacity="1.00" d=" M 45.52 118.41 C 45.63 116.66 46.31 115.02 46.80 113.35 C 48.70 114.06 50.63 114.72 52.70 114.54 C 52.70 115.39 52.70 117.09 52.69 117.94 C 50.56 118.99 47.43 120.74 45.52 118.41 Z" />
<path fill="#fdfdfd" opacity="1.00" d=" M 89.49 115.93 C 91.86 116.91 93.14 118.80 92.90 121.41 C 93.38 121.64 94.34 122.11 94.81 122.34 C 94.74 124.35 94.95 126.42 94.37 128.37 C 92.49 129.58 90.42 128.13 88.59 127.59 C 88.43 125.80 87.24 124.63 85.72 123.84 C 85.69 122.53 85.68 121.21 85.67 119.90 C 87.14 118.77 88.35 117.37 89.49 115.93 Z" />
<path fill="#fdfdfd" opacity="1.00" d=" M 47.70 121.31 C 49.52 120.99 51.33 120.60 53.15 120.22 C 53.41 121.51 53.70 122.79 54.00 124.07 C 53.09 125.35 52.16 126.62 51.21 127.87 C 50.74 127.12 50.25 126.38 49.81 125.62 C 49.10 124.18 48.41 122.74 47.70 121.31 Z" />
<path fill="#fdfdfd" opacity="1.00" d=" M 81.84 126.01 C 82.50 125.03 83.16 124.05 83.83 123.07 C 84.94 124.66 86.13 126.19 87.32 127.72 C 85.95 126.86 84.47 126.48 82.87 126.57 C 83.93 127.81 85.41 128.51 86.74 129.40 C 87.25 131.35 84.47 131.88 83.55 133.20 C 82.79 133.38 81.27 133.76 80.51 133.95 C 80.56 132.94 80.65 130.91 80.69 129.89 C 81.23 128.65 81.58 127.34 81.84 126.01 Z" />
<path fill="#fdfdfd" opacity="1.00" d=" M 53.65 132.68 C 56.80 134.66 59.44 137.29 61.14 140.62 C 60.86 140.57 60.31 140.46 60.03 140.41 C 58.29 138.22 56.24 136.29 53.71 135.05 C 53.69 134.46 53.66 133.28 53.65 132.68 Z" />
<path fill="#fdfdfd" opacity="1.00" d=" M 145.62 134.71 C 146.49 135.30 147.64 135.78 147.78 136.98 C 148.29 139.85 148.67 142.75 148.79 145.67 C 144.16 143.75 145.99 138.57 145.62 134.71 Z" />
<path fill="#fdfdfd" opacity="1.00" d=" M 132.45 141.57 C 133.39 141.56 135.25 141.54 136.19 141.53 C 138.12 143.62 140.04 146.75 143.37 146.26 C 143.06 147.20 142.42 149.07 142.10 150.01 C 138.76 151.75 135.04 152.09 131.33 151.79 C 131.46 149.67 131.01 147.32 132.37 145.49 C 132.40 144.18 132.42 142.87 132.45 141.57 Z" />
<path fill="#fdfdfd" opacity="1.00" d=" M 123.93 145.46 C 124.98 145.08 126.04 144.74 127.12 144.43 C 128.02 145.22 128.89 146.04 129.76 146.87 C 129.65 148.54 129.87 150.27 129.38 151.89 C 123.94 152.08 120.64 156.97 116.06 159.21 C 113.21 160.50 111.11 163.15 108.10 164.01 C 107.83 163.46 107.30 162.36 107.03 161.81 L 108.38 161.54 C 107.97 158.13 109.52 154.97 110.96 152.00 C 112.09 150.04 114.42 150.49 116.32 150.35 C 116.86 151.50 117.38 152.66 117.89 153.83 C 118.43 153.79 119.49 153.71 120.02 153.67 C 121.55 151.06 122.80 148.27 123.93 145.46 Z" />
<path fill="#fdfdfd" opacity="1.00" d=" M 55.88 150.94 C 56.36 150.53 57.32 149.73 57.80 149.33 C 59.31 151.39 60.83 153.45 62.12 155.66 C 61.22 155.37 59.43 154.79 58.53 154.50 C 58.51 155.29 58.46 156.85 58.44 157.64 C 57.44 156.66 56.45 155.69 55.46 154.71 C 55.60 153.45 55.74 152.19 55.88 150.94 Z" />
<path fill="#fdfdfd" opacity="1.00" d=" M 90.04 170.96 C 92.13 165.85 94.06 157.71 101.16 158.50 C 103.11 160.80 105.11 163.06 107.34 165.11 C 104.09 167.05 100.52 168.35 97.13 170.01 C 94.73 170.31 93.00 171.94 91.19 173.36 C 86.15 172.27 80.96 171.95 75.80 171.69 L 76.16 170.88 C 76.54 168.21 80.21 167.30 82.02 165.39 C 85.16 165.92 87.34 169.21 90.04 170.96 Z" />
<path fill="#fdfdfd" opacity="1.00" d=" M 164.81 168.32 C 165.36 168.96 165.90 169.62 166.43 170.29 C 165.67 171.96 166.53 175.03 164.08 175.43 C 161.56 173.56 163.20 170.18 164.81 168.32 Z" />
<path fill="#fdfdfd" opacity="1.00" d=" M 62.59 173.07 C 64.15 174.01 65.80 174.78 67.44 175.58 C 66.24 177.44 64.71 179.12 62.54 179.82 C 62.58 177.57 62.68 175.32 62.59 173.07 Z" />
</g>
<g id="#080605fe">
<path fill="#080605" opacity="1.00" d=" M 114.75 28.50 L 114.67 27.86 C 120.11 27.79 125.66 27.32 131.06 28.21 C 134.49 28.56 136.52 31.52 137.81 34.39 C 135.39 34.29 132.97 34.11 130.55 34.23 C 126.92 33.98 123.83 36.13 120.85 37.88 C 124.17 39.30 128.18 40.38 130.12 43.73 C 131.42 46.59 132.57 50.60 129.99 53.08 C 129.59 50.05 129.97 46.57 128.04 43.96 C 125.72 41.15 121.93 40.45 118.66 39.36 C 119.23 37.82 119.85 36.26 121.11 35.15 C 125.29 33.01 129.93 32.40 134.55 32.09 C 128.84 27.69 121.26 30.53 114.90 29.00 L 114.75 28.50 Z" />
<path fill="#080605" opacity="1.00" d=" M 98.87 31.98 C 103.33 30.58 107.94 28.79 112.66 29.09 C 112.77 29.33 112.97 29.80 113.07 30.04 C 109.48 31.45 105.54 31.58 101.94 32.98 C 97.33 34.69 92.69 36.39 88.31 38.66 C 89.30 38.69 91.27 38.75 92.25 38.78 C 88.67 39.79 85.00 40.46 81.38 41.29 C 82.16 40.22 82.81 38.91 84.13 38.42 C 88.92 36.00 93.82 33.81 98.87 31.98 Z" />
<path fill="#080605" opacity="1.00" d=" M 64.77 35.83 C 65.10 35.76 65.76 35.62 66.08 35.55 C 67.39 40.12 72.81 37.95 76.01 40.07 C 76.38 41.18 76.73 42.31 77.08 43.43 C 78.63 42.75 80.17 42.07 81.73 41.40 C 79.59 44.09 77.11 46.49 74.23 48.38 C 74.61 46.29 75.34 44.23 75.26 42.08 C 72.49 40.88 69.48 40.48 66.53 39.96 C 65.93 45.81 62.77 50.96 62.10 56.80 C 59.22 55.54 56.95 53.25 54.11 51.96 C 49.07 50.85 43.88 50.61 38.80 49.76 C 36.29 50.08 34.15 51.37 32.56 53.33 C 36.13 52.95 39.75 52.05 43.33 52.92 L 43.71 54.01 C 41.23 56.31 37.34 56.60 35.18 59.20 C 34.42 64.08 35.56 69.39 32.92 73.88 C 29.21 80.32 23.93 85.81 21.06 92.76 C 22.80 91.87 24.55 90.99 26.43 90.43 C 25.37 98.45 16.77 101.77 12.45 107.81 C 12.20 108.10 11.70 108.68 11.46 108.96 C 11.68 111.50 11.36 114.03 11.49 116.56 C 12.56 118.60 15.30 117.62 17.10 117.38 C 18.92 117.02 20.72 116.57 22.53 116.17 C 24.41 120.00 22.38 124.07 22.18 128.02 C 21.82 131.56 23.18 134.94 24.15 138.28 C 25.12 137.52 26.08 136.75 27.08 136.05 C 28.05 137.47 28.57 139.12 29.25 140.68 C 31.77 146.87 37.21 151.48 39.01 158.02 C 40.31 161.52 40.26 165.30 39.57 168.93 C 40.29 168.74 41.72 168.36 42.44 168.17 C 44.50 175.85 45.25 184.85 52.02 190.10 C 52.93 189.12 53.83 188.14 54.73 187.16 C 54.64 184.80 53.66 182.11 54.85 179.94 C 57.32 179.24 59.99 180.02 62.54 179.82 C 64.71 179.12 66.24 177.44 67.44 175.58 C 65.80 174.78 64.15 174.01 62.59 173.07 C 60.00 168.34 58.58 163.03 58.44 157.64 C 58.46 156.85 58.51 155.29 58.53 154.50 C 59.43 154.79 61.22 155.37 62.12 155.66 C 60.83 153.45 59.31 151.39 57.80 149.33 C 56.51 146.26 55.93 141.58 60.03 140.41 C 60.31 140.46 60.86 140.57 61.14 140.62 C 59.44 137.29 56.80 134.66 53.65 132.68 C 52.80 132.04 51.96 131.40 51.11 130.75 C 47.63 132.88 43.52 132.76 39.60 132.50 C 39.91 132.00 40.51 131.01 40.82 130.51 C 43.93 130.59 47.14 131.03 49.96 129.35 C 46.29 125.32 41.90 121.46 40.45 116.00 C 40.10 112.26 43.50 109.95 45.82 107.62 C 48.27 107.99 48.79 105.56 49.66 103.89 C 51.52 99.57 54.66 95.66 54.69 90.75 C 55.14 90.56 56.05 90.16 56.50 89.96 C 56.77 90.89 57.33 92.76 57.60 93.69 C 59.67 91.19 62.12 89.05 64.50 86.86 C 64.90 86.67 65.69 86.28 66.09 86.09 C 67.92 85.63 69.73 85.10 71.49 84.42 C 67.93 80.38 63.69 77.01 59.92 73.17 C 58.83 72.53 57.11 72.49 56.75 71.02 C 57.63 69.92 59.50 68.86 60.45 70.50 C 64.08 74.62 67.87 78.73 72.75 81.40 C 73.01 81.91 73.52 82.94 73.78 83.46 C 79.30 86.16 85.52 86.30 91.46 87.36 C 99.99 87.95 108.62 87.78 117.02 86.02 C 127.05 84.62 136.07 79.64 144.51 74.32 C 144.36 74.97 144.05 76.28 143.89 76.93 C 138.96 80.32 133.38 82.65 128.01 85.25 C 129.45 86.26 130.89 87.26 132.32 88.28 C 133.06 88.92 133.08 91.24 134.42 90.65 C 135.80 89.16 136.95 87.48 138.26 85.94 C 138.49 89.29 134.95 91.95 135.78 95.13 C 140.73 95.49 140.72 89.99 143.20 87.18 C 144.22 91.70 141.18 95.26 138.03 97.98 C 138.83 99.10 139.62 100.21 140.43 101.32 C 144.59 98.32 147.06 93.50 146.83 88.33 C 146.39 87.98 145.49 87.28 145.05 86.93 C 145.40 85.75 145.77 84.57 146.15 83.40 C 149.24 86.36 148.82 91.16 147.70 94.92 C 146.64 98.49 143.54 100.72 141.10 103.31 C 140.59 104.82 141.68 106.34 142.14 107.75 C 144.18 110.87 144.34 114.65 145.39 118.13 C 145.64 118.23 146.15 118.42 146.40 118.52 C 147.05 115.93 147.50 113.29 147.88 110.65 C 148.32 110.59 149.19 110.46 149.63 110.40 C 149.45 113.79 148.72 117.11 147.79 120.36 C 149.08 120.33 150.36 120.30 151.65 120.27 C 151.58 120.86 151.43 122.05 151.35 122.65 C 150.11 122.41 148.86 122.17 147.61 121.94 C 146.87 125.11 146.17 128.29 145.35 131.45 C 147.40 133.40 150.12 135.09 150.80 138.03 C 152.59 145.23 150.59 152.86 147.21 159.29 C 149.16 160.03 151.66 160.63 152.08 163.06 C 153.36 167.58 154.31 172.20 156.21 176.53 C 156.88 173.46 157.30 170.30 158.54 167.40 C 160.39 164.05 164.63 162.19 165.14 158.09 C 165.45 153.66 162.70 149.45 163.94 145.01 C 166.46 145.35 166.49 148.65 167.95 150.29 C 171.23 148.53 173.86 145.86 176.54 143.34 C 174.80 140.44 173.32 137.41 172.02 134.30 C 170.51 134.41 168.94 135.06 167.45 134.57 C 165.28 133.16 163.31 131.48 161.10 130.14 C 161.42 129.23 161.74 128.32 162.07 127.41 C 162.84 127.68 163.61 127.95 164.38 128.23 C 165.95 127.92 167.51 127.59 169.08 127.26 C 169.02 125.62 168.99 123.98 169.19 122.35 C 169.43 119.99 169.99 117.60 169.61 115.23 C 168.33 112.03 165.57 109.75 163.31 107.25 C 160.71 103.45 160.64 98.62 158.50 94.60 C 155.68 89.28 155.42 81.71 148.97 79.25 C 149.72 78.63 150.46 78.01 151.22 77.39 C 146.86 72.32 139.53 72.56 134.43 68.56 C 134.15 67.52 133.87 66.47 133.58 65.43 C 130.04 62.44 127.09 58.12 128.84 53.28 C 129.37 53.93 129.88 54.60 130.39 55.27 C 129.59 59.23 132.72 62.03 135.26 64.49 C 135.16 64.48 134.95 64.45 134.84 64.44 C 136.32 65.14 137.78 65.85 139.25 66.57 C 138.82 66.97 137.96 67.77 137.54 68.17 C 139.08 68.69 140.46 69.54 141.80 70.45 C 145.63 70.07 148.81 72.89 152.29 74.09 C 152.51 75.38 152.79 76.68 153.11 77.96 C 156.32 82.98 157.77 88.79 160.51 94.03 C 161.86 96.24 162.28 98.81 162.74 101.32 C 164.29 101.40 165.84 101.50 167.39 101.62 C 165.75 102.04 164.08 102.40 162.45 102.82 C 163.72 103.59 165.06 104.22 166.46 104.73 C 165.90 105.31 165.34 105.90 164.79 106.50 C 165.40 106.92 166.61 107.77 167.21 108.19 C 167.41 108.48 167.81 109.04 168.01 109.32 C 169.14 110.92 170.56 112.38 171.33 114.21 C 171.30 116.78 171.18 119.35 171.12 121.92 L 171.12 122.84 L 171.12 123.11 C 170.42 130.10 174.95 136.09 178.01 141.99 C 178.57 142.17 179.69 142.54 180.25 142.73 C 181.08 143.24 181.86 143.82 182.66 144.39 C 180.75 145.12 180.01 146.61 180.24 148.54 C 181.35 148.58 182.46 148.62 183.57 148.65 C 183.66 146.28 183.69 143.90 183.68 141.52 L 185.48 141.54 C 185.42 144.28 185.14 147.00 184.53 149.67 C 182.93 149.63 181.32 149.67 179.73 149.47 C 178.96 148.09 178.64 146.54 178.30 145.02 C 177.91 145.17 177.14 145.47 176.75 145.62 C 176.33 146.84 175.91 148.06 175.49 149.29 C 172.33 150.10 169.30 151.58 165.96 151.43 C 166.76 154.57 167.06 157.83 166.64 161.05 C 164.69 163.89 161.54 165.81 160.02 168.94 C 157.47 175.50 157.54 182.85 153.97 189.09 C 153.80 190.27 153.63 191.46 153.44 192.64 C 153.18 192.77 152.67 193.04 152.41 193.17 C 152.57 190.14 153.23 187.19 153.64 184.19 C 156.21 179.88 153.93 174.95 152.11 170.83 C 150.34 175.23 148.46 179.60 146.28 183.82 C 145.90 183.61 145.13 183.19 144.75 182.97 C 147.28 177.70 148.38 171.89 150.75 166.55 C 150.30 165.18 149.83 163.81 149.37 162.45 C 148.25 162.36 147.13 162.27 146.01 162.18 C 145.69 162.94 145.37 163.69 145.06 164.45 C 145.93 165.52 146.31 166.82 146.50 168.16 C 145.46 168.28 144.41 168.40 143.37 168.52 C 143.30 166.36 142.87 164.04 144.03 162.07 C 145.80 158.50 147.21 154.77 148.37 150.97 C 148.33 150.19 148.23 148.64 148.18 147.86 C 147.10 146.91 146.02 145.96 144.95 145.02 C 144.53 147.21 144.02 149.38 143.44 151.54 C 138.26 154.00 132.54 153.58 126.98 153.51 C 117.21 160.49 107.41 167.80 96.08 172.06 C 94.63 172.43 93.80 173.73 92.84 174.76 C 88.38 174.93 84.03 173.61 79.57 173.60 C 75.53 173.68 71.91 171.73 68.31 170.16 C 70.21 165.41 72.32 160.74 74.57 156.15 C 76.56 150.61 76.43 144.61 78.01 138.97 C 79.52 133.55 79.26 127.79 81.47 122.54 C 81.89 122.29 82.74 121.79 83.16 121.54 C 85.33 116.49 90.19 113.27 95.09 111.24 C 98.63 110.34 102.30 111.53 105.89 111.60 C 109.37 112.64 112.91 113.60 116.57 113.69 C 113.49 112.07 110.10 110.76 107.57 108.31 C 105.54 105.63 103.80 102.73 101.41 100.34 C 101.02 96.52 101.95 92.84 103.61 89.43 C 101.95 89.47 100.29 89.50 98.63 89.51 C 98.57 91.72 98.55 93.92 98.52 96.13 C 96.51 96.62 94.50 97.11 92.47 97.55 C 92.77 96.85 93.37 95.47 93.67 94.78 C 93.91 93.60 94.20 92.44 94.53 91.29 C 94.97 91.70 95.85 92.53 96.29 92.95 C 96.38 91.58 96.44 90.21 96.48 88.85 C 95.21 89.41 93.95 89.99 92.69 90.59 C 88.14 87.22 82.05 88.24 76.83 86.75 C 75.14 87.66 73.42 88.50 71.65 89.26 C 72.29 87.96 72.95 86.67 73.63 85.38 C 73.01 85.62 72.39 85.86 71.78 86.10 C 71.69 87.28 71.59 88.46 71.48 89.64 C 75.51 93.69 79.51 97.80 84.00 101.36 C 83.15 101.44 81.45 101.60 80.60 101.68 C 80.61 102.10 80.62 102.93 80.63 103.34 C 82.12 103.94 83.62 104.52 85.12 105.08 C 84.63 104.22 83.63 102.51 83.13 101.65 C 83.78 101.61 85.09 101.53 85.74 101.49 C 85.79 105.50 85.78 109.81 83.36 113.22 C 79.35 118.38 75.31 123.72 69.92 127.50 C 66.47 127.73 62.96 127.82 59.52 127.42 C 58.21 126.60 57.08 125.52 55.89 124.55 C 54.76 126.17 53.59 127.76 52.39 129.34 C 56.44 132.55 61.80 135.37 62.73 140.98 C 62.90 143.18 60.72 143.95 59.20 144.91 C 58.42 149.97 65.63 152.93 62.64 158.12 C 62.01 158.27 60.74 158.55 60.11 158.69 C 61.11 162.86 61.51 167.38 63.83 171.09 C 64.76 173.07 67.07 172.61 68.85 172.93 C 69.63 176.52 66.67 179.00 66.29 182.34 C 64.89 181.72 63.40 181.39 61.87 181.56 C 59.72 181.63 57.58 181.63 55.43 181.64 C 56.11 183.72 56.83 185.80 57.65 187.84 C 55.55 189.46 53.15 192.86 50.25 190.75 C 44.07 186.34 42.86 178.05 41.47 171.11 C 39.77 172.45 38.06 173.76 36.29 175.00 C 37.11 170.24 39.31 165.38 37.79 160.52 C 36.07 152.81 29.90 147.32 26.76 140.25 C 25.82 140.53 24.88 140.81 23.93 141.10 C 22.32 137.94 20.62 134.67 20.35 131.06 C 20.07 126.71 21.32 122.46 21.75 118.15 C 19.13 118.76 16.52 119.40 13.90 119.97 C 13.59 122.95 12.91 125.88 12.61 128.86 L 11.81 128.84 C 12.31 125.94 13.04 123.08 13.17 120.13 C 11.63 119.71 9.66 119.00 9.59 117.10 C 9.40 113.95 9.60 110.80 9.58 107.66 C 10.43 106.81 11.28 105.95 12.14 105.12 C 14.73 102.61 17.51 100.31 20.11 97.81 C 18.79 94.92 19.81 91.81 20.39 88.89 C 20.72 88.07 21.29 87.36 21.78 86.63 C 24.92 82.14 28.50 77.94 31.18 73.15 C 33.63 68.77 33.30 63.66 33.24 58.83 C 33.49 57.25 35.12 56.24 35.97 54.96 C 34.14 54.91 32.29 55.02 30.49 54.59 C 30.93 49.22 37.41 47.69 41.92 47.50 L 42.04 47.83 C 46.18 49.58 50.77 49.52 55.16 50.08 L 54.34 49.39 L 54.33 49.37 C 55.56 50.12 56.82 50.84 58.03 51.64 C 58.96 52.67 59.93 53.68 60.96 54.61 C 60.64 47.97 65.89 42.56 64.77 35.83 M 57.01 96.92 C 56.75 96.46 56.22 95.55 55.95 95.09 C 55.31 96.70 54.65 98.30 54.03 99.92 C 54.55 99.49 55.58 98.63 56.10 98.21 C 56.49 98.78 56.88 99.36 57.28 99.93 C 55.18 101.19 53.30 103.09 53.20 105.68 C 54.47 104.66 55.71 103.61 56.97 102.60 C 58.89 103.66 61.47 104.36 61.92 106.86 C 63.20 109.38 59.97 110.79 58.64 112.42 C 56.87 112.58 55.13 112.95 53.44 113.53 C 54.28 115.64 54.56 117.88 54.46 120.15 C 54.96 120.53 55.97 121.30 56.47 121.68 C 58.07 127.63 65.29 125.46 69.82 125.82 C 71.42 124.06 73.24 122.52 75.03 120.95 C 78.75 115.99 83.68 111.53 84.78 105.12 C 83.35 105.22 81.94 105.32 80.52 105.43 C 79.08 102.92 78.72 99.65 76.12 97.98 C 70.87 93.97 63.27 94.59 58.43 98.97 C 58.52 98.27 58.70 96.86 58.79 96.16 C 60.35 95.76 61.87 95.21 63.16 94.22 C 66.81 94.21 70.47 94.16 74.10 94.64 C 71.83 92.16 69.85 89.36 67.06 87.42 C 63.35 90.19 60.18 93.56 57.01 96.92 M 105.72 89.51 C 104.29 92.54 102.19 95.60 102.66 99.12 C 106.06 102.52 107.97 107.29 112.28 109.74 C 118.37 113.88 125.95 112.71 132.89 112.81 C 135.25 110.61 139.46 108.87 138.87 104.98 C 138.86 99.84 134.03 96.76 131.99 92.43 C 129.81 94.87 126.33 94.78 123.90 92.74 C 123.20 92.69 121.80 92.61 121.09 92.57 C 121.15 90.79 121.22 89.01 121.32 87.23 C 116.15 88.18 110.95 88.93 105.72 89.51 M 48.50 110.14 C 47.37 112.13 50.13 112.29 51.26 113.06 C 51.15 109.97 51.23 106.83 52.76 104.04 C 50.36 105.02 49.87 108.13 48.50 110.14 M 128.97 114.64 C 125.04 114.55 120.98 115.06 117.23 113.56 C 116.52 113.99 115.80 114.44 115.10 114.89 C 118.52 116.96 122.14 118.77 125.97 119.99 C 128.04 117.35 131.88 118.35 134.04 120.32 C 138.91 123.61 140.03 129.68 143.49 134.13 C 144.03 129.73 144.54 125.32 145.42 120.98 C 141.84 117.33 143.18 111.76 140.04 107.88 C 138.19 112.06 133.61 115.19 128.97 114.64 M 43.25 112.75 C 42.13 113.29 41.28 115.64 42.87 116.11 C 44.88 116.37 45.67 112.08 43.25 112.75 M 91.05 114.77 C 92.67 116.00 94.01 117.52 94.68 119.47 C 95.48 120.07 96.28 120.66 97.07 121.27 C 98.54 121.87 100.00 122.48 101.48 123.08 C 101.50 119.62 101.51 116.15 101.40 112.68 C 97.75 112.18 94.27 113.11 91.05 114.77 M 103.32 112.99 C 103.25 114.17 103.18 115.35 103.11 116.53 C 105.40 117.29 107.50 118.93 110.03 118.59 C 110.26 117.88 110.73 116.46 110.96 115.75 C 112.21 117.68 111.19 119.96 109.09 120.62 C 107.07 120.07 105.15 119.21 103.19 118.49 C 103.21 120.49 103.23 122.49 103.26 124.49 C 102.21 124.54 101.17 124.58 100.12 124.62 C 99.05 123.92 98.25 122.10 96.67 122.99 C 96.42 125.56 96.72 128.27 95.30 130.57 C 92.86 130.74 90.40 130.68 88.44 129.02 C 88.41 129.80 88.33 131.37 88.30 132.16 C 87.77 132.33 86.72 132.66 86.20 132.83 C 85.05 135.10 82.66 134.66 80.59 134.23 C 79.75 139.87 78.79 145.48 78.06 151.13 C 77.73 151.57 77.06 152.44 76.73 152.88 C 76.93 156.61 74.26 159.58 73.91 163.18 C 72.63 164.93 71.37 166.69 70.09 168.44 C 71.20 169.22 72.21 170.72 73.72 169.86 C 76.32 167.72 78.80 165.30 81.86 163.68 C 85.55 162.70 86.29 168.11 89.95 167.95 C 90.09 161.79 95.75 155.67 102.20 156.73 C 103.60 158.40 104.90 160.17 106.45 161.72 C 106.23 158.07 107.81 154.74 108.46 151.24 C 109.95 150.41 111.43 149.56 112.90 148.70 C 114.27 148.70 115.64 148.71 117.01 148.72 C 117.73 149.81 118.46 150.90 119.19 151.98 C 120.44 149.31 121.66 146.61 122.77 143.87 C 123.53 143.71 125.05 143.39 125.80 143.23 C 124.21 140.11 121.06 138.30 118.98 135.55 C 116.92 136.66 114.92 137.87 112.91 139.05 C 112.26 140.33 111.71 141.69 110.86 142.86 C 109.40 143.25 107.86 143.15 106.37 143.28 C 106.04 142.78 105.38 141.78 105.05 141.28 C 102.31 141.62 100.46 144.05 99.07 146.21 C 97.62 148.66 98.03 153.21 94.22 153.24 C 96.48 148.75 97.51 143.34 101.92 140.30 C 103.24 140.35 104.56 140.39 105.88 140.45 C 107.16 141.14 108.56 141.66 110.04 141.21 C 110.62 140.20 111.14 139.16 111.58 138.08 C 113.88 136.22 116.92 134.00 119.95 134.57 C 122.53 137.11 126.33 139.14 127.04 142.97 C 128.14 143.61 129.24 144.25 130.35 144.89 C 130.38 143.43 130.43 141.98 130.50 140.53 C 132.69 140.41 134.89 140.25 137.08 140.43 C 139.06 141.95 140.95 143.67 142.31 145.78 L 143.74 145.89 C 143.60 142.64 143.64 139.38 143.55 136.12 C 137.92 131.31 137.27 121.39 129.01 119.73 C 128.41 120.77 127.78 121.79 127.13 122.79 C 126.11 122.13 125.07 121.49 124.05 120.84 C 121.68 120.51 119.66 119.23 117.52 118.27 C 115.72 117.05 113.82 116.00 112.04 114.75 C 109.14 114.11 106.25 113.43 103.32 112.99 M 45.52 118.41 C 47.43 120.74 50.56 118.99 52.69 117.94 C 52.70 117.09 52.70 115.39 52.70 114.54 C 50.63 114.72 48.70 114.06 46.80 113.35 C 46.31 115.02 45.63 116.66 45.52 118.41 M 89.49 115.93 C 88.35 117.37 87.14 118.77 85.67 119.90 C 85.68 121.21 85.69 122.53 85.72 123.84 C 87.24 124.63 88.43 125.80 88.59 127.59 C 90.42 128.13 92.49 129.58 94.37 128.37 C 94.95 126.42 94.74 124.35 94.81 122.34 C 94.34 122.11 93.38 121.64 92.90 121.41 C 93.14 118.80 91.86 116.91 89.49 115.93 M 44.85 120.42 C 46.02 122.57 47.66 124.41 49.81 125.62 C 50.25 126.38 50.74 127.12 51.21 127.87 C 52.16 126.62 53.09 125.35 54.00 124.07 C 53.70 122.79 53.41 121.51 53.15 120.22 C 51.33 120.60 49.52 120.99 47.70 121.31 C 46.75 121.00 45.80 120.71 44.85 120.42 M 81.84 126.01 C 81.58 127.34 81.23 128.65 80.69 129.89 C 80.65 130.91 80.56 132.94 80.51 133.95 C 81.27 133.76 82.79 133.38 83.55 133.20 C 84.47 131.88 87.25 131.35 86.74 129.40 C 85.41 128.51 83.93 127.81 82.87 126.57 C 84.47 126.48 85.95 126.86 87.32 127.72 C 86.13 126.19 84.94 124.66 83.83 123.07 C 83.16 124.05 82.50 125.03 81.84 126.01 M 165.05 129.95 C 166.28 131.48 167.73 132.84 169.48 133.78 C 169.98 131.94 168.87 130.39 168.00 128.90 C 167.26 129.16 165.79 129.69 165.05 129.95 M 145.62 134.71 C 145.99 138.57 144.16 143.75 148.79 145.67 L 148.84 146.35 C 150.70 143.66 149.74 139.33 147.78 136.98 C 147.64 135.78 146.49 135.30 145.62 134.71 M 132.45 141.57 C 132.42 142.87 132.40 144.18 132.37 145.49 C 131.01 147.32 131.46 149.67 131.33 151.79 C 135.04 152.09 138.76 151.75 142.10 150.01 C 142.42 149.07 143.06 147.20 143.37 146.26 C 140.04 146.75 138.12 143.62 136.19 141.53 C 135.25 141.54 133.39 141.56 132.45 141.57 M 123.93 145.46 C 122.80 148.27 121.55 151.06 120.02 153.67 C 119.49 153.71 118.43 153.79 117.89 153.83 C 117.38 152.66 116.86 151.50 116.32 150.35 C 114.42 150.49 112.09 150.04 110.96 152.00 C 109.52 154.97 107.97 158.13 108.38 161.54 L 107.03 161.81 C 107.30 162.36 107.83 163.46 108.10 164.01 C 111.11 163.15 113.21 160.50 116.06 159.21 C 120.64 156.97 123.94 152.08 129.38 151.89 C 129.87 150.27 129.65 148.54 129.76 146.87 C 128.89 146.04 128.02 145.22 127.12 144.43 C 126.04 144.74 124.98 145.08 123.93 145.46 M 90.04 170.96 C 87.34 169.21 85.16 165.92 82.02 165.39 C 80.21 167.30 76.54 168.21 76.16 170.88 L 75.80 171.69 C 80.96 171.95 86.15 172.27 91.19 173.36 C 93.00 171.94 94.73 170.31 97.13 170.01 C 100.52 168.35 104.09 167.05 107.34 165.11 C 105.11 163.06 103.11 160.80 101.16 158.50 C 94.06 157.71 92.13 165.85 90.04 170.96 Z" />
<path fill="#080605" opacity="1.00" d=" M 93.94 50.87 C 98.24 47.34 101.56 42.40 106.79 40.14 C 105.68 47.99 99.44 54.14 98.78 62.13 C 101.69 60.02 104.19 57.27 107.48 55.71 C 108.79 55.00 110.13 55.50 110.82 56.80 C 105.11 57.15 102.66 63.79 97.05 64.04 C 96.53 56.73 101.13 50.51 103.93 44.10 C 99.29 48.07 95.13 52.58 90.40 56.45 C 89.43 57.42 88.07 57.67 86.80 58.02 C 88.23 54.83 91.60 53.29 93.94 50.87 Z" />
<path fill="#080605" opacity="1.00" d=" M 126.80 61.60 C 127.20 61.52 128.01 61.36 128.41 61.28 C 128.24 64.51 128.91 67.95 127.71 71.03 C 126.20 73.35 124.16 75.28 122.26 77.28 C 121.38 74.60 123.81 73.05 125.27 71.28 C 126.60 69.81 126.57 67.70 127.01 65.88 C 125.21 67.06 123.34 68.18 121.17 68.51 C 122.73 65.95 125.34 64.25 126.80 61.60 Z" />
<path fill="#080605" opacity="1.00" d=" M 154.46 61.29 C 156.45 61.33 158.43 61.25 160.41 61.32 C 158.49 61.29 157.01 61.97 155.99 63.33 C 157.29 63.72 158.59 64.11 159.89 64.50 C 158.71 64.88 157.52 65.27 156.34 65.65 C 156.39 66.39 156.50 67.87 156.55 68.61 C 156.03 68.60 155.00 68.59 154.48 68.58 C 154.54 66.15 154.54 63.72 154.46 61.29 Z" />
<path fill="#080605" opacity="1.00" d=" M 162.92 69.68 C 162.19 66.87 162.22 63.93 162.46 61.05 C 162.85 61.22 163.62 61.54 164.01 61.71 L 164.35 63.86 C 164.90 63.80 166.00 63.70 166.55 63.65 C 166.57 64.08 166.61 64.93 166.63 65.36 C 165.92 65.36 164.51 65.34 163.80 65.33 C 163.58 66.42 163.14 68.59 162.92 69.68 Z" />
<path fill="#080605" opacity="1.00" d=" M 176.25 61.44 C 176.65 61.47 177.45 61.53 177.85 61.56 C 178.08 62.00 178.54 62.88 178.77 63.33 C 179.72 63.90 180.67 64.47 181.62 65.05 C 180.81 65.16 179.19 65.38 178.38 65.49 C 178.44 66.28 178.54 67.87 178.60 68.66 C 178.10 68.66 177.10 68.67 176.60 68.67 C 176.57 66.42 176.50 64.18 176.30 61.94 L 176.25 61.44 Z" />
<path fill="#080605" opacity="1.00" d=" M 101.57 69.82 C 100.41 66.42 103.51 64.06 106.73 64.59 C 105.53 65.77 104.13 66.74 103.07 68.05 C 105.31 70.63 109.53 72.07 108.48 76.29 C 105.44 77.50 102.09 77.75 98.92 76.91 C 94.77 76.08 91.23 73.38 86.99 72.92 C 84.38 72.64 81.75 72.76 79.13 72.73 C 79.19 72.18 79.30 71.08 79.36 70.53 C 83.89 71.91 88.92 70.50 93.19 72.87 C 97.32 74.90 101.88 76.19 106.52 75.42 C 106.55 74.91 106.62 73.88 106.65 73.37 C 104.98 72.16 103.30 70.95 101.57 69.82 Z" />
<path fill="#080605" opacity="1.00" d=" M 35.61 77.15 C 36.96 74.61 38.36 72.09 40.17 69.84 C 43.43 76.90 35.98 82.35 31.88 87.06 C 35.09 87.15 38.50 83.07 41.11 86.10 C 37.21 87.15 33.29 89.89 29.15 88.83 C 30.00 84.77 34.26 82.52 36.59 79.27 C 36.26 78.56 35.94 77.86 35.61 77.15 Z" />
<path fill="#080605" opacity="1.00" d=" M 169.51 73.70 C 173.52 73.71 177.53 73.43 181.55 73.65 C 181.54 74.09 181.54 74.95 181.54 75.39 C 180.95 75.33 179.76 75.23 179.16 75.18 L 179.10 77.48 L 180.87 77.35 C 180.84 77.62 180.80 78.18 180.77 78.46 C 180.19 78.42 179.03 78.34 178.44 78.30 C 178.47 79.64 178.50 80.98 178.52 82.33 C 178.03 82.32 177.05 82.30 176.56 82.29 C 176.35 79.91 177.26 77.23 175.88 75.08 C 175.47 75.05 174.63 74.97 174.22 74.94 C 173.46 75.02 171.95 75.20 171.19 75.28 L 171.17 77.52 C 172.12 77.48 174.01 77.39 174.96 77.35 C 174.56 77.62 173.75 78.15 173.34 78.41 C 172.70 78.41 171.41 78.42 170.77 78.42 C 170.69 79.98 170.53 81.54 170.31 83.10 C 168.63 80.28 169.77 76.80 169.51 73.70 Z" />
<path fill="#080605" opacity="1.00" d=" M 183.73 73.78 C 185.41 73.71 187.08 73.65 188.77 73.58 C 188.78 74.03 188.80 74.93 188.81 75.39 C 188.16 75.33 186.84 75.22 186.18 75.16 L 186.08 77.34 C 186.91 77.45 188.56 77.68 189.39 77.80 C 188.15 78.18 186.86 78.38 185.59 78.62 C 185.59 79.89 185.58 81.16 185.58 82.43 C 185.11 82.38 184.18 82.29 183.71 82.24 C 183.71 79.42 183.70 76.60 183.73 73.78 Z" />
<path fill="#080605" opacity="1.00" d=" M 162.29 81.95 C 162.35 79.18 162.36 76.40 162.43 73.63 C 164.27 73.79 166.39 73.26 167.81 74.79 C 166.45 75.28 164.99 75.32 163.57 75.43 L 163.50 77.52 C 164.31 77.48 165.93 77.40 166.74 77.36 C 166.72 77.61 166.68 78.12 166.66 78.37 C 165.87 78.37 164.28 78.36 163.48 78.36 C 163.54 79.23 163.64 80.97 163.70 81.84 C 163.35 81.87 162.64 81.92 162.29 81.95 Z" />
<path fill="#080605" opacity="1.00" d=" M 172.56 87.37 C 174.35 87.38 176.15 87.27 177.93 87.47 C 178.14 87.78 178.54 88.39 178.75 88.70 L 177.82 88.64 C 176.99 88.59 175.32 88.48 174.49 88.43 C 174.54 90.78 174.53 93.14 174.48 95.50 L 172.48 95.59 C 172.51 92.85 172.53 90.11 172.56 87.37 Z" />
<path fill="#080605" opacity="1.00" d=" M 176.23 101.42 C 176.83 101.28 178.02 100.98 178.61 100.84 C 179.33 100.98 180.78 101.26 181.50 101.40 C 180.71 101.47 179.13 101.60 178.35 101.66 C 178.33 102.46 178.32 103.25 178.31 104.05 C 179.34 104.39 180.35 104.75 181.37 105.13 C 180.53 105.26 178.85 105.52 178.01 105.65 C 177.73 107.34 177.38 109.02 176.97 110.68 C 176.10 107.67 176.33 104.52 176.23 101.42 Z" />
<path fill="#080605" opacity="1.00" d=" M 183.71 101.23 L 184.05 100.02 L 184.30 101.47 C 184.59 103.50 184.62 105.56 184.71 107.61 C 185.91 107.65 187.12 107.69 188.32 107.72 C 188.40 105.73 188.43 103.73 188.67 101.75 C 188.93 101.89 189.43 102.17 189.69 102.30 C 189.80 104.25 189.68 106.20 189.71 108.15 C 188.20 109.18 186.44 109.56 184.66 109.77 C 183.28 107.13 183.02 104.11 183.71 101.23 Z" />
<path fill="#080605" opacity="1.00" d=" M 33.19 112.03 C 33.36 110.50 34.66 110.03 36.00 109.87 C 35.45 111.61 34.78 113.32 34.37 115.10 C 34.62 118.52 36.51 121.59 38.90 123.98 C 38.26 126.34 38.78 128.66 39.59 130.92 C 36.46 130.45 36.58 127.37 36.69 124.97 C 34.26 121.19 31.30 116.68 33.19 112.03 Z" />
<path fill="#080605" opacity="1.00" d=" M 178.57 114.38 C 179.00 114.47 179.84 114.64 180.26 114.73 C 180.26 116.94 180.21 119.16 180.49 121.37 C 181.24 121.45 182.75 121.63 183.50 121.72 C 183.63 119.55 183.67 117.37 183.67 115.19 L 185.38 115.17 C 185.05 117.60 186.15 120.57 184.17 122.47 C 182.67 122.79 181.13 122.68 179.62 122.70 C 178.38 120.09 178.57 117.19 178.57 114.38 Z" />
<path fill="#080605" opacity="1.00" d=" M 187.58 115.42 C 188.02 115.32 188.91 115.14 189.35 115.05 C 189.35 117.24 189.36 119.44 189.39 121.63 C 190.41 121.57 191.43 121.52 192.45 121.46 C 192.48 119.32 192.50 117.17 192.50 115.03 C 192.84 115.14 193.52 115.36 193.86 115.47 C 193.72 117.46 193.82 119.47 193.54 121.46 C 192.62 123.37 190.20 122.47 188.53 122.72 C 187.56 120.40 187.61 117.88 187.58 115.42 Z" />
<path fill="#080605" opacity="1.00" d=" M 128.57 123.21 C 128.28 121.71 130.69 120.91 131.53 122.08 C 132.91 124.06 129.46 124.47 128.57 123.21 Z" />
<path fill="#080605" opacity="1.00" d=" M 182.23 128.32 C 182.52 127.98 183.08 127.31 183.37 126.98 C 183.56 129.55 183.62 132.13 183.67 134.71 C 184.88 134.68 186.09 134.64 187.31 134.60 C 187.67 132.74 186.79 130.39 187.97 128.80 C 189.48 130.51 188.30 133.43 188.58 135.61 C 186.80 135.64 185.02 135.65 183.24 135.67 C 182.66 134.90 182.09 134.14 181.52 133.38 C 181.65 132.12 181.78 130.86 181.98 129.61 C 182.04 129.29 182.17 128.64 182.23 128.32 Z" />
<path fill="#080605" opacity="1.00" d=" M 157.21 139.76 C 157.76 139.80 158.86 139.88 159.41 139.91 C 160.10 144.33 157.81 148.55 157.56 152.95 C 157.77 155.07 154.75 156.81 153.60 154.51 C 152.34 149.15 159.89 145.38 157.21 139.76 M 155.22 152.33 C 155.83 152.77 155.83 152.77 155.22 152.33 Z" />
<path fill="#080605" opacity="1.00" d=" M 187.66 141.56 C 188.09 141.55 188.95 141.53 189.38 141.52 C 189.35 143.85 189.27 146.20 189.53 148.53 C 190.26 148.57 191.71 148.64 192.44 148.67 C 192.51 146.08 192.48 143.48 192.66 140.89 C 194.88 143.08 193.30 146.70 193.45 149.47 C 191.95 149.55 190.44 149.61 188.95 149.67 C 188.64 149.30 188.03 148.57 187.72 148.21 C 187.69 145.99 187.68 143.78 187.66 141.56 Z" />
<path fill="#080605" opacity="1.00" d=" M 50.61 149.75 C 53.82 152.09 52.10 156.55 51.54 159.77 C 50.95 159.77 49.76 159.76 49.16 159.75 C 49.35 156.38 49.74 153.02 50.61 149.75 Z" />
<path fill="#080605" opacity="1.00" d=" M 173.44 161.32 C 173.80 159.18 172.62 156.37 174.57 154.79 C 174.71 156.67 174.71 158.55 174.61 160.43 C 175.46 161.82 176.79 162.54 178.40 162.75 C 178.55 160.29 178.57 157.84 178.56 155.39 L 179.78 155.45 C 179.53 158.00 180.23 160.77 179.16 163.19 C 176.97 164.53 174.58 163.45 173.44 161.32 Z" />
<path fill="#080605" opacity="1.00" d=" M 181.73 155.61 C 182.20 155.54 183.14 155.40 183.61 155.33 C 183.84 157.82 182.73 160.88 184.93 162.73 C 188.67 161.77 187.09 157.71 187.54 154.90 C 189.75 156.43 188.40 159.72 188.48 161.96 C 188.23 164.17 185.47 163.49 183.92 163.67 C 183.18 162.63 182.44 161.61 181.69 160.59 C 181.71 158.93 181.73 157.27 181.73 155.61 Z" />
<path fill="#080605" opacity="1.00" d=" M 191.25 162.49 C 191.73 160.40 190.14 157.29 191.97 155.86 C 193.67 157.60 191.95 160.81 193.59 162.90 C 196.90 162.04 195.13 157.97 195.57 155.58 L 197.56 155.45 C 197.50 157.66 197.49 159.87 197.51 162.09 C 195.87 163.26 193.69 164.58 192.02 162.64 L 191.25 162.49 Z" />
<path fill="#080605" opacity="1.00" d=" M 195.68 174.46 C 195.64 171.78 194.44 168.81 195.68 166.31 C 195.79 168.36 195.84 170.42 195.76 172.47 C 196.40 172.55 197.68 172.72 198.32 172.80 L 198.38 173.10 C 198.47 173.53 198.65 174.38 198.74 174.81 C 197.72 174.69 196.69 174.58 195.68 174.46 Z" />
<path fill="#080605" opacity="1.00" d=" M 174.19 175.32 C 176.55 173.57 174.15 169.98 176.24 168.00 C 176.47 170.90 177.11 174.06 175.55 176.72 C 173.86 176.65 172.17 176.59 170.49 176.51 C 170.44 173.66 169.55 170.54 171.10 167.94 C 171.46 170.48 171.46 173.06 171.56 175.62 C 172.22 175.55 173.53 175.39 174.19 175.32 Z" />
<path fill="#080605" opacity="1.00" d=" M 187.70 168.73 C 188.12 168.71 188.97 168.69 189.39 168.68 C 189.38 170.96 189.35 173.23 189.34 175.51 C 190.12 175.48 191.66 175.40 192.43 175.36 C 192.48 172.89 192.48 170.42 192.78 167.96 C 194.53 170.46 193.51 173.70 193.50 176.53 C 191.74 176.60 189.98 176.63 188.22 176.65 C 187.50 174.07 187.67 171.37 187.70 168.73 Z" />
<path fill="#080605" opacity="1.00" d=" M 178.50 169.00 C 181.74 169.10 179.67 173.26 180.52 175.32 C 181.27 175.39 182.78 175.54 183.53 175.61 C 183.63 173.46 183.60 171.31 183.74 169.17 C 186.76 168.39 184.79 172.66 185.39 174.25 C 185.11 174.83 184.53 176.00 184.24 176.59 C 182.67 176.61 181.11 176.63 179.54 176.66 C 178.48 174.24 178.53 171.58 178.50 169.00 Z" />
</g>
<g id="#d29915ff">
<path fill="#d29915" opacity="1.00" d=" M 120.85 37.88 C 123.83 36.13 126.92 33.98 130.55 34.23 L 131.62 34.25 C 130.88 34.43 129.40 34.79 128.66 34.97 L 128.80 36.21 C 131.18 37.18 133.30 38.66 135.27 40.29 C 135.13 42.51 135.52 44.77 135.04 46.96 C 134.18 48.50 132.93 49.76 131.77 51.07 C 131.62 52.43 131.42 53.79 131.17 55.14 C 135.03 57.03 136.87 61.25 138.71 64.89 C 137.55 64.83 136.39 64.72 135.26 64.49 C 132.72 62.03 129.59 59.23 130.39 55.27 C 129.88 54.60 129.37 53.93 128.84 53.28 C 127.09 58.12 130.04 62.44 133.58 65.43 C 133.87 66.47 134.15 67.52 134.43 68.56 C 139.53 72.56 146.86 72.32 151.22 77.39 C 150.46 78.01 149.72 78.63 148.97 79.25 C 155.42 81.71 155.68 89.28 158.50 94.60 C 160.64 98.62 160.71 103.45 163.31 107.25 C 162.09 110.57 161.90 114.63 165.12 116.89 C 165.68 116.08 166.79 114.48 167.35 113.68 C 167.81 115.77 167.90 117.91 167.77 120.04 C 168.24 120.81 168.71 121.58 169.19 122.35 C 168.99 123.98 169.02 125.62 169.08 127.26 C 167.51 127.59 165.95 127.92 164.38 128.23 C 163.61 127.95 162.84 127.68 162.07 127.41 C 161.74 128.32 161.42 129.23 161.10 130.14 C 163.31 131.48 165.28 133.16 167.45 134.57 C 168.94 135.06 170.51 134.41 172.02 134.30 C 173.32 137.41 174.80 140.44 176.54 143.34 C 173.86 145.86 171.23 148.53 167.95 150.29 C 166.49 148.65 166.46 145.35 163.94 145.01 C 162.70 149.45 165.45 153.66 165.14 158.09 C 164.63 162.19 160.39 164.05 158.54 167.40 C 157.30 170.30 156.88 173.46 156.21 176.53 C 154.31 172.20 153.36 167.58 152.08 163.06 C 151.66 160.63 149.16 160.03 147.21 159.29 C 150.59 152.86 152.59 145.23 150.80 138.03 C 150.12 135.09 147.40 133.40 145.35 131.45 C 146.17 128.29 146.87 125.11 147.61 121.94 C 148.86 122.17 150.11 122.41 151.35 122.65 C 151.43 122.05 151.58 120.86 151.65 120.27 C 150.36 120.30 149.08 120.33 147.79 120.36 C 148.72 117.11 149.45 113.79 149.63 110.40 C 149.19 110.46 148.32 110.59 147.88 110.65 C 147.50 113.29 147.05 115.93 146.40 118.52 C 146.15 118.42 145.64 118.23 145.39 118.13 C 145.89 115.82 146.24 113.48 146.54 111.13 C 145.04 110.04 143.57 108.92 142.14 107.75 C 141.68 106.34 140.59 104.82 141.10 103.31 C 143.54 100.72 146.64 98.49 147.70 94.92 C 148.82 91.16 149.24 86.36 146.15 83.40 C 145.77 84.57 145.40 85.75 145.05 86.93 C 145.49 87.28 146.39 87.98 146.83 88.33 C 147.06 93.50 144.59 98.32 140.43 101.32 C 139.62 100.21 138.83 99.10 138.03 97.98 C 141.18 95.26 144.22 91.70 143.20 87.18 C 140.72 89.99 140.73 95.49 135.78 95.13 C 134.95 91.95 138.49 89.29 138.26 85.94 C 136.95 87.48 135.80 89.16 134.42 90.65 C 133.08 91.24 133.06 88.92 132.32 88.28 C 130.89 87.26 129.45 86.26 128.01 85.25 C 133.38 82.65 138.96 80.32 143.89 76.93 C 144.05 76.28 144.36 74.97 144.51 74.32 C 136.07 79.64 127.05 84.62 117.02 86.02 C 108.62 87.78 99.99 87.95 91.46 87.36 C 85.52 86.30 79.30 86.16 73.78 83.46 C 73.52 82.94 73.01 81.91 72.75 81.40 C 67.87 78.73 64.08 74.62 60.45 70.50 C 59.50 68.86 57.63 69.92 56.75 71.02 C 57.11 72.49 58.83 72.53 59.92 73.17 C 63.69 77.01 67.93 80.38 71.49 84.42 C 69.73 85.10 67.92 85.63 66.09 86.09 C 65.69 86.28 64.90 86.67 64.50 86.86 C 61.82 87.86 59.14 88.88 56.50 89.96 C 56.05 90.16 55.14 90.56 54.69 90.75 C 51.37 91.95 50.06 95.46 48.60 98.35 C 47.12 101.25 46.42 104.44 45.82 107.62 C 43.50 109.95 40.10 112.26 40.45 116.00 C 41.90 121.46 46.29 125.32 49.96 129.35 C 47.14 131.03 43.93 130.59 40.82 130.51 C 40.51 131.01 39.91 132.00 39.60 132.50 C 43.52 132.76 47.63 132.88 51.11 130.75 C 51.96 131.40 52.80 132.04 53.65 132.68 C 53.66 133.28 53.69 134.46 53.71 135.05 C 56.24 136.29 58.29 138.22 60.03 140.41 C 55.93 141.58 56.51 146.26 57.80 149.33 C 57.32 149.73 56.36 150.53 55.88 150.94 C 55.74 152.19 55.60 153.45 55.46 154.71 C 56.45 155.69 57.44 156.66 58.44 157.64 C 58.58 163.03 60.00 168.34 62.59 173.07 C 62.68 175.32 62.58 177.57 62.54 179.82 C 59.99 180.02 57.32 179.24 54.85 179.94 C 53.66 182.11 54.64 184.80 54.73 187.16 C 53.83 188.14 52.93 189.12 52.02 190.10 C 45.25 184.85 44.50 175.85 42.44 168.17 C 41.72 168.36 40.29 168.74 39.57 168.93 C 40.26 165.30 40.31 161.52 39.01 158.02 C 37.21 151.48 31.77 146.87 29.25 140.68 C 28.57 139.12 28.05 137.47 27.08 136.05 C 26.08 136.75 25.12 137.52 24.15 138.28 C 23.18 134.94 21.82 131.56 22.18 128.02 C 22.38 124.07 24.41 120.00 22.53 116.17 C 20.72 116.57 18.92 117.02 17.10 117.38 C 16.16 117.47 14.29 117.65 13.36 117.74 C 13.74 114.39 13.68 110.99 12.45 107.81 C 16.77 101.77 25.37 98.45 26.43 90.43 C 24.55 90.99 22.80 91.87 21.06 92.76 C 23.93 85.81 29.21 80.32 32.92 73.88 C 35.56 69.39 34.42 64.08 35.18 59.20 C 37.34 56.60 41.23 56.31 43.71 54.01 L 43.33 52.92 C 41.35 52.45 38.90 52.41 38.80 49.76 C 43.88 50.61 49.07 50.85 54.11 51.96 C 56.95 53.25 59.22 55.54 62.10 56.80 C 62.77 50.96 65.93 45.81 66.53 39.96 C 69.48 40.48 72.49 40.88 75.26 42.08 C 75.34 44.23 74.61 46.29 74.23 48.38 C 77.11 46.49 79.59 44.09 81.73 41.40 C 80.17 42.07 78.63 42.75 77.08 43.43 C 76.73 42.31 76.38 41.18 76.01 40.07 C 76.36 40.75 77.06 42.13 77.41 42.81 C 78.72 42.27 80.00 41.62 81.38 41.29 C 85.00 40.46 88.67 39.79 92.25 38.78 C 101.59 36.16 111.36 33.95 121.11 35.15 C 119.85 36.26 119.23 37.82 118.66 39.36 C 121.93 40.45 125.72 41.15 128.04 43.96 C 129.97 46.57 129.59 50.05 129.99 53.08 C 132.57 50.60 131.42 46.59 130.12 43.73 C 128.18 40.38 124.17 39.30 120.85 37.88 M 93.94 50.87 C 91.60 53.29 88.23 54.83 86.80 58.02 C 88.07 57.67 89.43 57.42 90.40 56.45 C 95.13 52.58 99.29 48.07 103.93 44.10 C 101.13 50.51 96.53 56.73 97.05 64.04 C 102.66 63.79 105.11 57.15 110.82 56.80 C 110.13 55.50 108.79 55.00 107.48 55.71 C 104.19 57.27 101.69 60.02 98.78 62.13 C 99.44 54.14 105.68 47.99 106.79 40.14 C 101.56 42.40 98.24 47.34 93.94 50.87 M 126.80 61.60 C 125.34 64.25 122.73 65.95 121.17 68.51 C 123.34 68.18 125.21 67.06 127.01 65.88 C 126.57 67.70 126.60 69.81 125.27 71.28 C 123.81 73.05 121.38 74.60 122.26 77.28 C 124.16 75.28 126.20 73.35 127.71 71.03 C 128.91 67.95 128.24 64.51 128.41 61.28 C 128.01 61.36 127.20 61.52 126.80 61.60 M 101.57 69.82 C 103.30 70.95 104.98 72.16 106.65 73.37 C 106.62 73.88 106.55 74.91 106.52 75.42 C 101.88 76.19 97.32 74.90 93.19 72.87 C 88.92 70.50 83.89 71.91 79.36 70.53 C 79.30 71.08 79.19 72.18 79.13 72.73 C 81.75 72.76 84.38 72.64 86.99 72.92 C 91.23 73.38 94.77 76.08 98.92 76.91 C 102.09 77.75 105.44 77.50 108.48 76.29 C 109.53 72.07 105.31 70.63 103.07 68.05 C 104.13 66.74 105.53 65.77 106.73 64.59 C 103.51 64.06 100.41 66.42 101.57 69.82 M 35.61 77.15 C 35.94 77.86 36.26 78.56 36.59 79.27 C 34.26 82.52 30.00 84.77 29.15 88.83 C 33.29 89.89 37.21 87.15 41.11 86.10 C 38.50 83.07 35.09 87.15 31.88 87.06 C 35.98 82.35 43.43 76.90 40.17 69.84 C 38.36 72.09 36.96 74.61 35.61 77.15 M 33.19 112.03 C 31.30 116.68 34.26 121.19 36.69 124.97 C 36.58 127.37 36.46 130.45 39.59 130.92 C 38.78 128.66 38.26 126.34 38.90 123.98 C 36.51 121.59 34.62 118.52 34.37 115.10 C 34.78 113.32 35.45 111.61 36.00 109.87 C 34.66 110.03 33.36 110.50 33.19 112.03 M 157.21 139.76 C 159.89 145.38 152.34 149.15 153.60 154.51 C 154.75 156.81 157.77 155.07 157.56 152.95 C 157.81 148.55 160.10 144.33 159.41 139.91 C 158.86 139.88 157.76 139.80 157.21 139.76 M 50.61 149.75 C 49.74 153.02 49.35 156.38 49.16 159.75 C 49.76 159.76 50.95 159.77 51.54 159.77 C 52.10 156.55 53.82 152.09 50.61 149.75 Z" />
<path fill="#d29915" opacity="1.00" d=" M 41.92 47.50 C 45.32 44.14 51.01 46.55 54.34 49.39 L 55.16 50.08 C 50.77 49.52 46.18 49.58 42.04 47.83 L 41.92 47.50 Z" />
<path fill="#d29915" opacity="1.00" d=" M 29.02 62.93 C 30.40 61.54 31.81 60.17 33.24 58.83 C 33.30 63.66 33.63 68.77 31.18 73.15 C 28.50 77.94 24.92 82.14 21.78 86.63 C 22.28 81.35 25.62 76.97 26.66 71.85 C 27.91 70.16 29.59 68.46 28.06 66.25 C 28.39 65.14 28.71 64.04 29.02 62.93 Z" />
<path fill="#d29915" opacity="1.00" d=" M 162.84 60.29 C 164.91 59.94 166.87 60.49 168.57 61.68 C 170.14 59.73 172.81 60.37 174.99 60.12 C 177.52 60.18 180.23 59.93 182.53 61.17 C 181.21 61.42 179.86 61.56 178.51 61.51 L 177.85 61.56 C 177.45 61.53 176.65 61.47 176.25 61.44 C 174.58 61.42 172.92 61.73 171.26 61.85 L 171.44 63.19 C 172.62 63.50 173.78 63.85 174.94 64.24 C 174.07 65.42 172.52 65.52 171.26 66.01 C 171.20 66.89 171.09 68.64 171.03 69.52 C 167.82 68.37 169.52 64.59 169.44 62.14 C 167.63 62.01 165.81 61.88 164.01 61.71 C 163.62 61.54 162.85 61.22 162.46 61.05 L 162.84 60.29 Z" />
<path fill="#d29915" opacity="1.00" d=" M 190.29 61.04 C 190.72 60.84 191.59 60.45 192.02 60.25 C 193.64 60.28 195.26 60.31 196.89 60.32 C 196.29 61.90 195.96 63.55 196.88 65.09 C 195.61 65.10 194.53 65.48 193.65 66.24 C 193.11 67.06 192.60 67.90 192.14 68.76 C 191.75 68.74 190.96 68.68 190.57 68.66 C 190.64 66.21 190.70 63.76 190.77 61.31 C 189.64 61.47 187.39 61.78 186.26 61.94 L 186.35 63.16 C 187.09 63.45 188.57 64.04 189.31 64.33 C 188.34 64.99 187.33 65.58 186.33 66.19 C 186.14 67.02 185.74 68.69 185.54 69.53 C 182.02 68.24 183.84 63.77 183.58 60.98 C 184.90 59.16 188.32 60.61 190.29 61.04 Z" />
<path fill="#d29915" opacity="1.00" d=" M 147.79 60.54 C 149.61 60.69 151.43 60.89 153.25 61.12 C 152.27 61.36 150.30 61.82 149.31 62.05 L 149.43 63.08 C 150.57 63.56 151.74 64.01 152.88 64.50 C 151.16 65.43 149.44 66.41 148.43 68.17 C 148.14 68.30 147.57 68.56 147.29 68.69 C 147.26 66.50 147.06 64.30 147.32 62.12 C 147.44 61.72 147.67 60.93 147.79 60.54 Z" />
<path fill="#d29915" opacity="1.00" d=" M 153.11 77.96 C 153.73 76.44 154.34 74.92 154.94 73.40 C 157.17 73.61 159.75 73.11 161.50 74.93 C 159.80 75.22 158.10 75.50 156.40 75.75 C 157.30 76.44 158.20 77.12 159.11 77.80 C 158.02 78.60 156.39 79.29 156.69 80.96 C 157.59 82.92 158.88 84.66 160.08 86.43 C 161.56 86.98 163.05 87.52 164.54 88.02 C 163.61 88.40 161.74 89.16 160.81 89.53 C 161.51 90.33 162.21 91.12 162.92 91.92 C 162.11 92.62 161.31 93.33 160.51 94.03 C 157.77 88.79 156.32 82.98 153.11 77.96 Z" />
<path fill="#d29915" opacity="1.00" d=" M 190.67 73.57 C 192.97 73.66 195.27 73.77 197.58 73.85 C 196.69 75.02 195.51 75.71 194.02 75.92 C 194.75 76.38 196.21 77.32 196.93 77.78 C 195.32 78.84 193.58 79.90 192.89 81.81 C 191.86 83.40 191.76 85.32 191.50 87.14 C 192.13 87.30 193.41 87.63 194.04 87.80 C 191.67 88.67 191.82 90.47 192.65 92.43 C 191.93 92.44 190.49 92.46 189.77 92.46 C 189.73 93.32 189.67 95.04 189.63 95.90 C 189.09 95.81 188.01 95.64 187.46 95.55 C 187.50 92.82 187.38 90.07 187.79 87.36 C 188.69 87.16 190.51 86.76 191.41 86.56 C 190.91 82.25 190.64 77.91 190.67 73.57 Z" />
<path fill="#d29915" opacity="1.00" d=" M 165.45 87.12 C 167.46 86.99 170.11 86.02 171.26 88.31 C 169.79 88.87 168.31 89.41 166.83 89.93 C 168.22 90.55 169.61 91.17 171.00 91.79 C 169.86 92.14 168.71 92.47 167.58 92.81 C 167.56 93.53 167.53 94.96 167.52 95.67 C 167.00 95.68 165.96 95.71 165.44 95.72 C 165.48 92.85 165.49 89.99 165.45 87.12 Z" />
<path fill="#d29915" opacity="1.00" d=" M 179.83 87.99 C 180.08 87.65 180.57 86.97 180.82 86.63 C 182.55 87.13 185.14 86.19 186.16 88.11 C 184.96 88.53 183.76 88.91 182.54 89.26 C 182.44 91.67 181.87 94.07 180.54 96.12 C 178.92 93.72 179.57 90.68 179.83 87.99 Z" />
<path fill="#d29915" opacity="1.00" d=" M 12.14 105.12 C 9.08 98.37 15.13 92.23 20.39 88.89 C 19.81 91.81 18.79 94.92 20.11 97.81 C 17.51 100.31 14.73 102.61 12.14 105.12 Z" />
<path fill="#d29915" opacity="1.00" d=" M 167.54 107.74 C 169.31 105.90 168.54 103.14 168.65 100.84 C 170.62 101.06 172.61 101.26 174.59 101.49 C 173.22 102.05 171.84 102.58 170.46 103.11 C 171.26 103.47 172.85 104.17 173.64 104.52 C 174.27 106.08 171.35 105.55 170.69 106.29 C 170.66 107.36 170.63 108.43 170.61 109.51 C 169.96 109.46 168.66 109.37 168.01 109.32 C 167.81 109.04 167.41 108.48 167.21 108.19 L 167.54 107.74 Z" />
<path fill="#d29915" opacity="1.00" d=" M 197.12 101.68 C 197.50 101.49 198.26 101.11 198.63 100.92 L 198.79 102.57 C 198.88 103.97 198.99 105.38 198.85 106.78 C 197.76 107.83 197.04 110.73 195.12 109.75 C 191.23 109.22 191.83 104.55 191.28 101.75 C 191.87 101.77 193.06 101.81 193.65 101.84 C 193.61 104.34 193.35 107.30 196.08 108.55 C 196.45 106.26 196.66 103.95 197.12 101.68 Z" />
<path fill="#d29915" opacity="1.00" d=" M 43.25 112.75 C 45.67 112.08 44.88 116.37 42.87 116.11 C 41.28 115.64 42.13 113.29 43.25 112.75 Z" />
<path fill="#d29915" opacity="1.00" d=" M 171.33 114.21 C 172.11 116.76 171.89 119.49 172.24 122.12 C 175.53 120.72 174.58 117.22 174.72 114.43 C 175.24 114.41 176.28 114.39 176.80 114.37 C 176.76 116.78 176.94 119.23 176.45 121.60 C 175.25 123.52 173.05 123.53 171.12 122.84 L 171.12 121.92 C 171.18 119.35 171.30 116.78 171.33 114.21 Z" />
<path fill="#d29915" opacity="1.00" d=" M 13.90 119.97 C 16.52 119.40 19.13 118.76 21.75 118.15 C 21.32 122.46 20.07 126.71 20.35 131.06 C 20.62 134.67 22.32 137.94 23.93 141.10 C 24.88 140.81 25.82 140.53 26.76 140.25 C 29.90 147.32 36.07 152.81 37.79 160.52 C 39.31 165.38 37.11 170.24 36.29 175.00 C 38.06 173.76 39.77 172.45 41.47 171.11 C 42.86 178.05 44.07 186.34 50.25 190.75 C 53.15 192.86 55.55 189.46 57.65 187.84 C 56.83 185.80 56.11 183.72 55.43 181.64 C 57.58 181.63 59.72 181.63 61.87 181.56 C 60.88 183.65 59.85 185.72 58.67 187.70 C 58.25 188.47 57.84 189.23 57.42 189.99 C 55.79 190.87 54.24 191.89 52.73 192.96 C 49.52 192.91 46.09 193.61 43.13 192.02 C 41.60 190.21 40.39 188.18 39.35 186.06 C 37.94 184.95 36.21 184.22 35.00 182.87 C 34.12 181.40 33.64 179.73 32.99 178.16 C 33.64 175.96 34.27 173.75 35.02 171.58 C 31.97 170.90 28.55 168.50 28.79 165.03 C 29.25 160.62 27.55 156.42 27.68 152.03 C 28.13 149.72 26.02 148.39 24.74 146.84 C 24.39 147.01 23.70 147.36 23.35 147.53 C 21.13 144.27 19.05 140.88 18.02 137.02 C 17.09 133.71 12.93 132.52 12.61 128.86 C 12.91 125.88 13.59 122.95 13.90 119.97 Z" />
<path fill="#d29915" opacity="1.00" d=" M 44.85 120.42 C 45.80 120.71 46.75 121.00 47.70 121.31 C 48.41 122.74 49.10 124.18 49.81 125.62 C 47.66 124.41 46.02 122.57 44.85 120.42 Z" />
<path fill="#d29915" opacity="1.00" d=" M 171.12 123.11 C 171.73 124.45 172.37 125.77 173.01 127.10 C 174.57 128.17 176.13 129.25 177.69 130.33 C 178.40 129.26 179.13 128.21 179.86 127.15 C 180.41 132.32 181.69 137.58 180.25 142.73 C 179.69 142.54 178.57 142.17 178.01 141.99 C 174.95 136.09 170.42 130.10 171.12 123.11 Z" />
<path fill="#d29915" opacity="1.00" d=" M 165.05 129.95 C 165.79 129.69 167.26 129.16 168.00 128.90 C 168.87 130.39 169.98 131.94 169.48 133.78 C 167.73 132.84 166.28 131.48 165.05 129.95 Z" />
<path fill="#d29915" opacity="1.00" d=" M 190.66 127.81 C 194.71 127.84 192.81 132.49 193.39 135.10 C 197.28 134.19 193.35 128.34 197.37 127.70 C 197.48 130.69 197.90 133.88 196.39 136.62 C 194.43 136.43 192.49 136.10 190.64 135.44 C 190.67 132.90 190.65 130.35 190.66 127.81 Z" />
<path fill="#d29915" opacity="1.00" d=" M 147.78 136.98 C 149.74 139.33 150.70 143.66 148.84 146.35 L 148.79 145.67 C 148.67 142.75 148.29 139.85 147.78 136.98 Z" />
<path fill="#d29915" opacity="1.00" d=" M 155.22 152.33 C 155.83 152.77 155.83 152.77 155.22 152.33 Z" />
<path fill="#d29915" opacity="1.00" d=" M 169.42 161.92 C 169.79 159.42 168.67 155.96 171.54 154.69 C 171.52 157.12 172.05 159.72 171.19 162.06 C 169.75 163.70 167.98 165.01 166.38 166.49 C 166.97 167.29 167.58 168.08 168.19 168.87 C 168.07 171.36 168.31 173.97 167.41 176.35 C 165.85 177.09 164.15 177.46 162.51 177.95 C 161.34 175.05 160.49 172.03 160.02 168.94 C 161.54 165.81 164.69 163.89 166.64 161.05 C 167.56 161.34 168.49 161.63 169.42 161.92 M 164.81 168.32 C 163.20 170.18 161.56 173.56 164.08 175.43 C 166.53 175.03 165.67 171.96 166.43 170.29 C 165.90 169.62 165.36 168.96 164.81 168.32 Z" />
</g>
</svg>
