<?xml version="1.0" encoding="UTF-8" ?>
<!DOCTYPE svg PUBLIC "-//W3C//DTD SVG 1.1//EN" "http://www.w3.org/Graphics/SVG/1.1/DTD/svg11.dtd">
<svg width="210pt" height="220pt" viewBox="0 0 210 220" version="1.1" xmlns="http://www.w3.org/2000/svg">
<g id="#010101ff">
<path fill="#010101" opacity="1.00" d=" M 108.63 16.81 C 111.17 15.54 112.68 13.04 114.19 10.76 C 115.13 12.39 116.31 14.19 115.35 16.10 C 113.65 21.93 110.32 27.05 107.33 32.27 C 111.57 32.69 115.83 33.02 120.01 33.89 C 122.66 34.69 125.00 36.35 127.77 36.85 C 127.29 36.94 126.32 37.14 125.84 37.23 C 125.38 38.56 125.13 40.00 124.35 41.20 C 119.37 41.77 114.29 41.44 109.40 42.75 C 112.82 45.69 116.74 47.98 120.15 50.94 C 118.99 51.51 117.84 52.08 116.68 52.66 C 116.51 55.45 116.93 58.37 115.98 61.05 C 115.53 62.80 114.24 60.19 113.97 60.00 L 112.69 59.56 C 112.99 58.72 113.59 57.04 113.90 56.20 C 114.23 55.29 114.54 54.39 114.85 53.48 C 114.30 53.52 113.20 53.62 112.66 53.67 C 112.00 55.10 111.35 56.54 110.89 58.05 C 110.53 59.14 110.22 60.24 109.91 61.35 C 111.38 62.16 112.87 62.93 114.23 63.92 C 112.31 66.07 110.19 68.21 109.28 71.01 C 107.96 74.33 108.38 77.97 108.31 81.46 C 106.25 82.21 104.13 82.77 101.96 83.12 C 102.50 82.04 103.06 80.97 103.63 79.90 C 101.17 76.82 99.82 73.14 100.77 69.15 C 101.64 70.31 102.53 71.45 103.45 72.57 C 101.48 75.08 103.84 77.01 105.58 78.63 C 105.70 76.52 105.74 74.41 105.76 72.29 C 104.97 71.55 104.18 70.80 103.41 70.04 C 104.08 68.69 104.72 67.32 105.33 65.94 C 103.95 66.71 102.56 67.43 101.18 68.17 C 102.75 64.39 104.47 60.68 106.01 56.89 C 101.71 57.99 97.18 58.93 93.53 61.61 C 91.32 63.19 90.72 66.01 89.23 68.15 C 86.34 69.46 83.15 68.91 80.15 68.44 C 80.84 69.74 81.54 71.03 82.22 72.34 C 80.43 72.48 78.64 72.62 76.85 72.76 C 78.89 76.68 81.96 79.89 85.30 82.73 C 87.91 84.91 90.05 87.72 93.11 89.33 C 93.49 89.71 94.23 90.48 94.61 90.87 C 94.53 98.71 89.11 104.82 83.94 110.09 C 81.09 112.73 79.15 116.40 75.80 118.43 C 71.69 117.52 66.61 119.66 63.20 116.68 C 67.49 116.60 71.78 116.73 76.07 116.62 C 79.80 113.43 83.27 110.00 85.78 105.75 C 89.58 101.63 92.42 96.68 93.08 91.02 C 91.58 89.52 89.95 88.14 87.68 88.08 C 88.22 89.50 88.79 90.91 89.40 92.31 C 85.79 89.45 84.48 84.80 81.08 81.75 C 78.06 81.26 75.10 79.84 71.97 80.44 C 66.02 81.58 61.39 85.84 57.10 89.83 C 57.19 89.06 57.36 87.53 57.44 86.76 C 61.13 84.44 64.62 81.75 68.53 79.82 C 71.65 79.10 74.94 79.53 77.95 80.51 C 78.60 80.04 79.24 79.57 79.88 79.10 C 77.14 76.12 74.73 72.25 70.87 70.69 C 66.76 71.69 63.02 73.87 59.73 76.49 C 58.17 79.55 56.40 82.63 56.29 86.15 C 55.17 88.90 53.84 91.57 52.92 94.39 C 51.98 98.21 52.58 102.18 52.30 106.06 C 51.42 108.09 50.58 110.13 49.70 112.15 C 50.13 112.44 50.99 113.03 51.41 113.33 C 51.05 115.41 51.05 117.53 51.49 119.60 C 51.56 120.27 51.63 120.95 51.70 121.62 C 52.09 122.28 52.49 122.95 52.88 123.62 C 55.24 128.91 59.71 133.33 65.66 134.11 C 65.68 134.46 65.70 135.15 65.71 135.49 C 64.59 136.49 63.48 137.49 62.36 138.50 C 61.09 138.48 59.81 138.47 58.54 138.46 C 59.34 142.88 59.91 147.35 60.96 151.72 C 62.68 158.58 60.67 165.99 63.43 172.62 C 66.31 177.48 72.00 180.43 77.65 179.87 C 77.68 180.34 77.75 181.29 77.78 181.77 C 71.38 184.52 64.43 185.03 57.54 184.68 C 55.59 188.05 53.21 191.13 50.49 193.91 C 47.06 195.78 45.10 199.45 41.55 201.07 C 40.27 196.81 44.10 193.28 43.47 189.03 C 42.98 185.69 41.59 182.55 41.11 179.20 C 39.66 175.82 37.18 173.00 35.77 169.59 C 34.24 165.62 31.65 162.19 30.06 158.25 C 27.84 151.73 28.52 144.74 28.66 137.98 C 28.73 132.92 30.64 128.14 30.83 123.10 C 23.95 125.79 16.00 128.64 8.90 125.03 C 12.18 122.92 16.15 121.00 17.43 117.00 C 19.80 112.91 18.10 108.22 18.89 103.84 C 20.40 95.12 22.61 86.45 22.47 77.55 C 17.34 75.41 10.56 78.91 6.73 73.94 C 14.01 73.46 20.97 68.32 22.57 61.03 C 27.78 56.33 31.71 50.34 37.15 45.87 C 40.21 43.85 43.62 42.48 46.85 40.77 C 51.31 40.82 55.79 40.88 60.25 40.59 C 61.05 37.09 61.63 33.51 62.95 30.16 C 66.13 27.47 70.40 25.73 71.85 21.46 C 72.25 21.50 73.06 21.58 73.46 21.62 C 74.50 23.49 74.76 25.60 74.83 27.71 C 78.55 25.58 82.24 23.25 86.63 22.90 C 93.54 19.39 101.79 20.49 108.63 16.81 M 106.25 62.35 C 106.84 62.41 108.00 62.52 108.58 62.58 C 108.58 61.84 108.56 60.36 108.56 59.62 C 107.77 60.52 107.02 61.44 106.25 62.35 M 75.02 69.61 C 76.17 71.01 77.66 72.14 79.59 71.39 C 79.07 68.99 76.77 69.66 75.02 69.61 Z" />
<path fill="#010101" opacity="1.00" d=" M 131.87 53.88 C 135.53 51.14 138.26 46.54 143.08 45.84 L 142.38 47.67 C 143.52 47.74 144.65 47.82 145.78 47.92 C 152.58 49.91 159.70 52.86 166.81 50.32 C 166.48 53.32 164.44 55.56 162.86 57.98 C 167.95 60.89 172.71 64.29 177.46 67.72 C 186.52 72.11 195.52 78.65 206.14 77.43 C 205.17 79.99 204.03 83.04 201.10 83.89 C 191.69 87.85 182.86 94.16 172.40 94.92 C 174.78 100.91 178.92 106.35 179.30 113.00 C 179.32 118.52 182.41 123.27 183.86 128.46 C 184.93 131.45 185.29 134.99 187.90 137.15 C 190.89 140.52 194.98 143.03 199.64 142.69 C 199.60 143.28 199.52 144.45 199.48 145.03 C 192.45 149.83 183.70 149.49 175.58 149.29 C 174.90 153.66 173.16 157.76 172.29 162.09 C 169.13 163.21 169.04 166.70 168.18 169.43 C 167.12 173.69 164.82 177.46 163.06 181.44 C 162.49 181.49 161.93 181.55 161.37 181.61 C 164.50 174.75 165.33 167.11 168.36 160.22 C 169.86 156.70 172.88 153.94 173.64 150.08 C 172.11 148.05 170.56 145.79 170.65 143.13 C 170.21 133.35 172.28 123.03 167.96 113.82 C 166.27 107.85 163.08 102.45 161.36 96.48 C 159.52 96.01 157.67 95.58 155.80 95.22 C 153.47 97.68 151.63 100.76 148.48 102.28 C 145.30 104.15 141.50 103.45 137.99 103.52 C 130.65 103.37 122.54 101.09 118.00 94.92 C 115.75 92.14 113.69 89.23 111.49 86.42 C 111.32 82.70 111.80 78.85 113.82 75.64 C 116.61 71.26 120.60 67.85 124.32 64.30 C 126.00 62.55 128.36 61.83 130.69 61.43 C 127.79 64.82 123.27 66.06 120.07 69.09 C 115.51 73.60 113.07 79.84 112.19 86.11 C 117.73 91.17 121.39 99.17 129.27 101.00 C 135.13 101.83 141.18 102.07 147.07 101.38 C 150.62 99.43 154.38 96.47 154.27 91.99 C 154.09 84.34 149.41 77.73 145.25 71.63 C 144.68 71.49 143.56 71.22 143.00 71.08 C 141.20 66.64 137.53 63.52 134.04 60.44 C 130.46 60.42 126.94 60.91 123.50 61.90 C 123.60 61.35 123.79 60.26 123.88 59.71 C 127.37 59.30 130.88 59.31 134.38 59.36 C 136.86 61.21 139.48 62.99 141.16 65.66 C 142.65 67.99 144.67 69.92 147.18 71.10 C 149.72 77.43 154.91 82.52 156.02 89.44 C 156.98 89.52 158.89 89.68 159.85 89.76 C 159.54 82.53 155.24 76.60 151.34 70.86 C 149.11 67.90 149.01 63.41 145.57 61.44 C 141.27 58.48 136.97 55.32 131.87 53.88 M 155.96 91.91 C 156.23 92.40 156.78 93.37 157.05 93.86 C 158.52 93.38 158.87 92.44 158.11 91.05 L 157.35 90.76 C 157.00 91.05 156.31 91.62 155.96 91.91 Z" />
<path fill="#010101" opacity="1.00" d=" M 133.51 70.32 C 133.97 70.34 134.88 70.39 135.34 70.41 C 135.28 72.50 135.24 74.59 135.27 76.68 C 135.82 76.68 136.90 76.69 137.44 76.69 L 137.32 77.68 C 140.69 80.27 143.55 75.95 146.96 76.72 C 145.67 77.69 144.47 78.84 142.99 79.51 C 140.52 80.54 138.47 78.35 136.31 77.50 C 135.65 77.44 134.34 77.34 133.68 77.29 C 133.61 74.97 133.55 72.64 133.51 70.32 Z" />
<path fill="#010101" opacity="1.00" d=" M 58.38 91.51 C 60.57 91.43 62.75 91.37 64.94 91.32 C 65.73 92.81 67.21 94.26 66.71 96.10 C 66.10 98.13 64.39 99.55 63.11 101.18 C 61.29 101.35 59.46 101.54 57.64 101.75 C 57.53 105.77 57.26 110.24 60.21 113.43 C 58.85 113.82 57.47 114.12 56.10 114.45 L 57.67 112.56 C 57.61 110.88 56.60 109.68 55.38 108.68 C 55.72 108.68 56.41 108.69 56.76 108.69 C 56.60 106.68 56.47 104.66 56.35 102.64 C 55.68 101.90 55.01 101.15 54.33 100.41 C 54.81 97.11 55.46 93.82 56.56 90.66 C 56.78 93.77 55.97 96.77 55.28 99.77 C 58.16 99.55 61.57 100.07 63.77 97.74 C 65.23 96.78 64.62 94.83 64.88 93.38 C 64.12 93.36 62.60 93.34 61.84 93.32 C 60.69 92.71 59.53 92.12 58.38 91.51 Z" />
<path fill="#010101" opacity="1.00" d=" M 91.22 112.05 C 92.89 105.45 99.37 102.03 105.05 99.41 C 111.61 99.01 118.23 100.72 124.37 102.88 C 120.74 104.51 116.96 101.76 113.33 101.27 C 113.24 102.84 113.25 104.40 113.37 105.97 C 114.90 106.81 116.47 107.58 117.97 108.49 C 119.99 108.82 121.20 107.42 122.24 105.89 C 123.01 107.65 122.05 109.23 121.15 110.73 C 118.57 109.78 116.00 108.79 113.35 108.08 C 113.23 110.61 113.18 113.18 112.50 115.64 C 111.11 115.30 109.39 115.26 109.04 113.50 C 108.31 113.45 106.86 113.34 106.14 113.29 C 105.85 115.86 107.14 119.56 104.46 121.23 C 101.86 122.27 98.82 121.67 96.52 120.15 C 96.81 122.57 95.98 124.61 93.71 125.62 C 93.11 125.56 91.91 125.44 91.31 125.37 C 92.92 124.34 94.52 123.29 95.97 122.04 C 95.62 121.58 94.92 120.66 94.56 120.20 L 94.50 119.87 C 93.12 119.69 91.96 119.09 91.04 118.06 C 92.66 118.24 94.26 118.59 95.85 118.95 C 98.19 120.24 101.72 121.65 103.73 119.10 C 103.99 117.06 103.87 115.00 103.84 112.95 C 101.04 111.12 100.96 107.71 101.59 104.75 C 103.08 107.50 103.42 111.28 107.12 111.97 C 108.57 112.51 110.02 113.07 111.47 113.63 C 111.53 109.57 111.49 105.52 111.50 101.46 C 108.73 101.37 105.74 100.78 103.15 102.07 C 99.57 103.70 96.73 106.49 93.59 108.79 C 93.63 110.80 93.67 112.81 93.73 114.82 C 94.90 115.35 95.77 116.20 96.35 117.35 C 94.00 116.66 92.66 114.49 90.94 112.93 C 89.81 115.37 89.00 117.94 88.47 120.57 L 87.42 120.38 C 87.70 123.84 88.06 127.39 87.05 130.79 C 85.05 138.36 85.67 146.69 81.73 153.68 C 80.32 155.15 80.48 157.08 80.47 158.96 C 79.49 161.11 77.82 162.86 76.61 164.88 C 75.76 167.22 78.26 168.09 79.65 169.32 C 80.44 168.95 81.22 168.58 82.01 168.21 L 81.31 167.21 C 84.18 165.18 86.32 161.62 90.05 161.18 C 92.26 160.92 93.45 163.07 94.82 164.39 C 95.89 164.88 96.97 165.36 98.05 165.84 C 99.47 161.83 100.57 157.14 104.46 154.75 C 106.92 152.94 110.09 153.19 112.97 153.39 C 114.17 154.52 114.70 157.77 116.87 157.04 C 118.02 153.81 118.57 150.42 119.53 147.15 C 121.07 143.48 125.59 143.21 129.01 143.51 C 130.00 145.05 131.05 146.54 132.15 148.00 C 132.14 143.15 134.76 137.47 140.18 136.96 C 137.24 134.20 134.18 131.46 132.25 127.86 C 129.12 128.92 126.05 130.32 123.80 132.82 C 123.34 134.11 122.82 135.37 122.30 136.64 C 119.72 136.97 117.12 136.84 114.84 135.48 C 112.76 134.33 111.04 136.49 110.11 138.07 C 108.14 141.54 107.20 145.79 103.60 148.04 C 106.14 143.69 106.95 138.27 110.71 134.69 C 113.53 131.84 117.37 134.61 120.37 135.56 C 122.33 133.47 123.38 130.74 125.22 128.56 C 125.91 128.49 127.29 128.36 127.99 128.29 C 128.95 127.67 129.92 127.07 130.90 126.48 C 134.55 129.62 139.23 132.09 140.47 137.17 C 141.73 137.60 142.99 138.06 144.23 138.55 C 144.62 136.97 143.94 134.78 145.52 133.72 C 147.51 133.45 149.56 133.39 151.55 133.65 C 153.65 135.46 155.56 137.55 157.10 139.85 C 152.88 139.30 151.79 132.87 146.86 134.83 C 146.88 138.92 144.82 142.68 145.45 146.78 C 149.49 146.94 154.00 147.31 157.37 144.62 C 159.10 141.23 159.93 137.50 159.59 133.70 C 157.23 125.56 153.57 117.60 147.53 111.53 C 146.02 109.89 143.59 110.33 141.60 110.12 C 142.33 111.69 143.98 112.29 145.35 113.16 C 144.25 113.51 143.11 113.41 142.03 113.08 C 136.06 110.54 130.05 107.91 124.66 104.26 C 129.67 103.46 132.15 109.38 136.93 109.57 C 139.46 110.22 141.50 107.94 144.00 108.21 C 146.33 108.14 147.65 110.44 149.34 111.68 C 151.65 113.47 153.29 115.94 153.93 118.81 C 155.86 122.30 159.16 125.11 160.43 128.96 C 160.28 134.60 161.46 140.61 158.95 145.91 C 158.02 147.76 155.58 147.18 153.93 147.71 C 150.08 149.99 145.34 147.55 141.35 149.52 C 131.77 152.14 126.00 161.27 116.77 164.58 C 114.14 165.35 112.62 168.01 109.92 168.64 C 106.62 169.50 103.39 170.77 101.11 173.43 C 92.23 172.53 82.38 173.53 74.70 168.14 C 74.72 167.82 74.75 167.18 74.77 166.86 C 76.49 162.58 78.52 158.43 80.52 154.28 C 82.64 148.30 83.53 141.92 83.87 135.65 C 87.10 129.52 85.78 122.31 87.96 115.89 C 88.41 114.16 89.94 113.15 91.22 112.05 M 136.93 138.50 C 135.52 142.00 134.25 145.68 131.91 148.69 C 129.00 149.77 129.31 143.78 126.08 145.25 C 122.30 144.96 120.61 148.67 119.41 151.57 C 119.46 153.80 119.29 156.03 119.23 158.26 C 118.93 158.45 118.33 158.85 118.03 159.05 C 118.32 159.72 118.89 161.08 119.18 161.75 C 127.67 157.49 134.00 149.42 143.47 147.03 C 143.51 145.10 143.54 143.18 143.51 141.27 C 142.65 140.34 141.82 139.40 141.02 138.43 C 139.66 138.45 138.29 138.47 136.93 138.50 M 104.07 157.03 C 101.12 160.12 100.99 164.97 98.00 167.99 C 96.91 167.43 95.88 166.77 94.85 166.12 C 93.19 164.95 91.85 163.23 89.89 162.56 C 86.39 164.41 83.63 167.35 81.04 170.29 C 85.33 170.37 89.61 170.63 93.90 170.70 C 95.23 170.64 96.01 171.90 96.95 172.61 C 98.22 172.53 99.48 172.43 100.74 172.33 C 104.83 166.23 113.74 167.71 118.03 162.04 C 115.65 159.61 113.19 157.26 111.14 154.54 C 110.26 154.55 108.51 154.57 107.64 154.58 C 106.43 155.36 105.16 156.07 104.07 157.03 Z" />
</g>
<g id="#d61b8efe">
<path fill="#d61b8e" opacity="1.00" d=" M 141.34 19.00 C 141.51 18.56 141.83 17.66 142.00 17.21 C 144.25 21.57 146.00 26.19 147.31 30.92 C 148.53 35.95 151.99 40.21 152.12 45.53 C 149.08 45.64 145.79 44.01 142.97 45.67 C 143.88 46.45 144.83 47.19 145.78 47.92 C 144.65 47.82 143.52 47.74 142.38 47.67 L 143.08 45.84 C 138.26 46.54 135.53 51.14 131.87 53.88 C 131.72 54.01 131.41 54.26 131.26 54.39 C 131.36 55.32 131.57 57.17 131.68 58.09 C 127.76 56.56 124.18 54.32 120.96 51.63 C 119.67 51.94 118.39 52.24 117.11 52.55 C 117.12 55.70 117.16 58.85 117.44 61.99 C 116.39 62.66 115.30 63.29 114.23 63.92 C 112.87 62.93 111.38 62.16 109.91 61.35 C 110.22 60.24 110.53 59.14 110.89 58.05 C 110.94 59.34 111.02 60.63 111.11 61.92 C 112.08 60.03 113.07 58.15 113.90 56.20 C 113.59 57.04 112.99 58.72 112.69 59.56 L 113.97 60.00 C 114.24 60.19 115.53 62.80 115.98 61.05 C 116.93 58.37 116.51 55.45 116.68 52.66 C 117.84 52.08 118.99 51.51 120.15 50.94 C 116.74 47.98 112.82 45.69 109.40 42.75 C 114.29 41.44 119.37 41.77 124.35 41.20 C 125.13 40.00 125.38 38.56 125.84 37.23 C 126.32 37.14 127.29 36.94 127.77 36.85 C 128.98 36.49 130.64 36.72 131.21 35.31 C 133.04 32.63 134.56 29.76 136.21 26.97 C 137.59 24.12 139.18 21.34 141.34 19.00 Z" />
<path fill="#d61b8e" opacity="1.00" d=" M 49.70 112.15 C 50.58 110.13 51.42 108.09 52.30 106.06 C 52.19 107.63 51.83 109.17 51.52 110.70 C 51.07 114.14 55.74 112.21 57.67 112.56 L 56.10 114.45 C 57.47 114.12 58.85 113.82 60.21 113.43 C 61.22 114.06 62.18 114.77 63.17 115.45 L 63.20 116.68 C 66.61 119.66 71.69 117.52 75.80 118.43 C 71.42 119.56 66.79 118.88 62.32 118.83 L 62.80 116.85 C 61.20 117.87 59.62 118.90 58.03 119.93 C 56.03 119.82 54.03 119.73 52.03 119.66 C 52.29 120.99 52.57 122.31 52.88 123.62 C 52.49 122.95 52.09 122.28 51.70 121.62 C 51.63 120.95 51.56 120.27 51.49 119.60 C 51.05 117.53 51.05 115.41 51.41 113.33 C 50.99 113.03 50.13 112.44 49.70 112.15 M 51.90 118.65 C 55.00 117.87 59.96 119.35 61.16 115.26 C 58.07 114.79 54.96 114.49 51.85 114.20 C 51.86 115.68 51.88 117.17 51.90 118.65 Z" />
</g>
<g id="#fdfdfdff">
<path fill="#fdfdfd" opacity="1.00" d=" M 117.11 52.55 C 118.39 52.24 119.67 51.94 120.96 51.63 C 124.18 54.32 127.76 56.56 131.68 58.09 C 131.57 57.17 131.36 55.32 131.26 54.39 C 131.41 54.26 131.72 54.01 131.87 53.88 C 136.97 55.32 141.27 58.48 145.57 61.44 C 149.01 63.41 149.11 67.90 151.34 70.86 C 155.24 76.60 159.54 82.53 159.85 89.76 C 158.89 89.68 156.98 89.52 156.02 89.44 C 154.91 82.52 149.72 77.43 147.18 71.10 C 144.67 69.92 142.65 67.99 141.16 65.66 C 139.48 62.99 136.86 61.21 134.38 59.36 C 130.88 59.31 127.37 59.30 123.88 59.71 C 123.79 60.26 123.60 61.35 123.50 61.90 C 126.94 60.91 130.46 60.42 134.04 60.44 C 137.53 63.52 141.20 66.64 143.00 71.08 C 143.56 71.22 144.68 71.49 145.25 71.63 C 149.41 77.73 154.09 84.34 154.27 91.99 C 154.38 96.47 150.62 99.43 147.07 101.38 C 141.18 102.07 135.13 101.83 129.27 101.00 C 121.39 99.17 117.73 91.17 112.19 86.11 C 113.07 79.84 115.51 73.60 120.07 69.09 C 123.27 66.06 127.79 64.82 130.69 61.43 C 128.36 61.83 126.00 62.55 124.32 64.30 C 120.60 67.85 116.61 71.26 113.82 75.64 C 111.80 78.85 111.32 82.70 111.49 86.42 C 113.69 89.23 115.75 92.14 118.00 94.92 C 122.54 101.09 130.65 103.37 137.99 103.52 C 141.50 103.45 145.30 104.15 148.48 102.28 C 151.63 100.76 153.47 97.68 155.80 95.22 C 157.67 95.58 159.52 96.01 161.36 96.48 C 163.08 102.45 166.27 107.85 167.96 113.82 C 172.28 123.03 170.21 133.35 170.65 143.13 C 170.56 145.79 172.11 148.05 173.64 150.08 C 172.88 153.94 169.86 156.70 168.36 160.22 C 165.33 167.11 164.50 174.75 161.37 181.61 C 161.93 181.55 162.49 181.49 163.06 181.44 C 164.72 181.29 166.37 181.34 168.02 181.59 C 163.92 182.90 161.01 186.09 157.48 188.33 C 154.65 188.54 151.68 188.02 149.02 189.30 C 148.27 189.31 146.75 189.32 146.00 189.33 C 141.81 187.50 137.00 188.33 133.01 190.28 C 126.96 191.10 121.04 189.25 115.00 189.41 C 101.18 189.41 87.36 189.45 73.55 189.40 C 70.05 186.15 65.45 184.56 60.69 185.36 C 59.35 186.12 58.00 186.87 56.73 187.74 C 54.41 189.56 53.32 192.69 50.49 193.91 C 53.21 191.13 55.59 188.05 57.54 184.68 C 64.43 185.03 71.38 184.52 77.78 181.77 C 77.75 181.29 77.68 180.34 77.65 179.87 C 72.00 180.43 66.31 177.48 63.43 172.62 C 60.67 165.99 62.68 158.58 60.96 151.72 C 59.91 147.35 59.34 142.88 58.54 138.46 C 59.81 138.47 61.09 138.48 62.36 138.50 C 63.48 137.49 64.59 136.49 65.71 135.49 C 65.70 135.15 65.68 134.46 65.66 134.11 C 59.71 133.33 55.24 128.91 52.88 123.62 C 52.57 122.31 52.29 120.99 52.03 119.66 C 54.03 119.73 56.03 119.82 58.03 119.93 C 59.62 118.90 61.20 117.87 62.80 116.85 L 62.32 118.83 C 66.79 118.88 71.42 119.56 75.80 118.43 C 79.15 116.40 81.09 112.73 83.94 110.09 C 89.11 104.82 94.53 98.71 94.61 90.87 C 94.23 90.48 93.49 89.71 93.11 89.33 C 90.05 87.72 87.91 84.91 85.30 82.73 C 81.96 79.89 78.89 76.68 76.85 72.76 C 78.64 72.62 80.43 72.48 82.22 72.34 C 81.54 71.03 80.84 69.74 80.15 68.44 C 83.15 68.91 86.34 69.46 89.23 68.15 C 90.72 66.01 91.32 63.19 93.53 61.61 C 97.18 58.93 101.71 57.99 106.01 56.89 C 104.47 60.68 102.75 64.39 101.18 68.17 C 102.56 67.43 103.95 66.71 105.33 65.94 C 104.72 67.32 104.08 68.69 103.41 70.04 C 104.18 70.80 104.97 71.55 105.76 72.29 C 105.74 74.41 105.70 76.52 105.58 78.63 C 103.84 77.01 101.48 75.08 103.45 72.57 C 102.53 71.45 101.64 70.31 100.77 69.15 C 99.82 73.14 101.17 76.82 103.63 79.90 C 103.06 80.97 102.50 82.04 101.96 83.12 C 104.13 82.77 106.25 82.21 108.31 81.46 C 108.38 77.97 107.96 74.33 109.28 71.01 C 110.19 68.21 112.31 66.07 114.23 63.92 C 115.30 63.29 116.39 62.66 117.44 61.99 C 117.16 58.85 117.12 55.70 117.11 52.55 M 133.51 70.32 C 133.55 72.64 133.61 74.97 133.68 77.29 C 134.34 77.34 135.65 77.44 136.31 77.50 C 138.47 78.35 140.52 80.54 142.99 79.51 C 144.47 78.84 145.67 77.69 146.96 76.72 C 143.55 75.95 140.69 80.27 137.32 77.68 L 137.44 76.69 C 136.90 76.69 135.82 76.68 135.27 76.68 C 135.24 74.59 135.28 72.50 135.34 70.41 C 134.88 70.39 133.97 70.34 133.51 70.32 M 91.22 112.05 C 89.94 113.15 88.41 114.16 87.96 115.89 C 85.78 122.31 87.10 129.52 83.87 135.65 C 83.53 141.92 82.64 148.30 80.52 154.28 C 78.52 158.43 76.49 162.58 74.77 166.86 C 74.75 167.18 74.72 167.82 74.70 168.14 C 82.38 173.53 92.23 172.53 101.11 173.43 C 103.39 170.77 106.62 169.50 109.92 168.64 C 112.62 168.01 114.14 165.35 116.77 164.58 C 126.00 161.27 131.77 152.14 141.35 149.52 C 145.34 147.55 150.08 149.99 153.93 147.71 C 155.58 147.18 158.02 147.76 158.95 145.91 C 161.46 140.61 160.28 134.60 160.43 128.96 C 159.16 125.11 155.86 122.30 153.93 118.81 C 153.29 115.94 151.65 113.47 149.34 111.68 C 147.65 110.44 146.33 108.14 144.00 108.21 C 141.50 107.94 139.46 110.22 136.93 109.57 C 132.15 109.38 129.67 103.46 124.66 104.26 C 130.05 107.91 136.06 110.54 142.03 113.08 C 143.11 113.41 144.25 113.51 145.35 113.16 C 143.98 112.29 142.33 111.69 141.60 110.12 C 143.59 110.33 146.02 109.89 147.53 111.53 C 153.57 117.60 157.23 125.56 159.59 133.70 C 159.93 137.50 159.10 141.23 157.37 144.62 C 154.00 147.31 149.49 146.94 145.45 146.78 C 144.82 142.68 146.88 138.92 146.86 134.83 C 151.79 132.87 152.88 139.30 157.10 139.85 C 155.56 137.55 153.65 135.46 151.55 133.65 C 149.56 133.39 147.51 133.45 145.52 133.72 C 143.94 134.78 144.62 136.97 144.23 138.55 C 142.99 138.06 141.73 137.60 140.47 137.17 C 139.23 132.09 134.55 129.62 130.90 126.48 C 129.92 127.07 128.95 127.67 127.99 128.29 C 127.29 128.36 125.91 128.49 125.22 128.56 C 123.38 130.74 122.33 133.47 120.37 135.56 C 117.37 134.61 113.53 131.84 110.71 134.69 C 106.95 138.27 106.14 143.69 103.60 148.04 C 107.20 145.79 108.14 141.54 110.11 138.07 C 111.04 136.49 112.76 134.33 114.84 135.48 C 117.12 136.84 119.72 136.97 122.30 136.64 C 122.82 135.37 123.34 134.11 123.80 132.82 C 126.05 130.32 129.12 128.92 132.25 127.86 C 134.18 131.46 137.24 134.20 140.18 136.96 C 134.76 137.47 132.14 143.15 132.15 148.00 C 131.05 146.54 130.00 145.05 129.01 143.51 C 125.59 143.21 121.07 143.48 119.53 147.15 C 118.57 150.42 118.02 153.81 116.87 157.04 C 114.70 157.77 114.17 154.52 112.97 153.39 C 110.09 153.19 106.92 152.94 104.46 154.75 C 100.57 157.14 99.47 161.83 98.05 165.84 C 96.97 165.36 95.89 164.88 94.82 164.39 C 93.45 163.07 92.26 160.92 90.05 161.18 C 86.32 161.62 84.18 165.18 81.31 167.21 L 82.01 168.21 C 81.22 168.58 80.44 168.95 79.65 169.32 C 78.26 168.09 75.76 167.22 76.61 164.88 C 77.82 162.86 79.49 161.11 80.47 158.96 C 80.48 157.08 80.32 155.15 81.73 153.68 C 85.67 146.69 85.05 138.36 87.05 130.79 C 88.06 127.39 87.70 123.84 87.42 120.38 L 88.47 120.57 C 89.00 117.94 89.81 115.37 90.94 112.93 C 92.66 114.49 94.00 116.66 96.35 117.35 C 95.77 116.20 94.90 115.35 93.73 114.82 C 93.67 112.81 93.63 110.80 93.59 108.79 C 96.73 106.49 99.57 103.70 103.15 102.07 C 105.74 100.78 108.73 101.37 111.50 101.46 C 111.49 105.52 111.53 109.57 111.47 113.63 C 110.02 113.07 108.57 112.51 107.12 111.97 C 103.42 111.28 103.08 107.50 101.59 104.75 C 100.96 107.71 101.04 111.12 103.84 112.95 C 103.87 115.00 103.99 117.06 103.73 119.10 C 101.72 121.65 98.19 120.24 95.85 118.95 C 94.26 118.59 92.66 118.24 91.04 118.06 C 91.96 119.09 93.12 119.69 94.50 119.87 L 94.56 120.20 C 94.92 120.66 95.62 121.58 95.97 122.04 C 94.52 123.29 92.92 124.34 91.31 125.37 C 91.91 125.44 93.11 125.56 93.71 125.62 C 95.98 124.61 96.81 122.57 96.52 120.15 C 98.82 121.67 101.86 122.27 104.46 121.23 C 107.14 119.56 105.85 115.86 106.14 113.29 C 106.86 113.34 108.31 113.45 109.04 113.50 C 109.39 115.26 111.11 115.30 112.50 115.64 C 113.18 113.18 113.23 110.61 113.35 108.08 C 116.00 108.79 118.57 109.78 121.15 110.73 C 122.05 109.23 123.01 107.65 122.24 105.89 C 121.20 107.42 119.99 108.82 117.97 108.49 C 116.47 107.58 114.90 106.81 113.37 105.97 C 113.25 104.40 113.24 102.84 113.33 101.27 C 116.96 101.76 120.74 104.51 124.37 102.88 C 118.23 100.72 111.61 99.01 105.05 99.41 C 99.37 102.03 92.89 105.45 91.22 112.05 Z" />
<path fill="#fdfdfd" opacity="1.00" d=" M 112.66 53.67 C 113.20 53.62 114.30 53.52 114.85 53.48 C 114.54 54.39 114.23 55.29 113.90 56.20 C 113.07 58.15 112.08 60.03 111.11 61.92 C 111.02 60.63 110.94 59.34 110.89 58.05 C 111.35 56.54 112.00 55.10 112.66 53.67 Z" />
<path fill="#fdfdfd" opacity="1.00" d=" M 106.25 62.35 C 107.02 61.44 107.77 60.52 108.56 59.62 C 108.56 60.36 108.58 61.84 108.58 62.58 C 108.00 62.52 106.84 62.41 106.25 62.35 Z" />
<path fill="#fdfdfd" opacity="1.00" d=" M 75.02 69.61 C 76.77 69.66 79.07 68.99 79.59 71.39 C 77.66 72.14 76.17 71.01 75.02 69.61 Z" />
<path fill="#fdfdfd" opacity="1.00" d=" M 59.73 76.49 C 63.02 73.87 66.76 71.69 70.87 70.69 C 74.73 72.25 77.14 76.12 79.88 79.10 C 79.24 79.57 78.60 80.04 77.95 80.51 C 74.94 79.53 71.65 79.10 68.53 79.82 C 64.62 81.75 61.13 84.44 57.44 86.76 C 57.36 87.53 57.19 89.06 57.10 89.83 C 61.39 85.84 66.02 81.58 71.97 80.44 C 75.10 79.84 78.06 81.26 81.08 81.75 C 84.48 84.80 85.79 89.45 89.40 92.31 C 88.79 90.91 88.22 89.50 87.68 88.08 C 89.95 88.14 91.58 89.52 93.08 91.02 C 92.42 96.68 89.58 101.63 85.78 105.75 C 83.27 110.00 79.80 113.43 76.07 116.62 C 71.78 116.73 67.49 116.60 63.20 116.68 L 63.17 115.45 C 62.18 114.77 61.22 114.06 60.21 113.43 C 57.26 110.24 57.53 105.77 57.64 101.75 C 59.46 101.54 61.29 101.35 63.11 101.18 C 64.39 99.55 66.10 98.13 66.71 96.10 C 67.21 94.26 65.73 92.81 64.94 91.32 C 62.75 91.37 60.57 91.43 58.38 91.51 C 59.53 92.12 60.69 92.71 61.84 93.32 C 62.60 93.34 64.12 93.36 64.88 93.38 C 64.62 94.83 65.23 96.78 63.77 97.74 C 61.57 100.07 58.16 99.55 55.28 99.77 C 55.97 96.77 56.78 93.77 56.56 90.66 C 55.46 93.82 54.81 97.11 54.33 100.41 C 55.01 101.15 55.68 101.90 56.35 102.64 C 56.47 104.66 56.60 106.68 56.76 108.69 C 56.41 108.69 55.72 108.68 55.38 108.68 C 56.60 109.68 57.61 110.88 57.67 112.56 C 55.74 112.21 51.07 114.14 51.52 110.70 C 51.83 109.17 52.19 107.63 52.30 106.06 C 52.58 102.18 51.98 98.21 52.92 94.39 C 53.84 91.57 55.17 88.90 56.29 86.15 C 56.40 82.63 58.17 79.55 59.73 76.49 Z" />
<path fill="#fdfdfd" opacity="1.00" d=" M 155.96 91.91 C 156.31 91.62 157.00 91.05 157.35 90.76 L 158.11 91.05 C 158.87 92.44 158.52 93.38 157.05 93.86 C 156.78 93.37 156.23 92.40 155.96 91.91 Z" />
<path fill="#fdfdfd" opacity="1.00" d=" M 51.90 118.65 C 51.88 117.17 51.86 115.68 51.85 114.20 C 54.96 114.49 58.07 114.79 61.16 115.26 C 59.96 119.35 55.00 117.87 51.90 118.65 Z" />
<path fill="#fdfdfd" opacity="1.00" d=" M 136.93 138.50 C 138.29 138.47 139.66 138.45 141.02 138.43 C 141.82 139.40 142.65 140.34 143.51 141.27 C 143.54 143.18 143.51 145.10 143.47 147.03 C 134.00 149.42 127.67 157.49 119.18 161.75 C 118.89 161.08 118.32 159.72 118.03 159.05 C 118.33 158.85 118.93 158.45 119.23 158.26 C 119.29 156.03 119.46 153.80 119.41 151.57 C 120.61 148.67 122.30 144.96 126.08 145.25 C 129.31 143.78 129.00 149.77 131.91 148.69 C 134.25 145.68 135.52 142.00 136.93 138.50 Z" />
<path fill="#fdfdfd" opacity="1.00" d=" M 104.07 157.03 C 105.16 156.07 106.43 155.36 107.64 154.58 C 108.51 154.57 110.26 154.55 111.14 154.54 C 113.19 157.26 115.65 159.61 118.03 162.04 C 113.74 167.71 104.83 166.23 100.74 172.33 C 99.48 172.43 98.22 172.53 96.95 172.61 C 96.01 171.90 95.23 170.64 93.90 170.70 C 89.61 170.63 85.33 170.37 81.04 170.29 C 83.63 167.35 86.39 164.41 89.89 162.56 C 91.85 163.23 93.19 164.95 94.85 166.12 C 95.88 166.77 96.91 167.43 98.00 167.99 C 100.99 164.97 101.12 160.12 104.07 157.03 Z" />
</g>
</svg>
