<?xml version="1.0" encoding="UTF-8" ?>
<!DOCTYPE svg PUBLIC "-//W3C//DTD SVG 1.1//EN" "http://www.w3.org/Graphics/SVG/1.1/DTD/svg11.dtd">
<svg width="210pt" height="220pt" viewBox="0 0 210 220" version="1.1" xmlns="http://www.w3.org/2000/svg">
<g id="#000000ff">
<path fill="#000000" opacity="1.00" d=" M 86.57 0.00 L 92.48 0.00 C 100.24 2.85 110.13 0.20 116.45 6.50 C 120.57 12.89 121.37 20.93 126.06 27.07 C 128.08 29.09 129.76 31.40 131.44 33.70 C 131.49 34.35 131.59 35.67 131.64 36.32 C 135.07 38.28 139.01 38.57 142.82 39.19 C 149.66 40.72 156.97 41.12 163.09 44.88 C 167.99 47.89 171.17 52.91 175.83 56.22 C 183.35 60.90 186.82 69.50 190.87 76.97 C 193.37 82.57 198.55 87.39 198.02 93.96 C 197.85 98.95 198.35 103.99 197.70 108.96 C 195.04 116.72 191.34 124.11 186.98 131.06 C 185.30 135.91 181.72 139.70 178.95 143.92 C 176.44 147.78 173.02 150.93 170.52 154.79 C 168.38 158.10 167.45 162.02 165.30 165.31 C 163.46 167.54 160.63 168.53 158.21 169.97 C 154.44 172.02 151.56 175.46 147.56 177.11 C 142.34 178.79 136.82 177.76 131.46 177.87 C 130.05 178.57 128.67 179.49 127.04 179.54 C 122.77 179.88 118.58 180.83 114.40 181.74 C 114.76 184.02 115.17 186.28 115.58 188.55 C 125.20 188.09 132.18 195.73 139.81 200.34 C 148.19 205.13 153.17 213.70 160.21 220.00 L 153.48 220.00 C 147.90 214.39 143.20 207.69 136.37 203.47 C 129.68 199.73 124.20 193.86 116.52 192.03 C 117.84 201.28 118.28 210.66 118.66 220.00 L 115.62 220.00 C 115.05 218.08 114.67 216.10 114.67 214.09 C 114.60 207.68 113.82 201.32 113.34 194.94 C 108.81 198.44 104.90 202.64 100.80 206.61 C 97.04 210.40 95.64 215.73 92.58 220.00 L 87.76 220.00 C 91.03 214.69 93.11 208.67 96.90 203.69 C 101.64 198.78 106.66 194.15 111.67 189.52 C 111.69 186.81 111.68 184.10 111.64 181.40 C 104.39 181.29 97.14 181.45 89.89 181.37 C 85.64 181.40 82.07 178.74 78.16 177.47 C 72.88 175.65 67.59 173.84 62.36 171.89 C 58.62 168.49 53.85 166.37 50.51 162.53 C 46.49 157.85 41.74 153.85 37.87 149.03 C 32.54 142.69 25.37 138.27 20.04 131.94 C 17.54 128.88 13.53 126.58 12.93 122.35 C 12.52 118.94 12.69 115.49 12.54 112.07 C 12.09 109.39 13.93 107.23 14.90 104.92 C 16.56 101.52 16.41 97.62 17.61 94.07 C 20.39 87.09 18.50 79.46 19.71 72.21 C 22.34 68.67 21.10 64.11 21.69 60.06 C 22.30 55.71 22.06 51.29 22.79 46.95 C 24.04 41.05 27.81 36.15 31.13 31.26 C 33.71 27.20 37.35 24.02 40.81 20.74 C 44.64 17.11 49.75 15.24 53.54 11.55 C 58.23 7.23 64.24 4.73 70.26 2.93 C 75.70 1.98 81.16 1.11 86.57 0.00 M 102.25 20.05 C 101.14 21.01 99.98 21.92 98.81 22.80 C 97.18 23.46 95.56 24.12 93.96 24.82 C 92.64 25.29 91.29 25.68 89.95 26.09 C 87.35 26.29 84.73 26.37 82.18 26.96 C 79.93 28.82 77.47 30.40 74.91 31.79 C 74.40 32.04 73.39 32.53 72.88 32.78 C 71.62 33.28 70.34 33.74 69.07 34.23 C 65.46 33.72 63.46 36.75 62.80 39.87 C 62.13 42.59 60.51 44.91 58.57 46.89 C 58.58 47.30 58.59 48.11 58.59 48.52 C 60.44 50.33 62.18 52.25 63.93 54.17 C 65.40 56.85 63.12 59.48 62.69 62.13 C 62.21 65.43 61.87 68.76 61.61 72.09 C 62.41 73.81 63.16 75.56 63.84 77.34 L 64.19 77.64 C 64.96 79.49 66.66 81.07 66.65 83.16 C 65.03 84.64 63.20 85.87 61.23 86.84 C 57.25 83.54 51.77 83.84 46.91 83.34 C 45.04 82.38 43.11 81.22 40.91 81.53 C 37.62 81.45 35.55 84.51 33.56 86.69 L 33.62 86.88 C 32.97 88.41 32.32 89.95 31.69 91.49 C 30.83 91.70 29.97 91.92 29.12 92.15 C 28.40 94.16 27.12 95.88 26.11 97.74 C 24.56 100.32 23.46 103.19 21.40 105.44 C 19.32 107.89 18.26 111.09 15.64 113.10 C 15.58 116.12 15.62 119.14 15.57 122.17 C 16.62 123.54 17.68 124.90 18.75 126.25 C 20.35 127.53 21.86 128.92 23.22 130.46 C 25.68 134.34 29.33 137.25 32.92 140.04 C 36.21 143.12 39.53 146.22 42.27 149.82 C 45.86 154.22 50.74 157.45 53.92 162.20 C 56.72 164.01 59.83 165.43 61.94 168.12 C 65.10 170.37 68.93 171.76 72.78 172.27 C 74.20 172.83 75.66 173.30 77.11 173.79 C 77.92 174.10 78.75 174.38 79.59 174.63 C 83.08 176.69 86.85 178.96 91.06 178.65 C 99.40 178.52 107.74 178.75 116.07 178.59 C 123.06 177.10 130.22 176.37 137.38 176.24 L 136.29 175.40 C 138.89 175.41 141.50 175.30 144.10 175.29 C 145.00 174.79 145.90 174.29 146.82 173.82 C 151.93 171.58 155.63 166.97 160.96 165.11 C 161.72 164.37 162.48 163.64 163.26 162.92 C 163.55 161.97 163.85 161.02 164.15 160.07 C 165.36 157.71 166.73 155.43 167.95 153.07 C 171.54 148.27 175.86 144.00 178.74 138.67 C 179.92 137.14 181.11 135.63 182.28 134.10 C 183.58 130.95 185.07 127.88 187.26 125.24 C 187.93 122.59 189.49 120.32 190.81 117.97 C 191.39 116.26 192.00 114.57 192.64 112.89 C 193.24 112.03 193.83 111.16 194.42 110.29 C 195.88 105.00 195.12 99.47 195.32 94.05 C 195.48 92.46 195.12 90.94 194.29 89.59 C 193.48 88.10 192.84 86.53 192.20 84.96 C 191.38 83.70 190.55 82.44 189.75 81.16 C 189.11 80.12 188.46 79.10 187.81 78.07 C 187.18 76.71 186.52 75.36 185.84 74.02 C 185.60 73.53 185.12 72.54 184.88 72.05 C 181.88 68.01 180.42 62.57 175.91 59.84 C 171.81 57.19 168.63 53.45 165.04 50.20 C 161.69 45.41 155.28 44.97 150.25 42.85 C 144.83 42.73 139.72 40.81 134.35 40.28 C 134.76 41.82 135.18 43.36 135.58 44.91 C 131.98 42.53 127.72 41.70 123.46 42.29 C 123.24 41.83 122.79 40.92 122.56 40.46 C 119.69 39.94 116.80 39.47 113.89 39.13 C 112.73 37.97 111.54 36.82 110.36 35.67 C 115.29 33.18 120.71 35.28 125.91 34.59 C 126.94 35.04 127.97 35.49 129.01 35.92 C 128.29 33.60 127.14 31.12 124.31 31.06 C 124.30 30.55 124.28 29.54 124.26 29.03 C 122.03 27.86 120.09 26.24 118.03 24.80 C 116.47 22.65 114.17 21.30 111.93 19.97 C 108.74 19.43 105.38 18.99 102.25 20.05 Z" />
<path fill="#000000" opacity="1.00" d=" M 96.04 41.80 C 99.28 41.01 102.64 41.21 105.93 41.47 C 105.74 42.07 105.35 43.27 105.15 43.87 C 103.55 45.39 101.61 46.49 100.00 47.99 C 97.82 50.25 96.92 53.48 94.51 55.53 C 91.30 58.31 86.99 60.02 85.10 64.09 C 84.42 66.69 81.88 65.08 80.19 64.63 C 80.25 63.69 80.39 61.81 80.46 60.87 C 82.04 58.42 83.40 55.71 85.70 53.84 C 87.76 52.06 90.36 50.68 91.45 48.04 C 92.58 45.70 93.95 43.41 96.04 41.80 Z" />
<path fill="#000000" opacity="1.00" d=" M 120.71 50.63 C 124.22 47.27 129.17 47.52 133.65 47.73 C 133.33 48.45 132.68 49.88 132.36 50.60 C 131.65 50.79 130.24 51.17 129.53 51.36 C 127.76 51.40 126.00 51.45 124.24 51.53 C 123.23 52.35 122.22 53.16 121.21 53.98 C 120.46 54.59 119.71 55.21 118.97 55.83 C 117.99 54.83 117.02 53.84 116.04 52.84 C 117.28 52.52 118.51 52.20 119.74 51.87 C 119.66 51.01 119.56 50.15 119.54 49.28 C 119.83 49.62 120.42 50.29 120.71 50.63 Z" />
<path fill="#000000" opacity="1.00" d=" M 94.77 60.85 C 97.61 60.35 100.44 59.83 103.30 59.42 C 102.58 60.47 101.81 61.49 101.01 62.48 L 99.46 62.77 L 99.50 63.21 C 98.33 63.46 97.17 63.73 96.01 64.02 C 95.32 64.75 94.64 65.50 93.96 66.25 L 92.99 66.34 L 90.74 66.54 C 91.14 65.98 91.92 64.87 92.31 64.31 C 93.13 63.16 93.98 62.03 94.77 60.85 Z" />
<path fill="#000000" opacity="1.00" d=" M 176.44 76.30 C 176.94 76.32 177.92 76.37 178.42 76.39 C 178.45 76.98 178.52 78.15 178.56 78.73 C 178.06 78.70 177.08 78.65 176.58 78.62 C 176.55 78.04 176.48 76.88 176.44 76.30 Z" />
<path fill="#000000" opacity="1.00" d=" M 135.69 82.55 C 136.17 82.14 136.65 81.73 137.13 81.32 C 138.37 82.92 139.63 84.49 140.87 86.08 C 140.16 86.83 139.44 87.59 138.73 88.34 C 138.23 91.00 137.68 93.64 136.96 96.25 C 134.48 98.63 130.69 97.37 127.76 98.97 C 125.04 99.65 122.43 100.67 119.85 101.75 C 117.78 105.75 112.76 105.24 108.94 105.45 C 107.60 104.08 106.46 102.54 105.30 101.02 C 106.57 97.81 108.50 94.94 110.79 92.37 C 111.51 92.40 112.94 92.48 113.66 92.51 C 113.55 92.05 113.34 91.12 113.23 90.66 C 118.34 90.60 122.78 87.80 127.55 86.36 C 127.81 86.61 128.31 87.10 128.56 87.34 C 128.63 87.74 128.77 88.54 128.84 88.94 C 129.54 89.86 130.29 90.75 131.06 91.62 L 129.38 91.23 L 130.38 93.16 C 133.43 91.76 137.14 90.19 136.76 86.15 C 135.15 86.54 133.54 86.96 131.95 87.45 C 131.17 87.09 129.61 86.36 128.82 86.00 C 131.29 85.25 133.79 84.37 135.69 82.55 M 123.91 90.96 C 123.53 90.92 122.78 90.83 122.41 90.78 C 117.11 92.47 112.21 95.65 108.61 99.89 C 108.92 100.24 109.54 100.96 109.86 101.32 C 112.91 99.94 116.03 98.59 118.72 96.56 C 120.28 96.79 121.66 96.25 122.83 95.26 C 125.03 94.67 128.23 95.05 129.40 92.66 C 129.36 91.27 127.97 88.66 126.33 89.63 L 126.39 88.44 C 125.56 89.28 124.74 90.12 123.91 90.96 Z" />
<path fill="#000000" opacity="1.00" d=" M 75.15 96.78 C 76.88 98.16 78.17 99.97 78.93 102.04 C 79.72 104.34 80.44 106.91 82.64 108.26 C 84.16 109.17 84.94 110.74 85.68 112.27 C 85.16 112.35 84.11 112.50 83.59 112.58 C 83.52 111.93 83.38 110.62 83.32 109.97 C 81.16 109.56 79.72 107.89 78.89 105.96 C 78.45 104.12 77.86 102.32 77.32 100.51 L 76.58 100.59 C 76.00 99.36 75.47 98.11 75.15 96.78 Z" />
<path fill="#000000" opacity="1.00" d=" M 151.55 112.50 C 152.28 113.16 152.62 113.97 152.58 114.93 C 152.58 118.24 152.68 121.56 152.46 124.87 C 151.62 127.05 150.02 128.88 148.84 130.90 C 148.06 131.80 147.27 132.71 146.49 133.61 C 140.17 133.34 133.84 133.69 127.53 133.39 L 127.38 132.92 C 125.73 132.16 124.50 130.77 124.20 128.94 C 125.77 130.04 127.20 131.33 128.79 132.40 C 134.52 132.92 140.31 132.84 146.05 132.52 C 147.04 131.02 148.15 129.61 149.29 128.21 C 150.01 126.87 150.72 125.52 151.45 124.18 C 151.49 120.29 151.32 116.39 151.55 112.50 Z" />
</g>
<g id="#fcfdfbff">
<path fill="#fcfdfb" opacity="1.00" d=" M 102.25 20.05 C 105.38 18.99 108.74 19.43 111.93 19.97 C 114.17 21.30 116.47 22.65 118.03 24.80 C 120.43 27.68 122.78 30.59 124.88 33.70 C 119.38 33.72 113.44 32.30 108.62 35.77 C 109.66 36.60 110.70 37.44 111.74 38.26 C 111.72 39.78 111.70 41.30 111.70 42.82 C 110.27 40.71 109.11 37.92 106.32 37.37 C 106.29 38.20 106.22 39.85 106.19 40.68 C 102.78 40.30 98.81 39.05 96.04 41.80 C 93.95 43.41 92.58 45.70 91.45 48.04 C 90.36 50.68 87.76 52.06 85.70 53.84 C 83.40 55.71 82.04 58.42 80.46 60.87 C 80.39 61.81 80.25 63.69 80.19 64.63 C 81.88 65.08 84.42 66.69 85.10 64.09 C 86.99 60.02 91.30 58.31 94.51 55.53 C 96.92 53.48 97.82 50.25 100.00 47.99 C 101.61 46.49 103.55 45.39 105.15 43.87 C 105.99 42.54 106.63 41.11 107.35 39.72 C 108.60 42.11 109.74 44.56 110.82 47.03 C 112.13 46.13 113.43 45.22 114.74 44.32 C 114.49 42.94 114.24 41.55 114.00 40.17 C 116.84 40.56 119.66 41.03 122.47 41.57 C 120.08 44.30 117.90 47.23 116.30 50.51 C 115.90 49.77 115.12 48.30 114.73 47.57 C 112.87 50.41 114.25 53.78 115.59 56.51 C 119.02 62.19 125.47 64.85 130.23 69.15 C 130.61 71.28 130.40 73.46 130.65 75.61 C 133.17 74.79 135.05 72.91 136.84 71.06 C 134.07 65.50 127.16 65.23 123.19 60.92 C 128.87 61.43 134.23 63.89 138.47 67.69 C 138.03 69.25 136.71 71.27 139.16 71.84 C 144.99 74.66 143.69 82.32 141.81 87.29 C 141.38 84.76 142.42 80.97 139.61 79.59 C 135.07 78.93 130.73 80.94 126.65 82.64 C 122.13 84.71 117.00 86.01 113.78 90.13 C 121.68 89.39 127.64 82.74 135.69 82.55 C 133.79 84.37 131.29 85.25 128.82 86.00 C 128.40 86.11 127.97 86.23 127.55 86.36 C 122.78 87.80 118.34 90.60 113.23 90.66 C 113.34 91.12 113.55 92.05 113.66 92.51 C 112.94 92.48 111.51 92.40 110.79 92.37 C 108.50 94.94 106.57 97.81 105.30 101.02 C 106.46 102.54 107.60 104.08 108.94 105.45 C 112.93 108.84 118.34 111.16 123.56 109.28 C 130.73 106.80 138.57 103.45 142.32 96.39 C 143.03 99.12 143.77 101.85 144.56 104.56 C 145.19 104.61 146.43 104.71 147.05 104.76 C 145.79 99.75 143.98 94.68 144.63 89.43 C 145.22 85.24 146.49 81.18 146.97 76.97 C 149.00 79.04 151.29 81.07 152.29 83.87 C 154.14 88.38 153.18 93.35 153.90 98.06 C 154.59 102.42 154.40 107.05 156.50 111.06 C 156.03 108.45 155.47 105.86 154.96 103.26 C 156.41 103.22 157.86 103.17 159.32 103.12 C 158.07 102.90 156.83 102.68 155.59 102.48 C 152.79 96.38 156.94 89.68 153.93 83.69 C 150.97 78.11 146.75 73.24 141.80 69.33 C 140.29 66.07 139.24 62.34 136.53 59.83 C 134.43 59.40 132.26 59.45 130.12 59.31 C 130.32 58.13 130.42 56.92 130.85 55.79 C 132.54 55.24 134.34 55.72 136.07 55.74 C 135.75 53.07 135.42 50.39 135.14 47.71 C 134.77 47.72 134.02 47.73 133.65 47.73 C 129.17 47.52 124.22 47.27 120.71 50.63 C 120.42 50.29 119.83 49.62 119.54 49.28 L 119.52 48.97 C 120.91 46.94 122.20 44.66 124.32 43.29 C 128.23 42.48 131.99 44.24 135.47 45.82 C 135.68 44.37 135.89 42.93 136.09 41.49 C 139.05 42.12 142.00 42.85 145.00 43.24 C 152.09 43.90 159.03 46.41 165.04 50.20 C 168.63 53.45 171.81 57.19 175.91 59.84 C 180.42 62.57 181.88 68.01 184.88 72.05 C 185.12 72.54 185.60 73.53 185.84 74.02 C 186.52 75.36 187.18 76.71 187.81 78.07 C 188.46 79.10 189.11 80.12 189.75 81.16 C 190.55 82.44 191.38 83.70 192.20 84.96 C 192.84 86.53 193.48 88.10 194.29 89.59 C 195.12 90.94 195.48 92.46 195.32 94.05 C 195.12 99.47 195.88 105.00 194.42 110.29 C 193.83 111.16 193.24 112.03 192.64 112.89 C 192.00 114.57 191.39 116.26 190.81 117.97 C 189.49 120.32 187.93 122.59 187.26 125.24 C 185.07 127.88 183.58 130.95 182.28 134.10 C 181.11 135.63 179.92 137.14 178.74 138.67 C 175.86 144.00 171.54 148.27 167.95 153.07 C 166.73 155.43 165.36 157.71 164.15 160.07 C 163.85 161.02 163.55 161.97 163.26 162.92 C 162.48 163.64 161.72 164.37 160.96 165.11 C 155.63 166.97 151.93 171.58 146.82 173.82 C 145.90 174.29 145.00 174.79 144.10 175.29 C 141.50 175.30 138.89 175.41 136.29 175.40 C 129.47 175.00 122.71 176.28 116.03 177.45 C 109.25 177.86 102.43 177.56 95.65 177.55 L 95.22 176.97 C 93.94 176.12 93.89 174.61 93.62 173.25 C 94.36 172.87 95.10 172.48 95.84 172.09 C 93.19 170.86 90.51 169.66 87.66 168.98 C 89.33 171.58 92.64 173.15 93.49 176.14 L 93.09 176.73 C 88.87 179.47 84.04 175.15 79.59 174.63 C 78.75 174.38 77.92 174.10 77.11 173.79 C 75.66 173.30 74.20 172.83 72.78 172.27 C 68.86 170.43 64.76 168.94 61.17 166.48 C 67.11 165.58 72.70 167.96 78.46 168.83 C 76.33 165.93 72.77 165.21 69.40 164.87 C 69.46 163.82 69.52 162.77 69.59 161.73 C 66.43 159.89 63.35 157.92 60.26 155.95 C 60.33 156.51 60.48 157.63 60.55 158.19 C 63.43 159.88 66.17 161.83 68.44 164.31 C 63.47 164.90 58.55 163.95 53.92 162.20 C 50.74 157.45 45.86 154.22 42.27 149.82 C 39.53 146.22 36.21 143.12 32.92 140.04 C 29.33 137.25 25.68 134.34 23.22 130.46 C 21.86 128.92 20.35 127.53 18.75 126.25 C 17.68 124.90 16.62 123.54 15.57 122.17 C 15.62 119.14 15.58 116.12 15.64 113.10 C 18.26 111.09 19.32 107.89 21.40 105.44 C 22.37 105.93 23.35 106.42 24.33 106.91 C 25.49 105.58 26.64 104.24 27.80 102.89 C 27.00 102.90 25.41 102.92 24.62 102.93 C 25.09 101.20 25.59 99.47 26.11 97.74 C 27.12 95.88 28.40 94.16 29.12 92.15 C 30.02 93.09 30.91 94.03 31.82 94.98 C 36.60 100.25 40.59 106.26 45.77 111.16 C 51.25 115.85 59.17 115.59 65.34 112.46 C 65.43 111.82 65.59 110.54 65.68 109.91 C 62.49 110.93 59.40 112.45 56.04 112.77 C 51.22 112.38 46.68 110.05 43.37 106.54 C 46.13 106.74 48.89 106.52 51.54 105.69 C 48.17 102.93 44.31 100.69 42.20 96.71 C 41.57 96.92 40.31 97.32 39.68 97.52 C 39.61 98.60 39.46 100.75 39.39 101.83 C 37.89 98.07 36.32 94.18 36.22 90.09 C 36.78 88.29 38.47 87.03 40.12 86.27 C 43.18 86.09 46.16 87.17 49.20 87.46 C 47.47 84.56 44.04 83.71 40.90 83.53 C 38.07 84.10 36.21 86.58 34.18 88.44 C 34.04 88.05 33.76 87.27 33.62 86.88 L 33.56 86.69 C 35.55 84.51 37.62 81.45 40.91 81.53 C 43.11 81.22 45.04 82.38 46.91 83.34 C 51.77 83.84 57.25 83.54 61.23 86.84 C 63.20 85.87 65.03 84.64 66.65 83.16 C 66.66 81.07 64.96 79.49 64.19 77.64 L 63.84 77.34 C 63.16 75.56 62.41 73.81 61.61 72.09 C 61.87 68.76 62.21 65.43 62.69 62.13 C 63.12 59.48 65.40 56.85 63.93 54.17 C 62.18 52.25 60.44 50.33 58.59 48.52 C 58.59 48.11 58.58 47.30 58.57 46.89 C 60.51 44.91 62.13 42.59 62.80 39.87 C 63.46 36.75 65.46 33.72 69.07 34.23 C 70.34 33.74 71.62 33.28 72.88 32.78 C 73.39 32.53 74.40 32.04 74.91 31.79 C 77.47 30.40 79.93 28.82 82.18 26.96 C 84.73 26.37 87.35 26.29 89.95 26.09 C 91.29 25.68 92.64 25.29 93.96 24.82 C 95.56 24.12 97.18 23.46 98.81 22.80 C 99.98 21.92 101.14 21.01 102.25 20.05 M 106.32 30.18 C 106.48 31.33 106.63 32.48 106.79 33.63 C 105.17 34.35 103.55 35.07 101.93 35.78 C 101.45 35.33 100.49 34.43 100.01 33.98 C 97.07 35.35 92.66 35.70 91.85 39.46 C 97.35 37.96 103.74 39.08 108.32 34.93 C 109.34 29.67 116.24 31.04 120.11 31.82 C 119.60 30.86 119.85 29.05 118.54 28.75 C 114.42 27.88 110.32 29.36 106.32 30.18 M 146.32 48.44 C 146.33 48.97 146.37 50.02 146.38 50.55 C 146.91 50.54 147.95 50.52 148.48 50.51 C 148.48 50.00 148.48 48.97 148.48 48.45 C 147.94 48.45 146.86 48.44 146.32 48.44 M 107.08 53.09 C 107.90 54.94 108.81 56.74 109.71 58.55 C 110.20 58.48 111.19 58.34 111.68 58.27 C 111.70 55.56 110.10 52.94 107.08 53.09 M 147.88 55.67 C 149.19 59.14 153.29 57.95 156.00 59.29 C 160.22 61.24 164.24 64.49 165.59 69.09 C 166.54 73.38 165.08 77.67 164.94 81.95 C 165.43 85.94 168.96 88.39 170.60 91.85 C 171.13 91.78 172.21 91.64 172.74 91.57 C 172.53 87.58 167.62 86.01 167.43 82.04 C 167.67 76.98 169.57 71.60 167.29 66.75 C 163.50 59.86 155.84 55.21 147.88 55.67 M 94.77 60.85 C 93.98 62.03 93.13 63.16 92.31 64.31 C 88.50 66.28 84.23 66.63 80.01 66.62 C 80.47 67.61 80.91 68.60 81.33 69.61 C 80.41 70.68 79.51 71.75 78.62 72.84 C 79.70 72.67 81.87 72.32 82.96 72.14 C 82.88 72.79 82.73 74.09 82.65 74.74 C 85.25 73.42 87.95 72.29 90.46 70.79 C 90.51 70.11 90.62 68.77 90.68 68.10 C 91.45 67.51 92.22 66.92 92.99 66.34 L 93.96 66.25 C 94.64 65.50 95.32 64.75 96.01 64.02 C 97.17 63.73 98.33 63.46 99.50 63.21 L 99.46 62.77 L 101.01 62.48 C 101.82 62.48 103.45 62.47 104.27 62.47 C 103.08 64.46 101.93 67.58 99.07 67.35 C 96.28 67.26 93.65 67.98 91.70 70.09 C 93.36 70.61 95.03 71.09 96.70 71.57 C 96.62 72.75 96.54 73.94 96.47 75.12 C 97.68 75.73 100.70 75.96 99.45 78.11 C 98.40 80.38 96.25 81.84 94.45 83.48 C 94.47 85.11 94.51 86.74 94.56 88.37 C 92.96 89.93 91.30 91.41 89.57 92.82 C 89.45 95.87 89.34 98.93 89.50 101.98 C 89.43 104.93 92.19 107.05 92.13 110.01 C 92.06 112.19 91.53 114.34 91.56 116.53 C 92.67 117.90 94.06 119.00 95.36 120.18 C 95.47 120.95 95.68 122.51 95.78 123.28 C 97.41 120.12 93.75 117.73 92.56 115.10 C 93.10 110.56 92.29 106.11 91.02 101.77 C 94.13 104.83 95.46 109.54 99.57 111.53 C 106.15 115.37 111.49 121.39 118.80 123.88 C 118.49 120.82 115.23 119.86 113.10 118.32 C 116.13 119.34 119.21 120.37 122.44 120.51 L 122.86 118.73 C 119.79 117.51 116.39 117.21 113.48 115.56 C 110.56 113.95 108.42 111.33 106.25 108.86 C 106.63 106.48 107.13 103.78 105.16 101.93 C 101.42 97.46 102.36 91.28 103.57 86.05 C 104.24 82.37 106.65 79.40 108.00 75.98 C 107.31 76.25 105.95 76.77 105.27 77.03 C 101.73 80.69 100.72 86.10 100.02 90.98 C 99.14 95.64 101.39 100.00 102.91 104.26 C 101.03 102.32 100.21 99.80 100.09 97.14 C 98.93 95.81 97.31 94.73 96.69 93.02 C 96.14 90.04 96.30 86.98 96.34 83.96 C 97.67 82.87 99.40 82.06 100.25 80.50 C 100.60 78.91 100.59 77.27 100.68 75.66 C 99.09 74.52 98.32 72.82 97.99 70.92 C 100.72 69.58 103.73 68.28 105.40 65.59 C 106.71 64.26 105.32 62.99 104.47 61.94 C 104.36 60.53 104.27 59.13 104.20 57.73 C 100.63 55.71 96.52 57.26 94.77 60.85 M 109.46 75.51 C 106.65 77.63 109.46 81.68 112.02 82.60 C 116.24 83.77 118.28 78.60 121.97 77.67 C 123.63 77.93 125.28 78.25 126.92 78.63 C 126.81 76.75 125.83 75.37 124.24 74.47 C 120.88 75.31 117.83 76.94 115.37 79.38 C 114.24 80.86 112.16 80.25 111.11 79.02 C 110.60 76.15 114.56 75.73 115.11 73.11 C 112.99 73.23 110.81 73.73 109.46 75.51 M 176.44 76.30 C 176.48 76.88 176.55 78.04 176.58 78.62 C 177.08 78.65 178.06 78.70 178.56 78.73 C 178.52 78.15 178.45 76.98 178.42 76.39 C 177.92 76.37 176.94 76.32 176.44 76.30 M 171.02 80.75 C 171.78 86.54 177.70 89.80 179.82 95.08 C 182.95 99.98 180.97 105.78 181.70 111.14 C 184.49 108.92 184.18 105.19 184.13 102.02 C 183.92 96.49 180.72 91.69 177.38 87.52 C 175.38 85.16 173.97 82.09 171.02 80.75 M 48.27 90.18 C 46.66 91.48 46.17 93.73 45.21 95.51 C 45.76 95.52 46.85 95.54 47.40 95.56 C 47.79 95.01 48.56 93.92 48.95 93.38 C 50.48 94.17 52.02 94.96 53.56 95.72 C 53.76 98.31 54.54 100.78 56.50 102.58 C 55.11 103.29 51.75 102.76 52.40 105.33 C 55.25 105.92 58.45 106.06 60.99 104.39 C 58.75 101.63 55.63 98.99 56.23 95.02 C 53.45 93.67 51.31 90.78 48.27 90.18 M 189.43 92.52 C 189.93 94.81 190.39 97.12 190.75 99.44 C 191.22 99.45 192.17 99.48 192.64 99.49 C 192.48 97.07 192.11 94.68 191.56 92.33 C 191.03 92.38 189.96 92.47 189.43 92.52 M 75.15 96.78 C 75.47 98.11 76.00 99.36 76.58 100.59 L 77.32 100.51 C 77.86 102.32 78.45 104.12 78.89 105.96 C 79.72 107.89 81.16 109.56 83.32 109.97 C 83.38 110.62 83.52 111.93 83.59 112.58 C 84.11 112.50 85.16 112.35 85.68 112.27 C 84.94 110.74 84.16 109.17 82.64 108.26 C 80.44 106.91 79.72 104.34 78.93 102.04 C 78.17 99.97 76.88 98.16 75.15 96.78 M 24.94 109.85 C 23.02 111.51 20.66 112.77 19.34 115.04 C 19.84 115.26 20.83 115.69 21.32 115.91 C 23.54 112.88 26.79 110.94 29.61 108.54 C 30.50 107.86 31.64 106.10 30.13 105.33 C 28.15 106.53 26.70 108.38 24.94 109.85 M 163.19 107.25 C 163.54 111.05 167.82 112.14 169.95 114.81 C 170.01 118.57 169.65 122.32 168.78 125.98 C 167.97 128.64 170.09 131.25 172.60 131.90 C 169.45 126.16 173.85 120.06 171.97 114.09 C 169.72 111.09 166.51 108.93 163.19 107.25 M 151.55 112.50 C 151.32 116.39 151.49 120.29 151.45 124.18 C 150.72 125.52 150.01 126.87 149.29 128.21 C 148.15 129.61 147.04 131.02 146.05 132.52 C 140.31 132.84 134.52 132.92 128.79 132.40 C 127.20 131.33 125.77 130.04 124.20 128.94 C 124.50 130.77 125.73 132.16 127.38 132.92 L 127.53 133.39 C 133.84 133.69 140.17 133.34 146.49 133.61 C 147.27 132.71 148.06 131.80 148.84 130.90 C 150.02 128.88 151.62 127.05 152.46 124.87 C 152.68 121.56 152.58 118.24 152.58 114.93 C 152.62 113.97 152.28 113.16 151.55 112.50 M 22.86 126.10 C 26.24 125.00 28.05 121.65 31.00 119.85 C 32.58 118.53 35.87 117.04 34.17 114.52 C 29.97 117.86 25.10 121.01 22.86 126.10 M 45.68 126.81 C 44.88 126.70 43.28 126.46 42.48 126.34 C 41.61 131.19 40.94 136.25 41.88 141.13 C 44.15 146.33 49.25 149.43 53.44 152.97 C 53.51 152.34 53.65 151.08 53.72 150.45 C 51.24 148.55 48.74 146.68 46.47 144.55 C 43.51 141.82 43.01 137.15 44.39 133.54 C 45.05 133.57 46.37 133.63 47.03 133.66 C 47.42 127.85 49.52 119.85 43.65 116.06 C 43.17 119.81 46.36 122.92 45.68 126.81 M 71.64 120.83 C 78.41 121.19 83.79 126.19 87.25 131.65 C 90.95 137.05 91.76 143.74 94.33 149.65 C 94.92 151.55 96.96 151.96 98.60 152.53 C 94.20 145.05 93.59 135.78 87.96 128.98 C 84.82 124.45 80.31 120.65 75.03 118.92 C 73.30 118.26 72.29 119.40 71.64 120.83 M 61.56 124.17 C 64.99 124.30 68.47 124.07 71.83 124.88 C 74.61 126.52 76.77 128.99 79.41 130.83 C 79.45 130.26 79.54 129.12 79.58 128.55 C 76.83 125.92 74.18 122.56 70.11 122.15 C 67.23 121.73 62.92 120.61 61.56 124.17 M 46.85 137.89 C 47.81 143.11 52.12 146.79 55.99 150.01 C 58.87 151.88 61.59 154.46 65.15 154.82 C 62.54 150.67 57.42 149.37 54.20 145.83 C 51.86 143.83 50.40 141.12 48.81 138.54 C 48.32 138.38 47.34 138.05 46.85 137.89 M 69.34 141.08 C 68.16 142.49 70.54 144.39 71.55 142.77 C 72.73 141.36 70.35 139.47 69.34 141.08 M 121.92 141.15 C 123.57 145.94 124.12 150.97 124.13 156.02 C 122.41 158.85 121.74 162.16 120.06 165.01 C 118.95 166.88 118.36 168.99 118.14 171.15 C 119.48 170.27 121.01 169.39 121.48 167.73 C 123.17 163.54 125.29 159.46 126.09 154.98 C 126.82 150.41 125.54 145.90 124.21 141.57 C 123.64 141.46 122.49 141.26 121.92 141.15 M 90.03 150.74 C 90.19 154.69 93.79 157.38 97.07 158.90 C 101.78 160.15 106.75 159.62 111.58 159.89 C 111.74 159.43 112.06 158.51 112.23 158.05 C 107.50 157.65 102.77 157.26 98.05 156.75 C 94.70 155.80 93.10 152.22 90.03 150.74 M 141.96 169.63 C 137.23 169.34 132.74 172.67 128.09 170.74 C 127.12 170.44 123.79 169.83 125.74 172.05 C 128.78 174.00 132.60 173.71 135.91 172.71 C 138.98 171.76 142.23 171.93 145.36 171.38 C 147.57 169.57 150.06 167.53 150.66 164.58 C 147.54 165.95 145.73 170.04 141.96 169.63 M 106.03 172.67 C 103.74 172.82 100.74 172.04 99.70 174.74 C 103.50 174.79 107.49 175.38 111.17 174.16 C 112.51 173.79 112.60 172.42 112.85 171.29 C 110.66 172.11 108.40 172.84 106.03 172.67 Z" />
<path fill="#fcfdfb" opacity="1.00" d=" M 121.21 53.98 C 122.22 53.16 123.23 52.35 124.24 51.53 C 126.00 51.45 127.76 51.40 129.53 51.36 C 130.14 51.59 131.38 52.06 131.99 52.29 C 128.83 54.54 124.85 54.85 121.42 56.51 C 121.36 55.88 121.26 54.61 121.21 53.98 Z" />
<path fill="#fcfdfb" opacity="1.00" d=" M 126.33 89.63 C 127.97 88.66 129.36 91.27 129.40 92.66 C 127.54 93.22 125.78 91.50 126.33 89.63 Z" />
<path fill="#fcfdfb" opacity="1.00" d=" M 122.41 90.78 C 122.78 90.83 123.53 90.92 123.91 90.96 C 124.57 91.71 126.00 93.90 124.17 94.17 C 122.52 94.10 121.97 92.11 122.41 90.78 Z" />
<path fill="#fcfdfb" opacity="1.00" d=" M 90.26 94.71 C 91.53 93.41 92.81 92.12 94.10 90.84 C 95.98 93.99 96.88 97.53 98.01 100.98 C 101.24 105.73 104.78 110.32 108.70 114.53 L 108.44 114.98 C 105.36 112.52 102.09 110.32 98.82 108.11 C 94.04 105.07 94.33 98.43 90.26 94.71 Z" />
<path fill="#fcfdfb" opacity="1.00" d=" M 117.32 94.11 C 118.58 92.30 120.45 93.22 122.14 93.70 C 121.15 96.69 119.10 95.28 117.32 94.11 Z" />
<path fill="#fcfdfb" opacity="1.00" d=" M 111.74 97.57 C 113.64 96.39 115.59 95.27 117.70 94.51 C 117.19 96.54 113.41 100.17 111.74 97.57 Z" />
<path fill="#fcfdfb" opacity="1.00" d=" M 136.96 96.25 C 137.68 95.65 139.12 94.46 139.84 93.87 C 139.03 96.15 138.59 98.90 136.45 100.39 C 131.89 103.73 126.59 106.18 121.05 107.33 C 119.11 107.86 117.16 107.27 115.34 106.62 C 121.84 104.58 129.09 103.82 134.40 99.14 C 133.84 98.89 132.70 98.39 132.13 98.14 C 130.65 98.30 129.21 98.65 127.76 98.97 C 130.69 97.37 134.48 98.63 136.96 96.25 Z" />
</g>
<g id="#898a90ff">
<path fill="#898a90" opacity="1.00" d=" M 118.03 24.80 C 120.09 26.24 122.03 27.86 124.26 29.03 C 124.28 29.54 124.30 30.55 124.31 31.06 C 127.14 31.12 128.29 33.60 129.01 35.92 C 127.97 35.49 126.94 35.04 125.91 34.59 C 120.71 35.28 115.29 33.18 110.36 35.67 C 111.54 36.82 112.73 37.97 113.89 39.13 C 116.80 39.47 119.69 39.94 122.56 40.46 C 122.79 40.92 123.24 41.83 123.46 42.29 C 127.72 41.70 131.98 42.53 135.58 44.91 C 135.18 43.36 134.76 41.82 134.35 40.28 C 139.72 40.81 144.83 42.73 150.25 42.85 C 155.28 44.97 161.69 45.41 165.04 50.20 C 159.03 46.41 152.09 43.90 145.00 43.24 C 142.00 42.85 139.05 42.12 136.09 41.49 C 135.89 42.93 135.68 44.37 135.47 45.82 C 131.99 44.24 128.23 42.48 124.32 43.29 C 122.20 44.66 120.91 46.94 119.52 48.97 L 119.54 49.28 C 119.56 50.15 119.66 51.01 119.74 51.87 C 118.51 52.20 117.28 52.52 116.04 52.84 C 117.02 53.84 117.99 54.83 118.97 55.83 C 119.71 55.21 120.46 54.59 121.21 53.98 C 121.26 54.61 121.36 55.88 121.42 56.51 C 124.85 54.85 128.83 54.54 131.99 52.29 C 131.38 52.06 130.14 51.59 129.53 51.36 C 130.24 51.17 131.65 50.79 132.36 50.60 C 132.68 49.88 133.33 48.45 133.65 47.73 C 134.02 47.73 134.77 47.72 135.14 47.71 C 135.42 50.39 135.75 53.07 136.07 55.74 C 134.34 55.72 132.54 55.24 130.85 55.79 C 130.42 56.92 130.32 58.13 130.12 59.31 C 132.26 59.45 134.43 59.40 136.53 59.83 C 139.24 62.34 140.29 66.07 141.80 69.33 C 146.75 73.24 150.97 78.11 153.93 83.69 C 156.94 89.68 152.79 96.38 155.59 102.48 C 156.83 102.68 158.07 102.90 159.32 103.12 C 157.86 103.17 156.41 103.22 154.96 103.26 C 155.47 105.86 156.03 108.45 156.50 111.06 C 154.40 107.05 154.59 102.42 153.90 98.06 C 153.18 93.35 154.14 88.38 152.29 83.87 C 151.29 81.07 149.00 79.04 146.97 76.97 C 146.49 81.18 145.22 85.24 144.63 89.43 C 143.98 94.68 145.79 99.75 147.05 104.76 C 146.43 104.71 145.19 104.61 144.56 104.56 C 143.77 101.85 143.03 99.12 142.32 96.39 C 138.57 103.45 130.73 106.80 123.56 109.28 C 118.34 111.16 112.93 108.84 108.94 105.45 C 112.76 105.24 117.78 105.75 119.85 101.75 C 122.43 100.67 125.04 99.65 127.76 98.97 C 129.21 98.65 130.65 98.30 132.13 98.14 C 132.70 98.39 133.84 98.89 134.40 99.14 C 129.09 103.82 121.84 104.58 115.34 106.62 C 117.16 107.27 119.11 107.86 121.05 107.33 C 126.59 106.18 131.89 103.73 136.45 100.39 C 138.59 98.90 139.03 96.15 139.84 93.87 C 139.12 94.46 137.68 95.65 136.96 96.25 C 137.68 93.64 138.23 91.00 138.73 88.34 C 139.44 87.59 140.16 86.83 140.87 86.08 C 139.63 84.49 138.37 82.92 137.13 81.32 C 136.65 81.73 136.17 82.14 135.69 82.55 C 127.64 82.74 121.68 89.39 113.78 90.13 C 117.00 86.01 122.13 84.71 126.65 82.64 C 130.73 80.94 135.07 78.93 139.61 79.59 C 142.42 80.97 141.38 84.76 141.81 87.29 C 143.69 82.32 144.99 74.66 139.16 71.84 C 136.71 71.27 138.03 69.25 138.47 67.69 C 134.23 63.89 128.87 61.43 123.19 60.92 C 127.16 65.23 134.07 65.50 136.84 71.06 C 135.05 72.91 133.17 74.79 130.65 75.61 C 130.40 73.46 130.61 71.28 130.23 69.15 C 125.47 64.85 119.02 62.19 115.59 56.51 C 114.25 53.78 112.87 50.41 114.73 47.57 C 115.12 48.30 115.90 49.77 116.30 50.51 C 117.90 47.23 120.08 44.30 122.47 41.57 C 119.66 41.03 116.84 40.56 114.00 40.17 C 114.24 41.55 114.49 42.94 114.74 44.32 C 113.43 45.22 112.13 46.13 110.82 47.03 C 109.74 44.56 108.60 42.11 107.35 39.72 C 106.63 41.11 105.99 42.54 105.15 43.87 C 105.35 43.27 105.74 42.07 105.93 41.47 C 102.64 41.21 99.28 41.01 96.04 41.80 C 98.81 39.05 102.78 40.30 106.19 40.68 C 106.22 39.85 106.29 38.20 106.32 37.37 C 109.11 37.92 110.27 40.71 111.70 42.82 C 111.70 41.30 111.72 39.78 111.74 38.26 C 110.70 37.44 109.66 36.60 108.62 35.77 C 113.44 32.30 119.38 33.72 124.88 33.70 C 122.78 30.59 120.43 27.68 118.03 24.80 Z" />
<path fill="#898a90" opacity="1.00" d=" M 106.32 30.18 C 110.32 29.36 114.42 27.88 118.54 28.75 C 119.85 29.05 119.60 30.86 120.11 31.82 C 116.24 31.04 109.34 29.67 108.32 34.93 C 103.74 39.08 97.35 37.96 91.85 39.46 C 92.66 35.70 97.07 35.35 100.01 33.98 C 100.49 34.43 101.45 35.33 101.93 35.78 C 103.55 35.07 105.17 34.35 106.79 33.63 C 106.63 32.48 106.48 31.33 106.32 30.18 Z" />
<path fill="#898a90" opacity="1.00" d=" M 146.32 48.44 C 146.86 48.44 147.94 48.45 148.48 48.45 C 148.48 48.97 148.48 50.00 148.48 50.51 C 147.95 50.52 146.91 50.54 146.38 50.55 C 146.37 50.02 146.33 48.97 146.32 48.44 Z" />
<path fill="#898a90" opacity="1.00" d=" M 107.08 53.09 C 110.10 52.94 111.70 55.56 111.68 58.27 C 111.19 58.34 110.20 58.48 109.71 58.55 C 108.81 56.74 107.90 54.94 107.08 53.09 Z" />
<path fill="#898a90" opacity="1.00" d=" M 147.88 55.67 C 155.84 55.21 163.50 59.86 167.29 66.75 C 169.57 71.60 167.67 76.98 167.43 82.04 C 167.62 86.01 172.53 87.58 172.74 91.57 C 172.21 91.64 171.13 91.78 170.60 91.85 C 168.96 88.39 165.43 85.94 164.94 81.95 C 165.08 77.67 166.54 73.38 165.59 69.09 C 164.24 64.49 160.22 61.24 156.00 59.29 C 153.29 57.95 149.19 59.14 147.88 55.67 Z" />
<path fill="#898a90" opacity="1.00" d=" M 94.77 60.85 C 96.52 57.26 100.63 55.71 104.20 57.73 C 104.27 59.13 104.36 60.53 104.47 61.94 C 105.32 62.99 106.71 64.26 105.40 65.59 C 103.73 68.28 100.72 69.58 97.99 70.92 C 98.32 72.82 99.09 74.52 100.68 75.66 C 100.59 77.27 100.60 78.91 100.25 80.50 C 99.40 82.06 97.67 82.87 96.34 83.96 C 96.30 86.98 96.14 90.04 96.69 93.02 C 97.31 94.73 98.93 95.81 100.09 97.14 C 100.21 99.80 101.03 102.32 102.91 104.26 C 101.39 100.00 99.14 95.64 100.02 90.98 C 100.72 86.10 101.73 80.69 105.27 77.03 C 105.95 76.77 107.31 76.25 108.00 75.98 C 106.65 79.40 104.24 82.37 103.57 86.05 C 102.36 91.28 101.42 97.46 105.16 101.93 C 107.13 103.78 106.63 106.48 106.25 108.86 C 108.42 111.33 110.56 113.95 113.48 115.56 C 116.39 117.21 119.79 117.51 122.86 118.73 L 122.44 120.51 C 119.21 120.37 116.13 119.34 113.10 118.32 C 115.23 119.86 118.49 120.82 118.80 123.88 C 111.49 121.39 106.15 115.37 99.57 111.53 C 95.46 109.54 94.13 104.83 91.02 101.77 C 92.29 106.11 93.10 110.56 92.56 115.10 C 93.75 117.73 97.41 120.12 95.78 123.28 C 95.68 122.51 95.47 120.95 95.36 120.18 C 94.06 119.00 92.67 117.90 91.56 116.53 C 91.53 114.34 92.06 112.19 92.13 110.01 C 92.19 107.05 89.43 104.93 89.50 101.98 C 89.34 98.93 89.45 95.87 89.57 92.82 C 91.30 91.41 92.96 89.93 94.56 88.37 C 94.51 86.74 94.47 85.11 94.45 83.48 C 96.25 81.84 98.40 80.38 99.45 78.11 C 100.70 75.96 97.68 75.73 96.47 75.12 C 96.54 73.94 96.62 72.75 96.70 71.57 C 95.03 71.09 93.36 70.61 91.70 70.09 C 93.65 67.98 96.28 67.26 99.07 67.35 C 101.93 67.58 103.08 64.46 104.27 62.47 C 103.45 62.47 101.82 62.48 101.01 62.48 C 101.81 61.49 102.58 60.47 103.30 59.42 C 100.44 59.83 97.61 60.35 94.77 60.85 M 90.26 94.71 C 94.33 98.43 94.04 105.07 98.82 108.11 C 102.09 110.32 105.36 112.52 108.44 114.98 L 108.70 114.53 C 104.78 110.32 101.24 105.73 98.01 100.98 C 96.88 97.53 95.98 93.99 94.10 90.84 C 92.81 92.12 91.53 93.41 90.26 94.71 Z" />
<path fill="#898a90" opacity="1.00" d=" M 80.01 66.62 C 84.23 66.63 88.50 66.28 92.31 64.31 C 91.92 64.87 91.14 65.98 90.74 66.54 L 92.99 66.34 C 92.22 66.92 91.45 67.51 90.68 68.10 C 90.62 68.77 90.51 70.11 90.46 70.79 C 87.95 72.29 85.25 73.42 82.65 74.74 C 82.73 74.09 82.88 72.79 82.96 72.14 C 81.87 72.32 79.70 72.67 78.62 72.84 C 79.51 71.75 80.41 70.68 81.33 69.61 C 80.91 68.60 80.47 67.61 80.01 66.62 Z" />
<path fill="#898a90" opacity="1.00" d=" M 109.46 75.51 C 110.81 73.73 112.99 73.23 115.11 73.11 C 114.56 75.73 110.60 76.15 111.11 79.02 C 112.16 80.25 114.24 80.86 115.37 79.38 C 117.83 76.94 120.88 75.31 124.24 74.47 C 125.83 75.37 126.81 76.75 126.92 78.63 C 125.28 78.25 123.63 77.93 121.97 77.67 C 118.28 78.60 116.24 83.77 112.02 82.60 C 109.46 81.68 106.65 77.63 109.46 75.51 Z" />
<path fill="#898a90" opacity="1.00" d=" M 171.02 80.75 C 173.97 82.09 175.38 85.16 177.38 87.52 C 180.72 91.69 183.92 96.49 184.13 102.02 C 184.18 105.19 184.49 108.92 181.70 111.14 C 180.97 105.78 182.95 99.98 179.82 95.08 C 177.70 89.80 171.78 86.54 171.02 80.75 Z" />
<path fill="#898a90" opacity="1.00" d=" M 34.18 88.44 C 36.21 86.58 38.07 84.10 40.90 83.53 C 44.04 83.71 47.47 84.56 49.20 87.46 C 46.16 87.17 43.18 86.09 40.12 86.27 C 38.47 87.03 36.78 88.29 36.22 90.09 C 36.32 94.18 37.89 98.07 39.39 101.83 C 39.46 100.75 39.61 98.60 39.68 97.52 C 40.31 97.32 41.57 96.92 42.20 96.71 C 44.31 100.69 48.17 102.93 51.54 105.69 C 48.89 106.52 46.13 106.74 43.37 106.54 C 46.68 110.05 51.22 112.38 56.04 112.77 C 59.40 112.45 62.49 110.93 65.68 109.91 C 65.59 110.54 65.43 111.82 65.34 112.46 C 59.17 115.59 51.25 115.85 45.77 111.16 C 40.59 106.26 36.60 100.25 31.82 94.98 C 30.91 94.03 30.02 93.09 29.12 92.15 C 29.97 91.92 30.83 91.70 31.69 91.49 C 32.32 89.95 32.97 88.41 33.62 86.88 C 33.76 87.27 34.04 88.05 34.18 88.44 Z" />
<path fill="#898a90" opacity="1.00" d=" M 127.55 86.36 C 127.97 86.23 128.40 86.11 128.82 86.00 C 129.61 86.36 131.17 87.09 131.95 87.45 C 133.54 86.96 135.15 86.54 136.76 86.15 C 137.14 90.19 133.43 91.76 130.38 93.16 L 129.38 91.23 L 131.06 91.62 C 130.29 90.75 129.54 89.86 128.84 88.94 C 128.77 88.54 128.63 87.74 128.56 87.34 C 128.31 87.10 127.81 86.61 127.55 86.36 Z" />
<path fill="#898a90" opacity="1.00" d=" M 123.91 90.96 C 124.74 90.12 125.56 89.28 126.39 88.44 L 126.33 89.63 C 125.78 91.50 127.54 93.22 129.40 92.66 C 128.23 95.05 125.03 94.67 122.83 95.26 C 121.66 96.25 120.28 96.79 118.72 96.56 C 116.03 98.59 112.91 99.94 109.86 101.32 C 109.54 100.96 108.92 100.24 108.61 99.89 C 112.21 95.65 117.11 92.47 122.41 90.78 C 121.97 92.11 122.52 94.10 124.17 94.17 C 126.00 93.90 124.57 91.71 123.91 90.96 M 117.32 94.11 C 119.10 95.28 121.15 96.69 122.14 93.70 C 120.45 93.22 118.58 92.30 117.32 94.11 M 111.74 97.57 C 113.41 100.17 117.19 96.54 117.70 94.51 C 115.59 95.27 113.64 96.39 111.74 97.57 Z" />
<path fill="#898a90" opacity="1.00" d=" M 48.27 90.18 C 51.31 90.78 53.45 93.67 56.23 95.02 C 55.63 98.99 58.75 101.63 60.99 104.39 C 58.45 106.06 55.25 105.92 52.40 105.33 C 51.75 102.76 55.11 103.29 56.50 102.58 C 54.54 100.78 53.76 98.31 53.56 95.72 C 52.02 94.96 50.48 94.17 48.95 93.38 C 48.56 93.92 47.79 95.01 47.40 95.56 C 46.85 95.54 45.76 95.52 45.21 95.51 C 46.17 93.73 46.66 91.48 48.27 90.18 Z" />
<path fill="#898a90" opacity="1.00" d=" M 189.43 92.52 C 189.96 92.47 191.03 92.38 191.56 92.33 C 192.11 94.68 192.48 97.07 192.64 99.49 C 192.17 99.48 191.22 99.45 190.75 99.44 C 190.39 97.12 189.93 94.81 189.43 92.52 Z" />
<path fill="#898a90" opacity="1.00" d=" M 21.40 105.44 C 23.46 103.19 24.56 100.32 26.11 97.74 C 25.59 99.47 25.09 101.20 24.62 102.93 C 25.41 102.92 27.00 102.90 27.80 102.89 C 26.64 104.24 25.49 105.58 24.33 106.91 C 23.35 106.42 22.37 105.93 21.40 105.44 Z" />
<path fill="#898a90" opacity="1.00" d=" M 24.94 109.85 C 26.70 108.38 28.15 106.53 30.13 105.33 C 31.64 106.10 30.50 107.86 29.61 108.54 C 26.79 110.94 23.54 112.88 21.32 115.91 C 20.83 115.69 19.84 115.26 19.34 115.04 C 20.66 112.77 23.02 111.51 24.94 109.85 Z" />
<path fill="#898a90" opacity="1.00" d=" M 163.19 107.25 C 166.51 108.93 169.72 111.09 171.97 114.09 C 173.85 120.06 169.45 126.16 172.60 131.90 C 170.09 131.25 167.97 128.64 168.78 125.98 C 169.65 122.32 170.01 118.57 169.95 114.81 C 167.82 112.14 163.54 111.05 163.19 107.25 Z" />
<path fill="#898a90" opacity="1.00" d=" M 22.86 126.10 C 25.10 121.01 29.97 117.86 34.17 114.52 C 35.87 117.04 32.58 118.53 31.00 119.85 C 28.05 121.65 26.24 125.00 22.86 126.10 Z" />
<path fill="#898a90" opacity="1.00" d=" M 45.68 126.81 C 46.36 122.92 43.17 119.81 43.65 116.06 C 49.52 119.85 47.42 127.85 47.03 133.66 C 46.37 133.63 45.05 133.57 44.39 133.54 C 43.01 137.15 43.51 141.82 46.47 144.55 C 48.74 146.68 51.24 148.55 53.72 150.45 C 53.65 151.08 53.51 152.34 53.44 152.97 C 49.25 149.43 44.15 146.33 41.88 141.13 C 40.94 136.25 41.61 131.19 42.48 126.34 C 43.28 126.46 44.88 126.70 45.68 126.81 Z" />
<path fill="#898a90" opacity="1.00" d=" M 71.64 120.83 C 72.29 119.40 73.30 118.26 75.03 118.92 C 80.31 120.65 84.82 124.45 87.96 128.98 C 93.59 135.78 94.20 145.05 98.60 152.53 C 96.96 151.96 94.92 151.55 94.33 149.65 C 91.76 143.74 90.95 137.05 87.25 131.65 C 83.79 126.19 78.41 121.19 71.64 120.83 Z" />
<path fill="#898a90" opacity="1.00" d=" M 61.56 124.17 C 62.92 120.61 67.23 121.73 70.11 122.15 C 74.18 122.56 76.83 125.92 79.58 128.55 C 79.54 129.12 79.45 130.26 79.41 130.83 C 76.77 128.99 74.61 126.52 71.83 124.88 C 68.47 124.07 64.99 124.30 61.56 124.17 Z" />
<path fill="#898a90" opacity="1.00" d=" M 46.85 137.89 C 47.34 138.05 48.32 138.38 48.81 138.54 C 50.40 141.12 51.86 143.83 54.20 145.83 C 57.42 149.37 62.54 150.67 65.15 154.82 C 61.59 154.46 58.87 151.88 55.99 150.01 C 52.12 146.79 47.81 143.11 46.85 137.89 Z" />
<path fill="#898a90" opacity="1.00" d=" M 69.34 141.08 C 70.35 139.47 72.73 141.36 71.55 142.77 C 70.54 144.39 68.16 142.49 69.34 141.08 Z" />
<path fill="#898a90" opacity="1.00" d=" M 121.92 141.15 C 122.49 141.26 123.64 141.46 124.21 141.57 C 125.54 145.90 126.82 150.41 126.09 154.98 C 125.29 159.46 123.17 163.54 121.48 167.73 C 121.01 169.39 119.48 170.27 118.14 171.15 C 118.36 168.99 118.95 166.88 120.06 165.01 C 121.74 162.16 122.41 158.85 124.13 156.02 C 124.12 150.97 123.57 145.94 121.92 141.15 Z" />
<path fill="#898a90" opacity="1.00" d=" M 90.03 150.74 C 93.10 152.22 94.70 155.80 98.05 156.75 C 102.77 157.26 107.50 157.65 112.23 158.05 C 112.06 158.51 111.74 159.43 111.58 159.89 C 106.75 159.62 101.78 160.15 97.07 158.90 C 93.79 157.38 90.19 154.69 90.03 150.74 Z" />
<path fill="#898a90" opacity="1.00" d=" M 60.26 155.95 C 63.35 157.92 66.43 159.89 69.59 161.73 C 69.52 162.77 69.46 163.82 69.40 164.87 C 72.77 165.21 76.33 165.93 78.46 168.83 C 72.70 167.96 67.11 165.58 61.17 166.48 C 64.76 168.94 68.86 170.43 72.78 172.27 C 68.93 171.76 65.10 170.37 61.94 168.12 C 59.83 165.43 56.72 164.01 53.92 162.20 C 58.55 163.95 63.47 164.90 68.44 164.31 C 66.17 161.83 63.43 159.88 60.55 158.19 C 60.48 157.63 60.33 156.51 60.26 155.95 Z" />
<path fill="#898a90" opacity="1.00" d=" M 141.96 169.63 C 145.73 170.04 147.54 165.95 150.66 164.58 C 150.06 167.53 147.57 169.57 145.36 171.38 C 142.23 171.93 138.98 171.76 135.91 172.71 C 132.60 173.71 128.78 174.00 125.74 172.05 C 123.79 169.83 127.12 170.44 128.09 170.74 C 132.74 172.67 137.23 169.34 141.96 169.63 Z" />
<path fill="#898a90" opacity="1.00" d=" M 87.66 168.98 C 90.51 169.66 93.19 170.86 95.84 172.09 C 95.10 172.48 94.36 172.87 93.62 173.25 C 93.89 174.61 93.94 176.12 95.22 176.97 L 95.65 177.55 C 102.43 177.56 109.25 177.86 116.03 177.45 C 122.71 176.28 129.47 175.00 136.29 175.40 L 137.38 176.24 C 130.22 176.37 123.06 177.10 116.07 178.59 C 107.74 178.75 99.40 178.52 91.06 178.65 C 86.85 178.96 83.08 176.69 79.59 174.63 C 84.04 175.15 88.87 179.47 93.09 176.73 L 93.49 176.14 C 92.64 173.15 89.33 171.58 87.66 168.98 Z" />
<path fill="#898a90" opacity="1.00" d=" M 106.03 172.67 C 108.40 172.84 110.66 172.11 112.85 171.29 C 112.60 172.42 112.51 173.79 111.17 174.16 C 107.49 175.38 103.50 174.79 99.70 174.74 C 100.74 172.04 103.74 172.82 106.03 172.67 Z" />
</g>
</svg>
