<?xml version="1.0" encoding="UTF-8" ?>
<!DOCTYPE svg PUBLIC "-//W3C//DTD SVG 1.1//EN" "http://www.w3.org/Graphics/SVG/1.1/DTD/svg11.dtd">
<svg width="210pt" height="220pt" viewBox="0 0 210 220" version="1.1" xmlns="http://www.w3.org/2000/svg">
<g id="#fefefeff">
<path fill="#fefefe" opacity="1.00" d=" M 8.02 23.69 C 9.34 23.63 10.66 23.52 11.98 23.51 C 13.53 25.07 10.57 27.37 12.82 28.81 C 13.36 28.39 14.44 27.55 14.98 27.13 C 14.16 27.98 13.32 28.82 12.49 29.66 C 10.75 29.07 9.87 29.70 9.84 31.53 C 10.32 31.56 11.29 31.61 11.77 31.63 C 11.76 31.85 11.75 32.28 11.74 32.50 L 10.30 32.25 C 10.36 34.00 10.41 35.76 10.46 37.51 C 8.93 37.57 7.41 37.57 5.88 37.44 C 5.98 34.25 5.87 31.05 5.58 27.87 C 5.62 26.14 7.18 25.04 8.02 23.69 M 6.89 26.28 L 6.24 26.53 C 6.50 29.97 6.57 33.43 6.37 36.88 C 7.42 36.90 8.46 36.92 9.50 36.93 C 9.26 33.63 9.09 30.18 10.75 27.18 L 8.77 27.22 C 9.93 26.91 10.62 26.22 10.83 25.15 C 9.13 23.98 7.63 24.21 6.89 26.28 Z" />
<path fill="#fefefe" opacity="1.00" d=" M 115.59 23.54 C 116.85 23.60 118.11 23.67 119.37 23.75 C 119.61 26.12 119.56 28.51 119.57 30.90 C 120.81 29.37 122.18 27.92 123.88 26.89 C 121.78 28.89 120.17 31.26 120.30 34.30 C 121.54 34.86 122.47 35.85 123.31 36.89 C 122.18 36.26 121.06 35.60 119.95 34.93 L 119.55 37.68 C 119.29 33.15 118.82 28.64 118.67 24.11 C 118.13 24.19 117.03 24.35 116.48 24.43 C 116.53 28.52 116.45 32.61 116.63 36.69 C 116.13 36.69 115.13 36.70 114.63 36.70 C 116.45 32.73 115.13 27.88 115.59 23.54 Z" />
<path fill="#fefefe" opacity="1.00" d=" M 105.08 29.00 C 106.31 28.40 107.50 27.72 108.71 27.10 C 108.02 27.88 107.12 28.62 106.99 29.73 C 108.25 29.91 109.49 29.51 110.71 29.29 L 110.69 29.74 C 109.46 29.83 108.21 30.67 108.16 31.99 C 106.91 34.16 103.65 34.50 102.15 32.43 C 103.76 32.38 105.51 32.88 107.00 32.05 C 108.15 30.75 105.89 29.72 105.08 29.00 Z" />
<path fill="#fefefe" opacity="1.00" d=" M 22.89 29.40 C 23.01 28.82 23.25 27.66 23.37 27.08 C 23.56 30.11 23.49 33.16 23.93 36.17 C 24.20 36.36 24.75 36.74 25.02 36.93 C 27.25 35.47 25.99 31.89 26.39 29.55 C 27.11 29.24 28.55 28.64 29.27 28.34 C 29.59 28.24 30.24 28.03 30.57 27.93 C 30.19 31.09 29.82 34.46 31.59 37.29 C 30.91 36.35 30.22 35.42 29.51 34.51 C 29.52 32.79 29.52 31.07 29.47 29.35 C 24.90 29.02 26.83 34.72 26.69 37.56 C 25.60 37.61 24.51 37.65 23.42 37.68 C 23.40 36.97 23.37 35.54 23.35 34.82 C 23.32 33.21 23.28 31.59 23.15 29.98 L 22.89 29.40 Z" />
<path fill="#fefefe" opacity="1.00" d=" M 15.65 29.65 C 16.60 29.28 17.59 29.05 18.61 28.97 C 17.81 29.24 16.21 29.77 15.41 30.03 C 15.92 31.63 14.35 35.12 17.17 34.91 C 19.79 33.99 18.56 30.96 18.61 28.97 C 19.07 30.44 19.36 31.95 19.58 33.47 C 18.70 34.10 18.08 35.26 16.99 35.51 C 14.35 35.16 13.50 31.11 15.65 29.65 Z" />
<path fill="#fefefe" opacity="1.00" d=" M 32.54 29.42 C 33.53 29.35 34.51 29.28 35.50 29.21 C 35.54 29.75 35.62 30.83 35.66 31.37 C 34.61 31.35 33.56 31.33 32.50 31.32 C 32.51 30.84 32.53 29.89 32.54 29.42 Z" />
<path fill="#fefefe" opacity="1.00" d=" M 52.51 31.21 C 52.48 29.39 54.28 29.21 55.71 29.06 C 55.72 29.65 55.73 30.83 55.74 31.42 C 54.67 31.35 53.59 31.28 52.51 31.21 Z" />
<path fill="#fefefe" opacity="1.00" d=" M 146.00 29.55 C 146.98 28.35 149.71 29.40 148.65 31.01 C 147.74 32.28 144.70 31.11 146.00 29.55 Z" />
<path fill="#fefefe" opacity="1.00" d=" M 84.54 32.72 C 88.95 33.12 93.10 31.05 97.56 31.60 C 100.28 34.91 104.48 36.49 107.12 39.88 C 109.70 42.68 109.69 46.87 112.16 49.75 C 114.10 52.12 115.97 54.55 117.82 56.99 C 117.69 58.68 117.07 60.25 116.44 61.80 C 117.72 61.47 118.93 60.98 120.07 60.30 C 121.38 60.51 122.69 60.76 123.99 61.05 C 127.29 61.56 130.51 62.45 133.86 62.58 C 136.93 63.57 139.95 64.78 142.97 65.93 C 147.62 69.29 151.10 74.07 156.05 77.05 C 160.95 84.72 165.19 92.78 169.48 100.79 C 168.90 106.70 171.00 113.27 167.40 118.50 C 164.36 126.03 160.50 133.25 155.84 139.90 C 152.86 144.83 148.34 148.73 146.00 154.06 C 145.01 155.97 144.67 158.48 142.53 159.52 C 137.98 161.59 134.68 165.70 129.95 167.44 C 125.74 167.78 121.56 168.54 117.31 168.44 C 112.45 168.08 107.80 170.01 102.94 169.75 C 97.04 169.62 91.13 169.78 85.22 169.68 C 82.69 169.21 80.38 167.96 77.94 167.16 C 73.38 164.70 67.22 164.70 63.77 160.54 C 68.62 160.11 73.20 161.54 77.82 162.69 C 76.75 160.03 73.38 160.08 71.07 159.17 C 70.35 155.17 65.76 154.11 62.70 152.35 C 64.78 154.93 67.63 156.70 69.96 159.03 C 67.48 159.20 64.99 159.34 62.50 159.33 C 61.20 158.81 59.97 158.13 58.74 157.46 C 56.23 153.66 52.46 150.96 49.53 147.51 C 46.81 144.21 43.85 141.09 40.50 138.42 C 36.85 135.45 34.13 131.58 30.71 128.40 C 27.88 125.90 28.42 121.93 28.76 118.58 C 31.53 110.69 33.87 102.46 33.71 94.03 C 33.65 92.15 33.85 90.25 35.19 88.78 C 35.57 91.05 35.71 93.36 35.71 95.66 C 37.49 96.73 39.93 97.14 41.09 98.99 C 40.56 101.19 37.80 98.49 36.31 98.39 C 36.27 98.85 36.20 99.77 36.16 100.23 C 36.84 100.33 38.20 100.54 38.88 100.65 C 39.83 102.10 40.77 103.56 41.72 105.02 C 42.22 103.43 42.67 101.81 43.32 100.27 C 43.66 99.95 44.35 99.30 44.69 98.98 C 43.69 97.75 42.51 96.69 41.23 95.76 C 38.29 93.78 37.53 89.94 34.74 87.77 C 36.08 81.13 35.75 74.30 37.05 67.66 C 37.44 65.99 38.26 64.48 39.03 62.97 C 39.37 57.99 43.21 54.74 45.97 50.98 C 49.94 47.37 53.73 42.98 59.11 41.55 C 67.19 37.53 76.12 35.87 84.54 32.72 M 82.15 44.70 C 82.62 46.21 83.24 47.67 84.17 48.97 C 83.76 50.26 82.56 50.76 81.35 51.00 C 81.20 50.32 80.90 48.95 80.75 48.27 C 76.90 51.03 72.19 48.85 67.91 49.22 C 66.81 49.08 66.13 49.56 65.86 50.66 C 70.03 50.50 73.95 51.90 77.96 52.78 C 84.15 52.77 88.81 47.79 92.22 43.16 C 88.56 42.84 87.53 47.55 84.73 49.19 C 84.58 47.78 84.42 46.37 84.25 44.96 C 86.00 43.28 89.04 42.64 89.91 40.25 L 88.89 39.76 C 86.37 41.01 84.34 42.98 82.15 44.70 M 105.43 43.23 C 105.57 43.65 105.86 44.49 106.00 44.91 C 106.76 45.96 107.88 46.58 109.09 46.97 C 108.63 45.09 107.04 44.06 105.43 43.23 M 62.78 49.11 C 66.08 47.92 69.39 46.24 73.01 46.82 C 75.36 46.67 79.42 48.40 80.13 45.04 C 75.80 45.51 71.44 45.15 67.12 45.51 C 65.34 46.17 63.34 47.12 62.78 49.11 M 90.55 57.18 C 90.50 58.22 90.70 60.71 92.11 59.15 C 92.44 56.25 92.85 53.09 95.51 51.32 C 96.98 49.58 100.16 50.70 101.08 48.40 C 95.54 46.73 91.24 52.28 90.55 57.18 M 96.41 52.54 C 93.75 53.79 94.28 56.89 94.28 59.29 C 96.19 59.66 96.92 61.54 97.88 62.98 C 97.27 63.86 96.66 64.73 96.06 65.62 C 98.73 66.73 101.64 66.51 104.46 66.55 C 104.69 65.62 104.94 64.69 105.18 63.77 C 105.19 64.54 105.21 66.07 105.21 66.84 C 107.12 66.26 108.97 65.09 111.04 65.29 C 117.38 66.05 123.76 65.34 130.12 65.37 C 126.67 62.85 122.06 64.04 118.08 63.83 C 114.68 63.61 110.75 66.19 107.77 63.81 C 105.40 61.97 106.80 59.45 107.89 57.34 C 109.31 56.93 109.71 55.70 109.91 54.39 C 108.29 54.50 106.66 54.58 105.03 54.49 C 104.79 54.00 104.30 53.02 104.06 52.53 C 101.53 52.48 98.88 51.83 96.41 52.54 M 50.32 53.13 C 51.05 55.61 52.64 57.77 52.75 60.44 C 52.37 60.66 51.60 61.09 51.21 61.31 C 51.73 61.31 52.77 61.32 53.29 61.33 C 53.87 59.94 54.23 58.48 54.21 56.96 C 52.89 55.71 51.64 54.38 50.32 53.13 M 58.20 57.31 C 60.13 58.04 61.71 56.98 62.09 55.06 C 60.45 55.17 58.86 55.58 58.20 57.31 M 66.84 55.93 C 66.17 56.23 64.84 56.82 64.17 57.11 C 64.68 57.26 65.71 57.56 66.22 57.71 C 65.29 59.01 63.94 59.89 62.66 60.80 C 62.23 63.63 61.20 66.54 62.63 69.26 C 64.80 68.91 64.77 70.50 64.55 72.11 C 63.48 71.37 62.41 70.63 61.34 69.89 C 61.44 70.53 61.63 71.82 61.72 72.46 C 62.58 72.48 63.45 72.50 64.31 72.52 C 64.84 72.11 65.89 71.28 66.41 70.87 C 66.47 67.72 66.60 64.61 65.11 61.75 C 65.63 61.45 66.67 60.84 67.19 60.53 C 68.62 61.35 70.08 62.13 71.56 62.89 C 71.54 64.36 71.48 65.82 71.41 67.29 C 70.18 66.99 66.10 66.41 67.36 68.95 C 67.28 69.38 67.11 70.23 67.03 70.66 L 67.19 69.79 C 67.07 72.01 66.03 73.38 64.06 73.90 C 64.67 74.66 65.88 76.17 66.48 76.93 C 63.72 77.30 61.35 76.17 59.44 74.30 C 58.93 76.39 60.78 77.83 61.76 79.43 C 62.88 79.47 64.00 79.51 65.12 79.56 C 64.73 81.06 64.33 82.57 63.97 84.08 C 62.70 87.33 65.40 90.25 66.19 93.29 C 65.61 93.38 64.47 93.56 63.90 93.64 C 66.45 95.77 68.13 99.15 71.46 100.16 C 70.04 96.99 68.16 94.04 66.79 90.84 C 69.68 92.70 72.73 94.47 76.19 94.97 C 75.78 94.00 75.09 93.33 74.12 92.97 C 70.91 91.47 67.91 89.38 65.83 86.48 L 68.11 86.58 L 68.75 87.44 C 71.34 88.56 74.22 88.06 76.95 88.40 C 80.23 88.78 83.54 88.78 86.81 88.34 C 86.69 89.02 86.44 90.39 86.31 91.07 C 87.17 90.43 88.03 89.79 88.88 89.14 C 89.03 90.17 89.33 92.23 89.48 93.26 C 90.74 92.35 90.72 90.70 91.11 89.36 C 92.58 89.49 93.96 89.99 95.31 90.57 C 98.64 89.47 102.60 88.54 105.09 91.82 C 105.54 91.65 106.42 91.32 106.87 91.15 C 107.62 91.46 110.36 91.89 108.86 90.17 C 108.15 89.25 107.39 88.36 106.57 87.53 C 107.38 87.46 109.02 87.34 109.83 87.27 C 110.47 88.85 110.81 91.14 113.05 90.94 C 112.37 89.44 111.36 88.12 110.45 86.77 C 113.20 85.87 117.04 86.75 118.86 83.98 C 124.61 79.86 128.06 73.54 132.84 68.49 C 134.54 67.75 135.38 69.86 136.50 70.69 C 137.30 73.06 138.21 75.62 137.37 78.12 C 136.80 79.81 136.38 81.56 136.59 83.36 C 137.52 81.72 137.26 79.71 138.13 78.04 C 138.26 76.22 138.30 74.40 138.37 72.58 L 137.61 72.54 C 137.28 69.48 134.62 67.09 131.86 66.08 C 131.58 65.81 131.01 65.27 130.72 65.00 C 130.59 65.55 130.32 66.66 130.18 67.21 C 126.12 68.13 122.03 66.84 117.95 67.14 C 110.52 67.11 103.34 69.55 95.88 68.69 C 94.17 67.50 92.72 65.15 90.40 65.38 C 88.80 67.20 91.84 68.21 92.38 69.80 C 91.46 69.77 89.63 69.72 88.72 69.70 C 88.16 71.38 89.73 72.57 90.34 73.95 C 88.92 77.47 91.86 80.55 93.30 83.52 C 92.98 83.63 92.32 83.86 91.99 83.97 C 88.82 84.01 85.06 82.23 82.39 84.53 L 81.42 84.52 C 81.29 84.15 81.04 83.41 80.91 83.04 C 80.80 83.44 80.59 84.23 80.48 84.63 C 79.50 84.54 77.54 84.37 76.56 84.28 C 76.48 83.79 76.34 82.81 76.26 82.32 C 74.92 83.73 73.02 83.51 71.25 83.48 C 70.66 83.28 69.49 82.89 68.91 82.69 C 72.36 79.81 76.48 77.90 79.93 75.04 C 82.67 75.97 85.60 75.84 88.38 75.17 C 87.29 73.76 87.08 71.05 85.15 70.64 C 83.92 71.67 83.10 73.10 81.92 74.19 C 82.17 71.47 83.74 69.13 84.29 66.48 C 82.72 67.37 81.37 68.57 80.10 69.85 C 79.84 71.18 79.92 72.76 78.65 73.61 C 74.99 76.72 71.05 79.56 66.85 81.92 C 68.96 78.07 73.18 76.00 75.27 72.11 C 76.26 70.18 79.00 68.37 78.03 66.00 C 76.64 66.34 76.23 67.74 75.59 68.83 C 75.24 68.61 74.55 68.17 74.20 67.96 L 74.92 67.22 C 74.19 64.48 74.41 61.65 74.24 58.85 C 73.47 57.59 72.49 56.48 71.58 55.32 C 70.00 55.54 68.42 55.75 66.84 55.93 M 80.87 55.88 C 81.35 58.62 83.91 60.56 84.51 63.05 L 83.49 63.77 C 83.81 64.06 84.13 64.36 84.45 64.65 L 84.59 63.42 C 85.46 63.46 87.19 63.55 88.06 63.59 C 85.54 61.16 84.47 56.93 80.87 55.88 M 56.72 64.62 C 55.82 65.96 54.94 67.33 54.16 68.75 C 56.11 68.32 57.87 67.37 59.62 66.44 C 59.63 65.91 59.66 64.83 59.67 64.30 C 58.69 64.40 57.70 64.51 56.72 64.62 M 68.55 64.68 C 67.94 65.84 69.90 67.35 70.68 66.06 C 71.36 64.80 69.36 63.55 68.55 64.68 M 40.10 79.04 C 42.92 77.91 45.42 75.88 46.96 73.24 C 43.87 73.65 40.84 75.94 40.10 79.04 M 126.29 82.18 C 122.97 84.23 121.52 88.18 118.08 90.09 C 114.35 93.18 109.46 94.02 105.38 96.48 C 103.54 97.79 101.26 97.45 99.15 97.47 C 98.37 96.70 97.59 95.93 96.81 95.17 C 96.59 95.75 96.17 96.91 95.95 97.49 C 89.81 96.01 84.04 93.21 77.79 92.14 C 77.97 92.49 78.32 93.20 78.50 93.55 C 85.26 95.64 91.83 98.99 99.00 99.39 C 104.64 100.13 108.92 95.57 114.20 94.50 C 114.30 95.04 114.48 96.11 114.57 96.64 C 117.36 95.76 120.25 95.22 123.18 95.28 C 126.24 91.10 130.92 87.70 131.62 82.21 C 129.63 83.09 128.98 85.26 127.92 86.95 C 126.46 89.65 123.96 91.53 121.64 93.45 C 119.36 93.83 117.08 94.26 114.79 94.58 C 116.62 92.31 119.19 90.72 122.01 90.01 C 125.27 85.02 129.82 80.80 131.40 74.83 C 128.29 76.02 127.37 79.38 126.29 82.18 M 56.37 91.95 C 57.82 94.89 60.27 97.30 63.34 98.52 C 63.69 95.20 58.84 94.93 58.18 92.01 C 58.94 88.96 60.15 85.96 59.79 82.75 C 57.64 85.30 57.06 88.78 56.37 91.95 M 128.06 94.14 C 129.77 93.37 131.11 92.09 131.81 90.34 C 129.47 90.14 127.95 91.86 128.06 94.14 M 147.68 90.96 C 146.82 98.37 140.43 103.24 137.99 110.05 C 136.34 115.90 133.20 121.19 131.72 127.11 C 132.13 127.39 132.94 127.94 133.35 128.22 C 134.34 122.52 137.54 117.57 138.97 112.01 C 141.13 105.41 146.24 100.35 148.85 93.99 C 149.80 92.70 148.66 91.63 147.68 90.96 M 73.80 98.97 C 75.31 102.70 79.80 103.37 83.03 105.00 C 85.05 106.23 87.34 104.74 88.66 103.15 C 83.06 105.02 78.62 100.77 73.80 98.97 M 47.98 100.60 C 47.46 102.11 46.95 103.64 46.45 105.16 C 50.59 104.49 47.57 108.95 48.96 111.04 C 51.06 107.94 51.93 102.65 47.98 100.60 M 165.16 101.77 C 165.38 103.90 165.67 106.02 166.12 108.11 C 168.02 106.45 167.61 102.64 165.16 101.77 M 133.12 105.26 C 132.56 106.90 133.08 107.47 134.71 106.98 C 135.26 105.35 134.73 104.78 133.12 105.26 M 34.76 113.93 C 35.94 112.78 37.06 111.57 38.01 110.23 C 35.98 110.58 33.10 111.26 34.76 113.93 M 35.36 116.22 C 33.80 117.42 32.19 118.62 31.23 120.39 C 31.75 120.40 32.78 120.43 33.30 120.45 C 35.14 117.01 39.75 116.11 40.91 112.19 C 38.46 112.57 37.19 114.83 35.36 116.22 M 66.02 114.02 C 67.40 116.89 70.27 118.64 71.66 121.50 C 74.78 127.40 78.96 132.64 83.12 137.83 C 83.80 138.83 84.81 139.47 85.90 139.94 C 84.74 136.74 82.03 134.51 80.17 131.75 C 76.75 127.34 73.96 122.51 71.10 117.74 C 71.48 117.32 72.24 116.49 72.62 116.08 C 72.44 115.93 72.10 115.63 71.92 115.48 C 71.49 115.90 70.63 116.74 70.20 117.16 C 69.03 115.83 67.89 114.33 66.02 114.02 M 40.54 121.44 C 38.18 123.68 35.26 125.66 34.20 128.90 C 36.61 127.53 38.43 125.40 40.61 123.73 C 41.78 122.70 43.36 121.92 43.86 120.33 C 42.74 118.84 41.49 120.85 40.54 121.44 M 50.00 120.95 C 51.02 123.90 52.96 126.79 52.22 130.05 C 52.10 131.96 50.21 134.63 53.09 135.28 C 53.54 132.23 54.00 129.14 53.70 126.05 C 53.45 123.85 52.54 121.25 50.00 120.95 M 49.50 128.90 C 48.92 133.98 47.19 140.49 51.68 144.33 C 53.98 146.24 55.86 148.94 58.86 149.77 C 57.45 145.59 52.05 144.56 50.76 140.29 C 50.13 136.79 50.70 133.23 51.42 129.80 C 50.94 129.58 49.98 129.13 49.50 128.90 M 96.81 130.14 C 97.71 133.10 101.81 132.38 104.17 133.60 C 103.07 130.53 99.54 130.39 96.81 130.14 M 111.98 138.11 C 114.55 137.81 115.20 134.96 115.84 132.90 C 113.92 134.08 112.18 135.73 111.98 138.11 M 53.09 137.82 C 54.49 144.66 61.32 148.59 66.90 151.91 C 66.72 150.72 66.15 149.65 65.08 149.05 C 62.17 146.93 58.93 145.10 56.84 142.08 C 55.62 140.63 54.98 138.56 53.09 137.82 M 113.64 149.04 C 114.24 154.66 109.87 158.95 108.98 164.22 C 111.92 163.35 112.14 159.95 113.40 157.62 C 115.99 152.03 116.04 145.17 112.86 139.82 C 111.56 142.89 114.18 145.87 113.64 149.04 M 129.11 163.35 C 124.16 163.09 119.26 165.88 114.51 163.44 C 114.60 163.88 114.78 164.76 114.88 165.20 C 120.02 167.95 125.26 163.91 130.64 164.70 C 132.27 163.01 133.88 161.26 134.87 159.10 C 132.57 159.99 131.33 162.43 129.11 163.35 M 85.77 162.90 C 86.92 166.14 90.93 167.12 93.97 167.59 C 97.73 167.29 103.06 168.99 105.28 164.87 C 101.97 165.67 98.58 166.11 95.17 165.90 C 91.78 165.92 88.93 163.80 85.77 162.90 Z" />
<path fill="#fefefe" opacity="1.00" d=" M 32.77 33.54 L 32.82 33.25 C 33.11 35.22 34.71 34.91 36.09 34.30 C 37.12 34.78 38.15 35.27 39.18 35.77 C 38.59 36.18 38.00 36.57 37.41 36.96 L 37.87 35.19 C 36.09 35.23 34.31 35.29 32.53 35.32 C 32.59 34.87 32.71 33.98 32.77 33.54 Z" />
<path fill="#fefefe" opacity="1.00" d=" M 108.32 33.53 C 109.56 33.40 110.80 33.28 112.04 33.17 C 111.61 33.66 110.74 34.63 110.31 35.11 C 111.21 35.81 112.10 36.51 113.00 37.21 C 112.33 37.25 110.99 37.34 110.31 37.38 C 110.17 38.95 111.35 40.19 111.78 41.63 C 112.95 44.49 113.63 47.66 116.26 49.60 C 119.15 51.67 119.54 55.47 121.98 57.86 C 121.53 57.70 120.64 57.37 120.20 57.21 C 119.49 51.34 112.86 48.86 112.08 43.10 C 111.73 42.67 111.02 41.83 110.67 41.41 C 110.36 40.36 110.07 39.31 109.77 38.26 C 110.44 36.50 108.96 35.04 108.32 33.53 Z" />
<path fill="#fefefe" opacity="1.00" d=" M 66.32 56.23 C 68.00 56.37 69.69 56.48 71.37 56.58 C 72.08 57.91 72.58 59.32 72.85 60.80 C 70.70 59.82 68.77 58.16 66.30 58.05 L 66.32 56.23 Z" />
<path fill="#fefefe" opacity="1.00" d=" M 107.06 70.00 C 112.88 68.91 118.83 69.15 124.72 69.11 C 124.54 69.58 124.18 70.53 123.99 71.01 C 123.58 71.34 122.74 72.01 122.32 72.34 C 121.68 71.87 120.40 70.93 119.77 70.46 C 118.81 71.43 117.87 72.40 116.97 73.41 C 116.90 73.74 116.74 74.39 116.67 74.72 C 115.67 74.78 114.85 74.28 114.20 73.22 C 112.99 73.77 111.79 74.32 110.59 74.88 C 111.92 75.59 113.25 76.31 114.57 77.04 C 114.15 77.25 113.30 77.65 112.88 77.86 C 112.22 78.14 111.56 78.43 110.91 78.71 C 110.57 77.25 109.42 76.37 108.32 75.51 C 109.01 76.97 109.60 78.49 109.79 80.11 C 106.94 80.60 104.13 81.31 101.24 81.50 L 101.66 82.57 C 100.16 82.84 98.66 83.14 97.17 83.46 C 96.66 83.44 95.62 83.38 95.11 83.35 C 94.23 81.98 93.41 80.57 92.58 79.18 C 92.98 78.67 93.39 78.16 93.80 77.66 C 94.68 78.66 95.72 79.46 96.91 80.07 C 96.39 79.00 95.85 77.95 95.30 76.91 C 93.85 76.91 92.41 76.89 90.97 76.85 C 91.89 75.48 93.05 74.29 94.28 73.20 C 94.31 72.03 94.33 70.86 94.36 69.70 C 98.49 70.85 102.86 70.76 107.06 70.00 Z" />
<path fill="#fefefe" opacity="1.00" d=" M 121.42 76.64 C 121.99 75.83 122.57 75.02 123.15 74.21 C 123.30 74.82 123.60 76.03 123.75 76.63 C 123.25 76.61 122.24 76.58 121.73 76.56 C 121.65 78.47 120.73 79.72 118.73 79.68 C 118.14 81.39 116.39 82.08 115.10 83.16 C 111.98 83.00 108.99 84.01 105.92 84.35 C 108.35 83.42 111.31 83.09 112.93 80.80 C 113.87 80.53 114.83 80.28 115.79 80.05 L 115.54 78.54 C 116.21 78.58 117.55 78.66 118.22 78.71 C 118.33 76.80 119.96 76.75 121.42 76.64 Z" />
<path fill="#fefefe" opacity="1.00" d=" M 96.98 86.53 C 98.94 85.20 101.42 85.17 103.62 84.44 C 103.67 84.67 103.79 85.13 103.85 85.35 C 100.84 86.25 97.74 86.81 94.72 87.64 C 94.53 87.32 94.17 86.68 93.98 86.36 C 94.73 86.40 96.23 86.49 96.98 86.53 Z" />
<path fill="#fefefe" opacity="1.00" d=" M 27.62 112.46 C 26.50 111.37 26.98 107.58 29.00 108.52 C 28.76 109.81 29.20 111.95 27.62 112.46 Z" />
<path fill="#fefefe" opacity="1.00" d=" M 28.08 129.52 C 29.73 130.93 31.52 132.26 32.65 134.15 C 34.60 137.28 37.71 139.32 40.28 141.86 C 35.45 138.61 31.56 134.14 28.08 129.52 Z" />
<path fill="#fefefe" opacity="1.00" d=" M 108.54 181.37 C 112.23 183.19 115.96 185.11 118.92 188.03 C 115.73 186.10 112.82 183.73 109.50 182.02 C 107.66 187.50 110.26 193.36 109.82 199.03 C 110.61 200.75 110.43 202.65 109.91 204.41 C 109.59 196.72 108.42 189.07 108.54 181.37 Z" />
<path fill="#fefefe" opacity="1.00" d=" M 91.96 188.98 C 92.49 188.77 93.53 188.35 94.06 188.15 C 93.65 188.46 92.85 189.09 92.45 189.40 C 92.14 190.36 91.81 191.31 91.48 192.26 C 88.46 195.66 86.37 199.79 84.95 204.09 C 85.18 202.90 85.43 201.72 85.67 200.55 C 87.02 197.93 89.17 195.67 89.74 192.71 C 91.91 192.74 91.59 190.49 91.96 188.98 Z" />
</g>
<g id="#030304fd">
<path fill="#030304" opacity="1.00" d=" M 116.48 24.43 C 117.03 24.35 118.13 24.19 118.67 24.11 C 118.82 28.64 119.29 33.15 119.55 37.68 C 116.48 37.33 113.39 37.32 110.31 37.38 C 110.99 37.34 112.33 37.25 113.00 37.21 C 112.10 36.51 111.21 35.81 110.31 35.11 C 110.74 34.63 111.61 33.66 112.04 33.17 C 110.80 33.28 109.56 33.40 108.32 33.53 C 108.96 35.04 110.44 36.50 109.77 38.26 C 110.07 39.31 110.36 40.36 110.67 41.41 C 111.02 41.83 111.73 42.67 112.08 43.10 C 112.86 48.86 119.49 51.34 120.20 57.21 C 120.64 57.37 121.53 57.70 121.98 57.86 C 122.34 57.98 123.07 58.21 123.43 58.33 C 128.68 60.36 134.87 58.85 139.60 62.35 C 143.78 63.24 147.26 65.74 149.96 68.99 C 152.85 72.52 157.39 74.31 159.83 78.23 C 163.33 83.58 165.90 89.45 169.26 94.88 C 170.58 97.03 171.56 99.44 171.51 102.00 C 171.58 107.17 171.65 112.35 171.19 117.49 C 170.22 119.74 169.25 122.02 169.00 124.48 C 168.28 125.26 167.54 126.03 166.82 126.81 C 166.24 130.36 163.61 133.05 162.06 136.20 C 157.46 144.69 149.63 151.15 146.50 160.50 C 143.29 162.98 139.45 164.51 136.49 167.31 C 134.01 169.87 130.31 170.74 126.85 170.34 C 119.87 169.57 113.10 171.78 106.25 172.74 C 106.40 174.82 105.76 178.73 108.95 178.52 C 113.15 178.66 116.40 181.56 120.04 183.27 C 124.00 185.85 128.47 187.78 131.75 191.27 C 136.07 195.20 138.91 200.58 143.97 203.72 C 141.61 203.96 139.23 204.05 136.86 204.04 C 133.61 201.28 131.57 197.44 128.35 194.65 C 125.57 191.93 121.58 190.91 118.92 188.03 C 115.96 185.11 112.23 183.19 108.54 181.37 C 108.42 189.07 109.59 196.72 109.91 204.41 C 108.52 204.07 107.16 203.73 105.80 203.33 L 105.91 202.77 C 106.85 199.47 106.46 196.03 105.69 192.75 C 105.12 189.96 105.43 187.11 105.69 184.31 C 101.83 186.51 99.39 190.31 95.82 192.81 C 93.72 196.35 91.46 199.85 90.10 203.76 C 88.39 203.89 86.67 203.99 84.95 204.09 C 86.37 199.79 88.46 195.66 91.48 192.26 C 91.81 191.31 92.14 190.36 92.45 189.40 C 92.85 189.09 93.65 188.46 94.06 188.15 C 95.21 187.27 95.94 185.99 96.78 184.84 C 99.39 183.37 100.87 180.66 103.29 178.96 C 102.79 177.10 102.71 175.18 103.35 173.33 C 96.81 173.09 90.20 173.66 83.69 173.08 C 76.07 168.90 66.85 167.87 60.14 162.03 C 56.10 159.78 53.74 155.69 50.31 152.72 C 46.87 149.20 43.77 145.35 40.28 141.86 C 37.71 139.32 34.60 137.28 32.65 134.15 C 31.52 132.26 29.73 130.93 28.08 129.52 C 27.20 128.75 26.39 127.91 25.56 127.09 C 25.49 122.28 25.59 117.46 26.74 112.77 L 27.62 112.46 C 29.20 111.95 28.76 109.81 29.00 108.52 C 29.21 105.67 29.40 102.80 30.01 100.00 C 31.27 95.02 29.87 89.70 31.97 84.88 C 32.61 84.06 32.84 83.14 32.65 82.13 C 31.79 77.04 34.28 72.22 33.57 67.11 C 34.88 64.81 35.57 62.26 35.94 59.66 C 39.41 52.93 44.81 47.36 50.89 42.93 C 53.73 41.11 56.89 39.91 59.91 38.42 C 62.58 35.31 60.57 30.56 61.14 26.80 C 61.73 27.12 62.92 27.75 63.51 28.07 C 64.94 29.17 66.24 26.93 67.85 27.51 C 66.49 28.81 64.95 29.91 63.39 30.96 C 63.39 32.67 63.41 34.39 63.43 36.10 C 67.35 35.18 70.92 33.11 74.91 32.44 C 77.81 32.06 80.43 30.74 83.15 29.77 C 85.77 29.37 88.60 30.10 91.03 28.76 C 93.75 28.59 96.47 28.63 99.18 28.78 C 100.13 30.03 101.11 31.25 102.15 32.43 C 103.65 34.50 106.91 34.16 108.16 31.99 C 108.74 31.90 109.91 31.72 110.50 31.63 C 110.55 31.16 110.64 30.21 110.69 29.74 L 110.71 29.29 C 109.49 29.51 108.25 29.91 106.99 29.73 C 107.12 28.62 108.02 27.88 108.71 27.10 C 110.69 27.35 113.36 26.71 114.45 28.89 C 114.70 31.49 114.50 34.10 114.63 36.70 C 115.13 36.70 116.13 36.69 116.63 36.69 C 116.45 32.61 116.53 28.52 116.48 24.43 M 84.54 32.72 C 76.12 35.87 67.19 37.53 59.11 41.55 C 53.73 42.98 49.94 47.37 45.97 50.98 C 43.21 54.74 39.37 57.99 39.03 62.97 C 38.26 64.48 37.44 65.99 37.05 67.66 C 35.14 70.78 35.54 74.51 35.24 78.00 C 35.21 83.07 33.25 87.92 33.46 93.01 C 33.52 101.78 29.93 110.01 28.76 118.58 C 28.42 121.93 27.88 125.90 30.71 128.40 C 34.13 131.58 36.85 135.45 40.50 138.42 C 43.85 141.09 46.81 144.21 49.53 147.51 C 52.46 150.96 56.23 153.66 58.74 157.46 C 59.97 158.13 61.20 158.81 62.50 159.33 C 62.82 159.64 63.46 160.24 63.77 160.54 C 67.22 164.70 73.38 164.70 77.94 167.16 C 80.38 167.96 82.69 169.21 85.22 169.68 L 85.26 170.53 C 94.51 169.99 103.92 171.46 113.04 169.40 C 114.47 169.15 116.16 169.56 117.31 168.44 C 121.56 168.54 125.74 167.78 129.95 167.44 C 134.68 165.70 137.98 161.59 142.53 159.52 C 144.67 158.48 145.01 155.97 146.00 154.06 C 148.34 148.73 152.86 144.83 155.84 139.90 C 160.50 133.25 164.36 126.03 167.40 118.50 C 171.00 113.27 168.90 106.70 169.48 100.79 C 165.19 92.78 160.95 84.72 156.05 77.05 C 151.10 74.07 147.62 69.29 142.97 65.93 C 139.95 64.78 136.93 63.57 133.86 62.58 C 130.51 62.45 127.29 61.56 123.99 61.05 C 122.69 60.76 121.38 60.51 120.07 60.30 C 118.93 60.98 117.72 61.47 116.44 61.80 C 117.07 60.25 117.69 58.68 117.82 56.99 C 115.97 54.55 114.10 52.12 112.16 49.75 C 109.69 46.87 109.70 42.68 107.12 39.88 C 104.48 36.49 100.28 34.91 97.56 31.60 C 93.10 31.05 88.95 33.12 84.54 32.72 Z" />
<path fill="#030304" opacity="1.00" d=" M 6.89 26.28 C 7.63 24.21 9.13 23.98 10.83 25.15 C 10.62 26.22 9.93 26.91 8.77 27.22 L 10.75 27.18 C 9.09 30.18 9.26 33.63 9.50 36.93 C 8.46 36.92 7.42 36.90 6.37 36.88 C 6.57 33.43 6.50 29.97 6.24 26.53 L 6.89 26.28 Z" />
<path fill="#030304" opacity="1.00" d=" M 14.98 27.13 C 17.85 26.95 20.47 27.95 22.89 29.40 L 23.15 29.98 C 23.28 31.59 23.32 33.21 23.35 34.82 L 22.78 33.76 C 22.59 32.58 22.44 31.39 22.32 30.20 C 21.97 30.12 21.27 29.95 20.92 29.87 C 22.48 32.53 20.60 34.86 19.43 37.12 L 19.72 37.20 L 19.77 37.57 C 17.25 37.97 14.72 37.24 12.40 36.30 C 12.35 34.10 11.15 31.64 12.49 29.66 C 13.32 28.82 14.16 27.98 14.98 27.13 M 15.65 29.65 C 13.50 31.11 14.35 35.16 16.99 35.51 C 18.08 35.26 18.70 34.10 19.58 33.47 C 19.36 31.95 19.07 30.44 18.61 28.97 C 17.59 29.05 16.60 29.28 15.65 29.65 Z" />
<path fill="#030304" opacity="1.00" d=" M 52.25 27.72 C 54.13 26.84 57.71 26.83 58.55 29.31 C 58.93 31.08 58.81 32.92 58.66 34.72 C 57.85 34.27 57.04 33.81 56.24 33.35 C 55.87 33.68 55.13 34.34 54.76 34.67 C 53.79 34.03 52.81 33.41 51.83 32.80 C 52.46 35.75 55.14 35.86 57.62 35.48 C 57.12 36.26 56.62 37.03 56.10 37.79 C 54.79 37.90 53.23 38.13 52.20 37.10 C 50.21 34.24 49.43 30.35 52.25 27.72 M 52.51 31.21 C 53.59 31.28 54.67 31.35 55.74 31.42 C 55.73 30.83 55.72 29.65 55.71 29.06 C 54.28 29.21 52.48 29.39 52.51 31.21 Z" />
<path fill="#030304" opacity="1.00" d=" M 123.88 26.89 C 124.68 27.08 126.28 27.47 127.08 27.67 C 127.56 27.83 128.51 28.14 128.99 28.30 L 129.46 28.12 L 129.54 28.56 C 130.67 31.51 130.00 34.30 128.23 36.79 L 128.55 37.03 L 128.99 37.38 C 127.24 37.90 125.43 37.53 123.68 37.33 L 123.31 36.89 C 122.47 35.85 121.54 34.86 120.30 34.30 C 120.17 31.26 121.78 28.89 123.88 26.89 M 122.48 31.98 C 123.15 33.14 123.82 34.29 124.49 35.45 C 127.73 35.18 128.50 32.07 127.22 29.44 C 125.27 26.66 123.56 30.50 122.48 31.98 Z" />
<path fill="#030304" opacity="1.00" d=" M 132.21 27.29 C 133.69 27.37 135.65 26.57 136.84 27.78 C 136.31 27.78 135.26 27.79 134.73 27.79 C 135.02 31.07 134.49 34.34 133.68 37.51 C 133.15 37.53 132.08 37.56 131.55 37.58 C 131.43 37.14 131.19 36.26 131.07 35.82 C 131.93 34.25 132.47 32.53 132.42 30.73 C 132.37 29.87 132.26 28.15 132.21 27.29 Z" />
<path fill="#030304" opacity="1.00" d=" M 143.74 27.75 C 145.32 27.52 146.90 27.30 148.48 27.06 C 149.61 28.83 152.49 30.46 150.73 32.77 C 149.05 32.99 147.36 33.14 145.67 33.19 L 145.27 33.17 C 145.40 33.73 145.65 34.83 145.78 35.38 C 147.41 35.50 149.04 35.64 150.68 35.78 C 148.96 37.90 146.35 36.94 144.18 36.51 C 143.56 35.90 142.97 35.26 142.41 34.60 L 143.33 34.04 C 143.44 32.37 143.56 30.70 143.66 29.04 C 143.68 28.71 143.72 28.07 143.74 27.75 M 146.00 29.55 C 144.70 31.11 147.74 32.28 148.65 31.01 C 149.71 29.40 146.98 28.35 146.00 29.55 Z" />
<path fill="#030304" opacity="1.00" d=" M 23.37 27.08 C 25.51 26.94 27.48 27.36 29.27 28.34 C 28.55 28.64 27.11 29.24 26.39 29.55 C 25.99 31.89 27.25 35.47 25.02 36.93 C 24.75 36.74 24.20 36.36 23.93 36.17 C 23.49 33.16 23.56 30.11 23.37 27.08 Z" />
<path fill="#030304" opacity="1.00" d=" M 30.57 27.93 L 31.80 27.88 C 33.23 27.86 34.66 27.83 36.10 27.79 C 37.09 29.29 39.28 30.72 37.90 32.67 C 36.22 32.92 34.41 32.53 32.82 33.25 L 32.77 33.54 C 32.71 33.98 32.59 34.87 32.53 35.32 C 34.31 35.29 36.09 35.23 37.87 35.19 L 37.41 36.96 C 35.64 37.77 33.59 37.37 31.70 37.54 L 31.59 37.29 C 29.82 34.46 30.19 31.09 30.57 27.93 M 32.54 29.42 C 32.53 29.89 32.51 30.84 32.50 31.32 C 33.56 31.33 34.61 31.35 35.66 31.37 C 35.62 30.83 35.54 29.75 35.50 29.21 C 34.51 29.28 33.53 29.35 32.54 29.42 Z" />
<path fill="#030304" opacity="1.00" d=" M 39.39 27.94 C 40.38 28.01 41.38 28.09 42.37 28.17 C 43.03 29.72 42.37 33.01 44.73 33.03 C 45.87 31.61 45.47 28.10 47.80 28.21 C 48.70 31.42 45.46 34.39 44.50 37.43 C 41.94 34.80 41.06 31.11 39.39 27.94 Z" />
<path fill="#030304" opacity="1.00" d=" M 140.22 28.94 C 140.53 29.08 141.16 29.36 141.48 29.50 C 141.11 31.88 141.74 34.79 140.17 36.79 C 139.41 34.16 139.78 31.40 139.61 28.71 L 140.22 28.94 Z" />
<path fill="#030304" opacity="1.00" d=" M 105.43 43.23 C 107.04 44.06 108.63 45.09 109.09 46.97 C 107.88 46.58 106.76 45.96 106.00 44.91 C 105.86 44.49 105.57 43.65 105.43 43.23 Z" />
<path fill="#030304" opacity="1.00" d=" M 50.32 53.13 C 51.64 54.38 52.89 55.71 54.21 56.96 C 54.23 58.48 53.87 59.94 53.29 61.33 C 52.77 61.32 51.73 61.31 51.21 61.31 C 51.60 61.09 52.37 60.66 52.75 60.44 C 52.64 57.77 51.05 55.61 50.32 53.13 Z" />
<path fill="#030304" opacity="1.00" d=" M 96.59 55.94 C 97.77 52.92 101.23 52.49 104.06 52.53 C 104.30 53.02 104.79 54.00 105.03 54.49 C 105.15 56.17 105.18 57.86 105.24 59.54 C 105.66 59.14 106.50 58.34 106.92 57.94 C 107.17 57.79 107.65 57.49 107.89 57.34 C 106.80 59.45 105.40 61.97 107.77 63.81 C 106.04 62.28 104.39 60.65 102.83 58.95 C 102.24 58.50 101.65 58.04 101.06 57.60 C 102.39 57.05 103.14 56.09 103.30 54.72 C 101.48 54.63 99.14 55.03 98.34 56.91 C 98.49 60.07 101.31 61.77 103.65 63.33 C 102.01 63.53 100.37 63.73 98.73 63.95 C 97.62 61.42 96.27 58.79 96.59 55.94 Z" />
<path fill="#030304" opacity="1.00" d=" M 66.84 55.93 C 68.42 55.75 70.00 55.54 71.58 55.32 C 72.49 56.48 73.47 57.59 74.24 58.85 C 74.41 61.65 74.19 64.48 74.92 67.22 L 74.20 67.96 C 72.40 70.27 69.87 71.70 66.88 71.54 L 67.03 70.66 C 67.11 70.23 67.28 69.38 67.36 68.95 C 68.67 69.25 69.99 69.54 71.31 69.83 C 71.33 69.19 71.38 67.93 71.41 67.29 C 71.48 65.82 71.54 64.36 71.56 62.89 C 70.08 62.13 68.62 61.35 67.19 60.53 C 66.67 60.84 65.63 61.45 65.11 61.75 C 66.60 64.61 66.47 67.72 66.41 70.87 C 65.89 71.28 64.84 72.11 64.31 72.52 C 63.45 72.50 62.58 72.48 61.72 72.46 C 61.63 71.82 61.44 70.53 61.34 69.89 C 62.41 70.63 63.48 71.37 64.55 72.11 C 64.77 70.50 64.80 68.91 62.63 69.26 C 61.20 66.54 62.23 63.63 62.66 60.80 C 63.94 59.89 65.29 59.01 66.22 57.71 C 65.71 57.56 64.68 57.26 64.17 57.11 C 64.84 56.82 66.17 56.23 66.84 55.93 M 66.32 56.23 L 66.30 58.05 C 68.77 58.16 70.70 59.82 72.85 60.80 C 72.58 59.32 72.08 57.91 71.37 56.58 C 69.69 56.48 68.00 56.37 66.32 56.23 Z" />
<path fill="#030304" opacity="1.00" d=" M 68.55 64.68 C 69.36 63.55 71.36 64.80 70.68 66.06 C 69.90 67.35 67.94 65.84 68.55 64.68 Z" />
<path fill="#030304" opacity="1.00" d=" M 130.72 65.00 C 131.01 65.27 131.58 65.81 131.86 66.08 C 134.62 67.09 137.28 69.48 137.61 72.54 L 138.37 72.58 C 138.30 74.40 138.26 76.22 138.13 78.04 C 137.26 79.71 137.52 81.72 136.59 83.36 C 136.38 81.56 136.80 79.81 137.37 78.12 C 138.21 75.62 137.30 73.06 136.50 70.69 C 135.38 69.86 134.54 67.75 132.84 68.49 C 128.06 73.54 124.61 79.86 118.86 83.98 C 115.02 85.56 110.75 85.49 106.89 87.03 C 103.20 88.48 99.25 89.25 95.30 89.44 C 92.48 88.96 89.77 88.00 86.99 87.34 C 81.00 89.28 74.86 86.43 68.75 87.44 L 68.11 86.58 C 67.32 85.54 66.53 84.51 65.73 83.48 C 67.57 83.50 69.41 83.50 71.25 83.48 C 73.02 83.51 74.92 83.73 76.26 82.32 C 76.34 82.81 76.48 83.79 76.56 84.28 C 77.54 84.37 79.50 84.54 80.48 84.63 C 80.59 84.23 80.80 83.44 80.91 83.04 C 81.04 83.41 81.29 84.15 81.42 84.52 L 82.39 84.53 C 87.34 84.50 92.50 85.67 97.17 83.46 C 98.66 83.14 100.16 82.84 101.66 82.57 L 101.24 81.50 C 104.13 81.31 106.94 80.60 109.79 80.11 C 109.60 78.49 109.01 76.97 108.32 75.51 C 109.42 76.37 110.57 77.25 110.91 78.71 C 111.56 78.43 112.22 78.14 112.88 77.86 C 113.30 77.65 114.15 77.25 114.57 77.04 C 117.36 75.84 119.98 74.29 122.32 72.34 C 122.74 72.01 123.58 71.34 123.99 71.01 C 124.52 70.87 125.57 70.59 126.09 70.45 C 127.40 69.30 128.79 68.25 130.18 67.21 C 130.32 66.66 130.59 65.55 130.72 65.00 M 121.42 76.64 C 119.96 76.75 118.33 76.80 118.22 78.71 C 117.55 78.66 116.21 78.58 115.54 78.54 L 115.79 80.05 C 114.83 80.28 113.87 80.53 112.93 80.80 C 111.31 83.09 108.35 83.42 105.92 84.35 C 108.99 84.01 111.98 83.00 115.10 83.16 C 116.39 82.08 118.14 81.39 118.73 79.68 C 120.73 79.72 121.65 78.47 121.73 76.56 C 122.24 76.58 123.25 76.61 123.75 76.63 C 123.60 76.03 123.30 74.82 123.15 74.21 C 122.57 75.02 121.99 75.83 121.42 76.64 M 96.98 86.53 C 96.23 86.49 94.73 86.40 93.98 86.36 C 94.17 86.68 94.53 87.32 94.72 87.64 C 97.74 86.81 100.84 86.25 103.85 85.35 C 103.79 85.13 103.67 84.67 103.62 84.44 C 101.42 85.17 98.94 85.20 96.98 86.53 Z" />
</g>
<g id="#838487ee">
<path fill="#838487" opacity="0.93" d=" M 31.80 27.88 C 33.76 26.93 36.02 27.09 38.02 27.86 C 39.56 27.53 41.10 27.22 42.65 26.93 C 42.99 27.88 43.67 29.76 44.01 30.70 C 44.47 29.89 45.38 28.28 45.83 27.48 C 47.97 27.15 50.12 27.42 52.25 27.72 C 49.43 30.35 50.21 34.24 52.20 37.10 C 48.70 36.81 49.47 33.20 49.35 30.74 C 48.08 32.08 47.29 33.67 47.15 35.52 C 46.70 36.19 46.24 36.87 45.79 37.54 C 44.70 37.50 43.60 37.47 42.51 37.44 C 41.36 35.47 41.01 31.79 37.90 32.67 C 39.28 30.72 37.09 29.29 36.10 27.79 C 34.66 27.83 33.23 27.86 31.80 27.88 M 39.39 27.94 C 41.06 31.11 41.94 34.80 44.50 37.43 C 45.46 34.39 48.70 31.42 47.80 28.21 C 45.47 28.10 45.87 31.61 44.73 33.03 C 42.37 33.01 43.03 29.72 42.37 28.17 C 41.38 28.09 40.38 28.01 39.39 27.94 Z" />
<path fill="#838487" opacity="0.93" d=" M 127.08 27.67 L 127.80 27.13 C 128.10 27.42 128.69 28.01 128.99 28.30 C 128.51 28.14 127.56 27.83 127.08 27.67 Z" />
<path fill="#838487" opacity="0.93" d=" M 138.45 27.25 C 140.30 26.93 141.77 27.82 142.06 29.73 L 143.66 29.04 C 143.56 30.70 143.44 32.37 143.33 34.04 L 142.41 34.60 C 141.99 35.66 141.68 36.76 141.50 37.90 C 140.21 37.73 138.94 37.51 137.66 37.29 C 137.83 34.47 137.08 31.28 139.07 28.88 C 139.25 31.66 138.96 34.50 139.70 37.22 L 140.17 36.79 C 141.74 34.79 141.11 31.88 141.48 29.50 C 141.16 29.36 140.53 29.08 140.22 28.94 C 139.78 28.52 138.89 27.67 138.45 27.25 Z" />
<path fill="#838487" opacity="0.93" d=" M 148.48 27.06 C 151.75 27.06 151.89 30.49 152.84 32.80 C 152.31 32.79 151.26 32.78 150.73 32.77 C 152.49 30.46 149.61 28.83 148.48 27.06 Z" />
<path fill="#838487" opacity="0.93" d=" M 59.88 27.75 L 61.14 26.80 C 60.57 30.56 62.58 35.31 59.91 38.42 C 59.62 34.88 59.20 31.26 59.88 27.75 Z" />
<path fill="#838487" opacity="0.93" d=" M 134.73 27.79 C 135.26 27.79 136.31 27.78 136.84 27.78 C 137.40 28.06 138.51 28.61 139.07 28.88 C 138.21 29.37 136.50 30.34 135.64 30.83 C 135.27 33.03 135.51 35.28 135.48 37.50 L 133.68 37.51 C 134.49 34.34 135.02 31.07 134.73 27.79 Z" />
<path fill="#838487" opacity="0.93" d=" M 122.48 31.98 C 123.56 30.50 125.27 26.66 127.22 29.44 C 126.72 29.65 125.71 30.05 125.20 30.25 C 123.73 31.64 124.57 33.71 124.49 35.45 C 123.82 34.29 123.15 33.14 122.48 31.98 Z" />
<path fill="#838487" opacity="0.93" d=" M 129.54 28.56 C 130.26 29.10 131.70 30.19 132.42 30.73 C 132.47 32.53 131.93 34.25 131.07 35.82 C 130.44 36.12 129.18 36.72 128.55 37.03 L 128.23 36.79 C 130.00 34.30 130.67 31.51 129.54 28.56 Z" />
<path fill="#838487" opacity="0.93" d=" M 20.92 29.87 C 21.27 29.95 21.97 30.12 22.32 30.20 C 22.44 31.39 22.59 32.58 22.78 33.76 C 22.01 35.17 20.99 36.32 19.72 37.20 L 19.43 37.12 C 20.60 34.86 22.48 32.53 20.92 29.87 Z" />
<path fill="#838487" opacity="0.93" d=" M 51.83 32.80 C 52.81 33.41 53.79 34.03 54.76 34.67 C 55.13 34.34 55.87 33.68 56.24 33.35 C 57.04 33.81 57.85 34.27 58.66 34.72 L 58.96 34.89 C 58.47 36.10 57.97 37.31 57.47 38.52 L 59.91 38.42 C 56.89 39.91 53.73 41.11 50.89 42.93 C 52.32 40.59 54.93 39.76 57.42 39.03 C 57.09 38.72 56.43 38.10 56.10 37.79 C 56.62 37.03 57.12 36.26 57.62 35.48 C 55.14 35.86 52.46 35.75 51.83 32.80 Z" />
<path fill="#838487" opacity="0.93" d=" M 145.27 33.17 L 145.67 33.19 C 146.03 33.65 146.77 34.57 147.14 35.02 C 147.61 34.55 148.55 33.60 149.02 33.12 C 150.10 34.14 151.20 35.15 152.29 36.17 C 149.91 37.43 146.39 38.44 144.18 36.51 C 146.35 36.94 148.96 37.90 150.68 35.78 C 149.04 35.64 147.41 35.50 145.78 35.38 C 145.65 34.83 145.40 33.73 145.27 33.17 Z" />
<path fill="#838487" opacity="0.93" d=" M 82.15 44.70 C 84.34 42.98 86.37 41.01 88.89 39.76 L 89.91 40.25 C 89.04 42.64 86.00 43.28 84.25 44.96 C 84.42 46.37 84.58 47.78 84.73 49.19 C 87.53 47.55 88.56 42.84 92.22 43.16 C 88.81 47.79 84.15 52.77 77.96 52.78 C 73.95 51.90 70.03 50.50 65.86 50.66 C 66.13 49.56 66.81 49.08 67.91 49.22 C 72.19 48.85 76.90 51.03 80.75 48.27 C 80.90 48.95 81.20 50.32 81.35 51.00 C 82.56 50.76 83.76 50.26 84.17 48.97 C 83.24 47.67 82.62 46.21 82.15 44.70 Z" />
<path fill="#838487" opacity="0.93" d=" M 62.78 49.11 C 63.34 47.12 65.34 46.17 67.12 45.51 C 71.44 45.15 75.80 45.51 80.13 45.04 C 79.42 48.40 75.36 46.67 73.01 46.82 C 69.39 46.24 66.08 47.92 62.78 49.11 Z" />
<path fill="#838487" opacity="0.93" d=" M 90.55 57.18 C 91.24 52.28 95.54 46.73 101.08 48.40 C 100.16 50.70 96.98 49.58 95.51 51.32 C 92.85 53.09 92.44 56.25 92.11 59.15 C 90.70 60.71 90.50 58.22 90.55 57.18 Z" />
<path fill="#838487" opacity="0.93" d=" M 96.41 52.54 C 98.88 51.83 101.53 52.48 104.06 52.53 C 101.23 52.49 97.77 52.92 96.59 55.94 C 96.27 58.79 97.62 61.42 98.73 63.95 C 100.37 63.73 102.01 63.53 103.65 63.33 C 101.31 61.77 98.49 60.07 98.34 56.91 C 99.14 55.03 101.48 54.63 103.30 54.72 C 103.14 56.09 102.39 57.05 101.06 57.60 C 101.65 58.04 102.24 58.50 102.83 58.95 C 104.39 60.65 106.04 62.28 107.77 63.81 C 110.75 66.19 114.68 63.61 118.08 63.83 C 122.06 64.04 126.67 62.85 130.12 65.37 C 123.76 65.34 117.38 66.05 111.04 65.29 C 108.97 65.09 107.12 66.26 105.21 66.84 C 105.21 66.07 105.19 64.54 105.18 63.77 C 104.94 64.69 104.69 65.62 104.46 66.55 C 101.64 66.51 98.73 66.73 96.06 65.62 C 96.66 64.73 97.27 63.86 97.88 62.98 C 96.92 61.54 96.19 59.66 94.28 59.29 C 94.28 56.89 93.75 53.79 96.41 52.54 Z" />
<path fill="#838487" opacity="0.93" d=" M 105.03 54.49 C 106.66 54.58 108.29 54.50 109.91 54.39 C 109.71 55.70 109.31 56.93 107.89 57.34 C 107.65 57.49 107.17 57.79 106.92 57.94 C 106.50 58.34 105.66 59.14 105.24 59.54 C 105.18 57.86 105.15 56.17 105.03 54.49 Z" />
<path fill="#838487" opacity="0.93" d=" M 58.20 57.31 C 58.86 55.58 60.45 55.17 62.09 55.06 C 61.71 56.98 60.13 58.04 58.20 57.31 Z" />
<path fill="#838487" opacity="0.93" d=" M 80.87 55.88 C 84.47 56.93 85.54 61.16 88.06 63.59 C 87.19 63.55 85.46 63.46 84.59 63.42 L 84.45 64.65 C 84.13 64.36 83.81 64.06 83.49 63.77 L 84.51 63.05 C 83.91 60.56 81.35 58.62 80.87 55.88 Z" />
<path fill="#838487" opacity="0.93" d=" M 123.43 58.33 C 125.81 57.33 128.33 57.72 130.31 59.39 C 135.00 58.75 139.34 60.81 143.54 62.55 C 148.74 65.92 152.48 70.95 157.55 74.48 C 159.79 75.96 161.22 78.21 162.01 80.75 C 163.44 82.27 164.83 83.89 164.91 86.10 C 165.20 86.44 165.79 87.12 166.08 87.45 C 166.86 91.04 170.95 93.05 170.69 97.12 C 171.09 97.57 171.90 98.48 172.31 98.94 C 172.15 104.63 172.57 110.34 172.12 116.02 C 171.89 116.39 171.42 117.13 171.19 117.49 C 171.65 112.35 171.58 107.17 171.51 102.00 C 171.56 99.44 170.58 97.03 169.26 94.88 C 165.90 89.45 163.33 83.58 159.83 78.23 C 157.39 74.31 152.85 72.52 149.96 68.99 C 147.26 65.74 143.78 63.24 139.60 62.35 C 134.87 58.85 128.68 60.36 123.43 58.33 Z" />
<path fill="#838487" opacity="0.93" d=" M 56.72 64.62 C 57.70 64.51 58.69 64.40 59.67 64.30 C 59.66 64.83 59.63 65.91 59.62 66.44 C 57.87 67.37 56.11 68.32 54.16 68.75 C 54.94 67.33 55.82 65.96 56.72 64.62 Z" />
<path fill="#838487" opacity="0.93" d=" M 90.40 65.38 C 92.72 65.15 94.17 67.50 95.88 68.69 C 103.34 69.55 110.52 67.11 117.95 67.14 C 122.03 66.84 126.12 68.13 130.18 67.21 C 128.79 68.25 127.40 69.30 126.09 70.45 C 125.57 70.59 124.52 70.87 123.99 71.01 C 124.18 70.53 124.54 69.58 124.72 69.11 C 118.83 69.15 112.88 68.91 107.06 70.00 C 102.86 70.76 98.49 70.85 94.36 69.70 C 94.33 70.86 94.31 72.03 94.28 73.20 C 93.05 74.29 91.89 75.48 90.97 76.85 C 92.41 76.89 93.85 76.91 95.30 76.91 C 95.85 77.95 96.39 79.00 96.91 80.07 C 95.72 79.46 94.68 78.66 93.80 77.66 C 93.39 78.16 92.98 78.67 92.58 79.18 C 93.41 80.57 94.23 81.98 95.11 83.35 C 95.62 83.38 96.66 83.44 97.17 83.46 C 92.50 85.67 87.34 84.50 82.39 84.53 C 85.06 82.23 88.82 84.01 91.99 83.97 C 92.32 83.86 92.98 83.63 93.30 83.52 C 91.86 80.55 88.92 77.47 90.34 73.95 C 89.73 72.57 88.16 71.38 88.72 69.70 C 89.63 69.72 91.46 69.77 92.38 69.80 C 91.84 68.21 88.80 67.20 90.40 65.38 Z" />
<path fill="#838487" opacity="0.93" d=" M 75.59 68.83 C 76.23 67.74 76.64 66.34 78.03 66.00 C 79.00 68.37 76.26 70.18 75.27 72.11 C 73.18 76.00 68.96 78.07 66.85 81.92 C 71.05 79.56 74.99 76.72 78.65 73.61 C 79.92 72.76 79.84 71.18 80.10 69.85 C 81.37 68.57 82.72 67.37 84.29 66.48 C 83.74 69.13 82.17 71.47 81.92 74.19 C 83.10 73.10 83.92 71.67 85.15 70.64 C 87.08 71.05 87.29 73.76 88.38 75.17 C 85.60 75.84 82.67 75.97 79.93 75.04 C 76.48 77.90 72.36 79.81 68.91 82.69 C 69.49 82.89 70.66 83.28 71.25 83.48 C 69.41 83.50 67.57 83.50 65.73 83.48 C 66.53 84.51 67.32 85.54 68.11 86.58 L 65.83 86.48 C 67.91 89.38 70.91 91.47 74.12 92.97 C 75.09 93.33 75.78 94.00 76.19 94.97 C 72.73 94.47 69.68 92.70 66.79 90.84 C 68.16 94.04 70.04 96.99 71.46 100.16 C 68.13 99.15 66.45 95.77 63.90 93.64 C 64.47 93.56 65.61 93.38 66.19 93.29 C 65.40 90.25 62.70 87.33 63.97 84.08 C 64.33 82.57 64.73 81.06 65.12 79.56 C 64.00 79.51 62.88 79.47 61.76 79.43 C 60.78 77.83 58.93 76.39 59.44 74.30 C 61.35 76.17 63.72 77.30 66.48 76.93 C 65.88 76.17 64.67 74.66 64.06 73.90 C 66.03 73.38 67.07 72.01 67.19 69.79 L 67.03 70.66 L 66.88 71.54 C 69.87 71.70 72.40 70.27 74.20 67.96 C 74.55 68.17 75.24 68.61 75.59 68.83 Z" />
<path fill="#838487" opacity="0.93" d=" M 67.36 68.95 C 66.10 66.41 70.18 66.99 71.41 67.29 C 71.38 67.93 71.33 69.19 71.31 69.83 C 69.99 69.54 68.67 69.25 67.36 68.95 Z" />
<path fill="#838487" opacity="0.93" d=" M 35.24 78.00 C 35.54 74.51 35.14 70.78 37.05 67.66 C 35.75 74.30 36.08 81.13 34.74 87.77 C 37.53 89.94 38.29 93.78 41.23 95.76 C 42.51 96.69 43.69 97.75 44.69 98.98 C 44.35 99.30 43.66 99.95 43.32 100.27 C 42.67 101.81 42.22 103.43 41.72 105.02 C 40.77 103.56 39.83 102.10 38.88 100.65 C 38.20 100.54 36.84 100.33 36.16 100.23 C 36.20 99.77 36.27 98.85 36.31 98.39 C 37.80 98.49 40.56 101.19 41.09 98.99 C 39.93 97.14 37.49 96.73 35.71 95.66 C 35.71 93.36 35.57 91.05 35.19 88.78 C 33.85 90.25 33.65 92.15 33.71 94.03 C 33.87 102.46 31.53 110.69 28.76 118.58 C 29.93 110.01 33.52 101.78 33.46 93.01 C 33.25 87.92 35.21 83.07 35.24 78.00 Z" />
<path fill="#838487" opacity="0.93" d=" M 116.97 73.41 C 117.87 72.40 118.81 71.43 119.77 70.46 C 120.40 70.93 121.68 71.87 122.32 72.34 C 119.98 74.29 117.36 75.84 114.57 77.04 C 113.25 76.31 111.92 75.59 110.59 74.88 C 111.79 74.32 112.99 73.77 114.20 73.22 C 114.85 74.28 115.67 74.78 116.67 74.72 C 116.74 74.39 116.90 73.74 116.97 73.41 Z" />
<path fill="#838487" opacity="0.93" d=" M 40.10 79.04 C 40.84 75.94 43.87 73.65 46.96 73.24 C 45.42 75.88 42.92 77.91 40.10 79.04 Z" />
<path fill="#838487" opacity="0.93" d=" M 126.29 82.18 C 127.37 79.38 128.29 76.02 131.40 74.83 C 129.82 80.80 125.27 85.02 122.01 90.01 C 119.19 90.72 116.62 92.31 114.79 94.58 C 117.08 94.26 119.36 93.83 121.64 93.45 C 123.96 91.53 126.46 89.65 127.92 86.95 C 128.98 85.26 129.63 83.09 131.62 82.21 C 130.92 87.70 126.24 91.10 123.18 95.28 C 120.25 95.22 117.36 95.76 114.57 96.64 C 114.48 96.11 114.30 95.04 114.20 94.50 C 108.92 95.57 104.64 100.13 99.00 99.39 C 91.83 98.99 85.26 95.64 78.50 93.55 C 78.32 93.20 77.97 92.49 77.79 92.14 C 84.04 93.21 89.81 96.01 95.95 97.49 C 96.17 96.91 96.59 95.75 96.81 95.17 C 97.59 95.93 98.37 96.70 99.15 97.47 C 101.26 97.45 103.54 97.79 105.38 96.48 C 109.46 94.02 114.35 93.18 118.08 90.09 C 121.52 88.18 122.97 84.23 126.29 82.18 Z" />
<path fill="#838487" opacity="0.93" d=" M 31.97 84.88 C 30.75 83.45 30.98 82.53 32.65 82.13 C 32.84 83.14 32.61 84.06 31.97 84.88 Z" />
<path fill="#838487" opacity="0.93" d=" M 56.37 91.95 C 57.06 88.78 57.64 85.30 59.79 82.75 C 60.15 85.96 58.94 88.96 58.18 92.01 C 58.84 94.93 63.69 95.20 63.34 98.52 C 60.27 97.30 57.82 94.89 56.37 91.95 Z" />
<path fill="#838487" opacity="0.93" d=" M 106.89 87.03 C 110.75 85.49 115.02 85.56 118.86 83.98 C 117.04 86.75 113.20 85.87 110.45 86.77 C 111.36 88.12 112.37 89.44 113.05 90.94 C 110.81 91.14 110.47 88.85 109.83 87.27 C 109.02 87.34 107.38 87.46 106.57 87.53 C 107.39 88.36 108.15 89.25 108.86 90.17 C 110.36 91.89 107.62 91.46 106.87 91.15 C 106.42 91.32 105.54 91.65 105.09 91.82 C 102.60 88.54 98.64 89.47 95.31 90.57 C 93.96 89.99 92.58 89.49 91.11 89.36 C 90.72 90.70 90.74 92.35 89.48 93.26 C 89.33 92.23 89.03 90.17 88.88 89.14 C 88.03 89.79 87.17 90.43 86.31 91.07 C 86.44 90.39 86.69 89.02 86.81 88.34 C 83.54 88.78 80.23 88.78 76.95 88.40 C 74.22 88.06 71.34 88.56 68.75 87.44 C 74.86 86.43 81.00 89.28 86.99 87.34 C 89.77 88.00 92.48 88.96 95.30 89.44 C 99.25 89.25 103.20 88.48 106.89 87.03 Z" />
<path fill="#838487" opacity="0.93" d=" M 128.06 94.14 C 127.95 91.86 129.47 90.14 131.81 90.34 C 131.11 92.09 129.77 93.37 128.06 94.14 Z" />
<path fill="#838487" opacity="0.93" d=" M 147.68 90.96 C 148.66 91.63 149.80 92.70 148.85 93.99 C 146.24 100.35 141.13 105.41 138.97 112.01 C 137.54 117.57 134.34 122.52 133.35 128.22 C 132.94 127.94 132.13 127.39 131.72 127.11 C 133.20 121.19 136.34 115.90 137.99 110.05 C 140.43 103.24 146.82 98.37 147.68 90.96 Z" />
<path fill="#838487" opacity="0.93" d=" M 73.80 98.97 C 78.62 100.77 83.06 105.02 88.66 103.15 C 87.34 104.74 85.05 106.23 83.03 105.00 C 79.80 103.37 75.31 102.70 73.80 98.97 Z" />
<path fill="#838487" opacity="0.93" d=" M 47.98 100.60 C 51.93 102.65 51.06 107.94 48.96 111.04 C 47.57 108.95 50.59 104.49 46.45 105.16 C 46.95 103.64 47.46 102.11 47.98 100.60 Z" />
<path fill="#838487" opacity="0.93" d=" M 165.16 101.77 C 167.61 102.64 168.02 106.45 166.12 108.11 C 165.67 106.02 165.38 103.90 165.16 101.77 Z" />
<path fill="#838487" opacity="0.93" d=" M 133.12 105.26 C 134.73 104.78 135.26 105.35 134.71 106.98 C 133.08 107.47 132.56 106.90 133.12 105.26 Z" />
<path fill="#838487" opacity="0.93" d=" M 34.76 113.93 C 33.10 111.26 35.98 110.58 38.01 110.23 C 37.06 111.57 35.94 112.78 34.76 113.93 Z" />
<path fill="#838487" opacity="0.93" d=" M 35.36 116.22 C 37.19 114.83 38.46 112.57 40.91 112.19 C 39.75 116.11 35.14 117.01 33.30 120.45 C 32.78 120.43 31.75 120.40 31.23 120.39 C 32.19 118.62 33.80 117.42 35.36 116.22 Z" />
<path fill="#838487" opacity="0.93" d=" M 66.02 114.02 C 67.89 114.33 69.03 115.83 70.20 117.16 C 70.63 116.74 71.49 115.90 71.92 115.48 C 72.10 115.63 72.44 115.93 72.62 116.08 C 72.24 116.49 71.48 117.32 71.10 117.74 C 73.96 122.51 76.75 127.34 80.17 131.75 C 82.03 134.51 84.74 136.74 85.90 139.94 C 84.81 139.47 83.80 138.83 83.12 137.83 C 78.96 132.64 74.78 127.40 71.66 121.50 C 70.27 118.64 67.40 116.89 66.02 114.02 Z" />
<path fill="#838487" opacity="0.93" d=" M 40.54 121.44 C 41.49 120.85 42.74 118.84 43.86 120.33 C 43.36 121.92 41.78 122.70 40.61 123.73 C 38.43 125.40 36.61 127.53 34.20 128.90 C 35.26 125.66 38.18 123.68 40.54 121.44 Z" />
<path fill="#838487" opacity="0.93" d=" M 50.00 120.95 C 52.54 121.25 53.45 123.85 53.70 126.05 C 54.00 129.14 53.54 132.23 53.09 135.28 C 50.21 134.63 52.10 131.96 52.22 130.05 C 52.96 126.79 51.02 123.90 50.00 120.95 Z" />
<path fill="#838487" opacity="0.93" d=" M 49.50 128.90 C 49.98 129.13 50.94 129.58 51.42 129.80 C 50.70 133.23 50.13 136.79 50.76 140.29 C 52.05 144.56 57.45 145.59 58.86 149.77 C 55.86 148.94 53.98 146.24 51.68 144.33 C 47.19 140.49 48.92 133.98 49.50 128.90 Z" />
<path fill="#838487" opacity="0.93" d=" M 96.81 130.14 C 99.54 130.39 103.07 130.53 104.17 133.60 C 101.81 132.38 97.71 133.10 96.81 130.14 Z" />
<path fill="#838487" opacity="0.93" d=" M 111.98 138.11 C 112.18 135.73 113.92 134.08 115.84 132.90 C 115.20 134.96 114.55 137.81 111.98 138.11 Z" />
<path fill="#838487" opacity="0.93" d=" M 53.09 137.82 C 54.98 138.56 55.62 140.63 56.84 142.08 C 58.93 145.10 62.17 146.93 65.08 149.05 C 66.15 149.65 66.72 150.72 66.90 151.91 C 61.32 148.59 54.49 144.66 53.09 137.82 Z" />
<path fill="#838487" opacity="0.93" d=" M 113.64 149.04 C 114.18 145.87 111.56 142.89 112.86 139.82 C 116.04 145.17 115.99 152.03 113.40 157.62 C 112.14 159.95 111.92 163.35 108.98 164.22 C 109.87 158.95 114.24 154.66 113.64 149.04 Z" />
<path fill="#838487" opacity="0.93" d=" M 62.70 152.35 C 65.76 154.11 70.35 155.17 71.07 159.17 C 73.38 160.08 76.75 160.03 77.82 162.69 C 73.20 161.54 68.62 160.11 63.77 160.54 C 63.46 160.24 62.82 159.64 62.50 159.33 C 64.99 159.34 67.48 159.20 69.96 159.03 C 67.63 156.70 64.78 154.93 62.70 152.35 Z" />
<path fill="#838487" opacity="0.93" d=" M 129.11 163.35 C 131.33 162.43 132.57 159.99 134.87 159.10 C 133.88 161.26 132.27 163.01 130.64 164.70 C 125.26 163.91 120.02 167.95 114.88 165.20 C 114.78 164.76 114.60 163.88 114.51 163.44 C 119.26 165.88 124.16 163.09 129.11 163.35 Z" />
<path fill="#838487" opacity="0.93" d=" M 85.77 162.90 C 88.93 163.80 91.78 165.92 95.17 165.90 C 98.58 166.11 101.97 165.67 105.28 164.87 C 103.06 168.99 97.73 167.29 93.97 167.59 C 90.93 167.12 86.92 166.14 85.77 162.90 Z" />
<path fill="#838487" opacity="0.93" d=" M 102.94 169.75 C 107.80 170.01 112.45 168.08 117.31 168.44 C 116.16 169.56 114.47 169.15 113.04 169.40 C 103.92 171.46 94.51 169.99 85.26 170.53 L 85.22 169.68 C 91.13 169.78 97.04 169.62 102.94 169.75 Z" />
<path fill="#838487" opacity="0.93" d=" M 106.25 172.74 C 113.10 171.78 119.87 169.57 126.85 170.34 C 125.74 172.06 123.65 171.56 121.97 171.62 C 118.99 171.47 116.01 171.53 113.05 171.82 C 111.14 172.32 109.42 173.52 107.36 173.41 C 107.29 174.63 106.72 176.19 108.06 176.97 C 112.45 177.93 117.21 179.61 120.04 183.27 C 116.40 181.56 113.15 178.66 108.95 178.52 C 105.76 178.73 106.40 174.82 106.25 172.74 Z" />
<path fill="#838487" opacity="0.93" d=" M 105.91 202.77 C 104.83 199.55 105.12 196.04 105.69 192.75 C 106.46 196.03 106.85 199.47 105.91 202.77 Z" />
</g>
</svg>
