<?xml version="1.0" encoding="UTF-8" ?>
<!DOCTYPE svg PUBLIC "-//W3C//DTD SVG 1.1//EN" "http://www.w3.org/Graphics/SVG/1.1/DTD/svg11.dtd">
<svg width="210pt" height="220pt" viewBox="0 0 210 220" version="1.1" xmlns="http://www.w3.org/2000/svg">
<g id="#c0c0c0ff">
<path fill="#c0c0c0" opacity="1.00" d=" M 76.56 33.72 C 78.06 32.94 79.33 31.58 81.03 31.28 C 84.31 31.96 87.15 33.91 89.77 35.91 C 88.78 39.41 86.97 42.58 85.71 45.97 C 85.60 48.04 86.32 50.03 86.50 52.08 L 85.38 52.38 C 85.09 50.60 84.82 48.83 84.56 47.06 C 84.09 47.25 83.14 47.65 82.66 47.84 C 82.49 48.83 82.31 49.82 82.13 50.81 C 82.70 51.26 83.84 52.16 84.41 52.61 C 82.64 53.07 80.88 53.56 79.11 54.00 C 78.52 52.93 77.94 51.86 77.38 50.78 C 75.45 48.11 76.74 44.90 77.40 42.06 C 76.73 39.33 76.52 36.53 76.56 33.72 M 81.08 36.51 C 79.83 37.46 81.34 39.77 82.66 38.72 C 83.88 37.77 82.39 35.47 81.08 36.51 Z" />
<path fill="#c0c0c0" opacity="1.00" d=" M 76.27 62.86 C 77.08 60.56 77.83 58.23 78.24 55.81 C 78.36 57.22 78.46 58.63 78.55 60.04 C 80.17 59.15 81.80 58.28 83.42 57.38 C 83.95 60.80 85.14 64.10 87.66 66.57 C 88.03 69.33 89.29 71.82 90.92 74.06 C 93.17 77.10 93.47 80.97 93.87 84.60 C 94.42 84.87 95.51 85.41 96.06 85.68 C 93.61 86.42 91.17 87.51 89.48 89.50 C 85.84 92.70 88.17 97.89 87.68 102.04 C 89.49 104.53 92.86 102.64 95.36 102.54 C 93.54 103.76 91.34 104.10 89.24 104.53 C 89.16 105.72 89.09 106.91 89.03 108.11 C 87.87 105.93 86.66 103.77 85.83 101.45 C 85.27 98.58 86.19 95.62 85.49 92.76 C 83.45 85.30 80.35 78.09 79.31 70.38 C 78.66 67.74 76.99 65.48 76.27 62.86 Z" />
<path fill="#c0c0c0" opacity="1.00" d=" M 112.33 105.39 C 112.61 102.89 112.82 100.36 113.54 97.93 C 114.53 97.90 115.53 97.87 116.53 97.86 C 118.60 101.41 120.18 105.23 122.48 108.66 C 121.55 115.74 118.63 122.30 116.09 128.90 C 115.04 131.48 114.71 134.26 114.60 137.01 C 117.99 133.59 120.67 129.37 124.73 126.67 C 127.52 124.76 130.94 126.95 132.88 129.09 C 135.89 132.82 138.14 137.09 140.98 140.94 C 140.81 138.77 140.65 136.60 140.41 134.44 L 141.15 134.27 C 141.57 137.62 142.66 140.83 143.61 144.06 C 144.37 147.41 141.96 150.16 140.42 152.87 C 142.37 162.11 143.51 171.93 140.95 181.19 C 140.17 183.92 139.76 186.91 137.91 189.19 C 136.70 186.03 135.40 182.78 135.26 179.36 C 137.06 177.31 139.63 176.03 141.18 173.77 C 141.88 171.16 140.80 168.54 139.89 166.14 C 137.85 161.17 136.21 156.03 133.77 151.24 C 131.86 151.81 129.94 152.37 128.01 152.89 C 130.12 156.61 132.65 160.21 133.71 164.42 C 134.53 166.81 132.82 168.93 131.99 171.05 C 130.88 172.86 131.69 174.97 132.05 176.88 C 133.06 180.81 133.69 184.82 134.01 188.87 C 127.15 188.98 120.23 189.02 113.40 188.72 C 111.90 187.66 110.51 186.42 108.87 185.58 C 105.46 185.36 102.47 187.44 99.50 188.81 C 95.57 189.18 91.60 188.90 87.66 188.81 C 88.14 181.15 88.67 173.53 88.68 165.85 C 83.84 169.41 78.61 172.49 72.93 174.53 C 71.03 175.02 69.28 173.64 67.65 172.86 C 66.99 170.98 68.62 169.11 69.48 167.51 C 73.17 164.47 77.45 162.20 81.76 160.17 C 81.49 158.57 81.20 156.98 80.85 155.40 C 78.26 154.88 75.72 154.11 73.30 153.03 C 74.02 150.08 75.37 147.16 78.53 146.26 C 78.44 145.28 78.25 143.32 78.15 142.34 C 76.87 142.69 75.60 143.08 74.33 143.45 C 73.28 142.27 72.14 141.15 71.21 139.87 C 71.60 138.20 72.31 136.63 72.87 135.01 C 74.22 134.72 75.56 134.40 76.90 134.07 C 75.31 132.73 73.60 131.53 71.93 130.29 C 75.92 123.68 80.51 117.34 86.80 112.72 C 85.22 114.87 83.72 117.08 82.26 119.32 C 83.37 119.48 84.49 119.65 85.61 119.82 C 87.41 117.38 89.26 114.96 91.03 112.49 C 90.31 112.41 88.86 112.26 88.14 112.19 C 88.86 111.16 89.59 110.15 90.31 109.13 C 92.19 110.02 94.14 110.75 96.09 111.45 C 94.63 112.00 93.16 112.54 91.70 113.10 C 93.50 113.52 95.31 113.93 97.10 114.41 C 97.24 114.76 97.52 115.47 97.66 115.82 C 96.83 115.90 95.16 116.06 94.33 116.14 C 96.03 117.65 97.84 119.01 99.77 120.20 C 98.72 120.98 97.65 121.73 96.60 122.51 C 99.85 122.47 103.04 121.80 106.22 121.19 C 105.50 122.79 104.87 124.44 104.24 126.08 C 107.11 125.33 110.36 124.85 112.43 122.48 C 114.36 120.48 116.06 117.36 114.42 114.67 C 112.27 110.74 109.55 107.13 107.81 102.97 C 109.30 103.81 110.81 104.61 112.33 105.39 M 88.02 125.25 C 89.80 124.50 91.42 123.46 92.48 121.81 C 91.46 121.76 90.45 121.73 89.43 121.69 C 89.35 120.67 89.26 119.65 89.17 118.63 C 87.51 120.54 86.81 122.88 88.02 125.25 M 101.81 126.90 C 99.07 133.35 96.28 139.86 94.95 146.78 C 92.84 156.46 89.52 166.03 89.62 176.06 C 89.58 180.04 89.36 184.02 89.27 188.00 C 92.05 186.54 94.84 185.12 97.70 183.84 C 95.49 181.28 93.25 178.59 92.46 175.21 C 95.36 176.71 98.05 178.77 101.26 179.61 C 104.27 180.02 107.06 178.43 109.32 176.60 C 107.52 176.85 105.73 177.14 103.94 177.44 C 102.36 175.44 100.53 173.50 99.83 170.99 C 101.13 168.73 103.12 166.94 104.39 164.66 C 102.98 164.69 101.57 164.74 100.16 164.79 C 99.42 162.88 98.57 160.99 98.17 158.98 C 98.87 157.22 100.21 155.83 101.33 154.33 C 97.90 152.96 97.50 149.49 97.90 146.25 C 99.07 145.58 100.24 144.91 101.41 144.25 C 101.45 139.36 102.92 134.70 103.76 129.94 C 104.08 128.59 102.48 127.86 101.81 126.90 M 100.28 157.29 C 100.88 157.88 100.88 157.88 100.28 157.29 M 105.98 174.62 C 105.78 172.77 105.20 170.97 104.45 169.27 C 102.03 171.05 104.15 173.47 105.98 174.62 Z" />
<path fill="#c0c0c0" opacity="1.00" d=" M 102.71 107.83 C 102.95 106.86 104.01 106.38 104.62 105.65 C 105.49 106.54 106.36 107.43 107.23 108.32 C 105.95 109.78 104.88 111.67 102.95 112.34 C 100.90 112.82 99.00 111.67 97.25 110.78 C 97.72 110.84 98.65 110.95 99.12 111.00 C 101.31 111.87 102.67 109.77 102.71 107.83 Z" />
<path fill="#c0c0c0" opacity="1.00" d=" M 129.76 117.09 C 131.63 118.26 133.36 119.64 134.92 121.20 C 132.99 120.10 131.27 118.71 129.76 117.09 Z" />
<path fill="#c0c0c0" opacity="1.00" d=" M 132.25 172.93 C 133.92 171.30 135.79 169.89 137.86 168.82 C 138.29 170.85 138.68 172.90 139.05 174.95 C 138.04 175.36 137.02 175.73 135.98 176.06 C 134.39 175.54 133.46 173.98 132.25 172.93 Z" />
</g>
<g id="#fdfdfdff">
<path fill="#fdfdfd" opacity="1.00" d=" M 81.08 36.51 C 82.39 35.47 83.88 37.77 82.66 38.72 C 81.34 39.77 79.83 37.46 81.08 36.51 Z" />
<path fill="#fdfdfd" opacity="1.00" d=" M 82.66 47.84 C 83.14 47.65 84.09 47.25 84.56 47.06 C 84.82 48.83 85.09 50.60 85.38 52.38 L 84.41 52.61 C 83.84 52.16 82.70 51.26 82.13 50.81 C 82.31 49.82 82.49 48.83 82.66 47.84 Z" />
<path fill="#fdfdfd" opacity="1.00" d=" M 83.42 57.38 C 84.93 56.51 86.41 55.57 87.89 54.64 C 90.65 60.78 94.34 66.48 96.56 72.86 C 98.13 76.91 100.41 80.76 100.87 85.16 C 99.26 85.32 97.66 85.49 96.06 85.68 C 95.51 85.41 94.42 84.87 93.87 84.60 C 93.47 80.97 93.17 77.10 90.92 74.06 C 89.29 71.82 88.03 69.33 87.66 66.57 C 85.14 64.10 83.95 60.80 83.42 57.38 Z" />
<path fill="#fdfdfd" opacity="1.00" d=" M 102.35 84.75 C 102.67 84.80 103.31 84.90 103.63 84.95 C 105.80 85.85 107.97 86.80 109.96 88.07 C 113.09 90.62 113.82 94.96 116.53 97.86 C 115.53 97.87 114.53 97.90 113.54 97.93 C 113.89 97.48 114.58 96.56 114.93 96.10 C 113.36 93.40 111.77 90.70 109.98 88.12 C 106.57 88.16 104.08 90.07 102.54 92.99 C 102.66 90.24 102.64 87.49 102.35 84.75 Z" />
<path fill="#fdfdfd" opacity="1.00" d=" M 95.36 102.54 C 96.85 100.51 98.13 98.34 99.43 96.18 C 103.23 96.94 104.83 100.90 107.81 102.97 C 109.55 107.13 112.27 110.74 114.42 114.67 C 116.06 117.36 114.36 120.48 112.43 122.48 C 110.36 124.85 107.11 125.33 104.24 126.08 C 104.87 124.44 105.50 122.79 106.22 121.19 C 107.64 120.09 109.02 118.94 110.34 117.73 C 107.57 117.48 104.79 117.67 102.03 117.36 C 101.30 118.32 100.57 119.28 99.77 120.20 C 97.84 119.01 96.03 117.65 94.33 116.14 C 95.16 116.06 96.83 115.90 97.66 115.82 C 97.52 115.47 97.24 114.76 97.10 114.41 C 96.85 113.67 96.34 112.19 96.09 111.45 C 94.14 110.75 92.19 110.02 90.31 109.13 C 89.99 108.87 89.35 108.36 89.03 108.11 C 89.09 106.91 89.16 105.72 89.24 104.53 C 91.34 104.10 93.54 103.76 95.36 102.54 M 102.71 107.83 C 101.07 107.85 99.25 109.33 99.12 111.00 C 98.65 110.95 97.72 110.84 97.25 110.78 C 99.00 111.67 100.90 112.82 102.95 112.34 C 104.88 111.67 105.95 109.78 107.23 108.32 C 106.36 107.43 105.49 106.54 104.62 105.65 C 104.01 106.38 102.95 106.86 102.71 107.83 Z" />
<path fill="#fdfdfd" opacity="1.00" d=" M 116.09 128.90 C 118.63 122.30 121.55 115.74 122.48 108.66 C 123.92 112.29 126.80 114.73 129.76 117.09 C 131.27 118.71 132.99 120.10 134.92 121.20 C 139.21 124.03 138.80 130.05 140.41 134.44 C 140.65 136.60 140.81 138.77 140.98 140.94 C 138.14 137.09 135.89 132.82 132.88 129.09 C 130.94 126.95 127.52 124.76 124.73 126.67 C 120.67 129.37 117.99 133.59 114.60 137.01 C 114.71 134.26 115.04 131.48 116.09 128.90 Z" />
<path fill="#fdfdfd" opacity="1.00" d=" M 86.80 112.72 C 87.13 112.59 87.80 112.32 88.14 112.19 C 88.86 112.26 90.31 112.41 91.03 112.49 C 89.26 114.96 87.41 117.38 85.61 119.82 C 84.49 119.65 83.37 119.48 82.26 119.32 C 83.72 117.08 85.22 114.87 86.80 112.72 Z" />
<path fill="#fdfdfd" opacity="1.00" d=" M 88.02 125.25 C 86.81 122.88 87.51 120.54 89.17 118.63 C 89.26 119.65 89.35 120.67 89.43 121.69 C 90.45 121.73 91.46 121.76 92.48 121.81 C 91.42 123.46 89.80 124.50 88.02 125.25 Z" />
<path fill="#fdfdfd" opacity="1.00" d=" M 101.81 126.90 C 102.48 127.86 104.08 128.59 103.76 129.94 C 102.92 134.70 101.45 139.36 101.41 144.25 C 100.24 144.91 99.07 145.58 97.90 146.25 C 97.50 149.49 97.90 152.96 101.33 154.33 C 100.21 155.83 98.87 157.22 98.17 158.98 C 98.57 160.99 99.42 162.88 100.16 164.79 C 101.57 164.74 102.98 164.69 104.39 164.66 C 103.12 166.94 101.13 168.73 99.83 170.99 C 100.53 173.50 102.36 175.44 103.94 177.44 C 105.73 177.14 107.52 176.85 109.32 176.60 C 107.06 178.43 104.27 180.02 101.26 179.61 C 98.05 178.77 95.36 176.71 92.46 175.21 C 93.25 178.59 95.49 181.28 97.70 183.84 C 94.84 185.12 92.05 186.54 89.27 188.00 C 89.36 184.02 89.58 180.04 89.62 176.06 C 89.52 166.03 92.84 156.46 94.95 146.78 C 96.28 139.86 99.07 133.35 101.81 126.90 Z" />
<path fill="#fdfdfd" opacity="1.00" d=" M 128.01 152.89 C 129.94 152.37 131.86 151.81 133.77 151.24 C 136.21 156.03 137.85 161.17 139.89 166.14 C 140.80 168.54 141.88 171.16 141.18 173.77 C 139.63 176.03 137.06 177.31 135.26 179.36 C 135.40 182.78 136.70 186.03 137.91 189.19 C 136.94 189.11 134.99 188.95 134.01 188.87 C 133.69 184.82 133.06 180.81 132.05 176.88 C 131.69 174.97 130.88 172.86 131.99 171.05 C 132.82 168.93 134.53 166.81 133.71 164.42 C 132.65 160.21 130.12 156.61 128.01 152.89 M 132.25 172.93 C 133.46 173.98 134.39 175.54 135.98 176.06 C 137.02 175.73 138.04 175.36 139.05 174.95 C 138.68 172.90 138.29 170.85 137.86 168.82 C 135.79 169.89 133.92 171.30 132.25 172.93 Z" />
<path fill="#fdfdfd" opacity="1.00" d=" M 99.50 188.81 C 102.47 187.44 105.46 185.36 108.87 185.58 C 110.51 186.42 111.90 187.66 113.40 188.72 C 108.78 189.04 104.13 188.96 99.50 188.81 Z" />
</g>
<g id="#010101fe">
<path fill="#010101" opacity="1.00" d=" M 77.38 50.78 C 77.94 51.86 78.52 52.93 79.11 54.00 C 80.88 53.56 82.64 53.07 84.41 52.61 L 85.38 52.38 L 86.50 52.08 C 90.11 55.61 91.18 60.75 93.75 64.96 C 97.48 71.38 98.15 79.65 103.63 84.95 C 103.31 84.90 102.67 84.80 102.35 84.75 C 102.64 87.49 102.66 90.24 102.54 92.99 C 104.08 90.07 106.57 88.16 109.98 88.12 C 111.77 90.70 113.36 93.40 114.93 96.10 C 114.58 96.56 113.89 97.48 113.54 97.93 C 112.82 100.36 112.61 102.89 112.33 105.39 C 110.81 104.61 109.30 103.81 107.81 102.97 C 104.83 100.90 103.23 96.94 99.43 96.18 C 98.13 98.34 96.85 100.51 95.36 102.54 C 92.86 102.64 89.49 104.53 87.68 102.04 C 88.17 97.89 85.84 92.70 89.48 89.50 C 91.17 87.51 93.61 86.42 96.06 85.68 C 97.66 85.49 99.26 85.32 100.87 85.16 C 100.41 80.76 98.13 76.91 96.56 72.86 C 94.34 66.48 90.65 60.78 87.89 54.64 C 86.41 55.57 84.93 56.51 83.42 57.38 C 81.80 58.28 80.17 59.15 78.55 60.04 C 78.46 58.63 78.36 57.22 78.24 55.81 C 78.08 54.11 77.71 52.45 77.38 50.78 Z" />
<path fill="#010101" opacity="1.00" d=" M 99.12 111.00 C 99.25 109.33 101.07 107.85 102.71 107.83 C 102.67 109.77 101.31 111.87 99.12 111.00 Z" />
<path fill="#010101" opacity="1.00" d=" M 91.70 113.10 C 93.16 112.54 94.63 112.00 96.09 111.45 C 96.34 112.19 96.85 113.67 97.10 114.41 C 95.31 113.93 93.50 113.52 91.70 113.10 Z" />
<path fill="#010101" opacity="1.00" d=" M 102.03 117.36 C 104.79 117.67 107.57 117.48 110.34 117.73 C 109.02 118.94 107.64 120.09 106.22 121.19 C 103.04 121.80 99.85 122.47 96.60 122.51 C 97.65 121.73 98.72 120.98 99.77 120.20 C 100.57 119.28 101.30 118.32 102.03 117.36 Z" />
<path fill="#010101" opacity="1.00" d=" M 100.28 157.29 C 100.88 157.88 100.88 157.88 100.28 157.29 Z" />
<path fill="#010101" opacity="1.00" d=" M 105.98 174.62 C 104.15 173.47 102.03 171.05 104.45 169.27 C 105.20 170.97 105.78 172.77 105.98 174.62 Z" />
</g>
</svg>
