<?xml version="1.0" encoding="UTF-8" ?>
<!DOCTYPE svg PUBLIC "-//W3C//DTD SVG 1.1//EN" "http://www.w3.org/Graphics/SVG/1.1/DTD/svg11.dtd">
<svg width="210pt" height="220pt" viewBox="0 0 210 220" version="1.1" xmlns="http://www.w3.org/2000/svg">
<g id="#fefefeff">
<path fill="#fefefe" opacity="1.00" d=" M 73.98 26.28 C 77.72 26.38 81.38 25.27 85.12 25.28 C 87.69 25.53 90.14 26.37 92.67 26.86 C 84.20 26.37 75.71 26.65 67.23 26.77 C 69.38 25.86 71.72 26.37 73.98 26.28 Z" />
<path fill="#fefefe" opacity="1.00" d=" M 109.98 41.89 C 113.89 39.71 118.29 37.67 120.48 33.50 C 125.26 37.04 130.02 40.66 133.90 45.20 C 133.42 45.65 132.47 46.54 132.00 46.98 C 133.74 48.25 135.95 49.36 136.54 51.62 C 138.70 58.29 140.60 65.31 145.13 70.83 C 148.13 74.45 150.62 78.51 152.18 82.95 C 153.27 87.10 154.95 91.07 155.93 95.26 C 156.67 98.71 158.61 101.72 159.62 105.08 C 160.74 108.38 161.19 111.87 162.49 115.11 C 162.58 116.72 162.66 118.33 162.76 119.94 C 163.73 122.12 164.51 124.40 164.55 126.81 C 164.99 134.79 164.38 142.79 164.83 150.76 C 166.21 154.96 165.48 159.46 165.64 163.80 C 162.98 166.01 162.18 169.37 161.43 172.58 C 161.06 172.92 160.32 173.59 159.94 173.92 C 158.75 179.16 157.23 184.38 154.85 189.22 C 154.56 191.58 153.83 193.85 153.10 196.11 C 113.07 195.73 73.02 196.33 33.00 195.80 C 32.55 194.13 31.83 192.55 31.01 191.04 C 28.29 185.71 27.36 179.73 26.62 173.86 C 30.06 176.22 31.85 179.94 33.78 183.48 C 37.03 186.77 41.59 188.15 45.53 190.40 C 48.27 192.03 51.05 193.59 53.97 194.89 C 53.44 193.41 52.84 191.73 51.24 191.13 C 46.82 188.71 42.20 186.66 37.83 184.15 C 34.29 182.53 33.83 178.23 31.46 175.53 C 30.00 173.97 28.44 172.52 26.85 171.09 C 27.09 160.67 20.73 151.55 20.20 141.30 C 19.80 139.99 19.42 138.65 19.05 137.33 C 18.37 135.96 17.25 134.68 17.32 133.06 C 17.10 124.65 17.92 116.26 17.57 107.85 C 20.81 106.33 24.59 104.96 26.32 101.56 C 28.32 97.80 29.72 93.74 32.10 90.18 C 35.43 83.69 37.17 75.11 44.63 72.03 C 44.65 71.46 44.70 70.34 44.72 69.78 C 50.23 66.58 55.93 63.74 61.53 60.73 C 70.50 55.68 80.45 52.78 89.97 48.98 C 96.50 46.24 103.44 44.61 109.98 41.89 M 111.27 57.04 C 114.32 55.23 117.78 55.18 121.22 55.00 C 118.67 56.32 115.67 56.33 113.11 57.67 C 110.27 60.65 107.31 63.53 104.13 66.15 C 99.58 71.28 96.63 78.13 97.60 85.08 C 98.43 85.70 99.24 86.33 100.06 86.96 C 102.15 90.45 104.01 94.12 106.79 97.13 C 109.00 98.20 111.02 99.60 112.91 101.17 C 116.59 102.11 120.12 103.67 123.90 104.17 C 126.95 104.31 129.99 104.18 133.04 104.24 C 139.49 104.82 144.54 99.39 147.63 94.32 C 147.56 91.07 147.97 87.76 147.40 84.55 C 146.57 83.35 145.54 82.31 144.58 81.22 C 144.58 80.03 144.59 78.84 144.59 77.64 C 142.42 74.70 140.23 71.74 138.61 68.45 C 137.91 66.55 135.85 66.02 134.27 65.12 C 131.75 60.10 127.80 54.78 122.11 53.32 C 118.38 53.41 112.04 51.65 111.27 57.04 M 49.17 76.32 C 48.43 77.98 46.82 78.47 45.17 78.79 C 42.56 81.05 39.63 82.89 36.90 85.00 C 36.06 87.36 35.05 89.69 35.20 92.26 C 34.63 93.11 34.05 93.95 33.47 94.80 C 33.47 96.80 33.48 98.81 33.57 100.81 C 35.53 101.89 35.83 103.93 35.90 105.96 C 36.91 108.54 36.10 111.44 37.03 114.01 C 39.13 117.18 42.26 119.56 45.55 121.42 C 49.67 121.32 53.80 121.39 57.92 121.33 C 59.58 119.82 61.26 118.34 62.83 116.73 C 64.52 115.15 66.42 113.72 67.70 111.76 C 70.58 106.69 75.34 102.91 77.10 97.19 C 77.44 95.86 77.80 94.53 78.28 93.24 C 78.31 91.14 78.39 89.04 78.15 86.95 C 77.30 86.84 75.59 86.61 74.74 86.50 C 75.59 88.60 77.27 90.74 76.09 93.08 C 75.14 98.56 71.84 103.12 68.28 107.21 C 65.73 112.30 60.92 115.47 57.10 119.50 C 53.34 119.46 49.58 119.46 45.83 119.51 C 42.98 117.29 38.69 115.29 38.56 111.16 C 38.62 108.00 37.53 104.98 37.46 101.83 C 39.66 101.32 41.88 100.98 44.11 100.63 C 45.25 99.35 46.45 98.13 47.69 96.96 C 48.06 94.60 47.10 92.51 46.00 90.51 C 43.18 90.75 39.60 88.48 37.56 91.23 C 39.77 91.87 42.05 92.22 44.34 92.30 C 44.84 93.70 46.89 95.66 44.87 96.86 C 42.75 99.90 38.54 99.00 35.57 100.65 C 34.97 97.95 35.33 95.18 37.05 92.95 C 37.20 90.79 37.65 88.67 38.53 86.68 C 40.97 84.60 43.55 82.68 46.09 80.73 C 47.82 80.06 49.53 79.29 51.04 78.20 C 56.81 77.45 62.69 79.08 67.17 82.78 C 69.25 85.30 69.31 88.78 71.06 91.49 C 72.12 91.53 74.24 91.61 75.30 91.65 C 73.53 90.08 71.68 88.57 70.55 86.45 C 71.61 86.45 73.72 86.44 74.78 86.44 L 74.61 85.06 C 71.49 83.80 70.07 80.52 67.42 78.65 C 66.06 78.42 64.68 78.45 63.31 78.36 C 59.18 75.33 53.94 76.22 49.17 76.32 M 91.80 147.87 C 90.63 150.93 88.65 153.65 87.81 156.85 C 86.97 160.86 83.28 163.68 83.26 167.97 C 85.98 168.83 88.39 170.45 91.09 171.38 C 93.47 171.74 95.89 171.81 98.25 172.36 C 104.48 167.46 110.53 162.26 117.44 158.27 C 120.46 156.69 119.84 153.06 119.56 150.26 C 115.06 147.62 110.42 144.36 104.97 144.54 C 100.31 144.17 96.18 146.72 91.80 147.87 Z" />
<path fill="#fefefe" opacity="1.00" d=" M 119.31 57.43 C 120.31 56.69 121.29 55.93 122.28 55.18 C 127.14 57.30 130.03 61.96 132.84 66.22 C 134.22 67.49 136.29 68.08 137.05 69.93 C 138.48 72.92 140.51 75.55 142.60 78.10 C 142.63 79.45 142.65 80.81 142.67 82.16 C 143.67 83.19 144.78 84.15 145.62 85.33 C 145.87 88.14 145.71 90.98 145.61 93.79 C 144.69 95.02 143.88 96.31 143.14 97.63 C 140.98 99.32 138.71 100.84 136.41 102.31 C 131.95 102.21 127.49 102.32 123.02 102.21 C 120.68 101.37 118.25 100.80 115.98 99.78 C 115.44 99.69 114.34 99.51 113.80 99.42 C 111.30 97.15 107.98 95.80 105.99 92.98 C 104.06 89.74 102.38 86.21 99.48 83.68 C 98.82 77.71 101.92 72.07 105.52 67.54 C 110.03 64.07 113.34 58.54 119.31 57.43 M 122.71 64.54 C 122.71 67.81 122.71 71.07 122.70 74.33 C 126.49 75.29 130.22 76.70 134.21 76.38 C 134.72 76.03 135.76 75.34 136.28 75.00 C 136.42 73.98 136.54 72.96 136.66 71.94 C 135.27 72.15 134.40 73.10 133.85 74.34 C 130.61 74.83 127.57 73.64 124.59 72.57 C 124.67 69.87 124.68 67.16 124.66 64.46 C 124.17 64.48 123.20 64.52 122.71 64.54 Z" />
<path fill="#fefefe" opacity="1.00" d=" M 139.27 57.06 C 142.80 58.88 144.77 62.27 147.08 65.29 C 147.32 67.06 147.53 68.84 147.61 70.62 C 144.87 68.23 143.93 64.56 141.89 61.67 L 140.35 61.08 C 140.08 60.07 139.54 58.06 139.27 57.06 Z" />
<path fill="#fefefe" opacity="1.00" d=" M 154.28 84.38 C 154.47 84.36 154.85 84.34 155.04 84.33 C 155.50 86.92 157.53 88.61 159.25 90.39 C 159.25 91.28 159.24 93.06 159.23 93.95 C 163.75 99.40 165.13 106.87 164.20 113.76 C 162.84 110.54 162.49 107.00 161.30 103.72 C 160.50 100.59 158.35 97.99 157.94 94.75 C 156.90 91.22 156.14 87.60 154.28 84.38 Z" />
<path fill="#fefefe" opacity="1.00" d=" M 14.82 108.81 C 16.44 111.22 15.58 114.27 15.77 116.99 C 15.43 123.00 15.22 129.02 15.42 135.04 C 15.96 136.05 16.56 137.01 17.23 137.94 C 18.66 142.96 18.27 148.38 20.90 153.05 C 21.95 158.85 25.35 164.18 24.51 170.28 C 24.02 168.55 23.58 166.82 23.08 165.11 C 21.37 162.25 19.74 159.35 17.71 156.71 C 18.14 151.34 15.29 146.49 15.59 141.13 C 13.87 136.25 14.73 131.05 14.55 125.99 C 14.68 120.27 14.06 114.50 14.82 108.81 Z" />
<path fill="#fefefe" opacity="1.00" d=" M 99.09 146.92 C 102.55 146.46 106.05 146.48 109.53 146.76 C 109.49 147.09 109.41 147.75 109.37 148.08 C 106.51 148.89 103.70 149.87 100.89 150.87 C 100.28 149.56 99.68 148.24 99.09 146.92 Z" />
<path fill="#fefefe" opacity="1.00" d=" M 93.22 149.56 C 94.47 149.03 95.71 148.47 97.03 148.12 C 98.30 148.90 98.57 150.44 99.11 151.71 C 95.73 153.00 92.75 155.05 89.77 157.07 C 90.75 154.49 92.14 152.10 93.22 149.56 Z" />
<path fill="#fefefe" opacity="1.00" d=" M 89.14 160.12 C 95.50 153.75 104.74 152.29 112.50 148.36 C 114.44 149.27 116.39 150.32 117.84 151.94 C 117.84 153.31 117.96 154.77 117.38 156.06 C 112.95 159.03 108.18 161.62 104.37 165.43 C 101.55 167.36 98.72 170.13 95.03 169.80 C 91.34 170.21 88.31 167.77 85.30 166.05 C 86.51 164.03 87.68 161.97 89.14 160.12 Z" />
</g>
<g id="#000000ff">
<path fill="#000000" opacity="1.00" d=" M 92.67 26.86 C 100.53 28.98 109.13 23.51 116.33 28.55 C 118.61 28.34 120.87 28.04 123.15 27.76 C 123.25 28.22 123.47 29.13 123.57 29.59 C 122.13 29.74 120.69 29.91 119.25 30.08 C 124.45 34.75 130.85 38.22 134.87 44.11 C 137.95 48.75 141.54 53.03 145.52 56.93 C 145.90 59.22 146.99 61.25 148.49 63.00 C 148.79 65.35 149.18 67.68 149.54 70.03 C 150.59 71.94 151.50 73.96 151.77 76.15 C 153.33 78.94 155.08 81.61 157.08 84.10 C 157.21 84.56 157.48 85.47 157.61 85.93 C 159.59 87.81 161.17 90.06 160.90 92.93 C 164.63 97.38 166.09 103.28 165.84 109.00 C 165.47 118.37 167.84 127.69 166.72 137.04 C 166.54 141.89 166.67 146.74 166.71 151.58 C 167.46 151.46 168.97 151.22 169.72 151.10 C 169.71 154.33 169.71 157.56 169.53 160.79 C 167.83 165.23 166.93 170.09 163.79 173.84 C 161.82 179.76 159.46 185.54 157.01 191.28 C 156.06 193.12 155.54 195.76 153.10 196.11 C 153.83 193.85 154.56 191.58 154.85 189.22 C 157.23 184.38 158.75 179.16 159.94 173.92 C 160.32 173.59 161.06 172.92 161.43 172.58 C 162.18 169.37 162.98 166.01 165.64 163.80 C 165.48 159.46 166.21 154.96 164.83 150.76 C 164.38 142.79 164.99 134.79 164.55 126.81 C 164.51 124.40 163.73 122.12 162.76 119.94 C 162.66 118.33 162.58 116.72 162.49 115.11 C 161.19 111.87 160.74 108.38 159.62 105.08 C 158.61 101.72 156.67 98.71 155.93 95.26 C 154.95 91.07 153.27 87.10 152.18 82.95 C 150.62 78.51 148.13 74.45 145.13 70.83 C 140.60 65.31 138.70 58.29 136.54 51.62 C 135.95 49.36 133.74 48.25 132.00 46.98 C 132.47 46.54 133.42 45.65 133.90 45.20 C 130.02 40.66 125.26 37.04 120.48 33.50 C 118.29 37.67 113.89 39.71 109.98 41.89 C 103.44 44.61 96.50 46.24 89.97 48.98 C 80.45 52.78 70.50 55.68 61.53 60.73 C 55.93 63.74 50.23 66.58 44.72 69.78 C 44.70 70.34 44.65 71.46 44.63 72.03 C 37.17 75.11 35.43 83.69 32.10 90.18 C 29.72 93.74 28.32 97.80 26.32 101.56 C 24.59 104.96 20.81 106.33 17.57 107.85 C 17.92 116.26 17.10 124.65 17.32 133.06 C 17.25 134.68 18.37 135.96 19.05 137.33 C 19.42 138.65 19.80 139.99 20.20 141.30 C 20.73 151.55 27.09 160.67 26.85 171.09 C 28.44 172.52 30.00 173.97 31.46 175.53 C 33.83 178.23 34.29 182.53 37.83 184.15 C 42.20 186.66 46.82 188.71 51.24 191.13 C 52.84 191.73 53.44 193.41 53.97 194.89 C 51.05 193.59 48.27 192.03 45.53 190.40 C 41.59 188.15 37.03 186.77 33.78 183.48 C 31.85 179.94 30.06 176.22 26.62 173.86 C 27.36 179.73 28.29 185.71 31.01 191.04 C 31.83 192.55 32.55 194.13 33.00 195.80 L 33.25 196.64 C 29.85 194.51 28.41 190.51 27.21 186.88 C 25.66 182.08 25.20 177.04 25.21 172.02 C 24.44 171.55 23.66 171.08 22.89 170.62 C 21.81 165.91 19.08 161.87 16.36 157.97 C 15.42 150.30 13.40 142.76 13.07 135.02 C 13.28 127.17 12.48 119.34 12.68 111.49 C 11.35 111.51 10.01 111.54 8.68 111.57 C 5.90 109.64 2.67 107.61 1.93 104.03 C 1.20 99.03 1.83 93.88 3.75 89.20 C 5.85 84.30 6.14 78.79 8.75 74.10 C 12.75 66.65 17.85 59.87 21.78 52.38 C 26.85 46.34 32.83 40.61 40.42 37.95 C 37.35 37.10 34.32 36.10 31.29 35.12 C 31.87 33.76 32.46 32.40 33.05 31.05 C 36.83 32.67 40.14 35.19 43.94 36.76 C 49.92 35.59 54.42 31.08 60.11 29.15 C 62.44 28.26 64.74 27.14 67.23 26.77 C 75.71 26.65 84.20 26.37 92.67 26.86 M 139.27 57.06 C 139.54 58.06 140.08 60.07 140.35 61.08 L 141.89 61.67 C 143.93 64.56 144.87 68.23 147.61 70.62 C 147.53 68.84 147.32 67.06 147.08 65.29 C 144.77 62.27 142.80 58.88 139.27 57.06 M 154.28 84.38 C 156.14 87.60 156.90 91.22 157.94 94.75 C 158.35 97.99 160.50 100.59 161.30 103.72 C 162.49 107.00 162.84 110.54 164.20 113.76 C 165.13 106.87 163.75 99.40 159.23 93.95 C 159.24 93.06 159.25 91.28 159.25 90.39 C 157.53 88.61 155.50 86.92 155.04 84.33 C 154.85 84.34 154.47 84.36 154.28 84.38 M 14.82 108.81 C 14.06 114.50 14.68 120.27 14.55 125.99 C 14.73 131.05 13.87 136.25 15.59 141.13 C 15.29 146.49 18.14 151.34 17.71 156.71 C 19.74 159.35 21.37 162.25 23.08 165.11 C 23.58 166.82 24.02 168.55 24.51 170.28 C 25.35 164.18 21.95 158.85 20.90 153.05 C 18.27 148.38 18.66 142.96 17.23 137.94 C 16.56 137.01 15.96 136.05 15.42 135.04 C 15.22 129.02 15.43 123.00 15.77 116.99 C 15.58 114.27 16.44 111.22 14.82 108.81 Z" />
<path fill="#000000" opacity="1.00" d=" M 111.27 57.04 C 112.04 51.65 118.38 53.41 122.11 53.32 C 127.80 54.78 131.75 60.10 134.27 65.12 C 135.85 66.02 137.91 66.55 138.61 68.45 C 140.23 71.74 142.42 74.70 144.59 77.64 C 144.59 78.84 144.58 80.03 144.58 81.22 C 145.54 82.31 146.57 83.35 147.40 84.55 C 147.97 87.76 147.56 91.07 147.63 94.32 C 144.54 99.39 139.49 104.82 133.04 104.24 C 129.99 104.18 126.95 104.31 123.90 104.17 C 120.12 103.67 116.59 102.11 112.91 101.17 C 111.02 99.60 109.00 98.20 106.79 97.13 C 104.01 94.12 102.15 90.45 100.06 86.96 C 99.24 86.33 98.43 85.70 97.60 85.08 C 96.63 78.13 99.58 71.28 104.13 66.15 C 107.31 63.53 110.27 60.65 113.11 57.67 C 115.67 56.33 118.67 56.32 121.22 55.00 C 117.78 55.18 114.32 55.23 111.27 57.04 M 119.31 57.43 C 113.34 58.54 110.03 64.07 105.52 67.54 C 101.92 72.07 98.82 77.71 99.48 83.68 C 102.38 86.21 104.06 89.74 105.99 92.98 C 107.98 95.80 111.30 97.15 113.80 99.42 C 114.34 99.51 115.44 99.69 115.98 99.78 C 118.25 100.80 120.68 101.37 123.02 102.21 C 127.49 102.32 131.95 102.21 136.41 102.31 C 138.71 100.84 140.98 99.32 143.14 97.63 C 143.88 96.31 144.69 95.02 145.61 93.79 C 145.71 90.98 145.87 88.14 145.62 85.33 C 144.78 84.15 143.67 83.19 142.67 82.16 C 142.65 80.81 142.63 79.45 142.60 78.10 C 140.51 75.55 138.48 72.92 137.05 69.93 C 136.29 68.08 134.22 67.49 132.84 66.22 C 130.03 61.96 127.14 57.30 122.28 55.18 C 121.29 55.93 120.31 56.69 119.31 57.43 Z" />
<path fill="#000000" opacity="1.00" d=" M 122.71 64.54 C 123.20 64.52 124.17 64.48 124.66 64.46 C 124.68 67.16 124.67 69.87 124.59 72.57 C 127.57 73.64 130.61 74.83 133.85 74.34 C 134.40 73.10 135.27 72.15 136.66 71.94 C 136.54 72.96 136.42 73.98 136.28 75.00 C 135.76 75.34 134.72 76.03 134.21 76.38 C 130.22 76.70 126.49 75.29 122.70 74.33 C 122.71 71.07 122.71 67.81 122.71 64.54 Z" />
<path fill="#000000" opacity="1.00" d=" M 49.17 76.32 C 53.94 76.22 59.18 75.33 63.31 78.36 C 64.68 78.45 66.06 78.42 67.42 78.65 C 70.07 80.52 71.49 83.80 74.61 85.06 L 74.78 86.44 C 73.72 86.44 71.61 86.45 70.55 86.45 C 71.68 88.57 73.53 90.08 75.30 91.65 C 74.24 91.61 72.12 91.53 71.06 91.49 C 69.31 88.78 69.25 85.30 67.17 82.78 C 62.69 79.08 56.81 77.45 51.04 78.20 C 49.53 79.29 47.82 80.06 46.09 80.73 C 43.55 82.68 40.97 84.60 38.53 86.68 C 37.65 88.67 37.20 90.79 37.05 92.95 C 35.33 95.18 34.97 97.95 35.57 100.65 C 38.54 99.00 42.75 99.90 44.87 96.86 C 46.89 95.66 44.84 93.70 44.34 92.30 C 42.05 92.22 39.77 91.87 37.56 91.23 C 39.60 88.48 43.18 90.75 46.00 90.51 C 47.10 92.51 48.06 94.60 47.69 96.96 C 46.45 98.13 45.25 99.35 44.11 100.63 C 41.88 100.98 39.66 101.32 37.46 101.83 C 37.53 104.98 38.62 108.00 38.56 111.16 C 38.69 115.29 42.98 117.29 45.83 119.51 C 49.58 119.46 53.34 119.46 57.10 119.50 C 60.92 115.47 65.73 112.30 68.28 107.21 C 71.84 103.12 75.14 98.56 76.09 93.08 C 77.27 90.74 75.59 88.60 74.74 86.50 C 75.59 86.61 77.30 86.84 78.15 86.95 C 78.39 89.04 78.31 91.14 78.28 93.24 C 77.80 94.53 77.44 95.86 77.10 97.19 C 75.34 102.91 70.58 106.69 67.70 111.76 C 66.42 113.72 64.52 115.15 62.83 116.73 C 61.26 118.34 59.58 119.82 57.92 121.33 C 53.80 121.39 49.67 121.32 45.55 121.42 C 42.26 119.56 39.13 117.18 37.03 114.01 C 36.10 111.44 36.91 108.54 35.90 105.96 C 35.83 103.93 35.53 101.89 33.57 100.81 C 33.48 98.81 33.47 96.80 33.47 94.80 C 34.05 93.95 34.63 93.11 35.20 92.26 C 35.05 89.69 36.06 87.36 36.90 85.00 C 39.63 82.89 42.56 81.05 45.17 78.79 C 46.82 78.47 48.43 77.98 49.17 76.32 Z" />
<path fill="#000000" opacity="1.00" d=" M 91.80 147.87 C 96.18 146.72 100.31 144.17 104.97 144.54 C 110.42 144.36 115.06 147.62 119.56 150.26 C 119.84 153.06 120.46 156.69 117.44 158.27 C 110.53 162.26 104.48 167.46 98.25 172.36 C 95.89 171.81 93.47 171.74 91.09 171.38 C 88.39 170.45 85.98 168.83 83.26 167.97 C 83.28 163.68 86.97 160.86 87.81 156.85 C 88.65 153.65 90.63 150.93 91.80 147.87 M 99.09 146.92 C 99.68 148.24 100.28 149.56 100.89 150.87 C 103.70 149.87 106.51 148.89 109.37 148.08 C 109.41 147.75 109.49 147.09 109.53 146.76 C 106.05 146.48 102.55 146.46 99.09 146.92 M 93.22 149.56 C 92.14 152.10 90.75 154.49 89.77 157.07 C 92.75 155.05 95.73 153.00 99.11 151.71 C 98.57 150.44 98.30 148.90 97.03 148.12 C 95.71 148.47 94.47 149.03 93.22 149.56 M 89.14 160.12 C 87.68 161.97 86.51 164.03 85.30 166.05 C 88.31 167.77 91.34 170.21 95.03 169.80 C 98.72 170.13 101.55 167.36 104.37 165.43 C 108.18 161.62 112.95 159.03 117.38 156.06 C 117.96 154.77 117.84 153.31 117.84 151.94 C 116.39 150.32 114.44 149.27 112.50 148.36 C 104.74 152.29 95.50 153.75 89.14 160.12 Z" />
</g>
</svg>
