<?xml version="1.0" encoding="UTF-8" ?>
<!DOCTYPE svg PUBLIC "-//W3C//DTD SVG 1.1//EN" "http://www.w3.org/Graphics/SVG/1.1/DTD/svg11.dtd">
<svg width="210pt" height="220pt" viewBox="0 0 210 220" version="1.1" xmlns="http://www.w3.org/2000/svg">
<g id="#fcfcfcff">
<path fill="#fcfcfc" opacity="1.00" d=" M 105.62 43.10 C 106.25 41.64 107.20 41.40 108.47 42.36 C 108.86 43.70 108.29 44.36 106.77 44.34 C 106.49 44.03 105.91 43.41 105.62 43.10 Z" />
<path fill="#fcfcfc" opacity="1.00" d=" M 126.57 43.13 C 126.68 41.44 129.61 41.36 129.72 43.08 C 129.57 44.71 126.72 44.84 126.57 43.13 Z" />
<path fill="#fcfcfc" opacity="1.00" d=" M 147.57 43.12 C 147.69 41.44 150.59 41.35 150.72 43.06 C 150.59 44.69 147.72 44.84 147.57 43.12 Z" />
<path fill="#fcfcfc" opacity="1.00" d=" M 93.74 44.57 C 96.20 43.16 99.85 42.96 102.27 44.52 C 100.21 44.52 98.16 44.52 96.10 44.58 C 94.66 46.35 93.01 48.00 90.82 48.79 C 86.85 50.24 84.02 53.47 80.85 56.10 C 81.17 56.97 81.49 57.84 81.82 58.72 C 78.37 62.32 75.84 66.65 72.80 70.58 C 71.17 69.51 69.86 71.13 68.72 72.11 C 69.30 70.88 69.87 69.65 70.42 68.41 L 70.25 70.04 C 71.67 69.53 73.06 68.91 74.32 68.05 C 74.43 65.71 76.73 64.64 77.76 62.77 C 79.74 60.45 79.43 57.24 81.05 54.71 C 82.06 54.12 82.90 53.34 83.49 52.32 C 84.43 51.85 85.38 51.37 86.33 50.89 C 86.97 49.63 87.89 48.54 88.71 47.40 C 88.53 47.98 88.17 49.14 88.00 49.72 C 89.88 47.97 94.52 48.07 93.74 44.57 Z" />
<path fill="#fcfcfc" opacity="1.00" d=" M 137.12 56.87 C 137.74 56.04 138.37 55.20 138.98 54.35 C 139.62 54.36 140.89 54.39 141.53 54.40 C 141.60 55.74 142.02 57.00 142.74 58.14 C 142.66 59.55 142.56 60.96 142.45 62.37 C 143.42 63.00 144.38 63.65 145.34 64.32 C 147.79 64.56 149.66 66.28 150.58 68.49 C 153.28 69.90 155.17 72.37 157.17 74.59 C 151.15 71.68 147.37 65.88 141.80 62.35 C 141.68 59.80 141.56 57.24 141.33 54.69 C 139.89 55.48 138.59 56.46 137.28 57.44 C 136.36 56.69 135.48 55.90 134.63 55.07 C 135.25 55.52 136.50 56.42 137.12 56.87 Z" />
<path fill="#fcfcfc" opacity="1.00" d=" M 94.16 63.43 C 96.36 64.72 98.74 65.61 101.27 65.94 C 99.50 68.31 96.15 68.13 93.82 69.72 C 92.85 68.85 91.84 67.58 90.49 68.63 C 90.93 72.90 94.74 76.42 98.86 77.24 C 102.91 77.74 107.03 77.80 111.09 77.34 C 113.74 76.90 115.24 74.40 116.65 72.36 C 117.68 73.06 118.80 73.59 119.99 73.96 C 119.28 72.55 118.47 71.20 117.74 69.81 C 119.57 70.50 121.46 71.14 123.09 72.26 C 123.44 73.93 123.80 75.59 124.30 77.22 C 127.16 82.38 133.87 84.11 139.22 82.24 C 143.64 91.36 141.15 101.97 138.05 111.11 C 136.26 116.80 131.50 120.69 126.35 123.26 C 121.78 125.05 116.79 124.34 112.00 124.60 C 110.62 124.48 109.01 124.91 107.84 123.99 C 106.72 121.91 106.68 119.41 105.36 117.42 C 101.27 118.99 97.26 120.87 92.92 121.70 C 89.73 119.00 85.73 117.28 83.09 113.94 C 80.36 110.96 79.89 106.84 78.76 103.13 C 77.83 97.41 78.37 91.62 78.70 85.87 C 80.14 83.24 81.65 80.63 82.73 77.83 C 85.51 72.33 89.00 66.94 94.16 63.43 M 114.02 80.14 C 108.22 82.56 101.51 81.23 95.96 84.35 C 94.74 85.49 93.58 83.94 92.61 83.31 C 92.51 84.99 92.48 86.68 92.57 88.37 C 93.54 88.36 94.51 88.34 95.48 88.33 C 95.17 87.49 94.54 85.82 94.22 84.99 C 97.80 86.83 101.38 84.30 105.02 84.31 C 109.37 84.31 113.73 84.44 118.08 84.72 C 122.88 85.92 128.12 87.41 131.19 91.58 C 132.32 94.15 133.92 96.49 136.40 97.93 L 136.55 95.98 C 133.72 90.86 130.20 86.11 126.51 81.60 C 123.72 80.60 120.79 80.02 118.09 78.78 C 116.73 79.23 115.37 79.65 114.02 80.14 M 112.13 86.37 C 112.19 86.85 112.32 87.81 112.38 88.29 C 116.18 88.63 119.86 89.64 123.50 90.76 C 125.01 90.95 127.96 92.71 127.93 89.73 C 122.75 88.26 117.61 86.20 112.13 86.37 Z" />
<path fill="#fcfcfc" opacity="1.00" d=" M 95.94 70.61 C 99.29 69.88 102.45 68.00 105.97 68.32 C 108.52 68.58 110.86 69.72 113.29 70.47 C 111.79 70.49 110.37 70.77 109.00 71.31 C 104.68 70.61 100.30 70.65 95.94 70.61 Z" />
<path fill="#fcfcfc" opacity="1.00" d=" M 96.56 73.54 C 100.58 73.17 104.62 73.24 108.63 73.58 C 108.64 74.07 108.66 75.04 108.67 75.52 C 104.68 75.05 99.85 76.39 96.56 73.54 Z" />
<path fill="#fcfcfc" opacity="1.00" d=" M 161.80 75.86 C 162.71 74.81 163.65 73.79 164.64 72.81 C 164.69 74.51 164.68 76.22 164.65 77.92 C 163.37 78.91 162.86 80.18 163.59 81.72 L 162.30 81.43 C 163.13 83.94 158.72 84.28 160.46 86.90 L 159.73 86.92 C 159.65 86.46 159.51 85.54 159.43 85.08 C 156.17 85.79 157.60 89.76 158.18 91.96 C 157.84 95.83 159.17 100.24 157.10 103.75 C 157.80 98.51 157.35 93.24 157.19 87.99 C 156.84 85.23 159.76 84.10 161.48 82.59 C 162.65 80.26 163.79 77.87 163.94 75.21 L 161.80 75.86 Z" />
<path fill="#fcfcfc" opacity="1.00" d=" M 127.21 76.22 C 129.60 77.10 131.91 78.36 133.00 80.79 C 130.82 79.75 127.15 79.29 127.21 76.22 Z" />
<path fill="#fcfcfc" opacity="1.00" d=" M 115.55 81.95 C 117.31 80.93 119.47 81.06 121.10 82.29 C 122.86 82.93 125.76 82.68 126.15 85.06 C 125.13 84.64 124.13 84.19 123.14 83.70 C 120.67 82.85 118.10 82.42 115.55 81.95 Z" />
<path fill="#fcfcfc" opacity="1.00" d=" M 153.25 121.00 C 152.96 118.99 153.58 117.85 155.59 118.42 C 155.38 119.51 155.00 120.60 155.17 121.73 C 155.75 122.61 156.32 123.50 156.86 124.40 C 156.10 124.56 154.56 124.89 153.80 125.05 C 154.32 123.86 154.05 122.59 153.98 121.36 L 153.25 121.00 Z" />
<path fill="#fcfcfc" opacity="1.00" d=" M 97.97 123.18 C 99.51 121.92 101.42 121.34 103.24 120.62 C 103.62 121.55 104.00 122.48 104.39 123.41 C 103.84 123.64 102.75 124.08 102.20 124.30 C 100.78 123.93 99.37 123.56 97.97 123.18 Z" />
<path fill="#fcfcfc" opacity="1.00" d=" M 83.10 127.36 C 84.22 126.69 85.52 126.13 86.85 126.46 L 86.90 127.03 C 85.71 128.15 84.45 128.25 83.10 127.36 Z" />
<path fill="#fcfcfc" opacity="1.00" d=" M 106.46 127.64 C 107.97 129.00 109.10 130.72 109.82 132.63 C 109.32 132.57 108.32 132.43 107.82 132.37 C 107.87 133.19 107.97 134.83 108.01 135.65 C 107.38 133.00 106.86 130.33 106.46 127.64 Z" />
<path fill="#fcfcfc" opacity="1.00" d=" M 62.99 133.80 C 63.85 132.91 64.86 132.24 66.02 131.80 C 64.95 132.90 63.83 133.95 62.66 134.94 C 61.78 134.43 60.91 133.88 60.06 133.31 C 60.79 133.44 62.25 133.68 62.99 133.80 Z" />
<path fill="#fcfcfc" opacity="1.00" d=" M 63.01 137.38 C 63.37 136.26 64.34 135.60 65.33 135.09 C 67.44 136.98 64.36 140.41 63.01 137.38 Z" />
<path fill="#fcfcfc" opacity="1.00" d=" M 118.25 144.06 C 120.87 146.82 123.75 149.31 126.41 152.03 C 125.64 151.90 124.12 151.65 123.36 151.52 C 124.05 149.61 123.38 148.97 121.34 149.60 C 121.93 147.21 118.85 146.20 118.25 144.06 Z" />
<path fill="#fcfcfc" opacity="1.00" d=" M 53.10 161.98 C 57.26 160.42 59.80 164.81 63.11 166.37 C 62.73 165.47 61.97 163.68 61.59 162.78 C 62.70 163.94 63.73 165.18 64.68 166.48 C 63.91 166.50 62.38 166.53 61.61 166.55 C 61.35 166.97 60.83 167.80 60.57 168.22 C 60.53 167.36 60.44 165.64 60.39 164.79 C 57.83 164.98 57.25 167.33 56.82 169.41 C 57.33 169.47 58.34 169.59 58.84 169.65 C 58.74 170.31 58.54 171.63 58.44 172.28 C 57.32 170.65 56.11 169.08 54.99 167.45 C 57.39 168.57 57.77 165.01 59.06 163.84 C 57.87 163.35 55.50 162.38 54.31 161.89 C 54.25 163.48 54.36 165.07 54.55 166.65 C 54.38 166.28 54.02 165.53 53.85 165.15 C 53.66 164.36 53.29 162.77 53.10 161.98 Z" />
<path fill="#fcfcfc" opacity="1.00" d=" M 153.80 168.25 C 154.51 167.51 155.24 166.78 155.98 166.05 C 156.08 167.61 156.41 169.30 157.83 170.21 L 158.59 170.48 L 159.33 170.74 L 160.04 171.01 C 161.28 172.05 161.33 173.84 161.89 175.24 L 160.00 175.42 C 160.21 174.63 160.63 173.05 160.84 172.25 C 160.35 172.29 159.35 172.37 158.86 172.41 C 158.19 170.98 156.40 170.85 156.95 172.84 L 157.12 173.88 L 155.68 173.92 L 155.87 172.93 C 156.36 171.46 156.44 169.68 155.23 168.53 L 153.80 168.25 Z" />
</g>
<g id="#d09a1afe">
<path fill="#d09a1a" opacity="1.00" d=" M 117.53 43.28 C 117.80 43.28 118.34 43.27 118.61 43.27 C 118.51 43.80 118.32 44.86 118.23 45.39 C 118.79 45.76 119.91 46.51 120.48 46.89 C 119.55 46.98 117.69 47.16 116.76 47.25 C 123.60 48.70 129.25 53.14 134.76 57.18 C 137.12 58.39 134.63 60.86 133.11 61.51 C 131.11 61.50 129.66 59.84 128.04 58.89 C 121.54 53.89 112.48 53.14 104.89 55.91 C 94.60 59.36 85.28 67.12 81.64 77.54 C 80.10 80.30 77.74 82.78 77.57 86.10 C 77.24 91.38 77.48 96.69 77.54 101.97 C 77.82 108.85 81.22 115.06 85.73 120.09 C 87.54 120.72 89.97 120.92 90.27 123.29 C 88.58 122.35 86.94 121.30 85.31 120.27 C 85.84 121.83 86.39 123.40 86.92 124.97 C 85.73 124.56 84.55 124.14 83.36 123.74 C 79.72 122.78 76.24 121.66 72.82 120.03 C 72.15 119.00 71.47 117.99 70.74 117.01 C 70.47 117.73 69.94 119.16 69.67 119.88 L 69.47 119.79 C 70.02 117.30 68.55 115.15 67.96 112.82 C 69.08 115.00 70.76 116.76 73.09 117.62 C 75.26 121.35 80.21 122.52 84.23 122.01 C 79.77 121.13 74.31 119.66 72.98 114.65 C 72.50 114.58 71.56 114.44 71.09 114.37 C 68.73 110.64 67.01 106.44 67.85 101.94 C 68.24 102.38 69.02 103.28 69.41 103.73 C 71.05 98.42 73.09 93.20 74.21 87.76 C 73.71 82.87 73.19 77.98 73.62 73.05 L 73.80 72.23 C 75.78 66.85 79.61 62.52 83.60 58.53 C 83.63 57.91 83.71 56.67 83.75 56.05 C 89.02 51.83 94.63 47.69 101.06 45.47 C 105.22 46.23 108.69 48.88 112.33 50.88 C 112.73 49.61 113.13 48.33 113.53 47.06 C 112.30 47.50 111.08 47.95 109.86 48.41 C 107.51 47.43 105.20 46.34 103.16 44.81 C 106.19 43.73 108.26 47.86 111.33 46.57 C 113.36 45.50 115.64 45.59 117.87 45.69 C 117.79 45.09 117.62 43.88 117.53 43.28 Z" />
<path fill="#d09a1a" opacity="1.00" d=" M 109.17 56.19 C 114.79 54.72 120.82 56.23 125.75 59.08 C 127.31 60.27 129.64 61.30 129.74 63.54 C 127.82 62.88 125.87 62.34 123.84 62.19 C 126.16 65.21 128.76 68.01 130.99 71.10 C 131.72 69.82 132.44 68.55 133.18 67.28 C 135.16 69.25 136.93 71.64 137.54 74.42 C 133.86 75.34 129.16 75.23 126.24 72.35 C 124.51 73.48 123.81 75.18 124.30 77.22 C 123.80 75.59 123.44 73.93 123.09 72.26 C 123.84 71.33 124.49 70.34 125.01 69.27 C 120.33 68.46 115.42 69.29 110.90 67.60 C 105.92 65.83 100.79 64.55 95.72 63.08 C 98.96 59.01 104.28 57.32 109.17 56.19 Z" />
<path fill="#d09a1a" opacity="1.00" d=" M 134.82 65.97 C 137.20 66.26 139.58 66.61 141.97 66.96 C 142.48 66.49 143.52 65.56 144.04 65.09 C 149.13 70.53 155.20 74.97 161.47 78.96 C 160.10 80.95 158.71 82.92 157.29 84.86 C 156.49 84.78 154.88 84.60 154.08 84.51 C 154.99 86.26 156.52 87.85 156.61 89.90 C 156.85 94.82 156.70 99.75 156.41 104.66 C 156.58 104.43 156.92 103.98 157.10 103.75 C 159.17 100.24 157.84 95.83 158.18 91.96 C 159.56 94.71 158.43 98.03 158.85 101.00 C 159.48 104.53 156.47 106.95 155.90 110.22 C 155.51 112.43 153.39 113.33 151.48 113.90 C 151.53 116.23 150.15 120.08 153.25 121.00 L 153.98 121.36 C 154.05 122.59 154.32 123.86 153.80 125.05 C 153.69 124.60 153.46 123.71 153.35 123.26 C 152.67 123.41 151.29 123.70 150.61 123.84 C 148.77 120.65 147.12 117.33 144.84 114.43 C 144.51 112.26 145.22 109.97 144.36 107.89 C 143.18 105.24 144.20 102.21 142.90 99.58 C 142.96 97.87 143.44 96.22 143.92 94.59 C 144.99 97.52 148.07 96.45 150.40 96.55 C 148.45 95.26 146.03 94.44 144.65 92.48 C 142.31 87.00 142.58 80.80 140.57 75.24 C 138.59 72.18 136.40 69.26 134.82 65.97 Z" />
<path fill="#d09a1a" opacity="1.00" d=" M 158.72 75.70 L 159.41 75.11 L 160.43 75.37 L 160.73 76.21 C 160.23 76.08 159.22 75.83 158.72 75.70 Z" />
<path fill="#d09a1a" opacity="1.00" d=" M 79.76 128.54 C 80.28 128.40 81.31 128.11 81.83 127.97 L 81.57 128.84 L 80.51 129.13 L 79.76 128.54 Z" />
</g>
<g id="#191511f9">
<path fill="#191511" opacity="0.98" d=" M 96.10 44.58 C 98.16 44.52 100.21 44.52 102.27 44.52 L 102.74 44.53 L 103.16 44.81 C 105.20 46.34 107.51 47.43 109.86 48.41 C 111.08 47.95 112.30 47.50 113.53 47.06 C 113.13 48.33 112.73 49.61 112.33 50.88 C 108.69 48.88 105.22 46.23 101.06 45.47 C 94.63 47.69 89.02 51.83 83.75 56.05 C 83.71 56.67 83.63 57.91 83.60 58.53 C 79.61 62.52 75.78 66.85 73.80 72.23 L 73.46 72.99 L 72.80 70.58 C 75.84 66.65 78.37 62.32 81.82 58.72 C 81.49 57.84 81.17 56.97 80.85 56.10 C 84.02 53.47 86.85 50.24 90.82 48.79 C 93.01 48.00 94.66 46.35 96.10 44.58 Z" />
<path fill="#191511" opacity="0.98" d=" M 116.76 47.25 C 117.69 47.16 119.55 46.98 120.48 46.89 C 120.79 46.87 121.41 46.84 121.72 46.82 C 125.55 48.57 128.98 51.87 133.26 52.55 C 133.68 53.41 134.13 54.25 134.63 55.07 C 135.48 55.90 136.36 56.69 137.28 57.44 C 138.59 56.46 139.89 55.48 141.33 54.69 C 141.56 57.24 141.68 59.80 141.80 62.35 C 147.37 65.88 151.15 71.68 157.17 74.59 C 157.56 74.87 158.33 75.43 158.72 75.70 C 159.22 75.83 160.23 76.08 160.73 76.21 L 161.80 75.86 L 163.94 75.21 C 163.79 77.87 162.65 80.26 161.48 82.59 C 159.76 84.10 156.84 85.23 157.19 87.99 C 157.35 93.24 157.80 98.51 157.10 103.75 C 156.92 103.98 156.58 104.43 156.41 104.66 C 156.70 99.75 156.85 94.82 156.61 89.90 C 156.52 87.85 154.99 86.26 154.08 84.51 C 154.88 84.60 156.49 84.78 157.29 84.86 C 158.71 82.92 160.10 80.95 161.47 78.96 C 155.20 74.97 149.13 70.53 144.04 65.09 C 143.52 65.56 142.48 66.49 141.97 66.96 C 139.58 66.61 137.20 66.26 134.82 65.97 C 136.40 69.26 138.59 72.18 140.57 75.24 C 142.58 80.80 142.31 87.00 144.65 92.48 C 146.03 94.44 148.45 95.26 150.40 96.55 C 148.07 96.45 144.99 97.52 143.92 94.59 C 143.44 96.22 142.96 97.87 142.90 99.58 C 142.69 101.62 142.77 103.68 142.60 105.73 C 142.16 108.92 140.18 111.62 139.50 114.75 C 136.36 120.36 130.86 124.44 125.00 126.82 C 120.05 127.04 115.09 126.67 110.14 126.84 C 111.05 130.14 113.04 132.95 114.82 135.82 C 115.26 135.68 116.13 135.40 116.57 135.26 C 116.47 135.75 116.28 136.73 116.18 137.22 C 119.00 139.61 120.55 143.61 123.60 145.43 C 123.89 145.09 124.47 144.41 124.76 144.07 C 123.51 146.82 125.70 148.29 127.90 149.33 C 128.18 150.10 128.46 150.87 128.74 151.65 C 129.61 150.85 130.48 150.05 131.35 149.25 C 131.32 150.06 131.25 151.68 131.22 152.49 C 131.98 152.47 133.48 152.43 134.23 152.42 C 136.51 156.28 141.70 156.12 145.28 158.12 C 145.36 158.52 145.50 159.31 145.57 159.71 C 145.67 159.29 145.87 158.47 145.97 158.05 C 147.77 158.64 149.45 159.51 151.02 160.56 C 151.85 160.51 152.68 160.46 153.51 160.40 C 155.08 161.26 156.68 162.09 158.29 162.88 C 160.22 166.74 162.49 170.76 161.89 175.24 C 161.33 173.84 161.28 172.05 160.04 171.01 L 159.33 170.74 L 158.59 170.48 L 157.83 170.21 C 156.41 169.30 156.08 167.61 155.98 166.05 C 155.24 166.78 154.51 167.51 153.80 168.25 L 155.23 168.53 C 154.06 170.19 154.87 172.84 152.79 173.83 C 152.31 172.75 151.84 171.68 151.38 170.59 C 152.26 168.44 152.39 166.10 152.74 163.83 C 146.75 162.09 141.08 159.52 135.29 157.25 C 132.16 155.87 128.70 154.71 126.41 152.03 C 123.75 149.31 120.87 146.82 118.25 144.06 C 115.20 141.97 114.35 137.48 110.66 136.40 C 110.41 135.13 110.13 133.88 109.82 132.63 C 109.10 130.72 107.97 129.00 106.46 127.64 C 106.86 130.33 107.38 133.00 108.01 135.65 C 108.32 136.66 108.87 137.57 109.35 138.51 C 109.32 139.96 109.29 141.41 109.24 142.86 C 109.86 142.79 111.11 142.65 111.73 142.59 C 111.74 142.84 111.76 143.34 111.78 143.59 C 111.01 143.49 109.48 143.29 108.71 143.19 C 109.29 143.90 110.46 145.32 111.04 146.03 C 111.32 149.25 113.11 152.17 112.48 155.52 C 113.27 156.95 113.80 158.51 114.28 160.08 C 116.10 165.85 117.98 171.62 120.14 177.28 C 119.27 177.34 117.53 177.47 116.66 177.54 C 116.95 174.30 113.81 172.09 114.32 168.83 C 111.38 164.13 111.11 158.46 108.94 153.45 C 107.68 148.53 106.20 143.51 106.09 138.43 C 105.00 138.33 103.88 138.28 102.89 137.76 C 103.73 137.77 105.41 137.80 106.24 137.81 C 104.28 135.52 104.80 132.55 105.04 129.82 C 103.92 129.22 103.05 128.41 103.20 127.02 C 100.44 126.27 97.53 125.93 94.97 124.58 C 93.89 125.13 92.81 125.68 91.73 126.23 C 90.53 128.74 89.42 131.31 87.73 133.55 L 84.92 132.38 C 85.42 131.04 86.41 128.37 86.90 127.03 L 86.85 126.46 C 85.52 126.13 84.22 126.69 83.10 127.36 L 81.83 127.97 C 81.31 128.11 80.28 128.40 79.76 128.54 C 78.88 129.08 77.99 129.60 77.09 130.09 C 72.63 129.91 69.07 133.15 65.33 135.09 C 64.34 135.60 63.37 136.26 63.01 137.38 C 60.64 142.42 58.29 147.53 56.57 152.82 C 55.21 154.39 53.34 155.78 53.01 157.98 C 53.46 160.41 56.60 159.21 58.26 159.40 C 59.38 160.51 60.56 161.57 61.59 162.78 C 61.97 163.68 62.73 165.47 63.11 166.37 C 59.80 164.81 57.26 160.42 53.10 161.98 C 53.29 162.77 53.66 164.36 53.85 165.15 C 54.02 165.53 54.38 166.28 54.55 166.65 L 54.99 167.45 C 56.11 169.08 57.32 170.65 58.44 172.28 L 58.69 172.64 C 53.90 172.48 51.43 167.88 51.16 163.59 C 48.21 163.12 49.82 166.60 49.35 168.15 C 50.59 169.67 51.72 171.29 52.80 172.94 C 51.83 173.54 50.86 174.15 49.89 174.76 C 48.77 172.40 46.66 170.21 47.44 167.41 C 47.14 167.34 46.54 167.20 46.24 167.13 C 46.56 170.08 46.10 173.01 45.08 175.79 C 42.10 174.34 42.74 170.86 42.98 168.13 C 44.41 163.02 48.88 159.66 50.98 154.89 C 52.31 151.90 54.33 149.33 56.03 146.56 C 57.89 142.53 59.21 137.95 62.66 134.94 C 63.83 133.95 64.95 132.90 66.02 131.80 C 67.74 129.86 70.20 128.91 72.48 127.81 C 73.60 127.60 75.56 128.25 75.98 126.86 C 75.97 125.97 75.59 125.05 75.97 124.19 C 76.28 124.59 76.91 125.37 77.23 125.76 C 79.47 126.34 81.86 125.50 83.36 123.74 C 84.55 124.14 85.73 124.56 86.92 124.97 C 86.39 123.40 85.84 121.83 85.31 120.27 C 86.94 121.30 88.58 122.35 90.27 123.29 C 89.97 120.92 87.54 120.72 85.73 120.09 C 81.22 115.06 77.82 108.85 77.54 101.97 C 77.48 96.69 77.24 91.38 77.57 86.10 C 77.74 82.78 80.10 80.30 81.64 77.54 C 85.28 67.12 94.60 59.36 104.89 55.91 C 112.48 53.14 121.54 53.89 128.04 58.89 C 129.66 59.84 131.11 61.50 133.11 61.51 C 134.63 60.86 137.12 58.39 134.76 57.18 C 129.25 53.14 123.60 48.70 116.76 47.25 M 109.17 56.19 C 104.28 57.32 98.96 59.01 95.72 63.08 C 100.79 64.55 105.92 65.83 110.90 67.60 C 115.42 69.29 120.33 68.46 125.01 69.27 C 124.49 70.34 123.84 71.33 123.09 72.26 C 121.46 71.14 119.57 70.50 117.74 69.81 C 118.47 71.20 119.28 72.55 119.99 73.96 C 118.80 73.59 117.68 73.06 116.65 72.36 C 115.24 74.40 113.74 76.90 111.09 77.34 C 107.03 77.80 102.91 77.74 98.86 77.24 C 94.74 76.42 90.93 72.90 90.49 68.63 C 91.84 67.58 92.85 68.85 93.82 69.72 C 96.15 68.13 99.50 68.31 101.27 65.94 C 98.74 65.61 96.36 64.72 94.16 63.43 C 89.00 66.94 85.51 72.33 82.73 77.83 C 81.65 80.63 80.14 83.24 78.70 85.87 C 78.37 91.62 77.83 97.41 78.76 103.13 C 79.89 106.84 80.36 110.96 83.09 113.94 C 85.73 117.28 89.73 119.00 92.92 121.70 C 97.26 120.87 101.27 118.99 105.36 117.42 C 106.68 119.41 106.72 121.91 107.84 123.99 C 109.01 124.91 110.62 124.48 112.00 124.60 C 116.79 124.34 121.78 125.05 126.35 123.26 C 131.50 120.69 136.26 116.80 138.05 111.11 C 141.15 101.97 143.64 91.36 139.22 82.24 C 133.87 84.11 127.16 82.38 124.30 77.22 C 123.81 75.18 124.51 73.48 126.24 72.35 C 129.16 75.23 133.86 75.34 137.54 74.42 C 136.93 71.64 135.16 69.25 133.18 67.28 C 132.44 68.55 131.72 69.82 130.99 71.10 C 128.76 68.01 126.16 65.21 123.84 62.19 C 125.87 62.34 127.82 62.88 129.74 63.54 C 129.64 61.30 127.31 60.27 125.75 59.08 C 120.82 56.23 114.79 54.72 109.17 56.19 M 95.94 70.61 C 100.30 70.65 104.68 70.61 109.00 71.31 C 110.37 70.77 111.79 70.49 113.29 70.47 C 110.86 69.72 108.52 68.58 105.97 68.32 C 102.45 68.00 99.29 69.88 95.94 70.61 M 96.56 73.54 C 99.85 76.39 104.68 75.05 108.67 75.52 C 108.66 75.04 108.64 74.07 108.63 73.58 C 104.62 73.24 100.58 73.17 96.56 73.54 M 127.21 76.22 C 127.15 79.29 130.82 79.75 133.00 80.79 C 131.91 78.36 129.60 77.10 127.21 76.22 M 97.97 123.18 C 99.37 123.56 100.78 123.93 102.20 124.30 C 102.75 124.08 103.84 123.64 104.39 123.41 C 104.00 122.48 103.62 121.55 103.24 120.62 C 101.42 121.34 99.51 121.92 97.97 123.18 Z" />
<path fill="#191511" opacity="0.98" d=" M 70.91 71.15 C 72.74 73.25 72.11 76.17 72.49 78.71 C 72.80 76.83 72.48 74.69 73.62 73.05 C 73.19 77.98 73.71 82.87 74.21 87.76 C 73.09 93.20 71.05 98.42 69.41 103.73 C 69.02 103.28 68.24 102.38 67.85 101.94 C 67.01 106.44 68.73 110.64 71.09 114.37 C 71.56 114.44 72.50 114.58 72.98 114.65 C 74.31 119.66 79.77 121.13 84.23 122.01 C 80.21 122.52 75.26 121.35 73.09 117.62 C 70.76 116.76 69.08 115.00 67.96 112.82 C 66.39 108.71 66.18 103.34 69.12 99.73 C 68.59 99.32 67.53 98.50 67.00 98.09 C 69.23 94.95 71.19 91.65 72.36 87.96 C 72.41 86.24 72.42 84.51 72.39 82.79 C 70.80 80.50 71.78 77.51 70.22 75.20 C 70.39 74.19 70.73 72.16 70.91 71.15 Z" />
<path fill="#191511" opacity="0.98" d=" M 114.02 80.14 C 115.37 79.65 116.73 79.23 118.09 78.78 C 120.79 80.02 123.72 80.60 126.51 81.60 C 130.20 86.11 133.72 90.86 136.55 95.98 L 136.40 97.93 C 133.92 96.49 132.32 94.15 131.19 91.58 C 128.12 87.41 122.88 85.92 118.08 84.72 C 113.73 84.44 109.37 84.31 105.02 84.31 C 101.38 84.30 97.80 86.83 94.22 84.99 C 94.54 85.82 95.17 87.49 95.48 88.33 C 94.51 88.34 93.54 88.36 92.57 88.37 C 92.48 86.68 92.51 84.99 92.61 83.31 C 93.58 83.94 94.74 85.49 95.96 84.35 C 101.51 81.23 108.22 82.56 114.02 80.14 M 115.55 81.95 C 118.10 82.42 120.67 82.85 123.14 83.70 C 124.13 84.19 125.13 84.64 126.15 85.06 C 125.76 82.68 122.86 82.93 121.10 82.29 C 119.47 81.06 117.31 80.93 115.55 81.95 Z" />
<path fill="#191511" opacity="0.98" d=" M 112.13 86.37 C 117.61 86.20 122.75 88.26 127.93 89.73 C 127.96 92.71 125.01 90.95 123.50 90.76 C 119.86 89.64 116.18 88.63 112.38 88.29 C 112.32 87.81 112.19 86.85 112.13 86.37 Z" />
</g>
</svg>
