<?xml version="1.0" encoding="UTF-8" ?>
<!DOCTYPE svg PUBLIC "-//W3C//DTD SVG 1.1//EN" "http://www.w3.org/Graphics/SVG/1.1/DTD/svg11.dtd">
<svg width="210pt" height="220pt" viewBox="0 0 210 220" version="1.1" xmlns="http://www.w3.org/2000/svg">
<g id="#fdfdfdff">
<path fill="#fdfdfd" opacity="1.00" d=" M 79.71 2.45 C 81.53 3.14 82.15 4.76 82.29 6.53 C 82.91 9.76 86.24 13.66 83.33 16.58 C 83.06 14.38 82.87 12.16 82.36 10.00 C 81.70 8.88 81.34 7.68 81.27 6.39 C 80.53 5.17 79.85 3.90 79.71 2.45 Z" />
<path fill="#fdfdfd" opacity="1.00" d=" M 64.61 13.55 C 66.15 11.67 68.75 13.47 70.66 13.74 C 70.26 17.43 69.08 21.07 66.84 24.07 C 63.92 24.24 61.00 23.65 58.08 23.70 C 57.17 22.86 56.21 22.05 55.47 21.05 C 55.59 19.00 57.15 17.66 58.64 16.48 C 60.17 18.21 62.04 19.56 64.38 19.92 C 64.24 17.87 62.60 15.22 64.61 13.55 Z" />
<path fill="#fdfdfd" opacity="1.00" d=" M 93.07 56.70 C 93.71 56.80 94.99 57.01 95.63 57.11 C 98.36 58.17 100.89 59.71 102.98 61.76 C 102.46 62.10 101.43 62.78 100.91 63.12 C 97.87 62.23 95.31 59.84 91.97 60.00 C 92.36 58.90 92.73 57.80 93.07 56.70 Z" />
<path fill="#fdfdfd" opacity="1.00" d=" M 18.12 57.27 C 19.22 58.00 20.37 58.67 21.38 59.55 C 22.34 62.56 22.58 65.75 23.34 68.82 C 20.48 68.73 17.61 68.74 14.74 68.82 C 14.95 67.07 15.42 65.37 16.45 63.92 C 18.14 64.46 19.83 64.97 21.54 65.43 C 20.84 63.36 19.22 61.98 17.48 60.79 C 17.64 59.91 17.96 58.15 18.12 57.27 Z" />
<path fill="#fdfdfd" opacity="1.00" d=" M 78.68 60.03 C 79.38 58.74 81.49 57.92 82.68 59.02 C 83.26 60.87 79.07 61.64 78.68 60.03 Z" />
<path fill="#fdfdfd" opacity="1.00" d=" M 188.13 71.45 C 189.18 67.32 190.34 62.76 194.63 60.88 C 194.93 61.32 195.53 62.18 195.82 62.62 C 194.97 63.46 194.15 64.32 193.34 65.20 C 195.74 66.67 199.42 63.70 201.24 66.64 C 197.15 68.92 192.62 70.22 188.13 71.45 Z" />
<path fill="#fdfdfd" opacity="1.00" d=" M 64.69 72.60 C 68.63 74.33 72.36 76.54 76.36 78.16 C 76.42 80.26 76.58 82.36 76.94 84.43 C 73.49 82.80 70.12 81.00 66.62 79.47 C 65.67 77.28 64.63 75.06 64.69 72.60 Z" />
<path fill="#fdfdfd" opacity="1.00" d=" M 142.50 79.44 C 143.92 78.67 145.10 81.05 144.08 82.04 C 142.72 82.84 141.58 80.38 142.50 79.44 Z" />
<path fill="#fdfdfd" opacity="1.00" d=" M 78.53 79.18 C 83.66 80.95 88.95 82.16 94.07 83.92 C 93.65 85.78 93.38 87.67 92.82 89.50 C 89.29 88.80 86.30 86.28 82.61 86.25 C 80.50 84.37 78.47 82.24 78.53 79.18 Z" />
<path fill="#fdfdfd" opacity="1.00" d=" M 139.89 81.25 C 141.68 83.28 142.42 85.98 142.95 88.57 C 142.03 89.18 141.09 89.77 140.13 90.33 C 140.08 87.30 139.62 84.28 139.89 81.25 Z" />
<path fill="#fdfdfd" opacity="1.00" d=" M 68.62 83.52 C 71.39 84.59 74.07 85.88 76.69 87.28 C 76.85 89.24 77.46 91.37 76.09 93.09 C 73.21 90.23 70.90 86.87 68.62 83.52 Z" />
<path fill="#fdfdfd" opacity="1.00" d=" M 96.43 84.86 C 97.46 85.04 98.48 85.25 99.49 85.49 C 102.51 86.20 105.59 86.69 108.61 87.36 C 108.83 89.04 108.85 90.74 108.98 92.43 C 104.19 92.97 99.68 91.45 95.06 90.53 C 95.61 88.66 96.02 86.76 96.43 84.86 Z" />
<path fill="#fdfdfd" opacity="1.00" d=" M 132.80 86.31 C 134.36 85.68 135.92 85.02 137.49 84.39 C 138.15 86.57 138.02 88.84 137.28 90.98 C 136.58 91.17 135.18 91.55 134.48 91.74 C 134.28 91.80 133.86 91.93 133.66 91.99 C 134.20 90.03 133.28 88.17 132.80 86.31 Z" />
<path fill="#fdfdfd" opacity="1.00" d=" M 5.54 86.20 C 7.37 86.74 9.17 87.36 10.88 88.21 C 12.22 88.12 13.56 88.03 14.90 87.96 C 15.21 88.48 15.82 89.51 16.13 90.03 C 12.58 89.22 7.34 90.25 5.54 86.20 Z" />
<path fill="#fdfdfd" opacity="1.00" d=" M 111.08 87.17 C 113.58 87.63 116.10 88.12 118.66 88.06 C 118.99 88.77 119.66 90.18 119.99 90.89 C 119.85 91.31 119.57 92.16 119.43 92.58 C 116.62 92.31 113.79 92.36 110.98 92.52 C 110.99 90.73 111.02 88.95 111.08 87.17 Z" />
<path fill="#fdfdfd" opacity="1.00" d=" M 121.52 88.02 C 124.57 88.07 127.59 87.60 130.57 87.00 C 130.89 88.67 131.27 90.33 131.72 91.97 C 128.55 92.18 125.38 92.42 122.20 92.59 C 122.00 91.06 121.80 89.54 121.52 88.02 Z" />
<path fill="#fdfdfd" opacity="1.00" d=" M 79.19 88.50 C 83.15 90.53 87.21 92.46 91.54 93.54 C 91.72 94.48 91.84 95.43 91.93 96.39 C 90.57 98.19 89.77 100.29 88.89 102.34 C 85.00 99.96 81.35 97.23 77.50 94.80 C 79.50 93.17 79.68 90.89 79.19 88.50 Z" />
<path fill="#fdfdfd" opacity="1.00" d=" M 93.99 94.04 C 96.49 94.98 98.95 96.04 101.54 96.69 C 103.12 97.10 104.69 97.53 106.26 97.97 C 106.24 100.85 106.16 103.73 106.09 106.61 C 103.89 106.22 101.68 105.78 99.44 105.69 C 96.70 104.74 93.86 104.09 91.13 103.12 C 91.96 101.31 92.86 99.54 93.99 97.89 C 93.99 96.60 93.99 95.32 93.99 94.04 Z" />
<path fill="#fdfdfd" opacity="1.00" d=" M 138.17 103.28 C 141.17 101.71 142.10 98.33 143.89 95.72 C 143.54 98.20 142.61 100.55 141.55 102.81 C 139.54 104.42 136.73 104.60 134.36 105.44 C 135.32 103.33 136.34 101.25 137.23 99.12 C 137.72 98.90 138.69 98.46 139.18 98.25 C 138.93 99.51 138.42 102.02 138.17 103.28 Z" />
<path fill="#fdfdfd" opacity="1.00" d=" M 108.33 106.91 C 108.65 103.99 108.68 101.05 108.65 98.12 C 111.78 99.58 115.22 99.86 118.63 99.59 C 118.28 101.23 117.95 102.88 117.73 104.56 C 117.56 105.17 117.21 106.39 117.04 107.00 C 114.14 106.97 111.23 106.98 108.33 106.91 Z" />
<path fill="#fdfdfd" opacity="1.00" d=" M 130.12 100.08 C 131.60 99.88 133.07 99.64 134.55 99.44 C 133.61 101.15 132.67 102.85 131.69 104.54 C 131.93 104.87 132.39 105.53 132.62 105.86 C 131.07 106.07 129.53 106.36 127.97 106.51 C 128.30 105.12 128.92 103.82 129.44 102.50 C 129.61 101.89 129.95 100.69 130.12 100.08 Z" />
<path fill="#fdfdfd" opacity="1.00" d=" M 120.15 103.32 C 120.61 102.23 121.07 101.14 121.54 100.06 C 123.60 100.21 125.67 100.13 127.73 100.01 C 126.88 102.48 125.73 104.84 124.25 107.00 C 122.72 107.00 121.19 107.00 119.66 107.00 C 119.84 105.78 120.00 104.55 120.15 103.32 Z" />
<path fill="#fdfdfd" opacity="1.00" d=" M 191.01 113.21 C 192.55 113.29 194.08 113.35 195.62 113.41 C 192.07 118.49 185.74 119.69 180.93 123.12 C 181.88 123.87 182.84 124.62 183.81 125.36 C 184.10 127.39 184.11 129.44 182.14 130.61 C 181.72 129.40 181.31 128.18 180.91 126.96 C 180.24 126.96 178.89 126.95 178.22 126.95 C 177.12 128.44 176.23 130.29 174.37 130.94 C 172.91 128.15 174.47 125.09 175.07 122.27 C 181.59 121.92 186.26 117.09 191.01 113.21 Z" />
<path fill="#fdfdfd" opacity="1.00" d=" M 64.44 121.58 C 66.86 122.27 71.60 119.64 71.98 123.46 C 70.58 123.48 69.19 123.47 67.79 123.43 C 67.33 123.80 66.42 124.54 65.96 124.91 C 64.76 125.36 63.53 125.59 62.24 125.60 L 62.65 126.85 C 62.09 126.68 60.97 126.34 60.42 126.17 L 60.68 127.59 L 59.34 127.48 C 59.42 128.01 59.60 129.08 59.68 129.62 C 59.14 129.55 58.04 129.42 57.50 129.36 L 57.64 130.85 L 55.62 130.70 C 55.69 128.61 55.47 126.33 57.37 124.95 L 57.35 124.72 C 57.75 124.37 58.55 123.68 58.95 123.34 C 59.36 123.46 60.16 123.70 60.57 123.82 L 60.34 122.51 C 61.78 122.47 63.22 122.43 64.66 122.41 L 64.44 121.58 Z" />
<path fill="#fdfdfd" opacity="1.00" d=" M 68.52 126.97 L 68.30 125.39 C 69.16 125.41 70.90 125.44 71.77 125.45 C 71.76 126.18 71.74 127.64 71.73 128.37 C 69.99 128.38 68.25 128.41 66.51 128.43 L 66.53 129.46 C 65.76 129.46 64.21 129.45 63.43 129.45 L 63.48 130.75 C 62.99 130.65 62.00 130.44 61.51 130.33 L 61.59 131.24 C 60.22 131.38 59.42 132.13 59.20 133.49 L 58.23 133.39 L 58.36 135.10 C 57.12 134.56 56.27 133.65 55.81 132.35 C 56.51 132.42 57.92 132.55 58.62 132.61 C 58.53 132.05 58.36 130.94 58.27 130.38 C 58.87 130.43 60.06 130.52 60.66 130.57 C 60.55 130.00 60.34 128.86 60.23 128.29 L 61.80 128.77 L 61.23 127.46 C 63.06 127.46 64.90 127.43 66.73 127.43 L 66.26 125.67 C 66.83 126.00 67.96 126.65 68.52 126.97 Z" />
<path fill="#fdfdfd" opacity="1.00" d=" M 161.10 165.27 C 161.40 164.44 161.70 163.62 162.01 162.80 C 163.49 165.16 165.24 167.47 167.78 168.77 C 169.13 169.47 168.01 171.13 168.00 172.26 C 166.99 168.86 164.00 166.92 161.10 165.27 Z" />
<path fill="#fdfdfd" opacity="1.00" d=" M 32.64 164.05 C 35.36 163.97 38.09 163.99 40.81 164.05 C 40.53 164.46 39.96 165.30 39.68 165.71 C 37.33 166.61 33.06 167.71 32.64 164.05 Z" />
<path fill="#fdfdfd" opacity="1.00" d=" M 93.85 199.73 C 95.41 200.50 96.95 201.37 98.17 202.64 C 99.84 206.72 100.27 211.17 100.24 215.55 C 100.06 215.88 99.71 216.54 99.53 216.88 C 99.07 210.74 96.79 205.03 93.85 199.73 Z" />
</g>
<g id="#e86ee7ff">
<path fill="#e86ee7" opacity="1.00" d=" M 114.50 10.96 C 115.37 10.40 116.26 9.84 117.15 9.29 C 115.95 13.78 114.02 18.22 114.09 22.94 C 113.42 22.28 112.75 21.62 112.08 20.96 C 113.69 18.29 113.44 14.92 115.05 12.32 L 114.36 12.12 C 114.40 11.83 114.46 11.25 114.50 10.96 Z" />
<path fill="#e86ee7" opacity="1.00" d=" M 63.34 11.16 C 66.29 10.85 70.05 10.33 72.43 12.41 C 73.60 16.36 72.68 20.99 69.61 23.94 C 68.96 26.43 69.93 30.55 66.18 30.30 C 65.96 28.83 65.73 27.36 65.48 25.89 C 62.53 25.57 59.57 25.43 56.61 25.54 C 55.70 24.94 54.78 24.36 53.85 23.81 C 53.43 22.08 53.22 20.30 53.02 18.53 C 54.15 17.43 55.18 16.24 56.19 15.04 C 57.70 15.14 59.20 15.21 60.71 15.27 C 61.55 13.88 62.34 12.45 63.34 11.16 M 64.61 13.55 C 62.60 15.22 64.24 17.87 64.38 19.92 C 62.04 19.56 60.17 18.21 58.64 16.48 C 57.15 17.66 55.59 19.00 55.47 21.05 C 56.21 22.05 57.17 22.86 58.08 23.70 C 61.00 23.65 63.92 24.24 66.84 24.07 C 69.08 21.07 70.26 17.43 70.66 13.74 C 68.75 13.47 66.15 11.67 64.61 13.55 Z" />
<path fill="#e86ee7" opacity="1.00" d=" M 175.79 13.58 C 177.32 15.93 173.20 17.38 172.37 19.34 C 171.44 20.33 170.44 21.25 169.37 22.07 C 167.94 23.86 166.55 25.68 165.17 27.50 C 165.01 27.16 164.70 26.49 164.55 26.15 C 167.23 21.08 171.93 17.68 175.79 13.58 Z" />
<path fill="#e86ee7" opacity="1.00" d=" M 23.10 21.94 C 23.42 21.57 24.05 20.84 24.36 20.48 C 24.62 22.83 25.49 25.07 27.65 26.28 C 29.93 30.24 34.25 32.47 36.35 36.56 C 35.87 36.89 34.90 37.56 34.42 37.90 C 34.04 35.30 32.15 33.46 30.55 31.54 C 27.32 29.09 24.38 25.85 23.10 21.94 Z" />
<path fill="#e86ee7" opacity="1.00" d=" M 176.51 39.35 C 181.60 36.92 187.12 35.48 192.01 32.59 C 191.96 33.35 191.87 34.87 191.83 35.63 C 191.42 35.48 190.59 35.19 190.18 35.05 C 187.77 36.49 185.11 37.42 182.49 38.38 C 181.11 39.02 179.67 39.50 178.22 39.93 L 177.76 41.58 C 177.30 40.86 176.90 40.11 176.51 39.35 Z" />
<path fill="#e86ee7" opacity="1.00" d=" M 71.46 38.52 C 89.53 36.91 107.78 37.42 125.79 39.66 C 126.11 39.92 126.76 40.43 127.09 40.68 C 134.47 40.00 141.34 43.56 146.92 48.05 C 149.51 50.00 148.53 53.54 149.47 56.27 C 150.27 59.94 154.66 60.79 156.36 63.86 C 157.46 65.54 157.41 67.58 157.45 69.50 C 155.79 66.00 153.24 63.18 149.93 61.17 C 146.51 61.45 143.09 61.02 139.82 59.99 C 139.62 60.36 139.21 61.09 139.01 61.45 C 142.27 61.75 145.54 61.59 148.80 61.73 C 152.11 63.74 156.08 66.08 156.28 70.40 C 155.28 72.24 154.94 74.29 155.25 76.37 C 152.74 77.99 149.54 78.56 147.55 80.92 C 150.56 79.87 153.41 78.42 156.31 77.08 C 154.03 80.69 151.76 84.55 151.80 88.97 C 151.83 94.33 151.65 99.71 151.91 105.07 C 152.70 109.43 153.35 113.82 153.24 118.27 C 151.63 121.84 148.90 124.58 145.41 126.33 C 139.57 129.09 132.99 128.32 126.75 128.11 C 119.75 126.61 112.63 125.30 105.93 122.76 C 105.21 122.87 103.76 123.09 103.04 123.20 C 95.36 119.09 87.59 115.03 79.36 112.12 C 71.90 108.11 64.41 103.57 59.28 96.68 C 57.40 92.97 56.40 88.65 52.69 86.23 C 53.41 86.18 54.84 86.08 55.56 86.03 C 53.40 85.14 51.23 84.26 49.24 83.01 C 48.59 81.10 47.41 79.47 46.02 78.04 C 45.73 75.12 44.58 71.95 46.00 69.15 C 47.27 66.42 49.41 64.25 51.33 61.98 L 53.27 64.37 L 52.16 60.90 C 53.62 61.35 55.10 61.74 56.58 62.15 C 56.14 61.09 55.70 60.03 55.29 58.96 C 58.22 56.28 59.42 52.47 60.91 48.93 C 63.39 44.65 66.65 40.28 71.46 38.52 M 68.79 50.02 C 68.66 50.52 68.40 51.52 68.27 52.02 C 73.56 47.11 80.20 43.90 86.86 41.30 C 93.91 38.44 101.61 40.71 108.90 39.45 C 103.25 38.94 97.55 39.14 91.89 39.27 C 83.12 40.11 76.09 45.70 68.79 50.02 M 109.22 40.42 C 110.48 41.72 113.54 41.38 115.37 41.08 C 114.26 39.49 111.02 40.02 109.22 40.42 M 71.03 54.35 C 74.15 53.35 75.80 50.26 78.50 48.60 C 84.58 44.77 91.86 43.39 98.96 43.16 C 103.06 42.93 106.95 44.55 111.03 44.72 C 118.65 45.17 126.31 44.89 133.89 44.02 C 135.23 44.59 136.57 45.15 137.94 45.64 C 137.01 44.82 136.13 43.87 135.02 43.28 C 126.08 43.80 117.04 44.87 108.13 43.50 C 95.15 40.55 79.63 43.50 71.03 54.35 M 85.14 47.46 C 80.90 49.00 76.73 51.58 74.62 55.72 C 78.40 52.63 82.00 48.83 87.00 47.83 C 91.21 47.12 95.55 46.56 99.81 47.12 C 102.51 49.02 103.00 52.48 103.92 55.41 C 104.05 52.88 103.82 50.28 102.22 48.20 C 102.45 47.55 102.68 46.91 102.91 46.26 C 96.98 46.21 90.90 45.73 85.14 47.46 M 116.73 49.34 C 120.90 49.51 124.98 48.47 129.09 47.91 C 133.43 48.58 137.10 51.31 138.93 55.32 C 138.29 53.39 138.21 50.81 136.14 49.81 C 133.64 48.42 130.94 46.79 127.96 47.33 C 124.22 48.01 120.30 47.95 116.73 49.34 M 119.40 59.10 C 119.77 56.15 120.06 53.14 121.46 50.47 C 118.16 52.07 119.16 56.17 119.40 59.10 M 75.15 61.32 C 76.32 62.06 77.52 62.76 78.73 63.44 C 82.61 61.92 86.84 61.49 90.97 62.03 C 94.52 62.56 97.43 64.93 100.87 65.83 C 103.69 65.40 106.88 62.62 104.95 59.62 C 101.85 57.66 98.98 55.01 95.19 54.56 C 88.10 53.49 78.95 54.21 75.15 61.32 M 118.08 62.22 C 116.85 61.85 115.61 61.49 114.38 61.13 C 114.03 61.60 113.35 62.54 113.00 63.00 C 114.63 63.78 116.27 64.51 117.92 65.22 C 117.54 68.10 117.33 71.23 120.00 73.11 C 121.64 73.43 122.81 74.55 123.80 75.83 C 121.95 78.16 120.07 80.62 117.29 81.88 C 116.57 81.17 115.86 80.45 115.14 79.73 C 114.72 80.36 113.88 81.62 113.46 82.25 C 114.87 83.03 116.29 84.15 118.02 83.86 C 121.56 83.76 123.13 80.08 125.32 77.88 C 125.79 78.20 126.72 78.85 127.18 79.17 C 127.51 78.70 128.17 77.76 128.50 77.29 C 130.93 78.43 133.34 79.64 135.90 80.46 C 134.84 79.55 133.74 78.71 132.60 77.91 C 130.38 77.67 128.69 76.25 127.27 74.65 C 124.95 73.00 122.51 71.52 120.26 69.79 C 120.10 68.22 120.08 66.65 120.01 65.09 C 124.85 62.66 130.31 62.62 135.59 62.41 C 136.98 62.41 138.99 60.72 137.50 59.48 C 134.00 55.51 128.24 57.52 123.68 57.71 C 121.55 58.86 119.55 60.26 118.08 62.22 M 68.70 60.33 C 69.01 60.75 69.63 61.58 69.94 61.99 C 70.65 61.89 72.06 61.68 72.77 61.58 C 73.00 62.26 73.48 63.61 73.71 64.29 C 73.55 62.61 73.39 60.94 73.36 59.26 C 71.82 59.66 70.26 60.00 68.70 60.33 M 52.60 70.92 C 52.64 73.87 52.52 77.06 54.23 79.62 C 54.78 81.17 56.15 80.74 57.38 80.42 C 56.20 77.80 54.83 75.18 54.85 72.23 C 56.36 69.58 57.71 66.27 61.11 65.67 C 67.48 64.52 72.61 70.33 78.99 69.94 C 83.72 70.43 87.82 67.37 90.53 63.79 C 87.05 62.39 85.01 66.50 81.87 67.22 C 76.71 68.49 71.78 65.49 67.30 63.34 C 64.57 63.28 61.78 62.94 59.10 63.57 C 55.83 64.78 54.16 68.05 52.60 70.92 M 146.76 64.00 C 148.38 64.93 150.04 65.81 151.70 66.68 C 152.17 68.71 152.73 70.86 152.15 72.93 C 151.17 74.52 149.87 75.88 148.83 77.42 C 150.48 76.40 152.33 75.29 153.11 73.42 C 153.29 71.09 152.74 68.76 152.22 66.51 C 151.18 64.61 148.75 64.16 146.76 64.00 M 135.72 70.04 C 134.16 69.50 130.04 66.42 130.40 69.89 C 132.12 72.76 136.15 72.34 139.05 72.31 C 139.19 70.13 140.75 68.42 143.05 68.60 C 145.71 67.89 147.58 70.66 150.19 70.36 C 150.57 68.40 148.94 67.43 147.49 66.62 C 143.20 65.35 138.52 66.41 135.72 70.04 M 62.80 72.80 C 60.95 74.00 57.11 73.29 56.89 76.00 C 58.56 76.98 60.46 76.22 62.24 76.14 C 63.49 77.34 63.43 79.11 63.47 80.71 C 66.48 83.74 68.15 87.76 70.89 91.01 C 75.18 96.62 81.13 100.62 87.17 104.11 C 99.57 109.63 113.61 110.10 126.93 108.92 C 132.49 108.12 138.90 108.16 143.31 104.16 C 145.28 101.54 146.25 98.28 146.73 95.08 C 147.20 88.66 147.10 82.16 145.60 75.87 C 145.22 75.75 144.45 75.50 144.06 75.37 C 143.86 73.69 144.57 70.92 142.07 70.78 C 141.53 73.35 141.41 75.98 140.91 78.56 C 136.54 82.79 130.70 85.13 124.66 85.55 C 112.29 86.54 100.06 83.36 88.39 79.53 C 80.58 77.87 73.60 73.93 66.41 70.64 C 66.21 69.29 65.68 68.11 64.81 67.11 C 63.29 68.60 63.41 70.90 62.80 72.80 M 94.47 71.40 C 94.73 72.07 95.26 73.39 95.53 74.06 C 91.95 75.29 88.09 74.15 84.52 75.28 C 88.13 75.36 91.94 75.95 95.37 74.55 C 96.31 76.19 96.43 78.10 97.02 79.86 C 98.25 81.36 100.05 81.36 101.59 80.34 C 100.72 79.56 99.84 78.79 98.96 78.03 C 98.91 77.31 98.80 75.86 98.75 75.13 C 100.85 74.62 103.58 75.28 105.00 73.27 C 102.62 71.62 98.35 71.69 96.85 74.49 C 96.07 73.46 95.30 72.40 94.47 71.40 M 101.74 76.83 C 101.99 78.08 102.25 79.32 102.53 80.56 C 105.04 77.04 109.60 81.54 111.93 77.93 C 108.72 76.46 105.18 76.35 101.74 76.83 M 48.81 76.81 C 49.18 81.43 53.64 83.31 57.52 84.01 C 54.22 82.05 50.48 80.64 48.81 76.81 M 67.90 102.35 C 74.47 107.53 82.48 110.49 90.12 113.73 C 97.92 115.97 105.96 117.40 113.93 118.93 C 122.47 119.32 131.04 120.95 139.58 119.50 C 142.50 118.31 145.02 116.33 147.72 114.73 C 147.75 113.08 147.78 111.43 147.76 109.78 C 147.29 111.26 146.97 112.78 146.41 114.23 C 143.83 116.17 141.02 117.97 137.94 119.01 C 132.34 119.30 126.66 119.50 121.11 118.56 C 116.80 118.27 112.40 118.53 108.24 117.15 C 108.22 116.90 108.18 116.40 108.16 116.15 C 108.52 116.03 109.24 115.80 109.60 115.68 C 117.41 115.73 125.23 116.10 133.03 115.63 C 137.12 115.33 140.70 112.72 142.72 109.23 C 140.19 110.43 138.53 112.90 135.89 113.92 C 131.79 115.61 127.25 115.16 122.93 115.20 C 117.92 115.02 112.88 115.63 107.91 114.78 C 106.07 114.61 104.14 113.69 102.38 114.64 C 103.32 114.96 105.21 115.61 106.16 115.94 L 106.13 116.61 C 98.22 115.36 90.41 113.30 83.17 109.83 C 77.86 107.78 73.23 104.29 67.90 102.35 M 74.36 102.35 C 82.67 107.82 92.00 111.54 101.56 114.19 C 98.75 111.71 94.63 111.41 91.28 109.87 C 85.37 107.97 80.39 103.88 74.36 102.35 M 107.42 112.60 C 114.44 112.87 121.49 112.93 128.50 112.57 C 121.52 112.01 114.41 112.01 107.42 112.60 Z" />
<path fill="#e86ee7" opacity="1.00" d=" M 15.47 56.23 C 17.86 56.12 20.26 56.12 22.66 56.22 C 23.41 58.00 24.15 59.78 24.89 61.57 C 24.69 61.85 24.28 62.42 24.08 62.70 L 24.78 63.21 C 22.41 67.24 29.06 68.43 28.22 72.33 C 26.61 72.13 25.21 71.37 23.82 70.60 C 20.03 70.21 16.22 70.58 12.43 70.69 C 12.72 68.09 11.26 64.46 14.52 63.30 C 15.62 61.29 15.02 58.53 15.47 56.23 M 18.12 57.27 C 17.96 58.15 17.64 59.91 17.48 60.79 C 19.22 61.98 20.84 63.36 21.54 65.43 C 19.83 64.97 18.14 64.46 16.45 63.92 C 15.42 65.37 14.95 67.07 14.74 68.82 C 17.61 68.74 20.48 68.73 23.34 68.82 C 22.58 65.75 22.34 62.56 21.38 59.55 C 20.37 58.67 19.22 58.00 18.12 57.27 Z" />
<path fill="#e86ee7" opacity="1.00" d=" M 193.19 59.62 C 194.09 59.51 195.89 59.30 196.79 59.19 C 197.06 60.46 197.31 61.73 197.53 63.00 C 200.64 62.61 203.93 64.53 202.89 68.08 C 197.86 71.46 191.49 71.91 186.51 75.32 C 184.95 70.70 187.81 66.58 189.23 62.35 C 190.50 61.37 191.90 60.58 193.19 59.62 M 188.13 71.45 C 192.62 70.22 197.15 68.92 201.24 66.64 C 199.42 63.70 195.74 66.67 193.34 65.20 C 194.15 64.32 194.97 63.46 195.82 62.62 C 195.53 62.18 194.93 61.32 194.63 60.88 C 190.34 62.76 189.18 67.32 188.13 71.45 Z" />
<path fill="#e86ee7" opacity="1.00" d=" M 157.08 75.15 C 155.24 76.40 155.60 71.89 157.38 73.27 C 157.30 73.74 157.15 74.68 157.08 75.15 Z" />
<path fill="#e86ee7" opacity="1.00" d=" M 144.22 83.27 C 144.77 83.84 144.77 83.84 144.22 83.27 Z" />
<path fill="#e86ee7" opacity="1.00" d=" M 184.41 100.11 C 189.40 98.53 194.21 95.86 199.40 95.17 C 199.76 96.60 199.61 97.95 198.03 98.54 L 197.88 96.32 C 197.29 96.62 196.10 97.21 195.51 97.51 C 194.14 98.21 192.68 98.66 191.18 98.95 C 189.16 99.84 187.08 100.63 185.40 102.12 C 185.07 101.45 184.74 100.78 184.41 100.11 Z" />
<path fill="#e86ee7" opacity="1.00" d=" M 56.36 123.18 C 58.26 117.14 60.82 111.24 64.03 105.78 C 66.53 107.52 69.09 109.16 71.72 110.68 C 71.21 113.60 70.93 116.55 70.82 119.52 C 68.27 119.49 65.60 119.19 63.21 120.30 C 62.14 120.37 61.09 120.58 60.07 120.91 C 59.00 121.93 57.76 122.68 56.36 123.18 Z" />
<path fill="#e86ee7" opacity="1.00" d=" M 188.42 113.32 C 189.23 111.62 190.40 109.69 192.60 110.73 C 194.43 110.77 197.16 109.56 197.92 112.00 C 198.30 113.29 198.77 116.24 196.39 115.83 C 196.24 116.28 195.94 117.18 195.79 117.63 C 192.46 119.25 189.66 121.81 185.95 122.61 C 185.76 124.00 186.39 125.30 186.75 126.61 C 188.71 130.59 183.36 132.52 180.24 131.97 C 179.87 131.64 179.14 130.97 178.78 130.64 C 177.53 133.36 174.37 132.31 172.05 132.83 C 171.34 130.43 171.27 127.94 171.19 125.46 C 171.90 124.12 172.68 122.82 173.74 121.72 C 173.28 121.22 172.37 120.23 171.92 119.74 C 173.12 120.00 174.32 120.29 175.51 120.62 C 176.48 120.22 177.45 119.80 178.41 119.38 C 181.63 117.92 184.35 115.64 186.79 113.13 C 187.20 113.17 188.01 113.27 188.42 113.32 M 191.01 113.21 C 186.26 117.09 181.59 121.92 175.07 122.27 C 174.47 125.09 172.91 128.15 174.37 130.94 C 176.23 130.29 177.12 128.44 178.22 126.95 C 178.89 126.95 180.24 126.96 180.91 126.96 C 181.31 128.18 181.72 129.40 182.14 130.61 C 184.11 129.44 184.10 127.39 183.81 125.36 C 182.84 124.62 181.88 123.87 180.93 123.12 C 185.74 119.69 192.07 118.49 195.62 113.41 C 194.08 113.35 192.55 113.29 191.01 113.21 Z" />
<path fill="#e86ee7" opacity="1.00" d=" M 69.21 130.32 C 70.20 130.38 72.18 130.50 73.17 130.56 C 74.60 136.86 74.16 143.38 71.95 149.45 C 65.57 149.28 57.90 145.12 58.28 137.84 C 59.28 137.37 60.22 136.80 61.08 136.12 C 61.62 135.31 62.23 134.55 62.90 133.85 C 63.81 133.46 64.71 133.03 65.60 132.58 C 66.93 132.07 68.28 131.63 69.66 131.28 L 69.21 130.32 Z" />
<path fill="#e86ee7" opacity="1.00" d=" M 164.51 146.26 C 169.27 147.64 173.78 149.74 178.55 151.11 C 179.71 151.36 180.87 151.63 182.02 151.93 C 182.01 152.70 182.00 154.24 182.00 155.00 C 181.53 155.00 180.58 155.00 180.11 155.00 C 180.10 154.51 180.08 153.54 180.06 153.05 C 175.29 151.38 170.32 150.40 165.69 148.30 C 165.40 147.79 164.81 146.77 164.51 146.26 Z" />
</g>
<g id="#050405fe">
<path fill="#050405" opacity="1.00" d=" M 79.57 35.30 C 91.71 35.43 103.92 34.53 115.99 36.29 C 121.54 36.42 127.08 37.03 132.49 38.35 C 139.78 39.38 146.49 43.30 151.21 48.92 C 151.25 51.48 151.13 54.23 152.48 56.53 C 153.98 58.32 156.31 59.21 157.76 61.07 C 161.19 65.12 159.30 70.73 159.82 75.54 C 157.85 79.50 155.55 83.33 154.29 87.59 C 154.44 93.54 153.93 99.52 154.53 105.44 C 155.64 110.04 155.83 114.82 155.38 119.52 C 153.16 125.98 146.62 129.12 140.45 130.72 C 135.50 130.61 130.56 130.68 125.62 130.67 C 119.42 129.18 113.20 127.79 107.01 126.24 C 99.10 125.47 92.73 120.32 85.56 117.41 C 81.45 115.80 77.43 113.95 73.55 111.83 C 73.98 115.97 79.99 115.05 80.70 119.06 C 80.91 122.10 80.29 125.19 81.37 128.13 C 82.35 125.57 83.44 123.03 85.22 120.91 C 86.54 120.93 87.86 120.94 89.18 120.96 C 90.21 121.99 91.28 122.99 92.20 124.13 C 92.78 126.19 91.38 128.12 90.86 130.05 C 88.89 130.61 86.85 130.81 84.80 130.84 C 86.37 132.94 87.80 135.14 89.20 137.35 C 92.07 138.95 92.50 142.41 94.08 145.00 C 94.60 145.04 95.64 145.12 96.16 145.17 C 95.89 142.50 94.01 140.46 93.01 138.08 C 92.58 135.21 92.17 131.60 94.93 129.73 C 97.83 126.55 102.95 125.97 106.42 128.58 C 109.61 130.05 108.16 134.30 110.46 136.57 C 112.24 136.93 113.99 137.37 115.74 137.87 C 116.28 137.65 117.37 137.21 117.92 136.99 C 117.94 137.78 117.97 139.36 117.99 140.14 C 115.65 139.98 113.34 139.60 111.06 139.05 C 112.90 143.10 117.34 141.81 120.65 140.81 C 120.03 141.91 119.41 143.01 118.78 144.10 C 115.47 144.26 112.18 143.90 109.21 142.34 C 110.08 143.82 111.03 145.27 112.06 146.65 C 113.71 146.96 115.25 147.62 116.55 148.70 C 115.96 148.99 114.78 149.57 114.18 149.85 C 112.86 149.44 111.54 149.05 110.21 148.68 C 108.58 146.40 107.37 143.87 105.93 141.48 C 105.82 145.55 109.03 148.59 109.64 152.50 C 106.28 151.66 105.08 148.47 103.72 145.69 C 103.64 143.15 103.98 140.62 105.11 138.32 C 103.07 138.87 100.98 139.20 98.89 139.45 C 98.90 138.91 98.91 137.85 98.92 137.31 C 102.31 137.25 105.24 135.54 107.48 133.10 C 105.76 131.48 104.10 129.46 101.62 129.08 C 98.83 129.18 96.89 131.49 94.80 133.03 C 94.84 134.36 94.88 135.68 94.91 137.01 C 95.94 138.51 96.96 140.02 98.02 141.51 C 97.76 143.68 98.83 146.52 96.70 148.00 C 92.83 148.72 91.21 144.55 89.82 141.81 C 89.87 143.56 89.94 145.30 90.02 147.04 C 87.94 149.28 85.14 150.43 82.07 150.31 C 81.37 149.51 80.67 148.71 79.96 147.92 C 80.14 145.70 79.51 143.09 81.11 141.25 C 82.50 139.35 84.75 138.52 86.82 137.62 C 84.65 134.94 83.25 131.60 80.43 129.49 C 77.89 127.71 77.39 124.01 79.07 121.47 C 78.03 118.75 75.54 117.26 72.93 116.30 C 74.62 127.12 79.13 138.69 74.37 149.35 C 79.88 152.96 86.93 154.45 91.19 159.73 C 96.04 167.69 98.94 177.23 97.60 186.58 C 96.93 191.19 94.54 195.24 91.94 199.01 C 93.76 198.89 95.58 198.78 97.41 198.70 C 98.53 199.59 99.67 200.47 100.82 201.32 C 102.41 206.69 102.83 212.26 102.66 217.83 C 101.10 218.52 99.52 219.18 97.95 219.83 C 97.51 215.40 96.67 210.99 95.14 206.81 C 94.09 204.01 91.59 202.22 89.72 200.01 C 89.72 196.16 93.30 193.48 94.30 189.86 C 96.96 183.76 95.01 177.09 93.22 171.05 C 92.04 167.67 90.82 164.24 88.78 161.27 C 84.59 156.26 77.79 154.99 72.68 151.22 C 73.71 159.02 71.66 167.59 65.57 172.92 C 62.72 173.52 59.76 173.14 56.86 173.25 C 54.77 171.98 52.25 170.99 51.25 168.57 C 49.56 165.85 50.17 162.44 49.05 159.58 C 45.90 162.20 43.52 165.76 39.89 167.79 C 37.56 168.71 34.97 168.30 32.52 168.51 C 30.03 166.23 30.66 162.90 31.44 160.01 C 34.23 162.51 38.82 163.45 41.81 160.77 C 44.45 158.45 47.07 155.79 50.85 155.72 C 51.72 159.88 51.33 164.57 53.85 168.20 C 56.20 171.16 60.17 171.48 63.66 171.15 C 68.02 166.08 71.63 159.04 69.83 152.27 C 67.30 150.28 63.51 150.49 61.03 148.22 C 55.92 145.11 55.13 138.81 53.28 133.66 C 53.33 130.25 53.03 126.80 53.49 123.41 C 54.69 118.18 57.23 113.38 59.44 108.52 C 57.81 105.76 55.74 102.12 51.89 102.95 C 49.21 102.76 48.29 105.21 48.13 107.42 C 49.11 108.59 50.07 109.76 51.04 110.93 C 52.19 117.93 48.50 124.50 43.21 128.84 C 44.67 129.00 46.13 129.17 47.58 129.33 C 48.28 130.03 48.98 130.72 49.68 131.41 C 49.67 133.51 49.70 135.61 49.82 137.71 C 48.63 139.19 47.57 140.92 45.85 141.86 C 44.17 142.49 42.31 142.07 40.56 142.18 C 40.58 143.29 40.60 144.40 40.63 145.52 C 39.58 146.62 38.54 147.74 37.54 148.88 C 35.23 149.42 32.82 149.91 30.44 149.54 C 26.83 147.91 27.44 143.29 27.97 140.10 C 29.09 138.02 30.92 136.46 32.52 134.76 C 29.69 126.39 37.97 119.58 36.62 111.40 C 35.91 109.27 35.12 107.04 33.32 105.57 C 31.70 103.87 29.14 104.18 27.02 103.83 C 25.91 104.68 24.79 105.52 23.68 106.37 C 24.57 107.84 25.49 109.28 26.40 110.74 C 28.22 111.26 32.19 109.94 31.57 113.05 C 29.34 113.18 27.11 112.91 24.91 112.52 C 25.03 112.70 25.26 113.07 25.38 113.25 C 28.93 116.43 27.52 121.45 27.78 125.62 C 25.80 127.44 25.23 131.96 21.91 131.29 C 21.43 128.38 24.11 126.62 25.07 124.17 C 25.46 122.13 25.35 120.04 25.46 117.97 C 25.31 118.01 24.99 118.10 24.83 118.14 C 24.00 121.32 22.48 124.26 20.74 127.03 C 19.49 127.01 18.25 126.98 17.00 126.96 C 17.04 126.51 17.13 125.62 17.17 125.17 C 21.82 122.74 22.42 116.99 23.09 112.36 C 19.76 114.84 18.46 120.70 13.60 120.50 L 13.67 119.10 C 17.13 116.14 20.63 112.64 21.16 107.87 C 21.33 105.33 22.81 103.35 24.82 101.91 C 28.47 102.16 32.67 101.22 35.67 103.87 C 40.12 106.97 39.35 113.27 39.21 118.02 C 37.46 123.09 33.85 127.97 34.60 133.58 C 40.40 128.38 47.78 123.28 49.05 115.01 C 49.79 111.47 45.63 109.44 45.92 105.99 C 46.07 104.50 45.46 102.20 47.30 101.55 C 50.93 100.53 55.02 100.34 58.46 102.10 C 59.49 103.61 60.65 105.03 61.89 106.39 C 63.54 102.74 59.04 100.99 57.16 98.60 C 55.36 95.19 54.57 91.09 51.53 88.48 C 48.42 85.61 45.40 82.49 43.64 78.58 C 43.00 75.42 42.52 72.07 43.26 68.89 C 45.14 64.07 49.27 60.67 53.06 57.36 C 56.81 54.48 57.04 49.29 59.80 45.70 C 62.54 41.89 65.67 37.95 70.14 36.13 C 73.26 35.64 76.47 36.06 79.57 35.30 M 71.46 38.52 C 66.65 40.28 63.39 44.65 60.91 48.93 C 59.42 52.47 58.22 56.28 55.29 58.96 C 55.70 60.03 56.14 61.09 56.58 62.15 C 55.10 61.74 53.62 61.35 52.16 60.90 L 53.27 64.37 L 51.33 61.98 C 49.41 64.25 47.27 66.42 46.00 69.15 C 44.58 71.95 45.73 75.12 46.02 78.04 C 47.41 79.47 48.59 81.10 49.24 83.01 C 51.23 84.26 53.40 85.14 55.56 86.03 C 54.84 86.08 53.41 86.18 52.69 86.23 C 56.40 88.65 57.40 92.97 59.28 96.68 C 64.41 103.57 71.90 108.11 79.36 112.12 C 87.59 115.03 95.36 119.09 103.04 123.20 C 103.76 123.09 105.21 122.87 105.93 122.76 C 112.63 125.30 119.75 126.61 126.75 128.11 C 132.99 128.32 139.57 129.09 145.41 126.33 C 148.90 124.58 151.63 121.84 153.24 118.27 C 153.35 113.82 152.70 109.43 151.91 105.07 C 151.65 99.71 151.83 94.33 151.80 88.97 C 151.76 84.55 154.03 80.69 156.31 77.08 C 153.41 78.42 150.56 79.87 147.55 80.92 C 149.54 78.56 152.74 77.99 155.25 76.37 C 154.94 74.29 155.28 72.24 156.28 70.40 C 156.08 66.08 152.11 63.74 148.80 61.73 C 145.54 61.59 142.27 61.75 139.01 61.45 C 139.21 61.09 139.62 60.36 139.82 59.99 C 143.09 61.02 146.51 61.45 149.93 61.17 C 153.24 63.18 155.79 66.00 157.45 69.50 C 157.41 67.58 157.46 65.54 156.36 63.86 C 154.66 60.79 150.27 59.94 149.47 56.27 C 148.53 53.54 149.51 50.00 146.92 48.05 C 141.34 43.56 134.47 40.00 127.09 40.68 C 126.76 40.43 126.11 39.92 125.79 39.66 C 107.78 37.42 89.53 36.91 71.46 38.52 M 157.08 75.15 C 157.15 74.68 157.30 73.74 157.38 73.27 C 155.60 71.89 155.24 76.40 157.08 75.15 M 56.36 123.18 C 57.76 122.68 59.00 121.93 60.07 120.91 C 61.09 120.58 62.14 120.37 63.21 120.30 C 65.60 119.19 68.27 119.49 70.82 119.52 C 70.93 116.55 71.21 113.60 71.72 110.68 C 69.09 109.16 66.53 107.52 64.03 105.78 C 60.82 111.24 58.26 117.14 56.36 123.18 M 64.44 121.58 L 64.66 122.41 C 63.22 122.43 61.78 122.47 60.34 122.51 L 60.57 123.82 C 60.16 123.70 59.36 123.46 58.95 123.34 C 58.55 123.68 57.75 124.37 57.35 124.72 L 57.37 124.95 C 55.47 126.33 55.69 128.61 55.62 130.70 L 57.64 130.85 L 57.50 129.36 C 58.04 129.42 59.14 129.55 59.68 129.62 C 59.60 129.08 59.42 128.01 59.34 127.48 L 60.68 127.59 L 60.42 126.17 C 60.97 126.34 62.09 126.68 62.65 126.85 L 62.24 125.60 C 63.53 125.59 64.76 125.36 65.96 124.91 C 66.42 124.54 67.33 123.80 67.79 123.43 C 69.19 123.47 70.58 123.48 71.98 123.46 C 71.60 119.64 66.86 122.27 64.44 121.58 M 83.33 128.92 C 84.81 128.90 86.29 128.90 87.77 128.89 C 88.58 127.92 89.43 126.97 90.12 125.90 C 89.65 124.34 88.10 123.45 87.07 122.29 C 85.64 124.39 84.37 126.60 83.33 128.92 M 68.52 126.97 C 67.96 126.65 66.83 126.00 66.26 125.67 L 66.73 127.43 C 64.90 127.43 63.06 127.46 61.23 127.46 L 61.80 128.77 L 60.23 128.29 C 60.34 128.86 60.55 130.00 60.66 130.57 C 60.06 130.52 58.87 130.43 58.27 130.38 C 58.36 130.94 58.53 132.05 58.62 132.61 C 57.92 132.55 56.51 132.42 55.81 132.35 C 56.27 133.65 57.12 134.56 58.36 135.10 L 58.23 133.39 L 59.20 133.49 C 59.42 132.13 60.22 131.38 61.59 131.24 L 61.51 130.33 C 62.00 130.44 62.99 130.65 63.48 130.75 L 63.43 129.45 C 64.21 129.45 65.76 129.46 66.53 129.46 L 66.51 128.43 C 68.25 128.41 69.99 128.38 71.73 128.37 C 71.74 127.64 71.76 126.18 71.77 125.45 C 70.90 125.44 69.16 125.41 68.30 125.39 L 68.52 126.97 M 41.23 140.65 C 44.54 140.19 47.85 137.67 47.15 133.95 C 47.38 131.48 44.35 131.23 42.83 130.13 C 39.49 132.86 40.96 137.02 41.23 140.65 M 69.21 130.32 L 69.66 131.28 C 68.28 131.63 66.93 132.07 65.60 132.58 C 64.71 133.03 63.81 133.46 62.90 133.85 C 62.23 134.55 61.62 135.31 61.08 136.12 C 60.22 136.80 59.28 137.37 58.28 137.84 C 57.90 145.12 65.57 149.28 71.95 149.45 C 74.16 143.38 74.60 136.86 73.17 130.56 C 72.18 130.50 70.20 130.38 69.21 130.32 M 36.25 135.57 C 36.65 136.70 37.56 138.31 38.82 138.45 C 39.15 137.18 38.36 135.90 38.03 134.70 C 37.56 133.34 35.93 134.54 36.25 135.57 M 33.52 136.50 C 31.36 139.18 29.14 142.08 29.56 145.76 C 30.17 146.32 31.39 147.42 32.00 147.97 C 34.94 147.35 39.17 146.03 38.84 142.25 C 38.04 141.32 37.02 140.63 36.07 139.89 C 35.21 138.76 34.37 137.63 33.52 136.50 M 82.35 148.08 C 84.34 147.68 86.23 146.97 87.99 145.99 C 87.98 143.84 87.98 141.69 87.95 139.54 C 84.25 140.66 80.93 143.93 82.35 148.08 M 32.64 164.05 C 33.06 167.71 37.33 166.61 39.68 165.71 C 39.96 165.30 40.53 164.46 40.81 164.05 C 38.09 163.99 35.36 163.97 32.64 164.05 M 93.85 199.73 C 96.79 205.03 99.07 210.74 99.53 216.88 C 99.71 216.54 100.06 215.88 100.24 215.55 C 100.27 211.17 99.84 206.72 98.17 202.64 C 96.95 201.37 95.41 200.50 93.85 199.73 Z" />
<path fill="#050405" opacity="1.00" d=" M 68.79 50.02 C 76.09 45.70 83.12 40.11 91.89 39.27 C 97.55 39.14 103.25 38.94 108.90 39.45 C 101.61 40.71 93.91 38.44 86.86 41.30 C 80.20 43.90 73.56 47.11 68.27 52.02 C 68.40 51.52 68.66 50.52 68.79 50.02 Z" />
<path fill="#050405" opacity="1.00" d=" M 109.22 40.42 C 111.02 40.02 114.26 39.49 115.37 41.08 C 113.54 41.38 110.48 41.72 109.22 40.42 Z" />
<path fill="#050405" opacity="1.00" d=" M 71.03 54.35 C 79.63 43.50 95.15 40.55 108.13 43.50 C 117.04 44.87 126.08 43.80 135.02 43.28 C 136.13 43.87 137.01 44.82 137.94 45.64 C 136.57 45.15 135.23 44.59 133.89 44.02 C 126.31 44.89 118.65 45.17 111.03 44.72 C 106.95 44.55 103.06 42.93 98.96 43.16 C 91.86 43.39 84.58 44.77 78.50 48.60 C 75.80 50.26 74.15 53.35 71.03 54.35 Z" />
<path fill="#050405" opacity="1.00" d=" M 85.14 47.46 C 90.90 45.73 96.98 46.21 102.91 46.26 C 102.68 46.91 102.45 47.55 102.22 48.20 C 103.82 50.28 104.05 52.88 103.92 55.41 C 103.00 52.48 102.51 49.02 99.81 47.12 C 95.55 46.56 91.21 47.12 87.00 47.83 C 82.00 48.83 78.40 52.63 74.62 55.72 C 76.73 51.58 80.90 49.00 85.14 47.46 Z" />
<path fill="#050405" opacity="1.00" d=" M 116.73 49.34 C 120.30 47.95 124.22 48.01 127.96 47.33 C 130.94 46.79 133.64 48.42 136.14 49.81 C 138.21 50.81 138.29 53.39 138.93 55.32 C 137.10 51.31 133.43 48.58 129.09 47.91 C 124.98 48.47 120.90 49.51 116.73 49.34 Z" />
<path fill="#050405" opacity="1.00" d=" M 119.40 59.10 C 119.16 56.17 118.16 52.07 121.46 50.47 C 120.06 53.14 119.77 56.15 119.40 59.10 Z" />
<path fill="#050405" opacity="1.00" d=" M 75.15 61.32 C 78.95 54.21 88.10 53.49 95.19 54.56 C 98.98 55.01 101.85 57.66 104.95 59.62 C 106.88 62.62 103.69 65.40 100.87 65.83 C 97.43 64.93 94.52 62.56 90.97 62.03 C 86.84 61.49 82.61 61.92 78.73 63.44 C 77.52 62.76 76.32 62.06 75.15 61.32 M 93.07 56.70 C 92.73 57.80 92.36 58.90 91.97 60.00 C 95.31 59.84 97.87 62.23 100.91 63.12 C 101.43 62.78 102.46 62.10 102.98 61.76 C 100.89 59.71 98.36 58.17 95.63 57.11 C 94.99 57.01 93.71 56.80 93.07 56.70 M 78.68 60.03 C 79.07 61.64 83.26 60.87 82.68 59.02 C 81.49 57.92 79.38 58.74 78.68 60.03 Z" />
<path fill="#050405" opacity="1.00" d=" M 118.08 62.22 C 119.55 60.26 121.55 58.86 123.68 57.71 C 128.24 57.52 134.00 55.51 137.50 59.48 C 138.99 60.72 136.98 62.41 135.59 62.41 C 130.31 62.62 124.85 62.66 120.01 65.09 C 120.08 66.65 120.10 68.22 120.26 69.79 C 122.51 71.52 124.95 73.00 127.27 74.65 C 128.69 76.25 130.38 77.67 132.60 77.91 C 133.74 78.71 134.84 79.55 135.90 80.46 C 133.34 79.64 130.93 78.43 128.50 77.29 C 128.17 77.76 127.51 78.70 127.18 79.17 C 126.72 78.85 125.79 78.20 125.32 77.88 C 123.13 80.08 121.56 83.76 118.02 83.86 C 116.29 84.15 114.87 83.03 113.46 82.25 C 113.88 81.62 114.72 80.36 115.14 79.73 C 115.86 80.45 116.57 81.17 117.29 81.88 C 120.07 80.62 121.95 78.16 123.80 75.83 C 122.81 74.55 121.64 73.43 120.00 73.11 C 117.33 71.23 117.54 68.10 117.92 65.22 C 116.27 64.51 114.63 63.78 113.00 63.00 C 113.35 62.54 114.03 61.60 114.38 61.13 C 115.61 61.49 116.85 61.85 118.08 62.22 Z" />
<path fill="#050405" opacity="1.00" d=" M 68.70 60.33 C 70.26 60.00 71.82 59.66 73.36 59.26 C 73.39 60.94 73.55 62.61 73.71 64.29 C 73.48 63.61 73.00 62.26 72.77 61.58 C 72.06 61.68 70.65 61.89 69.94 61.99 C 69.63 61.58 69.01 60.75 68.70 60.33 Z" />
<path fill="#050405" opacity="1.00" d=" M 52.60 70.92 C 54.16 68.05 55.83 64.78 59.10 63.57 C 61.78 62.94 64.57 63.28 67.30 63.34 C 71.78 65.49 76.71 68.49 81.87 67.22 C 85.01 66.50 87.05 62.39 90.53 63.79 C 87.82 67.37 83.72 70.43 78.99 69.94 C 72.61 70.33 67.48 64.52 61.11 65.67 C 57.71 66.27 56.36 69.58 54.85 72.23 C 54.83 75.18 56.20 77.80 57.38 80.42 C 56.15 80.74 54.78 81.17 54.23 79.62 C 52.52 77.06 52.64 73.87 52.60 70.92 Z" />
<path fill="#050405" opacity="1.00" d=" M 146.76 64.00 C 148.75 64.16 151.18 64.61 152.22 66.51 C 152.74 68.76 153.29 71.09 153.11 73.42 C 152.33 75.29 150.48 76.40 148.83 77.42 C 149.87 75.88 151.17 74.52 152.15 72.93 C 152.73 70.86 152.17 68.71 151.70 66.68 C 150.04 65.81 148.38 64.93 146.76 64.00 Z" />
<path fill="#050405" opacity="1.00" d=" M 135.72 70.04 C 138.52 66.41 143.20 65.35 147.49 66.62 C 148.94 67.43 150.57 68.40 150.19 70.36 C 147.58 70.66 145.71 67.89 143.05 68.60 C 140.75 68.42 139.19 70.13 139.05 72.31 C 136.15 72.34 132.12 72.76 130.40 69.89 C 130.04 66.42 134.16 69.50 135.72 70.04 Z" />
<path fill="#050405" opacity="1.00" d=" M 62.80 72.80 C 63.41 70.90 63.29 68.60 64.81 67.11 C 65.68 68.11 66.21 69.29 66.41 70.64 C 73.60 73.93 80.58 77.87 88.39 79.53 C 100.06 83.36 112.29 86.54 124.66 85.55 C 130.70 85.13 136.54 82.79 140.91 78.56 C 141.41 75.98 141.53 73.35 142.07 70.78 C 144.57 70.92 143.86 73.69 144.06 75.37 C 144.45 75.50 145.22 75.75 145.60 75.87 C 147.10 82.16 147.20 88.66 146.73 95.08 C 146.25 98.28 145.28 101.54 143.31 104.16 C 138.90 108.16 132.49 108.12 126.93 108.92 C 113.61 110.10 99.57 109.63 87.17 104.11 C 81.13 100.62 75.18 96.62 70.89 91.01 C 68.15 87.76 66.48 83.74 63.47 80.71 C 63.43 79.11 63.49 77.34 62.24 76.14 C 60.46 76.22 58.56 76.98 56.89 76.00 C 57.11 73.29 60.95 74.00 62.80 72.80 M 64.69 72.60 C 64.63 75.06 65.67 77.28 66.62 79.47 C 70.12 81.00 73.49 82.80 76.94 84.43 C 76.58 82.36 76.42 80.26 76.36 78.16 C 72.36 76.54 68.63 74.33 64.69 72.60 M 142.50 79.44 C 141.58 80.38 142.72 82.84 144.08 82.04 C 145.10 81.05 143.92 78.67 142.50 79.44 M 78.53 79.18 C 78.47 82.24 80.50 84.37 82.61 86.25 C 86.30 86.28 89.29 88.80 92.82 89.50 C 93.38 87.67 93.65 85.78 94.07 83.92 C 88.95 82.16 83.66 80.95 78.53 79.18 M 139.89 81.25 C 139.62 84.28 140.08 87.30 140.13 90.33 C 141.09 89.77 142.03 89.18 142.95 88.57 C 142.42 85.98 141.68 83.28 139.89 81.25 M 144.22 83.27 C 144.77 83.84 144.77 83.84 144.22 83.27 M 68.62 83.52 C 70.90 86.87 73.21 90.23 76.09 93.09 C 77.46 91.37 76.85 89.24 76.69 87.28 C 74.07 85.88 71.39 84.59 68.62 83.52 M 96.43 84.86 C 96.02 86.76 95.61 88.66 95.06 90.53 C 99.68 91.45 104.19 92.97 108.98 92.43 C 108.85 90.74 108.83 89.04 108.61 87.36 C 105.59 86.69 102.51 86.20 99.49 85.49 C 98.48 85.25 97.46 85.04 96.43 84.86 M 132.80 86.31 C 133.28 88.17 134.20 90.03 133.66 91.99 C 133.86 91.93 134.28 91.80 134.48 91.74 C 135.18 91.55 136.58 91.17 137.28 90.98 C 138.02 88.84 138.15 86.57 137.49 84.39 C 135.92 85.02 134.36 85.68 132.80 86.31 M 111.08 87.17 C 111.02 88.95 110.99 90.73 110.98 92.52 C 113.79 92.36 116.62 92.31 119.43 92.58 C 119.57 92.16 119.85 91.31 119.99 90.89 C 119.66 90.18 118.99 88.77 118.66 88.06 C 116.10 88.12 113.58 87.63 111.08 87.17 M 121.52 88.02 C 121.80 89.54 122.00 91.06 122.20 92.59 C 125.38 92.42 128.55 92.18 131.72 91.97 C 131.27 90.33 130.89 88.67 130.57 87.00 C 127.59 87.60 124.57 88.07 121.52 88.02 M 79.19 88.50 C 79.68 90.89 79.50 93.17 77.50 94.80 C 81.35 97.23 85.00 99.96 88.89 102.34 C 89.77 100.29 90.57 98.19 91.93 96.39 C 91.84 95.43 91.72 94.48 91.54 93.54 C 87.21 92.46 83.15 90.53 79.19 88.50 M 93.99 94.04 C 93.99 95.32 93.99 96.60 93.99 97.89 C 92.86 99.54 91.96 101.31 91.13 103.12 C 93.86 104.09 96.70 104.74 99.44 105.69 C 101.68 105.78 103.89 106.22 106.09 106.61 C 106.16 103.73 106.24 100.85 106.26 97.97 C 104.69 97.53 103.12 97.10 101.54 96.69 C 98.95 96.04 96.49 94.98 93.99 94.04 M 138.17 103.28 C 138.42 102.02 138.93 99.51 139.18 98.25 C 138.69 98.46 137.72 98.90 137.23 99.12 C 136.34 101.25 135.32 103.33 134.36 105.44 C 136.73 104.60 139.54 104.42 141.55 102.81 C 142.61 100.55 143.54 98.20 143.89 95.72 C 142.10 98.33 141.17 101.71 138.17 103.28 M 108.33 106.91 C 111.23 106.98 114.14 106.97 117.04 107.00 C 117.21 106.39 117.56 105.17 117.73 104.56 C 117.95 102.88 118.28 101.23 118.63 99.59 C 115.22 99.86 111.78 99.58 108.65 98.12 C 108.68 101.05 108.65 103.99 108.33 106.91 M 130.12 100.08 C 129.95 100.69 129.61 101.89 129.44 102.50 C 128.92 103.82 128.30 105.12 127.97 106.51 C 129.53 106.36 131.07 106.07 132.62 105.86 C 132.39 105.53 131.93 104.87 131.69 104.54 C 132.67 102.85 133.61 101.15 134.55 99.44 C 133.07 99.64 131.60 99.88 130.12 100.08 M 120.15 103.32 C 120.00 104.55 119.84 105.78 119.66 107.00 C 121.19 107.00 122.72 107.00 124.25 107.00 C 125.73 104.84 126.88 102.48 127.73 100.01 C 125.67 100.13 123.60 100.21 121.54 100.06 C 121.07 101.14 120.61 102.23 120.15 103.32 Z" />
<path fill="#050405" opacity="1.00" d=" M 94.47 71.40 C 95.30 72.40 96.07 73.46 96.85 74.49 C 98.35 71.69 102.62 71.62 105.00 73.27 C 103.58 75.28 100.85 74.62 98.75 75.13 C 98.80 75.86 98.91 77.31 98.96 78.03 C 99.84 78.79 100.72 79.56 101.59 80.34 C 100.05 81.36 98.25 81.36 97.02 79.86 C 96.43 78.10 96.31 76.19 95.37 74.55 C 91.94 75.95 88.13 75.36 84.52 75.28 C 88.09 74.15 91.95 75.29 95.53 74.06 C 95.26 73.39 94.73 72.07 94.47 71.40 Z" />
<path fill="#050405" opacity="1.00" d=" M 101.74 76.83 C 105.18 76.35 108.72 76.46 111.93 77.93 C 109.60 81.54 105.04 77.04 102.53 80.56 C 102.25 79.32 101.99 78.08 101.74 76.83 Z" />
<path fill="#050405" opacity="1.00" d=" M 48.81 76.81 C 50.48 80.64 54.22 82.05 57.52 84.01 C 53.64 83.31 49.18 81.43 48.81 76.81 Z" />
<path fill="#050405" opacity="1.00" d=" M 67.90 102.35 C 73.23 104.29 77.86 107.78 83.17 109.83 C 90.41 113.30 98.22 115.36 106.13 116.61 L 106.16 115.94 C 105.21 115.61 103.32 114.96 102.38 114.64 C 104.14 113.69 106.07 114.61 107.91 114.78 C 112.88 115.63 117.92 115.02 122.93 115.20 C 127.25 115.16 131.79 115.61 135.89 113.92 C 138.53 112.90 140.19 110.43 142.72 109.23 C 140.70 112.72 137.12 115.33 133.03 115.63 C 125.23 116.10 117.41 115.73 109.60 115.68 C 109.24 115.80 108.52 116.03 108.16 116.15 C 108.18 116.40 108.22 116.90 108.24 117.15 C 112.40 118.53 116.80 118.27 121.11 118.56 C 126.66 119.50 132.34 119.30 137.94 119.01 C 141.02 117.97 143.83 116.17 146.41 114.23 C 146.97 112.78 147.29 111.26 147.76 109.78 C 147.78 111.43 147.75 113.08 147.72 114.73 C 145.02 116.33 142.50 118.31 139.58 119.50 C 131.04 120.95 122.47 119.32 113.93 118.93 C 105.96 117.40 97.92 115.97 90.12 113.73 C 82.48 110.49 74.47 107.53 67.90 102.35 Z" />
<path fill="#050405" opacity="1.00" d=" M 74.36 102.35 C 80.39 103.88 85.37 107.97 91.28 109.87 C 94.63 111.41 98.75 111.71 101.56 114.19 C 92.00 111.54 82.67 107.82 74.36 102.35 Z" />
<path fill="#050405" opacity="1.00" d=" M 107.42 112.60 C 114.41 112.01 121.52 112.01 128.50 112.57 C 121.49 112.93 114.44 112.87 107.42 112.60 Z" />
</g>
</svg>
