<?xml version="1.0" encoding="UTF-8" ?>
<!DOCTYPE svg PUBLIC "-//W3C//DTD SVG 1.1//EN" "http://www.w3.org/Graphics/SVG/1.1/DTD/svg11.dtd">
<svg width="210pt" height="220pt" viewBox="0 0 210 220" version="1.1" xmlns="http://www.w3.org/2000/svg">
<g id="#feffffff">
<path fill="#feffff" opacity="1.00" d=" M 0.00 0.00 L 210.00 0.00 L 210.00 220.00 L 0.00 220.00 L 0.00 0.00 M 102.75 38.87 C 98.52 38.28 95.45 33.82 90.83 34.48 C 84.31 35.39 83.29 44.31 76.83 45.34 C 71.83 44.90 67.90 40.45 62.59 41.35 C 60.28 44.89 60.42 49.17 60.29 53.22 C 57.74 55.77 53.66 55.60 51.08 58.15 C 47.92 61.24 47.20 65.87 47.71 70.10 C 49.27 77.02 51.92 83.62 54.84 90.07 C 55.15 90.99 55.44 91.91 55.72 92.84 C 52.56 97.33 48.37 101.50 47.06 106.98 C 49.35 106.42 52.25 106.18 52.95 103.45 L 49.96 104.46 C 52.37 101.71 53.27 97.31 56.81 95.73 C 57.25 98.91 55.90 101.85 53.08 103.41 C 53.23 108.79 47.54 110.57 43.18 111.11 C 42.13 111.42 41.08 111.74 40.04 112.06 C 35.45 114.18 31.04 116.83 27.48 120.45 C 18.14 129.32 13.31 141.55 5.76 151.77 C 4.84 153.11 3.64 154.44 3.57 156.15 L 4.50 154.90 C 10.63 151.03 13.24 143.91 16.86 137.98 C 20.82 131.72 24.94 125.43 30.45 120.40 C 35.59 115.30 42.51 112.51 49.61 111.52 C 48.28 115.97 47.28 120.52 47.13 125.18 C 46.62 128.03 46.64 130.95 47.16 133.81 C 47.35 135.92 47.54 138.04 47.79 140.15 C 48.79 145.27 49.99 150.36 50.80 155.52 L 51.44 155.41 C 51.48 156.78 51.53 158.14 51.59 159.51 L 52.19 159.40 C 52.72 162.92 53.84 166.40 55.79 169.40 C 59.92 175.75 64.95 181.50 70.64 186.50 C 73.40 188.89 77.01 189.76 80.47 190.55 C 80.44 190.34 80.37 189.91 80.34 189.70 C 87.50 189.43 91.64 182.62 97.92 180.16 C 100.35 179.20 102.74 178.16 105.18 177.23 C 105.63 176.94 106.53 176.38 106.98 176.10 C 111.72 171.06 116.71 166.24 121.46 161.20 L 121.48 160.42 L 122.57 160.52 L 122.39 159.37 L 123.58 159.54 L 123.34 158.70 C 123.72 158.48 124.49 158.03 124.88 157.81 C 127.39 155.61 130.13 153.68 133.12 152.19 C 137.62 150.39 142.98 149.08 145.36 144.38 C 145.44 143.82 145.60 142.70 145.69 142.14 C 149.96 141.48 153.08 137.11 157.73 138.46 C 157.15 138.18 156.00 137.62 155.42 137.34 L 155.92 136.41 C 154.87 136.47 152.77 136.58 151.71 136.64 C 150.20 137.62 148.69 138.63 147.21 139.66 C 147.34 134.95 149.22 130.19 147.46 125.57 C 145.93 124.99 144.37 124.49 142.80 124.03 C 141.26 123.85 139.72 123.92 138.19 124.13 C 135.29 124.54 132.44 125.20 129.54 125.61 C 131.87 122.38 136.24 121.99 139.29 119.64 C 137.50 119.51 135.70 119.55 133.92 119.78 C 132.21 120.29 130.47 120.60 128.69 120.73 C 134.54 113.11 142.26 107.25 150.27 102.09 C 150.25 101.81 150.20 101.27 150.18 101.00 C 148.91 99.88 147.57 98.82 146.43 97.56 C 146.18 95.98 146.48 94.38 146.57 92.80 C 149.44 88.50 153.84 85.71 158.03 82.85 C 159.22 81.37 160.32 79.81 161.40 78.24 C 161.51 76.83 161.64 75.43 161.77 74.02 C 163.32 74.96 164.86 75.94 166.41 76.90 C 166.46 73.75 166.41 70.60 166.68 67.46 C 166.06 67.51 164.83 67.61 164.22 67.65 C 164.62 66.77 165.44 65.00 165.84 64.12 C 166.26 64.61 167.09 65.59 167.50 66.08 C 167.35 66.43 167.04 67.15 166.88 67.50 C 168.25 67.41 169.63 67.35 171.00 67.34 C 171.91 68.59 173.10 69.57 174.57 70.08 C 174.58 68.48 174.56 66.88 174.53 65.28 L 173.71 65.58 C 173.64 64.78 173.50 63.18 173.43 62.38 L 174.51 62.54 L 174.50 61.89 C 179.09 60.10 183.49 57.75 188.55 57.49 C 187.22 58.49 184.54 60.48 183.20 61.48 C 187.94 65.58 190.57 71.83 190.58 78.05 C 190.92 88.21 187.17 97.91 183.26 107.11 C 182.57 108.76 181.89 110.43 181.24 112.10 C 179.75 115.57 178.21 119.04 176.99 122.62 C 175.71 126.71 176.27 131.12 177.72 135.08 C 176.41 136.29 175.07 137.46 173.69 138.60 C 170.45 138.82 167.18 138.77 163.98 138.15 C 162.61 137.89 159.87 137.37 158.51 137.11 L 159.29 138.13 C 162.05 141.35 167.07 140.76 170.84 142.12 C 177.06 143.60 183.31 145.50 188.75 148.94 C 191.52 151.05 195.54 154.39 192.82 158.12 C 192.71 159.11 192.63 160.09 192.56 161.08 C 192.90 161.65 193.57 162.78 193.90 163.35 C 194.45 163.48 195.53 163.75 196.07 163.88 C 195.32 162.07 194.55 160.26 194.01 158.37 C 198.44 157.90 199.83 164.34 204.47 163.36 C 204.07 163.12 203.28 162.63 202.88 162.39 C 197.66 155.91 192.73 148.83 185.45 144.47 C 182.04 142.29 178.11 141.17 174.18 140.35 L 174.22 138.68 C 174.88 138.46 176.19 138.01 176.85 137.79 C 177.85 137.29 178.84 136.79 179.84 136.29 C 179.47 133.21 179.02 130.11 179.21 127.00 C 179.35 121.21 182.44 116.13 184.69 110.96 C 190.32 99.18 193.98 86.02 192.27 72.88 C 191.09 68.47 189.04 64.35 186.03 60.90 C 188.85 60.04 191.63 59.07 194.44 58.18 C 194.38 57.84 194.25 57.14 194.19 56.79 C 192.25 56.57 190.32 56.34 188.39 56.13 C 188.45 52.82 188.73 49.03 185.94 46.62 C 185.37 47.88 184.80 49.15 184.24 50.42 C 183.83 50.30 183.00 50.06 182.59 49.94 C 182.50 50.68 182.31 52.17 182.22 52.91 C 181.70 54.26 181.24 55.64 180.85 57.03 C 182.83 55.28 184.43 53.04 186.83 51.82 C 186.49 54.23 184.94 56.26 182.53 56.89 L 182.51 57.22 C 181.39 57.47 180.27 57.72 179.16 57.99 C 177.91 58.60 176.65 59.20 175.40 59.81 C 175.40 57.81 175.40 55.82 175.35 53.82 C 174.92 53.79 174.04 53.72 173.61 53.69 C 173.61 54.51 173.62 56.16 173.63 56.99 C 172.81 56.85 171.17 56.59 170.35 56.45 C 170.47 59.18 170.67 61.91 170.62 64.64 C 167.91 63.88 165.16 63.15 162.32 63.23 C 162.59 64.17 163.12 66.05 163.39 66.99 C 163.41 68.63 163.56 70.40 162.07 71.49 C 159.34 71.36 156.76 70.22 154.00 70.21 C 154.60 72.05 155.36 73.82 156.05 75.62 C 153.84 75.12 151.65 74.53 149.41 74.17 L 149.57 73.54 C 148.19 73.47 146.81 73.41 145.43 73.35 L 145.53 72.66 C 144.32 72.53 143.11 72.39 141.91 72.25 C 140.56 71.83 139.19 71.47 137.82 71.14 C 131.43 69.75 125.19 67.79 118.87 66.14 C 117.87 65.77 116.87 65.40 115.88 65.02 C 114.73 64.73 113.58 64.45 112.42 64.21 L 112.43 63.77 C 110.10 63.01 107.86 62.03 105.56 61.20 L 105.32 60.87 C 103.83 60.17 102.35 59.45 100.89 58.70 C 99.63 59.21 98.36 59.71 97.11 60.26 C 95.34 60.75 93.60 61.42 91.75 61.56 C 88.82 58.02 88.47 53.14 86.17 49.23 C 84.59 49.95 83.37 51.09 82.52 52.64 C 83.47 52.73 85.38 52.90 86.34 52.99 C 85.95 53.09 85.18 53.28 84.79 53.38 C 82.71 56.84 78.66 58.34 75.46 60.55 C 69.29 63.85 64.17 68.93 60.72 75.00 C 60.21 76.48 59.66 77.95 59.18 79.44 L 58.52 79.49 C 58.48 80.50 58.44 81.52 58.39 82.53 L 57.78 82.49 C 57.51 84.17 57.14 85.86 56.06 87.23 C 55.30 85.52 54.57 83.80 53.81 82.09 C 52.26 78.83 51.03 75.44 49.74 72.08 C 49.37 68.62 49.39 65.14 49.54 61.68 C 52.81 59.28 56.50 57.56 60.33 56.27 C 61.40 54.03 62.10 51.62 62.30 49.14 C 62.62 47.24 62.19 44.94 63.85 43.53 C 68.79 44.36 73.10 47.55 78.22 47.54 C 83.83 45.47 85.35 38.64 90.85 36.50 C 95.22 36.92 98.66 41.00 102.92 41.10 C 110.25 37.30 117.84 33.88 125.88 31.86 C 127.86 31.56 129.84 31.23 131.78 30.74 C 134.59 30.59 137.39 30.58 140.20 30.67 C 141.83 31.10 143.48 31.48 145.14 31.82 C 146.42 32.28 147.71 32.71 149.00 33.16 C 159.05 38.04 166.72 46.71 177.04 51.09 C 178.81 52.34 179.98 50.52 180.94 49.29 C 181.65 49.47 183.06 49.82 183.77 49.99 C 182.93 48.15 182.11 46.31 181.27 44.48 C 180.82 44.47 179.93 44.45 179.49 44.43 C 179.44 45.91 179.39 47.39 179.32 48.87 C 168.10 45.84 160.31 36.26 149.66 31.98 L 149.33 31.32 C 149.02 31.34 148.40 31.38 148.09 31.40 C 141.24 28.32 133.37 28.94 126.15 30.05 C 117.82 31.43 110.31 35.39 102.75 38.87 M 186.70 166.52 C 184.70 167.34 184.03 169.12 184.28 171.16 C 186.99 175.23 191.68 177.52 194.16 181.69 C 191.50 181.22 189.02 180.17 186.53 179.18 C 186.29 178.91 185.81 178.36 185.57 178.09 C 186.13 179.57 186.20 181.55 187.92 182.24 C 190.77 183.02 193.78 182.49 196.68 182.27 C 196.31 176.76 190.48 175.17 186.87 172.19 C 186.46 171.59 185.64 170.39 185.24 169.79 C 185.80 169.40 186.93 168.63 187.49 168.24 L 187.41 167.54 C 188.18 167.56 189.71 167.60 190.48 167.62 L 190.65 168.22 C 191.85 168.99 193.03 169.81 194.16 170.68 C 193.81 169.63 193.51 168.56 193.24 167.50 C 191.26 166.28 188.90 166.64 186.70 166.52 M 157.37 167.77 C 157.89 172.44 159.64 177.08 158.25 181.82 C 153.24 180.20 149.87 175.92 146.07 172.54 C 145.68 172.47 144.89 172.31 144.50 172.23 C 144.27 173.45 144.02 174.67 143.76 175.89 C 143.72 178.18 143.70 180.48 143.64 182.77 C 144.14 182.75 145.13 182.72 145.62 182.71 C 145.76 180.40 146.13 178.12 146.63 175.87 C 150.39 179.08 153.92 183.72 159.50 182.91 C 161.55 178.00 161.62 171.54 157.37 167.77 M 163.57 179.19 C 163.87 179.76 164.48 180.88 164.78 181.44 L 165.55 181.33 C 165.74 181.86 166.12 182.94 166.31 183.47 C 165.78 179.64 165.52 175.77 165.31 171.91 C 164.78 170.94 164.25 169.96 163.74 168.99 C 163.27 172.37 163.22 175.80 163.57 179.19 M 179.49 168.22 C 179.65 172.86 178.36 177.63 175.00 180.98 C 171.08 178.55 172.52 173.78 172.38 169.97 C 171.85 170.62 171.32 171.27 170.78 171.91 C 170.46 172.40 169.82 173.36 169.50 173.84 C 169.03 177.95 171.57 182.93 176.20 182.80 C 179.78 178.87 181.99 173.75 181.68 168.37 L 179.49 168.22 M 112.18 181.52 C 112.02 181.54 111.70 181.58 111.54 181.60 C 111.19 184.63 112.17 187.59 114.59 189.53 C 117.46 190.31 120.52 190.91 123.38 189.69 C 125.79 191.39 128.30 193.38 131.44 192.42 C 130.07 191.68 128.68 190.97 127.38 190.13 C 127.18 188.66 127.12 187.18 127.02 185.71 C 126.91 186.23 126.70 187.27 126.59 187.79 C 123.33 187.99 122.24 184.63 120.44 182.61 C 119.91 184.65 120.71 186.58 121.57 188.39 C 119.98 188.38 118.40 188.36 116.82 188.33 C 116.32 188.07 115.33 187.55 114.84 187.29 C 114.28 186.98 113.17 186.37 112.61 186.06 C 112.57 185.11 112.47 183.21 112.43 182.27 L 113.73 182.46 C 113.64 182.08 113.47 181.32 113.39 180.94 C 116.87 176.43 121.37 172.79 126.59 170.46 C 119.68 169.01 113.63 175.24 112.18 181.52 M 133.65 171.58 C 131.32 173.10 129.66 175.32 128.52 177.83 C 128.58 179.99 128.99 182.11 129.63 184.17 C 131.35 185.84 133.48 186.86 135.85 187.23 C 137.12 186.84 138.41 186.51 139.70 186.19 C 139.55 185.89 139.26 185.28 139.11 184.97 C 136.53 184.60 133.22 185.38 131.53 182.87 C 134.23 182.17 136.84 181.16 139.22 179.69 C 136.50 179.14 133.79 179.72 131.15 180.37 C 131.01 176.39 135.16 174.39 138.24 172.90 C 138.31 172.57 138.45 171.92 138.52 171.59 C 136.89 171.58 135.27 171.58 133.65 171.58 Z" />
<path fill="#feffff" opacity="1.00" d=" M 82.74 57.60 C 84.20 57.11 85.65 56.62 87.12 56.18 C 87.25 56.95 87.51 58.51 87.64 59.29 C 88.36 60.39 89.08 61.49 89.90 62.51 C 91.42 63.31 93.05 62.49 94.34 61.65 C 98.84 61.15 103.28 62.03 107.70 62.75 L 107.51 63.19 C 109.85 63.93 112.10 64.94 114.38 65.84 L 114.68 66.27 C 116.40 66.91 118.11 67.60 119.81 68.29 C 125.64 70.67 131.83 72.00 138.03 72.98 C 140.20 73.45 142.40 73.62 144.61 73.72 L 144.44 74.46 C 145.81 74.49 147.18 74.53 148.56 74.56 L 148.55 75.40 C 149.91 75.47 151.27 75.53 152.63 75.59 L 152.41 76.24 C 154.20 76.65 155.96 77.16 157.75 77.61 C 157.62 75.88 157.44 74.17 157.24 72.46 C 157.82 72.48 158.98 72.54 159.56 72.57 C 160.55 76.58 157.92 79.89 156.20 83.22 C 153.40 84.18 150.52 85.28 148.45 87.48 C 145.65 90.01 144.84 93.83 143.51 97.20 C 144.28 99.15 145.96 100.34 147.60 101.52 C 147.41 101.84 147.04 102.47 146.86 102.79 C 146.57 102.99 146.01 103.39 145.72 103.60 L 145.41 104.06 C 138.04 107.62 131.45 113.11 127.06 120.05 C 126.04 121.18 126.39 122.70 126.47 124.06 C 127.06 123.57 128.26 122.58 128.86 122.09 C 128.74 122.55 128.49 123.48 128.37 123.95 C 126.37 125.58 124.49 127.38 122.96 129.48 C 130.65 129.52 137.93 123.01 145.58 126.62 C 147.15 134.98 143.90 144.43 136.95 149.55 L 135.62 149.22 C 135.62 149.52 135.62 150.11 135.61 150.41 C 134.02 150.38 132.42 150.36 130.83 150.35 C 129.05 149.34 127.30 148.28 125.56 147.22 C 125.35 146.90 124.93 146.26 124.72 145.94 C 123.44 149.40 127.63 150.31 129.12 152.69 C 128.11 153.49 127.10 154.30 126.09 155.11 C 114.75 165.50 103.41 176.11 90.10 183.99 C 89.22 184.60 88.33 185.20 87.43 185.79 L 87.45 186.68 C 87.02 186.58 86.14 186.38 85.71 186.28 L 85.45 187.78 L 83.64 187.35 C 83.65 187.68 83.65 188.34 83.65 188.68 C 79.88 189.09 76.15 188.18 73.23 185.72 C 65.99 180.03 59.72 173.00 55.09 165.02 C 54.77 163.83 54.47 162.63 54.20 161.42 L 53.79 161.64 C 53.34 158.92 52.58 156.26 52.20 153.54 L 51.77 153.53 C 51.54 149.59 50.57 145.76 50.06 141.86 C 49.23 136.96 49.29 131.96 49.29 127.01 C 49.20 118.47 52.53 110.24 57.21 103.23 C 58.04 101.99 58.87 100.65 58.77 99.08 C 58.91 94.36 58.24 89.63 58.76 84.92 C 59.18 83.45 59.53 81.95 59.83 80.45 L 60.66 80.37 C 60.60 80.01 60.47 79.28 60.41 78.92 C 63.12 74.07 66.50 69.55 70.52 65.72 C 74.82 63.36 78.83 60.56 82.74 57.60 M 62.26 88.88 C 64.55 86.58 66.53 83.52 69.85 82.61 C 74.29 81.84 78.86 82.33 83.11 83.79 C 86.08 84.91 89.03 86.27 92.24 86.54 C 91.91 86.22 91.26 85.59 90.94 85.27 C 85.26 80.61 77.46 80.44 70.47 80.65 L 70.61 81.22 C 66.40 81.10 61.30 84.03 62.26 88.88 M 106.10 89.57 C 112.36 87.88 118.24 83.74 124.99 84.78 C 128.05 86.15 129.10 89.93 132.31 91.09 C 132.61 91.34 133.20 91.85 133.49 92.10 C 132.93 87.74 128.77 84.98 125.50 82.54 C 123.62 82.63 121.75 82.71 119.88 82.79 C 114.69 83.59 109.56 85.43 106.10 89.57 M 68.91 86.92 C 65.75 88.57 64.30 92.06 61.50 94.13 C 61.45 94.40 61.36 94.95 61.32 95.22 C 62.58 95.81 63.83 96.40 65.08 97.01 C 66.72 97.44 68.37 97.81 70.02 98.23 C 67.77 101.63 63.77 103.58 62.13 107.45 C 61.70 107.52 60.85 107.65 60.43 107.72 C 61.52 110.84 63.70 113.36 66.58 114.98 C 65.86 111.78 62.02 109.69 63.52 106.14 C 66.76 104.31 69.54 101.81 72.64 99.77 C 77.69 96.41 82.99 93.47 88.11 90.22 C 88.84 89.67 89.57 89.12 90.30 88.58 C 87.62 88.49 85.31 89.88 82.91 90.85 C 81.44 89.00 81.05 86.11 78.59 85.19 C 75.39 83.54 71.72 85.23 68.91 86.92 M 116.82 89.49 C 113.04 91.15 109.37 94.63 109.50 99.02 C 111.51 101.21 114.30 102.34 117.09 103.16 C 118.96 103.13 123.11 104.32 122.80 101.24 C 125.57 103.82 129.29 103.76 132.85 103.60 C 131.34 95.98 124.77 89.62 116.82 89.49 M 107.25 98.80 C 107.40 103.94 108.96 109.64 113.69 112.42 C 114.34 112.30 115.64 112.07 116.30 111.95 C 115.92 111.88 115.16 111.75 114.79 111.68 C 113.43 109.87 112.00 108.13 110.64 106.33 C 111.31 103.42 110.48 99.78 107.25 98.80 M 90.63 109.34 C 90.57 109.83 90.45 110.82 90.39 111.31 C 91.81 111.30 93.24 111.32 94.66 111.34 C 94.20 113.60 93.55 115.83 93.42 118.14 C 94.43 117.27 95.49 116.44 96.34 115.41 C 97.14 113.35 95.88 111.45 95.04 109.66 C 93.57 109.51 92.10 109.38 90.63 109.34 M 77.10 118.33 C 79.11 118.64 81.08 119.11 83.09 119.38 C 84.43 118.20 85.45 116.72 86.49 115.29 C 86.44 114.24 86.35 112.14 86.31 111.09 C 81.96 111.28 78.85 114.64 77.10 118.33 M 56.82 115.82 C 56.37 117.29 55.92 118.76 55.49 120.24 C 56.43 121.69 57.40 123.11 58.43 124.49 C 59.02 124.51 60.19 124.55 60.78 124.58 C 60.68 123.94 60.47 122.65 60.37 122.01 C 61.22 122.40 62.92 123.17 63.77 123.56 C 65.06 123.19 66.34 122.77 67.61 122.36 C 67.56 121.15 67.50 119.94 67.42 118.73 C 64.23 118.05 59.28 116.95 58.83 121.70 C 58.47 120.53 58.29 119.32 58.20 118.10 C 59.72 116.99 61.32 115.87 62.28 114.20 C 60.35 114.31 58.53 114.96 56.82 115.82 M 60.57 127.81 C 58.28 132.13 59.82 136.96 61.74 141.09 C 62.13 142.21 62.49 143.34 62.84 144.48 L 63.34 144.48 C 63.55 147.00 63.76 149.53 63.88 152.07 C 64.26 155.54 65.48 158.82 67.86 161.43 C 73.27 161.90 78.56 163.13 83.85 164.29 C 88.92 165.37 93.77 162.44 96.31 158.17 C 99.74 149.87 98.95 140.62 98.22 131.88 C 93.77 126.77 86.13 127.28 79.95 127.32 C 74.08 127.14 68.37 128.51 62.79 130.18 C 62.66 128.75 62.51 127.33 62.34 125.91 C 61.90 126.38 61.01 127.33 60.57 127.81 M 137.87 128.66 C 133.25 130.36 131.48 135.02 129.56 139.11 C 130.25 140.02 130.93 140.93 131.62 141.85 C 131.12 142.70 130.63 143.55 130.15 144.41 C 131.95 144.97 133.78 145.40 135.65 145.72 L 135.91 143.43 C 135.57 143.47 134.89 143.57 134.55 143.62 C 135.06 141.65 134.68 139.68 133.84 137.87 C 133.81 137.30 133.76 136.16 133.74 135.59 C 134.70 135.59 136.63 135.57 137.60 135.57 C 131.65 132.85 140.63 127.31 142.07 132.56 C 142.50 132.59 143.37 132.65 143.80 132.68 C 143.67 132.26 143.40 131.41 143.27 130.99 C 142.53 130.18 141.80 129.37 141.07 128.56 C 140.00 128.59 138.94 128.62 137.87 128.66 M 51.10 133.82 C 51.38 134.01 51.94 134.39 52.22 134.58 C 55.94 145.28 56.96 156.88 62.35 166.98 C 62.33 165.35 62.26 163.71 61.83 162.14 C 59.91 152.42 57.23 142.88 54.06 133.50 C 53.07 133.60 52.08 133.70 51.10 133.82 M 109.30 140.64 L 108.70 140.45 C 107.87 143.61 106.89 146.73 105.87 149.83 C 104.72 154.32 102.98 158.71 102.68 163.39 C 102.94 162.78 103.46 161.56 103.72 160.95 C 107.59 155.72 108.61 149.05 110.08 142.87 C 110.34 140.75 110.32 138.60 110.07 136.49 C 109.77 137.86 109.53 139.25 109.30 140.64 M 70.12 176.08 C 72.75 180.10 77.44 181.93 82.16 181.36 C 85.49 180.63 88.44 178.95 90.89 176.60 C 85.15 178.80 78.57 180.89 72.87 177.39 C 71.95 176.94 71.04 176.50 70.12 176.08 Z" />
<path fill="#feffff" opacity="1.00" d=" M 172.55 59.46 C 174.19 58.93 174.76 59.48 174.27 61.12 C 172.68 61.67 172.10 61.12 172.55 59.46 Z" />
<path fill="#feffff" opacity="1.00" d=" M 170.97 64.83 C 172.59 64.45 173.11 65.06 172.54 66.67 C 170.86 67.01 170.34 66.39 170.97 64.83 Z" />
<path fill="#feffff" opacity="1.00" d=" M 71.29 87.31 C 74.14 88.96 76.95 91.13 80.50 90.42 C 77.95 96.18 70.21 97.15 65.16 94.44 C 67.08 91.96 69.23 89.67 71.29 87.31 Z" />
<path fill="#feffff" opacity="1.00" d=" M 111.27 97.20 C 113.19 94.10 115.80 90.79 119.91 91.16 C 120.17 94.64 117.54 99.68 121.77 101.71 C 119.87 101.52 117.96 101.33 116.06 101.15 C 114.24 100.12 112.46 98.96 111.27 97.20 Z" />
<path fill="#feffff" opacity="1.00" d=" M 123.21 95.57 C 123.73 95.60 124.78 95.66 125.30 95.69 C 125.44 96.61 125.57 97.52 125.71 98.43 C 125.14 98.42 124.00 98.39 123.42 98.37 C 123.35 97.44 123.28 96.50 123.21 95.57 Z" />
<path fill="#feffff" opacity="1.00" d=" M 76.58 134.56 C 75.65 132.65 75.08 130.60 75.16 128.47 C 76.89 128.46 78.63 128.47 80.37 128.49 C 81.65 129.69 82.87 130.95 84.06 132.24 C 81.59 133.08 79.07 133.77 76.58 134.56 Z" />
<path fill="#feffff" opacity="1.00" d=" M 86.35 129.52 C 87.47 129.92 88.60 130.32 89.73 130.72 C 89.59 131.17 89.32 132.06 89.18 132.50 C 88.35 132.54 87.53 132.58 86.70 132.62 C 86.58 131.58 86.46 130.55 86.35 129.52 Z" />
<path fill="#feffff" opacity="1.00" d=" M 66.41 131.53 C 68.36 130.97 70.32 130.44 72.30 130.03 C 72.77 131.82 73.29 133.61 73.72 135.41 C 71.17 135.41 68.62 135.41 66.08 135.08 L 67.94 134.03 C 66.66 133.83 65.38 133.62 64.10 133.41 C 64.54 135.24 65.02 137.10 65.67 138.88 C 67.07 138.51 68.46 138.13 69.86 137.75 C 72.26 137.55 74.67 137.36 77.07 137.09 C 80.43 136.42 83.93 136.49 87.19 135.29 C 90.00 134.47 92.11 131.77 95.24 132.06 C 97.30 136.77 96.91 142.22 95.37 147.03 C 91.55 145.54 88.86 140.03 84.26 141.87 C 79.91 142.82 75.45 143.20 71.05 143.86 C 69.56 144.73 68.09 145.64 66.70 146.67 C 66.21 146.66 65.21 146.63 64.72 146.62 C 64.64 145.82 64.48 144.20 64.40 143.40 L 63.60 143.58 C 63.60 142.50 63.61 140.35 63.61 139.27 L 65.37 139.61 C 63.63 137.96 62.40 135.91 61.42 133.75 C 63.23 133.05 65.09 132.44 66.99 132.02 L 66.41 131.53 Z" />
<path fill="#feffff" opacity="1.00" d=" M 71.56 150.68 C 76.91 150.52 80.48 145.65 85.04 143.38 C 89.33 143.46 91.67 148.01 95.76 148.96 C 94.99 151.90 94.09 154.81 93.11 157.69 C 90.85 157.22 87.38 156.57 87.20 153.69 C 88.52 153.02 89.92 152.55 91.32 152.10 C 91.37 151.73 91.47 151.01 91.52 150.65 C 91.09 150.65 90.23 150.65 89.80 150.65 C 83.47 152.81 79.24 159.65 72.04 159.43 C 66.47 160.38 64.52 152.74 67.16 148.99 C 69.76 145.66 74.25 144.56 78.29 144.63 C 76.61 147.23 73.32 148.10 71.56 150.68 Z" />
<path fill="#feffff" opacity="1.00" d=" M 80.72 158.72 C 82.44 157.45 84.32 156.39 86.39 155.81 C 86.51 156.44 86.74 157.68 86.86 158.30 C 84.83 158.60 82.78 158.79 80.72 158.72 Z" />
<path fill="#feffff" opacity="1.00" d=" M 85.16 161.38 C 86.90 160.55 88.72 159.91 90.57 159.36 C 90.53 159.92 90.44 161.05 90.40 161.61 C 88.64 161.68 86.89 161.67 85.16 161.38 Z" />
</g>
<g id="#0e0e0eff">
<path fill="#0e0e0e" opacity="1.00" d=" M 102.75 38.87 C 110.31 35.39 117.82 31.43 126.15 30.05 C 133.37 28.94 141.24 28.32 148.09 31.40 C 148.40 31.38 149.02 31.34 149.33 31.32 L 149.66 31.98 C 160.31 36.26 168.10 45.84 179.32 48.87 C 179.39 47.39 179.44 45.91 179.49 44.43 C 179.93 44.45 180.82 44.47 181.27 44.48 C 182.11 46.31 182.93 48.15 183.77 49.99 C 183.06 49.82 181.65 49.47 180.94 49.29 C 179.98 50.52 178.81 52.34 177.04 51.09 C 166.72 46.71 159.05 38.04 149.00 33.16 C 147.71 32.71 146.42 32.28 145.14 31.82 C 143.48 31.48 141.83 31.10 140.20 30.67 C 137.39 30.58 134.59 30.59 131.78 30.74 C 129.84 31.23 127.86 31.56 125.88 31.86 C 117.84 33.88 110.25 37.30 102.92 41.10 C 98.66 41.00 95.22 36.92 90.85 36.50 C 85.35 38.64 83.83 45.47 78.22 47.54 C 73.10 47.55 68.79 44.36 63.85 43.53 C 62.19 44.94 62.62 47.24 62.30 49.14 C 62.10 51.62 61.40 54.03 60.33 56.27 C 56.50 57.56 52.81 59.28 49.54 61.68 C 49.39 65.14 49.37 68.62 49.74 72.08 C 51.03 75.44 52.26 78.83 53.81 82.09 C 54.57 83.80 55.30 85.52 56.06 87.23 C 57.14 85.86 57.51 84.17 57.78 82.49 L 58.39 82.53 C 58.44 81.52 58.48 80.50 58.52 79.49 L 59.18 79.44 C 59.66 77.95 60.21 76.48 60.72 75.00 C 64.17 68.93 69.29 63.85 75.46 60.55 C 78.66 58.34 82.71 56.84 84.79 53.38 C 85.18 53.28 85.95 53.09 86.34 52.99 C 85.38 52.90 83.47 52.73 82.52 52.64 C 83.37 51.09 84.59 49.95 86.17 49.23 C 88.47 53.14 88.82 58.02 91.75 61.56 C 93.60 61.42 95.34 60.75 97.11 60.26 C 98.36 59.71 99.63 59.21 100.89 58.70 C 102.35 59.45 103.83 60.17 105.32 60.87 L 105.56 61.20 C 107.86 62.03 110.10 63.01 112.43 63.77 L 112.42 64.21 C 113.58 64.45 114.73 64.73 115.88 65.02 C 116.87 65.40 117.87 65.77 118.87 66.14 C 125.19 67.79 131.43 69.75 137.82 71.14 C 139.19 71.47 140.56 71.83 141.91 72.25 C 143.11 72.39 144.32 72.53 145.53 72.66 L 145.43 73.35 C 146.81 73.41 148.19 73.47 149.57 73.54 L 149.41 74.17 C 151.65 74.53 153.84 75.12 156.05 75.62 C 155.36 73.82 154.60 72.05 154.00 70.21 C 156.76 70.22 159.34 71.36 162.07 71.49 C 163.56 70.40 163.41 68.63 163.39 66.99 C 163.12 66.05 162.59 64.17 162.32 63.23 C 165.16 63.15 167.91 63.88 170.62 64.64 C 170.67 61.91 170.47 59.18 170.35 56.45 C 171.17 56.59 172.81 56.85 173.63 56.99 C 173.62 56.16 173.61 54.51 173.61 53.69 C 174.04 53.72 174.92 53.79 175.35 53.82 C 175.40 55.82 175.40 57.81 175.40 59.81 C 176.65 59.20 177.91 58.60 179.16 57.99 C 180.27 57.72 181.39 57.47 182.51 57.22 L 182.53 56.89 C 184.94 56.26 186.49 54.23 186.83 51.82 C 184.43 53.04 182.83 55.28 180.85 57.03 C 181.24 55.64 181.70 54.26 182.22 52.91 C 182.31 52.17 182.50 50.68 182.59 49.94 C 183.00 50.06 183.83 50.30 184.24 50.42 C 184.80 49.15 185.37 47.88 185.94 46.62 C 188.73 49.03 188.45 52.82 188.39 56.13 C 190.32 56.34 192.25 56.57 194.19 56.79 C 194.25 57.14 194.38 57.84 194.44 58.18 C 191.63 59.07 188.85 60.04 186.03 60.90 C 189.04 64.35 191.09 68.47 192.27 72.88 C 193.98 86.02 190.32 99.18 184.69 110.96 C 182.44 116.13 179.35 121.21 179.21 127.00 C 179.02 130.11 179.47 133.21 179.84 136.29 C 178.84 136.79 177.85 137.29 176.85 137.79 C 176.19 138.01 174.88 138.46 174.22 138.68 L 174.18 140.35 C 178.11 141.17 182.04 142.29 185.45 144.47 C 192.73 148.83 197.66 155.91 202.88 162.39 C 203.28 162.63 204.07 163.12 204.47 163.36 C 199.83 164.34 198.44 157.90 194.01 158.37 C 194.55 160.26 195.32 162.07 196.07 163.88 C 195.53 163.75 194.45 163.48 193.90 163.35 C 193.57 162.78 192.90 161.65 192.56 161.08 C 192.63 160.09 192.71 159.11 192.82 158.12 C 195.54 154.39 191.52 151.05 188.75 148.94 C 183.31 145.50 177.06 143.60 170.84 142.12 C 167.07 140.76 162.05 141.35 159.29 138.13 L 158.51 137.11 C 159.87 137.37 162.61 137.89 163.98 138.15 C 167.18 138.77 170.45 138.82 173.69 138.60 C 175.07 137.46 176.41 136.29 177.72 135.08 C 176.27 131.12 175.71 126.71 176.99 122.62 C 178.21 119.04 179.75 115.57 181.24 112.10 C 181.89 110.43 182.57 108.76 183.26 107.11 C 187.17 97.91 190.92 88.21 190.58 78.05 C 190.57 71.83 187.94 65.58 183.20 61.48 C 184.54 60.48 187.22 58.49 188.55 57.49 C 183.49 57.75 179.09 60.10 174.50 61.89 L 174.51 62.54 L 173.43 62.38 C 173.50 63.18 173.64 64.78 173.71 65.58 L 174.53 65.28 C 174.56 66.88 174.58 68.48 174.57 70.08 C 173.10 69.57 171.91 68.59 171.00 67.34 C 169.63 67.35 168.25 67.41 166.88 67.50 C 167.04 67.15 167.35 66.43 167.50 66.08 C 167.09 65.59 166.26 64.61 165.84 64.12 C 165.44 65.00 164.62 66.77 164.22 67.65 C 164.83 67.61 166.06 67.51 166.68 67.46 C 166.41 70.60 166.46 73.75 166.41 76.90 C 164.86 75.94 163.32 74.96 161.77 74.02 C 161.64 75.43 161.51 76.83 161.40 78.24 C 160.32 79.81 159.22 81.37 158.03 82.85 C 153.84 85.71 149.44 88.50 146.57 92.80 C 146.48 94.38 146.18 95.98 146.43 97.56 C 147.57 98.82 148.91 99.88 150.18 101.00 C 150.20 101.27 150.25 101.81 150.27 102.09 C 142.26 107.25 134.54 113.11 128.69 120.73 C 130.47 120.60 132.21 120.29 133.92 119.78 C 135.70 119.55 137.50 119.51 139.29 119.64 C 136.24 121.99 131.87 122.38 129.54 125.61 C 132.44 125.20 135.29 124.54 138.19 124.13 C 139.72 123.92 141.26 123.85 142.80 124.03 C 144.37 124.49 145.93 124.99 147.46 125.57 C 149.22 130.19 147.34 134.95 147.21 139.66 C 148.69 138.63 150.20 137.62 151.71 136.64 C 152.77 136.58 154.87 136.47 155.92 136.41 L 155.42 137.34 C 156.00 137.62 157.15 138.18 157.73 138.46 C 153.08 137.11 149.96 141.48 145.69 142.14 C 145.60 142.70 145.44 143.82 145.36 144.38 C 142.98 149.08 137.62 150.39 133.12 152.19 C 130.13 153.68 127.39 155.61 124.88 157.81 C 124.49 158.03 123.72 158.48 123.34 158.70 L 123.58 159.54 L 122.39 159.37 L 122.57 160.52 L 121.48 160.42 L 121.46 161.20 C 116.71 166.24 111.72 171.06 106.98 176.10 C 106.53 176.38 105.63 176.94 105.18 177.23 C 102.74 178.16 100.35 179.20 97.92 180.16 C 91.64 182.62 87.50 189.43 80.34 189.70 C 80.37 189.91 80.44 190.34 80.47 190.55 C 77.01 189.76 73.40 188.89 70.64 186.50 C 64.95 181.50 59.92 175.75 55.79 169.40 C 53.84 166.40 52.72 162.92 52.19 159.40 L 51.59 159.51 C 51.53 158.14 51.48 156.78 51.44 155.41 L 50.80 155.52 C 49.99 150.36 48.79 145.27 47.79 140.15 C 47.54 138.04 47.35 135.92 47.16 133.81 C 46.64 130.95 46.62 128.03 47.13 125.18 C 47.28 120.52 48.28 115.97 49.61 111.52 C 42.51 112.51 35.59 115.30 30.45 120.40 C 24.94 125.43 20.82 131.72 16.86 137.98 C 13.24 143.91 10.63 151.03 4.50 154.90 L 3.57 156.15 C 3.64 154.44 4.84 153.11 5.76 151.77 C 13.31 141.55 18.14 129.32 27.48 120.45 C 31.04 116.83 35.45 114.18 40.04 112.06 C 41.08 111.74 42.13 111.42 43.18 111.11 C 47.54 110.57 53.23 108.79 53.08 103.41 C 55.90 101.85 57.25 98.91 56.81 95.73 C 53.27 97.31 52.37 101.71 49.96 104.46 L 52.95 103.45 C 52.25 106.18 49.35 106.42 47.06 106.98 C 48.37 101.50 52.56 97.33 55.72 92.84 C 55.44 91.91 55.15 90.99 54.84 90.07 C 51.92 83.62 49.27 77.02 47.71 70.10 C 47.20 65.87 47.92 61.24 51.08 58.15 C 53.66 55.60 57.74 55.77 60.29 53.22 C 60.42 49.17 60.28 44.89 62.59 41.35 C 67.90 40.45 71.83 44.90 76.83 45.34 C 83.29 44.31 84.31 35.39 90.83 34.48 C 95.45 33.82 98.52 38.28 102.75 38.87 M 82.74 57.60 C 78.83 60.56 74.82 63.36 70.52 65.72 C 66.50 69.55 63.12 74.07 60.41 78.92 C 60.47 79.28 60.60 80.01 60.66 80.37 L 59.83 80.45 C 59.53 81.95 59.18 83.45 58.76 84.92 C 58.24 89.63 58.91 94.36 58.77 99.08 C 58.87 100.65 58.04 101.99 57.21 103.23 C 52.53 110.24 49.20 118.47 49.29 127.01 C 49.29 131.96 49.23 136.96 50.06 141.86 C 50.57 145.76 51.54 149.59 51.77 153.53 L 52.20 153.54 C 52.58 156.26 53.34 158.92 53.79 161.64 L 54.20 161.42 C 54.47 162.63 54.77 163.83 55.09 165.02 C 59.72 173.00 65.99 180.03 73.23 185.72 C 76.15 188.18 79.88 189.09 83.65 188.68 C 83.65 188.34 83.65 187.68 83.64 187.35 L 85.45 187.78 L 85.71 186.28 C 86.14 186.38 87.02 186.58 87.45 186.68 L 87.43 185.79 C 88.33 185.20 89.22 184.60 90.10 183.99 C 103.41 176.11 114.75 165.50 126.09 155.11 C 127.10 154.30 128.11 153.49 129.12 152.69 C 127.63 150.31 123.44 149.40 124.72 145.94 C 124.93 146.26 125.35 146.90 125.56 147.22 C 127.30 148.28 129.05 149.34 130.83 150.35 C 132.42 150.36 134.02 150.38 135.61 150.41 C 135.62 150.11 135.62 149.52 135.62 149.22 L 136.95 149.55 C 143.90 144.43 147.15 134.98 145.58 126.62 C 137.93 123.01 130.65 129.52 122.96 129.48 C 124.49 127.38 126.37 125.58 128.37 123.95 C 128.49 123.48 128.74 122.55 128.86 122.09 C 128.26 122.58 127.06 123.57 126.47 124.06 C 126.39 122.70 126.04 121.18 127.06 120.05 C 131.45 113.11 138.04 107.62 145.41 104.06 L 145.72 103.60 C 146.01 103.39 146.57 102.99 146.86 102.79 C 147.04 102.47 147.41 101.84 147.60 101.52 C 145.96 100.34 144.28 99.15 143.51 97.20 C 144.84 93.83 145.65 90.01 148.45 87.48 C 150.52 85.28 153.40 84.18 156.20 83.22 C 157.92 79.89 160.55 76.58 159.56 72.57 C 158.98 72.54 157.82 72.48 157.24 72.46 C 157.44 74.17 157.62 75.88 157.75 77.61 C 155.96 77.16 154.20 76.65 152.41 76.24 L 152.63 75.59 C 151.27 75.53 149.91 75.47 148.55 75.40 L 148.56 74.56 C 147.18 74.53 145.81 74.49 144.44 74.46 L 144.61 73.72 C 142.40 73.62 140.20 73.45 138.03 72.98 C 131.83 72.00 125.64 70.67 119.81 68.29 C 118.11 67.60 116.40 66.91 114.68 66.27 L 114.38 65.84 C 112.10 64.94 109.85 63.93 107.51 63.19 L 107.70 62.75 C 103.28 62.03 98.84 61.15 94.34 61.65 C 93.05 62.49 91.42 63.31 89.90 62.51 C 89.08 61.49 88.36 60.39 87.64 59.29 C 87.51 58.51 87.25 56.95 87.12 56.18 C 85.65 56.62 84.20 57.11 82.74 57.60 M 172.55 59.46 C 172.10 61.12 172.68 61.67 174.27 61.12 C 174.76 59.48 174.19 58.93 172.55 59.46 M 170.97 64.83 C 170.34 66.39 170.86 67.01 172.54 66.67 C 173.11 65.06 172.59 64.45 170.97 64.83 Z" />
<path fill="#0e0e0e" opacity="1.00" d=" M 62.26 88.88 C 61.30 84.03 66.40 81.10 70.61 81.22 L 70.47 80.65 C 77.46 80.44 85.26 80.61 90.94 85.27 C 91.26 85.59 91.91 86.22 92.24 86.54 C 89.03 86.27 86.08 84.91 83.11 83.79 C 78.86 82.33 74.29 81.84 69.85 82.61 C 66.53 83.52 64.55 86.58 62.26 88.88 Z" />
<path fill="#0e0e0e" opacity="1.00" d=" M 106.10 89.57 C 109.56 85.43 114.69 83.59 119.88 82.79 C 121.75 82.71 123.62 82.63 125.50 82.54 C 128.77 84.98 132.93 87.74 133.49 92.10 C 133.20 91.85 132.61 91.34 132.31 91.09 C 129.10 89.93 128.05 86.15 124.99 84.78 C 118.24 83.74 112.36 87.88 106.10 89.57 Z" />
<path fill="#0e0e0e" opacity="1.00" d=" M 68.91 86.92 C 71.72 85.23 75.39 83.54 78.59 85.19 C 81.05 86.11 81.44 89.00 82.91 90.85 C 85.31 89.88 87.62 88.49 90.30 88.58 C 89.57 89.12 88.84 89.67 88.11 90.22 C 82.99 93.47 77.69 96.41 72.64 99.77 C 69.54 101.81 66.76 104.31 63.52 106.14 C 62.02 109.69 65.86 111.78 66.58 114.98 C 63.70 113.36 61.52 110.84 60.43 107.72 C 60.85 107.65 61.70 107.52 62.13 107.45 C 63.77 103.58 67.77 101.63 70.02 98.23 C 68.37 97.81 66.72 97.44 65.08 97.01 C 63.83 96.40 62.58 95.81 61.32 95.22 C 61.36 94.95 61.45 94.40 61.50 94.13 C 64.30 92.06 65.75 88.57 68.91 86.92 M 71.29 87.31 C 69.23 89.67 67.08 91.96 65.16 94.44 C 70.21 97.15 77.95 96.18 80.50 90.42 C 76.95 91.13 74.14 88.96 71.29 87.31 Z" />
<path fill="#0e0e0e" opacity="1.00" d=" M 116.82 89.49 C 124.77 89.62 131.34 95.98 132.85 103.60 C 129.29 103.76 125.57 103.82 122.80 101.24 C 123.11 104.32 118.96 103.13 117.09 103.16 C 114.30 102.34 111.51 101.21 109.50 99.02 C 109.37 94.63 113.04 91.15 116.82 89.49 M 111.27 97.20 C 112.46 98.96 114.24 100.12 116.06 101.15 C 117.96 101.33 119.87 101.52 121.77 101.71 C 117.54 99.68 120.17 94.64 119.91 91.16 C 115.80 90.79 113.19 94.10 111.27 97.20 M 123.21 95.57 C 123.28 96.50 123.35 97.44 123.42 98.37 C 124.00 98.39 125.14 98.42 125.71 98.43 C 125.57 97.52 125.44 96.61 125.30 95.69 C 124.78 95.66 123.73 95.60 123.21 95.57 Z" />
<path fill="#0e0e0e" opacity="1.00" d=" M 107.25 98.80 C 110.48 99.78 111.31 103.42 110.64 106.33 C 112.00 108.13 113.43 109.87 114.79 111.68 C 115.16 111.75 115.92 111.88 116.30 111.95 C 115.64 112.07 114.34 112.30 113.69 112.42 C 108.96 109.64 107.40 103.94 107.25 98.80 Z" />
<path fill="#0e0e0e" opacity="1.00" d=" M 90.63 109.34 C 92.10 109.38 93.57 109.51 95.04 109.66 C 95.88 111.45 97.14 113.35 96.34 115.41 C 95.49 116.44 94.43 117.27 93.42 118.14 C 93.55 115.83 94.20 113.60 94.66 111.34 C 93.24 111.32 91.81 111.30 90.39 111.31 C 90.45 110.82 90.57 109.83 90.63 109.34 Z" />
<path fill="#0e0e0e" opacity="1.00" d=" M 77.10 118.33 C 78.85 114.64 81.96 111.28 86.31 111.09 C 86.35 112.14 86.44 114.24 86.49 115.29 C 85.45 116.72 84.43 118.20 83.09 119.38 C 81.08 119.11 79.11 118.64 77.10 118.33 Z" />
<path fill="#0e0e0e" opacity="1.00" d=" M 56.82 115.82 C 58.53 114.96 60.35 114.31 62.28 114.20 C 61.32 115.87 59.72 116.99 58.20 118.10 C 58.29 119.32 58.47 120.53 58.83 121.70 C 59.28 116.95 64.23 118.05 67.42 118.73 C 67.50 119.94 67.56 121.15 67.61 122.36 C 66.34 122.77 65.06 123.19 63.77 123.56 C 62.92 123.17 61.22 122.40 60.37 122.01 C 60.47 122.65 60.68 123.94 60.78 124.58 C 60.19 124.55 59.02 124.51 58.43 124.49 C 57.40 123.11 56.43 121.69 55.49 120.24 C 55.92 118.76 56.37 117.29 56.82 115.82 Z" />
<path fill="#0e0e0e" opacity="1.00" d=" M 60.57 127.81 C 61.01 127.33 61.90 126.38 62.34 125.91 C 62.51 127.33 62.66 128.75 62.79 130.18 C 68.37 128.51 74.08 127.14 79.95 127.32 C 86.13 127.28 93.77 126.77 98.22 131.88 C 98.95 140.62 99.74 149.87 96.31 158.17 C 93.77 162.44 88.92 165.37 83.85 164.29 C 78.56 163.13 73.27 161.90 67.86 161.43 C 65.48 158.82 64.26 155.54 63.88 152.07 C 63.76 149.53 63.55 147.00 63.34 144.48 L 62.84 144.48 C 62.49 143.34 62.13 142.21 61.74 141.09 C 59.82 136.96 58.28 132.13 60.57 127.81 M 76.58 134.56 C 79.07 133.77 81.59 133.08 84.06 132.24 C 82.87 130.95 81.65 129.69 80.37 128.49 C 78.63 128.47 76.89 128.46 75.16 128.47 C 75.08 130.60 75.65 132.65 76.58 134.56 M 86.35 129.52 C 86.46 130.55 86.58 131.58 86.70 132.62 C 87.53 132.58 88.35 132.54 89.18 132.50 C 89.32 132.06 89.59 131.17 89.73 130.72 C 88.60 130.32 87.47 129.92 86.35 129.52 M 66.41 131.53 L 66.99 132.02 C 65.09 132.44 63.23 133.05 61.42 133.75 C 62.40 135.91 63.63 137.96 65.37 139.61 L 63.61 139.27 C 63.61 140.35 63.60 142.50 63.60 143.58 L 64.40 143.40 C 64.48 144.20 64.64 145.82 64.72 146.62 C 65.21 146.63 66.21 146.66 66.70 146.67 C 68.09 145.64 69.56 144.73 71.05 143.86 C 75.45 143.20 79.91 142.82 84.26 141.87 C 88.86 140.03 91.55 145.54 95.37 147.03 C 96.91 142.22 97.30 136.77 95.24 132.06 C 92.11 131.77 90.00 134.47 87.19 135.29 C 83.93 136.49 80.43 136.42 77.07 137.09 C 74.67 137.36 72.26 137.55 69.86 137.75 C 68.46 138.13 67.07 138.51 65.67 138.88 C 65.02 137.10 64.54 135.24 64.10 133.41 C 65.38 133.62 66.66 133.83 67.94 134.03 L 66.08 135.08 C 68.62 135.41 71.17 135.41 73.72 135.41 C 73.29 133.61 72.77 131.82 72.30 130.03 C 70.32 130.44 68.36 130.97 66.41 131.53 M 71.56 150.68 C 73.32 148.10 76.61 147.23 78.29 144.63 C 74.25 144.56 69.76 145.66 67.16 148.99 C 64.52 152.74 66.47 160.38 72.04 159.43 C 79.24 159.65 83.47 152.81 89.80 150.65 C 90.23 150.65 91.09 150.65 91.52 150.65 C 91.47 151.01 91.37 151.73 91.32 152.10 C 89.92 152.55 88.52 153.02 87.20 153.69 C 87.38 156.57 90.85 157.22 93.11 157.69 C 94.09 154.81 94.99 151.90 95.76 148.96 C 91.67 148.01 89.33 143.46 85.04 143.38 C 80.48 145.65 76.91 150.52 71.56 150.68 M 80.72 158.72 C 82.78 158.79 84.83 158.60 86.86 158.30 C 86.74 157.68 86.51 156.44 86.39 155.81 C 84.32 156.39 82.44 157.45 80.72 158.72 M 85.16 161.38 C 86.89 161.67 88.64 161.68 90.40 161.61 C 90.44 161.05 90.53 159.92 90.57 159.36 C 88.72 159.91 86.90 160.55 85.16 161.38 Z" />
<path fill="#0e0e0e" opacity="1.00" d=" M 137.87 128.66 C 138.94 128.62 140.00 128.59 141.07 128.56 C 141.80 129.37 142.53 130.18 143.27 130.99 C 143.40 131.41 143.67 132.26 143.80 132.68 C 143.37 132.65 142.50 132.59 142.07 132.56 C 140.63 127.31 131.65 132.85 137.60 135.57 C 136.63 135.57 134.70 135.59 133.74 135.59 C 133.76 136.16 133.81 137.30 133.84 137.87 C 134.68 139.68 135.06 141.65 134.55 143.62 C 134.89 143.57 135.57 143.47 135.91 143.43 L 135.65 145.72 C 133.78 145.40 131.95 144.97 130.15 144.41 C 130.63 143.55 131.12 142.70 131.62 141.85 C 130.93 140.93 130.25 140.02 129.56 139.11 C 131.48 135.02 133.25 130.36 137.87 128.66 Z" />
<path fill="#0e0e0e" opacity="1.00" d=" M 51.10 133.82 C 52.08 133.70 53.07 133.60 54.06 133.50 C 57.23 142.88 59.91 152.42 61.83 162.14 C 62.26 163.71 62.33 165.35 62.35 166.98 C 56.96 156.88 55.94 145.28 52.22 134.58 C 51.94 134.39 51.38 134.01 51.10 133.82 Z" />
<path fill="#0e0e0e" opacity="1.00" d=" M 109.30 140.64 C 109.53 139.25 109.77 137.86 110.07 136.49 C 110.32 138.60 110.34 140.75 110.08 142.87 C 108.61 149.05 107.59 155.72 103.72 160.95 C 103.46 161.56 102.94 162.78 102.68 163.39 C 102.98 158.71 104.72 154.32 105.87 149.83 C 106.89 146.73 107.87 143.61 108.70 140.45 L 109.30 140.64 Z" />
<path fill="#0e0e0e" opacity="1.00" d=" M 186.70 166.52 C 188.90 166.64 191.26 166.28 193.24 167.50 C 193.51 168.56 193.81 169.63 194.16 170.68 C 193.03 169.81 191.85 168.99 190.65 168.22 L 190.48 167.62 C 189.71 167.60 188.18 167.56 187.41 167.54 L 187.49 168.24 C 186.93 168.63 185.80 169.40 185.24 169.79 C 185.64 170.39 186.46 171.59 186.87 172.19 C 190.48 175.17 196.31 176.76 196.68 182.27 C 193.78 182.49 190.77 183.02 187.92 182.24 C 186.20 181.55 186.13 179.57 185.57 178.09 C 185.81 178.36 186.29 178.91 186.53 179.18 C 189.02 180.17 191.50 181.22 194.16 181.69 C 191.68 177.52 186.99 175.23 184.28 171.16 C 184.03 169.12 184.70 167.34 186.70 166.52 Z" />
<path fill="#0e0e0e" opacity="1.00" d=" M 157.37 167.77 C 161.62 171.54 161.55 178.00 159.50 182.91 C 153.92 183.72 150.39 179.08 146.63 175.87 C 146.13 178.12 145.76 180.40 145.62 182.71 C 145.13 182.72 144.14 182.75 143.64 182.77 C 143.70 180.48 143.72 178.18 143.76 175.89 C 144.02 174.67 144.27 173.45 144.50 172.23 C 144.89 172.31 145.68 172.47 146.07 172.54 C 149.87 175.92 153.24 180.20 158.25 181.82 C 159.64 177.08 157.89 172.44 157.37 167.77 Z" />
<path fill="#0e0e0e" opacity="1.00" d=" M 163.57 179.19 C 163.22 175.80 163.27 172.37 163.74 168.99 C 164.25 169.96 164.78 170.94 165.31 171.91 C 165.52 175.77 165.78 179.64 166.31 183.47 C 166.12 182.94 165.74 181.86 165.55 181.33 L 164.78 181.44 C 164.48 180.88 163.87 179.76 163.57 179.19 Z" />
<path fill="#0e0e0e" opacity="1.00" d=" M 179.49 168.22 L 181.68 168.37 C 181.99 173.75 179.78 178.87 176.20 182.80 C 171.57 182.93 169.03 177.95 169.50 173.84 C 169.82 173.36 170.46 172.40 170.78 171.91 C 171.32 171.27 171.85 170.62 172.38 169.97 C 172.52 173.78 171.08 178.55 175.00 180.98 C 178.36 177.63 179.65 172.86 179.49 168.22 Z" />
<path fill="#0e0e0e" opacity="1.00" d=" M 112.18 181.52 C 113.63 175.24 119.68 169.01 126.59 170.46 C 121.37 172.79 116.87 176.43 113.39 180.94 C 113.47 181.32 113.64 182.08 113.73 182.46 L 112.43 182.27 C 112.47 183.21 112.57 185.11 112.61 186.06 C 113.17 186.37 114.28 186.98 114.84 187.29 C 115.33 187.55 116.32 188.07 116.82 188.33 C 118.40 188.36 119.98 188.38 121.57 188.39 C 120.71 186.58 119.91 184.65 120.44 182.61 C 122.24 184.63 123.33 187.99 126.59 187.79 C 126.70 187.27 126.91 186.23 127.02 185.71 C 127.12 187.18 127.18 188.66 127.38 190.13 C 128.68 190.97 130.07 191.68 131.44 192.42 C 128.30 193.38 125.79 191.39 123.38 189.69 C 120.52 190.91 117.46 190.31 114.59 189.53 C 112.17 187.59 111.19 184.63 111.54 181.60 C 111.70 181.58 112.02 181.54 112.18 181.52 Z" />
<path fill="#0e0e0e" opacity="1.00" d=" M 133.65 171.58 C 135.27 171.58 136.89 171.58 138.52 171.59 C 138.45 171.92 138.31 172.57 138.24 172.90 C 135.16 174.39 131.01 176.39 131.15 180.37 C 133.79 179.72 136.50 179.14 139.22 179.69 C 136.84 181.16 134.23 182.17 131.53 182.87 C 133.22 185.38 136.53 184.60 139.11 184.97 C 139.26 185.28 139.55 185.89 139.70 186.19 C 138.41 186.51 137.12 186.84 135.85 187.23 C 133.48 186.86 131.35 185.84 129.63 184.17 C 128.99 182.11 128.58 179.99 128.52 177.83 C 129.66 175.32 131.32 173.10 133.65 171.58 Z" />
<path fill="#0e0e0e" opacity="1.00" d=" M 70.12 176.08 C 71.04 176.50 71.95 176.94 72.87 177.39 C 78.57 180.89 85.15 178.80 90.89 176.60 C 88.44 178.95 85.49 180.63 82.16 181.36 C 77.44 181.93 72.75 180.10 70.12 176.08 Z" />
</g>
</svg>
