<?xml version="1.0" encoding="UTF-8" ?>
<!DOCTYPE svg PUBLIC "-//W3C//DTD SVG 1.1//EN" "http://www.w3.org/Graphics/SVG/1.1/DTD/svg11.dtd">
<svg width="210pt" height="220pt" viewBox="0 0 210 220" version="1.1" xmlns="http://www.w3.org/2000/svg">
<g id="#010101fe">
<path fill="#010101" opacity="1.00" d=" M 128.85 11.51 C 135.53 10.96 141.04 6.76 145.14 1.73 C 146.16 4.96 147.83 8.21 147.51 11.69 C 146.71 14.43 144.66 16.55 143.07 18.85 C 153.72 23.97 165.00 28.98 172.96 38.03 C 176.91 41.80 178.80 47.06 181.12 51.88 C 182.39 54.40 182.88 57.21 182.70 60.02 C 177.61 56.98 172.98 53.12 167.46 50.84 C 170.80 56.30 175.98 60.38 178.97 66.09 C 182.88 71.71 183.74 78.64 184.41 85.27 C 184.68 92.21 185.77 99.08 186.22 106.00 C 185.96 111.92 184.72 117.76 184.45 123.68 C 184.26 127.17 183.63 130.86 180.94 133.35 C 179.56 127.13 178.24 120.58 173.96 115.60 C 172.83 118.26 172.22 121.10 172.36 124.00 C 172.55 128.62 170.11 132.70 168.78 136.99 C 167.82 140.25 165.51 142.82 163.27 145.27 C 159.64 149.08 154.18 150.81 151.03 155.10 C 146.06 165.52 138.72 175.52 128.09 180.66 C 128.58 175.65 130.28 170.65 128.76 165.64 C 120.59 167.24 112.18 166.25 103.91 166.30 C 109.08 170.04 112.52 175.57 117.50 179.53 C 120.70 183.12 124.16 186.43 128.12 189.18 C 128.53 192.97 127.96 196.81 128.55 200.59 C 129.67 205.66 129.63 210.88 130.17 216.03 C 129.69 218.84 126.97 217.09 126.61 215.23 C 124.89 207.64 124.10 199.85 124.44 192.06 C 118.86 187.94 114.93 181.96 109.01 178.24 C 110.98 185.42 115.11 192.28 114.44 199.96 C 114.17 205.57 114.79 211.16 114.83 216.77 C 113.74 216.80 112.66 216.83 111.58 216.87 C 110.20 210.74 110.74 204.46 110.48 198.25 C 109.68 192.62 108.09 187.00 104.99 182.19 C 104.44 186.99 105.09 191.85 104.53 196.65 C 103.23 201.02 100.35 204.79 99.25 209.23 C 98.41 213.70 104.35 214.72 106.89 217.21 C 102.43 217.91 97.23 217.04 94.65 212.93 C 93.65 204.88 101.41 198.97 101.38 191.08 C 101.40 186.70 101.43 182.32 101.36 177.94 C 101.32 173.89 99.61 170.16 98.25 166.42 C 90.80 166.65 83.35 166.69 76.02 165.21 C 77.60 168.81 79.69 172.16 81.21 175.78 C 76.10 175.64 71.48 173.28 67.13 170.82 C 63.32 168.59 59.25 166.81 55.60 164.32 C 49.57 159.63 45.17 153.25 41.35 146.72 C 38.66 141.95 36.67 136.75 33.28 132.41 C 32.47 135.74 32.59 139.17 32.54 142.57 C 27.11 137.06 22.27 130.55 20.05 123.05 C 16.49 110.27 17.31 96.83 17.66 83.73 C 14.39 87.35 12.67 91.93 10.81 96.36 C 8.84 90.94 10.67 85.06 11.89 79.66 C 15.55 71.91 17.48 63.51 20.76 55.62 C 25.09 46.82 31.93 39.65 38.93 32.92 C 41.06 31.11 42.79 27.81 46.04 28.31 C 48.62 28.15 51.23 29.67 53.72 29.08 C 58.45 25.32 62.89 21.10 68.38 18.43 C 80.24 11.12 94.49 9.83 108.04 8.70 C 115.04 9.06 121.80 11.75 128.85 11.51 M 133.30 13.08 C 127.55 14.53 121.60 13.31 115.91 12.19 C 106.01 10.07 95.91 12.13 86.13 13.89 C 79.00 15.29 72.68 19.04 66.40 22.50 C 61.83 25.10 58.25 29.00 54.42 32.51 C 51.47 33.05 48.99 30.12 46.12 30.61 C 37.24 36.78 29.90 45.00 24.15 54.13 C 21.72 58.19 20.83 62.91 19.07 67.26 C 17.35 73.31 13.94 78.81 13.00 85.08 C 15.34 82.39 17.47 79.44 20.52 77.49 C 20.82 82.02 20.15 86.51 19.62 90.99 C 18.80 102.12 19.47 113.47 22.82 124.17 C 24.14 128.31 26.91 131.72 29.39 135.22 C 31.23 132.04 32.92 128.63 35.92 126.37 C 36.65 130.23 37.47 134.12 39.27 137.65 C 43.98 147.06 49.45 156.56 58.03 162.95 C 63.79 166.30 69.73 169.35 75.66 172.41 C 73.33 164.79 75.16 156.76 73.93 149.00 C 73.13 135.36 71.12 121.60 66.22 108.78 C 64.91 105.16 62.53 102.04 61.33 98.37 C 67.35 102.54 69.56 110.31 75.83 114.30 C 68.58 98.60 63.65 81.18 66.08 63.77 C 67.10 53.73 70.19 43.87 75.28 35.14 C 78.76 29.59 85.85 28.74 91.37 26.21 C 99.13 22.58 107.82 23.94 116.08 23.70 C 120.77 23.45 124.85 26.02 128.93 27.93 C 133.79 30.52 138.90 32.62 143.64 35.43 C 149.80 39.54 154.69 45.37 158.19 51.87 C 162.91 59.56 166.85 67.69 171.67 75.32 C 174.24 79.05 173.58 83.73 173.64 88.00 C 173.67 95.01 173.51 102.02 173.66 109.03 C 173.66 111.23 175.32 112.86 176.46 114.58 C 178.83 117.58 180.23 121.18 182.08 124.49 C 182.53 118.32 183.81 112.21 183.74 106.01 C 183.83 99.64 182.42 93.37 182.32 87.01 C 181.72 82.32 181.46 77.50 180.00 72.97 C 176.05 63.65 168.64 56.47 161.49 49.58 C 164.19 49.42 166.95 49.02 169.63 49.57 C 173.34 50.80 176.70 52.85 180.14 54.68 C 177.99 50.57 175.97 46.39 173.43 42.52 C 171.19 39.48 168.33 36.97 165.61 34.37 C 157.70 27.35 147.60 23.80 138.21 19.30 C 140.19 16.97 142.61 15.02 144.30 12.45 C 144.72 10.85 144.64 9.17 144.76 7.53 C 140.94 9.37 137.49 12.07 133.30 13.08 M 80.19 32.98 C 77.68 34.99 76.14 37.96 74.68 40.77 C 69.39 52.39 67.31 65.33 67.77 78.03 C 69.24 89.83 71.94 101.64 77.65 112.17 C 79.08 115.37 81.67 118.13 81.90 121.77 C 77.59 119.51 74.37 115.78 70.40 113.06 C 71.06 117.39 72.74 121.47 73.44 125.80 C 74.66 129.93 74.27 134.29 75.51 138.41 C 75.70 145.71 77.02 152.93 76.59 160.27 C 82.05 160.95 87.41 162.69 92.97 162.27 C 102.89 162.02 112.86 162.70 122.75 161.91 C 129.82 161.64 136.49 158.94 142.69 155.71 C 145.21 154.62 146.28 151.80 148.70 150.58 C 152.74 148.46 156.19 145.44 159.85 142.76 C 164.32 139.01 165.31 132.95 167.70 127.91 C 169.16 125.16 168.25 121.94 168.53 118.98 C 170.15 108.42 169.01 97.66 169.35 87.01 C 169.06 83.56 170.20 79.78 168.38 76.62 C 164.51 69.31 159.02 62.97 155.39 55.53 C 153.11 52.14 151.89 48.02 148.88 45.16 C 144.57 41.53 140.46 37.15 134.72 35.93 C 129.45 33.43 124.52 29.94 118.85 28.40 C 110.32 28.35 101.78 28.25 93.25 28.44 C 88.85 29.78 84.39 31.08 80.19 32.98 M 131.22 164.72 C 131.32 168.62 131.57 172.52 131.53 176.43 C 138.15 172.28 142.65 165.62 146.33 158.90 C 141.28 160.85 136.68 163.92 131.22 164.72 Z" />
<path fill="#010101" opacity="1.00" d=" M 105.45 36.38 C 107.77 34.84 110.27 33.24 113.18 33.37 C 117.10 33.49 121.18 32.77 124.96 34.11 C 121.40 35.09 117.62 34.13 114.10 35.25 C 111.01 35.80 108.35 37.55 105.96 39.49 C 104.69 38.99 103.42 38.50 102.14 38.01 C 103.25 37.48 104.36 36.95 105.45 36.38 Z" />
<path fill="#010101" opacity="1.00" d=" M 81.05 38.14 C 84.39 35.98 88.46 35.53 92.19 34.37 C 93.23 35.69 94.27 37.02 95.32 38.34 C 90.80 36.43 86.00 38.74 82.17 41.12 C 79.48 43.39 78.61 47.03 77.12 50.09 C 75.92 50.74 74.69 51.31 73.42 51.81 C 75.26 46.96 76.57 41.33 81.05 38.14 Z" />
<path fill="#010101" opacity="1.00" d=" M 113.52 44.92 C 117.81 37.14 131.20 37.78 134.30 46.15 C 134.82 49.16 131.86 51.13 129.92 52.92 C 126.55 55.65 122.07 53.99 118.17 54.31 C 117.22 54.84 116.40 55.64 115.27 55.77 C 116.12 55.01 116.98 54.27 117.85 53.55 C 114.22 50.75 113.71 45.84 110.16 43.08 C 111.27 43.70 112.38 44.33 113.52 44.92 M 120.47 41.54 C 118.50 42.49 116.86 43.98 115.09 45.24 C 115.00 47.58 115.92 49.96 118.29 50.81 C 122.61 52.14 127.79 52.46 131.51 49.42 C 131.44 47.69 131.54 45.94 131.32 44.22 C 128.34 41.55 124.33 40.87 120.47 41.54 Z" />
<path fill="#010101" opacity="1.00" d=" M 132.29 40.22 C 134.85 40.81 137.27 41.98 139.17 43.82 C 136.50 43.58 133.92 42.39 132.29 40.22 Z" />
<path fill="#010101" opacity="1.00" d=" M 42.33 58.05 C 43.86 51.98 45.52 45.92 47.96 40.14 C 51.68 47.48 54.99 55.06 58.04 62.70 C 54.55 62.59 51.06 62.34 47.57 62.28 C 46.71 65.68 45.62 69.10 43.15 71.70 C 41.07 71.19 39.00 70.65 36.93 70.13 C 35.69 74.70 34.59 79.31 34.06 84.02 C 28.53 79.20 25.36 72.49 21.32 66.51 C 25.34 65.73 29.55 65.91 33.43 64.52 C 36.08 61.90 38.36 58.71 42.33 58.05 Z" />
<path fill="#010101" opacity="1.00" d=" M 90.48 44.60 C 92.67 44.07 94.92 43.76 97.18 43.65 C 94.85 44.63 92.44 45.38 90.12 46.36 C 93.79 47.07 98.55 45.83 101.19 49.14 C 102.24 50.89 104.35 50.43 106.07 50.66 C 106.28 51.15 106.70 52.12 106.92 52.61 C 105.75 52.44 104.59 52.27 103.43 52.10 C 103.47 54.01 103.50 55.92 103.54 57.83 C 101.71 59.58 99.81 61.35 97.41 62.30 C 92.88 63.20 87.54 62.34 84.88 58.17 C 83.18 56.38 82.92 53.39 84.52 51.46 C 86.35 49.05 88.31 46.71 90.48 44.60 M 85.22 56.10 C 87.28 58.63 90.13 60.44 93.48 60.49 C 96.54 61.17 100.40 59.69 100.93 56.30 C 102.16 54.06 101.83 50.86 99.09 49.97 C 94.14 46.32 84.64 49.12 85.22 56.10 Z" />
<path fill="#010101" opacity="1.00" d=" M 124.64 46.58 C 125.86 47.36 127.08 48.15 128.31 48.93 C 127.00 49.60 125.70 50.29 124.41 51.00 C 124.49 49.52 124.56 48.05 124.64 46.58 Z" />
<path fill="#010101" opacity="1.00" d=" M 78.92 53.78 C 79.41 56.04 79.99 58.27 80.61 60.50 C 84.32 59.19 85.93 63.22 88.14 65.34 C 84.73 63.68 81.50 60.43 77.41 61.72 C 78.58 59.23 78.70 56.48 78.92 53.78 Z" />
<path fill="#010101" opacity="1.00" d=" M 96.84 54.02 C 97.91 54.72 98.99 55.40 100.11 56.02 C 98.83 56.98 97.56 57.93 96.28 58.88 C 96.46 57.26 96.66 55.64 96.84 54.02 Z" />
<path fill="#010101" opacity="1.00" d=" M 138.54 58.50 C 140.27 57.73 141.76 56.06 143.79 56.30 C 146.42 56.20 147.19 59.43 148.54 61.14 C 146.96 60.24 145.49 59.16 143.92 58.25 C 142.12 58.14 140.33 58.35 138.54 58.50 Z" />
<path fill="#010101" opacity="1.00" d=" M 126.91 57.46 C 128.37 57.45 129.83 57.46 131.29 57.50 C 131.34 58.13 131.46 59.39 131.51 60.03 C 129.97 59.19 128.42 58.35 126.91 57.46 Z" />
<path fill="#010101" opacity="1.00" d=" M 102.09 67.77 C 103.66 65.50 105.26 63.26 106.65 60.87 C 105.93 62.94 105.47 65.08 105.20 67.25 C 104.17 67.42 103.13 67.60 102.09 67.77 Z" />
<path fill="#010101" opacity="1.00" d=" M 143.53 65.65 C 145.48 64.85 147.37 63.91 149.36 63.18 C 148.13 63.88 146.85 64.47 145.57 65.05 C 145.40 66.99 146.17 69.27 144.72 70.86 C 142.41 73.93 140.71 77.39 138.48 80.51 C 134.33 84.75 128.13 84.95 122.79 86.67 C 119.42 86.49 114.17 88.15 112.88 83.82 C 112.61 80.31 111.78 76.70 112.82 73.23 C 113.71 75.07 114.41 77.00 114.99 78.97 C 119.20 78.78 121.76 74.87 125.87 74.21 C 125.76 73.56 125.54 72.25 125.43 71.60 C 126.41 72.50 127.41 73.39 128.43 74.27 C 128.66 72.02 128.74 69.76 129.12 67.54 C 129.37 69.84 129.40 72.15 129.42 74.47 C 132.04 74.25 134.68 74.68 137.29 74.39 C 140.02 72.00 144.11 69.91 143.53 65.65 M 120.06 81.37 C 119.33 81.44 117.88 81.59 117.15 81.66 C 117.25 82.68 117.35 83.70 117.45 84.72 C 122.89 84.99 127.82 82.39 132.97 81.07 C 134.85 80.75 135.90 79.06 137.15 77.81 C 135.29 77.50 133.41 77.25 131.54 77.03 C 131.55 77.67 131.59 78.93 131.61 79.57 C 130.50 78.42 129.46 77.13 128.04 76.37 C 125.00 77.38 122.38 79.21 120.06 81.37 Z" />
<path fill="#010101" opacity="1.00" d=" M 98.39 77.35 C 99.10 74.39 101.30 71.60 104.66 72.20 C 102.68 74.05 100.56 75.73 98.39 77.35 Z" />
<path fill="#010101" opacity="1.00" d=" M 150.98 102.42 C 152.12 102.36 153.26 102.31 154.40 102.26 C 156.50 104.32 158.24 106.98 158.66 109.91 C 157.32 114.51 155.23 119.75 150.02 120.98 C 152.06 118.45 154.72 116.50 156.78 113.99 C 156.54 111.19 157.81 107.55 155.52 105.47 C 154.24 104.14 152.55 103.35 150.98 102.42 Z" />
<path fill="#010101" opacity="1.00" d=" M 147.15 103.66 C 148.75 107.07 148.73 110.94 149.23 114.60 C 147.41 118.71 145.39 122.93 142.15 126.12 C 139.54 128.39 136.08 129.30 132.75 129.87 C 132.58 129.28 132.24 128.09 132.07 127.49 C 134.40 127.59 136.74 127.59 139.08 127.59 C 141.17 125.09 144.07 123.27 145.64 120.36 C 148.68 115.35 147.71 109.19 147.15 103.66 Z" />
<path fill="#010101" opacity="1.00" d=" M 182.74 147.97 C 186.30 149.02 188.96 151.59 191.19 154.45 C 191.71 152.55 192.24 150.65 192.87 148.78 C 193.52 150.68 194.07 152.61 194.58 154.55 C 196.81 154.88 199.02 155.28 201.22 155.79 C 199.65 156.74 198.01 157.57 196.49 158.60 C 194.68 160.92 193.85 163.96 191.71 166.01 C 189.78 166.62 187.73 166.42 185.74 166.57 C 184.94 163.99 184.25 161.38 183.63 158.76 C 185.66 158.26 187.71 157.87 189.80 157.66 C 188.89 158.89 187.97 160.10 187.03 161.31 C 187.19 161.80 187.50 162.79 187.65 163.28 C 188.30 163.56 189.60 164.12 190.25 164.39 C 191.16 163.02 192.22 161.72 192.86 160.18 C 189.75 155.89 185.17 152.77 182.74 147.97 Z" />
<path fill="#010101" opacity="1.00" d=" M 171.03 159.03 C 172.51 159.15 173.98 159.30 175.46 159.42 C 177.90 163.37 180.71 167.18 182.24 171.61 C 176.99 168.84 175.68 162.48 171.03 159.03 Z" />
<path fill="#010101" opacity="1.00" d=" M 179.29 163.05 C 182.95 163.41 184.85 166.29 185.68 169.59 C 182.90 168.16 180.19 166.21 179.29 163.05 Z" />
<path fill="#010101" opacity="1.00" d=" M 163.86 163.71 C 165.66 164.93 167.10 166.70 169.08 167.63 C 172.15 167.25 175.88 167.04 177.65 170.16 C 179.25 174.08 181.99 177.31 185.15 180.08 C 185.31 178.06 185.45 176.03 185.59 174.00 C 186.00 174.25 186.84 174.73 187.25 174.97 C 187.43 176.72 187.57 178.46 187.73 180.21 C 189.72 180.27 191.71 180.32 193.71 180.39 C 193.71 180.98 193.71 182.16 193.71 182.75 C 192.03 182.93 190.35 183.12 188.67 183.26 C 188.63 184.59 188.59 185.91 188.52 187.24 C 185.51 184.66 182.94 181.64 180.28 178.71 C 177.18 175.64 176.19 170.96 172.43 168.45 C 173.44 171.84 176.04 175.95 173.24 179.18 C 171.43 181.59 168.15 180.51 165.61 180.58 C 165.62 181.18 165.64 182.38 165.65 182.98 C 170.66 186.14 173.51 191.52 175.87 196.76 C 173.62 195.60 171.56 193.99 170.41 191.69 C 169.04 189.79 168.32 186.94 165.86 186.19 C 163.90 186.19 161.97 186.67 160.03 186.91 C 161.06 184.87 162.20 182.89 163.30 180.88 C 160.42 180.78 157.54 180.70 154.67 180.49 C 155.79 177.88 157.25 175.39 159.42 173.51 C 159.51 175.21 159.55 176.92 159.55 178.63 C 161.02 178.65 162.48 178.69 163.95 178.75 C 163.53 176.50 163.37 174.15 164.67 172.14 C 167.09 173.17 165.94 176.13 166.75 178.13 C 168.02 178.50 169.35 178.67 170.65 178.92 C 171.00 176.85 172.60 174.19 170.55 172.50 C 167.94 169.84 163.86 168.01 163.86 163.71 Z" />
<path fill="#010101" opacity="1.00" d=" M 42.62 165.75 C 44.05 166.69 45.60 167.51 46.77 168.79 C 46.15 170.62 44.10 171.72 42.57 172.82 C 40.00 173.40 38.79 170.65 37.39 169.07 C 39.02 169.69 40.61 170.40 42.21 171.12 C 42.31 169.33 42.44 167.53 42.62 165.75 Z" />
<path fill="#010101" opacity="1.00" d=" M 43.99 174.98 C 45.13 173.62 46.71 172.75 48.15 171.75 C 48.63 173.13 49.10 174.51 49.57 175.89 C 48.30 175.57 47.03 175.25 45.76 174.92 C 45.60 175.65 45.26 177.10 45.09 177.83 C 48.64 177.53 51.79 175.78 55.09 174.60 C 53.85 175.98 52.55 177.30 51.23 178.61 C 51.57 180.92 51.72 183.26 51.79 185.59 C 53.69 184.78 55.59 183.97 57.53 183.28 C 56.06 184.86 54.62 186.69 52.51 187.43 C 50.25 187.76 47.89 186.93 45.70 187.74 C 44.31 188.56 43.14 189.71 41.78 190.59 C 39.71 189.83 38.61 187.82 37.40 186.13 C 39.04 186.91 40.65 187.77 42.26 188.62 C 42.28 186.98 42.30 185.34 42.33 183.71 C 44.31 184.41 46.22 185.45 48.34 185.68 C 49.34 184.56 50.16 183.29 50.99 182.04 C 48.82 181.44 46.63 180.91 44.44 180.40 C 44.17 178.64 42.65 176.61 43.99 174.98 Z" />
<path fill="#010101" opacity="1.00" d=" M 68.21 180.25 C 69.15 177.67 71.30 175.86 73.25 174.04 C 73.75 176.06 74.73 178.25 73.25 180.12 C 71.19 183.40 70.36 187.17 70.38 191.02 C 69.40 190.48 68.41 189.95 67.43 189.42 C 67.41 186.37 66.81 183.10 68.21 180.25 Z" />
<path fill="#010101" opacity="1.00" d=" M 76.81 183.77 C 77.95 182.91 79.89 182.87 80.65 184.26 C 80.02 188.92 78.65 193.58 76.16 197.61 C 73.11 193.31 75.43 188.21 76.81 183.77 Z" />
<path fill="#010101" opacity="1.00" d=" M 177.46 184.46 C 179.02 182.51 181.63 183.50 183.71 183.59 C 182.52 184.40 181.31 185.19 180.10 185.96 C 180.71 187.17 181.33 188.39 181.95 189.61 C 183.95 188.65 185.93 187.63 187.98 186.75 C 187.19 188.34 186.59 190.12 185.24 191.36 C 183.40 191.85 181.45 191.85 179.58 191.53 C 177.70 189.75 177.42 186.91 177.46 184.46 Z" />
<path fill="#010101" opacity="1.00" d=" M 137.13 187.98 C 138.46 185.82 141.30 186.20 143.40 186.70 C 146.98 188.04 148.75 191.64 149.93 195.02 C 150.99 197.94 152.75 200.63 153.10 203.79 C 154.58 204.08 156.06 204.37 157.54 204.67 C 157.35 202.67 157.22 200.67 157.16 198.67 C 157.77 198.50 158.99 198.15 159.61 197.97 C 159.58 199.53 159.46 201.09 159.59 202.65 C 160.71 203.55 162.13 203.95 163.43 204.52 C 164.19 202.94 164.95 201.35 165.71 199.77 C 163.16 195.96 156.81 194.03 157.60 188.65 C 159.29 190.21 160.83 191.91 162.37 193.62 C 163.90 193.21 165.40 192.68 166.98 192.49 C 169.47 193.68 173.43 195.62 172.04 199.04 C 169.99 197.53 168.10 195.84 166.12 194.25 C 167.07 197.32 168.82 200.84 167.05 203.96 C 165.55 206.51 162.37 206.34 159.81 206.51 C 159.19 209.89 156.75 212.30 153.47 213.19 C 154.32 210.76 155.60 208.53 156.99 206.38 C 154.25 206.37 151.52 206.36 148.78 206.33 C 147.35 202.37 147.57 197.64 144.60 194.38 C 142.49 191.83 139.52 190.23 137.13 187.98 Z" />
<path fill="#010101" opacity="1.00" d=" M 55.25 187.28 C 58.28 187.04 55.21 191.09 53.53 189.63 C 52.87 188.54 54.30 187.47 55.25 187.28 Z" />
<path fill="#010101" opacity="1.00" d=" M 55.53 191.62 C 56.67 189.49 59.13 189.27 61.26 189.03 C 61.58 189.63 62.24 190.83 62.57 191.43 C 60.47 191.41 58.37 191.47 56.28 191.70 C 57.61 193.43 59.04 195.08 60.54 196.66 C 64.03 195.31 67.55 194.03 71.18 193.12 C 69.98 194.38 68.73 195.58 67.48 196.79 C 68.83 198.03 70.16 199.29 71.42 200.63 C 69.87 200.00 68.34 199.34 66.82 198.66 C 65.63 200.22 64.41 201.75 63.13 203.24 C 63.39 201.38 63.71 199.54 64.04 197.70 C 62.55 197.97 61.08 198.52 59.56 198.41 C 57.82 196.51 54.77 194.59 55.53 191.62 Z" />
<path fill="#010101" opacity="1.00" d=" M 82.58 204.74 C 76.88 200.36 80.10 192.63 83.82 188.06 C 84.63 188.47 86.24 189.29 87.04 189.70 C 85.97 192.64 84.66 195.49 83.28 198.30 C 84.03 199.87 84.81 201.43 85.59 203.00 C 84.83 203.43 83.33 204.31 82.58 204.74 Z" />
<path fill="#010101" opacity="1.00" d=" M 172.93 188.49 C 176.60 188.68 178.32 191.69 179.15 194.87 C 176.41 193.51 173.80 191.58 172.93 188.49 Z" />
<path fill="#010101" opacity="1.00" d=" M 43.35 194.73 C 43.19 192.09 46.20 190.77 47.67 188.97 C 48.32 190.20 48.97 191.44 49.61 192.68 C 48.28 192.56 46.96 192.44 45.63 192.32 C 45.55 193.47 45.47 194.61 45.39 195.77 C 48.23 194.65 51.03 193.42 53.77 192.06 C 51.47 195.31 51.37 199.23 51.58 203.06 C 53.16 202.35 54.74 201.62 56.32 200.91 C 56.33 202.74 56.36 204.58 56.40 206.42 C 58.53 206.68 60.65 207.04 62.75 207.49 C 60.62 208.30 58.48 209.09 56.38 209.96 C 57.65 211.27 58.92 212.57 60.20 213.88 C 63.45 212.87 66.68 211.81 69.94 210.84 C 69.23 211.96 68.50 213.07 67.78 214.18 C 68.92 215.38 70.05 216.59 71.16 217.83 C 69.61 217.24 68.07 216.63 66.53 216.02 C 65.72 217.35 64.92 218.69 64.06 220.00 L 62.07 220.00 C 63.00 218.57 63.86 217.09 64.71 215.61 C 62.93 215.53 61.14 215.63 59.39 215.34 C 56.45 212.88 55.37 208.92 52.41 206.49 C 51.04 205.35 49.54 204.40 48.07 203.40 C 48.97 202.25 49.86 201.10 50.75 199.94 C 48.17 198.51 44.42 197.86 43.35 194.73 Z" />
<path fill="#010101" opacity="1.00" d=" M 135.03 193.00 C 138.60 191.62 142.16 194.06 144.37 196.71 C 146.34 201.20 147.93 207.37 143.69 211.14 C 142.59 207.60 142.80 203.81 141.62 200.31 C 140.22 197.26 137.18 195.46 135.03 193.00 Z" />
<path fill="#010101" opacity="1.00" d=" M 132.95 198.43 C 134.55 198.40 136.16 198.37 137.77 198.36 C 140.18 201.64 142.07 206.38 139.16 209.98 C 137.36 208.63 137.37 206.27 136.67 204.32 C 135.99 202.05 134.26 200.34 132.95 198.43 Z" />
</g>
<g id="#d3971bff">
<path fill="#d3971b" opacity="1.00" d=" M 133.30 13.08 C 137.49 12.07 140.94 9.37 144.76 7.53 C 144.64 9.17 144.72 10.85 144.30 12.45 C 142.61 15.02 140.19 16.97 138.21 19.30 C 147.60 23.80 157.70 27.35 165.61 34.37 C 168.33 36.97 171.19 39.48 173.43 42.52 C 175.97 46.39 177.99 50.57 180.14 54.68 C 176.70 52.85 173.34 50.80 169.63 49.57 C 166.95 49.02 164.19 49.42 161.49 49.58 C 168.64 56.47 176.05 63.65 180.00 72.97 C 181.46 77.50 181.72 82.32 182.32 87.01 C 182.42 93.37 183.83 99.64 183.74 106.01 C 183.81 112.21 182.53 118.32 182.08 124.49 C 180.23 121.18 178.83 117.58 176.46 114.58 C 175.32 112.86 173.66 111.23 173.66 109.03 C 173.51 102.02 173.67 95.01 173.64 88.00 C 173.58 83.73 174.24 79.05 171.67 75.32 C 166.85 67.69 162.91 59.56 158.19 51.87 C 154.69 45.37 149.80 39.54 143.64 35.43 C 138.90 32.62 133.79 30.52 128.93 27.93 C 124.85 26.02 120.77 23.45 116.08 23.70 C 107.82 23.94 99.13 22.58 91.37 26.21 C 85.85 28.74 78.76 29.59 75.28 35.14 C 70.19 43.87 67.10 53.73 66.08 63.77 C 63.65 81.18 68.58 98.60 75.83 114.30 C 69.56 110.31 67.35 102.54 61.33 98.37 C 62.53 102.04 64.91 105.16 66.22 108.78 C 71.12 121.60 73.13 135.36 73.93 149.00 C 75.16 156.76 73.33 164.79 75.66 172.41 C 69.73 169.35 63.79 166.30 58.03 162.95 C 49.45 156.56 43.98 147.06 39.27 137.65 C 37.47 134.12 36.65 130.23 35.92 126.37 C 32.92 128.63 31.23 132.04 29.39 135.22 C 26.91 131.72 24.14 128.31 22.82 124.17 C 19.47 113.47 18.80 102.12 19.62 90.99 C 20.15 86.51 20.82 82.02 20.52 77.49 C 17.47 79.44 15.34 82.39 13.00 85.08 C 13.94 78.81 17.35 73.31 19.07 67.26 C 20.83 62.91 21.72 58.19 24.15 54.13 C 29.90 45.00 37.24 36.78 46.12 30.61 C 48.99 30.12 51.47 33.05 54.42 32.51 C 58.25 29.00 61.83 25.10 66.40 22.50 C 72.68 19.04 79.00 15.29 86.13 13.89 C 95.91 12.13 106.01 10.07 115.91 12.19 C 121.60 13.31 127.55 14.53 133.30 13.08 M 42.33 58.05 C 38.36 58.71 36.08 61.90 33.43 64.52 C 29.55 65.91 25.34 65.73 21.32 66.51 C 25.36 72.49 28.53 79.20 34.06 84.02 C 34.59 79.31 35.69 74.70 36.93 70.13 C 39.00 70.65 41.07 71.19 43.15 71.70 C 45.62 69.10 46.71 65.68 47.57 62.28 C 51.06 62.34 54.55 62.59 58.04 62.70 C 54.99 55.06 51.68 47.48 47.96 40.14 C 45.52 45.92 43.86 51.98 42.33 58.05 Z" />
<path fill="#d3971b" opacity="1.00" d=" M 98.58 34.46 C 100.76 35.45 102.96 36.73 105.45 36.38 C 104.36 36.95 103.25 37.48 102.14 38.01 C 103.42 38.50 104.69 38.99 105.96 39.49 L 106.71 39.79 C 103.27 39.34 99.50 38.29 98.58 34.46 Z" />
<path fill="#d3971b" opacity="1.00" d=" M 111.46 38.30 C 113.53 37.43 113.99 40.69 112.10 41.13 C 110.12 41.99 109.64 38.71 111.46 38.30 Z" />
<path fill="#d3971b" opacity="1.00" d=" M 148.22 90.86 C 148.51 90.68 149.08 90.33 149.36 90.15 C 149.36 92.11 149.35 94.08 149.31 96.04 C 148.47 96.30 147.62 96.57 146.78 96.85 C 147.32 94.86 147.77 92.86 148.22 90.86 Z" />
<path fill="#d3971b" opacity="1.00" d=" M 131.22 164.72 C 136.68 163.92 141.28 160.85 146.33 158.90 C 142.65 165.62 138.15 172.28 131.53 176.43 C 131.57 172.52 131.32 168.62 131.22 164.72 Z" />
</g>
<g id="#fdfdfdff">
<path fill="#fdfdfd" opacity="1.00" d=" M 80.19 32.98 C 84.39 31.08 88.85 29.78 93.25 28.44 C 101.78 28.25 110.32 28.35 118.85 28.40 C 124.52 29.94 129.45 33.43 134.72 35.93 C 140.46 37.15 144.57 41.53 148.88 45.16 C 151.89 48.02 153.11 52.14 155.39 55.53 C 159.02 62.97 164.51 69.31 168.38 76.62 C 170.20 79.78 169.06 83.56 169.35 87.01 C 169.01 97.66 170.15 108.42 168.53 118.98 C 168.25 121.94 169.16 125.16 167.70 127.91 C 165.31 132.95 164.32 139.01 159.85 142.76 C 156.19 145.44 152.74 148.46 148.70 150.58 C 146.28 151.80 145.21 154.62 142.69 155.71 C 136.49 158.94 129.82 161.64 122.75 161.91 C 112.86 162.70 102.89 162.02 92.97 162.27 C 87.41 162.69 82.05 160.95 76.59 160.27 C 77.02 152.93 75.70 145.71 75.51 138.41 C 74.27 134.29 74.66 129.93 73.44 125.80 C 72.74 121.47 71.06 117.39 70.40 113.06 C 74.37 115.78 77.59 119.51 81.90 121.77 C 81.67 118.13 79.08 115.37 77.65 112.17 C 71.94 101.64 69.24 89.83 67.77 78.03 C 67.31 65.33 69.39 52.39 74.68 40.77 C 76.14 37.96 77.68 34.99 80.19 32.98 M 105.45 36.38 C 102.96 36.73 100.76 35.45 98.58 34.46 C 99.50 38.29 103.27 39.34 106.71 39.79 L 105.96 39.49 C 108.35 37.55 111.01 35.80 114.10 35.25 C 117.62 34.13 121.40 35.09 124.96 34.11 C 121.18 32.77 117.10 33.49 113.18 33.37 C 110.27 33.24 107.77 34.84 105.45 36.38 M 81.05 38.14 C 76.57 41.33 75.26 46.96 73.42 51.81 C 74.69 51.31 75.92 50.74 77.12 50.09 C 78.61 47.03 79.48 43.39 82.17 41.12 C 86.00 38.74 90.80 36.43 95.32 38.34 C 94.27 37.02 93.23 35.69 92.19 34.37 C 88.46 35.53 84.39 35.98 81.05 38.14 M 111.46 38.30 C 109.64 38.71 110.12 41.99 112.10 41.13 C 113.99 40.69 113.53 37.43 111.46 38.30 M 113.52 44.92 C 112.38 44.33 111.27 43.70 110.16 43.08 C 113.71 45.84 114.22 50.75 117.85 53.55 C 116.98 54.27 116.12 55.01 115.27 55.77 C 116.40 55.64 117.22 54.84 118.17 54.31 C 122.07 53.99 126.55 55.65 129.92 52.92 C 131.86 51.13 134.82 49.16 134.30 46.15 C 131.20 37.78 117.81 37.14 113.52 44.92 M 132.29 40.22 C 133.92 42.39 136.50 43.58 139.17 43.82 C 137.27 41.98 134.85 40.81 132.29 40.22 M 90.48 44.60 C 88.31 46.71 86.35 49.05 84.52 51.46 C 82.92 53.39 83.18 56.38 84.88 58.17 C 87.54 62.34 92.88 63.20 97.41 62.30 C 99.81 61.35 101.71 59.58 103.54 57.83 C 103.50 55.92 103.47 54.01 103.43 52.10 C 104.59 52.27 105.75 52.44 106.92 52.61 C 106.70 52.12 106.28 51.15 106.07 50.66 C 104.35 50.43 102.24 50.89 101.19 49.14 C 98.55 45.83 93.79 47.07 90.12 46.36 C 92.44 45.38 94.85 44.63 97.18 43.65 C 94.92 43.76 92.67 44.07 90.48 44.60 M 78.92 53.78 C 78.70 56.48 78.58 59.23 77.41 61.72 C 81.50 60.43 84.73 63.68 88.14 65.34 C 85.93 63.22 84.32 59.19 80.61 60.50 C 79.99 58.27 79.41 56.04 78.92 53.78 M 138.54 58.50 C 140.33 58.35 142.12 58.14 143.92 58.25 C 145.49 59.16 146.96 60.24 148.54 61.14 C 147.19 59.43 146.42 56.20 143.79 56.30 C 141.76 56.06 140.27 57.73 138.54 58.50 M 126.91 57.46 C 128.42 58.35 129.97 59.19 131.51 60.03 C 131.46 59.39 131.34 58.13 131.29 57.50 C 129.83 57.46 128.37 57.45 126.91 57.46 M 102.09 67.77 C 103.13 67.60 104.17 67.42 105.20 67.25 C 105.47 65.08 105.93 62.94 106.65 60.87 C 105.26 63.26 103.66 65.50 102.09 67.77 M 143.53 65.65 C 144.11 69.91 140.02 72.00 137.29 74.39 C 134.68 74.68 132.04 74.25 129.42 74.47 C 129.40 72.15 129.37 69.84 129.12 67.54 C 128.74 69.76 128.66 72.02 128.43 74.27 C 127.41 73.39 126.41 72.50 125.43 71.60 C 125.54 72.25 125.76 73.56 125.87 74.21 C 121.76 74.87 119.20 78.78 114.99 78.97 C 114.41 77.00 113.71 75.07 112.82 73.23 C 111.78 76.70 112.61 80.31 112.88 83.82 C 114.17 88.15 119.42 86.49 122.79 86.67 C 128.13 84.95 134.33 84.75 138.48 80.51 C 140.71 77.39 142.41 73.93 144.72 70.86 C 146.17 69.27 145.40 66.99 145.57 65.05 C 146.85 64.47 148.13 63.88 149.36 63.18 C 147.37 63.91 145.48 64.85 143.53 65.65 M 98.39 77.35 C 100.56 75.73 102.68 74.05 104.66 72.20 C 101.30 71.60 99.10 74.39 98.39 77.35 M 148.22 90.86 C 147.77 92.86 147.32 94.86 146.78 96.85 C 147.62 96.57 148.47 96.30 149.31 96.04 C 149.35 94.08 149.36 92.11 149.36 90.15 C 149.08 90.33 148.51 90.68 148.22 90.86 M 150.98 102.42 C 152.55 103.35 154.24 104.14 155.52 105.47 C 157.81 107.55 156.54 111.19 156.78 113.99 C 154.72 116.50 152.06 118.45 150.02 120.98 C 155.23 119.75 157.32 114.51 158.66 109.91 C 158.24 106.98 156.50 104.32 154.40 102.26 C 153.26 102.31 152.12 102.36 150.98 102.42 M 147.15 103.66 C 147.71 109.19 148.68 115.35 145.64 120.36 C 144.07 123.27 141.17 125.09 139.08 127.59 C 136.74 127.59 134.40 127.59 132.07 127.49 C 132.24 128.09 132.58 129.28 132.75 129.87 C 136.08 129.30 139.54 128.39 142.15 126.12 C 145.39 122.93 147.41 118.71 149.23 114.60 C 148.73 110.94 148.75 107.07 147.15 103.66 Z" />
<path fill="#fdfdfd" opacity="1.00" d=" M 120.47 41.54 C 124.33 40.87 128.34 41.55 131.32 44.22 C 131.54 45.94 131.44 47.69 131.51 49.42 C 127.79 52.46 122.61 52.14 118.29 50.81 C 115.92 49.96 115.00 47.58 115.09 45.24 C 116.86 43.98 118.50 42.49 120.47 41.54 M 124.64 46.58 C 124.56 48.05 124.49 49.52 124.41 51.00 C 125.70 50.29 127.00 49.60 128.31 48.93 C 127.08 48.15 125.86 47.36 124.64 46.58 Z" />
<path fill="#fdfdfd" opacity="1.00" d=" M 85.22 56.10 C 84.64 49.12 94.14 46.32 99.09 49.97 C 101.83 50.86 102.16 54.06 100.93 56.30 C 100.40 59.69 96.54 61.17 93.48 60.49 C 90.13 60.44 87.28 58.63 85.22 56.10 M 96.84 54.02 C 96.66 55.64 96.46 57.26 96.28 58.88 C 97.56 57.93 98.83 56.98 100.11 56.02 C 98.99 55.40 97.91 54.72 96.84 54.02 Z" />
<path fill="#fdfdfd" opacity="1.00" d=" M 120.06 81.37 C 122.38 79.21 125.00 77.38 128.04 76.37 C 129.46 77.13 130.50 78.42 131.61 79.57 C 131.59 78.93 131.55 77.67 131.54 77.03 C 133.41 77.25 135.29 77.50 137.15 77.81 C 135.90 79.06 134.85 80.75 132.97 81.07 C 127.82 82.39 122.89 84.99 117.45 84.72 C 117.35 83.70 117.25 82.68 117.15 81.66 C 117.88 81.59 119.33 81.44 120.06 81.37 Z" />
</g>
</svg>
