<?xml version="1.0" encoding="UTF-8" ?>
<!DOCTYPE svg PUBLIC "-//W3C//DTD SVG 1.1//EN" "http://www.w3.org/Graphics/SVG/1.1/DTD/svg11.dtd">
<svg width="210pt" height="220pt" viewBox="0 0 210 220" version="1.1" xmlns="http://www.w3.org/2000/svg">
<g id="#030303fd">
<path fill="#030303" opacity="1.00" d=" M 67.80 28.56 C 70.13 27.82 72.53 27.24 75.00 27.35 C 85.35 27.41 95.69 27.37 106.03 27.37 C 109.24 27.29 112.12 28.92 115.01 30.07 C 120.68 32.22 126.31 35.06 130.47 39.58 C 132.76 42.08 135.43 44.20 138.17 46.19 C 138.60 46.23 139.46 46.30 139.89 46.34 C 143.03 50.11 147.53 52.55 150.22 56.77 C 154.55 61.62 159.14 66.64 160.92 73.08 C 161.32 73.47 162.10 74.26 162.50 74.65 C 162.09 79.40 164.43 83.61 165.55 88.07 C 165.96 93.61 165.64 99.18 165.62 104.73 C 167.41 104.30 169.21 103.89 171.02 103.52 C 175.26 106.18 180.30 107.66 183.70 111.52 C 183.66 112.32 183.56 113.91 183.51 114.71 C 184.50 114.19 185.50 113.68 186.50 113.18 C 187.04 118.92 182.43 123.18 179.04 127.20 C 176.30 130.06 172.72 132.06 170.10 134.98 C 176.21 139.75 181.89 145.02 187.77 150.06 C 186.94 151.28 186.11 152.51 185.31 153.75 C 183.64 154.55 182.02 155.48 180.23 155.97 C 172.70 156.81 165.03 155.39 157.53 156.74 C 151.75 156.05 145.91 155.94 140.11 156.48 C 137.92 156.19 135.72 155.92 133.52 155.65 C 133.55 159.65 133.07 163.66 131.34 167.31 C 131.29 168.54 131.25 169.77 131.21 171.00 C 127.80 175.31 125.12 180.40 120.46 183.55 C 116.94 186.05 113.35 188.54 109.46 190.42 C 99.98 190.85 90.46 190.42 80.96 190.62 C 78.09 190.88 75.40 189.83 72.86 188.63 C 69.62 188.53 66.34 188.68 63.16 187.93 C 61.77 187.49 60.39 187.04 59.02 186.56 C 58.43 186.53 57.25 186.46 56.66 186.42 C 47.20 182.34 36.85 178.08 30.81 169.25 C 29.06 163.18 26.60 157.05 22.25 152.35 C 21.24 143.87 26.62 136.61 31.25 130.08 C 34.46 126.49 36.82 122.29 39.20 118.13 C 38.61 116.55 38.04 114.97 37.50 113.38 L 36.73 113.20 C 36.07 108.33 32.17 105.03 29.97 100.87 C 27.85 97.07 24.18 93.69 24.29 89.03 C 24.27 82.60 21.81 76.47 22.22 70.03 C 22.47 66.22 21.41 61.99 23.67 58.60 C 25.58 55.64 27.86 52.89 30.31 50.36 C 35.67 46.39 39.59 40.53 45.97 38.00 C 51.36 35.92 56.55 33.36 61.60 30.55 C 62.08 30.50 63.03 30.40 63.51 30.36 C 64.93 29.75 66.37 29.17 67.80 28.56 M 74.02 29.34 C 73.74 29.59 73.16 30.08 72.87 30.33 C 70.46 30.27 68.13 30.79 65.99 31.90 C 57.15 34.75 49.20 39.67 40.81 43.58 C 38.47 48.50 33.02 50.52 29.70 54.64 C 24.28 59.86 23.78 67.96 24.28 75.02 C 26.53 71.63 27.59 66.68 31.87 65.27 C 31.13 66.59 30.30 67.85 29.45 69.11 C 29.46 69.70 29.49 70.87 29.51 71.46 C 28.49 73.05 27.36 74.57 26.46 76.23 C 26.15 80.51 26.24 84.83 26.42 89.11 C 27.48 92.31 29.35 95.18 31.05 98.06 C 31.25 97.33 31.65 95.85 31.85 95.11 C 32.30 95.21 33.21 95.39 33.67 95.49 C 33.63 97.64 33.59 99.80 33.57 101.96 C 35.18 103.98 36.64 106.11 38.18 108.19 C 40.34 103.82 45.26 101.44 46.77 96.76 C 46.13 96.65 44.87 96.42 44.24 96.31 C 43.05 94.75 40.99 93.24 42.14 91.05 C 44.72 91.23 46.02 93.92 47.84 95.42 C 48.77 95.42 49.71 95.41 50.64 95.41 C 51.97 94.24 53.31 93.07 54.67 91.94 C 54.04 91.36 53.42 90.78 52.79 90.20 C 52.06 90.22 50.60 90.26 49.86 90.28 C 48.95 89.23 47.99 88.20 47.17 87.07 C 48.82 85.20 51.07 87.80 53.03 87.92 C 57.02 88.20 60.33 85.41 63.86 83.96 C 60.58 82.18 57.17 80.59 54.27 78.20 C 54.70 77.74 55.56 76.80 55.99 76.34 C 58.17 77.78 60.23 79.44 62.63 80.51 C 66.72 80.84 70.85 80.57 74.96 80.64 C 74.19 79.82 73.40 79.00 72.62 78.19 C 72.42 76.40 72.22 74.60 71.69 72.87 C 71.95 71.15 72.28 69.44 72.61 67.73 C 73.11 68.18 74.11 69.07 74.60 69.52 C 74.58 71.66 74.54 73.81 74.48 75.96 C 77.22 80.22 81.79 82.84 86.22 85.04 C 86.20 80.61 86.10 76.18 86.28 71.75 C 87.32 72.38 88.35 73.03 89.38 73.69 C 89.37 77.48 89.10 81.28 89.44 85.06 C 91.12 89.53 94.10 93.39 97.33 96.86 C 99.31 93.82 99.11 89.84 101.36 87.00 C 102.46 90.63 101.90 94.48 99.70 97.58 C 99.71 102.45 99.69 107.33 99.72 112.20 C 101.03 116.71 103.73 120.52 107.42 123.41 C 106.96 122.28 106.49 121.15 106.01 120.02 C 106.70 117.82 107.15 115.54 107.89 113.36 C 108.57 113.63 109.92 114.16 110.59 114.43 C 108.20 119.50 109.22 125.52 109.82 130.91 C 110.67 134.76 112.70 138.18 114.71 141.52 C 120.79 141.39 126.88 141.39 132.96 141.45 C 134.40 141.34 135.65 142.10 136.91 142.67 C 136.44 143.18 135.50 144.21 135.03 144.72 C 132.70 144.59 130.26 144.78 128.13 143.67 C 124.34 143.56 120.53 143.44 116.75 143.76 C 118.66 144.73 120.54 145.82 122.57 146.52 C 125.53 146.86 128.53 146.61 131.50 146.64 C 131.86 146.92 132.59 147.49 132.96 147.77 C 133.69 147.74 135.15 147.67 135.88 147.63 C 137.12 148.89 138.37 150.14 139.63 151.39 C 139.66 152.08 139.71 153.46 139.74 154.15 C 152.56 154.10 165.39 154.21 178.22 154.09 C 179.64 153.54 181.09 153.03 182.55 152.56 C 183.35 151.74 184.15 150.93 184.96 150.11 C 179.94 146.56 174.83 143.05 170.68 138.46 C 165.90 134.09 160.76 128.47 161.71 121.46 C 163.50 118.09 162.41 114.14 162.75 110.50 C 162.09 110.20 160.77 109.59 160.11 109.29 C 160.95 107.91 162.84 106.88 162.67 105.05 C 162.76 99.72 162.63 94.39 162.71 89.06 C 163.11 85.05 160.65 81.59 160.07 77.73 C 158.77 71.69 154.52 66.95 150.89 62.15 C 148.52 59.80 146.47 57.17 145.07 54.12 C 142.74 52.69 140.62 50.95 138.24 49.60 C 134.28 47.42 131.83 43.42 128.30 40.70 C 125.65 38.73 123.01 36.75 120.24 34.95 C 118.64 34.51 117.21 33.67 115.87 32.72 C 115.45 32.58 114.61 32.31 114.19 32.17 C 112.40 31.49 110.47 31.44 108.58 31.37 C 107.92 30.70 107.26 30.03 106.60 29.35 C 95.74 29.40 84.88 29.43 74.02 29.34 M 69.93 83.77 C 69.31 84.37 68.69 84.98 68.08 85.58 C 65.37 86.09 62.90 87.38 60.94 89.31 C 59.12 89.15 57.31 88.93 55.51 88.67 C 56.56 90.18 57.56 91.72 58.50 93.31 C 59.94 93.28 61.38 93.26 62.83 93.22 C 64.42 92.03 66.26 92.10 68.07 92.71 C 64.45 94.68 59.92 95.32 56.08 93.59 C 55.17 94.96 54.18 96.27 53.18 97.57 C 52.57 97.52 51.35 97.42 50.74 97.38 C 47.69 101.98 43.68 105.77 39.76 109.61 C 39.79 111.34 39.80 113.07 39.82 114.80 C 40.59 115.52 41.36 116.24 42.13 116.96 C 42.12 117.58 42.09 118.82 42.08 119.44 C 45.35 119.43 48.61 119.42 51.87 119.41 C 56.01 121.33 59.93 124.12 61.37 128.67 C 63.91 129.83 66.39 131.10 68.86 132.41 C 69.54 131.20 70.21 130.00 70.87 128.79 C 73.11 127.40 75.30 125.95 77.56 124.59 C 80.49 124.66 83.43 124.66 86.37 124.60 C 89.62 126.80 93.62 128.38 95.32 132.21 C 95.91 131.06 96.48 129.91 97.04 128.75 C 97.48 128.73 98.36 128.69 98.79 128.67 C 98.70 129.00 98.50 129.67 98.40 130.01 C 97.37 130.86 96.34 131.72 95.32 132.59 C 96.60 134.27 96.76 136.30 96.68 138.33 C 97.17 139.36 97.65 140.40 98.11 141.45 C 102.58 141.43 107.04 141.40 111.51 141.50 C 108.52 137.33 107.11 132.41 107.14 127.31 C 102.36 123.28 99.09 117.86 96.71 112.14 C 96.37 108.15 96.65 104.13 96.60 100.13 C 92.88 96.91 91.48 91.63 87.16 89.04 C 84.08 87.11 81.21 84.76 77.80 83.42 C 75.18 83.64 72.56 83.81 69.93 83.77 M 167.54 106.74 C 166.96 107.35 166.38 107.97 165.80 108.58 C 166.24 114.75 164.13 120.75 164.78 126.94 C 166.17 128.78 167.47 130.69 168.82 132.56 C 174.45 129.11 178.84 124.03 182.76 118.79 C 182.22 118.33 181.13 117.39 180.58 116.92 C 180.56 115.06 180.67 113.18 180.43 111.33 C 177.94 109.43 174.95 108.35 172.24 106.81 C 170.67 106.79 169.10 106.77 167.54 106.74 M 36.64 128.65 C 36.73 130.90 36.77 133.16 36.73 135.42 C 38.36 139.55 42.19 141.83 46.04 143.55 C 47.55 143.53 49.06 143.50 50.57 143.46 C 49.26 140.59 48.30 136.73 50.62 134.12 C 52.14 134.13 53.66 134.14 55.18 134.15 C 56.74 135.77 58.27 137.42 59.80 139.07 C 57.72 141.14 55.56 143.14 53.02 144.65 C 52.36 144.65 51.03 144.65 50.37 144.66 C 48.78 146.04 46.95 145.86 45.21 144.90 C 43.52 144.60 41.88 144.13 40.31 143.48 C 38.12 141.37 35.98 139.18 34.54 136.47 C 34.60 134.48 34.63 132.50 34.60 130.51 C 33.67 131.41 32.76 132.34 31.87 133.29 C 28.77 138.52 25.44 143.82 24.04 149.81 C 26.85 152.75 28.51 156.44 30.44 159.96 C 30.45 160.48 30.45 161.53 30.46 162.05 C 31.55 163.95 33.08 165.50 35.17 166.25 C 35.32 166.72 35.62 167.65 35.78 168.12 C 34.86 167.80 33.03 167.18 32.12 166.86 C 36.75 174.70 45.31 178.30 53.14 182.05 C 54.99 182.55 56.74 183.31 58.48 184.13 C 59.62 184.51 60.74 184.95 61.84 185.45 C 65.54 185.48 69.25 185.48 72.95 185.44 C 73.99 186.15 75.05 186.84 76.09 187.56 C 87.58 187.45 99.09 187.72 110.56 187.43 C 114.34 184.34 118.48 181.74 122.37 178.81 C 123.63 176.05 125.55 173.75 127.61 171.56 C 128.57 169.50 129.01 167.24 129.36 165.01 C 129.60 164.64 130.07 163.92 130.30 163.55 C 130.25 160.34 130.23 157.14 130.33 153.93 C 132.89 154.14 135.46 154.16 138.03 154.16 C 137.06 153.09 136.08 152.05 135.05 151.05 C 133.71 150.75 132.39 150.36 131.13 149.82 C 126.61 149.91 121.65 150.17 117.97 147.02 C 115.72 146.79 114.27 145.06 112.80 143.54 C 108.27 143.58 103.72 143.69 99.19 143.43 C 99.48 144.04 100.05 145.27 100.34 145.88 C 103.64 148.31 108.06 147.56 111.31 149.89 C 109.77 150.55 107.61 151.30 106.63 149.37 C 103.75 148.63 100.19 148.71 98.34 145.87 L 98.46 145.35 C 99.09 144.37 98.12 143.67 97.54 143.03 C 96.33 145.21 95.34 147.50 94.04 149.63 C 92.37 152.08 89.59 153.33 87.39 155.20 C 86.19 155.17 84.99 155.15 83.79 155.12 C 83.41 155.42 82.64 156.00 82.26 156.30 C 79.44 155.16 76.34 154.80 73.72 153.18 C 70.39 151.54 68.83 148.02 67.23 144.89 C 67.29 141.46 67.17 138.03 67.25 134.60 C 65.45 133.73 63.66 132.85 61.85 132.00 C 61.15 134.16 60.86 136.43 59.89 138.50 C 59.24 137.01 58.80 135.45 58.43 133.88 C 58.82 133.49 59.60 132.70 60.00 132.31 C 58.80 127.74 56.28 123.59 51.85 121.54 C 49.15 121.58 46.44 121.59 43.73 121.53 C 40.62 123.06 38.14 125.52 36.64 128.65 M 76.02 128.11 C 71.47 129.89 68.89 135.11 69.27 139.83 C 69.86 139.31 70.45 138.79 71.04 138.26 C 72.39 138.25 73.74 138.28 75.09 138.33 C 77.32 138.07 77.69 140.79 78.80 142.14 C 78.73 143.98 78.93 145.87 78.48 147.68 C 76.85 148.93 74.88 149.63 73.10 150.62 C 75.83 152.22 78.81 153.42 81.93 154.00 C 84.25 153.46 86.62 152.87 88.72 151.69 C 91.32 149.97 93.02 147.28 94.79 144.78 C 94.22 144.07 93.65 143.37 93.09 142.66 C 93.93 141.61 94.78 140.56 95.63 139.52 C 94.59 138.11 94.40 136.40 94.40 134.71 C 92.77 131.10 89.56 128.73 86.18 126.90 C 82.78 126.78 79.05 126.17 76.02 128.11 M 52.84 142.79 C 53.94 141.62 55.04 140.45 56.10 139.26 C 55.00 138.14 53.91 137.02 52.81 135.90 C 50.53 137.87 52.34 140.44 52.84 142.79 M 70.16 143.99 C 70.66 145.43 71.35 146.81 71.95 148.21 C 73.77 147.19 75.61 146.16 77.15 144.72 C 75.97 143.02 74.76 141.33 73.36 139.81 C 72.32 141.20 70.65 142.24 70.16 143.99 Z" />
<path fill="#030303" opacity="1.00" d=" M 101.71 42.62 C 102.79 41.42 104.06 37.35 105.09 40.75 C 104.84 41.30 104.34 42.41 104.09 42.96 C 104.12 54.52 104.03 66.08 104.13 77.64 C 105.22 81.10 105.87 84.69 107.08 88.11 C 107.54 94.14 106.54 100.26 107.80 106.22 C 107.27 106.38 106.21 106.71 105.68 106.87 C 103.65 100.45 106.23 93.49 103.88 87.14 C 103.04 84.57 102.74 81.85 101.84 79.30 C 101.64 67.07 101.90 54.84 101.71 42.62 Z" />
<path fill="#030303" opacity="1.00" d=" M 69.12 51.99 C 70.18 50.88 71.88 51.60 73.20 51.41 C 72.26 53.17 70.74 54.43 68.94 55.25 C 66.50 58.64 65.79 62.65 66.07 66.76 C 64.72 65.91 63.56 64.84 62.56 63.61 C 64.43 59.60 65.46 54.86 69.12 51.99 Z" />
<path fill="#030303" opacity="1.00" d=" M 39.80 65.78 C 42.37 62.87 44.18 57.54 49.01 58.60 C 47.63 61.25 45.26 63.12 43.39 65.39 C 41.68 67.46 42.17 70.27 42.06 72.75 C 43.03 73.94 43.97 75.16 44.86 76.41 C 42.10 77.53 40.78 75.60 39.73 73.48 C 39.81 70.91 39.82 68.35 39.80 65.78 Z" />
<path fill="#030303" opacity="1.00" d=" M 133.31 82.67 C 134.38 82.67 135.45 82.68 136.52 82.69 C 136.52 85.22 136.50 87.74 136.49 90.27 C 138.24 93.75 140.82 97.07 140.86 101.13 C 137.20 100.15 136.38 96.00 135.06 92.97 C 133.63 89.71 133.08 86.21 133.31 82.67 Z" />
<path fill="#030303" opacity="1.00" d=" M 77.82 89.83 C 80.07 89.85 82.32 89.84 84.57 89.81 C 84.65 90.20 84.82 90.99 84.90 91.38 C 81.90 91.36 78.90 91.40 75.90 91.21 C 76.38 90.86 77.34 90.18 77.82 89.83 Z" />
<path fill="#030303" opacity="1.00" d=" M 52.83 98.75 C 55.16 97.96 57.48 98.46 59.49 99.77 C 62.01 101.56 64.81 99.33 67.52 99.40 C 67.94 99.08 68.77 98.43 69.19 98.10 C 70.21 98.50 71.21 98.93 72.21 99.38 C 74.55 99.41 76.90 99.43 79.22 99.75 C 82.21 99.41 85.28 99.16 88.23 99.93 C 87.02 100.31 85.79 100.61 84.56 100.90 C 84.27 101.08 83.71 101.43 83.42 101.61 C 78.30 101.71 73.38 100.02 68.22 100.68 C 63.20 103.38 57.55 100.93 52.83 98.75 Z" />
<path fill="#030303" opacity="1.00" d=" M 47.84 106.84 C 48.89 105.78 49.94 104.72 50.99 103.66 C 53.06 103.68 55.13 103.67 57.20 103.64 C 57.95 104.43 58.70 105.23 59.45 106.03 C 59.97 107.88 60.94 109.53 61.87 111.19 C 61.43 111.40 60.54 111.81 60.09 112.02 C 58.25 110.09 57.01 107.68 55.17 105.75 C 54.37 105.78 52.77 105.84 51.98 105.87 C 51.23 106.86 51.16 109.09 49.46 108.64 C 48.88 108.08 48.34 107.48 47.84 106.84 Z" />
<path fill="#030303" opacity="1.00" d=" M 78.33 111.45 C 78.45 107.87 82.53 107.46 84.89 105.77 C 85.82 105.75 87.69 105.70 88.63 105.68 C 91.80 108.61 94.71 111.82 96.75 115.65 C 94.43 116.55 93.12 114.33 91.59 113.05 C 91.46 112.54 91.21 111.53 91.09 111.02 C 89.73 110.26 88.38 109.51 87.06 108.70 C 83.69 108.22 81.59 111.41 78.33 111.45 Z" />
<path fill="#030303" opacity="1.00" d=" M 172.33 111.95 C 173.50 112.11 174.65 112.30 175.81 112.52 C 175.35 113.37 174.87 114.20 174.36 115.01 C 174.35 116.90 174.36 118.79 174.36 120.68 C 173.26 120.61 172.16 120.50 171.07 120.37 C 171.33 119.30 171.71 118.27 172.07 117.23 C 172.16 115.47 172.24 113.71 172.33 111.95 Z" />
<path fill="#030303" opacity="1.00" d=" M 148.23 128.19 C 148.69 127.96 149.63 127.49 150.09 127.25 C 149.70 131.43 150.94 135.32 152.58 139.09 C 154.77 141.29 156.73 143.94 159.67 145.21 C 162.29 146.02 165.02 146.42 167.75 146.70 C 167.75 146.98 167.74 147.55 167.74 147.83 C 167.06 147.83 165.70 147.82 165.02 147.81 C 164.05 148.23 163.06 148.58 162.05 148.87 C 157.66 147.26 153.42 144.93 150.45 141.22 C 148.94 137.06 146.85 132.72 148.23 128.19 Z" />
<path fill="#030303" opacity="1.00" d=" M 100.43 130.97 C 102.05 130.09 104.12 129.08 105.84 130.33 C 104.44 131.01 103.04 131.70 101.66 132.43 C 101.35 132.06 100.74 131.34 100.43 130.97 Z" />
<path fill="#030303" opacity="1.00" d=" M 98.30 137.28 C 99.10 136.38 99.92 135.48 100.75 134.60 C 101.24 135.06 102.23 135.96 102.72 136.41 C 103.47 136.33 104.98 136.16 105.73 136.07 C 105.76 136.43 105.81 137.14 105.84 137.50 C 103.32 137.43 100.81 137.37 98.30 137.28 Z" />
<path fill="#030303" opacity="1.00" d=" M 59.82 148.25 C 59.83 146.14 58.91 140.57 62.52 141.86 C 62.22 144.76 62.13 147.70 61.68 150.59 C 59.60 152.36 57.25 153.94 54.53 154.50 C 54.58 156.31 54.61 158.12 54.62 159.94 C 53.98 160.49 52.70 161.58 52.06 162.13 C 54.38 163.93 57.32 163.44 60.04 163.42 C 61.16 162.58 62.46 162.28 63.83 162.63 C 63.15 163.64 62.40 164.59 61.57 165.47 C 58.31 165.77 55.03 165.52 51.76 165.60 C 50.93 164.37 50.12 163.13 49.31 161.89 C 50.21 160.56 51.12 159.24 52.07 157.94 C 51.64 156.39 51.41 154.80 51.23 153.21 C 52.74 152.18 54.47 151.68 56.30 151.76 C 57.48 150.59 58.65 149.42 59.82 148.25 Z" />
<path fill="#030303" opacity="1.00" d=" M 104.89 164.89 C 106.46 162.26 105.60 159.16 106.08 156.29 C 106.46 157.83 106.74 159.39 106.91 160.97 C 107.20 160.25 107.79 158.81 108.08 158.10 L 109.34 156.32 C 109.74 160.20 107.40 163.68 108.29 167.62 C 107.25 169.71 105.92 171.65 104.14 173.18 C 101.42 175.57 99.49 178.62 97.24 181.41 C 95.45 181.35 93.67 181.30 91.89 181.25 C 91.57 181.54 90.94 182.13 90.62 182.43 C 87.54 182.21 84.34 182.72 81.33 182.16 C 78.07 178.73 74.02 176.29 69.87 174.07 C 69.16 171.20 68.07 168.46 67.18 165.64 C 68.33 166.63 69.41 167.71 70.42 168.86 C 70.47 167.11 69.94 165.18 71.26 163.76 C 71.48 165.50 71.52 167.26 71.55 169.02 C 72.04 170.31 72.44 171.62 72.94 172.91 C 75.66 175.18 80.11 175.43 81.51 179.15 C 84.85 178.71 88.25 181.37 91.30 179.20 C 92.08 179.20 93.63 179.21 94.40 179.21 C 95.50 178.67 96.61 178.15 97.72 177.64 C 97.69 177.07 97.61 175.93 97.57 175.37 C 100.40 173.32 102.67 170.71 104.93 168.07 C 104.91 167.01 104.89 165.95 104.89 164.89 Z" />
</g>
<g id="#bfbfbfff">
<path fill="#bfbfbf" opacity="1.00" d=" M 74.02 29.34 C 84.88 29.43 95.74 29.40 106.60 29.35 C 107.26 30.03 107.92 30.70 108.58 31.37 C 110.47 31.44 112.40 31.49 114.19 32.17 C 114.61 32.31 115.45 32.58 115.87 32.72 C 117.21 33.67 118.64 34.51 120.24 34.95 C 123.01 36.75 125.65 38.73 128.30 40.70 C 131.83 43.42 134.28 47.42 138.24 49.60 C 140.62 50.95 142.74 52.69 145.07 54.12 C 146.47 57.17 148.52 59.80 150.89 62.15 C 154.52 66.95 158.77 71.69 160.07 77.73 C 160.65 81.59 163.11 85.05 162.71 89.06 C 162.63 94.39 162.76 99.72 162.67 105.05 C 162.84 106.88 160.95 107.91 160.11 109.29 C 160.77 109.59 162.09 110.20 162.75 110.50 C 162.41 114.14 163.50 118.09 161.71 121.46 C 160.76 128.47 165.90 134.09 170.68 138.46 C 174.83 143.05 179.94 146.56 184.96 150.11 C 184.15 150.93 183.35 151.74 182.55 152.56 C 181.09 153.03 179.64 153.54 178.22 154.09 C 165.39 154.21 152.56 154.10 139.74 154.15 C 139.71 153.46 139.66 152.08 139.63 151.39 C 138.37 150.14 137.12 148.89 135.88 147.63 C 135.15 147.67 133.69 147.74 132.96 147.77 C 132.59 147.49 131.86 146.92 131.50 146.64 C 128.53 146.61 125.53 146.86 122.57 146.52 C 120.54 145.82 118.66 144.73 116.75 143.76 C 120.53 143.44 124.34 143.56 128.13 143.67 C 130.26 144.78 132.70 144.59 135.03 144.72 C 135.50 144.21 136.44 143.18 136.91 142.67 C 135.65 142.10 134.40 141.34 132.96 141.45 C 126.88 141.39 120.79 141.39 114.71 141.52 C 112.70 138.18 110.67 134.76 109.82 130.91 C 109.22 125.52 108.20 119.50 110.59 114.43 C 109.92 114.16 108.57 113.63 107.89 113.36 C 107.15 115.54 106.70 117.82 106.01 120.02 C 106.49 121.15 106.96 122.28 107.42 123.41 C 103.73 120.52 101.03 116.71 99.72 112.20 C 99.69 107.33 99.71 102.45 99.70 97.58 C 101.90 94.48 102.46 90.63 101.36 87.00 C 99.11 89.84 99.31 93.82 97.33 96.86 C 94.10 93.39 91.12 89.53 89.44 85.06 C 89.10 81.28 89.37 77.48 89.38 73.69 C 88.35 73.03 87.32 72.38 86.28 71.75 C 86.10 76.18 86.20 80.61 86.22 85.04 C 81.79 82.84 77.22 80.22 74.48 75.96 C 74.54 73.81 74.58 71.66 74.60 69.52 C 74.11 69.07 73.11 68.18 72.61 67.73 C 72.28 69.44 71.95 71.15 71.69 72.87 C 72.22 74.60 72.42 76.40 72.62 78.19 C 73.40 79.00 74.19 79.82 74.96 80.64 C 70.85 80.57 66.72 80.84 62.63 80.51 C 60.23 79.44 58.17 77.78 55.99 76.34 C 55.56 76.80 54.70 77.74 54.27 78.20 C 57.17 80.59 60.58 82.18 63.86 83.96 C 60.33 85.41 57.02 88.20 53.03 87.92 C 51.07 87.80 48.82 85.20 47.17 87.07 C 47.99 88.20 48.95 89.23 49.86 90.28 C 50.60 90.26 52.06 90.22 52.79 90.20 C 53.42 90.78 54.04 91.36 54.67 91.94 C 53.31 93.07 51.97 94.24 50.64 95.41 C 49.71 95.41 48.77 95.42 47.84 95.42 C 46.02 93.92 44.72 91.23 42.14 91.05 C 40.99 93.24 43.05 94.75 44.24 96.31 C 44.87 96.42 46.13 96.65 46.77 96.76 C 45.26 101.44 40.34 103.82 38.18 108.19 C 36.64 106.11 35.18 103.98 33.57 101.96 C 33.59 99.80 33.63 97.64 33.67 95.49 C 33.21 95.39 32.30 95.21 31.85 95.11 C 31.65 95.85 31.25 97.33 31.05 98.06 C 29.35 95.18 27.48 92.31 26.42 89.11 C 26.24 84.83 26.15 80.51 26.46 76.23 C 27.36 74.57 28.49 73.05 29.51 71.46 C 29.49 70.87 29.46 69.70 29.45 69.11 C 30.30 67.85 31.13 66.59 31.87 65.27 C 27.59 66.68 26.53 71.63 24.28 75.02 C 23.78 67.96 24.28 59.86 29.70 54.64 C 33.02 50.52 38.47 48.50 40.81 43.58 C 49.20 39.67 57.15 34.75 65.99 31.90 C 68.13 30.79 70.46 30.27 72.87 30.33 C 73.16 30.08 73.74 29.59 74.02 29.34 M 101.71 42.62 C 101.90 54.84 101.64 67.07 101.84 79.30 C 102.74 81.85 103.04 84.57 103.88 87.14 C 106.23 93.49 103.65 100.45 105.68 106.87 C 106.21 106.71 107.27 106.38 107.80 106.22 C 106.54 100.26 107.54 94.14 107.08 88.11 C 105.87 84.69 105.22 81.10 104.13 77.64 C 104.03 66.08 104.12 54.52 104.09 42.96 C 104.34 42.41 104.84 41.30 105.09 40.75 C 104.06 37.35 102.79 41.42 101.71 42.62 M 69.12 51.99 C 65.46 54.86 64.43 59.60 62.56 63.61 C 63.56 64.84 64.72 65.91 66.07 66.76 C 65.79 62.65 66.50 58.64 68.94 55.25 C 70.74 54.43 72.26 53.17 73.20 51.41 C 71.88 51.60 70.18 50.88 69.12 51.99 M 39.80 65.78 C 39.82 68.35 39.81 70.91 39.73 73.48 C 40.78 75.60 42.10 77.53 44.86 76.41 C 43.97 75.16 43.03 73.94 42.06 72.75 C 42.17 70.27 41.68 67.46 43.39 65.39 C 45.26 63.12 47.63 61.25 49.01 58.60 C 44.18 57.54 42.37 62.87 39.80 65.78 M 133.31 82.67 C 133.08 86.21 133.63 89.71 135.06 92.97 C 136.38 96.00 137.20 100.15 140.86 101.13 C 140.82 97.07 138.24 93.75 136.49 90.27 C 136.50 87.74 136.52 85.22 136.52 82.69 C 135.45 82.68 134.38 82.67 133.31 82.67 M 148.23 128.19 C 146.85 132.72 148.94 137.06 150.45 141.22 C 153.42 144.93 157.66 147.26 162.05 148.87 C 163.06 148.58 164.05 148.23 165.02 147.81 C 165.70 147.82 167.06 147.83 167.74 147.83 C 167.74 147.55 167.75 146.98 167.75 146.70 C 165.02 146.42 162.29 146.02 159.67 145.21 C 156.73 143.94 154.77 141.29 152.58 139.09 C 150.94 135.32 149.70 131.43 150.09 127.25 C 149.63 127.49 148.69 127.96 148.23 128.19 Z" />
<path fill="#bfbfbf" opacity="1.00" d=" M 167.54 106.74 C 169.10 106.77 170.67 106.79 172.24 106.81 C 174.95 108.35 177.94 109.43 180.43 111.33 C 180.67 113.18 180.56 115.06 180.58 116.92 C 181.13 117.39 182.22 118.33 182.76 118.79 C 178.84 124.03 174.45 129.11 168.82 132.56 C 167.47 130.69 166.17 128.78 164.78 126.94 C 164.13 120.75 166.24 114.75 165.80 108.58 C 166.38 107.97 166.96 107.35 167.54 106.74 M 172.33 111.95 C 172.24 113.71 172.16 115.47 172.07 117.23 C 171.71 118.27 171.33 119.30 171.07 120.37 C 172.16 120.50 173.26 120.61 174.36 120.68 C 174.36 118.79 174.35 116.90 174.36 115.01 C 174.87 114.20 175.35 113.37 175.81 112.52 C 174.65 112.30 173.50 112.11 172.33 111.95 Z" />
</g>
<g id="#fefefeff">
<path fill="#fefefe" opacity="1.00" d=" M 69.93 83.77 C 72.56 83.81 75.18 83.64 77.80 83.42 C 81.21 84.76 84.08 87.11 87.16 89.04 C 91.48 91.63 92.88 96.91 96.60 100.13 C 96.65 104.13 96.37 108.15 96.71 112.14 C 99.09 117.86 102.36 123.28 107.14 127.31 C 107.11 132.41 108.52 137.33 111.51 141.50 C 107.04 141.40 102.58 141.43 98.11 141.45 C 97.65 140.40 97.17 139.36 96.68 138.33 C 96.76 136.30 96.60 134.27 95.32 132.59 C 96.34 131.72 97.37 130.86 98.40 130.01 C 98.50 129.67 98.70 129.00 98.79 128.67 C 98.36 128.69 97.48 128.73 97.04 128.75 C 96.48 129.91 95.91 131.06 95.32 132.21 C 93.62 128.38 89.62 126.80 86.37 124.60 C 83.43 124.66 80.49 124.66 77.56 124.59 C 75.30 125.95 73.11 127.40 70.87 128.79 C 70.21 130.00 69.54 131.20 68.86 132.41 C 66.39 131.10 63.91 129.83 61.37 128.67 C 59.93 124.12 56.01 121.33 51.87 119.41 C 48.61 119.42 45.35 119.43 42.08 119.44 C 42.09 118.82 42.12 117.58 42.13 116.96 C 41.36 116.24 40.59 115.52 39.82 114.80 C 39.80 113.07 39.79 111.34 39.76 109.61 C 43.68 105.77 47.69 101.98 50.74 97.38 C 51.35 97.42 52.57 97.52 53.18 97.57 C 54.18 96.27 55.17 94.96 56.08 93.59 C 59.92 95.32 64.45 94.68 68.07 92.71 C 66.26 92.10 64.42 92.03 62.83 93.22 C 61.38 93.26 59.94 93.28 58.50 93.31 C 57.56 91.72 56.56 90.18 55.51 88.67 C 57.31 88.93 59.12 89.15 60.94 89.31 C 62.90 87.38 65.37 86.09 68.08 85.58 C 68.69 84.98 69.31 84.37 69.93 83.77 M 77.82 89.83 C 77.34 90.18 76.38 90.86 75.90 91.21 C 78.90 91.40 81.90 91.36 84.90 91.38 C 84.82 90.99 84.65 90.20 84.57 89.81 C 82.32 89.84 80.07 89.85 77.82 89.83 M 52.83 98.75 C 57.55 100.93 63.20 103.38 68.22 100.68 C 73.38 100.02 78.30 101.71 83.42 101.61 C 83.71 101.43 84.27 101.08 84.56 100.90 C 85.79 100.61 87.02 100.31 88.23 99.93 C 85.28 99.16 82.21 99.41 79.22 99.75 C 76.90 99.43 74.55 99.41 72.21 99.38 C 71.21 98.93 70.21 98.50 69.19 98.10 C 68.77 98.43 67.94 99.08 67.52 99.40 C 64.81 99.33 62.01 101.56 59.49 99.77 C 57.48 98.46 55.16 97.96 52.83 98.75 M 47.84 106.84 C 48.34 107.48 48.88 108.08 49.46 108.64 C 51.16 109.09 51.23 106.86 51.98 105.87 C 52.77 105.84 54.37 105.78 55.17 105.75 C 57.01 107.68 58.25 110.09 60.09 112.02 C 60.54 111.81 61.43 111.40 61.87 111.19 C 60.94 109.53 59.97 107.88 59.45 106.03 C 58.70 105.23 57.95 104.43 57.20 103.64 C 55.13 103.67 53.06 103.68 50.99 103.66 C 49.94 104.72 48.89 105.78 47.84 106.84 M 78.33 111.45 C 81.59 111.41 83.69 108.22 87.06 108.70 C 88.38 109.51 89.73 110.26 91.09 111.02 C 91.21 111.53 91.46 112.54 91.59 113.05 C 93.12 114.33 94.43 116.55 96.75 115.65 C 94.71 111.82 91.80 108.61 88.63 105.68 C 87.69 105.70 85.82 105.75 84.89 105.77 C 82.53 107.46 78.45 107.87 78.33 111.45 M 100.43 130.97 C 100.74 131.34 101.35 132.06 101.66 132.43 C 103.04 131.70 104.44 131.01 105.84 130.33 C 104.12 129.08 102.05 130.09 100.43 130.97 M 98.30 137.28 C 100.81 137.37 103.32 137.43 105.84 137.50 C 105.81 137.14 105.76 136.43 105.73 136.07 C 104.98 136.16 103.47 136.33 102.72 136.41 C 102.23 135.96 101.24 135.06 100.75 134.60 C 99.92 135.48 99.10 136.38 98.30 137.28 Z" />
<path fill="#fefefe" opacity="1.00" d=" M 36.64 128.65 C 38.14 125.52 40.62 123.06 43.73 121.53 C 46.44 121.59 49.15 121.58 51.85 121.54 C 56.28 123.59 58.80 127.74 60.00 132.31 C 59.60 132.70 58.82 133.49 58.43 133.88 C 58.80 135.45 59.24 137.01 59.89 138.50 C 60.86 136.43 61.15 134.16 61.85 132.00 C 63.66 132.85 65.45 133.73 67.25 134.60 C 67.17 138.03 67.29 141.46 67.23 144.89 C 68.83 148.02 70.39 151.54 73.72 153.18 C 76.34 154.80 79.44 155.16 82.26 156.30 C 82.64 156.00 83.41 155.42 83.79 155.12 C 84.99 155.15 86.19 155.17 87.39 155.20 C 89.59 153.33 92.37 152.08 94.04 149.63 C 95.34 147.50 96.33 145.21 97.54 143.03 C 98.12 143.67 99.09 144.37 98.46 145.35 L 98.34 145.87 C 100.19 148.71 103.75 148.63 106.63 149.37 C 107.61 151.30 109.77 150.55 111.31 149.89 C 108.06 147.56 103.64 148.31 100.34 145.88 C 100.05 145.27 99.48 144.04 99.19 143.43 C 103.72 143.69 108.27 143.58 112.80 143.54 C 114.27 145.06 115.72 146.79 117.97 147.02 C 121.65 150.17 126.61 149.91 131.13 149.82 C 132.39 150.36 133.71 150.75 135.05 151.05 C 136.08 152.05 137.06 153.09 138.03 154.16 C 135.46 154.16 132.89 154.14 130.33 153.93 C 130.23 157.14 130.25 160.34 130.30 163.55 C 130.07 163.92 129.60 164.64 129.36 165.01 C 129.01 167.24 128.57 169.50 127.61 171.56 C 125.55 173.75 123.63 176.05 122.37 178.81 C 118.48 181.74 114.34 184.34 110.56 187.43 C 99.09 187.72 87.58 187.45 76.09 187.56 C 75.05 186.84 73.99 186.15 72.95 185.44 C 69.25 185.48 65.54 185.48 61.84 185.45 C 60.74 184.95 59.62 184.51 58.48 184.13 C 56.74 183.31 54.99 182.55 53.14 182.05 C 45.31 178.30 36.75 174.70 32.12 166.86 C 33.03 167.18 34.86 167.80 35.78 168.12 C 35.62 167.65 35.32 166.72 35.17 166.25 C 33.08 165.50 31.55 163.95 30.46 162.05 C 30.45 161.53 30.45 160.48 30.44 159.96 C 28.51 156.44 26.85 152.75 24.04 149.81 C 25.44 143.82 28.77 138.52 31.87 133.29 C 32.76 132.34 33.67 131.41 34.60 130.51 C 34.63 132.50 34.60 134.48 34.54 136.47 C 35.98 139.18 38.12 141.37 40.31 143.48 C 41.88 144.13 43.52 144.60 45.21 144.90 C 46.95 145.86 48.78 146.04 50.37 144.66 C 51.03 144.65 52.36 144.65 53.02 144.65 C 55.56 143.14 57.72 141.14 59.80 139.07 C 58.27 137.42 56.74 135.77 55.18 134.15 C 53.66 134.14 52.14 134.13 50.62 134.12 C 48.30 136.73 49.26 140.59 50.57 143.46 C 49.06 143.50 47.55 143.53 46.04 143.55 C 42.19 141.83 38.36 139.55 36.73 135.42 C 36.77 133.16 36.73 130.90 36.64 128.65 M 59.82 148.25 C 58.65 149.42 57.48 150.59 56.30 151.76 C 54.47 151.68 52.74 152.18 51.23 153.21 C 51.41 154.80 51.64 156.39 52.07 157.94 C 51.12 159.24 50.21 160.56 49.31 161.89 C 50.12 163.13 50.93 164.37 51.76 165.60 C 55.03 165.52 58.31 165.77 61.57 165.47 C 62.40 164.59 63.15 163.64 63.83 162.63 C 62.46 162.28 61.16 162.58 60.04 163.42 C 57.32 163.44 54.38 163.93 52.06 162.13 C 52.70 161.58 53.98 160.49 54.62 159.94 C 54.61 158.12 54.58 156.31 54.53 154.50 C 57.25 153.94 59.60 152.36 61.68 150.59 C 62.13 147.70 62.22 144.76 62.52 141.86 C 58.91 140.57 59.83 146.14 59.82 148.25 M 104.89 164.89 C 104.89 165.95 104.91 167.01 104.93 168.07 C 102.67 170.71 100.40 173.32 97.57 175.37 C 97.61 175.93 97.69 177.07 97.72 177.64 C 96.61 178.15 95.50 178.67 94.40 179.21 C 93.63 179.21 92.08 179.20 91.30 179.20 C 88.25 181.37 84.85 178.71 81.51 179.15 C 80.11 175.43 75.66 175.18 72.94 172.91 C 72.44 171.62 72.04 170.31 71.55 169.02 C 71.52 167.26 71.48 165.50 71.26 163.76 C 69.94 165.18 70.47 167.11 70.42 168.86 C 69.41 167.71 68.33 166.63 67.18 165.64 C 68.07 168.46 69.16 171.20 69.87 174.07 C 74.02 176.29 78.07 178.73 81.33 182.16 C 84.34 182.72 87.54 182.21 90.62 182.43 C 90.94 182.13 91.57 181.54 91.89 181.25 C 93.67 181.30 95.45 181.35 97.24 181.41 C 99.49 178.62 101.42 175.57 104.14 173.18 C 105.92 171.65 107.25 169.71 108.29 167.62 C 107.40 163.68 109.74 160.20 109.34 156.32 L 108.08 158.10 C 107.79 158.81 107.20 160.25 106.91 160.97 C 106.74 159.39 106.46 157.83 106.08 156.29 C 105.60 159.16 106.46 162.26 104.89 164.89 Z" />
<path fill="#fefefe" opacity="1.00" d=" M 76.02 128.11 C 79.05 126.17 82.78 126.78 86.18 126.90 C 89.56 128.73 92.77 131.10 94.40 134.71 C 94.40 136.40 94.59 138.11 95.63 139.52 C 94.78 140.56 93.93 141.61 93.09 142.66 C 93.65 143.37 94.22 144.07 94.79 144.78 C 93.02 147.28 91.32 149.97 88.72 151.69 C 86.62 152.87 84.25 153.46 81.93 154.00 C 78.81 153.42 75.83 152.22 73.10 150.62 C 74.88 149.63 76.85 148.93 78.48 147.68 C 78.93 145.87 78.73 143.98 78.80 142.14 C 77.69 140.79 77.32 138.07 75.09 138.33 C 73.74 138.28 72.39 138.25 71.04 138.26 C 70.45 138.79 69.86 139.31 69.27 139.83 C 68.89 135.11 71.47 129.89 76.02 128.11 Z" />
<path fill="#fefefe" opacity="1.00" d=" M 52.84 142.79 C 52.34 140.44 50.53 137.87 52.81 135.90 C 53.91 137.02 55.00 138.14 56.10 139.26 C 55.04 140.45 53.94 141.62 52.84 142.79 Z" />
<path fill="#fefefe" opacity="1.00" d=" M 70.16 143.99 C 70.65 142.24 72.32 141.20 73.36 139.81 C 74.76 141.33 75.97 143.02 77.15 144.72 C 75.61 146.16 73.77 147.19 71.95 148.21 C 71.35 146.81 70.66 145.43 70.16 143.99 Z" />
</g>
</svg>
