<?xml version="1.0" encoding="UTF-8" ?>
<!DOCTYPE svg PUBLIC "-//W3C//DTD SVG 1.1//EN" "http://www.w3.org/Graphics/SVG/1.1/DTD/svg11.dtd">
<svg width="210pt" height="220pt" viewBox="0 0 210 220" version="1.1" xmlns="http://www.w3.org/2000/svg">
<g id="#020202fc">
<path fill="#020202" opacity="1.00" d=" M 67.84 28.73 C 68.94 28.30 70.04 27.86 71.14 27.40 C 82.43 27.35 93.72 27.41 105.01 27.35 C 107.30 27.22 109.53 27.76 111.63 28.64 C 118.14 31.25 124.97 33.88 129.93 39.04 C 132.43 41.70 135.20 44.08 138.16 46.20 C 138.56 46.24 139.36 46.32 139.76 46.36 C 143.79 50.27 148.34 53.69 151.56 58.38 C 155.32 61.94 157.85 66.45 160.53 70.83 C 160.53 71.38 160.54 72.49 160.54 73.05 C 161.03 73.44 162.00 74.21 162.49 74.60 C 162.14 79.41 164.51 83.68 165.57 88.22 C 165.95 93.68 165.65 99.17 165.62 104.64 C 167.41 104.42 169.26 103.26 171.06 103.98 C 175.66 105.71 180.18 107.98 183.73 111.46 C 183.63 112.44 183.54 113.43 183.44 114.42 C 184.60 113.72 185.72 113.69 186.79 114.32 C 186.16 119.54 182.27 123.43 179.03 127.24 C 176.18 129.94 172.83 132.15 170.10 134.93 C 176.16 139.76 181.90 144.99 187.78 150.04 C 186.93 151.29 186.10 152.55 185.28 153.82 C 183.32 154.69 181.42 155.82 179.26 156.08 C 172.03 156.62 164.73 155.55 157.54 156.68 C 152.01 156.05 146.43 156.15 140.87 156.19 C 140.58 157.19 140.29 158.18 140.00 159.18 C 139.87 158.48 139.60 157.07 139.46 156.37 C 138.88 156.13 137.70 155.63 137.12 155.38 C 137.22 154.74 137.41 153.47 137.51 152.84 C 135.49 151.69 133.39 150.71 131.29 149.74 C 126.61 150.10 121.64 149.96 117.79 146.90 C 117.35 146.81 116.47 146.63 116.03 146.54 C 114.51 145.26 112.97 144.01 111.38 142.84 C 111.35 142.49 111.30 141.79 111.27 141.44 C 108.81 137.12 106.68 132.41 107.08 127.30 C 102.31 123.25 99.24 117.77 96.53 112.23 C 96.03 107.38 98.27 101.48 94.43 97.58 C 92.26 94.77 90.59 91.45 87.62 89.35 C 84.48 87.09 81.17 85.07 77.73 83.28 C 75.26 83.62 72.76 83.77 70.26 83.91 C 67.15 85.73 63.74 87.03 60.83 89.19 C 58.93 89.11 57.04 89.00 55.15 88.90 C 56.06 89.91 56.97 90.92 57.89 91.93 C 56.23 93.74 54.68 95.64 53.11 97.53 C 52.52 97.49 51.34 97.42 50.75 97.38 C 47.37 102.68 42.18 106.44 38.72 111.66 C 35.15 110.35 33.87 106.45 31.72 103.65 C 29.02 98.53 23.92 94.14 24.21 87.91 C 23.95 83.89 23.29 79.91 22.43 75.98 C 22.12 71.17 22.06 66.31 22.42 61.51 C 24.77 55.13 30.17 50.55 35.13 46.17 C 38.63 42.47 42.63 39.14 47.46 37.36 C 53.00 35.38 57.95 32.12 63.45 30.07 C 64.91 29.62 66.38 29.19 67.84 28.73 M 73.91 29.34 C 73.71 29.57 73.29 30.05 73.09 30.29 C 68.65 30.08 64.85 32.62 60.73 33.81 C 53.98 36.79 47.52 40.37 40.87 43.55 C 38.41 48.43 33.04 50.56 29.67 54.67 C 24.24 59.91 23.81 68.00 24.24 75.07 C 25.96 71.87 27.77 68.72 29.82 65.72 C 30.34 65.77 31.39 65.87 31.91 65.92 C 31.06 66.95 30.20 67.97 29.34 68.99 C 29.40 69.62 29.51 70.86 29.57 71.48 C 28.52 73.06 27.45 74.62 26.30 76.12 C 26.39 80.42 26.15 84.71 26.40 89.00 C 27.42 92.27 29.35 95.17 31.06 98.11 C 31.26 97.36 31.65 95.85 31.85 95.10 C 32.31 95.21 33.22 95.43 33.68 95.53 C 33.63 97.66 33.58 99.79 33.55 101.91 C 35.15 103.96 36.63 106.10 38.18 108.18 C 40.37 104.68 43.25 101.72 46.28 98.93 C 46.30 98.14 46.31 97.36 46.33 96.58 C 45.78 96.51 44.67 96.39 44.12 96.33 C 42.75 94.66 41.80 92.72 41.51 90.56 C 44.12 91.48 46.00 93.52 47.90 95.42 C 48.65 95.41 50.13 95.40 50.87 95.40 C 52.59 93.65 54.34 91.93 56.06 90.18 C 53.99 90.17 51.92 90.20 49.86 90.25 C 48.78 88.99 47.72 87.71 46.70 86.42 C 49.67 86.24 52.26 88.37 55.22 87.91 C 58.26 86.99 60.99 85.29 63.86 83.95 C 60.59 82.19 57.20 80.57 54.28 78.24 C 54.71 77.76 55.55 76.82 55.98 76.34 C 58.18 77.78 60.26 79.49 62.70 80.52 C 66.80 80.83 70.92 80.59 75.03 80.62 C 74.23 79.79 73.43 78.97 72.62 78.16 C 72.42 76.33 72.18 74.51 71.71 72.74 C 71.99 71.07 72.30 69.41 72.63 67.75 C 73.29 68.34 73.95 68.93 74.61 69.53 C 74.57 71.70 74.54 73.87 74.48 76.04 C 77.28 80.24 81.83 82.82 86.23 85.04 C 86.20 80.60 86.11 76.16 86.30 71.72 C 87.33 72.33 88.35 72.99 89.35 73.67 C 89.31 77.48 89.32 81.30 89.27 85.11 C 91.42 89.39 93.94 93.53 97.44 96.86 C 98.97 93.58 99.74 90.03 101.06 86.68 C 102.60 90.32 101.96 94.41 99.69 97.58 C 99.69 102.50 99.72 107.43 99.67 112.36 C 99.87 112.71 100.29 113.43 100.50 113.79 C 101.29 117.93 104.51 120.76 107.45 123.47 C 106.98 122.32 106.50 121.16 106.01 120.02 C 106.71 117.78 107.17 115.48 107.92 113.27 C 108.67 113.63 110.15 114.37 110.89 114.74 C 110.48 115.28 109.64 116.37 109.22 116.92 C 109.35 120.90 109.08 124.89 109.43 128.86 C 110.55 135.10 113.52 141.58 119.07 145.03 C 122.79 147.51 127.37 146.52 131.55 146.58 C 131.89 146.88 132.57 147.48 132.91 147.79 C 133.65 147.75 135.12 147.67 135.86 147.63 C 137.11 148.89 138.38 150.15 139.65 151.39 C 139.66 152.08 139.67 153.46 139.67 154.15 C 152.50 154.11 165.34 154.20 178.17 154.10 C 179.62 153.54 181.08 153.03 182.56 152.56 C 183.36 151.75 184.16 150.93 184.96 150.12 C 177.18 144.81 169.76 138.71 164.16 131.07 C 163.84 130.68 163.21 129.89 162.89 129.50 C 162.23 126.85 161.62 124.19 161.40 121.47 C 161.74 121.11 162.41 120.37 162.75 120.00 C 162.68 116.83 162.67 113.65 162.75 110.48 C 162.10 110.20 160.80 109.63 160.15 109.35 C 160.95 108.25 161.91 107.26 162.58 106.07 C 162.87 100.37 162.59 94.65 162.71 88.94 C 163.05 85.00 160.73 81.57 160.04 77.80 C 158.82 71.72 154.55 66.98 150.92 62.19 C 148.55 59.83 146.50 57.20 145.11 54.15 C 142.77 52.72 140.64 50.97 138.26 49.61 C 134.27 47.39 131.79 43.37 128.22 40.64 C 126.15 39.11 124.09 37.56 121.95 36.15 C 121.52 35.75 120.67 34.95 120.24 34.55 C 119.68 34.56 118.55 34.59 117.99 34.60 C 117.54 34.09 116.65 33.08 116.20 32.58 C 115.73 32.50 114.78 32.34 114.30 32.26 C 112.45 31.57 110.48 31.44 108.53 31.31 C 107.87 30.65 107.21 30.00 106.56 29.34 C 95.68 29.41 84.80 29.42 73.91 29.34 M 167.53 106.75 C 166.95 107.35 166.38 107.95 165.81 108.55 C 166.23 114.73 164.17 120.72 164.76 126.91 C 166.15 128.77 167.46 130.69 168.82 132.57 C 174.44 129.09 178.85 124.03 182.77 118.78 C 182.23 118.32 181.14 117.40 180.59 116.94 C 180.57 115.06 180.67 113.18 180.42 111.32 C 177.93 109.41 174.93 108.33 172.21 106.80 C 170.65 106.78 169.09 106.77 167.53 106.75 Z" />
<path fill="#020202" opacity="1.00" d=" M 104.10 38.92 C 105.12 40.24 104.71 41.72 104.14 43.12 C 104.04 54.61 104.08 66.11 104.12 77.60 C 104.77 79.68 105.26 81.81 105.81 83.92 C 106.18 85.37 106.59 86.81 107.10 88.22 C 107.34 94.50 106.89 100.81 107.61 107.08 C 106.32 106.43 104.68 105.71 104.92 103.95 C 104.64 99.33 105.22 94.68 104.70 90.08 C 103.27 84.84 101.54 79.53 101.75 74.03 C 101.78 63.61 101.82 53.18 101.73 42.75 C 102.51 41.47 103.30 40.19 104.10 38.92 Z" />
<path fill="#020202" opacity="1.00" d=" M 62.59 63.91 C 64.64 58.99 66.07 51.90 72.31 50.88 C 72.38 51.47 72.53 52.64 72.60 53.22 C 71.37 53.87 70.14 54.51 68.90 55.13 C 66.62 58.64 65.73 62.64 66.08 66.80 C 64.88 65.88 63.71 64.92 62.59 63.91 Z" />
<path fill="#020202" opacity="1.00" d=" M 39.80 65.80 C 42.37 62.83 44.25 57.50 49.14 58.62 C 47.53 61.13 45.28 63.11 43.41 65.40 C 41.69 67.44 42.18 70.22 42.02 72.68 C 43.02 73.91 43.97 75.17 44.89 76.47 C 42.20 77.43 40.83 75.59 39.74 73.55 C 39.81 70.97 39.81 68.38 39.80 65.80 Z" />
<path fill="#020202" opacity="1.00" d=" M 133.29 82.69 C 134.37 82.68 135.44 82.68 136.52 82.69 C 136.52 85.21 136.50 87.73 136.48 90.26 C 138.16 93.88 141.36 97.33 140.50 101.60 C 136.71 98.80 135.42 94.06 133.99 89.81 C 133.14 87.53 133.38 85.07 133.29 82.69 Z" />
<path fill="#020202" opacity="1.00" d=" M 172.34 112.07 C 173.41 112.11 174.49 112.17 175.57 112.23 C 174.19 114.89 174.30 117.88 174.25 120.78 C 173.16 120.63 172.09 120.46 171.02 120.26 C 171.30 119.21 171.70 118.19 172.10 117.18 C 172.17 115.48 172.25 113.77 172.34 112.07 Z" />
<path fill="#020202" opacity="1.00" d=" M 148.39 128.32 C 148.81 128.01 149.65 127.39 150.06 127.08 C 149.71 131.32 150.90 135.31 152.59 139.14 C 154.78 141.30 156.73 143.91 159.62 145.18 C 162.28 146.03 165.07 146.44 167.85 146.75 C 167.82 147.00 167.76 147.52 167.74 147.77 C 167.08 147.79 165.77 147.83 165.11 147.85 C 164.10 148.26 163.07 148.59 162.02 148.83 C 157.65 147.28 153.50 144.90 150.49 141.31 C 149.11 137.19 146.62 132.67 148.39 128.32 Z" />
</g>
<g id="#bfbfbfff">
<path fill="#bfbfbf" opacity="1.00" d=" M 73.91 29.34 C 84.80 29.42 95.68 29.41 106.56 29.34 C 107.21 30.00 107.87 30.65 108.53 31.31 C 110.48 31.44 112.45 31.57 114.30 32.26 C 114.78 32.34 115.73 32.50 116.20 32.58 C 116.65 33.08 117.54 34.09 117.99 34.60 C 118.55 34.59 119.68 34.56 120.24 34.55 C 120.67 34.95 121.52 35.75 121.95 36.15 C 124.09 37.56 126.15 39.11 128.22 40.64 C 131.79 43.37 134.27 47.39 138.26 49.61 C 140.64 50.97 142.77 52.72 145.11 54.15 C 146.50 57.20 148.55 59.83 150.92 62.19 C 154.55 66.98 158.82 71.72 160.04 77.80 C 160.73 81.57 163.05 85.00 162.71 88.94 C 162.59 94.65 162.87 100.37 162.58 106.07 C 161.91 107.26 160.95 108.25 160.15 109.35 C 160.80 109.63 162.10 110.20 162.75 110.48 C 162.67 113.65 162.68 116.83 162.75 120.00 C 162.41 120.37 161.74 121.11 161.40 121.47 C 161.62 124.19 162.23 126.85 162.89 129.50 C 163.21 129.89 163.84 130.68 164.16 131.07 C 169.76 138.71 177.18 144.81 184.96 150.12 C 184.16 150.93 183.36 151.75 182.56 152.56 C 181.08 153.03 179.62 153.54 178.17 154.10 C 165.34 154.20 152.50 154.11 139.67 154.15 C 139.67 153.46 139.66 152.08 139.65 151.39 C 138.38 150.15 137.11 148.89 135.86 147.63 C 135.12 147.67 133.65 147.75 132.91 147.79 C 132.57 147.48 131.89 146.88 131.55 146.58 C 127.37 146.52 122.79 147.51 119.07 145.03 C 113.52 141.58 110.55 135.10 109.43 128.86 C 109.08 124.89 109.35 120.90 109.22 116.92 C 109.64 116.37 110.48 115.28 110.89 114.74 C 110.15 114.37 108.67 113.63 107.92 113.27 C 107.17 115.48 106.71 117.78 106.01 120.02 C 106.50 121.16 106.98 122.32 107.45 123.47 C 104.51 120.76 101.29 117.93 100.50 113.79 C 100.29 113.43 99.87 112.71 99.67 112.36 C 99.72 107.43 99.69 102.50 99.69 97.58 C 101.96 94.41 102.60 90.32 101.06 86.68 C 99.74 90.03 98.97 93.58 97.44 96.86 C 93.94 93.53 91.42 89.39 89.27 85.11 C 89.32 81.30 89.31 77.48 89.35 73.67 C 88.35 72.99 87.33 72.33 86.30 71.72 C 86.11 76.16 86.20 80.60 86.23 85.04 C 81.83 82.82 77.28 80.24 74.48 76.04 C 74.54 73.87 74.57 71.70 74.61 69.53 C 73.95 68.93 73.29 68.34 72.63 67.75 C 72.30 69.41 71.99 71.07 71.71 72.74 C 72.18 74.51 72.42 76.33 72.62 78.16 C 73.43 78.97 74.23 79.79 75.03 80.62 C 70.92 80.59 66.80 80.83 62.70 80.52 C 60.26 79.49 58.18 77.78 55.98 76.34 C 55.55 76.82 54.71 77.76 54.28 78.24 C 57.20 80.57 60.59 82.19 63.86 83.95 C 60.99 85.29 58.26 86.99 55.22 87.91 C 52.26 88.37 49.67 86.24 46.70 86.42 C 47.72 87.71 48.78 88.99 49.86 90.25 C 51.92 90.20 53.99 90.17 56.06 90.18 C 54.34 91.93 52.59 93.65 50.87 95.40 C 50.13 95.40 48.65 95.41 47.90 95.42 C 46.00 93.52 44.12 91.48 41.51 90.56 C 41.80 92.72 42.75 94.66 44.12 96.33 C 44.67 96.39 45.78 96.51 46.33 96.58 C 46.31 97.36 46.30 98.14 46.28 98.93 C 43.25 101.72 40.37 104.68 38.18 108.18 C 36.63 106.10 35.15 103.96 33.55 101.91 C 33.58 99.79 33.63 97.66 33.68 95.53 C 33.22 95.43 32.31 95.21 31.85 95.10 C 31.65 95.85 31.26 97.36 31.06 98.11 C 29.35 95.17 27.42 92.27 26.40 89.00 C 26.15 84.71 26.39 80.42 26.30 76.12 C 27.45 74.62 28.52 73.06 29.57 71.48 C 29.51 70.86 29.40 69.62 29.34 68.99 C 30.20 67.97 31.06 66.95 31.91 65.92 C 31.39 65.87 30.34 65.77 29.82 65.72 C 27.77 68.72 25.96 71.87 24.24 75.07 C 23.81 68.00 24.24 59.91 29.67 54.67 C 33.04 50.56 38.41 48.43 40.87 43.55 C 47.52 40.37 53.98 36.79 60.73 33.81 C 64.85 32.62 68.65 30.08 73.09 30.29 C 73.29 30.05 73.71 29.57 73.91 29.34 M 104.10 38.92 C 103.30 40.19 102.51 41.47 101.73 42.75 C 101.82 53.18 101.78 63.61 101.75 74.03 C 101.54 79.53 103.27 84.84 104.70 90.08 C 105.22 94.68 104.64 99.33 104.92 103.95 C 104.68 105.71 106.32 106.43 107.61 107.08 C 106.89 100.81 107.34 94.50 107.10 88.22 C 106.59 86.81 106.18 85.37 105.81 83.92 C 105.26 81.81 104.77 79.68 104.12 77.60 C 104.08 66.11 104.04 54.61 104.14 43.12 C 104.71 41.72 105.12 40.24 104.10 38.92 M 62.59 63.91 C 63.71 64.92 64.88 65.88 66.08 66.80 C 65.73 62.64 66.62 58.64 68.90 55.13 C 70.14 54.51 71.37 53.87 72.60 53.22 C 72.53 52.64 72.38 51.47 72.31 50.88 C 66.07 51.90 64.64 58.99 62.59 63.91 M 39.80 65.80 C 39.81 68.38 39.81 70.97 39.74 73.55 C 40.83 75.59 42.20 77.43 44.89 76.47 C 43.97 75.17 43.02 73.91 42.02 72.68 C 42.18 70.22 41.69 67.44 43.41 65.40 C 45.28 63.11 47.53 61.13 49.14 58.62 C 44.25 57.50 42.37 62.83 39.80 65.80 M 133.29 82.69 C 133.38 85.07 133.14 87.53 133.99 89.81 C 135.42 94.06 136.71 98.80 140.50 101.60 C 141.36 97.33 138.16 93.88 136.48 90.26 C 136.50 87.73 136.52 85.21 136.52 82.69 C 135.44 82.68 134.37 82.68 133.29 82.69 M 148.39 128.32 C 146.62 132.67 149.11 137.19 150.49 141.31 C 153.50 144.90 157.65 147.28 162.02 148.83 C 163.07 148.59 164.10 148.26 165.11 147.85 C 165.77 147.83 167.08 147.79 167.74 147.77 C 167.76 147.52 167.82 147.00 167.85 146.75 C 165.07 146.44 162.28 146.03 159.62 145.18 C 156.73 143.91 154.78 141.30 152.59 139.14 C 150.90 135.31 149.71 131.32 150.06 127.08 C 149.65 127.39 148.81 128.01 148.39 128.32 Z" />
<path fill="#bfbfbf" opacity="1.00" d=" M 167.53 106.75 C 169.09 106.77 170.65 106.78 172.21 106.80 C 174.93 108.33 177.93 109.41 180.42 111.32 C 180.67 113.18 180.57 115.06 180.59 116.94 C 181.14 117.40 182.23 118.32 182.77 118.78 C 178.85 124.03 174.44 129.09 168.82 132.57 C 167.46 130.69 166.15 128.77 164.76 126.91 C 164.17 120.72 166.23 114.73 165.81 108.55 C 166.38 107.95 166.95 107.35 167.53 106.75 M 172.34 112.07 C 172.25 113.77 172.17 115.48 172.10 117.18 C 171.70 118.19 171.30 119.21 171.02 120.26 C 172.09 120.46 173.16 120.63 174.25 120.78 C 174.30 117.88 174.19 114.89 175.57 112.23 C 174.49 112.17 173.41 112.11 172.34 112.07 Z" />
</g>
</svg>
