<?xml version="1.0" encoding="UTF-8" ?>
<!DOCTYPE svg PUBLIC "-//W3C//DTD SVG 1.1//EN" "http://www.w3.org/Graphics/SVG/1.1/DTD/svg11.dtd">
<svg width="210pt" height="220pt" viewBox="0 0 210 220" version="1.1" xmlns="http://www.w3.org/2000/svg">
<g id="#fefefeff">
<path fill="#fefefe" opacity="1.00" d=" M 1.00 0.00 L 208.00 0.00 C 208.00 73.33 208.00 146.67 208.00 220.00 L 54.16 220.00 C 51.21 214.52 48.66 208.65 44.06 204.29 C 43.78 203.99 43.20 203.40 42.91 203.10 C 38.31 198.47 35.89 192.30 33.26 186.45 C 32.72 186.51 31.66 186.63 31.13 186.68 C 32.47 191.58 35.43 195.73 37.95 200.06 C 39.64 202.75 40.03 206.02 41.70 208.72 C 43.55 212.06 45.62 215.52 49.17 217.31 C 48.02 214.37 46.54 211.60 45.11 208.80 C 47.52 212.38 49.45 216.26 51.60 220.00 L 1.00 220.00 C 1.00 146.67 1.00 73.33 1.00 0.00 M 73.75 2.76 C 72.86 5.61 72.15 8.54 70.93 11.27 C 67.55 11.77 64.98 8.80 62.07 7.52 C 59.08 7.57 56.05 7.07 53.09 7.68 C 48.28 8.91 44.00 11.51 39.64 13.80 C 39.71 14.44 39.84 15.72 39.91 16.36 C 34.33 17.52 28.87 19.64 24.88 23.87 C 25.87 24.49 26.46 25.35 26.64 26.43 C 25.46 26.52 24.28 26.59 23.10 26.62 C 21.29 29.07 18.45 30.03 15.60 30.62 C 15.59 31.10 15.58 32.04 15.57 32.52 C 18.24 33.23 20.98 33.62 23.75 33.52 C 21.17 35.83 18.54 38.06 15.97 40.37 C 17.10 40.39 19.36 40.43 20.49 40.45 C 17.49 44.56 13.47 47.85 10.90 52.29 C 11.71 52.33 13.34 52.40 14.16 52.44 C 12.49 56.88 8.51 60.51 8.55 65.50 C 7.34 66.82 6.02 68.04 4.62 69.16 C 4.58 69.42 4.51 69.95 4.47 70.22 C 5.33 70.65 6.19 71.08 7.05 71.51 C 8.34 71.43 9.63 71.35 10.92 71.28 C 9.72 73.18 8.65 75.17 7.83 77.26 C 9.84 76.82 11.68 74.50 13.79 75.20 C 14.35 77.53 10.90 78.40 9.55 79.86 C 9.39 80.30 9.08 81.17 8.92 81.61 C 10.41 81.46 11.90 81.33 13.39 81.20 C 13.43 81.97 13.50 83.51 13.54 84.28 C 14.16 84.73 14.77 85.18 15.39 85.63 C 14.77 81.94 15.21 78.06 18.37 75.64 C 15.22 76.20 14.87 72.07 17.23 70.82 C 17.31 70.44 17.48 69.68 17.57 69.31 C 15.74 70.57 13.85 71.92 11.51 71.86 C 13.44 69.57 15.43 67.30 16.88 64.67 C 14.17 65.91 11.56 67.39 8.69 68.26 C 10.63 66.34 12.95 64.82 14.73 62.75 C 16.04 60.46 16.81 57.91 17.91 55.51 C 17.14 55.57 15.62 55.68 14.85 55.74 C 15.36 55.01 16.37 53.54 16.88 52.80 C 20.17 52.49 23.08 50.88 25.11 48.29 C 22.44 48.83 19.88 49.77 17.28 50.57 C 18.55 48.69 20.25 47.19 22.07 45.86 C 22.51 44.76 22.95 43.67 23.37 42.57 C 23.17 41.98 22.76 40.80 22.56 40.21 C 24.22 37.12 26.14 34.18 27.91 31.16 C 27.53 30.75 26.76 29.95 26.38 29.55 C 27.56 28.37 28.82 27.27 29.83 25.95 C 29.37 24.93 28.88 23.92 28.36 22.94 C 32.42 21.35 36.45 19.69 40.52 18.11 C 40.40 17.45 40.18 16.14 40.06 15.48 C 43.68 15.35 46.92 13.75 49.86 11.77 C 52.83 9.70 56.45 9.07 59.90 8.24 C 62.37 11.19 65.90 12.71 69.36 14.14 C 66.56 14.16 63.75 14.13 60.95 13.99 C 56.60 16.64 51.62 18.37 47.88 21.93 C 44.89 25.24 42.11 28.76 38.77 31.74 C 36.42 33.91 33.48 35.86 32.85 39.24 C 42.05 34.75 46.95 24.87 55.79 19.86 C 59.39 17.11 63.99 16.84 68.33 17.15 C 70.63 17.66 72.91 18.28 75.10 19.15 C 77.33 19.31 79.57 19.33 81.81 19.49 C 83.13 20.40 84.71 20.63 86.25 20.86 C 86.75 21.17 87.74 21.77 88.23 22.08 C 88.34 22.63 88.57 23.73 88.68 24.28 C 89.44 24.44 90.95 24.76 91.71 24.92 C 91.37 26.33 90.97 27.72 90.52 29.09 C 89.83 29.50 88.44 30.34 87.75 30.75 C 87.09 30.51 85.77 30.02 85.10 29.78 C 82.57 28.68 79.79 28.19 77.11 29.08 C 74.12 30.74 70.77 31.85 68.15 34.10 C 64.49 38.02 61.40 42.51 59.31 47.46 C 60.15 48.55 60.98 49.66 61.77 50.79 C 59.98 52.10 58.30 53.55 56.70 55.09 C 56.32 55.22 55.56 55.48 55.18 55.61 C 54.01 54.69 52.83 53.79 51.64 52.92 C 52.15 51.18 52.61 49.43 52.99 47.66 C 49.47 49.13 48.18 53.05 45.79 55.74 C 45.74 56.19 45.64 57.08 45.58 57.53 C 46.05 57.52 46.98 57.49 47.44 57.48 C 48.30 56.55 49.16 55.62 50.03 54.69 C 50.49 56.23 50.98 57.77 51.51 59.30 C 48.75 60.73 47.44 64.98 43.94 64.55 C 43.56 63.46 43.17 62.37 42.79 61.28 C 42.16 61.27 40.90 61.26 40.27 61.25 C 40.63 63.65 41.09 66.04 41.63 68.41 C 40.12 69.40 39.04 70.88 37.80 72.18 C 37.64 74.40 36.91 76.93 38.48 78.83 C 40.23 81.73 43.09 83.65 46.00 85.26 C 49.01 85.80 52.07 85.57 55.11 85.66 C 58.43 86.09 62.18 87.66 65.18 85.43 C 65.52 84.80 66.18 83.55 66.52 82.93 C 66.19 82.36 65.53 81.21 65.21 80.64 C 64.80 80.58 63.97 80.47 63.56 80.41 C 63.65 81.80 63.72 83.19 63.78 84.58 C 61.31 84.54 58.84 84.42 56.37 84.40 C 55.77 82.65 55.56 80.81 55.54 78.97 C 56.22 78.80 57.58 78.45 58.26 78.28 C 58.59 77.96 59.26 77.34 59.60 77.02 C 59.31 76.66 58.73 75.92 58.44 75.55 C 57.47 75.13 56.51 74.70 55.54 74.27 C 55.47 74.96 55.33 76.34 55.25 77.03 C 54.60 77.65 53.96 78.26 53.31 78.88 L 54.16 78.49 C 54.32 79.50 54.63 81.53 54.78 82.54 C 53.53 82.21 51.04 81.55 49.79 81.22 C 47.63 80.02 45.54 78.67 43.95 76.76 L 43.55 76.43 C 43.53 74.32 43.56 72.22 43.42 70.12 C 42.11 72.26 41.99 74.92 42.59 77.31 C 44.15 80.03 46.69 82.04 49.67 83.01 L 49.50 84.11 C 44.14 83.43 38.69 78.64 39.42 72.86 C 40.38 71.88 41.34 70.90 42.34 69.97 L 42.39 69.39 L 43.11 69.43 C 45.00 68.40 47.02 67.66 48.98 66.79 C 49.20 66.54 49.62 66.04 49.84 65.79 C 50.05 65.49 50.46 64.90 50.67 64.61 L 51.00 64.45 C 51.99 63.03 53.07 61.67 54.28 60.42 C 54.61 63.00 54.76 65.61 55.35 68.14 C 55.56 69.67 55.70 71.21 55.86 72.74 C 56.99 72.20 58.40 71.75 58.78 70.40 C 62.13 67.89 59.63 64.26 57.38 62.06 C 57.31 60.58 57.24 59.10 57.16 57.62 C 58.97 55.66 61.21 54.18 63.84 53.58 C 66.00 54.24 68.17 54.85 70.33 55.54 C 75.77 55.74 81.18 54.82 86.36 53.20 C 90.24 52.42 91.72 48.29 93.49 45.25 C 93.48 43.45 93.45 41.66 93.41 39.86 C 92.17 37.72 90.98 35.54 89.94 33.29 C 91.95 33.31 93.96 33.46 95.94 33.85 C 97.31 34.57 98.71 35.24 100.17 35.78 C 102.21 36.93 106.08 37.78 105.51 40.82 C 104.81 42.37 103.82 43.78 103.02 45.27 C 102.46 44.71 101.36 43.59 100.80 43.03 C 99.67 43.72 98.59 44.48 97.53 45.28 C 97.53 47.32 97.51 49.36 97.51 51.41 C 95.98 51.57 94.46 51.76 92.94 51.96 C 93.42 52.05 94.37 52.24 94.84 52.34 L 94.52 53.31 C 95.03 53.34 96.05 53.38 96.56 53.41 L 96.36 52.35 C 96.87 52.37 97.90 52.42 98.41 52.44 C 98.40 51.93 98.38 50.92 98.37 50.42 L 99.32 50.47 C 99.35 49.77 99.40 48.37 99.42 47.68 C 100.83 46.37 102.20 44.41 104.34 45.68 C 104.63 47.29 104.81 48.91 104.89 50.55 L 103.47 50.44 L 103.55 52.44 L 105.61 52.55 L 105.34 51.27 C 105.89 51.33 106.99 51.47 107.54 51.54 C 107.52 51.91 107.49 52.67 107.47 53.05 C 104.94 53.97 102.55 55.67 101.98 58.47 L 101.84 58.29 C 100.74 63.63 98.77 68.74 97.31 73.99 C 98.32 75.20 99.33 76.42 100.34 77.63 L 98.05 77.49 C 98.04 80.50 100.09 82.54 102.36 84.17 C 102.45 83.62 102.61 82.54 102.69 82.00 C 101.66 80.91 100.63 79.81 99.60 78.72 C 104.54 79.53 106.06 73.31 110.75 72.77 C 110.71 71.80 110.65 70.84 110.59 69.88 C 110.60 69.54 110.63 68.86 110.64 68.51 C 111.06 68.48 111.88 68.41 112.30 68.37 C 113.16 69.94 114.02 71.51 114.82 73.11 C 113.50 74.54 112.06 75.84 110.44 76.93 L 110.72 77.19 C 108.98 77.66 107.28 78.25 105.57 78.83 C 105.60 79.90 105.63 80.98 105.68 82.06 C 106.84 80.95 107.98 79.83 109.05 78.63 C 109.55 78.54 110.56 78.35 111.07 78.25 C 112.36 77.77 113.66 77.31 114.97 76.86 C 116.97 82.62 120.29 88.75 117.93 94.90 C 116.32 97.23 114.06 98.99 111.94 100.84 C 110.68 101.35 109.41 101.83 108.15 102.33 C 107.46 102.38 106.06 102.47 105.37 102.52 C 105.35 102.99 105.33 103.92 105.31 104.39 C 106.25 104.42 108.12 104.49 109.06 104.52 C 107.82 105.43 106.56 106.33 105.30 107.21 C 103.94 107.51 102.58 107.85 101.23 108.20 C 101.27 108.91 101.33 110.33 101.36 111.04 C 102.65 110.53 103.94 110.02 105.21 109.47 C 107.02 108.92 108.51 107.67 110.05 106.62 C 110.49 106.56 111.36 106.44 111.79 106.37 C 111.81 110.96 109.31 115.51 111.19 120.03 C 111.72 124.34 112.61 128.61 112.93 132.96 C 113.36 134.27 113.74 135.60 114.18 136.92 C 114.45 140.03 115.23 143.06 115.86 146.11 C 116.38 147.76 116.63 149.47 116.87 151.18 C 117.81 153.56 118.78 155.92 119.77 158.27 L 117.62 156.87 C 117.31 158.12 117.05 159.39 116.82 160.66 L 117.96 160.04 C 119.20 162.32 120.40 164.64 121.19 167.12 C 121.55 169.75 121.69 172.47 120.79 175.02 C 120.50 181.88 121.15 188.82 122.48 195.54 L 122.90 195.65 C 123.44 196.85 124.10 197.99 124.88 199.07 C 124.88 196.47 124.17 193.98 123.34 191.55 C 124.79 191.59 126.24 191.61 127.69 191.62 C 127.59 190.22 127.46 188.83 127.31 187.45 C 125.95 187.90 124.59 188.36 123.23 188.83 C 123.44 184.50 123.56 180.16 123.64 175.83 C 124.20 174.21 124.71 172.57 125.41 171.01 C 125.51 170.22 125.60 169.42 125.66 168.63 C 128.01 166.20 127.23 162.67 126.93 159.68 C 125.26 148.88 125.30 137.80 127.73 127.12 C 132.12 133.33 136.04 139.89 141.20 145.51 C 146.16 150.86 149.51 157.39 153.98 163.11 C 157.93 168.50 161.25 175.10 167.44 178.20 C 167.44 177.58 167.43 176.32 167.42 175.70 C 164.36 172.70 161.58 169.41 159.26 165.80 C 155.48 160.56 151.64 155.37 148.07 149.99 C 145.04 145.40 140.93 141.66 137.89 137.09 C 134.91 132.60 131.89 128.09 128.18 124.16 C 128.04 123.72 127.77 122.84 127.63 122.40 L 126.20 122.54 C 126.33 122.03 126.59 121.01 126.73 120.50 L 125.71 120.62 C 125.46 119.98 124.96 118.70 124.71 118.06 C 124.17 117.05 123.65 116.02 122.97 115.09 C 122.16 109.44 118.25 105.04 116.43 99.74 C 119.55 97.00 122.72 93.31 121.23 88.87 C 128.93 83.12 138.95 84.19 147.96 84.70 C 150.78 86.55 154.16 87.78 156.21 90.59 C 157.53 92.14 158.58 94.03 160.44 95.00 L 159.21 94.53 C 159.95 95.56 160.74 96.57 161.57 97.55 C 162.26 98.42 165.27 101.31 165.02 98.36 C 163.81 96.34 162.76 93.57 165.58 92.37 C 167.96 94.09 170.39 95.78 173.11 96.94 C 175.85 97.92 178.55 99.04 181.39 99.73 C 184.39 101.86 187.26 104.26 190.96 105.04 C 196.10 107.04 199.61 111.52 204.42 113.94 C 204.42 112.07 204.35 109.71 202.38 108.81 C 193.55 103.65 184.62 98.42 174.87 95.19 C 171.43 93.53 168.45 91.15 165.58 88.66 C 163.79 87.97 161.97 87.37 160.15 86.74 C 159.10 86.43 158.06 86.10 157.02 85.75 C 154.65 84.93 152.26 84.17 149.94 83.21 C 147.75 82.22 145.29 82.37 142.96 82.08 C 139.98 81.51 136.93 81.68 133.92 81.70 C 129.20 82.27 124.91 84.33 120.84 86.68 C 120.27 85.06 119.67 83.46 119.15 81.83 C 117.98 78.94 116.18 76.17 116.38 72.93 C 116.48 71.11 115.12 69.72 114.31 68.21 C 113.31 66.27 111.96 64.25 112.59 61.95 C 112.70 59.11 114.37 55.59 111.62 53.46 C 111.62 53.35 111.62 53.12 111.61 53.00 C 110.24 51.99 108.89 50.96 107.50 49.99 C 107.34 47.68 107.23 45.36 107.23 43.05 C 109.03 41.86 111.00 40.79 112.36 39.06 C 112.96 36.76 112.60 34.36 112.17 32.07 C 109.44 26.97 104.79 20.80 98.19 22.64 C 94.75 25.17 90.78 23.14 89.12 19.70 C 86.88 18.88 84.65 18.01 82.36 17.33 C 79.13 14.90 74.87 15.48 71.09 15.04 C 74.39 12.69 75.72 7.68 80.04 7.02 C 79.13 8.99 78.16 10.94 77.13 12.85 C 78.20 12.63 79.27 12.41 80.34 12.19 C 80.59 8.99 80.64 5.79 80.58 2.59 C 80.13 2.54 79.22 2.43 78.77 2.37 C 77.88 4.63 76.87 6.84 75.69 8.96 C 75.56 6.83 75.49 4.70 75.41 2.58 C 74.99 2.62 74.16 2.72 73.75 2.76 M 58.38 31.35 C 54.30 34.30 54.40 39.79 53.25 44.20 C 57.38 43.12 59.79 39.47 62.67 36.64 C 64.37 34.77 66.47 33.18 67.60 30.86 C 65.34 28.33 60.72 29.23 58.38 31.35 M 34.92 41.42 C 35.43 41.44 36.45 41.48 36.96 41.50 C 38.01 40.20 39.07 38.90 40.14 37.61 C 40.17 40.19 40.29 42.80 41.20 45.24 C 40.09 47.97 40.23 50.94 42.70 52.87 C 45.57 50.96 49.57 48.91 48.52 44.74 C 47.69 44.73 46.03 44.71 45.20 44.70 C 45.27 44.20 45.40 43.21 45.46 42.72 C 45.10 42.71 44.36 42.70 43.99 42.70 C 43.60 40.29 42.60 38.10 41.15 36.16 C 39.07 37.91 36.98 39.65 34.92 41.42 M 28.88 48.75 C 28.62 50.07 28.35 51.38 28.08 52.70 C 28.62 52.65 29.68 52.55 30.22 52.51 C 30.65 51.54 31.08 50.57 31.52 49.61 C 32.91 48.80 34.30 47.99 35.70 47.19 C 35.11 46.08 36.03 43.04 33.98 43.67 C 31.54 44.28 27.01 45.43 28.88 48.75 M 35.27 53.29 C 32.39 54.76 30.69 60.11 35.00 60.97 C 35.13 59.46 35.32 57.96 35.59 56.46 C 37.85 55.62 40.55 55.33 41.51 52.71 C 39.45 52.72 37.11 52.00 35.27 53.29 M 89.46 55.06 C 88.95 59.37 88.90 63.92 90.22 68.09 C 90.45 69.76 92.14 70.29 93.36 71.06 C 92.77 65.05 92.46 59.02 92.41 52.99 C 91.34 53.54 89.50 53.48 89.46 55.06 M 24.83 61.75 C 24.67 62.22 24.34 63.14 24.17 63.61 C 26.14 63.46 28.11 63.31 30.08 63.16 C 30.25 62.77 30.59 61.99 30.76 61.60 C 28.78 61.65 26.81 61.70 24.83 61.75 M 51.26 66.16 L 51.01 66.94 C 51.30 67.28 51.88 67.97 52.17 68.32 L 53.14 67.82 C 53.32 66.19 52.69 65.64 51.26 66.16 M 25.66 72.10 C 26.17 73.95 25.80 75.83 25.41 77.66 C 25.93 77.60 26.99 77.49 27.51 77.43 C 29.46 73.55 32.66 70.58 35.21 67.12 C 31.43 67.34 28.38 69.69 25.66 72.10 M 84.60 67.73 C 84.07 71.20 84.55 74.68 86.30 77.76 C 86.87 77.73 88.01 77.68 88.58 77.65 C 87.75 74.39 87.34 71.04 87.22 67.67 C 86.34 67.69 85.47 67.71 84.60 67.73 M 46.42 72.26 C 45.69 75.00 47.51 76.83 49.39 78.47 C 49.88 78.48 50.86 78.50 51.36 78.51 C 51.49 77.15 51.63 75.80 51.78 74.45 C 49.47 75.32 47.61 74.29 46.42 72.26 M 93.52 81.22 C 95.40 84.74 98.08 87.93 101.68 89.78 C 101.77 90.04 101.95 90.55 102.05 90.80 C 102.16 90.23 102.38 89.08 102.50 88.51 L 101.33 88.74 L 101.27 88.05 C 98.95 85.62 97.08 82.78 96.09 79.55 L 95.40 79.54 L 95.53 77.26 C 94.86 78.58 94.21 79.91 93.52 81.22 M 20.41 80.71 C 22.03 81.89 23.84 83.24 25.98 82.75 C 27.85 82.72 28.17 80.50 29.11 79.29 C 26.20 79.65 23.30 80.15 20.41 80.71 M 34.44 80.42 C 34.44 82.07 34.44 83.71 34.45 85.36 C 36.35 85.81 38.25 86.25 40.16 86.67 C 38.95 84.48 37.53 82.43 36.17 80.34 C 35.74 80.36 34.87 80.40 34.44 80.42 M 106.20 86.97 C 108.83 86.06 111.33 84.52 112.37 81.80 C 109.25 81.87 106.23 83.52 106.20 86.97 M 16.13 92.22 C 16.93 93.37 17.92 94.37 18.84 95.43 C 19.20 95.48 19.92 95.59 20.28 95.64 C 20.68 94.32 21.09 93.00 21.50 91.68 C 24.69 91.47 27.44 89.80 29.26 87.21 C 26.05 87.63 23.29 89.38 20.54 90.95 C 21.46 87.80 22.02 84.39 19.98 81.51 C 19.34 85.30 18.02 88.88 16.13 92.22 M 46.28 86.78 C 46.39 88.21 46.54 89.63 46.71 91.06 C 46.18 92.20 45.64 93.35 45.11 94.50 C 45.78 94.52 47.13 94.56 47.80 94.58 C 50.35 92.02 49.32 88.35 46.28 86.78 M 93.53 87.00 C 94.26 89.54 94.79 92.14 94.67 94.79 C 95.53 94.59 96.39 94.40 97.25 94.21 C 97.33 93.34 97.41 92.47 97.49 91.60 C 96.51 90.54 95.53 89.48 94.53 88.44 C 94.28 88.08 93.78 87.36 93.53 87.00 M 51.55 88.74 C 51.54 89.23 51.54 90.21 51.53 90.70 C 52.24 90.64 53.66 90.52 54.37 90.46 C 54.69 91.15 55.35 92.53 55.68 93.22 C 55.00 93.56 53.63 94.25 52.95 94.60 C 53.84 95.75 54.74 96.89 55.64 98.03 C 55.08 99.29 54.52 100.56 53.97 101.83 C 53.70 103.38 53.41 104.94 52.95 106.45 C 50.01 106.93 48.19 104.66 46.80 102.45 C 44.93 102.48 43.06 102.54 41.19 102.60 C 39.08 101.63 36.91 100.79 34.73 100.00 C 34.62 98.38 34.53 96.76 34.36 95.15 C 32.15 97.12 29.53 98.46 26.53 98.74 C 25.99 97.02 26.44 94.33 24.06 94.01 C 23.62 95.84 23.15 97.66 22.65 99.47 C 25.45 99.81 28.28 100.05 31.03 100.69 C 31.19 101.27 31.52 102.44 31.68 103.02 C 31.98 102.57 32.57 101.66 32.87 101.20 C 36.43 103.52 40.48 106.55 44.96 104.88 C 46.95 107.08 49.24 108.99 51.93 110.29 L 52.42 108.50 C 52.29 109.38 52.03 111.13 51.90 112.00 C 51.57 114.33 51.76 117.05 49.77 118.72 C 44.67 123.59 39.20 128.15 34.80 133.71 C 32.06 137.58 28.58 140.83 25.77 144.63 C 25.49 146.23 26.02 148.29 24.54 149.43 C 20.02 153.81 16.52 159.28 14.03 165.03 C 13.68 169.16 13.00 173.27 12.39 177.38 C 13.74 179.08 14.54 182.41 12.59 183.80 C 12.53 181.77 12.34 179.75 12.10 177.74 C 11.50 180.86 11.73 184.03 11.72 187.18 C 11.96 186.35 12.37 185.64 12.96 185.04 L 13.52 184.50 C 15.17 179.54 14.49 174.13 16.16 169.14 C 15.76 164.47 18.78 160.73 21.01 156.96 C 25.23 150.17 32.28 146.03 37.35 140.00 L 37.34 139.33 L 38.60 139.69 L 38.61 139.02 C 39.43 138.23 40.23 137.42 41.01 136.60 L 41.19 136.68 C 41.55 136.30 42.28 135.53 42.64 135.14 L 42.63 135.02 C 44.15 133.78 45.54 132.40 46.91 131.00 C 47.10 130.59 47.48 129.77 47.67 129.35 L 48.23 129.53 C 49.07 124.78 50.31 130.85 50.42 132.03 C 51.01 140.67 50.17 149.36 50.54 158.02 C 51.68 158.42 52.82 158.84 53.96 159.27 C 57.62 159.36 61.28 159.32 64.94 159.30 C 63.95 162.17 62.83 164.99 61.77 167.82 C 61.57 168.84 61.36 169.86 61.14 170.87 C 60.54 172.40 59.59 174.53 61.04 175.88 C 65.44 180.50 69.79 185.21 74.56 189.46 C 78.74 192.31 81.80 196.52 86.25 199.00 L 86.48 199.52 C 87.07 199.52 88.25 199.51 88.84 199.51 C 88.67 199.17 88.33 198.51 88.16 198.18 C 84.29 195.61 81.36 191.93 77.72 189.08 C 72.14 184.96 67.96 179.30 62.35 175.21 C 62.44 174.41 62.60 172.80 62.69 171.99 C 63.68 169.75 64.31 167.39 65.11 165.08 C 66.32 162.30 67.30 159.42 68.08 156.49 C 63.15 156.62 58.23 156.80 53.30 156.72 C 53.68 151.47 52.41 146.29 52.77 141.04 C 53.38 139.08 53.39 137.02 53.30 134.98 C 52.15 131.78 52.15 128.20 53.23 124.98 C 53.43 121.24 53.61 117.49 53.66 113.75 C 54.02 110.87 54.90 108.11 55.62 105.32 C 56.21 103.77 56.79 102.21 57.35 100.66 C 58.06 103.30 58.48 106.02 58.70 108.75 L 59.57 108.82 C 59.64 109.87 59.76 110.91 59.93 111.96 C 60.42 113.56 60.82 115.18 61.27 116.79 C 61.61 118.12 61.99 119.44 62.39 120.75 C 63.47 123.89 64.65 126.99 65.73 130.13 C 67.05 133.11 68.43 136.07 69.82 139.03 C 71.19 142.34 72.64 145.62 74.31 148.79 C 74.82 149.89 75.33 150.98 75.83 152.09 C 77.05 155.15 78.51 158.11 79.86 161.11 C 80.82 163.13 81.77 165.16 82.69 167.20 C 83.23 168.07 83.78 168.93 84.34 169.80 C 85.83 173.59 88.00 177.14 88.89 181.15 C 89.34 182.40 89.77 183.66 90.23 184.92 C 90.83 186.59 91.43 188.26 92.04 189.93 C 92.67 191.30 93.31 192.68 93.93 194.07 C 94.85 196.73 95.77 199.40 96.76 202.05 L 97.15 202.63 C 97.81 205.98 99.03 209.50 101.95 211.54 C 101.52 208.02 100.42 204.60 98.64 201.53 C 98.59 200.33 98.15 199.19 97.74 198.08 C 97.62 197.52 97.38 196.41 97.26 195.85 C 94.80 190.74 92.44 185.57 90.92 180.09 C 90.63 179.07 90.34 178.06 90.05 177.05 C 89.62 176.07 89.18 175.10 88.74 174.13 C 87.24 171.03 85.65 167.98 84.20 164.85 C 83.05 162.62 81.90 160.38 80.69 158.18 C 78.36 154.04 81.15 149.60 80.55 145.22 C 82.99 146.53 85.46 147.80 88.06 148.80 C 90.06 149.57 92.05 150.35 94.05 151.11 C 95.38 151.36 96.72 151.58 98.05 151.83 C 100.51 152.75 103.08 153.26 105.66 153.68 L 105.63 154.30 C 106.99 154.36 108.35 154.42 109.71 154.48 L 109.54 155.29 C 110.19 155.31 111.50 155.36 112.15 155.39 C 113.72 156.54 115.30 157.65 116.84 158.85 C 116.31 154.09 111.98 151.34 108.58 148.55 C 102.88 144.53 98.00 139.47 92.13 135.66 C 84.80 129.11 76.42 123.56 70.68 115.42 C 66.98 110.03 62.27 105.19 59.69 99.12 C 60.21 95.89 60.72 92.67 60.66 89.39 C 60.21 89.39 59.31 89.39 58.87 89.38 C 58.75 90.17 58.51 91.75 58.40 92.53 C 57.50 90.91 56.62 89.28 55.76 87.64 C 54.36 88.01 52.95 88.38 51.55 88.74 M 123.34 91.53 C 123.33 91.83 123.30 92.42 123.29 92.71 C 123.86 92.64 124.99 92.49 125.55 92.42 L 125.43 93.36 C 129.03 93.43 132.63 93.46 136.23 93.59 C 133.58 97.76 130.50 101.68 126.85 105.02 C 126.77 105.35 126.60 106.00 126.52 106.33 C 127.16 106.46 128.44 106.73 129.09 106.87 C 130.19 107.21 131.31 107.48 132.44 107.74 C 133.79 108.11 135.14 108.46 136.51 108.80 L 136.43 109.45 C 137.21 109.46 138.77 109.47 139.55 109.48 L 139.49 110.21 C 141.18 110.54 143.22 110.29 144.30 111.92 C 145.18 115.61 145.99 119.32 147.05 122.97 C 147.57 122.16 148.06 121.33 148.52 120.48 C 147.64 116.96 146.60 113.47 146.15 109.86 C 145.12 109.45 144.09 109.02 143.07 108.59 C 141.52 108.46 139.97 108.37 138.42 108.30 L 138.51 107.46 C 137.75 107.45 136.25 107.41 135.50 107.40 L 135.47 106.58 C 134.14 106.50 132.81 106.43 131.48 106.35 L 131.45 105.56 L 129.12 105.40 C 132.69 101.09 137.60 97.42 138.77 91.61 C 133.63 91.42 128.48 91.47 123.34 91.53 M 111.11 93.58 C 109.46 93.69 107.82 93.79 106.18 93.89 C 106.74 96.79 109.43 96.56 111.80 96.20 C 112.65 95.46 113.52 94.74 114.39 94.02 C 114.04 93.62 113.33 92.82 112.97 92.42 C 112.35 92.80 111.73 93.19 111.11 93.58 M 39.18 95.21 C 42.05 97.08 44.86 99.21 48.25 100.04 C 46.46 96.96 43.04 93.38 39.18 95.21 M 84.50 101.27 L 84.63 102.57 C 84.25 102.64 83.47 102.79 83.08 102.86 C 85.61 104.41 88.26 106.00 91.36 105.32 C 91.37 104.53 91.37 103.74 91.38 102.95 C 89.60 102.73 87.83 102.47 86.07 102.14 C 85.68 101.93 84.89 101.49 84.50 101.27 M 75.09 102.69 C 77.66 106.46 80.85 109.91 82.03 114.45 C 83.37 114.51 84.70 114.55 86.04 114.58 C 84.19 109.89 80.84 106.07 77.47 102.42 C 76.87 102.49 75.68 102.63 75.09 102.69 M 167.21 107.70 C 168.25 113.61 172.03 118.61 175.74 123.17 C 175.37 117.12 171.34 111.86 167.21 107.70 M 175.18 108.55 C 176.67 116.05 178.67 123.47 178.88 131.16 C 181.29 127.93 180.44 123.70 180.05 119.98 C 179.31 115.92 178.95 111.07 175.18 108.55 M 188.02 109.23 C 188.20 115.90 190.77 122.22 193.82 128.06 C 194.72 130.12 196.75 131.18 198.75 131.94 C 194.97 136.05 190.75 140.20 189.17 145.72 C 193.93 145.22 197.95 142.40 202.07 140.22 C 203.54 139.68 203.79 138.07 204.35 136.81 C 200.33 138.13 196.90 140.68 193.02 142.31 C 195.90 137.54 200.80 133.89 201.93 128.19 C 200.90 129.19 199.88 130.20 198.86 131.22 C 194.22 124.82 191.63 117.21 190.22 109.49 C 189.67 109.42 188.57 109.29 188.02 109.23 M 151.92 116.14 C 155.61 121.75 160.06 127.01 162.33 133.41 C 157.93 129.31 155.65 123.37 150.94 119.62 C 153.55 127.22 158.95 133.36 163.97 139.47 C 166.20 139.24 168.29 139.84 169.88 141.46 C 168.09 137.91 166.35 134.31 164.14 130.99 C 161.20 126.53 158.96 121.59 155.49 117.50 C 154.69 116.30 153.14 116.46 151.92 116.14 M 75.40 118.39 C 77.30 120.74 80.08 121.98 82.73 123.29 C 84.73 123.96 86.74 124.60 88.79 125.13 C 88.68 124.60 88.47 123.54 88.36 123.01 C 84.75 121.95 81.27 120.43 78.09 118.43 C 77.41 118.42 76.07 118.40 75.40 118.39 M 163.19 119.34 C 164.72 122.50 167.00 125.20 169.98 127.08 C 170.67 126.89 172.04 126.51 172.73 126.32 C 171.97 124.10 171.06 121.94 170.12 119.80 C 169.64 119.62 168.67 119.27 168.19 119.10 C 168.51 120.28 169.15 122.64 169.48 123.82 C 167.23 122.55 165.13 121.04 163.19 119.34 M 147.50 124.42 C 148.77 127.91 149.62 131.55 151.26 134.89 C 152.95 140.01 154.96 145.01 157.20 149.92 C 158.18 152.26 159.18 154.60 160.27 156.90 C 161.57 159.51 162.91 162.11 164.27 164.69 C 164.82 165.76 165.40 166.82 166.00 167.87 C 166.76 169.03 167.50 170.20 167.95 171.53 L 168.78 171.21 C 168.87 171.56 169.07 172.27 169.16 172.62 C 169.20 172.12 169.27 171.12 169.30 170.62 L 168.53 170.67 C 168.09 169.28 167.64 167.90 167.24 166.51 L 166.42 166.45 C 166.49 165.98 166.63 165.04 166.70 164.56 L 165.85 164.40 C 165.63 163.82 165.20 162.65 164.98 162.06 C 163.92 160.08 162.91 158.07 161.85 156.10 C 161.30 154.67 160.72 153.26 160.18 151.84 C 159.39 149.93 158.60 148.03 157.79 146.13 C 156.56 142.76 155.20 139.43 153.94 136.06 C 153.36 134.68 152.77 133.31 152.20 131.93 C 151.78 130.94 151.36 129.95 150.95 128.95 C 150.30 126.64 149.64 124.33 149.00 122.01 C 148.49 122.81 147.99 123.62 147.50 124.42 M 39.39 190.64 C 45.90 198.69 52.16 207.03 56.86 216.30 C 57.34 216.35 58.29 216.45 58.76 216.51 C 56.20 208.20 50.93 201.18 45.87 194.25 C 43.34 190.91 40.82 187.51 37.59 184.80 C 36.47 187.08 37.96 189.01 39.39 190.64 Z" />
<path fill="#fefefe" opacity="1.00" d=" M 57.04 38.28 C 57.98 35.18 60.13 32.50 63.35 31.65 C 61.78 34.30 59.63 36.59 57.04 38.28 Z" />
<path fill="#fefefe" opacity="1.00" d=" M 66.42 38.02 C 66.46 36.57 68.45 35.70 69.63 36.38 C 69.53 36.87 69.31 37.85 69.21 38.34 C 68.05 39.21 67.12 39.10 66.42 38.02 Z" />
<path fill="#fefefe" opacity="1.00" d=" M 71.48 36.17 C 72.00 36.16 73.03 36.12 73.55 36.10 C 72.81 37.97 72.57 39.95 72.60 41.94 C 73.65 44.14 75.98 46.13 75.76 48.68 C 75.28 48.68 74.34 48.69 73.87 48.69 C 72.77 46.50 71.73 44.27 70.94 41.94 C 70.79 41.14 70.63 40.35 70.47 39.55 L 71.49 39.60 C 71.49 38.74 71.49 37.03 71.48 36.17 Z" />
<path fill="#fefefe" opacity="1.00" d=" M 74.93 39.52 C 75.56 39.54 76.81 39.58 77.43 39.60 L 77.40 40.65 L 78.34 40.44 C 78.49 41.64 78.66 42.84 78.83 44.04 C 79.94 44.65 81.05 45.26 82.18 45.86 C 82.57 46.27 83.35 47.10 83.75 47.51 C 84.04 47.83 84.63 48.45 84.92 48.76 C 84.34 48.81 83.16 48.91 82.58 48.95 C 77.97 48.49 75.23 43.77 74.93 39.52 Z" />
<path fill="#fefefe" opacity="1.00" d=" M 102.16 58.90 C 104.32 56.43 107.12 54.69 110.29 53.88 C 110.02 54.66 109.48 56.22 109.21 57.00 C 106.90 57.78 104.60 58.64 102.16 58.90 Z" />
<path fill="#fefefe" opacity="1.00" d=" M 114.33 127.03 C 112.59 119.04 112.55 110.61 114.97 102.75 C 116.30 105.43 117.55 108.19 119.46 110.53 C 118.38 111.40 117.30 112.28 116.24 113.18 C 117.17 117.85 123.56 116.37 124.93 120.69 C 126.81 125.35 123.72 130.19 123.44 134.94 C 123.11 141.90 123.26 148.91 123.86 155.86 C 124.96 160.03 124.75 164.43 124.07 168.66 C 123.21 165.21 122.27 161.78 121.24 158.39 L 120.77 158.72 C 119.07 148.06 116.09 137.67 114.33 127.03 Z" />
<path fill="#fefefe" opacity="1.00" d=" M 61.23 106.23 C 66.94 112.77 70.79 120.91 77.67 126.39 C 88.33 134.80 98.26 144.15 109.53 151.75 C 109.61 152.19 109.77 153.08 109.85 153.52 L 107.38 153.43 L 107.52 152.73 C 105.65 152.19 103.81 151.53 102.02 150.78 C 100.97 150.62 99.93 150.46 98.88 150.31 C 96.27 149.48 93.61 148.85 90.99 148.05 C 89.63 147.41 88.27 146.78 86.88 146.21 C 84.89 145.17 82.94 144.06 81.02 142.89 C 80.69 142.81 80.03 142.65 79.70 142.56 C 78.46 145.45 78.56 148.60 78.35 151.68 C 76.93 149.62 75.78 147.40 74.67 145.16 C 73.82 143.09 72.92 141.04 71.93 139.02 C 71.16 137.43 70.41 135.83 69.67 134.22 C 68.63 131.41 67.53 128.61 66.37 125.84 C 65.75 124.56 65.14 123.27 64.50 121.99 C 64.54 121.63 64.61 120.90 64.64 120.54 L 63.79 120.64 C 63.64 118.75 63.47 116.84 62.85 115.03 C 62.64 114.01 62.43 112.98 62.22 111.96 C 61.54 110.12 61.21 108.21 61.23 106.23 Z" />
<path fill="#fefefe" opacity="1.00" d=" M 31.90 139.91 C 37.83 133.13 44.37 126.94 50.70 120.54 C 50.69 121.71 50.66 124.04 50.64 125.21 C 47.41 128.78 43.82 131.99 40.49 135.46 C 37.18 139.06 32.94 141.64 29.82 145.44 C 29.13 145.48 27.74 145.55 27.05 145.59 C 28.48 143.54 30.15 141.68 31.90 139.91 Z" />
</g>
<g id="#858785ff">
<path fill="#858785" opacity="1.00" d=" M 73.75 2.76 C 74.16 2.72 74.99 2.62 75.41 2.58 C 75.49 4.70 75.56 6.83 75.69 8.96 C 76.87 6.84 77.88 4.63 78.77 2.37 C 79.22 2.43 80.13 2.54 80.58 2.59 C 80.64 5.79 80.59 8.99 80.34 12.19 C 79.27 12.41 78.20 12.63 77.13 12.85 C 78.16 10.94 79.13 8.99 80.04 7.02 C 75.72 7.68 74.39 12.69 71.09 15.04 C 74.87 15.48 79.13 14.90 82.36 17.33 C 77.73 16.42 73.03 16.03 68.37 15.36 L 68.33 17.15 C 63.99 16.84 59.39 17.11 55.79 19.86 C 46.95 24.87 42.05 34.75 32.85 39.24 C 33.48 35.86 36.42 33.91 38.77 31.74 C 42.11 28.76 44.89 25.24 47.88 21.93 C 51.62 18.37 56.60 16.64 60.95 13.99 C 63.75 14.13 66.56 14.16 69.36 14.14 C 65.90 12.71 62.37 11.19 59.90 8.24 C 56.45 9.07 52.83 9.70 49.86 11.77 C 46.92 13.75 43.68 15.35 40.06 15.48 C 40.18 16.14 40.40 17.45 40.52 18.11 C 36.45 19.69 32.42 21.35 28.36 22.94 C 28.88 23.92 29.37 24.93 29.83 25.95 C 28.82 27.27 27.56 28.37 26.38 29.55 C 26.76 29.95 27.53 30.75 27.91 31.16 C 26.14 34.18 24.22 37.12 22.56 40.21 C 22.76 40.80 23.17 41.98 23.37 42.57 C 22.95 43.67 22.51 44.76 22.07 45.86 C 20.25 47.19 18.55 48.69 17.28 50.57 C 19.88 49.77 22.44 48.83 25.11 48.29 C 23.08 50.88 20.17 52.49 16.88 52.80 C 16.37 53.54 15.36 55.01 14.85 55.74 C 15.62 55.68 17.14 55.57 17.91 55.51 C 16.81 57.91 16.04 60.46 14.73 62.75 C 12.95 64.82 10.63 66.34 8.69 68.26 C 11.56 67.39 14.17 65.91 16.88 64.67 C 15.43 67.30 13.44 69.57 11.51 71.86 C 13.85 71.92 15.74 70.57 17.57 69.31 C 17.48 69.68 17.31 70.44 17.23 70.82 C 14.87 72.07 15.22 76.20 18.37 75.64 C 15.21 78.06 14.77 81.94 15.39 85.63 C 14.77 85.18 14.16 84.73 13.54 84.28 C 13.50 83.51 13.43 81.97 13.39 81.20 C 11.90 81.33 10.41 81.46 8.92 81.61 C 9.08 81.17 9.39 80.30 9.55 79.86 C 10.90 78.40 14.35 77.53 13.79 75.20 C 11.68 74.50 9.84 76.82 7.83 77.26 C 8.65 75.17 9.72 73.18 10.92 71.28 C 9.63 71.35 8.34 71.43 7.05 71.51 C 6.19 71.08 5.33 70.65 4.47 70.22 C 4.51 69.95 4.58 69.42 4.62 69.16 C 6.02 68.04 7.34 66.82 8.55 65.50 C 8.51 60.51 12.49 56.88 14.16 52.44 C 13.34 52.40 11.71 52.33 10.90 52.29 C 13.47 47.85 17.49 44.56 20.49 40.45 C 19.36 40.43 17.10 40.39 15.97 40.37 C 18.54 38.06 21.17 35.83 23.75 33.52 C 20.98 33.62 18.24 33.23 15.57 32.52 C 15.58 32.04 15.59 31.10 15.60 30.62 C 18.45 30.03 21.29 29.07 23.10 26.62 C 24.28 26.59 25.46 26.52 26.64 26.43 C 26.46 25.35 25.87 24.49 24.88 23.87 C 28.87 19.64 34.33 17.52 39.91 16.36 C 39.84 15.72 39.71 14.44 39.64 13.80 C 44.00 11.51 48.28 8.91 53.09 7.68 C 56.05 7.07 59.08 7.57 62.07 7.52 C 64.98 8.80 67.55 11.77 70.93 11.27 C 72.15 8.54 72.86 5.61 73.75 2.76 Z" />
<path fill="#858785" opacity="1.00" d=" M 94.21 26.53 C 95.62 25.45 97.43 27.83 95.97 28.88 C 94.57 29.98 92.72 27.56 94.21 26.53 Z" />
<path fill="#858785" opacity="1.00" d=" M 58.38 31.35 C 60.72 29.23 65.34 28.33 67.60 30.86 C 66.47 33.18 64.37 34.77 62.67 36.64 C 59.79 39.47 57.38 43.12 53.25 44.20 C 54.40 39.79 54.30 34.30 58.38 31.35 M 57.04 38.28 C 59.63 36.59 61.78 34.30 63.35 31.65 C 60.13 32.50 57.98 35.18 57.04 38.28 Z" />
<path fill="#858785" opacity="1.00" d=" M 71.20 34.86 C 73.23 34.61 75.27 34.42 77.31 34.28 C 76.55 35.80 76.10 37.67 74.23 38.29 C 74.31 37.54 74.46 36.04 74.54 35.29 C 73.43 35.15 72.31 35.01 71.20 34.86 Z" />
<path fill="#858785" opacity="1.00" d=" M 34.92 41.42 C 36.98 39.65 39.07 37.91 41.15 36.16 C 42.60 38.10 43.60 40.29 43.99 42.70 C 44.36 42.70 45.10 42.71 45.46 42.72 C 45.40 43.21 45.27 44.20 45.20 44.70 C 46.03 44.71 47.69 44.73 48.52 44.74 C 49.57 48.91 45.57 50.96 42.70 52.87 C 40.23 50.94 40.09 47.97 41.20 45.24 C 40.29 42.80 40.17 40.19 40.14 37.61 C 39.07 38.90 38.01 40.20 36.96 41.50 C 36.45 41.48 35.43 41.44 34.92 41.42 Z" />
<path fill="#858785" opacity="1.00" d=" M 64.09 43.57 C 63.02 42.40 64.72 40.02 66.15 40.86 C 67.22 42.04 65.54 44.42 64.09 43.57 Z" />
<path fill="#858785" opacity="1.00" d=" M 28.88 48.75 C 27.01 45.43 31.54 44.28 33.98 43.67 C 36.03 43.04 35.11 46.08 35.70 47.19 C 34.30 47.99 32.91 48.80 31.52 49.61 C 31.08 50.57 30.65 51.54 30.22 52.51 C 29.68 52.55 28.62 52.65 28.08 52.70 C 28.35 51.38 28.62 50.07 28.88 48.75 Z" />
<path fill="#858785" opacity="1.00" d=" M 83.75 47.51 C 86.24 46.43 87.98 43.47 90.74 43.25 C 90.09 46.73 86.92 49.40 84.32 51.68 C 81.73 51.60 78.46 53.07 76.48 50.80 C 76.67 50.42 77.06 49.65 77.25 49.27 C 79.02 49.12 80.81 49.18 82.58 48.95 C 83.16 48.91 84.34 48.81 84.92 48.76 C 84.63 48.45 84.04 47.83 83.75 47.51 Z" />
<path fill="#858785" opacity="1.00" d=" M 64.14 46.65 C 65.79 46.16 67.44 45.66 69.09 45.19 C 68.15 46.47 67.19 47.73 66.24 49.00 C 67.16 50.14 68.09 51.28 69.00 52.43 C 67.89 53.01 66.74 53.51 65.57 53.94 C 64.55 51.64 64.39 49.12 64.14 46.65 Z" />
<path fill="#858785" opacity="1.00" d=" M 45.79 55.74 C 48.18 53.05 49.47 49.13 52.99 47.66 C 52.61 49.43 52.15 51.18 51.64 52.92 C 52.83 53.79 54.01 54.69 55.18 55.61 C 55.56 55.48 56.32 55.22 56.70 55.09 C 55.05 56.59 53.26 57.92 51.51 59.30 C 50.98 57.77 50.49 56.23 50.03 54.69 C 49.16 55.62 48.30 56.55 47.44 57.48 C 46.98 57.49 46.05 57.52 45.58 57.53 C 45.64 57.08 45.74 56.19 45.79 55.74 Z" />
<path fill="#858785" opacity="1.00" d=" M 70.93 51.32 C 72.10 52.31 73.26 53.32 74.42 54.34 C 78.40 54.01 82.39 53.67 86.36 53.20 C 81.18 54.82 75.77 55.74 70.33 55.54 C 70.48 54.49 70.78 52.37 70.93 51.32 Z" />
<path fill="#858785" opacity="1.00" d=" M 35.27 53.29 C 37.11 52.00 39.45 52.72 41.51 52.71 C 40.55 55.33 37.85 55.62 35.59 56.46 C 35.32 57.96 35.13 59.46 35.00 60.97 C 30.69 60.11 32.39 54.76 35.27 53.29 Z" />
<path fill="#858785" opacity="1.00" d=" M 89.46 55.06 C 89.50 53.48 91.34 53.54 92.41 52.99 C 92.46 59.02 92.77 65.05 93.36 71.06 C 92.14 70.29 90.45 69.76 90.22 68.09 C 88.90 63.92 88.95 59.37 89.46 55.06 M 91.89 68.63 C 92.45 63.57 92.03 58.47 91.00 53.49 C 89.87 58.42 89.16 64.07 91.89 68.63 Z" />
<path fill="#858785" opacity="1.00" d=" M 111.62 53.46 C 114.37 55.59 112.70 59.11 112.59 61.95 C 111.96 64.25 113.31 66.27 114.31 68.21 C 113.81 68.25 112.80 68.33 112.30 68.37 C 111.88 68.41 111.06 68.48 110.64 68.51 C 110.63 68.86 110.60 69.54 110.59 69.88 C 110.48 65.55 110.32 61.21 109.21 57.00 C 109.48 56.22 110.02 54.66 110.29 53.88 C 110.75 55.39 111.22 56.91 111.68 58.43 C 111.66 56.78 111.64 55.12 111.62 53.46 Z" />
<path fill="#858785" opacity="1.00" d=" M 54.28 60.42 C 55.22 59.47 56.19 58.54 57.16 57.62 C 57.24 59.10 57.31 60.58 57.38 62.06 C 59.63 64.26 62.13 67.89 58.78 70.40 C 59.00 69.90 59.45 68.88 59.68 68.38 C 58.23 68.30 56.79 68.22 55.35 68.14 C 54.76 65.61 54.61 63.00 54.28 60.42 Z" />
<path fill="#858785" opacity="1.00" d=" M 24.83 61.75 C 26.81 61.70 28.78 61.65 30.76 61.60 C 30.59 61.99 30.25 62.77 30.08 63.16 C 28.11 63.31 26.14 63.46 24.17 63.61 C 24.34 63.14 24.67 62.22 24.83 61.75 Z" />
<path fill="#858785" opacity="1.00" d=" M 40.27 61.25 C 40.90 61.26 42.16 61.27 42.79 61.28 C 43.17 62.37 43.56 63.46 43.94 64.55 C 43.22 64.55 41.78 64.54 41.06 64.54 C 41.81 65.11 43.31 66.26 44.05 66.84 C 43.45 67.23 42.24 68.02 41.63 68.41 C 41.09 66.04 40.63 63.65 40.27 61.25 Z" />
<path fill="#858785" opacity="1.00" d=" M 25.66 72.10 C 28.38 69.69 31.43 67.34 35.21 67.12 C 32.66 70.58 29.46 73.55 27.51 77.43 C 26.99 77.49 25.93 77.60 25.41 77.66 C 25.80 75.83 26.17 73.95 25.66 72.10 Z" />
<path fill="#858785" opacity="1.00" d=" M 84.60 67.73 C 85.47 67.71 86.34 67.69 87.22 67.67 C 87.34 71.04 87.75 74.39 88.58 77.65 C 88.01 77.68 86.87 77.73 86.30 77.76 C 84.55 74.68 84.07 71.20 84.60 67.73 Z" />
<path fill="#858785" opacity="1.00" d=" M 20.41 80.71 C 23.30 80.15 26.20 79.65 29.11 79.29 C 28.17 80.50 27.85 82.72 25.98 82.75 C 23.84 83.24 22.03 81.89 20.41 80.71 Z" />
<path fill="#858785" opacity="1.00" d=" M 34.44 80.42 C 34.87 80.40 35.74 80.36 36.17 80.34 C 37.53 82.43 38.95 84.48 40.16 86.67 C 38.25 86.25 36.35 85.81 34.45 85.36 C 34.44 83.71 34.44 82.07 34.44 80.42 Z" />
<path fill="#858785" opacity="1.00" d=" M 106.20 86.97 C 106.23 83.52 109.25 81.87 112.37 81.80 C 111.33 84.52 108.83 86.06 106.20 86.97 Z" />
<path fill="#858785" opacity="1.00" d=" M 16.13 92.22 C 18.02 88.88 19.34 85.30 19.98 81.51 C 22.02 84.39 21.46 87.80 20.54 90.95 C 23.29 89.38 26.05 87.63 29.26 87.21 C 27.44 89.80 24.69 91.47 21.50 91.68 C 21.09 93.00 20.68 94.32 20.28 95.64 C 19.92 95.59 19.20 95.48 18.84 95.43 C 17.92 94.37 16.93 93.37 16.13 92.22 Z" />
<path fill="#858785" opacity="1.00" d=" M 46.28 86.78 C 49.32 88.35 50.35 92.02 47.80 94.58 C 47.13 94.56 45.78 94.52 45.11 94.50 C 45.64 93.35 46.18 92.20 46.71 91.06 C 46.54 89.63 46.39 88.21 46.28 86.78 Z" />
<path fill="#858785" opacity="1.00" d=" M 51.55 88.74 C 52.95 88.38 54.36 88.01 55.76 87.64 C 56.62 89.28 57.50 90.91 58.40 92.53 C 57.86 94.34 57.09 96.08 56.66 97.92 C 58.09 101.42 59.62 104.95 59.57 108.82 L 58.70 108.75 C 58.48 106.02 58.06 103.30 57.35 100.66 C 56.79 102.21 56.21 103.77 55.62 105.32 C 55.81 103.96 55.99 102.60 56.14 101.24 C 55.60 101.39 54.51 101.68 53.97 101.83 C 54.52 100.56 55.08 99.29 55.64 98.03 C 54.74 96.89 53.84 95.75 52.95 94.60 C 53.63 94.25 55.00 93.56 55.68 93.22 C 55.35 92.53 54.69 91.15 54.37 90.46 C 53.66 90.52 52.24 90.64 51.53 90.70 C 51.54 90.21 51.54 89.23 51.55 88.74 Z" />
<path fill="#858785" opacity="1.00" d=" M 160.13 89.66 C 161.99 90.48 163.85 91.30 165.58 92.37 C 162.76 93.57 163.81 96.34 165.02 98.36 C 165.27 101.31 162.26 98.42 161.57 97.55 C 160.74 96.57 159.95 95.56 159.21 94.53 L 160.44 95.00 L 161.79 95.55 C 161.76 94.23 161.72 92.90 161.68 91.58 C 161.30 91.10 160.52 90.14 160.13 89.66 Z" />
<path fill="#858785" opacity="1.00" d=" M 24.06 94.01 C 26.44 94.33 25.99 97.02 26.53 98.74 C 29.53 98.46 32.15 97.12 34.36 95.15 C 34.53 96.76 34.62 98.38 34.73 100.00 C 36.91 100.79 39.08 101.63 41.19 102.60 C 43.06 102.54 44.93 102.48 46.80 102.45 C 48.19 104.66 50.01 106.93 52.95 106.45 C 52.77 107.13 52.59 107.82 52.42 108.50 L 51.93 110.29 C 49.24 108.99 46.95 107.08 44.96 104.88 C 40.48 106.55 36.43 103.52 32.87 101.20 C 32.57 101.66 31.98 102.57 31.68 103.02 C 31.52 102.44 31.19 101.27 31.03 100.69 C 28.28 100.05 25.45 99.81 22.65 99.47 C 23.15 97.66 23.62 95.84 24.06 94.01 Z" />
<path fill="#858785" opacity="1.00" d=" M 39.18 95.21 C 43.04 93.38 46.46 96.96 48.25 100.04 C 44.86 99.21 42.05 97.08 39.18 95.21 Z" />
<path fill="#858785" opacity="1.00" d=" M 114.97 102.75 C 115.41 101.73 115.90 100.72 116.43 99.74 C 118.25 105.04 122.16 109.44 122.97 115.09 C 121.02 115.31 118.97 115.77 117.29 114.46 C 118.03 113.21 120.84 113.07 120.67 111.27 C 120.37 111.08 119.76 110.71 119.46 110.53 C 117.55 108.19 116.30 105.43 114.97 102.75 Z" />
<path fill="#858785" opacity="1.00" d=" M 101.23 108.20 C 102.58 107.85 103.94 107.51 105.30 107.21 C 104.56 107.77 103.08 108.90 102.34 109.47 L 105.21 109.47 C 103.94 110.02 102.65 110.53 101.36 111.04 C 101.33 110.33 101.27 108.91 101.23 108.20 Z" />
<path fill="#858785" opacity="1.00" d=" M 167.21 107.70 C 171.34 111.86 175.37 117.12 175.74 123.17 C 172.03 118.61 168.25 113.61 167.21 107.70 Z" />
<path fill="#858785" opacity="1.00" d=" M 175.18 108.55 C 178.95 111.07 179.31 115.92 180.05 119.98 C 180.44 123.70 181.29 127.93 178.88 131.16 C 178.67 123.47 176.67 116.05 175.18 108.55 Z" />
<path fill="#858785" opacity="1.00" d=" M 188.02 109.23 C 188.57 109.29 189.67 109.42 190.22 109.49 C 191.63 117.21 194.22 124.82 198.86 131.22 C 199.88 130.20 200.90 129.19 201.93 128.19 C 200.80 133.89 195.90 137.54 193.02 142.31 C 196.90 140.68 200.33 138.13 204.35 136.81 C 203.79 138.07 203.54 139.68 202.07 140.22 C 197.95 142.40 193.93 145.22 189.17 145.72 C 190.75 140.20 194.97 136.05 198.75 131.94 C 196.75 131.18 194.72 130.12 193.82 128.06 C 190.77 122.22 188.20 115.90 188.02 109.23 Z" />
<path fill="#858785" opacity="1.00" d=" M 151.92 116.14 C 153.14 116.46 154.69 116.30 155.49 117.50 C 158.96 121.59 161.20 126.53 164.14 130.99 C 166.35 134.31 168.09 137.91 169.88 141.46 C 168.29 139.84 166.20 139.24 163.97 139.47 C 158.95 133.36 153.55 127.22 150.94 119.62 C 155.65 123.37 157.93 129.31 162.33 133.41 C 160.06 127.01 155.61 121.75 151.92 116.14 Z" />
<path fill="#858785" opacity="1.00" d=" M 163.19 119.34 C 165.13 121.04 167.23 122.55 169.48 123.82 C 169.15 122.64 168.51 120.28 168.19 119.10 C 168.67 119.27 169.64 119.62 170.12 119.80 C 171.06 121.94 171.97 124.10 172.73 126.32 C 172.04 126.51 170.67 126.89 169.98 127.08 C 167.00 125.20 164.72 122.50 163.19 119.34 Z" />
<path fill="#858785" opacity="1.00" d=" M 128.18 124.16 C 131.89 128.09 134.91 132.60 137.89 137.09 C 140.93 141.66 145.04 145.40 148.07 149.99 C 151.64 155.37 155.48 160.56 159.26 165.80 C 161.58 169.41 164.36 172.70 167.42 175.70 C 167.43 176.32 167.44 177.58 167.44 178.20 C 161.25 175.10 157.93 168.50 153.98 163.11 C 149.51 157.39 146.16 150.86 141.20 145.51 C 136.04 139.89 132.12 133.33 127.73 127.12 C 125.30 137.80 125.26 148.88 126.93 159.68 C 127.23 162.67 128.01 166.20 125.66 168.63 C 125.71 157.73 124.72 146.83 125.33 135.93 C 125.56 131.86 127.10 128.05 128.18 124.16 Z" />
<path fill="#858785" opacity="1.00" d=" M 39.39 190.64 C 37.96 189.01 36.47 187.08 37.59 184.80 C 40.82 187.51 43.34 190.91 45.87 194.25 C 50.93 201.18 56.20 208.20 58.76 216.51 C 58.29 216.45 57.34 216.35 56.86 216.30 C 52.16 207.03 45.90 198.69 39.39 190.64 Z" />
<path fill="#858785" opacity="1.00" d=" M 98.64 201.53 C 100.42 204.60 101.52 208.02 101.95 211.54 C 99.03 209.50 97.81 205.98 97.15 202.63 C 97.67 203.44 98.19 204.25 98.72 205.06 C 98.70 204.18 98.66 202.41 98.64 201.53 Z" />
<path fill="#858785" opacity="1.00" d=" M 40.51 204.25 C 41.39 204.26 43.17 204.28 44.06 204.29 C 48.66 208.65 51.21 214.52 54.16 220.00 L 51.60 220.00 C 49.45 216.26 47.52 212.38 45.11 208.80 C 46.54 211.60 48.02 214.37 49.17 217.31 C 45.62 215.52 43.55 212.06 41.70 208.72 C 41.33 207.22 40.91 205.73 40.51 204.25 Z" />
</g>
<g id="#010101ff">
<path fill="#010101" opacity="1.00" d=" M 68.37 15.36 C 73.03 16.03 77.73 16.42 82.36 17.33 C 84.65 18.01 86.88 18.88 89.12 19.70 C 90.78 23.14 94.75 25.17 98.19 22.64 C 104.79 20.80 109.44 26.97 112.17 32.07 C 112.60 34.36 112.96 36.76 112.36 39.06 C 111.00 40.79 109.03 41.86 107.23 43.05 C 107.23 45.36 107.34 47.68 107.50 49.99 C 108.89 50.96 110.24 51.99 111.61 53.00 C 111.62 53.12 111.62 53.35 111.62 53.46 C 111.64 55.12 111.66 56.78 111.68 58.43 C 111.22 56.91 110.75 55.39 110.29 53.88 C 107.12 54.69 104.32 56.43 102.16 58.90 C 104.60 58.64 106.90 57.78 109.21 57.00 C 110.32 61.21 110.48 65.55 110.59 69.88 C 110.65 70.84 110.71 71.80 110.75 72.77 C 106.06 73.31 104.54 79.53 99.60 78.72 C 100.63 79.81 101.66 80.91 102.69 82.00 C 102.61 82.54 102.45 83.62 102.36 84.17 C 100.09 82.54 98.04 80.50 98.05 77.49 L 100.34 77.63 C 99.33 76.42 98.32 75.20 97.31 73.99 C 98.77 68.74 100.74 63.63 101.84 58.29 L 101.98 58.47 C 102.55 55.67 104.94 53.97 107.47 53.05 C 107.49 52.67 107.52 51.91 107.54 51.54 C 106.99 51.47 105.89 51.33 105.34 51.27 L 105.61 52.55 L 103.55 52.44 L 103.47 50.44 L 104.89 50.55 C 104.81 48.91 104.63 47.29 104.34 45.68 C 102.20 44.41 100.83 46.37 99.42 47.68 C 99.40 48.37 99.35 49.77 99.32 50.47 L 98.37 50.42 C 98.38 50.92 98.40 51.93 98.41 52.44 C 97.90 52.42 96.87 52.37 96.36 52.35 L 96.56 53.41 C 96.05 53.38 95.03 53.34 94.52 53.31 L 94.84 52.34 C 94.37 52.24 93.42 52.05 92.94 51.96 C 94.46 51.76 95.98 51.57 97.51 51.41 C 97.51 49.36 97.53 47.32 97.53 45.28 C 98.59 44.48 99.67 43.72 100.80 43.03 C 101.36 43.59 102.46 44.71 103.02 45.27 C 103.82 43.78 104.81 42.37 105.51 40.82 C 106.08 37.78 102.21 36.93 100.17 35.78 C 98.71 35.24 97.31 34.57 95.94 33.85 C 93.96 33.46 91.95 33.31 89.94 33.29 C 90.98 35.54 92.17 37.72 93.41 39.86 C 93.45 41.66 93.48 43.45 93.49 45.25 C 91.72 48.29 90.24 52.42 86.36 53.20 C 82.39 53.67 78.40 54.01 74.42 54.34 C 73.26 53.32 72.10 52.31 70.93 51.32 C 70.78 52.37 70.48 54.49 70.33 55.54 C 68.17 54.85 66.00 54.24 63.84 53.58 C 61.21 54.18 58.97 55.66 57.16 57.62 C 56.19 58.54 55.22 59.47 54.28 60.42 C 53.07 61.67 51.99 63.03 51.00 64.45 L 50.67 64.61 C 50.46 64.90 50.05 65.49 49.84 65.79 C 49.62 66.04 49.20 66.54 48.98 66.79 C 47.02 67.66 45.00 68.40 43.11 69.43 L 42.39 69.39 L 42.34 69.97 C 41.34 70.90 40.38 71.88 39.42 72.86 C 38.69 78.64 44.14 83.43 49.50 84.11 L 49.67 83.01 C 46.69 82.04 44.15 80.03 42.59 77.31 C 41.99 74.92 42.11 72.26 43.42 70.12 C 43.56 72.22 43.53 74.32 43.55 76.43 L 43.95 76.76 C 45.54 78.67 47.63 80.02 49.79 81.22 C 51.04 81.55 53.53 82.21 54.78 82.54 C 54.63 81.53 54.32 79.50 54.16 78.49 L 53.31 78.88 C 53.96 78.26 54.60 77.65 55.25 77.03 C 55.33 76.34 55.47 74.96 55.54 74.27 C 56.51 74.70 57.47 75.13 58.44 75.55 C 58.73 75.92 59.31 76.66 59.60 77.02 C 59.26 77.34 58.59 77.96 58.26 78.28 C 57.58 78.45 56.22 78.80 55.54 78.97 C 55.56 80.81 55.77 82.65 56.37 84.40 C 58.84 84.42 61.31 84.54 63.78 84.58 C 63.72 83.19 63.65 81.80 63.56 80.41 C 63.97 80.47 64.80 80.58 65.21 80.64 C 65.53 81.21 66.19 82.36 66.52 82.93 C 66.18 83.55 65.52 84.80 65.18 85.43 C 62.18 87.66 58.43 86.09 55.11 85.66 C 52.07 85.57 49.01 85.80 46.00 85.26 C 43.09 83.65 40.23 81.73 38.48 78.83 C 36.91 76.93 37.64 74.40 37.80 72.18 C 39.04 70.88 40.12 69.40 41.63 68.41 C 42.24 68.02 43.45 67.23 44.05 66.84 C 43.31 66.26 41.81 65.11 41.06 64.54 C 41.78 64.54 43.22 64.55 43.94 64.55 C 47.44 64.98 48.75 60.73 51.51 59.30 C 53.26 57.92 55.05 56.59 56.70 55.09 C 58.30 53.55 59.98 52.10 61.77 50.79 C 60.98 49.66 60.15 48.55 59.31 47.46 C 61.40 42.51 64.49 38.02 68.15 34.10 C 70.77 31.85 74.12 30.74 77.11 29.08 C 79.79 28.19 82.57 28.68 85.10 29.78 C 85.77 30.02 87.09 30.51 87.75 30.75 C 88.44 30.34 89.83 29.50 90.52 29.09 C 90.97 27.72 91.37 26.33 91.71 24.92 C 90.95 24.76 89.44 24.44 88.68 24.28 C 88.57 23.73 88.34 22.63 88.23 22.08 C 87.74 21.77 86.75 21.17 86.25 20.86 C 84.71 20.63 83.13 20.40 81.81 19.49 C 79.57 19.33 77.33 19.31 75.10 19.15 C 72.91 18.28 70.63 17.66 68.33 17.15 L 68.37 15.36 M 94.21 26.53 C 92.72 27.56 94.57 29.98 95.97 28.88 C 97.43 27.83 95.62 25.45 94.21 26.53 M 71.20 34.86 C 72.31 35.01 73.43 35.15 74.54 35.29 C 74.46 36.04 74.31 37.54 74.23 38.29 C 76.10 37.67 76.55 35.80 77.31 34.28 C 75.27 34.42 73.23 34.61 71.20 34.86 M 66.42 38.02 C 67.12 39.10 68.05 39.21 69.21 38.34 C 69.31 37.85 69.53 36.87 69.63 36.38 C 68.45 35.70 66.46 36.57 66.42 38.02 M 71.48 36.17 C 71.49 37.03 71.49 38.74 71.49 39.60 L 70.47 39.55 C 70.63 40.35 70.79 41.14 70.94 41.94 C 71.73 44.27 72.77 46.50 73.87 48.69 C 74.34 48.69 75.28 48.68 75.76 48.68 C 75.98 46.13 73.65 44.14 72.60 41.94 C 72.57 39.95 72.81 37.97 73.55 36.10 C 73.03 36.12 72.00 36.16 71.48 36.17 M 74.93 39.52 C 75.23 43.77 77.97 48.49 82.58 48.95 C 80.81 49.18 79.02 49.12 77.25 49.27 C 77.06 49.65 76.67 50.42 76.48 50.80 C 78.46 53.07 81.73 51.60 84.32 51.68 C 86.92 49.40 90.09 46.73 90.74 43.25 C 87.98 43.47 86.24 46.43 83.75 47.51 C 83.35 47.10 82.57 46.27 82.18 45.86 C 81.05 45.26 79.94 44.65 78.83 44.04 C 78.66 42.84 78.49 41.64 78.34 40.44 L 77.40 40.65 L 77.43 39.60 C 76.81 39.58 75.56 39.54 74.93 39.52 M 64.09 43.57 C 65.54 44.42 67.22 42.04 66.15 40.86 C 64.72 40.02 63.02 42.40 64.09 43.57 M 64.14 46.65 C 64.39 49.12 64.55 51.64 65.57 53.94 C 66.74 53.51 67.89 53.01 69.00 52.43 C 68.09 51.28 67.16 50.14 66.24 49.00 C 67.19 47.73 68.15 46.47 69.09 45.19 C 67.44 45.66 65.79 46.16 64.14 46.65 Z" />
<path fill="#010101" opacity="1.00" d=" M 91.89 68.63 C 89.16 64.07 89.87 58.42 91.00 53.49 C 92.03 58.47 92.45 63.57 91.89 68.63 Z" />
<path fill="#010101" opacity="1.00" d=" M 51.26 66.16 C 52.69 65.64 53.32 66.19 53.14 67.82 L 52.17 68.32 C 51.88 67.97 51.30 67.28 51.01 66.94 L 51.26 66.16 Z" />
<path fill="#010101" opacity="1.00" d=" M 55.35 68.14 C 56.79 68.22 58.23 68.30 59.68 68.38 C 59.45 68.88 59.00 69.90 58.78 70.40 C 58.40 71.75 56.99 72.20 55.86 72.74 C 55.70 71.21 55.56 69.67 55.35 68.14 Z" />
<path fill="#010101" opacity="1.00" d=" M 112.30 68.37 C 112.80 68.33 113.81 68.25 114.31 68.21 C 115.12 69.72 116.48 71.11 116.38 72.93 C 116.18 76.17 117.98 78.94 119.15 81.83 C 119.67 83.46 120.27 85.06 120.84 86.68 C 124.91 84.33 129.20 82.27 133.92 81.70 C 136.93 81.68 139.98 81.51 142.96 82.08 C 145.29 82.37 147.75 82.22 149.94 83.21 C 152.26 84.17 154.65 84.93 157.02 85.75 C 158.06 86.10 159.10 86.43 160.15 86.74 C 161.97 87.37 163.79 87.97 165.58 88.66 C 168.45 91.15 171.43 93.53 174.87 95.19 C 184.62 98.42 193.55 103.65 202.38 108.81 C 204.35 109.71 204.42 112.07 204.42 113.94 C 199.61 111.52 196.10 107.04 190.96 105.04 C 187.26 104.26 184.39 101.86 181.39 99.73 C 178.55 99.04 175.85 97.92 173.11 96.94 C 170.39 95.78 167.96 94.09 165.58 92.37 C 163.85 91.30 161.99 90.48 160.13 89.66 C 160.52 90.14 161.30 91.10 161.68 91.58 C 161.72 92.90 161.76 94.23 161.79 95.55 L 160.44 95.00 C 158.58 94.03 157.53 92.14 156.21 90.59 C 154.16 87.78 150.78 86.55 147.96 84.70 C 138.95 84.19 128.93 83.12 121.23 88.87 C 122.72 93.31 119.55 97.00 116.43 99.74 C 115.90 100.72 115.41 101.73 114.97 102.75 C 112.55 110.61 112.59 119.04 114.33 127.03 C 116.09 137.67 119.07 148.06 120.77 158.72 L 121.24 158.39 C 122.27 161.78 123.21 165.21 124.07 168.66 C 124.75 164.43 124.96 160.03 123.86 155.86 C 123.26 148.91 123.11 141.90 123.44 134.94 C 123.72 130.19 126.81 125.35 124.93 120.69 C 123.56 116.37 117.17 117.85 116.24 113.18 C 117.30 112.28 118.38 111.40 119.46 110.53 C 119.76 110.71 120.37 111.08 120.67 111.27 C 120.84 113.07 118.03 113.21 117.29 114.46 C 118.97 115.77 121.02 115.31 122.97 115.09 C 123.65 116.02 124.17 117.05 124.71 118.06 C 124.96 118.70 125.46 119.98 125.71 120.62 L 126.73 120.50 C 126.59 121.01 126.33 122.03 126.20 122.54 L 127.63 122.40 C 127.77 122.84 128.04 123.72 128.18 124.16 C 127.10 128.05 125.56 131.86 125.33 135.93 C 124.72 146.83 125.71 157.73 125.66 168.63 C 125.60 169.42 125.51 170.22 125.41 171.01 C 124.71 172.57 124.20 174.21 123.64 175.83 C 123.56 180.16 123.44 184.50 123.23 188.83 C 124.59 188.36 125.95 187.90 127.31 187.45 C 127.46 188.83 127.59 190.22 127.69 191.62 C 126.24 191.61 124.79 191.59 123.34 191.55 C 124.17 193.98 124.88 196.47 124.88 199.07 C 124.10 197.99 123.44 196.85 122.90 195.65 L 122.48 195.54 C 121.15 188.82 120.50 181.88 120.79 175.02 C 121.69 172.47 121.55 169.75 121.19 167.12 C 120.40 164.64 119.20 162.32 117.96 160.04 L 116.82 160.66 C 117.05 159.39 117.31 158.12 117.62 156.87 L 119.77 158.27 C 118.78 155.92 117.81 153.56 116.87 151.18 C 116.63 149.47 116.38 147.76 115.86 146.11 C 115.23 143.06 114.45 140.03 114.18 136.92 C 113.74 135.60 113.36 134.27 112.93 132.96 C 112.61 128.61 111.72 124.34 111.19 120.03 C 109.31 115.51 111.81 110.96 111.79 106.37 C 111.36 106.44 110.49 106.56 110.05 106.62 C 108.51 107.67 107.02 108.92 105.21 109.47 L 102.34 109.47 C 103.08 108.90 104.56 107.77 105.30 107.21 C 106.56 106.33 107.82 105.43 109.06 104.52 C 108.12 104.49 106.25 104.42 105.31 104.39 C 105.33 103.92 105.35 102.99 105.37 102.52 C 106.06 102.47 107.46 102.38 108.15 102.33 C 109.41 101.83 110.68 101.35 111.94 100.84 C 114.06 98.99 116.32 97.23 117.93 94.90 C 120.29 88.75 116.97 82.62 114.97 76.86 C 113.66 77.31 112.36 77.77 111.07 78.25 C 110.56 78.35 109.55 78.54 109.05 78.63 C 107.98 79.83 106.84 80.95 105.68 82.06 C 105.63 80.98 105.60 79.90 105.57 78.83 C 107.28 78.25 108.98 77.66 110.72 77.19 L 110.44 76.93 C 112.06 75.84 113.50 74.54 114.82 73.11 C 114.02 71.51 113.16 69.94 112.30 68.37 Z" />
<path fill="#010101" opacity="1.00" d=" M 46.42 72.26 C 47.61 74.29 49.47 75.32 51.78 74.45 C 51.63 75.80 51.49 77.15 51.36 78.51 C 50.86 78.50 49.88 78.48 49.39 78.47 C 47.51 76.83 45.69 75.00 46.42 72.26 Z" />
<path fill="#010101" opacity="1.00" d=" M 93.52 81.22 C 94.21 79.91 94.86 78.58 95.53 77.26 L 95.40 79.54 L 96.09 79.55 C 97.08 82.78 98.95 85.62 101.27 88.05 L 101.33 88.74 L 102.50 88.51 C 102.38 89.08 102.16 90.23 102.05 90.80 C 101.95 90.55 101.77 90.04 101.68 89.78 C 98.08 87.93 95.40 84.74 93.52 81.22 Z" />
<path fill="#010101" opacity="1.00" d=" M 93.53 87.00 C 93.78 87.36 94.28 88.08 94.53 88.44 C 95.53 89.48 96.51 90.54 97.49 91.60 C 97.41 92.47 97.33 93.34 97.25 94.21 C 96.39 94.40 95.53 94.59 94.67 94.79 C 94.79 92.14 94.26 89.54 93.53 87.00 Z" />
<path fill="#010101" opacity="1.00" d=" M 58.87 89.38 C 59.31 89.39 60.21 89.39 60.66 89.39 C 60.72 92.67 60.21 95.89 59.69 99.12 C 62.27 105.19 66.98 110.03 70.68 115.42 C 76.42 123.56 84.80 129.11 92.13 135.66 C 98.00 139.47 102.88 144.53 108.58 148.55 C 111.98 151.34 116.31 154.09 116.84 158.85 C 115.30 157.65 113.72 156.54 112.15 155.39 C 111.50 155.36 110.19 155.31 109.54 155.29 L 109.71 154.48 C 108.35 154.42 106.99 154.36 105.63 154.30 L 105.66 153.68 C 103.08 153.26 100.51 152.75 98.05 151.83 C 96.72 151.58 95.38 151.36 94.05 151.11 C 92.05 150.35 90.06 149.57 88.06 148.80 C 85.46 147.80 82.99 146.53 80.55 145.22 C 81.15 149.60 78.36 154.04 80.69 158.18 C 81.90 160.38 83.05 162.62 84.20 164.85 C 85.65 167.98 87.24 171.03 88.74 174.13 C 89.18 175.10 89.62 176.07 90.05 177.05 C 90.34 178.06 90.63 179.07 90.92 180.09 C 92.44 185.57 94.80 190.74 97.26 195.85 C 97.38 196.41 97.62 197.52 97.74 198.08 C 98.15 199.19 98.59 200.33 98.64 201.53 C 98.66 202.41 98.70 204.18 98.72 205.06 C 98.19 204.25 97.67 203.44 97.15 202.63 L 96.76 202.05 C 95.77 199.40 94.85 196.73 93.93 194.07 C 93.31 192.68 92.67 191.30 92.04 189.93 C 91.43 188.26 90.83 186.59 90.23 184.92 C 89.77 183.66 89.34 182.40 88.89 181.15 C 88.00 177.14 85.83 173.59 84.34 169.80 C 83.78 168.93 83.23 168.07 82.69 167.20 C 81.77 165.16 80.82 163.13 79.86 161.11 C 78.51 158.11 77.05 155.15 75.83 152.09 C 75.33 150.98 74.82 149.89 74.31 148.79 C 72.64 145.62 71.19 142.34 69.82 139.03 C 68.43 136.07 67.05 133.11 65.73 130.13 C 64.65 126.99 63.47 123.89 62.39 120.75 C 61.99 119.44 61.61 118.12 61.27 116.79 C 60.82 115.18 60.42 113.56 59.93 111.96 C 59.76 110.91 59.64 109.87 59.57 108.82 C 59.62 104.95 58.09 101.42 56.66 97.92 C 57.09 96.08 57.86 94.34 58.40 92.53 C 58.51 91.75 58.75 90.17 58.87 89.38 M 61.23 106.23 C 61.21 108.21 61.54 110.12 62.22 111.96 C 62.43 112.98 62.64 114.01 62.85 115.03 C 63.47 116.84 63.64 118.75 63.79 120.64 L 64.64 120.54 C 64.61 120.90 64.54 121.63 64.50 121.99 C 65.14 123.27 65.75 124.56 66.37 125.84 C 67.53 128.61 68.63 131.41 69.67 134.22 C 70.41 135.83 71.16 137.43 71.93 139.02 C 72.92 141.04 73.82 143.09 74.67 145.16 C 75.78 147.40 76.93 149.62 78.35 151.68 C 78.56 148.60 78.46 145.45 79.70 142.56 C 80.03 142.65 80.69 142.81 81.02 142.89 C 82.94 144.06 84.89 145.17 86.88 146.21 C 88.27 146.78 89.63 147.41 90.99 148.05 C 93.61 148.85 96.27 149.48 98.88 150.31 C 99.93 150.46 100.97 150.62 102.02 150.78 C 103.81 151.53 105.65 152.19 107.52 152.73 L 107.38 153.43 L 109.85 153.52 C 109.77 153.08 109.61 152.19 109.53 151.75 C 98.26 144.15 88.33 134.80 77.67 126.39 C 70.79 120.91 66.94 112.77 61.23 106.23 Z" />
<path fill="#010101" opacity="1.00" d=" M 123.34 91.53 C 128.48 91.47 133.63 91.42 138.77 91.61 C 137.60 97.42 132.69 101.09 129.12 105.40 L 131.45 105.56 L 131.48 106.35 C 132.81 106.43 134.14 106.50 135.47 106.58 L 135.50 107.40 C 136.25 107.41 137.75 107.45 138.51 107.46 L 138.42 108.30 C 139.97 108.37 141.52 108.46 143.07 108.59 C 144.09 109.02 145.12 109.45 146.15 109.86 C 146.60 113.47 147.64 116.96 148.52 120.48 C 148.06 121.33 147.57 122.16 147.05 122.97 C 145.99 119.32 145.18 115.61 144.30 111.92 C 143.22 110.29 141.18 110.54 139.49 110.21 L 139.55 109.48 C 138.77 109.47 137.21 109.46 136.43 109.45 L 136.51 108.80 C 135.14 108.46 133.79 108.11 132.44 107.74 C 131.31 107.48 130.19 107.21 129.09 106.87 C 128.44 106.73 127.16 106.46 126.52 106.33 C 126.60 106.00 126.77 105.35 126.85 105.02 C 130.50 101.68 133.58 97.76 136.23 93.59 C 132.63 93.46 129.03 93.43 125.43 93.36 L 125.55 92.42 C 124.99 92.49 123.86 92.64 123.29 92.71 C 123.30 92.42 123.33 91.83 123.34 91.53 Z" />
<path fill="#010101" opacity="1.00" d=" M 111.11 93.58 C 111.73 93.19 112.35 92.80 112.97 92.42 C 113.33 92.82 114.04 93.62 114.39 94.02 C 113.52 94.74 112.65 95.46 111.80 96.20 C 109.43 96.56 106.74 96.79 106.18 93.89 C 107.82 93.79 109.46 93.69 111.11 93.58 Z" />
<path fill="#010101" opacity="1.00" d=" M 53.97 101.83 C 54.51 101.68 55.60 101.39 56.14 101.24 C 55.99 102.60 55.81 103.96 55.62 105.32 C 54.90 108.11 54.02 110.87 53.66 113.75 C 53.61 117.49 53.43 121.24 53.23 124.98 C 52.15 128.20 52.15 131.78 53.30 134.98 C 53.39 137.02 53.38 139.08 52.77 141.04 C 52.41 146.29 53.68 151.47 53.30 156.72 C 58.23 156.80 63.15 156.62 68.08 156.49 C 67.30 159.42 66.32 162.30 65.11 165.08 C 64.31 167.39 63.68 169.75 62.69 171.99 C 62.60 172.80 62.44 174.41 62.35 175.21 C 67.96 179.30 72.14 184.96 77.72 189.08 C 81.36 191.93 84.29 195.61 88.16 198.18 C 88.33 198.51 88.67 199.17 88.84 199.51 C 88.25 199.51 87.07 199.52 86.48 199.52 L 86.25 199.00 C 81.80 196.52 78.74 192.31 74.56 189.46 C 69.79 185.21 65.44 180.50 61.04 175.88 C 59.59 174.53 60.54 172.40 61.14 170.87 C 61.36 169.86 61.57 168.84 61.77 167.82 C 62.83 164.99 63.95 162.17 64.94 159.30 C 61.28 159.32 57.62 159.36 53.96 159.27 C 52.82 158.84 51.68 158.42 50.54 158.02 C 50.17 149.36 51.01 140.67 50.42 132.03 C 50.31 130.85 49.07 124.78 48.23 129.53 L 47.67 129.35 C 47.48 129.77 47.10 130.59 46.91 131.00 C 45.54 132.40 44.15 133.78 42.63 135.02 L 42.64 135.14 C 42.28 135.53 41.55 136.30 41.19 136.68 L 41.01 136.60 C 40.23 137.42 39.43 138.23 38.61 139.02 L 38.60 139.69 L 37.34 139.33 L 37.35 140.00 C 32.28 146.03 25.23 150.17 21.01 156.96 C 18.78 160.73 15.76 164.47 16.16 169.14 C 14.49 174.13 15.17 179.54 13.52 184.50 L 12.96 185.04 C 12.37 185.64 11.96 186.35 11.72 187.18 C 11.73 184.03 11.50 180.86 12.10 177.74 C 12.34 179.75 12.53 181.77 12.59 183.80 C 14.54 182.41 13.74 179.08 12.39 177.38 C 13.00 173.27 13.68 169.16 14.03 165.03 C 16.52 159.28 20.02 153.81 24.54 149.43 C 26.02 148.29 25.49 146.23 25.77 144.63 C 28.58 140.83 32.06 137.58 34.80 133.71 C 39.20 128.15 44.67 123.59 49.77 118.72 C 51.76 117.05 51.57 114.33 51.90 112.00 C 52.03 111.13 52.29 109.38 52.42 108.50 C 52.59 107.82 52.77 107.13 52.95 106.45 C 53.41 104.94 53.70 103.38 53.97 101.83 M 31.90 139.91 C 30.15 141.68 28.48 143.54 27.05 145.59 C 27.74 145.55 29.13 145.48 29.82 145.44 C 32.94 141.64 37.18 139.06 40.49 135.46 C 43.82 131.99 47.41 128.78 50.64 125.21 C 50.66 124.04 50.69 121.71 50.70 120.54 C 44.37 126.94 37.83 133.13 31.90 139.91 Z" />
<path fill="#010101" opacity="1.00" d=" M 84.50 101.27 C 84.89 101.49 85.68 101.93 86.07 102.14 C 87.83 102.47 89.60 102.73 91.38 102.95 C 91.37 103.74 91.37 104.53 91.36 105.32 C 88.26 106.00 85.61 104.41 83.08 102.86 C 83.47 102.79 84.25 102.64 84.63 102.57 L 84.50 101.27 Z" />
<path fill="#010101" opacity="1.00" d=" M 75.09 102.69 C 75.68 102.63 76.87 102.49 77.47 102.42 C 80.84 106.07 84.19 109.89 86.04 114.58 C 84.70 114.55 83.37 114.51 82.03 114.45 C 80.85 109.91 77.66 106.46 75.09 102.69 Z" />
<path fill="#010101" opacity="1.00" d=" M 75.40 118.39 C 76.07 118.40 77.41 118.42 78.09 118.43 C 81.27 120.43 84.75 121.95 88.36 123.01 C 88.47 123.54 88.68 124.60 88.79 125.13 C 86.74 124.60 84.73 123.96 82.73 123.29 C 80.08 121.98 77.30 120.74 75.40 118.39 Z" />
<path fill="#010101" opacity="1.00" d=" M 147.50 124.42 C 147.99 123.62 148.49 122.81 149.00 122.01 C 149.64 124.33 150.30 126.64 150.95 128.95 C 151.36 129.95 151.78 130.94 152.20 131.93 C 152.77 133.31 153.36 134.68 153.94 136.06 C 155.20 139.43 156.56 142.76 157.79 146.13 C 158.60 148.03 159.39 149.93 160.18 151.84 C 160.72 153.26 161.30 154.67 161.85 156.10 C 162.91 158.07 163.92 160.08 164.98 162.06 C 165.20 162.65 165.63 163.82 165.85 164.40 L 166.70 164.56 C 166.63 165.04 166.49 165.98 166.42 166.45 L 167.24 166.51 C 167.64 167.90 168.09 169.28 168.53 170.67 L 169.30 170.62 C 169.27 171.12 169.20 172.12 169.16 172.62 C 169.07 172.27 168.87 171.56 168.78 171.21 L 167.95 171.53 C 167.50 170.20 166.76 169.03 166.00 167.87 C 165.40 166.82 164.82 165.76 164.27 164.69 C 162.91 162.11 161.57 159.51 160.27 156.90 C 159.18 154.60 158.18 152.26 157.20 149.92 C 154.96 145.01 152.95 140.01 151.26 134.89 C 149.62 131.55 148.77 127.91 147.50 124.42 Z" />
<path fill="#010101" opacity="1.00" d=" M 31.13 186.68 C 31.66 186.63 32.72 186.51 33.26 186.45 C 35.89 192.30 38.31 198.47 42.91 203.10 C 43.20 203.40 43.78 203.99 44.06 204.29 C 43.17 204.28 41.39 204.26 40.51 204.25 C 40.91 205.73 41.33 207.22 41.70 208.72 C 40.03 206.02 39.64 202.75 37.95 200.06 C 35.43 195.73 32.47 191.58 31.13 186.68 Z" />
</g>
</svg>
