<?xml version="1.0" encoding="UTF-8" ?>
<!DOCTYPE svg PUBLIC "-//W3C//DTD SVG 1.1//EN" "http://www.w3.org/Graphics/SVG/1.1/DTD/svg11.dtd">
<svg width="210pt" height="220pt" viewBox="0 0 210 220" version="1.1" xmlns="http://www.w3.org/2000/svg">
<g id="#868686f8">
<path fill="#868686" opacity="0.97" d=" M 13.33 5.06 C 14.33 5.08 16.33 5.10 17.33 5.11 C 16.13 6.44 14.93 7.75 13.70 9.04 C 13.57 7.71 13.44 6.39 13.33 5.06 Z" />
<path fill="#868686" opacity="0.97" d=" M 100.16 5.46 C 101.47 4.69 103.12 5.11 104.56 5.15 C 107.69 7.05 110.46 9.44 113.40 11.61 C 117.05 14.35 121.58 15.39 125.74 17.11 C 125.66 24.13 125.21 31.15 125.49 38.18 C 121.22 32.19 125.85 24.55 124.04 17.98 C 120.05 15.94 115.45 15.04 111.99 12.03 C 109.23 10.12 106.62 7.09 103.01 7.18 C 98.69 8.06 94.93 10.65 90.65 11.73 C 85.91 13.33 80.90 13.39 75.96 13.56 C 70.63 13.76 66.42 17.33 62.15 20.09 C 57.79 23.02 52.55 24.15 47.50 25.28 C 43.13 26.29 38.13 25.50 34.33 28.31 C 27.20 33.37 23.65 42.10 23.14 50.62 C 22.49 58.74 20.57 67.06 22.85 75.10 C 27.11 71.54 32.15 68.28 37.91 68.39 C 42.48 68.70 45.68 72.49 48.21 75.91 C 45.38 76.99 42.51 77.97 39.71 79.10 C 41.99 77.61 44.27 76.13 46.57 74.68 C 43.10 72.01 38.99 68.51 34.27 70.11 C 29.30 70.92 26.06 75.13 21.59 77.00 C 21.21 76.47 20.45 75.41 20.07 74.87 C 19.00 75.15 17.94 75.42 16.87 75.69 C 17.47 74.80 18.07 73.91 18.67 73.03 C 16.81 69.63 15.34 66.04 13.54 62.61 C 13.18 60.32 13.42 58.00 13.48 55.70 C 13.94 55.65 14.86 55.53 15.32 55.47 C 17.22 55.24 19.12 54.95 21.01 54.67 C 21.95 47.79 22.74 40.60 26.73 34.68 C 30.07 29.87 34.81 24.95 41.05 24.70 C 46.34 24.36 51.53 23.14 56.55 21.49 C 63.50 19.28 68.36 12.44 76.01 12.12 C 84.35 11.67 93.62 11.45 100.16 5.46 M 17.27 67.57 C 18.48 67.52 19.69 67.46 20.89 67.41 C 20.58 65.15 19.64 63.11 17.76 61.73 C 17.59 63.68 17.37 65.62 17.27 67.57 Z" />
<path fill="#868686" opacity="0.97" d=" M 187.14 5.02 C 188.14 5.01 190.12 4.99 191.11 4.98 C 192.54 8.97 194.78 12.59 196.50 16.45 C 197.31 18.26 195.76 19.90 195.11 21.49 C 196.28 21.80 197.46 22.12 198.64 22.44 C 198.49 24.92 198.24 27.41 198.42 29.90 C 198.84 32.03 200.40 33.79 200.68 35.95 C 200.15 41.37 200.25 46.83 200.46 52.26 C 202.16 53.15 203.86 54.04 205.57 54.92 C 204.44 57.08 203.30 59.26 202.44 61.55 C 203.54 61.51 205.75 61.43 206.85 61.39 C 206.34 70.16 206.31 78.92 207.35 87.66 C 206.54 87.60 205.73 87.55 204.92 87.50 C 204.62 85.52 204.28 83.55 203.74 81.64 C 203.15 81.60 201.97 81.54 201.39 81.51 C 201.93 83.73 202.22 86.01 202.82 88.22 C 204.32 90.14 206.10 91.84 207.62 93.75 C 207.26 94.42 206.53 95.75 206.17 96.42 C 205.04 95.21 203.91 94.02 202.73 92.86 C 202.91 96.65 202.70 100.81 205.66 103.66 C 203.93 105.35 201.91 106.68 199.73 107.72 C 199.88 113.02 197.65 117.90 196.79 123.05 C 196.72 125.27 194.71 126.26 193.05 127.27 C 194.17 122.84 194.80 118.28 194.63 113.70 C 193.10 115.58 191.27 117.35 190.58 119.75 C 188.55 126.29 187.46 133.12 187.17 139.97 C 186.87 145.79 185.49 151.52 185.68 157.38 C 187.05 155.79 188.86 154.38 189.47 152.29 C 191.20 144.52 190.86 136.43 192.70 128.69 C 196.22 131.54 195.96 136.81 193.26 140.13 C 194.49 143.18 193.31 146.37 193.24 149.51 C 192.03 150.31 190.81 151.09 189.60 151.88 C 190.22 158.88 185.76 166.62 190.11 173.01 C 189.19 174.01 188.27 175.00 187.36 176.01 C 188.21 176.97 189.08 177.93 189.93 178.90 C 187.55 183.66 191.97 188.20 191.41 193.02 C 190.88 196.85 193.25 200.49 196.07 202.87 C 198.23 204.58 198.94 207.46 201.00 209.30 C 201.40 211.15 201.81 213.01 202.50 214.79 C 200.41 215.02 198.30 215.04 196.21 215.00 C 195.00 210.75 194.09 206.41 192.64 202.24 C 191.54 198.74 188.33 196.43 187.25 192.94 C 185.17 186.52 185.60 179.69 184.91 173.06 C 183.94 163.39 184.13 153.62 185.42 143.99 C 185.60 135.82 187.02 127.75 189.13 119.86 C 186.44 120.69 183.76 121.54 181.07 122.36 C 180.58 127.67 180.37 133.03 180.65 138.36 C 179.87 137.52 179.07 136.71 178.27 135.89 C 178.34 130.52 178.45 125.14 177.52 119.82 C 183.26 118.01 190.69 117.92 194.23 112.28 C 196.48 108.78 198.59 105.17 200.33 101.38 C 202.10 97.62 201.59 93.35 201.70 89.32 C 198.96 93.14 195.00 95.64 190.41 96.60 C 191.66 93.04 193.55 89.69 194.36 85.98 C 195.02 81.85 194.51 77.67 194.48 73.52 C 195.82 73.47 197.16 73.41 198.50 73.36 C 199.81 75.47 201.11 77.59 202.50 79.65 C 202.89 74.55 201.66 69.56 199.96 64.80 C 198.68 61.13 197.55 56.75 193.78 54.85 C 190.70 54.33 186.65 53.63 184.38 56.35 C 181.46 59.48 179.33 63.25 176.20 66.20 C 176.08 63.70 176.63 61.23 178.17 59.22 C 180.39 56.07 182.58 51.67 186.98 51.54 C 191.40 50.97 195.57 52.73 199.53 54.44 C 197.41 52.28 195.57 49.54 192.65 48.44 C 188.77 47.67 184.79 48.30 180.91 48.74 C 185.75 44.76 192.41 46.90 197.61 48.95 C 198.15 39.84 194.82 31.21 194.39 22.19 C 193.23 16.02 190.55 10.26 187.14 5.02 Z" />
<path fill="#868686" opacity="0.97" d=" M 10.45 15.10 C 10.58 14.09 10.72 13.04 11.19 12.13 C 10.27 18.47 10.42 24.88 10.42 31.26 C 9.09 30.20 7.76 29.14 6.43 28.06 C 7.73 26.70 9.18 25.46 10.24 23.88 C 10.55 20.97 10.35 18.03 10.45 15.10 Z" />
<path fill="#868686" opacity="0.97" d=" M 7.98 34.86 C 8.78 34.22 9.59 33.59 10.39 32.97 C 14.16 37.49 17.37 42.78 18.34 48.66 C 17.68 49.78 16.59 50.55 15.63 51.40 C 13.69 45.60 12.24 39.50 7.98 34.86 Z" />
<path fill="#868686" opacity="0.97" d=" M 45.04 62.77 C 46.22 62.28 47.30 61.46 48.62 61.41 C 53.01 64.87 53.11 71.19 53.89 76.28 C 50.19 74.66 50.16 70.39 48.69 67.18 C 47.96 65.37 46.31 64.18 45.04 62.77 Z" />
<path fill="#868686" opacity="0.97" d=" M 179.43 70.69 C 182.69 71.90 185.71 73.76 187.97 76.45 C 185.72 76.54 183.46 76.41 181.21 76.23 C 180.46 79.21 180.00 83.10 176.16 83.32 C 176.96 79.04 178.22 74.87 179.43 70.69 Z" />
<path fill="#868686" opacity="0.97" d=" M 80.65 78.15 C 87.10 76.52 93.28 80.19 99.52 81.33 C 99.91 84.76 100.49 88.16 100.90 91.59 C 96.24 95.00 90.99 98.49 85.01 98.52 C 79.54 98.36 75.96 93.33 74.87 88.42 C 79.42 88.69 80.40 95.05 85.01 94.72 C 86.46 94.81 87.91 94.79 89.36 94.80 C 88.19 92.56 85.39 90.33 86.50 87.54 C 87.87 85.15 90.62 84.10 92.77 82.56 C 88.33 82.74 84.18 85.32 79.69 84.28 C 80.14 82.26 80.42 80.21 80.65 78.15 M 87.37 88.37 C 87.25 91.75 91.15 93.19 93.06 95.45 C 95.44 93.90 97.76 92.26 100.03 90.54 C 99.20 88.80 98.53 86.88 97.03 85.57 C 93.60 85.10 88.95 84.37 87.37 88.37 Z" />
<path fill="#868686" opacity="0.97" d=" M 14.84 79.50 C 16.67 78.71 18.53 77.97 20.47 77.49 C 19.44 79.25 18.43 81.04 17.28 82.73 C 16.46 81.66 15.62 80.60 14.84 79.50 Z" />
<path fill="#868686" opacity="0.97" d=" M 24.85 90.97 C 27.71 86.15 32.49 83.11 37.27 80.46 C 42.05 83.54 47.33 85.76 51.93 89.15 C 51.22 86.63 50.56 84.09 50.12 81.51 C 54.75 84.30 56.08 89.78 57.24 94.67 C 58.51 100.62 56.22 106.50 55.17 112.30 C 53.79 120.06 48.98 127.27 50.60 135.41 C 49.08 134.77 47.57 134.13 46.06 133.49 C 46.07 133.86 46.10 134.60 46.11 134.97 C 45.71 136.07 45.28 137.17 44.83 138.26 C 43.16 135.37 43.82 132.12 45.57 129.46 C 49.31 122.97 51.69 115.76 52.75 108.36 C 44.14 116.84 39.13 128.49 37.50 140.37 C 36.91 140.48 35.73 140.72 35.15 140.83 C 35.39 134.52 36.47 128.13 39.45 122.49 C 42.57 116.47 45.89 110.22 51.32 105.94 C 52.42 106.33 53.51 106.70 54.61 107.08 C 54.57 105.88 54.53 104.67 54.50 103.47 C 54.48 101.36 54.58 99.26 54.68 97.15 C 53.96 98.58 53.24 100.02 52.46 101.42 C 52.41 99.82 52.37 98.22 52.34 96.62 C 49.24 96.68 46.13 96.67 43.02 96.62 C 45.20 95.91 47.45 95.48 49.69 95.04 C 48.41 92.59 47.59 89.53 44.89 88.23 C 41.25 86.37 37.28 84.68 33.15 84.51 C 29.93 85.97 27.50 88.70 24.85 90.97 Z" />
<path fill="#868686" opacity="0.97" d=" M 63.55 91.44 C 62.43 88.07 62.18 84.39 65.11 81.82 C 65.79 85.15 66.34 88.50 66.82 91.86 C 65.73 91.72 64.64 91.58 63.55 91.44 Z" />
<path fill="#868686" opacity="0.97" d=" M 14.31 85.09 C 15.44 84.15 16.07 84.41 16.20 85.87 C 15.06 86.83 14.44 86.57 14.31 85.09 Z" />
<path fill="#868686" opacity="0.97" d=" M 173.82 84.88 C 178.11 85.12 180.35 89.41 180.70 93.24 C 180.88 95.89 180.42 98.53 180.15 101.15 C 182.84 99.46 185.51 95.47 189.06 97.56 C 185.78 100.95 182.39 104.71 177.66 105.97 C 177.38 101.97 177.85 97.99 177.97 94.00 C 177.35 90.67 175.01 88.00 173.82 84.88 Z" />
<path fill="#868686" opacity="0.97" d=" M 14.56 88.63 L 15.30 89.56 C 16.95 92.45 18.53 95.37 20.11 98.30 C 21.02 96.87 21.92 95.45 22.82 94.02 C 22.12 97.35 22.40 100.77 23.24 104.04 C 24.23 103.26 25.24 102.50 26.19 101.67 C 26.99 102.44 27.79 103.22 28.66 103.91 C 29.50 103.12 30.26 102.26 31.02 101.41 C 31.22 102.99 31.34 104.61 31.80 106.15 C 34.17 108.90 38.11 107.33 41.17 106.99 C 40.58 104.51 40.07 101.96 40.45 99.40 C 40.92 100.96 41.26 102.58 42.02 104.04 C 43.16 105.79 45.40 106.13 47.20 106.86 C 44.86 108.41 42.49 110.09 39.71 110.71 C 36.34 111.23 32.93 110.61 29.56 110.32 C 30.71 111.54 31.88 112.74 33.05 113.95 C 30.46 116.09 27.66 118.35 26.81 121.78 C 24.89 127.99 22.11 134.86 24.69 141.28 C 28.15 150.35 33.25 158.66 38.00 167.09 C 42.11 173.77 48.24 178.87 52.67 185.31 C 55.65 189.49 57.94 194.18 61.57 197.87 C 60.20 190.20 56.04 183.53 52.67 176.64 C 54.17 176.59 55.69 176.51 57.17 176.79 C 57.42 180.18 59.22 183.14 60.74 186.09 C 63.20 190.74 64.70 195.83 65.88 200.93 C 64.37 201.58 62.87 202.24 61.37 202.90 C 61.56 206.97 61.96 211.02 62.58 215.05 C 60.45 214.03 58.32 213.01 56.19 211.98 C 57.84 207.73 56.69 202.85 59.67 199.11 C 58.48 199.18 57.29 199.26 56.10 199.34 C 54.12 195.80 51.81 192.45 50.43 188.61 C 47.25 184.88 44.27 180.83 40.09 178.13 C 40.58 176.74 41.09 175.36 41.62 173.99 C 40.32 174.67 39.03 175.35 37.73 176.02 C 37.15 170.66 32.51 167.27 30.68 162.43 C 28.76 158.64 28.30 154.09 25.17 151.00 C 23.53 147.89 22.32 144.43 21.35 141.09 C 22.35 136.38 23.59 130.87 19.98 126.93 C 21.75 124.79 23.14 122.39 24.38 119.92 C 26.03 116.47 25.43 112.56 25.46 108.87 C 20.69 108.27 18.16 103.84 16.78 99.71 C 15.71 96.11 13.91 92.49 14.56 88.63 Z" />
<path fill="#868686" opacity="0.97" d=" M 106.80 91.68 C 107.46 91.57 108.79 91.34 109.46 91.23 C 109.32 94.68 108.69 98.49 105.67 100.65 C 100.41 104.30 93.76 106.16 87.38 104.93 C 87.38 104.30 87.37 103.02 87.37 102.38 C 92.65 101.98 98.29 101.99 102.87 98.94 C 105.61 97.57 106.00 94.30 106.80 91.68 Z" />
<path fill="#868686" opacity="0.97" d=" M 88.05 115.74 C 96.50 114.27 102.65 121.64 108.05 126.96 C 114.56 132.87 118.93 141.10 119.64 149.91 C 116.31 149.79 116.04 146.19 115.22 143.74 C 113.97 137.90 109.83 133.36 105.90 129.10 C 103.29 126.36 100.76 123.45 97.46 121.52 C 94.30 119.63 90.72 118.38 88.05 115.74 Z" />
<path fill="#868686" opacity="0.97" d=" M 75.83 121.71 C 77.05 115.71 86.63 116.11 88.46 121.50 C 90.80 125.72 88.27 131.09 84.20 133.12 C 79.75 134.19 75.08 132.30 70.65 133.65 C 67.98 134.77 66.49 137.40 64.82 139.60 C 63.92 138.72 63.02 137.82 62.13 136.93 C 65.13 132.80 69.70 129.61 74.94 129.51 C 77.28 129.72 79.50 130.60 81.84 130.80 C 83.69 129.97 85.20 128.47 86.37 126.83 C 87.26 124.27 85.30 121.96 83.42 120.49 C 80.84 120.47 78.37 121.35 75.83 121.71 Z" />
<path fill="#868686" opacity="0.97" d=" M 17.99 138.69 C 18.29 137.37 18.60 136.06 18.91 134.75 C 19.66 135.89 20.38 137.05 21.08 138.23 C 20.31 138.34 18.76 138.57 17.99 138.69 Z" />
<path fill="#868686" opacity="0.97" d=" M 180.88 139.15 C 183.39 146.17 182.04 153.73 182.36 161.01 C 182.18 167.16 183.50 173.80 180.43 179.47 C 177.26 185.10 172.82 189.85 169.05 195.04 C 166.15 199.00 164.21 203.80 160.04 206.67 C 160.46 203.91 161.17 201.14 162.79 198.82 C 167.47 191.57 173.67 185.35 177.86 177.76 C 180.03 173.87 179.43 169.27 179.47 165.01 C 179.25 158.85 179.84 152.65 179.02 146.52 C 179.67 144.07 180.45 141.65 180.88 139.15 Z" />
<path fill="#868686" opacity="0.97" d=" M 36.42 149.01 C 36.58 144.81 39.03 140.89 43.06 139.45 C 42.11 143.39 39.60 146.90 39.34 151.00 C 39.89 158.98 44.98 165.98 51.47 170.37 C 50.40 166.17 46.46 161.48 49.15 157.19 C 55.54 151.01 64.53 148.95 72.88 146.81 C 83.12 143.71 94.77 141.03 104.88 145.99 C 101.71 146.40 98.67 147.41 95.67 148.50 C 98.04 148.78 100.41 148.98 102.79 149.24 C 101.55 150.14 100.36 151.12 99.28 152.21 C 100.45 153.01 101.73 153.64 102.98 154.31 C 103.38 152.67 103.77 151.03 104.17 149.39 C 105.20 149.69 106.24 150.00 107.26 150.35 C 107.08 151.08 106.73 152.56 106.55 153.30 C 107.82 153.63 109.08 153.96 110.35 154.29 C 110.37 153.62 110.39 152.27 110.40 151.60 C 111.50 152.78 112.49 154.06 113.48 155.34 C 101.49 153.70 89.21 155.04 77.67 158.59 C 74.23 159.46 70.87 160.72 67.35 161.25 L 66.92 160.82 C 66.61 159.52 67.04 158.61 68.21 158.09 C 72.17 156.30 76.35 155.12 80.46 153.75 C 81.63 154.64 82.81 155.51 84.01 156.36 C 83.45 155.19 82.88 154.02 82.31 152.86 C 84.40 151.84 86.42 150.67 88.35 149.38 C 87.74 149.19 86.53 148.82 85.92 148.63 C 87.32 147.86 88.68 147.03 90.04 146.20 C 83.23 147.17 76.56 148.91 70.02 151.01 C 64.79 152.32 59.72 154.18 54.85 156.50 C 57.59 156.58 60.33 156.69 63.08 156.69 C 60.19 157.53 57.21 158.04 54.25 158.53 C 52.63 162.79 51.95 167.33 52.74 171.85 C 51.35 171.94 49.97 172.04 48.58 172.12 C 41.34 166.74 36.01 158.26 36.42 149.01 M 85.90 154.75 C 90.13 153.97 95.03 154.67 98.65 152.03 C 96.54 149.32 92.96 150.41 90.05 150.61 C 87.66 150.56 86.92 153.08 85.90 154.75 Z" />
<path fill="#868686" opacity="0.97" d=" M 74.05 161.91 C 80.65 160.66 87.35 159.82 94.07 159.77 C 99.04 159.68 103.75 161.97 107.37 165.26 C 106.56 165.75 104.96 166.73 104.15 167.21 C 101.45 165.98 98.95 164.17 96.04 163.47 C 91.15 163.98 86.09 165.57 81.22 164.02 C 79.20 163.34 77.17 162.70 75.11 162.19 L 74.05 161.91 Z" />
<path fill="#868686" opacity="0.97" d=" M 104.73 160.27 C 107.08 160.45 111.27 159.71 111.24 163.27 C 108.80 166.27 104.15 164.02 104.73 160.27 Z" />
<path fill="#868686" opacity="0.97" d=" M 132.50 165.35 C 133.52 165.36 134.53 165.36 135.55 165.37 C 135.53 168.43 135.70 171.51 135.25 174.55 C 134.50 178.25 132.13 181.31 130.32 184.55 C 129.16 184.57 127.99 184.58 126.83 184.60 C 128.61 181.08 131.37 177.98 132.12 174.02 C 132.60 171.15 132.45 168.24 132.50 165.35 Z" />
<path fill="#868686" opacity="0.97" d=" M 72.98 178.39 C 76.00 174.62 79.78 170.24 85.04 170.24 C 88.57 170.04 92.89 170.48 94.71 174.02 C 91.25 176.49 86.99 172.52 83.25 174.19 C 79.66 175.37 77.20 180.23 72.98 178.39 Z" />
<path fill="#868686" opacity="0.97" d=" M 122.82 177.78 C 124.97 175.12 126.03 171.74 128.25 169.10 C 129.43 173.87 127.11 179.44 122.51 181.45 C 120.00 182.87 117.04 182.69 114.27 182.81 C 114.22 181.76 114.17 180.71 114.13 179.67 C 117.03 179.34 120.41 179.72 122.82 177.78 Z" />
<path fill="#868686" opacity="0.97" d=" M 85.48 176.54 C 87.57 175.65 89.08 177.44 90.37 178.79 C 88.18 179.65 85.92 181.01 83.48 180.51 C 80.79 179.37 83.66 176.68 85.48 176.54 Z" />
<path fill="#868686" opacity="0.97" d=" M 110.27 214.95 C 111.99 212.44 114.09 210.21 116.59 208.46 C 116.11 210.66 115.56 212.83 114.99 215.01 C 113.42 214.98 111.84 214.96 110.27 214.95 Z" />
</g>
<g id="#010101ff">
<path fill="#010101" opacity="1.00" d=" M 17.33 5.11 C 41.88 4.83 66.43 5.11 90.98 4.97 C 94.05 4.95 97.13 4.96 100.16 5.46 C 93.62 11.45 84.35 11.67 76.01 12.12 C 68.36 12.44 63.50 19.28 56.55 21.49 C 51.53 23.14 46.34 24.36 41.05 24.70 C 34.81 24.95 30.07 29.87 26.73 34.68 C 22.74 40.60 21.95 47.79 21.01 54.67 C 19.12 54.95 17.22 55.24 15.32 55.47 C 15.42 54.11 15.51 52.75 15.63 51.40 C 16.59 50.55 17.68 49.78 18.34 48.66 C 17.37 42.78 14.16 37.49 10.39 32.97 C 10.40 32.54 10.41 31.69 10.42 31.26 C 10.42 24.88 10.27 18.47 11.19 12.13 C 10.72 13.04 10.58 14.09 10.45 15.10 C 8.40 12.16 12.01 10.83 13.70 9.04 C 14.93 7.75 16.13 6.44 17.33 5.11 Z" />
<path fill="#010101" opacity="1.00" d=" M 104.56 5.15 C 132.09 4.82 159.62 5.06 187.14 5.02 C 190.55 10.26 193.23 16.02 194.39 22.19 C 194.82 31.21 198.15 39.84 197.61 48.95 C 192.41 46.90 185.75 44.76 180.91 48.74 C 178.73 51.10 176.98 53.81 175.43 56.62 C 172.96 61.23 168.60 64.36 165.29 68.32 C 162.07 71.82 160.14 76.23 158.19 80.51 C 154.67 80.43 151.15 80.47 147.64 80.41 C 147.84 73.06 147.03 65.57 144.22 58.73 C 139.79 50.48 133.44 43.19 125.49 38.18 C 125.21 31.15 125.66 24.13 125.74 17.11 C 121.58 15.39 117.05 14.35 113.40 11.61 C 110.46 9.44 107.69 7.05 104.56 5.15 Z" />
<path fill="#010101" opacity="1.00" d=" M 66.35 55.40 C 68.71 53.33 70.82 50.55 74.19 50.23 C 69.99 56.96 60.97 59.94 58.84 68.07 C 57.58 71.15 60.20 73.69 61.13 76.44 C 57.86 73.64 54.75 68.72 57.58 64.57 C 59.35 60.54 63.25 58.28 66.35 55.40 Z" />
<path fill="#010101" opacity="1.00" d=" M 66.41 68.01 C 66.12 64.38 68.83 61.57 71.02 59.03 C 72.80 60.69 73.72 63.26 75.90 64.48 C 85.16 62.56 94.65 63.67 104.02 63.40 C 106.19 63.60 108.94 62.84 110.35 65.00 C 110.63 67.85 110.31 70.72 109.43 73.45 C 105.25 73.31 101.09 73.52 97.02 74.45 C 88.65 74.52 80.28 74.61 71.91 74.58 C 68.47 74.95 65.46 71.34 66.41 68.01 Z" />
<path fill="#010101" opacity="1.00" d=" M 17.27 67.57 C 17.37 65.62 17.59 63.68 17.76 61.73 C 19.64 63.11 20.58 65.15 20.89 67.41 C 19.69 67.46 18.48 67.52 17.27 67.57 Z" />
<path fill="#010101" opacity="1.00" d=" M 21.59 77.00 C 26.06 75.13 29.30 70.92 34.27 70.11 C 38.99 68.51 43.10 72.01 46.57 74.68 C 44.27 76.13 41.99 77.61 39.71 79.10 C 39.10 79.44 37.88 80.12 37.27 80.46 C 32.49 83.11 27.71 86.15 24.85 90.97 C 24.13 91.96 23.46 92.98 22.82 94.02 C 21.92 95.45 21.02 96.87 20.11 98.30 C 18.53 95.37 16.95 92.45 15.30 89.56 C 14.74 88.12 14.23 86.65 13.67 85.20 C 14.90 84.43 16.41 83.95 17.28 82.73 C 18.43 81.04 19.44 79.25 20.47 77.49 C 20.75 77.36 21.31 77.12 21.59 77.00 M 14.31 85.09 C 14.44 86.57 15.06 86.83 16.20 85.87 C 16.07 84.41 15.44 84.15 14.31 85.09 Z" />
<path fill="#010101" opacity="1.00" d=" M 73.90 86.88 C 75.50 83.51 78.05 80.77 80.65 78.15 C 80.42 80.21 80.14 82.26 79.69 84.28 C 77.99 85.58 76.04 86.55 73.90 86.88 Z" />
<path fill="#010101" opacity="1.00" d=" M 87.37 88.37 C 88.95 84.37 93.60 85.10 97.03 85.57 C 98.53 86.88 99.20 88.80 100.03 90.54 C 97.76 92.26 95.44 93.90 93.06 95.45 C 91.15 93.19 87.25 91.75 87.37 88.37 Z" />
<path fill="#010101" opacity="1.00" d=" M 26.19 101.67 C 31.29 96.96 37.20 90.84 44.88 92.53 C 42.22 93.72 39.35 94.35 36.71 95.56 C 34.57 97.25 32.86 99.41 31.02 101.41 C 30.26 102.26 29.50 103.12 28.66 103.91 C 27.79 103.22 26.99 102.44 26.19 101.67 Z" />
<path fill="#010101" opacity="1.00" d=" M 43.02 96.62 C 46.13 96.67 49.24 96.68 52.34 96.62 C 52.37 98.22 52.41 99.82 52.46 101.42 C 51.33 103.77 49.35 105.48 47.20 106.86 C 45.40 106.13 43.16 105.79 42.02 104.04 C 41.26 102.58 40.92 100.96 40.45 99.40 C 41.29 98.46 42.15 97.53 43.02 96.62 Z" />
<path fill="#010101" opacity="1.00" d=" M 51.32 105.94 C 52.37 105.11 53.43 104.28 54.50 103.47 C 54.53 104.67 54.57 105.88 54.61 107.08 C 53.51 106.70 52.42 106.33 51.32 105.94 Z" />
<path fill="#010101" opacity="1.00" d=" M 190.58 119.75 C 191.27 117.35 193.10 115.58 194.63 113.70 C 194.80 118.28 194.17 122.84 193.05 127.27 C 192.96 127.63 192.78 128.34 192.70 128.69 C 190.86 136.43 191.20 144.52 189.47 152.29 C 188.86 154.38 187.05 155.79 185.68 157.38 C 185.49 151.52 186.87 145.79 187.17 139.97 C 187.46 133.12 188.55 126.29 190.58 119.75 Z" />
<path fill="#010101" opacity="1.00" d=" M 44.83 138.26 C 45.28 137.17 45.71 136.07 46.11 134.97 C 46.59 136.33 47.18 137.66 47.75 138.99 C 49.94 138.24 52.12 137.45 54.35 136.85 C 54.42 138.08 54.48 139.31 54.54 140.55 C 51.15 140.60 47.31 141.14 44.83 138.26 Z" />
<path fill="#010101" opacity="1.00" d=" M 178.27 135.89 C 179.07 136.71 179.87 137.52 180.65 138.36 L 180.88 139.15 C 180.45 141.65 179.67 144.07 179.02 146.52 C 178.36 143.02 178.32 139.44 178.27 135.89 Z" />
<path fill="#010101" opacity="1.00" d=" M 95.67 148.50 C 98.67 147.41 101.71 146.40 104.88 145.99 C 108.83 147.66 113.21 149.43 115.38 153.40 C 119.32 159.30 119.37 166.57 120.43 173.34 C 117.44 173.44 114.41 173.76 111.44 173.35 C 106.29 171.39 102.26 167.13 97.00 165.58 C 91.21 165.55 84.89 164.34 79.61 167.33 C 75.94 169.14 71.59 168.92 68.02 170.96 C 65.93 172.91 64.71 175.64 62.46 177.45 C 60.67 177.93 58.90 177.18 57.17 176.79 C 55.69 176.51 54.17 176.59 52.67 176.64 C 51.47 174.99 50.08 173.49 48.58 172.12 C 49.97 172.04 51.35 171.94 52.74 171.85 C 51.95 167.33 52.63 162.79 54.25 158.53 C 57.21 158.04 60.19 157.53 63.08 156.69 C 70.82 154.39 78.33 151.38 85.92 148.63 C 86.53 148.82 87.74 149.19 88.35 149.38 C 86.42 150.67 84.40 151.84 82.31 152.86 C 81.85 153.08 80.92 153.53 80.46 153.75 C 76.35 155.12 72.17 156.30 68.21 158.09 C 67.04 158.61 66.61 159.52 66.92 160.82 L 67.35 161.25 C 70.87 160.72 74.23 159.46 77.67 158.59 C 89.21 155.04 101.49 153.70 113.48 155.34 C 112.49 154.06 111.50 152.78 110.40 151.60 C 109.37 151.13 108.32 150.72 107.26 150.35 C 106.24 150.00 105.20 149.69 104.17 149.39 C 103.82 149.36 103.13 149.28 102.79 149.24 C 100.41 148.98 98.04 148.78 95.67 148.50 M 59.07 160.70 C 59.59 161.99 60.15 163.28 60.69 164.57 C 62.16 163.43 64.57 163.01 65.04 161.01 C 64.60 157.89 60.96 160.54 59.07 160.70 M 74.05 161.91 L 75.11 162.19 C 70.89 163.04 66.86 164.89 63.35 167.37 C 61.05 169.79 59.61 172.90 57.80 175.69 C 61.89 176.47 63.24 171.97 65.91 169.89 C 70.18 165.96 76.89 167.92 81.22 164.02 C 86.09 165.57 91.15 163.98 96.04 163.47 C 98.95 164.17 101.45 165.98 104.15 167.21 C 107.69 169.42 111.19 171.81 115.25 172.96 C 115.68 172.17 116.55 170.57 116.98 169.78 C 113.68 168.48 110.43 167.04 107.37 165.26 C 103.75 161.97 99.04 159.68 94.07 159.77 C 87.35 159.82 80.65 160.66 74.05 161.91 M 104.73 160.27 C 104.15 164.02 108.80 166.27 111.24 163.27 C 111.27 159.71 107.08 160.45 104.73 160.27 M 111.39 161.42 C 111.18 163.57 112.59 165.19 113.72 166.84 C 114.50 166.46 116.06 165.70 116.84 165.32 C 116.27 164.03 115.70 162.74 115.02 161.51 C 114.11 161.49 112.30 161.44 111.39 161.42 Z" />
<path fill="#010101" opacity="1.00" d=" M 201.00 209.30 C 201.80 211.49 202.57 213.69 203.07 215.98 C 202.93 215.68 202.64 215.08 202.50 214.79 C 201.81 213.01 201.40 211.15 201.00 209.30 Z" />
</g>
<g id="#fefefeff">
<path fill="#fefefe" opacity="1.00" d=" M 90.65 11.73 C 94.93 10.65 98.69 8.06 103.01 7.18 C 106.62 7.09 109.23 10.12 111.99 12.03 C 115.45 15.04 120.05 15.94 124.04 17.98 C 125.85 24.55 121.22 32.19 125.49 38.18 C 133.44 43.19 139.79 50.48 144.22 58.73 C 147.03 65.57 147.84 73.06 147.64 80.41 C 151.15 80.47 154.67 80.43 158.19 80.51 C 160.14 76.23 162.07 71.82 165.29 68.32 C 168.60 64.36 172.96 61.23 175.43 56.62 C 176.98 53.81 178.73 51.10 180.91 48.74 C 184.79 48.30 188.77 47.67 192.65 48.44 C 195.57 49.54 197.41 52.28 199.53 54.44 C 195.57 52.73 191.40 50.97 186.98 51.54 C 182.58 51.67 180.39 56.07 178.17 59.22 C 176.63 61.23 176.08 63.70 176.20 66.20 C 179.33 63.25 181.46 59.48 184.38 56.35 C 186.65 53.63 190.70 54.33 193.78 54.85 C 197.55 56.75 198.68 61.13 199.96 64.80 C 201.66 69.56 202.89 74.55 202.50 79.65 C 201.11 77.59 199.81 75.47 198.50 73.36 C 197.16 73.41 195.82 73.47 194.48 73.52 C 194.51 77.67 195.02 81.85 194.36 85.98 C 193.55 89.69 191.66 93.04 190.41 96.60 C 195.00 95.64 198.96 93.14 201.70 89.32 C 201.59 93.35 202.10 97.62 200.33 101.38 C 198.59 105.17 196.48 108.78 194.23 112.28 C 190.69 117.92 183.26 118.01 177.52 119.82 C 178.45 125.14 178.34 130.52 178.27 135.89 C 178.32 139.44 178.36 143.02 179.02 146.52 C 179.84 152.65 179.25 158.85 179.47 165.01 C 179.43 169.27 180.03 173.87 177.86 177.76 C 173.67 185.35 167.47 191.57 162.79 198.82 C 161.17 201.14 160.46 203.91 160.04 206.67 C 164.21 203.80 166.15 199.00 169.05 195.04 C 172.82 189.85 177.26 185.10 180.43 179.47 C 183.50 173.80 182.18 167.16 182.36 161.01 C 182.04 153.73 183.39 146.17 180.88 139.15 L 180.65 138.36 C 180.37 133.03 180.58 127.67 181.07 122.36 C 183.76 121.54 186.44 120.69 189.13 119.86 C 187.02 127.75 185.60 135.82 185.42 143.99 C 184.13 153.62 183.94 163.39 184.91 173.06 C 185.60 179.69 185.17 186.52 187.25 192.94 C 188.33 196.43 191.54 198.74 192.64 202.24 C 194.09 206.41 195.00 210.75 196.21 215.00 C 169.14 215.00 142.06 214.99 114.99 215.01 C 115.56 212.83 116.11 210.66 116.59 208.46 C 114.09 210.21 111.99 212.44 110.27 214.95 C 94.38 215.10 78.48 214.90 62.58 215.05 C 61.96 211.02 61.56 206.97 61.37 202.90 C 62.87 202.24 64.37 201.58 65.88 200.93 C 64.70 195.83 63.20 190.74 60.74 186.09 C 59.22 183.14 57.42 180.18 57.17 176.79 C 58.90 177.18 60.67 177.93 62.46 177.45 C 64.71 175.64 65.93 172.91 68.02 170.96 C 71.59 168.92 75.94 169.14 79.61 167.33 C 84.89 164.34 91.21 165.55 97.00 165.58 C 102.26 167.13 106.29 171.39 111.44 173.35 C 114.41 173.76 117.44 173.44 120.43 173.34 C 119.37 166.57 119.32 159.30 115.38 153.40 C 113.21 149.43 108.83 147.66 104.88 145.99 C 94.77 141.03 83.12 143.71 72.88 146.81 C 64.53 148.95 55.54 151.01 49.15 157.19 C 46.46 161.48 50.40 166.17 51.47 170.37 C 44.98 165.98 39.89 158.98 39.34 151.00 C 39.60 146.90 42.11 143.39 43.06 139.45 C 39.03 140.89 36.58 144.81 36.42 149.01 C 36.01 158.26 41.34 166.74 48.58 172.12 C 50.08 173.49 51.47 174.99 52.67 176.64 C 56.04 183.53 60.20 190.20 61.57 197.87 C 57.94 194.18 55.65 189.49 52.67 185.31 C 48.24 178.87 42.11 173.77 38.00 167.09 C 33.25 158.66 28.15 150.35 24.69 141.28 C 22.11 134.86 24.89 127.99 26.81 121.78 C 27.66 118.35 30.46 116.09 33.05 113.95 C 31.88 112.74 30.71 111.54 29.56 110.32 C 32.93 110.61 36.34 111.23 39.71 110.71 C 42.49 110.09 44.86 108.41 47.20 106.86 C 49.35 105.48 51.33 103.77 52.46 101.42 C 53.24 100.02 53.96 98.58 54.68 97.15 C 54.58 99.26 54.48 101.36 54.50 103.47 C 53.43 104.28 52.37 105.11 51.32 105.94 C 45.89 110.22 42.57 116.47 39.45 122.49 C 36.47 128.13 35.39 134.52 35.15 140.83 C 35.73 140.72 36.91 140.48 37.50 140.37 C 39.13 128.49 44.14 116.84 52.75 108.36 C 51.69 115.76 49.31 122.97 45.57 129.46 C 43.82 132.12 43.16 135.37 44.83 138.26 C 47.31 141.14 51.15 140.60 54.54 140.55 C 54.48 139.31 54.42 138.08 54.35 136.85 C 52.12 137.45 49.94 138.24 47.75 138.99 C 47.18 137.66 46.59 136.33 46.11 134.97 C 46.10 134.60 46.07 133.86 46.06 133.49 C 47.57 134.13 49.08 134.77 50.60 135.41 C 48.98 127.27 53.79 120.06 55.17 112.30 C 56.22 106.50 58.51 100.62 57.24 94.67 C 56.08 89.78 54.75 84.30 50.12 81.51 C 50.56 84.09 51.22 86.63 51.93 89.15 C 47.33 85.76 42.05 83.54 37.27 80.46 C 37.88 80.12 39.10 79.44 39.71 79.10 C 42.51 77.97 45.38 76.99 48.21 75.91 C 45.68 72.49 42.48 68.70 37.91 68.39 C 32.15 68.28 27.11 71.54 22.85 75.10 C 20.57 67.06 22.49 58.74 23.14 50.62 C 23.65 42.10 27.20 33.37 34.33 28.31 C 38.13 25.50 43.13 26.29 47.50 25.28 C 52.55 24.15 57.79 23.02 62.15 20.09 C 66.42 17.33 70.63 13.76 75.96 13.56 C 80.90 13.39 85.91 13.33 90.65 11.73 M 66.35 55.40 C 63.25 58.28 59.35 60.54 57.58 64.57 C 54.75 68.72 57.86 73.64 61.13 76.44 C 60.20 73.69 57.58 71.15 58.84 68.07 C 60.97 59.94 69.99 56.96 74.19 50.23 C 70.82 50.55 68.71 53.33 66.35 55.40 M 66.41 68.01 C 65.46 71.34 68.47 74.95 71.91 74.58 C 80.28 74.61 88.65 74.52 97.02 74.45 C 101.09 73.52 105.25 73.31 109.43 73.45 C 110.31 70.72 110.63 67.85 110.35 65.00 C 108.94 62.84 106.19 63.60 104.02 63.40 C 94.65 63.67 85.16 62.56 75.90 64.48 C 73.72 63.26 72.80 60.69 71.02 59.03 C 68.83 61.57 66.12 64.38 66.41 68.01 M 45.04 62.77 C 46.31 64.18 47.96 65.37 48.69 67.18 C 50.16 70.39 50.19 74.66 53.89 76.28 C 53.11 71.19 53.01 64.87 48.62 61.41 C 47.30 61.46 46.22 62.28 45.04 62.77 M 179.43 70.69 C 178.22 74.87 176.96 79.04 176.16 83.32 C 180.00 83.10 180.46 79.21 181.21 76.23 C 183.46 76.41 185.72 76.54 187.97 76.45 C 185.71 73.76 182.69 71.90 179.43 70.69 M 80.65 78.15 C 78.05 80.77 75.50 83.51 73.90 86.88 C 76.04 86.55 77.99 85.58 79.69 84.28 C 84.18 85.32 88.33 82.74 92.77 82.56 C 90.62 84.10 87.87 85.15 86.50 87.54 C 85.39 90.33 88.19 92.56 89.36 94.80 C 87.91 94.79 86.46 94.81 85.01 94.72 C 80.40 95.05 79.42 88.69 74.87 88.42 C 75.96 93.33 79.54 98.36 85.01 98.52 C 90.99 98.49 96.24 95.00 100.90 91.59 C 100.49 88.16 99.91 84.76 99.52 81.33 C 93.28 80.19 87.10 76.52 80.65 78.15 M 63.55 91.44 C 64.64 91.58 65.73 91.72 66.82 91.86 C 66.34 88.50 65.79 85.15 65.11 81.82 C 62.18 84.39 62.43 88.07 63.55 91.44 M 173.82 84.88 C 175.01 88.00 177.35 90.67 177.97 94.00 C 177.85 97.99 177.38 101.97 177.66 105.97 C 182.39 104.71 185.78 100.95 189.06 97.56 C 185.51 95.47 182.84 99.46 180.15 101.15 C 180.42 98.53 180.88 95.89 180.70 93.24 C 180.35 89.41 178.11 85.12 173.82 84.88 M 106.80 91.68 C 106.00 94.30 105.61 97.57 102.87 98.94 C 98.29 101.99 92.65 101.98 87.37 102.38 C 87.37 103.02 87.38 104.30 87.38 104.93 C 93.76 106.16 100.41 104.30 105.67 100.65 C 108.69 98.49 109.32 94.68 109.46 91.23 C 108.79 91.34 107.46 91.57 106.80 91.68 M 88.05 115.74 C 90.72 118.38 94.30 119.63 97.46 121.52 C 100.76 123.45 103.29 126.36 105.90 129.10 C 109.83 133.36 113.97 137.90 115.22 143.74 C 116.04 146.19 116.31 149.79 119.64 149.91 C 118.93 141.10 114.56 132.87 108.05 126.96 C 102.65 121.64 96.50 114.27 88.05 115.74 M 75.83 121.71 C 78.37 121.35 80.84 120.47 83.42 120.49 C 85.30 121.96 87.26 124.27 86.37 126.83 C 85.20 128.47 83.69 129.97 81.84 130.80 C 79.50 130.60 77.28 129.72 74.94 129.51 C 69.70 129.61 65.13 132.80 62.13 136.93 C 63.02 137.82 63.92 138.72 64.82 139.60 C 66.49 137.40 67.98 134.77 70.65 133.65 C 75.08 132.30 79.75 134.19 84.20 133.12 C 88.27 131.09 90.80 125.72 88.46 121.50 C 86.63 116.11 77.05 115.71 75.83 121.71 M 132.50 165.35 C 132.45 168.24 132.60 171.15 132.12 174.02 C 131.37 177.98 128.61 181.08 126.83 184.60 C 127.99 184.58 129.16 184.57 130.32 184.55 C 132.13 181.31 134.50 178.25 135.25 174.55 C 135.70 171.51 135.53 168.43 135.55 165.37 C 134.53 165.36 133.52 165.36 132.50 165.35 M 72.98 178.39 C 77.20 180.23 79.66 175.37 83.25 174.19 C 86.99 172.52 91.25 176.49 94.71 174.02 C 92.89 170.48 88.57 170.04 85.04 170.24 C 79.78 170.24 76.00 174.62 72.98 178.39 M 122.82 177.78 C 120.41 179.72 117.03 179.34 114.13 179.67 C 114.17 180.71 114.22 181.76 114.27 182.81 C 117.04 182.69 120.00 182.87 122.51 181.45 C 127.11 179.44 129.43 173.87 128.25 169.10 C 126.03 171.74 124.97 175.12 122.82 177.78 M 85.48 176.54 C 83.66 176.68 80.79 179.37 83.48 180.51 C 85.92 181.01 88.18 179.65 90.37 178.79 C 89.08 177.44 87.57 175.65 85.48 176.54 Z" />
<path fill="#fefefe" opacity="1.00" d=" M 24.85 90.97 C 27.50 88.70 29.93 85.97 33.15 84.51 C 37.28 84.68 41.25 86.37 44.89 88.23 C 47.59 89.53 48.41 92.59 49.69 95.04 C 47.45 95.48 45.20 95.91 43.02 96.62 C 42.15 97.53 41.29 98.46 40.45 99.40 C 40.07 101.96 40.58 104.51 41.17 106.99 C 38.11 107.33 34.17 108.90 31.80 106.15 C 31.34 104.61 31.22 102.99 31.02 101.41 C 32.86 99.41 34.57 97.25 36.71 95.56 C 39.35 94.35 42.22 93.72 44.88 92.53 C 37.20 90.84 31.29 96.96 26.19 101.67 C 25.24 102.50 24.23 103.26 23.24 104.04 C 22.40 100.77 22.12 97.35 22.82 94.02 C 23.46 92.98 24.13 91.96 24.85 90.97 Z" />
<path fill="#fefefe" opacity="1.00" d=" M 70.02 151.01 C 76.56 148.91 83.23 147.17 90.04 146.20 C 88.68 147.03 87.32 147.86 85.92 148.63 C 78.33 151.38 70.82 154.39 63.08 156.69 C 60.33 156.69 57.59 156.58 54.85 156.50 C 59.72 154.18 64.79 152.32 70.02 151.01 Z" />
<path fill="#fefefe" opacity="1.00" d=" M 99.28 152.21 C 100.36 151.12 101.55 150.14 102.79 149.24 C 103.13 149.28 103.82 149.36 104.17 149.39 C 103.77 151.03 103.38 152.67 102.98 154.31 C 101.73 153.64 100.45 153.01 99.28 152.21 Z" />
<path fill="#fefefe" opacity="1.00" d=" M 85.90 154.75 C 86.92 153.08 87.66 150.56 90.05 150.61 C 92.96 150.41 96.54 149.32 98.65 152.03 C 95.03 154.67 90.13 153.97 85.90 154.75 Z" />
<path fill="#fefefe" opacity="1.00" d=" M 107.26 150.35 C 108.32 150.72 109.37 151.13 110.40 151.60 C 110.39 152.27 110.37 153.62 110.35 154.29 C 109.08 153.96 107.82 153.63 106.55 153.30 C 106.73 152.56 107.08 151.08 107.26 150.35 Z" />
<path fill="#fefefe" opacity="1.00" d=" M 80.46 153.75 C 80.92 153.53 81.85 153.08 82.31 152.86 C 82.88 154.02 83.45 155.19 84.01 156.36 C 82.81 155.51 81.63 154.64 80.46 153.75 Z" />
<path fill="#fefefe" opacity="1.00" d=" M 59.07 160.70 C 60.96 160.54 64.60 157.89 65.04 161.01 C 64.57 163.01 62.16 163.43 60.69 164.57 C 60.15 163.28 59.59 161.99 59.07 160.70 Z" />
<path fill="#fefefe" opacity="1.00" d=" M 111.39 161.42 C 112.30 161.44 114.11 161.49 115.02 161.51 C 115.70 162.74 116.27 164.03 116.84 165.32 C 116.06 165.70 114.50 166.46 113.72 166.84 C 112.59 165.19 111.18 163.57 111.39 161.42 Z" />
<path fill="#fefefe" opacity="1.00" d=" M 63.35 167.37 C 66.86 164.89 70.89 163.04 75.11 162.19 C 77.17 162.70 79.20 163.34 81.22 164.02 C 76.89 167.92 70.18 165.96 65.91 169.89 C 63.24 171.97 61.89 176.47 57.80 175.69 C 59.61 172.90 61.05 169.79 63.35 167.37 Z" />
<path fill="#fefefe" opacity="1.00" d=" M 104.15 167.21 C 104.96 166.73 106.56 165.75 107.37 165.26 C 110.43 167.04 113.68 168.48 116.98 169.78 C 116.55 170.57 115.68 172.17 115.25 172.96 C 111.19 171.81 107.69 169.42 104.15 167.21 Z" />
</g>
</svg>
