<?xml version="1.0" encoding="UTF-8" ?>
<!DOCTYPE svg PUBLIC "-//W3C//DTD SVG 1.1//EN" "http://www.w3.org/Graphics/SVG/1.1/DTD/svg11.dtd">
<svg width="210pt" height="220pt" viewBox="0 0 210 220" version="1.1" xmlns="http://www.w3.org/2000/svg">
<g id="#030303fe">
<path fill="#030303" opacity="1.00" d=" M 108.08 13.04 C 113.59 11.65 119.28 10.96 124.97 11.28 C 131.69 11.25 137.88 15.52 144.69 13.46 C 143.94 14.89 142.98 16.23 142.52 17.80 C 145.87 21.03 149.77 23.64 153.14 26.86 C 158.02 31.10 161.52 36.60 165.73 41.45 C 169.07 45.40 172.43 49.54 174.15 54.49 C 175.21 58.27 175.35 62.27 176.69 65.99 C 178.16 70.53 181.65 73.96 184.07 77.97 C 187.93 84.29 190.97 91.09 193.42 98.07 C 194.64 101.23 194.40 104.68 194.42 108.01 C 194.16 118.40 196.17 128.72 195.26 139.11 C 194.66 144.47 194.99 149.86 194.58 155.22 C 194.00 154.95 192.85 154.41 192.27 154.13 C 191.66 141.32 193.91 128.17 189.96 115.70 C 187.99 109.77 193.84 104.32 191.36 98.42 C 189.33 92.62 186.98 86.74 183.26 81.81 C 183.03 90.14 188.69 96.94 190.66 104.76 C 190.06 105.49 189.46 106.22 188.85 106.94 C 184.12 95.65 180.49 83.95 176.40 72.42 C 173.70 65.86 167.82 61.28 164.94 54.81 C 164.24 53.52 164.45 51.99 164.39 50.59 C 168.82 52.99 168.64 58.99 172.92 61.46 C 171.38 52.29 163.19 46.76 158.58 39.24 C 155.99 35.98 155.55 31.34 152.21 28.66 C 148.17 25.30 143.82 22.33 139.76 19.00 C 136.29 20.17 133.84 22.93 131.18 25.28 C 133.87 25.52 136.82 25.52 138.32 28.24 C 131.45 28.59 124.72 26.95 117.93 26.25 C 113.57 25.64 109.14 25.89 104.81 25.04 C 105.64 24.48 106.47 23.92 107.31 23.38 C 110.07 23.57 112.87 23.79 115.64 23.48 C 117.12 20.29 117.91 16.84 118.94 13.49 C 109.61 14.91 100.43 17.10 91.16 18.79 C 89.13 19.13 87.34 20.20 85.62 21.27 C 92.49 21.53 99.61 20.36 106.17 23.02 C 105.34 23.58 104.50 24.15 103.66 24.71 C 96.94 23.66 90.10 23.17 83.33 24.06 C 78.37 24.69 72.78 24.29 68.65 27.63 C 62.08 32.50 57.66 39.61 51.50 44.94 C 51.20 46.85 51.52 48.97 50.64 50.74 C 48.63 52.07 46.07 52.57 44.39 54.39 C 42.65 56.34 41.35 58.63 39.55 60.54 C 35.77 64.70 31.10 68.28 28.77 73.55 C 27.32 76.87 27.92 80.55 27.53 84.06 C 26.79 90.34 22.81 95.71 22.14 102.01 C 21.43 105.97 22.36 109.97 22.18 113.96 C 21.98 121.29 20.71 128.82 22.73 136.02 C 24.04 140.73 24.71 145.62 26.38 150.24 C 28.47 156.17 30.54 162.15 31.53 168.39 C 27.97 167.09 27.81 163.03 26.81 159.95 C 23.20 149.36 20.04 138.30 20.48 127.01 C 20.38 121.37 19.36 115.78 19.48 110.12 L 18.63 110.38 C 18.85 119.23 18.66 128.09 18.57 136.93 C 19.76 144.64 21.31 152.30 22.68 159.98 C 24.70 164.40 28.27 168.10 29.19 173.05 C 29.62 171.97 30.47 169.81 30.90 168.72 C 33.65 172.13 33.86 176.91 37.11 179.98 C 39.77 182.68 41.13 186.32 43.54 189.20 C 48.90 193.24 55.33 195.48 61.20 198.64 C 62.86 199.25 63.16 201.15 63.97 202.50 C 63.47 202.44 62.49 202.33 61.99 202.27 C 57.99 200.19 54.38 197.39 50.14 195.79 C 46.28 194.29 42.34 192.30 40.03 188.71 C 38.09 185.74 36.28 182.60 33.39 180.43 C 33.20 187.21 35.40 193.73 38.06 199.87 C 38.12 200.70 38.26 202.35 38.33 203.18 C 34.50 200.81 34.28 196.04 32.75 192.24 C 31.09 188.00 30.64 183.47 30.05 179.00 C 27.65 172.84 23.92 167.30 20.78 161.51 C 19.15 158.26 19.73 154.48 18.65 151.07 C 16.40 142.90 16.07 134.41 16.16 125.98 C 15.50 112.67 15.99 99.34 15.76 86.02 C 15.41 84.15 16.36 82.47 18.28 82.03 C 18.39 91.29 18.24 100.56 18.45 109.83 C 18.88 109.76 19.74 109.64 20.17 109.57 C 20.17 105.11 19.61 100.51 20.98 96.18 C 22.33 91.85 24.15 87.68 25.11 83.23 C 23.83 84.49 22.59 85.80 21.33 87.08 C 21.27 84.49 20.93 81.77 22.00 79.33 C 23.19 76.77 25.02 74.57 26.22 72.01 C 27.13 67.64 25.50 63.01 27.13 58.76 C 28.04 61.29 28.39 63.96 28.17 66.63 C 28.55 66.67 29.30 66.75 29.67 66.79 C 33.94 61.78 37.84 56.43 40.82 50.54 C 36.81 51.00 32.80 51.47 28.76 51.52 C 28.58 50.54 28.40 49.56 28.23 48.58 C 32.05 48.61 35.88 48.59 39.71 48.61 C 39.69 48.00 39.67 46.77 39.65 46.16 C 41.86 46.30 44.06 46.46 46.26 46.64 C 48.58 44.13 51.10 41.81 53.44 39.32 C 57.26 34.89 60.68 30.06 65.06 26.14 C 70.57 21.24 78.45 21.67 84.86 18.66 C 92.19 15.29 100.37 15.07 108.08 13.04 M 121.63 14.06 C 121.77 17.30 121.80 20.54 121.78 23.79 C 126.78 23.32 129.41 18.35 132.17 14.77 C 128.73 13.89 125.14 13.14 121.63 14.06 M 129.02 21.41 C 132.10 22.93 135.23 20.20 135.97 17.26 C 133.02 17.29 130.76 19.26 129.02 21.41 Z" />
<path fill="#030303" opacity="1.00" d=" M 131.44 42.68 C 136.04 42.37 140.73 41.86 145.30 42.77 C 151.49 45.21 154.30 51.73 158.90 56.07 C 162.84 59.32 164.80 64.17 167.95 68.08 C 170.29 72.77 172.35 77.80 172.76 83.08 C 173.35 89.58 169.23 96.44 162.92 98.44 C 160.49 99.40 157.86 99.35 155.29 99.45 C 155.28 99.26 155.25 98.89 155.24 98.71 C 161.32 97.03 168.20 93.94 170.20 87.39 C 171.36 79.78 167.25 72.75 163.53 66.45 L 164.44 65.65 C 163.37 65.24 162.31 64.83 161.25 64.39 C 162.45 62.42 159.94 61.24 158.99 59.90 C 153.98 55.67 151.05 49.43 145.58 45.71 C 143.10 43.89 139.89 44.60 137.04 44.34 C 135.62 44.09 134.35 44.62 133.22 45.40 C 131.65 46.77 131.11 43.39 131.44 42.68 Z" />
<path fill="#030303" opacity="1.00" d=" M 133.87 46.76 C 136.33 45.82 138.87 44.98 141.57 45.14 C 140.49 47.31 138.06 47.73 136.06 48.53 C 132.39 49.62 130.36 53.15 127.52 55.45 C 122.20 60.00 118.14 66.17 116.66 73.05 C 116.07 75.61 117.86 77.79 119.35 79.64 C 122.75 83.85 125.35 88.88 129.91 92.02 C 132.16 93.69 134.95 94.33 137.44 95.55 C 137.42 96.00 137.38 96.89 137.37 97.34 C 127.39 96.24 121.01 87.69 116.18 79.75 C 113.73 76.30 114.48 71.74 115.68 67.96 C 118.17 60.77 123.62 55.07 129.42 50.36 C 130.37 49.34 132.39 48.35 131.25 46.60 C 131.90 46.64 133.21 46.72 133.87 46.76 Z" />
<path fill="#030303" opacity="1.00" d=" M 63.26 48.43 C 65.01 47.36 65.26 49.81 65.48 51.00 C 64.78 55.92 63.20 60.96 59.56 64.53 C 55.28 69.09 49.51 71.76 44.44 75.28 C 40.85 77.70 40.04 83.45 35.12 83.93 C 35.27 81.99 34.92 79.80 36.27 78.18 C 40.68 71.03 49.63 69.10 55.32 63.26 C 59.91 59.50 60.24 53.18 63.26 48.43 Z" />
<path fill="#030303" opacity="1.00" d=" M 143.70 66.25 C 144.18 62.52 141.18 56.39 146.27 54.93 C 146.35 58.15 146.31 61.37 146.31 64.58 C 150.88 66.79 156.15 66.74 160.67 64.36 C 161.22 67.55 156.92 68.31 154.72 69.23 C 150.94 68.72 147.36 67.25 143.70 66.25 Z" />
<path fill="#030303" opacity="1.00" d=" M 109.93 64.09 C 111.69 66.06 111.71 68.62 111.29 71.10 C 110.86 71.24 110.00 71.51 109.57 71.65 C 108.37 69.16 108.74 66.51 109.93 64.09 Z" />
<path fill="#030303" opacity="1.00" d=" M 60.05 69.05 C 65.73 67.72 71.49 69.57 77.03 70.73 C 81.70 71.81 84.39 76.07 88.15 78.63 C 89.52 79.70 91.07 80.62 92.07 82.07 C 91.84 88.22 90.95 94.87 86.83 99.74 C 81.29 106.74 76.08 114.41 68.47 119.33 C 63.50 119.87 58.43 119.82 53.45 119.39 C 50.41 118.05 47.96 115.65 45.68 113.29 C 43.14 110.81 43.80 106.96 43.30 103.76 C 43.07 99.38 40.01 95.53 40.68 91.07 C 41.24 86.76 42.39 82.45 44.38 78.58 C 48.64 74.17 54.14 70.75 60.05 69.05 M 59.47 71.62 C 53.81 74.06 47.99 77.28 44.78 82.76 C 43.08 86.77 42.77 91.21 42.42 95.51 C 45.02 95.29 47.64 94.89 50.13 94.05 C 52.71 93.17 55.26 90.71 54.40 87.74 C 52.08 85.13 46.76 87.89 45.51 83.80 C 48.82 83.65 52.13 83.98 55.41 84.42 C 56.47 87.42 58.05 91.68 55.03 94.04 C 52.39 97.28 47.79 96.59 44.48 98.71 C 44.98 104.34 45.76 110.75 50.43 114.57 C 54.88 118.74 61.50 117.14 67.01 117.24 C 73.59 113.21 78.06 106.68 82.93 100.86 C 86.58 96.50 89.27 91.26 89.96 85.57 C 87.63 85.55 85.31 85.49 82.99 85.34 C 81.95 81.49 81.05 77.02 77.45 74.70 C 72.26 71.35 65.45 69.04 59.47 71.62 M 84.75 80.39 C 84.68 81.01 84.55 82.25 84.49 82.87 C 85.91 83.52 87.44 83.78 88.99 83.87 C 89.12 81.37 86.96 80.22 84.75 80.39 Z" />
<path fill="#030303" opacity="1.00" d=" M 150.44 117.51 C 151.93 117.86 153.89 117.52 154.88 118.99 C 159.34 124.52 164.78 129.54 167.68 136.12 C 168.99 143.01 168.38 150.15 167.44 157.06 C 167.32 158.27 166.99 159.46 166.33 160.49 C 162.50 163.63 157.17 163.94 153.30 167.02 C 147.50 171.77 140.65 174.96 134.50 179.20 C 129.69 181.11 124.55 182.09 119.67 183.82 L 119.10 184.17 C 115.73 185.18 112.36 186.20 108.96 187.14 C 107.03 187.47 105.10 187.81 103.20 188.26 C 99.08 188.40 94.82 188.90 90.83 187.59 C 84.34 185.68 79.08 181.22 73.60 177.46 C 66.36 172.68 62.54 164.50 56.30 158.68 C 53.18 155.75 48.24 155.76 45.47 152.36 C 44.30 151.21 44.68 149.44 44.42 147.98 C 47.81 149.39 51.37 150.63 55.11 150.23 C 57.42 152.83 59.27 156.34 62.86 157.33 C 66.88 158.64 71.10 159.20 75.27 159.77 C 80.75 161.47 86.20 163.87 92.06 163.48 C 99.16 163.58 106.00 161.32 112.55 158.81 C 117.28 156.99 122.58 156.62 126.95 153.95 C 131.30 149.65 136.48 145.75 138.67 139.81 C 141.42 139.27 144.18 138.05 145.75 135.61 C 149.54 130.33 148.97 123.54 150.44 117.51 M 152.94 124.40 C 151.91 129.90 150.60 135.52 147.36 140.19 C 149.17 142.21 151.67 143.38 154.37 143.55 C 157.36 137.79 159.44 129.92 154.67 124.50 C 154.24 124.48 153.37 124.43 152.94 124.40 M 160.69 131.10 C 161.21 139.87 156.49 147.63 152.09 154.82 C 156.18 154.84 160.28 154.94 164.35 154.55 C 164.48 146.70 166.72 137.45 160.69 131.10 M 134.07 152.21 C 134.64 154.56 135.54 156.81 136.39 159.07 C 142.19 155.46 149.66 153.30 153.02 146.85 C 152.23 146.72 150.64 146.46 149.84 146.33 C 147.55 145.32 145.30 144.22 143.08 143.08 C 140.12 146.16 137.17 149.27 134.07 152.21 M 129.17 157.19 C 121.88 159.79 114.44 161.93 107.19 164.63 C 107.22 165.14 107.29 166.16 107.33 166.67 C 115.90 164.97 124.16 162.03 132.68 160.12 C 132.23 158.79 131.76 157.46 131.29 156.13 C 130.58 156.48 129.87 156.83 129.17 157.19 M 140.29 162.88 C 144.02 161.58 147.41 159.37 149.89 156.28 C 146.07 157.34 142.28 159.30 140.29 162.88 M 154.47 158.73 C 151.82 159.74 149.88 161.94 147.42 163.29 C 141.93 166.37 135.67 167.73 130.19 170.83 C 131.19 172.10 132.18 173.38 133.15 174.68 C 139.99 172.74 145.69 168.30 151.21 164.01 C 154.11 161.58 158.02 161.13 161.23 159.26 C 161.31 158.84 161.47 158.00 161.55 157.58 C 159.19 157.92 156.80 158.17 154.47 158.73 M 63.86 161.38 C 69.04 170.06 77.30 176.39 85.97 181.33 C 92.47 181.90 98.91 180.70 105.26 179.45 C 106.17 177.95 107.08 176.44 107.97 174.93 C 113.53 173.75 118.85 171.58 123.81 168.84 C 128.01 166.40 133.04 166.25 137.37 164.12 C 137.35 163.66 137.31 162.73 137.29 162.26 C 137.09 162.50 136.69 162.98 136.49 163.21 C 126.39 164.28 117.00 168.60 107.07 170.46 C 100.33 170.81 93.61 171.43 86.96 172.52 C 82.11 173.47 79.01 168.96 76.04 165.97 C 73.11 162.30 68.08 162.28 63.86 161.38 M 82.09 165.75 C 82.24 168.60 85.57 169.94 88.03 169.15 C 93.18 167.76 98.52 167.53 103.83 167.68 C 103.78 167.19 103.68 166.20 103.63 165.71 C 96.51 166.52 89.19 166.75 82.09 165.75 M 120.41 173.77 C 119.92 175.79 118.66 177.98 119.84 179.99 C 123.29 179.79 126.71 177.85 129.88 176.34 C 128.94 174.91 128.01 173.48 127.08 172.05 C 124.85 172.63 122.65 173.28 120.41 173.77 M 113.01 177.06 C 110.50 177.98 109.10 180.35 107.81 182.53 C 103.50 183.42 99.12 183.98 94.93 185.38 C 103.03 186.07 111.22 183.57 118.38 180.03 C 117.57 178.23 115.15 175.70 113.01 177.06 Z" />
<path fill="#030303" opacity="1.00" d=" M 195.73 155.76 C 196.43 155.01 197.82 153.50 198.52 152.75 C 199.20 160.89 197.52 169.25 193.54 176.40 C 189.15 184.77 186.29 193.82 182.35 202.40 C 181.32 202.48 180.30 202.57 179.28 202.67 L 179.36 202.42 C 182.83 192.66 185.30 182.51 189.92 173.20 C 191.43 170.05 193.77 167.40 195.30 164.28 C 195.86 161.48 195.48 158.59 195.73 155.76 Z" />
</g>
<g id="#fefefeff">
<path fill="#fefefe" opacity="1.00" d=" M 121.63 14.06 C 125.14 13.14 128.73 13.89 132.17 14.77 C 129.41 18.35 126.78 23.32 121.78 23.79 C 121.80 20.54 121.77 17.30 121.63 14.06 Z" />
<path fill="#fefefe" opacity="1.00" d=" M 91.16 18.79 C 100.43 17.10 109.61 14.91 118.94 13.49 C 117.91 16.84 117.12 20.29 115.64 23.48 C 112.87 23.79 110.07 23.57 107.31 23.38 C 106.47 23.92 105.64 24.48 104.81 25.04 C 109.14 25.89 113.57 25.64 117.93 26.25 C 124.72 26.95 131.45 28.59 138.32 28.24 C 136.82 25.52 133.87 25.52 131.18 25.28 C 133.84 22.93 136.29 20.17 139.76 19.00 C 143.82 22.33 148.17 25.30 152.21 28.66 C 155.55 31.34 155.99 35.98 158.58 39.24 C 163.19 46.76 171.38 52.29 172.92 61.46 C 168.64 58.99 168.82 52.99 164.39 50.59 C 164.45 51.99 164.24 53.52 164.94 54.81 C 167.82 61.28 173.70 65.86 176.40 72.42 C 180.49 83.95 184.12 95.65 188.85 106.94 C 189.46 106.22 190.06 105.49 190.66 104.76 C 188.69 96.94 183.03 90.14 183.26 81.81 C 186.98 86.74 189.33 92.62 191.36 98.42 C 193.84 104.32 187.99 109.77 189.96 115.70 C 193.91 128.17 191.66 141.32 192.27 154.13 C 192.85 154.41 194.00 154.95 194.58 155.22 C 194.87 155.36 195.45 155.62 195.73 155.76 C 195.48 158.59 195.86 161.48 195.30 164.28 C 193.77 167.40 191.43 170.05 189.92 173.20 C 185.30 182.51 182.83 192.66 179.36 202.42 C 140.90 202.53 102.43 202.37 63.97 202.50 C 63.16 201.15 62.86 199.25 61.20 198.64 C 55.33 195.48 48.90 193.24 43.54 189.20 C 41.13 186.32 39.77 182.68 37.11 179.98 C 33.86 176.91 33.65 172.13 30.90 168.72 C 30.47 169.81 29.62 171.97 29.19 173.05 C 28.27 168.10 24.70 164.40 22.68 159.98 C 21.31 152.30 19.76 144.64 18.57 136.93 C 18.66 128.09 18.85 119.23 18.63 110.38 L 19.48 110.12 C 19.36 115.78 20.38 121.37 20.48 127.01 C 20.04 138.30 23.20 149.36 26.81 159.95 C 27.81 163.03 27.97 167.09 31.53 168.39 C 30.54 162.15 28.47 156.17 26.38 150.24 C 24.71 145.62 24.04 140.73 22.73 136.02 C 20.71 128.82 21.98 121.29 22.18 113.96 C 22.36 109.97 21.43 105.97 22.14 102.01 C 22.81 95.71 26.79 90.34 27.53 84.06 C 27.92 80.55 27.32 76.87 28.77 73.55 C 31.10 68.28 35.77 64.70 39.55 60.54 C 41.35 58.63 42.65 56.34 44.39 54.39 C 46.07 52.57 48.63 52.07 50.64 50.74 C 51.52 48.97 51.20 46.85 51.50 44.94 C 57.66 39.61 62.08 32.50 68.65 27.63 C 72.78 24.29 78.37 24.69 83.33 24.06 C 90.10 23.17 96.94 23.66 103.66 24.71 C 104.50 24.15 105.34 23.58 106.17 23.02 C 99.61 20.36 92.49 21.53 85.62 21.27 C 87.34 20.20 89.13 19.13 91.16 18.79 M 131.44 42.68 C 131.11 43.39 131.65 46.77 133.22 45.40 C 134.35 44.62 135.62 44.09 137.04 44.34 C 139.89 44.60 143.10 43.89 145.58 45.71 C 151.05 49.43 153.98 55.67 158.99 59.90 C 159.94 61.24 162.45 62.42 161.25 64.39 C 162.31 64.83 163.37 65.24 164.44 65.65 L 163.53 66.45 C 167.25 72.75 171.36 79.78 170.20 87.39 C 168.20 93.94 161.32 97.03 155.24 98.71 C 155.25 98.89 155.28 99.26 155.29 99.45 C 157.86 99.35 160.49 99.40 162.92 98.44 C 169.23 96.44 173.35 89.58 172.76 83.08 C 172.35 77.80 170.29 72.77 167.95 68.08 C 164.80 64.17 162.84 59.32 158.90 56.07 C 154.30 51.73 151.49 45.21 145.30 42.77 C 140.73 41.86 136.04 42.37 131.44 42.68 M 133.87 46.76 C 133.21 46.72 131.90 46.64 131.25 46.60 C 132.39 48.35 130.37 49.34 129.42 50.36 C 123.62 55.07 118.17 60.77 115.68 67.96 C 114.48 71.74 113.73 76.30 116.18 79.75 C 121.01 87.69 127.39 96.24 137.37 97.34 C 137.38 96.89 137.42 96.00 137.44 95.55 C 134.95 94.33 132.16 93.69 129.91 92.02 C 125.35 88.88 122.75 83.85 119.35 79.64 C 117.86 77.79 116.07 75.61 116.66 73.05 C 118.14 66.17 122.20 60.00 127.52 55.45 C 130.36 53.15 132.39 49.62 136.06 48.53 C 138.06 47.73 140.49 47.31 141.57 45.14 C 138.87 44.98 136.33 45.82 133.87 46.76 M 63.26 48.43 C 60.24 53.18 59.91 59.50 55.32 63.26 C 49.63 69.10 40.68 71.03 36.27 78.18 C 34.92 79.80 35.27 81.99 35.12 83.93 C 40.04 83.45 40.85 77.70 44.44 75.28 C 49.51 71.76 55.28 69.09 59.56 64.53 C 63.20 60.96 64.78 55.92 65.48 51.00 C 65.26 49.81 65.01 47.36 63.26 48.43 M 143.70 66.25 C 147.36 67.25 150.94 68.72 154.72 69.23 C 156.92 68.31 161.22 67.55 160.67 64.36 C 156.15 66.74 150.88 66.79 146.31 64.58 C 146.31 61.37 146.35 58.15 146.27 54.93 C 141.18 56.39 144.18 62.52 143.70 66.25 M 109.93 64.09 C 108.74 66.51 108.37 69.16 109.57 71.65 C 110.00 71.51 110.86 71.24 111.29 71.10 C 111.71 68.62 111.69 66.06 109.93 64.09 M 60.05 69.05 C 54.14 70.75 48.64 74.17 44.38 78.58 C 42.39 82.45 41.24 86.76 40.68 91.07 C 40.01 95.53 43.07 99.38 43.30 103.76 C 43.80 106.96 43.14 110.81 45.68 113.29 C 47.96 115.65 50.41 118.05 53.45 119.39 C 58.43 119.82 63.50 119.87 68.47 119.33 C 76.08 114.41 81.29 106.74 86.83 99.74 C 90.95 94.87 91.84 88.22 92.07 82.07 C 91.07 80.62 89.52 79.70 88.15 78.63 C 84.39 76.07 81.70 71.81 77.03 70.73 C 71.49 69.57 65.73 67.72 60.05 69.05 M 150.44 117.51 C 148.97 123.54 149.54 130.33 145.75 135.61 C 144.18 138.05 141.42 139.27 138.67 139.81 C 136.48 145.75 131.30 149.65 126.95 153.95 C 122.58 156.62 117.28 156.99 112.55 158.81 C 106.00 161.32 99.16 163.58 92.06 163.48 C 86.20 163.87 80.75 161.47 75.27 159.77 C 71.10 159.20 66.88 158.64 62.86 157.33 C 59.27 156.34 57.42 152.83 55.11 150.23 C 51.37 150.63 47.81 149.39 44.42 147.98 C 44.68 149.44 44.30 151.21 45.47 152.36 C 48.24 155.76 53.18 155.75 56.30 158.68 C 62.54 164.50 66.36 172.68 73.60 177.46 C 79.08 181.22 84.34 185.68 90.83 187.59 C 94.82 188.90 99.08 188.40 103.20 188.26 C 105.10 187.81 107.03 187.47 108.96 187.14 C 112.36 186.20 115.73 185.18 119.10 184.17 L 119.67 183.82 C 124.55 182.09 129.69 181.11 134.50 179.20 C 140.65 174.96 147.50 171.77 153.30 167.02 C 157.17 163.94 162.50 163.63 166.33 160.49 C 166.99 159.46 167.32 158.27 167.44 157.06 C 168.38 150.15 168.99 143.01 167.68 136.12 C 164.78 129.54 159.34 124.52 154.88 118.99 C 153.89 117.52 151.93 117.86 150.44 117.51 Z" />
<path fill="#fefefe" opacity="1.00" d=" M 129.02 21.41 C 130.76 19.26 133.02 17.29 135.97 17.26 C 135.23 20.20 132.10 22.93 129.02 21.41 Z" />
<path fill="#fefefe" opacity="1.00" d=" M 59.47 71.62 C 65.45 69.04 72.26 71.35 77.45 74.70 C 81.05 77.02 81.95 81.49 82.99 85.34 C 85.31 85.49 87.63 85.55 89.96 85.57 C 89.27 91.26 86.58 96.50 82.93 100.86 C 78.06 106.68 73.59 113.21 67.01 117.24 C 61.50 117.14 54.88 118.74 50.43 114.57 C 45.76 110.75 44.98 104.34 44.48 98.71 C 47.79 96.59 52.39 97.28 55.03 94.04 C 58.05 91.68 56.47 87.42 55.41 84.42 C 52.13 83.98 48.82 83.65 45.51 83.80 C 46.76 87.89 52.08 85.13 54.40 87.74 C 55.26 90.71 52.71 93.17 50.13 94.05 C 47.64 94.89 45.02 95.29 42.42 95.51 C 42.77 91.21 43.08 86.77 44.78 82.76 C 47.99 77.28 53.81 74.06 59.47 71.62 Z" />
<path fill="#fefefe" opacity="1.00" d=" M 84.75 80.39 C 86.96 80.22 89.12 81.37 88.99 83.87 C 87.44 83.78 85.91 83.52 84.49 82.87 C 84.55 82.25 84.68 81.01 84.75 80.39 Z" />
<path fill="#fefefe" opacity="1.00" d=" M 152.94 124.40 C 153.37 124.43 154.24 124.48 154.67 124.50 C 159.44 129.92 157.36 137.79 154.37 143.55 C 151.67 143.38 149.17 142.21 147.36 140.19 C 150.60 135.52 151.91 129.90 152.94 124.40 Z" />
<path fill="#fefefe" opacity="1.00" d=" M 160.69 131.10 C 166.72 137.45 164.48 146.70 164.35 154.55 C 160.28 154.94 156.18 154.84 152.09 154.82 C 156.49 147.63 161.21 139.87 160.69 131.10 Z" />
<path fill="#fefefe" opacity="1.00" d=" M 134.07 152.21 C 137.17 149.27 140.12 146.16 143.08 143.08 C 145.30 144.22 147.55 145.32 149.84 146.33 C 150.64 146.46 152.23 146.72 153.02 146.85 C 149.66 153.30 142.19 155.46 136.39 159.07 C 135.54 156.81 134.64 154.56 134.07 152.21 Z" />
<path fill="#fefefe" opacity="1.00" d=" M 129.17 157.19 C 129.87 156.83 130.58 156.48 131.29 156.13 C 131.76 157.46 132.23 158.79 132.68 160.12 C 124.16 162.03 115.90 164.97 107.33 166.67 C 107.29 166.16 107.22 165.14 107.19 164.63 C 114.44 161.93 121.88 159.79 129.17 157.19 Z" />
<path fill="#fefefe" opacity="1.00" d=" M 140.29 162.88 C 142.28 159.30 146.07 157.34 149.89 156.28 C 147.41 159.37 144.02 161.58 140.29 162.88 Z" />
<path fill="#fefefe" opacity="1.00" d=" M 154.47 158.73 C 156.80 158.17 159.19 157.92 161.55 157.58 C 161.47 158.00 161.31 158.84 161.23 159.26 C 158.02 161.13 154.11 161.58 151.21 164.01 C 145.69 168.30 139.99 172.74 133.15 174.68 C 132.18 173.38 131.19 172.10 130.19 170.83 C 135.67 167.73 141.93 166.37 147.42 163.29 C 149.88 161.94 151.82 159.74 154.47 158.73 Z" />
<path fill="#fefefe" opacity="1.00" d=" M 63.86 161.38 C 68.08 162.28 73.11 162.30 76.04 165.97 C 79.01 168.96 82.11 173.47 86.96 172.52 C 93.61 171.43 100.33 170.81 107.07 170.46 C 117.00 168.60 126.39 164.28 136.49 163.21 C 136.69 162.98 137.09 162.50 137.29 162.26 C 137.31 162.73 137.35 163.66 137.37 164.12 C 133.04 166.25 128.01 166.40 123.81 168.84 C 118.85 171.58 113.53 173.75 107.97 174.93 C 107.08 176.44 106.17 177.95 105.26 179.45 C 98.91 180.70 92.47 181.90 85.97 181.33 C 77.30 176.39 69.04 170.06 63.86 161.38 Z" />
<path fill="#fefefe" opacity="1.00" d=" M 82.09 165.75 C 89.19 166.75 96.51 166.52 103.63 165.71 C 103.68 166.20 103.78 167.19 103.83 167.68 C 98.52 167.53 93.18 167.76 88.03 169.15 C 85.57 169.94 82.24 168.60 82.09 165.75 Z" />
<path fill="#fefefe" opacity="1.00" d=" M 120.41 173.77 C 122.65 173.28 124.85 172.63 127.08 172.05 C 128.01 173.48 128.94 174.91 129.88 176.34 C 126.71 177.85 123.29 179.79 119.84 179.99 C 118.66 177.98 119.92 175.79 120.41 173.77 Z" />
<path fill="#fefefe" opacity="1.00" d=" M 113.01 177.06 C 115.15 175.70 117.57 178.23 118.38 180.03 C 111.22 183.57 103.03 186.07 94.93 185.38 C 99.12 183.98 103.50 183.42 107.81 182.53 C 109.10 180.35 110.50 177.98 113.01 177.06 Z" />
<path fill="#fefefe" opacity="1.00" d=" M 33.39 180.43 C 36.28 182.60 38.09 185.74 40.03 188.71 C 42.34 192.30 46.28 194.29 50.14 195.79 C 54.38 197.39 57.99 200.19 61.99 202.27 C 54.43 202.69 46.85 202.31 39.28 202.49 C 38.89 201.61 38.48 200.73 38.06 199.87 C 35.40 193.73 33.20 187.21 33.39 180.43 Z" />
</g>
</svg>
