<?xml version="1.0" encoding="UTF-8" ?>
<!DOCTYPE svg PUBLIC "-//W3C//DTD SVG 1.1//EN" "http://www.w3.org/Graphics/SVG/1.1/DTD/svg11.dtd">
<svg width="210pt" height="220pt" viewBox="0 0 210 220" version="1.1" xmlns="http://www.w3.org/2000/svg">
<g id="#000000ff">
<path fill="#000000" opacity="1.00" d=" M 62.02 8.75 C 84.11 8.89 105.96 5.20 127.93 3.58 C 136.93 3.92 146.00 2.95 154.94 4.33 C 164.72 4.97 174.44 6.41 184.08 8.15 C 189.70 8.68 194.37 14.33 193.58 19.98 C 193.74 23.55 191.60 26.94 188.54 28.68 C 185.33 30.59 181.46 30.56 177.85 30.99 C 177.78 31.54 177.64 32.65 177.57 33.20 C 177.77 32.78 178.19 31.96 178.40 31.54 C 179.52 31.45 180.64 31.33 181.76 31.18 C 180.61 31.50 179.61 32.05 179.02 33.13 C 178.86 33.56 178.55 34.42 178.39 34.85 C 180.11 38.85 183.29 41.96 185.31 45.79 L 184.22 45.43 C 180.90 42.11 178.04 38.32 175.86 34.15 C 174.99 32.72 174.19 30.45 172.08 30.81 C 152.38 30.88 132.66 29.55 112.97 30.75 C 102.01 31.77 91.03 32.70 80.01 32.40 C 74.32 32.53 68.65 31.52 62.97 32.17 C 55.63 32.84 48.17 32.13 40.90 33.56 C 39.17 37.53 39.44 41.87 39.51 46.09 C 39.77 49.23 37.58 51.88 37.63 54.98 C 37.54 56.89 37.53 58.81 37.17 60.70 C 35.99 65.76 37.55 71.30 34.80 76.00 C 32.05 80.74 31.69 86.40 32.70 91.70 C 34.78 99.43 40.46 105.95 40.94 114.14 C 41.03 118.48 39.17 122.60 39.29 126.95 C 39.31 136.63 39.03 146.32 39.33 156.00 C 39.93 159.16 41.74 161.94 43.04 164.86 C 46.05 171.46 52.96 174.70 58.66 178.57 C 64.35 182.02 68.58 187.32 74.07 191.02 C 82.00 195.98 88.52 202.95 96.85 207.30 C 100.27 209.35 104.15 210.38 107.85 211.80 C 107.69 212.01 107.38 212.44 107.23 212.66 C 106.58 212.72 105.29 212.84 104.65 212.90 C 104.39 210.75 101.75 210.91 100.27 210.12 C 94.81 208.76 91.08 204.27 86.19 201.78 C 79.39 196.64 73.04 190.89 65.94 186.14 C 61.98 182.65 58.01 179.18 53.58 176.28 C 50.47 173.65 46.29 172.40 43.67 169.21 C 39.81 163.23 37.21 156.56 35.39 149.71 C 31.85 149.54 28.25 147.86 26.74 144.49 C 25.99 141.20 27.34 137.48 25.47 134.47 C 23.44 130.64 19.65 128.19 17.35 124.55 C 15.30 121.37 14.14 117.66 13.59 113.94 C 14.20 107.35 16.05 100.55 20.49 95.46 C 22.02 95.39 23.55 95.28 25.08 95.26 C 26.88 96.04 28.61 96.98 30.35 97.89 C 29.89 96.80 29.45 95.70 29.02 94.60 C 28.72 93.77 28.28 93.01 27.70 92.34 C 26.49 87.56 24.08 83.00 24.33 77.95 C 22.84 66.04 23.53 54.00 23.85 42.03 C 23.65 38.41 26.46 35.54 26.76 32.00 C 27.65 28.18 24.70 24.80 25.21 20.98 C 25.03 17.29 27.32 14.00 30.22 11.95 C 33.75 9.63 38.15 10.80 42.10 10.28 C 48.79 10.25 55.32 8.32 62.02 8.75 M 21.07 97.65 C 19.97 99.86 18.69 101.96 17.45 104.09 C 19.33 103.79 21.16 103.33 22.95 102.69 C 24.73 102.68 26.42 103.25 28.10 103.78 C 28.19 104.21 28.38 105.06 28.47 105.49 C 25.51 106.01 21.77 104.38 19.44 106.70 C 18.46 112.51 24.65 115.60 27.35 119.85 C 29.18 123.25 32.06 125.85 34.49 128.80 C 34.83 132.56 33.28 137.09 36.39 140.01 C 36.57 135.64 38.35 131.16 36.39 126.95 C 37.50 121.71 32.00 119.22 29.60 115.46 C 28.53 113.49 29.69 111.37 30.63 109.63 C 31.20 109.15 31.77 108.67 32.34 108.19 C 33.02 110.58 32.12 112.86 31.28 115.07 C 33.24 117.22 35.27 119.31 37.55 121.12 C 37.51 115.89 36.01 110.79 34.38 105.86 C 32.23 100.66 26.76 96.99 21.07 97.65 M 17.80 121.02 C 20.60 126.50 26.29 129.88 28.78 135.56 C 30.36 138.91 30.34 142.69 30.45 146.32 C 32.58 146.40 34.70 146.42 36.82 146.42 C 37.53 143.21 35.46 140.89 32.52 140.05 C 32.61 137.03 32.65 134.00 32.31 130.99 C 28.52 123.03 21.10 117.64 16.83 109.97 C 16.10 113.64 16.04 117.62 17.80 121.02 Z" />
<path fill="#000000" opacity="1.00" d=" M 184.33 45.78 C 185.42 46.57 186.34 47.58 186.82 48.86 C 189.14 54.60 189.24 60.90 189.30 67.00 C 191.71 77.14 189.99 87.71 190.49 98.05 C 190.04 102.34 193.68 105.74 193.26 110.03 C 192.84 114.42 191.14 118.57 189.77 122.73 C 185.81 134.22 178.39 143.99 172.46 154.48 C 170.37 158.08 168.73 161.92 166.60 165.50 L 165.80 165.20 C 167.07 162.80 168.06 160.27 168.97 157.71 C 171.25 151.46 175.79 146.45 178.72 140.54 C 182.57 133.95 185.78 127.02 189.22 120.21 C 189.52 117.74 190.27 115.35 191.37 113.11 C 191.34 111.74 191.31 110.38 191.27 109.02 C 190.09 105.07 189.59 100.98 189.28 96.89 C 187.52 88.04 189.15 78.95 187.70 70.07 C 187.41 61.90 186.82 53.63 184.33 45.78 Z" />
<path fill="#000000" opacity="1.00" d=" M 157.11 60.13 C 161.80 58.18 167.00 57.09 172.03 58.28 C 173.69 57.68 175.46 57.66 177.20 57.65 C 177.83 57.95 179.07 58.57 179.70 58.88 C 179.11 59.76 178.37 60.49 177.33 60.81 C 177.41 61.43 177.56 62.68 177.63 63.30 C 173.10 65.47 168.05 63.68 163.30 64.55 C 159.88 65.21 156.76 67.02 154.26 69.41 C 151.35 72.07 147.76 73.83 144.86 76.51 C 143.91 76.40 142.96 76.29 142.02 76.19 C 141.32 76.59 139.92 77.40 139.22 77.81 C 139.00 74.49 142.53 73.45 144.25 71.22 C 147.92 66.88 152.06 62.85 157.11 60.13 Z" />
<path fill="#000000" opacity="1.00" d=" M 63.82 63.54 C 69.76 63.09 75.73 63.43 81.69 63.34 L 81.66 64.17 C 83.46 64.40 85.51 64.16 86.95 65.52 C 87.29 65.51 87.99 65.48 88.34 65.47 L 88.52 66.34 C 90.73 67.17 92.98 67.93 95.08 69.03 C 96.55 69.36 98.04 69.51 99.54 69.67 L 99.56 70.68 C 100.00 70.62 100.90 70.51 101.35 70.45 L 101.56 71.31 C 103.00 71.66 104.42 72.08 105.85 72.49 C 105.83 73.32 105.78 74.97 105.75 75.79 C 104.10 75.81 102.56 75.44 101.13 74.66 C 92.70 70.60 83.11 70.86 74.03 69.76 C 73.33 69.89 71.92 70.15 71.22 70.28 C 68.82 70.38 66.39 70.42 64.10 71.18 C 63.01 71.44 61.99 71.84 61.01 72.37 C 60.74 72.42 60.20 72.51 59.93 72.55 C 57.40 74.48 54.91 76.46 52.27 78.22 C 52.18 75.67 52.67 73.18 53.64 70.83 C 55.97 67.14 59.64 64.66 63.82 63.54 Z" />
<path fill="#000000" opacity="1.00" d=" M 156.86 70.70 C 160.22 70.23 163.58 69.47 167.01 69.78 C 171.22 70.47 175.57 72.11 178.04 75.80 C 180.48 79.00 180.63 83.18 180.19 87.02 C 179.46 91.14 175.80 93.86 172.17 95.39 C 165.61 97.14 158.38 97.42 152.00 94.88 C 148.59 93.19 144.78 90.28 145.24 85.99 C 144.54 78.68 151.67 74.33 156.86 70.70 M 154.50 78.17 C 155.82 78.40 157.20 78.63 158.22 79.61 C 158.47 79.26 158.98 78.56 159.23 78.21 C 159.34 76.60 159.46 75.00 159.53 73.38 C 157.12 74.03 152.89 74.73 154.50 78.17 M 170.88 75.16 C 172.23 76.63 173.67 78.07 175.51 78.92 C 175.56 79.68 175.66 81.20 175.71 81.96 C 171.82 80.73 170.28 75.16 165.64 76.21 C 165.67 78.48 165.70 80.75 165.63 83.02 C 165.00 84.12 164.41 85.24 163.85 86.38 C 162.18 86.44 160.52 86.43 158.85 86.38 C 158.36 86.12 157.37 85.59 156.88 85.33 C 154.71 83.36 152.63 81.12 152.23 78.08 C 147.60 79.39 147.83 85.98 149.69 89.51 C 156.41 89.60 163.18 90.16 169.88 89.29 C 172.78 88.81 174.95 86.68 176.38 84.23 C 176.29 82.26 176.26 80.30 176.36 78.33 C 174.93 76.66 173.28 74.98 170.88 75.16 M 171.85 90.85 C 165.75 93.06 159.23 92.50 152.88 92.60 C 154.60 93.13 156.36 93.55 158.07 94.16 C 162.44 94.62 166.86 94.39 171.16 93.46 C 174.55 93.01 177.67 90.33 178.00 86.82 C 175.86 88.03 174.03 89.72 171.85 90.85 Z" />
<path fill="#000000" opacity="1.00" d=" M 64.01 76.79 C 71.26 74.05 79.28 73.99 86.85 75.08 C 91.27 76.00 95.74 77.35 99.44 80.02 L 99.47 82.57 C 98.47 82.04 97.48 81.50 96.48 80.98 C 95.12 79.92 93.60 79.07 91.81 79.20 C 93.12 80.91 94.59 82.49 96.11 84.02 L 97.01 82.01 C 97.57 82.78 98.12 83.56 98.68 84.34 C 98.61 86.60 98.73 88.87 98.50 91.13 C 96.17 95.38 93.72 100.10 89.14 102.31 C 86.50 103.06 83.83 103.68 81.17 104.32 C 78.14 104.52 75.05 104.76 72.10 103.93 C 65.00 103.33 58.50 97.29 58.46 89.97 C 58.10 84.89 61.58 80.87 64.01 76.79 M 65.75 80.66 C 65.48 84.46 65.74 88.27 65.70 92.07 C 66.98 95.43 70.06 97.36 72.72 99.54 C 77.05 99.76 81.39 99.85 85.72 99.60 C 89.13 99.48 91.32 96.47 93.55 94.29 C 93.57 91.35 93.79 88.38 93.43 85.46 C 91.14 80.97 86.60 76.63 81.12 77.74 C 82.47 79.80 85.14 79.96 87.25 80.84 C 87.42 81.89 87.60 82.94 87.79 83.99 C 88.43 85.25 88.52 86.67 88.67 88.05 C 85.55 91.25 82.11 94.17 78.17 96.33 C 77.26 96.34 76.35 96.35 75.45 96.37 C 73.72 95.01 72.52 93.17 71.62 91.19 C 71.16 86.84 71.16 81.44 75.60 79.10 C 75.60 78.71 75.59 77.95 75.58 77.56 C 72.07 77.03 67.74 77.19 65.75 80.66 M 75.70 86.22 C 76.56 86.33 77.42 86.45 78.29 86.56 C 78.84 85.34 79.35 84.09 79.74 82.81 C 78.78 82.40 77.82 81.99 76.87 81.58 C 74.70 82.42 75.33 84.43 75.70 86.22 M 61.71 84.63 C 58.48 91.77 64.17 100.95 71.73 101.72 C 68.83 98.85 64.78 96.68 63.44 92.59 C 63.13 89.57 63.52 86.54 63.38 83.52 C 62.96 83.79 62.12 84.35 61.71 84.63 Z" />
<path fill="#000000" opacity="1.00" d=" M 132.62 90.60 C 133.12 90.50 134.12 90.32 134.62 90.23 C 133.08 101.17 139.38 110.71 144.18 119.94 C 145.01 121.68 145.88 123.40 146.83 125.08 C 152.32 125.98 155.31 131.83 156.20 136.83 C 157.17 141.23 153.40 145.54 148.90 144.93 C 149.77 142.15 153.64 142.07 154.36 139.20 C 154.37 138.36 154.40 136.69 154.41 135.86 C 153.25 133.68 152.25 131.27 150.30 129.66 C 148.72 128.32 146.05 128.89 145.04 126.85 C 140.64 119.92 139.05 111.39 133.46 105.18 C 133.39 104.60 133.24 103.43 133.17 102.85 C 132.11 98.85 132.26 94.67 132.62 90.60 Z" />
<path fill="#000000" opacity="1.00" d=" M 108.60 121.41 C 109.09 121.40 110.07 121.37 110.57 121.35 C 110.52 122.98 110.68 124.65 110.30 126.25 C 108.18 130.74 102.48 133.48 102.77 139.00 C 104.00 141.75 107.50 142.11 110.10 141.54 C 111.65 140.63 112.96 139.03 114.95 139.37 C 113.91 140.87 112.75 142.32 112.05 144.03 C 117.39 147.59 122.80 151.34 129.10 152.98 C 133.89 154.07 138.91 153.50 143.21 151.08 C 144.97 147.28 145.07 143.02 145.80 138.96 C 148.80 141.81 147.53 146.59 146.00 149.89 C 145.01 152.42 142.27 153.33 140.64 155.29 C 144.60 156.65 148.84 156.21 152.88 157.15 C 156.85 157.43 160.98 157.07 164.75 158.59 C 164.59 159.40 164.44 160.21 164.29 161.02 C 162.56 162.29 161.11 163.88 161.12 166.17 C 157.50 173.69 149.64 177.33 143.89 182.88 C 143.24 183.55 142.57 184.21 141.87 184.83 C 141.55 185.03 140.91 185.42 140.58 185.62 C 136.87 191.09 133.04 197.00 126.93 200.05 C 121.91 201.57 116.73 201.45 111.66 200.23 C 109.04 198.89 106.86 196.87 104.46 195.21 L 104.45 194.84 C 101.24 192.70 98.80 189.67 96.06 186.99 C 95.52 186.27 94.44 184.84 93.89 184.12 C 93.40 184.82 92.91 185.51 92.43 186.21 C 92.42 187.09 92.40 188.85 92.39 189.73 C 91.73 189.24 91.07 188.76 90.41 188.28 C 90.39 187.16 90.36 186.03 90.34 184.91 C 91.20 184.32 92.04 183.71 92.89 183.11 C 89.23 179.02 86.17 174.44 82.76 170.14 C 81.21 167.88 78.89 165.67 79.41 162.64 C 80.38 163.86 81.62 164.57 83.12 164.77 C 82.41 164.13 81.68 163.52 80.92 162.95 C 79.66 156.50 73.06 153.17 71.10 147.23 C 72.77 147.28 74.43 147.38 76.10 147.52 C 76.98 148.18 77.86 148.83 78.75 149.49 C 90.33 149.73 102.04 148.26 113.45 150.78 C 113.56 151.24 113.78 152.16 113.89 152.62 C 111.89 152.44 109.90 152.29 107.92 152.08 C 99.89 151.01 91.71 151.97 83.63 151.51 C 83.20 152.65 82.75 153.78 82.28 154.90 C 81.00 153.92 79.71 153.00 78.37 152.12 C 78.19 154.15 79.82 155.51 80.65 157.19 C 81.47 158.48 81.93 160.14 83.43 160.85 C 83.57 161.16 83.86 161.77 84.01 162.08 C 83.87 160.07 84.22 157.46 86.78 158.42 C 86.68 161.01 86.60 163.61 86.58 166.21 C 89.09 169.61 90.98 173.49 94.06 176.44 C 94.69 176.58 95.96 176.87 96.59 177.01 C 96.69 174.95 96.73 172.89 96.82 170.83 C 97.79 167.21 97.40 163.40 97.89 159.71 C 93.89 157.84 89.50 157.64 85.25 157.01 C 85.28 156.51 85.35 155.53 85.38 155.04 C 87.95 155.26 90.53 155.45 93.10 155.71 C 98.37 157.83 103.65 159.94 108.83 162.27 C 113.91 162.75 119.02 162.46 124.11 162.85 C 128.38 163.69 132.76 163.14 137.09 163.17 C 139.68 162.64 142.44 162.40 145.00 163.25 C 150.38 161.96 156.02 163.06 161.51 162.59 C 161.85 161.22 161.84 159.82 161.56 158.44 C 159.69 158.57 157.82 158.74 156.00 159.18 C 152.42 158.21 148.62 158.93 145.07 157.77 C 142.75 157.58 140.42 157.42 138.19 156.71 C 134.80 156.45 131.40 156.30 127.99 156.26 C 124.60 153.48 120.49 151.74 116.79 149.40 C 113.03 147.62 110.36 143.64 105.92 143.44 C 102.13 143.30 99.61 139.47 100.53 135.87 C 102.11 132.86 104.25 130.21 106.73 127.88 C 108.58 126.26 108.20 123.60 108.60 121.41 M 100.20 161.11 C 102.13 166.01 101.46 171.33 101.57 176.46 C 104.53 176.98 107.54 176.95 110.53 176.68 C 111.69 172.86 111.43 168.78 112.61 164.95 C 111.37 164.73 110.14 164.51 108.90 164.29 C 106.07 163.05 103.17 161.98 100.20 161.11 M 148.92 165.69 C 148.02 167.60 146.04 167.12 144.36 167.47 C 143.13 168.99 142.61 170.93 141.88 172.71 C 144.00 172.73 146.12 172.71 148.23 172.64 C 149.32 170.23 150.45 167.84 151.70 165.51 C 152.13 165.55 152.97 165.64 153.40 165.68 C 153.41 166.24 153.43 167.37 153.44 167.93 C 152.47 169.25 151.41 170.58 151.29 172.30 C 151.04 172.66 150.53 173.38 150.27 173.74 C 153.96 171.70 157.63 168.66 158.98 164.54 C 155.64 164.72 151.85 163.65 148.92 165.69 M 114.66 165.36 C 114.92 168.79 114.48 172.28 115.33 175.65 C 118.23 176.81 121.37 176.28 124.40 176.33 C 124.88 176.05 125.85 175.48 126.33 175.20 C 126.36 172.82 126.39 170.42 125.83 168.09 C 125.71 166.97 125.59 165.85 125.47 164.73 C 121.86 164.80 118.20 164.51 114.66 165.36 M 128.19 165.64 C 128.17 165.82 128.13 166.17 128.11 166.35 C 128.77 166.31 130.08 166.23 130.74 166.19 C 130.66 168.57 130.77 171.08 129.45 173.16 C 129.80 173.44 130.51 174.00 130.86 174.27 C 131.96 174.27 133.07 174.26 134.18 174.27 C 139.07 173.95 140.82 169.07 142.92 165.44 C 138.18 163.78 133.03 165.06 128.19 165.64 M 140.49 174.18 C 139.33 174.81 138.20 175.47 137.04 176.09 C 138.86 176.49 141.40 176.07 141.90 178.44 C 142.22 178.42 142.86 178.37 143.18 178.35 C 144.41 177.39 145.63 176.42 146.85 175.45 C 145.03 175.35 143.21 175.28 141.39 175.23 C 141.43 174.29 141.52 172.41 141.56 171.47 C 141.20 172.37 140.85 173.27 140.49 174.18 M 98.10 179.53 C 98.25 179.91 98.56 180.67 98.71 181.05 C 102.02 183.03 105.13 185.92 109.23 185.84 C 109.33 183.79 109.44 181.74 109.47 179.68 C 105.68 179.83 101.89 179.76 98.10 179.53 M 132.39 182.97 C 135.06 181.96 138.44 181.48 139.92 178.71 C 137.46 178.65 135.00 178.68 132.54 178.68 C 132.47 180.11 132.42 181.54 132.39 182.97 M 112.99 180.62 C 112.67 181.21 112.03 182.39 111.72 182.98 C 111.65 184.39 111.60 185.81 111.57 187.22 C 115.00 187.46 118.45 187.84 121.90 187.60 C 122.76 187.69 122.89 186.68 123.37 186.21 C 122.30 184.48 122.51 182.41 122.39 180.48 C 119.26 180.41 116.11 180.14 112.99 180.62 M 94.44 181.12 C 94.45 181.68 94.46 182.78 94.47 183.33 C 95.63 184.56 96.74 185.84 97.79 187.17 C 98.01 187.52 98.46 188.23 98.68 188.58 L 99.10 188.62 C 99.72 189.51 100.47 190.28 101.35 190.92 L 101.43 191.72 L 102.34 191.39 L 102.59 192.45 L 103.72 192.59 L 103.43 193.26 C 106.68 195.08 109.67 197.36 113.11 198.87 C 116.97 200.00 121.08 199.53 125.05 199.37 C 127.15 197.62 130.02 196.78 131.54 194.40 C 133.67 191.30 136.12 188.37 139.25 186.23 C 140.79 184.35 142.81 182.72 143.10 180.12 C 138.43 181.89 134.76 185.54 129.97 187.14 C 124.87 190.42 118.65 189.63 112.91 189.31 C 110.57 188.17 107.98 187.72 105.45 187.21 C 102.07 186.16 98.94 184.25 96.60 181.56 C 96.06 181.45 94.98 181.23 94.44 181.12 Z" />
<path fill="#000000" opacity="1.00" d=" M 65.99 141.01 C 66.03 137.77 68.95 135.61 71.88 135.15 C 71.56 138.02 68.69 139.35 67.14 141.51 C 65.79 141.67 64.65 141.17 63.73 140.21 C 63.01 142.94 64.56 145.45 65.48 147.90 C 69.63 157.76 75.96 166.44 81.97 175.21 C 83.34 177.16 84.31 179.37 84.77 181.71 C 84.32 181.63 83.43 181.46 82.98 181.38 C 76.35 168.71 65.40 158.21 62.14 143.88 C 61.84 142.58 61.59 141.28 61.35 139.98 C 61.71 139.54 62.44 138.67 62.80 138.24 C 64.31 138.55 65.08 139.92 65.99 141.01 Z" />
<path fill="#000000" opacity="1.00" d=" M 71.96 144.70 C 73.12 141.65 75.98 140.00 79.06 139.47 C 79.45 139.86 80.23 140.64 80.62 141.03 C 77.47 141.70 75.27 144.84 71.96 144.70 Z" />
<path fill="#000000" opacity="1.00" d=" M 147.71 192.71 C 153.96 184.02 158.85 174.40 165.40 165.94 C 165.34 166.42 165.21 167.37 165.15 167.85 C 159.82 177.69 153.65 187.06 147.34 196.30 C 143.80 202.19 139.96 208.45 133.74 211.83 C 126.83 215.58 118.46 215.31 111.01 213.59 C 109.60 214.19 108.54 213.91 107.84 212.74 C 109.67 212.30 111.49 212.34 113.19 213.21 C 118.21 213.22 123.26 213.51 128.28 213.25 C 132.34 211.64 134.99 207.93 138.00 204.95 C 141.71 201.25 144.29 196.65 147.71 192.71 Z" />
</g>
<g id="#fefefeff">
<path fill="#fefefe" opacity="1.00" d=" M 80.01 32.40 C 91.03 32.70 102.01 31.77 112.97 30.75 C 132.66 29.55 152.38 30.88 172.08 30.81 C 174.19 30.45 174.99 32.72 175.86 34.15 C 178.04 38.32 180.90 42.11 184.22 45.43 L 184.33 45.78 C 186.82 53.63 187.41 61.90 187.70 70.07 C 189.15 78.95 187.52 88.04 189.28 96.89 C 189.59 100.98 190.09 105.07 191.27 109.02 C 191.31 110.38 191.34 111.74 191.37 113.11 C 190.27 115.35 189.52 117.74 189.22 120.21 C 185.78 127.02 182.57 133.95 178.72 140.54 C 175.79 146.45 171.25 151.46 168.97 157.71 C 168.06 160.27 167.07 162.80 165.80 165.20 L 165.40 165.94 C 158.85 174.40 153.96 184.02 147.71 192.71 C 144.29 196.65 141.71 201.25 138.00 204.95 C 134.99 207.93 132.34 211.64 128.28 213.25 C 123.26 213.51 118.21 213.22 113.19 213.21 C 111.49 212.34 109.67 212.30 107.84 212.74 L 107.23 212.66 C 107.38 212.44 107.69 212.01 107.85 211.80 C 104.15 210.38 100.27 209.35 96.85 207.30 C 88.52 202.95 82.00 195.98 74.07 191.02 C 68.58 187.32 64.35 182.02 58.66 178.57 C 52.96 174.70 46.05 171.46 43.04 164.86 C 41.74 161.94 39.93 159.16 39.33 156.00 C 39.03 146.32 39.31 136.63 39.29 126.95 C 39.17 122.60 41.03 118.48 40.94 114.14 C 40.46 105.95 34.78 99.43 32.70 91.70 C 31.69 86.40 32.05 80.74 34.80 76.00 C 37.55 71.30 35.99 65.76 37.17 60.70 C 37.53 58.81 37.54 56.89 37.63 54.98 C 37.58 51.88 39.77 49.23 39.51 46.09 C 39.44 41.87 39.17 37.53 40.90 33.56 C 48.17 32.13 55.63 32.84 62.97 32.17 C 68.65 31.52 74.32 32.53 80.01 32.40 M 157.11 60.13 C 152.06 62.85 147.92 66.88 144.25 71.22 C 142.53 73.45 139.00 74.49 139.22 77.81 C 139.92 77.40 141.32 76.59 142.02 76.19 C 142.96 76.29 143.91 76.40 144.86 76.51 C 147.76 73.83 151.35 72.07 154.26 69.41 C 156.76 67.02 159.88 65.21 163.30 64.55 C 168.05 63.68 173.10 65.47 177.63 63.30 C 177.56 62.68 177.41 61.43 177.33 60.81 C 178.37 60.49 179.11 59.76 179.70 58.88 C 179.07 58.57 177.83 57.95 177.20 57.65 C 175.46 57.66 173.69 57.68 172.03 58.28 C 167.00 57.09 161.80 58.18 157.11 60.13 M 63.82 63.54 C 59.64 64.66 55.97 67.14 53.64 70.83 C 52.67 73.18 52.18 75.67 52.27 78.22 C 54.91 76.46 57.40 74.48 59.93 72.55 C 60.20 72.51 60.74 72.42 61.01 72.37 C 61.99 71.84 63.01 71.44 64.10 71.18 C 66.39 70.42 68.82 70.38 71.22 70.28 C 71.92 70.15 73.33 69.89 74.03 69.76 C 83.11 70.86 92.70 70.60 101.13 74.66 C 102.56 75.44 104.10 75.81 105.75 75.79 C 105.78 74.97 105.83 73.32 105.85 72.49 C 104.42 72.08 103.00 71.66 101.56 71.31 L 101.35 70.45 C 100.90 70.51 100.00 70.62 99.56 70.68 L 99.54 69.67 C 98.04 69.51 96.55 69.36 95.08 69.03 C 92.98 67.93 90.73 67.17 88.52 66.34 L 88.34 65.47 C 87.99 65.48 87.29 65.51 86.95 65.52 C 85.51 64.16 83.46 64.40 81.66 64.17 L 81.69 63.34 C 75.73 63.43 69.76 63.09 63.82 63.54 M 156.86 70.70 C 151.67 74.33 144.54 78.68 145.24 85.99 C 144.78 90.28 148.59 93.19 152.00 94.88 C 158.38 97.42 165.61 97.14 172.17 95.39 C 175.80 93.86 179.46 91.14 180.19 87.02 C 180.63 83.18 180.48 79.00 178.04 75.80 C 175.57 72.11 171.22 70.47 167.01 69.78 C 163.58 69.47 160.22 70.23 156.86 70.70 M 64.01 76.79 C 61.58 80.87 58.10 84.89 58.46 89.97 C 58.50 97.29 65.00 103.33 72.10 103.93 C 75.05 104.76 78.14 104.52 81.17 104.32 C 83.83 103.68 86.50 103.06 89.14 102.31 C 93.72 100.10 96.17 95.38 98.50 91.13 C 98.73 88.87 98.61 86.60 98.68 84.34 C 98.12 83.56 97.57 82.78 97.01 82.01 L 96.11 84.02 C 94.59 82.49 93.12 80.91 91.81 79.20 C 93.60 79.07 95.12 79.92 96.48 80.98 C 97.48 81.50 98.47 82.04 99.47 82.57 L 99.44 80.02 C 95.74 77.35 91.27 76.00 86.85 75.08 C 79.28 73.99 71.26 74.05 64.01 76.79 M 132.62 90.60 C 132.26 94.67 132.11 98.85 133.17 102.85 C 133.24 103.43 133.39 104.60 133.46 105.18 C 139.05 111.39 140.64 119.92 145.04 126.85 C 146.05 128.89 148.72 128.32 150.30 129.66 C 152.25 131.27 153.25 133.68 154.41 135.86 C 154.40 136.69 154.37 138.36 154.36 139.20 C 153.64 142.07 149.77 142.15 148.90 144.93 C 153.40 145.54 157.17 141.23 156.20 136.83 C 155.31 131.83 152.32 125.98 146.83 125.08 C 145.88 123.40 145.01 121.68 144.18 119.94 C 139.38 110.71 133.08 101.17 134.62 90.23 C 134.12 90.32 133.12 90.50 132.62 90.60 M 108.60 121.41 C 108.20 123.60 108.58 126.26 106.73 127.88 C 104.25 130.21 102.11 132.86 100.53 135.87 C 99.61 139.47 102.13 143.30 105.92 143.44 C 110.36 143.64 113.03 147.62 116.79 149.40 C 120.49 151.74 124.60 153.48 127.99 156.26 C 131.40 156.30 134.80 156.45 138.19 156.71 C 140.42 157.42 142.75 157.58 145.07 157.77 C 148.62 158.93 152.42 158.21 156.00 159.18 C 157.82 158.74 159.69 158.57 161.56 158.44 C 161.84 159.82 161.85 161.22 161.51 162.59 C 156.02 163.06 150.38 161.96 145.00 163.25 C 142.44 162.40 139.68 162.64 137.09 163.17 C 132.76 163.14 128.38 163.69 124.11 162.85 C 119.02 162.46 113.91 162.75 108.83 162.27 C 103.65 159.94 98.37 157.83 93.10 155.71 C 90.53 155.45 87.95 155.26 85.38 155.04 C 85.35 155.53 85.28 156.51 85.25 157.01 C 89.50 157.64 93.89 157.84 97.89 159.71 C 97.40 163.40 97.79 167.21 96.82 170.83 C 96.73 172.89 96.69 174.95 96.59 177.01 C 95.96 176.87 94.69 176.58 94.06 176.44 C 90.98 173.49 89.09 169.61 86.58 166.21 C 86.60 163.61 86.68 161.01 86.78 158.42 C 84.22 157.46 83.87 160.07 84.01 162.08 C 83.86 161.77 83.57 161.16 83.43 160.85 C 81.93 160.14 81.47 158.48 80.65 157.19 C 79.82 155.51 78.19 154.15 78.37 152.12 C 79.71 153.00 81.00 153.92 82.28 154.90 C 82.75 153.78 83.20 152.65 83.63 151.51 C 91.71 151.97 99.89 151.01 107.92 152.08 C 109.90 152.29 111.89 152.44 113.89 152.62 C 113.78 152.16 113.56 151.24 113.45 150.78 C 102.04 148.26 90.33 149.73 78.75 149.49 C 77.86 148.83 76.98 148.18 76.10 147.52 C 74.43 147.38 72.77 147.28 71.10 147.23 C 73.06 153.17 79.66 156.50 80.92 162.95 C 81.68 163.52 82.41 164.13 83.12 164.77 C 81.62 164.57 80.38 163.86 79.41 162.64 C 78.89 165.67 81.21 167.88 82.76 170.14 C 86.17 174.44 89.23 179.02 92.89 183.11 C 92.04 183.71 91.20 184.32 90.34 184.91 C 90.36 186.03 90.39 187.16 90.41 188.28 C 91.07 188.76 91.73 189.24 92.39 189.73 C 92.40 188.85 92.42 187.09 92.43 186.21 C 92.91 185.51 93.40 184.82 93.89 184.12 C 94.44 184.84 95.52 186.27 96.06 186.99 C 98.80 189.67 101.24 192.70 104.45 194.84 L 104.46 195.21 C 106.86 196.87 109.04 198.89 111.66 200.23 C 116.73 201.45 121.91 201.57 126.93 200.05 C 133.04 197.00 136.87 191.09 140.58 185.62 C 140.91 185.42 141.55 185.03 141.87 184.83 C 142.57 184.21 143.24 183.55 143.89 182.88 C 149.64 177.33 157.50 173.69 161.12 166.17 C 161.11 163.88 162.56 162.29 164.29 161.02 C 164.44 160.21 164.59 159.40 164.75 158.59 C 160.98 157.07 156.85 157.43 152.88 157.15 C 148.84 156.21 144.60 156.65 140.64 155.29 C 142.27 153.33 145.01 152.42 146.00 149.89 C 147.53 146.59 148.80 141.81 145.80 138.96 C 145.07 143.02 144.97 147.28 143.21 151.08 C 138.91 153.50 133.89 154.07 129.10 152.98 C 122.80 151.34 117.39 147.59 112.05 144.03 C 112.75 142.32 113.91 140.87 114.95 139.37 C 112.96 139.03 111.65 140.63 110.10 141.54 C 107.50 142.11 104.00 141.75 102.77 139.00 C 102.48 133.48 108.18 130.74 110.30 126.25 C 110.68 124.65 110.52 122.98 110.57 121.35 C 110.07 121.37 109.09 121.40 108.60 121.41 M 65.99 141.01 C 65.08 139.92 64.31 138.55 62.80 138.24 C 62.44 138.67 61.71 139.54 61.35 139.98 C 61.59 141.28 61.84 142.58 62.14 143.88 C 65.40 158.21 76.35 168.71 82.98 181.38 C 83.43 181.46 84.32 181.63 84.77 181.71 C 84.31 179.37 83.34 177.16 81.97 175.21 C 75.96 166.44 69.63 157.76 65.48 147.90 C 64.56 145.45 63.01 142.94 63.73 140.21 C 64.65 141.17 65.79 141.67 67.14 141.51 C 68.69 139.35 71.56 138.02 71.88 135.15 C 68.95 135.61 66.03 137.77 65.99 141.01 M 71.96 144.70 C 75.27 144.84 77.47 141.70 80.62 141.03 C 80.23 140.64 79.45 139.86 79.06 139.47 C 75.98 140.00 73.12 141.65 71.96 144.70 Z" />
<path fill="#fefefe" opacity="1.00" d=" M 154.50 78.17 C 152.89 74.73 157.12 74.03 159.53 73.38 C 159.46 75.00 159.34 76.60 159.23 78.21 C 158.98 78.56 158.47 79.26 158.22 79.61 C 157.20 78.63 155.82 78.40 154.50 78.17 Z" />
<path fill="#fefefe" opacity="1.00" d=" M 170.88 75.16 C 173.28 74.98 174.93 76.66 176.36 78.33 C 176.26 80.30 176.29 82.26 176.38 84.23 C 174.95 86.68 172.78 88.81 169.88 89.29 C 163.18 90.16 156.41 89.60 149.69 89.51 C 147.83 85.98 147.60 79.39 152.23 78.08 C 152.63 81.12 154.71 83.36 156.88 85.33 C 157.37 85.59 158.36 86.12 158.85 86.38 C 160.52 86.43 162.18 86.44 163.85 86.38 C 164.41 85.24 165.00 84.12 165.63 83.02 C 165.70 80.75 165.67 78.48 165.64 76.21 C 170.28 75.16 171.82 80.73 175.71 81.96 C 175.66 81.20 175.56 79.68 175.51 78.92 C 173.67 78.07 172.23 76.63 170.88 75.16 Z" />
<path fill="#fefefe" opacity="1.00" d=" M 65.75 80.66 C 67.74 77.19 72.07 77.03 75.58 77.56 C 75.59 77.95 75.60 78.71 75.60 79.10 C 71.16 81.44 71.16 86.84 71.62 91.19 C 72.52 93.17 73.72 95.01 75.45 96.37 C 76.35 96.35 77.26 96.34 78.17 96.33 C 82.11 94.17 85.55 91.25 88.67 88.05 C 88.52 86.67 88.43 85.25 87.79 83.99 C 87.60 82.94 87.42 81.89 87.25 80.84 C 85.14 79.96 82.47 79.80 81.12 77.74 C 86.60 76.63 91.14 80.97 93.43 85.46 C 93.79 88.38 93.57 91.35 93.55 94.29 C 91.32 96.47 89.13 99.48 85.72 99.60 C 81.39 99.85 77.05 99.76 72.72 99.54 C 70.06 97.36 66.98 95.43 65.70 92.07 C 65.74 88.27 65.48 84.46 65.75 80.66 Z" />
<path fill="#fefefe" opacity="1.00" d=" M 75.70 86.22 C 75.33 84.43 74.70 82.42 76.87 81.58 C 77.82 81.99 78.78 82.40 79.74 82.81 C 79.35 84.09 78.84 85.34 78.29 86.56 C 77.42 86.45 76.56 86.33 75.70 86.22 Z" />
<path fill="#fefefe" opacity="1.00" d=" M 61.71 84.63 C 62.12 84.35 62.96 83.79 63.38 83.52 C 63.52 86.54 63.13 89.57 63.44 92.59 C 64.78 96.68 68.83 98.85 71.73 101.72 C 64.17 100.95 58.48 91.77 61.71 84.63 Z" />
<path fill="#fefefe" opacity="1.00" d=" M 171.85 90.85 C 174.03 89.72 175.86 88.03 178.00 86.82 C 177.67 90.33 174.55 93.01 171.16 93.46 C 166.86 94.39 162.44 94.62 158.07 94.16 C 156.36 93.55 154.60 93.13 152.88 92.60 C 159.23 92.50 165.75 93.06 171.85 90.85 Z" />
<path fill="#fefefe" opacity="1.00" d=" M 25.08 95.26 C 26.13 93.96 27.61 93.99 29.02 94.60 C 29.45 95.70 29.89 96.80 30.35 97.89 C 28.61 96.98 26.88 96.04 25.08 95.26 Z" />
<path fill="#fefefe" opacity="1.00" d=" M 21.07 97.65 C 26.76 96.99 32.23 100.66 34.38 105.86 C 36.01 110.79 37.51 115.89 37.55 121.12 C 35.27 119.31 33.24 117.22 31.28 115.07 C 32.12 112.86 33.02 110.58 32.34 108.19 C 31.77 108.67 31.20 109.15 30.63 109.63 C 29.69 111.37 28.53 113.49 29.60 115.46 C 32.00 119.22 37.50 121.71 36.39 126.95 C 38.35 131.16 36.57 135.64 36.39 140.01 C 33.28 137.09 34.83 132.56 34.49 128.80 C 32.06 125.85 29.18 123.25 27.35 119.85 C 24.65 115.60 18.46 112.51 19.44 106.70 C 21.77 104.38 25.51 106.01 28.47 105.49 C 28.38 105.06 28.19 104.21 28.10 103.78 C 26.42 103.25 24.73 102.68 22.95 102.69 C 21.16 103.33 19.33 103.79 17.45 104.09 C 18.69 101.96 19.97 99.86 21.07 97.65 Z" />
<path fill="#fefefe" opacity="1.00" d=" M 17.80 121.02 C 16.04 117.62 16.10 113.64 16.83 109.97 C 21.10 117.64 28.52 123.03 32.31 130.99 C 32.65 134.00 32.61 137.03 32.52 140.05 C 35.46 140.89 37.53 143.21 36.82 146.42 C 34.70 146.42 32.58 146.40 30.45 146.32 C 30.34 142.69 30.36 138.91 28.78 135.56 C 26.29 129.88 20.60 126.50 17.80 121.02 Z" />
<path fill="#fefefe" opacity="1.00" d=" M 100.20 161.11 C 103.17 161.98 106.07 163.05 108.90 164.29 C 110.14 164.51 111.37 164.73 112.61 164.95 C 111.43 168.78 111.69 172.86 110.53 176.68 C 107.54 176.95 104.53 176.98 101.57 176.46 C 101.46 171.33 102.13 166.01 100.20 161.11 Z" />
<path fill="#fefefe" opacity="1.00" d=" M 148.92 165.69 C 151.85 163.65 155.64 164.72 158.98 164.54 C 157.63 168.66 153.96 171.70 150.27 173.74 C 150.53 173.38 151.04 172.66 151.29 172.30 C 151.41 170.58 152.47 169.25 153.44 167.93 C 153.43 167.37 153.41 166.24 153.40 165.68 C 152.97 165.64 152.13 165.55 151.70 165.51 C 150.45 167.84 149.32 170.23 148.23 172.64 C 146.12 172.71 144.00 172.73 141.88 172.71 C 142.61 170.93 143.13 168.99 144.36 167.47 C 146.04 167.12 148.02 167.60 148.92 165.69 Z" />
<path fill="#fefefe" opacity="1.00" d=" M 114.66 165.36 C 118.20 164.51 121.86 164.80 125.47 164.73 C 125.59 165.85 125.71 166.97 125.83 168.09 C 126.39 170.42 126.36 172.82 126.33 175.20 C 125.85 175.48 124.88 176.05 124.40 176.33 C 121.37 176.28 118.23 176.81 115.33 175.65 C 114.48 172.28 114.92 168.79 114.66 165.36 Z" />
<path fill="#fefefe" opacity="1.00" d=" M 128.19 165.64 C 133.03 165.06 138.18 163.78 142.92 165.44 C 140.82 169.07 139.07 173.95 134.18 174.27 C 133.07 174.26 131.96 174.27 130.86 174.27 C 130.51 174.00 129.80 173.44 129.45 173.16 C 130.77 171.08 130.66 168.57 130.74 166.19 C 130.08 166.23 128.77 166.31 128.11 166.35 C 128.13 166.17 128.17 165.82 128.19 165.64 Z" />
<path fill="#fefefe" opacity="1.00" d=" M 140.49 174.18 C 140.85 173.27 141.20 172.37 141.56 171.47 C 141.52 172.41 141.43 174.29 141.39 175.23 C 143.21 175.28 145.03 175.35 146.85 175.45 C 145.63 176.42 144.41 177.39 143.18 178.35 C 142.86 178.37 142.22 178.42 141.90 178.44 C 141.40 176.07 138.86 176.49 137.04 176.09 C 138.20 175.47 139.33 174.81 140.49 174.18 Z" />
<path fill="#fefefe" opacity="1.00" d=" M 98.10 179.53 C 101.89 179.76 105.68 179.83 109.47 179.68 C 109.44 181.74 109.33 183.79 109.23 185.84 C 105.13 185.92 102.02 183.03 98.71 181.05 C 98.56 180.67 98.25 179.91 98.10 179.53 Z" />
<path fill="#fefefe" opacity="1.00" d=" M 132.39 182.97 C 132.42 181.54 132.47 180.11 132.54 178.68 C 135.00 178.68 137.46 178.65 139.92 178.71 C 138.44 181.48 135.06 181.96 132.39 182.97 Z" />
<path fill="#fefefe" opacity="1.00" d=" M 112.99 180.62 C 116.11 180.14 119.26 180.41 122.39 180.48 C 122.51 182.41 122.30 184.48 123.37 186.21 C 122.89 186.68 122.76 187.69 121.90 187.60 C 118.45 187.84 115.00 187.46 111.57 187.22 C 111.60 185.81 111.65 184.39 111.72 182.98 C 112.03 182.39 112.67 181.21 112.99 180.62 Z" />
<path fill="#fefefe" opacity="1.00" d=" M 94.44 181.12 C 94.98 181.23 96.06 181.45 96.60 181.56 C 98.94 184.25 102.07 186.16 105.45 187.21 C 107.98 187.72 110.57 188.17 112.91 189.31 C 118.65 189.63 124.87 190.42 129.97 187.14 C 134.76 185.54 138.43 181.89 143.10 180.12 C 142.81 182.72 140.79 184.35 139.25 186.23 C 136.12 188.37 133.67 191.30 131.54 194.40 C 130.02 196.78 127.15 197.62 125.05 199.37 C 121.08 199.53 116.97 200.00 113.11 198.87 C 109.67 197.36 106.68 195.08 103.43 193.26 L 103.72 192.59 L 102.59 192.45 L 102.34 191.39 L 101.43 191.72 L 101.35 190.92 C 100.47 190.28 99.72 189.51 99.10 188.62 L 98.68 188.58 C 98.46 188.23 98.01 187.52 97.79 187.17 C 96.74 185.84 95.63 184.56 94.47 183.33 C 94.46 182.78 94.45 181.68 94.44 181.12 Z" />
</g>
</svg>
