<?xml version="1.0" encoding="UTF-8" ?>
<!DOCTYPE svg PUBLIC "-//W3C//DTD SVG 1.1//EN" "http://www.w3.org/Graphics/SVG/1.1/DTD/svg11.dtd">
<svg width="210pt" height="220pt" viewBox="0 0 210 220" version="1.1" xmlns="http://www.w3.org/2000/svg">
<g id="#010101ff">
<path fill="#010101" opacity="1.00" d=" M 89.90 0.00 L 95.15 0.00 C 93.99 5.03 89.21 7.78 87.17 12.33 C 97.63 11.66 107.60 7.93 118.03 6.98 C 123.07 6.27 128.12 7.44 132.92 8.89 C 136.14 11.85 140.54 9.48 144.32 9.46 C 144.33 9.88 144.36 10.73 144.37 11.15 C 142.84 11.76 139.38 10.51 139.60 13.00 C 146.63 18.64 154.68 23.48 159.69 31.18 C 163.29 36.70 167.65 41.68 172.25 46.39 C 172.80 50.31 176.41 52.96 176.49 56.98 C 177.03 61.51 179.04 65.67 179.88 70.13 C 183.48 75.76 187.03 81.45 191.11 86.75 C 191.79 88.36 191.52 90.25 191.74 91.97 C 196.28 96.79 197.72 103.57 198.25 109.96 C 198.29 117.30 198.34 124.65 198.57 131.99 C 198.63 135.29 199.83 138.53 199.26 141.84 C 197.88 149.30 198.79 156.93 198.53 164.47 C 199.21 164.61 200.56 164.88 201.23 165.02 C 201.22 168.55 201.12 172.10 201.50 175.61 C 201.91 171.79 201.79 167.94 201.66 164.11 L 202.45 163.94 C 202.51 169.18 203.36 174.65 201.16 179.61 C 200.08 184.43 198.23 189.00 195.18 192.92 C 192.30 202.21 188.11 211.03 184.40 220.00 L 181.99 220.00 C 183.12 217.74 184.91 215.32 183.72 212.70 C 187.79 206.88 188.82 199.60 190.81 192.92 C 191.54 192.28 192.25 191.65 192.97 191.00 C 193.40 188.38 194.01 185.79 194.80 183.26 C 196.02 182.02 198.17 181.10 198.15 179.09 C 198.07 174.05 199.03 168.68 196.82 163.94 C 196.43 152.62 197.25 141.28 196.28 129.99 C 194.55 126.99 194.15 123.61 194.02 120.22 C 192.09 113.48 191.16 106.35 187.74 100.13 C 186.29 97.52 186.15 94.44 184.96 91.72 C 184.60 89.70 184.31 87.63 183.37 85.78 C 181.43 81.78 180.82 77.27 178.72 73.33 C 176.78 69.72 174.56 66.25 171.93 63.10 C 168.97 59.63 167.21 55.39 165.12 51.39 C 166.10 51.29 167.09 51.27 168.08 51.33 C 169.97 55.62 171.96 60.00 175.33 63.36 C 175.05 60.94 174.72 58.53 174.34 56.13 C 172.04 53.51 170.35 50.35 167.62 48.12 C 165.96 47.09 166.53 44.98 166.25 43.35 C 166.01 43.35 165.53 43.36 165.29 43.36 C 165.31 45.47 165.33 47.57 165.37 49.68 C 165.01 49.64 164.28 49.57 163.92 49.53 C 163.17 45.42 162.37 41.22 160.38 37.50 C 159.12 35.46 156.90 34.35 155.08 32.90 C 155.84 32.69 157.34 32.29 158.09 32.09 C 154.02 25.79 147.73 21.47 141.86 17.02 C 140.53 16.33 139.12 14.80 137.50 15.37 C 134.75 17.63 132.21 20.18 129.22 22.15 C 131.69 22.60 134.16 23.09 136.64 23.59 C 136.59 24.13 136.50 25.22 136.45 25.76 C 132.58 25.36 128.77 24.42 124.86 24.32 C 122.97 26.67 121.06 29.05 119.78 31.81 C 119.01 35.84 119.85 40.00 119.41 44.08 C 117.27 48.46 113.81 51.93 110.84 55.72 C 107.99 61.45 107.24 67.89 107.63 74.22 C 104.66 74.66 99.41 77.78 97.90 73.70 C 98.62 73.64 100.06 73.51 100.78 73.45 C 100.63 71.75 100.50 70.05 100.37 68.35 C 99.42 67.62 98.46 66.90 97.50 66.18 C 96.13 62.44 96.42 58.41 98.05 54.81 C 98.51 49.54 101.92 45.22 103.25 40.19 C 105.09 36.12 104.24 31.60 104.58 27.30 C 105.65 27.97 106.72 28.66 107.78 29.36 C 108.73 29.05 109.69 28.76 110.64 28.47 C 111.35 26.56 112.07 24.66 112.76 22.75 C 108.12 22.93 103.39 22.77 99.00 21.11 C 94.93 19.60 90.55 20.34 86.32 20.10 C 86.50 21.52 86.86 22.97 86.37 24.37 C 81.42 24.85 76.52 22.19 71.67 24.44 C 70.19 27.97 68.63 31.46 67.00 34.92 C 76.02 32.26 85.30 28.93 92.07 22.13 C 93.85 20.10 94.74 23.79 95.32 24.92 C 87.38 32.87 76.60 37.45 65.73 39.67 C 63.41 44.22 60.77 48.59 58.20 53.00 C 61.22 53.64 64.23 54.39 67.32 54.68 C 68.68 55.82 70.06 56.94 71.48 58.01 C 71.50 58.42 71.53 59.25 71.54 59.66 C 68.90 60.75 66.13 61.49 63.25 61.46 C 66.56 64.94 69.19 69.04 72.91 72.14 C 75.86 74.60 78.47 77.43 80.91 80.39 C 81.58 80.48 82.92 80.65 83.59 80.74 C 83.56 81.26 83.50 82.30 83.47 82.82 C 81.72 82.75 79.96 82.69 78.21 82.65 C 79.01 84.23 79.85 85.79 80.74 87.32 C 81.44 87.36 82.84 87.43 83.54 87.47 C 83.53 87.99 83.51 89.02 83.50 89.53 C 81.89 89.55 80.29 89.55 78.68 89.57 C 76.92 85.56 76.05 81.16 73.38 77.59 C 69.72 75.93 66.27 73.79 62.41 72.61 C 59.41 72.16 56.35 72.45 53.33 72.50 C 51.69 74.28 49.39 75.03 47.17 75.76 C 44.08 78.18 40.90 80.49 37.90 83.02 C 35.53 86.72 36.43 91.44 33.71 94.92 C 33.65 96.70 33.64 98.49 33.64 100.28 C 34.24 100.42 35.42 100.69 36.02 100.83 C 36.58 100.30 37.15 99.78 37.72 99.26 C 39.95 98.96 42.75 99.54 44.32 97.53 C 45.20 96.66 46.06 95.76 46.81 94.76 C 46.76 93.19 45.72 91.86 45.20 90.42 C 42.53 90.26 39.90 89.89 37.27 89.43 C 37.35 88.88 37.52 87.80 37.60 87.25 C 40.53 87.52 43.47 87.67 46.39 87.92 C 47.51 89.18 48.43 90.61 49.42 91.96 C 49.37 93.29 49.32 94.62 49.27 95.96 C 47.52 97.68 45.84 99.48 44.24 101.35 C 42.49 101.34 40.75 101.31 39.00 101.31 C 38.14 101.89 37.28 102.47 36.41 103.04 C 36.49 104.28 36.56 105.51 36.63 106.74 C 38.29 110.13 36.68 114.23 38.68 117.50 C 41.01 120.31 43.71 123.11 47.20 124.40 C 51.69 124.64 56.21 124.63 60.70 124.42 C 62.39 123.78 63.53 122.11 64.96 121.02 C 68.13 117.51 72.30 114.86 74.35 110.43 C 77.94 105.56 82.22 101.16 84.16 95.26 C 84.51 92.52 85.75 89.88 85.51 87.08 C 84.83 85.78 83.70 84.77 82.96 83.50 C 84.50 83.49 86.05 83.48 87.59 83.47 C 87.73 87.00 87.85 90.58 87.16 94.07 C 85.35 98.67 83.69 103.60 79.98 107.06 C 76.71 110.25 75.29 114.86 71.81 117.87 C 68.49 120.68 65.75 124.19 62.07 126.56 C 56.71 126.85 51.31 126.85 45.95 126.55 C 42.28 124.97 39.48 121.96 36.82 119.07 C 35.43 117.78 35.52 115.80 35.35 114.08 C 35.17 110.54 34.27 107.10 34.12 103.56 C 33.31 102.94 32.47 102.37 31.60 101.83 C 31.45 97.92 30.59 93.53 33.44 90.32 C 33.37 87.03 34.34 83.83 36.08 81.07 C 39.29 78.03 43.30 76.01 46.50 72.96 C 48.54 72.91 50.24 72.29 51.07 70.32 C 56.37 70.35 61.94 69.42 66.97 71.63 C 68.22 72.43 69.47 73.26 70.76 74.02 C 66.33 69.11 62.59 63.54 57.46 59.31 C 56.39 58.09 54.75 58.41 53.32 58.27 C 50.55 62.50 47.24 67.42 42.02 68.60 C 39.54 67.24 37.77 64.84 35.85 62.80 C 33.53 68.47 27.11 71.66 26.36 78.05 C 25.48 83.17 23.53 88.00 22.27 93.02 C 20.37 99.24 15.63 104.05 13.59 110.20 C 12.79 112.76 11.26 115.19 11.43 117.96 C 11.71 126.53 10.17 135.02 10.82 143.59 C 14.74 147.28 14.36 153.00 15.11 157.90 C 15.34 161.18 17.41 163.87 18.21 166.99 C 19.55 173.09 22.00 178.90 22.94 185.10 C 22.22 185.63 21.49 186.16 20.77 186.71 C 20.58 185.80 20.21 183.98 20.02 183.08 C 19.38 178.20 16.98 173.81 16.14 168.98 C 15.48 165.29 12.99 162.17 12.70 158.40 C 12.32 153.62 12.14 148.29 8.63 144.60 C 8.79 138.43 7.94 132.15 9.16 126.05 C 9.31 123.58 9.34 121.10 9.34 118.62 C 8.86 118.57 7.89 118.48 7.40 118.43 C 7.48 127.29 7.42 136.15 7.45 145.02 C 7.30 147.46 8.22 149.75 9.26 151.91 C 9.39 155.27 8.78 158.88 10.47 161.97 C 11.30 165.06 11.54 168.25 11.51 171.44 C 14.75 175.55 17.14 180.21 19.54 184.83 C 19.57 185.79 19.59 186.76 19.60 187.72 C 20.66 187.15 21.72 186.58 22.78 186.00 C 22.34 188.26 23.23 189.99 24.93 191.34 C 26.22 192.71 27.61 193.98 29.18 195.03 C 30.71 197.87 32.00 200.83 33.64 203.61 C 38.34 207.99 44.91 209.33 50.04 213.08 C 52.19 214.00 54.31 214.99 56.40 216.05 C 56.12 217.36 55.86 218.68 55.61 220.00 L 55.17 220.00 C 54.66 219.18 54.14 218.37 53.63 217.56 C 49.58 215.82 46.01 213.17 41.94 211.49 C 38.85 210.26 36.06 208.42 33.34 206.54 C 29.81 204.15 29.60 199.25 26.54 196.45 C 25.44 195.44 24.31 194.45 23.17 193.50 C 23.29 196.06 23.51 198.62 23.72 201.17 C 25.56 206.82 26.21 213.12 30.32 217.73 C 30.18 218.30 29.90 219.43 29.75 220.00 L 29.29 220.00 C 23.40 212.39 21.42 202.46 21.32 193.03 C 21.62 190.76 19.37 189.54 18.12 188.02 C 16.53 182.16 13.09 177.11 9.63 172.21 C 10.31 166.26 7.13 160.88 7.27 154.98 C 7.12 151.56 5.40 148.41 5.49 144.96 C 5.55 131.27 5.49 117.58 5.56 103.89 C 4.71 103.27 3.85 102.65 3.00 102.03 C 3.06 90.16 2.89 78.29 3.09 66.42 C 7.56 60.76 11.49 54.58 14.57 48.06 C 10.11 49.43 6.75 52.75 3.31 55.72 C 3.17 54.14 3.04 52.57 2.92 51.00 C 6.09 48.49 9.22 45.93 12.04 43.03 C 16.58 38.44 22.12 35.05 27.38 31.36 C 32.02 28.18 36.45 24.53 41.80 22.59 C 52.44 19.00 59.25 9.45 68.14 3.15 C 68.62 5.15 69.09 7.16 69.57 9.17 C 76.41 6.28 83.61 4.02 89.90 0.00 M 84.65 6.35 L 84.51 7.22 C 81.22 8.60 76.80 9.15 75.14 12.73 C 79.31 12.23 83.27 9.86 86.01 6.70 C 85.67 6.61 84.99 6.44 84.65 6.35 M 101.19 12.21 C 99.45 12.39 97.70 12.58 96.05 13.17 C 93.72 13.60 91.36 13.81 89.00 13.86 C 86.10 15.00 82.86 15.43 80.30 17.34 C 85.85 18.15 91.50 17.38 97.09 17.74 C 101.16 19.45 105.52 20.65 109.96 20.59 C 111.72 20.41 114.71 21.32 114.07 17.85 C 114.81 19.31 115.50 20.96 117.35 21.15 C 117.38 19.94 117.43 18.73 117.48 17.52 C 116.31 17.64 115.13 17.65 113.96 17.62 C 115.60 14.88 116.50 11.81 117.54 8.81 C 112.10 10.01 106.48 10.35 101.19 12.21 M 119.42 9.14 C 119.50 12.95 119.48 16.76 119.51 20.58 C 121.99 21.12 124.22 20.70 125.43 18.30 C 125.51 17.75 125.68 16.64 125.77 16.09 C 128.26 14.62 130.60 12.87 132.41 10.59 C 128.20 9.26 123.81 8.95 119.42 9.14 M 126.38 21.05 C 129.64 19.03 132.71 16.73 135.44 14.03 C 135.44 13.55 135.43 12.59 135.43 12.11 C 132.02 14.66 128.09 16.94 126.38 21.05 M 54.31 21.22 C 51.95 22.28 50.01 24.30 49.64 26.90 L 50.28 25.75 C 53.06 25.16 54.69 22.73 55.91 20.38 C 55.51 20.59 54.71 21.01 54.31 21.22 M 115.81 22.24 C 114.39 25.27 113.18 28.41 112.31 31.64 C 112.83 31.57 113.88 31.43 114.40 31.36 C 115.37 30.59 116.34 29.82 117.32 29.08 C 117.32 27.21 117.33 25.35 117.36 23.49 C 116.84 23.07 116.32 22.66 115.81 22.24 M 106.21 39.72 C 106.65 39.61 107.53 39.41 107.97 39.30 C 108.34 38.73 109.09 37.58 109.46 37.00 C 109.51 34.89 109.52 32.78 109.37 30.68 C 107.98 33.56 106.96 36.61 106.21 39.72 M 114.87 33.51 C 113.81 34.96 112.73 36.40 111.70 37.87 C 111.24 41.31 111.58 45.29 109.35 48.14 C 109.75 48.39 110.12 48.67 110.48 48.97 C 111.08 47.49 111.54 45.96 111.67 44.37 L 112.24 44.53 C 113.26 42.09 114.20 39.62 115.17 37.17 C 115.63 35.88 116.26 34.65 116.73 33.37 C 116.27 33.40 115.34 33.47 114.87 33.51 M 117.12 39.72 C 115.40 42.68 114.00 45.83 113.22 49.18 C 114.44 47.11 115.73 45.05 117.51 43.40 C 117.23 42.19 117.33 40.93 117.12 39.72 M 106.95 47.23 C 107.81 45.43 108.60 43.58 108.84 41.58 C 106.48 42.66 106.03 44.97 106.95 47.23 M 50.59 44.23 C 48.68 45.53 47.42 47.47 46.19 49.38 C 46.73 49.48 47.79 49.68 48.33 49.78 C 49.57 47.72 50.73 45.59 51.65 43.36 C 51.39 43.58 50.85 44.01 50.59 44.23 M 102.69 49.57 C 101.71 51.02 101.21 52.55 101.04 54.28 C 100.34 56.23 99.22 58.06 99.18 60.20 C 100.53 59.51 101.34 58.28 101.93 56.93 C 102.31 55.27 102.73 53.63 103.12 51.97 C 103.46 50.35 103.76 48.72 104.32 47.17 C 103.79 47.98 103.24 48.77 102.69 49.57 M 39.04 58.07 C 39.05 60.26 40.76 61.85 41.79 63.64 C 42.19 63.69 43.00 63.80 43.41 63.86 C 43.39 62.23 43.10 60.46 44.02 58.99 C 45.07 56.76 47.09 53.75 43.93 52.29 C 42.28 54.19 40.56 56.05 39.04 58.07 M 56.84 55.66 C 58.54 56.34 60.24 57.00 61.94 57.69 C 62.93 58.28 63.91 58.89 64.88 59.52 C 65.64 59.17 67.16 58.49 67.92 58.15 C 67.37 57.66 66.82 57.17 66.27 56.68 C 64.26 56.61 62.24 56.52 60.23 56.47 L 60.63 55.41 C 59.36 55.49 58.10 55.57 56.84 55.66 M 99.41 64.16 C 100.83 65.69 102.15 67.32 103.30 69.07 C 104.93 65.25 104.44 61.05 104.35 57.01 C 102.84 59.44 102.31 63.00 99.41 64.16 M 184.28 79.69 C 184.17 82.45 185.67 84.79 186.55 87.29 C 186.85 89.25 187.04 91.29 188.34 92.89 C 188.20 95.94 189.50 98.65 191.23 101.08 C 192.35 105.43 194.58 109.49 194.71 114.07 C 194.59 115.43 195.90 116.21 196.25 117.42 C 196.58 113.98 196.45 110.52 196.22 107.08 C 194.99 101.79 193.61 96.27 189.60 92.30 C 189.56 90.70 189.67 89.09 189.43 87.51 C 188.24 86.08 186.85 84.85 185.58 83.50 C 185.30 82.19 185.30 80.70 184.28 79.69 Z" />
<path fill="#010101" opacity="1.00" d=" M 129.70 45.63 C 129.08 43.00 131.86 41.45 134.02 41.29 C 137.70 41.12 141.41 41.12 145.08 41.60 C 148.19 43.53 151.41 45.43 153.16 48.79 C 156.03 50.38 157.03 53.53 158.56 56.20 C 160.35 57.37 162.92 57.90 163.74 60.14 C 165.56 64.47 168.62 68.08 171.38 71.84 C 171.40 73.41 171.39 74.98 171.40 76.55 C 172.73 77.89 174.05 79.25 175.34 80.62 C 175.22 84.69 175.34 88.76 175.23 92.84 C 173.28 95.08 172.26 98.04 169.91 99.95 C 167.30 102.11 164.39 103.98 161.25 105.26 C 157.18 105.41 153.11 105.37 149.05 105.13 C 144.94 104.39 140.69 104.64 136.67 103.28 C 134.91 102.29 133.09 101.51 131.05 101.40 C 128.97 99.23 126.38 97.66 123.69 96.37 C 119.95 92.54 118.03 87.50 114.87 83.25 C 114.29 82.90 113.12 82.20 112.53 81.86 C 110.68 72.97 114.65 64.18 120.26 57.49 C 124.46 54.28 127.88 50.24 131.95 46.86 C 133.31 46.10 134.74 45.48 136.04 44.61 C 137.47 44.57 138.90 44.54 140.33 44.53 C 140.39 45.04 140.51 46.08 140.57 46.59 C 139.83 46.61 138.37 46.64 137.64 46.65 C 131.05 48.94 127.75 55.60 121.97 58.99 C 120.03 61.93 118.08 64.87 116.44 68.00 C 116.39 68.53 116.29 69.60 116.24 70.14 C 115.66 71.04 115.08 71.94 114.51 72.85 C 114.46 75.19 114.46 77.53 114.54 79.87 C 117.77 81.65 118.57 85.53 121.29 87.84 C 122.10 93.70 128.40 95.52 132.25 99.01 C 134.14 99.63 136.17 99.93 137.91 101.00 C 145.07 103.38 152.61 102.64 160.03 102.75 C 161.27 102.92 162.28 102.07 163.29 101.50 C 166.35 99.69 169.72 97.76 171.07 94.27 C 174.11 91.30 172.39 86.71 172.78 82.94 C 173.14 80.61 170.54 79.64 169.24 78.18 C 169.23 76.59 169.25 75.00 169.28 73.41 C 166.83 69.55 163.40 66.30 161.85 61.91 C 161.01 59.49 158.01 59.25 156.37 57.61 C 154.90 55.37 154.48 52.31 151.79 51.11 C 150.13 48.82 148.74 46.23 146.01 45.06 C 142.80 42.84 138.83 43.33 135.14 43.43 C 133.00 43.39 131.94 46.50 129.70 45.63 Z" />
<path fill="#010101" opacity="1.00" d=" M 143.78 55.43 C 144.62 55.40 145.46 55.37 146.31 55.34 C 146.33 58.88 146.29 62.42 146.34 65.95 C 150.24 66.81 154.05 68.29 158.13 67.69 C 158.76 66.44 159.40 65.18 160.04 63.93 C 162.82 66.17 160.65 68.82 158.52 70.38 C 156.32 70.28 154.12 70.28 151.92 70.23 C 149.56 68.98 147.03 68.15 144.33 68.43 C 143.29 64.17 144.01 59.76 143.78 55.43 Z" />
<path fill="#010101" opacity="1.00" d=" M 101.51 105.81 C 102.15 105.63 103.43 105.26 104.08 105.07 C 104.72 105.73 105.37 106.38 106.01 107.04 C 107.94 106.66 109.59 105.51 111.10 104.30 C 116.16 108.56 120.77 113.65 123.96 119.49 C 126.72 117.75 129.98 117.17 132.92 115.85 C 133.83 114.92 134.17 113.56 134.83 112.45 C 138.54 112.25 142.34 112.09 145.90 113.39 C 149.99 113.46 154.27 112.99 157.95 115.22 C 160.39 115.29 162.87 115.12 165.28 115.65 C 168.31 117.33 171.63 118.54 174.47 120.52 C 173.98 122.02 173.60 123.54 173.25 125.08 C 170.81 128.10 168.63 131.49 168.22 135.46 C 166.01 140.09 162.80 144.58 163.35 150.02 C 160.49 155.50 160.16 161.86 160.27 167.92 C 159.80 168.97 159.33 170.03 158.89 171.10 C 158.54 174.14 158.49 177.24 157.32 180.11 C 155.86 183.56 157.49 187.45 156.15 190.92 C 155.36 192.51 155.26 194.30 155.05 196.04 C 154.45 197.46 153.77 198.84 153.15 200.24 C 152.32 200.70 151.49 201.15 150.66 201.60 C 150.59 202.17 150.46 203.30 150.39 203.87 C 147.10 207.42 144.77 212.14 140.22 214.27 C 136.27 216.24 132.73 219.62 127.97 219.12 C 122.99 218.50 117.69 219.43 112.93 217.79 C 111.61 217.61 110.30 217.37 108.99 217.17 C 107.59 216.81 106.18 216.43 104.97 215.61 C 104.39 215.54 103.23 215.39 102.65 215.32 C 99.45 213.14 96.64 210.31 92.92 209.02 C 89.24 207.14 85.64 204.54 81.37 204.42 C 81.02 204.99 80.31 206.13 79.96 206.71 C 77.68 206.86 75.40 206.87 73.13 206.66 C 71.51 204.92 69.32 203.94 67.50 202.46 C 60.91 195.05 58.36 184.94 51.72 177.53 C 51.88 171.67 51.67 165.81 51.84 159.95 C 52.21 158.62 52.52 157.28 52.82 155.93 C 53.51 154.58 54.16 153.21 54.90 151.88 C 57.30 150.19 60.37 149.78 63.06 148.67 C 68.68 148.14 74.36 148.85 79.99 148.21 C 84.83 145.02 89.73 141.83 94.01 137.89 C 99.93 134.69 105.31 130.63 110.64 126.56 C 112.64 125.13 114.83 124.01 116.85 122.60 C 115.84 122.78 114.98 123.35 114.02 123.69 C 113.76 123.67 113.24 123.63 112.98 123.62 C 112.04 125.89 110.15 126.07 107.93 125.67 C 107.37 128.14 104.57 128.40 103.20 126.53 C 102.82 126.47 102.06 126.35 101.68 126.28 C 101.11 127.68 102.43 130.99 99.90 130.58 C 98.32 131.18 97.98 128.90 96.95 128.17 C 96.53 129.79 95.35 130.64 93.73 130.82 C 92.60 132.52 91.27 134.06 90.00 135.65 C 89.30 135.59 88.60 135.53 87.91 135.47 C 87.16 133.59 86.16 131.85 84.56 130.57 C 85.40 129.63 86.30 128.74 87.16 127.82 C 87.24 124.74 87.29 121.66 87.60 118.59 C 88.40 117.71 89.17 116.81 90.07 116.03 C 90.71 116.63 91.98 117.81 92.61 118.40 C 92.62 117.28 92.62 115.03 92.62 113.90 C 93.11 113.28 93.59 112.65 94.07 112.03 C 95.44 112.54 96.45 113.46 97.11 114.78 C 98.46 114.34 99.49 113.50 100.20 112.26 C 101.45 112.36 102.69 112.47 103.94 112.59 C 102.77 110.47 101.32 108.36 101.51 105.81 M 136.85 114.52 C 134.90 119.30 129.32 119.32 125.34 121.43 C 126.58 123.01 126.75 125.00 124.91 126.12 C 122.75 127.54 121.26 124.34 119.21 124.44 C 116.75 125.74 114.25 127.02 112.06 128.76 C 114.30 131.23 116.69 133.57 119.07 135.92 C 119.74 137.23 120.05 138.99 121.44 139.76 C 123.62 140.05 125.80 139.35 127.98 139.17 C 132.80 137.04 134.17 131.85 137.26 128.07 C 137.11 125.09 138.18 122.30 139.08 119.51 C 139.55 119.46 140.49 119.35 140.96 119.30 C 144.53 122.06 147.44 125.53 150.79 128.54 C 154.51 128.06 157.58 124.63 159.85 121.71 C 161.43 120.85 163.04 120.05 164.66 119.26 C 164.70 119.90 164.79 121.17 164.83 121.81 C 162.90 122.89 160.95 124.01 159.90 126.05 C 158.91 126.70 157.94 127.38 156.99 128.09 C 155.96 128.95 154.91 129.77 153.88 130.62 C 152.12 130.66 150.35 130.87 148.61 130.57 C 146.58 128.01 144.10 125.86 142.13 123.26 C 141.67 123.24 140.76 123.20 140.30 123.18 C 139.79 125.20 139.63 127.28 139.26 129.33 C 137.64 131.73 136.25 134.27 134.74 136.73 C 131.26 141.31 125.16 142.65 119.69 142.57 C 117.71 139.22 115.99 135.58 112.72 133.27 C 111.85 132.18 111.05 131.04 110.07 130.06 C 107.33 131.56 105.21 133.93 102.56 135.57 C 99.35 138.09 95.31 139.42 92.46 142.40 C 89.85 144.97 86.42 146.47 83.74 148.95 C 81.76 150.83 78.84 150.44 76.36 150.78 C 76.25 153.52 75.43 156.37 76.07 159.06 C 77.60 160.09 79.35 161.00 79.80 162.96 C 81.18 162.64 82.57 162.41 83.98 162.26 C 87.45 160.72 87.24 155.99 89.20 153.10 C 90.04 151.18 90.93 149.28 91.73 147.34 C 92.60 147.41 94.33 147.53 95.20 147.59 C 95.41 148.18 95.81 149.35 96.02 149.94 C 96.65 151.12 97.27 152.31 97.90 153.50 C 99.62 153.50 101.35 153.54 103.07 153.51 C 104.51 152.36 105.97 151.25 107.40 150.10 C 108.93 144.87 111.05 139.60 110.47 134.06 C 110.98 134.12 112.00 134.23 112.52 134.29 C 113.53 140.41 111.12 146.31 109.45 152.10 C 107.69 153.26 106.09 154.77 104.07 155.49 C 101.31 155.90 98.52 155.67 95.74 155.64 C 95.24 154.26 94.68 152.91 94.11 151.56 L 93.47 151.53 C 93.41 151.09 93.30 150.20 93.25 149.76 C 92.50 151.55 91.76 153.35 91.17 155.20 C 89.96 157.85 88.26 160.33 88.02 163.31 C 86.48 163.82 84.92 164.30 83.36 164.76 C 83.38 165.83 83.39 166.91 83.40 167.98 C 85.83 170.42 87.88 173.34 91.04 174.90 C 91.75 175.85 92.06 177.21 93.06 177.90 C 96.91 176.58 100.84 174.75 103.48 171.55 C 104.44 169.73 105.17 167.79 106.29 166.06 C 108.78 165.21 111.56 165.82 114.16 165.66 C 114.70 166.52 115.24 167.39 115.78 168.25 C 116.83 168.21 117.89 168.17 118.95 168.14 C 120.26 166.70 121.60 165.29 123.02 163.95 C 124.72 160.65 127.51 157.72 127.61 153.81 C 128.48 151.22 129.59 148.75 132.62 148.47 C 132.65 151.00 130.89 152.94 129.64 154.98 C 129.58 156.03 129.51 157.08 129.44 158.14 C 128.46 159.65 127.68 161.28 126.74 162.81 C 125.35 165.87 122.84 168.15 120.47 170.44 C 118.28 170.37 116.09 170.38 113.91 170.28 C 112.90 167.78 110.29 168.11 108.04 168.17 C 107.53 169.05 107.03 169.95 106.55 170.85 C 106.45 171.40 106.25 172.50 106.15 173.06 C 102.18 176.65 97.39 179.84 91.98 180.53 C 91.04 179.30 90.04 178.13 89.12 176.90 C 85.72 173.73 80.75 170.63 80.72 165.49 C 77.80 165.82 77.19 162.36 74.64 161.75 C 74.77 163.20 74.91 164.66 75.06 166.12 C 74.73 167.50 74.44 168.89 74.12 170.27 C 71.00 170.31 67.85 170.57 64.74 170.22 C 62.55 167.81 60.07 165.72 57.62 163.60 C 57.40 162.60 57.24 161.59 57.14 160.58 C 57.59 160.61 58.49 160.67 58.93 160.70 C 61.00 163.32 63.77 165.25 65.86 167.85 C 68.08 167.82 70.30 167.80 72.52 167.74 C 72.04 161.97 74.37 156.48 73.64 150.70 C 70.42 150.74 67.20 150.69 63.99 150.80 C 61.61 151.87 59.09 152.55 56.71 153.62 C 52.74 160.85 54.95 169.32 54.36 177.16 C 57.30 179.91 58.64 183.81 61.06 186.96 C 63.53 191.66 65.42 196.84 69.31 200.60 C 71.12 201.91 72.92 203.24 74.65 204.66 C 76.63 204.73 78.73 204.74 80.01 202.91 C 77.04 202.02 73.46 201.50 72.04 198.32 C 74.50 198.20 76.77 199.25 79.07 199.96 C 80.01 200.28 80.96 200.61 81.91 200.93 C 85.27 203.14 89.44 203.60 92.62 206.15 C 96.85 207.63 100.19 210.65 104.02 212.88 C 106.55 213.92 109.15 214.71 111.85 215.14 C 113.21 215.34 114.53 215.72 115.75 216.35 C 116.74 216.41 117.74 216.47 118.75 216.53 C 118.76 214.31 118.75 212.09 118.70 209.88 C 116.90 209.61 115.19 209.05 113.84 207.79 C 112.33 207.51 110.88 207.01 109.56 206.22 C 108.47 207.97 107.28 209.67 105.78 211.11 C 104.43 207.96 106.26 205.04 108.91 203.29 C 112.10 205.03 115.89 205.37 118.67 207.88 C 119.06 204.38 118.12 200.63 119.27 197.30 C 122.65 195.69 125.88 199.84 129.49 199.69 C 129.48 196.73 129.45 193.76 129.58 190.80 C 130.41 189.48 131.19 188.12 131.97 186.77 C 134.00 186.78 136.05 186.61 138.07 186.90 C 139.50 187.90 141.05 188.74 142.71 189.29 C 143.02 187.59 142.05 185.44 143.26 184.04 C 145.05 183.08 147.08 182.31 148.02 180.34 C 149.92 180.29 151.82 180.32 153.72 180.45 C 153.89 182.97 151.46 182.23 150.03 182.68 C 148.81 184.21 147.25 185.34 145.30 185.74 C 145.25 186.93 145.20 188.12 145.15 189.31 C 146.61 190.17 148.18 190.75 149.89 190.90 L 149.88 192.98 C 148.16 192.82 146.43 192.66 144.71 192.51 C 145.91 193.92 147.15 195.28 148.39 196.65 C 148.52 197.38 148.78 198.85 148.91 199.59 C 152.80 198.27 152.43 193.70 153.65 190.55 C 155.40 186.91 153.75 182.74 155.04 178.99 C 156.46 175.06 156.36 170.84 157.59 166.87 C 157.67 160.57 158.47 154.09 161.25 148.36 C 160.22 141.77 166.07 137.26 166.68 131.02 C 167.80 127.70 170.54 125.24 171.78 121.96 C 168.89 120.60 166.20 118.85 163.21 117.71 C 161.11 117.31 158.96 117.57 156.85 117.30 C 154.60 116.68 152.42 115.54 150.02 115.65 C 147.34 115.46 144.40 116.23 141.99 114.70 C 140.29 114.57 138.56 114.56 136.85 114.52 M 133.63 189.17 C 132.98 190.35 132.32 191.52 131.66 192.69 C 131.71 195.59 131.70 198.50 131.62 201.41 C 132.35 201.40 133.82 201.39 134.55 201.38 C 135.12 205.31 136.01 210.63 140.94 210.97 C 143.77 208.38 147.44 205.36 146.67 201.04 C 147.11 198.20 144.78 196.36 142.77 194.86 C 142.76 193.73 142.76 192.60 142.76 191.47 C 142.05 191.42 140.62 191.33 139.91 191.28 C 138.10 189.78 136.02 188.90 133.63 189.17 M 121.28 216.51 C 124.50 216.71 127.76 217.05 130.96 216.52 C 133.33 215.50 135.48 214.01 137.78 212.85 C 135.11 210.85 133.04 208.16 132.38 204.83 C 129.81 203.67 127.76 201.36 124.80 201.19 C 123.68 200.42 122.56 199.66 121.44 198.89 C 121.08 204.76 121.29 210.64 121.28 216.51 Z" />
</g>
<g id="#fdfdfdff">
<path fill="#fdfdfd" opacity="1.00" d=" M 84.65 6.35 C 84.99 6.44 85.67 6.61 86.01 6.70 C 83.27 9.86 79.31 12.23 75.14 12.73 C 76.80 9.15 81.22 8.60 84.51 7.22 L 84.65 6.35 Z" />
<path fill="#fdfdfd" opacity="1.00" d=" M 101.19 12.21 C 106.48 10.35 112.10 10.01 117.54 8.81 C 116.50 11.81 115.60 14.88 113.96 17.62 C 115.13 17.65 116.31 17.64 117.48 17.52 C 117.43 18.73 117.38 19.94 117.35 21.15 C 115.50 20.96 114.81 19.31 114.07 17.85 C 114.71 21.32 111.72 20.41 109.96 20.59 C 105.52 20.65 101.16 19.45 97.09 17.74 C 91.50 17.38 85.85 18.15 80.30 17.34 C 82.86 15.43 86.10 15.00 89.00 13.86 C 91.36 13.81 93.72 13.60 96.05 13.17 C 97.70 12.58 99.45 12.39 101.19 12.21 Z" />
<path fill="#fdfdfd" opacity="1.00" d=" M 119.42 9.14 C 123.81 8.95 128.20 9.26 132.41 10.59 C 130.60 12.87 128.26 14.62 125.77 16.09 C 125.68 16.64 125.51 17.75 125.43 18.30 C 124.22 20.70 121.99 21.12 119.51 20.58 C 119.48 16.76 119.50 12.95 119.42 9.14 Z" />
<path fill="#fdfdfd" opacity="1.00" d=" M 126.38 21.05 C 128.09 16.94 132.02 14.66 135.43 12.11 C 135.43 12.59 135.44 13.55 135.44 14.03 C 132.71 16.73 129.64 19.03 126.38 21.05 Z" />
<path fill="#fdfdfd" opacity="1.00" d=" M 137.50 15.37 C 139.12 14.80 140.53 16.33 141.86 17.02 C 147.73 21.47 154.02 25.79 158.09 32.09 C 157.34 32.29 155.84 32.69 155.08 32.90 C 156.90 34.35 159.12 35.46 160.38 37.50 C 162.37 41.22 163.17 45.42 163.92 49.53 C 164.28 49.57 165.01 49.64 165.37 49.68 C 165.33 47.57 165.31 45.47 165.29 43.36 C 165.53 43.36 166.01 43.35 166.25 43.35 C 166.53 44.98 165.96 47.09 167.62 48.12 C 170.35 50.35 172.04 53.51 174.34 56.13 C 174.72 58.53 175.05 60.94 175.33 63.36 C 171.96 60.00 169.97 55.62 168.08 51.33 C 167.09 51.27 166.10 51.29 165.12 51.39 C 167.21 55.39 168.97 59.63 171.93 63.10 C 174.56 66.25 176.78 69.72 178.72 73.33 C 180.82 77.27 181.43 81.78 183.37 85.78 C 184.31 87.63 184.60 89.70 184.96 91.72 C 186.15 94.44 186.29 97.52 187.74 100.13 C 191.16 106.35 192.09 113.48 194.02 120.22 C 194.15 123.61 194.55 126.99 196.28 129.99 C 197.25 141.28 196.43 152.62 196.82 163.94 C 199.03 168.68 198.07 174.05 198.15 179.09 C 198.17 181.10 196.02 182.02 194.80 183.26 C 194.01 185.79 193.40 188.38 192.97 191.00 C 192.25 191.65 191.54 192.28 190.81 192.92 C 188.82 199.60 187.79 206.88 183.72 212.70 C 184.91 215.32 183.12 217.74 181.99 220.00 L 55.61 220.00 C 55.86 218.68 56.12 217.36 56.40 216.05 C 54.31 214.99 52.19 214.00 50.04 213.08 C 44.91 209.33 38.34 207.99 33.64 203.61 C 32.00 200.83 30.71 197.87 29.18 195.03 C 27.61 193.98 26.22 192.71 24.93 191.34 C 23.23 189.99 22.34 188.26 22.78 186.00 C 21.72 186.58 20.66 187.15 19.60 187.72 C 19.59 186.76 19.57 185.79 19.54 184.83 C 17.14 180.21 14.75 175.55 11.51 171.44 C 11.54 168.25 11.30 165.06 10.47 161.97 C 8.78 158.88 9.39 155.27 9.26 151.91 C 8.22 149.75 7.30 147.46 7.45 145.02 C 7.42 136.15 7.48 127.29 7.40 118.43 C 7.89 118.48 8.86 118.57 9.34 118.62 C 9.34 121.10 9.31 123.58 9.16 126.05 C 7.94 132.15 8.79 138.43 8.63 144.60 C 12.14 148.29 12.32 153.62 12.70 158.40 C 12.99 162.17 15.48 165.29 16.14 168.98 C 16.98 173.81 19.38 178.20 20.02 183.08 C 20.21 183.98 20.58 185.80 20.77 186.71 C 21.49 186.16 22.22 185.63 22.94 185.10 C 22.00 178.90 19.55 173.09 18.21 166.99 C 17.41 163.87 15.34 161.18 15.11 157.90 C 14.36 153.00 14.74 147.28 10.82 143.59 C 10.17 135.02 11.71 126.53 11.43 117.96 C 11.26 115.19 12.79 112.76 13.59 110.20 C 15.63 104.05 20.37 99.24 22.27 93.02 C 23.53 88.00 25.48 83.17 26.36 78.05 C 27.11 71.66 33.53 68.47 35.85 62.80 C 37.77 64.84 39.54 67.24 42.02 68.60 C 47.24 67.42 50.55 62.50 53.32 58.27 C 54.75 58.41 56.39 58.09 57.46 59.31 C 62.59 63.54 66.33 69.11 70.76 74.02 C 69.47 73.26 68.22 72.43 66.97 71.63 C 61.94 69.42 56.37 70.35 51.07 70.32 C 50.24 72.29 48.54 72.91 46.50 72.96 C 43.30 76.01 39.29 78.03 36.08 81.07 C 34.34 83.83 33.37 87.03 33.44 90.32 C 30.59 93.53 31.45 97.92 31.60 101.83 C 32.47 102.37 33.31 102.94 34.12 103.56 C 34.27 107.10 35.17 110.54 35.35 114.08 C 35.52 115.80 35.43 117.78 36.82 119.07 C 39.48 121.96 42.28 124.97 45.95 126.55 C 51.31 126.85 56.71 126.85 62.07 126.56 C 65.75 124.19 68.49 120.68 71.81 117.87 C 75.29 114.86 76.71 110.25 79.98 107.06 C 83.69 103.60 85.35 98.67 87.16 94.07 C 87.85 90.58 87.73 87.00 87.59 83.47 C 86.05 83.48 84.50 83.49 82.96 83.50 C 83.70 84.77 84.83 85.78 85.51 87.08 C 85.75 89.88 84.51 92.52 84.16 95.26 C 82.22 101.16 77.94 105.56 74.35 110.43 C 72.30 114.86 68.13 117.51 64.96 121.02 C 63.53 122.11 62.39 123.78 60.70 124.42 C 56.21 124.63 51.69 124.64 47.20 124.40 C 43.71 123.11 41.01 120.31 38.68 117.50 C 36.68 114.23 38.29 110.13 36.63 106.74 C 36.56 105.51 36.49 104.28 36.41 103.04 C 37.28 102.47 38.14 101.89 39.00 101.31 C 40.75 101.31 42.49 101.34 44.24 101.35 C 45.84 99.48 47.52 97.68 49.27 95.96 C 49.32 94.62 49.37 93.29 49.42 91.96 C 48.43 90.61 47.51 89.18 46.39 87.92 C 43.47 87.67 40.53 87.52 37.60 87.25 C 37.52 87.80 37.35 88.88 37.27 89.43 C 39.90 89.89 42.53 90.26 45.20 90.42 C 45.72 91.86 46.76 93.19 46.81 94.76 C 46.06 95.76 45.20 96.66 44.32 97.53 C 42.75 99.54 39.95 98.96 37.72 99.26 C 37.15 99.78 36.58 100.30 36.02 100.83 C 35.42 100.69 34.24 100.42 33.64 100.28 C 33.64 98.49 33.65 96.70 33.71 94.92 C 36.43 91.44 35.53 86.72 37.90 83.02 C 40.90 80.49 44.08 78.18 47.17 75.76 C 49.39 75.03 51.69 74.28 53.33 72.50 C 56.35 72.45 59.41 72.16 62.41 72.61 C 66.27 73.79 69.72 75.93 73.38 77.59 C 76.05 81.16 76.92 85.56 78.68 89.57 C 80.29 89.55 81.89 89.55 83.50 89.53 C 83.51 89.02 83.53 87.99 83.54 87.47 C 82.84 87.43 81.44 87.36 80.74 87.32 C 79.85 85.79 79.01 84.23 78.21 82.65 C 79.96 82.69 81.72 82.75 83.47 82.82 C 83.50 82.30 83.56 81.26 83.59 80.74 C 82.92 80.65 81.58 80.48 80.91 80.39 C 78.47 77.43 75.86 74.60 72.91 72.14 C 69.19 69.04 66.56 64.94 63.25 61.46 C 66.13 61.49 68.90 60.75 71.54 59.66 C 71.53 59.25 71.50 58.42 71.48 58.01 C 70.06 56.94 68.68 55.82 67.32 54.68 C 64.23 54.39 61.22 53.64 58.20 53.00 C 60.77 48.59 63.41 44.22 65.73 39.67 C 76.60 37.45 87.38 32.87 95.32 24.92 C 94.74 23.79 93.85 20.10 92.07 22.13 C 85.30 28.93 76.02 32.26 67.00 34.92 C 68.63 31.46 70.19 27.97 71.67 24.44 C 76.52 22.19 81.42 24.85 86.37 24.37 C 86.86 22.97 86.50 21.52 86.32 20.10 C 90.55 20.34 94.93 19.60 99.00 21.11 C 103.39 22.77 108.12 22.93 112.76 22.75 C 112.07 24.66 111.35 26.56 110.64 28.47 C 109.69 28.76 108.73 29.05 107.78 29.36 C 106.72 28.66 105.65 27.97 104.58 27.30 C 104.24 31.60 105.09 36.12 103.25 40.19 C 101.92 45.22 98.51 49.54 98.05 54.81 C 96.42 58.41 96.13 62.44 97.50 66.18 C 98.46 66.90 99.42 67.62 100.37 68.35 C 100.50 70.05 100.63 71.75 100.78 73.45 C 100.06 73.51 98.62 73.64 97.90 73.70 C 99.41 77.78 104.66 74.66 107.63 74.22 C 107.24 67.89 107.99 61.45 110.84 55.72 C 113.81 51.93 117.27 48.46 119.41 44.08 C 119.85 40.00 119.01 35.84 119.78 31.81 C 121.06 29.05 122.97 26.67 124.86 24.32 C 128.77 24.42 132.58 25.36 136.45 25.76 C 136.50 25.22 136.59 24.13 136.64 23.59 C 134.16 23.09 131.69 22.60 129.22 22.15 C 132.21 20.18 134.75 17.63 137.50 15.37 M 129.70 45.63 C 131.94 46.50 133.00 43.39 135.14 43.43 C 138.83 43.33 142.80 42.84 146.01 45.06 C 148.74 46.23 150.13 48.82 151.79 51.11 C 154.48 52.31 154.90 55.37 156.37 57.61 C 158.01 59.25 161.01 59.49 161.85 61.91 C 163.40 66.30 166.83 69.55 169.28 73.41 C 169.25 75.00 169.23 76.59 169.24 78.18 C 170.54 79.64 173.14 80.61 172.78 82.94 C 172.39 86.71 174.11 91.30 171.07 94.27 C 169.72 97.76 166.35 99.69 163.29 101.50 C 162.28 102.07 161.27 102.92 160.03 102.75 C 152.61 102.64 145.07 103.38 137.91 101.00 C 136.17 99.93 134.14 99.63 132.25 99.01 C 128.40 95.52 122.10 93.70 121.29 87.84 C 118.57 85.53 117.77 81.65 114.54 79.87 C 114.46 77.53 114.46 75.19 114.51 72.85 C 115.08 71.94 115.66 71.04 116.24 70.14 C 116.29 69.60 116.39 68.53 116.44 68.00 C 118.08 64.87 120.03 61.93 121.97 58.99 C 127.75 55.60 131.05 48.94 137.64 46.65 C 138.37 46.64 139.83 46.61 140.57 46.59 C 140.51 46.08 140.39 45.04 140.33 44.53 C 138.90 44.54 137.47 44.57 136.04 44.61 C 134.74 45.48 133.31 46.10 131.95 46.86 C 127.88 50.24 124.46 54.28 120.26 57.49 C 114.65 64.18 110.68 72.97 112.53 81.86 C 113.12 82.20 114.29 82.90 114.87 83.25 C 118.03 87.50 119.95 92.54 123.69 96.37 C 126.38 97.66 128.97 99.23 131.05 101.40 C 133.09 101.51 134.91 102.29 136.67 103.28 C 140.69 104.64 144.94 104.39 149.05 105.13 C 153.11 105.37 157.18 105.41 161.25 105.26 C 164.39 103.98 167.30 102.11 169.91 99.95 C 172.26 98.04 173.28 95.08 175.23 92.84 C 175.34 88.76 175.22 84.69 175.34 80.62 C 174.05 79.25 172.73 77.89 171.40 76.55 C 171.39 74.98 171.40 73.41 171.38 71.84 C 168.62 68.08 165.56 64.47 163.74 60.14 C 162.92 57.90 160.35 57.37 158.56 56.20 C 157.03 53.53 156.03 50.38 153.16 48.79 C 151.41 45.43 148.19 43.53 145.08 41.60 C 141.41 41.12 137.70 41.12 134.02 41.29 C 131.86 41.45 129.08 43.00 129.70 45.63 M 143.78 55.43 C 144.01 59.76 143.29 64.17 144.33 68.43 C 147.03 68.15 149.56 68.98 151.92 70.23 C 154.12 70.28 156.32 70.28 158.52 70.38 C 160.65 68.82 162.82 66.17 160.04 63.93 C 159.40 65.18 158.76 66.44 158.13 67.69 C 154.05 68.29 150.24 66.81 146.34 65.95 C 146.29 62.42 146.33 58.88 146.31 55.34 C 145.46 55.37 144.62 55.40 143.78 55.43 M 101.51 105.81 C 101.32 108.36 102.77 110.47 103.94 112.59 C 102.69 112.47 101.45 112.36 100.20 112.26 C 99.49 113.50 98.46 114.34 97.11 114.78 C 96.45 113.46 95.44 112.54 94.07 112.03 C 93.59 112.65 93.11 113.28 92.62 113.90 C 92.62 115.03 92.62 117.28 92.61 118.40 C 91.98 117.81 90.71 116.63 90.07 116.03 C 89.17 116.81 88.40 117.71 87.60 118.59 C 87.29 121.66 87.24 124.74 87.16 127.82 C 86.30 128.74 85.40 129.63 84.56 130.57 C 86.16 131.85 87.16 133.59 87.91 135.47 C 88.60 135.53 89.30 135.59 90.00 135.65 C 91.27 134.06 92.60 132.52 93.73 130.82 C 95.35 130.64 96.53 129.79 96.95 128.17 C 97.98 128.90 98.32 131.18 99.90 130.58 C 102.43 130.99 101.11 127.68 101.68 126.28 C 102.06 126.35 102.82 126.47 103.20 126.53 C 104.57 128.40 107.37 128.14 107.93 125.67 C 110.15 126.07 112.04 125.89 112.98 123.62 C 113.24 123.63 113.76 123.67 114.02 123.69 C 114.98 123.35 115.84 122.78 116.85 122.60 C 114.83 124.01 112.64 125.13 110.64 126.56 C 105.31 130.63 99.93 134.69 94.01 137.89 C 89.73 141.83 84.83 145.02 79.99 148.21 C 74.36 148.85 68.68 148.14 63.06 148.67 C 60.37 149.78 57.30 150.19 54.90 151.88 C 54.16 153.21 53.51 154.58 52.82 155.93 C 52.52 157.28 52.21 158.62 51.84 159.95 C 51.67 165.81 51.88 171.67 51.72 177.53 C 58.36 184.94 60.91 195.05 67.50 202.46 C 69.32 203.94 71.51 204.92 73.13 206.66 C 75.40 206.87 77.68 206.86 79.96 206.71 C 80.31 206.13 81.02 204.99 81.37 204.42 C 85.64 204.54 89.24 207.14 92.92 209.02 C 96.64 210.31 99.45 213.14 102.65 215.32 C 103.23 215.39 104.39 215.54 104.97 215.61 C 106.18 216.43 107.59 216.81 108.99 217.17 C 110.30 217.37 111.61 217.61 112.93 217.79 C 117.69 219.43 122.99 218.50 127.97 219.12 C 132.73 219.62 136.27 216.24 140.22 214.27 C 144.77 212.14 147.10 207.42 150.39 203.87 C 150.46 203.30 150.59 202.17 150.66 201.60 C 151.49 201.15 152.32 200.70 153.15 200.24 C 153.77 198.84 154.45 197.46 155.05 196.04 C 155.26 194.30 155.36 192.51 156.15 190.92 C 157.49 187.45 155.86 183.56 157.32 180.11 C 158.49 177.24 158.54 174.14 158.89 171.10 C 159.33 170.03 159.80 168.97 160.27 167.92 C 160.16 161.86 160.49 155.50 163.35 150.02 C 162.80 144.58 166.01 140.09 168.22 135.46 C 168.63 131.49 170.81 128.10 173.25 125.08 C 173.60 123.54 173.98 122.02 174.47 120.52 C 171.63 118.54 168.31 117.33 165.28 115.65 C 162.87 115.12 160.39 115.29 157.95 115.22 C 154.27 112.99 149.99 113.46 145.90 113.39 C 142.34 112.09 138.54 112.25 134.83 112.45 C 134.17 113.56 133.83 114.92 132.92 115.85 C 129.98 117.17 126.72 117.75 123.96 119.49 C 120.77 113.65 116.16 108.56 111.10 104.30 C 109.59 105.51 107.94 106.66 106.01 107.04 C 105.37 106.38 104.72 105.73 104.08 105.07 C 103.43 105.26 102.15 105.63 101.51 105.81 Z" />
<path fill="#fdfdfd" opacity="1.00" d=" M 54.31 21.22 C 54.71 21.01 55.51 20.59 55.91 20.38 C 54.69 22.73 53.06 25.16 50.28 25.75 L 49.64 26.90 C 50.01 24.30 51.95 22.28 54.31 21.22 Z" />
<path fill="#fdfdfd" opacity="1.00" d=" M 115.81 22.24 C 116.32 22.66 116.84 23.07 117.36 23.49 C 117.33 25.35 117.32 27.21 117.32 29.08 C 116.34 29.82 115.37 30.59 114.40 31.36 C 113.88 31.43 112.83 31.57 112.31 31.64 C 113.18 28.41 114.39 25.27 115.81 22.24 Z" />
<path fill="#fdfdfd" opacity="1.00" d=" M 106.21 39.72 C 106.96 36.61 107.98 33.56 109.37 30.68 C 109.52 32.78 109.51 34.89 109.46 37.00 C 109.09 37.58 108.34 38.73 107.97 39.30 C 107.53 39.41 106.65 39.61 106.21 39.72 Z" />
<path fill="#fdfdfd" opacity="1.00" d=" M 114.87 33.51 C 115.34 33.47 116.27 33.40 116.73 33.37 C 116.26 34.65 115.63 35.88 115.17 37.17 C 114.20 39.62 113.26 42.09 112.24 44.53 L 111.67 44.37 C 111.54 45.96 111.08 47.49 110.48 48.97 C 110.12 48.67 109.75 48.39 109.35 48.14 C 111.58 45.29 111.24 41.31 111.70 37.87 C 112.73 36.40 113.81 34.96 114.87 33.51 Z" />
<path fill="#fdfdfd" opacity="1.00" d=" M 117.12 39.72 C 117.33 40.93 117.23 42.19 117.51 43.40 C 115.73 45.05 114.44 47.11 113.22 49.18 C 114.00 45.83 115.40 42.68 117.12 39.72 Z" />
<path fill="#fdfdfd" opacity="1.00" d=" M 106.95 47.23 C 106.03 44.97 106.48 42.66 108.84 41.58 C 108.60 43.58 107.81 45.43 106.95 47.23 Z" />
<path fill="#fdfdfd" opacity="1.00" d=" M 50.59 44.23 C 50.85 44.01 51.39 43.58 51.65 43.36 C 50.73 45.59 49.57 47.72 48.33 49.78 C 47.79 49.68 46.73 49.48 46.19 49.38 C 47.42 47.47 48.68 45.53 50.59 44.23 Z" />
<path fill="#fdfdfd" opacity="1.00" d=" M 102.69 49.57 C 103.24 48.77 103.79 47.98 104.32 47.17 C 103.76 48.72 103.46 50.35 103.12 51.97 C 102.73 53.63 102.31 55.27 101.93 56.93 C 101.34 58.28 100.53 59.51 99.18 60.20 C 99.22 58.06 100.34 56.23 101.04 54.28 C 101.21 52.55 101.71 51.02 102.69 49.57 Z" />
<path fill="#fdfdfd" opacity="1.00" d=" M 39.04 58.07 C 40.56 56.05 42.28 54.19 43.93 52.29 C 47.09 53.75 45.07 56.76 44.02 58.99 C 43.10 60.46 43.39 62.23 43.41 63.86 C 43.00 63.80 42.19 63.69 41.79 63.64 C 40.76 61.85 39.05 60.26 39.04 58.07 Z" />
<path fill="#fdfdfd" opacity="1.00" d=" M 56.84 55.66 C 58.10 55.57 59.36 55.49 60.63 55.41 L 60.23 56.47 C 62.24 56.52 64.26 56.61 66.27 56.68 C 66.82 57.17 67.37 57.66 67.92 58.15 C 67.16 58.49 65.64 59.17 64.88 59.52 C 63.91 58.89 62.93 58.28 61.94 57.69 C 60.24 57.00 58.54 56.34 56.84 55.66 Z" />
<path fill="#fdfdfd" opacity="1.00" d=" M 99.41 64.16 C 102.31 63.00 102.84 59.44 104.35 57.01 C 104.44 61.05 104.93 65.25 103.30 69.07 C 102.15 67.32 100.83 65.69 99.41 64.16 Z" />
<path fill="#fdfdfd" opacity="1.00" d=" M 184.28 79.69 C 185.30 80.70 185.30 82.19 185.58 83.50 C 186.85 84.85 188.24 86.08 189.43 87.51 C 189.67 89.09 189.56 90.70 189.60 92.30 C 193.61 96.27 194.99 101.79 196.22 107.08 C 196.45 110.52 196.58 113.98 196.25 117.42 C 195.90 116.21 194.59 115.43 194.71 114.07 C 194.58 109.49 192.35 105.43 191.23 101.08 C 189.50 98.65 188.20 95.94 188.34 92.89 C 187.04 91.29 186.85 89.25 186.55 87.29 C 185.67 84.79 184.17 82.45 184.28 79.69 Z" />
<path fill="#fdfdfd" opacity="1.00" d=" M 136.85 114.52 C 138.56 114.56 140.29 114.57 141.99 114.70 C 144.40 116.23 147.34 115.46 150.02 115.65 C 152.42 115.54 154.60 116.68 156.85 117.30 C 158.96 117.57 161.11 117.31 163.21 117.71 C 166.20 118.85 168.89 120.60 171.78 121.96 C 170.54 125.24 167.80 127.70 166.68 131.02 C 166.07 137.26 160.22 141.77 161.25 148.36 C 158.47 154.09 157.67 160.57 157.59 166.87 C 156.36 170.84 156.46 175.06 155.04 178.99 C 153.75 182.74 155.40 186.91 153.65 190.55 C 152.43 193.70 152.80 198.27 148.91 199.59 C 148.78 198.85 148.52 197.38 148.39 196.65 C 147.15 195.28 145.91 193.92 144.71 192.51 C 146.43 192.66 148.16 192.82 149.88 192.98 L 149.89 190.90 C 148.18 190.75 146.61 190.17 145.15 189.31 C 145.20 188.12 145.25 186.93 145.30 185.74 C 147.25 185.34 148.81 184.21 150.03 182.68 C 151.46 182.23 153.89 182.97 153.72 180.45 C 151.82 180.32 149.92 180.29 148.02 180.34 C 147.08 182.31 145.05 183.08 143.26 184.04 C 142.05 185.44 143.02 187.59 142.71 189.29 C 141.05 188.74 139.50 187.90 138.07 186.90 C 136.05 186.61 134.00 186.78 131.97 186.77 C 131.19 188.12 130.41 189.48 129.58 190.80 C 129.45 193.76 129.48 196.73 129.49 199.69 C 125.88 199.84 122.65 195.69 119.27 197.30 C 118.12 200.63 119.06 204.38 118.67 207.88 C 115.89 205.37 112.10 205.03 108.91 203.29 C 106.26 205.04 104.43 207.96 105.78 211.11 C 107.28 209.67 108.47 207.97 109.56 206.22 C 110.88 207.01 112.33 207.51 113.84 207.79 C 115.19 209.05 116.90 209.61 118.70 209.88 C 118.75 212.09 118.76 214.31 118.75 216.53 C 117.74 216.47 116.74 216.41 115.75 216.35 C 114.53 215.72 113.21 215.34 111.85 215.14 C 109.15 214.71 106.55 213.92 104.02 212.88 C 100.19 210.65 96.85 207.63 92.62 206.15 C 89.44 203.60 85.27 203.14 81.91 200.93 C 80.96 200.61 80.01 200.28 79.07 199.96 C 76.77 199.25 74.50 198.20 72.04 198.32 C 73.46 201.50 77.04 202.02 80.01 202.91 C 78.73 204.74 76.63 204.73 74.65 204.66 C 72.92 203.24 71.12 201.91 69.31 200.60 C 65.42 196.84 63.53 191.66 61.06 186.96 C 58.64 183.81 57.30 179.91 54.36 177.16 C 54.95 169.32 52.74 160.85 56.71 153.62 C 59.09 152.55 61.61 151.87 63.99 150.80 C 67.20 150.69 70.42 150.74 73.64 150.70 C 74.37 156.48 72.04 161.97 72.52 167.74 C 70.30 167.80 68.08 167.82 65.86 167.85 C 63.77 165.25 61.00 163.32 58.93 160.70 C 58.49 160.67 57.59 160.61 57.14 160.58 C 57.24 161.59 57.40 162.60 57.62 163.60 C 60.07 165.72 62.55 167.81 64.74 170.22 C 67.85 170.57 71.00 170.31 74.12 170.27 C 74.44 168.89 74.73 167.50 75.06 166.12 C 74.91 164.66 74.77 163.20 74.64 161.75 C 77.19 162.36 77.80 165.82 80.72 165.49 C 80.75 170.63 85.72 173.73 89.12 176.90 C 90.04 178.13 91.04 179.30 91.98 180.53 C 97.39 179.84 102.18 176.65 106.15 173.06 C 106.25 172.50 106.45 171.40 106.55 170.85 C 107.03 169.95 107.53 169.05 108.04 168.17 C 110.29 168.11 112.90 167.78 113.91 170.28 C 116.09 170.38 118.28 170.37 120.47 170.44 C 122.84 168.15 125.35 165.87 126.74 162.81 C 127.68 161.28 128.46 159.65 129.44 158.14 C 129.51 157.08 129.58 156.03 129.64 154.98 C 130.89 152.94 132.65 151.00 132.62 148.47 C 129.59 148.75 128.48 151.22 127.61 153.81 C 127.51 157.72 124.72 160.65 123.02 163.95 C 121.60 165.29 120.26 166.70 118.95 168.14 C 117.89 168.17 116.83 168.21 115.78 168.25 C 115.24 167.39 114.70 166.52 114.16 165.66 C 111.56 165.82 108.78 165.21 106.29 166.06 C 105.17 167.79 104.44 169.73 103.48 171.55 C 100.84 174.75 96.91 176.58 93.06 177.90 C 92.06 177.21 91.75 175.85 91.04 174.90 C 87.88 173.34 85.83 170.42 83.40 167.98 C 83.39 166.91 83.38 165.83 83.36 164.76 C 84.92 164.30 86.48 163.82 88.02 163.31 C 88.26 160.33 89.96 157.85 91.17 155.20 C 91.76 153.35 92.50 151.55 93.25 149.76 C 93.30 150.20 93.41 151.09 93.47 151.53 L 94.11 151.56 C 94.68 152.91 95.24 154.26 95.74 155.64 C 98.52 155.67 101.31 155.90 104.07 155.49 C 106.09 154.77 107.69 153.26 109.45 152.10 C 111.12 146.31 113.53 140.41 112.52 134.29 C 112.00 134.23 110.98 134.12 110.47 134.06 C 111.05 139.60 108.93 144.87 107.40 150.10 C 105.97 151.25 104.51 152.36 103.07 153.51 C 101.35 153.54 99.62 153.50 97.90 153.50 C 97.27 152.31 96.65 151.12 96.02 149.94 C 95.81 149.35 95.41 148.18 95.20 147.59 C 94.33 147.53 92.60 147.41 91.73 147.34 C 90.93 149.28 90.04 151.18 89.20 153.10 C 87.24 155.99 87.45 160.72 83.98 162.26 C 82.57 162.41 81.18 162.64 79.80 162.96 C 79.35 161.00 77.60 160.09 76.07 159.06 C 75.43 156.37 76.25 153.52 76.36 150.78 C 78.84 150.44 81.76 150.83 83.74 148.95 C 86.42 146.47 89.85 144.97 92.46 142.40 C 95.31 139.42 99.35 138.09 102.56 135.57 C 105.21 133.93 107.33 131.56 110.07 130.06 C 111.05 131.04 111.85 132.18 112.72 133.27 C 115.99 135.58 117.71 139.22 119.69 142.57 C 125.16 142.65 131.26 141.31 134.74 136.73 C 136.25 134.27 137.64 131.73 139.26 129.33 C 139.63 127.28 139.79 125.20 140.30 123.18 C 140.76 123.20 141.67 123.24 142.13 123.26 C 144.10 125.86 146.58 128.01 148.61 130.57 C 150.35 130.87 152.12 130.66 153.88 130.62 C 154.91 129.77 155.96 128.95 156.99 128.09 C 157.94 127.38 158.91 126.70 159.90 126.05 C 160.95 124.01 162.90 122.89 164.83 121.81 C 164.79 121.17 164.70 119.90 164.66 119.26 C 163.04 120.05 161.43 120.85 159.85 121.71 C 157.58 124.63 154.51 128.06 150.79 128.54 C 147.44 125.53 144.53 122.06 140.96 119.30 C 140.49 119.35 139.55 119.46 139.08 119.51 C 138.18 122.30 137.11 125.09 137.26 128.07 C 134.17 131.85 132.80 137.04 127.98 139.17 C 125.80 139.35 123.62 140.05 121.44 139.76 C 120.05 138.99 119.74 137.23 119.07 135.92 C 116.69 133.57 114.30 131.23 112.06 128.76 C 114.25 127.02 116.75 125.74 119.21 124.44 C 121.26 124.34 122.75 127.54 124.91 126.12 C 126.75 125.00 126.58 123.01 125.34 121.43 C 129.32 119.32 134.90 119.30 136.85 114.52 Z" />
<path fill="#fdfdfd" opacity="1.00" d=" M 133.63 189.17 C 136.02 188.90 138.10 189.78 139.91 191.28 C 140.62 191.33 142.05 191.42 142.76 191.47 C 142.76 192.60 142.76 193.73 142.77 194.86 C 144.78 196.36 147.11 198.20 146.67 201.04 C 147.44 205.36 143.77 208.38 140.94 210.97 C 136.01 210.63 135.12 205.31 134.55 201.38 C 133.82 201.39 132.35 201.40 131.62 201.41 C 131.70 198.50 131.71 195.59 131.66 192.69 C 132.32 191.52 132.98 190.35 133.63 189.17 Z" />
<path fill="#fdfdfd" opacity="1.00" d=" M 23.17 193.50 C 24.31 194.45 25.44 195.44 26.54 196.45 C 29.60 199.25 29.81 204.15 33.34 206.54 C 36.06 208.42 38.85 210.26 41.94 211.49 C 46.01 213.17 49.58 215.82 53.63 217.56 C 54.14 218.37 54.66 219.18 55.17 220.00 L 29.75 220.00 C 29.90 219.43 30.18 218.30 30.32 217.73 C 26.21 213.12 25.56 206.82 23.72 201.17 C 23.51 198.62 23.29 196.06 23.17 193.50 Z" />
<path fill="#fdfdfd" opacity="1.00" d=" M 121.28 216.51 C 121.29 210.64 121.08 204.76 121.44 198.89 C 122.56 199.66 123.68 200.42 124.80 201.19 C 127.76 201.36 129.81 203.67 132.38 204.83 C 133.04 208.16 135.11 210.85 137.78 212.85 C 135.48 214.01 133.33 215.50 130.96 216.52 C 127.76 217.05 124.50 216.71 121.28 216.51 Z" />
</g>
</svg>
