<?xml version="1.0" encoding="UTF-8" ?>
<!DOCTYPE svg PUBLIC "-//W3C//DTD SVG 1.1//EN" "http://www.w3.org/Graphics/SVG/1.1/DTD/svg11.dtd">
<svg width="210pt" height="220pt" viewBox="0 0 210 220" version="1.1" xmlns="http://www.w3.org/2000/svg">
<g id="#0b0b0bfe">
<path fill="#0b0b0b" opacity="1.00" d=" M 105.95 30.29 C 113.33 28.56 121.24 27.15 128.65 29.51 C 133.36 30.84 136.78 34.51 140.63 37.30 C 146.13 41.34 150.76 46.41 155.01 51.71 C 157.48 50.30 159.99 48.98 162.57 47.77 C 162.67 49.14 162.77 50.52 162.87 51.89 C 160.85 52.93 158.83 54.00 156.84 55.09 C 158.04 55.61 159.25 56.12 160.46 56.63 C 159.65 59.12 161.87 60.84 162.90 62.84 C 165.96 67.12 165.18 72.74 167.40 77.37 C 170.11 83.09 174.63 87.76 177.20 93.56 C 179.96 100.06 183.39 106.74 182.49 114.04 C 182.88 123.36 184.84 132.62 184.47 142.00 C 184.28 151.98 184.66 161.96 184.33 171.94 C 183.79 178.64 182.65 185.50 179.45 191.49 C 177.85 194.22 175.56 196.89 172.23 197.38 L 172.72 196.15 C 174.24 193.29 173.82 189.69 176.07 187.20 C 179.88 182.34 181.36 176.07 181.35 169.99 C 181.34 158.32 181.31 146.65 181.37 134.99 C 181.66 127.36 178.11 120.30 177.73 112.73 C 178.92 113.73 180.09 114.74 181.24 115.78 C 180.32 109.97 180.57 103.74 177.64 98.43 C 176.90 97.03 175.16 96.68 173.90 95.92 C 175.08 101.86 179.83 106.80 179.24 113.08 C 174.17 106.97 173.05 98.77 170.21 91.56 C 168.11 86.72 167.35 81.23 164.07 76.96 C 160.81 72.52 156.76 68.40 155.55 62.83 C 160.52 64.19 160.17 70.39 163.95 73.18 C 162.83 67.91 160.81 61.41 154.98 59.77 C 152.19 58.64 148.75 59.59 146.27 57.74 C 147.48 55.45 153.66 58.68 153.67 55.52 C 149.56 54.71 145.18 55.35 140.97 55.28 C 138.81 55.86 141.35 57.38 142.40 57.37 C 144.73 57.47 145.44 59.61 145.84 61.53 L 146.39 61.07 C 148.28 64.30 150.74 67.13 153.49 69.65 C 158.27 75.92 162.88 82.89 163.65 90.96 C 164.58 98.65 157.52 105.76 150.04 106.13 C 141.22 106.68 131.76 105.68 124.33 100.51 C 120.06 97.80 117.85 93.08 114.68 89.32 C 111.56 86.00 112.57 81.04 113.82 77.12 C 114.97 73.28 117.48 70.05 120.38 67.37 C 123.57 64.32 126.71 61.17 130.42 58.72 C 126.43 59.20 122.93 56.85 118.97 56.97 C 113.12 56.94 107.79 53.39 105.04 48.31 C 107.58 49.21 110.04 50.32 112.46 51.50 C 112.54 50.47 112.69 48.41 112.77 47.37 C 113.84 49.25 114.57 51.39 116.08 52.97 C 118.79 54.28 121.89 54.24 124.82 54.30 C 125.52 54.85 126.22 55.41 126.93 55.97 L 123.96 56.87 C 125.02 56.81 127.16 56.68 128.23 56.61 C 128.26 52.42 122.80 51.95 122.73 47.72 C 126.55 49.10 129.84 51.83 133.88 52.58 C 139.65 53.06 145.46 52.64 151.24 52.63 C 149.12 49.46 148.26 45.38 145.02 43.06 C 139.19 38.32 133.27 33.16 125.95 30.95 C 115.66 29.07 105.46 32.32 95.41 34.11 C 91.70 34.73 88.18 36.06 84.79 37.65 C 79.96 39.95 74.04 40.11 70.15 44.20 C 63.76 50.77 57.93 57.97 50.66 63.63 C 49.81 70.68 43.26 74.24 39.24 79.31 C 36.51 82.55 36.50 86.97 36.33 90.97 C 36.33 95.36 33.90 99.16 32.59 103.22 C 30.58 108.74 31.92 114.68 31.54 120.41 C 31.14 125.51 31.92 130.63 31.32 135.73 C 33.87 140.58 33.26 146.33 35.69 151.22 C 38.59 157.60 38.97 164.74 41.59 171.20 C 42.87 174.61 45.78 177.00 47.53 180.14 C 48.70 182.00 49.54 184.26 51.58 185.37 C 56.37 188.10 61.50 190.20 66.26 192.98 C 67.49 193.71 68.27 194.94 69.17 196.01 C 64.80 195.44 61.49 192.29 57.53 190.65 C 54.01 189.07 50.07 187.70 47.71 184.43 C 45.73 181.64 44.03 178.62 41.49 176.27 C 41.46 183.53 43.16 191.03 47.72 196.84 C 47.06 196.86 45.73 196.91 45.06 196.93 C 42.29 191.22 40.01 185.21 39.15 178.89 C 38.42 171.37 33.14 165.47 30.14 158.81 C 28.25 150.30 26.72 141.71 25.66 133.06 C 26.02 125.07 26.75 117.05 25.89 109.06 C 25.18 102.35 25.97 95.64 26.86 89.00 C 29.97 93.57 26.61 99.72 29.97 104.38 C 31.63 99.47 34.32 94.66 34.28 89.38 C 32.98 90.70 32.54 92.51 31.94 94.20 C 29.95 92.17 30.63 89.32 31.97 87.18 C 35.93 80.54 40.32 74.12 45.33 68.21 C 48.66 64.26 51.53 59.89 55.44 56.46 C 61.01 51.35 65.08 44.75 71.08 40.10 C 76.19 37.21 82.34 37.12 87.58 34.49 C 93.35 31.75 99.85 31.82 105.95 30.29 M 133.47 59.75 C 128.73 61.04 125.93 65.36 122.33 68.35 C 117.79 72.54 114.09 78.70 114.51 84.99 C 118.73 90.75 122.20 97.71 129.01 100.85 C 136.33 104.91 144.98 103.82 153.00 103.60 C 156.38 101.68 160.07 99.06 161.25 95.15 C 162.36 88.65 159.39 82.37 156.04 76.99 C 152.69 70.87 146.82 66.78 143.05 60.95 C 141.04 57.40 136.60 59.09 133.47 59.75 M 171.24 87.31 C 171.90 87.79 171.90 87.79 171.24 87.31 M 173.15 92.21 C 171.66 93.20 173.37 95.67 174.81 94.56 C 176.31 93.56 174.60 91.07 173.15 92.21 M 28.58 140.80 C 30.20 146.46 30.65 152.38 31.93 158.11 C 33.68 162.44 36.44 166.30 38.85 170.29 C 37.79 163.83 35.67 157.60 33.36 151.49 C 31.86 146.99 31.55 142.21 30.22 137.66 C 29.65 138.70 29.11 139.74 28.58 140.80 Z" />
<path fill="#0b0b0b" opacity="1.00" d=" M 56.18 81.20 C 60.51 76.00 59.65 68.60 63.02 62.93 C 64.17 64.03 64.58 65.54 64.29 67.07 C 63.88 71.82 62.54 76.52 60.09 80.63 C 65.17 77.66 71.39 77.84 76.94 79.15 C 82.31 82.09 87.17 85.90 92.31 89.22 C 93.39 95.11 91.92 101.49 88.02 106.08 C 83.14 112.11 78.62 118.86 71.98 123.08 C 67.69 123.44 63.33 123.55 59.06 123.02 C 55.51 121.29 53.02 118.00 50.01 115.52 C 48.26 119.16 46.20 122.84 42.60 124.94 C 42.25 122.93 41.93 120.91 41.68 118.88 C 42.61 119.68 43.53 120.50 44.46 121.33 C 49.48 114.61 49.76 105.93 52.64 98.31 C 53.07 98.33 53.92 98.36 54.34 98.38 C 53.63 104.30 49.50 111.17 54.35 116.35 C 57.79 122.34 65.35 121.18 71.15 121.17 C 74.98 118.00 78.89 114.80 81.68 110.63 C 85.89 105.11 91.53 99.36 90.83 91.83 C 89.19 87.38 83.59 86.72 80.21 84.01 C 74.61 79.48 66.06 78.92 60.13 83.13 C 55.62 85.79 57.35 91.81 55.12 95.87 L 54.16 95.81 C 53.86 95.36 53.26 94.45 52.96 94.00 C 49.52 98.11 48.41 105.46 42.03 105.94 C 43.07 100.39 47.16 96.21 49.11 91.03 C 47.24 92.74 45.50 94.63 43.26 95.87 C 45.40 89.41 51.79 85.96 56.18 81.20 Z" />
<path fill="#0b0b0b" opacity="1.00" d=" M 135.71 79.49 C 133.74 75.14 139.81 70.53 143.45 73.55 C 146.23 75.12 145.66 78.53 145.49 81.19 C 142.26 82.44 137.75 82.95 135.71 79.49 M 136.63 78.21 C 138.80 80.35 142.79 81.63 144.57 78.32 C 143.70 76.81 142.83 75.30 141.97 73.79 C 139.47 74.25 137.62 75.89 136.63 78.21 Z" />
<path fill="#0b0b0b" opacity="1.00" d=" M 59.74 98.82 C 61.23 97.69 62.96 98.79 64.53 99.13 C 64.62 101.92 65.48 105.57 62.53 107.25 C 60.73 108.97 58.32 107.74 56.25 107.39 C 56.08 104.23 56.74 100.52 59.74 98.82 M 57.85 106.46 C 60.87 106.95 62.82 104.72 63.62 102.07 C 63.12 101.45 62.10 100.22 61.60 99.60 C 59.24 101.12 57.97 103.68 57.85 106.46 Z" />
<path fill="#0b0b0b" opacity="1.00" d=" M 104.43 101.55 C 112.23 100.49 120.17 102.08 127.55 104.61 C 132.80 107.14 137.46 110.95 143.11 112.64 C 146.31 112.00 149.81 109.99 152.88 112.19 C 160.37 116.08 162.05 124.92 166.84 131.18 C 167.71 130.32 168.58 129.47 169.47 128.63 C 169.48 129.81 169.48 131.00 169.48 132.20 C 163.98 136.69 157.97 140.85 150.97 142.56 C 144.18 144.84 136.90 144.28 129.98 145.89 C 123.15 147.43 116.70 150.19 110.02 152.22 C 101.34 154.87 93.87 160.26 86.55 165.46 C 80.58 169.77 78.18 178.82 70.06 179.98 C 71.59 175.35 73.91 171.02 75.60 166.44 C 81.02 158.37 79.93 148.15 82.51 139.14 C 84.23 132.55 84.04 125.55 86.34 119.10 C 89.95 111.35 96.38 104.65 104.43 101.55 M 92.25 113.21 C 95.09 117.10 97.99 120.95 100.44 125.10 C 105.92 123.10 111.82 120.07 113.80 114.14 C 111.43 110.46 109.19 106.69 106.76 103.05 C 100.93 104.74 96.17 108.71 92.25 113.21 M 109.39 103.23 C 111.49 106.81 113.70 110.32 115.92 113.84 C 118.51 111.36 122.17 108.88 121.73 104.79 C 117.63 104.17 113.52 103.58 109.39 103.23 M 123.70 105.02 C 123.66 111.85 116.54 114.25 113.13 119.10 C 110.18 123.35 105.16 125.13 100.70 127.29 C 98.95 126.44 97.11 125.74 95.47 124.68 C 94.27 121.85 93.38 118.84 91.54 116.33 C 91.28 116.36 90.76 116.41 90.50 116.44 C 85.12 123.13 85.60 132.23 85.24 140.32 C 90.25 139.05 92.77 134.28 96.91 131.78 C 96.64 133.07 96.68 134.60 95.51 135.47 C 92.43 138.84 88.41 141.15 84.29 143.01 C 82.92 154.60 79.16 165.74 73.92 176.13 C 78.86 172.30 81.47 166.16 86.80 162.77 C 93.55 158.23 100.28 153.33 108.14 150.88 C 117.67 147.97 126.95 143.58 137.06 143.14 C 147.25 142.49 157.56 139.50 165.47 132.80 C 160.81 126.57 158.59 118.51 152.17 113.69 C 148.63 118.64 141.63 120.91 136.09 118.01 C 132.14 116.40 131.34 111.86 129.32 108.60 C 128.11 106.56 125.73 105.91 123.70 105.02 M 131.86 109.86 C 133.54 116.39 141.98 119.83 147.52 115.81 C 141.97 114.77 136.87 112.36 131.86 109.86 Z" />
</g>
<g id="#fefefeff">
<path fill="#fefefe" opacity="1.00" d=" M 95.41 34.11 C 105.46 32.32 115.66 29.07 125.95 30.95 C 133.27 33.16 139.19 38.32 145.02 43.06 C 148.26 45.38 149.12 49.46 151.24 52.63 C 145.46 52.64 139.65 53.06 133.88 52.58 C 129.84 51.83 126.55 49.10 122.73 47.72 C 122.80 51.95 128.26 52.42 128.23 56.61 C 127.16 56.68 125.02 56.81 123.96 56.87 L 126.93 55.97 C 126.22 55.41 125.52 54.85 124.82 54.30 C 121.89 54.24 118.79 54.28 116.08 52.97 C 114.57 51.39 113.84 49.25 112.77 47.37 C 112.69 48.41 112.54 50.47 112.46 51.50 C 110.04 50.32 107.58 49.21 105.04 48.31 C 107.79 53.39 113.12 56.94 118.97 56.97 C 122.93 56.85 126.43 59.20 130.42 58.72 C 126.71 61.17 123.57 64.32 120.38 67.37 C 117.48 70.05 114.97 73.28 113.82 77.12 C 112.57 81.04 111.56 86.00 114.68 89.32 C 117.85 93.08 120.06 97.80 124.33 100.51 C 131.76 105.68 141.22 106.68 150.04 106.13 C 157.52 105.76 164.58 98.65 163.65 90.96 C 162.88 82.89 158.27 75.92 153.49 69.65 C 150.74 67.13 148.28 64.30 146.39 61.07 L 145.84 61.53 C 145.44 59.61 144.73 57.47 142.40 57.37 C 141.35 57.38 138.81 55.86 140.97 55.28 C 145.18 55.35 149.56 54.71 153.67 55.52 C 153.66 58.68 147.48 55.45 146.27 57.74 C 148.75 59.59 152.19 58.64 154.98 59.77 C 160.81 61.41 162.83 67.91 163.95 73.18 C 160.17 70.39 160.52 64.19 155.55 62.83 C 156.76 68.40 160.81 72.52 164.07 76.96 C 167.35 81.23 168.11 86.72 170.21 91.56 C 173.05 98.77 174.17 106.97 179.24 113.08 C 179.83 106.80 175.08 101.86 173.90 95.92 C 175.16 96.68 176.90 97.03 177.64 98.43 C 180.57 103.74 180.32 109.97 181.24 115.78 C 180.09 114.74 178.92 113.73 177.73 112.73 C 178.11 120.30 181.66 127.36 181.37 134.99 C 181.31 146.65 181.34 158.32 181.35 169.99 C 181.36 176.07 179.88 182.34 176.07 187.20 C 173.82 189.69 174.24 193.29 172.72 196.15 C 172.64 196.35 172.47 196.76 172.38 196.96 C 130.83 196.89 89.26 197.11 47.72 196.84 C 43.16 191.03 41.46 183.53 41.49 176.27 C 44.03 178.62 45.73 181.64 47.71 184.43 C 50.07 187.70 54.01 189.07 57.53 190.65 C 61.49 192.29 64.80 195.44 69.17 196.01 C 68.27 194.94 67.49 193.71 66.26 192.98 C 61.50 190.20 56.37 188.10 51.58 185.37 C 49.54 184.26 48.70 182.00 47.53 180.14 C 45.78 177.00 42.87 174.61 41.59 171.20 C 38.97 164.74 38.59 157.60 35.69 151.22 C 33.26 146.33 33.87 140.58 31.32 135.73 C 31.92 130.63 31.14 125.51 31.54 120.41 C 31.92 114.68 30.58 108.74 32.59 103.22 C 33.90 99.16 36.33 95.36 36.33 90.97 C 36.50 86.97 36.51 82.55 39.24 79.31 C 43.26 74.24 49.81 70.68 50.66 63.63 C 57.93 57.97 63.76 50.77 70.15 44.20 C 74.04 40.11 79.96 39.95 84.79 37.65 C 88.18 36.06 91.70 34.73 95.41 34.11 M 56.18 81.20 C 51.79 85.96 45.40 89.41 43.26 95.87 C 45.50 94.63 47.24 92.74 49.11 91.03 C 47.16 96.21 43.07 100.39 42.03 105.94 C 48.41 105.46 49.52 98.11 52.96 94.00 C 53.26 94.45 53.86 95.36 54.16 95.81 L 55.12 95.87 C 57.35 91.81 55.62 85.79 60.13 83.13 C 66.06 78.92 74.61 79.48 80.21 84.01 C 83.59 86.72 89.19 87.38 90.83 91.83 C 91.53 99.36 85.89 105.11 81.68 110.63 C 78.89 114.80 74.98 118.00 71.15 121.17 C 65.35 121.18 57.79 122.34 54.35 116.35 C 49.50 111.17 53.63 104.30 54.34 98.38 C 53.92 98.36 53.07 98.33 52.64 98.31 C 49.76 105.93 49.48 114.61 44.46 121.33 C 43.53 120.50 42.61 119.68 41.68 118.88 C 41.93 120.91 42.25 122.93 42.60 124.94 C 46.20 122.84 48.26 119.16 50.01 115.52 C 53.02 118.00 55.51 121.29 59.06 123.02 C 63.33 123.55 67.69 123.44 71.98 123.08 C 78.62 118.86 83.14 112.11 88.02 106.08 C 91.92 101.49 93.39 95.11 92.31 89.22 C 87.17 85.90 82.31 82.09 76.94 79.15 C 71.39 77.84 65.17 77.66 60.09 80.63 C 62.54 76.52 63.88 71.82 64.29 67.07 C 64.58 65.54 64.17 64.03 63.02 62.93 C 59.65 68.60 60.51 76.00 56.18 81.20 M 59.74 98.82 C 56.74 100.52 56.08 104.23 56.25 107.39 C 58.32 107.74 60.73 108.97 62.53 107.25 C 65.48 105.57 64.62 101.92 64.53 99.13 C 62.96 98.79 61.23 97.69 59.74 98.82 M 104.43 101.55 C 96.38 104.65 89.95 111.35 86.34 119.10 C 84.04 125.55 84.23 132.55 82.51 139.14 C 79.93 148.15 81.02 158.37 75.60 166.44 C 73.91 171.02 71.59 175.35 70.06 179.98 C 78.18 178.82 80.58 169.77 86.55 165.46 C 93.87 160.26 101.34 154.87 110.02 152.22 C 116.70 150.19 123.15 147.43 129.98 145.89 C 136.90 144.28 144.18 144.84 150.97 142.56 C 157.97 140.85 163.98 136.69 169.48 132.20 C 169.48 131.00 169.48 129.81 169.47 128.63 C 168.58 129.47 167.71 130.32 166.84 131.18 C 162.05 124.92 160.37 116.08 152.88 112.19 C 149.81 109.99 146.31 112.00 143.11 112.64 C 137.46 110.95 132.80 107.14 127.55 104.61 C 120.17 102.08 112.23 100.49 104.43 101.55 Z" />
<path fill="#fefefe" opacity="1.00" d=" M 133.47 59.75 C 136.60 59.09 141.04 57.40 143.05 60.95 C 146.82 66.78 152.69 70.87 156.04 76.99 C 159.39 82.37 162.36 88.65 161.25 95.15 C 160.07 99.06 156.38 101.68 153.00 103.60 C 144.98 103.82 136.33 104.91 129.01 100.85 C 122.20 97.71 118.73 90.75 114.51 84.99 C 114.09 78.70 117.79 72.54 122.33 68.35 C 125.93 65.36 128.73 61.04 133.47 59.75 M 135.71 79.49 C 137.75 82.95 142.26 82.44 145.49 81.19 C 145.66 78.53 146.23 75.12 143.45 73.55 C 139.81 70.53 133.74 75.14 135.71 79.49 Z" />
<path fill="#fefefe" opacity="1.00" d=" M 136.63 78.21 C 137.62 75.89 139.47 74.25 141.97 73.79 C 142.83 75.30 143.70 76.81 144.57 78.32 C 142.79 81.63 138.80 80.35 136.63 78.21 Z" />
<path fill="#fefefe" opacity="1.00" d=" M 171.24 87.31 C 171.90 87.79 171.90 87.79 171.24 87.31 Z" />
<path fill="#fefefe" opacity="1.00" d=" M 173.15 92.21 C 174.60 91.07 176.31 93.56 174.81 94.56 C 173.37 95.67 171.66 93.20 173.15 92.21 Z" />
<path fill="#fefefe" opacity="1.00" d=" M 57.85 106.46 C 57.97 103.68 59.24 101.12 61.60 99.60 C 62.10 100.22 63.12 101.45 63.62 102.07 C 62.82 104.72 60.87 106.95 57.85 106.46 Z" />
<path fill="#fefefe" opacity="1.00" d=" M 92.25 113.21 C 96.17 108.71 100.93 104.74 106.76 103.05 C 109.19 106.69 111.43 110.46 113.80 114.14 C 111.82 120.07 105.92 123.10 100.44 125.10 C 97.99 120.95 95.09 117.10 92.25 113.21 Z" />
<path fill="#fefefe" opacity="1.00" d=" M 109.39 103.23 C 113.52 103.58 117.63 104.17 121.73 104.79 C 122.17 108.88 118.51 111.36 115.92 113.84 C 113.70 110.32 111.49 106.81 109.39 103.23 Z" />
<path fill="#fefefe" opacity="1.00" d=" M 123.70 105.02 C 125.73 105.91 128.11 106.56 129.32 108.60 C 131.34 111.86 132.14 116.40 136.09 118.01 C 141.63 120.91 148.63 118.64 152.17 113.69 C 158.59 118.51 160.81 126.57 165.47 132.80 C 157.56 139.50 147.25 142.49 137.06 143.14 C 126.95 143.58 117.67 147.97 108.14 150.88 C 100.28 153.33 93.55 158.23 86.80 162.77 C 81.47 166.16 78.86 172.30 73.92 176.13 C 79.16 165.74 82.92 154.60 84.29 143.01 C 88.41 141.15 92.43 138.84 95.51 135.47 C 96.68 134.60 96.64 133.07 96.91 131.78 C 92.77 134.28 90.25 139.05 85.24 140.32 C 85.60 132.23 85.12 123.13 90.50 116.44 C 90.76 116.41 91.28 116.36 91.54 116.33 C 93.38 118.84 94.27 121.85 95.47 124.68 C 97.11 125.74 98.95 126.44 100.70 127.29 C 105.16 125.13 110.18 123.35 113.13 119.10 C 116.54 114.25 123.66 111.85 123.70 105.02 Z" />
<path fill="#fefefe" opacity="1.00" d=" M 131.86 109.86 C 136.87 112.36 141.97 114.77 147.52 115.81 C 141.98 119.83 133.54 116.39 131.86 109.86 Z" />
<path fill="#fefefe" opacity="1.00" d=" M 28.58 140.80 C 29.11 139.74 29.65 138.70 30.22 137.66 C 31.55 142.21 31.86 146.99 33.36 151.49 C 35.67 157.60 37.79 163.83 38.85 170.29 C 36.44 166.30 33.68 162.44 31.93 158.11 C 30.65 152.38 30.20 146.46 28.58 140.80 Z" />
</g>
</svg>
