<?xml version="1.0" encoding="UTF-8" ?>
<!DOCTYPE svg PUBLIC "-//W3C//DTD SVG 1.1//EN" "http://www.w3.org/Graphics/SVG/1.1/DTD/svg11.dtd">
<svg width="210pt" height="220pt" viewBox="0 0 210 220" version="1.1" xmlns="http://www.w3.org/2000/svg">
<g id="#000000ff">
<path fill="#000000" opacity="1.00" d=" M 75.41 0.00 L 75.64 0.00 C 79.81 2.18 84.87 2.66 89.54 2.40 C 94.44 1.98 99.86 3.77 104.34 1.23 C 104.76 2.55 105.09 3.90 105.43 5.24 C 107.65 5.82 109.57 7.09 111.43 8.37 C 112.41 8.95 115.10 8.64 114.59 10.39 C 111.71 10.56 108.74 10.99 106.83 13.37 C 109.57 13.40 112.31 13.31 115.05 13.19 C 115.61 12.37 116.20 11.58 116.81 10.80 L 116.91 10.88 C 120.76 12.78 121.26 17.30 122.91 20.79 C 124.05 23.59 126.19 25.87 127.20 28.73 C 127.74 31.30 127.51 33.95 127.57 36.56 C 126.93 37.18 126.28 37.80 125.65 38.43 C 125.13 43.10 125.07 48.00 122.99 52.32 C 120.31 57.76 119.12 63.88 115.56 68.89 C 115.58 70.51 115.61 72.14 115.65 73.77 C 117.71 75.64 119.90 77.55 120.93 80.23 C 120.45 79.52 119.51 78.10 119.03 77.39 C 118.53 77.89 118.04 78.39 117.55 78.90 C 117.57 82.79 113.73 84.78 111.59 87.51 C 106.36 93.82 101.22 100.25 96.85 107.20 C 103.36 108.36 108.67 113.55 115.56 112.86 C 115.72 112.40 116.05 111.49 116.22 111.03 C 116.23 111.42 116.26 112.20 116.27 112.59 C 116.07 112.83 115.68 113.29 115.49 113.53 C 111.86 113.88 108.35 113.02 104.87 112.17 C 101.38 113.01 98.11 114.64 94.58 115.43 C 94.31 118.90 92.72 121.99 90.79 124.80 C 88.32 128.07 88.81 132.33 88.29 136.16 C 86.06 140.43 88.20 145.47 86.16 149.82 C 85.42 145.13 83.10 140.93 80.67 136.93 L 80.66 136.93 C 80.27 136.73 79.49 136.34 79.10 136.15 C 79.69 133.02 80.26 129.89 80.68 126.73 C 81.25 127.32 82.38 128.49 82.94 129.08 C 83.86 130.94 84.70 132.84 85.49 134.76 C 86.03 134.72 87.09 134.62 87.63 134.57 C 86.91 131.51 85.68 128.60 84.18 125.85 C 83.96 125.44 83.53 124.61 83.32 124.19 C 82.38 123.82 81.44 123.47 80.49 123.14 C 81.21 120.38 81.65 117.55 82.39 114.80 C 81.26 112.84 80.26 110.79 78.91 108.97 C 77.15 109.54 75.87 110.93 74.49 112.09 C 74.60 111.53 74.82 110.42 74.92 109.86 C 76.53 108.31 78.16 106.78 79.85 105.33 C 82.15 106.80 84.42 108.32 86.79 109.69 C 86.94 107.21 84.94 105.89 83.23 104.57 C 83.69 104.32 84.61 103.83 85.06 103.58 C 89.40 103.85 93.76 104.06 98.09 103.55 C 102.35 94.87 109.33 87.97 115.42 80.61 C 115.36 79.82 115.23 78.24 115.16 77.45 C 116.38 77.45 117.58 77.31 118.78 77.11 C 117.95 76.99 116.29 76.74 115.46 76.62 C 115.34 72.09 114.90 67.59 114.64 63.07 C 114.06 61.57 112.56 60.63 111.50 59.46 C 112.98 60.01 114.50 60.56 116.10 60.64 C 119.44 57.84 122.43 54.06 122.91 49.58 C 123.08 49.61 123.44 49.67 123.62 49.70 C 123.69 47.65 123.42 45.47 124.58 43.65 C 123.08 41.82 121.14 40.44 118.72 41.86 C 119.84 42.60 120.99 43.30 122.15 43.99 C 122.35 44.33 122.75 45.02 122.95 45.37 C 121.81 45.04 120.66 44.78 119.49 44.59 C 119.00 44.19 118.51 43.77 118.03 43.36 C 115.12 46.06 114.13 49.95 112.20 53.28 C 111.61 54.49 110.14 54.55 109.05 54.98 C 109.34 52.98 109.69 50.98 110.16 49.01 C 110.28 46.86 110.37 44.71 110.45 42.55 C 106.16 43.22 101.79 43.41 97.61 44.66 C 97.46 48.14 97.52 53.36 93.12 54.21 C 89.88 54.34 86.34 54.83 83.35 53.31 C 81.14 51.61 80.06 48.93 78.91 46.48 C 77.18 46.44 75.45 46.48 73.73 46.52 C 72.45 47.46 71.14 48.35 69.81 49.23 C 69.44 47.61 69.08 45.99 68.74 44.37 C 68.11 44.68 66.85 45.31 66.22 45.62 C 64.93 45.19 63.62 44.84 62.30 44.57 C 62.70 47.68 63.43 50.74 64.38 53.73 C 67.29 53.54 70.59 54.06 72.99 52.01 L 74.72 50.86 C 74.72 51.51 74.70 52.79 74.70 53.44 C 74.00 55.80 73.30 58.17 73.32 60.66 C 76.49 60.56 79.50 59.14 82.71 59.56 C 82.27 60.22 81.82 60.89 81.37 61.55 C 78.54 61.59 75.71 61.55 72.88 61.32 C 72.54 60.29 72.19 59.27 71.84 58.25 C 72.18 56.97 72.51 55.68 72.84 54.39 C 69.70 54.64 66.55 54.69 63.41 54.64 C 63.14 58.55 64.43 62.25 66.17 65.69 C 67.69 69.97 70.60 73.55 72.44 77.68 C 72.60 79.13 72.78 80.58 72.96 82.03 C 72.74 80.99 72.54 79.94 72.36 78.89 C 70.54 75.10 68.17 71.60 66.42 67.78 C 64.61 63.32 61.84 59.02 62.41 53.98 C 60.27 51.27 58.31 48.35 57.49 44.95 C 58.81 44.35 60.13 43.74 61.46 43.15 C 61.90 39.92 61.35 36.76 60.01 33.81 C 58.16 30.33 62.80 28.19 63.11 25.12 C 61.71 23.40 59.91 22.04 58.68 20.18 C 57.92 18.65 58.43 16.89 58.45 15.26 C 59.52 13.39 60.43 11.45 61.40 9.52 C 61.22 9.20 60.88 8.55 60.71 8.23 C 64.55 5.76 68.78 3.87 73.34 3.29 C 74.02 2.19 74.70 1.08 75.41 0.00 M 94.02 17.92 C 90.63 20.07 88.02 23.81 83.56 23.76 L 83.34 22.26 C 78.91 23.34 74.46 24.25 70.00 25.19 C 68.57 25.24 67.13 25.27 65.69 25.30 C 65.20 26.56 64.70 27.81 64.19 29.06 C 63.68 30.38 63.40 31.76 63.04 33.12 C 62.54 35.40 62.36 37.74 62.27 40.07 C 62.60 39.69 63.26 38.94 63.59 38.56 C 66.74 35.86 72.37 38.53 72.53 42.48 C 74.40 43.68 76.63 44.14 78.82 44.26 C 79.99 42.86 81.58 41.97 83.27 41.36 C 83.34 40.86 83.49 39.85 83.56 39.35 C 86.53 37.18 90.38 36.40 94.01 36.66 C 96.57 36.96 100.09 37.63 100.15 40.89 C 100.90 40.97 102.39 41.14 103.13 41.23 C 105.63 40.27 108.67 41.12 110.85 39.34 C 109.11 36.79 105.72 33.30 108.26 30.19 C 109.89 28.13 109.41 25.44 109.47 23.00 C 108.61 23.46 107.77 23.94 106.94 24.46 C 104.07 25.05 101.16 24.49 98.55 23.21 C 98.56 22.70 98.59 21.68 98.60 21.16 C 98.91 21.45 99.52 22.03 99.82 22.31 C 102.29 22.42 107.25 23.99 106.63 19.81 C 104.80 19.05 102.87 18.57 101.09 17.70 C 98.76 17.71 96.27 17.12 94.02 17.92 M 115.33 21.24 C 115.47 23.75 116.97 25.84 118.22 27.92 C 118.33 27.11 118.55 25.49 118.65 24.67 C 120.44 24.13 122.27 24.13 124.08 24.66 C 123.65 23.78 122.78 22.01 122.34 21.12 C 121.02 21.27 119.32 20.93 119.07 22.82 C 117.81 22.31 116.58 21.76 115.33 21.24 M 62.73 42.82 C 65.75 42.77 68.78 42.59 71.81 42.77 L 71.42 40.78 C 69.61 40.37 67.95 39.14 66.04 39.32 C 64.42 39.83 63.60 41.50 62.73 42.82 M 84.90 41.47 C 89.25 41.25 93.60 41.41 97.94 41.80 L 98.23 41.00 C 98.17 39.75 97.48 38.93 96.17 38.56 C 92.37 38.48 87.29 37.99 84.90 41.47 M 80.54 44.75 C 80.54 45.70 80.54 47.61 80.55 48.56 L 81.30 48.58 C 81.57 49.14 82.12 50.27 82.40 50.83 L 82.46 51.42 C 85.84 52.83 89.57 52.76 93.15 52.33 C 95.81 51.29 95.19 47.91 95.58 45.70 C 95.01 46.17 93.87 47.11 93.30 47.58 C 92.53 47.46 91.00 47.23 90.24 47.11 C 90.08 45.90 89.93 44.68 89.80 43.47 C 88.35 43.81 86.94 44.24 85.51 44.67 L 85.44 43.22 C 83.71 43.39 82.03 43.83 80.54 44.75 M 60.49 46.85 C 59.71 47.88 60.66 50.39 62.13 49.72 C 62.90 48.73 61.92 46.03 60.49 46.85 M 85.97 104.46 C 86.45 105.20 87.42 106.68 87.90 107.42 C 91.01 107.84 94.15 108.08 97.24 108.72 C 96.56 108.48 95.22 108.01 94.55 107.77 C 95.06 107.71 96.08 107.58 96.59 107.51 C 96.58 106.73 96.54 105.18 96.53 104.40 C 93.01 104.59 89.49 104.53 85.97 104.46 M 84.35 112.68 C 84.48 113.20 84.74 114.25 84.88 114.77 C 85.06 114.47 85.44 113.87 85.63 113.58 C 88.25 113.45 90.88 113.39 93.51 113.53 C 93.89 112.95 94.26 112.36 94.64 111.78 C 91.28 109.72 87.57 111.16 84.35 112.68 M 82.21 120.53 C 83.62 124.46 92.64 124.75 91.63 119.58 C 88.62 120.79 85.35 120.25 82.21 120.53 Z" />
<path fill="#000000" opacity="1.00" d=" M 115.53 48.51 C 116.61 47.54 117.95 47.28 119.35 47.35 C 119.72 48.60 120.54 49.85 120.14 51.20 C 119.14 51.83 118.05 52.30 116.99 52.81 C 116.63 53.28 115.90 54.23 115.53 54.70 C 115.57 55.41 115.66 56.82 115.70 57.52 C 115.19 57.46 114.18 57.32 113.67 57.26 C 113.61 56.70 113.50 55.59 113.44 55.03 C 115.18 53.25 116.33 51.05 115.53 48.51 Z" />
<path fill="#000000" opacity="1.00" d=" M 73.27 71.18 C 73.81 70.61 74.21 69.60 75.14 69.70 C 79.69 69.87 84.25 69.13 88.78 69.74 C 88.18 70.20 87.65 70.73 87.17 71.31 C 85.82 71.58 84.47 71.85 83.15 72.27 C 81.13 72.43 79.08 72.42 77.11 71.90 C 75.83 71.65 74.55 71.40 73.27 71.18 Z" />
<path fill="#000000" opacity="1.00" d=" M 39.13 110.33 C 42.41 107.97 45.70 105.37 49.67 104.30 C 44.56 108.22 37.63 110.95 35.76 117.76 C 35.55 118.83 35.34 119.89 35.08 120.95 C 33.53 123.63 31.96 126.30 30.40 128.98 C 30.70 130.40 31.04 131.81 31.40 133.21 C 29.88 136.99 26.24 140.62 27.70 144.97 C 29.32 148.82 25.20 151.99 25.57 155.88 C 25.74 161.27 23.87 166.50 20.60 170.75 C 20.42 171.80 20.23 172.85 20.02 173.90 C 19.15 176.71 20.11 179.57 20.53 182.36 C 20.20 182.73 19.54 183.47 19.21 183.84 C 19.47 184.37 19.97 185.43 20.23 185.96 C 19.67 189.54 19.51 193.16 19.58 196.79 C 22.90 191.05 26.82 185.72 30.51 180.23 C 34.04 172.49 34.94 163.78 35.59 155.41 C 36.68 152.11 40.56 151.95 43.41 151.34 C 44.28 148.39 42.36 146.04 40.81 143.76 C 40.72 143.23 40.53 142.17 40.43 141.65 C 44.47 141.67 48.50 141.66 52.53 141.69 C 50.75 141.32 48.96 141.02 47.20 140.55 C 49.72 140.53 52.25 140.53 54.77 140.56 C 54.61 141.30 54.44 142.05 54.28 142.80 C 58.66 143.33 60.69 147.45 63.16 150.54 C 56.73 150.24 50.31 149.64 43.86 149.47 L 44.75 151.64 C 50.43 153.00 56.37 152.60 62.17 153.13 C 62.67 151.50 64.17 150.93 65.07 152.66 C 66.13 153.93 67.28 155.14 68.42 156.36 C 65.13 156.44 61.84 156.49 58.55 156.50 C 55.94 156.26 53.34 156.64 50.96 157.78 C 51.47 161.31 55.54 161.25 58.19 162.19 C 56.06 162.43 53.92 162.61 51.78 162.58 C 51.44 162.50 50.75 162.34 50.41 162.26 C 50.47 163.71 50.45 165.16 50.33 166.61 C 49.23 165.11 49.64 163.28 49.74 161.58 C 47.32 161.73 44.90 161.57 42.54 161.03 C 45.24 160.46 48.18 160.62 50.62 159.14 C 50.57 158.60 50.47 157.50 50.42 156.96 C 46.84 155.05 43.02 153.27 38.87 153.37 C 37.74 155.10 36.74 156.92 36.36 158.97 C 37.26 159.51 38.08 160.16 38.84 160.88 C 36.79 162.34 35.26 164.36 35.41 166.99 C 36.25 167.75 37.09 168.51 37.93 169.28 C 38.76 169.55 39.58 169.82 40.40 170.10 C 39.46 170.17 37.58 170.31 36.64 170.38 C 36.30 171.10 35.63 172.53 35.30 173.25 C 37.22 174.20 39.18 175.09 41.17 175.90 C 41.89 177.50 42.57 179.12 43.22 180.76 C 41.79 179.54 40.42 178.28 39.02 177.02 C 37.49 176.17 36.03 175.20 34.59 174.21 C 33.52 177.88 32.31 181.68 29.55 184.47 C 26.34 187.84 24.12 191.94 21.66 195.85 C 19.05 200.77 21.23 206.81 25.44 210.06 C 25.44 212.88 25.27 215.71 25.50 218.53 C 25.83 218.90 26.48 219.63 26.81 220.00 L 24.90 220.00 C 24.23 217.38 24.02 214.68 23.37 212.06 C 22.13 208.76 19.81 205.90 19.06 202.40 C 18.23 198.59 18.46 194.67 18.42 190.80 C 18.18 190.32 17.72 189.37 17.48 188.89 C 18.81 187.83 18.56 185.70 17.39 184.62 L 17.34 184.10 C 17.35 184.01 17.37 183.83 17.38 183.74 C 17.93 180.73 17.96 177.68 17.61 174.65 C 19.01 169.82 23.01 166.07 23.59 160.97 C 24.17 156.20 24.78 151.38 26.82 146.98 C 26.50 145.13 25.77 143.26 26.00 141.37 C 26.82 139.10 28.41 137.21 29.32 134.98 C 29.81 132.55 29.49 130.04 29.92 127.61 C 31.09 124.85 33.30 122.63 34.13 119.71 C 35.22 116.35 36.07 112.51 39.13 110.33 Z" />
<path fill="#000000" opacity="1.00" d=" M 160.71 118.31 C 161.18 118.40 162.12 118.56 162.59 118.65 C 158.69 126.71 155.03 134.91 150.82 142.83 C 149.79 144.48 148.93 146.24 147.81 147.84 C 147.53 148.33 146.98 149.31 146.70 149.81 C 145.72 151.59 144.70 153.37 144.24 155.37 L 143.44 155.47 C 143.43 156.19 143.40 157.63 143.39 158.35 L 142.39 158.36 C 142.39 159.13 142.39 160.68 142.39 161.45 L 141.52 161.40 C 141.38 162.30 141.15 163.18 140.80 164.02 C 140.69 162.89 140.61 161.75 140.55 160.62 L 141.61 160.66 C 141.60 159.89 141.58 158.35 141.57 157.58 L 142.49 157.62 C 142.56 155.62 143.30 153.70 144.56 152.16 C 144.53 151.78 144.46 151.03 144.42 150.65 L 145.28 150.46 C 147.91 144.53 151.27 138.94 154.17 133.14 C 155.23 130.02 156.74 127.08 158.26 124.16 C 159.08 122.21 159.97 120.29 160.71 118.31 Z" />
<path fill="#000000" opacity="1.00" d=" M 133.80 157.21 C 135.26 150.45 136.26 142.72 141.71 137.86 C 139.15 144.03 136.57 150.19 135.21 156.77 C 135.74 156.73 136.79 156.66 137.31 156.62 C 137.37 155.82 137.50 154.23 137.56 153.43 C 138.04 153.44 139.01 153.45 139.49 153.46 C 135.85 162.06 138.87 171.25 140.14 179.99 C 140.28 181.67 140.43 183.36 140.58 185.04 C 142.57 182.83 143.90 180.07 146.09 178.05 C 143.78 181.51 142.17 185.41 140.93 189.38 C 143.63 189.59 146.34 189.71 149.05 189.76 C 151.60 190.38 154.24 190.52 156.80 191.08 C 157.46 191.11 158.77 191.18 159.43 191.21 C 158.19 191.59 156.96 191.98 155.73 192.38 C 152.69 191.78 149.60 191.29 146.49 191.60 C 151.14 193.83 156.27 194.85 160.90 197.17 C 165.09 198.60 168.82 201.07 173.01 202.50 C 168.35 202.05 164.52 199.02 160.02 198.01 C 160.57 200.43 161.86 202.56 163.30 204.55 L 163.63 205.33 C 167.39 209.89 170.90 215.53 176.99 217.10 C 177.92 215.73 178.86 214.36 179.81 212.99 C 177.70 210.47 175.33 208.19 173.05 205.84 C 175.31 207.24 177.58 208.74 179.17 210.92 C 181.77 209.88 183.53 207.59 185.67 205.89 L 185.51 205.58 C 186.11 204.93 186.58 204.21 186.93 203.40 C 187.12 204.23 187.32 205.06 187.53 205.89 C 185.17 207.86 182.92 209.96 180.66 212.04 C 180.60 212.66 180.50 213.90 180.45 214.52 C 178.74 216.15 177.18 217.94 176.02 220.00 L 63.11 220.00 C 63.15 219.65 63.24 218.95 63.29 218.59 C 65.12 206.46 68.35 194.44 68.55 182.12 C 67.37 181.00 66.21 179.87 65.18 178.61 C 62.92 177.22 59.84 175.32 57.29 177.05 C 54.43 178.97 50.91 180.67 49.43 183.95 C 49.31 188.29 51.32 192.37 51.67 196.69 L 52.82 196.28 C 52.41 203.64 48.29 210.06 45.66 216.78 C 45.14 217.85 44.63 218.92 44.13 220.00 L 42.28 220.00 C 42.46 219.63 42.82 218.88 43.00 218.50 C 45.62 211.48 50.77 204.83 49.72 196.97 C 49.73 193.63 48.52 190.49 47.72 187.29 C 47.01 184.79 48.40 182.41 48.82 179.99 C 47.14 179.80 45.46 179.58 43.79 179.28 C 46.87 179.47 50.06 180.14 53.05 178.98 C 53.41 178.67 54.11 178.06 54.46 177.76 C 52.98 177.28 51.50 176.84 50.01 176.41 C 52.30 176.40 54.59 176.31 56.88 176.24 C 56.77 175.29 56.65 174.35 56.51 173.41 C 60.94 175.02 65.57 176.48 70.33 176.59 C 71.63 177.08 72.96 177.49 74.30 177.86 C 74.27 178.27 74.20 179.09 74.16 179.50 C 72.02 177.24 68.82 177.37 65.93 177.16 C 66.99 180.27 70.20 181.70 72.74 183.42 C 75.82 185.20 79.39 187.11 83.04 185.97 C 87.11 186.01 91.64 183.24 95.35 185.82 C 101.55 189.42 106.54 194.66 112.22 198.96 C 120.29 205.22 126.68 213.51 135.16 219.20 C 148.49 219.55 161.86 219.28 175.21 219.33 C 170.20 215.55 166.51 210.50 162.71 205.59 C 161.53 203.56 160.35 201.53 159.37 199.40 C 155.46 197.25 151.51 195.09 147.21 193.83 C 139.72 191.65 132.80 187.93 126.20 183.85 C 119.68 179.68 114.74 173.02 107.20 170.52 C 102.71 168.83 99.61 164.97 95.86 162.16 C 92.42 159.62 89.13 156.72 85.15 155.05 C 85.55 154.59 86.34 153.69 86.73 153.23 L 87.97 154.28 C 92.52 157.97 97.37 161.28 101.66 165.29 C 105.42 169.00 111.00 169.67 115.01 173.03 C 122.44 179.11 129.97 185.51 139.08 188.92 C 139.21 187.74 139.47 185.37 139.60 184.19 C 138.00 184.32 136.41 184.48 134.83 184.66 C 136.94 182.43 139.46 180.03 138.69 176.60 C 136.21 178.88 134.26 181.64 132.00 184.12 C 133.31 179.53 138.42 176.25 137.46 171.13 C 136.45 169.88 135.71 168.44 135.09 166.96 C 132.01 168.32 129.00 169.88 126.23 171.81 C 127.29 170.79 128.35 169.76 129.41 168.73 C 131.82 167.50 134.36 166.54 136.67 165.13 C 136.40 162.95 135.66 160.88 135.29 158.73 C 134.78 158.23 134.28 157.73 133.80 157.21 M 69.16 183.12 C 71.75 190.17 75.75 196.58 79.23 203.21 C 79.76 203.37 80.83 203.71 81.37 203.87 C 81.22 202.00 81.53 199.94 80.30 198.35 C 77.27 193.64 74.89 188.54 71.97 183.77 C 71.27 183.61 69.86 183.28 69.16 183.12 M 83.51 187.41 C 83.31 190.57 83.72 193.82 82.84 196.91 C 82.61 204.42 81.42 211.86 81.54 219.38 C 88.51 218.78 95.85 220.54 102.56 218.30 L 102.38 219.48 C 112.30 219.20 122.21 219.39 132.13 219.39 C 127.20 214.18 121.46 209.80 116.51 204.59 C 116.21 204.51 115.60 204.35 115.30 204.27 C 111.09 208.41 106.96 212.66 103.03 217.08 C 103.38 216.08 103.77 215.11 104.21 214.16 C 107.25 209.96 111.07 206.36 113.87 201.98 C 109.26 199.14 105.64 194.73 100.90 192.27 C 97.52 196.86 94.12 201.55 91.59 206.68 C 90.63 207.98 90.21 210.40 87.91 209.55 C 89.31 208.28 89.97 206.48 90.99 204.94 C 94.64 200.73 97.05 195.62 99.97 190.92 C 97.70 189.42 95.60 187.62 93.10 186.50 C 91.09 186.27 89.07 186.67 87.12 187.17 C 85.92 187.25 84.71 187.33 83.51 187.41 M 67.27 197.05 C 67.75 202.07 70.84 206.38 73.13 210.77 C 75.19 213.60 76.21 217.73 79.78 219.03 C 79.75 218.29 79.70 216.79 79.67 216.04 C 76.13 209.98 72.31 204.02 69.03 197.80 L 67.27 197.05 M 69.94 219.63 C 69.20 216.98 67.84 214.57 66.97 211.97 C 64.13 214.23 65.34 220.69 69.94 219.63 Z" />
<path fill="#000000" opacity="1.00" d=" M 78.06 138.96 C 78.63 139.96 79.19 140.97 79.75 141.98 C 81.50 145.17 82.96 148.52 84.18 151.95 C 84.25 152.46 84.38 153.47 84.45 153.98 C 82.51 153.87 80.58 153.77 78.64 153.67 C 78.09 152.07 77.53 150.47 76.97 148.87 C 76.41 148.75 75.31 148.51 74.76 148.39 C 75.86 145.25 76.94 142.10 78.06 138.96 Z" />
<path fill="#000000" opacity="1.00" d=" M 74.06 151.34 C 76.30 151.52 76.21 156.16 73.42 154.75 C 72.64 153.74 73.37 152.22 74.06 151.34 Z" />
<path fill="#000000" opacity="1.00" d=" M 190.43 185.01 L 190.99 184.81 C 190.05 187.98 188.34 190.84 187.34 193.99 C 187.30 196.28 189.17 198.21 189.20 200.43 C 188.27 201.62 185.83 201.29 185.45 203.20 C 184.74 202.66 184.01 202.14 183.28 201.65 L 182.22 200.92 C 184.17 200.88 186.12 200.87 188.07 200.84 C 187.98 200.57 187.80 200.03 187.71 199.76 C 187.40 199.07 186.78 197.69 186.46 197.01 C 186.20 194.54 186.73 192.11 187.73 189.86 C 188.55 188.20 189.23 186.45 190.43 185.01 Z" />
</g>
<g id="#fefefeff">
<path fill="#fefefe" opacity="1.00" d=" M 75.64 0.00 L 103.33 0.00 L 103.40 1.66 C 98.78 1.74 94.09 1.28 89.54 2.40 C 84.87 2.66 79.81 2.18 75.64 0.00 Z" />
<path fill="#fefefe" opacity="1.00" d=" M 94.02 17.92 C 96.27 17.12 98.76 17.71 101.09 17.70 C 102.87 18.57 104.80 19.05 106.63 19.81 C 107.25 23.99 102.29 22.42 99.82 22.31 C 99.52 22.03 98.91 21.45 98.60 21.16 C 98.59 21.68 98.56 22.70 98.55 23.21 C 101.16 24.49 104.07 25.05 106.94 24.46 C 107.77 23.94 108.61 23.46 109.47 23.00 C 109.41 25.44 109.89 28.13 108.26 30.19 C 105.72 33.30 109.11 36.79 110.85 39.34 C 108.67 41.12 105.63 40.27 103.13 41.23 C 102.39 41.14 100.90 40.97 100.15 40.89 C 100.09 37.63 96.57 36.96 94.01 36.66 C 90.38 36.40 86.53 37.18 83.56 39.35 C 83.49 39.85 83.34 40.86 83.27 41.36 C 81.58 41.97 79.99 42.86 78.82 44.26 C 76.63 44.14 74.40 43.68 72.53 42.48 C 72.37 38.53 66.74 35.86 63.59 38.56 C 63.26 38.94 62.60 39.69 62.27 40.07 C 62.36 37.74 62.54 35.40 63.04 33.12 C 63.40 31.76 63.68 30.38 64.19 29.06 C 64.70 27.81 65.20 26.56 65.69 25.30 C 67.13 25.27 68.57 25.24 70.00 25.19 C 74.46 24.25 78.91 23.34 83.34 22.26 L 83.56 23.76 C 88.02 23.81 90.63 20.07 94.02 17.92 Z" />
<path fill="#fefefe" opacity="1.00" d=" M 115.33 21.24 C 116.58 21.76 117.81 22.31 119.07 22.82 C 119.32 20.93 121.02 21.27 122.34 21.12 C 122.78 22.01 123.65 23.78 124.08 24.66 C 122.27 24.13 120.44 24.13 118.65 24.67 C 118.55 25.49 118.33 27.11 118.22 27.92 C 116.97 25.84 115.47 23.75 115.33 21.24 Z" />
<path fill="#fefefe" opacity="1.00" d=" M 62.73 42.82 C 63.60 41.50 64.42 39.83 66.04 39.32 C 67.95 39.14 69.61 40.37 71.42 40.78 L 71.81 42.77 C 68.78 42.59 65.75 42.77 62.73 42.82 Z" />
<path fill="#fefefe" opacity="1.00" d=" M 84.90 41.47 C 87.29 37.99 92.37 38.48 96.17 38.56 C 97.48 38.93 98.17 39.75 98.23 41.00 L 97.94 41.80 C 93.60 41.41 89.25 41.25 84.90 41.47 Z" />
<path fill="#fefefe" opacity="1.00" d=" M 118.72 41.86 C 121.14 40.44 123.08 41.82 124.58 43.65 C 123.42 45.47 123.69 47.65 123.62 49.70 C 123.44 49.67 123.08 49.61 122.91 49.58 C 122.43 54.06 119.44 57.84 116.10 60.64 C 114.50 60.56 112.98 60.01 111.50 59.46 C 112.56 60.63 114.06 61.57 114.64 63.07 C 114.90 67.59 115.34 72.09 115.46 76.62 C 116.29 76.74 117.95 76.99 118.78 77.11 C 117.58 77.31 116.38 77.45 115.16 77.45 C 115.23 78.24 115.36 79.82 115.42 80.61 C 109.33 87.97 102.35 94.87 98.09 103.55 C 93.76 104.06 89.40 103.85 85.06 103.58 C 80.99 100.61 78.61 95.53 79.36 90.48 C 82.45 91.85 85.64 93.67 89.15 93.30 L 90.25 92.00 C 87.66 91.40 85.07 90.80 82.52 90.04 C 85.08 89.46 87.95 89.29 89.81 87.20 C 85.10 87.27 79.39 89.04 75.48 85.55 C 74.38 82.96 73.68 80.22 72.44 77.68 C 70.60 73.55 67.69 69.97 66.17 65.69 C 64.43 62.25 63.14 58.55 63.41 54.64 C 66.55 54.69 69.70 54.64 72.84 54.39 C 72.51 55.68 72.18 56.97 71.84 58.25 C 72.19 59.27 72.54 60.29 72.88 61.32 C 75.71 61.55 78.54 61.59 81.37 61.55 C 81.82 60.89 82.27 60.22 82.71 59.56 C 79.50 59.14 76.49 60.56 73.32 60.66 C 73.30 58.17 74.00 55.80 74.70 53.44 C 75.44 51.25 75.69 48.94 75.91 46.65 C 76.66 46.61 78.16 46.52 78.91 46.48 C 80.06 48.93 81.14 51.61 83.35 53.31 C 86.34 54.83 89.88 54.34 93.12 54.21 C 97.52 53.36 97.46 48.14 97.61 44.66 C 101.79 43.41 106.16 43.22 110.45 42.55 C 110.37 44.71 110.28 46.86 110.16 49.01 C 109.69 50.98 109.34 52.98 109.05 54.98 C 110.14 54.55 111.61 54.49 112.20 53.28 C 114.13 49.95 115.12 46.06 118.03 43.36 C 118.51 43.77 119.00 44.19 119.49 44.59 C 120.66 44.78 121.81 45.04 122.95 45.37 C 122.75 45.02 122.35 44.33 122.15 43.99 C 120.99 43.30 119.84 42.60 118.72 41.86 M 115.53 48.51 C 116.33 51.05 115.18 53.25 113.44 55.03 C 113.50 55.59 113.61 56.70 113.67 57.26 C 114.18 57.32 115.19 57.46 115.70 57.52 C 115.66 56.82 115.57 55.41 115.53 54.70 C 115.90 54.23 116.63 53.28 116.99 52.81 C 118.05 52.30 119.14 51.83 120.14 51.20 C 120.54 49.85 119.72 48.60 119.35 47.35 C 117.95 47.28 116.61 47.54 115.53 48.51 M 73.27 71.18 C 74.55 71.40 75.83 71.65 77.11 71.90 C 79.08 72.42 81.13 72.43 83.15 72.27 C 84.47 71.85 85.82 71.58 87.17 71.31 C 87.65 70.73 88.18 70.20 88.78 69.74 C 84.25 69.13 79.69 69.87 75.14 69.70 C 74.21 69.60 73.81 70.61 73.27 71.18 M 79.25 75.33 C 79.27 75.83 79.31 76.84 79.33 77.34 C 79.91 77.33 81.08 77.31 81.66 77.31 C 81.71 76.78 81.80 75.74 81.85 75.21 C 81.20 75.24 79.90 75.30 79.25 75.33 M 93.67 89.66 C 92.24 90.59 90.21 91.05 89.85 93.02 C 93.95 92.49 97.20 89.80 100.33 87.33 C 102.16 85.79 104.26 84.29 104.97 81.89 C 100.97 84.15 97.76 87.56 93.67 89.66 Z" />
<path fill="#fefefe" opacity="1.00" d=" M 80.54 44.75 C 82.03 43.83 83.71 43.39 85.44 43.22 L 85.51 44.67 C 86.94 44.24 88.35 43.81 89.80 43.47 C 89.53 45.04 88.74 46.25 87.42 47.12 C 87.42 47.52 87.44 48.32 87.45 48.72 C 89.42 48.45 91.39 48.15 93.30 47.58 C 93.87 47.11 95.01 46.17 95.58 45.70 C 95.19 47.91 95.81 51.29 93.15 52.33 C 89.57 52.76 85.84 52.83 82.46 51.42 L 82.40 50.83 C 82.12 50.27 81.57 49.14 81.30 48.58 L 80.55 48.56 C 80.54 47.61 80.54 45.70 80.54 44.75 Z" />
<path fill="#fefefe" opacity="1.00" d=" M 62.30 44.57 C 63.62 44.84 64.93 45.19 66.22 45.62 C 66.85 45.31 68.11 44.68 68.74 44.37 C 68.25 46.22 67.64 48.04 66.97 49.84 C 69.23 49.54 71.46 49.13 73.66 48.54 C 73.49 49.41 73.16 51.14 72.99 52.01 C 70.59 54.06 67.29 53.54 64.38 53.73 C 63.43 50.74 62.70 47.68 62.30 44.57 Z" />
<path fill="#fefefe" opacity="1.00" d=" M 117.55 78.90 C 118.04 78.39 118.53 77.89 119.03 77.39 C 119.26 81.65 122.16 84.68 124.37 87.97 C 123.17 96.12 119.19 103.45 116.22 111.03 C 116.05 111.49 115.72 112.40 115.56 112.86 C 108.67 113.55 103.36 108.36 96.85 107.20 C 101.22 100.25 106.36 93.82 111.59 87.51 C 113.73 84.78 117.57 82.79 117.55 78.90 Z" />
<path fill="#fefefe" opacity="1.00" d=" M 126.85 87.36 C 137.34 93.25 149.44 95.73 159.50 102.45 C 165.63 106.52 172.13 110.63 176.18 116.93 C 180.07 123.92 182.57 131.85 182.41 139.90 C 182.43 144.17 183.22 148.45 182.57 152.71 C 180.31 146.49 178.09 140.15 174.35 134.63 C 173.53 133.46 172.35 132.62 171.20 131.82 C 174.34 137.79 177.35 143.83 179.66 150.18 C 180.82 153.87 184.04 156.88 183.83 160.96 C 184.03 165.13 182.12 168.96 181.35 172.97 C 182.16 178.08 187.44 180.90 191.45 183.44 C 191.48 183.73 191.55 184.31 191.58 184.61 L 190.99 184.81 L 190.43 185.01 C 189.23 186.45 188.55 188.20 187.73 189.86 C 186.73 192.11 186.20 194.54 186.46 197.01 C 186.78 197.69 187.40 199.07 187.71 199.76 C 186.78 199.83 184.92 199.98 183.99 200.05 C 181.50 198.22 179.13 196.11 176.20 195.01 C 173.09 194.21 169.62 195.10 166.71 193.45 C 164.43 192.29 162.08 191.02 159.43 191.21 C 158.77 191.18 157.46 191.11 156.80 191.08 C 154.24 190.52 151.60 190.38 149.05 189.76 C 146.34 189.71 143.63 189.59 140.93 189.38 C 142.17 185.41 143.78 181.51 146.09 178.05 C 143.90 180.07 142.57 182.83 140.58 185.04 C 140.43 183.36 140.28 181.67 140.14 179.99 C 138.87 171.25 135.85 162.06 139.49 153.46 C 139.01 153.45 138.04 153.44 137.56 153.43 C 137.50 154.23 137.37 155.82 137.31 156.62 C 136.79 156.66 135.74 156.73 135.21 156.77 C 136.57 150.19 139.15 144.03 141.71 137.86 C 136.26 142.72 135.26 150.45 133.80 157.21 C 134.28 157.73 134.78 158.23 135.29 158.73 C 135.66 160.88 136.40 162.95 136.67 165.13 C 134.36 166.54 131.82 167.50 129.41 168.73 C 128.35 169.76 127.29 170.79 126.23 171.81 C 129.00 169.88 132.01 168.32 135.09 166.96 C 135.71 168.44 136.45 169.88 137.46 171.13 C 138.42 176.25 133.31 179.53 132.00 184.12 C 134.26 181.64 136.21 178.88 138.69 176.60 C 139.46 180.03 136.94 182.43 134.83 184.66 C 136.41 184.48 138.00 184.32 139.60 184.19 C 139.47 185.37 139.21 187.74 139.08 188.92 C 129.97 185.51 122.44 179.11 115.01 173.03 C 111.00 169.67 105.42 169.00 101.66 165.29 C 97.37 161.28 92.52 157.97 87.97 154.28 C 88.28 148.24 87.89 142.19 88.29 136.16 C 88.81 132.33 88.32 128.07 90.79 124.80 C 92.72 121.99 94.31 118.90 94.58 115.43 C 98.11 114.64 101.38 113.01 104.87 112.17 C 108.35 113.02 111.86 113.88 115.49 113.53 C 115.68 113.29 116.07 112.83 116.27 112.59 C 117.45 111.29 118.64 109.97 119.40 108.37 C 122.52 101.62 125.93 94.84 126.85 87.36 M 160.71 118.31 C 159.97 120.29 159.08 122.21 158.26 124.16 C 156.74 127.08 155.23 130.02 154.17 133.14 C 151.27 138.94 147.91 144.53 145.28 150.46 L 144.42 150.65 C 144.46 151.03 144.53 151.78 144.56 152.16 C 143.30 153.70 142.56 155.62 142.49 157.62 L 141.57 157.58 C 141.58 158.35 141.60 159.89 141.61 160.66 L 140.55 160.62 C 140.61 161.75 140.69 162.89 140.80 164.02 C 141.15 163.18 141.38 162.30 141.52 161.40 L 142.39 161.45 C 142.39 160.68 142.39 159.13 142.39 158.36 L 143.39 158.35 C 143.40 157.63 143.43 156.19 143.44 155.47 L 144.24 155.37 C 144.70 153.37 145.72 151.59 146.70 149.81 C 146.98 149.31 147.53 148.33 147.81 147.84 C 148.93 146.24 149.79 144.48 150.82 142.83 C 155.03 134.91 158.69 126.71 162.59 118.65 C 162.12 118.56 161.18 118.40 160.71 118.31 M 159.77 140.18 C 156.64 145.20 151.22 149.21 150.13 155.24 C 154.57 151.23 157.76 145.78 159.77 140.18 M 145.59 164.82 C 147.15 162.96 148.59 160.78 151.16 160.26 C 150.57 159.09 149.18 158.95 148.02 159.06 C 145.89 160.09 145.72 162.75 145.59 164.82 M 157.50 168.54 C 154.44 171.99 152.33 176.13 150.05 180.10 C 148.82 182.35 146.52 184.08 146.23 186.77 C 148.60 186.58 150.92 186.01 153.01 184.83 C 152.12 184.71 150.35 184.46 149.47 184.34 C 153.06 179.83 154.80 173.98 159.04 170.00 C 163.05 168.35 166.99 166.52 170.78 164.39 C 166.24 165.32 161.61 166.37 157.50 168.54 M 162.63 186.88 C 162.54 187.34 162.37 188.26 162.28 188.72 C 165.22 189.46 168.25 189.75 171.28 189.75 C 170.05 189.10 168.79 188.49 167.55 187.87 C 170.34 186.67 173.20 185.62 176.05 184.55 C 171.42 184.17 167.05 185.83 162.63 186.88 Z" />
<path fill="#fefefe" opacity="1.00" d=" M 62.42 97.85 C 66.91 95.85 70.72 92.63 75.10 90.41 C 71.92 97.39 72.86 105.50 68.78 112.17 C 69.02 112.81 69.51 114.10 69.76 114.75 C 71.44 114.06 73.17 113.38 74.49 112.09 C 75.87 110.93 77.15 109.54 78.91 108.97 C 80.26 110.79 81.26 112.84 82.39 114.80 C 81.65 117.55 81.21 120.38 80.49 123.14 C 79.45 127.61 79.34 132.27 77.86 136.65 C 76.15 142.05 74.22 147.39 72.48 152.78 C 72.26 154.69 69.95 155.01 68.42 154.67 C 64.97 150.94 63.21 145.97 59.70 142.28 C 58.45 140.92 56.50 140.75 54.77 140.56 C 52.25 140.53 49.72 140.53 47.20 140.55 C 45.57 136.65 44.24 132.62 42.39 128.82 C 42.29 132.85 43.56 136.69 44.85 140.46 C 43.39 140.57 41.94 140.69 40.49 140.81 C 40.42 141.29 40.28 142.27 40.22 142.76 C 40.37 143.01 40.66 143.51 40.81 143.76 C 42.36 146.04 44.28 148.39 43.41 151.34 C 40.56 151.95 36.68 152.11 35.59 155.41 C 34.94 163.78 34.04 172.49 30.51 180.23 C 26.82 185.72 22.90 191.05 19.58 196.79 C 19.51 193.16 19.67 189.54 20.23 185.96 C 19.97 185.43 19.47 184.37 19.21 183.84 C 19.54 183.47 20.20 182.73 20.53 182.36 C 20.11 179.57 19.15 176.71 20.02 173.90 C 20.23 172.85 20.42 171.80 20.60 170.75 C 23.87 166.50 25.74 161.27 25.57 155.88 C 25.20 151.99 29.32 148.82 27.70 144.97 C 26.24 140.62 29.88 136.99 31.40 133.21 C 31.04 131.81 30.70 130.40 30.40 128.98 C 31.96 126.30 33.53 123.63 35.08 120.95 C 35.34 119.89 35.55 118.83 35.76 117.76 C 37.63 110.95 44.56 108.22 49.67 104.30 L 50.24 104.08 C 53.21 102.51 56.10 100.79 59.08 99.24 C 60.18 98.74 61.29 98.28 62.42 97.85 Z" />
<path fill="#fefefe" opacity="1.00" d=" M 74.37 102.02 C 74.44 98.74 75.28 95.57 76.48 92.54 C 77.12 97.23 79.27 101.80 83.23 104.57 C 84.94 105.89 86.94 107.21 86.79 109.69 C 84.42 108.32 82.15 106.80 79.85 105.33 C 78.16 106.78 76.53 108.31 74.92 109.86 C 73.69 110.65 72.45 111.42 71.19 112.17 C 72.65 108.94 74.35 105.65 74.37 102.02 Z" />
<path fill="#fefefe" opacity="1.00" d=" M 85.97 104.46 C 89.49 104.53 93.01 104.59 96.53 104.40 C 96.54 105.18 96.58 106.73 96.59 107.51 C 96.08 107.58 95.06 107.71 94.55 107.77 C 95.22 108.01 96.56 108.48 97.24 108.72 C 94.15 108.08 91.01 107.84 87.90 107.42 C 87.42 106.68 86.45 105.20 85.97 104.46 Z" />
<path fill="#fefefe" opacity="1.00" d=" M 84.35 112.68 C 87.57 111.16 91.28 109.72 94.64 111.78 C 94.26 112.36 93.89 112.95 93.51 113.53 C 90.88 113.39 88.25 113.45 85.63 113.58 C 85.44 113.87 85.06 114.47 84.88 114.77 C 84.74 114.25 84.48 113.20 84.35 112.68 Z" />
<path fill="#fefefe" opacity="1.00" d=" M 82.21 120.53 C 85.35 120.25 88.62 120.79 91.63 119.58 C 92.64 124.75 83.62 124.46 82.21 120.53 Z" />
<path fill="#fefefe" opacity="1.00" d=" M 81.82 124.23 C 82.41 124.64 83.59 125.44 84.18 125.85 C 85.68 128.60 86.91 131.51 87.63 134.57 C 87.09 134.62 86.03 134.72 85.49 134.76 C 84.70 132.84 83.86 130.94 82.94 129.08 C 82.52 127.47 82.18 125.85 81.82 124.23 Z" />
<path fill="#fefefe" opacity="1.00" d=" M 79.75 141.98 C 79.39 140.20 79.59 138.43 80.67 136.93 C 83.10 140.93 85.42 145.13 86.16 149.82 C 86.00 151.09 85.85 152.36 85.72 153.64 C 85.33 153.22 84.56 152.38 84.18 151.95 C 82.96 148.52 81.50 145.17 79.75 141.98 Z" />
<path fill="#fefefe" opacity="1.00" d=" M 38.87 153.37 C 43.02 153.27 46.84 155.05 50.42 156.96 C 50.47 157.50 50.57 158.60 50.62 159.14 C 48.18 160.62 45.24 160.46 42.54 161.03 C 44.90 161.57 47.32 161.73 49.74 161.58 C 49.64 163.28 49.23 165.11 50.33 166.61 C 51.24 167.52 52.24 168.35 53.18 169.24 C 50.00 168.83 46.77 168.88 43.70 169.87 C 46.81 170.95 50.13 170.95 53.39 170.89 C 54.15 172.43 54.92 173.96 55.71 175.48 C 53.35 175.51 50.99 175.57 48.64 175.66 C 48.63 176.01 48.62 176.71 48.62 177.06 C 50.11 177.67 51.58 178.33 53.05 178.98 C 50.06 180.14 46.87 179.47 43.79 179.28 C 45.46 179.58 47.14 179.80 48.82 179.99 C 48.40 182.41 47.01 184.79 47.72 187.29 C 48.52 190.49 49.73 193.63 49.72 196.97 C 50.77 204.83 45.62 211.48 43.00 218.50 C 37.17 218.80 31.33 218.73 25.50 218.53 C 25.27 215.71 25.44 212.88 25.44 210.06 C 21.23 206.81 19.05 200.77 21.66 195.85 C 24.12 191.94 26.34 187.84 29.55 184.47 C 32.31 181.68 33.52 177.88 34.59 174.21 C 36.03 175.20 37.49 176.17 39.02 177.02 C 40.42 178.28 41.79 179.54 43.22 180.76 C 42.57 179.12 41.89 177.50 41.17 175.90 C 39.18 175.09 37.22 174.20 35.30 173.25 C 35.63 172.53 36.30 171.10 36.64 170.38 C 37.58 170.31 39.46 170.17 40.40 170.10 C 39.58 169.82 38.76 169.55 37.93 169.28 C 37.09 168.51 36.25 167.75 35.41 166.99 C 35.26 164.36 36.79 162.34 38.84 160.88 C 38.08 160.16 37.26 159.51 36.36 158.97 C 36.74 156.92 37.74 155.10 38.87 153.37 Z" />
<path fill="#fefefe" opacity="1.00" d=" M 65.95 157.40 C 72.50 157.30 78.52 153.04 85.15 155.05 C 89.13 156.72 92.42 159.62 95.86 162.16 C 99.61 164.97 102.71 168.83 107.20 170.52 C 114.74 173.02 119.68 179.68 126.20 183.85 C 132.80 187.93 139.72 191.65 147.21 193.83 C 151.51 195.09 155.46 197.25 159.37 199.40 C 160.35 201.53 161.53 203.56 162.71 205.59 C 166.51 210.50 170.20 215.55 175.21 219.33 C 161.86 219.28 148.49 219.55 135.16 219.20 C 126.68 213.51 120.29 205.22 112.22 198.96 C 106.54 194.66 101.55 189.42 95.35 185.82 C 91.64 183.24 87.11 186.01 83.04 185.97 C 79.39 187.11 75.82 185.20 72.74 183.42 C 70.20 181.70 66.99 180.27 65.93 177.16 C 68.82 177.37 72.02 177.24 74.16 179.50 C 74.20 179.09 74.27 178.27 74.30 177.86 C 72.96 177.49 71.63 177.08 70.33 176.59 C 65.57 176.48 60.94 175.02 56.51 173.41 C 56.35 173.06 56.03 172.35 55.87 172.00 C 56.85 171.00 57.84 170.00 58.81 168.99 C 56.21 167.34 50.87 166.71 51.78 162.58 C 53.92 162.61 56.06 162.43 58.19 162.19 C 55.54 161.25 51.47 161.31 50.96 157.78 C 53.34 156.64 55.94 156.26 58.55 156.50 C 60.98 156.99 63.44 157.61 65.95 157.40 M 60.93 161.47 C 61.81 163.37 64.12 163.46 65.92 163.71 C 69.95 164.29 74.05 164.46 78.11 164.02 C 79.84 164.34 79.79 162.48 79.91 161.34 C 73.63 162.97 67.25 162.27 60.93 161.47 M 64.32 169.39 C 64.32 169.61 64.32 170.05 64.32 170.28 C 67.18 171.32 70.18 171.81 73.23 171.76 C 74.40 172.18 75.58 172.59 76.77 173.00 C 76.68 172.42 76.51 171.25 76.43 170.67 C 72.37 170.37 68.42 169.17 64.32 169.39 Z" />
<path fill="#fefefe" opacity="1.00" d=" M 17.61 174.65 C 17.96 177.68 17.93 180.73 17.38 183.74 C 17.37 183.83 17.35 184.01 17.34 184.10 C 17.09 181.28 16.96 178.43 17.28 175.60 L 17.61 174.65 Z" />
<path fill="#fefefe" opacity="1.00" d=" M 57.29 177.05 C 59.84 175.32 62.92 177.22 65.18 178.61 C 66.21 179.87 67.37 181.00 68.55 182.12 C 68.35 194.44 65.12 206.46 63.29 218.59 C 57.27 218.75 51.24 218.62 45.22 218.74 L 45.66 216.78 C 48.29 210.06 52.41 203.64 52.82 196.28 L 51.67 196.69 C 51.32 192.37 49.31 188.29 49.43 183.95 C 50.91 180.67 54.43 178.97 57.29 177.05 Z" />
<path fill="#fefefe" opacity="1.00" d=" M 69.16 183.12 C 69.86 183.28 71.27 183.61 71.97 183.77 C 74.89 188.54 77.27 193.64 80.30 198.35 C 81.53 199.94 81.22 202.00 81.37 203.87 C 80.83 203.71 79.76 203.37 79.23 203.21 C 75.75 196.58 71.75 190.17 69.16 183.12 Z" />
<path fill="#fefefe" opacity="1.00" d=" M 17.39 184.62 C 18.56 185.70 18.81 187.83 17.48 188.89 C 16.82 187.50 16.79 186.08 17.39 184.62 Z" />
<path fill="#fefefe" opacity="1.00" d=" M 83.51 187.41 C 84.71 187.33 85.92 187.25 87.12 187.17 C 89.07 186.67 91.09 186.27 93.10 186.50 C 95.60 187.62 97.70 189.42 99.97 190.92 C 97.05 195.62 94.64 200.73 90.99 204.94 C 89.97 206.48 89.31 208.28 87.91 209.55 C 90.21 210.40 90.63 207.98 91.59 206.68 C 94.12 201.55 97.52 196.86 100.90 192.27 C 105.64 194.73 109.26 199.14 113.87 201.98 C 111.07 206.36 107.25 209.96 104.21 214.16 C 103.77 215.11 103.38 216.08 103.03 217.08 C 106.96 212.66 111.09 208.41 115.30 204.27 C 115.60 204.35 116.21 204.51 116.51 204.59 C 121.46 209.80 127.20 214.18 132.13 219.39 C 122.21 219.39 112.30 219.20 102.38 219.48 L 102.56 218.30 C 95.85 220.54 88.51 218.78 81.54 219.38 C 81.42 211.86 82.61 204.42 82.84 196.91 C 83.72 193.82 83.31 190.57 83.51 187.41 Z" />
<path fill="#fefefe" opacity="1.00" d=" M 146.49 191.60 C 149.60 191.29 152.69 191.78 155.73 192.38 C 159.03 193.05 162.37 193.47 165.71 193.84 C 167.70 195.67 170.19 196.80 172.94 196.63 C 176.64 196.29 179.37 199.03 182.22 200.92 L 183.28 201.65 C 184.03 202.95 184.80 204.24 185.51 205.58 L 185.67 205.89 C 183.53 207.59 181.77 209.88 179.17 210.92 C 177.58 208.74 175.31 207.24 173.05 205.84 C 175.33 208.19 177.70 210.47 179.81 212.99 C 178.86 214.36 177.92 215.73 176.99 217.10 C 170.90 215.53 167.39 209.89 163.63 205.33 L 163.30 204.55 C 161.86 202.56 160.57 200.43 160.02 198.01 C 164.52 199.02 168.35 202.05 173.01 202.50 C 168.82 201.07 165.09 198.60 160.90 197.17 C 156.27 194.85 151.14 193.83 146.49 191.60 Z" />
<path fill="#fefefe" opacity="1.00" d=" M 67.27 197.05 L 69.03 197.80 C 72.31 204.02 76.13 209.98 79.67 216.04 C 79.70 216.79 79.75 218.29 79.78 219.03 C 76.21 217.73 75.19 213.60 73.13 210.77 C 70.84 206.38 67.75 202.07 67.27 197.05 Z" />
<path fill="#fefefe" opacity="1.00" d=" M 69.94 219.63 C 65.34 220.69 64.13 214.23 66.97 211.97 C 67.84 214.57 69.20 216.98 69.94 219.63 Z" />
</g>
<g id="#7c7c7cfc">
<path fill="#7c7c7c" opacity="1.00" d=" M 103.33 0.00 L 103.67 0.00 C 106.13 1.28 106.03 4.54 108.15 6.13 C 109.25 7.16 110.74 7.47 112.20 7.51 C 114.18 7.87 116.34 8.52 116.81 10.80 C 116.20 11.58 115.61 12.37 115.05 13.19 C 112.31 13.31 109.57 13.40 106.83 13.37 C 108.74 10.99 111.71 10.56 114.59 10.39 C 115.10 8.64 112.41 8.95 111.43 8.37 C 109.57 7.09 107.65 5.82 105.43 5.24 C 105.09 3.90 104.76 2.55 104.34 1.23 C 99.86 3.77 94.44 1.98 89.54 2.40 C 94.09 1.28 98.78 1.74 103.40 1.66 L 103.33 0.00 Z" />
<path fill="#7c7c7c" opacity="1.00" d=" M 89.80 43.47 C 89.93 44.68 90.08 45.90 90.24 47.11 C 91.00 47.23 92.53 47.46 93.30 47.58 C 91.39 48.15 89.42 48.45 87.45 48.72 C 87.44 48.32 87.42 47.52 87.42 47.12 C 88.74 46.25 89.53 45.04 89.80 43.47 Z" />
<path fill="#7c7c7c" opacity="1.00" d=" M 68.74 44.37 C 69.08 45.99 69.44 47.61 69.81 49.23 C 71.14 48.35 72.45 47.46 73.73 46.52 C 75.45 46.48 77.18 46.44 78.91 46.48 C 78.16 46.52 76.66 46.61 75.91 46.65 C 75.69 48.94 75.44 51.25 74.70 53.44 C 74.70 52.79 74.72 51.51 74.72 50.86 L 72.99 52.01 C 73.16 51.14 73.49 49.41 73.66 48.54 C 71.46 49.13 69.23 49.54 66.97 49.84 C 67.64 48.04 68.25 46.22 68.74 44.37 Z" />
<path fill="#7c7c7c" opacity="1.00" d=" M 60.49 46.85 C 61.92 46.03 62.90 48.73 62.13 49.72 C 60.66 50.39 59.71 47.88 60.49 46.85 Z" />
<path fill="#7c7c7c" opacity="1.00" d=" M 79.25 75.33 C 79.90 75.30 81.20 75.24 81.85 75.21 C 81.80 75.74 81.71 76.78 81.66 77.31 C 81.08 77.31 79.91 77.33 79.33 77.34 C 79.31 76.84 79.27 75.83 79.25 75.33 Z" />
<path fill="#7c7c7c" opacity="1.00" d=" M 72.44 77.68 C 73.68 80.22 74.38 82.96 75.48 85.55 C 79.39 89.04 85.10 87.27 89.81 87.20 C 87.95 89.29 85.08 89.46 82.52 90.04 C 85.07 90.80 87.66 91.40 90.25 92.00 L 89.15 93.30 C 85.64 93.67 82.45 91.85 79.36 90.48 C 78.61 95.53 80.99 100.61 85.06 103.58 C 84.61 103.83 83.69 104.32 83.23 104.57 C 79.27 101.80 77.12 97.23 76.48 92.54 C 75.28 95.57 74.44 98.74 74.37 102.02 C 74.35 105.65 72.65 108.94 71.19 112.17 C 72.45 111.42 73.69 110.65 74.92 109.86 C 74.82 110.42 74.60 111.53 74.49 112.09 C 73.17 113.38 71.44 114.06 69.76 114.75 C 69.51 114.10 69.02 112.81 68.78 112.17 C 72.86 105.50 71.92 97.39 75.10 90.41 C 70.72 92.63 66.91 95.85 62.42 97.85 C 61.81 97.79 60.57 97.67 59.96 97.61 C 65.44 95.43 70.26 91.95 75.32 88.98 C 76.27 87.53 74.32 86.57 73.77 85.41 C 73.48 84.29 73.21 83.16 72.96 82.03 C 72.78 80.58 72.60 79.13 72.44 77.68 Z" />
<path fill="#7c7c7c" opacity="1.00" d=" M 119.03 77.39 C 119.51 78.10 120.45 79.52 120.93 80.23 C 121.92 81.85 121.93 84.38 123.98 85.07 C 129.23 87.35 134.23 90.23 139.72 91.93 C 149.66 95.41 159.12 100.24 167.59 106.52 C 171.45 109.51 175.27 112.85 177.75 117.12 C 181.25 124.25 184.52 131.97 184.11 140.06 C 182.62 149.56 186.28 159.12 184.30 168.59 C 183.75 170.80 181.47 173.28 183.43 175.42 C 185.35 178.83 190.22 179.68 191.45 183.44 C 187.44 180.90 182.16 178.08 181.35 172.97 C 182.12 168.96 184.03 165.13 183.83 160.96 C 184.04 156.88 180.82 153.87 179.66 150.18 C 177.35 143.83 174.34 137.79 171.20 131.82 C 172.35 132.62 173.53 133.46 174.35 134.63 C 178.09 140.15 180.31 146.49 182.57 152.71 C 183.22 148.45 182.43 144.17 182.41 139.90 C 182.57 131.85 180.07 123.92 176.18 116.93 C 172.13 110.63 165.63 106.52 159.50 102.45 C 149.44 95.73 137.34 93.25 126.85 87.36 C 125.93 94.84 122.52 101.62 119.40 108.37 C 118.64 109.97 117.45 111.29 116.27 112.59 C 116.26 112.20 116.23 111.42 116.22 111.03 C 119.19 103.45 123.17 96.12 124.37 87.97 C 122.16 84.68 119.26 81.65 119.03 77.39 Z" />
<path fill="#7c7c7c" opacity="1.00" d=" M 93.67 89.66 C 97.76 87.56 100.97 84.15 104.97 81.89 C 104.26 84.29 102.16 85.79 100.33 87.33 C 97.20 89.80 93.95 92.49 89.85 93.02 C 90.21 91.05 92.24 90.59 93.67 89.66 Z" />
<path fill="#7c7c7c" opacity="1.00" d=" M 77.86 136.65 C 79.34 132.27 79.45 127.61 80.49 123.14 C 81.44 123.47 82.38 123.82 83.32 124.19 C 83.53 124.61 83.96 125.44 84.18 125.85 C 83.59 125.44 82.41 124.64 81.82 124.23 C 82.18 125.85 82.52 127.47 82.94 129.08 C 82.38 128.49 81.25 127.32 80.68 126.73 C 80.26 129.89 79.69 133.02 79.10 136.15 C 79.49 136.34 80.27 136.73 80.66 136.93 L 80.67 136.93 C 79.59 138.43 79.39 140.20 79.75 141.98 C 79.19 140.97 78.63 139.96 78.06 138.96 C 76.94 142.10 75.86 145.25 74.76 148.39 C 75.31 148.51 76.41 148.75 76.97 148.87 C 77.53 150.47 78.09 152.07 78.64 153.67 C 80.58 153.77 82.51 153.87 84.45 153.98 C 84.38 153.47 84.25 152.46 84.18 151.95 C 84.56 152.38 85.33 153.22 85.72 153.64 C 85.85 152.36 86.00 151.09 86.16 149.82 C 88.20 145.47 86.06 140.43 88.29 136.16 C 87.89 142.19 88.28 148.24 87.97 154.28 L 86.73 153.23 C 86.34 153.69 85.55 154.59 85.15 155.05 C 78.52 153.04 72.50 157.30 65.95 157.40 C 63.44 157.61 60.98 156.99 58.55 156.50 C 61.84 156.49 65.13 156.44 68.42 156.36 C 67.28 155.14 66.13 153.93 65.07 152.66 C 64.17 150.93 62.67 151.50 62.17 153.13 C 56.37 152.60 50.43 153.00 44.75 151.64 L 43.86 149.47 C 50.31 149.64 56.73 150.24 63.16 150.54 C 60.69 147.45 58.66 143.33 54.28 142.80 C 54.44 142.05 54.61 141.30 54.77 140.56 C 56.50 140.75 58.45 140.92 59.70 142.28 C 63.21 145.97 64.97 150.94 68.42 154.67 C 69.95 155.01 72.26 154.69 72.48 152.78 C 74.22 147.39 76.15 142.05 77.86 136.65 M 74.06 151.34 C 73.37 152.22 72.64 153.74 73.42 154.75 C 76.21 156.16 76.30 151.52 74.06 151.34 Z" />
<path fill="#7c7c7c" opacity="1.00" d=" M 42.39 128.82 C 44.24 132.62 45.57 136.65 47.20 140.55 C 48.96 141.02 50.75 141.32 52.53 141.69 C 48.50 141.66 44.47 141.67 40.43 141.65 C 40.53 142.17 40.72 143.23 40.81 143.76 C 40.66 143.51 40.37 143.01 40.22 142.76 C 40.28 142.27 40.42 141.29 40.49 140.81 C 41.94 140.69 43.39 140.57 44.85 140.46 C 43.56 136.69 42.29 132.85 42.39 128.82 Z" />
<path fill="#7c7c7c" opacity="1.00" d=" M 159.77 140.18 C 157.76 145.78 154.57 151.23 150.13 155.24 C 151.22 149.21 156.64 145.20 159.77 140.18 Z" />
<path fill="#7c7c7c" opacity="1.00" d=" M 145.59 164.82 C 145.72 162.75 145.89 160.09 148.02 159.06 C 149.18 158.95 150.57 159.09 151.16 160.26 C 148.59 160.78 147.15 162.96 145.59 164.82 Z" />
<path fill="#7c7c7c" opacity="1.00" d=" M 60.93 161.47 C 67.25 162.27 73.63 162.97 79.91 161.34 C 79.79 162.48 79.84 164.34 78.11 164.02 C 74.05 164.46 69.95 164.29 65.92 163.71 C 64.12 163.46 61.81 163.37 60.93 161.47 Z" />
<path fill="#7c7c7c" opacity="1.00" d=" M 50.41 162.26 C 50.75 162.34 51.44 162.50 51.78 162.58 C 50.87 166.71 56.21 167.34 58.81 168.99 C 57.84 170.00 56.85 171.00 55.87 172.00 C 56.03 172.35 56.35 173.06 56.51 173.41 C 56.65 174.35 56.77 175.29 56.88 176.24 C 54.59 176.31 52.30 176.40 50.01 176.41 C 51.50 176.84 52.98 177.28 54.46 177.76 C 54.11 178.06 53.41 178.67 53.05 178.98 C 51.58 178.33 50.11 177.67 48.62 177.06 C 48.62 176.71 48.63 176.01 48.64 175.66 C 50.99 175.57 53.35 175.51 55.71 175.48 C 54.92 173.96 54.15 172.43 53.39 170.89 C 50.13 170.95 46.81 170.95 43.70 169.87 C 46.77 168.88 50.00 168.83 53.18 169.24 C 52.24 168.35 51.24 167.52 50.33 166.61 C 50.45 165.16 50.47 163.71 50.41 162.26 Z" />
<path fill="#7c7c7c" opacity="1.00" d=" M 157.50 168.54 C 161.61 166.37 166.24 165.32 170.78 164.39 C 166.99 166.52 163.05 168.35 159.04 170.00 C 154.80 173.98 153.06 179.83 149.47 184.34 C 150.35 184.46 152.12 184.71 153.01 184.83 C 150.92 186.01 148.60 186.58 146.23 186.77 C 146.52 184.08 148.82 182.35 150.05 180.10 C 152.33 176.13 154.44 171.99 157.50 168.54 Z" />
<path fill="#7c7c7c" opacity="1.00" d=" M 64.32 169.39 C 68.42 169.17 72.37 170.37 76.43 170.67 C 76.51 171.25 76.68 172.42 76.77 173.00 C 75.58 172.59 74.40 172.18 73.23 171.76 C 70.18 171.81 67.18 171.32 64.32 170.28 C 64.32 170.05 64.32 169.61 64.32 169.39 Z" />
<path fill="#7c7c7c" opacity="1.00" d=" M 162.63 186.88 C 167.05 185.83 171.42 184.17 176.05 184.55 C 173.20 185.62 170.34 186.67 167.55 187.87 C 168.79 188.49 170.05 189.10 171.28 189.75 C 168.25 189.75 165.22 189.46 162.28 188.72 C 162.37 188.26 162.54 187.34 162.63 186.88 Z" />
<path fill="#7c7c7c" opacity="1.00" d=" M 159.43 191.21 C 162.08 191.02 164.43 192.29 166.71 193.45 C 169.62 195.10 173.09 194.21 176.20 195.01 C 179.13 196.11 181.50 198.22 183.99 200.05 C 184.92 199.98 186.78 199.83 187.71 199.76 C 187.80 200.03 187.98 200.57 188.07 200.84 C 186.12 200.87 184.17 200.88 182.22 200.92 C 179.37 199.03 176.64 196.29 172.94 196.63 C 170.19 196.80 167.70 195.67 165.71 193.84 C 162.37 193.47 159.03 193.05 155.73 192.38 C 156.96 191.98 158.19 191.59 159.43 191.21 Z" />
<path fill="#7c7c7c" opacity="1.00" d=" M 44.13 220.00 C 44.63 218.92 45.14 217.85 45.66 216.78 L 45.22 218.74 C 51.24 218.62 57.27 218.75 63.29 218.59 C 63.24 218.95 63.15 219.65 63.11 220.00 L 44.13 220.00 Z" />
<path fill="#7c7c7c" opacity="1.00" d=" M 25.50 218.53 C 31.33 218.73 37.17 218.80 43.00 218.50 C 42.82 218.88 42.46 219.63 42.28 220.00 L 26.81 220.00 C 26.48 219.63 25.83 218.90 25.50 218.53 Z" />
</g>
</svg>
