<?xml version="1.0" encoding="UTF-8" ?>
<!DOCTYPE svg PUBLIC "-//W3C//DTD SVG 1.1//EN" "http://www.w3.org/Graphics/SVG/1.1/DTD/svg11.dtd">
<svg width="210pt" height="220pt" viewBox="0 0 210 220" version="1.1" xmlns="http://www.w3.org/2000/svg">
<g id="#fefefeff">
<path fill="#fefefe" opacity="1.00" d=" M 90.74 25.23 C 92.03 22.43 94.77 22.31 97.45 22.22 C 96.70 26.76 95.36 31.80 97.32 36.20 C 97.33 38.67 97.30 41.14 97.29 43.61 C 97.14 43.34 96.83 42.79 96.67 42.52 C 97.04 38.61 94.81 35.03 95.48 31.12 C 95.81 28.20 94.90 25.38 94.03 22.64 C 92.70 24.92 92.04 27.54 90.52 29.71 C 90.55 34.62 90.32 39.52 90.48 44.43 C 91.65 44.83 92.81 45.23 93.98 45.64 C 95.59 47.50 97.29 49.27 99.04 50.99 C 99.16 50.63 99.38 49.91 99.49 49.55 C 101.15 47.52 103.45 46.26 105.75 45.10 C 105.54 44.24 105.13 42.52 104.93 41.65 C 105.77 43.76 107.07 45.34 109.60 44.79 C 109.69 41.06 110.12 37.19 108.87 33.60 C 108.87 33.08 108.89 32.03 108.89 31.51 C 109.02 29.43 109.16 27.33 109.76 25.32 C 111.36 25.94 112.95 26.61 114.63 26.98 L 114.63 27.38 C 114.63 29.81 114.49 32.23 114.10 34.62 C 113.62 32.33 113.55 29.99 113.49 27.67 C 112.74 27.25 111.24 26.41 110.49 25.99 C 110.68 32.83 109.81 39.68 110.46 46.52 C 111.11 45.89 112.39 44.64 113.04 44.01 C 113.98 43.49 114.92 42.97 115.85 42.45 C 116.70 43.57 117.72 44.52 118.94 45.21 C 119.33 44.48 120.10 43.03 120.49 42.30 C 121.79 42.72 123.09 43.24 124.45 43.50 C 129.23 43.03 134.08 43.16 138.84 42.51 C 139.11 42.07 139.65 41.19 139.92 40.75 C 140.41 40.45 141.37 39.84 141.86 39.53 C 142.69 38.29 143.22 36.89 143.87 35.55 C 144.90 35.58 145.93 35.61 146.96 35.64 C 147.27 36.31 147.59 36.98 147.92 37.64 C 146.90 36.94 145.85 36.28 144.78 35.68 C 144.64 36.92 144.37 39.40 144.23 40.63 C 145.38 40.97 146.53 41.29 147.68 41.62 C 147.41 42.46 146.87 44.13 146.60 44.97 C 146.96 49.33 147.36 53.70 148.09 58.02 C 148.26 59.17 148.43 60.32 148.58 61.47 C 148.56 70.76 150.54 80.05 148.49 89.28 C 150.35 89.59 152.21 89.91 154.08 90.21 C 154.36 90.68 154.92 91.62 155.20 92.09 C 155.44 91.41 155.94 90.04 156.18 89.36 C 156.78 89.34 157.97 89.29 158.57 89.27 C 160.43 95.40 153.21 98.83 153.06 104.76 C 152.65 104.77 151.85 104.79 151.45 104.80 L 151.44 103.36 C 150.92 103.39 149.88 103.44 149.36 103.47 C 149.64 103.79 150.20 104.43 150.48 104.75 C 150.51 105.89 150.55 107.04 150.59 108.19 C 151.29 109.06 151.99 109.94 152.69 110.81 L 152.76 110.89 C 152.37 111.11 151.60 111.54 151.21 111.76 C 149.81 114.64 150.47 117.97 150.28 121.06 C 150.46 131.17 149.75 141.32 150.81 151.39 C 152.65 158.83 152.58 166.50 153.65 174.05 C 153.68 174.39 153.75 175.07 153.78 175.41 L 154.28 176.23 C 154.57 176.74 155.14 177.75 155.43 178.26 C 154.45 180.40 153.43 182.53 152.26 184.58 C 150.27 187.16 148.00 189.56 146.32 192.36 C 146.06 192.91 145.55 194.01 145.29 194.56 L 144.24 194.57 C 144.35 194.96 144.58 195.72 144.69 196.11 L 143.58 196.25 C 136.40 200.94 127.34 200.89 119.08 200.53 C 112.43 199.74 105.70 200.29 99.08 199.25 C 93.77 198.47 88.34 199.10 83.05 198.06 C 78.59 197.37 74.46 195.32 69.98 194.76 C 69.72 194.73 69.21 194.66 68.95 194.63 C 62.22 190.85 54.51 189.34 47.57 185.97 C 47.42 184.72 47.26 183.47 47.10 182.22 C 47.63 181.90 48.70 181.27 49.23 180.95 C 48.29 180.47 47.36 179.99 46.42 179.51 C 47.96 173.10 49.39 166.61 49.49 159.99 C 49.43 154.88 51.47 150.09 51.84 145.03 C 52.50 139.35 52.25 133.62 52.23 127.92 C 52.17 122.42 52.47 116.90 51.81 111.43 C 51.56 112.00 51.06 113.14 50.81 113.70 C 49.74 112.11 48.13 111.07 46.56 110.03 C 46.62 108.69 48.73 109.58 49.65 109.26 C 49.86 109.86 50.29 111.06 50.50 111.66 C 51.11 109.21 49.03 104.20 52.93 104.03 L 53.89 103.97 C 53.32 101.67 53.07 98.98 50.77 97.70 C 50.78 97.43 50.81 96.89 50.82 96.63 C 51.69 91.45 51.36 86.19 51.42 80.98 C 51.38 74.28 52.89 67.68 52.75 60.98 C 52.79 57.01 52.01 53.01 52.80 49.06 C 53.23 46.64 53.27 44.17 53.03 41.72 L 51.95 42.84 C 51.79 41.81 51.48 39.75 51.32 38.73 C 54.03 40.15 56.65 41.75 59.50 42.91 C 60.03 41.66 60.51 40.39 60.95 39.10 C 61.66 40.90 62.35 42.70 63.06 44.50 C 63.79 42.21 64.41 39.89 65.14 37.61 C 65.33 39.49 65.49 41.37 65.64 43.25 C 68.91 42.81 69.13 39.47 70.00 36.96 C 69.21 36.42 68.43 35.87 67.65 35.33 C 67.25 35.66 66.45 36.33 66.05 36.67 C 66.26 36.28 66.69 35.51 66.90 35.13 C 68.10 35.22 69.29 35.30 70.49 35.39 C 70.34 37.79 70.35 40.20 70.30 42.61 L 72.83 42.60 C 72.61 41.62 72.17 39.65 71.95 38.67 C 72.71 40.10 73.44 41.54 74.22 42.96 C 75.28 39.46 75.55 35.81 76.35 32.26 C 76.58 37.05 74.56 41.75 75.73 46.53 C 76.45 45.13 77.14 43.71 77.80 42.27 C 78.11 42.36 78.75 42.55 79.07 42.64 C 79.75 41.67 80.45 40.71 81.15 39.75 C 81.22 40.61 81.35 42.32 81.42 43.17 C 82.82 43.77 84.21 44.40 85.61 45.00 C 85.64 43.33 85.65 41.65 85.62 39.98 C 86.23 41.48 86.79 43.07 88.16 44.10 C 90.33 39.55 88.55 34.50 89.88 29.75 C 90.39 28.80 91.41 26.92 91.92 25.98 C 89.02 25.70 85.84 28.51 86.70 31.55 C 86.56 33.62 86.33 35.69 86.17 37.75 C 85.99 37.72 85.63 37.65 85.46 37.61 C 85.80 35.50 86.14 33.38 86.58 31.29 C 86.01 30.19 85.32 29.15 84.57 28.17 C 84.71 28.07 84.99 27.87 85.13 27.77 C 86.93 26.74 88.51 25.10 90.74 25.23 M 138.42 57.18 C 140.48 62.94 139.70 69.13 139.28 75.09 C 138.84 76.72 140.34 77.70 141.20 78.80 C 141.06 72.68 142.02 66.55 141.41 60.42 C 141.25 58.78 139.56 58.07 138.42 57.18 M 55.38 63.28 C 55.42 70.24 54.82 77.24 55.75 84.16 C 56.23 84.32 57.21 84.63 57.69 84.79 C 56.69 77.75 57.20 70.64 57.18 63.56 C 56.73 63.49 55.83 63.35 55.38 63.28 M 85.20 71.36 C 86.10 76.33 85.36 81.32 84.18 86.17 C 80.36 86.98 76.18 85.90 72.59 87.66 C 70.76 87.52 68.93 87.58 67.11 87.65 C 64.99 88.75 62.65 89.45 60.77 90.98 L 59.61 90.75 L 60.65 92.25 C 64.65 92.64 68.68 92.65 72.70 92.75 C 72.72 92.96 72.77 93.36 72.79 93.56 C 68.44 93.40 64.08 93.49 59.72 93.43 C 59.59 94.00 59.33 95.14 59.20 95.71 C 63.96 95.75 68.73 95.84 73.50 95.63 L 74.08 94.66 C 75.65 94.60 77.23 94.55 78.80 94.50 C 78.74 95.52 78.61 97.55 78.55 98.57 C 77.25 98.62 75.96 98.68 74.67 98.73 C 74.63 99.20 74.54 100.15 74.50 100.63 C 77.36 100.64 80.21 100.37 83.07 100.19 C 82.61 102.77 80.91 104.09 78.41 103.80 C 78.41 103.99 78.43 104.36 78.44 104.55 C 80.48 104.01 82.51 103.43 84.60 103.10 C 84.46 102.58 84.19 101.55 84.06 101.03 C 84.60 101.19 85.69 101.51 86.24 101.67 L 86.66 100.69 L 89.47 100.39 C 88.10 102.47 85.51 104.02 85.38 106.73 C 89.38 105.16 92.08 101.51 93.04 97.40 C 91.40 97.56 89.92 97.17 88.61 96.24 C 88.39 96.75 87.94 97.77 87.72 98.28 C 86.32 98.33 84.92 98.39 83.52 98.45 C 83.05 97.15 82.57 95.86 82.10 94.56 C 86.41 94.27 91.09 95.49 95.07 93.31 C 95.40 91.51 95.82 89.74 96.31 87.98 C 95.70 86.77 95.11 85.54 94.52 84.31 C 94.02 84.36 93.04 84.45 92.55 84.50 C 93.14 86.74 93.53 89.03 93.59 91.36 C 92.91 91.40 91.56 91.50 90.88 91.55 C 91.59 90.63 92.31 89.72 93.03 88.81 C 90.60 86.58 87.10 88.47 84.41 86.90 L 86.02 86.61 C 87.74 81.69 87.92 76.43 87.31 71.29 C 86.78 71.31 85.73 71.34 85.20 71.36 M 113.62 75.31 C 113.18 79.66 113.13 84.05 113.50 88.40 L 112.12 88.73 L 110.75 88.19 C 109.89 86.64 109.02 85.09 108.17 83.54 C 106.83 85.06 104.01 86.07 104.50 88.56 C 104.34 88.96 104.03 89.76 103.88 90.16 C 103.21 90.24 101.86 90.40 101.19 90.48 C 101.34 88.26 101.38 86.03 101.35 83.80 C 100.84 83.69 99.82 83.47 99.32 83.36 C 99.44 84.19 99.67 85.87 99.79 86.71 L 98.78 86.58 C 98.20 89.33 97.30 92.00 96.31 94.64 C 97.18 94.50 98.90 94.22 99.77 94.08 C 99.54 96.48 99.98 98.84 100.36 101.19 L 99.40 101.19 C 99.01 102.85 98.54 104.52 98.50 106.24 C 100.79 106.45 103.10 106.46 105.39 106.23 C 105.21 104.17 104.41 101.86 102.35 101.00 C 102.19 100.74 101.87 100.21 101.70 99.95 C 101.64 99.35 101.51 98.15 101.45 97.55 L 100.42 97.50 C 100.82 96.30 101.63 93.90 102.03 92.70 C 102.26 93.52 102.71 95.16 102.94 95.98 C 103.30 96.90 103.89 97.64 104.71 98.18 C 104.52 95.05 103.13 92.02 100.17 90.59 C 101.37 90.88 102.58 91.16 103.79 91.43 L 102.93 92.43 C 105.01 93.78 109.50 92.11 109.53 95.49 C 113.59 95.35 117.65 95.31 121.71 95.44 C 121.45 96.44 120.92 98.44 120.66 99.44 C 120.06 99.42 118.86 99.39 118.26 99.37 C 115.63 98.11 112.93 95.01 110.07 97.64 C 111.95 99.80 113.68 102.29 116.33 103.59 C 118.42 104.68 120.84 104.28 123.10 104.36 C 123.47 103.92 124.20 103.03 124.56 102.59 C 125.61 101.92 126.56 101.13 127.18 100.03 C 128.29 99.67 129.40 99.31 130.51 98.95 C 130.31 98.60 129.91 97.88 129.70 97.52 C 128.98 97.51 127.53 97.50 126.81 97.49 L 126.55 95.79 C 132.80 95.20 139.47 96.95 145.41 94.54 C 145.92 94.54 146.94 94.54 147.45 94.55 L 147.44 96.13 C 146.40 96.66 145.38 97.22 144.36 97.77 C 144.82 98.58 145.29 99.39 145.75 100.21 C 146.34 100.72 146.94 101.24 147.53 101.76 C 147.19 100.36 146.82 98.98 146.48 97.59 C 147.25 97.48 148.79 97.26 149.57 97.15 C 149.53 96.35 149.47 94.76 149.44 93.97 C 149.96 94.07 150.99 94.28 151.51 94.39 C 151.50 93.47 151.50 92.54 151.49 91.62 C 149.22 91.80 146.95 92.04 144.69 92.26 C 137.91 91.08 130.91 91.47 124.11 90.20 C 128.23 89.16 132.48 88.43 136.75 88.51 C 136.64 88.13 136.42 87.38 136.31 87.00 C 135.75 86.69 134.64 86.06 134.09 85.75 C 128.90 84.97 123.97 86.76 119.06 88.12 L 117.96 88.36 C 117.39 88.26 116.26 88.08 115.70 87.99 C 115.06 84.18 115.43 80.30 115.29 76.47 C 114.73 76.08 114.18 75.70 113.62 75.31 M 62.96 98.35 C 63.74 98.45 65.30 98.66 66.07 98.77 C 66.52 99.33 67.41 100.46 67.86 101.03 C 68.50 100.25 69.14 99.48 69.78 98.71 C 67.67 98.10 64.13 94.76 62.96 98.35 M 67.25 101.23 C 67.81 101.76 67.81 101.76 67.25 101.23 M 108.40 105.62 C 109.20 107.39 111.21 111.18 107.69 110.70 C 107.66 109.87 107.60 108.20 107.58 107.37 C 107.14 107.45 106.28 107.60 105.85 107.68 C 105.68 109.42 106.01 111.30 105.17 112.90 C 103.69 115.04 100.91 114.42 98.70 114.64 C 97.86 113.82 97.02 113.00 96.19 112.17 C 96.30 111.05 96.41 109.93 96.52 108.81 C 95.16 108.46 93.80 108.10 92.45 107.69 C 92.36 107.29 92.17 106.50 92.07 106.11 C 91.15 108.09 90.37 110.15 90.31 112.37 C 94.19 114.10 97.80 116.83 102.11 117.33 C 104.41 116.54 106.43 114.97 107.18 112.58 C 108.55 112.47 109.93 112.39 111.31 112.30 C 111.52 109.96 111.14 107.65 110.41 105.43 C 109.90 105.47 108.90 105.57 108.40 105.62 M 56.96 105.77 C 56.46 107.60 55.28 109.46 55.63 111.41 C 57.08 113.88 59.19 115.92 61.73 117.25 C 65.30 118.94 65.96 123.25 66.69 126.70 C 66.93 126.70 67.41 126.70 67.65 126.70 C 68.13 122.08 65.84 117.69 61.98 115.20 C 59.78 113.96 57.66 112.50 56.34 110.29 C 57.35 108.89 57.79 107.33 56.96 105.77 M 114.04 109.65 C 113.93 114.58 119.45 115.81 123.24 116.56 C 126.01 116.85 127.86 119.02 130.10 120.40 C 130.06 116.02 125.53 114.68 121.98 114.16 C 118.75 113.88 116.42 111.59 114.04 109.65 M 85.61 111.85 C 85.65 113.14 85.73 114.45 85.68 115.75 C 83.69 116.99 81.21 116.54 79.00 117.03 C 75.63 117.40 73.14 120.73 73.45 124.05 C 74.99 122.35 76.23 120.35 78.06 118.95 C 81.47 118.32 86.37 119.22 87.83 115.04 C 87.17 113.92 86.37 112.89 85.61 111.85 M 135.60 117.44 C 135.24 121.45 134.30 125.38 134.17 129.41 C 137.13 126.90 135.80 122.18 136.47 118.74 C 137.92 117.54 139.39 116.35 140.84 115.15 C 139.08 115.88 137.33 116.65 135.60 117.44 M 104.79 118.78 C 101.40 120.37 97.70 120.61 94.06 121.12 C 91.93 121.43 89.85 121.97 87.85 122.79 C 87.29 124.16 86.71 125.53 86.15 126.91 C 84.16 126.67 82.13 126.34 82.25 123.85 C 82.68 123.46 83.53 122.68 83.96 122.29 C 82.50 122.39 81.20 123.03 80.56 124.41 C 80.11 126.91 81.32 129.22 82.17 131.48 C 82.04 133.27 83.12 133.99 84.80 133.97 C 84.24 132.03 83.59 130.12 82.92 128.22 C 83.99 128.37 86.14 128.67 87.21 128.82 L 85.94 127.60 L 86.96 127.92 C 87.96 125.26 89.96 123.26 92.79 122.66 C 95.14 122.51 97.49 122.34 99.84 122.18 C 104.33 120.18 109.41 119.69 114.24 120.55 C 115.09 121.46 115.65 122.59 116.25 123.67 C 116.11 125.34 116.51 126.96 117.37 128.40 C 119.31 129.09 121.38 129.83 123.33 128.69 C 123.34 129.47 123.37 131.02 123.38 131.80 C 122.68 131.28 121.27 130.24 120.57 129.71 C 121.11 132.53 121.18 135.39 120.41 138.18 C 121.73 139.05 123.04 139.93 124.35 140.82 C 123.47 136.10 126.01 131.64 125.08 126.95 C 122.72 126.02 120.17 126.95 117.72 126.53 C 117.92 123.62 117.37 120.83 115.14 118.80 C 111.71 118.18 108.22 118.10 104.79 118.78 M 55.92 122.88 C 58.02 128.30 63.56 131.61 64.88 137.44 C 65.34 137.46 66.26 137.48 66.72 137.50 C 65.17 132.71 61.78 128.96 58.74 125.08 C 58.06 124.05 56.99 123.42 55.92 122.88 M 94.68 124.92 C 97.44 127.02 100.70 125.73 103.73 125.20 C 102.87 124.59 102.01 123.98 101.15 123.37 C 98.97 123.79 96.80 124.27 94.68 124.92 M 76.14 125.57 C 76.17 129.77 77.53 134.37 81.18 136.82 C 79.90 132.97 79.09 128.53 76.14 125.57 M 138.23 140.16 C 141.42 137.24 143.41 133.16 144.63 129.06 C 142.04 132.44 139.05 135.85 138.23 140.16 M 76.55 135.72 C 78.22 135.53 77.44 132.82 76.13 132.62 C 74.54 132.89 75.26 135.49 76.55 135.72 M 118.37 134.52 C 117.50 135.22 117.55 137.70 118.98 137.54 C 119.84 136.84 119.79 134.36 118.37 134.52 M 112.13 158.19 C 109.04 159.62 105.65 161.38 102.26 159.72 C 101.80 158.02 99.45 158.89 98.16 158.44 C 97.11 158.34 96.07 158.24 95.04 158.12 C 90.50 156.57 87.40 152.63 83.06 150.69 C 82.56 150.68 81.55 150.66 81.05 150.65 C 81.36 150.90 81.97 151.40 82.28 151.65 C 83.64 156.22 88.83 157.53 92.57 159.54 C 95.38 161.73 98.52 163.42 101.91 164.54 C 103.75 166.64 107.19 164.60 109.43 163.86 C 112.34 161.63 115.36 159.52 118.57 157.73 C 121.21 156.52 121.91 153.45 123.60 151.33 C 123.55 150.82 123.46 149.80 123.41 149.28 C 120.20 152.90 116.53 156.13 112.13 158.19 M 60.54 160.05 C 61.01 162.67 59.17 164.61 57.66 166.49 C 57.62 163.81 57.71 161.13 57.61 158.46 C 56.49 159.72 56.47 161.42 56.22 162.99 C 55.43 170.07 51.35 176.45 51.45 183.67 C 52.01 183.72 53.14 183.82 53.70 183.86 C 52.92 177.93 55.74 172.33 57.31 166.75 L 58.63 165.80 C 58.91 172.19 55.38 177.97 55.50 184.27 C 58.38 178.91 59.79 172.92 60.46 166.91 C 60.45 162.85 66.23 163.55 67.17 159.96 C 65.46 160.47 63.79 161.10 62.12 161.74 C 62.84 160.42 63.54 159.10 64.21 157.77 C 62.96 158.48 61.74 159.25 60.54 160.05 M 142.51 164.39 C 142.90 167.95 141.94 173.51 146.45 174.73 C 145.06 171.47 144.43 167.98 144.60 164.44 C 144.08 164.43 143.03 164.41 142.51 164.39 Z" />
<path fill="#fefefe" opacity="1.00" d=" M 99.21 23.43 C 99.72 23.25 100.74 22.89 101.25 22.71 C 101.85 28.21 101.38 33.74 101.22 39.25 C 101.06 40.41 101.62 41.41 102.24 42.33 C 101.63 42.42 101.02 42.51 100.42 42.60 C 100.77 38.06 100.61 33.48 100.09 28.96 C 99.76 27.12 99.55 25.27 99.21 23.43 Z" />
<path fill="#fefefe" opacity="1.00" d=" M 42.69 88.84 C 43.13 88.82 44.02 88.78 44.46 88.77 C 45.33 89.60 45.79 90.62 45.85 91.83 C 44.18 91.99 42.13 90.74 42.69 88.84 Z" />
<path fill="#fefefe" opacity="1.00" d=" M 122.55 96.24 C 123.48 94.85 124.29 94.92 124.97 96.44 C 124.07 97.86 123.27 97.80 122.55 96.24 Z" />
<path fill="#fefefe" opacity="1.00" d=" M 46.05 94.75 C 49.43 94.95 49.03 98.79 51.33 100.35 C 51.32 100.77 51.29 101.62 51.27 102.05 C 50.85 102.49 50.00 103.37 49.57 103.81 C 48.67 105.37 48.96 108.23 46.32 108.03 C 47.96 103.64 47.63 99.10 46.05 94.75 Z" />
<path fill="#fefefe" opacity="1.00" d=" M 94.28 111.94 C 92.94 114.24 90.32 108.95 92.90 108.50 C 93.94 109.34 94.40 110.49 94.28 111.94 Z" />
<path fill="#fefefe" opacity="1.00" d=" M 134.18 202.36 C 136.84 201.57 139.49 200.75 142.15 199.97 C 142.42 200.57 142.97 201.76 143.24 202.35 C 140.22 202.45 137.20 202.48 134.18 202.36 Z" />
</g>
<g id="#050505fd">
<path fill="#050505" opacity="1.00" d=" M 97.45 22.22 C 97.89 22.52 98.77 23.13 99.21 23.43 C 99.55 25.27 99.76 27.12 100.09 28.96 C 100.61 33.48 100.77 38.06 100.42 42.60 C 101.02 42.51 101.63 42.42 102.24 42.33 C 101.62 41.41 101.06 40.41 101.22 39.25 C 101.38 33.74 101.85 28.21 101.25 22.71 L 102.70 22.15 C 103.40 27.96 104.45 33.75 104.27 39.62 L 106.30 39.57 C 106.33 35.14 106.23 30.70 106.71 26.28 C 107.56 27.97 108.23 29.74 108.89 31.51 C 108.89 32.03 108.87 33.08 108.87 33.60 C 110.12 37.19 109.69 41.06 109.60 44.79 C 107.07 45.34 105.77 43.76 104.93 41.65 C 105.13 42.52 105.54 44.24 105.75 45.10 C 103.45 46.26 101.15 47.52 99.49 49.55 C 99.52 48.29 99.53 47.04 99.53 45.79 C 99.00 45.41 97.92 44.66 97.39 44.28 L 97.29 43.61 C 97.30 41.14 97.33 38.67 97.32 36.20 C 95.36 31.80 96.70 26.76 97.45 22.22 Z" />
<path fill="#050505" opacity="1.00" d=" M 90.52 29.71 C 92.04 27.54 92.70 24.92 94.03 22.64 C 94.90 25.38 95.81 28.20 95.48 31.12 C 94.81 35.03 97.04 38.61 96.67 42.52 L 96.72 44.71 C 94.64 44.62 92.56 44.52 90.48 44.43 C 90.32 39.52 90.55 34.62 90.52 29.71 Z" />
<path fill="#050505" opacity="1.00" d=" M 86.70 31.55 C 85.84 28.51 89.02 25.70 91.92 25.98 C 91.41 26.92 90.39 28.80 89.88 29.75 C 88.55 34.50 90.33 39.55 88.16 44.10 C 86.79 43.07 86.23 41.48 85.62 39.98 C 85.65 41.65 85.64 43.33 85.61 45.00 C 84.21 44.40 82.82 43.77 81.42 43.17 C 81.35 42.32 81.22 40.61 81.15 39.75 C 80.45 40.71 79.75 41.67 79.07 42.64 C 78.75 42.55 78.11 42.36 77.80 42.27 C 77.14 43.71 76.45 45.13 75.73 46.53 C 74.56 41.75 76.58 37.05 76.35 32.26 C 75.55 35.81 75.28 39.46 74.22 42.96 C 73.44 41.54 72.71 40.10 71.95 38.67 C 72.17 39.65 72.61 41.62 72.83 42.60 L 70.30 42.61 C 70.35 40.20 70.34 37.79 70.49 35.39 C 69.29 35.30 68.10 35.22 66.90 35.13 C 66.69 35.51 66.26 36.28 66.05 36.67 C 66.45 36.33 67.25 35.66 67.65 35.33 C 68.43 35.87 69.21 36.42 70.00 36.96 C 69.13 39.47 68.91 42.81 65.64 43.25 C 65.49 41.37 65.33 39.49 65.14 37.61 C 64.41 39.89 63.79 42.21 63.06 44.50 C 62.35 42.70 61.66 40.90 60.95 39.10 C 60.51 40.39 60.03 41.66 59.50 42.91 C 56.65 41.75 54.03 40.15 51.32 38.73 C 51.48 39.75 51.79 41.81 51.95 42.84 L 50.27 43.15 C 50.31 41.08 50.37 39.02 50.48 36.96 C 53.49 35.85 56.52 34.77 59.63 33.98 C 63.90 32.90 67.76 30.65 72.00 29.48 C 74.84 28.25 77.91 29.35 80.87 29.17 C 82.25 28.59 83.67 28.11 85.13 27.77 C 84.99 27.87 84.71 28.07 84.57 28.17 C 85.32 29.15 86.01 30.19 86.58 31.29 C 86.14 33.38 85.80 35.50 85.46 37.61 C 85.63 37.65 85.99 37.72 86.17 37.75 C 86.33 35.69 86.56 33.62 86.70 31.55 M 77.46 30.13 L 77.17 30.70 C 77.42 30.94 77.92 31.43 78.17 31.67 C 78.66 31.37 79.65 30.77 80.14 30.46 C 79.36 29.77 78.47 29.66 77.46 30.13 Z" />
<path fill="#050505" opacity="1.00" d=" M 110.46 46.52 C 109.81 39.68 110.68 32.83 110.49 25.99 C 111.24 26.41 112.74 27.25 113.49 27.67 C 113.55 29.99 113.62 32.33 114.10 34.62 C 114.49 32.23 114.63 29.81 114.63 27.38 C 116.49 27.85 118.34 28.32 120.21 28.77 C 120.23 28.93 120.28 29.25 120.31 29.41 C 120.43 30.18 120.67 31.73 120.79 32.50 C 120.18 32.41 118.95 32.24 118.33 32.16 C 118.73 33.79 118.76 35.63 119.86 37.00 C 122.25 35.48 123.55 32.92 124.65 30.41 C 127.49 30.07 130.25 29.29 133.04 28.66 L 132.44 29.28 C 132.05 29.54 131.27 30.06 130.88 30.32 C 128.81 30.54 126.74 30.79 124.67 31.03 C 124.74 32.83 124.85 34.63 124.98 36.43 C 126.08 34.39 126.84 31.87 129.20 30.91 C 128.73 34.29 128.02 37.62 127.36 40.96 C 126.38 41.80 125.41 42.65 124.45 43.50 C 123.09 43.24 121.79 42.72 120.49 42.30 C 120.10 43.03 119.33 44.48 118.94 45.21 C 117.72 44.52 116.70 43.57 115.85 42.45 C 114.92 42.97 113.98 43.49 113.04 44.01 C 112.39 44.64 111.11 45.89 110.46 46.52 Z" />
<path fill="#050505" opacity="1.00" d=" M 135.73 30.52 C 137.52 30.46 139.60 29.65 141.20 30.83 L 141.75 31.27 C 142.65 31.81 143.59 32.26 144.59 32.63 L 144.53 33.02 C 145.49 33.75 146.30 34.62 146.96 35.64 C 145.93 35.61 144.90 35.58 143.87 35.55 C 143.22 36.89 142.69 38.29 141.86 39.53 C 141.50 39.53 140.78 39.52 140.43 39.52 C 140.43 38.37 140.44 36.08 140.45 34.93 C 138.89 36.65 137.48 38.51 136.15 40.42 C 136.83 40.71 138.20 41.31 138.89 41.61 C 135.33 41.38 131.75 41.48 128.21 41.90 C 129.69 38.03 130.56 33.68 132.93 30.31 C 133.53 31.50 133.85 32.81 133.88 34.24 C 134.79 33.57 135.69 32.87 136.63 32.23 C 136.66 33.98 136.67 35.73 136.67 37.47 C 137.94 36.01 139.04 34.40 139.94 32.68 C 139.97 30.47 137.16 31.01 135.73 30.52 M 141.52 33.11 C 140.13 33.96 141.21 36.94 142.78 35.45 C 143.90 34.63 142.88 32.41 141.52 33.11 M 132.11 37.30 C 130.63 37.78 130.14 40.88 131.99 41.19 C 133.74 40.87 133.60 37.83 132.11 37.30 M 135.20 37.37 C 133.95 37.85 133.17 39.87 134.21 40.90 C 136.30 41.98 137.16 37.76 135.20 37.37 Z" />
<path fill="#050505" opacity="1.00" d=" M 144.78 35.68 C 145.85 36.28 146.90 36.94 147.92 37.64 C 148.83 40.30 148.30 43.19 148.36 45.95 C 148.12 51.69 149.09 57.38 149.86 63.05 C 150.51 67.38 150.04 71.78 150.71 76.11 C 151.34 80.39 148.79 85.16 151.82 88.90 C 151.50 88.90 150.88 88.90 150.57 88.90 C 149.18 79.82 151.66 70.33 148.58 61.47 C 148.43 60.32 148.26 59.17 148.09 58.02 C 147.36 53.70 146.96 49.33 146.60 44.97 C 146.87 44.13 147.41 42.46 147.68 41.62 C 146.53 41.29 145.38 40.97 144.23 40.63 C 144.37 39.40 144.64 36.92 144.78 35.68 Z" />
<path fill="#050505" opacity="1.00" d=" M 50.26 86.95 C 50.33 82.48 50.00 77.99 50.59 73.54 C 50.50 78.01 50.84 82.51 50.26 86.95 Z" />
<path fill="#050505" opacity="1.00" d=" M 99.32 83.36 C 99.82 83.47 100.84 83.69 101.35 83.80 C 101.38 86.03 101.34 88.26 101.19 90.48 C 101.86 90.40 103.21 90.24 103.88 90.16 C 104.03 89.76 104.34 88.96 104.50 88.56 C 104.79 88.10 105.39 87.18 105.68 86.72 C 105.20 88.22 104.69 89.72 104.29 91.25 C 105.12 91.76 106.77 92.80 107.59 93.31 C 107.71 91.22 107.81 89.13 107.90 87.05 C 108.61 87.33 110.04 87.90 110.75 88.19 L 112.12 88.73 C 114.07 88.92 116.04 88.73 117.96 88.36 L 119.06 88.12 C 123.97 86.76 128.90 84.97 134.09 85.75 C 134.64 86.06 135.75 86.69 136.31 87.00 C 136.42 87.38 136.64 88.13 136.75 88.51 C 132.48 88.43 128.23 89.16 124.11 90.20 C 119.76 91.77 115.17 91.58 110.64 91.68 C 110.52 92.01 110.28 92.68 110.16 93.02 C 114.02 95.62 118.94 90.32 122.21 94.26 C 123.58 94.34 124.96 94.41 126.33 94.52 C 126.39 94.84 126.50 95.47 126.55 95.79 L 126.81 97.49 C 127.53 97.50 128.98 97.51 129.70 97.52 C 129.91 97.88 130.31 98.60 130.51 98.95 C 127.62 98.69 124.46 97.99 121.92 99.86 C 122.64 100.10 124.10 100.56 124.82 100.79 C 124.58 100.99 124.08 101.38 123.83 101.58 C 123.15 101.12 122.46 100.65 121.77 100.20 C 120.59 99.93 119.40 99.75 118.26 99.37 C 118.86 99.39 120.06 99.42 120.66 99.44 C 120.92 98.44 121.45 96.44 121.71 95.44 C 117.65 95.31 113.59 95.35 109.53 95.49 C 109.50 92.11 105.01 93.78 102.93 92.43 L 103.79 91.43 C 102.58 91.16 101.37 90.88 100.17 90.59 C 103.13 92.02 104.52 95.05 104.71 98.18 C 103.89 97.64 103.30 96.90 102.94 95.98 C 102.71 95.16 102.26 93.52 102.03 92.70 C 101.63 93.90 100.82 96.30 100.42 97.50 L 101.45 97.55 C 101.51 98.15 101.64 99.35 101.70 99.95 C 101.87 100.21 102.19 100.74 102.35 101.00 C 102.57 101.43 103.00 102.30 103.22 102.74 C 102.55 102.73 101.22 102.73 100.55 102.73 C 100.50 102.34 100.40 101.57 100.36 101.19 C 99.98 98.84 99.54 96.48 99.77 94.08 C 98.90 94.22 97.18 94.50 96.31 94.64 C 97.30 92.00 98.20 89.33 98.78 86.58 L 99.79 86.71 C 99.67 85.87 99.44 84.19 99.32 83.36 M 122.55 96.24 C 123.27 97.80 124.07 97.86 124.97 96.44 C 124.29 94.92 123.48 94.85 122.55 96.24 Z" />
<path fill="#050505" opacity="1.00" d=" M 92.55 84.50 C 93.04 84.45 94.02 84.36 94.52 84.31 C 95.11 85.54 95.70 86.77 96.31 87.98 C 95.82 89.74 95.40 91.51 95.07 93.31 C 91.09 95.49 86.41 94.27 82.10 94.56 C 82.57 95.86 83.05 97.15 83.52 98.45 C 84.92 98.39 86.32 98.33 87.72 98.28 C 87.37 99.08 87.02 99.89 86.66 100.69 L 86.24 101.67 C 85.69 101.51 84.60 101.19 84.06 101.03 C 84.19 101.55 84.46 102.58 84.60 103.10 C 82.51 103.43 80.48 104.01 78.44 104.55 C 78.43 104.36 78.41 103.99 78.41 103.80 C 80.91 104.09 82.61 102.77 83.07 100.19 C 80.21 100.37 77.36 100.64 74.50 100.63 C 74.54 100.15 74.63 99.20 74.67 98.73 C 75.96 98.68 77.25 98.62 78.55 98.57 C 78.61 97.55 78.74 95.52 78.80 94.50 C 77.23 94.55 75.65 94.60 74.08 94.66 C 74.54 93.90 75.00 93.15 75.46 92.39 C 78.14 92.47 80.82 92.46 83.49 92.27 C 80.98 90.45 77.90 90.81 75.01 91.20 C 70.25 90.50 65.47 92.75 60.77 90.98 C 62.65 89.45 64.99 88.75 67.11 87.65 C 68.93 87.58 70.76 87.52 72.59 87.66 C 74.92 88.15 77.24 88.74 79.58 89.25 C 80.98 88.06 82.52 87.02 84.41 86.90 C 87.10 88.47 90.60 86.58 93.03 88.81 C 92.31 89.72 91.59 90.63 90.88 91.55 C 91.56 91.50 92.91 91.40 93.59 91.36 C 93.53 89.03 93.14 86.74 92.55 84.50 Z" />
<path fill="#050505" opacity="1.00" d=" M 41.50 88.54 C 43.92 88.41 46.35 88.14 48.77 88.34 C 48.58 88.54 48.21 88.93 48.02 89.13 C 47.13 89.04 45.35 88.86 44.46 88.77 C 44.02 88.78 43.13 88.82 42.69 88.84 C 42.35 90.23 41.94 91.63 41.87 93.08 C 42.59 93.91 43.56 94.36 44.76 94.44 C 45.64 93.10 46.53 91.76 47.42 90.43 C 48.10 90.34 49.47 90.16 50.16 90.07 C 50.42 92.25 50.65 94.44 50.82 96.63 C 50.81 96.89 50.78 97.43 50.77 97.70 C 53.07 98.98 53.32 101.67 53.89 103.97 L 52.93 104.03 C 49.03 104.20 51.11 109.21 50.50 111.66 C 50.29 111.06 49.86 109.86 49.65 109.26 C 48.73 109.58 46.62 108.69 46.56 110.03 L 46.06 111.50 C 44.10 105.92 48.34 97.29 41.36 94.36 C 41.26 92.42 41.41 90.48 41.50 88.54 M 46.05 94.75 C 47.63 99.10 47.96 103.64 46.32 108.03 C 48.96 108.23 48.67 105.37 49.57 103.81 C 50.00 103.37 50.85 102.49 51.27 102.05 C 51.29 101.62 51.32 100.77 51.33 100.35 C 49.03 98.79 49.43 94.95 46.05 94.75 Z" />
<path fill="#050505" opacity="1.00" d=" M 156.35 88.40 C 159.41 87.83 161.38 91.28 160.32 93.92 C 158.70 97.05 156.00 99.59 154.83 102.96 C 154.24 105.61 154.08 108.40 152.69 110.81 C 151.99 109.94 151.29 109.06 150.59 108.19 C 150.55 107.04 150.51 105.89 150.48 104.75 C 150.20 104.43 149.64 103.79 149.36 103.47 C 149.88 103.44 150.92 103.39 151.44 103.36 L 151.45 104.80 C 151.85 104.79 152.65 104.77 153.06 104.76 C 153.21 98.83 160.43 95.40 158.57 89.27 C 157.97 89.29 156.78 89.34 156.18 89.36 C 156.23 89.12 156.31 88.64 156.35 88.40 Z" />
<path fill="#050505" opacity="1.00" d=" M 144.69 92.26 C 146.95 92.04 149.22 91.80 151.49 91.62 C 151.50 92.54 151.50 93.47 151.51 94.39 C 150.99 94.28 149.96 94.07 149.44 93.97 C 149.47 94.76 149.53 96.35 149.57 97.15 C 148.79 97.26 147.25 97.48 146.48 97.59 C 146.82 98.98 147.19 100.36 147.53 101.76 C 146.94 101.24 146.34 100.72 145.75 100.21 C 145.29 99.39 144.82 98.58 144.36 97.77 C 145.38 97.22 146.40 96.66 147.44 96.13 L 147.45 94.55 C 146.94 94.54 145.92 94.54 145.41 94.54 C 141.46 94.03 136.62 95.84 133.43 92.84 C 137.18 92.65 140.95 92.71 144.69 92.26 Z" />
<path fill="#050505" opacity="1.00" d=" M 108.40 105.62 C 108.90 105.57 109.90 105.47 110.41 105.43 C 111.14 107.65 111.52 109.96 111.31 112.30 C 109.93 112.39 108.55 112.47 107.18 112.58 C 106.43 114.97 104.41 116.54 102.11 117.33 C 97.80 116.83 94.19 114.10 90.31 112.37 C 90.37 110.15 91.15 108.09 92.07 106.11 C 92.17 106.50 92.36 107.29 92.45 107.69 C 93.80 108.10 95.16 108.46 96.52 108.81 C 96.41 109.93 96.30 111.05 96.19 112.17 C 97.02 113.00 97.86 113.82 98.70 114.64 C 100.91 114.42 103.69 115.04 105.17 112.90 C 106.01 111.30 105.68 109.42 105.85 107.68 C 106.28 107.60 107.14 107.45 107.58 107.37 C 107.60 108.20 107.66 109.87 107.69 110.70 C 111.21 111.18 109.20 107.39 108.40 105.62 M 94.28 111.94 C 94.40 110.49 93.94 109.34 92.90 108.50 C 90.32 108.95 92.94 114.24 94.28 111.94 Z" />
<path fill="#050505" opacity="1.00" d=" M 150.28 121.06 C 150.47 117.97 149.81 114.64 151.21 111.76 C 152.08 125.19 150.24 138.76 152.65 152.09 C 153.69 157.30 153.55 162.64 154.40 167.88 C 154.77 169.98 154.22 172.05 153.65 174.05 C 152.58 166.50 152.65 158.83 150.81 151.39 C 149.75 141.32 150.46 131.17 150.28 121.06 Z" />
<path fill="#050505" opacity="1.00" d=" M 104.79 118.78 C 108.22 118.10 111.71 118.18 115.14 118.80 C 117.37 120.83 117.92 123.62 117.72 126.53 C 120.17 126.95 122.72 126.02 125.08 126.95 C 122.51 127.46 119.92 127.85 117.37 128.40 C 116.51 126.96 116.11 125.34 116.25 123.67 C 115.65 122.59 115.09 121.46 114.24 120.55 C 109.41 119.69 104.33 120.18 99.84 122.18 C 97.49 122.34 95.14 122.51 92.79 122.66 C 89.96 123.26 87.96 125.26 86.96 127.92 L 85.94 127.60 C 84.38 127.09 82.81 126.63 81.24 126.16 C 81.55 127.93 81.86 129.71 82.17 131.48 C 81.32 129.22 80.11 126.91 80.56 124.41 C 81.20 123.03 82.50 122.39 83.96 122.29 C 83.53 122.68 82.68 123.46 82.25 123.85 C 82.13 126.34 84.16 126.67 86.15 126.91 C 86.71 125.53 87.29 124.16 87.85 122.79 C 89.85 121.97 91.93 121.43 94.06 121.12 C 97.70 120.61 101.40 120.37 104.79 118.78 Z" />
<path fill="#050505" opacity="1.00" d=" M 94.68 124.92 C 96.80 124.27 98.97 123.79 101.15 123.37 C 102.01 123.98 102.87 124.59 103.73 125.20 C 100.70 125.73 97.44 127.02 94.68 124.92 Z" />
<path fill="#050505" opacity="1.00" d=" M 112.13 158.19 C 116.53 156.13 120.20 152.90 123.41 149.28 C 123.46 149.80 123.55 150.82 123.60 151.33 C 121.91 153.45 121.21 156.52 118.57 157.73 C 115.36 159.52 112.34 161.63 109.43 163.86 C 109.82 162.72 110.21 161.57 110.61 160.43 C 107.64 161.10 104.63 161.63 101.60 161.97 C 101.68 162.61 101.83 163.90 101.91 164.54 C 98.52 163.42 95.38 161.73 92.57 159.54 C 88.83 157.53 83.64 156.22 82.28 151.65 C 81.97 151.40 81.36 150.90 81.05 150.65 C 81.55 150.66 82.56 150.68 83.06 150.69 C 87.40 152.63 90.50 156.57 95.04 158.12 C 96.07 158.24 97.11 158.34 98.16 158.44 C 98.24 159.17 98.40 160.64 98.48 161.38 C 99.22 161.61 100.70 162.09 101.44 162.32 C 101.64 161.67 102.05 160.37 102.26 159.72 C 105.65 161.38 109.04 159.62 112.13 158.19 Z" />
<path fill="#050505" opacity="1.00" d=" M 152.26 184.58 C 153.68 182.93 155.19 181.36 156.74 179.84 C 154.13 185.53 148.88 189.33 146.25 194.99 C 146.24 194.11 146.27 193.23 146.32 192.36 C 148.00 189.56 150.27 187.16 152.26 184.58 Z" />
</g>
<g id="#7c7c7cf8">
<path fill="#7c7c7c" opacity="0.97" d=" M 102.70 22.15 C 102.99 22.97 103.56 24.60 103.85 25.42 C 105.81 25.27 107.80 24.94 109.76 25.32 C 109.16 27.33 109.02 29.43 108.89 31.51 C 108.23 29.74 107.56 27.97 106.71 26.28 C 106.23 30.70 106.33 35.14 106.30 39.57 L 104.27 39.62 C 104.45 33.75 103.40 27.96 102.70 22.15 Z" />
<path fill="#7c7c7c" opacity="0.97" d=" M 130.88 30.32 C 131.27 30.06 132.05 29.54 132.44 29.28 C 133.53 29.71 134.63 30.12 135.73 30.52 C 137.16 31.01 139.97 30.47 139.94 32.68 C 139.04 34.40 137.94 36.01 136.67 37.47 C 136.67 35.73 136.66 33.98 136.63 32.23 C 135.69 32.87 134.79 33.57 133.88 34.24 C 133.85 32.81 133.53 31.50 132.93 30.31 C 130.56 33.68 129.69 38.03 128.21 41.90 C 131.75 41.48 135.33 41.38 138.89 41.61 C 138.20 41.31 136.83 40.71 136.15 40.42 C 137.48 38.51 138.89 36.65 140.45 34.93 C 140.44 36.08 140.43 38.37 140.43 39.52 C 140.78 39.52 141.50 39.53 141.86 39.53 C 141.37 39.84 140.41 40.45 139.92 40.75 C 139.65 41.19 139.11 42.07 138.84 42.51 C 134.08 43.16 129.23 43.03 124.45 43.50 C 125.41 42.65 126.38 41.80 127.36 40.96 C 128.02 37.62 128.73 34.29 129.20 30.91 C 126.84 31.87 126.08 34.39 124.98 36.43 C 124.85 34.63 124.74 32.83 124.67 31.03 C 126.74 30.79 128.81 30.54 130.88 30.32 Z" />
<path fill="#7c7c7c" opacity="0.97" d=" M 77.46 30.13 C 78.47 29.66 79.36 29.77 80.14 30.46 C 79.65 30.77 78.66 31.37 78.17 31.67 C 77.92 31.43 77.42 30.94 77.17 30.70 L 77.46 30.13 Z" />
<path fill="#7c7c7c" opacity="0.97" d=" M 120.31 29.41 C 121.39 29.66 123.56 30.16 124.65 30.41 C 123.55 32.92 122.25 35.48 119.86 37.00 C 118.76 35.63 118.73 33.79 118.33 32.16 C 118.95 32.24 120.18 32.41 120.79 32.50 C 120.67 31.73 120.43 30.18 120.31 29.41 Z" />
<path fill="#7c7c7c" opacity="0.97" d=" M 141.52 33.11 C 142.88 32.41 143.90 34.63 142.78 35.45 C 141.21 36.94 140.13 33.96 141.52 33.11 Z" />
<path fill="#7c7c7c" opacity="0.97" d=" M 132.11 37.30 C 133.60 37.83 133.74 40.87 131.99 41.19 C 130.14 40.88 130.63 37.78 132.11 37.30 Z" />
<path fill="#7c7c7c" opacity="0.97" d=" M 135.20 37.37 C 137.16 37.76 136.30 41.98 134.21 40.90 C 133.17 39.87 133.95 37.85 135.20 37.37 Z" />
<path fill="#7c7c7c" opacity="0.97" d=" M 53.03 41.72 C 53.27 44.17 53.23 46.64 52.80 49.06 C 52.01 53.01 52.79 57.01 52.75 60.98 C 52.89 67.68 51.38 74.28 51.42 80.98 C 51.36 86.19 51.69 91.45 50.82 96.63 C 50.65 94.44 50.42 92.25 50.16 90.07 C 49.47 90.16 48.10 90.34 47.42 90.43 C 46.53 91.76 45.64 93.10 44.76 94.44 C 43.56 94.36 42.59 93.91 41.87 93.08 C 41.94 91.63 42.35 90.23 42.69 88.84 C 42.13 90.74 44.18 91.99 45.85 91.83 C 45.79 90.62 45.33 89.60 44.46 88.77 C 45.35 88.86 47.13 89.04 48.02 89.13 C 48.21 88.93 48.58 88.54 48.77 88.34 L 49.06 88.03 L 50.26 86.95 C 50.84 82.51 50.50 78.01 50.59 73.54 C 51.01 67.36 52.24 61.16 51.19 54.97 C 50.36 51.16 51.56 47.36 51.71 43.55 L 53.03 41.72 Z" />
<path fill="#7c7c7c" opacity="0.97" d=" M 96.67 42.52 C 96.83 42.79 97.14 43.34 97.29 43.61 L 97.39 44.28 C 97.92 44.66 99.00 45.41 99.53 45.79 C 99.53 47.04 99.52 48.29 99.49 49.55 C 99.38 49.91 99.16 50.63 99.04 50.99 C 97.29 49.27 95.59 47.50 93.98 45.64 C 92.81 45.23 91.65 44.83 90.48 44.43 C 92.56 44.52 94.64 44.62 96.72 44.71 L 96.67 42.52 Z" />
<path fill="#7c7c7c" opacity="0.97" d=" M 138.42 57.18 C 139.56 58.07 141.25 58.78 141.41 60.42 C 142.02 66.55 141.06 72.68 141.20 78.80 C 140.34 77.70 138.84 76.72 139.28 75.09 C 139.70 69.13 140.48 62.94 138.42 57.18 Z" />
<path fill="#7c7c7c" opacity="0.97" d=" M 148.58 61.47 C 151.66 70.33 149.18 79.82 150.57 88.90 C 150.88 88.90 151.50 88.90 151.82 88.90 C 153.34 88.94 154.87 88.78 156.35 88.40 C 156.31 88.64 156.23 89.12 156.18 89.36 C 155.94 90.04 155.44 91.41 155.20 92.09 C 154.92 91.62 154.36 90.68 154.08 90.21 C 152.21 89.91 150.35 89.59 148.49 89.28 C 150.54 80.05 148.56 70.76 148.58 61.47 Z" />
<path fill="#7c7c7c" opacity="0.97" d=" M 55.38 63.28 C 55.83 63.35 56.73 63.49 57.18 63.56 C 57.20 70.64 56.69 77.75 57.69 84.79 C 57.21 84.63 56.23 84.32 55.75 84.16 C 54.82 77.24 55.42 70.24 55.38 63.28 Z" />
<path fill="#7c7c7c" opacity="0.97" d=" M 85.20 71.36 C 85.73 71.34 86.78 71.31 87.31 71.29 C 87.92 76.43 87.74 81.69 86.02 86.61 L 84.41 86.90 C 82.52 87.02 80.98 88.06 79.58 89.25 C 77.24 88.74 74.92 88.15 72.59 87.66 C 76.18 85.90 80.36 86.98 84.18 86.17 C 85.36 81.32 86.10 76.33 85.20 71.36 Z" />
<path fill="#7c7c7c" opacity="0.97" d=" M 113.62 75.31 C 114.18 75.70 114.73 76.08 115.29 76.47 C 115.43 80.30 115.06 84.18 115.70 87.99 C 116.26 88.08 117.39 88.26 117.96 88.36 C 116.04 88.73 114.07 88.92 112.12 88.73 L 113.50 88.40 C 113.13 84.05 113.18 79.66 113.62 75.31 Z" />
<path fill="#7c7c7c" opacity="0.97" d=" M 104.50 88.56 C 104.01 86.07 106.83 85.06 108.17 83.54 C 109.02 85.09 109.89 86.64 110.75 88.19 C 110.04 87.90 108.61 87.33 107.90 87.05 C 107.81 89.13 107.71 91.22 107.59 93.31 C 106.77 92.80 105.12 91.76 104.29 91.25 C 104.69 89.72 105.20 88.22 105.68 86.72 C 105.39 87.18 104.79 88.10 104.50 88.56 Z" />
<path fill="#7c7c7c" opacity="0.97" d=" M 60.77 90.98 C 65.47 92.75 70.25 90.50 75.01 91.20 C 77.90 90.81 80.98 90.45 83.49 92.27 C 80.82 92.46 78.14 92.47 75.46 92.39 C 75.00 93.15 74.54 93.90 74.08 94.66 L 73.50 95.63 C 68.73 95.84 63.96 95.75 59.20 95.71 C 59.33 95.14 59.59 94.00 59.72 93.43 C 64.08 93.49 68.44 93.40 72.79 93.56 C 72.77 93.36 72.72 92.96 72.70 92.75 C 68.68 92.65 64.65 92.64 60.65 92.25 L 59.61 90.75 L 60.77 90.98 Z" />
<path fill="#7c7c7c" opacity="0.97" d=" M 110.64 91.68 C 115.17 91.58 119.76 91.77 124.11 90.20 C 130.91 91.47 137.91 91.08 144.69 92.26 C 140.95 92.71 137.18 92.65 133.43 92.84 C 136.62 95.84 141.46 94.03 145.41 94.54 C 139.47 96.95 132.80 95.20 126.55 95.79 C 126.50 95.47 126.39 94.84 126.33 94.52 C 124.96 94.41 123.58 94.34 122.21 94.26 C 118.94 90.32 114.02 95.62 110.16 93.02 C 110.28 92.68 110.52 92.01 110.64 91.68 Z" />
<path fill="#7c7c7c" opacity="0.97" d=" M 62.96 98.35 C 64.13 94.76 67.67 98.10 69.78 98.71 C 69.14 99.48 68.50 100.25 67.86 101.03 C 67.41 100.46 66.52 99.33 66.07 98.77 C 65.30 98.66 63.74 98.45 62.96 98.35 Z" />
<path fill="#7c7c7c" opacity="0.97" d=" M 87.72 98.28 C 87.94 97.77 88.39 96.75 88.61 96.24 C 89.92 97.17 91.40 97.56 93.04 97.40 C 92.08 101.51 89.38 105.16 85.38 106.73 C 85.51 104.02 88.10 102.47 89.47 100.39 L 86.66 100.69 C 87.02 99.89 87.37 99.08 87.72 98.28 Z" />
<path fill="#7c7c7c" opacity="0.97" d=" M 110.07 97.64 C 112.93 95.01 115.63 98.11 118.26 99.37 C 119.40 99.75 120.59 99.93 121.77 100.20 C 122.46 100.65 123.15 101.12 123.83 101.58 C 124.08 101.38 124.58 100.99 124.82 100.79 C 124.10 100.56 122.64 100.10 121.92 99.86 C 124.46 97.99 127.62 98.69 130.51 98.95 C 129.40 99.31 128.29 99.67 127.18 100.03 C 126.56 101.13 125.61 101.92 124.56 102.59 C 124.20 103.03 123.47 103.92 123.10 104.36 C 120.84 104.28 118.42 104.68 116.33 103.59 C 113.68 102.29 111.95 99.80 110.07 97.64 Z" />
<path fill="#7c7c7c" opacity="0.97" d=" M 67.25 101.23 C 67.81 101.76 67.81 101.76 67.25 101.23 Z" />
<path fill="#7c7c7c" opacity="0.97" d=" M 99.40 101.19 L 100.36 101.19 C 100.40 101.57 100.50 102.34 100.55 102.73 C 101.22 102.73 102.55 102.73 103.22 102.74 C 103.00 102.30 102.57 101.43 102.35 101.00 C 104.41 101.86 105.21 104.17 105.39 106.23 C 103.10 106.46 100.79 106.45 98.50 106.24 C 98.54 104.52 99.01 102.85 99.40 101.19 Z" />
<path fill="#7c7c7c" opacity="0.97" d=" M 56.96 105.77 C 57.79 107.33 57.35 108.89 56.34 110.29 C 57.66 112.50 59.78 113.96 61.98 115.20 C 65.84 117.69 68.13 122.08 67.65 126.70 C 67.41 126.70 66.93 126.70 66.69 126.70 C 65.96 123.25 65.30 118.94 61.73 117.25 C 59.19 115.92 57.08 113.88 55.63 111.41 C 55.28 109.46 56.46 107.60 56.96 105.77 Z" />
<path fill="#7c7c7c" opacity="0.97" d=" M 114.04 109.65 C 116.42 111.59 118.75 113.88 121.98 114.16 C 125.53 114.68 130.06 116.02 130.10 120.40 C 127.86 119.02 126.01 116.85 123.24 116.56 C 119.45 115.81 113.93 114.58 114.04 109.65 Z" />
<path fill="#7c7c7c" opacity="0.97" d=" M 50.81 113.70 C 51.06 113.14 51.56 112.00 51.81 111.43 C 52.47 116.90 52.17 122.42 52.23 127.92 C 52.25 133.62 52.50 139.35 51.84 145.03 C 51.47 150.09 49.43 154.88 49.49 159.99 C 49.39 166.61 47.96 173.10 46.42 179.51 C 47.36 179.99 48.29 180.47 49.23 180.95 C 48.70 181.27 47.63 181.90 47.10 182.22 C 47.26 183.47 47.42 184.72 47.57 185.97 C 54.51 189.34 62.22 190.85 68.95 194.63 C 60.50 193.47 53.17 187.21 44.31 188.67 C 45.06 183.24 45.24 177.71 46.65 172.39 C 48.57 164.65 47.39 156.40 50.11 148.83 C 51.67 137.18 50.99 125.39 50.81 113.70 Z" />
<path fill="#7c7c7c" opacity="0.97" d=" M 85.61 111.85 C 86.37 112.89 87.17 113.92 87.83 115.04 C 86.37 119.22 81.47 118.32 78.06 118.95 C 76.23 120.35 74.99 122.35 73.45 124.05 C 73.14 120.73 75.63 117.40 79.00 117.03 C 81.21 116.54 83.69 116.99 85.68 115.75 C 85.73 114.45 85.65 113.14 85.61 111.85 Z" />
<path fill="#7c7c7c" opacity="0.97" d=" M 135.60 117.44 C 137.33 116.65 139.08 115.88 140.84 115.15 C 139.39 116.35 137.92 117.54 136.47 118.74 C 135.80 122.18 137.13 126.90 134.17 129.41 C 134.30 125.38 135.24 121.45 135.60 117.44 Z" />
<path fill="#7c7c7c" opacity="0.97" d=" M 55.92 122.88 C 56.99 123.42 58.06 124.05 58.74 125.08 C 61.78 128.96 65.17 132.71 66.72 137.50 C 66.26 137.48 65.34 137.46 64.88 137.44 C 63.56 131.61 58.02 128.30 55.92 122.88 Z" />
<path fill="#7c7c7c" opacity="0.97" d=" M 76.14 125.57 C 79.09 128.53 79.90 132.97 81.18 136.82 C 77.53 134.37 76.17 129.77 76.14 125.57 Z" />
<path fill="#7c7c7c" opacity="0.97" d=" M 81.24 126.16 C 82.81 126.63 84.38 127.09 85.94 127.60 L 87.21 128.82 C 86.14 128.67 83.99 128.37 82.92 128.22 C 83.59 130.12 84.24 132.03 84.80 133.97 C 83.12 133.99 82.04 133.27 82.17 131.48 C 81.86 129.71 81.55 127.93 81.24 126.16 Z" />
<path fill="#7c7c7c" opacity="0.97" d=" M 125.08 126.95 C 126.01 131.64 123.47 136.10 124.35 140.82 C 123.04 139.93 121.73 139.05 120.41 138.18 C 121.18 135.39 121.11 132.53 120.57 129.71 C 121.27 130.24 122.68 131.28 123.38 131.80 C 123.37 131.02 123.34 129.47 123.33 128.69 C 121.38 129.83 119.31 129.09 117.37 128.40 C 119.92 127.85 122.51 127.46 125.08 126.95 Z" />
<path fill="#7c7c7c" opacity="0.97" d=" M 138.23 140.16 C 139.05 135.85 142.04 132.44 144.63 129.06 C 143.41 133.16 141.42 137.24 138.23 140.16 Z" />
<path fill="#7c7c7c" opacity="0.97" d=" M 76.55 135.72 C 75.26 135.49 74.54 132.89 76.13 132.62 C 77.44 132.82 78.22 135.53 76.55 135.72 Z" />
<path fill="#7c7c7c" opacity="0.97" d=" M 118.37 134.52 C 119.79 134.36 119.84 136.84 118.98 137.54 C 117.55 137.70 117.50 135.22 118.37 134.52 Z" />
<path fill="#7c7c7c" opacity="0.97" d=" M 60.54 160.05 C 61.74 159.25 62.96 158.48 64.21 157.77 C 63.54 159.10 62.84 160.42 62.12 161.74 C 63.79 161.10 65.46 160.47 67.17 159.96 C 66.23 163.55 60.45 162.85 60.46 166.91 C 59.79 172.92 58.38 178.91 55.50 184.27 C 55.38 177.97 58.91 172.19 58.63 165.80 L 57.31 166.75 C 55.74 172.33 52.92 177.93 53.70 183.86 C 53.14 183.82 52.01 183.72 51.45 183.67 C 51.35 176.45 55.43 170.07 56.22 162.99 C 56.47 161.42 56.49 159.72 57.61 158.46 C 57.71 161.13 57.62 163.81 57.66 166.49 C 59.17 164.61 61.01 162.67 60.54 160.05 Z" />
<path fill="#7c7c7c" opacity="0.97" d=" M 98.16 158.44 C 99.45 158.89 101.80 158.02 102.26 159.72 C 102.05 160.37 101.64 161.67 101.44 162.32 C 100.70 162.09 99.22 161.61 98.48 161.38 C 98.40 160.64 98.24 159.17 98.16 158.44 Z" />
<path fill="#7c7c7c" opacity="0.97" d=" M 101.60 161.97 C 104.63 161.63 107.64 161.10 110.61 160.43 C 110.21 161.57 109.82 162.72 109.43 163.86 C 107.19 164.60 103.75 166.64 101.91 164.54 C 101.83 163.90 101.68 162.61 101.60 161.97 Z" />
<path fill="#7c7c7c" opacity="0.97" d=" M 142.51 164.39 C 143.03 164.41 144.08 164.43 144.60 164.44 C 144.43 167.98 145.06 171.47 146.45 174.73 C 141.94 173.51 142.90 167.95 142.51 164.39 Z" />
<path fill="#7c7c7c" opacity="0.97" d=" M 153.83 175.00 C 154.65 174.54 155.47 174.09 156.30 173.63 C 157.79 175.53 159.76 178.29 156.74 179.84 C 155.19 181.36 153.68 182.93 152.26 184.58 C 153.43 182.53 154.45 180.40 155.43 178.26 C 155.14 177.75 154.57 176.74 154.28 176.23 L 153.83 175.00 Z" />
<path fill="#7c7c7c" opacity="0.97" d=" M 69.98 194.76 C 74.46 195.32 78.59 197.37 83.05 198.06 C 88.34 199.10 93.77 198.47 99.08 199.25 C 105.70 200.29 112.43 199.74 119.08 200.53 C 127.34 200.89 136.40 200.94 143.58 196.25 C 143.38 198.50 143.36 200.76 143.55 203.02 L 143.24 202.35 C 142.97 201.76 142.42 200.57 142.15 199.97 C 139.49 200.75 136.84 201.57 134.18 202.36 C 124.47 201.96 114.75 202.66 105.03 202.43 C 102.13 199.54 97.70 200.47 93.99 200.13 C 85.20 200.24 76.67 197.86 68.45 194.95 L 69.98 194.76 Z" />
</g>
</svg>
