<?xml version="1.0" encoding="UTF-8" ?>
<!DOCTYPE svg PUBLIC "-//W3C//DTD SVG 1.1//EN" "http://www.w3.org/Graphics/SVG/1.1/DTD/svg11.dtd">
<svg width="252pt" height="227pt" viewBox="0 0 252 227" version="1.1" xmlns="http://www.w3.org/2000/svg">
<g id="#0c0c0dff">
<path fill="#0c0c0d" opacity="1.00" d=" M 93.01 4.08 C 96.45 3.24 99.61 1.57 102.97 0.56 C 112.97 0.69 122.99 0.44 132.99 0.63 C 136.59 0.71 140.24 0.16 143.78 0.96 C 145.12 1.68 145.93 3.05 146.97 4.10 C 143.77 4.56 140.61 5.29 137.39 5.54 C 125.23 5.33 113.04 5.65 100.90 4.91 C 96.03 5.03 92.83 9.53 88.10 10.33 C 91.10 14.70 97.01 14.71 100.44 18.53 C 104.94 22.90 109.70 26.99 114.41 31.13 C 114.69 28.18 115.02 25.24 115.41 22.31 C 116.53 22.30 117.66 22.29 118.78 22.27 C 119.55 24.78 120.41 27.26 121.32 29.72 C 122.54 29.39 123.76 29.04 124.99 28.70 C 126.48 28.80 127.98 29.00 129.47 29.19 C 129.80 30.65 130.15 32.10 130.49 33.55 C 132.19 33.15 133.89 32.76 135.60 32.37 C 136.26 33.35 136.93 34.33 137.60 35.30 C 145.10 32.81 152.75 30.90 160.44 29.08 C 163.53 27.36 166.66 25.32 170.38 25.59 C 171.24 28.86 168.40 30.57 166.45 32.58 C 166.60 38.65 173.59 42.70 172.62 49.13 C 172.21 49.34 171.39 49.75 170.98 49.96 C 168.63 51.04 167.42 53.41 165.98 55.41 C 164.85 55.14 163.71 54.87 162.58 54.61 C 162.98 56.85 163.41 59.09 163.81 61.34 L 163.25 60.94 C 160.45 59.83 156.86 58.85 154.59 61.54 C 152.30 63.09 153.42 65.96 154.52 67.86 C 157.07 72.05 158.46 76.97 158.05 81.89 C 156.66 84.12 155.32 86.49 153.25 88.17 C 149.94 89.41 146.07 88.73 143.10 86.89 C 139.41 84.71 136.65 81.36 133.35 78.70 C 131.23 76.86 128.31 76.75 125.72 76.08 C 123.92 75.58 122.15 75.01 120.37 74.44 C 118.13 73.69 115.84 73.11 113.56 72.52 C 112.43 70.84 111.41 69.04 109.91 67.66 C 108.18 66.37 106.61 64.90 105.21 63.26 C 106.06 62.34 106.92 61.42 107.80 60.52 C 112.51 59.93 117.30 61.36 120.32 65.16 C 123.31 68.68 127.46 70.85 131.93 71.85 C 135.95 72.71 139.16 75.30 142.20 77.90 C 144.47 79.71 147.15 80.99 150.03 81.44 C 151.30 79.86 150.15 77.96 149.88 76.25 C 148.91 72.95 148.90 69.44 147.85 66.17 C 146.36 65.24 144.48 65.29 142.80 64.92 C 141.61 64.75 140.43 64.59 139.25 64.38 C 137.22 61.84 135.05 59.25 131.92 58.07 C 131.44 56.85 130.98 55.62 130.53 54.40 C 130.97 50.64 132.38 46.86 131.22 43.08 C 128.59 43.68 125.98 44.34 123.34 44.84 C 123.03 44.50 122.41 43.82 122.10 43.48 C 122.87 42.29 123.71 41.15 124.53 39.99 C 122.08 38.60 119.76 37.02 117.58 35.25 C 117.48 36.77 117.38 38.29 117.27 39.81 C 114.52 40.33 111.78 40.90 109.09 41.65 C 109.96 43.89 110.65 46.14 111.77 48.22 C 105.00 50.32 101.68 57.83 94.70 59.50 C 88.73 60.79 82.01 63.70 76.35 59.88 C 72.72 57.18 68.13 58.74 63.99 58.45 C 60.50 58.57 57.09 57.88 53.71 57.09 C 53.64 58.45 53.56 59.81 53.49 61.17 C 58.70 63.78 64.30 61.03 69.76 61.71 C 79.88 64.26 91.68 63.09 100.34 69.78 C 96.23 69.57 92.24 68.46 88.14 68.23 C 88.34 68.68 88.76 69.58 88.96 70.03 C 98.92 71.69 107.59 77.06 116.84 80.72 C 119.61 82.46 122.70 81.80 125.64 80.99 C 132.21 83.85 137.11 89.41 143.25 92.95 C 147.34 93.82 152.43 90.80 155.46 95.00 C 154.14 97.75 152.74 100.49 150.97 102.99 C 145.57 110.67 139.33 117.89 131.57 123.28 C 130.06 122.85 128.55 122.43 127.04 122.01 C 124.30 124.54 121.75 127.27 119.05 129.84 L 118.46 130.32 C 114.39 132.30 110.30 134.24 106.24 136.24 C 107.75 134.42 109.24 132.58 110.58 130.63 C 112.77 127.06 115.88 124.24 118.68 121.17 C 118.34 120.42 117.68 118.94 117.34 118.20 C 116.39 118.33 115.44 118.40 114.48 118.43 C 111.18 123.12 108.65 128.46 104.01 132.09 C 102.99 131.75 101.97 131.37 100.96 131.01 C 103.15 127.96 106.11 125.40 107.73 121.99 C 107.36 119.97 106.70 118.01 106.19 116.03 C 103.54 116.69 100.65 117.58 99.05 119.96 C 97.09 122.83 95.24 125.78 93.15 128.55 C 92.61 127.36 92.08 126.17 91.55 124.98 C 93.21 122.18 95.85 119.56 95.70 116.08 C 95.82 113.62 95.10 111.27 94.45 108.94 C 92.12 109.76 89.76 110.53 87.58 111.69 C 85.87 113.73 84.88 116.24 83.52 118.51 C 81.30 122.52 78.11 125.87 75.02 129.21 C 77.01 130.77 79.32 131.74 81.77 132.33 C 79.38 132.18 77.05 132.80 74.74 133.32 C 70.20 132.27 66.29 129.68 62.09 127.81 C 62.88 133.14 69.54 133.08 73.18 135.72 C 75.64 137.11 78.31 138.05 81.01 138.84 C 77.38 139.64 73.68 140.19 69.95 140.29 C 69.43 139.31 68.92 138.34 68.37 137.38 C 63.84 133.55 58.23 131.48 53.00 128.85 C 51.17 127.35 54.42 126.08 55.22 124.97 C 52.78 122.84 50.39 120.60 47.57 118.97 C 47.59 118.44 47.61 117.37 47.63 116.84 C 49.01 117.12 50.39 117.40 51.76 117.76 C 55.36 119.82 58.53 122.67 62.55 123.96 C 65.35 118.71 68.06 113.40 70.51 107.99 C 70.30 104.84 68.41 102.03 67.39 99.08 C 65.18 99.24 63.31 100.35 61.84 101.97 C 60.03 105.90 58.40 109.94 56.05 113.59 C 55.75 113.94 55.15 114.66 54.85 115.02 C 54.20 114.95 52.90 114.80 52.24 114.73 C 52.25 114.17 52.26 113.04 52.27 112.48 C 55.98 107.83 58.92 102.08 57.44 95.96 C 55.21 96.48 52.84 96.75 50.80 97.86 C 48.82 100.88 47.30 104.19 45.21 107.14 C 44.32 107.93 43.42 108.69 42.52 109.46 C 42.91 111.66 43.32 113.85 43.72 116.05 C 43.26 116.33 42.34 116.89 41.89 117.17 C 40.66 115.96 38.79 114.98 38.88 113.01 C 38.27 106.68 38.38 100.31 38.57 93.97 C 38.68 89.91 36.72 86.13 36.75 82.09 C 38.62 72.94 45.52 65.94 48.14 57.07 C 51.65 51.19 45.19 45.25 46.89 39.11 C 48.65 35.66 51.64 33.03 54.58 30.58 C 55.94 29.30 58.36 28.68 59.82 30.15 C 62.41 32.56 62.90 36.28 62.55 39.63 C 60.41 39.30 58.30 38.86 56.18 38.41 C 56.33 41.44 56.48 44.47 56.60 47.50 C 57.74 48.19 58.88 48.89 60.03 49.58 C 62.63 48.23 65.04 46.58 67.37 44.82 C 72.73 48.47 78.48 51.48 84.33 54.26 C 87.23 55.54 90.23 53.83 92.92 52.78 C 88.63 51.56 84.52 49.86 80.36 48.29 C 80.77 46.58 81.17 44.88 81.57 43.16 C 80.35 42.87 79.14 42.58 77.93 42.28 C 77.22 39.01 75.44 36.16 74.26 33.07 C 77.87 27.49 82.19 22.31 84.96 16.19 C 84.70 15.56 84.18 14.32 83.92 13.69 C 81.67 15.06 79.40 16.42 77.18 17.85 C 73.05 20.29 67.91 18.15 63.91 20.84 C 59.37 23.27 54.55 25.27 50.46 28.46 C 47.06 31.13 43.94 34.14 40.62 36.91 C 38.53 38.70 37.29 41.18 35.96 43.53 C 35.17 44.83 34.25 46.05 33.36 47.29 C 33.10 44.95 32.77 42.55 33.23 40.21 C 35.85 36.12 41.04 34.82 43.92 30.99 C 46.79 26.70 52.27 25.52 55.72 21.77 C 58.90 18.43 63.79 19.31 67.72 17.72 C 70.59 15.68 73.55 13.54 77.12 12.96 C 83.52 12.60 88.01 7.44 93.01 4.08 M 81.78 28.52 L 81.19 28.29 C 80.75 32.37 81.98 36.19 83.96 39.71 L 85.13 39.51 C 84.68 39.60 83.78 39.78 83.33 39.87 C 83.56 40.56 84.03 41.94 84.26 42.63 C 87.09 44.40 90.16 45.79 92.91 47.70 C 95.55 46.82 98.27 46.25 101.01 45.85 C 101.11 44.97 101.32 43.22 101.42 42.34 C 98.55 42.24 97.27 45.57 94.23 45.22 C 94.66 44.91 95.54 44.28 95.97 43.96 C 97.19 42.11 95.26 40.60 94.56 38.99 C 94.84 38.39 95.40 37.20 95.68 36.61 C 97.05 36.04 98.42 35.31 99.96 35.43 C 101.94 36.68 102.56 39.04 103.06 41.18 C 103.32 38.83 104.69 36.47 104.19 34.13 C 101.26 31.23 98.63 28.07 95.98 24.92 C 93.10 23.24 90.16 21.64 87.03 20.46 C 85.23 23.11 83.37 25.73 81.78 28.52 M 139.69 41.69 C 135.02 45.13 138.33 51.89 142.04 54.77 C 144.13 54.26 146.16 54.74 148.01 55.75 C 152.22 54.00 157.31 55.76 160.94 52.39 C 162.92 49.49 167.50 47.50 166.54 43.38 C 165.46 40.57 163.57 38.17 162.03 35.60 C 160.13 35.69 158.14 35.48 156.35 36.29 C 150.32 35.72 144.83 38.99 139.69 41.69 M 46.82 67.86 C 44.35 74.26 43.01 81.10 42.26 87.89 C 45.40 87.98 47.34 85.33 49.72 83.76 C 51.55 82.35 54.06 81.20 54.40 78.63 C 55.01 74.57 56.57 70.80 59.02 67.51 C 54.87 67.68 50.82 65.91 46.82 67.86 M 73.33 67.77 C 73.12 69.54 72.88 71.30 72.60 73.06 C 71.07 76.98 69.84 81.02 68.60 85.04 C 68.38 87.37 69.51 89.56 69.86 91.84 C 72.13 89.41 75.03 87.73 78.32 87.12 C 79.74 83.24 82.00 79.49 81.73 75.22 L 80.90 74.94 C 80.36 74.07 79.82 73.21 79.27 72.35 C 80.65 72.23 82.03 72.11 83.40 71.99 C 83.08 67.30 76.84 67.47 73.33 67.77 M 60.25 69.30 C 59.22 75.18 56.08 80.65 56.30 86.70 C 59.60 87.19 62.53 85.70 65.42 84.35 C 66.33 79.58 69.67 75.55 69.81 70.64 C 66.66 69.96 63.50 69.15 60.25 69.30 M 81.79 87.04 C 80.80 89.49 83.13 91.52 83.94 93.67 C 86.33 92.76 89.12 92.58 91.21 91.06 C 93.06 86.85 93.97 82.32 94.63 77.79 C 91.65 76.92 88.68 76.02 85.68 75.22 C 84.29 79.13 83.46 83.22 81.79 87.04 M 93.53 94.13 C 94.64 95.97 95.77 97.79 96.94 99.59 C 99.33 99.08 101.81 98.82 104.11 97.99 C 106.41 95.85 106.61 92.44 107.69 89.64 C 108.79 86.86 108.85 83.85 108.57 80.91 C 104.97 80.30 101.42 79.45 97.91 78.44 C 97.02 83.80 95.43 89.04 93.53 94.13 M 109.38 94.50 C 108.30 97.73 107.11 102.38 110.46 104.68 C 112.43 106.62 115.16 104.60 117.41 104.31 C 119.57 99.02 120.58 93.37 121.86 87.82 C 118.90 86.01 115.62 84.85 112.48 83.41 C 111.19 87.03 110.88 90.93 109.38 94.50 M 121.24 103.34 C 119.67 106.36 121.04 109.64 121.67 112.71 C 122.53 112.60 123.40 112.49 124.26 112.38 C 127.01 109.09 129.07 105.32 130.48 101.27 C 131.44 98.10 134.21 95.88 134.98 92.65 C 131.78 91.79 128.63 90.74 125.62 89.35 C 123.68 93.84 123.20 98.82 121.24 103.34 M 42.68 96.67 C 42.06 98.81 40.78 101.25 42.86 103.04 C 44.96 100.14 47.18 97.31 48.88 94.15 C 46.77 94.89 44.72 95.76 42.68 96.67 M 137.36 95.49 C 134.52 101.25 131.23 106.81 129.02 112.86 C 131.98 109.24 135.19 105.85 138.48 102.54 C 140.37 100.79 139.57 97.97 139.37 95.72 C 138.87 95.66 137.86 95.54 137.36 95.49 M 74.72 106.67 C 72.48 112.78 68.72 118.19 66.44 124.27 C 65.68 127.56 70.46 127.95 72.70 128.74 C 77.37 122.98 81.59 116.89 84.49 110.03 C 83.61 107.73 82.70 105.45 81.68 103.21 C 79.36 104.37 77.09 105.62 74.72 106.67 Z" />
<path fill="#0c0c0d" opacity="1.00" d=" M 196.89 19.08 C 197.64 18.97 199.14 18.75 199.90 18.64 C 202.71 20.68 205.43 22.88 208.33 24.81 C 211.22 26.75 214.92 27.11 217.58 29.44 C 221.41 32.57 225.18 35.85 228.23 39.78 C 231.55 44.42 233.10 50.03 236.13 54.84 C 238.81 58.87 239.42 64.04 243.14 67.39 C 244.81 71.29 243.55 75.89 245.26 79.85 C 247.18 84.34 246.60 89.29 247.19 94.02 C 247.40 97.24 250.35 99.62 250.15 102.91 C 250.05 108.97 250.37 115.01 251.17 121.02 C 251.51 130.34 251.35 139.68 251.24 149.01 C 251.30 151.28 250.75 153.49 250.03 155.63 C 248.99 155.34 247.95 155.07 246.91 154.80 C 248.58 146.67 248.02 138.26 248.28 130.01 C 248.17 120.46 249.53 110.46 245.72 101.41 C 243.01 91.76 243.34 81.41 239.78 71.96 C 236.47 64.86 232.46 58.10 229.15 51.01 C 227.12 41.62 218.66 35.80 211.13 30.83 C 206.46 26.81 201.09 23.63 196.89 19.08 Z" />
<path fill="#0c0c0d" opacity="1.00" d=" M 26.99 50.91 C 28.99 49.51 30.60 46.94 33.36 47.29 C 31.12 50.27 29.97 53.89 27.87 56.95 C 25.50 59.91 22.56 62.38 20.43 65.53 C 15.89 72.18 10.43 78.13 5.93 84.80 C 4.25 87.17 4.35 90.18 4.32 92.95 C 4.36 109.32 4.33 125.69 4.34 142.06 C 4.14 147.15 6.55 151.89 6.38 156.98 C 6.65 160.70 5.48 164.91 7.81 168.19 C 11.13 173.03 12.81 178.69 15.06 184.05 C 17.99 190.90 24.76 194.60 30.83 198.24 C 34.86 201.59 39.82 203.32 44.54 205.42 C 48.73 207.27 50.54 212.36 55.13 213.53 C 60.14 215.22 65.08 217.12 70.05 218.93 C 73.79 220.31 77.19 222.63 81.16 223.37 C 91.36 225.05 101.72 224.46 112.00 224.55 C 129.01 224.63 146.02 224.45 163.03 224.64 C 170.11 224.95 176.61 221.41 183.67 221.41 C 191.11 221.46 197.52 217.36 203.73 213.78 C 205.62 212.50 207.86 211.94 210.11 211.72 C 209.27 214.41 207.06 216.33 204.61 217.56 C 199.31 220.31 194.42 224.96 188.05 224.58 C 184.26 224.29 180.76 226.02 177.05 226.31 C 151.71 225.56 126.34 226.12 101.00 225.94 C 93.00 225.73 85.01 226.78 77.03 226.13 C 73.53 225.16 70.46 223.05 66.97 222.02 C 62.19 220.12 56.91 219.45 52.42 216.89 C 51.45 215.97 50.48 215.96 49.49 216.84 C 46.59 216.61 46.64 212.74 44.72 211.18 C 41.53 209.12 37.71 208.43 34.04 207.76 C 34.54 206.23 34.13 205.90 32.81 206.76 L 32.16 207.38 C 32.12 206.54 32.04 204.88 32.01 204.04 C 30.84 204.16 29.68 204.27 28.52 204.37 C 23.36 201.64 20.16 196.06 16.00 192.00 C 12.93 187.94 9.73 183.65 8.30 178.70 C 8.28 177.35 7.52 176.16 6.24 175.69 C 2.09 171.16 2.96 164.21 2.38 158.47 C 1.08 147.71 2.76 136.87 1.49 126.10 C 0.04 115.80 0.92 105.37 0.81 95.01 C 0.90 91.74 0.58 88.15 2.52 85.30 C 5.84 79.67 8.07 73.34 12.38 68.33 C 17.36 62.62 20.29 54.91 26.99 50.91 Z" />
<path fill="#0c0c0d" opacity="1.00" d=" M 243.88 165.76 C 244.48 166.08 245.68 166.73 246.27 167.06 C 244.06 171.72 240.35 175.51 238.38 180.32 C 236.97 184.06 235.68 187.87 234.64 191.74 C 234.21 192.03 233.36 192.60 232.94 192.89 C 230.21 198.04 224.98 200.92 221.31 205.27 C 219.01 207.86 215.72 209.21 212.72 210.78 C 213.50 209.67 214.24 208.55 215.05 207.47 C 218.03 204.81 220.69 201.83 223.15 198.68 C 225.88 195.53 228.62 192.35 230.58 188.64 C 232.86 184.25 236.73 180.87 238.51 176.20 C 239.99 172.56 242.32 169.36 243.88 165.76 Z" />
</g>
<g id="#373c56ff">
<path fill="#373c56" opacity="1.00" d=" M 137.39 5.54 C 140.61 5.29 143.77 4.56 146.97 4.10 C 148.37 3.75 149.44 5.24 148.92 6.52 C 146.64 7.14 143.64 7.07 142.29 9.35 C 140.15 13.00 141.23 17.45 140.12 21.36 C 138.79 23.76 136.90 25.78 135.29 27.98 C 136.90 29.33 138.34 31.82 140.82 31.17 C 145.47 30.26 149.42 26.04 154.46 27.72 C 156.31 28.71 158.33 29.23 160.44 29.08 C 152.75 30.90 145.10 32.81 137.60 35.30 C 136.93 34.33 136.26 33.35 135.60 32.37 C 133.89 32.76 132.19 33.15 130.49 33.55 C 130.15 32.10 129.80 30.65 129.47 29.19 C 127.98 29.00 126.48 28.80 124.99 28.70 C 126.69 28.17 128.39 27.60 130.09 27.04 C 131.15 21.51 132.28 15.89 134.92 10.85 C 135.79 9.10 136.62 7.34 137.39 5.54 Z" />
<path fill="#373c56" opacity="1.00" d=" M 151.76 7.20 C 158.37 5.27 166.82 5.84 171.29 11.72 C 168.61 12.64 166.02 11.09 163.53 10.29 C 159.73 8.82 155.70 8.18 151.76 7.20 Z" />
<path fill="#373c56" opacity="1.00" d=" M 77.18 17.85 C 79.40 16.42 81.67 15.06 83.92 13.69 C 84.18 14.32 84.70 15.56 84.96 16.19 C 82.19 22.31 77.87 27.49 74.26 33.07 C 75.44 36.16 77.22 39.01 77.93 42.28 C 79.14 42.58 80.35 42.87 81.57 43.16 C 81.17 44.88 80.77 46.58 80.36 48.29 C 84.52 49.86 88.63 51.56 92.92 52.78 C 90.23 53.83 87.23 55.54 84.33 54.26 C 78.48 51.48 72.73 48.47 67.37 44.82 C 68.13 44.55 68.91 44.30 69.69 44.06 C 70.91 45.17 72.13 46.28 73.36 47.39 C 74.33 46.35 75.27 45.29 76.18 44.20 C 73.09 40.00 72.94 34.76 73.16 29.76 C 70.36 29.74 67.56 29.74 64.77 29.61 C 67.15 24.25 73.81 24.95 78.56 23.55 C 80.95 22.98 80.89 20.11 81.27 18.18 C 79.91 18.06 78.54 17.95 77.18 17.85 Z" />
<path fill="#373c56" opacity="1.00" d=" M 139.69 41.69 C 144.83 38.99 150.32 35.72 156.35 36.29 C 155.45 36.63 154.55 36.97 153.65 37.30 C 148.36 39.13 142.28 40.29 138.46 44.71 C 141.06 44.70 143.68 44.30 146.27 44.71 C 147.41 45.43 147.94 46.79 148.80 47.80 C 147.53 49.54 146.25 51.27 145.04 53.05 C 148.28 53.58 151.58 53.56 154.83 53.15 C 155.52 52.31 156.20 51.46 156.88 50.61 C 158.23 51.20 159.59 51.79 160.94 52.39 C 157.31 55.76 152.22 54.00 148.01 55.75 C 146.16 54.74 144.13 54.26 142.04 54.77 C 138.33 51.89 135.02 45.13 139.69 41.69 Z" />
<path fill="#373c56" opacity="1.00" d=" M 35.96 43.53 C 37.29 41.18 38.53 38.70 40.62 36.91 C 40.07 42.00 41.16 47.64 38.04 52.11 C 34.23 57.65 31.79 64.11 27.10 69.04 C 26.95 68.54 26.63 67.54 26.47 67.05 C 29.57 61.96 32.43 56.73 35.83 51.83 C 37.25 49.86 37.89 47.48 38.58 45.19 C 37.93 44.77 36.62 43.95 35.96 43.53 Z" />
<path fill="#373c56" opacity="1.00" d=" M 85.13 39.51 C 85.66 39.40 86.72 39.20 87.25 39.09 C 87.52 40.47 87.79 41.86 88.20 43.20 C 89.16 44.81 91.71 44.94 93.39 45.34 C 93.45 45.32 93.57 45.28 93.63 45.26 L 94.23 45.22 C 97.27 45.57 98.55 42.24 101.42 42.34 C 101.32 43.22 101.11 44.97 101.01 45.85 C 98.27 46.25 95.55 46.82 92.91 47.70 C 90.16 45.79 87.09 44.40 84.26 42.63 C 84.03 41.94 83.56 40.56 83.33 39.87 C 83.78 39.78 84.68 39.60 85.13 39.51 Z" />
<path fill="#373c56" opacity="1.00" d=" M 118.18 56.10 C 120.70 52.35 121.42 47.84 122.10 43.48 C 122.41 43.82 123.03 44.50 123.34 44.84 C 125.98 44.34 128.59 43.68 131.22 43.08 C 132.38 46.86 130.97 50.64 130.53 54.40 C 129.38 53.19 128.16 52.05 126.95 50.90 C 124.30 55.42 121.32 59.92 120.32 65.16 C 117.30 61.36 112.51 59.93 107.80 60.52 C 111.20 58.78 116.36 60.18 118.18 56.10 M 126.75 44.84 C 127.70 46.83 129.22 48.40 131.24 49.31 C 131.25 47.77 131.21 46.22 131.13 44.67 C 129.67 44.79 128.21 44.85 126.75 44.84 Z" />
<path fill="#373c56" opacity="1.00" d=" M 165.98 55.41 C 167.42 53.41 168.63 51.04 170.98 49.96 C 172.04 51.54 173.14 53.10 174.13 54.73 C 171.71 54.24 169.76 55.75 168.01 57.20 C 170.01 58.35 172.29 58.41 174.40 57.54 C 177.65 56.55 179.73 53.67 182.13 51.47 C 182.90 53.86 184.13 56.26 183.93 58.84 C 182.89 61.71 179.34 60.98 176.97 61.47 C 173.70 61.35 171.22 64.06 168.13 64.36 C 166.64 63.42 165.23 62.37 163.81 61.34 C 163.41 59.09 162.98 56.85 162.58 54.61 C 163.71 54.87 164.85 55.14 165.98 55.41 Z" />
<path fill="#373c56" opacity="1.00" d=" M 154.59 61.54 C 156.86 58.85 160.45 59.83 163.25 60.94 C 162.74 62.16 162.22 63.37 161.70 64.58 C 159.10 65.16 156.28 65.64 154.52 67.86 C 153.42 65.96 152.30 63.09 154.59 61.54 Z" />
<path fill="#373c56" opacity="1.00" d=" M 142.80 64.92 C 144.48 65.29 146.36 65.24 147.85 66.17 C 148.90 69.44 148.91 72.95 149.88 76.25 C 150.15 77.96 151.30 79.86 150.03 81.44 C 147.15 80.99 144.47 79.71 142.20 77.90 C 144.34 78.56 146.59 78.45 148.80 78.35 C 148.49 73.27 146.99 68.17 142.80 64.92 Z" />
<path fill="#373c56" opacity="1.00" d=" M 109.91 67.66 C 111.41 69.04 112.43 70.84 113.56 72.52 C 115.84 73.11 118.13 73.69 120.37 74.44 C 118.19 75.24 115.88 76.59 113.52 75.55 C 109.69 74.21 104.86 73.98 102.41 70.28 C 104.89 69.36 107.39 68.48 109.91 67.66 Z" />
<path fill="#373c56" opacity="1.00" d=" M 73.33 67.77 C 76.84 67.47 83.08 67.30 83.40 71.99 C 82.03 72.11 80.65 72.23 79.27 72.35 C 79.82 73.21 80.36 74.07 80.90 74.94 C 78.23 73.94 75.44 73.32 72.60 73.06 C 72.88 71.30 73.12 69.54 73.33 67.77 Z" />
<path fill="#373c56" opacity="1.00" d=" M 125.72 76.08 C 128.31 76.75 131.23 76.86 133.35 78.70 C 136.65 81.36 139.41 84.71 143.10 86.89 C 146.07 88.73 149.94 89.41 153.25 88.17 C 155.32 86.49 156.66 84.12 158.05 81.89 C 157.83 85.35 155.51 88.00 153.44 90.56 C 154.48 92.02 156.09 93.26 156.49 95.06 C 156.45 98.62 153.49 100.96 150.97 102.99 C 152.74 100.49 154.14 97.75 155.46 95.00 C 152.43 90.80 147.34 93.82 143.25 92.95 C 137.11 89.41 132.21 83.85 125.64 80.99 C 122.70 81.80 119.61 82.46 116.84 80.72 C 120.02 79.66 123.41 78.68 125.72 76.08 Z" />
<path fill="#373c56" opacity="1.00" d=" M 199.95 78.90 C 200.76 77.47 202.53 77.47 203.93 77.07 C 202.96 79.61 201.36 81.82 200.15 84.24 C 198.01 90.52 198.80 97.41 196.69 103.69 C 194.05 104.06 194.55 100.47 194.83 98.81 C 196.36 92.16 195.87 84.69 199.95 78.90 Z" />
<path fill="#373c56" opacity="1.00" d=" M 157.27 108.72 C 157.42 106.27 156.39 102.60 159.67 101.91 C 159.73 104.18 159.72 106.46 159.68 108.73 C 159.08 108.73 157.87 108.72 157.27 108.72 Z" />
<path fill="#373c56" opacity="1.00" d=" M 195.47 105.65 C 195.81 105.46 196.48 105.10 196.81 104.92 C 197.46 108.66 196.68 112.43 194.63 115.62 C 194.04 115.69 192.85 115.84 192.26 115.91 C 193.28 112.49 193.70 108.78 195.47 105.65 Z" />
<path fill="#373c56" opacity="1.00" d=" M 190.00 121.90 C 190.63 120.85 191.85 120.52 192.89 120.03 C 191.90 124.19 189.93 128.07 187.53 131.59 C 186.79 132.85 185.43 133.44 184.16 134.02 C 184.33 129.32 187.46 125.60 190.00 121.90 Z" />
<path fill="#373c56" opacity="1.00" d=" M 119.05 129.84 C 121.75 127.27 124.30 124.54 127.04 122.01 C 128.55 122.43 130.06 122.85 131.57 123.28 C 130.53 125.33 129.49 127.38 128.41 129.40 C 125.29 129.08 122.09 128.91 119.05 129.84 Z" />
<path fill="#373c56" opacity="1.00" d=" M 86.32 132.39 C 88.51 130.27 89.92 127.52 91.55 124.98 C 92.08 126.17 92.61 127.36 93.15 128.55 C 92.01 130.21 90.98 131.93 89.96 133.67 C 93.64 133.02 97.97 133.65 100.96 131.01 C 101.97 131.37 102.99 131.75 104.01 132.09 C 106.34 133.18 108.59 131.77 110.58 130.63 C 109.24 132.58 107.75 134.42 106.24 136.24 C 110.30 134.24 114.39 132.30 118.46 130.32 C 114.03 134.27 109.13 138.13 103.21 139.50 C 100.09 140.28 97.01 141.27 93.89 142.05 C 88.49 143.54 83.35 139.56 77.90 140.86 C 68.30 142.51 60.08 148.67 53.34 155.42 C 52.74 159.09 56.59 161.04 58.87 163.14 C 64.09 168.04 72.20 165.60 77.73 170.07 C 76.29 171.19 74.95 172.82 72.96 172.80 C 70.63 172.83 68.48 171.78 66.28 171.17 C 62.36 169.87 57.82 169.37 54.94 166.08 C 52.45 163.44 49.64 159.70 45.47 161.34 C 38.78 167.05 35.76 175.54 32.55 183.45 C 30.89 188.19 31.38 193.31 30.83 198.24 C 24.76 194.60 17.99 190.90 15.06 184.05 C 18.32 187.39 21.66 190.64 25.15 193.73 C 27.39 183.70 29.35 173.12 35.91 164.84 C 39.19 161.34 42.29 157.68 45.19 153.85 C 42.86 149.46 41.52 144.34 43.87 139.64 C 44.49 140.43 45.10 141.23 45.69 142.04 C 46.44 144.73 47.23 147.41 48.24 150.02 C 50.94 149.52 53.34 148.19 55.44 146.45 C 59.52 143.07 65.02 141.67 68.37 137.38 C 68.92 138.34 69.43 139.31 69.95 140.29 C 73.68 140.19 77.38 139.64 81.01 138.84 C 78.31 138.05 75.64 137.11 73.18 135.72 C 75.15 135.76 77.12 135.71 79.10 135.66 C 77.66 134.86 76.21 134.06 74.74 133.32 C 77.05 132.80 79.38 132.18 81.77 132.33 C 83.26 132.51 85.02 133.70 86.32 132.39 Z" />
<path fill="#373c56" opacity="1.00" d=" M 31.22 129.56 C 30.11 124.48 39.44 124.31 38.64 129.44 C 36.17 129.65 33.69 129.69 31.22 129.56 Z" />
<path fill="#373c56" opacity="1.00" d=" M 43.59 132.97 C 44.78 131.60 46.07 130.33 47.37 129.07 C 49.37 131.93 47.25 134.72 46.17 137.48 C 45.56 137.53 44.35 137.65 43.74 137.71 C 43.69 136.13 43.64 134.55 43.59 132.97 Z" />
<path fill="#373c56" opacity="1.00" d=" M 24.57 142.50 C 23.40 138.73 24.95 134.58 28.13 132.29 C 28.55 136.28 27.76 140.41 28.82 144.31 C 30.95 148.09 34.73 150.50 38.22 152.89 C 39.03 153.75 39.82 154.63 40.59 155.53 C 38.08 156.45 35.41 156.17 32.93 155.27 C 29.12 151.84 26.17 147.38 24.57 142.50 Z" />
<path fill="#373c56" opacity="1.00" d=" M 28.52 204.37 C 29.68 204.27 30.84 204.16 32.01 204.04 C 32.04 204.88 32.12 206.54 32.16 207.38 C 30.67 206.70 29.21 205.94 28.52 204.37 Z" />
<path fill="#373c56" opacity="1.00" d=" M 49.49 216.84 C 50.48 215.96 51.45 215.97 52.42 216.89 C 51.44 218.53 50.47 218.51 49.49 216.84 Z" />
</g>
<g id="#9ba2d8ff">
<path fill="#9ba2d8" opacity="1.00" d=" M 88.10 10.33 C 92.83 9.53 96.03 5.03 100.90 4.91 C 113.04 5.65 125.23 5.33 137.39 5.54 C 136.62 7.34 135.79 9.10 134.92 10.85 C 131.41 11.66 128.63 13.93 126.14 16.41 C 124.34 16.17 122.55 15.92 120.76 15.70 C 122.00 19.46 126.10 20.16 129.11 21.99 C 130.64 22.61 129.99 24.58 130.23 25.84 C 127.67 26.69 125.07 27.41 122.44 27.98 C 121.29 26.03 120.10 24.11 118.78 22.27 C 117.66 22.29 116.53 22.30 115.41 22.31 C 115.02 25.24 114.69 28.18 114.41 31.13 C 109.70 26.99 104.94 22.90 100.44 18.53 C 97.01 14.71 91.10 14.70 88.10 10.33 Z" />
<path fill="#9ba2d8" opacity="1.00" d=" M 77.18 17.85 C 78.54 17.95 79.91 18.06 81.27 18.18 C 80.89 20.11 80.95 22.98 78.56 23.55 C 73.81 24.95 67.15 24.25 64.77 29.61 C 67.56 29.74 70.36 29.74 73.16 29.76 C 72.94 34.76 73.09 40.00 76.18 44.20 C 75.27 45.29 74.33 46.35 73.36 47.39 C 72.13 46.28 70.91 45.17 69.69 44.06 C 68.91 44.30 68.13 44.55 67.37 44.82 C 65.04 46.58 62.63 48.23 60.03 49.58 C 58.88 48.89 57.74 48.19 56.60 47.50 C 56.48 44.47 56.33 41.44 56.18 38.41 C 58.30 38.86 60.41 39.30 62.55 39.63 C 62.90 36.28 62.41 32.56 59.82 30.15 C 58.36 28.68 55.94 29.30 54.58 30.58 C 51.64 33.03 48.65 35.66 46.89 39.11 C 45.19 45.25 51.65 51.19 48.14 57.07 C 44.66 60.23 40.08 62.43 37.63 66.58 C 37.39 70.62 38.31 74.75 36.92 78.69 C 35.12 84.19 37.73 89.72 37.54 95.27 C 37.43 99.20 37.43 103.13 37.44 107.06 C 37.55 111.86 34.19 116.02 34.91 120.90 C 36.94 120.24 38.94 119.55 40.95 118.84 C 43.30 121.37 45.79 123.87 49.01 125.26 C 47.88 122.82 46.48 120.52 45.07 118.23 C 45.90 118.47 46.74 118.71 47.57 118.97 C 50.39 120.60 52.78 122.84 55.22 124.97 C 54.42 126.08 51.17 127.35 53.00 128.85 C 58.23 131.48 63.84 133.55 68.37 137.38 C 65.02 141.67 59.52 143.07 55.44 146.45 C 53.34 148.19 50.94 149.52 48.24 150.02 C 47.23 147.41 46.44 144.73 45.69 142.04 C 45.78 140.51 45.93 138.99 46.17 137.48 C 47.25 134.72 49.37 131.93 47.37 129.07 C 46.07 130.33 44.78 131.60 43.59 132.97 C 41.56 139.96 42.03 147.44 43.67 154.46 C 41.85 153.95 40.02 153.46 38.22 152.89 C 34.73 150.50 30.95 148.09 28.82 144.31 C 27.76 140.41 28.55 136.28 28.13 132.29 C 24.95 134.58 23.40 138.73 24.57 142.50 C 26.17 147.38 29.12 151.84 32.93 155.27 C 35.38 156.30 37.93 157.03 40.46 157.82 C 38.97 160.17 37.51 162.55 35.91 164.84 C 29.35 173.12 27.39 183.70 25.15 193.73 C 21.66 190.64 18.32 187.39 15.06 184.05 C 12.81 178.69 11.13 173.03 7.81 168.19 C 5.48 164.91 6.65 160.70 6.38 156.98 C 6.55 151.89 4.14 147.15 4.34 142.06 C 4.33 125.69 4.36 109.32 4.32 92.95 C 4.35 90.18 4.25 87.17 5.93 84.80 C 10.43 78.13 15.89 72.18 20.43 65.53 C 22.56 62.38 25.50 59.91 27.87 56.95 C 29.97 53.89 31.12 50.27 33.36 47.29 C 34.25 46.05 35.17 44.83 35.96 43.53 C 36.62 43.95 37.93 44.77 38.58 45.19 C 37.89 47.48 37.25 49.86 35.83 51.83 C 32.43 56.73 29.57 61.96 26.47 67.05 C 26.63 67.54 26.95 68.54 27.10 69.04 C 31.79 64.11 34.23 57.65 38.04 52.11 C 41.16 47.64 40.07 42.00 40.62 36.91 C 43.94 34.14 47.06 31.13 50.46 28.46 C 54.55 25.27 59.37 23.27 63.91 20.84 C 67.91 18.15 73.05 20.29 77.18 17.85 M 20.40 70.30 C 20.26 73.24 20.71 76.46 18.96 79.04 C 16.58 82.79 15.54 87.18 13.29 91.00 C 13.62 91.93 13.97 92.86 14.31 93.79 C 15.80 93.57 17.78 94.22 18.83 92.78 C 20.44 90.97 20.29 88.41 20.38 86.15 C 20.39 80.81 21.63 75.58 21.82 70.26 C 21.47 70.27 20.76 70.29 20.40 70.30 M 31.22 129.56 C 33.69 129.69 36.17 129.65 38.64 129.44 C 39.44 124.31 30.11 124.48 31.22 129.56 Z" />
<path fill="#9ba2d8" opacity="1.00" d=" M 81.78 28.52 C 83.37 25.73 85.23 23.11 87.03 20.46 C 90.16 21.64 93.10 23.24 95.98 24.92 C 92.52 25.03 89.07 25.38 85.67 26.04 C 85.46 27.26 85.25 28.49 85.03 29.71 C 83.94 29.33 82.86 28.94 81.78 28.52 Z" />
<path fill="#9ba2d8" opacity="1.00" d=" M 154.46 27.72 C 156.66 27.39 159.17 26.66 160.44 29.08 C 158.33 29.23 156.31 28.71 154.46 27.72 Z" />
<path fill="#9ba2d8" opacity="1.00" d=" M 117.58 35.25 C 119.76 37.02 122.08 38.60 124.53 39.99 C 123.71 41.15 122.87 42.29 122.10 43.48 C 121.42 47.84 120.70 52.35 118.18 56.10 C 116.36 60.18 111.20 58.78 107.80 60.52 C 106.92 61.42 106.06 62.34 105.21 63.26 C 106.61 64.90 108.18 66.37 109.91 67.66 C 107.39 68.48 104.89 69.36 102.41 70.28 C 104.86 73.98 109.69 74.21 113.52 75.55 C 115.88 76.59 118.19 75.24 120.37 74.44 C 122.15 75.01 123.92 75.58 125.72 76.08 C 123.41 78.68 120.02 79.66 116.84 80.72 C 107.59 77.06 98.92 71.69 88.96 70.03 C 88.76 69.58 88.34 68.68 88.14 68.23 C 92.24 68.46 96.23 69.57 100.34 69.78 C 91.68 63.09 79.88 64.26 69.76 61.71 C 71.99 61.75 74.23 61.73 76.46 61.72 C 76.43 61.26 76.38 60.34 76.35 59.88 C 82.01 63.70 88.73 60.79 94.70 59.50 C 101.68 57.83 105.00 50.32 111.77 48.22 C 110.65 46.14 109.96 43.89 109.09 41.65 C 111.78 40.90 114.52 40.33 117.27 39.81 C 117.38 38.29 117.48 36.77 117.58 35.25 Z" />
<path fill="#9ba2d8" opacity="1.00" d=" M 156.35 36.29 C 158.14 35.48 160.13 35.69 162.03 35.60 C 163.57 38.17 165.46 40.57 166.54 43.38 C 167.50 47.50 162.92 49.49 160.94 52.39 C 159.59 51.79 158.23 51.20 156.88 50.61 C 156.20 51.46 155.52 52.31 154.83 53.15 C 155.09 51.86 155.36 50.57 155.63 49.28 C 157.63 49.48 159.63 49.69 161.63 49.91 C 161.01 48.84 160.40 47.76 159.79 46.68 C 161.63 46.58 163.47 46.50 165.31 46.43 C 164.14 44.39 162.99 42.28 161.38 40.55 C 158.94 39.16 156.22 38.38 153.65 37.30 C 154.55 36.97 155.45 36.63 156.35 36.29 Z" />
<path fill="#9ba2d8" opacity="1.00" d=" M 88.20 43.20 C 90.20 42.42 92.59 43.59 93.39 45.34 C 91.71 44.94 89.16 44.81 88.20 43.20 Z" />
<path fill="#9ba2d8" opacity="1.00" d=" M 93.39 45.34 L 93.63 45.26 C 93.57 45.28 93.45 45.32 93.39 45.34 Z" />
<path fill="#9ba2d8" opacity="1.00" d=" M 126.75 44.84 C 128.21 44.85 129.67 44.79 131.13 44.67 C 131.21 46.22 131.25 47.77 131.24 49.31 C 129.22 48.40 127.70 46.83 126.75 44.84 Z" />
<path fill="#9ba2d8" opacity="1.00" d=" M 168.01 57.20 C 169.76 55.75 171.71 54.24 174.13 54.73 C 174.19 55.43 174.33 56.83 174.40 57.54 C 172.29 58.41 170.01 58.35 168.01 57.20 Z" />
<path fill="#9ba2d8" opacity="1.00" d=" M 56.05 113.59 C 58.40 109.94 60.03 105.90 61.84 101.97 C 61.20 106.55 60.78 111.15 60.35 115.75 C 58.92 115.01 57.49 114.28 56.05 113.59 Z" />
<path fill="#9ba2d8" opacity="1.00" d=" M 213.37 206.60 C 215.27 202.94 218.35 200.13 221.23 197.24 C 221.87 197.72 222.51 198.20 223.15 198.68 C 220.69 201.83 218.03 204.81 215.05 207.47 C 214.63 207.25 213.79 206.82 213.37 206.60 Z" />
<path fill="#9ba2d8" opacity="1.00" d=" M 32.81 206.76 C 34.13 205.90 34.54 206.23 34.04 207.76 C 33.73 207.51 33.11 207.01 32.81 206.76 Z" />
</g>
<g id="#344ab2ff">
<path fill="#344ab2" opacity="1.00" d=" M 142.29 9.35 C 143.64 7.07 146.64 7.14 148.92 6.52 C 149.63 6.69 151.05 7.03 151.76 7.20 C 155.70 8.18 159.73 8.82 163.53 10.29 C 166.02 11.09 168.61 12.64 171.29 11.72 C 172.12 11.49 172.95 11.25 173.78 11.00 C 177.34 15.76 183.93 13.93 188.79 16.18 C 191.37 17.46 194.55 17.48 196.89 19.08 C 201.09 23.63 206.46 26.81 211.13 30.83 C 218.66 35.80 227.12 41.62 229.15 51.01 C 232.46 58.10 236.47 64.86 239.78 71.96 C 243.34 81.41 243.01 91.76 245.72 101.41 C 249.53 110.46 248.17 120.46 248.28 130.01 C 248.02 138.26 248.58 146.67 246.91 154.80 C 245.59 158.36 244.66 162.05 243.88 165.76 C 242.32 169.36 239.99 172.56 238.51 176.20 C 236.73 180.87 232.86 184.25 230.58 188.64 C 228.62 192.35 225.88 195.53 223.15 198.68 C 222.51 198.20 221.87 197.72 221.23 197.24 C 218.35 200.13 215.27 202.94 213.37 206.60 C 213.79 206.82 214.63 207.25 215.05 207.47 C 214.24 208.55 213.50 209.67 212.72 210.78 C 212.07 211.46 211.20 211.77 210.11 211.72 C 207.86 211.94 205.62 212.50 203.73 213.78 C 197.52 217.36 191.11 221.46 183.67 221.41 C 176.61 221.41 170.11 224.95 163.03 224.64 C 146.02 224.45 129.01 224.63 112.00 224.55 C 101.72 224.46 91.36 225.05 81.16 223.37 C 77.19 222.63 73.79 220.31 70.05 218.93 C 65.08 217.12 60.14 215.22 55.13 213.53 C 50.54 212.36 48.73 207.27 44.54 205.42 C 39.82 203.32 34.86 201.59 30.83 198.24 C 31.38 193.31 30.89 188.19 32.55 183.45 C 35.76 175.54 38.78 167.05 45.47 161.34 C 49.64 159.70 52.45 163.44 54.94 166.08 C 57.82 169.37 62.36 169.87 66.28 171.17 C 68.48 171.78 70.63 172.83 72.96 172.80 C 74.95 172.82 76.29 171.19 77.73 170.07 C 72.20 165.60 64.09 168.04 58.87 163.14 C 56.59 161.04 52.74 159.09 53.34 155.42 C 60.08 148.67 68.30 142.51 77.90 140.86 C 83.35 139.56 88.49 143.54 93.89 142.05 C 97.01 141.27 100.09 140.28 103.21 139.50 C 109.13 138.13 114.03 134.27 118.46 130.32 L 119.05 129.84 C 122.09 128.91 125.29 129.08 128.41 129.40 C 129.49 127.38 130.53 125.33 131.57 123.28 C 139.33 117.89 145.57 110.67 150.97 102.99 C 153.49 100.96 156.45 98.62 156.49 95.06 C 156.09 93.26 154.48 92.02 153.44 90.56 C 155.51 88.00 157.83 85.35 158.05 81.89 C 158.46 76.97 157.07 72.05 154.52 67.86 C 156.28 65.64 159.10 65.16 161.70 64.58 C 162.22 63.37 162.74 62.16 163.25 60.94 L 163.81 61.34 C 165.23 62.37 166.64 63.42 168.13 64.36 C 171.22 64.06 173.70 61.35 176.97 61.47 C 179.34 60.98 182.89 61.71 183.93 58.84 C 184.13 56.26 182.90 53.86 182.13 51.47 C 179.73 53.67 177.65 56.55 174.40 57.54 C 174.33 56.83 174.19 55.43 174.13 54.73 C 173.14 53.10 172.04 51.54 170.98 49.96 C 171.39 49.75 172.21 49.34 172.62 49.13 C 173.59 42.70 166.60 38.65 166.45 32.58 C 168.40 30.57 171.24 28.86 170.38 25.59 C 166.66 25.32 163.53 27.36 160.44 29.08 C 159.17 26.66 156.66 27.39 154.46 27.72 C 149.42 26.04 145.47 30.26 140.82 31.17 C 138.34 31.82 136.90 29.33 135.29 27.98 C 136.90 25.78 138.79 23.76 140.12 21.36 C 141.23 17.45 140.15 13.00 142.29 9.35 M 199.95 78.90 C 195.87 84.69 196.36 92.16 194.83 98.81 C 194.55 100.47 194.05 104.06 196.69 103.69 C 198.80 97.41 198.01 90.52 200.15 84.24 C 201.36 81.82 202.96 79.61 203.93 77.07 C 202.53 77.47 200.76 77.47 199.95 78.90 M 157.27 108.72 C 157.87 108.72 159.08 108.73 159.68 108.73 C 159.72 106.46 159.73 104.18 159.67 101.91 C 156.39 102.60 157.42 106.27 157.27 108.72 M 195.47 105.65 C 193.70 108.78 193.28 112.49 192.26 115.91 C 192.85 115.84 194.04 115.69 194.63 115.62 C 196.68 112.43 197.46 108.66 196.81 104.92 C 196.48 105.10 195.81 105.46 195.47 105.65 M 190.00 121.90 C 187.46 125.60 184.33 129.32 184.16 134.02 C 185.43 133.44 186.79 132.85 187.53 131.59 C 189.93 128.07 191.90 124.19 192.89 120.03 C 191.85 120.52 190.63 120.85 190.00 121.90 Z" />
<path fill="#344ab2" opacity="1.00" d=" M 126.14 16.41 C 128.63 13.93 131.41 11.66 134.92 10.85 C 132.28 15.89 131.15 21.51 130.09 27.04 C 128.39 27.60 126.69 28.17 124.99 28.70 C 123.76 29.04 122.54 29.39 121.32 29.72 C 120.41 27.26 119.55 24.78 118.78 22.27 C 120.10 24.11 121.29 26.03 122.44 27.98 C 125.07 27.41 127.67 26.69 130.23 25.84 C 129.99 24.58 130.64 22.61 129.11 21.99 C 126.10 20.16 122.00 19.46 120.76 15.70 C 122.55 15.92 124.34 16.17 126.14 16.41 Z" />
<path fill="#344ab2" opacity="1.00" d=" M 120.32 65.16 C 121.32 59.92 124.30 55.42 126.95 50.90 C 128.16 52.05 129.38 53.19 130.53 54.40 C 130.98 55.62 131.44 56.85 131.92 58.07 C 132.66 61.66 135.68 64.03 139.25 64.38 C 140.43 64.59 141.61 64.75 142.80 64.92 C 146.99 68.17 148.49 73.27 148.80 78.35 C 146.59 78.45 144.34 78.56 142.20 77.90 C 139.16 75.30 135.95 72.71 131.93 71.85 C 127.46 70.85 123.31 68.68 120.32 65.16 Z" />
<path fill="#344ab2" opacity="1.00" d=" M 37.63 66.58 C 40.08 62.43 44.66 60.23 48.14 57.07 C 45.52 65.94 38.62 72.94 36.75 82.09 C 36.72 86.13 38.68 89.91 38.57 93.97 C 38.38 100.31 38.27 106.68 38.88 113.01 C 38.79 114.98 40.66 115.96 41.89 117.17 C 42.34 116.89 43.26 116.33 43.72 116.05 C 43.32 113.85 42.91 111.66 42.52 109.46 C 43.42 108.69 44.32 107.93 45.21 107.14 C 44.31 110.04 43.33 114.75 47.37 115.62 C 49.81 116.58 50.99 114.04 52.27 112.48 C 52.26 113.04 52.25 114.17 52.24 114.73 C 52.90 114.80 54.20 114.95 54.85 115.02 C 53.85 115.96 52.80 116.85 51.76 117.76 C 50.39 117.40 49.01 117.12 47.63 116.84 C 47.61 117.37 47.59 118.44 47.57 118.97 C 46.74 118.71 45.90 118.47 45.07 118.23 C 46.48 120.52 47.88 122.82 49.01 125.26 C 45.79 123.87 43.30 121.37 40.95 118.84 C 38.94 119.55 36.94 120.24 34.91 120.90 C 34.19 116.02 37.55 111.86 37.44 107.06 C 37.43 103.13 37.43 99.20 37.54 95.27 C 37.73 89.72 35.12 84.19 36.92 78.69 C 38.31 74.75 37.39 70.62 37.63 66.58 Z" />
<path fill="#344ab2" opacity="1.00" d=" M 20.40 70.30 C 20.76 70.29 21.47 70.27 21.82 70.26 C 21.63 75.58 20.39 80.81 20.38 86.15 C 20.29 88.41 20.44 90.97 18.83 92.78 C 17.78 94.22 15.80 93.57 14.31 93.79 C 13.97 92.86 13.62 91.93 13.29 91.00 C 15.54 87.18 16.58 82.79 18.96 79.04 C 20.71 76.46 20.26 73.24 20.40 70.30 Z" />
<path fill="#344ab2" opacity="1.00" d=" M 43.67 154.46 C 42.03 147.44 41.56 139.96 43.59 132.97 C 43.64 134.55 43.69 136.13 43.74 137.71 C 44.35 137.65 45.56 137.53 46.17 137.48 C 45.93 138.99 45.78 140.51 45.69 142.04 C 45.10 141.23 44.49 140.43 43.87 139.64 C 41.52 144.34 42.86 149.46 45.19 153.85 C 42.29 157.68 39.19 161.34 35.91 164.84 C 37.51 162.55 38.97 160.17 40.46 157.82 C 37.93 157.03 35.38 156.30 32.93 155.27 C 35.41 156.17 38.08 156.45 40.59 155.53 C 39.82 154.63 39.03 153.75 38.22 152.89 C 40.02 153.46 41.85 153.95 43.67 154.46 Z" />
<path fill="#344ab2" opacity="1.00" d=" M 6.24 175.69 C 7.52 176.16 8.28 177.35 8.30 178.70 C 6.77 179.65 4.89 176.82 6.24 175.69 Z" />
<path fill="#344ab2" opacity="1.00" d=" M 232.94 192.89 C 233.36 192.60 234.21 192.03 234.64 191.74 L 234.71 192.65 L 233.82 193.24 L 232.94 192.89 Z" />
</g>
<g id="#f9f9f9ff">
<path fill="#f9f9f9" opacity="1.00" d=" M 85.67 26.04 C 89.07 25.38 92.52 25.03 95.98 24.92 C 98.63 28.07 101.26 31.23 104.19 34.13 C 104.69 36.47 103.32 38.83 103.06 41.18 C 102.56 39.04 101.94 36.68 99.96 35.43 C 98.42 35.31 97.05 36.04 95.68 36.61 C 95.40 37.20 94.84 38.39 94.56 38.99 C 95.26 40.60 97.19 42.11 95.97 43.96 C 95.54 44.28 94.66 44.91 94.23 45.22 L 93.63 45.26 L 93.39 45.34 C 92.59 43.59 90.20 42.42 88.20 43.20 C 87.79 41.86 87.52 40.47 87.25 39.09 C 86.72 39.20 85.66 39.40 85.13 39.51 L 83.96 39.71 C 81.98 36.19 80.75 32.37 81.19 28.29 L 81.78 28.52 C 82.86 28.94 83.94 29.33 85.03 29.71 C 85.25 28.49 85.46 27.26 85.67 26.04 Z" />
<path fill="#f9f9f9" opacity="1.00" d=" M 138.46 44.71 C 142.28 40.29 148.36 39.13 153.65 37.30 C 156.22 38.38 158.94 39.16 161.38 40.55 C 162.99 42.28 164.14 44.39 165.31 46.43 C 163.47 46.50 161.63 46.58 159.79 46.68 C 160.40 47.76 161.01 48.84 161.63 49.91 C 159.63 49.69 157.63 49.48 155.63 49.28 C 155.36 50.57 155.09 51.86 154.83 53.15 C 151.58 53.56 148.28 53.58 145.04 53.05 C 146.25 51.27 147.53 49.54 148.80 47.80 C 147.94 46.79 147.41 45.43 146.27 44.71 C 143.68 44.30 141.06 44.70 138.46 44.71 Z" />
<path fill="#f9f9f9" opacity="1.00" d=" M 53.71 57.09 C 57.09 57.88 60.50 58.57 63.99 58.45 C 68.13 58.74 72.72 57.18 76.35 59.88 C 76.38 60.34 76.43 61.26 76.46 61.72 C 74.23 61.73 71.99 61.75 69.76 61.71 C 64.30 61.03 58.70 63.78 53.49 61.17 C 53.56 59.81 53.64 58.45 53.71 57.09 Z" />
<path fill="#f9f9f9" opacity="1.00" d=" M 131.92 58.07 C 135.05 59.25 137.22 61.84 139.25 64.38 C 135.68 64.03 132.66 61.66 131.92 58.07 Z" />
<path fill="#f9f9f9" opacity="1.00" d=" M 46.82 67.86 C 50.82 65.91 54.87 67.68 59.02 67.51 C 56.57 70.80 55.01 74.57 54.40 78.63 C 54.06 81.20 51.55 82.35 49.72 83.76 C 47.34 85.33 45.40 87.98 42.26 87.89 C 43.01 81.10 44.35 74.26 46.82 67.86 Z" />
<path fill="#f9f9f9" opacity="1.00" d=" M 60.25 69.30 C 63.50 69.15 66.66 69.96 69.81 70.64 C 69.67 75.55 66.33 79.58 65.42 84.35 C 62.53 85.70 59.60 87.19 56.30 86.70 C 56.08 80.65 59.22 75.18 60.25 69.30 Z" />
<path fill="#f9f9f9" opacity="1.00" d=" M 72.60 73.06 C 75.44 73.32 78.23 73.94 80.90 74.94 L 81.73 75.22 C 82.00 79.49 79.74 83.24 78.32 87.12 C 75.03 87.73 72.13 89.41 69.86 91.84 C 69.51 89.56 68.38 87.37 68.60 85.04 C 69.84 81.02 71.07 76.98 72.60 73.06 Z" />
<path fill="#f9f9f9" opacity="1.00" d=" M 81.79 87.04 C 83.46 83.22 84.29 79.13 85.68 75.22 C 88.68 76.02 91.65 76.92 94.63 77.79 C 93.97 82.32 93.06 86.85 91.21 91.06 C 89.12 92.58 86.33 92.76 83.94 93.67 C 83.13 91.52 80.80 89.49 81.79 87.04 Z" />
<path fill="#f9f9f9" opacity="1.00" d=" M 93.53 94.13 C 95.43 89.04 97.02 83.80 97.91 78.44 C 101.42 79.45 104.97 80.30 108.57 80.91 C 108.85 83.85 108.79 86.86 107.69 89.64 C 106.61 92.44 106.41 95.85 104.11 97.99 C 101.81 98.82 99.33 99.08 96.94 99.59 C 95.77 97.79 94.64 95.97 93.53 94.13 Z" />
<path fill="#f9f9f9" opacity="1.00" d=" M 109.38 94.50 C 110.88 90.93 111.19 87.03 112.48 83.41 C 115.62 84.85 118.90 86.01 121.86 87.82 C 120.58 93.37 119.57 99.02 117.41 104.31 C 115.16 104.60 112.43 106.62 110.46 104.68 C 107.11 102.38 108.30 97.73 109.38 94.50 Z" />
<path fill="#f9f9f9" opacity="1.00" d=" M 121.24 103.34 C 123.20 98.82 123.68 93.84 125.62 89.35 C 128.63 90.74 131.78 91.79 134.98 92.65 C 134.21 95.88 131.44 98.10 130.48 101.27 C 129.07 105.32 127.01 109.09 124.26 112.38 C 123.40 112.49 122.53 112.60 121.67 112.71 C 121.04 109.64 119.67 106.36 121.24 103.34 Z" />
<path fill="#f9f9f9" opacity="1.00" d=" M 42.68 96.67 C 44.72 95.76 46.77 94.89 48.88 94.15 C 47.18 97.31 44.96 100.14 42.86 103.04 C 40.78 101.25 42.06 98.81 42.68 96.67 Z" />
<path fill="#f9f9f9" opacity="1.00" d=" M 137.36 95.49 C 137.86 95.54 138.87 95.66 139.37 95.72 C 139.57 97.97 140.37 100.79 138.48 102.54 C 135.19 105.85 131.98 109.24 129.02 112.86 C 131.23 106.81 134.52 101.25 137.36 95.49 Z" />
<path fill="#f9f9f9" opacity="1.00" d=" M 50.80 97.86 C 52.84 96.75 55.21 96.48 57.44 95.96 C 58.92 102.08 55.98 107.83 52.27 112.48 C 50.99 114.04 49.81 116.58 47.37 115.62 C 43.33 114.75 44.31 110.04 45.21 107.14 C 47.30 104.19 48.82 100.88 50.80 97.86 Z" />
<path fill="#f9f9f9" opacity="1.00" d=" M 61.84 101.97 C 63.31 100.35 65.18 99.24 67.39 99.08 C 68.41 102.03 70.30 104.84 70.51 107.99 C 68.06 113.40 65.35 118.71 62.55 123.96 C 58.53 122.67 55.36 119.82 51.76 117.76 C 52.80 116.85 53.85 115.96 54.85 115.02 C 55.15 114.66 55.75 113.94 56.05 113.59 C 57.49 114.28 58.92 115.01 60.35 115.75 C 60.78 111.15 61.20 106.55 61.84 101.97 Z" />
<path fill="#f9f9f9" opacity="1.00" d=" M 74.72 106.67 C 77.09 105.62 79.36 104.37 81.68 103.21 C 82.70 105.45 83.61 107.73 84.49 110.03 C 81.59 116.89 77.37 122.98 72.70 128.74 C 70.46 127.95 65.68 127.56 66.44 124.27 C 68.72 118.19 72.48 112.78 74.72 106.67 Z" />
<path fill="#f9f9f9" opacity="1.00" d=" M 87.58 111.69 C 89.76 110.53 92.12 109.76 94.45 108.94 C 95.10 111.27 95.82 113.62 95.70 116.08 C 95.85 119.56 93.21 122.18 91.55 124.98 C 89.92 127.52 88.51 130.27 86.32 132.39 C 85.02 133.70 83.26 132.51 81.77 132.33 C 79.32 131.74 77.01 130.77 75.02 129.21 C 78.11 125.87 81.30 122.52 83.52 118.51 C 84.88 116.24 85.87 113.73 87.58 111.69 Z" />
<path fill="#f9f9f9" opacity="1.00" d=" M 99.05 119.96 C 100.65 117.58 103.54 116.69 106.19 116.03 C 106.70 118.01 107.36 119.97 107.73 121.99 C 106.11 125.40 103.15 127.96 100.96 131.01 C 97.97 133.65 93.64 133.02 89.96 133.67 C 90.98 131.93 92.01 130.21 93.15 128.55 C 95.24 125.78 97.09 122.83 99.05 119.96 Z" />
<path fill="#f9f9f9" opacity="1.00" d=" M 114.48 118.43 C 115.44 118.40 116.39 118.33 117.34 118.20 C 117.68 118.94 118.34 120.42 118.68 121.17 C 115.88 124.24 112.77 127.06 110.58 130.63 C 108.59 131.77 106.34 133.18 104.01 132.09 C 108.65 128.46 111.18 123.12 114.48 118.43 Z" />
<path fill="#f9f9f9" opacity="1.00" d=" M 62.09 127.81 C 66.29 129.68 70.20 132.27 74.74 133.32 C 76.21 134.06 77.66 134.86 79.10 135.66 C 77.12 135.71 75.15 135.76 73.18 135.72 C 69.54 133.08 62.88 133.14 62.09 127.81 Z" />
</g>
</svg>
