<?xml version="1.0" encoding="UTF-8" ?>
<!DOCTYPE svg PUBLIC "-//W3C//DTD SVG 1.1//EN" "http://www.w3.org/Graphics/SVG/1.1/DTD/svg11.dtd">
<svg width="210pt" height="220pt" viewBox="0 0 210 220" version="1.1" xmlns="http://www.w3.org/2000/svg">
<g id="#a1a1a1f7">
<path fill="#a1a1a1" opacity="0.97" d=" M 138.13 50.68 C 139.07 49.26 139.83 47.24 141.89 47.37 C 145.62 50.59 148.59 54.53 151.49 58.48 C 154.40 61.71 154.69 66.26 156.00 70.22 C 158.36 79.76 165.49 87.05 168.89 96.14 C 164.83 91.27 162.52 85.19 158.83 80.02 C 151.52 78.22 151.56 69.50 147.43 64.56 C 144.79 62.05 141.50 60.35 138.39 58.50 C 135.27 56.45 131.43 57.51 127.99 57.70 C 130.31 59.47 132.98 60.84 135.02 62.98 C 131.56 61.48 127.69 59.88 126.31 56.02 C 128.03 53.93 130.19 52.51 132.54 55.24 L 132.51 55.56 C 133.49 55.60 134.46 55.58 135.44 55.52 C 139.16 56.85 142.48 59.03 145.71 61.27 C 152.45 65.12 151.06 74.93 157.60 79.13 C 156.62 74.74 154.75 70.61 153.79 66.21 C 153.05 63.59 152.55 60.59 150.29 58.78 C 147.12 56.12 143.98 53.26 140.19 51.51 C 138.53 51.48 137.15 52.52 135.69 53.15 C 134.41 52.94 133.14 52.73 131.87 52.52 C 131.62 52.12 131.13 51.31 130.89 50.91 C 131.90 50.28 132.90 49.62 133.99 49.11 C 135.41 49.52 136.76 50.12 138.13 50.68 Z" />
<path fill="#a1a1a1" opacity="0.97" d=" M 58.89 54.80 C 61.44 53.11 63.80 55.50 64.74 57.76 C 66.02 57.14 67.30 56.54 68.56 55.88 C 69.59 58.06 72.16 56.43 72.45 54.64 C 73.44 55.09 73.95 55.86 73.98 56.93 C 72.60 57.55 71.27 58.24 69.92 58.91 C 68.28 58.77 66.24 57.25 64.95 58.90 C 62.35 61.31 59.89 63.90 56.93 65.88 C 52.60 68.44 52.00 73.82 49.69 77.86 C 47.14 83.37 41.83 86.67 37.95 91.12 C 39.09 87.28 41.65 84.15 44.10 81.07 C 44.56 81.26 45.48 81.64 45.94 81.84 C 49.37 77.26 50.26 71.30 53.69 66.73 C 56.82 63.18 62.39 61.45 63.28 56.26 C 61.77 57.69 60.33 59.19 58.90 60.70 C 57.81 60.26 56.73 59.83 55.64 59.41 C 56.42 58.24 57.19 57.08 58.01 55.95 C 57.96 57.05 57.16 58.34 57.88 59.36 C 59.42 58.58 60.40 57.10 61.58 55.89 C 60.91 55.62 59.57 55.07 58.89 54.80 Z" />
<path fill="#a1a1a1" opacity="0.97" d=" M 71.50 63.74 C 73.08 62.61 74.60 61.39 76.14 60.20 C 77.76 61.79 79.31 64.10 77.21 66.02 C 77.31 65.40 77.50 64.17 77.60 63.55 C 75.64 64.60 73.51 64.71 71.50 63.74 Z" />
<path fill="#a1a1a1" opacity="0.97" d=" M 45.19 79.43 C 45.91 76.81 46.64 74.16 48.05 71.82 C 47.67 74.54 46.99 77.27 45.19 79.43 Z" />
<path fill="#a1a1a1" opacity="0.97" d=" M 75.15 80.95 C 78.17 79.39 75.35 84.24 75.15 80.95 Z" />
<path fill="#a1a1a1" opacity="0.97" d=" M 120.87 86.34 C 121.10 86.49 121.56 86.80 121.78 86.95 C 120.94 88.43 120.10 89.90 119.24 91.37 C 118.25 91.23 116.27 90.94 115.27 90.79 C 117.37 94.31 121.23 91.80 124.26 91.41 C 121.17 93.12 117.63 93.29 114.32 94.19 C 114.29 94.75 114.23 95.88 114.20 96.44 C 118.17 95.81 122.22 95.80 126.18 95.07 C 125.90 95.44 125.34 96.18 125.06 96.55 C 126.14 97.11 127.22 97.67 128.30 98.23 C 128.44 97.09 128.58 95.96 128.73 94.82 C 130.28 98.06 130.87 101.59 130.59 105.16 C 129.66 102.82 129.66 99.42 126.56 98.90 C 126.63 100.73 126.71 102.56 126.80 104.39 C 126.39 103.91 125.57 102.94 125.16 102.46 C 125.17 101.93 125.20 101.40 125.24 100.88 C 122.93 100.45 120.64 99.90 118.38 99.26 C 118.32 100.29 118.26 101.33 118.21 102.37 L 118.13 104.20 C 120.16 104.61 122.23 104.71 124.29 104.83 C 122.33 105.60 120.18 106.01 118.10 105.52 C 116.18 104.12 114.75 102.13 112.91 100.60 C 115.99 98.38 119.76 97.83 123.43 97.38 C 120.45 96.53 117.34 96.59 114.29 96.94 C 113.44 97.98 112.59 99.02 111.74 100.05 C 109.48 97.71 107.09 95.13 107.27 91.63 C 106.79 91.48 105.83 91.18 105.35 91.02 C 105.27 93.87 104.19 96.48 102.50 98.74 C 104.94 97.46 108.19 95.92 109.94 99.09 C 108.21 99.12 106.47 99.12 104.73 99.10 C 105.07 100.33 106.04 101.51 105.80 102.84 C 105.09 104.02 104.17 105.06 103.31 106.14 C 103.28 104.36 103.94 102.45 103.25 100.75 C 101.94 98.82 99.77 97.74 97.97 96.35 C 96.57 97.01 95.17 97.67 93.78 98.33 C 96.09 98.82 98.39 99.42 100.47 100.58 C 100.04 102.18 99.63 103.79 99.26 105.40 C 96.59 106.43 93.75 106.72 90.91 106.75 C 93.06 105.96 95.15 105.01 97.14 103.87 C 93.60 103.33 89.95 103.28 86.66 104.87 C 86.67 103.51 86.67 102.16 86.67 100.80 C 88.97 99.24 91.27 97.67 93.60 96.15 C 91.09 95.71 88.54 95.37 86.12 94.56 C 86.40 93.51 86.76 92.49 87.19 91.49 C 87.12 92.16 86.97 93.48 86.90 94.14 C 90.61 94.54 94.22 95.53 97.93 95.96 C 98.94 95.29 100.28 94.57 100.28 93.16 C 98.29 92.44 96.11 92.81 94.14 92.06 C 96.14 91.76 98.20 91.39 100.18 91.97 C 102.04 93.25 99.95 95.45 99.65 96.96 C 103.42 96.30 103.31 92.28 103.45 89.26 C 104.53 89.79 105.66 90.18 106.84 90.43 C 107.15 89.83 107.75 88.62 108.06 88.01 C 108.47 88.75 108.89 89.50 109.29 90.26 C 109.62 92.77 109.96 95.32 111.05 97.64 C 113.24 96.62 113.08 94.13 113.67 92.16 C 113.41 92.00 112.88 91.68 112.61 91.52 C 113.42 90.60 114.22 89.67 115.03 88.73 C 116.16 89.52 117.29 90.30 118.43 91.09 C 119.26 89.51 120.07 87.93 120.87 86.34 M 87.82 102.21 C 90.28 102.32 92.73 102.61 95.17 102.98 C 95.68 102.08 96.19 101.19 96.70 100.30 C 93.66 100.53 90.74 101.42 87.82 102.21 Z" />
<path fill="#a1a1a1" opacity="0.97" d=" M 143.63 90.98 C 144.66 91.57 145.69 92.16 146.73 92.74 C 146.30 94.00 145.83 95.25 145.14 96.40 C 144.83 96.07 144.20 95.42 143.89 95.09 C 143.80 93.72 143.72 92.35 143.63 90.98 Z" />
<path fill="#a1a1a1" opacity="0.97" d=" M 80.34 104.01 C 80.18 100.41 82.07 97.01 84.96 94.94 C 83.89 98.17 82.31 101.22 80.34 104.01 Z" />
<path fill="#a1a1a1" opacity="0.97" d=" M 71.02 115.73 C 70.81 109.09 70.80 101.88 74.02 95.87 C 72.82 100.49 72.28 105.26 71.83 110.01 C 71.50 113.02 72.94 116.47 70.57 118.94 C 71.01 120.26 71.46 121.59 71.91 122.92 C 69.76 123.02 67.77 122.31 66.14 120.94 C 66.11 120.18 66.06 118.66 66.03 117.90 C 67.08 119.06 68.13 120.22 69.19 121.36 C 69.35 119.42 70.08 117.39 69.50 115.47 C 67.65 114.99 65.73 114.80 63.84 114.52 C 63.98 116.54 64.09 118.55 64.27 120.57 L 62.63 120.45 C 62.52 120.20 62.31 119.69 62.20 119.44 L 63.52 120.04 C 63.37 117.78 63.20 115.52 63.04 113.26 C 65.86 113.49 68.98 113.33 71.02 115.73 Z" />
<path fill="#a1a1a1" opacity="0.97" d=" M 49.65 117.58 C 53.33 113.82 53.87 108.27 56.93 104.12 C 58.94 108.23 59.71 112.75 61.19 117.04 C 59.81 113.51 58.68 109.86 56.89 106.50 C 54.90 110.54 53.30 114.90 50.22 118.30 C 47.92 121.26 44.20 122.33 40.96 123.91 C 43.18 120.96 47.42 120.58 49.65 117.58 Z" />
<path fill="#a1a1a1" opacity="0.97" d=" M 92.84 112.61 C 95.21 110.61 98.04 109.23 100.96 108.23 C 99.32 111.08 96.11 112.78 92.84 112.61 Z" />
<path fill="#a1a1a1" opacity="0.97" d=" M 116.11 108.96 C 117.37 110.15 118.50 111.48 119.22 113.07 C 117.00 112.77 115.97 111.09 116.11 108.96 Z" />
<path fill="#a1a1a1" opacity="0.97" d=" M 113.24 109.91 C 114.52 111.59 115.53 113.45 116.48 115.34 C 118.91 116.18 119.88 118.39 119.84 120.83 C 117.62 121.69 115.24 121.71 112.95 121.17 C 110.61 123.10 107.55 123.33 105.02 121.60 C 103.73 121.66 102.44 121.73 101.16 121.80 C 100.10 121.15 99.05 120.51 98.00 119.87 C 97.81 120.61 97.44 122.09 97.25 122.83 C 94.98 119.44 98.88 116.74 101.34 115.02 C 101.42 113.79 101.51 112.56 101.59 111.34 C 102.06 111.33 103.01 111.32 103.48 111.31 C 103.45 112.61 103.42 113.91 103.38 115.22 C 101.57 116.17 100.21 117.68 99.07 119.34 C 101.01 121.54 102.90 118.91 105.05 118.80 C 106.58 119.35 107.31 121.38 109.02 121.43 C 110.68 120.61 112.22 119.58 113.80 118.63 C 114.38 119.12 115.52 120.09 116.10 120.58 C 119.13 120.28 116.82 115.75 114.40 116.48 C 113.91 114.31 113.48 112.12 113.24 109.91 Z" />
<path fill="#a1a1a1" opacity="0.97" d=" M 182.90 112.90 C 184.96 114.95 186.99 117.03 188.94 119.19 C 193.41 119.42 197.85 120.03 202.24 120.90 C 202.43 122.91 202.40 124.97 202.85 126.95 C 204.76 130.63 207.27 133.95 209.56 137.41 L 210.00 136.07 L 210.00 138.52 C 205.71 135.13 203.34 129.98 200.71 125.32 C 198.09 127.26 195.42 129.54 192.05 129.90 C 184.76 130.79 177.40 130.74 170.07 130.87 C 171.49 140.93 174.91 150.55 177.00 160.46 C 175.92 159.78 174.70 159.10 174.43 157.74 C 172.67 152.69 171.63 147.43 170.19 142.29 C 168.65 142.54 167.12 142.78 165.59 143.02 C 167.12 141.91 168.93 141.36 170.75 140.94 C 169.66 130.89 164.87 121.78 158.98 113.74 C 164.14 117.62 166.48 123.98 168.96 129.72 C 177.44 128.70 186.13 128.96 194.46 126.98 C 191.23 121.80 185.81 118.35 182.90 112.90 M 190.83 120.34 C 191.44 123.00 194.92 123.85 194.71 126.86 C 197.14 125.64 199.47 124.17 201.26 122.09 C 197.82 121.28 194.32 120.80 190.83 120.34 Z" />
<path fill="#a1a1a1" opacity="0.97" d=" M 134.37 118.47 C 134.98 117.64 135.60 116.82 136.22 116.00 C 135.63 118.58 135.65 121.25 135.22 123.86 C 134.67 126.20 131.26 127.24 132.11 129.98 C 134.95 135.13 138.98 139.52 142.80 143.95 C 144.21 143.38 145.62 142.80 147.03 142.21 C 146.81 142.42 146.38 142.84 146.16 143.05 C 141.61 146.73 140.76 152.89 138.52 157.98 C 139.73 158.67 140.94 159.36 142.15 160.06 C 142.16 164.91 142.66 170.62 138.94 174.37 C 139.60 169.98 140.33 165.58 140.14 161.13 C 134.90 159.90 130.39 156.93 126.97 152.82 C 125.43 158.53 124.21 164.32 122.81 170.07 C 122.54 171.70 121.56 173.05 120.51 174.28 C 120.35 168.48 122.26 162.94 123.79 157.42 C 121.04 159.40 118.34 161.75 114.93 162.45 C 107.52 163.89 99.91 163.85 92.40 163.40 C 92.36 164.52 92.32 165.65 92.28 166.78 C 93.08 167.56 93.88 168.35 94.68 169.14 C 93.97 170.67 93.24 172.18 92.37 173.63 C 92.42 172.19 92.51 170.76 92.60 169.33 C 82.90 168.10 73.70 162.62 68.73 154.09 C 66.06 150.16 68.89 145.54 69.48 141.39 C 66.20 142.85 63.33 145.17 59.94 146.37 C 56.56 146.42 53.09 145.85 49.83 147.11 C 51.79 148.85 53.77 150.63 55.10 152.92 C 51.05 151.22 47.61 147.57 43.01 147.55 C 39.15 148.71 35.10 150.33 31.17 148.38 C 31.79 152.74 31.64 157.17 30.66 161.46 C 29.96 164.28 29.66 167.56 27.24 169.51 C 27.87 163.67 29.91 157.95 29.39 152.00 C 29.09 148.34 28.53 144.53 30.12 141.06 C 24.82 140.66 18.31 141.02 14.73 136.29 C 12.05 133.33 15.15 129.80 15.42 126.58 C 14.30 124.92 12.93 123.46 11.70 121.88 C 14.17 122.35 16.57 123.55 17.63 125.95 C 17.38 128.95 15.49 131.82 16.14 134.87 C 19.64 139.22 25.99 138.75 31.00 139.55 C 32.01 138.66 33.02 137.79 34.00 136.87 C 32.38 140.16 29.66 143.17 30.14 147.10 C 32.06 147.53 33.95 148.15 35.92 148.41 C 38.50 147.95 40.85 146.69 43.23 145.63 C 44.88 146.36 46.53 147.12 48.24 147.70 C 49.86 147.01 51.10 145.71 52.49 144.66 C 55.31 144.69 58.21 145.30 60.98 144.56 C 64.20 143.21 67.07 141.11 70.43 140.07 C 70.88 139.20 71.76 137.46 72.21 136.59 C 70.44 136.21 67.63 137.62 66.57 135.62 C 65.99 133.11 65.78 130.53 65.19 128.02 C 65.89 130.27 66.36 132.61 67.28 134.78 C 68.19 136.59 70.26 135.47 71.67 135.10 C 72.23 133.26 72.80 131.42 73.36 129.57 C 72.23 129.51 71.09 129.43 69.97 129.33 C 71.20 128.84 72.43 128.34 73.66 127.85 C 74.17 132.40 74.22 137.32 76.69 141.33 C 79.38 144.41 82.75 146.79 85.96 149.29 C 89.10 149.61 91.83 151.34 94.91 151.88 C 98.55 152.61 102.15 153.54 105.78 154.33 C 108.37 154.78 111.35 155.28 113.64 153.61 C 120.91 148.99 124.34 140.81 128.75 133.79 C 130.72 130.74 129.91 125.80 134.05 124.55 C 134.56 123.01 134.71 121.41 134.15 119.86 C 133.34 121.77 133.86 124.74 131.26 125.40 C 131.61 122.53 132.09 119.69 132.64 116.86 C 133.07 117.26 133.93 118.06 134.37 118.47 M 127.55 140.10 C 127.18 143.34 127.18 146.64 127.46 149.90 C 129.37 153.70 132.86 156.86 137.12 157.70 C 137.60 152.89 140.56 148.78 141.40 144.12 C 138.23 140.18 134.88 136.36 132.14 132.08 C 130.58 134.73 128.64 137.20 127.55 140.10 M 72.53 138.24 C 71.54 141.84 70.44 145.42 69.74 149.09 C 69.35 150.36 69.53 151.55 70.25 152.65 C 74.30 160.17 81.89 165.35 90.19 167.05 C 90.52 162.76 90.24 158.31 88.80 154.24 C 83.53 148.75 75.68 145.63 72.53 138.24 M 117.68 152.72 C 115.29 154.84 112.37 157.05 108.97 156.50 C 102.33 155.71 95.85 153.92 89.39 152.23 C 91.56 154.73 91.71 158.15 92.25 161.25 C 99.26 162.30 106.39 161.50 113.36 160.54 C 119.18 159.67 124.00 155.29 126.21 149.95 C 126.59 147.76 125.87 145.55 125.67 143.37 C 123.27 146.69 120.81 150.03 117.68 152.72 Z" />
<path fill="#a1a1a1" opacity="0.97" d=" M 96.26 131.95 C 96.37 128.80 97.75 125.25 100.90 124.03 C 99.79 126.90 98.19 129.56 96.26 131.95 Z" />
<path fill="#a1a1a1" opacity="0.97" d=" M 119.16 123.88 C 120.88 125.18 122.06 126.98 121.86 129.23 C 119.71 128.32 119.46 125.90 119.16 123.88 Z" />
<path fill="#a1a1a1" opacity="0.97" d=" M 99.47 133.91 C 101.20 131.97 102.70 129.68 104.95 128.30 C 107.35 128.38 109.76 128.59 112.12 128.01 C 113.71 129.25 115.47 130.38 116.67 132.04 C 116.89 135.20 113.71 137.73 110.94 138.60 C 106.39 139.88 102.93 136.13 99.47 133.91 M 102.06 132.45 C 103.61 132.96 104.97 132.12 106.31 131.48 C 109.28 131.29 112.28 131.49 115.06 132.67 C 114.41 131.36 113.47 130.30 112.25 129.48 C 108.69 130.47 104.28 128.52 102.06 132.45 M 103.02 135.00 C 106.54 138.04 113.21 138.42 114.98 133.35 C 111.19 133.98 107.37 134.14 103.58 133.45 C 103.44 133.84 103.16 134.61 103.02 135.00 Z" />
<path fill="#a1a1a1" opacity="0.97" d=" M 103.95 145.12 C 105.91 140.48 113.85 141.00 115.07 145.92 C 113.35 145.30 111.67 144.53 109.90 144.04 C 107.83 143.20 105.93 146.10 103.95 145.12 Z" />
<path fill="#a1a1a1" opacity="0.97" d=" M 156.63 141.48 C 159.39 142.29 162.19 143.00 165.05 143.36 C 162.38 145.78 158.73 143.60 156.63 141.48 Z" />
<path fill="#a1a1a1" opacity="0.97" d=" M 157.55 150.07 C 157.93 150.25 158.71 150.61 159.10 150.79 C 161.63 159.20 164.44 167.52 166.89 175.95 C 166.63 175.95 166.11 175.95 165.85 175.95 C 162.39 167.55 159.89 158.84 157.55 150.07 Z" />
</g>
<g id="#000000ff">
<path fill="#000000" opacity="1.00" d=" M 74.80 60.04 C 83.14 59.83 86.66 49.98 94.90 49.48 C 101.27 49.36 108.05 49.36 113.87 52.26 C 121.29 56.03 129.42 60.18 133.47 67.82 C 133.99 69.53 134.38 71.27 134.82 73.01 C 132.70 72.68 130.59 72.39 128.47 72.12 C 128.43 73.57 128.40 75.02 128.38 76.48 C 132.09 78.65 136.37 79.66 140.00 81.99 C 142.67 83.70 144.11 86.62 145.73 89.24 C 145.20 89.67 144.16 90.55 143.63 90.98 C 143.72 92.35 143.80 93.72 143.89 95.09 C 143.47 93.80 143.16 92.48 142.86 91.16 C 143.38 90.63 144.42 89.56 144.94 89.02 C 143.70 86.67 142.23 84.44 140.33 82.56 C 140.18 88.65 142.77 94.87 140.56 100.83 C 138.98 105.73 138.07 110.83 136.28 115.67 C 136.26 115.16 136.22 114.14 136.20 113.63 C 135.23 114.43 134.26 115.23 133.29 116.02 C 133.16 109.67 133.70 103.21 132.16 96.98 C 131.31 94.02 129.91 91.26 128.58 88.50 C 126.14 88.97 123.66 88.75 121.78 86.95 C 121.56 86.80 121.10 86.49 120.87 86.34 C 120.07 87.93 119.26 89.51 118.43 91.09 C 117.29 90.30 116.16 89.52 115.03 88.73 C 114.22 89.67 113.42 90.60 112.61 91.52 L 111.43 90.83 C 110.89 90.69 109.83 90.40 109.29 90.26 C 108.89 89.50 108.47 88.75 108.06 88.01 C 107.75 88.62 107.15 89.83 106.84 90.43 C 105.66 90.18 104.53 89.79 103.45 89.26 C 100.00 86.73 96.13 84.89 92.02 83.73 C 89.56 83.35 89.00 80.69 88.02 78.83 C 86.87 78.38 85.73 77.92 84.58 77.46 C 83.04 81.00 84.34 84.60 85.02 88.16 C 83.45 86.37 82.08 84.43 80.78 82.44 C 81.91 88.26 76.21 91.28 74.02 95.87 C 70.80 101.88 70.81 109.09 71.02 115.73 C 68.98 113.33 65.86 113.49 63.04 113.26 C 63.20 115.52 63.37 117.78 63.52 120.04 L 62.20 119.44 C 61.95 118.84 61.44 117.64 61.19 117.04 C 59.71 112.75 58.94 108.23 56.93 104.12 C 56.87 103.79 56.74 103.13 56.67 102.80 C 58.61 100.35 60.67 97.98 61.92 95.08 C 67.25 92.15 70.66 86.65 76.26 84.08 C 78.98 83.38 78.46 80.41 78.62 78.26 C 76.41 78.68 74.23 79.22 72.03 79.67 C 71.77 79.79 71.25 80.04 70.99 80.17 C 65.28 83.63 59.35 86.79 54.12 91.01 C 56.46 88.72 59.50 87.21 61.52 84.58 C 63.34 82.53 64.06 79.83 65.46 77.53 C 69.09 73.40 73.10 69.65 77.21 66.02 C 79.31 64.10 77.76 61.79 76.14 60.20 C 74.60 61.39 73.08 62.61 71.50 63.74 C 66.83 66.50 62.30 69.58 58.32 73.27 C 54.56 77.98 51.84 83.50 47.51 87.78 C 51.34 83.36 54.28 78.29 57.62 73.52 C 63.03 68.41 69.44 64.23 74.30 58.56 C 74.22 58.16 74.06 57.34 73.98 56.93 C 73.95 55.86 73.44 55.09 72.45 54.64 C 71.88 54.53 70.75 54.31 70.18 54.20 L 70.98 53.44 C 72.22 53.98 73.44 54.59 74.58 55.32 C 74.81 56.89 74.88 58.46 74.80 60.04 Z" />
<path fill="#000000" opacity="1.00" d=" M 87.70 90.15 C 89.99 90.22 92.13 91.01 94.14 92.06 C 96.11 92.81 98.29 92.44 100.28 93.16 C 100.28 94.57 98.94 95.29 97.93 95.96 C 94.22 95.53 90.61 94.54 86.90 94.14 C 86.97 93.48 87.12 92.16 87.19 91.49 C 87.32 91.16 87.57 90.48 87.70 90.15 Z" />
<path fill="#000000" opacity="1.00" d=" M 124.26 91.41 C 124.70 91.30 125.59 91.08 126.04 90.97 C 126.59 92.04 127.14 93.11 127.69 94.18 C 127.31 94.40 126.56 94.85 126.18 95.07 C 122.22 95.80 118.17 95.81 114.20 96.44 C 114.23 95.88 114.29 94.75 114.32 94.19 C 117.63 93.29 121.17 93.12 124.26 91.41 Z" />
<path fill="#000000" opacity="1.00" d=" M 170.24 97.49 C 173.00 99.94 174.94 103.12 177.04 106.11 C 174.44 103.51 172.42 100.43 170.24 97.49 Z" />
<path fill="#000000" opacity="1.00" d=" M 118.38 99.26 C 120.64 99.90 122.93 100.45 125.24 100.88 C 125.20 101.40 125.17 101.93 125.16 102.46 C 122.84 102.24 120.52 102.35 118.21 102.37 C 118.26 101.33 118.32 100.29 118.38 99.26 Z" />
<path fill="#000000" opacity="1.00" d=" M 87.82 102.21 C 90.74 101.42 93.66 100.53 96.70 100.30 C 96.19 101.19 95.68 102.08 95.17 102.98 C 92.73 102.61 90.28 102.32 87.82 102.21 Z" />
<path fill="#000000" opacity="1.00" d=" M 110.44 100.00 C 111.35 102.39 112.95 104.38 114.64 106.27 C 114.51 106.33 114.25 106.44 114.12 106.50 C 113.25 104.90 111.84 103.72 110.46 102.57 C 110.46 101.93 110.45 100.64 110.44 100.00 Z" />
<path fill="#000000" opacity="1.00" d=" M 62.63 120.45 L 64.27 120.57 C 64.74 124.18 66.88 127.41 69.97 129.33 C 71.09 129.43 72.23 129.51 73.36 129.57 C 72.80 131.42 72.23 133.26 71.67 135.10 C 70.26 135.47 68.19 136.59 67.28 134.78 C 66.36 132.61 65.89 130.27 65.19 128.02 C 64.43 125.47 63.54 122.95 62.63 120.45 Z" />
</g>
<g id="#fefefeff">
<path fill="#fefefe" opacity="1.00" d=" M 135.69 53.15 C 137.15 52.52 138.53 51.48 140.19 51.51 C 143.98 53.26 147.12 56.12 150.29 58.78 C 152.55 60.59 153.05 63.59 153.79 66.21 C 154.75 70.61 156.62 74.74 157.60 79.13 C 151.06 74.93 152.45 65.12 145.71 61.27 C 142.48 59.03 139.16 56.85 135.44 55.52 C 134.46 55.58 133.49 55.60 132.51 55.56 L 132.54 55.24 C 132.59 54.92 132.69 54.29 132.75 53.98 L 131.87 52.52 C 133.14 52.73 134.41 52.94 135.69 53.15 Z" />
<path fill="#fefefe" opacity="1.00" d=" M 70.18 54.20 C 70.75 54.31 71.88 54.53 72.45 54.64 C 72.16 56.43 69.59 58.06 68.56 55.88 C 68.97 55.46 69.78 54.62 70.18 54.20 Z" />
<path fill="#fefefe" opacity="1.00" d=" M 58.01 55.95 C 58.23 55.66 58.67 55.09 58.89 54.80 C 59.57 55.07 60.91 55.62 61.58 55.89 C 60.40 57.10 59.42 58.58 57.88 59.36 C 57.16 58.34 57.96 57.05 58.01 55.95 Z" />
<path fill="#fefefe" opacity="1.00" d=" M 58.90 60.70 C 60.33 59.19 61.77 57.69 63.28 56.26 C 62.39 61.45 56.82 63.18 53.69 66.73 C 50.26 71.30 49.37 77.26 45.94 81.84 C 45.48 81.64 44.56 81.26 44.10 81.07 C 44.38 80.66 44.92 79.84 45.19 79.43 C 46.99 77.27 47.67 74.54 48.05 71.82 C 50.87 67.85 52.90 63.41 55.64 59.41 C 56.73 59.83 57.81 60.26 58.90 60.70 Z" />
<path fill="#fefefe" opacity="1.00" d=" M 69.92 58.91 C 71.27 58.24 72.60 57.55 73.98 56.93 C 74.06 57.34 74.22 58.16 74.30 58.56 C 69.44 64.23 63.03 68.41 57.62 73.52 C 54.28 78.29 51.34 83.36 47.51 87.78 C 51.84 83.50 54.56 77.98 58.32 73.27 C 62.30 69.58 66.83 66.50 71.50 63.74 C 73.51 64.71 75.64 64.60 77.60 63.55 C 77.50 64.17 77.31 65.40 77.21 66.02 C 73.10 69.65 69.09 73.40 65.46 77.53 C 64.06 79.83 63.34 82.53 61.52 84.58 C 59.50 87.21 56.46 88.72 54.12 91.01 C 59.35 86.79 65.28 83.63 70.99 80.17 C 71.25 80.04 71.77 79.79 72.03 79.67 C 74.23 79.22 76.41 78.68 78.62 78.26 C 78.46 80.41 78.98 83.38 76.26 84.08 C 70.66 86.65 67.25 92.15 61.92 95.08 C 60.67 97.98 58.61 100.35 56.67 102.80 C 56.74 103.13 56.87 103.79 56.93 104.12 C 53.87 108.27 53.33 113.82 49.65 117.58 C 47.42 120.58 43.18 120.96 40.96 123.91 C 38.84 128.34 36.48 132.64 34.00 136.87 C 33.02 137.79 32.01 138.66 31.00 139.55 C 25.99 138.75 19.64 139.22 16.14 134.87 C 15.49 131.82 17.38 128.95 17.63 125.95 C 16.57 123.55 14.17 122.35 11.70 121.88 C 12.93 123.46 14.30 124.92 15.42 126.58 C 15.15 129.80 12.05 133.33 14.73 136.29 C 18.31 141.02 24.82 140.66 30.12 141.06 C 28.53 144.53 29.09 148.34 29.39 152.00 C 29.91 157.95 27.87 163.67 27.24 169.51 C 29.66 167.56 29.96 164.28 30.66 161.46 C 31.64 157.17 31.79 152.74 31.17 148.38 C 35.10 150.33 39.15 148.71 43.01 147.55 C 47.61 147.57 51.05 151.22 55.10 152.92 C 53.77 150.63 51.79 148.85 49.83 147.11 C 53.09 145.85 56.56 146.42 59.94 146.37 C 63.33 145.17 66.20 142.85 69.48 141.39 C 68.89 145.54 66.06 150.16 68.73 154.09 C 73.70 162.62 82.90 168.10 92.60 169.33 C 92.51 170.76 92.42 172.19 92.37 173.63 C 93.24 172.18 93.97 170.67 94.68 169.14 C 93.88 168.35 93.08 167.56 92.28 166.78 C 92.32 165.65 92.36 164.52 92.40 163.40 C 99.91 163.85 107.52 163.89 114.93 162.45 C 118.34 161.75 121.04 159.40 123.79 157.42 C 122.26 162.94 120.35 168.48 120.51 174.28 C 121.56 173.05 122.54 171.70 122.81 170.07 C 124.21 164.32 125.43 158.53 126.97 152.82 C 130.39 156.93 134.90 159.90 140.14 161.13 C 140.33 165.58 139.60 169.98 138.94 174.37 C 142.66 170.62 142.16 164.91 142.15 160.06 C 140.94 159.36 139.73 158.67 138.52 157.98 C 140.76 152.89 141.61 146.73 146.16 143.05 C 146.38 142.84 146.81 142.42 147.03 142.21 C 149.06 139.91 151.92 138.39 154.93 139.90 C 155.49 140.43 156.05 140.96 156.63 141.48 C 158.73 143.60 162.38 145.78 165.05 143.36 L 165.59 143.02 C 167.12 142.78 168.65 142.54 170.19 142.29 C 171.63 147.43 172.67 152.69 174.43 157.74 C 174.70 159.10 175.92 159.78 177.00 160.46 C 174.91 150.55 171.49 140.93 170.07 130.87 C 177.40 130.74 184.76 130.79 192.05 129.90 C 195.42 129.54 198.09 127.26 200.71 125.32 C 203.34 129.98 205.71 135.13 210.00 138.52 L 210.00 175.92 C 195.63 175.99 181.26 175.94 166.89 175.95 C 164.44 167.52 161.63 159.20 159.10 150.79 C 158.71 150.61 157.93 150.25 157.55 150.07 C 159.89 158.84 162.39 167.55 165.85 175.95 C 110.57 175.94 55.28 175.98 0.00 175.93 L 0.00 135.75 C 3.61 132.36 8.79 129.67 9.15 124.11 C 10.10 122.67 11.01 121.19 12.23 119.96 C 13.62 118.51 15.79 119.58 17.11 120.55 C 19.65 117.65 21.99 114.52 25.07 112.16 C 27.34 110.44 29.38 108.41 30.89 105.98 C 32.32 101.38 35.56 97.67 37.21 93.17 C 37.40 92.66 37.76 91.63 37.95 91.12 C 41.83 86.67 47.14 83.37 49.69 77.86 C 52.00 73.82 52.60 68.44 56.93 65.88 C 59.89 63.90 62.35 61.31 64.95 58.90 C 66.24 57.25 68.28 58.77 69.92 58.91 M 75.15 80.95 C 75.35 84.24 78.17 79.39 75.15 80.95 Z" />
<path fill="#fefefe" opacity="1.00" d=" M 127.99 57.70 C 131.43 57.51 135.27 56.45 138.39 58.50 C 141.50 60.35 144.79 62.05 147.43 64.56 C 151.56 69.50 151.52 78.22 158.83 80.02 C 162.52 85.19 164.83 91.27 168.89 96.14 C 169.23 96.48 169.91 97.15 170.24 97.49 C 172.42 100.43 174.44 103.51 177.04 106.11 C 179.01 108.36 180.97 110.62 182.90 112.90 C 185.81 118.35 191.23 121.80 194.46 126.98 C 186.13 128.96 177.44 128.70 168.96 129.72 C 166.48 123.98 164.14 117.62 158.98 113.74 C 156.64 111.90 153.35 111.17 151.76 108.50 C 150.30 105.41 149.41 102.10 148.29 98.89 C 147.22 98.08 146.16 97.27 145.14 96.40 C 145.83 95.25 146.30 94.00 146.73 92.74 C 145.69 92.16 144.66 91.57 143.63 90.98 C 144.16 90.55 145.20 89.67 145.73 89.24 C 144.11 86.62 142.67 83.70 140.00 81.99 C 136.37 79.66 132.09 78.65 128.38 76.48 C 128.40 75.02 128.43 73.57 128.47 72.12 C 130.59 72.39 132.70 72.68 134.82 73.01 C 134.38 71.27 133.99 69.53 133.47 67.82 C 134.35 69.47 134.66 71.40 135.76 72.92 C 138.43 74.35 141.26 75.43 144.15 76.29 C 143.17 73.89 142.39 71.40 141.11 69.13 C 139.10 67.07 136.79 65.28 135.02 62.98 C 132.98 60.84 130.31 59.47 127.99 57.70 Z" />
<path fill="#fefefe" opacity="1.00" d=" M 84.58 77.46 C 85.73 77.92 86.87 78.38 88.02 78.83 C 89.00 80.69 89.56 83.35 92.02 83.73 C 96.13 84.89 100.00 86.73 103.45 89.26 C 103.31 92.28 103.42 96.30 99.65 96.96 C 99.95 95.45 102.04 93.25 100.18 91.97 C 98.20 91.39 96.14 91.76 94.14 92.06 C 92.13 91.01 89.99 90.22 87.70 90.15 C 87.57 90.48 87.32 91.16 87.19 91.49 C 86.76 92.49 86.40 93.51 86.12 94.56 C 88.54 95.37 91.09 95.71 93.60 96.15 C 91.27 97.67 88.97 99.24 86.67 100.80 C 86.67 102.16 86.67 103.51 86.66 104.87 C 89.95 103.28 93.60 103.33 97.14 103.87 C 95.15 105.01 93.06 105.96 90.91 106.75 C 93.75 106.72 96.59 106.43 99.26 105.40 C 99.63 103.79 100.04 102.18 100.47 100.58 C 98.39 99.42 96.09 98.82 93.78 98.33 C 95.17 97.67 96.57 97.01 97.97 96.35 C 99.77 97.74 101.94 98.82 103.25 100.75 C 103.94 102.45 103.28 104.36 103.31 106.14 C 104.17 105.06 105.09 104.02 105.80 102.84 C 106.04 101.51 105.07 100.33 104.73 99.10 C 106.47 99.12 108.21 99.12 109.94 99.09 C 108.19 95.92 104.94 97.46 102.50 98.74 C 104.19 96.48 105.27 93.87 105.35 91.02 C 105.83 91.18 106.79 91.48 107.27 91.63 C 107.09 95.13 109.48 97.71 111.74 100.05 C 112.59 99.02 113.44 97.98 114.29 96.94 C 117.34 96.59 120.45 96.53 123.43 97.38 C 119.76 97.83 115.99 98.38 112.91 100.60 C 114.75 102.13 116.18 104.12 118.10 105.52 C 120.18 106.01 122.33 105.60 124.29 104.83 C 122.23 104.71 120.16 104.61 118.13 104.20 L 118.21 102.37 C 120.52 102.35 122.84 102.24 125.16 102.46 C 125.57 102.94 126.39 103.91 126.80 104.39 C 126.71 102.56 126.63 100.73 126.56 98.90 C 129.66 99.42 129.66 102.82 130.59 105.16 C 130.87 101.59 130.28 98.06 128.73 94.82 C 128.58 95.96 128.44 97.09 128.30 98.23 C 127.22 97.67 126.14 97.11 125.06 96.55 C 125.34 96.18 125.90 95.44 126.18 95.07 C 126.56 94.85 127.31 94.40 127.69 94.18 C 127.14 93.11 126.59 92.04 126.04 90.97 C 125.59 91.08 124.70 91.30 124.26 91.41 C 121.23 91.80 117.37 94.31 115.27 90.79 C 116.27 90.94 118.25 91.23 119.24 91.37 C 120.10 89.90 120.94 88.43 121.78 86.95 C 123.66 88.75 126.14 88.97 128.58 88.50 C 129.91 91.26 131.31 94.02 132.16 96.98 C 133.70 103.21 133.16 109.67 133.29 116.02 C 134.26 115.23 135.23 114.43 136.20 113.63 C 136.22 114.14 136.26 115.16 136.28 115.67 L 136.22 116.00 C 135.60 116.82 134.98 117.64 134.37 118.47 C 133.93 118.06 133.07 117.26 132.64 116.86 C 132.09 119.69 131.61 122.53 131.26 125.40 C 133.86 124.74 133.34 121.77 134.15 119.86 C 134.71 121.41 134.56 123.01 134.05 124.55 C 129.91 125.80 130.72 130.74 128.75 133.79 C 124.34 140.81 120.91 148.99 113.64 153.61 C 111.35 155.28 108.37 154.78 105.78 154.33 C 102.15 153.54 98.55 152.61 94.91 151.88 C 91.83 151.34 89.10 149.61 85.96 149.29 C 82.75 146.79 79.38 144.41 76.69 141.33 C 74.22 137.32 74.17 132.40 73.66 127.85 C 72.43 128.34 71.20 128.84 69.97 129.33 C 66.88 127.41 64.74 124.18 64.27 120.57 C 64.09 118.55 63.98 116.54 63.84 114.52 C 65.73 114.80 67.65 114.99 69.50 115.47 C 70.08 117.39 69.35 119.42 69.19 121.36 C 68.13 120.22 67.08 119.06 66.03 117.90 C 66.06 118.66 66.11 120.18 66.14 120.94 C 67.77 122.31 69.76 123.02 71.91 122.92 C 71.46 121.59 71.01 120.26 70.57 118.94 C 72.94 116.47 71.50 113.02 71.83 110.01 C 72.28 105.26 72.82 100.49 74.02 95.87 C 76.21 91.28 81.91 88.26 80.78 82.44 C 82.08 84.43 83.45 86.37 85.02 88.16 C 84.34 84.60 83.04 81.00 84.58 77.46 M 80.34 104.01 C 82.31 101.22 83.89 98.17 84.96 94.94 C 82.07 97.01 80.18 100.41 80.34 104.01 M 110.44 100.00 C 110.45 100.64 110.46 101.93 110.46 102.57 C 111.84 103.72 113.25 104.90 114.12 106.50 C 114.25 106.44 114.51 106.33 114.64 106.27 C 112.95 104.38 111.35 102.39 110.44 100.00 M 92.84 112.61 C 96.11 112.78 99.32 111.08 100.96 108.23 C 98.04 109.23 95.21 110.61 92.84 112.61 M 116.11 108.96 C 115.97 111.09 117.00 112.77 119.22 113.07 C 118.50 111.48 117.37 110.15 116.11 108.96 M 113.24 109.91 C 113.48 112.12 113.91 114.31 114.40 116.48 C 116.82 115.75 119.13 120.28 116.10 120.58 C 115.52 120.09 114.38 119.12 113.80 118.63 C 112.22 119.58 110.68 120.61 109.02 121.43 C 107.31 121.38 106.58 119.35 105.05 118.80 C 102.90 118.91 101.01 121.54 99.07 119.34 C 100.21 117.68 101.57 116.17 103.38 115.22 C 103.42 113.91 103.45 112.61 103.48 111.31 C 103.01 111.32 102.06 111.33 101.59 111.34 C 101.51 112.56 101.42 113.79 101.34 115.02 C 98.88 116.74 94.98 119.44 97.25 122.83 C 97.44 122.09 97.81 120.61 98.00 119.87 C 99.05 120.51 100.10 121.15 101.16 121.80 C 102.44 121.73 103.73 121.66 105.02 121.60 C 107.55 123.33 110.61 123.10 112.95 121.17 C 115.24 121.71 117.62 121.69 119.84 120.83 C 119.88 118.39 118.91 116.18 116.48 115.34 C 115.53 113.45 114.52 111.59 113.24 109.91 M 96.26 131.95 C 98.19 129.56 99.79 126.90 100.90 124.03 C 97.75 125.25 96.37 128.80 96.26 131.95 M 119.16 123.88 C 119.46 125.90 119.71 128.32 121.86 129.23 C 122.06 126.98 120.88 125.18 119.16 123.88 M 99.47 133.91 C 102.93 136.13 106.39 139.88 110.94 138.60 C 113.71 137.73 116.89 135.20 116.67 132.04 C 115.47 130.38 113.71 129.25 112.12 128.01 C 109.76 128.59 107.35 128.38 104.95 128.30 C 102.70 129.68 101.20 131.97 99.47 133.91 M 103.95 145.12 C 105.93 146.10 107.83 143.20 109.90 144.04 C 111.67 144.53 113.35 145.30 115.07 145.92 C 113.85 141.00 105.91 140.48 103.95 145.12 Z" />
<path fill="#fefefe" opacity="1.00" d=" M 109.29 90.26 C 109.83 90.40 110.89 90.69 111.43 90.83 L 112.61 91.52 C 112.88 91.68 113.41 92.00 113.67 92.16 C 113.08 94.13 113.24 96.62 111.05 97.64 C 109.96 95.32 109.62 92.77 109.29 90.26 Z" />
<path fill="#fefefe" opacity="1.00" d=" M 190.83 120.34 C 194.32 120.80 197.82 121.28 201.26 122.09 C 199.47 124.17 197.14 125.64 194.71 126.86 C 194.92 123.85 191.44 123.00 190.83 120.34 Z" />
<path fill="#fefefe" opacity="1.00" d=" M 102.06 132.45 C 104.28 128.52 108.69 130.47 112.25 129.48 C 113.47 130.30 114.41 131.36 115.06 132.67 C 112.28 131.49 109.28 131.29 106.31 131.48 C 104.97 132.12 103.61 132.96 102.06 132.45 Z" />
<path fill="#fefefe" opacity="1.00" d=" M 127.55 140.10 C 128.64 137.20 130.58 134.73 132.14 132.08 C 134.88 136.36 138.23 140.18 141.40 144.12 C 140.56 148.78 137.60 152.89 137.12 157.70 C 132.86 156.86 129.37 153.70 127.46 149.90 C 127.18 146.64 127.18 143.34 127.55 140.10 Z" />
<path fill="#fefefe" opacity="1.00" d=" M 103.02 135.00 C 103.16 134.61 103.44 133.84 103.58 133.45 C 107.37 134.14 111.19 133.98 114.98 133.35 C 113.21 138.42 106.54 138.04 103.02 135.00 Z" />
<path fill="#fefefe" opacity="1.00" d=" M 72.53 138.24 C 75.68 145.63 83.53 148.75 88.80 154.24 C 90.24 158.31 90.52 162.76 90.19 167.05 C 81.89 165.35 74.30 160.17 70.25 152.65 C 69.53 151.55 69.35 150.36 69.74 149.09 C 70.44 145.42 71.54 141.84 72.53 138.24 Z" />
<path fill="#fefefe" opacity="1.00" d=" M 117.68 152.72 C 120.81 150.03 123.27 146.69 125.67 143.37 C 125.87 145.55 126.59 147.76 126.21 149.95 C 124.00 155.29 119.18 159.67 113.36 160.54 C 106.39 161.50 99.26 162.30 92.25 161.25 C 91.71 158.15 91.56 154.73 89.39 152.23 C 95.85 153.92 102.33 155.71 108.97 156.50 C 112.37 157.05 115.29 154.84 117.68 152.72 Z" />
</g>
</svg>
