<?xml version="1.0" encoding="UTF-8" ?>
<!DOCTYPE svg PUBLIC "-//W3C//DTD SVG 1.1//EN" "http://www.w3.org/Graphics/SVG/1.1/DTD/svg11.dtd">
<svg width="320pt" height="240pt" viewBox="0 0 320 240" version="1.1" xmlns="http://www.w3.org/2000/svg">
<g id="#3a207aff">
<path fill="#3a207a" opacity="1.00" d=" M 0.00 0.00 L 1.01 0.00 C 1.21 0.66 1.59 1.99 1.79 2.65 C 2.23 2.63 3.12 2.59 3.56 2.58 C 3.91 1.93 4.60 0.64 4.95 0.00 L 9.75 0.00 C 8.51 5.58 7.23 11.23 7.57 16.99 C 7.40 24.05 9.92 30.89 9.46 37.96 C 8.90 48.49 9.82 59.10 8.33 69.58 C 7.27 74.23 4.03 78.18 3.68 83.02 C 3.69 87.15 4.33 91.26 4.43 95.39 C 11.66 92.70 18.45 88.55 26.18 87.37 C 31.86 86.91 37.46 88.35 43.10 88.79 C 41.74 87.67 40.38 86.56 39.01 85.45 C 39.62 85.12 40.86 84.46 41.47 84.13 C 41.40 83.80 41.26 83.13 41.19 82.80 C 40.25 82.69 39.32 82.59 38.38 82.48 C 38.15 80.70 37.91 78.92 37.68 77.14 C 36.56 77.68 35.44 78.22 34.31 78.76 C 34.89 80.30 35.46 81.85 36.00 83.41 C 31.19 81.28 30.27 75.64 26.93 72.06 C 23.90 67.99 18.77 65.39 17.40 60.22 C 15.41 53.94 13.79 47.38 14.60 40.74 C 14.41 37.34 16.64 34.37 19.44 32.69 C 23.43 33.17 27.24 34.62 31.16 35.51 C 32.10 34.65 33.04 33.79 33.98 32.93 C 33.06 32.32 32.15 31.72 31.23 31.12 C 34.12 30.64 33.41 27.66 33.67 25.51 C 32.32 26.67 30.98 27.85 29.66 29.04 C 29.55 27.81 29.44 26.57 29.33 25.34 C 31.45 24.62 33.55 22.95 35.88 23.67 C 38.51 24.29 41.01 25.33 43.55 26.24 C 42.60 17.47 41.03 8.78 40.29 0.00 L 43.19 0.00 C 43.78 6.44 46.48 12.51 46.48 19.02 C 46.45 22.54 47.19 25.99 48.41 29.28 C 50.98 30.60 53.66 32.05 55.08 34.70 C 58.20 40.15 63.99 43.47 66.75 49.18 C 68.92 53.82 69.97 58.93 70.56 63.99 C 70.99 65.88 69.95 67.45 68.89 68.88 C 68.62 68.16 68.08 66.73 67.82 66.01 C 68.36 68.36 68.88 70.72 69.38 73.08 C 69.35 72.02 69.27 69.91 69.24 68.86 C 69.80 68.90 70.93 68.99 71.49 69.04 C 71.92 73.81 74.80 77.73 76.41 82.10 C 75.96 85.82 71.78 87.64 69.07 89.74 C 67.69 86.68 66.32 83.61 64.78 80.63 C 59.34 78.18 58.26 71.35 53.08 68.49 C 57.34 74.76 60.95 81.48 65.70 87.41 C 65.60 88.64 65.49 89.88 65.39 91.11 C 58.72 83.50 53.97 74.45 47.07 67.03 C 46.83 68.17 46.59 69.32 46.35 70.47 C 49.51 73.42 52.76 76.35 55.25 79.92 C 56.78 81.95 56.31 84.66 56.58 87.03 C 56.11 87.87 55.64 88.70 55.17 89.54 C 58.42 90.46 61.69 91.27 64.98 92.03 C 64.62 92.69 63.88 94.00 63.51 94.66 C 62.97 94.56 61.89 94.37 61.35 94.27 C 61.29 94.72 61.17 95.60 61.11 96.05 C 58.52 96.17 55.88 96.29 53.45 97.29 C 56.01 97.59 58.58 97.69 61.16 97.74 C 61.18 98.38 61.22 99.65 61.24 100.29 C 58.60 100.34 55.97 100.39 53.34 100.45 C 52.39 102.21 51.45 103.96 50.51 105.72 C 54.13 105.00 57.73 104.18 61.32 103.29 C 61.32 103.58 61.32 104.17 61.32 104.46 C 57.42 106.37 53.35 107.87 49.31 109.45 C 49.77 110.19 50.24 110.93 50.71 111.67 C 50.29 113.06 49.87 114.45 49.46 115.84 C 51.84 114.26 54.21 112.67 56.67 111.21 C 54.51 115.24 50.68 118.07 48.83 122.29 C 53.75 119.10 57.01 114.09 61.40 110.30 C 61.75 121.71 61.96 133.12 62.36 144.53 C 62.36 144.75 62.37 145.18 62.38 145.40 C 64.37 145.36 66.36 145.33 68.35 145.30 C 67.77 148.92 67.50 152.60 67.70 156.28 C 69.28 152.88 69.70 149.13 70.01 145.44 C 75.70 144.89 81.43 145.31 87.01 146.57 C 85.25 152.91 83.67 159.37 83.38 165.97 C 83.25 169.39 82.80 172.92 80.77 175.79 C 77.08 181.23 73.04 186.73 67.51 190.43 C 62.09 192.93 56.16 190.29 50.52 190.23 C 49.23 198.26 48.84 206.64 50.67 214.60 C 51.34 216.10 51.51 218.68 53.54 218.84 C 54.17 216.14 54.29 213.35 54.99 210.67 C 56.79 209.18 57.99 212.58 58.26 213.99 C 58.92 222.65 57.47 231.46 59.72 240.00 L 54.39 240.00 C 53.91 234.20 55.50 228.18 53.56 222.56 C 53.26 228.38 53.56 234.26 52.31 240.00 L 42.21 240.00 C 40.19 235.75 39.55 230.52 43.10 226.87 C 46.07 229.49 45.23 233.31 44.46 236.71 C 46.45 236.83 48.45 236.80 50.43 236.60 C 50.33 230.36 51.29 223.89 49.12 217.87 C 47.40 212.76 45.14 207.53 45.86 202.00 C 46.60 196.64 45.73 190.94 48.25 185.95 C 45.27 183.43 42.55 180.59 40.62 177.17 C 40.28 188.79 39.96 200.51 37.41 211.89 C 33.84 220.85 35.57 230.68 36.34 240.00 L 34.37 240.00 C 34.33 231.61 32.49 223.25 33.54 214.86 C 34.57 208.83 37.24 203.17 37.82 197.03 C 38.68 185.92 34.97 174.86 36.88 163.77 C 37.62 159.69 38.16 155.58 38.84 151.49 C 39.56 147.07 41.80 143.13 43.07 138.88 C 43.75 137.39 42.99 135.90 42.09 134.72 C 34.95 134.08 28.65 138.31 22.57 141.45 C 20.07 142.83 17.12 142.24 14.40 142.26 C 15.29 153.88 12.48 165.40 13.79 176.99 C 14.64 184.16 13.56 191.35 12.21 198.38 C 11.68 198.47 10.64 198.65 10.12 198.74 C 8.54 193.26 8.54 187.56 9.59 181.99 C 10.28 178.95 9.16 176.02 7.03 173.83 C 5.99 175.14 4.51 176.23 3.98 177.87 C 0.77 192.12 3.64 206.67 4.43 221.02 C 4.37 222.41 4.96 224.91 6.90 224.14 C 9.20 224.05 13.04 221.90 14.09 225.11 C 15.04 230.01 14.30 235.05 14.15 240.00 L 8.70 240.00 C 9.14 235.74 9.50 231.47 9.58 227.19 C 7.86 227.52 5.59 227.18 4.64 229.04 C 4.07 232.67 4.68 236.36 4.91 240.00 L 0.00 240.00 L 0.00 134.93 C 2.76 129.78 -0.05 123.95 0.00 118.51 L 0.00 73.93 C 2.17 70.64 4.72 67.17 4.42 62.99 C 4.24 52.65 4.78 42.29 3.79 31.98 C 3.20 25.77 4.31 19.36 2.48 13.31 C 0.49 12.97 0.97 15.70 0.66 16.94 C 0.58 23.14 0.64 29.34 0.00 35.52 L 0.00 0.00 M 18.72 33.36 C 18.92 35.00 17.60 37.43 19.43 38.53 C 21.79 40.56 25.05 40.61 27.99 40.43 C 26.94 38.63 26.02 36.70 24.56 35.17 C 22.89 33.89 20.71 33.75 18.72 33.36 M 18.71 43.94 C 20.65 44.18 22.87 45.34 24.71 44.21 C 24.44 41.10 20.18 42.41 18.71 43.94 M 46.32 76.33 C 46.35 76.90 46.40 78.03 46.43 78.59 C 48.10 80.11 49.71 82.21 52.27 81.89 C 51.09 79.98 49.72 78.20 48.26 76.51 C 47.77 76.46 46.81 76.38 46.32 76.33 M 46.78 83.90 C 47.35 86.02 49.35 86.57 51.24 86.99 C 50.58 84.98 48.66 84.33 46.78 83.90 M 35.78 96.64 C 38.44 97.82 41.39 97.69 44.23 97.64 C 42.59 94.76 38.44 96.77 35.78 96.64 M 39.78 108.72 C 41.74 108.36 43.67 107.87 45.61 107.38 C 45.58 106.84 45.54 105.76 45.52 105.22 C 43.45 106.09 41.12 106.77 39.78 108.72 M 36.30 113.70 C 36.42 114.68 36.55 115.66 36.69 116.64 C 39.51 114.99 42.58 113.85 45.48 112.37 C 45.51 111.93 45.56 111.04 45.59 110.60 C 42.48 111.59 39.39 112.66 36.30 113.70 M 12.25 117.20 C 12.78 117.82 13.32 118.44 13.85 119.06 C 14.85 117.36 15.97 115.54 18.12 115.25 C 17.66 116.62 17.20 117.99 16.72 119.35 C 17.23 119.49 18.26 119.77 18.77 119.91 C 18.71 119.00 18.57 117.19 18.51 116.28 L 20.87 116.07 C 20.87 116.85 20.86 118.41 20.86 119.19 C 21.94 119.99 23.03 120.80 24.11 121.61 C 26.93 120.45 29.71 119.16 32.26 117.49 C 30.37 117.17 28.53 117.70 26.83 118.51 C 25.29 117.96 23.39 117.65 23.00 115.76 C 22.64 115.80 21.93 115.87 21.58 115.90 C 21.39 114.23 20.11 113.19 19.02 112.10 C 17.02 114.12 14.78 115.88 12.25 117.20 M 40.97 120.78 C 43.42 120.72 45.45 119.37 46.17 116.99 C 43.69 117.04 41.94 118.61 40.97 120.78 M 3.89 126.68 C 5.16 126.66 6.43 126.63 7.70 126.61 C 7.72 125.03 7.73 123.46 7.73 121.88 C 5.59 122.75 3.94 124.21 3.89 126.68 M 4.31 131.08 C 2.84 133.38 5.06 135.62 5.85 137.71 C 5.93 137.53 6.10 137.17 6.18 136.99 C 4.72 134.86 5.64 132.78 7.45 131.26 C 7.52 130.71 7.65 129.61 7.72 129.05 C 6.42 129.39 4.69 129.47 4.31 131.08 M 4.18 139.16 C 4.01 141.42 3.92 143.69 4.09 145.96 C 4.56 153.29 3.84 160.65 4.53 167.97 C 6.28 167.34 8.96 167.25 9.55 165.08 C 10.26 159.63 9.35 154.10 10.15 148.64 C 10.63 146.01 10.21 143.37 9.42 140.85 C 7.67 140.30 5.93 139.73 4.18 139.16 Z" />
<path fill="#3a207a" opacity="1.00" d=" M 66.42 0.00 L 73.83 0.00 C 71.49 1.94 68.77 1.80 66.42 0.00 Z" />
<path fill="#3a207a" opacity="1.00" d=" M 115.38 0.00 L 124.31 0.00 C 124.66 6.69 123.17 13.29 123.29 19.98 C 123.32 26.25 123.36 32.53 123.85 38.79 C 124.25 43.77 125.08 48.73 124.89 53.73 C 125.96 53.62 127.03 53.51 128.10 53.40 C 127.41 53.11 126.02 52.54 125.33 52.25 C 126.09 51.55 126.87 50.86 127.65 50.17 C 127.08 50.33 125.93 50.64 125.35 50.79 C 125.33 49.80 125.29 47.80 125.27 46.80 C 126.63 47.55 128.01 48.31 129.37 49.07 C 128.92 47.30 128.54 45.50 128.21 43.70 C 129.97 45.33 131.92 46.86 134.45 46.77 C 134.43 38.07 134.52 29.35 133.91 20.66 C 133.22 13.80 133.27 6.89 133.28 0.00 L 137.35 0.00 C 137.58 9.34 138.74 18.63 139.62 27.92 C 140.09 34.60 137.88 41.26 139.15 47.91 C 141.94 58.56 138.95 69.93 142.92 80.41 C 146.78 76.15 144.62 70.20 145.45 65.09 C 145.33 63.00 147.95 63.86 149.26 63.46 C 149.42 71.48 151.50 79.70 149.27 87.60 C 148.04 91.73 142.43 89.80 140.28 93.04 C 143.64 93.39 147.01 93.72 150.36 94.21 C 140.80 93.66 131.21 93.63 121.68 92.68 C 122.10 97.89 122.19 103.12 122.30 108.35 C 124.94 108.18 127.58 107.95 130.22 107.72 C 129.56 118.81 129.19 129.92 128.46 141.00 C 129.01 140.95 130.12 140.83 130.67 140.78 C 127.85 147.80 126.87 155.41 127.86 162.91 C 128.90 162.78 129.94 162.65 130.98 162.52 C 129.42 163.90 127.56 165.30 127.68 167.63 C 126.95 177.40 127.31 187.22 127.68 197.00 C 128.66 195.97 129.63 194.94 130.62 193.93 C 131.76 197.21 131.40 200.67 130.92 204.04 C 130.24 208.98 131.61 214.21 129.61 218.94 C 128.71 221.54 127.16 224.10 127.68 226.96 C 128.17 231.32 128.76 235.69 129.59 240.00 L 124.21 240.00 C 123.12 232.91 122.76 225.72 122.19 218.57 C 120.29 218.92 118.39 219.64 116.43 219.45 C 113.53 217.78 113.50 213.97 113.41 211.02 C 113.16 195.70 113.44 180.22 110.36 165.14 C 109.14 161.56 105.43 159.68 103.14 156.85 C 99.63 152.64 94.63 149.67 92.28 144.55 C 95.48 144.54 98.85 144.95 101.72 143.16 C 101.77 144.49 101.82 145.82 101.89 147.15 C 102.07 144.92 102.19 142.68 102.36 140.44 C 101.40 142.58 99.47 143.62 97.28 144.14 C 97.68 141.48 96.02 137.42 99.13 135.96 C 99.14 135.49 99.14 134.57 99.14 134.11 C 101.67 134.35 104.71 134.63 106.04 137.16 C 106.74 139.59 106.65 142.16 106.82 144.67 C 107.42 144.66 108.61 144.63 109.21 144.62 C 113.22 144.77 117.68 144.67 120.78 147.66 C 121.39 145.71 122.02 143.77 122.65 141.83 C 122.09 140.92 121.53 140.00 120.97 139.09 C 121.95 139.24 122.92 139.39 123.90 139.55 C 125.81 137.34 127.45 134.90 128.23 132.05 C 127.31 133.49 126.39 134.93 125.46 136.37 C 125.46 133.93 125.51 131.50 125.65 129.07 C 125.04 130.45 124.42 131.83 123.79 133.21 C 124.17 134.41 124.56 135.61 124.94 136.81 C 124.06 136.54 122.28 136.01 121.39 135.74 C 121.34 134.09 121.46 132.43 121.19 130.80 C 120.42 129.17 118.71 128.26 117.45 127.05 C 116.10 117.92 114.73 108.79 113.68 99.62 C 114.24 101.86 114.92 104.06 115.59 106.27 C 117.56 106.50 119.53 106.75 121.50 107.02 C 121.43 102.22 121.39 97.43 121.48 92.64 C 124.20 92.30 127.91 93.30 129.26 90.13 C 129.93 90.99 130.60 91.85 131.28 92.71 C 133.30 92.94 135.33 93.16 137.36 93.39 C 138.01 83.79 136.80 74.22 135.28 64.76 C 134.35 65.62 133.38 66.46 132.56 67.43 C 131.57 72.10 134.59 77.40 131.07 81.49 C 129.52 79.58 128.54 77.33 127.83 75.00 C 126.25 77.08 124.73 79.22 123.22 81.36 C 120.12 86.04 114.71 88.22 110.13 91.14 C 105.47 94.11 99.75 94.00 94.45 93.58 C 98.64 89.25 104.65 87.12 108.27 82.20 C 101.64 84.81 96.62 90.06 90.52 93.58 C 90.28 94.02 89.81 94.91 89.58 95.35 C 89.27 98.74 89.26 102.15 88.93 105.54 C 88.32 101.95 86.33 98.79 85.51 95.27 C 86.66 92.75 89.54 91.47 91.61 89.73 C 97.83 85.68 102.54 79.85 108.24 75.17 C 111.16 72.83 113.80 70.15 115.93 67.05 C 114.63 67.32 113.33 67.60 112.04 67.88 C 110.90 70.65 109.18 73.17 106.57 74.73 C 100.76 78.44 97.05 84.61 90.99 87.99 C 92.55 84.66 95.15 82.06 97.76 79.55 C 99.80 77.82 99.43 74.93 99.60 72.54 C 94.38 79.03 90.31 87.03 82.88 91.31 C 88.22 81.21 97.29 73.58 102.10 63.16 C 103.63 59.48 107.22 57.54 110.41 55.51 C 108.51 55.45 106.61 55.39 104.72 55.34 C 103.06 59.84 100.19 63.90 95.78 66.02 C 94.86 71.74 91.17 76.61 87.19 80.64 C 88.73 74.20 92.52 68.58 93.94 62.10 C 93.44 62.27 92.43 62.60 91.93 62.77 C 88.67 69.23 86.43 76.12 83.42 82.68 C 83.34 76.26 85.52 70.13 87.07 63.98 C 86.49 64.16 85.32 64.52 84.74 64.70 C 81.41 73.03 80.46 82.11 80.17 91.00 C 78.35 90.01 75.96 88.52 76.89 86.05 C 78.79 76.45 80.09 66.65 83.50 57.42 C 85.01 52.74 89.61 50.17 92.04 46.04 C 95.35 41.70 96.72 35.59 101.85 32.90 C 107.46 29.67 113.54 27.17 119.97 26.24 C 119.59 21.63 119.27 16.90 117.36 12.61 C 115.38 8.70 115.13 4.30 115.38 0.00 M 116.77 29.58 C 115.52 29.62 114.28 29.59 113.03 29.58 C 114.71 31.03 116.08 32.78 116.82 34.89 C 115.83 35.84 114.85 36.79 113.88 37.75 C 115.66 37.14 117.43 36.50 119.22 35.89 C 119.26 37.71 119.01 39.51 117.80 40.95 C 117.77 41.55 117.74 42.16 117.72 42.77 C 116.68 44.36 115.65 45.95 114.65 47.56 C 115.05 48.88 115.43 50.21 115.80 51.54 C 116.26 51.61 117.19 51.76 117.66 51.84 C 117.08 50.94 116.50 50.03 115.93 49.13 C 117.33 47.74 118.79 46.41 120.32 45.16 C 120.02 44.88 119.44 44.32 119.14 44.04 C 119.96 42.74 120.79 41.44 121.61 40.13 C 120.56 35.74 121.93 30.55 119.18 26.73 C 118.37 27.68 117.56 28.63 116.77 29.58 M 120.33 52.38 C 119.80 53.99 120.35 54.58 121.99 54.14 C 122.51 52.53 121.96 51.95 120.33 52.38 M 87.22 53.85 C 86.17 55.94 85.19 58.17 85.61 60.57 C 86.99 60.11 88.37 59.63 89.76 59.16 C 89.07 58.50 88.39 57.84 87.71 57.18 C 87.55 56.06 87.39 54.95 87.22 53.85 M 116.97 79.57 C 116.03 81.34 115.05 83.10 114.03 84.83 C 115.38 84.24 116.73 83.66 118.09 83.09 C 118.67 81.83 119.26 80.58 119.85 79.33 C 118.89 79.40 117.93 79.48 116.97 79.57 M 121.76 109.71 C 124.23 111.64 126.69 113.58 128.92 115.79 C 129.11 113.33 129.33 110.87 129.56 108.41 C 126.90 108.41 124.22 108.61 121.76 109.71 M 124.25 123.05 C 122.46 123.40 123.48 126.02 125.06 125.30 C 126.86 124.93 125.85 122.32 124.25 123.05 M 114.34 159.42 C 114.52 160.66 114.70 161.91 114.87 163.15 C 116.66 163.25 118.45 163.32 120.23 163.58 C 120.40 164.31 120.75 165.76 120.92 166.48 C 118.69 166.44 116.46 166.39 114.24 166.33 C 115.55 171.44 115.18 176.74 115.49 181.96 C 116.09 191.74 116.23 201.64 118.63 211.20 C 119.26 211.58 120.52 212.36 121.15 212.75 C 121.91 211.52 123.56 210.62 123.43 209.00 C 123.77 193.59 123.54 178.04 120.35 162.91 C 119.83 162.79 118.80 162.54 118.29 162.41 C 118.27 161.96 118.23 161.06 118.21 160.60 C 117.56 160.69 116.27 160.88 115.63 160.97 C 115.31 160.59 114.67 159.81 114.34 159.42 Z" />
<path fill="#3a207a" opacity="1.00" d=" M 153.43 0.00 L 160.70 0.00 C 159.47 0.59 158.28 1.25 157.02 1.74 C 155.76 1.29 154.61 0.60 153.43 0.00 Z" />
<path fill="#3a207a" opacity="1.00" d=" M 193.47 0.00 L 198.14 0.00 C 198.29 1.87 198.42 3.74 198.75 5.58 C 200.24 5.33 201.70 4.93 203.15 4.52 C 203.39 3.01 203.64 1.50 203.95 0.00 L 207.32 0.00 C 207.86 2.22 208.41 4.44 208.95 6.66 C 215.07 3.83 221.85 2.93 227.92 0.00 L 243.80 0.00 C 243.98 4.53 238.49 5.35 236.56 8.78 C 233.37 13.66 227.64 16.58 225.69 22.27 C 232.59 16.60 238.09 9.03 246.16 4.88 C 240.66 12.95 233.30 19.52 226.52 26.49 C 223.91 29.29 222.09 32.72 219.52 35.55 C 217.65 37.94 212.70 36.42 213.03 40.58 C 214.85 40.57 216.71 40.73 218.52 40.43 C 221.31 37.43 223.45 33.88 226.12 30.77 C 226.81 30.76 228.18 30.74 228.87 30.73 C 228.81 30.02 228.68 28.61 228.62 27.91 C 231.96 23.97 234.89 19.57 239.17 16.57 C 237.75 23.07 231.82 27.74 231.46 34.50 C 236.63 28.70 238.75 20.98 243.45 14.86 C 243.10 21.50 238.79 27.06 238.12 33.55 C 243.90 26.23 245.16 16.72 247.25 7.92 C 248.95 9.26 250.45 11.20 252.76 11.42 C 254.88 11.79 256.92 10.86 258.91 10.27 C 260.82 16.18 261.64 22.40 264.04 28.15 C 266.00 32.76 267.11 37.70 269.42 42.17 C 267.88 36.12 265.57 30.31 263.29 24.51 C 262.31 22.32 262.50 19.88 262.55 17.55 C 265.30 21.20 267.14 25.42 269.76 29.16 C 267.41 24.43 265.62 19.44 263.38 14.66 C 262.39 12.79 262.30 10.65 262.22 8.59 C 266.12 12.28 268.24 17.29 270.56 22.03 C 270.35 18.14 270.29 14.24 270.28 10.34 C 269.01 9.41 267.73 8.49 266.46 7.57 C 266.26 6.91 265.84 5.59 265.64 4.93 C 266.35 3.28 267.06 1.62 267.84 0.00 L 320.00 0.00 L 320.00 10.24 C 313.75 11.95 307.48 14.04 301.00 14.61 C 292.61 13.87 285.15 9.48 277.22 6.99 C 277.54 8.61 277.51 10.36 278.26 11.86 C 281.26 15.81 286.70 17.65 288.51 22.53 C 288.32 22.84 287.94 23.47 287.75 23.79 C 286.41 25.04 284.72 23.93 283.21 23.70 C 283.42 24.10 283.85 24.90 284.06 25.30 C 286.97 25.35 289.88 25.06 292.66 24.15 C 293.00 26.99 291.78 30.68 294.38 32.77 C 295.69 34.17 297.11 35.46 298.49 36.79 C 298.68 38.56 298.88 40.32 299.08 42.09 C 299.27 40.26 299.48 38.44 299.69 36.61 C 304.15 39.13 305.94 44.04 306.07 48.92 C 306.61 55.89 309.75 64.51 304.02 70.17 C 298.32 74.89 291.80 79.72 284.04 79.66 C 281.34 80.03 278.88 78.82 276.60 77.57 C 276.96 84.55 275.16 91.31 273.44 97.99 C 271.85 103.53 272.95 109.31 272.52 114.96 C 272.23 119.43 272.20 124.13 274.64 128.08 C 276.65 127.22 279.65 126.92 280.12 124.30 C 281.45 118.33 281.32 111.86 284.99 106.64 C 286.01 108.67 287.42 110.66 287.63 112.99 C 287.42 115.77 286.15 118.32 285.50 121.01 C 284.50 124.34 284.32 127.89 283.03 131.12 C 281.37 132.48 278.90 132.27 276.95 133.10 C 275.28 134.51 274.60 136.85 274.55 138.97 C 275.68 142.82 278.05 146.21 278.89 150.16 C 279.68 153.98 280.14 157.86 280.84 161.70 C 284.19 161.35 287.52 160.93 290.85 160.46 C 290.70 160.84 290.39 161.60 290.24 161.98 C 288.43 162.57 286.63 163.18 284.84 163.80 C 288.43 167.07 293.30 166.48 297.75 166.28 C 297.65 165.89 297.43 165.09 297.33 164.70 C 295.57 163.28 293.82 161.85 292.08 160.42 C 296.18 160.60 300.48 160.12 304.39 161.61 C 308.98 164.32 311.43 169.38 312.92 174.30 C 310.14 175.58 307.47 177.24 306.03 180.06 C 308.69 179.50 311.34 178.28 314.11 178.64 C 318.15 184.52 316.06 192.03 314.39 198.34 C 311.50 206.38 308.21 214.88 301.43 220.48 C 297.78 223.55 293.40 225.50 289.11 227.47 C 287.56 227.02 286.02 226.58 284.48 226.15 C 284.42 230.77 284.23 235.39 283.82 240.00 L 282.14 240.00 C 282.28 235.52 282.45 231.05 282.68 226.58 C 278.17 223.66 273.26 221.47 268.43 219.15 C 267.60 224.70 267.01 230.41 267.95 235.98 C 269.08 237.53 271.81 236.32 273.58 236.62 C 272.97 233.27 271.74 229.47 274.79 226.92 C 278.62 230.41 277.90 235.74 275.90 240.00 L 265.74 240.00 C 264.56 234.23 264.75 228.36 265.00 222.52 C 264.34 223.93 263.28 225.32 263.43 226.98 C 263.63 231.32 264.02 235.66 263.66 240.00 L 258.27 240.00 C 260.61 231.00 259.25 221.72 259.52 212.56 C 251.62 206.94 244.91 199.74 236.44 194.91 C 239.65 198.65 241.77 203.16 242.46 208.05 C 247.57 210.19 247.02 216.49 249.27 220.75 C 247.57 227.15 250.27 233.63 251.04 240.00 L 222.70 240.00 C 223.93 238.99 225.10 237.91 226.29 236.85 C 224.58 235.74 222.87 234.64 221.16 233.54 C 221.94 230.40 222.82 227.28 223.90 224.23 C 223.37 223.46 222.84 222.70 222.32 221.94 C 222.48 216.92 221.77 211.93 221.84 206.92 C 221.75 204.94 223.19 203.44 224.21 201.93 C 224.59 205.25 224.52 208.60 224.41 211.95 C 224.24 215.37 225.52 218.63 225.86 222.01 C 225.99 222.26 226.25 222.76 226.37 223.01 C 226.73 218.02 226.86 213.01 226.31 208.03 C 225.90 202.79 224.79 197.37 226.38 192.21 C 226.73 192.25 227.42 192.35 227.76 192.39 C 229.43 198.10 228.30 204.13 228.97 209.96 C 229.61 215.62 229.47 221.31 229.50 227.00 C 231.40 228.76 232.56 230.99 232.19 233.64 C 231.49 233.73 230.10 233.89 229.41 233.97 C 229.84 231.77 230.98 229.26 228.87 227.47 C 228.74 228.38 228.46 230.19 228.33 231.10 C 227.54 230.39 226.75 229.69 225.96 229.00 C 225.35 229.72 224.74 230.45 224.13 231.17 C 224.77 232.92 225.41 234.66 226.05 236.41 C 227.08 236.48 228.12 236.56 229.15 236.64 C 229.77 237.71 230.38 238.77 231.01 239.85 C 232.60 238.57 234.32 237.41 235.68 235.87 C 235.40 230.61 231.67 224.91 235.57 220.14 C 230.40 216.33 230.30 209.31 230.46 203.50 C 233.33 206.34 234.50 210.32 233.63 214.27 C 234.83 216.33 236.12 218.34 237.51 220.28 C 238.64 212.75 233.31 206.69 232.13 199.60 C 236.85 202.32 237.72 208.07 240.67 212.23 C 238.05 204.81 233.86 198.12 229.88 191.38 C 230.68 190.58 231.47 189.79 232.27 189.00 C 232.44 187.36 232.61 185.72 232.79 184.08 C 236.29 185.30 239.67 186.85 242.86 188.73 C 240.01 186.22 236.70 183.77 235.90 179.82 C 237.32 180.19 238.74 180.57 240.17 180.96 C 240.27 180.16 240.49 178.56 240.59 177.76 C 239.17 176.98 237.75 176.21 236.34 175.42 C 240.45 173.75 244.90 175.01 249.15 174.18 C 249.51 172.86 249.08 171.12 250.16 170.11 C 252.74 169.18 255.55 169.17 258.25 168.75 C 251.96 167.85 245.63 168.74 239.58 170.54 C 238.58 169.11 237.57 167.68 236.57 166.26 C 240.09 161.56 243.58 156.82 246.64 151.80 C 247.98 149.72 249.23 147.49 251.16 145.88 C 253.42 144.07 256.46 144.50 259.15 144.21 C 258.31 144.08 256.62 143.82 255.78 143.70 C 256.53 143.57 258.01 143.33 258.76 143.20 C 258.25 140.36 257.76 137.51 257.40 134.64 C 254.44 135.06 251.47 135.37 248.53 135.80 C 248.42 135.97 248.21 136.31 248.11 136.47 C 244.91 141.52 243.94 147.86 239.33 152.02 C 239.70 148.89 240.94 145.99 242.52 143.30 C 243.00 140.28 241.93 137.33 241.23 134.44 C 239.60 128.51 242.25 122.55 243.69 116.85 C 244.63 116.45 245.58 116.06 246.54 115.67 C 246.35 114.68 246.16 113.69 245.97 112.70 C 246.86 112.36 247.74 112.02 248.63 111.68 C 248.14 111.20 247.66 110.72 247.17 110.23 C 245.55 112.62 243.40 114.54 240.92 116.00 C 240.37 120.93 240.71 126.87 236.17 130.08 C 236.67 131.17 237.17 132.26 237.67 133.36 C 236.93 133.75 235.43 134.53 234.68 134.92 C 234.09 132.76 233.51 130.59 232.82 128.46 C 229.96 135.32 231.72 143.08 230.34 150.28 C 228.15 144.71 228.66 138.62 228.39 132.76 C 226.40 133.30 224.37 133.71 222.34 134.07 C 222.25 128.85 222.10 123.43 224.61 118.67 C 228.05 111.20 226.78 102.21 231.72 95.40 C 232.54 96.18 233.36 96.99 234.18 97.79 C 234.83 96.72 235.48 95.66 236.13 94.60 L 235.30 95.67 C 234.65 95.01 234.00 94.35 233.36 93.68 C 234.05 93.03 235.43 91.74 236.12 91.09 C 236.83 91.53 237.54 91.98 238.25 92.42 C 237.83 91.59 237.41 90.77 236.99 89.94 C 239.50 87.73 241.82 85.06 245.03 83.86 C 247.01 83.50 249.05 83.53 251.06 83.44 C 251.28 83.95 251.72 84.95 251.94 85.45 C 250.13 85.42 248.32 85.39 246.52 85.36 C 246.09 87.34 245.66 89.33 245.24 91.31 C 246.07 91.35 247.71 91.44 248.54 91.49 C 249.13 93.02 249.72 94.55 250.32 96.09 C 251.61 92.30 253.49 88.64 256.76 86.19 C 258.61 86.92 260.46 87.64 262.32 88.37 C 262.30 85.75 261.99 83.06 262.75 80.52 C 264.63 80.16 266.84 80.98 267.22 83.07 C 267.08 86.97 265.63 90.90 266.98 94.76 C 268.06 94.59 269.14 94.43 270.22 94.26 C 271.12 88.21 271.41 82.09 271.58 75.97 C 269.63 74.39 267.83 72.60 266.70 70.33 C 262.89 63.29 257.52 57.12 254.49 49.66 C 251.58 38.37 255.68 25.79 249.84 15.14 C 246.78 23.37 245.08 32.14 241.09 40.02 C 238.90 44.71 233.76 46.73 230.61 50.62 C 227.63 53.67 225.63 57.55 222.57 60.52 C 218.38 63.47 213.24 64.54 208.42 66.01 C 208.36 72.03 207.42 78.01 207.53 84.03 C 207.59 88.60 207.12 93.17 206.33 97.67 C 198.96 95.14 190.64 94.58 183.14 96.69 C 184.83 112.85 183.22 129.10 183.19 145.30 C 185.53 145.26 187.88 145.22 190.23 145.19 C 190.23 140.33 190.21 135.48 190.22 130.63 C 192.47 130.65 194.73 130.67 197.00 130.71 C 197.98 136.59 198.96 142.48 200.37 148.28 C 203.24 147.90 206.14 147.56 209.04 147.55 C 209.78 150.16 210.95 152.65 213.04 154.45 C 213.18 151.94 212.39 149.57 210.91 147.56 C 211.56 147.56 212.86 147.56 213.51 147.56 C 212.21 144.32 211.02 141.04 210.10 137.68 C 214.15 139.17 214.83 143.79 217.38 146.75 C 219.67 147.75 222.21 147.96 224.65 148.45 C 224.21 146.86 223.78 145.27 223.35 143.68 C 224.42 143.55 225.49 143.43 226.57 143.33 C 227.46 148.58 228.55 153.79 229.73 158.98 C 227.44 159.47 225.17 160.03 222.91 160.66 C 223.75 158.30 224.91 156.01 225.24 153.52 C 224.87 151.78 223.99 150.22 223.28 148.62 C 221.96 148.56 220.65 148.50 219.33 148.45 C 219.52 151.22 219.61 153.99 219.60 156.77 C 217.50 155.94 215.41 155.11 213.33 154.28 C 214.85 157.15 216.47 159.96 218.03 162.81 C 213.57 163.82 211.39 159.27 208.40 156.98 C 207.57 159.38 209.06 161.52 210.10 163.56 C 208.51 163.46 206.91 163.26 205.31 163.44 C 204.38 164.36 203.51 165.34 202.69 166.36 C 204.90 167.67 207.36 168.42 209.91 168.68 C 211.11 167.63 215.16 164.33 214.84 167.86 C 213.61 169.13 212.16 170.17 210.82 171.30 C 214.14 174.15 216.69 170.41 218.79 168.18 C 218.71 171.51 216.38 173.73 213.64 175.19 C 212.74 180.15 214.33 184.98 215.98 189.59 C 217.31 189.87 218.65 190.16 219.99 190.45 C 219.67 199.28 216.01 207.55 215.28 216.32 C 216.71 216.44 218.15 216.57 219.58 216.71 C 219.16 219.80 219.24 222.91 219.33 226.03 C 219.49 230.73 216.64 235.46 218.94 240.00 L 206.69 240.00 C 205.84 236.58 205.04 233.14 204.03 229.76 C 203.47 233.19 202.97 236.64 202.05 240.00 L 197.36 240.00 C 197.60 235.65 198.20 231.33 199.32 227.12 C 200.75 221.71 200.32 216.08 200.14 210.55 C 196.14 212.81 192.73 216.34 188.03 217.10 C 181.18 218.53 175.66 223.26 168.89 224.96 C 168.16 224.16 167.43 223.37 166.70 222.58 C 161.17 224.06 155.38 222.63 150.00 221.18 C 148.91 219.24 147.82 217.31 146.75 215.36 C 147.95 212.95 147.56 210.48 144.76 209.69 C 142.64 203.82 142.51 197.20 144.05 191.19 C 146.39 186.38 149.57 181.95 152.77 177.68 C 162.97 174.39 172.16 168.37 182.78 166.31 C 176.80 163.42 170.46 161.36 164.17 159.28 C 158.45 157.35 151.94 157.04 147.21 152.87 C 142.63 149.89 140.42 144.66 138.88 139.62 C 138.07 127.75 137.33 115.85 137.15 103.94 C 137.63 103.98 138.59 104.07 139.07 104.12 C 139.78 104.92 140.73 105.71 140.61 106.91 C 140.93 112.58 140.64 118.34 139.09 123.82 C 139.89 123.74 141.48 123.58 142.27 123.50 C 140.19 126.93 142.87 130.53 143.95 133.82 C 147.10 129.67 146.15 124.22 147.69 119.52 C 149.02 116.76 151.46 114.77 153.48 112.53 C 151.21 112.62 148.94 112.69 146.67 112.75 C 148.33 111.16 150.04 109.60 151.76 108.07 C 152.40 108.63 153.05 109.18 153.70 109.72 C 154.66 121.24 154.33 132.82 154.72 144.37 C 163.06 143.83 171.40 143.42 179.75 143.20 C 179.39 138.63 179.90 133.90 178.75 129.45 C 174.07 128.73 168.92 130.01 164.51 128.70 C 163.92 123.70 163.95 118.64 163.62 113.62 C 167.07 113.61 170.52 113.62 173.97 113.62 C 173.71 111.03 173.45 108.43 173.19 105.84 C 168.71 105.86 164.23 105.87 159.76 105.77 C 159.75 103.59 159.74 101.42 159.74 99.25 C 166.62 99.38 173.50 99.73 180.39 99.83 C 180.50 97.73 180.60 95.62 180.71 93.52 C 177.71 93.49 174.71 93.43 171.71 93.46 C 174.76 93.31 177.81 93.19 180.87 93.16 C 181.03 94.52 181.19 95.88 181.35 97.24 C 182.27 96.37 183.18 95.50 184.12 94.66 C 187.37 95.70 190.75 95.15 194.05 94.78 C 197.51 94.28 200.87 95.54 204.15 96.47 C 203.36 86.86 203.93 77.21 203.67 67.58 C 201.97 67.16 200.28 66.67 198.53 66.51 C 197.80 68.60 197.63 70.83 197.62 73.04 C 197.66 80.29 197.23 87.56 198.15 94.77 C 196.64 93.92 194.10 93.87 193.98 91.66 C 192.86 84.49 193.40 77.13 194.39 69.96 C 194.74 66.63 195.04 62.90 192.81 60.10 C 189.34 55.30 186.88 49.78 185.78 43.95 C 185.57 41.17 186.39 38.45 186.81 35.73 C 187.38 33.21 187.47 30.38 189.29 28.37 C 193.35 23.39 197.68 18.61 201.48 13.43 C 202.31 11.86 204.61 9.89 202.46 8.41 C 199.83 8.57 197.31 9.74 194.65 9.52 C 193.03 6.62 193.60 3.17 193.47 0.00 M 218.04 11.23 C 218.26 11.54 218.71 12.17 218.94 12.49 C 226.46 9.89 232.78 4.78 239.90 1.31 C 232.55 4.47 225.10 7.45 218.04 11.23 M 273.94 27.79 C 275.39 31.55 278.08 34.60 280.27 37.93 C 281.48 39.47 282.44 41.76 284.77 41.64 C 282.38 38.70 280.33 35.53 278.88 32.03 C 278.05 29.84 275.97 28.65 273.94 27.79 M 235.67 39.92 C 235.56 40.79 235.34 42.53 235.23 43.40 C 233.80 43.51 232.38 43.62 230.95 43.74 C 229.11 46.59 227.01 49.25 224.96 51.95 C 223.55 52.80 222.13 53.65 220.72 54.50 C 220.62 55.11 220.42 56.33 220.32 56.93 C 218.37 58.44 216.45 60.02 214.97 62.00 C 218.90 60.44 220.62 56.20 224.15 54.08 C 226.15 52.80 227.94 51.22 229.61 49.53 C 229.59 48.89 229.57 47.61 229.55 46.97 C 233.96 45.64 237.90 42.41 238.71 37.68 C 237.17 37.60 235.64 37.53 234.11 37.46 C 234.73 35.55 235.36 33.65 235.92 31.73 C 232.29 33.29 233.19 37.70 235.67 39.92 M 191.00 38.15 C 190.24 39.37 189.40 40.54 188.45 41.61 C 188.39 44.02 188.43 46.42 188.42 48.83 C 189.46 48.69 190.50 48.55 191.54 48.41 C 191.77 44.98 191.92 41.50 191.00 38.15 M 277.06 40.96 C 276.22 42.20 275.40 43.43 274.57 44.66 C 275.64 45.04 276.72 45.43 277.81 45.81 C 278.22 43.98 278.49 42.12 278.65 40.25 C 278.25 40.43 277.45 40.78 277.06 40.96 M 282.13 45.44 C 280.55 46.49 282.50 48.82 283.89 47.64 C 285.46 46.59 283.50 44.26 282.13 45.44 M 199.43 56.14 C 200.13 56.31 200.84 56.47 201.54 56.64 C 202.45 55.57 203.37 54.51 204.29 53.45 C 204.49 51.36 204.67 49.26 204.78 47.16 C 201.57 49.03 200.85 53.00 199.43 56.14 M 191.02 49.12 C 191.78 51.14 192.60 53.14 193.54 55.10 C 193.60 53.26 193.63 51.42 193.65 49.58 C 192.99 49.46 191.68 49.23 191.02 49.12 M 247.18 96.12 C 247.69 97.21 248.25 98.27 248.82 99.32 C 248.75 101.66 248.14 103.91 247.29 106.07 C 248.69 105.33 250.09 104.57 251.48 103.80 C 251.41 102.25 251.37 100.70 251.36 99.15 C 250.12 97.94 248.82 96.76 247.18 96.12 M 261.67 99.47 C 261.30 100.87 260.84 102.24 260.29 103.58 C 261.91 103.55 264.10 102.81 264.79 104.90 C 263.85 107.62 261.54 109.32 258.96 110.34 C 259.99 110.77 261.02 111.22 262.04 111.69 C 263.36 109.52 265.01 107.59 266.45 105.50 C 266.71 103.89 265.65 102.39 265.19 100.90 C 264.00 100.48 262.68 99.69 261.67 99.47 M 265.22 114.13 C 265.35 116.15 265.48 118.17 265.67 120.19 C 266.36 118.64 267.09 117.10 267.79 115.55 C 266.93 115.07 266.07 114.60 265.22 114.13 M 266.86 136.04 C 265.80 139.37 263.23 141.87 261.66 144.93 C 261.63 150.38 261.41 155.84 261.45 161.30 C 266.49 162.32 271.68 162.71 276.79 161.96 C 275.89 155.74 275.99 149.27 273.42 143.41 C 270.93 137.82 271.52 131.50 269.40 125.81 C 268.24 129.15 268.42 132.81 266.86 136.04 M 246.58 161.82 C 250.54 161.02 254.45 159.99 258.45 159.40 C 258.59 155.59 258.64 151.77 258.48 147.96 C 253.96 152.04 249.18 156.19 246.58 161.82 M 191.70 155.04 C 193.67 158.36 196.79 160.69 199.78 163.03 C 199.78 162.34 199.80 160.96 199.80 160.26 C 197.30 158.23 194.64 156.37 191.70 155.04 M 189.65 162.09 C 192.06 165.03 195.88 166.22 199.51 166.80 C 199.44 165.77 199.37 164.75 199.30 163.73 C 196.08 163.18 192.88 162.50 189.65 162.09 M 203.48 189.29 C 203.42 189.82 203.31 190.87 203.26 191.39 C 204.90 191.81 206.54 192.80 208.28 192.44 C 208.53 190.96 208.63 189.47 208.76 187.98 C 206.98 188.34 205.21 188.77 203.48 189.29 M 180.64 197.58 C 180.04 198.39 179.27 199.02 178.34 199.45 L 177.68 199.77 C 175.90 200.15 176.69 202.25 175.56 203.36 C 176.86 203.10 178.16 202.88 179.46 202.60 L 179.87 201.89 C 180.64 201.21 181.55 200.78 182.60 200.59 C 182.14 200.16 181.69 199.72 181.28 199.26 C 182.77 197.87 184.36 196.59 185.95 195.31 C 187.39 195.76 188.84 196.22 190.30 196.67 C 190.32 196.07 190.37 194.88 190.39 194.29 C 192.15 194.28 193.91 194.27 195.67 194.27 C 195.67 194.16 195.66 193.94 195.65 193.83 C 194.41 193.60 193.17 193.37 191.94 193.13 C 187.83 193.59 184.14 195.49 180.64 197.58 M 203.98 209.02 C 204.82 212.34 203.61 216.53 206.26 219.14 C 207.80 213.58 207.35 207.78 207.28 202.09 C 204.95 203.55 203.07 206.14 203.98 209.02 M 264.01 216.32 C 262.53 217.35 264.35 219.75 265.77 218.71 C 267.25 217.67 265.42 215.29 264.01 216.32 Z" />
<path fill="#3a207a" opacity="1.00" d=" M 70.69 7.69 C 71.22 7.61 72.26 7.45 72.78 7.36 C 74.76 8.86 74.69 11.21 74.46 13.45 C 72.84 13.53 71.13 13.68 69.67 12.82 C 70.58 12.68 72.39 12.41 73.30 12.28 C 73.46 11.28 73.59 10.27 73.69 9.26 C 72.42 9.39 71.16 9.60 69.91 9.79 C 70.10 9.26 70.50 8.21 70.69 7.69 Z" />
<path fill="#3a207a" opacity="1.00" d=" M 63.55 19.40 C 64.66 18.38 65.78 17.36 66.89 16.34 C 69.46 18.01 71.94 20.18 71.62 23.56 C 70.20 24.73 69.13 26.90 67.01 26.69 C 65.53 26.78 64.52 25.47 63.36 24.78 C 63.43 22.98 63.49 21.19 63.55 19.40 M 67.95 17.78 C 67.63 20.55 65.59 22.46 63.92 24.47 C 65.44 24.57 66.97 24.66 68.49 24.74 C 69.29 23.43 70.09 22.11 70.90 20.80 C 69.92 19.80 68.93 18.79 67.95 17.78 Z" />
<path fill="#3a207a" opacity="1.00" d=" M 146.74 27.51 C 147.32 25.00 150.14 23.88 152.46 24.64 C 153.92 25.79 153.52 27.94 153.44 29.57 C 152.91 31.98 150.34 32.65 148.24 32.98 C 147.29 31.32 145.87 29.52 146.74 27.51 M 149.90 25.08 C 149.31 27.11 148.70 29.13 148.14 31.16 C 150.13 30.72 151.66 29.45 152.94 27.94 C 152.88 27.30 152.76 26.01 152.69 25.37 C 152.00 25.30 150.60 25.15 149.90 25.08 Z" />
<path fill="#3a207a" opacity="1.00" d=" M 147.81 44.75 C 149.02 44.70 150.24 44.66 151.45 44.61 C 151.40 46.27 151.34 47.93 151.27 49.58 C 149.90 49.15 148.61 48.49 147.38 47.77 C 147.52 46.76 147.67 45.76 147.81 44.75 Z" />
<path fill="#3a207a" opacity="1.00" d=" M 220.39 66.54 C 223.99 66.10 228.39 67.44 229.37 71.36 C 229.52 74.23 230.19 77.78 227.98 80.05 C 226.12 81.58 223.45 83.06 221.06 81.83 C 218.77 80.93 216.02 79.60 215.55 76.91 C 215.07 72.82 217.37 69.09 220.39 66.54 M 222.78 67.26 C 223.29 71.44 219.46 73.31 216.39 74.94 C 216.73 77.59 218.74 81.71 222.04 80.38 C 225.74 79.78 227.49 76.24 228.36 72.98 C 228.63 69.84 225.66 67.58 222.78 67.26 Z" />
<path fill="#3a207a" opacity="1.00" d=" M 70.67 96.11 C 70.63 102.43 70.57 108.78 69.67 115.04 C 69.27 117.66 69.53 120.30 70.04 122.87 C 71.01 119.36 71.71 115.67 73.75 112.57 C 73.09 119.20 73.07 126.78 68.55 132.12 C 68.73 120.10 70.26 108.13 70.67 96.11 Z" />
<path fill="#3a207a" opacity="1.00" d=" M 195.01 101.10 L 195.26 101.33 C 195.52 101.58 196.05 102.06 196.32 102.30 C 197.29 102.37 198.26 102.41 199.23 102.44 C 200.04 108.67 200.28 114.96 200.65 121.23 C 201.36 121.58 202.77 122.28 203.48 122.62 C 200.70 122.68 197.92 122.79 195.15 122.89 C 195.06 115.63 195.52 108.36 195.01 101.10 Z" />
<path fill="#3a207a" opacity="1.00" d=" M 104.27 108.11 C 105.32 108.32 106.35 108.57 107.38 108.85 C 107.43 109.65 107.52 111.24 107.56 112.04 C 106.79 111.87 105.25 111.51 104.47 111.34 C 104.40 110.26 104.33 109.18 104.27 108.11 Z" />
<path fill="#3a207a" opacity="1.00" d=" M 101.80 110.43 L 102.46 110.42 C 102.47 111.30 102.48 112.17 102.49 113.05 C 103.72 113.99 104.94 114.93 106.16 115.88 C 107.23 115.01 108.30 114.13 109.38 113.26 C 110.19 116.60 110.69 120.02 110.92 123.45 C 107.39 123.56 103.86 123.73 100.33 123.86 C 100.38 123.19 100.48 121.84 100.53 121.17 L 101.27 121.20 C 103.13 121.03 105.72 122.11 106.75 119.98 C 105.31 118.11 103.39 116.71 101.48 115.36 C 101.59 113.71 101.69 112.07 101.80 110.43 Z" />
<path fill="#3a207a" opacity="1.00" d=" M 83.86 114.00 C 82.69 112.71 83.17 111.06 83.65 109.59 C 86.98 112.70 89.30 116.65 91.48 120.61 C 91.16 122.16 90.83 123.72 90.51 125.28 C 89.41 120.93 86.19 117.69 83.86 114.00 Z" />
<path fill="#3a207a" opacity="1.00" d=" M 76.09 112.25 C 78.37 112.66 80.65 113.10 82.93 113.57 C 85.07 118.05 87.66 122.29 90.25 126.52 C 89.61 129.20 88.90 131.85 88.25 134.52 C 87.34 132.75 86.45 130.98 85.55 129.22 C 84.76 129.42 83.97 129.62 83.18 129.82 C 79.60 130.70 76.04 131.62 72.45 132.41 C 72.79 130.42 73.15 128.42 73.51 126.43 C 73.93 128.01 74.35 129.60 74.77 131.18 C 75.25 131.14 76.21 131.04 76.69 131.00 C 76.49 128.16 76.38 125.32 76.46 122.49 C 77.79 124.93 78.58 127.61 78.98 130.35 C 79.49 130.20 80.50 129.89 81.00 129.74 C 79.55 123.86 77.37 118.18 76.09 112.25 Z" />
<path fill="#3a207a" opacity="1.00" d=" M 216.45 130.06 C 216.10 126.55 215.33 122.68 217.94 119.80 C 221.05 124.55 219.94 130.84 217.64 135.69 C 217.27 136.05 216.90 136.40 216.52 136.75 L 215.26 137.36 C 214.09 136.90 212.93 136.45 211.76 135.99 C 211.34 136.39 210.49 137.18 210.07 137.58 C 208.86 134.31 207.60 131.05 206.39 127.77 C 207.03 127.11 207.67 126.44 208.29 125.76 C 208.71 127.24 209.20 128.71 209.69 130.17 C 211.15 130.55 212.60 130.93 214.06 131.32 C 214.66 131.01 215.86 130.37 216.45 130.06 Z" />
<path fill="#3a207a" opacity="1.00" d=" M 316.73 139.91 C 317.84 139.31 318.94 138.69 320.00 138.02 L 320.00 145.33 C 319.48 145.33 318.44 145.34 317.91 145.34 C 317.52 143.53 317.13 141.71 316.73 139.91 Z" />
<path fill="#3a207a" opacity="1.00" d=" M 241.36 152.43 C 243.99 148.56 245.33 143.92 248.50 140.41 C 248.84 141.80 249.19 143.19 249.56 144.57 C 246.61 149.86 242.92 154.66 239.81 159.85 C 238.70 161.70 237.16 163.23 235.54 164.63 C 235.76 159.91 239.11 156.32 241.36 152.43 Z" />
<path fill="#3a207a" opacity="1.00" d=" M 233.63 144.37 C 235.66 144.08 237.69 143.81 239.74 143.60 C 238.02 148.98 236.26 154.47 233.05 159.19 C 233.42 154.27 234.94 149.57 236.57 144.96 C 235.60 144.84 234.64 144.71 233.68 144.58 L 233.63 144.37 Z" />
<path fill="#3a207a" opacity="1.00" d=" M 316.24 175.10 C 317.49 175.34 318.75 175.58 320.00 175.87 L 320.00 189.50 C 319.20 189.49 318.41 189.49 317.62 189.49 C 317.59 184.65 316.62 179.90 316.24 175.10 Z" />
<path fill="#3a207a" opacity="1.00" d=" M 221.46 190.15 C 222.06 190.17 223.25 190.23 223.85 190.25 C 223.52 199.25 219.71 207.78 220.15 216.84 C 219.50 216.65 218.19 216.27 217.53 216.08 C 216.56 209.85 219.24 204.00 219.73 197.89 C 220.06 195.26 221.11 192.78 221.46 190.15 Z" />
<path fill="#3a207a" opacity="1.00" d=" M 74.73 211.83 C 75.66 211.60 76.59 211.38 77.52 211.16 C 77.52 212.58 77.52 213.99 77.52 215.41 C 76.43 215.55 75.34 215.69 74.26 215.84 C 74.41 214.50 74.57 213.16 74.73 211.83 Z" />
<path fill="#3a207a" opacity="1.00" d=" M 80.96 212.89 C 81.41 214.99 81.89 217.41 80.13 219.09 C 79.06 221.13 76.07 221.29 74.73 219.47 C 76.06 219.14 77.40 218.83 78.75 218.55 C 79.75 216.77 80.46 214.86 80.96 212.89 Z" />
<path fill="#3a207a" opacity="1.00" d=" M 150.37 227.65 C 152.86 227.21 156.22 226.75 157.97 229.04 C 160.57 232.08 159.44 236.40 159.09 240.00 L 155.29 240.00 C 156.48 237.74 158.27 235.60 158.52 232.99 C 157.96 231.37 157.11 229.87 156.31 228.36 C 155.36 228.37 153.45 228.39 152.50 228.40 C 152.51 229.22 152.53 230.87 152.54 231.69 C 150.68 232.99 148.81 234.27 146.94 235.54 C 147.44 237.03 147.94 238.53 148.51 240.00 L 146.40 240.00 C 144.79 235.65 146.15 229.94 150.37 227.65 Z" />
<path fill="#3a207a" opacity="1.00" d=" M 219.18 236.39 C 220.42 235.38 222.24 237.47 220.90 238.47 C 219.65 239.44 217.85 237.39 219.18 236.39 Z" />
</g>
<g id="#01000cff">
<path fill="#01000c" opacity="1.00" d=" M 1.01 0.00 L 4.95 0.00 C 4.60 0.64 3.91 1.93 3.56 2.58 C 3.12 2.59 2.23 2.63 1.79 2.65 C 1.59 1.99 1.21 0.66 1.01 0.00 Z" />
<path fill="#01000c" opacity="1.00" d=" M 9.75 0.00 L 40.29 0.00 C 41.03 8.78 42.60 17.47 43.55 26.24 C 41.01 25.33 38.51 24.29 35.88 23.67 C 33.55 22.95 31.45 24.62 29.33 25.34 C 29.44 26.57 29.55 27.81 29.66 29.04 C 30.98 27.85 32.32 26.67 33.67 25.51 C 33.41 27.66 34.12 30.64 31.23 31.12 C 32.15 31.72 33.06 32.32 33.98 32.93 C 33.04 33.79 32.10 34.65 31.16 35.51 C 27.24 34.62 23.43 33.17 19.44 32.69 C 16.64 34.37 14.41 37.34 14.60 40.74 C 13.79 47.38 15.41 53.94 17.40 60.22 C 18.77 65.39 23.90 67.99 26.93 72.06 C 30.27 75.64 31.19 81.28 36.00 83.41 C 35.46 81.85 34.89 80.30 34.31 78.76 C 35.44 78.22 36.56 77.68 37.68 77.14 C 37.91 78.92 38.15 80.70 38.38 82.48 C 39.32 82.59 40.25 82.69 41.19 82.80 C 41.26 83.13 41.40 83.80 41.47 84.13 C 40.86 84.46 39.62 85.12 39.01 85.45 C 40.38 86.56 41.74 87.67 43.10 88.79 C 37.46 88.35 31.86 86.91 26.18 87.37 C 18.45 88.55 11.66 92.70 4.43 95.39 C 4.33 91.26 3.69 87.15 3.68 83.02 C 4.03 78.18 7.27 74.23 8.33 69.58 C 9.82 59.10 8.90 48.49 9.46 37.96 C 9.92 30.89 7.40 24.05 7.57 16.99 C 7.23 11.23 8.51 5.58 9.75 0.00 Z" />
<path fill="#01000c" opacity="1.00" d=" M 43.19 0.00 L 66.42 0.00 C 68.77 1.80 71.49 1.94 73.83 0.00 L 115.38 0.00 C 115.13 4.30 115.38 8.70 117.36 12.61 C 119.27 16.90 119.59 21.63 119.97 26.24 C 113.54 27.17 107.46 29.67 101.85 32.90 C 96.72 35.59 95.35 41.70 92.04 46.04 C 89.61 50.17 85.01 52.74 83.50 57.42 C 80.09 66.65 78.79 76.45 76.89 86.05 C 75.96 88.52 78.35 90.01 80.17 91.00 C 80.46 82.11 81.41 73.03 84.74 64.70 C 85.32 64.52 86.49 64.16 87.07 63.98 C 85.52 70.13 83.34 76.26 83.42 82.68 C 86.43 76.12 88.67 69.23 91.93 62.77 C 92.43 62.60 93.44 62.27 93.94 62.10 C 92.52 68.58 88.73 74.20 87.19 80.64 C 91.17 76.61 94.86 71.74 95.78 66.02 C 100.19 63.90 103.06 59.84 104.72 55.34 C 106.61 55.39 108.51 55.45 110.41 55.51 C 107.22 57.54 103.63 59.48 102.10 63.16 C 97.29 73.58 88.22 81.21 82.88 91.31 C 90.31 87.03 94.38 79.03 99.60 72.54 C 99.43 74.93 99.80 77.82 97.76 79.55 C 95.15 82.06 92.55 84.66 90.99 87.99 C 97.05 84.61 100.76 78.44 106.57 74.73 C 109.18 73.17 110.90 70.65 112.04 67.88 C 113.33 67.60 114.63 67.32 115.93 67.05 C 113.80 70.15 111.16 72.83 108.24 75.17 C 102.54 79.85 97.83 85.68 91.61 89.73 C 89.54 91.47 86.66 92.75 85.51 95.27 C 86.33 98.79 88.32 101.95 88.93 105.54 C 88.89 106.10 88.81 107.23 88.77 107.79 C 90.76 107.73 92.75 107.66 94.74 107.58 C 93.46 111.87 92.40 116.22 91.48 120.61 C 89.30 116.65 86.98 112.70 83.65 109.59 C 83.17 111.06 82.69 112.71 83.86 114.00 C 86.19 117.69 89.41 120.93 90.51 125.28 L 90.25 126.52 C 87.66 122.29 85.07 118.05 82.93 113.57 C 80.65 113.10 78.37 112.66 76.09 112.25 C 77.37 118.18 79.55 123.86 81.00 129.74 C 80.50 129.89 79.49 130.20 78.98 130.35 C 78.58 127.61 77.79 124.93 76.46 122.49 C 76.38 125.32 76.49 128.16 76.69 131.00 C 76.21 131.04 75.25 131.14 74.77 131.18 C 74.35 129.60 73.93 128.01 73.51 126.43 C 73.15 128.42 72.79 130.42 72.45 132.41 C 71.14 132.72 69.83 133.06 68.53 133.39 C 68.53 133.08 68.54 132.44 68.55 132.12 C 73.07 126.78 73.09 119.20 73.75 112.57 C 71.71 115.67 71.01 119.36 70.04 122.87 C 69.53 120.30 69.27 117.66 69.67 115.04 C 70.57 108.78 70.63 102.43 70.67 96.11 C 68.28 95.66 65.90 95.15 63.51 94.66 C 63.88 94.00 64.62 92.69 64.98 92.03 C 61.69 91.27 58.42 90.46 55.17 89.54 C 55.64 88.70 56.11 87.87 56.58 87.03 C 56.31 84.66 56.78 81.95 55.25 79.92 C 52.76 76.35 49.51 73.42 46.35 70.47 C 46.59 69.32 46.83 68.17 47.07 67.03 C 53.97 74.45 58.72 83.50 65.39 91.11 C 65.49 89.88 65.60 88.64 65.70 87.41 C 60.95 81.48 57.34 74.76 53.08 68.49 C 58.26 71.35 59.34 78.18 64.78 80.63 C 66.32 83.61 67.69 86.68 69.07 89.74 C 71.78 87.64 75.96 85.82 76.41 82.10 C 74.80 77.73 71.92 73.81 71.49 69.04 C 70.93 68.99 69.80 68.90 69.24 68.86 C 69.27 69.91 69.35 72.02 69.38 73.08 C 68.88 70.72 68.36 68.36 67.82 66.01 C 68.08 66.73 68.62 68.16 68.89 68.88 C 69.95 67.45 70.99 65.88 70.56 63.99 C 69.97 58.93 68.92 53.82 66.75 49.18 C 63.99 43.47 58.20 40.15 55.08 34.70 C 53.66 32.05 50.98 30.60 48.41 29.28 C 47.19 25.99 46.45 22.54 46.48 19.02 C 46.48 12.51 43.78 6.44 43.19 0.00 M 70.69 7.69 C 70.50 8.21 70.10 9.26 69.91 9.79 C 71.16 9.60 72.42 9.39 73.69 9.26 C 73.59 10.27 73.46 11.28 73.30 12.28 C 72.39 12.41 70.58 12.68 69.67 12.82 C 71.13 13.68 72.84 13.53 74.46 13.45 C 74.69 11.21 74.76 8.86 72.78 7.36 C 72.26 7.45 71.22 7.61 70.69 7.69 M 63.55 19.40 C 63.49 21.19 63.43 22.98 63.36 24.78 C 64.52 25.47 65.53 26.78 67.01 26.69 C 69.13 26.90 70.20 24.73 71.62 23.56 C 71.94 20.18 69.46 18.01 66.89 16.34 C 65.78 17.36 64.66 18.38 63.55 19.40 Z" />
<path fill="#01000c" opacity="1.00" d=" M 124.31 0.00 L 133.28 0.00 C 133.27 6.89 133.22 13.80 133.91 20.66 C 134.52 29.35 134.43 38.07 134.45 46.77 C 131.92 46.86 129.97 45.33 128.21 43.70 C 128.54 45.50 128.92 47.30 129.37 49.07 C 128.01 48.31 126.63 47.55 125.27 46.80 C 125.29 47.80 125.33 49.80 125.35 50.79 C 125.93 50.64 127.08 50.33 127.65 50.17 C 126.87 50.86 126.09 51.55 125.33 52.25 C 126.02 52.54 127.41 53.11 128.10 53.40 C 127.03 53.51 125.96 53.62 124.89 53.73 C 125.08 48.73 124.25 43.77 123.85 38.79 C 123.36 32.53 123.32 26.25 123.29 19.98 C 123.17 13.29 124.66 6.69 124.31 0.00 Z" />
<path fill="#01000c" opacity="1.00" d=" M 137.35 0.00 L 153.43 0.00 C 154.61 0.60 155.76 1.29 157.02 1.74 C 158.28 1.25 159.47 0.59 160.70 0.00 L 193.47 0.00 C 193.60 3.17 193.03 6.62 194.65 9.52 C 197.31 9.74 199.83 8.57 202.46 8.41 C 204.61 9.89 202.31 11.86 201.48 13.43 C 197.68 18.61 193.35 23.39 189.29 28.37 C 187.47 30.38 187.38 33.21 186.81 35.73 C 186.39 38.45 185.57 41.17 185.78 43.95 C 186.88 49.78 189.34 55.30 192.81 60.10 C 195.04 62.90 194.74 66.63 194.39 69.96 C 193.40 77.13 192.86 84.49 193.98 91.66 C 194.10 93.87 196.64 93.92 198.15 94.77 C 197.23 87.56 197.66 80.29 197.62 73.04 C 197.63 70.83 197.80 68.60 198.53 66.51 C 200.28 66.67 201.97 67.16 203.67 67.58 C 203.93 77.21 203.36 86.86 204.15 96.47 C 200.87 95.54 197.51 94.28 194.05 94.78 C 190.75 95.15 187.37 95.70 184.12 94.66 C 183.18 95.50 182.27 96.37 181.35 97.24 C 181.19 95.88 181.03 94.52 180.87 93.16 C 177.81 93.19 174.76 93.31 171.71 93.46 C 165.62 93.63 159.52 93.49 153.42 93.57 C 153.57 98.96 153.59 104.34 153.70 109.72 C 153.05 109.18 152.40 108.63 151.76 108.07 C 150.04 109.60 148.33 111.16 146.67 112.75 C 148.94 112.69 151.21 112.62 153.48 112.53 C 151.46 114.77 149.02 116.76 147.69 119.52 C 146.15 124.22 147.10 129.67 143.95 133.82 C 142.87 130.53 140.19 126.93 142.27 123.50 C 141.48 123.58 139.89 123.74 139.09 123.82 C 140.64 118.34 140.93 112.58 140.61 106.91 C 140.73 105.71 139.78 104.92 139.07 104.12 C 142.95 104.46 146.85 104.53 150.74 104.78 C 150.69 101.26 150.64 97.75 150.64 94.23 L 150.36 94.21 C 147.01 93.72 143.64 93.39 140.28 93.04 C 142.43 89.80 148.04 91.73 149.27 87.60 C 151.50 79.70 149.42 71.48 149.26 63.46 C 147.95 63.86 145.33 63.00 145.45 65.09 C 144.62 70.20 146.78 76.15 142.92 80.41 C 138.95 69.93 141.94 58.56 139.15 47.91 C 137.88 41.26 140.09 34.60 139.62 27.92 C 138.74 18.63 137.58 9.34 137.35 0.00 M 146.74 27.51 C 145.87 29.52 147.29 31.32 148.24 32.98 C 150.34 32.65 152.91 31.98 153.44 29.57 C 153.52 27.94 153.92 25.79 152.46 24.64 C 150.14 23.88 147.32 25.00 146.74 27.51 M 147.81 44.75 C 147.67 45.76 147.52 46.76 147.38 47.77 C 148.61 48.49 149.90 49.15 151.27 49.58 C 151.34 47.93 151.40 46.27 151.45 44.61 C 150.24 44.66 149.02 44.70 147.81 44.75 Z" />
<path fill="#01000c" opacity="1.00" d=" M 198.14 0.00 L 203.95 0.00 C 203.64 1.50 203.39 3.01 203.15 4.52 C 201.70 4.93 200.24 5.33 198.75 5.58 C 198.42 3.74 198.29 1.87 198.14 0.00 Z" />
<path fill="#01000c" opacity="1.00" d=" M 207.32 0.00 L 227.92 0.00 C 221.85 2.93 215.07 3.83 208.95 6.66 C 208.41 4.44 207.86 2.22 207.32 0.00 Z" />
<path fill="#01000c" opacity="1.00" d=" M 243.80 0.00 L 267.84 0.00 C 267.06 1.62 266.35 3.28 265.64 4.93 C 265.84 5.59 266.26 6.91 266.46 7.57 C 267.73 8.49 269.01 9.41 270.28 10.34 C 270.29 14.24 270.35 18.14 270.56 22.03 C 268.24 17.29 266.12 12.28 262.22 8.59 C 262.30 10.65 262.39 12.79 263.38 14.66 C 265.62 19.44 267.41 24.43 269.76 29.16 C 267.14 25.42 265.30 21.20 262.55 17.55 C 262.50 19.88 262.31 22.32 263.29 24.51 C 265.57 30.31 267.88 36.12 269.42 42.17 C 267.11 37.70 266.00 32.76 264.04 28.15 C 261.64 22.40 260.82 16.18 258.91 10.27 C 256.92 10.86 254.88 11.79 252.76 11.42 C 250.45 11.20 248.95 9.26 247.25 7.92 C 245.16 16.72 243.90 26.23 238.12 33.55 C 238.79 27.06 243.10 21.50 243.45 14.86 C 238.75 20.98 236.63 28.70 231.46 34.50 C 231.82 27.74 237.75 23.07 239.17 16.57 C 234.89 19.57 231.96 23.97 228.62 27.91 C 228.68 28.61 228.81 30.02 228.87 30.73 C 228.18 30.74 226.81 30.76 226.12 30.77 C 223.45 33.88 221.31 37.43 218.52 40.43 C 216.71 40.73 214.85 40.57 213.03 40.58 C 212.70 36.42 217.65 37.94 219.52 35.55 C 222.09 32.72 223.91 29.29 226.52 26.49 C 233.30 19.52 240.66 12.95 246.16 4.88 C 238.09 9.03 232.59 16.60 225.69 22.27 C 227.64 16.58 233.37 13.66 236.56 8.78 C 238.49 5.35 243.98 4.53 243.80 0.00 Z" />
<path fill="#01000c" opacity="1.00" d=" M 218.04 11.23 C 225.10 7.45 232.55 4.47 239.90 1.31 C 232.78 4.78 226.46 9.89 218.94 12.49 C 218.71 12.17 218.26 11.54 218.04 11.23 Z" />
<path fill="#01000c" opacity="1.00" d=" M 277.22 6.99 C 285.15 9.48 292.61 13.87 301.00 14.61 C 307.48 14.04 313.75 11.95 320.00 10.24 L 320.00 138.02 C 318.94 138.69 317.84 139.31 316.73 139.91 C 317.13 141.71 317.52 143.53 317.91 145.34 C 318.44 145.34 319.48 145.33 320.00 145.33 L 320.00 175.87 C 318.75 175.58 317.49 175.34 316.24 175.10 C 316.62 179.90 317.59 184.65 317.62 189.49 C 318.41 189.49 319.20 189.49 320.00 189.50 L 320.00 240.00 L 283.82 240.00 C 284.23 235.39 284.42 230.77 284.48 226.15 C 286.02 226.58 287.56 227.02 289.11 227.47 C 293.40 225.50 297.78 223.55 301.43 220.48 C 308.21 214.88 311.50 206.38 314.39 198.34 C 316.06 192.03 318.15 184.52 314.11 178.64 C 311.34 178.28 308.69 179.50 306.03 180.06 C 307.47 177.24 310.14 175.58 312.92 174.30 C 311.43 169.38 308.98 164.32 304.39 161.61 C 300.48 160.12 296.18 160.60 292.08 160.42 C 293.82 161.85 295.57 163.28 297.33 164.70 C 297.43 165.09 297.65 165.89 297.75 166.28 C 293.30 166.48 288.43 167.07 284.84 163.80 C 286.63 163.18 288.43 162.57 290.24 161.98 C 290.39 161.60 290.70 160.84 290.85 160.46 C 287.52 160.93 284.19 161.35 280.84 161.70 C 280.14 157.86 279.68 153.98 278.89 150.16 C 278.05 146.21 275.68 142.82 274.55 138.97 C 274.60 136.85 275.28 134.51 276.95 133.10 C 278.90 132.27 281.37 132.48 283.03 131.12 C 284.32 127.89 284.50 124.34 285.50 121.01 C 286.15 118.32 287.42 115.77 287.63 112.99 C 287.42 110.66 286.01 108.67 284.99 106.64 C 281.32 111.86 281.45 118.33 280.12 124.30 C 279.65 126.92 276.65 127.22 274.64 128.08 C 272.20 124.13 272.23 119.43 272.52 114.96 C 272.95 109.31 271.85 103.53 273.44 97.99 C 275.16 91.31 276.96 84.55 276.60 77.57 C 278.88 78.82 281.34 80.03 284.04 79.66 C 291.80 79.72 298.32 74.89 304.02 70.17 C 309.75 64.51 306.61 55.89 306.07 48.92 C 305.94 44.04 304.15 39.13 299.69 36.61 C 299.48 38.44 299.27 40.26 299.08 42.09 C 298.88 40.32 298.68 38.56 298.49 36.79 C 297.11 35.46 295.69 34.17 294.38 32.77 C 291.78 30.68 293.00 26.99 292.66 24.15 C 289.88 25.06 286.97 25.35 284.06 25.30 C 283.85 24.90 283.42 24.10 283.21 23.70 C 284.72 23.93 286.41 25.04 287.75 23.79 C 287.94 23.47 288.32 22.84 288.51 22.53 C 286.70 17.65 281.26 15.81 278.26 11.86 C 277.51 10.36 277.54 8.61 277.22 6.99 Z" />
<path fill="#01000c" opacity="1.00" d=" M 0.66 16.94 C 0.97 15.70 0.49 12.97 2.48 13.31 C 4.31 19.36 3.20 25.77 3.79 31.98 C 4.78 42.29 4.24 52.65 4.42 62.99 C 4.72 67.17 2.17 70.64 0.00 73.93 L 0.00 35.52 C 0.64 29.34 0.58 23.14 0.66 16.94 Z" />
<path fill="#01000c" opacity="1.00" d=" M 241.09 40.02 C 245.08 32.14 246.78 23.37 249.84 15.14 C 255.68 25.79 251.58 38.37 254.49 49.66 C 257.52 57.12 262.89 63.29 266.70 70.33 C 267.83 72.60 269.63 74.39 271.58 75.97 C 271.41 82.09 271.12 88.21 270.22 94.26 C 269.14 94.43 268.06 94.59 266.98 94.76 C 265.63 90.90 267.08 86.97 267.22 83.07 C 266.84 80.98 264.63 80.16 262.75 80.52 C 261.99 83.06 262.30 85.75 262.32 88.37 C 260.46 87.64 258.61 86.92 256.76 86.19 C 253.49 88.64 251.61 92.30 250.32 96.09 C 249.72 94.55 249.13 93.02 248.54 91.49 C 247.71 91.44 246.07 91.35 245.24 91.31 C 245.66 89.33 246.09 87.34 246.52 85.36 C 248.32 85.39 250.13 85.42 251.94 85.45 C 251.72 84.95 251.28 83.95 251.06 83.44 C 249.05 83.53 247.01 83.50 245.03 83.86 C 241.82 85.06 239.50 87.73 236.99 89.94 C 237.41 90.77 237.83 91.59 238.25 92.42 C 237.54 91.98 236.83 91.53 236.12 91.09 C 235.43 91.74 234.05 93.03 233.36 93.68 C 234.00 94.35 234.65 95.01 235.30 95.67 L 236.13 94.60 C 235.48 95.66 234.83 96.72 234.18 97.79 C 233.36 96.99 232.54 96.18 231.72 95.40 C 226.78 102.21 228.05 111.20 224.61 118.67 C 222.10 123.43 222.25 128.85 222.34 134.07 C 224.37 133.71 226.40 133.30 228.39 132.76 C 228.66 138.62 228.15 144.71 230.34 150.28 C 231.72 143.08 229.96 135.32 232.82 128.46 C 233.51 130.59 234.09 132.76 234.68 134.92 C 235.43 134.53 236.93 133.75 237.67 133.36 C 237.17 132.26 236.67 131.17 236.17 130.08 C 240.71 126.87 240.37 120.93 240.92 116.00 C 243.40 114.54 245.55 112.62 247.17 110.23 C 247.66 110.72 248.14 111.20 248.63 111.68 C 247.74 112.02 246.86 112.36 245.97 112.70 C 246.16 113.69 246.35 114.68 246.54 115.67 C 245.58 116.06 244.63 116.45 243.69 116.85 C 242.25 122.55 239.60 128.51 241.23 134.44 C 238.25 134.98 235.25 135.37 232.24 135.70 C 232.65 138.60 233.10 141.49 233.63 144.37 L 233.68 144.58 C 234.64 144.71 235.60 144.84 236.57 144.96 C 234.94 149.57 233.42 154.27 233.05 159.19 C 236.26 154.47 238.02 148.98 239.74 143.60 C 240.43 143.52 241.83 143.37 242.52 143.30 C 240.94 145.99 239.70 148.89 239.33 152.02 C 243.94 147.86 244.91 141.52 248.11 136.47 C 248.21 137.78 248.33 139.10 248.50 140.41 C 245.33 143.92 243.99 148.56 241.36 152.43 C 239.11 156.32 235.76 159.91 235.54 164.63 C 237.16 163.23 238.70 161.70 239.81 159.85 C 242.92 154.66 246.61 149.86 249.56 144.57 C 251.64 144.32 253.71 144.00 255.78 143.70 C 256.62 143.82 258.31 144.08 259.15 144.21 C 256.46 144.50 253.42 144.07 251.16 145.88 C 249.23 147.49 247.98 149.72 246.64 151.80 C 243.58 156.82 240.09 161.56 236.57 166.26 C 237.57 167.68 238.58 169.11 239.58 170.54 C 245.63 168.74 251.96 167.85 258.25 168.75 C 255.55 169.17 252.74 169.18 250.16 170.11 C 249.08 171.12 249.51 172.86 249.15 174.18 C 244.90 175.01 240.45 173.75 236.34 175.42 C 237.75 176.21 239.17 176.98 240.59 177.76 C 240.49 178.56 240.27 180.16 240.17 180.96 C 238.74 180.57 237.32 180.19 235.90 179.82 C 236.70 183.77 240.01 186.22 242.86 188.73 C 239.67 186.85 236.29 185.30 232.79 184.08 C 232.61 185.72 232.44 187.36 232.27 189.00 C 231.47 189.79 230.68 190.58 229.88 191.38 C 233.86 198.12 238.05 204.81 240.67 212.23 C 237.72 208.07 236.85 202.32 232.13 199.60 C 233.31 206.69 238.64 212.75 237.51 220.28 C 236.12 218.34 234.83 216.33 233.63 214.27 C 234.50 210.32 233.33 206.34 230.46 203.50 C 230.30 209.31 230.40 216.33 235.57 220.14 C 231.67 224.91 235.40 230.61 235.68 235.87 C 234.32 237.41 232.60 238.57 231.01 239.85 C 230.38 238.77 229.77 237.71 229.15 236.64 C 228.12 236.56 227.08 236.48 226.05 236.41 C 225.41 234.66 224.77 232.92 224.13 231.17 C 224.74 230.45 225.35 229.72 225.96 229.00 C 226.75 229.69 227.54 230.39 228.33 231.10 C 228.46 230.19 228.74 228.38 228.87 227.47 C 230.98 229.26 229.84 231.77 229.41 233.97 C 230.10 233.89 231.49 233.73 232.19 233.64 C 232.56 230.99 231.40 228.76 229.50 227.00 C 229.47 221.31 229.61 215.62 228.97 209.96 C 228.30 204.13 229.43 198.10 227.76 192.39 C 227.42 192.35 226.73 192.25 226.38 192.21 C 224.79 197.37 225.90 202.79 226.31 208.03 C 226.86 213.01 226.73 218.02 226.37 223.01 C 226.25 222.76 225.99 222.26 225.86 222.01 C 225.52 218.63 224.24 215.37 224.41 211.95 C 224.52 208.60 224.59 205.25 224.21 201.93 C 223.19 203.44 221.75 204.94 221.84 206.92 C 221.77 211.93 222.48 216.92 222.32 221.94 C 222.84 222.70 223.37 223.46 223.90 224.23 C 222.82 227.28 221.94 230.40 221.16 233.54 C 222.87 234.64 224.58 235.74 226.29 236.85 C 225.10 237.91 223.93 238.99 222.70 240.00 L 218.94 240.00 C 216.64 235.46 219.49 230.73 219.33 226.03 C 219.24 222.91 219.16 219.80 219.58 216.71 C 218.15 216.57 216.71 216.44 215.28 216.32 C 216.01 207.55 219.67 199.28 219.99 190.45 C 218.65 190.16 217.31 189.87 215.98 189.59 C 214.33 184.98 212.74 180.15 213.64 175.19 C 216.38 173.73 218.71 171.51 218.79 168.18 C 216.69 170.41 214.14 174.15 210.82 171.30 C 212.16 170.17 213.61 169.13 214.84 167.86 C 215.16 164.33 211.11 167.63 209.91 168.68 C 207.36 168.42 204.90 167.67 202.69 166.36 C 203.51 165.34 204.38 164.36 205.31 163.44 C 206.91 163.26 208.51 163.46 210.10 163.56 C 209.06 161.52 207.57 159.38 208.40 156.98 C 211.39 159.27 213.57 163.82 218.03 162.81 C 216.47 159.96 214.85 157.15 213.33 154.28 C 215.41 155.11 217.50 155.94 219.60 156.77 C 219.61 153.99 219.52 151.22 219.33 148.45 C 220.65 148.50 221.96 148.56 223.28 148.62 C 223.99 150.22 224.87 151.78 225.24 153.52 C 224.91 156.01 223.75 158.30 222.91 160.66 C 225.17 160.03 227.44 159.47 229.73 158.98 C 228.55 153.79 227.46 148.58 226.57 143.33 L 227.59 143.23 C 226.88 140.29 226.43 137.29 226.26 134.28 C 223.38 134.74 220.52 135.27 217.64 135.69 C 219.94 130.84 221.05 124.55 217.94 119.80 C 215.33 122.68 216.10 126.55 216.45 130.06 C 215.86 130.37 214.66 131.01 214.06 131.32 C 212.60 130.93 211.15 130.55 209.69 130.17 C 209.20 128.71 208.71 127.24 208.29 125.76 C 210.86 119.30 210.97 112.17 210.10 105.35 C 209.70 102.45 208.48 99.68 206.33 97.67 C 207.12 93.17 207.59 88.60 207.53 84.03 C 207.42 78.01 208.36 72.03 208.42 66.01 C 213.24 64.54 218.38 63.47 222.57 60.52 C 225.63 57.55 227.63 53.67 230.61 50.62 C 233.76 46.73 238.90 44.71 241.09 40.02 M 220.39 66.54 C 217.37 69.09 215.07 72.82 215.55 76.91 C 216.02 79.60 218.77 80.93 221.06 81.83 C 223.45 83.06 226.12 81.58 227.98 80.05 C 230.19 77.78 229.52 74.23 229.37 71.36 C 228.39 67.44 223.99 66.10 220.39 66.54 M 221.46 190.15 C 221.11 192.78 220.06 195.26 219.73 197.89 C 219.24 204.00 216.56 209.85 217.53 216.08 C 218.19 216.27 219.50 216.65 220.15 216.84 C 219.71 207.78 223.52 199.25 223.85 190.25 C 223.25 190.23 222.06 190.17 221.46 190.15 M 219.18 236.39 C 217.85 237.39 219.65 239.44 220.90 238.47 C 222.24 237.47 220.42 235.38 219.18 236.39 Z" />
<path fill="#01000c" opacity="1.00" d=" M 67.95 17.78 C 68.93 18.79 69.92 19.80 70.90 20.80 C 70.09 22.11 69.29 23.43 68.49 24.74 C 66.97 24.66 65.44 24.57 63.92 24.47 C 65.59 22.46 67.63 20.55 67.95 17.78 Z" />
<path fill="#01000c" opacity="1.00" d=" M 149.90 25.08 C 150.60 25.15 152.00 25.30 152.69 25.37 C 152.76 26.01 152.88 27.30 152.94 27.94 C 151.66 29.45 150.13 30.72 148.14 31.16 C 148.70 29.13 149.31 27.11 149.90 25.08 Z" />
<path fill="#01000c" opacity="1.00" d=" M 116.77 29.58 C 117.56 28.63 118.37 27.68 119.18 26.73 C 121.93 30.55 120.56 35.74 121.61 40.13 C 120.79 41.44 119.96 42.74 119.14 44.04 C 119.44 44.32 120.02 44.88 120.32 45.16 C 118.79 46.41 117.33 47.74 115.93 49.13 C 116.50 50.03 117.08 50.94 117.66 51.84 C 117.19 51.76 116.26 51.61 115.80 51.54 C 115.43 50.21 115.05 48.88 114.65 47.56 C 115.65 45.95 116.68 44.36 117.72 42.77 C 117.74 42.16 117.77 41.55 117.80 40.95 C 119.01 39.51 119.26 37.71 119.22 35.89 C 117.43 36.50 115.66 37.14 113.88 37.75 C 114.85 36.79 115.83 35.84 116.82 34.89 C 116.08 32.78 114.71 31.03 113.03 29.58 C 114.28 29.59 115.52 29.62 116.77 29.58 Z" />
<path fill="#01000c" opacity="1.00" d=" M 273.94 27.79 C 275.97 28.65 278.05 29.84 278.88 32.03 C 280.33 35.53 282.38 38.70 284.77 41.64 C 282.44 41.76 281.48 39.47 280.27 37.93 C 278.08 34.60 275.39 31.55 273.94 27.79 Z" />
<path fill="#01000c" opacity="1.00" d=" M 235.67 39.92 C 233.19 37.70 232.29 33.29 235.92 31.73 C 235.36 33.65 234.73 35.55 234.11 37.46 C 235.64 37.53 237.17 37.60 238.71 37.68 C 237.90 42.41 233.96 45.64 229.55 46.97 C 229.57 47.61 229.59 48.89 229.61 49.53 C 227.94 51.22 226.15 52.80 224.15 54.08 C 220.62 56.20 218.90 60.44 214.97 62.00 C 216.45 60.02 218.37 58.44 220.32 56.93 C 220.42 56.33 220.62 55.11 220.72 54.50 C 222.13 53.65 223.55 52.80 224.96 51.95 C 227.01 49.25 229.11 46.59 230.95 43.74 C 232.38 43.62 233.80 43.51 235.23 43.40 C 235.34 42.53 235.56 40.79 235.67 39.92 Z" />
<path fill="#01000c" opacity="1.00" d=" M 18.72 33.36 C 20.71 33.75 22.89 33.89 24.56 35.17 C 26.02 36.70 26.94 38.63 27.99 40.43 C 25.05 40.61 21.79 40.56 19.43 38.53 C 17.60 37.43 18.92 35.00 18.72 33.36 Z" />
<path fill="#01000c" opacity="1.00" d=" M 191.00 38.15 C 191.92 41.50 191.77 44.98 191.54 48.41 C 190.50 48.55 189.46 48.69 188.42 48.83 C 188.43 46.42 188.39 44.02 188.45 41.61 C 189.40 40.54 190.24 39.37 191.00 38.15 Z" />
<path fill="#01000c" opacity="1.00" d=" M 277.06 40.96 C 277.45 40.78 278.25 40.43 278.65 40.25 C 278.49 42.12 278.22 43.98 277.81 45.81 C 276.72 45.43 275.64 45.04 274.57 44.66 C 275.40 43.43 276.22 42.20 277.06 40.96 Z" />
<path fill="#01000c" opacity="1.00" d=" M 18.71 43.94 C 20.18 42.41 24.44 41.10 24.71 44.21 C 22.87 45.34 20.65 44.18 18.71 43.94 Z" />
<path fill="#01000c" opacity="1.00" d=" M 282.13 45.44 C 283.50 44.26 285.46 46.59 283.89 47.64 C 282.50 48.82 280.55 46.49 282.13 45.44 Z" />
<path fill="#01000c" opacity="1.00" d=" M 199.43 56.14 C 200.85 53.00 201.57 49.03 204.78 47.16 C 204.67 49.26 204.49 51.36 204.29 53.45 C 203.37 54.51 202.45 55.57 201.54 56.64 C 200.84 56.47 200.13 56.31 199.43 56.14 Z" />
<path fill="#01000c" opacity="1.00" d=" M 191.02 49.12 C 191.68 49.23 192.99 49.46 193.65 49.58 C 193.63 51.42 193.60 53.26 193.54 55.10 C 192.60 53.14 191.78 51.14 191.02 49.12 Z" />
<path fill="#01000c" opacity="1.00" d=" M 120.33 52.38 C 121.96 51.95 122.51 52.53 121.99 54.14 C 120.35 54.58 119.80 53.99 120.33 52.38 Z" />
<path fill="#01000c" opacity="1.00" d=" M 87.22 53.85 C 87.39 54.95 87.55 56.06 87.71 57.18 C 88.39 57.84 89.07 58.50 89.76 59.16 C 88.37 59.63 86.99 60.11 85.61 60.57 C 85.19 58.17 86.17 55.94 87.22 53.85 Z" />
<path fill="#01000c" opacity="1.00" d=" M 132.56 67.43 C 133.38 66.46 134.35 65.62 135.28 64.76 C 136.80 74.22 138.01 83.79 137.36 93.39 C 135.33 93.16 133.30 92.94 131.28 92.71 C 130.60 91.85 129.93 90.99 129.26 90.13 C 127.91 93.30 124.20 92.30 121.48 92.64 C 121.39 97.43 121.43 102.22 121.50 107.02 C 119.53 106.75 117.56 106.50 115.59 106.27 C 114.92 104.06 114.24 101.86 113.68 99.62 C 113.48 97.90 113.34 96.19 113.18 94.47 C 105.31 94.77 97.39 94.16 89.58 95.35 C 89.81 94.91 90.28 94.02 90.52 93.58 C 96.62 90.06 101.64 84.81 108.27 82.20 C 104.65 87.12 98.64 89.25 94.45 93.58 C 99.75 94.00 105.47 94.11 110.13 91.14 C 114.71 88.22 120.12 86.04 123.22 81.36 C 124.73 79.22 126.25 77.08 127.83 75.00 C 128.54 77.33 129.52 79.58 131.07 81.49 C 134.59 77.40 131.57 72.10 132.56 67.43 Z" />
<path fill="#01000c" opacity="1.00" d=" M 222.78 67.26 C 225.66 67.58 228.63 69.84 228.36 72.98 C 227.49 76.24 225.74 79.78 222.04 80.38 C 218.74 81.71 216.73 77.59 216.39 74.94 C 219.46 73.31 223.29 71.44 222.78 67.26 Z" />
<path fill="#01000c" opacity="1.00" d=" M 46.32 76.33 C 46.81 76.38 47.77 76.46 48.26 76.51 C 49.72 78.20 51.09 79.98 52.27 81.89 C 49.71 82.21 48.10 80.11 46.43 78.59 C 46.40 78.03 46.35 76.90 46.32 76.33 Z" />
<path fill="#01000c" opacity="1.00" d=" M 116.97 79.57 C 117.93 79.48 118.89 79.40 119.85 79.33 C 119.26 80.58 118.67 81.83 118.09 83.09 C 116.73 83.66 115.38 84.24 114.03 84.83 C 115.05 83.10 116.03 81.34 116.97 79.57 Z" />
<path fill="#01000c" opacity="1.00" d=" M 46.78 83.90 C 48.66 84.33 50.58 84.98 51.24 86.99 C 49.35 86.57 47.35 86.02 46.78 83.90 Z" />
<path fill="#01000c" opacity="1.00" d=" M 35.78 96.64 C 38.44 96.77 42.59 94.76 44.23 97.64 C 41.39 97.69 38.44 97.82 35.78 96.64 Z" />
<path fill="#01000c" opacity="1.00" d=" M 53.45 97.29 C 55.88 96.29 58.52 96.17 61.11 96.05 C 61.12 96.47 61.15 97.32 61.16 97.74 C 58.58 97.69 56.01 97.59 53.45 97.29 Z" />
<path fill="#01000c" opacity="1.00" d=" M 247.18 96.12 C 248.82 96.76 250.12 97.94 251.36 99.15 C 251.37 100.70 251.41 102.25 251.48 103.80 C 250.09 104.57 248.69 105.33 247.29 106.07 C 248.14 103.91 248.75 101.66 248.82 99.32 C 248.25 98.27 247.69 97.21 247.18 96.12 Z" />
<path fill="#01000c" opacity="1.00" d=" M 261.67 99.47 C 262.68 99.69 264.00 100.48 265.19 100.90 C 265.65 102.39 266.71 103.89 266.45 105.50 C 265.01 107.59 263.36 109.52 262.04 111.69 C 261.02 111.22 259.99 110.77 258.96 110.34 C 261.54 109.32 263.85 107.62 264.79 104.90 C 264.10 102.81 261.91 103.55 260.29 103.58 C 260.84 102.24 261.30 100.87 261.67 99.47 Z" />
<path fill="#01000c" opacity="1.00" d=" M 53.34 100.45 C 55.97 100.39 58.60 100.34 61.24 100.29 C 61.26 101.04 61.30 102.54 61.32 103.29 C 57.73 104.18 54.13 105.00 50.51 105.72 C 51.45 103.96 52.39 102.21 53.34 100.45 Z" />
<path fill="#01000c" opacity="1.00" d=" M 195.26 101.33 C 197.91 100.55 200.67 100.56 203.40 100.75 C 203.89 108.02 205.02 115.40 203.48 122.62 C 202.77 122.28 201.36 121.58 200.65 121.23 C 200.28 114.96 200.04 108.67 199.23 102.44 C 198.26 102.41 197.29 102.37 196.32 102.30 C 196.05 102.06 195.52 101.58 195.26 101.33 Z" />
<path fill="#01000c" opacity="1.00" d=" M 39.78 108.72 C 41.12 106.77 43.45 106.09 45.52 105.22 C 45.54 105.76 45.58 106.84 45.61 107.38 C 43.67 107.87 41.74 108.36 39.78 108.72 Z" />
<path fill="#01000c" opacity="1.00" d=" M 49.31 109.45 C 53.35 107.87 57.42 106.37 61.32 104.46 C 61.33 106.41 61.35 108.35 61.40 110.30 C 57.01 114.09 53.75 119.10 48.83 122.29 C 50.68 118.07 54.51 115.24 56.67 111.21 C 54.21 112.67 51.84 114.26 49.46 115.84 C 49.87 114.45 50.29 113.06 50.71 111.67 C 50.24 110.93 49.77 110.19 49.31 109.45 Z" />
<path fill="#01000c" opacity="1.00" d=" M 102.46 110.42 C 102.85 108.64 101.61 105.84 103.58 104.77 C 104.59 104.62 106.61 104.33 107.62 104.18 C 108.35 107.18 108.74 110.24 109.38 113.26 C 108.30 114.13 107.23 115.01 106.16 115.88 C 104.94 114.93 103.72 113.99 102.49 113.05 C 102.48 112.17 102.47 111.30 102.46 110.42 M 104.27 108.11 C 104.33 109.18 104.40 110.26 104.47 111.34 C 105.25 111.51 106.79 111.87 107.56 112.04 C 107.52 111.24 107.43 109.65 107.38 108.85 C 106.35 108.57 105.32 108.32 104.27 108.11 Z" />
<path fill="#01000c" opacity="1.00" d=" M 121.76 109.71 C 124.22 108.61 126.90 108.41 129.56 108.41 C 129.33 110.87 129.11 113.33 128.92 115.79 C 126.69 113.58 124.23 111.64 121.76 109.71 Z" />
<path fill="#01000c" opacity="1.00" d=" M 36.30 113.70 C 39.39 112.66 42.48 111.59 45.59 110.60 C 45.56 111.04 45.51 111.93 45.48 112.37 C 42.58 113.85 39.51 114.99 36.69 116.64 C 36.55 115.66 36.42 114.68 36.30 113.70 Z" />
<path fill="#01000c" opacity="1.00" d=" M 12.25 117.20 C 14.78 115.88 17.02 114.12 19.02 112.10 C 20.11 113.19 21.39 114.23 21.58 115.90 C 21.93 115.87 22.64 115.80 23.00 115.76 C 23.39 117.65 25.29 117.96 26.83 118.51 C 28.53 117.70 30.37 117.17 32.26 117.49 C 29.71 119.16 26.93 120.45 24.11 121.61 C 23.03 120.80 21.94 119.99 20.86 119.19 C 20.86 118.41 20.87 116.85 20.87 116.07 L 18.51 116.28 C 18.57 117.19 18.71 119.00 18.77 119.91 C 18.26 119.77 17.23 119.49 16.72 119.35 C 17.20 117.99 17.66 116.62 18.12 115.25 C 15.97 115.54 14.85 117.36 13.85 119.06 C 13.32 118.44 12.78 117.82 12.25 117.20 Z" />
<path fill="#01000c" opacity="1.00" d=" M 265.22 114.13 C 266.07 114.60 266.93 115.07 267.79 115.55 C 267.09 117.10 266.36 118.64 265.67 120.19 C 265.48 118.17 265.35 116.15 265.22 114.13 Z" />
<path fill="#01000c" opacity="1.00" d=" M 101.48 115.36 C 103.39 116.71 105.31 118.11 106.75 119.98 C 105.72 122.11 103.13 121.03 101.27 121.20 C 101.33 119.25 101.39 117.30 101.48 115.36 Z" />
<path fill="#01000c" opacity="1.00" d=" M 40.97 120.78 C 41.94 118.61 43.69 117.04 46.17 116.99 C 45.45 119.37 43.42 120.72 40.97 120.78 Z" />
<path fill="#01000c" opacity="1.00" d=" M 0.00 118.51 C -0.05 123.95 2.76 129.78 0.00 134.93 L 0.00 118.51 Z" />
<path fill="#01000c" opacity="1.00" d=" M 3.89 126.68 C 3.94 124.21 5.59 122.75 7.73 121.88 C 7.73 123.46 7.72 125.03 7.70 126.61 C 6.43 126.63 5.16 126.66 3.89 126.68 Z" />
<path fill="#01000c" opacity="1.00" d=" M 124.25 123.05 C 125.85 122.32 126.86 124.93 125.06 125.30 C 123.48 126.02 122.46 123.40 124.25 123.05 Z" />
<path fill="#01000c" opacity="1.00" d=" M 266.86 136.04 C 268.42 132.81 268.24 129.15 269.40 125.81 C 271.52 131.50 270.93 137.82 273.42 143.41 C 275.99 149.27 275.89 155.74 276.79 161.96 C 271.68 162.71 266.49 162.32 261.45 161.30 C 261.41 155.84 261.63 150.38 261.66 144.93 C 263.23 141.87 265.80 139.37 266.86 136.04 Z" />
<path fill="#01000c" opacity="1.00" d=" M 117.45 127.05 C 118.71 128.26 120.42 129.17 121.19 130.80 C 121.46 132.43 121.34 134.09 121.39 135.74 C 122.28 136.01 124.06 136.54 124.94 136.81 C 124.56 135.61 124.17 134.41 123.79 133.21 C 124.42 131.83 125.04 130.45 125.65 129.07 C 125.51 131.50 125.46 133.93 125.46 136.37 C 126.39 134.93 127.31 133.49 128.23 132.05 C 127.45 134.90 125.81 137.34 123.90 139.55 C 122.92 139.39 121.95 139.24 120.97 139.09 C 121.53 140.00 122.09 140.92 122.65 141.83 C 122.02 143.77 121.39 145.71 120.78 147.66 C 117.68 144.67 113.22 144.77 109.21 144.62 C 112.75 144.64 116.29 144.72 119.83 144.51 C 119.17 138.67 118.32 132.86 117.45 127.05 Z" />
<path fill="#01000c" opacity="1.00" d=" M 4.31 131.08 C 4.69 129.47 6.42 129.39 7.72 129.05 C 7.65 129.61 7.52 130.71 7.45 131.26 C 5.64 132.78 4.72 134.86 6.18 136.99 C 6.10 137.17 5.93 137.53 5.85 137.71 C 5.06 135.62 2.84 133.38 4.31 131.08 Z" />
<path fill="#01000c" opacity="1.00" d=" M 83.18 129.82 C 83.97 129.62 84.76 129.42 85.55 129.22 C 86.45 130.98 87.34 132.75 88.25 134.52 C 87.59 137.25 86.87 139.98 85.78 142.58 C 85.34 138.24 85.43 133.88 85.22 129.54 C 84.71 129.61 83.69 129.75 83.18 129.82 Z" />
<path fill="#01000c" opacity="1.00" d=" M 96.30 133.20 C 99.72 133.30 103.14 133.26 106.57 133.22 C 106.63 137.04 106.79 140.85 106.82 144.67 C 106.65 142.16 106.74 139.59 106.04 137.16 C 104.71 134.63 101.67 134.35 99.14 134.11 C 99.14 134.57 99.14 135.49 99.13 135.96 C 96.02 137.42 97.68 141.48 97.28 144.14 C 99.47 143.62 101.40 142.58 102.36 140.44 C 102.19 142.68 102.07 144.92 101.89 147.15 C 101.82 145.82 101.77 144.49 101.72 143.16 C 98.85 144.95 95.48 144.54 92.28 144.55 C 94.63 149.67 99.63 152.64 103.14 156.85 C 105.43 159.68 109.14 161.56 110.36 165.14 C 113.44 180.22 113.16 195.70 113.41 211.02 C 113.50 213.97 113.53 217.78 116.43 219.45 C 118.39 219.64 120.29 218.92 122.19 218.57 C 122.76 225.72 123.12 232.91 124.21 240.00 L 59.72 240.00 C 57.47 231.46 58.92 222.65 58.26 213.99 C 57.99 212.58 56.79 209.18 54.99 210.67 C 54.29 213.35 54.17 216.14 53.54 218.84 C 51.51 218.68 51.34 216.10 50.67 214.60 C 48.84 206.64 49.23 198.26 50.52 190.23 C 56.16 190.29 62.09 192.93 67.51 190.43 C 73.04 186.73 77.08 181.23 80.77 175.79 C 82.80 172.92 83.25 169.39 83.38 165.97 C 83.67 159.37 85.25 152.91 87.01 146.57 C 81.43 145.31 75.70 144.89 70.01 145.44 C 69.70 149.13 69.28 152.88 67.70 156.28 C 67.50 152.60 67.77 148.92 68.35 145.30 C 66.36 145.33 64.37 145.36 62.38 145.40 C 62.37 145.18 62.36 144.75 62.36 144.53 C 68.89 144.29 75.43 144.56 81.96 144.19 C 86.57 143.55 91.22 143.47 95.87 143.59 C 96.36 140.15 96.37 136.67 96.30 133.20 M 74.73 211.83 C 74.57 213.16 74.41 214.50 74.26 215.84 C 75.34 215.69 76.43 215.55 77.52 215.41 C 77.52 213.99 77.52 212.58 77.52 211.16 C 76.59 211.38 75.66 211.60 74.73 211.83 M 80.96 212.89 C 80.46 214.86 79.75 216.77 78.75 218.55 C 77.40 218.83 76.06 219.14 74.73 219.47 C 76.07 221.29 79.06 221.13 80.13 219.09 C 81.89 217.41 81.41 214.99 80.96 212.89 Z" />
<path fill="#01000c" opacity="1.00" d=" M 22.57 141.45 C 28.65 138.31 34.95 134.08 42.09 134.72 C 42.99 135.90 43.75 137.39 43.07 138.88 C 41.80 143.13 39.56 147.07 38.84 151.49 C 38.16 155.58 37.62 159.69 36.88 163.77 C 34.97 174.86 38.68 185.92 37.82 197.03 C 37.24 203.17 34.57 208.83 33.54 214.86 C 32.49 223.25 34.33 231.61 34.37 240.00 L 14.15 240.00 C 14.30 235.05 15.04 230.01 14.09 225.11 C 13.04 221.90 9.20 224.05 6.90 224.14 C 4.96 224.91 4.37 222.41 4.43 221.02 C 3.64 206.67 0.77 192.12 3.98 177.87 C 4.51 176.23 5.99 175.14 7.03 173.83 C 9.16 176.02 10.28 178.95 9.59 181.99 C 8.54 187.56 8.54 193.26 10.12 198.74 C 10.64 198.65 11.68 198.47 12.21 198.38 C 13.56 191.35 14.64 184.16 13.79 176.99 C 12.48 165.40 15.29 153.88 14.40 142.26 C 17.12 142.24 20.07 142.83 22.57 141.45 Z" />
<path fill="#01000c" opacity="1.00" d=" M 210.07 137.58 C 210.49 137.18 211.34 136.39 211.76 135.99 C 212.93 136.45 214.09 136.90 215.26 137.36 L 216.52 136.75 C 217.08 139.29 217.55 141.86 217.98 144.43 C 219.77 144.19 221.55 143.92 223.35 143.68 C 223.78 145.27 224.21 146.86 224.65 148.45 C 222.21 147.96 219.67 147.75 217.38 146.75 C 214.83 143.79 214.15 139.17 210.10 137.68 L 210.07 137.58 Z" />
<path fill="#01000c" opacity="1.00" d=" M 4.18 139.16 C 5.93 139.73 7.67 140.30 9.42 140.85 C 10.21 143.37 10.63 146.01 10.15 148.64 C 9.35 154.10 10.26 159.63 9.55 165.08 C 8.96 167.25 6.28 167.34 4.53 167.97 C 3.84 160.65 4.56 153.29 4.09 145.96 C 3.92 143.69 4.01 141.42 4.18 139.16 Z" />
<path fill="#01000c" opacity="1.00" d=" M 130.67 140.78 C 133.42 140.52 136.17 140.17 138.88 139.62 C 140.42 144.66 142.63 149.89 147.21 152.87 C 151.94 157.04 158.45 157.35 164.17 159.28 C 170.46 161.36 176.80 163.42 182.78 166.31 C 172.16 168.37 162.97 174.39 152.77 177.68 C 149.57 181.95 146.39 186.38 144.05 191.19 C 142.51 197.20 142.64 203.82 144.76 209.69 C 147.56 210.48 147.95 212.95 146.75 215.36 C 147.82 217.31 148.91 219.24 150.00 221.18 C 155.38 222.63 161.17 224.06 166.70 222.58 C 167.43 223.37 168.16 224.16 168.89 224.96 C 175.66 223.26 181.18 218.53 188.03 217.10 C 192.73 216.34 196.14 212.81 200.14 210.55 C 200.32 216.08 200.75 221.71 199.32 227.12 C 198.20 231.33 197.60 235.65 197.36 240.00 L 159.09 240.00 C 159.44 236.40 160.57 232.08 157.97 229.04 C 156.22 226.75 152.86 227.21 150.37 227.65 C 146.15 229.94 144.79 235.65 146.40 240.00 L 129.59 240.00 C 128.76 235.69 128.17 231.32 127.68 226.96 C 127.16 224.10 128.71 221.54 129.61 218.94 C 131.61 214.21 130.24 208.98 130.92 204.04 C 131.40 200.67 131.76 197.21 130.62 193.93 C 129.63 194.94 128.66 195.97 127.68 197.00 C 127.31 187.22 126.95 177.40 127.68 167.63 C 127.56 165.30 129.42 163.90 130.98 162.52 C 129.94 162.65 128.90 162.78 127.86 162.91 C 126.87 155.41 127.85 147.80 130.67 140.78 Z" />
<path fill="#01000c" opacity="1.00" d=" M 209.04 147.55 L 210.91 147.56 C 212.39 149.57 213.18 151.94 213.04 154.45 C 210.95 152.65 209.78 150.16 209.04 147.55 Z" />
<path fill="#01000c" opacity="1.00" d=" M 246.58 161.82 C 249.18 156.19 253.96 152.04 258.48 147.96 C 258.64 151.77 258.59 155.59 258.45 159.40 C 254.45 159.99 250.54 161.02 246.58 161.82 Z" />
<path fill="#01000c" opacity="1.00" d=" M 191.70 155.04 C 194.64 156.37 197.30 158.23 199.80 160.26 C 199.80 160.96 199.78 162.34 199.78 163.03 C 196.79 160.69 193.67 158.36 191.70 155.04 Z" />
<path fill="#01000c" opacity="1.00" d=" M 114.34 159.42 C 114.67 159.81 115.31 160.59 115.63 160.97 C 116.27 160.88 117.56 160.69 118.21 160.60 C 118.23 161.06 118.27 161.96 118.29 162.41 C 118.80 162.54 119.83 162.79 120.35 162.91 C 123.54 178.04 123.77 193.59 123.43 209.00 C 123.56 210.62 121.91 211.52 121.15 212.75 C 120.52 212.36 119.26 211.58 118.63 211.20 C 116.23 201.64 116.09 191.74 115.49 181.96 C 115.18 176.74 115.55 171.44 114.24 166.33 C 116.46 166.39 118.69 166.44 120.92 166.48 C 120.75 165.76 120.40 164.31 120.23 163.58 C 118.45 163.32 116.66 163.25 114.87 163.15 C 114.70 161.91 114.52 160.66 114.34 159.42 Z" />
<path fill="#01000c" opacity="1.00" d=" M 189.65 162.09 C 192.88 162.50 196.08 163.18 199.30 163.73 C 199.37 164.75 199.44 165.77 199.51 166.80 C 195.88 166.22 192.06 165.03 189.65 162.09 Z" />
<path fill="#01000c" opacity="1.00" d=" M 40.62 177.17 C 42.55 180.59 45.27 183.43 48.25 185.95 C 45.73 190.94 46.60 196.64 45.86 202.00 C 45.14 207.53 47.40 212.76 49.12 217.87 C 51.29 223.89 50.33 230.36 50.43 236.60 C 48.45 236.80 46.45 236.83 44.46 236.71 C 45.23 233.31 46.07 229.49 43.10 226.87 C 39.55 230.52 40.19 235.75 42.21 240.00 L 36.34 240.00 C 35.57 230.68 33.84 220.85 37.41 211.89 C 39.96 200.51 40.28 188.79 40.62 177.17 Z" />
<path fill="#01000c" opacity="1.00" d=" M 203.48 189.29 C 205.21 188.77 206.98 188.34 208.76 187.98 C 208.63 189.47 208.53 190.96 208.28 192.44 C 206.54 192.80 204.90 191.81 203.26 191.39 C 203.31 190.87 203.42 189.82 203.48 189.29 Z" />
<path fill="#01000c" opacity="1.00" d=" M 180.64 197.58 C 184.14 195.49 187.83 193.59 191.94 193.13 C 193.17 193.37 194.41 193.60 195.65 193.83 C 195.66 193.94 195.67 194.16 195.67 194.27 C 193.91 194.27 192.15 194.28 190.39 194.29 C 190.37 194.88 190.32 196.07 190.30 196.67 C 188.84 196.22 187.39 195.76 185.95 195.31 C 184.36 196.59 182.77 197.87 181.28 199.26 C 181.69 199.72 182.14 200.16 182.60 200.59 C 181.55 200.78 180.64 201.21 179.87 201.89 L 179.46 202.60 C 178.16 202.88 176.86 203.10 175.56 203.36 C 176.69 202.25 175.90 200.15 177.68 199.77 L 178.34 199.45 C 179.27 199.02 180.04 198.39 180.64 197.58 Z" />
<path fill="#01000c" opacity="1.00" d=" M 236.44 194.91 C 244.91 199.74 251.62 206.94 259.52 212.56 C 259.25 221.72 260.61 231.00 258.27 240.00 L 251.04 240.00 C 250.27 233.63 247.57 227.15 249.27 220.75 C 247.02 216.49 247.57 210.19 242.46 208.05 C 241.77 203.16 239.65 198.65 236.44 194.91 Z" />
<path fill="#01000c" opacity="1.00" d=" M 203.98 209.02 C 203.07 206.14 204.95 203.55 207.28 202.09 C 207.35 207.78 207.80 213.58 206.26 219.14 C 203.61 216.53 204.82 212.34 203.98 209.02 Z" />
<path fill="#01000c" opacity="1.00" d=" M 264.01 216.32 C 265.42 215.29 267.25 217.67 265.77 218.71 C 264.35 219.75 262.53 217.35 264.01 216.32 Z" />
<path fill="#01000c" opacity="1.00" d=" M 268.43 219.15 C 273.26 221.47 278.17 223.66 282.68 226.58 C 282.45 231.05 282.28 235.52 282.14 240.00 L 275.90 240.00 C 277.90 235.74 278.62 230.41 274.79 226.92 C 271.74 229.47 272.97 233.27 273.58 236.62 C 271.81 236.32 269.08 237.53 267.95 235.98 C 267.01 230.41 267.60 224.70 268.43 219.15 Z" />
<path fill="#01000c" opacity="1.00" d=" M 53.56 222.56 C 55.50 228.18 53.91 234.20 54.39 240.00 L 52.31 240.00 C 53.56 234.26 53.26 228.38 53.56 222.56 Z" />
<path fill="#01000c" opacity="1.00" d=" M 263.43 226.98 C 263.28 225.32 264.34 223.93 265.00 222.52 C 264.75 228.36 264.56 234.23 265.74 240.00 L 263.66 240.00 C 264.02 235.66 263.63 231.32 263.43 226.98 Z" />
<path fill="#01000c" opacity="1.00" d=" M 4.64 229.04 C 5.59 227.18 7.86 227.52 9.58 227.19 C 9.50 231.47 9.14 235.74 8.70 240.00 L 4.91 240.00 C 4.68 236.36 4.07 232.67 4.64 229.04 Z" />
<path fill="#01000c" opacity="1.00" d=" M 152.50 228.40 C 153.45 228.39 155.36 228.37 156.31 228.36 C 157.11 229.87 157.96 231.37 158.52 232.99 C 158.27 235.60 156.48 237.74 155.29 240.00 L 148.51 240.00 C 147.94 238.53 147.44 237.03 146.94 235.54 C 148.81 234.27 150.68 232.99 152.54 231.69 C 152.53 230.87 152.51 229.22 152.50 228.40 Z" />
<path fill="#01000c" opacity="1.00" d=" M 204.03 229.76 C 205.04 233.14 205.84 236.58 206.69 240.00 L 202.05 240.00 C 202.97 236.64 203.47 233.19 204.03 229.76 Z" />
</g>
<g id="#72fdedff">
<path fill="#72fded" opacity="1.00" d=" M 121.68 92.68 C 131.21 93.63 140.80 93.66 150.36 94.21 L 150.64 94.23 C 150.64 97.75 150.69 101.26 150.74 104.78 C 146.85 104.53 142.95 104.46 139.07 104.12 C 138.59 104.07 137.63 103.98 137.15 103.94 C 137.33 115.85 138.07 127.75 138.88 139.62 C 136.17 140.17 133.42 140.52 130.67 140.78 C 130.12 140.83 129.01 140.95 128.46 141.00 C 129.19 129.92 129.56 118.81 130.22 107.72 C 127.58 107.95 124.94 108.18 122.30 108.35 C 122.19 103.12 122.10 97.89 121.68 92.68 Z" />
<path fill="#72fded" opacity="1.00" d=" M 61.35 94.27 C 61.89 94.37 62.97 94.56 63.51 94.66 C 65.90 95.15 68.28 95.66 70.67 96.11 C 70.26 108.13 68.73 120.10 68.55 132.12 C 68.54 132.44 68.53 133.08 68.53 133.39 C 69.83 133.06 71.14 132.72 72.45 132.41 C 76.04 131.62 79.60 130.70 83.18 129.82 C 83.69 129.75 84.71 129.61 85.22 129.54 C 85.43 133.88 85.34 138.24 85.78 142.58 C 86.87 139.98 87.59 137.25 88.25 134.52 C 88.90 131.85 89.61 129.20 90.25 126.52 L 90.51 125.28 C 90.83 123.72 91.16 122.16 91.48 120.61 C 92.40 116.22 93.46 111.87 94.74 107.58 C 92.75 107.66 90.76 107.73 88.77 107.79 C 88.81 107.23 88.89 106.10 88.93 105.54 C 89.26 102.15 89.27 98.74 89.58 95.35 C 97.39 94.16 105.31 94.77 113.18 94.47 C 113.34 96.19 113.48 97.90 113.68 99.62 C 114.73 108.79 116.10 117.92 117.45 127.05 C 118.32 132.86 119.17 138.67 119.83 144.51 C 116.29 144.72 112.75 144.64 109.21 144.62 C 108.61 144.63 107.42 144.66 106.82 144.67 C 106.79 140.85 106.63 137.04 106.57 133.22 C 103.14 133.26 99.72 133.30 96.30 133.20 C 96.37 136.67 96.36 140.15 95.87 143.59 C 91.22 143.47 86.57 143.55 81.96 144.19 C 75.43 144.56 68.89 144.29 62.36 144.53 C 61.96 133.12 61.75 121.71 61.40 110.30 C 61.35 108.35 61.33 106.41 61.32 104.46 C 61.32 104.17 61.32 103.58 61.32 103.29 C 61.30 102.54 61.26 101.04 61.24 100.29 C 61.22 99.65 61.18 98.38 61.16 97.74 C 61.15 97.32 61.12 96.47 61.11 96.05 C 61.17 95.60 61.29 94.72 61.35 94.27 M 102.46 110.42 L 101.80 110.43 C 101.69 112.07 101.59 113.71 101.48 115.36 C 101.39 117.30 101.33 119.25 101.27 121.20 L 100.53 121.17 C 100.48 121.84 100.38 123.19 100.33 123.86 C 103.86 123.73 107.39 123.56 110.92 123.45 C 110.69 120.02 110.19 116.60 109.38 113.26 C 108.74 110.24 108.35 107.18 107.62 104.18 C 106.61 104.33 104.59 104.62 103.58 104.77 C 101.61 105.84 102.85 108.64 102.46 110.42 Z" />
<path fill="#72fded" opacity="1.00" d=" M 153.42 93.57 C 159.52 93.49 165.62 93.63 171.71 93.46 C 174.71 93.43 177.71 93.49 180.71 93.52 C 180.60 95.62 180.50 97.73 180.39 99.83 C 173.50 99.73 166.62 99.38 159.74 99.25 C 159.74 101.42 159.75 103.59 159.76 105.77 C 164.23 105.87 168.71 105.86 173.19 105.84 C 173.45 108.43 173.71 111.03 173.97 113.62 C 170.52 113.62 167.07 113.61 163.62 113.62 C 163.95 118.64 163.92 123.70 164.51 128.70 C 168.92 130.01 174.07 128.73 178.75 129.45 C 179.90 133.90 179.39 138.63 179.75 143.20 C 171.40 143.42 163.06 143.83 154.72 144.37 C 154.33 132.82 154.66 121.24 153.70 109.72 C 153.59 104.34 153.57 98.96 153.42 93.57 Z" />
<path fill="#72fded" opacity="1.00" d=" M 183.14 96.69 C 190.64 94.58 198.96 95.14 206.33 97.67 C 208.48 99.68 209.70 102.45 210.10 105.35 C 210.97 112.17 210.86 119.30 208.29 125.76 C 207.67 126.44 207.03 127.11 206.39 127.77 C 207.60 131.05 208.86 134.31 210.07 137.58 L 210.10 137.68 C 211.02 141.04 212.21 144.32 213.51 147.56 C 212.86 147.56 211.56 147.56 210.91 147.56 L 209.04 147.55 C 206.14 147.56 203.24 147.90 200.37 148.28 C 198.96 142.48 197.98 136.59 197.00 130.71 C 194.73 130.67 192.47 130.65 190.22 130.63 C 190.21 135.48 190.23 140.33 190.23 145.19 C 187.88 145.22 185.53 145.26 183.19 145.30 C 183.22 129.10 184.83 112.85 183.14 96.69 M 195.01 101.10 C 195.52 108.36 195.06 115.63 195.15 122.89 C 197.92 122.79 200.70 122.68 203.48 122.62 C 205.02 115.40 203.89 108.02 203.40 100.75 C 200.67 100.56 197.91 100.55 195.26 101.33 L 195.01 101.10 Z" />
<path fill="#72fded" opacity="1.00" d=" M 232.24 135.70 C 235.25 135.37 238.25 134.98 241.23 134.44 C 241.93 137.33 243.00 140.28 242.52 143.30 C 241.83 143.37 240.43 143.52 239.74 143.60 C 237.69 143.81 235.66 144.08 233.63 144.37 C 233.10 141.49 232.65 138.60 232.24 135.70 Z" />
<path fill="#72fded" opacity="1.00" d=" M 216.52 136.75 C 216.90 136.40 217.27 136.05 217.64 135.69 C 220.52 135.27 223.38 134.74 226.26 134.28 C 226.43 137.29 226.88 140.29 227.59 143.23 L 226.57 143.33 C 225.49 143.43 224.42 143.55 223.35 143.68 C 221.55 143.92 219.77 144.19 217.98 144.43 C 217.55 141.86 217.08 139.29 216.52 136.75 Z" />
<path fill="#72fded" opacity="1.00" d=" M 248.53 135.80 C 251.47 135.37 254.44 135.06 257.40 134.64 C 257.76 137.51 258.25 140.36 258.76 143.20 C 258.01 143.33 256.53 143.57 255.78 143.70 C 253.71 144.00 251.64 144.32 249.56 144.57 C 249.19 143.19 248.84 141.80 248.50 140.41 C 248.33 139.10 248.21 137.78 248.11 136.47 C 248.21 136.31 248.42 135.97 248.53 135.80 Z" />
</g>
</svg>
