<?xml version="1.0" encoding="UTF-8" ?>
<!DOCTYPE svg PUBLIC "-//W3C//DTD SVG 1.1//EN" "http://www.w3.org/Graphics/SVG/1.1/DTD/svg11.dtd">
<svg width="210pt" height="220pt" viewBox="0 0 210 220" version="1.1" xmlns="http://www.w3.org/2000/svg">
<g id="#fcfcfcff">
<path fill="#fcfcfc" opacity="1.00" d=" M 70.44 4.60 C 75.95 4.32 81.46 4.50 86.97 4.50 C 90.24 4.95 93.49 5.78 96.82 5.33 C 100.50 3.72 104.61 4.59 108.49 4.61 L 108.50 6.50 C 101.81 6.09 95.04 6.02 88.43 7.23 C 87.82 6.88 86.61 6.16 86.00 5.81 C 80.86 6.83 75.61 5.95 70.42 6.45 C 70.43 5.98 70.44 5.06 70.44 4.60 Z" />
<path fill="#fcfcfc" opacity="1.00" d=" M 83.98 43.99 C 86.18 43.04 88.28 41.23 90.80 41.48 C 93.56 42.31 95.65 44.43 98.01 45.99 C 100.51 47.86 103.77 48.05 106.48 49.48 C 107.01 54.23 106.00 59.04 106.50 63.81 C 111.34 66.80 115.71 70.56 119.03 75.20 C 123.76 80.46 123.73 87.98 124.49 94.62 C 127.29 94.58 130.08 94.59 132.88 94.65 C 134.74 87.95 140.53 83.89 145.02 79.07 C 146.76 75.61 149.17 72.60 152.56 70.65 C 158.43 69.60 165.47 73.15 165.79 79.63 L 166.89 79.50 C 166.64 80.58 166.37 81.65 166.09 82.72 C 165.88 82.15 165.45 81.00 165.24 80.43 L 164.42 80.57 C 164.48 79.36 164.54 78.15 164.60 76.94 C 163.17 76.16 161.75 75.34 160.35 74.51 C 157.67 74.47 154.99 74.46 152.31 74.45 C 150.42 77.08 148.45 79.67 146.29 82.08 C 146.42 82.57 146.67 83.54 146.79 84.03 C 148.74 81.64 150.62 79.18 152.11 76.47 C 155.17 76.07 158.26 76.08 161.35 76.11 C 164.59 79.75 164.92 84.90 167.58 88.89 C 167.26 93.93 166.36 98.92 166.68 103.99 C 167.15 107.97 164.51 111.22 162.98 114.65 C 162.92 114.70 162.80 114.80 162.75 114.85 C 161.05 116.86 159.65 119.37 157.10 120.42 C 154.27 121.66 151.22 122.30 148.18 122.75 C 148.46 126.50 148.88 130.38 147.71 134.04 C 147.65 136.59 147.80 139.15 148.21 141.68 L 149.57 141.38 C 149.34 148.30 149.81 155.23 149.35 162.13 C 145.84 169.29 139.32 174.49 135.28 181.36 C 134.45 182.50 134.56 183.95 134.37 185.28 C 137.54 180.55 140.62 175.74 144.52 171.55 C 146.74 168.24 150.71 165.43 150.52 161.05 C 150.35 153.36 150.72 145.65 150.32 137.97 C 149.33 133.62 149.29 129.15 149.59 124.72 C 150.60 123.91 151.85 123.50 153.01 122.95 C 153.99 122.74 155.94 122.31 156.92 122.10 C 155.43 127.63 154.03 133.23 154.12 139.01 C 153.33 142.78 153.22 146.64 153.23 150.48 C 153.82 150.19 155.01 149.60 155.60 149.31 C 154.96 149.77 154.31 150.22 153.65 150.64 C 152.68 159.68 154.13 168.70 155.82 177.55 C 156.47 177.56 157.77 177.57 158.42 177.58 C 158.92 179.05 159.42 180.52 159.91 182.00 C 160.41 184.48 160.95 186.98 162.37 189.13 L 161.80 191.74 C 162.57 190.85 163.33 189.94 164.15 189.10 C 165.02 190.03 165.71 191.11 166.42 192.18 C 165.93 193.73 165.69 195.32 165.70 196.94 C 165.56 195.47 165.52 193.98 165.45 192.51 C 164.40 192.20 163.35 191.90 162.31 191.60 C 163.92 197.28 164.97 203.27 168.73 208.05 C 168.64 210.73 168.78 213.50 167.79 216.06 C 167.67 217.37 167.56 218.68 167.46 220.00 L 78.16 220.00 C 77.86 219.89 77.26 219.67 76.96 219.56 C 73.56 215.14 70.49 210.47 68.91 205.06 C 68.16 203.41 67.40 201.76 66.71 200.09 C 68.10 200.82 69.47 201.58 70.82 202.39 C 71.42 202.41 72.62 202.46 73.22 202.49 C 75.69 204.77 78.15 207.04 80.71 209.22 C 81.29 209.64 81.87 210.06 82.46 210.49 C 82.37 210.11 82.19 209.34 82.10 208.95 C 79.86 206.66 77.56 204.42 75.60 201.89 C 85.04 200.61 95.23 196.54 99.84 187.63 C 100.04 187.37 100.43 186.85 100.63 186.59 C 100.23 186.64 99.42 186.74 99.01 186.78 C 95.40 192.74 89.66 197.23 82.86 198.93 C 80.43 199.79 77.97 200.59 75.53 201.42 C 74.42 201.39 73.32 201.37 72.21 201.35 C 69.84 200.29 67.36 198.20 64.64 198.99 L 64.37 199.68 C 63.20 199.54 63.48 197.86 63.21 197.12 C 58.87 193.84 56.77 188.33 57.42 182.98 C 57.92 180.11 56.57 177.58 54.42 175.77 C 54.36 175.53 54.23 175.05 54.16 174.80 L 53.58 174.70 C 53.59 173.37 53.01 172.35 51.84 171.64 L 51.20 171.55 C 51.02 171.10 50.66 170.22 50.48 169.78 L 50.44 169.76 C 46.15 163.92 40.10 159.45 36.86 152.83 C 33.39 146.36 27.82 140.06 28.28 132.33 C 28.38 130.55 28.67 128.79 29.11 127.07 C 29.59 125.78 30.06 124.49 30.52 123.19 L 30.53 122.93 C 31.33 121.83 32.16 120.74 32.99 119.67 C 34.13 119.34 35.26 119.00 36.39 118.65 C 34.98 118.55 33.58 118.47 32.17 118.42 C 32.43 117.47 32.69 116.53 32.95 115.58 C 32.32 115.54 31.06 115.46 30.43 115.42 C 30.50 114.16 30.58 112.91 30.67 111.65 C 28.82 111.68 27.46 110.49 26.11 109.42 C 26.11 109.33 26.10 109.17 26.10 109.08 C 27.28 103.71 31.29 99.39 35.85 96.60 C 40.84 96.79 45.67 99.29 49.41 102.52 C 46.06 102.99 42.44 102.09 39.29 103.62 C 35.71 105.21 32.73 107.87 30.06 110.68 C 30.64 110.89 31.80 111.32 32.38 111.53 C 32.68 112.86 33.06 114.17 33.43 115.48 C 38.51 116.04 43.63 115.67 48.05 112.84 C 46.49 117.34 43.19 120.87 40.92 124.98 C 38.85 129.16 38.10 133.90 38.57 138.52 C 39.36 135.83 39.55 133.02 39.82 130.24 C 43.29 124.36 45.99 117.58 51.75 113.51 C 51.18 118.05 49.77 122.48 47.85 126.62 C 46.14 129.20 44.11 131.80 44.56 135.11 C 44.92 135.65 45.64 136.72 46.00 137.25 C 47.05 137.48 48.10 137.70 49.15 137.92 C 50.51 137.68 51.88 137.43 53.24 137.16 C 53.23 136.83 53.21 136.17 53.20 135.84 C 52.14 135.38 51.08 134.93 50.02 134.49 C 49.75 135.00 49.22 136.03 48.95 136.55 C 46.12 136.82 44.94 133.21 45.32 130.91 C 46.87 131.32 48.14 132.14 49.14 133.39 L 50.00 133.19 C 49.54 132.68 48.63 131.67 48.17 131.17 C 48.62 126.87 51.34 123.27 51.84 118.98 C 52.19 117.58 52.49 116.18 52.78 114.77 C 53.61 111.51 55.20 108.05 53.93 104.68 C 52.76 101.21 52.11 96.99 48.58 95.10 C 48.79 95.44 49.21 96.13 49.43 96.47 C 50.08 98.32 50.72 100.18 51.33 102.05 C 46.92 98.01 41.27 96.33 35.58 95.06 C 37.28 91.18 40.68 88.53 43.36 85.37 C 44.22 85.46 45.93 85.64 46.78 85.73 C 45.67 84.63 44.57 83.53 43.47 82.42 C 43.98 81.22 45.00 78.81 45.50 77.61 C 42.25 78.79 38.40 79.23 36.01 82.01 C 33.48 84.65 30.79 87.16 27.66 89.08 C 27.62 88.45 27.55 87.19 27.51 86.55 L 26.52 86.55 C 27.22 81.03 27.40 75.45 28.37 69.96 C 29.04 64.38 32.64 59.49 37.25 56.43 C 38.90 55.17 41.06 55.44 43.00 55.25 C 46.78 55.10 50.41 53.89 54.06 52.96 C 59.43 51.64 63.07 45.94 68.98 46.38 C 74.10 46.60 79.10 45.39 83.98 43.99 M 57.05 68.32 C 56.35 68.40 54.95 68.56 54.25 68.64 C 54.37 69.28 54.61 70.56 54.72 71.20 L 56.41 69.54 C 56.77 69.70 57.49 70.02 57.85 70.18 C 57.27 71.35 55.41 70.98 54.41 71.58 L 54.45 72.15 C 53.27 72.45 52.15 72.88 51.09 73.44 C 48.69 73.76 46.05 73.17 43.88 74.49 C 46.73 74.75 49.60 74.58 52.46 74.46 L 52.38 73.69 C 54.40 73.47 56.22 72.59 57.90 71.49 C 58.24 71.57 58.92 71.73 59.26 71.80 C 59.42 71.12 59.74 69.76 59.90 69.08 C 61.63 67.80 63.97 67.67 65.95 66.92 C 62.92 66.22 59.83 67.09 57.05 68.32 M 40.21 72.26 C 36.67 73.78 33.23 75.62 30.67 78.57 C 30.66 79.04 30.64 79.99 30.63 80.46 C 31.00 80.47 31.74 80.48 32.11 80.49 C 33.80 77.41 36.47 75.01 39.73 73.70 C 41.30 73.30 42.80 72.70 44.31 72.13 C 44.43 71.61 44.69 70.57 44.81 70.05 C 43.17 70.55 41.66 71.36 40.21 72.26 M 59.06 74.92 C 57.17 76.56 55.67 78.61 53.62 80.08 C 53.49 80.84 53.35 81.61 53.22 82.38 C 54.82 82.53 56.43 82.68 58.03 82.86 C 59.43 83.61 60.77 83.51 62.04 82.56 C 66.22 83.25 69.91 85.43 73.66 87.27 C 78.11 87.26 82.56 87.18 87.00 87.26 C 89.69 86.96 91.35 89.75 93.95 89.78 C 95.93 89.09 96.42 86.75 96.70 84.95 C 98.08 85.75 99.45 86.57 100.80 87.41 C 101.26 87.47 102.18 87.59 102.63 87.65 C 102.65 87.42 102.69 86.96 102.71 86.73 C 101.76 86.17 100.81 85.60 99.88 85.02 C 98.60 84.74 97.29 84.58 96.00 84.40 C 95.08 81.46 91.44 81.16 89.14 79.70 C 84.98 77.71 80.35 78.70 75.94 78.32 C 72.77 77.37 70.52 74.14 67.04 74.25 C 64.40 74.28 61.52 73.81 59.06 74.92 M 97.77 89.74 C 96.58 90.62 95.38 91.49 94.18 92.36 C 92.02 93.21 89.84 94.08 87.97 95.49 C 84.44 94.90 80.96 94.01 77.46 93.30 L 77.49 92.51 C 73.46 91.88 70.03 94.06 67.95 97.39 C 68.61 97.50 69.91 97.72 70.56 97.84 L 70.34 96.57 C 71.38 95.77 72.43 94.98 73.51 94.24 L 73.49 93.42 C 74.27 93.46 75.84 93.54 76.62 93.59 C 74.30 96.06 69.92 96.94 69.96 101.09 C 70.93 100.76 72.86 100.09 73.82 99.75 C 77.89 97.61 82.46 97.36 86.96 97.44 C 88.12 97.00 90.44 96.12 91.59 95.68 L 91.56 98.10 C 89.97 99.00 88.52 100.09 87.01 101.10 C 85.57 102.43 83.82 103.30 82.02 104.03 C 81.07 104.52 80.12 105.02 79.18 105.54 C 77.43 105.53 75.68 105.49 73.93 105.41 C 72.79 104.58 71.64 103.79 70.47 103.02 C 70.52 103.53 70.61 104.55 70.65 105.07 C 71.23 105.40 72.39 106.08 72.97 106.42 C 79.28 107.60 86.28 105.18 89.99 99.85 C 91.81 99.55 93.64 99.42 95.48 99.35 L 95.37 98.41 C 97.11 98.39 98.86 98.37 100.60 98.38 C 100.55 97.96 100.45 97.12 100.40 96.70 C 99.70 96.74 98.30 96.83 97.59 96.87 C 97.87 94.09 100.93 94.47 102.81 93.54 L 103.65 93.59 C 103.67 93.34 103.73 92.83 103.76 92.57 C 101.21 92.30 98.81 93.10 96.79 94.64 C 95.92 94.95 94.18 95.58 93.31 95.90 C 93.29 95.39 93.25 94.37 93.22 93.86 C 95.61 93.08 97.61 91.53 99.61 90.07 C 99.47 89.45 99.33 88.82 99.18 88.20 C 98.83 88.59 98.13 89.36 97.77 89.74 M 160.65 89.92 C 160.58 90.76 160.50 91.59 160.43 92.43 L 161.63 92.39 C 161.58 94.29 161.56 96.20 161.46 98.10 C 160.54 99.34 160.39 100.85 160.42 102.35 C 159.30 102.55 158.54 103.19 158.14 104.27 C 157.91 104.51 157.46 104.98 157.23 105.22 C 157.79 105.31 158.92 105.50 159.48 105.60 L 159.56 104.46 C 160.78 104.48 162.00 104.44 163.22 104.36 C 163.32 103.60 163.54 102.08 163.65 101.32 L 164.56 101.54 C 164.43 97.86 164.44 94.19 164.55 90.52 L 163.32 90.63 L 163.61 89.41 C 162.62 89.58 161.64 89.75 160.65 89.92 M 59.37 96.48 C 59.43 98.39 59.50 100.30 59.63 102.20 C 60.11 102.34 61.06 102.61 61.54 102.75 C 61.25 100.69 61.11 98.61 61.17 96.53 C 60.72 96.52 59.82 96.49 59.37 96.48 M 144.84 98.26 C 145.95 99.84 147.17 101.35 148.43 102.82 C 148.03 105.66 149.49 109.25 147.10 111.45 C 150.51 112.90 152.40 109.07 155.20 107.93 C 155.34 107.56 155.60 106.84 155.73 106.48 C 155.18 106.49 154.08 106.51 153.53 106.53 C 152.18 107.84 150.84 109.15 149.45 110.42 C 149.19 107.97 149.64 105.51 149.49 103.05 C 148.90 101.44 147.96 99.99 147.18 98.47 C 146.60 98.42 145.43 98.31 144.84 98.26 M 79.12 120.30 L 79.02 121.20 C 82.63 121.25 85.90 123.09 88.53 125.45 C 92.11 128.60 95.38 132.10 98.35 135.82 C 98.97 137.49 99.59 139.16 100.25 140.82 C 101.41 144.72 101.60 148.76 101.87 152.79 C 103.33 149.59 102.13 145.96 102.36 142.58 L 101.71 142.47 C 101.51 141.00 101.32 139.54 101.05 138.09 C 100.73 137.60 100.11 136.61 99.80 136.12 C 96.79 129.87 91.10 125.34 85.48 121.51 C 83.76 119.88 81.26 120.48 79.12 120.30 M 70.04 121.83 C 69.81 122.27 69.36 123.17 69.13 123.61 C 69.62 123.56 70.60 123.45 71.09 123.39 C 72.34 122.80 73.66 122.49 75.04 122.46 C 75.80 123.30 76.57 124.13 77.35 124.95 C 77.37 125.76 77.41 127.37 77.43 128.18 C 75.97 129.07 74.82 130.73 73.01 130.85 C 71.32 130.61 69.67 130.17 68.02 129.74 C 66.47 130.41 64.81 130.72 63.18 131.11 C 61.38 132.43 58.81 133.55 59.33 136.26 C 59.85 136.36 60.90 136.55 61.43 136.64 C 61.45 135.99 61.50 134.68 61.52 134.03 C 62.67 133.25 63.79 132.43 64.89 131.59 C 66.60 131.56 68.31 131.53 70.02 131.58 C 71.44 132.36 73.08 132.29 74.63 132.44 C 75.97 131.21 77.28 129.96 78.58 128.70 C 78.59 126.56 78.59 124.36 77.59 122.40 C 75.24 121.17 72.57 121.45 70.04 121.83 M 109.22 128.88 C 109.51 129.03 110.10 129.31 110.39 129.45 C 110.45 131.29 110.52 133.17 111.22 134.91 C 111.55 136.59 111.91 138.27 112.44 139.90 C 112.63 142.29 112.63 144.69 112.47 147.08 C 111.97 148.06 111.52 149.06 111.10 150.08 C 110.78 151.11 110.46 152.14 110.16 153.18 C 109.33 155.43 108.65 157.74 108.12 160.08 C 107.64 161.96 107.29 163.88 106.67 165.72 C 105.66 167.51 105.25 169.51 105.25 171.56 L 104.32 171.60 C 104.39 171.97 104.53 172.70 104.60 173.07 C 103.86 174.25 103.25 175.50 102.63 176.74 C 102.23 177.32 101.83 177.90 101.42 178.48 C 102.04 178.47 103.28 178.45 103.90 178.44 C 104.26 174.57 107.08 171.35 106.62 167.36 L 107.64 167.56 C 107.63 167.18 107.61 166.42 107.60 166.04 C 108.52 164.71 108.46 163.05 108.68 161.53 L 109.49 161.50 C 109.55 160.86 109.67 159.58 109.72 158.94 C 110.17 157.61 110.50 156.25 110.80 154.89 C 111.31 153.82 111.64 152.69 111.79 151.51 L 112.61 151.45 C 112.60 151.09 112.60 150.38 112.60 150.03 C 113.68 148.95 113.48 147.37 113.57 145.99 C 113.56 142.42 113.88 138.76 112.82 135.29 C 112.49 133.90 112.17 132.52 111.70 131.18 C 111.64 130.51 111.52 129.16 111.45 128.49 C 110.90 128.59 109.78 128.79 109.22 128.88 M 41.37 137.72 C 38.03 140.95 39.87 145.95 39.64 150.05 C 41.62 153.97 44.65 157.19 48.07 159.90 C 51.14 163.64 54.01 167.56 56.15 171.91 C 56.61 172.81 57.12 173.68 57.68 174.53 C 57.62 173.24 57.54 171.95 57.42 170.67 C 55.48 167.73 53.73 164.64 51.39 161.99 C 51.91 161.39 52.44 160.80 52.96 160.20 C 55.53 163.29 57.34 166.95 60.12 169.87 C 61.10 170.22 62.07 170.58 63.04 170.97 C 66.85 171.86 71.20 171.87 74.89 170.57 C 75.57 170.56 76.92 170.55 77.60 170.54 L 77.40 169.63 C 80.15 169.81 82.88 169.40 85.43 168.38 L 85.61 167.78 C 87.14 167.37 88.60 166.72 89.94 165.86 C 90.74 165.35 91.54 164.85 92.36 164.37 C 93.63 162.62 94.81 160.81 95.85 158.91 C 97.76 154.49 100.57 149.62 98.28 144.83 C 97.46 144.30 96.63 143.78 95.81 143.26 C 92.76 141.62 89.42 140.70 86.11 139.80 C 82.79 139.84 79.39 139.32 76.14 140.18 C 74.49 140.50 72.83 140.79 71.21 141.27 C 69.02 141.83 66.83 142.45 64.59 142.81 L 64.55 143.46 C 62.77 143.58 61.00 143.74 59.25 144.10 C 57.98 144.57 56.72 145.08 55.46 145.57 L 55.50 146.23 C 52.88 146.38 50.54 147.76 48.64 149.48 C 48.05 151.28 48.57 153.26 48.56 155.13 C 49.61 155.66 50.66 156.18 51.72 156.72 C 51.60 158.20 50.95 159.55 50.25 160.83 C 47.81 157.20 44.14 154.68 41.59 151.14 C 41.57 150.49 41.51 149.20 41.48 148.56 L 40.50 148.49 C 39.99 145.01 39.98 141.27 42.67 138.63 C 42.95 138.36 43.51 137.81 43.78 137.53 C 43.18 137.58 41.97 137.67 41.37 137.72 Z" />
<path fill="#fcfcfc" opacity="1.00" d=" M 23.76 77.87 C 24.11 77.32 24.80 76.21 25.15 75.66 C 26.13 77.38 26.63 79.24 26.66 81.25 C 25.64 81.22 24.62 81.20 23.60 81.19 C 23.64 80.36 23.72 78.70 23.76 77.87 Z" />
<path fill="#fcfcfc" opacity="1.00" d=" M 161.85 99.72 C 164.38 97.97 163.27 103.15 161.43 102.66 C 161.07 101.63 161.21 100.65 161.85 99.72 Z" />
<path fill="#fcfcfc" opacity="1.00" d=" M 49.43 102.40 C 50.03 102.42 51.22 102.47 51.82 102.49 L 51.28 103.71 L 52.78 103.40 C 52.68 103.90 52.47 104.91 52.37 105.41 L 53.72 105.49 C 53.49 107.42 53.35 109.41 52.39 111.15 C 51.47 111.71 50.72 112.45 50.14 113.37 C 49.80 113.52 49.11 113.82 48.77 113.97 C 48.45 113.23 48.13 112.49 47.79 111.75 C 50.99 112.53 50.51 109.61 50.64 107.54 L 51.68 107.47 C 51.56 105.49 51.36 103.44 49.43 102.40 Z" />
<path fill="#fcfcfc" opacity="1.00" d=" M 41.74 106.43 C 44.56 106.37 47.39 106.61 50.07 107.53 C 49.71 109.74 48.01 111.08 46.23 112.17 C 42.58 113.64 38.78 115.66 34.74 114.23 C 34.60 113.71 34.32 112.68 34.18 112.16 C 36.65 110.18 38.97 108.00 41.74 106.43 Z" />
<path fill="#fcfcfc" opacity="1.00" d=" M 77.49 141.32 L 77.39 140.50 C 80.78 140.58 84.17 140.40 87.54 140.77 C 85.80 142.25 83.39 141.38 81.36 141.49 L 81.61 142.47 C 80.97 142.54 79.70 142.69 79.06 142.77 C 74.72 144.18 70.37 145.57 66.01 146.89 C 61.39 148.82 56.55 150.25 51.49 149.52 C 53.51 147.43 56.48 146.95 58.94 145.59 C 60.11 145.51 61.28 145.44 62.45 145.38 L 62.45 144.63 C 64.98 144.47 67.43 143.76 69.74 142.74 C 72.35 142.43 74.90 141.78 77.49 141.32 Z" />
<path fill="#fcfcfc" opacity="1.00" d=" M 92.59 145.01 C 94.14 145.93 94.69 147.43 94.43 149.19 C 93.88 149.31 92.78 149.54 92.23 149.66 C 92.30 148.10 92.41 146.55 92.59 145.01 Z" />
<path fill="#fcfcfc" opacity="1.00" d=" M 73.96 146.22 C 75.00 146.96 75.80 147.96 75.86 149.36 C 76.91 148.13 78.00 146.94 79.07 145.74 C 79.73 145.99 81.06 146.49 81.72 146.75 C 81.82 148.88 81.20 150.91 80.24 152.80 C 78.05 151.25 75.36 150.91 75.02 154.20 C 74.22 154.31 73.42 154.43 72.61 154.55 C 72.29 152.87 71.90 151.21 71.43 149.57 L 72.38 149.56 C 72.89 148.44 73.42 147.33 73.96 146.22 Z" />
<path fill="#fcfcfc" opacity="1.00" d=" M 82.89 150.27 C 80.73 148.25 83.48 143.49 86.03 146.34 C 86.39 146.40 87.10 146.53 87.45 146.59 L 87.66 145.11 C 90.02 145.25 91.18 147.17 90.46 149.38 C 89.28 149.85 88.01 149.72 86.79 149.65 C 85.64 150.82 84.34 151.03 82.89 150.27 Z" />
<path fill="#fcfcfc" opacity="1.00" d=" M 66.22 150.58 C 67.54 150.03 68.41 147.96 70.04 148.65 C 70.40 149.22 71.14 150.37 71.51 150.94 C 71.53 152.47 71.56 154.00 71.56 155.53 C 70.07 155.55 68.57 155.55 67.08 155.58 C 65.81 157.54 63.27 156.38 61.41 156.43 L 61.57 157.55 C 60.51 157.52 59.45 157.50 58.39 157.48 L 58.68 156.43 L 57.84 156.36 C 57.08 154.82 55.38 152.70 58.57 153.44 C 58.60 153.10 58.65 152.41 58.67 152.07 C 59.56 152.27 61.33 152.69 62.21 152.90 C 62.28 152.25 62.41 150.94 62.48 150.29 C 63.73 150.32 64.97 150.54 66.22 150.58 Z" />
<path fill="#fcfcfc" opacity="1.00" d=" M 50.13 154.31 C 48.45 153.63 48.93 149.66 51.04 150.40 C 51.83 151.54 51.55 153.79 50.13 154.31 Z" />
<path fill="#fcfcfc" opacity="1.00" d=" M 88.91 159.82 C 91.90 159.03 93.56 156.18 95.84 154.34 C 95.47 156.01 94.97 157.64 94.34 159.23 C 93.01 160.95 91.67 162.65 90.24 164.29 C 88.85 164.92 87.47 165.57 86.10 166.25 C 84.42 166.90 82.73 167.56 81.06 168.25 C 79.94 168.43 78.83 168.62 77.71 168.81 C 74.70 170.27 71.08 168.85 68.15 170.43 C 67.24 170.45 65.41 170.50 64.50 170.52 L 64.42 169.77 C 59.51 168.77 57.60 163.76 54.67 160.33 C 53.63 159.44 53.28 158.23 53.55 156.89 C 56.01 159.34 58.41 161.85 60.94 164.22 C 64.32 165.81 68.14 166.32 71.85 166.09 C 73.45 165.51 75.11 165.14 76.77 164.74 C 78.51 164.22 80.21 163.60 81.88 162.88 C 83.56 162.23 85.25 161.58 86.92 160.89 C 87.42 160.62 88.41 160.09 88.91 159.82 Z" />
<path fill="#fcfcfc" opacity="1.00" d=" M 79.98 158.62 C 82.38 161.84 84.98 154.76 87.10 159.03 C 85.41 160.18 83.51 161.04 81.41 160.65 L 81.53 161.81 C 80.75 161.74 79.18 161.61 78.40 161.54 L 78.52 162.56 L 77.38 162.43 L 77.49 163.61 C 76.69 163.50 75.11 163.28 74.32 163.17 L 74.64 164.50 C 72.47 164.49 70.31 164.58 68.16 164.67 C 68.27 164.18 68.49 163.20 68.61 162.71 C 69.76 162.42 70.91 162.14 72.06 161.81 C 73.55 161.56 75.62 162.08 75.92 160.01 C 77.36 159.82 78.87 159.66 79.98 158.62 Z" />
<path fill="#fcfcfc" opacity="1.00" d=" M 64.95 203.04 C 67.87 203.40 68.08 206.71 69.05 208.89 C 70.02 213.25 73.05 216.70 75.89 220.00 L 55.24 220.00 C 57.56 213.85 61.38 208.50 64.95 203.04 Z" />
</g>
<g id="#000000ff">
<path fill="#000000" opacity="1.00" d=" M 70.42 6.45 C 75.61 5.95 80.86 6.83 86.00 5.81 C 86.61 6.16 87.82 6.88 88.43 7.23 C 88.59 7.37 88.92 7.65 89.08 7.78 C 97.63 6.08 106.55 6.36 115.03 8.39 C 120.28 8.30 124.06 12.41 128.97 13.47 C 132.32 14.37 136.00 14.73 138.81 16.97 C 141.93 19.51 144.77 22.41 147.31 25.52 C 152.65 33.47 157.88 41.68 160.68 50.91 C 162.22 56.84 163.25 62.91 163.68 69.02 C 163.97 72.77 166.02 76.03 167.21 79.53 C 169.40 84.72 168.50 90.46 168.38 95.92 C 168.12 95.33 167.87 94.74 167.62 94.15 C 167.28 100.98 169.55 110.03 162.98 114.65 C 164.51 111.22 167.15 107.97 166.68 103.99 C 166.36 98.92 167.26 93.93 167.58 88.89 C 164.92 84.90 164.59 79.75 161.35 76.11 C 158.26 76.08 155.17 76.07 152.11 76.47 C 150.62 79.18 148.74 81.64 146.79 84.03 C 146.67 83.54 146.42 82.57 146.29 82.08 C 148.45 79.67 150.42 77.08 152.31 74.45 C 154.99 74.46 157.67 74.47 160.35 74.51 C 161.75 75.34 163.17 76.16 164.60 76.94 C 164.54 78.15 164.48 79.36 164.42 80.57 L 165.24 80.43 C 165.45 81.00 165.88 82.15 166.09 82.72 C 166.37 81.65 166.64 80.58 166.89 79.50 L 165.79 79.63 C 165.47 73.15 158.43 69.60 152.56 70.65 C 149.17 72.60 146.76 75.61 145.02 79.07 C 140.53 83.89 134.74 87.95 132.88 94.65 C 130.08 94.59 127.29 94.58 124.49 94.62 C 123.73 87.98 123.76 80.46 119.03 75.20 C 115.71 70.56 111.34 66.80 106.50 63.81 C 106.00 59.04 107.01 54.23 106.48 49.48 C 103.77 48.05 100.51 47.86 98.01 45.99 C 95.65 44.43 93.56 42.31 90.80 41.48 C 88.28 41.23 86.18 43.04 83.98 43.99 C 79.10 45.39 74.10 46.60 68.98 46.38 C 63.07 45.94 59.43 51.64 54.06 52.96 C 50.41 53.89 46.78 55.10 43.00 55.25 C 41.06 55.44 38.90 55.17 37.25 56.43 C 32.64 59.49 29.04 64.38 28.37 69.96 C 27.40 75.45 27.22 81.03 26.52 86.55 L 27.51 86.55 C 27.55 87.19 27.62 88.45 27.66 89.08 C 30.79 87.16 33.48 84.65 36.01 82.01 C 38.40 79.23 42.25 78.79 45.50 77.61 C 45.00 78.81 43.98 81.22 43.47 82.42 C 44.57 83.53 45.67 84.63 46.78 85.73 C 45.93 85.64 44.22 85.46 43.36 85.37 C 40.68 88.53 37.28 91.18 35.58 95.06 C 41.27 96.33 46.92 98.01 51.33 102.05 C 50.72 100.18 50.08 98.32 49.43 96.47 C 49.21 96.13 48.79 95.44 48.58 95.10 C 52.11 96.99 52.76 101.21 53.93 104.68 C 55.20 108.05 53.61 111.51 52.78 114.77 C 52.49 116.18 52.19 117.58 51.84 118.98 C 51.34 123.27 48.62 126.87 48.17 131.17 C 48.63 131.67 49.54 132.68 50.00 133.19 L 49.14 133.39 C 48.14 132.14 46.87 131.32 45.32 130.91 C 44.94 133.21 46.12 136.82 48.95 136.55 C 49.22 136.03 49.75 135.00 50.02 134.49 C 51.08 134.93 52.14 135.38 53.20 135.84 C 53.21 136.17 53.23 136.83 53.24 137.16 C 51.88 137.43 50.51 137.68 49.15 137.92 C 48.10 137.70 47.05 137.48 46.00 137.25 C 45.64 136.72 44.92 135.65 44.56 135.11 C 44.11 131.80 46.14 129.20 47.85 126.62 C 49.77 122.48 51.18 118.05 51.75 113.51 C 45.99 117.58 43.29 124.36 39.82 130.24 C 39.55 133.02 39.36 135.83 38.57 138.52 C 38.10 133.90 38.85 129.16 40.92 124.98 C 43.19 120.87 46.49 117.34 48.05 112.84 C 43.63 115.67 38.51 116.04 33.43 115.48 C 33.06 114.17 32.68 112.86 32.38 111.53 C 31.80 111.32 30.64 110.89 30.06 110.68 C 32.73 107.87 35.71 105.21 39.29 103.62 C 42.44 102.09 46.06 102.99 49.41 102.52 C 45.67 99.29 40.84 96.79 35.85 96.60 C 31.29 99.39 27.28 103.71 26.10 109.08 C 24.00 106.35 22.78 103.11 21.53 99.93 C 22.71 96.94 24.39 94.18 25.69 91.24 C 26.62 89.13 25.32 87.04 24.45 85.18 C 24.84 84.84 25.61 84.15 26.00 83.81 C 25.80 82.02 23.59 81.91 22.37 81.13 C 22.26 77.76 22.60 74.37 22.21 71.02 C 21.15 66.98 18.26 63.75 16.93 59.82 C 16.23 56.58 15.43 53.19 16.07 49.88 C 16.97 43.84 22.76 40.53 27.04 36.94 C 30.09 34.80 31.21 31.09 33.27 28.16 C 38.14 22.01 45.73 19.33 51.88 14.82 C 57.23 11.35 63.58 9.92 69.09 6.75 C 69.43 6.67 70.09 6.52 70.42 6.45 M 23.76 77.87 C 23.72 78.70 23.64 80.36 23.60 81.19 C 24.62 81.20 25.64 81.22 26.66 81.25 C 26.63 79.24 26.13 77.38 25.15 75.66 C 24.80 76.21 24.11 77.32 23.76 77.87 M 49.43 102.40 C 51.36 103.44 51.56 105.49 51.68 107.47 L 50.64 107.54 C 50.51 109.61 50.99 112.53 47.79 111.75 C 48.13 112.49 48.45 113.23 48.77 113.97 C 49.11 113.82 49.80 113.52 50.14 113.37 C 50.72 112.45 51.47 111.71 52.39 111.15 C 53.35 109.41 53.49 107.42 53.72 105.49 L 52.37 105.41 C 52.47 104.91 52.68 103.90 52.78 103.40 L 51.28 103.71 L 51.82 102.49 C 51.22 102.47 50.03 102.42 49.43 102.40 M 41.74 106.43 C 38.97 108.00 36.65 110.18 34.18 112.16 C 34.32 112.68 34.60 113.71 34.74 114.23 C 38.78 115.66 42.58 113.64 46.23 112.17 C 48.01 111.08 49.71 109.74 50.07 107.53 C 47.39 106.61 44.56 106.37 41.74 106.43 Z" />
<path fill="#000000" opacity="1.00" d=" M 57.05 68.32 C 59.83 67.09 62.92 66.22 65.95 66.92 C 63.97 67.67 61.63 67.80 59.90 69.08 C 59.74 69.76 59.42 71.12 59.26 71.80 C 58.92 71.73 58.24 71.57 57.90 71.49 C 56.22 72.59 54.40 73.47 52.38 73.69 L 52.46 74.46 C 49.60 74.58 46.73 74.75 43.88 74.49 C 46.05 73.17 48.69 73.76 51.09 73.44 C 52.15 72.88 53.27 72.45 54.45 72.15 L 54.41 71.58 C 55.41 70.98 57.27 71.35 57.85 70.18 C 57.49 70.02 56.77 69.70 56.41 69.54 L 54.72 71.20 C 54.61 70.56 54.37 69.28 54.25 68.64 C 54.95 68.56 56.35 68.40 57.05 68.32 Z" />
<path fill="#000000" opacity="1.00" d=" M 40.21 72.26 C 41.66 71.36 43.17 70.55 44.81 70.05 C 44.69 70.57 44.43 71.61 44.31 72.13 C 42.80 72.70 41.30 73.30 39.73 73.70 C 36.47 75.01 33.80 77.41 32.11 80.49 C 31.74 80.48 31.00 80.47 30.63 80.46 C 30.64 79.99 30.66 79.04 30.67 78.57 C 33.23 75.62 36.67 73.78 40.21 72.26 Z" />
<path fill="#000000" opacity="1.00" d=" M 59.06 74.92 C 61.52 73.81 64.40 74.28 67.04 74.25 C 70.52 74.14 72.77 77.37 75.94 78.32 C 80.35 78.70 84.98 77.71 89.14 79.70 C 91.44 81.16 95.08 81.46 96.00 84.40 C 97.29 84.58 98.60 84.74 99.88 85.02 C 100.81 85.60 101.76 86.17 102.71 86.73 C 102.69 86.96 102.65 87.42 102.63 87.65 C 102.18 87.59 101.26 87.47 100.80 87.41 C 99.45 86.57 98.08 85.75 96.70 84.95 C 96.42 86.75 95.93 89.09 93.95 89.78 C 91.35 89.75 89.69 86.96 87.00 87.26 C 82.56 87.18 78.11 87.26 73.66 87.27 C 69.91 85.43 66.22 83.25 62.04 82.56 C 60.77 83.51 59.43 83.61 58.03 82.86 C 56.43 82.68 54.82 82.53 53.22 82.38 C 53.35 81.61 53.49 80.84 53.62 80.08 C 55.67 78.61 57.17 76.56 59.06 74.92 Z" />
<path fill="#000000" opacity="1.00" d=" M 97.77 89.74 C 98.13 89.36 98.83 88.59 99.18 88.20 C 99.33 88.82 99.47 89.45 99.61 90.07 C 97.61 91.53 95.61 93.08 93.22 93.86 C 93.25 94.37 93.29 95.39 93.31 95.90 C 94.18 95.58 95.92 94.95 96.79 94.64 C 98.81 93.10 101.21 92.30 103.76 92.57 C 103.73 92.83 103.67 93.34 103.65 93.59 L 102.81 93.54 C 100.93 94.47 97.87 94.09 97.59 96.87 C 98.30 96.83 99.70 96.74 100.40 96.70 C 100.45 97.12 100.55 97.96 100.60 98.38 C 98.86 98.37 97.11 98.39 95.37 98.41 L 95.48 99.35 C 93.64 99.42 91.81 99.55 89.99 99.85 C 86.28 105.18 79.28 107.60 72.97 106.42 C 72.39 106.08 71.23 105.40 70.65 105.07 C 70.61 104.55 70.52 103.53 70.47 103.02 C 71.64 103.79 72.79 104.58 73.93 105.41 C 75.68 105.49 77.43 105.53 79.18 105.54 C 80.12 105.02 81.07 104.52 82.02 104.03 C 83.82 103.30 85.57 102.43 87.01 101.10 C 88.52 100.09 89.97 99.00 91.56 98.10 L 91.59 95.68 C 90.44 96.12 88.12 97.00 86.96 97.44 C 82.46 97.36 77.89 97.61 73.82 99.75 C 72.86 100.09 70.93 100.76 69.96 101.09 C 69.92 96.94 74.30 96.06 76.62 93.59 C 75.84 93.54 74.27 93.46 73.49 93.42 L 73.51 94.24 C 72.43 94.98 71.38 95.77 70.34 96.57 L 70.56 97.84 C 69.91 97.72 68.61 97.50 67.95 97.39 C 70.03 94.06 73.46 91.88 77.49 92.51 L 77.46 93.30 C 80.96 94.01 84.44 94.90 87.97 95.49 C 89.84 94.08 92.02 93.21 94.18 92.36 C 95.38 91.49 96.58 90.62 97.77 89.74 Z" />
<path fill="#000000" opacity="1.00" d=" M 160.65 89.92 C 161.64 89.75 162.62 89.58 163.61 89.41 L 163.32 90.63 L 164.55 90.52 C 164.44 94.19 164.43 97.86 164.56 101.54 L 163.65 101.32 C 163.54 102.08 163.32 103.60 163.22 104.36 C 162.00 104.44 160.78 104.48 159.56 104.46 L 159.48 105.60 C 158.92 105.50 157.79 105.31 157.23 105.22 C 157.46 104.98 157.91 104.51 158.14 104.27 C 158.54 103.19 159.30 102.55 160.42 102.35 C 160.39 100.85 160.54 99.34 161.46 98.10 C 161.56 96.20 161.58 94.29 161.63 92.39 L 160.43 92.43 C 160.50 91.59 160.58 90.76 160.65 89.92 M 161.85 99.72 C 161.21 100.65 161.07 101.63 161.43 102.66 C 163.27 103.15 164.38 97.97 161.85 99.72 Z" />
<path fill="#000000" opacity="1.00" d=" M 59.37 96.48 C 59.82 96.49 60.72 96.52 61.17 96.53 C 61.11 98.61 61.25 100.69 61.54 102.75 C 61.06 102.61 60.11 102.34 59.63 102.20 C 59.50 100.30 59.43 98.39 59.37 96.48 Z" />
<path fill="#000000" opacity="1.00" d=" M 144.84 98.26 C 145.43 98.31 146.60 98.42 147.18 98.47 C 147.96 99.99 148.90 101.44 149.49 103.05 C 149.64 105.51 149.19 107.97 149.45 110.42 C 150.84 109.15 152.18 107.84 153.53 106.53 C 154.08 106.51 155.18 106.49 155.73 106.48 C 155.60 106.84 155.34 107.56 155.20 107.93 C 152.40 109.07 150.51 112.90 147.10 111.45 C 149.49 109.25 148.03 105.66 148.43 102.82 C 147.17 101.35 145.95 99.84 144.84 98.26 Z" />
<path fill="#000000" opacity="1.00" d=" M 26.11 109.42 C 27.46 110.49 28.82 111.68 30.67 111.65 C 30.58 112.91 30.50 114.16 30.43 115.42 C 31.06 115.46 32.32 115.54 32.95 115.58 C 32.69 116.53 32.43 117.47 32.17 118.42 C 33.58 118.47 34.98 118.55 36.39 118.65 C 35.26 119.00 34.13 119.34 32.99 119.67 C 32.16 120.74 31.33 121.83 30.53 122.93 C 30.44 120.68 30.53 118.39 30.01 116.18 C 28.86 113.84 27.13 111.83 26.11 109.42 Z" />
<path fill="#000000" opacity="1.00" d=" M 157.10 120.42 C 159.65 119.37 161.05 116.86 162.75 114.85 C 161.77 119.91 161.02 125.02 159.48 129.96 C 157.27 136.23 159.90 143.68 155.60 149.31 C 155.01 149.60 153.82 150.19 153.23 150.48 C 153.22 146.64 153.33 142.78 154.12 139.01 C 154.03 133.23 155.43 127.63 156.92 122.10 C 155.94 122.31 153.99 122.74 153.01 122.95 C 151.85 123.50 150.60 123.91 149.59 124.72 C 149.29 129.15 149.33 133.62 150.32 137.97 C 150.72 145.65 150.35 153.36 150.52 161.05 C 150.71 165.43 146.74 168.24 144.52 171.55 C 140.62 175.74 137.54 180.55 134.37 185.28 C 134.56 183.95 134.45 182.50 135.28 181.36 C 139.32 174.49 145.84 169.29 149.35 162.13 C 149.81 155.23 149.34 148.30 149.57 141.38 L 148.21 141.68 C 147.80 139.15 147.65 136.59 147.71 134.04 C 148.88 130.38 148.46 126.50 148.18 122.75 C 151.22 122.30 154.27 121.66 157.10 120.42 Z" />
<path fill="#000000" opacity="1.00" d=" M 79.12 120.30 C 81.26 120.48 83.76 119.88 85.48 121.51 C 91.10 125.34 96.79 129.87 99.80 136.12 C 100.11 136.61 100.73 137.60 101.05 138.09 C 101.32 139.54 101.51 141.00 101.71 142.47 L 102.36 142.58 C 102.13 145.96 103.33 149.59 101.87 152.79 C 101.60 148.76 101.41 144.72 100.25 140.82 C 99.59 139.16 98.97 137.49 98.35 135.82 C 95.38 132.10 92.11 128.60 88.53 125.45 C 85.90 123.09 82.63 121.25 79.02 121.20 L 79.12 120.30 Z" />
<path fill="#000000" opacity="1.00" d=" M 70.04 121.83 C 72.57 121.45 75.24 121.17 77.59 122.40 C 78.59 124.36 78.59 126.56 78.58 128.70 C 77.28 129.96 75.97 131.21 74.63 132.44 C 73.08 132.29 71.44 132.36 70.02 131.58 C 68.31 131.53 66.60 131.56 64.89 131.59 C 63.79 132.43 62.67 133.25 61.52 134.03 C 61.50 134.68 61.45 135.99 61.43 136.64 C 60.90 136.55 59.85 136.36 59.33 136.26 C 58.81 133.55 61.38 132.43 63.18 131.11 C 64.81 130.72 66.47 130.41 68.02 129.74 C 69.67 130.17 71.32 130.61 73.01 130.85 C 74.82 130.73 75.97 129.07 77.43 128.18 C 77.41 127.37 77.37 125.76 77.35 124.95 C 76.57 124.13 75.80 123.30 75.04 122.46 C 73.66 122.49 72.34 122.80 71.09 123.39 C 70.60 123.45 69.62 123.56 69.13 123.61 C 69.36 123.17 69.81 122.27 70.04 121.83 Z" />
<path fill="#000000" opacity="1.00" d=" M 109.22 128.88 C 109.78 128.79 110.90 128.59 111.45 128.49 C 111.52 129.16 111.64 130.51 111.70 131.18 C 112.17 132.52 112.49 133.90 112.82 135.29 C 113.88 138.76 113.56 142.42 113.57 145.99 C 113.48 147.37 113.68 148.95 112.60 150.03 C 112.60 150.38 112.60 151.09 112.61 151.45 L 111.79 151.51 C 111.64 152.69 111.31 153.82 110.80 154.89 C 110.50 156.25 110.17 157.61 109.72 158.94 C 109.67 159.58 109.55 160.86 109.49 161.50 L 108.68 161.53 C 108.46 163.05 108.52 164.71 107.60 166.04 C 107.61 166.42 107.63 167.18 107.64 167.56 L 106.62 167.36 C 107.08 171.35 104.26 174.57 103.90 178.44 C 103.28 178.45 102.04 178.47 101.42 178.48 C 101.83 177.90 102.23 177.32 102.63 176.74 C 103.25 175.50 103.86 174.25 104.60 173.07 C 104.53 172.70 104.39 171.97 104.32 171.60 L 105.25 171.56 C 105.25 169.51 105.66 167.51 106.67 165.72 C 107.29 163.88 107.64 161.96 108.12 160.08 C 108.65 157.74 109.33 155.43 110.16 153.18 C 110.46 152.14 110.78 151.11 111.10 150.08 C 111.52 149.06 111.97 148.06 112.47 147.08 C 112.63 144.69 112.63 142.29 112.44 139.90 C 111.91 138.27 111.55 136.59 111.22 134.91 C 110.52 133.17 110.45 131.29 110.39 129.45 C 110.10 129.31 109.51 129.03 109.22 128.88 Z" />
<path fill="#000000" opacity="1.00" d=" M 33.22 148.89 C 30.40 143.61 26.57 138.38 27.09 132.06 L 28.28 132.33 C 27.82 140.06 33.39 146.36 36.86 152.83 C 40.10 159.45 46.15 163.92 50.44 169.76 C 46.71 168.81 44.94 165.07 42.37 162.57 C 38.49 158.61 35.99 153.62 33.22 148.89 Z" />
<path fill="#000000" opacity="1.00" d=" M 41.37 137.72 C 41.97 137.67 43.18 137.58 43.78 137.53 C 43.51 137.81 42.95 138.36 42.67 138.63 C 39.98 141.27 39.99 145.01 40.50 148.49 L 41.48 148.56 C 41.51 149.20 41.57 150.49 41.59 151.14 C 44.14 154.68 47.81 157.20 50.25 160.83 C 50.95 159.55 51.60 158.20 51.72 156.72 C 50.66 156.18 49.61 155.66 48.56 155.13 C 48.57 153.26 48.05 151.28 48.64 149.48 C 50.54 147.76 52.88 146.38 55.50 146.23 L 55.46 145.57 C 56.72 145.08 57.98 144.57 59.25 144.10 C 61.00 143.74 62.77 143.58 64.55 143.46 L 64.59 142.81 C 66.83 142.45 69.02 141.83 71.21 141.27 C 72.83 140.79 74.49 140.50 76.14 140.18 C 79.39 139.32 82.79 139.84 86.11 139.80 C 89.42 140.70 92.76 141.62 95.81 143.26 C 96.63 143.78 97.46 144.30 98.28 144.83 C 100.57 149.62 97.76 154.49 95.85 158.91 C 94.81 160.81 93.63 162.62 92.36 164.37 C 91.54 164.85 90.74 165.35 89.94 165.86 C 88.60 166.72 87.14 167.37 85.61 167.78 L 85.43 168.38 C 82.88 169.40 80.15 169.81 77.40 169.63 L 77.60 170.54 C 76.92 170.55 75.57 170.56 74.89 170.57 C 71.20 171.87 66.85 171.86 63.04 170.97 C 62.07 170.58 61.10 170.22 60.12 169.87 C 57.34 166.95 55.53 163.29 52.96 160.20 C 52.44 160.80 51.91 161.39 51.39 161.99 C 53.73 164.64 55.48 167.73 57.42 170.67 C 57.54 171.95 57.62 173.24 57.68 174.53 C 57.12 173.68 56.61 172.81 56.15 171.91 C 54.01 167.56 51.14 163.64 48.07 159.90 C 44.65 157.19 41.62 153.97 39.64 150.05 C 39.87 145.95 38.03 140.95 41.37 137.72 M 77.49 141.32 C 74.90 141.78 72.35 142.43 69.74 142.74 C 67.43 143.76 64.98 144.47 62.45 144.63 L 62.45 145.38 C 61.28 145.44 60.11 145.51 58.94 145.59 C 56.48 146.95 53.51 147.43 51.49 149.52 C 56.55 150.25 61.39 148.82 66.01 146.89 C 70.37 145.57 74.72 144.18 79.06 142.77 C 79.70 142.69 80.97 142.54 81.61 142.47 L 81.36 141.49 C 83.39 141.38 85.80 142.25 87.54 140.77 C 84.17 140.40 80.78 140.58 77.39 140.50 L 77.49 141.32 M 92.59 145.01 C 92.41 146.55 92.30 148.10 92.23 149.66 C 92.78 149.54 93.88 149.31 94.43 149.19 C 94.69 147.43 94.14 145.93 92.59 145.01 M 73.96 146.22 C 73.42 147.33 72.89 148.44 72.38 149.56 L 71.43 149.57 C 71.90 151.21 72.29 152.87 72.61 154.55 C 73.42 154.43 74.22 154.31 75.02 154.20 C 75.36 150.91 78.05 151.25 80.24 152.80 C 81.20 150.91 81.82 148.88 81.72 146.75 C 81.06 146.49 79.73 145.99 79.07 145.74 C 78.00 146.94 76.91 148.13 75.86 149.36 C 75.80 147.96 75.00 146.96 73.96 146.22 M 82.89 150.27 C 84.34 151.03 85.64 150.82 86.79 149.65 C 88.01 149.72 89.28 149.85 90.46 149.38 C 91.18 147.17 90.02 145.25 87.66 145.11 L 87.45 146.59 C 87.10 146.53 86.39 146.40 86.03 146.34 C 83.48 143.49 80.73 148.25 82.89 150.27 M 66.22 150.58 C 64.97 150.54 63.73 150.32 62.48 150.29 C 62.41 150.94 62.28 152.25 62.21 152.90 C 61.33 152.69 59.56 152.27 58.67 152.07 C 58.65 152.41 58.60 153.10 58.57 153.44 C 55.38 152.70 57.08 154.82 57.84 156.36 L 58.68 156.43 L 58.39 157.48 C 59.45 157.50 60.51 157.52 61.57 157.55 L 61.41 156.43 C 63.27 156.38 65.81 157.54 67.08 155.58 C 68.57 155.55 70.07 155.55 71.56 155.53 C 71.56 154.00 71.53 152.47 71.51 150.94 C 71.14 150.37 70.40 149.22 70.04 148.65 C 68.41 147.96 67.54 150.03 66.22 150.58 M 50.13 154.31 C 51.55 153.79 51.83 151.54 51.04 150.40 C 48.93 149.66 48.45 153.63 50.13 154.31 M 88.91 159.82 C 88.41 160.09 87.42 160.62 86.92 160.89 C 85.25 161.58 83.56 162.23 81.88 162.88 C 80.21 163.60 78.51 164.22 76.77 164.74 C 75.11 165.14 73.45 165.51 71.85 166.09 C 68.14 166.32 64.32 165.81 60.94 164.22 C 58.41 161.85 56.01 159.34 53.55 156.89 C 53.28 158.23 53.63 159.44 54.67 160.33 C 57.60 163.76 59.51 168.77 64.42 169.77 L 64.50 170.52 C 65.41 170.50 67.24 170.45 68.15 170.43 C 71.08 168.85 74.70 170.27 77.71 168.81 C 78.83 168.62 79.94 168.43 81.06 168.25 C 82.73 167.56 84.42 166.90 86.10 166.25 C 87.47 165.57 88.85 164.92 90.24 164.29 C 91.67 162.65 93.01 160.95 94.34 159.23 C 94.97 157.64 95.47 156.01 95.84 154.34 C 93.56 156.18 91.90 159.03 88.91 159.82 M 79.98 158.62 C 78.87 159.66 77.36 159.82 75.92 160.01 C 75.62 162.08 73.55 161.56 72.06 161.81 C 70.91 162.14 69.76 162.42 68.61 162.71 C 68.49 163.20 68.27 164.18 68.16 164.67 C 70.31 164.58 72.47 164.49 74.64 164.50 L 74.32 163.17 C 75.11 163.28 76.69 163.50 77.49 163.61 L 77.38 162.43 L 78.52 162.56 L 78.40 161.54 C 79.18 161.61 80.75 161.74 81.53 161.81 L 81.41 160.65 C 83.51 161.04 85.41 160.18 87.10 159.03 C 84.98 154.76 82.38 161.84 79.98 158.62 Z" />
<path fill="#000000" opacity="1.00" d=" M 155.82 177.55 C 154.13 168.70 152.68 159.68 153.65 150.64 C 155.32 158.69 152.90 167.85 157.84 175.07 C 160.52 178.80 160.56 183.84 163.74 187.25 C 164.86 188.75 166.67 190.09 166.42 192.18 C 165.71 191.11 165.02 190.03 164.15 189.10 C 163.33 189.94 162.57 190.85 161.80 191.74 L 162.37 189.13 C 160.95 186.98 160.41 184.48 159.91 182.00 C 159.42 180.52 158.92 179.05 158.42 177.58 C 157.77 177.57 156.47 177.56 155.82 177.55 Z" />
<path fill="#000000" opacity="1.00" d=" M 51.20 171.55 L 51.84 171.64 C 53.01 172.35 53.59 173.37 53.58 174.70 C 51.93 174.68 51.35 172.89 51.20 171.55 Z" />
<path fill="#000000" opacity="1.00" d=" M 54.42 175.77 C 56.57 177.58 57.92 180.11 57.42 182.98 C 56.77 188.33 58.87 193.84 63.21 197.12 C 63.48 197.86 63.20 199.54 64.37 199.68 L 64.64 198.99 C 67.36 198.20 69.84 200.29 72.21 201.35 C 73.32 201.37 74.42 201.39 75.53 201.42 C 77.97 200.59 80.43 199.79 82.86 198.93 C 89.66 197.23 95.40 192.74 99.01 186.78 C 99.42 186.74 100.23 186.64 100.63 186.59 C 100.43 186.85 100.04 187.37 99.84 187.63 C 95.23 196.54 85.04 200.61 75.60 201.89 C 77.56 204.42 79.86 206.66 82.10 208.95 C 82.19 209.34 82.37 210.11 82.46 210.49 C 81.87 210.06 81.29 209.64 80.71 209.22 C 78.15 207.04 75.69 204.77 73.22 202.49 C 72.62 202.46 71.42 202.41 70.82 202.39 C 69.47 201.58 68.10 200.82 66.71 200.09 C 67.40 201.76 68.16 203.41 68.91 205.06 C 70.49 210.47 73.56 215.14 76.96 219.56 C 77.26 219.67 77.86 219.89 78.16 220.00 L 75.89 220.00 C 73.05 216.70 70.02 213.25 69.05 208.89 C 68.08 206.71 67.87 203.40 64.95 203.04 C 61.38 208.50 57.56 213.85 55.24 220.00 L 54.38 220.00 C 56.05 215.92 57.32 211.58 60.15 208.11 C 61.57 205.93 63.92 203.75 63.30 200.90 C 62.86 200.50 61.97 199.71 61.53 199.32 L 62.75 198.59 C 60.87 196.72 58.79 194.88 57.82 192.35 C 56.35 189.06 56.87 185.38 56.20 181.93 C 55.69 179.85 54.94 177.85 54.42 175.77 Z" />
<path fill="#000000" opacity="1.00" d=" M 162.31 191.60 C 163.35 191.90 164.40 192.20 165.45 192.51 C 165.52 193.98 165.56 195.47 165.70 196.94 C 167.21 200.49 169.47 203.99 168.73 208.05 C 164.97 203.27 163.92 197.28 162.31 191.60 Z" />
</g>
</svg>
