<?xml version="1.0" encoding="UTF-8" ?>
<!DOCTYPE svg PUBLIC "-//W3C//DTD SVG 1.1//EN" "http://www.w3.org/Graphics/SVG/1.1/DTD/svg11.dtd">
<svg width="210pt" height="220pt" viewBox="0 0 210 220" version="1.1" xmlns="http://www.w3.org/2000/svg">
<g id="#040504fe">
<path fill="#040504" opacity="1.00" d=" M 46.29 35.27 C 46.72 35.00 47.57 34.45 48.00 34.17 C 56.02 34.32 64.04 34.19 72.06 34.21 C 73.40 34.14 74.62 34.76 75.85 35.20 C 79.03 34.98 82.19 35.35 84.88 37.21 C 88.56 37.12 91.40 39.80 94.79 40.81 C 97.69 42.04 101.03 40.91 103.89 42.32 C 107.53 43.11 111.32 43.70 114.51 45.75 C 117.47 47.45 119.09 50.58 121.01 53.27 C 119.67 53.29 118.36 53.12 117.09 52.78 C 113.30 50.87 109.69 48.64 105.82 46.89 C 108.66 50.36 113.00 52.01 116.17 55.08 C 118.31 58.43 117.60 62.69 117.48 66.46 C 118.23 67.57 119.00 68.67 119.76 69.78 C 119.75 72.98 119.78 76.17 119.73 79.37 C 122.15 82.49 124.67 85.65 125.87 89.48 C 126.17 96.09 126.35 102.85 124.07 109.18 C 120.41 119.25 125.13 129.70 123.86 140.00 C 123.24 146.40 125.44 153.65 121.12 159.18 C 120.39 162.62 117.09 164.47 114.94 166.98 C 112.34 170.17 107.90 170.13 104.70 172.38 C 101.48 174.54 98.25 176.70 94.82 178.51 C 94.12 178.49 92.70 178.43 91.99 178.40 C 89.15 180.21 86.51 182.89 82.90 182.88 C 77.81 185.03 72.09 182.67 67.51 180.22 C 63.74 178.35 59.69 176.89 55.50 176.28 C 46.36 171.46 36.20 167.74 29.13 159.86 C 25.57 156.67 23.23 152.45 20.72 148.46 C 18.68 144.40 17.41 140.01 15.10 136.07 C 13.08 131.09 11.68 125.86 9.65 120.87 C 9.07 118.58 8.76 116.22 8.12 113.94 C 5.06 105.26 6.83 95.97 6.30 86.98 C 5.86 83.22 7.78 79.72 7.36 75.96 C 7.61 75.54 8.12 74.70 8.37 74.28 C 8.34 72.78 8.67 71.33 9.36 70.00 C 9.41 68.49 9.43 66.98 9.45 65.46 C 11.78 61.25 13.69 56.66 17.14 53.20 C 23.72 46.24 31.15 39.53 40.38 36.41 C 42.21 35.42 44.23 35.10 46.29 35.27 M 43.61 38.81 L 43.61 39.63 C 42.84 39.64 41.30 39.64 40.53 39.65 L 40.60 40.86 C 40.07 40.71 39.02 40.42 38.50 40.28 L 38.51 41.75 C 38.07 41.64 37.20 41.42 36.76 41.31 L 36.49 42.47 L 35.29 42.54 L 35.48 43.28 C 33.28 43.86 31.17 44.83 29.44 46.33 C 24.31 50.56 18.98 54.91 15.71 60.82 C 12.82 65.68 12.46 71.46 11.05 76.83 C 9.89 83.18 9.41 89.62 8.65 96.03 C 8.20 101.18 10.06 106.12 10.81 111.16 C 12.06 114.98 12.80 118.95 14.18 122.74 C 16.83 131.52 20.29 140.07 24.66 148.14 C 28.41 155.60 34.58 161.89 42.11 165.54 C 48.58 168.74 55.11 171.93 62.06 173.98 C 66.37 175.11 70.00 177.87 74.14 179.40 C 78.18 179.81 82.56 180.18 86.34 178.38 C 86.79 176.99 87.26 175.61 87.71 174.23 C 89.47 174.47 91.24 174.75 92.97 175.15 C 95.50 174.34 98.10 173.48 100.10 171.66 C 95.67 170.88 91.20 169.92 87.48 167.23 L 87.74 166.42 L 86.38 166.63 L 86.62 165.27 L 85.39 165.63 C 85.40 165.10 85.43 164.04 85.44 163.51 C 85.01 163.51 84.14 163.49 83.71 163.48 C 83.40 160.32 81.57 157.62 79.64 155.21 C 74.59 149.30 67.86 144.40 60.13 142.81 C 59.43 142.73 58.03 142.55 57.34 142.47 L 57.48 140.50 C 60.06 140.57 62.55 141.20 65.05 141.77 C 71.37 144.50 76.57 149.07 81.53 153.73 C 81.59 149.82 81.68 145.90 82.27 142.02 C 82.81 137.11 85.11 132.64 86.19 127.86 C 87.02 121.55 86.80 115.13 86.16 108.81 C 84.65 104.90 83.56 100.57 84.62 96.40 C 85.76 93.68 87.47 91.24 88.79 88.61 C 88.97 88.35 89.33 87.85 89.51 87.60 C 81.51 90.28 73.05 90.46 64.76 89.34 C 64.68 88.93 64.53 88.13 64.46 87.73 C 69.30 87.69 74.14 87.92 78.98 87.77 C 85.41 87.02 92.50 84.70 95.84 78.68 C 92.36 77.89 87.78 77.97 85.72 74.51 C 83.00 69.83 83.15 63.57 86.38 59.16 C 88.96 54.58 93.95 52.54 97.95 49.50 C 99.52 49.48 101.09 49.49 102.66 49.51 C 102.53 49.08 102.28 48.22 102.16 47.79 C 101.46 47.70 100.07 47.53 99.38 47.45 L 99.60 46.68 C 98.29 46.51 96.96 46.41 95.70 45.97 C 93.23 45.54 90.68 45.58 88.27 46.34 C 86.94 46.48 85.60 46.61 84.27 46.74 C 84.24 45.89 84.18 44.19 84.16 43.34 C 84.74 43.34 85.89 43.35 86.47 43.36 L 86.39 42.56 C 87.35 42.39 88.30 42.22 89.26 42.03 C 88.30 41.88 86.38 41.56 85.42 41.41 L 85.50 40.73 C 83.31 40.27 81.17 39.58 79.06 38.83 C 67.35 37.10 55.28 36.68 43.61 38.81 M 99.47 52.65 C 94.34 54.58 90.15 58.59 87.62 63.40 C 85.13 67.86 87.59 74.45 92.88 75.30 C 96.08 75.64 99.31 75.61 102.46 74.88 C 105.26 74.24 108.71 75.19 110.87 72.83 C 113.25 69.73 114.54 65.87 114.89 62.00 C 115.55 59.65 114.39 57.13 112.47 55.72 C 112.47 56.62 112.45 58.43 112.45 59.33 C 111.74 60.42 111.03 61.52 110.31 62.61 C 108.82 62.57 107.33 62.54 105.84 62.51 C 104.76 61.36 102.69 60.31 103.44 58.41 C 104.86 56.40 106.99 55.07 108.95 53.64 C 105.92 52.70 102.62 51.74 99.47 52.65 M 113.38 75.95 C 114.18 76.42 115.78 77.35 116.57 77.82 C 116.92 75.17 116.82 72.49 116.41 69.85 C 115.29 71.80 113.53 73.62 113.38 75.95 M 100.19 79.26 C 93.64 84.62 89.94 92.77 88.32 100.93 C 87.53 105.08 89.88 108.89 89.75 113.01 C 89.78 118.34 90.08 123.71 89.22 128.99 C 86.91 135.79 84.18 142.71 84.56 150.02 C 84.62 154.90 85.45 160.33 89.03 163.95 C 95.11 169.36 104.82 169.63 111.62 165.43 C 116.17 162.71 118.59 157.69 120.16 152.83 C 121.67 144.33 121.84 135.51 120.02 127.04 C 117.12 120.54 119.10 113.52 121.12 107.09 C 123.06 101.34 123.35 95.11 122.31 89.15 C 120.53 83.63 115.52 79.38 109.94 78.01 C 106.72 77.13 102.90 76.99 100.19 79.26 Z" />
<path fill="#040504" opacity="1.00" d=" M 47.31 45.48 C 49.72 45.42 52.12 45.14 54.49 44.68 C 54.57 45.29 54.73 46.51 54.81 47.12 C 48.48 48.35 41.83 49.65 36.59 53.65 C 32.98 56.38 29.73 59.54 26.31 62.51 C 23.11 60.80 19.65 62.61 16.53 63.61 C 19.43 60.23 23.07 57.61 26.05 54.31 C 27.31 54.40 28.57 54.49 29.83 54.59 C 29.70 54.10 29.46 53.12 29.34 52.62 L 30.55 52.58 L 30.64 51.51 C 35.60 48.46 41.32 46.18 47.21 46.16 L 47.31 45.48 Z" />
<path fill="#040504" opacity="1.00" d=" M 44.96 52.71 C 48.01 52.49 51.08 52.41 54.13 52.77 C 55.59 53.34 57.15 53.52 58.71 53.52 L 58.53 54.16 C 60.86 55.39 63.39 56.69 64.68 59.11 C 65.92 61.56 66.40 64.30 67.22 66.91 C 67.22 68.62 67.22 70.32 67.19 72.03 C 66.85 73.05 66.53 74.08 66.22 75.11 C 64.08 80.05 59.54 84.41 54.08 85.23 C 50.01 85.03 45.77 84.75 42.08 82.82 C 39.28 81.67 37.20 79.29 34.35 78.24 C 34.44 77.84 34.60 77.04 34.68 76.64 L 33.34 76.71 L 33.45 75.32 C 32.66 75.43 31.09 75.65 30.30 75.76 C 30.31 75.14 30.32 73.90 30.33 73.27 L 31.62 73.76 L 31.33 72.58 L 32.57 72.52 L 32.53 71.30 L 33.26 71.36 C 33.31 68.87 33.43 66.38 33.56 63.90 C 36.28 59.27 39.87 54.81 44.96 52.71 M 47.26 55.80 C 41.23 56.81 37.18 62.32 35.71 67.93 C 35.49 71.26 35.77 75.16 38.58 77.43 C 43.47 81.13 49.97 82.66 55.98 81.34 C 60.18 79.72 64.06 75.79 63.77 71.01 C 63.83 66.75 63.61 61.92 60.52 58.66 C 56.75 56.00 51.78 55.07 47.26 55.80 Z" />
<path fill="#040504" opacity="1.00" d=" M 40.68 68.62 C 44.39 66.60 49.69 67.42 51.44 71.60 C 49.38 74.78 46.06 78.00 41.94 77.27 C 38.61 75.41 40.18 71.53 40.68 68.62 Z" />
<path fill="#040504" opacity="1.00" d=" M 95.09 94.03 C 96.71 89.98 99.05 85.83 103.05 83.74 C 108.16 82.27 115.10 84.22 116.65 89.86 C 118.25 94.73 120.04 99.84 119.38 105.04 C 118.42 108.08 117.35 111.10 116.25 114.10 C 115.72 115.34 115.17 116.57 114.65 117.82 C 114.47 122.49 113.76 127.37 115.14 131.92 C 117.62 137.55 117.06 144.25 114.76 149.86 C 114.65 150.41 114.41 151.51 114.30 152.05 C 112.93 154.42 111.76 156.98 109.83 158.96 C 104.78 163.12 96.40 161.56 92.87 156.15 C 89.92 152.44 90.45 147.47 90.38 143.04 C 90.25 138.33 91.41 133.73 92.07 129.10 C 95.59 117.66 91.30 105.35 95.09 94.03 M 103.74 86.43 C 102.91 87.99 102.09 89.56 101.33 91.17 C 105.56 90.97 109.77 91.52 113.76 92.94 C 113.45 91.21 113.77 89.00 111.99 87.98 C 109.66 86.08 106.54 86.38 103.74 86.43 M 97.50 95.79 C 97.45 96.56 97.36 98.10 97.31 98.87 C 98.20 98.81 99.96 98.69 100.84 98.63 C 100.79 96.69 100.74 94.77 100.59 92.84 C 99.56 93.82 98.54 94.82 97.50 95.79 M 102.11 98.30 C 103.29 98.42 105.66 98.67 106.84 98.80 C 106.67 96.74 106.44 94.69 106.13 92.65 C 103.74 93.61 103.12 96.20 102.11 98.30 M 109.76 93.07 C 109.04 94.93 108.56 96.87 108.26 98.84 C 109.30 98.75 110.34 98.65 111.38 98.55 C 110.87 96.71 110.38 94.87 109.76 93.07 M 113.63 95.66 C 113.59 96.96 113.55 98.26 113.53 99.57 C 114.29 99.25 115.82 98.61 116.58 98.29 C 116.10 97.32 115.62 96.34 115.16 95.36 C 114.78 95.43 114.01 95.58 113.63 95.66 M 96.64 101.41 C 96.42 108.27 96.95 115.16 96.42 122.01 C 95.89 125.11 95.34 128.20 95.19 131.34 C 99.38 131.29 103.86 131.97 107.10 134.86 C 109.79 136.92 111.03 140.28 113.67 142.38 C 113.87 138.44 113.03 134.59 111.76 130.89 C 110.38 124.26 111.08 117.16 114.19 111.10 C 114.51 110.09 114.85 109.10 115.19 108.10 C 115.53 107.09 115.88 106.08 116.23 105.08 C 116.32 104.17 116.50 102.36 116.59 101.45 C 112.19 100.07 107.51 100.96 102.98 100.67 C 100.91 100.95 98.40 100.06 96.64 101.41 M 94.64 133.28 C 93.36 136.52 93.40 140.03 93.34 143.46 C 99.18 143.09 105.20 144.23 110.89 142.55 C 108.79 139.58 106.69 136.35 103.29 134.74 C 100.65 133.25 97.55 133.46 94.64 133.28 M 93.02 145.65 C 93.10 148.45 96.08 150.35 95.60 153.18 C 94.92 155.23 97.35 156.14 98.42 157.47 C 102.53 157.92 107.35 158.48 110.02 154.60 C 106.82 154.68 103.76 153.90 100.96 152.38 C 99.31 152.19 97.66 151.94 96.06 151.50 C 97.12 149.71 97.62 147.75 97.56 145.64 C 96.04 145.63 94.53 145.63 93.02 145.65 M 99.43 145.55 C 99.49 146.94 99.56 148.33 99.64 149.72 C 100.57 149.95 101.51 150.18 102.45 150.41 C 102.45 148.82 102.44 147.23 102.43 145.64 C 101.43 145.61 100.43 145.58 99.43 145.55 M 106.57 153.24 C 106.23 150.69 108.63 145.44 104.55 145.35 C 104.53 148.11 103.99 151.41 106.57 153.24 M 108.48 145.42 C 108.77 147.37 109.14 149.30 109.56 151.23 C 109.95 151.31 110.74 151.47 111.14 151.56 C 111.80 149.46 112.50 147.37 112.91 145.21 C 111.80 145.26 109.58 145.37 108.48 145.42 Z" />
</g>
<g id="#fefefeff">
<path fill="#fefefe" opacity="1.00" d=" M 43.61 38.81 C 55.28 36.68 67.35 37.10 79.06 38.83 C 81.17 39.58 83.31 40.27 85.50 40.73 L 85.42 41.41 C 86.38 41.56 88.30 41.88 89.26 42.03 C 88.30 42.22 87.35 42.39 86.39 42.56 L 86.47 43.36 C 85.89 43.35 84.74 43.34 84.16 43.34 C 84.18 44.19 84.24 45.89 84.27 46.74 C 85.60 46.61 86.94 46.48 88.27 46.34 C 90.68 45.58 93.23 45.54 95.70 45.97 C 96.96 46.41 98.29 46.51 99.60 46.68 L 99.38 47.45 C 100.07 47.53 101.46 47.70 102.16 47.79 C 102.28 48.22 102.53 49.08 102.66 49.51 C 101.09 49.49 99.52 49.48 97.95 49.50 C 93.95 52.54 88.96 54.58 86.38 59.16 C 83.15 63.57 83.00 69.83 85.72 74.51 C 87.78 77.97 92.36 77.89 95.84 78.68 C 92.50 84.70 85.41 87.02 78.98 87.77 C 74.14 87.92 69.30 87.69 64.46 87.73 C 64.53 88.13 64.68 88.93 64.76 89.34 C 73.05 90.46 81.51 90.28 89.51 87.60 C 89.33 87.85 88.97 88.35 88.79 88.61 C 87.47 91.24 85.76 93.68 84.62 96.40 C 83.56 100.57 84.65 104.90 86.16 108.81 C 86.80 115.13 87.02 121.55 86.19 127.86 C 85.11 132.64 82.81 137.11 82.27 142.02 C 81.68 145.90 81.59 149.82 81.53 153.73 C 76.57 149.07 71.37 144.50 65.05 141.77 C 62.55 141.20 60.06 140.57 57.48 140.50 L 57.34 142.47 C 58.03 142.55 59.43 142.73 60.13 142.81 C 67.86 144.40 74.59 149.30 79.64 155.21 C 81.57 157.62 83.40 160.32 83.71 163.48 C 84.14 163.49 85.01 163.51 85.44 163.51 C 85.43 164.04 85.40 165.10 85.39 165.63 L 86.62 165.27 L 86.38 166.63 L 87.74 166.42 L 87.48 167.23 C 91.20 169.92 95.67 170.88 100.10 171.66 C 98.10 173.48 95.50 174.34 92.97 175.15 C 91.24 174.75 89.47 174.47 87.71 174.23 C 87.26 175.61 86.79 176.99 86.34 178.38 C 82.56 180.18 78.18 179.81 74.14 179.40 C 70.00 177.87 66.37 175.11 62.06 173.98 C 55.11 171.93 48.58 168.74 42.11 165.54 C 34.58 161.89 28.41 155.60 24.66 148.14 C 20.29 140.07 16.83 131.52 14.18 122.74 C 12.80 118.95 12.06 114.98 10.81 111.16 C 10.06 106.12 8.20 101.18 8.65 96.03 C 9.41 89.62 9.89 83.18 11.05 76.83 C 12.46 71.46 12.82 65.68 15.71 60.82 C 18.98 54.91 24.31 50.56 29.44 46.33 C 31.17 44.83 33.28 43.86 35.48 43.28 L 35.29 42.54 L 36.49 42.47 L 36.76 41.31 C 37.20 41.42 38.07 41.64 38.51 41.75 L 38.50 40.28 C 39.02 40.42 40.07 40.71 40.60 40.86 L 40.53 39.65 C 41.30 39.64 42.84 39.64 43.61 39.63 L 43.61 38.81 M 47.31 45.48 L 47.21 46.16 C 41.32 46.18 35.60 48.46 30.64 51.51 L 30.55 52.58 L 29.34 52.62 C 29.46 53.12 29.70 54.10 29.83 54.59 C 28.57 54.49 27.31 54.40 26.05 54.31 C 23.07 57.61 19.43 60.23 16.53 63.61 C 19.65 62.61 23.11 60.80 26.31 62.51 C 29.73 59.54 32.98 56.38 36.59 53.65 C 41.83 49.65 48.48 48.35 54.81 47.12 C 54.73 46.51 54.57 45.29 54.49 44.68 C 52.12 45.14 49.72 45.42 47.31 45.48 M 44.96 52.71 C 39.87 54.81 36.28 59.27 33.56 63.90 C 33.43 66.38 33.31 68.87 33.26 71.36 L 32.53 71.30 L 32.57 72.52 L 31.33 72.58 L 31.62 73.76 L 30.33 73.27 C 30.32 73.90 30.31 75.14 30.30 75.76 C 31.09 75.65 32.66 75.43 33.45 75.32 L 33.34 76.71 L 34.68 76.64 C 34.60 77.04 34.44 77.84 34.35 78.24 C 37.20 79.29 39.28 81.67 42.08 82.82 C 45.77 84.75 50.01 85.03 54.08 85.23 C 59.54 84.41 64.08 80.05 66.22 75.11 C 66.53 74.08 66.85 73.05 67.19 72.03 C 67.22 70.32 67.22 68.62 67.22 66.91 C 66.40 64.30 65.92 61.56 64.68 59.11 C 63.39 56.69 60.86 55.39 58.53 54.16 L 58.71 53.52 C 57.15 53.52 55.59 53.34 54.13 52.77 C 51.08 52.41 48.01 52.49 44.96 52.71 M 58.77 102.80 C 59.17 102.97 59.97 103.30 60.37 103.47 L 60.62 104.39 L 61.81 104.52 L 61.60 105.39 C 68.34 105.43 75.07 105.37 81.80 105.46 C 81.82 105.23 81.86 104.76 81.87 104.53 C 76.04 104.73 70.20 104.37 64.36 104.57 L 64.43 103.77 C 62.52 103.58 60.63 103.25 58.77 102.80 Z" />
<path fill="#fefefe" opacity="1.00" d=" M 105.82 46.89 C 109.69 48.64 113.30 50.87 117.09 52.78 C 116.58 53.04 115.57 53.57 115.07 53.83 C 115.63 54.21 116.76 54.97 117.32 55.35 C 117.69 58.26 118.99 61.04 118.52 64.04 C 118.11 66.62 119.42 68.87 120.51 71.09 C 120.59 74.01 120.44 76.93 120.46 79.85 C 122.38 82.96 126.05 85.48 125.87 89.48 C 124.67 85.65 122.15 82.49 119.73 79.37 C 119.78 76.17 119.75 72.98 119.76 69.78 C 119.00 68.67 118.23 67.57 117.48 66.46 C 117.60 62.69 118.31 58.43 116.17 55.08 C 113.00 52.01 108.66 50.36 105.82 46.89 Z" />
<path fill="#fefefe" opacity="1.00" d=" M 99.47 52.65 C 102.62 51.74 105.92 52.70 108.95 53.64 C 106.99 55.07 104.86 56.40 103.44 58.41 C 102.69 60.31 104.76 61.36 105.84 62.51 C 107.33 62.54 108.82 62.57 110.31 62.61 C 111.03 61.52 111.74 60.42 112.45 59.33 C 112.45 58.43 112.47 56.62 112.47 55.72 C 114.39 57.13 115.55 59.65 114.89 62.00 C 114.54 65.87 113.25 69.73 110.87 72.83 C 108.71 75.19 105.26 74.24 102.46 74.88 C 99.31 75.61 96.08 75.64 92.88 75.30 C 87.59 74.45 85.13 67.86 87.62 63.40 C 90.15 58.59 94.34 54.58 99.47 52.65 Z" />
<path fill="#fefefe" opacity="1.00" d=" M 47.26 55.80 C 51.78 55.07 56.75 56.00 60.52 58.66 C 63.61 61.92 63.83 66.75 63.77 71.01 C 64.06 75.79 60.18 79.72 55.98 81.34 C 49.97 82.66 43.47 81.13 38.58 77.43 C 35.77 75.16 35.49 71.26 35.71 67.93 C 37.18 62.32 41.23 56.81 47.26 55.80 M 40.68 68.62 C 40.18 71.53 38.61 75.41 41.94 77.27 C 46.06 78.00 49.38 74.78 51.44 71.60 C 49.69 67.42 44.39 66.60 40.68 68.62 Z" />
<path fill="#fefefe" opacity="1.00" d=" M 113.38 75.95 C 113.53 73.62 115.29 71.80 116.41 69.85 C 116.82 72.49 116.92 75.17 116.57 77.82 C 115.78 77.35 114.18 76.42 113.38 75.95 Z" />
<path fill="#fefefe" opacity="1.00" d=" M 100.19 79.26 C 102.90 76.99 106.72 77.13 109.94 78.01 C 115.52 79.38 120.53 83.63 122.31 89.15 C 123.35 95.11 123.06 101.34 121.12 107.09 C 119.10 113.52 117.12 120.54 120.02 127.04 C 121.84 135.51 121.67 144.33 120.16 152.83 C 118.59 157.69 116.17 162.71 111.62 165.43 C 104.82 169.63 95.11 169.36 89.03 163.95 C 85.45 160.33 84.62 154.90 84.56 150.02 C 84.18 142.71 86.91 135.79 89.22 128.99 C 90.08 123.71 89.78 118.34 89.75 113.01 C 89.88 108.89 87.53 105.08 88.32 100.93 C 89.94 92.77 93.64 84.62 100.19 79.26 M 95.09 94.03 C 91.30 105.35 95.59 117.66 92.07 129.10 C 91.41 133.73 90.25 138.33 90.38 143.04 C 90.45 147.47 89.92 152.44 92.87 156.15 C 96.40 161.56 104.78 163.12 109.83 158.96 C 111.76 156.98 112.93 154.42 114.30 152.05 C 114.41 151.51 114.65 150.41 114.76 149.86 C 117.06 144.25 117.62 137.55 115.14 131.92 C 113.76 127.37 114.47 122.49 114.65 117.82 C 115.17 116.57 115.72 115.34 116.25 114.10 C 117.35 111.10 118.42 108.08 119.38 105.04 C 120.04 99.84 118.25 94.73 116.65 89.86 C 115.10 84.22 108.16 82.27 103.05 83.74 C 99.05 85.83 96.71 89.98 95.09 94.03 Z" />
<path fill="#fefefe" opacity="1.00" d=" M 103.74 86.43 C 106.54 86.38 109.66 86.08 111.99 87.98 C 113.77 89.00 113.45 91.21 113.76 92.94 C 109.77 91.52 105.56 90.97 101.33 91.17 C 102.09 89.56 102.91 87.99 103.74 86.43 Z" />
<path fill="#fefefe" opacity="1.00" d=" M 97.50 95.79 C 98.54 94.82 99.56 93.82 100.59 92.84 C 100.74 94.77 100.79 96.69 100.84 98.63 C 99.96 98.69 98.20 98.81 97.31 98.87 C 97.36 98.10 97.45 96.56 97.50 95.79 Z" />
<path fill="#fefefe" opacity="1.00" d=" M 102.11 98.30 C 103.12 96.20 103.74 93.61 106.13 92.65 C 106.44 94.69 106.67 96.74 106.84 98.80 C 105.66 98.67 103.29 98.42 102.11 98.30 Z" />
<path fill="#fefefe" opacity="1.00" d=" M 109.76 93.07 C 110.38 94.87 110.87 96.71 111.38 98.55 C 110.34 98.65 109.30 98.75 108.26 98.84 C 108.56 96.87 109.04 94.93 109.76 93.07 Z" />
<path fill="#fefefe" opacity="1.00" d=" M 113.63 95.66 C 114.01 95.58 114.78 95.43 115.16 95.36 C 115.62 96.34 116.10 97.32 116.58 98.29 C 115.82 98.61 114.29 99.25 113.53 99.57 C 113.55 98.26 113.59 96.96 113.63 95.66 Z" />
<path fill="#fefefe" opacity="1.00" d=" M 96.64 101.41 C 98.40 100.06 100.91 100.95 102.98 100.67 C 107.51 100.96 112.19 100.07 116.59 101.45 C 116.50 102.36 116.32 104.17 116.23 105.08 C 115.88 106.08 115.53 107.09 115.19 108.10 C 114.85 109.10 114.51 110.09 114.19 111.10 C 111.08 117.16 110.38 124.26 111.76 130.89 C 113.03 134.59 113.87 138.44 113.67 142.38 C 111.03 140.28 109.79 136.92 107.10 134.86 C 103.86 131.97 99.38 131.29 95.19 131.34 C 95.34 128.20 95.89 125.11 96.42 122.01 C 96.95 115.16 96.42 108.27 96.64 101.41 Z" />
<path fill="#fefefe" opacity="1.00" d=" M 139.69 107.59 C 141.07 108.68 140.52 110.49 140.64 111.97 C 140.57 115.87 140.69 119.78 140.47 123.68 L 139.63 123.62 C 139.66 118.28 139.61 112.93 139.69 107.59 Z" />
<path fill="#fefefe" opacity="1.00" d=" M 167.56 108.75 C 168.12 108.81 169.24 108.93 169.80 108.99 C 171.69 109.59 173.67 109.83 175.52 110.53 C 178.01 115.21 177.28 120.72 176.52 125.75 C 174.55 126.93 172.34 127.59 170.08 127.87 C 166.63 127.88 163.99 125.80 162.34 122.90 C 162.13 118.77 162.16 114.37 164.31 110.70 C 165.49 110.42 166.67 110.13 167.85 109.83 L 167.56 108.75 M 164.58 111.60 C 163.83 112.76 163.53 114.12 162.87 115.33 C 162.66 117.81 162.69 120.30 162.74 122.79 C 164.43 124.19 165.36 127.28 168.01 126.82 C 170.78 126.97 173.51 126.62 176.12 125.66 C 176.44 120.90 177.74 115.45 174.75 111.26 C 171.85 109.32 167.44 109.63 164.58 111.60 Z" />
<path fill="#fefefe" opacity="1.00" d=" M 94.64 133.28 C 97.55 133.46 100.65 133.25 103.29 134.74 C 106.69 136.35 108.79 139.58 110.89 142.55 C 105.20 144.23 99.18 143.09 93.34 143.46 C 93.40 140.03 93.36 136.52 94.64 133.28 Z" />
<path fill="#fefefe" opacity="1.00" d=" M 93.02 145.65 C 94.53 145.63 96.04 145.63 97.56 145.64 C 97.62 147.75 97.12 149.71 96.06 151.50 C 97.66 151.94 99.31 152.19 100.96 152.38 C 103.76 153.90 106.82 154.68 110.02 154.60 C 107.35 158.48 102.53 157.92 98.42 157.47 C 97.35 156.14 94.92 155.23 95.60 153.18 C 96.08 150.35 93.10 148.45 93.02 145.65 Z" />
<path fill="#fefefe" opacity="1.00" d=" M 99.43 145.55 C 100.43 145.58 101.43 145.61 102.43 145.64 C 102.44 147.23 102.45 148.82 102.45 150.41 C 101.51 150.18 100.57 149.95 99.64 149.72 C 99.56 148.33 99.49 146.94 99.43 145.55 Z" />
<path fill="#fefefe" opacity="1.00" d=" M 106.57 153.24 C 103.99 151.41 104.53 148.11 104.55 145.35 C 108.63 145.44 106.23 150.69 106.57 153.24 Z" />
<path fill="#fefefe" opacity="1.00" d=" M 108.48 145.42 C 109.58 145.37 111.80 145.26 112.91 145.21 C 112.50 147.37 111.80 149.46 111.14 151.56 C 110.74 151.47 109.95 151.31 109.56 151.23 C 109.14 149.30 108.77 147.37 108.48 145.42 Z" />
</g>
<g id="#bc0405fe">
<path fill="#bc0405" opacity="1.00" d=" M 58.77 102.80 C 60.63 103.25 62.52 103.58 64.43 103.77 L 64.36 104.57 C 70.20 104.37 76.04 104.73 81.87 104.53 C 81.86 104.76 81.82 105.23 81.80 105.46 C 75.07 105.37 68.34 105.43 61.60 105.39 L 61.81 104.52 L 60.62 104.39 L 60.37 103.47 C 59.97 103.30 59.17 102.97 58.77 102.80 Z" />
<path fill="#bc0405" opacity="1.00" d=" M 162.56 105.44 C 165.70 103.16 169.73 103.57 173.39 103.57 C 176.95 105.35 181.52 107.28 182.12 111.78 C 182.71 115.10 184.54 118.66 182.69 121.87 C 182.72 122.65 182.78 124.21 182.82 124.99 C 181.37 127.14 180.26 129.53 178.57 131.50 C 177.23 132.23 175.76 132.68 174.35 133.23 C 171.09 133.26 167.84 133.26 164.60 133.34 C 160.20 131.53 157.87 127.19 156.48 122.90 C 156.45 120.54 156.40 118.18 156.38 115.82 C 156.65 115.48 157.20 114.80 157.47 114.46 C 156.90 110.61 159.97 107.76 162.56 105.44 M 167.56 108.75 L 167.85 109.83 C 166.67 110.13 165.49 110.42 164.31 110.70 C 162.16 114.37 162.13 118.77 162.34 122.90 C 163.99 125.80 166.63 127.88 170.08 127.87 C 172.34 127.59 174.55 126.93 176.52 125.75 C 177.28 120.72 178.01 115.21 175.52 110.53 C 173.67 109.83 171.69 109.59 169.80 108.99 C 169.24 108.93 168.12 108.81 167.56 108.75 Z" />
<path fill="#bc0405" opacity="1.00" d=" M 188.50 103.35 C 190.17 103.58 191.79 104.06 193.31 104.78 C 193.35 112.15 193.13 119.52 193.42 126.88 C 196.95 126.81 200.52 126.41 204.03 126.91 C 206.76 127.80 205.44 131.16 205.87 133.26 C 199.50 133.26 193.14 133.26 186.77 133.26 C 186.76 124.00 186.89 114.75 186.70 105.49 C 187.30 104.77 187.90 104.06 188.50 103.35 Z" />
<path fill="#bc0405" opacity="1.00" d=" M 134.30 105.31 C 134.71 104.87 135.53 103.97 135.93 103.52 C 136.86 103.55 138.72 103.59 139.65 103.61 C 139.65 104.93 139.68 106.26 139.69 107.59 C 139.61 112.93 139.66 118.28 139.63 123.62 C 139.63 124.42 139.63 126.01 139.62 126.81 C 144.58 126.63 149.62 126.37 154.37 128.05 C 154.39 129.79 154.41 131.53 154.41 133.27 C 147.76 133.29 141.11 133.16 134.47 133.36 C 134.19 124.02 134.54 114.66 134.30 105.31 Z" />
</g>
</svg>
