<?xml version="1.0" encoding="UTF-8" ?>
<!DOCTYPE svg PUBLIC "-//W3C//DTD SVG 1.1//EN" "http://www.w3.org/Graphics/SVG/1.1/DTD/svg11.dtd">
<svg width="210pt" height="220pt" viewBox="0 0 210 220" version="1.1" xmlns="http://www.w3.org/2000/svg">
<g id="#000000ff">
<path fill="#000000" opacity="1.00" d=" M 89.82 6.90 C 97.94 5.93 106.17 5.35 114.35 5.99 C 118.81 6.38 122.80 8.50 126.88 10.18 C 127.46 10.36 128.64 10.74 129.23 10.92 L 129.89 11.03 C 131.33 13.03 133.81 13.23 136.06 12.88 L 136.71 12.90 C 136.80 15.09 139.44 15.11 141.03 14.78 C 143.83 16.04 146.34 17.82 148.58 19.91 L 149.42 20.62 C 151.74 21.51 154.17 22.05 156.56 22.73 C 158.66 24.07 160.26 26.03 162.10 27.69 C 161.74 29.27 162.40 30.14 164.07 30.32 C 167.98 35.56 171.71 41.24 173.22 47.69 C 173.38 48.26 173.69 49.40 173.85 49.97 L 174.03 50.58 C 174.41 53.95 175.06 57.28 176.00 60.53 C 176.03 60.75 176.09 61.20 176.12 61.42 C 177.07 67.76 175.02 74.77 178.47 80.55 C 176.93 80.10 175.40 79.66 173.85 79.24 C 174.04 82.28 175.53 84.95 178.35 86.26 C 181.13 88.12 183.82 90.11 186.36 92.29 L 186.53 92.44 L 186.72 92.58 C 188.06 93.65 189.39 94.75 190.79 95.76 C 190.69 97.32 191.49 98.11 193.19 98.11 C 193.46 98.40 194.01 99.00 194.28 99.29 C 194.38 99.44 194.59 99.73 194.70 99.87 L 195.14 100.63 C 192.59 100.05 190.62 98.26 188.56 96.77 C 188.31 96.53 187.79 96.06 187.54 95.82 C 187.26 94.36 186.38 93.67 184.89 93.77 C 183.60 92.85 182.32 91.91 181.06 90.95 C 180.90 89.50 180.10 88.72 178.68 88.60 C 177.98 88.45 177.28 88.30 176.58 88.16 L 175.77 89.18 C 174.88 85.97 172.90 83.18 172.33 79.87 C 171.61 76.63 170.09 73.61 168.01 71.03 C 167.76 69.01 167.45 67.01 167.16 65.00 C 161.98 67.17 159.76 73.18 154.45 75.18 C 154.31 78.05 155.84 80.67 155.54 83.60 C 154.81 82.49 154.09 81.37 153.43 80.23 C 153.50 78.07 152.89 75.93 153.00 73.79 C 156.43 69.06 160.90 64.67 166.79 63.33 C 164.05 51.64 157.78 40.46 148.38 32.87 C 147.66 50.18 139.05 66.87 125.18 77.28 C 130.71 76.44 137.12 75.20 141.92 78.89 C 142.70 78.24 143.50 77.60 144.29 76.97 C 143.53 78.08 142.73 79.18 141.94 80.28 C 133.86 81.74 125.86 79.28 117.79 79.45 C 116.46 80.55 115.13 81.64 113.76 82.69 C 115.36 80.45 117.41 78.42 120.21 77.85 C 125.73 76.90 128.72 71.78 132.19 67.96 C 134.07 63.07 137.31 58.88 139.35 54.06 C 141.47 49.65 142.31 44.76 142.63 39.91 C 138.10 47.80 133.50 55.72 127.58 62.68 C 123.25 67.69 119.70 73.35 114.97 78.01 C 109.75 83.26 104.03 88.07 97.66 91.87 C 101.32 86.63 104.85 81.28 109.03 76.42 C 105.20 80.14 100.60 82.87 96.40 86.08 C 95.27 89.97 96.04 94.11 96.69 98.03 C 99.17 105.47 105.06 111.33 111.72 115.23 C 111.13 115.33 109.96 115.53 109.38 115.63 C 110.43 116.89 111.47 118.16 112.53 119.43 C 112.59 121.92 113.15 124.63 111.95 126.96 C 110.93 129.17 109.04 130.78 107.21 132.31 C 108.49 133.78 109.79 135.24 111.05 136.74 C 109.63 135.45 108.24 134.13 106.85 132.83 C 105.72 135.38 104.80 138.11 105.19 140.94 C 105.12 143.58 107.43 145.16 108.83 147.11 C 106.45 145.52 103.11 144.44 102.28 141.35 C 102.43 137.42 102.93 133.40 104.78 129.86 C 106.23 126.97 110.21 123.81 107.37 120.48 C 103.58 120.17 99.76 120.22 96.02 119.46 C 96.30 119.75 96.87 120.33 97.15 120.62 C 96.13 122.22 95.60 124.04 95.42 125.92 C 94.94 130.47 92.90 134.62 92.04 139.09 C 91.39 140.81 91.89 142.61 92.43 144.29 C 92.10 144.27 91.43 144.21 91.10 144.19 L 90.14 144.18 C 88.75 146.58 86.43 149.06 87.37 152.06 C 88.90 158.64 89.87 166.14 95.27 170.85 C 97.87 172.86 100.57 174.78 102.65 177.37 C 104.72 180.42 108.89 180.30 111.40 182.83 C 115.14 186.55 120.05 188.71 124.92 190.52 C 128.04 190.91 131.20 190.98 134.27 191.68 C 129.05 191.53 123.52 191.47 118.86 188.78 C 114.39 186.24 109.89 183.73 105.54 180.98 C 107.60 186.39 106.32 192.18 104.53 197.45 C 102.91 201.62 98.35 204.04 93.97 203.43 C 91.05 203.02 89.83 206.30 88.19 208.08 C 90.06 210.03 92.12 211.84 93.54 214.17 C 91.34 214.21 88.87 214.41 87.01 212.99 C 85.48 211.39 84.29 209.50 82.85 207.83 C 82.51 211.38 82.51 214.94 82.40 218.51 C 83.03 218.88 84.30 219.63 84.94 220.00 L 34.35 220.00 C 36.09 210.85 35.98 201.48 37.31 192.27 C 38.29 180.60 40.01 168.96 39.75 157.22 C 34.85 157.33 29.81 156.83 25.10 158.55 C 24.73 158.20 24.00 157.51 23.63 157.16 C 24.21 156.87 25.38 156.29 25.96 155.99 C 27.59 156.89 29.46 156.33 31.03 155.61 C 34.91 155.59 38.79 155.58 42.67 155.61 C 41.12 152.52 38.97 149.24 39.95 145.61 C 40.57 142.04 43.69 139.89 46.48 138.03 C 45.37 135.41 42.89 132.80 43.77 129.76 C 45.07 123.67 50.99 119.00 57.23 119.24 C 57.74 118.21 58.25 117.18 58.77 116.15 C 56.25 115.61 53.80 114.77 51.54 113.52 C 47.93 111.51 43.43 110.84 40.65 107.55 C 37.71 103.85 37.21 98.80 37.83 94.26 C 39.00 87.17 40.68 80.08 43.97 73.65 C 46.30 70.79 46.91 67.19 46.92 63.61 C 47.70 59.76 48.75 55.98 49.88 52.22 C 51.89 51.73 52.40 49.61 51.84 47.84 C 56.29 37.45 63.34 28.50 70.31 19.70 L 70.51 19.49 L 70.71 19.28 C 76.08 13.86 82.02 8.30 89.82 6.90 M 41.27 93.93 C 40.86 98.65 41.52 103.81 45.59 106.85 C 44.81 103.62 43.65 100.44 43.61 97.08 C 43.23 91.36 45.10 85.76 44.39 80.04 C 43.09 84.61 41.92 89.22 41.27 93.93 M 67.41 102.07 C 67.60 107.11 70.01 111.91 73.47 115.53 C 76.86 119.69 82.30 121.07 86.35 124.42 C 88.03 124.24 90.11 123.68 91.18 125.46 C 92.97 123.66 95.00 121.49 94.55 118.71 C 93.60 117.60 92.63 116.50 91.64 115.43 C 91.58 117.16 90.77 118.64 89.66 119.89 C 89.67 118.39 90.01 116.86 89.64 115.39 C 87.96 114.00 85.10 115.31 83.66 113.50 C 83.50 112.31 83.39 111.11 83.34 109.92 C 81.27 109.09 79.27 105.80 77.06 108.00 C 74.60 111.00 77.69 113.90 79.70 116.02 C 77.80 114.65 76.05 113.11 74.47 111.38 C 74.83 109.10 76.49 107.50 77.92 105.83 C 77.75 103.69 76.09 102.12 75.13 100.31 C 74.23 100.24 72.42 100.11 71.51 100.05 C 71.17 101.38 70.80 102.70 70.41 104.02 C 70.59 102.52 70.86 101.04 71.24 99.58 C 72.79 99.72 74.43 99.48 75.92 99.99 C 78.35 102.00 79.74 104.92 81.66 107.37 C 82.65 107.79 83.63 108.21 84.62 108.64 C 84.64 109.93 84.64 111.23 84.64 112.53 C 86.44 113.16 88.31 113.53 90.20 113.76 C 87.12 109.42 83.88 105.19 81.34 100.50 C 78.83 98.68 76.38 95.65 72.90 96.45 C 70.15 96.86 67.26 99.04 67.41 102.07 M 50.32 126.25 C 49.15 128.32 48.00 130.48 48.48 132.95 C 49.06 132.12 49.63 131.27 50.18 130.42 C 50.20 129.03 50.24 127.64 50.32 126.25 M 74.12 154.17 C 71.83 156.15 72.18 159.23 72.30 161.94 C 72.85 159.76 73.09 157.36 74.66 155.62 C 78.94 150.52 84.47 146.21 87.03 139.88 C 83.02 144.91 78.61 149.57 74.12 154.17 M 65.77 180.43 L 66.59 180.41 C 66.68 181.58 66.78 182.76 66.91 183.93 C 68.59 185.02 68.52 187.18 69.25 188.86 C 70.62 191.50 71.40 194.37 72.49 197.12 C 72.79 191.28 72.95 182.64 66.35 180.16 C 64.05 173.69 63.49 166.78 63.50 159.97 C 62.90 166.88 64.08 173.76 65.77 180.43 M 86.45 177.16 C 86.63 177.56 87.00 178.36 87.18 178.76 C 88.63 182.50 90.32 186.15 91.44 190.01 C 93.04 185.03 90.05 180.34 86.45 177.16 Z" />
<path fill="#000000" opacity="1.00" d=" M 164.35 70.55 C 164.67 69.47 165.00 68.40 165.32 67.32 C 165.11 69.45 165.77 70.94 168.01 71.03 C 168.17 71.72 168.49 73.09 168.65 73.78 L 166.58 73.47 C 166.62 74.68 166.67 75.88 166.71 77.09 C 163.23 78.48 159.63 79.69 155.82 79.55 C 156.19 75.64 159.67 73.47 161.92 70.64 C 162.53 70.62 163.74 70.57 164.35 70.55 M 159.50 76.40 C 158.92 78.03 159.46 78.55 161.12 77.97 C 161.72 76.35 161.18 75.82 159.50 76.40 Z" />
<path fill="#000000" opacity="1.00" d=" M 121.48 84.68 C 126.04 83.20 130.90 83.92 135.58 83.19 C 135.58 83.97 135.58 85.54 135.58 86.32 C 134.57 86.12 132.55 85.72 131.54 85.52 C 131.50 86.65 131.45 87.78 131.41 88.91 C 128.48 89.71 125.59 90.80 122.50 90.66 C 122.08 91.32 121.66 91.98 121.24 92.64 L 121.74 91.23 C 119.86 90.65 116.63 91.21 115.50 89.69 C 116.86 87.64 119.38 86.13 121.48 84.68 M 118.72 89.37 C 120.54 89.59 122.37 89.61 124.19 89.54 C 124.37 88.39 124.55 87.25 124.72 86.10 C 122.60 86.96 120.59 88.06 118.72 89.37 Z" />
<path fill="#000000" opacity="1.00" d=" M 155.16 121.64 C 159.75 119.79 164.16 117.51 168.87 115.96 C 168.66 119.18 168.95 122.63 167.52 125.62 C 165.78 128.04 162.48 128.38 159.98 129.66 C 159.65 129.64 159.00 129.61 158.67 129.60 C 154.44 129.57 150.38 128.17 146.16 128.16 C 145.69 128.17 144.76 128.17 144.30 128.18 C 144.41 127.86 144.63 127.24 144.74 126.93 C 145.50 126.31 146.27 125.71 147.06 125.13 C 148.30 124.43 149.57 123.80 150.84 123.17 C 156.26 125.24 163.11 123.01 166.17 118.05 C 162.43 119.04 158.93 120.74 155.16 121.64 M 154.83 128.33 C 157.98 128.80 161.07 128.10 164.09 127.26 C 165.62 126.47 166.90 125.27 166.64 123.41 C 163.22 126.23 158.62 126.28 154.83 128.33 Z" />
<path fill="#000000" opacity="1.00" d=" M 87.44 121.44 C 88.52 120.52 90.52 121.65 90.25 123.06 C 89.48 124.10 88.53 124.26 87.40 123.55 C 87.41 123.02 87.43 121.97 87.44 121.44 Z" />
<path fill="#000000" opacity="1.00" d=" M 124.14 144.10 C 129.69 146.39 135.52 147.89 141.16 149.91 C 144.67 151.17 148.36 151.83 152.09 151.92 C 150.91 152.89 149.73 153.84 148.50 154.75 L 147.58 155.41 C 147.26 155.63 146.62 156.05 146.30 156.26 C 146.47 157.25 146.64 158.25 146.82 159.24 C 146.24 159.29 145.07 159.37 144.48 159.42 C 142.36 163.24 140.21 167.07 138.37 171.05 C 136.74 174.52 137.22 178.46 137.11 182.18 C 136.25 177.49 137.12 172.72 138.38 168.19 C 140.09 163.47 143.51 159.54 144.97 154.70 C 141.35 150.71 135.70 150.15 131.24 147.52 C 128.95 146.22 126.55 145.15 124.14 144.10 Z" />
<path fill="#000000" opacity="1.00" d=" M 155.42 162.75 C 158.57 163.10 161.72 163.83 164.91 163.45 C 170.97 162.60 176.90 164.73 182.94 164.91 C 183.18 165.49 183.67 166.64 183.91 167.22 C 185.95 172.06 188.51 176.71 189.93 181.80 C 193.34 194.41 198.19 206.63 203.97 218.33 C 205.09 218.61 206.05 219.17 206.85 220.00 L 173.51 220.00 C 175.73 209.99 173.40 199.83 172.29 189.85 C 170.20 181.46 168.76 171.93 162.18 165.71 C 161.14 165.48 160.11 165.23 159.08 164.98 C 157.82 164.31 156.61 163.53 155.42 162.75 Z" />
<path fill="#000000" opacity="1.00" d=" M 5.14 203.92 C 3.26 202.05 3.43 198.91 5.33 197.13 C 5.42 199.39 5.34 201.66 5.14 203.92 Z" />
</g>
<g id="#834a48f9">
<path fill="#834a48" opacity="0.98" d=" M 126.88 10.18 C 127.46 10.36 128.64 10.74 129.23 10.92 C 128.64 10.74 127.46 10.36 126.88 10.18 Z" />
<path fill="#834a48" opacity="0.98" d=" M 129.89 11.03 C 132.12 10.83 134.43 11.24 136.06 12.88 C 133.81 13.23 131.33 13.03 129.89 11.03 Z" />
<path fill="#834a48" opacity="0.98" d=" M 136.71 12.90 C 138.40 12.72 139.81 13.76 141.03 14.78 C 139.44 15.11 136.80 15.09 136.71 12.90 Z" />
<path fill="#834a48" opacity="0.98" d=" M 70.49 19.47 L 70.71 19.28 L 70.51 19.49 L 70.31 19.70 L 70.49 19.47 Z" />
<path fill="#834a48" opacity="0.98" d=" M 148.58 19.91 C 151.32 20.56 154.11 21.28 156.56 22.73 C 154.17 22.05 151.74 21.51 149.42 20.62 L 148.58 19.91 Z" />
<path fill="#834a48" opacity="0.98" d=" M 162.10 27.69 C 163.19 28.24 163.85 29.12 164.07 30.32 C 162.40 30.14 161.74 29.27 162.10 27.69 Z" />
<path fill="#834a48" opacity="0.98" d=" M 49.88 52.22 C 49.87 50.52 50.63 49.00 51.84 47.84 C 52.40 49.61 51.89 51.73 49.88 52.22 Z" />
<path fill="#834a48" opacity="0.98" d=" M 173.22 47.69 L 173.96 48.12 C 173.93 48.58 173.87 49.51 173.85 49.97 C 173.69 49.40 173.38 48.26 173.22 47.69 Z" />
<path fill="#834a48" opacity="0.98" d=" M 174.03 50.58 C 175.30 53.75 175.84 57.13 176.00 60.53 C 175.06 57.28 174.41 53.95 174.03 50.58 Z" />
<path fill="#834a48" opacity="0.98" d=" M 176.12 61.42 C 176.83 66.33 178.35 71.41 176.83 76.33 C 178.59 78.23 180.40 80.09 182.15 82.01 C 179.38 82.02 176.68 81.42 174.24 80.08 C 175.16 82.42 176.30 84.72 178.35 86.26 C 175.53 84.95 174.04 82.28 173.85 79.24 C 175.40 79.66 176.93 80.10 178.47 80.55 C 175.02 74.77 177.07 67.76 176.12 61.42 Z" />
<path fill="#834a48" opacity="0.98" d=" M 43.97 73.65 C 45.13 70.35 46.08 66.99 46.92 63.61 C 46.91 67.19 46.30 70.79 43.97 73.65 Z" />
<path fill="#834a48" opacity="0.98" d=" M 175.77 89.18 L 176.58 88.16 C 177.52 90.96 177.95 93.90 178.12 96.85 C 182.24 103.60 184.26 111.28 185.39 119.04 C 184.81 121.05 184.34 123.12 183.53 125.06 C 181.70 128.00 178.19 129.26 174.83 128.93 C 174.55 135.11 175.07 141.58 172.13 147.27 C 171.75 146.64 171.39 146.02 171.04 145.39 C 172.30 142.13 172.98 138.69 172.87 135.18 C 172.79 130.40 174.21 125.80 175.08 121.15 C 175.54 121.98 175.98 122.81 176.43 123.65 C 176.22 124.65 175.81 126.66 175.60 127.66 C 180.65 127.93 183.34 123.30 184.01 118.93 C 182.46 112.69 182.11 105.69 178.02 100.44 C 178.04 104.33 179.35 108.14 178.91 112.04 C 178.62 115.00 177.59 117.83 176.64 120.63 L 175.55 120.28 C 175.91 115.50 176.50 110.73 176.87 105.95 C 177.28 100.33 176.28 94.76 175.77 89.18 Z" />
<path fill="#834a48" opacity="0.98" d=" M 178.68 88.60 C 180.10 88.72 180.90 89.50 181.06 90.95 C 179.64 90.76 178.84 89.97 178.68 88.60 Z" />
<path fill="#834a48" opacity="0.98" d=" M 186.36 92.29 L 186.55 92.44 L 186.72 92.58 L 186.53 92.44 L 186.36 92.29 Z" />
<path fill="#834a48" opacity="0.98" d=" M 184.89 93.77 C 186.38 93.67 187.26 94.36 187.54 95.82 C 186.18 95.76 185.30 95.08 184.89 93.77 Z" />
<path fill="#834a48" opacity="0.98" d=" M 190.79 95.76 C 191.98 96.14 192.78 96.92 193.19 98.11 C 191.49 98.11 190.69 97.32 190.79 95.76 Z" />
<path fill="#834a48" opacity="0.98" d=" M 188.56 96.77 C 190.62 98.26 192.59 100.05 195.14 100.63 C 196.30 102.33 197.16 104.21 198.09 106.05 C 196.76 108.67 195.24 111.31 192.60 112.82 C 194.36 110.15 195.97 107.31 195.68 103.99 C 193.23 101.65 190.89 99.22 188.56 96.77 Z" />
<path fill="#834a48" opacity="0.98" d=" M 194.28 99.29 L 194.51 99.54 L 194.70 99.87 C 194.59 99.73 194.38 99.44 194.28 99.29 Z" />
<path fill="#834a48" opacity="0.98" d=" M 161.06 116.19 C 162.84 115.54 164.35 114.31 166.15 113.71 C 167.62 113.87 168.65 115.15 169.87 115.89 C 169.31 119.55 169.98 123.25 169.64 126.92 C 169.02 130.90 164.98 134.05 160.95 133.69 C 155.60 133.37 150.74 130.70 146.16 128.16 C 150.38 128.17 154.44 129.57 158.67 129.60 C 158.71 130.30 158.77 131.72 158.81 132.42 C 160.15 132.26 161.50 132.09 162.85 131.91 C 161.90 131.15 160.94 130.40 159.98 129.66 C 162.48 128.38 165.78 128.04 167.52 125.62 C 168.95 122.63 168.66 119.18 168.87 115.96 C 164.16 117.51 159.75 119.79 155.16 121.64 C 158.93 120.74 162.43 119.04 166.17 118.05 C 163.11 123.01 156.26 125.24 150.84 123.17 C 149.57 123.80 148.30 124.43 147.06 125.13 C 148.90 122.67 151.10 120.49 153.34 118.39 C 155.46 116.50 158.46 116.74 161.06 116.19 Z" />
<path fill="#834a48" opacity="0.98" d=" M 97.15 120.62 C 99.96 123.48 102.15 126.86 104.78 129.86 C 102.93 133.40 102.43 137.42 102.28 141.35 C 101.73 139.18 101.99 136.92 102.25 134.73 C 102.06 134.38 101.69 133.68 101.50 133.33 C 102.36 132.58 103.22 131.83 104.08 131.08 C 101.81 128.05 99.30 125.22 96.49 122.69 C 95.21 128.87 97.91 134.84 97.78 141.01 C 97.75 144.79 97.98 149.08 95.12 152.00 C 93.04 149.82 91.89 147.04 91.10 144.19 C 91.43 144.21 92.10 144.27 92.43 144.29 C 93.37 146.20 94.35 148.08 95.40 149.93 C 96.80 144.18 96.54 138.18 95.38 132.42 C 94.10 134.55 92.90 136.74 92.04 139.09 C 92.90 134.62 94.94 130.47 95.42 125.92 C 95.60 124.04 96.13 122.22 97.15 120.62 Z" />
<path fill="#834a48" opacity="0.98" d=" M 137.36 123.94 C 138.97 123.41 139.51 123.97 138.99 125.63 C 137.40 126.14 136.86 125.57 137.36 123.94 Z" />
<path fill="#834a48" opacity="0.98" d=" M 74.12 154.17 C 78.61 149.57 83.02 144.91 87.03 139.88 C 84.47 146.21 78.94 150.52 74.66 155.62 C 73.09 157.36 72.85 159.76 72.30 161.94 C 72.18 159.23 71.83 156.15 74.12 154.17 Z" />
<path fill="#834a48" opacity="0.98" d=" M 152.09 151.92 C 158.53 151.86 165.44 151.33 170.52 146.89 C 170.12 148.00 169.71 149.10 169.30 150.21 C 164.41 153.03 158.79 152.93 153.34 152.96 C 151.42 153.78 149.47 154.54 147.58 155.41 L 148.50 154.75 C 149.73 153.84 150.91 152.89 152.09 151.92 Z" />
<path fill="#834a48" opacity="0.98" d=" M 25.96 155.99 C 27.45 154.86 29.44 154.35 31.03 155.61 C 29.46 156.33 27.59 156.89 25.96 155.99 Z" />
<path fill="#834a48" opacity="0.98" d=" M 10.79 172.57 C 13.77 166.56 16.99 159.84 23.63 157.16 C 24.00 157.51 24.73 158.20 25.10 158.55 C 22.47 160.00 19.77 161.57 17.96 164.04 C 11.11 173.87 8.08 185.63 5.33 197.13 C 3.43 198.91 3.26 202.05 5.14 203.92 C 4.98 209.28 4.53 214.63 4.62 220.00 L 2.84 220.00 C 3.35 211.42 2.65 202.77 3.77 194.23 C 5.69 186.88 7.68 179.53 10.79 172.57 Z" />
<path fill="#834a48" opacity="0.98" d=" M 147.45 160.33 C 154.39 160.45 161.18 165.09 168.03 162.10 C 172.82 164.15 178.24 162.68 182.94 164.91 C 176.90 164.73 170.97 162.60 164.91 163.45 C 161.72 163.83 158.57 163.10 155.42 162.75 C 156.61 163.53 157.82 164.31 159.08 164.98 C 155.05 163.94 150.75 163.02 147.45 160.33 Z" />
<path fill="#834a48" opacity="0.98" d=" M 107.16 161.10 C 108.24 163.46 109.21 165.89 110.66 168.06 C 114.37 173.29 116.66 179.32 119.74 184.92 C 116.35 182.55 114.98 178.49 112.95 175.08 C 110.38 170.71 108.73 165.90 107.16 161.10 Z" />
<path fill="#834a48" opacity="0.98" d=" M 182.94 164.91 C 185.07 165.94 187.42 166.14 189.74 166.32 C 193.08 166.48 196.09 168.42 198.50 170.59 C 202.82 176.29 204.47 183.37 206.87 189.96 C 207.65 191.94 207.74 194.07 207.85 196.16 C 210.08 203.78 207.09 211.59 206.54 219.26 C 204.64 217.23 205.55 214.48 205.85 212.07 C 207.32 203.19 206.85 193.93 203.62 185.47 C 201.75 180.14 200.05 174.25 195.57 170.47 C 192.37 167.69 187.86 167.84 183.91 167.22 C 183.67 166.64 183.18 165.49 182.94 164.91 Z" />
<path fill="#834a48" opacity="0.98" d=" M 154.09 182.98 C 156.38 180.17 158.07 176.49 161.80 175.30 C 160.88 177.41 159.03 178.86 157.62 180.62 C 153.82 185.55 147.35 186.73 141.86 188.85 C 145.49 186.01 150.50 185.87 154.09 182.98 Z" />
</g>
<g id="#fefefeff">
<path fill="#fefefe" opacity="1.00" d=" M 148.38 32.87 C 157.78 40.46 164.05 51.64 166.79 63.33 C 160.90 64.67 156.43 69.06 153.00 73.79 C 152.89 75.93 153.50 78.07 153.43 80.23 C 154.09 81.37 154.81 82.49 155.54 83.60 C 155.84 80.67 154.31 78.05 154.45 75.18 C 159.76 73.18 161.98 67.17 167.16 65.00 C 167.45 67.01 167.76 69.01 168.01 71.03 C 165.77 70.94 165.11 69.45 165.32 67.32 C 165.00 68.40 164.67 69.47 164.35 70.55 C 163.74 70.57 162.53 70.62 161.92 70.64 C 159.67 73.47 156.19 75.64 155.82 79.55 C 159.63 79.69 163.23 78.48 166.71 77.09 C 166.67 75.88 166.62 74.68 166.58 73.47 L 168.65 73.78 C 168.49 73.09 168.17 71.72 168.01 71.03 C 170.09 73.61 171.61 76.63 172.33 79.87 C 172.90 83.18 174.88 85.97 175.77 89.18 C 176.28 94.76 177.28 100.33 176.87 105.95 C 176.50 110.73 175.91 115.50 175.55 120.28 L 176.64 120.63 C 176.62 121.64 176.56 122.65 176.43 123.65 C 175.98 122.81 175.54 121.98 175.08 121.15 C 174.21 125.80 172.79 130.40 172.87 135.18 C 172.98 138.69 172.30 142.13 171.04 145.39 C 170.91 145.77 170.65 146.52 170.52 146.89 C 165.44 151.33 158.53 151.86 152.09 151.92 C 148.36 151.83 144.67 151.17 141.16 149.91 C 135.52 147.89 129.69 146.39 124.14 144.10 C 126.55 145.15 128.95 146.22 131.24 147.52 C 135.70 150.15 141.35 150.71 144.97 154.70 C 143.51 159.54 140.09 163.47 138.38 168.19 C 137.12 172.72 136.25 177.49 137.11 182.18 C 137.22 178.46 136.74 174.52 138.37 171.05 C 140.21 167.07 142.36 163.24 144.48 159.42 C 145.07 159.37 146.24 159.29 146.82 159.24 L 146.95 159.87 L 147.27 159.24 C 147.32 159.51 147.40 160.06 147.45 160.33 C 150.75 163.02 155.05 163.94 159.08 164.98 C 160.11 165.23 161.14 165.48 162.18 165.71 C 168.76 171.93 170.20 181.46 172.29 189.85 C 173.40 199.83 175.73 209.99 173.51 220.00 L 84.94 220.00 C 84.30 219.63 83.03 218.88 82.40 218.51 C 82.51 214.94 82.51 211.38 82.85 207.83 C 84.29 209.50 85.48 211.39 87.01 212.99 C 88.87 214.41 91.34 214.21 93.54 214.17 C 92.12 211.84 90.06 210.03 88.19 208.08 C 89.83 206.30 91.05 203.02 93.97 203.43 C 98.35 204.04 102.91 201.62 104.53 197.45 C 106.32 192.18 107.60 186.39 105.54 180.98 C 109.89 183.73 114.39 186.24 118.86 188.78 C 123.52 191.47 129.05 191.53 134.27 191.68 C 131.20 190.98 128.04 190.91 124.92 190.52 C 120.05 188.71 115.14 186.55 111.40 182.83 C 108.89 180.30 104.72 180.42 102.65 177.37 C 100.57 174.78 97.87 172.86 95.27 170.85 C 89.87 166.14 88.90 158.64 87.37 152.06 C 86.43 149.06 88.75 146.58 90.14 144.18 L 91.10 144.19 C 91.89 147.04 93.04 149.82 95.12 152.00 C 97.98 149.08 97.75 144.79 97.78 141.01 C 97.91 134.84 95.21 128.87 96.49 122.69 C 99.30 125.22 101.81 128.05 104.08 131.08 C 103.22 131.83 102.36 132.58 101.50 133.33 C 101.69 133.68 102.06 134.38 102.25 134.73 C 101.99 136.92 101.73 139.18 102.28 141.35 C 103.11 144.44 106.45 145.52 108.83 147.11 C 107.43 145.16 105.12 143.58 105.19 140.94 C 104.80 138.11 105.72 135.38 106.85 132.83 C 108.24 134.13 109.63 135.45 111.05 136.74 C 109.79 135.24 108.49 133.78 107.21 132.31 C 109.04 130.78 110.93 129.17 111.95 126.96 C 113.15 124.63 112.59 121.92 112.53 119.43 C 111.47 118.16 110.43 116.89 109.38 115.63 C 109.96 115.53 111.13 115.33 111.72 115.23 C 105.06 111.33 99.17 105.47 96.69 98.03 C 96.04 94.11 95.27 89.97 96.40 86.08 C 100.60 82.87 105.20 80.14 109.03 76.42 C 104.85 81.28 101.32 86.63 97.66 91.87 C 104.03 88.07 109.75 83.26 114.97 78.01 C 119.70 73.35 123.25 67.69 127.58 62.68 C 133.50 55.72 138.10 47.80 142.63 39.91 C 142.31 44.76 141.47 49.65 139.35 54.06 C 137.31 58.88 134.07 63.07 132.19 67.96 C 128.72 71.78 125.73 76.90 120.21 77.85 C 117.41 78.42 115.36 80.45 113.76 82.69 C 115.13 81.64 116.46 80.55 117.79 79.45 C 125.86 79.28 133.86 81.74 141.94 80.28 C 142.73 79.18 143.53 78.08 144.29 76.97 C 143.50 77.60 142.70 78.24 141.92 78.89 C 137.12 75.20 130.71 76.44 125.18 77.28 C 139.05 66.87 147.66 50.18 148.38 32.87 M 121.48 84.68 C 119.38 86.13 116.86 87.64 115.50 89.69 C 116.63 91.21 119.86 90.65 121.74 91.23 L 121.24 92.64 C 121.66 91.98 122.08 91.32 122.50 90.66 C 125.59 90.80 128.48 89.71 131.41 88.91 C 131.45 87.78 131.50 86.65 131.54 85.52 C 132.55 85.72 134.57 86.12 135.58 86.32 C 135.58 85.54 135.58 83.97 135.58 83.19 C 130.90 83.92 126.04 83.20 121.48 84.68 M 161.06 116.19 C 158.46 116.74 155.46 116.50 153.34 118.39 C 151.10 120.49 148.90 122.67 147.06 125.13 C 146.27 125.71 145.50 126.31 144.74 126.93 C 144.63 127.24 144.41 127.86 144.30 128.18 C 144.76 128.17 145.69 128.17 146.16 128.16 C 150.74 130.70 155.60 133.37 160.95 133.69 C 164.98 134.05 169.02 130.90 169.64 126.92 C 169.98 123.25 169.31 119.55 169.87 115.89 C 168.65 115.15 167.62 113.87 166.15 113.71 C 164.35 114.31 162.84 115.54 161.06 116.19 M 137.36 123.94 C 136.86 125.57 137.40 126.14 138.99 125.63 C 139.51 123.97 138.97 123.41 137.36 123.94 M 107.16 161.10 C 108.73 165.90 110.38 170.71 112.95 175.08 C 114.98 178.49 116.35 182.55 119.74 184.92 C 116.66 179.32 114.37 173.29 110.66 168.06 C 109.21 165.89 108.24 163.46 107.16 161.10 M 154.09 182.98 C 150.50 185.87 145.49 186.01 141.86 188.85 C 147.35 186.73 153.82 185.55 157.62 180.62 C 159.03 178.86 160.88 177.41 161.80 175.30 C 158.07 176.49 156.38 180.17 154.09 182.98 Z" />
<path fill="#fefefe" opacity="1.00" d=" M 159.50 76.40 C 161.18 75.82 161.72 76.35 161.12 77.97 C 159.46 78.55 158.92 78.03 159.50 76.40 Z" />
<path fill="#fefefe" opacity="1.00" d=" M 41.27 93.93 C 41.92 89.22 43.09 84.61 44.39 80.04 C 45.10 85.76 43.23 91.36 43.61 97.08 C 43.65 100.44 44.81 103.62 45.59 106.85 C 41.52 103.81 40.86 98.65 41.27 93.93 Z" />
<path fill="#fefefe" opacity="1.00" d=" M 118.72 89.37 C 120.59 88.06 122.60 86.96 124.72 86.10 C 124.55 87.25 124.37 88.39 124.19 89.54 C 122.37 89.61 120.54 89.59 118.72 89.37 Z" />
<path fill="#fefefe" opacity="1.00" d=" M 67.41 102.07 C 67.26 99.04 70.15 96.86 72.90 96.45 C 76.38 95.65 78.83 98.68 81.34 100.50 C 83.88 105.19 87.12 109.42 90.20 113.76 C 88.31 113.53 86.44 113.16 84.64 112.53 C 84.64 111.23 84.64 109.93 84.62 108.64 C 83.63 108.21 82.65 107.79 81.66 107.37 C 79.74 104.92 78.35 102.00 75.92 99.99 C 74.43 99.48 72.79 99.72 71.24 99.58 C 70.86 101.04 70.59 102.52 70.41 104.02 C 70.80 102.70 71.17 101.38 71.51 100.05 C 72.42 100.11 74.23 100.24 75.13 100.31 C 76.09 102.12 77.75 103.69 77.92 105.83 C 76.49 107.50 74.83 109.10 74.47 111.38 C 76.05 113.11 77.80 114.65 79.70 116.02 C 77.69 113.90 74.60 111.00 77.06 108.00 C 79.27 105.80 81.27 109.09 83.34 109.92 C 83.39 111.11 83.50 112.31 83.66 113.50 C 85.10 115.31 87.96 114.00 89.64 115.39 C 90.01 116.86 89.67 118.39 89.66 119.89 C 90.77 118.64 91.58 117.16 91.64 115.43 C 92.63 116.50 93.60 117.60 94.55 118.71 C 95.00 121.49 92.97 123.66 91.18 125.46 C 90.11 123.68 88.03 124.24 86.35 124.42 C 82.30 121.07 76.86 119.69 73.47 115.53 C 70.01 111.91 67.60 107.11 67.41 102.07 M 87.44 121.44 C 87.43 121.97 87.41 123.02 87.40 123.55 C 88.53 124.26 89.48 124.10 90.25 123.06 C 90.52 121.65 88.52 120.52 87.44 121.44 Z" />
<path fill="#fefefe" opacity="1.00" d=" M 96.02 119.46 C 99.76 120.22 103.58 120.17 107.37 120.48 C 110.21 123.81 106.23 126.97 104.78 129.86 C 102.15 126.86 99.96 123.48 97.15 120.62 C 96.87 120.33 96.30 119.75 96.02 119.46 Z" />
<path fill="#fefefe" opacity="1.00" d=" M 154.83 128.33 C 158.62 126.28 163.22 126.23 166.64 123.41 C 166.90 125.27 165.62 126.47 164.09 127.26 C 161.07 128.10 157.98 128.80 154.83 128.33 Z" />
<path fill="#fefefe" opacity="1.00" d=" M 50.32 126.25 C 50.24 127.64 50.20 129.03 50.18 130.42 C 49.63 131.27 49.06 132.12 48.48 132.95 C 48.00 130.48 49.15 128.32 50.32 126.25 Z" />
<path fill="#fefefe" opacity="1.00" d=" M 158.67 129.60 C 159.00 129.61 159.65 129.64 159.98 129.66 C 160.94 130.40 161.90 131.15 162.85 131.91 C 161.50 132.09 160.15 132.26 158.81 132.42 C 158.77 131.72 158.71 130.30 158.67 129.60 Z" />
<path fill="#fefefe" opacity="1.00" d=" M 92.04 139.09 C 92.90 136.74 94.10 134.55 95.38 132.42 C 96.54 138.18 96.80 144.18 95.40 149.93 C 94.35 148.08 93.37 146.20 92.43 144.29 C 91.89 142.61 91.39 140.81 92.04 139.09 Z" />
<path fill="#fefefe" opacity="1.00" d=" M 25.10 158.55 C 29.81 156.83 34.85 157.33 39.75 157.22 C 40.01 168.96 38.29 180.60 37.31 192.27 C 35.98 201.48 36.09 210.85 34.35 220.00 L 4.62 220.00 C 4.53 214.63 4.98 209.28 5.14 203.92 C 5.34 201.66 5.42 199.39 5.33 197.13 C 8.08 185.63 11.11 173.87 17.96 164.04 C 19.77 161.57 22.47 160.00 25.10 158.55 Z" />
<path fill="#fefefe" opacity="1.00" d=" M 65.77 180.43 C 64.08 173.76 62.90 166.88 63.50 159.97 C 63.49 166.78 64.05 173.69 66.35 180.16 C 72.95 182.64 72.79 191.28 72.49 197.12 C 71.40 194.37 70.62 191.50 69.25 188.86 C 68.52 187.18 68.59 185.02 66.91 183.93 C 66.78 182.76 66.68 181.58 66.59 180.41 L 65.77 180.43 Z" />
<path fill="#fefefe" opacity="1.00" d=" M 183.91 167.22 C 187.86 167.84 192.37 167.69 195.57 170.47 C 200.05 174.25 201.75 180.14 203.62 185.47 C 206.85 193.93 207.32 203.19 205.85 212.07 C 205.55 214.48 204.64 217.23 206.54 219.26 C 206.62 219.45 206.77 219.82 206.85 220.00 L 206.85 220.00 C 206.05 219.17 205.09 218.61 203.97 218.33 C 198.19 206.63 193.34 194.41 189.93 181.80 C 188.51 176.71 185.95 172.06 183.91 167.22 Z" />
<path fill="#fefefe" opacity="1.00" d=" M 86.45 177.16 C 90.05 180.34 93.04 185.03 91.44 190.01 C 90.32 186.15 88.63 182.50 87.18 178.76 C 87.00 178.36 86.63 177.56 86.45 177.16 Z" />
</g>
</svg>
