<?xml version="1.0" encoding="UTF-8" ?>
<!DOCTYPE svg PUBLIC "-//W3C//DTD SVG 1.1//EN" "http://www.w3.org/Graphics/SVG/1.1/DTD/svg11.dtd">
<svg width="320pt" height="240pt" viewBox="0 0 320 240" version="1.1" xmlns="http://www.w3.org/2000/svg">
<g id="#38754eff">
<path fill="#38754e" opacity="1.00" d=" M 0.00 0.00 L 19.21 0.00 C 19.52 1.17 19.87 2.35 19.91 3.57 C 13.18 5.03 7.12 10.01 0.00 9.19 L 0.00 0.00 Z" />
</g>
<g id="#3a5d4bff">
<path fill="#3a5d4b" opacity="1.00" d=" M 19.21 0.00 L 73.15 0.00 C 72.59 1.82 70.82 5.25 73.82 2.79 C 79.63 0.18 74.21 11.37 78.80 10.36 C 78.05 16.13 64.19 3.93 63.99 12.74 C 68.97 12.28 64.02 14.59 65.73 17.17 C 66.47 20.26 69.17 22.26 70.85 24.82 C 70.09 27.47 67.08 27.44 64.82 27.43 C 57.47 24.01 54.15 15.95 48.10 10.91 C 45.62 9.27 46.69 5.18 44.14 3.90 C 41.88 8.41 40.74 13.38 39.13 18.14 C 39.00 18.61 38.73 19.53 38.59 19.99 C 36.24 25.92 32.31 31.03 28.99 36.43 C 27.98 37.64 26.99 38.86 25.97 40.06 C 17.01 44.62 9.86 52.23 0.00 55.27 L 0.00 51.49 C 10.42 45.80 22.82 38.34 24.16 25.49 C 22.83 24.00 23.66 22.27 24.62 20.84 C 27.08 21.31 28.84 19.87 29.84 17.75 C 30.72 15.31 32.58 9.46 28.10 10.09 C 19.50 15.04 9.69 17.17 0.00 18.82 L 0.00 9.19 C 7.12 10.01 13.18 5.03 19.91 3.57 C 19.87 2.35 19.52 1.17 19.21 0.00 Z" />
</g>
<g id="#4e8263ff">
<path fill="#4e8263" opacity="1.00" d=" M 73.15 0.00 L 84.84 0.00 C 87.18 1.74 86.98 4.40 86.04 6.86 C 89.05 5.01 94.96 1.88 92.02 7.83 C 94.47 5.89 102.54 6.22 98.04 10.15 C 105.97 4.56 115.27 6.82 124.14 4.10 C 126.32 3.39 123.28 5.41 122.98 5.95 C 110.55 14.03 94.55 14.09 80.28 13.18 C 78.03 14.80 77.00 17.43 75.86 19.84 C 70.04 21.50 72.88 22.38 78.08 22.81 C 78.81 24.70 79.36 26.69 78.43 28.62 C 81.98 31.76 87.74 32.84 89.33 37.75 C 91.38 38.86 93.73 39.23 95.99 39.70 C 100.26 40.33 104.32 41.88 108.19 43.75 C 107.65 43.83 106.58 43.97 106.05 44.04 C 105.27 44.05 103.72 44.06 102.94 44.07 C 100.23 44.08 97.52 44.09 94.81 44.12 C 85.78 41.25 77.38 35.18 67.86 35.17 C 68.16 32.24 66.92 29.82 64.67 27.97 L 64.82 27.43 C 67.08 27.44 70.09 27.47 70.85 24.82 C 69.17 22.26 66.47 20.26 65.73 17.17 C 64.02 14.59 68.97 12.28 63.99 12.74 C 64.19 3.93 78.05 16.13 78.80 10.36 C 74.21 11.37 79.63 0.18 73.82 2.79 C 70.82 5.25 72.59 1.82 73.15 0.00 Z" />
</g>
<g id="#569e6dff">
<path fill="#569e6d" opacity="1.00" d=" M 84.84 0.00 L 131.21 0.00 C 131.00 2.30 130.68 4.60 129.91 6.79 C 127.60 6.48 125.29 6.20 122.98 5.95 C 123.28 5.41 126.32 3.39 124.14 4.10 C 115.27 6.82 105.97 4.56 98.04 10.15 C 102.54 6.22 94.47 5.89 92.02 7.83 C 94.96 1.88 89.05 5.01 86.04 6.86 C 86.98 4.40 87.18 1.74 84.84 0.00 Z" />
</g>
<g id="#babfc9ff">
<path fill="#babfc9" opacity="1.00" d=" M 131.21 0.00 L 133.63 0.00 C 135.46 6.40 142.83 8.21 148.74 7.77 C 149.37 5.21 149.81 2.61 150.20 0.00 L 153.00 0.00 C 152.88 3.01 152.58 6.03 152.82 9.04 C 150.63 10.12 148.09 10.05 145.77 10.67 C 140.63 11.97 135.43 10.95 130.27 10.47 C 128.09 10.21 129.77 8.08 129.91 6.79 C 130.68 4.60 131.00 2.30 131.21 0.00 Z" />
</g>
<g id="#60a574ff">
<path fill="#60a574" opacity="1.00" d=" M 133.63 0.00 L 150.20 0.00 C 149.81 2.61 149.37 5.21 148.74 7.77 C 142.83 8.21 135.46 6.40 133.63 0.00 Z" />
</g>
<g id="#64ae78ff">
<path fill="#64ae78" opacity="1.00" d=" M 153.00 0.00 L 202.49 0.00 C 203.47 2.91 205.73 5.05 207.80 7.21 C 218.85 16.77 223.39 31.21 227.19 44.82 C 222.33 48.03 216.13 43.66 210.62 45.52 C 208.86 45.78 206.22 45.66 207.84 48.01 L 207.05 48.40 C 202.14 41.54 209.10 32.08 204.35 24.96 C 205.64 22.39 207.07 16.16 203.17 16.13 C 201.48 22.97 203.13 30.88 202.94 38.15 C 197.99 38.96 195.23 33.44 195.68 29.20 C 193.67 24.03 187.60 22.37 185.54 17.31 C 177.07 17.86 167.46 19.30 160.29 13.60 C 159.34 9.88 165.44 11.35 168.06 10.48 C 179.45 8.82 191.28 10.48 202.69 8.01 C 202.23 11.34 200.43 16.03 205.09 14.62 C 205.31 11.11 204.91 7.61 203.93 4.25 C 201.65 6.31 199.26 5.67 197.03 3.97 C 191.87 6.83 185.69 4.97 180.07 5.57 C 176.86 5.48 173.12 8.75 170.76 5.23 C 166.06 -0.72 160.55 9.39 154.73 8.10 C 154.25 8.33 153.30 8.80 152.82 9.04 C 152.58 6.03 152.88 3.01 153.00 0.00 Z" />
</g>
<g id="#629645ff">
<path fill="#629645" opacity="1.00" d=" M 202.49 0.00 L 207.80 0.00 C 206.64 5.89 212.90 7.34 216.54 10.47 C 219.36 13.63 219.95 18.18 222.83 21.28 C 223.01 19.46 223.12 17.63 223.16 15.80 C 225.00 25.83 229.25 35.21 231.36 45.15 C 230.37 45.95 229.32 46.67 228.27 47.39 C 228.07 46.99 227.68 46.18 227.49 45.78 L 227.19 44.82 C 223.39 31.21 218.85 16.77 207.80 7.21 C 205.73 5.05 203.47 2.91 202.49 0.00 Z" />
</g>
<g id="#466938ff">
<path fill="#466938" opacity="1.00" d=" M 207.80 0.00 L 214.81 0.00 C 215.96 6.15 221.84 9.63 223.16 15.80 C 223.12 17.63 223.01 19.46 222.83 21.28 C 219.95 18.18 219.36 13.63 216.54 10.47 C 212.90 7.34 206.64 5.89 207.80 0.00 Z" />
</g>
<g id="#579f68ff">
<path fill="#579f68" opacity="1.00" d=" M 214.81 0.00 L 236.69 0.00 C 236.94 3.71 245.76 13.43 239.16 10.95 C 243.16 16.09 236.75 22.45 241.12 27.59 C 242.58 33.21 236.42 31.10 238.52 35.40 C 239.78 39.15 236.26 34.99 235.19 33.97 C 235.94 37.69 233.39 41.08 235.02 44.92 C 234.01 42.80 232.63 44.06 231.36 45.15 C 229.25 35.21 225.00 25.83 223.16 15.80 C 221.84 9.63 215.96 6.15 214.81 0.00 Z" />
</g>
<g id="#426a53ff">
<path fill="#426a53" opacity="1.00" d=" M 236.69 0.00 L 240.83 0.00 C 242.64 4.23 244.51 8.46 245.55 12.96 C 246.18 18.24 246.87 23.59 245.50 28.84 C 245.69 35.65 242.09 31.53 241.12 27.59 C 236.75 22.45 243.16 16.09 239.16 10.95 C 245.76 13.43 236.94 3.71 236.69 0.00 Z" />
</g>
<g id="#4b8a5cff">
<path fill="#4b8a5c" opacity="1.00" d=" M 240.83 0.00 L 264.78 0.00 C 268.27 4.70 266.60 9.93 266.10 14.90 C 263.02 15.52 256.84 11.77 256.76 16.70 C 254.68 15.12 249.57 13.35 251.10 17.81 C 255.01 18.56 258.99 18.81 262.96 19.19 C 263.78 20.39 268.14 24.50 264.68 23.34 C 261.61 22.08 264.58 25.50 264.87 26.85 C 259.59 24.46 262.36 35.22 257.07 33.57 C 256.71 35.62 256.37 37.68 256.06 39.74 C 254.48 41.92 248.93 44.99 249.92 39.92 C 250.59 30.81 247.24 21.98 248.98 12.93 C 249.60 10.62 246.53 12.87 245.55 12.96 C 244.51 8.46 242.64 4.23 240.83 0.00 Z" />
</g>
<g id="#3e634eff">
<path fill="#3e634e" opacity="1.00" d=" M 264.78 0.00 L 270.09 0.00 C 269.32 2.72 268.92 5.57 270.22 8.21 C 270.66 11.22 270.93 14.26 271.62 17.22 C 271.72 17.68 271.92 18.59 272.01 19.05 C 272.13 22.57 272.23 26.16 271.06 29.53 C 268.68 34.72 265.25 39.31 261.37 43.47 C 258.20 45.05 256.99 42.30 256.06 39.74 C 256.37 37.68 256.71 35.62 257.07 33.57 C 262.36 35.22 259.59 24.46 264.87 26.85 C 264.58 25.50 261.61 22.08 264.68 23.34 C 268.14 24.50 263.78 20.39 262.96 19.19 C 265.32 19.64 267.13 16.93 266.10 14.90 C 266.60 9.93 268.27 4.70 264.78 0.00 Z" />
</g>
<g id="#7a9385ff">
<path fill="#7a9385" opacity="1.00" d=" M 270.09 0.00 L 272.14 0.00 C 271.92 2.87 272.76 6.26 270.22 8.21 C 268.92 5.57 269.32 2.72 270.09 0.00 Z" />
</g>
<g id="#3a7e51ff">
<path fill="#3a7e51" opacity="1.00" d=" M 272.14 0.00 L 320.00 0.00 L 320.00 15.03 C 316.37 13.23 312.68 15.05 308.99 15.48 C 296.68 15.43 284.32 15.80 272.15 14.14 C 272.02 14.91 271.75 16.45 271.62 17.22 C 270.93 14.26 270.66 11.22 270.22 8.21 C 272.76 6.26 271.92 2.87 272.14 0.00 Z" />
</g>
<g id="#aec0bfff">
<path fill="#aec0bf" opacity="1.00" d=" M 154.73 8.10 C 160.55 9.39 166.06 -0.72 170.76 5.23 C 173.12 8.75 176.86 5.48 180.07 5.57 C 185.69 4.97 191.87 6.83 197.03 3.97 C 199.26 5.67 201.65 6.31 203.93 4.25 C 204.91 7.61 205.31 11.11 205.09 14.62 C 200.43 16.03 202.23 11.34 202.69 8.01 C 191.28 10.48 179.45 8.82 168.06 10.48 C 164.19 9.04 156.63 12.51 154.73 8.10 Z" />
</g>
<g id="#49895bff">
<path fill="#49895b" opacity="1.00" d=" M 44.14 3.90 C 46.69 5.18 45.62 9.27 48.10 10.91 C 54.15 15.95 57.47 24.01 64.82 27.43 L 64.67 27.97 C 64.51 28.46 64.19 29.43 64.03 29.92 C 62.73 31.07 61.45 33.29 59.43 32.74 C 57.97 30.42 56.34 25.13 52.77 27.70 C 41.39 34.83 40.06 49.26 33.95 60.02 C 33.13 63.54 34.54 74.18 29.39 68.99 C 27.72 58.17 30.85 47.08 28.99 36.43 C 32.31 31.03 36.24 25.92 38.59 19.99 C 42.98 21.03 47.51 21.25 51.99 20.97 C 51.03 14.07 41.93 21.93 39.13 18.14 C 40.74 13.38 41.88 8.41 44.14 3.90 Z" />
</g>
<g id="#61ab76ff">
<path fill="#61ab76" opacity="1.00" d=" M 80.28 13.18 C 94.55 14.09 110.55 14.03 122.98 5.95 C 125.29 6.20 127.60 6.48 129.91 6.79 C 129.77 8.08 128.09 10.21 130.27 10.47 C 135.43 10.95 140.63 11.97 145.77 10.67 C 148.84 10.24 154.80 11.97 152.01 15.98 C 149.36 19.37 151.66 27.77 146.15 26.86 C 133.37 18.95 118.39 27.40 105.20 30.03 C 105.99 27.31 103.32 24.77 105.69 22.51 C 96.78 17.71 85.61 21.94 75.86 19.84 C 77.00 17.43 78.03 14.80 80.28 13.18 Z" />
</g>
<g id="#6bbb83ff">
<path fill="#6bbb83" opacity="1.00" d=" M 152.82 9.04 C 153.30 8.80 154.25 8.33 154.73 8.10 C 156.63 12.51 164.19 9.04 168.06 10.48 C 165.44 11.35 159.34 9.88 160.29 13.60 C 167.46 19.30 177.07 17.86 185.54 17.31 C 187.60 22.37 193.67 24.03 195.68 29.20 C 195.23 33.44 197.99 38.96 202.94 38.15 C 203.28 40.54 202.00 42.65 201.21 44.81 C 200.40 46.28 198.03 46.20 197.94 48.08 C 196.52 44.94 188.56 44.35 192.17 48.52 C 187.77 47.53 183.46 44.46 180.75 40.62 C 175.31 40.80 171.70 35.77 166.98 33.75 C 169.86 39.18 174.75 43.08 179.10 47.27 C 179.21 52.20 178.32 57.47 171.31 54.74 C 163.11 52.65 167.91 42.19 163.12 37.85 C 161.15 43.72 160.88 49.78 162.00 55.83 C 157.97 55.38 153.57 53.83 150.85 57.73 C 146.93 58.56 141.19 50.10 140.57 56.83 C 138.84 60.49 141.25 63.10 142.52 66.14 C 142.23 67.86 140.87 69.74 142.48 71.21 C 142.71 71.62 143.19 72.44 143.43 72.85 C 142.09 79.14 138.84 71.55 135.27 71.51 C 134.57 67.79 138.05 61.83 132.20 61.73 C 127.03 54.93 127.27 44.64 126.78 36.26 C 122.37 31.66 114.54 32.88 109.12 35.24 C 108.52 37.40 109.31 39.58 110.94 41.06 C 118.23 47.07 112.76 59.75 121.10 64.94 C 124.28 67.37 128.40 67.95 131.77 70.04 C 131.72 72.12 130.16 75.03 133.06 75.74 C 127.66 78.89 130.66 87.98 127.37 93.19 C 124.79 87.62 127.56 74.64 118.19 77.43 C 112.70 75.52 119.92 75.21 121.34 73.07 C 115.51 71.58 111.12 75.76 106.12 77.61 C 102.48 71.87 106.87 66.05 104.98 60.35 C 100.62 61.55 96.10 63.29 91.97 60.96 C 90.40 61.31 87.33 61.49 88.07 63.81 C 92.30 67.23 98.26 64.08 103.01 66.09 C 103.57 70.44 98.49 76.26 103.08 79.37 C 92.67 85.78 86.63 96.90 80.11 106.85 C 76.64 106.62 73.16 106.58 69.69 106.80 C 68.16 105.03 66.97 103.01 65.65 101.08 C 71.80 96.61 74.83 84.29 64.65 83.31 C 71.61 85.97 73.18 79.56 77.02 76.13 C 74.04 77.80 72.16 74.92 71.99 72.17 C 75.13 69.71 83.52 69.83 81.04 63.98 C 91.67 64.88 86.00 60.86 79.84 61.85 C 83.71 59.21 87.28 57.04 90.93 54.90 C 92.28 50.84 95.67 47.62 100.16 49.62 C 101.16 45.57 96.82 46.28 94.81 44.12 C 97.52 44.09 100.23 44.08 102.94 44.07 C 103.20 46.86 101.67 50.85 104.91 52.10 C 106.15 49.62 105.31 46.68 106.05 44.04 C 106.58 43.97 107.65 43.83 108.19 43.75 C 104.32 41.88 100.26 40.33 95.99 39.70 C 99.61 38.69 100.73 34.70 103.05 32.15 C 102.73 37.71 106.24 33.45 105.20 30.03 C 118.39 27.40 133.37 18.95 146.15 26.86 C 151.66 27.77 149.36 19.37 152.01 15.98 C 154.80 11.97 148.84 10.24 145.77 10.67 C 148.09 10.05 150.63 10.12 152.82 9.04 Z" />
</g>
<g id="#397b4eff">
<path fill="#397b4e" opacity="1.00" d=" M 0.00 18.82 C 9.69 17.17 19.50 15.04 28.10 10.09 C 32.58 9.46 30.72 15.31 29.84 17.75 C 27.49 17.71 25.33 18.35 24.62 20.84 C 23.66 22.27 22.83 24.00 24.16 25.49 C 22.82 38.34 10.42 45.80 0.00 51.49 L 0.00 18.82 Z" />
</g>
<g id="#9aafa6ff">
<path fill="#9aafa6" opacity="1.00" d=" M 245.55 12.96 C 246.53 12.87 249.60 10.62 248.98 12.93 C 247.24 21.98 250.59 30.81 249.92 39.92 C 248.93 40.59 247.93 41.26 246.94 41.92 C 247.98 38.25 246.73 34.52 246.28 30.87 C 246.09 30.36 245.70 29.34 245.50 28.84 C 246.87 23.59 246.18 18.24 245.55 12.96 Z" />
</g>
<g id="#89a397ff">
<path fill="#89a397" opacity="1.00" d=" M 256.76 16.70 C 256.84 11.77 263.02 15.52 266.10 14.90 C 267.13 16.93 265.32 19.64 262.96 19.19 C 258.99 18.81 255.01 18.56 251.10 17.81 C 249.57 13.35 254.68 15.12 256.76 16.70 Z" />
</g>
<g id="#809592ff">
<path fill="#809592" opacity="1.00" d=" M 272.15 14.14 C 284.32 15.80 296.68 15.43 308.99 15.48 C 312.68 15.05 316.37 13.23 320.00 15.03 L 320.00 19.08 C 314.80 18.45 309.55 18.15 304.35 17.66 C 303.17 17.04 302.51 18.06 301.85 18.87 C 291.92 18.84 281.89 17.64 272.01 19.05 C 271.92 18.59 271.72 17.68 271.62 17.22 C 271.75 16.45 272.02 14.91 272.15 14.14 Z" />
</g>
<g id="#aec3bdff">
<path fill="#aec3bd" opacity="1.00" d=" M 203.17 16.13 C 207.07 16.16 205.64 22.39 204.35 24.96 C 209.10 32.08 202.14 41.54 207.05 48.40 C 206.35 52.17 203.96 44.66 201.21 44.81 C 202.00 42.65 203.28 40.54 202.94 38.15 C 203.13 30.88 201.48 22.97 203.17 16.13 Z" />
</g>
<g id="#315344ff">
<path fill="#315344" opacity="1.00" d=" M 301.85 18.87 C 302.51 18.06 303.17 17.04 304.35 17.66 C 304.19 26.00 300.09 33.05 295.77 39.91 C 292.46 43.03 289.36 46.38 285.91 49.35 C 284.07 47.40 284.14 45.14 285.57 43.01 C 286.04 39.63 286.72 30.80 291.86 34.59 C 293.47 32.43 293.08 27.63 296.70 28.38 C 296.07 23.31 304.14 24.32 301.85 18.87 Z" />
</g>
<g id="#809891ff">
<path fill="#809891" opacity="1.00" d=" M 24.62 20.84 C 25.33 18.35 27.49 17.71 29.84 17.75 C 28.84 19.87 27.08 21.31 24.62 20.84 Z" />
</g>
<g id="#81a393ff">
<path fill="#81a393" opacity="1.00" d=" M 39.13 18.14 C 41.93 21.93 51.03 14.07 51.99 20.97 C 47.51 21.25 42.98 21.03 38.59 19.99 C 38.73 19.53 39.00 18.61 39.13 18.14 Z" />
</g>
<g id="#448455ff">
<path fill="#448455" opacity="1.00" d=" M 272.01 19.05 C 281.89 17.64 291.92 18.84 301.85 18.87 C 304.14 24.32 296.07 23.31 296.70 28.38 C 293.08 27.63 293.47 32.43 291.86 34.59 C 286.72 30.80 286.04 39.63 285.57 43.01 C 286.51 33.21 282.43 41.13 279.06 42.11 C 278.08 46.31 276.77 46.16 276.09 41.91 C 276.14 39.32 276.54 36.09 273.04 37.53 C 272.25 34.87 273.27 31.63 271.06 29.53 C 272.23 26.16 272.13 22.57 272.01 19.05 Z" />
</g>
<g id="#3c8051ff">
<path fill="#3c8051" opacity="1.00" d=" M 304.35 17.66 C 309.55 18.15 314.80 18.45 320.00 19.08 L 320.00 119.00 C 318.02 119.00 316.05 119.00 314.08 119.06 C 316.74 115.35 315.06 115.66 312.21 118.14 C 309.00 118.07 305.85 117.99 302.66 117.86 C 304.48 114.01 309.54 115.43 312.93 113.88 C 307.02 104.62 318.26 96.68 315.73 87.30 C 313.05 76.37 307.61 66.34 302.67 56.34 C 301.18 50.38 294.58 46.75 295.77 39.91 C 300.09 33.05 304.19 26.00 304.35 17.66 Z" />
</g>
<g id="#a5bfb8ff">
<path fill="#a5bfb8" opacity="1.00" d=" M 78.08 22.81 C 72.88 22.38 70.04 21.50 75.86 19.84 C 85.61 21.94 96.78 17.71 105.69 22.51 C 103.32 24.77 105.99 27.31 105.20 30.03 C 106.24 33.45 102.73 37.71 103.05 32.15 C 101.46 29.75 103.71 26.07 101.80 24.52 C 93.76 24.52 85.93 24.84 78.08 22.81 Z" />
</g>
<g id="#62a674ff">
<path fill="#62a674" opacity="1.00" d=" M 78.08 22.81 C 85.93 24.84 93.76 24.52 101.80 24.52 C 103.71 26.07 101.46 29.75 103.05 32.15 C 100.73 34.70 99.61 38.69 95.99 39.70 C 93.73 39.23 91.38 38.86 89.33 37.75 C 87.74 32.84 81.98 31.76 78.43 28.62 C 79.36 26.69 78.81 24.70 78.08 22.81 Z" />
</g>
<g id="#519665ff">
<path fill="#519665" opacity="1.00" d=" M 52.77 27.70 C 56.34 25.13 57.97 30.42 59.43 32.74 C 61.45 33.29 62.73 31.07 64.03 29.92 C 63.69 32.27 63.34 34.62 62.95 36.96 C 62.34 39.55 61.96 42.24 60.83 44.68 C 52.89 42.47 53.61 53.16 50.95 57.94 C 49.97 61.02 43.93 59.63 45.29 63.68 C 47.04 70.79 40.47 75.87 36.67 81.07 C 34.20 81.54 27.43 79.59 26.94 83.73 C 31.72 84.48 36.60 85.45 40.85 87.88 C 41.90 94.08 35.55 98.92 37.78 104.89 C 32.92 104.22 29.02 109.89 36.07 109.28 C 37.23 116.24 31.33 117.83 27.65 121.77 C 28.33 121.65 29.70 121.41 30.39 121.30 C 29.84 123.30 27.28 125.26 26.75 122.07 C 26.37 117.53 14.26 122.04 22.17 123.42 C 20.27 124.53 18.34 125.60 16.24 126.30 C 16.24 125.78 16.25 124.73 16.25 124.21 C 21.37 121.47 14.28 119.86 11.06 121.94 C 11.70 117.35 11.33 112.67 12.11 108.10 C 18.26 107.69 25.61 111.26 30.86 107.77 C 29.16 100.42 9.32 111.87 11.99 99.99 C 13.59 100.41 15.18 100.87 16.84 101.04 C 19.09 95.23 20.37 89.02 23.51 83.54 C 25.54 79.62 19.33 80.23 16.97 79.93 C 17.80 78.96 18.57 77.95 19.28 76.89 C 19.64 76.76 20.37 76.51 20.73 76.38 C 20.90 79.67 24.65 79.61 27.08 80.72 C 29.52 77.33 28.76 72.92 29.39 68.99 C 34.54 74.18 33.13 63.54 33.95 60.02 C 40.06 49.26 41.39 34.83 52.77 27.70 Z" />
</g>
<g id="#aab7b9ff">
<path fill="#aab7b9" opacity="1.00" d=" M 64.03 29.92 C 64.19 29.43 64.51 28.46 64.67 27.97 C 66.92 29.82 68.16 32.24 67.86 35.17 C 67.94 43.70 72.82 55.29 65.15 61.31 C 64.58 56.57 63.00 50.74 66.95 46.95 C 63.71 44.46 61.96 41.46 62.95 36.96 C 63.34 34.62 63.69 32.27 64.03 29.92 Z" />
</g>
<g id="#517b63ff">
<path fill="#517b63" opacity="1.00" d=" M 238.52 35.40 C 236.42 31.10 242.58 33.21 241.12 27.59 C 242.09 31.53 245.69 35.65 245.50 28.84 C 245.70 29.34 246.09 30.36 246.28 30.87 C 245.36 35.13 243.94 39.44 241.21 42.91 C 240.80 43.47 239.98 44.59 239.57 45.15 C 236.80 49.66 244.92 47.56 244.73 44.00 C 245.33 48.75 246.65 46.78 246.94 41.92 C 247.93 41.26 248.93 40.59 249.92 39.92 C 248.93 44.99 254.48 41.92 256.06 39.74 C 256.99 42.30 258.20 45.05 261.37 43.47 C 258.54 47.53 252.01 48.97 250.89 54.14 C 253.89 52.08 259.16 49.12 261.98 53.04 C 262.16 55.96 261.14 58.69 260.14 61.38 C 255.43 63.19 249.20 61.53 245.80 65.87 C 252.19 62.32 254.22 71.23 259.82 69.85 C 262.89 67.92 261.24 70.08 260.13 71.85 C 262.98 71.86 265.83 71.67 268.63 71.14 C 267.36 74.43 271.64 71.34 273.19 72.84 C 275.78 74.04 270.31 75.55 271.85 77.40 C 268.97 79.88 266.52 82.83 271.19 84.86 C 268.40 84.32 265.63 83.71 262.85 83.15 C 258.98 82.43 255.43 80.74 251.87 79.16 C 250.19 78.43 248.56 77.61 246.97 76.71 C 241.64 73.22 235.74 70.19 231.95 64.89 C 231.25 70.62 231.19 76.39 230.95 82.15 C 225.63 83.09 224.58 76.80 226.90 73.25 C 222.86 72.71 223.66 67.24 220.09 66.02 C 218.85 66.03 217.62 66.09 216.40 66.21 C 219.17 62.38 217.26 60.39 213.00 60.01 C 216.16 54.98 221.19 48.74 227.82 50.72 C 228.00 49.62 228.14 48.51 228.27 47.39 C 229.32 46.67 230.37 45.95 231.36 45.15 C 232.63 44.06 234.01 42.80 235.02 44.92 C 233.39 41.08 235.94 37.69 235.19 33.97 C 236.26 34.99 239.78 39.15 238.52 35.40 M 227.22 53.12 C 224.57 56.42 226.35 61.21 230.78 60.89 C 234.24 58.22 232.12 50.97 227.22 53.12 M 224.12 59.15 C 220.96 61.61 223.00 66.40 226.79 65.94 C 229.13 63.32 226.46 60.38 224.12 59.15 Z" />
</g>
<g id="#519163ff">
<path fill="#519163" opacity="1.00" d=" M 261.37 43.47 C 265.25 39.31 268.68 34.72 271.06 29.53 C 273.27 31.63 272.25 34.87 273.04 37.53 C 276.54 36.09 276.14 39.32 276.09 41.91 C 272.38 47.02 263.25 46.40 261.98 53.04 C 259.16 49.12 253.89 52.08 250.89 54.14 C 252.01 48.97 258.54 47.53 261.37 43.47 Z" />
</g>
<g id="#6b9b78ff">
<path fill="#6b9b78" opacity="1.00" d=" M 246.28 30.87 C 246.73 34.52 247.98 38.25 246.94 41.92 C 246.65 46.78 245.33 48.75 244.73 44.00 C 244.92 47.56 236.80 49.66 239.57 45.15 C 242.61 47.77 244.85 43.55 241.21 42.91 C 243.94 39.44 245.36 35.13 246.28 30.87 Z" />
</g>
<g id="#77c38eff">
<path fill="#77c38e" opacity="1.00" d=" M 109.12 35.24 C 114.54 32.88 122.37 31.66 126.78 36.26 C 127.27 44.64 127.03 54.93 132.20 61.73 C 138.05 61.83 134.57 67.79 135.27 71.51 C 138.84 71.55 142.09 79.14 143.43 72.85 C 144.63 74.61 145.02 77.64 147.83 76.99 C 149.90 73.83 144.19 77.06 146.33 74.31 C 146.62 71.26 151.19 72.91 151.00 69.81 C 153.55 71.16 158.88 71.92 159.12 67.98 C 155.95 66.64 153.40 68.28 151.00 69.81 C 147.83 69.10 143.27 66.23 142.48 71.21 C 140.87 69.74 142.23 67.86 142.52 66.14 C 141.25 63.10 138.84 60.49 140.57 56.83 C 140.70 60.58 143.85 63.13 144.46 66.76 C 148.50 68.53 146.34 63.63 146.38 61.01 C 152.30 59.17 160.56 63.28 165.33 58.09 C 160.52 57.73 155.56 59.14 150.85 57.73 C 153.57 53.83 157.97 55.38 162.00 55.83 C 160.88 49.78 161.15 43.72 163.12 37.85 C 167.91 42.19 163.11 52.65 171.31 54.74 C 178.32 57.47 179.21 52.20 179.10 47.27 C 180.08 48.01 181.08 48.72 181.98 49.56 C 180.25 57.50 172.94 58.34 165.89 57.05 C 166.49 62.35 174.37 58.79 178.09 59.05 C 180.68 56.22 186.73 63.66 181.63 61.40 C 179.90 60.82 182.04 63.67 181.96 64.48 C 178.26 64.34 169.09 60.73 169.93 66.89 C 167.30 67.83 158.56 66.30 161.95 70.08 C 165.04 73.94 169.27 68.02 172.81 70.21 C 174.40 71.44 175.94 69.73 177.35 69.06 C 178.92 69.53 180.48 70.02 182.04 70.52 C 181.67 72.29 181.37 74.06 181.01 75.83 C 179.69 75.88 178.38 75.97 177.08 76.09 C 174.32 77.72 176.53 84.04 175.37 87.19 C 172.56 82.66 172.90 73.36 165.01 75.96 C 160.62 74.91 162.71 81.74 163.97 84.01 C 164.03 89.42 163.95 94.83 164.19 100.24 C 162.22 105.95 163.80 108.20 168.92 106.99 C 169.17 100.57 168.70 94.13 169.20 87.72 C 174.67 93.61 171.37 109.81 182.85 106.98 C 182.93 105.64 182.97 104.30 182.99 102.96 C 184.27 102.53 185.57 102.14 186.88 101.79 C 193.76 104.01 188.76 115.21 198.08 112.20 C 201.09 118.59 200.59 125.56 200.60 132.38 C 200.56 134.83 202.60 133.50 203.98 133.06 C 203.40 136.72 203.20 140.03 207.16 138.36 C 206.01 145.70 203.42 152.75 202.10 160.07 C 205.12 160.05 210.10 161.42 208.97 156.89 C 212.84 154.85 213.83 156.90 211.66 160.28 C 215.31 162.91 210.71 166.21 213.30 169.24 C 212.54 170.82 211.37 172.24 211.18 174.05 C 205.39 169.87 197.62 172.02 190.90 170.86 C 191.52 167.08 192.60 163.13 197.24 163.30 C 197.93 163.20 199.30 163.00 199.98 162.90 C 201.69 162.87 201.87 154.47 199.96 154.05 C 199.26 154.06 197.85 154.10 197.14 154.11 C 198.42 151.73 199.82 149.42 201.11 147.05 C 197.43 148.61 193.98 151.17 192.87 155.21 C 186.49 157.48 192.80 144.63 191.24 141.03 C 192.12 138.96 194.05 134.99 190.87 134.11 C 188.58 133.26 183.75 131.44 185.23 135.71 C 185.33 142.54 184.11 149.55 185.63 156.30 C 185.81 157.95 186.18 161.26 186.36 162.91 C 186.68 165.85 185.27 168.55 184.02 171.10 C 181.73 171.29 179.43 171.33 177.18 171.77 C 179.22 167.18 173.30 164.70 173.94 160.03 C 172.62 154.65 171.61 149.20 170.70 143.74 C 169.83 144.79 169.04 145.90 168.28 147.03 C 167.56 146.10 166.84 145.18 166.12 144.26 C 166.42 142.77 167.01 139.78 167.30 138.29 C 167.46 135.78 167.79 130.77 167.95 128.26 C 160.79 126.45 147.60 124.28 149.96 135.99 C 148.98 136.39 148.00 136.78 147.02 137.16 L 146.01 137.03 C 145.99 135.69 145.98 134.36 145.99 133.02 L 146.25 132.20 C 148.27 126.81 148.35 120.86 147.90 115.19 C 146.10 113.42 141.08 112.05 145.04 118.96 C 145.32 123.30 144.64 127.59 143.95 131.85 C 141.70 131.61 140.60 132.68 140.87 134.93 C 134.64 133.50 134.49 140.95 140.97 139.08 C 140.99 141.72 141.00 144.36 140.99 147.00 C 130.29 150.78 136.82 137.10 134.88 132.00 C 132.17 132.19 127.03 130.45 127.85 134.85 C 126.92 135.21 125.99 135.56 125.05 135.92 C 118.66 129.52 111.14 124.11 102.39 121.48 C 99.78 121.17 102.04 118.75 102.30 117.29 C 104.17 113.79 98.27 113.03 97.85 109.86 C 102.64 112.55 110.94 118.76 113.99 113.20 C 118.58 115.64 116.39 110.44 121.12 112.92 C 116.90 106.75 122.54 110.39 126.29 111.89 C 125.41 110.12 124.19 108.56 123.01 106.99 C 122.62 100.59 121.63 94.19 122.05 87.77 C 124.97 93.82 123.73 101.52 126.23 107.95 C 132.56 107.20 127.68 95.89 132.78 93.75 C 133.64 99.57 126.21 111.71 138.03 108.06 C 138.75 110.61 136.18 109.21 134.78 109.20 C 136.46 112.08 139.39 110.99 142.00 110.81 C 150.48 113.22 144.75 99.95 153.81 104.02 C 151.13 111.75 156.87 111.53 162.00 110.93 C 161.98 100.90 159.58 91.07 158.76 81.10 C 153.84 80.98 148.93 80.76 144.02 81.06 C 140.69 80.91 143.76 86.72 142.99 88.89 C 141.33 88.95 139.66 88.99 138.00 89.03 C 137.14 84.04 141.38 73.98 133.06 75.74 C 130.16 75.03 131.72 72.12 131.77 70.04 C 128.40 67.95 124.28 67.37 121.10 64.94 C 112.76 59.75 118.23 47.07 110.94 41.06 C 109.31 39.58 108.52 37.40 109.12 35.24 Z" />
</g>
<g id="#5c9372ff">
<path fill="#5c9372" opacity="1.00" d=" M 166.98 33.75 C 171.70 35.77 175.31 40.80 180.75 40.62 C 183.46 44.46 187.77 47.53 192.17 48.52 C 194.15 48.83 198.39 50.37 197.94 48.08 C 198.03 46.20 200.40 46.28 201.21 44.81 C 203.96 44.66 206.35 52.17 207.05 48.40 L 207.84 48.01 C 213.43 51.53 223.57 51.51 227.49 45.78 C 227.68 46.18 228.07 46.99 228.27 47.39 C 228.14 48.51 228.00 49.62 227.82 50.72 C 221.19 48.74 216.16 54.98 213.00 60.01 C 217.26 60.39 219.17 62.38 216.40 66.21 C 206.56 69.72 194.68 71.81 183.84 71.01 C 183.39 70.89 182.49 70.65 182.04 70.52 C 180.48 70.02 178.92 69.53 177.35 69.06 C 175.02 67.90 172.57 66.94 169.93 66.89 C 169.09 60.73 178.26 64.34 181.96 64.48 C 183.15 64.48 184.35 64.39 185.54 64.25 C 190.37 66.49 188.42 61.39 192.20 64.38 C 194.73 62.35 199.21 60.69 200.58 64.89 C 202.06 62.83 202.92 60.40 203.95 58.09 C 197.48 57.18 191.08 55.77 185.11 53.00 C 184.14 51.79 183.13 50.60 181.98 49.56 C 181.08 48.72 180.08 48.01 179.10 47.27 C 174.75 43.08 169.86 39.18 166.98 33.75 Z" />
</g>
<g id="#62ae77ff">
<path fill="#62ae77" opacity="1.00" d=" M 67.86 35.17 C 77.38 35.18 85.78 41.25 94.81 44.12 C 96.82 46.28 101.16 45.57 100.16 49.62 C 95.67 47.62 92.28 50.84 90.93 54.90 C 87.28 57.04 83.71 59.21 79.84 61.85 C 77.19 61.71 74.56 61.33 71.91 61.17 C 72.57 64.82 78.12 63.20 81.04 63.98 C 83.52 69.83 75.13 69.71 71.99 72.17 C 72.16 74.92 74.04 77.80 77.02 76.13 C 73.18 79.56 71.61 85.97 64.65 83.31 C 74.83 84.29 71.80 96.61 65.65 101.08 C 61.42 94.62 55.02 90.43 48.76 86.18 C 47.51 79.60 59.12 77.95 59.72 70.84 C 59.68 65.35 66.25 68.95 69.15 65.89 C 67.99 64.23 65.64 63.33 65.15 61.31 C 72.82 55.29 67.94 43.70 67.86 35.17 Z" />
</g>
<g id="#8ea09fff">
<path fill="#8ea09f" opacity="1.00" d=" M 25.97 40.06 C 26.99 38.86 27.98 37.64 28.99 36.43 C 30.85 47.08 27.72 58.17 29.39 68.99 C 28.76 72.92 29.52 77.33 27.08 80.72 C 24.65 79.61 20.90 79.67 20.73 76.38 C 23.80 79.30 26.96 75.23 25.53 72.01 C 23.97 69.05 29.52 66.94 26.30 64.71 C 23.59 61.81 26.84 57.80 27.10 54.39 C 26.29 49.63 26.97 44.80 25.97 40.06 Z" />
</g>
<g id="#59a26cff">
<path fill="#59a26c" opacity="1.00" d=" M 60.83 44.68 C 61.96 42.24 62.34 39.55 62.95 36.96 C 61.96 41.46 63.71 44.46 66.95 46.95 C 63.00 50.74 64.58 56.57 65.15 61.31 C 65.64 63.33 67.99 64.23 69.15 65.89 C 66.25 68.95 59.68 65.35 59.72 70.84 C 59.12 77.95 47.51 79.60 48.76 86.18 C 45.25 83.06 40.29 83.92 36.67 81.07 C 40.47 75.87 47.04 70.79 45.29 63.68 C 43.93 59.63 49.97 61.02 50.95 57.94 C 53.61 53.16 52.89 42.47 60.83 44.68 Z" />
</g>
<g id="#406653ff">
<path fill="#406653" opacity="1.00" d=" M 279.06 42.11 C 282.43 41.13 286.51 33.21 285.57 43.01 C 284.14 45.14 284.07 47.40 285.91 49.35 C 283.65 51.24 281.23 52.93 278.96 54.78 C 272.71 57.06 266.73 60.17 260.14 61.38 C 261.14 58.69 262.16 55.96 261.98 53.04 C 263.25 46.40 272.38 47.02 276.09 41.91 C 276.77 46.16 278.08 46.31 279.06 42.11 Z" />
</g>
<g id="#427f52ff">
<path fill="#427f52" opacity="1.00" d=" M 0.00 55.27 C 9.86 52.23 17.01 44.62 25.97 40.06 C 26.97 44.80 26.29 49.63 27.10 54.39 C 26.84 57.80 23.59 61.81 26.30 64.71 C 29.52 66.94 23.97 69.05 25.53 72.01 C 26.96 75.23 23.80 79.30 20.73 76.38 C 20.37 76.51 19.64 76.76 19.28 76.89 C 12.83 77.11 5.60 72.72 0.00 77.31 L 0.00 55.27 Z" />
</g>
<g id="#478b5bff">
<path fill="#478b5b" opacity="1.00" d=" M 285.91 49.35 C 289.36 46.38 292.46 43.03 295.77 39.91 C 294.58 46.75 301.18 50.38 302.67 56.34 C 307.61 66.34 313.05 76.37 315.73 87.30 C 318.26 96.68 307.02 104.62 312.93 113.88 C 309.54 115.43 304.48 114.01 302.66 117.86 C 301.42 117.90 300.18 117.94 298.94 117.98 C 302.30 109.63 293.83 102.43 296.78 94.00 C 295.79 91.22 294.71 88.56 296.77 85.79 C 298.88 84.96 301.03 84.20 303.14 83.34 C 300.15 83.69 298.86 81.93 298.42 79.30 C 295.85 80.11 293.40 79.70 291.54 77.66 C 288.20 78.52 284.97 80.04 281.44 79.90 C 283.12 75.73 276.41 81.31 278.82 77.08 C 280.07 72.98 282.60 67.95 278.38 64.63 C 274.37 62.33 278.58 58.06 278.96 54.78 C 281.23 52.93 283.65 51.24 285.91 49.35 Z" />
</g>
<g id="#a7c9beff">
<path fill="#a7c9be" opacity="1.00" d=" M 241.21 42.91 C 244.85 43.55 242.61 47.77 239.57 45.15 C 239.98 44.59 240.80 43.47 241.21 42.91 Z" />
</g>
<g id="#a0c6b1ff">
<path fill="#a0c6b1" opacity="1.00" d=" M 102.94 44.07 C 103.72 44.06 105.27 44.05 106.05 44.04 C 105.31 46.68 106.15 49.62 104.91 52.10 C 101.67 50.85 103.20 46.86 102.94 44.07 Z" />
</g>
<g id="#a7c7bcff">
<path fill="#a7c7bc" opacity="1.00" d=" M 210.62 45.52 C 216.13 43.66 222.33 48.03 227.19 44.82 L 227.49 45.78 C 223.57 51.51 213.43 51.53 207.84 48.01 C 206.22 45.66 208.86 45.78 210.62 45.52 Z" />
</g>
<g id="#a0c8b1ff">
<path fill="#a0c8b1" opacity="1.00" d=" M 192.17 48.52 C 188.56 44.35 196.52 44.94 197.94 48.08 C 198.39 50.37 194.15 48.83 192.17 48.52 Z" />
</g>
<g id="#acccbfff">
<path fill="#acccbf" opacity="1.00" d=" M 165.89 57.05 C 172.94 58.34 180.25 57.50 181.98 49.56 C 183.13 50.60 184.14 51.79 185.11 53.00 C 184.13 56.81 184.76 60.54 185.54 64.25 C 184.35 64.39 183.15 64.48 181.96 64.48 C 182.04 63.67 179.90 60.82 181.63 61.40 C 186.73 63.66 180.68 56.22 178.09 59.05 C 174.37 58.79 166.49 62.35 165.89 57.05 Z" />
</g>
<g id="#70ba85ff">
<path fill="#70ba85" opacity="1.00" d=" M 185.11 53.00 C 191.08 55.77 197.48 57.18 203.95 58.09 C 202.92 60.40 202.06 62.83 200.58 64.89 C 199.21 60.69 194.73 62.35 192.20 64.38 C 188.42 61.39 190.37 66.49 185.54 64.25 C 184.76 60.54 184.13 56.81 185.11 53.00 Z" />
</g>
<g id="#77a568ff">
<path fill="#77a568" opacity="1.00" d=" M 227.22 53.12 C 232.12 50.97 234.24 58.22 230.78 60.89 C 226.35 61.21 224.57 56.42 227.22 53.12 Z" />
</g>
<g id="#afcdc3ff">
<path fill="#afcdc3" opacity="1.00" d=" M 140.57 56.83 C 141.19 50.10 146.93 58.56 150.85 57.73 C 155.56 59.14 160.52 57.73 165.33 58.09 C 160.56 63.28 152.30 59.17 146.38 61.01 C 146.34 63.63 148.50 68.53 144.46 66.76 C 143.85 63.13 140.70 60.58 140.57 56.83 Z" />
</g>
<g id="#579a69ff">
<path fill="#579a69" opacity="1.00" d=" M 260.14 61.38 C 266.73 60.17 272.71 57.06 278.96 54.78 C 278.58 58.06 274.37 62.33 278.38 64.63 C 282.60 67.95 280.07 72.98 278.82 77.08 C 276.79 74.54 274.12 76.26 271.85 77.40 C 270.31 75.55 275.78 74.04 273.19 72.84 C 271.64 71.34 267.36 74.43 268.63 71.14 C 265.83 71.67 262.98 71.86 260.13 71.85 C 261.24 70.08 262.89 67.92 259.82 69.85 C 254.22 71.23 252.19 62.32 245.80 65.87 C 249.20 61.53 255.43 63.19 260.14 61.38 Z" />
</g>
<g id="#77a36eff">
<path fill="#77a36e" opacity="1.00" d=" M 224.12 59.15 C 226.46 60.38 229.13 63.32 226.79 65.94 C 223.00 66.40 220.96 61.61 224.12 59.15 Z" />
</g>
<g id="#b6c8c5ff">
<path fill="#b6c8c5" opacity="1.00" d=" M 91.97 60.96 C 96.10 63.29 100.62 61.55 104.98 60.35 C 106.87 66.05 102.48 71.87 106.12 77.61 C 105.11 78.20 104.10 78.79 103.08 79.37 C 98.49 76.26 103.57 70.44 103.01 66.09 C 98.26 64.08 92.30 67.23 88.07 63.81 C 87.33 61.49 90.40 61.31 91.97 60.96 Z" />
</g>
<g id="#98cbadff">
<path fill="#98cbad" opacity="1.00" d=" M 71.91 61.17 C 74.56 61.33 77.19 61.71 79.84 61.85 C 86.00 60.86 91.67 64.88 81.04 63.98 C 78.12 63.20 72.57 64.82 71.91 61.17 Z" />
</g>
<g id="#6bb67eff">
<path fill="#6bb67e" opacity="1.00" d=" M 231.95 64.89 C 235.74 70.19 241.64 73.22 246.97 76.71 C 240.68 78.32 245.97 84.54 244.68 88.80 C 239.82 88.93 234.97 88.46 230.14 87.99 C 230.51 86.06 230.89 84.12 230.95 82.15 C 231.19 76.39 231.25 70.62 231.95 64.89 Z" />
</g>
<g id="#71bf88ff">
<path fill="#71bf88" opacity="1.00" d=" M 216.40 66.21 C 217.62 66.09 218.85 66.03 220.09 66.02 C 217.58 68.33 216.44 73.29 212.76 73.52 C 212.51 77.28 204.93 77.79 204.93 82.99 C 197.29 80.37 197.73 84.16 199.45 88.81 C 199.58 92.96 196.26 88.77 194.63 87.87 C 198.62 80.02 191.73 79.80 186.98 81.89 C 186.04 78.50 187.56 73.17 183.84 71.01 C 194.68 71.81 206.56 69.72 216.40 66.21 Z" />
</g>
<g id="#588b6eff">
<path fill="#588b6e" opacity="1.00" d=" M 220.09 66.02 C 223.66 67.24 222.86 72.71 226.90 73.25 C 224.58 76.80 225.63 83.09 230.95 82.15 C 230.89 84.12 230.51 86.06 230.14 87.99 C 229.99 88.76 229.67 90.31 229.52 91.08 C 227.19 106.26 221.77 124.71 205.05 129.27 C 208.51 125.74 211.14 121.51 214.41 117.81 C 212.98 116.47 216.78 113.50 214.47 110.06 C 217.59 108.13 222.93 103.51 216.02 105.92 C 217.98 100.57 220.59 97.14 219.57 91.90 C 219.46 91.40 219.26 90.40 219.16 89.90 C 221.01 87.60 220.94 84.66 220.99 81.82 C 217.91 83.60 215.99 86.89 212.87 88.72 C 211.77 89.46 210.67 90.18 209.58 90.93 C 207.43 92.05 205.73 93.79 205.23 96.23 C 205.16 91.81 205.03 87.41 204.93 82.99 C 204.93 77.79 212.51 77.28 212.76 73.52 C 216.44 73.29 217.58 68.33 220.09 66.02 Z" />
</g>
<g id="#a7cdbaff">
<path fill="#a7cdba" opacity="1.00" d=" M 161.95 70.08 C 158.56 66.30 167.30 67.83 169.93 66.89 C 172.57 66.94 175.02 67.90 177.35 69.06 C 175.94 69.73 174.40 71.44 172.81 70.21 C 169.27 68.02 165.04 73.94 161.95 70.08 Z" />
</g>
<g id="#b7cbc7ff">
<path fill="#b7cbc7" opacity="1.00" d=" M 142.48 71.21 C 143.27 66.23 147.83 69.10 151.00 69.81 C 151.19 72.91 146.62 71.26 146.33 74.31 C 144.19 77.06 149.90 73.83 147.83 76.99 C 145.02 77.64 144.63 74.61 143.43 72.85 C 143.19 72.44 142.71 71.62 142.48 71.21 Z" />
</g>
<g id="#a4ceb6ff">
<path fill="#a4ceb6" opacity="1.00" d=" M 151.00 69.81 C 153.40 68.28 155.95 66.64 159.12 67.98 C 158.88 71.92 153.55 71.16 151.00 69.81 Z" />
</g>
<g id="#c2ccd8ff">
<path fill="#c2ccd8" opacity="1.00" d=" M 181.01 75.83 C 181.37 74.06 181.67 72.29 182.04 70.52 C 182.49 70.65 183.39 70.89 183.84 71.01 C 187.56 73.17 186.04 78.50 186.98 81.89 C 186.98 85.23 187.06 88.59 187.01 91.93 C 184.75 95.52 183.27 93.15 183.66 89.76 C 183.81 88.07 184.09 84.69 184.24 83.00 C 185.01 81.14 187.13 76.71 183.84 76.23 C 183.13 76.13 181.72 75.93 181.01 75.83 Z" />
</g>
<g id="#609070ff">
<path fill="#609070" opacity="1.00" d=" M 106.12 77.61 C 111.12 75.76 115.51 71.58 121.34 73.07 C 119.92 75.21 112.70 75.52 118.19 77.43 C 117.20 77.55 116.20 77.66 115.21 77.75 C 109.50 77.45 108.06 85.16 103.71 87.61 C 101.64 89.11 100.21 91.31 99.64 93.81 C 94.70 97.68 93.73 103.73 90.82 108.94 C 96.96 105.92 103.04 102.55 110.11 102.34 C 117.38 104.66 114.44 97.72 115.09 94.12 L 116.04 93.94 C 116.38 98.31 115.80 102.63 115.03 106.91 C 117.69 106.97 120.34 106.99 123.01 106.99 C 124.19 108.56 125.41 110.12 126.29 111.89 C 122.54 110.39 116.90 106.75 121.12 112.92 C 116.39 110.44 118.58 115.64 113.99 113.20 C 110.94 118.76 102.64 112.55 97.85 109.86 C 98.27 113.03 104.17 113.79 102.30 117.29 C 102.04 118.75 99.78 121.17 102.39 121.48 C 111.14 124.11 118.66 129.52 125.05 135.92 L 125.17 136.70 C 119.79 136.84 114.42 136.98 109.04 137.13 C 110.22 140.13 105.87 149.19 113.94 146.41 C 114.32 151.08 113.45 155.69 112.79 160.30 C 109.41 159.20 108.64 155.56 107.19 152.75 C 106.54 145.80 108.00 138.94 107.98 132.02 C 97.18 128.13 100.37 138.56 99.86 145.24 C 96.19 140.48 97.51 129.73 89.01 131.96 C 84.60 130.92 87.48 137.20 87.21 139.82 C 86.77 134.88 79.33 130.28 80.16 138.00 L 79.22 137.95 C 78.96 136.19 78.67 134.45 78.32 132.71 C 79.85 129.34 76.36 132.45 74.81 132.86 C 72.07 133.40 67.19 131.42 70.20 127.31 C 71.35 124.89 74.00 127.95 75.84 128.15 C 75.17 126.78 74.38 125.46 73.94 124.00 C 77.70 124.07 83.13 123.77 79.20 119.15 C 80.45 117.22 76.54 117.52 75.52 116.49 C 74.31 114.03 73.32 111.45 71.92 109.07 C 76.13 109.08 77.63 111.10 76.04 115.07 C 79.64 114.77 78.81 109.47 80.11 106.85 C 86.63 96.90 92.67 85.78 103.08 79.37 C 104.10 78.79 105.11 78.20 106.12 77.61 Z" />
</g>
<g id="#899a9aff">
<path fill="#899a9a" opacity="1.00" d=" M 0.00 77.31 C 5.60 72.72 12.83 77.11 19.28 76.89 C 18.57 77.95 17.80 78.96 16.97 79.93 C 15.56 79.85 14.15 79.68 12.74 79.52 C 9.60 78.73 14.21 86.57 10.00 84.99 C 13.17 77.90 4.37 79.10 0.00 80.15 L 0.00 77.31 Z" />
</g>
<g id="#406355ff">
<path fill="#406355" opacity="1.00" d=" M 271.85 77.40 C 274.12 76.26 276.79 74.54 278.82 77.08 C 276.41 81.31 283.12 75.73 281.44 79.90 C 284.97 80.04 288.20 78.52 291.54 77.66 C 293.40 79.70 295.85 80.11 298.42 79.30 C 298.86 81.93 300.15 83.69 303.14 83.34 C 301.03 84.20 298.88 84.96 296.77 85.79 C 292.14 85.94 287.54 86.01 282.92 86.08 C 278.96 86.06 275.05 85.71 271.19 84.86 C 266.52 82.83 268.97 79.88 271.85 77.40 Z" />
</g>
<g id="#0f1437ff">
<path fill="#0f1437" opacity="1.00" d=" M 127.37 93.19 C 130.66 87.98 127.66 78.89 133.06 75.74 C 141.38 73.98 137.14 84.04 138.00 89.03 C 137.99 90.64 138.05 92.26 138.20 93.87 L 138.27 94.73 C 138.16 99.17 138.14 103.61 138.03 108.06 C 126.21 111.71 133.64 99.57 132.78 93.75 C 127.68 95.89 132.56 107.20 126.23 107.95 C 123.73 101.52 124.97 93.82 122.05 87.77 C 121.63 94.19 122.62 100.59 123.01 106.99 C 120.34 106.99 117.69 106.97 115.03 106.91 C 115.80 102.63 116.38 98.31 116.04 93.94 C 116.05 92.65 116.03 91.35 115.98 90.06 C 115.88 85.95 115.35 81.86 115.21 77.75 C 116.20 77.66 117.20 77.55 118.19 77.43 C 127.56 74.64 124.79 87.62 127.37 93.19 Z" />
<path fill="#0f1437" opacity="1.00" d=" M 262.94 151.72 C 263.87 143.77 258.57 129.46 272.15 133.75 C 278.12 133.90 280.18 139.68 280.41 144.73 C 278.22 151.91 277.88 159.42 281.89 166.08 C 278.92 166.05 276.05 166.09 273.11 165.97 C 271.73 162.86 271.86 159.34 270.77 156.14 C 267.67 154.92 267.84 157.50 268.13 159.81 C 270.16 165.62 258.35 167.50 263.02 159.07 C 263.00 157.23 262.96 153.56 262.94 151.72 M 271.05 138.03 C 271.81 142.18 267.80 152.01 274.95 149.97 C 274.18 145.81 278.19 135.99 271.05 138.03 Z" />
</g>
<g id="#0c1136ff">
<path fill="#0c1136" opacity="1.00" d=" M 163.97 84.01 C 162.71 81.74 160.62 74.91 165.01 75.96 C 172.90 73.36 172.56 82.66 175.37 87.19 C 178.18 95.22 176.57 79.71 177.08 76.09 C 178.38 75.97 179.69 75.88 181.01 75.83 C 181.72 75.93 183.13 76.13 183.84 76.23 C 183.94 77.92 184.14 81.31 184.24 83.00 C 184.09 84.69 183.81 88.07 183.66 89.76 C 183.21 94.14 182.99 98.55 182.99 102.96 C 182.97 104.30 182.93 105.64 182.85 106.98 C 171.37 109.81 174.67 93.61 169.20 87.72 C 168.70 94.13 169.17 100.57 168.92 106.99 C 163.80 108.20 162.22 105.95 164.19 100.24 C 164.49 94.99 166.38 88.98 163.97 84.01 Z" />
</g>
<g id="#548b71ff">
<path fill="#548b71" opacity="1.00" d=" M 175.37 87.19 C 176.53 84.04 174.32 77.72 177.08 76.09 C 176.57 79.71 178.18 95.22 175.37 87.19 Z" />
</g>
<g id="#8387a2ff">
<path fill="#8387a2" opacity="1.00" d=" M 183.84 76.23 C 187.13 76.71 185.01 81.14 184.24 83.00 C 184.14 81.31 183.94 77.92 183.84 76.23 Z" />
</g>
<g id="#75c38bff">
<path fill="#75c38b" opacity="1.00" d=" M 103.71 87.61 C 108.06 85.16 109.50 77.45 115.21 77.75 C 115.35 81.86 115.88 85.95 115.98 90.06 C 111.67 89.76 105.90 92.85 103.71 87.61 Z" />
</g>
<g id="#bcc7c9ff">
<path fill="#bcc7c9" opacity="1.00" d=" M 244.68 88.80 C 245.97 84.54 240.68 78.32 246.97 76.71 C 248.56 77.61 250.19 78.43 251.87 79.16 C 246.38 83.35 249.46 91.34 244.96 96.09 C 243.17 88.93 234.69 92.81 229.52 91.08 C 229.67 90.31 229.99 88.76 230.14 87.99 C 234.97 88.46 239.82 88.93 244.68 88.80 Z" />
</g>
<g id="#458457ff">
<path fill="#458457" opacity="1.00" d=" M 0.00 80.15 C 4.37 79.10 13.17 77.90 10.00 84.99 C 14.21 86.57 9.60 78.73 12.74 79.52 C 14.15 79.68 15.56 79.85 16.97 79.93 C 19.33 80.23 25.54 79.62 23.51 83.54 C 20.37 89.02 19.09 95.23 16.84 101.04 C 15.18 100.87 13.59 100.41 11.99 99.99 C 11.45 91.93 9.54 105.97 9.29 107.39 C 9.51 112.62 8.18 118.48 10.21 123.68 C 12.26 123.43 14.39 122.99 16.25 124.21 C 16.25 124.73 16.24 125.78 16.24 126.30 C 12.04 130.57 4.18 132.18 2.86 138.50 C 4.54 138.57 6.23 138.60 7.91 138.67 C 7.74 144.84 10.62 157.30 0.00 154.09 L 0.00 80.15 M 10.05 86.02 C 10.52 88.60 7.54 95.19 11.95 93.98 C 11.48 91.40 14.46 84.80 10.05 86.02 Z" />
</g>
<g id="#67b37dff">
<path fill="#67b37d" opacity="1.00" d=" M 251.87 79.16 C 255.43 80.74 258.98 82.43 262.85 83.15 C 266.35 86.75 269.02 91.09 271.54 95.42 C 271.93 108.11 270.48 121.12 272.15 133.75 C 258.57 129.46 263.87 143.77 262.94 151.72 C 260.51 152.72 259.78 154.89 260.75 158.21 C 262.64 150.54 257.45 150.90 252.24 150.80 C 248.99 147.42 250.19 138.47 256.96 141.79 C 261.82 132.07 247.01 141.23 248.97 134.06 C 251.19 130.86 263.44 138.29 261.00 130.01 C 257.76 127.29 249.66 129.83 244.90 128.93 C 248.63 127.20 245.33 124.21 244.04 121.87 C 244.72 113.52 243.71 105.14 244.90 96.80 L 244.96 96.09 C 249.46 91.34 246.38 83.35 251.87 79.16 Z" />
</g>
<g id="#537d65ff">
<path fill="#537d65" opacity="1.00" d=" M 26.94 83.73 C 27.43 79.59 34.20 81.54 36.67 81.07 C 40.29 83.92 45.25 83.06 48.76 86.18 C 55.02 90.43 61.42 94.62 65.65 101.08 C 66.97 103.01 68.16 105.03 69.69 106.80 C 70.41 107.58 71.15 108.34 71.92 109.07 C 73.32 111.45 74.31 114.03 75.52 116.49 C 76.54 117.52 80.45 117.22 79.20 119.15 C 75.69 118.01 72.87 120.31 73.94 124.00 C 74.38 125.46 75.17 126.78 75.84 128.15 C 74.00 127.95 71.35 124.89 70.20 127.31 C 67.19 131.42 72.07 133.40 74.81 132.86 C 76.36 132.45 79.85 129.34 78.32 132.71 C 77.27 134.45 75.47 138.91 79.22 137.95 L 80.16 138.00 C 80.66 138.20 81.65 138.62 82.15 138.83 C 77.32 139.91 70.65 136.71 66.80 140.76 C 65.53 140.74 64.25 140.73 62.98 140.79 C 63.43 135.18 64.56 128.37 56.45 130.81 C 53.30 128.54 48.63 128.92 45.74 131.51 C 43.76 131.95 41.78 132.38 39.84 132.98 C 39.40 131.59 38.96 130.19 38.50 128.81 C 37.21 125.55 35.82 122.50 37.02 119.50 C 46.20 117.66 55.68 117.53 64.93 118.92 C 64.13 114.63 63.44 110.01 58.26 109.19 C 56.95 107.90 56.11 106.35 57.35 104.71 C 58.50 101.52 51.78 102.29 55.76 98.40 C 50.95 97.64 53.06 91.68 48.29 93.94 C 49.72 89.50 43.46 89.75 40.85 87.88 C 36.60 85.45 31.72 84.48 26.94 83.73 Z" />
</g>
<g id="#376350ff">
<path fill="#376350" opacity="1.00" d=" M 142.99 88.89 C 143.76 86.72 140.69 80.91 144.02 81.06 C 144.01 83.66 144.01 86.26 144.03 88.87 L 142.99 88.89 Z" />
</g>
<g id="#0d1135ff">
<path fill="#0d1135" opacity="1.00" d=" M 144.02 81.06 C 148.93 80.76 153.84 80.98 158.76 81.10 C 159.58 91.07 161.98 100.90 162.00 110.93 C 156.87 111.53 151.13 111.75 153.81 104.02 C 144.75 99.95 150.48 113.22 142.00 110.81 C 141.99 110.15 141.95 108.83 141.94 108.17 C 143.18 103.57 144.35 98.94 145.26 94.27 C 147.02 91.00 146.61 89.20 144.03 88.87 C 144.01 86.26 144.01 83.66 144.02 81.06 M 152.15 87.05 C 152.92 90.88 147.09 101.24 156.03 97.99 C 154.25 95.30 158.09 85.36 152.15 87.05 Z" />
<path fill="#0d1135" opacity="1.00" d=" M 186.98 81.89 C 191.73 79.80 198.62 80.02 194.63 87.87 C 193.90 91.92 193.22 95.98 193.03 100.10 C 191.99 105.11 202.25 102.30 200.05 97.81 C 200.07 94.79 200.24 91.74 199.45 88.81 C 197.73 84.16 197.29 80.37 204.93 82.99 C 205.03 87.41 205.16 91.81 205.23 96.23 C 204.77 98.75 204.24 101.26 203.35 103.67 C 197.16 102.65 202.64 111.47 198.08 112.20 C 188.76 115.21 193.76 104.01 186.88 101.79 C 186.91 98.50 186.99 95.22 187.01 91.93 C 187.06 88.59 186.98 85.23 186.98 81.89 Z" />
</g>
<g id="#73b588ff">
<path fill="#73b588" opacity="1.00" d=" M 212.87 88.72 C 215.99 86.89 217.91 83.60 220.99 81.82 C 220.94 84.66 221.01 87.60 219.16 89.90 C 217.12 89.25 214.99 88.91 212.87 88.72 Z" />
</g>
<g id="#5aa370ff">
<path fill="#5aa370" opacity="1.00" d=" M 262.85 83.15 C 265.63 83.71 268.40 84.32 271.19 84.86 C 275.05 85.71 278.96 86.06 282.92 86.08 C 283.00 86.51 283.14 87.37 283.21 87.80 C 282.09 87.49 280.62 86.58 280.36 88.35 C 278.20 94.91 276.01 102.14 278.70 108.75 C 276.24 112.96 276.08 124.03 283.36 122.51 C 285.31 122.26 287.50 121.97 286.98 119.47 C 287.40 119.57 288.24 119.77 288.65 119.87 C 291.51 120.88 294.61 121.59 297.45 120.22 L 298.07 120.03 C 298.31 120.47 298.78 121.33 299.02 121.77 C 296.47 126.11 292.52 119.91 290.16 123.27 C 284.48 130.67 297.00 125.69 293.22 130.29 C 285.67 135.24 293.87 149.42 284.12 151.22 C 283.05 148.96 281.81 146.80 280.41 144.73 C 280.18 139.68 278.12 133.90 272.15 133.75 C 270.48 121.12 271.93 108.11 271.54 95.42 C 269.02 91.09 266.35 86.75 262.85 83.15 Z" />
</g>
<g id="#335650ff">
<path fill="#335650" opacity="1.00" d=" M 163.97 84.01 C 166.38 88.98 164.49 94.99 164.19 100.24 C 163.95 94.83 164.03 89.42 163.97 84.01 Z" />
</g>
<g id="#839b90ff">
<path fill="#839b90" opacity="1.00" d=" M 10.05 86.02 C 14.46 84.80 11.48 91.40 11.95 93.98 C 7.54 95.19 10.52 88.60 10.05 86.02 Z" />
</g>
<g id="#519460ff">
<path fill="#519460" opacity="1.00" d=" M 282.92 86.08 C 287.54 86.01 292.14 85.94 296.77 85.79 C 294.71 88.56 295.79 91.22 296.78 94.00 C 293.83 102.43 302.30 109.63 298.94 117.98 C 298.72 118.49 298.29 119.52 298.07 120.03 L 297.45 120.22 C 295.68 117.01 290.70 116.96 288.65 119.87 C 288.24 119.77 287.40 119.57 286.98 119.47 C 283.12 119.48 281.88 117.30 283.18 113.24 C 283.95 105.13 284.99 96.75 283.37 88.68 L 283.21 87.80 C 283.14 87.37 283.00 86.51 282.92 86.08 Z" />
</g>
<g id="#7cbb92ff">
<path fill="#7cbb92" opacity="1.00" d=" M 152.15 87.05 C 158.09 85.36 154.25 95.30 156.03 97.99 C 147.09 101.24 152.92 90.88 152.15 87.05 Z" />
</g>
<g id="#b4bac6ff">
<path fill="#b4bac6" opacity="1.00" d=" M 280.36 88.35 C 280.62 86.58 282.09 87.49 283.21 87.80 L 283.37 88.68 C 282.94 96.86 282.89 105.05 283.18 113.24 C 281.88 117.30 283.12 119.48 286.98 119.47 C 287.50 121.97 285.31 122.26 283.36 122.51 C 276.08 124.03 276.24 112.96 278.70 108.75 C 276.01 102.14 278.20 94.91 280.36 88.35 Z" />
</g>
<g id="#61a877ff">
<path fill="#61a877" opacity="1.00" d=" M 40.85 87.88 C 43.46 89.75 49.72 89.50 48.29 93.94 C 53.06 91.68 50.95 97.64 55.76 98.40 C 51.78 102.29 58.50 101.52 57.35 104.71 C 52.58 108.90 44.43 101.97 40.97 107.05 C 39.46 113.70 48.36 107.78 48.01 113.91 C 50.39 110.54 54.77 110.71 58.26 109.19 C 63.44 110.01 64.13 114.63 64.93 118.92 C 55.68 117.53 46.20 117.66 37.02 119.50 C 34.77 119.93 32.57 120.61 30.39 121.30 C 29.70 121.41 28.33 121.65 27.65 121.77 C 31.33 117.83 37.23 116.24 36.07 109.28 C 39.42 109.40 41.37 106.63 37.78 104.89 C 35.55 98.92 41.90 94.08 40.85 87.88 Z" />
</g>
<g id="#b6cac4ff">
<path fill="#b6cac4" opacity="1.00" d=" M 99.64 93.81 C 100.21 91.31 101.64 89.11 103.71 87.61 C 105.90 92.85 111.67 89.76 115.98 90.06 C 116.03 91.35 116.05 92.65 116.04 93.94 L 115.09 94.12 C 110.88 94.67 104.99 97.10 104.62 91.13 C 103.35 92.75 101.89 94.12 99.64 93.81 Z" />
</g>
<g id="#608b77ff">
<path fill="#608b77" opacity="1.00" d=" M 193.03 100.10 C 193.22 95.98 193.90 91.92 194.63 87.87 C 196.26 88.77 199.58 92.96 199.45 88.81 C 200.24 91.74 200.07 94.79 200.05 97.81 C 197.64 98.37 195.32 99.22 193.03 100.10 Z" />
</g>
<g id="#bfc4d2ff">
<path fill="#bfc4d2" opacity="1.00" d=" M 138.00 89.03 C 139.66 88.99 141.33 88.95 142.99 88.89 L 144.03 88.87 C 146.61 89.20 147.02 91.00 145.26 94.27 C 143.50 94.17 139.97 93.97 138.20 93.87 C 138.05 92.26 137.99 90.64 138.00 89.03 Z" />
</g>
<g id="#b5ccc5ff">
<path fill="#b5ccc5" opacity="1.00" d=" M 209.58 90.93 C 210.67 90.18 211.77 89.46 212.87 88.72 C 214.99 88.91 217.12 89.25 219.16 89.90 C 219.26 90.40 219.46 91.40 219.57 91.90 C 216.24 91.82 211.79 94.64 209.58 90.93 Z" />
</g>
<g id="#889c93ff">
<path fill="#889c93" opacity="1.00" d=" M 283.37 88.68 C 284.99 96.75 283.95 105.13 283.18 113.24 C 282.89 105.05 282.94 96.86 283.37 88.68 Z" />
</g>
<g id="#61897bff">
<path fill="#61897b" opacity="1.00" d=" M 182.99 102.96 C 182.99 98.55 183.21 94.14 183.66 89.76 C 183.27 93.15 184.75 95.52 187.01 91.93 C 186.99 95.22 186.91 98.50 186.88 101.79 C 185.57 102.14 184.27 102.53 182.99 102.96 Z" />
</g>
<g id="#78bf85ff">
<path fill="#78bf85" opacity="1.00" d=" M 99.64 93.81 C 101.89 94.12 103.35 92.75 104.62 91.13 C 104.99 97.10 110.88 94.67 115.09 94.12 C 114.44 97.72 117.38 104.66 110.11 102.34 C 103.04 102.55 96.96 105.92 90.82 108.94 C 93.73 103.73 94.70 97.68 99.64 93.81 Z" />
</g>
<g id="#74c087ff">
<path fill="#74c087" opacity="1.00" d=" M 205.23 96.23 C 205.73 93.79 207.43 92.05 209.58 90.93 C 211.79 94.64 216.24 91.82 219.57 91.90 C 220.59 97.14 217.98 100.57 216.02 105.92 C 222.93 103.51 217.59 108.13 214.47 110.06 C 216.78 113.50 212.98 116.47 214.41 117.81 C 211.14 121.51 208.51 125.74 205.05 129.27 C 221.77 124.71 227.19 106.26 229.52 91.08 C 234.69 92.81 243.17 88.93 244.96 96.09 L 244.90 96.80 C 238.05 100.11 242.83 110.64 241.07 116.86 C 235.43 113.50 238.74 122.68 237.99 125.94 C 236.06 126.02 234.13 125.90 232.22 125.75 C 227.26 124.14 222.46 123.99 223.90 130.01 C 222.23 130.01 220.56 130.01 218.90 130.02 C 213.95 130.37 208.61 128.86 203.94 131.03 C 199.67 125.56 205.13 117.42 201.67 111.15 C 200.39 108.37 202.22 106.07 203.35 103.67 C 204.24 101.26 204.77 98.75 205.23 96.23 Z" />
</g>
<g id="#7cbe8dff">
<path fill="#7cbe8d" opacity="1.00" d=" M 138.20 93.87 C 139.97 93.97 143.50 94.17 145.26 94.27 C 144.35 98.94 143.18 103.57 141.94 108.17 C 135.65 108.11 140.62 98.96 138.27 94.73 L 138.20 93.87 Z" />
</g>
<g id="#5e9075ff">
<path fill="#5e9075" opacity="1.00" d=" M 138.27 94.73 C 140.62 98.96 135.65 108.11 141.94 108.17 C 141.95 108.83 141.99 110.15 142.00 110.81 C 139.39 110.99 136.46 112.08 134.78 109.20 C 136.18 109.21 138.75 110.61 138.03 108.06 C 138.14 103.61 138.16 99.17 138.27 94.73 Z" />
</g>
<g id="#90a8a2ff">
<path fill="#90a8a2" opacity="1.00" d=" M 9.29 107.39 C 9.54 105.97 11.45 91.93 11.99 99.99 C 9.32 111.87 29.16 100.42 30.86 107.77 C 25.61 111.26 18.26 107.69 12.11 108.10 C 11.33 112.67 11.70 117.35 11.06 121.94 C 14.28 119.86 21.37 121.47 16.25 124.21 C 14.39 122.99 12.26 123.43 10.21 123.68 C 8.18 118.48 9.51 112.62 9.29 107.39 Z" />
</g>
<g id="#bac8c8ff">
<path fill="#bac8c8" opacity="1.00" d=" M 241.07 116.86 C 242.83 110.64 238.05 100.11 244.90 96.80 C 243.71 105.14 244.72 113.52 244.04 121.87 L 243.18 121.88 C 242.50 120.20 241.78 118.53 241.07 116.86 Z" />
</g>
<g id="#88b99bff">
<path fill="#88b99b" opacity="1.00" d=" M 193.03 100.10 C 195.32 99.22 197.64 98.37 200.05 97.81 C 202.25 102.30 191.99 105.11 193.03 100.10 Z" />
</g>
<g id="#adccc2ff">
<path fill="#adccc2" opacity="1.00" d=" M 198.08 112.20 C 202.64 111.47 197.16 102.65 203.35 103.67 C 202.22 106.07 200.39 108.37 201.67 111.15 C 205.13 117.42 199.67 125.56 203.94 131.03 C 203.95 131.54 203.97 132.55 203.98 133.06 C 202.60 133.50 200.56 134.83 200.60 132.38 C 200.59 125.56 201.09 118.59 198.08 112.20 Z" />
</g>
<g id="#a1bdb6ff">
<path fill="#a1bdb6" opacity="1.00" d=" M 36.07 109.28 C 29.02 109.89 32.92 104.22 37.78 104.89 C 41.37 106.63 39.42 109.40 36.07 109.28 Z" />
</g>
<g id="#a3bdb5ff">
<path fill="#a3bdb5" opacity="1.00" d=" M 40.97 107.05 C 44.43 101.97 52.58 108.90 57.35 104.71 C 56.11 106.35 56.95 107.90 58.26 109.19 C 54.77 110.71 50.39 110.54 48.01 113.91 C 48.36 107.78 39.46 113.70 40.97 107.05 Z" />
</g>
<g id="#adc9c0ff">
<path fill="#adc9c0" opacity="1.00" d=" M 69.69 106.80 C 73.16 106.58 76.64 106.62 80.11 106.85 C 78.81 109.47 79.64 114.77 76.04 115.07 C 77.63 111.10 76.13 109.08 71.92 109.07 C 71.15 108.34 70.41 107.58 69.69 106.80 Z" />
</g>
<g id="#bccacbff">
<path fill="#bccacb" opacity="1.00" d=" M 145.04 118.96 C 141.08 112.05 146.10 113.42 147.90 115.19 C 148.35 120.86 148.27 126.81 146.25 132.20 C 145.67 132.11 144.52 131.93 143.95 131.85 C 144.64 127.59 145.32 123.30 145.04 118.96 Z" />
</g>
<g id="#73aa5bff">
<path fill="#73aa5b" opacity="1.00" d=" M 237.99 125.94 C 238.74 122.68 235.43 113.50 241.07 116.86 C 241.78 118.53 242.50 120.20 243.18 121.88 C 241.87 122.81 241.07 124.09 241.08 125.73 C 240.31 125.78 238.76 125.88 237.99 125.94 Z" />
</g>
<g id="#3f644eff">
<path fill="#3f644e" opacity="1.00" d=" M 312.21 118.14 C 315.06 115.66 316.74 115.35 314.08 119.06 C 313.62 119.85 313.20 120.67 312.83 121.51 C 308.05 134.86 300.90 148.98 304.21 163.21 C 308.40 156.18 312.73 148.76 320.00 144.45 L 320.00 166.74 C 316.89 166.24 314.34 169.85 311.56 167.60 C 309.11 165.89 309.64 170.51 308.83 171.92 C 307.29 175.19 304.55 177.64 302.45 180.53 C 303.61 182.55 305.31 184.20 306.89 185.90 C 305.24 185.87 304.91 187.28 304.68 188.60 C 304.00 192.11 307.70 194.68 308.09 198.13 C 311.70 200.97 309.58 206.52 312.78 209.30 C 313.15 210.08 313.50 210.87 313.82 211.69 C 314.77 215.19 316.88 217.77 311.61 218.50 C 307.16 215.95 303.80 209.89 303.42 204.31 C 302.24 200.97 298.89 205.31 297.90 206.93 C 299.74 208.82 301.82 210.46 303.73 212.27 C 302.39 215.81 300.22 218.98 298.11 222.10 C 294.64 217.31 298.90 204.47 291.16 203.92 C 292.39 207.28 291.79 210.41 289.48 213.11 C 291.64 218.28 285.22 223.78 289.78 227.95 C 286.97 231.58 288.78 235.99 289.79 240.00 L 286.06 240.00 C 285.85 235.58 283.77 231.49 283.58 227.16 C 283.80 225.78 284.01 224.40 284.21 223.01 C 284.83 218.67 284.43 214.25 284.80 209.89 C 280.00 209.09 280.21 215.80 276.11 216.23 C 273.16 216.91 275.67 221.67 274.94 223.92 C 275.57 229.26 273.49 225.18 272.11 222.81 C 272.59 219.13 272.82 215.43 271.78 211.84 C 276.53 203.11 281.37 194.33 288.06 186.92 C 284.37 186.89 280.78 187.56 277.13 187.95 C 275.74 188.02 274.34 188.10 272.96 188.20 C 274.66 185.32 276.40 182.46 278.32 179.71 C 280.96 179.80 283.60 179.63 286.11 178.74 C 283.46 176.35 280.75 174.04 277.89 171.92 C 287.40 174.90 283.42 161.94 291.93 162.80 C 294.06 164.69 298.03 172.29 296.04 162.06 C 296.09 147.80 304.29 135.55 308.32 122.36 C 310.17 121.53 311.50 120.04 312.21 118.14 M 294.22 181.09 C 289.66 183.13 296.90 191.18 296.72 186.43 C 293.72 185.34 295.48 183.31 298.01 183.78 C 298.38 181.56 296.10 180.44 294.22 181.09 Z" />
</g>
<g id="#93b4a5ff">
<path fill="#93b4a5" opacity="1.00" d=" M 288.65 119.87 C 290.70 116.96 295.68 117.01 297.45 120.22 C 294.61 121.59 291.51 120.88 288.65 119.87 Z" />
</g>
<g id="#8ea79eff">
<path fill="#8ea79e" opacity="1.00" d=" M 298.94 117.98 C 300.18 117.94 301.42 117.90 302.66 117.86 C 305.85 117.99 309.00 118.07 312.21 118.14 C 311.50 120.04 310.17 121.53 308.32 122.36 C 305.24 121.90 302.13 121.16 299.02 121.77 C 298.78 121.33 298.31 120.47 298.07 120.03 C 298.29 119.52 298.72 118.49 298.94 117.98 Z" />
</g>
<g id="#8eb589ff">
<path fill="#8eb589" opacity="1.00" d=" M 73.94 124.00 C 72.87 120.31 75.69 118.01 79.20 119.15 C 83.13 123.77 77.70 124.07 73.94 124.00 Z" />
</g>
<g id="#8c9ca0ff">
<path fill="#8c9ca0" opacity="1.00" d=" M 314.08 119.06 C 316.05 119.00 318.02 119.00 320.00 119.00 L 320.00 122.26 C 317.56 123.02 315.25 121.62 312.83 121.51 C 313.20 120.67 313.62 119.85 314.08 119.06 Z" />
</g>
<g id="#81ab94ff">
<path fill="#81ab94" opacity="1.00" d=" M 22.17 123.42 C 14.26 122.04 26.37 117.53 26.75 122.07 C 25.21 122.48 23.69 122.95 22.17 123.42 Z" />
</g>
<g id="#446955ff">
<path fill="#446955" opacity="1.00" d=" M 30.39 121.30 C 32.57 120.61 34.77 119.93 37.02 119.50 C 35.82 122.50 37.21 125.55 38.50 128.81 C 36.01 130.47 33.67 134.93 30.31 132.72 C 27.58 131.50 25.15 134.27 22.79 135.28 C 21.62 126.04 15.50 137.50 10.33 137.25 C 11.93 131.67 8.70 135.59 7.91 138.67 C 6.23 138.60 4.54 138.57 2.86 138.50 C 4.18 132.18 12.04 130.57 16.24 126.30 C 18.34 125.60 20.27 124.53 22.17 123.42 C 23.69 122.95 25.21 122.48 26.75 122.07 C 27.28 125.26 29.84 123.30 30.39 121.30 Z" />
</g>
<g id="#4c9261ff">
<path fill="#4c9261" opacity="1.00" d=" M 299.02 121.77 C 302.13 121.16 305.24 121.90 308.32 122.36 C 304.29 135.55 296.09 147.80 296.04 162.06 C 298.03 172.29 294.06 164.69 291.93 162.80 C 289.39 161.24 286.41 159.82 286.66 156.33 C 282.99 157.57 283.54 154.38 284.12 151.22 C 293.87 149.42 285.67 135.24 293.22 130.29 C 297.00 125.69 284.48 130.67 290.16 123.27 C 292.52 119.91 296.47 126.11 299.02 121.77 Z" />
</g>
<g id="#438156ff">
<path fill="#438156" opacity="1.00" d=" M 312.83 121.51 C 315.25 121.62 317.56 123.02 320.00 122.26 L 320.00 144.45 C 312.73 148.76 308.40 156.18 304.21 163.21 C 300.90 148.98 308.05 134.86 312.83 121.51 Z" />
</g>
<g id="#5c7d4fff">
<path fill="#5c7d4f" opacity="1.00" d=" M 243.18 121.88 L 244.04 121.87 C 245.33 124.21 248.63 127.20 244.90 128.93 C 242.69 133.39 244.53 139.34 244.82 144.23 C 244.88 145.70 244.91 147.18 244.89 148.66 C 241.94 150.29 242.07 154.26 240.95 157.09 C 236.79 172.04 225.99 183.55 214.84 193.71 L 213.95 194.26 C 215.65 189.52 220.73 183.81 225.39 180.32 C 232.98 165.92 243.53 150.02 240.12 133.01 C 244.99 134.10 241.73 128.60 241.08 125.73 C 241.07 124.09 241.87 122.81 243.18 121.88 Z" />
</g>
<g id="#4c7465ff">
<path fill="#4c7465" opacity="1.00" d=" M 223.90 130.01 C 222.46 123.99 227.26 124.14 232.22 125.75 C 223.38 122.44 224.85 129.53 225.09 134.80 C 224.80 134.33 224.21 133.39 223.91 132.92 C 223.91 132.19 223.91 130.74 223.90 130.01 Z" />
</g>
<g id="#0a0e32ff">
<path fill="#0a0e32" opacity="1.00" d=" M 225.09 134.80 C 224.85 129.53 223.38 122.44 232.22 125.75 C 234.13 125.90 236.06 126.02 237.99 125.94 C 238.76 125.88 240.31 125.78 241.08 125.73 C 241.73 128.60 244.99 134.10 240.12 133.01 C 236.23 131.59 234.26 132.16 234.22 134.71 C 234.00 138.24 233.63 141.87 234.73 145.30 C 235.40 149.55 236.33 154.94 230.78 154.81 C 230.37 154.77 229.55 154.68 229.14 154.64 C 228.99 151.67 228.90 148.73 228.83 145.77 C 228.05 141.84 231.76 133.73 225.09 134.80 Z" />
</g>
<g id="#0f1334ff">
<path fill="#0f1334" opacity="1.00" d=" M 149.96 135.99 C 147.60 124.28 160.79 126.45 167.95 128.26 C 167.79 130.77 167.46 135.78 167.30 138.29 C 164.42 135.73 155.38 131.91 155.02 137.83 C 158.40 140.48 162.48 142.03 166.12 144.26 C 166.84 145.18 167.56 146.10 168.28 147.03 C 168.43 149.57 168.65 152.13 168.49 154.69 C 167.75 155.37 167.02 156.07 166.30 156.78 C 164.90 157.35 163.46 157.81 161.99 158.16 C 158.00 158.13 154.02 158.04 150.04 157.91 C 149.97 154.94 149.81 152.02 150.09 149.07 C 154.34 148.94 159.33 151.62 162.98 148.85 C 160.11 144.35 152.74 144.35 150.23 139.07 C 150.17 138.30 150.03 136.76 149.96 135.99 Z" />
</g>
<g id="#5b9c72ff">
<path fill="#5b9c72" opacity="1.00" d=" M 38.50 128.81 C 38.96 130.19 39.40 131.59 39.84 132.98 C 40.21 140.84 42.34 149.01 39.63 156.67 C 34.00 165.47 38.37 176.87 33.91 186.03 C 30.66 184.89 30.47 181.20 30.58 178.31 C 27.89 173.55 23.94 169.60 21.29 164.80 C 19.03 157.84 21.13 150.61 20.45 143.54 C 18.52 140.05 20.85 137.58 22.79 135.28 C 25.15 134.27 27.58 131.50 30.31 132.72 C 33.67 134.93 36.01 130.47 38.50 128.81 Z" />
</g>
<g id="#70a686ff">
<path fill="#70a686" opacity="1.00" d=" M 45.74 131.51 C 48.63 128.92 53.30 128.54 56.45 130.81 C 56.12 131.36 55.47 132.47 55.14 133.03 C 53.37 134.33 51.67 135.72 50.00 137.14 C 49.43 134.55 49.22 131.24 45.74 131.51 Z" />
</g>
<g id="#2a3b37ff">
<path fill="#2a3b37" opacity="1.00" d=" M 244.82 144.23 C 244.53 139.34 242.69 133.39 244.90 128.93 C 249.66 129.83 257.76 127.29 261.00 130.01 C 255.70 129.93 250.41 129.95 245.12 130.08 C 244.95 134.79 244.94 139.52 244.82 144.23 Z" />
</g>
<g id="#111538ff">
<path fill="#111538" opacity="1.00" d=" M 203.94 131.03 C 208.61 128.86 213.95 130.37 218.90 130.02 C 219.21 130.99 219.53 131.97 219.85 132.95 C 220.16 141.13 221.30 149.27 222.67 157.33 L 222.87 158.30 C 223.42 160.47 222.20 161.28 220.14 161.21 C 217.30 160.74 211.77 162.31 214.96 155.98 C 216.01 151.68 207.06 152.88 208.97 156.89 C 210.10 161.42 205.12 160.05 202.10 160.07 C 203.42 152.75 206.01 145.70 207.16 138.36 C 203.20 140.03 203.40 136.72 203.98 133.06 C 203.97 132.55 203.95 131.54 203.94 131.03 M 212.47 141.97 C 211.78 144.76 210.52 150.74 217.05 146.99 C 215.76 143.80 218.47 135.27 213.00 137.22 C 211.01 137.33 211.46 140.83 212.47 141.97 Z" />
</g>
<g id="#a7cebdff">
<path fill="#a7cebd" opacity="1.00" d=" M 218.90 130.02 C 220.56 130.01 222.23 130.01 223.90 130.01 C 223.91 130.74 223.91 132.19 223.91 132.92 C 222.59 132.17 221.18 132.30 219.85 132.95 C 219.53 131.97 219.21 130.99 218.90 130.02 Z" />
</g>
<g id="#0b0e33ff">
<path fill="#0b0e33" opacity="1.00" d=" M 245.12 130.08 C 250.41 129.95 255.70 129.93 261.00 130.01 C 263.44 138.29 251.19 130.86 248.97 134.06 C 247.01 141.23 261.82 132.07 256.96 141.79 C 250.19 138.47 248.99 147.42 252.24 150.80 C 257.45 150.90 262.64 150.54 260.75 158.21 C 260.78 158.63 260.84 159.47 260.87 159.88 C 256.40 158.26 243.51 164.35 244.98 156.09 C 244.96 154.23 244.92 150.51 244.89 148.66 C 244.91 147.18 244.88 145.70 244.82 144.23 C 244.94 139.52 244.95 134.79 245.12 130.08 Z" />
</g>
<g id="#4f8b64ff">
<path fill="#4f8b64" opacity="1.00" d=" M 10.33 137.25 C 15.50 137.50 21.62 126.04 22.79 135.28 C 20.85 137.58 18.52 140.05 20.45 143.54 C 21.13 150.61 19.03 157.84 21.29 164.80 C 23.94 169.60 27.89 173.55 30.58 178.31 C 30.47 181.20 30.66 184.89 33.91 186.03 C 38.37 176.87 34.00 165.47 39.63 156.67 C 39.01 160.95 40.98 162.98 45.27 162.33 C 44.41 167.41 40.09 171.37 40.08 176.70 C 39.16 181.16 38.18 185.61 37.93 190.17 C 37.56 191.34 37.23 192.51 36.92 193.70 C 34.99 197.57 30.43 192.85 26.85 193.97 C 27.53 197.02 30.50 198.94 33.21 196.86 C 37.83 198.16 43.21 199.09 46.85 195.27 C 49.83 197.45 53.66 196.65 57.11 196.92 C 62.36 197.97 56.62 206.90 61.98 202.11 C 66.14 199.35 71.07 198.55 75.98 199.01 C 76.78 201.68 73.56 200.73 72.01 201.29 C 70.28 202.97 68.30 204.32 66.12 205.34 C 64.59 206.28 63.24 207.47 61.88 208.63 C 55.33 209.15 63.02 218.32 59.65 222.48 C 55.87 227.22 59.47 232.24 56.53 237.29 C 50.15 235.12 43.28 235.27 36.92 233.04 C 41.58 226.57 49.33 221.94 50.57 213.59 C 53.54 212.72 55.46 206.51 50.97 208.95 C 41.43 214.42 33.69 222.19 26.16 230.05 C 25.57 219.03 21.89 208.60 19.96 197.83 C 22.68 196.71 28.86 199.99 26.00 195.10 C 24.56 194.00 19.32 193.47 18.77 195.96 C 16.60 189.71 13.12 184.16 9.00 179.03 C 6.77 172.08 6.72 164.68 7.46 157.47 C 4.98 157.23 2.49 157.04 -0.00 156.92 L 0.00 156.02 C 12.02 160.59 9.39 148.28 10.94 141.07 C 11.35 139.43 8.80 139.47 7.91 138.67 C 8.70 135.59 11.93 131.67 10.33 137.25 Z" />
</g>
<g id="#0d1137ff">
<path fill="#0d1137" opacity="1.00" d=" M 56.45 130.81 C 64.56 128.37 63.43 135.18 62.98 140.79 C 62.99 143.76 63.07 146.76 63.30 149.73 C 63.10 155.94 65.71 165.39 56.04 161.98 C 56.10 157.55 57.24 153.19 57.00 148.76 C 54.44 152.59 55.69 158.11 52.83 161.88 C 50.03 162.59 50.79 158.34 49.82 156.68 C 48.06 152.09 50.60 142.98 46.17 140.94 C 46.84 147.87 47.31 154.85 46.89 161.81 C 46.48 161.94 45.67 162.20 45.27 162.33 C 40.98 162.98 39.01 160.95 39.63 156.67 C 42.34 149.01 40.21 140.84 39.84 132.98 C 41.78 132.38 43.76 131.95 45.74 131.51 C 49.22 131.24 49.43 134.55 50.00 137.14 C 50.62 140.53 51.64 143.84 52.46 147.19 C 54.47 142.78 54.37 137.75 55.14 133.03 C 55.47 132.47 56.12 131.36 56.45 130.81 Z" />
</g>
<g id="#0c1237ff">
<path fill="#0c1237" opacity="1.00" d=" M 87.21 139.82 C 87.48 137.20 84.60 130.92 89.01 131.96 C 97.51 129.73 96.19 140.48 99.86 145.24 C 100.37 138.56 97.18 128.13 107.98 132.02 C 108.00 138.94 106.54 145.80 107.19 152.75 C 107.50 157.36 108.40 166.44 100.16 162.93 C 97.55 157.05 95.79 150.86 93.53 144.84 C 93.21 144.04 92.78 143.30 92.24 142.63 C 91.87 149.41 92.02 156.21 91.98 163.00 C 90.67 163.09 89.35 163.09 88.04 163.01 C 87.99 158.25 87.92 153.51 87.82 148.76 C 87.91 145.75 88.38 142.67 87.21 139.82 Z" />
</g>
<g id="#0c1034ff">
<path fill="#0c1034" opacity="1.00" d=" M 127.85 134.85 C 127.03 130.45 132.17 132.19 134.88 132.00 C 136.82 137.10 130.29 150.78 140.99 147.00 C 145.08 144.80 137.54 131.07 145.99 133.02 C 145.98 134.36 145.99 135.69 146.01 137.03 C 146.18 141.77 145.39 146.66 146.69 151.30 C 146.76 153.97 146.92 159.31 147.00 161.99 C 137.05 166.77 146.52 150.99 138.17 154.03 C 140.74 162.63 134.80 163.08 128.08 161.98 C 127.84 154.68 128.09 147.38 128.04 140.08 C 128.01 138.33 127.92 136.59 127.85 134.85 Z" />
</g>
<g id="#4f6b67ff">
<path fill="#4f6b67" opacity="1.00" d=" M 140.87 134.93 C 140.60 132.68 141.70 131.61 143.95 131.85 C 144.52 131.93 145.67 132.11 146.25 132.20 L 145.99 133.02 C 137.54 131.07 145.08 144.80 140.99 147.00 C 141.00 144.36 140.99 141.72 140.97 139.08 C 140.95 137.70 140.92 136.31 140.87 134.93 Z" />
</g>
<g id="#73bb88ff">
<path fill="#73bb88" opacity="1.00" d=" M 219.85 132.95 C 221.18 132.30 222.59 132.17 223.91 132.92 C 224.21 133.39 224.80 134.33 225.09 134.80 C 231.76 133.73 228.05 141.84 228.83 145.77 C 228.43 148.56 228.06 151.38 227.66 154.18 C 224.91 153.73 221.97 153.62 222.67 157.33 C 221.30 149.27 220.16 141.13 219.85 132.95 Z" />
</g>
<g id="#57786cff">
<path fill="#57786c" opacity="1.00" d=" M 50.00 137.14 C 51.67 135.72 53.37 134.33 55.14 133.03 C 54.37 137.75 54.47 142.78 52.46 147.19 C 51.64 143.84 50.62 140.53 50.00 137.14 Z" />
</g>
<g id="#a5c7abff">
<path fill="#a5c7ab" opacity="1.00" d=" M 78.32 132.71 C 78.67 134.45 78.96 136.19 79.22 137.95 C 75.47 138.91 77.27 134.45 78.32 132.71 Z" />
</g>
<g id="#74bf8aff">
<path fill="#74bf8a" opacity="1.00" d=" M 80.16 138.00 C 79.33 130.28 86.77 134.88 87.21 139.82 C 88.38 142.67 87.91 145.75 87.82 148.76 C 88.07 152.86 85.10 160.34 88.04 163.01 C 89.35 163.09 90.67 163.09 91.98 163.00 C 94.46 158.67 92.03 150.68 93.53 144.84 C 95.79 150.86 97.55 157.05 100.16 162.93 C 108.40 166.44 107.50 157.36 107.19 152.75 C 108.64 155.56 109.41 159.20 112.79 160.30 C 108.26 167.42 119.32 167.30 119.76 163.28 C 119.94 160.06 120.30 156.80 119.27 153.70 C 120.41 150.50 115.54 140.55 124.01 144.02 C 127.14 144.86 127.25 142.31 127.23 139.89 L 128.04 140.08 C 128.09 147.38 127.84 154.68 128.08 161.98 C 134.80 163.08 140.74 162.63 138.17 154.03 C 146.52 150.99 137.05 166.77 147.00 161.99 C 146.92 159.31 146.76 153.97 146.69 151.30 C 146.81 147.58 146.99 143.90 147.07 140.19 C 148.13 139.83 149.18 139.46 150.23 139.07 C 152.74 144.35 160.11 144.35 162.98 148.85 C 159.33 151.62 154.34 148.94 150.09 149.07 C 149.81 152.02 149.97 154.94 150.04 157.91 C 154.02 158.04 158.00 158.13 161.99 158.16 C 164.67 160.20 163.00 163.45 163.01 166.22 C 166.20 164.33 165.52 159.97 166.30 156.78 C 167.02 156.07 167.75 155.37 168.49 154.69 C 168.15 160.46 168.04 166.22 168.99 171.94 C 167.48 172.22 164.47 172.78 162.97 173.06 C 162.63 177.08 167.58 175.38 170.03 175.84 C 171.66 182.29 174.45 188.37 176.23 194.76 C 174.19 193.83 172.06 193.31 170.03 194.58 C 168.06 193.45 166.26 189.24 164.42 192.73 C 162.69 189.57 157.25 185.70 154.23 188.67 C 153.80 187.14 152.40 182.99 151.82 186.78 C 149.81 190.29 151.17 185.53 150.07 184.16 C 143.89 181.46 140.38 174.32 133.82 172.01 C 138.96 185.32 149.82 195.90 162.10 202.86 C 160.17 203.31 157.08 202.72 158.02 205.71 C 160.57 205.52 163.65 206.34 165.46 204.01 C 170.00 205.76 175.44 205.51 179.33 208.64 C 176.65 210.48 168.35 207.66 168.36 212.87 C 164.76 212.59 160.92 213.16 157.67 211.24 C 158.67 212.88 159.86 214.40 160.96 215.98 C 157.12 216.55 149.45 212.35 148.87 217.97 C 145.17 217.76 141.43 214.52 137.85 216.48 C 135.21 216.76 132.17 214.00 129.96 216.11 C 131.73 219.60 135.85 220.63 139.08 222.29 C 133.31 226.01 123.46 222.04 116.06 220.95 C 122.09 215.59 117.76 208.21 110.84 206.07 C 106.72 202.82 102.88 199.05 101.69 193.77 C 108.14 193.95 114.30 191.71 120.54 190.61 C 133.21 189.92 120.01 202.68 125.73 207.55 C 131.25 207.97 137.05 206.55 141.79 203.69 C 141.86 197.56 129.67 204.91 128.13 198.94 C 128.26 185.77 126.26 173.01 126.98 160.00 C 124.44 160.18 125.10 164.76 122.41 166.27 C 126.60 173.57 120.70 181.23 122.78 188.90 C 113.72 188.47 104.59 187.56 95.63 189.79 C 90.98 181.94 87.73 173.45 84.88 164.84 C 84.95 164.19 85.10 162.89 85.17 162.24 C 85.92 157.45 86.63 152.47 85.40 147.71 C 84.61 144.76 84.98 140.66 82.15 138.83 C 81.65 138.62 80.66 138.20 80.16 138.00 M 124.05 146.86 C 123.92 149.47 123.10 153.34 127.04 151.97 C 127.59 149.57 125.91 147.99 124.05 146.86 M 155.19 204.13 C 153.48 206.26 153.49 209.24 152.97 211.83 C 158.23 214.35 159.34 203.55 155.19 204.13 Z" />
</g>
<g id="#0b0e32ff">
<path fill="#0b0e32" opacity="1.00" d=" M 185.23 135.71 C 183.75 131.44 188.58 133.26 190.87 134.11 C 190.96 135.84 191.14 139.30 191.24 141.03 C 192.80 144.63 186.49 157.48 192.87 155.21 C 194.30 154.89 195.74 154.56 197.14 154.11 C 197.85 154.10 199.26 154.06 199.96 154.05 C 199.96 156.99 200.00 159.95 199.98 162.90 C 199.30 163.00 197.93 163.20 197.24 163.30 C 193.60 163.17 189.99 163.03 186.36 162.91 C 186.18 161.26 185.81 157.95 185.63 156.30 C 185.49 149.48 187.21 142.38 185.23 135.71 Z" />
</g>
<g id="#72a960ff">
<path fill="#72a960" opacity="1.00" d=" M 234.22 134.71 C 234.26 132.16 236.23 131.59 240.12 133.01 C 243.53 150.02 232.98 165.92 225.39 180.32 C 220.73 183.81 215.65 189.52 213.95 194.26 C 209.14 195.59 213.71 198.70 211.96 201.78 C 207.58 206.55 201.49 202.18 196.81 200.32 C 202.78 196.05 208.69 191.70 213.93 186.52 C 214.72 185.74 215.49 184.95 216.24 184.14 C 222.78 176.38 230.50 168.49 231.92 157.96 C 233.96 155.84 234.47 154.29 230.78 154.81 C 236.33 154.94 235.40 149.55 234.73 145.30 C 234.89 141.75 235.45 138.12 234.22 134.71 Z" />
</g>
<g id="#486b69ff">
<path fill="#486b69" opacity="1.00" d=" M 190.87 134.11 C 194.05 134.99 192.12 138.96 191.24 141.03 C 191.14 139.30 190.96 135.84 190.87 134.11 Z" />
</g>
<g id="#c4d2ddff">
<path fill="#c4d2dd" opacity="1.00" d=" M 125.05 135.92 C 125.99 135.56 126.92 135.21 127.85 134.85 C 127.92 136.59 128.01 138.33 128.04 140.08 L 127.23 139.89 C 126.96 138.54 126.84 136.97 125.17 136.70 L 125.05 135.92 Z" />
</g>
<g id="#c9d4dbff">
<path fill="#c9d4db" opacity="1.00" d=" M 140.97 139.08 C 134.49 140.95 134.64 133.50 140.87 134.93 C 140.92 136.31 140.95 137.70 140.97 139.08 Z" />
</g>
<g id="#c4c6d4ff">
<path fill="#c4c6d4" opacity="1.00" d=" M 155.02 137.83 C 155.38 131.91 164.42 135.73 167.30 138.29 C 167.01 139.78 166.42 142.77 166.12 144.26 C 162.48 142.03 158.40 140.48 155.02 137.83 Z" />
</g>
<g id="#3f5a5cff">
<path fill="#3f5a5c" opacity="1.00" d=" M 234.22 134.71 C 235.45 138.12 234.89 141.75 234.73 145.30 C 233.63 141.87 234.00 138.24 234.22 134.71 Z" />
</g>
<g id="#c1d2ceff">
<path fill="#c1d2ce" opacity="1.00" d=" M 147.02 137.16 C 148.00 136.78 148.98 136.39 149.96 135.99 C 150.03 136.76 150.17 138.30 150.23 139.07 C 149.18 139.46 148.13 139.83 147.07 140.19 C 147.06 139.43 147.03 137.91 147.02 137.16 Z" />
</g>
<g id="#43735eff">
<path fill="#43735e" opacity="1.00" d=" M 185.23 135.71 C 187.21 142.38 185.49 149.48 185.63 156.30 C 184.11 149.55 185.33 142.54 185.23 135.71 Z" />
</g>
<g id="#0c1035ff">
<path fill="#0c1035" opacity="1.00" d=" M 109.04 137.13 C 114.42 136.98 119.79 136.84 125.17 136.70 C 126.84 136.97 126.96 138.54 127.23 139.89 C 127.25 142.31 127.14 144.86 124.01 144.02 C 115.54 140.55 120.41 150.50 119.27 153.70 C 119.15 156.90 118.68 160.19 119.76 163.28 C 119.32 167.30 108.26 167.42 112.79 160.30 C 113.45 155.69 114.32 151.08 113.94 146.41 C 105.87 149.19 110.22 140.13 109.04 137.13 Z" />
</g>
<g id="#4e6870ff">
<path fill="#4e6870" opacity="1.00" d=" M 146.01 137.03 L 147.02 137.16 C 147.03 137.91 147.06 139.43 147.07 140.19 C 146.99 143.90 146.81 147.58 146.69 151.30 C 145.39 146.66 146.18 141.77 146.01 137.03 Z" />
</g>
<g id="#656284ff">
<path fill="#656284" opacity="1.00" d=" M 212.47 141.97 C 211.46 140.83 211.01 137.33 213.00 137.22 C 213.22 138.82 213.11 140.46 212.47 141.97 Z" />
</g>
<g id="#cac6e3ff">
<path fill="#cac6e3" opacity="1.00" d=" M 213.00 137.22 C 218.47 135.27 215.76 143.80 217.05 146.99 C 210.52 150.74 211.78 144.76 212.47 141.97 C 213.11 140.46 213.22 138.82 213.00 137.22 Z" />
</g>
<g id="#68a882ff">
<path fill="#68a882" opacity="1.00" d=" M 271.05 138.03 C 278.19 135.99 274.18 145.81 274.95 149.97 C 267.80 152.01 271.81 142.18 271.05 138.03 Z" />
</g>
<g id="#8a9d9cff">
<path fill="#8a9d9c" opacity="1.00" d=" M 7.91 138.67 C 8.80 139.47 11.35 139.43 10.94 141.07 C 9.39 148.28 12.02 160.59 0.00 156.02 L 0.00 154.09 C 10.62 157.30 7.74 144.84 7.91 138.67 Z" />
</g>
<g id="#0d1036ff">
<path fill="#0d1036" opacity="1.00" d=" M 66.80 140.76 C 70.65 136.71 77.32 139.91 82.15 138.83 C 84.98 140.66 84.61 144.76 85.40 147.71 C 85.18 152.54 85.09 157.39 85.17 162.24 C 85.10 162.89 84.95 164.19 84.88 164.84 C 84.65 165.15 84.20 165.77 83.97 166.08 C 79.00 166.92 73.94 166.97 68.91 167.13 C 64.27 162.31 66.39 154.92 65.91 148.83 C 66.26 146.14 66.53 143.44 66.80 140.76 M 73.22 146.10 C 70.25 148.87 72.84 153.95 71.44 157.37 C 66.84 164.61 82.77 165.24 78.04 157.00 C 77.86 153.14 80.05 143.98 73.22 146.10 Z" />
</g>
<g id="#75a38aff">
<path fill="#75a38a" opacity="1.00" d=" M 62.98 140.79 C 64.25 140.73 65.53 140.74 66.80 140.76 C 66.53 143.44 66.26 146.14 65.91 148.83 C 64.44 152.57 66.66 158.16 64.15 161.21 C 63.93 157.38 63.65 153.55 63.30 149.73 C 63.07 146.76 62.99 143.76 62.98 140.79 Z" />
</g>
<g id="#4f6467ff">
<path fill="#4f6467" opacity="1.00" d=" M 46.17 140.94 C 50.60 142.98 48.06 152.09 49.82 156.68 C 48.27 158.05 48.51 160.76 46.89 161.81 C 47.31 154.85 46.84 147.87 46.17 140.94 Z" />
</g>
<g id="#3d5b61ff">
<path fill="#3d5b61" opacity="1.00" d=" M 92.24 142.63 C 92.78 143.30 93.21 144.04 93.53 144.84 C 92.03 150.68 94.46 158.67 91.98 163.00 C 92.02 156.21 91.87 149.41 92.24 142.63 Z" />
</g>
<g id="#5e9475ff">
<path fill="#5e9475" opacity="1.00" d=" M 168.28 147.03 C 169.04 145.90 169.83 144.79 170.70 143.74 C 171.61 149.20 172.62 154.65 173.94 160.03 C 173.30 164.70 179.22 167.18 177.18 171.77 C 177.58 173.77 177.92 176.26 180.30 176.73 C 183.96 178.31 183.02 173.25 184.02 171.10 C 185.27 168.55 186.68 165.85 186.36 162.91 C 189.99 163.03 193.60 163.17 197.24 163.30 C 192.60 163.13 191.52 167.08 190.90 170.86 C 190.47 171.95 190.06 173.04 189.67 174.15 C 188.61 178.11 187.15 182.04 186.85 186.16 C 187.97 183.66 192.07 179.30 190.41 187.57 C 191.72 191.86 190.50 199.43 194.76 202.18 C 191.43 203.51 186.20 200.08 188.80 195.80 C 185.15 196.25 184.96 200.62 182.33 202.18 C 185.85 197.34 173.61 190.91 176.64 199.66 C 172.73 203.62 165.44 197.09 162.79 202.76 L 162.10 202.86 C 149.82 195.90 138.96 185.32 133.82 172.01 C 140.38 174.32 143.89 181.46 150.07 184.16 C 151.17 185.53 149.81 190.29 151.82 186.78 C 152.40 182.99 153.80 187.14 154.23 188.67 C 157.25 185.70 162.69 189.57 164.42 192.73 C 166.26 189.24 168.06 193.45 170.03 194.58 C 172.06 193.31 174.19 193.83 176.23 194.76 C 174.45 188.37 171.66 182.29 170.03 175.84 C 169.68 174.54 169.32 173.25 168.99 171.94 C 168.04 166.22 168.15 160.46 168.49 154.69 C 168.65 152.13 168.43 149.57 168.28 147.03 Z" />
</g>
<g id="#4e7561ff">
<path fill="#4e7561" opacity="1.00" d=" M 280.41 144.73 C 281.81 146.80 283.05 148.96 284.12 151.22 C 283.54 154.38 282.99 157.57 286.66 156.33 C 286.41 159.82 289.39 161.24 291.93 162.80 C 283.42 161.94 287.40 174.90 277.89 171.92 C 276.77 170.89 275.70 169.80 274.63 168.73 C 274.11 167.81 273.57 166.91 273.11 165.97 C 276.05 166.09 278.92 166.05 281.89 166.08 C 277.88 159.42 278.22 151.91 280.41 144.73 Z" />
</g>
<g id="#72a784ff">
<path fill="#72a784" opacity="1.00" d=" M 73.22 146.10 C 80.05 143.98 77.86 153.14 78.04 157.00 C 82.77 165.24 66.84 164.61 71.44 157.37 C 72.84 153.95 70.25 148.87 73.22 146.10 Z" />
</g>
<g id="#487b5dff">
<path fill="#487b5d" opacity="1.00" d=" M 227.66 154.18 C 228.06 151.38 228.43 148.56 228.83 145.77 C 228.90 148.73 228.99 151.67 229.14 154.64 C 228.77 154.53 228.03 154.30 227.66 154.18 Z" />
</g>
<g id="#b0ccb8ff">
<path fill="#b0ccb8" opacity="1.00" d=" M 124.05 146.86 C 125.91 147.99 127.59 149.57 127.04 151.97 C 123.10 153.34 123.92 149.47 124.05 146.86 Z" />
</g>
<g id="#5c9871ff">
<path fill="#5c9871" opacity="1.00" d=" M 192.87 155.21 C 193.98 151.17 197.43 148.61 201.11 147.05 C 199.82 149.42 198.42 151.73 197.14 154.11 C 195.74 154.56 194.30 154.89 192.87 155.21 Z" />
</g>
<g id="#385d56ff">
<path fill="#385d56" opacity="1.00" d=" M 85.40 147.71 C 86.63 152.47 85.92 157.45 85.17 162.24 C 85.09 157.39 85.18 152.54 85.40 147.71 Z" />
</g>
<g id="#64a77bff">
<path fill="#64a77b" opacity="1.00" d=" M 52.83 161.88 C 55.69 158.11 54.44 152.59 57.00 148.76 C 57.24 153.19 56.10 157.55 56.04 161.98 C 55.75 166.02 63.82 160.49 64.52 164.43 C 64.74 167.78 65.06 171.36 67.17 174.13 C 69.80 172.77 68.41 169.49 68.91 167.13 C 73.94 166.97 79.00 166.92 83.97 166.08 C 83.69 166.48 83.14 167.27 82.86 167.67 C 82.30 167.97 81.18 168.58 80.62 168.88 C 79.97 175.89 81.81 184.91 75.15 189.89 C 74.86 189.91 74.28 189.96 73.99 189.98 C 73.66 184.38 65.30 187.73 61.99 186.06 C 53.73 183.19 56.13 191.07 58.00 194.80 C 50.96 191.04 43.52 196.79 36.92 193.70 C 37.23 192.51 37.56 191.34 37.93 190.17 C 42.16 188.07 42.41 180.69 40.08 176.70 C 40.09 171.37 44.41 167.41 45.27 162.33 C 45.67 162.20 46.48 161.94 46.89 161.81 C 48.51 160.76 48.27 158.05 49.82 156.68 C 50.79 158.34 50.03 162.59 52.83 161.88 Z" />
</g>
<g id="#54806aff">
<path fill="#54806a" opacity="1.00" d=" M 64.15 161.21 C 66.66 158.16 64.44 152.57 65.91 148.83 C 66.39 154.92 64.27 162.31 68.91 167.13 C 68.41 169.49 69.80 172.77 67.17 174.13 C 65.06 171.36 64.74 167.78 64.52 164.43 C 63.82 160.49 55.75 166.02 56.04 161.98 C 65.71 165.39 63.10 155.94 63.30 149.73 C 63.65 153.55 63.93 157.38 64.15 161.21 Z" />
</g>
<g id="#518969ff">
<path fill="#518969" opacity="1.00" d=" M 88.04 163.01 C 85.10 160.34 88.07 152.86 87.82 148.76 C 87.92 153.51 87.99 158.25 88.04 163.01 Z" />
</g>
<g id="#9ab4afff">
<path fill="#9ab4af" opacity="1.00" d=" M 240.95 157.09 C 242.07 154.26 241.94 150.29 244.89 148.66 C 244.92 150.51 244.96 154.23 244.98 156.09 C 243.65 156.46 242.29 156.78 240.95 157.09 Z" />
</g>
<g id="#c1c6e0ff">
<path fill="#c1c6e0" opacity="1.00" d=" M 260.75 158.21 C 259.78 154.89 260.51 152.72 262.94 151.72 C 262.96 153.56 263.00 157.23 263.02 159.07 C 262.48 159.27 261.40 159.68 260.87 159.88 C 260.84 159.47 260.78 158.63 260.75 158.21 Z" />
</g>
<g id="#4e7471ff">
<path fill="#4e7471" opacity="1.00" d=" M 119.27 153.70 C 120.30 156.80 119.94 160.06 119.76 163.28 C 118.68 160.19 119.15 156.90 119.27 153.70 Z" />
</g>
<g id="#556d76ff">
<path fill="#556d76" opacity="1.00" d=" M 199.96 154.05 C 201.87 154.47 201.69 162.87 199.98 162.90 C 200.00 159.95 199.96 156.99 199.96 154.05 Z" />
</g>
<g id="#a6c9beff">
<path fill="#a6c9be" opacity="1.00" d=" M 208.97 156.89 C 207.06 152.88 216.01 151.68 214.96 155.98 C 211.77 162.31 217.30 160.74 220.14 161.21 C 214.45 166.59 215.16 176.60 216.24 184.14 C 215.49 184.95 214.72 185.74 213.93 186.52 C 212.72 182.40 214.23 177.47 211.18 174.05 C 211.37 172.24 212.54 170.82 213.30 169.24 C 210.71 166.21 215.31 162.91 211.66 160.28 C 213.83 156.90 212.84 154.85 208.97 156.89 Z" />
</g>
<g id="#abcbc1ff">
<path fill="#abcbc1" opacity="1.00" d=" M 222.67 157.33 C 221.97 153.62 224.91 153.73 227.66 154.18 C 228.03 154.30 228.77 154.53 229.14 154.64 C 229.55 154.68 230.37 154.77 230.78 154.81 C 234.47 154.29 233.96 155.84 231.92 157.96 C 228.81 157.01 225.92 158.81 222.87 158.30 L 222.67 157.33 Z" />
</g>
<g id="#6bb57fff">
<path fill="#6bb57f" opacity="1.00" d=" M 240.95 157.09 C 242.29 156.78 243.65 156.46 244.98 156.09 C 243.51 164.35 256.40 158.26 260.87 159.88 C 261.40 159.68 262.48 159.27 263.02 159.07 C 258.35 167.50 270.16 165.62 268.13 159.81 C 274.03 164.34 266.24 166.08 264.44 170.13 C 266.44 173.26 264.52 175.90 262.28 178.21 C 259.81 172.85 259.33 180.58 259.06 182.93 C 253.32 180.32 246.77 180.86 240.65 180.25 C 243.74 183.30 248.28 183.66 252.24 184.89 C 254.60 189.89 243.11 188.61 247.40 194.90 C 247.44 198.49 248.70 205.83 243.08 203.39 C 240.16 204.90 238.27 209.80 233.45 207.64 C 228.92 207.95 220.22 213.38 219.39 206.07 C 217.88 205.70 214.32 207.91 215.22 205.07 C 215.19 201.51 217.53 196.81 214.84 193.71 C 225.99 183.55 236.79 172.04 240.95 157.09 M 260.13 166.10 C 258.04 168.43 257.08 175.75 261.99 173.98 C 261.77 171.33 263.52 166.64 260.13 166.10 Z" />
</g>
<g id="#5da274ff">
<path fill="#5da274" opacity="1.00" d=" M 268.13 159.81 C 267.84 157.50 267.67 154.92 270.77 156.14 C 271.86 159.34 271.73 162.86 273.11 165.97 C 273.57 166.91 274.11 167.81 274.63 168.73 C 273.78 172.21 276.65 175.38 274.81 178.78 C 271.17 182.17 266.50 180.92 262.12 182.11 C 262.16 180.81 262.21 179.51 262.28 178.21 C 264.52 175.90 266.44 173.26 264.44 170.13 C 266.24 166.08 274.03 164.34 268.13 159.81 Z" />
</g>
<g id="#3c7b52ff">
<path fill="#3c7b52" opacity="1.00" d=" M -0.00 156.92 C 2.49 157.04 4.98 157.23 7.46 157.47 C 6.72 164.68 6.77 172.08 9.00 179.03 C 6.93 178.38 2.73 174.17 2.09 177.97 C 5.35 183.89 9.38 189.40 12.63 195.33 C 12.77 201.58 15.06 207.71 14.17 214.01 C 9.86 215.43 2.93 212.22 0.65 216.21 L 0.00 215.93 L 0.00 156.92 Z" />
</g>
<g id="#a7cebfff">
<path fill="#a7cebf" opacity="1.00" d=" M 161.99 158.16 C 163.46 157.81 164.90 157.35 166.30 156.78 C 165.52 159.97 166.20 164.33 163.01 166.22 C 163.00 163.45 164.67 160.20 161.99 158.16 Z" />
</g>
<g id="#77bd89ff">
<path fill="#77bd89" opacity="1.00" d=" M 222.87 158.30 C 225.92 158.81 228.81 157.01 231.92 157.96 C 230.50 168.49 222.78 176.38 216.24 184.14 C 215.16 176.60 214.45 166.59 220.14 161.21 C 222.20 161.28 223.42 160.47 222.87 158.30 Z" />
</g>
<g id="#b4cac7ff">
<path fill="#b4cac7" opacity="1.00" d=" M 122.41 166.27 C 125.10 164.76 124.44 160.18 126.98 160.00 C 126.26 173.01 128.26 185.77 128.13 198.94 C 129.67 204.91 141.86 197.56 141.79 203.69 C 137.05 206.55 131.25 207.97 125.73 207.55 C 120.01 202.68 133.21 189.92 120.54 190.61 C 114.30 191.71 108.14 193.95 101.69 193.77 C 99.14 193.45 96.86 192.10 95.63 189.79 C 104.59 187.56 113.72 188.47 122.78 188.90 C 120.70 181.23 126.60 173.57 122.41 166.27 Z" />
</g>
<g id="#74a856ff">
<path fill="#74a856" opacity="1.00" d=" M 83.97 166.08 C 84.20 165.77 84.65 165.15 84.88 164.84 C 87.73 173.45 90.98 181.94 95.63 189.79 C 96.86 192.10 99.14 193.45 101.69 193.77 C 102.88 199.05 106.72 202.82 110.84 206.07 C 112.42 208.50 114.47 212.32 110.38 213.40 C 104.76 215.23 112.56 210.02 109.31 207.71 C 107.71 204.95 103.47 205.69 102.40 202.54 C 98.75 195.46 90.89 191.39 88.19 183.74 C 87.32 177.98 83.91 173.30 82.86 167.67 C 83.14 167.27 83.69 166.48 83.97 166.08 Z" />
</g>
<g id="#b4c4c0ff">
<path fill="#b4c4c0" opacity="1.00" d=" M 260.13 166.10 C 263.52 166.64 261.77 171.33 261.99 173.98 C 257.08 175.75 258.04 168.43 260.13 166.10 Z" />
</g>
<g id="#69927cff">
<path fill="#69927c" opacity="1.00" d=" M 308.83 171.92 C 309.64 170.51 309.11 165.89 311.56 167.60 C 314.34 169.85 316.89 166.24 320.00 166.74 L 320.00 170.77 C 315.88 172.81 311.71 167.65 308.83 171.92 Z" />
</g>
<g id="#597d4bff">
<path fill="#597d4b" opacity="1.00" d=" M 80.62 168.88 C 81.18 168.58 82.30 167.97 82.86 167.67 C 83.91 173.30 87.32 177.98 88.19 183.74 C 90.89 191.39 98.75 195.46 102.40 202.54 C 103.47 205.69 107.71 204.95 109.31 207.71 C 112.56 210.02 104.76 215.23 110.38 213.40 C 110.24 215.33 109.34 216.64 107.29 215.78 C 99.13 208.33 91.94 199.76 87.23 189.70 C 86.99 189.23 86.51 188.29 86.27 187.81 C 85.44 184.73 84.42 181.72 83.32 178.73 C 82.67 175.38 81.54 172.15 80.62 168.88 Z" />
</g>
<g id="#b5c7c6ff">
<path fill="#b5c7c6" opacity="1.00" d=" M 75.15 189.89 C 81.81 184.91 79.97 175.89 80.62 168.88 C 81.54 172.15 82.67 175.38 83.32 178.73 C 82.74 182.77 79.43 190.10 86.27 187.81 C 86.51 188.29 86.99 189.23 87.23 189.70 C 83.43 192.56 79.26 190.54 75.15 189.89 Z" />
</g>
<g id="#8eb39eff">
<path fill="#8eb39e" opacity="1.00" d=" M 274.81 178.78 C 276.65 175.38 273.78 172.21 274.63 168.73 C 275.70 169.80 276.77 170.89 277.89 171.92 C 277.62 174.19 278.54 181.72 274.81 178.78 Z" />
</g>
<g id="#427c51ff">
<path fill="#427c51" opacity="1.00" d=" M 308.83 171.92 C 311.71 167.65 315.88 172.81 320.00 170.77 L 320.00 188.14 C 315.60 187.67 310.99 187.69 306.89 185.90 C 305.31 184.20 303.61 182.55 302.45 180.53 C 304.55 177.64 307.29 175.19 308.83 171.92 Z" />
</g>
<g id="#b3c9c4ff">
<path fill="#b3c9c4" opacity="1.00" d=" M 177.18 171.77 C 179.43 171.33 181.73 171.29 184.02 171.10 C 183.02 173.25 183.96 178.31 180.30 176.73 C 177.92 176.26 177.58 173.77 177.18 171.77 Z" />
</g>
<g id="#adcdc1ff">
<path fill="#adcdc1" opacity="1.00" d=" M 190.90 170.86 C 197.62 172.02 205.39 169.87 211.18 174.05 C 204.02 175.31 196.78 173.68 189.67 174.15 C 190.06 173.04 190.47 171.95 190.90 170.86 Z" />
</g>
<g id="#b7d0cbff">
<path fill="#b7d0cb" opacity="1.00" d=" M 162.97 173.06 C 164.47 172.78 167.48 172.22 168.99 171.94 C 169.32 173.25 169.68 174.54 170.03 175.84 C 167.58 175.38 162.63 177.08 162.97 173.06 Z" />
</g>
<g id="#538867ff">
<path fill="#538867" opacity="1.00" d=" M 277.89 171.92 C 280.75 174.04 283.46 176.35 286.11 178.74 C 283.60 179.63 280.96 179.80 278.32 179.71 C 276.40 182.46 274.66 185.32 272.96 188.20 C 269.59 188.48 266.15 187.91 263.10 189.75 C 262.22 187.83 261.64 185.50 258.99 186.02 C 256.71 185.79 254.46 185.40 252.24 184.89 C 248.28 183.66 243.74 183.30 240.65 180.25 C 246.77 180.86 253.32 180.32 259.06 182.93 C 260.53 183.67 262.40 184.78 262.12 182.11 C 266.50 180.92 271.17 182.17 274.81 178.78 C 278.54 181.72 277.62 174.19 277.89 171.92 Z" />
</g>
<g id="#75c08aff">
<path fill="#75c08a" opacity="1.00" d=" M 189.67 174.15 C 196.78 173.68 204.02 175.31 211.18 174.05 C 214.23 177.47 212.72 182.40 213.93 186.52 C 208.69 191.70 202.78 196.05 196.81 200.32 C 196.11 200.92 195.42 201.54 194.76 202.18 C 190.50 199.43 191.72 191.86 190.41 187.57 C 192.07 179.30 187.97 183.66 186.85 186.16 C 187.15 182.04 188.61 178.11 189.67 174.15 Z" />
</g>
<g id="#3a5b47ff">
<path fill="#3a5b47" opacity="1.00" d=" M 2.09 177.97 C 2.73 174.17 6.93 178.38 9.00 179.03 C 13.12 184.16 16.60 189.71 18.77 195.96 C 19.07 196.42 19.67 197.36 19.96 197.83 C 21.89 208.60 25.57 219.03 26.16 230.05 C 33.69 222.19 41.43 214.42 50.97 208.95 C 55.46 206.51 53.54 212.72 50.57 213.59 C 49.33 221.94 41.58 226.57 36.92 233.04 C 43.28 235.27 50.15 235.12 56.53 237.29 C 57.63 237.67 58.73 238.04 59.84 238.39 C 61.39 238.92 62.95 239.44 64.49 240.00 L 0.00 240.00 L 0.00 215.93 L 0.65 216.21 C 2.93 218.47 5.72 213.44 7.09 216.96 C 8.18 219.02 9.88 217.16 10.92 216.16 C 9.87 221.58 16.19 217.10 14.17 214.01 C 15.06 207.71 12.77 201.58 12.63 195.33 C 9.38 189.40 5.35 183.89 2.09 177.97 Z" />
</g>
<g id="#abc0b9ff">
<path fill="#abc0b9" opacity="1.00" d=" M 259.06 182.93 C 259.33 180.58 259.81 172.85 262.28 178.21 C 262.21 179.51 262.16 180.81 262.12 182.11 C 262.40 184.78 260.53 183.67 259.06 182.93 Z" />
</g>
<g id="#91aba0ff">
<path fill="#91aba0" opacity="1.00" d=" M 40.08 176.70 C 42.41 180.69 42.16 188.07 37.93 190.17 C 38.18 185.61 39.16 181.16 40.08 176.70 Z" />
</g>
<g id="#78b18eff">
<path fill="#78b18e" opacity="1.00" d=" M 83.32 178.73 C 84.42 181.72 85.44 184.73 86.27 187.81 C 79.43 190.10 82.74 182.77 83.32 178.73 Z" />
</g>
<g id="#6f8f6bff">
<path fill="#6f8f6b" opacity="1.00" d=" M 294.22 181.09 C 296.10 180.44 298.38 181.56 298.01 183.78 C 295.48 183.31 293.72 185.34 296.72 186.43 C 296.90 191.18 289.66 183.13 294.22 181.09 Z" />
</g>
<g id="#60aa77ff">
<path fill="#60aa77" opacity="1.00" d=" M 252.24 184.89 C 254.46 185.40 256.71 185.79 258.99 186.02 C 260.20 193.89 256.93 201.76 257.63 209.72 C 250.10 218.35 241.51 227.22 229.05 226.50 C 225.72 227.27 223.64 224.16 221.80 221.93 C 219.52 221.74 217.64 223.25 215.72 224.24 C 215.51 222.58 215.36 220.91 215.16 219.25 C 217.68 219.36 216.57 217.35 216.09 215.88 C 226.09 219.64 240.58 214.24 243.08 203.39 C 248.70 205.83 247.44 198.49 247.40 194.90 C 243.11 188.61 254.60 189.89 252.24 184.89 Z" />
</g>
<g id="#b8bccaff">
<path fill="#b8bcca" opacity="1.00" d=" M 58.00 194.80 C 56.13 191.07 53.73 183.19 61.99 186.06 C 65.30 187.73 73.66 184.38 73.99 189.98 C 70.86 192.32 67.10 192.93 63.28 193.29 C 62.44 196.16 62.08 199.13 61.98 202.11 C 56.62 206.90 62.36 197.97 57.11 196.92 C 57.33 196.39 57.78 195.33 58.00 194.80 Z" />
</g>
<g id="#a0b8b2ff">
<path fill="#a0b8b2" opacity="1.00" d=" M 258.99 186.02 C 261.64 185.50 262.22 187.83 263.10 189.75 C 266.15 187.91 269.59 188.48 272.96 188.20 C 274.34 188.10 275.74 188.02 277.13 187.95 C 280.48 195.93 266.51 191.84 262.38 191.00 C 259.38 200.43 261.88 210.19 259.77 219.79 C 256.46 219.87 260.35 212.50 257.63 209.72 C 256.93 201.76 260.20 193.89 258.99 186.02 Z" />
</g>
<g id="#3f6725ff">
<path fill="#3f6725" opacity="1.00" d=" M 304.68 188.60 C 304.91 187.28 305.24 185.87 306.89 185.90 C 310.99 187.69 315.60 187.67 320.00 188.14 L 320.00 192.27 C 314.81 191.41 309.71 190.11 304.68 188.60 Z" />
</g>
<g id="#56996bff">
<path fill="#56996b" opacity="1.00" d=" M 277.13 187.95 C 280.78 187.56 284.37 186.89 288.06 186.92 C 281.37 194.33 276.53 203.11 271.78 211.84 C 269.85 215.39 268.48 219.21 267.07 222.98 C 263.22 223.41 257.86 223.60 261.86 228.33 C 265.96 232.36 261.56 236.08 259.77 240.00 L 216.04 240.00 C 216.04 238.69 216.04 237.38 216.04 236.07 C 216.05 234.40 216.03 232.73 215.98 231.06 C 224.89 238.00 236.58 240.79 247.70 238.72 C 250.09 237.60 252.82 235.81 253.11 232.96 C 249.68 232.10 246.96 236.47 243.68 234.35 C 239.59 232.27 235.14 231.04 231.23 228.61 C 228.82 230.61 228.67 228.95 229.05 226.50 C 241.51 227.22 250.10 218.35 257.63 209.72 C 260.35 212.50 256.46 219.87 259.77 219.79 C 261.88 210.19 259.38 200.43 262.38 191.00 C 266.51 191.84 280.48 195.93 277.13 187.95 M 258.43 222.47 C 255.31 224.27 250.33 223.04 252.03 228.11 C 255.68 225.25 255.89 228.14 259.78 228.11 C 257.85 226.45 261.11 220.77 258.43 222.47 Z" />
</g>
<g id="#3d7b51ff">
<path fill="#3d7b51" opacity="1.00" d=" M 308.09 198.13 C 307.70 194.68 304.00 192.11 304.68 188.60 C 309.71 190.11 314.81 191.41 320.00 192.27 L 320.00 206.79 C 317.34 206.81 314.68 207.27 312.78 209.30 C 309.58 206.52 311.70 200.97 308.09 198.13 Z" />
</g>
<g id="#68b27dff">
<path fill="#68b27d" opacity="1.00" d=" M 63.28 193.29 C 67.10 192.93 70.86 192.32 73.99 189.98 C 74.28 189.96 74.86 189.91 75.15 189.89 C 79.26 190.54 83.43 192.56 87.23 189.70 C 91.94 199.76 99.13 208.33 107.29 215.78 C 109.34 216.64 110.24 215.33 110.38 213.40 C 114.47 212.32 112.42 208.50 110.84 206.07 C 117.76 208.21 122.09 215.59 116.06 220.95 C 123.46 222.04 133.31 226.01 139.08 222.29 C 143.54 223.94 148.37 224.00 153.08 224.05 C 151.94 227.96 152.82 231.51 154.88 234.89 C 153.36 236.41 151.63 237.63 152.94 240.00 L 141.34 240.00 C 137.21 235.08 130.59 236.49 125.16 234.87 C 120.73 229.30 112.72 231.93 106.65 231.35 C 103.17 230.81 104.76 225.49 101.59 224.45 C 93.38 221.21 86.88 214.84 80.69 208.79 C 82.03 202.54 71.05 207.42 72.01 201.29 C 73.56 200.73 76.78 201.68 75.98 199.01 C 71.07 198.55 66.14 199.35 61.98 202.11 C 62.08 199.13 62.44 196.16 63.28 193.29 Z" />
</g>
<g id="#94aea7ff">
<path fill="#94aea7" opacity="1.00" d=" M 36.92 193.70 C 43.52 196.79 50.96 191.04 58.00 194.80 C 57.78 195.33 57.33 196.39 57.11 196.92 C 53.66 196.65 49.83 197.45 46.85 195.27 C 43.21 199.09 37.83 198.16 33.21 196.86 C 30.50 198.94 27.53 197.02 26.85 193.97 C 30.43 192.85 34.99 197.57 36.92 193.70 Z" />
</g>
<g id="#81a097ff">
<path fill="#81a097" opacity="1.00" d=" M 18.77 195.96 C 19.32 193.47 24.56 194.00 26.00 195.10 C 28.86 199.99 22.68 196.71 19.96 197.83 C 19.67 197.36 19.07 196.42 18.77 195.96 Z" />
</g>
<g id="#bac6c9ff">
<path fill="#bac6c9" opacity="1.00" d=" M 213.95 194.26 L 214.84 193.71 C 217.53 196.81 215.19 201.51 215.22 205.07 C 212.67 204.93 210.06 205.03 211.96 201.78 C 213.71 198.70 209.14 195.59 213.95 194.26 Z" />
</g>
<g id="#57846aff">
<path fill="#57846a" opacity="1.00" d=" M 176.64 199.66 C 173.61 190.91 185.85 197.34 182.33 202.18 C 184.96 200.62 185.15 196.25 188.80 195.80 C 186.20 200.08 191.43 203.51 194.76 202.18 C 195.42 201.54 196.11 200.92 196.81 200.32 C 201.49 202.18 207.58 206.55 211.96 201.78 C 210.06 205.03 212.67 204.93 215.22 205.07 C 214.32 207.91 217.88 205.70 219.39 206.07 C 220.22 213.38 228.92 207.95 233.45 207.64 C 238.27 209.80 240.16 204.90 243.08 203.39 C 240.58 214.24 226.09 219.64 216.09 215.88 C 213.36 215.46 212.35 218.37 215.16 219.25 C 215.36 220.91 215.51 222.58 215.72 224.24 C 215.39 226.17 215.00 228.08 214.66 230.01 L 213.91 229.58 C 209.07 226.99 204.57 223.85 200.00 220.84 C 200.86 222.97 202.17 224.86 203.50 226.73 C 200.94 227.40 203.97 228.37 204.80 229.23 C 207.16 230.39 206.70 233.38 207.57 235.50 C 210.17 236.09 212.64 237.25 213.49 240.00 L 205.31 240.00 C 199.63 234.65 196.45 227.30 191.11 221.72 C 190.39 227.94 190.84 234.65 194.41 240.00 L 184.17 240.00 C 183.31 232.02 181.87 224.11 181.92 216.05 C 174.37 221.31 165.55 224.79 156.17 224.01 C 155.39 224.02 153.85 224.04 153.08 224.05 C 148.37 224.00 143.54 223.94 139.08 222.29 C 135.85 220.63 131.73 219.60 129.96 216.11 C 132.17 214.00 135.21 216.76 137.85 216.48 C 141.43 214.52 145.17 217.76 148.87 217.97 C 149.45 212.35 157.12 216.55 160.96 215.98 C 159.86 214.40 158.67 212.88 157.67 211.24 C 160.92 213.16 164.76 212.59 168.36 212.87 C 168.35 207.66 176.65 210.48 179.33 208.64 C 175.44 205.51 170.00 205.76 165.46 204.01 C 164.79 203.70 163.46 203.07 162.79 202.76 C 165.44 197.09 172.73 203.62 176.64 199.66 M 193.97 206.01 C 194.22 208.35 194.79 210.64 195.25 212.95 C 201.40 214.49 199.87 203.24 193.97 206.01 M 186.25 209.10 C 182.88 211.15 188.54 216.81 191.03 214.07 C 196.13 212.30 190.38 205.41 186.25 209.10 Z" />
</g>
<g id="#5daa74ff">
<path fill="#5daa74" opacity="1.00" d=" M 66.12 205.34 C 68.30 204.32 70.28 202.97 72.01 201.29 C 71.05 207.42 82.03 202.54 80.69 208.79 C 86.88 214.84 93.38 221.21 101.59 224.45 C 104.76 225.49 103.17 230.81 106.65 231.35 C 112.72 231.93 120.73 229.30 125.16 234.87 C 130.59 236.49 137.21 235.08 141.34 240.00 L 89.73 240.00 C 92.56 238.08 94.28 234.30 89.61 233.68 C 85.36 233.54 85.12 227.41 80.55 227.42 C 79.25 219.44 68.61 220.67 66.31 213.62 C 66.06 210.83 65.94 208.11 66.12 205.34 Z" />
</g>
<g id="#a1d2b6ff">
<path fill="#a1d2b6" opacity="1.00" d=" M 158.02 205.71 C 157.08 202.72 160.17 203.31 162.10 202.86 L 162.79 202.76 C 163.46 203.07 164.79 203.70 165.46 204.01 C 163.65 206.34 160.57 205.52 158.02 205.71 Z" />
</g>
<g id="#407754ff">
<path fill="#407754" opacity="1.00" d=" M 297.90 206.93 C 298.89 205.31 302.24 200.97 303.42 204.31 C 303.80 209.89 307.16 215.95 311.61 218.50 C 316.88 217.77 314.77 215.19 313.82 211.69 C 315.88 211.43 317.94 211.11 320.00 210.84 L 320.00 240.00 L 289.79 240.00 C 288.78 235.99 286.97 231.58 289.78 227.95 C 285.22 223.78 291.64 218.28 289.48 213.11 C 291.79 210.41 292.39 207.28 291.16 203.92 C 298.90 204.47 294.64 217.31 298.11 222.10 C 300.22 218.98 302.39 215.81 303.73 212.27 C 301.82 210.46 299.74 208.82 297.90 206.93 M 311.36 223.37 C 309.72 223.57 306.44 223.99 304.80 224.19 C 306.90 228.37 312.86 224.63 316.21 225.96 C 315.02 224.33 313.65 222.25 311.36 223.37 M 290.90 224.04 C 290.45 228.39 296.81 226.93 298.98 227.01 C 300.77 221.69 293.22 225.00 290.90 224.04 Z" />
</g>
<g id="#accac2ff">
<path fill="#accac2" opacity="1.00" d=" M 155.19 204.13 C 159.34 203.55 158.23 214.35 152.97 211.83 C 153.49 209.24 153.48 206.26 155.19 204.13 Z" />
</g>
<g id="#559c69ff">
<path fill="#559c69" opacity="1.00" d=" M 61.88 208.63 C 63.24 207.47 64.59 206.28 66.12 205.34 C 65.94 208.11 66.06 210.83 66.31 213.62 C 68.61 220.67 79.25 219.44 80.55 227.42 C 85.12 227.41 85.36 233.54 89.61 233.68 C 94.28 234.30 92.56 238.08 89.73 240.00 L 64.49 240.00 C 62.95 239.44 61.39 238.92 59.84 238.39 C 60.31 238.23 61.27 237.89 61.75 237.73 C 61.76 228.04 62.78 218.25 61.88 208.63 Z" />
</g>
<g id="#7eab6cff">
<path fill="#7eab6c" opacity="1.00" d=" M 193.97 206.01 C 199.87 203.24 201.40 214.49 195.25 212.95 C 194.79 210.64 194.22 208.35 193.97 206.01 Z" />
</g>
<g id="#678b7aff">
<path fill="#678b7a" opacity="1.00" d=" M 312.78 209.30 C 314.68 207.27 317.34 206.81 320.00 206.79 L 320.00 210.84 C 317.94 211.11 315.88 211.43 313.82 211.69 C 313.50 210.87 313.15 210.08 312.78 209.30 Z" />
</g>
<g id="#9babaeff">
<path fill="#9babae" opacity="1.00" d=" M 59.65 222.48 C 63.02 218.32 55.33 209.15 61.88 208.63 C 62.78 218.25 61.76 228.04 61.75 237.73 C 61.27 237.89 60.31 238.23 59.84 238.39 C 58.73 238.04 57.63 237.67 56.53 237.29 C 59.47 232.24 55.87 227.22 59.65 222.48 Z" />
</g>
<g id="#8db980ff">
<path fill="#8db980" opacity="1.00" d=" M 186.25 209.10 C 190.38 205.41 196.13 212.30 191.03 214.07 C 188.54 216.81 182.88 211.15 186.25 209.10 Z" />
</g>
<g id="#4a845eff">
<path fill="#4a845e" opacity="1.00" d=" M 276.11 216.23 C 280.21 215.80 280.00 209.09 284.80 209.89 C 284.43 214.25 284.83 218.67 284.21 223.01 C 281.07 223.03 277.86 222.61 274.94 223.92 C 275.67 221.67 273.16 216.91 276.11 216.23 Z" />
</g>
<g id="#487c5bff">
<path fill="#487c5b" opacity="1.00" d=" M 267.07 222.98 C 268.48 219.21 269.85 215.39 271.78 211.84 C 272.82 215.43 272.59 219.13 272.11 222.81 C 269.58 228.42 278.35 230.96 279.30 225.40 C 280.73 225.96 282.13 226.61 283.58 227.16 C 283.77 231.49 285.85 235.58 286.06 240.00 L 259.77 240.00 C 261.56 236.08 265.96 232.36 261.86 228.33 C 265.61 228.93 266.60 226.08 267.07 222.98 Z" />
</g>
<g id="#6e9282ff">
<path fill="#6e9282" opacity="1.00" d=" M 0.65 216.21 C 2.93 212.22 9.86 215.43 14.17 214.01 C 16.19 217.10 9.87 221.58 10.92 216.16 C 9.88 217.16 8.18 219.02 7.09 216.96 C 5.72 213.44 2.93 218.47 0.65 216.21 Z" />
</g>
<g id="#66b17bff">
<path fill="#66b17b" opacity="1.00" d=" M 156.17 224.01 C 165.55 224.79 174.37 221.31 181.92 216.05 C 181.87 224.11 183.31 232.02 184.17 240.00 L 155.89 240.00 C 155.57 234.68 157.40 229.25 156.17 224.01 Z" />
</g>
<g id="#a2c5baff">
<path fill="#a2c5ba" opacity="1.00" d=" M 215.16 219.25 C 212.35 218.37 213.36 215.46 216.09 215.88 C 216.57 217.35 217.68 219.36 215.16 219.25 Z" />
</g>
<g id="#6ea582ff">
<path fill="#6ea582" opacity="1.00" d=" M 200.00 220.84 C 204.57 223.85 209.07 226.99 213.91 229.58 C 213.40 232.85 211.18 238.98 216.04 236.07 C 216.04 237.38 216.04 238.69 216.04 240.00 L 213.49 240.00 C 212.64 237.25 210.17 236.09 207.57 235.50 C 206.70 233.38 207.16 230.39 204.80 229.23 C 203.97 228.37 200.94 227.40 203.50 226.73 C 202.17 224.86 200.86 222.97 200.00 220.84 Z" />
</g>
<g id="#66a67cff">
<path fill="#66a67c" opacity="1.00" d=" M 191.11 221.72 C 196.45 227.30 199.63 234.65 205.31 240.00 L 194.41 240.00 C 190.84 234.65 190.39 227.94 191.11 221.72 Z" />
</g>
<g id="#4a725eff">
<path fill="#4a725e" opacity="1.00" d=" M 215.72 224.24 C 217.64 223.25 219.52 221.74 221.80 221.93 C 223.64 224.16 225.72 227.27 229.05 226.50 C 228.67 228.95 228.82 230.61 231.23 228.61 C 235.14 231.04 239.59 232.27 243.68 234.35 C 246.96 236.47 249.68 232.10 253.11 232.96 C 252.82 235.81 250.09 237.60 247.70 238.72 C 236.58 240.79 224.89 238.00 215.98 231.06 C 215.65 230.80 214.99 230.28 214.66 230.01 C 215.00 228.08 215.39 226.17 215.72 224.24 Z" />
</g>
<g id="#8cb09cff">
<path fill="#8cb09c" opacity="1.00" d=" M 258.43 222.47 C 261.11 220.77 257.85 226.45 259.78 228.11 C 255.89 228.14 255.68 225.25 252.03 228.11 C 250.33 223.04 255.31 224.27 258.43 222.47 Z" />
</g>
<g id="#94a9a6ff">
<path fill="#94a9a6" opacity="1.00" d=" M 261.86 228.33 C 257.86 223.60 263.22 223.41 267.07 222.98 C 266.60 226.08 265.61 228.93 261.86 228.33 Z" />
</g>
<g id="#8f9ea0ff">
<path fill="#8f9ea0" opacity="1.00" d=" M 272.11 222.81 C 273.49 225.18 275.57 229.26 274.94 223.92 C 277.86 222.61 281.07 223.03 284.21 223.01 C 284.01 224.40 283.80 225.78 283.58 227.16 C 282.13 226.61 280.73 225.96 279.30 225.40 C 278.35 230.96 269.58 228.42 272.11 222.81 Z" />
</g>
<g id="#809b91ff">
<path fill="#809b91" opacity="1.00" d=" M 311.36 223.37 C 313.65 222.25 315.02 224.33 316.21 225.96 C 312.86 224.63 306.90 228.37 304.80 224.19 C 306.44 223.99 309.72 223.57 311.36 223.37 Z" />
</g>
<g id="#a7c5b9ff">
<path fill="#a7c5b9" opacity="1.00" d=" M 153.08 224.05 C 153.85 224.04 155.39 224.02 156.17 224.01 C 157.40 229.25 155.57 234.68 155.89 240.00 L 152.94 240.00 C 151.63 237.63 153.36 236.41 154.88 234.89 C 152.82 231.51 151.94 227.96 153.08 224.05 Z" />
</g>
<g id="#739989ff">
<path fill="#739989" opacity="1.00" d=" M 290.90 224.04 C 293.22 225.00 300.77 221.69 298.98 227.01 C 296.81 226.93 290.45 228.39 290.90 224.04 Z" />
</g>
<g id="#abbfc1ff">
<path fill="#abbfc1" opacity="1.00" d=" M 216.04 236.07 C 211.18 238.98 213.40 232.85 213.91 229.58 L 214.66 230.01 C 214.99 230.28 215.65 230.80 215.98 231.06 C 216.03 232.73 216.05 234.40 216.04 236.07 Z" />
</g>
</svg>
