<?xml version="1.0" encoding="UTF-8" ?>
<!DOCTYPE svg PUBLIC "-//W3C//DTD SVG 1.1//EN" "http://www.w3.org/Graphics/SVG/1.1/DTD/svg11.dtd">
<svg width="320pt" height="240pt" viewBox="0 0 320 240" version="1.1" xmlns="http://www.w3.org/2000/svg">
<g id="#59554aff">
<path fill="#59554a" opacity="1.00" d=" M 0.00 0.00 L 8.52 0.00 C 7.35 4.49 1.46 0.35 0.00 5.32 L 0.00 0.00 Z" />
</g>
<g id="#3a3026ff">
<path fill="#3a3026" opacity="1.00" d=" M 8.52 0.00 L 23.70 0.00 C 24.21 5.29 27.27 9.62 32.51 11.04 C 26.83 14.50 23.77 4.53 18.55 4.64 C 16.86 5.79 15.04 6.69 13.17 7.49 C 14.57 11.38 15.06 15.84 18.01 18.94 C 20.40 21.00 21.00 23.54 18.59 25.91 C 16.29 22.83 14.36 20.41 14.85 26.09 C 12.26 23.78 8.34 16.68 14.31 20.86 C 11.24 17.01 9.87 9.08 3.86 9.98 C 4.17 12.95 8.60 15.67 5.23 18.19 C 3.03 19.89 2.48 23.24 5.47 24.43 C 8.51 24.73 8.46 30.20 6.05 31.01 C 2.64 29.12 1.10 25.11 0.00 21.54 L 0.00 5.32 C 1.46 0.35 7.35 4.49 8.52 0.00 Z" />
</g>
<g id="#836a50ff">
<path fill="#836a50" opacity="1.00" d=" M 23.70 0.00 L 64.18 0.00 C 62.84 1.36 61.51 2.73 60.06 3.97 C 55.92 -1.00 47.40 2.14 41.96 3.18 C 42.69 5.52 47.14 7.33 42.24 7.15 C 43.20 9.30 44.49 11.60 42.87 13.81 C 39.41 12.89 35.89 12.23 32.51 11.04 C 27.27 9.62 24.21 5.29 23.70 0.00 Z" />
</g>
<g id="#7a5e43ff">
<path fill="#7a5e43" opacity="1.00" d=" M 64.18 0.00 L 64.77 0.00 C 64.36 5.47 74.91 4.65 70.30 9.97 C 74.59 14.94 73.61 8.55 73.13 5.15 C 74.39 5.80 75.63 6.50 76.89 7.15 C 76.54 12.11 72.68 15.23 69.62 18.64 C 78.47 16.62 63.72 23.26 68.41 26.46 C 67.42 28.77 65.39 30.18 63.19 31.22 C 60.34 34.23 58.07 31.25 55.30 29.99 C 54.76 39.09 43.53 31.24 39.00 36.96 C 32.66 43.35 18.71 38.67 16.94 49.18 C 19.60 47.84 21.68 45.64 24.08 43.92 C 24.11 47.84 17.78 52.81 22.60 55.28 C 23.03 56.61 20.51 57.15 19.76 58.12 C 14.19 53.71 8.72 61.53 2.86 57.32 C -0.53 53.53 3.86 52.55 5.20 49.16 C 7.56 52.65 12.27 51.19 7.32 48.64 C 10.79 43.55 15.59 39.66 19.59 35.02 C 18.47 41.95 29.30 40.85 26.16 34.84 C 23.54 31.64 28.75 31.55 30.13 33.79 C 33.21 32.35 35.85 28.32 31.77 26.21 C 28.54 27.47 23.28 26.19 22.50 30.60 C 19.88 31.82 22.11 26.47 20.30 24.97 C 24.55 23.34 22.28 16.43 18.01 18.94 C 15.06 15.84 14.57 11.38 13.17 7.49 C 15.04 6.69 16.86 5.79 18.55 4.64 C 23.77 4.53 26.83 14.50 32.51 11.04 C 35.89 12.23 39.41 12.89 42.87 13.81 C 44.49 11.60 43.20 9.30 42.24 7.15 C 47.14 7.33 42.69 5.52 41.96 3.18 C 47.40 2.14 55.92 -1.00 60.06 3.97 C 61.51 2.73 62.84 1.36 64.18 0.00 Z" />
</g>
<g id="#85725aff">
<path fill="#85725a" opacity="1.00" d=" M 64.77 0.00 L 82.49 0.00 C 81.24 2.83 78.90 4.88 76.89 7.15 C 75.63 6.50 74.39 5.80 73.13 5.15 C 73.61 8.55 74.59 14.94 70.30 9.97 C 74.91 4.65 64.36 5.47 64.77 0.00 Z" />
</g>
<g id="#453527ff">
<path fill="#453527" opacity="1.00" d=" M 82.49 0.00 L 85.06 0.00 L 85.14 0.98 C 82.82 5.25 77.70 7.92 78.55 13.65 C 75.46 21.92 69.13 28.72 65.87 37.02 C 67.71 36.54 69.52 34.89 71.47 35.87 C 67.52 40.29 60.90 39.03 58.67 44.88 C 60.37 50.89 55.07 54.21 50.53 56.52 C 46.33 58.94 52.85 60.83 55.03 61.45 C 53.88 63.13 52.27 64.43 51.04 66.05 C 49.46 68.80 46.68 70.07 43.71 70.73 C 44.04 77.59 36.48 82.33 30.97 83.02 C 33.23 79.56 36.94 74.86 32.93 71.19 C 39.20 72.72 39.51 62.53 41.04 58.01 C 41.69 55.40 42.27 50.06 45.82 53.15 C 51.78 56.57 45.96 45.68 49.95 47.18 C 55.33 49.52 52.42 40.92 56.74 40.55 C 56.60 40.06 56.33 39.07 56.19 38.57 C 55.72 35.76 59.24 37.76 60.85 37.50 C 61.79 35.47 62.40 33.31 63.19 31.22 C 65.39 30.18 67.42 28.77 68.41 26.46 C 63.72 23.26 78.47 16.62 69.62 18.64 C 72.68 15.23 76.54 12.11 76.89 7.15 C 78.90 4.88 81.24 2.83 82.49 0.00 Z" />
</g>
<g id="#736c54ff">
<path fill="#736c54" opacity="1.00" d=" M 85.06 0.00 L 150.48 0.00 C 148.71 1.78 142.04 2.34 145.62 5.34 C 147.22 9.37 150.14 5.96 153.05 6.01 C 153.56 9.97 148.87 13.69 145.97 9.87 C 143.10 16.98 157.49 13.04 151.91 19.91 C 149.03 18.20 143.24 14.62 145.92 20.58 C 143.58 18.99 139.89 22.49 143.40 23.53 C 153.27 20.29 144.50 30.58 151.96 29.98 C 153.10 32.87 144.09 41.07 152.47 39.72 C 151.35 42.21 148.31 44.89 151.83 47.93 C 148.42 54.56 140.19 53.60 133.98 55.26 C 138.19 59.98 131.31 63.19 126.69 62.34 C 122.83 62.04 121.46 66.56 118.11 67.59 C 116.85 66.42 116.31 64.90 116.25 63.22 C 116.15 60.11 111.58 59.42 112.61 55.96 C 107.81 57.30 113.57 66.57 106.21 63.10 C 103.48 68.23 106.47 66.07 110.05 64.89 C 110.59 71.32 104.08 67.51 100.99 69.98 C 95.81 73.89 95.83 63.45 89.86 66.04 C 89.27 63.73 97.09 57.95 90.88 57.31 C 98.52 56.69 89.29 49.50 95.58 48.20 C 97.58 53.89 104.56 61.53 110.20 54.29 C 112.47 50.70 102.81 54.75 103.74 50.16 C 103.46 46.23 99.75 49.07 97.86 50.06 C 96.62 46.19 107.82 42.31 97.49 44.46 C 94.20 45.59 95.68 41.85 95.86 40.00 C 93.56 41.67 89.88 43.21 92.82 46.23 C 91.02 45.58 86.42 45.63 89.04 43.00 C 92.51 39.46 82.48 36.58 87.24 33.20 C 91.94 32.21 94.28 34.55 95.23 38.67 C 100.90 37.19 95.38 31.28 92.01 29.73 C 93.60 27.08 97.26 27.64 99.84 26.71 C 100.87 24.13 96.06 25.87 97.25 23.34 C 99.30 22.79 104.33 21.42 99.89 20.25 C 94.19 20.21 99.11 15.79 101.03 13.89 C 106.78 8.06 113.53 10.20 121.02 11.01 C 121.41 5.28 116.79 5.43 112.89 7.76 C 108.18 5.28 102.68 7.92 98.27 4.22 C 96.78 7.43 95.26 11.98 91.04 8.86 C 94.88 4.15 89.94 4.00 88.55 8.69 C 83.76 10.97 86.22 3.61 88.91 2.29 C 87.65 1.85 86.39 1.43 85.14 0.98 L 85.06 0.00 Z" />
</g>
<g id="#7f7a5fff">
<path fill="#7f7a5f" opacity="1.00" d=" M 150.48 0.00 L 181.41 0.00 C 181.21 2.78 179.56 4.66 176.75 3.44 C 177.54 5.42 181.39 10.69 176.86 9.35 C 173.12 10.18 166.85 17.86 172.65 19.88 C 171.52 13.73 179.07 14.33 177.81 19.79 C 173.50 24.58 181.72 25.03 185.01 26.00 C 183.22 30.21 182.71 35.84 177.68 37.51 C 175.61 37.29 173.59 37.08 173.61 39.81 C 170.86 39.12 168.15 38.13 166.07 36.13 C 164.06 37.66 164.15 40.14 164.03 42.42 C 160.55 48.08 154.61 38.31 152.71 44.58 C 158.95 42.30 158.22 47.97 153.19 49.27 C 152.85 48.94 152.17 48.26 151.83 47.93 C 148.31 44.89 151.35 42.21 152.47 39.72 C 144.09 41.07 153.10 32.87 151.96 29.98 C 144.50 30.58 153.27 20.29 143.40 23.53 C 139.89 22.49 143.58 18.99 145.92 20.58 C 143.24 14.62 149.03 18.20 151.91 19.91 C 157.49 13.04 143.10 16.98 145.97 9.87 C 148.87 13.69 153.56 9.97 153.05 6.01 C 150.14 5.96 147.22 9.37 145.62 5.34 C 142.04 2.34 148.71 1.78 150.48 0.00 M 167.16 15.16 C 166.16 19.80 171.80 14.16 167.16 15.16 Z" />
</g>
<g id="#7b745aff">
<path fill="#7b745a" opacity="1.00" d=" M 181.41 0.00 L 206.15 0.00 C 204.23 3.72 209.77 3.72 207.85 0.00 L 226.58 0.00 C 225.33 2.62 220.81 0.57 221.88 4.94 C 221.49 7.23 230.01 1.67 227.00 5.02 C 223.12 7.19 228.07 10.47 225.98 13.76 C 230.89 13.08 234.47 10.25 238.89 8.74 C 234.55 12.58 241.97 16.00 243.01 19.71 C 240.85 20.73 238.75 21.88 238.03 24.34 C 232.35 10.04 208.88 12.52 204.67 26.94 C 203.85 28.47 203.21 30.10 202.58 31.71 C 200.25 34.56 201.18 40.15 197.08 41.04 C 193.02 37.65 194.02 45.23 189.85 43.31 C 190.16 46.04 193.43 47.04 193.87 49.60 C 191.34 50.93 188.05 53.10 186.69 49.19 C 185.00 50.81 183.39 52.64 181.04 53.27 C 182.11 51.51 183.52 49.93 184.14 47.93 C 180.56 47.22 178.85 53.58 175.88 49.11 C 178.37 53.72 174.54 59.80 169.15 59.20 C 169.40 62.51 171.65 64.40 174.95 64.39 C 175.99 68.73 168.71 68.12 169.07 71.84 C 170.49 75.16 174.32 68.78 172.91 72.86 C 172.75 77.12 166.76 73.74 167.82 78.03 C 165.46 78.23 163.24 77.58 162.05 75.41 C 163.56 74.40 166.32 74.28 166.06 71.88 C 162.60 72.01 159.14 74.42 158.56 77.97 C 157.11 76.66 156.52 73.78 154.18 74.06 C 150.30 76.95 159.88 78.08 154.30 80.93 C 151.63 74.93 151.56 82.98 149.53 85.43 C 152.35 91.84 147.55 91.98 143.28 93.05 C 143.75 90.42 143.34 85.80 140.44 85.19 C 140.32 89.26 135.14 87.06 132.86 87.88 C 133.31 85.47 134.33 83.23 135.02 80.89 C 128.34 82.40 129.12 88.90 126.60 94.00 C 124.64 92.71 123.32 90.46 120.97 89.83 C 121.04 92.21 121.63 94.52 122.09 96.84 C 119.09 92.95 112.28 97.92 115.68 101.20 C 114.36 100.92 113.03 100.39 111.66 100.53 C 109.14 108.40 106.90 118.08 103.45 124.59 C 107.46 126.69 104.15 130.12 103.07 133.09 C 104.10 128.59 98.89 126.17 99.45 121.83 C 100.68 115.21 94.06 115.51 89.24 116.44 C 87.64 113.31 86.23 109.20 89.10 106.31 C 93.61 107.03 98.13 108.23 102.74 107.99 C 102.68 105.83 102.71 103.66 102.44 101.51 C 97.91 100.96 93.32 101.07 88.79 100.52 C 94.29 103.94 99.79 95.43 94.28 92.90 C 90.59 92.39 86.75 91.75 84.19 88.74 C 84.90 91.50 89.21 98.22 81.60 94.56 C 79.60 92.64 76.92 91.85 74.72 90.23 C 78.89 91.71 82.30 90.89 82.00 85.87 C 76.41 90.85 78.20 81.17 72.98 80.84 C 73.25 83.30 76.89 87.48 72.40 87.51 C 69.73 88.89 72.01 85.17 71.97 83.90 C 70.48 85.72 67.81 88.72 66.01 85.49 C 68.09 84.72 72.35 83.49 70.50 80.47 C 69.74 78.16 66.04 73.97 69.82 72.75 C 71.43 72.25 71.97 70.47 71.20 69.05 C 78.83 73.19 77.98 65.08 80.88 61.23 C 84.83 63.98 84.86 63.10 82.71 59.18 C 85.00 59.98 87.22 60.95 89.31 62.19 C 88.03 64.68 86.53 66.84 84.11 64.14 C 86.28 67.80 80.53 68.80 83.68 72.09 C 82.93 75.56 75.35 70.96 74.94 75.92 C 76.39 75.69 77.82 75.39 79.27 75.18 C 77.54 76.67 74.56 77.10 74.80 79.97 C 78.06 78.78 82.41 73.28 85.21 77.87 C 79.82 75.34 81.14 79.98 82.16 83.66 C 86.41 82.56 93.69 82.86 88.72 77.38 C 96.47 80.78 90.75 71.07 86.72 74.67 C 83.70 76.39 85.08 71.33 85.89 69.89 C 86.76 67.44 92.89 69.63 89.86 66.04 C 95.83 63.45 95.81 73.89 100.99 69.98 C 104.08 67.51 110.59 71.32 110.05 64.89 C 106.47 66.07 103.48 68.23 106.21 63.10 C 113.57 66.57 107.81 57.30 112.61 55.96 C 111.58 59.42 116.15 60.11 116.25 63.22 C 116.31 64.90 116.85 66.42 118.11 67.59 C 118.19 72.82 110.84 66.77 108.77 70.78 C 107.04 73.56 104.38 72.45 102.03 71.21 C 101.41 75.50 97.82 77.50 94.68 79.91 C 101.39 79.89 106.92 70.98 114.18 75.76 C 121.38 79.26 102.95 76.18 111.22 81.33 C 109.62 85.94 106.76 82.81 103.43 83.43 C 97.99 88.00 98.50 96.47 105.88 98.02 C 107.95 95.00 103.42 91.12 107.26 89.23 C 109.60 87.98 109.50 91.41 110.42 92.74 C 112.60 91.53 116.55 92.41 117.11 89.40 C 115.42 89.34 113.72 89.36 112.07 88.95 C 112.93 86.35 114.30 83.61 112.09 81.26 C 122.17 83.02 117.95 66.59 127.90 67.26 C 130.06 70.75 132.54 67.81 135.87 68.82 C 139.77 61.81 150.17 56.84 153.19 49.27 C 158.22 47.97 158.95 42.30 152.71 44.58 C 154.61 38.31 160.55 48.08 164.03 42.42 C 165.27 44.37 170.23 47.82 171.20 44.22 C 173.03 41.33 183.72 45.00 179.40 40.29 C 184.42 38.55 184.82 31.57 189.76 29.47 C 186.05 24.05 192.19 24.93 194.86 28.16 C 194.93 26.10 192.18 21.20 196.06 22.60 C 195.63 20.58 194.49 17.92 197.63 19.39 C 202.60 22.00 202.16 8.30 199.53 15.64 C 193.30 16.88 189.17 21.54 185.01 26.00 C 181.72 25.03 173.50 24.58 177.81 19.79 C 179.07 14.33 171.52 13.73 172.65 19.88 C 166.85 17.86 173.12 10.18 176.86 9.35 C 181.39 10.69 177.54 5.42 176.75 3.44 C 179.56 4.66 181.21 2.78 181.41 0.00 M 157.14 49.05 C 156.71 55.93 145.70 56.29 149.25 62.95 C 152.00 63.23 151.96 58.34 154.69 61.81 C 160.18 54.94 149.92 73.21 155.78 68.71 C 155.74 64.31 159.63 62.65 159.99 58.20 C 154.52 58.86 159.26 51.44 162.01 50.17 C 160.39 49.79 158.78 49.32 157.14 49.05 Z" />
</g>
<g id="#d1d5b9ff">
<path fill="#d1d5b9" opacity="1.00" d=" M 206.15 0.00 L 207.85 0.00 C 209.77 3.72 204.23 3.72 206.15 0.00 Z" />
</g>
<g id="#705b43ff">
<path fill="#705b43" opacity="1.00" d=" M 226.58 0.00 L 250.59 0.00 C 256.39 0.21 252.78 9.13 259.54 7.76 C 260.52 3.77 262.97 3.81 265.53 6.47 C 270.11 0.59 272.23 8.56 268.24 11.77 C 277.53 12.28 267.44 17.53 267.15 21.85 C 269.34 24.61 268.45 25.51 265.00 25.23 C 263.48 30.48 269.65 26.90 270.76 29.62 C 267.81 31.52 265.44 35.05 268.60 38.00 C 263.75 43.34 271.43 44.40 275.74 45.18 C 274.61 48.36 275.20 51.53 279.11 51.88 C 282.97 53.77 277.37 44.84 281.81 47.34 C 284.14 49.52 285.64 46.04 287.08 48.87 C 288.45 53.23 295.82 47.54 295.11 52.60 C 290.38 50.04 291.54 57.47 295.61 55.90 C 296.29 54.24 295.94 50.11 298.74 51.18 C 301.03 52.86 303.54 59.62 306.81 55.82 C 311.01 51.00 300.39 56.19 300.87 49.88 C 305.83 54.04 308.37 46.82 313.16 46.22 C 316.47 45.82 317.81 42.42 320.00 40.37 L 320.00 72.31 C 317.90 66.05 316.23 78.14 312.38 74.74 C 308.73 72.27 310.96 76.19 311.55 78.21 C 308.47 79.12 304.21 80.46 304.68 75.63 C 306.14 71.36 301.90 73.72 300.06 75.15 C 300.82 77.67 305.44 82.25 300.89 83.08 C 298.44 85.81 295.38 87.79 291.94 89.06 C 290.86 84.08 295.66 80.91 300.04 80.60 C 298.67 77.87 297.07 73.43 293.32 74.06 C 293.32 80.76 285.32 86.65 292.21 92.36 C 293.71 91.66 295.98 88.15 298.98 88.89 C 299.80 91.60 296.63 90.77 295.02 91.31 C 294.29 94.02 297.10 94.43 298.93 95.37 C 296.77 98.79 294.61 99.65 293.82 94.99 C 287.21 97.97 285.12 91.33 282.63 86.33 C 279.93 85.16 281.24 91.73 278.26 89.60 C 273.35 85.82 264.52 93.19 262.90 85.23 C 265.98 85.48 270.92 87.09 271.75 82.69 C 272.89 78.01 266.86 74.46 269.44 69.36 C 271.65 63.11 259.01 69.48 261.46 63.24 C 258.29 62.60 255.18 61.71 252.17 60.52 C 249.81 61.92 247.84 63.91 245.40 65.19 C 244.65 60.84 242.29 57.11 240.54 53.15 C 238.17 53.38 236.87 55.81 235.11 57.17 C 234.93 52.95 232.29 44.70 238.33 45.23 C 240.59 38.67 236.13 31.33 238.03 24.34 C 238.75 21.88 240.85 20.73 243.01 19.71 C 241.97 16.00 234.55 12.58 238.89 8.74 C 234.47 10.25 230.89 13.08 225.98 13.76 C 228.07 10.47 223.12 7.19 227.00 5.02 C 230.01 1.67 221.49 7.23 221.88 4.94 C 220.81 0.57 225.33 2.62 226.58 0.00 Z" />
</g>
<g id="#754b32ff">
<path fill="#754b32" opacity="1.00" d=" M 250.59 0.00 L 320.00 0.00 L 320.00 40.37 C 317.81 42.42 316.47 45.82 313.16 46.22 C 308.37 46.82 305.83 54.04 300.87 49.88 C 300.39 56.19 311.01 51.00 306.81 55.82 C 303.54 59.62 301.03 52.86 298.74 51.18 C 295.94 50.11 296.29 54.24 295.61 55.90 C 291.54 57.47 290.38 50.04 295.11 52.60 C 295.82 47.54 288.45 53.23 287.08 48.87 C 285.64 46.04 284.14 49.52 281.81 47.34 C 277.37 44.84 282.97 53.77 279.11 51.88 C 275.20 51.53 274.61 48.36 275.74 45.18 C 271.43 44.40 263.75 43.34 268.60 38.00 C 265.44 35.05 267.81 31.52 270.76 29.62 C 269.65 26.90 263.48 30.48 265.00 25.23 C 268.45 25.51 269.34 24.61 267.15 21.85 C 267.44 17.53 277.53 12.28 268.24 11.77 C 272.23 8.56 270.11 0.59 265.53 6.47 C 262.97 3.81 260.52 3.77 259.54 7.76 C 252.78 9.13 256.39 0.21 250.59 0.00 Z" />
</g>
<g id="#665843ff">
<path fill="#665843" opacity="1.00" d=" M 85.14 0.98 C 86.39 1.43 87.65 1.85 88.91 2.29 C 86.22 3.61 83.76 10.97 88.55 8.69 C 89.94 4.00 94.88 4.15 91.04 8.86 C 95.26 11.98 96.78 7.43 98.27 4.22 C 102.68 7.92 108.18 5.28 112.89 7.76 C 116.79 5.43 121.41 5.28 121.02 11.01 C 113.53 10.20 106.78 8.06 101.03 13.89 C 97.43 13.32 96.07 16.83 93.60 18.55 C 84.07 21.47 79.18 29.73 71.47 35.87 C 69.52 34.89 67.71 36.54 65.87 37.02 C 69.13 28.72 75.46 21.92 78.55 13.65 C 77.70 7.92 82.82 5.25 85.14 0.98 Z" />
</g>
<g id="#6b4e39ff">
<path fill="#6b4e39" opacity="1.00" d=" M 3.86 9.98 C 9.87 9.08 11.24 17.01 14.31 20.86 C 8.34 16.68 12.26 23.78 14.85 26.09 C 14.36 20.41 16.29 22.83 18.59 25.91 C 21.00 23.54 20.40 21.00 18.01 18.94 C 22.28 16.43 24.55 23.34 20.30 24.97 C 22.11 26.47 19.88 31.82 22.50 30.60 C 23.28 26.19 28.54 27.47 31.77 26.21 C 35.85 28.32 33.21 32.35 30.13 33.79 C 28.75 31.55 23.54 31.64 26.16 34.84 C 29.30 40.85 18.47 41.95 19.59 35.02 C 15.59 39.66 10.79 43.55 7.32 48.64 C 12.27 51.19 7.56 52.65 5.20 49.16 C 3.86 52.55 -0.53 53.53 2.86 57.32 C 1.90 56.85 0.94 56.36 0.00 55.86 L 0.00 21.54 C 1.10 25.11 2.64 29.12 6.05 31.01 C 8.46 30.20 8.51 24.73 5.47 24.43 C 2.48 23.24 3.03 19.89 5.23 18.19 C 8.60 15.67 4.17 12.95 3.86 9.98 Z" />
</g>
<g id="#6a644dff">
<path fill="#6a644d" opacity="1.00" d=" M 199.53 15.64 C 202.16 8.30 202.60 22.00 197.63 19.39 C 194.49 17.92 195.63 20.58 196.06 22.60 C 192.18 21.20 194.93 26.10 194.86 28.16 C 192.19 24.93 186.05 24.05 189.76 29.47 C 184.82 31.57 184.42 38.55 179.40 40.29 C 183.72 45.00 173.03 41.33 171.20 44.22 C 170.23 47.82 165.27 44.37 164.03 42.42 C 164.15 40.14 164.06 37.66 166.07 36.13 C 168.15 38.13 170.86 39.12 173.61 39.81 C 173.59 37.08 175.61 37.29 177.68 37.51 C 182.71 35.84 183.22 30.21 185.01 26.00 C 189.17 21.54 193.30 16.88 199.53 15.64 Z" />
</g>
<g id="#766349ff">
<path fill="#766349" opacity="1.00" d=" M 93.60 18.55 C 96.07 16.83 97.43 13.32 101.03 13.89 C 99.11 15.79 94.19 20.21 99.89 20.25 C 104.33 21.42 99.30 22.79 97.25 23.34 C 96.06 25.87 100.87 24.13 99.84 26.71 C 97.26 27.64 93.60 27.08 92.01 29.73 C 95.38 31.28 100.90 37.19 95.23 38.67 C 94.28 34.55 91.94 32.21 87.24 33.20 C 82.48 36.58 92.51 39.46 89.04 43.00 C 86.42 45.63 91.02 45.58 92.82 46.23 C 89.88 43.21 93.56 41.67 95.86 40.00 C 95.68 41.85 94.20 45.59 97.49 44.46 C 107.82 42.31 96.62 46.19 97.86 50.06 C 99.75 49.07 103.46 46.23 103.74 50.16 C 102.81 54.75 112.47 50.70 110.20 54.29 C 104.56 61.53 97.58 53.89 95.58 48.20 C 89.29 49.50 98.52 56.69 90.88 57.31 C 86.87 57.67 93.39 62.10 89.31 62.19 C 87.22 60.95 85.00 59.98 82.71 59.18 C 84.86 63.10 84.83 63.98 80.88 61.23 C 77.98 65.08 78.83 73.19 71.20 69.05 C 70.84 68.77 70.13 68.20 69.77 67.92 C 71.72 66.28 73.84 66.98 75.89 67.94 C 75.85 64.23 81.47 59.27 75.87 58.03 C 73.37 55.56 70.91 61.25 73.50 62.68 C 71.80 63.78 70.23 65.10 68.43 66.03 C 66.85 58.63 58.04 69.20 54.12 63.92 C 55.92 67.64 53.62 69.52 51.04 66.05 C 52.27 64.43 53.88 63.13 55.03 61.45 C 52.85 60.83 46.33 58.94 50.53 56.52 C 55.07 54.21 60.37 50.89 58.67 44.88 C 60.90 39.03 67.52 40.29 71.47 35.87 C 79.18 29.73 84.07 21.47 93.60 18.55 Z" />
</g>
<g id="#d4caafff">
<path fill="#d4caaf" opacity="1.00" d=" M 167.16 15.16 C 171.80 14.16 166.16 19.80 167.16 15.16 Z" />
</g>
<g id="#322b20ff">
<path fill="#322b20" opacity="1.00" d=" M 204.67 26.94 C 208.88 12.52 232.35 10.04 238.03 24.34 C 236.13 31.33 240.59 38.67 238.33 45.23 C 232.29 44.70 234.93 52.95 235.11 57.17 C 235.26 62.90 232.30 67.92 229.86 72.88 C 223.29 70.42 234.32 62.12 232.24 56.82 C 231.35 51.32 231.40 44.08 225.16 42.03 C 221.08 47.49 226.27 58.51 218.96 61.07 C 222.95 53.79 217.26 44.79 222.11 38.26 C 226.58 38.36 230.80 39.79 235.04 41.01 C 234.61 37.73 233.87 34.43 234.81 31.16 C 229.43 33.28 220.06 32.36 222.05 24.22 C 226.96 21.48 232.47 22.99 236.21 26.82 C 233.88 17.08 220.90 15.14 213.39 19.40 C 209.81 21.60 214.47 23.13 216.61 23.51 C 222.21 27.46 218.46 34.78 219.52 40.42 C 210.38 37.35 211.61 48.71 207.05 53.03 C 203.70 55.71 205.62 60.53 205.96 64.13 C 201.79 64.58 197.68 55.51 203.00 55.64 C 200.46 53.33 202.36 52.67 204.87 51.85 C 209.67 47.65 204.46 42.74 209.11 39.22 C 210.57 37.30 205.61 36.92 204.17 36.05 C 202.50 38.80 201.79 42.38 198.24 43.28 C 196.45 44.76 195.87 42.17 197.08 41.04 C 201.18 40.15 200.25 34.56 202.58 31.71 C 204.76 30.54 208.61 26.64 206.30 34.70 C 211.57 37.34 217.45 32.06 217.35 27.13 C 214.86 25.56 212.18 24.24 210.06 22.13 C 213.20 25.54 204.99 31.98 204.67 26.94 M 224.92 25.03 C 224.02 29.74 228.72 30.86 231.85 28.79 C 233.68 23.96 228.68 24.31 224.92 25.03 Z" />
</g>
<g id="#726952ff">
<path fill="#726952" opacity="1.00" d=" M 213.39 19.40 C 220.90 15.14 233.88 17.08 236.21 26.82 C 232.47 22.99 226.96 21.48 222.05 24.22 C 220.06 32.36 229.43 33.28 234.81 31.16 C 233.87 34.43 234.61 37.73 235.04 41.01 C 230.80 39.79 226.58 38.36 222.11 38.26 C 217.26 44.79 222.95 53.79 218.96 61.07 C 226.27 58.51 221.08 47.49 225.16 42.03 C 231.40 44.08 231.35 51.32 232.24 56.82 C 234.32 62.12 223.29 70.42 229.86 72.88 C 232.30 67.92 235.26 62.90 235.11 57.17 C 236.87 55.81 238.17 53.38 240.54 53.15 C 242.29 57.11 244.65 60.84 245.40 65.19 C 247.84 63.91 249.81 61.92 252.17 60.52 C 255.18 61.71 258.29 62.60 261.46 63.24 C 259.01 69.48 271.65 63.11 269.44 69.36 C 266.86 74.46 272.89 78.01 271.75 82.69 C 270.92 87.09 265.98 85.48 262.90 85.23 C 264.52 93.19 273.35 85.82 278.26 89.60 C 281.24 91.73 279.93 85.16 282.63 86.33 C 285.12 91.33 287.21 97.97 293.82 94.99 C 294.61 99.65 296.77 98.79 298.93 95.37 C 297.10 94.43 294.29 94.02 295.02 91.31 C 296.63 90.77 299.80 91.60 298.98 88.89 C 295.98 88.15 293.71 91.66 292.21 92.36 C 285.32 86.65 293.32 80.76 293.32 74.06 C 297.07 73.43 298.67 77.87 300.04 80.60 C 295.66 80.91 290.86 84.08 291.94 89.06 C 295.38 87.79 298.44 85.81 300.89 83.08 C 305.44 82.25 300.82 77.67 300.06 75.15 C 301.90 73.72 306.14 71.36 304.68 75.63 C 304.21 80.46 308.47 79.12 311.55 78.21 C 310.96 76.19 308.73 72.27 312.38 74.74 C 316.23 78.14 317.90 66.05 320.00 72.31 L 320.00 90.48 C 316.16 93.15 313.09 99.06 307.62 97.46 C 304.33 96.18 307.06 100.16 307.27 101.72 C 308.81 103.50 304.52 106.16 307.61 106.73 C 308.99 105.68 312.09 100.79 312.05 104.93 C 311.58 108.63 315.98 106.55 317.22 109.20 C 314.07 112.70 306.39 108.85 305.07 115.20 C 295.35 118.13 284.78 124.30 275.90 127.44 L 275.32 127.91 C 270.51 124.37 274.77 119.35 273.60 114.37 C 278.22 117.79 277.30 112.39 278.74 109.27 C 276.16 108.97 268.16 103.05 274.44 104.48 C 275.89 108.21 278.96 105.35 281.23 104.05 C 279.34 100.87 276.50 100.60 273.67 102.81 C 274.41 99.83 277.52 98.39 278.52 95.50 C 280.40 95.69 283.63 96.06 283.03 93.13 C 279.27 90.45 275.12 93.63 271.35 91.77 C 260.37 88.79 272.37 93.28 268.60 96.62 C 271.74 97.99 272.18 103.08 267.86 101.60 C 261.75 100.80 255.61 100.11 249.46 99.68 C 246.49 99.58 243.09 100.31 242.78 96.34 C 245.49 96.98 248.25 97.51 245.83 94.20 C 244.21 88.23 253.76 91.43 253.65 85.67 C 256.29 78.92 246.56 88.24 247.81 82.18 C 246.01 83.67 244.61 84.23 244.58 81.23 C 240.56 81.74 236.49 82.86 232.41 82.38 C 230.81 79.14 227.08 75.92 223.44 78.29 C 222.62 82.64 220.76 87.51 216.10 88.94 C 213.02 87.52 219.70 80.92 215.29 84.34 C 212.81 87.47 211.52 82.63 209.68 81.19 C 203.95 80.84 203.88 90.48 197.84 89.14 C 206.71 85.29 192.21 81.73 190.17 83.98 C 195.61 89.58 184.72 88.65 184.27 83.68 C 183.49 79.73 187.82 73.04 191.29 78.57 C 193.27 76.32 198.65 76.98 197.50 73.16 C 204.25 74.69 197.83 67.10 195.58 71.60 C 190.89 76.31 190.75 65.08 187.11 62.88 C 183.22 66.44 179.09 70.03 177.04 73.74 C 179.40 74.80 186.76 76.80 182.43 79.48 C 178.92 82.81 178.39 74.82 175.06 73.87 C 173.52 75.75 172.24 77.88 170.22 79.32 C 169.62 78.99 168.42 78.35 167.82 78.03 C 166.76 73.74 172.75 77.12 172.91 72.86 C 174.32 68.78 170.49 75.16 169.07 71.84 C 168.71 68.12 175.99 68.73 174.95 64.39 C 171.65 64.40 169.40 62.51 169.15 59.20 C 174.54 59.80 178.37 53.72 175.88 49.11 C 178.85 53.58 180.56 47.22 184.14 47.93 C 183.52 49.93 182.11 51.51 181.04 53.27 C 183.39 52.64 185.00 50.81 186.69 49.19 C 188.05 53.10 191.34 50.93 193.87 49.60 C 193.43 47.04 190.16 46.04 189.85 43.31 C 194.02 45.23 193.02 37.65 197.08 41.04 C 195.87 42.17 196.45 44.76 198.24 43.28 C 201.79 42.38 202.50 38.80 204.17 36.05 C 205.61 36.92 210.57 37.30 209.11 39.22 C 204.46 42.74 209.67 47.65 204.87 51.85 C 202.36 52.67 200.46 53.33 203.00 55.64 C 197.68 55.51 201.79 64.58 205.96 64.13 C 205.62 60.53 203.70 55.71 207.05 53.03 C 211.61 48.71 210.38 37.35 219.52 40.42 C 218.46 34.78 222.21 27.46 216.61 23.51 C 214.47 23.13 209.81 21.60 213.39 19.40 Z" />
</g>
<g id="#615a44ff">
<path fill="#615a44" opacity="1.00" d=" M 210.06 22.13 C 212.18 24.24 214.86 25.56 217.35 27.13 C 217.45 32.06 211.57 37.34 206.30 34.70 C 208.61 26.64 204.76 30.54 202.58 31.71 C 203.21 30.10 203.85 28.47 204.67 26.94 C 204.99 31.98 213.20 25.54 210.06 22.13 Z" />
</g>
<g id="#776959ff">
<path fill="#776959" opacity="1.00" d=" M 224.92 25.03 C 228.68 24.31 233.68 23.96 231.85 28.79 C 228.72 30.86 224.02 29.74 224.92 25.03 Z" />
</g>
<g id="#704f34ff">
<path fill="#704f34" opacity="1.00" d=" M 55.30 29.99 C 58.07 31.25 60.34 34.23 63.19 31.22 C 62.40 33.31 61.79 35.47 60.85 37.50 C 59.24 37.76 55.72 35.76 56.19 38.57 C 52.84 39.10 47.07 36.35 47.61 41.76 C 41.43 42.90 35.09 44.66 31.03 49.81 C 26.97 44.62 26.48 61.77 19.76 58.12 C 20.51 57.15 23.03 56.61 22.60 55.28 C 17.78 52.81 24.11 47.84 24.08 43.92 C 21.68 45.64 19.60 47.84 16.94 49.18 C 18.71 38.67 32.66 43.35 39.00 36.96 C 43.53 31.24 54.76 39.09 55.30 29.99 Z" />
</g>
<g id="#7c5c42ff">
<path fill="#7c5c42" opacity="1.00" d=" M 47.61 41.76 C 47.07 36.35 52.84 39.10 56.19 38.57 C 56.33 39.07 56.60 40.06 56.74 40.55 C 52.42 40.92 55.33 49.52 49.95 47.18 C 45.96 45.68 51.78 56.57 45.82 53.15 C 42.27 50.06 41.69 55.40 41.04 58.01 C 37.99 56.31 35.31 57.58 33.47 60.26 C 33.75 57.60 34.04 54.12 31.69 52.31 C 28.85 50.62 31.02 54.74 30.86 56.16 C 26.99 55.61 27.93 50.95 31.03 49.81 C 35.09 44.66 41.43 42.90 47.61 41.76 Z" />
</g>
<g id="#876c4fff">
<path fill="#876c4f" opacity="1.00" d=" M 19.76 58.12 C 26.48 61.77 26.97 44.62 31.03 49.81 C 27.93 50.95 26.99 55.61 30.86 56.16 C 31.02 54.74 28.85 50.62 31.69 52.31 C 34.04 54.12 33.75 57.60 33.47 60.26 C 35.31 57.58 37.99 56.31 41.04 58.01 C 39.51 62.53 39.20 72.72 32.93 71.19 C 36.94 74.86 33.23 79.56 30.97 83.02 C 27.66 83.34 26.16 79.72 22.97 79.94 C 21.88 83.66 27.07 82.63 27.28 85.91 C 24.23 85.25 21.14 82.34 18.17 84.66 C 17.95 78.91 12.66 86.46 9.73 86.84 C 7.02 89.00 4.74 84.81 2.23 87.70 C 1.92 85.76 1.45 83.84 0.00 82.41 L 0.00 72.55 C 4.08 75.68 11.24 79.67 14.13 72.89 C 8.74 77.53 9.28 70.37 14.03 69.57 C 12.36 68.48 8.56 68.84 9.08 66.11 C 11.76 65.47 15.02 65.89 15.19 62.21 C 12.39 62.47 8.39 64.02 8.66 60.06 C 5.70 62.46 0.78 64.34 2.76 68.80 C 2.07 68.91 0.69 69.13 0.00 69.24 L 0.00 55.86 C 0.94 56.36 1.90 56.85 2.86 57.32 C 8.72 61.53 14.19 53.71 19.76 58.12 Z" />
</g>
<g id="#67624cff">
<path fill="#67624c" opacity="1.00" d=" M 133.98 55.26 C 140.19 53.60 148.42 54.56 151.83 47.93 C 152.17 48.26 152.85 48.94 153.19 49.27 C 150.17 56.84 139.77 61.81 135.87 68.82 C 132.54 67.81 130.06 70.75 127.90 67.26 C 117.95 66.59 122.17 83.02 112.09 81.26 L 111.22 81.33 C 102.95 76.18 121.38 79.26 114.18 75.76 C 106.92 70.98 101.39 79.89 94.68 79.91 C 97.82 77.50 101.41 75.50 102.03 71.21 C 104.38 72.45 107.04 73.56 108.77 70.78 C 110.84 66.77 118.19 72.82 118.11 67.59 C 121.46 66.56 122.83 62.04 126.69 62.34 C 131.31 63.19 138.19 59.98 133.98 55.26 Z" />
</g>
<g id="#8a866eff">
<path fill="#8a866e" opacity="1.00" d=" M 157.14 49.05 C 158.78 49.32 160.39 49.79 162.01 50.17 C 159.26 51.44 154.52 58.86 159.99 58.20 C 159.63 62.65 155.74 64.31 155.78 68.71 C 149.92 73.21 160.18 54.94 154.69 61.81 C 151.96 58.34 152.00 63.23 149.25 62.95 C 145.70 56.29 156.71 55.93 157.14 49.05 Z" />
</g>
<g id="#816f54ff">
<path fill="#816f54" opacity="1.00" d=" M 73.50 62.68 C 70.91 61.25 73.37 55.56 75.87 58.03 C 81.47 59.27 75.85 64.23 75.89 67.94 C 73.84 66.98 71.72 66.28 69.77 67.92 C 65.36 67.97 66.37 77.26 62.23 73.23 C 62.65 77.37 58.36 76.11 57.47 73.22 C 54.89 75.38 57.01 79.72 57.41 82.61 C 54.79 84.12 53.12 86.90 50.37 88.14 C 50.50 84.75 50.65 80.41 46.19 83.17 C 47.35 85.38 47.05 88.27 49.13 89.93 C 51.76 92.60 46.82 94.45 45.10 95.97 C 42.56 91.72 35.98 91.09 33.17 95.13 C 32.88 97.01 32.37 97.29 31.65 95.97 C 32.95 93.64 35.73 89.14 31.24 88.62 C 26.82 89.79 28.42 84.23 30.97 83.02 C 36.48 82.33 44.04 77.59 43.71 70.73 C 46.68 70.07 49.46 68.80 51.04 66.05 C 53.62 69.52 55.92 67.64 54.12 63.92 C 58.04 69.20 66.85 58.63 68.43 66.03 C 70.23 65.10 71.80 63.78 73.50 62.68 M 61.20 67.24 C 61.06 72.52 67.02 65.22 61.20 67.24 Z" />
</g>
<g id="#8b8063ff">
<path fill="#8b8063" opacity="1.00" d=" M 89.31 62.19 C 93.39 62.10 86.87 57.67 90.88 57.31 C 97.09 57.95 89.27 63.73 89.86 66.04 C 92.89 69.63 86.76 67.44 85.89 69.89 C 85.08 71.33 83.70 76.39 86.72 74.67 C 90.75 71.07 96.47 80.78 88.72 77.38 C 93.69 82.86 86.41 82.56 82.16 83.66 C 81.14 79.98 79.82 75.34 85.21 77.87 C 82.41 73.28 78.06 78.78 74.80 79.97 C 74.56 77.10 77.54 76.67 79.27 75.18 C 77.82 75.39 76.39 75.69 74.94 75.92 C 75.35 70.96 82.93 75.56 83.68 72.09 C 80.53 68.80 86.28 67.80 84.11 64.14 C 86.53 66.84 88.03 64.68 89.31 62.19 Z" />
</g>
<g id="#785c40ff">
<path fill="#785c40" opacity="1.00" d=" M 2.76 68.80 C 0.78 64.34 5.70 62.46 8.66 60.06 C 8.39 64.02 12.39 62.47 15.19 62.21 C 15.02 65.89 11.76 65.47 9.08 66.11 C 8.56 68.84 12.36 68.48 14.03 69.57 C 9.28 70.37 8.74 77.53 14.13 72.89 C 11.24 79.67 4.08 75.68 0.00 72.55 L 0.00 69.24 C 0.69 69.13 2.07 68.91 2.76 68.80 Z" />
</g>
<g id="#7e775dff">
<path fill="#7e775d" opacity="1.00" d=" M 177.04 73.74 C 179.09 70.03 183.22 66.44 187.11 62.88 C 190.75 65.08 190.89 76.31 195.58 71.60 C 197.83 67.10 204.25 74.69 197.50 73.16 C 198.65 76.98 193.27 76.32 191.29 78.57 C 187.82 73.04 183.49 79.73 184.27 83.68 C 184.72 88.65 195.61 89.58 190.17 83.98 C 192.21 81.73 206.71 85.29 197.84 89.14 C 203.88 90.48 203.95 80.84 209.68 81.19 C 211.52 82.63 212.81 87.47 215.29 84.34 C 219.70 80.92 213.02 87.52 216.10 88.94 C 220.76 87.51 222.62 82.64 223.44 78.29 C 227.08 75.92 230.81 79.14 232.41 82.38 C 236.49 82.86 240.56 81.74 244.58 81.23 C 244.61 84.23 246.01 83.67 247.81 82.18 C 246.56 88.24 256.29 78.92 253.65 85.67 C 253.76 91.43 244.21 88.23 245.83 94.20 C 248.25 97.51 245.49 96.98 242.78 96.34 C 243.09 100.31 246.49 99.58 249.46 99.68 C 246.29 99.91 240.95 105.19 246.41 105.36 C 251.12 105.60 243.38 106.97 245.25 109.48 C 249.73 110.56 250.34 118.03 245.16 118.07 C 247.07 121.97 250.71 126.41 248.32 130.92 C 245.17 126.41 234.90 130.30 238.15 122.25 C 238.87 117.79 238.99 113.27 238.89 108.76 C 238.84 105.95 238.54 99.63 234.34 101.31 C 232.60 101.94 228.82 102.41 230.98 104.84 C 229.78 111.49 230.05 118.26 230.00 124.98 C 227.46 127.49 227.83 131.49 228.12 134.78 C 232.71 139.28 240.32 134.63 245.20 138.73 C 247.59 138.68 246.72 134.51 247.55 132.79 C 249.06 134.52 249.71 136.76 250.73 138.78 C 250.37 140.23 250.19 141.75 250.81 143.17 C 250.89 149.26 245.79 141.55 243.69 145.68 C 241.82 148.08 243.21 150.61 246.21 149.79 C 244.51 152.45 244.73 159.25 240.25 155.95 C 238.02 154.00 234.94 158.16 233.12 155.79 C 232.37 152.16 238.39 153.76 239.55 150.86 C 239.27 145.94 226.99 149.25 231.78 142.67 C 226.89 144.36 226.01 149.74 224.87 154.09 C 222.32 151.16 217.03 153.06 217.74 148.08 C 215.25 149.50 214.92 152.58 213.75 147.25 C 214.64 146.12 217.81 143.58 214.40 144.40 C 209.53 145.06 206.36 140.76 201.93 139.87 C 205.02 142.27 203.09 147.09 199.85 144.14 C 197.36 141.12 201.50 139.81 201.86 137.10 C 201.66 133.86 203.64 135.89 205.14 136.82 C 207.36 135.28 208.70 132.05 211.79 132.40 C 211.65 130.01 211.41 127.60 210.76 125.29 C 209.14 123.52 205.58 125.47 205.73 121.88 C 207.39 120.37 210.23 123.97 212.60 124.06 C 212.00 121.09 215.59 116.55 211.09 115.79 C 208.64 113.13 210.62 107.83 210.32 104.20 C 213.49 100.90 209.78 95.98 205.88 98.64 C 200.34 103.50 205.28 112.05 201.38 117.88 C 191.95 119.30 203.70 99.91 194.00 102.92 C 192.88 103.12 192.12 104.01 191.23 104.63 C 190.14 104.40 189.05 104.56 187.99 104.83 C 188.99 101.03 191.43 94.24 185.14 94.22 C 180.44 99.75 180.86 107.54 178.98 114.19 C 172.49 112.62 180.71 106.05 174.74 103.77 C 170.21 104.07 176.68 95.57 172.31 97.36 C 168.63 100.66 166.53 94.76 165.88 91.87 C 167.82 92.95 169.35 94.56 171.00 96.00 C 173.29 90.08 167.08 85.15 170.22 79.32 C 172.24 77.88 173.52 75.75 175.06 73.87 C 178.39 74.82 178.92 82.81 182.43 79.48 C 186.76 76.80 179.40 74.80 177.04 73.74 M 217.04 107.97 C 217.85 113.34 218.13 118.92 216.85 124.25 C 214.92 125.59 215.41 132.07 215.14 135.66 C 217.52 136.35 223.12 139.19 223.59 137.55 C 230.53 131.08 223.56 118.76 224.99 110.00 C 229.77 103.58 216.02 102.35 217.04 107.97 Z" />
</g>
<g id="#c7b8adff">
<path fill="#c7b8ad" opacity="1.00" d=" M 61.20 67.24 C 67.02 65.22 61.06 72.52 61.20 67.24 Z" />
</g>
<g id="#8c8467ff">
<path fill="#8c8467" opacity="1.00" d=" M 62.23 73.23 C 66.37 77.26 65.36 67.97 69.77 67.92 C 70.13 68.20 70.84 68.77 71.20 69.05 C 71.97 70.47 71.43 72.25 69.82 72.75 C 66.04 73.97 69.74 78.16 70.50 80.47 C 72.35 83.49 68.09 84.72 66.01 85.49 C 67.81 88.72 70.48 85.72 71.97 83.90 C 72.01 85.17 69.73 88.89 72.40 87.51 C 76.89 87.48 73.25 83.30 72.98 80.84 C 78.20 81.17 76.41 90.85 82.00 85.87 C 82.30 90.89 78.89 91.71 74.72 90.23 C 76.92 91.85 79.60 92.64 81.60 94.56 C 89.21 98.22 84.90 91.50 84.19 88.74 C 86.75 91.75 90.59 92.39 94.28 92.90 C 99.79 95.43 94.29 103.94 88.79 100.52 C 88.34 100.57 87.45 100.66 87.00 100.71 C 81.84 94.63 73.75 107.81 82.05 106.77 C 83.96 115.42 82.77 124.31 82.20 133.04 C 79.06 141.47 87.11 136.96 90.84 139.22 C 91.98 139.61 93.11 140.00 94.25 140.38 C 90.23 140.90 89.85 143.26 89.89 147.11 C 87.36 144.42 81.30 145.92 83.88 141.17 C 81.26 141.81 78.38 142.52 78.23 138.90 C 74.83 129.67 77.85 119.47 75.64 110.39 C 76.87 107.31 77.29 103.72 74.63 101.31 C 62.88 99.69 65.99 117.12 61.86 123.88 C 58.95 123.78 61.32 117.73 57.69 119.55 C 58.00 113.72 54.20 103.87 48.26 99.71 C 49.27 106.89 47.67 114.00 46.87 121.12 C 46.32 120.75 45.15 117.67 45.09 119.91 C 45.33 123.81 41.27 120.76 38.96 120.62 C 36.85 121.18 34.84 122.08 32.77 122.78 C 33.65 118.41 38.41 116.50 39.92 113.35 C 36.80 113.42 33.08 111.29 37.65 109.57 C 37.90 103.74 28.90 102.35 31.80 109.20 C 27.12 107.96 30.29 100.07 24.88 104.86 C 23.53 96.93 34.87 105.80 37.18 100.04 C 40.54 96.05 36.85 95.41 33.17 95.13 C 35.98 91.09 42.56 91.72 45.10 95.97 C 46.82 94.45 51.76 92.60 49.13 89.93 C 47.05 88.27 47.35 85.38 46.19 83.17 C 50.65 80.41 50.50 84.75 50.37 88.14 C 53.12 86.90 54.79 84.12 57.41 82.61 C 57.01 79.72 54.89 75.38 57.47 73.22 C 58.36 76.11 62.65 77.37 62.23 73.23 Z" />
</g>
<g id="#8c8566ff">
<path fill="#8c8566" opacity="1.00" d=" M 158.56 77.97 C 159.14 74.42 162.60 72.01 166.06 71.88 C 166.32 74.28 163.56 74.40 162.05 75.41 C 163.24 77.58 165.46 78.23 167.82 78.03 C 168.42 78.35 169.62 78.99 170.22 79.32 C 167.08 85.15 173.29 90.08 171.00 96.00 C 169.35 94.56 167.82 92.95 165.88 91.87 C 166.53 94.76 168.63 100.66 172.31 97.36 C 176.68 95.57 170.21 104.07 174.74 103.77 C 180.71 106.05 172.49 112.62 178.98 114.19 C 179.52 123.46 174.05 108.34 168.21 111.17 C 169.76 115.31 167.11 120.93 163.12 122.12 C 161.92 116.07 162.50 109.89 161.85 103.80 C 159.33 108.11 155.54 103.57 153.68 108.40 C 152.20 105.98 150.44 103.48 150.61 108.07 C 150.93 103.75 146.60 100.86 143.77 104.94 C 144.64 100.98 143.23 102.30 141.52 104.66 C 138.15 103.42 135.79 99.06 137.85 95.81 C 138.38 94.52 139.81 92.84 137.75 92.15 C 129.43 90.25 141.17 106.59 132.92 102.94 C 125.75 99.27 131.24 110.41 129.52 114.72 C 132.65 122.83 127.58 130.65 130.15 138.66 C 131.70 138.77 133.27 138.78 134.83 138.83 C 132.51 140.70 133.81 141.67 136.27 141.91 C 136.51 139.87 139.65 136.20 140.85 139.00 C 140.66 142.39 143.62 139.11 145.18 138.74 C 145.11 139.21 144.99 140.14 144.92 140.61 C 144.40 140.97 143.37 141.70 142.85 142.06 C 141.06 146.13 137.95 146.02 134.65 143.57 C 129.13 144.63 129.72 155.40 134.82 156.90 C 136.08 154.40 133.52 150.77 134.50 147.64 C 136.13 150.09 137.58 152.70 141.04 152.32 C 139.63 153.90 137.54 154.95 136.84 157.06 C 142.68 157.79 142.80 150.13 146.68 147.78 C 145.56 151.74 147.80 154.26 150.26 156.55 C 141.55 155.26 151.25 162.43 149.71 166.69 C 151.53 171.33 141.78 165.55 145.20 169.82 C 147.40 173.64 142.69 172.29 140.81 170.96 C 143.78 173.17 143.13 178.58 147.09 179.15 C 142.91 175.66 149.45 174.11 147.11 170.09 C 148.74 171.89 155.06 171.72 151.70 174.70 C 148.97 176.93 151.79 179.82 152.78 182.21 C 151.58 183.28 150.30 184.26 148.91 185.07 C 147.88 184.53 146.94 183.83 145.92 183.29 C 140.41 180.50 134.91 173.68 128.20 176.66 C 128.49 173.04 126.19 174.57 124.17 175.72 C 123.75 173.52 123.39 171.30 122.80 169.14 C 119.46 169.69 114.96 172.25 113.10 167.86 C 109.69 164.23 115.76 162.66 117.90 160.71 C 117.82 158.13 115.86 155.73 117.46 153.23 C 114.76 151.91 115.51 149.89 117.08 147.93 C 114.32 147.31 112.37 149.01 110.87 151.08 C 108.73 149.30 107.77 146.67 106.59 144.25 C 102.45 143.43 99.35 148.00 96.01 150.02 C 96.89 147.23 97.99 144.09 93.87 145.81 C 93.76 142.94 97.07 142.38 98.31 140.21 C 99.91 138.25 100.12 135.56 100.78 133.20 C 98.05 129.84 92.90 132.47 89.49 129.78 C 86.17 118.40 95.43 126.63 99.45 121.83 C 98.89 126.17 104.10 128.59 103.07 133.09 L 102.71 133.88 C 98.51 137.75 104.40 143.43 107.91 139.14 C 108.82 135.21 107.99 127.98 113.96 130.40 C 115.21 132.08 116.46 131.23 117.58 129.90 C 119.96 132.93 117.44 140.77 123.04 138.63 C 129.64 137.77 120.40 129.41 124.01 125.98 C 126.36 123.81 122.97 122.80 121.74 121.33 C 122.64 116.82 119.00 101.99 117.02 112.37 C 115.41 108.81 117.33 104.80 115.68 101.20 C 112.28 97.92 119.09 92.95 122.09 96.84 C 121.63 94.52 121.04 92.21 120.97 89.83 C 123.32 90.46 124.64 92.71 126.60 94.00 C 129.12 88.90 128.34 82.40 135.02 80.89 C 134.33 83.23 133.31 85.47 132.86 87.88 C 135.14 87.06 140.32 89.26 140.44 85.19 C 143.34 85.80 143.75 90.42 143.28 93.05 C 147.55 91.98 152.35 91.84 149.53 85.43 C 151.56 82.98 151.63 74.93 154.30 80.93 C 159.88 78.08 150.30 76.95 154.18 74.06 C 156.52 73.78 157.11 76.66 158.56 77.97 M 156.20 91.09 C 151.67 96.93 164.13 92.34 156.20 91.09 Z" />
</g>
<g id="#928667ff">
<path fill="#928667" opacity="1.00" d=" M 22.97 79.94 C 26.16 79.72 27.66 83.34 30.97 83.02 C 28.42 84.23 26.82 89.79 31.24 88.62 C 35.73 89.14 32.95 93.64 31.65 95.97 C 31.27 93.24 29.89 90.98 26.85 90.89 C 28.46 93.87 31.07 96.50 31.14 100.09 C 28.39 96.25 24.66 93.37 19.97 96.25 C 22.72 99.48 21.35 102.67 23.02 106.11 C 19.41 104.47 17.84 98.08 18.67 94.07 C 20.05 90.62 15.71 90.40 14.39 92.92 C 11.74 95.97 11.35 101.15 5.31 99.34 C 2.29 103.32 6.50 101.80 8.83 100.23 C 7.59 102.79 10.64 104.17 10.51 106.46 C 7.86 107.02 4.25 105.21 2.92 108.41 C 1.68 109.47 1.13 110.76 1.96 112.27 C 1.47 112.53 0.49 113.05 0.00 113.31 L 0.00 82.41 C 1.45 83.84 1.92 85.76 2.23 87.70 C 4.74 84.81 7.02 89.00 9.73 86.84 C 12.66 86.46 17.95 78.91 18.17 84.66 C 21.14 82.34 24.23 85.25 27.28 85.91 C 27.07 82.63 21.88 83.66 22.97 79.94 Z" />
</g>
<g id="#8b856aff">
<path fill="#8b856a" opacity="1.00" d=" M 111.22 81.33 L 112.09 81.26 C 114.30 83.61 112.93 86.35 112.07 88.95 C 113.72 89.36 115.42 89.34 117.11 89.40 C 116.55 92.41 112.60 91.53 110.42 92.74 C 109.50 91.41 109.60 87.98 107.26 89.23 C 103.42 91.12 107.95 95.00 105.88 98.02 C 98.50 96.47 97.99 88.00 103.43 83.43 C 106.76 82.81 109.62 85.94 111.22 81.33 Z" />
</g>
<g id="#dac6a5ff">
<path fill="#dac6a5" opacity="1.00" d=" M 14.39 92.92 C 15.71 90.40 20.05 90.62 18.67 94.07 C 17.21 93.80 15.78 93.43 14.39 92.92 Z" />
</g>
<g id="#9c9877ff">
<path fill="#9c9877" opacity="1.00" d=" M 26.85 90.89 C 29.89 90.98 31.27 93.24 31.65 95.97 C 32.37 97.29 32.88 97.01 33.17 95.13 C 36.85 95.41 40.54 96.05 37.18 100.04 C 34.87 105.80 23.53 96.93 24.88 104.86 C 30.29 100.07 27.12 107.96 31.80 109.20 C 28.90 102.35 37.90 103.74 37.65 109.57 C 33.08 111.29 36.80 113.42 39.92 113.35 C 38.41 116.50 33.65 118.41 32.77 122.78 C 34.84 122.08 36.85 121.18 38.96 120.62 C 41.27 120.76 45.33 123.81 45.09 119.91 C 45.15 117.67 46.32 120.75 46.87 121.12 C 46.64 123.30 46.31 125.47 46.16 127.66 C 44.51 130.92 42.81 134.74 46.99 136.72 C 42.41 136.87 44.16 140.20 47.76 138.49 C 52.08 140.99 55.13 135.44 52.39 132.16 C 52.95 131.42 53.48 130.67 53.99 129.90 C 54.60 127.59 50.47 120.50 54.78 122.18 C 55.19 124.44 55.57 126.71 55.93 128.98 C 56.32 130.66 56.22 142.61 60.20 137.15 C 61.81 137.35 63.63 138.23 65.03 136.97 C 65.42 136.74 66.21 136.27 66.61 136.04 C 66.61 139.06 61.12 145.03 61.73 138.90 C 59.96 140.13 58.25 144.69 55.91 142.18 C 55.21 138.61 47.67 142.64 51.43 144.59 C 53.07 148.07 47.23 148.24 46.90 151.08 C 50.17 150.82 53.28 149.69 56.16 148.18 C 54.86 150.31 54.60 154.78 51.19 153.11 C 52.60 155.05 54.36 158.60 50.41 158.35 C 48.29 156.91 47.38 154.54 46.61 152.21 C 42.84 153.12 40.59 156.54 38.00 159.14 C 39.55 163.51 40.78 156.04 43.41 158.64 C 45.54 160.25 48.02 158.06 50.41 158.35 C 49.23 160.32 47.21 161.37 45.29 162.48 C 44.54 165.14 47.26 167.19 48.01 169.60 C 43.69 169.30 45.41 173.41 45.86 176.07 C 44.31 175.33 42.80 174.49 41.29 173.67 C 42.61 171.51 45.20 169.25 44.45 166.51 C 39.76 164.65 42.03 175.84 35.80 173.37 C 37.60 175.90 40.83 177.02 42.46 179.75 C 40.26 182.32 38.43 177.74 36.84 180.84 C 33.52 183.41 37.24 187.38 36.92 190.70 C 35.07 191.39 31.95 195.53 31.03 192.16 C 34.66 189.59 29.48 190.60 30.30 187.33 C 29.30 184.76 31.42 185.47 33.16 185.82 C 31.25 180.36 25.21 176.70 26.32 170.37 C 21.98 166.44 20.43 160.28 18.77 155.09 C 15.90 152.74 10.79 148.21 8.51 153.68 C 4.86 152.67 11.71 149.78 9.05 147.35 C 6.39 149.49 3.23 150.22 0.00 148.92 L 0.00 134.68 C 2.53 136.27 4.76 138.10 2.63 141.00 C 0.92 143.57 3.85 146.61 5.75 143.46 C 8.50 141.94 7.55 140.43 5.10 139.30 C 10.71 140.19 7.27 130.38 12.37 132.56 C 16.20 134.25 10.50 126.29 14.62 128.26 C 13.98 132.69 20.62 133.61 16.95 136.58 C 19.51 136.05 24.12 139.86 22.73 135.19 C 23.33 129.37 16.40 129.14 13.64 125.54 C 16.08 126.29 19.13 125.05 19.00 122.15 C 15.90 120.15 14.01 123.59 11.17 123.95 C 9.96 122.35 10.80 120.75 11.60 119.21 C 9.01 118.55 5.87 115.93 3.48 118.34 C 3.11 120.45 2.53 122.40 0.00 122.40 L 0.00 113.31 C 0.49 113.05 1.47 112.53 1.96 112.27 C 5.43 114.11 3.74 110.27 2.92 108.41 C 4.25 105.21 7.86 107.02 10.51 106.46 C 10.64 104.17 7.59 102.79 8.83 100.23 C 6.50 101.80 2.29 103.32 5.31 99.34 C 11.35 101.15 11.74 95.97 14.39 92.92 C 15.78 93.43 17.21 93.80 18.67 94.07 C 17.84 98.08 19.41 104.47 23.02 106.11 C 21.35 102.67 22.72 99.48 19.97 96.25 C 24.66 93.37 28.39 96.25 31.14 100.09 C 31.07 96.50 28.46 93.87 26.85 90.89 M 14.27 112.19 C 13.03 117.51 19.13 112.06 14.27 112.19 M 27.18 136.09 C 26.32 136.58 25.04 139.14 26.96 138.92 C 30.55 138.11 27.47 143.64 30.70 143.11 C 30.58 140.60 30.46 136.08 27.18 136.09 M 13.94 144.03 C 14.48 150.80 20.57 142.75 13.94 144.03 Z" />
</g>
<g id="#ccc3a4ff">
<path fill="#ccc3a4" opacity="1.00" d=" M 156.20 91.09 C 164.13 92.34 151.67 96.93 156.20 91.09 Z" />
</g>
<g id="#7b755dff">
<path fill="#7b755d" opacity="1.00" d=" M 268.60 96.62 C 272.37 93.28 260.37 88.79 271.35 91.77 C 275.12 93.63 279.27 90.45 283.03 93.13 C 283.63 96.06 280.40 95.69 278.52 95.50 C 277.52 98.39 274.41 99.83 273.67 102.81 C 276.50 100.60 279.34 100.87 281.23 104.05 C 278.96 105.35 275.89 108.21 274.44 104.48 C 268.16 103.05 276.16 108.97 278.74 109.27 C 277.30 112.39 278.22 117.79 273.60 114.37 C 274.77 119.35 270.51 124.37 275.32 127.91 C 274.06 128.94 272.73 129.89 271.41 130.85 C 266.76 125.63 253.57 135.76 256.10 125.41 C 260.63 125.29 267.01 123.66 268.87 119.18 C 265.75 115.48 260.14 117.86 256.13 115.73 C 257.64 114.81 253.63 105.42 257.74 107.34 C 262.33 110.96 274.32 108.41 267.86 101.60 C 272.18 103.08 271.74 97.99 268.60 96.62 Z" />
</g>
<g id="#817c63ff">
<path fill="#817c63" opacity="1.00" d=" M 307.62 97.46 C 313.09 99.06 316.16 93.15 320.00 90.48 L 320.00 97.58 C 319.25 101.49 318.25 105.35 317.22 109.20 C 315.98 106.55 311.58 108.63 312.05 104.93 C 312.09 100.79 308.99 105.68 307.61 106.73 C 304.52 106.16 308.81 103.50 307.27 101.72 C 307.06 100.16 304.33 96.18 307.62 97.46 Z" />
</g>
<g id="#9b9a74ff">
<path fill="#9b9a74" opacity="1.00" d=" M 132.92 102.94 C 141.17 106.59 129.43 90.25 137.75 92.15 C 139.81 92.84 138.38 94.52 137.85 95.81 C 135.79 99.06 138.15 103.42 141.52 104.66 C 143.23 102.30 144.64 100.98 143.77 104.94 C 143.57 106.23 143.51 107.53 143.66 108.83 C 140.85 109.08 141.63 113.55 144.26 113.56 C 144.36 116.27 144.71 121.34 142.00 117.97 C 138.78 113.08 135.06 108.44 132.92 102.94 Z" />
</g>
<g id="#191917ff">
<path fill="#191917" opacity="1.00" d=" M 185.14 94.22 C 191.43 94.24 188.99 101.03 187.99 104.83 C 187.58 114.26 184.11 123.23 183.64 132.59 C 180.62 132.62 181.58 134.22 182.84 135.98 C 177.86 141.19 171.49 132.46 175.73 127.87 C 174.34 126.55 173.16 124.21 171.16 124.06 C 169.18 130.22 165.61 136.14 160.61 140.28 C 160.79 138.06 159.77 136.11 158.81 134.19 C 159.15 129.80 160.77 123.18 156.67 119.89 C 158.13 115.40 155.44 112.08 153.68 108.40 C 155.54 103.57 159.33 108.11 161.85 103.80 C 162.50 109.89 161.92 116.07 163.12 122.12 C 167.11 120.93 169.76 115.31 168.21 111.17 C 174.05 108.34 179.52 123.46 178.98 114.19 C 180.86 107.54 180.44 99.75 185.14 94.22 Z" />
</g>
<g id="#473f34ff">
<path fill="#473f34" opacity="1.00" d=" M 205.88 98.64 C 209.78 95.98 213.49 100.90 210.32 104.20 C 209.86 101.61 209.26 98.27 205.88 98.64 Z" />
</g>
<g id="#6a654fff">
<path fill="#6a654f" opacity="1.00" d=" M 317.22 109.20 C 318.25 105.35 319.25 101.49 320.00 97.58 L 320.00 150.23 C 317.83 148.77 310.49 144.54 314.57 149.58 C 310.42 154.25 303.20 151.19 298.11 153.14 C 298.11 155.56 301.87 155.42 302.08 158.18 C 300.10 157.91 298.38 156.86 296.61 156.04 C 296.64 159.86 291.36 160.05 291.40 164.15 C 291.88 157.53 286.64 165.97 283.95 161.83 C 285.50 157.46 291.45 157.15 293.11 153.37 C 287.19 155.18 281.98 147.69 287.93 143.94 C 285.04 142.39 282.85 140.06 282.15 136.79 C 280.49 132.86 274.52 135.56 276.45 139.41 C 278.51 139.57 282.33 138.05 280.71 141.50 C 277.80 141.88 277.16 144.26 276.91 146.76 C 274.83 143.49 269.06 146.62 271.96 149.66 C 274.56 148.62 277.29 148.20 280.09 147.87 C 276.80 150.31 275.38 154.20 272.12 156.85 C 265.60 148.65 255.23 152.19 246.21 149.79 C 243.21 150.61 241.82 148.08 243.69 145.68 C 245.79 141.55 250.89 149.26 250.81 143.17 C 254.80 146.30 253.79 139.78 250.81 143.17 C 250.19 141.75 250.37 140.23 250.73 138.78 C 252.44 138.53 254.17 138.60 255.90 138.75 C 257.88 138.90 259.88 138.99 261.88 139.07 C 267.22 141.49 272.86 136.15 271.41 130.85 C 272.73 129.89 274.06 128.94 275.32 127.91 L 275.90 127.44 C 275.82 130.06 275.53 133.22 279.13 131.97 C 278.93 129.97 277.67 128.32 275.90 127.44 C 284.78 124.30 295.35 118.13 305.07 115.20 C 306.39 108.85 314.07 112.70 317.22 109.20 Z" />
</g>
<g id="#3b3730ff">
<path fill="#3b3730" opacity="1.00" d=" M 82.05 106.77 C 73.75 107.81 81.84 94.63 87.00 100.71 C 85.93 103.17 83.90 104.91 82.05 106.77 Z" />
</g>
<g id="#141411ff">
<path fill="#141411" opacity="1.00" d=" M 201.38 117.88 C 205.28 112.05 200.34 103.50 205.88 98.64 C 209.26 98.27 209.86 101.61 210.32 104.20 C 210.62 107.83 208.64 113.13 211.09 115.79 C 215.59 116.55 212.00 121.09 212.60 124.06 C 210.23 123.97 207.39 120.37 205.73 121.88 C 204.27 126.24 200.76 118.14 197.94 122.54 C 196.10 125.52 198.49 130.10 198.00 133.80 C 196.53 135.46 195.17 137.21 194.05 139.12 C 192.86 137.87 191.48 136.75 190.67 135.20 C 191.79 130.96 191.83 126.63 189.59 122.73 C 189.22 116.64 191.19 110.72 191.23 104.63 C 192.12 104.01 192.88 103.12 194.00 102.92 C 203.70 99.91 191.95 119.30 201.38 117.88 Z" />
</g>
<g id="#1b1b16ff">
<path fill="#1b1b16" opacity="1.00" d=" M 48.26 99.71 C 54.20 103.87 58.00 113.72 57.69 119.55 C 61.32 117.73 58.95 123.78 61.86 123.88 C 65.99 117.12 62.88 99.69 74.63 101.31 C 77.29 103.72 76.87 107.31 75.64 110.39 C 77.85 119.47 74.83 129.67 78.23 138.90 C 78.06 140.19 77.57 141.39 76.76 142.41 C 76.67 137.81 68.18 140.16 70.48 135.41 C 73.03 130.64 70.95 125.28 70.25 120.27 C 74.38 117.57 69.13 110.70 69.20 117.81 C 69.31 120.88 66.40 121.28 65.00 122.91 C 66.83 125.27 69.20 127.84 67.11 130.87 C 63.22 131.12 64.01 134.27 65.03 136.97 C 63.63 138.23 61.81 137.35 60.20 137.15 C 61.97 133.01 58.96 131.04 55.93 128.98 C 55.57 126.71 55.19 124.44 54.78 122.18 C 50.47 120.50 54.60 127.59 53.99 129.90 C 49.97 126.94 49.45 128.56 52.39 132.16 C 55.13 135.44 52.08 140.99 47.76 138.49 C 53.14 134.38 44.82 132.65 46.16 127.66 C 46.31 125.47 46.64 123.30 46.87 121.12 C 47.67 114.00 49.27 106.89 48.26 99.71 M 50.24 115.39 C 49.60 121.25 55.62 116.52 50.24 115.39 Z" />
</g>
<g id="#141311ff">
<path fill="#141311" opacity="1.00" d=" M 87.00 100.71 C 87.45 100.66 88.34 100.57 88.79 100.52 C 93.32 101.07 97.91 100.96 102.44 101.51 C 102.71 103.66 102.68 105.83 102.74 107.99 C 98.13 108.23 93.61 107.03 89.10 106.31 C 86.23 109.20 87.64 113.31 89.24 116.44 C 94.06 115.51 100.68 115.21 99.45 121.83 C 95.43 126.63 86.17 118.40 89.49 129.78 C 86.75 133.32 95.74 138.70 90.84 139.22 C 87.11 136.96 79.06 141.47 82.20 133.04 C 82.77 124.31 83.96 115.42 82.05 106.77 C 83.90 104.91 85.93 103.17 87.00 100.71 Z" />
</g>
<g id="#191815ff">
<path fill="#191815" opacity="1.00" d=" M 111.66 100.53 C 113.03 100.39 114.36 100.92 115.68 101.20 C 117.33 104.80 115.41 108.81 117.02 112.37 C 118.11 115.57 119.17 118.97 121.74 121.33 C 122.97 122.80 126.36 123.81 124.01 125.98 C 120.40 129.41 129.64 137.77 123.04 138.63 C 117.44 140.77 119.96 132.93 117.58 129.90 C 117.67 128.31 117.89 126.73 118.05 125.15 C 116.53 127.39 114.64 126.46 112.83 125.12 C 113.37 126.85 115.64 128.67 113.96 130.40 C 107.99 127.98 108.82 135.21 107.91 139.14 C 104.84 139.23 104.08 135.99 102.71 133.88 L 103.07 133.09 C 104.15 130.12 107.46 126.69 103.45 124.59 C 106.90 118.08 109.14 108.40 111.66 100.53 M 113.36 111.22 C 110.63 115.46 107.44 127.81 117.05 122.86 C 115.51 119.47 116.04 111.77 113.36 111.22 Z" />
</g>
<g id="#191814ff">
<path fill="#191814" opacity="1.00" d=" M 246.41 105.36 C 240.95 105.19 246.29 99.91 249.46 99.68 C 255.61 100.11 261.75 100.80 267.86 101.60 C 274.32 108.41 262.33 110.96 257.74 107.34 C 253.63 105.42 257.64 114.81 256.13 115.73 C 260.14 117.86 265.75 115.48 268.87 119.18 C 267.01 123.66 260.63 125.29 256.10 125.41 C 253.57 135.76 266.76 125.63 271.41 130.85 C 272.86 136.15 267.22 141.49 261.88 139.07 C 260.96 137.14 261.47 135.07 261.83 133.08 C 260.00 133.84 258.09 134.39 256.20 135.00 C 257.02 136.52 258.53 138.30 255.90 138.75 C 254.17 138.60 252.44 138.53 250.73 138.78 C 249.71 136.76 249.06 134.52 247.55 132.79 C 247.74 132.33 248.13 131.39 248.32 130.92 C 250.71 126.41 247.07 121.97 245.16 118.07 C 250.34 118.03 249.73 110.56 245.25 109.48 C 243.38 106.97 251.12 105.60 246.41 105.36 Z" />
</g>
<g id="#0d0c0dff">
<path fill="#0d0c0d" opacity="1.00" d=" M 234.34 101.31 C 238.54 99.63 238.84 105.95 238.89 108.76 C 238.03 113.21 238.08 117.75 238.15 122.25 C 234.90 130.30 245.17 126.41 248.32 130.92 C 248.13 131.39 247.74 132.33 247.55 132.79 C 246.72 134.51 247.59 138.68 245.20 138.73 C 240.32 134.63 232.71 139.28 228.12 134.78 C 227.83 131.49 227.46 127.49 230.00 124.98 C 231.70 120.06 231.02 114.48 231.52 109.26 C 232.45 107.56 233.35 105.76 230.98 104.84 C 228.82 102.41 232.60 101.94 234.34 101.31 Z" />
</g>
<g id="#2a2821ff">
<path fill="#2a2821" opacity="1.00" d=" M 129.52 114.72 C 131.24 110.41 125.75 99.27 132.92 102.94 C 135.06 108.44 138.78 113.08 142.00 117.97 C 144.71 121.34 144.36 116.27 144.26 113.56 C 144.45 111.95 143.94 110.39 143.66 108.83 C 143.51 107.53 143.57 106.23 143.77 104.94 C 146.60 100.86 150.93 103.75 150.61 108.07 C 149.32 118.71 150.25 129.39 150.89 140.02 C 148.89 140.20 146.97 139.56 145.18 138.74 C 141.60 131.72 139.56 123.73 134.19 117.81 C 134.15 124.75 136.42 132.28 134.83 138.83 C 133.27 138.78 131.70 138.77 130.15 138.66 C 127.58 130.65 132.65 122.83 129.52 114.72 Z" />
</g>
<g id="#989471ff">
<path fill="#989471" opacity="1.00" d=" M 187.99 104.83 C 189.05 104.56 190.14 104.40 191.23 104.63 C 191.19 110.72 189.22 116.64 189.59 122.73 C 189.22 126.92 189.21 131.18 190.67 135.20 C 191.48 136.75 192.86 137.87 194.05 139.12 C 196.24 141.29 198.81 136.01 198.00 133.80 C 198.49 130.10 196.10 125.52 197.94 122.54 C 205.20 124.98 202.09 131.62 200.03 136.71 C 200.48 136.80 201.40 137.00 201.86 137.10 C 201.50 139.81 197.36 141.12 199.85 144.14 C 203.09 147.09 205.02 142.27 201.93 139.87 C 206.36 140.76 209.53 145.06 214.40 144.40 C 217.81 143.58 214.64 146.12 213.75 147.25 C 210.97 148.85 210.24 143.90 207.78 145.54 C 207.38 148.10 207.66 153.05 204.41 149.44 C 200.97 152.73 197.38 155.93 194.19 159.48 C 196.51 160.83 198.53 163.66 201.48 161.95 C 200.97 159.59 201.20 157.29 203.53 156.04 C 206.53 160.57 207.59 164.27 202.94 168.04 C 205.83 170.09 211.62 170.52 211.04 176.20 C 208.18 174.93 206.90 170.65 203.09 172.04 C 201.57 176.21 207.60 172.93 207.23 177.76 C 204.65 175.79 201.82 177.20 199.18 178.24 C 200.02 179.94 202.93 181.56 201.02 183.51 C 199.12 182.39 198.00 180.68 197.55 178.54 C 192.93 178.52 188.47 175.02 183.91 177.10 C 184.83 180.52 192.57 180.68 188.63 184.57 C 186.52 186.71 190.85 184.80 191.97 185.07 C 193.15 188.54 188.11 187.13 187.77 190.39 C 189.56 189.76 191.44 192.56 192.71 190.74 C 194.66 188.81 193.13 181.41 197.53 183.20 C 197.53 186.49 200.39 185.42 202.52 184.96 C 204.00 185.21 203.89 186.70 204.07 187.87 C 202.25 187.56 201.59 189.45 201.73 190.91 C 200.94 192.69 201.99 194.23 202.91 195.71 C 201.92 200.02 201.56 205.53 205.51 208.51 C 208.23 209.99 205.54 212.39 204.76 214.29 C 203.44 217.44 197.50 218.67 199.83 213.87 C 196.60 212.90 198.79 219.08 196.36 217.58 C 191.23 216.61 196.11 213.13 193.90 210.12 C 191.39 211.59 188.53 211.61 185.71 211.55 C 186.56 208.50 189.33 208.06 192.01 208.89 C 193.16 205.59 183.29 204.45 185.70 208.23 C 186.43 210.16 183.84 207.99 183.09 207.96 C 176.35 204.36 186.28 200.86 182.85 197.18 C 178.83 199.78 174.36 191.89 179.37 190.32 C 184.60 187.33 171.75 187.81 176.66 181.87 C 173.57 185.44 172.45 183.90 169.51 180.64 C 170.62 183.63 168.71 185.67 165.69 184.48 C 166.35 186.82 172.18 191.75 170.41 186.62 C 169.13 183.48 173.43 186.18 174.93 186.26 C 174.86 190.03 168.76 189.30 167.63 192.99 C 166.39 194.37 164.77 195.19 162.88 195.09 C 163.48 191.79 169.28 189.34 164.75 186.22 C 160.38 186.77 155.15 186.67 152.78 182.21 C 151.79 179.82 148.97 176.93 151.70 174.70 C 155.06 171.72 148.74 171.89 147.11 170.09 C 149.45 174.11 142.91 175.66 147.09 179.15 C 143.13 178.58 143.78 173.17 140.81 170.96 C 142.69 172.29 147.40 173.64 145.20 169.82 C 141.78 165.55 151.53 171.33 149.71 166.69 C 151.25 162.43 141.55 155.26 150.26 156.55 C 147.80 154.26 145.56 151.74 146.68 147.78 C 142.80 150.13 142.68 157.79 136.84 157.06 C 137.54 154.95 139.63 153.90 141.04 152.32 C 137.58 152.70 136.13 150.09 134.50 147.64 C 133.52 150.77 136.08 154.40 134.82 156.90 C 129.72 155.40 129.13 144.63 134.65 143.57 C 137.95 146.02 141.06 146.13 142.85 142.06 C 142.59 147.16 146.39 144.37 144.92 140.61 C 144.99 140.14 145.11 139.21 145.18 138.74 C 146.97 139.56 148.89 140.20 150.89 140.02 C 150.25 129.39 149.32 118.71 150.61 108.07 C 150.44 103.48 152.20 105.98 153.68 108.40 C 155.44 112.08 158.13 115.40 156.67 119.89 C 156.59 124.68 157.40 129.62 158.81 134.19 C 159.77 136.11 160.79 138.06 160.61 140.28 C 165.61 136.14 169.18 130.22 171.16 124.06 C 173.16 124.21 174.34 126.55 175.73 127.87 C 171.49 132.46 177.86 141.19 182.84 135.98 C 181.58 134.22 180.62 132.62 183.64 132.59 C 184.11 123.23 187.58 114.26 187.99 104.83 M 166.23 164.98 C 163.00 170.59 169.10 173.84 173.02 176.02 C 174.22 183.28 178.69 175.75 183.03 177.99 C 183.53 175.98 181.52 175.47 180.00 175.17 C 179.12 172.94 179.84 170.85 180.91 168.84 C 178.32 168.51 178.51 172.33 175.96 172.06 C 176.20 169.97 176.79 167.95 177.03 165.86 C 175.05 166.63 174.61 169.11 172.86 169.98 C 169.43 170.47 169.22 165.33 166.23 164.98 M 179.21 179.13 C 175.87 181.98 182.23 182.51 184.17 181.96 C 183.16 180.31 181.16 178.95 179.21 179.13 Z" />
</g>
<g id="#131311ff">
<path fill="#131311" opacity="1.00" d=" M 217.04 107.97 C 216.02 102.35 229.77 103.58 224.99 110.00 C 223.56 118.76 230.53 131.08 223.59 137.55 C 219.94 134.11 222.00 128.38 222.03 123.97 C 219.98 125.56 217.44 128.53 216.85 124.25 C 218.13 118.92 217.85 113.34 217.04 107.97 Z" />
</g>
<g id="#33322aff">
<path fill="#33322a" opacity="1.00" d=" M 230.98 104.84 C 233.35 105.76 232.45 107.56 231.52 109.26 C 231.02 114.48 231.70 120.06 230.00 124.98 C 230.05 118.26 229.78 111.49 230.98 104.84 Z" />
</g>
<g id="#3f3b2bff">
<path fill="#3f3b2b" opacity="1.00" d=" M 117.02 112.37 C 119.00 101.99 122.64 116.82 121.74 121.33 C 119.17 118.97 118.11 115.57 117.02 112.37 Z" />
</g>
<g id="#d4d1b7ff">
<path fill="#d4d1b7" opacity="1.00" d=" M 1.96 112.27 C 1.13 110.76 1.68 109.47 2.92 108.41 C 3.74 110.27 5.43 114.11 1.96 112.27 Z" />
</g>
<g id="#cbcfb1ff">
<path fill="#cbcfb1" opacity="1.00" d=" M 144.26 113.56 C 141.63 113.55 140.85 109.08 143.66 108.83 C 143.94 110.39 144.45 111.95 144.26 113.56 Z" />
</g>
<g id="#403e3aff">
<path fill="#403e3a" opacity="1.00" d=" M 238.15 122.25 C 238.08 117.75 238.03 113.21 238.89 108.76 C 238.99 113.27 238.87 117.79 238.15 122.25 Z" />
</g>
<g id="#827d6eff">
<path fill="#827d6e" opacity="1.00" d=" M 113.36 111.22 C 116.04 111.77 115.51 119.47 117.05 122.86 C 107.44 127.81 110.63 115.46 113.36 111.22 Z" />
</g>
<g id="#e6e8c6ff">
<path fill="#e6e8c6" opacity="1.00" d=" M 14.27 112.19 C 19.13 112.06 13.03 117.51 14.27 112.19 Z" />
</g>
<g id="#404f47ff">
<path fill="#404f47" opacity="1.00" d=" M 69.20 117.81 C 69.13 110.70 74.38 117.57 70.25 120.27 C 69.99 119.66 69.46 118.42 69.20 117.81 Z" />
</g>
<g id="#697760ff">
<path fill="#697760" opacity="1.00" d=" M 50.24 115.39 C 55.62 116.52 49.60 121.25 50.24 115.39 Z" />
</g>
<g id="#908c6cff">
<path fill="#908c6c" opacity="1.00" d=" M 3.48 118.34 C 5.87 115.93 9.01 118.55 11.60 119.21 C 10.80 120.75 9.96 122.35 11.17 123.95 C 14.01 123.59 15.90 120.15 19.00 122.15 C 19.13 125.05 16.08 126.29 13.64 125.54 C 16.40 129.14 23.33 129.37 22.73 135.19 C 24.12 139.86 19.51 136.05 16.95 136.58 C 20.62 133.61 13.98 132.69 14.62 128.26 C 10.50 126.29 16.20 134.25 12.37 132.56 C 7.27 130.38 10.71 140.19 5.10 139.30 C 7.55 140.43 8.50 141.94 5.75 143.46 C 4.73 142.62 3.69 141.80 2.63 141.00 C 4.76 138.10 2.53 136.27 0.00 134.68 L 0.00 122.40 C 2.53 122.40 3.11 120.45 3.48 118.34 Z" />
</g>
<g id="#8f8564ff">
<path fill="#8f8564" opacity="1.00" d=" M 69.20 117.81 C 69.46 118.42 69.99 119.66 70.25 120.27 C 70.95 125.28 73.03 130.64 70.48 135.41 C 68.18 140.16 76.67 137.81 76.76 142.41 C 75.99 143.50 73.81 148.23 74.41 144.43 C 74.89 139.95 71.26 144.18 70.13 145.83 C 65.22 141.69 69.07 150.75 66.58 152.58 C 62.79 154.82 66.19 158.51 66.64 161.64 C 65.43 162.79 64.03 163.87 63.71 165.62 C 65.28 165.75 68.98 163.73 67.88 166.73 C 60.75 164.03 64.15 168.94 63.26 171.58 C 61.11 175.32 65.92 178.73 64.56 182.62 C 63.31 185.59 65.60 188.14 66.22 190.93 C 60.67 193.28 58.78 186.54 59.47 182.63 C 54.41 185.41 58.27 188.28 59.14 192.01 C 56.91 190.87 54.13 186.33 53.07 192.07 C 56.87 196.55 50.52 198.18 46.73 197.48 C 48.43 199.27 51.84 201.69 47.15 201.31 C 43.44 202.80 44.63 197.94 43.01 196.01 C 45.06 193.46 40.48 194.23 40.40 191.77 C 40.72 188.96 40.55 186.17 40.25 183.38 C 42.12 182.46 45.15 181.81 42.46 179.75 C 40.83 177.02 37.60 175.90 35.80 173.37 C 42.03 175.84 39.76 164.65 44.45 166.51 C 45.20 169.25 42.61 171.51 41.29 173.67 C 42.80 174.49 44.31 175.33 45.86 176.07 C 45.41 173.41 43.69 169.30 48.01 169.60 C 47.26 167.19 44.54 165.14 45.29 162.48 C 47.21 161.37 49.23 160.32 50.41 158.35 C 54.36 158.60 52.60 155.05 51.19 153.11 C 54.60 154.78 54.86 150.31 56.16 148.18 C 53.28 149.69 50.17 150.82 46.90 151.08 C 47.23 148.24 53.07 148.07 51.43 144.59 C 47.67 142.64 55.21 138.61 55.91 142.18 C 58.25 144.69 59.96 140.13 61.73 138.90 C 61.12 145.03 66.61 139.06 66.61 136.04 C 66.87 134.32 66.96 132.59 67.11 130.87 C 69.20 127.84 66.83 125.27 65.00 122.91 C 66.40 121.28 69.31 120.88 69.20 117.81 M 57.20 166.16 C 56.31 167.87 56.10 169.80 55.84 171.68 C 52.63 169.87 51.53 173.78 50.06 175.91 C 53.19 178.88 55.70 173.28 58.78 172.60 C 57.61 170.56 60.35 165.24 57.20 166.16 Z" />
</g>
<g id="#9c9672ff">
<path fill="#9c9672" opacity="1.00" d=" M 134.19 117.81 C 139.56 123.73 141.60 131.72 145.18 138.74 C 143.62 139.11 140.66 142.39 140.85 139.00 C 139.65 136.20 136.51 139.87 136.27 141.91 C 133.81 141.67 132.51 140.70 134.83 138.83 C 136.42 132.28 134.15 124.75 134.19 117.81 Z" />
</g>
<g id="#595640ff">
<path fill="#595640" opacity="1.00" d=" M 156.67 119.89 C 160.77 123.18 159.15 129.80 158.81 134.19 C 157.40 129.62 156.59 124.68 156.67 119.89 Z" />
</g>
<g id="#3a392eff">
<path fill="#3a392e" opacity="1.00" d=" M 197.94 122.54 C 200.76 118.14 204.27 126.24 205.73 121.88 C 205.58 125.47 209.14 123.52 210.76 125.29 C 211.41 127.60 211.65 130.01 211.79 132.40 C 208.70 132.05 207.36 135.28 205.14 136.82 C 203.64 135.89 201.66 133.86 201.86 137.10 C 201.40 137.00 200.48 136.80 200.03 136.71 C 202.09 131.62 205.20 124.98 197.94 122.54 Z" />
</g>
<g id="#464934ff">
<path fill="#464934" opacity="1.00" d=" M 190.67 135.20 C 189.21 131.18 189.22 126.92 189.59 122.73 C 191.83 126.63 191.79 130.96 190.67 135.20 Z" />
</g>
<g id="#36362dff">
<path fill="#36362d" opacity="1.00" d=" M 215.14 135.66 C 215.41 132.07 214.92 125.59 216.85 124.25 C 217.44 128.53 219.98 125.56 222.03 123.97 C 222.00 128.38 219.94 134.11 223.59 137.55 C 223.12 139.19 217.52 136.35 215.14 135.66 Z" />
</g>
<g id="#494e38ff">
<path fill="#494e38" opacity="1.00" d=" M 112.83 125.12 C 114.64 126.46 116.53 127.39 118.05 125.15 C 117.89 126.73 117.67 128.31 117.58 129.90 C 116.46 131.23 115.21 132.08 113.96 130.40 C 115.64 128.67 113.37 126.85 112.83 125.12 Z" />
</g>
<g id="#514f42ff">
<path fill="#514f42" opacity="1.00" d=" M 46.16 127.66 C 44.82 132.65 53.14 134.38 47.76 138.49 C 44.16 140.20 42.41 136.87 46.99 136.72 C 42.81 134.74 44.51 130.92 46.16 127.66 Z" />
</g>
<g id="#5a5e4cff">
<path fill="#5a5e4c" opacity="1.00" d=" M 52.39 132.16 C 49.45 128.56 49.97 126.94 53.99 129.90 C 53.48 130.67 52.95 131.42 52.39 132.16 Z" />
</g>
<g id="#76725fff">
<path fill="#76725f" opacity="1.00" d=" M 275.90 127.44 C 277.67 128.32 278.93 129.97 279.13 131.97 C 275.53 133.22 275.82 130.06 275.90 127.44 Z" />
</g>
<g id="#4b443eff">
<path fill="#4b443e" opacity="1.00" d=" M 55.93 128.98 C 58.96 131.04 61.97 133.01 60.20 137.15 C 56.22 142.61 56.32 130.66 55.93 128.98 Z" />
</g>
<g id="#35352dff">
<path fill="#35352d" opacity="1.00" d=" M 90.84 139.22 C 95.74 138.70 86.75 133.32 89.49 129.78 C 92.90 132.47 98.05 129.84 100.78 133.20 C 100.12 135.56 99.91 138.25 98.31 140.21 C 96.95 140.25 95.60 140.30 94.25 140.38 C 93.11 140.00 91.98 139.61 90.84 139.22 Z" />
</g>
<g id="#494a38ff">
<path fill="#494a38" opacity="1.00" d=" M 65.03 136.97 C 64.01 134.27 63.22 131.12 67.11 130.87 C 66.96 132.59 66.87 134.32 66.61 136.04 C 66.21 136.27 65.42 136.74 65.03 136.97 Z" />
</g>
<g id="#3b3936ff">
<path fill="#3b3936" opacity="1.00" d=" M 256.20 135.00 C 258.09 134.39 260.00 133.84 261.83 133.08 C 261.47 135.07 260.96 137.14 261.88 139.07 C 259.88 138.99 257.88 138.90 255.90 138.75 C 258.53 138.30 257.02 136.52 256.20 135.00 Z" />
</g>
<g id="#504934ff">
<path fill="#504934" opacity="1.00" d=" M 107.91 139.14 C 104.40 143.43 98.51 137.75 102.71 133.88 C 104.08 135.99 104.84 139.23 107.91 139.14 Z" />
</g>
<g id="#51494fff">
<path fill="#51494f" opacity="1.00" d=" M 194.05 139.12 C 195.17 137.21 196.53 135.46 198.00 133.80 C 198.81 136.01 196.24 141.29 194.05 139.12 Z" />
</g>
<g id="#7c785cff">
<path fill="#7c785c" opacity="1.00" d=" M 276.45 139.41 C 274.52 135.56 280.49 132.86 282.15 136.79 C 282.85 140.06 285.04 142.39 287.93 143.94 C 281.98 147.69 287.19 155.18 293.11 153.37 C 291.45 157.15 285.50 157.46 283.95 161.83 C 286.64 165.97 291.88 157.53 291.40 164.15 C 291.36 160.05 296.64 159.86 296.61 156.04 C 298.38 156.86 300.10 157.91 302.08 158.18 C 301.87 155.42 298.11 155.56 298.11 153.14 C 303.20 151.19 310.42 154.25 314.57 149.58 C 310.49 144.54 317.83 148.77 320.00 150.23 L 320.00 158.32 C 315.82 153.67 313.95 160.84 312.43 163.96 C 313.58 166.88 311.56 167.00 309.20 166.78 C 306.23 164.56 307.61 161.61 309.01 158.88 C 307.43 160.64 302.71 162.81 305.95 165.17 C 302.19 169.26 296.69 170.80 292.72 166.28 C 290.72 164.56 289.64 165.32 289.69 167.89 C 285.80 165.44 281.23 167.17 277.05 165.89 C 278.17 163.61 279.33 161.32 279.92 158.83 C 276.71 158.21 276.55 161.55 275.56 163.70 C 272.09 165.03 275.35 160.18 275.75 158.61 C 273.70 159.87 271.81 163.58 270.01 160.05 C 270.65 158.94 271.40 157.90 272.12 156.85 C 275.38 154.20 276.80 150.31 280.09 147.87 C 277.29 148.20 274.56 148.62 271.96 149.66 C 269.06 146.62 274.83 143.49 276.91 146.76 C 277.16 144.26 277.80 141.88 280.71 141.50 C 282.33 138.05 278.51 139.57 276.45 139.41 Z" />
</g>
<g id="#bec49dff">
<path fill="#bec49d" opacity="1.00" d=" M 27.18 136.09 C 30.46 136.08 30.58 140.60 30.70 143.11 C 27.47 143.64 30.55 138.11 26.96 138.92 C 25.04 139.14 26.32 136.58 27.18 136.09 Z" />
</g>
<g id="#83684bff">
<path fill="#83684b" opacity="1.00" d=" M 78.23 138.90 C 78.38 142.52 81.26 141.81 83.88 141.17 C 81.30 145.92 87.36 144.42 89.89 147.11 C 89.85 143.26 90.23 140.90 94.25 140.38 C 95.60 140.30 96.95 140.25 98.31 140.21 C 97.07 142.38 93.76 142.94 93.87 145.81 C 97.99 144.09 96.89 147.23 96.01 150.02 C 99.35 148.00 102.45 143.43 106.59 144.25 C 107.77 146.67 108.73 149.30 110.87 151.08 C 112.37 149.01 114.32 147.31 117.08 147.93 C 115.51 149.89 114.76 151.91 117.46 153.23 C 115.86 155.73 117.82 158.13 117.90 160.71 C 115.76 162.66 109.69 164.23 113.10 167.86 C 114.96 172.25 119.46 169.69 122.80 169.14 C 123.39 171.30 123.75 173.52 124.17 175.72 C 126.19 174.57 128.49 173.04 128.20 176.66 C 134.91 173.68 140.41 180.50 145.92 183.29 C 144.01 185.25 142.39 187.48 141.27 189.99 C 141.80 186.34 133.31 178.61 134.78 185.98 C 133.16 186.12 130.97 186.27 130.80 184.12 C 127.50 179.12 120.61 191.72 122.94 183.95 C 117.83 184.82 121.52 190.92 120.92 194.19 C 117.21 193.41 116.84 186.44 112.60 189.45 C 107.06 191.78 113.82 185.50 111.23 182.87 C 110.58 175.91 102.94 183.56 98.95 180.28 C 101.17 184.40 97.05 184.55 93.99 185.31 C 100.34 191.94 92.63 202.23 89.34 209.26 C 88.54 205.52 84.96 206.28 82.04 206.07 C 82.67 198.63 89.82 193.96 90.11 186.44 C 85.87 189.07 83.25 178.53 90.97 182.82 C 89.55 179.42 89.20 173.85 84.78 177.84 C 85.17 173.07 93.27 174.87 94.17 168.94 C 91.11 169.69 88.08 170.55 84.94 170.93 C 77.04 172.25 82.03 189.37 72.34 186.16 C 72.69 192.59 67.30 196.73 62.15 199.16 C 62.43 199.59 62.97 200.46 63.25 200.90 C 61.79 203.54 59.37 205.40 56.93 207.08 C 57.59 205.32 58.41 203.62 59.05 201.86 C 55.41 205.60 50.60 204.76 45.95 204.15 C 47.17 206.73 47.76 210.33 50.82 211.34 C 47.56 207.87 51.38 205.50 53.36 209.72 C 56.96 206.27 59.00 210.19 61.79 211.97 C 62.39 208.55 64.68 207.99 67.78 208.92 C 72.35 208.41 71.32 214.28 73.02 217.13 C 69.28 215.95 68.88 210.43 65.09 209.91 C 61.20 215.00 64.75 220.14 64.09 225.68 C 60.19 224.70 57.55 227.66 54.77 229.78 C 51.07 228.86 46.59 227.02 43.70 230.48 C 40.21 228.70 36.18 228.26 35.72 233.22 L 35.01 233.37 C 33.77 228.89 35.22 224.11 33.50 219.71 C 32.56 218.22 33.69 213.84 31.05 216.03 C 31.92 213.38 31.56 209.11 34.82 208.21 C 36.77 209.42 38.77 210.66 41.07 211.12 C 38.99 207.62 38.64 205.41 43.38 205.29 C 46.81 199.08 37.00 204.05 37.53 198.41 C 36.34 195.23 41.20 196.16 43.01 196.01 C 44.63 197.94 43.44 202.80 47.15 201.31 C 51.84 201.69 48.43 199.27 46.73 197.48 C 50.52 198.18 56.87 196.55 53.07 192.07 C 54.13 186.33 56.91 190.87 59.14 192.01 C 58.27 188.28 54.41 185.41 59.47 182.63 C 58.78 186.54 60.67 193.28 66.22 190.93 C 65.60 188.14 63.31 185.59 64.56 182.62 C 65.92 178.73 61.11 175.32 63.26 171.58 C 64.15 168.94 60.75 164.03 67.88 166.73 C 68.98 163.73 65.28 165.75 63.71 165.62 C 64.03 163.87 65.43 162.79 66.64 161.64 C 66.19 158.51 62.79 154.82 66.58 152.58 C 69.07 150.75 65.22 141.69 70.13 145.83 C 71.26 144.18 74.89 139.95 74.41 144.43 C 73.81 148.23 75.99 143.50 76.76 142.41 C 77.57 141.39 78.06 140.19 78.23 138.90 Z" />
</g>
<g id="#dbd4bfff">
<path fill="#dbd4bf" opacity="1.00" d=" M 2.63 141.00 C 3.69 141.80 4.73 142.62 5.75 143.46 C 3.85 146.61 0.92 143.57 2.63 141.00 Z" />
</g>
<g id="#d7d2b2ff">
<path fill="#d7d2b2" opacity="1.00" d=" M 142.85 142.06 C 143.37 141.70 144.40 140.97 144.92 140.61 C 146.39 144.37 142.59 147.16 142.85 142.06 Z" />
</g>
<g id="#786f51ff">
<path fill="#786f51" opacity="1.00" d=" M 250.81 143.17 C 254.80 146.30 253.79 139.78 250.81 143.17 Z" />
</g>
<g id="#918a69ff">
<path fill="#918a69" opacity="1.00" d=" M 224.87 154.09 C 226.01 149.74 226.89 144.36 231.78 142.67 C 226.99 149.25 239.27 145.94 239.55 150.86 C 238.39 153.76 232.37 152.16 233.12 155.79 C 234.94 158.16 238.02 154.00 240.25 155.95 C 241.35 161.59 235.03 155.70 233.69 159.69 C 233.19 160.89 230.73 160.92 231.81 162.56 C 230.61 166.73 228.35 159.84 229.74 157.85 C 225.24 160.19 217.12 161.57 217.50 168.04 C 219.60 170.87 224.26 172.59 226.05 174.71 C 231.14 173.85 233.94 180.17 238.68 181.41 C 236.99 187.55 241.19 183.23 244.02 186.04 C 244.06 186.82 244.15 188.38 244.19 189.16 C 246.90 185.00 249.82 181.01 252.61 176.93 C 254.05 180.09 255.33 183.41 254.09 186.99 C 255.66 185.90 257.19 184.75 258.78 183.69 C 256.49 187.34 256.68 188.34 260.62 186.11 C 261.20 191.50 265.15 187.79 268.58 188.18 C 268.14 191.98 273.42 195.48 266.99 193.00 C 268.13 197.82 273.18 199.66 275.13 203.94 C 271.85 203.77 271.97 206.05 272.45 208.64 C 269.04 208.60 266.38 206.19 263.33 205.05 C 262.45 209.90 256.40 211.79 260.06 217.05 C 256.95 215.48 254.02 211.43 251.36 215.83 C 248.11 204.99 248.19 224.19 241.87 217.14 C 241.62 213.74 238.70 210.10 235.05 211.82 C 230.31 210.02 225.83 200.08 234.06 201.28 C 237.68 205.63 244.34 209.24 250.60 209.59 C 251.20 205.21 245.88 206.61 245.51 202.87 C 244.94 204.09 245.25 206.39 243.29 205.99 C 244.36 200.88 238.44 200.52 237.33 196.46 C 239.06 195.48 240.50 194.17 240.03 191.97 C 235.31 191.06 234.56 197.25 231.77 199.90 C 229.57 199.02 231.43 195.35 228.44 194.56 C 235.52 187.43 223.29 178.97 216.13 180.55 C 211.79 180.29 207.85 183.22 204.78 186.01 C 206.88 190.59 212.07 185.33 213.30 182.50 C 215.41 185.14 220.38 182.89 220.13 187.16 C 222.45 190.44 216.41 191.77 217.82 194.94 C 216.08 194.80 215.52 195.50 216.12 197.05 C 216.32 197.50 216.72 198.39 216.92 198.84 C 216.34 199.53 215.75 200.20 215.13 200.85 C 210.25 195.44 217.42 192.75 219.15 187.98 C 216.15 187.74 213.10 188.65 210.87 190.70 C 207.01 187.30 207.22 193.59 205.32 195.85 C 204.51 195.79 203.71 195.75 202.91 195.71 C 201.99 194.23 200.94 192.69 201.73 190.91 C 203.20 190.79 204.70 189.44 204.07 187.87 C 203.89 186.70 204.00 185.21 202.52 184.96 C 202.15 184.60 201.40 183.87 201.02 183.51 C 202.93 181.56 200.02 179.94 199.18 178.24 C 201.82 177.20 204.65 175.79 207.23 177.76 C 207.60 172.93 201.57 176.21 203.09 172.04 C 206.90 170.65 208.18 174.93 211.04 176.20 C 211.62 170.52 205.83 170.09 202.94 168.04 C 207.59 164.27 206.53 160.57 203.53 156.04 C 201.20 157.29 200.97 159.59 201.48 161.95 C 198.53 163.66 196.51 160.83 194.19 159.48 C 197.38 155.93 200.97 152.73 204.41 149.44 C 207.66 153.05 207.38 148.10 207.78 145.54 C 210.24 143.90 210.97 148.85 213.75 147.25 C 214.92 152.58 215.25 149.50 217.74 148.08 C 217.03 153.06 222.32 151.16 224.87 154.09 M 251.93 208.02 C 251.44 210.88 254.91 211.17 256.89 211.82 C 260.33 209.59 254.56 205.12 251.93 208.02 Z" />
</g>
<g id="#d6d1b5ff">
<path fill="#d6d1b5" opacity="1.00" d=" M 13.94 144.03 C 20.57 142.75 14.48 150.80 13.94 144.03 Z" />
</g>
<g id="#817e64ff">
<path fill="#817e64" opacity="1.00" d=" M 0.00 148.92 C 3.23 150.22 6.39 149.49 9.05 147.35 C 11.71 149.78 4.86 152.67 8.51 153.68 C 10.79 148.21 15.90 152.74 18.77 155.09 C 20.43 160.28 21.98 166.44 26.32 170.37 C 25.21 176.70 31.25 180.36 33.16 185.82 C 31.42 185.47 29.30 184.76 30.30 187.33 C 29.48 190.60 34.66 189.59 31.03 192.16 C 31.95 195.53 35.07 191.39 36.92 190.70 C 37.24 187.38 33.52 183.41 36.84 180.84 C 38.43 177.74 40.26 182.32 42.46 179.75 C 45.15 181.81 42.12 182.46 40.25 183.38 C 40.55 186.17 40.72 188.96 40.40 191.77 C 40.48 194.23 45.06 193.46 43.01 196.01 C 41.20 196.16 36.34 195.23 37.53 198.41 C 37.00 204.05 46.81 199.08 43.38 205.29 C 38.64 205.41 38.99 207.62 41.07 211.12 C 38.77 210.66 36.77 209.42 34.82 208.21 C 31.56 209.11 31.92 213.38 31.05 216.03 C 30.14 216.48 29.18 216.77 28.16 216.91 C 27.80 210.36 19.34 204.03 24.79 198.03 C 23.34 195.26 21.33 192.82 18.81 190.95 C 22.40 196.49 19.68 202.12 21.91 207.84 C 17.78 210.01 16.35 208.89 18.87 204.83 C 15.12 204.68 12.93 209.84 8.88 207.13 C 8.42 202.58 1.98 203.86 2.14 208.05 C 3.78 212.80 3.08 218.39 6.84 222.20 C 2.88 227.54 11.41 228.57 15.00 229.01 C 17.07 234.47 24.69 228.82 26.08 233.78 C 21.49 229.86 15.91 240.22 13.56 234.38 C 12.37 230.45 7.95 238.50 12.00 237.02 C 14.69 236.44 13.72 238.43 13.13 240.00 L 0.00 240.00 L 0.00 180.55 C 3.22 181.92 5.69 184.28 7.39 187.31 C 6.33 184.17 13.06 182.76 10.74 186.86 C 8.69 189.72 16.16 189.90 12.43 191.42 C 8.98 192.35 13.94 195.78 14.51 192.49 C 19.79 185.99 14.07 177.64 19.23 171.50 C 14.27 173.40 15.53 165.10 11.04 165.29 C 7.38 166.10 3.69 167.16 0.00 165.94 L 0.00 148.92 M 2.24 231.20 C 0.22 237.02 7.52 231.06 2.24 231.20 Z" />
</g>
<g id="#7e6043ff">
<path fill="#7e6043" opacity="1.00" d=" M 246.21 149.79 C 255.23 152.19 265.60 148.65 272.12 156.85 C 271.40 157.90 270.65 158.94 270.01 160.05 C 269.05 161.62 270.34 163.36 270.46 165.02 C 270.57 167.57 269.10 166.03 267.89 165.25 C 264.93 166.41 262.21 168.26 258.88 168.37 C 258.75 172.64 264.44 170.95 264.33 174.84 C 266.17 178.94 260.93 180.92 258.78 183.69 C 257.19 184.75 255.66 185.90 254.09 186.99 C 255.33 183.41 254.05 180.09 252.61 176.93 C 249.82 181.01 246.90 185.00 244.19 189.16 C 244.15 188.38 244.06 186.82 244.02 186.04 C 248.36 179.17 234.78 176.74 239.81 170.80 C 242.46 168.42 238.02 167.01 236.85 165.11 C 239.02 165.95 242.82 165.63 241.35 162.68 C 238.66 158.49 235.29 163.96 231.81 162.56 C 230.73 160.92 233.19 160.89 233.69 159.69 C 235.03 155.70 241.35 161.59 240.25 155.95 C 244.73 159.25 244.51 152.45 246.21 149.79 Z" />
</g>
<g id="#908b67ff">
<path fill="#908b67" opacity="1.00" d=" M 38.00 159.14 C 40.59 156.54 42.84 153.12 46.61 152.21 C 47.38 154.54 48.29 156.91 50.41 158.35 C 48.02 158.06 45.54 160.25 43.41 158.64 C 40.78 156.04 39.55 163.51 38.00 159.14 Z" />
</g>
<g id="#575541ff">
<path fill="#575541" opacity="1.00" d=" M 312.43 163.96 C 313.95 160.84 315.82 153.67 320.00 158.32 L 320.00 161.66 C 313.55 162.62 312.08 173.62 307.90 177.95 C 310.93 177.38 313.89 176.55 316.83 175.65 C 317.64 183.81 304.01 179.56 302.12 187.00 C 299.70 187.30 297.31 188.60 294.87 188.00 C 300.53 181.60 305.02 174.21 309.20 166.78 C 311.56 167.00 313.58 166.88 312.43 163.96 Z" />
</g>
<g id="#877554ff">
<path fill="#877554" opacity="1.00" d=" M 217.50 168.04 C 217.12 161.57 225.24 160.19 229.74 157.85 C 228.35 159.84 230.61 166.73 231.81 162.56 C 235.29 163.96 238.66 158.49 241.35 162.68 C 242.82 165.63 239.02 165.95 236.85 165.11 C 238.02 167.01 242.46 168.42 239.81 170.80 C 234.78 176.74 248.36 179.17 244.02 186.04 C 241.19 183.23 236.99 187.55 238.68 181.41 C 233.94 180.17 231.14 173.85 226.05 174.71 C 224.26 172.59 219.60 170.87 217.50 168.04 Z" />
</g>
<g id="#8f886aff">
<path fill="#8f886a" opacity="1.00" d=" M 270.01 160.05 C 271.81 163.58 273.70 159.87 275.75 158.61 C 275.35 160.18 272.09 165.03 275.56 163.70 C 276.55 161.55 276.71 158.21 279.92 158.83 C 279.33 161.32 278.17 163.61 277.05 165.89 C 281.23 167.17 285.80 165.44 289.69 167.89 C 289.64 165.32 290.72 164.56 292.72 166.28 C 296.69 170.80 302.19 169.26 305.95 165.17 C 302.71 162.81 307.43 160.64 309.01 158.88 C 307.61 161.61 306.23 164.56 309.20 166.78 C 305.02 174.21 300.53 181.60 294.87 188.00 C 292.02 186.57 289.65 188.76 287.24 190.02 C 284.16 187.16 280.45 185.23 282.52 181.57 C 277.14 183.69 279.07 178.15 276.74 175.11 C 275.00 175.51 273.35 176.23 271.67 176.79 C 272.38 174.18 274.60 172.81 277.21 173.66 C 275.02 170.73 272.13 168.33 270.46 165.02 C 270.34 163.36 269.05 161.62 270.01 160.05 Z" />
</g>
<g id="#858169ff">
<path fill="#858169" opacity="1.00" d=" M 307.90 177.95 C 312.08 173.62 313.55 162.62 320.00 161.66 L 320.00 171.47 C 318.84 172.79 317.74 174.15 316.83 175.65 C 313.89 176.55 310.93 177.38 307.90 177.95 Z" />
</g>
<g id="#999478ff">
<path fill="#999478" opacity="1.00" d=" M 0.00 165.94 C 3.69 167.16 7.38 166.10 11.04 165.29 C 15.53 165.10 14.27 173.40 19.23 171.50 C 14.07 177.64 19.79 185.99 14.51 192.49 C 13.94 195.78 8.98 192.35 12.43 191.42 C 16.16 189.90 8.69 189.72 10.74 186.86 C 13.06 182.76 6.33 184.17 7.39 187.31 C 5.69 184.28 3.22 181.92 0.00 180.55 L 0.00 165.94 M 10.26 167.30 C 4.35 167.70 10.94 177.28 4.83 175.24 C 1.64 175.28 8.36 178.09 4.20 178.40 C 3.77 181.03 7.95 181.25 8.44 183.87 C 10.94 182.41 11.05 178.96 13.79 177.69 C 14.31 174.80 13.61 167.54 10.26 167.30 Z" />
</g>
<g id="#afab86ff">
<path fill="#afab86" opacity="1.00" d=" M 166.23 164.98 C 169.22 165.33 169.43 170.47 172.86 169.98 C 174.61 169.11 175.05 166.63 177.03 165.86 C 176.79 167.95 176.20 169.97 175.96 172.06 C 178.51 172.33 178.32 168.51 180.91 168.84 C 179.84 170.85 179.12 172.94 180.00 175.17 C 176.33 179.22 170.55 168.85 173.02 176.02 C 169.10 173.84 163.00 170.59 166.23 164.98 Z" />
</g>
<g id="#897d5fff">
<path fill="#897d5f" opacity="1.00" d=" M 258.88 168.37 C 262.21 168.26 264.93 166.41 267.89 165.25 C 269.10 166.03 270.57 167.57 270.46 165.02 C 272.13 168.33 275.02 170.73 277.21 173.66 C 274.60 172.81 272.38 174.18 271.67 176.79 C 273.35 176.23 275.00 175.51 276.74 175.11 C 279.07 178.15 277.14 183.69 282.52 181.57 C 280.45 185.23 284.16 187.16 287.24 190.02 C 285.82 192.46 285.27 195.21 285.04 197.99 C 287.00 195.89 294.37 191.33 291.12 197.14 C 287.62 199.08 292.13 202.60 290.04 204.62 C 286.36 202.95 281.29 201.63 282.55 196.00 C 279.52 198.12 277.04 200.80 275.13 203.94 C 273.18 199.66 268.13 197.82 266.99 193.00 C 273.42 195.48 268.14 191.98 268.58 188.18 C 265.15 187.79 261.20 191.50 260.62 186.11 C 256.68 188.34 256.49 187.34 258.78 183.69 C 260.93 180.92 266.17 178.94 264.33 174.84 C 264.44 170.95 258.75 172.64 258.88 168.37 Z" />
</g>
<g id="#a9a182ff">
<path fill="#a9a182" opacity="1.00" d=" M 57.20 166.16 C 60.35 165.24 57.61 170.56 58.78 172.60 C 55.70 173.28 53.19 178.88 50.06 175.91 C 51.53 173.78 52.63 169.87 55.84 171.68 C 56.10 169.80 56.31 167.87 57.20 166.16 Z" />
</g>
<g id="#817d62ff">
<path fill="#817d62" opacity="1.00" d=" M 10.26 167.30 C 13.61 167.54 14.31 174.80 13.79 177.69 C 11.05 178.96 10.94 182.41 8.44 183.87 C 7.95 181.25 3.77 181.03 4.20 178.40 C 8.36 178.09 1.64 175.28 4.83 175.24 C 10.94 177.28 4.35 167.70 10.26 167.30 Z" />
</g>
<g id="#7c5539ff">
<path fill="#7c5539" opacity="1.00" d=" M 84.94 170.93 C 88.08 170.55 91.11 169.69 94.17 168.94 C 93.27 174.87 85.17 173.07 84.78 177.84 C 89.20 173.85 89.55 179.42 90.97 182.82 C 83.25 178.53 85.87 189.07 90.11 186.44 C 89.82 193.96 82.67 198.63 82.04 206.07 C 79.34 207.78 78.88 210.55 79.53 213.47 C 76.66 213.73 75.86 218.85 73.02 217.13 C 71.32 214.28 72.35 208.41 67.78 208.92 C 69.04 205.11 67.34 201.88 63.25 200.90 C 62.97 200.46 62.43 199.59 62.15 199.16 C 67.30 196.73 72.69 192.59 72.34 186.16 C 82.03 189.37 77.04 172.25 84.94 170.93 Z" />
</g>
<g id="#42432eff">
<path fill="#42432e" opacity="1.00" d=" M 316.83 175.65 C 317.74 174.15 318.84 172.79 320.00 171.47 L 320.00 177.08 C 318.95 176.59 317.89 176.11 316.83 175.65 Z" />
</g>
<g id="#726e53ff">
<path fill="#726e53" opacity="1.00" d=" M 173.02 176.02 C 170.55 168.85 176.33 179.22 180.00 175.17 C 181.52 175.47 183.53 175.98 183.03 177.99 C 178.69 175.75 174.22 183.28 173.02 176.02 Z" />
</g>
<g id="#7e7958ff">
<path fill="#7e7958" opacity="1.00" d=" M 183.91 177.10 C 188.47 175.02 192.93 178.52 197.55 178.54 C 198.00 180.68 199.12 182.39 201.02 183.51 C 201.40 183.87 202.15 184.60 202.52 184.96 C 200.39 185.42 197.53 186.49 197.53 183.20 C 193.13 181.41 194.66 188.81 192.71 190.74 C 191.44 192.56 189.56 189.76 187.77 190.39 C 188.11 187.13 193.15 188.54 191.97 185.07 C 190.85 184.80 186.52 186.71 188.63 184.57 C 192.57 180.68 184.83 180.52 183.91 177.10 Z" />
</g>
<g id="#858064ff">
<path fill="#858064" opacity="1.00" d=" M 316.83 175.65 C 317.89 176.11 318.95 176.59 320.00 177.08 L 320.00 202.75 C 318.06 207.26 312.71 202.09 309.19 204.23 C 305.37 206.66 300.05 200.27 302.91 207.18 C 298.39 204.23 297.26 206.65 301.31 209.75 C 295.74 210.48 290.10 210.89 284.84 212.99 C 289.86 208.09 294.95 200.49 299.60 195.94 C 296.09 192.30 302.05 190.70 302.12 187.00 C 304.01 179.56 317.64 183.81 316.83 175.65 Z" />
</g>
<g id="#845336ff">
<path fill="#845336" opacity="1.00" d=" M 98.95 180.28 C 102.94 183.56 110.58 175.91 111.23 182.87 C 113.82 185.50 107.06 191.78 112.60 189.45 C 116.84 186.44 117.21 193.41 120.92 194.19 C 121.52 190.92 117.83 184.82 122.94 183.95 C 120.61 191.72 127.50 179.12 130.80 184.12 C 130.97 186.27 133.16 186.12 134.78 185.98 C 133.31 178.61 141.80 186.34 141.27 189.99 C 142.39 187.48 144.01 185.25 145.92 183.29 C 146.94 183.83 147.88 184.53 148.91 185.07 C 141.56 185.28 143.90 194.08 150.09 193.94 C 153.93 193.91 150.37 196.90 149.06 198.02 C 150.56 199.59 152.85 200.71 153.20 203.07 C 150.62 201.65 148.31 199.80 145.90 198.14 C 146.23 202.87 148.58 206.73 152.57 209.20 C 151.45 213.12 146.96 216.35 147.77 209.89 C 142.82 210.94 143.83 220.25 148.60 216.64 C 151.56 214.42 152.41 217.56 152.31 220.11 C 154.17 219.59 155.02 217.58 156.82 216.95 C 158.59 219.14 158.26 224.75 154.83 221.31 C 147.79 220.98 150.05 230.66 144.01 232.18 L 143.64 231.28 C 142.74 229.03 142.28 226.13 139.90 224.97 C 137.15 224.93 135.14 228.61 132.46 227.66 C 128.90 221.77 122.30 227.98 118.09 229.87 C 119.30 224.95 118.69 224.51 115.38 228.32 C 117.36 222.52 112.80 226.80 110.17 228.26 C 111.64 224.74 112.67 221.68 107.79 223.89 C 110.13 218.35 123.15 215.27 118.84 208.05 C 110.26 210.26 102.76 216.58 98.98 224.68 C 105.00 224.97 99.17 228.52 96.63 225.41 C 93.15 223.94 94.12 220.49 96.51 218.50 C 98.56 216.51 97.79 211.53 101.71 212.51 C 105.80 208.33 109.49 203.72 113.99 199.91 C 116.75 198.00 115.14 191.20 111.39 193.34 C 104.06 199.71 96.45 206.16 91.66 214.67 C 87.77 215.62 87.85 211.86 89.34 209.26 C 92.63 202.23 100.34 191.94 93.99 185.31 C 97.05 184.55 101.17 184.40 98.95 180.28 Z" />
</g>
<g id="#606849ff">
<path fill="#606849" opacity="1.00" d=" M 179.21 179.13 C 181.16 178.95 183.16 180.31 184.17 181.96 C 182.23 182.51 175.87 181.98 179.21 179.13 Z" />
</g>
<g id="#52503cff">
<path fill="#52503c" opacity="1.00" d=" M 204.78 186.01 C 207.85 183.22 211.79 180.29 216.13 180.55 C 223.29 178.97 235.52 187.43 228.44 194.56 C 231.43 195.35 229.57 199.02 231.77 199.90 C 234.56 197.25 235.31 191.06 240.03 191.97 C 240.50 194.17 239.06 195.48 237.33 196.46 C 238.44 200.52 244.36 200.88 243.29 205.99 C 245.25 206.39 244.94 204.09 245.51 202.87 C 245.88 206.61 251.20 205.21 250.60 209.59 C 244.34 209.24 237.68 205.63 234.06 201.28 C 225.83 200.08 230.31 210.02 235.05 211.82 C 235.32 215.09 240.28 214.77 239.92 217.79 C 237.09 221.25 234.09 217.02 231.91 215.10 C 226.95 213.42 225.38 207.50 219.95 206.89 C 220.25 210.57 222.19 213.82 225.98 214.66 C 219.26 214.73 221.79 223.74 226.90 224.55 C 230.48 226.89 227.92 232.70 226.90 234.87 C 220.42 236.14 226.03 224.93 220.96 231.25 C 216.48 227.38 219.04 220.62 214.71 217.19 C 215.48 209.21 208.39 217.07 204.76 214.29 C 205.54 212.39 208.23 209.99 205.51 208.51 C 201.56 205.53 201.92 200.02 202.91 195.71 C 203.71 195.75 204.51 195.79 205.32 195.85 C 203.09 200.93 209.40 205.45 209.77 210.52 C 214.21 210.63 218.43 208.45 220.13 204.14 C 220.92 201.11 222.20 203.00 223.42 204.11 C 222.52 200.54 227.95 201.73 227.05 198.21 C 223.66 198.24 220.24 198.14 216.92 198.84 C 216.72 198.39 216.32 197.50 216.12 197.05 C 217.72 197.22 218.28 196.51 217.82 194.94 C 216.41 191.77 222.45 190.44 220.13 187.16 C 220.38 182.89 215.41 185.14 213.30 182.50 C 212.07 185.33 206.88 190.59 204.78 186.01 M 224.18 189.89 C 224.22 192.32 224.09 194.67 221.01 194.25 C 222.21 201.61 228.92 192.10 224.18 189.89 Z" />
</g>
<g id="#907d5cff">
<path fill="#907d5c" opacity="1.00" d=" M 169.51 180.64 C 172.45 183.90 173.57 185.44 176.66 181.87 C 171.75 187.81 184.60 187.33 179.37 190.32 C 174.36 191.89 178.83 199.78 182.85 197.18 C 186.28 200.86 176.35 204.36 183.09 207.96 C 185.84 210.47 183.63 217.29 182.78 211.03 C 178.77 212.01 178.63 218.34 174.09 216.19 C 173.83 222.15 182.87 226.63 178.22 232.17 C 175.77 235.54 179.56 226.32 175.99 228.93 C 173.15 231.55 174.66 227.91 174.86 226.03 C 173.55 226.17 170.38 224.97 171.59 227.38 C 173.01 230.47 167.81 226.71 168.75 230.18 C 163.96 227.58 167.80 222.81 168.07 218.88 C 166.09 219.16 164.46 220.38 162.65 221.12 C 159.52 214.68 166.58 208.94 164.02 202.41 C 166.29 202.53 169.97 204.24 167.00 198.21 C 168.63 199.01 170.24 199.89 172.06 200.19 C 170.65 197.75 168.83 195.56 167.63 192.99 C 168.76 189.30 174.86 190.03 174.93 186.26 C 173.43 186.18 169.13 183.48 170.41 186.62 C 172.18 191.75 166.35 186.82 165.69 184.48 C 168.71 185.67 170.62 183.63 169.51 180.64 Z" />
</g>
<g id="#8c6746ff">
<path fill="#8c6746" opacity="1.00" d=" M 148.91 185.07 C 150.30 184.26 151.58 183.28 152.78 182.21 C 155.15 186.67 160.38 186.77 164.75 186.22 C 169.28 189.34 163.48 191.79 162.88 195.09 C 164.77 195.19 166.39 194.37 167.63 192.99 C 168.83 195.56 170.65 197.75 172.06 200.19 C 170.24 199.89 168.63 199.01 167.00 198.21 C 169.97 204.24 166.29 202.53 164.02 202.41 C 166.58 208.94 159.52 214.68 162.65 221.12 C 164.46 220.38 166.09 219.16 168.07 218.88 C 167.80 222.81 163.96 227.58 168.75 230.18 C 172.46 234.90 162.09 237.62 162.15 231.85 C 160.82 226.57 157.87 242.24 156.48 234.38 C 155.53 229.71 151.83 239.13 151.86 234.13 C 149.86 230.75 148.93 235.07 149.21 237.26 C 146.19 238.38 145.14 234.21 144.01 232.18 C 150.05 230.66 147.79 220.98 154.83 221.31 C 158.26 224.75 158.59 219.14 156.82 216.95 C 155.02 217.58 154.17 219.59 152.31 220.11 C 152.41 217.56 151.56 214.42 148.60 216.64 C 143.83 220.25 142.82 210.94 147.77 209.89 C 146.96 216.35 151.45 213.12 152.57 209.20 C 148.58 206.73 146.23 202.87 145.90 198.14 C 148.31 199.80 150.62 201.65 153.20 203.07 C 152.85 200.71 150.56 199.59 149.06 198.02 C 150.37 196.90 153.93 193.91 150.09 193.94 C 143.90 194.08 141.56 185.28 148.91 185.07 Z" />
</g>
<g id="#777258ff">
<path fill="#777258" opacity="1.00" d=" M 287.24 190.02 C 289.65 188.76 292.02 186.57 294.87 188.00 C 297.31 188.60 299.70 187.30 302.12 187.00 C 302.05 190.70 296.09 192.30 299.60 195.94 C 294.95 200.49 289.86 208.09 284.84 212.99 C 290.10 210.89 295.74 210.48 301.31 209.75 C 297.26 206.65 298.39 204.23 302.91 207.18 C 300.05 200.27 305.37 206.66 309.19 204.23 C 312.71 202.09 318.06 207.26 320.00 202.75 L 320.00 240.00 L 319.10 240.00 C 316.80 234.00 314.83 227.41 315.87 220.94 C 314.47 220.99 312.90 221.10 312.71 222.83 C 310.54 218.97 307.50 220.48 307.51 224.63 C 303.44 228.95 297.83 223.49 293.33 225.85 C 293.84 220.37 287.74 220.97 284.27 218.91 C 284.82 221.79 284.25 226.60 280.84 227.06 C 286.27 219.81 274.50 214.31 269.75 220.77 C 273.67 219.09 279.58 221.03 275.78 225.76 C 269.40 230.38 270.78 216.74 262.86 220.95 C 262.92 223.63 267.22 222.73 266.01 226.09 C 261.87 225.55 258.83 222.15 255.09 220.51 C 250.91 221.54 242.42 223.84 241.87 217.14 C 248.19 224.19 248.11 204.99 251.36 215.83 C 254.02 211.43 256.95 215.48 260.06 217.05 C 256.40 211.79 262.45 209.90 263.33 205.05 C 266.38 206.19 269.04 208.60 272.45 208.64 C 271.97 206.05 271.85 203.77 275.13 203.94 C 277.04 200.80 279.52 198.12 282.55 196.00 C 281.29 201.63 286.36 202.95 290.04 204.62 C 292.13 202.60 287.62 199.08 291.12 197.14 C 294.37 191.33 287.00 195.89 285.04 197.99 C 285.27 195.21 285.82 192.46 287.24 190.02 M 296.22 213.13 C 293.05 214.81 297.89 217.40 299.35 215.36 C 301.16 213.70 297.59 212.35 296.22 213.13 Z" />
</g>
<g id="#e2e2cbff">
<path fill="#e2e2cb" opacity="1.00" d=" M 201.73 190.91 C 201.59 189.45 202.25 187.56 204.07 187.87 C 204.70 189.44 203.20 190.79 201.73 190.91 Z" />
</g>
<g id="#55523eff">
<path fill="#55523e" opacity="1.00" d=" M 210.87 190.70 C 213.10 188.65 216.15 187.74 219.15 187.98 C 217.42 192.75 210.25 195.44 215.13 200.85 C 206.26 204.74 211.59 194.45 210.87 190.70 Z" />
</g>
<g id="#969472ff">
<path fill="#969472" opacity="1.00" d=" M 205.32 195.85 C 207.22 193.59 207.01 187.30 210.87 190.70 C 211.59 194.45 206.26 204.74 215.13 200.85 C 215.75 200.20 216.34 199.53 216.92 198.84 C 220.24 198.14 223.66 198.24 227.05 198.21 C 227.95 201.73 222.52 200.54 223.42 204.11 C 222.20 203.00 220.92 201.11 220.13 204.14 C 218.43 208.45 214.21 210.63 209.77 210.52 C 209.40 205.45 203.09 200.93 205.32 195.85 Z" />
</g>
<g id="#867d6eff">
<path fill="#867d6e" opacity="1.00" d=" M 224.18 189.89 C 228.92 192.10 222.21 201.61 221.01 194.25 C 224.09 194.67 224.22 192.32 224.18 189.89 Z" />
</g>
<g id="#6c674eff">
<path fill="#6c674e" opacity="1.00" d=" M 18.81 190.95 C 21.33 192.82 23.34 195.26 24.79 198.03 C 19.34 204.03 27.80 210.36 28.16 216.91 C 23.79 218.75 23.78 222.69 26.18 226.51 C 23.02 225.08 20.52 228.40 24.43 229.55 C 27.43 225.07 28.01 233.75 30.65 231.03 C 27.82 226.61 31.00 221.08 28.16 216.91 C 29.18 216.77 30.14 216.48 31.05 216.03 C 33.69 213.84 32.56 218.22 33.50 219.71 C 35.22 224.11 33.77 228.89 35.01 233.37 C 31.65 237.47 23.66 233.47 22.84 240.00 L 13.13 240.00 C 13.72 238.43 14.69 236.44 12.00 237.02 C 7.95 238.50 12.37 230.45 13.56 234.38 C 15.91 240.22 21.49 229.86 26.08 233.78 C 24.69 228.82 17.07 234.47 15.00 229.01 C 11.41 228.57 2.88 227.54 6.84 222.20 C 3.08 218.39 3.78 212.80 2.14 208.05 C 1.98 203.86 8.42 202.58 8.88 207.13 C 12.93 209.84 15.12 204.68 18.87 204.83 C 16.35 208.89 17.78 210.01 21.91 207.84 C 19.68 202.12 22.40 196.49 18.81 190.95 M 14.36 209.45 C 11.43 210.45 8.13 210.88 9.48 214.66 C 6.48 222.30 12.79 228.45 20.02 228.02 C 20.61 224.63 13.99 226.03 14.58 222.64 C 15.24 220.01 11.87 214.81 16.76 215.92 C 15.26 218.26 17.13 221.76 20.02 219.02 C 25.81 218.14 22.19 214.90 21.80 211.06 C 19.57 211.17 17.44 211.99 15.20 212.14 C 15.41 210.74 16.96 207.82 14.36 209.45 Z" />
</g>
<g id="#827156ff">
<path fill="#827156" opacity="1.00" d=" M 111.39 193.34 C 115.14 191.20 116.75 198.00 113.99 199.91 C 109.49 203.72 105.80 208.33 101.71 212.51 C 97.79 211.53 98.56 216.51 96.51 218.50 C 94.12 220.49 93.15 223.94 96.63 225.41 C 99.17 228.52 105.00 224.97 98.98 224.68 C 102.76 216.58 110.26 210.26 118.84 208.05 C 123.15 215.27 110.13 218.35 107.79 223.89 C 112.67 221.68 111.64 224.74 110.17 228.26 C 112.80 226.80 117.36 222.52 115.38 228.32 C 118.69 224.51 119.30 224.95 118.09 229.87 C 119.92 232.97 120.57 236.33 118.19 239.36 C 121.17 238.59 121.96 235.59 121.50 232.88 C 125.41 232.56 128.85 235.21 129.56 239.06 C 130.51 233.32 135.29 231.77 139.96 235.11 C 136.05 230.86 141.01 233.41 143.64 231.28 L 144.01 232.18 C 145.14 234.21 146.19 238.38 149.21 237.26 C 149.14 237.94 149.01 239.31 148.94 240.00 L 64.11 240.00 C 65.63 235.27 66.51 230.24 64.09 225.68 C 64.75 220.14 61.20 215.00 65.09 209.91 C 68.88 210.43 69.28 215.95 73.02 217.13 C 75.86 218.85 76.66 213.73 79.53 213.47 C 78.88 210.55 79.34 207.78 82.04 206.07 C 84.96 206.28 88.54 205.52 89.34 209.26 C 87.85 211.86 87.77 215.62 91.66 214.67 C 96.45 206.16 104.06 199.71 111.39 193.34 Z" />
</g>
<g id="#b0aa97ff">
<path fill="#b0aa97" opacity="1.00" d=" M 216.12 197.05 C 215.52 195.50 216.08 194.80 217.82 194.94 C 218.28 196.51 217.72 197.22 216.12 197.05 Z" />
</g>
<g id="#8b7257ff">
<path fill="#8b7257" opacity="1.00" d=" M 63.25 200.90 C 67.34 201.88 69.04 205.11 67.78 208.92 C 64.68 207.99 62.39 208.55 61.79 211.97 C 59.00 210.19 56.96 206.27 53.36 209.72 C 51.38 205.50 47.56 207.87 50.82 211.34 C 47.76 210.33 47.17 206.73 45.95 204.15 C 50.60 204.76 55.41 205.60 59.05 201.86 C 58.41 203.62 57.59 205.32 56.93 207.08 C 59.37 205.40 61.79 203.54 63.25 200.90 Z" />
</g>
<g id="#8f8967ff">
<path fill="#8f8967" opacity="1.00" d=" M 185.70 208.23 C 183.29 204.45 193.16 205.59 192.01 208.89 C 189.33 208.06 186.56 208.50 185.71 211.55 C 188.53 211.61 191.39 211.59 193.90 210.12 C 196.11 213.13 191.23 216.61 196.36 217.58 C 198.79 219.08 196.60 212.90 199.83 213.87 C 197.50 218.67 203.44 217.44 204.76 214.29 C 208.39 217.07 215.48 209.21 214.71 217.19 C 219.04 220.62 216.48 227.38 220.96 231.25 C 218.15 236.11 224.63 235.51 221.98 240.00 L 148.94 240.00 C 149.01 239.31 149.14 237.94 149.21 237.26 C 148.93 235.07 149.86 230.75 151.86 234.13 C 151.83 239.13 155.53 229.71 156.48 234.38 C 157.87 242.24 160.82 226.57 162.15 231.85 C 162.09 237.62 172.46 234.90 168.75 230.18 C 167.81 226.71 173.01 230.47 171.59 227.38 C 170.38 224.97 173.55 226.17 174.86 226.03 C 174.66 227.91 173.15 231.55 175.99 228.93 C 179.56 226.32 175.77 235.54 178.22 232.17 C 182.87 226.63 173.83 222.15 174.09 216.19 C 178.63 218.34 178.77 212.01 182.78 211.03 C 183.63 217.29 185.84 210.47 183.09 207.96 C 183.84 207.99 186.43 210.16 185.70 208.23 Z" />
</g>
<g id="#858063ff">
<path fill="#858063" opacity="1.00" d=" M 219.95 206.89 C 225.38 207.50 226.95 213.42 231.91 215.10 C 234.09 217.02 237.09 221.25 239.92 217.79 C 240.28 214.77 235.32 215.09 235.05 211.82 C 238.70 210.10 241.62 213.74 241.87 217.14 C 242.42 223.84 250.91 221.54 255.09 220.51 C 258.83 222.15 261.87 225.55 266.01 226.09 C 267.22 222.73 262.92 223.63 262.86 220.95 C 270.78 216.74 269.40 230.38 275.78 225.76 C 279.58 221.03 273.67 219.09 269.75 220.77 C 274.50 214.31 286.27 219.81 280.84 227.06 C 284.25 226.60 284.82 221.79 284.27 218.91 C 287.74 220.97 293.84 220.37 293.33 225.85 C 297.83 223.49 303.44 228.95 307.51 224.63 C 307.50 220.48 310.54 218.97 312.71 222.83 C 309.72 226.24 314.19 227.35 313.59 230.42 C 314.61 235.13 309.40 236.19 308.48 240.00 L 224.64 240.00 C 227.77 238.30 230.85 236.50 233.93 234.70 C 234.73 231.40 228.07 229.43 231.32 226.43 C 233.25 224.07 228.38 224.81 226.90 224.55 C 221.79 223.74 219.26 214.73 225.98 214.66 C 222.19 213.82 220.25 210.57 219.95 206.89 M 281.94 231.03 C 282.48 237.80 288.57 229.75 281.94 231.03 Z" />
</g>
<g id="#4a4839ff">
<path fill="#4a4839" opacity="1.00" d=" M 251.93 208.02 C 254.56 205.12 260.33 209.59 256.89 211.82 C 254.91 211.17 251.44 210.88 251.93 208.02 Z" />
</g>
<g id="#838066ff">
<path fill="#838066" opacity="1.00" d=" M 14.36 209.45 C 16.96 207.82 15.41 210.74 15.20 212.14 C 17.44 211.99 19.57 211.17 21.80 211.06 C 22.19 214.90 25.81 218.14 20.02 219.02 C 17.13 221.76 15.26 218.26 16.76 215.92 C 11.87 214.81 15.24 220.01 14.58 222.64 C 13.99 226.03 20.61 224.63 20.02 228.02 C 12.79 228.45 6.48 222.30 9.48 214.66 C 8.13 210.88 11.43 210.45 14.36 209.45 M 15.01 213.02 C 13.99 215.94 17.27 214.88 18.99 214.98 C 20.01 212.05 16.73 213.11 15.01 213.02 Z" />
</g>
<g id="#c7bea6ff">
<path fill="#c7bea6" opacity="1.00" d=" M 15.01 213.02 C 16.73 213.11 20.01 212.05 18.99 214.98 C 17.27 214.88 13.99 215.94 15.01 213.02 Z" />
</g>
<g id="#beb69bff">
<path fill="#beb69b" opacity="1.00" d=" M 296.22 213.13 C 297.59 212.35 301.16 213.70 299.35 215.36 C 297.89 217.40 293.05 214.81 296.22 213.13 Z" />
</g>
<g id="#918669ff">
<path fill="#918669" opacity="1.00" d=" M 26.18 226.51 C 23.78 222.69 23.79 218.75 28.16 216.91 C 31.00 221.08 27.82 226.61 30.65 231.03 C 28.01 233.75 27.43 225.07 24.43 229.55 C 20.52 228.40 23.02 225.08 26.18 226.51 Z" />
</g>
<g id="#4f4b38ff">
<path fill="#4f4b38" opacity="1.00" d=" M 312.71 222.83 C 312.90 221.10 314.47 220.99 315.87 220.94 C 314.83 227.41 316.80 234.00 319.10 240.00 L 308.48 240.00 C 309.40 236.19 314.61 235.13 313.59 230.42 C 314.19 227.35 309.72 226.24 312.71 222.83 Z" />
</g>
<g id="#6a6553ff">
<path fill="#6a6553" opacity="1.00" d=" M 226.90 224.55 C 228.38 224.81 233.25 224.07 231.32 226.43 C 228.07 229.43 234.73 231.40 233.93 234.70 C 230.85 236.50 227.77 238.30 224.64 240.00 L 221.98 240.00 C 224.63 235.51 218.15 236.11 220.96 231.25 C 226.03 224.93 220.42 236.14 226.90 234.87 C 227.92 232.70 230.48 226.89 226.90 224.55 Z" />
</g>
<g id="#6b5f49ff">
<path fill="#6b5f49" opacity="1.00" d=" M 54.77 229.78 C 57.55 227.66 60.19 224.70 64.09 225.68 C 66.51 230.24 65.63 235.27 64.11 240.00 L 42.38 240.00 C 39.85 238.07 37.48 235.89 35.72 233.22 C 36.18 228.26 40.21 228.70 43.70 230.48 C 46.59 227.02 51.07 228.86 54.77 229.78 Z" />
</g>
<g id="#856444ff">
<path fill="#856444" opacity="1.00" d=" M 118.09 229.87 C 122.30 227.98 128.90 221.77 132.46 227.66 C 135.14 228.61 137.15 224.93 139.90 224.97 C 142.28 226.13 142.74 229.03 143.64 231.28 C 141.01 233.41 136.05 230.86 139.96 235.11 C 135.29 231.77 130.51 233.32 129.56 239.06 C 128.85 235.21 125.41 232.56 121.50 232.88 C 121.96 235.59 121.17 238.59 118.19 239.36 C 120.57 236.33 119.92 232.97 118.09 229.87 Z" />
</g>
<g id="#c4baa4ff">
<path fill="#c4baa4" opacity="1.00" d=" M 2.24 231.20 C 7.52 231.06 0.22 237.02 2.24 231.20 Z" />
</g>
<g id="#c3b69eff">
<path fill="#c3b69e" opacity="1.00" d=" M 281.94 231.03 C 288.57 229.75 282.48 237.80 281.94 231.03 Z" />
</g>
<g id="#81775cff">
<path fill="#81775c" opacity="1.00" d=" M 35.01 233.37 L 35.72 233.22 C 37.48 235.89 39.85 238.07 42.38 240.00 L 22.84 240.00 C 23.66 233.47 31.65 237.47 35.01 233.37 Z" />
</g>
</svg>
