<?xml version="1.0" encoding="UTF-8" ?>
<!DOCTYPE svg PUBLIC "-//W3C//DTD SVG 1.1//EN" "http://www.w3.org/Graphics/SVG/1.1/DTD/svg11.dtd">
<svg width="210pt" height="220pt" viewBox="0 0 210 220" version="1.1" xmlns="http://www.w3.org/2000/svg">
<g id="#797979fd">
<path fill="#797979" opacity="1.00" d=" M 98.20 12.29 C 98.73 10.61 99.63 10.36 100.92 11.56 C 100.13 12.27 99.23 12.51 98.20 12.29 Z" />
<path fill="#797979" opacity="1.00" d=" M 109.29 11.67 C 110.14 10.21 113.74 10.27 113.71 12.24 C 112.20 12.41 110.71 12.13 109.29 11.67 Z" />
<path fill="#797979" opacity="1.00" d=" M 72.76 18.01 C 76.51 16.88 80.41 16.38 84.17 15.26 C 82.92 15.79 81.70 16.37 80.49 16.96 C 87.00 16.51 93.46 15.48 99.96 14.81 C 105.46 14.19 110.92 15.29 116.39 15.68 C 120.23 16.04 124.12 16.12 127.88 17.09 C 120.24 16.76 112.60 16.50 105.00 15.59 C 95.55 15.84 86.13 17.31 76.84 19.08 C 77.74 18.34 78.61 17.59 79.48 16.82 C 77.23 17.17 74.99 17.54 72.76 18.01 Z" />
<path fill="#797979" opacity="1.00" d=" M 42.98 36.71 C 47.26 34.32 50.16 29.73 54.96 28.34 C 55.45 28.21 56.44 27.97 56.93 27.85 C 53.32 31.40 49.39 34.60 45.69 38.05 C 45.01 37.72 43.66 37.04 42.98 36.71 Z" />
<path fill="#797979" opacity="1.00" d=" M 113.95 33.42 C 115.14 33.44 116.33 33.46 117.52 33.49 C 117.62 34.56 117.72 35.64 117.81 36.71 C 115.56 37.22 113.29 37.64 110.99 37.81 C 111.98 36.58 112.84 35.26 113.65 33.91 L 113.95 33.42 Z" />
<path fill="#797979" opacity="1.00" d=" M 83.37 48.48 C 84.78 48.43 86.19 48.35 87.61 48.36 C 88.32 48.47 89.75 48.70 90.46 48.81 C 88.34 50.13 85.87 50.51 83.44 50.76 C 83.43 50.19 83.39 49.05 83.37 48.48 Z" />
<path fill="#797979" opacity="1.00" d=" M 158.18 62.23 C 159.56 61.45 160.95 60.69 162.34 59.94 C 164.24 60.39 166.19 60.51 168.14 60.58 C 168.91 62.50 169.82 64.37 170.82 66.19 C 166.33 65.97 162.17 64.15 158.18 62.23 Z" />
<path fill="#797979" opacity="1.00" d=" M 86.92 61.16 C 92.83 61.93 98.72 63.39 104.06 66.08 C 103.80 67.02 103.53 67.96 103.27 68.90 C 102.62 68.83 101.32 68.69 100.67 68.62 C 96.08 66.14 91.23 64.13 86.92 61.16 Z" />
<path fill="#797979" opacity="1.00" d=" M 192.74 67.10 C 194.38 67.63 194.59 68.55 193.39 69.87 C 192.70 69.05 192.49 68.13 192.74 67.10 Z" />
<path fill="#797979" opacity="1.00" d=" M 172.69 79.57 C 176.34 78.05 180.32 79.24 184.07 79.69 C 183.10 80.56 182.14 81.42 181.17 82.27 C 182.23 83.45 183.29 84.64 184.33 85.85 C 181.86 86.09 179.39 86.33 176.92 86.60 C 176.41 85.51 175.90 84.43 175.38 83.34 C 176.81 82.43 178.25 81.50 179.66 80.54 C 177.13 80.02 174.55 80.27 172.34 81.65 C 165.48 85.41 157.41 85.04 150.08 87.26 C 146.17 88.36 143.15 91.30 139.41 92.76 C 137.90 92.94 136.41 92.46 134.93 92.27 C 138.46 90.71 142.05 89.29 145.55 87.64 C 150.85 85.12 156.80 84.86 162.47 83.74 C 166.15 83.09 169.24 80.86 172.69 79.57 Z" />
<path fill="#797979" opacity="1.00" d=" M 16.72 93.11 C 15.26 91.89 16.26 87.97 18.32 88.40 C 18.55 90.15 17.77 91.76 16.72 93.11 Z" />
<path fill="#797979" opacity="1.00" d=" M 122.80 101.49 C 124.08 97.34 126.43 93.63 128.55 89.88 C 128.23 95.74 127.52 101.80 129.42 107.48 C 130.37 110.10 130.50 112.91 131.26 115.58 C 133.26 118.34 135.04 121.33 137.46 123.76 C 141.18 126.03 145.20 123.59 148.07 121.12 C 147.45 119.37 146.84 117.63 146.10 115.93 C 149.62 118.55 151.32 125.41 146.74 127.74 C 143.57 129.69 139.28 130.26 136.22 127.77 C 129.84 124.63 128.39 117.19 126.35 111.06 C 126.25 116.19 125.32 121.24 124.28 126.24 C 121.74 126.15 119.16 125.86 116.64 126.39 C 115.74 128.15 115.27 130.09 114.67 131.96 C 112.55 131.11 110.59 129.95 108.75 128.62 C 109.97 126.53 111.19 124.23 110.51 121.74 C 111.79 121.41 113.09 121.17 114.39 120.90 C 113.77 122.78 113.18 124.67 112.62 126.57 C 115.28 125.94 117.98 125.42 120.57 124.50 C 122.78 122.13 122.81 118.55 123.24 115.49 C 123.91 110.80 121.61 106.15 122.80 101.49 M 147.42 123.36 C 146.24 123.22 144.73 124.72 145.64 125.82 C 147.16 127.14 149.75 123.94 147.42 123.36 Z" />
<path fill="#797979" opacity="1.00" d=" M 156.46 91.96 C 159.18 90.70 162.12 89.98 165.06 89.46 C 164.83 90.55 164.59 91.65 164.35 92.74 C 167.03 92.00 170.89 91.80 171.82 95.16 C 166.74 96.59 162.13 93.90 157.16 93.58 C 156.98 93.18 156.64 92.37 156.46 91.96 Z" />
<path fill="#797979" opacity="1.00" d=" M 74.90 92.74 C 78.69 92.39 82.47 91.06 86.29 91.83 C 88.53 92.32 90.83 92.39 93.10 92.04 C 96.07 93.37 99.13 94.48 102.14 95.72 C 101.12 98.51 102.04 101.37 102.76 104.09 C 99.44 102.56 95.96 101.19 92.23 101.30 C 92.26 100.34 92.30 99.38 92.33 98.43 C 94.17 98.52 96.01 98.63 97.85 98.74 C 97.75 98.19 97.57 97.08 97.47 96.53 C 93.28 95.58 88.88 93.84 84.60 95.36 C 83.24 95.50 82.72 96.88 81.97 97.81 C 80.65 97.12 79.36 96.36 77.95 95.90 C 75.99 95.78 74.36 97.11 72.72 97.96 C 75.45 99.03 78.38 99.65 80.92 101.17 C 78.21 101.16 75.49 101.23 72.78 101.29 L 72.18 101.31 C 72.26 99.73 72.29 98.15 72.24 96.56 C 72.88 96.21 73.53 95.86 74.18 95.51 C 74.42 94.58 74.66 93.66 74.90 92.74 Z" />
<path fill="#797979" opacity="1.00" d=" M 146.41 96.67 C 149.70 92.55 154.90 96.17 158.96 96.88 C 157.95 98.79 156.59 101.59 154.05 101.38 C 151.19 100.42 148.88 98.34 146.41 96.67 Z" />
<path fill="#797979" opacity="1.00" d=" M 83.91 97.95 C 86.42 95.89 89.41 96.60 91.98 98.08 C 89.48 100.08 86.51 99.24 83.91 97.95 Z" />
<path fill="#797979" opacity="1.00" d=" M 160.41 102.07 C 163.67 97.83 169.20 96.45 174.31 96.46 C 174.67 98.97 174.88 101.52 174.55 104.05 C 174.27 102.82 173.99 101.59 173.71 100.36 C 172.56 100.09 171.42 99.82 170.28 99.55 C 168.54 101.72 166.17 103.21 163.69 104.42 C 162.60 103.63 161.50 102.85 160.41 102.07 Z" />
<path fill="#797979" opacity="1.00" d=" M 144.20 98.13 C 148.42 98.85 151.71 101.63 155.20 103.88 C 153.29 105.50 151.57 107.32 149.89 109.16 C 151.59 109.35 153.50 110.47 155.10 109.36 C 157.30 108.28 157.00 105.41 157.77 103.42 C 157.95 104.84 158.14 106.27 158.32 107.70 C 159.17 108.40 160.02 109.10 160.87 109.81 C 159.33 110.44 157.80 111.10 156.29 111.79 C 157.85 112.37 159.42 112.93 160.99 113.48 C 159.51 113.79 157.93 114.50 156.47 113.69 C 151.99 111.84 147.36 110.05 143.75 106.68 C 145.26 104.83 147.38 103.74 149.57 102.86 C 147.41 101.72 144.87 100.75 144.20 98.13 Z" />
<path fill="#797979" opacity="1.00" d=" M 174.76 111.23 C 175.83 107.79 176.38 104.20 177.56 100.80 C 177.39 103.32 177.22 105.85 177.09 108.39 C 180.57 109.54 182.21 112.64 182.91 116.01 C 180.18 114.44 177.52 112.75 174.76 111.23 Z" />
<path fill="#797979" opacity="1.00" d=" M 72.78 101.29 C 74.92 104.93 77.55 108.56 77.88 112.91 C 72.81 112.04 69.66 105.54 72.78 101.29 Z" />
<path fill="#797979" opacity="1.00" d=" M 91.29 104.69 C 95.08 104.88 98.87 105.29 102.62 105.86 C 99.82 105.97 97.02 106.09 94.22 106.24 C 95.97 107.82 97.74 109.36 99.56 110.85 C 93.84 115.87 85.27 117.34 78.50 113.54 C 80.42 110.39 84.11 112.86 86.85 113.22 C 87.89 112.20 88.92 111.19 89.96 110.18 C 91.72 111.26 93.52 112.29 95.35 113.24 C 95.66 109.78 93.80 106.87 91.29 104.69 Z" />
<path fill="#797979" opacity="1.00" d=" M 64.19 112.42 C 66.91 116.20 66.42 121.71 70.22 124.76 C 71.75 126.12 73.82 126.45 75.74 126.90 C 73.98 125.08 72.12 123.36 70.18 121.72 C 71.03 121.57 71.88 121.41 72.73 121.25 C 73.30 119.59 73.88 117.94 74.46 116.29 C 78.05 118.51 82.00 120.47 86.32 120.53 C 89.14 120.86 91.34 118.43 94.13 118.51 C 95.91 118.47 97.69 118.54 99.46 118.49 C 102.84 118.17 105.02 114.92 108.14 113.77 C 104.86 119.37 99.51 123.51 94.22 127.11 C 89.96 129.47 85.91 134.18 80.53 132.26 C 75.95 130.26 71.41 127.77 68.03 124.02 C 65.50 120.99 61.09 122.81 57.69 122.32 C 59.89 120.35 62.89 120.07 65.69 119.69 C 64.65 117.41 63.15 114.98 64.19 112.42 Z" />
<path fill="#797979" opacity="1.00" d=" M 169.47 114.79 C 171.07 114.15 172.68 113.51 174.26 112.80 C 173.74 114.60 173.31 116.42 172.90 118.25 C 174.20 118.35 175.50 118.46 176.81 118.55 C 173.59 121.13 170.83 124.44 166.94 126.04 C 161.83 128.18 156.05 126.57 150.92 128.65 C 151.18 127.57 151.43 126.48 151.67 125.39 C 155.71 125.75 159.90 125.88 163.62 123.97 C 160.78 123.65 157.86 123.22 155.57 121.38 C 157.67 120.08 159.69 118.55 162.06 117.80 C 164.10 117.47 166.15 118.04 168.17 118.32 C 167.87 118.93 167.27 120.15 166.97 120.76 C 167.17 121.10 167.56 121.77 167.76 122.10 C 168.63 121.25 169.52 120.42 170.29 119.47 C 170.62 117.88 169.76 116.32 169.47 114.79 Z" />
<path fill="#797979" opacity="1.00" d=" M 171.19 130.26 C 174.96 128.21 179.30 126.38 183.67 127.25 C 186.70 127.81 188.99 130.46 189.79 133.33 C 189.93 136.31 189.30 139.27 188.37 142.09 C 188.07 139.22 188.94 136.17 187.58 133.48 C 186.45 130.47 182.93 129.46 180.01 129.46 C 177.06 129.75 174.18 131.11 171.19 130.26 Z" />
<path fill="#797979" opacity="1.00" d=" M 189.94 151.48 C 190.80 143.58 192.62 135.82 193.33 127.89 C 193.45 131.06 193.67 134.23 194.12 137.37 C 192.60 143.01 192.19 149.07 189.53 154.33 C 189.21 153.66 188.55 152.31 188.22 151.63 C 187.95 150.10 187.81 148.56 187.65 147.02 C 188.35 148.53 189.15 150.01 189.94 151.48 Z" />
<path fill="#797979" opacity="1.00" d=" M 117.03 131.81 C 121.09 132.13 124.76 128.75 128.75 130.41 C 125.50 132.03 121.95 133.80 120.92 137.62 C 121.92 138.46 122.93 139.29 123.92 140.15 C 118.16 139.26 112.31 139.15 106.50 139.53 C 106.51 140.04 106.52 141.05 106.53 141.56 C 105.09 141.79 103.65 141.98 102.22 142.25 C 102.29 141.49 102.43 139.97 102.49 139.21 C 108.32 138.07 114.28 138.29 120.18 138.37 C 120.43 137.09 120.68 135.81 120.94 134.53 C 118.61 134.50 116.30 134.86 114.12 135.69 C 115.11 134.41 116.07 133.11 117.03 131.81 Z" />
<path fill="#797979" opacity="1.00" d=" M 109.35 134.33 C 110.30 133.00 112.50 134.64 111.50 135.93 C 110.55 137.25 108.34 135.62 109.35 134.33 Z" />
<path fill="#797979" opacity="1.00" d=" M 154.65 140.90 L 155.15 140.40 C 155.77 140.85 157.02 141.75 157.65 142.20 C 157.08 142.91 156.52 143.64 155.95 144.35 C 156.44 144.77 157.42 145.61 157.91 146.03 C 153.14 148.20 148.05 150.20 142.70 149.42 C 146.20 148.28 149.67 147.06 153.19 145.99 C 152.65 145.62 151.57 144.87 151.03 144.50 C 151.66 143.88 152.29 143.27 152.92 142.65 C 153.35 142.21 154.22 141.34 154.65 140.90 Z" />
<path fill="#797979" opacity="1.00" d=" M 17.52 142.17 C 18.29 142.91 18.55 143.80 18.30 144.84 C 16.64 144.38 16.38 143.49 17.52 142.17 Z" />
<path fill="#797979" opacity="1.00" d=" M 67.82 144.98 C 72.93 144.91 76.94 140.77 82.15 141.28 C 77.74 146.74 70.64 148.04 64.50 150.61 C 64.59 148.94 64.68 147.27 64.76 145.60 C 65.78 145.38 66.80 145.20 67.82 144.98 Z" />
<path fill="#797979" opacity="1.00" d=" M 168.12 142.19 C 172.52 141.28 176.79 142.95 181.04 143.82 C 181.55 144.43 182.05 145.06 182.53 145.69 C 183.01 145.12 183.48 144.56 183.96 143.99 C 184.33 146.10 184.91 148.18 185.41 150.27 C 182.59 151.19 179.60 151.41 176.88 150.04 C 170.23 146.97 162.88 148.77 155.96 149.66 C 160.89 146.88 166.48 145.80 172.08 145.54 C 170.74 144.44 169.42 143.33 168.12 142.19 M 177.11 145.87 C 178.32 148.31 179.97 150.97 183.17 150.17 C 182.43 147.33 179.58 146.58 177.11 145.87 Z" />
<path fill="#797979" opacity="1.00" d=" M 124.27 144.54 C 131.64 145.09 139.06 143.84 146.38 144.88 C 141.39 145.87 136.30 145.64 131.25 145.71 C 132.23 146.47 133.22 147.21 134.24 147.94 C 130.69 147.86 127.05 147.45 123.66 148.77 C 120.79 149.88 117.68 149.50 114.96 148.15 C 118.23 147.48 121.57 147.28 124.89 147.14 C 124.74 146.49 124.42 145.19 124.27 144.54 Z" />
<path fill="#797979" opacity="1.00" d=" M 57.40 158.64 C 57.66 155.35 56.69 151.66 58.61 148.72 C 58.76 151.84 58.83 154.97 58.86 158.09 C 59.61 158.01 61.10 157.83 61.84 157.74 C 61.80 157.15 61.70 155.95 61.65 155.36 C 65.12 156.68 68.77 157.83 71.51 160.46 C 66.71 161.25 61.87 160.47 57.40 158.64 Z" />
<path fill="#797979" opacity="1.00" d=" M 130.40 149.98 C 136.17 150.94 142.00 151.74 147.64 153.34 C 143.78 155.28 139.53 156.20 135.31 156.99 C 136.11 158.88 136.96 160.76 137.84 162.62 C 135.73 161.73 133.61 160.61 131.26 160.61 C 126.70 160.56 121.85 160.20 117.72 162.53 C 118.30 162.69 119.46 163.00 120.04 163.15 C 119.44 164.24 118.85 165.32 118.23 166.38 C 115.23 167.88 112.23 169.39 109.13 170.67 C 111.31 166.68 115.71 164.51 117.51 160.26 C 114.40 161.39 111.58 163.13 108.89 165.02 C 107.97 163.99 107.05 162.96 106.12 161.94 C 108.41 160.56 110.73 159.22 113.03 157.86 C 115.52 159.11 118.17 158.38 120.70 157.77 C 125.36 156.65 130.06 158.14 134.69 158.63 C 131.71 154.43 126.29 154.57 121.68 154.58 C 118.85 154.67 116.17 155.81 113.83 157.35 C 113.97 156.81 114.25 155.74 114.39 155.20 C 112.70 155.50 111.02 155.86 109.32 156.12 C 106.16 156.81 103.63 154.21 100.83 153.23 C 107.24 153.66 113.61 152.73 119.94 151.89 C 123.45 151.33 127.49 152.58 130.40 149.98 M 132.64 153.16 C 131.89 154.63 134.38 156.16 135.41 154.87 C 136.26 153.37 133.67 152.00 132.64 153.16 Z" />
<path fill="#797979" opacity="1.00" d=" M 124.18 162.76 C 125.47 162.66 126.77 162.57 128.07 162.48 C 129.40 164.88 131.07 167.22 131.50 170.00 C 132.45 175.81 130.77 181.57 129.22 187.12 C 128.75 187.28 127.80 187.59 127.33 187.75 C 127.84 183.97 129.42 179.98 127.86 176.26 C 126.85 173.72 126.56 170.99 126.37 168.28 C 124.23 167.41 122.08 166.57 119.89 165.83 C 121.39 165.36 122.90 164.95 124.43 164.56 C 124.36 164.11 124.24 163.21 124.18 162.76 Z" />
<path fill="#797979" opacity="1.00" d=" M 35.97 170.02 C 37.80 171.54 39.48 173.23 41.10 174.97 C 38.89 173.91 37.15 172.16 35.97 170.02 Z" />
<path fill="#797979" opacity="1.00" d=" M 45.47 178.47 C 46.62 178.82 47.59 179.56 48.25 180.57 C 47.07 181.78 44.57 179.93 45.47 178.47 Z" />
<path fill="#797979" opacity="1.00" d=" M 164.68 190.86 C 165.97 189.08 167.40 187.38 169.07 185.95 C 168.16 188.02 166.53 189.62 164.68 190.86 Z" />
<path fill="#797979" opacity="1.00" d=" M 159.08 193.66 C 159.80 192.90 160.69 192.60 161.73 192.78 C 161.31 194.49 160.42 194.78 159.08 193.66 Z" />
</g>
<g id="#040404fe">
<path fill="#040404" opacity="1.00" d=" M 100.92 11.56 C 103.65 10.97 106.56 11.09 109.29 11.67 C 110.71 12.13 112.20 12.41 113.71 12.24 C 119.74 11.94 125.38 14.53 131.24 15.55 C 139.94 17.15 148.03 20.80 156.24 23.94 C 163.26 27.05 168.68 32.64 174.52 37.45 C 180.42 42.24 182.43 50.01 187.55 55.45 C 190.46 58.64 193.71 62.42 192.74 67.10 C 192.49 68.13 192.70 69.05 193.39 69.87 C 195.89 74.03 196.86 78.86 198.68 83.32 C 202.43 93.23 199.81 103.89 198.48 113.98 C 198.80 122.05 196.44 129.88 196.39 137.93 C 195.90 146.58 192.68 154.81 188.05 162.06 C 183.27 168.65 178.51 175.26 173.53 181.70 C 172.26 183.33 170.58 184.56 169.07 185.95 C 167.40 187.38 165.97 189.08 164.68 190.86 C 163.94 191.82 163.15 193.08 161.73 192.78 C 160.69 192.60 159.80 192.90 159.08 193.66 C 152.67 198.74 144.16 199.59 136.67 202.34 C 129.46 205.22 121.64 205.84 113.97 206.19 C 106.43 204.36 98.63 203.68 91.25 201.13 C 86.04 200.05 81.11 198.00 75.93 196.81 C 72.81 196.11 70.46 193.78 67.74 192.26 C 61.40 188.13 53.78 185.85 48.25 180.57 C 47.59 179.56 46.62 178.82 45.47 178.47 C 43.71 177.73 42.41 176.29 41.10 174.97 C 39.48 173.23 37.80 171.54 35.97 170.02 C 33.94 168.40 31.94 166.69 30.46 164.53 C 27.31 160.07 23.60 156.03 20.58 151.49 C 19.35 149.49 17.94 147.30 18.30 144.84 C 18.55 143.80 18.29 142.91 17.52 142.17 C 14.87 139.07 13.32 135.09 13.47 130.99 C 13.60 126.89 12.28 122.97 11.68 118.96 C 11.40 113.48 14.55 108.49 14.38 103.01 C 14.26 99.58 14.55 95.95 16.72 93.11 C 17.77 91.76 18.55 90.15 18.32 88.40 C 19.43 75.85 24.30 63.91 29.87 52.71 C 33.72 46.97 37.57 41.11 42.98 36.71 C 43.66 37.04 45.01 37.72 45.69 38.05 C 41.09 42.94 38.44 49.24 34.90 54.87 C 32.34 59.61 28.94 64.02 27.57 69.30 C 25.98 76.57 24.60 83.95 21.91 90.92 C 19.14 97.47 19.28 104.72 17.89 111.60 C 17.39 117.29 16.00 122.96 16.51 128.68 C 18.78 139.89 23.97 150.29 30.14 159.84 C 32.23 163.04 35.44 165.23 38.26 167.75 C 43.12 171.87 46.90 177.28 52.56 180.42 C 56.97 182.91 61.04 185.94 65.37 188.54 C 73.08 192.27 81.41 194.44 89.67 196.56 C 102.47 201.30 116.34 202.25 129.86 201.43 C 135.70 200.59 141.26 198.27 146.34 195.33 C 150.53 192.72 155.38 191.31 159.35 188.33 C 162.74 186.11 165.42 183.01 168.74 180.70 C 178.20 174.28 183.96 164.02 189.53 154.33 C 192.19 149.07 192.60 143.01 194.12 137.37 C 195.06 131.65 194.07 125.82 194.92 120.09 C 195.43 115.35 197.48 110.86 197.39 106.05 C 197.48 100.67 197.68 95.29 197.39 89.92 C 197.20 84.09 192.97 79.53 191.88 73.92 C 190.68 68.13 188.15 62.77 185.25 57.66 C 178.98 42.32 165.46 31.33 150.98 24.09 C 143.56 20.89 135.59 19.35 127.88 17.09 C 124.12 16.12 120.23 16.04 116.39 15.68 C 110.92 15.29 105.46 14.19 99.96 14.81 C 93.46 15.48 87.00 16.51 80.49 16.96 C 81.70 16.37 82.92 15.79 84.17 15.26 C 88.67 13.71 93.38 12.11 98.20 12.29 C 99.23 12.51 100.13 12.27 100.92 11.56 Z" />
<path fill="#040404" opacity="1.00" d=" M 72.76 18.01 C 74.99 17.54 77.23 17.17 79.48 16.82 C 78.61 17.59 77.74 18.34 76.84 19.08 C 70.11 21.79 63.70 25.22 56.93 27.85 C 56.44 27.97 55.45 28.21 54.96 28.34 C 56.53 25.59 59.70 24.70 62.28 23.23 C 65.79 21.52 69.08 19.34 72.76 18.01 Z" />
<path fill="#040404" opacity="1.00" d=" M 105.34 39.39 C 108.26 37.80 110.68 35.43 113.65 33.91 C 112.84 35.26 111.98 36.58 110.99 37.81 C 108.99 39.47 106.69 40.70 104.54 42.15 C 107.21 45.13 110.83 43.31 112.62 40.53 C 116.67 39.40 120.70 38.20 124.55 36.48 C 120.45 39.49 116.66 42.93 112.11 45.31 C 116.38 46.48 120.37 48.51 124.70 49.49 C 127.34 50.18 130.06 50.54 132.62 51.49 C 129.48 51.87 126.25 51.83 123.23 50.81 C 116.77 48.80 109.92 47.57 104.12 43.91 C 102.78 42.91 101.10 43.77 99.62 43.87 C 103.59 47.81 109.29 49.17 113.91 52.14 C 115.72 53.04 116.11 55.19 116.97 56.83 C 113.42 55.44 110.01 53.63 107.24 50.97 C 105.29 49.12 101.55 48.29 99.61 50.61 C 96.03 54.97 90.14 56.37 86.92 61.16 C 91.23 64.13 96.08 66.14 100.67 68.62 C 89.63 66.50 78.95 62.67 67.89 60.53 C 65.10 60.79 62.41 61.96 59.54 61.63 C 60.48 60.97 61.43 60.31 62.48 59.81 C 67.91 59.07 73.41 60.05 78.85 59.33 C 76.70 56.91 73.93 55.09 72.07 52.41 C 76.24 52.82 78.03 57.35 81.77 58.64 C 83.48 59.20 85.23 59.95 87.07 59.73 C 89.96 57.43 92.18 54.42 95.07 52.12 C 97.01 50.52 99.77 49.39 100.10 46.56 C 97.47 46.20 95.68 48.07 93.89 49.64 C 92.75 49.35 91.62 49.03 90.46 48.81 C 89.75 48.70 88.32 48.47 87.61 48.36 C 90.15 47.03 92.91 46.25 95.78 46.05 C 94.28 43.65 92.43 41.50 90.74 39.24 C 92.86 40.82 94.94 42.44 97.08 43.98 C 98.11 43.06 99.11 42.11 100.10 41.14 C 97.94 39.68 94.45 38.85 94.34 35.71 C 97.88 37.04 101.28 40.93 105.34 39.39 Z" />
<path fill="#040404" opacity="1.00" d=" M 154.47 61.37 C 158.54 59.60 162.83 58.48 167.08 57.25 C 165.53 58.20 163.93 59.07 162.34 59.94 C 160.95 60.69 159.56 61.45 158.18 62.23 C 162.17 64.15 166.33 65.97 170.82 66.19 C 173.78 65.84 176.04 67.46 177.82 69.63 C 171.11 68.65 164.93 65.06 158.00 65.31 C 149.54 63.35 140.88 65.26 132.77 67.80 C 130.18 68.79 127.29 69.70 126.20 72.54 C 122.23 72.64 118.39 71.41 114.42 71.57 C 110.52 71.65 106.96 69.89 103.27 68.90 C 103.53 67.96 103.80 67.02 104.06 66.08 C 109.23 67.80 114.49 69.92 120.05 69.42 C 126.13 68.38 132.44 67.35 137.59 63.64 C 143.06 62.22 148.81 61.63 154.47 61.37 Z" />
<path fill="#040404" opacity="1.00" d=" M 91.78 73.57 C 96.59 73.09 101.23 74.60 105.91 75.41 C 109.57 75.43 111.24 79.95 115.02 79.62 C 121.22 81.15 127.59 80.90 133.64 78.90 C 133.72 77.86 133.79 76.82 133.87 75.78 C 138.66 75.71 143.35 74.58 148.13 74.47 C 146.67 75.80 145.06 77.04 142.98 77.05 C 136.71 77.48 131.83 82.21 125.73 83.24 C 123.09 83.43 120.31 83.84 117.81 82.73 C 112.21 80.65 106.29 79.49 100.85 76.97 C 97.91 75.60 94.81 74.68 91.78 73.57 Z" />
<path fill="#040404" opacity="1.00" d=" M 59.84 77.11 C 60.97 76.26 62.18 75.52 63.37 74.76 C 63.41 75.56 63.49 77.17 63.53 77.97 C 64.78 77.70 66.03 77.43 67.28 77.17 C 67.56 78.33 67.86 79.47 68.19 80.61 C 71.28 81.48 73.99 83.29 77.01 84.32 C 84.75 84.50 92.56 86.02 99.49 89.57 C 101.65 90.64 104.13 90.56 106.41 91.23 C 108.38 91.57 109.31 93.64 110.43 95.07 C 111.07 97.90 109.76 100.56 108.96 103.20 C 110.37 103.80 111.78 104.40 113.19 105.02 C 109.42 107.35 105.05 109.58 103.14 113.81 C 102.08 115.49 100.69 116.93 99.46 118.49 C 97.69 118.54 95.91 118.47 94.13 118.51 C 91.34 118.43 89.14 120.86 86.32 120.53 C 82.00 120.47 78.05 118.51 74.46 116.29 C 73.88 117.94 73.30 119.59 72.73 121.25 C 71.88 121.41 71.03 121.57 70.18 121.72 C 72.12 123.36 73.98 125.08 75.74 126.90 C 73.82 126.45 71.75 126.12 70.22 124.76 C 66.42 121.71 66.91 116.20 64.19 112.42 C 63.26 109.36 59.82 110.97 57.54 110.06 C 54.99 109.25 52.28 109.64 49.66 109.24 C 53.55 108.15 57.69 108.39 61.61 107.34 C 64.69 104.28 60.42 101.10 58.70 98.65 C 59.52 98.58 61.15 98.43 61.97 98.36 C 62.85 95.37 65.47 93.76 68.02 92.35 C 65.28 90.34 62.76 88.06 60.39 85.62 C 58.67 83.88 56.00 84.50 53.82 84.06 C 54.66 83.28 55.52 82.51 56.38 81.74 C 54.21 80.56 51.78 79.54 50.62 77.20 C 53.94 77.25 56.52 79.40 59.22 81.03 C 59.40 79.72 59.61 78.41 59.84 77.11 M 74.90 92.74 C 74.66 93.66 74.42 94.58 74.18 95.51 C 73.53 95.86 72.88 96.21 72.24 96.56 C 72.29 98.15 72.26 99.73 72.18 101.31 L 72.78 101.29 C 69.66 105.54 72.81 112.04 77.88 112.91 L 77.96 113.50 C 78.10 113.51 78.37 113.53 78.50 113.54 C 85.27 117.34 93.84 115.87 99.56 110.85 C 100.58 109.19 101.61 107.53 102.62 105.86 C 98.87 105.29 95.08 104.88 91.29 104.69 C 90.02 104.45 88.74 104.27 87.45 104.15 C 87.54 106.29 87.67 108.43 87.69 110.57 C 85.70 111.26 83.62 111.55 81.54 111.78 C 80.80 110.21 80.01 108.66 79.48 107.01 C 80.49 104.89 82.86 104.12 84.68 102.90 C 83.45 102.28 82.22 101.64 80.92 101.17 C 78.38 99.65 75.45 99.03 72.72 97.96 C 74.36 97.11 75.99 95.78 77.95 95.90 C 79.36 96.36 80.65 97.12 81.97 97.81 C 82.72 96.88 83.24 95.50 84.60 95.36 C 88.88 93.84 93.28 95.58 97.47 96.53 C 97.57 97.08 97.75 98.19 97.85 98.74 C 96.01 98.63 94.17 98.52 92.33 98.43 C 92.30 99.38 92.26 100.34 92.23 101.30 C 95.96 101.19 99.44 102.56 102.76 104.09 C 102.04 101.37 101.12 98.51 102.14 95.72 C 99.13 94.48 96.07 93.37 93.10 92.04 C 90.83 92.39 88.53 92.32 86.29 91.83 C 82.47 91.06 78.69 92.39 74.90 92.74 M 83.91 97.95 C 86.51 99.24 89.48 100.08 91.98 98.08 C 89.41 96.60 86.42 95.89 83.91 97.95 M 83.14 108.89 C 85.23 108.78 87.69 108.39 86.38 105.65 C 83.64 104.25 83.18 106.76 83.14 108.89 Z" />
<path fill="#040404" opacity="1.00" d=" M 172.34 81.65 C 174.55 80.27 177.13 80.02 179.66 80.54 C 178.25 81.50 176.81 82.43 175.38 83.34 C 175.90 84.43 176.41 85.51 176.92 86.60 C 175.61 88.42 174.29 90.24 173.04 92.11 C 174.01 93.05 175.03 93.94 176.09 94.79 C 177.26 94.56 178.36 94.08 179.45 93.62 C 179.36 94.71 179.27 95.81 179.28 96.92 C 181.34 96.79 183.35 96.26 185.35 95.76 C 182.71 97.36 179.97 98.84 177.56 100.80 C 176.38 104.20 175.83 107.79 174.76 111.23 C 174.63 111.62 174.38 112.41 174.26 112.80 C 172.68 113.51 171.07 114.15 169.47 114.79 C 169.76 116.32 170.62 117.88 170.29 119.47 C 169.52 120.42 168.63 121.25 167.76 122.10 C 167.56 121.77 167.17 121.10 166.97 120.76 C 167.27 120.15 167.87 118.93 168.17 118.32 C 166.15 118.04 164.10 117.47 162.06 117.80 C 159.69 118.55 157.67 120.08 155.57 121.38 C 157.86 123.22 160.78 123.65 163.62 123.97 C 159.90 125.88 155.71 125.75 151.67 125.39 C 151.43 126.48 151.18 127.57 150.92 128.65 C 150.12 132.14 146.73 133.95 144.51 136.45 C 147.16 136.02 149.82 135.57 152.50 135.30 C 152.47 134.01 152.45 132.73 152.45 131.45 C 155.27 133.37 157.60 136.21 161.03 137.06 C 164.54 138.11 167.95 139.69 171.69 139.72 C 175.24 139.84 178.35 141.63 181.04 143.82 C 176.79 142.95 172.52 141.28 168.12 142.19 C 169.42 143.33 170.74 144.44 172.08 145.54 C 166.48 145.80 160.89 146.88 155.96 149.66 C 153.20 150.90 150.44 152.17 147.64 153.34 C 142.00 151.74 136.17 150.94 130.40 149.98 C 127.49 152.58 123.45 151.33 119.94 151.89 C 113.61 152.73 107.24 153.66 100.83 153.23 C 95.80 151.35 90.65 149.73 85.91 147.20 C 84.38 146.53 82.89 145.55 81.18 145.49 C 76.51 146.20 72.09 148.41 69.02 152.05 C 67.21 154.52 63.92 153.60 61.42 153.00 C 61.50 153.79 61.58 154.57 61.65 155.36 C 61.70 155.95 61.80 157.15 61.84 157.74 C 61.10 157.83 59.61 158.01 58.86 158.09 C 58.83 154.97 58.76 151.84 58.61 148.72 C 60.45 147.31 62.45 146.04 64.76 145.60 C 64.68 147.27 64.59 148.94 64.50 150.61 C 70.64 148.04 77.74 146.74 82.15 141.28 C 76.94 140.77 72.93 144.91 67.82 144.98 C 70.83 142.59 73.94 140.15 77.60 138.83 C 82.52 138.21 87.64 137.83 92.19 135.69 C 95.22 133.03 98.00 130.08 101.36 127.81 C 101.44 129.79 101.56 131.77 101.72 133.75 C 104.29 129.47 104.95 123.35 110.51 121.74 C 111.19 124.23 109.97 126.53 108.75 128.62 C 110.59 129.95 112.55 131.11 114.67 131.96 C 115.27 130.09 115.74 128.15 116.64 126.39 C 119.16 125.86 121.74 126.15 124.28 126.24 C 125.32 121.24 126.25 116.19 126.35 111.06 C 128.39 117.19 129.84 124.63 136.22 127.77 C 139.28 130.26 143.57 129.69 146.74 127.74 C 151.32 125.41 149.62 118.55 146.10 115.93 C 141.71 112.04 141.06 105.92 139.26 100.67 C 137.41 98.08 135.68 95.41 134.93 92.27 C 136.41 92.46 137.90 92.94 139.41 92.76 C 143.15 91.30 146.17 88.36 150.08 87.26 C 157.41 85.04 165.48 85.41 172.34 81.65 M 156.46 91.96 C 156.64 92.37 156.98 93.18 157.16 93.58 C 162.13 93.90 166.74 96.59 171.82 95.16 C 170.89 91.80 167.03 92.00 164.35 92.74 C 164.59 91.65 164.83 90.55 165.06 89.46 C 162.12 89.98 159.18 90.70 156.46 91.96 M 146.41 96.67 C 148.88 98.34 151.19 100.42 154.05 101.38 C 156.59 101.59 157.95 98.79 158.96 96.88 C 154.90 96.17 149.70 92.55 146.41 96.67 M 160.41 102.07 C 161.50 102.85 162.60 103.63 163.69 104.42 C 163.99 105.10 164.59 106.46 164.89 107.14 C 163.65 108.17 162.44 109.32 160.87 109.81 C 160.02 109.10 159.17 108.40 158.32 107.70 C 158.14 106.27 157.95 104.84 157.77 103.42 C 157.13 103.53 155.84 103.76 155.20 103.88 C 151.71 101.63 148.42 98.85 144.20 98.13 C 144.87 100.75 147.41 101.72 149.57 102.86 C 147.38 103.74 145.26 104.83 143.75 106.68 C 147.36 110.05 151.99 111.84 156.47 113.69 C 157.93 114.50 159.51 113.79 160.99 113.48 C 163.89 112.16 166.86 110.99 169.77 109.67 C 172.31 108.86 173.16 106.05 174.55 104.05 C 174.88 101.52 174.67 98.97 174.31 96.46 C 169.20 96.45 163.67 97.83 160.41 102.07 M 160.40 105.06 C 160.39 105.50 160.36 106.38 160.35 106.81 C 163.28 109.39 163.42 102.17 160.40 105.06 M 117.03 131.81 C 116.07 133.11 115.11 134.41 114.12 135.69 C 116.30 134.86 118.61 134.50 120.94 134.53 C 120.68 135.81 120.43 137.09 120.18 138.37 C 114.28 138.29 108.32 138.07 102.49 139.21 C 102.43 139.97 102.29 141.49 102.22 142.25 C 103.65 141.98 105.09 141.79 106.53 141.56 C 108.36 141.46 110.19 141.25 112.02 141.46 C 120.46 144.01 129.41 141.82 138.02 143.17 C 143.00 143.94 147.94 142.54 152.92 142.65 C 152.29 143.27 151.66 143.88 151.03 144.50 C 149.48 144.61 147.92 144.67 146.38 144.88 C 139.06 143.84 131.64 145.09 124.27 144.54 C 117.12 145.16 109.73 143.41 102.78 145.55 C 103.32 146.56 103.83 147.61 104.56 148.51 C 108.02 148.76 111.52 148.55 114.96 148.15 C 117.68 149.50 120.79 149.88 123.66 148.77 C 127.05 147.45 130.69 147.86 134.24 147.94 C 136.81 149.22 139.83 149.75 142.70 149.42 C 148.05 150.20 153.14 148.20 157.91 146.03 C 157.42 145.61 156.44 144.77 155.95 144.35 C 156.52 143.64 157.08 142.91 157.65 142.20 C 157.02 141.75 155.77 140.85 155.15 140.40 L 154.65 140.90 C 150.74 140.58 146.89 139.51 142.95 139.58 C 138.95 140.11 135.01 141.23 130.96 141.34 C 128.62 140.90 126.29 140.39 123.92 140.15 C 122.93 139.29 121.92 138.46 120.92 137.62 C 121.95 133.80 125.50 132.03 128.75 130.41 C 124.76 128.75 121.09 132.13 117.03 131.81 M 129.36 131.98 C 129.57 133.21 129.80 134.44 130.05 135.67 C 128.67 135.55 127.29 135.45 125.90 135.39 C 126.18 137.27 126.82 139.99 129.33 139.55 C 133.36 139.19 137.34 138.23 141.42 138.03 C 141.45 137.41 141.50 136.17 141.53 135.55 C 137.29 135.08 133.27 133.62 129.36 131.98 M 109.35 134.33 C 108.34 135.62 110.55 137.25 111.50 135.93 C 112.50 134.64 110.30 133.00 109.35 134.33 Z" />
<path fill="#040404" opacity="1.00" d=" M 41.06 143.06 C 45.50 139.49 51.51 137.94 57.14 138.83 C 54.07 139.54 50.73 139.03 47.89 140.59 C 42.61 142.61 38.70 148.31 39.35 154.02 C 38.81 157.53 41.46 160.11 43.12 162.87 C 41.06 161.05 38.88 159.19 37.66 156.68 C 37.02 151.97 37.22 146.44 41.06 143.06 Z" />
<path fill="#040404" opacity="1.00" d=" M 183.96 143.99 C 184.29 143.60 184.97 142.81 185.30 142.41 C 186.31 143.82 187.08 145.38 187.65 147.02 C 187.81 148.56 187.95 150.10 188.22 151.63 C 185.64 154.72 182.47 157.38 178.72 158.92 C 174.68 160.46 171.23 163.11 167.94 165.84 C 170.83 162.34 173.78 158.84 175.78 154.74 C 179.23 154.45 182.80 154.15 185.84 152.32 C 185.73 151.81 185.51 150.78 185.41 150.27 C 184.91 148.18 184.33 146.10 183.96 143.99 Z" />
<path fill="#040404" opacity="1.00" d=" M 177.11 145.87 C 179.58 146.58 182.43 147.33 183.17 150.17 C 179.97 150.97 178.32 148.31 177.11 145.87 Z" />
<path fill="#040404" opacity="1.00" d=" M 132.64 153.16 C 133.67 152.00 136.26 153.37 135.41 154.87 C 134.38 156.16 131.89 154.63 132.64 153.16 Z" />
<path fill="#040404" opacity="1.00" d=" M 113.83 157.35 C 116.17 155.81 118.85 154.67 121.68 154.58 C 126.29 154.57 131.71 154.43 134.69 158.63 C 130.06 158.14 125.36 156.65 120.70 157.77 C 118.17 158.38 115.52 159.11 113.03 157.86 L 113.83 157.35 Z" />
<path fill="#040404" opacity="1.00" d=" M 120.04 163.15 C 121.42 163.02 122.80 162.89 124.18 162.76 C 124.24 163.21 124.36 164.11 124.43 164.56 C 122.90 164.95 121.39 165.36 119.89 165.83 C 119.47 165.97 118.64 166.25 118.23 166.38 C 118.85 165.32 119.44 164.24 120.04 163.15 Z" />
</g>
<g id="#fefefeff">
<path fill="#fefefe" opacity="1.00" d=" M 76.84 19.08 C 86.13 17.31 95.55 15.84 105.00 15.59 C 112.60 16.50 120.24 16.76 127.88 17.09 C 135.59 19.35 143.56 20.89 150.98 24.09 C 165.46 31.33 178.98 42.32 185.25 57.66 C 188.15 62.77 190.68 68.13 191.88 73.92 C 192.97 79.53 197.20 84.09 197.39 89.92 C 197.68 95.29 197.48 100.67 197.39 106.05 C 197.48 110.86 195.43 115.35 194.92 120.09 C 194.07 125.82 195.06 131.65 194.12 137.37 C 193.67 134.23 193.45 131.06 193.33 127.89 C 192.62 135.82 190.80 143.58 189.94 151.48 C 189.15 150.01 188.35 148.53 187.65 147.02 C 187.08 145.38 186.31 143.82 185.30 142.41 C 184.97 142.81 184.29 143.60 183.96 143.99 C 183.48 144.56 183.01 145.12 182.53 145.69 C 182.05 145.06 181.55 144.43 181.04 143.82 C 178.35 141.63 175.24 139.84 171.69 139.72 C 167.95 139.69 164.54 138.11 161.03 137.06 C 157.60 136.21 155.27 133.37 152.45 131.45 C 152.45 132.73 152.47 134.01 152.50 135.30 C 149.82 135.57 147.16 136.02 144.51 136.45 C 146.73 133.95 150.12 132.14 150.92 128.65 C 156.05 126.57 161.83 128.18 166.94 126.04 C 170.83 124.44 173.59 121.13 176.81 118.55 C 175.50 118.46 174.20 118.35 172.90 118.25 C 173.31 116.42 173.74 114.60 174.26 112.80 C 174.38 112.41 174.63 111.62 174.76 111.23 C 177.52 112.75 180.18 114.44 182.91 116.01 C 182.21 112.64 180.57 109.54 177.09 108.39 C 177.22 105.85 177.39 103.32 177.56 100.80 C 179.97 98.84 182.71 97.36 185.35 95.76 C 183.35 96.26 181.34 96.79 179.28 96.92 C 179.27 95.81 179.36 94.71 179.45 93.62 C 178.36 94.08 177.26 94.56 176.09 94.79 C 175.03 93.94 174.01 93.05 173.04 92.11 C 174.29 90.24 175.61 88.42 176.92 86.60 C 179.39 86.33 181.86 86.09 184.33 85.85 C 183.29 84.64 182.23 83.45 181.17 82.27 C 182.14 81.42 183.10 80.56 184.07 79.69 C 180.32 79.24 176.34 78.05 172.69 79.57 C 169.24 80.86 166.15 83.09 162.47 83.74 C 156.80 84.86 150.85 85.12 145.55 87.64 C 142.05 89.29 138.46 90.71 134.93 92.27 C 135.68 95.41 137.41 98.08 139.26 100.67 C 141.06 105.92 141.71 112.04 146.10 115.93 C 146.84 117.63 147.45 119.37 148.07 121.12 C 145.20 123.59 141.18 126.03 137.46 123.76 C 135.04 121.33 133.26 118.34 131.26 115.58 C 130.50 112.91 130.37 110.10 129.42 107.48 C 127.52 101.80 128.23 95.74 128.55 89.88 C 126.43 93.63 124.08 97.34 122.80 101.49 C 121.61 106.15 123.91 110.80 123.24 115.49 C 122.81 118.55 122.78 122.13 120.57 124.50 C 117.98 125.42 115.28 125.94 112.62 126.57 C 113.18 124.67 113.77 122.78 114.39 120.90 C 113.09 121.17 111.79 121.41 110.51 121.74 C 104.95 123.35 104.29 129.47 101.72 133.75 C 101.56 131.77 101.44 129.79 101.36 127.81 C 98.00 130.08 95.22 133.03 92.19 135.69 C 87.64 137.83 82.52 138.21 77.60 138.83 C 73.94 140.15 70.83 142.59 67.82 144.98 C 66.80 145.20 65.78 145.38 64.76 145.60 C 62.45 146.04 60.45 147.31 58.61 148.72 C 56.69 151.66 57.66 155.35 57.40 158.64 C 61.87 160.47 66.71 161.25 71.51 160.46 C 68.77 157.83 65.12 156.68 61.65 155.36 C 61.58 154.57 61.50 153.79 61.42 153.00 C 63.92 153.60 67.21 154.52 69.02 152.05 C 72.09 148.41 76.51 146.20 81.18 145.49 C 82.89 145.55 84.38 146.53 85.91 147.20 C 90.65 149.73 95.80 151.35 100.83 153.23 C 103.63 154.21 106.16 156.81 109.32 156.12 C 111.02 155.86 112.70 155.50 114.39 155.20 C 114.25 155.74 113.97 156.81 113.83 157.35 L 113.03 157.86 C 110.73 159.22 108.41 160.56 106.12 161.94 C 107.05 162.96 107.97 163.99 108.89 165.02 C 111.58 163.13 114.40 161.39 117.51 160.26 C 115.71 164.51 111.31 166.68 109.13 170.67 C 112.23 169.39 115.23 167.88 118.23 166.38 C 118.64 166.25 119.47 165.97 119.89 165.83 C 122.08 166.57 124.23 167.41 126.37 168.28 C 126.56 170.99 126.85 173.72 127.86 176.26 C 129.42 179.98 127.84 183.97 127.33 187.75 C 127.80 187.59 128.75 187.28 129.22 187.12 C 130.77 181.57 132.45 175.81 131.50 170.00 C 131.07 167.22 129.40 164.88 128.07 162.48 C 126.77 162.57 125.47 162.66 124.18 162.76 C 122.80 162.89 121.42 163.02 120.04 163.15 C 119.46 163.00 118.30 162.69 117.72 162.53 C 121.85 160.20 126.70 160.56 131.26 160.61 C 133.61 160.61 135.73 161.73 137.84 162.62 C 136.96 160.76 136.11 158.88 135.31 156.99 C 139.53 156.20 143.78 155.28 147.64 153.34 C 150.44 152.17 153.20 150.90 155.96 149.66 C 162.88 148.77 170.23 146.97 176.88 150.04 C 179.60 151.41 182.59 151.19 185.41 150.27 C 185.51 150.78 185.73 151.81 185.84 152.32 C 182.80 154.15 179.23 154.45 175.78 154.74 C 173.78 158.84 170.83 162.34 167.94 165.84 C 171.23 163.11 174.68 160.46 178.72 158.92 C 182.47 157.38 185.64 154.72 188.22 151.63 C 188.55 152.31 189.21 153.66 189.53 154.33 C 183.96 164.02 178.20 174.28 168.74 180.70 C 165.42 183.01 162.74 186.11 159.35 188.33 C 155.38 191.31 150.53 192.72 146.34 195.33 C 141.26 198.27 135.70 200.59 129.86 201.43 C 116.34 202.25 102.47 201.30 89.67 196.56 C 81.41 194.44 73.08 192.27 65.37 188.54 C 61.04 185.94 56.97 182.91 52.56 180.42 C 46.90 177.28 43.12 171.87 38.26 167.75 C 35.44 165.23 32.23 163.04 30.14 159.84 C 23.97 150.29 18.78 139.89 16.51 128.68 C 16.00 122.96 17.39 117.29 17.89 111.60 C 19.28 104.72 19.14 97.47 21.91 90.92 C 24.60 83.95 25.98 76.57 27.57 69.30 C 28.94 64.02 32.34 59.61 34.90 54.87 C 38.44 49.24 41.09 42.94 45.69 38.05 C 49.39 34.60 53.32 31.40 56.93 27.85 C 63.70 25.22 70.11 21.79 76.84 19.08 M 113.95 33.42 L 113.65 33.91 C 110.68 35.43 108.26 37.80 105.34 39.39 C 101.28 40.93 97.88 37.04 94.34 35.71 C 94.45 38.85 97.94 39.68 100.10 41.14 C 99.11 42.11 98.11 43.06 97.08 43.98 C 94.94 42.44 92.86 40.82 90.74 39.24 C 92.43 41.50 94.28 43.65 95.78 46.05 C 92.91 46.25 90.15 47.03 87.61 48.36 C 86.19 48.35 84.78 48.43 83.37 48.48 C 83.39 49.05 83.43 50.19 83.44 50.76 C 85.87 50.51 88.34 50.13 90.46 48.81 C 91.62 49.03 92.75 49.35 93.89 49.64 C 95.68 48.07 97.47 46.20 100.10 46.56 C 99.77 49.39 97.01 50.52 95.07 52.12 C 92.18 54.42 89.96 57.43 87.07 59.73 C 85.23 59.95 83.48 59.20 81.77 58.64 C 78.03 57.35 76.24 52.82 72.07 52.41 C 73.93 55.09 76.70 56.91 78.85 59.33 C 73.41 60.05 67.91 59.07 62.48 59.81 C 61.43 60.31 60.48 60.97 59.54 61.63 C 62.41 61.96 65.10 60.79 67.89 60.53 C 78.95 62.67 89.63 66.50 100.67 68.62 C 101.32 68.69 102.62 68.83 103.27 68.90 C 106.96 69.89 110.52 71.65 114.42 71.57 C 118.39 71.41 122.23 72.64 126.20 72.54 C 127.29 69.70 130.18 68.79 132.77 67.80 C 140.88 65.26 149.54 63.35 158.00 65.31 C 164.93 65.06 171.11 68.65 177.82 69.63 C 176.04 67.46 173.78 65.84 170.82 66.19 C 169.82 64.37 168.91 62.50 168.14 60.58 C 166.19 60.51 164.24 60.39 162.34 59.94 C 163.93 59.07 165.53 58.20 167.08 57.25 C 162.83 58.48 158.54 59.60 154.47 61.37 C 148.81 61.63 143.06 62.22 137.59 63.64 C 132.44 67.35 126.13 68.38 120.05 69.42 C 114.49 69.92 109.23 67.80 104.06 66.08 C 98.72 63.39 92.83 61.93 86.92 61.16 C 90.14 56.37 96.03 54.97 99.61 50.61 C 101.55 48.29 105.29 49.12 107.24 50.97 C 110.01 53.63 113.42 55.44 116.97 56.83 C 116.11 55.19 115.72 53.04 113.91 52.14 C 109.29 49.17 103.59 47.81 99.62 43.87 C 101.10 43.77 102.78 42.91 104.12 43.91 C 109.92 47.57 116.77 48.80 123.23 50.81 C 126.25 51.83 129.48 51.87 132.62 51.49 C 130.06 50.54 127.34 50.18 124.70 49.49 C 120.37 48.51 116.38 46.48 112.11 45.31 C 116.66 42.93 120.45 39.49 124.55 36.48 C 120.70 38.20 116.67 39.40 112.62 40.53 C 110.83 43.31 107.21 45.13 104.54 42.15 C 106.69 40.70 108.99 39.47 110.99 37.81 C 113.29 37.64 115.56 37.22 117.81 36.71 C 117.72 35.64 117.62 34.56 117.52 33.49 C 116.33 33.46 115.14 33.44 113.95 33.42 M 91.78 73.57 C 94.81 74.68 97.91 75.60 100.85 76.97 C 106.29 79.49 112.21 80.65 117.81 82.73 C 120.31 83.84 123.09 83.43 125.73 83.24 C 131.83 82.21 136.71 77.48 142.98 77.05 C 145.06 77.04 146.67 75.80 148.13 74.47 C 143.35 74.58 138.66 75.71 133.87 75.78 C 133.79 76.82 133.72 77.86 133.64 78.90 C 127.59 80.90 121.22 81.15 115.02 79.62 C 111.24 79.95 109.57 75.43 105.91 75.41 C 101.23 74.60 96.59 73.09 91.78 73.57 M 59.84 77.11 C 59.61 78.41 59.40 79.72 59.22 81.03 C 56.52 79.40 53.94 77.25 50.62 77.20 C 51.78 79.54 54.21 80.56 56.38 81.74 C 55.52 82.51 54.66 83.28 53.82 84.06 C 56.00 84.50 58.67 83.88 60.39 85.62 C 62.76 88.06 65.28 90.34 68.02 92.35 C 65.47 93.76 62.85 95.37 61.97 98.36 C 61.15 98.43 59.52 98.58 58.70 98.65 C 60.42 101.10 64.69 104.28 61.61 107.34 C 57.69 108.39 53.55 108.15 49.66 109.24 C 52.28 109.64 54.99 109.25 57.54 110.06 C 59.82 110.97 63.26 109.36 64.19 112.42 C 63.15 114.98 64.65 117.41 65.69 119.69 C 62.89 120.07 59.89 120.35 57.69 122.32 C 61.09 122.81 65.50 120.99 68.03 124.02 C 71.41 127.77 75.95 130.26 80.53 132.26 C 85.91 134.18 89.96 129.47 94.22 127.11 C 99.51 123.51 104.86 119.37 108.14 113.77 C 105.02 114.92 102.84 118.17 99.46 118.49 C 100.69 116.93 102.08 115.49 103.14 113.81 C 105.05 109.58 109.42 107.35 113.19 105.02 C 111.78 104.40 110.37 103.80 108.96 103.20 C 109.76 100.56 111.07 97.90 110.43 95.07 C 109.31 93.64 108.38 91.57 106.41 91.23 C 104.13 90.56 101.65 90.64 99.49 89.57 C 92.56 86.02 84.75 84.50 77.01 84.32 C 73.99 83.29 71.28 81.48 68.19 80.61 C 67.86 79.47 67.56 78.33 67.28 77.17 C 66.03 77.43 64.78 77.70 63.53 77.97 C 63.49 77.17 63.41 75.56 63.37 74.76 C 62.18 75.52 60.97 76.26 59.84 77.11 M 171.19 130.26 C 174.18 131.11 177.06 129.75 180.01 129.46 C 182.93 129.46 186.45 130.47 187.58 133.48 C 188.94 136.17 188.07 139.22 188.37 142.09 C 189.30 139.27 189.93 136.31 189.79 133.33 C 188.99 130.46 186.70 127.81 183.67 127.25 C 179.30 126.38 174.96 128.21 171.19 130.26 M 41.06 143.06 C 37.22 146.44 37.02 151.97 37.66 156.68 C 38.88 159.19 41.06 161.05 43.12 162.87 C 41.46 160.11 38.81 157.53 39.35 154.02 C 38.70 148.31 42.61 142.61 47.89 140.59 C 50.73 139.03 54.07 139.54 57.14 138.83 C 51.51 137.94 45.50 139.49 41.06 143.06 Z" />
<path fill="#fefefe" opacity="1.00" d=" M 170.28 99.55 C 171.42 99.82 172.56 100.09 173.71 100.36 C 173.99 101.59 174.27 102.82 174.55 104.05 C 173.16 106.05 172.31 108.86 169.77 109.67 C 166.86 110.99 163.89 112.16 160.99 113.48 C 159.42 112.93 157.85 112.37 156.29 111.79 C 157.80 111.10 159.33 110.44 160.87 109.81 C 162.44 109.32 163.65 108.17 164.89 107.14 C 164.59 106.46 163.99 105.10 163.69 104.42 C 166.17 103.21 168.54 101.72 170.28 99.55 Z" />
<path fill="#fefefe" opacity="1.00" d=" M 72.78 101.29 C 75.49 101.23 78.21 101.16 80.92 101.17 C 82.22 101.64 83.45 102.28 84.68 102.90 C 82.86 104.12 80.49 104.89 79.48 107.01 C 80.01 108.66 80.80 110.21 81.54 111.78 C 83.62 111.55 85.70 111.26 87.69 110.57 C 87.67 108.43 87.54 106.29 87.45 104.15 C 88.74 104.27 90.02 104.45 91.29 104.69 C 93.80 106.87 95.66 109.78 95.35 113.24 C 93.52 112.29 91.72 111.26 89.96 110.18 C 88.92 111.19 87.89 112.20 86.85 113.22 C 84.11 112.86 80.42 110.39 78.50 113.54 C 78.37 113.53 78.10 113.51 77.96 113.50 L 77.88 112.91 C 77.55 108.56 74.92 104.93 72.78 101.29 Z" />
<path fill="#fefefe" opacity="1.00" d=" M 155.20 103.88 C 155.84 103.76 157.13 103.53 157.77 103.42 C 157.00 105.41 157.30 108.28 155.10 109.36 C 153.50 110.47 151.59 109.35 149.89 109.16 C 151.57 107.32 153.29 105.50 155.20 103.88 Z" />
<path fill="#fefefe" opacity="1.00" d=" M 160.40 105.06 C 163.42 102.17 163.28 109.39 160.35 106.81 C 160.36 106.38 160.39 105.50 160.40 105.06 Z" />
<path fill="#fefefe" opacity="1.00" d=" M 83.14 108.89 C 83.18 106.76 83.64 104.25 86.38 105.65 C 87.69 108.39 85.23 108.78 83.14 108.89 Z" />
<path fill="#fefefe" opacity="1.00" d=" M 94.22 106.24 C 97.02 106.09 99.82 105.97 102.62 105.86 C 101.61 107.53 100.58 109.19 99.56 110.85 C 97.74 109.36 95.97 107.82 94.22 106.24 Z" />
<path fill="#fefefe" opacity="1.00" d=" M 147.42 123.36 C 149.75 123.94 147.16 127.14 145.64 125.82 C 144.73 124.72 146.24 123.22 147.42 123.36 Z" />
<path fill="#fefefe" opacity="1.00" d=" M 129.36 131.98 C 133.27 133.62 137.29 135.08 141.53 135.55 C 141.50 136.17 141.45 137.41 141.42 138.03 C 137.34 138.23 133.36 139.19 129.33 139.55 C 126.82 139.99 126.18 137.27 125.90 135.39 C 127.29 135.45 128.67 135.55 130.05 135.67 C 129.80 134.44 129.57 133.21 129.36 131.98 Z" />
<path fill="#fefefe" opacity="1.00" d=" M 106.50 139.53 C 112.31 139.15 118.16 139.26 123.92 140.15 C 126.29 140.39 128.62 140.90 130.96 141.34 C 135.01 141.23 138.95 140.11 142.95 139.58 C 146.89 139.51 150.74 140.58 154.65 140.90 C 154.22 141.34 153.35 142.21 152.92 142.65 C 147.94 142.54 143.00 143.94 138.02 143.17 C 129.41 141.82 120.46 144.01 112.02 141.46 C 110.19 141.25 108.36 141.46 106.53 141.56 C 106.52 141.05 106.51 140.04 106.50 139.53 Z" />
<path fill="#fefefe" opacity="1.00" d=" M 102.78 145.55 C 109.73 143.41 117.12 145.16 124.27 144.54 C 124.42 145.19 124.74 146.49 124.89 147.14 C 121.57 147.28 118.23 147.48 114.96 148.15 C 111.52 148.55 108.02 148.76 104.56 148.51 C 103.83 147.61 103.32 146.56 102.78 145.55 Z" />
<path fill="#fefefe" opacity="1.00" d=" M 146.38 144.88 C 147.92 144.67 149.48 144.61 151.03 144.50 C 151.57 144.87 152.65 145.62 153.19 145.99 C 149.67 147.06 146.20 148.28 142.70 149.42 C 139.83 149.75 136.81 149.22 134.24 147.94 C 133.22 147.21 132.23 146.47 131.25 145.71 C 136.30 145.64 141.39 145.87 146.38 144.88 Z" />
</g>
</svg>
