<?xml version="1.0" encoding="UTF-8" ?>
<!DOCTYPE svg PUBLIC "-//W3C//DTD SVG 1.1//EN" "http://www.w3.org/Graphics/SVG/1.1/DTD/svg11.dtd">
<svg width="210pt" height="220pt" viewBox="0 0 210 220" version="1.1" xmlns="http://www.w3.org/2000/svg">
<g id="#1bde51fe">
<path fill="#1bde51" opacity="1.00" d=" M 14.53 59.56 C 20.31 59.51 26.08 59.53 31.86 59.47 C 33.97 59.19 35.07 61.35 36.45 62.54 C 38.45 64.61 40.35 66.96 43.13 68.03 C 49.18 70.33 51.88 77.07 57.73 79.66 C 61.22 81.31 63.75 84.37 67.15 86.17 C 71.02 88.20 73.51 92.13 77.57 93.85 C 80.50 95.02 82.61 97.42 84.75 99.62 C 87.47 99.53 90.18 99.59 92.89 99.72 C 92.56 99.80 91.90 99.95 91.57 100.03 C 90.18 100.35 88.77 100.59 87.36 100.83 C 87.46 102.25 87.57 103.67 87.67 105.09 C 85.38 107.80 82.95 110.81 83.31 114.59 C 77.72 111.32 72.72 107.18 67.48 103.40 C 59.10 97.44 50.81 91.35 42.39 85.46 C 36.20 81.14 30.44 76.11 23.53 72.93 C 23.21 91.85 23.21 110.79 23.54 129.71 C 29.45 128.77 35.27 127.33 41.16 126.24 C 45.07 125.46 49.09 125.72 53.01 125.01 C 63.08 122.80 73.39 122.04 83.41 119.53 C 83.51 123.57 83.53 127.61 83.40 131.65 C 82.18 131.74 80.96 131.80 79.78 132.10 C 77.82 132.72 75.94 133.55 74.04 134.30 C 71.23 134.87 68.32 134.13 65.51 134.67 C 63.99 135.55 62.62 136.67 61.07 137.51 C 55.32 137.67 49.56 137.29 43.80 137.46 C 41.03 137.14 38.36 137.77 36.91 140.36 C 30.59 140.50 24.28 140.41 17.96 140.44 C 16.31 140.58 13.93 139.87 14.45 137.76 C 14.52 111.70 14.37 85.63 14.53 59.56 Z" />
<path fill="#1bde51" opacity="1.00" d=" M 190.47 76.35 C 192.21 75.54 193.87 74.57 195.59 73.69 C 195.45 101.43 195.62 129.18 195.49 156.93 C 193.63 156.16 191.80 155.31 189.90 154.66 C 186.69 154.24 183.45 154.87 180.23 154.54 C 175.06 152.01 170.17 148.89 164.87 146.60 C 162.75 146.27 160.49 146.38 158.61 145.17 C 152.60 141.83 146.32 139.01 140.36 135.59 C 137.71 133.75 134.28 134.49 131.30 134.76 C 128.40 136.92 126.35 141.11 122.17 140.57 C 125.71 139.42 128.39 136.75 131.10 134.33 C 132.35 133.90 133.61 133.50 134.87 133.12 C 134.07 131.88 133.28 130.63 132.57 129.34 C 132.00 121.56 133.77 113.35 130.32 106.03 C 132.95 103.66 135.30 100.83 138.61 99.38 C 153.51 91.95 168.52 84.71 183.22 76.89 C 185.52 76.02 188.13 77.12 190.47 76.35 M 179.61 96.40 C 176.45 96.18 173.33 96.71 171.46 99.49 C 169.94 100.22 168.51 101.11 167.05 101.93 C 165.35 102.28 163.64 102.54 161.92 102.79 C 161.28 103.63 160.63 104.48 159.98 105.32 C 156.28 106.50 152.27 107.54 149.62 110.59 C 148.57 110.54 147.52 110.54 146.47 110.51 C 146.48 110.93 146.49 111.78 146.50 112.21 C 142.92 113.01 139.80 114.99 136.68 116.84 C 136.94 117.67 137.45 119.33 137.71 120.16 C 146.11 124.62 155.52 126.88 163.88 131.46 C 170.93 135.55 178.75 137.92 186.39 140.62 C 186.93 138.12 187.49 135.59 187.40 133.01 C 187.35 121.33 187.37 109.66 187.41 97.99 C 187.45 95.95 186.99 93.96 186.53 91.99 C 184.12 92.42 178.99 93.09 179.61 96.40 Z" />
<path fill="#1bde51" opacity="1.00" d=" M 28.25 101.81 C 27.57 99.59 27.75 97.31 28.50 95.13 C 30.34 95.69 32.17 96.29 34.01 96.87 C 33.47 98.33 32.92 99.81 32.23 101.21 C 30.92 101.51 29.58 101.63 28.25 101.81 Z" />
<path fill="#1bde51" opacity="1.00" d=" M 38.55 107.32 C 40.52 107.45 42.51 107.38 44.46 107.68 C 44.61 109.22 44.61 110.79 44.48 112.34 C 42.59 112.64 40.66 112.52 38.76 112.66 C 38.66 110.88 38.56 109.10 38.55 107.32 Z" />
<path fill="#1bde51" opacity="1.00" d=" M 61.48 110.42 C 63.52 110.44 65.56 110.44 67.60 110.43 C 67.56 112.16 67.54 113.88 67.53 115.61 C 65.53 115.55 63.53 115.50 61.53 115.44 L 61.54 114.58 C 61.54 113.19 61.53 111.80 61.48 110.42 Z" />
<path fill="#1bde51" opacity="1.00" d=" M 168.98 112.44 L 169.88 112.50 C 171.48 112.58 173.08 112.61 174.69 112.66 C 174.28 114.95 173.81 117.22 173.39 119.51 L 172.52 119.57 C 168.13 121.20 163.97 123.39 159.59 125.05 C 159.55 122.98 159.52 120.90 159.48 118.83 C 162.04 118.53 164.78 118.60 167.08 117.24 C 167.88 115.72 168.41 114.06 168.98 112.44 Z" />
</g>
<g id="#fefefeff">
<path fill="#fefefe" opacity="1.00" d=" M 23.53 72.93 C 30.44 76.11 36.20 81.14 42.39 85.46 C 50.81 91.35 59.10 97.44 67.48 103.40 C 72.72 107.18 77.72 111.32 83.31 114.59 C 83.29 116.24 83.37 117.88 83.41 119.53 C 73.39 122.04 63.08 122.80 53.01 125.01 C 49.09 125.72 45.07 125.46 41.16 126.24 C 35.27 127.33 29.45 128.77 23.54 129.71 C 23.21 110.79 23.21 91.85 23.53 72.93 M 25.66 82.62 C 25.62 85.53 25.62 88.44 25.66 91.35 C 28.24 91.39 30.85 91.65 33.41 91.24 C 36.55 89.29 34.41 85.47 34.30 82.59 C 31.42 82.54 28.54 82.56 25.66 82.62 M 40.38 94.44 C 40.40 97.16 40.46 99.89 40.66 102.60 C 43.33 102.58 46.00 102.62 48.67 102.55 C 49.19 99.85 49.08 97.12 48.59 94.43 C 45.85 94.37 43.12 94.37 40.38 94.44 M 28.25 101.81 C 29.58 101.63 30.92 101.51 32.23 101.21 C 32.92 99.81 33.47 98.33 34.01 96.87 C 32.17 96.29 30.34 95.69 28.50 95.13 C 27.75 97.31 27.57 99.59 28.25 101.81 M 51.61 105.56 C 51.57 108.50 51.58 111.44 51.63 114.38 C 54.93 114.44 58.23 114.46 61.54 114.58 L 61.53 115.44 C 63.53 115.50 65.53 115.55 67.53 115.61 C 67.54 113.88 67.56 112.16 67.60 110.43 C 65.56 110.44 63.52 110.44 61.48 110.42 C 61.54 108.66 61.05 106.73 59.46 105.76 C 56.87 105.29 54.22 105.54 51.61 105.56 M 38.55 107.32 C 38.56 109.10 38.66 110.88 38.76 112.66 C 40.66 112.52 42.59 112.64 44.48 112.34 C 44.61 110.79 44.61 109.22 44.46 107.68 C 42.51 107.38 40.52 107.45 38.55 107.32 M 28.60 108.60 C 28.57 111.53 28.58 114.46 28.64 117.39 C 31.53 117.43 34.42 117.43 37.30 117.36 C 38.12 114.47 38.57 111.49 38.46 108.48 C 35.17 108.49 31.88 108.51 28.60 108.60 Z" />
<path fill="#fefefe" opacity="1.00" d=" M 179.61 96.40 C 178.99 93.09 184.12 92.42 186.53 91.99 C 186.99 93.96 187.45 95.95 187.41 97.99 C 187.37 109.66 187.35 121.33 187.40 133.01 C 187.49 135.59 186.93 138.12 186.39 140.62 C 178.75 137.92 170.93 135.55 163.88 131.46 C 155.52 126.88 146.11 124.62 137.71 120.16 C 137.45 119.33 136.94 117.67 136.68 116.84 C 139.80 114.99 142.92 113.01 146.50 112.21 C 146.54 114.92 146.60 117.64 146.69 120.36 C 149.59 120.37 152.49 120.35 155.39 120.31 C 155.43 117.48 155.46 114.65 155.44 111.81 C 153.50 111.40 151.57 110.95 149.62 110.59 C 152.27 107.54 156.28 106.50 159.98 105.32 C 160.69 107.11 161.28 109.00 162.41 110.60 C 164.40 111.75 166.75 112.02 168.98 112.44 C 168.41 114.06 167.88 115.72 167.08 117.24 C 164.78 118.60 162.04 118.53 159.48 118.83 C 159.52 120.90 159.55 122.98 159.59 125.05 C 163.97 123.39 168.13 121.20 172.52 119.57 C 172.50 122.79 172.53 126.01 172.62 129.23 C 175.52 129.28 178.42 129.29 181.32 129.28 C 181.40 126.06 181.42 122.84 181.38 119.63 C 178.72 119.56 176.05 119.46 173.39 119.51 C 173.81 117.22 174.28 114.95 174.69 112.66 C 173.08 112.61 171.48 112.58 169.88 112.50 C 169.87 108.78 168.92 105.16 167.05 101.93 C 168.51 101.11 169.94 100.22 171.46 99.49 C 172.26 101.52 173.04 103.55 173.81 105.59 C 176.51 105.57 179.21 105.53 181.91 105.43 C 181.26 102.39 180.41 99.40 179.61 96.40 Z" />
<path fill="#fefefe" opacity="1.00" d=" M 87.36 100.83 C 88.77 100.59 90.18 100.35 91.57 100.03 C 90.24 101.69 89.01 103.43 87.67 105.09 C 87.57 103.67 87.46 102.25 87.36 100.83 Z" />
<path fill="#fefefe" opacity="1.00" d=" M 131.10 134.33 C 131.63 132.68 132.14 131.02 132.57 129.34 C 133.28 130.63 134.07 131.88 134.87 133.12 C 133.61 133.50 132.35 133.90 131.10 134.33 Z" />
<path fill="#fefefe" opacity="1.00" d=" M 74.04 134.30 C 75.94 133.55 77.82 132.72 79.78 132.10 C 79.68 132.73 79.48 133.97 79.39 134.59 C 77.60 134.53 75.82 134.43 74.04 134.30 Z" />
<path fill="#fefefe" opacity="1.00" d=" M 36.91 140.36 C 38.36 137.77 41.03 137.14 43.80 137.46 C 43.21 138.44 42.57 139.40 41.90 140.33 C 40.24 140.44 38.57 140.45 36.91 140.36 Z" />
</g>
<g id="#ea20bbfe">
<path fill="#ea20bb" opacity="1.00" d=" M 25.66 82.62 C 28.54 82.56 31.42 82.54 34.30 82.59 C 34.41 85.47 36.55 89.29 33.41 91.24 C 30.85 91.65 28.24 91.39 25.66 91.35 C 25.62 88.44 25.62 85.53 25.66 82.62 Z" />
<path fill="#ea20bb" opacity="1.00" d=" M 40.38 94.44 C 43.12 94.37 45.85 94.37 48.59 94.43 C 49.08 97.12 49.19 99.85 48.67 102.55 C 46.00 102.62 43.33 102.58 40.66 102.60 C 40.46 99.89 40.40 97.16 40.38 94.44 Z" />
<path fill="#ea20bb" opacity="1.00" d=" M 171.46 99.49 C 173.33 96.71 176.45 96.18 179.61 96.40 C 180.41 99.40 181.26 102.39 181.91 105.43 C 179.21 105.53 176.51 105.57 173.81 105.59 C 173.04 103.55 172.26 101.52 171.46 99.49 Z" />
<path fill="#ea20bb" opacity="1.00" d=" M 92.89 99.72 C 103.36 99.49 113.86 99.67 124.34 99.61 C 126.89 101.07 128.98 103.42 130.32 106.03 C 133.77 113.35 132.00 121.56 132.57 129.34 C 132.14 131.02 131.63 132.68 131.10 134.33 C 128.39 136.75 125.71 139.42 122.17 140.57 C 111.65 140.16 101.11 140.65 90.60 140.35 C 87.86 138.18 85.62 135.46 83.36 132.82 L 83.40 131.65 C 83.53 127.61 83.51 123.57 83.41 119.53 C 83.37 117.88 83.29 116.24 83.31 114.59 C 82.95 110.81 85.38 107.80 87.67 105.09 C 89.01 103.43 90.24 101.69 91.57 100.03 C 91.90 99.95 92.56 99.80 92.89 99.72 Z" />
<path fill="#ea20bb" opacity="1.00" d=" M 161.92 102.79 C 163.64 102.54 165.35 102.28 167.05 101.93 C 168.92 105.16 169.87 108.78 169.88 112.50 L 168.98 112.44 C 166.75 112.02 164.40 111.75 162.41 110.60 C 161.28 109.00 160.69 107.11 159.98 105.32 C 160.63 104.48 161.28 103.63 161.92 102.79 Z" />
<path fill="#ea20bb" opacity="1.00" d=" M 51.61 105.56 C 54.22 105.54 56.87 105.29 59.46 105.76 C 61.05 106.73 61.54 108.66 61.48 110.42 C 61.53 111.80 61.54 113.19 61.54 114.58 C 58.23 114.46 54.93 114.44 51.63 114.38 C 51.58 111.44 51.57 108.50 51.61 105.56 Z" />
<path fill="#ea20bb" opacity="1.00" d=" M 28.60 108.60 C 31.88 108.51 35.17 108.49 38.46 108.48 C 38.57 111.49 38.12 114.47 37.30 117.36 C 34.42 117.43 31.53 117.43 28.64 117.39 C 28.58 114.46 28.57 111.53 28.60 108.60 Z" />
<path fill="#ea20bb" opacity="1.00" d=" M 146.47 110.51 C 147.52 110.54 148.57 110.54 149.62 110.59 C 151.57 110.95 153.50 111.40 155.44 111.81 C 155.46 114.65 155.43 117.48 155.39 120.31 C 152.49 120.35 149.59 120.37 146.69 120.36 C 146.60 117.64 146.54 114.92 146.50 112.21 C 146.49 111.78 146.48 110.93 146.47 110.51 Z" />
<path fill="#ea20bb" opacity="1.00" d=" M 173.39 119.51 C 176.05 119.46 178.72 119.56 181.38 119.63 C 181.42 122.84 181.40 126.06 181.32 129.28 C 178.42 129.29 175.52 129.28 172.62 129.23 C 172.53 126.01 172.50 122.79 172.52 119.57 L 173.39 119.51 Z" />
</g>
</svg>
