<?xml version="1.0" encoding="UTF-8" ?>
<!DOCTYPE svg PUBLIC "-//W3C//DTD SVG 1.1//EN" "http://www.w3.org/Graphics/SVG/1.1/DTD/svg11.dtd">
<svg width="210pt" height="220pt" viewBox="0 0 210 220" version="1.1" xmlns="http://www.w3.org/2000/svg">
<g id="#b4b2aefd">
<path fill="#b4b2ae" opacity="1.00" d=" M 102.77 27.73 C 104.47 25.00 107.74 26.04 110.38 25.83 C 112.12 27.29 114.11 28.38 116.12 29.43 C 117.10 28.03 117.63 26.15 119.33 25.39 L 118.81 26.25 C 117.86 27.75 116.95 29.27 116.04 30.80 C 112.84 28.16 109.40 25.36 104.95 25.99 C 103.99 26.84 103.71 28.83 102.21 28.93 C 101.68 28.49 100.61 27.61 100.07 27.18 L 99.62 26.78 C 100.41 27.02 101.98 27.49 102.77 27.73 Z" />
<path fill="#b4b2ae" opacity="1.00" d=" M 41.37 49.93 C 41.12 46.08 42.54 41.72 45.79 39.45 C 43.50 42.73 41.37 46.32 41.83 50.51 C 43.40 50.07 45.00 49.61 46.32 48.62 C 46.58 48.90 47.11 49.47 47.37 49.76 C 45.97 51.99 44.68 54.30 43.72 56.76 C 43.02 58.28 40.41 58.12 40.14 59.93 C 40.80 61.28 43.83 61.49 42.66 63.57 C 40.82 66.09 38.03 67.79 35.16 68.89 C 35.55 67.44 36.95 66.87 38.15 66.21 C 39.50 64.70 40.89 63.24 42.22 61.71 C 40.91 61.69 39.61 61.65 38.31 61.59 C 38.92 60.34 39.55 59.08 39.91 57.72 C 41.20 57.36 42.43 56.81 43.67 56.28 C 43.54 55.58 43.29 54.19 43.16 53.49 C 44.79 52.99 45.57 51.96 45.48 50.42 C 44.27 50.08 42.02 51.46 41.37 49.93 Z" />
<path fill="#b4b2ae" opacity="1.00" d=" M 66.09 67.33 C 68.29 66.73 70.59 66.71 72.86 66.77 C 71.71 69.36 68.05 68.59 66.09 67.33 Z" />
<path fill="#b4b2ae" opacity="1.00" d=" M 172.48 65.77 C 175.17 68.94 179.41 71.11 180.85 75.11 C 181.28 75.45 182.13 76.13 182.56 76.47 C 182.63 81.61 182.77 86.77 182.58 91.91 C 182.51 94.29 180.57 95.95 178.81 97.25 C 178.69 97.77 178.46 98.80 178.35 99.32 C 175.32 102.18 172.23 104.99 169.42 108.08 C 169.33 108.66 169.13 109.82 169.04 110.40 C 166.97 114.07 165.13 118.09 161.81 120.83 C 165.17 116.51 167.22 111.42 169.86 106.68 C 174.02 101.49 179.89 97.40 182.34 91.00 C 182.68 86.71 182.93 82.29 182.17 78.05 C 179.86 73.67 176.23 70.15 172.76 66.68 L 172.48 65.77 Z" />
<path fill="#b4b2ae" opacity="1.00" d=" M 44.07 69.66 C 47.08 66.49 51.86 68.37 55.59 68.74 C 54.33 68.99 53.06 69.22 51.80 69.42 C 53.33 69.72 54.89 69.97 56.37 70.50 C 52.84 70.75 49.31 70.55 45.78 70.54 C 45.35 70.32 44.50 69.88 44.07 69.66 Z" />
<path fill="#b4b2ae" opacity="1.00" d=" M 35.24 86.26 C 35.24 84.91 35.76 84.25 36.81 84.28 C 37.36 85.33 37.18 86.28 36.27 87.14 C 36.01 86.92 35.50 86.48 35.24 86.26 Z" />
<path fill="#b4b2ae" opacity="1.00" d=" M 114.08 86.16 C 116.05 86.81 118.00 86.45 119.90 85.72 C 122.81 85.56 125.73 85.67 128.64 85.63 C 128.54 86.31 128.33 87.68 128.22 88.37 C 123.74 88.24 118.82 89.48 114.77 86.95 C 114.73 88.79 114.71 90.64 114.57 92.49 L 114.16 92.88 C 114.17 90.64 114.13 88.40 114.08 86.16 Z" />
<path fill="#b4b2ae" opacity="1.00" d=" M 32.90 86.98 L 33.20 87.72 C 34.89 93.06 38.59 97.59 39.74 103.12 C 40.14 109.43 39.78 115.76 39.94 122.07 C 39.68 123.06 40.39 125.21 39.34 125.61 C 38.17 118.25 39.50 110.66 38.63 103.24 C 38.66 102.70 38.72 101.61 38.75 101.06 C 36.47 97.19 34.83 92.98 32.56 89.10 L 32.90 86.98 Z" />
<path fill="#b4b2ae" opacity="1.00" d=" M 76.86 103.76 C 78.54 103.67 80.21 103.60 81.89 103.54 C 81.61 104.61 81.08 105.55 80.29 106.35 C 81.20 107.22 81.81 108.22 81.10 109.43 C 80.57 106.76 78.11 107.22 76.04 107.34 C 75.83 107.01 75.40 106.34 75.19 106.01 C 75.79 105.29 76.34 104.53 76.86 103.76 Z" />
<path fill="#b4b2ae" opacity="1.00" d=" M 131.55 139.79 C 142.38 135.77 152.29 129.53 160.81 121.75 C 155.86 127.91 149.12 132.41 141.89 135.48 C 139.82 136.95 137.77 138.51 135.28 139.19 C 131.15 140.43 127.25 142.17 123.53 144.32 C 120.17 145.99 116.84 147.70 113.50 149.40 C 110.76 150.83 107.61 151.33 105.06 153.15 C 103.16 153.07 101.21 153.09 99.59 154.26 C 99.60 153.94 99.61 153.29 99.61 152.97 C 102.64 151.43 106.25 152.09 109.27 150.52 C 116.77 147.09 123.88 142.85 131.55 139.79 Z" />
<path fill="#b4b2ae" opacity="1.00" d=" M 37.50 129.50 C 37.85 129.20 38.56 128.61 38.91 128.32 C 38.70 129.96 38.36 131.58 38.04 133.20 C 37.84 131.97 37.67 130.73 37.50 129.50 Z" />
<path fill="#b4b2ae" opacity="1.00" d=" M 41.82 152.23 C 42.50 148.58 36.84 147.10 37.82 143.25 C 39.20 145.77 40.55 148.35 42.46 150.52 C 46.74 155.05 52.96 157.34 59.12 157.38 C 54.32 157.59 48.92 157.19 45.32 153.61 C 44.35 152.85 43.21 151.25 41.82 152.23 Z" />
<path fill="#b4b2ae" opacity="1.00" d=" M 81.38 156.92 C 83.90 156.44 86.36 155.60 88.94 155.40 C 90.59 155.55 90.39 157.47 90.46 158.64 C 89.43 157.55 88.55 156.20 87.05 155.72 C 86.60 156.20 85.70 157.14 85.25 157.62 C 83.95 157.40 82.66 157.16 81.38 156.92 Z" />
<path fill="#b4b2ae" opacity="1.00" d=" M 65.10 174.14 C 67.28 173.60 69.18 174.62 68.14 177.10 C 65.83 178.21 64.75 176.09 65.10 174.14 Z" />
<path fill="#b4b2ae" opacity="1.00" d=" M 87.20 176.22 C 87.64 176.21 88.54 176.18 88.98 176.17 C 89.83 177.56 88.16 178.48 87.09 178.88 C 87.12 178.22 87.17 176.89 87.20 176.22 Z" />
<path fill="#b4b2ae" opacity="1.00" d=" M 69.34 178.19 L 70.66 177.81 C 70.95 177.73 71.53 177.57 71.82 177.49 C 72.32 178.72 72.55 180.04 72.55 181.37 C 71.41 181.51 70.27 181.66 69.13 181.82 C 69.17 181.19 69.25 179.94 69.29 179.31 L 69.34 178.19 Z" />
<path fill="#b4b2ae" opacity="1.00" d=" M 77.63 179.14 C 78.42 179.17 80.00 179.24 80.78 179.28 C 80.80 179.98 80.83 181.37 80.85 182.07 C 79.89 182.40 78.91 182.66 77.92 182.87 L 77.82 181.53 C 77.77 180.93 77.67 179.74 77.63 179.14 Z" />
<path fill="#b4b2ae" opacity="1.00" d=" M 116.01 182.39 C 116.80 181.34 117.86 180.61 119.17 180.18 C 119.32 181.04 119.61 182.74 119.76 183.60 C 119.45 183.71 118.82 183.94 118.51 184.05 C 116.80 184.70 115.06 185.28 113.30 185.80 C 113.15 183.70 113.67 182.13 116.01 182.39 Z" />
</g>
<g id="#e82916fe">
<path fill="#e82916" opacity="1.00" d=" M 118.81 26.25 C 120.95 26.10 123.10 26.10 125.23 25.84 C 125.73 26.64 126.23 27.44 126.74 28.24 C 128.34 27.93 129.88 28.23 131.22 29.18 C 131.67 28.91 132.59 28.38 133.05 28.11 C 134.71 28.15 136.37 28.17 138.04 28.19 C 138.73 28.82 139.44 29.43 140.17 30.01 C 140.85 29.43 141.51 28.82 142.13 28.17 C 144.12 28.16 146.11 28.22 148.10 28.32 C 147.86 29.90 148.75 31.12 149.81 32.20 C 150.08 32.52 150.62 33.17 150.90 33.49 C 151.91 33.60 152.93 33.69 153.95 33.75 C 154.63 34.59 155.31 35.42 156.01 36.24 C 156.21 36.29 156.60 36.39 156.79 36.44 L 158.22 36.77 C 158.37 38.04 159.09 38.76 160.38 38.91 L 160.57 40.23 C 160.63 40.52 160.73 41.11 160.78 41.40 C 162.48 42.50 164.25 43.50 165.93 44.65 C 167.09 45.72 167.97 47.01 168.40 48.54 C 169.38 49.30 170.14 50.27 170.85 51.28 C 172.02 51.28 173.21 51.29 174.39 51.30 C 174.33 54.31 174.33 57.32 174.40 60.33 C 171.19 60.06 172.24 63.81 172.48 65.77 L 172.76 66.68 C 171.64 66.24 170.49 65.86 169.36 65.46 C 169.23 65.15 168.96 64.53 168.83 64.21 C 168.05 60.61 167.62 56.90 166.38 53.43 C 165.59 52.81 164.78 52.24 163.93 51.72 C 163.15 49.96 161.85 48.61 160.09 47.82 C 159.03 46.60 158.00 45.35 156.93 44.13 C 155.59 42.46 153.86 41.16 152.50 39.51 C 152.99 37.36 150.80 36.84 149.15 37.15 C 147.85 37.05 146.55 36.90 145.25 36.77 L 144.73 34.74 C 141.51 34.16 138.20 34.40 134.99 33.74 C 133.33 33.03 132.40 35.01 131.25 35.77 C 130.90 36.11 130.18 36.78 129.82 37.12 C 128.24 37.34 126.64 37.47 125.05 37.51 C 124.78 37.25 124.23 36.72 123.96 36.45 C 122.72 34.91 121.48 33.38 120.18 31.88 C 119.46 32.70 118.74 33.52 118.02 34.34 C 116.02 34.35 114.02 34.36 112.02 34.38 C 111.47 33.77 110.37 32.56 109.82 31.96 C 108.83 33.44 107.85 34.92 106.88 36.42 C 105.44 36.44 104.05 36.10 102.76 35.49 L 102.32 35.37 L 102.00 34.73 C 99.40 30.90 95.30 34.60 93.92 37.50 C 92.69 37.29 91.46 37.07 90.23 36.84 C 88.99 34.08 83.69 32.81 83.34 36.77 C 81.39 37.66 79.48 37.64 77.87 36.08 C 76.20 34.56 74.19 35.93 72.77 37.05 C 71.28 37.44 69.71 37.87 70.27 39.95 C 68.41 39.77 66.55 39.60 64.68 39.44 C 63.82 38.68 62.96 37.93 62.09 37.18 C 60.76 39.13 59.41 41.09 58.06 43.03 C 57.61 43.31 56.73 43.88 56.29 44.17 C 53.70 43.02 50.62 44.33 50.27 47.28 C 49.05 48.13 46.38 46.45 46.32 48.62 C 45.00 49.61 43.40 50.07 41.83 50.51 C 41.37 46.32 43.50 42.73 45.79 39.45 C 46.59 39.49 48.19 39.57 48.98 39.61 C 55.05 40.27 56.97 32.73 62.68 32.52 C 64.25 33.32 65.98 33.75 67.72 34.01 C 68.44 32.72 69.16 31.43 69.93 30.16 C 71.31 28.29 74.16 29.57 76.15 29.24 L 76.21 29.99 C 76.57 30.09 77.30 30.31 77.66 30.41 C 78.59 30.43 80.47 30.47 81.41 30.49 C 82.46 30.71 83.32 30.39 84.01 29.55 C 85.27 29.16 86.57 28.92 87.86 28.66 C 89.75 29.16 91.70 29.34 93.64 29.52 L 94.32 29.58 C 94.85 29.06 95.91 28.03 96.44 27.51 C 97.58 27.15 98.79 27.03 100.07 27.18 C 100.61 27.61 101.68 28.49 102.21 28.93 C 103.71 28.83 103.99 26.84 104.95 25.99 C 109.40 25.36 112.84 28.16 116.04 30.80 C 116.95 29.27 117.86 27.75 118.81 26.25 Z" />
</g>
<g id="#fdfdfdff">
<path fill="#fdfdfd" opacity="1.00" d=" M 93.64 29.52 C 92.84 28.19 94.79 26.29 96.15 26.88 L 96.44 27.51 C 95.91 28.03 94.85 29.06 94.32 29.58 L 93.64 29.52 Z" />
<path fill="#fdfdfd" opacity="1.00" d=" M 76.15 29.24 C 76.54 29.32 77.33 29.49 77.73 29.57 L 77.66 30.41 C 77.30 30.31 76.57 30.09 76.21 29.99 L 76.15 29.24 Z" />
<path fill="#fdfdfd" opacity="1.00" d=" M 81.31 29.76 L 82.06 29.12 C 82.55 29.23 83.53 29.45 84.01 29.55 C 83.32 30.39 82.46 30.71 81.41 30.49 L 81.31 29.76 Z" />
<path fill="#fdfdfd" opacity="1.00" d=" M 67.35 33.48 C 67.59 31.97 68.98 31.19 69.93 30.16 C 69.16 31.43 68.44 32.72 67.72 34.01 C 65.98 33.75 64.25 33.32 62.68 32.52 C 56.97 32.73 55.05 40.27 48.98 39.61 C 49.66 37.86 51.64 38.88 53.00 38.72 C 55.19 36.71 57.31 34.62 59.17 32.30 C 61.96 32.10 64.71 32.60 67.35 33.48 Z" />
<path fill="#fdfdfd" opacity="1.00" d=" M 118.02 34.34 C 118.74 33.52 119.46 32.70 120.18 31.88 C 121.48 33.38 122.72 34.91 123.96 36.45 C 118.27 36.07 112.57 36.31 106.88 36.42 C 107.85 34.92 108.83 33.44 109.82 31.96 C 110.37 32.56 111.47 33.77 112.02 34.38 C 114.02 34.36 116.02 34.35 118.02 34.34 Z" />
<path fill="#fdfdfd" opacity="1.00" d=" M 149.81 32.20 C 152.91 31.89 155.22 34.05 156.79 36.44 C 156.60 36.39 156.21 36.29 156.01 36.24 C 155.31 35.42 154.63 34.59 153.95 33.75 C 152.93 33.69 151.91 33.60 150.90 33.49 C 150.62 33.17 150.08 32.52 149.81 32.20 Z" />
<path fill="#fdfdfd" opacity="1.00" d=" M 93.92 37.50 C 95.30 34.60 99.40 30.90 102.00 34.73 L 102.32 35.37 C 100.64 37.60 97.24 36.64 94.83 37.53 C 87.71 37.74 80.58 38.07 73.58 39.42 C 68.48 40.98 63.05 41.15 58.06 43.03 C 59.41 41.09 60.76 39.13 62.09 37.18 C 62.96 37.93 63.82 38.68 64.68 39.44 C 66.55 39.60 68.41 39.77 70.27 39.95 C 69.71 37.87 71.28 37.44 72.77 37.05 C 74.19 35.93 76.20 34.56 77.87 36.08 C 79.48 37.64 81.39 37.66 83.34 36.77 C 83.69 32.81 88.99 34.08 90.23 36.84 C 91.46 37.07 92.69 37.29 93.92 37.50 Z" />
<path fill="#fdfdfd" opacity="1.00" d=" M 131.25 35.77 C 132.40 35.01 133.33 33.03 134.99 33.74 C 138.20 34.40 141.51 34.16 144.73 34.74 L 145.25 36.77 C 140.59 36.40 135.90 36.37 131.25 35.77 Z" />
<path fill="#fdfdfd" opacity="1.00" d=" M 149.15 37.15 C 150.80 36.84 152.99 37.36 152.50 39.51 C 150.91 40.01 149.31 38.74 149.15 37.15 Z" />
<path fill="#fdfdfd" opacity="1.00" d=" M 98.77 39.84 C 108.12 38.70 117.58 39.46 126.98 39.36 C 133.02 39.23 139.05 39.77 145.08 39.84 C 152.46 42.27 157.40 48.80 160.89 55.40 C 156.53 55.19 151.92 56.19 147.80 54.36 C 146.10 52.35 143.69 51.17 141.50 49.81 L 141.41 49.76 C 136.33 46.43 130.85 43.41 124.83 42.26 C 124.59 42.14 124.12 41.91 123.88 41.80 C 117.00 41.09 110.01 40.89 103.11 41.55 C 101.42 41.70 99.98 41.13 98.77 39.84 Z" />
<path fill="#fdfdfd" opacity="1.00" d=" M 76.63 41.53 C 83.86 41.10 91.08 40.25 98.29 39.82 C 98.40 40.41 98.61 41.57 98.72 42.16 C 91.12 42.46 83.53 43.41 75.93 43.10 C 76.10 42.71 76.46 41.93 76.63 41.53 Z" />
<path fill="#fdfdfd" opacity="1.00" d=" M 160.57 40.23 C 162.12 41.99 164.37 42.90 165.93 44.65 C 164.25 43.50 162.48 42.50 160.78 41.40 C 160.73 41.11 160.63 40.52 160.57 40.23 Z" />
<path fill="#fdfdfd" opacity="1.00" d=" M 81.97 43.75 C 97.01 44.10 112.36 38.82 127.12 43.85 C 129.44 44.83 131.75 45.85 134.11 46.77 C 135.90 47.64 137.58 48.71 139.11 50.00 C 137.55 50.18 135.97 50.10 134.43 49.83 C 124.98 45.64 114.37 43.69 104.09 45.05 C 91.20 48.65 77.67 47.03 64.61 45.45 C 64.69 45.16 64.86 44.59 64.94 44.31 C 70.42 42.28 76.31 43.94 81.97 43.75 Z" />
<path fill="#fdfdfd" opacity="1.00" d=" M 50.27 47.28 C 50.62 44.33 53.70 43.02 56.29 44.17 C 54.59 45.70 52.57 46.94 50.27 47.28 Z" />
<path fill="#fdfdfd" opacity="1.00" d=" M 46.09 57.41 C 48.83 50.47 56.47 47.56 62.73 44.63 C 63.34 45.02 63.96 45.41 64.57 45.81 C 62.78 46.71 61.31 48.08 60.10 49.65 C 62.14 49.11 64.11 48.33 66.15 47.79 C 73.13 48.23 80.08 49.24 87.08 49.34 C 95.44 49.33 103.55 46.52 111.94 46.83 C 117.90 47.06 123.95 47.80 129.50 50.13 C 122.32 50.97 115.18 48.96 108.00 49.82 C 100.02 50.78 91.93 49.60 83.99 50.97 C 78.34 51.88 72.48 50.37 66.96 52.21 C 63.71 53.21 60.28 53.20 56.96 53.87 L 56.78 54.77 C 56.39 56.06 55.92 58.24 53.98 57.53 C 51.35 57.52 48.72 57.46 46.09 57.41 Z" />
<path fill="#fdfdfd" opacity="1.00" d=" M 160.09 47.82 C 161.85 48.61 163.15 49.96 163.93 51.72 C 164.78 52.24 165.59 52.81 166.38 53.43 C 167.62 56.90 168.05 60.61 168.83 64.21 C 166.57 60.36 164.78 56.28 163.16 52.12 C 161.92 50.85 160.92 49.39 160.09 47.82 Z" />
<path fill="#fdfdfd" opacity="1.00" d=" M 141.42 55.37 C 140.95 53.67 142.12 52.41 142.93 51.13 C 144.05 52.25 145.32 53.13 146.76 53.77 L 146.72 55.48 C 144.95 55.44 143.19 55.41 141.42 55.37 Z" />
<path fill="#fdfdfd" opacity="1.00" d=" M 94.44 57.24 L 95.25 57.32 C 95.55 57.35 96.14 57.41 96.44 57.44 C 96.56 58.95 96.67 60.46 96.83 61.97 C 97.88 66.71 99.96 71.11 101.12 75.81 C 103.75 78.06 105.34 81.25 108.03 83.46 C 106.36 83.78 104.72 84.25 103.12 84.81 C 105.00 87.32 108.56 86.49 111.01 87.93 C 112.48 90.63 108.58 91.96 108.12 94.34 C 110.30 95.44 112.58 94.52 114.16 92.88 L 114.57 92.49 C 114.71 90.64 114.73 88.79 114.77 86.95 C 118.82 89.48 123.74 88.24 128.22 88.37 C 128.33 87.68 128.54 86.31 128.64 85.63 C 131.79 84.76 134.23 82.54 136.85 80.72 C 142.56 80.22 148.08 78.29 153.04 75.44 C 155.81 75.13 158.74 74.94 161.47 75.59 C 164.25 77.29 166.16 80.12 167.52 83.02 C 169.04 87.08 164.47 90.49 165.76 94.40 C 167.57 95.72 168.37 93.21 169.14 92.14 C 174.26 84.51 168.35 72.20 159.04 71.80 C 156.21 71.80 153.15 71.25 150.58 72.74 C 146.67 74.74 142.40 75.86 138.42 77.68 C 138.75 75.45 139.45 73.30 140.11 71.15 C 141.31 67.87 140.09 64.27 141.31 60.97 C 141.10 60.34 140.69 59.08 140.48 58.45 C 142.26 58.35 143.90 58.90 145.46 59.69 C 145.62 59.99 145.94 60.59 146.10 60.89 C 146.12 60.30 146.15 59.11 146.17 58.52 C 151.21 58.54 156.25 58.58 161.30 58.52 C 162.97 60.71 164.58 62.95 166.08 65.27 L 166.85 66.76 C 164.17 66.79 161.50 66.78 158.82 66.79 C 158.65 67.24 158.31 68.13 158.14 68.58 C 161.04 69.04 164.97 67.53 166.95 70.35 C 167.44 70.38 168.43 70.43 168.93 70.46 C 171.04 73.40 174.60 75.98 174.26 80.00 C 174.23 84.52 174.75 89.46 172.39 93.53 C 170.08 95.55 166.90 96.35 164.83 98.71 C 168.95 98.27 173.70 96.52 175.06 92.18 C 176.23 87.90 175.69 83.36 175.78 78.96 C 176.22 75.49 172.98 73.35 171.75 70.43 L 171.42 69.69 C 175.89 73.94 181.01 79.31 180.29 85.99 C 179.71 90.41 177.06 94.04 174.43 97.47 C 173.40 98.67 171.73 98.98 170.37 99.68 C 170.60 103.33 165.88 104.64 165.13 108.10 C 162.74 116.13 156.09 121.78 149.62 126.62 C 143.74 130.33 137.80 134.12 131.21 136.45 C 122.63 139.73 114.70 144.44 106.36 148.26 C 99.01 148.42 92.28 151.84 85.06 152.94 C 75.64 155.31 65.74 156.45 56.15 154.46 C 49.16 153.05 42.81 148.16 40.83 141.14 C 40.90 136.70 41.50 132.28 42.40 127.93 C 42.88 119.96 42.52 111.97 42.64 103.99 C 42.90 99.96 40.80 96.41 38.94 93.02 C 38.67 92.34 38.13 90.99 37.86 90.31 C 41.04 92.16 44.35 93.85 47.95 94.74 C 46.34 90.84 40.90 91.58 39.10 87.91 C 37.87 85.50 37.76 82.71 37.29 80.09 C 37.81 75.37 42.32 73.00 45.78 70.54 C 49.31 70.55 52.84 70.75 56.37 70.50 C 56.10 72.83 57.84 74.57 58.88 76.45 C 55.58 75.61 52.18 75.52 48.80 75.56 C 46.67 77.06 44.11 78.89 45.51 81.85 C 47.37 80.93 49.11 79.80 50.81 78.61 C 53.02 78.62 55.18 79.02 57.30 79.62 C 57.92 80.86 58.53 82.11 59.09 83.38 C 62.74 84.07 66.52 83.47 69.79 81.73 C 73.48 81.51 77.17 81.60 80.86 81.72 C 77.98 83.87 74.98 85.89 72.42 88.43 C 70.10 91.02 65.61 90.60 63.94 93.90 C 66.98 92.70 69.85 91.07 73.05 90.28 C 73.89 92.58 75.36 92.61 77.08 91.05 C 79.68 94.26 82.38 98.61 87.07 98.51 C 88.89 98.92 90.27 97.77 91.44 96.55 C 91.41 96.02 91.36 94.98 91.34 94.46 C 91.02 94.20 90.39 93.67 90.07 93.41 C 89.05 94.20 88.02 94.99 87.00 95.79 C 83.76 93.92 81.16 91.21 79.24 88.02 C 82.35 84.82 86.24 82.51 88.96 78.87 C 90.09 74.92 93.76 72.23 94.34 68.06 C 94.73 64.46 94.40 60.85 94.44 57.24 M 143.00 67.04 C 146.35 67.67 144.52 71.22 142.43 72.09 C 142.93 72.25 143.92 72.58 144.42 72.75 C 144.04 69.66 147.66 70.78 149.32 69.28 C 149.38 68.92 149.52 68.21 149.58 67.86 C 147.24 68.58 145.17 66.56 143.00 67.04 M 41.62 76.32 C 41.62 79.54 41.44 82.76 41.34 85.98 C 42.24 86.93 43.13 87.87 44.02 88.83 C 44.94 88.73 45.86 88.63 46.78 88.53 C 45.20 87.41 43.11 86.62 42.26 84.77 C 42.08 82.14 42.66 79.52 42.71 76.89 C 44.76 75.44 46.88 74.09 48.84 72.51 C 46.14 73.10 43.52 74.27 41.62 76.32 M 152.39 81.29 C 138.38 89.55 122.50 93.63 106.94 97.85 C 103.66 98.69 100.34 99.53 96.94 99.62 C 89.69 100.28 82.20 101.66 75.02 99.87 C 73.25 99.63 71.47 99.45 69.70 99.27 C 64.19 96.91 57.78 94.33 55.69 88.12 C 55.75 86.09 55.77 84.05 55.73 82.01 C 52.78 81.76 52.37 84.82 52.42 87.08 C 48.90 89.90 49.58 94.98 49.17 98.99 C 48.14 107.80 48.35 117.66 53.96 124.97 C 62.07 130.88 72.53 129.87 81.96 131.20 C 91.87 131.74 101.77 130.50 111.62 129.48 C 116.86 127.94 122.15 126.33 127.12 124.02 C 135.70 119.08 143.82 112.93 149.46 104.67 C 152.30 101.23 153.90 96.75 157.57 94.04 C 155.62 92.06 157.80 90.04 158.64 88.13 C 159.44 88.55 160.23 88.99 161.03 89.43 C 162.51 89.07 163.98 88.69 165.45 88.28 C 164.32 85.19 160.44 85.52 158.00 84.06 C 157.02 81.63 156.68 78.91 155.03 76.79 C 154.13 78.27 153.51 79.96 152.39 81.29 M 95.36 90.63 C 95.35 91.07 95.34 91.96 95.33 92.40 C 96.80 92.63 98.37 93.36 99.83 92.66 C 102.29 91.61 104.33 92.99 106.52 93.90 C 107.15 92.42 107.05 90.84 106.65 89.31 C 102.84 89.14 98.85 88.71 95.36 90.63 M 133.70 125.60 C 125.84 129.80 117.42 132.83 109.01 135.74 C 100.97 138.79 92.23 137.17 83.89 138.38 C 77.01 138.52 69.74 139.48 63.24 136.63 C 60.01 135.48 57.91 132.58 54.96 130.93 C 55.24 134.08 58.13 135.87 60.57 137.37 C 66.42 140.70 73.45 140.48 79.96 140.22 C 89.24 138.95 98.82 140.49 107.93 137.95 C 117.34 134.58 126.98 131.64 135.68 126.62 C 138.06 125.12 141.15 124.63 143.02 122.42 C 139.56 122.04 136.65 124.16 133.70 125.60 M 110.97 138.36 C 104.30 139.44 97.79 141.25 91.11 142.24 C 87.77 142.54 84.38 142.19 81.06 142.79 C 75.42 143.93 69.65 143.11 63.95 143.46 C 59.04 143.89 55.07 140.53 51.10 138.18 C 48.81 137.25 49.60 134.52 49.27 132.62 C 46.72 133.37 47.57 136.05 48.03 137.94 C 51.08 140.67 54.73 142.74 58.45 144.42 C 79.64 146.13 101.05 143.02 121.49 137.37 C 129.50 134.42 137.30 130.82 144.82 126.79 C 146.73 125.55 149.47 124.73 149.87 122.16 C 137.31 128.43 124.92 135.64 110.97 138.36 M 72.96 134.62 C 73.91 135.02 74.89 135.47 75.96 135.42 C 81.63 135.58 87.31 135.39 92.99 135.48 C 95.09 135.47 97.31 135.66 99.22 134.60 C 94.91 133.47 90.44 133.92 86.03 133.88 C 81.67 133.89 77.23 133.45 72.96 134.62 Z" />
<path fill="#fdfdfd" opacity="1.00" d=" M 99.55 57.57 C 100.92 57.46 102.30 57.36 103.67 57.28 C 103.98 58.61 104.29 59.95 104.62 61.28 C 106.19 60.51 106.37 58.85 106.59 57.30 C 107.40 57.47 108.21 57.65 109.02 57.84 C 112.91 58.84 116.98 58.40 120.96 58.48 C 126.42 58.33 131.99 58.86 137.30 57.30 C 137.50 59.48 137.56 61.67 137.59 63.86 C 135.01 63.24 132.70 61.90 130.33 60.76 C 124.23 60.65 117.81 59.41 111.99 61.82 C 108.55 63.19 105.83 65.78 102.79 67.80 C 101.31 64.52 100.80 60.93 99.55 57.57 Z" />
<path fill="#fdfdfd" opacity="1.00" d=" M 85.47 58.50 C 87.43 58.51 89.40 58.50 91.37 58.49 C 91.37 62.78 92.01 69.06 86.96 70.76 C 84.34 68.22 81.47 65.68 77.86 64.71 C 74.28 64.00 70.60 64.11 66.96 64.18 C 64.08 63.93 62.30 66.67 60.11 68.06 C 61.28 69.15 62.46 70.24 63.67 71.29 C 70.48 71.27 77.79 71.18 83.83 74.80 C 83.45 76.08 83.00 77.34 82.51 78.58 C 75.82 78.52 68.61 79.09 62.70 75.42 C 60.61 70.77 57.72 66.06 58.79 60.73 C 62.86 61.18 66.94 60.45 71.03 60.57 C 75.27 60.72 79.16 58.68 83.37 58.51 C 84.04 61.06 84.40 63.68 84.74 66.28 C 85.23 63.72 85.43 61.11 85.47 58.50 Z" />
<path fill="#fdfdfd" opacity="1.00" d=" M 45.59 63.50 C 46.02 62.57 46.44 61.64 46.84 60.70 C 49.78 60.59 52.71 60.57 55.65 60.61 C 55.62 63.32 55.53 66.03 55.59 68.74 C 51.86 68.37 47.08 66.49 44.07 69.66 C 41.98 71.98 38.63 73.26 37.77 76.51 C 37.83 79.78 33.56 76.36 35.97 75.00 C 37.48 69.79 43.74 68.44 45.59 63.50 Z" />
<path fill="#fdfdfd" opacity="1.00" d=" M 106.22 69.88 C 109.51 66.50 113.94 64.60 118.40 63.29 C 118.86 64.69 119.34 66.09 119.79 67.50 C 116.67 68.10 113.75 69.30 110.92 70.70 C 109.50 71.61 106.78 72.08 106.22 69.88 Z" />
<path fill="#fdfdfd" opacity="1.00" d=" M 131.99 66.36 C 133.93 66.15 135.62 66.81 136.81 68.34 C 134.87 68.54 133.00 68.17 131.99 66.36 Z" />
<path fill="#fdfdfd" opacity="1.00" d=" M 34.58 69.19 L 34.55 69.75 C 34.72 72.00 32.99 73.78 32.80 75.97 C 32.61 79.30 32.71 82.65 32.81 85.98 L 32.84 86.90 C 30.01 83.48 32.33 78.61 31.31 74.58 C 33.00 73.18 34.21 71.42 34.58 69.19 Z" />
<path fill="#fdfdfd" opacity="1.00" d=" M 116.81 71.83 C 120.97 69.92 125.65 70.19 130.10 70.47 C 132.19 70.65 134.49 71.12 135.87 72.87 C 134.94 74.12 134.02 75.38 133.15 76.68 C 129.23 76.65 127.20 71.31 123.31 72.36 C 122.80 76.45 128.18 77.87 130.76 80.10 C 126.37 83.28 120.81 82.78 115.70 82.59 C 115.58 82.13 115.34 81.19 115.22 80.73 C 111.50 81.08 108.68 78.80 107.08 75.66 C 110.65 75.40 113.50 72.96 116.81 71.83 Z" />
<path fill="#fdfdfd" opacity="1.00" d=" M 146.17 88.44 C 148.80 86.97 151.52 85.67 154.20 84.29 C 154.52 84.94 155.17 86.23 155.49 86.88 C 154.01 89.23 153.44 92.57 150.59 93.67 C 146.91 95.41 143.34 97.44 139.47 98.72 C 139.74 96.59 140.22 94.40 141.80 92.83 C 141.42 92.37 140.67 91.44 140.29 90.98 C 141.81 90.22 143.37 89.50 145.04 89.16 C 144.11 90.33 143.20 91.50 142.31 92.69 C 144.03 92.54 145.77 92.39 147.50 92.25 C 147.78 91.87 148.34 91.11 148.63 90.73 C 150.31 89.96 154.39 89.29 153.14 86.73 C 150.83 87.34 148.63 88.55 146.17 88.44 Z" />
<path fill="#fdfdfd" opacity="1.00" d=" M 51.92 98.88 C 52.92 96.73 51.39 92.88 54.97 93.14 C 54.24 95.20 53.24 97.14 51.92 98.88 Z" />
<path fill="#fdfdfd" opacity="1.00" d=" M 124.76 95.67 C 129.05 95.66 132.85 93.30 137.11 93.20 C 136.31 95.07 133.43 94.22 133.03 96.42 C 134.04 96.42 136.05 96.44 137.06 96.45 C 134.57 98.53 132.64 101.80 129.05 101.94 C 125.41 102.48 122.33 105.14 118.74 105.38 C 118.60 104.50 118.34 102.73 118.20 101.85 C 121.57 101.34 124.69 99.88 127.80 98.56 C 128.53 98.52 130.00 98.43 130.73 98.39 C 130.28 97.81 129.84 97.23 129.39 96.65 C 128.49 96.62 126.68 96.56 125.78 96.53 C 123.94 99.06 120.93 100.69 117.77 100.57 C 117.64 100.09 117.38 99.13 117.25 98.65 C 119.78 97.74 122.41 97.02 124.76 95.67 Z" />
<path fill="#fdfdfd" opacity="1.00" d=" M 56.66 96.31 C 57.14 96.41 58.12 96.63 58.60 96.73 C 57.71 99.78 57.34 102.92 57.59 106.09 C 56.43 105.51 55.29 104.90 54.14 104.28 C 54.92 101.60 55.76 98.95 56.66 96.31 Z" />
<path fill="#fdfdfd" opacity="1.00" d=" M 147.00 100.26 C 147.84 99.52 148.69 98.80 149.58 98.11 C 149.38 98.51 148.97 99.31 148.77 99.70 C 148.08 100.69 147.38 101.68 146.68 102.66 L 146.55 101.25 C 145.42 101.43 143.17 101.79 142.05 101.96 C 142.79 103.31 143.55 104.64 144.33 105.96 C 143.25 107.18 142.20 108.44 141.06 109.62 C 138.50 109.15 139.11 106.06 141.01 105.15 C 140.80 104.43 140.56 103.71 140.35 102.99 C 142.25 101.35 144.37 100.03 147.00 100.26 Z" />
<path fill="#fdfdfd" opacity="1.00" d=" M 64.20 100.34 C 65.07 100.82 65.94 101.31 66.82 101.80 C 65.42 103.91 65.69 106.49 65.58 108.89 C 64.28 108.37 62.97 107.86 61.67 107.34 C 61.28 105.88 60.86 104.43 60.43 102.98 C 61.91 102.80 63.39 102.61 64.87 102.44 C 64.71 101.91 64.37 100.86 64.20 100.34 Z" />
<path fill="#fdfdfd" opacity="1.00" d=" M 107.62 101.44 C 109.40 99.88 112.08 100.40 114.27 100.16 C 114.07 100.80 113.67 102.08 113.47 102.72 C 111.24 102.33 109.05 102.75 107.00 103.64 C 107.15 103.09 107.46 101.99 107.62 101.44 Z" />
<path fill="#fdfdfd" opacity="1.00" d=" M 70.07 103.30 C 70.75 102.01 71.71 101.83 72.94 102.77 L 73.19 103.53 L 72.86 104.28 C 71.43 105.12 70.50 104.80 70.07 103.30 Z" />
<path fill="#fdfdfd" opacity="1.00" d=" M 91.03 103.53 C 92.40 103.15 93.80 102.84 95.21 102.64 C 95.33 103.57 95.45 104.50 95.57 105.44 C 93.90 105.52 92.28 105.82 90.70 106.32 C 90.75 105.78 90.85 104.69 90.90 104.15 L 91.03 103.53 Z" />
<path fill="#fdfdfd" opacity="1.00" d=" M 98.24 104.58 C 98.02 101.64 101.59 102.63 103.38 102.48 C 103.57 102.89 103.94 103.70 104.12 104.11 C 102.31 105.05 100.18 104.45 98.24 104.58 Z" />
<path fill="#fdfdfd" opacity="1.00" d=" M 85.48 103.59 C 85.79 103.62 86.40 103.68 86.71 103.72 C 86.77 104.97 86.84 106.22 86.93 107.47 C 87.58 107.28 88.88 106.90 89.53 106.71 C 91.50 107.10 96.88 105.49 95.19 109.22 C 91.55 109.54 87.88 109.27 84.22 109.35 C 84.65 107.43 85.16 105.53 85.48 103.59 Z" />
<path fill="#fdfdfd" opacity="1.00" d=" M 98.58 105.79 C 104.33 106.17 109.58 103.10 115.31 103.33 C 115.33 104.27 115.38 106.15 115.40 107.09 C 109.80 108.13 104.24 109.87 98.47 109.42 C 98.50 108.51 98.55 106.70 98.58 105.79 Z" />
<path fill="#fdfdfd" opacity="1.00" d=" M 69.60 105.53 C 71.46 105.65 73.36 105.55 75.19 106.01 C 75.40 106.34 75.83 107.01 76.04 107.34 C 78.11 107.22 80.57 106.76 81.10 109.43 C 76.86 109.54 72.67 108.80 68.47 108.42 C 68.75 107.69 69.31 106.25 69.60 105.53 Z" />
<path fill="#fdfdfd" opacity="1.00" d=" M 120.51 110.75 C 126.04 109.87 130.82 106.79 136.05 105.07 C 137.65 107.33 133.38 109.00 132.04 110.62 C 131.60 110.54 130.73 110.39 130.30 110.32 C 129.67 110.15 128.42 109.82 127.80 109.66 C 127.30 110.92 126.81 112.19 126.31 113.46 C 124.43 114.40 122.55 115.33 120.58 116.04 C 120.54 114.28 120.52 112.51 120.51 110.75 Z" />
<path fill="#fdfdfd" opacity="1.00" d=" M 129.92 112.80 C 131.63 111.66 133.22 110.37 134.96 109.28 C 137.01 108.97 139.32 112.55 136.70 113.56 C 132.52 116.31 128.57 119.47 124.09 121.72 C 123.31 120.05 122.48 118.40 121.61 116.77 C 123.07 116.15 124.53 115.52 125.97 114.84 C 127.04 114.36 128.12 113.88 129.13 113.29 L 129.92 112.80 Z" />
<path fill="#fdfdfd" opacity="1.00" d=" M 101.57 116.66 C 106.94 115.20 112.40 113.96 117.43 111.49 C 117.44 113.13 117.44 114.76 117.43 116.40 C 117.08 116.85 116.37 117.74 116.02 118.19 C 114.76 118.14 113.81 118.59 113.16 119.54 L 112.35 119.20 C 110.70 118.30 108.39 117.54 107.47 119.84 C 107.14 120.23 106.48 121.03 106.16 121.43 C 104.63 121.47 103.09 121.51 101.57 121.55 C 101.57 119.92 101.57 118.29 101.57 116.66 Z" />
<path fill="#fdfdfd" opacity="1.00" d=" M 53.17 116.46 C 53.43 116.42 53.95 116.36 54.21 116.33 C 55.47 118.26 56.80 120.24 56.83 122.65 C 57.85 122.68 59.88 122.73 60.90 122.76 C 59.66 120.90 58.63 117.97 61.40 116.95 C 61.40 117.63 61.40 118.98 61.40 119.66 C 63.12 121.36 64.12 123.57 64.94 125.80 C 61.79 125.19 58.43 124.31 56.06 122.02 C 54.95 120.25 54.11 118.32 53.17 116.46 Z" />
<path fill="#fdfdfd" opacity="1.00" d=" M 65.18 118.34 C 66.88 118.63 68.53 119.13 70.16 119.66 C 69.39 120.09 68.62 120.52 67.85 120.95 C 68.01 121.67 68.33 123.12 68.49 123.85 C 69.29 123.71 70.89 123.45 71.69 123.32 C 72.35 124.67 73.00 126.04 73.64 127.40 C 71.90 127.15 70.16 126.84 68.42 126.57 C 68.57 124.53 67.22 122.77 67.63 120.72 C 66.23 120.57 65.66 119.46 65.18 118.34 Z" />
<path fill="#fdfdfd" opacity="1.00" d=" M 86.09 118.64 C 90.29 118.72 94.54 118.50 98.58 117.23 C 98.55 119.01 98.52 120.79 98.48 122.57 C 97.56 122.51 95.72 122.40 94.80 122.34 C 94.65 121.88 94.35 120.96 94.20 120.50 C 93.15 120.46 92.09 120.43 91.03 120.40 C 91.09 120.78 91.21 121.54 91.26 121.92 C 91.33 122.39 91.45 123.33 91.51 123.80 C 90.30 123.67 87.89 123.42 86.69 123.29 C 86.47 121.74 86.27 120.19 86.09 118.64 Z" />
<path fill="#fdfdfd" opacity="1.00" d=" M 74.24 119.51 C 76.98 119.50 79.72 119.44 82.46 119.55 C 82.47 120.32 82.50 121.87 82.52 122.65 C 81.32 121.73 80.08 120.85 78.86 119.97 C 78.11 121.16 77.37 122.36 76.64 123.57 C 78.85 123.68 81.05 123.83 83.26 124.00 C 83.40 124.98 83.70 126.93 83.85 127.91 C 81.98 127.78 80.11 127.67 78.26 127.40 C 76.87 126.11 75.73 124.54 76.75 122.62 C 76.22 122.25 75.16 121.51 74.63 121.14 C 74.53 120.74 74.34 119.92 74.24 119.51 Z" />
<path fill="#fdfdfd" opacity="1.00" d=" M 114.01 119.89 C 115.36 119.36 116.58 118.30 118.11 118.42 C 119.81 119.42 120.00 121.63 120.77 123.26 C 114.78 125.09 108.77 126.82 102.52 127.55 C 102.18 125.93 101.83 124.31 101.51 122.69 C 103.65 122.58 105.83 122.52 107.89 121.86 C 108.98 121.68 110.06 121.45 111.13 121.15 L 112.15 120.76 C 112.62 120.54 113.55 120.11 114.01 119.89 Z" />
<path fill="#fdfdfd" opacity="1.00" d=" M 92.29 124.03 C 93.03 123.98 94.52 123.87 95.26 123.82 C 96.04 123.77 97.60 123.67 98.38 123.61 C 98.54 124.91 98.68 126.20 98.81 127.50 C 95.88 127.72 92.96 128.25 90.02 128.24 C 88.33 128.54 87.03 127.22 86.57 125.74 C 87.53 123.94 90.06 125.10 91.69 124.35 L 92.29 124.03 Z" />
<path fill="#fdfdfd" opacity="1.00" d=" M 64.15 166.06 C 65.66 167.05 67.15 168.08 68.61 169.15 C 67.81 169.33 66.19 169.69 65.39 169.87 C 65.30 170.87 65.22 171.88 65.14 172.89 C 66.18 172.85 67.22 172.81 68.26 172.77 C 68.36 171.89 68.55 170.11 68.65 169.22 C 74.50 173.02 80.00 177.32 85.71 181.33 C 87.00 183.29 86.76 185.71 86.75 187.95 C 87.84 188.88 88.93 189.80 90.03 190.74 C 88.03 190.93 87.11 188.99 85.92 187.76 C 83.48 189.26 80.37 188.07 77.90 189.58 C 75.64 189.83 72.58 188.82 70.92 190.72 C 70.37 190.69 69.27 190.65 68.72 190.62 C 69.64 189.80 70.75 189.25 72.02 189.31 C 76.85 189.13 81.59 188.05 86.33 187.22 C 86.18 185.88 86.02 184.54 85.87 183.21 C 78.73 185.07 71.34 185.67 64.07 186.81 C 64.22 179.89 64.18 172.97 64.15 166.06 M 65.10 174.14 C 64.75 176.09 65.83 178.21 68.14 177.10 C 69.18 174.62 67.28 173.60 65.10 174.14 M 70.20 174.20 C 70.35 175.40 70.50 176.61 70.66 177.81 L 69.34 178.19 L 69.29 179.31 C 68.51 179.31 66.95 179.31 66.16 179.31 C 66.22 180.46 66.27 181.61 66.33 182.76 C 67.48 182.80 68.41 182.48 69.13 181.82 C 70.27 181.66 71.41 181.51 72.55 181.37 C 72.55 180.04 72.32 178.72 71.82 177.49 C 72.20 177.38 72.97 177.18 73.35 177.07 C 73.46 176.13 73.58 175.20 73.69 174.26 C 72.52 174.23 71.36 174.21 70.20 174.20 M 74.38 178.37 C 74.46 179.37 74.54 180.38 74.63 181.38 C 75.69 181.43 76.75 181.48 77.82 181.53 L 77.92 182.87 C 78.91 182.66 79.89 182.40 80.85 182.07 C 80.83 181.37 80.80 179.98 80.78 179.28 C 80.00 179.24 78.42 179.17 77.63 179.14 L 77.56 178.24 C 76.50 178.28 75.44 178.33 74.38 178.37 Z" />
<path fill="#fdfdfd" opacity="1.00" d=" M 105.46 176.59 C 111.25 173.58 117.11 170.68 122.94 167.73 C 123.26 167.76 123.90 167.81 124.22 167.83 C 117.92 170.80 111.54 173.73 105.57 177.33 C 103.16 178.51 104.87 181.08 105.79 182.64 C 108.01 180.49 110.93 179.43 113.64 178.07 C 114.29 179.02 114.92 180.01 115.75 180.83 C 117.16 179.59 118.39 178.05 116.17 176.82 C 116.98 176.42 117.80 176.01 118.61 175.60 C 118.09 178.04 119.75 178.98 121.94 178.05 C 121.69 176.80 121.40 175.56 121.06 174.33 C 121.96 173.87 122.87 173.41 123.78 172.96 C 123.83 178.99 123.84 185.02 123.78 191.05 C 117.58 188.97 111.66 186.12 105.81 183.24 C 105.19 184.71 104.15 186.23 104.66 187.91 C 111.31 189.97 117.18 194.13 123.92 196.10 C 123.19 196.14 122.46 196.18 121.73 196.22 C 119.21 194.56 116.45 193.31 113.58 192.37 C 110.39 191.16 107.66 188.63 104.09 188.56 C 102.65 189.18 101.73 190.73 100.05 190.79 C 101.26 189.65 102.48 188.51 103.68 187.35 C 103.41 185.41 103.38 183.46 103.60 181.53 C 102.85 179.63 101.83 177.85 100.78 176.10 C 102.19 177.35 104.02 178.54 105.46 176.59 M 109.24 180.98 C 109.27 181.65 109.31 182.98 109.34 183.64 C 110.34 183.55 111.35 183.46 112.36 183.38 C 112.39 182.40 112.42 181.42 112.46 180.44 C 111.38 180.44 110.12 180.15 109.24 180.98 M 116.01 182.39 C 113.67 182.13 113.15 183.70 113.30 185.80 C 115.06 185.28 116.80 184.70 118.51 184.05 C 118.53 184.68 118.56 185.94 118.58 186.57 C 119.63 186.62 120.68 186.67 121.73 186.72 C 121.73 185.54 121.73 184.36 121.72 183.19 C 121.23 183.29 120.25 183.49 119.76 183.60 C 119.61 182.74 119.32 181.04 119.17 180.18 C 117.86 180.61 116.80 181.34 116.01 182.39 Z" />
</g>
<g id="#000000ff">
<path fill="#000000" opacity="1.00" d=" M 102.32 35.37 L 102.76 35.49 C 104.05 36.10 105.44 36.44 106.88 36.42 C 112.57 36.31 118.27 36.07 123.96 36.45 C 124.23 36.72 124.78 37.25 125.05 37.51 C 126.64 37.47 128.24 37.34 129.82 37.12 C 135.89 36.06 142.02 37.16 148.05 37.94 C 151.12 39.83 153.60 42.58 156.93 44.13 C 158.00 45.35 159.03 46.60 160.09 47.82 C 160.92 49.39 161.92 50.85 163.16 52.12 C 164.78 56.28 166.57 60.36 168.83 64.21 C 168.96 64.53 169.23 65.15 169.36 65.46 C 170.49 65.86 171.64 66.24 172.76 66.68 C 176.23 70.15 179.86 73.67 182.17 78.05 C 182.93 82.29 182.68 86.71 182.34 91.00 C 179.89 97.40 174.02 101.49 169.86 106.68 C 167.22 111.42 165.17 116.51 161.81 120.83 C 161.56 121.06 161.06 121.52 160.81 121.75 C 152.29 129.53 142.38 135.77 131.55 139.79 C 123.88 142.85 116.77 147.09 109.27 150.52 C 106.25 152.09 102.64 151.43 99.61 152.97 C 99.61 153.29 99.60 153.94 99.59 154.26 C 99.78 161.55 99.64 168.85 99.69 176.15 C 96.57 176.27 93.45 176.28 90.33 176.21 C 90.40 170.35 90.25 164.50 90.46 158.64 C 90.39 157.47 90.59 155.55 88.94 155.40 C 86.36 155.60 83.90 156.44 81.38 156.92 C 74.01 158.01 66.53 156.96 59.12 157.38 C 52.96 157.34 46.74 155.05 42.46 150.52 C 40.55 148.35 39.20 145.77 37.82 143.25 C 37.64 139.91 37.49 136.52 38.04 133.20 C 38.36 131.58 38.70 129.96 38.91 128.32 C 38.79 125.20 37.91 122.13 38.52 119.01 C 38.32 113.78 37.66 108.43 38.63 103.24 C 39.50 110.66 38.17 118.25 39.34 125.61 C 40.39 125.21 39.68 123.06 39.94 122.07 C 39.78 115.76 40.14 109.43 39.74 103.12 C 38.59 97.59 34.89 93.06 33.20 87.72 C 33.10 87.28 32.90 86.42 32.81 85.98 C 32.71 82.65 32.61 79.30 32.80 75.97 C 32.99 73.78 34.72 72.00 34.55 69.75 C 34.70 69.53 35.01 69.11 35.16 68.89 C 38.03 67.79 40.82 66.09 42.66 63.57 C 43.83 61.49 40.80 61.28 40.14 59.93 C 40.41 58.12 43.02 58.28 43.72 56.76 C 44.68 54.30 45.97 51.99 47.37 49.76 C 47.11 49.47 46.58 48.90 46.32 48.62 C 46.38 46.45 49.05 48.13 50.27 47.28 C 52.57 46.94 54.59 45.70 56.29 44.17 C 56.73 43.88 57.61 43.31 58.06 43.03 C 63.05 41.15 68.48 40.98 73.58 39.42 C 80.58 38.07 87.71 37.74 94.83 37.53 C 97.24 36.64 100.64 37.60 102.32 35.37 M 98.77 39.84 C 99.98 41.13 101.42 41.70 103.11 41.55 C 110.01 40.89 117.00 41.09 123.88 41.80 C 124.12 41.91 124.59 42.14 124.83 42.26 C 130.85 43.41 136.33 46.43 141.41 49.76 C 140.83 49.82 139.68 49.94 139.11 50.00 C 137.58 48.71 135.90 47.64 134.11 46.77 C 131.75 45.85 129.44 44.83 127.12 43.85 C 112.36 38.82 97.01 44.10 81.97 43.75 C 76.31 43.94 70.42 42.28 64.94 44.31 C 64.71 44.16 64.25 43.85 64.02 43.70 L 62.26 44.32 L 62.73 44.63 C 56.47 47.56 48.83 50.47 46.09 57.41 C 48.72 57.46 51.35 57.52 53.98 57.53 C 55.92 58.24 56.39 56.06 56.78 54.77 C 56.81 55.56 56.87 57.15 56.90 57.95 L 58.62 57.40 C 58.66 58.51 58.71 59.62 58.79 60.73 C 57.72 66.06 60.61 70.77 62.70 75.42 C 68.61 79.09 75.82 78.52 82.51 78.58 C 83.00 77.34 83.45 76.08 83.83 74.80 C 77.79 71.18 70.48 71.27 63.67 71.29 C 62.46 70.24 61.28 69.15 60.11 68.06 C 62.30 66.67 64.08 63.93 66.96 64.18 C 70.60 64.11 74.28 64.00 77.86 64.71 C 81.47 65.68 84.34 68.22 86.96 70.76 C 92.01 69.06 91.37 62.78 91.37 58.49 C 91.37 57.70 91.37 56.11 91.37 55.31 C 91.96 55.32 93.14 55.35 93.73 55.36 C 94.11 55.85 94.87 56.83 95.25 57.32 L 94.44 57.24 C 94.40 60.85 94.73 64.46 94.34 68.06 C 93.76 72.23 90.09 74.92 88.96 78.87 C 86.24 82.51 82.35 84.82 79.24 88.02 C 81.16 91.21 83.76 93.92 87.00 95.79 C 88.02 94.99 89.05 94.20 90.07 93.41 C 90.39 93.67 91.02 94.20 91.34 94.46 C 91.36 94.98 91.41 96.02 91.44 96.55 C 90.27 97.77 88.89 98.92 87.07 98.51 C 82.38 98.61 79.68 94.26 77.08 91.05 C 75.36 92.61 73.89 92.58 73.05 90.28 C 69.85 91.07 66.98 92.70 63.94 93.90 C 65.61 90.60 70.10 91.02 72.42 88.43 C 74.98 85.89 77.98 83.87 80.86 81.72 C 77.17 81.60 73.48 81.51 69.79 81.73 C 66.52 83.47 62.74 84.07 59.09 83.38 C 58.53 82.11 57.92 80.86 57.30 79.62 C 55.18 79.02 53.02 78.62 50.81 78.61 C 49.11 79.80 47.37 80.93 45.51 81.85 C 44.11 78.89 46.67 77.06 48.80 75.56 C 52.18 75.52 55.58 75.61 58.88 76.45 C 57.84 74.57 56.10 72.83 56.37 70.50 C 54.89 69.97 53.33 69.72 51.80 69.42 C 53.06 69.22 54.33 68.99 55.59 68.74 C 55.53 66.03 55.62 63.32 55.65 60.61 C 52.71 60.57 49.78 60.59 46.84 60.70 C 46.44 61.64 46.02 62.57 45.59 63.50 C 43.74 68.44 37.48 69.79 35.97 75.00 C 33.56 76.36 37.83 79.78 37.77 76.51 C 38.63 73.26 41.98 71.98 44.07 69.66 C 44.50 69.88 45.35 70.32 45.78 70.54 C 42.32 73.00 37.81 75.37 37.29 80.09 C 36.88 79.27 35.79 79.25 35.08 78.82 C 38.63 80.98 33.57 83.35 35.24 86.26 C 35.50 86.48 36.01 86.92 36.27 87.14 L 35.64 87.90 C 36.53 89.73 37.38 91.65 38.94 93.02 C 40.80 96.41 42.90 99.96 42.64 103.99 C 42.52 111.97 42.88 119.96 42.40 127.93 C 41.50 132.28 40.90 136.70 40.83 141.14 C 42.81 148.16 49.16 153.05 56.15 154.46 C 65.74 156.45 75.64 155.31 85.06 152.94 C 92.28 151.84 99.01 148.42 106.36 148.26 C 114.70 144.44 122.63 139.73 131.21 136.45 C 137.80 134.12 143.74 130.33 149.62 126.62 C 156.09 121.78 162.74 116.13 165.13 108.10 C 165.88 104.64 170.60 103.33 170.37 99.68 C 171.73 98.98 173.40 98.67 174.43 97.47 C 177.06 94.04 179.71 90.41 180.29 85.99 C 181.01 79.31 175.89 73.94 171.42 69.69 C 171.22 68.42 169.66 68.65 168.78 68.20 C 167.89 67.21 167.02 66.21 166.08 65.27 C 164.58 62.95 162.97 60.71 161.30 58.52 C 156.25 58.58 151.21 58.54 146.17 58.52 C 146.15 59.11 146.12 60.30 146.10 60.89 C 145.94 60.59 145.62 59.99 145.46 59.69 C 143.90 58.90 142.26 58.35 140.48 58.45 C 140.69 59.08 141.10 60.34 141.31 60.97 C 140.09 64.27 141.31 67.87 140.11 71.15 C 139.45 73.30 138.75 75.45 138.42 77.68 C 142.40 75.86 146.67 74.74 150.58 72.74 C 153.15 71.25 156.21 71.80 159.04 71.80 C 168.35 72.20 174.26 84.51 169.14 92.14 C 168.37 93.21 167.57 95.72 165.76 94.40 C 164.47 90.49 169.04 87.08 167.52 83.02 C 166.16 80.12 164.25 77.29 161.47 75.59 C 158.74 74.94 155.81 75.13 153.04 75.44 C 148.08 78.29 142.56 80.22 136.85 80.72 C 134.23 82.54 131.79 84.76 128.64 85.63 C 125.73 85.67 122.81 85.56 119.90 85.72 C 118.00 86.45 116.05 86.81 114.08 86.16 C 114.13 88.40 114.17 90.64 114.16 92.88 C 112.58 94.52 110.30 95.44 108.12 94.34 C 108.58 91.96 112.48 90.63 111.01 87.93 C 108.56 86.49 105.00 87.32 103.12 84.81 C 104.72 84.25 106.36 83.78 108.03 83.46 C 105.34 81.25 103.75 78.06 101.12 75.81 C 99.96 71.11 97.88 66.71 96.83 61.97 C 96.67 60.46 96.56 58.95 96.44 57.44 C 96.57 56.65 96.82 55.08 96.95 54.30 C 97.64 54.29 99.02 54.29 99.71 54.29 C 99.67 55.11 99.59 56.75 99.55 57.57 C 100.80 60.93 101.31 64.52 102.79 67.80 C 105.83 65.78 108.55 63.19 111.99 61.82 C 117.81 59.41 124.23 60.65 130.33 60.76 C 132.70 61.90 135.01 63.24 137.59 63.86 C 137.56 61.67 137.50 59.48 137.30 57.30 C 131.99 58.86 126.42 58.33 120.96 58.48 C 116.98 58.40 112.91 58.84 109.02 57.84 C 114.26 58.85 119.63 58.27 124.93 58.43 C 127.12 58.27 129.63 58.80 131.46 57.29 C 133.34 57.12 135.24 57.10 137.13 57.11 C 137.23 56.42 137.44 55.06 137.54 54.37 C 138.73 54.39 139.93 54.41 141.13 54.42 C 141.13 52.88 141.19 51.33 141.50 49.81 C 143.69 51.17 146.10 52.35 147.80 54.36 C 151.92 56.19 156.53 55.19 160.89 55.40 C 157.40 48.80 152.46 42.27 145.08 39.84 C 139.05 39.77 133.02 39.23 126.98 39.36 C 117.58 39.46 108.12 38.70 98.77 39.84 M 76.63 41.53 C 76.46 41.93 76.10 42.71 75.93 43.10 C 83.53 43.41 91.12 42.46 98.72 42.16 C 98.61 41.57 98.40 40.41 98.29 39.82 C 91.08 40.25 83.86 41.10 76.63 41.53 M 141.42 55.37 C 143.19 55.41 144.95 55.44 146.72 55.48 L 146.76 53.77 C 145.32 53.13 144.05 52.25 142.93 51.13 C 142.12 52.41 140.95 53.67 141.42 55.37 M 106.22 69.88 C 106.78 72.08 109.50 71.61 110.92 70.70 C 113.75 69.30 116.67 68.10 119.79 67.50 C 119.34 66.09 118.86 64.69 118.40 63.29 C 113.94 64.60 109.51 66.50 106.22 69.88 M 66.09 67.33 C 68.05 68.59 71.71 69.36 72.86 66.77 C 70.59 66.71 68.29 66.73 66.09 67.33 M 131.99 66.36 C 133.00 68.17 134.87 68.54 136.81 68.34 C 135.62 66.81 133.93 66.15 131.99 66.36 M 116.81 71.83 C 113.50 72.96 110.65 75.40 107.08 75.66 C 108.68 78.80 111.50 81.08 115.22 80.73 C 115.34 81.19 115.58 82.13 115.70 82.59 C 120.81 82.78 126.37 83.28 130.76 80.10 C 128.18 77.87 122.80 76.45 123.31 72.36 C 127.20 71.31 129.23 76.65 133.15 76.68 C 134.02 75.38 134.94 74.12 135.87 72.87 C 134.49 71.12 132.19 70.65 130.10 70.47 C 125.65 70.19 120.97 69.92 116.81 71.83 Z" />
<path fill="#000000" opacity="1.00" d=" M 103.67 57.28 C 104.40 57.28 105.86 57.30 106.59 57.30 C 106.37 58.85 106.19 60.51 104.62 61.28 C 104.29 59.95 103.98 58.61 103.67 57.28 Z" />
<path fill="#000000" opacity="1.00" d=" M 83.37 58.51 C 83.89 58.51 84.94 58.50 85.47 58.50 C 85.43 61.11 85.23 63.72 84.74 66.28 C 84.40 63.68 84.04 61.06 83.37 58.51 Z" />
<path fill="#000000" opacity="1.00" d=" M 143.00 67.04 C 145.17 66.56 147.24 68.58 149.58 67.86 C 149.52 68.21 149.38 68.92 149.32 69.28 C 147.66 70.78 144.04 69.66 144.42 72.75 C 143.92 72.58 142.93 72.25 142.43 72.09 C 144.52 71.22 146.35 67.67 143.00 67.04 Z" />
<path fill="#000000" opacity="1.00" d=" M 41.62 76.32 C 43.52 74.27 46.14 73.10 48.84 72.51 C 46.88 74.09 44.76 75.44 42.71 76.89 C 42.66 79.52 42.08 82.14 42.26 84.77 C 43.11 86.62 45.20 87.41 46.78 88.53 C 45.86 88.63 44.94 88.73 44.02 88.83 C 43.13 87.87 42.24 86.93 41.34 85.98 C 41.44 82.76 41.62 79.54 41.62 76.32 Z" />
<path fill="#000000" opacity="1.00" d=" M 152.39 81.29 C 153.51 79.96 154.13 78.27 155.03 76.79 C 156.68 78.91 157.02 81.63 158.00 84.06 C 160.44 85.52 164.32 85.19 165.45 88.28 C 163.98 88.69 162.51 89.07 161.03 89.43 C 160.23 88.99 159.44 88.55 158.64 88.13 C 157.80 90.04 155.62 92.06 157.57 94.04 C 153.90 96.75 152.30 101.23 149.46 104.67 C 143.82 112.93 135.70 119.08 127.12 124.02 C 122.15 126.33 116.86 127.94 111.62 129.48 C 101.77 130.50 91.87 131.74 81.96 131.20 C 72.53 129.87 62.07 130.88 53.96 124.97 C 48.35 117.66 48.14 107.80 49.17 98.99 C 49.58 94.98 48.90 89.90 52.42 87.08 C 52.37 84.82 52.78 81.76 55.73 82.01 C 55.77 84.05 55.75 86.09 55.69 88.12 C 57.78 94.33 64.19 96.91 69.70 99.27 C 71.47 99.45 73.25 99.63 75.02 99.87 C 82.20 101.66 89.69 100.28 96.94 99.62 C 100.34 99.53 103.66 98.69 106.94 97.85 C 122.50 93.63 138.38 89.55 152.39 81.29 M 146.17 88.44 C 145.89 88.62 145.33 88.98 145.04 89.16 C 143.37 89.50 141.81 90.22 140.29 90.98 C 140.67 91.44 141.42 92.37 141.80 92.83 C 140.22 94.40 139.74 96.59 139.47 98.72 C 143.34 97.44 146.91 95.41 150.59 93.67 C 153.44 92.57 154.01 89.23 155.49 86.88 C 155.17 86.23 154.52 84.94 154.20 84.29 C 151.52 85.67 148.80 86.97 146.17 88.44 M 51.92 98.88 C 53.24 97.14 54.24 95.20 54.97 93.14 C 51.39 92.88 52.92 96.73 51.92 98.88 M 124.76 95.67 C 122.41 97.02 119.78 97.74 117.25 98.65 C 117.38 99.13 117.64 100.09 117.77 100.57 C 120.93 100.69 123.94 99.06 125.78 96.53 C 126.68 96.56 128.49 96.62 129.39 96.65 C 129.84 97.23 130.28 97.81 130.73 98.39 C 130.00 98.43 128.53 98.52 127.80 98.56 C 124.69 99.88 121.57 101.34 118.20 101.85 C 118.34 102.73 118.60 104.50 118.74 105.38 C 122.33 105.14 125.41 102.48 129.05 101.94 C 132.64 101.80 134.57 98.53 137.06 96.45 C 136.05 96.44 134.04 96.42 133.03 96.42 C 133.43 94.22 136.31 95.07 137.11 93.20 C 132.85 93.30 129.05 95.66 124.76 95.67 M 56.66 96.31 C 55.76 98.95 54.92 101.60 54.14 104.28 C 55.29 104.90 56.43 105.51 57.59 106.09 C 57.34 102.92 57.71 99.78 58.60 96.73 C 58.12 96.63 57.14 96.41 56.66 96.31 M 147.00 100.26 C 144.37 100.03 142.25 101.35 140.35 102.99 C 140.56 103.71 140.80 104.43 141.01 105.15 C 139.11 106.06 138.50 109.15 141.06 109.62 C 142.20 108.44 143.25 107.18 144.33 105.96 C 145.18 104.90 145.96 103.80 146.68 102.66 C 147.38 101.68 148.08 100.69 148.77 99.70 C 148.97 99.31 149.38 98.51 149.58 98.11 C 148.69 98.80 147.84 99.52 147.00 100.26 M 60.43 102.98 C 60.86 104.43 61.28 105.88 61.67 107.34 C 62.97 107.86 64.28 108.37 65.58 108.89 C 65.69 106.49 65.42 103.91 66.82 101.80 C 65.94 101.31 65.07 100.82 64.20 100.34 C 62.51 97.71 59.59 100.42 60.43 102.98 M 107.62 101.44 C 106.03 101.31 104.62 101.66 103.38 102.48 C 101.59 102.63 98.02 101.64 98.24 104.58 C 100.18 104.45 102.31 105.05 104.12 104.11 C 104.79 104.16 106.14 104.28 106.81 104.34 L 107.00 103.64 C 109.05 102.75 111.24 102.33 113.47 102.72 C 113.67 102.08 114.07 100.80 114.27 100.16 C 112.08 100.40 109.40 99.88 107.62 101.44 M 70.07 103.30 C 70.50 104.80 71.43 105.12 72.86 104.28 L 73.19 103.53 C 73.28 103.80 73.45 104.33 73.53 104.60 C 73.95 104.95 74.78 105.66 75.19 106.01 C 73.36 105.55 71.46 105.65 69.60 105.53 C 69.31 106.25 68.75 107.69 68.47 108.42 C 72.67 108.80 76.86 109.54 81.10 109.43 C 81.81 108.22 81.20 107.22 80.29 106.35 C 81.08 105.55 81.61 104.61 81.89 103.54 C 80.21 103.60 78.54 103.67 76.86 103.76 L 77.01 102.59 C 75.65 102.64 74.30 102.70 72.94 102.77 C 71.71 101.83 70.75 102.01 70.07 103.30 M 91.03 103.53 C 89.59 103.61 88.15 103.67 86.71 103.72 C 86.40 103.68 85.79 103.62 85.48 103.59 C 85.16 105.53 84.65 107.43 84.22 109.35 C 87.88 109.27 91.55 109.54 95.19 109.22 C 96.88 105.49 91.50 107.10 89.53 106.71 C 90.04 105.88 90.49 105.03 90.90 104.15 C 90.85 104.69 90.75 105.78 90.70 106.32 C 92.28 105.82 93.90 105.52 95.57 105.44 C 95.45 104.50 95.33 103.57 95.21 102.64 C 93.80 102.84 92.40 103.15 91.03 103.53 M 98.58 105.79 C 98.55 106.70 98.50 108.51 98.47 109.42 C 104.24 109.87 109.80 108.13 115.40 107.09 C 115.38 106.15 115.33 104.27 115.31 103.33 C 109.58 103.10 104.33 106.17 98.58 105.79 M 120.51 110.75 C 120.52 112.51 120.54 114.28 120.58 116.04 C 122.55 115.33 124.43 114.40 126.31 113.46 C 127.02 113.42 128.43 113.33 129.13 113.29 C 128.12 113.88 127.04 114.36 125.97 114.84 C 124.53 115.52 123.07 116.15 121.61 116.77 C 122.48 118.40 123.31 120.05 124.09 121.72 C 128.57 119.47 132.52 116.31 136.70 113.56 C 139.32 112.55 137.01 108.97 134.96 109.28 C 133.22 110.37 131.63 111.66 129.92 112.80 C 130.02 112.18 130.20 110.94 130.30 110.32 C 130.73 110.39 131.60 110.54 132.04 110.62 C 133.38 109.00 137.65 107.33 136.05 105.07 C 130.82 106.79 126.04 109.87 120.51 110.75 M 101.57 116.66 C 101.57 118.29 101.57 119.92 101.57 121.55 C 103.09 121.51 104.63 121.47 106.16 121.43 C 106.48 121.03 107.14 120.23 107.47 119.84 L 107.43 121.52 C 108.35 121.43 110.20 121.24 111.13 121.15 C 110.06 121.45 108.98 121.68 107.89 121.86 C 105.83 122.52 103.65 122.58 101.51 122.69 C 101.83 124.31 102.18 125.93 102.52 127.55 C 108.77 126.82 114.78 125.09 120.77 123.26 C 120.00 121.63 119.81 119.42 118.11 118.42 C 116.58 118.30 115.36 119.36 114.01 119.89 C 113.55 120.11 112.62 120.54 112.15 120.76 C 112.20 120.37 112.30 119.59 112.35 119.20 L 113.16 119.54 C 113.81 118.59 114.76 118.14 116.02 118.19 C 116.37 117.74 117.08 116.85 117.43 116.40 C 117.44 114.76 117.44 113.13 117.43 111.49 C 112.40 113.96 106.94 115.20 101.57 116.66 M 53.17 116.46 C 54.11 118.32 54.95 120.25 56.06 122.02 C 58.43 124.31 61.79 125.19 64.94 125.80 C 64.12 123.57 63.12 121.36 61.40 119.66 C 61.40 118.98 61.40 117.63 61.40 116.95 C 58.63 117.97 59.66 120.90 60.90 122.76 C 59.88 122.73 57.85 122.68 56.83 122.65 C 56.80 120.24 55.47 118.26 54.21 116.33 C 53.95 116.36 53.43 116.42 53.17 116.46 M 65.18 118.34 C 65.66 119.46 66.23 120.57 67.63 120.72 C 67.22 122.77 68.57 124.53 68.42 126.57 C 70.16 126.84 71.90 127.15 73.64 127.40 C 73.00 126.04 72.35 124.67 71.69 123.32 C 71.52 121.92 71.34 120.53 71.11 119.14 L 70.16 119.66 C 68.53 119.13 66.88 118.63 65.18 118.34 M 86.09 118.64 C 86.27 120.19 86.47 121.74 86.69 123.29 C 87.89 123.42 90.30 123.67 91.51 123.80 C 91.45 123.33 91.33 122.39 91.26 121.92 L 91.49 122.60 C 91.69 122.96 92.09 123.67 92.29 124.03 L 91.69 124.35 C 90.06 125.10 87.53 123.94 86.57 125.74 C 87.03 127.22 88.33 128.54 90.02 128.24 C 92.96 128.25 95.88 127.72 98.81 127.50 C 98.68 126.20 98.54 124.91 98.38 123.61 C 97.60 123.67 96.04 123.77 95.26 123.82 C 95.14 123.45 94.91 122.71 94.80 122.34 C 95.72 122.40 97.56 122.51 98.48 122.57 C 98.52 120.79 98.55 119.01 98.58 117.23 C 94.54 118.50 90.29 118.72 86.09 118.64 M 74.24 119.51 C 74.34 119.92 74.53 120.74 74.63 121.14 C 75.16 121.51 76.22 122.25 76.75 122.62 C 75.73 124.54 76.87 126.11 78.26 127.40 C 78.52 127.72 79.03 128.36 79.29 128.68 C 80.86 128.66 82.43 128.65 84.01 128.64 C 84.38 126.58 84.56 123.92 82.52 122.65 C 82.50 121.87 82.47 120.32 82.46 119.55 C 79.72 119.44 76.98 119.50 74.24 119.51 Z" />
<path fill="#000000" opacity="1.00" d=" M 95.36 90.63 C 98.85 88.71 102.84 89.14 106.65 89.31 C 107.05 90.84 107.15 92.42 106.52 93.90 C 104.33 92.99 102.29 91.61 99.83 92.66 C 98.37 93.36 96.80 92.63 95.33 92.40 C 95.34 91.96 95.35 91.07 95.36 90.63 Z" />
<path fill="#000000" opacity="1.00" d=" M 90.18 190.89 C 93.39 190.78 96.61 190.71 99.83 190.93 C 99.73 193.03 99.68 195.14 99.62 197.25 C 96.56 197.24 93.51 197.24 90.45 197.26 C 90.37 195.14 90.30 193.01 90.18 190.89 Z" />
</g>
<g id="#5f5e65f7">
<path fill="#5f5e65" opacity="0.97" d=" M 129.82 37.12 C 130.18 36.78 130.90 36.11 131.25 35.77 C 135.90 36.37 140.59 36.40 145.25 36.77 C 146.55 36.90 147.85 37.05 149.15 37.15 C 149.31 38.74 150.91 40.01 152.50 39.51 C 153.86 41.16 155.59 42.46 156.93 44.13 C 153.60 42.58 151.12 39.83 148.05 37.94 C 142.02 37.16 135.89 36.06 129.82 37.12 Z" />
<path fill="#5f5e65" opacity="0.97" d=" M 62.26 44.32 L 64.02 43.70 C 64.25 43.85 64.71 44.16 64.94 44.31 C 64.86 44.59 64.69 45.16 64.61 45.45 C 77.67 47.03 91.20 48.65 104.09 45.05 C 114.37 43.69 124.98 45.64 134.43 49.83 C 132.79 50.01 131.14 50.10 129.50 50.13 C 123.95 47.80 117.90 47.06 111.94 46.83 C 103.55 46.52 95.44 49.33 87.08 49.34 C 80.08 49.24 73.13 48.23 66.15 47.79 C 64.11 48.33 62.14 49.11 60.10 49.65 C 61.31 48.08 62.78 46.71 64.57 45.81 C 63.96 45.41 63.34 45.02 62.73 44.63 L 62.26 44.32 Z" />
<path fill="#5f5e65" opacity="0.97" d=" M 166.08 65.27 C 167.02 66.21 167.89 67.21 168.78 68.20 C 169.66 68.65 171.22 68.42 171.42 69.69 L 171.75 70.43 C 172.98 73.35 176.22 75.49 175.78 78.96 C 175.69 83.36 176.23 87.90 175.06 92.18 C 173.70 96.52 168.95 98.27 164.83 98.71 C 166.90 96.35 170.08 95.55 172.39 93.53 C 174.75 89.46 174.23 84.52 174.26 80.00 C 174.60 75.98 171.04 73.40 168.93 70.46 C 168.43 70.43 167.44 70.38 166.95 70.35 C 164.97 67.53 161.04 69.04 158.14 68.58 C 158.31 68.13 158.65 67.24 158.82 66.79 C 161.50 66.78 164.17 66.79 166.85 66.76 L 166.08 65.27 Z" />
<path fill="#5f5e65" opacity="0.97" d=" M 35.08 78.82 C 35.79 79.25 36.88 79.27 37.29 80.09 C 37.76 82.71 37.87 85.50 39.10 87.91 C 40.90 91.58 46.34 90.84 47.95 94.74 C 44.35 93.85 41.04 92.16 37.86 90.31 C 38.13 90.99 38.67 92.34 38.94 93.02 C 37.38 91.65 36.53 89.73 35.64 87.90 L 36.27 87.14 C 37.18 86.28 37.36 85.33 36.81 84.28 C 35.76 84.25 35.24 84.91 35.24 86.26 C 33.57 83.35 38.63 80.98 35.08 78.82 Z" />
<path fill="#5f5e65" opacity="0.97" d=" M 146.17 88.44 C 148.63 88.55 150.83 87.34 153.14 86.73 C 154.39 89.29 150.31 89.96 148.63 90.73 C 148.34 91.11 147.78 91.87 147.50 92.25 C 145.77 92.39 144.03 92.54 142.31 92.69 C 143.20 91.50 144.11 90.33 145.04 89.16 C 145.33 88.98 145.89 88.62 146.17 88.44 Z" />
<path fill="#5f5e65" opacity="0.97" d=" M 60.43 102.98 C 59.59 100.42 62.51 97.71 64.20 100.34 C 64.37 100.86 64.71 101.91 64.87 102.44 C 63.39 102.61 61.91 102.80 60.43 102.98 Z" />
<path fill="#5f5e65" opacity="0.97" d=" M 103.38 102.48 C 104.62 101.66 106.03 101.31 107.62 101.44 C 107.46 101.99 107.15 103.09 107.00 103.64 L 106.81 104.34 C 106.14 104.28 104.79 104.16 104.12 104.11 C 103.94 103.70 103.57 102.89 103.38 102.48 Z" />
<path fill="#5f5e65" opacity="0.97" d=" M 72.94 102.77 C 74.30 102.70 75.65 102.64 77.01 102.59 L 76.86 103.76 C 76.34 104.53 75.79 105.29 75.19 106.01 C 74.78 105.66 73.95 104.95 73.53 104.60 C 73.45 104.33 73.28 103.80 73.19 103.53 L 72.94 102.77 Z" />
<path fill="#5f5e65" opacity="0.97" d=" M 142.05 101.96 C 143.17 101.79 145.42 101.43 146.55 101.25 L 146.68 102.66 C 145.96 103.80 145.18 104.90 144.33 105.96 C 143.55 104.64 142.79 103.31 142.05 101.96 Z" />
<path fill="#5f5e65" opacity="0.97" d=" M 86.71 103.72 C 88.15 103.67 89.59 103.61 91.03 103.53 L 90.90 104.15 C 90.49 105.03 90.04 105.88 89.53 106.71 C 88.88 106.90 87.58 107.28 86.93 107.47 C 86.84 106.22 86.77 104.97 86.71 103.72 Z" />
<path fill="#5f5e65" opacity="0.97" d=" M 126.31 113.46 C 126.81 112.19 127.30 110.92 127.80 109.66 C 128.42 109.82 129.67 110.15 130.30 110.32 C 130.20 110.94 130.02 112.18 129.92 112.80 L 129.13 113.29 C 128.43 113.33 127.02 113.42 126.31 113.46 Z" />
<path fill="#5f5e65" opacity="0.97" d=" M 107.47 119.84 C 108.39 117.54 110.70 118.30 112.35 119.20 C 112.30 119.59 112.20 120.37 112.15 120.76 L 111.13 121.15 C 110.20 121.24 108.35 121.43 107.43 121.52 L 107.47 119.84 Z" />
<path fill="#5f5e65" opacity="0.97" d=" M 70.16 119.66 L 71.11 119.14 C 71.34 120.53 71.52 121.92 71.69 123.32 C 70.89 123.45 69.29 123.71 68.49 123.85 C 68.33 123.12 68.01 121.67 67.85 120.95 C 68.62 120.52 69.39 120.09 70.16 119.66 Z" />
<path fill="#5f5e65" opacity="0.97" d=" M 91.03 120.40 C 92.09 120.43 93.15 120.46 94.20 120.50 C 94.35 120.96 94.65 121.88 94.80 122.34 C 94.91 122.71 95.14 123.45 95.26 123.82 C 94.52 123.87 93.03 123.98 92.29 124.03 C 92.09 123.67 91.69 122.96 91.49 122.60 L 91.26 121.92 C 91.21 121.54 91.09 120.78 91.03 120.40 Z" />
<path fill="#5f5e65" opacity="0.97" d=" M 76.64 123.57 C 77.37 122.36 78.11 121.16 78.86 119.97 C 80.08 120.85 81.32 121.73 82.52 122.65 C 84.56 123.92 84.38 126.58 84.01 128.64 C 82.43 128.65 80.86 128.66 79.29 128.68 C 79.03 128.36 78.52 127.72 78.26 127.40 C 80.11 127.67 81.98 127.78 83.85 127.91 C 83.70 126.93 83.40 124.98 83.26 124.00 C 81.05 123.83 78.85 123.68 76.64 123.57 Z" />
<path fill="#5f5e65" opacity="0.97" d=" M 133.70 125.60 C 136.65 124.16 139.56 122.04 143.02 122.42 C 141.15 124.63 138.06 125.12 135.68 126.62 C 126.98 131.64 117.34 134.58 107.93 137.95 C 98.82 140.49 89.24 138.95 79.96 140.22 C 73.45 140.48 66.42 140.70 60.57 137.37 C 58.13 135.87 55.24 134.08 54.96 130.93 C 57.91 132.58 60.01 135.48 63.24 136.63 C 69.74 139.48 77.01 138.52 83.89 138.38 C 92.23 137.17 100.97 138.79 109.01 135.74 C 117.42 132.83 125.84 129.80 133.70 125.60 Z" />
<path fill="#5f5e65" opacity="0.97" d=" M 110.97 138.36 C 124.92 135.64 137.31 128.43 149.87 122.16 C 149.47 124.73 146.73 125.55 144.82 126.79 C 137.30 130.82 129.50 134.42 121.49 137.37 C 101.05 143.02 79.64 146.13 58.45 144.42 C 54.73 142.74 51.08 140.67 48.03 137.94 C 47.57 136.05 46.72 133.37 49.27 132.62 C 49.60 134.52 48.81 137.25 51.10 138.18 C 55.07 140.53 59.04 143.89 63.95 143.46 C 69.65 143.11 75.42 143.93 81.06 142.79 C 84.38 142.19 87.77 142.54 91.11 142.24 C 97.79 141.25 104.30 139.44 110.97 138.36 Z" />
<path fill="#5f5e65" opacity="0.97" d=" M 72.96 134.62 C 77.23 133.45 81.67 133.89 86.03 133.88 C 90.44 133.92 94.91 133.47 99.22 134.60 C 97.31 135.66 95.09 135.47 92.99 135.48 C 87.31 135.39 81.63 135.58 75.96 135.42 C 74.89 135.47 73.91 135.02 72.96 134.62 Z" />
</g>
<g id="#823f0fff">
<path fill="#823f0f" opacity="1.00" d=" M 83.99 50.97 C 91.93 49.60 100.02 50.78 108.00 49.82 C 115.18 48.96 122.32 50.97 129.50 50.13 C 131.14 50.10 132.79 50.01 134.43 49.83 C 135.97 50.10 137.55 50.18 139.11 50.00 C 139.68 49.94 140.83 49.82 141.41 49.76 L 141.50 49.81 C 141.19 51.33 141.13 52.88 141.13 54.42 C 139.93 54.41 138.73 54.39 137.54 54.37 C 137.44 55.06 137.23 56.42 137.13 57.11 C 135.24 57.10 133.34 57.12 131.46 57.29 C 129.63 58.80 127.12 58.27 124.93 58.43 C 119.63 58.27 114.26 58.85 109.02 57.84 C 108.21 57.65 107.40 57.47 106.59 57.30 C 105.86 57.30 104.40 57.28 103.67 57.28 C 102.30 57.36 100.92 57.46 99.55 57.57 C 99.59 56.75 99.67 55.11 99.71 54.29 C 99.02 54.29 97.64 54.29 96.95 54.30 C 96.82 55.08 96.57 56.65 96.44 57.44 C 96.14 57.41 95.55 57.35 95.25 57.32 C 94.87 56.83 94.11 55.85 93.73 55.36 C 93.14 55.35 91.96 55.32 91.37 55.31 C 91.37 56.11 91.37 57.70 91.37 58.49 C 89.40 58.50 87.43 58.51 85.47 58.50 C 84.94 58.50 83.89 58.51 83.37 58.51 C 79.16 58.68 75.27 60.72 71.03 60.57 C 66.94 60.45 62.86 61.18 58.79 60.73 C 58.71 59.62 58.66 58.51 58.62 57.40 L 56.90 57.95 C 56.87 57.15 56.81 55.56 56.78 54.77 L 56.96 53.87 C 60.28 53.20 63.71 53.21 66.96 52.21 C 72.48 50.37 78.34 51.88 83.99 50.97 Z" />
</g>
<g id="#1cdd52fd">
<path fill="#1cdd52" opacity="1.00" d=" M 60.75 161.58 C 63.07 161.46 65.39 161.40 67.72 161.36 C 73.75 166.89 80.57 171.44 87.20 176.22 C 87.17 176.89 87.12 178.22 87.09 178.88 C 86.75 179.49 86.06 180.72 85.71 181.33 C 80.00 177.32 74.50 173.02 68.65 169.22 L 68.66 169.14 L 68.61 169.15 C 67.15 168.08 65.66 167.05 64.15 166.06 C 64.18 172.97 64.22 179.89 64.07 186.81 C 71.34 185.67 78.73 185.07 85.87 183.21 C 86.02 184.54 86.18 185.88 86.33 187.22 C 81.59 188.05 76.85 189.13 72.02 189.31 C 70.75 189.25 69.64 189.80 68.72 190.62 C 66.24 190.46 62.75 191.62 60.87 190.16 C 60.65 180.64 60.92 171.10 60.75 161.58 Z" />
<path fill="#1cdd52" opacity="1.00" d=" M 124.22 167.83 C 125.23 167.40 126.23 166.97 127.23 166.53 C 127.17 176.57 127.08 186.62 127.27 196.66 C 126.15 196.50 125.02 196.33 123.92 196.10 C 117.18 194.13 111.31 189.97 104.66 187.91 C 104.15 186.23 105.19 184.71 105.81 183.24 C 111.66 186.12 117.58 188.97 123.78 191.05 C 123.84 185.02 123.83 178.99 123.78 172.96 C 122.87 173.41 121.96 173.87 121.06 174.33 C 120.45 174.65 119.22 175.28 118.61 175.60 C 117.80 176.01 116.98 176.42 116.17 176.82 C 115.53 177.14 114.27 177.76 113.64 178.07 C 110.93 179.43 108.01 180.49 105.79 182.64 C 104.87 181.08 103.16 178.51 105.57 177.33 C 111.54 173.73 117.92 170.80 124.22 167.83 Z" />
</g>
<g id="#ea21bbff">
<path fill="#ea21bb" opacity="1.00" d=" M 65.39 169.87 C 66.19 169.69 67.81 169.33 68.61 169.15 L 68.66 169.14 L 68.65 169.22 C 68.55 170.11 68.36 171.89 68.26 172.77 C 67.22 172.81 66.18 172.85 65.14 172.89 C 65.22 171.88 65.30 170.87 65.39 169.87 Z" />
<path fill="#ea21bb" opacity="1.00" d=" M 70.20 174.20 C 71.36 174.21 72.52 174.23 73.69 174.26 C 73.58 175.20 73.46 176.13 73.35 177.07 C 72.97 177.18 72.20 177.38 71.82 177.49 C 71.53 177.57 70.95 177.73 70.66 177.81 C 70.50 176.61 70.35 175.40 70.20 174.20 Z" />
<path fill="#ea21bb" opacity="1.00" d=" M 118.61 175.60 C 119.22 175.28 120.45 174.65 121.06 174.33 C 121.40 175.56 121.69 176.80 121.94 178.05 C 119.75 178.98 118.09 178.04 118.61 175.60 Z" />
<path fill="#ea21bb" opacity="1.00" d=" M 88.98 176.17 L 90.33 176.21 C 93.45 176.28 96.57 176.27 99.69 176.15 L 100.78 176.10 C 101.83 177.85 102.85 179.63 103.60 181.53 C 103.38 183.46 103.41 185.41 103.68 187.35 C 102.48 188.51 101.26 189.65 100.05 190.79 C 96.77 190.23 93.31 190.18 90.03 190.74 C 88.93 189.80 87.84 188.88 86.75 187.95 C 86.76 185.71 87.00 183.29 85.71 181.33 C 86.06 180.72 86.75 179.49 87.09 178.88 C 88.16 178.48 89.83 177.56 88.98 176.17 Z" />
<path fill="#ea21bb" opacity="1.00" d=" M 113.64 178.07 C 114.27 177.76 115.53 177.14 116.17 176.82 C 118.39 178.05 117.16 179.59 115.75 180.83 C 114.92 180.01 114.29 179.02 113.64 178.07 Z" />
<path fill="#ea21bb" opacity="1.00" d=" M 74.38 178.37 C 75.44 178.33 76.50 178.28 77.56 178.24 L 77.63 179.14 C 77.67 179.74 77.77 180.93 77.82 181.53 C 76.75 181.48 75.69 181.43 74.63 181.38 C 74.54 180.38 74.46 179.37 74.38 178.37 Z" />
<path fill="#ea21bb" opacity="1.00" d=" M 66.16 179.31 C 66.95 179.31 68.51 179.31 69.29 179.31 C 69.25 179.94 69.17 181.19 69.13 181.82 C 68.41 182.48 67.48 182.80 66.33 182.76 C 66.27 181.61 66.22 180.46 66.16 179.31 Z" />
<path fill="#ea21bb" opacity="1.00" d=" M 109.24 180.98 C 110.12 180.15 111.38 180.44 112.46 180.44 C 112.42 181.42 112.39 182.40 112.36 183.38 C 111.35 183.46 110.34 183.55 109.34 183.64 C 109.31 182.98 109.27 181.65 109.24 180.98 Z" />
<path fill="#ea21bb" opacity="1.00" d=" M 119.76 183.60 C 120.25 183.49 121.23 183.29 121.72 183.19 C 121.73 184.36 121.73 185.54 121.73 186.72 C 120.68 186.67 119.63 186.62 118.58 186.57 C 118.56 185.94 118.53 184.68 118.51 184.05 C 118.82 183.94 119.45 183.71 119.76 183.60 Z" />
</g>
</svg>
