<?xml version="1.0" encoding="UTF-8" ?>
<!DOCTYPE svg PUBLIC "-//W3C//DTD SVG 1.1//EN" "http://www.w3.org/Graphics/SVG/1.1/DTD/svg11.dtd">
<svg width="210pt" height="220pt" viewBox="0 0 210 220" version="1.1" xmlns="http://www.w3.org/2000/svg">
<g id="#5e554fa8">
<path fill="#5e554f" opacity="0.66" d=" M 65.58 78.46 C 66.63 78.37 67.69 78.29 68.74 78.22 C 68.75 78.85 68.76 80.13 68.77 80.77 C 67.72 80.69 66.66 80.61 65.61 80.53 C 65.60 80.01 65.59 78.97 65.58 78.46 Z" />
<path fill="#5e554f" opacity="0.66" d=" M 117.55 82.23 C 118.97 78.68 123.10 80.04 126.05 79.75 C 126.53 80.26 127.50 81.28 127.98 81.78 C 133.58 82.30 139.94 80.12 144.93 83.50 C 147.65 83.57 150.37 83.57 153.10 83.55 C 153.80 82.94 154.50 82.34 155.20 81.73 C 160.03 81.97 165.04 80.99 169.74 82.43 C 166.15 82.64 162.56 82.49 158.98 82.52 C 155.53 82.43 152.53 84.73 149.06 84.51 C 144.91 84.76 141.15 82.51 137.03 82.56 C 130.53 82.63 124.05 82.28 117.55 82.23 Z" />
<path fill="#5e554f" opacity="0.66" d=" M 76.40 83.85 C 77.83 82.21 79.57 81.10 81.81 82.11 C 80.44 83.87 78.56 84.60 76.40 83.85 Z" />
<path fill="#5e554f" opacity="0.66" d=" M 169.74 82.43 L 170.83 83.23 C 171.55 85.71 172.88 87.89 175.05 89.34 L 176.49 90.74 C 174.20 91.07 171.87 91.33 169.57 90.93 C 169.38 88.09 169.43 85.25 169.74 82.43 Z" />
<path fill="#5e554f" opacity="0.66" d=" M 49.21 85.53 C 50.10 84.89 51.01 84.27 51.93 83.66 C 52.57 83.65 53.86 83.64 54.50 83.63 C 54.10 83.96 53.30 84.63 52.90 84.96 C 46.91 87.20 40.53 88.07 34.15 87.67 C 34.34 87.46 34.72 87.04 34.92 86.83 C 38.41 86.58 42.34 87.59 45.26 85.10 C 46.58 85.24 47.89 85.39 49.21 85.53 Z" />
<path fill="#5e554f" opacity="0.66" d=" M 204.20 88.15 C 204.42 87.71 204.85 86.84 205.07 86.40 C 206.99 88.37 211.16 89.49 210.00 93.03 L 210.00 94.99 C 209.04 94.77 208.08 94.57 207.11 94.39 C 206.11 92.32 205.08 90.27 204.20 88.15 Z" />
<path fill="#5e554f" opacity="0.66" d=" M 100.92 88.97 C 102.07 90.48 101.92 93.37 104.44 93.37 C 108.59 92.93 112.87 92.31 116.91 93.80 L 117.85 94.51 C 112.94 93.80 107.95 93.75 103.01 94.14 C 101.49 94.41 103.83 96.55 103.35 97.13 C 103.35 97.67 103.35 98.75 103.35 99.29 C 99.62 97.29 101.67 92.34 100.92 88.97 Z" />
<path fill="#5e554f" opacity="0.66" d=" M 171.93 95.93 C 172.45 96.00 173.49 96.15 174.01 96.22 C 174.60 96.13 175.77 95.95 176.36 95.86 C 176.44 96.95 176.52 98.05 176.59 99.15 C 174.58 98.82 173.21 97.38 171.93 95.93 Z" />
<path fill="#5e554f" opacity="0.66" d=" M 2.68 99.01 C 2.68 97.26 4.42 96.94 5.74 96.58 C 5.72 98.02 5.71 99.45 5.70 100.88 C 4.19 101.01 2.56 101.00 2.68 99.01 Z" />
<path fill="#5e554f" opacity="0.66" d=" M 47.96 98.44 C 53.04 98.74 58.09 98.05 63.12 97.45 C 62.93 97.94 62.56 98.92 62.37 99.41 C 55.20 99.40 48.02 99.11 40.86 99.47 C 42.90 97.95 45.59 98.54 47.96 98.44 Z" />
<path fill="#5e554f" opacity="0.66" d=" M 167.71 96.24 C 168.73 97.46 169.60 98.79 170.06 100.33 C 169.45 100.50 168.21 100.83 167.60 101.00 C 167.63 99.41 167.67 97.82 167.71 96.24 Z" />
<path fill="#5e554f" opacity="0.66" d=" M 14.77 100.74 C 13.75 99.08 16.01 97.95 17.37 98.53 C 18.49 100.20 16.15 101.35 14.77 100.74 Z" />
<path fill="#5e554f" opacity="0.66" d=" M 36.85 99.90 C 37.95 98.91 39.55 98.94 40.86 99.47 C 40.46 101.71 37.80 101.83 36.85 99.90 Z" />
<path fill="#5e554f" opacity="0.66" d=" M 97.21 104.26 C 95.88 103.28 96.56 101.45 96.42 100.09 C 97.99 101.24 98.78 102.89 98.62 104.83 L 97.21 104.26 Z" />
<path fill="#5e554f" opacity="0.66" d=" M 103.32 101.69 C 103.88 101.94 105.00 102.44 105.56 102.69 C 105.43 103.84 105.31 104.99 105.18 106.15 C 105.71 106.69 106.75 107.76 107.27 108.30 C 107.16 108.89 106.94 110.06 106.82 110.65 C 103.83 108.76 103.51 104.88 103.32 101.69 Z" />
<path fill="#5e554f" opacity="0.66" d=" M 87.90 104.97 C 88.76 106.52 88.08 108.47 86.32 108.98 C 85.58 107.42 86.11 105.48 87.90 104.97 Z" />
<path fill="#5e554f" opacity="0.66" d=" M 97.32 110.05 C 98.12 108.97 99.07 108.03 100.13 107.22 C 100.11 110.91 100.95 114.54 103.39 117.40 C 103.40 118.09 103.42 119.45 103.44 120.13 C 102.67 119.75 101.90 119.36 101.13 118.97 C 101.27 118.14 101.54 116.49 101.67 115.66 C 100.43 113.64 98.98 111.75 97.32 110.05 Z" />
<path fill="#5e554f" opacity="0.66" d=" M 35.48 108.04 C 38.12 109.01 37.44 111.83 37.86 114.05 C 38.82 115.72 40.94 115.45 42.55 115.89 C 41.73 117.66 39.70 119.81 42.33 121.39 C 42.03 122.30 41.71 123.20 41.36 124.09 C 40.91 122.73 40.46 121.36 40.02 120.00 C 39.74 119.66 39.17 118.98 38.88 118.64 C 38.46 115.79 37.06 113.30 35.56 110.89 C 35.54 110.18 35.50 108.75 35.48 108.04 Z" />
<path fill="#5e554f" opacity="0.66" d=" M 92.78 109.91 C 92.92 111.21 93.05 112.51 93.17 113.82 C 90.26 119.31 86.65 124.37 83.76 129.87 C 81.91 132.01 79.60 135.75 76.33 134.00 C 76.73 134.09 77.51 134.27 77.90 134.36 C 79.62 131.85 81.50 129.37 84.22 127.86 C 84.39 126.78 84.57 125.70 84.75 124.62 C 88.01 120.04 91.24 115.40 92.78 109.91 Z" />
<path fill="#5e554f" opacity="0.66" d=" M 28.21 112.74 C 28.74 112.55 29.79 112.19 30.32 112.01 C 31.07 115.27 32.69 118.26 33.59 121.48 C 31.36 118.85 29.80 115.77 28.21 112.74 Z" />
<path fill="#5e554f" opacity="0.66" d=" M 165.45 116.30 C 164.91 114.74 166.20 113.29 167.67 112.99 C 168.71 114.61 167.68 117.50 165.45 116.30 Z" />
<path fill="#5e554f" opacity="0.66" d=" M 164.54 123.45 C 163.85 122.02 164.10 119.86 165.88 119.38 C 167.23 120.81 166.04 122.75 164.54 123.45 Z" />
<path fill="#5e554f" opacity="0.66" d=" M 74.43 125.11 C 74.26 123.75 73.52 121.47 75.27 120.86 C 77.36 121.95 76.48 124.65 74.43 125.11 Z" />
<path fill="#5e554f" opacity="0.66" d=" M 113.30 123.95 C 113.38 123.28 113.53 121.96 113.61 121.30 C 115.49 123.46 116.44 126.18 117.21 128.88 C 115.72 127.39 114.52 125.65 113.30 123.95 Z" />
<path fill="#5e554f" opacity="0.66" d=" M 45.24 124.22 C 45.92 124.15 47.29 124.02 47.98 123.95 C 48.68 124.48 49.38 125.01 50.08 125.55 C 52.22 125.58 54.35 125.88 55.67 127.81 C 53.62 128.31 51.54 128.32 50.10 126.50 C 49.00 126.44 47.89 126.39 46.78 126.35 C 46.40 125.82 45.63 124.75 45.24 124.22 Z" />
<path fill="#5e554f" opacity="0.66" d=" M 106.26 124.76 C 107.67 126.42 108.89 128.23 110.03 130.08 C 110.56 130.33 111.60 130.83 112.12 131.08 C 112.29 132.11 112.45 133.15 112.61 134.19 C 110.66 133.54 109.70 131.82 109.17 129.97 C 107.86 128.43 106.85 126.70 106.26 124.76 Z" />
<path fill="#5e554f" opacity="0.66" d=" M 149.77 130.26 C 150.16 129.53 150.55 128.79 150.93 128.06 C 150.42 129.72 149.96 131.40 149.45 133.06 C 146.83 133.75 144.20 134.54 141.47 134.63 C 141.72 134.07 142.23 132.95 142.48 132.40 C 143.64 132.45 144.80 132.51 145.97 132.56 C 147.23 131.78 148.50 131.01 149.77 130.26 Z" />
<path fill="#5e554f" opacity="0.66" d=" M 118.61 129.87 C 119.88 128.73 121.79 129.17 122.54 130.69 C 121.22 131.79 119.57 131.03 118.61 129.87 Z" />
<path fill="#5e554f" opacity="0.66" d=" M 157.99 133.06 C 158.55 131.41 160.24 130.89 161.84 131.01 C 161.83 132.95 159.60 134.07 157.99 133.06 Z" />
<path fill="#5e554f" opacity="0.66" d=" M 151.17 137.31 C 152.84 136.66 154.49 135.94 156.09 135.13 C 154.28 137.03 152.12 138.52 149.91 139.91 C 149.14 139.81 147.59 139.62 146.82 139.52 C 148.06 138.39 149.50 137.57 151.17 137.31 Z" />
</g>
<g id="#823f10ff">
<path fill="#823f10" opacity="1.00" d=" M 81.81 82.11 C 93.71 82.54 105.64 82.26 117.55 82.23 C 124.05 82.28 130.53 82.63 137.03 82.56 C 141.15 82.51 144.91 84.76 149.06 84.51 C 152.53 84.73 155.53 82.43 158.98 82.52 C 162.56 82.49 166.15 82.64 169.74 82.43 C 169.43 85.25 169.38 88.09 169.57 90.93 C 167.66 90.08 165.80 89.11 163.82 88.46 C 162.17 89.76 162.56 91.94 162.45 93.79 C 160.26 93.73 158.06 93.68 155.87 93.66 C 152.95 96.62 148.68 95.41 144.99 95.57 C 136.33 95.35 127.64 95.91 118.99 95.35 C 118.71 95.14 118.14 94.72 117.85 94.51 L 116.91 93.80 C 112.87 92.31 108.59 92.93 104.44 93.37 C 101.92 93.37 102.07 90.48 100.92 88.97 C 99.65 88.02 97.88 88.28 96.39 87.93 L 96.35 88.97 C 96.26 90.66 96.19 92.35 96.15 94.04 C 95.45 93.87 94.04 93.53 93.33 93.36 C 93.12 92.63 92.70 91.15 92.50 90.42 C 91.14 90.42 89.78 90.43 88.43 90.44 C 88.19 92.14 87.91 93.83 87.75 95.54 C 82.07 95.52 76.38 95.69 70.70 95.46 C 69.91 96.14 69.12 96.82 68.33 97.51 C 66.59 97.45 64.85 97.40 63.12 97.45 C 58.09 98.05 53.04 98.74 47.96 98.44 C 45.59 98.54 42.90 97.95 40.86 99.47 C 39.55 98.94 37.95 98.91 36.85 99.90 C 36.53 99.53 35.87 98.80 35.55 98.43 C 35.51 96.99 35.41 95.56 35.32 94.13 C 34.41 94.19 32.60 94.31 31.69 94.37 C 31.44 93.85 30.93 92.80 30.67 92.28 C 31.88 90.78 32.89 89.13 34.15 87.67 C 40.53 88.07 46.91 87.20 52.90 84.96 C 53.30 84.63 54.10 83.96 54.50 83.63 C 61.80 83.76 69.11 83.38 76.40 83.85 C 78.56 84.60 80.44 83.87 81.81 82.11 Z" />
</g>
<g id="#000000fe">
<path fill="#000000" opacity="1.00" d=" M 199.12 91.48 C 201.61 92.35 203.05 89.85 204.20 88.15 C 205.08 90.27 206.11 92.32 207.11 94.39 C 208.08 94.57 209.04 94.77 210.00 94.99 L 210.00 95.43 C 208.57 95.88 207.14 95.93 205.70 95.58 C 204.77 96.28 203.85 97.01 202.94 97.73 C 202.11 97.00 201.28 96.27 200.46 95.54 C 192.43 95.78 184.36 95.13 176.36 95.86 C 175.77 95.95 174.60 96.13 174.01 96.22 C 173.49 96.15 172.45 96.00 171.93 95.93 C 170.48 95.65 169.02 95.50 167.56 95.31 C 167.60 95.54 167.67 96.01 167.71 96.24 C 167.67 97.82 167.63 99.41 167.60 101.00 C 167.57 105.00 167.46 109.00 167.67 112.99 C 166.20 113.29 164.91 114.74 165.45 116.30 C 165.57 117.33 165.71 118.35 165.88 119.38 C 164.10 119.86 163.85 122.02 164.54 123.45 C 164.12 126.10 165.58 130.44 161.84 131.01 C 160.24 130.89 158.55 131.41 157.99 133.06 C 157.38 133.78 156.75 134.47 156.09 135.13 C 154.49 135.94 152.84 136.66 151.17 137.31 C 149.50 137.57 148.06 138.39 146.82 139.52 C 138.64 139.36 130.41 140.04 122.27 139.14 C 118.42 138.89 115.88 135.78 112.61 134.19 C 112.45 133.15 112.29 132.11 112.12 131.08 C 111.60 130.83 110.56 130.33 110.03 130.08 C 108.89 128.23 107.67 126.42 106.26 124.76 L 106.24 124.73 C 105.54 124.58 104.14 124.28 103.45 124.12 C 103.44 122.79 103.44 121.46 103.44 120.13 C 103.42 119.45 103.40 118.09 103.39 117.40 C 100.95 114.54 100.11 110.91 100.13 107.22 C 99.07 108.03 98.12 108.97 97.32 110.05 C 97.13 108.42 97.67 106.85 98.11 105.31 C 97.89 105.05 97.44 104.52 97.21 104.26 L 98.62 104.83 C 98.78 102.89 97.99 101.24 96.42 100.09 C 96.57 96.77 96.43 93.40 97.10 90.13 C 98.10 89.10 99.58 89.01 100.92 88.97 C 101.67 92.34 99.62 97.29 103.35 99.29 C 103.34 99.89 103.32 101.09 103.32 101.69 C 103.51 104.88 103.83 108.76 106.82 110.65 C 106.94 110.06 107.16 108.89 107.27 108.30 C 107.41 108.44 107.67 108.71 107.80 108.84 C 107.41 113.59 111.10 117.53 113.61 121.30 C 113.53 121.96 113.38 123.28 113.30 123.95 C 114.52 125.65 115.72 127.39 117.21 128.88 C 117.56 129.13 118.26 129.62 118.61 129.87 C 119.57 131.03 121.22 131.79 122.54 130.69 C 124.05 130.76 125.55 130.83 127.06 130.90 C 127.18 132.12 127.32 133.35 127.45 134.59 C 132.12 134.46 136.80 134.54 141.47 134.63 C 144.20 134.54 146.83 133.75 149.45 133.06 C 149.96 131.40 150.42 129.72 150.93 128.06 C 153.41 125.78 156.16 123.75 158.26 121.09 C 159.91 117.88 160.64 114.25 162.52 111.13 C 162.57 105.35 162.58 99.57 162.45 93.79 C 162.56 91.94 162.17 89.76 163.82 88.46 C 165.80 89.11 167.66 90.08 169.57 90.93 C 171.87 91.33 174.20 91.07 176.49 90.74 L 175.05 89.34 C 175.43 89.64 176.19 90.24 176.57 90.53 C 184.09 90.81 191.73 89.69 199.12 91.48 Z" />
<path fill="#000000" opacity="1.00" d=" M 88.43 90.44 C 89.78 90.43 91.14 90.42 92.50 90.42 C 92.70 91.15 93.12 92.63 93.33 93.36 C 93.37 98.23 93.05 103.11 93.48 107.98 C 93.57 109.91 94.02 111.97 93.17 113.82 C 93.05 112.51 92.92 111.21 92.78 109.91 C 91.24 115.40 88.01 120.04 84.75 124.62 C 84.57 125.70 84.39 126.78 84.22 127.86 C 81.50 129.37 79.62 131.85 77.90 134.36 C 77.51 134.27 76.73 134.09 76.33 134.00 C 70.82 131.77 64.80 132.92 59.02 132.63 C 54.96 132.44 50.99 133.79 46.94 133.42 C 44.37 132.75 41.95 131.53 39.67 130.19 C 37.12 127.69 35.77 124.28 33.59 121.48 C 32.69 118.26 31.07 115.27 30.32 112.01 C 30.61 107.58 30.53 103.15 30.39 98.72 C 26.05 98.72 21.70 98.88 17.37 98.53 C 16.01 97.95 13.75 99.08 14.77 100.74 C 11.75 100.44 8.72 100.73 5.70 100.88 C 5.71 99.45 5.72 98.02 5.74 96.58 C 13.43 94.95 21.22 93.66 29.11 94.25 C 29.62 93.58 30.14 92.93 30.67 92.28 C 30.93 92.80 31.44 93.85 31.69 94.37 C 32.60 94.31 34.41 94.19 35.32 94.13 C 35.41 95.56 35.51 96.99 35.55 98.43 C 35.60 101.63 35.46 104.84 35.48 108.04 C 35.50 108.75 35.54 110.18 35.56 110.89 C 37.06 113.30 38.46 115.79 38.88 118.64 C 39.17 118.98 39.74 119.66 40.02 120.00 C 40.46 121.36 40.91 122.73 41.36 124.09 C 41.71 123.20 42.03 122.30 42.33 121.39 C 42.85 122.33 42.94 123.38 42.59 124.54 C 43.25 124.46 44.58 124.30 45.24 124.22 C 45.63 124.75 46.40 125.82 46.78 126.35 C 47.89 126.39 49.00 126.44 50.10 126.50 C 51.54 128.32 53.62 128.31 55.67 127.81 C 61.97 127.43 68.28 127.74 74.59 127.60 C 74.55 126.98 74.47 125.73 74.43 125.11 C 76.48 124.65 77.36 121.95 75.27 120.86 C 77.76 119.74 80.24 118.55 82.45 116.93 C 82.80 115.44 83.17 113.95 83.54 112.47 C 84.29 112.45 85.79 112.43 86.54 112.42 C 86.48 111.27 86.41 110.12 86.32 108.98 C 88.08 108.47 88.76 106.52 87.90 104.97 C 87.69 101.83 87.69 98.68 87.75 95.54 C 87.91 93.83 88.19 92.14 88.43 90.44 Z" />
</g>
</svg>
