<?xml version="1.0" encoding="UTF-8" ?>
<!DOCTYPE svg PUBLIC "-//W3C//DTD SVG 1.1//EN" "http://www.w3.org/Graphics/SVG/1.1/DTD/svg11.dtd">
<svg width="210pt" height="220pt" viewBox="0 0 210 220" version="1.1" xmlns="http://www.w3.org/2000/svg">
<g id="#010101ff">
<path fill="#010101" opacity="1.00" d=" M 95.04 16.81 C 98.64 14.11 103.49 15.23 107.63 15.65 C 104.36 15.81 101.03 15.64 97.87 16.65 C 100.95 18.78 103.71 21.40 107.17 22.93 C 107.25 22.00 107.41 20.15 107.49 19.23 C 111.20 20.53 116.49 21.00 117.81 25.42 C 119.84 31.14 124.44 35.98 130.15 38.08 C 128.61 33.19 122.82 32.13 120.29 27.98 C 120.73 27.59 121.61 26.81 122.05 26.41 C 129.26 30.13 133.00 37.64 137.26 44.14 C 137.52 41.75 137.77 39.37 138.24 37.01 C 131.57 32.53 126.33 25.53 117.94 24.11 C 118.99 22.90 120.74 22.90 122.14 22.40 C 122.01 21.65 121.75 20.13 121.62 19.38 C 122.13 19.36 123.16 19.34 123.67 19.32 C 127.13 22.89 128.86 28.30 133.74 30.30 C 136.72 31.76 140.09 33.06 141.65 36.23 C 142.34 38.23 144.66 37.40 146.25 37.69 C 147.49 41.57 150.35 44.62 151.83 48.40 C 156.16 53.25 158.68 59.47 163.60 63.83 C 164.07 69.03 164.56 74.39 166.99 79.12 C 170.33 86.51 176.24 92.38 179.39 99.87 C 182.50 106.01 181.96 113.07 183.05 119.68 C 182.14 119.73 180.32 119.84 179.41 119.90 C 180.36 120.02 182.25 120.26 183.20 120.39 C 183.49 133.96 185.39 147.43 186.48 160.93 C 185.40 165.33 185.51 169.86 185.57 174.37 L 186.81 173.12 C 187.01 172.39 187.39 170.92 187.58 170.19 C 187.30 172.70 188.37 175.60 186.52 177.68 C 184.57 180.51 184.38 184.05 183.33 187.23 C 182.67 187.40 181.35 187.73 180.69 187.89 C 180.72 192.23 177.62 195.67 177.20 199.92 C 174.00 203.67 173.56 208.79 171.16 212.99 C 170.44 212.99 168.99 212.99 168.27 212.99 C 173.10 201.49 174.48 188.27 182.45 178.27 C 182.35 173.98 183.40 169.80 183.60 165.53 C 183.02 165.24 181.86 164.67 181.28 164.38 C 181.25 157.20 181.28 150.02 181.28 142.85 L 180.77 142.11 C 180.85 133.66 180.04 125.17 177.88 116.98 C 176.70 112.30 172.84 108.84 171.74 104.12 C 171.34 101.50 171.24 98.82 170.52 96.25 C 170.99 95.58 171.46 94.91 171.94 94.24 C 172.86 100.92 176.54 106.74 178.51 113.11 C 179.42 115.23 179.52 117.92 181.54 119.38 C 182.34 111.47 178.15 104.45 175.83 97.18 C 175.20 94.78 173.17 93.25 171.52 91.58 L 171.78 93.35 C 171.21 93.34 170.08 93.32 169.51 93.31 C 166.23 83.00 159.35 74.41 154.33 64.95 C 152.67 66.02 150.85 67.59 151.37 69.82 C 152.69 74.74 157.95 77.73 158.58 82.95 C 158.74 86.13 161.76 88.14 162.20 91.22 C 162.90 96.55 161.26 102.46 157.00 105.96 C 153.66 108.77 149.41 110.63 145.01 110.74 C 138.62 111.06 132.10 110.95 125.95 108.97 C 126.78 108.47 127.61 107.97 128.45 107.47 C 135.29 108.51 142.25 108.67 149.15 108.23 C 155.23 105.80 160.44 99.82 159.63 92.92 C 160.30 88.63 155.27 86.27 156.11 81.90 C 151.85 77.69 150.94 70.38 144.78 68.23 C 144.04 63.80 138.72 62.41 138.01 57.98 C 134.21 56.29 130.30 54.41 126.03 54.51 C 124.15 55.42 122.26 56.28 120.36 57.11 C 120.39 56.50 120.45 55.27 120.48 54.66 C 124.24 52.76 128.56 53.39 132.62 53.33 C 132.51 51.51 132.37 49.70 132.22 47.89 C 126.71 45.55 121.52 42.39 115.69 40.88 C 111.86 39.88 107.95 40.76 104.08 40.85 C 101.92 39.86 100.26 37.99 98.00 37.18 C 90.06 34.07 81.30 34.28 72.94 34.94 C 68.32 35.79 63.05 34.99 59.11 38.05 C 55.16 41.23 51.68 45.26 46.68 46.84 C 47.16 51.26 43.15 54.03 42.18 58.05 C 39.43 57.83 38.50 60.51 37.35 62.45 C 33.72 69.19 27.80 74.32 21.54 78.55 C 17.69 82.78 18.98 89.07 18.16 94.28 C 17.69 98.54 14.35 101.75 13.85 106.00 C 11.53 120.04 12.29 134.35 12.50 148.50 L 13.35 148.53 C 17.14 161.05 21.19 173.53 23.77 186.37 C 27.55 190.06 31.18 193.96 32.89 199.08 C 37.32 202.97 43.75 203.62 47.89 208.04 C 50.80 208.00 54.24 209.29 53.85 212.86 C 50.22 211.52 46.72 209.71 44.04 206.85 C 41.21 206.31 38.23 205.81 35.84 204.09 C 30.59 200.58 28.11 194.43 23.64 190.14 C 23.30 197.45 25.92 204.46 28.71 211.09 C 28.16 211.54 27.60 212.01 27.05 212.47 C 26.28 210.96 25.45 209.49 24.55 208.06 C 23.93 204.24 22.61 200.61 21.38 196.96 C 20.25 193.93 20.84 190.64 20.31 187.52 C 17.88 181.93 13.28 177.65 10.60 172.19 C 9.93 169.46 10.46 166.61 10.43 163.83 C 9.74 161.94 9.40 159.96 9.08 157.98 C 8.58 156.01 8.34 153.98 8.07 151.97 C 5.80 136.76 6.26 121.34 6.40 106.02 C 6.64 101.49 6.23 96.89 7.15 92.42 C 9.63 102.47 7.92 112.87 9.20 123.05 C 9.90 130.01 9.04 136.99 9.29 143.96 C 9.30 150.09 10.22 156.16 10.83 162.24 C 11.56 165.57 11.60 169.25 13.65 172.13 C 15.43 174.79 17.48 177.26 19.47 179.76 C 18.61 176.79 17.88 173.78 17.33 170.74 C 17.20 170.59 16.93 170.31 16.80 170.16 C 15.16 159.82 10.43 149.82 11.84 139.14 L 10.55 140.48 C 10.47 131.90 8.90 123.36 9.63 114.79 C 10.48 107.99 13.46 101.77 15.19 95.20 C 15.50 94.36 15.16 93.51 14.93 92.71 C 14.18 94.79 13.59 96.92 13.02 99.05 C 8.73 91.28 16.99 84.99 17.57 77.57 L 16.85 76.27 C 16.65 73.87 16.69 71.46 16.82 69.06 C 18.31 69.14 19.80 69.25 21.29 69.38 C 21.68 68.98 22.46 68.18 22.85 67.78 C 23.06 65.33 23.19 62.87 23.41 60.42 C 25.68 59.79 28.35 59.81 30.23 58.26 C 32.38 55.06 34.42 51.58 34.35 47.60 C 37.05 46.63 39.87 45.91 42.76 46.33 C 40.31 48.36 35.63 46.73 34.53 50.41 L 33.97 53.29 C 35.62 53.91 37.31 54.42 39.05 54.70 C 38.55 53.70 37.53 51.69 37.03 50.69 C 39.48 50.24 42.48 51.21 44.51 49.39 C 45.55 48.02 46.07 46.35 46.77 44.80 C 47.36 44.68 48.53 44.45 49.11 44.34 C 50.91 42.08 52.28 39.52 54.09 37.26 C 56.90 34.22 61.23 33.66 65.11 33.02 C 73.74 31.74 81.26 26.61 89.93 25.48 C 92.07 25.22 94.20 24.81 96.27 24.15 C 93.66 22.41 88.90 22.47 88.87 18.46 C 89.95 18.48 92.10 18.53 93.18 18.56 C 95.94 20.52 98.74 22.43 101.81 23.87 C 102.06 20.50 97.54 20.00 97.39 16.68 C 96.80 16.72 95.63 16.78 95.04 16.81 M 109.95 26.12 C 111.25 28.57 113.31 30.52 115.66 31.96 C 116.05 28.70 112.72 26.72 109.95 26.12 M 76.91 31.61 C 86.18 31.10 95.02 34.04 103.89 36.23 C 106.22 36.33 108.56 36.34 110.90 36.26 L 110.69 34.06 C 106.87 31.10 102.47 28.80 98.26 26.58 C 91.21 28.37 83.37 28.07 76.91 31.61 M 140.63 39.09 C 140.45 45.55 143.28 52.27 148.63 56.05 C 148.04 49.79 146.08 42.85 140.63 39.09 M 134.64 52.27 C 134.62 52.79 134.60 53.83 134.59 54.35 C 135.69 54.58 136.80 54.81 137.91 55.04 C 137.75 54.42 137.43 53.17 137.27 52.55 C 136.39 52.45 135.51 52.36 134.64 52.27 M 31.11 59.35 C 29.62 60.11 28.06 60.86 26.33 60.19 C 22.34 62.15 24.78 67.26 22.15 70.25 C 21.86 70.22 21.26 70.17 20.96 70.14 C 18.83 68.84 17.50 69.28 16.98 71.46 L 18.61 71.46 C 18.64 73.93 18.45 76.39 18.32 78.86 C 21.08 75.95 24.23 73.37 26.48 70.02 C 26.21 69.51 25.67 68.49 25.40 67.98 C 29.16 65.78 30.39 60.96 34.65 59.33 C 34.62 57.89 34.56 55.02 34.53 53.58 C 33.01 55.25 32.06 57.32 31.11 59.35 M 152.57 56.13 C 152.60 57.07 152.65 58.02 152.71 58.97 C 153.10 60.02 153.44 61.08 153.73 62.17 C 155.41 63.09 157.09 64.28 157.72 66.20 C 158.95 68.33 158.78 71.86 161.85 72.16 C 161.51 65.60 156.41 60.93 152.57 56.13 Z" />
<path fill="#010101" opacity="1.00" d=" M 63.72 50.23 C 66.67 50.61 65.49 54.19 65.63 56.16 C 63.06 58.48 60.07 60.29 57.64 62.77 C 57.68 63.24 57.76 64.18 57.80 64.65 C 58.01 64.44 58.42 64.02 58.63 63.81 C 62.67 61.97 65.82 58.67 69.73 56.57 C 72.33 56.39 76.88 55.36 77.04 59.20 C 75.36 59.42 73.68 59.60 72.06 60.06 C 65.98 62.59 60.24 66.01 55.45 70.57 C 52.10 73.85 48.70 77.09 45.29 80.32 C 44.95 80.64 44.28 81.28 43.94 81.60 C 46.94 81.13 49.89 80.41 52.86 79.80 C 58.04 79.40 63.23 79.85 68.42 79.58 C 71.66 84.39 75.45 89.48 81.42 90.92 C 82.44 98.87 79.81 106.93 75.00 113.24 C 70.31 119.41 63.96 124.10 59.43 130.40 C 55.19 130.51 50.91 130.93 46.73 130.04 C 50.02 126.65 55.36 129.96 58.85 126.98 C 63.93 121.35 69.76 116.39 74.20 110.22 C 77.38 105.51 79.26 99.96 79.84 94.32 C 78.15 96.67 75.48 96.78 72.93 96.33 C 73.03 85.86 59.86 78.27 51.04 84.15 C 56.04 85.20 61.39 86.34 65.26 89.92 C 65.33 91.31 65.33 92.71 65.26 94.10 C 64.92 95.10 64.60 96.11 64.31 97.12 C 62.46 99.53 60.67 102.30 57.93 103.73 C 49.02 104.62 42.75 94.34 45.49 86.39 C 41.89 86.52 38.01 88.07 36.28 91.42 C 33.24 96.42 33.23 102.39 33.04 108.05 C 32.94 107.57 32.76 106.63 32.66 106.16 L 31.64 106.42 C 31.30 102.31 30.90 98.06 32.05 94.03 C 32.96 89.21 34.68 84.60 35.81 79.83 C 39.45 75.77 45.25 73.67 47.23 68.17 C 47.21 67.05 47.21 65.93 47.20 64.81 C 52.42 62.48 54.32 56.55 58.96 53.57 C 61.05 53.16 60.25 55.99 60.87 57.17 C 62.05 54.95 62.58 52.47 63.72 50.23 M 48.61 87.34 C 47.69 88.58 47.43 90.06 47.29 91.55 C 47.82 91.53 48.89 91.48 49.42 91.46 C 50.21 90.55 51.00 89.64 51.77 88.72 C 51.99 88.43 52.42 87.84 52.64 87.55 C 51.30 87.46 49.95 87.40 48.61 87.34 Z" />
<path fill="#010101" opacity="1.00" d=" M 124.82 56.65 C 127.08 55.63 129.73 56.26 131.06 58.40 C 129.19 58.44 127.32 58.51 125.46 58.67 C 125.53 60.69 125.60 62.70 125.64 64.72 C 126.46 64.49 128.10 64.04 128.92 63.82 C 129.73 63.79 131.36 63.73 132.17 63.70 C 134.91 64.37 137.33 65.82 139.20 67.93 C 139.48 68.44 140.04 69.45 140.33 69.96 C 140.74 73.02 140.88 76.14 140.31 79.19 C 138.92 81.40 136.06 81.56 133.75 82.06 C 131.72 82.22 129.28 82.85 127.62 81.28 C 124.93 78.83 122.98 75.70 121.68 72.33 C 121.47 69.81 122.05 67.37 122.90 65.02 C 121.59 65.31 120.28 65.61 119.00 66.03 C 110.32 69.45 106.19 79.34 106.31 88.17 C 112.83 94.81 117.68 104.03 127.01 107.14 C 126.16 107.57 125.31 108.00 124.46 108.43 C 120.67 106.35 116.46 104.57 113.70 101.11 C 111.05 96.92 107.88 93.09 104.57 89.40 C 104.02 84.54 104.37 79.38 106.99 75.11 C 109.01 71.84 110.93 68.44 111.70 64.62 C 112.88 64.64 114.06 64.67 115.24 64.70 C 118.42 62.01 121.16 58.73 124.82 56.65 Z" />
<path fill="#010101" opacity="1.00" d=" M 33.37 114.18 C 33.81 114.25 34.70 114.38 35.14 114.44 C 36.21 118.86 38.36 123.16 42.11 125.88 C 43.96 126.81 45.86 127.64 47.91 128.01 C 47.23 128.62 46.57 129.24 45.91 129.87 C 41.43 128.99 37.73 126.25 34.42 123.26 C 34.45 120.20 34.23 117.14 33.37 114.18 Z" />
<path fill="#010101" opacity="1.00" d=" M 81.22 123.49 C 83.33 119.89 85.87 116.23 89.90 114.63 C 95.66 113.16 101.93 114.85 106.29 118.88 C 112.07 124.19 115.88 131.18 120.28 137.58 C 120.66 142.01 120.24 146.49 120.46 150.94 C 121.79 150.02 123.11 149.08 124.48 148.21 C 125.66 152.30 121.37 154.68 119.62 157.81 C 119.22 159.51 119.24 161.26 119.14 162.99 C 115.14 164.27 112.64 168.16 112.19 172.21 C 109.80 172.71 107.46 173.42 105.18 174.28 C 103.54 174.47 101.90 174.64 100.26 174.81 L 100.32 173.86 C 95.15 171.48 89.30 173.72 83.97 172.10 C 83.24 171.25 82.62 170.33 82.11 169.34 C 81.33 169.40 79.79 169.53 79.02 169.59 C 77.83 168.17 76.73 166.65 76.09 164.90 C 75.76 163.88 75.44 162.86 75.11 161.84 C 74.24 158.94 74.39 155.88 74.13 152.90 C 73.87 151.59 73.75 150.27 73.79 148.93 C 74.64 143.36 74.48 137.63 76.11 132.15 C 76.46 128.60 79.59 126.44 81.22 123.49 M 92.24 118.67 C 92.19 120.67 92.21 122.67 92.28 124.67 C 93.93 124.64 95.58 124.59 97.23 124.53 C 97.34 122.54 97.52 120.56 97.73 118.58 C 95.90 118.62 94.07 118.65 92.24 118.67 M 99.40 120.28 C 100.21 123.02 100.88 125.93 102.98 128.03 C 106.92 125.47 103.26 119.83 99.40 120.28 M 86.90 128.95 C 84.85 129.63 81.57 128.30 80.82 130.95 C 78.44 137.92 77.31 145.33 77.19 152.68 C 77.70 152.56 78.72 152.31 79.23 152.19 C 79.33 151.11 79.43 150.04 79.53 148.97 C 84.78 147.45 90.41 145.07 95.85 147.18 C 98.83 148.71 102.30 149.06 105.55 148.19 C 104.34 147.79 101.92 146.98 100.71 146.57 C 102.86 146.46 105.12 146.16 107.21 146.82 C 110.70 148.68 113.72 151.38 117.47 152.76 C 117.46 150.87 117.41 148.97 116.96 147.12 C 115.77 142.76 113.55 138.72 110.46 135.42 C 108.75 134.07 109.52 131.75 109.35 129.91 C 108.14 127.94 106.40 126.63 104.22 128.25 C 103.85 128.25 103.11 128.26 102.74 128.27 C 101.23 127.54 99.75 126.70 98.13 126.27 C 94.04 125.21 91.09 129.56 86.90 128.95 M 88.88 150.55 C 86.28 152.76 83.43 154.76 80.11 155.73 C 80.28 156.55 80.45 157.38 80.62 158.21 C 82.56 158.99 84.58 159.55 86.69 159.70 C 86.71 161.56 87.06 163.40 88.10 164.97 C 89.63 162.76 88.66 159.49 90.84 157.72 C 91.96 157.23 93.14 156.86 94.30 156.45 C 94.60 154.36 95.17 152.32 95.68 150.28 C 93.41 150.17 91.13 150.22 88.88 150.55 M 101.87 152.62 C 99.69 153.84 97.21 155.12 96.93 157.92 C 98.02 158.91 98.62 160.13 98.74 161.58 C 97.78 161.55 95.86 161.49 94.90 161.46 C 94.22 161.08 93.54 160.71 92.86 160.34 C 92.58 160.94 92.01 162.16 91.73 162.77 C 91.67 163.16 91.56 163.95 91.51 164.34 C 93.40 165.80 95.77 165.50 97.98 165.26 C 98.29 161.22 101.47 158.05 104.99 156.41 C 106.79 157.22 108.42 158.31 109.96 159.53 C 111.50 158.58 113.07 157.65 114.79 157.06 C 112.98 155.50 111.11 153.98 108.92 152.99 C 106.62 152.35 104.23 152.44 101.87 152.62 M 77.35 160.62 C 77.55 160.87 77.97 161.39 78.18 161.64 C 78.82 163.26 80.20 164.36 81.43 165.52 C 82.05 165.51 83.29 165.49 83.91 165.47 C 82.51 163.13 80.20 160.84 77.35 160.62 M 102.69 161.63 C 101.93 162.78 101.40 164.05 101.10 165.40 C 102.44 165.53 103.78 165.67 105.11 165.83 C 106.57 166.30 108.10 166.40 109.62 166.51 C 109.57 166.00 109.46 164.99 109.41 164.49 C 108.63 163.60 107.85 162.70 107.07 161.82 C 106.35 161.46 105.64 161.10 104.92 160.75 C 104.18 161.05 103.44 161.34 102.69 161.63 Z" />
</g>
<g id="#fefefeff">
<path fill="#fefefe" opacity="1.00" d=" M 107.63 15.65 L 107.88 15.70 C 113.16 17.74 118.94 15.98 124.43 16.53 C 125.46 17.93 126.14 19.54 126.92 21.08 C 128.16 21.80 129.73 22.14 130.67 23.27 C 133.67 28.06 138.91 30.78 143.80 33.30 C 144.32 33.43 145.36 33.69 145.89 33.82 C 147.11 36.93 150.29 38.27 152.46 40.54 C 154.25 43.60 154.13 47.32 154.83 50.70 C 155.96 52.64 158.32 53.08 160.19 53.98 C 160.64 57.99 162.90 62.23 167.14 63.12 C 167.30 63.87 167.61 65.35 167.76 66.10 C 167.14 66.49 165.90 67.28 165.28 67.67 C 165.87 70.27 167.02 72.70 168.30 75.02 C 168.39 76.80 168.47 78.57 168.53 80.35 C 170.85 81.98 174.27 82.88 174.91 86.05 C 175.70 89.04 177.97 91.21 180.43 92.92 C 182.14 96.82 180.60 101.28 182.35 105.16 C 185.11 111.87 184.70 119.29 186.13 126.30 C 187.14 130.20 185.15 134.55 187.23 138.16 C 187.80 144.19 188.38 150.23 189.42 156.21 C 189.80 161.77 189.51 167.37 189.21 172.94 C 189.05 175.55 190.38 178.01 190.29 180.58 C 189.06 182.31 187.37 183.64 185.88 185.14 C 185.43 187.64 184.18 189.86 182.75 191.92 C 182.90 196.09 182.91 200.35 181.47 204.33 C 177.85 204.21 175.16 206.48 174.56 210.03 C 174.85 210.74 175.43 212.17 175.72 212.88 C 174.20 212.93 172.68 212.96 171.16 212.99 C 173.56 208.79 174.00 203.67 177.20 199.92 C 177.62 195.67 180.72 192.23 180.69 187.89 C 181.35 187.73 182.67 187.40 183.33 187.23 C 184.38 184.05 184.57 180.51 186.52 177.68 C 188.37 175.60 187.30 172.70 187.58 170.19 C 187.39 170.92 187.01 172.39 186.81 173.12 L 185.57 174.37 C 185.51 169.86 185.40 165.33 186.48 160.93 C 185.39 147.43 183.49 133.96 183.20 120.39 C 182.25 120.26 180.36 120.02 179.41 119.90 C 180.32 119.84 182.14 119.73 183.05 119.68 C 181.96 113.07 182.50 106.01 179.39 99.87 C 176.24 92.38 170.33 86.51 166.99 79.12 C 164.56 74.39 164.07 69.03 163.60 63.83 C 158.68 59.47 156.16 53.25 151.83 48.40 C 150.35 44.62 147.49 41.57 146.25 37.69 C 144.66 37.40 142.34 38.23 141.65 36.23 C 140.09 33.06 136.72 31.76 133.74 30.30 C 128.86 28.30 127.13 22.89 123.67 19.32 C 123.16 19.34 122.13 19.36 121.62 19.38 C 121.75 20.13 122.01 21.65 122.14 22.40 C 120.74 22.90 118.99 22.90 117.94 24.11 C 126.33 25.53 131.57 32.53 138.24 37.01 C 137.77 39.37 137.52 41.75 137.26 44.14 C 133.00 37.64 129.26 30.13 122.05 26.41 C 121.61 26.81 120.73 27.59 120.29 27.98 C 122.82 32.13 128.61 33.19 130.15 38.08 C 124.44 35.98 119.84 31.14 117.81 25.42 C 116.49 21.00 111.20 20.53 107.49 19.23 C 107.41 20.15 107.25 22.00 107.17 22.93 C 103.71 21.40 100.95 18.78 97.87 16.65 C 101.03 15.64 104.36 15.81 107.63 15.65 Z" />
<path fill="#fefefe" opacity="1.00" d=" M 88.16 19.43 C 88.90 16.39 92.81 17.77 95.04 16.81 C 95.63 16.78 96.80 16.72 97.39 16.68 C 97.54 20.00 102.06 20.50 101.81 23.87 C 98.74 22.43 95.94 20.52 93.18 18.56 C 92.10 18.53 89.95 18.48 88.87 18.46 C 88.90 22.47 93.66 22.41 96.27 24.15 C 94.20 24.81 92.07 25.22 89.93 25.48 C 81.26 26.61 73.74 31.74 65.11 33.02 C 61.23 33.66 56.90 34.22 54.09 37.26 C 52.28 39.52 50.91 42.08 49.11 44.34 C 48.53 44.45 47.36 44.68 46.77 44.80 C 46.07 46.35 45.55 48.02 44.51 49.39 C 42.48 51.21 39.48 50.24 37.03 50.69 C 37.53 51.69 38.55 53.70 39.05 54.70 C 37.31 54.42 35.62 53.91 33.97 53.29 L 34.53 50.41 C 35.63 46.73 40.31 48.36 42.76 46.33 C 45.55 44.64 46.95 41.54 49.35 39.42 C 51.72 37.37 53.84 35.05 55.74 32.55 C 58.13 32.44 60.58 32.64 62.92 32.07 C 65.55 31.41 67.48 29.42 69.41 27.66 C 72.68 27.74 75.63 26.43 78.41 24.86 C 81.13 23.22 84.39 23.46 87.43 23.18 C 87.47 21.95 87.51 20.71 87.53 19.47 L 88.16 19.43 Z" />
<path fill="#fefefe" opacity="1.00" d=" M 109.95 26.12 C 112.72 26.72 116.05 28.70 115.66 31.96 C 113.31 30.52 111.25 28.57 109.95 26.12 Z" />
<path fill="#fefefe" opacity="1.00" d=" M 76.91 31.61 C 83.37 28.07 91.21 28.37 98.26 26.58 C 102.47 28.80 106.87 31.10 110.69 34.06 L 110.90 36.26 C 108.56 36.34 106.22 36.33 103.89 36.23 C 95.02 34.04 86.18 31.10 76.91 31.61 Z" />
<path fill="#fefefe" opacity="1.00" d=" M 59.11 38.05 C 63.05 34.99 68.32 35.79 72.94 34.94 C 81.30 34.28 90.06 34.07 98.00 37.18 C 100.26 37.99 101.92 39.86 104.08 40.85 C 107.95 40.76 111.86 39.88 115.69 40.88 C 121.52 42.39 126.71 45.55 132.22 47.89 C 132.37 49.70 132.51 51.51 132.62 53.33 C 128.56 53.39 124.24 52.76 120.48 54.66 C 120.45 55.27 120.39 56.50 120.36 57.11 C 122.26 56.28 124.15 55.42 126.03 54.51 C 130.30 54.41 134.21 56.29 138.01 57.98 C 138.72 62.41 144.04 63.80 144.78 68.23 C 150.94 70.38 151.85 77.69 156.11 81.90 C 155.27 86.27 160.30 88.63 159.63 92.92 C 160.44 99.82 155.23 105.80 149.15 108.23 C 142.25 108.67 135.29 108.51 128.45 107.47 C 127.61 107.97 126.78 108.47 125.95 108.97 C 132.10 110.95 138.62 111.06 145.01 110.74 C 149.41 110.63 153.66 108.77 157.00 105.96 C 161.26 102.46 162.90 96.55 162.20 91.22 C 161.76 88.14 158.74 86.13 158.58 82.95 C 157.95 77.73 152.69 74.74 151.37 69.82 C 150.85 67.59 152.67 66.02 154.33 64.95 C 159.35 74.41 166.23 83.00 169.51 93.31 C 170.08 93.32 171.21 93.34 171.78 93.35 L 171.52 91.58 C 173.17 93.25 175.20 94.78 175.83 97.18 C 178.15 104.45 182.34 111.47 181.54 119.38 C 179.52 117.92 179.42 115.23 178.51 113.11 C 176.54 106.74 172.86 100.92 171.94 94.24 C 171.46 94.91 170.99 95.58 170.52 96.25 C 171.24 98.82 171.34 101.50 171.74 104.12 C 172.84 108.84 176.70 112.30 177.88 116.98 C 180.04 125.17 180.85 133.66 180.77 142.11 L 181.28 142.85 C 181.28 150.02 181.25 157.20 181.28 164.38 C 181.86 164.67 183.02 165.24 183.60 165.53 C 183.40 169.80 182.35 173.98 182.45 178.27 C 174.48 188.27 173.10 201.49 168.27 212.99 C 128.83 212.99 89.39 213.04 49.95 212.96 C 33.29 213.25 16.65 212.29 0.00 212.74 L 0.00 212.42 C 8.20 212.26 16.41 212.32 24.61 212.40 C 24.56 210.11 24.25 207.83 23.61 205.63 C 22.56 205.15 21.52 204.68 20.48 204.22 C 19.79 201.75 19.25 199.23 18.21 196.88 C 16.09 192.32 20.03 185.76 14.61 182.68 C 13.03 182.56 11.43 182.52 9.89 182.08 C 9.00 177.76 10.22 173.31 9.34 168.97 C 8.28 166.39 7.60 163.67 6.77 161.02 C 5.66 158.10 7.23 154.80 5.71 152.00 C 4.06 147.58 4.27 142.69 3.41 138.06 C 3.48 128.70 3.17 119.36 3.22 109.99 C 3.12 108.25 3.68 106.60 4.28 105.00 C 3.36 101.05 3.09 96.99 3.54 92.96 C 6.04 91.95 8.55 90.78 10.36 88.71 C 10.55 87.12 10.40 85.44 11.02 83.94 C 12.39 83.16 13.94 82.79 15.44 82.33 C 16.42 80.46 16.67 78.35 16.85 76.27 L 17.57 77.57 C 16.99 84.99 8.73 91.28 13.02 99.05 C 13.59 96.92 14.18 94.79 14.93 92.71 C 15.16 93.51 15.50 94.36 15.19 95.20 C 13.46 101.77 10.48 107.99 9.63 114.79 C 8.90 123.36 10.47 131.90 10.55 140.48 L 11.84 139.14 C 10.43 149.82 15.16 159.82 16.80 170.16 C 16.93 170.31 17.20 170.59 17.33 170.74 C 17.88 173.78 18.61 176.79 19.47 179.76 C 17.48 177.26 15.43 174.79 13.65 172.13 C 11.60 169.25 11.56 165.57 10.83 162.24 C 10.22 156.16 9.30 150.09 9.29 143.96 C 9.04 136.99 9.90 130.01 9.20 123.05 C 7.92 112.87 9.63 102.47 7.15 92.42 C 6.23 96.89 6.64 101.49 6.40 106.02 C 6.26 121.34 5.80 136.76 8.07 151.97 C 8.34 153.98 8.58 156.01 9.08 157.98 C 9.40 159.96 9.74 161.94 10.43 163.83 C 10.46 166.61 9.93 169.46 10.60 172.19 C 13.28 177.65 17.88 181.93 20.31 187.52 C 20.84 190.64 20.25 193.93 21.38 196.96 C 22.61 200.61 23.93 204.24 24.55 208.06 C 25.45 209.49 26.28 210.96 27.05 212.47 C 27.60 212.01 28.16 211.54 28.71 211.09 C 25.92 204.46 23.30 197.45 23.64 190.14 C 28.11 194.43 30.59 200.58 35.84 204.09 C 38.23 205.81 41.21 206.31 44.04 206.85 C 46.72 209.71 50.22 211.52 53.85 212.86 C 54.24 209.29 50.80 208.00 47.89 208.04 C 43.75 203.62 37.32 202.97 32.89 199.08 C 31.18 193.96 27.55 190.06 23.77 186.37 C 21.19 173.53 17.14 161.05 13.35 148.53 L 12.50 148.50 C 12.29 134.35 11.53 120.04 13.85 106.00 C 14.35 101.75 17.69 98.54 18.16 94.28 C 18.98 89.07 17.69 82.78 21.54 78.55 C 27.80 74.32 33.72 69.19 37.35 62.45 C 38.50 60.51 39.43 57.83 42.18 58.05 C 43.15 54.03 47.16 51.26 46.68 46.84 C 51.68 45.26 55.16 41.23 59.11 38.05 M 63.72 50.23 C 62.58 52.47 62.05 54.95 60.87 57.17 C 60.25 55.99 61.05 53.16 58.96 53.57 C 54.32 56.55 52.42 62.48 47.20 64.81 C 47.21 65.93 47.21 67.05 47.23 68.17 C 45.25 73.67 39.45 75.77 35.81 79.83 C 34.68 84.60 32.96 89.21 32.05 94.03 C 30.90 98.06 31.30 102.31 31.64 106.42 L 32.66 106.16 C 32.76 106.63 32.94 107.57 33.04 108.05 C 33.23 102.39 33.24 96.42 36.28 91.42 C 38.01 88.07 41.89 86.52 45.49 86.39 C 42.75 94.34 49.02 104.62 57.93 103.73 C 60.67 102.30 62.46 99.53 64.31 97.12 C 64.60 96.11 64.92 95.10 65.26 94.10 C 65.33 92.71 65.33 91.31 65.26 89.92 C 61.39 86.34 56.04 85.20 51.04 84.15 C 59.86 78.27 73.03 85.86 72.93 96.33 C 75.48 96.78 78.15 96.67 79.84 94.32 C 79.26 99.96 77.38 105.51 74.20 110.22 C 69.76 116.39 63.93 121.35 58.85 126.98 C 55.36 129.96 50.02 126.65 46.73 130.04 C 50.91 130.93 55.19 130.51 59.43 130.40 C 63.96 124.10 70.31 119.41 75.00 113.24 C 79.81 106.93 82.44 98.87 81.42 90.92 C 75.45 89.48 71.66 84.39 68.42 79.58 C 63.23 79.85 58.04 79.40 52.86 79.80 C 49.89 80.41 46.94 81.13 43.94 81.60 C 44.28 81.28 44.95 80.64 45.29 80.32 C 48.70 77.09 52.10 73.85 55.45 70.57 C 60.24 66.01 65.98 62.59 72.06 60.06 C 73.68 59.60 75.36 59.42 77.04 59.20 C 76.88 55.36 72.33 56.39 69.73 56.57 C 65.82 58.67 62.67 61.97 58.63 63.81 C 58.42 64.02 58.01 64.44 57.80 64.65 C 57.76 64.18 57.68 63.24 57.64 62.77 C 60.07 60.29 63.06 58.48 65.63 56.16 C 65.49 54.19 66.67 50.61 63.72 50.23 M 124.82 56.65 C 121.16 58.73 118.42 62.01 115.24 64.70 C 114.06 64.67 112.88 64.64 111.70 64.62 C 110.93 68.44 109.01 71.84 106.99 75.11 C 104.37 79.38 104.02 84.54 104.57 89.40 C 107.88 93.09 111.05 96.92 113.70 101.11 C 116.46 104.57 120.67 106.35 124.46 108.43 C 125.31 108.00 126.16 107.57 127.01 107.14 C 117.68 104.03 112.83 94.81 106.31 88.17 C 106.19 79.34 110.32 69.45 119.00 66.03 C 120.28 65.61 121.59 65.31 122.90 65.02 C 122.05 67.37 121.47 69.81 121.68 72.33 C 122.98 75.70 124.93 78.83 127.62 81.28 C 129.28 82.85 131.72 82.22 133.75 82.06 C 136.06 81.56 138.92 81.40 140.31 79.19 C 140.88 76.14 140.74 73.02 140.33 69.96 C 140.04 69.45 139.48 68.44 139.20 67.93 C 137.33 65.82 134.91 64.37 132.17 63.70 C 131.36 63.73 129.73 63.79 128.92 63.82 C 128.10 64.04 126.46 64.49 125.64 64.72 C 125.60 62.70 125.53 60.69 125.46 58.67 C 127.32 58.51 129.19 58.44 131.06 58.40 C 129.73 56.26 127.08 55.63 124.82 56.65 M 33.37 114.18 C 34.23 117.14 34.45 120.20 34.42 123.26 C 37.73 126.25 41.43 128.99 45.91 129.87 C 46.57 129.24 47.23 128.62 47.91 128.01 C 45.86 127.64 43.96 126.81 42.11 125.88 C 38.36 123.16 36.21 118.86 35.14 114.44 C 34.70 114.38 33.81 114.25 33.37 114.18 M 81.22 123.49 C 79.59 126.44 76.46 128.60 76.11 132.15 C 74.48 137.63 74.64 143.36 73.79 148.93 C 73.75 150.27 73.87 151.59 74.13 152.90 C 74.39 155.88 74.24 158.94 75.11 161.84 C 75.44 162.86 75.76 163.88 76.09 164.90 C 76.73 166.65 77.83 168.17 79.02 169.59 C 79.79 169.53 81.33 169.40 82.11 169.34 C 82.62 170.33 83.24 171.25 83.97 172.10 C 89.30 173.72 95.15 171.48 100.32 173.86 L 100.26 174.81 C 101.90 174.64 103.54 174.47 105.18 174.28 C 107.46 173.42 109.80 172.71 112.19 172.21 C 112.64 168.16 115.14 164.27 119.14 162.99 C 119.24 161.26 119.22 159.51 119.62 157.81 C 121.37 154.68 125.66 152.30 124.48 148.21 C 123.11 149.08 121.79 150.02 120.46 150.94 C 120.24 146.49 120.66 142.01 120.28 137.58 C 115.88 131.18 112.07 124.19 106.29 118.88 C 101.93 114.85 95.66 113.16 89.90 114.63 C 85.87 116.23 83.33 119.89 81.22 123.49 Z" />
<path fill="#fefefe" opacity="1.00" d=" M 140.63 39.09 C 146.08 42.85 148.04 49.79 148.63 56.05 C 143.28 52.27 140.45 45.55 140.63 39.09 Z" />
<path fill="#fefefe" opacity="1.00" d=" M 134.64 52.27 C 135.51 52.36 136.39 52.45 137.27 52.55 C 137.43 53.17 137.75 54.42 137.91 55.04 C 136.80 54.81 135.69 54.58 134.59 54.35 C 134.60 53.83 134.62 52.79 134.64 52.27 Z" />
<path fill="#fefefe" opacity="1.00" d=" M 31.11 59.35 C 32.06 57.32 33.01 55.25 34.53 53.58 C 34.56 55.02 34.62 57.89 34.65 59.33 C 30.39 60.96 29.16 65.78 25.40 67.98 C 25.67 68.49 26.21 69.51 26.48 70.02 C 24.23 73.37 21.08 75.95 18.32 78.86 C 18.45 76.39 18.64 73.93 18.61 71.46 L 16.98 71.46 C 17.50 69.28 18.83 68.84 20.96 70.14 C 21.26 70.17 21.86 70.22 22.15 70.25 C 24.78 67.26 22.34 62.15 26.33 60.19 C 28.06 60.86 29.62 60.11 31.11 59.35 Z" />
<path fill="#fefefe" opacity="1.00" d=" M 152.57 56.13 C 156.41 60.93 161.51 65.60 161.85 72.16 C 158.78 71.86 158.95 68.33 157.72 66.20 C 157.09 64.28 155.41 63.09 153.73 62.17 C 153.44 61.08 153.10 60.02 152.71 58.97 C 152.65 58.02 152.60 57.07 152.57 56.13 Z" />
<path fill="#fefefe" opacity="1.00" d=" M 48.61 87.34 C 49.95 87.40 51.30 87.46 52.64 87.55 C 52.42 87.84 51.99 88.43 51.77 88.72 C 51.00 89.64 50.21 90.55 49.42 91.46 C 48.89 91.48 47.82 91.53 47.29 91.55 C 47.43 90.06 47.69 88.58 48.61 87.34 Z" />
<path fill="#fefefe" opacity="1.00" d=" M 92.24 118.67 C 94.07 118.65 95.90 118.62 97.73 118.58 C 97.52 120.56 97.34 122.54 97.23 124.53 C 95.58 124.59 93.93 124.64 92.28 124.67 C 92.21 122.67 92.19 120.67 92.24 118.67 Z" />
<path fill="#fefefe" opacity="1.00" d=" M 99.40 120.28 C 103.26 119.83 106.92 125.47 102.98 128.03 C 100.88 125.93 100.21 123.02 99.40 120.28 Z" />
<path fill="#fefefe" opacity="1.00" d=" M 86.90 128.95 C 91.09 129.56 94.04 125.21 98.13 126.27 C 99.75 126.70 101.23 127.54 102.74 128.27 C 103.11 128.26 103.85 128.25 104.22 128.25 C 106.40 126.63 108.14 127.94 109.35 129.91 C 109.52 131.75 108.75 134.07 110.46 135.42 C 113.55 138.72 115.77 142.76 116.96 147.12 C 117.41 148.97 117.46 150.87 117.47 152.76 C 113.72 151.38 110.70 148.68 107.21 146.82 C 105.12 146.16 102.86 146.46 100.71 146.57 C 101.92 146.98 104.34 147.79 105.55 148.19 C 102.30 149.06 98.83 148.71 95.85 147.18 C 90.41 145.07 84.78 147.45 79.53 148.97 C 79.43 150.04 79.33 151.11 79.23 152.19 C 78.72 152.31 77.70 152.56 77.19 152.68 C 77.31 145.33 78.44 137.92 80.82 130.95 C 81.57 128.30 84.85 129.63 86.90 128.95 Z" />
<path fill="#fefefe" opacity="1.00" d=" M 88.88 150.55 C 91.13 150.22 93.41 150.17 95.68 150.28 C 95.17 152.32 94.60 154.36 94.30 156.45 C 93.14 156.86 91.96 157.23 90.84 157.72 C 88.66 159.49 89.63 162.76 88.10 164.97 C 87.06 163.40 86.71 161.56 86.69 159.70 C 84.58 159.55 82.56 158.99 80.62 158.21 C 80.45 157.38 80.28 156.55 80.11 155.73 C 83.43 154.76 86.28 152.76 88.88 150.55 Z" />
<path fill="#fefefe" opacity="1.00" d=" M 101.87 152.62 C 104.23 152.44 106.62 152.35 108.92 152.99 C 111.11 153.98 112.98 155.50 114.79 157.06 C 113.07 157.65 111.50 158.58 109.96 159.53 C 108.42 158.31 106.79 157.22 104.99 156.41 C 101.47 158.05 98.29 161.22 97.98 165.26 C 95.77 165.50 93.40 165.80 91.51 164.34 C 91.56 163.95 91.67 163.16 91.73 162.77 C 92.01 162.16 92.58 160.94 92.86 160.34 C 93.54 160.71 94.22 161.08 94.90 161.46 C 95.86 161.49 97.78 161.55 98.74 161.58 C 98.62 160.13 98.02 158.91 96.93 157.92 C 97.21 155.12 99.69 153.84 101.87 152.62 Z" />
<path fill="#fefefe" opacity="1.00" d=" M 77.35 160.62 C 80.20 160.84 82.51 163.13 83.91 165.47 C 83.29 165.49 82.05 165.51 81.43 165.52 C 80.20 164.36 78.82 163.26 78.18 161.64 C 77.97 161.39 77.55 160.87 77.35 160.62 Z" />
<path fill="#fefefe" opacity="1.00" d=" M 102.69 161.63 C 103.44 161.34 104.18 161.05 104.92 160.75 C 105.64 161.10 106.35 161.46 107.07 161.82 C 107.85 162.70 108.63 163.60 109.41 164.49 C 109.46 164.99 109.57 166.00 109.62 166.51 C 108.10 166.40 106.57 166.30 105.11 165.83 C 103.78 165.67 102.44 165.53 101.10 165.40 C 101.40 164.05 101.93 162.78 102.69 161.63 Z" />
</g>
</svg>
