<?xml version="1.0" encoding="UTF-8" ?>
<!DOCTYPE svg PUBLIC "-//W3C//DTD SVG 1.1//EN" "http://www.w3.org/Graphics/SVG/1.1/DTD/svg11.dtd">
<svg width="320pt" height="240pt" viewBox="0 0 320 240" version="1.1" xmlns="http://www.w3.org/2000/svg">
<g id="#c49a48ff">
<path fill="#c49a48" opacity="1.00" d=" M 0.00 0.00 L 10.92 0.00 C 9.12 8.68 11.53 17.70 10.41 26.35 C 8.98 30.96 3.52 27.49 0.00 28.23 L 0.00 0.00 Z" />
</g>
<g id="#a48a3aff">
<path fill="#a48a3a" opacity="1.00" d=" M 10.92 0.00 L 11.90 0.00 C 12.37 8.13 13.31 16.34 12.60 24.46 C 14.01 32.96 4.47 29.14 0.00 30.05 L 0.00 28.23 C 3.52 27.49 8.98 30.96 10.41 26.35 C 11.53 17.70 9.12 8.68 10.92 0.00 Z" />
</g>
<g id="#d3942aff">
<path fill="#d3942a" opacity="1.00" d=" M 11.90 0.00 L 18.10 0.00 C 17.81 1.83 19.00 5.19 16.05 4.68 C 15.68 13.08 12.27 24.23 19.94 30.23 C 14.86 33.36 6.40 30.89 0.00 32.08 L 0.00 30.05 C 4.47 29.14 14.01 32.96 12.60 24.46 C 13.31 16.34 12.37 8.13 11.90 0.00 Z" />
</g>
<g id="#c69e55ff">
<path fill="#c69e55" opacity="1.00" d=" M 18.10 0.00 L 55.13 0.00 C 54.91 7.84 51.05 17.80 57.07 24.03 C 70.61 23.96 84.19 23.77 97.67 25.35 C 104.64 24.67 111.81 23.65 118.98 24.93 C 119.38 24.68 120.18 24.19 120.58 23.94 C 120.74 25.23 120.90 26.52 120.93 27.82 C 114.02 29.69 106.73 28.32 99.74 29.61 C 88.15 29.14 76.61 27.55 64.98 28.00 C 61.44 27.88 54.22 28.70 53.43 23.60 C 51.77 22.34 55.13 12.31 50.61 16.01 C 50.50 13.07 48.73 3.73 48.88 14.94 C 47.66 20.26 49.53 25.65 48.57 30.97 C 47.81 32.01 47.07 33.12 46.86 34.43 C 46.41 53.65 50.57 73.16 47.40 92.38 C 43.90 100.44 34.65 91.44 28.81 96.26 C 24.15 95.77 19.36 97.95 14.88 96.12 C 10.08 93.95 4.80 97.32 0.00 95.17 L 0.00 90.92 C 7.36 89.84 14.50 93.19 21.77 91.97 C 27.89 92.24 33.98 90.93 40.08 92.01 C 42.02 91.86 44.71 92.79 45.86 90.68 C 45.88 75.39 46.71 59.99 45.36 44.75 C 44.67 41.08 44.08 36.82 39.29 37.60 C 26.65 33.74 13.03 37.14 0.00 36.16 L 0.00 32.08 C 6.40 30.89 14.86 33.36 19.94 30.23 C 12.27 24.23 15.68 13.08 16.05 4.68 C 19.00 5.19 17.81 1.83 18.10 0.00 M 30.47 9.35 C 29.53 11.57 25.83 12.14 26.53 14.88 C 23.88 18.49 16.63 18.88 16.96 24.13 C 19.40 20.02 27.03 18.30 26.22 25.07 C 28.69 24.47 30.44 22.43 32.63 21.23 C 33.69 23.17 35.07 24.93 36.95 26.13 C 34.96 22.00 37.18 21.32 40.94 22.66 C 45.95 17.97 40.23 14.66 35.35 13.65 C 35.66 10.57 33.31 9.00 30.47 9.35 Z" />
</g>
<g id="#958f56ff">
<path fill="#958f56" opacity="1.00" d=" M 55.13 0.00 L 56.89 0.00 L 57.22 0.81 C 56.70 3.92 56.22 7.04 56.04 10.20 C 56.00 14.83 56.62 19.43 57.07 24.03 C 51.05 17.80 54.91 7.84 55.13 0.00 Z" />
</g>
<g id="#db8a21ff">
<path fill="#db8a21" opacity="1.00" d=" M 56.89 0.00 L 81.55 0.00 C 80.03 2.86 77.60 4.79 74.60 2.54 C 70.05 0.64 72.58 5.24 76.00 4.32 C 74.36 11.49 65.80 14.76 60.93 20.06 C 63.95 26.68 70.27 9.31 73.86 16.16 C 78.20 22.49 86.24 18.65 90.92 14.85 C 94.97 14.24 99.30 15.18 102.80 17.22 C 105.95 19.45 98.18 20.74 100.94 22.91 C 102.92 24.53 98.61 24.50 97.67 25.35 C 84.19 23.77 70.61 23.96 57.07 24.03 C 56.62 19.43 56.00 14.83 56.04 10.20 C 62.26 9.86 58.86 4.25 57.22 0.81 L 56.89 0.00 Z" />
</g>
<g id="#e3b438ff">
<path fill="#e3b438" opacity="1.00" d=" M 81.55 0.00 L 93.87 0.00 C 99.45 4.43 95.04 11.21 90.92 14.85 C 86.24 18.65 78.20 22.49 73.86 16.16 C 70.27 9.31 63.95 26.68 60.93 20.06 C 65.80 14.76 74.36 11.49 76.00 4.32 C 72.58 5.24 70.05 0.64 74.60 2.54 C 77.60 4.79 80.03 2.86 81.55 0.00 M 89.31 1.31 C 84.85 4.87 75.15 7.66 76.09 14.81 C 82.70 20.86 90.52 12.24 93.73 6.74 C 93.81 4.40 92.59 -0.46 89.31 1.31 Z" />
</g>
<g id="#da9533ff">
<path fill="#da9533" opacity="1.00" d=" M 93.87 0.00 L 118.82 0.00 C 118.96 0.41 119.23 1.22 119.36 1.63 C 114.70 2.99 104.08 7.28 109.81 12.97 C 108.93 15.50 104.44 19.97 112.98 17.00 C 116.83 17.03 115.97 22.96 118.98 24.93 C 111.81 23.65 104.64 24.67 97.67 25.35 C 98.61 24.50 102.92 24.53 100.94 22.91 C 98.18 20.74 105.95 19.45 102.80 17.22 C 99.30 15.18 94.97 14.24 90.92 14.85 C 95.04 11.21 99.45 4.43 93.87 0.00 Z" />
</g>
<g id="#cba655ff">
<path fill="#cba655" opacity="1.00" d=" M 118.82 0.00 L 121.97 0.00 C 122.01 4.74 121.84 9.48 122.09 14.21 C 126.26 11.10 123.23 4.60 124.03 0.00 L 157.89 0.00 C 158.00 0.67 158.21 2.01 158.31 2.69 C 156.46 11.54 158.99 20.53 156.64 29.28 C 150.78 27.81 144.40 28.00 138.61 29.61 C 142.77 30.51 147.60 29.36 151.27 31.98 C 148.06 35.40 143.73 36.68 139.03 35.81 C 135.95 37.81 130.46 31.12 128.98 35.95 C 126.95 41.44 132.65 52.46 126.87 55.38 L 125.98 55.25 C 127.04 48.48 127.95 41.69 126.24 34.96 C 128.89 28.14 123.73 31.13 120.95 30.44 C 123.57 26.95 125.83 16.36 120.65 16.14 C 119.60 11.35 121.52 6.18 119.36 1.63 C 119.23 1.22 118.96 0.41 118.82 0.00 M 131.28 2.14 C 128.40 8.62 132.18 17.76 129.98 25.05 C 136.12 22.45 131.45 11.52 132.40 5.78 C 131.28 1.43 139.06 5.05 140.07 2.01 C 137.15 1.86 134.19 2.02 131.28 2.14 M 150.14 6.78 C 150.06 9.27 149.89 14.26 149.81 16.75 C 148.75 18.99 145.86 15.82 144.75 17.67 C 141.32 20.98 151.63 17.16 150.77 18.88 C 152.18 15.32 153.89 9.25 150.14 6.78 M 134.96 8.01 C 135.34 11.02 135.77 13.99 135.03 16.99 C 137.24 22.50 139.68 5.74 134.96 8.01 Z" />
</g>
<g id="#708d54ff">
<path fill="#708d54" opacity="1.00" d=" M 121.97 0.00 L 124.03 0.00 C 123.23 4.60 126.26 11.10 122.09 14.21 C 121.84 9.48 122.01 4.74 121.97 0.00 Z" />
</g>
<g id="#d19538ff">
<path fill="#d19538" opacity="1.00" d=" M 157.89 0.00 L 168.28 0.00 C 163.08 0.71 168.05 8.51 163.00 4.15 C 161.39 6.76 165.01 16.80 160.24 19.20 C 157.78 13.96 161.71 7.33 158.31 2.69 C 158.21 2.01 158.00 0.67 157.89 0.00 Z" />
</g>
<g id="#c39d53ff">
<path fill="#c39d53" opacity="1.00" d=" M 168.28 0.00 L 202.27 0.00 C 201.85 2.31 201.31 4.60 200.68 6.86 C 196.35 11.31 190.79 14.23 186.14 18.28 C 185.98 21.03 187.87 23.48 189.25 25.73 C 191.97 25.07 194.02 26.39 195.82 28.29 C 197.13 26.73 193.86 15.49 198.58 20.60 C 201.56 17.88 203.88 14.48 206.96 11.83 C 205.59 15.67 201.12 21.92 206.27 24.58 C 212.76 24.65 219.26 24.48 225.72 23.75 C 235.63 25.69 245.78 26.39 255.84 26.71 C 260.06 23.49 266.88 28.61 268.06 21.85 C 268.55 22.17 269.52 22.81 270.00 23.13 C 272.71 32.90 259.94 26.60 258.23 33.17 C 254.66 35.91 251.18 36.70 250.67 31.29 C 242.26 29.83 232.62 27.94 224.81 32.34 C 225.18 35.15 219.65 38.64 224.93 38.26 C 223.92 40.24 222.79 42.17 222.03 44.27 C 224.34 43.23 226.14 41.39 228.20 39.96 C 227.59 43.03 225.31 45.41 224.95 48.57 C 222.28 47.23 220.54 49.90 224.05 50.03 C 219.04 57.94 223.57 69.68 221.90 78.97 C 218.29 78.10 212.55 80.77 209.74 78.23 C 209.87 72.52 209.79 66.81 210.12 61.11 C 211.90 58.22 215.03 56.26 216.20 52.99 C 213.65 54.12 207.21 63.13 210.27 53.45 C 211.16 52.21 216.16 49.69 212.11 50.40 C 212.35 46.29 208.85 44.07 206.19 41.56 C 201.44 31.69 207.06 52.54 198.70 49.25 C 203.83 43.12 197.54 33.43 205.66 29.74 C 204.61 25.89 198.21 26.66 197.26 31.26 C 193.09 32.44 194.32 36.19 195.12 39.42 C 194.52 41.00 194.00 42.60 193.56 44.24 C 190.34 33.79 176.26 37.79 168.00 36.96 C 161.03 38.59 147.83 33.24 146.70 43.82 C 144.56 48.42 151.05 43.17 152.03 46.77 C 151.30 47.80 150.59 48.84 149.86 49.87 C 148.37 50.12 145.38 50.62 143.88 50.87 C 140.21 59.17 144.71 45.08 139.95 46.00 C 139.37 50.39 140.19 55.40 143.84 58.27 C 144.11 68.25 144.01 78.22 143.99 88.20 C 137.84 87.13 137.93 76.80 137.80 71.89 C 139.43 67.79 134.28 68.32 132.98 71.07 C 133.02 66.63 133.11 62.19 133.24 57.75 C 134.48 58.48 135.72 59.23 136.99 59.92 C 135.40 52.83 136.14 45.93 138.08 39.14 C 136.62 39.10 133.68 39.01 132.22 38.97 C 133.47 36.02 131.67 35.52 128.98 35.95 C 130.46 31.12 135.95 37.81 139.03 35.81 C 143.73 36.68 148.06 35.40 151.27 31.98 C 156.44 32.42 162.03 33.09 166.86 30.79 C 168.72 26.89 160.12 29.51 163.04 26.09 C 166.32 22.25 170.06 18.87 174.11 15.86 C 169.32 16.26 166.09 20.04 163.09 23.35 C 162.16 22.20 161.22 21.06 160.27 19.92 L 160.24 19.20 C 165.01 16.80 161.39 6.76 163.00 4.15 C 168.05 8.51 163.08 0.71 168.28 0.00 M 216.27 35.22 C 214.86 36.58 212.84 37.84 212.94 40.04 C 216.85 41.67 222.51 33.93 216.27 35.22 Z" />
</g>
<g id="#68885eff">
<path fill="#68885e" opacity="1.00" d=" M 202.27 0.00 L 204.08 0.00 C 203.48 4.36 203.51 15.98 200.68 6.86 C 201.31 4.60 201.85 2.31 202.27 0.00 Z" />
</g>
<g id="#c4b077ff">
<path fill="#c4b077" opacity="1.00" d=" M 204.08 0.00 L 204.94 0.00 C 204.22 4.20 205.59 8.02 206.96 11.83 C 203.88 14.48 201.56 17.88 198.58 20.60 C 193.86 15.49 197.13 26.73 195.82 28.29 C 194.02 26.39 191.97 25.07 189.25 25.73 C 187.87 23.48 185.98 21.03 186.14 18.28 C 190.79 14.23 196.35 11.31 200.68 6.86 C 203.51 15.98 203.48 4.36 204.08 0.00 Z" />
</g>
<g id="#dc9b3bff">
<path fill="#dc9b3b" opacity="1.00" d=" M 204.94 0.00 L 208.53 0.00 C 209.29 3.63 211.67 2.88 214.07 1.18 C 213.84 4.04 213.34 6.88 213.16 9.75 C 220.50 15.07 229.21 18.20 237.32 22.17 C 233.96 24.76 229.58 23.30 225.72 23.75 C 219.26 24.48 212.76 24.65 206.27 24.58 C 201.12 21.92 205.59 15.67 206.96 11.83 C 205.59 8.02 204.22 4.20 204.94 0.00 Z" />
</g>
<g id="#dfb83fff">
<path fill="#dfb83f" opacity="1.00" d=" M 208.53 0.00 L 261.37 0.00 C 260.15 2.42 258.17 4.13 255.45 4.55 C 252.88 9.13 251.23 14.71 246.37 17.43 C 244.30 18.35 246.90 20.39 247.01 21.89 C 244.19 23.77 240.51 22.03 237.32 22.17 C 229.21 18.20 220.50 15.07 213.16 9.75 C 213.34 6.88 213.84 4.04 214.07 1.18 C 211.67 2.88 209.29 3.63 208.53 0.00 Z" />
</g>
<g id="#dba652ff">
<path fill="#dba652" opacity="1.00" d=" M 261.37 0.00 L 269.03 0.00 C 269.16 7.30 268.96 14.60 268.06 21.85 C 266.88 28.61 260.06 23.49 255.84 26.71 C 245.78 26.39 235.63 25.69 225.72 23.75 C 229.58 23.30 233.96 24.76 237.32 22.17 C 240.51 22.03 244.19 23.77 247.01 21.89 C 246.90 20.39 244.30 18.35 246.37 17.43 C 251.23 14.71 252.88 9.13 255.45 4.55 C 258.17 4.13 260.15 2.42 261.37 0.00 Z" />
</g>
<g id="#919a6aff">
<path fill="#919a6a" opacity="1.00" d=" M 269.03 0.00 L 271.00 0.00 C 270.99 3.08 271.06 6.16 271.06 9.24 C 270.60 13.86 270.13 18.49 270.00 23.13 C 269.52 22.81 268.55 22.17 268.06 21.85 C 268.96 14.60 269.16 7.30 269.03 0.00 Z" />
</g>
<g id="#dac081ff">
<path fill="#dac081" opacity="1.00" d=" M 271.00 0.00 L 276.17 0.00 C 276.73 4.18 275.53 8.55 271.06 9.24 C 271.06 6.16 270.99 3.08 271.00 0.00 Z" />
</g>
<g id="#caa459ff">
<path fill="#caa459" opacity="1.00" d=" M 276.17 0.00 L 320.00 0.00 L 320.00 38.03 C 315.74 37.97 311.49 38.02 307.25 37.81 C 305.44 34.91 302.27 37.21 299.89 37.94 C 294.91 40.19 289.75 36.31 284.60 37.50 C 277.89 35.85 279.27 42.32 278.33 46.26 C 278.19 43.08 278.10 39.90 277.79 36.73 C 275.50 40.06 274.04 47.42 277.91 49.28 C 277.91 50.88 277.91 54.08 277.91 55.68 C 275.68 56.80 275.06 58.90 276.05 61.98 L 275.17 62.07 C 269.74 58.50 278.62 42.24 269.00 45.88 C 268.20 43.15 270.81 35.31 266.01 34.93 C 267.21 44.23 266.16 53.65 266.96 62.99 C 259.43 62.89 251.71 59.32 244.49 62.80 C 240.34 62.21 236.13 62.49 232.34 64.37 C 229.50 69.18 232.37 75.37 230.04 80.46 C 230.00 74.89 229.95 69.30 229.24 63.76 C 227.99 58.90 232.58 47.69 224.05 50.03 C 220.54 49.90 222.28 47.23 224.95 48.57 C 225.31 45.41 227.59 43.03 228.20 39.96 C 226.14 41.39 224.34 43.23 222.03 44.27 C 222.79 42.17 223.92 40.24 224.93 38.26 C 219.65 38.64 225.18 35.15 224.81 32.34 C 232.62 27.94 242.26 29.83 250.67 31.29 C 251.18 36.70 254.66 35.91 258.23 33.17 C 259.94 26.60 272.71 32.90 270.00 23.13 C 270.13 18.49 270.60 13.86 271.06 9.24 C 275.53 8.55 276.73 4.18 276.17 0.00 M 278.01 15.00 L 277.95 20.00 C 277.39 34.05 281.34 15.24 278.01 15.00 M 231.41 34.39 C 226.80 36.66 233.45 38.95 231.67 42.68 C 228.71 49.25 231.66 56.17 231.13 62.97 C 231.59 62.98 232.51 63.00 232.97 63.00 C 230.83 53.34 234.19 43.60 232.95 33.84 C 232.57 33.98 231.80 34.26 231.41 34.39 M 250.29 46.31 C 247.86 48.40 243.23 49.52 242.99 53.13 C 244.76 52.44 255.40 46.47 250.29 46.31 Z" />
</g>
<g id="#d7b35fff">
<path fill="#d7b35f" opacity="1.00" d=" M 57.22 0.81 C 58.86 4.25 62.26 9.86 56.04 10.20 C 56.22 7.04 56.70 3.92 57.22 0.81 Z" />
</g>
<g id="#db962dff">
<path fill="#db962d" opacity="1.00" d=" M 89.31 1.31 C 92.59 -0.46 93.81 4.40 93.73 6.74 C 90.52 12.24 82.70 20.86 76.09 14.81 C 75.15 7.66 84.85 4.87 89.31 1.31 Z" />
</g>
<g id="#dca446ff">
<path fill="#dca446" opacity="1.00" d=" M 109.81 12.97 C 104.08 7.28 114.70 2.99 119.36 1.63 C 121.52 6.18 119.60 11.35 120.65 16.14 C 120.64 18.74 120.54 21.34 120.58 23.94 C 120.18 24.19 119.38 24.68 118.98 24.93 C 115.97 22.96 116.83 17.03 112.98 17.00 C 104.44 19.97 108.93 15.50 109.81 12.97 Z" />
</g>
<g id="#8a9a55ff">
<path fill="#8a9a55" opacity="1.00" d=" M 131.28 2.14 C 134.19 2.02 137.15 1.86 140.07 2.01 C 139.06 5.05 131.28 1.43 132.40 5.78 C 131.45 11.52 136.12 22.45 129.98 25.05 C 132.18 17.76 128.40 8.62 131.28 2.14 Z" />
</g>
<g id="#968e4cff">
<path fill="#968e4c" opacity="1.00" d=" M 158.31 2.69 C 161.71 7.33 157.78 13.96 160.24 19.20 L 160.27 19.92 C 159.92 21.88 160.78 30.22 156.64 29.28 C 158.99 20.53 156.46 11.54 158.31 2.69 Z" />
</g>
<g id="#958c54ff">
<path fill="#958c54" opacity="1.00" d=" M 150.14 6.78 C 153.89 9.25 152.18 15.32 150.77 18.88 C 151.63 17.16 141.32 20.98 144.75 17.67 C 145.86 15.82 148.75 18.99 149.81 16.75 C 149.89 14.26 150.06 9.27 150.14 6.78 Z" />
</g>
<g id="#78914cff">
<path fill="#78914c" opacity="1.00" d=" M 134.96 8.01 C 139.68 5.74 137.24 22.50 135.03 16.99 C 135.77 13.99 135.34 11.02 134.96 8.01 Z" />
</g>
<g id="#c5923eff">
<path fill="#c5923e" opacity="1.00" d=" M 30.47 9.35 C 33.31 9.00 35.66 10.57 35.35 13.65 C 40.23 14.66 45.95 17.97 40.94 22.66 C 37.18 21.32 34.96 22.00 36.95 26.13 C 35.07 24.93 33.69 23.17 32.63 21.23 C 30.44 22.43 28.69 24.47 26.22 25.07 C 27.03 18.30 19.40 20.02 16.96 24.13 C 16.63 18.88 23.88 18.49 26.53 14.88 C 25.83 12.14 29.53 11.57 30.47 9.35 Z" />
</g>
<g id="#9d8c4aff">
<path fill="#9d8c4a" opacity="1.00" d=" M 48.88 14.94 C 48.73 3.73 50.50 13.07 50.61 16.01 C 49.32 19.18 54.16 31.89 48.57 30.97 C 49.53 25.65 47.66 20.26 48.88 14.94 Z" />
</g>
<g id="#d28c38ff">
<path fill="#d28c38" opacity="1.00" d=" M 50.61 16.01 C 55.13 12.31 51.77 22.34 53.43 23.60 C 54.22 28.70 61.44 27.88 64.98 28.00 C 76.61 27.55 88.15 29.14 99.74 29.61 C 106.80 30.05 113.90 29.68 120.95 30.44 C 123.73 31.13 128.89 28.14 126.24 34.96 C 127.95 41.69 127.04 48.48 125.98 55.25 C 125.16 55.25 123.52 55.26 122.71 55.26 C 122.32 53.59 122.07 51.88 121.86 50.18 C 121.51 44.56 123.43 38.01 119.82 33.07 C 112.23 33.93 104.68 33.79 97.07 32.99 C 98.46 35.65 97.26 41.50 93.71 39.37 C 89.54 36.95 97.14 30.55 91.21 32.10 C 87.35 37.45 91.09 44.31 89.13 50.05 C 88.36 50.03 86.82 49.98 86.05 49.96 C 85.85 44.30 88.38 30.14 77.88 33.03 C 79.50 38.58 83.81 43.78 81.68 49.69 C 81.50 50.02 81.14 50.68 80.96 51.02 C 80.68 52.50 80.13 55.48 79.86 56.97 C 75.00 61.52 68.01 59.20 62.06 59.78 C 63.04 58.46 64.09 57.20 65.04 55.85 C 62.64 56.03 59.87 58.53 57.81 56.32 C 57.98 49.61 56.76 41.64 61.09 35.97 C 63.75 35.13 66.59 35.11 69.28 34.39 C 71.43 34.05 73.88 34.13 75.36 32.25 C 68.27 32.50 61.25 30.95 54.20 31.06 C 52.88 41.08 51.77 52.08 53.12 62.48 C 55.65 63.02 64.19 62.46 59.28 64.18 C 50.54 64.10 56.38 76.74 50.82 79.96 C 50.31 64.78 51.20 49.13 46.86 34.43 C 47.07 33.12 47.81 32.01 48.57 30.97 C 54.16 31.89 49.32 19.18 50.61 16.01 Z" />
</g>
<g id="#75884cff">
<path fill="#75884c" opacity="1.00" d=" M 278.01 15.00 C 281.34 15.24 277.39 34.05 277.95 20.00 L 278.01 15.00 Z" />
</g>
<g id="#9c8742ff">
<path fill="#9c8742" opacity="1.00" d=" M 120.65 16.14 C 125.83 16.36 123.57 26.95 120.95 30.44 C 113.90 29.68 106.80 30.05 99.74 29.61 C 106.73 28.32 114.02 29.69 120.93 27.82 C 120.90 26.52 120.74 25.23 120.58 23.94 C 120.54 21.34 120.64 18.74 120.65 16.14 Z" />
</g>
<g id="#8e864bff">
<path fill="#8e864b" opacity="1.00" d=" M 163.09 23.35 C 166.09 20.04 169.32 16.26 174.11 15.86 C 170.06 18.87 166.32 22.25 163.04 26.09 C 163.05 25.40 163.08 24.04 163.09 23.35 Z" />
</g>
<g id="#c6913fff">
<path fill="#c6913f" opacity="1.00" d=" M 160.27 19.92 C 161.22 21.06 162.16 22.20 163.09 23.35 C 163.08 24.04 163.05 25.40 163.04 26.09 C 160.12 29.51 168.72 26.89 166.86 30.79 C 162.03 33.09 156.44 32.42 151.27 31.98 C 147.60 29.36 142.77 30.51 138.61 29.61 C 144.40 28.00 150.78 27.81 156.64 29.28 C 160.78 30.22 159.92 21.88 160.27 19.92 Z" />
</g>
<g id="#d69232ff">
<path fill="#d69232" opacity="1.00" d=" M 197.26 31.26 C 198.21 26.66 204.61 25.89 205.66 29.74 C 197.54 33.43 203.83 43.12 198.70 49.25 C 197.92 50.77 197.91 52.53 197.70 54.19 C 196.75 49.29 196.47 44.25 195.12 39.42 C 194.32 36.19 193.09 32.44 197.26 31.26 Z" />
</g>
<g id="#c89d56ff">
<path fill="#c89d56" opacity="1.00" d=" M 54.20 31.06 C 61.25 30.95 68.27 32.50 75.36 32.25 C 73.88 34.13 71.43 34.05 69.28 34.39 C 64.22 32.70 57.92 33.92 55.57 38.88 C 57.37 43.93 52.86 53.06 57.81 56.32 C 59.87 58.53 62.64 56.03 65.04 55.85 C 64.09 57.20 63.04 58.46 62.06 59.78 C 68.01 59.20 75.00 61.52 79.86 56.97 C 79.98 59.38 80.34 61.75 80.94 64.07 C 81.58 66.92 82.09 69.84 81.90 72.77 C 81.05 77.21 81.08 81.74 81.20 86.23 C 81.14 88.86 81.08 91.50 81.03 94.14 C 74.30 97.65 62.66 91.47 57.80 95.88 C 53.68 94.41 50.56 90.65 51.73 85.86 C 51.17 86.96 50.64 88.08 50.12 89.21 C 50.15 86.11 49.52 82.87 50.82 79.96 C 56.38 76.74 50.54 64.10 59.28 64.18 C 64.19 62.46 55.65 63.02 53.12 62.48 C 51.77 52.08 52.88 41.08 54.20 31.06 M 61.33 68.36 C 59.95 68.67 58.56 68.93 57.18 69.26 C 55.28 76.85 57.47 84.40 56.02 92.09 C 64.13 89.49 55.37 76.17 59.24 70.28 C 61.58 71.13 65.22 67.67 61.33 68.36 M 69.36 73.45 C 67.05 76.21 63.73 73.12 61.11 75.22 C 61.09 77.66 61.03 82.55 61.00 85.00 C 66.33 85.62 59.15 73.88 66.01 75.97 C 72.44 82.56 71.82 72.27 69.36 73.45 Z" />
</g>
<g id="#c59850ff">
<path fill="#c59850" opacity="1.00" d=" M 91.21 32.10 C 97.14 30.55 89.54 36.95 93.71 39.37 C 97.26 41.50 98.46 35.65 97.07 32.99 C 104.68 33.79 112.23 33.93 119.82 33.07 C 123.43 38.01 121.51 44.56 121.86 50.18 C 121.45 49.83 120.64 49.13 120.24 48.78 C 119.95 48.55 119.38 48.07 119.09 47.83 C 116.59 47.70 109.23 44.92 108.10 48.03 C 106.26 59.05 104.95 70.26 102.01 81.02 C 98.00 72.10 98.19 59.94 94.77 50.21 C 93.36 50.17 90.54 50.09 89.13 50.05 C 91.09 44.31 87.35 37.45 91.21 32.10 Z" />
</g>
<g id="#b99453ff">
<path fill="#b99453" opacity="1.00" d=" M 77.88 33.03 C 88.38 30.14 85.85 44.30 86.05 49.96 C 84.59 49.90 83.13 49.81 81.68 49.69 C 83.81 43.78 79.50 38.58 77.88 33.03 Z" />
</g>
<g id="#a78949ff">
<path fill="#a78949" opacity="1.00" d=" M 55.57 38.88 C 57.92 33.92 64.22 32.70 69.28 34.39 C 66.59 35.11 63.75 35.13 61.09 35.97 C 56.76 41.64 57.98 49.61 57.81 56.32 C 52.86 53.06 57.37 43.93 55.57 38.88 Z" />
</g>
<g id="#949056ff">
<path fill="#949056" opacity="1.00" d=" M 231.41 34.39 C 231.80 34.26 232.57 33.98 232.95 33.84 C 234.19 43.60 230.83 53.34 232.97 63.00 C 232.51 63.00 231.59 62.98 231.13 62.97 C 231.66 56.17 228.71 49.25 231.67 42.68 C 233.45 38.95 226.80 36.66 231.41 34.39 Z" />
</g>
<g id="#958852ff">
<path fill="#958852" opacity="1.00" d=" M 47.40 92.38 C 50.57 73.16 46.41 53.65 46.86 34.43 C 51.20 49.13 50.31 64.78 50.82 79.96 C 49.52 82.87 50.15 86.11 50.12 89.21 C 53.77 101.44 37.87 95.56 31.72 97.23 C 30.75 96.91 29.78 96.59 28.81 96.26 C 34.65 91.44 43.90 100.44 47.40 92.38 Z" />
</g>
<g id="#dcb988ff">
<path fill="#dcb988" opacity="1.00" d=" M 216.27 35.22 C 222.51 33.93 216.85 41.67 212.94 40.04 C 212.84 37.84 214.86 36.58 216.27 35.22 Z" />
</g>
<g id="#be9f5cff">
<path fill="#be9f5c" opacity="1.00" d=" M 266.01 34.93 C 270.81 35.31 268.20 43.15 269.00 45.88 C 268.84 51.77 269.35 57.70 268.80 63.58 C 266.30 64.15 263.88 65.06 261.90 66.72 C 265.47 68.04 268.21 70.63 270.82 73.30 C 270.83 73.66 270.84 74.39 270.85 74.75 C 266.48 77.84 270.30 86.02 268.64 90.73 C 267.84 93.47 268.08 96.65 266.21 98.96 C 256.39 98.46 245.64 98.15 236.96 92.93 C 234.83 88.94 238.29 82.67 241.03 80.35 C 246.53 83.95 249.78 78.62 252.99 74.84 C 252.71 69.78 246.04 67.70 244.49 62.80 C 251.71 59.32 259.43 62.89 266.96 62.99 C 266.16 53.65 267.21 44.23 266.01 34.93 Z" />
</g>
<g id="#bc8636ff">
<path fill="#bc8636" opacity="1.00" d=" M 0.00 36.16 C 13.03 37.14 26.65 33.74 39.29 37.60 C 32.88 37.40 26.39 39.56 20.03 38.17 C 13.41 36.89 6.68 38.17 0.00 38.05 L 0.00 36.16 Z" />
</g>
<g id="#818a56ff">
<path fill="#818a56" opacity="1.00" d=" M 128.98 35.95 C 131.67 35.52 133.47 36.02 132.22 38.97 C 131.36 44.61 131.08 50.31 130.93 56.00 C 129.57 55.81 128.22 55.61 126.87 55.38 C 132.65 52.46 126.95 41.44 128.98 35.95 Z" />
</g>
<g id="#d98022ff">
<path fill="#d98022" opacity="1.00" d=" M 299.89 37.94 C 302.27 37.21 305.44 34.91 307.25 37.81 C 315.64 43.61 304.00 48.01 300.72 53.17 C 293.18 52.23 299.24 42.84 299.89 37.94 Z" />
</g>
<g id="#d69015ff">
<path fill="#d69015" opacity="1.00" d=" M 0.00 38.05 C 6.68 38.17 13.41 36.89 20.03 38.17 C 18.50 39.82 16.98 41.59 16.77 43.93 C 10.65 41.89 3.00 38.54 0.00 46.43 L 0.00 38.05 Z" />
</g>
<g id="#d48c31ff">
<path fill="#d48c31" opacity="1.00" d=" M 146.70 43.82 C 147.83 33.24 161.03 38.59 168.00 36.96 C 176.26 37.79 190.34 33.79 193.56 44.24 C 194.19 47.23 196.29 50.88 193.29 53.25 C 192.85 48.50 187.69 50.19 184.28 49.90 C 182.62 45.32 179.29 40.05 173.89 39.90 C 174.60 43.83 178.68 46.80 177.03 51.07 C 173.39 51.78 169.77 52.58 166.16 53.39 C 164.91 50.60 164.99 46.65 162.01 44.95 C 158.08 40.30 156.88 47.11 153.23 48.11 C 152.93 47.77 152.33 47.11 152.03 46.77 C 151.05 43.17 144.56 48.42 146.70 43.82 Z" />
</g>
<g id="#959356ff">
<path fill="#959356" opacity="1.00" d=" M 277.91 49.28 C 274.04 47.42 275.50 40.06 277.79 36.73 C 278.10 39.90 278.19 43.08 278.33 46.26 C 278.23 47.02 278.01 48.53 277.91 49.28 Z" />
</g>
<g id="#dda14cff">
<path fill="#dda14c" opacity="1.00" d=" M 284.60 37.50 C 289.75 36.31 294.91 40.19 299.89 37.94 C 299.24 42.84 293.18 52.23 300.72 53.17 C 301.13 56.37 302.03 59.56 301.96 62.82 C 297.04 65.85 290.66 64.16 285.20 65.21 C 283.56 67.83 284.45 71.01 285.02 73.85 C 283.23 71.47 280.64 71.01 277.87 71.91 C 277.97 66.50 278.10 61.09 277.91 55.68 C 277.91 54.08 277.91 50.88 277.91 49.28 C 278.01 48.53 278.23 47.02 278.33 46.26 C 279.27 42.32 277.89 35.85 284.60 37.50 Z" />
</g>
<g id="#db6f1cff">
<path fill="#db6f1c" opacity="1.00" d=" M 20.03 38.17 C 26.39 39.56 32.88 37.40 39.29 37.60 C 44.08 36.82 44.67 41.08 45.36 44.75 C 47.03 51.38 41.26 54.89 37.63 59.12 C 31.03 53.59 24.37 48.05 16.77 43.93 C 16.98 41.59 18.50 39.82 20.03 38.17 Z" />
</g>
<g id="#98783dff">
<path fill="#98783d" opacity="1.00" d=" M 198.70 49.25 C 207.06 52.54 201.44 31.69 206.19 41.56 C 205.57 44.35 204.52 47.36 205.90 50.06 C 203.49 49.82 201.09 49.55 198.70 49.25 Z" />
</g>
<g id="#dfb43cff">
<path fill="#dfb43c" opacity="1.00" d=" M 307.25 37.81 C 311.49 38.02 315.74 37.97 320.00 38.03 L 320.00 44.79 C 312.21 44.32 305.12 51.03 305.06 58.78 C 309.93 61.92 315.48 55.11 320.00 52.88 L 320.00 62.12 C 315.47 57.95 317.65 62.78 318.99 65.92 C 315.02 69.31 317.70 63.70 315.19 63.14 C 311.00 68.73 308.36 76.49 310.57 83.38 C 311.36 86.24 308.93 88.66 307.86 91.12 C 302.37 89.85 296.74 91.04 291.20 90.96 C 288.81 88.60 290.34 84.78 289.81 81.78 C 291.85 76.89 288.27 75.54 285.02 73.85 C 284.45 71.01 283.56 67.83 285.20 65.21 C 290.66 64.16 297.04 65.85 301.96 62.82 C 302.03 59.56 301.13 56.37 300.72 53.17 C 304.00 48.01 315.64 43.61 307.25 37.81 Z" />
</g>
<g id="#d8912bff">
<path fill="#d8912b" opacity="1.00" d=" M 132.22 38.97 C 133.68 39.01 136.62 39.10 138.08 39.14 C 136.14 45.93 135.40 52.83 136.99 59.92 C 135.72 59.23 134.48 58.48 133.24 57.75 C 132.47 57.15 131.71 56.57 130.93 56.00 C 131.08 50.31 131.36 44.61 132.22 38.97 Z" />
</g>
<g id="#d5a45aff">
<path fill="#d5a45a" opacity="1.00" d=" M 173.89 39.90 C 179.29 40.05 182.62 45.32 184.28 49.90 C 181.91 50.53 179.48 50.94 177.03 51.07 C 178.68 46.80 174.60 43.83 173.89 39.90 Z" />
</g>
<g id="#aa8648ff">
<path fill="#aa8648" opacity="1.00" d=" M 193.56 44.24 C 194.00 42.60 194.52 41.00 195.12 39.42 C 196.47 44.25 196.75 49.29 197.70 54.19 C 197.81 57.35 198.02 60.52 197.87 63.68 C 195.44 65.76 196.27 69.13 195.99 72.00 C 194.48 70.84 192.77 69.97 190.85 69.74 C 197.71 68.06 192.22 58.62 193.29 53.25 C 196.29 50.88 194.19 47.23 193.56 44.24 Z" />
</g>
<g id="#e0b433ff">
<path fill="#e0b433" opacity="1.00" d=" M 0.00 46.43 C 3.00 38.54 10.65 41.89 16.77 43.93 C 24.37 48.05 31.03 53.59 37.63 59.12 C 44.55 68.27 31.43 75.89 24.14 79.02 C 22.73 75.79 23.93 72.25 23.87 68.88 C 19.82 70.09 20.62 76.12 21.94 79.07 C 22.99 83.72 18.61 86.73 15.72 89.54 C 10.15 88.85 5.12 86.09 0.00 83.96 L 0.00 46.43 Z" />
</g>
<g id="#d27d1aff">
<path fill="#d27d1a" opacity="1.00" d=" M 206.19 41.56 C 208.85 44.07 212.35 46.29 212.11 50.40 C 211.05 50.47 209.99 50.42 208.93 50.36 C 208.17 50.29 206.66 50.13 205.90 50.06 C 204.52 47.36 205.57 44.35 206.19 41.56 Z" />
</g>
<g id="#cb9c58ff">
<path fill="#cb9c58" opacity="1.00" d=" M 153.23 48.11 C 156.88 47.11 158.08 40.30 162.01 44.95 C 162.43 48.01 162.78 51.07 163.13 54.14 C 162.64 57.00 162.13 59.87 161.78 62.76 C 160.90 72.51 160.07 82.56 161.62 92.29 C 161.71 92.90 161.90 94.11 162.00 94.72 C 160.35 95.44 158.72 96.20 157.16 97.07 C 156.98 89.46 156.90 81.84 157.21 74.22 C 156.13 66.28 163.26 50.60 153.23 48.11 Z" />
</g>
<g id="#dd9630ff">
<path fill="#dd9630" opacity="1.00" d=" M 45.36 44.75 C 46.71 59.99 45.88 75.39 45.86 90.68 C 44.71 92.79 42.02 91.86 40.08 92.01 C 45.15 86.40 37.89 77.87 31.97 81.42 C 25.41 79.31 24.86 88.09 21.77 91.97 C 14.50 93.19 7.36 89.84 0.00 90.92 L 0.00 83.96 C 5.12 86.09 10.15 88.85 15.72 89.54 C 18.61 86.73 22.99 83.72 21.94 79.07 C 20.62 76.12 19.82 70.09 23.87 68.88 C 23.93 72.25 22.73 75.79 24.14 79.02 C 31.43 75.89 44.55 68.27 37.63 59.12 C 41.26 54.89 47.03 51.38 45.36 44.75 Z" />
</g>
<g id="#8b814eff">
<path fill="#8b814e" opacity="1.00" d=" M 162.01 44.95 C 164.99 46.65 164.91 50.60 166.16 53.39 C 165.15 53.65 164.14 53.90 163.13 54.14 C 162.78 51.07 162.43 48.01 162.01 44.95 Z" />
</g>
<g id="#d49e3bff">
<path fill="#d49e3b" opacity="1.00" d=" M 269.00 45.88 C 278.62 42.24 269.74 58.50 275.17 62.07 C 274.57 66.10 271.99 69.43 270.82 73.30 C 268.21 70.63 265.47 68.04 261.90 66.72 C 263.88 65.06 266.30 64.15 268.80 63.58 C 269.35 57.70 268.84 51.77 269.00 45.88 Z" />
</g>
<g id="#dc9c33ff">
<path fill="#dc9c33" opacity="1.00" d=" M 305.06 58.78 C 305.12 51.03 312.21 44.32 320.00 44.79 L 320.00 52.88 C 315.48 55.11 309.93 61.92 305.06 58.78 Z" />
</g>
<g id="#898448ff">
<path fill="#898448" opacity="1.00" d=" M 139.95 46.00 C 144.71 45.08 140.21 59.17 143.88 50.87 C 143.87 52.72 143.85 56.42 143.84 58.27 C 140.19 55.40 139.37 50.39 139.95 46.00 Z" />
</g>
<g id="#8c8b4fff">
<path fill="#8c8b4f" opacity="1.00" d=" M 250.29 46.31 C 255.40 46.47 244.76 52.44 242.99 53.13 C 243.23 49.52 247.86 48.40 250.29 46.31 Z" />
</g>
<g id="#825026ff">
<path fill="#825026" opacity="1.00" d=" M 108.10 48.03 C 109.23 44.92 116.59 47.70 119.09 47.83 C 115.42 47.90 111.76 47.98 108.10 48.03 Z" />
</g>
<g id="#9a7143ff">
<path fill="#9a7143" opacity="1.00" d=" M 149.86 49.87 C 150.59 48.84 151.30 47.80 152.03 46.77 C 152.33 47.11 152.93 47.77 153.23 48.11 C 163.26 50.60 156.13 66.28 157.21 74.22 C 156.91 66.18 157.28 58.13 156.89 50.09 C 155.13 50.04 151.62 49.93 149.86 49.87 Z" />
</g>
<g id="#4b1f0cff">
<path fill="#4b1f0c" opacity="1.00" d=" M 108.10 48.03 C 111.76 47.98 115.42 47.90 119.09 47.83 C 118.98 54.97 118.77 62.14 119.77 69.24 C 119.81 69.92 119.88 71.30 119.92 71.98 C 120.01 74.89 120.08 77.82 120.29 80.72 C 120.03 87.89 119.66 95.11 120.73 102.23 C 120.86 103.45 121.01 104.67 121.18 105.89 C 117.13 105.94 113.08 105.95 109.03 105.94 C 107.82 96.98 113.08 87.19 109.37 78.85 C 106.50 88.05 104.55 97.51 102.74 106.97 C 102.10 106.95 100.82 106.92 100.18 106.90 C 95.86 92.86 96.92 76.94 91.17 63.62 C 90.95 70.00 90.82 76.40 91.18 82.78 C 91.24 86.60 91.43 90.42 91.76 94.23 C 91.90 97.56 92.00 100.92 92.16 104.26 C 88.48 104.81 84.78 105.07 81.07 105.02 C 81.06 102.30 81.04 96.86 81.03 94.14 C 81.08 91.50 81.14 88.86 81.20 86.23 C 81.83 81.77 81.91 77.27 81.90 72.77 C 82.09 69.84 81.58 66.92 80.94 64.07 C 80.94 59.72 80.86 55.37 80.96 51.02 C 81.14 50.68 81.50 50.02 81.68 49.69 C 83.13 49.81 84.59 49.90 86.05 49.96 C 86.82 49.98 88.36 50.03 89.13 50.05 C 90.54 50.09 93.36 50.17 94.77 50.21 C 98.19 59.94 98.00 72.10 102.01 81.02 C 104.95 70.26 106.26 59.05 108.10 48.03 Z" />
<path fill="#4b1f0c" opacity="1.00" d=" M 143.88 50.87 C 145.38 50.62 148.37 50.12 149.86 49.87 C 151.62 49.93 155.13 50.04 156.89 50.09 C 157.28 58.13 156.91 66.18 157.21 74.22 C 156.90 81.84 156.98 89.46 157.16 97.07 C 156.83 98.80 156.11 100.41 155.12 101.86 C 153.05 102.93 150.99 104.00 148.93 105.09 C 143.99 105.04 139.06 105.06 134.12 104.97 C 133.16 104.63 132.20 104.31 131.23 104.01 C 129.87 103.56 128.48 103.19 127.10 102.85 C 125.86 101.37 124.65 99.86 123.56 98.28 C 122.22 83.98 123.58 69.59 122.71 55.26 C 123.52 55.26 125.16 55.25 125.98 55.25 L 126.87 55.38 C 128.22 55.61 129.57 55.81 130.93 56.00 C 131.71 56.57 132.47 57.15 133.24 57.75 C 133.11 62.19 133.02 66.63 132.98 71.07 C 133.00 77.78 132.83 84.49 132.94 91.20 C 131.93 98.21 146.42 98.45 144.02 90.97 C 144.01 90.28 144.00 88.89 143.99 88.20 C 144.01 78.22 144.11 68.25 143.84 58.27 C 143.85 56.42 143.87 52.72 143.88 50.87 Z" />
</g>
<g id="#79563bff">
<path fill="#79563b" opacity="1.00" d=" M 119.09 47.83 C 119.38 48.07 119.95 48.55 120.24 48.78 C 120.07 55.60 120.04 62.42 119.77 69.24 C 118.77 62.14 118.98 54.97 119.09 47.83 Z" />
</g>
<g id="#9b8858ff">
<path fill="#9b8858" opacity="1.00" d=" M 120.24 48.78 C 120.64 49.13 121.45 49.83 121.86 50.18 C 122.07 51.88 122.32 53.59 122.71 55.26 C 123.58 69.59 122.22 83.98 123.56 98.28 C 123.17 98.20 122.39 98.06 121.99 97.99 C 121.97 89.01 122.09 80.04 122.03 71.07 C 121.50 71.30 120.45 71.75 119.92 71.98 C 119.88 71.30 119.81 69.92 119.77 69.24 C 120.04 62.42 120.07 55.60 120.24 48.78 Z" />
</g>
<g id="#4a1f0cff">
<path fill="#4a1f0c" opacity="1.00" d=" M 197.70 54.19 C 197.91 52.53 197.92 50.77 198.70 49.25 C 201.09 49.55 203.49 49.82 205.90 50.06 C 206.66 50.13 208.17 50.29 208.93 50.36 C 209.74 59.55 207.58 69.30 209.74 78.23 C 212.55 80.77 218.29 78.10 221.90 78.97 C 223.57 69.68 219.04 57.94 224.05 50.03 C 232.58 47.69 227.99 58.90 229.24 63.76 C 229.14 69.34 228.72 74.98 230.04 80.46 C 230.06 84.21 230.16 87.96 230.34 91.71 C 230.14 96.14 230.22 100.59 229.87 105.02 C 227.09 105.49 224.48 105.05 221.93 104.11 C 220.07 99.65 226.40 87.12 216.99 89.94 C 208.45 89.03 219.02 106.10 212.03 106.98 C 209.05 106.48 206.09 105.91 203.06 106.01 C 201.39 106.00 199.71 106.02 198.04 105.94 C 197.92 91.85 198.11 77.77 197.87 63.68 C 198.02 60.52 197.81 57.35 197.70 54.19 Z" />
</g>
<g id="#4c210cff">
<path fill="#4c210c" opacity="1.00" d=" M 177.03 51.07 C 179.48 50.94 181.91 50.53 184.28 49.90 C 187.69 50.19 192.85 48.50 193.29 53.25 C 192.22 58.62 197.71 68.06 190.85 69.74 C 187.57 69.86 184.30 70.15 181.03 69.92 C 179.07 66.87 185.27 58.36 180.20 57.63 C 176.78 56.20 170.99 56.03 171.96 61.09 C 173.24 72.17 169.52 86.65 174.58 96.29 C 176.81 98.00 181.51 99.27 180.94 94.84 C 180.47 92.21 180.76 89.89 181.80 87.88 C 186.53 90.03 196.59 85.46 196.45 92.72 C 195.52 96.76 194.97 100.90 193.71 104.85 C 190.52 105.02 187.36 105.05 184.19 104.80 C 180.74 104.34 177.32 103.80 173.91 103.16 C 171.65 102.77 169.41 102.29 167.17 101.77 C 163.43 101.33 162.64 97.83 162.00 94.72 C 161.90 94.11 161.71 92.90 161.62 92.29 C 162.14 82.45 162.11 72.60 161.78 62.76 C 162.13 59.87 162.64 57.00 163.13 54.14 C 164.14 53.90 165.15 53.65 166.16 53.39 C 169.77 52.58 173.39 51.78 177.03 51.07 Z" />
</g>
<g id="#916c3bff">
<path fill="#916c3b" opacity="1.00" d=" M 208.93 50.36 C 209.99 50.42 211.05 50.47 212.11 50.40 C 216.16 49.69 211.16 52.21 210.27 53.45 C 207.21 63.13 213.65 54.12 216.20 52.99 C 215.03 56.26 211.90 58.22 210.12 61.11 C 209.79 66.81 209.87 72.52 209.74 78.23 C 207.58 69.30 209.74 59.55 208.93 50.36 Z" />
</g>
<g id="#895829ff">
<path fill="#895829" opacity="1.00" d=" M 79.86 56.97 C 80.13 55.48 80.68 52.50 80.96 51.02 C 80.86 55.37 80.94 59.72 80.94 64.07 C 80.34 61.75 79.98 59.38 79.86 56.97 Z" />
</g>
<g id="#8f965bff">
<path fill="#8f965b" opacity="1.00" d=" M 276.05 61.98 C 275.06 58.90 275.68 56.80 277.91 55.68 C 278.10 61.09 277.97 66.50 277.87 71.91 C 276.81 78.00 277.73 84.12 277.54 90.26 C 272.46 82.74 276.20 71.14 276.05 61.98 Z" />
</g>
<g id="#7a623dff">
<path fill="#7a623d" opacity="1.00" d=" M 171.96 61.09 C 170.99 56.03 176.78 56.20 180.20 57.63 C 176.99 57.51 174.12 58.75 171.96 61.09 Z" />
</g>
<g id="#cd9a51ff">
<path fill="#cd9a51" opacity="1.00" d=" M 171.96 61.09 C 174.12 58.75 176.99 57.51 180.20 57.63 C 185.27 58.36 179.07 66.87 181.03 69.92 C 184.30 70.15 187.57 69.86 190.85 69.74 C 192.77 69.97 194.48 70.84 195.99 72.00 C 195.98 77.33 195.61 82.65 194.77 87.91 C 192.34 87.97 187.48 88.08 185.05 88.14 C 187.74 84.44 190.15 78.17 186.26 74.70 C 186.16 79.73 186.47 85.00 181.80 87.88 C 180.76 89.89 180.47 92.21 180.94 94.84 C 178.74 94.97 176.56 95.31 174.58 96.29 C 169.52 86.65 173.24 72.17 171.96 61.09 Z" />
</g>
<g id="#dc902eff">
<path fill="#dc902e" opacity="1.00" d=" M 318.99 65.92 C 317.65 62.78 315.47 57.95 320.00 62.12 L 320.00 91.82 C 315.91 92.63 311.70 93.18 307.86 91.12 C 308.93 88.66 311.36 86.24 310.57 83.38 C 308.36 76.49 311.00 68.73 315.19 63.14 C 317.70 63.70 315.02 69.31 318.99 65.92 Z" />
</g>
<g id="#cb9a4fff">
<path fill="#cb9a4f" opacity="1.00" d=" M 232.34 64.37 C 236.13 62.49 240.34 62.21 244.49 62.80 C 246.04 67.70 252.71 69.78 252.99 74.84 C 249.78 78.62 246.53 83.95 241.03 80.35 C 238.29 82.67 234.83 88.94 236.96 92.93 C 245.64 98.15 256.39 98.46 266.21 98.96 C 264.97 102.66 265.17 107.14 262.09 109.92 C 258.41 107.64 255.12 111.48 251.31 111.23 C 239.16 105.40 223.75 111.19 210.90 107.09 L 212.03 106.98 C 219.02 106.10 208.45 89.03 216.99 89.94 C 226.40 87.12 220.07 99.65 221.93 104.11 C 221.32 108.57 228.27 105.34 230.97 105.91 C 231.01 101.18 231.55 96.34 230.34 91.71 C 230.16 87.96 230.06 84.21 230.04 80.46 C 232.37 75.37 229.50 69.18 232.34 64.37 Z" />
</g>
<g id="#d9b26bff">
<path fill="#d9b26b" opacity="1.00" d=" M 275.17 62.07 L 276.05 61.98 C 276.20 71.14 272.46 82.74 277.54 90.26 C 277.73 84.12 276.81 78.00 277.87 71.91 C 280.64 71.01 283.23 71.47 285.02 73.85 C 288.27 75.54 291.85 76.89 289.81 81.78 C 287.36 86.33 287.55 91.00 291.23 94.52 C 289.24 94.30 287.21 94.15 285.33 94.95 C 286.45 97.74 287.72 101.08 286.16 103.93 C 273.32 99.18 278.34 116.20 275.20 123.16 C 273.49 122.71 271.74 122.60 270.00 122.85 C 268.54 118.31 271.98 108.80 266.98 107.98 C 267.04 122.73 269.70 137.89 267.91 152.46 C 265.19 148.85 262.57 146.46 263.07 152.89 C 261.57 155.05 259.43 158.35 256.36 156.71 C 252.17 150.46 249.82 143.15 247.83 135.95 C 248.85 136.99 249.82 138.08 250.81 139.15 C 251.66 147.54 265.41 141.95 260.06 135.06 C 258.44 131.61 260.13 139.18 257.17 137.97 C 259.93 133.56 253.54 126.99 257.80 123.90 C 258.77 125.71 258.95 128.74 261.76 127.93 C 262.82 122.15 266.27 115.11 262.09 109.92 C 265.17 107.14 264.97 102.66 266.21 98.96 C 268.08 96.65 267.84 93.47 268.64 90.73 C 269.14 93.34 267.16 98.76 270.96 98.00 C 271.09 90.25 271.14 82.49 270.85 74.75 C 270.84 74.39 270.83 73.66 270.82 73.30 C 271.99 69.43 274.57 66.10 275.17 62.07 Z" />
</g>
<g id="#835524ff">
<path fill="#835524" opacity="1.00" d=" M 161.62 92.29 C 160.07 82.56 160.90 72.51 161.78 62.76 C 162.11 72.60 162.14 82.45 161.62 92.29 Z" />
</g>
<g id="#bc9559ff">
<path fill="#bc9559" opacity="1.00" d=" M 91.17 63.62 C 96.92 76.94 95.86 92.86 100.18 106.90 C 100.82 106.92 102.10 106.95 102.74 106.97 C 104.55 97.51 106.50 88.05 109.37 78.85 C 113.08 87.19 107.82 96.98 109.03 105.94 C 109.29 106.30 109.81 107.02 110.07 107.38 C 102.01 108.35 93.87 108.07 85.77 107.81 C 90.50 107.19 99.94 108.04 92.16 104.26 C 92.00 100.92 91.90 97.56 91.76 94.23 C 91.78 90.40 91.59 86.58 91.18 82.78 C 90.82 76.40 90.95 70.00 91.17 63.62 Z" />
</g>
<g id="#7e7849ff">
<path fill="#7e7849" opacity="1.00" d=" M 195.99 72.00 C 196.27 69.13 195.44 65.76 197.87 63.68 C 198.11 77.77 197.92 91.85 198.04 105.94 C 195.52 103.34 197.77 96.93 196.45 92.72 C 196.59 85.46 186.53 90.03 181.80 87.88 C 186.47 85.00 186.16 79.73 186.26 74.70 C 190.15 78.17 187.74 84.44 185.05 88.14 C 187.48 88.08 192.34 87.97 194.77 87.91 C 195.61 82.65 195.98 77.33 195.99 72.00 Z" />
</g>
<g id="#865d3cff">
<path fill="#865d3c" opacity="1.00" d=" M 229.24 63.76 C 229.95 69.30 230.00 74.89 230.04 80.46 C 228.72 74.98 229.14 69.34 229.24 63.76 Z" />
</g>
<g id="#8c8c55ff">
<path fill="#8c8c55" opacity="1.00" d=" M 61.33 68.36 C 65.22 67.67 61.58 71.13 59.24 70.28 C 55.37 76.17 64.13 89.49 56.02 92.09 C 57.47 84.40 55.28 76.85 57.18 69.26 C 58.56 68.93 59.95 68.67 61.33 68.36 Z" />
</g>
<g id="#d88e2aff">
<path fill="#d88e2a" opacity="1.00" d=" M 132.98 71.07 C 134.28 68.32 139.43 67.79 137.80 71.89 C 137.93 76.80 137.84 87.13 143.99 88.20 C 144.00 88.89 144.01 90.28 144.02 90.97 C 140.35 91.04 136.58 92.21 132.94 91.20 C 132.83 84.49 133.00 77.78 132.98 71.07 Z" />
</g>
<g id="#c3a474ff">
<path fill="#c3a474" opacity="1.00" d=" M 119.92 71.98 C 120.45 71.75 121.50 71.30 122.03 71.07 C 122.09 80.04 121.97 89.01 121.99 97.99 L 121.04 97.92 C 121.09 92.18 121.10 86.42 120.29 80.72 C 120.08 77.82 120.01 74.89 119.92 71.98 Z" />
</g>
<g id="#998b54ff">
<path fill="#998b54" opacity="1.00" d=" M 69.36 73.45 C 71.82 72.27 72.44 82.56 66.01 75.97 C 59.15 73.88 66.33 85.62 61.00 85.00 C 61.03 82.55 61.09 77.66 61.11 75.22 C 63.73 73.12 67.05 76.21 69.36 73.45 Z" />
</g>
<g id="#865725ff">
<path fill="#865725" opacity="1.00" d=" M 81.20 86.23 C 81.08 81.74 81.05 77.21 81.90 72.77 C 81.91 77.27 81.83 81.77 81.20 86.23 Z" />
</g>
<g id="#929966ff">
<path fill="#929966" opacity="1.00" d=" M 268.64 90.73 C 270.30 86.02 266.48 77.84 270.85 74.75 C 271.14 82.49 271.09 90.25 270.96 98.00 C 267.16 98.76 269.14 93.34 268.64 90.73 Z" />
</g>
<g id="#d97b1bff">
<path fill="#d97b1b" opacity="1.00" d=" M 31.97 81.42 C 37.89 77.87 45.15 86.40 40.08 92.01 C 33.98 90.93 27.89 92.24 21.77 91.97 C 24.86 88.09 25.41 79.31 31.97 81.42 Z" />
</g>
<g id="#9a6c3fff">
<path fill="#9a6c3f" opacity="1.00" d=" M 120.29 80.72 C 121.10 86.42 121.09 92.18 121.04 97.92 C 120.93 99.35 120.83 100.79 120.73 102.23 C 119.66 95.11 120.03 87.89 120.29 80.72 Z" />
</g>
<g id="#c99f55ff">
<path fill="#c99f55" opacity="1.00" d=" M 291.23 94.52 C 287.55 91.00 287.36 86.33 289.81 81.78 C 290.34 84.78 288.81 88.60 291.20 90.96 C 296.74 91.04 302.37 89.85 307.86 91.12 C 311.70 93.18 315.91 92.63 320.00 91.82 L 320.00 96.82 C 314.26 95.66 306.55 102.47 302.04 96.93 C 297.09 91.45 282.27 98.69 291.80 103.79 C 286.74 104.91 285.04 113.97 291.32 113.69 C 295.17 114.38 298.30 111.95 299.69 108.49 C 297.21 107.35 295.43 105.25 293.86 103.10 C 297.54 103.62 301.85 101.42 305.31 103.60 C 305.62 114.20 303.34 124.70 304.55 135.29 C 307.55 134.28 306.57 130.52 307.13 128.11 C 309.73 127.70 314.40 128.98 311.03 122.98 C 311.84 116.43 308.32 109.37 311.24 103.15 C 314.11 103.01 317.09 102.97 320.00 102.96 L 320.00 105.09 C 317.73 104.89 315.49 104.50 313.23 104.27 C 313.00 106.85 310.48 110.86 313.92 112.15 C 314.28 107.99 315.36 104.84 320.00 105.93 L 320.00 111.75 C 317.14 114.66 311.40 116.32 311.97 121.09 C 315.77 120.49 317.38 116.09 320.00 113.59 L 320.00 119.73 C 316.93 122.99 310.83 124.77 311.93 130.11 C 314.84 128.45 316.19 124.51 320.00 123.55 L 320.00 152.71 C 315.92 155.26 310.57 157.74 309.87 163.12 C 313.62 160.80 315.49 155.70 320.00 153.71 L 320.00 174.01 C 311.85 171.99 302.75 180.23 295.91 174.06 C 291.19 174.14 273.61 167.81 276.57 178.90 C 274.86 188.45 278.00 198.97 274.88 208.09 C 275.94 195.85 271.50 182.30 275.73 170.72 C 281.06 166.01 290.69 173.27 295.34 167.35 C 297.94 167.22 303.16 166.96 305.76 166.82 C 307.65 158.35 305.71 149.57 307.00 141.00 C 307.22 139.75 306.59 137.99 305.10 138.03 C 300.18 146.74 307.20 156.68 303.77 165.75 C 299.68 165.52 295.46 164.17 291.60 166.09 C 285.56 166.28 277.28 168.87 273.95 162.02 C 272.43 159.23 275.81 153.09 270.87 155.73 C 273.04 151.51 272.59 146.15 275.97 142.61 C 276.56 145.83 277.01 149.08 277.71 152.28 C 279.44 154.40 275.60 162.44 280.04 162.01 C 280.36 155.66 279.12 149.39 279.01 143.06 C 281.14 137.51 294.39 143.70 293.40 136.70 C 293.55 135.08 294.61 132.13 291.93 132.32 C 288.70 133.26 285.89 129.54 282.99 131.92 C 279.14 131.46 283.39 126.29 280.22 124.70 C 284.18 119.33 282.41 112.09 285.21 106.17 C 285.45 105.61 285.93 104.49 286.16 103.93 C 287.72 101.08 286.45 97.74 285.33 94.95 C 287.21 94.15 289.24 94.30 291.23 94.52 Z" />
</g>
<g id="#785631ff">
<path fill="#785631" opacity="1.00" d=" M 91.18 82.78 C 91.59 86.58 91.78 90.40 91.76 94.23 C 91.43 90.42 91.24 86.60 91.18 82.78 Z" />
</g>
<g id="#d89132ff">
<path fill="#d89132" opacity="1.00" d=" M 50.12 89.21 C 50.64 88.08 51.17 86.96 51.73 85.86 C 50.56 90.65 53.68 94.41 57.80 95.88 C 58.83 96.35 59.87 96.77 60.94 97.14 C 62.96 98.60 70.53 96.41 69.97 100.81 C 65.40 104.55 56.92 98.83 53.25 104.34 C 52.89 114.13 52.02 123.92 52.66 133.70 C 52.27 139.03 40.60 139.04 47.67 135.00 C 49.79 125.32 47.79 115.48 47.84 105.71 C 46.18 102.60 40.99 102.60 38.89 105.71 C 33.36 109.36 35.15 99.53 31.72 97.23 C 37.87 95.56 53.77 101.44 50.12 89.21 Z" />
<path fill="#d89132" opacity="1.00" d=" M 121.04 97.92 L 121.99 97.99 C 122.39 98.06 123.17 98.20 123.56 98.28 C 124.65 99.86 125.86 101.37 127.10 102.85 C 128.33 111.28 125.66 119.54 125.73 127.95 C 125.07 127.97 123.75 128.03 123.09 128.06 C 122.48 120.68 122.85 113.13 121.18 105.89 C 121.01 104.67 120.86 103.45 120.73 102.23 C 120.83 100.79 120.93 99.35 121.04 97.92 Z" />
</g>
<g id="#be9654ff">
<path fill="#be9654" opacity="1.00" d=" M 132.94 91.20 C 136.58 92.21 140.35 91.04 144.02 90.97 C 146.42 98.45 131.93 98.21 132.94 91.20 Z" />
</g>
<g id="#784f27ff">
<path fill="#784f27" opacity="1.00" d=" M 230.34 91.71 C 231.55 96.34 231.01 101.18 230.97 105.91 C 228.27 105.34 221.32 108.57 221.93 104.11 C 224.48 105.05 227.09 105.49 229.87 105.02 C 230.22 100.59 230.14 96.14 230.34 91.71 Z" />
</g>
<g id="#c89650ff">
<path fill="#c89650" opacity="1.00" d=" M 196.45 92.72 C 197.77 96.93 195.52 103.34 198.04 105.94 C 199.71 106.02 201.39 106.00 203.06 106.01 C 200.24 112.47 202.13 119.57 202.17 126.36 C 189.15 130.02 198.64 116.06 194.31 110.60 C 194.19 114.42 193.97 122.05 193.86 125.87 C 188.69 126.79 182.51 124.67 177.73 126.77 C 176.17 133.73 176.97 141.19 177.67 148.29 C 177.81 152.25 177.92 156.21 178.00 160.18 C 174.01 160.88 174.54 156.68 173.96 154.09 C 169.10 155.46 165.71 159.30 163.78 163.90 C 166.57 163.78 169.44 163.51 172.24 163.29 C 169.08 166.10 164.81 167.05 160.89 168.32 C 161.07 164.10 160.84 159.89 160.31 155.71 C 160.03 150.14 159.84 144.55 160.05 138.98 C 164.70 138.91 169.31 139.78 173.95 139.96 C 174.00 135.66 174.27 131.35 173.91 127.07 C 167.25 126.59 160.41 127.92 153.88 126.22 C 157.16 122.49 156.40 114.71 151.23 113.24 C 152.79 109.94 152.71 107.30 148.91 105.99 L 148.93 105.09 C 150.99 104.00 153.05 102.93 155.12 101.86 C 162.29 104.49 161.87 114.40 157.47 119.55 C 153.34 128.95 167.20 125.68 167.01 119.20 C 161.45 114.94 159.35 104.62 167.17 101.77 C 169.41 102.29 171.65 102.77 173.91 103.16 C 177.60 107.08 169.28 103.45 167.69 105.84 C 170.81 105.97 174.00 105.92 177.13 106.14 C 176.62 110.10 170.45 110.70 170.89 115.10 C 177.87 114.06 177.21 103.51 184.19 104.80 C 187.36 105.05 190.52 105.02 193.71 104.85 C 194.97 100.90 195.52 96.76 196.45 92.72 Z" />
</g>
<g id="#93874dff">
<path fill="#93874d" opacity="1.00" d=" M 57.80 95.88 C 62.66 91.47 74.30 97.65 81.03 94.14 C 81.04 96.86 81.06 102.30 81.07 105.02 C 84.78 105.07 88.48 104.81 92.16 104.26 C 99.94 108.04 90.50 107.19 85.77 107.81 C 84.01 107.93 80.49 108.18 78.74 108.31 C 71.87 107.98 64.98 107.81 58.11 108.07 C 57.38 112.63 57.03 117.25 57.03 121.87 C 56.84 125.39 56.36 128.91 55.27 132.27 C 56.95 122.87 50.56 110.32 59.10 102.96 C 65.12 107.42 72.96 105.87 79.98 105.97 C 79.98 103.48 79.98 98.52 79.98 96.04 C 73.56 95.37 67.25 96.27 60.94 97.14 C 59.87 96.77 58.83 96.35 57.80 95.88 Z" />
</g>
<g id="#d38b20ff">
<path fill="#d38b20" opacity="1.00" d=" M 0.00 95.17 C 4.80 97.32 10.08 93.95 14.88 96.12 C 19.36 97.95 24.15 95.77 28.81 96.26 C 29.78 96.59 30.75 96.91 31.72 97.23 C 35.15 99.53 33.36 109.36 38.89 105.71 C 40.82 105.88 42.70 106.57 43.79 108.27 C 43.69 114.51 43.56 120.82 44.53 127.01 C 43.03 127.95 41.33 128.09 39.69 127.44 C 39.66 120.92 39.99 114.44 41.04 108.02 C 34.70 107.85 28.30 107.91 22.07 109.20 C 22.12 111.55 22.61 113.87 22.83 116.20 C 18.53 114.70 17.98 110.86 19.54 107.09 C 18.08 102.24 26.09 107.10 24.98 103.02 C 17.93 100.89 14.70 104.03 13.26 110.32 C 13.21 109.68 13.11 108.41 13.06 107.77 C 13.69 100.71 4.81 102.18 0.00 101.92 L 0.00 95.17 Z" />
</g>
<g id="#d0852eff">
<path fill="#d0852e" opacity="1.00" d=" M 157.16 97.07 C 158.72 96.20 160.35 95.44 162.00 94.72 C 162.64 97.83 163.43 101.33 167.17 101.77 C 159.35 104.62 161.45 114.94 167.01 119.20 C 167.20 125.68 153.34 128.95 157.47 119.55 C 161.87 114.40 162.29 104.49 155.12 101.86 C 156.11 100.41 156.83 98.80 157.16 97.07 Z" />
</g>
<g id="#7b7c55ff">
<path fill="#7b7c55" opacity="1.00" d=" M 174.58 96.29 C 176.56 95.31 178.74 94.97 180.94 94.84 C 181.51 99.27 176.81 98.00 174.58 96.29 Z" />
</g>
<g id="#d79136ff">
<path fill="#d79136" opacity="1.00" d=" M 291.80 103.79 C 282.27 98.69 297.09 91.45 302.04 96.93 C 306.55 102.47 314.26 95.66 320.00 96.82 L 320.00 102.96 C 317.09 102.97 314.11 103.01 311.24 103.15 C 308.32 109.37 311.84 116.43 311.03 122.98 C 314.40 128.98 309.73 127.70 307.13 128.11 C 304.26 120.15 311.06 110.01 305.31 103.60 C 301.85 101.42 297.54 103.62 293.86 103.10 C 295.43 105.25 297.21 107.35 299.69 108.49 C 298.30 111.95 295.17 114.38 291.32 113.69 C 285.04 113.97 286.74 104.91 291.80 103.79 Z" />
</g>
<g id="#c99e51ff">
<path fill="#c99e51" opacity="1.00" d=" M 60.94 97.14 C 67.25 96.27 73.56 95.37 79.98 96.04 C 79.98 98.52 79.98 103.48 79.98 105.97 C 72.96 105.87 65.12 107.42 59.10 102.96 C 50.56 110.32 56.95 122.87 55.27 132.27 C 55.33 136.35 59.23 139.23 62.94 140.01 C 68.78 145.41 59.07 146.07 56.30 149.50 C 55.83 153.14 55.51 157.92 58.32 160.81 C 64.85 161.78 71.41 161.78 77.94 160.89 C 78.18 161.22 78.67 161.89 78.91 162.22 C 79.06 169.51 78.99 176.81 78.86 184.10 C 74.15 178.99 71.40 188.34 66.89 189.96 C 66.66 186.64 65.19 177.83 70.51 183.43 C 73.85 182.23 72.20 175.50 74.00 172.16 C 69.63 172.24 61.17 168.72 58.83 173.74 C 52.11 174.47 57.80 185.60 55.98 190.00 C 55.81 192.52 57.96 194.28 58.51 190.86 C 56.50 200.99 72.62 197.05 79.02 198.02 C 83.36 198.51 79.73 192.78 77.64 191.64 C 79.15 189.69 80.24 187.51 80.22 184.98 C 86.12 185.57 81.53 196.23 84.16 200.20 C 82.15 202.07 76.36 198.21 77.27 201.58 C 81.19 201.73 84.28 204.86 83.92 208.86 C 82.98 209.23 82.04 209.60 81.11 209.98 C 77.25 202.41 65.64 204.03 59.20 206.72 C 56.76 206.19 52.42 203.67 56.09 210.99 C 57.08 216.78 54.16 225.83 59.07 228.99 C 65.71 229.66 74.02 231.37 79.29 226.54 C 75.15 226.07 69.65 227.78 66.85 224.14 C 71.21 223.29 76.09 220.63 80.08 223.78 C 80.97 220.26 80.35 216.41 81.19 212.79 C 81.80 215.13 81.17 218.46 83.83 219.47 C 83.59 224.17 87.29 229.35 84.76 233.80 C 75.23 233.70 65.68 233.10 56.16 233.74 C 54.82 233.66 53.97 232.44 52.89 231.81 C 50.48 219.83 56.31 207.90 53.16 195.96 C 51.06 186.63 53.42 177.48 54.32 168.23 C 56.82 166.60 65.90 170.89 63.89 165.17 C 59.44 163.99 53.69 165.48 51.23 160.67 C 48.26 155.59 53.24 147.39 48.33 143.72 C 49.03 151.54 49.20 159.39 48.81 167.23 C 45.78 167.75 42.75 168.47 39.89 169.62 C 43.75 169.79 47.00 171.66 47.99 175.52 C 46.58 191.74 48.50 208.47 48.97 224.48 C 51.89 232.77 41.15 233.23 35.34 232.41 C 23.70 235.88 10.73 229.55 0.00 234.11 L 0.00 228.05 C 14.71 225.38 29.73 232.45 44.29 228.29 C 49.13 219.76 43.84 208.27 45.51 198.62 C 45.99 191.17 45.11 183.65 44.85 176.20 C 33.84 173.33 20.70 171.16 9.78 175.88 C 6.39 176.03 3.10 176.80 0.00 178.15 L 0.00 101.92 C 4.81 102.18 13.69 100.71 13.06 107.77 C 8.25 114.39 10.65 125.22 10.92 133.72 C 0.04 134.30 9.58 137.91 12.80 134.02 C 12.67 137.41 12.81 140.79 12.76 144.19 C 13.22 140.23 11.64 135.55 7.08 137.03 C 5.26 141.88 15.45 133.88 10.08 142.99 C 9.55 150.98 11.80 159.24 8.84 166.96 C 7.44 172.69 20.00 166.41 24.60 169.19 C 25.69 173.40 32.75 167.84 28.62 167.40 C 23.74 167.34 16.48 167.99 16.45 161.33 C 20.99 158.22 24.94 152.57 31.05 152.87 C 29.54 156.58 27.07 159.78 25.09 163.25 C 29.46 161.97 30.03 156.15 33.44 153.54 C 37.24 152.44 41.38 150.76 43.26 147.01 C 40.13 148.20 37.59 151.06 34.10 151.13 C 31.53 149.25 31.21 145.29 28.35 143.75 C 30.76 153.49 18.95 153.91 16.45 161.33 C 15.53 154.67 9.89 138.37 20.79 137.70 C 21.38 133.27 14.47 133.63 16.17 129.27 C 17.26 126.53 19.58 129.24 20.73 130.43 C 28.75 131.77 37.07 131.79 44.94 129.84 C 44.85 128.89 44.71 127.95 44.53 127.01 C 43.56 120.82 43.69 114.51 43.79 108.27 C 42.70 106.57 40.82 105.88 38.89 105.71 C 40.99 102.60 46.18 102.60 47.84 105.71 C 45.01 106.65 45.50 109.92 46.44 112.05 C 45.95 119.74 46.08 127.42 47.67 135.00 C 40.60 139.04 52.27 139.03 52.66 133.70 C 52.02 123.92 52.89 114.13 53.25 104.34 C 56.92 98.83 65.40 104.55 69.97 100.81 C 70.53 96.41 62.96 98.60 60.94 97.14 Z" />
</g>
<g id="#d79b3eff">
<path fill="#d79b3e" opacity="1.00" d=" M 13.26 110.32 C 14.70 104.03 17.93 100.89 24.98 103.02 C 26.09 107.10 18.08 102.24 19.54 107.09 C 17.98 110.86 18.53 114.70 22.83 116.20 C 23.07 117.36 22.78 120.17 24.16 117.94 C 26.34 119.10 28.51 120.32 30.40 121.92 C 28.45 123.59 24.63 124.94 27.24 127.86 C 32.45 130.24 33.44 127.52 33.08 123.84 L 33.61 124.53 C 34.67 127.05 37.34 127.10 39.69 127.44 C 41.33 128.09 43.03 127.95 44.53 127.01 C 44.71 127.95 44.85 128.89 44.94 129.84 C 37.07 131.79 28.75 131.77 20.73 130.43 C 19.58 129.24 17.26 126.53 16.17 129.27 C 14.47 133.63 21.38 133.27 20.79 137.70 C 9.89 138.37 15.53 154.67 16.45 161.33 C 16.48 167.99 23.74 167.34 28.62 167.40 C 32.75 167.84 25.69 173.40 24.60 169.19 C 20.00 166.41 7.44 172.69 8.84 166.96 C 16.10 163.45 11.11 151.19 12.76 144.19 C 12.81 140.79 12.67 137.41 12.80 134.02 C 12.02 126.10 12.09 118.19 13.26 110.32 Z" />
</g>
<g id="#d0a055ff">
<path fill="#d0a055" opacity="1.00" d=" M 127.10 102.85 C 128.48 103.19 129.87 103.56 131.23 104.01 C 126.87 111.58 132.84 120.73 127.71 127.92 C 127.21 127.93 126.22 127.94 125.73 127.95 C 125.66 119.54 128.33 111.28 127.10 102.85 Z" />
</g>
<g id="#a48545ff">
<path fill="#a48545" opacity="1.00" d=" M 173.91 103.16 C 177.32 103.80 180.74 104.34 184.19 104.80 C 177.21 103.51 177.87 114.06 170.89 115.10 C 170.45 110.70 176.62 110.10 177.13 106.14 C 174.00 105.92 170.81 105.97 167.69 105.84 C 169.28 103.45 177.60 107.08 173.91 103.16 Z" />
</g>
<g id="#b4a66fff">
<path fill="#b4a66f" opacity="1.00" d=" M 275.20 123.16 C 278.34 116.20 273.32 99.18 286.16 103.93 C 285.93 104.49 285.45 105.61 285.21 106.17 C 282.87 106.00 279.74 105.40 281.48 108.67 C 284.13 113.73 273.50 105.62 278.89 115.00 C 278.68 117.62 277.47 126.94 280.22 124.70 C 283.39 126.29 279.14 131.46 282.99 131.92 C 285.89 129.54 288.70 133.26 291.93 132.32 C 294.61 132.13 293.55 135.08 293.40 136.70 C 289.27 140.51 283.20 138.28 278.12 139.16 C 277.92 143.52 277.89 147.90 277.71 152.28 C 277.01 149.08 276.56 145.83 275.97 142.61 C 276.05 139.98 273.38 135.35 277.86 135.74 C 274.26 132.56 274.94 127.53 275.20 123.16 Z" />
</g>
<g id="#998e58ff">
<path fill="#998e58" opacity="1.00" d=" M 131.23 104.01 C 132.20 104.31 133.16 104.63 134.12 104.97 L 134.20 105.98 C 132.80 111.97 131.32 118.02 132.00 124.24 C 132.02 125.75 133.05 126.92 133.70 128.20 C 131.71 128.05 129.71 127.97 127.71 127.92 C 132.84 120.73 126.87 111.58 131.23 104.01 Z" />
</g>
<g id="#a4884cff">
<path fill="#a4884c" opacity="1.00" d=" M 305.31 103.60 C 311.06 110.01 304.26 120.15 307.13 128.11 C 306.57 130.52 307.55 134.28 304.55 135.29 C 303.34 124.70 305.62 114.20 305.31 103.60 Z" />
</g>
<g id="#99844fff">
<path fill="#99844f" opacity="1.00" d=" M 313.23 104.27 C 315.49 104.50 317.73 104.89 320.00 105.09 L 320.00 105.93 C 315.36 104.84 314.28 107.99 313.92 112.15 C 310.48 110.86 313.00 106.85 313.23 104.27 Z" />
</g>
<g id="#864b1dff">
<path fill="#864b1d" opacity="1.00" d=" M 134.12 104.97 C 139.06 105.06 143.99 105.04 148.93 105.09 L 148.91 105.99 C 144.00 105.98 139.10 106.00 134.20 105.98 L 134.12 104.97 Z" />
</g>
<g id="#9c8b48ff">
<path fill="#9c8b48" opacity="1.00" d=" M 46.44 112.05 C 45.50 109.92 45.01 106.65 47.84 105.71 C 47.79 115.48 49.79 125.32 47.67 135.00 C 46.08 127.42 45.95 119.74 46.44 112.05 Z" />
</g>
<g id="#998450ff">
<path fill="#998450" opacity="1.00" d=" M 109.03 105.94 C 113.08 105.95 117.13 105.94 121.18 105.89 C 122.85 113.13 122.48 120.68 123.09 128.06 C 122.63 128.11 121.71 128.23 121.24 128.29 C 120.20 121.25 120.09 114.13 119.81 107.03 C 116.55 106.89 113.31 107.02 110.07 107.38 C 109.81 107.02 109.29 106.30 109.03 105.94 Z" />
</g>
<g id="#d18930ff">
<path fill="#d18930" opacity="1.00" d=" M 134.20 105.98 C 139.10 106.00 144.00 105.98 148.91 105.99 C 152.71 107.30 152.79 109.94 151.23 113.24 C 156.40 114.71 157.16 122.49 153.88 126.22 C 151.17 126.07 148.46 125.92 145.76 125.78 C 148.01 122.60 145.65 119.15 147.64 116.07 C 145.37 114.97 142.92 114.18 140.38 114.20 C 140.02 119.02 137.13 123.62 132.00 124.24 C 131.32 118.02 132.80 111.97 134.20 105.98 Z" />
</g>
<g id="#7c885bff">
<path fill="#7c885b" opacity="1.00" d=" M 203.06 106.01 C 206.09 105.91 209.05 106.48 212.03 106.98 L 210.90 107.09 C 210.44 107.07 209.51 107.05 209.04 107.03 C 207.42 107.00 205.80 106.98 204.19 107.10 C 204.84 113.49 204.67 120.12 203.00 126.35 L 202.17 126.36 C 202.13 119.57 200.24 112.47 203.06 106.01 Z" />
</g>
<g id="#d5c49eff">
<path fill="#d5c49e" opacity="1.00" d=" M 281.48 108.67 C 279.74 105.40 282.87 106.00 285.21 106.17 C 282.41 112.09 284.18 119.33 280.22 124.70 C 277.47 126.94 278.68 117.62 278.89 115.00 C 273.50 105.62 284.13 113.73 281.48 108.67 Z" />
</g>
<g id="#dc9c44ff">
<path fill="#dc9c44" opacity="1.00" d=" M 110.07 107.38 C 113.31 107.02 116.55 106.89 119.81 107.03 C 120.09 114.13 120.20 121.25 121.24 128.29 C 117.26 129.02 112.45 126.55 108.78 128.76 C 108.12 129.70 107.79 130.79 107.78 132.03 C 102.16 133.70 98.08 130.02 94.03 126.93 C 98.24 117.66 87.03 108.66 78.74 108.31 C 80.49 108.18 84.01 107.93 85.77 107.81 C 93.87 108.07 102.01 108.35 110.07 107.38 Z" />
</g>
<g id="#d7a053ff">
<path fill="#d7a053" opacity="1.00" d=" M 204.19 107.10 C 205.80 106.98 207.42 107.00 209.04 107.03 C 207.95 108.06 206.21 109.07 207.10 110.83 C 211.02 117.16 213.58 124.59 220.15 128.83 C 217.45 128.80 214.75 128.84 212.06 128.94 C 205.89 127.62 210.51 136.12 209.73 139.23 C 209.86 143.46 210.04 147.70 209.99 151.94 C 208.08 151.91 205.28 154.05 204.19 151.67 C 204.19 145.80 202.74 139.31 205.66 133.90 C 206.49 130.54 208.14 125.97 203.00 126.35 C 204.67 120.12 204.84 113.49 204.19 107.10 Z" />
</g>
<g id="#dc9a31ff">
<path fill="#dc9a31" opacity="1.00" d=" M 209.04 107.03 C 209.51 107.05 210.44 107.07 210.90 107.09 C 223.75 111.19 239.16 105.40 251.31 111.23 C 249.77 116.80 239.76 114.98 234.90 113.01 C 234.76 118.47 239.99 122.36 240.06 127.79 C 238.23 129.21 236.22 130.48 235.75 132.96 C 231.55 129.22 225.44 129.16 220.15 128.83 C 213.58 124.59 211.02 117.16 207.10 110.83 C 206.21 109.07 207.95 108.06 209.04 107.03 Z" />
</g>
<g id="#928e55ff">
<path fill="#928e55" opacity="1.00" d=" M 10.92 133.72 C 10.65 125.22 8.25 114.39 13.06 107.77 C 13.11 108.41 13.21 109.68 13.26 110.32 C 12.09 118.19 12.02 126.10 12.80 134.02 C 9.58 137.91 0.04 134.30 10.92 133.72 Z" />
</g>
<g id="#e4b835ff">
<path fill="#e4b835" opacity="1.00" d=" M 22.07 109.20 C 28.30 107.91 34.70 107.85 41.04 108.02 C 39.99 114.44 39.66 120.92 39.69 127.44 C 37.34 127.10 34.67 127.05 33.61 124.53 C 39.12 123.01 41.42 109.96 34.21 112.09 C 31.10 114.96 34.18 120.27 33.08 123.84 C 33.44 127.52 32.45 130.24 27.24 127.86 C 24.63 124.94 28.45 123.59 30.40 121.92 C 31.97 118.50 32.73 110.00 25.99 112.97 C 22.73 112.05 24.44 116.10 24.16 117.94 C 22.78 120.17 23.07 117.36 22.83 116.20 C 22.61 113.87 22.12 111.55 22.07 109.20 Z" />
</g>
<g id="#dd962cff">
<path fill="#dd962c" opacity="1.00" d=" M 58.11 108.07 C 64.98 107.81 71.87 107.98 78.74 108.31 C 87.03 108.66 98.24 117.66 94.03 126.93 C 85.51 128.27 82.39 120.06 76.76 115.21 C 71.91 118.84 67.94 113.22 63.20 112.23 C 59.82 114.06 57.95 120.54 63.07 120.96 C 67.07 124.26 78.09 121.07 75.99 129.00 C 72.19 126.66 65.24 119.25 62.50 126.37 C 64.13 122.37 59.80 122.49 57.03 121.87 C 57.03 117.25 57.38 112.63 58.11 108.07 Z" />
</g>
<g id="#97a071ff">
<path fill="#97a071" opacity="1.00" d=" M 266.98 107.98 C 271.98 108.80 268.54 118.31 270.00 122.85 C 270.04 133.95 271.69 145.01 270.08 156.09 C 270.02 157.89 269.91 161.49 269.86 163.29 C 265.61 161.92 269.43 155.43 267.91 152.46 C 269.70 137.89 267.04 122.73 266.98 107.98 Z" />
</g>
<g id="#dca93dff">
<path fill="#dca93d" opacity="1.00" d=" M 251.31 111.23 C 255.12 111.48 258.41 107.64 262.09 109.92 C 266.27 115.11 262.82 122.15 261.76 127.93 C 258.95 128.74 258.77 125.71 257.80 123.90 C 253.54 126.99 259.93 133.56 257.17 137.97 C 255.03 138.24 252.90 138.62 250.81 139.15 C 249.82 138.08 248.85 136.99 247.83 135.95 C 249.82 143.15 252.17 150.46 256.36 156.71 C 259.43 158.35 261.57 155.05 263.07 152.89 C 268.24 153.56 269.50 164.36 263.40 161.71 C 261.16 156.56 256.03 163.19 252.41 162.44 C 248.04 162.14 237.64 166.44 237.74 158.85 C 237.92 156.98 238.08 155.10 238.25 153.23 C 238.70 149.10 239.48 144.78 238.41 140.69 C 237.89 137.99 236.79 135.48 235.75 132.96 C 236.22 130.48 238.23 129.21 240.06 127.79 C 239.99 122.36 234.76 118.47 234.90 113.01 C 239.76 114.98 249.77 116.80 251.31 111.23 Z" />
</g>
<g id="#967842ff">
<path fill="#967842" opacity="1.00" d=" M 194.31 110.60 C 198.64 116.06 189.15 130.02 202.17 126.36 C 194.05 127.12 185.87 127.27 177.73 126.77 C 182.51 124.67 188.69 126.79 193.86 125.87 C 193.97 122.05 194.19 114.42 194.31 110.60 Z" />
</g>
<g id="#d78e12ff">
<path fill="#d78e12" opacity="1.00" d=" M 34.21 112.09 C 41.42 109.96 39.12 123.01 33.61 124.53 L 33.08 123.84 C 34.18 120.27 31.10 114.96 34.21 112.09 Z" />
</g>
<g id="#deb63cff">
<path fill="#deb63c" opacity="1.00" d=" M 63.20 112.23 C 67.94 113.22 71.91 118.84 76.76 115.21 C 82.39 120.06 85.51 128.27 94.03 126.93 C 98.08 130.02 102.16 133.70 107.78 132.03 C 108.80 136.64 104.88 146.11 113.92 143.18 C 113.20 146.86 112.12 150.45 111.18 154.08 C 105.02 159.78 94.01 159.59 91.23 150.81 C 90.58 149.25 89.80 147.63 87.90 148.71 C 87.93 145.38 87.91 142.08 87.83 138.77 C 93.36 131.38 80.19 123.84 77.68 130.21 C 77.26 129.91 76.41 129.30 75.99 129.00 C 78.09 121.07 67.07 124.26 63.07 120.96 C 57.95 120.54 59.82 114.06 63.20 112.23 Z" />
</g>
<g id="#9b824eff">
<path fill="#9b824e" opacity="1.00" d=" M 311.97 121.09 C 311.40 116.32 317.14 114.66 320.00 111.75 L 320.00 113.59 C 317.38 116.09 315.77 120.49 311.97 121.09 Z" />
</g>
<g id="#da8e1aff">
<path fill="#da8e1a" opacity="1.00" d=" M 24.16 117.94 C 24.44 116.10 22.73 112.05 25.99 112.97 C 32.73 110.00 31.97 118.50 30.40 121.92 C 28.51 120.32 26.34 119.10 24.16 117.94 Z" />
</g>
<g id="#c3944cff">
<path fill="#c3944c" opacity="1.00" d=" M 140.38 114.20 C 142.92 114.18 145.37 114.97 147.64 116.07 C 145.65 119.15 148.01 122.60 145.76 125.78 C 145.32 125.86 144.46 126.03 144.02 126.11 C 142.34 130.19 142.05 138.12 143.75 143.23 C 145.29 145.88 152.72 139.97 151.89 144.78 C 151.44 148.51 151.47 152.59 148.93 155.61 C 152.08 154.27 150.89 158.34 151.27 160.21 C 151.16 161.78 151.04 163.35 150.96 164.93 C 146.93 165.17 142.95 165.72 138.94 166.11 C 136.95 153.51 135.97 140.76 133.70 128.20 C 133.05 126.92 132.02 125.75 132.00 124.24 C 137.13 123.62 140.02 119.02 140.38 114.20 Z" />
</g>
<g id="#8b9059ff">
<path fill="#8b9059" opacity="1.00" d=" M 311.93 130.11 C 310.83 124.77 316.93 122.99 320.00 119.73 L 320.00 123.55 C 316.19 124.51 314.84 128.45 311.93 130.11 Z" />
</g>
<g id="#d68610ff">
<path fill="#d68610" opacity="1.00" d=" M 57.03 121.87 C 59.80 122.49 64.13 122.37 62.50 126.37 C 65.24 119.25 72.19 126.66 75.99 129.00 C 76.41 129.30 77.26 129.91 77.68 130.21 C 77.86 131.83 78.21 135.08 78.39 136.70 C 78.23 139.87 78.04 143.06 77.92 146.24 C 72.74 144.59 68.35 141.04 62.94 140.01 C 59.23 139.23 55.33 136.35 55.27 132.27 C 56.36 128.91 56.84 125.39 57.03 121.87 Z" />
</g>
<g id="#d7c192ff">
<path fill="#d7c192" opacity="1.00" d=" M 270.00 122.85 C 271.74 122.60 273.49 122.71 275.20 123.16 C 274.94 127.53 274.26 132.56 277.86 135.74 C 273.38 135.35 276.05 139.98 275.97 142.61 C 272.59 146.15 273.04 151.51 270.87 155.73 L 270.08 156.09 C 271.69 145.01 270.04 133.95 270.00 122.85 Z" />
</g>
<g id="#7e4518ff">
<path fill="#7e4518" opacity="1.00" d=" M 143.75 143.23 C 142.05 138.12 142.34 130.19 144.02 126.11 C 143.98 131.82 143.88 137.52 143.75 143.23 Z" />
</g>
<g id="#4d200cff">
<path fill="#4d200c" opacity="1.00" d=" M 144.02 126.11 C 144.46 126.03 145.32 125.86 145.76 125.78 C 148.46 125.92 151.17 126.07 153.88 126.22 C 160.41 127.92 167.25 126.59 173.91 127.07 C 174.27 131.35 174.00 135.66 173.95 139.96 C 169.31 139.78 164.70 138.91 160.05 138.98 C 159.84 144.55 160.03 150.14 160.31 155.71 C 160.39 160.22 159.45 164.93 160.74 169.36 C 160.84 172.49 161.04 175.66 160.88 178.81 C 159.02 179.41 157.13 179.90 155.23 180.35 C 147.16 181.13 152.07 170.25 150.96 164.93 C 151.04 163.35 151.16 161.78 151.27 160.21 C 151.83 155.09 152.17 149.93 151.89 144.78 C 152.72 139.97 145.29 145.88 143.75 143.23 C 143.88 137.52 143.98 131.82 144.02 126.11 Z" />
<path fill="#4d200c" opacity="1.00" d=" M 77.68 130.21 C 80.19 123.84 93.36 131.38 87.83 138.77 C 87.34 142.17 86.92 145.61 87.02 149.06 C 86.98 152.66 87.02 156.29 86.62 159.88 C 86.18 163.89 85.88 167.93 86.00 171.97 C 92.08 170.76 97.88 168.45 103.91 167.01 C 104.02 170.86 104.25 178.55 104.36 182.40 C 106.78 175.44 107.99 168.14 109.92 161.04 C 110.43 158.73 110.82 156.41 111.18 154.08 C 112.12 150.45 113.20 146.86 113.92 143.18 C 104.88 146.11 108.80 136.64 107.78 132.03 C 107.79 130.79 108.12 129.70 108.78 128.76 C 112.93 128.87 117.12 128.91 121.24 128.29 C 121.71 128.23 122.63 128.11 123.09 128.06 C 123.75 128.03 125.07 127.97 125.73 127.95 C 126.22 127.94 127.21 127.93 127.71 127.92 C 129.71 127.97 131.71 128.05 133.70 128.20 C 135.97 140.76 136.95 153.51 138.94 166.11 C 138.97 166.86 139.04 168.35 139.07 169.10 C 139.34 173.17 139.75 177.26 140.66 181.24 C 140.76 181.68 140.95 182.55 141.04 182.98 L 140.94 183.91 C 137.50 183.90 134.03 183.75 130.71 184.75 C 127.39 185.85 126.37 184.02 126.93 180.88 C 126.96 177.90 127.12 174.95 126.97 171.99 C 125.16 169.34 118.59 171.53 115.05 171.06 C 115.01 175.05 115.01 179.04 115.06 183.04 C 105.33 183.33 95.64 184.33 85.89 183.98 C 84.14 184.01 80.62 184.07 78.86 184.10 C 78.99 176.81 79.06 169.51 78.91 162.22 C 78.62 153.74 79.94 145.10 78.39 136.70 C 78.21 135.08 77.86 131.83 77.68 130.21 M 123.07 141.01 C 120.53 143.43 121.22 150.20 121.38 154.34 C 120.74 156.50 120.17 158.71 119.95 160.96 C 122.70 160.97 128.21 160.98 130.97 160.98 C 131.37 154.02 129.28 147.22 128.70 140.33 C 127.79 137.59 121.50 137.46 123.07 141.01 Z" />
</g>
<g id="#4a1f0bff">
<path fill="#4a1f0b" opacity="1.00" d=" M 202.17 126.36 L 203.00 126.35 C 208.14 125.97 206.49 130.54 205.66 133.90 C 203.84 133.92 202.03 133.87 200.23 133.78 C 196.00 134.99 183.27 128.55 183.91 136.06 C 181.48 147.64 203.75 132.77 199.57 147.98 C 195.74 148.45 191.90 148.87 188.05 149.23 C 187.97 153.90 187.54 158.68 188.56 163.29 C 187.97 169.26 194.96 166.48 198.79 166.93 C 209.03 163.84 203.63 175.45 205.69 181.13 C 206.89 183.94 202.86 182.76 201.28 183.38 C 197.08 183.10 192.89 183.18 188.72 183.64 C 185.49 183.79 182.29 184.16 179.06 183.97 C 179.01 176.90 179.21 169.80 178.27 162.78 C 178.20 162.13 178.07 160.83 178.00 160.18 C 177.92 156.21 177.81 152.25 177.67 148.29 C 177.89 141.12 178.31 133.93 177.73 126.77 C 185.87 127.27 194.05 127.12 202.17 126.36 Z" />
</g>
<g id="#8e5728ff">
<path fill="#8e5728" opacity="1.00" d=" M 177.67 148.29 C 176.97 141.19 176.17 133.73 177.73 126.77 C 178.31 133.93 177.89 141.12 177.67 148.29 Z" />
</g>
<g id="#8e5b2cff">
<path fill="#8e5b2c" opacity="1.00" d=" M 108.78 128.76 C 112.45 126.55 117.26 129.02 121.24 128.29 C 117.12 128.91 112.93 128.87 108.78 128.76 Z" />
</g>
<g id="#835228ff">
<path fill="#835228" opacity="1.00" d=" M 209.73 139.23 C 210.51 136.12 205.89 127.62 212.06 128.94 C 208.76 131.19 210.41 135.83 209.73 139.23 Z" />
</g>
<g id="#4c1f0cff">
<path fill="#4c1f0c" opacity="1.00" d=" M 212.06 128.94 C 214.75 128.84 217.45 128.80 220.15 128.83 C 225.44 129.16 231.55 129.22 235.75 132.96 C 236.79 135.48 237.89 137.99 238.41 140.69 C 238.32 144.87 238.27 149.05 238.25 153.23 C 238.08 155.10 237.92 156.98 237.74 158.85 C 230.40 168.00 240.42 178.04 241.03 187.82 C 240.20 187.93 238.54 188.15 237.72 188.26 C 235.12 188.15 229.92 187.93 227.32 187.82 C 224.40 181.09 228.25 166.12 217.09 169.02 C 217.05 174.31 216.97 179.60 216.87 184.90 C 214.34 185.93 211.63 185.00 209.03 184.88 C 209.08 184.45 209.18 183.61 209.22 183.18 C 210.41 175.42 210.03 167.55 209.79 159.73 C 209.89 157.13 209.96 154.54 209.99 151.94 C 210.04 147.70 209.86 143.46 209.73 139.23 C 210.41 135.83 208.76 131.19 212.06 128.94 M 222.06 135.04 C 221.92 143.33 221.92 151.63 222.05 159.92 C 224.47 159.30 230.86 162.24 230.99 158.99 C 233.76 154.14 231.99 140.87 231.00 136.03 C 230.51 133.05 223.47 136.74 222.06 135.04 Z" />
</g>
<g id="#7f5430ff">
<path fill="#7f5430" opacity="1.00" d=" M 183.91 136.06 C 183.27 128.55 196.00 134.99 200.23 133.78 C 195.14 135.06 187.78 131.46 183.91 136.06 Z" />
</g>
<g id="#c1a460ff">
<path fill="#c1a460" opacity="1.00" d=" M 183.91 136.06 C 187.78 131.46 195.14 135.06 200.23 133.78 C 202.03 133.87 203.84 133.92 205.66 133.90 C 202.74 139.31 204.19 145.80 204.19 151.67 C 205.28 154.05 208.08 151.91 209.99 151.94 C 209.96 154.54 209.89 157.13 209.79 159.73 C 209.50 160.86 209.23 161.98 208.97 163.12 C 205.24 164.92 198.65 160.56 198.79 166.93 C 194.96 166.48 187.97 169.26 188.56 163.29 C 188.78 158.89 188.75 154.49 189.14 150.11 C 191.27 148.26 201.24 153.09 199.57 147.98 C 203.75 132.77 181.48 147.64 183.91 136.06 Z" />
</g>
<g id="#e3d29cff">
<path fill="#e3d29c" opacity="1.00" d=" M 257.17 137.97 C 260.13 139.18 258.44 131.61 260.06 135.06 C 265.41 141.95 251.66 147.54 250.81 139.15 C 252.90 138.62 255.03 138.24 257.17 137.97 Z" />
</g>
<g id="#d8ad4cff">
<path fill="#d8ad4c" opacity="1.00" d=" M 222.06 135.04 C 223.47 136.74 230.51 133.05 231.00 136.03 C 231.00 143.68 231.00 151.34 230.99 158.99 C 230.86 162.24 224.47 159.30 222.05 159.92 C 221.92 151.63 221.92 143.33 222.06 135.04 Z" />
</g>
<g id="#a96f27ff">
<path fill="#a96f27" opacity="1.00" d=" M 231.00 136.03 C 231.99 140.87 233.76 154.14 230.99 158.99 C 231.00 151.34 231.00 143.68 231.00 136.03 Z" />
</g>
<g id="#979055ff">
<path fill="#979055" opacity="1.00" d=" M 7.08 137.03 C 11.64 135.55 13.22 140.23 12.76 144.19 C 11.11 151.19 16.10 163.45 8.84 166.96 C 11.80 159.24 9.55 150.98 10.08 142.99 C 15.45 133.88 5.26 141.88 7.08 137.03 Z" />
</g>
<g id="#8c4e18ff">
<path fill="#8c4e18" opacity="1.00" d=" M 78.39 136.70 C 79.94 145.10 78.62 153.74 78.91 162.22 C 78.67 161.89 78.18 161.22 77.94 160.89 C 77.94 156.00 78.03 151.12 77.92 146.24 C 78.04 143.06 78.23 139.87 78.39 136.70 Z" />
</g>
<g id="#9e9153ff">
<path fill="#9e9153" opacity="1.00" d=" M 278.12 139.16 C 283.20 138.28 289.27 140.51 293.40 136.70 C 294.39 143.70 281.14 137.51 279.01 143.06 C 279.12 149.39 280.36 155.66 280.04 162.01 C 275.60 162.44 279.44 154.40 277.71 152.28 C 277.89 147.90 277.92 143.52 278.12 139.16 Z" />
</g>
<g id="#9f9757ff">
<path fill="#9f9757" opacity="1.00" d=" M 305.10 138.03 C 306.59 137.99 307.22 139.75 307.00 141.00 C 305.71 149.57 307.65 158.35 305.76 166.82 C 303.16 166.96 297.94 167.22 295.34 167.35 C 294.08 166.95 292.83 166.53 291.60 166.09 C 295.46 164.17 299.68 165.52 303.77 165.75 C 307.20 156.68 300.18 146.74 305.10 138.03 Z" />
</g>
<g id="#8e6031ff">
<path fill="#8e6031" opacity="1.00" d=" M 87.02 149.06 C 86.92 145.61 87.34 142.17 87.83 138.77 C 87.91 142.08 87.93 145.38 87.90 148.71 L 87.02 149.06 Z" />
</g>
<g id="#c8893fff">
<path fill="#c8893f" opacity="1.00" d=" M 123.07 141.01 C 121.50 137.46 127.79 137.59 128.70 140.33 C 129.28 147.22 131.37 154.02 130.97 160.98 C 128.21 160.98 122.70 160.97 119.95 160.96 C 120.17 158.71 120.74 156.50 121.38 154.34 C 123.67 150.26 124.39 145.62 123.07 141.01 Z" />
</g>
<g id="#dd9025ff">
<path fill="#dd9025" opacity="1.00" d=" M 62.94 140.01 C 68.35 141.04 72.74 144.59 77.92 146.24 C 78.03 151.12 77.94 156.00 77.94 160.89 C 71.41 161.78 64.85 161.78 58.32 160.81 C 55.51 157.92 55.83 153.14 56.30 149.50 C 59.07 146.07 68.78 145.41 62.94 140.01 Z" />
</g>
<g id="#8c7344ff">
<path fill="#8c7344" opacity="1.00" d=" M 121.38 154.34 C 121.22 150.20 120.53 143.43 123.07 141.01 C 124.39 145.62 123.67 150.26 121.38 154.34 Z" />
</g>
<g id="#935d2eff">
<path fill="#935d2e" opacity="1.00" d=" M 238.41 140.69 C 239.48 144.78 238.70 149.10 238.25 153.23 C 238.27 149.05 238.32 144.87 238.41 140.69 Z" />
</g>
<g id="#af8f44ff">
<path fill="#af8f44" opacity="1.00" d=" M 28.35 143.75 C 31.21 145.29 31.53 149.25 34.10 151.13 C 37.59 151.06 40.13 148.20 43.26 147.01 C 41.38 150.76 37.24 152.44 33.44 153.54 C 30.03 156.15 29.46 161.97 25.09 163.25 C 27.07 159.78 29.54 156.58 31.05 152.87 C 24.94 152.57 20.99 158.22 16.45 161.33 C 18.95 153.91 30.76 153.49 28.35 143.75 Z" />
</g>
<g id="#948a4dff">
<path fill="#948a4d" opacity="1.00" d=" M 48.33 143.72 C 53.24 147.39 48.26 155.59 51.23 160.67 C 50.90 163.45 52.73 169.69 48.81 167.23 C 49.20 159.39 49.03 151.54 48.33 143.72 Z" />
</g>
<g id="#7d6637ff">
<path fill="#7d6637" opacity="1.00" d=" M 148.93 155.61 C 151.47 152.59 151.44 148.51 151.89 144.78 C 152.17 149.93 151.83 155.09 151.27 160.21 C 150.89 158.34 152.08 154.27 148.93 155.61 Z" />
</g>
<g id="#d98f2dff">
<path fill="#d98f2d" opacity="1.00" d=" M 87.90 148.71 C 89.80 147.63 90.58 149.25 91.23 150.81 C 94.01 159.59 105.02 159.78 111.18 154.08 C 110.82 156.41 110.43 158.73 109.92 161.04 C 102.78 162.62 92.51 165.00 86.62 159.88 C 87.02 156.29 86.98 152.66 87.02 149.06 L 87.90 148.71 Z" />
</g>
<g id="#7f5835ff">
<path fill="#7f5835" opacity="1.00" d=" M 199.57 147.98 C 201.24 153.09 191.27 148.26 189.14 150.11 C 188.75 154.49 188.78 158.89 188.56 163.29 C 187.54 158.68 187.97 153.90 188.05 149.23 C 191.90 148.87 195.74 148.45 199.57 147.98 Z" />
</g>
<g id="#c6a35bff">
<path fill="#c6a35b" opacity="1.00" d=" M 263.07 152.89 C 262.57 146.46 265.19 148.85 267.91 152.46 C 269.43 155.43 265.61 161.92 269.86 163.29 C 270.09 165.27 268.18 166.45 266.84 167.53 C 259.54 166.56 252.25 168.55 245.00 167.04 C 243.77 166.42 240.81 168.32 242.65 169.30 C 250.85 169.69 260.15 170.71 267.83 172.75 C 266.81 179.86 266.94 187.06 266.82 194.23 C 262.11 191.35 258.52 187.05 254.01 183.95 C 248.91 185.18 251.43 191.90 250.13 195.80 C 254.19 201.10 260.48 195.26 264.34 199.68 C 261.05 200.78 254.23 199.18 252.05 202.08 C 255.81 208.25 268.45 201.14 270.83 209.81 C 266.12 212.34 270.72 220.95 269.40 225.43 C 271.12 227.25 267.46 232.38 270.83 233.32 C 270.86 233.76 270.93 234.62 270.96 235.05 C 263.16 235.46 255.43 231.55 248.01 236.07 C 248.27 237.40 248.67 238.69 249.04 240.00 L 236.72 240.00 C 244.01 237.87 236.29 229.70 231.87 231.98 C 232.51 223.45 233.32 214.34 232.00 205.83 C 236.38 209.62 238.26 202.47 241.10 200.13 C 243.28 198.07 247.49 195.02 245.34 191.71 C 243.51 188.24 238.48 192.97 237.72 188.26 C 238.54 188.15 240.20 187.93 241.03 187.82 C 240.42 178.04 230.40 168.00 237.74 158.85 C 237.64 166.44 248.04 162.14 252.41 162.44 C 256.03 163.19 261.16 156.56 263.40 161.71 C 269.50 164.36 268.24 153.56 263.07 152.89 Z" />
</g>
<g id="#908950ff">
<path fill="#908950" opacity="1.00" d=" M 309.87 163.12 C 310.57 157.74 315.92 155.26 320.00 152.71 L 320.00 153.71 C 315.49 155.70 313.62 160.80 309.87 163.12 Z" />
</g>
<g id="#c7a562ff">
<path fill="#c7a562" opacity="1.00" d=" M 163.78 163.90 C 165.71 159.30 169.10 155.46 173.96 154.09 C 174.54 156.68 174.01 160.88 178.00 160.18 C 178.07 160.83 178.20 162.13 178.27 162.78 C 177.82 166.86 179.97 173.83 173.89 173.90 C 170.55 174.58 167.12 174.76 163.80 175.53 C 162.54 176.33 161.87 177.74 160.88 178.81 C 161.04 175.66 160.84 172.49 160.74 169.36 L 160.89 168.32 C 164.81 167.05 169.08 166.10 172.24 163.29 C 169.44 163.51 166.57 163.78 163.78 163.90 Z" />
</g>
<g id="#d59b3fff">
<path fill="#d59b3f" opacity="1.00" d=" M 270.87 155.73 C 275.81 153.09 272.43 159.23 273.95 162.02 C 277.28 168.87 285.56 166.28 291.60 166.09 C 292.83 166.53 294.08 166.95 295.34 167.35 C 290.69 173.27 281.06 166.01 275.73 170.72 C 271.50 182.30 275.94 195.85 274.88 208.09 C 274.81 208.33 274.65 208.81 274.58 209.06 C 274.24 211.00 273.08 212.49 271.27 213.29 C 271.16 212.42 270.94 210.68 270.83 209.81 C 268.45 201.14 255.81 208.25 252.05 202.08 C 254.23 199.18 261.05 200.78 264.34 199.68 C 260.48 195.26 254.19 201.10 250.13 195.80 C 251.43 191.90 248.91 185.18 254.01 183.95 C 258.52 187.05 262.11 191.35 266.82 194.23 C 267.50 196.04 265.56 204.74 268.84 200.65 C 268.18 191.52 271.05 181.46 267.83 172.75 C 260.15 170.71 250.85 169.69 242.65 169.30 C 240.81 168.32 243.77 166.42 245.00 167.04 C 252.25 168.55 259.54 166.56 266.84 167.53 C 268.18 166.45 270.09 165.27 269.86 163.29 C 269.91 161.49 270.02 157.89 270.08 156.09 L 270.87 155.73 Z" />
</g>
<g id="#8b5022ff">
<path fill="#8b5022" opacity="1.00" d=" M 160.31 155.71 C 160.84 159.89 161.07 164.10 160.89 168.32 L 160.74 169.36 C 159.45 164.93 160.39 160.22 160.31 155.71 Z" />
</g>
<g id="#c2914aff">
<path fill="#c2914a" opacity="1.00" d=" M 86.00 171.97 C 85.88 167.93 86.18 163.89 86.62 159.88 C 92.51 165.00 102.78 162.62 109.92 161.04 C 107.99 168.14 106.78 175.44 104.36 182.40 C 104.25 178.55 104.02 170.86 103.91 167.01 C 97.88 168.45 92.08 170.76 86.00 171.97 Z" />
</g>
<g id="#835421ff">
<path fill="#835421" opacity="1.00" d=" M 208.97 163.12 C 209.23 161.98 209.50 160.86 209.79 159.73 C 210.03 167.55 210.41 175.42 209.22 183.18 C 209.12 176.49 208.92 169.81 208.97 163.12 Z" />
</g>
<g id="#d28f21ff">
<path fill="#d28f21" opacity="1.00" d=" M 51.23 160.67 C 53.69 165.48 59.44 163.99 63.89 165.17 C 65.90 170.89 56.82 166.60 54.32 168.23 C 53.42 177.48 51.06 186.63 53.16 195.96 C 56.31 207.90 50.48 219.83 52.89 231.81 C 48.99 234.44 44.54 236.47 41.33 240.00 L 0.00 240.00 L 0.00 234.11 C 10.73 229.55 23.70 235.88 35.34 232.41 C 41.15 233.23 51.89 232.77 48.97 224.48 C 52.67 208.50 49.87 191.48 47.99 175.52 C 47.00 171.66 43.75 169.79 39.89 169.62 C 42.75 168.47 45.78 167.75 48.81 167.23 C 52.73 169.69 50.90 163.45 51.23 160.67 Z" />
</g>
<g id="#855a29ff">
<path fill="#855a29" opacity="1.00" d=" M 178.27 162.78 C 179.21 169.80 179.01 176.90 179.06 183.97 C 175.74 182.17 181.23 171.74 173.89 173.90 C 179.97 173.83 177.82 166.86 178.27 162.78 Z" />
</g>
<g id="#c79f50ff">
<path fill="#c79f50" opacity="1.00" d=" M 198.79 166.93 C 198.65 160.56 205.24 164.92 208.97 163.12 C 208.92 169.81 209.12 176.49 209.22 183.18 C 209.18 183.61 209.08 184.45 209.03 184.88 C 204.76 183.79 203.98 187.97 204.02 191.28 C 207.74 191.20 205.95 195.76 208.97 197.04 C 211.34 198.13 209.53 200.16 209.07 201.89 C 210.92 202.14 215.60 204.99 215.77 201.98 C 215.87 196.33 222.93 198.73 226.79 197.76 C 228.12 194.30 226.08 187.60 231.56 188.89 C 229.42 192.93 235.92 198.35 230.34 200.44 C 228.02 201.41 231.25 203.44 231.55 204.99 C 231.85 213.98 229.66 223.59 230.93 232.29 C 226.77 233.39 222.48 233.97 218.20 233.38 C 215.04 235.21 220.05 238.21 221.31 240.00 L 210.72 240.00 C 212.53 238.88 214.71 237.68 214.02 235.17 C 209.07 233.73 201.43 233.61 199.26 227.68 C 200.58 215.55 203.50 201.98 198.98 189.91 C 195.32 194.49 198.45 202.38 198.02 208.13 C 197.40 207.34 196.76 206.57 196.11 205.81 C 195.56 214.57 194.81 223.33 195.00 232.12 C 195.68 231.39 196.35 230.65 197.00 229.90 C 196.88 231.32 197.35 233.31 195.34 233.41 C 186.41 234.65 177.29 233.38 168.27 233.81 C 157.51 229.82 145.91 232.15 134.77 231.65 C 131.74 231.60 128.01 231.63 126.25 228.67 C 125.98 226.20 125.42 221.25 125.15 218.78 C 124.93 221.91 125.16 225.21 124.36 228.30 C 123.77 221.85 124.87 215.08 122.76 208.84 C 122.70 202.41 118.52 207.23 115.32 208.74 C 110.74 202.95 102.15 206.47 95.94 203.15 C 97.93 203.04 99.97 202.78 101.75 201.80 C 103.39 196.73 93.08 202.83 91.86 198.14 C 99.74 197.89 107.44 195.97 115.25 195.45 C 111.68 191.68 109.32 186.30 115.06 183.04 C 116.40 177.34 113.57 168.76 122.94 171.98 C 122.32 175.98 121.83 180.01 122.00 184.08 C 124.46 184.60 125.82 182.75 126.93 180.88 C 126.37 184.02 127.39 185.85 130.71 184.75 C 134.07 184.80 137.45 185.00 140.83 184.88 C 138.63 187.54 127.36 184.78 130.98 193.00 C 131.82 204.24 130.33 215.53 131.20 226.75 C 132.63 229.45 135.58 226.96 137.74 226.90 C 156.43 228.32 175.21 229.97 193.90 227.90 C 192.27 213.33 194.00 198.59 191.93 184.06 C 195.05 183.99 198.22 184.06 201.28 183.38 C 202.86 182.76 206.89 183.94 205.69 181.13 C 203.63 175.45 209.03 163.84 198.79 166.93 M 129.26 208.28 C 125.49 212.97 130.51 220.39 129.08 226.02 C 131.79 222.57 129.65 210.86 129.26 208.28 M 204.03 209.05 C 203.82 215.36 203.99 221.68 204.04 228.00 C 209.73 226.64 204.08 212.65 204.03 209.05 Z" />
</g>
<g id="#9f7c49ff">
<path fill="#9f7c49" opacity="1.00" d=" M 138.94 166.11 C 142.95 165.72 146.93 165.17 150.96 164.93 C 152.07 170.25 147.16 181.13 155.23 180.35 C 153.93 180.67 152.63 180.98 151.34 181.28 L 150.18 181.02 C 150.09 177.99 150.05 174.99 150.05 171.97 C 152.54 164.96 142.01 165.15 139.07 169.10 C 139.04 168.35 138.97 166.86 138.94 166.11 Z" />
</g>
<g id="#c99854ff">
<path fill="#c99854" opacity="1.00" d=" M 139.07 169.10 C 142.01 165.15 152.54 164.96 150.05 171.97 C 146.93 175.76 139.13 174.54 140.66 181.24 C 139.75 177.26 139.34 173.17 139.07 169.10 Z" />
</g>
<g id="#cd9943ff">
<path fill="#cd9943" opacity="1.00" d=" M 217.09 169.02 C 228.25 166.12 224.40 181.09 227.32 187.82 C 229.92 187.93 235.12 188.15 237.72 188.26 C 238.48 192.97 243.51 188.24 245.34 191.71 C 247.49 195.02 243.28 198.07 241.10 200.13 C 238.26 202.47 236.38 209.62 232.00 205.83 L 231.55 204.99 C 231.25 203.44 228.02 201.41 230.34 200.44 C 235.92 198.35 229.42 192.93 231.56 188.89 C 226.08 187.60 228.12 194.30 226.79 197.76 C 222.93 198.73 215.87 196.33 215.77 201.98 C 215.60 204.99 210.92 202.14 209.07 201.89 C 209.53 200.16 211.34 198.13 208.97 197.04 C 205.95 195.76 207.74 191.20 204.02 191.28 C 203.98 187.97 204.76 183.79 209.03 184.88 C 211.63 185.00 214.34 185.93 216.87 184.90 C 216.97 179.60 217.05 174.31 217.09 169.02 Z" />
</g>
<g id="#cf902dff">
<path fill="#cf902d" opacity="1.00" d=" M 58.83 173.74 C 61.17 168.72 69.63 172.24 74.00 172.16 C 72.20 175.50 73.85 182.23 70.51 183.43 C 65.19 177.83 66.66 186.64 66.89 189.96 C 71.40 188.34 74.15 178.99 78.86 184.10 C 79.20 184.32 79.88 184.76 80.22 184.98 C 80.24 187.51 79.15 189.69 77.64 191.64 C 79.73 192.78 83.36 198.51 79.02 198.02 C 72.62 197.05 56.50 200.99 58.51 190.86 C 57.89 185.14 58.21 179.42 58.83 173.74 Z" />
</g>
<g id="#976636ff">
<path fill="#976636" opacity="1.00" d=" M 115.05 171.06 C 118.59 171.53 125.16 169.34 126.97 171.99 C 125.63 171.98 124.28 171.97 122.94 171.98 C 113.57 168.76 116.40 177.34 115.06 183.04 C 115.01 179.04 115.01 175.05 115.05 171.06 Z" />
</g>
<g id="#d98c2dff">
<path fill="#d98c2d" opacity="1.00" d=" M 122.94 171.98 C 124.28 171.97 125.63 171.98 126.97 171.99 C 127.12 174.95 126.96 177.90 126.93 180.88 C 125.82 182.75 124.46 184.60 122.00 184.08 C 121.83 180.01 122.32 175.98 122.94 171.98 Z" />
</g>
<g id="#deb974ff">
<path fill="#deb974" opacity="1.00" d=" M 140.66 181.24 C 139.13 174.54 146.93 175.76 150.05 171.97 C 150.05 174.99 150.09 177.99 150.18 181.02 C 147.03 181.03 143.96 181.87 141.04 182.98 C 140.95 182.55 140.76 181.68 140.66 181.24 Z" />
</g>
<g id="#a79048ff">
<path fill="#a79048" opacity="1.00" d=" M 276.57 178.90 C 273.61 167.81 291.19 174.14 295.91 174.06 C 290.72 173.88 285.55 173.92 280.38 174.19 C 275.44 187.52 279.50 202.29 277.44 216.12 C 273.57 217.72 275.26 211.68 274.58 209.06 C 274.65 208.81 274.81 208.33 274.88 208.09 C 278.00 198.97 274.86 188.45 276.57 178.90 Z" />
</g>
<g id="#da9022ff">
<path fill="#da9022" opacity="1.00" d=" M 9.78 175.88 C 20.70 171.16 33.84 173.33 44.85 176.20 C 45.11 183.65 45.99 191.17 45.51 198.62 C 43.84 208.27 49.13 219.76 44.29 228.29 C 29.73 232.45 14.71 225.38 0.00 228.05 L 0.00 221.44 C 2.60 220.32 4.98 218.78 7.05 216.86 C 11.92 221.78 20.01 228.69 26.76 222.81 C 29.26 213.26 37.37 229.81 40.91 226.18 C 36.70 220.52 28.70 217.31 25.10 210.96 C 24.70 208.81 27.78 209.46 29.10 209.54 C 29.98 204.85 25.11 208.45 22.82 209.01 C 23.33 206.54 25.63 205.18 27.27 203.48 C 29.86 201.94 32.44 200.39 34.97 198.76 C 34.48 194.84 29.31 194.03 27.26 190.92 C 23.81 187.59 20.65 182.85 15.05 183.82 C 13.75 180.83 13.03 177.42 9.78 175.88 Z" />
</g>
<g id="#9c914eff">
<path fill="#9c914e" opacity="1.00" d=" M 266.82 194.23 C 266.94 187.06 266.81 179.86 267.83 172.75 C 271.05 181.46 268.18 191.52 268.84 200.65 C 265.56 204.74 267.50 196.04 266.82 194.23 Z" />
</g>
<g id="#a48e45ff">
<path fill="#a48e45" opacity="1.00" d=" M 55.98 190.00 C 57.80 185.60 52.11 174.47 58.83 173.74 C 58.21 179.42 57.89 185.14 58.51 190.86 C 57.96 194.28 55.81 192.52 55.98 190.00 Z" />
</g>
<g id="#da9c32ff">
<path fill="#da9c32" opacity="1.00" d=" M 163.80 175.53 C 167.12 174.76 170.55 174.58 173.89 173.90 C 181.23 171.74 175.74 182.17 179.06 183.97 C 182.29 184.16 185.49 183.79 188.72 183.64 C 189.52 183.74 191.13 183.96 191.93 184.06 C 194.00 198.59 192.27 213.33 193.90 227.90 C 175.21 229.97 156.43 228.32 137.74 226.90 C 135.58 226.96 132.63 229.45 131.20 226.75 C 130.33 215.53 131.82 204.24 130.98 193.00 C 127.36 184.78 138.63 187.54 140.83 184.88 L 140.94 183.91 L 141.04 182.98 C 143.96 181.87 147.03 181.03 150.18 181.02 L 151.34 181.28 C 146.43 187.81 138.37 190.96 133.75 197.77 C 128.11 205.14 144.74 206.13 138.07 212.81 C 146.02 212.74 147.78 221.22 151.38 226.71 C 153.29 227.33 155.39 227.57 154.44 224.95 C 161.83 227.33 168.16 221.24 175.37 220.45 C 177.01 215.61 186.83 214.21 183.02 207.99 C 180.24 204.06 186.37 205.14 188.09 207.06 C 188.26 202.04 183.99 198.53 181.16 194.90 C 176.55 187.51 174.15 176.61 163.80 175.53 Z" />
</g>
<g id="#dc9821ff">
<path fill="#dc9821" opacity="1.00" d=" M 280.38 174.19 C 285.55 173.92 290.72 173.88 295.91 174.06 C 302.75 180.23 311.85 171.99 320.00 174.01 L 320.00 196.21 C 316.96 192.62 312.09 191.03 307.94 193.74 C 302.03 190.97 292.99 187.66 294.75 179.28 C 288.06 178.22 280.73 179.16 279.82 187.74 C 290.04 186.95 302.00 194.66 302.37 205.81 C 302.80 211.26 307.73 213.41 312.16 214.84 C 313.58 218.88 315.99 222.45 320.00 224.30 L 320.00 225.20 C 310.84 224.78 302.71 217.71 293.23 217.04 C 290.95 220.22 287.18 222.88 286.92 227.09 C 279.02 231.23 281.34 219.83 277.44 216.12 C 279.50 202.29 275.44 187.52 280.38 174.19 Z" />
</g>
<g id="#e0bd42ff">
<path fill="#e0bd42" opacity="1.00" d=" M 0.00 178.15 C 3.10 176.80 6.39 176.03 9.78 175.88 C 13.03 177.42 13.75 180.83 15.05 183.82 C 11.27 190.08 13.99 198.08 17.20 203.98 C 20.06 204.79 21.29 201.90 22.69 200.04 C 23.27 202.26 25.02 203.42 27.27 203.48 C 25.63 205.18 23.33 206.54 22.82 209.01 C 25.11 208.45 29.98 204.85 29.10 209.54 C 27.78 209.46 24.70 208.81 25.10 210.96 C 28.70 217.31 36.70 220.52 40.91 226.18 C 37.37 229.81 29.26 213.26 26.76 222.81 C 20.01 228.69 11.92 221.78 7.05 216.86 C 7.86 216.12 8.74 215.47 9.72 214.96 C 12.33 219.22 17.62 222.78 22.72 221.83 C 28.81 217.65 21.16 212.26 17.38 209.53 C 12.27 205.36 5.73 203.41 0.00 199.93 L 0.00 178.15 Z" />
</g>
<g id="#908a4cff">
<path fill="#908a4c" opacity="1.00" d=" M 48.97 224.48 C 48.50 208.47 46.58 191.74 47.99 175.52 C 49.87 191.48 52.67 208.50 48.97 224.48 Z" />
</g>
<g id="#deba39ff">
<path fill="#deba39" opacity="1.00" d=" M 160.88 178.81 C 161.87 177.74 162.54 176.33 163.80 175.53 C 174.15 176.61 176.55 187.51 181.16 194.90 C 183.99 198.53 188.26 202.04 188.09 207.06 C 186.37 205.14 180.24 204.06 183.02 207.99 C 186.83 214.21 177.01 215.61 175.37 220.45 C 168.16 221.24 161.83 227.33 154.44 224.95 C 155.39 227.57 153.29 227.33 151.38 226.71 C 147.78 221.22 146.02 212.74 138.07 212.81 C 144.74 206.13 128.11 205.14 133.75 197.77 C 138.37 190.96 146.43 187.81 151.34 181.28 C 152.63 180.98 153.93 180.67 155.23 180.35 C 157.13 179.90 159.02 179.41 160.88 178.81 Z" />
</g>
<g id="#dfb734ff">
<path fill="#dfb734" opacity="1.00" d=" M 279.82 187.74 C 280.73 179.16 288.06 178.22 294.75 179.28 C 292.99 187.66 302.03 190.97 307.94 193.74 C 312.09 191.03 316.96 192.62 320.00 196.21 L 320.00 224.30 C 315.99 222.45 313.58 218.88 312.16 214.84 C 307.73 213.41 302.80 211.26 302.37 205.81 C 302.00 194.66 290.04 186.95 279.82 187.74 Z" />
</g>
<g id="#c88e31ff">
<path fill="#c88e31" opacity="1.00" d=" M 85.89 183.98 C 95.64 184.33 105.33 183.33 115.06 183.04 C 109.32 186.30 111.68 191.68 115.25 195.45 C 107.44 195.97 99.74 197.89 91.86 198.14 C 93.08 202.83 103.39 196.73 101.75 201.80 C 99.97 202.78 97.93 203.04 95.94 203.15 C 91.14 202.11 88.66 210.69 87.69 214.90 C 85.13 213.78 83.51 211.79 83.92 208.86 C 84.28 204.86 81.19 201.73 77.27 201.58 C 76.36 198.21 82.15 202.07 84.16 200.20 C 88.58 197.12 82.88 189.04 85.89 183.98 Z" />
</g>
<g id="#885628ff">
<path fill="#885628" opacity="1.00" d=" M 188.72 183.64 C 192.89 183.18 197.08 183.10 201.28 183.38 C 198.22 184.06 195.05 183.99 191.93 184.06 C 191.13 183.96 189.52 183.74 188.72 183.64 Z" />
</g>
<g id="#e0b972ff">
<path fill="#e0b972" opacity="1.00" d=" M 15.05 183.82 C 20.65 182.85 23.81 187.59 27.26 190.92 C 27.37 194.63 24.51 197.14 22.69 200.04 C 21.29 201.90 20.06 204.79 17.20 203.98 C 13.99 198.08 11.27 190.08 15.05 183.82 Z" />
</g>
<g id="#9b8a40ff">
<path fill="#9b8a40" opacity="1.00" d=" M 78.86 184.10 C 80.62 184.07 84.14 184.01 85.89 183.98 C 82.88 189.04 88.58 197.12 84.16 200.20 C 81.53 196.23 86.12 185.57 80.22 184.98 C 79.88 184.76 79.20 184.32 78.86 184.10 Z" />
</g>
<g id="#855724ff">
<path fill="#855724" opacity="1.00" d=" M 130.71 184.75 C 134.03 183.75 137.50 183.90 140.94 183.91 L 140.83 184.88 C 137.45 185.00 134.07 184.80 130.71 184.75 Z" />
</g>
<g id="#d99a34ff">
<path fill="#d99a34" opacity="1.00" d=" M 198.02 208.13 C 198.45 202.38 195.32 194.49 198.98 189.91 C 203.50 201.98 200.58 215.55 199.26 227.68 C 201.43 233.61 209.07 233.73 214.02 235.17 C 214.71 237.68 212.53 238.88 210.72 240.00 L 41.33 240.00 C 44.54 236.47 48.99 234.44 52.89 231.81 C 53.97 232.44 54.82 233.66 56.16 233.74 C 65.68 233.10 75.23 233.70 84.76 233.80 C 87.29 229.35 83.59 224.17 83.83 219.47 C 85.21 218.70 86.57 217.87 87.98 217.15 C 88.21 222.22 91.43 226.72 90.10 231.86 C 99.78 234.50 109.45 235.32 119.25 236.72 C 122.30 236.95 123.21 233.56 123.68 231.18 C 123.85 230.46 124.19 229.02 124.36 228.30 C 125.16 225.21 124.93 221.91 125.15 218.78 C 125.42 221.25 125.98 226.20 126.25 228.67 C 128.01 231.63 131.74 231.60 134.77 231.65 C 145.21 235.57 157.18 232.41 168.27 233.81 C 177.29 233.38 186.41 234.65 195.34 233.41 C 197.35 233.31 196.88 231.32 197.00 229.90 C 196.88 222.62 198.18 215.40 198.02 208.13 Z" />
</g>
<g id="#df9c41ff">
<path fill="#df9c41" opacity="1.00" d=" M 27.26 190.92 C 29.31 194.03 34.48 194.84 34.97 198.76 C 32.44 200.39 29.86 201.94 27.27 203.48 C 25.02 203.42 23.27 202.26 22.69 200.04 C 24.51 197.14 27.37 194.63 27.26 190.92 Z" />
</g>
<g id="#dfb665ff">
<path fill="#dfb665" opacity="1.00" d=" M 0.00 199.93 C 5.73 203.41 12.27 205.36 17.38 209.53 C 15.02 211.60 12.47 213.45 9.72 214.96 C 8.74 215.47 7.86 216.12 7.05 216.86 C 4.98 218.78 2.60 220.32 0.00 221.44 L 0.00 199.93 Z" />
</g>
<g id="#bfa557ff">
<path fill="#bfa557" opacity="1.00" d=" M 87.69 214.90 C 88.66 210.69 91.14 202.11 95.94 203.15 C 102.15 206.47 110.74 202.95 115.32 208.74 C 118.52 207.23 122.70 202.41 122.76 208.84 C 122.38 216.12 120.32 224.33 123.68 231.18 C 123.21 233.56 122.30 236.95 119.25 236.72 C 109.45 235.32 99.78 234.50 90.10 231.86 C 91.43 226.72 88.21 222.22 87.98 217.15 C 86.57 217.87 85.21 218.70 83.83 219.47 C 81.17 218.46 81.80 215.13 81.19 212.79 C 81.17 212.09 81.13 210.69 81.11 209.98 C 82.04 209.60 82.98 209.23 83.92 208.86 C 83.51 211.79 85.13 213.78 87.69 214.90 Z" />
</g>
<g id="#c6963eff">
<path fill="#c6963e" opacity="1.00" d=" M 59.20 206.72 C 65.64 204.03 77.25 202.41 81.11 209.98 C 81.13 210.69 81.17 212.09 81.19 212.79 C 80.35 216.41 80.97 220.26 80.08 223.78 C 76.09 220.63 71.21 223.29 66.85 224.14 C 69.65 227.78 75.15 226.07 79.29 226.54 C 74.02 231.37 65.71 229.66 59.07 228.99 C 59.12 221.55 57.31 214.08 59.20 206.72 Z" />
</g>
<g id="#929154ff">
<path fill="#929154" opacity="1.00" d=" M 230.93 232.29 C 229.66 223.59 231.85 213.98 231.55 204.99 L 232.00 205.83 C 233.32 214.34 232.51 223.45 231.87 231.98 L 230.93 232.29 Z" />
</g>
<g id="#988c4bff">
<path fill="#988c4b" opacity="1.00" d=" M 56.09 210.99 C 52.42 203.67 56.76 206.19 59.20 206.72 C 57.31 214.08 59.12 221.55 59.07 228.99 C 54.16 225.83 57.08 216.78 56.09 210.99 Z" />
</g>
<g id="#878e52ff">
<path fill="#878e52" opacity="1.00" d=" M 196.11 205.81 C 196.76 206.57 197.40 207.34 198.02 208.13 C 198.18 215.40 196.88 222.62 197.00 229.90 C 196.35 230.65 195.68 231.39 195.00 232.12 C 194.81 223.33 195.56 214.57 196.11 205.81 Z" />
</g>
<g id="#668353ff">
<path fill="#668353" opacity="1.00" d=" M 129.26 208.28 C 129.65 210.86 131.79 222.57 129.08 226.02 C 130.51 220.39 125.49 212.97 129.26 208.28 Z" />
</g>
<g id="#728850ff">
<path fill="#728850" opacity="1.00" d=" M 123.68 231.18 C 120.32 224.33 122.38 216.12 122.76 208.84 C 124.87 215.08 123.77 221.85 124.36 228.30 C 124.19 229.02 123.85 230.46 123.68 231.18 Z" />
</g>
<g id="#818750ff">
<path fill="#818750" opacity="1.00" d=" M 204.03 209.05 C 204.08 212.65 209.73 226.64 204.04 228.00 C 203.99 221.68 203.82 215.36 204.03 209.05 Z" />
</g>
<g id="#d0ad5aff">
<path fill="#d0ad5a" opacity="1.00" d=" M 274.58 209.06 C 275.26 211.68 273.57 217.72 277.44 216.12 C 281.34 219.83 279.02 231.23 286.92 227.09 C 297.05 219.80 308.56 231.80 320.00 229.10 L 320.00 240.00 L 276.05 240.00 C 276.05 238.62 276.05 237.24 276.04 235.86 C 277.67 241.57 284.90 236.50 284.08 232.13 C 281.27 232.16 278.38 230.91 275.62 231.88 C 276.65 225.45 271.97 220.85 271.27 214.82 C 271.27 214.43 271.27 213.67 271.27 213.29 C 273.08 212.49 274.24 211.00 274.58 209.06 Z" />
</g>
<g id="#db9323ff">
<path fill="#db9323" opacity="1.00" d=" M 9.72 214.96 C 12.47 213.45 15.02 211.60 17.38 209.53 C 21.16 212.26 28.81 217.65 22.72 221.83 C 17.62 222.78 12.33 219.22 9.72 214.96 Z" />
</g>
<g id="#8b9764ff">
<path fill="#8b9764" opacity="1.00" d=" M 269.40 225.43 C 270.72 220.95 266.12 212.34 270.83 209.81 C 270.94 210.68 271.16 212.42 271.27 213.29 C 271.27 213.67 271.27 214.43 271.27 214.82 C 271.09 220.98 271.00 227.15 270.83 233.32 C 267.46 232.38 271.12 227.25 269.40 225.43 Z" />
</g>
<g id="#dab57dff">
<path fill="#dab57d" opacity="1.00" d=" M 271.27 214.82 C 271.97 220.85 276.65 225.45 275.62 231.88 C 275.75 233.21 275.89 234.53 276.04 235.86 C 276.05 237.24 276.05 238.62 276.05 240.00 L 274.24 240.00 C 273.15 238.35 272.07 236.69 270.96 235.05 C 270.93 234.62 270.86 233.76 270.83 233.32 C 271.00 227.15 271.09 220.98 271.27 214.82 Z" />
</g>
<g id="#dea63eff">
<path fill="#dea63e" opacity="1.00" d=" M 293.23 217.04 C 302.71 217.71 310.84 224.78 320.00 225.20 L 320.00 229.10 C 308.56 231.80 297.05 219.80 286.92 227.09 C 287.18 222.88 290.95 220.22 293.23 217.04 Z" />
</g>
<g id="#a89644ff">
<path fill="#a89644" opacity="1.00" d=" M 134.77 231.65 C 145.91 232.15 157.51 229.82 168.27 233.81 C 157.18 232.41 145.21 235.57 134.77 231.65 Z" />
</g>
<g id="#d89e3fff">
<path fill="#d89e3f" opacity="1.00" d=" M 231.87 231.98 C 236.29 229.70 244.01 237.87 236.72 240.00 L 221.31 240.00 C 220.05 238.21 215.04 235.21 218.20 233.38 C 222.48 233.97 226.77 233.39 230.93 232.29 L 231.87 231.98 Z" />
</g>
<g id="#d59a2cff">
<path fill="#d59a2c" opacity="1.00" d=" M 275.62 231.88 C 278.38 230.91 281.27 232.16 284.08 232.13 C 284.90 236.50 277.67 241.57 276.04 235.86 C 275.89 234.53 275.75 233.21 275.62 231.88 Z" />
</g>
<g id="#d8a144ff">
<path fill="#d8a144" opacity="1.00" d=" M 248.01 236.07 C 255.43 231.55 263.16 235.46 270.96 235.05 C 272.07 236.69 273.15 238.35 274.24 240.00 L 249.04 240.00 C 248.67 238.69 248.27 237.40 248.01 236.07 Z" />
</g>
</svg>
