<?xml version="1.0" encoding="UTF-8" ?>
<!DOCTYPE svg PUBLIC "-//W3C//DTD SVG 1.1//EN" "http://www.w3.org/Graphics/SVG/1.1/DTD/svg11.dtd">
<svg width="210pt" height="220pt" viewBox="0 0 210 220" version="1.1" xmlns="http://www.w3.org/2000/svg">
<g id="#ffffffff">
<path fill="#ffffff" opacity="1.00" d=" M 0.00 0.00 L 210.00 0.00 L 210.00 220.00 L 0.00 220.00 L 0.00 0.00 M 15.72 6.48 C 15.55 7.99 15.37 9.51 15.20 11.02 C 14.76 11.98 14.33 12.93 13.91 13.89 C 13.66 11.43 13.44 8.97 13.22 6.51 C 12.11 6.49 9.91 6.44 8.80 6.42 C 10.18 12.70 13.07 18.75 12.31 25.33 C 13.38 25.33 15.51 25.32 16.58 25.32 C 15.86 19.04 18.08 13.12 20.00 7.27 C 21.79 13.15 24.11 19.05 23.40 25.32 C 24.46 25.32 26.60 25.32 27.67 25.32 C 27.67 21.87 27.47 18.32 28.77 15.04 C 29.35 12.42 31.02 9.78 30.12 7.06 C 29.29 6.90 27.63 6.58 26.80 6.43 C 26.65 8.19 26.49 9.95 26.35 11.72 C 25.93 11.70 25.09 11.65 24.67 11.63 C 24.59 9.92 24.50 8.20 24.40 6.49 C 21.51 6.42 18.61 6.42 15.72 6.48 M 55.40 6.43 C 55.31 12.73 55.30 19.03 55.37 25.33 C 58.07 25.32 60.78 25.32 63.49 25.32 C 63.52 23.98 63.55 22.64 63.58 21.30 C 62.76 21.30 61.11 21.29 60.29 21.29 C 60.26 20.07 60.23 18.85 60.21 17.62 C 60.96 17.58 62.46 17.49 63.20 17.45 C 63.24 16.49 63.27 15.54 63.31 14.58 C 62.23 14.22 61.15 13.87 60.07 13.51 C 60.13 12.49 60.19 11.46 60.25 10.44 C 61.02 10.43 62.54 10.41 63.30 10.40 C 63.32 9.08 63.35 7.76 63.37 6.45 C 60.71 6.43 58.06 6.43 55.40 6.43 M 65.33 6.42 C 65.33 12.72 65.25 19.03 65.43 25.33 C 68.12 25.32 70.80 25.31 73.49 25.31 C 73.52 24.32 73.58 22.33 73.61 21.34 C 72.77 21.33 71.09 21.33 70.26 21.33 C 70.25 20.14 70.20 18.95 70.13 17.76 C 72.34 17.94 73.63 17.00 73.49 14.73 C 72.22 14.26 70.96 13.78 69.69 13.32 C 69.72 12.63 69.79 11.27 69.82 10.58 C 70.98 10.49 72.14 10.40 73.30 10.31 C 73.32 9.35 73.34 7.43 73.36 6.47 C 70.68 6.44 68.01 6.43 65.33 6.42 M 74.69 6.50 C 74.64 12.61 74.77 18.71 74.50 24.82 C 77.20 25.34 79.96 25.37 82.69 25.42 C 82.98 24.10 83.26 22.77 83.52 21.44 C 82.22 21.36 80.91 21.29 79.60 21.23 C 79.58 20.32 79.54 18.51 79.52 17.61 C 80.29 17.59 81.82 17.54 82.59 17.51 C 82.62 16.56 82.66 15.61 82.70 14.65 C 80.37 14.21 78.79 13.06 79.40 10.45 C 80.22 10.44 81.88 10.44 82.71 10.43 C 82.73 9.09 82.74 7.75 82.76 6.41 C 80.07 6.43 77.37 6.44 74.69 6.50 M 84.69 6.48 C 84.64 12.75 84.60 19.01 84.71 25.28 C 87.27 25.30 89.83 25.44 92.38 25.27 C 93.12 24.14 93.51 22.87 93.55 21.47 C 92.22 21.38 90.89 21.30 89.56 21.22 C 89.54 20.32 89.51 18.51 89.50 17.61 C 90.26 17.59 91.80 17.54 92.57 17.52 C 92.60 16.56 92.64 15.61 92.69 14.65 C 90.37 14.19 88.72 13.09 89.36 10.45 C 90.19 10.45 91.85 10.44 92.68 10.43 C 92.70 9.09 92.71 7.75 92.73 6.41 C 90.05 6.43 87.37 6.44 84.69 6.48 M 94.68 6.48 C 94.60 12.63 94.65 18.78 94.62 24.93 C 99.18 25.64 103.81 25.17 108.40 25.33 C 108.43 24.52 108.50 22.90 108.53 22.10 C 109.40 22.21 110.28 22.33 111.16 22.45 C 111.19 23.17 111.25 24.61 111.28 25.33 C 112.46 25.33 114.82 25.32 116.00 25.32 C 114.74 19.06 114.00 12.71 112.91 6.41 C 110.51 6.42 108.11 6.45 105.72 6.54 C 105.65 8.59 105.65 10.63 105.66 12.68 C 105.22 12.24 104.77 11.80 104.33 11.35 C 104.41 14.79 104.63 18.23 104.27 21.67 C 102.69 21.49 101.11 21.32 99.53 21.17 C 99.52 20.28 99.48 18.50 99.47 17.61 C 100.26 17.59 101.83 17.53 102.62 17.50 C 102.57 16.28 102.52 15.05 102.47 13.82 C 101.72 13.81 100.21 13.80 99.46 13.79 C 99.46 12.95 99.48 11.26 99.49 10.41 C 100.30 10.43 101.90 10.45 102.71 10.46 C 102.72 9.11 102.73 7.76 102.73 6.41 C 100.05 6.43 97.37 6.44 94.68 6.48 M 118.48 6.42 C 117.48 12.69 116.76 19.01 116.01 25.32 C 117.17 25.32 119.47 25.33 120.62 25.33 C 120.64 24.58 120.69 23.09 120.71 22.34 C 121.59 22.28 122.47 22.23 123.35 22.18 C 123.39 22.96 123.45 24.54 123.48 25.33 C 126.52 25.31 129.55 25.31 132.58 25.33 C 132.61 24.57 132.67 23.04 132.70 22.27 C 133.58 22.26 134.46 22.25 135.34 22.24 C 135.36 23.01 135.41 24.55 135.44 25.31 C 136.57 25.32 138.83 25.33 139.97 25.34 C 139.25 19.03 138.20 12.77 137.30 6.48 C 135.02 6.45 132.74 6.43 130.46 6.40 C 129.38 11.96 129.12 17.64 128.00 23.19 C 126.83 17.66 126.23 12.04 125.33 6.47 C 123.05 6.45 120.76 6.43 118.48 6.42 M 142.67 6.46 C 141.94 12.81 140.99 19.12 140.04 25.43 C 142.64 25.63 145.67 25.59 145.64 22.18 C 146.11 22.17 147.06 22.13 147.53 22.11 C 147.57 22.91 147.64 24.52 147.68 25.32 C 150.69 25.31 153.71 25.32 156.72 25.33 C 156.76 24.63 156.83 23.21 156.87 22.51 C 157.74 22.35 158.61 22.19 159.48 22.03 C 159.53 22.85 159.61 24.50 159.66 25.32 C 162.91 25.31 166.17 25.31 169.43 25.31 C 169.45 24.58 169.48 23.11 169.50 22.37 C 169.97 22.17 170.91 21.78 171.38 21.59 C 171.73 22.85 172.08 24.10 172.44 25.36 C 175.42 25.31 178.40 25.31 181.38 25.30 C 181.41 24.52 181.47 22.96 181.50 22.19 C 182.01 22.17 183.04 22.14 183.55 22.12 C 183.83 23.20 184.11 24.28 184.39 25.37 C 187.46 25.30 190.52 25.30 193.59 25.33 C 193.63 24.55 193.72 22.98 193.76 22.20 C 194.38 22.20 195.61 22.19 196.23 22.19 C 196.27 22.98 196.36 24.57 196.40 25.36 C 198.01 25.33 199.63 25.30 201.24 25.27 C 200.13 19.02 199.14 12.75 198.28 6.46 C 195.99 6.44 193.71 6.42 191.42 6.40 C 190.42 11.46 190.11 16.63 189.25 21.71 L 187.94 20.32 C 187.18 15.74 186.50 11.15 186.14 6.52 C 183.68 6.44 181.23 6.44 178.77 6.49 C 178.43 12.03 177.36 17.50 177.07 23.05 C 176.65 21.71 176.20 20.39 175.70 19.09 C 175.25 14.88 174.41 10.73 174.14 6.50 C 171.69 6.44 169.24 6.44 166.80 6.51 C 166.52 11.59 165.48 16.58 165.12 21.65 C 164.76 21.33 164.05 20.68 163.69 20.36 C 162.73 15.76 162.48 11.05 161.54 6.44 C 159.24 6.44 156.94 6.44 154.64 6.45 C 153.91 12.03 153.40 17.67 152.02 23.14 C 151.14 17.58 150.65 11.96 149.56 6.43 C 147.26 6.44 144.96 6.44 142.67 6.46 M 32.17 7.16 C 32.10 7.51 31.95 8.19 31.88 8.54 C 33.86 13.92 35.32 19.50 34.72 25.29 C 36.27 25.31 37.83 25.32 39.39 25.33 C 39.34 21.54 39.19 17.67 40.56 14.06 C 41.32 12.21 41.08 9.51 43.32 8.74 C 44.63 13.43 46.20 18.12 45.82 23.06 C 45.40 25.98 48.68 25.31 50.48 25.41 C 49.67 18.82 52.32 12.71 53.89 6.46 C 52.85 6.46 50.77 6.45 49.73 6.45 C 49.41 8.83 48.85 11.16 48.05 13.42 C 47.56 11.14 47.30 8.82 47.04 6.51 C 44.24 6.42 41.43 6.42 38.62 6.44 C 38.22 8.78 37.68 11.10 37.06 13.40 C 36.47 10.96 36.00 8.49 35.46 6.03 C 34.64 6.31 33.00 6.88 32.17 7.16 M 110.41 33.55 C 110.78 34.70 111.14 35.85 111.59 36.97 C 111.07 36.80 110.03 36.45 109.50 36.28 C 109.44 35.69 109.32 34.52 109.25 33.94 C 105.16 35.22 101.94 38.88 97.43 38.79 C 94.31 41.63 90.64 43.73 87.15 46.07 C 84.37 49.28 80.63 51.62 78.23 55.16 C 77.09 57.96 75.36 60.40 73.66 62.87 C 72.94 66.96 71.27 70.84 71.21 75.04 C 70.20 77.49 70.26 80.16 70.25 82.76 C 65.74 86.85 64.77 93.41 64.60 99.19 C 64.88 99.62 65.46 100.49 65.74 100.92 C 67.70 102.33 67.84 104.71 68.22 106.89 C 69.56 110.42 71.32 114.03 70.00 117.89 C 69.62 119.55 69.28 121.23 68.78 122.86 C 67.34 125.57 67.33 128.64 67.35 131.62 C 64.30 133.89 64.03 138.61 59.98 139.79 C 54.02 141.74 49.57 146.44 43.80 148.78 C 42.90 149.27 42.00 149.77 41.11 150.28 C 38.37 150.49 35.61 150.64 32.88 150.32 C 29.46 149.02 25.67 149.17 22.18 150.13 C 20.85 150.45 19.52 150.76 18.19 151.11 C 17.14 151.41 16.08 151.72 15.03 152.04 C 13.70 152.41 12.37 152.76 11.05 153.17 C 9.65 153.39 8.24 153.58 6.84 153.76 C 6.12 153.96 4.70 154.36 3.99 154.56 C 4.01 154.83 4.06 155.38 4.09 155.65 C 8.79 155.47 13.34 154.21 17.81 152.86 C 19.15 152.52 20.48 152.21 21.81 151.84 C 23.53 151.52 25.25 151.17 26.95 150.73 C 29.61 151.35 32.33 151.62 35.04 151.92 C 35.88 152.15 37.56 152.61 38.40 152.84 C 36.77 153.34 35.19 153.96 33.62 154.62 C 32.55 156.42 31.84 158.22 35.06 158.16 C 33.51 160.63 31.43 162.71 29.45 164.84 C 29.47 165.20 29.51 165.92 29.53 166.28 C 32.12 169.08 34.37 172.19 37.20 174.77 C 40.63 178.37 43.47 182.49 47.03 185.98 C 49.29 188.11 50.98 191.27 54.25 191.97 C 50.86 187.06 46.21 183.17 42.53 178.48 C 39.14 173.72 34.29 170.24 31.17 165.27 C 33.38 163.04 35.15 160.15 38.18 158.94 C 39.60 158.01 42.13 157.77 41.78 155.39 C 39.28 155.81 36.82 156.59 34.26 156.59 C 40.02 151.92 47.17 149.56 53.12 145.20 C 56.45 142.81 60.33 141.37 63.92 139.44 C 65.85 145.17 70.22 149.85 71.28 155.89 C 72.16 160.65 73.97 165.16 75.12 169.85 C 75.40 171.57 75.65 173.30 76.18 174.97 C 76.50 177.60 76.67 180.25 77.22 182.85 C 77.41 185.79 77.72 188.73 78.52 191.58 C 83.84 191.40 89.18 191.71 94.50 191.36 C 98.01 186.30 101.21 180.76 102.81 174.75 C 106.42 168.37 110.66 161.70 117.32 158.16 C 120.03 156.57 122.44 154.56 124.73 152.42 C 125.31 152.45 126.47 152.51 127.04 152.54 C 127.51 151.96 128.43 150.79 128.89 150.21 C 133.61 153.46 137.86 157.41 143.08 159.92 C 143.90 160.27 144.73 160.62 145.56 160.96 C 145.93 162.61 146.29 164.26 146.55 165.92 C 146.14 166.50 145.33 167.65 144.92 168.22 C 143.29 168.47 141.66 168.89 140.01 168.79 C 135.52 167.89 132.46 163.19 127.67 163.43 C 130.71 165.70 134.17 167.36 137.00 169.90 C 139.81 171.32 142.48 173.07 144.73 175.29 C 145.05 178.49 141.22 179.80 138.79 180.78 C 132.17 183.88 125.91 187.69 119.52 191.23 C 120.68 191.42 121.96 191.87 123.02 191.10 C 128.96 187.99 134.61 184.30 140.83 181.75 C 143.29 180.81 145.51 179.08 146.62 176.64 C 147.59 174.12 144.34 173.05 142.78 171.85 C 142.59 171.56 142.21 170.98 142.02 170.69 C 143.84 169.97 145.64 169.22 147.40 168.35 C 147.52 167.17 147.64 165.99 147.76 164.82 C 148.27 164.50 149.31 163.88 149.82 163.57 C 151.57 164.05 153.34 164.48 155.11 164.89 C 156.77 165.51 158.43 166.13 160.11 166.72 C 163.12 168.11 166.11 169.56 169.10 171.00 C 171.09 171.69 173.07 172.37 175.09 172.98 C 176.68 173.39 178.28 173.78 179.87 174.21 C 182.05 175.20 184.19 176.29 186.27 177.49 C 186.41 177.05 186.71 176.17 186.86 175.73 C 182.99 173.81 179.06 171.93 174.76 171.21 C 172.79 170.53 170.83 169.84 168.88 169.11 C 168.39 168.87 167.40 168.39 166.91 168.15 C 165.97 167.69 165.03 167.22 164.10 166.76 C 162.04 165.87 159.99 164.97 157.88 164.22 C 156.82 163.84 155.78 163.47 154.73 163.09 C 152.78 162.60 150.77 162.48 148.77 162.39 C 145.80 158.66 141.03 157.39 137.34 154.60 C 134.96 153.01 133.07 150.63 130.22 149.81 C 129.85 147.56 132.24 146.86 133.64 145.69 C 137.67 143.04 140.90 139.31 142.93 134.94 C 143.39 133.99 143.87 133.04 144.34 132.10 C 146.43 125.57 149.67 119.49 152.23 113.13 C 153.28 110.42 154.16 107.65 154.99 104.86 C 155.28 103.58 155.54 102.29 155.84 101.01 C 160.23 95.11 164.37 88.89 167.47 82.15 C 167.35 80.74 167.24 79.31 166.85 77.95 C 166.59 75.90 166.43 73.84 166.31 71.78 C 165.11 69.63 163.74 67.59 162.53 65.46 C 162.16 63.00 162.60 60.48 162.51 58.00 C 161.97 57.01 161.44 56.02 160.93 55.01 C 160.62 54.62 159.99 53.83 159.68 53.44 C 159.35 51.14 158.04 49.21 156.95 47.22 C 154.99 44.34 152.98 41.16 149.43 40.12 C 149.13 39.75 148.54 39.01 148.24 38.65 C 146.47 37.83 144.69 37.03 142.90 36.26 C 139.77 34.54 136.53 32.89 132.84 33.29 C 132.01 32.74 131.17 32.20 130.33 31.67 C 123.85 33.50 116.74 31.08 110.41 33.55 M 14.72 194.79 C 12.97 196.99 13.03 200.81 15.44 202.53 C 17.66 204.43 21.16 205.80 20.62 209.35 C 20.06 209.40 18.95 209.51 18.40 209.57 C 18.39 208.23 18.39 206.90 18.39 205.57 C 16.75 205.59 15.12 205.62 13.49 205.64 C 13.82 207.52 14.20 209.40 14.59 211.28 C 17.69 213.16 21.50 213.14 24.56 211.20 C 24.64 208.79 24.91 206.34 24.43 203.96 C 22.58 201.95 20.24 200.51 18.04 198.93 C 18.51 198.14 18.04 196.35 19.30 196.32 C 19.84 197.26 20.35 198.22 20.83 199.21 C 21.75 199.24 23.59 199.30 24.51 199.33 C 24.46 197.26 24.69 194.64 22.34 193.69 C 19.86 193.18 16.63 192.69 14.72 194.79 M 28.46 193.67 C 25.54 195.08 26.05 198.87 26.63 201.48 C 28.85 204.09 33.59 205.23 32.79 209.49 C 32.26 209.47 31.19 209.44 30.66 209.43 C 30.62 208.15 30.59 206.87 30.55 205.60 C 29.48 205.60 27.32 205.60 26.25 205.60 C 26.58 207.72 25.94 210.56 28.13 211.86 C 30.70 213.47 33.98 212.60 36.59 211.48 C 37.19 208.88 37.98 205.95 36.36 203.54 C 34.62 201.70 32.38 200.41 30.44 198.78 C 30.47 198.25 30.52 197.19 30.54 196.65 C 31.00 196.60 31.91 196.50 32.36 196.45 C 32.44 197.14 32.59 198.52 32.67 199.21 C 33.70 199.24 35.75 199.31 36.77 199.34 C 36.71 198.01 36.71 196.66 36.49 195.34 C 34.70 192.76 31.14 193.06 28.46 193.67 M 38.94 197.01 C 38.35 201.73 38.49 206.59 39.51 211.25 C 41.99 212.66 45.26 213.41 47.88 212.01 C 50.52 210.51 50.13 207.09 50.49 204.53 C 48.84 204.47 47.20 204.44 45.55 204.42 C 45.54 206.10 45.52 207.77 45.50 209.46 L 43.50 209.48 C 43.54 205.17 43.54 200.85 43.49 196.54 L 45.54 196.51 C 45.54 198.19 45.54 199.88 45.54 201.57 C 47.20 201.55 48.85 201.52 50.51 201.47 C 50.30 199.19 49.95 196.93 49.49 194.69 C 46.14 192.70 40.01 192.23 38.94 197.01 M 54.68 193.67 C 51.46 195.13 51.99 199.12 51.72 202.03 C 51.87 205.67 51.31 210.15 54.58 212.64 C 56.91 212.40 59.80 213.35 61.66 211.48 C 63.81 209.82 63.28 206.83 63.56 204.46 C 61.93 204.45 60.30 204.45 58.67 204.46 C 58.65 206.14 58.62 207.84 58.59 209.53 C 58.09 209.50 57.10 209.45 56.60 209.42 C 56.64 205.15 56.64 200.87 56.60 196.60 C 57.10 196.56 58.12 196.48 58.63 196.45 C 58.64 198.14 58.65 199.83 58.66 201.53 C 60.29 201.54 61.91 201.54 63.54 201.54 C 63.24 199.32 63.91 196.64 62.20 194.85 C 60.33 192.77 57.14 193.14 54.68 193.67 M 86.20 193.56 C 86.51 199.88 85.35 206.22 86.21 212.50 C 87.70 212.47 89.18 212.45 90.67 212.42 C 90.65 206.16 90.66 199.91 90.66 193.65 C 89.17 193.62 87.69 193.59 86.20 193.56 M 93.22 193.61 C 93.20 199.88 93.26 206.14 93.18 212.41 C 95.94 212.44 98.70 212.44 101.46 212.45 C 101.47 211.50 101.49 209.61 101.50 208.66 C 99.80 208.52 96.86 208.35 97.60 205.76 C 98.64 205.17 99.71 204.67 100.83 204.25 C 100.83 203.41 100.83 202.57 100.83 201.73 C 99.73 201.29 98.66 200.80 97.60 200.28 C 97.77 199.60 98.09 198.22 98.26 197.54 C 99.05 197.52 100.63 197.48 101.43 197.46 C 101.29 196.15 101.14 194.85 100.98 193.55 C 98.39 193.54 95.81 193.57 93.22 193.61 M 103.24 193.55 C 103.20 199.86 103.16 206.16 103.30 212.46 C 106.01 212.44 108.72 212.44 111.44 212.43 C 111.44 211.49 111.46 209.60 111.47 208.65 C 109.74 208.52 106.82 208.37 107.58 205.73 C 108.62 205.17 109.69 204.67 110.80 204.24 C 110.80 203.41 110.80 202.57 110.81 201.74 C 109.71 201.30 108.64 200.82 107.59 200.31 C 107.74 199.62 108.05 198.23 108.21 197.54 C 109.01 197.52 110.62 197.48 111.43 197.45 C 111.28 196.15 111.11 194.85 110.94 193.55 C 108.37 193.55 105.81 193.56 103.24 193.55 M 122.63 193.62 C 122.52 198.70 122.58 203.78 122.58 208.86 C 120.88 208.62 119.19 208.39 117.50 208.19 C 117.16 205.90 118.68 204.67 120.74 204.24 C 120.75 203.37 120.75 202.51 120.76 201.65 C 119.57 201.17 118.37 200.72 117.16 200.31 C 117.65 198.40 118.80 197.15 120.87 197.26 C 120.85 196.35 120.81 194.52 120.79 193.61 C 118.29 193.56 115.79 193.54 113.29 193.51 C 112.37 199.79 112.86 206.18 113.34 212.48 C 117.74 212.45 122.14 212.22 126.54 212.46 C 126.53 209.72 126.53 206.95 126.67 204.23 C 127.60 206.98 128.49 209.77 129.44 212.53 C 130.45 212.50 132.47 212.43 133.48 212.40 C 133.44 206.12 133.46 199.84 133.47 193.56 C 132.46 193.55 130.43 193.55 129.42 193.55 C 129.44 196.10 129.45 198.66 129.27 201.22 C 128.21 198.68 127.31 196.09 126.43 193.49 C 125.16 193.53 123.90 193.57 122.63 193.62 M 161.65 196.90 C 161.35 201.00 161.34 205.15 161.69 209.25 C 162.88 213.77 169.97 213.84 172.35 210.36 C 172.85 208.43 172.76 206.42 172.87 204.45 C 171.38 204.44 169.90 204.44 168.42 204.44 C 168.03 206.38 169.24 209.38 166.51 210.03 C 166.20 205.51 166.38 200.97 166.34 196.44 C 166.85 196.49 167.85 196.58 168.35 196.63 C 168.34 198.27 168.33 199.90 168.32 201.54 C 169.83 201.55 171.34 201.55 172.86 201.55 C 172.77 199.53 172.88 197.46 172.41 195.48 C 169.87 192.01 162.83 192.40 161.65 196.90 M 174.80 196.79 C 174.45 200.90 174.43 205.05 174.83 209.15 C 175.58 212.89 180.10 213.20 183.12 212.39 C 186.29 211.13 185.89 207.30 186.46 204.56 C 184.81 204.49 183.16 204.44 181.51 204.41 C 181.09 206.33 182.42 209.49 179.56 209.96 C 179.33 205.48 179.48 200.98 179.44 196.49 C 179.94 196.51 180.93 196.55 181.43 196.56 C 181.43 198.23 181.42 199.90 181.43 201.57 C 183.09 201.55 184.74 201.51 186.40 201.46 C 186.05 198.92 186.47 195.53 183.94 193.98 C 180.84 192.55 175.89 192.92 174.80 196.79 M 187.80 194.48 C 187.72 200.45 187.89 206.42 187.70 212.39 C 190.61 212.44 193.52 212.44 196.43 212.44 C 196.44 211.10 196.44 209.77 196.44 208.44 C 195.11 208.42 193.77 208.40 192.44 208.38 C 192.15 205.98 193.13 204.10 195.81 204.34 C 195.81 203.60 195.80 202.13 195.80 201.39 C 195.01 201.35 193.45 201.28 192.67 201.25 C 192.65 200.34 192.63 198.54 192.62 197.63 C 193.88 197.57 195.14 197.51 196.40 197.45 C 196.21 196.14 196.01 194.84 195.81 193.53 C 193.29 194.05 189.57 192.39 187.80 194.48 M 65.53 193.56 C 65.60 199.85 65.60 206.15 65.52 212.44 C 67.15 212.44 68.78 212.43 70.40 212.43 C 70.38 206.14 70.39 199.86 70.40 193.57 C 68.78 193.56 67.15 193.55 65.53 193.56 M 72.43 193.54 C 72.44 199.85 72.43 206.16 72.43 212.47 C 74.05 212.44 75.67 212.42 77.29 212.39 C 77.27 206.12 77.28 199.86 77.29 193.60 C 75.67 193.57 74.05 193.55 72.43 193.54 M 79.31 193.65 C 79.30 199.91 79.32 206.17 79.29 212.43 C 80.79 212.44 82.28 212.45 83.78 212.46 C 83.76 206.17 83.81 199.88 83.75 193.60 C 82.64 193.61 80.42 193.64 79.31 193.65 M 135.67 193.61 C 135.69 199.88 135.69 206.15 135.67 212.42 C 136.66 212.43 138.65 212.45 139.64 212.46 C 139.60 209.87 139.58 207.27 139.76 204.68 C 140.81 207.24 141.68 209.88 142.57 212.51 C 143.57 212.49 145.56 212.44 146.56 212.42 C 146.53 206.13 146.54 199.83 146.55 193.54 C 145.55 193.54 143.54 193.55 142.54 193.56 C 142.55 196.11 142.53 198.67 142.30 201.22 C 141.32 198.66 140.44 196.06 139.53 193.48 C 138.57 193.51 136.63 193.58 135.67 193.61 M 148.53 193.58 C 148.55 199.86 148.55 206.15 148.53 212.43 C 149.50 212.44 151.44 212.45 152.41 212.46 C 152.41 209.86 152.45 207.26 152.71 204.68 C 153.62 207.28 154.41 209.91 155.31 212.52 C 156.35 212.48 158.43 212.40 159.47 212.37 C 159.35 206.11 159.34 199.85 159.47 193.60 C 158.44 193.58 156.40 193.53 155.38 193.51 C 155.40 196.08 155.41 198.65 155.26 201.22 C 154.13 198.71 153.20 196.12 152.32 193.52 C 151.37 193.54 149.48 193.57 148.53 193.58 Z" />
<path fill="#ffffff" opacity="1.00" d=" M 109.35 14.77 C 109.55 13.48 109.76 12.19 110.01 10.90 C 110.31 13.49 110.51 16.09 110.71 18.68 C 110.15 18.68 109.03 18.68 108.47 18.67 C 108.55 17.35 108.63 16.03 108.70 14.71 L 109.35 14.77 Z" />
<path fill="#ffffff" opacity="1.00" d=" M 145.22 18.65 C 145.44 16.06 145.67 13.46 145.99 10.88 C 146.48 13.47 147.04 16.03 147.60 18.60 C 147.01 18.61 145.81 18.63 145.22 18.65 Z" />
<path fill="#ffffff" opacity="1.00" d=" M 157.16 18.63 C 157.42 16.06 157.67 13.50 158.00 10.94 C 158.34 12.65 158.65 14.37 159.03 16.07 C 159.15 16.70 159.40 17.97 159.52 18.60 C 158.93 18.61 157.75 18.62 157.16 18.63 Z" />
<path fill="#ffffff" opacity="1.00" d=" M 170.40 13.21 C 170.62 12.41 170.83 11.61 171.03 10.81 C 171.25 13.43 171.47 16.05 171.70 18.68 C 171.11 18.67 169.93 18.65 169.35 18.64 C 169.53 16.80 169.84 14.97 170.40 13.21 Z" />
<path fill="#ffffff" opacity="1.00" d=" M 194.26 15.25 C 194.49 13.78 194.74 12.31 195.02 10.84 C 195.37 13.45 195.67 16.07 195.93 18.69 C 195.33 18.67 194.12 18.62 193.52 18.59 C 193.77 17.48 194.02 16.37 194.26 15.25 Z" />
<path fill="#ffffff" opacity="1.00" d=" M 121.78 12.18 C 121.92 12.19 122.20 12.19 122.35 12.19 C 122.53 14.38 122.73 16.56 122.89 18.74 C 122.33 18.67 121.22 18.53 120.66 18.45 C 121.12 16.38 121.47 14.28 121.78 12.18 Z" />
<path fill="#ffffff" opacity="1.00" d=" M 132.56 18.55 C 133.09 16.24 133.54 13.92 134.09 11.61 C 134.46 13.95 134.71 16.30 134.93 18.66 C 134.34 18.63 133.15 18.58 132.56 18.55 Z" />
<path fill="#ffffff" opacity="1.00" d=" M 181.83 12.65 C 182.17 12.63 182.86 12.58 183.20 12.55 C 183.32 14.59 183.47 16.62 183.62 18.65 C 183.08 18.65 181.98 18.65 181.44 18.65 C 181.57 16.65 181.71 14.65 181.83 12.65 Z" />
<path fill="#ffffff" opacity="1.00" d=" M 114.40 40.60 C 118.34 39.87 122.36 40.46 126.33 40.63 C 126.45 41.91 126.55 43.19 126.64 44.47 C 128.68 43.87 130.23 44.34 131.30 45.88 C 131.78 44.73 132.15 43.53 132.51 42.33 C 132.86 43.00 133.57 44.33 133.93 44.99 C 133.21 45.26 132.50 45.54 131.79 45.83 C 134.39 47.79 138.03 47.58 140.37 50.22 C 140.36 50.90 140.32 52.27 140.31 52.96 C 141.27 52.57 143.19 51.80 144.15 51.41 C 147.29 53.75 149.70 56.96 153.35 58.63 C 154.48 62.24 157.33 64.83 159.40 67.87 C 159.82 69.85 159.73 71.91 160.15 73.90 C 160.57 76.65 160.50 79.43 160.27 82.19 C 159.50 85.68 157.23 88.48 155.68 91.62 C 154.98 94.77 154.42 97.94 154.26 101.16 C 152.81 108.16 149.50 114.49 147.23 121.20 C 145.48 125.97 140.97 128.61 137.98 132.47 C 138.45 132.48 139.38 132.50 139.85 132.51 C 141.08 131.09 142.40 129.73 143.77 128.43 C 143.35 131.84 141.20 134.65 139.60 137.58 C 137.26 141.71 132.93 143.92 129.46 146.90 C 129.47 147.62 129.49 149.06 129.50 149.78 C 127.96 149.60 126.46 149.26 125.01 148.74 C 122.68 148.53 120.33 148.44 118.05 147.92 C 115.72 147.68 113.36 147.61 111.11 146.94 C 109.72 146.27 108.31 145.64 106.91 145.02 C 101.76 142.49 95.98 143.24 90.48 143.61 L 90.67 141.30 C 86.17 142.55 82.77 145.87 78.77 148.09 C 76.50 149.39 74.72 151.33 72.89 153.16 C 70.83 148.94 68.63 144.77 66.09 140.81 C 64.01 137.83 67.08 134.60 67.86 131.70 C 70.66 132.99 73.33 134.53 76.10 135.91 C 80.10 137.61 83.77 139.95 87.70 141.79 C 87.96 140.51 87.18 139.61 86.13 138.98 C 80.44 136.51 75.10 133.30 69.38 130.91 C 68.45 125.35 72.10 120.44 71.83 114.88 C 72.41 111.56 72.96 108.22 74.13 105.04 C 74.27 103.46 74.37 101.88 74.48 100.31 C 71.88 100.34 69.28 100.54 66.69 100.58 C 65.96 96.57 67.03 92.68 67.82 88.79 C 69.15 86.27 70.79 83.69 73.71 82.86 C 75.47 82.71 77.22 82.46 78.96 82.11 C 80.43 81.32 81.91 80.54 83.42 79.83 C 83.53 82.34 83.50 85.06 81.70 87.03 C 81.23 88.85 80.77 90.67 80.36 92.50 L 81.36 92.40 C 81.44 93.12 81.59 94.56 81.67 95.27 C 82.17 95.30 83.16 95.37 83.66 95.40 C 83.22 94.68 82.78 93.96 82.35 93.23 C 82.28 91.09 82.29 88.89 83.18 86.89 C 83.97 84.31 85.34 81.47 83.47 79.00 C 84.31 72.66 90.44 68.23 90.53 61.66 C 92.34 61.64 94.15 61.60 95.97 61.53 C 97.42 59.35 102.12 55.42 97.48 53.99 C 98.52 53.00 99.47 51.90 99.90 50.49 C 98.86 50.32 97.83 50.15 96.79 49.98 C 97.58 49.91 99.16 49.78 99.95 49.71 C 102.00 48.04 104.34 46.82 106.78 45.83 C 109.18 43.89 111.92 42.43 114.40 40.60 M 106.08 56.91 C 109.84 58.97 114.24 58.27 118.20 59.69 C 120.64 61.48 123.18 63.12 125.71 64.77 C 126.05 61.50 122.86 59.88 120.51 58.44 C 116.35 55.40 110.85 56.37 106.08 56.91 M 116.47 63.99 C 116.45 65.74 117.50 67.06 118.64 68.28 C 117.36 69.07 116.06 70.09 114.37 69.59 L 114.58 68.71 C 109.95 67.62 105.17 67.01 100.41 67.48 C 103.17 69.13 106.57 68.38 109.62 68.65 L 109.45 69.39 C 110.84 69.47 112.23 69.54 113.62 69.61 C 113.64 70.12 113.69 71.14 113.71 71.66 C 111.93 71.57 110.15 71.48 108.37 71.41 L 108.48 70.43 C 107.22 70.51 105.96 70.60 104.70 70.71 C 108.90 73.22 114.09 73.15 118.59 71.52 C 119.25 69.99 119.85 68.44 120.49 66.90 C 119.55 66.35 118.61 65.79 117.67 65.24 C 117.37 64.93 116.77 64.30 116.47 63.99 M 140.06 70.57 C 140.19 72.29 141.23 73.48 142.60 74.39 C 144.37 74.91 146.12 75.50 147.88 76.07 C 151.70 77.38 154.05 80.90 154.59 84.80 C 154.93 84.82 155.61 84.88 155.95 84.91 C 155.77 83.55 155.60 82.19 155.42 80.83 C 154.01 78.71 152.65 76.52 150.71 74.84 C 150.54 74.40 150.21 73.53 150.04 73.10 C 146.81 71.92 143.60 70.32 140.06 70.57 M 125.83 73.65 C 125.72 74.09 125.51 74.96 125.40 75.40 C 127.10 75.29 128.81 75.23 130.52 75.24 C 130.47 74.82 130.37 73.97 130.32 73.54 C 128.82 73.56 127.33 73.59 125.83 73.65 M 117.70 76.70 C 116.22 77.74 115.31 79.29 114.48 80.85 L 116.05 80.17 C 116.29 82.22 118.09 83.32 119.76 84.17 C 117.53 84.84 115.32 85.58 113.14 86.38 C 111.73 86.19 110.34 85.98 108.95 85.73 C 106.44 86.09 103.89 86.19 101.40 86.62 C 99.61 87.99 97.31 89.82 98.52 92.36 C 99.96 93.61 102.26 92.93 103.53 94.51 C 106.76 97.59 111.00 99.07 115.46 98.65 C 115.48 99.22 115.52 100.37 115.54 100.95 C 116.76 101.39 117.98 101.86 119.18 102.35 C 119.40 102.42 119.84 102.54 120.05 102.61 C 121.66 103.40 123.28 104.18 124.85 105.05 C 126.81 106.88 129.63 106.20 132.05 106.49 C 132.70 106.90 133.35 107.30 134.00 107.70 C 134.75 107.10 135.51 106.51 136.26 105.91 C 136.91 107.44 137.55 108.96 138.16 110.51 C 138.78 110.50 139.40 110.49 140.03 110.48 C 140.33 109.90 140.92 108.75 141.22 108.17 C 141.26 107.81 141.34 107.08 141.38 106.71 C 140.43 105.16 139.48 103.61 138.45 102.11 C 138.39 101.54 138.26 100.41 138.20 99.84 C 137.36 97.22 136.95 94.18 134.44 92.54 C 134.89 92.10 135.78 91.24 136.23 90.80 C 137.45 90.69 138.68 90.60 139.91 90.54 L 139.21 92.26 L 140.32 92.42 C 140.41 93.24 140.59 94.89 140.68 95.72 C 141.35 95.55 142.03 95.38 142.71 95.21 C 141.97 93.90 141.38 92.52 140.62 91.23 C 140.44 90.13 140.27 89.04 140.09 87.95 L 139.30 89.64 C 136.62 89.71 134.10 88.70 132.46 86.54 C 130.97 87.09 129.52 87.73 128.12 88.45 C 127.19 88.44 125.33 88.41 124.40 88.39 L 124.56 87.82 C 124.01 87.38 122.90 86.50 122.35 86.06 C 122.71 84.95 123.17 83.88 123.61 82.80 C 122.04 82.03 120.48 81.27 118.93 80.49 L 117.89 80.96 C 117.43 80.20 116.97 79.45 116.50 78.70 C 117.88 78.19 119.26 77.68 120.65 77.17 C 120.56 76.73 120.40 75.84 120.31 75.40 C 119.44 75.82 118.57 76.26 117.70 76.70 M 138.96 80.82 C 139.60 81.27 140.23 81.72 140.87 82.18 C 142.84 83.62 144.86 84.99 146.80 86.48 L 147.12 86.67 C 147.53 88.13 148.70 88.71 150.10 88.89 C 150.21 88.40 150.42 87.43 150.53 86.95 C 147.02 85.37 144.07 82.85 141.04 80.54 C 140.52 80.61 139.48 80.75 138.96 80.82 M 70.40 90.05 C 71.20 89.15 72.80 87.35 73.60 86.44 C 73.83 87.53 74.29 89.71 74.52 90.81 C 74.06 91.90 73.69 93.02 73.33 94.15 C 73.78 94.22 74.66 94.35 75.11 94.41 C 75.52 92.48 76.24 90.64 76.58 88.70 C 75.95 88.59 74.68 88.36 74.04 88.25 C 74.08 87.86 74.14 87.06 74.17 86.67 C 75.99 86.27 77.77 85.71 79.46 84.91 C 75.99 83.47 69.36 85.35 70.40 90.05 M 139.68 85.57 C 141.68 86.94 143.81 88.09 146.04 89.04 C 145.65 86.88 143.31 86.50 141.90 85.28 C 141.35 85.35 140.24 85.50 139.68 85.57 M 106.88 100.62 C 109.41 103.29 112.63 105.06 115.98 106.50 C 116.22 106.57 116.71 106.71 116.95 106.79 C 119.36 107.93 122.00 108.90 124.65 108.00 L 122.62 107.47 L 122.50 106.86 C 120.99 106.59 119.48 106.30 118.02 105.85 C 114.81 104.40 111.59 102.88 108.87 100.59 C 108.37 100.60 107.37 100.61 106.88 100.62 M 80.02 108.94 C 81.89 111.61 82.97 115.45 86.51 116.35 C 85.42 114.51 84.12 112.81 82.87 111.08 C 82.59 110.59 82.04 109.61 81.77 109.12 C 81.20 107.36 80.56 105.63 79.90 103.91 C 79.45 105.57 79.54 107.30 80.02 108.94 M 95.66 115.35 C 100.41 119.74 104.63 125.01 110.85 127.42 C 115.78 129.34 121.19 128.75 126.34 128.27 C 126.40 127.78 126.53 126.81 126.59 126.33 C 125.11 126.63 123.63 126.94 122.17 127.32 C 119.59 127.50 117.01 127.45 114.43 127.42 L 114.48 126.82 C 113.31 126.55 112.15 126.26 110.99 125.96 C 105.73 123.68 101.78 119.46 97.87 115.42 C 97.32 115.40 96.21 115.37 95.66 115.35 Z" />
<path fill="#ffffff" opacity="1.00" d=" M 106.42 90.94 C 109.90 90.11 113.49 89.68 117.07 89.80 C 118.37 90.21 119.70 90.54 121.03 90.86 C 121.64 90.07 122.26 89.29 122.88 88.50 C 124.09 88.97 125.32 89.41 126.55 89.83 C 126.53 90.35 126.48 91.39 126.46 91.91 C 128.96 92.73 130.70 94.74 132.36 96.67 L 129.82 96.58 C 129.51 96.00 128.89 94.83 128.58 94.25 C 128.51 95.36 128.45 96.47 128.38 97.58 C 128.80 97.53 129.63 97.44 130.05 97.40 C 131.32 99.39 132.72 101.30 134.14 103.20 C 134.16 103.66 134.21 104.59 134.23 105.05 C 133.95 104.43 133.67 103.81 133.38 103.20 C 131.65 102.12 130.23 100.67 129.07 99.00 C 128.45 98.24 127.85 97.47 127.25 96.69 C 123.69 94.54 119.93 92.51 115.81 91.69 C 112.60 91.49 109.30 93.18 106.42 90.94 Z" />
<path fill="#ffffff" opacity="1.00" d=" M 106.83 94.66 C 110.52 93.90 114.35 92.81 118.11 93.69 C 121.52 94.86 124.52 96.91 127.42 99.00 C 127.48 99.47 127.60 100.41 127.67 100.88 C 129.54 101.70 130.58 103.40 131.32 105.23 C 130.42 105.35 128.62 105.60 127.72 105.72 C 127.48 104.32 127.06 102.97 126.53 101.65 C 123.36 99.25 119.99 96.92 116.12 95.85 C 113.68 95.49 111.30 96.34 108.90 96.63 C 108.21 95.97 107.52 95.32 106.83 94.66 Z" />
<path fill="#ffffff" opacity="1.00" d=" M 116.63 99.20 C 119.90 99.21 122.76 100.95 125.29 102.87 C 124.15 102.60 121.87 102.06 120.74 101.79 C 120.55 101.72 120.18 101.58 119.99 101.51 C 118.49 101.34 117.96 99.70 116.63 99.20 Z" />
<path fill="#ffffff" opacity="1.00" d=" M 97.86 144.57 C 99.59 144.49 101.28 144.72 102.92 145.27 C 104.57 145.96 106.24 146.61 107.90 147.27 C 109.54 147.94 111.17 148.63 112.80 149.34 C 116.79 149.41 120.72 150.08 124.67 150.58 C 120.27 154.65 114.97 157.47 110.14 160.96 C 108.66 158.59 107.10 156.26 105.47 153.99 C 105.44 153.31 105.38 151.94 105.35 151.25 C 102.80 149.08 99.96 147.21 97.86 144.57 Z" />
<path fill="#ffffff" opacity="1.00" d=" M 73.03 155.00 C 75.64 152.63 78.07 149.94 81.35 148.48 C 81.37 149.61 81.41 150.75 81.44 151.90 C 82.30 152.85 83.01 154.17 82.25 155.41 C 81.17 158.27 80.19 161.18 78.81 163.91 C 78.29 165.08 77.77 166.25 77.28 167.44 L 75.89 167.56 C 75.41 163.25 73.24 159.35 73.03 155.00 Z" />
<path fill="#ffffff" opacity="1.00" d=" M 96.15 155.69 C 96.25 153.88 96.96 152.24 97.92 150.73 C 98.78 151.70 99.62 152.68 100.43 153.70 C 99.00 154.35 97.57 155.01 96.15 155.69 Z" />
<path fill="#ffffff" opacity="1.00" d=" M 96.35 157.08 C 98.87 156.07 101.30 154.88 103.78 153.79 C 105.31 156.93 107.42 159.72 109.39 162.58 C 105.66 166.68 102.01 171.17 100.47 176.61 C 99.74 178.52 99.38 180.79 97.44 181.94 C 97.07 177.35 97.82 172.66 96.70 168.14 C 96.30 164.47 95.97 160.76 96.35 157.08 Z" />
</g>
<g id="#ef0101ff">
<path fill="#ef0101" opacity="1.00" d=" M 15.72 6.48 C 18.61 6.42 21.51 6.42 24.40 6.49 C 24.50 8.20 24.59 9.92 24.67 11.63 C 25.09 11.65 25.93 11.70 26.35 11.72 C 26.49 9.95 26.65 8.19 26.80 6.43 C 27.63 6.58 29.29 6.90 30.12 7.06 C 31.02 9.78 29.35 12.42 28.77 15.04 C 27.47 18.32 27.67 21.87 27.67 25.32 C 26.60 25.32 24.46 25.32 23.40 25.32 C 24.11 19.05 21.79 13.15 20.00 7.27 C 18.08 13.12 15.86 19.04 16.58 25.32 C 15.51 25.32 13.38 25.33 12.31 25.33 C 13.07 18.75 10.18 12.70 8.80 6.42 C 9.91 6.44 12.11 6.49 13.22 6.51 C 13.44 8.97 13.66 11.43 13.91 13.89 C 14.33 12.93 14.76 11.98 15.20 11.02 C 15.37 9.51 15.55 7.99 15.72 6.48 Z" />
<path fill="#ef0101" opacity="1.00" d=" M 55.40 6.43 C 58.06 6.43 60.71 6.43 63.37 6.45 C 63.35 7.76 63.32 9.08 63.30 10.40 C 62.54 10.41 61.02 10.43 60.25 10.44 C 60.19 11.46 60.13 12.49 60.07 13.51 C 61.15 13.87 62.23 14.22 63.31 14.58 C 63.27 15.54 63.24 16.49 63.20 17.45 C 62.46 17.49 60.96 17.58 60.21 17.62 C 60.23 18.85 60.26 20.07 60.29 21.29 C 61.11 21.29 62.76 21.30 63.58 21.30 C 63.55 22.64 63.52 23.98 63.49 25.32 C 60.78 25.32 58.07 25.32 55.37 25.33 C 55.30 19.03 55.31 12.73 55.40 6.43 Z" />
<path fill="#ef0101" opacity="1.00" d=" M 65.33 6.42 C 68.01 6.43 70.68 6.44 73.36 6.47 C 73.34 7.43 73.32 9.35 73.30 10.31 C 72.14 10.40 70.98 10.49 69.82 10.58 C 69.79 11.27 69.72 12.63 69.69 13.32 C 70.96 13.78 72.22 14.26 73.49 14.73 C 73.63 17.00 72.34 17.94 70.13 17.76 C 70.20 18.95 70.25 20.14 70.26 21.33 C 71.09 21.33 72.77 21.33 73.61 21.34 C 73.58 22.33 73.52 24.32 73.49 25.31 C 70.80 25.31 68.12 25.32 65.43 25.33 C 65.25 19.03 65.33 12.72 65.33 6.42 Z" />
<path fill="#ef0101" opacity="1.00" d=" M 74.69 6.50 C 77.37 6.44 80.07 6.43 82.76 6.41 C 82.74 7.75 82.73 9.09 82.71 10.43 C 81.88 10.44 80.22 10.44 79.40 10.45 C 78.79 13.06 80.37 14.21 82.70 14.65 C 82.66 15.61 82.62 16.56 82.59 17.51 C 81.82 17.54 80.29 17.59 79.52 17.61 C 79.54 18.51 79.58 20.32 79.60 21.23 C 80.91 21.29 82.22 21.36 83.52 21.44 C 83.26 22.77 82.98 24.10 82.69 25.42 C 79.96 25.37 77.20 25.34 74.50 24.82 C 74.77 18.71 74.64 12.61 74.69 6.50 Z" />
<path fill="#ef0101" opacity="1.00" d=" M 84.69 6.48 C 87.37 6.44 90.05 6.43 92.73 6.41 C 92.71 7.75 92.70 9.09 92.68 10.43 C 91.85 10.44 90.19 10.45 89.36 10.45 C 88.72 13.09 90.37 14.19 92.69 14.65 C 92.64 15.61 92.60 16.56 92.57 17.52 C 91.80 17.54 90.26 17.59 89.50 17.61 C 89.51 18.51 89.54 20.32 89.56 21.22 C 90.89 21.30 92.22 21.38 93.55 21.47 C 93.51 22.87 93.12 24.14 92.38 25.27 C 89.83 25.44 87.27 25.30 84.71 25.28 C 84.60 19.01 84.64 12.75 84.69 6.48 Z" />
<path fill="#ef0101" opacity="1.00" d=" M 94.68 6.48 C 97.37 6.44 100.05 6.43 102.73 6.41 C 102.73 7.76 102.72 9.11 102.71 10.46 C 101.90 10.45 100.30 10.43 99.49 10.41 C 99.48 11.26 99.46 12.95 99.46 13.79 C 100.21 13.80 101.72 13.81 102.47 13.82 C 102.52 15.05 102.57 16.28 102.62 17.50 C 101.83 17.53 100.26 17.59 99.47 17.61 C 99.48 18.50 99.52 20.28 99.53 21.17 C 101.11 21.32 102.69 21.49 104.27 21.67 C 104.63 18.23 104.41 14.79 104.33 11.35 C 104.77 11.80 105.22 12.24 105.66 12.68 C 105.65 10.63 105.65 8.59 105.72 6.54 C 108.11 6.45 110.51 6.42 112.91 6.41 C 114.00 12.71 114.74 19.06 116.00 25.32 C 114.82 25.32 112.46 25.33 111.28 25.33 C 111.25 24.61 111.19 23.17 111.16 22.45 C 110.28 22.33 109.40 22.21 108.53 22.10 C 108.50 22.90 108.43 24.52 108.40 25.33 C 103.81 25.17 99.18 25.64 94.62 24.93 C 94.65 18.78 94.60 12.63 94.68 6.48 M 109.35 14.77 L 108.70 14.71 C 108.63 16.03 108.55 17.35 108.47 18.67 C 109.03 18.68 110.15 18.68 110.71 18.68 C 110.51 16.09 110.31 13.49 110.01 10.90 C 109.76 12.19 109.55 13.48 109.35 14.77 Z" />
<path fill="#ef0101" opacity="1.00" d=" M 118.48 6.42 C 120.76 6.43 123.05 6.45 125.33 6.47 C 126.23 12.04 126.83 17.66 128.00 23.19 C 129.12 17.64 129.38 11.96 130.46 6.40 C 132.74 6.43 135.02 6.45 137.30 6.48 C 138.20 12.77 139.25 19.03 139.97 25.34 C 138.83 25.33 136.57 25.32 135.44 25.31 C 135.41 24.55 135.36 23.01 135.34 22.24 C 134.46 22.25 133.58 22.26 132.70 22.27 C 132.67 23.04 132.61 24.57 132.58 25.33 C 129.55 25.31 126.52 25.31 123.48 25.33 C 123.45 24.54 123.39 22.96 123.35 22.18 C 122.47 22.23 121.59 22.28 120.71 22.34 C 120.69 23.09 120.64 24.58 120.62 25.33 C 119.47 25.33 117.17 25.32 116.01 25.32 C 116.76 19.01 117.48 12.69 118.48 6.42 M 121.78 12.18 C 121.47 14.28 121.12 16.38 120.66 18.45 C 121.22 18.53 122.33 18.67 122.89 18.74 C 122.73 16.56 122.53 14.38 122.35 12.19 C 122.20 12.19 121.92 12.19 121.78 12.18 M 132.56 18.55 C 133.15 18.58 134.34 18.63 134.93 18.66 C 134.71 16.30 134.46 13.95 134.09 11.61 C 133.54 13.92 133.09 16.24 132.56 18.55 Z" />
<path fill="#ef0101" opacity="1.00" d=" M 142.67 6.46 C 144.96 6.44 147.26 6.44 149.56 6.43 C 150.65 11.96 151.14 17.58 152.02 23.14 C 153.40 17.67 153.91 12.03 154.64 6.45 C 156.94 6.44 159.24 6.44 161.54 6.44 C 162.48 11.05 162.73 15.76 163.69 20.36 C 164.05 20.68 164.76 21.33 165.12 21.65 C 165.48 16.58 166.52 11.59 166.80 6.51 C 169.24 6.44 171.69 6.44 174.14 6.50 C 174.41 10.73 175.25 14.88 175.70 19.09 C 176.20 20.39 176.65 21.71 177.07 23.05 C 177.36 17.50 178.43 12.03 178.77 6.49 C 181.23 6.44 183.68 6.44 186.14 6.52 C 186.50 11.15 187.18 15.74 187.94 20.32 L 189.25 21.71 C 190.11 16.63 190.42 11.46 191.42 6.40 C 193.71 6.42 195.99 6.44 198.28 6.46 C 199.14 12.75 200.13 19.02 201.24 25.27 C 199.63 25.30 198.01 25.33 196.40 25.36 C 196.36 24.57 196.27 22.98 196.23 22.19 C 195.61 22.19 194.38 22.20 193.76 22.20 C 193.72 22.98 193.63 24.55 193.59 25.33 C 190.52 25.30 187.46 25.30 184.39 25.37 C 184.11 24.28 183.83 23.20 183.55 22.12 C 183.04 22.14 182.01 22.17 181.50 22.19 C 181.47 22.96 181.41 24.52 181.38 25.30 C 178.40 25.31 175.42 25.31 172.44 25.36 C 172.08 24.10 171.73 22.85 171.38 21.59 C 170.91 21.78 169.97 22.17 169.50 22.37 C 169.48 23.11 169.45 24.58 169.43 25.31 C 166.17 25.31 162.91 25.31 159.66 25.32 C 159.61 24.50 159.53 22.85 159.48 22.03 C 158.61 22.19 157.74 22.35 156.87 22.51 C 156.83 23.21 156.76 24.63 156.72 25.33 C 153.71 25.32 150.69 25.31 147.68 25.32 C 147.64 24.52 147.57 22.91 147.53 22.11 C 147.06 22.13 146.11 22.17 145.64 22.18 C 145.67 25.59 142.64 25.63 140.04 25.43 C 140.99 19.12 141.94 12.81 142.67 6.46 M 145.22 18.65 C 145.81 18.63 147.01 18.61 147.60 18.60 C 147.04 16.03 146.48 13.47 145.99 10.88 C 145.67 13.46 145.44 16.06 145.22 18.65 M 157.16 18.63 C 157.75 18.62 158.93 18.61 159.52 18.60 C 159.40 17.97 159.15 16.70 159.03 16.07 C 158.65 14.37 158.34 12.65 158.00 10.94 C 157.67 13.50 157.42 16.06 157.16 18.63 M 170.40 13.21 C 169.84 14.97 169.53 16.80 169.35 18.64 C 169.93 18.65 171.11 18.67 171.70 18.68 C 171.47 16.05 171.25 13.43 171.03 10.81 C 170.83 11.61 170.62 12.41 170.40 13.21 M 194.26 15.25 C 194.02 16.37 193.77 17.48 193.52 18.59 C 194.12 18.62 195.33 18.67 195.93 18.69 C 195.67 16.07 195.37 13.45 195.02 10.84 C 194.74 12.31 194.49 13.78 194.26 15.25 M 181.83 12.65 C 181.71 14.65 181.57 16.65 181.44 18.65 C 181.98 18.65 183.08 18.65 183.62 18.65 C 183.47 16.62 183.32 14.59 183.20 12.55 C 182.86 12.58 182.17 12.63 181.83 12.65 Z" />
<path fill="#ef0101" opacity="1.00" d=" M 32.17 7.16 C 33.00 6.88 34.64 6.31 35.46 6.03 C 36.00 8.49 36.47 10.96 37.06 13.40 C 37.68 11.10 38.22 8.78 38.62 6.44 C 41.43 6.42 44.24 6.42 47.04 6.51 C 47.30 8.82 47.56 11.14 48.05 13.42 C 48.85 11.16 49.41 8.83 49.73 6.45 C 50.77 6.45 52.85 6.46 53.89 6.46 C 52.32 12.71 49.67 18.82 50.48 25.41 C 48.68 25.31 45.40 25.98 45.82 23.06 C 46.20 18.12 44.63 13.43 43.32 8.74 C 41.08 9.51 41.32 12.21 40.56 14.06 C 39.19 17.67 39.34 21.54 39.39 25.33 C 37.83 25.32 36.27 25.31 34.72 25.29 C 35.32 19.50 33.86 13.92 31.88 8.54 C 31.95 8.19 32.10 7.51 32.17 7.16 Z" />
<path fill="#ef0101" opacity="1.00" d=" M 14.72 194.79 C 16.63 192.69 19.86 193.18 22.34 193.69 C 24.69 194.64 24.46 197.26 24.51 199.33 C 23.59 199.30 21.75 199.24 20.83 199.21 C 20.35 198.22 19.84 197.26 19.30 196.32 C 18.04 196.35 18.51 198.14 18.04 198.93 C 20.24 200.51 22.58 201.95 24.43 203.96 C 24.91 206.34 24.64 208.79 24.56 211.20 C 21.50 213.14 17.69 213.16 14.59 211.28 C 14.20 209.40 13.82 207.52 13.49 205.64 C 15.12 205.62 16.75 205.59 18.39 205.57 C 18.39 206.90 18.39 208.23 18.40 209.57 C 18.95 209.51 20.06 209.40 20.62 209.35 C 21.16 205.80 17.66 204.43 15.44 202.53 C 13.03 200.81 12.97 196.99 14.72 194.79 Z" />
<path fill="#ef0101" opacity="1.00" d=" M 28.46 193.67 C 31.14 193.06 34.70 192.76 36.49 195.34 C 36.71 196.66 36.71 198.01 36.77 199.34 C 35.75 199.31 33.70 199.24 32.67 199.21 C 32.59 198.52 32.44 197.14 32.36 196.45 C 31.91 196.50 31.00 196.60 30.54 196.65 C 30.52 197.19 30.47 198.25 30.44 198.78 C 32.38 200.41 34.62 201.70 36.36 203.54 C 37.98 205.95 37.19 208.88 36.59 211.48 C 33.98 212.60 30.70 213.47 28.13 211.86 C 25.94 210.56 26.58 207.72 26.25 205.60 C 27.32 205.60 29.48 205.60 30.55 205.60 C 30.59 206.87 30.62 208.15 30.66 209.43 C 31.19 209.44 32.26 209.47 32.79 209.49 C 33.59 205.23 28.85 204.09 26.63 201.48 C 26.05 198.87 25.54 195.08 28.46 193.67 Z" />
<path fill="#ef0101" opacity="1.00" d=" M 38.94 197.01 C 40.01 192.23 46.14 192.70 49.49 194.69 C 49.95 196.93 50.30 199.19 50.51 201.47 C 48.85 201.52 47.20 201.55 45.54 201.57 C 45.54 199.88 45.54 198.19 45.54 196.51 L 43.49 196.54 C 43.54 200.85 43.54 205.17 43.50 209.48 L 45.50 209.46 C 45.52 207.77 45.54 206.10 45.55 204.42 C 47.20 204.44 48.84 204.47 50.49 204.53 C 50.13 207.09 50.52 210.51 47.88 212.01 C 45.26 213.41 41.99 212.66 39.51 211.25 C 38.49 206.59 38.35 201.73 38.94 197.01 Z" />
<path fill="#ef0101" opacity="1.00" d=" M 54.68 193.67 C 57.14 193.14 60.33 192.77 62.20 194.85 C 63.91 196.64 63.24 199.32 63.54 201.54 C 61.91 201.54 60.29 201.54 58.66 201.53 C 58.65 199.83 58.64 198.14 58.63 196.45 C 58.12 196.48 57.10 196.56 56.60 196.60 C 56.64 200.87 56.64 205.15 56.60 209.42 C 57.10 209.45 58.09 209.50 58.59 209.53 C 58.62 207.84 58.65 206.14 58.67 204.46 C 60.30 204.45 61.93 204.45 63.56 204.46 C 63.28 206.83 63.81 209.82 61.66 211.48 C 59.80 213.35 56.91 212.40 54.58 212.64 C 51.31 210.15 51.87 205.67 51.72 202.03 C 51.99 199.12 51.46 195.13 54.68 193.67 Z" />
<path fill="#ef0101" opacity="1.00" d=" M 86.20 193.56 C 87.69 193.59 89.17 193.62 90.66 193.65 C 90.66 199.91 90.65 206.16 90.67 212.42 C 89.18 212.45 87.70 212.47 86.21 212.50 C 85.35 206.22 86.51 199.88 86.20 193.56 Z" />
<path fill="#ef0101" opacity="1.00" d=" M 93.22 193.61 C 95.81 193.57 98.39 193.54 100.98 193.55 C 101.14 194.85 101.29 196.15 101.43 197.46 C 100.63 197.48 99.05 197.52 98.26 197.54 C 98.09 198.22 97.77 199.60 97.60 200.28 C 98.66 200.80 99.73 201.29 100.83 201.73 C 100.83 202.57 100.83 203.41 100.83 204.25 C 99.71 204.67 98.64 205.17 97.60 205.76 C 96.86 208.35 99.80 208.52 101.50 208.66 C 101.49 209.61 101.47 211.50 101.46 212.45 C 98.70 212.44 95.94 212.44 93.18 212.41 C 93.26 206.14 93.20 199.88 93.22 193.61 Z" />
<path fill="#ef0101" opacity="1.00" d=" M 103.24 193.55 C 105.81 193.56 108.37 193.55 110.94 193.55 C 111.11 194.85 111.28 196.15 111.43 197.45 C 110.62 197.48 109.01 197.52 108.21 197.54 C 108.05 198.23 107.74 199.62 107.59 200.31 C 108.64 200.82 109.71 201.30 110.81 201.74 C 110.80 202.57 110.80 203.41 110.80 204.24 C 109.69 204.67 108.62 205.17 107.58 205.73 C 106.82 208.37 109.74 208.52 111.47 208.65 C 111.46 209.60 111.44 211.49 111.44 212.43 C 108.72 212.44 106.01 212.44 103.30 212.46 C 103.16 206.16 103.20 199.86 103.24 193.55 Z" />
<path fill="#ef0101" opacity="1.00" d=" M 122.63 193.62 C 123.90 193.57 125.16 193.53 126.43 193.49 C 127.31 196.09 128.21 198.68 129.27 201.22 C 129.45 198.66 129.44 196.10 129.42 193.55 C 130.43 193.55 132.46 193.55 133.47 193.56 C 133.46 199.84 133.44 206.12 133.48 212.40 C 132.47 212.43 130.45 212.50 129.44 212.53 C 128.49 209.77 127.60 206.98 126.67 204.23 C 126.53 206.95 126.53 209.72 126.54 212.46 C 122.14 212.22 117.74 212.45 113.34 212.48 C 112.86 206.18 112.37 199.79 113.29 193.51 C 115.79 193.54 118.29 193.56 120.79 193.61 C 120.81 194.52 120.85 196.35 120.87 197.26 C 118.80 197.15 117.65 198.40 117.16 200.31 C 118.37 200.72 119.57 201.17 120.76 201.65 C 120.75 202.51 120.75 203.37 120.74 204.24 C 118.68 204.67 117.16 205.90 117.50 208.19 C 119.19 208.39 120.88 208.62 122.58 208.86 C 122.58 203.78 122.52 198.70 122.63 193.62 Z" />
<path fill="#ef0101" opacity="1.00" d=" M 161.65 196.90 C 162.83 192.40 169.87 192.01 172.41 195.48 C 172.88 197.46 172.77 199.53 172.86 201.55 C 171.34 201.55 169.83 201.55 168.32 201.54 C 168.33 199.90 168.34 198.27 168.35 196.63 C 167.85 196.58 166.85 196.49 166.34 196.44 C 166.38 200.97 166.20 205.51 166.51 210.03 C 169.24 209.38 168.03 206.38 168.42 204.44 C 169.90 204.44 171.38 204.44 172.87 204.45 C 172.76 206.42 172.85 208.43 172.35 210.36 C 169.97 213.84 162.88 213.77 161.69 209.25 C 161.34 205.15 161.35 201.00 161.65 196.90 Z" />
<path fill="#ef0101" opacity="1.00" d=" M 174.80 196.79 C 175.89 192.92 180.84 192.55 183.94 193.98 C 186.47 195.53 186.05 198.92 186.40 201.46 C 184.74 201.51 183.09 201.55 181.43 201.57 C 181.42 199.90 181.43 198.23 181.43 196.56 C 180.93 196.55 179.94 196.51 179.44 196.49 C 179.48 200.98 179.33 205.48 179.56 209.96 C 182.42 209.49 181.09 206.33 181.51 204.41 C 183.16 204.44 184.81 204.49 186.46 204.56 C 185.89 207.30 186.29 211.13 183.12 212.39 C 180.10 213.20 175.58 212.89 174.83 209.15 C 174.43 205.05 174.45 200.90 174.80 196.79 Z" />
<path fill="#ef0101" opacity="1.00" d=" M 187.80 194.48 C 189.57 192.39 193.29 194.05 195.81 193.53 C 196.01 194.84 196.21 196.14 196.40 197.45 C 195.14 197.51 193.88 197.57 192.62 197.63 C 192.63 198.54 192.65 200.34 192.67 201.25 C 193.45 201.28 195.01 201.35 195.80 201.39 C 195.80 202.13 195.81 203.60 195.81 204.34 C 193.13 204.10 192.15 205.98 192.44 208.38 C 193.77 208.40 195.11 208.42 196.44 208.44 C 196.44 209.77 196.44 211.10 196.43 212.44 C 193.52 212.44 190.61 212.44 187.70 212.39 C 187.89 206.42 187.72 200.45 187.80 194.48 Z" />
<path fill="#ef0101" opacity="1.00" d=" M 65.53 193.56 C 67.15 193.55 68.78 193.56 70.40 193.57 C 70.39 199.86 70.38 206.14 70.40 212.43 C 68.78 212.43 67.15 212.44 65.52 212.44 C 65.60 206.15 65.60 199.85 65.53 193.56 Z" />
<path fill="#ef0101" opacity="1.00" d=" M 72.43 193.54 C 74.05 193.55 75.67 193.57 77.29 193.60 C 77.28 199.86 77.27 206.12 77.29 212.39 C 75.67 212.42 74.05 212.44 72.43 212.47 C 72.43 206.16 72.44 199.85 72.43 193.54 Z" />
<path fill="#ef0101" opacity="1.00" d=" M 79.31 193.65 C 80.42 193.64 82.64 193.61 83.75 193.60 C 83.81 199.88 83.76 206.17 83.78 212.46 C 82.28 212.45 80.79 212.44 79.29 212.43 C 79.32 206.17 79.30 199.91 79.31 193.65 Z" />
<path fill="#ef0101" opacity="1.00" d=" M 135.67 193.61 C 136.63 193.58 138.57 193.51 139.53 193.48 C 140.44 196.06 141.32 198.66 142.30 201.22 C 142.53 198.67 142.55 196.11 142.54 193.56 C 143.54 193.55 145.55 193.54 146.55 193.54 C 146.54 199.83 146.53 206.13 146.56 212.42 C 145.56 212.44 143.57 212.49 142.57 212.51 C 141.68 209.88 140.81 207.24 139.76 204.68 C 139.58 207.27 139.60 209.87 139.64 212.46 C 138.65 212.45 136.66 212.43 135.67 212.42 C 135.69 206.15 135.69 199.88 135.67 193.61 Z" />
<path fill="#ef0101" opacity="1.00" d=" M 148.53 193.58 C 149.48 193.57 151.37 193.54 152.32 193.52 C 153.20 196.12 154.13 198.71 155.26 201.22 C 155.41 198.65 155.40 196.08 155.38 193.51 C 156.40 193.53 158.44 193.58 159.47 193.60 C 159.34 199.85 159.35 206.11 159.47 212.37 C 158.43 212.40 156.35 212.48 155.31 212.52 C 154.41 209.91 153.62 207.28 152.71 204.68 C 152.45 207.26 152.41 209.86 152.41 212.46 C 151.44 212.45 149.50 212.44 148.53 212.43 C 148.55 206.15 148.55 199.86 148.53 193.58 Z" />
</g>
<g id="#010101ff">
<path fill="#010101" opacity="1.00" d=" M 110.41 33.55 C 116.74 31.08 123.85 33.50 130.33 31.67 C 131.17 32.20 132.01 32.74 132.84 33.29 C 136.53 32.89 139.77 34.54 142.90 36.26 C 144.69 37.03 146.47 37.83 148.24 38.65 C 148.54 39.01 149.13 39.75 149.43 40.12 C 152.98 41.16 154.99 44.34 156.95 47.22 C 158.04 49.21 159.35 51.14 159.68 53.44 C 159.99 53.83 160.62 54.62 160.93 55.01 C 161.44 56.02 161.97 57.01 162.51 58.00 C 162.60 60.48 162.16 63.00 162.53 65.46 C 163.74 67.59 165.11 69.63 166.31 71.78 C 166.43 73.84 166.59 75.90 166.85 77.95 C 167.24 79.31 167.35 80.74 167.47 82.15 C 164.37 88.89 160.23 95.11 155.84 101.01 C 155.54 102.29 155.28 103.58 154.99 104.86 C 154.16 107.65 153.28 110.42 152.23 113.13 C 149.67 119.49 146.43 125.57 144.34 132.10 C 143.87 133.04 143.39 133.99 142.93 134.94 C 140.90 139.31 137.67 143.04 133.64 145.69 C 132.24 146.86 129.85 147.56 130.22 149.81 C 133.07 150.63 134.96 153.01 137.34 154.60 C 141.03 157.39 145.80 158.66 148.77 162.39 C 150.77 162.48 152.78 162.60 154.73 163.09 C 155.78 163.47 156.82 163.84 157.88 164.22 C 159.99 164.97 162.04 165.87 164.10 166.76 C 165.03 167.22 165.97 167.69 166.91 168.15 C 167.40 168.39 168.39 168.87 168.88 169.11 C 170.83 169.84 172.79 170.53 174.76 171.21 C 179.06 171.93 182.99 173.81 186.86 175.73 C 186.71 176.17 186.41 177.05 186.27 177.49 C 184.19 176.29 182.05 175.20 179.87 174.21 C 178.28 173.78 176.68 173.39 175.09 172.98 C 173.07 172.37 171.09 171.69 169.10 171.00 C 166.11 169.56 163.12 168.11 160.11 166.72 C 158.43 166.13 156.77 165.51 155.11 164.89 C 153.34 164.48 151.57 164.05 149.82 163.57 C 149.31 163.88 148.27 164.50 147.76 164.82 C 147.64 165.99 147.52 167.17 147.40 168.35 C 145.64 169.22 143.84 169.97 142.02 170.69 C 142.21 170.98 142.59 171.56 142.78 171.85 C 144.34 173.05 147.59 174.12 146.62 176.64 C 145.51 179.08 143.29 180.81 140.83 181.75 C 134.61 184.30 128.96 187.99 123.02 191.10 C 121.96 191.87 120.68 191.42 119.52 191.23 C 125.91 187.69 132.17 183.88 138.79 180.78 C 141.22 179.80 145.05 178.49 144.73 175.29 C 142.48 173.07 139.81 171.32 137.00 169.90 C 134.17 167.36 130.71 165.70 127.67 163.43 C 132.46 163.19 135.52 167.89 140.01 168.79 C 141.66 168.89 143.29 168.47 144.92 168.22 C 145.33 167.65 146.14 166.50 146.55 165.92 C 146.29 164.26 145.93 162.61 145.56 160.96 C 144.73 160.62 143.90 160.27 143.08 159.92 C 137.86 157.41 133.61 153.46 128.89 150.21 C 128.43 150.79 127.51 151.96 127.04 152.54 C 126.47 152.51 125.31 152.45 124.73 152.42 C 122.44 154.56 120.03 156.57 117.32 158.16 C 110.66 161.70 106.42 168.37 102.81 174.75 C 101.21 180.76 98.01 186.30 94.50 191.36 C 89.18 191.71 83.84 191.40 78.52 191.58 C 77.72 188.73 77.41 185.79 77.22 182.85 C 76.67 180.25 76.50 177.60 76.18 174.97 C 75.65 173.30 75.40 171.57 75.12 169.85 C 73.97 165.16 72.16 160.65 71.28 155.89 C 70.22 149.85 65.85 145.17 63.92 139.44 C 60.33 141.37 56.45 142.81 53.12 145.20 C 47.17 149.56 40.02 151.92 34.26 156.59 C 36.82 156.59 39.28 155.81 41.78 155.39 C 42.13 157.77 39.60 158.01 38.18 158.94 C 35.15 160.15 33.38 163.04 31.17 165.27 C 34.29 170.24 39.14 173.72 42.53 178.48 C 46.21 183.17 50.86 187.06 54.25 191.97 C 50.98 191.27 49.29 188.11 47.03 185.98 C 43.47 182.49 40.63 178.37 37.20 174.77 C 34.37 172.19 32.12 169.08 29.53 166.28 C 29.51 165.92 29.47 165.20 29.45 164.84 C 31.43 162.71 33.51 160.63 35.06 158.16 C 31.84 158.22 32.55 156.42 33.62 154.62 C 35.19 153.96 36.77 153.34 38.40 152.84 C 37.56 152.61 35.88 152.15 35.04 151.92 C 32.33 151.62 29.61 151.35 26.95 150.73 C 25.25 151.17 23.53 151.52 21.81 151.84 C 20.48 152.21 19.15 152.52 17.81 152.86 C 13.34 154.21 8.79 155.47 4.09 155.65 C 4.06 155.38 4.01 154.83 3.99 154.56 C 4.70 154.36 6.12 153.96 6.84 153.76 C 8.24 153.58 9.65 153.39 11.05 153.17 C 12.37 152.76 13.70 152.41 15.03 152.04 C 16.08 151.72 17.14 151.41 18.19 151.11 C 19.52 150.76 20.85 150.45 22.18 150.13 C 25.67 149.17 29.46 149.02 32.88 150.32 C 35.61 150.64 38.37 150.49 41.11 150.28 C 42.00 149.77 42.90 149.27 43.80 148.78 C 49.57 146.44 54.02 141.74 59.98 139.79 C 64.03 138.61 64.30 133.89 67.35 131.62 C 67.33 128.64 67.34 125.57 68.78 122.86 C 69.28 121.23 69.62 119.55 70.00 117.89 C 71.32 114.03 69.56 110.42 68.22 106.89 C 67.84 104.71 67.70 102.33 65.74 100.92 C 65.46 100.49 64.88 99.62 64.60 99.19 C 64.77 93.41 65.74 86.85 70.25 82.76 C 70.26 80.16 70.20 77.49 71.21 75.04 C 71.27 70.84 72.94 66.96 73.66 62.87 C 75.36 60.40 77.09 57.96 78.23 55.16 C 80.63 51.62 84.37 49.28 87.15 46.07 C 90.64 43.73 94.31 41.63 97.43 38.79 C 101.94 38.88 105.16 35.22 109.25 33.94 C 109.32 34.52 109.44 35.69 109.50 36.28 C 110.03 36.45 111.07 36.80 111.59 36.97 C 111.14 35.85 110.78 34.70 110.41 33.55 M 114.40 40.60 C 111.92 42.43 109.18 43.89 106.78 45.83 C 104.34 46.82 102.00 48.04 99.95 49.71 C 99.16 49.78 97.58 49.91 96.79 49.98 C 97.83 50.15 98.86 50.32 99.90 50.49 C 99.47 51.90 98.52 53.00 97.48 53.99 C 102.12 55.42 97.42 59.35 95.97 61.53 C 94.15 61.60 92.34 61.64 90.53 61.66 C 90.44 68.23 84.31 72.66 83.47 79.00 C 85.34 81.47 83.97 84.31 83.18 86.89 C 82.29 88.89 82.28 91.09 82.35 93.23 C 82.78 93.96 83.22 94.68 83.66 95.40 C 83.16 95.37 82.17 95.30 81.67 95.27 C 81.59 94.56 81.44 93.12 81.36 92.40 L 80.36 92.50 C 80.77 90.67 81.23 88.85 81.70 87.03 C 83.50 85.06 83.53 82.34 83.42 79.83 C 81.91 80.54 80.43 81.32 78.96 82.11 C 77.22 82.46 75.47 82.71 73.71 82.86 C 70.79 83.69 69.15 86.27 67.82 88.79 C 67.03 92.68 65.96 96.57 66.69 100.58 C 69.28 100.54 71.88 100.34 74.48 100.31 C 74.37 101.88 74.27 103.46 74.13 105.04 C 72.96 108.22 72.41 111.56 71.83 114.88 C 72.10 120.44 68.45 125.35 69.38 130.91 C 75.10 133.30 80.44 136.51 86.13 138.98 C 87.18 139.61 87.96 140.51 87.70 141.79 C 83.77 139.95 80.10 137.61 76.10 135.91 C 73.33 134.53 70.66 132.99 67.86 131.70 C 67.08 134.60 64.01 137.83 66.09 140.81 C 68.63 144.77 70.83 148.94 72.89 153.16 C 74.72 151.33 76.50 149.39 78.77 148.09 C 82.77 145.87 86.17 142.55 90.67 141.30 L 90.48 143.61 C 95.98 143.24 101.76 142.49 106.91 145.02 C 108.31 145.64 109.72 146.27 111.11 146.94 C 113.36 147.61 115.72 147.68 118.05 147.92 C 120.33 148.44 122.68 148.53 125.01 148.74 C 126.46 149.26 127.96 149.60 129.50 149.78 C 129.49 149.06 129.47 147.62 129.46 146.90 C 132.93 143.92 137.26 141.71 139.60 137.58 C 141.20 134.65 143.35 131.84 143.77 128.43 C 142.40 129.73 141.08 131.09 139.85 132.51 C 139.38 132.50 138.45 132.48 137.98 132.47 C 140.97 128.61 145.48 125.97 147.23 121.20 C 149.50 114.49 152.81 108.16 154.26 101.16 C 154.42 97.94 154.98 94.77 155.68 91.62 C 157.23 88.48 159.50 85.68 160.27 82.19 C 160.50 79.43 160.57 76.65 160.15 73.90 C 159.73 71.91 159.82 69.85 159.40 67.87 C 157.33 64.83 154.48 62.24 153.35 58.63 C 149.70 56.96 147.29 53.75 144.15 51.41 C 143.19 51.80 141.27 52.57 140.31 52.96 C 140.32 52.27 140.36 50.90 140.37 50.22 C 138.03 47.58 134.39 47.79 131.79 45.83 C 132.50 45.54 133.21 45.26 133.93 44.99 C 133.57 44.33 132.86 43.00 132.51 42.33 C 132.15 43.53 131.78 44.73 131.30 45.88 C 130.23 44.34 128.68 43.87 126.64 44.47 C 126.55 43.19 126.45 41.91 126.33 40.63 C 122.36 40.46 118.34 39.87 114.40 40.60 M 97.86 144.57 C 99.96 147.21 102.80 149.08 105.35 151.25 C 105.38 151.94 105.44 153.31 105.47 153.99 C 107.10 156.26 108.66 158.59 110.14 160.96 C 114.97 157.47 120.27 154.65 124.67 150.58 C 120.72 150.08 116.79 149.41 112.80 149.34 C 111.17 148.63 109.54 147.94 107.90 147.27 C 106.24 146.61 104.57 145.96 102.92 145.27 C 101.28 144.72 99.59 144.49 97.86 144.57 M 73.03 155.00 C 73.24 159.35 75.41 163.25 75.89 167.56 L 77.28 167.44 C 77.77 166.25 78.29 165.08 78.81 163.91 C 80.19 161.18 81.17 158.27 82.25 155.41 C 83.01 154.17 82.30 152.85 81.44 151.90 C 81.41 150.75 81.37 149.61 81.35 148.48 C 78.07 149.94 75.64 152.63 73.03 155.00 M 96.15 155.69 C 97.57 155.01 99.00 154.35 100.43 153.70 C 99.62 152.68 98.78 151.70 97.92 150.73 C 96.96 152.24 96.25 153.88 96.15 155.69 M 96.35 157.08 C 95.97 160.76 96.30 164.47 96.70 168.14 C 97.82 172.66 97.07 177.35 97.44 181.94 C 99.38 180.79 99.74 178.52 100.47 176.61 C 102.01 171.17 105.66 166.68 109.39 162.58 C 107.42 159.72 105.31 156.93 103.78 153.79 C 101.30 154.88 98.87 156.07 96.35 157.08 Z" />
<path fill="#010101" opacity="1.00" d=" M 106.08 56.91 C 110.85 56.37 116.35 55.40 120.51 58.44 C 122.86 59.88 126.05 61.50 125.71 64.77 C 123.18 63.12 120.64 61.48 118.20 59.69 C 114.24 58.27 109.84 58.97 106.08 56.91 Z" />
<path fill="#010101" opacity="1.00" d=" M 116.47 63.99 C 116.77 64.30 117.37 64.93 117.67 65.24 C 118.61 65.79 119.55 66.35 120.49 66.90 C 119.85 68.44 119.25 69.99 118.59 71.52 C 114.09 73.15 108.90 73.22 104.70 70.71 C 105.96 70.60 107.22 70.51 108.48 70.43 L 108.37 71.41 C 110.15 71.48 111.93 71.57 113.71 71.66 C 113.69 71.14 113.64 70.12 113.62 69.61 C 112.23 69.54 110.84 69.47 109.45 69.39 L 109.62 68.65 C 106.57 68.38 103.17 69.13 100.41 67.48 C 105.17 67.01 109.95 67.62 114.58 68.71 L 114.37 69.59 C 116.06 70.09 117.36 69.07 118.64 68.28 C 117.50 67.06 116.45 65.74 116.47 63.99 Z" />
<path fill="#010101" opacity="1.00" d=" M 140.06 70.57 C 143.60 70.32 146.81 71.92 150.04 73.10 C 150.21 73.53 150.54 74.40 150.71 74.84 C 152.65 76.52 154.01 78.71 155.42 80.83 C 155.60 82.19 155.77 83.55 155.95 84.91 C 155.61 84.88 154.93 84.82 154.59 84.80 C 154.05 80.90 151.70 77.38 147.88 76.07 C 146.12 75.50 144.37 74.91 142.60 74.39 C 141.23 73.48 140.19 72.29 140.06 70.57 Z" />
<path fill="#010101" opacity="1.00" d=" M 125.83 73.65 C 127.33 73.59 128.82 73.56 130.32 73.54 C 130.37 73.97 130.47 74.82 130.52 75.24 C 128.81 75.23 127.10 75.29 125.40 75.40 C 125.51 74.96 125.72 74.09 125.83 73.65 Z" />
<path fill="#010101" opacity="1.00" d=" M 117.70 76.70 C 118.57 76.26 119.44 75.82 120.31 75.40 C 120.40 75.84 120.56 76.73 120.65 77.17 C 119.26 77.68 117.88 78.19 116.50 78.70 C 116.97 79.45 117.43 80.20 117.89 80.96 L 118.93 80.49 C 120.48 81.27 122.04 82.03 123.61 82.80 C 123.17 83.88 122.71 84.95 122.35 86.06 C 122.90 86.50 124.01 87.38 124.56 87.82 L 124.40 88.39 C 125.33 88.41 127.19 88.44 128.12 88.45 C 129.52 87.73 130.97 87.09 132.46 86.54 C 134.10 88.70 136.62 89.71 139.30 89.64 L 140.09 87.95 C 140.27 89.04 140.44 90.13 140.62 91.23 C 141.38 92.52 141.97 93.90 142.71 95.21 C 142.03 95.38 141.35 95.55 140.68 95.72 C 140.59 94.89 140.41 93.24 140.32 92.42 L 139.21 92.26 L 139.91 90.54 C 138.68 90.60 137.45 90.69 136.23 90.80 C 135.78 91.24 134.89 92.10 134.44 92.54 C 136.95 94.18 137.36 97.22 138.20 99.84 C 138.26 100.41 138.39 101.54 138.45 102.11 C 139.48 103.61 140.43 105.16 141.38 106.71 C 141.34 107.08 141.26 107.81 141.22 108.17 C 140.92 108.75 140.33 109.90 140.03 110.48 C 139.40 110.49 138.78 110.50 138.16 110.51 C 137.55 108.96 136.91 107.44 136.26 105.91 C 135.51 106.51 134.75 107.10 134.00 107.70 C 133.35 107.30 132.70 106.90 132.05 106.49 C 129.63 106.20 126.81 106.88 124.85 105.05 C 123.28 104.18 121.66 103.40 120.05 102.61 C 119.84 102.54 119.40 102.42 119.18 102.35 C 117.98 101.86 116.76 101.39 115.54 100.95 C 115.52 100.37 115.48 99.22 115.46 98.65 C 111.00 99.07 106.76 97.59 103.53 94.51 C 102.26 92.93 99.96 93.61 98.52 92.36 C 97.31 89.82 99.61 87.99 101.40 86.62 C 103.89 86.19 106.44 86.09 108.95 85.73 C 110.34 85.98 111.73 86.19 113.14 86.38 C 115.32 85.58 117.53 84.84 119.76 84.17 C 118.09 83.32 116.29 82.22 116.05 80.17 L 114.48 80.85 C 115.31 79.29 116.22 77.74 117.70 76.70 M 106.42 90.94 C 109.30 93.18 112.60 91.49 115.81 91.69 C 119.93 92.51 123.69 94.54 127.25 96.69 C 127.85 97.47 128.45 98.24 129.07 99.00 C 130.23 100.67 131.65 102.12 133.38 103.20 C 133.67 103.81 133.95 104.43 134.23 105.05 C 134.21 104.59 134.16 103.66 134.14 103.20 C 132.72 101.30 131.32 99.39 130.05 97.40 C 129.63 97.44 128.80 97.53 128.38 97.58 C 128.45 96.47 128.51 95.36 128.58 94.25 C 128.89 94.83 129.51 96.00 129.82 96.58 L 132.36 96.67 C 130.70 94.74 128.96 92.73 126.46 91.91 C 126.48 91.39 126.53 90.35 126.55 89.83 C 125.32 89.41 124.09 88.97 122.88 88.50 C 122.26 89.29 121.64 90.07 121.03 90.86 C 119.70 90.54 118.37 90.21 117.07 89.80 C 113.49 89.68 109.90 90.11 106.42 90.94 M 106.83 94.66 C 107.52 95.32 108.21 95.97 108.90 96.63 C 111.30 96.34 113.68 95.49 116.12 95.85 C 119.99 96.92 123.36 99.25 126.53 101.65 C 127.06 102.97 127.48 104.32 127.72 105.72 C 128.62 105.60 130.42 105.35 131.32 105.23 C 130.58 103.40 129.54 101.70 127.67 100.88 C 127.60 100.41 127.48 99.47 127.42 99.00 C 124.52 96.91 121.52 94.86 118.11 93.69 C 114.35 92.81 110.52 93.90 106.83 94.66 M 116.63 99.20 C 117.96 99.70 118.49 101.34 119.99 101.51 C 120.18 101.58 120.55 101.72 120.74 101.79 C 121.87 102.06 124.15 102.60 125.29 102.87 C 122.76 100.95 119.90 99.21 116.63 99.20 Z" />
<path fill="#010101" opacity="1.00" d=" M 138.96 80.82 C 139.48 80.75 140.52 80.61 141.04 80.54 C 144.07 82.85 147.02 85.37 150.53 86.95 C 150.42 87.43 150.21 88.40 150.10 88.89 C 148.70 88.71 147.53 88.13 147.12 86.67 L 146.80 86.48 C 144.86 84.99 142.84 83.62 140.87 82.18 C 140.23 81.72 139.60 81.27 138.96 80.82 Z" />
<path fill="#010101" opacity="1.00" d=" M 70.40 90.05 C 69.36 85.35 75.99 83.47 79.46 84.91 C 77.77 85.71 75.99 86.27 74.17 86.67 C 74.14 87.06 74.08 87.86 74.04 88.25 C 74.68 88.36 75.95 88.59 76.58 88.70 C 76.24 90.64 75.52 92.48 75.11 94.41 C 74.66 94.35 73.78 94.22 73.33 94.15 C 73.69 93.02 74.06 91.90 74.52 90.81 C 74.29 89.71 73.83 87.53 73.60 86.44 C 72.80 87.35 71.20 89.15 70.40 90.05 Z" />
<path fill="#010101" opacity="1.00" d=" M 139.68 85.57 C 140.24 85.50 141.35 85.35 141.90 85.28 C 143.31 86.50 145.65 86.88 146.04 89.04 C 143.81 88.09 141.68 86.94 139.68 85.57 Z" />
<path fill="#010101" opacity="1.00" d=" M 106.88 100.62 C 107.37 100.61 108.37 100.60 108.87 100.59 C 111.59 102.88 114.81 104.40 118.02 105.85 C 119.48 106.30 120.99 106.59 122.50 106.86 L 122.62 107.47 L 124.65 108.00 C 122.00 108.90 119.36 107.93 116.95 106.79 C 116.71 106.71 116.22 106.57 115.98 106.50 C 112.63 105.06 109.41 103.29 106.88 100.62 Z" />
<path fill="#010101" opacity="1.00" d=" M 80.02 108.94 C 79.54 107.30 79.45 105.57 79.90 103.91 C 80.56 105.63 81.20 107.36 81.77 109.12 C 82.04 109.61 82.59 110.59 82.87 111.08 C 84.12 112.81 85.42 114.51 86.51 116.35 C 82.97 115.45 81.89 111.61 80.02 108.94 Z" />
<path fill="#010101" opacity="1.00" d=" M 95.66 115.35 C 96.21 115.37 97.32 115.40 97.87 115.42 C 101.78 119.46 105.73 123.68 110.99 125.96 C 112.15 126.26 113.31 126.55 114.48 126.82 L 114.43 127.42 C 117.01 127.45 119.59 127.50 122.17 127.32 C 123.63 126.94 125.11 126.63 126.59 126.33 C 126.53 126.81 126.40 127.78 126.34 128.27 C 121.19 128.75 115.78 129.34 110.85 127.42 C 104.63 125.01 100.41 119.74 95.66 115.35 Z" />
</g>
</svg>
