<?xml version="1.0" encoding="UTF-8" ?>
<!DOCTYPE svg PUBLIC "-//W3C//DTD SVG 1.1//EN" "http://www.w3.org/Graphics/SVG/1.1/DTD/svg11.dtd">
<svg width="210pt" height="220pt" viewBox="0 0 210 220" version="1.1" xmlns="http://www.w3.org/2000/svg">
<g id="#ffffffff">
<path fill="#ffffff" opacity="1.00" d=" M 0.00 0.00 L 210.00 0.00 L 210.00 220.00 L 116.96 220.00 C 118.35 218.04 117.68 215.52 118.38 213.36 C 120.59 209.92 123.02 206.64 125.38 203.31 C 127.86 200.79 130.17 198.10 132.38 195.34 C 132.97 195.17 134.14 194.83 134.72 194.66 C 135.91 193.57 137.10 192.47 138.31 191.41 C 140.58 189.98 142.43 188.00 144.71 186.59 C 146.95 184.58 148.99 182.33 151.47 180.61 C 152.82 179.74 154.19 178.88 155.55 178.02 C 156.05 178.02 157.05 178.00 157.54 178.00 C 157.97 177.59 158.84 176.76 159.27 176.35 C 160.72 175.50 162.12 174.56 163.56 173.68 C 164.34 173.30 165.90 172.55 166.68 172.17 C 165.70 171.34 164.71 170.53 163.67 169.79 C 161.69 168.83 158.52 167.81 160.84 165.20 C 160.96 163.40 161.05 161.61 161.20 159.82 C 162.56 156.34 161.80 152.52 162.14 148.88 C 163.90 145.17 162.11 140.84 163.85 137.13 C 164.02 134.04 163.98 130.95 164.15 127.87 C 165.78 123.65 164.73 119.01 164.99 114.61 C 177.15 116.98 188.59 121.77 199.69 127.16 C 199.39 125.83 199.08 124.50 198.78 123.17 C 194.47 120.76 189.65 119.26 185.65 116.34 C 183.12 112.85 182.12 108.42 181.67 104.19 C 180.16 97.65 177.63 91.40 175.86 84.94 C 173.63 77.25 167.36 71.62 164.80 64.09 C 164.06 62.02 162.89 60.15 161.82 58.24 C 162.90 55.20 164.16 52.20 164.82 49.04 C 165.44 42.03 165.19 34.97 164.77 27.96 C 161.12 16.21 149.37 7.14 136.89 7.88 C 126.05 6.28 114.51 4.61 104.09 8.94 C 99.08 12.58 93.94 15.99 88.77 19.37 C 89.00 20.80 89.25 22.23 89.53 23.66 C 90.84 22.43 92.10 21.15 93.37 19.87 C 91.74 24.56 90.10 29.25 88.11 33.79 C 88.05 35.08 88.02 36.37 87.99 37.66 C 86.39 41.55 82.83 43.88 79.11 45.47 C 77.95 48.08 78.95 51.80 81.37 53.52 C 85.11 57.03 91.29 54.34 94.77 58.27 C 98.14 61.54 102.52 63.40 106.82 65.09 C 112.34 67.07 117.79 69.36 123.61 70.27 C 130.67 71.92 138.27 72.80 145.18 70.07 C 150.17 67.60 153.95 63.10 158.92 60.71 C 160.68 63.14 162.36 66.61 160.50 69.46 C 158.68 72.00 157.12 75.01 154.17 76.42 C 151.74 77.86 149.67 79.80 147.56 81.66 C 142.33 86.18 135.69 88.61 130.32 92.91 C 129.45 92.98 128.58 93.06 127.71 93.15 C 124.42 94.90 120.94 96.22 117.52 97.69 C 116.14 98.30 114.79 98.96 113.47 99.68 C 111.75 100.36 110.05 101.09 108.39 101.92 C 101.68 103.40 94.77 102.08 87.98 102.02 C 68.81 101.92 49.65 102.03 30.49 102.00 C 29.62 102.84 28.76 103.67 27.88 104.50 C 28.27 104.88 29.05 105.63 29.44 106.00 C 50.29 106.00 71.15 106.00 92.00 106.00 C 92.00 106.66 92.00 107.97 92.00 108.62 C 91.35 108.92 90.04 109.53 89.39 109.83 C 87.31 109.99 85.18 110.04 83.20 110.76 C 82.26 110.87 81.31 110.97 80.36 111.06 C 79.44 112.04 78.52 113.00 77.61 113.98 C 76.64 114.02 75.67 114.06 74.71 114.10 C 73.80 114.49 72.90 114.87 71.98 115.24 C 70.83 114.34 69.68 113.46 68.47 112.65 C 67.53 111.97 66.60 111.29 65.66 110.63 C 64.22 112.22 62.75 113.81 61.58 115.63 C 60.86 116.54 60.14 117.45 59.43 118.37 C 57.31 121.68 54.21 124.17 51.54 127.01 C 51.00 127.00 49.92 126.99 49.38 126.98 C 47.66 128.80 45.82 130.55 44.58 132.76 C 43.66 133.72 42.72 134.67 41.75 135.59 C 39.86 136.68 38.26 138.18 36.62 139.61 C 34.84 140.78 33.21 142.17 31.50 143.44 C 30.50 143.70 29.50 143.96 28.49 144.20 C 27.52 144.93 26.55 145.66 25.55 146.35 C 25.02 146.57 23.96 147.00 23.43 147.21 C 22.45 147.76 21.46 148.31 20.47 148.87 C 20.01 148.97 19.08 149.19 18.61 149.29 C 16.50 149.88 14.32 150.15 12.23 150.81 C 10.71 150.93 9.20 151.03 7.68 151.13 C 8.18 152.29 8.70 153.43 9.20 154.59 C 10.66 155.45 12.06 156.39 13.50 157.29 C 14.87 157.95 16.25 158.62 17.63 159.27 C 18.13 159.57 19.14 160.16 19.64 160.46 C 21.29 160.86 22.96 161.17 24.62 161.55 C 27.05 163.43 29.05 165.83 31.71 167.41 C 34.48 169.94 37.39 172.43 39.41 175.63 C 40.18 176.58 40.95 177.53 41.73 178.48 C 42.80 177.90 44.16 177.65 44.90 176.60 C 45.19 172.54 44.93 168.47 45.00 164.41 C 47.17 164.20 48.85 163.03 49.64 160.98 C 50.06 161.00 50.91 161.06 51.33 161.09 C 52.86 161.91 54.42 162.68 56.00 163.43 C 56.00 163.82 56.01 164.61 56.01 165.00 C 58.01 165.00 60.00 165.00 62.00 165.00 C 62.00 163.00 62.00 161.00 62.00 159.00 C 62.75 159.00 64.26 159.00 65.01 159.00 L 64.99 157.92 C 64.50 157.97 63.52 158.08 63.04 158.13 C 65.09 155.95 62.79 154.27 61.46 152.58 C 63.54 153.09 65.59 153.70 67.66 154.26 C 67.69 152.80 67.81 151.34 67.93 149.89 L 69.03 150.04 C 69.01 150.61 68.97 151.75 68.95 152.31 C 70.19 151.31 71.43 150.31 72.70 149.35 C 74.46 149.11 76.23 148.99 78.00 148.86 C 78.00 146.91 78.00 144.95 78.00 143.00 C 78.75 143.00 80.24 143.00 80.99 143.00 C 81.00 142.50 81.00 141.50 81.01 141.00 C 81.76 141.00 83.25 141.00 84.00 141.00 C 84.00 140.50 84.00 139.50 84.00 139.00 L 84.70 138.98 C 85.22 140.33 85.77 141.66 86.30 143.00 C 86.72 143.00 87.57 143.00 88.00 143.00 C 88.00 140.33 88.00 137.66 88.00 135.00 C 91.33 135.00 94.66 135.00 98.00 135.00 C 98.00 134.34 98.00 133.02 98.01 132.37 C 97.51 131.94 96.50 131.08 96.00 130.64 C 96.00 130.09 96.01 128.97 96.01 128.41 C 95.34 128.08 94.01 127.41 93.35 127.08 C 92.45 127.03 91.55 126.99 90.65 126.95 C 89.62 126.18 88.59 125.42 87.52 124.72 C 85.47 123.64 83.54 122.36 81.49 121.28 C 80.17 120.43 78.91 119.50 77.65 118.58 C 79.35 117.42 81.06 116.28 82.68 115.01 C 83.79 115.00 84.89 115.00 86.00 114.99 C 86.00 114.58 86.00 113.76 86.00 113.35 C 86.64 113.07 87.90 112.52 88.54 112.25 C 89.50 111.98 90.46 111.71 91.41 111.43 C 91.96 111.08 93.05 110.37 93.59 110.01 C 94.10 110.01 95.11 110.00 95.61 110.00 C 96.02 109.55 96.83 108.65 97.24 108.21 C 100.39 107.93 103.38 106.89 106.46 106.23 C 112.99 105.29 119.51 106.79 126.04 106.98 C 132.78 107.60 139.31 109.70 146.08 110.09 C 150.94 110.40 155.41 113.09 160.34 112.65 C 161.33 113.87 160.88 115.56 161.05 117.01 C 160.97 119.97 161.40 123.08 160.15 125.88 C 159.85 129.20 160.48 132.70 159.17 135.87 C 158.90 138.87 159.39 142.03 158.15 144.87 C 157.98 147.95 158.02 151.05 157.85 154.13 C 155.69 157.57 158.89 162.77 155.18 165.22 C 153.30 163.88 151.61 162.27 149.51 161.28 C 147.72 160.40 146.41 158.90 145.45 157.20 C 144.51 156.95 143.57 156.69 142.64 156.41 C 142.12 156.14 141.06 155.58 140.53 155.30 C 139.05 154.38 137.62 153.40 136.13 152.50 C 136.10 153.33 136.02 154.98 135.99 155.81 C 134.37 157.06 132.68 158.21 130.96 159.32 C 130.97 158.74 131.01 157.58 131.03 157.00 C 130.52 157.00 129.50 157.00 129.00 157.00 C 129.00 158.21 129.00 159.42 129.00 160.64 C 128.51 161.07 127.51 161.92 127.01 162.35 C 126.99 162.85 126.94 163.85 126.92 164.35 C 126.59 165.01 125.92 166.34 125.59 167.00 C 124.94 167.00 123.65 167.00 123.00 167.00 C 123.00 169.40 123.00 171.80 122.98 174.20 C 121.06 174.01 119.13 173.86 117.28 173.30 C 116.40 173.13 115.52 172.96 114.65 172.80 C 113.86 172.50 112.30 171.89 111.52 171.59 C 111.88 172.37 112.58 173.94 112.93 174.73 C 112.98 176.50 113.00 178.27 113.03 180.05 C 111.60 180.00 110.17 179.96 108.75 179.90 C 107.90 179.57 106.20 178.92 105.35 178.59 C 106.04 179.89 106.79 181.16 107.60 182.40 C 108.62 183.97 109.67 185.53 110.60 187.15 C 108.44 187.00 106.22 187.04 104.18 186.19 C 102.66 186.07 101.15 185.99 99.63 185.90 C 99.01 185.58 97.75 184.92 97.13 184.59 C 96.64 186.98 98.03 190.31 95.60 191.88 C 93.28 192.12 90.94 192.01 88.61 192.08 C 88.92 192.71 89.55 193.98 89.86 194.61 C 89.98 195.51 90.11 196.41 90.24 197.31 C 90.86 199.41 91.14 201.58 91.73 203.68 C 91.88 204.37 92.17 205.75 92.31 206.43 C 92.91 206.05 94.12 205.29 94.73 204.91 C 96.72 205.00 98.73 205.07 100.66 205.63 C 101.11 205.76 102.01 206.00 102.46 206.13 C 103.46 206.91 104.47 207.68 105.49 208.43 C 106.57 210.06 107.96 211.44 109.60 212.51 C 110.97 214.37 112.45 216.15 113.69 218.10 L 113.98 217.69 C 114.08 218.27 114.28 219.42 114.38 220.00 L 0.00 220.00 L 0.00 0.00 M 101.03 146.00 C 101.01 146.61 100.97 147.84 100.95 148.46 C 100.22 149.64 99.52 150.84 98.79 152.02 C 99.59 152.01 101.20 151.99 102.00 151.98 C 102.00 149.99 102.00 147.99 102.00 146.00 L 101.03 146.00 M 114.13 160.55 C 114.57 162.07 116.72 160.61 116.71 159.50 L 116.77 158.48 C 116.76 158.12 116.72 157.40 116.71 157.04 C 115.16 157.11 114.70 159.35 114.13 160.55 M 81.18 161.18 L 81.17 161.81 L 81.81 161.81 L 81.81 161.18 L 81.18 161.18 M 98.26 161.72 C 98.17 163.83 97.04 165.65 96.75 167.71 C 97.78 166.56 98.63 165.27 99.48 163.98 C 100.28 164.37 101.07 164.80 101.86 165.24 C 101.16 167.15 98.44 167.19 97.58 169.11 C 98.99 168.85 100.27 168.18 101.50 167.46 C 102.28 166.90 103.89 166.44 103.77 165.23 C 102.62 163.90 100.84 163.48 99.33 162.71 C 99.06 162.46 98.53 161.97 98.26 161.72 M 51.07 169.68 C 51.19 170.41 51.43 171.86 51.55 172.58 L 52.91 171.94 C 53.08 172.59 53.40 173.87 53.57 174.51 C 54.24 174.61 55.60 174.81 56.28 174.91 C 54.67 173.05 52.98 171.24 51.07 169.68 M 85.90 176.38 C 85.77 177.95 86.11 179.39 86.92 180.71 C 86.95 181.82 86.98 182.92 87.00 184.03 C 87.99 183.57 88.99 183.14 90.00 182.74 C 89.41 181.69 88.87 180.63 88.34 179.56 C 87.69 178.38 86.81 177.36 85.90 176.38 Z" />
<path fill="#ffffff" opacity="1.00" d=" M 100.45 15.91 C 103.74 12.94 107.41 9.95 111.90 9.16 C 123.85 8.62 136.22 8.64 147.51 13.16 C 152.34 15.93 156.80 19.40 159.46 24.41 C 151.93 28.33 147.26 35.56 140.88 40.87 C 137.46 43.01 134.74 46.01 131.89 48.82 C 124.92 48.69 117.95 48.80 110.99 48.35 C 104.97 48.02 98.69 48.48 93.03 45.99 C 91.70 45.56 91.16 44.14 90.37 43.13 C 92.72 43.00 95.07 42.99 97.43 42.96 C 98.58 42.11 99.79 41.32 101.00 40.55 C 100.95 37.88 101.06 35.22 101.35 32.56 C 98.88 31.13 96.06 30.51 93.44 29.42 C 94.93 26.16 95.90 22.69 97.56 19.52 C 99.49 20.61 101.37 21.83 103.54 22.38 C 103.50 19.83 101.83 17.88 100.45 15.91 M 115.19 24.34 C 112.43 24.78 109.65 25.01 106.88 25.37 C 113.06 28.62 120.66 25.01 127.02 28.07 C 130.89 29.25 134.50 33.66 138.74 32.14 C 136.91 28.36 132.24 27.25 128.86 25.21 C 124.31 24.95 119.76 23.63 115.19 24.34 M 112.57 33.29 C 112.80 36.12 113.03 38.94 113.03 41.78 C 115.91 44.28 119.62 46.24 123.43 44.44 C 125.04 43.75 126.62 43.00 128.19 42.25 C 128.03 40.20 127.98 38.14 127.55 36.12 C 127.88 35.85 128.53 35.30 128.86 35.02 C 123.55 33.73 118.03 33.10 112.57 33.29 Z" />
<path fill="#ffffff" opacity="1.00" d=" M 150.68 35.75 C 154.02 33.00 157.08 29.79 160.99 27.85 C 163.52 30.80 162.82 35.36 163.33 39.03 C 162.76 46.59 160.90 55.77 153.56 59.65 C 151.69 60.89 150.02 62.45 148.02 63.49 C 147.98 64.23 147.89 65.73 147.85 66.48 C 145.88 65.24 144.06 63.67 141.59 63.74 C 139.63 62.28 137.27 63.20 135.34 64.16 C 133.54 65.14 132.04 66.51 130.50 67.83 C 125.78 69.10 121.27 66.44 116.82 65.22 C 111.09 62.83 105.20 60.83 99.51 58.34 C 96.39 56.25 94.78 52.72 92.47 49.87 C 97.41 51.06 102.53 51.22 107.43 52.57 C 110.81 53.48 113.29 56.14 115.23 58.91 C 120.56 59.61 125.87 59.35 131.20 58.95 C 133.48 56.63 133.39 53.01 135.75 50.76 C 138.88 47.53 141.54 43.67 145.51 41.38 C 147.68 39.94 148.59 37.29 150.68 35.75 Z" />
<path fill="#ffffff" opacity="1.00" d=" M 96.01 33.82 C 97.34 34.09 98.67 34.39 99.99 34.69 C 100.00 36.27 100.00 37.86 100.00 39.44 C 99.15 40.29 98.29 41.14 97.45 42.00 C 94.95 42.00 92.45 42.00 89.96 42.00 L 90.01 41.47 C 91.97 40.45 93.65 38.80 96.00 38.74 C 96.00 37.10 96.00 35.46 96.01 33.82 Z" />
<path fill="#ffffff" opacity="1.00" d=" M 123.44 35.98 C 125.12 35.61 125.91 37.53 127.05 38.36 C 128.26 41.69 125.00 42.79 122.51 43.45 C 121.25 43.80 119.95 43.97 118.66 44.12 C 116.90 43.14 114.99 42.03 114.49 39.90 C 116.74 41.27 119.38 41.02 121.90 41.04 C 122.03 39.22 121.56 37.07 123.44 35.98 Z" />
<path fill="#ffffff" opacity="1.00" d=" M 82.23 49.21 C 84.32 48.95 86.42 48.85 88.52 48.98 C 88.73 49.85 89.14 51.57 89.35 52.43 C 86.56 52.80 83.48 51.99 82.23 49.21 Z" />
<path fill="#ffffff" opacity="1.00" d=" M 113.48 52.22 C 119.40 51.75 125.33 51.86 131.25 52.13 C 131.41 56.37 126.43 57.56 123.10 57.47 C 119.52 56.84 115.23 55.75 113.48 52.22 Z" />
<path fill="#ffffff" opacity="1.00" d=" M 164.98 71.94 C 173.64 83.13 175.35 97.63 180.50 110.46 C 181.25 111.83 181.02 113.41 180.80 114.89 C 175.42 114.18 170.15 112.63 165.00 110.96 C 164.83 103.34 165.44 95.69 164.53 88.10 C 164.52 82.71 164.79 77.33 164.98 71.94 Z" />
<path fill="#ffffff" opacity="1.00" d=" M 156.91 77.66 C 157.76 76.36 159.70 77.25 161.00 76.91 C 161.17 81.99 160.56 87.13 161.46 92.16 C 161.28 92.74 160.91 93.89 160.73 94.47 C 158.65 98.59 161.47 103.73 159.07 107.71 C 159.04 108.81 159.02 109.91 159.00 111.01 C 157.63 110.17 156.05 109.96 154.50 109.76 C 144.61 106.30 134.12 105.11 123.85 103.31 C 120.56 102.74 117.21 103.10 113.89 103.00 C 115.04 102.39 116.20 101.78 117.37 101.20 C 121.23 100.07 124.90 98.40 128.56 96.76 C 131.14 95.30 133.39 93.00 136.50 92.74 C 140.36 90.61 144.37 88.64 147.70 85.71 C 150.65 82.87 154.78 81.33 156.91 77.66 Z" />
<path fill="#ffffff" opacity="1.00" d=" M 65.45 114.04 C 67.07 113.68 68.50 114.82 70.00 115.24 L 70.01 116.00 C 68.48 116.00 66.94 116.00 65.41 115.99 C 65.06 116.68 64.36 118.06 64.01 118.75 C 65.01 119.48 66.02 120.21 67.03 120.93 C 67.51 120.48 68.45 119.58 68.93 119.13 C 71.43 119.19 73.99 118.70 76.43 119.46 C 78.17 120.71 79.68 122.29 81.59 123.31 C 83.38 124.15 84.95 125.34 86.59 126.43 C 87.58 126.72 88.57 127.00 89.57 127.25 C 90.52 127.74 91.49 128.21 92.46 128.66 C 94.30 129.50 95.73 131.00 96.49 132.88 C 93.33 133.05 90.17 133.00 87.01 133.00 C 86.98 135.00 86.88 137.00 87.00 139.00 L 86.28 139.02 C 86.54 137.27 85.07 136.16 84.22 134.86 C 83.77 133.10 82.35 131.89 80.94 130.88 C 81.19 132.40 82.33 133.41 83.38 134.42 C 82.79 136.15 83.67 138.90 81.57 139.76 C 80.75 139.95 79.09 140.33 78.27 140.52 C 77.90 140.06 77.17 139.13 76.81 138.67 C 76.61 137.52 76.10 136.48 75.58 135.46 C 75.59 136.51 75.69 137.56 75.89 138.59 C 75.96 140.24 76.11 141.91 75.95 143.57 C 74.73 145.19 73.12 146.38 71.00 146.20 C 71.00 146.65 71.00 147.55 71.00 148.00 C 69.33 148.00 67.66 148.00 66.00 148.00 C 66.00 148.76 66.00 150.27 66.00 151.03 C 63.62 150.85 61.01 151.52 58.88 150.13 C 60.07 152.04 61.15 154.03 62.24 156.00 C 61.68 156.00 60.56 156.00 60.00 156.00 C 60.01 158.46 60.01 160.92 59.94 163.39 C 58.72 162.83 57.53 162.22 56.34 161.61 C 52.91 161.53 50.66 158.52 47.21 158.81 C 47.46 159.34 47.97 160.39 48.23 160.91 C 46.23 162.00 43.91 162.03 41.80 162.80 C 44.27 166.85 42.48 171.99 42.98 176.51 C 41.90 175.40 40.81 174.28 39.98 172.97 C 36.74 168.22 31.86 165.07 27.60 161.36 C 26.20 160.84 24.80 160.34 23.42 159.79 C 21.45 158.69 19.43 157.69 17.39 156.72 C 16.46 156.23 15.53 155.74 14.61 155.24 C 13.41 154.71 12.21 154.16 11.00 153.66 L 10.99 153.02 C 11.57 152.98 12.73 152.91 13.32 152.87 C 15.23 151.65 17.67 152.31 19.64 151.21 C 20.10 151.13 21.03 150.96 21.49 150.87 C 22.01 150.57 23.05 149.97 23.57 149.66 C 24.09 149.44 25.12 149.00 25.63 148.78 C 28.65 147.15 31.23 144.72 34.50 143.58 C 37.95 141.81 40.52 138.84 43.74 136.74 C 45.42 134.29 47.30 131.99 49.44 129.92 L 51.73 131.73 L 49.79 129.19 C 51.00 128.54 52.22 127.92 53.46 127.33 C 59.07 124.47 60.92 118.00 65.45 114.04 Z" />
<path fill="#ffffff" opacity="1.00" d=" M 75.18 146.19 L 75.81 146.18 L 75.82 146.81 L 75.19 146.82 L 75.18 146.19 Z" />
<path fill="#ffffff" opacity="1.00" d=" M 130.27 161.17 C 134.47 161.97 135.48 154.73 139.46 156.49 C 141.19 157.73 142.68 159.28 144.56 160.30 C 147.85 161.85 150.30 164.70 153.59 166.29 C 155.35 167.16 156.92 168.32 158.58 169.36 C 160.22 169.88 161.88 170.39 163.35 171.32 C 158.87 173.41 155.43 177.50 150.52 178.60 C 149.22 179.25 148.22 180.27 147.61 181.59 C 141.34 185.90 135.75 191.09 129.76 195.75 C 125.34 199.71 121.78 204.54 118.71 209.60 C 117.95 211.14 116.85 212.48 116.04 214.00 C 115.96 215.90 115.96 217.81 116.02 219.73 C 114.81 218.15 114.27 216.21 113.64 214.37 C 111.54 211.48 108.26 209.56 106.60 206.33 C 104.95 205.34 103.42 204.10 101.53 203.57 C 99.12 202.68 96.51 203.06 94.00 202.98 L 94.00 202.00 C 95.67 202.00 97.33 202.00 99.01 202.00 C 98.77 199.28 99.72 196.19 98.10 193.78 C 96.31 195.33 97.22 197.93 96.95 200.00 C 95.70 200.00 94.45 200.00 93.21 200.00 C 92.45 198.12 91.88 196.17 91.82 194.13 C 94.39 194.17 97.30 193.97 98.90 191.62 C 99.01 190.42 99.07 189.21 99.09 188.00 C 101.06 188.00 103.03 188.00 105.00 188.00 C 105.38 188.39 106.15 189.18 106.53 189.57 C 108.75 189.04 111.03 188.97 113.30 188.86 C 113.07 188.29 112.60 187.13 112.37 186.56 C 111.19 184.80 109.69 183.16 109.78 180.89 C 110.34 181.41 111.46 182.45 112.01 182.97 C 115.33 181.74 113.62 177.88 113.99 175.22 C 115.00 174.97 116.00 174.71 116.99 174.44 L 117.04 175.19 C 117.84 175.53 118.65 175.87 119.45 176.23 C 121.30 176.08 123.15 175.97 125.00 175.93 C 125.01 174.03 124.89 172.11 125.12 170.21 C 125.99 168.50 127.34 167.10 128.36 165.47 C 129.00 164.04 129.67 162.62 130.27 161.17 Z" />
<path fill="#ffffff" opacity="1.00" d=" M 71.90 171.91 C 73.35 173.42 73.46 174.89 72.22 176.32 C 71.77 175.29 71.72 174.21 72.06 173.09 Z" />
</g>
<g id="#000000ff">
<path fill="#000000" opacity="1.00" d=" M 104.09 8.94 C 114.51 4.61 126.05 6.28 136.89 7.88 C 149.37 7.14 161.12 16.21 164.77 27.96 C 165.19 34.97 165.44 42.03 164.82 49.04 C 164.16 52.20 162.90 55.20 161.82 58.24 C 162.89 60.15 164.06 62.02 164.80 64.09 C 167.36 71.62 173.63 77.25 175.86 84.94 C 177.63 91.40 180.16 97.65 181.67 104.19 C 182.12 108.42 183.12 112.85 185.65 116.34 C 189.65 119.26 194.47 120.76 198.78 123.17 C 199.08 124.50 199.39 125.83 199.69 127.16 C 188.59 121.77 177.15 116.98 164.99 114.61 C 164.73 119.01 165.78 123.65 164.15 127.87 C 163.98 130.95 164.02 134.04 163.85 137.13 C 162.11 140.84 163.90 145.17 162.14 148.88 C 161.80 152.52 162.56 156.34 161.20 159.82 C 161.05 161.61 160.96 163.40 160.84 165.20 C 158.52 167.81 161.69 168.83 163.67 169.79 C 164.71 170.53 165.70 171.34 166.68 172.17 C 165.90 172.55 164.34 173.30 163.56 173.68 C 162.12 174.56 160.72 175.50 159.27 176.35 C 158.84 176.76 157.97 177.59 157.54 178.00 C 157.05 178.00 156.05 178.02 155.55 178.02 C 154.19 178.88 152.82 179.74 151.47 180.61 C 148.99 182.33 146.95 184.58 144.71 186.59 C 142.43 188.00 140.58 189.98 138.31 191.41 C 137.10 192.47 135.91 193.57 134.72 194.66 C 134.14 194.83 132.97 195.17 132.38 195.34 C 130.17 198.10 127.86 200.79 125.38 203.31 C 123.02 206.64 120.59 209.92 118.38 213.36 C 117.68 215.52 118.35 218.04 116.96 220.00 L 114.38 220.00 C 114.28 219.42 114.08 218.27 113.98 217.69 L 113.69 218.10 C 112.45 216.15 110.97 214.37 109.60 212.51 C 107.96 211.44 106.57 210.06 105.49 208.43 C 104.47 207.68 103.46 206.91 102.46 206.13 C 102.01 206.00 101.11 205.76 100.66 205.63 C 98.73 205.07 96.72 205.00 94.73 204.91 C 94.12 205.29 92.91 206.05 92.31 206.43 C 92.17 205.75 91.88 204.37 91.73 203.68 C 91.14 201.58 90.86 199.41 90.24 197.31 C 90.11 196.41 89.98 195.51 89.86 194.61 C 89.55 193.98 88.92 192.71 88.61 192.08 C 90.94 192.01 93.28 192.12 95.60 191.88 C 98.03 190.31 96.64 186.98 97.13 184.59 C 97.75 184.92 99.01 185.58 99.63 185.90 C 101.15 185.99 102.66 186.07 104.18 186.19 C 106.22 187.04 108.44 187.00 110.60 187.15 C 109.67 185.53 108.62 183.97 107.60 182.40 C 106.79 181.16 106.04 179.89 105.35 178.59 C 106.20 178.92 107.90 179.57 108.75 179.90 C 110.17 179.96 111.60 180.00 113.03 180.05 C 113.00 178.27 112.98 176.50 112.93 174.73 C 112.58 173.94 111.88 172.37 111.52 171.59 C 112.30 171.89 113.86 172.50 114.65 172.80 C 115.52 172.96 116.40 173.13 117.28 173.30 C 119.13 173.86 121.06 174.01 122.98 174.20 C 123.00 171.80 123.00 169.40 123.00 167.00 C 123.65 167.00 124.94 167.00 125.59 167.00 C 125.92 166.34 126.59 165.01 126.92 164.35 C 126.94 163.85 126.99 162.85 127.01 162.35 C 127.51 161.92 128.51 161.07 129.00 160.64 C 129.00 159.42 129.00 158.21 129.00 157.00 C 129.50 157.00 130.52 157.00 131.03 157.00 C 131.01 157.58 130.97 158.74 130.96 159.32 C 132.68 158.21 134.37 157.06 135.99 155.81 C 136.02 154.98 136.10 153.33 136.13 152.50 C 137.62 153.40 139.05 154.38 140.53 155.30 C 141.06 155.58 142.12 156.14 142.64 156.41 C 143.57 156.69 144.51 156.95 145.45 157.20 C 146.41 158.90 147.72 160.40 149.51 161.28 C 151.61 162.27 153.30 163.88 155.18 165.22 C 158.89 162.77 155.69 157.57 157.85 154.13 C 158.02 151.05 157.98 147.95 158.15 144.87 C 159.39 142.03 158.90 138.87 159.17 135.87 C 160.48 132.70 159.85 129.20 160.15 125.88 C 161.40 123.08 160.97 119.97 161.05 117.01 C 160.88 115.56 161.33 113.87 160.34 112.65 C 155.41 113.09 150.94 110.40 146.08 110.09 C 139.31 109.70 132.78 107.60 126.04 106.98 C 119.51 106.79 112.99 105.29 106.46 106.23 C 103.38 106.89 100.39 107.93 97.24 108.21 C 96.83 108.65 96.02 109.55 95.61 110.00 C 95.11 110.00 94.10 110.01 93.59 110.01 C 93.05 110.37 91.96 111.08 91.41 111.43 C 90.46 111.71 89.50 111.98 88.54 112.25 C 87.90 112.52 86.64 113.07 86.00 113.35 C 86.00 113.76 86.00 114.58 86.00 114.99 C 84.89 115.00 83.79 115.00 82.68 115.01 C 81.06 116.28 79.35 117.42 77.65 118.58 C 78.91 119.50 80.17 120.43 81.49 121.28 C 83.54 122.36 85.47 123.64 87.52 124.72 C 88.59 125.42 89.62 126.18 90.65 126.95 C 91.55 126.99 92.45 127.03 93.35 127.08 C 94.01 127.41 95.34 128.08 96.01 128.41 C 96.01 128.97 96.00 130.09 96.00 130.64 C 96.50 131.08 97.51 131.94 98.01 132.37 C 98.00 133.02 98.00 134.34 98.00 135.00 C 94.66 135.00 91.33 135.00 88.00 135.00 C 88.00 137.66 88.00 140.33 88.00 143.00 C 87.57 143.00 86.72 143.00 86.30 143.00 C 85.77 141.66 85.22 140.33 84.70 138.98 L 84.00 139.00 C 84.00 139.50 84.00 140.50 84.00 141.00 C 83.25 141.00 81.76 141.00 81.01 141.00 C 81.00 141.50 81.00 142.50 80.99 143.00 C 80.24 143.00 78.75 143.00 78.00 143.00 C 78.00 144.95 78.00 146.91 78.00 148.86 C 76.23 148.99 74.46 149.11 72.70 149.35 C 71.43 150.31 70.19 151.31 68.95 152.31 C 68.97 151.75 69.01 150.61 69.03 150.04 L 67.93 149.89 C 67.81 151.34 67.69 152.80 67.66 154.26 C 65.59 153.70 63.54 153.09 61.46 152.58 C 62.79 154.27 65.09 155.95 63.04 158.13 C 63.52 158.08 64.50 157.97 64.99 157.92 L 65.01 159.00 C 64.26 159.00 62.75 159.00 62.00 159.00 C 62.00 161.00 62.00 163.00 62.00 165.00 C 60.00 165.00 58.01 165.00 56.01 165.00 C 56.01 164.61 56.00 163.82 56.00 163.43 C 54.42 162.68 52.86 161.91 51.33 161.09 C 50.91 161.06 50.06 161.00 49.64 160.98 C 48.85 163.03 47.17 164.20 45.00 164.41 C 44.93 168.47 45.19 172.54 44.90 176.60 C 44.16 177.65 42.80 177.90 41.73 178.48 C 40.95 177.53 40.18 176.58 39.41 175.63 C 37.39 172.43 34.48 169.94 31.71 167.41 C 29.05 165.83 27.05 163.43 24.62 161.55 C 22.96 161.17 21.29 160.86 19.64 160.46 C 19.14 160.16 18.13 159.57 17.63 159.27 C 16.25 158.62 14.87 157.95 13.50 157.29 C 12.06 156.39 10.66 155.45 9.20 154.59 C 8.70 153.43 8.18 152.29 7.68 151.13 C 9.20 151.03 10.71 150.93 12.23 150.81 C 14.32 150.15 16.50 149.88 18.61 149.29 C 19.08 149.19 20.01 148.97 20.47 148.87 C 21.46 148.31 22.45 147.76 23.43 147.21 C 23.96 147.00 25.02 146.57 25.55 146.35 C 26.55 145.66 27.52 144.93 28.49 144.20 C 29.50 143.96 30.50 143.70 31.50 143.44 C 33.21 142.17 34.84 140.78 36.62 139.61 C 38.26 138.18 39.86 136.68 41.75 135.59 C 42.72 134.67 43.66 133.72 44.58 132.76 C 45.82 130.55 47.66 128.80 49.38 126.98 C 49.92 126.99 51.00 127.00 51.54 127.01 C 54.21 124.17 57.31 121.68 59.43 118.37 C 60.14 117.45 60.86 116.54 61.58 115.63 C 62.75 113.81 64.22 112.22 65.66 110.63 C 66.60 111.29 67.53 111.97 68.47 112.65 C 69.68 113.46 70.83 114.34 71.98 115.24 C 72.90 114.87 73.80 114.49 74.71 114.10 C 75.67 114.06 76.64 114.02 77.61 113.98 C 78.52 113.00 79.44 112.04 80.36 111.06 C 81.31 110.97 82.26 110.87 83.20 110.76 C 85.18 110.04 87.31 109.99 89.39 109.83 C 90.04 109.53 91.35 108.92 92.00 108.62 C 92.00 107.97 92.00 106.66 92.00 106.00 C 71.15 106.00 50.29 106.00 29.44 106.00 C 29.05 105.63 28.27 104.88 27.88 104.50 C 28.76 103.67 29.62 102.84 30.49 102.00 C 49.65 102.03 68.81 101.92 87.98 102.02 C 94.77 102.08 101.68 103.40 108.39 101.92 C 110.05 101.09 111.75 100.36 113.47 99.68 C 114.79 98.96 116.14 98.30 117.52 97.69 C 120.94 96.22 124.42 94.90 127.71 93.15 C 128.58 93.06 129.45 92.98 130.32 92.91 C 135.69 88.61 142.33 86.18 147.56 81.66 C 149.67 79.80 151.74 77.86 154.17 76.42 C 157.12 75.01 158.68 72.00 160.50 69.46 C 162.36 66.61 160.68 63.14 158.92 60.71 C 153.95 63.10 150.17 67.60 145.18 70.07 C 138.27 72.80 130.67 71.92 123.61 70.27 C 117.79 69.36 112.34 67.07 106.82 65.09 C 102.52 63.40 98.14 61.54 94.77 58.27 C 91.29 54.34 85.11 57.03 81.37 53.52 C 78.95 51.80 77.95 48.08 79.11 45.47 C 82.83 43.88 86.39 41.55 87.99 37.66 C 88.02 36.37 88.05 35.08 88.11 33.79 C 90.10 29.25 91.74 24.56 93.37 19.87 C 92.10 21.15 90.84 22.43 89.53 23.66 C 89.25 22.23 89.00 20.80 88.77 19.37 C 93.94 15.99 99.08 12.58 104.09 8.94 M 100.45 15.91 C 101.83 17.88 103.50 19.83 103.54 22.38 C 101.37 21.83 99.49 20.61 97.56 19.52 C 95.90 22.69 94.93 26.16 93.44 29.42 C 96.06 30.51 98.88 31.13 101.35 32.56 C 101.06 35.22 100.95 37.88 101.00 40.55 C 99.79 41.32 98.58 42.11 97.43 42.96 C 95.07 42.99 92.72 43.00 90.37 43.13 C 91.16 44.14 91.70 45.56 93.03 45.99 C 98.69 48.48 104.97 48.02 110.99 48.35 C 117.95 48.80 124.92 48.69 131.89 48.82 C 134.74 46.01 137.46 43.01 140.88 40.87 C 147.26 35.56 151.93 28.33 159.46 24.41 C 156.80 19.40 152.34 15.93 147.51 13.16 C 136.22 8.64 123.85 8.62 111.90 9.16 C 107.41 9.95 103.74 12.94 100.45 15.91 M 150.68 35.75 C 148.59 37.29 147.68 39.94 145.51 41.38 C 141.54 43.67 138.88 47.53 135.75 50.76 C 133.39 53.01 133.48 56.63 131.20 58.95 C 125.87 59.35 120.56 59.61 115.23 58.91 C 113.29 56.14 110.81 53.48 107.43 52.57 C 102.53 51.22 97.41 51.06 92.47 49.87 C 94.78 52.72 96.39 56.25 99.51 58.34 C 105.20 60.83 111.09 62.83 116.82 65.22 C 121.27 66.44 125.78 69.10 130.50 67.83 C 132.04 66.51 133.54 65.14 135.34 64.16 C 137.27 63.20 139.63 62.28 141.59 63.74 C 144.06 63.67 145.88 65.24 147.85 66.48 C 147.89 65.73 147.98 64.23 148.02 63.49 C 150.02 62.45 151.69 60.89 153.56 59.65 C 160.90 55.77 162.76 46.59 163.33 39.03 C 162.82 35.36 163.52 30.80 160.99 27.85 C 157.08 29.79 154.02 33.00 150.68 35.75 M 96.01 33.82 C 96.00 35.46 96.00 37.10 96.00 38.74 C 93.65 38.80 91.97 40.45 90.01 41.47 L 89.96 42.00 C 92.45 42.00 94.95 42.00 97.45 42.00 C 98.29 41.14 99.15 40.29 100.00 39.44 C 100.00 37.86 100.00 36.27 99.99 34.69 C 98.67 34.39 97.34 34.09 96.01 33.82 M 82.23 49.21 C 83.48 51.99 86.56 52.80 89.35 52.43 C 89.14 51.57 88.73 49.85 88.52 48.98 C 86.42 48.85 84.32 48.95 82.23 49.21 M 113.48 52.22 C 115.23 55.75 119.52 56.84 123.10 57.47 C 126.43 57.56 131.41 56.37 131.25 52.13 C 125.33 51.86 119.40 51.75 113.48 52.22 M 164.98 71.94 C 164.79 77.33 164.52 82.71 164.53 88.10 C 165.44 95.69 164.83 103.34 165.00 110.96 C 170.15 112.63 175.42 114.18 180.80 114.89 C 181.02 113.41 181.25 111.83 180.50 110.46 C 175.35 97.63 173.64 83.13 164.98 71.94 M 156.91 77.66 C 154.78 81.33 150.65 82.87 147.70 85.71 C 144.37 88.64 140.36 90.61 136.50 92.74 C 133.39 93.00 131.14 95.30 128.56 96.76 C 124.90 98.40 121.23 100.07 117.37 101.20 C 116.20 101.78 115.04 102.39 113.89 103.00 C 117.21 103.10 120.56 102.74 123.85 103.31 C 134.12 105.11 144.61 106.30 154.50 109.76 C 156.05 109.96 157.63 110.17 159.00 111.01 C 159.02 109.91 159.04 108.81 159.07 107.71 C 161.47 103.73 158.65 98.59 160.73 94.47 C 160.91 93.89 161.28 92.74 161.46 92.16 C 160.56 87.13 161.17 81.99 161.00 76.91 C 159.70 77.25 157.76 76.36 156.91 77.66 M 65.45 114.04 C 60.92 118.00 59.07 124.47 53.46 127.33 C 52.22 127.92 51.00 128.54 49.79 129.19 L 51.73 131.73 L 49.44 129.92 C 47.30 131.99 45.42 134.29 43.74 136.74 C 40.52 138.84 37.95 141.81 34.50 143.58 C 31.23 144.72 28.65 147.15 25.63 148.78 C 25.12 149.00 24.09 149.44 23.57 149.66 C 23.05 149.97 22.01 150.57 21.49 150.87 C 21.03 150.96 20.10 151.13 19.64 151.21 C 17.67 152.31 15.23 151.65 13.32 152.87 C 12.73 152.91 11.57 152.98 10.99 153.02 L 11.00 153.66 C 12.21 154.16 13.41 154.71 14.61 155.24 C 15.53 155.74 16.46 156.23 17.39 156.72 C 19.43 157.69 21.45 158.69 23.42 159.79 C 24.80 160.34 26.20 160.84 27.60 161.36 C 31.86 165.07 36.74 168.22 39.98 172.97 C 40.81 174.28 41.90 175.40 42.98 176.51 C 42.48 171.99 44.27 166.85 41.80 162.80 C 43.91 162.03 46.23 162.00 48.23 160.91 C 47.97 160.39 47.46 159.34 47.21 158.81 C 50.66 158.52 52.91 161.53 56.34 161.61 C 57.53 162.22 58.72 162.83 59.94 163.39 C 60.01 160.92 60.01 158.46 60.00 156.00 C 60.56 156.00 61.68 156.00 62.24 156.00 C 61.15 154.03 60.07 152.04 58.88 150.13 C 61.01 151.52 63.62 150.85 66.00 151.03 C 66.00 150.27 66.00 148.76 66.00 148.00 C 67.66 148.00 69.33 148.00 71.00 148.00 C 71.00 147.55 71.00 146.65 71.00 146.20 C 73.12 146.38 74.73 145.19 75.95 143.57 C 76.11 141.91 75.96 140.24 75.89 138.59 C 75.69 137.56 75.59 136.51 75.58 135.46 C 76.10 136.48 76.61 137.52 76.81 138.67 C 77.17 139.13 77.90 140.06 78.27 140.52 C 79.09 140.33 80.75 139.95 81.57 139.76 C 83.67 138.90 82.79 136.15 83.38 134.42 C 82.33 133.41 81.19 132.40 80.94 130.88 C 82.35 131.89 83.77 133.10 84.22 134.86 C 85.07 136.16 86.54 137.27 86.28 139.02 L 87.00 139.00 C 86.88 137.00 86.98 135.00 87.01 133.00 C 90.17 133.00 93.33 133.05 96.49 132.88 C 95.73 131.00 94.30 129.50 92.46 128.66 C 91.49 128.21 90.52 127.74 89.57 127.25 C 88.57 127.00 87.58 126.72 86.59 126.43 C 84.95 125.34 83.38 124.15 81.59 123.31 C 79.68 122.29 78.17 120.71 76.43 119.46 C 73.99 118.70 71.43 119.19 68.93 119.13 C 68.45 119.58 67.51 120.48 67.03 120.93 C 66.02 120.21 65.01 119.48 64.01 118.75 C 64.36 118.06 65.06 116.68 65.41 115.99 C 66.94 116.00 68.48 116.00 70.01 116.00 L 70.00 115.24 C 68.50 114.82 67.07 113.68 65.45 114.04 M 75.18 146.19 L 75.19 146.82 L 75.82 146.81 L 75.81 146.18 L 75.18 146.19 M 130.27 161.17 C 129.67 162.62 129.00 164.04 128.36 165.47 C 127.34 167.10 125.99 168.50 125.12 170.21 C 124.89 172.11 125.01 174.03 125.00 175.93 C 123.15 175.97 121.30 176.08 119.45 176.23 C 118.65 175.87 117.84 175.53 117.04 175.19 L 116.99 174.44 C 116.00 174.71 115.00 174.97 113.99 175.22 C 113.62 177.88 115.33 181.74 112.01 182.97 C 111.46 182.45 110.34 181.41 109.78 180.89 C 109.69 183.16 111.19 184.80 112.37 186.56 C 112.60 187.13 113.07 188.29 113.30 188.86 C 111.03 188.97 108.75 189.04 106.53 189.57 C 106.15 189.18 105.38 188.39 105.00 188.00 C 103.03 188.00 101.06 188.00 99.09 188.00 C 99.07 189.21 99.01 190.42 98.90 191.62 C 97.30 193.97 94.39 194.17 91.82 194.13 C 91.88 196.17 92.45 198.12 93.21 200.00 C 94.45 200.00 95.70 200.00 96.95 200.00 C 97.22 197.93 96.31 195.33 98.10 193.78 C 99.72 196.19 98.77 199.28 99.01 202.00 C 97.33 202.00 95.67 202.00 94.00 202.00 L 94.00 202.98 C 96.51 203.06 99.12 202.68 101.53 203.57 C 103.42 204.10 104.95 205.34 106.60 206.33 C 108.26 209.56 111.54 211.48 113.64 214.37 C 114.27 216.21 114.81 218.15 116.02 219.73 C 115.96 217.81 115.96 215.90 116.04 214.00 C 116.85 212.48 117.95 211.14 118.71 209.60 C 121.78 204.54 125.34 199.71 129.76 195.75 C 135.75 191.09 141.34 185.90 147.61 181.59 C 148.22 180.27 149.22 179.25 150.52 178.60 C 155.43 177.50 158.87 173.41 163.35 171.32 C 161.88 170.39 160.22 169.88 158.58 169.36 C 156.92 168.32 155.35 167.16 153.59 166.29 C 150.30 164.70 147.85 161.85 144.56 160.30 C 142.68 159.28 141.19 157.73 139.46 156.49 C 135.48 154.73 134.47 161.97 130.27 161.17 Z" />
<path fill="#000000" opacity="1.00" d=" M 115.19 24.34 C 119.76 23.63 124.31 24.95 128.86 25.21 C 132.24 27.25 136.91 28.36 138.74 32.14 C 134.50 33.66 130.89 29.25 127.02 28.07 C 120.66 25.01 113.06 28.62 106.88 25.37 C 109.65 25.01 112.43 24.78 115.19 24.34 Z" />
<path fill="#000000" opacity="1.00" d=" M 112.57 33.29 C 118.03 33.10 123.55 33.73 128.86 35.02 C 128.53 35.30 127.88 35.85 127.55 36.12 C 127.98 38.14 128.03 40.20 128.19 42.25 C 126.62 43.00 125.04 43.75 123.43 44.44 C 119.62 46.24 115.91 44.28 113.03 41.78 C 113.03 38.94 112.80 36.12 112.57 33.29 M 123.44 35.98 C 121.56 37.07 122.03 39.22 121.90 41.04 C 119.38 41.02 116.74 41.27 114.49 39.90 C 114.99 42.03 116.90 43.14 118.66 44.12 C 119.95 43.97 121.25 43.80 122.51 43.45 C 125.00 42.79 128.26 41.69 127.05 38.36 C 125.91 37.53 125.12 35.61 123.44 35.98 Z" />
<path fill="#000000" opacity="1.00" d=" M 101.03 146.00 L 102.00 146.00 C 102.00 147.99 102.00 149.99 102.00 151.98 C 101.20 151.99 99.59 152.01 98.79 152.02 C 99.52 150.84 100.22 149.64 100.95 148.46 C 100.97 147.84 101.01 146.61 101.03 146.00 Z" />
<path fill="#000000" opacity="1.00" d=" M 114.13 160.55 C 114.70 159.35 115.16 157.11 116.71 157.04 C 116.72 157.40 116.76 158.12 116.77 158.48 L 116.71 159.50 C 116.72 160.61 114.57 162.07 114.13 160.55 Z" />
<path fill="#000000" opacity="1.00" d=" M 81.18 161.18 L 81.81 161.18 L 81.81 161.81 L 81.17 161.81 L 81.18 161.18 Z" />
<path fill="#000000" opacity="1.00" d=" M 98.26 161.72 C 98.53 161.97 99.06 162.46 99.33 162.71 C 100.84 163.48 102.62 163.90 103.77 165.23 C 103.89 166.44 102.28 166.90 101.50 167.46 C 100.27 168.18 98.99 168.85 97.58 169.11 C 98.44 167.19 101.16 167.15 101.86 165.24 C 101.07 164.80 100.28 164.37 99.48 163.98 C 98.63 165.27 97.78 166.56 96.75 167.71 C 97.04 165.65 98.17 163.83 98.26 161.72 Z" />
<path fill="#000000" opacity="1.00" d=" M 51.07 169.68 C 52.98 171.24 54.67 173.05 56.28 174.91 C 55.60 174.81 54.24 174.61 53.57 174.51 C 53.40 173.87 53.08 172.59 52.91 171.94 L 51.55 172.58 C 51.43 171.86 51.19 170.41 51.07 169.68 Z" />
<path fill="#000000" opacity="1.00" d=" M 71.90 171.91 C 72.42 171.94 73.47 172.02 74.00 172.05 C 74.00 173.71 74.00 175.38 74.00 177.05 C 72.51 177.01 71.02 176.95 69.53 176.88 C 70.25 175.57 70.74 173.93 72.06 173.09 C 71.72 174.21 71.77 175.29 72.22 176.32 C 73.46 174.89 73.35 173.42 71.90 171.91 Z" />
<path fill="#000000" opacity="1.00" d=" M 85.90 176.38 C 86.81 177.36 87.69 178.38 88.34 179.56 C 88.87 180.63 89.41 181.69 90.00 182.74 C 88.99 183.14 87.99 183.57 87.00 184.03 C 86.98 182.92 86.95 181.82 86.92 180.71 C 86.11 179.39 85.77 177.95 85.90 176.38 Z" />
</g>
</svg>
