<?xml version="1.0" encoding="UTF-8" ?>
<!DOCTYPE svg PUBLIC "-//W3C//DTD SVG 1.1//EN" "http://www.w3.org/Graphics/SVG/1.1/DTD/svg11.dtd">
<svg width="210pt" height="220pt" viewBox="0 0 210 220" version="1.1" xmlns="http://www.w3.org/2000/svg">
<g id="#030304fe">
<path fill="#030304" opacity="1.00" d=" M 102.09 2.21 C 106.67 1.24 111.35 0.16 116.06 0.71 C 118.40 0.91 120.99 2.16 122.98 0.23 C 127.43 0.96 132.04 1.76 135.87 4.31 C 140.23 7.07 145.35 8.09 150.11 9.87 C 154.67 13.21 158.08 17.90 162.56 21.39 C 166.14 24.10 169.66 26.99 172.33 30.64 C 177.03 37.00 182.95 42.66 185.95 50.11 C 188.39 56.41 191.43 62.55 192.58 69.26 C 193.20 72.69 195.41 75.59 196.02 79.04 C 197.22 86.46 195.86 93.98 194.26 101.23 C 194.10 101.34 193.78 101.56 193.62 101.67 C 193.66 104.52 193.35 107.37 192.47 110.09 C 190.69 115.99 189.34 122.03 187.09 127.77 C 186.83 128.12 186.29 128.81 186.03 129.16 C 184.16 131.82 182.32 134.56 179.65 136.50 C 178.49 140.32 176.74 143.91 174.70 147.34 C 173.71 148.70 173.52 150.40 173.84 152.03 C 175.33 160.90 176.69 169.81 177.62 178.77 C 175.97 178.50 175.09 177.60 174.99 176.07 C 174.13 167.89 172.66 159.80 171.45 151.67 C 166.77 156.60 161.54 161.00 155.87 164.75 C 146.46 169.42 137.30 175.05 126.94 177.40 C 119.63 177.79 112.21 178.01 105.00 176.60 C 97.29 177.35 90.55 172.98 83.07 172.09 C 74.96 167.67 65.80 164.46 59.54 157.35 C 55.83 153.09 50.82 150.25 47.13 145.98 C 45.59 144.29 43.90 142.74 42.08 141.36 L 42.10 140.95 C 42.51 139.12 41.30 137.43 39.65 136.78 L 38.90 136.37 C 37.03 133.74 35.32 130.99 33.91 128.09 C 32.90 125.22 32.18 122.26 31.55 119.29 C 32.58 120.24 33.59 121.21 34.58 122.20 C 34.48 122.68 34.27 123.65 34.17 124.13 C 35.50 124.16 36.82 124.20 38.14 124.23 C 38.15 125.24 38.18 127.25 38.19 128.26 C 37.99 128.03 37.60 127.57 37.40 127.34 C 37.36 126.84 37.27 125.86 37.23 125.36 C 36.26 125.08 35.28 124.81 34.30 124.57 C 35.66 126.90 37.14 129.16 38.96 131.17 C 40.72 136.91 45.29 141.35 49.74 145.16 C 49.53 143.73 49.30 142.30 49.06 140.88 C 49.31 139.81 49.56 138.74 49.81 137.67 C 50.36 137.52 51.47 137.22 52.02 137.07 C 51.36 139.78 50.69 142.50 50.13 145.24 C 53.16 147.49 55.10 151.76 58.77 152.74 C 58.41 150.84 57.17 149.27 56.24 147.63 C 55.76 147.40 54.82 146.95 54.34 146.72 C 53.40 143.06 52.65 139.35 52.30 135.59 C 51.00 133.78 49.81 131.89 48.68 129.97 C 48.11 132.58 48.10 135.63 45.74 137.40 C 45.65 134.68 45.66 131.97 45.73 129.26 C 44.98 129.48 44.23 129.70 43.47 129.91 C 42.63 127.47 42.25 124.91 42.28 122.33 C 41.70 122.44 40.52 122.64 39.94 122.74 C 36.61 119.20 38.17 113.94 35.55 110.07 C 35.11 109.28 34.59 108.54 34.15 107.76 C 34.04 107.23 33.80 106.16 33.68 105.63 C 33.43 103.97 32.92 102.37 32.39 100.79 C 33.15 98.13 35.17 96.52 37.75 95.73 C 37.49 96.39 36.96 97.70 36.70 98.36 C 36.47 101.00 36.51 103.64 36.48 106.28 C 43.64 109.99 49.13 116.47 52.34 123.80 C 53.21 125.32 54.15 126.80 55.10 128.28 C 55.56 132.29 56.46 136.24 56.67 140.28 C 56.80 139.39 57.06 137.60 57.19 136.71 C 57.61 140.71 60.10 144.23 59.59 148.39 C 60.92 150.11 62.32 151.78 63.75 153.42 C 61.64 152.84 59.63 153.11 58.24 155.00 C 59.09 155.12 60.79 155.36 61.64 155.47 C 62.06 156.47 62.48 157.47 62.90 158.47 C 63.52 158.38 64.78 158.21 65.41 158.12 C 65.46 159.23 65.51 160.34 65.57 161.45 C 67.02 161.68 68.46 161.90 69.91 162.13 C 71.39 164.37 74.04 165.11 76.35 166.16 C 76.74 166.32 77.54 166.64 77.93 166.80 C 79.54 167.57 81.18 168.25 82.83 168.94 C 85.89 170.96 89.74 170.96 93.06 172.43 C 97.15 174.21 101.61 174.50 106.01 174.48 C 113.23 176.04 120.74 175.67 127.99 174.47 C 136.56 172.64 144.11 168.01 151.82 164.09 C 163.51 157.96 172.61 147.58 177.95 135.60 C 181.64 131.51 184.49 126.71 186.15 121.44 C 187.95 114.96 191.46 108.78 190.82 101.84 C 193.42 96.64 193.64 90.55 192.99 84.88 C 192.08 72.57 187.53 60.94 183.23 49.50 C 180.37 44.86 177.49 40.16 173.70 36.22 C 170.04 32.25 167.35 27.30 162.72 24.32 C 156.83 20.28 152.78 13.75 145.98 11.05 C 140.09 8.99 134.45 6.29 128.76 3.74 C 127.44 3.60 126.12 3.47 124.80 3.34 C 124.45 3.57 123.75 4.03 123.40 4.26 C 121.73 3.77 119.98 3.43 118.27 3.94 C 114.29 5.03 110.05 3.78 106.13 5.17 C 103.93 5.86 102.50 4.18 102.09 2.21 Z" />
<path fill="#030304" opacity="1.00" d=" M 90.05 4.39 C 94.06 3.99 97.87 2.52 101.89 2.13 C 101.62 4.94 99.04 5.33 96.79 5.78 C 92.99 6.65 89.19 7.58 85.50 8.84 C 75.29 13.13 63.96 16.43 56.69 25.38 C 56.15 25.48 55.09 25.67 54.55 25.77 C 54.54 26.23 54.52 27.16 54.51 27.62 C 52.66 29.73 51.00 31.98 49.29 34.20 C 48.84 34.78 48.39 35.36 47.94 35.94 C 48.42 37.32 48.90 38.70 49.32 40.10 C 49.26 40.73 49.15 41.99 49.09 42.62 C 50.75 41.30 52.42 39.99 54.18 38.80 C 53.47 39.63 52.75 40.44 52.02 41.24 C 51.23 42.08 50.50 42.98 49.84 43.92 C 49.53 44.39 48.91 45.31 48.60 45.77 C 47.83 46.01 47.06 46.24 46.30 46.48 C 45.51 45.90 44.71 45.32 43.92 44.74 C 45.45 42.60 46.82 40.35 47.93 37.97 C 43.16 40.50 40.43 45.37 37.81 49.88 C 36.42 52.17 36.01 54.84 35.91 57.48 C 37.56 55.25 39.00 52.88 40.40 50.49 C 40.83 50.48 41.70 50.46 42.13 50.45 C 41.76 51.02 41.01 52.16 40.63 52.74 C 39.39 54.66 38.28 56.66 37.15 58.66 C 36.13 58.42 35.10 58.19 34.07 57.95 C 34.14 61.10 32.79 63.84 30.94 66.29 C 31.56 67.17 32.23 68.01 32.95 68.81 C 32.87 69.05 32.71 69.53 32.63 69.77 C 31.82 69.95 30.19 70.32 29.38 70.50 C 28.84 74.80 29.53 79.12 30.83 83.23 C 30.29 83.76 29.74 84.30 29.20 84.84 C 29.32 86.98 29.42 89.12 29.51 91.27 C 30.08 91.55 31.21 92.11 31.77 92.39 C 30.79 94.89 30.24 97.52 30.34 100.22 C 29.28 99.33 28.22 98.44 27.15 97.57 C 27.67 98.38 28.19 99.19 28.72 100.01 C 28.00 105.35 29.55 110.56 31.87 115.33 C 32.05 116.81 32.18 118.29 32.29 119.78 C 31.19 117.93 30.11 116.07 29.08 114.19 C 28.92 113.89 28.61 113.28 28.45 112.98 C 25.77 106.99 26.53 100.33 25.60 93.99 C 25.11 89.97 25.03 85.91 25.26 81.87 L 25.36 81.44 C 26.94 76.29 27.70 70.94 29.12 65.75 C 30.51 62.99 32.38 60.39 32.76 57.23 C 34.48 53.62 34.29 49.22 37.14 46.17 C 41.50 41.14 46.36 36.35 49.25 30.27 C 51.35 25.44 54.74 21.02 59.33 18.35 C 65.52 14.89 71.84 11.65 78.48 9.14 C 82.43 7.75 85.74 4.66 90.05 4.39 M 26.31 84.93 C 26.35 86.97 25.87 89.56 27.79 90.92 C 28.82 87.92 28.31 84.68 28.25 81.58 C 26.89 82.22 26.15 83.43 26.31 84.93 Z" />
<path fill="#030304" opacity="1.00" d=" M 58.98 42.21 C 57.08 41.18 60.32 40.33 61.20 40.51 L 61.82 40.70 C 61.22 41.87 60.28 42.38 58.98 42.21 Z" />
<path fill="#030304" opacity="1.00" d=" M 35.36 62.25 C 35.86 62.76 35.86 62.76 35.36 62.25 Z" />
<path fill="#030304" opacity="1.00" d=" M 34.31 65.27 C 34.66 65.54 35.37 66.06 35.72 66.33 L 35.41 67.12 C 35.14 66.66 34.59 65.73 34.31 65.27 Z" />
<path fill="#030304" opacity="1.00" d=" M 137.27 73.85 C 138.87 71.47 139.19 68.52 140.05 65.84 C 140.05 69.77 139.70 73.69 139.50 77.61 C 137.96 80.78 134.87 82.55 131.91 84.18 C 129.31 84.38 125.86 84.81 124.59 87.37 C 124.72 91.30 123.42 95.18 123.88 99.07 C 119.84 97.58 123.18 93.66 122.37 90.79 C 120.42 87.93 116.72 87.18 113.81 85.63 C 114.52 86.76 115.23 87.87 115.95 88.99 C 113.62 89.05 111.32 89.49 109.56 91.12 C 108.98 91.28 107.84 91.62 107.27 91.79 C 104.49 94.53 101.71 97.30 99.43 100.49 C 99.39 99.50 99.29 97.52 99.25 96.53 C 98.71 98.03 98.17 99.53 97.58 101.01 C 97.57 102.30 97.62 103.60 97.62 104.90 C 98.70 105.93 99.75 106.99 100.79 108.06 C 101.38 107.42 101.99 106.79 102.59 106.16 C 104.07 106.85 105.54 107.56 107.07 108.14 C 105.61 107.85 104.15 107.47 102.71 107.12 C 101.78 109.24 101.12 111.52 101.43 113.86 C 100.19 112.56 98.96 111.26 97.65 110.04 L 97.27 109.69 C 96.92 109.39 96.22 108.80 95.87 108.50 C 94.80 106.65 94.01 104.66 93.49 102.60 C 94.14 101.18 94.75 99.76 95.35 98.32 C 93.29 98.87 91.27 99.57 89.34 100.50 C 89.32 99.83 89.28 98.48 89.26 97.81 C 88.32 98.21 87.38 98.62 86.44 99.02 C 86.38 100.83 86.47 102.64 86.61 104.45 C 86.03 104.44 84.88 104.43 84.30 104.42 C 84.30 104.94 84.30 105.98 84.30 106.50 C 81.81 106.46 79.32 106.49 76.83 106.50 C 77.69 105.33 78.56 104.16 79.44 103.00 C 79.64 102.33 80.02 100.99 80.22 100.32 C 80.27 101.08 80.38 102.61 80.43 103.37 C 81.69 98.93 82.87 94.40 82.58 89.73 C 83.80 89.27 85.01 88.80 86.21 88.31 C 87.27 87.84 88.31 87.31 89.34 86.78 C 101.77 86.73 113.92 84.03 126.13 82.09 C 129.50 81.48 132.61 79.99 135.65 78.47 C 135.63 77.55 135.61 76.62 135.60 75.70 C 136.18 75.10 136.74 74.49 137.27 73.85 M 90.38 90.28 C 88.91 91.58 91.13 93.91 92.46 92.44 C 93.96 91.14 91.73 88.73 90.38 90.28 M 88.68 95.49 C 90.63 95.53 94.83 98.56 94.58 94.83 C 92.64 94.29 90.04 93.44 88.68 95.49 Z" />
<path fill="#030304" opacity="1.00" d=" M 37.53 71.33 C 37.59 72.62 37.63 73.92 37.64 75.21 C 37.64 76.03 37.63 77.67 37.63 78.49 C 38.71 79.73 39.77 80.98 40.87 82.20 C 41.13 82.41 41.64 82.82 41.89 83.03 C 43.25 84.33 45.09 84.68 46.87 84.97 L 46.78 85.51 C 45.66 89.08 44.71 92.72 44.55 96.48 C 44.00 94.60 43.41 92.72 42.97 90.81 C 42.87 89.84 42.66 87.89 42.55 86.92 C 41.57 87.25 40.59 87.58 39.61 87.91 C 39.62 87.33 39.63 86.16 39.64 85.58 C 38.23 83.71 37.04 81.69 35.93 79.64 C 35.43 78.76 34.92 77.88 34.40 77.01 C 35.44 75.12 36.34 73.14 37.53 71.33 Z" />
<path fill="#030304" opacity="1.00" d=" M 66.01 75.00 C 66.35 74.91 67.02 74.74 67.35 74.65 C 67.82 74.55 68.74 74.33 69.20 74.23 C 69.37 75.73 69.52 77.24 69.81 78.72 L 70.39 80.18 C 70.50 82.86 70.47 85.54 70.61 88.21 C 71.05 88.36 71.93 88.64 72.37 88.78 C 71.92 89.35 71.02 90.51 70.57 91.08 C 69.27 92.21 69.63 93.78 70.40 95.10 C 69.97 95.35 69.12 95.84 68.69 96.09 C 68.27 94.79 67.85 93.50 67.43 92.20 C 69.29 89.30 68.78 85.87 68.50 82.63 C 68.51 80.39 68.51 78.15 68.43 75.92 C 67.82 75.69 66.62 75.23 66.01 75.00 Z" />
<path fill="#030304" opacity="1.00" d=" M 62.91 89.11 C 63.24 89.14 63.91 89.21 64.24 89.25 C 64.44 92.27 65.60 95.06 66.69 97.84 C 64.60 101.95 65.91 106.48 66.43 110.80 C 66.49 111.42 66.63 112.67 66.70 113.29 C 65.62 114.97 64.26 116.86 65.02 118.98 C 65.90 120.69 67.46 121.92 68.68 123.38 L 68.72 124.07 C 68.88 124.72 69.18 126.01 69.34 126.66 C 67.22 129.63 69.56 132.69 71.05 135.27 C 71.21 134.60 71.38 133.94 71.54 133.28 C 75.02 132.03 75.90 128.36 76.80 125.19 C 77.92 123.57 78.72 121.76 79.50 119.96 C 79.51 119.29 79.55 117.95 79.56 117.27 C 80.81 116.50 82.06 115.73 83.32 114.99 C 83.35 115.97 83.41 117.94 83.43 118.93 C 80.63 119.57 81.47 122.58 81.15 124.68 C 82.64 124.19 84.13 123.68 85.67 123.34 C 88.55 123.36 91.40 123.03 94.19 122.29 C 96.48 121.72 98.79 122.09 101.06 122.59 C 102.61 125.36 104.81 127.65 106.73 130.15 C 109.28 133.29 108.03 137.65 109.96 141.07 C 109.68 142.55 109.41 144.04 109.12 145.52 C 107.69 141.77 106.65 137.89 106.04 133.93 C 104.65 130.61 102.05 127.91 99.70 125.24 C 97.01 122.55 93.18 124.52 89.92 124.38 C 86.98 124.29 84.34 125.73 82.03 127.39 C 80.87 127.46 79.72 127.52 78.57 127.58 C 77.31 130.18 76.65 133.00 75.71 135.72 C 75.45 135.96 74.93 136.45 74.67 136.70 C 74.64 137.30 74.57 138.50 74.54 139.10 C 74.90 138.68 75.62 137.84 75.98 137.42 C 76.24 137.35 76.77 137.22 77.04 137.15 C 79.20 137.22 76.40 139.51 76.25 140.50 L 74.91 141.15 C 74.68 141.15 74.23 141.14 74.01 141.14 C 72.79 138.47 70.46 136.78 67.68 136.01 C 66.27 134.06 66.07 131.70 66.30 129.37 C 64.42 128.65 62.45 128.28 60.45 128.11 C 59.34 132.78 61.95 136.82 64.30 140.58 C 65.62 145.09 69.49 148.07 71.40 152.26 C 73.09 155.56 72.32 159.38 72.22 162.92 C 71.79 160.63 71.80 158.28 71.42 155.98 C 69.63 151.75 65.61 148.94 63.65 144.79 C 61.89 140.79 59.39 137.16 58.02 132.98 C 58.37 131.06 58.65 129.13 59.06 127.23 L 60.07 126.51 C 62.42 126.26 64.80 126.47 67.16 126.56 C 65.71 124.66 64.16 122.77 63.36 120.49 C 62.73 118.77 62.05 117.04 60.94 115.57 C 61.30 111.19 60.50 106.86 57.48 103.52 C 56.02 103.39 54.57 103.24 53.12 103.09 C 54.18 102.27 55.26 101.47 56.36 100.70 L 58.02 100.00 C 58.66 99.08 59.46 98.21 60.10 97.24 C 61.20 94.59 61.93 91.80 62.91 89.11 Z" />
<path fill="#030304" opacity="1.00" d=" M 46.05 96.08 C 47.77 97.93 49.30 100.36 52.01 100.75 C 52.22 101.31 52.64 102.44 52.84 103.01 C 52.29 103.12 51.20 103.36 50.65 103.47 L 49.82 103.60 C 49.62 103.20 49.22 102.40 49.02 101.99 C 47.98 100.88 46.82 99.89 45.74 98.82 C 45.82 98.14 45.97 96.76 46.05 96.08 Z" />
<path fill="#030304" opacity="1.00" d=" M 110.24 100.68 C 110.35 99.27 110.85 97.99 112.00 97.10 C 112.39 97.94 113.19 99.64 113.58 100.49 C 112.47 100.58 111.36 100.64 110.24 100.68 Z" />
<path fill="#030304" opacity="1.00" d=" M 124.56 110.00 C 125.74 109.34 126.92 108.68 128.09 107.99 C 125.70 110.44 123.38 112.96 120.85 115.27 C 117.61 115.26 114.37 115.59 111.14 115.25 L 110.30 114.78 C 109.95 114.60 109.26 114.23 108.91 114.04 C 106.39 113.08 103.05 113.20 101.67 110.39 C 103.76 110.92 105.83 111.53 107.93 112.03 C 108.66 112.25 110.13 112.71 110.86 112.94 C 112.81 113.72 114.94 113.79 116.98 113.37 C 118.28 113.02 119.58 112.65 120.87 112.27 C 120.34 111.39 119.81 110.50 119.28 109.62 C 119.72 109.66 120.60 109.72 121.04 109.75 C 122.21 109.84 123.38 109.92 124.56 110.00 Z" />
<path fill="#030304" opacity="1.00" d=" M 87.35 111.11 C 88.05 111.04 89.46 110.89 90.16 110.82 L 90.88 111.39 C 91.25 114.30 87.15 113.61 87.35 111.11 Z" />
<path fill="#030304" opacity="1.00" d=" M 93.13 114.87 C 93.58 114.54 94.04 114.23 94.52 113.95 C 96.14 114.45 97.78 114.91 99.41 115.38 C 99.62 115.49 100.05 115.70 100.26 115.81 C 103.77 117.91 106.83 120.67 110.30 122.82 C 110.49 123.30 110.87 124.25 111.06 124.73 C 111.41 125.16 112.11 126.03 112.46 126.47 C 111.86 126.52 110.65 126.62 110.05 126.67 C 108.54 123.42 105.02 122.02 102.44 119.79 C 99.75 118.74 97.03 117.78 94.36 116.68 C 93.98 117.18 93.22 118.18 92.84 118.68 C 90.63 118.60 90.19 116.00 89.66 114.33 C 90.82 114.50 91.97 114.68 93.13 114.87 Z" />
<path fill="#030304" opacity="1.00" d=" M 54.92 122.53 C 55.80 120.33 57.26 118.43 58.86 116.70 L 59.19 118.27 C 59.28 118.75 59.46 119.69 59.55 120.17 C 59.47 120.65 59.31 121.60 59.24 122.08 C 58.67 123.06 58.06 124.01 57.46 124.97 C 56.78 125.99 56.09 127.00 55.39 128.01 C 54.77 126.79 54.15 125.57 53.52 124.35 C 53.87 123.89 54.57 122.99 54.92 122.53 Z" />
<path fill="#030304" opacity="1.00" d=" M 132.82 128.98 C 133.21 128.68 134.00 128.08 134.39 127.77 C 135.00 127.80 136.22 127.86 136.83 127.89 C 136.68 128.41 136.37 129.45 136.21 129.98 C 135.63 130.11 134.47 130.38 133.89 130.52 C 132.74 131.94 131.54 133.46 129.72 134.01 C 126.88 135.09 124.30 136.67 121.75 138.29 C 122.59 136.47 123.48 134.68 124.47 132.95 C 124.68 132.71 125.09 132.23 125.29 132.00 L 125.59 131.19 L 125.84 131.27 C 127.07 131.68 128.31 132.09 129.54 132.52 C 129.53 132.11 129.51 131.28 129.50 130.87 C 130.62 130.26 131.75 129.67 132.82 128.98 Z" />
<path fill="#030304" opacity="1.00" d=" M 86.11 129.80 C 90.21 128.87 95.77 132.64 93.86 137.14 C 93.80 136.54 93.67 135.35 93.61 134.75 C 91.69 134.96 90.78 133.43 89.87 132.08 C 88.61 131.33 87.36 130.56 86.11 129.80 Z" />
<path fill="#030304" opacity="1.00" d=" M 95.93 144.00 C 96.47 145.36 97.03 146.71 97.67 148.03 C 99.51 148.92 99.97 151.13 101.44 152.41 C 103.28 154.02 105.31 155.41 107.05 157.14 C 109.28 159.04 111.49 161.06 114.34 161.98 C 114.58 160.98 114.83 159.99 115.08 159.00 C 115.20 160.52 115.29 162.06 115.37 163.59 C 113.91 163.52 112.45 163.41 111.02 163.13 C 109.60 162.23 108.21 161.27 107.03 160.06 C 106.75 159.80 106.19 159.29 105.91 159.03 C 104.29 158.11 102.61 157.31 100.95 156.50 C 100.35 155.25 99.75 154.01 99.07 152.80 C 97.75 150.86 97.07 148.62 96.59 146.35 L 95.64 146.22 C 95.72 145.67 95.86 144.55 95.93 144.00 Z" />
<path fill="#030304" opacity="1.00" d=" M 78.23 159.03 C 78.76 156.49 79.15 153.93 79.77 151.42 C 81.59 155.41 80.08 159.71 79.58 163.81 C 78.51 163.70 77.44 163.59 76.37 163.48 C 77.06 162.03 77.84 160.60 78.23 159.03 Z" />
<path fill="#030304" opacity="1.00" d=" M 43.36 185.55 C 44.38 185.62 46.43 185.76 47.46 185.83 C 47.72 196.75 47.68 207.69 47.47 218.62 C 44.97 218.78 42.44 219.06 39.95 218.67 C 37.21 215.49 35.87 211.42 33.86 207.78 C 31.84 203.57 29.16 199.59 28.02 195.01 C 28.62 192.38 24.83 192.46 26.16 195.08 C 27.01 202.95 26.36 210.91 26.53 218.81 C 24.53 218.81 22.53 218.80 20.53 218.76 C 20.55 207.98 20.40 197.20 20.63 186.42 C 23.43 186.16 26.29 185.82 29.09 186.34 C 31.46 188.73 32.53 192.05 34.21 194.91 C 36.15 198.82 38.74 202.48 39.84 206.75 C 40.02 207.48 40.36 208.95 40.54 209.69 C 41.05 209.69 42.09 209.69 42.60 209.70 C 42.67 201.66 41.46 193.45 43.36 185.55 Z" />
<path fill="#030304" opacity="1.00" d=" M 56.87 190.70 C 61.80 184.59 71.13 183.93 77.89 187.11 C 83.54 191.20 85.27 198.57 84.12 205.18 C 84.25 205.31 84.49 205.57 84.61 205.70 C 83.92 209.18 82.75 212.72 80.34 215.40 C 78.25 217.46 75.35 218.40 72.82 219.78 L 74.55 220.00 L 74.41 220.00 C 69.84 219.21 65.16 219.16 60.65 218.05 C 59.67 217.57 58.74 216.99 57.93 216.26 C 52.70 208.78 52.93 198.69 56.87 190.70 M 66.40 190.50 C 62.12 191.34 59.94 196.05 60.09 200.07 C 60.12 204.27 59.50 209.14 62.54 212.53 C 64.70 215.25 68.56 214.64 71.61 214.46 C 75.64 213.89 77.42 209.55 78.10 206.04 C 78.60 201.65 78.55 196.74 75.88 193.01 C 73.71 190.11 69.67 189.94 66.40 190.50 Z" />
<path fill="#030304" opacity="1.00" d=" M 90.62 212.58 C 92.60 212.50 94.59 212.44 96.58 212.40 C 96.54 214.42 96.50 216.43 96.45 218.45 C 94.74 218.34 92.50 219.30 91.22 217.70 C 89.64 216.50 90.81 214.21 90.62 212.58 Z" />
</g>
<g id="#fefefeff">
<path fill="#fefefe" opacity="1.00" d=" M 118.27 3.94 C 119.98 3.43 121.73 3.77 123.40 4.26 C 123.75 4.03 124.45 3.57 124.80 3.34 C 126.12 3.47 127.44 3.60 128.76 3.74 C 134.45 6.29 140.09 8.99 145.98 11.05 C 152.78 13.75 156.83 20.28 162.72 24.32 C 167.35 27.30 170.04 32.25 173.70 36.22 C 177.49 40.16 180.37 44.86 183.23 49.50 C 187.53 60.94 192.08 72.57 192.99 84.88 C 193.64 90.55 193.42 96.64 190.82 101.84 C 191.46 108.78 187.95 114.96 186.15 121.44 C 184.49 126.71 181.64 131.51 177.95 135.60 C 172.61 147.58 163.51 157.96 151.82 164.09 C 144.11 168.01 136.56 172.64 127.99 174.47 C 120.74 175.67 113.23 176.04 106.01 174.48 C 101.61 174.50 97.15 174.21 93.06 172.43 C 89.74 170.96 85.89 170.96 82.83 168.94 C 81.18 168.25 79.54 167.57 77.93 166.80 C 77.54 166.64 76.74 166.32 76.35 166.16 C 74.04 165.11 71.39 164.37 69.91 162.13 C 67.84 159.24 65.91 156.25 63.75 153.42 C 62.32 151.78 60.92 150.11 59.59 148.39 C 60.10 144.23 57.61 140.71 57.19 136.71 C 57.43 135.46 57.70 134.21 58.02 132.98 C 59.39 137.16 61.89 140.79 63.65 144.79 C 65.61 148.94 69.63 151.75 71.42 155.98 C 71.80 158.28 71.79 160.63 72.22 162.92 C 72.32 159.38 73.09 155.56 71.40 152.26 C 69.49 148.07 65.62 145.09 64.30 140.58 C 61.95 136.82 59.34 132.78 60.45 128.11 C 62.45 128.28 64.42 128.65 66.30 129.37 C 66.07 131.70 66.27 134.06 67.68 136.01 C 70.46 136.78 72.79 138.47 74.01 141.14 C 75.28 143.07 76.87 144.76 78.43 146.47 C 78.25 150.65 78.57 154.85 78.23 159.03 C 77.84 160.60 77.06 162.03 76.37 163.48 C 76.35 164.17 76.34 164.86 76.33 165.56 C 78.05 165.55 79.77 165.56 81.49 165.59 C 81.23 162.73 80.73 159.70 82.25 157.09 C 81.00 152.53 80.33 147.60 77.31 143.78 C 77.93 142.99 78.56 142.20 79.19 141.41 C 78.12 141.34 75.98 141.22 74.91 141.15 L 76.25 140.50 C 76.40 139.51 79.20 137.22 77.04 137.15 C 76.77 137.22 76.24 137.35 75.98 137.42 C 75.62 137.84 74.90 138.68 74.54 139.10 C 74.57 138.50 74.64 137.30 74.67 136.70 C 74.93 136.45 75.45 135.96 75.71 135.72 C 76.65 133.00 77.31 130.18 78.57 127.58 C 79.72 127.52 80.87 127.46 82.03 127.39 C 84.34 125.73 86.98 124.29 89.92 124.38 C 93.18 124.52 97.01 122.55 99.70 125.24 C 102.05 127.91 104.65 130.61 106.04 133.93 C 106.65 137.89 107.69 141.77 109.12 145.52 C 110.80 149.29 110.64 153.76 113.17 157.15 C 111.00 151.98 112.14 146.20 109.96 141.07 C 108.03 137.65 109.28 133.29 106.73 130.15 C 104.81 127.65 102.61 125.36 101.06 122.59 C 98.79 122.09 96.48 121.72 94.19 122.29 C 92.35 122.39 88.90 122.80 90.62 119.85 C 94.53 119.23 98.51 119.42 102.44 119.79 C 105.02 122.02 108.54 123.42 110.05 126.67 C 111.74 129.97 113.91 133.16 114.11 137.00 C 114.06 139.21 115.99 140.35 117.60 141.43 C 116.86 136.17 116.83 130.23 112.46 126.47 C 112.11 126.03 111.41 125.16 111.06 124.73 C 110.87 124.25 110.49 123.30 110.30 122.82 C 106.83 120.67 103.77 117.91 100.26 115.81 C 100.05 115.70 99.62 115.49 99.41 115.38 C 98.25 114.14 94.30 113.31 96.20 111.18 C 96.56 110.89 97.29 110.32 97.65 110.04 C 98.96 111.26 100.19 112.56 101.43 113.86 C 101.58 114.02 101.89 114.33 102.05 114.49 C 104.80 114.51 107.56 114.45 110.30 114.78 L 111.14 115.25 C 114.37 115.59 117.61 115.26 120.85 115.27 C 123.38 112.96 125.70 110.44 128.09 107.99 C 130.17 106.79 132.02 105.23 131.82 102.56 C 132.01 103.14 132.38 104.30 132.57 104.88 C 134.72 103.30 136.75 101.51 139.13 100.28 C 141.04 99.60 141.96 101.80 143.14 102.83 C 144.04 108.73 144.64 114.62 144.81 120.59 C 145.86 114.52 145.93 108.20 144.75 102.14 C 144.34 99.50 141.54 97.73 138.96 98.24 C 134.89 99.04 131.25 101.19 127.36 102.58 C 126.57 103.85 125.79 105.12 124.96 106.36 L 123.74 106.33 C 124.02 103.92 124.32 101.48 123.88 99.07 C 123.42 95.18 124.72 91.30 124.59 87.37 C 125.86 84.81 129.31 84.38 131.91 84.18 C 134.87 82.55 137.96 80.78 139.50 77.61 L 140.27 76.29 C 140.93 67.74 143.35 58.23 138.59 50.39 C 138.89 52.91 139.85 55.40 139.42 57.96 C 138.55 63.24 138.42 68.61 137.27 73.85 C 136.74 74.49 136.18 75.10 135.60 75.70 C 133.06 78.47 129.86 80.84 125.99 81.16 C 119.64 81.89 113.41 83.52 107.03 83.95 C 101.11 84.60 94.72 83.69 89.34 86.78 C 88.31 87.31 87.27 87.84 86.21 88.31 C 82.64 87.39 79.04 87.96 75.85 89.75 C 74.69 89.44 73.53 89.12 72.37 88.78 C 71.93 88.64 71.05 88.36 70.61 88.21 C 70.47 85.54 70.50 82.86 70.39 80.18 C 70.52 76.16 69.97 72.09 70.63 68.11 C 71.70 64.75 73.44 61.66 74.51 58.30 C 70.16 59.58 69.21 64.62 66.67 67.83 C 64.51 67.25 62.40 66.50 60.39 65.51 C 60.37 66.01 60.34 67.01 60.33 67.51 C 60.98 67.47 62.29 67.39 62.94 67.34 C 65.37 69.13 67.09 71.56 67.35 74.65 C 67.02 74.74 66.35 74.91 66.01 75.00 C 66.62 75.23 67.82 75.69 68.43 75.92 C 68.51 78.15 68.51 80.39 68.50 82.63 C 68.40 85.00 68.22 87.37 68.06 89.74 C 65.36 88.46 62.81 86.89 60.08 85.69 C 54.27 83.40 47.91 84.19 41.89 83.03 C 41.64 82.82 41.13 82.41 40.87 82.20 C 39.77 80.98 38.71 79.73 37.63 78.49 C 37.63 77.67 37.64 76.03 37.64 75.21 C 38.77 73.42 39.89 71.62 41.08 69.87 C 41.35 68.43 41.61 66.99 41.89 65.56 C 41.59 65.62 40.98 65.75 40.68 65.81 C 40.63 66.38 40.53 67.50 40.48 68.07 C 39.48 69.14 38.47 70.21 37.53 71.33 C 36.34 73.14 35.44 75.12 34.40 77.01 C 34.92 77.88 35.43 78.76 35.93 79.64 C 35.38 82.72 35.64 85.84 36.60 88.82 C 37.28 88.03 37.95 87.23 38.62 86.43 C 38.83 87.91 38.99 89.40 39.26 90.87 C 39.40 91.17 39.69 91.76 39.84 92.05 C 40.15 92.68 40.76 93.92 41.07 94.54 C 40.97 95.17 40.77 96.45 40.66 97.08 C 39.97 96.64 38.59 95.76 37.90 95.32 C 36.17 95.57 34.44 95.83 32.72 96.09 C 32.72 94.72 32.73 93.36 32.68 92.00 L 31.81 91.24 C 31.43 90.90 30.66 90.23 30.27 89.89 C 30.43 89.26 30.74 88.00 30.90 87.37 C 34.37 85.60 33.25 81.45 33.67 78.28 C 33.23 78.26 32.35 78.23 31.91 78.22 C 31.77 79.07 31.48 80.76 31.34 81.61 C 31.35 79.30 31.41 76.95 32.22 74.76 C 32.36 73.10 32.46 71.43 32.63 69.77 C 32.71 69.53 32.87 69.05 32.95 68.81 C 33.70 68.74 35.20 68.59 35.95 68.51 L 35.41 67.12 L 35.72 66.33 C 37.53 61.86 39.62 57.48 40.63 52.74 C 41.01 52.16 41.76 51.02 42.13 50.45 C 42.73 50.44 43.92 50.41 44.52 50.40 C 44.98 49.95 45.91 49.04 46.38 48.58 C 46.62 49.97 46.86 51.35 47.10 52.73 C 48.00 51.96 48.90 51.18 49.79 50.40 C 53.81 50.25 57.68 51.32 61.34 52.91 C 59.48 50.63 57.61 48.11 54.79 46.97 C 53.45 47.03 52.15 47.34 50.84 47.57 C 50.49 46.36 50.14 45.15 49.84 43.92 C 50.50 42.98 51.23 42.08 52.02 41.24 C 52.51 42.42 53.01 43.60 53.50 44.78 C 57.93 41.79 63.33 43.25 68.01 44.74 C 67.79 41.58 64.07 41.69 61.82 40.70 L 61.20 40.51 C 59.30 39.99 57.38 40.45 55.53 40.91 C 54.86 39.57 54.18 38.24 53.48 36.91 C 53.58 36.45 53.78 35.52 53.88 35.06 C 53.28 34.10 52.72 33.13 52.19 32.13 C 53.48 29.75 55.15 27.61 56.69 25.38 C 63.96 16.43 75.29 13.13 85.50 8.84 C 89.19 7.58 92.99 6.65 96.79 5.78 C 99.89 5.38 103.12 6.07 106.13 5.17 C 110.05 3.78 114.29 5.03 118.27 3.94 M 123.26 19.57 C 122.66 19.60 121.46 19.66 120.86 19.69 C 119.29 20.56 117.67 21.33 115.97 21.94 C 115.01 22.40 114.05 22.87 113.10 23.34 C 107.46 24.57 101.76 25.99 95.94 25.58 C 90.62 25.27 85.27 27.66 80.03 26.01 C 76.11 25.03 72.06 25.75 68.20 26.60 C 68.24 26.86 68.32 27.36 68.36 27.62 C 71.41 26.46 74.67 26.27 77.90 26.49 C 79.33 28.42 81.68 29.38 84.05 28.83 C 91.14 27.77 98.44 29.13 105.41 27.24 C 110.13 24.75 115.35 23.47 120.12 21.07 C 121.51 20.71 122.91 20.41 124.32 20.11 C 124.35 19.60 124.42 18.57 124.46 18.06 C 124.16 18.44 123.56 19.20 123.26 19.57 M 101.70 34.89 C 92.99 34.76 85.14 39.23 79.23 45.33 C 79.68 45.32 80.58 45.31 81.03 45.30 C 82.04 44.15 83.06 43.02 84.09 41.89 C 85.91 41.64 87.62 40.98 89.21 40.06 C 92.44 38.22 96.26 38.04 99.71 36.89 C 103.04 36.90 106.36 36.66 109.69 36.42 C 109.66 35.91 109.60 34.91 109.58 34.41 C 106.95 34.52 104.32 34.67 101.70 34.89 M 91.87 47.76 C 93.45 47.41 95.01 47.01 96.57 46.59 C 96.58 45.97 96.58 44.73 96.59 44.11 C 94.62 44.79 92.81 45.81 91.87 47.76 M 86.45 47.99 C 85.36 48.50 84.37 50.75 85.90 51.30 C 87.88 51.55 89.09 47.07 86.45 47.99 M 151.98 55.79 C 150.11 60.87 143.51 63.26 143.10 69.02 C 144.09 73.33 147.17 76.88 150.36 79.80 C 152.56 81.86 154.04 84.74 156.91 86.01 C 153.35 81.83 150.27 77.27 147.03 72.85 C 144.66 68.69 147.57 64.66 150.19 61.52 C 150.20 59.49 151.58 58.16 153.04 56.95 C 153.12 56.66 153.27 56.08 153.35 55.79 C 153.00 55.79 152.32 55.79 151.98 55.79 M 134.39 127.77 C 134.00 128.08 133.21 128.68 132.82 128.98 C 130.32 129.14 127.99 130.03 125.84 131.27 L 125.59 131.19 L 125.29 132.00 C 125.09 132.23 124.68 132.71 124.47 132.95 C 121.66 133.97 120.93 137.26 119.29 139.47 C 119.38 139.95 119.55 140.90 119.63 141.37 C 120.49 141.41 122.20 141.50 123.06 141.54 C 122.17 142.42 121.26 143.29 120.37 144.17 C 120.93 145.70 121.46 147.24 122.00 148.79 C 121.44 149.45 120.89 150.12 120.34 150.78 C 121.03 152.59 121.53 154.47 121.85 156.38 C 122.37 156.53 123.41 156.85 123.93 157.01 C 121.75 148.85 126.26 141.11 129.72 134.01 C 131.54 133.46 132.74 131.94 133.89 130.52 C 134.47 130.38 135.63 130.11 136.21 129.98 C 137.95 129.38 139.71 128.82 141.35 127.97 C 140.31 125.05 136.47 127.31 134.39 127.77 M 86.11 129.80 C 87.36 130.56 88.61 131.33 89.87 132.08 C 90.78 133.43 91.69 134.96 93.61 134.75 C 93.67 135.35 93.80 136.54 93.86 137.14 C 95.77 132.64 90.21 128.87 86.11 129.80 M 95.93 144.00 C 95.86 144.55 95.72 145.67 95.64 146.22 L 96.59 146.35 C 97.07 148.62 97.75 150.86 99.07 152.80 C 99.48 155.15 100.11 157.44 100.88 159.70 C 101.58 159.56 102.97 159.28 103.67 159.14 C 103.72 159.91 103.80 161.44 103.84 162.21 C 104.66 162.33 105.49 162.45 106.31 162.57 C 106.49 161.94 106.85 160.69 107.03 160.06 C 108.21 161.27 109.60 162.23 111.02 163.13 C 112.45 163.41 113.91 163.52 115.37 163.59 C 115.29 162.06 115.20 160.52 115.08 159.00 C 114.83 159.99 114.58 160.98 114.34 161.98 C 111.49 161.06 109.28 159.04 107.05 157.14 C 105.31 155.41 103.28 154.02 101.44 152.41 C 99.97 151.13 99.51 148.92 97.67 148.03 C 97.03 146.71 96.47 145.36 95.93 144.00 Z" />
<path fill="#fefefe" opacity="1.00" d=" M 46.92 87.19 C 47.44 86.77 48.46 85.95 48.97 85.54 C 53.72 86.26 58.58 86.87 62.91 89.11 C 61.93 91.80 61.20 94.59 60.10 97.24 C 59.54 97.19 58.44 97.10 57.88 97.06 L 57.68 96.59 C 58.09 96.13 58.92 95.22 59.33 94.77 C 59.43 93.20 59.48 91.61 59.29 90.05 C 57.13 88.43 53.84 87.79 52.12 90.43 C 52.85 91.22 53.59 92.00 54.34 92.78 L 54.65 91.24 L 55.08 91.58 C 55.12 92.07 55.18 93.05 55.22 93.54 C 54.08 93.20 52.94 92.88 51.80 92.58 C 52.56 94.67 54.18 96.01 56.26 96.66 L 55.87 97.03 C 50.01 99.55 46.68 91.94 46.92 87.19 Z" />
<path fill="#fefefe" opacity="1.00" d=" M 70.57 91.08 C 73.98 91.56 77.43 91.49 80.71 90.36 C 81.54 93.68 81.14 97.07 80.22 100.32 C 80.02 100.99 79.64 102.33 79.44 103.00 C 78.56 104.16 77.69 105.33 76.83 106.50 C 79.32 106.49 81.81 106.46 84.30 106.50 C 84.30 105.98 84.30 104.94 84.30 104.42 C 84.88 104.43 86.03 104.44 86.61 104.45 C 86.47 102.64 86.38 100.83 86.44 99.02 C 87.32 100.17 87.60 101.56 87.74 102.96 C 89.54 103.81 90.11 105.80 90.95 107.44 C 92.20 107.34 93.45 107.26 94.71 107.18 C 94.55 108.11 94.24 109.99 94.08 110.92 L 93.62 111.61 C 92.94 111.56 91.57 111.45 90.88 111.39 L 90.16 110.82 C 88.72 110.51 87.25 110.40 85.78 110.26 C 84.70 109.97 83.62 109.67 82.53 109.38 C 82.47 110.42 82.41 111.46 82.35 112.51 C 83.66 112.42 84.98 112.33 86.30 112.23 C 87.17 112.93 88.04 113.63 88.92 114.32 C 88.39 117.01 89.46 122.19 85.30 121.75 C 85.39 122.15 85.58 122.94 85.67 123.34 C 84.13 123.68 82.64 124.19 81.15 124.68 C 81.47 122.58 80.63 119.57 83.43 118.93 C 83.41 117.94 83.35 115.97 83.32 114.99 C 82.06 115.73 80.81 116.50 79.56 117.27 C 79.55 117.95 79.51 119.29 79.50 119.96 C 78.72 121.76 77.92 123.57 76.80 125.19 C 75.90 128.36 75.02 132.03 71.54 133.28 C 71.38 133.94 71.21 134.60 71.05 135.27 C 69.56 132.69 67.22 129.63 69.34 126.66 C 69.18 126.01 68.88 124.72 68.72 124.07 L 68.68 123.38 C 68.65 120.48 68.62 117.57 68.46 114.66 C 68.75 114.24 69.34 113.38 69.63 112.96 C 68.56 112.24 67.49 111.51 66.43 110.80 C 65.91 106.48 64.60 101.95 66.69 97.84 C 67.83 97.70 70.10 97.42 71.24 97.28 C 70.14 98.57 69.03 99.86 67.93 101.14 C 69.38 102.09 70.82 103.03 72.27 103.98 C 72.48 105.06 72.68 106.14 72.89 107.22 C 73.30 107.38 74.11 107.70 74.52 107.86 C 74.14 107.43 73.38 106.55 73.01 106.11 C 73.39 105.61 74.16 104.60 74.54 104.09 C 73.25 102.35 71.98 100.61 70.72 98.85 C 71.43 98.41 72.86 97.52 73.57 97.07 C 72.51 96.42 71.44 95.78 70.40 95.10 C 69.63 93.78 69.27 92.21 70.57 91.08 M 73.47 111.09 C 72.86 112.74 73.36 113.31 74.98 112.82 C 75.60 111.17 75.10 110.60 73.47 111.09 Z" />
<path fill="#fefefe" opacity="1.00" d=" M 109.56 91.12 C 113.59 89.04 119.76 90.34 121.01 95.15 C 121.72 99.46 119.79 103.85 117.40 107.35 C 114.32 109.16 110.45 108.58 107.07 108.14 C 105.54 107.56 104.07 106.85 102.59 106.16 C 101.99 106.79 101.38 107.42 100.79 108.06 C 99.75 106.99 98.70 105.93 97.62 104.90 C 97.62 103.60 97.57 102.30 97.58 101.01 C 98.17 99.53 98.71 98.03 99.25 96.53 C 99.29 97.52 99.39 99.50 99.43 100.49 C 101.71 97.30 104.49 94.53 107.27 91.79 C 107.84 91.62 108.98 91.28 109.56 91.12 M 109.74 94.50 C 107.96 95.99 107.73 98.32 107.64 100.48 C 108.93 101.81 110.12 103.30 111.72 104.28 C 113.67 105.09 115.02 103.17 116.47 102.23 C 116.45 100.45 116.45 98.67 116.46 96.89 C 115.40 96.12 114.35 95.33 113.31 94.53 C 112.12 94.48 110.93 94.39 109.74 94.50 Z" />
<path fill="#fefefe" opacity="1.00" d=" M 46.43 93.13 C 46.83 94.24 47.21 95.36 47.58 96.48 C 50.58 98.87 54.34 99.46 58.02 100.00 L 56.36 100.70 C 54.91 100.74 53.46 100.75 52.01 100.75 C 49.30 100.36 47.77 97.93 46.05 96.08 C 46.15 95.34 46.34 93.87 46.43 93.13 Z" />
<path fill="#fefefe" opacity="1.00" d=" M 108.41 96.97 C 110.05 96.40 111.68 95.80 113.32 95.21 C 114.06 96.03 114.80 96.85 115.55 97.67 C 115.55 98.56 115.56 100.32 115.56 101.21 C 114.34 102.09 113.50 103.84 111.75 103.66 C 109.45 102.14 107.70 99.88 108.41 96.97 M 110.24 100.68 C 111.36 100.64 112.47 100.58 113.58 100.49 C 113.19 99.64 112.39 97.94 112.00 97.10 C 110.85 97.99 110.35 99.27 110.24 100.68 Z" />
<path fill="#fefefe" opacity="1.00" d=" M 36.70 98.36 C 37.65 98.05 39.57 97.42 40.52 97.11 C 40.60 97.87 40.74 99.39 40.81 100.16 C 41.07 100.45 41.58 101.05 41.84 101.35 C 42.99 102.54 44.23 103.63 45.46 104.73 C 46.65 103.82 47.82 102.90 49.02 101.99 C 49.22 102.40 49.62 103.20 49.82 103.60 L 50.65 103.47 C 51.56 103.81 52.47 104.16 53.38 104.52 C 52.27 104.51 50.05 104.49 48.94 104.48 C 49.17 106.81 50.79 107.94 52.92 108.40 C 54.70 109.17 56.38 110.13 58.08 111.07 C 58.26 116.02 55.26 120.11 52.34 123.80 C 49.13 116.47 43.64 109.99 36.48 106.28 C 36.51 103.64 36.47 101.00 36.70 98.36 M 47.12 105.94 C 48.52 106.63 49.12 106.15 48.90 104.52 C 47.82 104.15 47.23 104.62 47.12 105.94 Z" />
<path fill="#fefefe" opacity="1.00" d=" M 107.93 112.03 C 111.15 111.56 114.38 111.20 117.63 110.96 C 117.47 111.56 117.15 112.77 116.98 113.37 C 114.94 113.79 112.81 113.72 110.86 112.94 C 110.13 112.71 108.66 112.25 107.93 112.03 Z" />
<path fill="#fefefe" opacity="1.00" d=" M 59.55 120.17 C 60.82 120.28 62.09 120.38 63.36 120.49 C 64.16 122.77 65.71 124.66 67.16 126.56 C 64.80 126.47 62.42 126.26 60.07 126.51 L 59.06 127.23 C 58.52 127.40 57.44 127.75 56.90 127.92 C 57.04 127.18 57.32 125.71 57.46 124.97 C 58.06 124.01 58.67 123.06 59.24 122.08 C 59.31 121.60 59.47 120.65 59.55 120.17 Z" />
</g>
<g id="#414141f0">
<path fill="#414141" opacity="0.94" d=" M 123.26 19.57 C 123.56 19.20 124.16 18.44 124.46 18.06 C 124.42 18.57 124.35 19.60 124.32 20.11 C 122.91 20.41 121.51 20.71 120.12 21.07 C 115.35 23.47 110.13 24.75 105.41 27.24 C 98.44 29.13 91.14 27.77 84.05 28.83 C 81.68 29.38 79.33 28.42 77.90 26.49 C 74.67 26.27 71.41 26.46 68.36 27.62 C 68.32 27.36 68.24 26.86 68.20 26.60 C 72.06 25.75 76.11 25.03 80.03 26.01 C 85.27 27.66 90.62 25.27 95.94 25.58 C 101.76 25.99 107.46 24.57 113.10 23.34 C 114.05 22.87 115.01 22.40 115.97 21.94 C 117.67 21.33 119.29 20.56 120.86 19.69 C 121.46 19.66 122.66 19.60 123.26 19.57 Z" />
<path fill="#414141" opacity="0.94" d=" M 47.94 35.94 C 48.39 35.36 48.84 34.78 49.29 34.20 C 50.50 34.66 51.71 35.13 52.92 35.59 C 51.69 37.07 50.44 38.54 49.32 40.10 C 48.90 38.70 48.42 37.32 47.94 35.94 Z" />
<path fill="#414141" opacity="0.94" d=" M 79.23 45.33 C 85.14 39.23 92.99 34.76 101.70 34.89 C 101.20 35.39 100.20 36.39 99.71 36.89 C 96.26 38.04 92.44 38.22 89.21 40.06 C 87.62 40.98 85.91 41.64 84.09 41.89 C 83.06 43.02 82.04 44.15 81.03 45.30 C 80.58 45.31 79.68 45.32 79.23 45.33 Z" />
<path fill="#414141" opacity="0.94" d=" M 37.81 49.88 C 40.43 45.37 43.16 40.50 47.93 37.97 C 46.82 40.35 45.45 42.60 43.92 44.74 C 44.71 45.32 45.51 45.90 46.30 46.48 C 47.06 46.24 47.83 46.01 48.60 45.77 C 47.91 46.75 47.18 47.70 46.38 48.58 C 45.91 49.04 44.98 49.95 44.52 50.40 C 43.92 50.41 42.73 50.44 42.13 50.45 C 41.70 50.46 40.83 50.48 40.40 50.49 C 39.00 52.88 37.56 55.25 35.91 57.48 C 36.01 54.84 36.42 52.17 37.81 49.88 Z" />
<path fill="#414141" opacity="0.94" d=" M 139.42 57.96 C 139.85 55.40 138.89 52.91 138.59 50.39 C 143.35 58.23 140.93 67.74 140.27 76.29 L 139.50 77.61 C 139.70 73.69 140.05 69.77 140.05 65.84 C 139.19 68.52 138.87 71.47 137.27 73.85 C 138.42 68.61 138.55 63.24 139.42 57.96 Z" />
<path fill="#414141" opacity="0.94" d=" M 37.15 58.66 C 38.28 56.66 39.39 54.66 40.63 52.74 C 39.62 57.48 37.53 61.86 35.72 66.33 C 35.37 66.06 34.66 65.54 34.31 65.27 C 34.59 65.73 35.14 66.66 35.41 67.12 L 35.95 68.51 C 35.20 68.59 33.70 68.74 32.95 68.81 C 32.23 68.01 31.56 67.17 30.94 66.29 C 32.79 63.84 34.14 61.10 34.07 57.95 C 35.10 58.19 36.13 58.42 37.15 58.66 M 35.36 62.25 C 35.86 62.76 35.86 62.76 35.36 62.25 Z" />
<path fill="#414141" opacity="0.94" d=" M 151.98 55.79 C 152.32 55.79 153.00 55.79 153.35 55.79 C 153.27 56.08 153.12 56.66 153.04 56.95 C 151.58 58.16 150.20 59.49 150.19 61.52 C 147.57 64.66 144.66 68.69 147.03 72.85 C 150.27 77.27 153.35 81.83 156.91 86.01 C 154.04 84.74 152.56 81.86 150.36 79.80 C 147.17 76.88 144.09 73.33 143.10 69.02 C 143.51 63.26 150.11 60.87 151.98 55.79 Z" />
<path fill="#414141" opacity="0.94" d=" M 40.68 65.81 C 40.98 65.75 41.59 65.62 41.89 65.56 C 41.61 66.99 41.35 68.43 41.08 69.87 C 39.89 71.62 38.77 73.42 37.64 75.21 C 37.63 73.92 37.59 72.62 37.53 71.33 C 38.47 70.21 39.48 69.14 40.48 68.07 C 40.53 67.50 40.63 66.38 40.68 65.81 Z" />
<path fill="#414141" opacity="0.94" d=" M 25.73 77.05 C 27.40 73.42 26.81 69.11 29.12 65.75 C 27.70 70.94 26.94 76.29 25.36 81.44 C 25.48 79.98 25.60 78.51 25.73 77.05 Z" />
<path fill="#414141" opacity="0.94" d=" M 29.38 70.50 C 30.19 70.32 31.82 69.95 32.63 69.77 C 32.46 71.43 32.36 73.10 32.22 74.76 C 31.41 76.95 31.35 79.30 31.34 81.61 C 31.48 80.76 31.77 79.07 31.91 78.22 C 32.35 78.23 33.23 78.26 33.67 78.28 C 33.25 81.45 34.37 85.60 30.90 87.37 C 30.74 88.00 30.43 89.26 30.27 89.89 C 30.66 90.23 31.43 90.90 31.81 91.24 L 31.77 92.39 C 31.21 92.11 30.08 91.55 29.51 91.27 C 29.42 89.12 29.32 86.98 29.20 84.84 C 29.74 84.30 30.29 83.76 30.83 83.23 C 29.53 79.12 28.84 74.80 29.38 70.50 Z" />
<path fill="#414141" opacity="0.94" d=" M 25.54 99.99 C 25.57 93.98 23.16 87.75 25.26 81.87 C 25.03 85.91 25.11 89.97 25.60 93.99 C 26.53 100.33 25.77 106.99 28.45 112.98 C 25.98 109.14 25.52 104.45 25.54 99.99 Z" />
<path fill="#414141" opacity="0.94" d=" M 44.55 96.48 C 44.71 92.72 45.66 89.08 46.78 85.51 L 46.92 87.19 C 46.68 91.94 50.01 99.55 55.87 97.03 L 56.26 96.66 C 56.62 96.64 57.33 96.60 57.68 96.59 L 57.88 97.06 C 58.44 97.10 59.54 97.19 60.10 97.24 C 59.46 98.21 58.66 99.08 58.02 100.00 C 54.34 99.46 50.58 98.87 47.58 96.48 C 47.21 95.36 46.83 94.24 46.43 93.13 C 46.34 93.87 46.15 95.34 46.05 96.08 C 45.97 96.76 45.82 98.14 45.74 98.82 C 45.53 98.42 45.12 97.62 44.92 97.22 C 44.29 97.27 43.04 97.38 42.41 97.43 C 41.98 96.46 41.53 95.50 41.07 94.54 C 40.76 93.92 40.15 92.68 39.84 92.05 C 39.69 91.16 39.39 89.37 39.24 88.47 C 40.48 89.25 41.73 90.03 42.97 90.81 C 43.41 92.72 44.00 94.60 44.55 96.48 Z" />
<path fill="#414141" opacity="0.94" d=" M 90.38 90.28 C 91.73 88.73 93.96 91.14 92.46 92.44 C 91.13 93.91 88.91 91.58 90.38 90.28 Z" />
<path fill="#414141" opacity="0.94" d=" M 55.08 91.58 C 56.69 91.62 57.35 92.37 57.07 93.83 C 56.60 93.76 55.68 93.61 55.22 93.54 C 55.18 93.05 55.12 92.07 55.08 91.58 Z" />
<path fill="#414141" opacity="0.94" d=" M 88.68 95.49 C 90.04 93.44 92.64 94.29 94.58 94.83 C 94.83 98.56 90.63 95.53 88.68 95.49 Z" />
<path fill="#414141" opacity="0.94" d=" M 109.74 94.50 C 110.93 94.39 112.12 94.48 113.31 94.53 C 114.35 95.33 115.40 96.12 116.46 96.89 C 116.45 98.67 116.45 100.45 116.47 102.23 C 115.02 103.17 113.67 105.09 111.72 104.28 C 110.12 103.30 108.93 101.81 107.64 100.48 C 107.73 98.32 107.96 95.99 109.74 94.50 M 108.41 96.97 C 107.70 99.88 109.45 102.14 111.75 103.66 C 113.50 103.84 114.34 102.09 115.56 101.21 C 115.56 100.32 115.55 98.56 115.55 97.67 C 114.80 96.85 114.06 96.03 113.32 95.21 C 111.68 95.80 110.05 96.40 108.41 96.97 Z" />
<path fill="#414141" opacity="0.94" d=" M 86.44 99.02 C 87.38 98.62 88.32 98.21 89.26 97.81 C 89.28 98.48 89.32 99.83 89.34 100.50 C 91.27 99.57 93.29 98.87 95.35 98.32 C 94.75 99.76 94.14 101.18 93.49 102.60 C 94.01 104.66 94.80 106.65 95.87 108.50 C 96.22 108.80 96.92 109.39 97.27 109.69 L 97.65 110.04 C 97.29 110.32 96.56 110.89 96.20 111.18 C 94.30 113.31 98.25 114.14 99.41 115.38 C 97.78 114.91 96.14 114.45 94.52 113.95 C 94.04 114.23 93.58 114.54 93.13 114.87 C 91.97 114.68 90.82 114.50 89.66 114.33 C 90.19 116.00 90.63 118.60 92.84 118.68 C 93.22 118.18 93.98 117.18 94.36 116.68 C 97.03 117.78 99.75 118.74 102.44 119.79 C 98.51 119.42 94.53 119.23 90.62 119.85 C 88.90 122.80 92.35 122.39 94.19 122.29 C 91.40 123.03 88.55 123.36 85.67 123.34 C 85.58 122.94 85.39 122.15 85.30 121.75 C 89.46 122.19 88.39 117.01 88.92 114.32 C 88.04 113.63 87.17 112.93 86.30 112.23 C 84.98 112.33 83.66 112.42 82.35 112.51 C 82.41 111.46 82.47 110.42 82.53 109.38 C 83.62 109.67 84.70 109.97 85.78 110.26 C 87.25 110.40 88.72 110.51 90.16 110.82 C 89.46 110.89 88.05 111.04 87.35 111.11 C 87.15 113.61 91.25 114.30 90.88 111.39 C 91.57 111.45 92.94 111.56 93.62 111.61 L 94.08 110.92 C 94.24 109.99 94.55 108.11 94.71 107.18 C 93.45 107.26 92.20 107.34 90.95 107.44 C 90.11 105.80 89.54 103.81 87.74 102.96 C 87.60 101.56 87.32 100.17 86.44 99.02 Z" />
<path fill="#414141" opacity="0.94" d=" M 127.36 102.58 C 131.25 101.19 134.89 99.04 138.96 98.24 C 141.54 97.73 144.34 99.50 144.75 102.14 C 145.93 108.20 145.86 114.52 144.81 120.59 C 144.64 114.62 144.04 108.73 143.14 102.83 C 141.96 101.80 141.04 99.60 139.13 100.28 C 136.75 101.51 134.72 103.30 132.57 104.88 C 132.38 104.30 132.01 103.14 131.82 102.56 C 132.02 105.23 130.17 106.79 128.09 107.99 C 126.92 108.68 125.74 109.34 124.56 110.00 C 123.38 109.92 122.21 109.84 121.04 109.75 C 121.34 108.49 121.65 107.24 121.96 105.99 C 122.41 106.07 123.29 106.24 123.74 106.33 L 124.96 106.36 C 125.79 105.12 126.57 103.85 127.36 102.58 Z" />
<path fill="#414141" opacity="0.94" d=" M 41.84 101.35 C 42.48 100.35 43.12 99.36 43.75 98.36 C 44.62 99.49 45.50 100.63 46.38 101.76 C 46.22 101.02 45.90 99.56 45.74 98.82 C 46.82 99.89 47.98 100.88 49.02 101.99 C 47.82 102.90 46.65 103.82 45.46 104.73 C 44.23 103.63 42.99 102.54 41.84 101.35 Z" />
<path fill="#414141" opacity="0.94" d=" M 52.01 100.75 C 53.46 100.75 54.91 100.74 56.36 100.70 C 55.26 101.47 54.18 102.27 53.12 103.09 C 54.57 103.24 56.02 103.39 57.48 103.52 C 60.50 106.86 61.30 111.19 60.94 115.57 C 62.05 117.04 62.73 118.77 63.36 120.49 C 62.09 120.38 60.82 120.28 59.55 120.17 C 59.46 119.69 59.28 118.75 59.19 118.27 L 58.86 116.70 C 58.44 113.98 59.04 111.27 59.61 108.62 C 58.77 108.67 57.93 108.72 57.10 108.77 C 57.19 107.04 57.27 105.33 57.36 103.61 C 56.66 103.90 55.26 104.48 54.56 104.77 C 54.57 105.57 54.59 107.17 54.59 107.97 C 54.17 108.08 53.34 108.29 52.92 108.40 C 50.79 107.94 49.17 106.81 48.94 104.48 C 50.05 104.49 52.27 104.51 53.38 104.52 C 52.47 104.16 51.56 103.81 50.65 103.47 C 51.20 103.36 52.29 103.12 52.84 103.01 C 52.64 102.44 52.22 101.31 52.01 100.75 Z" />
<path fill="#414141" opacity="0.94" d=" M 30.05 103.12 C 31.64 102.58 32.13 103.15 31.52 104.84 C 29.91 105.37 29.42 104.80 30.05 103.12 Z" />
<path fill="#414141" opacity="0.94" d=" M 47.12 105.94 C 47.23 104.62 47.82 104.15 48.90 104.52 C 49.12 106.15 48.52 106.63 47.12 105.94 Z" />
<path fill="#414141" opacity="0.94" d=" M 33.45 115.94 C 33.27 112.50 33.35 109.06 33.68 105.63 C 33.80 106.16 34.04 107.23 34.15 107.76 C 34.59 108.54 35.11 109.28 35.55 110.07 C 34.51 114.05 35.48 118.21 34.58 122.20 C 33.59 121.21 32.58 120.24 31.55 119.29 C 32.18 122.26 32.90 125.22 33.91 128.09 C 32.28 125.97 31.86 123.25 31.11 120.76 C 30.52 118.54 29.85 116.35 29.08 114.19 C 30.11 116.07 31.19 117.93 32.29 119.78 C 32.18 118.29 32.05 116.81 31.87 115.33 L 33.45 115.94 Z" />
<path fill="#414141" opacity="0.94" d=" M 179.65 136.50 C 182.32 134.56 184.16 131.82 186.03 129.16 C 184.83 131.53 183.70 133.95 182.12 136.11 C 179.41 139.70 177.78 144.00 174.70 147.34 C 176.74 143.91 178.49 140.32 179.65 136.50 Z" />
<path fill="#414141" opacity="0.94" d=" M 39.65 136.78 C 41.30 137.43 42.51 139.12 42.10 140.95 C 40.39 141.16 39.51 138.20 39.65 136.78 Z" />
<path fill="#414141" opacity="0.94" d=" M 74.01 141.14 C 74.23 141.14 74.68 141.15 74.91 141.15 C 75.98 141.22 78.12 141.34 79.19 141.41 C 78.56 142.20 77.93 142.99 77.31 143.78 C 80.33 147.60 81.00 152.53 82.25 157.09 C 80.73 159.70 81.23 162.73 81.49 165.59 C 79.77 165.56 78.05 165.55 76.33 165.56 C 76.34 164.86 76.35 164.17 76.37 163.48 C 77.44 163.59 78.51 163.70 79.58 163.81 C 80.08 159.71 81.59 155.41 79.77 151.42 C 79.15 153.93 78.76 156.49 78.23 159.03 C 78.57 154.85 78.25 150.65 78.43 146.47 C 76.87 144.76 75.28 143.07 74.01 141.14 Z" />
<path fill="#414141" opacity="0.94" d=" M 109.96 141.07 C 112.14 146.20 111.00 151.98 113.17 157.15 C 110.64 153.76 110.80 149.29 109.12 145.52 C 109.41 144.04 109.68 142.55 109.96 141.07 Z" />
<path fill="#414141" opacity="0.94" d=" M 42.08 141.36 C 43.90 142.74 45.59 144.29 47.13 145.98 C 45.23 144.70 43.43 143.23 42.08 141.36 Z" />
<path fill="#414141" opacity="0.94" d=" M 58.24 155.00 C 59.63 153.11 61.64 152.84 63.75 153.42 C 65.91 156.25 67.84 159.24 69.91 162.13 C 68.46 161.90 67.02 161.68 65.57 161.45 C 65.51 160.34 65.46 159.23 65.41 158.12 C 64.78 158.21 63.52 158.38 62.90 158.47 C 62.48 157.47 62.06 156.47 61.64 155.47 C 60.79 155.36 59.09 155.12 58.24 155.00 Z" />
<path fill="#414141" opacity="0.94" d=" M 41.49 186.83 C 41.96 186.51 42.89 185.87 43.36 185.55 C 41.46 193.45 42.67 201.66 42.60 209.70 C 42.09 209.69 41.05 209.69 40.54 209.69 C 40.36 208.95 40.02 207.48 39.84 206.75 C 40.33 206.77 41.30 206.81 41.79 206.83 C 41.34 200.17 41.71 193.50 41.49 186.83 Z" />
<path fill="#414141" opacity="0.94" d=" M 66.40 190.50 C 69.67 189.94 73.71 190.11 75.88 193.01 C 78.55 196.74 78.60 201.65 78.10 206.04 C 77.42 209.55 75.64 213.89 71.61 214.46 C 68.56 214.64 64.70 215.25 62.54 212.53 C 59.50 209.14 60.12 204.27 60.09 200.07 C 59.94 196.05 62.12 191.34 66.40 190.50 M 60.43 202.98 C 60.55 206.77 61.08 211.56 64.91 213.47 C 67.58 214.06 70.44 214.13 73.07 213.31 C 75.32 211.97 76.57 209.47 77.19 207.02 C 78.00 201.57 77.98 195.07 73.28 191.29 C 70.51 191.24 67.65 190.85 64.95 191.65 C 61.21 194.01 60.24 198.85 60.43 202.98 Z" />
<path fill="#414141" opacity="0.94" d=" M 53.70 208.08 C 52.99 202.19 52.94 195.57 56.87 190.70 C 52.93 198.69 52.70 208.78 57.93 216.26 C 55.67 214.09 54.11 211.20 53.70 208.08 Z" />
<path fill="#414141" opacity="0.94" d=" M 26.16 195.08 C 24.83 192.46 28.62 192.38 28.02 195.01 C 27.55 195.03 26.62 195.07 26.16 195.08 Z" />
<path fill="#414141" opacity="0.94" d=" M 90.55 212.63 C 91.51 210.84 93.86 211.46 95.51 211.55 C 97.93 212.60 98.17 215.89 97.08 217.98 C 95.32 220.12 92.55 219.27 90.35 218.49 C 90.06 216.56 89.17 214.34 90.55 212.63 M 90.62 212.58 C 90.81 214.21 89.64 216.50 91.22 217.70 C 92.50 219.30 94.74 218.34 96.45 218.45 C 96.50 216.43 96.54 214.42 96.58 212.40 C 94.59 212.44 92.60 212.50 90.62 212.58 Z" />
<path fill="#414141" opacity="0.94" d=" M 60.65 218.05 C 65.16 219.16 69.84 219.21 74.41 220.00 L 65.16 220.00 C 63.64 219.38 62.14 218.74 60.65 218.05 Z" />
</g>
<g id="#9b9b9bff">
<path fill="#9b9b9b" opacity="1.00" d=" M 54.55 25.77 C 55.09 25.67 56.15 25.48 56.69 25.38 C 55.15 27.61 53.48 29.75 52.19 32.13 C 52.72 33.13 53.28 34.10 53.88 35.06 C 53.78 35.52 53.58 36.45 53.48 36.91 C 54.18 38.24 54.86 39.57 55.53 40.91 C 57.38 40.45 59.30 39.99 61.20 40.51 C 60.32 40.33 57.08 41.18 58.98 42.21 C 60.28 42.38 61.22 41.87 61.82 40.70 C 64.07 41.69 67.79 41.58 68.01 44.74 C 63.33 43.25 57.93 41.79 53.50 44.78 C 53.01 43.60 52.51 42.42 52.02 41.24 C 52.75 40.44 53.47 39.63 54.18 38.80 C 52.42 39.99 50.75 41.30 49.09 42.62 C 49.15 41.99 49.26 40.73 49.32 40.10 C 50.44 38.54 51.69 37.07 52.92 35.59 C 51.71 35.13 50.50 34.66 49.29 34.20 C 51.00 31.98 52.66 29.73 54.51 27.62 C 54.52 27.16 54.54 26.23 54.55 25.77 Z" />
<path fill="#9b9b9b" opacity="1.00" d=" M 101.70 34.89 C 104.32 34.67 106.95 34.52 109.58 34.41 C 109.60 34.91 109.66 35.91 109.69 36.42 C 106.36 36.66 103.04 36.90 99.71 36.89 C 100.20 36.39 101.20 35.39 101.70 34.89 Z" />
<path fill="#9b9b9b" opacity="1.00" d=" M 48.60 45.77 C 48.91 45.31 49.53 44.39 49.84 43.92 C 50.14 45.15 50.49 46.36 50.84 47.57 C 52.15 47.34 53.45 47.03 54.79 46.97 C 57.61 48.11 59.48 50.63 61.34 52.91 C 57.68 51.32 53.81 50.25 49.79 50.40 C 48.90 51.18 48.00 51.96 47.10 52.73 C 46.86 51.35 46.62 49.97 46.38 48.58 C 47.18 47.70 47.91 46.75 48.60 45.77 Z" />
<path fill="#9b9b9b" opacity="1.00" d=" M 91.87 47.76 C 92.81 45.81 94.62 44.79 96.59 44.11 C 96.58 44.73 96.58 45.97 96.57 46.59 C 95.01 47.01 93.45 47.41 91.87 47.76 Z" />
<path fill="#9b9b9b" opacity="1.00" d=" M 86.45 47.99 C 89.09 47.07 87.88 51.55 85.90 51.30 C 84.37 50.75 85.36 48.50 86.45 47.99 Z" />
<path fill="#9b9b9b" opacity="1.00" d=" M 66.67 67.83 C 69.21 64.62 70.16 59.58 74.51 58.30 C 73.44 61.66 71.70 64.75 70.63 68.11 C 69.97 72.09 70.52 76.16 70.39 80.18 L 69.81 78.72 C 69.52 77.24 69.37 75.73 69.20 74.23 C 68.74 74.33 67.82 74.55 67.35 74.65 C 67.09 71.56 65.37 69.13 62.94 67.34 C 62.29 67.39 60.98 67.47 60.33 67.51 C 60.34 67.01 60.37 66.01 60.39 65.51 C 62.40 66.50 64.51 67.25 66.67 67.83 Z" />
<path fill="#9b9b9b" opacity="1.00" d=" M 125.99 81.16 C 129.86 80.84 133.06 78.47 135.60 75.70 C 135.61 76.62 135.63 77.55 135.65 78.47 C 132.61 79.99 129.50 81.48 126.13 82.09 C 113.92 84.03 101.77 86.73 89.34 86.78 C 94.72 83.69 101.11 84.60 107.03 83.95 C 113.41 83.52 119.64 81.89 125.99 81.16 Z" />
<path fill="#9b9b9b" opacity="1.00" d=" M 35.93 79.64 C 37.04 81.69 38.23 83.71 39.64 85.58 C 39.63 86.16 39.62 87.33 39.61 87.91 C 40.59 87.58 41.57 87.25 42.55 86.92 C 42.66 87.89 42.87 89.84 42.97 90.81 C 41.73 90.03 40.48 89.25 39.24 88.47 C 39.39 89.37 39.69 91.16 39.84 92.05 C 39.69 91.76 39.40 91.17 39.26 90.87 C 38.99 89.40 38.83 87.91 38.62 86.43 C 37.95 87.23 37.28 88.03 36.60 88.82 C 35.64 85.84 35.38 82.72 35.93 79.64 Z" />
<path fill="#9b9b9b" opacity="1.00" d=" M 26.31 84.93 C 26.15 83.43 26.89 82.22 28.25 81.58 C 28.31 84.68 28.82 87.92 27.79 90.92 C 25.87 89.56 26.35 86.97 26.31 84.93 Z" />
<path fill="#9b9b9b" opacity="1.00" d=" M 41.89 83.03 C 47.91 84.19 54.27 83.40 60.08 85.69 C 62.81 86.89 65.36 88.46 68.06 89.74 C 68.22 87.37 68.40 85.00 68.50 82.63 C 68.78 85.87 69.29 89.30 67.43 92.20 C 67.85 93.50 68.27 94.79 68.69 96.09 C 69.12 95.84 69.97 95.35 70.40 95.10 C 71.44 95.78 72.51 96.42 73.57 97.07 C 72.86 97.52 71.43 98.41 70.72 98.85 C 71.98 100.61 73.25 102.35 74.54 104.09 C 74.16 104.60 73.39 105.61 73.01 106.11 C 73.38 106.55 74.14 107.43 74.52 107.86 C 74.11 107.70 73.30 107.38 72.89 107.22 C 72.68 106.14 72.48 105.06 72.27 103.98 C 70.82 103.03 69.38 102.09 67.93 101.14 C 69.03 99.86 70.14 98.57 71.24 97.28 C 70.10 97.42 67.83 97.70 66.69 97.84 C 65.60 95.06 64.44 92.27 64.24 89.25 C 63.91 89.21 63.24 89.14 62.91 89.11 C 58.58 86.87 53.72 86.26 48.97 85.54 C 48.46 85.95 47.44 86.77 46.92 87.19 L 46.78 85.51 L 46.87 84.97 C 45.09 84.68 43.25 84.33 41.89 83.03 Z" />
<path fill="#9b9b9b" opacity="1.00" d=" M 113.81 85.63 C 116.72 87.18 120.42 87.93 122.37 90.79 C 123.18 93.66 119.84 97.58 123.88 99.07 C 124.32 101.48 124.02 103.92 123.74 106.33 C 123.29 106.24 122.41 106.07 121.96 105.99 C 121.65 107.24 121.34 108.49 121.04 109.75 C 120.60 109.72 119.72 109.66 119.28 109.62 C 119.81 110.50 120.34 111.39 120.87 112.27 C 119.58 112.65 118.28 113.02 116.98 113.37 C 117.15 112.77 117.47 111.56 117.63 110.96 C 114.38 111.20 111.15 111.56 107.93 112.03 C 105.83 111.53 103.76 110.92 101.67 110.39 C 103.05 113.20 106.39 113.08 108.91 114.04 C 109.26 114.23 109.95 114.60 110.30 114.78 C 107.56 114.45 104.80 114.51 102.05 114.49 C 101.89 114.33 101.58 114.02 101.43 113.86 C 101.12 111.52 101.78 109.24 102.71 107.12 C 104.15 107.47 105.61 107.85 107.07 108.14 C 110.45 108.58 114.32 109.16 117.40 107.35 C 119.79 103.85 121.72 99.46 121.01 95.15 C 119.76 90.34 113.59 89.04 109.56 91.12 C 111.32 89.49 113.62 89.05 115.95 88.99 C 115.23 87.87 114.52 86.76 113.81 85.63 Z" />
<path fill="#9b9b9b" opacity="1.00" d=" M 75.85 89.75 C 79.04 87.96 82.64 87.39 86.21 88.31 C 85.01 88.80 83.80 89.27 82.58 89.73 C 82.87 94.40 81.69 98.93 80.43 103.37 C 80.38 102.61 80.27 101.08 80.22 100.32 C 81.14 97.07 81.54 93.68 80.71 90.36 C 77.43 91.49 73.98 91.56 70.57 91.08 C 71.02 90.51 71.92 89.35 72.37 88.78 C 73.53 89.12 74.69 89.44 75.85 89.75 Z" />
<path fill="#9b9b9b" opacity="1.00" d=" M 52.12 90.43 C 53.84 87.79 57.13 88.43 59.29 90.05 C 59.48 91.61 59.43 93.20 59.33 94.77 C 58.92 95.22 58.09 96.13 57.68 96.59 C 57.33 96.60 56.62 96.64 56.26 96.66 C 54.18 96.01 52.56 94.67 51.80 92.58 C 52.94 92.88 54.08 93.20 55.22 93.54 C 55.68 93.61 56.60 93.76 57.07 93.83 C 57.35 92.37 56.69 91.62 55.08 91.58 L 54.65 91.24 L 54.34 92.78 C 53.59 92.00 52.85 91.22 52.12 90.43 Z" />
<path fill="#9b9b9b" opacity="1.00" d=" M 31.81 91.24 L 32.68 92.00 C 32.73 93.36 32.72 94.72 32.72 96.09 C 34.44 95.83 36.17 95.57 37.90 95.32 C 38.59 95.76 39.97 96.64 40.66 97.08 C 40.77 96.45 40.97 95.17 41.07 94.54 C 41.53 95.50 41.98 96.46 42.41 97.43 C 43.04 97.38 44.29 97.27 44.92 97.22 C 45.12 97.62 45.53 98.42 45.74 98.82 C 45.90 99.56 46.22 101.02 46.38 101.76 C 45.50 100.63 44.62 99.49 43.75 98.36 C 43.12 99.36 42.48 100.35 41.84 101.35 C 41.58 101.05 41.07 100.45 40.81 100.16 C 40.74 99.39 40.60 97.87 40.52 97.11 C 39.57 97.42 37.65 98.05 36.70 98.36 C 36.96 97.70 37.49 96.39 37.75 95.73 C 35.17 96.52 33.15 98.13 32.39 100.79 C 32.92 102.37 33.43 103.97 33.68 105.63 C 33.35 109.06 33.27 112.50 33.45 115.94 L 31.87 115.33 C 29.55 110.56 28.00 105.35 28.72 100.01 C 28.19 99.19 27.67 98.38 27.15 97.57 C 28.22 98.44 29.28 99.33 30.34 100.22 C 30.24 97.52 30.79 94.89 31.77 92.39 L 31.81 91.24 M 30.05 103.12 C 29.42 104.80 29.91 105.37 31.52 104.84 C 32.13 103.15 31.64 102.58 30.05 103.12 Z" />
<path fill="#9b9b9b" opacity="1.00" d=" M 54.56 104.77 C 55.26 104.48 56.66 103.90 57.36 103.61 C 57.27 105.33 57.19 107.04 57.10 108.77 C 57.93 108.72 58.77 108.67 59.61 108.62 C 59.04 111.27 58.44 113.98 58.86 116.70 C 57.26 118.43 55.80 120.33 54.92 122.53 C 54.57 122.99 53.87 123.89 53.52 124.35 C 54.15 125.57 54.77 126.79 55.39 128.01 C 56.09 127.00 56.78 125.99 57.46 124.97 C 57.32 125.71 57.04 127.18 56.90 127.92 C 57.44 127.75 58.52 127.40 59.06 127.23 C 58.65 129.13 58.37 131.06 58.02 132.98 C 57.70 134.21 57.43 135.46 57.19 136.71 C 57.06 137.60 56.80 139.39 56.67 140.28 C 56.46 136.24 55.56 132.29 55.10 128.28 C 54.15 126.80 53.21 125.32 52.34 123.80 C 55.26 120.11 58.26 116.02 58.08 111.07 C 56.38 110.13 54.70 109.17 52.92 108.40 C 53.34 108.29 54.17 108.08 54.59 107.97 C 54.59 107.17 54.57 105.57 54.56 104.77 Z" />
<path fill="#9b9b9b" opacity="1.00" d=" M 34.58 122.20 C 35.48 118.21 34.51 114.05 35.55 110.07 C 38.17 113.94 36.61 119.20 39.94 122.74 C 40.52 122.64 41.70 122.44 42.28 122.33 C 42.25 124.91 42.63 127.47 43.47 129.91 C 44.23 129.70 44.98 129.48 45.73 129.26 C 45.66 131.97 45.65 134.68 45.74 137.40 C 48.10 135.63 48.11 132.58 48.68 129.97 C 49.81 131.89 51.00 133.78 52.30 135.59 C 52.65 139.35 53.40 143.06 54.34 146.72 C 54.82 146.95 55.76 147.40 56.24 147.63 C 57.17 149.27 58.41 150.84 58.77 152.74 C 55.10 151.76 53.16 147.49 50.13 145.24 C 50.69 142.50 51.36 139.78 52.02 137.07 C 51.47 137.22 50.36 137.52 49.81 137.67 C 49.56 138.74 49.31 139.81 49.06 140.88 C 49.30 142.30 49.53 143.73 49.74 145.16 C 45.29 141.35 40.72 136.91 38.96 131.17 C 37.14 129.16 35.66 126.90 34.30 124.57 C 35.28 124.81 36.26 125.08 37.23 125.36 C 37.27 125.86 37.36 126.84 37.40 127.34 C 37.60 127.57 37.99 128.03 38.19 128.26 C 38.18 127.25 38.15 125.24 38.14 124.23 C 36.82 124.20 35.50 124.16 34.17 124.13 C 34.27 123.65 34.48 122.68 34.58 122.20 Z" />
<path fill="#9b9b9b" opacity="1.00" d=" M 66.43 110.80 C 67.49 111.51 68.56 112.24 69.63 112.96 C 69.34 113.38 68.75 114.24 68.46 114.66 C 68.62 117.57 68.65 120.48 68.68 123.38 C 67.46 121.92 65.90 120.69 65.02 118.98 C 64.26 116.86 65.62 114.97 66.70 113.29 C 66.63 112.67 66.49 111.42 66.43 110.80 Z" />
<path fill="#9b9b9b" opacity="1.00" d=" M 73.47 111.09 C 75.10 110.60 75.60 111.17 74.98 112.82 C 73.36 113.31 72.86 112.74 73.47 111.09 Z" />
<path fill="#9b9b9b" opacity="1.00" d=" M 110.05 126.67 C 110.65 126.62 111.86 126.52 112.46 126.47 C 116.83 130.23 116.86 136.17 117.60 141.43 C 115.99 140.35 114.06 139.21 114.11 137.00 C 113.91 133.16 111.74 129.97 110.05 126.67 Z" />
<path fill="#9b9b9b" opacity="1.00" d=" M 134.39 127.77 C 136.47 127.31 140.31 125.05 141.35 127.97 C 139.71 128.82 137.95 129.38 136.21 129.98 C 136.37 129.45 136.68 128.41 136.83 127.89 C 136.22 127.86 135.00 127.80 134.39 127.77 Z" />
<path fill="#9b9b9b" opacity="1.00" d=" M 125.84 131.27 C 127.99 130.03 130.32 129.14 132.82 128.98 C 131.75 129.67 130.62 130.26 129.50 130.87 C 129.51 131.28 129.53 132.11 129.54 132.52 C 128.31 132.09 127.07 131.68 125.84 131.27 Z" />
<path fill="#9b9b9b" opacity="1.00" d=" M 119.29 139.47 C 120.93 137.26 121.66 133.97 124.47 132.95 C 123.48 134.68 122.59 136.47 121.75 138.29 C 124.30 136.67 126.88 135.09 129.72 134.01 C 126.26 141.11 121.75 148.85 123.93 157.01 C 123.41 156.85 122.37 156.53 121.85 156.38 C 121.53 154.47 121.03 152.59 120.34 150.78 C 120.89 150.12 121.44 149.45 122.00 148.79 C 121.46 147.24 120.93 145.70 120.37 144.17 C 121.26 143.29 122.17 142.42 123.06 141.54 C 122.20 141.50 120.49 141.41 119.63 141.37 C 119.55 140.90 119.38 139.95 119.29 139.47 Z" />
<path fill="#9b9b9b" opacity="1.00" d=" M 99.07 152.80 C 99.75 154.01 100.35 155.25 100.95 156.50 C 102.61 157.31 104.29 158.11 105.91 159.03 C 106.19 159.29 106.75 159.80 107.03 160.06 C 106.85 160.69 106.49 161.94 106.31 162.57 C 105.49 162.45 104.66 162.33 103.84 162.21 C 103.80 161.44 103.72 159.91 103.67 159.14 C 102.97 159.28 101.58 159.56 100.88 159.70 C 100.11 157.44 99.48 155.15 99.07 152.80 Z" />
<path fill="#9b9b9b" opacity="1.00" d=" M 77.89 187.11 C 84.26 190.96 85.12 198.97 84.61 205.70 C 84.49 205.57 84.25 205.31 84.12 205.18 C 85.27 198.57 83.54 191.20 77.89 187.11 Z" />
</g>
</svg>
