<?xml version="1.0" encoding="UTF-8" ?>
<!DOCTYPE svg PUBLIC "-//W3C//DTD SVG 1.1//EN" "http://www.w3.org/Graphics/SVG/1.1/DTD/svg11.dtd">
<svg width="210pt" height="220pt" viewBox="0 0 210 220" version="1.1" xmlns="http://www.w3.org/2000/svg">
<g id="#060505bb">
<path fill="#060505" opacity="0.73" d=" M 56.33 0.00 L 70.04 0.00 C 70.58 0.52 71.66 1.56 72.20 2.09 C 68.58 0.95 64.77 -0.21 60.94 0.45 C 57.81 0.95 54.75 1.84 51.61 2.31 C 53.18 1.53 54.74 0.74 56.33 0.00 Z" />
</g>
<g id="#000000ff">
<path fill="#000000" opacity="1.00" d=" M 51.61 2.31 C 54.75 1.84 57.81 0.95 60.94 0.45 C 64.77 -0.21 68.58 0.95 72.20 2.09 C 79.66 4.22 86.87 9.57 87.99 17.74 C 90.00 17.26 92.01 16.73 94.05 16.34 C 98.69 16.49 103.34 16.46 107.93 15.71 C 109.12 15.66 110.31 15.60 111.50 15.55 C 114.89 9.10 121.48 4.03 129.02 4.32 C 136.10 3.92 142.26 9.68 144.00 16.25 C 145.07 20.06 143.51 23.92 143.48 27.75 C 146.40 32.05 149.63 36.18 151.87 40.91 C 153.91 45.38 156.61 49.88 156.48 54.95 C 156.55 61.50 156.76 68.06 156.57 74.62 C 157.88 74.87 159.19 75.13 160.51 75.39 C 160.69 79.25 159.55 83.63 161.98 87.01 C 166.55 93.75 167.78 101.90 170.36 109.47 C 171.64 112.86 171.54 116.52 170.70 120.00 C 173.72 133.57 177.41 146.97 180.76 160.45 C 182.25 168.60 184.95 176.64 184.69 185.01 C 184.73 196.40 184.46 207.80 184.81 219.19 L 184.87 220.00 L 182.98 220.00 L 181.76 219.40 C 182.57 210.95 182.08 202.46 182.23 193.99 C 182.38 186.98 182.00 179.92 180.51 173.05 C 177.88 159.76 174.14 146.75 170.78 133.64 C 170.36 141.74 170.26 149.90 171.24 157.97 C 171.60 164.63 171.35 171.30 171.44 177.96 C 171.58 182.74 169.44 187.22 169.53 191.99 C 169.51 199.90 169.61 207.82 169.54 215.73 C 168.56 215.65 167.58 215.57 166.61 215.49 C 166.56 207.00 166.60 198.52 166.55 190.03 C 166.45 186.58 167.18 183.18 168.34 179.95 C 168.51 171.30 168.79 162.62 167.87 154.01 C 167.53 143.65 167.91 133.29 167.76 122.93 C 167.72 120.06 167.08 117.26 166.31 114.51 C 164.24 107.31 162.49 100.01 160.14 92.88 C 158.71 88.62 157.56 84.26 156.89 79.81 C 156.51 79.64 155.77 79.31 155.40 79.14 C 155.49 86.83 154.33 94.76 150.44 101.51 C 145.74 110.00 142.74 119.28 138.48 127.98 C 128.52 130.20 120.52 138.11 110.10 138.72 C 101.71 138.82 93.31 138.84 84.94 138.33 C 80.12 137.32 75.82 134.68 71.20 133.04 C 72.19 137.23 73.57 141.32 75.48 145.18 C 78.67 151.79 81.29 158.67 83.25 165.74 C 84.47 170.24 86.62 174.45 87.58 179.00 C 88.06 192.53 84.82 205.79 82.94 219.11 C 82.62 219.33 81.97 219.78 81.64 220.00 L 80.03 220.00 C 80.08 219.56 80.18 218.69 80.23 218.25 C 80.75 212.49 82.14 206.86 83.07 201.16 C 83.65 193.76 85.17 186.42 84.71 178.96 C 81.29 170.95 79.82 162.26 76.08 154.39 C 74.43 158.18 72.98 162.06 72.00 166.08 C 69.59 175.28 66.57 184.31 64.38 193.56 C 62.42 202.17 59.09 210.49 58.98 219.42 L 57.43 220.00 L 55.31 220.00 C 55.41 219.57 55.60 218.71 55.70 218.28 C 59.67 198.25 65.61 178.69 71.18 159.07 C 72.14 156.21 73.40 153.46 74.79 150.78 C 71.99 145.67 69.97 140.22 68.31 134.66 C 66.71 129.19 62.11 125.49 59.47 120.60 C 56.07 115.10 54.08 108.87 50.55 103.45 C 46.83 97.66 44.49 91.13 40.82 85.32 C 39.94 83.64 38.68 82.00 38.63 80.03 C 38.82 74.48 35.92 69.43 36.09 63.85 C 32.89 62.61 29.58 61.32 27.30 58.62 C 33.49 58.72 39.86 59.06 45.70 56.61 C 46.49 54.88 47.28 53.15 48.06 51.42 C 44.01 50.07 39.96 51.23 36.38 53.26 C 34.27 52.02 32.35 50.51 30.31 49.18 C 30.78 51.33 31.40 53.45 32.15 55.53 C 30.01 55.89 27.90 56.41 25.79 56.91 C 25.21 56.15 24.66 55.36 24.19 54.53 C 23.66 50.81 23.65 47.04 24.12 43.31 C 25.95 40.20 28.45 37.31 31.74 35.70 C 35.12 34.11 38.94 34.92 42.52 34.44 C 45.40 31.95 47.69 28.80 50.98 26.78 C 43.34 21.43 36.00 14.88 26.44 13.43 C 26.40 12.54 26.36 11.66 26.32 10.78 C 34.18 6.54 42.69 3.32 51.61 2.31 M 56.89 3.60 C 55.39 4.19 53.86 4.69 52.34 5.23 C 47.97 5.11 43.91 6.74 39.76 7.83 C 37.19 9.02 34.57 10.07 31.90 11.02 C 31.82 11.30 31.65 11.85 31.56 12.13 C 32.69 12.28 33.81 12.45 34.94 12.62 C 36.54 13.57 38.21 14.40 39.89 15.23 C 43.74 17.69 47.42 20.44 51.01 23.27 C 51.57 23.31 52.69 23.38 53.25 23.42 C 53.71 23.94 54.62 25.00 55.08 25.52 C 56.01 24.98 56.95 24.43 57.88 23.88 C 58.87 23.50 59.85 23.10 60.82 22.70 C 66.60 21.51 72.21 19.03 78.18 19.23 C 79.43 18.73 80.69 18.24 81.94 17.73 C 82.70 17.68 84.21 17.58 84.97 17.53 C 84.48 16.00 83.96 14.48 83.45 12.96 C 79.44 8.79 74.54 5.67 69.14 3.63 C 65.06 3.38 60.97 3.32 56.89 3.60 M 119.48 18.86 C 120.04 19.79 120.60 20.71 121.15 21.64 C 122.55 21.63 123.96 21.56 125.37 21.48 C 125.41 19.84 126.32 16.49 123.71 16.53 C 121.74 15.83 120.58 17.61 119.48 18.86 M 135.27 15.70 C 135.97 18.22 137.07 20.80 136.10 23.41 C 133.90 23.79 131.70 24.18 129.50 24.56 C 127.89 25.68 126.25 26.78 124.60 27.84 C 122.87 26.99 121.07 26.34 119.23 25.80 C 118.26 25.17 117.30 24.53 116.34 23.88 C 116.51 24.93 116.69 25.98 116.86 27.03 C 118.90 28.52 120.74 30.45 123.14 31.36 C 125.90 31.76 128.70 31.55 131.48 31.55 C 133.67 29.79 135.89 28.06 137.94 26.14 C 138.33 25.11 138.69 24.07 139.03 23.02 C 139.34 21.56 139.67 20.08 140.59 18.86 C 140.61 18.05 140.65 16.43 140.67 15.62 C 138.87 15.64 137.07 15.67 135.27 15.70 M 91.07 19.90 C 89.51 20.31 87.90 20.69 86.65 21.81 C 85.32 21.77 84.05 21.33 82.94 20.59 C 79.39 21.80 75.63 22.16 71.95 22.79 C 69.29 23.78 66.47 24.17 63.70 24.75 C 60.41 26.08 57.20 27.59 54.04 29.21 C 49.97 29.95 48.14 33.79 45.54 36.52 C 50.18 39.88 53.03 45.33 52.42 51.14 C 51.40 54.00 50.47 57.06 48.08 59.12 C 45.71 61.95 42.02 62.86 38.63 63.79 C 39.04 65.87 39.36 67.96 39.64 70.06 C 40.70 72.30 41.46 74.66 42.42 76.94 C 42.59 78.77 42.65 80.61 42.66 82.45 C 43.07 82.80 43.89 83.49 44.30 83.83 C 45.76 86.11 46.96 88.54 47.86 91.09 C 48.41 90.53 48.97 89.99 49.56 89.46 C 49.44 88.58 49.20 86.82 49.09 85.94 C 47.21 79.61 48.39 72.90 51.08 67.01 C 52.59 62.77 53.42 58.33 54.87 54.07 C 57.76 51.57 60.55 48.91 62.80 45.81 C 64.84 44.11 66.79 42.31 68.72 40.50 C 70.53 40.15 72.33 39.78 74.13 39.40 C 75.12 38.93 76.12 38.48 77.14 38.07 C 79.55 37.29 81.77 36.05 83.87 34.64 C 87.62 34.54 91.19 33.00 94.96 33.22 C 101.40 33.28 107.83 33.18 114.26 33.32 C 110.54 29.33 110.77 23.53 110.18 18.45 C 105.15 18.89 100.07 18.23 95.07 18.96 C 93.76 19.35 92.42 19.64 91.07 19.90 M 134.01 36.05 C 132.25 36.67 130.49 37.30 128.71 37.85 C 136.00 41.14 142.05 46.70 147.31 52.65 C 146.65 56.39 146.49 60.26 147.18 64.01 C 146.94 65.80 146.76 67.60 146.64 69.40 C 146.06 69.40 144.90 69.41 144.31 69.42 C 144.27 64.44 144.27 59.47 144.33 54.50 C 141.36 51.46 138.72 48.07 135.16 45.68 C 134.73 45.55 133.89 45.29 133.47 45.16 C 131.18 41.86 127.59 39.89 124.38 37.61 C 118.86 37.65 113.54 35.64 108.01 35.72 C 103.03 35.77 98.05 35.67 93.07 35.81 C 90.02 37.00 86.63 37.06 83.70 38.55 C 81.02 39.72 78.43 41.10 75.68 42.11 C 73.64 42.83 71.11 42.65 69.62 44.49 C 64.83 49.36 58.91 53.55 56.01 59.93 C 55.70 61.64 55.36 63.36 54.76 64.99 C 53.89 68.84 52.45 72.52 50.77 76.07 C 50.76 78.00 50.76 79.92 50.80 81.85 C 51.31 83.20 51.77 84.58 52.23 85.96 C 52.31 88.59 53.13 91.10 53.70 93.64 C 53.02 93.49 51.67 93.20 51.00 93.05 L 49.84 91.27 C 49.39 91.89 48.93 92.51 48.48 93.14 C 49.73 95.36 51.02 97.62 53.23 99.05 C 55.14 102.57 56.22 106.44 57.66 110.16 C 60.53 114.71 63.01 119.51 66.15 123.88 C 68.35 127.17 72.14 128.71 75.01 131.28 C 78.16 132.36 81.31 133.49 84.08 135.37 C 87.70 135.77 91.46 134.97 94.97 136.20 C 100.01 136.34 105.05 136.22 110.09 136.28 C 114.14 135.11 117.95 133.29 121.94 131.95 C 125.12 129.95 128.43 128.14 131.93 126.72 C 133.27 126.21 134.60 125.66 135.95 125.13 C 136.70 123.46 137.49 121.82 138.23 120.15 C 138.90 118.81 139.62 117.50 140.38 116.21 C 141.04 114.06 141.94 111.99 142.81 109.92 C 145.42 105.37 146.99 100.30 149.94 95.93 C 150.32 94.29 150.61 92.63 151.03 91.00 C 151.43 89.64 151.80 88.28 152.20 86.92 C 152.45 83.36 151.99 79.68 153.25 76.25 C 154.74 71.28 153.93 66.06 154.53 60.98 C 154.55 56.81 153.98 52.60 152.37 48.73 C 151.81 47.83 151.24 46.93 150.66 46.03 C 150.57 45.46 150.39 44.32 150.31 43.75 C 147.29 39.30 145.18 34.22 141.33 30.38 C 139.38 32.86 136.81 34.66 134.01 36.05 M 35.43 46.05 C 36.67 47.19 37.77 49.41 39.80 48.60 C 42.81 48.12 42.27 41.90 39.03 42.59 C 37.02 42.21 36.51 44.84 35.43 46.05 Z" />
</g>
<g id="#fdfab0ff">
<path fill="#fdfab0" opacity="1.00" d=" M 56.89 3.60 C 60.97 3.32 65.06 3.38 69.14 3.63 C 74.54 5.67 79.44 8.79 83.45 12.96 C 83.96 14.48 84.48 16.00 84.97 17.53 C 84.21 17.58 82.70 17.68 81.94 17.73 C 80.69 18.24 79.43 18.73 78.18 19.23 C 72.21 19.03 66.60 21.51 60.82 22.70 C 59.85 23.10 58.87 23.50 57.88 23.88 C 56.95 24.43 56.01 24.98 55.08 25.52 C 54.62 25.00 53.71 23.94 53.25 23.42 C 52.69 23.38 51.57 23.31 51.01 23.27 C 47.42 20.44 43.74 17.69 39.89 15.23 C 38.21 14.40 36.54 13.57 34.94 12.62 C 33.81 12.45 32.69 12.28 31.56 12.13 C 31.65 11.85 31.82 11.30 31.90 11.02 C 34.57 10.07 37.19 9.02 39.76 7.83 C 43.91 6.74 47.97 5.11 52.34 5.23 C 53.86 4.69 55.39 4.19 56.89 3.60 Z" />
</g>
<g id="#04040486">
<path fill="#040404" opacity="0.53" d=" M 94.05 16.34 C 98.59 15.20 103.30 15.51 107.93 15.71 C 103.34 16.46 98.69 16.49 94.05 16.34 Z" />
</g>
<g id="#fefefefe">
<path fill="#fefefe" opacity="1.00" d=" M 119.48 18.86 C 120.58 17.61 121.74 15.83 123.71 16.53 C 126.32 16.49 125.41 19.84 125.37 21.48 C 123.96 21.56 122.55 21.63 121.15 21.64 C 120.60 20.71 120.04 19.79 119.48 18.86 Z" />
<path fill="#fefefe" opacity="1.00" d=" M 135.27 15.70 C 137.07 15.67 138.87 15.64 140.67 15.62 C 140.65 16.43 140.61 18.05 140.59 18.86 C 139.67 20.08 139.34 21.56 139.03 23.02 C 138.69 24.07 138.33 25.11 137.94 26.14 C 137.28 26.41 135.95 26.95 135.29 27.22 C 135.49 26.27 135.90 24.37 136.10 23.41 C 137.07 20.80 135.97 18.22 135.27 15.70 Z" />
</g>
<g id="#fefefeff">
<path fill="#fefefe" opacity="1.00" d=" M 91.07 19.90 C 92.42 19.64 93.76 19.35 95.07 18.96 C 100.07 18.23 105.15 18.89 110.18 18.45 C 110.77 23.53 110.54 29.33 114.26 33.32 C 107.83 33.18 101.40 33.28 94.96 33.22 C 91.19 33.00 87.62 34.54 83.87 34.64 C 81.77 36.05 79.55 37.29 77.14 38.07 C 76.12 38.48 75.12 38.93 74.13 39.40 C 72.33 39.78 70.53 40.15 68.72 40.50 C 66.79 42.31 64.84 44.11 62.80 45.81 C 60.55 48.91 57.76 51.57 54.87 54.07 C 53.42 58.33 52.59 62.77 51.08 67.01 C 48.39 72.90 47.21 79.61 49.09 85.94 C 49.20 86.82 49.44 88.58 49.56 89.46 C 48.97 89.99 48.41 90.53 47.86 91.09 C 46.96 88.54 45.76 86.11 44.30 83.83 C 43.89 83.49 43.07 82.80 42.66 82.45 C 42.65 80.61 42.59 78.77 42.42 76.94 C 41.46 74.66 40.70 72.30 39.64 70.06 C 39.36 67.96 39.04 65.87 38.63 63.79 C 42.02 62.86 45.71 61.95 48.08 59.12 C 50.47 57.06 51.40 54.00 52.42 51.14 C 53.03 45.33 50.18 39.88 45.54 36.52 C 48.14 33.79 49.97 29.95 54.04 29.21 C 57.20 27.59 60.41 26.08 63.70 24.75 C 66.47 24.17 69.29 23.78 71.95 22.79 C 75.63 22.16 79.39 21.80 82.94 20.59 C 84.05 21.33 85.32 21.77 86.65 21.81 C 87.90 20.69 89.51 20.31 91.07 19.90 Z" />
<path fill="#fefefe" opacity="1.00" d=" M 134.01 36.05 C 136.81 34.66 139.38 32.86 141.33 30.38 C 145.18 34.22 147.29 39.30 150.31 43.75 C 150.39 44.32 150.57 45.46 150.66 46.03 C 151.24 46.93 151.81 47.83 152.37 48.73 C 153.98 52.60 154.55 56.81 154.53 60.98 C 153.93 66.06 154.74 71.28 153.25 76.25 C 151.99 79.68 152.45 83.36 152.20 86.92 C 151.80 88.28 151.43 89.64 151.03 91.00 C 150.61 92.63 150.32 94.29 149.94 95.93 C 146.99 100.30 145.42 105.37 142.81 109.92 C 141.94 111.99 141.04 114.06 140.38 116.21 C 139.62 117.50 138.90 118.81 138.23 120.15 C 137.49 121.82 136.70 123.46 135.95 125.13 C 134.60 125.66 133.27 126.21 131.93 126.72 C 128.43 128.14 125.12 129.95 121.94 131.95 C 117.95 133.29 114.14 135.11 110.09 136.28 C 105.05 136.22 100.01 136.34 94.97 136.20 C 91.46 134.97 87.70 135.77 84.08 135.37 C 81.31 133.49 78.16 132.36 75.01 131.28 C 72.14 128.71 68.35 127.17 66.15 123.88 C 63.01 119.51 60.53 114.71 57.66 110.16 C 56.22 106.44 55.14 102.57 53.23 99.05 C 51.02 97.62 49.73 95.36 48.48 93.14 C 48.93 92.51 49.39 91.89 49.84 91.27 L 51.00 93.05 C 51.67 93.20 53.02 93.49 53.70 93.64 C 53.13 91.10 52.31 88.59 52.23 85.96 C 51.77 84.58 51.31 83.20 50.80 81.85 C 50.76 79.92 50.76 78.00 50.77 76.07 C 52.45 72.52 53.89 68.84 54.76 64.99 C 55.36 63.36 55.70 61.64 56.01 59.93 C 58.91 53.55 64.83 49.36 69.62 44.49 C 71.11 42.65 73.64 42.83 75.68 42.11 C 78.43 41.10 81.02 39.72 83.70 38.55 C 86.63 37.06 90.02 37.00 93.07 35.81 C 98.05 35.67 103.03 35.77 108.01 35.72 C 113.54 35.64 118.86 37.65 124.38 37.61 C 127.59 39.89 131.18 41.86 133.47 45.16 C 133.89 45.29 134.73 45.55 135.16 45.68 C 138.72 48.07 141.36 51.46 144.33 54.50 C 144.27 59.47 144.27 64.44 144.31 69.42 C 144.90 69.41 146.06 69.40 146.64 69.40 C 146.76 67.60 146.94 65.80 147.18 64.01 C 146.49 60.26 146.65 56.39 147.31 52.65 C 142.05 46.70 136.00 41.14 128.71 37.85 C 130.49 37.30 132.25 36.67 134.01 36.05 Z" />
</g>
<g id="#33696bff">
<path fill="#33696b" opacity="1.00" d=" M 116.34 23.88 C 117.30 24.53 118.26 25.17 119.23 25.80 C 121.07 26.34 122.87 26.99 124.60 27.84 C 126.25 26.78 127.89 25.68 129.50 24.56 C 131.70 24.18 133.90 23.79 136.10 23.41 C 135.90 24.37 135.49 26.27 135.29 27.22 C 135.95 26.95 137.28 26.41 137.94 26.14 C 135.89 28.06 133.67 29.79 131.48 31.55 C 128.70 31.55 125.90 31.76 123.14 31.36 C 120.74 30.45 118.90 28.52 116.86 27.03 C 116.69 25.98 116.51 24.93 116.34 23.88 Z" />
</g>
<g id="#ffffffff">
<path fill="#ffffff" opacity="1.00" d=" M 35.43 46.05 C 36.51 44.84 37.02 42.21 39.03 42.59 C 42.27 41.90 42.81 48.12 39.80 48.60 C 37.77 49.41 36.67 47.19 35.43 46.05 Z" />
</g>
<g id="#0b0b0b7e">
<path fill="#0b0b0b" opacity="0.49" d=" M 21.90 49.03 C 22.00 46.93 23.19 45.12 24.12 43.31 C 23.65 47.04 23.66 50.81 24.19 54.53 C 23.25 52.79 22.07 51.06 21.90 49.03 Z" />
</g>
<g id="#f0ffffff">
<path fill="#f0ffff" opacity="1.00" d=" M 30.31 49.18 C 32.35 50.51 34.27 52.02 36.38 53.26 L 38.02 54.30 C 38.36 54.64 39.04 55.30 39.38 55.63 C 36.97 55.65 34.56 55.49 32.15 55.53 C 31.40 53.45 30.78 51.33 30.31 49.18 Z" />
</g>
<g id="#316b6eff">
<path fill="#316b6e" opacity="1.00" d=" M 36.38 53.26 C 39.96 51.23 44.01 50.07 48.06 51.42 C 47.28 53.15 46.49 54.88 45.70 56.61 C 39.86 59.06 33.49 58.72 27.30 58.62 C 26.92 58.19 26.17 57.34 25.79 56.91 C 27.90 56.41 30.01 55.89 32.15 55.53 C 34.56 55.49 36.97 55.65 39.38 55.63 C 39.04 55.30 38.36 54.64 38.02 54.30 L 36.38 53.26 M 39.14 55.98 C 41.35 55.40 43.53 54.68 45.67 53.85 C 43.22 51.32 40.84 54.27 39.14 55.98 Z" />
</g>
<g id="#25494bff">
<path fill="#25494b" opacity="1.00" d=" M 39.14 55.98 C 40.84 54.27 43.22 51.32 45.67 53.85 C 43.53 54.68 41.35 55.40 39.14 55.98 Z" />
</g>
<g id="#e34590ff">
<path fill="#e34590" opacity="1.00" d=" M 155.40 79.14 C 155.77 79.31 156.51 79.64 156.89 79.81 C 157.56 84.26 158.71 88.62 160.14 92.88 C 162.49 100.01 164.24 107.31 166.31 114.51 C 167.08 117.26 167.72 120.06 167.76 122.93 C 167.91 133.29 167.53 143.65 167.87 154.01 C 168.79 162.62 168.51 171.30 168.34 179.95 C 167.18 183.18 166.45 186.58 166.55 190.03 C 166.60 198.52 166.56 207.00 166.61 215.49 C 167.58 215.57 168.56 215.65 169.54 215.73 C 169.61 207.82 169.51 199.90 169.53 191.99 C 169.44 187.22 171.58 182.74 171.44 177.96 C 171.35 171.30 171.60 164.63 171.24 157.97 C 170.26 149.90 170.36 141.74 170.78 133.64 C 174.14 146.75 177.88 159.76 180.51 173.05 C 182.00 179.92 182.38 186.98 182.23 193.99 C 182.08 202.46 182.57 210.95 181.76 219.40 C 179.53 218.91 177.25 218.79 174.99 218.78 C 149.01 218.87 123.04 218.79 97.07 218.82 C 92.36 218.83 87.63 218.59 82.94 219.11 C 84.82 205.79 88.06 192.53 87.58 179.00 C 86.62 174.45 84.47 170.24 83.25 165.74 C 81.29 158.67 78.67 151.79 75.48 145.18 C 73.57 141.32 72.19 137.23 71.20 133.04 C 75.82 134.68 80.12 137.32 84.94 138.33 C 93.31 138.84 101.71 138.82 110.10 138.72 C 120.52 138.11 128.52 130.20 138.48 127.98 C 142.74 119.28 145.74 110.00 150.44 101.51 C 154.33 94.76 155.49 86.83 155.40 79.14 Z" />
</g>
<g id="#1e1e1e56">
<path fill="#1e1e1e" opacity="0.34" d=" M 46.76 220.00 C 49.75 219.46 52.72 218.86 55.70 218.28 C 55.60 218.71 55.41 219.57 55.31 220.00 L 46.76 220.00 Z" />
</g>
<g id="#20202048">
<path fill="#202020" opacity="0.28" d=" M 58.98 219.42 C 65.98 218.01 73.18 219.43 80.23 218.25 C 80.18 218.69 80.08 219.56 80.03 220.00 L 57.43 220.00 L 58.98 219.42 Z" />
</g>
<g id="#946a7df7">
<path fill="#946a7d" opacity="0.97" d=" M 81.64 220.00 C 81.97 219.78 82.62 219.33 82.94 219.11 C 87.63 218.59 92.36 218.83 97.07 218.82 C 123.04 218.79 149.01 218.87 174.99 218.78 C 177.25 218.79 179.53 218.91 181.76 219.40 L 182.98 220.00 L 81.64 220.00 Z" />
</g>
<g id="#20202047">
<path fill="#202020" opacity="0.28" d=" M 184.81 219.19 C 186.01 218.27 186.93 218.54 187.58 220.00 L 184.87 220.00 L 184.81 219.19 Z" />
</g>
</svg>
