<?xml version="1.0" encoding="UTF-8" ?>
<!DOCTYPE svg PUBLIC "-//W3C//DTD SVG 1.1//EN" "http://www.w3.org/Graphics/SVG/1.1/DTD/svg11.dtd">
<svg width="210pt" height="220pt" viewBox="0 0 210 220" version="1.1" xmlns="http://www.w3.org/2000/svg">
<g id="#000000ff">
<path fill="#000000" opacity="1.00" d=" M 87.02 25.66 C 90.97 23.21 95.14 20.42 99.96 20.42 C 108.12 20.11 116.36 21.54 123.96 24.51 C 132.02 28.03 138.50 34.67 142.16 42.64 C 144.49 50.90 143.54 59.59 142.20 67.94 C 137.06 68.05 134.52 72.92 131.84 76.54 C 131.18 72.66 131.41 68.60 129.93 64.89 C 128.24 59.08 121.87 56.07 120.64 50.02 C 120.76 47.32 122.55 45.06 123.55 42.63 C 120.41 39.41 116.75 36.49 112.38 35.20 C 104.87 32.60 96.81 33.74 89.02 33.28 C 83.79 32.72 79.57 36.77 76.62 40.58 C 73.24 47.07 72.32 54.48 70.34 61.45 C 70.07 61.86 69.54 62.66 69.27 63.07 C 67.69 55.53 68.77 47.34 72.74 40.68 C 75.72 34.25 81.31 29.60 87.02 25.66 Z" />
<path fill="#000000" opacity="1.00" d=" M 97.02 59.56 C 99.42 57.20 102.99 57.94 106.05 57.83 C 108.57 57.69 110.85 58.87 113.17 59.66 C 115.39 62.04 117.84 64.22 119.77 66.86 C 116.32 65.68 113.33 63.40 109.81 62.41 C 106.44 62.17 103.07 62.02 99.75 61.44 C 98.84 60.81 97.93 60.19 97.02 59.56 Z" />
<path fill="#000000" opacity="1.00" d=" M 73.78 60.55 C 77.05 59.16 80.69 59.53 84.15 59.24 C 85.97 61.72 88.68 64.39 87.49 67.78 C 85.88 72.75 83.52 77.48 80.59 81.80 C 79.74 82.90 78.65 84.76 80.16 85.78 C 81.59 85.44 82.94 84.83 84.31 84.33 C 85.20 85.36 86.08 86.40 86.96 87.44 C 89.15 86.12 91.32 84.73 93.80 84.04 C 93.73 83.84 93.60 83.45 93.53 83.25 C 94.42 83.90 95.32 84.53 96.22 85.16 C 95.51 85.47 94.08 86.09 93.36 86.40 C 95.50 86.98 97.69 86.81 99.86 86.53 C 99.75 84.90 99.61 83.28 99.40 81.66 C 99.01 81.00 98.22 79.67 97.83 79.01 C 102.22 82.36 103.77 87.85 106.25 92.53 C 107.94 96.23 110.02 100.17 109.36 104.37 C 108.00 105.77 106.00 104.97 104.34 104.85 C 105.48 104.70 107.75 104.41 108.89 104.27 C 108.85 96.51 103.81 90.14 100.99 83.22 C 100.71 84.16 100.14 86.03 99.85 86.97 C 97.06 88.13 93.75 87.83 91.73 85.39 C 90.16 86.36 88.54 87.27 86.90 88.13 C 85.96 87.27 85.01 86.41 84.06 85.55 C 83.46 85.90 82.25 86.61 81.65 86.96 C 81.28 87.00 80.55 87.09 80.19 87.13 C 78.14 91.47 77.40 96.49 75.75 101.07 C 74.62 103.67 76.03 106.29 76.65 108.81 C 76.91 108.64 77.42 108.30 77.68 108.12 C 76.35 109.42 76.11 111.11 76.80 112.76 C 74.89 111.65 75.05 109.22 74.26 107.40 L 75.30 107.04 C 75.56 105.63 74.89 104.99 73.28 105.12 C 71.83 104.73 72.09 102.93 71.74 101.81 C 70.84 97.27 69.99 92.71 69.79 88.08 C 69.52 79.70 67.31 71.22 69.17 62.88 L 69.16 63.86 C 68.65 74.31 70.03 84.66 70.74 95.05 C 71.22 97.96 71.79 100.96 73.26 103.55 C 73.48 103.50 73.92 103.39 74.14 103.33 C 76.01 96.92 79.67 90.45 78.48 83.58 C 81.74 79.51 83.92 74.75 86.17 70.09 C 83.31 71.60 80.31 72.91 77.05 73.18 C 79.89 72.07 82.85 71.20 85.47 69.59 C 80.95 69.45 76.51 70.47 72.00 70.48 C 73.46 68.85 74.80 66.96 76.86 66.03 C 79.75 64.75 82.97 65.37 86.02 65.31 L 87.09 65.41 L 86.16 62.79 C 83.19 63.37 80.17 63.48 77.16 63.62 C 74.71 64.23 72.47 65.41 70.15 66.36 C 70.93 64.23 71.44 61.53 73.78 60.55 M 84.40 66.23 L 84.29 67.04 C 86.17 69.11 86.27 64.52 84.40 66.23 M 78.32 67.22 C 78.75 67.96 78.75 67.96 78.32 67.22 M 81.66 67.52 C 80.85 68.89 83.32 69.54 84.16 68.79 C 84.89 67.56 82.45 66.66 81.66 67.52 M 74.95 68.27 L 74.85 69.08 C 76.66 71.00 77.06 66.57 74.95 68.27 Z" />
<path fill="#000000" opacity="1.00" d=" M 105.90 64.32 C 106.81 64.44 108.63 64.69 109.54 64.81 C 108.98 66.03 108.45 67.25 107.91 68.47 C 109.51 67.93 111.07 67.27 112.63 66.59 C 113.20 67.09 114.34 68.10 114.91 68.61 C 116.77 68.58 118.63 68.49 120.50 68.39 C 119.85 68.64 118.55 69.12 117.91 69.37 C 119.06 69.87 120.20 70.38 121.34 70.92 C 117.96 71.08 115.02 69.55 112.43 67.54 C 108.73 69.87 104.12 68.59 100.10 68.18 L 103.51 67.12 L 102.10 64.84 L 104.60 63.96 C 104.42 64.79 104.06 66.44 103.88 67.27 C 104.57 66.29 105.22 65.30 105.90 64.32 Z" />
<path fill="#000000" opacity="1.00" d=" M 136.24 76.20 C 139.25 74.15 141.30 69.32 145.56 70.37 C 147.62 74.83 146.57 80.26 145.43 84.89 C 145.06 80.11 145.50 75.33 145.35 70.56 C 141.94 70.77 140.01 73.82 137.60 75.80 C 137.72 76.08 137.95 76.65 138.07 76.93 C 139.54 77.56 141.17 77.58 142.74 77.83 C 142.68 79.53 142.64 81.23 142.58 82.93 L 140.69 82.02 C 141.16 83.01 141.63 84.00 142.10 85.00 C 140.17 86.48 138.10 87.76 135.79 88.54 C 136.05 87.95 136.57 86.76 136.84 86.17 L 134.50 86.92 C 136.65 83.77 136.83 79.84 136.24 76.20 M 136.23 85.05 C 136.89 85.66 137.56 86.26 138.24 86.85 C 138.96 86.08 140.38 84.52 141.10 83.75 C 140.65 83.62 139.74 83.36 139.29 83.23 L 139.44 82.04 C 138.82 80.78 138.20 79.51 137.58 78.24 C 137.11 80.51 136.54 82.75 136.23 85.05 Z" />
<path fill="#000000" opacity="1.00" d=" M 131.26 94.23 C 131.86 92.45 132.46 90.69 133.06 88.92 C 133.63 90.40 134.16 91.91 134.79 93.38 C 134.32 93.29 133.36 93.13 132.89 93.04 C 132.34 96.75 132.15 100.60 130.58 104.07 C 130.91 100.75 131.55 97.47 131.92 94.17 C 130.13 98.10 129.13 102.72 125.67 105.63 C 119.72 110.90 112.46 114.32 105.86 118.65 C 102.34 121.05 97.99 121.25 93.93 121.91 C 89.98 122.54 85.90 122.41 82.07 121.20 C 86.30 131.52 96.83 136.95 106.20 141.81 C 111.77 138.78 116.94 135.00 121.71 130.83 C 124.45 128.46 128.07 126.09 128.12 122.04 C 128.27 116.88 128.41 111.67 130.04 106.72 L 130.34 105.65 C 130.08 110.12 128.58 114.55 129.33 119.04 C 128.69 121.91 128.78 125.26 126.53 127.46 C 120.57 133.19 113.91 138.13 106.84 142.41 C 108.00 142.68 109.15 142.94 110.33 143.14 C 117.23 140.26 124.84 140.13 132.21 140.18 C 132.20 140.96 132.20 142.54 132.19 143.32 L 132.51 143.78 C 131.82 149.96 130.82 156.16 128.95 162.10 C 128.40 164.20 128.55 166.40 128.29 168.54 C 128.21 166.56 128.18 164.58 128.18 162.61 C 127.36 163.68 126.55 164.76 125.76 165.86 C 119.11 163.58 113.35 159.34 108.54 154.29 C 106.06 151.34 101.71 152.89 98.47 153.41 C 98.80 158.05 98.41 162.69 98.55 167.34 C 98.12 162.79 97.64 158.23 97.84 153.65 C 93.24 155.13 88.85 157.13 84.44 159.07 C 84.49 163.10 84.79 167.20 86.34 170.94 C 85.97 172.37 85.14 170.81 84.99 170.16 L 84.80 169.41 C 84.57 166.34 84.42 163.24 83.54 160.27 C 82.40 160.50 80.11 160.97 78.97 161.20 C 78.17 155.34 76.68 149.19 78.53 143.38 C 79.36 140.88 79.29 138.22 79.43 135.63 C 80.35 134.62 81.29 133.63 82.24 132.64 C 86.29 134.27 90.76 134.94 94.44 137.42 C 98.58 139.71 101.31 144.27 106.45 144.61 C 106.54 143.97 106.61 143.33 106.68 142.69 C 99.56 139.51 92.83 135.33 87.04 130.07 C 83.92 127.38 82.55 123.34 80.93 119.67 C 80.44 119.66 79.45 119.63 78.96 119.61 C 78.88 118.09 78.77 116.58 78.52 115.08 C 80.02 116.85 81.37 118.73 82.77 120.58 C 89.45 122.44 96.66 121.41 103.15 119.33 C 110.26 115.12 117.58 111.13 124.14 106.07 C 128.04 103.21 129.38 98.44 131.26 94.23 Z" />
<path fill="#000000" opacity="1.00" d=" M 80.16 96.29 C 81.03 94.15 82.44 91.29 85.17 91.46 C 88.28 91.92 91.42 91.45 94.54 91.63 C 97.73 92.73 99.79 95.58 102.16 97.82 C 103.82 99.54 106.19 100.66 107.11 102.99 C 105.52 102.19 104.03 101.22 102.52 100.28 L 102.50 99.42 L 101.21 99.80 L 101.68 98.80 C 100.12 98.51 98.54 98.23 97.02 97.77 C 95.62 97.69 94.22 97.64 92.82 97.62 C 90.07 99.16 86.78 98.43 83.78 98.79 C 82.42 99.16 81.03 99.39 79.64 99.58 C 78.75 101.24 77.85 102.90 76.86 104.51 C 76.49 101.37 78.92 98.95 80.16 96.29 M 83.18 92.68 C 82.91 93.06 82.37 93.83 82.11 94.21 C 81.72 95.11 80.93 96.92 80.54 97.82 C 84.82 93.82 90.96 95.64 96.19 95.73 C 97.54 96.38 98.91 97.00 100.30 97.58 C 98.94 95.59 97.15 93.91 95.08 92.69 C 91.12 92.48 87.14 92.50 83.18 92.68 M 81.99 97.43 C 85.60 97.43 89.65 98.44 92.96 96.54 C 89.32 96.34 85.40 95.79 81.99 97.43 Z" />
</g>
<g id="#fefefeff">
<path fill="#fefefe" opacity="1.00" d=" M 76.62 40.58 C 79.57 36.77 83.79 32.72 89.02 33.28 C 96.81 33.74 104.87 32.60 112.38 35.20 C 116.75 36.49 120.41 39.41 123.55 42.63 C 122.55 45.06 120.76 47.32 120.64 50.02 C 121.87 56.07 128.24 59.08 129.93 64.89 C 131.41 68.60 131.18 72.66 131.84 76.54 C 134.52 72.92 137.06 68.05 142.20 67.94 C 143.54 59.59 144.49 50.90 142.16 42.64 C 145.04 50.92 143.47 59.79 142.69 68.28 C 144.84 68.54 147.94 68.39 148.73 70.99 C 151.39 78.91 145.59 86.20 142.53 93.09 C 140.65 95.58 136.25 97.24 134.79 93.38 C 134.16 91.91 133.63 90.40 133.06 88.92 C 132.46 90.69 131.86 92.45 131.26 94.23 C 129.38 98.44 128.04 103.21 124.14 106.07 C 117.58 111.13 110.26 115.12 103.15 119.33 C 96.66 121.41 89.45 122.44 82.77 120.58 C 81.37 118.73 80.02 116.85 78.52 115.08 C 78.09 114.50 77.23 113.34 76.80 112.76 C 76.11 111.11 76.35 109.42 77.68 108.12 C 77.42 108.30 76.91 108.64 76.65 108.81 C 76.03 106.29 74.62 103.67 75.75 101.07 C 77.40 96.49 78.14 91.47 80.19 87.13 C 80.55 87.09 81.28 87.00 81.65 86.96 C 82.25 86.61 83.46 85.90 84.06 85.55 C 85.01 86.41 85.96 87.27 86.90 88.13 C 88.54 87.27 90.16 86.36 91.73 85.39 C 93.75 87.83 97.06 88.13 99.85 86.97 C 100.14 86.03 100.71 84.16 100.99 83.22 C 103.81 90.14 108.85 96.51 108.89 104.27 C 107.75 104.41 105.48 104.70 104.34 104.85 C 106.00 104.97 108.00 105.77 109.36 104.37 C 110.02 100.17 107.94 96.23 106.25 92.53 C 103.77 87.85 102.22 82.36 97.83 79.01 C 98.22 79.67 99.01 81.00 99.40 81.66 C 99.61 83.28 99.75 84.90 99.86 86.53 C 97.69 86.81 95.50 86.98 93.36 86.40 C 94.08 86.09 95.51 85.47 96.22 85.16 C 95.32 84.53 94.42 83.90 93.53 83.25 C 93.60 83.45 93.73 83.84 93.80 84.04 C 91.32 84.73 89.15 86.12 86.96 87.44 C 86.08 86.40 85.20 85.36 84.31 84.33 C 82.94 84.83 81.59 85.44 80.16 85.78 C 78.65 84.76 79.74 82.90 80.59 81.80 C 83.52 77.48 85.88 72.75 87.49 67.78 C 88.68 64.39 85.97 61.72 84.15 59.24 C 80.69 59.53 77.05 59.16 73.78 60.55 C 71.44 61.53 70.93 64.23 70.15 66.36 C 72.47 65.41 74.71 64.23 77.16 63.62 C 80.17 63.48 83.19 63.37 86.16 62.79 L 87.09 65.41 L 86.02 65.31 C 82.97 65.37 79.75 64.75 76.86 66.03 C 74.80 66.96 73.46 68.85 72.00 70.48 C 76.51 70.47 80.95 69.45 85.47 69.59 C 82.85 71.20 79.89 72.07 77.05 73.18 C 80.31 72.91 83.31 71.60 86.17 70.09 C 83.92 74.75 81.74 79.51 78.48 83.58 C 79.67 90.45 76.01 96.92 74.14 103.33 C 73.92 103.39 73.48 103.50 73.26 103.55 C 71.79 100.96 71.22 97.96 70.74 95.05 C 70.03 84.66 68.65 74.31 69.16 63.86 L 69.27 63.07 C 69.54 62.66 70.07 61.86 70.34 61.45 C 72.32 54.48 73.24 47.07 76.62 40.58 M 97.02 59.56 C 97.93 60.19 98.84 60.81 99.75 61.44 C 103.07 62.02 106.44 62.17 109.81 62.41 C 113.33 63.40 116.32 65.68 119.77 66.86 C 117.84 64.22 115.39 62.04 113.17 59.66 C 110.85 58.87 108.57 57.69 106.05 57.83 C 102.99 57.94 99.42 57.20 97.02 59.56 M 105.90 64.32 C 105.22 65.30 104.57 66.29 103.88 67.27 C 104.06 66.44 104.42 64.79 104.60 63.96 L 102.10 64.84 L 103.51 67.12 L 100.10 68.18 C 104.12 68.59 108.73 69.87 112.43 67.54 C 115.02 69.55 117.96 71.08 121.34 70.92 C 120.20 70.38 119.06 69.87 117.91 69.37 C 118.55 69.12 119.85 68.64 120.50 68.39 C 118.63 68.49 116.77 68.58 114.91 68.61 C 114.34 68.10 113.20 67.09 112.63 66.59 C 111.07 67.27 109.51 67.93 107.91 68.47 C 108.45 67.25 108.98 66.03 109.54 64.81 C 108.63 64.69 106.81 64.44 105.90 64.32 M 136.24 76.20 C 136.83 79.84 136.65 83.77 134.50 86.92 L 136.84 86.17 C 136.57 86.76 136.05 87.95 135.79 88.54 C 138.10 87.76 140.17 86.48 142.10 85.00 C 141.63 84.00 141.16 83.01 140.69 82.02 L 142.58 82.93 C 142.64 81.23 142.68 79.53 142.74 77.83 C 141.17 77.58 139.54 77.56 138.07 76.93 C 137.95 76.65 137.72 76.08 137.60 75.80 C 140.01 73.82 141.94 70.77 145.35 70.56 C 145.50 75.33 145.06 80.11 145.43 84.89 C 146.57 80.26 147.62 74.83 145.56 70.37 C 141.30 69.32 139.25 74.15 136.24 76.20 M 80.16 96.29 C 78.92 98.95 76.49 101.37 76.86 104.51 C 77.85 102.90 78.75 101.24 79.64 99.58 C 81.03 99.39 82.42 99.16 83.78 98.79 C 86.78 98.43 90.07 99.16 92.82 97.62 C 94.22 97.64 95.62 97.69 97.02 97.77 C 98.54 98.23 100.12 98.51 101.68 98.80 L 101.21 99.80 L 102.50 99.42 L 102.52 100.28 C 104.03 101.22 105.52 102.19 107.11 102.99 C 106.19 100.66 103.82 99.54 102.16 97.82 C 99.79 95.58 97.73 92.73 94.54 91.63 C 91.42 91.45 88.28 91.92 85.17 91.46 C 82.44 91.29 81.03 94.15 80.16 96.29 Z" />
<path fill="#fefefe" opacity="1.00" d=" M 84.40 66.23 C 86.27 64.52 86.17 69.11 84.29 67.04 L 84.40 66.23 Z" />
<path fill="#fefefe" opacity="1.00" d=" M 78.32 67.22 C 78.75 67.96 78.75 67.96 78.32 67.22 Z" />
<path fill="#fefefe" opacity="1.00" d=" M 81.66 67.52 C 82.45 66.66 84.89 67.56 84.16 68.79 C 83.32 69.54 80.85 68.89 81.66 67.52 Z" />
<path fill="#fefefe" opacity="1.00" d=" M 74.95 68.27 C 77.06 66.57 76.66 71.00 74.85 69.08 L 74.95 68.27 Z" />
<path fill="#fefefe" opacity="1.00" d=" M 136.23 85.05 C 136.54 82.75 137.11 80.51 137.58 78.24 C 138.20 79.51 138.82 80.78 139.44 82.04 L 139.29 83.23 C 139.74 83.36 140.65 83.62 141.10 83.75 C 140.38 84.52 138.96 86.08 138.24 86.85 C 137.56 86.26 136.89 85.66 136.23 85.05 Z" />
<path fill="#fefefe" opacity="1.00" d=" M 83.18 92.68 C 87.14 92.50 91.12 92.48 95.08 92.69 C 97.15 93.91 98.94 95.59 100.30 97.58 C 98.91 97.00 97.54 96.38 96.19 95.73 C 90.96 95.64 84.82 93.82 80.54 97.82 C 80.93 96.92 81.72 95.11 82.11 94.21 C 82.37 93.83 82.91 93.06 83.18 92.68 Z" />
<path fill="#fefefe" opacity="1.00" d=" M 81.99 97.43 C 85.40 95.79 89.32 96.34 92.96 96.54 C 89.65 98.44 85.60 97.43 81.99 97.43 Z" />
<path fill="#fefefe" opacity="1.00" d=" M 125.67 105.63 C 129.13 102.72 130.13 98.10 131.92 94.17 C 131.55 97.47 130.91 100.75 130.58 104.07 C 130.52 104.60 130.44 105.12 130.34 105.65 L 130.04 106.72 C 128.41 111.67 128.27 116.88 128.12 122.04 C 128.07 126.09 124.45 128.46 121.71 130.83 C 116.94 135.00 111.77 138.78 106.20 141.81 C 96.83 136.95 86.30 131.52 82.07 121.20 C 85.90 122.41 89.98 122.54 93.93 121.91 C 97.99 121.25 102.34 121.05 105.86 118.65 C 112.46 114.32 119.72 110.90 125.67 105.63 Z" />
<path fill="#fefefe" opacity="1.00" d=" M 73.28 105.12 C 74.89 104.99 75.56 105.63 75.30 107.04 L 74.26 107.40 C 74.01 106.83 73.52 105.69 73.28 105.12 Z" />
<path fill="#fefefe" opacity="1.00" d=" M 78.24 119.59 L 78.96 119.61 C 79.45 119.63 80.44 119.66 80.93 119.67 C 82.55 123.34 83.92 127.38 87.04 130.07 C 92.83 135.33 99.56 139.51 106.68 142.69 C 106.61 143.33 106.54 143.97 106.45 144.61 C 101.31 144.27 98.58 139.71 94.44 137.42 C 90.76 134.94 86.29 134.27 82.24 132.64 C 81.29 133.63 80.35 134.62 79.43 135.63 C 79.29 138.22 79.36 140.88 78.53 143.38 C 76.68 149.19 78.17 155.34 78.97 161.20 C 80.11 160.97 82.40 160.50 83.54 160.27 C 84.42 163.24 84.57 166.34 84.80 169.41 L 84.99 170.16 C 85.14 170.81 85.97 172.37 86.34 170.94 C 84.79 167.20 84.49 163.10 84.44 159.07 C 88.85 157.13 93.24 155.13 97.84 153.65 C 97.64 158.23 98.12 162.79 98.55 167.34 C 98.41 162.69 98.80 158.05 98.47 153.41 C 101.71 152.89 106.06 151.34 108.54 154.29 C 113.35 159.34 119.11 163.58 125.76 165.86 C 126.55 164.76 127.36 163.68 128.18 162.61 C 128.18 164.58 128.21 166.56 128.29 168.54 C 128.55 166.40 128.40 164.20 128.95 162.10 C 130.82 156.16 131.82 149.96 132.51 143.78 L 132.19 143.32 C 132.20 142.54 132.20 140.96 132.21 140.18 C 124.84 140.13 117.23 140.26 110.33 143.14 C 109.15 142.94 108.00 142.68 106.84 142.41 C 113.91 138.13 120.57 133.19 126.53 127.46 C 128.78 125.26 128.69 121.91 129.33 119.04 C 130.23 120.18 131.06 121.36 131.81 122.60 L 131.79 122.82 C 134.14 126.50 136.96 129.96 140.69 132.32 C 143.83 133.76 147.06 135.07 149.79 137.26 C 154.86 139.84 160.42 141.28 165.78 143.16 C 167.21 143.68 168.62 144.27 170.02 144.87 C 171.44 145.67 172.90 146.41 174.48 146.83 L 174.52 147.05 C 179.60 150.11 184.91 152.88 190.80 153.99 C 193.90 156.08 197.73 156.58 200.88 158.53 C 202.67 160.15 204.23 162.08 205.52 164.13 C 206.18 166.77 206.83 169.41 207.71 171.98 C 207.93 181.65 207.73 191.33 207.80 201.00 C 139.03 201.00 70.25 201.00 1.48 201.00 C 1.63 189.63 1.14 178.23 1.75 166.88 C 2.80 164.75 3.58 162.50 4.58 160.34 C 7.36 157.68 10.82 155.93 14.23 154.24 C 15.39 153.40 16.57 152.60 17.76 151.82 C 22.34 149.90 27.19 148.62 31.61 146.31 C 34.68 144.76 38.04 144.01 41.37 143.23 C 41.95 143.02 43.13 142.59 43.71 142.38 C 48.15 140.89 52.75 139.90 57.00 137.89 C 58.62 136.86 60.34 136.01 62.05 135.16 C 63.10 133.96 64.66 133.56 66.08 132.97 C 66.26 132.65 66.64 132.01 66.82 131.68 C 71.80 129.42 75.30 125.16 78.45 120.85 C 78.39 120.53 78.29 119.90 78.24 119.59 M 53.03 177.87 C 52.68 185.04 53.04 192.23 52.87 199.40 C 54.40 199.45 55.94 199.49 57.47 199.53 C 57.45 196.35 57.43 193.16 57.67 189.99 C 58.83 193.11 59.81 196.29 60.73 199.50 C 62.34 199.49 63.95 199.48 65.56 199.49 C 65.50 192.13 65.50 184.77 65.57 177.41 C 64.07 177.41 62.57 177.42 61.08 177.43 C 60.91 180.51 61.34 183.60 61.48 186.63 C 61.21 186.66 60.68 186.72 60.42 186.75 C 59.29 183.64 58.39 180.44 57.31 177.31 C 55.96 177.59 54.03 176.98 53.03 177.87 M 74.49 177.59 C 72.36 178.05 70.04 179.57 69.91 181.96 C 69.60 185.31 69.76 188.68 69.75 192.04 C 69.85 193.97 69.63 196.33 71.31 197.69 C 74.46 200.70 80.95 199.97 82.36 195.52 C 82.82 191.08 82.65 186.57 82.49 182.11 C 82.11 178.45 77.69 176.78 74.49 177.59 M 107.45 177.44 C 107.49 184.78 107.47 192.13 107.47 199.47 C 111.51 199.01 116.45 200.73 119.85 197.92 C 120.76 194.45 121.31 189.83 118.07 187.37 C 120.83 185.31 120.77 180.94 118.35 178.65 C 115.08 176.66 111.07 177.65 107.45 177.44 M 126.15 177.40 C 125.02 184.73 124.28 192.12 122.94 199.42 C 124.75 199.46 126.56 199.48 128.38 199.52 C 128.35 198.26 128.32 197.01 128.30 195.76 C 129.22 195.76 131.06 195.78 131.98 195.78 C 131.93 196.71 131.82 198.55 131.76 199.47 C 133.57 199.47 135.38 199.47 137.19 199.47 C 135.82 192.19 135.09 184.80 133.62 177.54 C 131.13 177.33 128.64 177.43 126.15 177.40 M 139.84 177.45 C 139.88 184.78 139.88 192.12 139.85 199.46 C 143.19 199.37 146.58 199.79 149.89 199.19 C 150.90 198.69 152.50 198.39 152.48 196.96 C 152.92 191.99 152.71 186.97 152.65 181.99 C 152.73 180.51 151.73 179.35 151.06 178.14 C 147.37 177.34 143.59 177.37 139.84 177.45 M 85.77 177.45 C 85.77 178.51 85.78 180.64 85.78 181.71 C 86.91 181.73 88.03 181.75 89.16 181.77 C 89.11 187.66 89.19 193.55 89.11 199.45 C 90.92 199.47 92.73 199.48 94.54 199.49 C 94.50 193.56 94.53 187.62 94.51 181.69 C 95.39 181.71 97.15 181.76 98.03 181.78 C 98.03 180.33 98.04 178.88 98.05 177.44 C 93.95 177.44 89.86 177.44 85.77 177.45 Z" />
<path fill="#fefefe" opacity="1.00" d=" M 75.39 180.79 C 75.77 181.00 76.55 181.41 76.94 181.61 C 77.32 186.04 77.23 190.52 77.01 194.95 C 76.63 195.29 75.86 195.98 75.48 196.32 C 75.04 191.16 75.13 185.96 75.39 180.79 Z" />
<path fill="#fefefe" opacity="1.00" d=" M 112.86 180.62 C 115.34 180.97 114.86 183.33 115.00 185.17 C 114.55 185.31 113.65 185.60 113.19 185.74 C 113.06 184.04 112.95 182.33 112.86 180.62 Z" />
<path fill="#fefefe" opacity="1.00" d=" M 145.51 180.57 C 145.91 180.92 146.70 181.60 147.09 181.95 C 147.54 185.92 147.30 189.97 147.22 193.97 C 147.32 195.11 146.22 195.70 145.58 196.45 C 145.34 191.16 145.43 185.87 145.51 180.57 Z" />
<path fill="#fefefe" opacity="1.00" d=" M 130.01 182.00 C 130.59 185.25 131.16 188.54 131.20 191.86 C 130.59 192.01 129.36 192.30 128.74 192.45 C 129.13 188.96 129.49 185.47 130.01 182.00 Z" />
<path fill="#fefefe" opacity="1.00" d=" M 112.91 188.84 C 116.02 189.68 115.79 195.22 112.99 196.37 C 112.88 193.86 112.88 191.35 112.91 188.84 Z" />
</g>
<g id="#fc0101ff">
<path fill="#fc0101" opacity="1.00" d=" M 53.03 177.87 C 54.03 176.98 55.96 177.59 57.31 177.31 C 58.39 180.44 59.29 183.64 60.42 186.75 C 60.68 186.72 61.21 186.66 61.48 186.63 C 61.34 183.60 60.91 180.51 61.08 177.43 C 62.57 177.42 64.07 177.41 65.57 177.41 C 65.50 184.77 65.50 192.13 65.56 199.49 C 63.95 199.48 62.34 199.49 60.73 199.50 C 59.81 196.29 58.83 193.11 57.67 189.99 C 57.43 193.16 57.45 196.35 57.47 199.53 C 55.94 199.49 54.40 199.45 52.87 199.40 C 53.04 192.23 52.68 185.04 53.03 177.87 Z" />
<path fill="#fc0101" opacity="1.00" d=" M 74.49 177.59 C 77.69 176.78 82.11 178.45 82.49 182.11 C 82.65 186.57 82.82 191.08 82.36 195.52 C 80.95 199.97 74.46 200.70 71.31 197.69 C 69.63 196.33 69.85 193.97 69.75 192.04 C 69.76 188.68 69.60 185.31 69.91 181.96 C 70.04 179.57 72.36 178.05 74.49 177.59 M 75.39 180.79 C 75.13 185.96 75.04 191.16 75.48 196.32 C 75.86 195.98 76.63 195.29 77.01 194.95 C 77.23 190.52 77.32 186.04 76.94 181.61 C 76.55 181.41 75.77 181.00 75.39 180.79 Z" />
<path fill="#fc0101" opacity="1.00" d=" M 107.45 177.44 C 111.07 177.65 115.08 176.66 118.35 178.65 C 120.77 180.94 120.83 185.31 118.07 187.37 C 121.31 189.83 120.76 194.45 119.85 197.92 C 116.45 200.73 111.51 199.01 107.47 199.47 C 107.47 192.13 107.49 184.78 107.45 177.44 M 112.86 180.62 C 112.95 182.33 113.06 184.04 113.19 185.74 C 113.65 185.60 114.55 185.31 115.00 185.17 C 114.86 183.33 115.34 180.97 112.86 180.62 M 112.91 188.84 C 112.88 191.35 112.88 193.86 112.99 196.37 C 115.79 195.22 116.02 189.68 112.91 188.84 Z" />
<path fill="#fc0101" opacity="1.00" d=" M 126.15 177.40 C 128.64 177.43 131.13 177.33 133.62 177.54 C 135.09 184.80 135.82 192.19 137.19 199.47 C 135.38 199.47 133.57 199.47 131.76 199.47 C 131.82 198.55 131.93 196.71 131.98 195.78 C 131.06 195.78 129.22 195.76 128.30 195.76 C 128.32 197.01 128.35 198.26 128.38 199.52 C 126.56 199.48 124.75 199.46 122.94 199.42 C 124.28 192.12 125.02 184.73 126.15 177.40 M 130.01 182.00 C 129.49 185.47 129.13 188.96 128.74 192.45 C 129.36 192.30 130.59 192.01 131.20 191.86 C 131.16 188.54 130.59 185.25 130.01 182.00 Z" />
<path fill="#fc0101" opacity="1.00" d=" M 139.84 177.45 C 143.59 177.37 147.37 177.34 151.06 178.14 C 151.73 179.35 152.73 180.51 152.65 181.99 C 152.71 186.97 152.92 191.99 152.48 196.96 C 152.50 198.39 150.90 198.69 149.89 199.19 C 146.58 199.79 143.19 199.37 139.85 199.46 C 139.88 192.12 139.88 184.78 139.84 177.45 M 145.51 180.57 C 145.43 185.87 145.34 191.16 145.58 196.45 C 146.22 195.70 147.32 195.11 147.22 193.97 C 147.30 189.97 147.54 185.92 147.09 181.95 C 146.70 181.60 145.91 180.92 145.51 180.57 Z" />
<path fill="#fc0101" opacity="1.00" d=" M 85.77 177.45 C 89.86 177.44 93.95 177.44 98.05 177.44 C 98.04 178.88 98.03 180.33 98.03 181.78 C 97.15 181.76 95.39 181.71 94.51 181.69 C 94.53 187.62 94.50 193.56 94.54 199.49 C 92.73 199.48 90.92 199.47 89.11 199.45 C 89.19 193.55 89.11 187.66 89.16 181.77 C 88.03 181.75 86.91 181.73 85.78 181.71 C 85.78 180.64 85.77 178.51 85.77 177.45 Z" />
</g>
</svg>
