<?xml version="1.0" encoding="UTF-8" ?>
<!DOCTYPE svg PUBLIC "-//W3C//DTD SVG 1.1//EN" "http://www.w3.org/Graphics/SVG/1.1/DTD/svg11.dtd">
<svg width="210pt" height="220pt" viewBox="0 0 210 220" version="1.1" xmlns="http://www.w3.org/2000/svg">
<g id="#2c2c2c50">
<path fill="#2c2c2c" opacity="0.31" d=" M 96.26 43.83 C 95.96 42.03 99.92 42.22 99.54 43.98 C 98.43 44.21 97.34 44.16 96.26 43.83 Z" />
</g>
<g id="#2f2f2f55">
<path fill="#2f2f2f" opacity="0.33" d=" M 164.36 44.03 C 163.87 42.10 168.08 42.13 167.68 44.04 C 166.57 44.07 165.47 44.07 164.36 44.03 Z" />
</g>
<g id="#2b2b2b51">
<path fill="#2b2b2b" opacity="0.32" d=" M 199.81 43.71 C 200.96 42.34 203.00 42.34 204.15 43.71 C 202.70 44.19 201.25 44.19 199.81 43.71 Z" />
</g>
<g id="#20202094">
<path fill="#202020" opacity="0.58" d=" M 26.43 44.94 C 31.06 43.47 35.95 43.78 40.62 44.86 C 35.89 44.68 31.16 44.63 26.43 44.94 Z" />
</g>
<g id="#161617aa">
<path fill="#161617" opacity="0.67" d=" M 74.78 59.85 C 75.29 54.42 73.35 48.38 75.94 43.38 C 75.91 48.80 75.21 54.29 76.45 59.64 C 76.85 56.22 76.98 52.79 77.15 49.36 C 77.50 49.58 78.22 50.02 78.57 50.24 C 77.99 53.40 77.83 56.62 77.89 59.83 C 77.11 59.83 75.55 59.84 74.78 59.85 Z" />
</g>
<g id="#030306ff">
<path fill="#030306" opacity="1.00" d=" M 75.94 43.38 C 78.27 44.60 79.94 46.72 80.73 49.21 C 81.05 50.35 81.58 51.44 82.50 52.21 L 83.66 53.43 C 83.95 53.76 84.54 54.43 84.83 54.76 C 84.95 51.32 85.02 47.89 85.27 44.46 C 86.27 49.17 86.49 54.00 86.02 58.78 C 83.87 59.53 82.95 56.70 81.75 55.47 C 81.68 55.36 81.55 55.15 81.49 55.04 C 80.58 53.40 79.67 51.76 78.57 50.24 C 78.22 50.02 77.50 49.58 77.15 49.36 C 76.98 52.79 76.85 56.22 76.45 59.64 C 75.21 54.29 75.91 48.80 75.94 43.38 Z" />
</g>
<g id="#1b1b1bb7">
<path fill="#1b1b1b" opacity="0.72" d=" M 84.41 44.23 C 85.13 44.09 86.57 43.80 87.29 43.66 C 86.87 48.64 87.38 53.64 87.00 58.61 C 86.75 58.66 86.27 58.74 86.02 58.78 C 86.49 54.00 86.27 49.17 85.27 44.46 C 85.02 47.89 84.95 51.32 84.83 54.76 C 84.54 54.43 83.95 53.76 83.66 53.43 C 84.48 50.43 84.58 47.32 84.41 44.23 Z" />
</g>
<g id="#14141558">
<path fill="#141415" opacity="0.35" d=" M 87.29 43.66 C 88.44 49.05 87.49 54.61 87.87 60.07 C 86.32 59.99 84.75 60.06 83.23 59.70 C 82.50 58.38 82.17 56.90 81.75 55.47 C 82.95 56.70 83.87 59.53 86.02 58.78 C 86.27 58.74 86.75 58.66 87.00 58.61 C 87.38 53.64 86.87 48.64 87.29 43.66 Z" />
</g>
<g id="#1f1f1f68">
<path fill="#1f1f1f" opacity="0.41" d=" M 91.96 58.32 C 88.04 54.06 88.99 45.41 94.95 43.50 C 93.43 45.18 91.44 46.70 90.90 49.02 C 89.92 52.14 90.91 55.36 91.96 58.32 Z" />
</g>
<g id="#1f1f1fd4">
<path fill="#1f1f1f" opacity="0.83" d=" M 94.95 43.50 L 96.26 43.83 C 97.34 44.16 98.43 44.21 99.54 43.98 L 101.02 43.76 C 104.26 47.10 105.49 51.73 104.31 56.25 C 103.45 58.15 101.69 59.78 99.57 60.05 C 98.20 60.01 96.83 59.98 95.46 59.97 C 94.15 59.79 93.02 59.05 91.96 58.32 C 90.91 55.36 89.92 52.14 90.90 49.02 C 91.44 46.70 93.43 45.18 94.95 43.50 M 94.63 47.45 C 91.88 50.89 93.05 57.87 98.21 58.19 C 103.21 57.25 104.08 50.28 100.85 46.96 C 98.90 46.08 96.12 45.44 94.63 47.45 Z" />
</g>
<g id="#2121215e">
<path fill="#212121" opacity="0.37" d=" M 101.02 43.76 C 105.75 46.04 106.00 51.80 105.08 56.31 L 104.31 56.25 C 105.49 51.73 104.26 47.10 101.02 43.76 Z" />
</g>
<g id="#1c1c1d7d">
<path fill="#1c1c1d" opacity="0.49" d=" M 106.44 44.11 C 110.29 43.99 114.15 43.86 118.00 44.02 C 119.36 43.53 119.60 45.55 120.68 45.53 C 121.73 44.40 123.13 43.84 124.66 43.72 C 124.68 45.89 124.67 48.06 124.67 50.24 C 126.51 50.22 128.35 50.20 130.19 50.18 C 130.24 48.17 130.29 46.17 130.35 44.17 C 131.63 44.09 132.92 44.02 134.21 43.95 C 134.08 48.96 134.61 54.00 133.99 58.98 C 133.80 59.32 133.42 60.01 133.23 60.35 C 132.99 55.04 133.19 49.72 133.09 44.40 L 131.24 44.43 C 131.25 46.47 131.27 48.52 131.28 50.56 C 128.95 50.67 126.59 50.85 124.27 50.57 C 123.36 49.01 124.23 45.58 122.27 45.27 C 121.73 49.72 121.66 54.26 122.26 58.70 C 122.52 58.73 123.04 58.80 123.30 58.84 C 123.67 56.79 123.79 54.71 123.91 52.63 C 126.23 52.54 128.56 52.47 130.88 52.40 C 131.02 54.66 131.15 56.92 131.27 59.19 L 130.42 59.30 C 130.32 57.38 130.21 55.45 130.11 53.53 C 128.32 53.55 126.53 53.57 124.75 53.60 C 124.72 55.75 124.69 57.89 124.66 60.03 C 123.32 59.97 121.98 59.90 120.65 59.80 C 120.72 55.61 120.91 51.42 120.85 47.23 C 118.98 46.89 117.08 47.03 115.21 47.13 C 115.19 51.37 115.18 55.62 115.13 59.86 L 113.98 59.86 C 113.96 55.41 114.00 50.97 114.22 46.53 C 115.72 46.22 117.22 45.94 118.70 45.56 C 115.41 43.04 110.51 44.25 106.77 45.32 C 108.48 45.73 110.21 46.12 111.93 46.50 C 112.17 50.92 112.22 55.35 112.19 59.78 L 111.32 59.87 C 111.14 55.68 111.13 51.47 111.06 47.27 C 109.51 47.10 107.96 46.93 106.42 46.75 C 106.42 46.09 106.43 44.77 106.44 44.11 Z" />
</g>
<g id="#1c1c1c81">
<path fill="#1c1c1c" opacity="0.51" d=" M 136.55 46.96 C 136.47 45.76 136.80 44.62 137.55 43.69 C 137.73 48.93 137.59 54.19 137.77 59.43 L 139.22 59.52 C 139.46 54.20 139.25 48.88 139.31 43.56 C 141.61 48.72 140.02 54.80 140.15 60.32 C 138.99 60.03 137.82 59.75 136.66 59.45 C 136.65 55.29 136.45 51.12 136.55 46.96 Z" />
</g>
<g id="#060606fe">
<path fill="#060606" opacity="1.00" d=" M 137.55 43.69 L 139.31 43.56 C 139.25 48.88 139.46 54.20 139.22 59.52 L 137.77 59.43 C 137.59 54.19 137.73 48.93 137.55 43.69 Z" />
</g>
<g id="#1e1e1e4e">
<path fill="#1e1e1e" opacity="0.31" d=" M 142.55 52.00 C 142.83 49.05 141.63 45.59 143.78 43.11 C 143.69 48.99 143.69 54.86 143.76 60.73 C 141.65 58.31 142.87 54.89 142.55 52.00 Z" />
</g>
<g id="#050306ff">
<path fill="#050306" opacity="1.00" d=" M 143.78 43.11 L 144.82 44.40 C 145.32 45.36 146.08 45.90 147.11 46.02 L 147.57 46.09 L 147.67 47.39 C 147.59 48.92 148.68 50.11 149.81 50.99 C 150.33 51.47 151.37 52.42 151.89 52.90 C 151.87 53.01 151.84 53.24 151.83 53.35 C 152.11 53.48 152.68 53.73 152.96 53.86 C 153.63 55.65 153.97 57.54 154.19 59.43 C 152.25 57.79 150.46 55.98 148.96 53.93 C 148.74 53.50 148.30 52.65 148.07 52.22 C 147.88 51.83 147.48 51.05 147.28 50.66 C 146.89 50.85 146.10 51.21 145.71 51.39 C 145.20 54.03 145.23 56.73 144.82 59.38 L 143.76 60.73 C 143.69 54.86 143.69 48.99 143.78 43.11 Z" />
<path fill="#050306" opacity="1.00" d=" M 162.90 69.93 C 166.68 69.92 171.63 69.16 173.86 73.06 C 173.76 75.39 171.56 76.84 170.82 78.94 C 171.50 79.86 172.20 80.76 172.94 81.64 C 173.82 82.66 174.50 83.83 175.08 85.04 C 174.67 85.00 173.85 84.91 173.44 84.86 L 171.63 84.50 C 171.61 84.48 171.58 84.45 171.57 84.43 L 170.82 83.03 C 170.24 81.82 169.64 80.57 168.61 79.69 L 167.60 78.74 C 166.51 78.30 165.40 77.94 164.29 77.56 C 164.10 79.94 163.99 82.33 163.52 84.68 C 161.89 79.94 162.83 74.83 162.90 69.93 M 164.23 71.27 C 164.14 72.81 163.91 74.36 164.11 75.90 C 165.90 77.44 168.93 77.09 170.94 76.10 C 173.01 74.59 171.34 72.25 170.13 70.82 C 168.16 70.99 166.20 71.13 164.23 71.27 Z" />
</g>
<g id="#20202194">
<path fill="#202021" opacity="0.58" d=" M 144.82 44.40 C 146.51 43.77 147.27 44.31 147.11 46.02 C 146.08 45.90 145.32 45.36 144.82 44.40 Z" />
</g>
<g id="#cececeff">
<path fill="#cecece" opacity="1.00" d=" M 151.89 52.90 C 152.50 49.93 152.62 46.90 152.84 43.88 C 152.85 47.21 152.62 50.54 152.96 53.86 C 152.68 53.73 152.11 53.48 151.83 53.35 C 151.84 53.24 151.87 53.01 151.89 52.90 Z" />
<path fill="#cecece" opacity="1.00" d=" M 51.47 121.56 C 52.89 120.88 54.30 120.14 55.81 119.68 C 57.23 119.47 58.65 119.35 60.08 119.21 C 61.07 120.09 62.07 120.97 63.07 121.86 L 63.13 121.97 C 63.42 123.58 63.14 125.36 64.09 126.79 C 64.39 126.94 65.00 127.25 65.30 127.40 C 63.76 127.80 62.16 127.73 60.60 127.48 C 59.15 127.33 57.70 127.30 56.25 127.23 C 55.46 127.95 54.67 128.68 53.90 129.41 C 51.41 126.98 47.92 127.53 44.78 127.44 C 42.94 125.91 40.99 124.52 39.11 123.06 C 42.03 122.06 45.03 121.31 48.03 120.56 C 48.23 121.09 48.62 122.17 48.82 122.71 C 46.46 121.53 44.00 122.58 41.73 123.41 C 44.21 124.85 46.97 125.78 49.87 125.54 C 50.49 125.54 51.11 125.53 51.74 125.53 C 51.65 124.20 51.56 122.88 51.47 121.56 Z" />
</g>
<g id="#171718df">
<path fill="#171718" opacity="0.87" d=" M 152.84 43.88 C 153.41 44.00 154.57 44.25 155.14 44.37 C 155.65 49.49 155.28 54.64 155.32 59.77 C 154.54 59.77 152.98 59.76 152.20 59.76 C 151.03 57.87 149.94 55.93 148.96 53.93 C 150.46 55.98 152.25 57.79 154.19 59.43 C 153.97 57.54 153.63 55.65 152.96 53.86 C 152.62 50.54 152.85 47.21 152.84 43.88 Z" />
<path fill="#171718" opacity="0.87" d=" M 92.59 69.51 C 96.54 69.57 101.29 68.32 104.29 71.68 C 104.98 74.66 105.59 77.81 104.88 80.85 C 104.38 82.91 102.42 84.05 100.92 85.34 C 98.17 85.53 95.41 85.35 92.66 85.29 C 92.51 80.03 92.56 74.77 92.59 69.51 M 95.44 72.38 C 94.90 75.89 95.21 79.46 95.26 83.00 C 97.43 82.92 99.60 82.80 101.77 82.63 L 101.82 82.09 C 103.61 79.59 103.23 76.22 102.20 73.50 L 102.20 72.82 C 100.15 71.99 97.34 70.44 95.44 72.38 Z" />
</g>
<g id="#0f0f0fff">
<path fill="#0f0f0f" opacity="1.00" d=" M 158.43 48.82 C 160.12 46.97 161.48 44.04 164.36 44.03 C 165.47 44.07 166.57 44.07 167.68 44.04 C 170.00 43.94 171.75 46.01 171.98 48.18 C 171.39 48.12 170.22 47.99 169.64 47.92 C 167.78 46.20 165.26 45.56 162.94 46.78 C 160.03 49.86 160.23 55.90 164.28 57.92 C 165.58 58.08 166.89 57.90 168.19 57.77 C 168.53 57.37 169.21 56.57 169.55 56.17 C 169.76 55.72 170.19 54.83 170.40 54.38 C 168.96 53.55 167.52 52.72 166.08 51.88 C 168.04 51.75 170.01 51.64 171.97 51.54 C 171.99 53.84 172.03 56.14 172.03 58.44 C 170.73 59.27 169.27 59.94 167.69 59.86 C 166.58 59.83 165.47 59.83 164.36 59.87 C 158.99 59.70 158.11 53.01 158.43 48.82 Z" />
<path fill="#0f0f0f" opacity="1.00" d=" M 9.13 122.39 C 9.95 119.97 11.20 117.73 12.65 115.64 L 12.76 116.82 C 12.87 117.48 13.09 118.79 13.20 119.44 C 13.42 120.49 13.66 121.53 13.93 122.56 C 12.33 122.52 10.73 122.46 9.13 122.39 Z" />
</g>
<g id="#2828287b">
<path fill="#282828" opacity="0.48" d=" M 184.78 46.84 C 183.34 48.25 179.15 45.90 181.17 44.41 C 182.41 45.15 183.72 45.84 184.78 46.84 Z" />
</g>
<g id="#151314ec">
<path fill="#151314" opacity="0.93" d=" M 181.17 44.41 C 185.01 44.16 188.90 43.86 192.72 44.37 C 192.98 44.81 193.50 45.68 193.77 46.12 C 191.93 46.13 190.11 46.17 188.28 46.21 C 188.08 50.50 188.02 54.79 188.05 59.08 C 187.48 59.28 186.35 59.67 185.79 59.87 C 185.74 55.83 186.03 51.77 185.68 47.75 L 184.78 46.84 C 183.72 45.84 182.41 45.15 181.17 44.41 Z" />
</g>
<g id="#0b0b0bff">
<path fill="#0b0b0b" opacity="1.00" d=" M 194.85 48.98 C 196.01 46.82 197.72 45.01 199.81 43.71 C 201.25 44.19 202.70 44.19 204.15 43.71 C 205.55 44.68 206.90 45.70 208.20 46.80 C 208.34 47.39 208.61 48.57 208.75 49.16 L 209.60 49.92 C 208.36 51.28 208.32 53.64 209.66 54.95 C 208.11 56.98 206.40 58.91 204.19 60.25 C 202.76 59.70 201.32 59.69 199.88 60.20 C 197.45 58.90 195.23 56.95 195.05 54.00 C 195.33 52.33 195.26 50.63 194.85 48.98 M 199.34 46.24 L 199.18 46.66 C 196.35 49.13 196.30 53.73 198.39 56.67 C 199.81 58.40 202.14 58.16 204.12 57.97 C 205.09 57.04 205.68 55.93 205.89 54.65 C 207.85 54.24 207.86 49.66 205.88 49.33 C 206.09 45.76 201.75 46.07 199.34 46.24 Z" />
<path fill="#0b0b0b" opacity="1.00" d=" M 45.58 55.84 C 46.01 55.45 46.85 54.66 47.28 54.27 C 48.48 55.43 48.74 56.95 48.56 58.56 C 47.51 58.20 46.48 57.83 45.44 57.46 C 45.48 57.05 45.55 56.25 45.58 55.84 Z" />
<path fill="#0b0b0b" opacity="1.00" d=" M 178.45 69.77 C 181.67 69.78 184.90 69.82 188.13 69.87 L 189.86 70.80 C 186.78 70.94 183.68 71.00 180.64 71.56 C 180.17 73.00 180.11 74.53 179.91 76.02 C 182.49 76.20 185.07 76.37 187.66 76.53 C 187.67 76.79 187.68 77.29 187.69 77.54 C 185.23 77.72 182.76 77.90 180.29 78.09 C 180.22 79.79 180.16 81.48 180.09 83.18 C 183.29 83.41 186.58 83.53 189.52 84.94 L 188.75 84.95 C 185.31 84.98 181.86 84.93 178.42 84.92 C 178.24 79.87 178.26 74.82 178.45 69.77 Z" />
</g>
<g id="#000000ff">
<path fill="#000000" opacity="1.00" d=" M 4.06 62.80 C 8.76 54.21 16.69 47.06 26.43 44.94 C 31.16 44.63 35.89 44.68 40.62 44.86 L 40.94 44.90 C 41.67 46.15 42.73 46.57 44.13 46.14 C 45.27 46.47 46.42 46.79 47.57 47.11 C 48.09 48.42 49.06 49.02 50.47 48.92 C 54.69 51.81 58.44 55.34 61.31 59.60 C 61.44 61.75 62.34 63.76 64.11 65.06 L 64.26 65.66 C 64.66 68.29 64.84 70.96 64.95 73.62 C 64.29 72.06 63.65 70.49 63.07 68.89 C 60.83 60.95 55.30 54.17 48.24 50.00 C 38.13 44.24 24.63 45.10 15.47 52.33 C 4.73 60.23 -0.07 75.22 4.46 87.82 C 7.75 97.92 16.53 105.75 26.76 108.39 C 27.76 108.72 28.77 109.05 29.77 109.39 C 28.96 109.84 28.14 110.29 27.33 110.73 C 24.88 111.99 22.55 113.46 20.36 115.13 L 19.79 115.03 C 18.61 114.67 17.54 114.06 16.47 113.46 C 18.42 112.28 22.51 111.37 22.00 108.47 C 20.52 107.78 18.97 107.27 17.45 106.70 C 9.71 102.35 4.07 94.77 1.88 86.19 C 2.47 84.90 2.25 83.75 1.23 82.75 C 1.03 82.29 0.64 81.37 0.44 80.91 C 1.69 79.12 1.64 76.74 0.41 74.96 C 0.60 74.51 0.98 73.61 1.17 73.16 C 2.26 72.00 2.55 70.39 2.10 68.88 L 2.03 68.08 C 2.32 67.55 2.89 66.48 3.18 65.94 L 3.11 65.08 C 3.35 64.51 3.82 63.37 4.06 62.80 Z" />
<path fill="#000000" opacity="1.00" d=" M 148.17 70.15 C 151.53 69.91 154.93 69.83 158.28 70.42 C 155.87 70.75 153.44 70.83 151.06 71.24 C 148.82 71.80 149.14 74.45 148.90 76.21 C 151.49 76.37 154.08 76.47 156.67 76.53 C 156.68 76.79 156.70 77.32 156.71 77.58 C 154.01 77.61 148.74 76.70 149.17 80.91 C 149.90 85.29 155.58 82.94 158.53 84.50 C 155.09 84.88 151.61 84.84 148.15 84.81 C 148.04 79.92 148.06 75.03 148.17 70.15 Z" />
</g>
<g id="#2323237b">
<path fill="#232323" opacity="0.48" d=" M 40.94 44.90 C 42.32 44.53 43.38 44.95 44.13 46.14 C 42.73 46.57 41.67 46.15 40.94 44.90 Z" />
</g>
<g id="#0c0c0ced">
<path fill="#0c0c0c" opacity="0.93" d=" M 106.77 45.32 C 110.51 44.25 115.41 43.04 118.70 45.56 C 117.22 45.94 115.72 46.22 114.22 46.53 C 114.00 50.97 113.96 55.41 113.98 59.86 C 113.54 59.84 112.64 59.80 112.19 59.78 C 112.22 55.35 112.17 50.92 111.93 46.50 C 110.21 46.12 108.48 45.73 106.77 45.32 Z" />
</g>
<g id="#060607f6">
<path fill="#060607" opacity="0.96" d=" M 122.27 45.27 C 124.23 45.58 123.36 49.01 124.27 50.57 C 126.59 50.85 128.95 50.67 131.28 50.56 C 131.27 48.52 131.25 46.47 131.24 44.43 L 133.09 44.40 C 133.19 49.72 132.99 55.04 133.23 60.35 C 132.75 60.21 131.78 59.94 131.30 59.80 L 131.27 59.19 C 131.15 56.92 131.02 54.66 130.88 52.40 C 128.56 52.47 126.23 52.54 123.91 52.63 C 123.79 54.71 123.67 56.79 123.30 58.84 C 123.04 58.80 122.52 58.73 122.26 58.70 C 121.66 54.26 121.73 49.72 122.27 45.27 Z" />
</g>
<g id="#ffffffff">
<path fill="#ffffff" opacity="1.00" d=" M 15.47 52.33 C 24.63 45.10 38.13 44.24 48.24 50.00 C 55.30 54.17 60.83 60.95 63.07 68.89 C 64.35 74.55 64.27 80.42 63.08 86.08 C 60.71 95.72 53.16 103.80 43.91 107.23 C 38.46 109.34 32.45 109.07 26.76 108.39 C 16.53 105.75 7.75 97.92 4.46 87.82 C -0.07 75.22 4.73 60.23 15.47 52.33 M 45.58 55.84 C 45.55 56.25 45.48 57.05 45.44 57.46 C 46.48 57.83 47.51 58.20 48.56 58.56 C 48.74 56.95 48.48 55.43 47.28 54.27 C 46.85 54.66 46.01 55.45 45.58 55.84 M 14.26 55.01 C 12.71 56.00 14.42 58.45 15.88 57.35 C 17.45 56.39 15.73 53.74 14.26 55.01 M 11.29 58.71 C 11.44 59.21 11.75 60.22 11.90 60.72 C 22.78 60.88 33.68 60.76 44.57 60.77 C 44.51 60.22 44.41 59.13 44.36 58.58 C 33.34 58.63 22.31 58.46 11.29 58.71 Z" />
</g>
<g id="#2625258e">
<path fill="#262525" opacity="0.56" d=" M 188.28 46.21 C 190.11 46.17 191.93 46.13 193.77 46.12 C 192.21 46.62 190.62 47.03 189.04 47.42 C 189.01 51.59 189.01 55.75 188.93 59.92 C 188.14 59.91 186.57 59.88 185.79 59.87 C 186.35 59.67 187.48 59.28 188.05 59.08 C 188.02 54.79 188.08 50.50 188.28 46.21 Z" />
</g>
<g id="#19191944">
<path fill="#191919" opacity="0.27" d=" M 47.57 47.11 C 49.02 46.94 49.99 47.55 50.47 48.92 C 49.06 49.02 48.09 48.42 47.57 47.11 Z" />
</g>
<g id="#212122c8">
<path fill="#212122" opacity="0.78" d=" M 100.85 46.96 C 104.08 50.28 103.21 57.25 98.21 58.19 C 102.66 56.20 102.31 50.82 100.85 46.96 Z" />
<path fill="#212122" opacity="0.78" d=" M 198.39 56.67 C 196.30 53.73 196.35 49.13 199.18 46.66 C 198.20 49.39 196.64 52.60 198.48 55.34 C 199.46 57.59 202.00 57.81 204.12 57.97 C 202.14 58.16 199.81 58.40 198.39 56.67 Z" />
<path fill="#212122" opacity="0.78" d=" M 109.97 70.90 C 112.32 68.54 116.11 68.72 119.03 69.78 C 116.50 69.74 113.79 69.35 111.42 70.45 C 109.70 74.72 110.43 79.52 110.04 84.03 C 106.99 80.40 106.72 74.51 109.97 70.90 Z" />
<path fill="#212122" opacity="0.78" d=" M 146.98 69.39 C 150.89 69.34 154.80 69.35 158.72 69.44 C 158.66 70.42 158.60 71.41 158.54 72.39 C 155.84 72.36 153.14 72.33 150.44 72.30 C 150.31 73.10 150.05 74.70 149.92 75.50 C 152.61 75.62 155.31 75.66 158.01 75.64 C 157.91 76.61 158.66 78.77 156.92 78.52 C 154.73 78.74 152.52 78.67 150.32 78.70 C 150.35 79.67 150.40 81.61 150.42 82.58 C 153.12 82.64 155.84 82.45 158.52 82.82 C 159.68 83.33 159.72 84.57 158.67 85.24 C 154.87 85.69 151.03 85.39 147.22 85.42 C 146.62 80.09 146.83 74.73 146.98 69.39 M 148.17 70.15 C 148.06 75.03 148.04 79.92 148.15 84.81 C 151.61 84.84 155.09 84.88 158.53 84.50 C 155.58 82.94 149.90 85.29 149.17 80.91 C 148.74 76.70 154.01 77.61 156.71 77.58 C 156.70 77.32 156.68 76.79 156.67 76.53 C 154.08 76.47 151.49 76.37 148.90 76.21 C 149.14 74.45 148.82 71.80 151.06 71.24 C 153.44 70.83 155.87 70.75 158.28 70.42 C 154.93 69.83 151.53 69.91 148.17 70.15 Z" />
<path fill="#212122" opacity="0.78" d=" M 161.59 69.36 C 165.89 69.62 170.91 68.20 174.35 71.56 C 174.30 73.16 174.25 74.77 174.17 76.37 C 173.41 76.92 172.67 77.50 171.97 78.12 C 171.92 79.37 172.24 80.54 172.94 81.64 C 172.20 80.76 171.50 79.86 170.82 78.94 C 171.56 76.84 173.76 75.39 173.86 73.06 C 171.63 69.16 166.68 69.92 162.90 69.93 C 162.83 74.83 161.89 79.94 163.52 84.68 C 163.99 82.33 164.10 79.94 164.29 77.56 C 165.40 77.94 166.51 78.30 167.60 78.74 C 166.91 78.72 165.52 78.67 164.83 78.65 C 164.83 80.99 164.82 83.32 164.76 85.65 C 163.70 85.59 162.64 85.45 161.59 85.24 C 161.60 79.95 161.60 74.65 161.59 69.36 Z" />
<path fill="#212122" opacity="0.78" d=" M 164.23 71.27 C 166.20 71.13 168.16 70.99 170.13 70.82 C 171.34 72.25 173.01 74.59 170.94 76.10 C 168.93 77.09 165.90 77.44 164.11 75.90 C 163.91 74.36 164.14 72.81 164.23 71.27 M 164.43 72.41 C 164.60 73.21 164.92 74.80 165.08 75.59 C 167.21 75.79 169.35 75.59 171.48 75.45 C 171.26 74.64 170.82 73.02 170.59 72.21 C 168.54 72.28 166.49 72.34 164.43 72.41 Z" />
<path fill="#212122" opacity="0.78" d=" M 180.64 71.56 C 183.68 71.00 186.78 70.94 189.86 70.80 C 187.87 73.94 183.75 71.24 181.04 72.92 C 180.97 73.51 180.83 74.69 180.76 75.28 C 183.33 75.86 185.99 75.61 188.61 75.63 C 188.55 76.59 188.49 77.55 188.44 78.51 C 185.84 78.60 183.24 78.66 180.64 78.75 C 180.61 79.71 180.55 81.64 180.52 82.61 C 183.38 82.63 186.24 82.64 189.11 82.63 C 189.27 83.23 189.59 84.43 189.75 85.03 L 189.52 84.94 C 186.58 83.53 183.29 83.41 180.09 83.18 C 180.16 81.48 180.22 79.79 180.29 78.09 C 182.76 77.90 185.23 77.72 187.69 77.54 C 187.68 77.29 187.67 76.79 187.66 76.53 C 185.07 76.37 182.49 76.20 179.91 76.02 C 180.11 74.53 180.17 73.00 180.64 71.56 Z" />
</g>
<g id="#201f208d">
<path fill="#201f20" opacity="0.55" d=" M 147.67 47.39 C 149.33 46.92 150.76 49.70 149.81 50.99 C 148.68 50.11 147.59 48.92 147.67 47.39 Z" />
</g>
<g id="#1616166d">
<path fill="#161616" opacity="0.43" d=" M 164.28 57.92 C 160.23 55.90 160.03 49.86 162.94 46.78 C 162.43 49.68 160.76 53.43 163.27 55.83 C 164.50 57.28 166.48 57.37 168.19 57.77 C 166.89 57.90 165.58 58.08 164.28 57.92 Z" />
<path fill="#161616" opacity="0.43" d=" M 7.07 156.06 C 7.55 151.53 9.22 145.90 14.02 144.33 C 19.63 143.58 24.98 146.21 30.52 146.70 C 31.49 149.51 32.35 152.35 33.33 155.15 C 31.48 152.95 30.40 150.27 29.57 147.55 C 25.01 146.93 20.57 145.51 15.98 145.19 C 12.14 145.06 9.70 148.81 8.83 152.11 C 7.40 156.20 8.51 160.54 9.74 164.53 C 8.34 161.91 6.46 159.20 7.07 156.06 Z" />
</g>
<g id="#25242586">
<path fill="#252425" opacity="0.53" d=" M 208.20 46.80 C 208.34 47.39 208.61 48.57 208.75 49.16 C 208.61 48.57 208.34 47.39 208.20 46.80 Z" />
</g>
<g id="#24242470">
<path fill="#242424" opacity="0.44" d=" M 169.64 47.92 C 170.22 47.99 171.39 48.12 171.98 48.18 C 172.31 49.96 168.81 49.59 169.64 47.92 Z" />
</g>
<g id="#22232456">
<path fill="#222324" opacity="0.34" d=" M 80.73 49.21 C 82.35 48.32 83.75 51.12 82.50 52.21 C 81.58 51.44 81.05 50.35 80.73 49.21 Z" />
</g>
<g id="#2c2b2941">
<path fill="#2c2b29" opacity="0.25" d=" M 195.05 54.00 C 193.12 52.90 193.52 50.40 194.85 48.98 C 195.26 50.63 195.33 52.33 195.05 54.00 Z" />
</g>
<g id="#2726277a">
<path fill="#272627" opacity="0.48" d=" M 205.88 49.33 C 207.86 49.66 207.85 54.24 205.89 54.65 C 205.88 52.87 205.87 51.10 205.88 49.33 Z" />
</g>
<g id="#28272844">
<path fill="#282728" opacity="0.27" d=" M 209.60 49.92 L 210.00 50.25 L 210.00 54.56 L 209.66 54.95 C 208.32 53.64 208.36 51.28 209.60 49.92 Z" />
</g>
<g id="#1212122d">
<path fill="#121212" opacity="0.18" d=" M 77.89 59.83 C 77.83 56.62 77.99 53.40 78.57 50.24 C 79.67 51.76 80.58 53.40 81.49 55.04 C 80.80 54.78 79.43 54.26 78.74 54.00 C 78.70 55.88 78.65 57.76 78.60 59.64 L 77.89 59.83 Z" />
</g>
<g id="#25242596">
<path fill="#252425" opacity="0.59" d=" M 145.71 51.39 C 146.10 51.21 146.89 50.85 147.28 50.66 C 147.48 51.05 147.88 51.83 148.07 52.22 C 145.04 53.62 146.32 57.35 145.92 59.97 L 144.82 59.38 C 145.23 56.73 145.20 54.03 145.71 51.39 Z" />
</g>
<g id="#1e1e1e74">
<path fill="#1e1e1e" opacity="0.45" d=" M 165.51 51.16 C 168.01 51.16 170.52 51.21 173.03 51.27 C 173.00 53.67 173.77 56.43 172.03 58.44 C 172.03 56.14 171.99 53.84 171.97 51.54 C 170.01 51.64 168.04 51.75 166.08 51.88 C 167.52 52.72 168.96 53.55 170.40 54.38 C 170.19 54.83 169.76 55.72 169.55 56.17 C 167.80 54.71 165.19 53.97 165.51 51.16 Z" />
</g>
<g id="#020202ff">
<path fill="#020202" opacity="1.00" d=" M 14.26 55.01 C 15.73 53.74 17.45 56.39 15.88 57.35 C 14.42 58.45 12.71 56.00 14.26 55.01 Z" />
<path fill="#020202" opacity="1.00" d=" M 63.08 86.08 C 63.97 88.10 63.72 90.27 63.05 92.30 C 62.71 93.09 62.35 93.88 61.99 94.66 C 60.64 95.25 59.23 96.65 59.90 98.25 C 59.41 98.64 58.94 99.05 58.48 99.47 C 56.37 101.30 54.34 103.20 52.33 105.14 C 51.84 105.45 50.87 106.07 50.38 106.38 C 49.78 106.73 49.19 107.09 48.60 107.46 C 55.49 108.39 62.44 109.55 68.94 112.11 C 70.60 112.56 71.31 115.90 69.19 116.27 C 64.86 117.86 60.21 118.29 55.81 119.68 C 54.30 120.14 52.89 120.88 51.47 121.56 C 51.56 122.88 51.65 124.20 51.74 125.53 C 51.11 125.53 50.49 125.54 49.87 125.54 C 49.61 124.83 49.08 123.42 48.82 122.71 C 48.62 122.17 48.23 121.09 48.03 120.56 C 45.03 121.31 42.03 122.06 39.11 123.06 C 38.53 123.26 37.39 123.66 36.82 123.87 C 36.37 125.14 35.92 126.43 35.54 127.73 C 35.43 126.56 35.33 125.39 35.24 124.23 C 34.60 124.25 33.30 124.28 32.65 124.30 C 31.37 122.93 30.02 121.62 28.51 120.51 C 30.68 121.02 32.85 121.55 35.08 121.76 C 38.40 119.04 42.81 118.61 46.74 117.25 C 46.30 116.72 45.86 116.18 45.42 115.64 C 44.05 113.95 42.79 112.18 41.67 110.31 C 36.94 111.39 32.10 111.63 27.33 110.73 C 28.14 110.29 28.96 109.84 29.77 109.39 C 28.77 109.05 27.76 108.72 26.76 108.39 C 32.45 109.07 38.46 109.34 43.91 107.23 C 53.16 103.80 60.71 95.72 63.08 86.08 M 46.85 111.05 C 47.37 112.66 48.00 114.23 48.70 115.76 C 53.70 115.99 58.67 115.23 63.56 114.27 L 63.07 113.00 C 58.87 111.46 54.48 110.60 50.09 109.81 C 49.02 110.24 47.94 110.65 46.85 111.05 Z" />
</g>
<g id="#010101ff">
<path fill="#010101" opacity="1.00" d=" M 11.29 58.71 C 22.31 58.46 33.34 58.63 44.36 58.58 C 44.41 59.13 44.51 60.22 44.57 60.77 C 33.68 60.76 22.78 60.88 11.90 60.72 C 11.75 60.22 11.44 59.21 11.29 58.71 Z" />
<path fill="#010101" opacity="1.00" d=" M 54.14 130.00 C 54.83 129.97 56.22 129.92 56.91 129.89 L 57.24 130.81 C 56.38 132.52 56.42 134.66 57.96 135.98 L 58.02 136.15 C 57.96 137.65 57.88 139.15 57.79 140.65 C 54.03 142.58 50.23 144.58 46.03 145.39 C 42.17 146.34 38.16 146.12 34.24 146.66 C 32.35 149.70 35.67 153.16 37.64 155.44 L 37.73 155.62 C 38.84 158.13 40.29 160.45 41.81 162.72 L 42.14 163.32 C 42.30 163.60 42.62 164.15 42.78 164.43 C 45.50 164.74 48.24 164.80 50.97 164.91 C 51.21 165.46 51.69 166.56 51.93 167.12 C 47.55 167.25 42.32 168.42 39.00 164.70 C 38.63 164.10 38.28 163.49 37.94 162.87 C 37.05 160.15 35.73 157.58 33.64 155.59 C 33.56 155.48 33.41 155.26 33.33 155.15 C 32.35 152.35 31.49 149.51 30.52 146.70 C 24.98 146.21 19.63 143.58 14.02 144.33 C 9.22 145.90 7.55 151.53 7.07 156.06 C 6.46 159.20 8.34 161.91 9.74 164.53 L 9.98 165.08 C 10.49 167.12 12.21 168.37 14.08 169.09 C 15.00 169.61 15.90 170.16 16.76 170.77 C 18.08 172.22 19.33 173.78 20.15 175.58 C 19.62 175.80 18.57 176.22 18.04 176.43 L 17.02 175.95 C 16.77 173.81 15.41 171.92 13.11 171.82 C 12.54 171.68 11.40 171.41 10.84 171.27 C 10.98 169.90 10.32 169.05 8.88 168.70 C 8.66 168.50 8.23 168.11 8.01 167.91 C 8.50 165.75 7.48 163.47 5.31 162.77 L 5.21 162.08 C 5.61 160.56 5.27 158.95 4.06 157.90 L 4.11 157.49 C 5.03 153.75 5.94 150.02 6.92 146.31 C 7.11 146.01 7.50 145.43 7.69 145.14 C 10.66 143.05 14.17 140.79 17.98 141.78 C 22.12 142.66 26.20 143.88 30.46 144.00 C 30.86 142.96 31.26 141.91 31.66 140.86 C 33.27 139.86 34.87 138.85 36.50 137.89 L 36.91 137.75 C 37.48 137.53 38.63 137.08 39.20 136.86 L 39.59 136.85 C 44.61 137.26 49.67 137.39 54.67 136.73 C 54.51 134.48 54.34 132.24 54.14 130.00 M 35.60 141.70 C 35.49 142.16 35.27 143.08 35.16 143.55 C 39.61 143.95 43.83 142.46 48.22 142.22 C 49.25 141.48 50.25 140.68 51.21 139.85 C 45.92 139.37 40.62 139.94 35.60 141.70 Z" />
</g>
<g id="#2222225d">
<path fill="#222222" opacity="0.36" d=" M 61.31 59.60 C 63.46 60.59 64.45 62.76 64.11 65.06 C 62.34 63.76 61.44 61.75 61.31 59.60 Z" />
</g>
<g id="#28282939">
<path fill="#282829" opacity="0.22" d=" M 95.46 59.97 C 96.83 59.98 98.20 60.01 99.57 60.05 C 99.72 62.08 95.25 61.99 95.46 59.97 Z" />
</g>
<g id="#2e2e2e42">
<path fill="#2e2e2e" opacity="0.26" d=" M 164.36 59.87 C 165.47 59.83 166.58 59.83 167.69 59.86 C 168.09 61.78 163.88 61.79 164.36 59.87 Z" />
</g>
<g id="#2c2b2b3f">
<path fill="#2c2b2b" opacity="0.25" d=" M 199.88 60.20 C 201.32 59.69 202.76 59.70 204.19 60.25 C 203.03 61.61 201.03 61.51 199.88 60.20 Z" />
</g>
<g id="#26262661">
<path fill="#262626" opacity="0.38" d=" M 3.11 65.08 C 3.35 64.51 3.82 63.37 4.06 62.80 C 3.82 63.37 3.35 64.51 3.11 65.08 Z" />
</g>
<g id="#26262677">
<path fill="#262626" opacity="0.47" d=" M 2.03 68.08 C 2.32 67.55 2.89 66.48 3.18 65.94 C 2.89 66.48 2.32 67.55 2.03 68.08 Z" />
</g>
<g id="#474748c3">
<path fill="#474748" opacity="0.76" d=" M 64.26 65.66 C 65.07 68.41 65.87 71.18 66.21 74.04 C 64.41 76.26 64.67 79.18 64.43 81.84 C 63.83 83.19 63.33 85.29 64.75 86.30 L 64.84 87.61 C 64.36 89.21 63.73 90.77 63.05 92.30 C 63.72 90.27 63.97 88.10 63.08 86.08 C 64.27 80.42 64.35 74.55 63.07 68.89 C 63.65 70.49 64.29 72.06 64.95 73.62 C 64.84 70.96 64.66 68.29 64.26 65.66 Z" />
</g>
<g id="#24242481">
<path fill="#242424" opacity="0.51" d=" M 1.17 73.16 C 0.47 71.66 0.71 69.89 2.10 68.88 C 2.55 70.39 2.26 72.00 1.17 73.16 Z" />
</g>
<g id="#1c1c1c75">
<path fill="#1c1c1c" opacity="0.46" d=" M 130.63 69.26 C 131.93 69.47 134.47 68.18 134.49 70.32 C 134.72 71.99 134.70 73.68 134.77 75.36 C 136.57 75.36 138.37 75.35 140.18 75.35 C 140.23 73.32 140.29 71.28 140.35 69.25 C 141.52 69.13 142.70 69.10 143.87 69.17 C 144.16 74.66 144.04 80.21 143.88 85.73 C 143.07 85.74 141.47 85.75 140.66 85.76 C 140.46 83.55 140.30 81.35 140.15 79.14 C 138.37 79.10 136.59 79.05 134.82 79.01 C 134.67 81.33 134.51 83.66 134.29 85.97 C 133.10 85.73 131.90 85.49 130.71 85.25 C 130.76 79.92 130.81 74.59 130.63 69.26 M 131.95 69.25 C 131.66 74.62 131.73 80.01 131.86 85.39 C 135.85 84.83 131.54 77.91 135.94 78.03 C 137.72 77.97 141.57 77.33 141.30 80.14 C 141.81 81.92 140.44 85.09 143.22 85.37 C 143.22 80.10 143.65 74.76 142.91 69.53 C 140.15 70.36 141.54 73.98 141.02 76.11 C 138.59 76.13 136.16 76.04 133.75 75.84 C 133.42 73.65 134.75 70.20 131.95 69.25 Z" />
</g>
<g id="#1d1d1e88">
<path fill="#1d1d1e" opacity="0.53" d=" M 177.28 69.21 C 181.36 69.27 185.46 69.07 189.53 69.45 L 188.13 69.87 C 184.90 69.82 181.67 69.78 178.45 69.77 C 178.26 74.82 178.24 79.87 178.42 84.92 C 181.86 84.93 185.31 84.98 188.75 84.95 C 185.18 86.35 181.23 85.80 177.53 85.32 C 176.76 79.99 177.37 74.57 177.28 69.21 Z" />
</g>
<g id="#111112f2">
<path fill="#111112" opacity="0.95" d=" M 111.42 70.45 C 113.79 69.35 116.50 69.74 119.03 69.78 C 119.81 70.35 120.56 70.97 121.27 71.62 C 122.13 74.77 122.26 78.05 122.02 81.29 L 121.98 82.18 C 121.63 82.55 120.95 83.28 120.61 83.65 C 119.86 84.56 118.88 85.01 117.68 85.01 C 116.21 85.02 114.75 85.07 113.28 85.15 C 112.10 85.14 111.02 84.77 110.04 84.03 C 110.43 79.52 109.70 74.72 111.42 70.45 M 113.99 71.71 C 112.68 72.33 111.18 73.39 111.28 75.05 C 111.07 77.68 110.56 81.27 113.29 82.79 C 116.30 84.96 120.18 81.25 119.66 78.03 C 120.44 74.79 117.62 70.28 113.99 71.71 Z" />
</g>
<g id="#0c0b0cef">
<path fill="#0c0b0c" opacity="0.94" d=" M 131.95 69.25 C 134.75 70.20 133.42 73.65 133.75 75.84 C 136.16 76.04 138.59 76.13 141.02 76.11 C 141.54 73.98 140.15 70.36 142.91 69.53 C 143.65 74.76 143.22 80.10 143.22 85.37 C 140.44 85.09 141.81 81.92 141.30 80.14 C 141.57 77.33 137.72 77.97 135.94 78.03 C 131.54 77.91 135.85 84.83 131.86 85.39 C 131.73 80.01 131.66 74.62 131.95 69.25 Z" />
</g>
<g id="#1d1d1e7d">
<path fill="#1d1d1e" opacity="0.49" d=" M 95.44 72.38 C 97.34 70.44 100.15 71.99 102.20 72.82 C 100.19 72.73 98.19 72.64 96.19 72.55 C 96.19 75.78 96.19 79.01 96.18 82.24 C 98.05 82.38 99.91 82.50 101.77 82.63 C 99.60 82.80 97.43 82.92 95.26 83.00 C 95.21 79.46 94.90 75.89 95.44 72.38 Z" />
</g>
<g id="#28282971">
<path fill="#282829" opacity="0.44" d=" M 104.29 71.68 C 107.58 75.72 106.81 84.14 100.92 85.34 C 102.42 84.05 104.38 82.91 104.88 80.85 C 105.59 77.81 104.98 74.66 104.29 71.68 Z" />
</g>
<g id="#26252668">
<path fill="#262526" opacity="0.41" d=" M 121.27 71.62 C 123.89 74.16 122.81 78.12 123.02 81.37 L 122.02 81.29 C 122.26 78.05 122.13 74.77 121.27 71.62 Z" />
</g>
<g id="#1c1c1c6b">
<path fill="#1c1c1c" opacity="0.42" d=" M 102.20 73.50 C 103.23 76.22 103.61 79.59 101.82 82.09 C 102.10 79.24 102.22 76.37 102.20 73.50 Z" />
</g>
<g id="#2525253b">
<path fill="#252525" opacity="0.23" d=" M 0.00 75.39 L 0.41 74.96 C 1.64 76.74 1.69 79.12 0.44 80.91 L 0.00 80.48 L 0.00 75.39 Z" />
</g>
<g id="#1a1a1bc1">
<path fill="#1a1a1b" opacity="0.76" d=" M 64.43 81.84 C 64.67 79.18 64.41 76.26 66.21 74.04 C 66.77 78.60 66.43 83.27 64.84 87.61 L 64.75 86.30 C 65.40 84.77 65.29 83.28 64.43 81.84 Z" />
</g>
<g id="#1b1b1b46">
<path fill="#1b1b1b" opacity="0.27" d=" M 168.61 79.69 C 169.64 80.57 170.24 81.82 170.82 83.03 C 169.03 84.12 167.28 81.02 168.61 79.69 Z" />
</g>
<g id="#0c0c0bff">
<path fill="#0c0c0b" opacity="1.00" d=" M 64.75 86.30 C 63.33 85.29 63.83 83.19 64.43 81.84 C 65.29 83.28 65.40 84.77 64.75 86.30 Z" />
</g>
<g id="#2726274b">
<path fill="#272627" opacity="0.29" d=" M 120.61 83.65 C 120.95 83.28 121.63 82.55 121.98 82.18 C 121.85 82.58 121.61 83.37 121.49 83.76 L 120.61 83.65 Z" />
</g>
<g id="#26262685">
<path fill="#262626" opacity="0.52" d=" M 1.23 82.75 C 2.25 83.75 2.47 84.90 1.88 86.19 C 0.79 85.21 0.57 84.07 1.23 82.75 Z" />
</g>
<g id="#3434345f">
<path fill="#343434" opacity="0.37" d=" M 171.57 84.43 C 171.58 84.45 171.61 84.48 171.63 84.50 C 171.61 84.48 171.58 84.45 171.57 84.43 Z" />
</g>
<g id="#34343481">
<path fill="#343434" opacity="0.51" d=" M 113.28 85.15 C 114.75 85.07 116.21 85.02 117.68 85.01 C 117.74 86.94 113.33 87.05 113.28 85.15 Z" />
</g>
<g id="#2f2f2f54">
<path fill="#2f2f2f" opacity="0.33" d=" M 173.44 84.86 C 173.85 84.91 174.67 85.00 175.08 85.04 C 174.37 86.52 173.83 86.47 173.44 84.86 Z" />
</g>
<g id="#1f1f1f4a">
<path fill="#1f1f1f" opacity="0.29" d=" M 59.90 98.25 C 59.23 96.65 60.64 95.25 61.99 94.66 C 61.99 96.16 61.30 97.59 59.90 98.25 Z" />
</g>
<g id="#1818184a">
<path fill="#181818" opacity="0.29" d=" M 52.33 105.14 C 54.34 103.20 56.37 101.30 58.48 99.47 C 57.19 102.10 55.09 104.10 52.33 105.14 Z" />
</g>
<g id="#29292996">
<path fill="#292929" opacity="0.59" d=" M 48.60 107.46 C 49.19 107.09 49.78 106.73 50.38 106.38 C 56.88 107.86 63.59 108.86 69.76 111.49 C 72.14 112.25 72.26 115.89 70.05 116.95 C 67.44 118.22 64.50 118.60 61.71 119.28 C 62.05 119.92 62.73 121.21 63.07 121.86 C 62.07 120.97 61.07 120.09 60.08 119.21 C 58.65 119.35 57.23 119.47 55.81 119.68 C 60.21 118.29 64.86 117.86 69.19 116.27 C 71.31 115.90 70.60 112.56 68.94 112.11 C 62.44 109.55 55.49 108.39 48.60 107.46 Z" />
</g>
<g id="#1d1d1d7a">
<path fill="#1d1d1d" opacity="0.48" d=" M 17.45 106.70 C 18.97 107.27 20.52 107.78 22.00 108.47 C 22.51 111.37 18.42 112.28 16.47 113.46 C 18.07 112.12 19.59 110.70 21.12 109.27 C 19.90 108.41 18.68 107.54 17.45 106.70 Z" />
</g>
<g id="#d2d2d2ff">
<path fill="#d2d2d2" opacity="1.00" d=" M 46.85 111.05 C 47.94 110.65 49.02 110.24 50.09 109.81 C 54.48 110.60 58.87 111.46 63.07 113.00 L 63.56 114.27 C 58.67 115.23 53.70 115.99 48.70 115.76 C 48.00 114.23 47.37 112.66 46.85 111.05 Z" />
<path fill="#d2d2d2" opacity="1.00" d=" M 32.65 124.30 C 33.30 124.28 34.60 124.25 35.24 124.23 C 35.33 125.39 35.43 126.56 35.54 127.73 C 35.48 128.08 35.37 128.78 35.31 129.13 C 34.42 128.45 33.53 127.77 32.63 127.10 C 32.63 126.17 32.64 125.23 32.65 124.30 Z" />
</g>
<g id="#fcfdfdff">
<path fill="#fcfdfd" opacity="1.00" d=" M 27.33 110.73 C 32.10 111.63 36.94 111.39 41.67 110.31 C 42.79 112.18 44.05 113.95 45.42 115.64 C 43.64 118.23 40.17 118.09 37.40 118.67 C 37.40 116.96 37.40 115.26 37.39 113.57 C 34.73 113.56 32.08 113.55 29.43 113.56 C 29.38 115.11 29.34 116.66 29.29 118.20 C 26.23 117.94 23.16 118.38 20.12 118.70 C 20.20 117.51 20.29 116.32 20.36 115.13 C 22.55 113.46 24.88 111.99 27.33 110.73 Z" />
</g>
<g id="#cececfff">
<path fill="#cececf" opacity="1.00" d=" M 12.65 115.64 C 13.51 114.31 15.13 114.06 16.47 113.46 C 17.54 114.06 18.61 114.67 19.79 115.03 L 20.36 115.13 C 20.29 116.32 20.20 117.51 20.12 118.70 C 23.16 118.38 26.23 117.94 29.29 118.20 C 31.98 118.53 34.69 118.78 37.40 118.67 C 40.17 118.09 43.64 118.23 45.42 115.64 C 45.86 116.18 46.30 116.72 46.74 117.25 C 42.81 118.61 38.40 119.04 35.08 121.76 C 32.85 121.55 30.68 121.02 28.51 120.51 C 26.98 119.90 25.43 120.59 23.95 121.01 C 21.49 121.24 18.58 120.87 17.47 123.64 C 18.06 124.68 18.66 125.72 19.25 126.75 C 18.48 127.51 17.71 128.27 16.94 129.03 C 16.30 128.37 15.66 127.70 15.02 127.03 C 14.72 125.52 14.41 124.02 13.93 122.56 C 13.66 121.53 13.42 120.49 13.20 119.44 C 15.40 119.39 17.60 119.33 19.79 119.26 C 19.56 118.49 19.09 116.96 18.86 116.19 C 18.13 114.12 15.89 114.97 14.26 115.18 C 13.86 115.30 13.05 115.53 12.65 115.64 Z" />
</g>
<g id="#f42f2aff">
<path fill="#f42f2a" opacity="1.00" d=" M 29.43 113.56 C 32.08 113.55 34.73 113.56 37.39 113.57 C 37.40 115.26 37.40 116.96 37.40 118.67 C 34.69 118.78 31.98 118.53 29.29 118.20 C 29.34 116.66 29.38 115.11 29.43 113.56 Z" />
</g>
<g id="#f62d25ff">
<path fill="#f62d25" opacity="1.00" d=" M 14.26 115.18 C 15.89 114.97 18.13 114.12 18.86 116.19 C 19.09 116.96 19.56 118.49 19.79 119.26 C 17.60 119.33 15.40 119.39 13.20 119.44 C 13.09 118.79 12.87 117.48 12.76 116.82 L 12.65 115.64 C 13.05 115.53 13.86 115.30 14.26 115.18 Z" />
</g>
<g id="#fcfcfcff">
<path fill="#fcfcfc" opacity="1.00" d=" M 41.73 123.41 C 44.00 122.58 46.46 121.53 48.82 122.71 C 49.08 123.42 49.61 124.83 49.87 125.54 C 46.97 125.78 44.21 124.85 41.73 123.41 Z" />
</g>
<g id="#4e393886">
<path fill="#4e3938" opacity="0.53" d=" M 53.90 129.41 C 54.67 128.68 55.46 127.95 56.25 127.23 C 57.70 127.30 59.15 127.33 60.60 127.48 C 60.50 129.63 60.76 131.77 61.23 133.87 C 61.43 134.93 61.64 135.99 61.87 137.05 C 60.37 134.34 60.01 131.28 59.61 128.27 C 58.48 127.81 57.30 127.56 56.07 127.53 C 56.28 128.12 56.70 129.30 56.91 129.89 C 56.22 129.92 54.83 129.97 54.14 130.00 C 54.34 132.24 54.51 134.48 54.67 136.73 C 49.67 137.39 44.61 137.26 39.59 136.85 C 44.21 136.17 48.88 136.17 53.53 136.33 C 53.59 134.02 53.62 131.71 53.90 129.41 Z" />
</g>
<g id="#e63927f4">
<path fill="#e63927" opacity="0.96" d=" M 65.30 127.40 L 67.26 126.55 C 70.67 125.85 74.65 127.37 75.57 130.99 C 72.91 130.77 70.36 129.95 67.98 128.75 C 66.04 129.31 64.12 129.90 62.19 130.48 C 61.95 131.33 61.47 133.02 61.23 133.87 C 60.76 131.77 60.50 129.63 60.60 127.48 C 62.16 127.73 63.76 127.80 65.30 127.40 Z" />
</g>
<g id="#fb9232ff">
<path fill="#fb9232" opacity="1.00" d=" M 62.19 130.48 C 64.12 129.90 66.04 129.31 67.98 128.75 C 70.36 129.95 72.91 130.77 75.57 130.99 L 75.64 131.10 C 75.92 132.70 76.44 134.32 76.22 135.95 C 75.72 137.73 73.59 137.84 72.22 138.62 C 72.26 140.35 72.37 142.09 72.22 143.83 C 71.30 144.56 70.29 145.17 69.31 145.80 C 68.30 146.11 67.30 146.42 66.29 146.71 C 64.92 143.44 63.21 140.33 61.87 137.05 C 61.64 135.99 61.43 134.93 61.23 133.87 C 61.47 133.02 61.95 131.33 62.19 130.48 Z" />
</g>
<g id="#2c2d2e7a">
<path fill="#2c2d2e" opacity="0.48" d=" M 57.24 130.81 C 58.25 132.35 58.41 134.21 57.96 135.98 C 56.42 134.66 56.38 132.52 57.24 130.81 Z" />
</g>
<g id="#f0342dff">
<path fill="#f0342d" opacity="1.00" d=" M 75.64 131.10 C 78.69 134.15 81.70 137.28 84.23 140.78 C 85.36 142.42 84.67 144.53 82.99 145.47 C 84.90 148.94 87.92 153.04 85.16 156.95 C 83.56 155.17 82.04 153.32 80.51 151.48 C 80.06 151.41 79.18 151.26 78.74 151.19 C 78.31 153.13 77.82 155.06 77.26 156.97 C 72.84 155.00 71.94 150.19 71.25 145.92 C 70.76 145.89 69.79 145.83 69.31 145.80 C 70.29 145.17 71.30 144.56 72.22 143.83 C 72.37 142.09 72.26 140.35 72.22 138.62 C 73.59 137.84 75.72 137.73 76.22 135.95 C 76.44 134.32 75.92 132.70 75.64 131.10 Z" />
</g>
<g id="#2c2c2c72">
<path fill="#2c2c2c" opacity="0.45" d=" M 36.91 137.75 C 37.48 137.53 38.63 137.08 39.20 136.86 C 38.63 137.08 37.48 137.53 36.91 137.75 Z" />
</g>
<g id="#18181865">
<path fill="#181818" opacity="0.40" d=" M 58.02 136.15 C 58.51 137.67 59.99 139.92 58.32 141.23 C 51.48 146.22 42.75 147.42 34.49 147.59 C 35.36 150.28 36.36 152.92 37.64 155.44 C 35.67 153.16 32.35 149.70 34.24 146.66 C 38.16 146.12 42.17 146.34 46.03 145.39 C 50.23 144.58 54.03 142.58 57.79 140.65 C 57.88 139.15 57.96 137.65 58.02 136.15 Z" />
</g>
<g id="#19191972">
<path fill="#191919" opacity="0.45" d=" M 29.28 143.12 C 30.44 139.94 33.35 138.45 36.50 137.89 C 34.87 138.85 33.27 139.86 31.66 140.86 C 31.26 141.91 30.86 142.96 30.46 144.00 C 26.20 143.88 22.12 142.66 17.98 141.78 C 14.17 140.79 10.66 143.05 7.69 145.14 C 8.87 143.47 10.23 141.73 12.32 141.23 C 18.00 139.35 23.66 142.46 29.28 143.12 Z" />
</g>
<g id="#f0f0f0ff">
<path fill="#f0f0f0" opacity="1.00" d=" M 35.60 141.70 C 40.62 139.94 45.92 139.37 51.21 139.85 C 50.25 140.68 49.25 141.48 48.22 142.22 C 43.83 142.46 39.61 143.95 35.16 143.55 C 35.27 143.08 35.49 142.16 35.60 141.70 Z" />
</g>
<g id="#1b1b1b87">
<path fill="#1b1b1b" opacity="0.53" d=" M 4.11 157.49 C 4.01 153.57 4.50 149.54 6.92 146.31 C 5.94 150.02 5.03 153.75 4.11 157.49 Z" />
</g>
<g id="#16161667">
<path fill="#161616" opacity="0.40" d=" M 33.64 155.59 C 35.73 157.58 37.05 160.15 37.94 162.87 C 36.31 160.56 34.83 158.15 33.64 155.59 Z" />
</g>
<g id="#1d1d1d82">
<path fill="#1d1d1d" opacity="0.51" d=" M 37.73 155.62 C 39.51 157.73 40.88 160.13 41.81 162.72 C 40.29 160.45 38.84 158.13 37.73 155.62 Z" />
</g>
<g id="#1e1e1e87">
<path fill="#1e1e1e" opacity="0.53" d=" M 4.06 157.90 C 5.27 158.95 5.61 160.56 5.21 162.08 C 3.80 161.15 3.47 159.42 4.06 157.90 Z" />
</g>
<g id="#15151591">
<path fill="#151515" opacity="0.57" d=" M 5.31 162.77 C 7.48 163.47 8.50 165.75 8.01 167.91 C 6.36 166.70 5.35 164.83 5.31 162.77 Z" />
</g>
<g id="#12121280">
<path fill="#121212" opacity="0.50" d=" M 42.14 163.32 C 45.57 163.86 49.04 164.16 52.50 164.42 C 52.59 165.51 52.68 166.60 52.77 167.70 C 48.89 167.83 44.94 168.27 41.10 167.53 C 40.19 166.77 39.65 165.67 39.00 164.70 C 42.32 168.42 47.55 167.25 51.93 167.12 C 51.69 166.56 51.21 165.46 50.97 164.91 C 48.24 164.80 45.50 164.74 42.78 164.43 C 42.62 164.15 42.30 163.60 42.14 163.32 Z" />
</g>
<g id="#1818186d">
<path fill="#181818" opacity="0.43" d=" M 9.98 165.08 C 12.16 165.21 14.04 166.82 14.08 169.09 C 12.21 168.37 10.49 167.12 9.98 165.08 Z" />
</g>
<g id="#191a1a5f">
<path fill="#191a1a" opacity="0.37" d=" M 8.88 168.70 C 10.32 169.05 10.98 169.90 10.84 171.27 C 9.50 170.99 8.84 170.14 8.88 168.70 Z" />
</g>
<g id="#1f1f1f6c">
<path fill="#1f1f1f" opacity="0.42" d=" M 16.76 170.77 C 18.44 171.96 20.26 173.12 21.31 174.97 C 20.83 176.72 19.62 177.56 18.04 176.43 C 18.57 176.22 19.62 175.80 20.15 175.58 C 19.33 173.78 18.08 172.22 16.76 170.77 Z" />
</g>
<g id="#161616b2">
<path fill="#161616" opacity="0.70" d=" M 13.11 171.82 C 15.41 171.92 16.77 173.81 17.02 175.95 C 15.17 175.24 13.39 173.92 13.11 171.82 Z" />
</g>
</svg>
