<?xml version="1.0" encoding="UTF-8" ?>
<!DOCTYPE svg PUBLIC "-//W3C//DTD SVG 1.1//EN" "http://www.w3.org/Graphics/SVG/1.1/DTD/svg11.dtd">
<svg width="210pt" height="220pt" viewBox="0 0 210 220" version="1.1" xmlns="http://www.w3.org/2000/svg">
<g id="#010101ff">
<path fill="#010101" opacity="1.00" d=" M 63.31 8.70 C 72.57 4.27 82.54 -0.35 93.09 1.05 C 105.10 2.82 117.84 2.59 128.86 8.37 C 136.76 12.54 145.34 15.79 152.08 21.84 C 156.68 25.93 161.06 30.28 165.09 34.95 C 173.56 44.79 178.63 56.98 182.07 69.37 L 180.45 68.76 C 178.48 67.53 177.65 65.20 177.02 63.08 C 176.02 59.57 174.50 56.23 173.38 52.77 C 171.53 49.05 168.80 45.88 166.91 42.19 C 164.82 38.38 161.40 35.58 158.49 32.44 C 154.18 27.87 149.54 23.63 144.95 19.35 C 143.31 18.73 141.75 17.93 140.39 16.83 C 139.54 16.69 138.69 16.55 137.84 16.42 C 136.53 15.66 135.22 14.93 133.89 14.20 C 129.56 12.02 125.13 10.01 120.94 7.55 C 119.63 7.44 118.32 7.33 117.01 7.22 C 109.83 4.70 102.15 4.53 94.65 3.95 C 96.56 5.10 97.67 6.86 97.97 9.03 C 98.59 11.01 99.25 12.97 99.95 14.92 C 102.02 19.01 101.91 23.67 101.57 28.12 C 101.55 31.97 98.23 34.52 96.33 37.54 C 96.80 39.11 97.26 40.68 97.68 42.27 C 98.84 43.37 100.00 44.47 101.16 45.58 C 102.04 41.63 103.08 37.71 104.40 33.88 C 106.14 33.43 107.88 32.95 109.60 32.43 C 108.73 36.63 108.40 40.91 108.36 45.20 C 108.93 45.17 110.05 45.13 110.62 45.10 C 110.65 45.74 110.72 47.02 110.75 47.66 C 112.43 47.19 114.10 46.69 115.78 46.20 C 115.69 42.18 114.37 38.41 113.16 34.63 C 115.16 32.76 117.08 30.79 119.45 29.39 C 119.48 30.49 119.53 32.68 119.56 33.78 C 120.75 37.36 121.33 41.10 121.63 44.85 C 130.12 47.71 139.17 46.51 147.93 46.23 C 147.11 47.67 146.28 49.11 145.45 50.54 C 142.96 50.57 140.48 50.62 138.00 50.71 C 134.57 52.07 129.12 50.00 127.60 54.23 C 131.77 54.37 135.95 54.26 140.12 54.57 C 143.18 54.60 145.24 57.16 147.47 58.88 C 147.49 60.21 147.52 61.54 147.53 62.87 C 146.71 64.14 145.93 65.44 145.16 66.74 C 139.51 66.77 133.84 66.56 128.19 66.90 C 131.88 68.66 135.97 69.06 139.90 69.95 C 142.91 69.13 145.89 68.19 148.67 66.75 C 148.44 68.20 148.23 69.66 148.01 71.11 C 145.62 71.37 143.15 71.74 141.39 73.58 C 136.41 73.75 131.57 72.36 126.96 70.65 C 124.91 69.46 123.28 67.67 121.38 66.25 C 121.78 61.52 120.25 56.23 123.15 52.05 C 120.77 52.28 118.40 52.49 116.02 52.69 C 115.58 53.23 114.70 54.31 114.26 54.84 C 115.22 57.64 115.87 60.54 116.77 63.36 C 118.31 67.42 122.14 69.86 125.44 72.39 C 126.45 72.46 127.46 72.53 128.47 72.61 C 129.78 74.07 131.59 74.71 133.48 75.02 C 139.72 83.04 140.38 93.60 145.53 102.16 C 145.31 105.34 144.90 108.50 144.45 111.65 C 143.83 112.24 143.22 112.83 142.61 113.42 C 142.19 113.42 141.34 113.43 140.92 113.43 C 140.60 112.59 139.97 110.89 139.65 110.04 C 139.59 107.05 139.58 104.05 139.45 101.05 C 138.42 98.84 137.54 96.57 136.67 94.30 C 136.50 93.20 136.33 92.10 136.14 91.01 C 134.40 86.93 133.35 82.51 130.64 78.90 C 130.46 80.87 130.35 82.84 130.25 84.81 C 129.39 85.66 128.54 86.50 127.69 87.35 C 125.23 87.39 122.76 87.43 120.30 87.44 C 120.33 89.77 120.36 92.11 120.40 94.44 C 117.95 94.86 115.49 95.27 113.02 95.48 C 111.75 95.01 110.49 94.54 109.22 94.09 C 109.68 92.40 110.17 90.71 110.68 89.04 C 111.25 88.54 112.40 87.56 112.97 87.07 C 111.07 86.95 109.75 87.97 108.83 89.52 C 106.88 89.56 104.94 89.58 102.99 89.60 C 102.70 92.20 102.32 94.78 101.69 97.32 C 102.84 97.49 104.00 97.67 105.16 97.86 C 113.29 99.96 121.32 97.16 129.36 96.28 C 130.93 98.84 132.10 101.60 133.27 104.36 C 133.84 106.95 132.74 109.22 130.94 111.01 C 130.17 112.45 129.38 113.88 128.58 115.30 C 127.67 115.65 126.75 115.99 125.83 116.31 L 124.51 114.59 C 124.51 115.90 124.50 118.54 124.50 119.85 C 122.99 119.48 121.49 119.10 120.00 118.69 C 116.01 118.37 112.01 118.40 108.03 118.73 C 106.83 123.13 102.08 126.72 103.61 131.59 C 107.34 137.30 113.75 140.50 120.08 142.50 C 123.65 142.47 127.28 141.65 130.05 139.28 C 134.13 138.32 135.67 134.30 137.51 131.02 C 136.52 129.09 135.58 127.12 134.66 125.15 C 136.47 125.31 139.12 125.26 139.42 127.61 C 139.91 132.00 139.72 136.54 138.45 140.79 C 136.19 141.70 134.01 142.78 131.94 144.06 C 130.08 144.80 128.25 145.63 126.51 146.62 C 121.71 146.76 116.86 146.31 112.11 147.18 C 110.75 147.37 109.40 147.55 108.04 147.74 C 109.07 149.04 110.11 150.34 111.13 151.66 C 120.05 151.29 129.25 149.63 137.16 145.30 C 143.30 142.59 148.55 138.25 154.75 135.64 C 162.03 131.92 166.94 125.15 172.41 119.30 C 176.46 114.94 179.11 109.53 183.01 105.05 C 183.67 103.02 184.48 101.04 185.54 99.19 C 185.55 95.65 185.82 92.08 185.24 88.57 C 184.07 83.98 182.49 79.50 181.03 74.99 C 180.33 73.06 179.78 71.07 179.28 69.07 L 181.33 69.27 C 181.57 69.31 182.04 69.37 182.28 69.41 C 185.67 80.31 190.12 92.05 186.57 103.50 C 182.72 112.33 176.05 119.55 169.87 126.81 C 165.29 132.43 158.95 136.11 153.44 140.69 C 153.19 149.80 153.42 158.92 153.35 168.04 C 153.40 176.32 153.02 184.65 154.08 192.90 C 154.90 201.97 155.41 211.15 157.71 220.00 L 154.78 220.00 C 152.85 207.09 151.29 194.08 151.21 181.02 C 150.33 171.68 151.74 162.34 151.17 152.98 C 150.94 151.62 150.71 150.26 150.49 148.90 C 145.69 152.74 140.82 156.61 135.19 159.18 C 132.04 160.80 128.38 162.26 126.63 165.56 C 124.76 170.20 126.09 175.28 126.42 180.07 C 127.31 193.39 127.36 206.80 129.48 220.00 L 44.28 220.00 C 44.91 207.37 45.63 194.62 48.91 182.35 C 50.51 176.24 52.95 170.40 54.86 164.39 C 57.11 157.14 60.77 150.46 63.64 143.46 C 57.30 139.68 50.35 136.98 44.28 132.75 C 39.14 129.26 34.68 124.69 31.65 119.23 C 27.47 111.71 23.89 103.65 23.07 94.99 C 21.09 80.83 24.00 66.66 27.07 52.90 C 29.06 44.82 31.91 36.99 35.08 29.31 C 37.18 24.46 39.70 19.21 44.60 16.63 C 50.63 13.52 57.15 11.52 63.31 8.70 M 103.84 50.53 C 103.44 52.35 102.96 54.16 102.66 56.00 C 103.55 56.75 104.47 57.45 105.43 58.12 C 104.85 61.94 104.86 66.22 102.07 69.23 C 102.34 70.57 102.60 71.91 102.89 73.24 C 103.18 73.27 103.78 73.33 104.08 73.36 C 105.48 72.88 106.89 72.44 108.32 72.03 C 108.86 73.69 109.35 75.36 109.79 77.06 C 108.25 76.71 106.80 76.14 105.43 75.37 C 105.22 77.92 105.20 80.48 105.30 83.03 C 107.20 82.85 109.12 82.53 110.17 80.72 C 111.21 80.62 112.25 80.53 113.30 80.44 C 113.35 78.92 113.42 77.41 113.50 75.90 C 114.69 76.49 115.87 77.09 117.05 77.71 C 118.37 78.17 119.62 78.79 120.92 79.29 C 121.93 79.85 122.94 80.43 123.98 80.96 C 125.41 81.72 126.84 82.45 128.30 83.15 C 127.95 80.31 127.63 77.48 127.32 74.64 C 125.71 74.51 124.10 74.39 122.50 74.27 L 122.60 73.70 C 121.81 73.59 121.03 73.47 120.24 73.35 C 118.87 70.69 116.49 68.81 114.66 66.49 C 114.43 65.38 114.18 64.27 113.91 63.17 C 113.48 62.16 113.05 61.16 112.60 60.16 C 112.35 57.01 112.24 53.84 112.19 50.68 C 109.41 50.59 106.62 50.56 103.84 50.53 M 82.07 59.00 C 82.11 61.14 83.08 63.00 84.48 64.57 C 86.78 64.56 89.08 64.57 91.38 64.55 C 90.90 63.66 89.94 61.89 89.46 61.00 C 89.42 60.38 89.39 59.75 89.36 59.13 C 89.86 58.19 90.88 56.30 91.39 55.35 C 87.58 54.46 84.88 56.99 82.07 59.00 M 98.95 55.47 C 98.85 56.22 98.65 57.72 98.54 58.48 L 99.37 58.47 C 99.39 59.50 99.41 61.54 99.43 62.57 L 98.52 62.62 C 98.61 63.31 98.80 64.67 98.89 65.35 C 99.04 64.97 99.35 64.21 99.50 63.83 C 100.45 63.35 101.39 62.87 102.34 62.38 C 102.61 62.09 103.17 61.52 103.44 61.24 C 102.17 59.82 100.94 58.35 99.57 57.03 C 99.42 56.64 99.11 55.86 98.95 55.47 M 125.55 62.06 C 127.50 63.86 129.76 65.15 132.54 64.82 C 131.47 61.77 130.96 58.57 133.82 56.25 C 131.46 56.72 129.10 57.19 126.75 57.67 C 126.36 59.13 125.95 60.59 125.55 62.06 M 141.42 57.54 C 141.42 59.98 141.49 62.41 141.68 64.85 C 142.77 63.55 143.86 62.25 144.93 60.93 C 143.77 59.78 142.61 58.65 141.42 57.54 M 113.15 89.35 C 113.30 90.88 113.47 92.41 113.68 93.94 C 115.37 92.75 116.94 91.42 118.39 89.95 C 116.64 89.73 114.90 89.52 113.15 89.35 M 124.05 100.23 C 121.85 100.43 119.65 100.59 117.45 100.69 L 117.39 101.25 C 113.78 101.28 110.18 101.28 106.57 101.26 L 106.55 100.64 C 104.28 100.41 102.00 100.24 99.75 100.66 C 99.61 101.92 99.48 103.18 99.36 104.45 C 101.21 103.93 103.11 103.53 105.05 103.53 C 113.33 103.34 121.62 103.58 129.90 103.41 C 129.46 102.81 128.57 101.60 128.13 101.00 C 127.82 100.44 127.20 99.32 126.89 98.76 C 125.95 99.25 125.00 99.74 124.05 100.23 M 99.57 108.01 C 99.57 108.27 99.57 108.81 99.57 109.07 C 100.06 109.37 101.04 109.97 101.53 110.27 C 106.07 110.07 110.53 111.03 115.04 111.22 C 119.53 110.87 124.02 110.38 128.49 109.76 C 127.57 108.40 126.66 107.04 125.76 105.67 C 118.42 105.67 111.09 105.66 103.75 105.68 C 102.38 106.49 100.98 107.26 99.57 108.01 Z" />
<path fill="#010101" opacity="1.00" d=" M 124.40 32.64 C 124.91 32.56 125.93 32.41 126.44 32.33 C 126.96 35.12 128.07 37.76 130.39 39.52 C 133.57 39.50 136.79 39.60 139.92 38.96 C 141.00 38.74 142.09 38.55 143.18 38.36 C 143.30 37.87 143.55 36.90 143.68 36.41 C 145.07 37.33 146.67 37.73 148.30 38.00 C 148.47 38.76 148.64 39.53 148.81 40.30 C 141.23 41.77 133.26 42.49 125.69 40.63 C 125.30 37.96 124.79 35.31 124.40 32.64 Z" />
<path fill="#010101" opacity="1.00" d=" M 154.33 69.59 C 155.16 69.36 156.81 68.89 157.64 68.66 C 157.92 75.83 157.92 83.01 157.59 90.18 C 156.13 91.82 154.48 93.29 152.08 92.94 C 152.21 89.46 156.33 87.62 155.59 84.01 C 155.30 79.22 156.39 74.07 154.33 69.59 Z" />
</g>
<g id="#ffffffff">
<path fill="#ffffff" opacity="1.00" d=" M 94.65 3.95 C 102.15 4.53 109.83 4.70 117.01 7.22 C 118.32 7.33 119.63 7.44 120.94 7.55 C 125.13 10.01 129.56 12.02 133.89 14.20 C 135.22 14.93 136.53 15.66 137.84 16.42 C 138.69 16.55 139.54 16.69 140.39 16.83 C 141.75 17.93 143.31 18.73 144.95 19.35 C 149.54 23.63 154.18 27.87 158.49 32.44 C 161.40 35.58 164.82 38.38 166.91 42.19 C 168.80 45.88 171.53 49.05 173.38 52.77 C 174.50 56.23 176.02 59.57 177.02 63.08 C 177.65 65.20 178.48 67.53 180.45 68.76 L 181.33 69.27 L 179.28 69.07 C 179.78 71.07 180.33 73.06 181.03 74.99 C 182.49 79.50 184.07 83.98 185.24 88.57 C 185.82 92.08 185.55 95.65 185.54 99.19 C 184.48 101.04 183.67 103.02 183.01 105.05 C 179.11 109.53 176.46 114.94 172.41 119.30 C 166.94 125.15 162.03 131.92 154.75 135.64 C 148.55 138.25 143.30 142.59 137.16 145.30 C 129.25 149.63 120.05 151.29 111.13 151.66 C 110.11 150.34 109.07 149.04 108.04 147.74 C 109.40 147.55 110.75 147.37 112.11 147.18 C 116.86 146.31 121.71 146.76 126.51 146.62 C 128.25 145.63 130.08 144.80 131.94 144.06 C 134.01 142.78 136.19 141.70 138.45 140.79 C 139.72 136.54 139.91 132.00 139.42 127.61 C 139.12 125.26 136.47 125.31 134.66 125.15 C 135.58 127.12 136.52 129.09 137.51 131.02 C 135.67 134.30 134.13 138.32 130.05 139.28 C 127.28 141.65 123.65 142.47 120.08 142.50 C 113.75 140.50 107.34 137.30 103.61 131.59 C 102.08 126.72 106.83 123.13 108.03 118.73 C 112.01 118.40 116.01 118.37 120.00 118.69 C 121.49 119.10 122.99 119.48 124.50 119.85 C 124.50 118.54 124.51 115.90 124.51 114.59 L 125.83 116.31 C 126.75 115.99 127.67 115.65 128.58 115.30 C 129.38 113.88 130.17 112.45 130.94 111.01 C 132.74 109.22 133.84 106.95 133.27 104.36 C 132.10 101.60 130.93 98.84 129.36 96.28 C 121.32 97.16 113.29 99.96 105.16 97.86 C 104.00 97.67 102.84 97.49 101.69 97.32 C 102.32 94.78 102.70 92.20 102.99 89.60 C 104.94 89.58 106.88 89.56 108.83 89.52 C 109.75 87.97 111.07 86.95 112.97 87.07 C 112.40 87.56 111.25 88.54 110.68 89.04 C 110.17 90.71 109.68 92.40 109.22 94.09 C 110.49 94.54 111.75 95.01 113.02 95.48 C 115.49 95.27 117.95 94.86 120.40 94.44 C 120.36 92.11 120.33 89.77 120.30 87.44 C 122.76 87.43 125.23 87.39 127.69 87.35 C 128.54 86.50 129.39 85.66 130.25 84.81 C 130.35 82.84 130.46 80.87 130.64 78.90 C 133.35 82.51 134.40 86.93 136.14 91.01 C 136.33 92.10 136.50 93.20 136.67 94.30 C 137.54 96.57 138.42 98.84 139.45 101.05 C 139.58 104.05 139.59 107.05 139.65 110.04 C 139.97 110.89 140.60 112.59 140.92 113.43 C 141.34 113.43 142.19 113.42 142.61 113.42 C 143.22 112.83 143.83 112.24 144.45 111.65 C 144.90 108.50 145.31 105.34 145.53 102.16 C 140.38 93.60 139.72 83.04 133.48 75.02 C 131.59 74.71 129.78 74.07 128.47 72.61 C 127.46 72.53 126.45 72.46 125.44 72.39 C 122.14 69.86 118.31 67.42 116.77 63.36 C 115.87 60.54 115.22 57.64 114.26 54.84 C 114.70 54.31 115.58 53.23 116.02 52.69 C 118.40 52.49 120.77 52.28 123.15 52.05 C 120.25 56.23 121.78 61.52 121.38 66.25 C 123.28 67.67 124.91 69.46 126.96 70.65 C 131.57 72.36 136.41 73.75 141.39 73.58 C 143.15 71.74 145.62 71.37 148.01 71.11 C 148.23 69.66 148.44 68.20 148.67 66.75 C 145.89 68.19 142.91 69.13 139.90 69.95 C 135.97 69.06 131.88 68.66 128.19 66.90 C 133.84 66.56 139.51 66.77 145.16 66.74 C 145.93 65.44 146.71 64.14 147.53 62.87 C 147.52 61.54 147.49 60.21 147.47 58.88 C 145.24 57.16 143.18 54.60 140.12 54.57 C 135.95 54.26 131.77 54.37 127.60 54.23 C 129.12 50.00 134.57 52.07 138.00 50.71 C 140.48 50.62 142.96 50.57 145.45 50.54 C 146.28 49.11 147.11 47.67 147.93 46.23 C 139.17 46.51 130.12 47.71 121.63 44.85 C 121.33 41.10 120.75 37.36 119.56 33.78 C 119.53 32.68 119.48 30.49 119.45 29.39 C 117.08 30.79 115.16 32.76 113.16 34.63 C 114.37 38.41 115.69 42.18 115.78 46.20 C 114.10 46.69 112.43 47.19 110.75 47.66 C 110.72 47.02 110.65 45.74 110.62 45.10 C 110.05 45.13 108.93 45.17 108.36 45.20 C 108.40 40.91 108.73 36.63 109.60 32.43 C 107.88 32.95 106.14 33.43 104.40 33.88 C 103.08 37.71 102.04 41.63 101.16 45.58 C 100.00 44.47 98.84 43.37 97.68 42.27 C 97.26 40.68 96.80 39.11 96.33 37.54 C 98.23 34.52 101.55 31.97 101.57 28.12 C 101.91 23.67 102.02 19.01 99.95 14.92 C 99.25 12.97 98.59 11.01 97.97 9.03 C 97.67 6.86 96.56 5.10 94.65 3.95 M 124.40 32.64 C 124.79 35.31 125.30 37.96 125.69 40.63 C 133.26 42.49 141.23 41.77 148.81 40.30 C 148.64 39.53 148.47 38.76 148.30 38.00 C 146.67 37.73 145.07 37.33 143.68 36.41 C 143.55 36.90 143.30 37.87 143.18 38.36 C 142.09 38.55 141.00 38.74 139.92 38.96 C 136.79 39.60 133.57 39.50 130.39 39.52 C 128.07 37.76 126.96 35.12 126.44 32.33 C 125.93 32.41 124.91 32.56 124.40 32.64 M 154.33 69.59 C 156.39 74.07 155.30 79.22 155.59 84.01 C 156.33 87.62 152.21 89.46 152.08 92.94 C 154.48 93.29 156.13 91.82 157.59 90.18 C 157.92 83.01 157.92 75.83 157.64 68.66 C 156.81 68.89 155.16 69.36 154.33 69.59 Z" />
<path fill="#ffffff" opacity="1.00" d=" M 103.84 50.53 C 106.62 50.56 109.41 50.59 112.19 50.68 C 112.24 53.84 112.35 57.01 112.60 60.16 C 113.05 61.16 113.48 62.16 113.91 63.17 C 114.18 64.27 114.43 65.38 114.66 66.49 C 116.49 68.81 118.87 70.69 120.24 73.35 C 121.03 73.47 121.81 73.59 122.60 73.70 L 122.50 74.27 C 124.10 74.39 125.71 74.51 127.32 74.64 C 127.63 77.48 127.95 80.31 128.30 83.15 C 126.84 82.45 125.41 81.72 123.98 80.96 C 122.94 80.43 121.93 79.85 120.92 79.29 C 119.62 78.79 118.37 78.17 117.05 77.71 C 115.87 77.09 114.69 76.49 113.50 75.90 C 113.42 77.41 113.35 78.92 113.30 80.44 C 112.25 80.53 111.21 80.62 110.17 80.72 C 109.12 82.53 107.20 82.85 105.30 83.03 C 105.20 80.48 105.22 77.92 105.43 75.37 C 106.80 76.14 108.25 76.71 109.79 77.06 C 109.35 75.36 108.86 73.69 108.32 72.03 C 106.89 72.44 105.48 72.88 104.08 73.36 C 103.78 73.33 103.18 73.27 102.89 73.24 C 102.60 71.91 102.34 70.57 102.07 69.23 C 104.86 66.22 104.85 61.94 105.43 58.12 C 104.47 57.45 103.55 56.75 102.66 56.00 C 102.96 54.16 103.44 52.35 103.84 50.53 Z" />
<path fill="#ffffff" opacity="1.00" d=" M 82.07 59.00 C 84.88 56.99 87.58 54.46 91.39 55.35 C 90.88 56.30 89.86 58.19 89.36 59.13 C 89.39 59.75 89.42 60.38 89.46 61.00 C 89.94 61.89 90.90 63.66 91.38 64.55 C 89.08 64.57 86.78 64.56 84.48 64.57 C 83.08 63.00 82.11 61.14 82.07 59.00 Z" />
<path fill="#ffffff" opacity="1.00" d=" M 98.95 55.47 C 99.11 55.86 99.42 56.64 99.57 57.03 C 100.94 58.35 102.17 59.82 103.44 61.24 C 103.17 61.52 102.61 62.09 102.34 62.38 C 101.39 62.87 100.45 63.35 99.50 63.83 C 99.35 64.21 99.04 64.97 98.89 65.35 C 98.80 64.67 98.61 63.31 98.52 62.62 L 99.43 62.57 C 99.41 61.54 99.39 59.50 99.37 58.47 L 98.54 58.48 C 98.65 57.72 98.85 56.22 98.95 55.47 Z" />
<path fill="#ffffff" opacity="1.00" d=" M 125.55 62.06 C 125.95 60.59 126.36 59.13 126.75 57.67 C 129.10 57.19 131.46 56.72 133.82 56.25 C 130.96 58.57 131.47 61.77 132.54 64.82 C 129.76 65.15 127.50 63.86 125.55 62.06 Z" />
<path fill="#ffffff" opacity="1.00" d=" M 141.42 57.54 C 142.61 58.65 143.77 59.78 144.93 60.93 C 143.86 62.25 142.77 63.55 141.68 64.85 C 141.49 62.41 141.42 59.98 141.42 57.54 Z" />
<path fill="#ffffff" opacity="1.00" d=" M 113.15 89.35 C 114.90 89.52 116.64 89.73 118.39 89.95 C 116.94 91.42 115.37 92.75 113.68 93.94 C 113.47 92.41 113.30 90.88 113.15 89.35 Z" />
<path fill="#ffffff" opacity="1.00" d=" M 124.05 100.23 C 125.00 99.74 125.95 99.25 126.89 98.76 C 127.20 99.32 127.82 100.44 128.13 101.00 C 128.57 101.60 129.46 102.81 129.90 103.41 C 121.62 103.58 113.33 103.34 105.05 103.53 C 103.11 103.53 101.21 103.93 99.36 104.45 C 99.48 103.18 99.61 101.92 99.75 100.66 C 102.00 100.24 104.28 100.41 106.55 100.64 L 106.57 101.26 C 110.18 101.28 113.78 101.28 117.39 101.25 L 117.45 100.69 C 119.65 100.59 121.85 100.43 124.05 100.23 Z" />
<path fill="#ffffff" opacity="1.00" d=" M 99.57 108.01 C 100.98 107.26 102.38 106.49 103.75 105.68 C 111.09 105.66 118.42 105.67 125.76 105.67 C 126.66 107.04 127.57 108.40 128.49 109.76 C 124.02 110.38 119.53 110.87 115.04 111.22 C 110.53 111.03 106.07 110.07 101.53 110.27 C 101.04 109.97 100.06 109.37 99.57 109.07 C 99.57 108.81 99.57 108.27 99.57 108.01 Z" />
<path fill="#ffffff" opacity="1.00" d=" M 135.19 159.18 C 140.82 156.61 145.69 152.74 150.49 148.90 C 150.71 150.26 150.94 151.62 151.17 152.98 C 151.74 162.34 150.33 171.68 151.21 181.02 C 151.29 194.08 152.85 207.09 154.78 220.00 L 129.48 220.00 C 127.36 206.80 127.31 193.39 126.42 180.07 C 126.09 175.28 124.76 170.20 126.63 165.56 C 128.38 162.26 132.04 160.80 135.19 159.18 Z" />
</g>
</svg>
