<?xml version="1.0" encoding="UTF-8" ?>
<!DOCTYPE svg PUBLIC "-//W3C//DTD SVG 1.1//EN" "http://www.w3.org/Graphics/SVG/1.1/DTD/svg11.dtd">
<svg width="210pt" height="220pt" viewBox="0 0 210 220" version="1.1" xmlns="http://www.w3.org/2000/svg">
<g id="#4444448c">
<path fill="#444444" opacity="0.55" d=" M 85.54 0.00 L 91.77 0.00 C 92.40 0.42 93.66 1.25 94.29 1.66 C 93.74 1.64 92.63 1.61 92.08 1.59 L 91.14 1.57 C 86.96 1.29 82.49 1.52 78.93 3.96 C 76.19 6.22 74.85 9.64 72.68 12.38 C 73.27 9.24 74.42 6.04 76.75 3.77 C 79.12 1.48 82.48 0.84 85.54 0.00 Z" />
</g>
<g id="#979797f4">
<path fill="#979797" opacity="0.96" d=" M 78.93 3.96 C 82.49 1.52 86.96 1.29 91.14 1.57 C 87.05 2.26 83.00 3.17 78.93 3.96 Z" />
</g>
<g id="#fdfdfdff">
<path fill="#fdfdfd" opacity="1.00" d=" M 78.93 3.96 C 83.00 3.17 87.05 2.26 91.14 1.57 L 92.08 1.59 C 94.60 3.81 97.81 5.54 99.27 8.73 C 101.41 13.93 104.13 19.22 103.65 25.03 C 103.78 32.96 99.57 40.98 92.59 44.91 C 88.39 46.52 83.84 44.07 81.01 40.98 C 77.58 37.84 76.71 33.11 74.70 29.11 C 71.40 24.16 72.38 17.99 72.68 12.38 C 74.85 9.64 76.19 6.22 78.93 3.96 M 77.69 13.23 C 78.88 14.36 80.69 15.06 81.41 16.60 C 79.19 17.62 77.02 18.75 74.90 19.95 C 76.97 21.85 79.18 23.57 81.43 25.25 C 81.57 22.83 81.63 20.41 81.58 17.99 C 82.28 16.77 82.96 15.53 83.65 14.30 C 86.70 14.49 89.75 14.73 92.80 15.01 C 93.06 14.53 93.57 13.58 93.83 13.11 C 89.07 10.69 81.20 7.35 77.69 13.23 M 95.10 16.23 C 93.39 16.59 93.85 19.62 95.69 18.93 C 97.39 18.56 96.94 15.56 95.10 16.23 M 87.09 16.53 C 87.55 19.49 88.02 22.45 88.69 25.36 C 90.36 23.41 93.35 22.10 93.76 19.35 C 91.68 18.09 89.34 17.38 87.09 16.53 M 75.66 24.31 C 76.93 25.93 78.18 27.57 79.41 29.23 C 79.45 28.53 79.54 27.13 79.59 26.43 C 78.28 25.73 76.97 25.02 75.66 24.31 M 91.12 28.05 C 93.99 29.95 94.23 25.17 95.44 23.51 C 93.87 24.83 90.20 25.34 91.12 28.05 M 80.53 37.60 C 83.70 36.10 87.19 36.19 90.61 36.13 C 90.56 35.38 90.44 33.87 90.38 33.12 C 87.28 33.60 84.26 34.48 81.16 34.96 C 82.51 32.29 84.09 29.73 85.08 26.89 C 81.77 29.45 79.86 33.40 80.53 37.60 M 87.27 28.31 C 86.21 29.58 88.40 31.28 89.35 29.90 C 90.40 28.63 88.23 26.92 87.27 28.31 M 91.46 28.75 C 92.52 31.61 92.62 34.98 94.88 37.25 C 95.05 34.01 92.85 31.48 91.46 28.75 M 82.85 40.75 C 86.47 42.66 91.69 44.21 94.20 39.83 C 90.44 40.45 86.64 40.49 82.85 40.75 Z" />
<path fill="#fdfdfd" opacity="1.00" d=" M 102.03 200.33 C 106.10 204.52 105.71 210.68 106.46 216.05 C 105.77 217.03 105.09 218.01 104.42 219.01 C 104.13 216.25 103.80 213.50 103.30 210.78 C 102.60 207.34 102.04 203.85 102.03 200.33 Z" />
</g>
<g id="#606060ff">
<path fill="#606060" opacity="1.00" d=" M 92.08 1.59 C 92.63 1.61 93.74 1.64 94.29 1.66 C 96.72 3.10 99.32 4.70 100.39 7.47 C 101.89 11.14 103.65 14.77 104.42 18.69 C 104.61 23.95 105.85 29.55 103.57 34.54 C 101.54 39.40 98.07 43.96 93.23 46.24 C 88.52 47.74 83.83 45.40 79.86 43.05 C 77.17 49.19 76.63 55.94 77.72 62.52 C 77.41 62.78 76.80 63.30 76.49 63.56 C 75.53 58.90 75.05 53.97 76.37 49.33 C 76.97 46.87 78.03 44.53 78.40 42.01 C 77.01 37.75 74.69 33.73 74.70 29.11 C 76.71 33.11 77.58 37.84 81.01 40.98 C 83.84 44.07 88.39 46.52 92.59 44.91 C 99.57 40.98 103.78 32.96 103.65 25.03 C 104.13 19.22 101.41 13.93 99.27 8.73 C 97.81 5.54 94.60 3.81 92.08 1.59 Z" />
<path fill="#606060" opacity="1.00" d=" M 80.53 37.60 C 79.86 33.40 81.77 29.45 85.08 26.89 C 84.09 29.73 82.51 32.29 81.16 34.96 C 84.26 34.48 87.28 33.60 90.38 33.12 C 90.44 33.87 90.56 35.38 90.61 36.13 C 87.19 36.19 83.70 36.10 80.53 37.60 Z" />
<path fill="#606060" opacity="1.00" d=" M 121.68 152.18 C 121.67 150.40 121.75 148.62 121.85 146.84 C 122.47 149.52 123.06 152.20 123.61 154.89 C 124.20 160.23 124.05 165.77 125.98 170.86 C 130.38 178.02 132.14 186.32 134.02 194.40 C 134.69 202.46 137.74 210.06 138.68 218.05 C 135.81 212.72 134.61 206.68 133.31 200.83 C 132.43 193.35 130.37 186.09 128.31 178.88 C 127.45 175.29 123.82 173.17 122.74 169.84 C 123.86 163.93 122.44 158.03 121.68 152.18 Z" />
</g>
<g id="#c1c1c1ff">
<path fill="#c1c1c1" opacity="1.00" d=" M 77.69 13.23 C 81.20 7.35 89.07 10.69 93.83 13.11 C 93.57 13.58 93.06 14.53 92.80 15.01 C 89.75 14.73 86.70 14.49 83.65 14.30 C 82.96 15.53 82.28 16.77 81.58 17.99 C 81.53 17.64 81.45 16.95 81.41 16.60 C 80.69 15.06 78.88 14.36 77.69 13.23 Z" />
<path fill="#c1c1c1" opacity="1.00" d=" M 144.51 127.01 C 145.71 126.71 146.92 126.41 148.13 126.11 C 148.66 126.38 149.73 126.92 150.26 127.19 C 150.32 127.81 150.44 129.05 150.49 129.67 C 148.49 128.81 146.50 127.91 144.51 127.01 Z" />
</g>
<g id="#686868fe">
<path fill="#686868" opacity="1.00" d=" M 95.10 16.23 C 96.94 15.56 97.39 18.56 95.69 18.93 C 93.85 19.62 93.39 16.59 95.10 16.23 Z" />
<path fill="#686868" opacity="1.00" d=" M 87.09 16.53 C 89.34 17.38 91.68 18.09 93.76 19.35 C 93.35 22.10 90.36 23.41 88.69 25.36 C 88.02 22.45 87.55 19.49 87.09 16.53 Z" />
<path fill="#686868" opacity="1.00" d=" M 124.09 194.96 C 127.09 199.88 129.71 205.06 131.60 210.51 C 131.88 213.67 131.98 216.84 132.16 220.00 L 131.64 220.00 C 131.40 213.67 128.84 207.79 126.07 202.20 C 124.93 199.94 124.43 197.44 124.09 194.96 Z" />
</g>
<g id="#676767fe">
<path fill="#676767" opacity="1.00" d=" M 74.90 19.95 C 77.02 18.75 79.19 17.62 81.41 16.60 C 81.45 16.95 81.53 17.64 81.58 17.99 C 81.63 20.41 81.57 22.83 81.43 25.25 C 79.18 23.57 76.97 21.85 74.90 19.95 Z" />
</g>
<g id="#fefefeff">
<path fill="#fefefe" opacity="1.00" d=" M 104.42 18.69 C 105.10 22.25 105.02 25.89 105.44 29.48 C 109.45 33.93 113.97 37.89 118.25 42.08 C 118.55 44.02 118.87 45.96 119.13 47.92 C 120.35 55.74 121.46 63.70 120.55 71.62 C 119.92 76.37 118.07 80.86 117.53 85.63 C 115.59 97.22 112.86 108.72 109.01 119.83 C 107.21 120.14 105.41 120.42 103.62 120.74 C 105.16 121.53 106.72 122.26 108.28 122.99 C 104.92 129.24 101.76 135.71 101.29 142.93 C 100.30 140.42 99.48 137.85 98.35 135.41 C 95.37 130.70 97.35 125.12 98.49 120.17 C 100.23 120.32 101.98 120.45 103.74 120.51 C 101.77 119.16 99.70 118.00 97.60 116.87 C 101.57 105.51 103.33 93.58 105.27 81.76 C 105.17 75.50 103.55 69.33 103.67 63.04 C 103.58 58.18 104.15 53.23 103.01 48.44 C 101.94 53.58 102.51 58.85 102.37 64.06 C 102.07 71.30 104.29 78.50 103.09 85.73 C 101.51 94.84 100.36 104.10 97.30 112.88 C 89.55 110.95 81.54 108.87 75.10 103.91 C 70.57 100.88 67.42 95.24 68.37 89.72 C 69.33 81.21 71.95 73.01 74.86 64.99 C 75.27 64.63 76.08 63.92 76.49 63.56 C 76.80 63.30 77.41 62.78 77.72 62.52 C 76.63 55.94 77.17 49.19 79.86 43.05 C 83.83 45.40 88.52 47.74 93.23 46.24 C 98.07 43.96 101.54 39.40 103.57 34.54 C 105.85 29.55 104.61 23.95 104.42 18.69 M 84.15 63.15 C 84.66 64.69 85.18 66.22 85.69 67.76 C 89.98 66.87 94.31 66.43 98.69 66.57 C 94.47 63.59 89.01 64.11 84.15 63.15 M 108.23 79.60 C 109.09 82.03 109.28 84.86 111.05 86.86 C 113.03 86.46 114.89 85.65 116.80 85.02 C 114.01 83.11 111.11 81.37 108.23 79.60 Z" />
<path fill="#fefefe" opacity="1.00" d=" M 121.25 49.59 C 122.24 50.39 123.22 51.21 124.16 52.07 C 126.30 59.89 128.62 67.81 128.46 76.00 C 128.31 81.32 128.53 86.65 128.16 91.97 C 127.54 96.83 125.52 101.33 123.51 105.75 C 120.80 108.90 117.19 111.07 113.52 112.93 C 114.84 105.99 117.06 99.25 118.26 92.28 C 119.26 86.74 120.35 81.21 121.69 75.73 C 123.86 67.14 122.49 58.21 121.25 49.59 Z" />
<path fill="#fefefe" opacity="1.00" d=" M 68.66 100.70 C 72.52 103.74 76.27 107.07 80.78 109.13 C 85.71 111.36 90.94 112.86 96.21 113.99 C 96.39 116.40 96.63 118.80 96.90 121.20 C 95.75 120.99 94.60 120.78 93.45 120.57 C 91.52 120.22 89.58 119.93 87.64 119.69 C 88.81 120.80 90.02 121.89 91.22 122.98 C 87.99 126.37 86.02 130.68 83.71 134.70 C 79.66 141.82 74.63 148.29 69.60 154.74 C 68.61 156.01 67.71 157.37 66.92 158.78 C 66.36 160.00 66.74 160.87 68.06 161.41 C 72.89 163.40 76.20 167.66 79.43 171.58 C 83.07 176.87 87.84 181.24 91.67 186.39 C 93.24 188.46 95.08 190.30 97.01 192.04 C 97.29 194.15 97.63 196.26 97.96 198.37 C 93.83 196.24 89.89 193.72 86.93 190.07 C 80.78 184.88 75.29 178.97 69.07 173.85 C 65.76 171.05 61.87 168.95 58.88 165.78 C 56.47 160.57 57.68 154.71 58.86 149.36 C 60.78 142.61 62.24 135.75 63.69 128.90 C 65.73 122.28 67.45 115.55 69.90 109.07 C 72.27 112.50 74.38 116.31 78.01 118.60 C 74.46 112.85 70.42 107.34 68.66 100.70 Z" />
<path fill="#fefefe" opacity="1.00" d=" M 126.06 107.34 C 126.80 104.78 127.08 102.13 127.64 99.54 C 128.65 101.37 129.61 103.24 130.63 105.07 C 130.80 107.01 131.43 108.88 132.64 110.43 C 133.72 113.26 134.99 116.02 135.96 118.89 C 133.92 119.57 131.88 120.25 129.85 120.91 C 127.98 118.87 126.06 116.87 124.03 114.99 C 124.38 112.36 125.22 109.84 126.06 107.34 Z" />
<path fill="#fefefe" opacity="1.00" d=" M 112.79 115.84 C 116.13 113.10 120.15 111.28 123.78 108.94 C 121.90 112.36 119.51 115.46 117.50 118.79 C 119.32 117.84 121.10 116.82 122.86 115.77 C 122.76 116.97 122.69 118.17 122.64 119.38 L 122.59 120.34 C 122.11 120.75 121.15 121.58 120.67 121.99 C 119.06 124.66 118.43 127.84 118.43 130.93 C 118.33 136.59 118.97 142.36 121.29 147.58 C 121.41 149.11 121.51 150.65 121.68 152.18 C 122.44 158.03 123.86 163.93 122.74 169.84 C 123.82 173.17 127.45 175.29 128.31 178.88 C 130.37 186.09 132.43 193.35 133.31 200.83 C 134.61 206.68 135.81 212.72 138.68 218.05 C 138.97 218.54 139.54 219.51 139.83 220.00 L 134.56 220.00 C 133.94 216.73 132.90 213.57 131.60 210.51 C 129.71 205.06 127.09 199.88 124.09 194.96 C 123.97 194.65 123.72 194.03 123.60 193.72 C 119.86 184.62 115.00 176.04 110.95 167.08 C 109.08 161.69 106.93 156.41 104.83 151.11 C 101.87 143.96 103.96 135.96 107.23 129.31 C 109.48 124.98 110.18 119.98 112.79 115.84 Z" />
</g>
<g id="#797979ff">
<path fill="#797979" opacity="1.00" d=" M 75.66 24.31 C 76.97 25.02 78.28 25.73 79.59 26.43 C 79.54 27.13 79.45 28.53 79.41 29.23 C 78.18 27.57 76.93 25.93 75.66 24.31 Z" />
<path fill="#797979" opacity="1.00" d=" M 82.85 40.75 C 86.64 40.49 90.44 40.45 94.20 39.83 C 91.69 44.21 86.47 42.66 82.85 40.75 Z" />
<path fill="#797979" opacity="1.00" d=" M 87.64 119.69 C 89.58 119.93 91.52 120.22 93.45 120.57 C 92.70 121.37 91.96 122.17 91.22 122.98 C 90.02 121.89 88.81 120.80 87.64 119.69 Z" />
<path fill="#797979" opacity="1.00" d=" M 135.55 124.63 C 137.75 126.46 139.91 128.35 142.26 129.99 C 141.67 130.25 140.47 130.77 139.87 131.04 L 139.02 131.16 C 137.74 130.74 136.46 130.30 135.24 129.74 C 135.15 128.03 135.39 126.33 135.55 124.63 Z" />
<path fill="#797979" opacity="1.00" d=" M 151.89 129.08 C 152.92 130.06 152.72 131.62 152.64 132.91 C 151.07 132.38 150.66 130.17 151.89 129.08 Z" />
<path fill="#797979" opacity="1.00" d=" M 101.14 207.08 C 101.06 203.92 101.36 200.78 101.71 197.65 C 102.88 198.70 104.14 199.69 105.09 200.96 C 106.32 205.87 107.25 210.98 106.46 216.05 C 105.71 210.68 106.10 204.52 102.03 200.33 C 102.04 203.85 102.60 207.34 103.30 210.78 C 103.48 213.85 103.39 216.93 103.33 220.00 L 102.57 220.00 C 102.59 215.65 102.13 211.32 101.14 207.08 Z" />
</g>
<g id="#bcbcbcff">
<path fill="#bcbcbc" opacity="1.00" d=" M 91.12 28.05 C 90.20 25.34 93.87 24.83 95.44 23.51 C 94.23 25.17 93.99 29.95 91.12 28.05 Z" />
</g>
<g id="#9d9d9dfe">
<path fill="#9d9d9d" opacity="1.00" d=" M 87.27 28.31 C 88.23 26.92 90.40 28.63 89.35 29.90 C 88.40 31.28 86.21 29.58 87.27 28.31 Z" />
</g>
<g id="#393939ff">
<path fill="#393939" opacity="1.00" d=" M 91.46 28.75 C 92.85 31.48 95.05 34.01 94.88 37.25 C 92.62 34.98 92.52 31.61 91.46 28.75 Z" />
<path fill="#393939" opacity="1.00" d=" M 117.98 40.10 C 120.09 43.58 122.05 47.16 124.38 50.51 C 127.70 55.03 128.28 60.77 129.68 66.04 C 132.48 76.75 128.27 87.64 129.43 98.45 C 130.18 102.50 132.71 105.90 134.01 109.76 C 136.33 116.76 141.45 122.91 148.13 126.11 C 146.92 126.41 145.71 126.71 144.51 127.01 C 146.50 127.91 148.49 128.81 150.49 129.67 C 150.44 129.05 150.32 127.81 150.26 127.19 C 150.82 127.81 151.36 128.44 151.89 129.08 C 150.66 130.17 151.07 132.38 152.64 132.91 C 152.57 135.02 152.48 137.14 152.32 139.26 C 148.23 136.44 144.68 132.65 139.87 131.04 C 140.47 130.77 141.67 130.25 142.26 129.99 C 145.45 132.06 148.45 134.40 151.44 136.75 C 150.18 134.69 148.95 132.54 147.05 131.00 C 143.12 127.87 141.79 122.68 138.13 119.26 C 136.34 120.25 134.59 121.30 132.86 122.40 C 133.76 123.14 134.66 123.89 135.55 124.63 C 135.39 126.33 135.15 128.03 135.24 129.74 C 136.46 130.30 137.74 130.74 139.02 131.16 C 137.60 131.39 136.18 131.60 134.76 131.83 C 133.99 128.97 133.23 126.00 131.14 123.78 C 129.18 121.01 125.65 120.35 122.64 119.38 C 122.69 118.17 122.76 116.97 122.86 115.77 C 123.15 115.57 123.73 115.19 124.03 114.99 C 126.06 116.87 127.98 118.87 129.85 120.91 C 131.88 120.25 133.92 119.57 135.96 118.89 C 134.99 116.02 133.72 113.26 132.64 110.43 C 133.45 108.35 132.74 106.01 130.63 105.07 C 129.61 103.24 128.65 101.37 127.64 99.54 C 127.08 102.13 126.80 104.78 126.06 107.34 C 125.42 106.94 124.14 106.15 123.51 105.75 C 125.52 101.33 127.54 96.83 128.16 91.97 C 129.09 83.41 130.70 74.66 128.80 66.12 C 127.75 61.30 126.74 56.34 124.16 52.07 C 123.22 51.21 122.24 50.39 121.25 49.59 C 120.54 49.03 119.83 48.47 119.13 47.92 C 118.87 45.96 118.55 44.02 118.25 42.08 C 118.18 41.58 118.05 40.60 117.98 40.10 Z" />
<path fill="#393939" opacity="1.00" d=" M 96.46 190.36 C 98.24 192.76 99.47 195.60 101.71 197.65 C 101.36 200.78 101.06 203.92 101.14 207.08 C 100.44 205.09 99.61 203.16 98.73 201.24 C 99.01 200.88 99.55 200.15 99.82 199.79 C 98.85 197.22 97.88 194.64 97.01 192.04 C 96.87 191.62 96.60 190.78 96.46 190.36 Z" />
</g>
<g id="#666666ff">
<path fill="#666666" opacity="1.00" d=" M 119.13 47.92 C 119.83 48.47 120.54 49.03 121.25 49.59 C 122.49 58.21 123.86 67.14 121.69 75.73 C 120.35 81.21 119.26 86.74 118.26 92.28 C 117.06 99.25 114.84 105.99 113.52 112.93 C 117.19 111.07 120.80 108.90 123.51 105.75 C 124.14 106.15 125.42 106.94 126.06 107.34 C 125.22 109.84 124.38 112.36 124.03 114.99 C 123.73 115.19 123.15 115.57 122.86 115.77 C 121.10 116.82 119.32 117.84 117.50 118.79 C 119.51 115.46 121.90 112.36 123.78 108.94 C 120.15 111.28 116.13 113.10 112.79 115.84 C 110.18 119.98 109.48 124.98 107.23 129.31 C 103.96 135.96 101.87 143.96 104.83 151.11 C 106.93 156.41 109.08 161.69 110.95 167.08 C 115.00 176.04 119.86 184.62 123.60 193.72 C 123.63 194.36 123.69 195.64 123.73 196.29 C 119.08 190.43 117.15 183.06 113.32 176.72 C 112.85 176.33 111.91 175.53 111.45 175.14 C 111.29 174.81 110.98 174.15 110.83 173.81 C 111.08 171.33 110.19 169.01 109.08 166.85 C 107.88 163.51 106.48 160.26 105.13 156.99 C 104.19 154.02 103.43 150.93 101.69 148.29 C 99.68 146.10 97.04 144.61 94.53 143.06 C 94.59 139.91 94.87 136.78 95.39 133.68 C 95.78 137.44 96.64 141.13 97.50 144.82 C 97.66 141.67 97.93 138.53 98.35 135.41 C 99.48 137.85 100.30 140.42 101.29 142.93 C 101.76 135.71 104.92 129.24 108.28 122.99 C 106.72 122.26 105.16 121.53 103.62 120.74 C 105.41 120.42 107.21 120.14 109.01 119.83 C 112.86 108.72 115.59 97.22 117.53 85.63 C 118.07 80.86 119.92 76.37 120.55 71.62 C 121.46 63.70 120.35 55.74 119.13 47.92 Z" />
</g>
<g id="#3d3d3df9">
<path fill="#3d3d3d" opacity="0.98" d=" M 102.37 64.06 C 102.51 58.85 101.94 53.58 103.01 48.44 C 104.15 53.23 103.58 58.18 103.67 63.04 C 103.55 69.33 105.17 75.50 105.27 81.76 C 103.33 93.58 101.57 105.51 97.60 116.87 C 99.70 118.00 101.77 119.16 103.74 120.51 C 101.98 120.45 100.23 120.32 98.49 120.17 C 97.35 125.12 95.37 130.70 98.35 135.41 C 97.93 138.53 97.66 141.67 97.50 144.82 C 96.64 141.13 95.78 137.44 95.39 133.68 C 95.84 129.75 95.78 125.79 95.30 121.87 C 93.08 124.00 91.09 126.34 89.18 128.75 C 87.63 129.71 86.74 131.38 86.77 133.20 C 84.94 135.98 83.26 138.84 81.66 141.76 C 82.43 139.43 82.99 137.04 83.71 134.70 C 86.02 130.68 87.99 126.37 91.22 122.98 C 91.96 122.17 92.70 121.37 93.45 120.57 C 94.60 120.78 95.75 120.99 96.90 121.20 C 96.63 118.80 96.39 116.40 96.21 113.99 C 90.94 112.86 85.71 111.36 80.78 109.13 C 76.27 107.07 72.52 103.74 68.66 100.70 C 70.42 107.34 74.46 112.85 78.01 118.60 C 74.38 116.31 72.27 112.50 69.90 109.07 C 67.45 115.55 65.73 122.28 63.69 128.90 C 62.24 135.75 60.78 142.61 58.86 149.36 C 57.68 154.71 56.47 160.57 58.88 165.78 C 57.76 163.35 56.95 160.78 56.34 158.17 L 56.31 157.32 C 58.46 147.13 61.39 137.09 62.75 126.74 C 64.54 121.40 66.21 116.01 67.81 110.61 C 70.07 104.11 65.60 97.56 67.10 91.01 C 67.88 87.46 68.19 83.80 69.23 80.30 C 70.44 75.04 70.67 68.94 74.86 64.99 C 71.95 73.01 69.33 81.21 68.37 89.72 C 67.42 95.24 70.57 100.88 75.10 103.91 C 81.54 108.87 89.55 110.95 97.30 112.88 C 100.36 104.10 101.51 94.84 103.09 85.73 C 104.29 78.50 102.07 71.30 102.37 64.06 Z" />
<path fill="#3d3d3d" opacity="0.98" d=" M 69.60 154.74 C 71.38 153.44 73.26 152.27 75.03 150.95 C 72.66 153.66 70.61 156.64 68.93 159.82 C 73.82 163.64 78.50 167.80 82.11 172.89 C 86.54 179.00 92.11 184.19 96.46 190.36 C 96.60 190.78 96.87 191.62 97.01 192.04 C 95.08 190.30 93.24 188.46 91.67 186.39 C 87.84 181.24 83.07 176.87 79.43 171.58 C 76.20 167.66 72.89 163.40 68.06 161.41 C 69.43 160.49 68.53 158.41 66.92 158.78 C 67.71 157.37 68.61 156.01 69.60 154.74 Z" />
<path fill="#3d3d3d" opacity="0.98" d=" M 131.60 210.51 C 132.90 213.57 133.94 216.73 134.56 220.00 L 132.16 220.00 C 131.98 216.84 131.88 213.67 131.60 210.51 Z" />
</g>
<g id="#989898fa">
<path fill="#989898" opacity="0.98" d=" M 124.16 52.07 C 126.74 56.34 127.75 61.30 128.80 66.12 C 130.70 74.66 129.09 83.41 128.16 91.97 C 128.53 86.65 128.31 81.32 128.46 76.00 C 128.62 67.81 126.30 59.89 124.16 52.07 Z" />
</g>
<g id="#717171ff">
<path fill="#717171" opacity="1.00" d=" M 84.15 63.15 C 89.01 64.11 94.47 63.59 98.69 66.57 C 94.31 66.43 89.98 66.87 85.69 67.76 C 85.18 66.22 84.66 64.69 84.15 63.15 Z" />
<path fill="#717171" opacity="1.00" d=" M 108.23 79.60 C 111.11 81.37 114.01 83.11 116.80 85.02 C 114.89 85.65 113.03 86.46 111.05 86.86 C 109.28 84.86 109.09 82.03 108.23 79.60 Z" />
<path fill="#717171" opacity="1.00" d=" M 57.76 166.36 C 56.00 164.00 56.56 160.92 56.34 158.17 C 56.95 160.78 57.76 163.35 58.88 165.78 C 61.87 168.95 65.76 171.05 69.07 173.85 C 75.29 178.97 80.78 184.88 86.93 190.07 C 89.89 193.72 93.83 196.24 97.96 198.37 C 97.63 196.26 97.29 194.15 97.01 192.04 C 97.88 194.64 98.85 197.22 99.82 199.79 C 99.55 200.15 99.01 200.88 98.73 201.24 C 91.58 196.98 85.09 191.71 79.65 185.39 C 76.20 181.10 71.44 178.24 67.31 174.68 C 64.08 171.98 60.19 169.91 57.76 166.36 Z" />
</g>
<g id="#818181fa">
<path fill="#818181" opacity="0.98" d=" M 130.63 105.07 C 132.74 106.01 133.45 108.35 132.64 110.43 C 131.43 108.88 130.80 107.01 130.63 105.07 Z" />
</g>
<g id="#fdfdfdfe">
<path fill="#fdfdfd" opacity="1.00" d=" M 132.86 122.40 C 134.59 121.30 136.34 120.25 138.13 119.26 C 141.79 122.68 143.12 127.87 147.05 131.00 C 148.95 132.54 150.18 134.69 151.44 136.75 C 148.45 134.40 145.45 132.06 142.26 129.99 C 139.91 128.35 137.75 126.46 135.55 124.63 C 134.66 123.89 133.76 123.14 132.86 122.40 Z" />
</g>
<g id="#45454590">
<path fill="#454545" opacity="0.56" d=" M 120.67 121.99 C 121.15 121.58 122.11 120.75 122.59 120.34 C 121.93 127.66 120.21 134.92 120.78 142.32 C 119.38 135.60 120.12 128.76 120.67 121.99 Z" />
</g>
<g id="#7f7f7ff8">
<path fill="#7f7f7f" opacity="0.97" d=" M 118.43 130.93 C 118.43 127.84 119.06 124.66 120.67 121.99 C 120.12 128.76 119.38 135.60 120.78 142.32 C 121.02 144.07 121.20 145.82 121.29 147.58 C 118.97 142.36 118.33 136.59 118.43 130.93 Z" />
</g>
<g id="#3e3e3e91">
<path fill="#3e3e3e" opacity="0.57" d=" M 57.36 147.40 C 59.33 140.56 60.14 133.40 62.75 126.74 C 61.39 137.09 58.46 147.13 56.31 157.32 C 55.96 153.97 56.40 150.62 57.36 147.40 Z" />
</g>
<g id="#3434344c">
<path fill="#343434" opacity="0.30" d=" M 86.77 133.20 C 86.74 131.38 87.63 129.71 89.18 128.75 C 89.42 130.62 88.47 132.39 86.77 133.20 Z" />
</g>
<g id="#686868e4">
<path fill="#686868" opacity="0.89" d=" M 69.60 154.74 C 74.63 148.29 79.66 141.82 83.71 134.70 C 82.99 137.04 82.43 139.43 81.66 141.76 C 81.26 142.49 80.87 143.23 80.46 143.97 C 78.71 144.64 77.66 146.32 77.71 148.19 C 76.82 149.11 75.93 150.03 75.03 150.95 C 73.26 152.27 71.38 153.44 69.60 154.74 Z" />
</g>
<g id="#3737374b">
<path fill="#373737" opacity="0.29" d=" M 77.71 148.19 C 77.66 146.32 78.71 144.64 80.46 143.97 C 80.38 145.79 79.36 147.40 77.71 148.19 Z" />
</g>
<g id="#3b3b3b6f">
<path fill="#3b3b3b" opacity="0.44" d=" M 101.69 148.29 C 103.43 150.93 104.19 154.02 105.13 156.99 C 103.84 154.15 102.79 151.21 101.69 148.29 Z" />
</g>
<g id="#1c1c1c48">
<path fill="#1c1c1c" opacity="0.28" d=" M 123.61 154.89 C 125.01 160.11 125.47 165.50 125.98 170.86 C 124.05 165.77 124.20 160.23 123.61 154.89 Z" />
</g>
<g id="#969696f5">
<path fill="#969696" opacity="0.96" d=" M 66.92 158.78 C 68.53 158.41 69.43 160.49 68.06 161.41 C 66.74 160.87 66.36 160.00 66.92 158.78 Z" />
</g>
<g id="#42424273">
<path fill="#424242" opacity="0.45" d=" M 109.08 166.85 C 110.19 169.01 111.08 171.33 110.83 173.81 C 109.64 171.68 109.04 169.28 109.08 166.85 Z" />
</g>
<g id="#4545454f">
<path fill="#454545" opacity="0.31" d=" M 111.45 175.14 C 111.91 175.53 112.85 176.33 113.32 176.72 C 112.85 176.33 111.91 175.53 111.45 175.14 Z" />
</g>
<g id="#38383899">
<path fill="#383838" opacity="0.60" d=" M 105.09 200.96 C 108.24 206.75 108.67 213.68 107.01 220.00 L 106.02 220.00 C 106.16 218.68 106.31 217.36 106.46 216.05 C 107.25 210.98 106.32 205.87 105.09 200.96 Z" />
</g>
<g id="#969696fe">
<path fill="#969696" opacity="1.00" d=" M 103.30 210.78 C 103.80 213.50 104.13 216.25 104.42 219.01 C 105.09 218.01 105.77 217.03 106.46 216.05 C 106.31 217.36 106.16 218.68 106.02 220.00 L 103.33 220.00 C 103.39 216.93 103.48 213.85 103.30 210.78 Z" />
</g>
</svg>
