<?xml version="1.0" encoding="UTF-8" ?>
<!DOCTYPE svg PUBLIC "-//W3C//DTD SVG 1.1//EN" "http://www.w3.org/Graphics/SVG/1.1/DTD/svg11.dtd">
<svg width="210pt" height="220pt" viewBox="0 0 210 220" version="1.1" xmlns="http://www.w3.org/2000/svg">
<g id="#050505fe">
<path fill="#050505" opacity="1.00" d=" M 93.13 0.00 L 120.75 0.00 C 123.71 3.03 127.78 4.42 131.42 6.39 C 136.10 8.71 140.08 12.22 144.91 14.26 C 151.04 16.96 153.41 23.71 157.50 28.53 C 161.17 32.95 162.55 38.59 163.96 44.02 C 164.95 48.16 167.01 51.91 168.28 55.95 C 170.14 60.11 171.85 64.33 173.65 68.52 C 175.57 72.93 176.00 77.81 177.91 82.22 C 178.74 89.80 180.37 97.34 180.01 105.00 C 179.79 111.01 180.38 117.06 179.73 123.04 C 178.07 131.37 175.14 139.53 175.27 148.12 C 174.00 152.77 170.94 156.75 169.24 161.28 C 165.86 168.55 162.99 176.47 156.95 182.04 C 152.65 186.35 149.26 191.57 144.33 195.25 C 141.69 197.19 139.40 199.54 137.31 202.06 C 136.99 202.25 136.34 202.63 136.01 202.83 C 129.44 206.01 123.31 211.37 115.60 210.83 C 116.92 212.70 118.29 214.54 119.68 216.37 C 125.03 217.34 130.84 216.79 135.54 220.00 L 85.76 220.00 C 88.54 218.01 91.77 217.01 95.20 217.03 C 95.92 217.58 96.65 218.13 97.39 218.68 C 98.41 217.66 99.25 216.37 100.51 215.65 C 102.69 215.28 104.91 215.42 107.11 215.38 C 108.17 213.90 109.23 212.40 110.26 210.89 C 103.70 210.54 97.57 208.03 91.23 206.59 C 87.55 205.48 83.27 205.43 80.40 202.52 C 76.99 199.34 73.47 196.28 69.90 193.27 C 67.76 191.68 66.02 189.65 64.41 187.54 C 61.60 183.80 57.05 181.62 54.80 177.43 C 51.24 168.52 45.27 160.57 43.37 151.02 C 42.78 147.32 42.37 143.58 42.03 139.85 C 40.06 136.40 38.53 132.72 36.96 129.08 C 35.31 125.13 32.82 121.60 31.29 117.60 C 30.97 117.21 30.33 116.42 30.00 116.03 C 30.25 104.07 29.57 92.09 30.37 80.16 C 29.84 74.74 29.73 69.25 30.56 63.85 C 29.04 56.28 31.68 48.67 34.71 41.82 C 36.65 38.01 37.74 33.78 40.21 30.24 C 42.74 26.61 43.44 21.89 46.61 18.67 C 52.52 13.83 58.74 9.06 66.34 7.29 C 66.38 6.60 66.48 5.22 66.52 4.53 C 71.69 4.52 76.87 4.69 82.04 4.56 C 86.19 4.56 89.69 1.99 93.13 0.00 M 93.20 3.84 C 90.76 5.78 88.03 7.39 85.02 8.23 C 81.09 8.80 77.11 8.18 73.17 8.54 C 69.92 8.90 67.24 10.92 64.39 12.33 C 62.00 13.34 59.18 13.35 57.15 15.15 C 53.57 18.22 49.18 20.78 47.19 25.26 C 45.81 27.98 45.30 31.36 42.55 33.14 C 41.19 38.00 38.83 42.45 36.90 47.08 C 35.92 51.86 32.39 55.95 32.70 61.00 C 32.73 75.66 32.73 90.31 32.67 104.96 C 32.59 108.06 33.25 111.10 33.76 114.13 C 34.19 114.54 35.05 115.37 35.48 115.78 C 35.55 116.75 35.62 117.72 35.69 118.70 C 38.59 122.26 40.61 126.44 41.92 130.84 C 42.90 134.46 44.94 137.80 44.98 141.65 C 47.02 144.01 46.71 147.15 46.72 150.06 C 48.35 153.27 49.69 156.62 50.88 160.03 C 53.62 165.81 55.83 171.80 59.11 177.32 C 63.23 180.36 66.85 183.88 69.64 188.19 C 74.91 191.36 79.10 195.89 83.31 200.30 C 83.86 200.36 84.96 200.48 85.51 200.54 C 85.91 200.90 86.71 201.63 87.10 201.99 C 91.72 204.21 96.82 204.58 101.79 205.40 C 107.65 207.41 113.93 206.84 120.01 206.68 C 128.44 204.36 135.63 198.72 141.55 192.46 C 146.16 188.26 150.74 183.92 154.09 178.61 C 154.82 178.32 155.56 178.02 156.30 177.73 C 158.43 174.11 160.90 170.69 163.07 167.10 C 164.64 160.07 167.99 153.61 171.57 147.43 C 173.27 144.53 171.89 140.97 173.04 137.90 C 174.13 135.10 174.60 132.14 174.51 129.14 C 174.70 128.84 175.09 128.24 175.29 127.93 C 176.88 118.36 176.39 108.62 176.27 98.96 C 175.29 93.94 175.25 88.81 175.51 83.72 C 174.83 82.96 174.14 82.20 173.45 81.45 C 173.43 80.31 173.41 79.18 173.38 78.05 C 170.15 71.47 167.83 64.46 164.38 57.97 C 164.34 57.24 164.26 55.77 164.22 55.03 C 162.42 50.94 161.34 46.60 160.03 42.35 C 158.84 40.26 157.96 38.02 157.24 35.74 C 155.54 32.81 153.70 29.95 151.35 27.49 C 151.33 26.84 151.29 25.54 151.27 24.89 C 146.50 20.17 141.35 15.54 135.10 12.90 C 128.19 9.09 121.32 4.84 113.58 2.92 C 106.78 2.17 99.93 2.80 93.20 3.84 Z" />
<path fill="#050505" opacity="1.00" d=" M 61.76 47.16 C 62.92 46.55 64.09 45.94 65.25 45.32 C 66.14 46.03 67.04 46.74 67.94 47.46 C 70.58 47.45 73.23 47.44 75.88 47.39 C 75.69 48.13 75.31 49.59 75.13 50.33 C 76.75 50.53 78.36 50.78 79.98 50.98 C 82.12 51.21 80.01 48.89 80.06 47.88 C 80.78 48.60 81.50 49.33 82.22 50.06 C 83.75 50.38 85.28 50.72 86.79 51.12 C 92.11 52.40 97.60 52.24 102.95 53.25 C 106.79 53.40 110.38 51.59 114.16 51.15 C 114.57 50.73 115.39 49.91 115.80 49.49 C 116.26 49.46 117.18 49.39 117.64 49.36 C 117.61 49.83 117.55 50.77 117.52 51.24 C 115.92 51.75 114.31 52.27 112.70 52.77 C 109.84 54.03 106.83 54.90 103.78 55.60 C 102.10 54.33 100.25 53.15 98.04 53.40 C 93.64 53.57 89.31 52.82 85.11 51.59 C 83.19 52.04 81.23 53.09 79.22 52.65 C 77.13 51.77 75.12 50.71 73.06 49.76 C 69.12 49.68 65.60 47.73 61.76 47.16 Z" />
<path fill="#050505" opacity="1.00" d=" M 54.77 56.43 C 55.82 56.63 56.88 56.83 57.93 57.02 C 59.86 57.38 61.53 58.24 62.44 60.14 C 62.51 59.13 62.63 57.12 62.69 56.11 C 69.99 58.00 77.52 57.42 84.99 57.57 C 88.52 57.78 92.63 56.23 95.42 59.19 C 102.29 60.77 109.47 62.61 116.51 60.90 C 119.92 60.20 122.76 58.08 125.65 56.26 C 125.65 57.53 125.65 58.80 125.63 60.06 C 116.99 63.93 107.21 62.94 98.22 60.95 C 95.20 59.95 92.21 58.56 88.96 58.59 C 81.03 58.52 73.10 58.68 65.18 58.47 L 65.27 60.65 C 69.80 60.66 74.43 60.06 78.88 61.18 C 74.01 61.62 68.97 62.07 64.20 60.81 C 60.99 60.22 57.81 59.50 54.59 59.06 C 54.65 58.19 54.71 57.31 54.77 56.43 Z" />
<path fill="#050505" opacity="1.00" d=" M 74.60 69.05 C 74.35 68.31 73.84 66.83 73.59 66.09 C 75.02 67.22 76.44 68.37 77.91 69.46 L 76.53 69.88 L 76.15 68.27 C 75.61 68.92 75.08 69.58 74.56 70.25 C 74.82 73.45 75.20 77.23 72.83 79.78 C 69.18 82.83 64.82 85.23 60.03 85.77 C 57.09 85.90 54.74 87.65 52.73 89.63 C 52.44 91.36 51.99 93.06 51.20 94.64 C 52.49 95.81 54.03 96.58 55.80 96.63 C 57.84 97.57 58.86 99.36 59.00 101.64 C 58.00 100.52 56.02 98.29 55.02 97.18 C 55.47 99.09 56.12 100.94 56.83 102.76 C 56.28 102.65 55.20 102.41 54.65 102.30 C 54.49 101.22 54.32 100.15 54.16 99.08 C 51.15 97.32 47.80 94.86 47.55 91.07 C 47.15 88.02 49.14 85.27 51.46 83.53 C 56.11 79.94 63.20 81.79 67.15 77.01 C 68.50 75.14 70.85 75.59 72.84 75.60 C 72.75 73.15 72.69 70.70 72.63 68.25 L 74.60 69.05 Z" />
<path fill="#050505" opacity="1.00" d=" M 91.30 67.96 C 91.93 67.71 93.20 67.20 93.83 66.95 C 93.52 67.37 92.90 68.19 92.58 68.61 C 93.10 70.23 93.56 71.87 93.91 73.54 C 92.32 72.07 91.33 70.14 91.30 67.96 Z" />
<path fill="#050505" opacity="1.00" d=" M 136.90 77.89 C 137.57 75.14 138.41 72.38 140.32 70.22 C 140.31 73.30 139.76 76.33 139.12 79.33 C 137.35 80.69 135.60 82.08 133.84 83.45 C 131.90 83.36 129.96 83.36 128.01 83.35 C 129.74 82.55 131.48 81.76 133.23 81.00 C 133.71 79.67 134.25 78.35 134.58 76.97 C 134.40 75.11 133.02 73.67 132.21 72.04 C 133.67 72.89 135.12 73.76 136.58 74.63 C 136.68 75.72 136.79 76.80 136.90 77.89 Z" />
<path fill="#050505" opacity="1.00" d=" M 95.93 70.69 C 97.98 72.71 99.71 75.01 101.15 77.50 C 101.87 77.19 103.31 76.57 104.03 76.26 C 104.49 76.69 105.40 77.56 105.85 78.00 C 110.02 78.78 113.73 81.23 118.04 81.32 C 120.38 81.27 122.18 82.91 124.10 83.99 C 126.38 87.38 127.57 91.35 126.39 95.40 C 122.68 92.03 120.53 85.83 114.88 85.41 C 109.27 84.98 103.84 83.12 99.03 80.24 C 99.11 79.53 99.28 78.12 99.37 77.42 C 97.38 75.68 96.14 73.33 95.93 70.69 Z" />
<path fill="#050505" opacity="1.00" d=" M 39.27 86.56 C 39.36 84.52 39.44 82.48 39.70 80.45 C 41.60 83.03 42.56 86.09 42.80 89.27 C 41.61 88.38 40.44 87.47 39.27 86.56 Z" />
<path fill="#050505" opacity="1.00" d=" M 56.98 92.92 C 59.89 91.16 62.79 89.32 65.20 86.89 C 65.87 86.80 67.19 86.61 67.85 86.52 C 69.33 88.76 70.97 90.90 72.73 92.93 C 72.61 96.55 73.02 100.20 72.59 103.82 C 71.52 107.29 69.11 110.21 66.12 112.23 C 66.45 111.70 67.09 110.64 67.42 110.11 C 67.50 109.09 67.68 107.05 67.77 106.02 C 66.16 106.64 64.54 107.25 62.92 107.82 C 61.95 107.98 60.97 108.14 60.00 108.29 C 62.57 106.47 65.79 105.44 67.59 102.70 C 66.25 102.66 64.92 102.63 63.59 102.62 C 62.81 101.77 62.04 100.92 61.27 100.07 C 61.46 98.26 61.51 96.42 60.95 94.66 C 60.79 96.01 60.49 98.70 60.34 100.04 C 59.09 97.73 57.88 95.39 56.98 92.92 M 62.61 91.83 C 62.46 92.48 62.16 93.78 62.01 94.43 C 65.13 94.34 68.25 94.21 71.37 94.03 C 70.46 91.82 68.76 90.15 67.00 88.60 C 65.54 89.69 64.08 90.76 62.61 91.83 M 68.19 99.30 C 66.61 99.65 64.99 99.77 63.40 100.02 C 64.83 101.64 67.00 101.55 68.96 101.74 C 69.95 100.41 71.06 99.16 71.86 97.71 C 71.87 96.38 71.81 94.61 70.01 94.89 C 68.40 95.69 69.29 98.07 68.19 99.30 Z" />
<path fill="#050505" opacity="1.00" d=" M 111.82 85.83 C 115.27 89.04 116.95 93.67 120.57 96.75 C 121.35 96.63 122.91 96.39 123.69 96.27 C 123.57 97.31 123.45 98.35 123.33 99.40 C 122.87 99.50 121.96 99.71 121.50 99.81 C 121.25 99.16 120.76 97.84 120.51 97.18 C 118.22 98.55 115.88 99.83 113.41 100.86 C 113.45 101.36 113.54 102.36 113.58 102.86 C 111.91 102.59 110.23 102.28 108.58 101.91 C 109.62 101.72 111.72 101.34 112.76 101.15 C 112.71 100.69 112.59 99.79 112.53 99.33 C 110.83 99.81 109.13 100.28 107.43 100.74 C 110.01 103.73 112.78 106.56 115.21 109.68 C 113.44 108.27 111.79 106.71 110.12 105.19 C 109.12 107.65 109.93 109.60 112.08 110.91 C 111.53 110.86 110.45 110.76 109.91 110.70 C 108.82 109.19 107.67 107.72 106.49 106.29 C 105.50 109.72 108.96 111.63 110.32 114.30 C 108.20 113.54 106.67 111.92 105.72 109.92 C 105.25 109.70 104.30 109.25 103.83 109.02 C 103.62 108.62 103.21 107.83 103.01 107.43 C 103.76 107.45 105.28 107.49 106.03 107.51 C 104.77 103.50 102.85 99.71 100.12 96.49 C 100.73 96.48 101.94 96.45 102.55 96.44 C 102.50 94.40 102.47 92.38 102.42 90.35 C 104.81 88.53 107.67 87.58 110.60 87.11 C 110.65 87.91 110.76 89.53 110.81 90.34 C 108.85 90.42 106.90 90.52 104.95 90.66 C 105.10 91.34 105.39 92.69 105.54 93.36 C 108.76 93.35 111.97 93.36 115.19 93.31 C 114.64 91.34 113.13 90.30 111.17 89.94 C 111.33 88.91 111.66 86.86 111.82 85.83 M 104.36 99.92 C 105.10 98.90 105.84 97.87 106.59 96.86 C 106.45 96.09 106.18 94.56 106.04 93.80 C 103.34 94.74 104.69 97.82 104.36 99.92 M 114.99 95.63 C 114.96 96.18 114.89 97.29 114.86 97.84 C 115.97 98.87 117.80 97.41 117.54 96.09 C 116.91 94.99 116.06 94.83 114.99 95.63 M 106.35 103.32 C 106.05 104.78 108.08 106.77 109.52 106.25 C 109.75 104.77 107.81 102.88 106.35 103.32 Z" />
<path fill="#050505" opacity="1.00" d=" M 85.63 103.58 C 85.99 103.62 86.71 103.69 87.08 103.73 C 87.36 105.59 87.65 107.45 88.01 109.30 C 87.35 111.15 86.38 112.86 85.15 114.38 C 85.49 111.24 87.56 107.99 85.74 104.94 C 85.71 104.60 85.66 103.92 85.63 103.58 Z" />
<path fill="#050505" opacity="1.00" d=" M 126.60 113.54 C 127.77 111.71 129.17 110.02 130.88 108.66 C 130.43 110.35 129.87 112.02 129.33 113.68 C 128.64 113.64 127.28 113.57 126.60 113.54 Z" />
<path fill="#050505" opacity="1.00" d=" M 54.50 116.56 C 55.27 115.86 56.05 115.16 56.82 114.47 C 57.77 116.25 58.74 118.02 59.76 119.77 C 60.23 119.60 61.18 119.26 61.66 119.09 L 61.26 121.08 C 63.55 120.75 67.31 121.87 65.15 124.73 L 64.63 123.06 C 63.15 123.08 61.67 123.17 60.19 123.28 C 60.37 122.81 60.74 121.88 60.92 121.41 C 60.22 121.41 58.83 121.40 58.14 121.40 C 57.20 119.58 56.01 117.93 54.50 116.56 Z" />
<path fill="#050505" opacity="1.00" d=" M 118.70 119.05 C 121.47 117.32 124.45 115.96 127.48 114.76 C 127.20 115.35 126.62 116.53 126.33 117.12 C 125.00 117.85 123.68 118.59 122.37 119.36 C 119.52 120.22 116.55 120.83 113.58 120.19 C 115.25 119.66 116.98 119.37 118.70 119.05 Z" />
<path fill="#050505" opacity="1.00" d=" M 99.81 116.94 C 101.98 118.46 103.16 120.71 102.87 123.42 C 101.74 122.48 100.64 121.52 99.54 120.55 C 99.62 119.34 99.71 118.14 99.81 116.94 Z" />
<path fill="#050505" opacity="1.00" d=" M 86.29 119.63 C 87.44 119.58 88.60 119.53 89.75 119.49 C 89.66 120.03 89.47 121.12 89.37 121.66 C 88.36 121.74 87.35 121.83 86.33 121.91 C 86.32 121.34 86.30 120.20 86.29 119.63 Z" />
<path fill="#050505" opacity="1.00" d=" M 83.18 122.58 C 83.88 122.45 85.29 122.21 85.99 122.08 C 85.47 123.01 84.95 123.93 84.43 124.85 C 85.25 126.34 86.06 127.84 86.87 129.35 C 86.17 129.21 84.78 128.93 84.08 128.79 C 83.72 126.73 83.39 124.66 83.18 122.58 Z" />
<path fill="#050505" opacity="1.00" d=" M 79.65 125.26 C 80.13 125.29 81.10 125.36 81.58 125.40 C 81.08 126.91 80.59 128.43 80.14 129.97 C 83.47 130.81 86.39 132.73 88.46 135.50 C 84.93 134.94 81.49 133.95 78.28 132.38 C 78.34 129.94 78.75 127.53 79.65 125.26 Z" />
<path fill="#050505" opacity="1.00" d=" M 116.29 128.60 C 116.79 128.47 117.81 128.21 118.31 128.08 C 118.75 130.07 119.25 132.04 119.72 134.02 C 122.62 137.38 125.90 140.65 127.29 144.98 C 125.24 143.49 123.59 141.57 122.15 139.50 C 121.60 139.47 120.50 139.41 119.95 139.38 C 118.75 136.74 117.47 134.08 117.14 131.16 C 116.84 130.31 116.55 129.46 116.29 128.60 Z" />
<path fill="#050505" opacity="1.00" d=" M 97.32 130.11 C 98.96 129.37 100.64 128.72 102.34 128.12 C 102.50 128.93 102.80 130.54 102.96 131.35 C 103.64 131.35 105.00 131.35 105.68 131.35 C 105.63 132.18 105.52 133.86 105.46 134.70 C 102.74 133.78 100.00 132.89 97.24 132.10 C 97.26 131.60 97.30 130.61 97.32 130.11 Z" />
<path fill="#050505" opacity="1.00" d=" M 85.46 131.22 C 85.98 130.67 86.49 130.13 87.02 129.59 C 88.54 131.47 90.17 133.26 91.74 135.10 C 89.08 134.80 87.16 133.10 85.46 131.22 Z" />
<path fill="#050505" opacity="1.00" d=" M 75.50 133.34 L 77.61 133.40 C 77.54 135.27 77.48 137.14 77.41 139.02 C 77.11 139.85 76.50 141.51 76.20 142.34 C 80.17 142.88 84.12 142.45 87.67 140.53 C 87.92 139.94 88.40 138.75 88.64 138.16 C 89.42 138.30 90.20 138.44 90.99 138.59 C 91.58 139.84 92.19 141.10 92.80 142.35 C 90.15 144.62 87.32 146.73 84.16 148.23 C 82.31 148.70 80.22 147.02 78.54 148.40 C 76.53 149.60 74.69 151.05 72.86 152.50 C 69.48 154.25 65.85 152.82 62.35 152.38 C 60.67 150.59 58.62 149.06 57.41 146.90 C 57.14 144.40 58.24 142.07 59.03 139.78 C 59.50 138.40 59.46 136.31 61.45 136.44 C 63.82 135.78 65.40 138.18 66.53 139.85 C 66.25 140.60 65.69 142.11 65.41 142.86 C 64.46 142.30 63.52 141.75 62.57 141.20 C 62.53 141.72 62.46 142.77 62.42 143.29 C 62.91 143.69 63.87 144.48 64.35 144.87 C 64.41 145.51 64.55 146.77 64.61 147.40 C 66.14 147.49 67.67 147.57 69.20 147.65 C 70.47 144.73 72.08 141.97 74.08 139.49 C 74.44 139.54 75.16 139.65 75.52 139.70 C 75.51 137.58 75.51 135.46 75.50 133.34 Z" />
<path fill="#050505" opacity="1.00" d=" M 126.13 136.05 C 132.50 135.83 134.13 143.02 134.55 148.02 C 133.37 148.58 132.19 149.14 131.02 149.70 C 131.24 150.84 131.47 151.98 131.70 153.12 C 134.49 156.35 135.19 160.65 135.71 164.75 C 135.23 164.66 134.27 164.48 133.79 164.39 C 133.44 162.09 132.71 159.87 131.78 157.74 C 132.03 160.91 130.78 163.71 129.09 166.25 C 128.28 165.14 127.46 164.03 126.65 162.92 C 127.16 162.55 128.18 161.81 128.69 161.44 C 128.67 160.29 128.65 159.14 128.63 158.00 C 127.60 158.60 126.58 159.22 125.58 159.87 C 124.72 157.60 123.91 155.30 123.30 152.95 C 124.92 153.94 125.74 156.84 127.82 156.80 C 127.86 155.37 127.13 154.06 126.77 152.71 C 127.13 152.12 127.50 151.53 127.87 150.94 C 124.09 149.77 120.63 147.78 116.85 146.62 C 112.20 146.02 107.54 146.86 102.97 147.62 C 103.56 145.35 104.31 143.14 105.00 140.91 C 106.65 141.72 108.29 142.56 109.91 143.44 C 115.16 143.30 120.55 143.60 125.16 146.41 C 127.05 146.19 128.94 145.92 130.82 145.63 C 130.68 145.27 130.42 144.55 130.28 144.19 C 127.69 142.23 126.62 139.15 126.13 136.05 Z" />
<path fill="#050505" opacity="1.00" d=" M 93.70 152.32 C 95.60 151.58 97.64 151.42 99.64 151.76 C 98.18 152.49 95.26 153.95 93.80 154.69 C 98.22 154.63 102.64 154.87 107.05 154.45 C 106.01 153.26 103.49 152.92 103.30 151.27 C 106.01 150.73 109.06 150.57 111.73 151.36 C 112.43 153.01 109.78 153.38 108.99 154.39 C 112.96 154.65 116.88 155.32 120.83 155.67 C 120.86 155.94 120.91 156.48 120.94 156.75 C 118.18 156.66 115.42 156.54 112.67 156.29 C 112.60 156.88 112.47 158.05 112.41 158.64 C 111.62 158.57 110.06 158.43 109.28 158.36 L 109.46 159.59 C 103.04 159.52 96.61 159.64 90.19 159.55 C 90.34 158.99 90.65 157.87 90.81 157.31 C 89.23 157.49 87.66 157.66 86.08 157.83 C 83.18 159.21 80.20 160.41 77.18 161.49 C 79.51 163.37 77.80 166.21 77.36 168.52 C 76.71 168.49 75.39 168.43 74.74 168.40 C 74.48 166.03 74.09 163.69 73.73 161.34 C 74.50 160.08 75.26 158.81 76.00 157.55 C 76.22 157.55 76.64 157.56 76.86 157.57 C 77.65 159.06 79.29 160.13 80.79 158.79 C 84.25 156.66 87.99 155.03 92.00 154.28 C 91.81 153.81 91.44 152.86 91.25 152.39 C 91.87 152.37 93.09 152.34 93.70 152.32 Z" />
<path fill="#050505" opacity="1.00" d=" M 68.61 154.48 C 70.02 154.07 71.43 153.64 72.82 153.17 C 72.64 153.65 72.27 154.60 72.08 155.07 C 71.08 160.74 72.24 166.49 71.44 172.17 C 70.69 169.87 70.06 167.54 69.37 165.22 C 68.12 164.20 67.23 162.85 66.87 161.27 C 65.70 158.85 67.79 156.64 68.61 154.48 M 68.68 155.36 C 68.62 157.81 68.48 160.26 68.39 162.70 C 68.95 162.73 70.06 162.79 70.62 162.82 C 70.77 160.88 71.02 158.95 71.05 157.00 C 70.44 156.24 69.65 155.69 68.68 155.36 Z" />
<path fill="#050505" opacity="1.00" d=" M 112.18 186.48 C 115.82 184.35 119.20 181.73 121.75 178.32 C 121.65 180.30 121.56 182.29 121.49 184.28 C 115.50 187.55 108.61 190.11 101.80 187.80 C 101.16 187.97 99.89 188.32 99.26 188.49 C 98.09 186.39 95.77 185.76 93.68 185.01 C 93.19 184.05 92.71 183.09 92.23 182.13 C 93.70 182.25 95.17 182.38 96.65 182.52 C 100.66 186.74 106.81 186.58 112.18 186.48 Z" />
</g>
<g id="#0c11f8ff">
<path fill="#0c11f8" opacity="1.00" d=" M 93.20 3.84 C 99.93 2.80 106.78 2.17 113.58 2.92 C 121.32 4.84 128.19 9.09 135.10 12.90 C 141.35 15.54 146.50 20.17 151.27 24.89 C 151.29 25.54 151.33 26.84 151.35 27.49 C 153.70 29.95 155.54 32.81 157.24 35.74 C 157.96 38.02 158.84 40.26 160.03 42.35 C 161.34 46.60 162.42 50.94 164.22 55.03 C 164.26 55.77 164.34 57.24 164.38 57.97 C 167.83 64.46 170.15 71.47 173.38 78.05 C 173.41 79.18 173.43 80.31 173.45 81.45 C 174.14 82.20 174.83 82.96 175.51 83.72 C 175.25 88.81 175.29 93.94 176.27 98.96 C 176.39 108.62 176.88 118.36 175.29 127.93 C 175.09 128.24 174.70 128.84 174.51 129.14 C 174.60 132.14 174.13 135.10 173.04 137.90 C 171.89 140.97 173.27 144.53 171.57 147.43 C 167.99 153.61 164.64 160.07 163.07 167.10 C 160.90 170.69 158.43 174.11 156.30 177.73 C 155.56 178.02 154.82 178.32 154.09 178.61 C 150.74 183.92 146.16 188.26 141.55 192.46 C 135.63 198.72 128.44 204.36 120.01 206.68 C 113.93 206.84 107.65 207.41 101.79 205.40 C 96.82 204.58 91.72 204.21 87.10 201.99 C 86.71 201.63 85.91 200.90 85.51 200.54 C 84.96 200.48 83.86 200.36 83.31 200.30 C 79.10 195.89 74.91 191.36 69.64 188.19 C 66.85 183.88 63.23 180.36 59.11 177.32 C 55.83 171.80 53.62 165.81 50.88 160.03 C 49.69 156.62 48.35 153.27 46.72 150.06 C 46.71 147.15 47.02 144.01 44.98 141.65 C 44.94 137.80 42.90 134.46 41.92 130.84 C 40.61 126.44 38.59 122.26 35.69 118.70 C 35.62 117.72 35.55 116.75 35.48 115.78 C 35.05 115.37 34.19 114.54 33.76 114.13 C 33.25 111.10 32.59 108.06 32.67 104.96 C 32.73 90.31 32.73 75.66 32.70 61.00 C 32.39 55.95 35.92 51.86 36.90 47.08 C 38.83 42.45 41.19 38.00 42.55 33.14 C 45.30 31.36 45.81 27.98 47.19 25.26 C 49.18 20.78 53.57 18.22 57.15 15.15 C 59.18 13.35 62.00 13.34 64.39 12.33 C 67.24 10.92 69.92 8.90 73.17 8.54 C 77.11 8.18 81.09 8.80 85.02 8.23 C 88.03 7.39 90.76 5.78 93.20 3.84 M 61.76 47.16 C 65.60 47.73 69.12 49.68 73.06 49.76 C 75.12 50.71 77.13 51.77 79.22 52.65 C 81.23 53.09 83.19 52.04 85.11 51.59 C 89.31 52.82 93.64 53.57 98.04 53.40 C 100.25 53.15 102.10 54.33 103.78 55.60 C 106.83 54.90 109.84 54.03 112.70 52.77 C 114.31 52.27 115.92 51.75 117.52 51.24 C 117.55 50.77 117.61 49.83 117.64 49.36 C 117.18 49.39 116.26 49.46 115.80 49.49 C 115.39 49.91 114.57 50.73 114.16 51.15 C 110.38 51.59 106.79 53.40 102.95 53.25 C 97.60 52.24 92.11 52.40 86.79 51.12 C 85.28 50.72 83.75 50.38 82.22 50.06 C 81.50 49.33 80.78 48.60 80.06 47.88 C 80.01 48.89 82.12 51.21 79.98 50.98 C 78.36 50.78 76.75 50.53 75.13 50.33 C 75.31 49.59 75.69 48.13 75.88 47.39 C 73.23 47.44 70.58 47.45 67.94 47.46 C 67.04 46.74 66.14 46.03 65.25 45.32 C 64.09 45.94 62.92 46.55 61.76 47.16 M 54.77 56.43 C 54.71 57.31 54.65 58.19 54.59 59.06 C 57.81 59.50 60.99 60.22 64.20 60.81 C 68.97 62.07 74.01 61.62 78.88 61.18 C 74.43 60.06 69.80 60.66 65.27 60.65 L 65.18 58.47 C 73.10 58.68 81.03 58.52 88.96 58.59 C 92.21 58.56 95.20 59.95 98.22 60.95 C 107.21 62.94 116.99 63.93 125.63 60.06 C 125.65 58.80 125.65 57.53 125.65 56.26 C 122.76 58.08 119.92 60.20 116.51 60.90 C 109.47 62.61 102.29 60.77 95.42 59.19 C 92.63 56.23 88.52 57.78 84.99 57.57 C 77.52 57.42 69.99 58.00 62.69 56.11 C 62.63 57.12 62.51 59.13 62.44 60.14 C 61.53 58.24 59.86 57.38 57.93 57.02 C 56.88 56.83 55.82 56.63 54.77 56.43 M 74.60 69.05 L 72.63 68.25 C 72.69 70.70 72.75 73.15 72.84 75.60 C 70.85 75.59 68.50 75.14 67.15 77.01 C 63.20 81.79 56.11 79.94 51.46 83.53 C 49.14 85.27 47.15 88.02 47.55 91.07 C 47.80 94.86 51.15 97.32 54.16 99.08 C 54.32 100.15 54.49 101.22 54.65 102.30 C 55.20 102.41 56.28 102.65 56.83 102.76 C 56.12 100.94 55.47 99.09 55.02 97.18 C 56.02 98.29 58.00 100.52 59.00 101.64 C 58.86 99.36 57.84 97.57 55.80 96.63 C 54.03 96.58 52.49 95.81 51.20 94.64 C 51.99 93.06 52.44 91.36 52.73 89.63 C 54.74 87.65 57.09 85.90 60.03 85.77 C 64.82 85.23 69.18 82.83 72.83 79.78 C 75.20 77.23 74.82 73.45 74.56 70.25 C 75.08 69.58 75.61 68.92 76.15 68.27 L 76.53 69.88 L 77.91 69.46 C 76.44 68.37 75.02 67.22 73.59 66.09 C 73.84 66.83 74.35 68.31 74.60 69.05 M 91.30 67.96 C 91.33 70.14 92.32 72.07 93.91 73.54 C 93.56 71.87 93.10 70.23 92.58 68.61 C 92.90 68.19 93.52 67.37 93.83 66.95 C 93.20 67.20 91.93 67.71 91.30 67.96 M 136.90 77.89 C 136.79 76.80 136.68 75.72 136.58 74.63 C 135.12 73.76 133.67 72.89 132.21 72.04 C 133.02 73.67 134.40 75.11 134.58 76.97 C 134.25 78.35 133.71 79.67 133.23 81.00 C 131.48 81.76 129.74 82.55 128.01 83.35 C 129.96 83.36 131.90 83.36 133.84 83.45 C 135.60 82.08 137.35 80.69 139.12 79.33 C 139.76 76.33 140.31 73.30 140.32 70.22 C 138.41 72.38 137.57 75.14 136.90 77.89 M 95.93 70.69 C 96.14 73.33 97.38 75.68 99.37 77.42 C 99.28 78.12 99.11 79.53 99.03 80.24 C 103.84 83.12 109.27 84.98 114.88 85.41 C 120.53 85.83 122.68 92.03 126.39 95.40 C 127.57 91.35 126.38 87.38 124.10 83.99 C 122.18 82.91 120.38 81.27 118.04 81.32 C 113.73 81.23 110.02 78.78 105.85 78.00 C 105.40 77.56 104.49 76.69 104.03 76.26 C 103.31 76.57 101.87 77.19 101.15 77.50 C 99.71 75.01 97.98 72.71 95.93 70.69 M 39.27 86.56 C 40.44 87.47 41.61 88.38 42.80 89.27 C 42.56 86.09 41.60 83.03 39.70 80.45 C 39.44 82.48 39.36 84.52 39.27 86.56 M 56.98 92.92 C 57.88 95.39 59.09 97.73 60.34 100.04 C 60.49 98.70 60.79 96.01 60.95 94.66 C 61.51 96.42 61.46 98.26 61.27 100.07 C 62.04 100.92 62.81 101.77 63.59 102.62 C 64.92 102.63 66.25 102.66 67.59 102.70 C 65.79 105.44 62.57 106.47 60.00 108.29 C 60.97 108.14 61.95 107.98 62.92 107.82 C 64.54 107.25 66.16 106.64 67.77 106.02 C 67.68 107.05 67.50 109.09 67.42 110.11 C 67.09 110.64 66.45 111.70 66.12 112.23 C 69.11 110.21 71.52 107.29 72.59 103.82 C 73.02 100.20 72.61 96.55 72.73 92.93 C 70.97 90.90 69.33 88.76 67.85 86.52 C 67.19 86.61 65.87 86.80 65.20 86.89 C 62.79 89.32 59.89 91.16 56.98 92.92 M 111.82 85.83 C 111.66 86.86 111.33 88.91 111.17 89.94 C 113.13 90.30 114.64 91.34 115.19 93.31 C 111.97 93.36 108.76 93.35 105.54 93.36 C 105.39 92.69 105.10 91.34 104.95 90.66 C 106.90 90.52 108.85 90.42 110.81 90.34 C 110.76 89.53 110.65 87.91 110.60 87.11 C 107.67 87.58 104.81 88.53 102.42 90.35 C 102.47 92.38 102.50 94.40 102.55 96.44 C 101.94 96.45 100.73 96.48 100.12 96.49 C 102.85 99.71 104.77 103.50 106.03 107.51 C 105.28 107.49 103.76 107.45 103.01 107.43 C 103.21 107.83 103.62 108.62 103.83 109.02 C 104.30 109.25 105.25 109.70 105.72 109.92 C 106.67 111.92 108.20 113.54 110.32 114.30 C 108.96 111.63 105.50 109.72 106.49 106.29 C 107.67 107.72 108.82 109.19 109.91 110.70 C 110.45 110.76 111.53 110.86 112.08 110.91 C 109.93 109.60 109.12 107.65 110.12 105.19 C 111.79 106.71 113.44 108.27 115.21 109.68 C 112.78 106.56 110.01 103.73 107.43 100.74 C 109.13 100.28 110.83 99.81 112.53 99.33 C 112.59 99.79 112.71 100.69 112.76 101.15 C 111.72 101.34 109.62 101.72 108.58 101.91 C 110.23 102.28 111.91 102.59 113.58 102.86 C 113.54 102.36 113.45 101.36 113.41 100.86 C 115.88 99.83 118.22 98.55 120.51 97.18 C 120.76 97.84 121.25 99.16 121.50 99.81 C 121.96 99.71 122.87 99.50 123.33 99.40 C 123.45 98.35 123.57 97.31 123.69 96.27 C 122.91 96.39 121.35 96.63 120.57 96.75 C 116.95 93.67 115.27 89.04 111.82 85.83 M 85.63 103.58 C 85.66 103.92 85.71 104.60 85.74 104.94 C 87.56 107.99 85.49 111.24 85.15 114.38 C 86.38 112.86 87.35 111.15 88.01 109.30 C 87.65 107.45 87.36 105.59 87.08 103.73 C 86.71 103.69 85.99 103.62 85.63 103.58 M 126.60 113.54 C 127.28 113.57 128.64 113.64 129.33 113.68 C 129.87 112.02 130.43 110.35 130.88 108.66 C 129.17 110.02 127.77 111.71 126.60 113.54 M 54.50 116.56 C 56.01 117.93 57.20 119.58 58.14 121.40 C 58.83 121.40 60.22 121.41 60.92 121.41 C 60.74 121.88 60.37 122.81 60.19 123.28 C 61.67 123.17 63.15 123.08 64.63 123.06 L 65.15 124.73 C 67.31 121.87 63.55 120.75 61.26 121.08 L 61.66 119.09 C 61.18 119.26 60.23 119.60 59.76 119.77 C 58.74 118.02 57.77 116.25 56.82 114.47 C 56.05 115.16 55.27 115.86 54.50 116.56 M 118.70 119.05 C 116.98 119.37 115.25 119.66 113.58 120.19 C 116.55 120.83 119.52 120.22 122.37 119.36 C 123.68 118.59 125.00 117.85 126.33 117.12 C 126.62 116.53 127.20 115.35 127.48 114.76 C 124.45 115.96 121.47 117.32 118.70 119.05 M 99.81 116.94 C 99.71 118.14 99.62 119.34 99.54 120.55 C 100.64 121.52 101.74 122.48 102.87 123.42 C 103.16 120.71 101.98 118.46 99.81 116.94 M 86.29 119.63 C 86.30 120.20 86.32 121.34 86.33 121.91 C 87.35 121.83 88.36 121.74 89.37 121.66 C 89.47 121.12 89.66 120.03 89.75 119.49 C 88.60 119.53 87.44 119.58 86.29 119.63 M 83.18 122.58 C 83.39 124.66 83.72 126.73 84.08 128.79 C 84.78 128.93 86.17 129.21 86.87 129.35 C 86.06 127.84 85.25 126.34 84.43 124.85 C 84.95 123.93 85.47 123.01 85.99 122.08 C 85.29 122.21 83.88 122.45 83.18 122.58 M 79.65 125.26 C 78.75 127.53 78.34 129.94 78.28 132.38 C 81.49 133.95 84.93 134.94 88.46 135.50 C 86.39 132.73 83.47 130.81 80.14 129.97 C 80.59 128.43 81.08 126.91 81.58 125.40 C 81.10 125.36 80.13 125.29 79.65 125.26 M 116.29 128.60 C 116.55 129.46 116.84 130.31 117.14 131.16 C 117.47 134.08 118.75 136.74 119.95 139.38 C 120.50 139.41 121.60 139.47 122.15 139.50 C 123.59 141.57 125.24 143.49 127.29 144.98 C 125.90 140.65 122.62 137.38 119.72 134.02 C 119.25 132.04 118.75 130.07 118.31 128.08 C 117.81 128.21 116.79 128.47 116.29 128.60 M 97.32 130.11 C 97.30 130.61 97.26 131.60 97.24 132.10 C 100.00 132.89 102.74 133.78 105.46 134.70 C 105.52 133.86 105.63 132.18 105.68 131.35 C 105.00 131.35 103.64 131.35 102.96 131.35 C 102.80 130.54 102.50 128.93 102.34 128.12 C 100.64 128.72 98.96 129.37 97.32 130.11 M 85.46 131.22 C 87.16 133.10 89.08 134.80 91.74 135.10 C 90.17 133.26 88.54 131.47 87.02 129.59 C 86.49 130.13 85.98 130.67 85.46 131.22 M 75.50 133.34 C 75.51 135.46 75.51 137.58 75.52 139.70 C 75.16 139.65 74.44 139.54 74.08 139.49 C 72.08 141.97 70.47 144.73 69.20 147.65 C 67.67 147.57 66.14 147.49 64.61 147.40 C 64.55 146.77 64.41 145.51 64.35 144.87 C 63.87 144.48 62.91 143.69 62.42 143.29 C 62.46 142.77 62.53 141.72 62.57 141.20 C 63.52 141.75 64.46 142.30 65.41 142.86 C 65.69 142.11 66.25 140.60 66.53 139.85 C 65.40 138.18 63.82 135.78 61.45 136.44 C 59.46 136.31 59.50 138.40 59.03 139.78 C 58.24 142.07 57.14 144.40 57.41 146.90 C 58.62 149.06 60.67 150.59 62.35 152.38 C 65.85 152.82 69.48 154.25 72.86 152.50 C 74.69 151.05 76.53 149.60 78.54 148.40 C 80.22 147.02 82.31 148.70 84.16 148.23 C 87.32 146.73 90.15 144.62 92.80 142.35 C 92.19 141.10 91.58 139.84 90.99 138.59 C 90.20 138.44 89.42 138.30 88.64 138.16 C 88.40 138.75 87.92 139.94 87.67 140.53 C 84.12 142.45 80.17 142.88 76.20 142.34 C 76.50 141.51 77.11 139.85 77.41 139.02 C 77.48 137.14 77.54 135.27 77.61 133.40 L 75.50 133.34 M 126.13 136.05 C 126.62 139.15 127.69 142.23 130.28 144.19 C 130.42 144.55 130.68 145.27 130.82 145.63 C 128.94 145.92 127.05 146.19 125.16 146.41 C 120.55 143.60 115.16 143.30 109.91 143.44 C 108.29 142.56 106.65 141.72 105.00 140.91 C 104.31 143.14 103.56 145.35 102.97 147.62 C 107.54 146.86 112.20 146.02 116.85 146.62 C 120.63 147.78 124.09 149.77 127.87 150.94 C 127.50 151.53 127.13 152.12 126.77 152.71 C 127.13 154.06 127.86 155.37 127.82 156.80 C 125.74 156.84 124.92 153.94 123.30 152.95 C 123.91 155.30 124.72 157.60 125.58 159.87 C 126.58 159.22 127.60 158.60 128.63 158.00 C 128.65 159.14 128.67 160.29 128.69 161.44 C 128.18 161.81 127.16 162.55 126.65 162.92 C 127.46 164.03 128.28 165.14 129.09 166.25 C 130.78 163.71 132.03 160.91 131.78 157.74 C 132.71 159.87 133.44 162.09 133.79 164.39 C 134.27 164.48 135.23 164.66 135.71 164.75 C 135.19 160.65 134.49 156.35 131.70 153.12 C 131.47 151.98 131.24 150.84 131.02 149.70 C 132.19 149.14 133.37 148.58 134.55 148.02 C 134.13 143.02 132.50 135.83 126.13 136.05 M 93.70 152.32 C 93.09 152.34 91.87 152.37 91.25 152.39 C 91.44 152.86 91.81 153.81 92.00 154.28 C 87.99 155.03 84.25 156.66 80.79 158.79 C 79.29 160.13 77.65 159.06 76.86 157.57 C 76.64 157.56 76.22 157.55 76.00 157.55 C 75.26 158.81 74.50 160.08 73.73 161.34 C 74.09 163.69 74.48 166.03 74.74 168.40 C 75.39 168.43 76.71 168.49 77.36 168.52 C 77.80 166.21 79.51 163.37 77.18 161.49 C 80.20 160.41 83.18 159.21 86.08 157.83 C 87.66 157.66 89.23 157.49 90.81 157.31 C 90.65 157.87 90.34 158.99 90.19 159.55 C 96.61 159.64 103.04 159.52 109.46 159.59 L 109.28 158.36 C 110.06 158.43 111.62 158.57 112.41 158.64 C 112.47 158.05 112.60 156.88 112.67 156.29 C 115.42 156.54 118.18 156.66 120.94 156.75 C 120.91 156.48 120.86 155.94 120.83 155.67 C 116.88 155.32 112.96 154.65 108.99 154.39 C 109.78 153.38 112.43 153.01 111.73 151.36 C 109.06 150.57 106.01 150.73 103.30 151.27 C 103.49 152.92 106.01 153.26 107.05 154.45 C 102.64 154.87 98.22 154.63 93.80 154.69 C 95.26 153.95 98.18 152.49 99.64 151.76 C 97.64 151.42 95.60 151.58 93.70 152.32 M 68.61 154.48 C 67.79 156.64 65.70 158.85 66.87 161.27 C 67.23 162.85 68.12 164.20 69.37 165.22 C 70.06 167.54 70.69 169.87 71.44 172.17 C 72.24 166.49 71.08 160.74 72.08 155.07 C 72.27 154.60 72.64 153.65 72.82 153.17 C 71.43 153.64 70.02 154.07 68.61 154.48 M 112.18 186.48 C 106.81 186.58 100.66 186.74 96.65 182.52 C 95.17 182.38 93.70 182.25 92.23 182.13 C 92.71 183.09 93.19 184.05 93.68 185.01 C 95.77 185.76 98.09 186.39 99.26 188.49 C 99.89 188.32 101.16 187.97 101.80 187.80 C 108.61 190.11 115.50 187.55 121.49 184.28 C 121.56 182.29 121.65 180.30 121.75 178.32 C 119.20 181.73 115.82 184.35 112.18 186.48 Z" />
<path fill="#0c11f8" opacity="1.00" d=" M 62.61 91.83 C 64.08 90.76 65.54 89.69 67.00 88.60 C 68.76 90.15 70.46 91.82 71.37 94.03 C 68.25 94.21 65.13 94.34 62.01 94.43 C 62.16 93.78 62.46 92.48 62.61 91.83 Z" />
<path fill="#0c11f8" opacity="1.00" d=" M 68.19 99.30 C 69.29 98.07 68.40 95.69 70.01 94.89 C 71.81 94.61 71.87 96.38 71.86 97.71 C 71.06 99.16 69.95 100.41 68.96 101.74 C 67.00 101.55 64.83 101.64 63.40 100.02 C 64.99 99.77 66.61 99.65 68.19 99.30 Z" />
<path fill="#0c11f8" opacity="1.00" d=" M 104.36 99.92 C 104.69 97.82 103.34 94.74 106.04 93.80 C 106.18 94.56 106.45 96.09 106.59 96.86 C 105.84 97.87 105.10 98.90 104.36 99.92 Z" />
<path fill="#0c11f8" opacity="1.00" d=" M 114.99 95.63 C 116.06 94.83 116.91 94.99 117.54 96.09 C 117.80 97.41 115.97 98.87 114.86 97.84 C 114.89 97.29 114.96 96.18 114.99 95.63 Z" />
<path fill="#0c11f8" opacity="1.00" d=" M 106.35 103.32 C 107.81 102.88 109.75 104.77 109.52 106.25 C 108.08 106.77 106.05 104.78 106.35 103.32 Z" />
<path fill="#0c11f8" opacity="1.00" d=" M 68.68 155.36 C 69.65 155.69 70.44 156.24 71.05 157.00 C 71.02 158.95 70.77 160.88 70.62 162.82 C 70.06 162.79 68.95 162.73 68.39 162.70 C 68.48 160.26 68.62 157.81 68.68 155.36 Z" />
</g>
</svg>
