<?xml version="1.0" encoding="UTF-8" ?>
<!DOCTYPE svg PUBLIC "-//W3C//DTD SVG 1.1//EN" "http://www.w3.org/Graphics/SVG/1.1/DTD/svg11.dtd">
<svg width="210pt" height="220pt" viewBox="0 0 210 220" version="1.1" xmlns="http://www.w3.org/2000/svg">
<g id="#130d0dfb">
<path fill="#130d0d" opacity="1.00" d=" M 64.97 12.58 C 69.11 11.53 72.47 7.91 76.96 8.22 C 84.22 8.39 91.49 8.05 98.74 8.36 C 104.99 12.54 112.55 14.66 118.06 19.96 C 120.07 21.56 122.68 21.98 124.95 23.07 C 130.01 29.90 136.51 35.92 139.73 43.93 C 140.55 49.37 142.19 54.61 144.19 59.73 C 146.07 65.90 150.08 71.15 151.84 77.37 C 152.86 79.86 152.37 82.59 152.91 85.17 C 153.67 86.37 154.68 87.38 155.61 88.44 C 155.42 92.11 155.37 95.89 156.54 99.42 C 158.33 103.73 157.37 108.47 157.56 113.00 C 157.32 118.46 158.45 124.15 156.36 129.37 C 154.75 133.90 154.72 138.77 153.20 143.31 C 152.01 146.68 153.53 150.54 151.68 153.73 C 149.67 157.60 147.70 161.49 146.20 165.59 C 144.65 168.68 142.36 171.40 141.50 174.83 C 138.96 182.22 131.98 186.42 127.28 192.26 C 124.44 196.07 120.40 198.69 117.09 202.06 C 113.36 205.68 108.20 207.01 104.02 209.95 C 100.46 212.66 95.68 211.26 91.67 212.86 C 86.44 212.10 81.25 210.93 76.31 208.98 C 70.82 208.11 64.79 207.96 60.31 204.21 C 56.99 201.32 54.21 197.78 50.48 195.36 C 47.18 193.37 45.78 189.54 42.92 187.08 C 39.82 183.65 35.22 181.11 34.20 176.26 C 32.73 171.34 29.07 167.48 27.57 162.57 C 26.53 159.14 23.37 156.16 24.19 152.37 C 24.62 149.10 24.09 145.76 23.26 142.59 C 20.02 135.25 15.74 128.37 12.79 120.90 C 12.34 101.94 12.80 82.95 12.56 63.99 C 12.00 55.47 18.35 48.74 19.69 40.61 C 23.74 36.80 23.82 30.66 27.94 26.94 C 31.93 22.81 36.84 19.53 42.23 17.52 C 44.85 16.70 46.52 14.40 48.72 12.91 C 54.09 12.16 59.57 13.10 64.97 12.58 M 72.51 13.63 C 70.04 14.98 67.61 16.46 64.92 17.31 C 61.03 17.66 57.11 17.13 53.23 17.52 C 49.54 18.18 46.73 21.07 43.06 21.79 C 38.77 22.52 35.94 26.10 32.62 28.57 C 28.40 31.82 28.09 37.65 24.64 41.50 C 22.59 46.82 19.89 51.89 18.18 57.34 C 17.19 60.18 15.34 62.84 15.41 65.96 C 15.40 81.64 15.43 97.33 15.40 113.01 C 15.51 121.02 21.77 126.95 23.85 134.37 C 25.67 140.49 28.75 146.40 28.70 152.91 C 31.98 161.24 35.17 169.68 39.55 177.50 C 41.42 181.49 46.01 183.01 48.29 186.68 C 50.94 191.03 55.94 193.01 59.18 196.86 C 64.60 202.98 72.85 205.43 80.74 206.14 C 86.90 208.28 93.51 207.68 99.90 207.41 C 106.97 204.66 113.60 200.38 118.59 194.63 C 123.04 191.05 126.99 186.93 130.46 182.39 C 135.10 178.09 139.00 172.79 140.88 166.68 C 142.69 161.02 145.49 155.74 148.38 150.56 C 149.84 148.30 149.15 145.54 149.46 143.02 C 151.14 135.13 153.14 127.15 152.68 119.00 C 152.39 112.00 153.34 104.91 151.89 98.00 C 151.46 95.21 151.94 92.36 151.47 89.58 C 149.07 81.44 145.65 73.65 142.11 65.96 C 138.91 56.25 137.05 45.67 130.57 37.44 C 128.62 35.23 128.34 31.94 125.99 30.04 C 122.09 26.84 118.06 23.66 113.42 21.60 C 105.40 17.53 97.50 11.33 88.00 12.27 C 82.87 12.57 77.32 11.52 72.51 13.63 Z" />
<path fill="#130d0d" opacity="1.00" d=" M 42.16 55.02 C 43.34 54.11 44.54 53.24 45.77 52.41 C 47.96 53.82 50.39 54.86 53.06 54.56 C 55.63 53.92 56.96 57.21 59.45 56.64 C 62.91 56.10 65.92 58.51 69.33 58.54 C 75.18 58.67 80.97 60.29 86.85 59.58 C 90.23 58.88 93.41 57.46 96.60 56.18 C 96.55 56.72 96.45 57.79 96.40 58.33 C 92.17 59.55 88.26 61.86 83.90 62.61 C 81.55 62.03 79.55 60.22 77.02 60.43 C 72.97 60.44 69.08 58.93 65.00 59.37 C 61.43 59.95 58.40 57.46 54.90 57.41 C 50.52 57.24 46.57 54.98 42.16 55.02 Z" />
<path fill="#130d0d" opacity="1.00" d=" M 94.93 67.34 C 98.49 66.81 101.47 64.76 104.61 63.18 C 104.58 64.26 104.56 65.34 104.57 66.42 C 102.57 67.33 100.61 68.47 98.40 68.75 C 97.08 68.89 95.77 69.06 94.47 69.22 C 94.58 68.75 94.81 67.81 94.93 67.34 Z" />
<path fill="#130d0d" opacity="1.00" d=" M 45.11 85.20 C 49.05 83.03 53.80 81.41 55.30 76.68 C 55.35 78.83 55.38 80.98 55.24 83.13 C 54.57 84.37 54.03 85.87 52.74 86.62 C 49.81 88.30 46.77 89.89 43.46 90.67 C 40.57 91.51 37.26 91.79 34.99 93.98 C 33.31 95.97 33.61 98.77 33.30 101.20 C 35.19 101.87 37.11 102.46 39.09 102.83 C 39.39 101.20 39.22 99.41 39.97 97.89 C 42.19 95.42 45.16 93.79 47.95 92.05 C 49.53 93.71 51.15 95.35 52.61 97.12 C 53.39 97.91 53.72 98.88 53.58 100.01 C 53.57 104.10 54.15 108.38 52.26 112.18 C 51.09 112.83 49.93 113.50 48.77 114.17 C 48.62 112.25 48.10 110.30 48.44 108.37 C 49.82 106.34 51.76 104.74 53.04 102.63 C 54.43 101.25 51.33 98.66 50.52 101.06 C 48.78 103.43 46.74 105.53 44.58 107.52 C 43.33 105.94 42.09 104.33 40.86 102.73 C 39.37 104.05 37.91 105.39 36.48 106.76 C 34.60 103.96 31.75 102.02 29.78 99.32 C 29.02 96.12 29.02 92.15 32.01 90.06 C 35.54 86.53 40.86 87.15 45.11 85.20 M 42.96 99.50 C 45.89 99.52 48.82 99.49 51.74 99.50 C 51.80 97.37 50.17 95.14 47.91 95.20 C 45.40 94.98 44.02 97.66 42.96 99.50 Z" />
<path fill="#130d0d" opacity="1.00" d=" M 110.55 78.14 C 112.01 79.11 113.51 80.02 115.01 80.93 C 116.11 79.82 117.24 78.74 118.42 77.72 C 118.94 82.45 116.48 86.92 112.41 89.26 C 110.63 89.47 108.83 89.35 107.04 89.38 C 108.92 88.16 110.82 86.91 112.30 85.20 C 113.49 82.75 111.47 80.33 110.55 78.14 Z" />
<path fill="#130d0d" opacity="1.00" d=" M 79.36 83.29 C 81.27 83.36 83.19 83.43 85.10 83.61 C 88.13 84.67 91.06 86.14 94.26 86.65 C 96.65 87.15 99.33 87.11 101.25 88.83 C 104.82 91.21 106.22 95.71 105.52 99.83 C 101.16 97.28 98.95 91.52 93.59 90.76 C 88.79 90.08 84.17 88.63 79.55 87.25 C 79.50 86.26 79.40 84.28 79.36 83.29 Z" />
<path fill="#130d0d" opacity="1.00" d=" M 21.59 86.38 C 24.18 88.49 24.83 91.74 24.49 94.94 C 21.38 93.25 19.58 89.65 21.59 86.38 Z" />
<path fill="#130d0d" opacity="1.00" d=" M 84.93 94.05 C 87.34 92.97 90.10 93.48 92.67 93.26 C 93.86 95.05 95.39 96.68 96.15 98.72 C 95.19 100.51 94.16 102.30 93.95 104.36 C 90.40 104.12 87.45 105.84 85.35 108.61 C 84.66 108.14 83.98 107.66 83.31 107.16 C 82.46 105.92 81.75 104.57 80.95 103.30 C 82.31 100.25 81.60 95.89 84.93 94.05 M 85.33 96.16 C 85.28 96.79 85.19 98.06 85.15 98.70 C 88.15 98.65 91.17 98.72 94.15 98.32 C 92.51 94.65 88.50 95.44 85.33 96.16 M 83.96 100.44 C 82.46 101.40 84.08 104.04 85.55 102.80 C 87.06 101.81 85.44 99.28 83.96 100.44 Z" />
<path fill="#130d0d" opacity="1.00" d=" M 106.53 115.48 C 107.67 115.14 108.81 114.79 109.95 114.44 C 108.14 116.84 106.36 119.28 104.36 121.54 C 102.05 124.15 98.35 124.53 95.17 125.38 C 94.64 125.30 93.59 125.14 93.06 125.06 C 97.61 122.06 105.31 122.01 106.53 115.48 Z" />
<path fill="#130d0d" opacity="1.00" d=" M 79.22 122.35 C 79.83 122.40 81.04 122.50 81.65 122.55 C 82.15 123.98 82.50 125.46 82.74 126.97 C 82.20 126.79 81.12 126.44 80.58 126.26 L 79.73 126.01 C 79.55 124.79 79.38 123.57 79.22 122.35 Z" />
<path fill="#130d0d" opacity="1.00" d=" M 67.09 124.27 C 68.74 123.72 69.30 124.26 68.79 125.87 C 67.14 126.42 66.57 125.88 67.09 124.27 Z" />
<path fill="#130d0d" opacity="1.00" d=" M 97.10 139.19 C 96.26 136.66 94.17 133.19 96.96 131.19 C 97.94 136.69 101.03 141.60 105.29 145.17 C 104.85 145.76 104.41 146.35 103.98 146.94 C 101.76 144.29 98.33 142.58 97.10 139.19 Z" />
<path fill="#130d0d" opacity="1.00" d=" M 58.52 132.31 C 61.61 134.27 64.94 136.26 68.77 135.60 L 69.47 135.60 C 69.90 136.55 70.40 137.48 70.92 138.40 C 67.84 138.41 64.50 139.15 61.60 137.83 C 60.05 136.33 59.25 134.30 58.52 132.31 Z" />
<path fill="#130d0d" opacity="1.00" d=" M 78.43 132.55 C 79.15 132.55 80.59 132.54 81.31 132.54 C 82.47 134.23 83.66 135.91 84.76 137.64 C 83.14 137.45 81.52 137.21 79.92 136.90 C 78.75 136.63 77.57 136.35 76.41 136.07 C 77.04 134.87 77.72 133.71 78.43 132.55 Z" />
<path fill="#130d0d" opacity="1.00" d=" M 54.37 144.30 C 55.60 142.09 56.54 139.73 57.61 137.44 C 57.75 141.30 57.10 145.18 55.50 148.71 C 53.20 153.52 51.58 158.67 48.47 163.06 C 50.84 165.55 52.90 168.47 52.81 172.07 C 51.94 171.02 51.10 169.94 50.32 168.82 C 49.25 167.19 48.24 165.50 47.56 163.67 C 46.43 160.57 49.67 158.50 50.61 155.85 C 50.65 154.51 49.32 153.53 49.45 152.19 C 50.75 149.36 52.82 146.99 54.37 144.30 Z" />
<path fill="#130d0d" opacity="1.00" d=" M 105.61 158.29 C 105.87 155.36 106.10 152.42 106.55 149.51 C 109.15 152.11 110.06 155.77 111.89 158.87 C 113.41 161.37 113.79 164.32 113.71 167.21 C 112.38 166.34 111.66 164.92 110.91 163.58 C 109.48 164.95 108.74 168.51 106.23 167.52 C 104.64 166.12 106.46 164.17 106.81 162.61 C 105.15 162.02 103.69 161.07 102.64 159.64 C 103.64 159.22 104.68 158.86 105.61 158.29 Z" />
<path fill="#130d0d" opacity="1.00" d=" M 83.74 154.49 C 86.05 154.22 88.57 153.48 90.67 154.92 C 88.66 156.96 85.08 157.59 83.74 154.49 Z" />
<path fill="#130d0d" opacity="1.00" d=" M 72.25 158.15 C 72.98 156.95 74.04 156.00 74.97 154.97 C 79.15 159.79 86.09 159.33 91.73 158.04 C 91.70 158.67 91.65 159.92 91.63 160.55 C 86.38 162.61 80.65 162.75 75.12 162.14 C 73.24 161.76 72.04 160.03 72.25 158.15 Z" />
<path fill="#130d0d" opacity="1.00" d=" M 61.34 162.58 C 62.62 159.77 65.87 159.15 68.35 157.82 C 68.88 158.59 69.41 159.36 69.94 160.13 C 68.19 160.59 66.45 161.05 64.73 161.58 C 63.88 161.83 62.18 162.33 61.34 162.58 Z" />
<path fill="#130d0d" opacity="1.00" d=" M 56.15 161.52 C 56.29 161.17 56.58 160.49 56.72 160.15 C 57.96 160.86 59.22 161.55 60.50 162.20 C 59.36 164.86 58.80 167.73 58.19 170.55 C 57.35 170.55 56.52 170.58 55.68 170.64 C 55.44 169.89 54.96 168.38 54.71 167.62 C 54.93 165.53 55.34 163.46 56.15 161.52 Z" />
<path fill="#130d0d" opacity="1.00" d=" M 154.44 180.48 C 157.40 179.46 160.11 181.98 162.18 183.79 C 164.51 185.71 163.69 189.05 163.59 191.68 C 162.55 194.77 159.15 196.38 156.00 195.89 C 150.54 197.09 145.55 190.86 147.65 185.76 C 147.84 182.14 151.56 181.19 154.44 180.48 M 152.73 186.03 C 152.53 188.10 152.66 190.18 152.64 192.26 C 157.00 194.61 160.93 189.13 158.76 185.26 C 156.93 184.38 153.91 183.90 152.73 186.03 Z" />
<path fill="#130d0d" opacity="1.00" d=" M 167.28 179.92 C 169.64 180.55 170.22 183.00 170.98 185.00 C 173.36 184.74 175.76 184.64 178.15 184.68 C 177.12 186.42 176.07 188.16 174.97 189.88 C 176.18 191.35 177.39 192.82 178.60 194.29 C 177.89 195.19 177.02 195.87 175.98 196.32 C 174.21 195.62 172.68 194.45 171.13 193.36 C 170.12 194.39 169.10 195.41 168.07 196.41 C 167.43 196.11 166.13 195.50 165.49 195.20 C 166.19 190.17 163.82 184.18 167.28 179.92 Z" />
<path fill="#130d0d" opacity="1.00" d=" M 98.11 183.04 C 99.16 182.75 100.21 182.49 101.27 182.27 C 99.62 187.96 93.22 189.65 88.05 190.31 C 82.52 190.26 76.03 189.53 72.66 184.53 C 74.03 184.45 75.41 184.38 76.79 184.32 C 80.83 188.54 87.08 188.00 92.38 187.41 C 94.56 186.34 96.21 184.51 98.11 183.04 Z" />
<path fill="#130d0d" opacity="1.00" d=" M 194.34 184.60 C 195.69 184.55 197.05 184.49 198.41 184.39 C 198.62 185.94 198.81 187.50 199.04 189.06 C 201.06 186.64 203.23 183.85 206.77 184.21 C 205.36 189.11 204.07 194.14 201.64 198.66 C 200.29 201.58 196.71 200.57 194.16 200.68 C 194.13 200.11 194.08 198.96 194.05 198.38 C 195.22 197.56 196.38 196.74 197.55 195.92 C 196.63 192.11 194.24 188.60 194.34 184.60 Z" />
<path fill="#130d0d" opacity="1.00" d=" M 180.02 186.54 C 182.65 183.63 186.73 184.79 190.17 184.53 C 190.77 186.42 191.31 188.33 192.06 190.17 C 191.24 191.31 189.83 193.23 191.21 194.48 C 193.12 194.20 192.28 191.47 192.06 190.17 C 192.64 191.96 192.64 193.86 192.68 195.72 C 188.46 196.46 184.16 196.43 179.94 195.78 C 179.11 193.52 180.01 191.53 181.51 189.81 C 183.21 192.13 185.35 194.07 187.54 195.91 C 187.65 192.83 187.57 189.75 187.42 186.67 C 184.95 186.68 182.49 186.67 180.02 186.54 Z" />
</g>
<g id="#fdfdfdff">
<path fill="#fdfdfd" opacity="1.00" d=" M 72.51 13.63 C 77.32 11.52 82.87 12.57 88.00 12.27 C 97.50 11.33 105.40 17.53 113.42 21.60 C 118.06 23.66 122.09 26.84 125.99 30.04 C 128.34 31.94 128.62 35.23 130.57 37.44 C 137.05 45.67 138.91 56.25 142.11 65.96 C 145.65 73.65 149.07 81.44 151.47 89.58 C 151.94 92.36 151.46 95.21 151.89 98.00 C 153.34 104.91 152.39 112.00 152.68 119.00 C 153.14 127.15 151.14 135.13 149.46 143.02 C 149.15 145.54 149.84 148.30 148.38 150.56 C 145.49 155.74 142.69 161.02 140.88 166.68 C 139.00 172.79 135.10 178.09 130.46 182.39 C 126.99 186.93 123.04 191.05 118.59 194.63 C 113.60 200.38 106.97 204.66 99.90 207.41 C 93.51 207.68 86.90 208.28 80.74 206.14 C 72.85 205.43 64.60 202.98 59.18 196.86 C 55.94 193.01 50.94 191.03 48.29 186.68 C 46.01 183.01 41.42 181.49 39.55 177.50 C 35.17 169.68 31.98 161.24 28.70 152.91 C 28.75 146.40 25.67 140.49 23.85 134.37 C 21.77 126.95 15.51 121.02 15.40 113.01 C 15.43 97.33 15.40 81.64 15.41 65.96 C 15.34 62.84 17.19 60.18 18.18 57.34 C 19.89 51.89 22.59 46.82 24.64 41.50 C 28.09 37.65 28.40 31.82 32.62 28.57 C 35.94 26.10 38.77 22.52 43.06 21.79 C 46.73 21.07 49.54 18.18 53.23 17.52 C 57.11 17.13 61.03 17.66 64.92 17.31 C 67.61 16.46 70.04 14.98 72.51 13.63 M 56.92 47.88 C 57.37 49.33 57.81 51.05 59.44 51.59 C 63.25 53.29 67.20 54.74 71.20 55.95 C 75.92 56.62 80.64 55.14 85.17 53.96 C 85.18 53.18 85.22 51.61 85.24 50.83 C 81.16 51.18 77.19 52.39 73.09 52.50 C 67.49 51.80 62.49 48.76 56.92 47.88 M 42.16 55.02 C 46.57 54.98 50.52 57.24 54.90 57.41 C 58.40 57.46 61.43 59.95 65.00 59.37 C 69.08 58.93 72.97 60.44 77.02 60.43 C 79.55 60.22 81.55 62.03 83.90 62.61 C 88.26 61.86 92.17 59.55 96.40 58.33 C 96.45 57.79 96.55 56.72 96.60 56.18 C 93.41 57.46 90.23 58.88 86.85 59.58 C 80.97 60.29 75.18 58.67 69.33 58.54 C 65.92 58.51 62.91 56.10 59.45 56.64 C 56.96 57.21 55.63 53.92 53.06 54.56 C 50.39 54.86 47.96 53.82 45.77 52.41 C 44.54 53.24 43.34 54.11 42.16 55.02 M 35.21 63.95 C 36.02 65.10 36.72 66.52 38.19 66.94 C 43.88 68.95 50.02 69.73 56.03 69.39 C 58.45 69.39 59.55 66.36 61.99 66.46 C 65.93 66.39 70.06 65.96 73.84 67.30 C 81.77 70.66 90.78 71.35 99.18 69.57 L 98.40 68.75 C 100.61 68.47 102.57 67.33 104.57 66.42 C 104.56 65.34 104.58 64.26 104.61 63.18 C 101.47 64.76 98.49 66.81 94.93 67.34 C 89.55 66.14 83.88 67.11 78.61 65.32 C 68.06 60.84 56.15 65.91 45.52 61.80 C 41.98 61.25 38.50 62.84 35.21 63.95 M 54.59 73.40 C 51.60 74.42 52.34 77.85 52.22 80.30 C 49.38 81.16 46.66 82.55 45.11 85.20 C 40.86 87.15 35.54 86.53 32.01 90.06 C 29.02 92.15 29.02 96.12 29.78 99.32 C 31.75 102.02 34.60 103.96 36.48 106.76 C 36.58 107.14 36.79 107.92 36.89 108.31 C 39.12 107.85 41.39 107.97 43.48 108.93 C 42.63 110.59 41.84 112.27 41.05 113.95 C 42.96 113.79 44.87 113.60 46.78 113.36 C 46.92 114.71 47.07 116.07 47.24 117.42 C 49.85 116.76 51.20 114.44 52.26 112.18 C 54.15 108.38 53.57 104.10 53.58 100.01 C 53.72 98.88 53.39 97.91 52.61 97.12 C 53.66 93.70 54.15 90.02 52.74 86.62 C 54.03 85.87 54.57 84.37 55.24 83.13 C 56.60 80.20 57.83 77.22 58.91 74.17 C 57.52 73.58 56.04 72.08 54.59 73.40 M 70.57 73.84 C 70.65 75.17 70.72 76.49 70.79 77.82 C 72.52 78.86 74.40 79.71 75.91 81.07 C 77.20 83.08 77.99 85.40 79.55 87.25 C 78.82 92.99 81.28 98.44 80.60 104.18 L 80.95 103.30 C 81.75 104.57 82.46 105.92 83.31 107.16 C 83.03 109.34 82.49 111.49 82.46 113.69 C 84.05 116.29 86.45 118.29 89.09 119.76 C 90.79 117.60 91.42 114.97 90.19 112.44 C 91.51 113.19 92.86 113.89 94.24 114.54 C 93.63 112.60 92.93 110.69 92.10 108.83 C 94.78 108.60 97.61 108.95 100.17 108.03 C 102.97 106.12 104.28 102.84 105.52 99.83 C 106.22 95.71 104.82 91.21 101.25 88.83 C 99.33 87.11 96.65 87.15 94.26 86.65 C 91.06 86.14 88.13 84.67 85.10 83.61 C 84.26 82.02 82.31 81.83 80.90 80.97 C 77.76 78.92 75.38 75.97 72.73 73.39 C 72.19 73.50 71.11 73.73 70.57 73.84 M 110.55 78.14 C 111.47 80.33 113.49 82.75 112.30 85.20 C 110.82 86.91 108.92 88.16 107.04 89.38 C 108.83 89.35 110.63 89.47 112.41 89.26 C 116.48 86.92 118.94 82.45 118.42 77.72 C 117.24 78.74 116.11 79.82 115.01 80.93 C 113.51 80.02 112.01 79.11 110.55 78.14 M 21.59 86.38 C 19.58 89.65 21.38 93.25 24.49 94.94 C 24.83 91.74 24.18 88.49 21.59 86.38 M 112.54 103.30 C 111.89 106.00 111.66 108.88 110.41 111.40 C 109.19 112.83 107.77 114.06 106.53 115.48 C 105.31 122.01 97.61 122.06 93.06 125.06 C 93.59 125.14 94.64 125.30 95.17 125.38 C 97.43 127.31 100.10 128.71 102.28 130.73 C 103.92 132.67 105.05 134.98 106.40 137.12 C 106.64 134.75 106.84 132.37 107.19 130.01 C 107.90 124.37 111.70 119.84 113.60 114.60 C 115.06 111.13 114.70 107.28 114.55 103.61 C 114.05 103.53 113.04 103.37 112.54 103.30 M 29.98 120.97 C 33.29 126.80 38.73 131.29 40.79 137.81 C 42.62 133.72 45.28 130.09 48.42 126.92 C 43.91 124.02 39.52 120.90 35.62 117.21 C 32.69 113.99 31.67 109.61 29.66 105.85 C 26.82 110.30 26.24 116.82 29.98 120.97 M 66.01 108.33 C 65.49 111.83 64.92 115.33 64.14 118.78 C 64.82 118.84 66.20 118.95 66.88 119.01 C 69.73 115.93 70.55 110.31 66.01 108.33 M 79.22 122.35 C 79.38 123.57 79.55 124.79 79.73 126.01 L 80.58 126.26 C 81.52 128.24 81.91 130.40 81.31 132.54 C 80.59 132.54 79.15 132.55 78.43 132.55 C 77.72 133.71 77.04 134.87 76.41 136.07 C 77.57 136.35 78.75 136.63 79.92 136.90 C 83.13 139.06 86.33 142.36 90.55 141.60 C 90.91 140.31 91.68 138.97 91.28 137.60 C 90.02 133.11 86.85 129.14 82.74 126.97 C 82.50 125.46 82.15 123.98 81.65 122.55 C 81.04 122.50 79.83 122.40 79.22 122.35 M 61.27 128.24 C 58.23 130.32 58.20 134.35 56.12 137.13 C 54.58 139.20 54.52 141.84 54.37 144.30 C 52.82 146.99 50.75 149.36 49.45 152.19 C 49.32 153.53 50.65 154.51 50.61 155.85 C 49.67 158.50 46.43 160.57 47.56 163.67 C 48.24 165.50 49.25 167.19 50.32 168.82 C 50.34 170.40 50.41 171.99 50.50 173.57 C 51.52 173.76 52.54 173.87 53.58 173.90 C 53.96 171.81 54.42 169.73 54.71 167.62 C 54.96 168.38 55.44 169.89 55.68 170.64 C 56.52 170.58 57.35 170.55 58.19 170.55 C 58.80 167.73 59.36 164.86 60.50 162.20 C 59.22 161.55 57.96 160.86 56.72 160.15 C 56.58 160.49 56.29 161.17 56.15 161.52 C 55.56 161.43 54.37 161.26 53.78 161.17 C 54.22 153.27 58.78 146.33 59.49 138.43 C 60.02 138.28 61.08 137.98 61.60 137.83 C 64.50 139.15 67.84 138.41 70.92 138.40 C 70.40 137.48 69.90 136.55 69.47 135.60 L 68.77 135.60 C 67.66 133.09 66.58 130.53 66.16 127.80 C 68.47 127.02 71.17 125.91 70.05 122.95 C 66.23 122.69 63.98 126.17 61.27 128.24 M 97.10 139.19 C 98.33 142.58 101.76 144.29 103.98 146.94 C 104.37 149.72 105.36 152.91 103.63 155.43 C 100.09 159.00 92.54 158.39 90.35 153.64 C 88.68 153.27 86.99 152.99 85.31 152.71 C 84.22 150.97 83.03 149.28 81.91 147.57 C 77.63 151.30 73.21 154.85 68.35 157.82 C 65.87 159.15 62.62 159.77 61.34 162.58 C 62.18 162.33 63.88 161.83 64.73 161.58 C 68.34 164.54 71.29 168.64 75.95 170.02 C 80.75 171.84 86.17 170.12 90.03 167.02 C 93.80 163.88 98.25 161.74 102.64 159.64 C 103.69 161.07 105.15 162.02 106.81 162.61 C 106.46 164.17 104.64 166.12 106.23 167.52 C 108.74 168.51 109.48 164.95 110.91 163.58 C 111.66 164.92 112.38 166.34 113.71 167.21 C 113.79 164.32 113.41 161.37 111.89 158.87 C 110.06 155.77 109.15 152.11 106.55 149.51 C 106.88 147.93 105.97 146.51 105.29 145.17 C 101.03 141.60 97.94 136.69 96.96 131.19 C 94.17 133.19 96.26 136.66 97.10 139.19 M 103.90 182.53 C 102.31 181.64 100.68 180.82 99.06 179.98 C 98.75 181.00 98.44 182.02 98.11 183.04 C 96.21 184.51 94.56 186.34 92.38 187.41 C 87.08 188.00 80.83 188.54 76.79 184.32 C 75.48 182.75 73.45 182.48 71.58 182.11 C 71.50 183.49 71.43 184.88 71.35 186.27 C 67.24 184.82 63.41 182.42 58.99 182.00 C 59.00 184.43 59.31 187.04 61.21 188.78 C 65.00 192.52 69.01 196.69 74.48 197.66 C 80.21 198.77 85.86 201.17 91.79 200.57 C 98.10 199.54 103.90 195.34 106.40 189.38 C 108.07 185.30 110.90 181.23 110.40 176.65 C 108.16 178.53 106.02 180.51 103.90 182.53 Z" />
<path fill="#fdfdfd" opacity="1.00" d=" M 42.96 99.50 C 44.02 97.66 45.40 94.98 47.91 95.20 C 50.17 95.14 51.80 97.37 51.74 99.50 C 48.82 99.49 45.89 99.52 42.96 99.50 Z" />
<path fill="#fdfdfd" opacity="1.00" d=" M 85.33 96.16 C 88.50 95.44 92.51 94.65 94.15 98.32 C 91.17 98.72 88.15 98.65 85.15 98.70 C 85.19 98.06 85.28 96.79 85.33 96.16 Z" />
<path fill="#fdfdfd" opacity="1.00" d=" M 191.21 194.48 C 189.83 193.23 191.24 191.31 192.06 190.17 C 192.28 191.47 193.12 194.20 191.21 194.48 Z" />
</g>
<g id="#bbbbbbff">
<path fill="#bbbbbb" opacity="1.00" d=" M 56.92 47.88 C 62.49 48.76 67.49 51.80 73.09 52.50 C 77.19 52.39 81.16 51.18 85.24 50.83 C 85.22 51.61 85.18 53.18 85.17 53.96 C 80.64 55.14 75.92 56.62 71.20 55.95 C 67.20 54.74 63.25 53.29 59.44 51.59 C 57.81 51.05 57.37 49.33 56.92 47.88 Z" />
<path fill="#bbbbbb" opacity="1.00" d=" M 35.21 63.95 C 38.50 62.84 41.98 61.25 45.52 61.80 C 56.15 65.91 68.06 60.84 78.61 65.32 C 83.88 67.11 89.55 66.14 94.93 67.34 C 94.81 67.81 94.58 68.75 94.47 69.22 C 95.77 69.06 97.08 68.89 98.40 68.75 L 99.18 69.57 C 90.78 71.35 81.77 70.66 73.84 67.30 C 70.06 65.96 65.93 66.39 61.99 66.46 C 59.55 66.36 58.45 69.39 56.03 69.39 C 50.02 69.73 43.88 68.95 38.19 66.94 C 36.72 66.52 36.02 65.10 35.21 63.95 Z" />
<path fill="#bbbbbb" opacity="1.00" d=" M 54.59 73.40 C 56.04 72.08 57.52 73.58 58.91 74.17 C 57.83 77.22 56.60 80.20 55.24 83.13 C 55.38 80.98 55.35 78.83 55.30 76.68 C 53.80 81.41 49.05 83.03 45.11 85.20 C 46.66 82.55 49.38 81.16 52.22 80.30 C 52.34 77.85 51.60 74.42 54.59 73.40 Z" />
<path fill="#bbbbbb" opacity="1.00" d=" M 70.57 73.84 C 71.11 73.73 72.19 73.50 72.73 73.39 C 75.38 75.97 77.76 78.92 80.90 80.97 C 82.31 81.83 84.26 82.02 85.10 83.61 C 83.19 83.43 81.27 83.36 79.36 83.29 C 79.40 84.28 79.50 86.26 79.55 87.25 C 77.99 85.40 77.20 83.08 75.91 81.07 C 74.40 79.71 72.52 78.86 70.79 77.82 C 70.72 76.49 70.65 75.17 70.57 73.84 Z" />
<path fill="#bbbbbb" opacity="1.00" d=" M 43.46 90.67 C 46.77 89.89 49.81 88.30 52.74 86.62 C 54.15 90.02 53.66 93.70 52.61 97.12 C 51.15 95.35 49.53 93.71 47.95 92.05 C 45.16 93.79 42.19 95.42 39.97 97.89 C 39.22 99.41 39.39 101.20 39.09 102.83 C 37.11 102.46 35.19 101.87 33.30 101.20 C 33.61 98.77 33.31 95.97 34.99 93.98 C 37.26 91.79 40.57 91.51 43.46 90.67 Z" />
<path fill="#bbbbbb" opacity="1.00" d=" M 79.55 87.25 C 84.17 88.63 88.79 90.08 93.59 90.76 C 98.95 91.52 101.16 97.28 105.52 99.83 C 104.28 102.84 102.97 106.12 100.17 108.03 C 97.61 108.95 94.78 108.60 92.10 108.83 C 92.93 110.69 93.63 112.60 94.24 114.54 C 92.86 113.89 91.51 113.19 90.19 112.44 C 91.42 114.97 90.79 117.60 89.09 119.76 C 86.45 118.29 84.05 116.29 82.46 113.69 C 82.49 111.49 83.03 109.34 83.31 107.16 C 83.98 107.66 84.66 108.14 85.35 108.61 C 87.45 105.84 90.40 104.12 93.95 104.36 C 94.16 102.30 95.19 100.51 96.15 98.72 C 95.39 96.68 93.86 95.05 92.67 93.26 C 90.10 93.48 87.34 92.97 84.93 94.05 C 81.60 95.89 82.31 100.25 80.95 103.30 L 80.60 104.18 C 81.28 98.44 78.82 92.99 79.55 87.25 Z" />
<path fill="#bbbbbb" opacity="1.00" d=" M 83.96 100.44 C 85.44 99.28 87.06 101.81 85.55 102.80 C 84.08 104.04 82.46 101.40 83.96 100.44 Z" />
<path fill="#bbbbbb" opacity="1.00" d=" M 50.52 101.06 C 51.33 98.66 54.43 101.25 53.04 102.63 C 51.76 104.74 49.82 106.34 48.44 108.37 C 48.10 110.30 48.62 112.25 48.77 114.17 C 49.93 113.50 51.09 112.83 52.26 112.18 C 51.20 114.44 49.85 116.76 47.24 117.42 C 47.07 116.07 46.92 114.71 46.78 113.36 C 44.87 113.60 42.96 113.79 41.05 113.95 C 41.84 112.27 42.63 110.59 43.48 108.93 C 41.39 107.97 39.12 107.85 36.89 108.31 C 36.79 107.92 36.58 107.14 36.48 106.76 C 37.91 105.39 39.37 104.05 40.86 102.73 C 42.09 104.33 43.33 105.94 44.58 107.52 C 46.74 105.53 48.78 103.43 50.52 101.06 Z" />
<path fill="#bbbbbb" opacity="1.00" d=" M 112.54 103.30 C 113.04 103.37 114.05 103.53 114.55 103.61 C 114.70 107.28 115.06 111.13 113.60 114.60 C 111.70 119.84 107.90 124.37 107.19 130.01 C 106.84 132.37 106.64 134.75 106.40 137.12 C 105.05 134.98 103.92 132.67 102.28 130.73 C 100.10 128.71 97.43 127.31 95.17 125.38 C 98.35 124.53 102.05 124.15 104.36 121.54 C 106.36 119.28 108.14 116.84 109.95 114.44 C 108.81 114.79 107.67 115.14 106.53 115.48 C 107.77 114.06 109.19 112.83 110.41 111.40 C 111.66 108.88 111.89 106.00 112.54 103.30 Z" />
<path fill="#bbbbbb" opacity="1.00" d=" M 29.98 120.97 C 26.24 116.82 26.82 110.30 29.66 105.85 C 31.67 109.61 32.69 113.99 35.62 117.21 C 39.52 120.90 43.91 124.02 48.42 126.92 C 45.28 130.09 42.62 133.72 40.79 137.81 C 38.73 131.29 33.29 126.80 29.98 120.97 Z" />
<path fill="#bbbbbb" opacity="1.00" d=" M 66.01 108.33 C 70.55 110.31 69.73 115.93 66.88 119.01 C 66.20 118.95 64.82 118.84 64.14 118.78 C 64.92 115.33 65.49 111.83 66.01 108.33 Z" />
<path fill="#bbbbbb" opacity="1.00" d=" M 61.27 128.24 C 63.98 126.17 66.23 122.69 70.05 122.95 C 71.17 125.91 68.47 127.02 66.16 127.80 C 66.58 130.53 67.66 133.09 68.77 135.60 C 64.94 136.26 61.61 134.27 58.52 132.31 C 59.25 134.30 60.05 136.33 61.60 137.83 C 61.08 137.98 60.02 138.28 59.49 138.43 C 58.78 146.33 54.22 153.27 53.78 161.17 C 54.37 161.26 55.56 161.43 56.15 161.52 C 55.34 163.46 54.93 165.53 54.71 167.62 C 54.42 169.73 53.96 171.81 53.58 173.90 C 52.54 173.87 51.52 173.76 50.50 173.57 C 50.41 171.99 50.34 170.40 50.32 168.82 C 51.10 169.94 51.94 171.02 52.81 172.07 C 52.90 168.47 50.84 165.55 48.47 163.06 C 51.58 158.67 53.20 153.52 55.50 148.71 C 57.10 145.18 57.75 141.30 57.61 137.44 C 56.54 139.73 55.60 142.09 54.37 144.30 C 54.52 141.84 54.58 139.20 56.12 137.13 C 58.20 134.35 58.23 130.32 61.27 128.24 M 67.09 124.27 C 66.57 125.88 67.14 126.42 68.79 125.87 C 69.30 124.26 68.74 123.72 67.09 124.27 Z" />
<path fill="#bbbbbb" opacity="1.00" d=" M 80.58 126.26 C 81.12 126.44 82.20 126.79 82.74 126.97 C 86.85 129.14 90.02 133.11 91.28 137.60 C 91.68 138.97 90.91 140.31 90.55 141.60 C 86.33 142.36 83.13 139.06 79.92 136.90 C 81.52 137.21 83.14 137.45 84.76 137.64 C 83.66 135.91 82.47 134.23 81.31 132.54 C 81.91 130.40 81.52 128.24 80.58 126.26 Z" />
<path fill="#bbbbbb" opacity="1.00" d=" M 105.29 145.17 C 105.97 146.51 106.88 147.93 106.55 149.51 C 106.10 152.42 105.87 155.36 105.61 158.29 C 104.68 158.86 103.64 159.22 102.64 159.64 C 98.25 161.74 93.80 163.88 90.03 167.02 C 86.17 170.12 80.75 171.84 75.95 170.02 C 71.29 168.64 68.34 164.54 64.73 161.58 C 66.45 161.05 68.19 160.59 69.94 160.13 C 69.41 159.36 68.88 158.59 68.35 157.82 C 73.21 154.85 77.63 151.30 81.91 147.57 C 83.03 149.28 84.22 150.97 85.31 152.71 C 86.99 152.99 88.68 153.27 90.35 153.64 C 92.54 158.39 100.09 159.00 103.63 155.43 C 105.36 152.91 104.37 149.72 103.98 146.94 C 104.41 146.35 104.85 145.76 105.29 145.17 M 83.74 154.49 C 85.08 157.59 88.66 156.96 90.67 154.92 C 88.57 153.48 86.05 154.22 83.74 154.49 M 72.25 158.15 C 72.04 160.03 73.24 161.76 75.12 162.14 C 80.65 162.75 86.38 162.61 91.63 160.55 C 91.65 159.92 91.70 158.67 91.73 158.04 C 86.09 159.33 79.15 159.79 74.97 154.97 C 74.04 156.00 72.98 156.95 72.25 158.15 Z" />
<path fill="#bbbbbb" opacity="1.00" d=" M 103.90 182.53 C 106.02 180.51 108.16 178.53 110.40 176.65 C 110.90 181.23 108.07 185.30 106.40 189.38 C 103.90 195.34 98.10 199.54 91.79 200.57 C 85.86 201.17 80.21 198.77 74.48 197.66 C 69.01 196.69 65.00 192.52 61.21 188.78 C 59.31 187.04 59.00 184.43 58.99 182.00 C 63.41 182.42 67.24 184.82 71.35 186.27 C 71.43 184.88 71.50 183.49 71.58 182.11 C 73.45 182.48 75.48 182.75 76.79 184.32 C 75.41 184.38 74.03 184.45 72.66 184.53 C 76.03 189.53 82.52 190.26 88.05 190.31 C 93.22 189.65 99.62 187.96 101.27 182.27 C 100.21 182.49 99.16 182.75 98.11 183.04 C 98.44 182.02 98.75 181.00 99.06 179.98 C 100.68 180.82 102.31 181.64 103.90 182.53 Z" />
<path fill="#bbbbbb" opacity="1.00" d=" M 181.51 189.81 C 180.90 188.78 180.48 187.64 180.02 186.54 C 182.49 186.67 184.95 186.68 187.42 186.67 C 187.57 189.75 187.65 192.83 187.54 195.91 C 185.35 194.07 183.21 192.13 181.51 189.81 Z" />
</g>
</svg>
