<?xml version="1.0" encoding="UTF-8" ?>
<!DOCTYPE svg PUBLIC "-//W3C//DTD SVG 1.1//EN" "http://www.w3.org/Graphics/SVG/1.1/DTD/svg11.dtd">
<svg width="210pt" height="220pt" viewBox="0 0 210 220" version="1.1" xmlns="http://www.w3.org/2000/svg">
<g id="#080608e7">
<path fill="#080608" opacity="0.91" d=" M 93.28 33.30 C 94.79 31.23 97.44 32.77 98.94 34.03 C 101.21 36.01 102.50 39.93 106.10 39.63 C 110.12 37.78 113.76 35.15 117.98 33.70 C 118.65 33.95 119.98 34.45 120.65 34.71 C 121.50 40.93 118.12 46.55 113.77 50.67 C 108.97 51.87 106.30 46.78 103.27 44.08 C 98.08 44.89 94.06 49.37 88.63 48.91 C 89.02 43.50 89.98 37.75 93.28 33.30 M 94.24 34.89 C 91.05 38.55 90.30 43.58 89.81 48.24 C 91.41 47.62 92.94 46.84 94.28 45.76 C 97.25 44.42 101.27 43.83 101.86 39.96 C 99.71 37.60 97.85 34.82 94.87 33.40 C 94.71 33.77 94.40 34.52 94.24 34.89 M 110.88 38.91 C 108.74 40.25 106.13 41.35 105.18 43.91 C 107.41 46.00 109.63 48.11 112.10 49.92 C 116.09 46.02 119.49 41.16 119.51 35.36 C 116.33 35.66 113.56 37.30 110.88 38.91 M 103.33 41.48 C 103.92 42.07 103.92 42.07 103.33 41.48 Z" />
<path fill="#080608" opacity="0.91" d=" M 39.30 134.61 C 43.05 134.40 46.82 134.46 50.58 134.41 C 46.97 135.64 42.97 135.53 39.30 134.61 Z" />
</g>
<g id="#ff63f6ff">
<path fill="#ff63f6" opacity="1.00" d=" M 94.24 34.89 C 94.40 34.52 94.71 33.77 94.87 33.40 C 97.85 34.82 99.71 37.60 101.86 39.96 C 101.27 43.83 97.25 44.42 94.28 45.76 C 93.36 46.07 91.54 46.67 90.63 46.98 C 91.32 42.81 92.59 38.77 94.24 34.89 Z" />
<path fill="#ff63f6" opacity="1.00" d=" M 110.88 38.91 C 113.56 37.30 116.33 35.66 119.51 35.36 C 119.49 41.16 116.09 46.02 112.10 49.92 C 109.63 48.11 107.41 46.00 105.18 43.91 C 106.13 41.35 108.74 40.25 110.88 38.91 Z" />
</g>
<g id="#923b8ffe">
<path fill="#923b8f" opacity="1.00" d=" M 89.81 48.24 C 90.30 43.58 91.05 38.55 94.24 34.89 C 92.59 38.77 91.32 42.81 90.63 46.98 C 91.54 46.67 93.36 46.07 94.28 45.76 C 92.94 46.84 91.41 47.62 89.81 48.24 Z" />
</g>
<g id="#c850c5ff">
<path fill="#c850c5" opacity="1.00" d=" M 103.33 41.48 C 103.92 42.07 103.92 42.07 103.33 41.48 Z" />
</g>
<g id="#090909ff">
<path fill="#090909" opacity="1.00" d=" M 58.14 76.09 C 64.35 67.73 70.76 59.20 79.11 52.86 C 76.06 58.26 70.86 62.58 69.49 68.79 C 75.58 65.32 81.55 61.15 88.42 59.44 C 87.64 60.83 86.85 62.22 86.04 63.60 C 92.30 64.02 96.82 57.93 102.94 57.62 C 107.36 58.17 111.56 59.95 116.03 60.20 C 121.06 59.27 125.96 57.59 131.07 57.14 C 132.89 56.83 133.53 58.56 133.64 60.03 C 127.79 62.14 120.69 63.52 117.08 69.11 C 121.97 71.40 127.42 70.50 132.17 68.32 C 140.87 64.12 150.42 62.09 159.96 60.95 C 162.74 60.84 165.85 61.53 167.69 63.80 C 167.34 64.42 166.64 65.64 166.29 66.25 C 155.86 67.71 146.39 74.17 140.77 83.02 C 137.46 85.33 133.01 84.86 129.22 85.89 C 129.26 86.60 129.31 87.31 129.37 88.02 C 134.17 89.13 139.19 91.07 144.14 89.74 C 144.01 92.58 140.98 93.15 139.03 94.44 C 144.50 94.90 149.90 94.22 154.97 92.10 C 154.27 94.67 152.91 97.06 151.06 98.98 C 148.95 100.60 146.26 101.08 143.74 101.67 C 145.16 102.66 147.07 103.23 147.91 104.85 C 147.79 106.80 145.45 106.62 144.12 107.21 C 138.66 108.35 132.99 108.18 127.63 109.80 C 123.93 110.66 120.24 111.61 116.66 112.89 C 118.82 114.66 121.59 115.39 123.87 116.98 C 122.75 118.58 120.90 119.20 119.08 119.57 C 116.31 119.86 113.45 119.76 110.84 120.90 C 115.04 120.32 119.40 119.99 123.37 121.83 L 124.17 122.25 C 124.44 122.41 124.99 122.73 125.26 122.89 C 125.56 122.37 126.16 121.34 126.46 120.82 C 128.53 117.67 131.78 115.31 135.01 113.43 C 138.79 112.01 142.38 110.09 146.27 108.95 C 149.35 107.99 152.58 108.96 155.42 110.24 L 156.39 110.95 C 156.60 111.10 157.02 111.40 157.23 111.55 C 159.53 108.57 161.65 105.43 164.30 102.74 C 165.12 102.11 166.00 101.57 166.92 101.08 C 177.70 95.20 191.08 94.66 202.48 99.05 L 202.66 99.12 C 204.93 100.15 207.15 101.63 207.52 104.33 C 206.82 104.36 205.44 104.43 204.75 104.46 C 204.34 104.08 203.53 103.32 203.13 102.94 C 202.66 102.70 201.73 102.20 201.26 101.96 C 199.42 101.81 197.87 100.68 196.17 100.07 C 187.82 98.32 178.41 98.36 170.78 102.65 C 169.91 103.09 169.03 103.53 168.16 103.98 C 165.21 105.15 162.94 107.45 161.71 110.36 C 161.48 110.81 161.03 111.71 160.80 112.16 C 159.99 113.86 159.23 115.58 158.46 117.29 C 156.22 116.67 154.86 114.87 153.80 112.94 C 151.94 111.78 149.76 111.34 147.59 111.70 C 140.20 113.49 133.75 117.79 128.04 122.68 C 128.20 123.55 128.40 124.41 128.66 125.25 C 128.88 125.32 129.31 125.46 129.52 125.52 C 129.94 126.10 130.76 127.27 131.17 127.85 C 131.14 129.20 131.10 130.55 131.04 131.91 C 128.62 132.05 125.30 134.00 123.58 131.44 C 123.06 130.50 122.92 129.52 123.16 128.47 C 123.39 127.82 123.87 126.53 124.10 125.88 C 121.00 123.56 117.21 122.85 113.45 123.70 C 113.08 123.73 112.33 123.79 111.96 123.81 C 110.85 123.70 109.93 124.04 109.20 124.84 C 108.78 125.24 107.93 126.03 107.51 126.43 C 101.97 126.36 96.92 128.97 91.82 130.81 C 93.15 132.02 94.48 133.21 95.83 134.40 C 93.07 135.22 90.27 135.87 87.46 136.49 C 87.79 137.54 89.62 138.74 88.20 139.73 C 83.37 139.34 78.34 139.78 73.70 138.16 C 69.96 135.67 66.92 131.46 61.96 131.47 C 58.72 130.59 56.02 132.81 53.07 133.67 C 51.87 133.45 50.68 133.18 49.48 132.95 C 60.20 129.21 70.95 124.55 79.70 117.19 L 79.73 116.50 C 79.71 115.78 79.67 114.36 79.65 113.64 C 81.95 118.31 87.03 120.30 91.93 120.88 C 87.67 118.94 85.62 114.38 84.67 110.08 C 84.72 104.10 88.29 98.08 93.85 95.60 C 94.15 95.44 94.75 95.11 95.05 94.94 C 97.33 96.13 99.65 97.22 102.02 98.21 C 98.75 95.73 94.90 92.48 96.61 87.86 C 97.56 87.09 98.55 86.37 99.58 85.70 C 99.60 84.11 99.60 82.53 99.61 80.94 C 98.34 79.77 97.46 78.02 95.84 77.34 C 93.64 77.08 91.44 77.44 89.25 77.61 C 90.14 79.71 90.93 81.87 92.06 83.86 C 93.76 83.76 94.89 82.41 96.18 81.48 C 96.73 81.99 97.29 82.51 97.85 83.03 C 96.57 84.25 95.26 85.45 93.88 86.56 C 91.85 86.17 89.84 85.48 89.09 83.36 C 88.12 79.10 84.57 76.39 82.82 72.57 C 80.10 71.12 77.08 70.26 73.99 70.26 C 72.11 70.85 70.57 72.16 68.89 73.13 C 71.08 72.67 73.50 71.98 75.58 73.24 C 84.81 77.62 84.74 94.27 74.09 96.74 L 74.08 96.75 C 73.71 96.95 72.98 97.34 72.61 97.54 C 70.46 95.44 68.72 92.97 67.00 90.52 C 66.65 90.47 65.96 90.37 65.62 90.32 C 57.46 97.09 48.55 103.03 41.15 110.66 C 40.62 110.59 39.57 110.44 39.04 110.36 C 41.47 109.11 41.41 106.39 42.02 104.09 C 43.47 102.02 45.29 100.16 45.81 97.59 C 46.67 94.44 49.72 92.76 51.39 90.15 C 53.09 85.22 55.79 80.72 58.14 76.09 M 66.53 79.89 C 67.04 81.16 67.53 82.44 68.03 83.72 L 69.36 83.05 C 69.33 84.84 69.36 86.71 68.47 88.33 C 69.53 88.34 70.60 88.33 71.66 88.31 C 71.19 86.93 70.71 85.56 70.21 84.19 C 72.55 85.21 74.53 82.97 75.50 81.15 C 76.31 78.09 73.32 76.50 70.99 75.57 C 68.94 76.37 67.30 77.80 66.53 79.89 M 98.44 90.96 C 98.12 93.32 100.84 94.37 102.65 94.96 C 103.25 94.07 103.86 93.18 104.46 92.29 C 103.05 91.09 101.96 89.60 100.81 88.17 C 99.21 87.74 98.39 89.68 98.44 90.96 M 95.25 102.96 C 94.66 105.28 96.69 106.72 98.04 108.21 C 98.39 109.37 97.88 110.50 97.56 111.60 C 98.52 111.59 99.49 111.57 100.46 111.56 C 100.23 110.43 99.82 109.33 99.83 108.16 C 102.39 107.03 105.14 103.98 102.77 101.28 C 101.10 97.84 95.16 99.09 95.25 102.96 M 126.08 128.19 C 125.62 129.88 126.18 130.45 127.75 129.90 C 128.20 128.22 127.65 127.65 126.08 128.19 Z" />
</g>
<g id="#fbfcf6ff">
<path fill="#fbfcf6" opacity="1.00" d=" M 68.89 73.13 C 70.57 72.16 72.11 70.85 73.99 70.26 C 77.08 70.26 80.10 71.12 82.82 72.57 C 84.57 76.39 88.12 79.10 89.09 83.36 C 89.42 86.71 90.48 91.60 86.85 93.52 C 84.14 95.12 81.74 97.18 79.72 99.60 C 77.73 98.87 75.84 97.93 74.09 96.74 C 84.74 94.27 84.81 77.62 75.58 73.24 C 73.50 71.98 71.08 72.67 68.89 73.13 Z" />
<path fill="#fbfcf6" opacity="1.00" d=" M 65.62 90.32 C 65.96 90.37 66.65 90.47 67.00 90.52 C 68.72 92.97 70.46 95.44 72.61 97.54 C 74.50 99.14 76.73 100.26 78.99 101.25 C 78.13 103.40 77.25 105.54 76.32 107.65 C 75.73 106.87 74.57 105.32 73.99 104.54 C 71.66 104.11 70.44 106.30 69.18 107.80 C 69.59 108.41 70.41 109.64 70.83 110.25 C 71.62 110.67 72.42 111.09 73.21 111.51 C 73.90 110.89 74.57 110.27 75.25 109.64 C 75.90 109.37 76.55 109.10 77.20 108.82 C 77.26 111.61 78.37 114.13 79.73 116.50 L 79.70 117.19 C 70.95 124.55 60.20 129.21 49.48 132.95 C 44.08 133.75 37.35 134.01 33.45 129.48 C 31.70 127.92 32.52 125.39 33.15 123.49 C 34.97 118.75 38.06 114.64 41.15 110.66 C 48.55 103.03 57.46 97.09 65.62 90.32 M 64.81 97.62 C 62.03 99.77 64.55 102.86 67.07 103.67 C 68.39 102.60 69.53 101.36 70.56 100.03 C 69.35 98.11 67.07 95.52 64.81 97.62 M 59.72 103.54 C 55.81 106.71 52.54 110.66 48.12 113.20 C 44.89 115.01 41.09 116.87 39.65 120.53 C 38.66 124.63 42.86 128.98 46.98 128.57 C 50.34 128.67 52.67 125.84 55.43 124.37 C 58.05 121.29 59.60 117.34 62.93 114.88 C 65.62 113.15 66.92 109.92 66.51 106.80 C 64.67 104.92 62.58 103.01 59.72 103.54 Z" />
</g>
<g id="#fdf9f9ff">
<path fill="#fdf9f9" opacity="1.00" d=" M 66.53 79.89 C 67.30 77.80 68.94 76.37 70.99 75.57 C 73.32 76.50 76.31 78.09 75.50 81.15 C 74.53 82.97 72.55 85.21 70.21 84.19 C 70.71 85.56 71.19 86.93 71.66 88.31 C 70.60 88.33 69.53 88.34 68.47 88.33 C 69.36 86.71 69.33 84.84 69.36 83.05 L 68.03 83.72 C 67.53 82.44 67.04 81.16 66.53 79.89 Z" />
</g>
<g id="#fdfdfbff">
<path fill="#fdfdfb" opacity="1.00" d=" M 89.25 77.61 C 91.44 77.44 93.64 77.08 95.84 77.34 C 97.46 78.02 98.34 79.77 99.61 80.94 C 99.60 82.53 99.60 84.11 99.58 85.70 C 98.55 86.37 97.56 87.09 96.61 87.86 C 95.37 89.74 95.57 91.99 95.73 94.12 C 93.92 93.74 92.10 93.37 90.28 93.02 C 90.66 91.09 91.06 89.16 91.46 87.23 C 92.06 87.07 93.28 86.73 93.88 86.56 C 95.26 85.45 96.57 84.25 97.85 83.03 C 97.29 82.51 96.73 81.99 96.18 81.48 C 94.89 82.41 93.76 83.76 92.06 83.86 C 90.93 81.87 90.14 79.71 89.25 77.61 Z" />
</g>
<g id="#868783ff">
<path fill="#868783" opacity="1.00" d=" M 89.09 83.36 C 89.84 85.48 91.85 86.17 93.88 86.56 C 93.28 86.73 92.06 87.07 91.46 87.23 C 91.06 89.16 90.66 91.09 90.28 93.02 C 92.10 93.37 93.92 93.74 95.73 94.12 C 95.57 91.99 95.37 89.74 96.61 87.86 C 94.90 92.48 98.75 95.73 102.02 98.21 C 99.65 97.22 97.33 96.13 95.05 94.94 C 94.75 95.11 94.15 95.44 93.85 95.60 C 91.11 95.03 87.82 94.14 85.46 96.18 C 80.03 100.11 77.52 107.21 79.65 113.64 C 79.67 114.36 79.71 115.78 79.73 116.50 C 78.37 114.13 77.26 111.61 77.20 108.82 C 76.55 109.10 75.90 109.37 75.25 109.64 C 75.25 108.56 75.23 107.49 75.20 106.42 C 74.90 105.95 74.29 105.01 73.99 104.54 C 74.57 105.32 75.73 106.87 76.32 107.65 C 77.25 105.54 78.13 103.40 78.99 101.25 C 76.73 100.26 74.50 99.14 72.61 97.54 C 72.98 97.34 73.71 96.95 74.08 96.75 L 74.09 96.74 C 75.84 97.93 77.73 98.87 79.72 99.60 C 81.74 97.18 84.14 95.12 86.85 93.52 C 90.48 91.60 89.42 86.71 89.09 83.36 Z" />
<path fill="#868783" opacity="1.00" d=" M 166.92 101.08 C 171.51 97.82 177.25 96.22 182.87 96.13 C 186.98 95.91 191.11 95.88 195.22 96.26 C 196.18 96.41 197.14 96.58 198.10 96.77 C 199.53 97.58 201.01 98.31 202.48 99.05 C 191.08 94.66 177.70 95.20 166.92 101.08 Z" />
<path fill="#868783" opacity="1.00" d=" M 170.78 102.65 C 178.41 98.36 187.82 98.32 196.17 100.07 C 187.71 98.66 178.80 99.56 170.78 102.65 Z" />
<path fill="#868783" opacity="1.00" d=" M 128.04 122.68 C 133.75 117.79 140.20 113.49 147.59 111.70 C 143.85 113.61 139.84 114.97 136.19 117.07 C 133.60 118.90 131.26 121.06 128.66 122.89 C 129.14 123.74 129.59 124.61 130.03 125.50 L 129.52 125.52 C 129.31 125.46 128.88 125.32 128.66 125.25 C 128.40 124.41 128.20 123.55 128.04 122.68 Z" />
<path fill="#868783" opacity="1.00" d=" M 158.46 117.29 C 159.23 115.58 159.99 113.86 160.80 112.16 C 160.20 113.92 159.62 115.68 159.14 117.48 C 155.97 118.79 154.69 115.23 153.80 112.94 C 154.86 114.87 156.22 116.67 158.46 117.29 Z" />
<path fill="#868783" opacity="1.00" d=" M 110.84 120.90 C 113.45 119.76 116.31 119.86 119.08 119.57 C 120.50 120.34 121.94 121.08 123.37 121.83 C 119.40 119.99 115.04 120.32 110.84 120.90 Z" />
<path fill="#868783" opacity="1.00" d=" M 125.64 120.69 L 126.46 120.82 C 126.16 121.34 125.56 122.37 125.26 122.89 C 124.99 122.73 124.44 122.41 124.17 122.25 C 124.53 121.86 125.27 121.08 125.64 120.69 Z" />
<path fill="#868783" opacity="1.00" d=" M 113.45 123.70 C 117.21 122.85 121.00 123.56 124.10 125.88 C 123.87 126.53 123.39 127.82 123.16 128.47 C 122.92 129.52 123.06 130.50 123.58 131.44 C 125.30 134.00 128.62 132.05 131.04 131.91 C 131.10 130.55 131.14 129.20 131.17 127.85 C 132.24 129.32 131.51 131.07 131.02 132.60 L 131.90 132.58 C 128.98 132.66 124.81 135.24 122.74 132.13 L 122.17 131.52 C 122.10 129.46 122.67 127.50 123.44 125.61 C 120.32 124.14 116.91 123.35 113.45 123.70 Z" />
<path fill="#868783" opacity="1.00" d=" M 159.70 125.69 C 163.86 124.74 168.09 125.77 172.28 125.86 C 174.20 126.56 176.13 127.26 178.02 128.04 C 172.20 125.67 165.85 126.07 159.70 125.69 Z" />
<path fill="#868783" opacity="1.00" d=" M 26.60 141.11 C 28.95 138.98 31.11 136.61 33.77 134.84 C 31.63 137.41 29.27 139.85 26.27 141.41 C 26.40 140.80 26.67 139.57 26.81 138.96 L 26.60 141.11 Z" />
<path fill="#868783" opacity="1.00" d=" M 95.85 142.07 C 101.24 141.46 105.87 144.55 110.95 145.64 C 115.28 146.04 119.63 145.68 123.92 145.10 C 125.42 144.38 126.93 143.68 128.49 143.09 C 124.09 146.49 118.27 146.55 112.98 146.28 C 107.13 145.43 101.83 142.34 95.85 142.07 Z" />
<path fill="#868783" opacity="1.00" d=" M 22.44 155.57 C 23.59 152.83 24.97 150.19 26.65 147.74 C 25.54 150.49 24.38 153.29 22.44 155.57 Z" />
<path fill="#868783" opacity="1.00" d=" M 13.40 162.95 C 14.82 159.03 16.65 155.21 19.31 151.97 C 17.51 155.72 15.53 159.38 13.40 162.95 Z" />
</g>
<g id="#ffffffff">
<path fill="#ffffff" opacity="1.00" d=" M 98.44 90.96 C 98.39 89.68 99.21 87.74 100.81 88.17 C 101.96 89.60 103.05 91.09 104.46 92.29 C 103.86 93.18 103.25 94.07 102.65 94.96 C 100.84 94.37 98.12 93.32 98.44 90.96 Z" />
<path fill="#ffffff" opacity="1.00" d=" M 58.18 105.27 C 60.56 105.30 62.51 106.55 64.42 107.80 C 64.54 109.28 65.41 111.03 63.93 112.10 C 62.00 112.65 62.67 110.09 62.08 109.02 C 60.73 107.75 58.24 107.68 58.18 105.27 Z" />
</g>
<g id="#fbfbf7ff">
<path fill="#fbfbf7" opacity="1.00" d=" M 85.46 96.18 C 87.82 94.14 91.11 95.03 93.85 95.60 C 88.29 98.08 84.72 104.10 84.67 110.08 C 85.62 114.38 87.67 118.94 91.93 120.88 C 87.03 120.30 81.95 118.31 79.65 113.64 C 77.52 107.21 80.03 100.11 85.46 96.18 Z" />
</g>
<g id="#27272652">
<path fill="#272726" opacity="0.32" d=" M 182.85 94.95 C 186.53 95.05 190.24 94.77 193.92 95.17 C 194.24 95.45 194.90 95.99 195.22 96.26 C 191.11 95.88 186.98 95.91 182.87 96.13 L 182.85 94.95 Z" />
</g>
<g id="#000001ff">
<path fill="#000001" opacity="1.00" d=" M 64.81 97.62 C 67.07 95.52 69.35 98.11 70.56 100.03 C 69.53 101.36 68.39 102.60 67.07 103.67 C 64.55 102.86 62.03 99.77 64.81 97.62 Z" />
</g>
<g id="#fcf6f7ff">
<path fill="#fcf6f7" opacity="1.00" d=" M 95.25 102.96 C 95.16 99.09 101.10 97.84 102.77 101.28 C 105.14 103.98 102.39 107.03 99.83 108.16 C 99.82 109.33 100.23 110.43 100.46 111.56 C 99.49 111.57 98.52 111.59 97.56 111.60 C 97.88 110.50 98.39 109.37 98.04 108.21 C 96.69 106.72 94.66 105.28 95.25 102.96 Z" />
</g>
<g id="#36373595">
<path fill="#363735" opacity="0.58" d=" M 202.66 99.12 C 205.33 99.19 209.69 101.48 207.78 104.62 C 206.77 104.60 205.75 104.55 204.75 104.46 C 205.44 104.43 206.82 104.36 207.52 104.33 C 207.15 101.63 204.93 100.15 202.66 99.12 Z" />
<path fill="#363735" opacity="0.58" d=" M 156.39 110.95 C 159.23 108.40 160.25 103.91 164.30 102.74 C 161.65 105.43 159.53 108.57 157.23 111.55 C 157.02 111.40 156.60 111.10 156.39 110.95 Z" />
<path fill="#363735" opacity="0.58" d=" M 135.01 113.43 C 140.24 110.17 146.58 105.92 152.96 108.34 C 154.00 108.64 154.82 109.27 155.42 110.24 C 152.58 108.96 149.35 107.99 146.27 108.95 C 142.38 110.09 138.79 112.01 135.01 113.43 Z" />
<path fill="#363735" opacity="0.58" d=" M 146.00 135.04 C 149.79 130.25 156.07 128.38 161.99 128.50 C 167.49 128.61 173.47 128.57 178.17 131.88 C 169.69 129.29 160.18 127.87 151.76 131.41 C 149.82 132.60 148.08 134.09 146.00 135.04 Z" />
<path fill="#363735" opacity="0.58" d=" M 30.99 141.07 C 32.46 138.81 34.36 136.88 36.60 135.38 C 35.50 137.12 34.16 138.69 32.74 140.18 C 38.46 139.39 44.19 140.47 49.92 139.96 C 53.91 140.11 58.26 140.16 61.81 142.20 C 51.74 139.42 41.26 140.37 30.99 141.07 Z" />
<path fill="#363735" opacity="0.58" d=" M 79.61 141.96 C 83.55 139.49 88.22 141.40 92.47 141.74 C 88.18 141.51 83.88 141.52 79.61 141.96 Z" />
<path fill="#363735" opacity="0.58" d=" M 125.67 147.70 C 131.14 145.47 135.90 141.88 141.20 139.31 C 138.17 142.51 134.12 144.38 130.35 146.53 C 122.24 151.31 111.39 151.74 103.28 146.77 C 110.45 149.24 118.36 149.94 125.67 147.70 Z" />
<path fill="#363735" opacity="0.58" d=" M 67.43 151.37 C 66.08 149.79 69.74 147.45 69.84 149.82 C 69.08 150.41 68.28 150.92 67.43 151.37 Z" />
</g>
<g id="#1f1f1e85">
<path fill="#1f1f1e" opacity="0.52" d=" M 201.26 101.96 C 201.73 102.20 202.66 102.70 203.13 102.94 L 202.31 103.37 L 201.35 102.87 L 201.26 101.96 Z" />
</g>
<g id="#0a0803ff">
<path fill="#0a0803" opacity="1.00" d=" M 59.72 103.54 C 62.58 103.01 64.67 104.92 66.51 106.80 C 66.92 109.92 65.62 113.15 62.93 114.88 C 59.60 117.34 58.05 121.29 55.43 124.37 C 52.67 125.84 50.34 128.67 46.98 128.57 C 42.86 128.98 38.66 124.63 39.65 120.53 C 41.09 116.87 44.89 115.01 48.12 113.20 C 52.54 110.66 55.81 106.71 59.72 103.54 M 58.18 105.27 C 58.24 107.68 60.73 107.75 62.08 109.02 C 62.67 110.09 62.00 112.65 63.93 112.10 C 65.41 111.03 64.54 109.28 64.42 107.80 C 62.51 106.55 60.56 105.30 58.18 105.27 M 50.17 116.91 C 51.47 117.89 52.40 119.63 54.16 119.84 C 56.73 118.26 57.74 115.03 55.24 112.90 C 53.60 114.29 51.90 115.62 50.17 116.91 M 41.72 117.96 C 40.74 121.31 42.05 124.42 44.51 126.72 C 46.44 126.63 48.37 126.54 50.30 126.43 C 50.85 125.43 51.42 124.43 51.84 123.37 C 49.20 123.12 46.53 124.00 43.93 123.22 C 41.46 119.40 46.67 119.16 49.11 118.55 C 48.21 114.49 44.17 117.04 41.72 117.96 Z" />
</g>
<g id="#363635c7">
<path fill="#363635" opacity="0.78" d=" M 161.71 110.36 C 162.94 107.45 165.21 105.15 168.16 103.98 C 166.32 106.40 164.18 108.58 161.71 110.36 Z" />
</g>
<g id="#000000ff">
<path fill="#000000" opacity="1.00" d=" M 69.18 107.80 C 70.44 106.30 71.66 104.11 73.99 104.54 C 74.29 105.01 74.90 105.95 75.20 106.42 C 75.23 107.49 75.25 108.56 75.25 109.64 C 74.57 110.27 73.90 110.89 73.21 111.51 C 72.42 111.09 71.62 110.67 70.83 110.25 C 70.41 109.64 69.59 108.41 69.18 107.80 Z" />
</g>
<g id="#585955db">
<path fill="#585955" opacity="0.86" d=" M 39.04 110.36 C 39.57 110.44 40.62 110.59 41.15 110.66 C 38.06 114.64 34.97 118.75 33.15 123.49 C 32.52 125.39 31.70 127.92 33.45 129.48 C 37.35 134.01 44.08 133.75 49.48 132.95 C 50.68 133.18 51.87 133.45 53.07 133.67 C 52.25 133.97 51.42 134.21 50.58 134.41 C 46.82 134.46 43.05 134.40 39.30 134.61 C 38.70 134.63 37.51 134.68 36.92 134.70 C 37.01 134.20 37.20 133.21 37.29 132.71 C 36.53 133.12 35.77 133.54 35.02 133.98 C 34.66 133.38 33.95 132.19 33.59 131.59 C 33.00 130.87 32.41 130.16 31.81 129.45 C 30.31 126.21 31.50 122.22 32.88 119.05 C 34.94 116.20 36.87 113.26 38.81 110.33 L 39.04 110.36 Z" />
</g>
<g id="#972c1aff">
<path fill="#972c1a" opacity="1.00" d=" M 50.17 116.91 C 51.90 115.62 53.60 114.29 55.24 112.90 C 57.74 115.03 56.73 118.26 54.16 119.84 C 52.40 119.63 51.47 117.89 50.17 116.91 Z" />
</g>
<g id="#f0f0f0ff">
<path fill="#f0f0f0" opacity="1.00" d=" M 41.72 117.96 C 44.17 117.04 48.21 114.49 49.11 118.55 C 46.67 119.16 41.46 119.40 43.93 123.22 C 46.53 124.00 49.20 123.12 51.84 123.37 C 51.42 124.43 50.85 125.43 50.30 126.43 C 48.37 126.54 46.44 126.63 44.51 126.72 C 42.05 124.42 40.74 121.31 41.72 117.96 Z" />
</g>
<g id="#292b2da4">
<path fill="#292b2d" opacity="0.64" d=" M 109.20 124.84 C 109.93 124.04 110.85 123.70 111.96 123.81 C 111.63 125.45 110.71 125.80 109.20 124.84 Z" />
</g>
<g id="#292927a4">
<path fill="#292927" opacity="0.64" d=" M 145.34 131.11 C 148.17 127.76 152.69 125.59 157.09 125.85 C 153.05 127.31 149.11 129.04 145.34 131.11 Z" />
</g>
<g id="#070502ff">
<path fill="#070502" opacity="1.00" d=" M 157.09 125.85 C 157.95 125.73 158.83 125.68 159.70 125.69 C 165.85 126.07 172.20 125.67 178.02 128.04 C 178.41 128.18 179.19 128.44 179.58 128.57 L 179.91 129.21 C 180.45 130.33 181.15 131.36 182.01 132.27 C 180.72 132.37 179.25 132.85 178.17 131.88 C 173.47 128.57 167.49 128.61 161.99 128.50 C 156.07 128.38 149.79 130.25 146.00 135.04 L 145.48 135.58 L 144.69 135.87 C 143.26 136.25 141.99 137.26 141.58 138.73 L 141.37 139.22 L 141.20 139.31 C 135.90 141.88 131.14 145.47 125.67 147.70 C 118.36 149.94 110.45 149.24 103.28 146.77 C 102.43 146.44 101.62 146.05 100.84 145.60 C 99.97 144.95 99.02 144.77 97.98 145.08 C 96.59 145.30 95.16 145.36 93.77 145.18 C 86.58 143.19 78.95 144.18 71.96 146.44 C 70.67 147.58 73.51 148.24 74.01 149.13 C 74.83 149.62 75.42 150.28 75.78 151.12 C 76.10 152.30 76.75 153.35 77.64 154.19 C 79.57 156.33 77.89 160.27 75.68 161.64 C 72.15 162.27 68.52 161.77 65.21 160.44 L 65.03 159.85 C 64.67 158.49 63.95 157.28 63.27 156.06 C 61.86 153.37 63.46 150.40 65.44 148.52 C 65.68 148.13 66.15 147.35 66.39 146.95 C 65.53 146.24 64.53 145.84 63.40 145.75 C 59.86 145.29 56.62 143.47 53.03 143.33 C 47.37 143.15 41.70 143.50 36.04 143.27 C 35.51 143.35 34.47 143.53 33.94 143.62 C 33.37 143.68 32.23 143.80 31.66 143.86 C 30.17 143.79 28.58 144.35 27.93 145.79 C 27.61 146.28 26.97 147.25 26.65 147.74 C 24.97 150.19 23.59 152.83 22.44 155.57 C 22.33 155.68 22.12 155.91 22.02 156.02 C 21.76 156.49 21.25 157.42 21.00 157.88 L 20.67 159.54 C 20.66 159.57 20.64 159.62 20.63 159.65 L 19.76 161.04 C 19.54 161.52 19.12 162.50 18.90 162.98 L 18.55 164.41 C 18.53 164.44 18.51 164.50 18.50 164.53 C 18.03 165.70 17.44 166.80 16.74 167.85 C 16.51 168.33 16.07 169.29 15.84 169.77 C 15.70 170.21 15.40 171.07 15.25 171.51 C 12.32 175.87 11.27 181.05 9.54 185.92 C 8.16 186.39 6.73 186.68 5.25 186.79 C 5.86 183.72 6.46 180.65 7.14 177.60 C 7.30 176.97 7.52 176.36 7.79 175.77 C 9.68 172.53 11.17 169.09 12.20 165.48 C 12.52 164.60 12.92 163.76 13.40 162.95 C 15.53 159.38 17.51 155.72 19.31 151.97 L 19.56 151.46 L 20.13 151.06 C 21.51 150.34 22.16 148.81 22.28 147.33 L 22.49 146.01 C 23.96 146.60 24.57 144.69 23.69 143.76 C 21.45 137.47 27.45 132.80 31.81 129.45 C 32.41 130.16 33.00 130.87 33.59 131.59 C 30.76 133.34 27.13 135.20 26.81 138.96 C 26.67 139.57 26.40 140.80 26.27 141.41 C 29.27 139.85 31.63 137.41 33.77 134.84 C 34.08 134.62 34.70 134.19 35.02 133.98 C 35.77 133.54 36.53 133.12 37.29 132.71 C 37.20 133.21 37.01 134.20 36.92 134.70 C 36.84 134.87 36.68 135.21 36.60 135.38 C 34.36 136.88 32.46 138.81 30.99 141.07 C 41.26 140.37 51.74 139.42 61.81 142.20 C 63.48 142.59 65.06 143.27 66.59 144.05 C 67.03 144.26 67.92 144.69 68.37 144.91 C 72.08 144.00 75.71 142.80 79.45 141.99 L 79.61 141.96 C 83.88 141.52 88.18 141.51 92.47 141.74 C 93.60 141.82 94.72 141.93 95.85 142.07 C 101.83 142.34 107.13 145.43 112.98 146.28 C 118.27 146.55 124.09 146.49 128.49 143.09 C 129.09 142.73 129.71 142.40 130.35 142.10 C 132.93 141.08 135.31 139.64 137.47 137.91 C 137.68 137.78 138.10 137.53 138.30 137.40 C 139.36 136.89 140.62 136.36 141.00 135.14 L 141.36 134.38 L 142.33 134.18 C 143.39 133.99 144.07 133.35 144.37 132.24 C 144.61 131.96 145.10 131.39 145.34 131.11 C 149.11 129.04 153.05 127.31 157.09 125.85 M 67.43 151.37 C 65.89 152.43 66.32 154.55 66.06 156.13 C 66.02 157.72 66.78 158.27 68.35 157.76 L 68.71 158.60 C 70.69 158.63 72.66 158.67 74.64 158.71 C 75.73 154.85 72.95 151.66 69.84 149.82 C 69.74 147.45 66.08 149.79 67.43 151.37 Z" />
</g>
<g id="#22222076">
<path fill="#222220" opacity="0.46" d=" M 126.08 128.19 C 127.65 127.65 128.20 128.22 127.75 129.90 C 126.18 130.45 125.62 129.88 126.08 128.19 Z" />
</g>
<g id="#1e1f1c84">
<path fill="#1e1f1c" opacity="0.52" d=" M 179.91 129.21 C 181.54 127.97 183.93 131.31 182.01 132.27 C 181.15 131.36 180.45 130.33 179.91 129.21 Z" />
</g>
<g id="#2d2e2ca8">
<path fill="#2d2e2c" opacity="0.66" d=" M 142.33 134.18 C 142.02 132.54 142.69 131.90 144.37 132.24 C 144.07 133.35 143.39 133.99 142.33 134.18 Z" />
</g>
<g id="#23232380">
<path fill="#232323" opacity="0.50" d=" M 138.30 137.40 C 137.49 135.98 139.75 134.06 141.00 135.14 C 140.62 136.36 139.36 136.89 138.30 137.40 Z" />
</g>
<g id="#363635b7">
<path fill="#363635" opacity="0.72" d=" M 141.58 138.73 C 141.99 137.26 143.26 136.25 144.69 135.87 C 145.32 137.38 143.03 139.40 141.58 138.73 Z" />
</g>
<g id="#24232398">
<path fill="#242323" opacity="0.60" d=" M 130.35 142.10 C 132.26 140.04 134.82 138.74 137.47 137.91 C 135.31 139.64 132.93 141.08 130.35 142.10 Z" />
</g>
<g id="#292927a8">
<path fill="#292927" opacity="0.66" d=" M 66.59 144.05 C 70.97 143.79 74.98 141.18 79.45 141.99 C 75.71 142.80 72.08 144.00 68.37 144.91 C 67.92 144.69 67.03 144.26 66.59 144.05 Z" />
</g>
<g id="#30312fce">
<path fill="#30312f" opacity="0.81" d=" M 33.94 143.62 C 34.47 143.53 35.51 143.35 36.04 143.27 L 35.65 144.10 L 34.58 144.28 L 33.94 143.62 Z" />
</g>
<g id="#4d4c4a96">
<path fill="#4d4c4a" opacity="0.59" d=" M 23.69 143.76 C 24.57 144.69 23.96 146.60 22.49 146.01 C 22.79 145.45 23.39 144.32 23.69 143.76 Z" />
</g>
<g id="#2c2c2ba3">
<path fill="#2c2c2b" opacity="0.64" d=" M 27.93 145.79 C 28.58 144.35 30.17 143.79 31.66 143.86 C 31.90 145.45 29.16 146.63 27.93 145.79 Z" />
</g>
<g id="#1c1b1b8b">
<path fill="#1c1b1b" opacity="0.55" d=" M 71.96 146.44 C 78.95 144.18 86.58 143.19 93.77 145.18 C 86.82 144.68 79.76 144.88 73.05 146.95 C 73.29 147.50 73.77 148.59 74.01 149.13 C 73.51 148.24 70.67 147.58 71.96 146.44 Z" />
</g>
<g id="#363634b7">
<path fill="#363634" opacity="0.72" d=" M 97.98 145.08 C 99.02 144.77 99.97 144.95 100.84 145.60 C 99.48 146.82 98.53 146.64 97.98 145.08 Z" />
</g>
<g id="#2d2d2cad">
<path fill="#2d2d2c" opacity="0.68" d=" M 63.40 145.75 C 64.53 145.84 65.53 146.24 66.39 146.95 C 66.15 147.35 65.68 148.13 65.44 148.52 C 64.39 148.21 63.07 146.91 63.40 145.75 Z" />
</g>
<g id="#353331be">
<path fill="#353331" opacity="0.75" d=" M 20.13 151.06 C 19.28 149.76 20.64 147.02 22.28 147.33 C 22.16 148.81 21.51 150.34 20.13 151.06 Z" />
</g>
<g id="#212220a2">
<path fill="#212220" opacity="0.64" d=" M 75.78 151.12 C 77.39 150.24 78.82 153.07 77.64 154.19 C 76.75 153.35 76.10 152.30 75.78 151.12 Z" />
</g>
<g id="#3e3a37cb">
<path fill="#3e3a37" opacity="0.80" d=" M 21.00 157.88 C 21.25 157.42 21.76 156.49 22.02 156.02 L 22.43 156.84 L 21.91 157.79 L 21.00 157.88 Z" />
</g>
<g id="#18181756">
<path fill="#181817" opacity="0.34" d=" M 63.27 156.06 C 63.95 157.28 64.67 158.49 65.03 159.85 C 63.07 160.64 61.78 157.24 63.27 156.06 Z" />
</g>
<g id="#2a2928c3">
<path fill="#2a2928" opacity="0.76" d=" M 66.06 156.13 C 67.22 156.08 67.98 156.62 68.35 157.76 C 66.78 158.27 66.02 157.72 66.06 156.13 Z" />
</g>
<g id="#373534a7">
<path fill="#373534" opacity="0.65" d=" M 20.63 159.65 C 20.64 159.62 20.66 159.57 20.67 159.54 C 20.66 159.57 20.64 159.62 20.63 159.65 Z" />
</g>
<g id="#30302e8b">
<path fill="#30302e" opacity="0.55" d=" M 18.90 162.98 C 19.12 162.50 19.54 161.52 19.76 161.04 L 20.24 161.82 L 19.80 162.82 L 18.90 162.98 Z" />
</g>
<g id="#3735327d">
<path fill="#373532" opacity="0.49" d=" M 18.50 164.53 C 18.51 164.50 18.53 164.44 18.55 164.41 C 18.53 164.44 18.51 164.50 18.50 164.53 Z" />
</g>
<g id="#1d1c1aaa">
<path fill="#1d1c1a" opacity="0.67" d=" M 7.79 175.77 C 8.47 172.09 9.62 168.31 12.20 165.48 C 11.17 169.09 9.68 172.53 7.79 175.77 Z" />
</g>
<g id="#3737348d">
<path fill="#373734" opacity="0.55" d=" M 15.84 169.77 C 16.07 169.29 16.51 168.33 16.74 167.85 L 17.21 168.65 L 16.75 169.64 L 15.84 169.77 Z" />
</g>
<g id="#1e1d1b93">
<path fill="#1e1d1b" opacity="0.58" d=" M 9.54 185.92 C 11.27 181.05 12.32 175.87 15.25 171.51 C 13.92 176.62 11.73 181.46 10.57 186.63 C 8.47 186.93 6.34 186.89 4.22 186.96 C 4.96 183.77 5.10 180.31 7.14 177.60 C 6.46 180.65 5.86 183.72 5.25 186.79 C 6.73 186.68 8.16 186.39 9.54 185.92 Z" />
</g>
</svg>
