<?xml version="1.0" encoding="UTF-8" ?>
<!DOCTYPE svg PUBLIC "-//W3C//DTD SVG 1.1//EN" "http://www.w3.org/Graphics/SVG/1.1/DTD/svg11.dtd">
<svg width="210pt" height="220pt" viewBox="0 0 210 220" version="1.1" xmlns="http://www.w3.org/2000/svg">
<g id="#0a0504ff">
<path fill="#0a0504" opacity="1.00" d=" M 92.60 34.19 C 92.79 32.95 94.03 32.42 94.85 31.65 C 96.20 32.62 97.80 33.36 98.78 34.76 C 100.06 36.37 101.04 38.40 102.94 39.39 C 104.46 39.37 105.92 38.90 107.34 38.40 C 110.31 36.97 113.28 35.55 116.29 34.22 C 116.68 34.22 117.46 34.21 117.85 34.21 C 118.28 34.18 119.14 34.11 119.58 34.07 C 120.08 39.70 116.19 43.88 114.17 48.71 C 113.08 48.75 112.00 48.78 110.92 48.82 C 108.82 46.72 106.91 44.40 104.54 42.60 C 99.17 42.50 95.15 46.47 90.29 48.01 C 89.93 43.28 90.87 38.59 92.60 34.19 Z" />
<path fill="#0a0504" opacity="1.00" d=" M 81.73 65.93 C 85.99 66.88 87.37 70.98 88.46 74.67 C 92.23 74.72 96.01 74.80 99.77 74.41 C 99.55 75.47 99.34 76.54 99.12 77.60 C 99.92 78.42 100.72 79.24 101.52 80.06 C 100.68 83.44 101.96 86.62 103.69 89.48 C 105.87 90.08 108.08 90.57 110.30 91.01 C 108.58 92.75 106.10 93.24 103.91 94.14 C 106.89 96.19 111.59 96.87 112.40 101.00 C 108.87 100.49 105.71 98.79 102.70 96.98 C 105.33 101.23 107.91 106.57 105.60 111.52 C 103.51 114.90 100.79 118.16 97.23 120.05 C 91.79 122.04 85.89 120.28 81.14 117.36 C 74.88 122.74 67.44 126.41 60.14 130.12 C 58.79 130.77 57.47 131.48 56.07 132.01 C 54.46 132.37 52.82 132.65 51.18 132.93 C 51.40 132.60 51.83 131.93 52.05 131.60 C 61.69 127.90 71.37 123.60 79.34 116.90 C 79.48 116.64 79.77 116.14 79.91 115.88 C 80.11 115.55 80.49 114.88 80.69 114.54 C 83.12 118.26 87.76 120.26 92.12 119.35 C 91.29 119.11 89.64 118.64 88.82 118.40 C 87.77 116.66 86.75 114.92 85.62 113.24 C 84.29 109.86 84.63 106.29 85.97 102.98 C 87.69 99.40 90.50 96.49 94.00 94.61 C 94.30 94.57 94.89 94.47 95.18 94.43 C 97.35 95.74 99.67 96.78 102.12 97.45 C 100.27 95.63 98.05 94.10 96.67 91.86 C 96.34 90.28 96.59 88.66 96.70 87.07 C 97.60 86.22 98.58 85.48 99.64 84.85 C 99.62 83.31 99.57 81.77 99.52 80.23 C 98.60 79.01 97.68 77.80 96.81 76.55 C 94.28 76.26 91.72 76.40 89.19 76.69 C 90.19 79.11 91.27 81.51 92.67 83.73 C 93.88 82.62 95.08 81.50 96.30 80.40 C 99.27 82.37 95.31 84.20 94.06 85.59 C 91.95 85.14 89.74 84.50 89.01 82.23 C 88.11 78.02 84.42 75.48 82.91 71.66 C 78.71 69.29 73.42 68.32 69.33 71.41 C 74.71 70.67 80.08 74.07 81.41 79.37 C 83.78 84.94 81.65 91.53 76.97 95.17 C 76.23 95.31 74.75 95.60 74.00 95.74 C 73.32 95.87 72.64 96.00 71.95 96.13 C 69.89 93.94 68.43 91.21 66.12 89.25 C 57.74 95.96 48.96 102.25 41.25 109.76 C 40.86 109.70 40.09 109.58 39.71 109.53 C 41.22 108.13 41.22 106.14 41.46 104.27 L 41.53 104.42 C 41.73 104.97 42.13 106.09 42.33 106.65 C 49.67 100.18 57.74 94.61 65.02 88.07 C 64.63 84.45 64.05 80.69 65.16 77.15 C 66.28 73.49 68.77 70.52 71.05 67.54 C 74.68 67.26 78.28 67.83 81.74 68.90 C 81.74 68.16 81.74 66.67 81.73 65.93 M 68.27 76.19 C 66.20 77.70 66.84 80.20 67.58 82.21 C 70.06 84.00 73.57 84.02 75.13 81.05 C 77.42 77.07 71.25 73.09 68.27 76.19 M 68.63 87.35 C 69.53 87.50 70.44 87.62 71.35 87.71 C 71.36 87.09 71.38 85.83 71.39 85.21 C 70.19 85.63 67.41 84.79 68.63 87.35 M 98.43 89.97 C 98.00 92.30 100.69 93.22 102.08 94.53 C 102.90 93.64 103.74 92.79 104.57 91.91 C 102.93 90.21 101.52 88.31 100.44 86.20 C 99.71 87.42 98.49 88.47 98.43 89.97 M 97.24 99.03 C 94.53 100.22 94.47 104.90 96.92 106.41 C 98.98 107.06 102.11 107.27 103.08 104.85 C 105.29 101.58 100.53 96.75 97.24 99.03 M 97.51 108.52 C 97.56 109.76 97.99 110.87 98.86 111.76 C 99.50 111.16 100.15 110.57 100.80 109.98 C 100.30 108.48 98.81 108.57 97.51 108.52 Z" />
<path fill="#0a0504" opacity="1.00" d=" M 65.38 96.50 C 69.23 94.48 71.70 100.78 67.97 102.26 C 64.27 103.99 61.82 97.98 65.38 96.50 Z" />
<path fill="#0a0504" opacity="1.00" d=" M 165.90 101.18 C 170.48 99.25 174.88 96.42 179.96 96.05 C 186.52 95.60 193.26 95.28 199.60 97.38 L 199.71 97.42 C 202.19 98.53 204.62 99.76 207.00 101.07 C 206.99 101.90 206.98 103.55 206.97 104.38 L 206.22 103.57 C 205.42 102.47 204.10 102.00 202.81 101.88 C 200.73 101.58 198.89 100.55 197.01 99.69 C 190.12 96.69 182.47 98.64 175.30 99.25 C 174.81 99.67 173.82 100.51 173.33 100.92 C 171.50 101.98 169.49 102.67 167.63 103.67 C 165.13 104.68 163.40 106.75 162.11 109.04 C 162.01 109.20 161.81 109.51 161.72 109.67 C 160.45 111.75 159.43 113.96 158.45 116.18 C 156.62 115.59 155.20 114.30 154.03 112.82 C 153.75 112.50 153.19 111.85 152.91 111.52 C 150.43 110.68 147.62 110.14 145.14 111.26 C 139.57 113.72 133.91 116.42 129.57 120.80 C 128.85 121.71 127.56 122.53 127.73 123.84 C 128.44 124.68 129.20 125.45 130.04 126.17 C 130.33 126.39 130.90 126.85 131.19 127.08 C 130.98 128.57 130.86 130.08 130.44 131.53 C 127.72 133.17 124.68 132.52 122.61 130.21 C 123.04 128.68 123.49 127.15 123.83 125.59 L 122.87 124.74 C 122.61 124.51 122.10 124.07 121.84 123.85 C 120.91 122.87 119.51 122.43 118.20 122.76 C 117.70 122.82 116.71 122.93 116.21 122.99 C 112.71 122.97 109.25 123.58 106.44 125.79 C 105.20 126.57 103.61 126.57 102.35 125.88 C 104.99 124.02 107.56 121.96 110.57 120.72 C 115.48 119.57 120.58 119.65 125.02 122.30 C 125.40 121.62 126.17 120.28 126.55 119.61 C 128.24 117.98 129.93 116.33 131.81 114.90 C 139.01 111.44 146.86 105.29 155.17 109.16 C 155.64 109.54 156.58 110.31 157.05 110.70 C 157.33 110.36 157.89 109.69 158.17 109.36 C 160.01 107.22 161.69 104.95 163.38 102.70 C 164.15 102.10 165.03 101.63 165.90 101.18 M 126.08 129.26 C 126.53 130.89 127.07 130.92 127.68 129.35 C 129.71 126.86 124.10 126.62 126.08 129.26 Z" />
<path fill="#0a0504" opacity="1.00" d=" M 58.59 103.40 C 60.44 103.23 62.30 103.28 64.14 103.50 C 66.69 105.87 67.03 109.22 65.70 112.36 C 65.27 110.53 64.77 108.72 64.22 106.93 C 62.37 105.73 60.39 104.76 58.24 104.24 C 57.92 108.02 63.47 107.10 62.75 111.14 C 63.06 111.61 63.67 112.55 63.97 113.02 C 61.90 115.22 59.50 117.20 58.16 119.98 C 56.63 123.44 53.19 125.30 50.20 127.32 C 49.11 127.65 48.03 128.00 46.96 128.37 C 43.76 127.89 40.88 125.96 39.63 122.92 C 38.46 118.57 42.93 115.89 45.92 113.74 C 50.95 111.41 54.83 107.37 58.59 103.40 M 50.35 116.18 C 51.52 117.39 52.71 118.57 53.93 119.73 C 56.06 117.73 57.99 114.67 55.26 112.22 C 53.70 113.63 52.06 114.95 50.35 116.18 M 41.74 118.20 C 40.44 121.41 42.69 124.17 44.71 126.40 C 47.45 126.27 51.93 126.41 51.69 122.46 C 49.07 122.54 45.87 124.26 43.66 122.13 C 41.89 118.65 46.71 118.56 48.95 118.13 C 48.61 113.75 43.50 116.04 41.74 118.20 Z" />
<path fill="#0a0504" opacity="1.00" d=" M 69.22 106.58 C 70.59 104.65 73.24 103.03 75.26 105.23 C 75.23 106.47 75.21 107.72 75.20 108.97 C 73.83 109.48 72.47 109.98 71.10 110.50 C 70.47 109.19 69.85 107.89 69.22 106.58 Z" />
<path fill="#0a0504" opacity="1.00" d=" M 150.54 127.16 C 158.01 125.61 165.77 124.84 173.35 126.06 C 176.44 126.48 179.45 127.76 181.79 129.84 C 181.73 130.51 181.62 131.86 181.56 132.54 C 179.63 132.31 177.91 131.44 176.26 130.50 C 171.72 127.61 166.14 128.47 161.04 128.27 C 155.72 128.00 150.23 129.86 146.68 133.95 C 146.17 134.45 145.63 134.93 145.08 135.39 C 143.16 136.81 141.33 138.34 139.54 139.91 L 139.29 140.09 C 136.75 141.34 134.31 142.77 132.00 144.41 L 131.41 144.77 C 123.19 149.62 112.87 149.76 103.99 146.70 C 97.07 144.32 89.53 144.33 82.29 144.29 C 78.76 144.50 75.28 145.08 71.83 145.81 C 72.16 146.39 72.49 146.97 72.83 147.55 C 73.96 149.11 76.63 149.95 76.69 152.04 C 76.92 152.51 77.36 153.46 77.59 153.93 C 79.65 155.33 77.74 157.95 77.63 159.84 C 75.37 162.55 71.54 161.94 68.46 161.40 C 62.40 160.46 60.96 151.45 65.58 147.93 C 66.70 146.93 66.53 146.36 65.05 146.23 C 60.97 145.46 57.27 143.07 53.02 142.93 C 45.85 142.78 38.62 142.58 31.52 143.83 C 30.10 144.07 28.60 144.48 27.75 145.74 C 24.65 149.56 22.26 153.96 20.77 158.65 L 20.52 159.38 C 20.50 159.44 20.45 159.57 20.43 159.63 C 19.61 161.40 19.32 163.60 17.88 164.99 C 17.62 165.44 17.09 166.34 16.82 166.80 L 16.73 167.80 C 16.47 168.26 15.94 169.17 15.67 169.63 C 14.30 175.38 11.17 180.63 10.35 186.58 C 8.37 186.63 6.40 186.67 4.42 186.73 C 6.45 178.29 9.21 169.89 13.64 162.39 C 15.63 159.55 17.20 156.45 18.37 153.19 C 18.80 152.13 19.48 151.19 20.35 150.46 C 21.42 149.72 22.05 148.56 22.15 147.28 C 22.49 146.60 23.16 145.25 23.50 144.57 L 23.55 144.52 C 23.54 144.50 23.54 144.44 23.53 144.41 C 21.82 138.37 25.89 132.36 31.16 129.81 C 32.74 129.43 33.28 131.01 31.97 131.80 C 29.50 133.78 26.55 135.75 26.57 139.34 C 26.49 139.84 26.32 140.85 26.24 141.35 C 29.29 139.85 31.75 137.40 33.61 134.59 C 34.19 133.72 34.66 132.79 35.19 131.90 C 35.66 131.88 36.59 131.84 37.05 131.81 C 36.95 132.50 36.75 133.87 36.65 134.56 L 36.51 135.44 C 34.86 136.88 33.32 138.45 32.08 140.28 C 37.33 139.27 42.68 139.89 47.98 139.68 C 53.84 139.39 59.64 140.79 65.07 142.90 C 66.45 143.30 67.88 144.06 69.35 143.82 C 74.53 142.59 79.74 141.50 85.04 140.97 C 85.69 140.99 87.00 141.04 87.65 141.06 C 92.97 141.78 98.40 141.76 103.63 143.07 L 103.67 143.09 C 109.58 146.34 116.57 146.89 123.07 145.32 L 123.51 145.21 C 126.05 144.60 128.26 143.18 130.41 141.75 C 130.65 141.68 131.14 141.53 131.39 141.46 C 132.66 141.32 133.79 140.67 134.53 139.63 L 134.94 139.21 C 135.40 138.93 136.32 138.38 136.78 138.11 C 138.59 136.23 140.49 134.25 142.91 133.17 C 144.05 132.99 144.77 132.38 145.07 131.34 L 145.36 130.38 L 146.29 130.31 C 147.36 130.23 148.10 129.66 148.53 128.59 L 149.34 127.62 C 149.39 127.59 149.48 127.55 149.52 127.52 L 150.54 127.16 M 66.05 153.97 C 65.70 156.36 68.26 157.31 69.73 158.62 C 71.34 158.59 72.95 158.57 74.56 158.56 C 76.00 154.17 72.36 150.73 68.75 149.00 C 67.76 150.59 66.28 152.03 66.05 153.97 Z" />
</g>
<g id="#60543bcf">
<path fill="#60543b" opacity="0.81" d=" M 116.29 34.22 C 116.83 32.60 117.35 32.60 117.85 34.21 C 117.46 34.21 116.68 34.22 116.29 34.22 Z" />
<path fill="#60543b" opacity="0.81" d=" M 98.78 34.76 C 101.23 36.87 103.79 39.37 107.34 38.40 C 105.92 38.90 104.46 39.37 102.94 39.39 C 101.04 38.40 100.06 36.37 98.78 34.76 Z" />
<path fill="#60543b" opacity="0.81" d=" M 89.01 82.23 C 89.74 84.50 91.95 85.14 94.06 85.59 C 93.05 85.83 92.03 86.06 91.02 86.28 C 90.64 88.33 90.13 90.35 89.51 92.34 C 92.01 92.83 94.50 93.40 96.98 94.02 C 95.55 91.85 95.25 89.28 96.70 87.07 C 96.59 88.66 96.34 90.28 96.67 91.86 C 98.05 94.10 100.27 95.63 102.12 97.45 C 99.67 96.78 97.35 95.74 95.18 94.43 C 94.89 94.47 94.30 94.57 94.00 94.61 C 91.64 93.81 88.86 92.97 86.59 94.50 C 80.04 98.35 75.84 107.81 80.69 114.54 C 80.49 114.88 80.11 115.55 79.91 115.88 C 78.55 113.06 77.49 110.12 76.31 107.22 C 75.88 110.11 73.54 110.78 71.10 110.50 C 72.47 109.98 73.83 109.48 75.20 108.97 C 75.21 107.72 75.23 106.47 75.26 105.23 C 75.94 105.66 76.62 106.10 77.29 106.55 C 77.84 104.27 78.63 102.06 79.58 99.92 C 76.61 99.71 74.13 98.03 71.95 96.13 C 72.64 96.00 73.32 95.87 74.00 95.74 C 75.45 97.70 77.74 98.50 80.02 99.03 C 82.29 96.13 85.06 93.58 88.56 92.29 C 89.78 89.08 90.09 85.53 89.01 82.23 Z" />
<path fill="#60543b" opacity="0.81" d=" M 165.90 101.18 C 173.35 94.96 183.79 94.66 193.05 94.90 C 195.28 95.36 198.31 95.21 199.60 97.38 C 193.26 95.28 186.52 95.60 179.96 96.05 C 174.88 96.42 170.48 99.25 165.90 101.18 Z" />
<path fill="#60543b" opacity="0.81" d=" M 199.71 97.42 C 203.07 97.95 206.29 99.36 208.59 101.93 C 208.19 102.55 207.37 103.77 206.97 104.38 C 206.98 103.55 206.99 101.90 207.00 101.07 C 204.62 99.76 202.19 98.53 199.71 97.42 Z" />
<path fill="#60543b" opacity="0.81" d=" M 175.30 99.25 C 182.47 98.64 190.12 96.69 197.01 99.69 C 192.73 98.61 188.29 98.90 183.93 98.95 C 180.27 98.91 176.96 100.77 173.33 100.92 C 173.82 100.51 174.81 99.67 175.30 99.25 Z" />
<path fill="#60543b" opacity="0.81" d=" M 202.81 101.88 C 204.10 102.00 205.42 102.47 206.22 103.57 C 205.10 104.47 202.39 103.46 202.81 101.88 Z" />
<path fill="#60543b" opacity="0.81" d=" M 148.03 103.58 C 148.09 105.06 147.31 106.32 146.48 107.50 C 149.39 107.35 152.87 106.89 155.17 109.16 C 146.86 105.29 139.01 111.44 131.81 114.90 C 135.63 111.61 140.62 110.22 144.69 107.28 C 137.45 106.92 130.54 109.28 123.41 109.90 C 123.50 109.64 123.67 109.11 123.75 108.85 C 126.37 108.88 128.94 108.39 131.47 107.74 C 134.87 106.90 138.40 107.51 141.84 106.97 C 144.19 106.48 146.09 104.89 148.03 103.58 Z" />
<path fill="#60543b" opacity="0.81" d=" M 158.17 109.36 C 159.09 106.62 160.80 104.11 163.38 102.70 C 161.69 104.95 160.01 107.22 158.17 109.36 Z" />
<path fill="#60543b" opacity="0.81" d=" M 162.11 109.04 C 163.40 106.75 165.13 104.68 167.63 103.67 C 166.15 105.79 164.47 107.87 162.11 109.04 Z" />
<path fill="#60543b" opacity="0.81" d=" M 38.80 109.38 C 39.02 109.41 39.48 109.49 39.71 109.53 C 40.09 109.58 40.86 109.70 41.25 109.76 C 38.27 113.78 35.17 117.82 33.27 122.49 C 32.44 124.59 31.64 127.36 33.69 129.08 L 33.73 129.27 C 33.22 129.03 32.20 128.57 31.69 128.33 C 30.29 125.07 31.66 121.41 32.91 118.29 C 35.05 115.44 36.93 112.41 38.80 109.38 Z" />
<path fill="#60543b" opacity="0.81" d=" M 145.14 111.26 C 147.62 110.14 150.43 110.68 152.91 111.52 C 147.19 110.33 142.16 113.83 137.17 116.03 C 133.79 118.21 130.68 120.87 127.98 123.87 C 128.50 124.45 129.53 125.59 130.04 126.17 C 129.20 125.45 128.44 124.68 127.73 123.84 C 127.56 122.53 128.85 121.71 129.57 120.80 C 133.91 116.42 139.57 113.72 145.14 111.26 Z" />
<path fill="#60543b" opacity="0.81" d=" M 158.45 116.18 C 159.43 113.96 160.45 111.75 161.72 109.67 C 160.76 112.02 159.84 114.39 159.26 116.87 C 156.23 118.17 154.64 115.31 154.03 112.82 C 155.20 114.30 156.62 115.59 158.45 116.18 Z" />
<path fill="#60543b" opacity="0.81" d=" M 50.35 116.18 C 52.06 114.95 53.70 113.63 55.26 112.22 C 57.99 114.67 56.06 117.73 53.93 119.73 C 52.71 118.57 51.52 117.39 50.35 116.18 Z" />
<path fill="#60543b" opacity="0.81" d=" M 110.57 120.72 C 114.46 118.96 118.77 118.66 122.86 117.60 C 122.04 117.92 120.40 118.58 119.58 118.91 C 121.08 119.81 122.60 120.70 124.10 121.62 C 124.71 121.12 125.94 120.11 126.55 119.61 C 126.17 120.28 125.40 121.62 125.02 122.30 C 120.58 119.65 115.48 119.57 110.57 120.72 Z" />
<path fill="#60543b" opacity="0.81" d=" M 106.44 125.79 C 109.25 123.58 112.71 122.97 116.21 122.99 C 112.84 123.53 109.54 124.37 106.44 125.79 Z" />
<path fill="#60543b" opacity="0.81" d=" M 118.20 122.76 C 119.51 122.43 120.91 122.87 121.84 123.85 C 120.86 124.84 118.21 124.30 118.20 122.76 Z" />
<path fill="#60543b" opacity="0.81" d=" M 156.06 125.26 C 160.11 125.05 164.21 123.75 168.23 124.89 C 169.89 125.33 171.62 125.27 173.33 125.28 L 173.35 126.06 C 165.77 124.84 158.01 125.61 150.54 127.16 C 152.25 126.22 154.05 125.29 156.06 125.26 Z" />
<path fill="#60543b" opacity="0.81" d=" M 122.87 124.74 L 123.83 125.59 C 123.49 127.15 123.04 128.68 122.61 130.21 C 124.68 132.52 127.72 133.17 130.44 131.53 C 130.86 130.08 130.98 128.57 131.19 127.08 C 132.24 128.13 132.33 129.54 132.24 130.95 C 130.67 131.75 129.11 132.58 127.57 133.44 C 126.45 133.50 125.33 133.56 124.21 133.63 C 121.80 131.22 122.65 127.75 122.87 124.74 Z" />
<path fill="#60543b" opacity="0.81" d=" M 149.34 127.62 C 149.39 127.59 149.48 127.55 149.52 127.52 C 149.48 127.55 149.39 127.59 149.34 127.62 Z" />
<path fill="#60543b" opacity="0.81" d=" M 146.29 130.31 C 146.17 128.63 146.92 128.06 148.53 128.59 C 148.10 129.66 147.36 130.23 146.29 130.31 Z" />
<path fill="#60543b" opacity="0.81" d=" M 146.68 133.95 C 150.23 129.86 155.72 128.00 161.04 128.27 C 166.14 128.47 171.72 127.61 176.26 130.50 C 170.33 128.82 164.14 128.07 157.99 128.66 C 156.01 129.41 154.06 130.32 151.90 130.46 C 150.21 131.69 148.51 132.92 146.68 133.95 Z" />
<path fill="#60543b" opacity="0.81" d=" M 126.08 129.26 C 126.48 129.29 127.28 129.33 127.68 129.35 C 127.07 130.92 126.53 130.89 126.08 129.26 Z" />
<path fill="#60543b" opacity="0.81" d=" M 37.05 131.81 C 41.95 133.24 47.19 133.12 52.05 131.60 C 51.83 131.93 51.40 132.60 51.18 132.93 C 52.82 132.65 54.46 132.37 56.07 132.01 C 53.90 132.89 51.71 133.76 49.44 134.34 C 45.19 134.99 40.90 134.04 36.65 134.56 C 36.75 133.87 36.95 132.50 37.05 131.81 Z" />
<path fill="#60543b" opacity="0.81" d=" M 142.91 133.17 C 142.69 131.54 143.41 130.93 145.07 131.34 C 144.77 132.38 144.05 132.99 142.91 133.17 Z" />
<path fill="#60543b" opacity="0.81" d=" M 28.02 139.98 C 29.04 137.45 31.15 135.65 33.61 134.59 C 31.75 137.40 29.29 139.85 26.24 141.35 C 26.32 140.85 26.49 139.84 26.57 139.34 C 26.93 139.50 27.66 139.82 28.02 139.98 Z" />
<path fill="#60543b" opacity="0.81" d=" M 139.54 139.91 C 141.33 138.34 143.16 136.81 145.08 135.39 C 143.96 137.64 141.74 138.93 139.54 139.91 Z" />
<path fill="#60543b" opacity="0.81" d=" M 134.98 138.29 L 135.94 137.72 L 136.78 138.11 C 136.32 138.38 135.40 138.93 134.94 139.21 L 134.98 138.29 Z" />
<path fill="#60543b" opacity="0.81" d=" M 131.39 141.46 C 130.77 139.89 133.41 138.64 134.53 139.63 C 133.79 140.67 132.66 141.32 131.39 141.46 Z" />
<path fill="#60543b" opacity="0.81" d=" M 69.35 143.82 C 74.36 140.92 80.41 142.12 85.59 139.70 L 85.04 140.97 C 79.74 141.50 74.53 142.59 69.35 143.82 Z" />
<path fill="#60543b" opacity="0.81" d=" M 132.00 144.41 C 134.31 142.77 136.75 141.34 139.29 140.09 C 137.29 142.13 134.88 143.94 132.00 144.41 Z" />
<path fill="#60543b" opacity="0.81" d=" M 87.65 141.06 C 90.79 140.90 93.87 141.72 97.01 141.58 C 99.30 141.52 101.81 141.40 103.63 143.07 C 98.40 141.76 92.97 141.78 87.65 141.06 Z" />
<path fill="#60543b" opacity="0.81" d=" M 123.51 145.21 C 125.59 143.67 127.91 142.47 130.41 141.75 C 128.26 143.18 126.05 144.60 123.51 145.21 Z" />
<path fill="#60543b" opacity="0.81" d=" M 103.67 143.09 C 106.14 143.64 108.48 144.66 110.94 145.22 C 114.98 145.47 119.03 145.35 123.07 145.32 C 116.57 146.89 109.58 146.34 103.67 143.09 Z" />
<path fill="#60543b" opacity="0.81" d=" M 23.53 144.41 C 23.54 144.44 23.54 144.50 23.55 144.52 L 23.50 144.57 L 23.53 144.41 Z" />
<path fill="#60543b" opacity="0.81" d=" M 27.75 145.74 C 28.60 144.48 30.10 144.07 31.52 143.83 C 30.27 144.58 28.99 145.27 27.70 145.92 C 25.56 150.25 23.62 154.71 20.77 158.65 C 22.26 153.96 24.65 149.56 27.75 145.74 Z" />
<path fill="#60543b" opacity="0.81" d=" M 71.83 145.81 C 75.28 145.08 78.76 144.50 82.29 144.29 C 79.01 145.13 75.66 145.56 72.35 146.23 C 72.47 146.56 72.71 147.22 72.83 147.55 C 72.49 146.97 72.16 146.39 71.83 145.81 Z" />
<path fill="#60543b" opacity="0.81" d=" M 103.99 146.70 C 112.87 149.76 123.19 149.62 131.41 144.77 C 127.16 148.99 120.76 149.67 115.07 149.43 C 111.20 149.56 107.42 148.42 103.99 146.70 Z" />
<path fill="#60543b" opacity="0.81" d=" M 65.05 146.23 C 66.53 146.36 66.70 146.93 65.58 147.93 C 65.45 147.50 65.18 146.65 65.05 146.23 Z" />
<path fill="#60543b" opacity="0.81" d=" M 20.35 150.46 C 19.44 149.35 20.60 146.62 22.15 147.28 C 22.05 148.56 21.42 149.72 20.35 150.46 Z" />
<path fill="#60543b" opacity="0.81" d=" M 76.69 152.04 L 77.59 152.17 L 78.05 153.14 L 77.59 153.93 C 77.36 153.46 76.92 152.51 76.69 152.04 Z" />
<path fill="#60543b" opacity="0.81" d=" M 13.64 162.39 C 14.75 159.13 15.73 155.59 18.37 153.19 C 17.20 156.45 15.63 159.55 13.64 162.39 Z" />
<path fill="#60543b" opacity="0.81" d=" M 20.43 159.63 C 20.45 159.57 20.50 159.44 20.52 159.38 C 20.50 159.44 20.45 159.57 20.43 159.63 Z" />
<path fill="#60543b" opacity="0.81" d=" M 16.82 166.80 C 17.09 166.34 17.62 165.44 17.88 164.99 L 18.28 165.81 L 17.73 166.73 L 16.82 166.80 Z" />
<path fill="#60543b" opacity="0.81" d=" M 15.67 169.63 C 15.94 169.17 16.47 168.26 16.73 167.80 L 17.12 168.63 L 16.57 169.56 L 15.67 169.63 Z" />
</g>
<g id="#d19812ff">
<path fill="#d19812" opacity="1.00" d=" M 71.02 59.07 C 73.78 56.65 75.88 53.22 79.43 51.88 C 76.26 55.04 74.40 59.15 71.49 62.50 C 70.06 63.89 70.39 66.05 70.02 67.83 C 71.33 66.84 72.65 65.84 73.95 64.83 C 78.97 63.07 83.13 58.84 88.58 58.55 C 87.73 59.82 86.86 61.09 85.99 62.36 C 88.34 63.50 90.50 61.58 92.61 60.76 C 96.35 59.28 99.69 55.99 103.99 56.59 C 107.98 57.54 111.95 58.72 116.06 59.12 C 120.69 58.05 125.34 56.99 129.99 55.98 C 131.99 55.37 133.91 56.89 133.62 58.98 C 130.89 59.60 128.27 60.59 125.75 61.80 C 122.68 62.86 119.89 64.56 117.59 66.85 C 117.53 67.21 117.42 67.92 117.36 68.27 C 124.35 71.46 131.53 67.63 137.92 64.80 C 145.39 62.22 153.17 60.50 161.05 59.82 C 163.48 60.22 166.31 60.48 167.66 62.88 C 167.30 63.49 166.58 64.72 166.22 65.33 C 165.07 65.46 163.93 65.58 162.80 65.69 C 154.25 68.49 146.12 73.59 141.38 81.43 C 140.09 83.68 137.25 83.55 135.03 83.91 C 133.04 84.42 131.06 84.91 129.07 85.41 C 129.12 85.84 129.20 86.69 129.24 87.12 C 131.55 87.45 133.74 88.30 135.89 89.21 C 138.61 89.41 141.34 89.60 144.06 89.24 C 144.02 91.99 140.83 92.32 139.01 93.58 C 144.40 93.99 149.98 93.96 154.81 91.21 C 154.50 93.89 152.79 96.10 151.23 98.19 C 149.13 99.90 146.38 100.38 143.81 100.91 C 145.13 101.92 146.55 102.79 148.03 103.58 C 146.09 104.89 144.19 106.48 141.84 106.97 C 138.40 107.51 134.87 106.90 131.47 107.74 C 128.94 108.39 126.37 108.88 123.75 108.85 C 123.67 109.11 123.50 109.64 123.41 109.90 C 121.15 111.10 118.65 111.62 116.13 111.98 C 118.61 113.91 122.06 114.47 123.89 117.19 L 122.86 117.60 C 118.77 118.66 114.46 118.96 110.57 120.72 C 107.56 121.96 104.99 124.02 102.35 125.88 C 101.80 126.29 101.26 126.70 100.72 127.13 C 97.91 127.97 95.12 128.86 92.36 129.85 C 92.38 130.16 92.43 130.77 92.45 131.08 C 93.70 132.00 94.84 133.06 95.89 134.20 C 93.17 134.72 90.46 135.31 87.75 135.86 C 88.49 137.10 88.79 138.44 88.24 139.81 C 83.96 138.08 79.25 139.30 74.84 138.22 C 71.03 136.92 69.07 132.60 65.11 131.62 C 63.47 131.10 61.17 131.88 60.14 130.12 C 67.44 126.41 74.88 122.74 81.14 117.36 C 85.89 120.28 91.79 122.04 97.23 120.05 C 100.79 118.16 103.51 114.90 105.60 111.52 C 107.91 106.57 105.33 101.23 102.70 96.98 C 105.71 98.79 108.87 100.49 112.40 101.00 C 111.59 96.87 106.89 96.19 103.91 94.14 C 106.10 93.24 108.58 92.75 110.30 91.01 C 108.08 90.57 105.87 90.08 103.69 89.48 C 101.96 86.62 100.68 83.44 101.52 80.06 C 100.72 79.24 99.92 78.42 99.12 77.60 C 99.34 76.54 99.55 75.47 99.77 74.41 C 96.01 74.80 92.23 74.72 88.46 74.67 C 87.37 70.98 85.99 66.88 81.73 65.93 C 81.74 66.67 81.74 68.16 81.74 68.90 C 78.28 67.83 74.68 67.26 71.05 67.54 C 68.77 70.52 66.28 73.49 65.16 77.15 C 64.05 80.69 64.63 84.45 65.02 88.07 C 57.74 94.61 49.67 100.18 42.33 106.65 C 42.13 106.09 41.73 104.97 41.53 104.42 L 41.33 103.86 C 42.80 102.07 45.02 100.62 45.41 98.16 C 46.15 94.77 48.54 92.11 51.23 90.06 C 52.11 86.93 53.38 83.95 55.16 81.23 C 58.57 72.69 65.20 66.02 71.02 59.07 Z" />
</g>
<g id="#fbfcf7ff">
<path fill="#fbfcf7" opacity="1.00" d=" M 69.33 71.41 C 73.42 68.32 78.71 69.29 82.91 71.66 C 84.42 75.48 88.11 78.02 89.01 82.23 C 90.09 85.53 89.78 89.08 88.56 92.29 C 85.06 93.58 82.29 96.13 80.02 99.03 C 77.74 98.50 75.45 97.70 74.00 95.74 C 74.75 95.60 76.23 95.31 76.97 95.17 C 81.65 91.53 83.78 84.94 81.41 79.37 C 80.08 74.07 74.71 70.67 69.33 71.41 Z" />
<path fill="#fbfcf7" opacity="1.00" d=" M 68.27 76.19 C 71.25 73.09 77.42 77.07 75.13 81.05 C 73.57 84.02 70.06 84.00 67.58 82.21 C 66.84 80.20 66.20 77.70 68.27 76.19 Z" />
<path fill="#fbfcf7" opacity="1.00" d=" M 89.19 76.69 C 91.72 76.40 94.28 76.26 96.81 76.55 C 97.68 77.80 98.60 79.01 99.52 80.23 C 99.57 81.77 99.62 83.31 99.64 84.85 C 98.58 85.48 97.60 86.22 96.70 87.07 C 95.25 89.28 95.55 91.85 96.98 94.02 C 94.50 93.40 92.01 92.83 89.51 92.34 C 90.13 90.35 90.64 88.33 91.02 86.28 C 92.03 86.06 93.05 85.83 94.06 85.59 C 95.31 84.20 99.27 82.37 96.30 80.40 C 95.08 81.50 93.88 82.62 92.67 83.73 C 91.27 81.51 90.19 79.11 89.19 76.69 Z" />
<path fill="#fbfcf7" opacity="1.00" d=" M 68.63 87.35 C 67.41 84.79 70.19 85.63 71.39 85.21 C 71.38 85.83 71.36 87.09 71.35 87.71 C 70.44 87.62 69.53 87.50 68.63 87.35 Z" />
<path fill="#fbfcf7" opacity="1.00" d=" M 98.43 89.97 C 98.49 88.47 99.71 87.42 100.44 86.20 C 101.52 88.31 102.93 90.21 104.57 91.91 C 103.74 92.79 102.90 93.64 102.08 94.53 C 100.69 93.22 98.00 92.30 98.43 89.97 Z" />
<path fill="#fbfcf7" opacity="1.00" d=" M 41.25 109.76 C 48.96 102.25 57.74 95.96 66.12 89.25 C 68.43 91.21 69.89 93.94 71.95 96.13 C 74.13 98.03 76.61 99.71 79.58 99.92 C 78.63 102.06 77.84 104.27 77.29 106.55 C 76.62 106.10 75.94 105.66 75.26 105.23 C 73.24 103.03 70.59 104.65 69.22 106.58 C 69.85 107.89 70.47 109.19 71.10 110.50 C 73.54 110.78 75.88 110.11 76.31 107.22 C 77.49 110.12 78.55 113.06 79.91 115.88 C 79.77 116.14 79.48 116.64 79.34 116.90 C 71.37 123.60 61.69 127.90 52.05 131.60 C 47.19 133.12 41.95 133.24 37.05 131.81 C 36.59 131.84 35.66 131.88 35.19 131.90 L 34.86 131.93 C 34.57 131.26 34.01 129.93 33.73 129.27 L 33.69 129.08 C 31.64 127.36 32.44 124.59 33.27 122.49 C 35.17 117.82 38.27 113.78 41.25 109.76 M 65.38 96.50 C 61.82 97.98 64.27 103.99 67.97 102.26 C 71.70 100.78 69.23 94.48 65.38 96.50 M 58.59 103.40 C 54.83 107.37 50.95 111.41 45.92 113.74 C 42.93 115.89 38.46 118.57 39.63 122.92 C 40.88 125.96 43.76 127.89 46.96 128.37 C 48.03 128.00 49.11 127.65 50.20 127.32 C 53.19 125.30 56.63 123.44 58.16 119.98 C 59.50 117.20 61.90 115.22 63.97 113.02 C 63.67 112.55 63.06 111.61 62.75 111.14 C 63.47 107.10 57.92 108.02 58.24 104.24 C 60.39 104.76 62.37 105.73 64.22 106.93 C 64.77 108.72 65.27 110.53 65.70 112.36 C 67.03 109.22 66.69 105.87 64.14 103.50 C 62.30 103.28 60.44 103.23 58.59 103.40 Z" />
<path fill="#fbfcf7" opacity="1.00" d=" M 86.59 94.50 C 88.86 92.97 91.64 93.81 94.00 94.61 C 90.50 96.49 87.69 99.40 85.97 102.98 C 84.63 106.29 84.29 109.86 85.62 113.24 C 86.75 114.92 87.77 116.66 88.82 118.40 C 89.64 118.64 91.29 119.11 92.12 119.35 C 87.76 120.26 83.12 118.26 80.69 114.54 C 75.84 107.81 80.04 98.35 86.59 94.50 Z" />
<path fill="#fbfcf7" opacity="1.00" d=" M 97.24 99.03 C 100.53 96.75 105.29 101.58 103.08 104.85 C 102.11 107.27 98.98 107.06 96.92 106.41 C 94.47 104.90 94.53 100.22 97.24 99.03 Z" />
<path fill="#fbfcf7" opacity="1.00" d=" M 97.51 108.52 C 98.81 108.57 100.30 108.48 100.80 109.98 C 100.15 110.57 99.50 111.16 98.86 111.76 C 97.99 110.87 97.56 109.76 97.51 108.52 Z" />
<path fill="#fbfcf7" opacity="1.00" d=" M 41.74 118.20 C 43.50 116.04 48.61 113.75 48.95 118.13 C 46.71 118.56 41.89 118.65 43.66 122.13 C 45.87 124.26 49.07 122.54 51.69 122.46 C 51.93 126.41 47.45 126.27 44.71 126.40 C 42.69 124.17 40.44 121.41 41.74 118.20 Z" />
</g>
</svg>
