<?xml version="1.0" encoding="UTF-8" ?>
<!DOCTYPE svg PUBLIC "-//W3C//DTD SVG 1.1//EN" "http://www.w3.org/Graphics/SVG/1.1/DTD/svg11.dtd">
<svg width="210pt" height="220pt" viewBox="0 0 210 220" version="1.1" xmlns="http://www.w3.org/2000/svg">
<g id="#d2d2d2ff">
<path fill="#d2d2d2" opacity="1.00" d=" M 82.33 0.00 L 82.84 0.00 C 83.10 0.38 83.63 1.13 83.90 1.51 C 88.06 1.18 92.26 1.07 96.38 1.81 C 88.67 1.95 81.00 2.57 73.54 4.64 C 75.48 3.79 77.41 2.92 79.32 2.00 L 77.08 2.20 C 78.93 1.76 80.80 1.19 82.33 0.00 Z" />
<path fill="#d2d2d2" opacity="1.00" d=" M 47.48 33.60 C 50.78 24.78 56.25 16.69 63.48 10.62 C 65.14 14.32 67.11 18.04 70.66 20.26 C 70.40 18.60 70.12 16.95 69.88 15.30 C 73.48 17.62 75.00 21.69 76.51 25.49 C 78.10 25.94 79.69 26.39 81.29 26.83 C 78.32 29.63 75.53 32.92 75.55 37.25 C 74.55 37.71 73.56 38.22 72.61 38.78 C 69.86 38.10 67.46 40.32 66.72 42.82 C 66.35 42.60 65.62 42.14 65.26 41.91 C 65.11 41.73 64.81 41.37 64.66 41.19 C 65.43 43.79 63.82 45.86 62.63 48.00 C 61.85 50.85 64.16 53.12 65.73 55.16 C 65.35 55.58 64.57 56.41 64.19 56.83 C 64.54 57.33 65.26 58.32 65.62 58.82 C 65.62 60.84 65.65 62.86 65.65 64.88 C 64.15 67.02 62.96 69.46 63.48 72.16 C 61.69 72.60 59.66 74.62 57.91 73.11 C 57.59 71.91 57.45 70.68 57.26 69.45 C 51.78 66.49 46.04 64.02 40.62 60.93 C 41.86 51.60 44.14 42.40 47.48 33.60 Z" />
<path fill="#d2d2d2" opacity="1.00" d=" M 132.95 26.44 C 133.26 26.37 133.89 26.22 134.20 26.15 C 134.11 27.38 134.01 28.61 133.92 29.84 C 132.72 29.98 131.52 30.10 130.32 30.30 C 129.94 30.37 129.17 30.50 128.78 30.57 C 127.99 31.48 127.25 32.44 126.51 33.39 C 125.27 32.37 124.03 31.35 122.72 30.42 C 125.22 29.59 127.68 28.65 130.16 27.77 C 130.36 28.37 130.75 29.57 130.94 30.16 C 131.59 28.91 132.26 27.67 132.95 26.44 Z" />
<path fill="#d2d2d2" opacity="1.00" d=" M 100.00 27.69 C 102.85 28.97 105.71 30.28 108.17 32.25 C 108.49 32.48 109.14 32.93 109.47 33.16 C 107.09 34.03 104.65 34.70 102.21 35.38 C 101.79 32.73 101.01 30.16 100.00 27.69 Z" />
<path fill="#d2d2d2" opacity="1.00" d=" M 104.40 43.32 C 106.19 41.63 107.45 38.97 110.22 38.85 C 109.89 41.13 106.53 44.34 110.44 45.35 C 112.56 46.62 114.91 47.63 117.43 47.50 C 119.87 47.42 122.21 46.71 124.51 45.96 C 124.85 46.45 125.52 47.41 125.85 47.89 C 126.98 47.60 128.11 47.31 129.21 46.91 C 129.88 45.32 129.46 43.60 129.34 41.96 C 131.60 43.93 134.04 46.10 137.16 46.48 C 139.73 46.70 142.21 45.81 144.68 45.22 C 144.70 46.69 144.73 48.17 144.78 49.64 C 144.60 49.97 144.26 50.64 144.09 50.98 C 142.52 51.14 140.96 51.30 139.41 51.52 C 140.40 52.49 141.78 52.66 143.09 52.77 C 143.53 53.59 144.42 55.23 144.87 56.05 C 143.99 56.55 143.11 57.05 142.23 57.54 C 144.31 61.70 145.34 66.26 146.22 70.80 C 146.84 74.31 147.00 78.08 145.23 81.31 C 142.19 78.68 139.55 75.15 139.68 70.93 C 139.82 65.24 140.78 59.51 139.43 53.87 C 137.97 53.52 136.92 52.50 135.91 51.48 C 136.44 51.30 137.52 50.95 138.05 50.78 C 137.76 50.05 137.17 48.59 136.87 47.86 C 136.41 48.43 135.48 49.58 135.02 50.16 C 134.80 49.66 134.35 48.68 134.12 48.18 C 132.52 48.25 130.92 48.32 129.33 48.39 C 128.17 49.69 126.89 50.88 125.41 51.80 C 125.58 52.17 125.94 52.92 126.12 53.29 C 125.18 53.52 124.23 53.68 123.27 53.75 C 122.93 53.27 122.25 52.33 121.92 51.85 C 121.43 51.74 120.46 51.53 119.97 51.42 C 121.15 52.91 122.33 54.41 123.45 55.95 C 121.97 57.65 119.90 58.63 117.97 59.72 C 116.22 56.13 116.60 52.28 117.78 48.59 C 116.39 50.41 115.42 52.50 115.02 54.75 C 114.74 53.48 114.42 52.20 114.11 50.93 C 111.30 49.28 108.28 48.01 105.05 47.48 C 103.54 47.44 100.92 45.86 102.23 44.19 C 102.77 43.98 103.86 43.54 104.40 43.32 Z" />
<path fill="#d2d2d2" opacity="1.00" d=" M 94.85 47.65 C 97.65 47.36 102.57 44.26 103.06 49.15 C 100.31 50.18 95.55 52.24 94.85 47.65 Z" />
<path fill="#d2d2d2" opacity="1.00" d=" M 74.15 48.64 C 75.37 47.73 77.17 49.88 75.89 50.83 C 74.94 50.89 73.32 49.64 74.15 48.64 Z" />
<path fill="#d2d2d2" opacity="1.00" d=" M 65.73 52.42 C 68.40 51.99 71.08 50.81 73.80 51.23 C 74.58 52.28 74.32 53.25 73.03 54.14 C 72.48 54.10 71.38 54.01 70.83 53.97 C 72.19 54.80 73.57 55.61 74.95 56.43 C 73.69 58.44 72.42 60.47 71.63 62.72 C 70.31 60.91 68.59 59.49 66.62 58.46 C 66.60 57.83 66.57 56.56 66.55 55.93 C 67.73 56.10 68.90 56.27 70.08 56.43 C 68.63 55.10 67.13 53.81 65.73 52.42 Z" />
<path fill="#d2d2d2" opacity="1.00" d=" M 74.85 58.72 C 75.96 59.48 77.08 60.24 78.21 60.97 C 79.94 61.82 78.10 63.92 77.96 65.26 C 77.74 65.81 77.28 66.90 77.06 67.44 C 76.01 67.09 74.96 66.75 73.91 66.40 C 73.73 68.07 73.55 69.74 73.42 71.42 C 72.49 67.12 73.36 62.78 74.85 58.72 Z" />
<path fill="#d2d2d2" opacity="1.00" d=" M 90.11 61.64 C 90.94 61.73 92.59 61.91 93.42 61.99 C 92.57 64.50 91.82 67.03 91.08 69.57 C 90.19 69.76 89.31 69.96 88.41 70.13 C 87.13 70.30 85.85 70.47 84.56 70.64 C 84.50 71.14 84.37 72.13 84.31 72.63 C 86.17 72.72 88.03 72.79 89.89 72.87 C 87.51 76.75 85.74 82.24 80.92 83.57 C 76.89 81.11 74.99 76.53 73.54 72.26 C 76.36 71.65 79.24 71.30 82.13 71.30 C 82.66 68.85 83.12 66.39 83.54 63.91 C 85.28 64.97 86.90 66.46 88.95 66.82 C 91.97 67.01 89.90 63.37 90.11 61.64 Z" />
<path fill="#d2d2d2" opacity="1.00" d=" M 40.30 65.59 C 42.23 66.13 44.15 66.68 46.07 67.22 C 45.09 67.76 44.11 68.29 43.12 68.83 C 43.91 69.68 44.69 70.52 45.48 71.37 C 43.98 73.65 42.02 76.19 43.56 79.00 C 41.28 81.53 40.18 84.83 40.44 88.23 C 40.02 89.88 39.60 91.53 39.22 93.19 C 38.58 85.98 39.44 78.76 39.53 71.55 C 40.63 71.24 41.73 70.94 42.83 70.64 C 42.16 70.72 40.81 70.90 40.14 70.99 C 40.18 69.19 40.23 67.39 40.30 65.59 Z" />
<path fill="#d2d2d2" opacity="1.00" d=" M 63.64 73.57 C 64.10 71.24 64.51 68.88 65.50 66.71 C 66.58 69.03 67.68 71.33 68.63 73.71 C 68.28 75.32 67.94 76.93 67.60 78.54 L 67.55 78.53 C 67.23 77.17 66.96 75.79 66.69 74.43 C 65.67 74.21 64.67 73.99 63.66 73.76 L 63.64 73.57 Z" />
<path fill="#d2d2d2" opacity="1.00" d=" M 143.15 87.26 C 143.03 85.01 144.09 83.09 145.84 81.74 C 145.54 83.82 144.67 85.78 143.15 87.26 Z" />
<path fill="#d2d2d2" opacity="1.00" d=" M 57.19 88.18 C 60.68 87.95 57.03 92.32 56.29 89.17 C 56.51 88.92 56.97 88.43 57.19 88.18 Z" />
<path fill="#d2d2d2" opacity="1.00" d=" M 57.49 91.19 C 61.50 92.28 59.88 97.76 62.96 100.02 C 67.37 105.54 74.79 104.30 80.95 105.38 C 82.48 105.16 86.16 102.58 84.88 105.79 C 82.15 107.75 78.72 108.31 75.61 109.44 C 79.46 112.09 84.01 111.29 88.23 110.24 C 86.43 112.11 84.55 113.89 82.59 115.60 C 81.73 114.92 80.85 114.28 79.95 113.67 C 80.44 114.90 80.93 116.13 81.51 117.33 C 77.48 120.33 79.35 125.61 80.31 129.64 C 76.67 128.92 75.85 125.32 76.33 122.16 C 75.52 121.45 74.71 120.75 73.90 120.04 C 73.73 118.55 73.66 117.04 73.31 115.57 C 71.08 113.75 68.08 112.78 66.56 110.18 C 64.32 106.75 62.81 102.87 60.23 99.65 C 58.19 97.30 57.76 94.17 57.49 91.19 Z" />
<path fill="#d2d2d2" opacity="1.00" d=" M 50.09 97.85 C 51.58 95.95 53.61 94.62 55.98 94.12 C 54.54 96.08 52.38 97.18 50.09 97.85 Z" />
<path fill="#d2d2d2" opacity="1.00" d=" M 47.38 98.43 C 48.75 97.62 51.03 99.32 50.50 100.85 C 49.20 101.81 46.39 99.98 47.38 98.43 Z" />
<path fill="#d2d2d2" opacity="1.00" d=" M 103.10 103.83 C 107.36 97.77 118.47 95.03 123.26 101.83 C 125.57 106.86 124.43 112.74 125.36 118.10 C 123.56 119.08 121.17 119.76 120.88 122.16 C 122.37 121.34 123.78 120.37 125.20 119.43 C 125.59 122.09 126.26 124.71 127.13 127.25 C 126.92 127.91 126.49 129.23 126.28 129.89 C 124.85 129.92 123.43 130.01 122.01 130.10 C 121.83 131.80 121.66 133.51 121.47 135.22 C 120.78 133.18 120.57 131.11 122.10 129.33 C 119.21 130.96 118.51 127.55 116.82 126.17 C 115.14 124.59 112.74 124.60 110.59 124.72 C 108.87 122.00 109.36 116.50 105.33 116.16 C 106.63 119.13 107.75 122.17 108.70 125.26 C 106.74 126.66 106.43 129.69 104.53 130.84 C 100.39 124.60 98.15 117.25 97.13 109.89 C 96.93 106.33 101.88 106.69 103.10 103.83 Z" />
<path fill="#d2d2d2" opacity="1.00" d=" M 139.97 110.89 C 140.92 110.15 141.69 109.05 142.94 108.80 C 144.47 109.47 145.65 110.70 146.87 111.81 C 145.42 114.45 144.18 117.20 143.14 120.03 C 142.40 116.88 141.44 113.77 139.97 110.89 Z" />
<path fill="#d2d2d2" opacity="1.00" d=" M 81.19 135.52 C 84.73 131.00 81.11 125.09 82.92 120.01 C 88.70 132.85 88.71 147.84 96.25 159.98 C 99.29 164.32 104.79 168.66 110.37 166.94 C 107.17 165.85 103.60 165.28 101.05 162.87 C 96.50 158.77 94.14 152.86 92.69 147.04 C 94.78 148.49 96.62 150.69 99.25 151.07 C 99.50 148.70 99.52 146.31 99.62 143.93 C 96.90 141.81 95.29 138.83 94.08 135.67 C 93.32 133.69 91.07 135.11 89.73 135.50 C 88.66 130.85 87.32 126.28 85.97 121.71 C 88.62 124.86 88.86 129.14 90.00 132.94 C 92.29 132.91 94.57 132.95 96.86 133.05 C 98.78 135.27 99.89 138.02 101.41 140.50 C 105.18 145.47 109.70 149.99 115.29 152.90 C 114.26 153.63 113.26 154.39 112.28 155.18 C 112.07 155.40 111.64 155.84 111.42 156.06 C 111.23 155.66 110.84 154.88 110.64 154.48 C 110.05 154.38 108.87 154.18 108.29 154.07 C 108.35 155.17 108.42 156.26 108.51 157.35 C 108.52 157.52 108.54 157.85 108.55 158.01 C 109.65 157.69 110.75 157.37 111.86 157.06 C 113.12 155.75 114.39 154.44 115.67 153.14 C 118.19 154.09 120.76 154.91 123.44 155.27 C 123.34 154.99 123.14 154.43 123.04 154.15 C 124.36 154.36 125.67 154.59 126.98 154.79 C 125.65 154.95 124.35 155.29 123.08 155.69 C 124.19 156.00 126.42 156.62 127.53 156.92 C 126.08 159.70 123.28 160.99 120.40 161.80 C 120.16 163.66 119.94 165.52 119.74 167.38 C 122.82 166.84 124.81 164.45 126.62 162.14 C 128.39 164.04 130.64 165.36 133.08 166.22 C 130.88 166.58 127.89 166.52 126.98 169.05 C 126.99 173.93 133.55 172.35 135.82 175.65 C 130.76 175.70 125.83 174.49 120.83 174.02 C 120.26 174.19 119.14 174.52 118.58 174.69 C 126.75 176.81 135.28 177.60 143.69 176.77 L 143.98 177.12 C 143.33 177.81 142.67 178.50 142.02 179.19 C 142.47 179.25 143.37 179.36 143.83 179.42 C 143.73 179.83 143.53 180.66 143.44 181.08 C 142.74 181.66 141.34 182.81 140.64 183.38 C 140.58 182.81 140.47 181.65 140.42 181.08 C 139.16 182.38 137.91 183.70 136.67 185.03 C 132.74 185.31 128.84 185.88 124.92 186.30 C 120.18 186.80 115.65 184.74 111.78 182.19 C 104.59 177.23 97.69 171.71 92.16 164.89 C 84.57 157.14 81.79 146.05 81.19 135.52 M 118.27 156.20 C 117.26 156.75 114.88 157.44 115.90 159.03 C 118.73 159.64 121.60 159.03 124.11 157.66 C 122.46 156.42 120.35 154.99 118.27 156.20 M 108.23 159.18 C 107.03 160.58 109.64 161.75 110.50 160.51 C 111.67 159.10 109.09 157.97 108.23 159.18 M 111.28 163.13 C 110.64 166.28 114.24 165.81 116.23 165.84 C 116.41 166.95 116.59 168.06 116.77 169.17 C 117.77 169.41 118.78 169.65 119.78 169.90 C 119.95 170.64 120.29 172.14 120.46 172.88 C 122.53 173.24 126.41 173.49 125.60 170.27 C 123.93 168.05 121.17 168.44 118.93 169.39 C 117.11 167.46 115.25 164.72 117.48 162.30 C 115.54 162.34 111.50 159.88 111.28 163.13 M 118.97 177.41 C 119.80 180.88 124.27 179.22 126.87 179.70 C 126.84 179.44 126.77 178.92 126.73 178.66 C 124.08 178.72 121.50 178.12 118.97 177.41 Z" />
<path fill="#d2d2d2" opacity="1.00" d=" M 143.88 130.90 C 145.47 131.44 147.12 132.00 148.33 133.23 C 144.24 135.88 140.57 139.11 136.52 141.80 C 136.68 139.59 136.60 137.37 136.11 135.20 C 139.30 135.46 142.74 134.12 143.88 130.90 Z" />
<path fill="#d2d2d2" opacity="1.00" d=" M 149.15 153.66 C 148.64 152.40 150.68 151.22 151.66 152.01 C 152.12 153.24 150.11 154.39 149.15 153.66 Z" />
<path fill="#d2d2d2" opacity="1.00" d=" M 73.02 172.89 C 75.72 173.21 74.38 176.26 74.63 178.06 C 73.83 176.43 73.29 174.69 73.02 172.89 Z" />
<path fill="#d2d2d2" opacity="1.00" d=" M 76.89 184.60 C 74.94 182.25 74.65 178.97 77.40 177.13 C 78.18 178.11 79.00 179.06 79.68 180.12 C 79.48 181.97 77.99 183.24 76.89 184.60 Z" />
<path fill="#d2d2d2" opacity="1.00" d=" M 78.10 186.92 C 78.39 184.98 79.53 182.36 81.73 182.14 C 83.08 184.63 81.72 187.36 81.09 189.84 C 82.00 188.68 82.63 187.14 84.05 186.50 C 86.14 188.13 84.42 190.68 84.17 192.76 C 85.13 191.89 86.09 191.03 87.06 190.17 C 87.81 191.13 88.52 192.11 89.19 193.13 C 89.38 195.45 87.65 197.27 86.50 199.12 C 83.16 195.48 80.21 191.40 78.10 186.92 Z" />
<path fill="#d2d2d2" opacity="1.00" d=" M 91.15 196.40 C 97.85 202.65 105.91 207.41 114.94 209.34 C 126.68 213.49 139.46 212.92 151.44 210.15 C 148.85 215.60 143.19 219.62 137.06 219.61 C 132.64 219.68 128.05 219.98 123.84 218.35 C 119.06 216.58 113.93 216.02 109.19 214.15 C 104.89 212.06 100.65 209.85 96.50 207.46 C 93.78 205.93 91.52 203.55 88.45 202.70 C 89.28 200.57 90.23 198.49 91.15 196.40 Z" />
</g>
<g id="#2b2b2bff">
<path fill="#2b2b2b" opacity="1.00" d=" M 82.84 0.00 L 95.43 0.00 C 103.28 1.73 111.20 4.31 117.59 9.34 C 119.08 10.45 119.90 12.15 120.84 13.70 C 113.85 7.80 105.64 2.86 96.38 1.81 C 92.26 1.07 88.06 1.18 83.90 1.51 C 83.63 1.13 83.10 0.38 82.84 0.00 Z" />
<path fill="#2b2b2b" opacity="1.00" d=" M 53.41 19.32 C 59.45 11.57 67.20 4.35 77.08 2.20 L 79.32 2.00 C 77.41 2.92 75.48 3.79 73.54 4.64 C 69.91 6.12 66.59 8.25 63.48 10.62 C 56.25 16.69 50.78 24.78 47.48 33.60 C 44.14 42.40 41.86 51.60 40.62 60.93 C 40.48 62.48 40.38 64.04 40.30 65.59 C 40.23 67.39 40.18 69.19 40.14 70.99 C 40.81 70.90 42.16 70.72 42.83 70.64 C 41.73 70.94 40.63 71.24 39.53 71.55 C 39.44 78.76 38.58 85.98 39.22 93.19 C 39.34 96.49 40.20 99.70 40.40 102.99 C 40.56 114.03 43.61 124.74 46.40 135.34 C 46.00 136.63 45.53 137.89 45.06 139.16 C 44.44 134.46 43.34 129.84 42.22 125.23 C 42.05 125.73 41.89 126.23 41.74 126.74 C 41.58 122.99 40.59 119.36 39.78 115.72 C 39.01 110.56 39.43 105.32 39.52 100.13 C 39.25 100.84 38.98 101.55 38.71 102.26 C 36.08 88.27 37.50 73.99 38.83 59.94 C 41.60 45.82 44.84 31.23 53.41 19.32 Z" />
<path fill="#2b2b2b" opacity="1.00" d=" M 91.04 6.49 C 93.64 7.03 96.89 8.55 96.52 11.73 C 94.48 10.53 92.77 7.25 90.03 8.55 C 87.83 9.61 87.26 12.48 84.91 13.40 C 85.07 9.82 88.23 7.96 91.04 6.49 Z" />
<path fill="#2b2b2b" opacity="1.00" d=" M 131.07 10.95 C 135.28 9.24 139.33 14.21 138.69 18.25 C 136.61 16.22 136.14 12.65 133.10 11.69 C 132.40 11.93 131.01 12.39 130.31 12.62 C 130.30 14.30 130.29 15.97 130.30 17.65 C 129.87 17.54 129.01 17.34 128.59 17.23 C 128.69 14.89 128.34 11.97 131.07 10.95 Z" />
<path fill="#2b2b2b" opacity="1.00" d=" M 122.38 15.40 C 126.84 17.02 128.77 21.66 130.90 25.50 C 133.34 25.58 135.88 25.15 138.24 25.90 C 141.11 27.42 143.62 29.75 145.21 32.59 C 146.19 35.43 145.72 38.52 145.81 41.47 C 149.28 42.01 153.87 41.54 155.58 45.38 C 158.18 49.28 154.17 53.14 151.95 56.09 C 151.39 60.05 150.27 63.97 150.43 68.00 C 150.39 71.50 150.90 75.21 149.27 78.45 C 147.11 83.12 143.76 87.58 144.39 93.04 C 143.58 99.37 147.07 105.28 151.77 109.23 C 153.74 109.50 156.01 109.05 157.77 110.15 C 161.12 113.03 160.50 118.01 159.44 121.83 C 159.36 123.11 158.21 124.62 159.15 125.79 C 163.21 129.31 168.89 131.35 171.21 136.57 C 173.53 141.51 173.73 148.47 169.34 152.36 C 167.32 154.26 164.24 153.46 161.74 153.81 C 161.58 155.69 161.55 157.68 160.40 159.28 C 160.59 157.02 160.54 154.69 159.13 152.79 C 158.76 153.86 158.02 155.99 157.65 157.05 C 157.18 155.36 157.83 153.77 158.53 152.27 C 156.92 152.44 155.30 152.60 153.69 152.73 C 154.32 152.36 155.58 151.62 156.21 151.25 C 154.18 150.57 152.16 149.09 149.93 149.68 C 146.86 151.04 144.18 153.10 141.26 154.73 C 141.21 155.70 141.13 157.63 141.09 158.60 C 141.84 158.83 143.33 159.28 144.08 159.51 C 142.06 159.18 140.04 158.81 138.03 158.43 C 137.23 158.43 135.63 158.43 134.83 158.43 C 133.88 159.45 132.93 160.46 132.00 161.50 C 136.78 164.05 142.91 164.90 147.54 161.58 C 147.78 160.65 148.02 159.72 148.27 158.79 C 148.82 160.56 149.47 162.30 149.89 164.11 C 148.80 163.69 147.75 163.20 146.69 162.72 C 140.63 166.21 133.90 162.86 127.88 161.13 C 127.58 160.68 126.96 159.79 126.66 159.34 C 128.11 159.93 129.58 161.01 131.24 160.60 C 132.11 159.83 132.97 159.04 133.82 158.25 C 133.10 158.06 131.67 157.68 130.95 157.49 C 132.40 157.45 135.30 157.36 136.75 157.32 C 133.98 156.02 130.82 156.55 127.86 156.51 L 127.53 156.92 C 126.42 156.62 124.19 156.00 123.08 155.69 C 124.35 155.29 125.65 154.95 126.98 154.79 C 129.48 155.08 131.99 155.15 134.50 155.13 C 134.58 153.89 134.67 152.64 134.76 151.40 C 135.12 151.52 135.86 151.77 136.22 151.89 C 136.21 152.68 136.18 154.26 136.17 155.05 C 141.77 153.76 145.75 149.03 151.26 147.68 C 155.89 148.31 159.30 152.34 163.98 152.85 C 166.75 153.27 169.48 151.45 170.55 148.95 C 172.42 144.41 171.20 139.18 168.82 135.07 C 167.32 132.28 164.19 131.19 161.94 129.17 C 161.00 128.42 160.20 127.38 158.97 127.08 C 158.56 127.13 157.73 127.21 157.31 127.25 C 159.87 129.77 163.34 132.01 162.74 136.15 C 161.53 133.43 160.49 130.32 157.20 129.63 C 154.80 130.96 152.40 132.28 150.01 133.62 C 151.31 135.21 152.41 137.01 152.29 139.14 C 151.47 137.68 150.69 136.20 149.94 134.71 C 144.24 137.40 139.72 142.08 133.63 144.08 C 133.39 144.57 132.91 145.56 132.67 146.06 C 132.68 145.63 132.70 144.77 132.71 144.33 C 131.86 144.27 130.17 144.14 129.33 144.07 C 129.48 145.51 129.62 146.96 129.75 148.41 C 129.23 147.10 128.74 145.78 128.26 144.47 C 114.61 144.81 102.20 134.86 98.16 122.06 C 94.57 112.71 95.54 101.34 88.36 93.60 C 86.58 91.79 85.74 89.38 84.80 87.08 C 84.37 87.71 83.51 88.97 83.07 89.60 C 82.51 88.59 81.95 87.58 81.39 86.56 C 80.94 86.30 80.05 85.79 79.60 85.53 C 77.44 82.67 74.67 80.19 73.31 76.81 C 71.47 72.38 70.84 67.46 71.63 62.72 C 72.42 60.47 73.69 58.44 74.95 56.43 C 73.57 55.61 72.19 54.80 70.83 53.97 C 71.38 54.01 72.48 54.10 73.03 54.14 C 74.06 54.37 75.08 54.63 76.10 54.90 C 75.86 54.26 75.37 52.96 75.13 52.32 C 80.11 52.01 75.64 57.80 78.53 59.44 C 81.24 60.25 83.58 57.14 86.17 56.35 C 86.93 55.41 87.70 54.46 88.47 53.52 C 88.37 54.25 88.16 55.71 88.06 56.45 C 90.01 57.15 92.02 57.67 94.05 58.13 C 91.31 58.27 88.67 57.32 85.95 57.32 C 82.02 58.24 79.94 62.10 77.96 65.26 C 78.10 63.92 79.94 61.82 78.21 60.97 C 77.08 60.24 75.96 59.48 74.85 58.72 C 73.36 62.78 72.49 67.12 73.42 71.42 L 73.54 72.26 C 74.99 76.53 76.89 81.11 80.92 83.57 C 85.74 82.24 87.51 76.75 89.89 72.87 C 89.52 72.19 88.78 70.81 88.41 70.13 C 89.31 69.96 90.19 69.76 91.08 69.57 C 91.82 67.03 92.57 64.50 93.42 61.99 C 94.39 59.18 95.71 56.50 97.09 53.87 C 95.95 54.04 93.67 54.36 92.53 54.52 C 94.97 53.82 97.44 53.15 99.67 51.88 C 97.83 51.27 95.98 50.70 94.12 50.18 C 93.40 50.66 91.97 51.61 91.26 52.09 C 92.22 50.91 93.38 49.91 94.63 49.04 L 94.62 47.44 C 93.95 47.44 92.62 47.45 91.95 47.46 C 90.16 44.25 86.17 43.68 83.97 40.94 C 83.67 41.35 83.37 41.75 83.06 42.16 C 85.77 45.23 87.88 48.74 89.75 52.36 C 89.22 52.44 88.16 52.59 87.63 52.66 C 84.72 47.27 82.22 40.88 76.15 38.32 C 74.42 39.30 72.69 40.29 70.93 41.23 C 71.35 40.62 72.19 39.39 72.61 38.78 C 73.56 38.22 74.55 37.71 75.55 37.25 C 78.49 37.02 80.62 39.11 82.24 41.27 C 82.56 40.92 82.87 40.56 83.19 40.20 C 81.26 38.45 79.67 35.88 80.62 33.19 C 82.04 29.54 83.53 24.95 87.82 23.85 C 92.30 22.45 96.70 24.79 100.00 27.69 C 101.01 30.16 101.79 32.73 102.21 35.38 C 101.89 37.63 101.61 40.20 99.71 41.75 C 97.54 43.80 94.44 44.13 91.61 44.44 C 92.35 45.22 93.08 45.99 93.81 46.78 C 95.94 46.49 98.32 46.54 99.99 44.97 C 102.65 43.01 102.73 39.43 103.87 36.59 C 103.97 39.23 103.49 41.86 102.23 44.19 C 100.92 45.86 103.54 47.44 105.05 47.48 C 108.28 48.01 111.30 49.28 114.11 50.93 C 114.42 52.20 114.74 53.48 115.02 54.75 C 115.42 52.50 116.39 50.41 117.78 48.59 C 116.60 52.28 116.22 56.13 117.97 59.72 C 119.90 58.63 121.97 57.65 123.45 55.95 C 122.33 54.41 121.15 52.91 119.97 51.42 C 120.46 51.53 121.43 51.74 121.92 51.85 C 122.25 52.33 122.93 53.27 123.27 53.75 C 124.23 53.68 125.18 53.52 126.12 53.29 C 125.94 52.92 125.58 52.17 125.41 51.80 C 126.89 50.88 128.17 49.69 129.33 48.39 C 130.92 48.32 132.52 48.25 134.12 48.18 C 134.35 48.68 134.80 49.66 135.02 50.16 C 135.48 49.58 136.41 48.43 136.87 47.86 C 137.17 48.59 137.76 50.05 138.05 50.78 C 137.52 50.95 136.44 51.30 135.91 51.48 C 136.92 52.50 137.97 53.52 139.43 53.87 C 140.78 59.51 139.82 65.24 139.68 70.93 C 139.55 75.15 142.19 78.68 145.23 81.31 C 147.00 78.08 146.84 74.31 146.22 70.80 C 145.34 66.26 144.31 61.70 142.23 57.54 C 143.11 57.05 143.99 56.55 144.87 56.05 C 144.42 55.23 143.53 53.59 143.09 52.77 C 143.97 52.72 144.85 52.66 145.74 52.60 C 146.89 54.61 145.69 56.44 144.75 58.23 C 147.38 64.13 147.80 70.65 148.66 76.97 C 150.38 72.09 149.93 66.83 148.74 61.89 C 149.47 60.80 150.19 59.72 150.91 58.62 C 150.02 58.47 148.23 58.16 147.34 58.00 C 149.94 54.43 155.77 52.30 154.65 46.96 C 153.90 42.67 148.65 41.95 145.31 43.64 C 145.39 45.65 145.87 47.80 144.78 49.64 C 144.73 48.17 144.70 46.69 144.68 45.22 C 142.21 45.81 139.73 46.70 137.16 46.48 C 134.04 46.10 131.60 43.93 129.34 41.96 C 129.46 43.60 129.88 45.32 129.21 46.91 C 128.11 47.31 126.98 47.60 125.85 47.89 C 125.52 47.41 124.85 46.45 124.51 45.96 C 123.41 44.77 123.29 43.21 123.23 41.67 C 124.66 41.19 126.09 40.72 127.53 40.26 C 127.04 34.23 121.43 30.58 115.90 29.76 C 113.72 30.83 111.79 32.39 109.47 33.16 C 109.14 32.93 108.49 32.48 108.17 32.25 C 110.66 31.81 112.72 30.35 114.39 28.50 C 116.37 28.60 118.35 28.71 120.33 28.84 C 120.48 28.08 120.77 26.57 120.92 25.81 C 121.19 27.22 121.42 28.64 121.66 30.06 L 122.72 30.42 C 124.03 31.35 125.27 32.37 126.51 33.39 C 127.25 32.44 127.99 31.48 128.78 30.57 C 129.17 30.50 129.94 30.37 130.32 30.30 C 128.72 32.07 127.48 34.50 128.53 36.89 C 130.28 41.80 135.26 46.53 140.77 45.75 C 145.12 44.01 146.59 37.79 144.15 33.94 C 142.06 30.26 138.91 25.96 134.20 26.15 C 133.89 26.22 133.26 26.37 132.95 26.44 C 132.26 27.67 131.59 28.91 130.94 30.16 C 130.75 29.57 130.36 28.37 130.16 27.77 C 128.76 22.99 125.38 19.24 122.38 15.40 M 82.20 33.10 C 81.07 37.07 84.77 40.43 88.10 41.81 C 91.43 43.43 96.44 44.38 98.84 40.76 C 103.63 33.48 96.20 22.82 87.70 24.22 C 84.88 26.47 83.68 29.95 82.20 33.10 M 94.85 47.65 C 95.55 52.24 100.31 50.18 103.06 49.15 C 102.57 44.26 97.65 47.36 94.85 47.65 M 85.98 82.05 C 88.35 80.82 90.75 79.63 93.19 78.54 C 93.60 78.86 94.43 79.50 94.84 79.81 C 95.75 78.46 97.12 77.64 98.77 77.59 C 99.16 74.01 102.43 71.58 102.85 68.15 C 101.20 67.63 99.45 67.59 97.75 67.32 C 99.32 66.98 100.90 66.72 102.49 66.51 C 102.98 65.47 103.46 64.43 103.93 63.38 C 104.63 63.55 106.03 63.89 106.73 64.06 C 105.55 64.74 104.33 65.33 103.11 65.94 C 104.40 69.09 106.36 66.42 107.46 64.77 C 111.69 64.35 115.92 64.57 119.82 66.41 C 122.27 65.44 124.87 64.95 127.44 64.45 C 128.21 62.55 128.95 60.64 129.82 58.78 C 129.89 60.81 129.26 62.71 128.08 64.35 C 128.25 64.69 128.60 65.39 128.78 65.73 C 126.03 65.80 123.19 65.77 120.66 67.02 C 119.84 68.61 121.18 70.35 121.37 72.00 C 122.57 75.62 122.31 79.45 122.69 83.17 C 126.47 83.47 130.27 83.45 134.06 83.44 C 134.72 83.08 136.03 82.36 136.69 82.00 C 138.26 75.18 133.61 69.52 129.64 64.59 C 130.99 64.15 132.34 63.74 133.72 63.39 C 133.80 62.68 133.88 61.98 133.96 61.28 C 133.98 62.91 134.48 64.30 136.07 64.99 C 135.27 64.70 133.67 64.12 132.87 63.83 C 134.57 69.46 139.48 74.02 139.06 80.32 C 140.40 80.92 141.74 81.51 143.10 82.09 C 141.07 79.53 138.69 76.96 138.36 73.54 C 137.51 67.23 139.91 60.77 137.56 54.59 C 134.76 53.47 134.06 49.84 130.93 49.13 C 127.36 52.27 125.26 56.67 121.85 59.94 C 120.49 61.38 118.52 61.64 116.64 61.75 C 114.51 57.22 112.74 52.15 108.25 49.39 C 106.72 49.38 105.20 49.36 103.68 49.34 C 92.94 57.24 94.59 72.58 85.98 82.05 M 109.19 66.20 C 104.44 68.14 101.61 73.18 100.67 78.02 C 99.84 80.72 102.34 83.02 104.81 83.42 C 108.53 84.16 112.26 84.88 116.02 85.37 C 118.05 85.72 120.20 84.04 120.38 81.99 C 121.01 76.80 119.41 71.69 117.90 66.79 C 115.04 66.28 112.04 64.89 109.19 66.20 M 143.15 87.26 C 144.67 85.78 145.54 83.82 145.84 81.74 C 144.09 83.09 143.03 85.01 143.15 87.26 M 103.10 103.83 C 101.88 106.69 96.93 106.33 97.13 109.89 C 98.15 117.25 100.39 124.60 104.53 130.84 C 106.43 129.69 106.74 126.66 108.70 125.26 C 107.75 122.17 106.63 119.13 105.33 116.16 C 109.36 116.50 108.87 122.00 110.59 124.72 C 112.74 124.60 115.14 124.59 116.82 126.17 C 118.51 127.55 119.21 130.96 122.10 129.33 C 120.57 131.11 120.78 133.18 121.47 135.22 C 123.13 137.30 124.83 139.40 126.94 141.05 C 129.31 143.19 133.37 142.80 135.54 140.54 C 136.86 136.67 132.68 134.85 130.57 132.47 C 129.28 131.43 128.24 129.53 126.28 129.89 C 126.49 129.23 126.92 127.91 127.13 127.25 C 126.26 124.71 125.59 122.09 125.20 119.43 C 123.78 120.37 122.37 121.34 120.88 122.16 C 121.17 119.76 123.56 119.08 125.36 118.10 C 124.43 112.74 125.57 106.86 123.26 101.83 C 118.47 95.03 107.36 97.77 103.10 103.83 M 128.75 110.74 C 125.88 114.86 126.77 120.41 128.17 124.92 C 129.19 129.24 132.63 132.20 136.04 134.71 C 138.21 134.95 140.22 134.30 142.03 133.14 C 142.50 132.14 142.99 131.14 143.49 130.15 C 141.41 124.37 141.78 117.85 138.72 112.43 C 136.86 109.06 131.39 107.32 128.75 110.74 M 139.97 110.89 C 141.44 113.77 142.40 116.88 143.14 120.03 C 144.18 117.20 145.42 114.45 146.87 111.81 C 145.65 110.70 144.47 109.47 142.94 108.80 C 141.69 109.05 140.92 110.15 139.97 110.89 M 148.58 112.46 C 145.48 117.77 143.43 124.47 145.48 130.53 C 146.93 131.08 148.39 131.63 149.85 132.18 C 152.05 130.65 155.15 129.90 156.19 127.17 C 157.84 123.38 159.74 119.20 159.03 114.99 C 158.35 110.26 151.21 108.16 148.58 112.46 M 109.83 126.52 C 107.45 128.34 106.76 131.08 107.26 133.96 C 110.65 136.88 114.20 139.79 118.45 141.35 C 120.18 141.90 122.15 142.84 123.80 141.57 C 123.76 139.92 122.18 138.95 121.34 137.68 C 118.65 134.87 119.03 130.36 116.07 127.73 C 114.57 125.76 111.93 126.56 109.83 126.52 M 143.88 130.90 C 142.74 134.12 139.30 135.46 136.11 135.20 C 136.60 137.37 136.68 139.59 136.52 141.80 C 140.57 139.11 144.24 135.88 148.33 133.23 C 147.12 132.00 145.47 131.44 143.88 130.90 M 137.84 156.95 C 137.65 158.20 139.60 159.09 140.55 158.44 C 142.12 156.20 138.84 154.28 137.84 156.95 Z" />
<path fill="#2b2b2b" opacity="1.00" d=" M 93.49 37.59 C 94.53 37.12 95.58 36.64 96.62 36.17 C 96.59 37.33 96.55 38.49 96.51 39.65 C 95.60 39.54 94.70 39.42 93.79 39.31 C 93.72 38.88 93.56 38.02 93.49 37.59 Z" />
<path fill="#2b2b2b" opacity="1.00" d=" M 136.83 39.54 C 137.77 39.85 139.64 39.46 139.24 41.02 C 139.43 42.52 137.54 42.19 136.64 42.63 C 136.70 41.60 136.76 40.57 136.83 39.54 Z" />
<path fill="#2b2b2b" opacity="1.00" d=" M 110.38 42.16 C 113.28 40.59 118.30 38.96 120.27 42.61 C 120.58 44.70 118.59 46.08 117.43 47.50 C 114.91 47.63 112.56 46.62 110.44 45.35 C 110.43 44.55 110.40 42.96 110.38 42.16 Z" />
<path fill="#2b2b2b" opacity="1.00" d=" M 64.66 41.19 C 64.81 41.37 65.11 41.73 65.26 41.91 C 65.62 42.14 66.35 42.60 66.72 42.82 C 67.30 43.03 68.46 43.44 69.03 43.65 C 67.50 44.65 65.78 45.51 64.71 47.06 C 63.78 48.89 64.87 50.81 65.73 52.42 C 67.13 53.81 68.63 55.10 70.08 56.43 C 68.90 56.27 67.73 56.10 66.55 55.93 C 66.57 56.56 66.60 57.83 66.62 58.46 C 66.61 60.69 66.66 62.93 66.36 65.14 C 66.15 65.53 65.72 66.32 65.50 66.71 C 64.51 68.88 64.10 71.24 63.64 73.57 L 63.48 72.16 C 62.96 69.46 64.15 67.02 65.65 64.88 C 65.65 62.86 65.62 60.84 65.62 58.82 C 65.26 58.32 64.54 57.33 64.19 56.83 C 64.57 56.41 65.35 55.58 65.73 55.16 C 64.16 53.12 61.85 50.85 62.63 48.00 C 63.82 45.86 65.43 43.79 64.66 41.19 Z" />
<path fill="#2b2b2b" opacity="1.00" d=" M 95.19 78.41 C 92.45 75.37 95.23 71.88 97.65 69.91 C 96.93 72.77 96.10 75.60 95.19 78.41 Z" />
<path fill="#2b2b2b" opacity="1.00" d=" M 67.60 78.54 C 67.94 76.93 68.28 75.32 68.63 73.71 C 69.20 75.38 69.57 77.12 69.95 78.85 C 69.36 78.77 68.18 78.61 67.60 78.54 Z" />
<path fill="#2b2b2b" opacity="1.00" d=" M 43.56 79.00 C 45.47 78.03 47.90 76.78 49.93 78.23 C 51.38 78.98 51.46 80.76 51.98 82.11 C 50.32 81.03 49.03 79.14 47.03 78.75 C 42.13 80.46 40.50 87.95 44.76 91.20 C 47.54 93.67 51.48 92.44 54.35 90.85 C 54.74 91.20 55.14 91.55 55.53 91.90 C 52.89 93.13 50.19 94.99 47.13 94.38 C 43.88 93.80 41.83 90.97 40.44 88.23 C 40.18 84.83 41.28 81.53 43.56 79.00 Z" />
<path fill="#2b2b2b" opacity="1.00" d=" M 46.20 87.05 C 46.47 85.67 46.86 84.29 47.80 83.20 C 48.77 84.24 50.52 84.89 50.64 86.48 C 50.13 87.26 49.60 88.03 49.05 88.77 C 48.10 88.19 47.16 87.62 46.20 87.05 Z" />
<path fill="#2b2b2b" opacity="1.00" d=" M 79.95 113.67 C 80.85 114.28 81.73 114.92 82.59 115.60 C 83.75 117.61 84.78 119.70 85.97 121.71 C 87.32 126.28 88.66 130.85 89.73 135.50 C 90.66 139.36 91.73 143.18 92.69 147.04 C 94.14 152.86 96.50 158.77 101.05 162.87 C 103.60 165.28 107.17 165.85 110.37 166.94 C 104.79 168.66 99.29 164.32 96.25 159.98 C 88.71 147.84 88.70 132.85 82.92 120.01 C 82.46 119.11 81.99 118.21 81.51 117.33 C 80.93 116.13 80.44 114.90 79.95 113.67 Z" />
<path fill="#2b2b2b" opacity="1.00" d=" M 91.19 115.42 C 91.44 115.40 91.93 115.36 92.17 115.34 C 92.92 120.44 96.48 124.70 96.36 129.99 C 96.16 131.99 97.51 132.79 99.35 132.65 C 99.61 134.17 99.53 135.87 100.55 137.15 C 106.43 144.57 113.49 151.84 123.04 154.15 C 123.14 154.43 123.34 154.99 123.44 155.27 C 120.76 154.91 118.19 154.09 115.67 153.14 C 114.39 154.44 113.12 155.75 111.86 157.06 C 110.75 157.37 109.65 157.69 108.55 158.01 C 108.54 157.85 108.52 157.52 108.51 157.35 C 109.24 157.03 110.69 156.38 111.42 156.06 C 111.64 155.84 112.07 155.40 112.28 155.18 C 113.26 154.39 114.26 153.63 115.29 152.90 C 109.70 149.99 105.18 145.47 101.41 140.50 C 99.89 138.02 98.78 135.27 96.86 133.05 C 96.62 132.72 96.13 132.08 95.88 131.76 C 95.87 131.34 95.85 130.49 95.84 130.06 C 95.44 129.12 95.02 128.19 94.62 127.25 C 94.77 126.89 95.08 126.17 95.23 125.81 C 93.67 122.43 91.53 119.24 91.19 115.42 Z" />
<path fill="#2b2b2b" opacity="1.00" d=" M 46.68 137.35 C 50.60 150.26 54.97 163.03 58.93 175.93 C 59.67 178.73 61.43 181.52 60.52 184.48 C 58.06 179.63 56.73 174.35 54.99 169.23 C 51.74 159.48 48.50 149.71 45.85 139.77 L 46.68 137.35 Z" />
<path fill="#2b2b2b" opacity="1.00" d=" M 150.84 155.02 C 151.36 154.69 152.40 154.05 152.92 153.72 C 155.76 155.11 151.21 158.08 150.84 155.02 Z" />
<path fill="#2b2b2b" opacity="1.00" d=" M 156.33 156.94 C 157.63 157.83 158.92 158.74 160.23 159.64 C 159.81 160.41 159.38 161.18 158.95 161.95 C 158.11 168.23 152.85 174.54 146.24 174.71 C 150.20 172.46 154.43 169.99 156.62 165.81 C 158.34 163.04 156.67 159.85 156.33 156.94 Z" />
<path fill="#2b2b2b" opacity="1.00" d=" M 152.51 158.05 C 154.41 157.97 153.45 160.85 152.04 160.88 C 150.34 160.85 151.31 158.21 152.51 158.05 Z" />
<path fill="#2b2b2b" opacity="1.00" d=" M 118.58 174.69 C 119.14 174.52 120.26 174.19 120.83 174.02 C 125.83 174.49 130.76 175.70 135.82 175.65 C 138.53 175.80 141.24 175.55 143.94 175.28 C 143.87 175.65 143.75 176.40 143.69 176.77 C 135.28 177.60 126.75 176.81 118.58 174.69 Z" />
<path fill="#2b2b2b" opacity="1.00" d=" M 118.97 177.41 C 121.50 178.12 124.08 178.72 126.73 178.66 C 126.77 178.92 126.84 179.44 126.87 179.70 C 124.27 179.22 119.80 180.88 118.97 177.41 Z" />
<path fill="#2b2b2b" opacity="1.00" d=" M 143.98 177.12 C 146.69 183.09 151.95 187.68 153.53 194.22 C 155.03 200.35 154.79 207.23 151.40 212.73 C 149.68 216.17 145.94 217.69 142.88 219.65 L 144.03 220.00 L 127.66 220.00 C 121.39 218.43 115.05 216.94 109.19 214.15 C 113.93 216.02 119.06 216.58 123.84 218.35 C 128.05 219.98 132.64 219.68 137.06 219.61 C 143.19 219.62 148.85 215.60 151.44 210.15 C 155.56 200.07 151.54 187.96 143.44 181.08 C 143.53 180.66 143.73 179.83 143.83 179.42 C 143.37 179.36 142.47 179.25 142.02 179.19 C 142.67 178.50 143.33 177.81 143.98 177.12 Z" />
<path fill="#2b2b2b" opacity="1.00" d=" M 136.67 185.03 C 137.91 183.70 139.16 182.38 140.42 181.08 C 140.47 181.65 140.58 182.81 140.64 183.38 C 139.52 184.34 138.09 184.77 136.67 185.03 Z" />
<path fill="#2b2b2b" opacity="1.00" d=" M 60.80 186.75 C 60.96 186.03 61.31 185.42 61.86 184.93 C 62.19 185.85 62.85 187.69 63.18 188.61 C 62.97 188.95 62.56 189.64 62.35 189.98 C 61.79 188.92 61.28 187.84 60.80 186.75 Z" />
<path fill="#2b2b2b" opacity="1.00" d=" M 64.00 189.83 C 66.82 195.93 69.68 202.01 72.51 208.10 C 72.52 208.85 72.52 210.34 72.52 211.08 C 68.74 204.93 66.39 198.03 62.54 191.93 C 62.90 191.41 63.63 190.36 64.00 189.83 Z" />
</g>
<g id="#ffffffff">
<path fill="#ffffff" opacity="1.00" d=" M 73.54 4.64 C 81.00 2.57 88.67 1.95 96.38 1.81 C 105.64 2.86 113.85 7.80 120.84 13.70 L 120.96 13.84 C 121.43 14.36 121.91 14.87 122.38 15.40 C 125.38 19.24 128.76 22.99 130.16 27.77 C 127.68 28.65 125.22 29.59 122.72 30.42 L 121.66 30.06 C 121.42 28.64 121.19 27.22 120.92 25.81 C 120.77 26.57 120.48 28.08 120.33 28.84 C 118.35 28.71 116.37 28.60 114.39 28.50 C 112.72 30.35 110.66 31.81 108.17 32.25 C 105.71 30.28 102.85 28.97 100.00 27.69 C 96.70 24.79 92.30 22.45 87.82 23.85 C 83.53 24.95 82.04 29.54 80.62 33.19 C 79.67 35.88 81.26 38.45 83.19 40.20 C 82.87 40.56 82.56 40.92 82.24 41.27 C 80.62 39.11 78.49 37.02 75.55 37.25 C 75.53 32.92 78.32 29.63 81.29 26.83 C 79.69 26.39 78.10 25.94 76.51 25.49 C 75.00 21.69 73.48 17.62 69.88 15.30 C 70.12 16.95 70.40 18.60 70.66 20.26 C 67.11 18.04 65.14 14.32 63.48 10.62 C 66.59 8.25 69.91 6.12 73.54 4.64 M 91.04 6.49 C 88.23 7.96 85.07 9.82 84.91 13.40 C 87.26 12.48 87.83 9.61 90.03 8.55 C 92.77 7.25 94.48 10.53 96.52 11.73 C 96.89 8.55 93.64 7.03 91.04 6.49 Z" />
<path fill="#ffffff" opacity="1.00" d=" M 82.20 33.10 C 83.68 29.95 84.88 26.47 87.70 24.22 C 96.20 22.82 103.63 33.48 98.84 40.76 C 96.44 44.38 91.43 43.43 88.10 41.81 C 84.77 40.43 81.07 37.07 82.20 33.10 M 93.49 37.59 C 93.56 38.02 93.72 38.88 93.79 39.31 C 94.70 39.42 95.60 39.54 96.51 39.65 C 96.55 38.49 96.59 37.33 96.62 36.17 C 95.58 36.64 94.53 37.12 93.49 37.59 Z" />
<path fill="#ffffff" opacity="1.00" d=" M 134.20 26.15 C 138.91 25.96 142.06 30.26 144.15 33.94 C 146.59 37.79 145.12 44.01 140.77 45.75 C 135.26 46.53 130.28 41.80 128.53 36.89 C 127.48 34.50 128.72 32.07 130.32 30.30 C 131.52 30.10 132.72 29.98 133.92 29.84 C 134.01 28.61 134.11 27.38 134.20 26.15 M 136.83 39.54 C 136.76 40.57 136.70 41.60 136.64 42.63 C 137.54 42.19 139.43 42.52 139.24 41.02 C 139.64 39.46 137.77 39.85 136.83 39.54 Z" />
<path fill="#ffffff" opacity="1.00" d=" M 109.47 33.16 C 111.79 32.39 113.72 30.83 115.90 29.76 C 121.43 30.58 127.04 34.23 127.53 40.26 C 126.09 40.72 124.66 41.19 123.23 41.67 C 123.29 43.21 123.41 44.77 124.51 45.96 C 122.21 46.71 119.87 47.42 117.43 47.50 C 118.59 46.08 120.58 44.70 120.27 42.61 C 118.30 38.96 113.28 40.59 110.38 42.16 C 110.40 42.96 110.43 44.55 110.44 45.35 C 106.53 44.34 109.89 41.13 110.22 38.85 C 107.45 38.97 106.19 41.63 104.40 43.32 C 103.86 43.54 102.77 43.98 102.23 44.19 C 103.49 41.86 103.97 39.23 103.87 36.59 C 102.73 39.43 102.65 43.01 99.99 44.97 C 98.32 46.54 95.94 46.49 93.81 46.78 C 93.08 45.99 92.35 45.22 91.61 44.44 C 94.44 44.13 97.54 43.80 99.71 41.75 C 101.61 40.20 101.89 37.63 102.21 35.38 C 104.65 34.70 107.09 34.03 109.47 33.16 Z" />
<path fill="#ffffff" opacity="1.00" d=" M 66.72 42.82 C 67.46 40.32 69.86 38.10 72.61 38.78 C 72.19 39.39 71.35 40.62 70.93 41.23 C 72.69 40.29 74.42 39.30 76.15 38.32 C 82.22 40.88 84.72 47.27 87.63 52.66 C 88.16 52.59 89.22 52.44 89.75 52.36 C 87.88 48.74 85.77 45.23 83.06 42.16 C 83.37 41.75 83.67 41.35 83.97 40.94 C 86.17 43.68 90.16 44.25 91.95 47.46 C 92.62 47.45 93.95 47.44 94.62 47.44 L 94.63 49.04 C 93.38 49.91 92.22 50.91 91.26 52.09 C 91.97 51.61 93.40 50.66 94.12 50.18 C 95.98 50.70 97.83 51.27 99.67 51.88 C 97.44 53.15 94.97 53.82 92.53 54.52 C 93.67 54.36 95.95 54.04 97.09 53.87 C 95.71 56.50 94.39 59.18 93.42 61.99 C 92.59 61.91 90.94 61.73 90.11 61.64 C 89.90 63.37 91.97 67.01 88.95 66.82 C 86.90 66.46 85.28 64.97 83.54 63.91 C 83.12 66.39 82.66 68.85 82.13 71.30 C 79.24 71.30 76.36 71.65 73.54 72.26 L 73.42 71.42 C 73.55 69.74 73.73 68.07 73.91 66.40 C 74.96 66.75 76.01 67.09 77.06 67.44 C 77.28 66.90 77.74 65.81 77.96 65.26 C 79.94 62.10 82.02 58.24 85.95 57.32 C 88.67 57.32 91.31 58.27 94.05 58.13 C 92.02 57.67 90.01 57.15 88.06 56.45 C 88.16 55.71 88.37 54.25 88.47 53.52 C 87.70 54.46 86.93 55.41 86.17 56.35 C 83.58 57.14 81.24 60.25 78.53 59.44 C 75.64 57.80 80.11 52.01 75.13 52.32 C 75.37 52.96 75.86 54.26 76.10 54.90 C 75.08 54.63 74.06 54.37 73.03 54.14 C 74.32 53.25 74.58 52.28 73.80 51.23 C 71.08 50.81 68.40 51.99 65.73 52.42 C 64.87 50.81 63.78 48.89 64.71 47.06 C 65.78 45.51 67.50 44.65 69.03 43.65 C 68.46 43.44 67.30 43.03 66.72 42.82 M 74.15 48.64 C 73.32 49.64 74.94 50.89 75.89 50.83 C 77.17 49.88 75.37 47.73 74.15 48.64 Z" />
<path fill="#ffffff" opacity="1.00" d=" M 145.31 43.64 C 148.65 41.95 153.90 42.67 154.65 46.96 C 155.77 52.30 149.94 54.43 147.34 58.00 C 148.23 58.16 150.02 58.47 150.91 58.62 C 150.19 59.72 149.47 60.80 148.74 61.89 C 149.93 66.83 150.38 72.09 148.66 76.97 C 147.80 70.65 147.38 64.13 144.75 58.23 C 145.69 56.44 146.89 54.61 145.74 52.60 C 144.85 52.66 143.97 52.72 143.09 52.77 C 141.78 52.66 140.40 52.49 139.41 51.52 C 140.96 51.30 142.52 51.14 144.09 50.98 C 144.26 50.64 144.60 49.97 144.78 49.64 C 145.87 47.80 145.39 45.65 145.31 43.64 Z" />
<path fill="#ffffff" opacity="1.00" d=" M 85.98 82.05 C 94.59 72.58 92.94 57.24 103.68 49.34 C 105.20 49.36 106.72 49.38 108.25 49.39 C 112.74 52.15 114.51 57.22 116.64 61.75 C 118.52 61.64 120.49 61.38 121.85 59.94 C 125.26 56.67 127.36 52.27 130.93 49.13 C 134.06 49.84 134.76 53.47 137.56 54.59 C 139.91 60.77 137.51 67.23 138.36 73.54 C 138.69 76.96 141.07 79.53 143.10 82.09 C 141.74 81.51 140.40 80.92 139.06 80.32 C 139.48 74.02 134.57 69.46 132.87 63.83 C 133.67 64.12 135.27 64.70 136.07 64.99 C 134.48 64.30 133.98 62.91 133.96 61.28 C 133.88 61.98 133.80 62.68 133.72 63.39 C 132.34 63.74 130.99 64.15 129.64 64.59 C 133.61 69.52 138.26 75.18 136.69 82.00 C 136.03 82.36 134.72 83.08 134.06 83.44 C 130.27 83.45 126.47 83.47 122.69 83.17 C 122.31 79.45 122.57 75.62 121.37 72.00 C 121.18 70.35 119.84 68.61 120.66 67.02 C 123.19 65.77 126.03 65.80 128.78 65.73 C 128.60 65.39 128.25 64.69 128.08 64.35 C 129.26 62.71 129.89 60.81 129.82 58.78 C 128.95 60.64 128.21 62.55 127.44 64.45 C 124.87 64.95 122.27 65.44 119.82 66.41 C 115.92 64.57 111.69 64.35 107.46 64.77 C 106.36 66.42 104.40 69.09 103.11 65.94 C 104.33 65.33 105.55 64.74 106.73 64.06 C 106.03 63.89 104.63 63.55 103.93 63.38 C 103.46 64.43 102.98 65.47 102.49 66.51 C 100.90 66.72 99.32 66.98 97.75 67.32 C 99.45 67.59 101.20 67.63 102.85 68.15 C 102.43 71.58 99.16 74.01 98.77 77.59 C 97.12 77.64 95.75 78.46 94.84 79.81 C 94.43 79.50 93.60 78.86 93.19 78.54 C 90.75 79.63 88.35 80.82 85.98 82.05 M 95.19 78.41 C 96.10 75.60 96.93 72.77 97.65 69.91 C 95.23 71.88 92.45 75.37 95.19 78.41 Z" />
<path fill="#ffffff" opacity="1.00" d=" M 66.62 58.46 C 68.59 59.49 70.31 60.91 71.63 62.72 C 70.84 67.46 71.47 72.38 73.31 76.81 C 74.67 80.19 77.44 82.67 79.60 85.53 C 80.05 85.79 80.94 86.30 81.39 86.56 C 81.95 87.58 82.51 88.59 83.07 89.60 C 83.51 88.97 84.37 87.71 84.80 87.08 C 85.74 89.38 86.58 91.79 88.36 93.60 C 95.54 101.34 94.57 112.71 98.16 122.06 C 102.20 134.86 114.61 144.81 128.26 144.47 C 128.74 145.78 129.23 147.10 129.75 148.41 C 129.62 146.96 129.48 145.51 129.33 144.07 C 130.17 144.14 131.86 144.27 132.71 144.33 C 132.70 144.77 132.68 145.63 132.67 146.06 C 132.91 145.56 133.39 144.57 133.63 144.08 C 139.72 142.08 144.24 137.40 149.94 134.71 C 150.69 136.20 151.47 137.68 152.29 139.14 C 152.41 137.01 151.31 135.21 150.01 133.62 C 152.40 132.28 154.80 130.96 157.20 129.63 C 160.49 130.32 161.53 133.43 162.74 136.15 C 163.34 132.01 159.87 129.77 157.31 127.25 C 157.73 127.21 158.56 127.13 158.97 127.08 C 160.20 127.38 161.00 128.42 161.94 129.17 C 164.19 131.19 167.32 132.28 168.82 135.07 C 171.20 139.18 172.42 144.41 170.55 148.95 C 169.48 151.45 166.75 153.27 163.98 152.85 C 159.30 152.34 155.89 148.31 151.26 147.68 C 145.75 149.03 141.77 153.76 136.17 155.05 C 136.18 154.26 136.21 152.68 136.22 151.89 C 135.86 151.77 135.12 151.52 134.76 151.40 C 134.67 152.64 134.58 153.89 134.50 155.13 C 131.99 155.15 129.48 155.08 126.98 154.79 C 125.67 154.59 124.36 154.36 123.04 154.15 C 113.49 151.84 106.43 144.57 100.55 137.15 C 99.53 135.87 99.61 134.17 99.35 132.65 C 97.51 132.79 96.16 131.99 96.36 129.99 C 96.48 124.70 92.92 120.44 92.17 115.34 C 91.93 115.36 91.44 115.40 91.19 115.42 C 91.53 119.24 93.67 122.43 95.23 125.81 C 95.08 126.17 94.77 126.89 94.62 127.25 C 95.02 128.19 95.44 129.12 95.84 130.06 C 95.85 130.49 95.87 131.34 95.88 131.76 C 96.13 132.08 96.62 132.72 96.86 133.05 C 94.57 132.95 92.29 132.91 90.00 132.94 C 88.86 129.14 88.62 124.86 85.97 121.71 C 84.78 119.70 83.75 117.61 82.59 115.60 C 84.55 113.89 86.43 112.11 88.23 110.24 C 84.01 111.29 79.46 112.09 75.61 109.44 C 78.72 108.31 82.15 107.75 84.88 105.79 C 86.16 102.58 82.48 105.16 80.95 105.38 C 74.79 104.30 67.37 105.54 62.96 100.02 C 59.88 97.76 61.50 92.28 57.49 91.19 C 57.76 94.17 58.19 97.30 60.23 99.65 C 62.81 102.87 64.32 106.75 66.56 110.18 C 68.08 112.78 71.08 113.75 73.31 115.57 C 73.66 117.04 73.73 118.55 73.90 120.04 C 74.71 120.75 75.52 121.45 76.33 122.16 C 75.85 125.32 76.67 128.92 80.31 129.64 C 79.35 125.61 77.48 120.33 81.51 117.33 C 81.99 118.21 82.46 119.11 82.92 120.01 C 81.11 125.09 84.73 131.00 81.19 135.52 C 81.79 146.05 84.57 157.14 92.16 164.89 C 97.69 171.71 104.59 177.23 111.78 182.19 C 115.65 184.74 120.18 186.80 124.92 186.30 C 128.84 185.88 132.74 185.31 136.67 185.03 C 138.09 184.77 139.52 184.34 140.64 183.38 C 141.34 182.81 142.74 181.66 143.44 181.08 C 151.54 187.96 155.56 200.07 151.44 210.15 C 139.46 212.92 126.68 213.49 114.94 209.34 C 105.91 207.41 97.85 202.65 91.15 196.40 C 90.23 198.49 89.28 200.57 88.45 202.70 C 84.33 204.41 80.64 206.94 77.96 210.54 C 76.56 210.53 75.16 210.51 73.75 210.47 C 73.33 209.68 72.92 208.89 72.51 208.10 C 69.68 202.01 66.82 195.93 64.00 189.83 C 63.63 190.36 62.90 191.41 62.54 191.93 C 62.49 191.44 62.40 190.47 62.35 189.98 C 62.56 189.64 62.97 188.95 63.18 188.61 C 62.85 187.69 62.19 185.85 61.86 184.93 C 61.31 185.42 60.96 186.03 60.80 186.75 C 60.51 186.02 60.42 185.27 60.52 184.48 C 61.43 181.52 59.67 178.73 58.93 175.93 C 54.97 163.03 50.60 150.26 46.68 137.35 C 46.63 136.67 46.55 136.00 46.40 135.34 C 43.61 124.74 40.56 114.03 40.40 102.99 C 40.20 99.70 39.34 96.49 39.22 93.19 C 39.60 91.53 40.02 89.88 40.44 88.23 C 41.83 90.97 43.88 93.80 47.13 94.38 C 50.19 94.99 52.89 93.13 55.53 91.90 C 55.14 91.55 54.74 91.20 54.35 90.85 C 51.48 92.44 47.54 93.67 44.76 91.20 C 40.50 87.95 42.13 80.46 47.03 78.75 C 49.03 79.14 50.32 81.03 51.98 82.11 C 51.46 80.76 51.38 78.98 49.93 78.23 C 47.90 76.78 45.47 78.03 43.56 79.00 C 42.02 76.19 43.98 73.65 45.48 71.37 C 44.69 70.52 43.91 69.68 43.12 68.83 C 44.11 68.29 45.09 67.76 46.07 67.22 C 44.15 66.68 42.23 66.13 40.30 65.59 C 40.38 64.04 40.48 62.48 40.62 60.93 C 46.04 64.02 51.78 66.49 57.26 69.45 C 57.45 70.68 57.59 71.91 57.91 73.11 C 59.66 74.62 61.69 72.60 63.48 72.16 L 63.64 73.57 L 63.66 73.76 C 64.67 73.99 65.67 74.21 66.69 74.43 C 66.96 75.79 67.23 77.17 67.55 78.53 L 67.60 78.54 C 68.18 78.61 69.36 78.77 69.95 78.85 C 69.57 77.12 69.20 75.38 68.63 73.71 C 67.68 71.33 66.58 69.03 65.50 66.71 C 65.72 66.32 66.15 65.53 66.36 65.14 C 66.66 62.93 66.61 60.69 66.62 58.46 M 46.20 87.05 C 47.16 87.62 48.10 88.19 49.05 88.77 C 49.60 88.03 50.13 87.26 50.64 86.48 C 50.52 84.89 48.77 84.24 47.80 83.20 C 46.86 84.29 46.47 85.67 46.20 87.05 M 57.19 88.18 C 56.97 88.43 56.51 88.92 56.29 89.17 C 57.03 92.32 60.68 87.95 57.19 88.18 M 50.09 97.85 C 52.38 97.18 54.54 96.08 55.98 94.12 C 53.61 94.62 51.58 95.95 50.09 97.85 M 47.38 98.43 C 46.39 99.98 49.20 101.81 50.50 100.85 C 51.03 99.32 48.75 97.62 47.38 98.43 M 73.02 172.89 C 73.29 174.69 73.83 176.43 74.63 178.06 C 74.38 176.26 75.72 173.21 73.02 172.89 M 76.89 184.60 C 77.99 183.24 79.48 181.97 79.68 180.12 C 79.00 179.06 78.18 178.11 77.40 177.13 C 74.65 178.97 74.94 182.25 76.89 184.60 M 78.10 186.92 C 80.21 191.40 83.16 195.48 86.50 199.12 C 87.65 197.27 89.38 195.45 89.19 193.13 C 88.52 192.11 87.81 191.13 87.06 190.17 C 86.09 191.03 85.13 191.89 84.17 192.76 C 84.42 190.68 86.14 188.13 84.05 186.50 C 82.63 187.14 82.00 188.68 81.09 189.84 C 81.72 187.36 83.08 184.63 81.73 182.14 C 79.53 182.36 78.39 184.98 78.10 186.92 Z" />
<path fill="#ffffff" opacity="1.00" d=" M 109.19 66.20 C 112.04 64.89 115.04 66.28 117.90 66.79 C 119.41 71.69 121.01 76.80 120.38 81.99 C 120.20 84.04 118.05 85.72 116.02 85.37 C 112.26 84.88 108.53 84.16 104.81 83.42 C 102.34 83.02 99.84 80.72 100.67 78.02 C 101.61 73.18 104.44 68.14 109.19 66.20 Z" />
<path fill="#ffffff" opacity="1.00" d=" M 84.56 70.64 C 85.85 70.47 87.13 70.30 88.41 70.13 C 88.78 70.81 89.52 72.19 89.89 72.87 C 88.03 72.79 86.17 72.72 84.31 72.63 C 84.37 72.13 84.50 71.14 84.56 70.64 Z" />
<path fill="#ffffff" opacity="1.00" d=" M 128.75 110.74 C 131.39 107.32 136.86 109.06 138.72 112.43 C 141.78 117.85 141.41 124.37 143.49 130.15 C 142.99 131.14 142.50 132.14 142.03 133.14 C 140.22 134.30 138.21 134.95 136.04 134.71 C 132.63 132.20 129.19 129.24 128.17 124.92 C 126.77 120.41 125.88 114.86 128.75 110.74 Z" />
<path fill="#ffffff" opacity="1.00" d=" M 148.58 112.46 C 151.21 108.16 158.35 110.26 159.03 114.99 C 159.74 119.20 157.84 123.38 156.19 127.17 C 155.15 129.90 152.05 130.65 149.85 132.18 C 148.39 131.63 146.93 131.08 145.48 130.53 C 143.43 124.47 145.48 117.77 148.58 112.46 Z" />
<path fill="#ffffff" opacity="1.00" d=" M 109.83 126.52 C 111.93 126.56 114.57 125.76 116.07 127.73 C 119.03 130.36 118.65 134.87 121.34 137.68 C 122.18 138.95 123.76 139.92 123.80 141.57 C 122.15 142.84 120.18 141.90 118.45 141.35 C 114.20 139.79 110.65 136.88 107.26 133.96 C 106.76 131.08 107.45 128.34 109.83 126.52 Z" />
<path fill="#ffffff" opacity="1.00" d=" M 122.01 130.10 C 123.43 130.01 124.85 129.92 126.28 129.89 C 128.24 129.53 129.28 131.43 130.57 132.47 C 132.68 134.85 136.86 136.67 135.54 140.54 C 133.37 142.80 129.31 143.19 126.94 141.05 C 124.83 139.40 123.13 137.30 121.47 135.22 C 121.66 133.51 121.83 131.80 122.01 130.10 Z" />
<path fill="#ffffff" opacity="1.00" d=" M 89.73 135.50 C 91.07 135.11 93.32 133.69 94.08 135.67 C 95.29 138.83 96.90 141.81 99.62 143.93 C 99.52 146.31 99.50 148.70 99.25 151.07 C 96.62 150.69 94.78 148.49 92.69 147.04 C 91.73 143.18 90.66 139.36 89.73 135.50 Z" />
<path fill="#ffffff" opacity="1.00" d=" M 141.26 154.73 C 144.18 153.10 146.86 151.04 149.93 149.68 C 152.16 149.09 154.18 150.57 156.21 151.25 C 155.58 151.62 154.32 152.36 153.69 152.73 C 155.30 152.60 156.92 152.44 158.53 152.27 C 157.83 153.77 157.18 155.36 157.65 157.05 C 158.02 155.99 158.76 153.86 159.13 152.79 C 160.54 154.69 160.59 157.02 160.40 159.28 L 160.23 159.64 C 158.92 158.74 157.63 157.83 156.33 156.94 C 156.67 159.85 158.34 163.04 156.62 165.81 C 154.43 169.99 150.20 172.46 146.24 174.71 L 145.86 174.73 C 145.38 174.86 144.42 175.14 143.94 175.28 C 141.24 175.55 138.53 175.80 135.82 175.65 C 133.55 172.35 126.99 173.93 126.98 169.05 C 127.89 166.52 130.88 166.58 133.08 166.22 C 130.64 165.36 128.39 164.04 126.62 162.14 C 124.81 164.45 122.82 166.84 119.74 167.38 C 119.94 165.52 120.16 163.66 120.40 161.80 C 123.28 160.99 126.08 159.70 127.53 156.92 L 127.86 156.51 C 130.82 156.55 133.98 156.02 136.75 157.32 C 135.30 157.36 132.40 157.45 130.95 157.49 C 131.67 157.68 133.10 158.06 133.82 158.25 C 132.97 159.04 132.11 159.83 131.24 160.60 C 129.58 161.01 128.11 159.93 126.66 159.34 C 126.96 159.79 127.58 160.68 127.88 161.13 C 133.90 162.86 140.63 166.21 146.69 162.72 C 147.75 163.20 148.80 163.69 149.89 164.11 C 149.47 162.30 148.82 160.56 148.27 158.79 C 148.02 159.72 147.78 160.65 147.54 161.58 C 142.91 164.90 136.78 164.05 132.00 161.50 C 132.93 160.46 133.88 159.45 134.83 158.43 C 135.63 158.43 137.23 158.43 138.03 158.43 C 140.04 158.81 142.06 159.18 144.08 159.51 C 143.33 159.28 141.84 158.83 141.09 158.60 C 141.13 157.63 141.21 155.70 141.26 154.73 M 149.15 153.66 C 150.11 154.39 152.12 153.24 151.66 152.01 C 150.68 151.22 148.64 152.40 149.15 153.66 M 150.84 155.02 C 151.21 158.08 155.76 155.11 152.92 153.72 C 152.40 154.05 151.36 154.69 150.84 155.02 M 152.51 158.05 C 151.31 158.21 150.34 160.85 152.04 160.88 C 153.45 160.85 154.41 157.97 152.51 158.05 Z" />
<path fill="#ffffff" opacity="1.00" d=" M 108.29 154.07 C 108.87 154.18 110.05 154.38 110.64 154.48 C 110.84 154.88 111.23 155.66 111.42 156.06 C 110.69 156.38 109.24 157.03 108.51 157.35 C 108.42 156.26 108.35 155.17 108.29 154.07 Z" />
<path fill="#ffffff" opacity="1.00" d=" M 118.27 156.20 C 120.35 154.99 122.46 156.42 124.11 157.66 C 121.60 159.03 118.73 159.64 115.90 159.03 C 114.88 157.44 117.26 156.75 118.27 156.20 Z" />
<path fill="#ffffff" opacity="1.00" d=" M 137.84 156.95 C 138.84 154.28 142.12 156.20 140.55 158.44 C 139.60 159.09 137.65 158.20 137.84 156.95 Z" />
<path fill="#ffffff" opacity="1.00" d=" M 108.23 159.18 C 109.09 157.97 111.67 159.10 110.50 160.51 C 109.64 161.75 107.03 160.58 108.23 159.18 Z" />
<path fill="#ffffff" opacity="1.00" d=" M 111.28 163.13 C 111.50 159.88 115.54 162.34 117.48 162.30 C 115.25 164.72 117.11 167.46 118.93 169.39 C 121.17 168.44 123.93 168.05 125.60 170.27 C 126.41 173.49 122.53 173.24 120.46 172.88 C 120.29 172.14 119.95 170.64 119.78 169.90 C 118.78 169.65 117.77 169.41 116.77 169.17 C 116.59 168.06 116.41 166.95 116.23 165.84 C 114.24 165.81 110.64 166.28 111.28 163.13 Z" />
</g>
</svg>
