<?xml version="1.0" encoding="UTF-8" ?>
<!DOCTYPE svg PUBLIC "-//W3C//DTD SVG 1.1//EN" "http://www.w3.org/Graphics/SVG/1.1/DTD/svg11.dtd">
<svg width="320pt" height="240pt" viewBox="0 0 320 240" version="1.1" xmlns="http://www.w3.org/2000/svg">
<g id="#040404dd">
<path fill="#040404" opacity="0.87" d=" M 126.05 26.60 C 131.74 25.80 137.16 23.39 142.98 23.46 C 148.98 23.62 155.34 22.56 160.94 25.32 C 163.98 27.12 167.45 25.51 170.69 25.32 C 170.67 25.85 170.63 26.92 170.60 27.45 C 169.54 28.09 168.48 28.74 167.42 29.39 C 172.98 34.18 179.39 38.06 184.24 43.62 C 184.28 43.95 184.38 44.63 184.43 44.96 C 184.39 46.54 184.29 48.11 184.20 49.69 C 183.04 47.00 182.52 43.81 179.90 42.07 C 174.98 38.23 170.31 33.87 164.72 31.04 C 163.01 29.18 161.59 27.03 159.59 25.46 C 154.21 23.83 148.51 23.73 142.94 24.09 C 141.88 24.20 140.93 24.57 140.07 25.20 C 138.29 25.14 136.27 24.47 134.65 25.46 C 135.47 27.34 138.45 26.03 140.02 25.75 C 133.38 28.03 126.25 28.28 119.49 30.13 C 116.15 30.62 112.63 30.86 109.82 32.98 C 106.01 35.57 101.35 36.12 96.86 35.70 C 99.12 31.96 104.36 34.07 107.58 31.59 C 113.06 27.91 119.82 28.00 126.05 26.60 Z" />
</g>
<g id="#020202fe">
<path fill="#020202" opacity="1.00" d=" M 140.07 25.20 C 140.93 24.57 141.88 24.20 142.94 24.09 C 148.51 23.73 154.21 23.83 159.59 25.46 C 161.59 27.03 163.01 29.18 164.72 31.04 C 162.30 33.57 159.61 35.81 157.09 38.24 C 159.22 38.41 161.36 38.48 163.50 38.54 C 163.47 39.24 163.41 40.63 163.38 41.32 C 158.85 41.92 153.04 38.13 149.64 42.58 C 144.91 47.57 149.42 54.98 146.24 60.43 C 144.79 58.69 143.34 56.96 141.78 55.33 C 142.35 53.03 142.96 50.74 143.51 48.44 C 141.69 50.04 140.00 51.81 138.72 53.87 C 138.08 55.84 139.82 59.57 137.37 60.21 C 136.45 59.07 135.64 57.86 134.80 56.67 C 134.35 57.12 133.45 58.02 133.00 58.48 C 134.38 60.29 135.72 62.14 137.31 63.78 C 139.16 63.62 140.10 61.72 141.41 60.64 C 142.50 61.17 143.59 61.70 144.68 62.25 C 142.33 65.29 139.60 68.04 137.41 71.20 C 135.17 76.02 135.24 81.49 135.47 86.69 C 132.55 87.99 129.47 89.84 126.18 88.70 C 126.97 87.09 127.78 85.50 128.58 83.90 C 127.15 81.72 125.73 79.54 124.59 77.21 C 125.09 75.89 125.58 74.58 126.08 73.26 C 126.68 73.46 127.89 73.85 128.49 74.05 C 128.49 74.46 128.49 75.30 128.49 75.71 C 127.87 78.46 129.27 80.71 131.28 82.44 C 131.38 82.06 131.59 81.31 131.69 80.93 C 132.47 78.52 132.75 76.00 132.90 73.49 C 131.77 73.21 130.63 72.93 129.50 72.66 C 130.27 69.95 130.90 67.20 131.24 64.40 C 129.16 65.77 127.82 67.85 126.70 70.01 C 126.70 68.30 126.68 66.60 126.74 64.90 C 128.43 60.82 129.97 56.67 131.45 52.51 C 133.12 52.73 134.78 53.02 136.43 53.34 C 136.97 51.29 137.03 49.17 136.72 47.08 C 135.66 48.94 134.70 50.86 133.83 52.81 C 131.50 50.27 132.40 46.70 132.24 43.58 C 134.13 44.11 136.04 44.60 137.98 44.97 C 138.60 45.82 139.24 46.66 139.88 47.49 C 144.76 47.19 145.07 41.97 144.11 38.29 C 140.34 38.25 136.58 37.89 132.82 37.55 C 135.42 37.40 138.02 37.29 140.60 37.01 C 140.74 36.65 141.02 35.93 141.16 35.57 C 142.09 32.54 143.29 29.53 143.43 26.33 C 143.79 24.41 141.17 24.81 140.07 25.20 M 147.37 26.24 C 147.51 29.57 146.90 33.02 147.83 36.26 C 148.39 36.35 149.53 36.55 150.10 36.64 C 152.84 33.13 155.89 29.90 159.05 26.74 C 155.18 26.25 151.27 26.13 147.37 26.24 M 154.85 35.63 C 157.93 34.30 161.25 32.42 162.22 28.96 C 159.24 30.44 155.55 31.96 154.85 35.63 M 147.37 38.11 C 145.45 38.52 146.29 41.63 148.16 41.05 C 150.12 40.66 149.25 37.50 147.37 38.11 Z" />
</g>
<g id="#151515f0">
<path fill="#151515" opacity="0.94" d=" M 134.65 25.46 C 136.27 24.47 138.29 25.14 140.07 25.20 L 140.02 25.75 C 138.45 26.03 135.47 27.34 134.65 25.46 Z" />
</g>
<g id="#585858ff">
<path fill="#585858" opacity="1.00" d=" M 140.07 25.20 C 141.17 24.81 143.79 24.41 143.43 26.33 C 142.58 26.18 140.88 25.89 140.02 25.75 L 140.07 25.20 Z" />
</g>
<g id="#fcfcfcfe">
<path fill="#fcfcfc" opacity="1.00" d=" M 140.02 25.75 C 140.88 25.89 142.58 26.18 143.43 26.33 C 143.29 29.53 142.09 32.54 141.16 35.57 C 136.91 35.61 132.47 36.28 128.41 34.70 C 122.52 32.07 115.92 34.65 109.82 32.98 C 112.63 30.86 116.15 30.62 119.49 30.13 C 126.25 28.28 133.38 28.03 140.02 25.75 Z" />
<path fill="#fcfcfc" opacity="1.00" d=" M 147.37 26.24 C 151.27 26.13 155.18 26.25 159.05 26.74 C 155.89 29.90 152.84 33.13 150.10 36.64 C 149.53 36.55 148.39 36.35 147.83 36.26 C 146.90 33.02 147.51 29.57 147.37 26.24 Z" />
<path fill="#fcfcfc" opacity="1.00" d=" M 138.72 53.87 C 140.00 51.81 141.69 50.04 143.51 48.44 C 142.96 50.74 142.35 53.03 141.78 55.33 C 141.00 55.70 140.22 56.08 139.44 56.46 C 139.26 55.81 138.90 54.52 138.72 53.87 Z" />
<path fill="#fcfcfc" opacity="1.00" d=" M 115.40 125.44 C 117.67 123.40 119.67 121.08 121.90 118.99 C 123.10 120.14 124.42 121.20 125.44 122.53 C 126.42 125.22 126.20 128.70 129.48 129.77 C 129.14 132.92 130.40 136.62 128.20 139.28 C 124.80 140.75 120.25 138.66 118.91 135.25 C 118.19 133.63 116.66 132.66 115.39 131.51 C 115.37 129.49 115.38 127.46 115.40 125.44 Z" />
<path fill="#fcfcfc" opacity="1.00" d=" M 129.39 191.36 C 131.98 188.71 135.69 186.65 139.52 187.50 C 141.33 189.36 142.33 191.90 144.47 193.46 C 145.84 194.87 148.49 196.14 147.66 198.51 C 143.04 201.59 137.75 203.43 132.76 205.80 C 129.17 206.46 126.56 208.99 123.80 211.15 C 120.69 212.08 118.10 209.14 115.03 209.41 C 109.16 209.76 103.47 208.11 97.59 208.37 C 98.60 207.10 99.81 206.00 101.17 205.12 C 104.12 203.16 106.44 200.37 109.52 198.59 C 111.48 197.80 112.76 199.89 114.12 200.89 C 116.76 203.00 119.16 205.44 122.07 207.19 C 124.22 201.80 126.15 196.23 129.39 191.36 Z" />
<path fill="#fcfcfc" opacity="1.00" d=" M 53.59 201.71 C 57.46 204.27 58.68 208.97 61.69 212.29 C 64.40 215.20 67.91 217.23 71.64 218.53 C 75.98 220.06 79.71 222.83 83.58 225.25 C 75.62 225.89 67.63 225.19 59.66 225.64 C 57.93 221.45 56.19 217.27 54.63 213.02 C 54.08 209.27 53.23 205.53 53.59 201.71 Z" />
</g>
<g id="#fafafafe">
<path fill="#fafafa" opacity="1.00" d=" M 154.85 35.63 C 155.55 31.96 159.24 30.44 162.22 28.96 C 161.25 32.42 157.93 34.30 154.85 35.63 Z" />
<path fill="#fafafa" opacity="1.00" d=" M 188.75 57.05 C 189.31 58.46 189.91 59.87 190.50 61.27 C 195.71 61.92 197.81 67.03 199.95 71.11 C 200.81 72.79 200.60 74.73 200.67 76.55 C 197.31 73.26 196.16 68.49 193.16 64.92 C 192.76 65.69 191.95 67.21 191.54 67.98 C 189.26 64.79 188.83 60.85 188.75 57.05 Z" />
<path fill="#fafafa" opacity="1.00" d=" M 91.40 70.29 C 92.67 70.42 93.95 70.55 95.23 70.67 C 95.32 71.33 95.49 72.65 95.58 73.30 C 94.19 73.21 92.81 73.07 91.44 72.89 C 91.43 72.24 91.41 70.94 91.40 70.29 Z" />
</g>
<g id="#761e22bb">
<path fill="#761e22" opacity="0.73" d=" M 211.38 30.52 C 214.20 30.58 217.03 30.60 219.86 30.60 C 219.47 31.20 219.08 31.79 218.69 32.38 C 217.48 32.07 216.27 31.76 215.07 31.46 C 214.62 32.19 213.73 33.65 213.29 34.38 C 215.07 34.87 216.87 35.32 218.67 35.75 C 218.67 36.16 218.67 36.99 218.67 37.40 C 217.19 37.72 215.71 38.06 214.23 38.40 C 213.92 39.80 213.62 41.20 213.34 42.61 C 212.84 42.64 211.84 42.72 211.34 42.76 C 211.25 38.68 211.22 34.60 211.38 30.52 Z" />
</g>
<g id="#38131266">
<path fill="#381312" opacity="0.40" d=" M 222.49 30.48 C 225.55 30.20 228.66 30.12 231.66 30.94 C 229.76 31.74 227.83 32.46 225.89 33.18 C 225.46 32.53 224.61 31.22 224.18 30.57 C 222.15 34.44 222.71 38.86 223.66 42.95 C 225.01 40.12 227.12 37.18 226.30 33.87 C 227.39 34.95 229.76 35.48 229.55 37.34 C 228.52 37.82 227.48 38.27 226.43 38.68 C 226.04 40.26 225.68 41.84 225.31 43.41 C 224.71 43.56 223.51 43.85 222.91 43.99 C 221.67 39.58 222.25 34.98 222.49 30.48 Z" />
</g>
<g id="#6c1f20b7">
<path fill="#6c1f20" opacity="0.72" d=" M 234.57 30.61 C 237.08 30.56 239.61 30.57 242.13 30.63 C 240.55 31.23 238.95 31.78 237.36 32.36 C 237.32 32.97 237.24 34.18 237.20 34.79 C 238.65 35.12 240.12 35.43 241.58 35.73 C 241.56 36.12 241.53 36.90 241.51 37.30 C 240.16 37.68 238.83 38.07 237.49 38.47 C 236.93 40.38 236.35 42.29 235.66 44.16 C 233.24 40.08 234.63 35.10 234.57 30.61 Z" />
</g>
<g id="#722128b5">
<path fill="#722128" opacity="0.71" d=" M 245.61 30.62 C 248.49 30.56 251.37 30.54 254.24 30.73 C 252.72 32.40 250.44 32.29 248.37 32.32 C 248.51 35.44 251.92 35.61 254.14 36.76 C 252.29 37.38 250.42 37.97 248.56 38.54 C 248.20 40.25 247.84 41.96 247.48 43.67 C 247.01 43.56 246.08 43.35 245.61 43.25 C 245.40 39.04 245.39 34.83 245.61 30.62 Z" />
</g>
<g id="#1e0c0f3e">
<path fill="#1e0c0f" opacity="0.24" d=" M 257.13 30.20 C 259.72 30.15 262.31 30.02 264.90 29.94 C 264.87 30.65 264.81 32.08 264.79 32.79 C 263.52 32.80 262.25 32.82 260.99 32.86 C 260.05 31.53 258.57 30.84 257.13 30.20 Z" />
</g>
<g id="#3012145e">
<path fill="#301214" opacity="0.37" d=" M 268.02 31.38 C 270.18 29.48 273.29 30.36 275.90 30.21 C 275.95 30.75 276.05 31.84 276.11 32.39 C 274.56 32.43 273.01 32.49 271.46 32.57 C 271.65 34.88 273.80 35.46 275.74 35.74 C 275.75 36.30 275.77 37.41 275.78 37.97 C 274.59 38.02 273.40 38.06 272.21 38.11 C 271.63 35.94 270.79 33.84 270.30 31.64 C 269.54 31.56 268.78 31.48 268.02 31.38 Z" />
</g>
<g id="#38151765">
<path fill="#381517" opacity="0.40" d=" M 280.20 29.91 C 283.28 30.15 286.39 30.33 289.37 31.20 C 287.23 32.11 284.98 32.73 282.74 33.31 C 284.27 34.18 285.84 35.00 287.42 35.79 C 287.54 36.35 287.78 37.47 287.90 38.03 C 286.30 38.14 284.71 38.24 283.12 38.32 C 283.75 35.39 282.09 32.77 280.54 30.45 L 280.20 29.91 Z" />
</g>
<g id="#a9251efe">
<path fill="#a9251e" opacity="1.00" d=" M 223.66 42.95 C 222.71 38.86 222.15 34.44 224.18 30.57 C 224.61 31.22 225.46 32.53 225.89 33.18 L 226.30 33.87 C 227.12 37.18 225.01 40.12 223.66 42.95 Z" />
</g>
<g id="#591a1c98">
<path fill="#591a1c" opacity="0.60" d=" M 257.13 30.20 C 258.57 30.84 260.05 31.53 260.99 32.86 C 261.96 34.15 262.87 35.50 263.63 36.94 C 262.79 37.67 261.85 38.28 260.97 38.95 C 260.18 40.69 259.82 42.85 257.93 43.78 C 255.21 39.87 256.91 34.62 257.13 30.20 M 257.60 33.83 C 257.53 36.69 257.68 39.56 258.06 42.40 C 259.71 39.50 260.91 36.23 260.09 32.86 C 259.66 31.30 256.74 32.16 257.60 33.83 Z" />
</g>
<g id="#9a2520f0">
<path fill="#9a2520" opacity="0.94" d=" M 268.02 31.38 C 268.78 31.48 269.54 31.56 270.30 31.64 C 270.79 33.84 271.63 35.94 272.21 38.11 C 271.65 39.64 270.99 41.13 270.40 42.65 C 269.88 42.69 268.86 42.77 268.35 42.81 C 268.33 39.00 268.44 35.18 268.02 31.38 Z" />
</g>
<g id="#8c2720e6">
<path fill="#8c2720" opacity="0.90" d=" M 279.89 43.66 C 279.35 39.33 278.52 34.50 280.54 30.45 C 282.09 32.77 283.75 35.39 283.12 38.32 C 282.79 39.95 282.43 41.58 282.11 43.21 C 281.56 43.32 280.45 43.55 279.89 43.66 Z" />
</g>
<g id="#242424fe">
<path fill="#242424" opacity="1.00" d=" M 96.86 35.70 C 101.35 36.12 106.01 35.57 109.82 32.98 C 115.92 34.65 122.52 32.07 128.41 34.70 C 132.47 36.28 136.91 35.61 141.16 35.57 C 141.02 35.93 140.74 36.65 140.60 37.01 C 138.02 37.29 135.42 37.40 132.82 37.55 C 136.58 37.89 140.34 38.25 144.11 38.29 C 141.71 40.81 140.63 44.17 139.88 47.49 C 139.24 46.66 138.60 45.82 137.98 44.97 C 138.60 42.94 139.21 40.90 139.75 38.84 C 134.37 39.16 129.15 38.03 124.02 36.61 C 113.69 36.40 103.11 35.93 93.06 38.70 C 94.34 37.73 95.61 36.72 96.86 35.70 Z" />
</g>
<g id="#fdfdfdfe">
<path fill="#fdfdfd" opacity="1.00" d=" M 164.72 31.04 C 170.31 33.87 174.98 38.23 179.90 42.07 C 182.52 43.81 183.04 47.00 184.20 49.69 C 186.12 51.87 188.00 54.17 188.75 57.05 C 188.83 60.85 189.26 64.79 191.54 67.98 C 196.36 76.68 205.19 83.36 206.65 93.68 C 207.87 97.64 210.36 101.15 210.86 105.36 C 211.88 112.18 216.22 117.86 217.65 124.59 C 218.04 128.44 218.48 132.33 219.61 136.05 C 220.34 138.31 221.58 140.48 221.51 142.93 C 221.65 152.55 221.28 162.19 221.61 171.80 C 224.36 176.65 223.88 182.30 223.58 187.69 C 222.97 188.73 222.13 189.61 221.36 190.54 C 218.93 193.03 218.10 196.50 216.61 199.55 C 215.29 202.18 214.49 205.02 213.80 207.87 C 212.17 213.85 210.01 219.66 208.11 225.56 C 167.61 225.50 127.10 225.42 86.60 225.59 L 86.28 225.10 C 84.77 221.25 80.55 220.56 77.42 218.56 C 72.87 215.77 67.25 214.61 63.52 210.57 C 62.11 208.52 61.20 206.16 59.75 204.14 C 58.14 201.75 55.64 200.08 54.20 197.58 C 53.49 195.82 53.58 193.87 53.08 192.06 C 51.45 185.18 50.19 178.15 47.28 171.67 C 44.70 166.15 44.87 159.89 42.68 154.25 C 40.58 148.67 41.86 142.66 42.33 136.91 C 42.82 129.50 42.30 122.07 42.46 114.65 C 43.69 110.61 45.42 106.79 47.23 102.99 C 47.72 98.60 46.98 94.07 48.18 89.76 C 50.04 84.24 55.01 80.86 58.68 76.64 C 61.92 73.61 64.32 69.85 66.85 66.24 C 72.64 67.06 78.72 67.91 83.56 71.49 C 88.52 74.38 91.91 79.06 95.82 83.12 C 95.05 83.62 94.27 84.11 93.50 84.60 C 89.48 83.60 85.25 83.12 81.15 83.90 C 75.87 86.00 71.07 89.14 66.59 92.60 C 64.98 93.82 64.42 95.85 63.82 97.68 C 63.16 99.79 62.54 101.91 61.77 103.99 C 60.33 107.25 59.36 111.25 62.13 114.12 C 63.61 116.10 63.41 118.57 63.65 120.89 C 64.01 123.84 64.21 126.86 65.22 129.68 C 68.24 132.33 70.90 135.53 74.45 137.50 C 80.06 137.72 85.83 138.05 91.39 137.33 C 97.89 131.85 103.80 125.63 108.58 118.58 C 114.28 113.00 116.25 104.67 115.43 96.92 C 111.62 94.74 107.85 92.35 105.01 88.94 C 100.73 84.84 96.37 80.76 92.78 76.01 C 95.38 75.42 97.90 74.52 100.27 73.31 C 98.48 71.23 97.11 67.97 93.96 67.84 C 85.90 67.49 78.02 65.11 70.93 61.32 C 76.01 55.29 81.64 49.75 86.70 43.70 C 88.69 41.89 90.93 40.36 93.06 38.70 C 103.11 35.93 113.69 36.40 124.02 36.61 C 129.15 38.03 134.37 39.16 139.75 38.84 C 139.21 40.90 138.60 42.94 137.98 44.97 C 136.04 44.60 134.13 44.11 132.24 43.58 C 132.40 46.70 131.50 50.27 133.83 52.81 C 134.70 50.86 135.66 48.94 136.72 47.08 C 137.03 49.17 136.97 51.29 136.43 53.34 C 134.78 53.02 133.12 52.73 131.45 52.51 C 129.97 56.67 128.43 60.82 126.74 64.90 C 125.24 68.80 123.79 72.98 124.59 77.21 C 125.73 79.54 127.15 81.72 128.58 83.90 C 127.78 85.50 126.97 87.09 126.18 88.70 C 129.47 89.84 132.55 87.99 135.47 86.69 C 135.24 81.49 135.17 76.02 137.41 71.20 C 139.60 68.04 142.33 65.29 144.68 62.25 C 145.21 61.65 145.72 61.04 146.24 60.43 C 149.42 54.98 144.91 47.57 149.64 42.58 C 153.04 38.13 158.85 41.92 163.38 41.32 C 163.41 40.63 163.47 39.24 163.50 38.54 C 161.36 38.48 159.22 38.41 157.09 38.24 C 159.61 35.81 162.30 33.57 164.72 31.04 M 155.82 59.40 C 158.39 60.05 160.65 58.37 163.13 58.04 C 161.78 60.51 158.71 60.91 156.88 62.88 C 154.50 65.18 152.09 67.46 149.53 69.58 C 142.73 75.66 137.79 84.97 139.85 94.25 C 142.62 97.78 145.83 101.04 147.82 105.12 C 149.05 107.56 151.58 108.83 153.78 110.24 C 160.69 115.30 169.46 117.80 178.01 117.32 C 182.49 117.06 187.50 118.38 191.32 115.32 C 196.12 113.17 199.25 108.73 201.16 103.98 C 201.26 99.86 202.16 95.19 199.33 91.72 C 197.67 89.72 197.84 87.07 197.14 84.72 C 195.10 81.27 191.89 78.61 190.40 74.81 C 189.35 71.58 185.31 71.08 183.99 68.08 C 181.94 64.25 178.52 61.45 175.51 58.42 C 173.25 57.16 170.78 55.03 168.05 55.97 C 165.28 56.79 162.40 56.39 159.73 55.43 C 158.32 56.65 157.02 57.98 155.82 59.40 M 117.48 119.50 C 113.26 122.85 111.65 128.23 107.62 131.77 C 105.75 137.47 104.90 143.34 105.22 149.34 C 102.75 152.72 104.10 157.24 101.89 160.77 C 101.05 164.81 101.89 169.12 100.29 173.08 C 98.58 175.94 98.18 179.28 98.29 182.56 C 97.53 186.82 93.32 189.57 93.38 194.03 C 92.39 198.21 88.13 201.39 88.59 206.03 C 92.08 208.43 96.21 209.62 100.03 211.39 C 105.35 211.39 110.53 212.77 115.88 212.40 C 119.29 213.76 122.91 213.98 126.55 213.60 C 127.59 212.33 128.25 210.61 129.74 209.79 C 146.59 204.23 160.58 192.89 175.02 183.00 C 177.24 181.67 179.07 179.05 181.93 179.46 C 186.80 179.24 191.73 179.95 196.56 179.29 C 199.34 178.08 202.66 177.80 205.06 175.89 C 208.59 169.43 207.24 161.95 207.52 154.93 C 207.52 153.01 207.91 150.60 205.81 149.56 C 204.81 145.65 201.70 142.71 199.88 139.17 C 198.50 136.78 197.90 133.97 196.19 131.77 C 193.36 128.62 190.45 125.34 186.53 123.53 C 183.43 122.72 180.03 123.07 177.95 125.73 C 174.97 124.60 171.90 123.61 169.28 121.74 C 163.22 119.63 158.64 114.30 152.01 113.53 C 149.57 113.43 147.39 112.23 145.02 111.77 C 140.01 111.47 134.98 111.06 129.96 111.39 C 125.66 113.84 120.76 115.62 117.48 119.50 Z" />
<path fill="#fdfdfd" opacity="1.00" d=" M 167.89 58.06 C 174.01 58.98 177.41 64.52 181.13 68.81 C 182.79 72.78 187.65 73.90 189.16 77.97 C 190.81 81.81 194.77 84.49 195.01 88.89 C 195.25 91.29 197.25 92.90 198.18 95.02 C 198.64 100.05 198.87 105.96 194.52 109.47 C 191.60 111.48 189.00 114.99 185.06 114.37 C 177.47 114.07 169.40 115.52 162.39 111.81 C 157.79 110.64 154.22 107.35 150.77 104.27 C 148.29 100.36 145.87 96.34 142.44 93.17 C 142.48 90.38 142.54 87.59 142.76 84.80 C 144.97 79.73 147.50 74.35 152.16 71.09 C 155.45 68.48 157.54 64.34 161.63 62.80 C 164.03 61.58 167.22 61.14 167.89 58.06 M 170.58 70.35 C 169.94 74.19 170.43 78.16 170.51 82.04 C 172.42 82.40 174.34 82.66 176.28 82.81 C 178.22 85.04 181.66 84.94 184.24 84.17 C 185.85 82.87 189.33 81.37 187.19 78.97 C 185.82 77.37 184.76 80.36 183.56 80.86 C 182.17 82.23 179.95 81.22 178.25 81.21 C 177.01 79.70 175.16 79.25 173.32 79.03 C 173.38 75.61 173.62 72.07 172.16 68.87 C 171.76 69.24 170.98 69.98 170.58 70.35 Z" />
<path fill="#fdfdfd" opacity="1.00" d=" M 81.86 86.78 C 88.04 85.30 94.62 86.74 100.06 89.91 C 104.01 92.62 104.54 97.45 106.78 101.29 C 108.32 101.88 110.03 101.65 111.65 101.74 C 109.96 100.03 108.21 98.38 106.63 96.58 C 108.24 96.45 109.88 96.19 111.49 96.48 C 112.87 98.44 114.17 100.79 113.35 103.25 C 111.66 112.76 104.08 119.29 98.86 126.89 C 95.91 129.70 92.86 132.44 89.77 135.10 C 85.86 135.57 81.90 135.37 77.98 135.26 C 72.80 134.56 69.24 130.19 66.97 125.83 C 66.69 122.21 66.49 118.59 66.19 114.98 C 69.11 113.98 72.63 114.23 74.98 111.94 C 76.42 110.46 78.68 109.12 78.63 106.81 C 78.92 103.97 77.10 101.37 74.86 99.82 C 71.95 99.22 68.98 99.83 66.30 101.00 C 69.20 102.28 72.46 102.44 75.31 103.81 C 76.85 107.15 73.77 110.09 70.82 111.02 C 68.37 111.51 65.85 111.57 63.37 111.78 C 63.39 107.58 64.98 103.62 65.44 99.47 C 68.95 93.20 75.53 89.60 81.86 86.78 Z" />
<path fill="#fdfdfd" opacity="1.00" d=" M 142.46 114.60 C 146.81 114.60 150.99 116.06 155.18 117.06 C 161.06 119.88 166.15 124.19 172.33 126.45 C 177.56 128.21 182.38 131.53 188.05 131.64 C 186.10 129.48 183.59 127.98 181.12 126.49 C 183.11 125.61 185.44 125.00 187.17 126.77 C 196.46 132.53 197.52 144.77 205.56 151.67 C 204.81 158.82 206.99 166.56 203.06 173.08 C 198.57 177.09 192.21 176.74 186.59 176.56 C 186.02 170.97 188.19 165.69 188.68 160.18 C 190.39 160.32 192.12 160.33 193.81 160.68 C 196.50 163.28 199.12 165.96 202.18 168.13 C 202.37 167.39 202.75 165.91 202.94 165.17 C 200.57 163.26 198.36 161.18 196.19 159.06 C 193.31 156.32 188.81 157.21 185.50 158.62 C 184.91 160.84 184.59 163.12 184.28 165.40 C 182.72 164.20 180.83 163.26 179.86 161.47 C 177.14 156.14 172.38 152.27 167.90 148.47 C 164.64 148.44 161.77 150.45 158.94 151.85 C 155.71 153.47 154.86 157.25 152.54 159.74 C 150.93 159.84 149.36 159.41 147.83 159.01 C 144.92 158.30 141.14 157.41 138.84 159.89 C 133.04 164.62 131.55 172.35 129.01 179.00 C 133.54 178.78 133.92 173.67 135.14 170.32 C 136.33 166.22 139.57 163.28 142.24 160.13 C 146.17 161.60 150.05 163.36 154.39 162.64 C 156.47 157.05 161.24 152.94 166.85 151.13 C 170.64 154.45 174.53 157.90 177.31 162.16 C 175.80 163.05 174.23 163.84 172.82 164.89 C 170.82 168.25 169.65 172.03 168.18 175.64 C 167.77 175.65 166.93 175.68 166.52 175.69 C 165.67 174.32 164.82 172.94 163.98 171.57 C 159.08 171.01 153.71 172.53 150.67 176.54 C 149.10 181.75 147.66 187.07 147.39 192.54 C 145.12 190.00 143.11 187.24 141.14 184.45 C 136.77 184.05 132.27 184.98 128.93 187.97 C 124.74 191.96 122.11 197.37 121.15 203.06 C 117.82 201.27 115.49 198.29 112.74 195.80 C 111.34 195.37 109.70 195.33 108.43 196.17 C 103.75 198.97 99.55 202.62 96.17 206.91 C 94.48 205.89 92.79 204.87 91.11 203.85 C 93.10 200.24 96.02 197.07 97.06 193.01 C 97.89 189.87 99.57 187.07 100.65 184.03 C 100.72 183.72 100.84 183.08 100.91 182.76 C 101.67 177.89 103.99 173.40 104.45 168.46 C 104.75 161.64 106.62 155.06 107.52 148.32 C 109.48 148.42 111.48 149.01 113.43 148.56 C 116.52 146.76 119.66 144.44 119.95 140.56 C 122.86 142.50 126.28 142.91 129.70 142.67 C 132.73 139.42 132.42 135.04 132.47 130.93 C 132.86 130.84 133.64 130.65 134.03 130.56 C 136.72 132.01 139.36 134.25 142.51 132.55 C 142.51 129.45 142.51 126.36 142.63 123.27 C 145.91 124.31 148.99 126.48 152.49 126.55 C 154.75 125.07 155.85 122.58 155.69 119.91 C 154.06 121.16 152.52 122.51 150.97 123.85 C 148.13 122.50 145.13 121.37 142.56 119.53 C 142.41 117.89 142.47 116.24 142.46 114.60 Z" />
<path fill="#fdfdfd" opacity="1.00" d=" M 112.05 130.70 C 113.91 132.95 115.67 135.29 117.49 137.57 C 115.62 136.88 113.74 136.24 111.83 135.72 C 112.31 138.90 115.60 139.77 117.92 141.32 C 114.94 144.25 111.75 147.31 107.50 148.16 C 107.53 145.83 107.61 143.50 107.73 141.18 C 108.28 139.26 108.87 137.36 109.49 135.47 C 110.27 133.84 111.17 132.28 112.05 130.70 Z" />
<path fill="#fdfdfd" opacity="1.00" d=" M 175.70 165.66 C 177.30 165.53 178.91 165.38 180.51 165.26 C 181.55 166.60 182.74 167.85 183.61 169.32 C 183.79 171.70 183.66 174.09 183.62 176.48 C 181.61 176.96 179.57 177.30 177.56 177.78 C 174.02 180.55 170.14 182.84 166.79 185.85 C 161.27 189.20 155.75 192.56 150.86 196.80 C 147.86 194.79 150.99 191.71 150.56 188.99 C 150.21 186.05 152.41 183.82 152.93 181.06 C 153.54 177.71 156.21 173.93 160.02 174.50 C 163.66 173.79 164.39 178.15 166.12 180.32 C 168.36 181.13 169.43 178.71 170.22 177.08 C 171.85 173.18 173.81 169.43 175.70 165.66 Z" />
</g>
<g id="#9f2327ee">
<path fill="#9f2327" opacity="0.93" d=" M 257.60 33.83 C 256.74 32.16 259.66 31.30 260.09 32.86 C 260.91 36.23 259.71 39.50 258.06 42.40 C 257.68 39.56 257.53 36.69 257.60 33.83 Z" />
</g>
<g id="#030303fe">
<path fill="#030303" opacity="1.00" d=" M 83.42 43.45 C 86.56 39.17 91.01 34.62 96.86 35.70 C 95.61 36.72 94.34 37.73 93.06 38.70 C 90.93 40.36 88.69 41.89 86.70 43.70 C 81.64 49.75 76.01 55.29 70.93 61.32 C 78.02 65.11 85.90 67.49 93.96 67.84 C 97.11 67.97 98.48 71.23 100.27 73.31 C 97.90 74.52 95.38 75.42 92.78 76.01 C 96.37 80.76 100.73 84.84 105.01 88.94 C 107.85 92.35 111.62 94.74 115.43 96.92 C 116.25 104.67 114.28 113.00 108.58 118.58 C 103.80 125.63 97.89 131.85 91.39 137.33 C 85.83 138.05 80.06 137.72 74.45 137.50 C 70.90 135.53 68.24 132.33 65.22 129.68 C 65.22 128.30 65.21 126.92 65.20 125.55 C 65.64 125.62 66.52 125.76 66.97 125.83 C 69.24 130.19 72.80 134.56 77.98 135.26 C 81.90 135.37 85.86 135.57 89.77 135.10 C 92.86 132.44 95.91 129.70 98.86 126.89 C 104.08 119.29 111.66 112.76 113.35 103.25 C 114.17 100.79 112.87 98.44 111.49 96.48 C 109.88 96.19 108.24 96.45 106.63 96.58 C 108.21 98.38 109.96 100.03 111.65 101.74 C 110.03 101.65 108.32 101.88 106.78 101.29 C 104.54 97.45 104.01 92.62 100.06 89.91 C 99.04 88.02 98.18 86.05 97.27 84.11 C 96.04 84.42 94.78 84.70 93.50 84.60 C 94.27 84.11 95.05 83.62 95.82 83.12 C 91.91 79.06 88.52 74.38 83.56 71.49 C 78.72 67.91 72.64 67.06 66.85 66.24 C 64.32 69.85 61.92 73.61 58.68 76.64 C 55.01 80.86 50.04 84.24 48.18 89.76 C 46.98 94.07 47.72 98.60 47.23 102.99 C 45.42 106.79 43.69 110.61 42.46 114.65 C 40.32 119.50 41.53 124.90 41.27 130.01 C 41.33 138.61 38.39 147.69 41.92 155.95 C 43.62 160.43 43.38 165.40 45.28 169.82 C 47.75 175.67 49.88 181.79 50.39 188.16 C 48.82 185.66 47.79 182.89 47.13 180.03 C 46.21 175.53 43.23 171.69 43.10 166.99 C 42.85 162.08 41.31 157.45 39.67 152.87 C 39.37 143.26 39.70 133.63 39.54 124.01 C 38.92 115.94 42.00 108.20 45.30 101.00 C 45.08 100.27 44.62 98.81 44.39 98.08 C 43.44 99.58 42.55 101.12 41.63 102.65 C 38.90 97.18 43.80 92.59 46.29 88.15 C 47.47 86.26 48.61 84.34 49.87 82.50 C 51.86 79.40 54.98 77.14 56.57 73.75 C 57.63 71.48 59.21 69.51 61.17 67.94 C 61.42 67.71 61.93 67.23 62.18 66.99 C 62.57 65.26 62.80 63.49 63.03 61.73 C 64.59 61.69 66.14 61.65 67.69 61.61 C 68.53 60.46 69.37 59.31 70.24 58.19 C 74.95 53.54 78.62 48.02 83.42 43.45 M 91.40 70.29 C 91.41 70.94 91.43 72.24 91.44 72.89 C 92.81 73.07 94.19 73.21 95.58 73.30 C 95.49 72.65 95.32 71.33 95.23 70.67 C 93.95 70.55 92.67 70.42 91.40 70.29 Z" />
</g>
<g id="#626262ff">
<path fill="#626262" opacity="1.00" d=" M 147.37 38.11 C 149.25 37.50 150.12 40.66 148.16 41.05 C 146.29 41.63 145.45 38.52 147.37 38.11 Z" />
</g>
<g id="#d9d9d9ff">
<path fill="#d9d9d9" opacity="1.00" d=" M 139.88 47.49 C 140.63 44.17 141.71 40.81 144.11 38.29 C 145.07 41.97 144.76 47.19 139.88 47.49 Z" />
</g>
<g id="#050505fd">
<path fill="#050505" opacity="1.00" d=" M 184.20 49.69 C 184.29 48.11 184.39 46.54 184.43 44.96 C 187.04 47.58 189.39 50.44 191.60 53.41 C 193.81 56.43 197.36 58.46 198.65 62.11 C 199.53 64.64 201.01 66.87 202.41 69.13 C 202.89 71.77 202.61 74.48 202.74 77.15 C 203.16 74.09 203.22 70.99 203.47 67.91 C 202.90 73.86 204.20 79.77 206.80 85.10 C 210.26 89.97 213.50 94.99 216.61 100.08 C 218.81 106.13 222.27 111.76 223.50 118.14 C 223.87 124.19 223.06 130.31 224.31 136.31 C 224.55 141.18 224.89 146.08 224.74 150.96 C 223.00 164.60 224.92 178.31 225.82 191.92 C 224.78 196.03 220.97 198.65 219.94 202.76 C 217.43 210.12 214.21 217.21 211.12 224.33 C 210.73 225.62 209.11 225.28 208.11 225.56 C 210.01 219.66 212.17 213.85 213.80 207.87 C 215.84 203.36 218.31 199.05 220.26 194.49 C 221.47 194.43 222.69 194.38 223.91 194.32 C 223.05 193.06 222.20 191.80 221.36 190.54 C 222.13 189.61 222.97 188.73 223.58 187.69 C 223.88 182.30 224.36 176.65 221.61 171.80 C 221.28 162.19 221.65 152.55 221.51 142.93 C 221.58 140.48 220.34 138.31 219.61 136.05 C 219.36 133.34 219.90 130.65 221.32 128.33 C 223.31 125.07 222.41 121.11 222.55 117.50 C 222.11 117.58 221.23 117.73 220.79 117.81 C 220.95 110.40 214.94 104.98 213.60 97.93 C 212.82 99.28 212.10 100.67 211.59 102.15 C 211.40 102.95 211.04 104.56 210.86 105.36 C 210.36 101.15 207.87 97.64 206.65 93.68 C 205.19 83.36 196.36 76.68 191.54 67.98 C 191.95 67.21 192.76 65.69 193.16 64.92 C 196.16 68.49 197.31 73.26 200.67 76.55 C 200.60 74.73 200.81 72.79 199.95 71.11 C 197.81 67.03 195.71 61.92 190.50 61.27 C 189.91 59.87 189.31 58.46 188.75 57.05 C 188.00 54.17 186.12 51.87 184.20 49.69 Z" />
</g>
<g id="#722329b7">
<path fill="#722329" opacity="0.72" d=" M 211.43 51.45 C 214.16 51.38 216.89 51.35 219.62 51.38 C 219.62 51.86 219.61 52.82 219.61 53.31 C 217.36 53.63 215.14 54.14 213.00 54.90 C 214.40 56.88 216.55 57.71 218.88 57.96 C 217.36 58.36 215.84 58.79 214.34 59.24 C 213.97 60.96 213.63 62.68 213.29 64.40 C 212.80 64.50 211.81 64.70 211.32 64.79 C 211.19 60.35 211.18 55.89 211.43 51.45 Z" />
</g>
<g id="#972324eb">
<path fill="#972324" opacity="0.92" d=" M 223.10 51.52 C 225.91 51.50 228.72 51.49 231.54 51.49 C 231.54 51.98 231.54 52.96 231.54 53.45 C 229.58 53.50 227.62 53.55 225.67 53.63 C 225.72 57.42 225.60 61.20 225.40 64.99 C 224.47 64.67 223.55 64.33 222.64 63.95 C 222.32 59.81 222.33 55.61 223.10 51.52 Z" />
<path fill="#972324" opacity="0.92" d=" M 280.15 52.31 C 281.21 52.21 282.27 52.11 283.33 52.01 C 281.91 55.99 283.21 61.02 280.24 64.29 C 279.46 60.33 279.53 56.28 280.15 52.31 Z" />
</g>
<g id="#652022b3">
<path fill="#652022" opacity="0.70" d=" M 234.56 51.51 C 236.95 51.39 239.33 51.31 241.73 51.24 C 241.72 51.79 241.70 52.89 241.70 53.44 C 240.24 53.71 238.79 53.98 237.35 54.26 C 237.64 57.74 237.29 61.22 236.65 64.65 C 236.08 64.66 234.93 64.68 234.36 64.69 C 234.28 60.30 234.31 55.90 234.56 51.51 Z" />
</g>
<g id="#662025b4">
<path fill="#662025" opacity="0.71" d=" M 245.62 51.57 C 248.32 51.38 251.02 51.28 253.74 51.24 C 253.73 51.78 253.72 52.86 253.72 53.40 C 251.82 53.98 248.23 53.23 248.01 55.98 C 249.47 57.07 251.23 57.61 252.93 58.21 C 251.60 58.40 250.28 58.60 248.95 58.81 C 248.59 60.79 248.24 62.78 247.85 64.75 C 247.27 64.67 246.10 64.51 245.51 64.43 C 245.37 60.15 245.39 55.86 245.62 51.57 Z" />
</g>
<g id="#5f2023ba">
<path fill="#5f2023" opacity="0.73" d=" M 257.38 51.43 C 259.80 51.37 262.23 51.33 264.66 51.34 C 264.63 51.80 264.59 52.74 264.57 53.20 C 263.00 53.77 261.44 54.35 259.90 54.96 C 261.09 56.10 262.33 57.21 263.60 58.28 C 262.57 58.52 261.54 58.76 260.52 59.01 C 260.26 60.91 259.98 62.81 259.69 64.71 C 259.01 64.71 257.66 64.70 256.99 64.70 C 256.39 60.29 256.35 55.78 257.38 51.43 M 258.05 53.27 C 257.19 56.61 257.69 60.10 258.19 63.46 C 259.75 60.04 259.80 56.23 259.91 52.55 C 259.44 52.73 258.51 53.09 258.05 53.27 Z" />
</g>
<g id="#8f2925f4">
<path fill="#8f2925" opacity="0.96" d=" M 268.53 51.58 C 270.91 51.53 273.30 51.48 275.69 51.42 C 275.68 51.91 275.65 52.90 275.64 53.39 C 274.20 53.52 272.77 53.66 271.34 53.82 C 271.33 54.70 271.30 56.45 271.29 57.33 C 272.71 57.51 274.13 57.68 275.55 57.84 C 275.56 57.95 275.59 58.16 275.60 58.26 C 274.35 58.29 273.10 58.32 271.86 58.35 C 271.40 60.43 270.93 62.52 270.46 64.60 C 269.95 64.62 268.91 64.65 268.39 64.66 C 268.29 60.30 268.27 55.94 268.53 51.58 Z" />
</g>
<g id="#4f2628af">
<path fill="#4f2628" opacity="0.69" d=" M 279.39 51.38 C 282.48 51.31 285.57 51.29 288.67 51.36 C 288.67 51.86 288.66 52.87 288.65 53.38 C 286.72 53.79 284.36 53.44 282.92 55.06 C 283.25 57.47 286.10 57.40 287.92 58.10 C 286.38 58.45 284.73 58.53 283.33 59.31 C 282.51 60.97 282.58 62.89 282.30 64.68 C 281.30 64.70 280.29 64.72 279.29 64.74 C 279.25 60.29 279.30 55.83 279.39 51.38 M 280.15 52.31 C 279.53 56.28 279.46 60.33 280.24 64.29 C 283.21 61.02 281.91 55.99 283.33 52.01 C 282.27 52.11 281.21 52.21 280.15 52.31 Z" />
</g>
<g id="#962121e7">
<path fill="#962121" opacity="0.91" d=" M 258.05 53.27 C 258.51 53.09 259.44 52.73 259.91 52.55 C 259.80 56.23 259.75 60.04 258.19 63.46 C 257.69 60.10 257.19 56.61 258.05 53.27 Z" />
</g>
<g id="#757575ff">
<path fill="#757575" opacity="1.00" d=" M 137.37 60.21 C 139.82 59.57 138.08 55.84 138.72 53.87 C 138.90 54.52 139.26 55.81 139.44 56.46 C 140.22 56.08 141.00 55.70 141.78 55.33 C 143.34 56.96 144.79 58.69 146.24 60.43 C 145.72 61.04 145.21 61.65 144.68 62.25 C 143.59 61.70 142.50 61.17 141.41 60.64 C 140.10 61.72 139.16 63.62 137.31 63.78 C 135.72 62.14 134.38 60.29 133.00 58.48 C 133.45 58.02 134.35 57.12 134.80 56.67 C 135.64 57.86 136.45 59.07 137.37 60.21 M 137.17 61.26 C 136.66 62.89 137.21 63.45 138.84 62.94 C 139.35 61.31 138.79 60.75 137.17 61.26 Z" />
</g>
<g id="#0f100ffe">
<path fill="#0f100f" opacity="1.00" d=" M 155.82 59.40 C 157.02 57.98 158.32 56.65 159.73 55.43 C 162.40 56.39 165.28 56.79 168.05 55.97 C 170.78 55.03 173.25 57.16 175.51 58.42 C 178.52 61.45 181.94 64.25 183.99 68.08 C 185.31 71.08 189.35 71.58 190.40 74.81 C 191.89 78.61 195.10 81.27 197.14 84.72 C 197.84 87.07 197.67 89.72 199.33 91.72 C 202.16 95.19 201.26 99.86 201.16 103.98 C 199.25 108.73 196.12 113.17 191.32 115.32 C 187.50 118.38 182.49 117.06 178.01 117.32 C 169.46 117.80 160.69 115.30 153.78 110.24 C 151.58 108.83 149.05 107.56 147.82 105.12 C 145.83 101.04 142.62 97.78 139.85 94.25 C 137.79 84.97 142.73 75.66 149.53 69.58 C 152.09 67.46 154.50 65.18 156.88 62.88 C 158.71 60.91 161.78 60.51 163.13 58.04 C 160.65 58.37 158.39 60.05 155.82 59.40 M 167.89 58.06 C 167.22 61.14 164.03 61.58 161.63 62.80 C 157.54 64.34 155.45 68.48 152.16 71.09 C 147.50 74.35 144.97 79.73 142.76 84.80 C 141.03 86.93 140.16 89.51 140.31 92.26 C 140.84 92.49 141.91 92.94 142.44 93.17 C 145.87 96.34 148.29 100.36 150.77 104.27 C 154.22 107.35 157.79 110.64 162.39 111.81 C 169.40 115.52 177.47 114.07 185.06 114.37 C 189.00 114.99 191.60 111.48 194.52 109.47 C 198.87 105.96 198.64 100.05 198.18 95.02 C 197.25 92.90 195.25 91.29 195.01 88.89 C 194.77 84.49 190.81 81.81 189.16 77.97 C 187.65 73.90 182.79 72.78 181.13 68.81 C 177.41 64.52 174.01 58.98 167.89 58.06 Z" />
</g>
<g id="#040404ba">
<path fill="#040404" opacity="0.73" d=" M 67.52 59.58 C 68.44 59.15 69.35 58.69 70.24 58.19 C 69.37 59.31 68.53 60.46 67.69 61.61 C 66.14 61.65 64.59 61.69 63.03 61.73 C 62.80 63.49 62.57 65.26 62.18 66.99 C 61.93 67.23 61.42 67.71 61.17 67.94 C 61.39 67.02 61.61 66.10 61.83 65.18 C 57.35 65.34 52.88 65.73 48.40 65.71 C 48.42 64.64 48.44 63.57 48.46 62.50 C 55.03 63.16 61.23 61.04 67.52 59.58 Z" />
</g>
<g id="#a8a8a8fe">
<path fill="#a8a8a8" opacity="1.00" d=" M 137.17 61.26 C 138.79 60.75 139.35 61.31 138.84 62.94 C 137.21 63.45 136.66 62.89 137.17 61.26 Z" />
</g>
<g id="#777777fe">
<path fill="#777777" opacity="1.00" d=" M 124.59 77.21 C 123.79 72.98 125.24 68.80 126.74 64.90 C 126.68 66.60 126.70 68.30 126.70 70.01 C 127.82 67.85 129.16 65.77 131.24 64.40 C 130.90 67.20 130.27 69.95 129.50 72.66 C 130.63 72.93 131.77 73.21 132.90 73.49 C 132.75 76.00 132.47 78.52 131.69 80.93 C 131.71 78.62 131.65 76.31 131.63 74.00 C 130.58 74.57 129.54 75.15 128.49 75.71 C 128.49 75.30 128.49 74.46 128.49 74.05 C 127.89 73.85 126.68 73.46 126.08 73.26 C 125.58 74.58 125.09 75.89 124.59 77.21 Z" />
</g>
<g id="#0f0f0fff">
<path fill="#0f0f0f" opacity="1.00" d=" M 170.58 70.35 C 170.98 69.98 171.76 69.24 172.16 68.87 C 173.62 72.07 173.38 75.61 173.32 79.03 C 172.43 80.07 171.47 81.06 170.51 82.04 C 170.43 78.16 169.94 74.19 170.58 70.35 Z" />
</g>
<g id="#591b22ab">
<path fill="#591b22" opacity="0.67" d=" M 274.87 72.37 C 277.37 72.51 279.87 72.60 282.38 72.72 C 282.37 73.52 282.37 74.32 282.37 75.12 C 280.74 75.46 279.11 75.80 277.49 76.16 C 277.42 76.65 277.28 77.63 277.21 78.11 C 276.85 80.69 276.14 83.20 275.26 85.65 C 274.67 81.75 274.40 77.80 274.72 73.87 C 274.76 73.50 274.83 72.75 274.87 72.37 Z" />
</g>
<g id="#80292cde">
<path fill="#80292c" opacity="0.87" d=" M 217.05 73.35 C 219.81 73.27 222.59 73.26 225.35 73.49 C 223.73 75.29 221.27 75.50 219.05 75.99 C 219.15 79.25 222.03 80.05 224.77 79.87 C 224.58 80.16 224.20 80.72 224.01 81.00 C 222.62 81.14 221.23 81.27 219.84 81.42 C 219.24 83.23 218.92 85.46 216.91 86.26 C 216.51 81.97 216.47 77.63 217.05 73.35 Z" />
</g>
<g id="#491a1982">
<path fill="#491a19" opacity="0.51" d=" M 228.18 73.07 C 230.76 72.80 233.35 72.64 235.95 72.57 C 236.21 73.19 236.73 74.42 237.00 75.03 C 235.37 75.40 233.75 75.77 232.13 76.14 C 232.64 79.59 232.14 83.05 231.29 86.40 C 230.28 86.50 229.27 86.59 228.26 86.69 C 227.34 82.20 227.60 77.59 228.18 73.07 M 228.95 73.95 C 228.75 77.95 227.88 82.24 229.84 85.97 C 231.48 82.09 231.24 77.85 231.55 73.74 C 230.90 73.79 229.60 73.89 228.95 73.95 Z" />
</g>
<g id="#832d27d1">
<path fill="#832d27" opacity="0.82" d=" M 240.38 73.26 C 242.87 73.26 245.36 73.28 247.85 73.34 C 247.67 73.74 247.31 74.54 247.13 74.94 C 245.43 75.55 243.75 76.22 242.10 76.94 C 243.32 78.35 244.76 79.51 246.58 80.03 C 245.21 80.57 243.87 81.17 242.54 81.79 C 242.49 83.08 242.45 84.37 242.42 85.67 C 241.84 85.69 240.70 85.72 240.12 85.74 C 239.46 81.59 239.75 77.39 240.38 73.26 Z" />
</g>
<g id="#4e2023a4">
<path fill="#4e2023" opacity="0.64" d=" M 250.77 73.31 C 253.75 72.67 256.79 72.59 259.82 72.86 C 259.70 73.52 259.47 74.82 259.36 75.48 C 257.51 75.54 255.67 75.61 253.83 75.69 C 252.81 74.89 251.79 74.10 250.77 73.31 Z" />
</g>
<g id="#792027ba">
<path fill="#792027" opacity="0.73" d=" M 262.50 73.41 C 265.39 72.69 268.47 72.28 271.16 73.93 C 269.31 74.86 267.03 75.12 265.45 76.49 C 265.44 79.57 265.37 82.67 264.70 85.71 C 264.11 85.73 262.92 85.79 262.33 85.81 C 262.32 81.68 262.34 77.54 262.50 73.41 Z" />
</g>
<g id="#fefefeff">
<path fill="#fefefe" opacity="1.00" d=" M 128.49 75.71 C 129.54 75.15 130.58 74.57 131.63 74.00 C 131.65 76.31 131.71 78.62 131.69 80.93 C 131.59 81.31 131.38 82.06 131.28 82.44 C 129.27 80.71 127.87 78.46 128.49 75.71 Z" />
</g>
<g id="#962b23e8">
<path fill="#962b23" opacity="0.91" d=" M 228.95 73.95 C 229.60 73.89 230.90 73.79 231.55 73.74 C 231.24 77.85 231.48 82.09 229.84 85.97 C 227.88 82.24 228.75 77.95 228.95 73.95 Z" />
</g>
<g id="#9b2723f1">
<path fill="#9b2723" opacity="0.95" d=" M 250.77 73.31 C 251.79 74.10 252.81 74.89 253.83 75.69 C 253.81 76.25 253.78 77.35 253.76 77.91 C 253.73 79.16 253.68 80.41 253.63 81.66 C 253.68 83.56 252.90 85.30 252.04 86.95 C 249.22 82.97 250.93 77.82 250.77 73.31 Z" />
</g>
<g id="#2f11115c">
<path fill="#2f1111" opacity="0.36" d=" M 274.84 87.13 C 273.25 82.88 273.38 78.17 274.72 73.87 C 274.40 77.80 274.67 81.75 275.26 85.65 C 276.14 83.20 276.85 80.69 277.21 78.11 C 278.82 78.80 280.42 79.47 282.04 80.15 C 280.88 80.89 279.72 81.63 278.58 82.39 C 277.81 84.32 276.67 86.06 274.84 87.13 Z" />
</g>
<g id="#02020271">
<path fill="#020202" opacity="0.44" d=" M 45.90 75.00 C 46.49 75.12 47.66 75.37 48.25 75.49 C 48.71 77.84 49.24 80.18 49.87 82.50 C 48.61 84.34 47.47 86.26 46.29 88.15 C 45.76 83.79 45.53 79.38 45.90 75.00 Z" />
</g>
<g id="#2311134f">
<path fill="#231113" opacity="0.31" d=" M 253.76 77.91 C 255.76 78.58 258.24 78.82 259.31 80.94 C 257.42 81.22 255.52 81.45 253.63 81.66 C 253.68 80.41 253.73 79.16 253.76 77.91 Z" />
</g>
<g id="#818181ff">
<path fill="#818181" opacity="1.00" d=" M 173.32 79.03 C 175.16 79.25 177.01 79.70 178.25 81.21 C 177.34 81.09 175.53 80.85 174.62 80.73 C 175.03 81.25 175.86 82.29 176.28 82.81 C 174.34 82.66 172.42 82.40 170.51 82.04 C 171.47 81.06 172.43 80.07 173.32 79.03 Z" />
</g>
<g id="#1c1c1cfe">
<path fill="#1c1c1c" opacity="1.00" d=" M 183.56 80.86 C 184.76 80.36 185.82 77.37 187.19 78.97 C 189.33 81.37 185.85 82.87 184.24 84.17 C 181.66 84.94 178.22 85.04 176.28 82.81 C 175.86 82.29 175.03 81.25 174.62 80.73 C 175.53 80.85 177.34 81.09 178.25 81.21 C 179.95 81.22 182.17 82.23 183.56 80.86 Z" />
</g>
<g id="#212121fe">
<path fill="#212121" opacity="1.00" d=" M 93.50 84.60 C 94.78 84.70 96.04 84.42 97.27 84.11 C 98.18 86.05 99.04 88.02 100.06 89.91 C 94.62 86.74 88.04 85.30 81.86 86.78 C 75.53 89.60 68.95 93.20 65.44 99.47 C 65.03 99.03 64.22 98.13 63.82 97.68 C 64.42 95.85 64.98 93.82 66.59 92.60 C 71.07 89.14 75.87 86.00 81.15 83.90 C 85.25 83.12 89.48 83.60 93.50 84.60 Z" />
</g>
<g id="#7f7f7ffe">
<path fill="#7f7f7f" opacity="1.00" d=" M 140.31 92.26 C 140.16 89.51 141.03 86.93 142.76 84.80 C 142.54 87.59 142.48 90.38 142.44 93.17 C 141.91 92.94 140.84 92.49 140.31 92.26 Z" />
</g>
<g id="#6b2526b6">
<path fill="#6b2526" opacity="0.71" d=" M 233.02 95.37 C 235.71 95.44 238.40 95.53 241.09 95.59 C 238.90 96.36 236.76 97.31 234.95 98.79 C 236.92 99.65 238.93 100.43 240.92 101.28 C 239.23 102.07 237.52 102.80 235.81 103.51 C 235.28 105.41 234.70 107.29 234.03 109.14 C 231.48 104.99 232.75 99.94 233.02 95.37 Z" />
</g>
<g id="#32141660">
<path fill="#321416" opacity="0.38" d=" M 256.17 94.86 C 258.85 94.93 261.53 95.03 264.21 95.22 C 262.68 96.43 261.10 97.58 259.51 98.71 C 260.91 99.52 262.31 100.32 263.71 101.14 C 262.63 101.98 261.54 102.82 260.45 103.65 C 259.84 105.07 259.23 106.50 258.61 107.92 C 259.45 103.68 260.86 98.45 256.67 95.42 L 256.17 94.86 Z" />
</g>
<g id="#642226b4">
<path fill="#642226" opacity="0.71" d=" M 274.58 105.79 C 274.97 102.06 273.83 97.50 276.99 94.70 C 277.68 98.20 278.05 101.87 277.30 105.39 C 276.11 107.71 273.13 110.65 270.46 108.67 C 266.20 106.01 266.41 100.49 267.14 96.14 C 267.77 96.14 269.04 96.12 269.67 96.12 C 269.69 99.03 269.49 101.97 269.91 104.86 C 271.07 106.38 272.94 106.20 274.58 105.79 Z" />
</g>
<g id="#912127d6">
<path fill="#912127" opacity="0.84" d=" M 244.85 97.09 C 245.38 96.56 246.46 95.51 247.00 94.98 C 247.46 96.58 247.89 98.20 248.35 99.81 C 249.38 100.14 250.43 100.47 251.47 100.79 C 251.52 101.18 251.61 101.96 251.65 102.35 C 250.40 102.42 249.15 102.49 247.91 102.56 C 247.26 104.61 246.62 106.66 245.88 108.68 C 244.30 105.03 244.39 100.96 244.85 97.09 Z" />
</g>
<g id="#9c1e19f2">
<path fill="#9c1e19" opacity="0.95" d=" M 256.67 95.42 C 260.86 98.45 259.45 103.68 258.61 107.92 L 258.47 108.75 C 257.95 108.70 256.91 108.60 256.39 108.55 C 256.31 104.18 256.13 99.78 256.67 95.42 Z" />
</g>
<g id="#5a1c23a9">
<path fill="#5a1c23" opacity="0.66" d=" M 285.10 109.30 C 280.27 106.46 278.99 99.47 282.02 94.87 C 283.92 97.94 283.46 101.57 283.41 104.99 C 284.97 105.45 286.54 105.89 288.12 106.32 C 288.96 102.76 287.55 98.51 289.89 95.47 C 290.28 95.69 291.05 96.11 291.44 96.33 C 291.54 99.79 292.57 104.05 289.88 106.82 C 288.62 108.11 287.11 109.77 285.10 109.30 Z" />
</g>
<g id="#030303c8">
<path fill="#030303" opacity="0.78" d=" M 34.68 97.64 C 35.58 97.62 36.49 97.60 37.39 97.58 C 38.05 117.03 37.24 136.53 37.64 155.99 C 39.36 164.20 40.68 172.50 42.31 180.73 C 43.90 184.46 46.66 187.55 48.41 191.21 C 48.95 191.29 50.03 191.44 50.57 191.52 C 50.89 191.58 51.53 191.70 51.85 191.75 C 51.55 198.88 50.06 206.84 54.63 213.02 C 56.19 217.27 57.93 221.45 59.66 225.64 C 54.87 224.44 54.71 218.59 53.14 214.78 C 51.05 210.15 50.58 205.08 50.16 200.08 C 47.09 194.20 43.96 188.31 40.43 182.68 C 38.58 179.93 39.64 176.40 38.56 173.40 C 37.58 170.67 36.43 167.95 36.48 165.00 C 36.44 160.90 34.06 157.20 34.45 153.05 C 34.66 134.58 34.24 116.10 34.68 97.64 Z" />
</g>
<g id="#090909fe">
<path fill="#090909" opacity="1.00" d=" M 61.77 103.99 C 62.54 101.91 63.16 99.79 63.82 97.68 C 64.22 98.13 65.03 99.03 65.44 99.47 C 64.98 103.62 63.39 107.58 63.37 111.78 C 65.85 111.57 68.37 111.51 70.82 111.02 C 73.77 110.09 76.85 107.15 75.31 103.81 C 72.46 102.44 69.20 102.28 66.30 101.00 C 68.98 99.83 71.95 99.22 74.86 99.82 C 77.10 101.37 78.92 103.97 78.63 106.81 C 78.68 109.12 76.42 110.46 74.98 111.94 C 72.63 114.23 69.11 113.98 66.19 114.98 C 65.53 115.20 64.20 115.65 63.54 115.87 C 63.57 117.54 63.60 119.22 63.65 120.89 C 63.41 118.57 63.61 116.10 62.13 114.12 C 61.59 110.77 61.49 107.36 61.77 103.99 Z" />
</g>
<g id="#fdfdfdff">
<path fill="#fdfdfd" opacity="1.00" d=" M 211.59 102.15 C 212.10 100.67 212.82 99.28 213.60 97.93 C 214.94 104.98 220.95 110.40 220.79 117.81 C 220.80 119.29 220.79 120.77 220.76 122.26 C 220.35 121.42 219.96 120.59 219.58 119.74 C 217.20 113.76 214.55 107.86 211.59 102.15 Z" />
</g>
<g id="#303030fe">
<path fill="#303030" opacity="1.00" d=" M 210.86 105.36 C 211.04 104.56 211.40 102.95 211.59 102.15 C 214.55 107.86 217.20 113.76 219.58 119.74 C 218.94 121.36 218.28 122.97 217.65 124.59 C 216.22 117.86 211.88 112.18 210.86 105.36 Z" />
</g>
<g id="#a3a3a3fe">
<path fill="#a3a3a3" opacity="1.00" d=" M 62.13 114.12 C 59.36 111.25 60.33 107.25 61.77 103.99 C 61.49 107.36 61.59 110.77 62.13 114.12 Z" />
</g>
<g id="#050505fe">
<path fill="#050505" opacity="1.00" d=" M 117.48 119.50 C 120.76 115.62 125.66 113.84 129.96 111.39 C 134.98 111.06 140.01 111.47 145.02 111.77 C 147.39 112.23 149.57 113.43 152.01 113.53 C 158.64 114.30 163.22 119.63 169.28 121.74 C 171.90 123.61 174.97 124.60 177.95 125.73 C 180.03 123.07 183.43 122.72 186.53 123.53 C 190.45 125.34 193.36 128.62 196.19 131.77 C 197.90 133.97 198.50 136.78 199.88 139.17 C 201.70 142.71 204.81 145.65 205.81 149.56 C 205.75 150.09 205.62 151.15 205.56 151.67 C 197.52 144.77 196.46 132.53 187.17 126.77 C 185.44 125.00 183.11 125.61 181.12 126.49 C 183.59 127.98 186.10 129.48 188.05 131.64 C 182.38 131.53 177.56 128.21 172.33 126.45 C 166.15 124.19 161.06 119.88 155.18 117.06 C 150.99 116.06 146.81 114.60 142.46 114.60 C 142.47 116.24 142.41 117.89 142.56 119.53 C 145.13 121.37 148.13 122.50 150.97 123.85 C 152.52 122.51 154.06 121.16 155.69 119.91 C 155.85 122.58 154.75 125.07 152.49 126.55 C 148.99 126.48 145.91 124.31 142.63 123.27 C 142.51 126.36 142.51 129.45 142.51 132.55 C 139.36 134.25 136.72 132.01 134.03 130.56 C 133.64 130.65 132.86 130.84 132.47 130.93 C 132.42 135.04 132.73 139.42 129.70 142.67 C 126.28 142.91 122.86 142.50 119.95 140.56 C 119.66 144.44 116.52 146.76 113.43 148.56 C 111.48 149.01 109.48 148.42 107.52 148.32 C 106.62 155.06 104.75 161.64 104.45 168.46 C 103.99 173.40 101.67 177.89 100.91 182.76 C 100.64 179.54 100.28 176.31 100.29 173.08 C 101.89 169.12 101.05 164.81 101.89 160.77 C 104.10 157.24 102.75 152.72 105.22 149.34 C 106.89 146.92 107.06 143.95 107.73 141.18 C 107.61 143.50 107.53 145.83 107.50 148.16 C 111.75 147.31 114.94 144.25 117.92 141.32 C 115.60 139.77 112.31 138.90 111.83 135.72 C 113.74 136.24 115.62 136.88 117.49 137.57 C 115.67 135.29 113.91 132.95 112.05 130.70 C 111.17 132.28 110.27 133.84 109.49 135.47 C 108.86 134.23 108.24 133.00 107.62 131.77 C 111.65 128.23 113.26 122.85 117.48 119.50 M 123.86 117.80 C 125.68 119.15 127.60 120.55 128.44 122.75 C 130.40 127.22 135.35 128.89 139.65 130.24 C 139.64 124.96 139.64 119.67 139.62 114.39 C 137.12 113.80 134.52 113.43 131.96 113.82 C 129.00 114.56 126.53 116.43 123.86 117.80 M 115.40 125.44 C 115.38 127.46 115.37 129.49 115.39 131.51 C 116.66 132.66 118.19 133.63 118.91 135.25 C 120.25 138.66 124.80 140.75 128.20 139.28 C 130.40 136.62 129.14 132.92 129.48 129.77 C 126.20 128.70 126.42 125.22 125.44 122.53 C 124.42 121.20 123.10 120.14 121.90 118.99 C 119.67 121.08 117.67 123.40 115.40 125.44 Z" />
</g>
<g id="#fbfcfbfe">
<path fill="#fbfcfb" opacity="1.00" d=" M 123.86 117.80 C 126.53 116.43 129.00 114.56 131.96 113.82 C 134.52 113.43 137.12 113.80 139.62 114.39 C 139.64 119.67 139.64 124.96 139.65 130.24 C 135.35 128.89 130.40 127.22 128.44 122.75 C 127.60 120.55 125.68 119.15 123.86 117.80 Z" />
</g>
<g id="#8c8c8cf8">
<path fill="#8c8c8c" opacity="0.97" d=" M 41.27 130.01 C 41.53 124.90 40.32 119.50 42.46 114.65 C 42.30 122.07 42.82 129.50 42.33 136.91 C 41.86 142.66 40.58 148.67 42.68 154.25 C 44.87 159.89 44.70 166.15 47.28 171.67 C 50.19 178.15 51.45 185.18 53.08 192.06 C 52.78 191.98 52.16 191.83 51.85 191.75 C 51.53 191.70 50.89 191.58 50.57 191.52 C 50.52 190.68 50.43 189.00 50.39 188.16 C 49.88 181.79 47.75 175.67 45.28 169.82 C 43.38 165.40 43.62 160.43 41.92 155.95 C 38.39 147.69 41.33 138.61 41.27 130.01 Z" />
</g>
<g id="#4a4a4afe">
<path fill="#4a4a4a" opacity="1.00" d=" M 63.54 115.87 C 64.20 115.65 65.53 115.20 66.19 114.98 C 66.49 118.59 66.69 122.21 66.97 125.83 C 66.52 125.76 65.64 125.62 65.20 125.55 C 65.21 126.92 65.22 128.30 65.22 129.68 C 64.21 126.86 64.01 123.84 63.65 120.89 C 63.60 119.22 63.57 117.54 63.54 115.87 Z" />
</g>
<g id="#797979ff">
<path fill="#797979" opacity="1.00" d=" M 220.79 117.81 C 221.23 117.73 222.11 117.58 222.55 117.50 C 222.41 121.11 223.31 125.07 221.32 128.33 C 219.90 130.65 219.36 133.34 219.61 136.05 C 218.48 132.33 218.04 128.44 217.65 124.59 C 218.28 122.97 218.94 121.36 219.58 119.74 C 219.96 120.59 220.35 121.42 220.76 122.26 C 220.79 120.77 220.80 119.29 220.79 117.81 Z" />
</g>
<g id="#581f20a3">
<path fill="#581f20" opacity="0.64" d=" M 232.45 117.33 C 233.48 117.33 234.50 117.33 235.53 117.33 C 235.55 120.66 235.56 123.99 235.59 127.32 C 237.13 127.48 239.07 128.59 240.12 126.84 C 240.72 123.71 240.47 120.50 240.50 117.34 C 241.50 117.34 242.51 117.35 243.52 117.35 C 243.50 120.70 243.83 124.08 243.30 127.40 C 241.69 129.99 237.82 132.29 235.15 129.81 C 231.32 126.81 232.64 121.53 232.45 117.33 Z" />
</g>
<g id="#611f25b5">
<path fill="#611f25" opacity="0.71" d=" M 246.44 117.53 C 246.99 117.45 248.10 117.30 248.66 117.23 C 248.75 120.62 248.38 124.17 249.63 127.41 C 250.85 128.02 252.26 128.48 253.42 127.47 C 254.94 124.32 254.16 120.67 254.38 117.29 C 254.96 117.30 256.13 117.31 256.71 117.31 C 256.33 121.55 258.52 127.38 254.14 130.11 C 252.24 131.24 249.21 131.11 247.99 129.02 C 245.49 125.73 246.51 121.35 246.44 117.53 Z" />
</g>
<g id="#621c25a7">
<path fill="#621c25" opacity="0.65" d=" M 260.05 117.30 C 260.69 117.31 261.96 117.32 262.60 117.32 C 262.61 120.51 262.40 123.73 262.85 126.90 C 264.09 128.02 265.86 128.17 267.32 127.41 C 267.80 124.07 267.66 120.68 267.94 117.32 C 268.61 117.31 269.96 117.31 270.63 117.31 C 270.59 120.69 270.93 124.11 270.36 127.46 C 268.78 129.81 265.55 131.91 262.79 130.22 C 259.08 127.06 259.47 121.67 260.05 117.30 Z" />
</g>
<g id="#601f21b4">
<path fill="#601f21" opacity="0.71" d=" M 274.36 117.28 C 274.94 117.29 276.11 117.31 276.70 117.32 C 276.96 121.12 277.19 124.94 277.80 128.71 C 278.96 128.16 280.07 127.53 281.13 126.80 C 281.66 123.67 281.43 120.49 281.44 117.33 C 282.08 117.33 283.36 117.33 284.00 117.34 C 284.25 121.48 285.74 126.89 281.71 129.73 C 279.61 131.85 276.27 130.41 274.68 128.38 C 273.84 124.76 274.38 120.97 274.36 117.28 Z" />
</g>
<g id="#2e2e2efe">
<path fill="#2e2e2e" opacity="1.00" d=" M 105.22 149.34 C 104.90 143.34 105.75 137.47 107.62 131.77 C 108.24 133.00 108.86 134.23 109.49 135.47 C 108.87 137.36 108.28 139.26 107.73 141.18 C 107.06 143.95 106.89 146.92 105.22 149.34 Z" />
</g>
<g id="#24150f5c">
<path fill="#24150f" opacity="0.36" d=" M 251.57 138.62 C 252.61 138.45 253.66 138.29 254.72 138.12 C 254.83 141.34 254.64 144.58 255.14 147.76 C 255.90 149.11 257.76 149.01 259.04 149.60 C 260.09 149.90 261.14 150.20 262.20 150.50 C 259.09 151.81 254.61 153.07 252.33 149.71 C 250.40 146.38 251.58 142.26 251.57 138.62 M 253.94 149.44 C 254.44 145.87 254.48 142.24 253.95 138.67 C 250.77 141.25 250.98 146.76 253.94 149.44 Z" />
</g>
<g id="#682420b7">
<path fill="#682420" opacity="0.72" d=" M 273.65 138.76 C 274.14 138.63 275.13 138.39 275.63 138.26 C 276.00 142.59 277.60 147.99 273.83 151.30 C 273.17 150.82 272.51 150.35 271.85 149.88 C 273.48 146.39 273.47 142.52 273.65 138.76 Z" />
</g>
<g id="#63241db6">
<path fill="#63241d" opacity="0.71" d=" M 238.31 139.24 C 238.90 139.23 240.07 139.22 240.65 139.21 C 240.72 142.33 240.91 145.45 241.27 148.55 C 242.43 149.09 243.60 149.63 244.77 150.18 C 245.37 150.47 245.96 150.77 246.56 151.07 L 247.11 151.35 C 244.05 151.56 240.07 151.95 238.56 148.55 C 237.98 145.49 238.30 142.34 238.31 139.24 Z" />
</g>
<g id="#672024b1">
<path fill="#672024" opacity="0.69" d=" M 246.39 139.18 C 246.98 139.18 248.16 139.20 248.75 139.21 C 248.79 142.69 248.79 146.18 248.63 149.66 C 248.11 150.01 247.08 150.72 246.56 151.07 C 245.96 150.77 245.37 150.47 244.77 150.18 C 246.43 146.74 246.44 142.91 246.39 139.18 Z" />
</g>
<g id="#551d1ea0">
<path fill="#551d1e" opacity="0.63" d=" M 253.94 149.44 C 250.98 146.76 250.77 141.25 253.95 138.67 C 254.48 142.24 254.44 145.87 253.94 149.44 Z" />
</g>
<g id="#531d219d">
<path fill="#531d21" opacity="0.62" d=" M 259.04 149.60 C 259.66 145.72 259.14 141.59 260.99 137.99 C 263.30 141.78 262.32 146.32 262.20 150.50 C 261.14 150.20 260.09 149.90 259.04 149.60 Z" />
</g>
<g id="#371a186b">
<path fill="#371a18" opacity="0.42" d=" M 264.93 138.65 C 266.13 138.74 267.34 138.84 268.55 138.97 C 268.56 141.91 268.62 144.86 268.74 147.80 C 269.78 148.48 270.82 149.17 271.85 149.88 C 272.51 150.35 273.17 150.82 273.83 151.30 L 274.24 151.59 C 271.91 151.62 269.58 151.64 267.25 151.68 C 264.15 148.01 264.41 143.13 264.93 138.65 M 267.06 148.81 C 267.57 145.63 267.59 142.38 267.00 139.22 C 264.70 141.78 264.83 146.22 267.06 148.81 Z" />
</g>
<g id="#962329ea">
<path fill="#962329" opacity="0.92" d=" M 279.41 149.91 C 279.84 146.01 277.85 141.10 281.10 138.07 C 283.21 141.96 282.16 146.49 282.44 150.71 C 281.69 150.51 280.17 150.11 279.41 149.91 Z" />
</g>
<g id="#832322db">
<path fill="#832322" opacity="0.86" d=" M 286.19 150.96 C 286.76 146.62 285.46 141.79 288.00 137.91 C 290.18 140.86 289.67 144.62 289.47 148.04 C 289.62 149.86 287.34 150.17 286.19 150.96 Z" />
</g>
<g id="#92291ef6">
<path fill="#92291e" opacity="0.96" d=" M 267.06 148.81 C 264.83 146.22 264.70 141.78 267.00 139.22 C 267.59 142.38 267.57 145.63 267.06 148.81 Z" />
</g>
<g id="#0c0c0cfe">
<path fill="#0c0c0c" opacity="1.00" d=" M 158.94 151.85 C 161.77 150.45 164.64 148.44 167.90 148.47 C 172.38 152.27 177.14 156.14 179.86 161.47 C 180.83 163.26 182.72 164.20 184.28 165.40 C 184.59 163.12 184.91 160.84 185.50 158.62 C 189.00 159.50 192.63 159.64 196.19 159.06 C 198.36 161.18 200.57 163.26 202.94 165.17 C 202.75 165.91 202.37 167.39 202.18 168.13 C 199.12 165.96 196.50 163.28 193.81 160.68 C 192.12 160.33 190.39 160.32 188.68 160.18 C 188.19 165.69 186.02 170.97 186.59 176.56 C 192.21 176.74 198.57 177.09 203.06 173.08 C 206.99 166.56 204.81 158.82 205.56 151.67 C 205.62 151.15 205.75 150.09 205.81 149.56 C 207.91 150.60 207.52 153.01 207.52 154.93 C 207.24 161.95 208.59 169.43 205.06 175.89 C 202.66 177.80 199.34 178.08 196.56 179.29 C 191.73 179.95 186.80 179.24 181.93 179.46 C 179.07 179.05 177.24 181.67 175.02 183.00 C 160.58 192.89 146.59 204.23 129.74 209.79 C 128.25 210.61 127.59 212.33 126.55 213.60 C 122.91 213.98 119.29 213.76 115.88 212.40 C 110.53 212.77 105.35 211.39 100.03 211.39 C 96.21 209.62 92.08 208.43 88.59 206.03 C 88.13 201.39 92.39 198.21 93.38 194.03 C 93.32 189.57 97.53 186.82 98.29 182.56 C 99.08 183.05 99.87 183.54 100.65 184.03 C 99.57 187.07 97.89 189.87 97.06 193.01 C 96.02 197.07 93.10 200.24 91.11 203.85 C 92.79 204.87 94.48 205.89 96.17 206.91 C 99.55 202.62 103.75 198.97 108.43 196.17 C 109.70 195.33 111.34 195.37 112.74 195.80 C 115.49 198.29 117.82 201.27 121.15 203.06 C 122.11 197.37 124.74 191.96 128.93 187.97 C 132.27 184.98 136.77 184.05 141.14 184.45 C 143.11 187.24 145.12 190.00 147.39 192.54 C 147.66 187.07 149.10 181.75 150.67 176.54 C 153.71 172.53 159.08 171.01 163.98 171.57 C 164.82 172.94 165.67 174.32 166.52 175.69 C 166.93 175.68 167.77 175.65 168.18 175.64 C 169.65 172.03 170.82 168.25 172.82 164.89 C 174.23 163.84 175.80 163.05 177.31 162.16 C 174.53 157.90 170.64 154.45 166.85 151.13 C 161.24 152.94 156.47 157.05 154.39 162.64 C 150.05 163.36 146.17 161.60 142.24 160.13 C 144.06 159.58 145.94 159.24 147.83 159.01 C 149.36 159.41 150.93 159.84 152.54 159.74 C 154.86 157.25 155.71 153.47 158.94 151.85 M 175.70 165.66 C 173.81 169.43 171.85 173.18 170.22 177.08 C 169.43 178.71 168.36 181.13 166.12 180.32 C 164.39 178.15 163.66 173.79 160.02 174.50 C 156.21 173.93 153.54 177.71 152.93 181.06 C 152.41 183.82 150.21 186.05 150.56 188.99 C 150.99 191.71 147.86 194.79 150.86 196.80 C 155.75 192.56 161.27 189.20 166.79 185.85 C 170.14 182.84 174.02 180.55 177.56 177.78 C 179.57 177.30 181.61 176.96 183.62 176.48 C 183.66 174.09 183.79 171.70 183.61 169.32 C 182.74 167.85 181.55 166.60 180.51 165.26 C 178.91 165.38 177.30 165.53 175.70 165.66 M 129.39 191.36 C 126.15 196.23 124.22 201.80 122.07 207.19 C 119.16 205.44 116.76 203.00 114.12 200.89 C 112.76 199.89 111.48 197.80 109.52 198.59 C 106.44 200.37 104.12 203.16 101.17 205.12 C 99.81 206.00 98.60 207.10 97.59 208.37 C 103.47 208.11 109.16 209.76 115.03 209.41 C 118.10 209.14 120.69 212.08 123.80 211.15 C 126.56 208.99 129.17 206.46 132.76 205.80 C 137.75 203.43 143.04 201.59 147.66 198.51 C 148.49 196.14 145.84 194.87 144.47 193.46 C 142.33 191.90 141.33 189.36 139.52 187.50 C 135.69 186.65 131.98 188.71 129.39 191.36 Z" />
</g>
<g id="#00000170">
<path fill="#000001" opacity="0.44" d=" M 225.82 191.92 C 224.92 178.31 223.00 164.60 224.74 150.96 C 225.19 157.31 225.05 163.67 224.97 170.02 C 224.65 172.37 226.89 173.68 228.28 175.16 C 228.83 180.85 228.33 186.71 225.82 191.92 Z" />
</g>
<g id="#878787ff">
<path fill="#878787" opacity="1.00" d=" M 185.50 158.62 C 188.81 157.21 193.31 156.32 196.19 159.06 C 192.63 159.64 189.00 159.50 185.50 158.62 Z" />
</g>
<g id="#040404fe">
<path fill="#040404" opacity="1.00" d=" M 138.84 159.89 C 141.14 157.41 144.92 158.30 147.83 159.01 C 145.94 159.24 144.06 159.58 142.24 160.13 C 139.57 163.28 136.33 166.22 135.14 170.32 C 133.92 173.67 133.54 178.78 129.01 179.00 C 131.55 172.35 133.04 164.62 138.84 159.89 Z" />
<path fill="#040404" opacity="1.00" d=" M 51.85 191.75 C 52.16 191.83 52.78 191.98 53.08 192.06 C 53.58 193.87 53.49 195.82 54.20 197.58 C 55.64 200.08 58.14 201.75 59.75 204.14 C 61.20 206.16 62.11 208.52 63.52 210.57 C 67.25 214.61 72.87 215.77 77.42 218.56 C 80.55 220.56 84.77 221.25 86.28 225.10 C 85.60 225.14 84.25 225.21 83.58 225.25 C 79.71 222.83 75.98 220.06 71.64 218.53 C 67.91 217.23 64.40 215.20 61.69 212.29 C 58.68 208.97 57.46 204.27 53.59 201.71 C 53.23 205.53 54.08 209.27 54.63 213.02 C 50.06 206.84 51.55 198.88 51.85 191.75 Z" />
</g>
<g id="#5e2022a6">
<path fill="#5e2022" opacity="0.65" d=" M 233.05 159.86 C 233.58 160.14 234.64 160.69 235.17 160.97 C 235.73 165.17 235.76 169.46 236.77 173.62 C 231.16 171.37 232.32 164.62 233.05 159.86 Z" />
</g>
<g id="#591e1da1">
<path fill="#591e1d" opacity="0.63" d=" M 241.00 159.85 C 241.54 160.13 242.63 160.69 243.18 160.97 C 243.93 164.06 243.72 167.35 243.32 170.49 C 242.95 172.60 240.54 173.02 238.90 173.76 C 240.60 169.30 240.62 164.53 241.00 159.85 Z" />
</g>
<g id="#601f21b2">
<path fill="#601f21" opacity="0.70" d=" M 246.45 160.56 C 247.01 160.48 248.15 160.33 248.71 160.26 C 248.75 163.12 248.54 166.01 248.97 168.85 C 249.67 170.44 251.03 171.61 252.13 172.93 C 254.87 169.35 254.38 164.80 254.48 160.57 C 255.04 160.49 256.15 160.34 256.70 160.26 C 257.08 164.31 257.80 168.89 255.45 172.49 C 252.99 174.37 248.38 174.28 247.00 171.03 C 245.71 167.73 246.49 164.03 246.45 160.56 Z" />
</g>
<g id="#571e1fa3">
<path fill="#571e1f" opacity="0.64" d=" M 260.10 160.35 C 260.72 160.34 261.96 160.33 262.59 160.32 C 262.59 164.59 261.81 169.36 265.15 172.69 C 269.27 169.95 267.05 164.45 267.99 160.35 C 268.65 160.34 269.98 160.32 270.64 160.31 C 270.56 163.91 271.15 167.65 270.02 171.14 C 269.09 174.50 264.90 173.23 262.31 173.69 C 259.20 169.91 259.27 164.93 260.10 160.35 Z" />
</g>
<g id="#691f1eb6">
<path fill="#691f1e" opacity="0.71" d=" M 274.46 160.58 C 275.00 160.50 276.08 160.34 276.62 160.26 C 277.00 164.47 277.30 168.68 277.69 172.88 C 276.66 172.69 275.63 172.50 274.61 172.32 C 274.21 168.41 274.22 164.49 274.46 160.58 Z" />
</g>
<g id="#571d1fa3">
<path fill="#571d1f" opacity="0.64" d=" M 281.43 160.33 C 282.07 160.33 283.35 160.34 283.99 160.34 C 284.60 164.91 285.54 171.30 280.42 173.65 C 281.20 169.25 281.58 164.80 281.43 160.33 Z" />
</g>
<g id="#7c7c7cff">
<path fill="#7c7c7c" opacity="1.00" d=" M 98.29 182.56 C 98.18 179.28 98.58 175.94 100.29 173.08 C 100.28 176.31 100.64 179.54 100.91 182.76 C 100.84 183.08 100.72 183.72 100.65 184.03 C 99.87 183.54 99.08 183.05 98.29 182.56 Z" />
</g>
<g id="#642221b7">
<path fill="#642221" opacity="0.72" d=" M 239.01 181.67 C 242.18 184.41 239.74 189.09 241.64 192.39 C 242.79 192.93 243.96 193.42 245.16 193.86 C 246.34 190.42 246.48 186.78 246.39 183.19 C 246.97 183.19 248.13 183.19 248.71 183.20 C 248.30 187.19 250.39 192.71 246.20 195.25 C 244.74 196.63 242.18 196.95 240.97 195.07 C 237.22 191.65 237.96 186.11 239.01 181.67 Z" />
</g>
<g id="#5f1f1fad">
<path fill="#5f1f1f" opacity="0.68" d=" M 265.19 182.26 C 265.83 182.32 267.10 182.46 267.74 182.52 C 268.20 185.84 268.02 189.21 268.62 192.51 C 269.83 193.96 272.29 193.62 272.86 191.73 C 274.56 188.88 271.57 183.84 275.15 182.36 C 276.70 184.95 276.41 188.12 276.12 191.00 C 275.63 193.77 273.06 196.65 270.07 196.39 C 267.80 195.28 266.22 193.03 265.09 190.82 C 264.37 188.02 264.98 185.09 265.19 182.26 M 266.34 184.69 C 265.38 186.19 265.60 188.22 266.04 189.86 C 266.87 191.30 267.36 188.58 267.27 188.05 C 267.14 187.08 267.59 184.95 266.34 184.69 Z" />
</g>
<g id="#8b2326e6">
<path fill="#8b2326" opacity="0.90" d=" M 279.47 182.36 C 280.42 182.48 281.38 182.60 282.33 182.72 C 282.41 186.42 282.41 190.11 282.55 193.80 C 284.25 193.79 286.54 193.03 286.42 190.95 C 286.60 188.25 286.49 185.54 286.51 182.84 C 287.51 182.83 288.51 182.83 289.52 182.84 C 289.51 186.04 289.79 189.27 289.30 192.45 C 287.96 194.26 285.91 195.37 284.12 196.69 C 282.58 195.29 281.00 193.94 279.39 192.63 C 279.32 189.21 279.34 185.78 279.47 182.36 Z" />
</g>
<g id="#5f1e1eb4">
<path fill="#5f1e1e" opacity="0.71" d=" M 251.58 186.99 C 251.45 185.31 252.14 181.00 254.45 183.27 C 254.75 186.15 254.46 189.06 254.80 191.94 C 255.83 193.34 257.66 193.30 259.19 193.66 C 259.71 189.76 259.15 185.62 260.99 182.00 C 262.95 186.15 263.92 192.64 259.50 195.56 C 258.57 196.51 257.10 196.92 255.94 196.09 C 253.05 194.06 251.12 190.60 251.58 186.99 Z" />
</g>
<g id="#8d2d28f5">
<path fill="#8d2d28" opacity="0.96" d=" M 266.34 184.69 C 267.59 184.95 267.14 187.08 267.27 188.05 C 267.36 188.58 266.87 191.30 266.04 189.86 C 265.60 188.22 265.38 186.19 266.34 184.69 Z" />
</g>
<g id="#5c5c5cfd">
<path fill="#5c5c5c" opacity="1.00" d=" M 216.61 199.55 C 218.10 196.50 218.93 193.03 221.36 190.54 C 222.20 191.80 223.05 193.06 223.91 194.32 C 222.69 194.38 221.47 194.43 220.26 194.49 C 218.31 199.05 215.84 203.36 213.80 207.87 C 214.49 205.02 215.29 202.18 216.61 199.55 Z" />
</g>
<g id="#612424b6">
<path fill="#612424" opacity="0.71" d=" M 246.42 204.52 C 246.98 204.44 248.12 204.30 248.69 204.22 C 248.87 207.29 248.16 210.63 249.61 213.47 C 250.79 215.35 252.98 214.13 254.13 212.89 C 254.51 210.11 254.38 207.29 254.45 204.49 C 255.00 204.43 256.11 204.30 256.66 204.24 C 256.93 207.80 257.89 211.71 256.05 215.03 C 254.42 217.91 250.35 217.52 247.83 216.14 C 245.68 212.65 246.44 208.39 246.42 204.52 Z" />
</g>
<g id="#61221cb8">
<path fill="#61221c" opacity="0.72" d=" M 274.37 204.31 C 274.94 204.31 276.08 204.31 276.65 204.31 C 276.73 207.64 276.94 210.97 277.30 214.28 C 278.67 214.07 280.04 213.84 281.42 213.61 C 281.47 210.63 281.39 207.65 281.78 204.70 C 282.35 204.73 283.49 204.80 284.06 204.83 C 284.56 208.42 284.95 212.63 282.73 215.74 C 280.44 218.11 277.01 216.89 274.36 215.91 C 274.31 212.04 274.29 208.17 274.37 204.31 Z" />
</g>
<g id="#682924bc">
<path fill="#682924" opacity="0.74" d=" M 232.78 204.66 C 233.40 204.66 234.63 204.65 235.24 204.64 C 235.55 207.77 235.43 210.93 235.43 214.07 C 237.04 214.08 239.04 214.94 240.15 213.29 C 241.07 210.22 239.82 206.62 241.99 203.96 C 244.11 206.46 243.50 209.96 243.26 212.97 C 242.85 217.60 234.92 218.99 233.56 214.35 C 232.11 211.34 232.48 207.88 232.78 204.66 Z" />
</g>
<g id="#772726c7">
<path fill="#772726" opacity="0.78" d=" M 261.71 216.32 C 259.58 212.52 258.96 207.77 260.98 203.78 C 262.90 206.36 262.27 209.62 262.61 212.60 C 263.49 214.24 266.11 215.40 267.33 213.46 C 267.83 210.26 267.71 206.95 268.96 203.90 C 271.01 206.85 270.76 210.58 270.33 213.97 C 269.31 217.66 264.57 216.98 261.71 216.32 Z" />
</g>
<g id="#4c2a2ab8">
<path fill="#4c2a2a" opacity="0.72" d=" M 287.31 210.94 C 289.33 211.24 291.35 211.57 293.35 212.02 C 291.68 213.53 289.44 213.76 287.30 213.93 C 287.30 213.18 287.31 211.69 287.31 210.94 Z" />
</g>
</svg>
