<?xml version="1.0" encoding="UTF-8" ?>
<!DOCTYPE svg PUBLIC "-//W3C//DTD SVG 1.1//EN" "http://www.w3.org/Graphics/SVG/1.1/DTD/svg11.dtd">
<svg width="210pt" height="220pt" viewBox="0 0 210 220" version="1.1" xmlns="http://www.w3.org/2000/svg">
<g id="#000000ff">
<path fill="#000000" opacity="1.00" d=" M 95.46 42.69 C 109.51 41.68 123.62 41.74 137.69 42.21 C 144.38 42.79 152.49 41.99 157.55 47.43 C 164.59 53.34 168.22 61.89 172.25 69.89 C 178.67 78.68 191.95 84.82 189.14 98.00 C 190.43 106.87 182.73 112.76 177.58 118.59 C 172.53 123.34 171.50 130.74 166.78 135.73 C 157.32 146.71 144.11 153.41 131.06 159.15 C 119.92 163.84 109.64 171.02 97.44 172.78 C 81.00 178.07 63.50 179.10 46.37 177.56 C 34.31 176.79 25.44 163.57 28.25 152.02 C 29.36 140.45 31.06 128.78 29.69 117.15 C 26.85 107.85 20.43 99.31 21.93 89.02 C 21.07 82.60 26.39 78.37 30.37 74.30 C 34.79 70.00 32.80 62.58 37.23 58.26 C 42.80 52.56 50.45 49.24 58.01 47.12 C 70.08 43.11 83.01 44.51 95.46 42.69 M 68.49 49.57 C 85.66 51.62 102.42 44.94 119.54 47.72 C 132.22 49.87 143.80 56.40 153.21 65.05 C 146.99 61.66 141.28 57.42 135.16 53.85 C 124.70 48.40 112.56 47.11 101.00 48.94 C 88.00 51.22 74.79 50.35 61.67 50.70 C 54.03 50.93 47.17 54.78 41.28 59.32 C 36.90 64.10 38.15 71.81 33.53 76.50 C 29.15 81.30 22.73 86.50 24.98 93.97 C 25.00 101.60 31.81 106.82 32.65 114.29 C 34.36 130.35 31.07 146.49 32.57 162.56 C 34.58 169.70 42.40 173.19 49.03 174.88 C 65.31 179.16 81.07 171.80 96.90 168.90 C 109.88 166.35 120.96 158.85 133.11 154.10 C 144.22 148.95 155.51 143.08 163.44 133.48 C 167.96 128.05 169.85 120.94 174.84 115.85 C 179.69 109.65 188.39 104.15 186.01 95.03 C 186.29 87.74 179.95 83.11 175.56 78.26 C 177.90 82.58 181.44 86.68 180.78 92.00 C 180.77 96.79 180.43 101.57 179.85 106.33 C 179.38 98.49 181.67 89.19 176.43 82.58 C 173.00 78.06 166.66 78.39 161.74 76.98 C 164.31 76.97 169.45 76.94 172.01 76.93 C 164.65 66.33 161.48 50.83 147.87 46.33 C 121.50 43.91 94.49 44.10 68.49 49.57 Z" />
<path fill="#000000" opacity="1.00" d=" M 96.68 53.72 C 109.22 50.84 122.97 51.43 134.28 58.01 C 126.26 56.04 118.34 53.13 109.95 53.32 C 104.36 52.80 99.02 54.63 93.53 55.23 C 82.83 56.52 72.05 55.86 61.38 54.69 C 58.67 54.44 56.13 55.63 53.61 56.42 C 54.82 55.34 56.04 54.28 57.26 53.21 C 70.33 54.43 83.63 55.95 96.68 53.72 Z" />
<path fill="#000000" opacity="1.00" d=" M 102.54 58.12 C 103.95 55.93 105.69 60.03 103.10 59.41 C 102.96 59.09 102.68 58.44 102.54 58.12 Z" />
<path fill="#000000" opacity="1.00" d=" M 120.89 57.43 C 130.29 58.28 138.70 63.34 144.59 70.58 C 137.32 65.17 129.56 60.27 120.89 57.43 Z" />
<path fill="#000000" opacity="1.00" d=" M 134.91 57.75 C 140.33 60.68 145.45 64.29 149.14 69.29 C 143.90 66.09 139.42 61.86 134.91 57.75 Z" />
<path fill="#000000" opacity="1.00" d=" M 52.11 67.49 C 55.79 63.00 60.70 58.37 67.03 59.07 C 72.36 58.88 77.74 60.03 82.63 62.13 C 76.46 61.51 70.34 60.27 64.12 60.39 C 59.59 61.63 56.08 65.11 52.11 67.49 Z" />
<path fill="#000000" opacity="1.00" d=" M 101.25 70.01 C 101.49 65.25 103.88 61.09 107.61 58.30 C 105.45 62.19 103.22 66.02 101.25 70.01 Z" />
<path fill="#000000" opacity="1.00" d=" M 78.91 64.39 C 79.94 67.94 80.53 71.60 81.13 75.24 C 80.35 71.63 79.53 68.03 78.91 64.39 Z" />
<path fill="#000000" opacity="1.00" d=" M 111.59 70.49 C 122.93 67.50 138.07 68.43 144.00 80.21 C 138.45 82.18 132.59 80.84 126.90 80.54 C 118.65 78.68 111.85 84.49 104.34 86.56 C 102.78 84.23 101.12 81.98 99.39 79.78 C 102.89 76.04 106.40 71.78 111.59 70.49 M 104.04 79.34 C 104.71 80.13 105.39 80.91 106.07 81.69 C 110.30 80.23 114.57 78.95 118.85 77.65 C 118.48 75.73 118.11 73.82 117.76 71.90 C 112.86 73.74 108.31 76.33 104.04 79.34 M 132.66 76.33 C 134.37 77.35 136.09 78.36 137.81 79.38 C 137.49 78.25 137.17 77.13 136.85 76.01 C 135.45 76.12 134.06 76.22 132.66 76.33 Z" />
<path fill="#000000" opacity="1.00" d=" M 51.83 78.43 C 55.02 75.72 58.36 72.38 63.03 72.98 C 72.73 70.75 79.18 80.93 88.76 79.87 C 87.17 82.06 85.20 83.91 83.19 85.71 C 83.16 92.27 78.77 96.90 73.71 100.25 C 75.52 102.43 77.11 104.88 79.45 106.54 C 82.15 108.07 85.42 107.35 88.37 107.46 C 87.47 109.30 86.59 111.15 85.73 113.02 C 79.67 112.42 76.15 107.32 71.41 104.32 C 66.38 102.60 61.30 104.80 56.70 106.75 C 64.44 102.23 71.17 96.29 78.74 91.55 C 78.82 89.86 78.98 86.47 79.06 84.78 C 70.15 81.97 60.64 81.55 51.83 78.43 M 61.11 77.31 C 61.52 78.93 65.48 78.93 65.89 77.31 C 64.64 76.26 62.36 76.26 61.11 77.31 Z" />
<path fill="#000000" opacity="1.00" d=" M 143.39 77.17 C 146.46 77.42 149.47 78.09 152.43 78.90 C 149.33 78.80 146.15 78.79 143.39 77.17 Z" />
<path fill="#000000" opacity="1.00" d=" M 48.54 78.12 C 49.95 75.93 51.69 80.03 49.10 79.41 C 48.96 79.09 48.68 78.44 48.54 78.12 Z" />
<path fill="#000000" opacity="1.00" d=" M 26.47 95.40 C 23.73 87.41 31.62 82.66 36.81 78.60 C 33.69 82.50 29.51 85.74 27.44 90.39 C 26.56 93.59 27.69 97.07 28.99 100.01 C 31.38 103.57 35.72 104.94 39.15 107.25 C 33.17 105.96 26.00 102.86 26.47 95.40 Z" />
<path fill="#000000" opacity="1.00" d=" M 144.68 81.15 C 145.47 79.95 147.58 81.23 146.71 82.47 C 145.92 83.62 143.85 82.35 144.68 81.15 Z" />
<path fill="#000000" opacity="1.00" d=" M 123.07 81.80 C 128.57 84.71 134.16 88.89 140.82 87.72 C 148.47 85.61 155.74 81.36 163.98 81.97 C 175.53 83.49 180.87 101.65 170.41 108.01 C 170.68 102.01 173.67 95.49 170.04 89.98 C 168.54 86.61 164.38 85.46 160.99 86.01 C 151.44 86.68 143.06 93.55 133.20 91.78 C 129.54 90.40 126.49 87.80 123.13 85.83 C 123.11 84.49 123.09 83.14 123.07 81.80 Z" />
<path fill="#000000" opacity="1.00" d=" M 32.12 86.15 C 34.34 85.29 36.55 84.43 38.77 83.58 C 35.60 86.06 33.31 89.34 31.75 93.05 C 31.84 91.33 32.03 87.87 32.12 86.15 Z" />
<path fill="#000000" opacity="1.00" d=" M 35.89 92.95 C 36.48 89.05 39.02 84.38 44.05 85.99 C 49.56 84.54 53.15 89.20 57.15 91.87 C 59.10 90.83 61.06 89.78 63.02 88.74 C 63.44 90.23 63.85 91.73 64.26 93.23 C 60.94 93.96 57.57 94.65 54.16 94.66 C 51.70 93.72 49.75 91.82 47.34 90.75 C 43.25 89.46 39.57 91.64 35.89 92.95 Z" />
<path fill="#000000" opacity="1.00" d=" M 143.09 98.92 C 148.82 96.28 155.28 93.86 158.82 88.26 C 159.98 94.19 164.84 97.65 170.00 99.98 C 167.40 100.11 164.83 100.25 162.24 100.36 C 153.74 125.20 130.48 144.33 104.34 147.40 C 88.02 149.60 71.13 150.13 55.08 145.96 C 49.78 144.65 44.89 141.35 42.89 136.05 C 37.15 122.00 39.23 105.74 46.46 92.62 C 47.82 98.13 48.56 104.76 53.95 108.01 C 63.26 115.42 75.91 114.03 87.02 114.12 C 96.97 114.39 106.27 110.45 115.75 108.03 C 125.13 105.88 134.25 102.68 143.09 98.92 M 143.32 103.31 C 141.42 105.89 141.66 109.39 140.91 112.43 C 145.43 110.49 150.01 108.64 154.29 106.20 C 157.85 104.18 157.64 99.21 158.73 95.90 C 153.50 98.15 148.11 100.18 143.32 103.31 M 116.65 112.25 C 116.89 114.28 117.36 118.34 117.59 120.37 C 123.49 118.05 129.47 115.88 135.12 113.02 C 137.13 111.24 137.59 108.36 138.64 105.99 C 131.10 107.20 123.59 108.96 116.65 112.25 M 49.99 108.49 C 48.34 111.82 46.91 115.25 45.60 118.73 C 47.11 119.52 48.62 120.30 50.13 121.09 C 50.20 116.89 50.49 112.67 49.99 108.49 M 144.23 115.36 C 141.62 116.80 141.38 120.16 140.33 122.66 C 141.03 123.05 142.42 123.82 143.12 124.21 C 146.24 120.20 149.38 116.21 152.39 112.12 C 149.67 113.19 146.82 113.99 144.23 115.36 M 53.26 113.31 C 53.46 116.13 53.67 118.95 53.91 121.77 C 55.81 122.14 57.70 122.52 59.58 122.92 C 59.52 120.10 59.52 117.27 59.50 114.46 C 57.42 114.07 55.34 113.69 53.26 113.31 M 94.96 116.83 C 94.99 118.76 95.04 122.61 95.07 124.54 C 101.74 123.72 108.37 122.56 114.93 121.11 C 114.29 118.65 113.64 116.20 113.01 113.75 C 106.95 114.51 100.94 115.57 94.96 116.83 M 64.33 116.38 C 63.67 118.66 62.96 120.92 62.22 123.18 C 66.76 123.64 71.30 123.99 75.85 124.21 C 76.09 122.70 76.57 119.66 76.81 118.14 C 72.64 117.60 68.48 117.03 64.33 116.38 M 81.19 118.27 C 80.73 120.16 80.27 122.05 79.83 123.95 C 83.89 123.97 87.95 124.00 92.01 124.01 C 91.99 122.24 91.97 118.68 91.96 116.90 C 88.38 117.43 84.79 117.91 81.19 118.27 M 119.67 126.14 C 120.83 130.15 122.24 134.08 123.48 138.06 C 128.89 134.77 134.24 131.39 139.41 127.74 C 138.34 125.17 137.32 122.53 136.40 119.91 C 130.74 121.76 125.24 124.05 119.67 126.14 M 99.11 132.27 C 99.18 136.22 99.32 140.19 99.38 144.15 C 106.36 142.94 113.34 141.72 120.22 140.05 C 118.56 135.99 116.78 131.96 115.40 127.79 C 109.89 129.00 104.51 130.67 99.11 132.27 M 45.89 132.82 C 46.79 135.02 47.88 137.14 49.11 139.18 C 48.21 136.98 47.12 134.85 45.89 132.82 M 52.42 132.66 C 52.54 135.00 52.68 137.34 52.81 139.69 C 51.72 139.82 50.63 139.95 49.54 140.09 C 52.42 140.90 55.31 141.55 58.22 142.26 C 56.31 139.05 54.40 135.83 52.42 132.66 M 81.04 135.46 C 81.76 138.64 82.50 141.82 83.19 145.01 C 87.32 144.88 91.45 144.75 95.59 144.60 C 95.39 140.87 95.18 137.14 94.99 133.42 C 90.39 134.41 85.72 135.06 81.04 135.46 M 59.81 134.09 C 60.33 136.98 60.93 139.86 61.42 142.76 C 63.44 143.15 65.45 143.55 67.47 143.94 C 66.06 139.95 65.44 134.38 59.81 134.09 M 67.61 134.56 C 69.64 140.18 72.95 146.43 80.18 145.83 C 79.13 142.33 78.81 138.49 76.75 135.40 C 73.76 134.73 70.62 134.88 67.61 134.56 Z" />
<path fill="#000000" opacity="1.00" d=" M 102.10 94.25 C 105.90 94.99 109.64 96.04 113.22 97.50 C 113.15 100.39 113.07 103.28 112.99 106.17 C 111.08 106.71 109.17 107.24 107.26 107.77 C 107.89 105.16 108.60 102.57 109.25 99.96 C 106.84 99.59 104.44 99.22 102.04 98.86 C 102.06 97.32 102.08 95.78 102.10 94.25 Z" />
<path fill="#000000" opacity="1.00" d=" M 114.04 99.82 C 114.29 98.09 114.59 96.37 114.89 94.66 C 115.11 95.93 115.33 97.19 115.54 98.46 C 120.15 98.82 124.78 99.08 129.39 99.49 C 124.27 99.65 119.16 99.88 114.04 99.82 Z" />
<path fill="#000000" opacity="1.00" d=" M 31.28 97.33 C 33.65 98.58 35.93 100.01 38.14 101.53 C 35.61 100.57 33.24 99.21 31.28 97.33 Z" />
<path fill="#000000" opacity="1.00" d=" M 91.75 102.50 C 95.65 101.79 99.61 100.81 103.60 101.16 C 104.55 102.74 105.18 104.49 105.88 106.20 C 101.43 106.21 96.99 105.88 92.55 105.67 C 92.35 104.88 91.95 103.29 91.75 102.50 Z" />
<path fill="#000000" opacity="1.00" d=" M 169.89 112.08 C 172.89 110.24 175.93 108.44 179.11 106.92 C 176.10 108.75 173.07 110.56 169.89 112.08 Z" />
<path fill="#000000" opacity="1.00" d=" M 137.71 141.85 C 139.83 140.78 142.04 139.90 144.29 139.15 C 142.17 140.22 139.96 141.10 137.71 141.85 Z" />
<path fill="#000000" opacity="1.00" d=" M 151.23 139.21 C 154.19 139.44 150.50 143.37 148.96 141.70 C 148.44 140.41 150.16 139.40 151.23 139.21 Z" />
<path fill="#000000" opacity="1.00" d=" M 103.75 156.13 C 114.51 150.56 126.39 147.59 137.21 142.11 C 127.24 149.13 115.48 153.15 103.75 156.13 Z" />
<path fill="#000000" opacity="1.00" d=" M 134.78 149.27 C 138.74 146.51 142.88 143.95 147.31 141.99 C 143.42 144.87 139.38 147.66 134.78 149.27 Z" />
<path fill="#000000" opacity="1.00" d=" M 46.80 148.98 C 49.98 151.32 53.13 153.72 55.98 156.47 C 52.70 154.26 49.63 151.73 46.80 148.98 Z" />
<path fill="#000000" opacity="1.00" d=" M 116.78 156.25 C 122.13 153.51 127.54 150.82 133.25 148.91 C 128.43 152.62 122.81 155.28 116.78 156.25 Z" />
<path fill="#000000" opacity="1.00" d=" M 38.66 150.04 C 40.07 157.00 47.19 159.31 52.05 163.40 C 47.58 161.62 43.49 159.04 39.29 156.74 C 39.13 155.06 38.81 151.72 38.66 150.04 Z" />
<path fill="#000000" opacity="1.00" d=" M 66.60 152.67 C 76.52 152.05 86.47 151.84 96.40 152.33 C 86.48 152.95 76.53 153.16 66.60 152.67 Z" />
<path fill="#000000" opacity="1.00" d=" M 57.60 156.58 C 71.86 157.01 86.10 156.48 100.35 156.21 C 86.17 156.84 71.70 159.31 57.60 156.58 Z" />
<path fill="#000000" opacity="1.00" d=" M 74.69 163.01 C 88.20 162.48 101.00 157.87 114.31 156.09 C 101.54 160.35 88.20 163.13 74.69 163.01 Z" />
</g>
<g id="#fefefeff">
<path fill="#fefefe" opacity="1.00" d=" M 68.49 49.57 C 94.49 44.10 121.50 43.91 147.87 46.33 C 161.48 50.83 164.65 66.33 172.01 76.93 C 169.45 76.94 164.31 76.97 161.74 76.98 C 166.66 78.39 173.00 78.06 176.43 82.58 C 181.67 89.19 179.38 98.49 179.85 106.33 C 180.43 101.57 180.77 96.79 180.78 92.00 C 181.44 86.68 177.90 82.58 175.56 78.26 C 179.95 83.11 186.29 87.74 186.01 95.03 C 188.39 104.15 179.69 109.65 174.84 115.85 C 169.85 120.94 167.96 128.05 163.44 133.48 C 155.51 143.08 144.22 148.95 133.11 154.10 C 120.96 158.85 109.88 166.35 96.90 168.90 C 81.07 171.80 65.31 179.16 49.03 174.88 C 42.40 173.19 34.58 169.70 32.57 162.56 C 31.07 146.49 34.36 130.35 32.65 114.29 C 31.81 106.82 25.00 101.60 24.98 93.97 C 22.73 86.50 29.15 81.30 33.53 76.50 C 38.15 71.81 36.90 64.10 41.28 59.32 C 47.17 54.78 54.03 50.93 61.67 50.70 C 74.79 50.35 88.00 51.22 101.00 48.94 C 112.56 47.11 124.70 48.40 135.16 53.85 C 141.28 57.42 146.99 61.66 153.21 65.05 C 143.80 56.40 132.22 49.87 119.54 47.72 C 102.42 44.94 85.66 51.62 68.49 49.57 M 96.68 53.72 C 83.63 55.95 70.33 54.43 57.26 53.21 C 56.04 54.28 54.82 55.34 53.61 56.42 C 56.13 55.63 58.67 54.44 61.38 54.69 C 72.05 55.86 82.83 56.52 93.53 55.23 C 99.02 54.63 104.36 52.80 109.95 53.32 C 118.34 53.13 126.26 56.04 134.28 58.01 C 122.97 51.43 109.22 50.84 96.68 53.72 M 102.54 58.12 C 102.68 58.44 102.96 59.09 103.10 59.41 C 105.69 60.03 103.95 55.93 102.54 58.12 M 120.89 57.43 C 129.56 60.27 137.32 65.17 144.59 70.58 C 138.70 63.34 130.29 58.28 120.89 57.43 M 134.91 57.75 C 139.42 61.86 143.90 66.09 149.14 69.29 C 145.45 64.29 140.33 60.68 134.91 57.75 M 52.11 67.49 C 56.08 65.11 59.59 61.63 64.12 60.39 C 70.34 60.27 76.46 61.51 82.63 62.13 C 77.74 60.03 72.36 58.88 67.03 59.07 C 60.70 58.37 55.79 63.00 52.11 67.49 M 101.25 70.01 C 103.22 66.02 105.45 62.19 107.61 58.30 C 103.88 61.09 101.49 65.25 101.25 70.01 M 78.91 64.39 C 79.53 68.03 80.35 71.63 81.13 75.24 C 80.53 71.60 79.94 67.94 78.91 64.39 M 111.59 70.49 C 106.40 71.78 102.89 76.04 99.39 79.78 C 101.12 81.98 102.78 84.23 104.34 86.56 C 111.85 84.49 118.65 78.68 126.90 80.54 C 132.59 80.84 138.45 82.18 144.00 80.21 C 138.07 68.43 122.93 67.50 111.59 70.49 M 51.83 78.43 C 60.64 81.55 70.15 81.97 79.06 84.78 C 78.98 86.47 78.82 89.86 78.74 91.55 C 71.17 96.29 64.44 102.23 56.70 106.75 C 61.30 104.80 66.38 102.60 71.41 104.32 C 76.15 107.32 79.67 112.42 85.73 113.02 C 86.59 111.15 87.47 109.30 88.37 107.46 C 85.42 107.35 82.15 108.07 79.45 106.54 C 77.11 104.88 75.52 102.43 73.71 100.25 C 78.77 96.90 83.16 92.27 83.19 85.71 C 85.20 83.91 87.17 82.06 88.76 79.87 C 79.18 80.93 72.73 70.75 63.03 72.98 C 58.36 72.38 55.02 75.72 51.83 78.43 M 143.39 77.17 C 146.15 78.79 149.33 78.80 152.43 78.90 C 149.47 78.09 146.46 77.42 143.39 77.17 M 48.54 78.12 C 48.68 78.44 48.96 79.09 49.10 79.41 C 51.69 80.03 49.95 75.93 48.54 78.12 M 26.47 95.40 C 26.00 102.86 33.17 105.96 39.15 107.25 C 35.72 104.94 31.38 103.57 28.99 100.01 C 27.69 97.07 26.56 93.59 27.44 90.39 C 29.51 85.74 33.69 82.50 36.81 78.60 C 31.62 82.66 23.73 87.41 26.47 95.40 M 144.68 81.15 C 143.85 82.35 145.92 83.62 146.71 82.47 C 147.58 81.23 145.47 79.95 144.68 81.15 M 123.07 81.80 C 123.09 83.14 123.11 84.49 123.13 85.83 C 126.49 87.80 129.54 90.40 133.20 91.78 C 143.06 93.55 151.44 86.68 160.99 86.01 C 164.38 85.46 168.54 86.61 170.04 89.98 C 173.67 95.49 170.68 102.01 170.41 108.01 C 180.87 101.65 175.53 83.49 163.98 81.97 C 155.74 81.36 148.47 85.61 140.82 87.72 C 134.16 88.89 128.57 84.71 123.07 81.80 M 32.12 86.15 C 32.03 87.87 31.84 91.33 31.75 93.05 C 33.31 89.34 35.60 86.06 38.77 83.58 C 36.55 84.43 34.34 85.29 32.12 86.15 M 35.89 92.95 C 39.57 91.64 43.25 89.46 47.34 90.75 C 49.75 91.82 51.70 93.72 54.16 94.66 C 57.57 94.65 60.94 93.96 64.26 93.23 C 63.85 91.73 63.44 90.23 63.02 88.74 C 61.06 89.78 59.10 90.83 57.15 91.87 C 53.15 89.20 49.56 84.54 44.05 85.99 C 39.02 84.38 36.48 89.05 35.89 92.95 M 143.09 98.92 C 134.25 102.68 125.13 105.88 115.75 108.03 C 106.27 110.45 96.97 114.39 87.02 114.12 C 75.91 114.03 63.26 115.42 53.95 108.01 C 48.56 104.76 47.82 98.13 46.46 92.62 C 39.23 105.74 37.15 122.00 42.89 136.05 C 44.89 141.35 49.78 144.65 55.08 145.96 C 71.13 150.13 88.02 149.60 104.34 147.40 C 130.48 144.33 153.74 125.20 162.24 100.36 C 164.83 100.25 167.40 100.11 170.00 99.98 C 164.84 97.65 159.98 94.19 158.82 88.26 C 155.28 93.86 148.82 96.28 143.09 98.92 M 102.10 94.25 C 102.08 95.78 102.06 97.32 102.04 98.86 C 104.44 99.22 106.84 99.59 109.25 99.96 C 108.60 102.57 107.89 105.16 107.26 107.77 C 109.17 107.24 111.08 106.71 112.99 106.17 C 113.07 103.28 113.15 100.39 113.22 97.50 C 109.64 96.04 105.90 94.99 102.10 94.25 M 114.04 99.82 C 119.16 99.88 124.27 99.65 129.39 99.49 C 124.78 99.08 120.15 98.82 115.54 98.46 C 115.33 97.19 115.11 95.93 114.89 94.66 C 114.59 96.37 114.29 98.09 114.04 99.82 M 31.28 97.33 C 33.24 99.21 35.61 100.57 38.14 101.53 C 35.93 100.01 33.65 98.58 31.28 97.33 M 91.75 102.50 C 91.95 103.29 92.35 104.88 92.55 105.67 C 96.99 105.88 101.43 106.21 105.88 106.20 C 105.18 104.49 104.55 102.74 103.60 101.16 C 99.61 100.81 95.65 101.79 91.75 102.50 M 169.89 112.08 C 173.07 110.56 176.10 108.75 179.11 106.92 C 175.93 108.44 172.89 110.24 169.89 112.08 M 137.71 141.85 C 139.96 141.10 142.17 140.22 144.29 139.15 C 142.04 139.90 139.83 140.78 137.71 141.85 M 151.23 139.21 C 150.16 139.40 148.44 140.41 148.96 141.70 C 150.50 143.37 154.19 139.44 151.23 139.21 M 103.75 156.13 C 115.48 153.15 127.24 149.13 137.21 142.11 C 126.39 147.59 114.51 150.56 103.75 156.13 M 134.78 149.27 C 139.38 147.66 143.42 144.87 147.31 141.99 C 142.88 143.95 138.74 146.51 134.78 149.27 M 46.80 148.98 C 49.63 151.73 52.70 154.26 55.98 156.47 C 53.13 153.72 49.98 151.32 46.80 148.98 M 116.78 156.25 C 122.81 155.28 128.43 152.62 133.25 148.91 C 127.54 150.82 122.13 153.51 116.78 156.25 M 38.66 150.04 C 38.81 151.72 39.13 155.06 39.29 156.74 C 43.49 159.04 47.58 161.62 52.05 163.40 C 47.19 159.31 40.07 157.00 38.66 150.04 M 66.60 152.67 C 76.53 153.16 86.48 152.95 96.40 152.33 C 86.47 151.84 76.52 152.05 66.60 152.67 M 57.60 156.58 C 71.70 159.31 86.17 156.84 100.35 156.21 C 86.10 156.48 71.86 157.01 57.60 156.58 M 74.69 163.01 C 88.20 163.13 101.54 160.35 114.31 156.09 C 101.00 157.87 88.20 162.48 74.69 163.01 Z" />
<path fill="#fefefe" opacity="1.00" d=" M 104.04 79.34 C 108.31 76.33 112.86 73.74 117.76 71.90 C 118.11 73.82 118.48 75.73 118.85 77.65 C 114.57 78.95 110.30 80.23 106.07 81.69 C 105.39 80.91 104.71 80.13 104.04 79.34 Z" />
<path fill="#fefefe" opacity="1.00" d=" M 132.66 76.33 C 134.06 76.22 135.45 76.12 136.85 76.01 C 137.17 77.13 137.49 78.25 137.81 79.38 C 136.09 78.36 134.37 77.35 132.66 76.33 Z" />
<path fill="#fefefe" opacity="1.00" d=" M 61.11 77.31 C 62.36 76.26 64.64 76.26 65.89 77.31 C 65.48 78.93 61.52 78.93 61.11 77.31 Z" />
<path fill="#fefefe" opacity="1.00" d=" M 143.32 103.31 C 148.11 100.18 153.50 98.15 158.73 95.90 C 157.64 99.21 157.85 104.18 154.29 106.20 C 150.01 108.64 145.43 110.49 140.91 112.43 C 141.66 109.39 141.42 105.89 143.32 103.31 Z" />
<path fill="#fefefe" opacity="1.00" d=" M 116.65 112.25 C 123.59 108.96 131.10 107.20 138.64 105.99 C 137.59 108.36 137.13 111.24 135.12 113.02 C 129.47 115.88 123.49 118.05 117.59 120.37 C 117.36 118.34 116.89 114.28 116.65 112.25 Z" />
<path fill="#fefefe" opacity="1.00" d=" M 49.99 108.49 C 50.49 112.67 50.20 116.89 50.13 121.09 C 48.62 120.30 47.11 119.52 45.60 118.73 C 46.91 115.25 48.34 111.82 49.99 108.49 Z" />
<path fill="#fefefe" opacity="1.00" d=" M 144.23 115.36 C 146.82 113.99 149.67 113.19 152.39 112.12 C 149.38 116.21 146.24 120.20 143.12 124.21 C 142.42 123.82 141.03 123.05 140.33 122.66 C 141.38 120.16 141.62 116.80 144.23 115.36 Z" />
<path fill="#fefefe" opacity="1.00" d=" M 53.26 113.31 C 55.34 113.69 57.42 114.07 59.50 114.46 C 59.52 117.27 59.52 120.10 59.58 122.92 C 57.70 122.52 55.81 122.14 53.91 121.77 C 53.67 118.95 53.46 116.13 53.26 113.31 Z" />
<path fill="#fefefe" opacity="1.00" d=" M 94.96 116.83 C 100.94 115.57 106.95 114.51 113.01 113.75 C 113.64 116.20 114.29 118.65 114.93 121.11 C 108.37 122.56 101.74 123.72 95.07 124.54 C 95.04 122.61 94.99 118.76 94.96 116.83 Z" />
<path fill="#fefefe" opacity="1.00" d=" M 64.33 116.38 C 68.48 117.03 72.64 117.60 76.81 118.14 C 76.57 119.66 76.09 122.70 75.85 124.21 C 71.30 123.99 66.76 123.64 62.22 123.18 C 62.96 120.92 63.67 118.66 64.33 116.38 Z" />
<path fill="#fefefe" opacity="1.00" d=" M 81.19 118.27 C 84.79 117.91 88.38 117.43 91.96 116.90 C 91.97 118.68 91.99 122.24 92.01 124.01 C 87.95 124.00 83.89 123.97 79.83 123.95 C 80.27 122.05 80.73 120.16 81.19 118.27 Z" />
<path fill="#fefefe" opacity="1.00" d=" M 119.67 126.14 C 125.24 124.05 130.74 121.76 136.40 119.91 C 137.32 122.53 138.34 125.17 139.41 127.74 C 134.24 131.39 128.89 134.77 123.48 138.06 C 122.24 134.08 120.83 130.15 119.67 126.14 Z" />
<path fill="#fefefe" opacity="1.00" d=" M 99.11 132.27 C 104.51 130.67 109.89 129.00 115.40 127.79 C 116.78 131.96 118.56 135.99 120.22 140.05 C 113.34 141.72 106.36 142.94 99.38 144.15 C 99.32 140.19 99.18 136.22 99.11 132.27 Z" />
<path fill="#fefefe" opacity="1.00" d=" M 45.89 132.82 C 47.12 134.85 48.21 136.98 49.11 139.18 C 47.88 137.14 46.79 135.02 45.89 132.82 Z" />
<path fill="#fefefe" opacity="1.00" d=" M 52.42 132.66 C 54.40 135.83 56.31 139.05 58.22 142.26 C 55.31 141.55 52.42 140.90 49.54 140.09 C 50.63 139.95 51.72 139.82 52.81 139.69 C 52.68 137.34 52.54 135.00 52.42 132.66 Z" />
<path fill="#fefefe" opacity="1.00" d=" M 81.04 135.46 C 85.72 135.06 90.39 134.41 94.99 133.42 C 95.18 137.14 95.39 140.87 95.59 144.60 C 91.45 144.75 87.32 144.88 83.19 145.01 C 82.50 141.82 81.76 138.64 81.04 135.46 Z" />
<path fill="#fefefe" opacity="1.00" d=" M 59.81 134.09 C 65.44 134.38 66.06 139.95 67.47 143.94 C 65.45 143.55 63.44 143.15 61.42 142.76 C 60.93 139.86 60.33 136.98 59.81 134.09 Z" />
<path fill="#fefefe" opacity="1.00" d=" M 67.61 134.56 C 70.62 134.88 73.76 134.73 76.75 135.40 C 78.81 138.49 79.13 142.33 80.18 145.83 C 72.95 146.43 69.64 140.18 67.61 134.56 Z" />
</g>
</svg>
