<?xml version="1.0" encoding="UTF-8" ?>
<!DOCTYPE svg PUBLIC "-//W3C//DTD SVG 1.1//EN" "http://www.w3.org/Graphics/SVG/1.1/DTD/svg11.dtd">
<svg width="210pt" height="220pt" viewBox="0 0 210 220" version="1.1" xmlns="http://www.w3.org/2000/svg">
<g id="#ffffffff">
<path fill="#ffffff" opacity="1.00" d=" M 0.00 0.00 L 210.00 0.00 L 210.00 220.00 L 0.00 220.00 L 0.00 0.00 M 85.44 12.22 C 76.35 16.62 70.20 25.43 66.79 34.71 C 62.02 48.42 62.75 63.74 67.78 77.27 C 72.51 90.21 81.74 101.82 94.32 107.82 C 88.51 110.73 83.43 115.19 80.64 121.11 C 80.38 123.97 80.82 126.99 79.40 129.63 C 77.00 134.64 73.86 139.33 70.07 143.40 C 71.37 143.27 72.68 143.15 73.98 143.05 L 73.17 142.56 C 76.56 138.07 80.11 133.48 81.82 128.05 C 82.91 125.30 81.40 121.88 83.57 119.54 C 86.36 114.80 90.86 111.16 95.95 109.19 C 100.64 109.28 105.21 111.17 109.96 110.44 C 112.35 110.53 115.21 108.68 117.17 110.76 C 123.78 116.60 129.60 123.78 137.80 127.48 C 140.69 129.00 144.66 127.33 146.97 129.95 C 150.07 133.14 154.94 132.52 158.99 133.18 C 163.09 134.03 165.36 129.59 169.09 128.91 C 174.82 127.44 177.19 121.48 179.84 116.83 C 182.04 113.19 181.42 108.79 182.42 104.80 C 183.68 98.08 187.93 92.32 188.75 85.48 C 189.12 82.14 190.96 79.30 192.88 76.65 C 197.47 77.69 202.23 78.81 206.96 77.95 C 207.27 77.19 207.57 76.42 207.84 75.64 C 202.47 76.29 197.23 74.97 191.94 74.58 C 189.17 77.40 187.07 80.98 186.52 84.95 C 185.72 91.66 181.62 97.30 180.25 103.86 C 179.20 107.81 179.89 112.19 177.78 115.86 C 175.94 119.17 174.35 122.84 171.42 125.35 C 168.15 126.96 164.39 127.74 161.92 130.66 C 156.82 130.47 150.62 131.29 146.96 126.95 C 143.94 125.59 140.16 126.52 137.19 124.73 C 129.90 120.67 124.38 114.26 118.26 108.73 C 124.59 106.08 130.19 101.72 134.03 96.00 C 142.54 83.93 144.31 68.28 141.94 53.99 C 139.14 38.16 130.52 22.78 116.62 14.20 C 107.45 8.42 95.21 7.17 85.44 12.22 M 3.00 100.27 C 2.77 100.83 2.32 101.96 2.10 102.52 C 6.85 101.94 11.28 99.89 16.01 99.33 C 18.06 100.42 20.27 101.40 21.96 103.01 C 23.51 106.60 23.80 110.71 26.18 113.92 C 30.94 120.67 35.80 127.46 41.94 133.03 C 45.24 136.41 47.73 140.50 51.39 143.54 C 50.45 143.55 48.57 143.58 47.63 143.59 C 47.67 151.55 47.66 159.50 47.64 167.46 C 49.68 167.49 51.72 167.51 53.76 167.54 C 53.81 160.02 53.77 152.50 53.78 144.99 C 54.45 145.32 55.80 145.99 56.47 146.33 C 56.79 153.37 56.48 160.44 56.57 167.49 C 58.33 167.50 60.09 167.50 61.84 167.50 C 61.72 162.31 61.66 157.10 61.91 151.91 C 62.23 153.99 62.53 156.08 62.94 158.14 C 63.58 161.27 63.92 164.44 64.42 167.60 C 65.65 167.53 66.87 167.46 68.10 167.40 C 68.51 162.19 69.58 157.06 70.08 151.87 C 70.58 157.06 70.51 162.28 70.38 167.48 C 72.13 167.50 73.88 167.52 75.63 167.54 C 75.66 159.56 75.65 151.58 75.63 143.60 C 72.16 144.03 68.50 143.08 65.18 144.44 C 63.91 146.79 66.58 147.15 68.17 146.43 C 66.70 148.72 66.53 151.50 66.06 154.11 C 65.62 151.67 65.20 149.20 64.72 146.79 L 63.95 150.04 C 64.15 148.07 64.41 146.08 64.13 144.11 C 61.27 142.20 56.57 145.01 53.45 142.76 C 49.24 140.25 47.04 135.68 43.62 132.34 C 37.15 126.37 31.89 119.22 27.01 111.94 C 24.35 108.03 25.43 101.63 20.37 99.59 C 18.74 98.94 18.05 96.34 16.05 96.88 C 11.64 97.72 7.29 98.96 3.00 100.27 M 105.32 114.95 C 105.35 124.47 105.34 134.00 105.34 143.52 C 103.11 143.52 100.88 143.52 98.64 143.55 C 100.33 151.45 101.00 159.51 102.46 167.46 C 103.06 167.48 104.25 167.54 104.84 167.57 C 104.97 170.38 108.04 170.28 108.08 167.48 C 109.23 167.51 110.39 167.53 111.55 167.56 C 112.85 159.56 113.71 151.48 114.67 143.43 C 112.73 143.50 110.80 143.56 108.87 143.68 C 108.57 146.44 107.98 149.17 107.53 151.91 C 107.70 149.95 107.89 147.98 107.84 146.00 C 107.22 134.35 107.87 122.68 107.45 111.02 C 104.60 110.66 105.59 113.44 105.32 114.95 M 116.30 143.49 C 115.68 151.46 115.73 159.46 115.74 167.45 C 119.34 167.50 122.94 167.49 126.53 167.50 C 126.53 165.89 126.53 164.28 126.51 162.67 C 125.10 162.66 123.69 162.66 122.28 162.66 C 122.27 160.93 122.26 159.20 122.26 157.48 C 123.16 157.48 124.95 157.48 125.84 157.48 C 125.80 155.88 125.75 154.28 125.70 152.69 C 124.84 152.71 123.12 152.75 122.27 152.77 C 122.27 151.67 122.27 149.45 122.27 148.35 C 123.60 148.34 124.94 148.34 126.27 148.34 C 126.29 146.73 126.30 145.12 126.31 143.52 C 122.97 143.51 119.63 143.51 116.30 143.49 M 158.23 143.49 C 158.22 145.11 158.22 146.72 158.23 148.34 C 159.09 148.35 160.82 148.35 161.69 148.36 C 161.63 154.73 161.67 161.11 161.65 167.48 C 163.70 167.49 165.75 167.50 167.80 167.51 C 167.77 161.14 167.81 154.78 167.76 148.41 C 169.06 148.39 170.36 148.37 171.67 148.36 C 171.67 146.74 171.68 145.11 171.68 143.49 C 167.19 143.52 162.71 143.52 158.23 143.49 M 86.14 144.14 C 84.59 145.20 83.55 147.02 83.53 148.92 C 83.34 153.57 83.27 158.24 83.60 162.89 C 84.51 169.67 96.70 169.72 97.54 162.93 C 97.76 157.78 97.90 152.58 97.40 147.45 C 96.24 142.65 89.81 142.21 86.14 144.14 M 128.54 143.52 C 128.54 151.50 128.52 159.49 128.58 167.48 C 130.60 167.49 132.62 167.51 134.64 167.53 C 134.64 163.72 134.56 159.92 134.73 156.12 C 135.15 156.46 135.99 157.13 136.41 157.47 C 136.93 160.78 136.55 164.16 136.61 167.50 C 138.57 167.50 140.54 167.50 142.50 167.49 C 142.49 164.01 142.51 160.52 142.37 157.04 C 141.55 156.37 140.73 155.69 139.92 155.02 C 140.76 154.37 141.59 153.72 142.43 153.07 C 142.57 149.80 142.94 145.08 139.06 143.82 C 135.58 143.29 132.04 143.55 128.54 143.52 M 150.37 167.51 C 152.41 167.50 154.46 167.50 156.51 167.50 C 156.49 159.50 156.54 151.50 156.41 143.51 C 154.40 143.50 152.38 143.50 150.37 143.50 C 150.38 151.50 150.39 159.50 150.37 167.51 Z" />
<path fill="#ffffff" opacity="1.00" d=" M 93.10 11.91 C 101.10 10.19 109.55 12.29 116.34 16.70 C 127.06 23.54 134.28 34.90 137.89 46.93 C 142.08 60.80 141.77 76.40 135.30 89.53 C 131.05 98.10 123.48 105.55 113.88 107.54 C 104.75 109.89 95.01 106.73 87.67 101.17 C 76.18 92.54 69.25 78.90 66.83 64.93 C 64.58 52.33 66.14 38.73 72.63 27.57 C 77.04 19.94 84.33 13.72 93.10 11.91 M 105.37 35.51 C 105.34 36.02 105.27 37.04 105.24 37.54 C 109.06 37.59 112.85 38.05 116.65 38.48 C 116.68 38.00 116.75 37.06 116.79 36.58 C 114.42 36.48 112.07 36.33 109.71 36.17 C 108.27 35.93 106.82 35.72 105.37 35.51 M 81.30 44.79 C 81.38 45.25 81.55 46.17 81.63 46.63 C 85.36 45.65 89.93 44.15 90.92 39.89 C 87.87 41.83 85.00 44.25 81.30 44.79 M 97.69 79.62 C 94.42 81.11 92.85 84.73 92.46 88.11 C 94.67 86.63 95.34 83.95 97.04 82.06 C 100.01 80.17 103.21 78.62 106.51 77.41 C 111.98 75.44 118.07 79.05 123.30 75.89 C 118.94 74.94 114.43 75.49 110.00 75.26 C 105.44 74.95 101.58 77.69 97.69 79.62 Z" />
<path fill="#ffffff" opacity="1.00" d=" M 89.55 147.42 C 90.05 147.40 91.06 147.35 91.57 147.32 C 91.58 152.76 91.59 158.21 91.57 163.65 C 91.06 163.64 90.05 163.62 89.55 163.61 C 89.53 158.21 89.53 152.82 89.55 147.42 Z" />
<path fill="#ffffff" opacity="1.00" d=" M 134.62 147.62 C 135.09 147.65 136.04 147.70 136.52 147.73 C 136.58 149.33 136.63 150.94 136.67 152.55 C 136.15 152.60 135.11 152.70 134.59 152.75 C 134.60 151.04 134.61 149.33 134.62 147.62 Z" />
</g>
<g id="#cd2128ff">
<path fill="#cd2128" opacity="1.00" d=" M 85.44 12.22 C 95.21 7.17 107.45 8.42 116.62 14.20 C 130.52 22.78 139.14 38.16 141.94 53.99 C 144.31 68.28 142.54 83.93 134.03 96.00 C 130.19 101.72 124.59 106.08 118.26 108.73 C 124.38 114.26 129.90 120.67 137.19 124.73 C 140.16 126.52 143.94 125.59 146.96 126.95 C 150.62 131.29 156.82 130.47 161.92 130.66 C 164.39 127.74 168.15 126.96 171.42 125.35 C 174.35 122.84 175.94 119.17 177.78 115.86 C 179.89 112.19 179.20 107.81 180.25 103.86 C 181.62 97.30 185.72 91.66 186.52 84.95 C 187.07 80.98 189.17 77.40 191.94 74.58 C 197.23 74.97 202.47 76.29 207.84 75.64 C 207.57 76.42 207.27 77.19 206.96 77.95 C 202.23 78.81 197.47 77.69 192.88 76.65 C 190.96 79.30 189.12 82.14 188.75 85.48 C 187.93 92.32 183.68 98.08 182.42 104.80 C 181.42 108.79 182.04 113.19 179.84 116.83 C 177.19 121.48 174.82 127.44 169.09 128.91 C 165.36 129.59 163.09 134.03 158.99 133.18 C 154.94 132.52 150.07 133.14 146.97 129.95 C 144.66 127.33 140.69 129.00 137.80 127.48 C 129.60 123.78 123.78 116.60 117.17 110.76 C 115.21 108.68 112.35 110.53 109.96 110.44 C 105.21 111.17 100.64 109.28 95.95 109.19 C 90.86 111.16 86.36 114.80 83.57 119.54 C 81.40 121.88 82.91 125.30 81.82 128.05 C 80.11 133.48 76.56 138.07 73.17 142.56 L 73.98 143.05 C 72.68 143.15 71.37 143.27 70.07 143.40 C 73.86 139.33 77.00 134.64 79.40 129.63 C 80.82 126.99 80.38 123.97 80.64 121.11 C 83.43 115.19 88.51 110.73 94.32 107.82 C 81.74 101.82 72.51 90.21 67.78 77.27 C 62.75 63.74 62.02 48.42 66.79 34.71 C 70.20 25.43 76.35 16.62 85.44 12.22 M 93.10 11.91 C 84.33 13.72 77.04 19.94 72.63 27.57 C 66.14 38.73 64.58 52.33 66.83 64.93 C 69.25 78.90 76.18 92.54 87.67 101.17 C 95.01 106.73 104.75 109.89 113.88 107.54 C 123.48 105.55 131.05 98.10 135.30 89.53 C 141.77 76.40 142.08 60.80 137.89 46.93 C 134.28 34.90 127.06 23.54 116.34 16.70 C 109.55 12.29 101.10 10.19 93.10 11.91 Z" />
<path fill="#cd2128" opacity="1.00" d=" M 105.37 35.51 C 106.82 35.72 108.27 35.93 109.71 36.17 C 112.07 36.33 114.42 36.48 116.79 36.58 C 116.75 37.06 116.68 38.00 116.65 38.48 C 112.85 38.05 109.06 37.59 105.24 37.54 C 105.27 37.04 105.34 36.02 105.37 35.51 Z" />
<path fill="#cd2128" opacity="1.00" d=" M 81.30 44.79 C 85.00 44.25 87.87 41.83 90.92 39.89 C 89.93 44.15 85.36 45.65 81.63 46.63 C 81.55 46.17 81.38 45.25 81.30 44.79 Z" />
<path fill="#cd2128" opacity="1.00" d=" M 97.69 79.62 C 101.58 77.69 105.44 74.95 110.00 75.26 C 114.43 75.49 118.94 74.94 123.30 75.89 C 118.07 79.05 111.98 75.44 106.51 77.41 C 103.21 78.62 100.01 80.17 97.04 82.06 C 95.34 83.95 94.67 86.63 92.46 88.11 C 92.85 84.73 94.42 81.11 97.69 79.62 Z" />
<path fill="#cd2128" opacity="1.00" d=" M 3.00 100.27 C 7.29 98.96 11.64 97.72 16.05 96.88 C 18.05 96.34 18.74 98.94 20.37 99.59 C 25.43 101.63 24.35 108.03 27.01 111.94 C 31.89 119.22 37.15 126.37 43.62 132.34 C 47.04 135.68 49.24 140.25 53.45 142.76 C 56.57 145.01 61.27 142.20 64.13 144.11 C 64.41 146.08 64.15 148.07 63.95 150.04 L 64.72 146.79 C 65.20 149.20 65.62 151.67 66.06 154.11 C 66.53 151.50 66.70 148.72 68.17 146.43 C 66.58 147.15 63.91 146.79 65.18 144.44 C 68.50 143.08 72.16 144.03 75.63 143.60 C 75.65 151.58 75.66 159.56 75.63 167.54 C 73.88 167.52 72.13 167.50 70.38 167.48 C 70.51 162.28 70.58 157.06 70.08 151.87 C 69.58 157.06 68.51 162.19 68.10 167.40 C 66.87 167.46 65.65 167.53 64.42 167.60 C 63.92 164.44 63.58 161.27 62.94 158.14 C 62.53 156.08 62.23 153.99 61.91 151.91 C 61.66 157.10 61.72 162.31 61.84 167.50 C 60.09 167.50 58.33 167.50 56.57 167.49 C 56.48 160.44 56.79 153.37 56.47 146.33 C 55.80 145.99 54.45 145.32 53.78 144.99 C 53.77 152.50 53.81 160.02 53.76 167.54 C 51.72 167.51 49.68 167.49 47.64 167.46 C 47.66 159.50 47.67 151.55 47.63 143.59 C 48.57 143.58 50.45 143.55 51.39 143.54 C 47.73 140.50 45.24 136.41 41.94 133.03 C 35.80 127.46 30.94 120.67 26.18 113.92 C 23.80 110.71 23.51 106.60 21.96 103.01 C 20.27 101.40 18.06 100.42 16.01 99.33 C 11.28 99.89 6.85 101.94 2.10 102.52 C 2.32 101.96 2.77 100.83 3.00 100.27 Z" />
<path fill="#cd2128" opacity="1.00" d=" M 105.32 114.95 C 105.59 113.44 104.60 110.66 107.45 111.02 C 107.87 122.68 107.22 134.35 107.84 146.00 C 107.89 147.98 107.70 149.95 107.53 151.91 C 107.98 149.17 108.57 146.44 108.87 143.68 C 110.80 143.56 112.73 143.50 114.67 143.43 C 113.71 151.48 112.85 159.56 111.55 167.56 C 110.39 167.53 109.23 167.51 108.08 167.48 C 108.04 170.28 104.97 170.38 104.84 167.57 C 104.25 167.54 103.06 167.48 102.46 167.46 C 101.00 159.51 100.33 151.45 98.64 143.55 C 100.88 143.52 103.11 143.52 105.34 143.52 C 105.34 134.00 105.35 124.47 105.32 114.95 Z" />
<path fill="#cd2128" opacity="1.00" d=" M 116.30 143.49 C 119.63 143.51 122.97 143.51 126.31 143.52 C 126.30 145.12 126.29 146.73 126.27 148.34 C 124.94 148.34 123.60 148.34 122.27 148.35 C 122.27 149.45 122.27 151.67 122.27 152.77 C 123.12 152.75 124.84 152.71 125.70 152.69 C 125.75 154.28 125.80 155.88 125.84 157.48 C 124.95 157.48 123.16 157.48 122.26 157.48 C 122.26 159.20 122.27 160.93 122.28 162.66 C 123.69 162.66 125.10 162.66 126.51 162.67 C 126.53 164.28 126.53 165.89 126.53 167.50 C 122.94 167.49 119.34 167.50 115.74 167.45 C 115.73 159.46 115.68 151.46 116.30 143.49 Z" />
<path fill="#cd2128" opacity="1.00" d=" M 158.23 143.49 C 162.71 143.52 167.19 143.52 171.68 143.49 C 171.68 145.11 171.67 146.74 171.67 148.36 C 170.36 148.37 169.06 148.39 167.76 148.41 C 167.81 154.78 167.77 161.14 167.80 167.51 C 165.75 167.50 163.70 167.49 161.65 167.48 C 161.67 161.11 161.63 154.73 161.69 148.36 C 160.82 148.35 159.09 148.35 158.23 148.34 C 158.22 146.72 158.22 145.11 158.23 143.49 Z" />
<path fill="#cd2128" opacity="1.00" d=" M 86.14 144.14 C 89.81 142.21 96.24 142.65 97.40 147.45 C 97.90 152.58 97.76 157.78 97.54 162.93 C 96.70 169.72 84.51 169.67 83.60 162.89 C 83.27 158.24 83.34 153.57 83.53 148.92 C 83.55 147.02 84.59 145.20 86.14 144.14 M 89.55 147.42 C 89.53 152.82 89.53 158.21 89.55 163.61 C 90.05 163.62 91.06 163.64 91.57 163.65 C 91.59 158.21 91.58 152.76 91.57 147.32 C 91.06 147.35 90.05 147.40 89.55 147.42 Z" />
<path fill="#cd2128" opacity="1.00" d=" M 128.54 143.52 C 132.04 143.55 135.58 143.29 139.06 143.82 C 142.94 145.08 142.57 149.80 142.43 153.07 C 141.59 153.72 140.76 154.37 139.92 155.02 C 140.73 155.69 141.55 156.37 142.37 157.04 C 142.51 160.52 142.49 164.01 142.50 167.49 C 140.54 167.50 138.57 167.50 136.61 167.50 C 136.55 164.16 136.93 160.78 136.41 157.47 C 135.99 157.13 135.15 156.46 134.73 156.12 C 134.56 159.92 134.64 163.72 134.64 167.53 C 132.62 167.51 130.60 167.49 128.58 167.48 C 128.52 159.49 128.54 151.50 128.54 143.52 M 134.62 147.62 C 134.61 149.33 134.60 151.04 134.59 152.75 C 135.11 152.70 136.15 152.60 136.67 152.55 C 136.63 150.94 136.58 149.33 136.52 147.73 C 136.04 147.70 135.09 147.65 134.62 147.62 Z" />
<path fill="#cd2128" opacity="1.00" d=" M 150.37 167.51 C 150.39 159.50 150.38 151.50 150.37 143.50 C 152.38 143.50 154.40 143.50 156.41 143.51 C 156.54 151.50 156.49 159.50 156.51 167.50 C 154.46 167.50 152.41 167.50 150.37 167.51 Z" />
</g>
</svg>
