<?xml version="1.0" encoding="UTF-8" ?>
<!DOCTYPE svg PUBLIC "-//W3C//DTD SVG 1.1//EN" "http://www.w3.org/Graphics/SVG/1.1/DTD/svg11.dtd">
<svg width="320pt" height="240pt" viewBox="0 0 320 240" version="1.1" xmlns="http://www.w3.org/2000/svg">
<g id="#010101fe">
<path fill="#010101" opacity="1.00" d=" M 124.36 0.00 L 152.96 0.00 C 156.78 2.07 160.50 4.37 163.84 7.17 C 168.41 10.96 173.60 13.97 177.86 18.13 C 183.39 23.38 186.93 30.26 192.06 35.86 C 195.65 39.77 199.21 43.80 201.37 48.71 C 204.24 53.28 204.08 58.82 205.12 63.93 C 208.67 62.39 212.12 60.63 215.66 59.05 C 221.60 66.56 222.20 76.42 225.67 85.04 C 226.86 88.84 229.57 92.56 228.42 96.72 C 227.32 101.40 227.31 106.23 227.54 111.02 C 227.80 116.66 227.32 122.34 227.97 127.97 C 230.86 144.11 228.82 160.55 229.41 176.84 C 230.65 178.08 232.56 178.91 233.22 180.61 C 234.70 190.42 231.23 200.16 226.40 208.56 C 221.61 218.90 218.12 229.79 213.02 240.00 L 210.40 240.00 C 211.39 236.22 211.69 232.20 213.66 228.75 C 217.05 222.27 217.69 214.77 221.02 208.28 C 222.08 206.10 222.54 203.69 223.35 201.41 C 224.21 198.64 227.64 197.10 227.55 194.01 C 227.55 188.00 227.93 181.93 226.67 176.02 C 226.28 165.65 226.82 155.27 226.45 144.90 C 226.30 139.37 223.12 134.55 222.81 129.06 C 222.37 122.10 218.56 115.54 219.58 108.50 C 224.04 111.81 224.38 117.60 225.20 122.62 C 225.55 118.27 226.35 113.62 224.37 109.53 C 221.36 102.89 223.17 95.47 221.69 88.53 C 221.52 80.97 220.05 73.44 217.65 66.28 C 216.55 62.53 211.37 62.53 208.70 64.50 C 205.54 66.34 205.32 70.33 204.33 73.48 C 203.88 73.60 202.98 73.84 202.53 73.97 C 202.36 71.33 202.89 68.27 200.75 66.26 C 195.59 60.72 192.15 53.88 189.25 46.95 C 187.11 40.94 186.85 33.07 180.29 29.92 C 180.44 28.16 180.60 26.39 180.72 24.62 C 171.83 16.10 162.17 7.94 150.87 2.83 C 145.40 1.63 139.70 2.35 134.14 2.30 C 124.88 2.31 116.29 6.78 107.03 6.73 C 103.42 7.07 100.04 8.58 96.90 10.32 C 101.60 10.93 106.33 10.53 111.04 10.67 C 115.51 10.86 119.47 13.49 123.95 13.59 C 126.62 13.63 129.31 13.88 131.98 13.53 C 134.85 11.57 137.05 8.83 139.52 6.42 C 146.76 10.66 156.32 7.43 163.02 13.01 C 167.66 17.85 168.08 24.95 171.37 30.57 C 175.09 37.15 177.92 44.30 182.75 50.20 C 185.74 54.46 189.84 57.73 193.33 61.55 C 189.44 61.62 185.32 61.81 181.65 60.33 C 176.21 56.71 173.18 50.78 169.29 45.74 C 166.47 41.96 164.31 37.76 162.09 33.62 C 158.82 33.57 155.33 34.16 152.27 32.66 C 149.24 31.55 147.19 28.95 144.90 26.82 C 142.01 28.88 139.02 30.99 136.98 33.95 C 135.78 36.36 135.16 39.01 134.31 41.56 C 133.34 41.57 132.38 41.58 131.42 41.60 C 131.51 37.88 131.62 34.15 131.42 30.43 C 127.66 32.52 125.96 36.60 125.16 40.61 C 124.43 40.59 122.96 40.55 122.23 40.53 C 122.08 35.35 125.11 30.95 126.13 26.02 C 126.71 22.84 128.95 20.39 130.46 17.63 C 124.74 18.06 119.10 17.06 113.83 14.83 C 107.42 12.87 100.61 13.37 94.00 13.41 C 86.60 14.15 78.12 14.24 72.73 20.20 C 70.32 22.22 67.89 24.32 66.27 27.06 C 63.02 32.68 57.89 36.78 53.71 41.66 C 48.08 48.97 42.67 56.54 36.09 63.05 C 38.12 68.96 41.97 75.16 39.43 81.52 C 38.50 81.46 37.56 81.40 36.62 81.35 C 36.65 77.61 37.08 73.80 36.18 70.14 C 35.22 68.14 32.89 68.19 31.02 68.52 C 27.83 70.00 25.68 73.02 24.32 76.17 C 21.80 82.05 20.34 88.32 19.27 94.61 C 17.76 102.32 15.84 110.12 16.75 118.02 C 17.68 123.29 17.63 128.68 17.23 134.00 C 15.94 139.61 16.41 145.39 16.33 151.10 C 15.77 155.00 19.91 157.29 20.30 160.98 C 20.72 165.76 21.00 170.66 22.88 175.15 C 25.07 180.05 25.65 185.45 27.57 190.44 C 29.57 195.53 30.21 200.99 30.73 206.39 C 33.31 210.01 37.43 212.40 39.23 216.62 C 40.97 220.68 44.00 224.03 48.00 225.97 C 54.01 228.92 59.68 232.49 65.79 235.23 C 67.85 235.90 67.97 238.35 68.88 240.00 L 65.79 240.00 C 61.36 237.66 57.40 234.48 52.78 232.49 C 48.05 230.45 43.25 228.15 39.53 224.51 C 36.75 220.62 35.26 215.83 31.46 212.68 C 30.32 222.40 34.24 231.87 39.22 240.00 L 35.91 240.00 C 30.51 232.07 27.96 222.48 27.62 212.96 C 27.73 208.07 24.09 204.36 22.42 200.02 C 20.14 194.16 15.28 189.45 14.38 183.07 C 12.79 174.12 11.26 165.13 10.44 156.08 C 10.52 133.21 10.20 110.34 10.58 87.47 C 11.60 90.20 12.37 93.01 13.47 95.70 C 16.29 91.72 16.95 86.82 18.76 82.39 C 19.95 79.04 21.63 75.72 21.58 72.08 C 21.65 68.19 21.49 64.30 21.50 60.40 C 22.41 60.52 23.33 60.63 24.24 60.74 C 24.40 63.34 24.55 65.94 24.77 68.54 C 28.27 67.32 31.17 64.92 32.72 61.53 C 37.45 52.14 45.00 44.57 52.91 37.81 C 57.13 34.26 59.09 28.86 63.04 25.06 C 66.21 21.98 68.77 18.24 72.36 15.62 C 77.20 12.93 82.81 12.13 88.06 10.54 C 93.92 9.06 99.04 5.46 105.09 4.61 C 111.63 3.63 118.26 2.73 124.36 0.00 M 145.85 15.17 C 147.20 15.40 148.55 15.65 149.90 15.90 C 149.66 14.55 149.42 13.19 149.18 11.84 C 147.76 12.57 146.58 13.73 145.85 15.17 M 152.98 13.56 C 154.28 15.22 155.77 16.71 157.21 18.25 C 158.81 23.93 162.41 28.87 166.76 32.79 C 166.48 26.22 162.09 20.70 158.46 15.51 C 157.29 13.50 155.05 13.41 152.98 13.56 M 133.49 23.94 C 137.20 23.06 140.25 20.51 142.00 17.16 C 138.59 18.58 135.63 20.93 133.49 23.94 M 145.37 19.54 C 145.89 20.80 146.40 22.06 146.87 23.34 C 147.72 23.37 148.58 23.41 149.44 23.45 C 149.40 22.23 149.32 21.02 149.20 19.81 C 147.92 19.69 146.65 19.61 145.37 19.54 M 134.73 27.70 C 133.51 28.54 133.45 30.09 133.03 31.38 C 137.45 30.06 140.43 26.22 143.62 23.13 C 140.15 23.38 137.34 25.61 134.73 27.70 M 150.50 24.55 C 150.21 25.53 149.95 26.53 149.73 27.53 C 151.51 28.48 153.30 29.45 155.19 30.19 C 156.72 30.56 158.26 30.92 159.81 31.28 C 159.81 30.49 159.81 28.89 159.81 28.09 C 158.79 27.77 157.77 27.46 156.74 27.16 C 156.03 26.61 154.60 25.50 153.89 24.95 C 154.20 24.77 154.82 24.41 155.13 24.23 C 153.58 24.32 152.04 24.43 150.50 24.55 M 191.26 46.34 C 195.46 50.42 197.12 56.15 200.54 60.78 C 200.48 62.04 202.47 61.64 203.05 61.06 C 204.21 60.34 203.35 58.12 201.99 58.81 C 200.43 54.24 197.75 50.19 194.80 46.41 C 193.91 46.40 192.14 46.36 191.26 46.34 M 11.72 116.18 C 11.02 123.78 11.49 131.41 11.39 139.02 C 11.15 146.24 10.75 153.58 12.32 160.69 C 13.44 165.54 13.32 170.59 14.72 175.39 C 15.98 179.80 15.97 184.64 18.37 188.67 C 20.58 192.44 22.40 196.80 26.40 199.03 C 26.57 196.09 25.94 193.15 23.69 191.11 C 22.35 185.69 21.14 180.23 18.89 175.10 C 18.49 170.33 18.51 165.47 17.26 160.81 C 16.49 157.56 12.90 156.01 11.92 152.91 C 11.34 148.96 11.47 144.93 11.87 140.97 C 12.24 137.18 14.75 133.93 14.69 130.07 C 14.69 125.62 14.95 121.18 15.68 116.80 C 14.36 116.59 13.04 116.39 11.72 116.18 Z" />
<path fill="#010101" opacity="1.00" d=" M 75.27 20.91 C 76.90 19.96 78.57 19.11 80.24 18.24 C 80.43 18.74 80.82 19.72 81.01 20.22 C 78.45 22.46 75.99 24.81 73.76 27.38 C 73.07 28.68 72.49 30.03 71.92 31.39 C 73.61 30.32 75.27 29.19 76.81 27.90 C 78.67 26.37 80.46 24.74 82.05 22.91 C 83.37 21.49 84.48 19.78 86.20 18.79 C 92.21 17.15 99.79 19.12 102.70 25.04 C 105.25 30.83 107.46 36.79 109.18 42.88 C 110.10 45.78 109.12 48.78 108.61 51.67 C 106.16 44.96 102.78 38.66 100.02 32.08 C 98.11 28.17 95.88 23.72 91.59 22.01 C 89.55 21.11 87.52 22.38 85.83 23.42 C 82.50 28.35 80.96 34.35 76.89 38.80 C 72.33 43.96 67.44 48.85 62.27 53.38 C 58.49 56.28 56.15 60.53 53.03 64.05 C 50.34 61.36 47.93 58.40 45.04 55.90 C 48.28 55.08 51.75 54.56 54.47 52.46 C 59.30 48.80 64.59 44.94 66.67 38.98 C 68.99 32.76 69.40 25.10 75.27 20.91 M 70.87 39.33 C 74.70 37.95 76.99 34.49 78.22 30.78 C 74.59 32.38 71.56 35.27 70.87 39.33 Z" />
<path fill="#010101" opacity="1.00" d=" M 140.54 59.57 C 145.20 57.49 149.69 54.33 154.98 54.30 C 160.38 53.83 165.73 55.16 170.88 56.64 C 175.04 58.38 177.93 62.23 179.78 66.22 C 182.96 72.95 186.70 79.47 188.66 86.71 C 189.15 89.20 191.21 91.81 189.51 94.24 C 182.39 89.22 174.89 83.71 166.06 82.44 C 154.86 82.17 143.42 81.70 132.45 84.39 C 128.96 85.03 127.16 88.42 124.54 90.44 C 123.20 85.88 127.11 82.58 128.17 78.47 C 130.20 71.09 134.49 64.29 140.54 59.57 M 141.39 63.42 C 136.52 68.15 132.20 73.97 131.00 80.80 C 133.05 80.39 135.03 79.61 137.13 79.50 C 145.13 79.32 153.12 75.76 161.08 78.39 C 168.81 78.14 176.25 80.70 182.98 84.35 C 181.80 77.23 177.90 70.95 174.22 64.86 C 172.16 65.81 170.51 67.36 168.89 68.90 C 165.97 67.81 163.50 65.80 161.58 63.38 C 161.28 61.72 161.43 60.02 161.44 58.35 C 154.43 57.67 146.81 58.49 141.39 63.42 Z" />
<path fill="#010101" opacity="1.00" d=" M 47.66 78.83 C 51.94 69.74 59.37 61.97 68.95 58.57 C 71.99 58.34 75.08 58.28 78.11 58.68 C 82.18 59.82 85.33 62.88 87.98 66.03 C 90.39 74.20 93.00 82.31 95.04 90.59 C 86.55 84.76 75.82 83.75 65.82 84.80 C 61.67 85.34 57.33 86.10 53.92 88.71 C 51.04 90.86 48.18 93.03 45.46 95.38 C 44.36 96.44 42.78 96.85 41.29 96.90 C 43.72 90.97 44.18 84.35 47.66 78.83 M 61.29 67.38 C 56.43 69.82 53.94 74.82 51.41 79.35 C 49.54 83.13 47.27 86.73 45.88 90.73 C 50.56 88.36 53.88 83.77 59.07 82.30 C 64.99 79.46 71.69 80.38 78.04 80.25 C 82.24 79.90 85.76 82.69 89.87 82.95 C 89.67 79.21 87.50 76.04 86.26 72.61 C 83.94 72.27 81.26 72.23 79.50 70.46 C 77.06 68.44 76.49 65.17 74.99 62.53 C 70.05 62.25 65.52 65.11 61.29 67.38 Z" />
<path fill="#010101" opacity="1.00" d=" M 211.46 68.40 C 212.49 68.41 213.52 68.42 214.56 68.43 C 214.60 71.61 214.01 74.91 215.00 78.01 C 217.46 84.35 216.47 91.30 216.45 97.94 C 215.11 103.29 212.44 108.23 210.07 113.19 C 205.14 119.73 199.11 125.37 194.12 131.87 C 197.97 134.45 202.96 137.04 203.95 142.00 C 199.40 141.48 196.61 136.83 192.05 136.28 C 187.15 135.59 183.02 138.90 178.54 140.29 C 177.72 143.20 181.75 143.90 182.99 146.06 C 185.23 149.43 188.42 153.05 187.44 157.40 C 182.74 153.50 180.51 145.83 173.71 145.01 C 171.85 148.28 170.75 152.25 167.54 154.54 C 163.76 157.42 159.38 160.25 154.40 159.63 C 154.48 161.57 154.50 163.51 154.43 165.45 C 150.80 161.10 147.24 156.69 143.20 152.72 C 141.45 150.61 138.37 151.55 135.98 151.37 C 128.21 151.00 122.01 157.54 119.35 164.28 C 118.09 164.51 116.82 164.74 115.56 164.97 C 109.58 165.50 105.52 170.68 103.77 176.02 C 101.97 180.25 100.42 184.58 98.53 188.77 C 98.10 181.77 100.28 174.72 103.93 168.78 C 101.68 167.47 99.36 166.28 96.99 165.21 C 95.83 166.25 94.66 167.30 93.52 168.37 C 90.64 167.46 87.80 166.43 84.95 165.42 C 84.68 165.88 84.14 166.78 83.88 167.23 C 80.74 172.54 77.34 178.24 77.27 184.59 C 76.49 184.58 74.93 184.55 74.15 184.54 C 74.55 178.38 76.85 172.43 80.38 167.40 C 81.30 166.10 82.29 164.27 81.18 162.76 C 79.24 160.04 77.90 156.97 77.26 153.68 C 67.94 157.57 60.48 165.49 56.33 174.63 C 55.62 174.62 54.21 174.61 53.50 174.61 C 55.29 170.23 58.53 166.71 60.97 162.71 C 57.47 161.29 53.81 159.71 51.60 156.46 C 51.23 154.22 51.44 151.92 51.42 149.66 C 48.38 148.66 45.13 148.03 41.93 148.49 C 38.73 149.64 36.23 152.01 33.62 154.09 C 29.97 149.26 37.25 146.51 40.65 144.67 C 40.61 144.07 40.53 142.88 40.49 142.28 C 36.83 140.54 32.75 140.05 29.04 138.44 C 29.97 136.98 30.91 135.53 31.83 134.08 C 25.89 128.72 23.85 120.61 22.59 113.03 C 21.84 103.84 24.88 95.00 27.28 86.26 C 27.54 83.65 27.80 81.05 28.91 78.63 C 32.13 81.97 29.81 86.49 29.38 90.39 C 27.94 96.24 25.25 101.90 25.38 108.05 C 25.14 121.36 32.13 134.50 43.61 141.36 C 48.54 145.68 54.88 147.62 61.18 148.90 C 58.82 149.34 56.47 149.79 54.13 150.31 C 54.23 151.83 54.36 153.34 54.50 154.85 C 57.20 156.78 60.07 158.45 63.10 159.83 C 64.88 158.17 66.60 156.45 68.23 154.65 C 69.85 153.17 70.95 150.38 73.50 150.52 C 76.19 150.63 80.51 150.69 80.75 154.24 C 81.56 158.29 83.68 162.10 87.26 164.31 C 90.88 165.44 94.11 162.93 96.37 160.38 C 96.63 158.38 96.79 156.36 96.96 154.35 C 93.07 153.78 89.15 153.38 85.29 152.65 C 92.16 151.36 99.19 151.93 106.11 151.10 C 122.40 150.14 138.63 147.78 154.42 143.63 C 164.77 140.87 175.79 139.19 184.86 133.10 C 188.03 130.87 191.44 128.88 194.04 125.95 C 198.50 121.05 203.30 116.30 206.38 110.37 C 208.84 105.72 212.18 101.36 213.03 96.04 C 213.82 90.98 214.27 85.63 212.57 80.70 C 211.30 76.71 211.58 72.51 211.46 68.40 M 147.41 148.77 C 147.40 149.69 147.40 150.60 147.40 151.52 C 150.05 153.82 153.06 157.64 157.00 156.02 C 163.02 154.67 169.28 149.84 169.78 143.34 C 162.34 145.19 155.04 147.85 147.41 148.77 M 100.54 154.39 C 99.70 157.58 98.54 162.14 102.27 163.97 C 106.69 166.15 110.66 162.06 114.66 160.66 C 118.03 159.64 120.05 156.67 120.99 153.43 C 114.21 154.44 107.39 154.52 100.54 154.39 Z" />
<path fill="#010101" opacity="1.00" d=" M 143.52 86.67 C 153.41 86.33 164.07 87.41 172.35 93.30 C 172.45 93.92 172.63 95.15 172.72 95.77 C 168.51 95.14 165.08 92.25 161.00 91.12 C 155.32 89.17 149.23 89.23 143.31 89.66 C 143.36 88.91 143.47 87.42 143.52 86.67 Z" />
<path fill="#010101" opacity="1.00" d=" M 90.40 98.50 C 91.10 98.43 92.49 98.30 93.18 98.24 C 89.83 104.46 84.16 109.70 77.16 111.38 C 67.59 114.97 56.74 114.24 47.38 110.36 C 44.13 109.12 41.68 106.10 42.15 102.49 C 52.41 108.55 64.74 106.50 76.05 106.42 C 82.08 107.07 86.17 101.87 90.40 98.50 Z" />
<path fill="#010101" opacity="1.00" d=" M 128.31 102.97 C 128.39 102.24 128.53 100.77 128.61 100.04 C 130.78 101.56 132.87 103.30 135.42 104.16 C 140.34 104.46 145.06 106.11 149.97 106.50 C 154.35 106.55 158.73 106.57 163.11 106.49 C 166.25 106.49 168.74 104.32 171.59 103.32 C 172.72 104.09 173.72 105.05 174.88 105.79 C 178.94 105.45 182.05 101.81 186.28 102.38 C 184.33 106.55 179.51 107.76 175.63 109.45 C 170.50 110.75 165.42 112.91 160.03 112.38 C 155.36 112.14 150.68 113.22 146.04 112.44 C 140.71 108.09 132.99 108.34 128.31 102.97 Z" />
</g>
<g id="#fdfdfdfe">
<path fill="#fdfdfd" opacity="1.00" d=" M 107.03 6.73 C 116.29 6.78 124.88 2.31 134.14 2.30 C 139.70 2.35 145.40 1.63 150.87 2.83 C 162.17 7.94 171.83 16.10 180.72 24.62 C 180.60 26.39 180.44 28.16 180.29 29.92 C 186.85 33.07 187.11 40.94 189.25 46.95 C 192.15 53.88 195.59 60.72 200.75 66.26 C 202.89 68.27 202.36 71.33 202.53 73.97 C 202.98 73.84 203.88 73.60 204.33 73.48 C 205.32 70.33 205.54 66.34 208.70 64.50 C 211.37 62.53 216.55 62.53 217.65 66.28 C 220.05 73.44 221.52 80.97 221.69 88.53 C 223.17 95.47 221.36 102.89 224.37 109.53 C 226.35 113.62 225.55 118.27 225.20 122.62 C 224.38 117.60 224.04 111.81 219.58 108.50 C 218.56 115.54 222.37 122.10 222.81 129.06 C 223.12 134.55 226.30 139.37 226.45 144.90 C 226.82 155.27 226.28 165.65 226.67 176.02 C 227.93 181.93 227.55 188.00 227.55 194.01 C 227.64 197.10 224.21 198.64 223.35 201.41 C 222.54 203.69 222.08 206.10 221.02 208.28 C 217.69 214.77 217.05 222.27 213.66 228.75 C 211.69 232.20 211.39 236.22 210.40 240.00 L 68.88 240.00 C 67.97 238.35 67.85 235.90 65.79 235.23 C 59.68 232.49 54.01 228.92 48.00 225.97 C 44.00 224.03 40.97 220.68 39.23 216.62 C 37.43 212.40 33.31 210.01 30.73 206.39 C 30.21 200.99 29.57 195.53 27.57 190.44 C 25.65 185.45 25.07 180.05 22.88 175.15 C 21.00 170.66 20.72 165.76 20.30 160.98 C 19.91 157.29 15.77 155.00 16.33 151.10 C 16.41 145.39 15.94 139.61 17.23 134.00 C 17.63 128.68 17.68 123.29 16.75 118.02 C 15.84 110.12 17.76 102.32 19.27 94.61 C 20.34 88.32 21.80 82.05 24.32 76.17 C 25.68 73.02 27.83 70.00 31.02 68.52 C 32.89 68.19 35.22 68.14 36.18 70.14 C 37.08 73.80 36.65 77.61 36.62 81.35 C 37.56 81.40 38.50 81.46 39.43 81.52 C 41.97 75.16 38.12 68.96 36.09 63.05 C 42.67 56.54 48.08 48.97 53.71 41.66 C 57.89 36.78 63.02 32.68 66.27 27.06 C 67.89 24.32 70.32 22.22 72.73 20.20 C 73.37 20.38 74.64 20.73 75.27 20.91 C 69.40 25.10 68.99 32.76 66.67 38.98 C 64.59 44.94 59.30 48.80 54.47 52.46 C 51.75 54.56 48.28 55.08 45.04 55.90 C 47.93 58.40 50.34 61.36 53.03 64.05 C 56.15 60.53 58.49 56.28 62.27 53.38 C 67.44 48.85 72.33 43.96 76.89 38.80 C 80.96 34.35 82.50 28.35 85.83 23.42 C 88.19 23.02 90.94 21.92 92.95 23.84 C 98.85 28.47 100.03 36.37 103.63 42.58 C 105.54 45.58 106.19 49.08 106.59 52.56 C 107.71 52.54 108.83 52.51 109.95 52.48 C 110.32 49.45 111.21 46.33 110.51 43.28 C 108.64 36.75 106.09 30.45 103.55 24.16 C 100.58 18.82 94.13 17.57 88.80 15.85 C 92.59 13.81 96.90 14.54 101.00 14.53 C 105.27 14.63 109.57 14.29 113.83 14.83 C 119.10 17.06 124.74 18.06 130.46 17.63 C 128.95 20.39 126.71 22.84 126.13 26.02 C 125.11 30.95 122.08 35.35 122.23 40.53 C 122.96 40.55 124.43 40.59 125.16 40.61 C 125.96 36.60 127.66 32.52 131.42 30.43 C 131.62 34.15 131.51 37.88 131.42 41.60 C 132.38 41.58 133.34 41.57 134.31 41.56 C 135.16 39.01 135.78 36.36 136.98 33.95 C 139.02 30.99 142.01 28.88 144.90 26.82 C 147.19 28.95 149.24 31.55 152.27 32.66 C 155.33 34.16 158.82 33.57 162.09 33.62 C 164.31 37.76 166.47 41.96 169.29 45.74 C 173.18 50.78 176.21 56.71 181.65 60.33 C 185.32 61.81 189.44 61.62 193.33 61.55 C 189.84 57.73 185.74 54.46 182.75 50.20 C 177.92 44.30 175.09 37.15 171.37 30.57 C 168.08 24.95 167.66 17.85 163.02 13.01 C 156.32 7.43 146.76 10.66 139.52 6.42 C 137.05 8.83 134.85 11.57 131.98 13.53 C 129.31 13.88 126.62 13.63 123.95 13.59 C 119.47 13.49 115.51 10.86 111.04 10.67 C 106.33 10.53 101.60 10.93 96.90 10.32 C 100.04 8.58 103.42 7.07 107.03 6.73 M 140.54 59.57 C 134.49 64.29 130.20 71.09 128.17 78.47 C 127.11 82.58 123.20 85.88 124.54 90.44 C 127.16 88.42 128.96 85.03 132.45 84.39 C 143.42 81.70 154.86 82.17 166.06 82.44 C 174.89 83.71 182.39 89.22 189.51 94.24 C 191.21 91.81 189.15 89.20 188.66 86.71 C 186.70 79.47 182.96 72.95 179.78 66.22 C 177.93 62.23 175.04 58.38 170.88 56.64 C 165.73 55.16 160.38 53.83 154.98 54.30 C 149.69 54.33 145.20 57.49 140.54 59.57 M 47.66 78.83 C 44.18 84.35 43.72 90.97 41.29 96.90 C 42.78 96.85 44.36 96.44 45.46 95.38 C 48.18 93.03 51.04 90.86 53.92 88.71 C 62.84 85.12 72.69 86.27 82.07 86.50 C 87.66 86.36 91.95 90.41 96.70 92.72 C 94.31 83.65 92.36 74.42 87.98 66.03 C 85.33 62.88 82.18 59.82 78.11 58.68 C 75.08 58.28 71.99 58.34 68.95 58.57 C 59.37 61.97 51.94 69.74 47.66 78.83 M 211.46 68.40 C 211.58 72.51 211.30 76.71 212.57 80.70 C 214.27 85.63 213.82 90.98 213.03 96.04 C 212.18 101.36 208.84 105.72 206.38 110.37 C 203.30 116.30 198.50 121.05 194.04 125.95 C 191.44 128.88 188.03 130.87 184.86 133.10 C 179.12 135.07 173.57 137.60 167.69 139.15 C 154.65 142.29 141.74 146.30 128.33 147.61 C 118.98 149.42 109.42 149.21 100.03 150.56 C 93.71 150.58 87.38 150.64 81.06 150.45 C 72.63 149.38 64.27 147.83 55.89 146.42 C 51.41 145.80 47.67 143.12 43.61 141.36 C 32.13 134.50 25.14 121.36 25.38 108.05 C 25.25 101.90 27.94 96.24 29.38 90.39 C 29.81 86.49 32.13 81.97 28.91 78.63 C 27.80 81.05 27.54 83.65 27.28 86.26 C 24.88 95.00 21.84 103.84 22.59 113.03 C 23.85 120.61 25.89 128.72 31.83 134.08 C 30.91 135.53 29.97 136.98 29.04 138.44 C 32.75 140.05 36.83 140.54 40.49 142.28 C 40.53 142.88 40.61 144.07 40.65 144.67 C 37.25 146.51 29.97 149.26 33.62 154.09 C 36.23 152.01 38.73 149.64 41.93 148.49 C 45.13 148.03 48.38 148.66 51.42 149.66 C 51.44 151.92 51.23 154.22 51.60 156.46 C 53.81 159.71 57.47 161.29 60.97 162.71 C 58.53 166.71 55.29 170.23 53.50 174.61 C 54.21 174.61 55.62 174.62 56.33 174.63 C 60.48 165.49 67.94 157.57 77.26 153.68 C 77.90 156.97 79.24 160.04 81.18 162.76 C 82.29 164.27 81.30 166.10 80.38 167.40 C 76.85 172.43 74.55 178.38 74.15 184.54 C 74.93 184.55 76.49 184.58 77.27 184.59 C 77.34 178.24 80.74 172.54 83.88 167.23 C 85.82 167.32 87.75 167.48 89.68 167.75 C 89.63 169.43 89.57 171.11 89.51 172.80 C 90.35 172.57 91.19 172.34 92.04 172.12 C 92.52 170.86 93.02 169.62 93.52 168.37 C 94.66 167.30 95.83 166.25 96.99 165.21 C 99.36 166.28 101.68 167.47 103.93 168.78 C 100.28 174.72 98.10 181.77 98.53 188.77 C 98.05 194.54 98.17 200.39 98.50 206.17 C 99.17 205.90 100.50 205.34 101.17 205.07 C 101.99 199.00 100.89 192.82 101.68 186.74 C 102.29 183.15 103.11 179.60 103.77 176.02 C 105.52 170.68 109.58 165.50 115.56 164.97 C 115.60 166.81 115.62 168.66 115.62 170.50 C 116.58 170.50 118.48 170.51 119.43 170.51 C 119.41 168.43 119.41 166.35 119.35 164.28 C 122.01 157.54 128.21 151.00 135.98 151.37 C 138.37 151.55 141.45 150.61 143.20 152.72 C 147.24 156.69 150.80 161.10 154.43 165.45 C 154.50 163.51 154.48 161.57 154.40 159.63 C 159.38 160.25 163.76 157.42 167.54 154.54 C 170.75 152.25 171.85 148.28 173.71 145.01 C 180.51 145.83 182.74 153.50 187.44 157.40 C 188.42 153.05 185.23 149.43 182.99 146.06 C 181.75 143.90 177.72 143.20 178.54 140.29 C 183.02 138.90 187.15 135.59 192.05 136.28 C 196.61 136.83 199.40 141.48 203.95 142.00 C 202.96 137.04 197.97 134.45 194.12 131.87 C 199.11 125.37 205.14 119.73 210.07 113.19 C 212.44 108.23 215.11 103.29 216.45 97.94 C 216.47 91.30 217.46 84.35 215.00 78.01 C 214.01 74.91 214.60 71.61 214.56 68.43 C 213.52 68.42 212.49 68.41 211.46 68.40 M 143.52 86.67 C 143.47 87.42 143.36 88.91 143.31 89.66 C 149.23 89.23 155.32 89.17 161.00 91.12 C 165.08 92.25 168.51 95.14 172.72 95.77 C 172.63 95.15 172.45 93.92 172.35 93.30 C 164.07 87.41 153.41 86.33 143.52 86.67 M 64.31 91.26 C 61.38 92.40 57.22 93.40 57.06 97.26 C 60.86 96.20 64.53 94.71 68.35 93.71 C 72.08 92.99 75.90 93.55 79.50 94.62 C 79.61 93.41 79.63 92.21 79.59 91.00 C 74.57 89.44 69.27 89.45 64.31 91.26 M 90.40 98.50 C 86.17 101.87 82.08 107.07 76.05 106.42 C 64.74 106.50 52.41 108.55 42.15 102.49 C 41.68 106.10 44.13 109.12 47.38 110.36 C 56.74 114.24 67.59 114.97 77.16 111.38 C 84.16 109.70 89.83 104.46 93.18 98.24 C 92.49 98.30 91.10 98.43 90.40 98.50 M 128.31 102.97 C 132.99 108.34 140.71 108.09 146.04 112.44 C 150.68 113.22 155.36 112.14 160.03 112.38 C 165.42 112.91 170.50 110.75 175.63 109.45 C 179.51 107.76 184.33 106.55 186.28 102.38 C 182.05 101.81 178.94 105.45 174.88 105.79 C 173.72 105.05 172.72 104.09 171.59 103.32 C 168.74 104.32 166.25 106.49 163.11 106.49 C 158.73 106.57 154.35 106.55 149.97 106.50 C 145.06 106.11 140.34 104.46 135.42 104.16 C 132.87 103.30 130.78 101.56 128.61 100.04 C 128.53 100.77 128.39 102.24 128.31 102.97 Z" />
<path fill="#fdfdfd" opacity="1.00" d=" M 209.38 8.41 C 209.95 8.39 211.10 8.34 211.67 8.32 C 211.66 8.90 211.64 10.06 211.63 10.64 C 211.08 10.62 209.97 10.58 209.41 10.56 C 209.40 10.02 209.39 8.95 209.38 8.41 Z" />
<path fill="#fdfdfd" opacity="1.00" d=" M 220.06 10.12 C 220.13 7.84 222.81 7.86 224.36 6.98 C 224.73 7.83 225.48 9.53 225.85 10.37 C 224.07 12.02 221.82 11.35 220.06 10.12 Z" />
<path fill="#fdfdfd" opacity="1.00" d=" M 152.98 13.56 C 155.05 13.41 157.29 13.50 158.46 15.51 C 162.09 20.70 166.48 26.22 166.76 32.79 C 162.41 28.87 158.81 23.93 157.21 18.25 C 155.77 16.71 154.28 15.22 152.98 13.56 Z" />
<path fill="#fdfdfd" opacity="1.00" d=" M 133.49 23.94 C 135.63 20.93 138.59 18.58 142.00 17.16 C 140.25 20.51 137.20 23.06 133.49 23.94 Z" />
<path fill="#fdfdfd" opacity="1.00" d=" M 145.37 19.54 C 146.65 19.61 147.92 19.69 149.20 19.81 C 149.32 21.02 149.40 22.23 149.44 23.45 C 148.58 23.41 147.72 23.37 146.87 23.34 C 146.40 22.06 145.89 20.80 145.37 19.54 Z" />
<path fill="#fdfdfd" opacity="1.00" d=" M 73.76 27.38 C 75.99 24.81 78.45 22.46 81.01 20.22 C 81.36 21.12 81.70 22.01 82.05 22.91 C 80.46 24.74 78.67 26.37 76.81 27.90 C 75.79 27.71 74.78 27.54 73.76 27.38 Z" />
<path fill="#fdfdfd" opacity="1.00" d=" M 134.73 27.70 C 137.34 25.61 140.15 23.38 143.62 23.13 C 140.43 26.22 137.45 30.06 133.03 31.38 C 133.45 30.09 133.51 28.54 134.73 27.70 Z" />
<path fill="#fdfdfd" opacity="1.00" d=" M 149.73 27.53 C 151.10 26.64 152.48 25.77 153.89 24.95 C 154.60 25.50 156.03 26.61 156.74 27.16 C 157.77 28.22 158.70 29.37 159.64 30.51 C 158.15 30.44 156.67 30.34 155.19 30.19 C 153.30 29.45 151.51 28.48 149.73 27.53 Z" />
<path fill="#fdfdfd" opacity="1.00" d=" M 191.26 46.34 C 192.14 46.36 193.91 46.40 194.80 46.41 C 197.75 50.19 200.43 54.24 201.99 58.81 C 201.50 59.46 201.01 60.12 200.54 60.78 C 197.12 56.15 195.46 50.42 191.26 46.34 Z" />
<path fill="#fdfdfd" opacity="1.00" d=" M 298.45 57.63 C 300.46 57.57 302.47 57.51 304.49 57.45 C 304.40 58.70 304.28 59.96 304.14 61.20 C 302.29 61.29 300.45 61.35 298.61 61.40 C 298.52 60.14 298.47 58.88 298.45 57.63 Z" />
<path fill="#fdfdfd" opacity="1.00" d=" M 307.55 57.69 C 309.17 57.64 310.79 57.59 312.41 57.54 C 312.42 58.90 312.43 60.26 312.49 61.62 C 310.84 61.48 309.19 61.34 307.54 61.20 C 307.54 60.03 307.54 58.86 307.55 57.69 Z" />
<path fill="#fdfdfd" opacity="1.00" d=" M 141.39 63.42 C 146.81 58.49 154.43 57.67 161.44 58.35 C 161.43 60.02 161.28 61.72 161.58 63.38 C 163.50 65.80 165.97 67.81 168.89 68.90 C 170.51 67.36 172.16 65.81 174.22 64.86 C 177.90 70.95 181.80 77.23 182.98 84.35 C 176.25 80.70 168.81 78.14 161.08 78.39 C 153.12 75.76 145.13 79.32 137.13 79.50 C 135.03 79.61 133.05 80.39 131.00 80.80 C 132.20 73.97 136.52 68.15 141.39 63.42 Z" />
<path fill="#fdfdfd" opacity="1.00" d=" M 61.29 67.38 C 65.52 65.11 70.05 62.25 74.99 62.53 C 76.49 65.17 77.06 68.44 79.50 70.46 C 81.26 72.23 83.94 72.27 86.26 72.61 C 87.50 76.04 89.67 79.21 89.87 82.95 C 85.76 82.69 82.24 79.90 78.04 80.25 C 71.69 80.38 64.99 79.46 59.07 82.30 C 53.88 83.77 50.56 88.36 45.88 90.73 C 47.27 86.73 49.54 83.13 51.41 79.35 C 53.94 74.82 56.43 69.82 61.29 67.38 Z" />
<path fill="#fdfdfd" opacity="1.00" d=" M 236.67 86.07 C 237.90 85.25 239.15 84.44 240.40 83.64 C 240.43 84.44 240.48 86.04 240.50 86.84 C 239.22 86.58 237.94 86.34 236.67 86.07 Z" />
<path fill="#fdfdfd" opacity="1.00" d=" M 248.97 84.21 C 250.28 83.47 251.73 83.19 253.32 83.35 C 253.55 84.50 253.69 85.66 253.73 86.84 C 251.42 88.07 249.04 87.28 248.03 84.84 L 248.97 84.21 Z" />
<path fill="#fdfdfd" opacity="1.00" d=" M 243.37 109.31 C 243.97 109.29 245.18 109.26 245.79 109.24 C 245.78 109.84 245.75 111.05 245.74 111.66 C 245.14 111.66 243.94 111.66 243.34 111.67 C 243.34 111.08 243.36 109.90 243.37 109.31 Z" />
<path fill="#fdfdfd" opacity="1.00" d=" M 271.54 109.96 C 273.50 109.21 275.49 108.54 277.50 107.91 C 277.58 109.51 277.63 111.10 277.66 112.70 C 275.40 112.36 273.31 111.43 271.54 109.96 Z" />
<path fill="#fdfdfd" opacity="1.00" d=" M 293.38 134.33 C 293.98 134.30 295.18 134.23 295.78 134.19 C 295.75 134.81 295.68 136.04 295.65 136.65 C 295.07 136.66 293.91 136.68 293.33 136.68 C 293.34 136.10 293.37 134.92 293.38 134.33 Z" />
<path fill="#fdfdfd" opacity="1.00" d=" M 147.41 148.77 C 155.04 147.85 162.34 145.19 169.78 143.34 C 169.28 149.84 163.02 154.67 157.00 156.02 C 153.06 157.64 150.05 153.82 147.40 151.52 C 147.40 150.60 147.40 149.69 147.41 148.77 Z" />
<path fill="#fdfdfd" opacity="1.00" d=" M 54.50 154.85 C 54.85 153.29 55.24 151.73 55.65 150.18 C 60.01 150.96 64.40 151.63 68.83 151.79 C 68.68 152.50 68.38 153.93 68.23 154.65 C 66.60 156.45 64.88 158.17 63.10 159.83 C 60.07 158.45 57.20 156.78 54.50 154.85 Z" />
<path fill="#fdfdfd" opacity="1.00" d=" M 80.75 154.24 C 85.98 154.41 91.21 154.66 96.45 154.61 C 96.44 156.53 96.41 158.46 96.37 160.38 C 94.11 162.93 90.88 165.44 87.26 164.31 C 83.68 162.10 81.56 158.29 80.75 154.24 Z" />
<path fill="#fdfdfd" opacity="1.00" d=" M 100.54 154.39 C 107.39 154.52 114.21 154.44 120.99 153.43 C 120.05 156.67 118.03 159.64 114.66 160.66 C 110.66 162.06 106.69 166.15 102.27 163.97 C 98.54 162.14 99.70 157.58 100.54 154.39 Z" />
<path fill="#fdfdfd" opacity="1.00" d=" M 14.58 166.98 C 14.47 163.42 13.53 159.95 13.52 156.39 C 18.26 161.52 16.50 169.00 18.89 175.10 C 21.14 180.23 22.35 185.69 23.69 191.11 C 23.71 192.02 23.76 193.83 23.78 194.74 C 20.97 190.92 17.94 186.90 17.41 182.03 C 16.66 176.97 14.78 172.12 14.58 166.98 Z" />
<path fill="#fdfdfd" opacity="1.00" d=" M 242.72 161.42 C 243.50 160.21 244.31 159.02 245.11 157.82 C 245.45 159.11 245.78 160.40 246.11 161.69 C 245.26 161.62 243.56 161.49 242.72 161.42 Z" />
<path fill="#fdfdfd" opacity="1.00" d=" M 31.46 212.68 C 35.26 215.83 36.75 220.62 39.53 224.51 C 43.25 228.15 48.05 230.45 52.78 232.49 C 57.40 234.48 61.36 237.66 65.79 240.00 L 39.22 240.00 C 34.24 231.87 30.32 222.40 31.46 212.68 Z" />
</g>
<g id="#7c3737c8">
<path fill="#7c3737" opacity="0.78" d=" M 206.58 5.47 C 208.80 5.47 211.04 5.34 213.25 5.72 C 214.58 7.33 214.51 9.50 214.77 11.46 C 213.00 12.61 211.22 13.73 209.45 14.86 C 209.38 16.67 209.31 18.48 209.24 20.30 C 208.34 20.34 207.45 20.38 206.55 20.43 C 206.38 15.44 206.41 10.45 206.58 5.47 M 209.38 8.41 C 209.39 8.95 209.40 10.02 209.41 10.56 C 209.97 10.58 211.08 10.62 211.63 10.64 C 211.64 10.06 211.66 8.90 211.67 8.32 C 211.10 8.34 209.95 8.39 209.38 8.41 Z" />
<path fill="#7c3737" opacity="0.78" d=" M 217.62 5.44 C 222.68 5.58 227.75 5.59 232.81 5.39 C 232.71 5.75 232.51 6.47 232.41 6.83 C 230.64 7.66 229.02 8.76 227.46 9.94 C 229.28 10.64 231.14 11.29 232.99 11.91 C 230.57 14.18 228.44 16.73 226.72 19.57 C 226.36 17.43 225.99 15.29 225.59 13.16 C 223.95 13.32 222.31 13.48 220.67 13.65 C 220.24 15.66 219.82 17.68 219.44 19.70 C 218.75 19.66 217.37 19.58 216.67 19.54 C 216.73 14.82 217.56 10.16 217.62 5.44 M 220.06 10.12 C 221.82 11.35 224.07 12.02 225.85 10.37 C 225.48 9.53 224.73 7.83 224.36 6.98 C 222.81 7.86 220.13 7.84 220.06 10.12 Z" />
<path fill="#7c3737" opacity="0.78" d=" M 236.76 5.75 C 241.06 5.03 245.45 5.59 249.78 5.44 C 249.21 10.51 250.03 15.77 248.09 20.62 C 245.16 16.76 246.91 11.59 245.39 7.20 C 242.85 7.43 240.32 7.85 237.89 8.65 C 239.11 9.88 240.36 11.08 241.64 12.24 C 239.80 14.30 238.53 16.76 238.02 19.48 C 237.17 19.54 236.32 19.60 235.48 19.66 C 235.85 15.11 234.12 9.73 236.76 5.75 Z" />
<path fill="#7c3737" opacity="0.78" d=" M 254.14 5.43 C 255.73 5.43 257.33 5.42 258.92 5.41 C 257.65 9.77 257.28 14.29 257.55 18.82 C 257.02 18.82 255.97 18.83 255.44 18.83 C 255.68 14.31 255.38 9.79 254.14 5.43 Z" />
<path fill="#7c3737" opacity="0.78" d=" M 273.80 6.84 C 275.79 4.52 279.02 5.50 281.53 6.18 C 278.48 7.84 273.65 8.72 273.36 12.97 C 274.29 16.25 277.65 17.27 280.62 17.85 C 280.64 18.80 280.66 19.76 280.69 20.71 C 277.23 20.74 273.31 19.82 271.80 16.32 C 271.08 13.09 270.69 8.97 273.80 6.84 Z" />
<path fill="#7c3737" opacity="0.78" d=" M 292.62 5.53 C 293.09 5.51 294.03 5.48 294.50 5.46 C 294.57 10.73 294.78 16.02 294.19 21.27 C 292.82 18.39 292.42 14.38 288.94 13.27 C 286.96 15.14 286.07 17.79 284.74 20.10 C 282.96 15.52 283.07 10.35 284.56 5.70 C 285.80 7.57 286.87 9.56 288.23 11.35 C 289.71 11.23 291.14 10.85 292.58 10.51 C 292.59 8.85 292.60 7.19 292.62 5.53 Z" />
<path fill="#7c3737" opacity="0.78" d=" M 263.14 5.46 C 265.06 5.45 266.97 5.44 268.89 5.43 C 267.66 10.07 267.50 14.87 267.61 19.65 C 266.54 19.66 265.47 19.67 264.40 19.68 C 264.48 14.91 264.10 10.14 263.14 5.46 Z" />
<path fill="#7c3737" opacity="0.78" d=" M 298.42 6.12 C 298.81 6.23 299.58 6.44 299.97 6.54 C 300.72 8.26 300.68 11.18 303.08 11.42 C 306.67 12.05 307.00 7.23 308.51 5.04 C 310.33 9.67 309.30 14.72 309.61 19.56 C 309.06 19.62 307.98 19.72 307.44 19.77 C 307.06 18.10 306.64 16.44 306.25 14.77 C 305.22 14.28 304.17 13.86 303.09 13.49 C 302.46 13.87 301.18 14.64 300.54 15.03 C 300.49 16.53 300.45 18.04 300.41 19.54 C 299.91 19.56 298.91 19.60 298.41 19.63 C 298.43 15.12 298.43 10.62 298.42 6.12 Z" />
<path fill="#7c3737" opacity="0.78" d=" M 145.85 15.17 C 146.58 13.73 147.76 12.57 149.18 11.84 C 149.42 13.19 149.66 14.55 149.90 15.90 C 148.55 15.65 147.20 15.40 145.85 15.17 Z" />
<path fill="#7c3737" opacity="0.78" d=" M 72.73 20.20 C 78.12 14.24 86.60 14.15 94.00 13.41 C 100.61 13.37 107.42 12.87 113.83 14.83 C 109.57 14.29 105.27 14.63 101.00 14.53 C 96.90 14.54 92.59 13.81 88.80 15.85 C 94.13 17.57 100.58 18.82 103.55 24.16 C 106.09 30.45 108.64 36.75 110.51 43.28 C 111.21 46.33 110.32 49.45 109.95 52.48 C 108.83 52.51 107.71 52.54 106.59 52.56 C 106.19 49.08 105.54 45.58 103.63 42.58 C 100.03 36.37 98.85 28.47 92.95 23.84 C 90.94 21.92 88.19 23.02 85.83 23.42 C 87.52 22.38 89.55 21.11 91.59 22.01 C 95.88 23.72 98.11 28.17 100.02 32.08 C 102.78 38.66 106.16 44.96 108.61 51.67 C 109.12 48.78 110.10 45.78 109.18 42.88 C 107.46 36.79 105.25 30.83 102.70 25.04 C 99.79 19.12 92.21 17.15 86.20 18.79 C 84.48 19.78 83.37 21.49 82.05 22.91 C 81.70 22.01 81.36 21.12 81.01 20.22 C 80.82 19.72 80.43 18.74 80.24 18.24 C 78.57 19.11 76.90 19.96 75.27 20.91 C 74.64 20.73 73.37 20.38 72.73 20.20 Z" />
<path fill="#7c3737" opacity="0.78" d=" M 150.50 24.55 C 152.04 24.43 153.58 24.32 155.13 24.23 C 154.82 24.41 154.20 24.77 153.89 24.95 C 152.48 25.77 151.10 26.64 149.73 27.53 C 149.95 26.53 150.21 25.53 150.50 24.55 Z" />
<path fill="#7c3737" opacity="0.78" d=" M 71.92 31.39 C 72.49 30.03 73.07 28.68 73.76 27.38 C 74.78 27.54 75.79 27.71 76.81 27.90 C 75.27 29.19 73.61 30.32 71.92 31.39 Z" />
<path fill="#7c3737" opacity="0.78" d=" M 156.74 27.16 C 157.77 27.46 158.79 27.77 159.81 28.09 C 159.81 28.89 159.81 30.49 159.81 31.28 C 158.26 30.92 156.72 30.56 155.19 30.19 C 156.67 30.34 158.15 30.44 159.64 30.51 C 158.70 29.37 157.77 28.22 156.74 27.16 Z" />
<path fill="#7c3737" opacity="0.78" d=" M 222.50 29.93 C 225.43 29.96 228.33 30.70 231.27 30.76 C 231.95 33.50 233.17 36.07 236.00 37.10 C 237.48 35.00 238.86 32.82 240.31 30.70 C 241.22 35.29 241.49 39.98 241.27 44.65 C 240.62 44.65 239.33 44.65 238.68 44.64 C 238.71 41.79 238.00 37.49 234.11 38.53 C 232.28 40.38 231.79 43.07 230.68 45.34 C 229.11 41.67 229.51 37.65 229.56 33.78 C 227.45 33.14 225.34 32.20 223.09 32.39 C 221.04 33.53 218.75 35.32 219.41 37.99 C 219.49 42.21 224.63 42.36 227.57 43.57 C 225.99 44.80 224.21 46.15 222.08 45.46 C 219.39 43.99 216.60 41.34 216.70 38.04 C 217.37 34.74 218.72 30.66 222.50 29.93 Z" />
<path fill="#7c3737" opacity="0.78" d=" M 258.71 33.68 C 260.31 30.50 264.02 29.89 267.17 29.31 C 267.38 30.30 267.59 31.29 267.80 32.28 C 265.30 32.85 262.37 32.97 260.63 35.12 C 260.33 36.69 260.30 38.32 260.61 39.89 C 262.43 42.43 265.78 42.86 268.42 44.17 C 266.33 45.07 264.01 46.09 261.73 45.21 C 257.82 43.03 255.82 37.46 258.71 33.68 Z" />
<path fill="#7c3737" opacity="0.78" d=" M 293.07 30.71 C 293.94 29.93 295.24 30.24 296.31 30.09 C 296.38 34.97 296.34 39.84 296.38 44.72 C 295.21 44.73 294.04 44.69 292.88 44.60 C 292.49 42.29 292.57 37.92 289.09 38.52 C 287.19 40.13 286.67 42.72 285.54 44.83 C 285.28 40.05 285.27 35.25 285.56 30.47 C 286.36 32.22 287.09 34.00 287.83 35.77 C 289.29 35.75 290.76 35.69 292.22 35.59 C 292.49 33.97 292.45 32.26 293.07 30.71 Z" />
<path fill="#7c3737" opacity="0.78" d=" M 279.43 30.52 C 279.96 30.48 281.01 30.38 281.54 30.34 C 281.60 35.37 281.66 40.41 281.47 45.44 C 280.62 45.38 279.78 45.32 278.94 45.27 C 278.49 43.01 278.08 40.74 277.48 38.51 C 276.31 38.51 275.13 38.56 273.97 38.66 C 273.37 41.01 272.76 43.37 271.96 45.66 C 269.60 41.15 270.07 35.70 271.47 30.96 C 272.51 32.80 273.56 34.64 274.55 36.51 C 275.47 36.49 276.40 36.46 277.34 36.44 C 278.01 34.46 278.76 32.51 279.43 30.52 Z" />
<path fill="#7c3737" opacity="0.78" d=" M 299.43 30.35 C 299.84 30.40 300.66 30.49 301.07 30.54 C 301.59 33.01 302.57 35.35 303.94 37.47 C 306.22 35.41 307.21 32.55 308.04 29.69 C 311.66 30.86 310.29 35.12 310.60 37.99 C 310.39 40.72 311.49 44.62 307.95 45.55 C 307.19 43.32 306.85 40.90 305.66 38.84 C 302.12 36.96 301.65 42.28 301.20 44.61 C 300.74 44.65 299.81 44.73 299.35 44.77 C 299.42 39.97 299.39 35.16 299.43 30.35 Z" />
<path fill="#7c3737" opacity="0.78" d=" M 70.87 39.33 C 71.56 35.27 74.59 32.38 78.22 30.78 C 76.99 34.49 74.70 37.95 70.87 39.33 Z" />
<path fill="#7c3737" opacity="0.78" d=" M 251.09 36.40 C 252.20 34.41 253.27 32.39 254.44 30.44 C 254.62 35.27 254.50 40.10 254.65 44.93 C 254.19 44.81 253.26 44.57 252.80 44.45 C 252.83 41.59 251.97 37.42 248.14 38.58 C 246.78 40.72 245.94 43.14 244.80 45.39 C 242.93 40.70 243.25 35.43 244.71 30.68 C 245.78 32.60 246.95 34.47 247.95 36.43 C 248.74 36.42 250.30 36.41 251.09 36.40 Z" />
<path fill="#7c3737" opacity="0.78" d=" M 239.60 54.79 C 242.81 55.19 246.01 55.82 249.27 55.50 C 249.71 57.65 250.14 59.81 250.72 61.93 C 251.55 61.76 253.23 61.43 254.07 61.26 C 255.10 59.51 255.40 57.47 255.85 55.52 C 256.26 55.48 257.07 55.39 257.48 55.34 C 257.44 60.42 257.44 65.50 257.51 70.58 C 257.03 70.58 256.09 70.57 255.62 70.56 C 255.36 67.94 256.09 64.50 253.01 63.32 C 249.17 63.30 249.46 67.63 249.32 70.35 C 246.02 70.16 242.72 70.78 239.44 70.42 C 236.53 69.39 234.35 66.69 233.63 63.74 C 233.01 59.75 236.59 56.72 239.60 54.79 M 237.84 66.15 C 240.06 68.88 243.92 67.28 246.74 66.60 C 246.65 64.07 246.76 61.51 246.38 59.00 C 245.47 56.70 242.92 57.50 241.01 57.52 C 236.89 57.50 234.67 63.50 237.84 66.15 Z" />
<path fill="#7c3737" opacity="0.78" d=" M 295.89 54.64 C 301.09 54.77 306.30 54.78 311.50 54.62 C 311.73 55.35 312.19 56.81 312.41 57.54 C 310.79 57.59 309.17 57.64 307.55 57.69 C 307.54 58.86 307.54 60.03 307.54 61.20 C 309.19 61.34 310.84 61.48 312.49 61.62 C 311.08 62.96 309.39 63.97 307.70 64.91 C 307.14 67.00 306.55 69.07 305.91 71.13 C 304.36 68.56 304.30 65.58 304.25 62.69 C 301.99 63.35 299.74 64.02 297.50 64.71 C 297.52 66.40 297.56 68.09 297.59 69.78 C 297.04 69.77 295.94 69.76 295.39 69.76 C 295.54 64.72 295.26 59.66 295.89 54.64 M 298.45 57.63 C 298.47 58.88 298.52 60.14 298.61 61.40 C 300.45 61.35 302.29 61.29 304.14 61.20 C 304.28 59.96 304.40 58.70 304.49 57.45 C 302.47 57.51 300.46 57.57 298.45 57.63 Z" />
<path fill="#7c3737" opacity="0.78" d=" M 285.49 55.55 C 288.14 54.65 290.92 54.66 293.56 55.64 C 292.06 56.81 290.53 57.93 289.00 59.07 C 289.72 60.28 290.46 61.50 291.20 62.70 C 289.88 65.20 288.96 67.87 288.07 70.55 C 287.41 70.22 286.07 69.57 285.41 69.24 C 285.53 64.68 285.53 60.12 285.49 55.55 Z" />
<path fill="#7c3737" opacity="0.78" d=" M 260.57 55.53 C 261.52 55.51 263.43 55.49 264.38 55.48 C 264.15 60.66 266.44 67.24 261.89 71.15 C 259.91 66.16 260.68 60.75 260.57 55.53 Z" />
<path fill="#7c3737" opacity="0.78" d=" M 268.29 62.89 C 268.38 59.93 269.93 57.26 271.08 54.61 C 272.85 60.03 272.90 66.01 271.06 71.41 C 269.89 68.67 268.63 65.88 268.29 62.89 Z" />
<path fill="#7c3737" opacity="0.78" d=" M 275.42 55.21 C 278.32 55.44 282.67 54.29 283.70 58.04 C 285.09 61.61 281.15 62.96 278.85 64.61 C 278.48 67.00 278.74 70.15 275.47 70.24 C 275.14 65.24 275.30 60.22 275.42 55.21 Z" />
<path fill="#7c3737" opacity="0.78" d=" M 87.98 66.03 C 92.36 74.42 94.31 83.65 96.70 92.72 C 91.95 90.41 87.66 86.36 82.07 86.50 C 72.69 86.27 62.84 85.12 53.92 88.71 C 57.33 86.10 61.67 85.34 65.82 84.80 C 75.82 83.75 86.55 84.76 95.04 90.59 C 93.00 82.31 90.39 74.20 87.98 66.03 Z" />
<path fill="#7c3737" opacity="0.78" d=" M 264.88 80.48 C 266.89 80.55 268.89 80.62 270.90 80.72 C 269.63 82.41 268.31 84.06 267.03 85.74 C 268.00 86.48 268.99 87.22 269.98 87.96 C 268.25 90.57 266.79 93.35 265.34 96.12 C 263.58 91.12 264.46 85.65 264.88 80.48 Z" />
<path fill="#7c3737" opacity="0.78" d=" M 235.43 80.65 C 237.69 80.73 240.16 80.51 242.08 81.94 C 242.81 83.35 243.31 84.86 243.84 86.35 C 240.06 88.72 237.32 92.12 235.76 96.30 C 233.92 91.25 234.64 85.82 235.43 80.65 M 236.67 86.07 C 237.94 86.34 239.22 86.58 240.50 86.84 C 240.48 86.04 240.43 84.44 240.40 83.64 C 239.15 84.44 237.90 85.25 236.67 86.07 Z" />
<path fill="#7c3737" opacity="0.78" d=" M 245.80 82.06 C 246.80 80.75 248.44 80.60 249.94 80.99 C 253.84 81.78 257.82 81.17 261.76 81.31 C 260.02 82.90 258.24 84.44 256.48 86.00 C 258.18 86.66 259.88 87.30 261.59 87.92 C 259.10 89.84 257.17 92.32 255.60 95.02 C 254.96 93.09 254.39 91.14 253.82 89.20 C 252.33 89.38 250.85 89.51 249.40 89.84 C 248.27 91.86 247.64 94.12 246.77 96.26 C 244.75 91.80 245.53 86.78 245.80 82.06 M 248.97 84.21 L 248.03 84.84 C 249.04 87.28 251.42 88.07 253.73 86.84 C 253.69 85.66 253.55 84.50 253.32 83.35 C 251.73 83.19 250.28 83.47 248.97 84.21 Z" />
<path fill="#7c3737" opacity="0.78" d=" M 275.20 80.78 C 279.40 80.21 283.66 80.63 287.89 80.72 C 286.54 85.23 286.28 89.93 286.55 94.62 C 285.79 94.60 284.27 94.56 283.50 94.54 C 283.54 91.02 283.57 87.50 283.53 83.98 C 280.69 83.32 277.77 83.40 275.14 84.76 C 276.64 85.96 278.19 87.10 279.79 88.19 C 277.28 90.01 276.31 93.65 273.42 94.80 C 273.29 90.69 273.08 86.55 273.56 82.47 C 273.97 82.05 274.79 81.20 275.20 80.78 Z" />
<path fill="#7c3737" opacity="0.78" d=" M 293.05 82.08 C 295.57 79.33 300.09 80.19 302.20 83.02 C 298.90 83.96 294.31 83.60 292.42 87.06 C 292.10 89.72 294.49 91.54 295.78 93.59 C 297.49 93.51 299.20 93.45 300.92 93.38 C 300.80 93.95 300.55 95.09 300.43 95.65 C 298.41 95.85 296.22 96.85 294.33 95.67 C 289.12 93.39 289.05 85.55 293.05 82.08 Z" />
<path fill="#7c3737" opacity="0.78" d=" M 303.41 82.21 C 303.89 82.26 304.84 82.37 305.31 82.42 C 305.58 83.77 305.86 85.11 306.17 86.45 C 308.01 86.67 309.85 86.90 311.69 87.17 C 311.72 87.75 311.78 88.89 311.80 89.46 C 309.91 89.73 308.03 90.04 306.15 90.37 C 305.84 91.77 305.57 93.19 305.30 94.60 C 304.83 94.64 303.87 94.71 303.40 94.75 C 303.50 90.57 303.51 86.39 303.41 82.21 Z" />
<path fill="#7c3737" opacity="0.78" d=" M 64.31 91.26 C 69.27 89.45 74.57 89.44 79.59 91.00 C 79.63 92.21 79.61 93.41 79.50 94.62 C 75.90 93.55 72.08 92.99 68.35 93.71 C 64.53 94.71 60.86 96.20 57.06 97.26 C 57.22 93.40 61.38 92.40 64.31 91.26 Z" />
<path fill="#7c3737" opacity="0.78" d=" M 251.58 105.62 C 253.64 105.59 255.71 105.55 257.77 105.51 C 257.73 105.99 257.65 106.96 257.61 107.44 C 256.02 108.50 254.46 109.59 252.96 110.77 C 254.51 111.80 256.07 112.82 257.65 113.81 C 254.95 114.95 253.60 117.42 252.95 120.15 C 252.50 120.30 251.59 120.60 251.14 120.75 C 250.49 115.74 250.01 110.52 251.58 105.62 Z" />
<path fill="#7c3737" opacity="0.78" d=" M 262.02 105.42 C 263.79 105.52 265.57 105.60 267.35 105.69 C 267.34 106.11 267.33 106.94 267.33 107.36 C 265.74 108.25 264.16 109.14 262.58 110.04 C 263.84 111.23 265.12 112.40 266.41 113.57 C 264.25 115.61 262.45 117.96 260.68 120.33 C 260.66 115.35 259.68 110.06 262.02 105.42 Z" />
<path fill="#7c3737" opacity="0.78" d=" M 269.59 106.39 C 274.93 105.69 280.47 105.11 285.81 106.06 C 285.45 108.34 282.70 108.85 281.16 110.15 C 282.22 111.24 283.29 112.31 284.38 113.37 C 282.94 115.57 281.87 117.97 281.04 120.46 C 280.25 120.45 279.46 120.44 278.68 120.43 C 278.55 118.39 278.44 116.35 278.32 114.31 C 276.46 114.46 274.61 114.62 272.77 114.88 C 272.43 116.65 272.31 118.46 272.15 120.26 C 271.53 120.37 270.28 120.58 269.66 120.69 C 269.44 115.93 269.56 111.15 269.59 106.39 M 271.54 109.96 C 273.31 111.43 275.40 112.36 277.66 112.70 C 277.63 111.10 277.58 109.51 277.50 107.91 C 275.49 108.54 273.50 109.21 271.54 109.96 Z" />
<path fill="#7c3737" opacity="0.78" d=" M 240.35 106.41 C 243.46 105.53 247.35 104.89 249.25 108.25 C 250.90 111.07 247.80 112.58 245.97 114.08 C 243.83 115.61 242.26 117.75 240.53 119.71 C 240.35 115.27 240.41 110.84 240.35 106.41 M 243.37 109.31 C 243.36 109.90 243.34 111.08 243.34 111.67 C 243.94 111.66 245.14 111.66 245.74 111.66 C 245.75 111.05 245.78 109.84 245.79 109.24 C 245.18 109.26 243.97 109.29 243.37 109.31 Z" />
<path fill="#7c3737" opacity="0.78" d=" M 288.49 106.35 C 293.49 105.19 298.71 105.33 303.74 106.30 C 301.19 110.58 301.44 115.56 301.52 120.35 C 300.94 120.41 299.76 120.53 299.17 120.60 C 298.53 116.58 298.67 112.51 298.54 108.46 C 296.53 108.49 294.51 108.33 292.51 108.61 C 291.80 109.44 291.21 110.36 290.58 111.24 C 291.96 112.01 293.36 112.78 294.76 113.54 C 291.97 115.35 290.62 118.39 289.12 121.21 C 287.97 116.34 288.52 111.30 288.49 106.35 Z" />
<path fill="#7c3737" opacity="0.78" d=" M 306.23 105.63 C 308.09 105.63 309.94 105.63 311.80 105.64 C 310.69 110.22 310.32 114.91 310.54 119.62 C 309.79 119.60 308.29 119.57 307.53 119.55 C 307.71 114.87 307.60 110.15 306.23 105.63 Z" />
<path fill="#7c3737" opacity="0.78" d=" M 11.72 116.18 C 13.04 116.39 14.36 116.59 15.68 116.80 C 14.95 121.18 14.69 125.62 14.69 130.07 C 14.75 133.93 12.24 137.18 11.87 140.97 C 11.47 144.93 11.34 148.96 11.92 152.91 C 12.90 156.01 16.49 157.56 17.26 160.81 C 18.51 165.47 18.49 170.33 18.89 175.10 C 16.50 169.00 18.26 161.52 13.52 156.39 C 13.53 159.95 14.47 163.42 14.58 166.98 C 14.78 172.12 16.66 176.97 17.41 182.03 C 17.94 186.90 20.97 190.92 23.78 194.74 C 23.76 193.83 23.71 192.02 23.69 191.11 C 25.94 193.15 26.57 196.09 26.40 199.03 C 22.40 196.80 20.58 192.44 18.37 188.67 C 15.97 184.64 15.98 179.80 14.72 175.39 C 13.32 170.59 13.44 165.54 12.32 160.69 C 10.75 153.58 11.15 146.24 11.39 139.02 C 11.49 131.41 11.02 123.78 11.72 116.18 Z" />
<path fill="#7c3737" opacity="0.78" d=" M 267.36 145.73 C 267.51 140.48 266.72 135.08 268.26 129.96 C 269.10 132.17 269.79 134.43 270.54 136.67 C 271.73 136.71 272.92 136.70 274.12 136.64 C 274.66 134.07 275.48 131.54 278.39 130.92 C 278.38 135.59 278.98 140.38 278.08 144.99 C 277.55 145.35 276.50 146.08 275.97 146.44 C 274.63 144.29 275.44 139.09 271.97 139.48 C 269.17 140.23 269.61 143.40 269.31 145.64 C 268.82 145.66 267.84 145.71 267.36 145.73 Z" />
<path fill="#7c3737" opacity="0.78" d=" M 285.95 131.23 C 289.98 131.92 294.12 131.06 298.10 132.08 C 301.00 132.85 303.63 130.76 306.49 130.62 C 307.33 131.50 308.27 132.27 309.20 133.04 C 307.08 133.32 304.96 133.56 302.85 133.85 C 303.31 136.52 306.03 136.91 308.16 137.71 C 308.26 138.15 308.37 138.59 308.48 139.03 C 306.76 139.60 305.04 140.17 303.33 140.75 C 303.31 142.32 303.30 143.89 303.28 145.47 C 302.37 145.49 301.46 145.51 300.56 145.54 C 300.56 142.63 300.57 139.73 300.53 136.83 C 297.83 138.12 295.16 139.46 292.47 140.76 C 292.41 142.58 292.35 144.39 292.28 146.21 C 291.43 146.22 290.59 146.23 289.75 146.24 C 289.66 141.74 289.77 137.24 289.79 132.74 C 288.75 132.59 287.71 132.46 286.67 132.33 C 286.43 131.96 286.19 131.60 285.95 131.23 M 293.38 134.33 C 293.37 134.92 293.34 136.10 293.33 136.68 C 293.91 136.68 295.07 136.66 295.65 136.65 C 295.68 136.04 295.75 134.81 295.78 134.19 C 295.18 134.23 293.98 134.30 293.38 134.33 Z" />
<path fill="#7c3737" opacity="0.78" d=" M 243.51 131.67 C 245.63 131.30 247.79 131.35 249.94 131.26 C 249.80 131.72 249.53 132.64 249.39 133.11 C 247.54 133.57 245.62 133.96 243.95 134.92 C 241.87 136.98 243.12 139.88 243.44 142.35 C 246.07 142.89 248.70 143.41 251.33 143.99 C 249.47 145.34 247.55 147.15 245.05 146.33 C 242.64 145.13 240.67 143.01 239.45 140.63 C 238.56 137.13 240.68 133.59 243.51 131.67 Z" />
<path fill="#7c3737" opacity="0.78" d=" M 260.86 131.46 C 262.02 131.46 263.17 131.52 264.33 131.63 C 264.33 136.28 264.34 140.94 264.32 145.59 C 263.12 145.92 261.93 146.26 260.74 146.58 C 260.63 144.71 260.55 142.85 260.49 140.99 C 259.77 140.49 258.33 139.49 257.61 138.99 C 256.21 140.70 255.02 142.57 253.99 144.53 C 253.63 144.54 252.90 144.58 252.54 144.59 C 252.57 140.52 252.57 136.45 252.51 132.37 C 252.92 132.39 253.72 132.41 254.12 132.43 C 255.01 134.21 255.35 137.20 258.03 136.75 C 261.05 137.34 260.31 133.31 260.86 131.46 Z" />
<path fill="#7c3737" opacity="0.78" d=" M 281.36 131.37 C 282.89 131.39 284.42 131.42 285.96 131.48 C 285.46 135.93 285.84 140.42 285.39 144.86 C 284.46 145.38 283.51 145.86 282.54 146.30 C 281.78 141.36 281.73 136.35 281.36 131.37 Z" />
<path fill="#7c3737" opacity="0.78" d=" M 167.69 139.15 C 173.57 137.60 179.12 135.07 184.86 133.10 C 175.79 139.19 164.77 140.87 154.42 143.63 C 138.63 147.78 122.40 150.14 106.11 151.10 C 99.19 151.93 92.16 151.36 85.29 152.65 C 89.15 153.38 93.07 153.78 96.96 154.35 C 96.79 156.36 96.63 158.38 96.37 160.38 C 96.41 158.46 96.44 156.53 96.45 154.61 C 91.21 154.66 85.98 154.41 80.75 154.24 C 80.51 150.69 76.19 150.63 73.50 150.52 C 70.95 150.38 69.85 153.17 68.23 154.65 C 68.38 153.93 68.68 152.50 68.83 151.79 C 64.40 151.63 60.01 150.96 55.65 150.18 C 55.24 151.73 54.85 153.29 54.50 154.85 C 54.36 153.34 54.23 151.83 54.13 150.31 C 56.47 149.79 58.82 149.34 61.18 148.90 C 54.88 147.62 48.54 145.68 43.61 141.36 C 47.67 143.12 51.41 145.80 55.89 146.42 C 64.27 147.83 72.63 149.38 81.06 150.45 C 87.38 150.64 93.71 150.58 100.03 150.56 C 109.42 149.21 118.98 149.42 128.33 147.61 C 141.74 146.30 154.65 142.29 167.69 139.15 Z" />
<path fill="#7c3737" opacity="0.78" d=" M 249.83 158.03 C 252.06 156.16 254.78 155.23 257.68 155.22 C 257.67 155.81 257.64 156.97 257.63 157.55 C 256.06 158.40 254.50 159.26 252.96 160.16 C 254.68 161.19 256.45 162.13 258.24 163.03 C 255.44 164.82 253.47 167.45 252.49 170.63 C 252.03 170.57 251.12 170.45 250.67 170.39 C 250.63 167.50 250.63 164.61 250.56 161.72 C 248.21 162.96 245.71 163.99 243.60 165.63 C 242.97 167.19 242.61 168.83 242.20 170.45 C 241.76 170.50 240.87 170.60 240.43 170.65 C 240.40 165.78 240.38 160.92 240.46 156.05 C 243.80 155.16 246.98 156.34 249.83 158.03 M 242.72 161.42 C 243.56 161.49 245.26 161.62 246.11 161.69 C 245.78 160.40 245.45 159.11 245.11 157.82 C 244.31 159.02 243.50 160.21 242.72 161.42 Z" />
<path fill="#7c3737" opacity="0.78" d=" M 261.61 155.51 C 263.46 155.54 265.31 155.61 267.17 155.69 C 265.75 157.57 264.23 159.36 262.72 161.16 C 264.19 161.72 265.67 162.27 267.16 162.83 C 270.06 159.66 272.85 154.61 277.92 155.48 C 278.84 156.34 279.73 157.26 280.65 158.14 C 278.32 158.57 275.87 158.63 273.68 159.63 C 272.27 160.93 271.22 162.55 270.08 164.07 C 272.51 167.29 276.13 168.96 280.17 168.58 C 279.67 169.66 279.12 170.73 278.52 171.78 C 273.21 171.82 269.49 167.87 266.90 163.69 C 264.19 165.28 262.36 167.83 260.70 170.43 C 260.55 165.45 260.09 160.34 261.61 155.51 Z" />
<path fill="#7c3737" opacity="0.78" d=" M 296.62 155.71 C 297.05 155.69 297.89 155.64 298.32 155.61 C 299.03 158.18 299.86 160.71 300.87 163.18 C 303.46 161.21 304.83 158.27 306.19 155.42 C 307.78 160.40 307.34 165.65 307.31 170.79 C 306.68 170.71 305.43 170.55 304.80 170.47 C 304.12 168.19 304.27 164.12 300.92 164.30 C 299.42 166.35 298.56 168.75 297.43 171.00 C 295.75 166.08 296.55 160.80 296.62 155.71 Z" />
<path fill="#7c3737" opacity="0.78" d=" M 289.03 161.20 C 289.99 159.61 290.65 157.87 291.46 156.20 C 292.75 160.95 292.80 166.01 291.40 170.75 C 290.31 168.43 289.25 166.10 288.05 163.83 C 285.67 165.32 283.92 167.50 282.35 169.78 C 281.24 165.60 281.56 161.23 282.66 157.09 C 283.69 158.77 284.69 160.46 285.71 162.15 C 286.82 161.85 287.94 161.59 289.03 161.20 Z" />
<path fill="#7c3737" opacity="0.78" d=" M 115.56 164.97 C 116.82 164.74 118.09 164.51 119.35 164.28 C 119.41 166.35 119.41 168.43 119.43 170.51 C 118.48 170.51 116.58 170.50 115.62 170.50 C 115.62 168.66 115.60 166.81 115.56 164.97 Z" />
<path fill="#7c3737" opacity="0.78" d=" M 83.88 167.23 C 84.14 166.78 84.68 165.88 84.95 165.42 C 87.80 166.43 90.64 167.46 93.52 168.37 C 93.02 169.62 92.52 170.86 92.04 172.12 C 91.19 172.34 90.35 172.57 89.51 172.80 C 89.57 171.11 89.63 169.43 89.68 167.75 C 87.75 167.48 85.82 167.32 83.88 167.23 Z" />
<path fill="#7c3737" opacity="0.78" d=" M 98.53 188.77 C 100.42 184.58 101.97 180.25 103.77 176.02 C 103.11 179.60 102.29 183.15 101.68 186.74 C 100.89 192.82 101.99 199.00 101.17 205.07 C 100.50 205.34 99.17 205.90 98.50 206.17 C 98.17 200.39 98.05 194.54 98.53 188.77 Z" />
<path fill="#7c3737" opacity="0.78" d=" M 243.08 182.11 C 246.55 178.87 251.13 182.34 255.22 181.69 C 255.29 183.31 255.36 184.93 255.45 186.55 C 256.99 186.61 258.53 186.65 260.07 186.66 C 260.51 184.53 261.02 182.42 261.59 180.33 C 262.29 180.75 263.68 181.58 264.38 181.99 C 264.07 186.83 265.19 191.96 263.11 196.53 C 260.78 194.63 260.03 191.59 258.61 189.07 C 257.76 189.51 256.07 190.40 255.22 190.84 C 255.25 192.31 255.28 193.77 255.31 195.24 C 251.66 195.00 248.19 196.54 244.58 196.38 C 242.47 194.87 240.59 192.90 239.47 190.55 C 238.47 187.24 240.53 184.04 243.08 182.11 M 243.58 184.98 C 243.40 187.43 242.08 191.13 244.81 192.58 C 247.41 192.85 250.04 192.73 252.65 192.74 C 252.61 189.52 252.59 186.28 251.96 183.11 C 249.16 183.59 245.92 183.05 243.58 184.98 Z" />
<path fill="#7c3737" opacity="0.78" d=" M 275.80 180.45 C 276.48 180.81 277.83 181.52 278.51 181.87 C 277.73 186.88 280.44 193.26 275.96 196.98 C 275.23 194.41 274.64 191.80 274.05 189.20 C 272.79 189.66 271.08 189.58 270.23 190.76 C 269.43 192.89 268.86 195.10 267.90 197.18 C 266.98 191.87 267.29 186.45 267.63 181.11 C 269.49 183.07 269.83 187.91 273.27 187.44 C 274.86 185.45 275.07 182.80 275.80 180.45 Z" />
<path fill="#7c3737" opacity="0.78" d=" M 302.99 186.69 C 303.20 184.03 303.48 181.20 306.39 180.16 C 306.97 185.38 306.81 190.65 306.58 195.88 C 305.89 195.80 304.52 195.64 303.84 195.55 C 303.29 193.12 302.45 190.77 301.18 188.62 C 298.91 190.49 297.15 192.86 295.60 195.34 C 295.49 190.76 295.46 186.18 295.65 181.60 C 296.72 183.20 297.63 184.93 298.88 186.42 C 300.23 186.66 301.62 186.65 302.99 186.69 Z" />
<path fill="#7c3737" opacity="0.78" d=" M 281.80 181.18 C 283.12 183.22 284.28 185.36 285.45 187.49 C 286.30 187.41 287.15 187.33 288.01 187.25 C 288.96 184.84 288.88 180.98 292.32 180.93 C 292.26 186.12 293.30 191.60 291.09 196.49 C 289.77 194.07 288.67 191.54 287.49 189.05 C 284.16 190.11 283.37 193.69 281.78 196.36 C 281.22 191.32 281.20 186.21 281.80 181.18 Z" />
<path fill="#7c3737" opacity="0.78" d=" M 238.53 206.61 C 240.84 205.95 243.20 206.79 245.22 207.90 C 242.72 208.84 240.02 209.38 237.74 210.82 C 235.70 212.13 236.50 214.84 236.67 216.85 C 238.98 219.39 242.82 218.99 245.88 219.92 C 243.65 221.22 240.90 223.55 238.30 221.65 C 232.60 218.70 233.09 209.56 238.53 206.61 Z" />
<path fill="#7c3737" opacity="0.78" d=" M 278.90 207.03 C 280.68 206.29 282.67 206.48 284.56 206.28 C 284.59 207.27 284.63 208.25 284.68 209.23 C 281.77 209.53 277.18 210.09 277.46 214.04 C 276.81 218.85 282.81 218.87 286.00 219.83 C 284.96 220.81 283.89 221.76 282.79 222.69 C 279.94 221.74 276.34 220.92 275.37 217.62 C 273.38 213.85 275.37 209.04 278.90 207.03 Z" />
<path fill="#7c3737" opacity="0.78" d=" M 260.70 208.03 C 261.51 207.14 262.50 206.90 263.65 207.30 C 264.24 209.00 264.53 210.79 264.87 212.55 C 265.79 212.61 267.62 212.72 268.53 212.77 C 268.98 210.99 269.40 209.21 269.78 207.41 C 270.42 207.40 271.69 207.37 272.33 207.36 C 272.29 212.30 272.88 217.39 271.15 222.13 C 270.06 219.96 269.13 217.72 268.18 215.49 C 267.28 215.52 265.48 215.59 264.57 215.62 C 264.50 217.56 264.42 219.50 264.36 221.44 C 263.16 221.48 261.96 221.53 260.77 221.58 C 260.57 217.07 260.36 212.54 260.70 208.03 Z" />
<path fill="#7c3737" opacity="0.78" d=" M 296.72 207.58 C 297.18 207.46 298.09 207.21 298.55 207.08 C 298.64 211.64 299.32 216.16 299.39 220.73 C 298.75 220.70 297.46 220.64 296.82 220.62 C 296.31 218.96 295.85 217.28 295.04 215.74 C 293.68 215.56 292.32 215.42 290.96 215.33 C 290.09 217.22 289.20 219.11 288.25 220.97 C 287.10 216.88 287.50 212.59 287.44 208.40 C 287.89 208.38 288.79 208.34 289.24 208.31 C 289.69 209.77 290.17 211.22 290.66 212.66 C 292.19 212.65 293.73 212.62 295.27 212.58 C 295.75 210.91 296.25 209.25 296.72 207.58 Z" />
<path fill="#7c3737" opacity="0.78" d=" M 247.70 221.69 C 246.12 216.86 245.92 211.43 247.74 206.64 C 248.74 208.63 249.64 210.69 250.74 212.64 C 253.83 213.55 255.67 210.76 257.43 208.77 C 257.45 212.23 257.45 215.70 257.43 219.16 C 255.58 217.70 253.77 216.18 251.83 214.84 C 250.38 217.08 249.09 219.41 247.70 221.69 Z" />
</g>
</svg>
