<?xml version="1.0" encoding="UTF-8" ?>
<!DOCTYPE svg PUBLIC "-//W3C//DTD SVG 1.1//EN" "http://www.w3.org/Graphics/SVG/1.1/DTD/svg11.dtd">
<svg width="210pt" height="220pt" viewBox="0 0 210 220" version="1.1" xmlns="http://www.w3.org/2000/svg">
<g id="#000000ff">
<path fill="#000000" opacity="1.00" d=" M 43.98 59.45 C 54.18 57.47 64.68 54.39 75.11 56.54 C 78.17 56.78 79.54 59.96 81.94 61.42 C 83.59 61.75 85.29 61.75 86.97 61.83 C 86.50 63.39 86.01 64.93 85.51 66.48 C 86.14 66.60 87.40 66.85 88.04 66.98 C 86.84 68.28 85.60 69.54 84.33 70.77 C 84.25 70.05 84.10 68.60 84.03 67.87 C 81.86 66.60 79.88 65.05 77.96 63.43 C 77.54 63.66 76.71 64.13 76.30 64.37 C 74.47 63.75 72.59 63.16 70.64 63.44 C 69.15 63.53 67.66 63.64 66.17 63.77 C 66.56 64.95 66.97 66.12 67.42 67.28 C 66.54 68.50 65.72 69.75 64.85 70.98 C 62.24 72.26 60.96 74.93 61.32 77.80 C 60.79 77.45 59.74 76.74 59.21 76.38 C 59.38 75.13 59.54 73.88 59.70 72.64 C 61.09 71.56 62.46 70.44 63.84 69.35 C 62.24 69.40 59.03 69.51 57.43 69.56 C 56.03 72.92 57.40 76.24 58.88 79.29 C 59.54 79.37 60.87 79.52 61.53 79.60 C 61.49 81.92 61.41 84.25 61.14 86.57 C 60.69 84.50 60.47 82.40 60.32 80.30 C 58.14 78.78 55.81 79.60 53.73 80.82 C 52.56 85.37 51.66 90.04 49.31 94.17 C 52.43 87.86 53.16 80.75 52.20 73.83 C 50.27 71.30 46.89 70.71 44.07 69.65 C 45.14 69.49 47.28 69.16 48.35 69.00 C 47.11 67.88 45.73 66.93 44.32 66.04 C 44.32 65.68 44.33 64.96 44.33 64.60 C 46.01 64.91 47.70 65.20 49.40 65.44 C 47.85 62.79 43.20 63.54 43.98 59.45 Z" />
<path fill="#000000" opacity="1.00" d=" M 74.24 70.88 C 75.21 71.38 77.14 72.40 78.11 72.91 C 77.34 73.82 76.60 74.76 75.88 75.72 C 75.66 75.11 75.21 73.89 74.98 73.28 C 74.80 72.68 74.42 71.48 74.24 70.88 Z" />
<path fill="#000000" opacity="1.00" d=" M 174.19 74.19 C 174.91 73.53 175.58 72.83 176.28 72.14 C 176.34 73.05 176.45 74.85 176.50 75.75 C 177.05 75.63 178.15 75.40 178.70 75.28 C 178.64 75.70 178.51 76.53 178.44 76.94 C 176.88 76.26 175.48 75.29 174.19 74.19 Z" />
<path fill="#000000" opacity="1.00" d=" M 69.27 88.80 C 68.67 85.50 70.13 82.30 73.29 80.96 L 73.52 82.46 C 75.27 82.97 77.04 83.44 78.85 83.75 C 78.53 85.85 77.91 87.93 76.63 89.66 C 75.58 89.69 74.54 89.68 73.49 89.63 L 73.61 88.42 C 72.17 88.56 70.72 88.69 69.27 88.80 Z" />
<path fill="#000000" opacity="1.00" d=" M 125.02 95.56 C 134.16 93.46 142.40 88.68 150.95 84.99 C 152.94 88.96 155.05 92.88 157.78 96.39 C 149.13 100.74 139.96 104.44 132.34 110.53 C 122.48 111.09 113.17 114.76 103.83 117.66 C 98.68 118.88 95.70 123.57 92.06 126.98 C 87.68 131.06 84.99 136.57 80.48 140.52 C 79.40 149.36 77.49 158.08 76.40 166.93 C 60.41 167.01 44.42 166.86 28.43 167.00 C 28.35 164.35 28.27 161.69 28.32 159.03 C 28.37 156.60 28.38 154.16 28.26 151.72 C 25.03 156.50 22.00 161.47 20.10 166.94 C 15.51 166.96 10.92 166.85 6.34 167.11 C 7.89 163.91 9.04 160.45 8.50 156.85 C 11.43 155.45 12.61 152.40 12.88 149.35 C 14.39 146.77 15.76 144.11 16.68 141.26 C 18.15 136.71 20.96 132.71 22.23 128.08 C 23.33 123.36 26.34 119.36 27.04 114.51 C 27.69 110.60 30.08 107.45 32.82 104.73 C 36.20 103.94 39.48 102.80 42.66 101.41 C 42.63 100.81 42.56 99.63 42.53 99.04 C 43.36 98.36 44.18 97.68 45.01 97.00 C 45.75 96.47 47.23 95.41 47.98 94.88 C 47.41 97.70 46.85 100.54 46.55 103.42 C 45.09 107.16 43.13 110.81 43.16 114.94 C 42.73 115.95 42.33 116.97 41.94 117.99 C 40.11 122.38 40.68 127.21 40.67 131.83 C 41.15 131.80 42.11 131.72 42.59 131.69 C 42.83 130.73 43.07 129.77 43.33 128.82 C 49.03 116.43 57.87 105.89 66.90 95.80 C 68.07 94.56 68.57 92.93 68.97 91.33 C 69.91 91.47 71.78 91.77 72.72 91.92 C 72.21 95.71 71.04 99.52 71.80 103.37 C 72.51 101.57 73.14 99.74 73.73 97.90 C 78.30 96.76 82.60 94.80 87.08 93.39 C 90.53 94.51 92.77 97.87 95.16 100.45 C 95.47 100.51 96.07 100.63 96.38 100.69 C 97.97 98.88 99.56 97.08 101.12 95.24 C 101.32 95.61 101.74 96.35 101.94 96.71 C 102.55 98.76 103.23 101.00 105.19 102.17 C 107.38 102.93 109.26 101.22 111.02 100.18 C 117.04 96.29 122.61 91.49 129.36 88.88 C 128.12 91.24 126.50 93.36 125.02 95.56 M 62.40 111.70 C 62.36 112.59 62.32 113.47 62.28 114.36 C 62.89 114.37 64.12 114.39 64.73 114.40 C 64.69 113.50 64.65 112.60 64.61 111.71 C 64.06 111.71 62.95 111.70 62.40 111.70 M 53.41 122.70 C 53.47 123.23 53.58 124.29 53.64 124.82 C 57.11 122.19 60.35 119.26 63.50 116.26 C 60.08 118.31 56.72 120.48 53.41 122.70 M 66.63 126.22 C 64.02 126.44 61.53 127.25 59.07 128.07 C 61.88 129.30 64.80 128.27 67.47 127.18 C 67.36 126.65 67.13 125.59 67.02 125.06 C 66.92 125.35 66.73 125.93 66.63 126.22 M 41.47 139.74 C 41.53 140.23 41.66 141.21 41.72 141.69 C 42.26 141.65 43.34 141.56 43.87 141.52 C 43.66 140.44 43.44 139.35 43.22 138.28 C 42.63 138.77 42.05 139.25 41.47 139.74 M 41.60 154.76 C 41.50 155.68 41.40 156.61 41.30 157.54 C 41.87 157.55 43.01 157.56 43.58 157.57 C 43.50 156.64 43.42 155.71 43.34 154.78 C 42.90 154.77 42.03 154.76 41.60 154.76 Z" />
<path fill="#000000" opacity="1.00" d=" M 118.63 88.98 C 120.80 88.47 122.92 87.77 124.96 86.86 C 123.02 88.34 121.09 89.84 119.16 91.34 L 116.66 92.16 C 117.11 91.43 118.01 89.98 118.46 89.25 L 118.63 88.98 Z" />
<path fill="#000000" opacity="1.00" d=" M 170.17 89.47 C 170.32 89.32 170.62 89.00 170.77 88.85 C 171.36 88.75 172.54 88.56 173.12 88.46 C 171.70 92.33 170.22 96.17 169.00 100.11 C 168.04 100.53 167.08 100.94 166.13 101.36 L 165.82 101.07 C 164.44 99.74 163.03 98.43 161.63 97.12 L 163.64 97.58 C 163.79 96.49 163.97 95.40 164.18 94.32 C 165.23 93.58 166.44 93.10 167.54 92.44 C 168.20 91.70 169.51 90.21 170.17 89.47 Z" />
</g>
<g id="#9b9b9bee">
<path fill="#9b9b9b" opacity="0.93" d=" M 70.64 63.44 C 72.59 63.16 74.47 63.75 76.30 64.37 C 76.71 64.13 77.54 63.66 77.96 63.43 C 79.88 65.05 81.86 66.60 84.03 67.87 C 84.10 68.60 84.25 70.05 84.33 70.77 C 83.56 74.19 83.02 77.61 83.31 81.14 L 82.85 79.88 C 81.17 76.34 83.05 72.58 83.62 69.01 C 82.00 67.71 80.39 66.40 78.77 65.10 C 76.03 64.71 73.35 64.01 70.64 63.44 Z" />
<path fill="#9b9b9b" opacity="0.93" d=" M 173.91 64.57 C 178.46 62.73 183.35 64.29 188.03 64.43 C 193.06 64.32 198.05 63.45 203.08 63.40 C 204.86 63.34 206.52 65.19 205.67 66.93 C 204.66 68.08 203.36 68.89 202.15 69.78 C 197.68 69.33 193.55 71.59 189.08 71.44 C 193.38 75.67 192.41 83.92 186.22 85.79 C 185.38 84.92 184.83 83.80 183.88 83.04 C 182.55 84.03 184.18 85.67 184.46 86.81 C 182.40 88.38 180.09 87.50 178.04 86.45 C 176.47 87.25 174.92 88.26 173.12 88.46 C 172.54 88.56 171.36 88.75 170.77 88.85 C 170.62 89.00 170.32 89.32 170.17 89.47 C 167.86 89.48 165.55 89.61 163.26 89.86 C 164.61 90.84 166.05 91.69 167.54 92.44 C 166.44 93.10 165.23 93.58 164.18 94.32 C 163.97 95.40 163.79 96.49 163.64 97.58 L 161.63 97.12 C 163.03 98.43 164.44 99.74 165.82 101.07 C 158.91 102.29 152.47 105.22 145.65 106.78 C 151.42 103.51 158.01 102.10 164.40 100.57 C 158.96 96.03 153.99 90.23 152.71 83.05 C 152.73 80.36 153.76 77.83 154.45 75.27 L 154.56 74.92 C 156.12 74.24 157.66 73.53 159.17 72.75 C 159.89 72.75 161.31 72.75 162.03 72.75 C 163.41 71.80 164.81 70.86 166.24 69.97 C 163.22 73.57 157.59 75.74 157.29 80.99 C 157.69 83.99 159.15 87.67 162.00 88.95 C 167.05 87.98 172.25 87.75 177.19 86.25 C 174.50 85.48 171.63 84.94 169.37 83.17 C 173.68 83.36 177.70 84.98 181.80 86.14 C 181.96 84.69 182.10 83.25 182.24 81.81 C 181.40 82.27 179.73 83.20 178.89 83.67 C 179.61 82.75 180.34 81.84 181.06 80.92 C 180.61 80.39 179.72 79.34 179.27 78.81 C 179.37 77.14 179.47 75.46 179.54 73.78 C 179.01 72.75 178.41 71.75 177.92 70.69 C 183.53 69.54 189.29 70.46 194.93 69.63 C 198.65 69.05 202.67 68.80 205.65 66.20 C 205.04 65.68 203.84 64.64 203.23 64.12 C 193.53 65.93 183.68 65.22 173.91 64.57 M 180.31 71.75 C 182.38 74.84 182.42 78.56 182.30 82.13 C 183.47 82.03 184.64 81.93 185.81 81.82 C 186.34 80.89 186.88 79.95 187.42 79.02 C 186.57 76.45 185.84 73.84 185.19 71.22 C 183.56 71.41 181.94 71.58 180.31 71.75 M 187.18 71.58 C 186.01 72.35 187.14 74.62 188.38 73.51 C 189.53 72.73 188.41 70.47 187.18 71.58 M 162.10 96.86 C 162.47 96.14 162.55 95.41 162.35 94.65 L 162.26 94.14 C 162.85 93.44 163.46 92.76 164.07 92.08 C 160.90 91.31 158.78 88.64 157.31 85.90 C 155.49 82.98 156.57 79.40 156.38 76.20 C 151.09 83.18 156.81 91.79 162.10 96.86 Z" />
<path fill="#9b9b9b" opacity="0.93" d=" M 70.41 66.69 C 74.62 66.55 77.50 69.84 80.72 72.00 C 80.15 73.22 79.60 74.45 79.07 75.70 C 78.00 75.69 76.94 75.71 75.88 75.72 C 76.60 74.76 77.34 73.82 78.11 72.91 C 77.14 72.40 75.21 71.38 74.24 70.88 C 74.42 71.48 74.80 72.68 74.98 73.28 C 73.65 74.00 71.14 75.82 70.65 73.28 C 71.58 71.85 73.08 70.99 74.50 70.12 C 72.85 69.31 70.65 68.88 70.41 66.69 Z" />
<path fill="#9b9b9b" opacity="0.93" d=" M 158.09 81.49 C 160.73 82.60 163.46 83.76 165.49 85.85 C 162.33 85.96 159.65 84.16 158.09 81.49 Z" />
<path fill="#9b9b9b" opacity="0.93" d=" M 88.12 89.58 C 89.67 89.07 91.40 88.32 93.02 89.10 C 96.27 90.36 99.59 91.43 102.92 92.47 C 107.88 90.52 113.26 90.19 118.46 89.25 C 118.01 89.98 117.11 91.43 116.66 92.16 L 119.16 91.34 C 117.81 92.42 116.43 93.45 115.02 94.44 C 115.61 93.03 116.22 91.64 116.84 90.25 C 111.89 91.07 107.04 92.64 102.03 92.94 C 97.35 91.96 92.99 89.61 88.12 89.58 Z" />
<path fill="#9b9b9b" opacity="0.93" d=" M 48.17 93.97 L 48.35 95.57 C 48.39 99.93 48.72 104.74 52.66 107.46 C 51.38 107.42 50.11 107.37 48.84 107.32 C 47.52 109.26 46.15 111.17 44.73 113.04 C 45.75 110.22 46.98 107.48 48.40 104.84 C 47.94 104.48 47.01 103.77 46.55 103.42 C 46.85 100.54 47.41 97.70 47.98 94.88 L 48.17 93.97 Z" />
<path fill="#9b9b9b" opacity="0.93" d=" M 50.85 95.65 C 52.08 95.13 53.26 97.15 52.49 98.11 C 51.25 98.64 50.05 96.62 50.85 95.65 Z" />
<path fill="#9b9b9b" opacity="0.93" d=" M 54.17 103.44 L 54.99 103.73 C 56.09 106.09 52.56 105.04 54.17 103.44 Z" />
<path fill="#9b9b9b" opacity="0.93" d=" M 53.41 122.70 C 56.72 120.48 60.08 118.31 63.50 116.26 C 60.35 119.26 57.11 122.19 53.64 124.82 C 53.58 124.29 53.47 123.23 53.41 122.70 Z" />
<path fill="#9b9b9b" opacity="0.93" d=" M 40.67 131.83 C 40.68 127.21 40.11 122.38 41.94 117.99 C 41.49 122.41 41.38 126.85 41.23 131.28 C 41.76 130.67 42.81 129.44 43.33 128.82 C 43.07 129.77 42.83 130.73 42.59 131.69 C 42.11 131.72 41.15 131.80 40.67 131.83 Z" />
<path fill="#9b9b9b" opacity="0.93" d=" M 23.23 166.94 C 24.95 164.32 26.47 161.57 28.32 159.03 C 28.27 161.69 28.35 164.35 28.43 167.00 C 26.70 167.01 24.96 167.01 23.23 166.94 Z" />
</g>
<g id="#fefefeff">
<path fill="#fefefe" opacity="1.00" d=" M 67.42 67.28 C 66.97 66.12 66.56 64.95 66.17 63.77 C 67.66 63.64 69.15 63.53 70.64 63.44 C 73.35 64.01 76.03 64.71 78.77 65.10 C 80.39 66.40 82.00 67.71 83.62 69.01 C 83.05 72.58 81.17 76.34 82.85 79.88 C 81.62 81.21 81.40 82.92 81.34 84.63 L 80.31 84.54 L 80.58 85.82 C 80.29 86.17 79.69 86.86 79.40 87.21 C 78.07 88.96 76.40 90.57 76.03 92.87 C 77.05 92.76 79.09 92.54 80.12 92.43 C 82.28 91.22 84.65 90.49 86.92 89.52 C 87.22 89.53 87.82 89.56 88.12 89.58 C 92.99 89.61 97.35 91.96 102.03 92.94 C 107.04 92.64 111.89 91.07 116.84 90.25 C 116.22 91.64 115.61 93.03 115.02 94.44 C 116.43 93.45 117.81 92.42 119.16 91.34 C 121.09 89.84 123.02 88.34 124.96 86.86 C 125.26 86.60 125.86 86.10 126.16 85.84 C 131.61 84.82 136.76 82.71 141.90 80.69 C 144.64 79.57 147.35 78.38 150.11 77.29 C 151.55 76.61 153.00 75.95 154.45 75.27 C 153.76 77.83 152.73 80.36 152.71 83.05 C 153.99 90.23 158.96 96.03 164.40 100.57 C 158.01 102.10 151.42 103.51 145.65 106.78 L 145.06 107.12 C 141.73 108.13 138.37 109.10 135.11 110.33 C 133.25 110.90 131.39 111.44 129.47 111.75 L 129.54 112.33 C 126.33 113.00 123.25 114.13 120.17 115.23 C 118.17 115.94 116.16 116.62 114.16 117.32 C 113.67 117.54 112.69 117.98 112.19 118.20 C 109.75 118.97 107.41 120.05 105.10 121.15 C 102.49 122.42 100.11 124.10 97.76 125.80 C 95.90 127.98 94.43 130.46 93.24 133.06 C 92.76 134.37 92.30 135.68 91.81 136.98 C 91.58 138.02 91.36 139.06 91.16 140.10 C 90.67 142.04 90.41 144.02 89.83 145.93 C 89.57 147.96 89.38 150.00 89.20 152.05 C 87.58 156.82 88.36 161.98 88.46 166.93 C 84.44 166.96 80.42 166.95 76.40 166.93 C 77.49 158.08 79.40 149.36 80.48 140.52 C 84.99 136.57 87.68 131.06 92.06 126.98 C 95.70 123.57 98.68 118.88 103.83 117.66 C 113.17 114.76 122.48 111.09 132.34 110.53 C 139.96 104.44 149.13 100.74 157.78 96.39 C 155.05 92.88 152.94 88.96 150.95 84.99 C 142.40 88.68 134.16 93.46 125.02 95.56 C 126.50 93.36 128.12 91.24 129.36 88.88 C 122.61 91.49 117.04 96.29 111.02 100.18 C 109.26 101.22 107.38 102.93 105.19 102.17 C 103.23 101.00 102.55 98.76 101.94 96.71 C 101.74 96.35 101.32 95.61 101.12 95.24 C 99.56 97.08 97.97 98.88 96.38 100.69 C 96.07 100.63 95.47 100.51 95.16 100.45 C 92.77 97.87 90.53 94.51 87.08 93.39 C 82.60 94.80 78.30 96.76 73.73 97.90 C 73.14 99.74 72.51 101.57 71.80 103.37 C 71.04 99.52 72.21 95.71 72.72 91.92 C 71.78 91.77 69.91 91.47 68.97 91.33 C 68.57 92.93 68.07 94.56 66.90 95.80 C 57.87 105.89 49.03 116.43 43.33 128.82 C 42.81 129.44 41.76 130.67 41.23 131.28 C 41.38 126.85 41.49 122.41 41.94 117.99 C 42.33 116.97 42.73 115.95 43.16 114.94 C 43.13 110.81 45.09 107.16 46.55 103.42 C 47.01 103.77 47.94 104.48 48.40 104.84 C 46.98 107.48 45.75 110.22 44.73 113.04 C 46.15 111.17 47.52 109.26 48.84 107.32 C 50.11 107.37 51.38 107.42 52.66 107.46 C 48.72 104.74 48.39 99.93 48.35 95.57 L 48.28 94.42 L 49.09 94.64 L 49.31 94.17 C 51.66 90.04 52.56 85.37 53.73 80.82 C 55.81 79.60 58.14 78.78 60.32 80.30 C 60.47 82.40 60.69 84.50 61.14 86.57 C 61.41 84.25 61.49 81.92 61.53 79.60 C 60.87 79.52 59.54 79.37 58.88 79.29 C 57.40 76.24 56.03 72.92 57.43 69.56 C 59.03 69.51 62.24 69.40 63.84 69.35 C 62.46 70.44 61.09 71.56 59.70 72.64 C 59.54 73.88 59.38 75.13 59.21 76.38 C 59.74 76.74 60.79 77.45 61.32 77.80 C 60.96 74.93 62.24 72.26 64.85 70.98 C 65.72 69.75 66.54 68.50 67.42 67.28 M 70.41 66.69 C 70.65 68.88 72.85 69.31 74.50 70.12 C 73.08 70.99 71.58 71.85 70.65 73.28 C 71.14 75.82 73.65 74.00 74.98 73.28 C 75.21 73.89 75.66 75.11 75.88 75.72 C 76.94 75.71 78.00 75.69 79.07 75.70 C 79.60 74.45 80.15 73.22 80.72 72.00 C 77.50 69.84 74.62 66.55 70.41 66.69 M 69.27 88.80 C 70.72 88.69 72.17 88.56 73.61 88.42 L 73.49 89.63 C 74.54 89.68 75.58 89.69 76.63 89.66 C 77.91 87.93 78.53 85.85 78.85 83.75 C 77.04 83.44 75.27 82.97 73.52 82.46 L 73.29 80.96 C 70.13 82.30 68.67 85.50 69.27 88.80 M 50.85 95.65 C 50.05 96.62 51.25 98.64 52.49 98.11 C 53.26 97.15 52.08 95.13 50.85 95.65 M 54.17 103.44 C 52.56 105.04 56.09 106.09 54.99 103.73 L 54.17 103.44 Z" />
<path fill="#fefefe" opacity="1.00" d=" M 171.02 65.80 C 171.48 65.48 172.41 64.84 172.88 64.52 C 173.14 64.53 173.65 64.56 173.91 64.57 C 183.68 65.22 193.53 65.93 203.23 64.12 C 203.84 64.64 205.04 65.68 205.65 66.20 C 202.67 68.80 198.65 69.05 194.93 69.63 C 189.29 70.46 183.53 69.54 177.92 70.69 C 178.41 71.75 179.01 72.75 179.54 73.78 C 179.47 75.46 179.37 77.14 179.27 78.81 C 179.72 79.34 180.61 80.39 181.06 80.92 C 180.34 81.84 179.61 82.75 178.89 83.67 C 179.73 83.20 181.40 82.27 182.24 81.81 C 182.10 83.25 181.96 84.69 181.80 86.14 C 177.70 84.98 173.68 83.36 169.37 83.17 C 171.63 84.94 174.50 85.48 177.19 86.25 C 172.25 87.75 167.05 87.98 162.00 88.95 C 159.15 87.67 157.69 83.99 157.29 80.99 C 157.59 75.74 163.22 73.57 166.24 69.97 C 167.78 68.52 169.46 67.24 171.02 65.80 M 174.19 74.19 C 175.48 75.29 176.88 76.26 178.44 76.94 C 178.51 76.53 178.64 75.70 178.70 75.28 C 178.15 75.40 177.05 75.63 176.50 75.75 C 176.45 74.85 176.34 73.05 176.28 72.14 C 175.58 72.83 174.91 73.53 174.19 74.19 M 158.09 81.49 C 159.65 84.16 162.33 85.96 165.49 85.85 C 163.46 83.76 160.73 82.60 158.09 81.49 Z" />
<path fill="#fefefe" opacity="1.00" d=" M 180.31 71.75 C 181.94 71.58 183.56 71.41 185.19 71.22 C 185.84 73.84 186.57 76.45 187.42 79.02 C 186.88 79.95 186.34 80.89 185.81 81.82 C 184.64 81.93 183.47 82.03 182.30 82.13 C 182.42 78.56 182.38 74.84 180.31 71.75 Z" />
<path fill="#fefefe" opacity="1.00" d=" M 187.18 71.58 C 188.41 70.47 189.53 72.73 188.38 73.51 C 187.14 74.62 186.01 72.35 187.18 71.58 Z" />
<path fill="#fefefe" opacity="1.00" d=" M 162.10 96.86 C 156.81 91.79 151.09 83.18 156.38 76.20 C 156.57 79.40 155.49 82.98 157.31 85.90 C 158.78 88.64 160.90 91.31 164.07 92.08 C 163.46 92.76 162.85 93.44 162.26 94.14 L 162.35 94.65 C 162.55 95.41 162.47 96.14 162.10 96.86 Z" />
<path fill="#fefefe" opacity="1.00" d=" M 163.26 89.86 C 165.55 89.61 167.86 89.48 170.17 89.47 C 169.51 90.21 168.20 91.70 167.54 92.44 C 166.05 91.69 164.61 90.84 163.26 89.86 Z" />
<path fill="#fefefe" opacity="1.00" d=" M 35.72 102.80 C 39.07 101.29 42.01 99.08 45.01 97.00 C 44.18 97.68 43.36 98.36 42.53 99.04 C 42.56 99.63 42.63 100.81 42.66 101.41 C 39.48 102.80 36.20 103.94 32.82 104.73 C 30.08 107.45 27.69 110.60 27.04 114.51 C 26.34 119.36 23.33 123.36 22.23 128.08 C 20.96 132.71 18.15 136.71 16.68 141.26 C 15.76 144.11 14.39 146.77 12.88 149.35 C 12.61 152.40 11.43 155.45 8.50 156.85 C 9.04 160.45 7.89 163.91 6.34 167.11 C 5.36 166.97 4.38 166.81 3.41 166.63 C 4.70 164.13 5.81 161.54 6.88 158.93 C 7.38 157.64 7.78 156.32 8.13 154.98 C 8.74 153.76 9.50 152.63 10.23 151.49 C 10.57 150.38 10.92 149.29 11.28 148.20 C 11.43 147.07 11.58 145.95 11.73 144.83 C 12.21 143.61 12.68 142.38 13.14 141.15 C 13.48 140.11 13.84 139.07 14.23 138.05 C 15.40 136.00 16.72 134.03 17.82 131.94 C 18.31 130.35 18.73 128.74 19.24 127.16 C 19.47 126.10 19.71 125.04 19.94 123.98 C 20.93 122.28 21.97 120.59 22.84 118.82 C 23.30 117.60 23.78 116.38 24.28 115.17 C 24.38 114.56 24.58 113.34 24.68 112.73 C 25.84 110.29 26.75 107.61 28.84 105.78 C 30.54 103.84 33.34 103.80 35.67 103.33 L 35.72 102.80 Z" />
<path fill="#fefefe" opacity="1.00" d=" M 62.40 111.70 C 62.95 111.70 64.06 111.71 64.61 111.71 C 64.65 112.60 64.69 113.50 64.73 114.40 C 64.12 114.39 62.89 114.37 62.28 114.36 C 62.32 113.47 62.36 112.59 62.40 111.70 Z" />
<path fill="#fefefe" opacity="1.00" d=" M 66.63 126.22 C 66.73 125.93 66.92 125.35 67.02 125.06 C 67.13 125.59 67.36 126.65 67.47 127.18 C 64.80 128.27 61.88 129.30 59.07 128.07 C 61.53 127.25 64.02 126.44 66.63 126.22 Z" />
<path fill="#fefefe" opacity="1.00" d=" M 41.47 139.74 C 42.05 139.25 42.63 138.77 43.22 138.28 C 43.44 139.35 43.66 140.44 43.87 141.52 C 43.34 141.56 42.26 141.65 41.72 141.69 C 41.66 141.21 41.53 140.23 41.47 139.74 Z" />
<path fill="#fefefe" opacity="1.00" d=" M 20.10 166.94 C 22.00 161.47 25.03 156.50 28.26 151.72 C 28.38 154.16 28.37 156.60 28.32 159.03 C 26.47 161.57 24.95 164.32 23.23 166.94 C 22.44 166.94 20.88 166.94 20.10 166.94 Z" />
<path fill="#fefefe" opacity="1.00" d=" M 41.60 154.76 C 42.03 154.76 42.90 154.77 43.34 154.78 C 43.42 155.71 43.50 156.64 43.58 157.57 C 43.01 157.56 41.87 157.55 41.30 157.54 C 41.40 156.61 41.50 155.68 41.60 154.76 Z" />
</g>
</svg>
