<?xml version="1.0" encoding="UTF-8" ?>
<!DOCTYPE svg PUBLIC "-//W3C//DTD SVG 1.1//EN" "http://www.w3.org/Graphics/SVG/1.1/DTD/svg11.dtd">
<svg width="210pt" height="220pt" viewBox="0 0 210 220" version="1.1" xmlns="http://www.w3.org/2000/svg">
<g id="#040304fe">
<path fill="#040304" opacity="1.00" d=" M 155.04 31.47 C 159.45 29.96 164.03 28.84 168.72 29.59 C 168.07 31.13 167.43 32.68 166.76 34.21 C 166.70 44.38 162.00 53.86 161.86 64.01 C 160.74 71.32 161.20 78.87 164.00 85.76 C 166.95 89.05 168.94 93.02 171.49 96.60 C 172.58 97.99 172.84 99.78 173.41 101.41 L 172.27 101.87 C 171.95 102.00 171.32 102.27 171.01 102.40 C 171.36 102.71 172.08 103.32 172.44 103.62 C 172.99 108.74 173.82 113.86 175.31 118.80 C 175.73 115.46 175.56 112.09 175.16 108.76 C 174.18 106.47 173.24 104.16 172.27 101.87 L 173.93 101.87 C 175.43 104.49 176.22 107.44 177.40 110.20 C 176.90 118.53 178.46 126.75 178.40 135.07 C 178.31 138.13 179.95 141.00 179.52 144.08 C 179.16 146.43 178.26 148.68 178.11 151.06 C 178.71 151.17 179.92 151.37 180.52 151.47 C 180.50 157.03 180.63 162.99 177.56 167.89 C 174.51 172.50 172.11 177.87 172.61 183.53 C 171.85 183.57 170.33 183.66 169.57 183.70 C 169.48 187.48 170.95 191.09 170.66 194.90 C 169.35 194.93 168.03 194.97 166.72 195.00 C 166.71 193.53 166.70 192.06 166.70 190.59 C 166.08 190.52 164.85 190.36 164.24 190.28 C 165.02 189.26 165.79 188.23 166.60 187.22 C 166.60 186.63 166.62 185.44 166.63 184.84 C 169.80 177.28 172.68 169.33 172.64 161.02 C 172.51 156.15 175.63 151.90 175.57 147.05 C 175.54 143.76 175.84 140.42 175.29 137.18 C 171.61 128.90 172.35 119.55 170.82 110.78 C 170.15 107.98 168.46 105.53 168.07 102.65 C 167.88 102.19 167.49 101.27 167.30 100.82 C 167.27 100.20 167.20 98.97 167.17 98.35 C 165.46 96.33 164.27 93.94 163.96 91.30 C 160.78 84.68 155.56 79.32 152.42 72.70 C 153.04 72.67 154.30 72.60 154.93 72.57 C 156.09 75.29 157.51 77.88 159.06 80.40 C 159.09 79.39 159.13 77.37 159.15 76.36 C 157.89 74.57 156.70 72.74 155.47 70.92 C 154.72 70.26 153.23 68.93 152.48 68.27 C 152.44 69.38 152.36 71.59 152.32 72.69 C 151.65 70.40 151.24 68.02 150.37 65.79 C 149.37 63.11 147.18 61.15 145.86 58.64 C 144.25 56.19 142.19 54.08 140.05 52.08 C 138.98 52.57 137.91 53.07 136.85 53.57 C 136.35 51.07 134.94 48.30 131.96 48.50 C 129.72 49.53 127.77 51.06 125.72 52.39 C 127.54 52.60 129.38 52.70 131.22 52.79 C 131.25 53.27 131.32 54.25 131.36 54.74 C 128.09 54.61 124.82 54.09 121.55 54.53 C 120.65 55.98 119.74 57.43 118.80 58.85 C 118.78 61.83 118.79 64.81 118.79 67.79 C 117.58 69.08 116.41 70.42 115.33 71.83 C 117.81 70.48 120.15 68.91 122.62 67.54 C 123.42 67.60 125.03 67.71 125.84 67.77 C 126.45 67.05 127.06 66.33 127.67 65.61 C 130.85 65.62 134.03 65.62 137.21 65.63 C 138.48 66.29 139.77 66.93 141.06 67.57 C 143.37 70.40 145.94 73.09 148.95 75.19 C 153.93 83.04 161.26 90.98 159.64 101.01 C 158.43 104.47 155.87 107.23 153.21 109.66 C 146.64 109.73 140.02 110.20 133.49 109.30 C 134.07 114.52 133.93 119.77 133.88 125.01 C 133.66 127.63 133.45 130.54 131.66 132.63 C 129.72 134.82 127.38 136.59 125.14 138.46 C 130.10 138.13 134.35 141.01 139.10 141.83 C 148.25 143.95 157.51 147.19 164.51 153.64 C 166.98 158.67 166.84 164.40 166.48 169.86 C 165.89 172.86 163.53 175.06 161.82 177.47 C 155.22 177.90 148.38 176.48 141.98 178.46 C 138.30 183.11 131.95 182.28 127.23 185.08 C 120.80 188.49 113.88 190.86 106.85 192.68 C 106.51 193.14 105.84 194.08 105.51 194.55 C 100.98 195.55 95.94 195.10 91.30 194.66 C 88.85 193.34 86.10 193.32 83.40 193.44 L 83.51 192.81 C 80.47 192.40 77.53 191.44 74.98 189.72 C 73.55 189.70 72.14 189.69 70.72 189.69 C 70.71 189.10 70.71 187.94 70.70 187.36 C 71.73 187.35 72.76 187.35 73.78 187.35 C 76.55 184.88 79.10 182.20 81.22 179.15 C 83.06 173.25 82.98 167.03 84.06 161.00 C 87.22 153.30 92.35 146.31 99.39 141.72 C 97.43 141.64 95.49 141.61 93.53 141.57 C 89.38 138.44 84.17 136.90 80.58 132.99 C 80.61 129.17 80.64 125.36 80.44 121.56 C 78.10 123.46 75.89 125.54 73.89 127.79 C 68.79 127.85 63.22 128.45 58.83 125.28 C 57.29 123.65 56.17 121.68 54.94 119.83 C 54.62 115.80 52.85 112.10 50.87 108.65 C 50.62 103.21 50.60 97.32 53.40 92.50 C 56.72 89.84 60.17 87.15 64.07 85.39 C 69.70 84.77 75.25 86.31 80.82 86.83 C 75.96 80.07 69.03 74.12 60.39 73.41 C 60.13 72.25 59.87 71.09 59.60 69.93 C 59.67 70.82 59.80 72.59 59.87 73.47 C 59.22 73.60 57.92 73.85 57.26 73.98 C 56.00 75.18 54.66 76.30 53.19 77.24 C 53.74 77.07 54.82 76.71 55.36 76.53 C 52.88 79.65 49.02 81.86 47.92 85.92 C 46.97 88.78 44.74 90.96 43.72 93.79 C 43.50 94.28 43.06 95.24 42.85 95.73 C 43.49 101.96 38.10 106.81 38.52 113.01 C 38.66 119.02 38.44 125.01 38.12 131.01 C 37.40 139.51 43.59 146.36 45.12 154.41 C 46.14 158.16 44.80 162.58 47.58 165.76 C 47.62 167.01 47.66 168.26 47.69 169.51 L 49.67 169.66 C 49.08 170.89 48.46 172.12 47.80 173.32 C 49.71 177.27 52.38 180.82 54.14 184.83 C 54.29 188.26 53.27 191.61 53.03 195.02 C 51.86 194.93 50.69 194.83 49.52 194.74 C 49.87 188.82 47.88 183.25 45.90 177.80 C 44.50 170.20 41.42 162.93 36.66 156.81 C 36.83 153.71 36.28 150.70 35.10 147.84 C 34.72 144.22 33.83 140.67 33.45 137.05 C 33.40 126.70 33.49 116.35 33.43 106.00 C 33.40 102.29 33.12 98.49 34.22 94.89 C 36.11 97.50 35.60 100.77 35.56 103.78 C 36.97 102.76 38.38 101.75 39.82 100.78 C 38.04 98.87 36.45 96.68 35.88 94.09 C 35.40 89.29 36.12 84.43 35.43 79.63 C 34.91 74.99 33.01 70.64 32.46 65.99 C 30.74 61.42 29.45 56.69 27.77 52.11 C 27.10 50.00 25.17 48.16 25.48 45.85 C 30.24 43.10 35.16 46.62 40.02 47.06 C 45.20 47.54 48.86 51.77 53.65 53.36 C 57.30 54.46 60.06 57.12 63.12 59.24 C 68.47 58.06 72.00 53.38 76.48 50.55 C 80.02 49.62 83.49 48.42 86.79 46.83 C 90.62 44.83 95.09 45.78 99.16 44.69 C 109.55 42.62 120.90 39.27 131.12 43.76 C 133.29 43.84 136.94 41.98 137.70 45.14 C 136.91 45.26 135.32 45.50 134.53 45.62 C 134.96 46.06 135.82 46.95 136.25 47.40 C 138.71 45.86 139.63 42.77 142.03 41.14 C 144.91 39.02 147.58 36.64 149.87 33.90 C 151.61 33.11 153.33 32.30 155.04 31.47 M 151.95 35.98 C 148.35 40.72 142.76 43.60 139.69 48.77 C 146.85 52.43 150.31 60.06 155.01 66.14 C 157.70 65.92 156.30 62.73 156.69 60.97 C 157.36 51.08 160.39 41.50 163.60 32.18 C 159.43 32.57 155.83 34.68 151.95 35.98 M 106.12 45.06 C 109.40 45.99 112.84 45.60 116.19 45.43 C 116.29 44.90 116.50 43.83 116.61 43.30 C 113.09 43.77 109.52 44.01 106.12 45.06 M 118.36 43.57 C 118.21 46.56 121.34 45.26 123.00 45.62 C 124.63 45.27 127.51 46.53 127.99 44.25 C 124.85 43.41 121.58 43.38 118.36 43.57 M 119.43 47.85 C 118.98 48.72 118.69 49.65 118.34 50.56 C 119.33 50.86 120.29 51.26 121.32 51.41 C 122.27 50.65 124.37 49.17 123.02 47.95 C 121.83 47.76 120.62 47.78 119.43 47.85 M 125.45 48.34 C 125.11 49.27 124.77 50.21 124.45 51.15 C 126.11 50.05 127.76 48.90 129.39 47.74 C 128.07 47.89 126.75 48.12 125.45 48.34 M 30.06 47.58 C 33.87 52.34 38.67 57.33 38.95 63.76 C 39.66 64.76 40.19 65.87 40.64 67.01 C 41.89 68.53 42.55 70.38 42.83 72.32 C 44.74 68.67 49.40 70.88 52.64 70.38 L 52.44 69.45 L 53.74 69.61 L 53.19 68.32 C 54.60 68.46 56.01 68.61 57.42 68.77 C 57.88 65.93 59.64 63.67 61.80 61.89 C 58.82 59.37 55.76 56.76 51.99 55.52 C 51.51 55.51 50.57 55.50 50.10 55.49 C 46.81 52.96 43.37 50.20 39.14 49.56 C 36.04 49.27 33.06 48.32 30.06 47.58 M 89.51 49.18 C 94.86 49.93 100.54 48.24 105.62 50.53 C 109.27 51.98 113.18 50.59 116.91 50.22 C 116.85 50.04 116.71 49.68 116.64 49.50 C 116.20 49.63 115.32 49.87 114.88 50.00 C 114.75 49.47 114.47 48.41 114.33 47.88 C 107.89 47.79 101.45 47.81 95.02 47.78 C 93.05 47.60 91.18 48.15 89.51 49.18 M 81.64 51.70 C 80.05 52.77 78.35 53.72 77.01 55.12 C 72.55 57.42 68.79 60.77 65.44 64.46 C 63.98 66.27 61.72 67.45 61.06 69.81 C 67.26 72.11 73.60 74.56 80.32 74.52 C 81.20 75.66 82.10 76.79 82.91 77.99 C 81.71 80.06 78.87 79.49 76.90 79.90 C 81.42 84.61 86.02 89.35 91.21 93.27 C 92.18 94.10 93.27 94.76 94.50 95.13 C 94.56 97.27 94.56 99.41 94.58 101.56 C 99.31 99.33 103.83 96.05 109.16 95.58 C 108.70 95.34 107.77 94.86 107.30 94.62 C 107.33 92.92 107.35 91.23 107.37 89.54 C 105.79 89.53 104.22 89.51 102.64 89.48 C 103.34 88.64 104.06 87.81 104.79 87.01 C 104.25 85.57 103.65 84.15 102.85 82.84 C 102.47 81.60 102.10 80.36 101.73 79.12 C 102.92 74.38 104.08 69.62 106.22 65.20 C 107.78 62.30 107.31 58.97 107.50 55.81 C 108.44 56.47 109.36 57.15 110.28 57.84 C 112.72 57.41 112.95 54.72 113.79 52.87 C 109.80 52.99 105.85 52.47 102.04 51.32 C 95.24 50.99 88.43 51.30 81.64 51.70 M 113.23 58.68 C 113.61 58.79 114.36 59.02 114.73 59.14 C 114.53 59.81 114.12 61.17 113.91 61.84 C 112.90 63.54 112.57 65.48 112.60 67.45 C 114.78 65.82 115.11 63.02 115.96 60.62 C 115.54 60.07 115.11 59.52 114.69 58.97 C 117.48 57.81 116.35 54.65 116.43 52.36 C 114.68 54.05 114.29 56.57 113.23 58.68 M 119.02 53.52 C 119.69 54.04 119.69 54.04 119.02 53.52 M 111.14 58.65 C 110.08 60.45 108.92 62.31 109.23 64.51 C 111.23 63.16 111.42 60.83 111.14 58.65 M 34.16 61.77 C 35.08 65.84 35.39 70.12 37.24 73.91 C 37.40 75.41 37.58 76.91 37.97 78.36 C 38.82 74.84 37.85 71.35 36.85 67.99 C 36.92 65.55 35.52 63.64 34.16 61.77 M 115.32 65.99 C 114.39 66.49 113.51 68.67 115.01 68.99 C 116.93 69.24 117.64 65.02 115.32 65.99 M 128.47 70.86 C 125.56 73.21 123.55 76.64 120.05 78.25 C 117.47 82.57 114.15 86.88 114.51 92.22 C 115.68 93.23 116.85 94.23 117.99 95.27 C 118.84 95.94 119.71 96.60 120.56 97.26 C 124.21 97.75 127.21 100.11 130.60 101.38 C 131.35 102.76 132.09 104.14 132.79 105.55 C 138.74 106.89 144.74 107.78 150.86 107.33 C 153.39 105.72 155.95 103.31 155.85 100.06 C 156.55 94.38 151.70 89.77 152.29 84.04 C 151.49 82.59 150.72 81.14 149.90 79.71 C 149.78 81.18 149.71 82.66 149.68 84.14 C 148.69 84.82 147.71 85.53 146.74 86.24 C 145.55 86.23 144.37 86.20 143.19 86.17 C 141.20 84.84 138.89 84.30 136.53 84.20 C 136.52 81.29 136.51 78.37 136.51 75.45 C 137.01 75.45 138.01 75.45 138.51 75.44 C 138.51 77.96 138.48 80.48 138.51 83.00 C 140.11 83.24 141.73 83.50 143.21 84.21 C 144.63 84.27 146.06 84.31 147.49 84.32 C 147.60 82.23 147.60 80.15 147.59 78.07 C 144.29 75.80 140.66 73.99 137.68 71.28 C 135.16 68.84 131.40 70.01 128.47 70.86 M 116.47 75.44 C 112.35 80.04 108.96 85.82 109.42 92.23 C 111.26 93.39 113.04 94.64 114.86 95.84 C 111.07 89.44 114.57 81.90 119.03 76.88 C 119.98 76.19 120.95 75.51 121.91 74.84 C 123.66 73.26 125.47 71.67 126.68 69.61 C 122.54 69.89 119.31 72.71 116.47 75.44 M 43.03 72.45 C 44.33 75.59 45.66 78.73 47.19 81.77 C 49.81 78.70 51.25 74.74 54.61 72.26 C 50.74 72.02 46.89 72.69 43.03 72.45 M 40.45 73.38 C 40.20 76.16 40.44 78.95 40.18 81.72 C 39.67 81.95 38.63 82.40 38.11 82.63 C 38.24 86.22 38.29 89.82 37.90 93.40 L 39.09 93.52 C 39.85 91.74 40.73 89.99 42.24 88.73 C 41.80 83.58 43.82 77.89 40.45 73.38 M 104.12 81.91 C 105.02 83.08 106.19 84.00 107.31 84.95 C 107.42 82.47 107.43 79.98 107.37 77.49 C 106.12 78.83 104.63 80.08 104.12 81.91 M 43.22 85.51 C 43.79 85.21 44.93 84.63 45.50 84.34 C 44.95 83.16 44.38 81.98 43.79 80.83 C 43.56 82.38 43.37 83.94 43.22 85.51 M 65.13 87.23 C 65.64 87.64 66.67 88.47 67.18 88.88 C 63.16 90.63 59.09 92.90 56.79 96.79 C 55.98 100.01 55.30 103.28 54.92 106.59 C 57.95 105.98 61.66 106.48 63.81 103.78 C 65.45 102.80 64.17 101.04 63.91 99.68 C 61.34 99.78 58.83 99.28 56.63 97.90 C 59.24 97.56 61.87 97.62 64.49 97.59 C 65.86 99.46 66.96 101.55 66.63 103.96 C 65.19 105.06 63.88 106.32 62.42 107.38 C 59.83 107.98 57.23 108.51 54.59 108.84 C 54.58 109.32 54.56 110.27 54.55 110.75 C 55.19 110.60 56.46 110.30 57.10 110.15 C 57.28 112.23 57.37 114.32 57.43 116.41 C 58.70 118.00 59.91 119.64 60.97 121.38 C 60.79 121.95 60.42 123.08 60.24 123.65 C 61.29 121.21 63.35 122.40 64.94 123.36 C 67.76 123.41 70.58 123.39 73.40 123.49 C 77.44 120.43 78.73 115.46 81.46 111.42 C 82.64 106.94 87.29 104.82 90.84 102.39 C 90.67 101.29 90.52 100.19 90.36 99.09 C 88.59 99.37 87.69 97.46 88.81 96.34 C 88.46 96.45 87.76 96.69 87.42 96.81 L 88.66 95.16 C 88.29 95.32 87.56 95.65 87.19 95.81 C 86.50 94.76 85.88 93.67 85.24 92.60 C 83.80 92.01 82.35 91.42 80.93 90.77 C 79.66 90.56 78.41 90.32 77.16 90.05 C 74.60 89.49 72.14 88.60 69.68 87.73 C 68.15 88.99 66.60 87.99 65.13 87.23 M 55.19 95.45 C 55.70 96.23 55.70 96.23 55.19 95.45 M 54.48 98.18 C 53.25 98.43 52.42 101.13 54.00 101.35 C 55.17 101.01 56.25 98.34 54.48 98.18 M 103.88 100.07 C 98.97 101.65 95.38 106.05 90.17 106.80 C 88.57 107.92 86.80 108.91 85.55 110.45 C 84.39 114.25 84.19 118.26 83.24 122.12 C 83.25 125.79 82.06 130.08 84.82 133.09 C 88.75 134.71 92.07 137.44 95.84 139.34 C 102.57 139.38 109.32 139.45 116.05 139.33 C 121.22 137.48 125.51 134.01 129.93 130.87 C 130.49 128.59 131.56 126.42 131.58 124.04 C 131.74 117.44 131.64 110.45 128.58 104.44 C 126.74 102.34 123.83 101.55 121.57 99.97 C 121.46 100.37 121.25 101.19 121.14 101.60 C 119.89 100.40 118.82 98.55 116.96 98.34 C 112.53 98.24 107.81 97.59 103.88 100.07 M 35.57 136.81 C 35.76 138.56 34.65 140.88 36.52 142.08 C 36.60 143.76 36.66 145.45 36.74 147.14 C 38.46 149.94 38.59 153.30 38.60 156.49 C 40.18 158.77 41.82 161.02 43.60 163.16 C 43.51 160.06 42.87 157.02 41.93 154.08 C 39.26 148.54 38.01 142.46 35.57 136.81 M 102.73 142.56 C 104.21 143.74 105.56 145.06 106.82 146.47 C 109.01 148.51 112.10 148.98 114.86 149.83 C 114.83 147.09 114.82 144.36 114.83 141.62 C 110.77 141.62 106.66 141.36 102.73 142.56 M 116.92 141.82 C 116.82 142.48 116.61 143.78 116.51 144.44 C 117.25 144.47 118.75 144.54 119.49 144.57 C 120.29 145.24 121.09 145.92 121.89 146.60 C 123.72 146.17 125.24 145.10 126.69 143.96 C 126.68 144.58 126.67 145.81 126.66 146.43 C 123.68 149.00 120.05 146.44 116.77 146.01 C 116.74 147.76 116.70 149.51 116.66 151.26 C 115.55 151.30 114.45 151.34 113.35 151.38 C 112.60 150.73 111.86 150.07 111.12 149.41 C 110.56 149.69 109.43 150.23 108.87 150.50 C 108.98 152.62 108.85 154.78 107.39 156.45 C 104.74 156.52 102.06 156.41 99.67 155.11 C 99.45 157.85 96.57 158.38 94.77 159.79 C 93.14 159.64 91.51 159.45 89.88 159.25 C 89.28 164.24 87.87 169.07 86.90 174.00 C 84.62 177.35 83.68 181.43 81.79 185.02 C 80.90 185.68 80.02 186.35 79.13 187.02 C 81.12 187.43 83.09 187.96 85.05 188.49 C 88.38 185.94 94.15 182.87 97.15 187.44 C 98.47 187.96 99.79 188.46 101.14 188.93 C 101.37 187.68 101.60 186.42 101.83 185.18 C 103.71 183.59 105.20 181.52 107.39 180.32 C 110.03 179.08 113.00 178.88 115.88 178.85 C 117.06 180.16 118.23 181.65 120.18 181.70 C 120.82 180.49 121.46 179.29 122.13 178.10 C 122.51 176.90 122.47 175.49 123.16 174.42 C 126.94 171.97 133.18 170.40 136.06 174.90 C 137.38 172.60 138.75 170.34 139.93 167.97 C 141.26 167.71 142.58 167.43 143.90 167.14 C 141.44 164.67 138.29 163.05 135.82 160.59 C 133.22 161.58 130.68 162.72 128.16 163.87 C 127.46 164.91 126.92 166.09 125.99 166.96 C 124.42 167.48 122.71 167.13 121.09 167.18 C 117.12 164.08 113.25 168.11 110.99 171.21 C 110.72 173.75 108.96 175.89 106.33 176.13 C 108.95 171.90 110.74 166.77 115.65 164.64 C 117.11 164.68 118.56 164.73 120.01 164.81 C 121.58 165.53 123.30 165.71 125.00 165.90 C 125.64 164.83 126.28 163.76 126.89 162.68 C 130.46 160.98 135.34 157.83 138.90 161.17 C 141.26 162.80 144.21 164.12 145.23 167.05 C 146.53 167.59 147.82 168.16 149.12 168.71 C 149.24 167.40 149.38 166.09 149.54 164.79 C 152.04 164.70 154.55 164.66 157.06 164.66 C 159.23 166.29 161.51 167.78 163.80 169.25 C 164.45 166.90 164.44 164.46 164.42 162.04 C 164.09 161.51 163.43 160.46 163.10 159.93 C 160.52 157.71 158.83 154.74 156.72 152.14 C 154.07 149.40 150.45 147.86 146.87 146.74 L 146.65 148.19 C 148.45 148.45 150.15 149.16 151.39 150.53 C 148.09 150.08 144.69 149.56 141.70 148.00 C 136.78 147.11 132.07 145.17 127.73 142.72 C 124.16 142.40 120.47 140.64 116.92 141.82 M 131.80 143.38 C 134.15 144.57 136.96 144.53 139.11 146.17 C 141.19 146.61 143.32 146.85 145.45 146.90 C 141.37 144.37 136.43 143.93 131.80 143.38 M 96.97 147.49 C 96.18 148.90 95.86 150.52 95.17 151.99 L 94.43 149.98 C 94.03 150.30 93.21 150.93 92.80 151.25 C 94.47 152.56 96.46 151.92 98.20 151.14 C 98.71 152.13 99.19 153.15 99.65 154.17 C 101.86 154.32 104.18 155.28 106.36 154.45 C 107.13 152.98 107.17 151.28 107.44 149.68 C 106.59 149.27 105.75 148.87 104.91 148.46 C 104.63 146.40 103.83 144.37 101.49 144.14 C 100.01 145.30 98.43 146.32 96.97 147.49 M 91.76 152.44 C 90.92 154.55 90.17 156.71 89.93 158.99 C 91.69 158.79 93.49 158.62 95.07 157.76 C 95.91 157.27 97.60 156.30 98.45 155.82 C 96.17 154.79 93.80 153.91 91.76 152.44 M 176.76 153.98 C 176.37 156.02 175.82 158.03 175.11 159.98 C 175.11 161.31 175.12 162.64 175.14 163.97 C 175.89 163.35 176.64 162.74 177.39 162.13 C 177.40 159.47 177.45 156.82 177.55 154.16 C 177.36 154.12 176.96 154.02 176.76 153.98 M 161.20 155.23 C 161.83 155.74 161.83 155.74 161.20 155.23 M 151.72 165.63 C 151.58 167.43 151.63 169.33 150.53 170.88 C 150.47 171.84 150.37 173.76 150.31 174.72 C 154.00 174.72 157.87 175.23 161.29 173.51 C 162.00 172.21 162.73 170.92 163.49 169.64 C 160.36 170.08 158.14 167.50 155.98 165.69 C 154.56 165.67 153.14 165.65 151.72 165.63 M 136.61 176.57 C 134.49 177.52 133.61 175.07 132.77 173.68 C 129.84 173.28 126.84 173.37 124.96 175.98 C 124.83 177.88 123.79 179.35 122.37 180.56 C 125.84 182.19 129.56 180.43 133.14 180.21 C 136.62 180.00 138.65 176.91 141.56 175.48 C 143.80 174.87 146.17 174.95 148.48 174.69 C 148.48 173.72 148.49 171.78 148.50 170.80 C 147.65 170.04 146.81 169.26 145.99 168.47 C 144.61 168.56 143.23 168.66 141.85 168.75 C 140.08 171.33 138.74 174.26 136.61 176.57 M 102.99 188.01 C 102.54 188.67 101.64 189.98 101.19 190.64 C 108.07 191.29 111.27 184.30 116.82 181.86 C 111.47 178.01 105.14 182.88 102.99 188.01 M 121.47 183.74 C 122.43 184.88 123.76 185.35 125.23 185.49 C 125.39 184.98 125.71 183.96 125.88 183.45 C 124.40 183.53 122.93 183.62 121.47 183.74 M 111.84 189.54 C 114.93 188.77 117.97 187.82 120.91 186.59 C 120.76 185.97 120.45 184.72 120.29 184.10 C 116.90 184.79 113.72 186.54 111.84 189.54 M 86.61 189.35 C 88.62 190.56 90.76 191.58 92.99 192.30 C 95.32 193.34 97.21 191.19 99.06 190.16 C 98.14 189.28 97.11 188.57 95.96 188.02 C 94.50 187.11 92.93 186.43 91.18 186.45 C 89.70 187.48 88.16 188.41 86.61 189.35 Z" />
<path fill="#040304" opacity="1.00" d=" M 112.59 110.38 C 115.11 110.40 117.63 110.31 120.16 110.40 C 122.03 111.74 124.39 112.84 125.37 115.06 C 125.75 118.33 125.47 121.63 125.51 124.92 C 125.03 125.63 124.06 127.04 123.58 127.75 C 121.74 127.80 119.91 127.81 118.07 127.80 C 117.24 126.92 116.40 126.04 115.56 125.17 C 115.60 121.70 115.62 118.24 115.55 114.78 C 116.76 114.09 117.97 113.41 119.16 112.69 C 116.96 112.63 114.76 112.67 112.57 112.68 L 112.59 110.38 M 118.35 116.46 C 118.38 118.80 118.38 121.15 118.35 123.49 C 119.26 124.30 120.16 125.13 121.04 125.98 C 123.32 122.86 122.76 118.92 122.41 115.32 C 121.05 115.67 119.70 116.07 118.35 116.46 Z" />
<path fill="#040304" opacity="1.00" d=" M 89.78 122.91 C 90.96 119.47 91.84 115.83 93.85 112.77 C 94.64 112.70 96.20 112.56 96.99 112.49 C 95.66 115.37 94.57 118.34 93.24 121.22 C 95.40 122.30 97.55 123.37 99.72 124.43 C 99.67 126.82 99.83 129.23 99.52 131.62 C 97.02 133.98 93.31 131.22 90.55 130.31 C 90.51 127.83 90.84 125.24 89.78 122.91 Z" />
<path fill="#040304" opacity="1.00" d=" M 48.98 172.48 C 49.97 172.31 50.95 172.15 51.95 172.04 C 52.60 174.33 53.75 176.44 55.00 178.45 C 57.92 181.01 61.60 182.37 65.19 183.70 C 65.24 184.24 65.35 185.32 65.40 185.86 C 65.15 185.61 64.64 185.11 64.39 184.87 C 60.40 184.17 56.58 182.44 53.68 179.58 C 51.96 177.32 50.66 174.78 48.98 172.48 Z" />
</g>
<g id="#fdfdfdff">
<path fill="#fdfdfd" opacity="1.00" d=" M 151.95 35.98 C 155.83 34.68 159.43 32.57 163.60 32.18 C 160.39 41.50 157.36 51.08 156.69 60.97 C 156.30 62.73 157.70 65.92 155.01 66.14 C 150.31 60.06 146.85 52.43 139.69 48.77 C 142.76 43.60 148.35 40.72 151.95 35.98 Z" />
<path fill="#fdfdfd" opacity="1.00" d=" M 106.12 45.06 C 109.52 44.01 113.09 43.77 116.61 43.30 C 116.50 43.83 116.29 44.90 116.19 45.43 C 112.84 45.60 109.40 45.99 106.12 45.06 Z" />
<path fill="#fdfdfd" opacity="1.00" d=" M 118.36 43.57 C 121.58 43.38 124.85 43.41 127.99 44.25 C 127.51 46.53 124.63 45.27 123.00 45.62 C 121.34 45.26 118.21 46.56 118.36 43.57 Z" />
<path fill="#fdfdfd" opacity="1.00" d=" M 119.43 47.85 C 120.62 47.78 121.83 47.76 123.02 47.95 C 124.37 49.17 122.27 50.65 121.32 51.41 C 120.29 51.26 119.33 50.86 118.34 50.56 C 118.69 49.65 118.98 48.72 119.43 47.85 Z" />
<path fill="#fdfdfd" opacity="1.00" d=" M 125.45 48.34 C 126.75 48.12 128.07 47.89 129.39 47.74 C 127.76 48.90 126.11 50.05 124.45 51.15 C 124.77 50.21 125.11 49.27 125.45 48.34 Z" />
<path fill="#fdfdfd" opacity="1.00" d=" M 30.06 47.58 C 33.06 48.32 36.04 49.27 39.14 49.56 C 43.37 50.20 46.81 52.96 50.10 55.49 C 50.57 55.50 51.51 55.51 51.99 55.52 C 55.76 56.76 58.82 59.37 61.80 61.89 C 59.64 63.67 57.88 65.93 57.42 68.77 C 56.01 68.61 54.60 68.46 53.19 68.32 L 53.74 69.61 L 52.44 69.45 L 52.64 70.38 C 49.40 70.88 44.74 68.67 42.83 72.32 C 42.55 70.38 41.89 68.53 40.64 67.01 C 40.19 65.87 39.66 64.76 38.95 63.76 C 38.67 57.33 33.87 52.34 30.06 47.58 Z" />
<path fill="#fdfdfd" opacity="1.00" d=" M 89.51 49.18 C 91.18 48.15 93.05 47.60 95.02 47.78 C 101.45 47.81 107.89 47.79 114.33 47.88 C 114.47 48.41 114.75 49.47 114.88 50.00 C 115.32 49.87 116.20 49.63 116.64 49.50 C 116.71 49.68 116.85 50.04 116.91 50.22 C 113.18 50.59 109.27 51.98 105.62 50.53 C 100.54 48.24 94.86 49.93 89.51 49.18 Z" />
<path fill="#fdfdfd" opacity="1.00" d=" M 125.72 52.39 C 127.77 51.06 129.72 49.53 131.96 48.50 C 134.94 48.30 136.35 51.07 136.85 53.57 C 137.91 53.07 138.98 52.57 140.05 52.08 C 142.19 54.08 144.25 56.19 145.86 58.64 C 147.18 61.15 149.37 63.11 150.37 65.79 C 151.24 68.02 151.65 70.40 152.32 72.69 C 152.36 71.59 152.44 69.38 152.48 68.27 C 153.23 68.93 154.72 70.26 155.47 70.92 C 156.70 72.74 157.89 74.57 159.15 76.36 C 159.13 77.37 159.09 79.39 159.06 80.40 C 157.51 77.88 156.09 75.29 154.93 72.57 C 154.30 72.60 153.04 72.67 152.42 72.70 C 155.56 79.32 160.78 84.68 163.96 91.30 C 164.27 93.94 165.46 96.33 167.17 98.35 C 167.20 98.97 167.27 100.20 167.30 100.82 C 167.49 101.27 167.88 102.19 168.07 102.65 C 168.46 105.53 170.15 107.98 170.82 110.78 C 172.35 119.55 171.61 128.90 175.29 137.18 C 175.84 140.42 175.54 143.76 175.57 147.05 C 175.63 151.90 172.51 156.15 172.64 161.02 C 172.68 169.33 169.80 177.28 166.63 184.84 C 166.62 185.44 166.60 186.63 166.60 187.22 C 165.79 188.23 165.02 189.26 164.24 190.28 C 164.85 190.36 166.08 190.52 166.70 190.59 C 166.70 192.06 166.71 193.53 166.72 195.00 C 146.20 194.99 125.67 194.92 105.15 195.03 L 105.51 194.55 C 105.84 194.08 106.51 193.14 106.85 192.68 C 113.88 190.86 120.80 188.49 127.23 185.08 C 131.95 182.28 138.30 183.11 141.98 178.46 C 148.38 176.48 155.22 177.90 161.82 177.47 C 163.53 175.06 165.89 172.86 166.48 169.86 C 166.84 164.40 166.98 158.67 164.51 153.64 C 157.51 147.19 148.25 143.95 139.10 141.83 C 134.35 141.01 130.10 138.13 125.14 138.46 C 127.38 136.59 129.72 134.82 131.66 132.63 C 133.45 130.54 133.66 127.63 133.88 125.01 C 133.93 119.77 134.07 114.52 133.49 109.30 C 140.02 110.20 146.64 109.73 153.21 109.66 C 155.87 107.23 158.43 104.47 159.64 101.01 C 161.26 90.98 153.93 83.04 148.95 75.19 C 145.94 73.09 143.37 70.40 141.06 67.57 C 139.77 66.93 138.48 66.29 137.21 65.63 C 134.03 65.62 130.85 65.62 127.67 65.61 C 127.06 66.33 126.45 67.05 125.84 67.77 C 125.03 67.71 123.42 67.60 122.62 67.54 C 120.15 68.91 117.81 70.48 115.33 71.83 C 116.41 70.42 117.58 69.08 118.79 67.79 C 118.79 64.81 118.78 61.83 118.80 58.85 C 119.74 57.43 120.65 55.98 121.55 54.53 C 124.82 54.09 128.09 54.61 131.36 54.74 C 131.32 54.25 131.25 53.27 131.22 52.79 C 129.38 52.70 127.54 52.60 125.72 52.39 Z" />
<path fill="#fdfdfd" opacity="1.00" d=" M 81.64 51.70 C 88.43 51.30 95.24 50.99 102.04 51.32 C 105.85 52.47 109.80 52.99 113.79 52.87 C 112.95 54.72 112.72 57.41 110.28 57.84 C 109.36 57.15 108.44 56.47 107.50 55.81 C 107.31 58.97 107.78 62.30 106.22 65.20 C 104.08 69.62 102.92 74.38 101.73 79.12 C 102.10 80.36 102.47 81.60 102.85 82.84 C 103.65 84.15 104.25 85.57 104.79 87.01 C 104.06 87.81 103.34 88.64 102.64 89.48 C 104.22 89.51 105.79 89.53 107.37 89.54 C 107.35 91.23 107.33 92.92 107.30 94.62 C 107.77 94.86 108.70 95.34 109.16 95.58 C 103.83 96.05 99.31 99.33 94.58 101.56 C 94.56 99.41 94.56 97.27 94.50 95.13 C 93.27 94.76 92.18 94.10 91.21 93.27 C 86.02 89.35 81.42 84.61 76.90 79.90 C 78.87 79.49 81.71 80.06 82.91 77.99 C 82.10 76.79 81.20 75.66 80.32 74.52 C 73.60 74.56 67.26 72.11 61.06 69.81 C 61.72 67.45 63.98 66.27 65.44 64.46 C 68.79 60.77 72.55 57.42 77.01 55.12 C 78.35 53.72 80.05 52.77 81.64 51.70 Z" />
<path fill="#fdfdfd" opacity="1.00" d=" M 113.23 58.68 C 114.29 56.57 114.68 54.05 116.43 52.36 C 116.35 54.65 117.48 57.81 114.69 58.97 C 115.11 59.52 115.54 60.07 115.96 60.62 C 115.11 63.02 114.78 65.82 112.60 67.45 C 112.57 65.48 112.90 63.54 113.91 61.84 C 114.12 61.17 114.53 59.81 114.73 59.14 C 114.36 59.02 113.61 58.79 113.23 58.68 Z" />
<path fill="#fdfdfd" opacity="1.00" d=" M 119.02 53.52 C 119.69 54.04 119.69 54.04 119.02 53.52 Z" />
<path fill="#fdfdfd" opacity="1.00" d=" M 111.14 58.65 C 111.42 60.83 111.23 63.16 109.23 64.51 C 108.92 62.31 110.08 60.45 111.14 58.65 Z" />
<path fill="#fdfdfd" opacity="1.00" d=" M 34.16 61.77 C 35.52 63.64 36.92 65.55 36.85 67.99 C 37.85 71.35 38.82 74.84 37.97 78.36 C 37.58 76.91 37.40 75.41 37.24 73.91 C 35.39 70.12 35.08 65.84 34.16 61.77 Z" />
<path fill="#fdfdfd" opacity="1.00" d=" M 115.32 65.99 C 117.64 65.02 116.93 69.24 115.01 68.99 C 113.51 68.67 114.39 66.49 115.32 65.99 Z" />
<path fill="#fdfdfd" opacity="1.00" d=" M 128.47 70.86 C 131.40 70.01 135.16 68.84 137.68 71.28 C 140.66 73.99 144.29 75.80 147.59 78.07 C 147.60 80.15 147.60 82.23 147.49 84.32 C 146.06 84.31 144.63 84.27 143.21 84.21 C 141.73 83.50 140.11 83.24 138.51 83.00 C 138.48 80.48 138.51 77.96 138.51 75.44 C 138.01 75.45 137.01 75.45 136.51 75.45 C 136.51 78.37 136.52 81.29 136.53 84.20 C 138.89 84.30 141.20 84.84 143.19 86.17 C 144.37 86.20 145.55 86.23 146.74 86.24 C 147.71 85.53 148.69 84.82 149.68 84.14 C 149.71 82.66 149.78 81.18 149.90 79.71 C 150.72 81.14 151.49 82.59 152.29 84.04 C 151.70 89.77 156.55 94.38 155.85 100.06 C 155.95 103.31 153.39 105.72 150.86 107.33 C 144.74 107.78 138.74 106.89 132.79 105.55 C 132.09 104.14 131.35 102.76 130.60 101.38 C 127.21 100.11 124.21 97.75 120.56 97.26 C 119.71 96.60 118.84 95.94 117.99 95.27 C 116.85 94.23 115.68 93.23 114.51 92.22 C 114.15 86.88 117.47 82.57 120.05 78.25 C 123.55 76.64 125.56 73.21 128.47 70.86 Z" />
<path fill="#fdfdfd" opacity="1.00" d=" M 59.60 69.93 C 59.87 71.09 60.13 72.25 60.39 73.41 C 69.03 74.12 75.96 80.07 80.82 86.83 C 75.25 86.31 69.70 84.77 64.07 85.39 C 60.17 87.15 56.72 89.84 53.40 92.50 C 50.60 97.32 50.62 103.21 50.87 108.65 C 52.85 112.10 54.62 115.80 54.94 119.83 C 56.17 121.68 57.29 123.65 58.83 125.28 C 63.22 128.45 68.79 127.85 73.89 127.79 C 75.89 125.54 78.10 123.46 80.44 121.56 C 80.64 125.36 80.61 129.17 80.58 132.99 C 84.17 136.90 89.38 138.44 93.53 141.57 C 95.49 141.61 97.43 141.64 99.39 141.72 C 92.35 146.31 87.22 153.30 84.06 161.00 C 82.98 167.03 83.06 173.25 81.22 179.15 C 79.10 182.20 76.55 184.88 73.78 187.35 C 72.76 187.35 71.73 187.35 70.70 187.36 C 70.71 187.94 70.71 189.10 70.72 189.69 C 72.14 189.69 73.55 189.70 74.98 189.72 C 77.53 191.44 80.47 192.40 83.51 192.81 L 83.40 193.44 C 86.10 193.32 88.85 193.34 91.30 194.66 C 78.58 195.39 65.78 194.75 53.03 195.02 C 53.27 191.61 54.29 188.26 54.14 184.83 C 52.38 180.82 49.71 177.27 47.80 173.32 C 48.46 172.12 49.08 170.89 49.67 169.66 L 47.69 169.51 C 47.66 168.26 47.62 167.01 47.58 165.76 C 44.80 162.58 46.14 158.16 45.12 154.41 C 43.59 146.36 37.40 139.51 38.12 131.01 C 38.44 125.01 38.66 119.02 38.52 113.01 C 38.10 106.81 43.49 101.96 42.85 95.73 C 43.06 95.24 43.50 94.28 43.72 93.79 C 44.74 90.96 46.97 88.78 47.92 85.92 C 49.02 81.86 52.88 79.65 55.36 76.53 C 54.82 76.71 53.74 77.07 53.19 77.24 C 54.66 76.30 56.00 75.18 57.26 73.98 C 57.92 73.85 59.22 73.60 59.87 73.47 C 59.80 72.59 59.67 70.82 59.60 69.93 M 48.98 172.48 C 50.66 174.78 51.96 177.32 53.68 179.58 C 56.58 182.44 60.40 184.17 64.39 184.87 C 64.64 185.11 65.15 185.61 65.40 185.86 C 65.35 185.32 65.24 184.24 65.19 183.70 C 61.60 182.37 57.92 181.01 55.00 178.45 C 53.75 176.44 52.60 174.33 51.95 172.04 C 50.95 172.15 49.97 172.31 48.98 172.48 Z" />
<path fill="#fdfdfd" opacity="1.00" d=" M 116.47 75.44 C 119.31 72.71 122.54 69.89 126.68 69.61 C 125.47 71.67 123.66 73.26 121.91 74.84 C 120.95 75.51 119.98 76.19 119.03 76.88 C 114.57 81.90 111.07 89.44 114.86 95.84 C 113.04 94.64 111.26 93.39 109.42 92.23 C 108.96 85.82 112.35 80.04 116.47 75.44 Z" />
<path fill="#fdfdfd" opacity="1.00" d=" M 43.03 72.45 C 46.89 72.69 50.74 72.02 54.61 72.26 C 51.25 74.74 49.81 78.70 47.19 81.77 C 45.66 78.73 44.33 75.59 43.03 72.45 Z" />
<path fill="#fdfdfd" opacity="1.00" d=" M 40.45 73.38 C 43.82 77.89 41.80 83.58 42.24 88.73 C 40.73 89.99 39.85 91.74 39.09 93.52 L 37.90 93.40 C 38.29 89.82 38.24 86.22 38.11 82.63 C 38.63 82.40 39.67 81.95 40.18 81.72 C 40.44 78.95 40.20 76.16 40.45 73.38 Z" />
<path fill="#fdfdfd" opacity="1.00" d=" M 104.12 81.91 C 104.63 80.08 106.12 78.83 107.37 77.49 C 107.43 79.98 107.42 82.47 107.31 84.95 C 106.19 84.00 105.02 83.08 104.12 81.91 Z" />
<path fill="#fdfdfd" opacity="1.00" d=" M 43.22 85.51 C 43.37 83.94 43.56 82.38 43.79 80.83 C 44.38 81.98 44.95 83.16 45.50 84.34 C 44.93 84.63 43.79 85.21 43.22 85.51 Z" />
<path fill="#fdfdfd" opacity="1.00" d=" M 65.13 87.23 C 66.60 87.99 68.15 88.99 69.68 87.73 C 72.14 88.60 74.60 89.49 77.16 90.05 C 78.41 90.32 79.66 90.56 80.93 90.77 C 82.35 91.42 83.80 92.01 85.24 92.60 C 85.88 93.67 86.50 94.76 87.19 95.81 C 87.56 95.65 88.29 95.32 88.66 95.16 L 87.42 96.81 C 87.76 96.69 88.46 96.45 88.81 96.34 C 87.69 97.46 88.59 99.37 90.36 99.09 C 90.52 100.19 90.67 101.29 90.84 102.39 C 87.29 104.82 82.64 106.94 81.46 111.42 C 78.73 115.46 77.44 120.43 73.40 123.49 C 70.58 123.39 67.76 123.41 64.94 123.36 C 63.35 122.40 61.29 121.21 60.24 123.65 C 60.42 123.08 60.79 121.95 60.97 121.38 C 59.91 119.64 58.70 118.00 57.43 116.41 C 57.37 114.32 57.28 112.23 57.10 110.15 C 56.46 110.30 55.19 110.60 54.55 110.75 C 54.56 110.27 54.58 109.32 54.59 108.84 C 57.23 108.51 59.83 107.98 62.42 107.38 C 63.88 106.32 65.19 105.06 66.63 103.96 C 66.96 101.55 65.86 99.46 64.49 97.59 C 61.87 97.62 59.24 97.56 56.63 97.90 C 58.83 99.28 61.34 99.78 63.91 99.68 C 64.17 101.04 65.45 102.80 63.81 103.78 C 61.66 106.48 57.95 105.98 54.92 106.59 C 55.30 103.28 55.98 100.01 56.79 96.79 C 59.09 92.90 63.16 90.63 67.18 88.88 C 66.67 88.47 65.64 87.64 65.13 87.23 Z" />
<path fill="#fdfdfd" opacity="1.00" d=" M 55.19 95.45 C 55.70 96.23 55.70 96.23 55.19 95.45 Z" />
<path fill="#fdfdfd" opacity="1.00" d=" M 54.48 98.18 C 56.25 98.34 55.17 101.01 54.00 101.35 C 52.42 101.13 53.25 98.43 54.48 98.18 Z" />
<path fill="#fdfdfd" opacity="1.00" d=" M 103.88 100.07 C 107.81 97.59 112.53 98.24 116.96 98.34 C 118.82 98.55 119.89 100.40 121.14 101.60 C 121.25 101.19 121.46 100.37 121.57 99.97 C 123.83 101.55 126.74 102.34 128.58 104.44 C 131.64 110.45 131.74 117.44 131.58 124.04 C 131.56 126.42 130.49 128.59 129.93 130.87 C 125.51 134.01 121.22 137.48 116.05 139.33 C 109.32 139.45 102.57 139.38 95.84 139.34 C 92.07 137.44 88.75 134.71 84.82 133.09 C 82.06 130.08 83.25 125.79 83.24 122.12 C 84.19 118.26 84.39 114.25 85.55 110.45 C 86.80 108.91 88.57 107.92 90.17 106.80 C 95.38 106.05 98.97 101.65 103.88 100.07 M 112.59 110.38 L 112.57 112.68 C 114.76 112.67 116.96 112.63 119.16 112.69 C 117.97 113.41 116.76 114.09 115.55 114.78 C 115.62 118.24 115.60 121.70 115.56 125.17 C 116.40 126.04 117.24 126.92 118.07 127.80 C 119.91 127.81 121.74 127.80 123.58 127.75 C 124.06 127.04 125.03 125.63 125.51 124.92 C 125.47 121.63 125.75 118.33 125.37 115.06 C 124.39 112.84 122.03 111.74 120.16 110.40 C 117.63 110.31 115.11 110.40 112.59 110.38 M 89.78 122.91 C 90.84 125.24 90.51 127.83 90.55 130.31 C 93.31 131.22 97.02 133.98 99.52 131.62 C 99.83 129.23 99.67 126.82 99.72 124.43 C 97.55 123.37 95.40 122.30 93.24 121.22 C 94.57 118.34 95.66 115.37 96.99 112.49 C 96.20 112.56 94.64 112.70 93.85 112.77 C 91.84 115.83 90.96 119.47 89.78 122.91 Z" />
<path fill="#fdfdfd" opacity="1.00" d=" M 171.01 102.40 C 171.32 102.27 171.95 102.00 172.27 101.87 C 173.24 104.16 174.18 106.47 175.16 108.76 C 175.56 112.09 175.73 115.46 175.31 118.80 C 173.82 113.86 172.99 108.74 172.44 103.62 C 172.08 103.32 171.36 102.71 171.01 102.40 Z" />
<path fill="#fdfdfd" opacity="1.00" d=" M 118.35 116.46 C 119.70 116.07 121.05 115.67 122.41 115.32 C 122.76 118.92 123.32 122.86 121.04 125.98 C 120.16 125.13 119.26 124.30 118.35 123.49 C 118.38 121.15 118.38 118.80 118.35 116.46 Z" />
<path fill="#fdfdfd" opacity="1.00" d=" M 35.57 136.81 C 38.01 142.46 39.26 148.54 41.93 154.08 C 42.87 157.02 43.51 160.06 43.60 163.16 C 41.82 161.02 40.18 158.77 38.60 156.49 C 38.59 153.30 38.46 149.94 36.74 147.14 C 36.66 145.45 36.60 143.76 36.52 142.08 C 34.65 140.88 35.76 138.56 35.57 136.81 Z" />
<path fill="#fdfdfd" opacity="1.00" d=" M 102.73 142.56 C 106.66 141.36 110.77 141.62 114.83 141.62 C 114.82 144.36 114.83 147.09 114.86 149.83 C 112.10 148.98 109.01 148.51 106.82 146.47 C 105.56 145.06 104.21 143.74 102.73 142.56 Z" />
<path fill="#fdfdfd" opacity="1.00" d=" M 116.92 141.82 C 120.47 140.64 124.16 142.40 127.73 142.72 C 132.07 145.17 136.78 147.11 141.70 148.00 C 144.69 149.56 148.09 150.08 151.39 150.53 C 150.15 149.16 148.45 148.45 146.65 148.19 L 146.87 146.74 C 150.45 147.86 154.07 149.40 156.72 152.14 C 158.83 154.74 160.52 157.71 163.10 159.93 C 163.43 160.46 164.09 161.51 164.42 162.04 C 164.44 164.46 164.45 166.90 163.80 169.25 C 161.51 167.78 159.23 166.29 157.06 164.66 C 154.55 164.66 152.04 164.70 149.54 164.79 C 149.38 166.09 149.24 167.40 149.12 168.71 C 147.82 168.16 146.53 167.59 145.23 167.05 C 144.21 164.12 141.26 162.80 138.90 161.17 C 135.34 157.83 130.46 160.98 126.89 162.68 C 126.28 163.76 125.64 164.83 125.00 165.90 C 123.30 165.71 121.58 165.53 120.01 164.81 C 118.56 164.73 117.11 164.68 115.65 164.64 C 110.74 166.77 108.95 171.90 106.33 176.13 C 108.96 175.89 110.72 173.75 110.99 171.21 C 113.25 168.11 117.12 164.08 121.09 167.18 C 122.71 167.13 124.42 167.48 125.99 166.96 C 126.92 166.09 127.46 164.91 128.16 163.87 C 130.68 162.72 133.22 161.58 135.82 160.59 C 138.29 163.05 141.44 164.67 143.90 167.14 C 142.58 167.43 141.26 167.71 139.93 167.97 C 138.75 170.34 137.38 172.60 136.06 174.90 C 133.18 170.40 126.94 171.97 123.16 174.42 C 122.47 175.49 122.51 176.90 122.13 178.10 C 121.46 179.29 120.82 180.49 120.18 181.70 C 118.23 181.65 117.06 180.16 115.88 178.85 C 113.00 178.88 110.03 179.08 107.39 180.32 C 105.20 181.52 103.71 183.59 101.83 185.18 C 101.60 186.42 101.37 187.68 101.14 188.93 C 99.79 188.46 98.47 187.96 97.15 187.44 C 94.15 182.87 88.38 185.94 85.05 188.49 C 83.09 187.96 81.12 187.43 79.13 187.02 C 80.02 186.35 80.90 185.68 81.79 185.02 C 83.68 181.43 84.62 177.35 86.90 174.00 C 87.87 169.07 89.28 164.24 89.88 159.25 C 91.51 159.45 93.14 159.64 94.77 159.79 C 96.57 158.38 99.45 157.85 99.67 155.11 C 102.06 156.41 104.74 156.52 107.39 156.45 C 108.85 154.78 108.98 152.62 108.87 150.50 C 109.43 150.23 110.56 149.69 111.12 149.41 C 111.86 150.07 112.60 150.73 113.35 151.38 C 114.45 151.34 115.55 151.30 116.66 151.26 C 116.70 149.51 116.74 147.76 116.77 146.01 C 120.05 146.44 123.68 149.00 126.66 146.43 C 126.67 145.81 126.68 144.58 126.69 143.96 C 125.24 145.10 123.72 146.17 121.89 146.60 C 121.09 145.92 120.29 145.24 119.49 144.57 C 118.75 144.54 117.25 144.47 116.51 144.44 C 116.61 143.78 116.82 142.48 116.92 141.82 Z" />
<path fill="#fdfdfd" opacity="1.00" d=" M 131.80 143.38 C 136.43 143.93 141.37 144.37 145.45 146.90 C 143.32 146.85 141.19 146.61 139.11 146.17 C 136.96 144.53 134.15 144.57 131.80 143.38 Z" />
<path fill="#fdfdfd" opacity="1.00" d=" M 96.97 147.49 C 98.43 146.32 100.01 145.30 101.49 144.14 C 103.83 144.37 104.63 146.40 104.91 148.46 C 105.75 148.87 106.59 149.27 107.44 149.68 C 107.17 151.28 107.13 152.98 106.36 154.45 C 104.18 155.28 101.86 154.32 99.65 154.17 C 99.19 153.15 98.71 152.13 98.20 151.14 C 96.46 151.92 94.47 152.56 92.80 151.25 C 93.21 150.93 94.03 150.30 94.43 149.98 L 95.17 151.99 C 95.86 150.52 96.18 148.90 96.97 147.49 Z" />
<path fill="#fdfdfd" opacity="1.00" d=" M 91.76 152.44 C 93.80 153.91 96.17 154.79 98.45 155.82 C 97.60 156.30 95.91 157.27 95.07 157.76 C 93.49 158.62 91.69 158.79 89.93 158.99 C 90.17 156.71 90.92 154.55 91.76 152.44 Z" />
<path fill="#fdfdfd" opacity="1.00" d=" M 176.76 153.98 C 176.96 154.02 177.36 154.12 177.55 154.16 C 177.45 156.82 177.40 159.47 177.39 162.13 C 176.64 162.74 175.89 163.35 175.14 163.97 C 175.12 162.64 175.11 161.31 175.11 159.98 C 175.82 158.03 176.37 156.02 176.76 153.98 Z" />
<path fill="#fdfdfd" opacity="1.00" d=" M 161.20 155.23 C 161.83 155.74 161.83 155.74 161.20 155.23 Z" />
<path fill="#fdfdfd" opacity="1.00" d=" M 151.72 165.63 C 153.14 165.65 154.56 165.67 155.98 165.69 C 158.14 167.50 160.36 170.08 163.49 169.64 C 162.73 170.92 162.00 172.21 161.29 173.51 C 157.87 175.23 154.00 174.72 150.31 174.72 C 150.37 173.76 150.47 171.84 150.53 170.88 C 151.63 169.33 151.58 167.43 151.72 165.63 Z" />
<path fill="#fdfdfd" opacity="1.00" d=" M 136.61 176.57 C 138.74 174.26 140.08 171.33 141.85 168.75 C 143.23 168.66 144.61 168.56 145.99 168.47 C 146.81 169.26 147.65 170.04 148.50 170.80 C 148.49 171.78 148.48 173.72 148.48 174.69 C 146.17 174.95 143.80 174.87 141.56 175.48 C 138.65 176.91 136.62 180.00 133.14 180.21 C 129.56 180.43 125.84 182.19 122.37 180.56 C 123.79 179.35 124.83 177.88 124.96 175.98 C 126.84 173.37 129.84 173.28 132.77 173.68 C 133.61 175.07 134.49 177.52 136.61 176.57 Z" />
<path fill="#fdfdfd" opacity="1.00" d=" M 102.99 188.01 C 105.14 182.88 111.47 178.01 116.82 181.86 C 111.27 184.30 108.07 191.29 101.19 190.64 C 101.64 189.98 102.54 188.67 102.99 188.01 Z" />
<path fill="#fdfdfd" opacity="1.00" d=" M 121.47 183.74 C 122.93 183.62 124.40 183.53 125.88 183.45 C 125.71 183.96 125.39 184.98 125.23 185.49 C 123.76 185.35 122.43 184.88 121.47 183.74 Z" />
<path fill="#fdfdfd" opacity="1.00" d=" M 111.84 189.54 C 113.72 186.54 116.90 184.79 120.29 184.10 C 120.45 184.72 120.76 185.97 120.91 186.59 C 117.97 187.82 114.93 188.77 111.84 189.54 Z" />
<path fill="#fdfdfd" opacity="1.00" d=" M 86.61 189.35 C 88.16 188.41 89.70 187.48 91.18 186.45 C 92.93 186.43 94.50 187.11 95.96 188.02 C 97.11 188.57 98.14 189.28 99.06 190.16 C 97.21 191.19 95.32 193.34 92.99 192.30 C 90.76 191.58 88.62 190.56 86.61 189.35 Z" />
</g>
</svg>
