<?xml version="1.0" encoding="UTF-8" ?>
<!DOCTYPE svg PUBLIC "-//W3C//DTD SVG 1.1//EN" "http://www.w3.org/Graphics/SVG/1.1/DTD/svg11.dtd">
<svg width="210pt" height="220pt" viewBox="0 0 210 220" version="1.1" xmlns="http://www.w3.org/2000/svg">
<g id="#020202fe">
<path fill="#020202" opacity="1.00" d=" M 96.06 9.30 C 100.36 8.21 104.76 8.90 109.06 9.61 C 117.76 9.68 126.43 11.54 134.48 14.80 C 147.54 20.50 161.34 26.12 171.06 36.98 C 177.41 43.72 182.70 51.41 187.98 59.00 C 190.11 62.15 192.25 65.43 192.93 69.24 C 195.31 81.78 198.45 94.21 199.64 106.94 C 200.81 112.94 200.21 119.05 199.30 125.03 C 198.03 137.82 191.63 150.36 180.84 157.64 C 176.58 160.55 172.35 163.77 167.37 165.31 C 160.58 166.11 153.68 165.12 146.87 165.80 C 142.10 167.44 143.45 173.15 143.27 177.05 C 143.04 180.72 144.22 184.22 145.83 187.46 C 144.52 187.58 143.21 187.71 141.91 187.89 C 141.74 188.53 141.39 189.83 141.21 190.48 C 140.48 187.62 139.47 184.83 138.70 181.98 C 137.83 177.28 138.76 172.48 138.28 167.75 C 137.62 166.63 136.42 165.83 135.12 165.71 C 129.43 165.38 123.70 165.45 118.08 166.48 C 105.25 165.19 97.31 153.62 85.83 149.18 C 82.13 147.88 81.26 143.69 79.26 140.78 C 73.23 131.96 65.79 123.78 62.24 113.53 C 60.57 108.18 59.27 102.61 59.55 96.97 C 59.70 87.97 59.34 78.94 59.71 69.95 C 61.18 64.56 60.03 58.94 61.27 53.53 C 61.82 47.15 62.79 40.72 65.24 34.76 C 68.15 27.87 73.20 22.04 79.40 17.89 C 81.10 16.97 82.92 16.33 84.77 15.79 C 81.30 24.94 70.31 28.59 67.61 38.15 C 64.62 50.19 66.30 62.76 64.68 74.98 C 64.11 84.35 62.78 93.77 63.98 103.14 C 65.28 113.08 70.57 121.88 76.09 130.03 C 80.71 136.55 84.75 144.03 92.00 148.03 C 100.05 152.62 107.71 157.93 116.01 162.04 C 131.73 159.74 147.52 165.35 163.15 162.19 C 169.44 160.50 174.88 156.73 180.43 153.46 C 189.61 148.08 192.95 136.98 194.44 127.09 C 196.78 113.12 194.94 98.98 193.16 85.08 C 193.07 85.68 192.97 86.28 192.88 86.88 C 192.30 80.95 190.58 75.20 188.78 69.54 C 185.65 60.14 178.36 53.12 172.51 45.41 C 168.14 39.53 162.99 34.13 156.80 30.17 C 152.08 27.01 146.86 24.77 141.80 22.24 C 137.63 20.17 133.94 17.02 129.33 15.89 C 123.32 14.37 117.16 13.39 110.95 13.27 C 100.45 12.05 89.77 12.94 79.52 15.41 L 78.55 15.57 C 78.51 14.26 78.21 12.92 78.53 11.63 C 83.72 8.12 90.31 10.76 96.06 9.30 Z" />
<path fill="#020202" opacity="1.00" d=" M 127.70 55.08 C 128.01 52.02 130.01 49.70 132.79 48.55 C 135.92 48.44 139.34 49.09 141.56 51.48 C 142.22 53.88 141.38 56.36 140.83 58.69 C 136.78 58.77 132.70 59.08 128.69 58.38 C 128.36 57.28 128.04 56.18 127.70 55.08 M 132.28 51.35 C 131.73 54.50 134.85 55.26 137.33 54.56 C 137.38 54.07 137.46 53.10 137.50 52.62 C 135.89 51.74 134.13 51.25 132.28 51.35 Z" />
<path fill="#020202" opacity="1.00" d=" M 90.78 56.01 C 93.84 53.71 97.90 55.14 100.29 57.69 C 100.54 60.24 100.36 62.81 100.43 65.37 C 96.70 67.93 91.81 67.89 87.74 66.20 C 87.13 62.61 87.05 57.96 90.78 56.01 M 92.30 59.57 C 92.21 60.87 92.26 62.17 92.41 63.46 C 93.89 63.18 95.30 62.66 96.62 61.94 C 96.11 61.26 95.59 60.58 95.08 59.90 C 94.15 59.79 93.23 59.68 92.30 59.57 Z" />
<path fill="#020202" opacity="1.00" d=" M 112.66 113.73 C 119.69 112.14 126.93 112.44 134.08 112.85 C 142.36 113.72 150.69 114.67 159.05 114.61 C 158.61 116.50 156.76 117.42 155.01 117.81 C 150.74 119.09 146.33 117.82 142.01 117.71 C 130.78 117.68 119.54 117.38 108.37 118.76 C 107.85 115.87 110.45 114.60 112.66 113.73 Z" />
<path fill="#020202" opacity="1.00" d=" M 144.14 198.68 C 144.50 197.42 144.88 196.16 145.28 194.91 C 145.81 196.12 146.34 197.35 146.85 198.58 C 146.17 198.60 144.82 198.66 144.14 198.68 Z" />
<path fill="#020202" opacity="1.00" d=" M 144.20 203.34 C 145.55 203.38 146.91 203.43 148.26 203.48 C 148.68 204.45 149.11 205.42 149.57 206.38 L 149.73 206.80 C 147.77 207.48 145.45 207.83 143.67 206.50 C 143.85 205.45 144.02 204.39 144.20 203.34 Z" />
</g>
<g id="#fefefeff">
<path fill="#fefefe" opacity="1.00" d=" M 79.52 15.41 C 89.77 12.94 100.45 12.05 110.95 13.27 C 117.16 13.39 123.32 14.37 129.33 15.89 C 133.94 17.02 137.63 20.17 141.80 22.24 C 146.86 24.77 152.08 27.01 156.80 30.17 C 162.99 34.13 168.14 39.53 172.51 45.41 C 178.36 53.12 185.65 60.14 188.78 69.54 C 190.58 75.20 192.30 80.95 192.88 86.88 C 192.97 86.28 193.07 85.68 193.16 85.08 C 194.94 98.98 196.78 113.12 194.44 127.09 C 192.95 136.98 189.61 148.08 180.43 153.46 C 174.88 156.73 169.44 160.50 163.15 162.19 C 147.52 165.35 131.73 159.74 116.01 162.04 C 107.71 157.93 100.05 152.62 92.00 148.03 C 84.75 144.03 80.71 136.55 76.09 130.03 C 70.57 121.88 65.28 113.08 63.98 103.14 C 62.78 93.77 64.11 84.35 64.68 74.98 C 66.30 62.76 64.62 50.19 67.61 38.15 C 70.31 28.59 81.30 24.94 84.77 15.79 C 82.92 16.33 81.10 16.97 79.40 17.89 C 79.43 17.27 79.49 16.03 79.52 15.41 M 127.70 55.08 C 128.04 56.18 128.36 57.28 128.69 58.38 C 132.70 59.08 136.78 58.77 140.83 58.69 C 141.38 56.36 142.22 53.88 141.56 51.48 C 139.34 49.09 135.92 48.44 132.79 48.55 C 130.01 49.70 128.01 52.02 127.70 55.08 M 90.78 56.01 C 87.05 57.96 87.13 62.61 87.74 66.20 C 91.81 67.89 96.70 67.93 100.43 65.37 C 100.36 62.81 100.54 60.24 100.29 57.69 C 97.90 55.14 93.84 53.71 90.78 56.01 M 112.66 113.73 C 110.45 114.60 107.85 115.87 108.37 118.76 C 119.54 117.38 130.78 117.68 142.01 117.71 C 146.33 117.82 150.74 119.09 155.01 117.81 C 156.76 117.42 158.61 116.50 159.05 114.61 C 150.69 114.67 142.36 113.72 134.08 112.85 C 126.93 112.44 119.69 112.14 112.66 113.73 Z" />
<path fill="#fefefe" opacity="1.00" d=" M 132.28 51.35 C 134.13 51.25 135.89 51.74 137.50 52.62 C 137.46 53.10 137.38 54.07 137.33 54.56 C 134.85 55.26 131.73 54.50 132.28 51.35 Z" />
<path fill="#fefefe" opacity="1.00" d=" M 92.30 59.57 C 93.23 59.68 94.15 59.79 95.08 59.90 C 95.59 60.58 96.11 61.26 96.62 61.94 C 95.30 62.66 93.89 63.18 92.41 63.46 C 92.26 62.17 92.21 60.87 92.30 59.57 Z" />
<path fill="#fefefe" opacity="1.00" d=" M 172.32 190.39 C 172.95 190.36 174.20 190.28 174.82 190.25 C 174.65 192.19 174.50 194.14 174.28 196.08 C 173.85 195.34 172.98 193.87 172.55 193.13 L 172.50 192.58 C 172.45 192.03 172.37 190.94 172.32 190.39 Z" />
<path fill="#fefefe" opacity="1.00" d=" M 97.76 191.68 C 99.68 191.52 101.53 191.93 103.25 192.78 C 103.29 193.18 103.38 193.98 103.43 194.39 C 102.74 195.03 102.06 195.67 101.38 196.32 C 100.18 196.28 98.97 196.25 97.77 196.20 C 97.76 194.70 97.76 193.19 97.76 191.68 Z" />
<path fill="#fefefe" opacity="1.00" d=" M 22.56 196.74 C 22.87 195.01 21.71 192.45 23.77 191.54 C 25.64 191.94 28.16 192.56 27.60 195.06 C 26.51 196.87 24.38 196.74 22.56 196.74 Z" />
<path fill="#fefefe" opacity="1.00" d=" M 41.03 200.95 C 39.25 197.52 40.40 191.42 45.06 191.40 C 50.37 193.13 49.93 201.75 44.79 203.52 C 43.50 202.73 42.00 202.15 41.03 200.95 Z" />
<path fill="#fefefe" opacity="1.00" d=" M 81.32 192.17 C 82.41 192.22 83.50 192.28 84.59 192.33 L 84.26 193.48 C 84.74 193.67 85.70 194.06 86.18 194.26 C 84.58 194.41 82.99 194.55 81.39 194.69 C 81.38 194.06 81.34 192.80 81.32 192.17 Z" />
<path fill="#fefefe" opacity="1.00" d=" M 179.50 192.18 C 180.81 192.28 182.12 192.39 183.43 192.52 C 183.48 193.02 183.59 194.03 183.64 194.54 C 182.28 194.54 180.93 194.55 179.58 194.57 C 179.56 193.97 179.52 192.78 179.50 192.18 Z" />
<path fill="#fefefe" opacity="1.00" d=" M 54.31 193.37 C 54.93 193.34 56.15 193.27 56.76 193.24 C 56.73 196.88 56.53 200.52 56.68 204.16 C 56.25 203.21 55.84 202.26 55.43 201.31 C 54.95 201.35 53.98 201.45 53.50 201.49 C 53.71 198.77 53.90 196.06 54.31 193.37 Z" />
<path fill="#fefefe" opacity="1.00" d=" M 174.96 203.71 C 173.38 204.55 173.21 200.58 174.24 199.83 C 174.42 200.80 174.78 202.74 174.96 203.71 Z" />
</g>
<g id="#e7281afe">
<path fill="#e7281a" opacity="1.00" d=" M 34.56 194.05 C 37.36 190.69 41.08 187.27 45.82 187.79 C 49.19 188.26 51.34 191.04 54.06 192.70 C 56.03 193.59 56.35 190.89 56.97 189.72 C 60.02 188.16 61.70 191.26 64.06 192.39 C 65.95 190.60 68.13 188.91 70.93 189.30 C 70.69 192.11 68.22 194.13 68.13 196.95 C 67.94 199.49 70.02 201.22 71.47 203.02 C 71.50 203.64 71.56 204.87 71.59 205.49 C 68.91 205.98 66.87 204.36 64.92 202.79 C 61.73 200.66 59.79 208.39 56.68 204.16 C 56.53 200.52 56.73 196.88 56.76 193.24 C 56.15 193.27 54.93 193.34 54.31 193.37 C 53.90 196.06 53.71 198.77 53.50 201.49 C 53.49 201.66 53.46 202.01 53.44 202.18 C 50.79 204.44 47.76 206.91 44.03 206.55 C 37.84 206.35 34.04 199.67 34.56 194.05 M 41.03 200.95 C 42.00 202.15 43.50 202.73 44.79 203.52 C 49.93 201.75 50.37 193.13 45.06 191.40 C 40.40 191.42 39.25 197.52 41.03 200.95 Z" />
<path fill="#e7281a" opacity="1.00" d=" M 145.83 187.46 L 146.34 187.41 C 149.61 192.65 152.29 198.46 153.66 204.49 C 152.45 205.14 151.27 205.81 150.09 206.51 L 149.57 206.38 C 149.11 205.42 148.68 204.45 148.26 203.48 C 146.91 203.43 145.55 203.38 144.20 203.34 C 144.02 204.39 143.85 205.45 143.67 206.50 C 141.88 205.15 139.57 205.38 137.46 205.26 C 136.45 199.92 140.37 195.54 141.21 190.48 C 141.39 189.83 141.74 188.53 141.91 187.89 C 143.21 187.71 144.52 187.58 145.83 187.46 M 144.14 198.68 C 144.82 198.66 146.17 198.60 146.85 198.58 C 146.34 197.35 145.81 196.12 145.28 194.91 C 144.88 196.16 144.50 197.42 144.14 198.68 Z" />
<path fill="#e7281a" opacity="1.00" d=" M 121.55 189.55 C 125.09 187.86 129.19 188.61 132.78 189.76 C 132.25 190.44 131.72 191.12 131.18 191.80 C 131.03 194.07 132.92 195.83 132.40 198.12 C 128.80 198.02 125.24 200.25 125.21 204.15 C 124.62 204.56 123.46 205.38 122.88 205.79 C 121.85 204.77 120.34 203.81 120.62 202.13 C 120.77 197.95 119.79 193.49 121.55 189.55 Z" />
<path fill="#e7281a" opacity="1.00" d=" M 169.10 188.65 C 172.49 191.07 176.37 188.27 180.03 188.60 C 182.32 188.53 184.52 189.17 186.69 189.81 C 186.18 190.44 185.68 191.09 185.18 191.73 C 185.15 193.99 186.88 195.83 186.40 198.12 C 184.60 198.56 182.81 199.09 181.03 199.63 C 180.54 202.68 183.41 203.03 185.61 203.60 C 185.59 204.05 185.56 204.95 185.54 205.40 C 180.81 205.77 176.04 205.82 171.40 204.66 C 172.20 201.73 174.11 199.18 174.28 196.08 C 174.50 194.14 174.65 192.19 174.82 190.25 C 174.20 190.28 172.95 190.36 172.32 190.39 C 172.37 190.94 172.45 192.03 172.50 192.58 C 170.98 192.57 169.46 192.42 168.08 191.76 C 167.23 191.69 165.53 191.53 164.69 191.46 C 161.58 193.45 159.99 198.23 162.88 201.07 C 164.95 203.94 168.91 202.28 171.80 202.35 C 171.07 203.45 170.32 204.55 169.61 205.67 C 167.75 206.20 165.82 206.35 163.90 206.36 C 160.86 205.61 158.09 203.99 156.56 201.17 C 156.38 197.45 156.20 193.04 159.26 190.34 C 161.93 187.90 165.77 188.09 169.10 188.65 M 179.50 192.18 C 179.52 192.78 179.56 193.97 179.58 194.57 C 180.93 194.55 182.28 194.54 183.64 194.54 C 183.59 194.03 183.48 193.02 183.43 192.52 C 182.12 192.39 180.81 192.28 179.50 192.18 M 174.96 203.71 C 174.78 202.74 174.42 200.80 174.24 199.83 C 173.21 200.58 173.38 204.55 174.96 203.71 Z" />
<path fill="#e7281a" opacity="1.00" d=" M 17.64 189.95 C 18.19 189.62 19.29 188.95 19.84 188.62 C 23.28 188.75 27.08 187.84 30.18 189.75 C 32.15 191.35 33.69 193.65 33.77 196.26 C 31.03 197.70 28.59 199.68 25.61 200.67 C 23.42 201.35 22.37 203.48 20.88 205.03 C 19.49 206.38 17.16 204.60 17.40 202.91 C 17.17 198.59 17.09 194.24 17.64 189.95 M 22.56 196.74 C 24.38 196.74 26.51 196.87 27.60 195.06 C 28.16 192.56 25.64 191.94 23.77 191.54 C 21.71 192.45 22.87 195.01 22.56 196.74 Z" />
<path fill="#e7281a" opacity="1.00" d=" M 76.40 189.80 C 77.01 189.50 78.25 188.91 78.86 188.61 C 80.59 188.62 82.31 188.68 84.03 188.82 C 85.20 189.15 86.39 189.38 87.59 189.53 C 87.62 190.06 87.67 191.10 87.70 191.62 L 86.34 191.41 C 86.36 192.11 86.39 193.51 86.41 194.21 C 88.75 194.27 87.48 196.91 87.67 198.34 C 85.89 198.56 84.18 199.06 82.51 199.70 C 82.56 200.54 82.61 201.38 82.66 202.22 C 83.99 202.77 85.34 203.31 86.78 203.52 C 86.74 204.01 86.65 205.00 86.60 205.50 C 83.33 205.61 80.04 205.76 76.77 205.41 C 76.03 204.05 75.52 202.61 75.97 201.06 C 76.49 197.32 76.10 193.55 76.40 189.80 M 81.32 192.17 C 81.34 192.80 81.38 194.06 81.39 194.69 C 82.99 194.55 84.58 194.41 86.18 194.26 C 85.70 194.06 84.74 193.67 84.26 193.48 L 84.59 192.33 C 83.50 192.28 82.41 192.22 81.32 192.17 Z" />
<path fill="#e7281a" opacity="1.00" d=" M 92.67 189.83 C 96.92 187.94 101.93 188.11 106.25 189.71 C 107.89 191.56 108.06 194.10 106.98 196.30 C 105.62 198.95 106.61 201.91 108.40 204.07 C 108.09 204.45 107.46 205.22 107.14 205.61 C 103.77 205.93 102.24 201.21 98.87 202.29 C 97.58 203.43 96.59 204.91 95.04 205.74 C 94.41 205.35 93.15 204.58 92.52 204.19 C 92.51 201.45 92.59 198.68 91.78 196.03 C 92.22 193.98 92.49 191.91 92.67 189.83 M 97.76 191.68 C 97.76 193.19 97.76 194.70 97.77 196.20 C 98.97 196.25 100.18 196.28 101.38 196.32 C 102.06 195.67 102.74 195.03 103.43 194.39 C 103.38 193.98 103.29 193.18 103.25 192.78 C 101.53 191.93 99.68 191.52 97.76 191.68 Z" />
</g>
</svg>
