<?xml version="1.0" encoding="UTF-8" ?>
<!DOCTYPE svg PUBLIC "-//W3C//DTD SVG 1.1//EN" "http://www.w3.org/Graphics/SVG/1.1/DTD/svg11.dtd">
<svg width="210pt" height="220pt" viewBox="0 0 210 220" version="1.1" xmlns="http://www.w3.org/2000/svg">
<g id="#020202fd">
<path fill="#020202" opacity="1.00" d=" M 112.90 2.90 C 115.36 3.31 117.67 1.35 120.01 2.01 C 122.50 4.42 124.99 6.82 127.96 8.65 C 128.52 8.69 129.64 8.76 130.19 8.80 C 131.48 10.47 132.85 12.41 135.07 12.83 C 137.26 15.94 140.52 18.43 144.02 20.02 C 146.69 22.56 147.40 26.51 150.17 28.92 C 150.20 30.30 150.22 31.69 150.22 33.07 C 153.84 35.40 154.24 39.81 156.72 43.02 C 156.30 45.51 156.30 48.33 158.49 50.01 C 158.79 53.12 160.12 55.97 161.10 58.90 C 162.19 61.79 161.47 64.94 161.77 67.95 C 165.24 70.18 162.70 74.69 163.69 78.04 C 164.81 81.54 164.86 85.27 164.53 88.94 C 162.19 93.96 165.14 99.89 162.73 104.87 C 162.61 108.40 161.62 111.91 160.06 115.07 C 159.87 118.80 156.80 121.21 155.13 124.30 C 154.53 125.57 152.94 125.13 151.86 125.46 C 151.35 126.43 150.84 127.40 150.33 128.37 C 147.74 129.26 146.44 131.61 145.01 133.74 C 142.95 136.95 137.71 135.94 136.18 139.46 C 135.64 139.55 134.56 139.75 134.02 139.84 C 131.96 142.10 129.26 143.76 126.21 144.24 C 117.91 144.36 109.46 143.84 101.25 144.59 C 109.51 144.93 117.79 144.50 126.04 144.94 C 118.82 146.47 111.31 145.23 103.96 145.67 C 101.26 146.17 99.00 144.65 96.69 143.56 C 96.58 141.21 92.94 142.36 91.32 142.34 C 90.80 145.72 92.06 149.23 91.07 152.58 C 90.36 152.64 88.95 152.76 88.25 152.82 C 87.51 149.06 89.93 143.77 86.34 141.09 C 82.54 140.40 78.83 139.24 75.03 138.50 C 71.83 137.37 69.42 135.21 66.68 133.29 C 65.74 129.37 59.00 131.30 59.71 126.53 C 55.95 124.98 53.17 121.99 50.70 118.88 C 48.33 117.92 49.81 114.67 48.02 113.15 C 46.60 111.75 46.08 109.97 46.22 108.00 C 44.40 106.99 44.33 105.04 44.06 103.21 C 42.34 101.16 41.00 98.82 41.24 96.03 C 40.84 95.70 40.02 95.02 39.61 94.68 C 39.55 92.68 38.17 90.99 38.46 88.95 C 38.56 73.81 38.42 58.67 38.53 43.53 C 40.88 41.47 41.87 38.47 41.49 35.40 C 41.91 35.05 42.76 34.36 43.18 34.02 C 42.70 31.34 45.21 30.34 45.58 28.01 C 47.92 24.06 51.80 21.08 53.64 16.76 C 57.41 15.96 58.94 11.51 62.88 11.27 C 65.08 8.64 68.99 8.65 72.14 8.64 C 75.41 7.58 79.10 7.62 81.48 4.74 C 85.39 4.49 89.52 5.53 93.24 3.97 C 99.76 3.18 106.54 4.80 112.90 2.90 M 86.83 8.57 C 85.64 10.19 83.33 9.01 81.69 9.65 C 80.13 10.42 78.65 11.40 76.94 11.81 C 76.05 12.33 75.16 12.85 74.27 13.38 C 71.74 13.18 69.22 13.38 66.71 13.67 C 65.88 14.27 65.06 14.87 64.25 15.48 C 63.66 15.51 62.49 15.57 61.90 15.60 C 61.01 16.85 59.97 17.99 58.74 18.92 C 56.02 20.83 54.61 23.99 52.02 26.04 C 51.40 27.31 50.64 28.49 49.81 29.63 C 49.65 32.07 47.74 33.65 46.67 35.70 C 46.56 37.99 44.37 39.58 44.47 41.93 C 44.61 43.55 43.81 44.81 42.65 45.85 C 42.71 59.91 42.66 73.96 42.67 88.02 C 42.73 90.57 43.92 92.91 45.12 95.11 C 45.55 96.79 44.75 99.50 47.20 99.78 C 47.41 100.85 47.70 101.90 48.07 102.93 C 48.04 104.17 48.46 105.14 49.35 105.84 C 50.12 109.02 52.12 111.70 53.21 114.77 C 55.00 119.18 59.06 122.00 63.25 123.87 C 63.33 124.46 63.49 125.63 63.57 126.22 C 66.20 126.45 68.45 128.19 69.70 130.46 C 71.00 131.11 72.64 131.52 72.90 133.20 C 76.22 132.24 77.80 136.07 80.93 135.54 C 81.48 135.56 82.58 135.60 83.12 135.62 C 85.35 138.65 89.87 136.36 91.86 139.36 C 94.23 139.38 96.65 139.30 98.93 140.06 C 103.47 142.80 109.00 141.09 114.01 141.55 C 117.41 141.15 121.42 142.67 124.27 140.24 C 125.27 139.06 126.90 139.51 128.24 139.34 C 128.56 137.98 129.71 137.31 130.90 136.81 C 134.64 136.64 135.70 131.58 139.58 132.43 C 141.41 130.32 143.46 128.43 145.45 126.48 C 147.83 124.15 149.76 121.08 153.15 120.13 C 153.84 116.05 157.25 112.98 157.87 108.90 C 159.06 106.74 158.33 104.18 158.54 101.84 C 161.11 98.90 159.18 94.52 159.84 90.98 C 162.43 85.19 159.23 78.92 159.29 72.92 C 158.87 72.48 158.04 71.61 157.62 71.17 C 158.01 65.68 157.60 59.95 154.66 55.15 C 154.60 54.05 154.55 52.96 154.49 51.88 C 152.37 50.57 152.52 47.78 152.36 45.61 C 151.06 44.30 150.76 42.49 150.28 40.79 C 148.69 38.56 147.73 35.89 145.61 34.06 C 145.53 32.97 145.50 31.88 145.50 30.79 C 144.04 29.99 144.17 28.02 143.46 26.69 C 141.79 26.72 141.76 24.86 141.35 23.73 C 139.78 23.88 138.71 23.04 137.98 21.75 C 137.45 21.64 136.38 21.43 135.84 21.32 C 132.80 17.57 129.37 14.09 124.78 12.34 C 123.01 9.93 119.91 10.79 117.68 9.35 C 116.86 8.71 115.99 8.16 115.06 7.71 C 109.05 7.69 103.04 7.74 97.03 7.68 C 93.55 7.43 90.35 9.22 86.83 8.57 Z" />
<path fill="#020202" opacity="1.00" d=" M 132.55 51.58 C 133.00 49.88 132.41 47.07 134.71 46.62 C 135.52 46.43 137.14 46.06 137.95 45.87 C 138.74 47.45 139.30 49.12 139.85 50.79 C 141.32 50.85 144.68 50.96 143.34 53.48 C 139.60 53.93 136.07 52.95 132.46 52.22 L 132.55 51.58 Z" />
<path fill="#020202" opacity="1.00" d=" M 62.21 56.16 C 63.21 53.05 66.79 54.96 69.05 54.90 C 70.14 55.34 71.27 55.63 72.43 55.78 C 72.66 58.73 72.56 61.69 72.63 64.65 C 72.07 64.66 70.94 64.70 70.38 64.72 C 70.37 63.77 70.34 61.88 70.33 60.93 C 69.79 61.57 68.70 62.84 68.15 63.48 C 65.98 63.45 63.81 63.43 61.63 63.40 C 61.33 60.99 60.58 58.26 62.21 56.16 Z" />
<path fill="#020202" opacity="1.00" d=" M 140.62 68.52 C 142.41 67.03 144.89 67.87 147.02 67.67 C 149.59 67.86 152.46 67.03 154.71 68.64 C 154.63 69.57 154.55 70.50 154.47 71.44 C 150.91 71.69 147.35 71.57 143.79 71.55 C 143.52 72.04 142.99 73.00 142.73 73.48 C 135.61 74.01 128.46 75.50 121.81 78.00 C 118.01 78.27 114.18 77.89 110.40 78.38 C 103.93 79.89 97.48 81.31 90.99 82.71 C 86.16 82.55 81.79 85.07 76.96 85.12 C 73.64 86.14 70.04 85.25 66.77 86.28 C 64.44 87.75 61.56 87.89 58.94 88.40 C 56.90 88.84 56.84 85.06 58.37 84.53 C 60.97 84.08 64.17 84.91 66.06 82.55 C 68.73 82.46 71.41 82.47 74.09 82.31 C 79.86 82.38 85.16 79.67 90.89 79.25 C 95.16 77.62 99.90 78.51 104.10 76.59 C 109.51 74.41 115.45 74.62 121.21 74.52 C 121.75 72.79 123.84 73.59 125.13 73.18 C 126.71 72.70 128.32 72.33 129.98 72.25 C 132.59 69.77 136.32 70.24 139.60 70.42 C 139.86 69.95 140.37 69.00 140.62 68.52 Z" />
<path fill="#020202" opacity="1.00" d=" M 117.19 84.48 C 117.24 82.34 119.69 83.46 120.90 83.55 C 120.63 88.13 115.88 86.52 112.85 86.75 C 108.92 88.61 104.61 88.56 100.37 88.52 C 100.31 87.94 100.19 86.78 100.13 86.20 C 102.83 86.29 105.60 86.29 108.15 85.27 C 110.93 83.84 114.19 84.81 117.19 84.48 Z" />
<path fill="#020202" opacity="1.00" d=" M 92.31 143.06 L 92.86 142.57 C 94.56 142.64 95.03 143.16 94.26 144.13 L 93.04 144.12 C 92.86 143.86 92.49 143.33 92.31 143.06 Z" />
<path fill="#020202" opacity="1.00" d=" M 113.33 156.94 C 114.61 160.01 115.01 164.26 112.19 166.64 C 112.85 167.36 113.51 168.09 114.18 168.81 C 114.34 173.17 113.56 177.67 114.63 181.93 C 111.95 181.92 109.28 181.92 106.62 181.71 C 106.79 177.89 107.53 173.73 105.62 170.21 C 105.30 170.21 104.66 170.21 104.34 170.21 C 103.23 173.90 104.79 177.92 103.97 181.74 C 101.85 181.76 99.73 181.78 97.61 181.74 C 97.12 179.77 96.09 179.09 94.50 179.68 L 94.52 179.44 C 93.84 178.28 93.05 177.19 92.29 176.10 C 91.64 176.12 90.35 176.17 89.70 176.19 C 89.57 174.24 89.45 172.30 89.36 170.35 C 90.57 170.28 91.78 170.20 92.98 170.12 C 89.65 170.15 92.05 173.70 92.93 175.26 C 94.71 175.48 94.85 177.36 95.47 178.67 L 96.27 179.10 C 96.78 179.90 97.28 180.71 97.76 181.53 C 99.75 181.60 101.75 181.63 103.75 181.69 C 103.99 178.07 103.69 174.48 103.16 170.91 C 102.81 169.36 104.53 168.91 105.51 168.27 C 108.71 171.89 105.93 177.11 108.15 180.89 C 110.06 181.71 112.17 181.02 113.89 180.09 C 113.58 176.69 113.66 173.28 113.73 169.88 C 112.40 169.26 111.79 167.94 111.05 166.78 C 111.46 166.52 112.28 166.01 112.70 165.76 C 113.32 162.87 114.15 159.88 113.33 156.94 Z" />
<path fill="#020202" opacity="1.00" d=" M 89.34 181.88 C 90.71 181.99 92.16 182.52 93.45 181.80 C 93.23 191.20 93.45 200.60 93.34 209.99 C 92.94 212.18 94.85 213.98 94.25 216.16 C 92.60 216.19 90.96 216.24 89.32 216.31 C 89.68 215.54 90.03 214.77 90.39 214.01 C 88.96 212.30 89.46 210.01 89.39 207.97 C 89.39 199.27 89.48 190.57 89.34 181.88 Z" />
</g>
<g id="#fefefeff">
<path fill="#fefefe" opacity="1.00" d=" M 86.83 8.57 C 90.35 9.22 93.55 7.43 97.03 7.68 C 103.04 7.74 109.05 7.69 115.06 7.71 C 115.99 8.16 116.86 8.71 117.68 9.35 C 119.91 10.79 123.01 9.93 124.78 12.34 C 129.37 14.09 132.80 17.57 135.84 21.32 C 136.38 21.43 137.45 21.64 137.98 21.75 C 138.71 23.04 139.78 23.88 141.35 23.73 C 141.76 24.86 141.79 26.72 143.46 26.69 C 144.17 28.02 144.04 29.99 145.50 30.79 C 145.50 31.88 145.53 32.97 145.61 34.06 C 147.73 35.89 148.69 38.56 150.28 40.79 C 150.76 42.49 151.06 44.30 152.36 45.61 C 152.52 47.78 152.37 50.57 154.49 51.88 C 154.55 52.96 154.60 54.05 154.66 55.15 C 157.60 59.95 158.01 65.68 157.62 71.17 C 158.04 71.61 158.87 72.48 159.29 72.92 C 159.23 78.92 162.43 85.19 159.84 90.98 C 159.18 94.52 161.11 98.90 158.54 101.84 C 158.33 104.18 159.06 106.74 157.87 108.90 C 157.25 112.98 153.84 116.05 153.15 120.13 C 149.76 121.08 147.83 124.15 145.45 126.48 C 143.46 128.43 141.41 130.32 139.58 132.43 C 135.70 131.58 134.64 136.64 130.90 136.81 C 129.71 137.31 128.56 137.98 128.24 139.34 C 126.90 139.51 125.27 139.06 124.27 140.24 C 121.42 142.67 117.41 141.15 114.01 141.55 C 109.00 141.09 103.47 142.80 98.93 140.06 C 96.65 139.30 94.23 139.38 91.86 139.36 C 89.87 136.36 85.35 138.65 83.12 135.62 C 82.58 135.60 81.48 135.56 80.93 135.54 C 77.80 136.07 76.22 132.24 72.90 133.20 C 72.64 131.52 71.00 131.11 69.70 130.46 C 68.45 128.19 66.20 126.45 63.57 126.22 C 63.49 125.63 63.33 124.46 63.25 123.87 C 59.06 122.00 55.00 119.18 53.21 114.77 C 52.12 111.70 50.12 109.02 49.35 105.84 C 48.46 105.14 48.04 104.17 48.07 102.93 C 47.70 101.90 47.41 100.85 47.20 99.78 C 44.75 99.50 45.55 96.79 45.12 95.11 C 43.92 92.91 42.73 90.57 42.67 88.02 C 42.66 73.96 42.71 59.91 42.65 45.85 C 43.81 44.81 44.61 43.55 44.47 41.93 C 44.37 39.58 46.56 37.99 46.67 35.70 C 47.74 33.65 49.65 32.07 49.81 29.63 C 50.64 28.49 51.40 27.31 52.02 26.04 C 54.61 23.99 56.02 20.83 58.74 18.92 C 59.97 17.99 61.01 16.85 61.90 15.60 C 62.49 15.57 63.66 15.51 64.25 15.48 C 65.06 14.87 65.88 14.27 66.71 13.67 C 69.22 13.38 71.74 13.18 74.27 13.38 C 75.16 12.85 76.05 12.33 76.94 11.81 C 78.65 11.40 80.13 10.42 81.69 9.65 C 83.33 9.01 85.64 10.19 86.83 8.57 M 132.45 51.80 L 132.55 51.58 L 132.46 52.22 C 136.07 52.95 139.60 53.93 143.34 53.48 C 144.68 50.96 141.32 50.85 139.85 50.79 C 139.84 49.02 139.81 47.25 139.75 45.48 C 137.61 45.79 135.39 45.89 133.32 45.14 C 131.79 47.00 131.99 49.59 132.45 51.80 M 62.21 56.16 C 60.58 58.26 61.33 60.99 61.63 63.40 C 63.81 63.43 65.98 63.45 68.15 63.48 C 68.70 62.84 69.79 61.57 70.33 60.93 C 70.34 61.88 70.37 63.77 70.38 64.72 C 70.94 64.70 72.07 64.66 72.63 64.65 C 72.56 61.69 72.66 58.73 72.43 55.78 C 71.27 55.63 70.14 55.34 69.05 54.90 C 66.79 54.96 63.21 53.05 62.21 56.16 M 140.62 68.52 C 140.37 69.00 139.86 69.95 139.60 70.42 C 136.32 70.24 132.59 69.77 129.98 72.25 C 128.32 72.33 126.71 72.70 125.13 73.18 C 123.84 73.59 121.75 72.79 121.21 74.52 C 115.45 74.62 109.51 74.41 104.10 76.59 C 102.63 76.86 101.20 76.76 99.80 76.30 C 98.98 76.71 98.16 77.13 97.35 77.55 C 96.16 77.56 94.97 77.58 93.79 77.62 C 92.27 79.35 89.93 78.61 87.98 79.17 C 85.42 80.02 82.63 79.44 80.11 80.59 C 78.27 81.47 75.82 80.13 74.27 81.68 C 70.27 82.26 65.74 80.81 62.33 83.63 C 61.62 83.62 60.20 83.62 59.49 83.61 C 59.21 83.84 58.65 84.30 58.37 84.53 C 56.84 85.06 56.90 88.84 58.94 88.40 C 61.56 87.89 64.44 87.75 66.77 86.28 C 69.95 86.45 73.20 85.88 76.33 86.66 C 77.48 86.09 78.62 85.39 79.97 85.42 C 82.08 85.25 84.12 83.35 86.23 84.70 C 87.02 84.27 87.82 83.83 88.61 83.38 C 91.97 84.00 94.74 81.48 98.04 81.74 C 103.51 81.76 108.52 79.11 113.93 78.71 C 117.18 78.73 120.51 79.21 123.71 78.41 C 126.06 76.76 128.97 76.77 131.71 76.41 C 134.55 74.34 138.10 74.03 141.51 74.25 C 141.81 74.06 142.42 73.67 142.73 73.48 C 142.99 73.00 143.52 72.04 143.79 71.55 C 147.35 71.57 150.91 71.69 154.47 71.44 C 154.55 70.50 154.63 69.57 154.71 68.64 C 152.46 67.03 149.59 67.86 147.02 67.67 C 144.89 67.87 142.41 67.03 140.62 68.52 M 117.19 84.48 C 114.19 84.81 110.93 83.84 108.15 85.27 C 105.60 86.29 102.83 86.29 100.13 86.20 C 100.19 86.78 100.31 87.94 100.37 88.52 C 104.61 88.56 108.92 88.61 112.85 86.75 C 115.88 86.52 120.63 88.13 120.90 83.55 C 119.69 83.46 117.24 82.34 117.19 84.48 Z" />
<path fill="#fefefe" opacity="1.00" d=" M 49.36 157.30 C 49.85 157.27 50.83 157.22 51.32 157.20 C 51.10 164.17 51.59 171.17 51.06 178.13 C 50.66 178.15 49.86 178.19 49.46 178.21 C 49.08 171.29 49.44 164.26 49.36 157.30 Z" />
</g>
<g id="#eb1b23fe">
<path fill="#eb1b23" opacity="1.00" d=" M 132.45 51.80 C 131.99 49.59 131.79 47.00 133.32 45.14 C 135.39 45.89 137.61 45.79 139.75 45.48 C 139.81 47.25 139.84 49.02 139.85 50.79 C 139.30 49.12 138.74 47.45 137.95 45.87 C 137.14 46.06 135.52 46.43 134.71 46.62 C 132.41 47.07 133.00 49.88 132.55 51.58 L 132.45 51.80 Z" />
<path fill="#eb1b23" opacity="1.00" d=" M 121.81 78.00 C 128.46 75.50 135.61 74.01 142.73 73.48 C 142.42 73.67 141.81 74.06 141.51 74.25 C 138.10 74.03 134.55 74.34 131.71 76.41 C 128.97 76.77 126.06 76.76 123.71 78.41 C 120.51 79.21 117.18 78.73 113.93 78.71 C 108.52 79.11 103.51 81.76 98.04 81.74 C 94.74 81.48 91.97 84.00 88.61 83.38 C 87.82 83.83 87.02 84.27 86.23 84.70 C 84.12 83.35 82.08 85.25 79.97 85.42 C 78.62 85.39 77.48 86.09 76.33 86.66 C 73.20 85.88 69.95 86.45 66.77 86.28 C 70.04 85.25 73.64 86.14 76.96 85.12 C 81.79 85.07 86.16 82.55 90.99 82.71 C 97.48 81.31 103.93 79.89 110.40 78.38 C 114.18 77.89 118.01 78.27 121.81 78.00 Z" />
<path fill="#eb1b23" opacity="1.00" d=" M 97.35 77.55 C 98.16 77.13 98.98 76.71 99.80 76.30 C 101.20 76.76 102.63 76.86 104.10 76.59 C 99.90 78.51 95.16 77.62 90.89 79.25 C 85.16 79.67 79.86 82.38 74.09 82.31 C 71.41 82.47 68.73 82.46 66.06 82.55 C 64.17 84.91 60.97 84.08 58.37 84.53 C 58.65 84.30 59.21 83.84 59.49 83.61 C 60.20 83.62 61.62 83.62 62.33 83.63 C 65.74 80.81 70.27 82.26 74.27 81.68 C 75.82 80.13 78.27 81.47 80.11 80.59 C 82.63 79.44 85.42 80.02 87.98 79.17 C 89.93 78.61 92.27 79.35 93.79 77.62 C 94.97 77.58 96.16 77.56 97.35 77.55 Z" />
<path fill="#eb1b23" opacity="1.00" d=" M 86.34 141.09 C 89.93 143.77 87.51 149.06 88.25 152.82 C 88.95 152.76 90.36 152.64 91.07 152.58 C 91.60 152.56 92.65 152.52 93.18 152.51 C 94.70 154.50 94.38 156.97 94.32 159.31 C 93.05 159.39 91.78 159.48 90.51 159.56 C 90.55 161.14 90.59 162.72 90.62 164.30 C 91.89 164.34 93.15 164.38 94.42 164.44 C 94.48 166.48 94.76 168.68 92.98 170.12 C 91.78 170.20 90.57 170.28 89.36 170.35 C 89.45 172.30 89.57 174.24 89.70 176.19 C 90.35 176.17 91.64 176.12 92.29 176.10 C 93.05 177.19 93.84 178.28 94.52 179.44 L 94.50 179.68 C 94.46 180.10 94.39 180.95 94.35 181.37 L 93.45 181.80 C 92.16 182.52 90.71 181.99 89.34 181.88 C 83.79 181.17 78.20 181.99 72.65 181.51 C 72.76 178.45 70.93 175.85 70.38 172.92 C 68.77 175.45 70.12 178.84 69.75 181.72 C 67.24 181.70 64.73 181.69 62.22 181.68 C 61.77 175.79 62.74 169.87 61.90 164.00 C 63.11 160.20 61.25 156.07 62.42 152.44 C 64.74 152.98 68.40 151.23 69.62 153.97 C 69.90 156.36 69.57 158.77 69.74 161.17 C 71.78 159.33 72.34 156.32 72.80 153.72 C 75.08 151.58 79.03 152.08 81.28 154.07 C 81.54 151.01 85.61 153.15 87.55 152.54 C 87.25 148.71 88.50 144.47 86.34 141.09 M 76.70 161.88 C 76.82 163.19 76.36 164.24 75.32 165.04 C 76.52 166.11 76.73 167.64 76.78 169.16 C 77.50 171.46 78.55 173.66 78.79 176.10 C 79.46 177.86 79.15 180.54 81.52 181.07 C 81.57 172.06 81.46 163.06 81.58 154.06 C 77.76 154.53 79.32 159.77 76.70 161.88 Z" />
<path fill="#eb1b23" opacity="1.00" d=" M 97.56 152.47 C 102.97 152.82 110.46 150.75 113.33 156.94 C 114.15 159.88 113.32 162.87 112.70 165.76 C 112.28 166.01 111.46 166.52 111.05 166.78 C 111.79 167.94 112.40 169.26 113.73 169.88 C 113.66 173.28 113.58 176.69 113.89 180.09 C 112.17 181.02 110.06 181.71 108.15 180.89 C 105.93 177.11 108.71 171.89 105.51 168.27 C 104.53 168.91 102.81 169.36 103.16 170.91 C 103.69 174.48 103.99 178.07 103.75 181.69 C 101.75 181.63 99.75 181.60 97.76 181.53 C 97.28 180.71 96.78 179.90 96.27 179.10 C 96.38 178.30 96.60 176.71 96.71 175.91 C 98.23 172.33 96.89 168.11 97.39 164.29 C 97.11 163.97 96.54 163.34 96.25 163.02 C 98.76 159.96 94.96 155.76 97.56 152.47 M 103.81 157.47 C 103.82 159.68 103.75 161.90 103.90 164.11 C 108.32 165.78 108.47 156.07 103.81 157.47 Z" />
<path fill="#eb1b23" opacity="1.00" d=" M 138.92 152.72 C 142.35 152.34 145.79 152.50 149.22 152.62 C 149.19 155.46 149.90 158.25 149.79 161.10 C 151.17 162.78 150.74 164.97 150.80 166.97 C 152.11 168.71 151.74 170.89 151.79 172.92 C 153.61 175.48 152.46 178.80 152.71 181.71 C 150.40 181.74 148.09 181.70 145.79 181.46 C 145.85 180.05 145.90 178.64 145.95 177.23 C 145.03 177.20 143.17 177.15 142.25 177.13 C 142.26 178.62 142.28 180.11 142.31 181.60 C 139.61 181.72 136.91 181.72 134.20 181.65 C 134.30 180.37 134.35 179.01 135.41 178.10 C 135.65 175.45 134.47 172.37 136.43 170.15 C 136.44 168.14 135.84 165.84 137.42 164.23 C 137.03 160.28 137.27 156.36 138.92 152.72 M 143.23 166.14 C 141.98 167.60 141.17 171.93 144.20 171.44 C 146.45 168.74 144.78 164.71 145.33 161.46 C 142.00 160.22 143.50 164.47 143.23 166.14 Z" />
<path fill="#eb1b23" opacity="1.00" d=" M 160.48 152.55 C 164.65 152.49 169.39 151.81 172.30 155.55 C 173.20 158.74 173.82 161.97 173.31 165.30 C 170.74 165.31 168.18 165.29 165.61 165.28 C 165.64 162.64 165.64 159.99 165.54 157.35 C 164.82 157.40 163.37 157.50 162.64 157.55 C 162.91 164.04 162.14 170.68 163.01 177.08 C 166.08 179.28 165.66 174.80 165.62 172.96 C 164.35 168.59 171.42 167.39 173.34 170.54 C 174.06 173.51 172.80 176.28 172.22 179.11 C 170.02 180.63 168.05 183.16 165.07 182.80 C 161.40 183.49 157.86 181.34 156.05 178.24 C 153.53 172.07 155.26 165.25 154.63 158.78 C 155.62 155.94 157.68 153.69 160.48 152.55 Z" />
<path fill="#eb1b23" opacity="1.00" d=" M 23.69 152.59 C 27.49 152.46 31.29 152.51 35.09 152.52 C 36.60 153.45 38.05 154.47 39.34 155.69 C 38.94 157.61 39.59 158.69 41.28 158.93 C 41.81 157.62 42.37 156.33 42.90 155.02 C 44.23 154.22 45.55 153.40 46.85 152.55 C 49.54 152.56 52.23 152.55 54.93 152.61 C 56.22 154.33 58.20 155.69 58.71 157.88 C 60.04 161.52 58.40 165.32 58.82 169.04 C 59.47 173.08 59.64 178.29 56.31 181.27 C 53.66 182.40 50.86 183.13 47.95 182.74 C 46.54 181.89 45.07 181.16 43.57 180.47 C 40.01 175.64 41.95 169.61 41.34 164.10 C 40.84 164.16 39.84 164.28 39.34 164.34 C 39.37 165.60 39.40 166.86 39.43 168.12 C 37.10 169.71 34.47 170.76 31.60 170.35 C 31.52 174.18 31.81 178.02 31.43 181.84 C 28.83 181.72 26.23 181.71 23.63 181.49 C 23.78 171.86 23.68 162.22 23.69 152.59 M 31.59 157.17 C 31.57 160.00 31.59 162.83 31.59 165.66 C 32.27 165.11 32.94 164.54 33.63 164.00 C 33.46 161.66 34.59 158.07 31.59 157.17 M 49.36 157.30 C 49.44 164.26 49.08 171.29 49.46 178.21 L 49.26 178.58 C 50.48 178.77 51.51 177.95 52.53 177.44 C 52.24 170.89 52.59 164.33 52.35 157.78 C 52.10 157.64 51.58 157.35 51.32 157.20 C 50.83 157.22 49.85 157.27 49.36 157.30 Z" />
<path fill="#eb1b23" opacity="1.00" d=" M 122.59 152.52 C 126.46 152.49 130.32 152.51 134.19 152.53 C 135.92 154.46 135.31 157.03 135.23 159.37 C 133.63 159.39 132.04 159.42 130.44 159.44 C 130.45 161.07 130.47 162.69 130.52 164.32 C 132.31 164.42 134.45 163.97 135.51 165.85 C 135.49 166.65 135.43 168.25 135.41 169.05 C 133.98 170.06 132.38 170.55 130.62 170.25 C 130.27 174.03 130.50 177.84 130.50 181.63 C 127.83 181.72 125.16 181.77 122.50 181.55 C 122.72 171.87 122.55 162.19 122.59 152.52 Z" />
<path fill="#eb1b23" opacity="1.00" d=" M 175.44 154.26 C 175.77 153.80 176.44 152.88 176.77 152.42 C 180.60 152.62 184.44 152.35 188.27 152.67 C 188.25 154.89 188.25 157.11 188.27 159.33 C 186.62 159.38 184.98 159.40 183.34 159.44 C 183.34 161.06 183.34 162.69 183.36 164.32 C 185.02 164.30 186.70 164.38 188.35 164.64 C 188.02 166.51 189.03 168.99 187.22 170.30 C 185.90 170.34 184.58 170.34 183.27 170.31 C 183.31 171.98 183.39 173.64 183.51 175.30 C 185.31 176.21 187.29 176.40 189.28 176.44 C 189.26 178.14 189.26 179.84 189.28 181.54 C 184.64 181.83 179.99 181.63 175.36 181.70 C 175.49 172.56 175.32 163.41 175.44 154.26 Z" />
</g>
</svg>
