<?xml version="1.0" encoding="UTF-8" ?>
<!DOCTYPE svg PUBLIC "-//W3C//DTD SVG 1.1//EN" "http://www.w3.org/Graphics/SVG/1.1/DTD/svg11.dtd">
<svg width="210pt" height="220pt" viewBox="0 0 210 220" version="1.1" xmlns="http://www.w3.org/2000/svg">
<g id="#0a0a0afd">
<path fill="#0a0a0a" opacity="1.00" d=" M 103.57 39.80 C 109.88 37.95 116.56 38.05 123.05 38.64 C 129.26 40.50 133.38 45.80 138.38 49.59 C 144.03 54.02 147.83 60.19 152.50 65.54 C 155.54 69.49 158.49 73.93 158.78 79.07 C 159.80 86.45 165.34 91.89 168.74 98.21 C 170.58 102.06 172.37 105.96 173.77 110.00 C 175.36 114.49 174.55 119.31 174.95 123.95 C 176.07 134.50 175.20 145.12 175.48 155.70 C 176.48 155.91 177.47 156.12 178.47 156.33 C 179.64 164.41 176.12 172.25 172.13 179.08 C 169.22 185.82 167.09 192.98 162.98 199.14 C 162.90 198.31 162.74 196.65 162.66 195.82 C 166.00 187.13 167.68 177.67 172.91 169.79 C 176.40 165.17 174.69 159.01 172.80 154.10 C 172.28 146.16 173.51 138.14 172.33 130.23 C 171.34 126.30 170.54 122.31 170.28 118.26 C 171.12 118.93 172.81 120.28 173.65 120.95 C 173.27 118.75 172.78 116.44 170.97 114.95 L 172.55 118.47 L 170.02 117.04 C 165.26 107.50 163.12 96.90 158.87 87.15 C 155.85 81.58 150.19 77.40 149.26 70.77 C 153.49 72.75 153.89 77.90 156.95 80.99 C 156.79 75.77 153.61 71.42 149.97 68.00 C 145.94 64.04 143.84 58.72 140.96 53.99 C 136.26 49.52 130.91 45.61 124.97 42.93 C 122.73 41.93 120.58 40.34 118.01 40.47 C 110.68 40.26 103.41 41.46 96.26 42.92 C 92.20 43.77 88.05 44.44 84.25 46.19 C 89.51 46.81 94.98 45.77 100.08 47.57 C 103.65 49.01 107.41 47.77 111.09 47.79 C 113.42 48.38 115.51 49.64 117.85 50.20 C 121.12 50.51 124.41 50.25 127.69 50.37 C 127.20 51.07 126.70 51.76 126.21 52.45 C 123.15 52.23 120.07 52.11 117.03 52.60 C 113.84 53.14 111.18 50.61 108.02 50.66 C 102.59 50.58 97.44 48.45 92.01 48.52 C 85.73 48.49 79.33 48.40 73.20 49.99 C 68.28 52.13 65.15 56.73 61.45 60.40 C 57.67 64.01 54.88 68.50 51.12 72.14 C 48.49 74.60 46.41 77.54 44.29 80.43 C 41.93 83.64 38.55 86.11 36.87 89.79 C 36.01 92.81 36.06 96.00 35.71 99.10 C 35.39 104.70 30.88 109.26 31.31 114.98 C 31.59 123.48 31.02 132.01 31.46 140.50 C 33.26 145.30 33.20 150.59 35.44 155.24 C 38.11 160.97 38.45 167.40 40.70 173.27 C 42.13 177.26 45.52 180.06 47.41 183.81 C 49.36 187.93 54.19 188.95 57.83 191.04 C 61.09 192.95 65.23 193.97 67.05 197.63 C 62.76 196.48 59.31 193.57 55.24 191.91 C 52.12 190.54 48.74 189.19 46.68 186.32 C 44.80 183.68 43.18 180.81 40.71 178.65 C 40.67 185.95 42.94 192.98 46.95 199.03 C 43.99 199.11 43.26 196.01 42.21 193.90 C 39.98 188.98 38.84 183.67 38.09 178.35 C 36.53 172.42 32.43 167.60 29.99 162.05 C 28.33 154.78 27.01 147.41 26.34 139.99 C 26.69 125.75 26.04 111.51 26.44 97.27 L 28.30 97.42 C 28.25 101.44 28.23 105.47 28.24 109.50 C 29.23 109.12 30.22 108.76 31.22 108.42 C 31.24 105.24 33.24 102.53 33.50 99.45 L 32.17 101.66 C 28.74 98.46 31.50 94.42 33.45 91.45 C 34.97 89.43 35.23 86.88 35.41 84.45 C 36.75 84.89 37.83 84.59 38.65 83.55 C 42.09 80.45 42.91 75.46 46.52 72.53 C 53.98 66.28 59.76 58.38 66.49 51.42 C 70.99 46.84 77.97 47.27 83.49 44.68 C 89.70 41.36 96.95 41.78 103.57 39.80 M 165.56 98.69 C 164.93 99.84 165.15 100.77 166.23 101.48 C 167.80 101.99 168.55 99.65 167.53 98.69 C 167.04 98.69 166.06 98.69 165.56 98.69 M 166.65 102.70 C 167.60 106.95 170.51 110.48 171.10 114.83 C 171.62 114.10 172.13 113.37 172.64 112.63 C 171.44 109.03 171.38 103.39 166.65 102.70 M 29.99 141.77 C 29.68 142.55 29.06 144.12 28.75 144.90 C 29.58 149.24 30.28 153.61 30.98 157.97 C 31.86 163.62 35.47 168.21 38.42 172.93 C 37.10 167.42 35.62 161.92 33.54 156.64 C 31.70 151.85 31.48 146.65 29.99 141.77 Z" />
<path fill="#0a0a0a" opacity="1.00" d=" M 122.86 64.59 C 127.48 63.40 132.85 63.23 136.87 66.15 C 140.05 68.24 141.78 71.72 144.14 74.56 C 146.71 76.47 148.61 79.03 150.18 81.80 C 154.26 87.59 157.81 94.65 156.56 101.95 C 154.88 107.72 149.15 112.21 143.07 112.12 C 135.57 112.39 127.68 111.79 121.02 108.02 C 115.69 104.54 112.37 98.89 108.82 93.78 C 107.36 87.82 109.99 81.42 114.03 77.00 C 118.91 72.31 123.58 67.11 130.25 64.89 C 128.02 65.41 123.57 66.46 121.34 66.98 C 121.83 66.18 122.34 65.38 122.86 64.59 M 130.17 65.31 C 130.23 65.81 130.35 66.80 130.41 67.29 C 125.63 68.62 121.89 71.99 118.47 75.42 C 114.30 79.19 110.81 84.24 110.17 89.94 C 109.65 93.17 112.68 95.25 114.23 97.69 C 116.05 100.58 118.06 103.39 120.95 105.31 C 123.04 103.13 125.58 99.98 129.03 101.35 C 132.51 102.52 133.32 106.54 133.72 109.74 C 138.07 109.81 142.46 110.17 146.80 109.65 C 149.95 107.87 153.24 105.47 154.47 101.91 C 154.87 99.27 155.02 96.45 153.99 93.92 C 151.58 87.06 147.93 80.43 142.32 75.66 C 138.87 71.56 136.07 66.18 130.17 65.31 M 123.23 107.13 C 125.79 108.06 128.38 108.94 131.01 109.68 C 130.89 106.87 129.14 104.74 127.08 103.02 C 125.78 104.37 124.49 105.74 123.23 107.13 Z" />
<path fill="#0a0a0a" opacity="1.00" d=" M 49.78 93.88 C 55.13 89.74 60.97 85.59 67.87 84.75 C 71.15 84.28 73.85 86.66 76.91 87.44 C 80.90 88.58 83.12 92.51 86.75 94.34 C 85.57 94.94 84.31 95.38 83.13 95.98 C 83.22 96.69 83.30 97.39 83.38 98.09 C 84.86 98.25 85.99 98.93 86.78 100.13 C 85.75 100.15 83.70 100.20 82.68 100.23 C 81.12 96.85 80.47 92.32 76.63 90.70 C 72.42 89.59 68.65 86.09 64.05 87.60 C 59.65 89.36 55.41 91.75 52.00 95.07 C 49.83 97.11 49.62 100.29 48.84 103.00 C 47.90 105.62 49.42 108.07 50.08 110.55 C 50.82 113.72 50.55 117.12 51.82 120.18 C 53.37 122.90 55.73 125.55 58.96 126.10 C 61.87 126.68 64.85 126.33 67.79 126.31 C 67.60 123.09 67.51 119.74 69.06 116.80 C 72.54 115.57 76.35 115.99 79.91 115.17 C 84.15 110.26 88.66 104.34 87.63 97.43 L 86.53 97.43 C 87.00 96.57 87.48 95.73 87.99 94.91 C 90.73 99.28 89.14 104.92 86.96 109.19 C 82.12 116.17 76.51 122.62 70.20 128.29 C 65.86 128.27 61.49 128.70 57.19 128.08 C 54.22 126.44 51.97 123.82 49.48 121.57 C 49.41 117.68 49.44 113.65 47.80 110.03 C 45.19 104.75 48.21 99.02 49.78 93.88 M 70.51 119.59 C 70.43 121.26 70.38 122.94 70.34 124.61 C 73.01 122.79 75.65 120.91 77.95 118.61 C 75.40 117.96 72.87 118.64 70.51 119.59 Z" />
<path fill="#0a0a0a" opacity="1.00" d=" M 111.25 166.34 C 121.19 160.22 130.00 152.42 139.75 146.04 C 140.05 149.23 137.69 151.59 135.14 153.06 C 127.04 157.95 120.13 164.55 111.96 169.33 C 105.25 170.20 98.42 169.59 91.68 169.22 C 91.63 172.32 91.98 175.46 91.49 178.54 C 89.33 182.85 86.00 186.43 83.39 190.47 C 79.80 190.35 75.35 191.50 72.68 188.36 C 71.28 181.18 72.28 173.45 76.31 167.24 C 72.19 163.66 68.01 158.95 68.80 153.05 C 69.17 151.28 68.18 147.56 71.38 148.20 C 71.20 153.51 71.62 159.98 76.39 163.32 C 79.55 164.19 82.79 164.82 86.03 165.30 C 94.42 165.45 102.96 169.18 111.25 166.34 M 78.95 168.96 C 74.78 174.10 74.26 181.13 74.82 187.49 C 77.08 187.67 79.35 187.76 81.62 187.78 C 84.14 184.26 87.06 180.96 88.98 177.05 C 89.59 174.35 89.14 171.50 89.23 168.74 C 85.90 168.53 81.65 165.96 78.95 168.96 Z" />
</g>
<g id="#fefefeff">
<path fill="#fefefe" opacity="1.00" d=" M 96.26 42.92 C 103.41 41.46 110.68 40.26 118.01 40.47 C 120.58 40.34 122.73 41.93 124.97 42.93 C 130.91 45.61 136.26 49.52 140.96 53.99 C 143.84 58.72 145.94 64.04 149.97 68.00 C 153.61 71.42 156.79 75.77 156.95 80.99 C 153.89 77.90 153.49 72.75 149.26 70.77 C 150.19 77.40 155.85 81.58 158.87 87.15 C 163.12 96.90 165.26 107.50 170.02 117.04 L 172.55 118.47 L 170.97 114.95 C 172.78 116.44 173.27 118.75 173.65 120.95 C 172.81 120.28 171.12 118.93 170.28 118.26 C 170.54 122.31 171.34 126.30 172.33 130.23 C 173.51 138.14 172.28 146.16 172.80 154.10 C 174.69 159.01 176.40 165.17 172.91 169.79 C 167.68 177.67 166.00 187.13 162.66 195.82 C 162.34 196.81 162.22 197.84 162.31 198.91 C 123.86 199.07 85.40 198.82 46.95 199.03 C 42.94 192.98 40.67 185.95 40.71 178.65 C 43.18 180.81 44.80 183.68 46.68 186.32 C 48.74 189.19 52.12 190.54 55.24 191.91 C 59.31 193.57 62.76 196.48 67.05 197.63 C 65.23 193.97 61.09 192.95 57.83 191.04 C 54.19 188.95 49.36 187.93 47.41 183.81 C 45.52 180.06 42.13 177.26 40.70 173.27 C 38.45 167.40 38.11 160.97 35.44 155.24 C 33.20 150.59 33.26 145.30 31.46 140.50 C 31.02 132.01 31.59 123.48 31.31 114.98 C 30.88 109.26 35.39 104.70 35.71 99.10 C 36.06 96.00 36.01 92.81 36.87 89.79 C 38.55 86.11 41.93 83.64 44.29 80.43 C 46.41 77.54 48.49 74.60 51.12 72.14 C 54.88 68.50 57.67 64.01 61.45 60.40 C 65.15 56.73 68.28 52.13 73.20 49.99 C 79.33 48.40 85.73 48.49 92.01 48.52 C 97.44 48.45 102.59 50.58 108.02 50.66 C 111.18 50.61 113.84 53.14 117.03 52.60 C 120.07 52.11 123.15 52.23 126.21 52.45 C 126.70 51.76 127.20 51.07 127.69 50.37 C 124.41 50.25 121.12 50.51 117.85 50.20 C 115.51 49.64 113.42 48.38 111.09 47.79 C 107.41 47.77 103.65 49.01 100.08 47.57 C 94.98 45.77 89.51 46.81 84.25 46.19 C 88.05 44.44 92.20 43.77 96.26 42.92 M 122.86 64.59 C 122.34 65.38 121.83 66.18 121.34 66.98 C 123.57 66.46 128.02 65.41 130.25 64.89 C 123.58 67.11 118.91 72.31 114.03 77.00 C 109.99 81.42 107.36 87.82 108.82 93.78 C 112.37 98.89 115.69 104.54 121.02 108.02 C 127.68 111.79 135.57 112.39 143.07 112.12 C 149.15 112.21 154.88 107.72 156.56 101.95 C 157.81 94.65 154.26 87.59 150.18 81.80 C 148.61 79.03 146.71 76.47 144.14 74.56 C 141.78 71.72 140.05 68.24 136.87 66.15 C 132.85 63.23 127.48 63.40 122.86 64.59 M 49.78 93.88 C 48.21 99.02 45.19 104.75 47.80 110.03 C 49.44 113.65 49.41 117.68 49.48 121.57 C 51.97 123.82 54.22 126.44 57.19 128.08 C 61.49 128.70 65.86 128.27 70.20 128.29 C 76.51 122.62 82.12 116.17 86.96 109.19 C 89.14 104.92 90.73 99.28 87.99 94.91 C 87.48 95.73 87.00 96.57 86.53 97.43 L 87.63 97.43 C 88.66 104.34 84.15 110.26 79.91 115.17 C 76.35 115.99 72.54 115.57 69.06 116.80 C 67.51 119.74 67.60 123.09 67.79 126.31 C 64.85 126.33 61.87 126.68 58.96 126.10 C 55.73 125.55 53.37 122.90 51.82 120.18 C 50.55 117.12 50.82 113.72 50.08 110.55 C 49.42 108.07 47.90 105.62 48.84 103.00 C 49.62 100.29 49.83 97.11 52.00 95.07 C 55.41 91.75 59.65 89.36 64.05 87.60 C 68.65 86.09 72.42 89.59 76.63 90.70 C 80.47 92.32 81.12 96.85 82.68 100.23 C 83.70 100.20 85.75 100.15 86.78 100.13 C 85.99 98.93 84.86 98.25 83.38 98.09 C 83.30 97.39 83.22 96.69 83.13 95.98 C 84.31 95.38 85.57 94.94 86.75 94.34 C 83.12 92.51 80.90 88.58 76.91 87.44 C 73.85 86.66 71.15 84.28 67.87 84.75 C 60.97 85.59 55.13 89.74 49.78 93.88 M 111.25 166.34 C 102.96 169.18 94.42 165.45 86.03 165.30 C 82.79 164.82 79.55 164.19 76.39 163.32 C 71.62 159.98 71.20 153.51 71.38 148.20 C 68.18 147.56 69.17 151.28 68.80 153.05 C 68.01 158.95 72.19 163.66 76.31 167.24 C 72.28 173.45 71.28 181.18 72.68 188.36 C 75.35 191.50 79.80 190.35 83.39 190.47 C 86.00 186.43 89.33 182.85 91.49 178.54 C 91.98 175.46 91.63 172.32 91.68 169.22 C 98.42 169.59 105.25 170.20 111.96 169.33 C 120.13 164.55 127.04 157.95 135.14 153.06 C 137.69 151.59 140.05 149.23 139.75 146.04 C 130.00 152.42 121.19 160.22 111.25 166.34 Z" />
<path fill="#fefefe" opacity="1.00" d=" M 130.17 65.31 C 136.07 66.18 138.87 71.56 142.32 75.66 C 147.93 80.43 151.58 87.06 153.99 93.92 C 155.02 96.45 154.87 99.27 154.47 101.91 C 153.24 105.47 149.95 107.87 146.80 109.65 C 142.46 110.17 138.07 109.81 133.72 109.74 C 133.32 106.54 132.51 102.52 129.03 101.35 C 125.58 99.98 123.04 103.13 120.95 105.31 C 118.06 103.39 116.05 100.58 114.23 97.69 C 112.68 95.25 109.65 93.17 110.17 89.94 C 110.81 84.24 114.30 79.19 118.47 75.42 C 121.89 71.99 125.63 68.62 130.41 67.29 C 130.35 66.80 130.23 65.81 130.17 65.31 Z" />
<path fill="#fefefe" opacity="1.00" d=" M 165.56 98.69 C 166.06 98.69 167.04 98.69 167.53 98.69 C 168.55 99.65 167.80 101.99 166.23 101.48 C 165.15 100.77 164.93 99.84 165.56 98.69 Z" />
<path fill="#fefefe" opacity="1.00" d=" M 123.23 107.13 C 124.49 105.74 125.78 104.37 127.08 103.02 C 129.14 104.74 130.89 106.87 131.01 109.68 C 128.38 108.94 125.79 108.06 123.23 107.13 Z" />
<path fill="#fefefe" opacity="1.00" d=" M 166.65 102.70 C 171.38 103.39 171.44 109.03 172.64 112.63 C 172.13 113.37 171.62 114.10 171.10 114.83 C 170.51 110.48 167.60 106.95 166.65 102.70 Z" />
<path fill="#fefefe" opacity="1.00" d=" M 70.51 119.59 C 72.87 118.64 75.40 117.96 77.95 118.61 C 75.65 120.91 73.01 122.79 70.34 124.61 C 70.38 122.94 70.43 121.26 70.51 119.59 Z" />
<path fill="#fefefe" opacity="1.00" d=" M 29.99 141.77 C 31.48 146.65 31.70 151.85 33.54 156.64 C 35.62 161.92 37.10 167.42 38.42 172.93 C 35.47 168.21 31.86 163.62 30.98 157.97 C 30.28 153.61 29.58 149.24 28.75 144.90 C 29.06 144.12 29.68 142.55 29.99 141.77 Z" />
<path fill="#fefefe" opacity="1.00" d=" M 78.95 168.96 C 81.65 165.96 85.90 168.53 89.23 168.74 C 89.14 171.50 89.59 174.35 88.98 177.05 C 87.06 180.96 84.14 184.26 81.62 187.78 C 79.35 187.76 77.08 187.67 74.82 187.49 C 74.26 181.13 74.78 174.10 78.95 168.96 Z" />
</g>
</svg>
