<?xml version="1.0" encoding="UTF-8" ?>
<!DOCTYPE svg PUBLIC "-//W3C//DTD SVG 1.1//EN" "http://www.w3.org/Graphics/SVG/1.1/DTD/svg11.dtd">
<svg width="210pt" height="220pt" viewBox="0 0 210 220" version="1.1" xmlns="http://www.w3.org/2000/svg">
<g id="#33333347">
<path fill="#333333" opacity="0.28" d=" M 139.07 38.22 C 141.99 38.25 143.95 35.23 146.93 35.59 C 151.95 35.62 156.99 35.81 161.98 35.11 C 164.27 35.05 167.88 34.15 168.77 37.11 C 166.01 36.29 163.13 36.34 160.34 36.93 C 154.17 38.14 147.75 36.30 141.69 38.22 C 137.60 39.54 133.30 39.66 129.04 39.63 C 132.28 38.54 135.70 38.47 139.07 38.22 Z" />
<path fill="#333333" opacity="0.28" d=" M 186.73 46.29 C 188.24 44.92 190.98 47.36 189.88 49.02 C 188.72 48.24 187.69 47.29 186.73 46.29 Z" />
<path fill="#333333" opacity="0.28" d=" M 101.23 59.22 C 100.06 57.73 102.32 54.90 103.93 56.15 C 103.23 57.33 102.32 58.37 101.23 59.22 Z" />
<path fill="#333333" opacity="0.28" d=" M 100.09 114.90 C 100.96 115.41 101.59 116.13 101.97 117.07 C 100.20 117.43 99.58 116.71 100.09 114.90 Z" />
<path fill="#333333" opacity="0.28" d=" M 188.83 129.54 C 190.02 128.21 191.32 126.99 192.75 125.93 C 193.71 128.02 190.87 130.74 188.83 129.54 Z" />
<path fill="#333333" opacity="0.28" d=" M 176.80 135.74 C 178.85 134.44 181.08 133.52 183.37 132.77 C 181.74 133.84 180.03 134.78 178.34 135.75 C 178.85 136.93 179.37 138.12 179.88 139.32 C 178.88 138.10 177.83 136.92 176.80 135.74 Z" />
<path fill="#333333" opacity="0.28" d=" M 173.06 158.41 C 174.91 154.76 175.55 150.01 179.34 147.76 C 179.43 154.86 179.79 162.11 177.75 169.00 C 175.70 176.00 174.07 183.19 170.90 189.79 C 170.71 189.96 170.32 190.30 170.12 190.48 C 174.84 177.54 179.75 164.05 178.49 150.04 C 175.48 151.91 175.87 156.26 173.06 158.41 Z" />
<path fill="#333333" opacity="0.28" d=" M 170.89 155.44 C 170.51 153.68 171.15 151.80 172.87 151.02 C 172.99 152.75 172.46 154.52 170.89 155.44 Z" />
<path fill="#333333" opacity="0.28" d=" M 192.06 169.17 C 192.35 169.57 192.92 170.38 193.21 170.78 C 193.62 177.03 193.11 183.34 193.39 189.61 C 192.33 189.69 191.27 189.77 190.21 189.85 C 190.08 183.38 190.26 176.92 189.34 170.50 C 191.06 176.77 189.67 183.31 190.63 189.68 C 191.20 189.32 192.34 188.60 192.91 188.24 C 193.45 181.91 193.60 175.39 192.06 169.17 Z" />
<path fill="#333333" opacity="0.28" d=" M 174.11 190.09 C 175.63 186.12 176.80 182.03 177.96 177.94 C 177.96 178.57 177.95 179.82 177.95 180.45 C 177.01 183.74 176.66 187.57 174.11 190.09 Z" />
</g>
<g id="#000000ff">
<path fill="#000000" opacity="1.00" d=" M 160.34 36.93 C 163.13 36.34 166.01 36.29 168.77 37.11 C 171.28 37.92 174.03 38.52 176.07 40.28 C 177.31 41.80 179.05 42.70 180.97 43.08 C 181.60 43.37 182.87 43.94 183.50 44.23 C 183.53 44.24 183.59 44.28 183.62 44.29 C 184.70 44.88 185.74 45.55 186.73 46.29 C 187.69 47.29 188.72 48.24 189.88 49.02 C 193.45 51.94 195.01 56.58 196.18 60.90 C 197.14 64.74 199.97 68.07 199.58 72.21 C 199.30 76.51 199.92 80.77 200.42 85.03 C 201.23 97.30 200.34 109.91 195.89 121.48 C 195.61 122.01 195.04 123.06 194.76 123.59 C 194.74 123.61 194.71 123.66 194.70 123.68 C 194.21 124.24 193.24 125.37 192.75 125.93 C 191.32 126.99 190.02 128.21 188.83 129.54 L 187.54 130.54 C 187.51 130.56 187.46 130.59 187.43 130.61 C 186.14 131.44 184.81 132.23 183.37 132.77 C 181.08 133.52 178.85 134.44 176.80 135.74 C 177.83 136.92 178.88 138.10 179.88 139.32 C 180.12 139.75 180.60 140.63 180.84 141.06 C 181.01 142.18 181.60 142.94 182.60 143.35 L 183.44 143.72 C 183.53 144.37 183.69 145.67 183.78 146.32 C 183.82 147.80 184.60 149.10 185.54 150.20 L 186.46 151.43 C 186.47 151.45 186.50 151.51 186.52 151.53 L 187.03 152.54 C 187.98 155.93 188.90 159.34 189.89 162.73 L 189.94 163.26 C 190.18 163.73 190.66 164.67 190.90 165.13 C 191.35 166.46 191.71 167.82 192.06 169.17 C 193.60 175.39 193.45 181.91 192.91 188.24 C 192.34 188.60 191.20 189.32 190.63 189.68 C 189.67 183.31 191.06 176.77 189.34 170.50 L 189.22 169.75 C 189.24 168.71 188.94 167.78 188.30 166.96 C 187.74 166.01 187.33 165.01 187.05 163.95 C 185.98 159.52 185.09 154.94 182.54 151.08 C 182.48 151.49 182.36 152.32 182.30 152.73 C 181.52 156.12 181.95 159.62 181.73 163.06 C 181.48 169.19 178.66 174.82 177.95 180.88 L 177.95 180.45 C 177.95 179.82 177.96 178.57 177.96 177.94 C 176.80 182.03 175.63 186.12 174.11 190.09 C 173.30 190.02 171.70 189.86 170.90 189.79 C 174.07 183.19 175.70 176.00 177.75 169.00 C 179.79 162.11 179.43 154.86 179.34 147.76 C 175.55 150.01 174.91 154.76 173.06 158.41 L 172.69 159.01 C 171.82 160.20 171.09 161.52 170.89 163.00 C 170.40 165.07 169.83 167.16 168.68 168.98 C 167.87 170.19 167.14 171.47 166.80 172.90 L 166.28 174.54 C 165.80 172.77 165.66 170.96 165.90 169.15 C 166.33 168.17 166.66 167.16 166.87 166.11 C 167.03 165.49 167.35 164.27 167.51 163.65 C 167.55 163.54 167.61 163.33 167.64 163.22 L 167.82 162.61 C 168.11 161.96 168.68 160.66 168.97 160.01 C 169.61 158.49 170.25 156.96 170.89 155.44 C 172.46 154.52 172.99 152.75 172.87 151.02 L 173.21 150.65 C 176.56 148.18 176.81 143.71 176.63 139.90 L 175.88 138.62 C 175.60 138.26 175.03 137.54 174.75 137.17 L 174.42 136.72 C 171.25 137.19 166.96 140.77 164.41 137.57 L 164.42 137.28 C 171.48 135.14 177.95 131.61 184.56 128.42 C 193.01 124.10 196.41 113.94 196.92 105.04 C 198.05 96.77 198.09 88.25 196.85 79.99 C 196.53 76.01 196.98 71.79 195.19 68.09 C 192.40 62.18 192.01 54.84 186.69 50.39 C 180.28 45.47 172.92 41.60 165.06 39.66 C 159.03 40.40 152.96 40.32 146.89 40.42 C 141.90 43.51 135.44 41.45 129.99 43.19 C 123.30 45.52 116.32 48.03 111.17 53.10 C 106.49 57.55 102.38 62.64 99.37 68.37 C 96.87 73.26 96.96 78.86 95.36 84.01 C 93.81 89.05 95.83 94.18 96.58 99.17 C 98.16 105.21 101.07 110.90 104.92 115.83 L 104.80 116.12 C 104.51 117.28 104.27 118.46 104.08 119.65 L 103.51 118.98 C 103.12 118.50 102.35 117.55 101.97 117.07 C 101.59 116.13 100.96 115.41 100.09 114.90 C 99.86 114.60 99.41 114.01 99.18 113.71 C 96.82 108.27 94.09 102.90 93.12 96.99 C 90.72 86.26 93.94 75.38 97.13 65.17 C 97.36 64.90 97.81 64.36 98.03 64.08 C 98.32 63.64 98.91 62.76 99.20 62.32 C 99.28 60.99 100.31 60.05 101.23 59.22 C 102.32 58.37 103.23 57.33 103.93 56.15 C 105.38 54.22 106.94 52.03 109.29 51.17 C 110.38 50.96 111.01 50.30 111.19 49.21 C 111.22 47.99 112.37 47.44 113.27 46.94 C 118.27 44.31 123.66 42.51 128.64 39.85 L 129.04 39.63 C 133.30 39.66 137.60 39.54 141.69 38.22 C 147.75 36.30 154.17 38.14 160.34 36.93 Z" />
<path fill="#000000" opacity="1.00" d=" M 105.13 62.89 C 106.37 62.14 107.62 61.39 108.86 60.62 C 112.51 60.12 115.84 61.98 118.38 64.44 C 119.84 66.75 120.50 70.15 118.58 72.40 C 116.66 75.15 113.25 76.45 109.99 76.50 C 108.34 75.53 106.58 74.76 104.79 74.11 C 102.39 71.24 103.32 67.32 104.10 64.02 L 105.80 64.86 C 105.63 64.37 105.30 63.39 105.13 62.89 M 109.89 62.12 C 110.79 63.30 111.92 64.26 112.91 65.35 C 113.30 65.37 114.10 65.42 114.49 65.44 C 114.45 65.02 114.37 64.17 114.33 63.75 C 112.92 63.03 111.45 62.43 109.89 62.12 Z" />
<path fill="#000000" opacity="1.00" d=" M 165.89 64.98 C 166.55 62.67 168.98 61.84 170.77 60.59 C 174.44 60.17 177.85 61.94 180.37 64.48 C 181.83 66.78 182.44 70.23 180.52 72.44 C 178.59 75.15 175.23 76.41 172.00 76.47 C 170.32 75.54 168.57 74.78 166.78 74.12 C 164.65 71.58 165.01 67.95 165.89 64.98 M 173.18 63.21 C 175.00 64.61 176.69 66.45 179.07 66.81 C 177.75 64.72 175.96 62.51 173.18 63.21 Z" />
<path fill="#000000" opacity="1.00" d=" M 114.05 87.89 C 116.99 86.57 119.72 84.72 122.86 83.87 C 128.91 83.08 134.93 84.48 140.98 84.36 C 149.18 83.63 153.81 93.64 162.00 92.88 C 165.71 89.48 169.81 86.55 173.73 83.39 C 175.71 83.43 177.69 83.50 179.67 83.66 C 178.37 86.17 175.15 84.66 173.28 86.22 C 171.21 87.87 169.18 89.56 166.99 91.04 C 163.84 93.14 163.76 97.31 162.46 100.51 C 162.17 100.50 161.60 100.47 161.31 100.46 C 159.59 98.79 158.07 96.89 156.14 95.45 C 154.26 95.23 152.51 96.09 150.74 96.55 C 147.22 97.89 143.43 97.36 139.76 97.32 C 136.88 97.22 133.81 97.36 131.69 99.60 L 131.45 99.64 C 129.21 100.00 126.94 100.23 124.77 100.88 C 122.21 101.67 120.33 103.76 117.86 104.69 C 115.11 105.39 112.27 105.68 109.51 106.32 C 109.00 101.44 111.18 96.97 112.02 92.27 C 110.87 93.35 109.73 94.44 108.61 95.55 C 108.25 95.03 107.89 94.52 107.53 94.01 C 109.51 91.79 111.18 89.06 114.05 87.89 M 119.28 87.96 C 120.57 89.20 122.13 90.11 123.71 90.94 C 123.80 89.10 123.83 87.26 123.83 85.43 C 122.30 86.20 120.03 86.19 119.28 87.96 M 125.69 85.70 C 125.68 87.36 125.68 89.01 125.68 90.67 C 127.55 90.66 129.41 90.66 131.28 90.65 C 131.27 89.00 131.27 87.36 131.26 85.71 C 129.40 85.70 127.54 85.70 125.69 85.70 M 133.21 86.12 C 133.21 87.61 133.20 89.11 133.19 90.60 C 135.35 90.65 137.52 90.67 139.68 90.75 C 139.73 89.25 139.78 87.74 139.83 86.23 C 137.62 86.23 135.41 86.20 133.21 86.12 M 141.75 86.01 C 141.75 87.20 141.74 89.58 141.73 90.76 C 143.83 90.59 145.80 89.68 146.90 87.82 C 145.27 86.97 143.60 86.17 141.75 86.01 Z" />
</g>
<g id="#13131362">
<path fill="#131313" opacity="0.38" d=" M 113.27 46.94 C 117.55 43.19 123.06 40.82 128.64 39.85 C 123.66 42.51 118.27 44.31 113.27 46.94 Z" />
</g>
<g id="#ffffffff">
<path fill="#ffffff" opacity="1.00" d=" M 146.89 40.42 C 152.96 40.32 159.03 40.40 165.06 39.66 C 172.92 41.60 180.28 45.47 186.69 50.39 C 192.01 54.84 192.40 62.18 195.19 68.09 C 196.98 71.79 196.53 76.01 196.85 79.99 C 198.09 88.25 198.05 96.77 196.92 105.04 C 196.41 113.94 193.01 124.10 184.56 128.42 C 177.95 131.61 171.48 135.14 164.42 137.28 C 164.68 131.24 164.37 125.18 164.69 119.14 C 165.93 120.01 167.35 120.53 168.85 120.70 C 167.83 118.98 166.65 117.35 165.54 115.68 C 165.87 110.79 165.79 105.75 163.46 101.31 C 162.56 100.89 161.60 100.76 160.61 100.90 C 160.09 100.85 159.58 100.78 159.07 100.69 C 159.63 100.63 160.75 100.52 161.31 100.46 C 161.60 100.47 162.17 100.50 162.46 100.51 C 163.76 97.31 163.84 93.14 166.99 91.04 C 169.18 89.56 171.21 87.87 173.28 86.22 C 175.15 84.66 178.37 86.17 179.67 83.66 C 177.69 83.50 175.71 83.43 173.73 83.39 C 169.81 86.55 165.71 89.48 162.00 92.88 C 153.81 93.64 149.18 83.63 140.98 84.36 C 134.93 84.48 128.91 83.08 122.86 83.87 C 119.72 84.72 116.99 86.57 114.05 87.89 C 111.18 89.06 109.51 91.79 107.53 94.01 C 107.89 94.52 108.25 95.03 108.61 95.55 C 109.73 94.44 110.87 93.35 112.02 92.27 C 111.18 96.97 109.00 101.44 109.51 106.32 C 109.50 106.82 109.49 107.82 109.48 108.32 C 108.94 108.73 108.40 109.14 107.88 109.55 C 106.16 109.54 105.28 111.40 106.46 112.70 C 106.07 113.48 105.30 115.04 104.92 115.83 C 101.07 110.90 98.16 105.21 96.58 99.17 C 95.83 94.18 93.81 89.05 95.36 84.01 C 96.96 78.86 96.87 73.26 99.37 68.37 C 102.38 62.64 106.49 57.55 111.17 53.10 C 116.32 48.03 123.30 45.52 129.99 43.19 C 135.44 41.45 141.90 43.51 146.89 40.42 M 105.13 62.89 C 105.30 63.39 105.63 64.37 105.80 64.86 L 104.10 64.02 C 103.32 67.32 102.39 71.24 104.79 74.11 C 106.58 74.76 108.34 75.53 109.99 76.50 C 113.25 76.45 116.66 75.15 118.58 72.40 C 120.50 70.15 119.84 66.75 118.38 64.44 C 115.84 61.98 112.51 60.12 108.86 60.62 C 107.62 61.39 106.37 62.14 105.13 62.89 M 165.89 64.98 C 165.01 67.95 164.65 71.58 166.78 74.12 C 168.57 74.78 170.32 75.54 172.00 76.47 C 175.23 76.41 178.59 75.15 180.52 72.44 C 182.44 70.23 181.83 66.78 180.37 64.48 C 177.85 61.94 174.44 60.17 170.77 60.59 C 168.98 61.84 166.55 62.67 165.89 64.98 M 164.13 78.34 C 164.01 80.24 164.98 81.98 167.02 82.27 C 172.26 83.20 177.63 82.07 182.72 80.82 C 183.36 78.64 180.69 77.79 179.01 78.05 C 174.06 78.62 169.09 78.42 164.13 78.34 M 104.79 79.93 C 105.43 80.86 106.08 81.80 106.73 82.75 C 109.51 81.69 113.26 81.99 115.18 79.38 C 111.73 78.59 107.97 77.99 104.79 79.93 M 166.39 99.04 C 166.26 101.50 165.50 104.97 168.35 106.18 C 171.10 101.09 173.39 95.80 175.53 90.43 C 170.73 89.97 166.80 94.54 166.39 99.04 Z" />
<path fill="#ffffff" opacity="1.00" d=" M 0.00 59.46 C 12.33 60.16 24.67 59.40 37.01 59.73 C 40.61 60.12 44.20 60.58 47.82 60.63 C 45.29 63.56 40.56 64.81 40.02 69.11 C 26.63 68.43 13.35 70.80 0.00 70.72 L 0.00 59.46 Z" />
<path fill="#ffffff" opacity="1.00" d=" M 42.53 67.44 C 45.30 65.27 48.15 63.19 50.76 60.82 C 54.85 68.19 59.16 75.43 63.13 82.86 C 65.20 87.15 65.71 92.00 67.47 96.41 C 68.91 100.28 71.45 103.81 71.61 108.08 C 71.94 111.80 74.52 114.76 75.44 118.31 C 76.13 121.02 76.52 123.81 77.44 126.46 C 78.70 130.13 77.77 134.12 79.04 137.79 C 79.76 140.63 79.75 143.57 79.95 146.48 C 79.95 153.26 79.38 160.10 80.51 166.83 C 79.28 168.53 78.51 170.95 76.48 171.85 C 69.15 172.04 61.76 171.21 54.49 172.39 L 54.44 172.39 C 54.18 164.59 54.46 156.78 54.32 148.98 C 53.60 142.26 52.46 135.59 51.67 128.89 C 51.68 120.54 49.56 112.39 49.48 104.04 C 48.26 96.26 47.06 88.42 44.52 80.92 C 44.19 76.35 41.07 72.10 42.53 67.44 Z" />
<path fill="#ffffff" opacity="1.00" d=" M 0.00 73.13 C 13.43 72.07 26.89 70.54 40.39 70.80 C 41.88 76.29 37.73 80.60 34.76 84.69 C 28.57 92.14 22.60 99.93 14.96 105.98 C 10.56 110.80 4.98 114.21 0.00 118.34 L 0.00 73.13 Z" />
<path fill="#ffffff" opacity="1.00" d=" M 30.38 93.27 C 34.48 88.03 39.25 83.19 42.08 77.08 C 41.90 81.41 43.93 85.30 44.85 89.43 C 45.74 92.52 45.80 95.76 46.52 98.88 C 48.22 105.10 47.60 111.65 48.66 117.99 C 49.96 123.96 49.25 130.16 50.61 136.13 C 52.79 147.74 52.40 159.53 52.33 171.28 C 39.52 170.91 26.80 172.80 13.99 172.90 C 9.72 173.08 5.56 174.19 1.30 174.48 C 1.51 161.32 1.42 148.15 0.93 135.00 C 0.87 132.16 0.47 129.34 0.00 126.54 L 0.00 120.76 C 11.07 112.73 21.45 103.65 30.38 93.27 Z" />
<path fill="#ffffff" opacity="1.00" d=" M 119.28 87.96 C 120.03 86.19 122.30 86.20 123.83 85.43 C 123.83 87.26 123.80 89.10 123.71 90.94 C 122.13 90.11 120.57 89.20 119.28 87.96 Z" />
<path fill="#ffffff" opacity="1.00" d=" M 133.21 86.12 C 135.41 86.20 137.62 86.23 139.83 86.23 C 139.78 87.74 139.73 89.25 139.68 90.75 C 137.52 90.67 135.35 90.65 133.19 90.60 C 133.20 89.11 133.21 87.61 133.21 86.12 Z" />
<path fill="#ffffff" opacity="1.00" d=" M 141.75 86.01 C 143.60 86.17 145.27 86.97 146.90 87.82 C 145.80 89.68 143.83 90.59 141.73 90.76 C 141.74 89.58 141.75 87.20 141.75 86.01 Z" />
<path fill="#ffffff" opacity="1.00" d=" M 16.56 189.96 C 17.05 184.89 16.54 179.77 17.25 174.71 C 20.75 174.71 24.23 174.46 27.72 174.25 C 27.86 179.50 27.49 184.78 28.43 189.97 C 24.48 189.94 20.52 189.96 16.56 189.96 Z" />
<path fill="#ffffff" opacity="1.00" d=" M 6.43 177.80 C 8.67 177.52 10.93 177.47 13.18 177.40 C 13.09 180.29 13.30 183.17 13.46 186.05 C 13.39 187.35 13.34 188.65 13.30 189.95 C 8.87 189.95 4.43 189.97 0.00 189.95 L 0.00 180.62 C 2.15 179.69 4.33 178.82 6.43 177.80 Z" />
</g>
<g id="#191919bb">
<path fill="#191919" opacity="0.73" d=" M 176.07 40.28 C 177.82 39.50 181.11 41.04 180.97 43.08 C 179.05 42.70 177.31 41.80 176.07 40.28 Z" />
</g>
<g id="#303030a2">
<path fill="#303030" opacity="0.64" d=" M 183.50 44.23 C 183.53 44.24 183.59 44.28 183.62 44.29 C 183.59 44.28 183.53 44.24 183.50 44.23 Z" />
</g>
<g id="#1a1a1ac0">
<path fill="#1a1a1a" opacity="0.75" d=" M 109.29 51.17 C 108.91 49.55 109.54 48.89 111.19 49.21 C 111.01 50.30 110.38 50.96 109.29 51.17 Z" />
</g>
<g id="#3b554960">
<path fill="#3b5549" opacity="0.38" d=" M 0.00 54.60 C 7.00 57.87 14.71 55.34 22.06 55.67 C 32.36 55.87 42.67 54.61 52.95 55.03 C 56.13 57.02 56.83 61.03 58.00 64.31 C 56.42 61.40 54.92 58.43 53.07 55.67 C 50.89 55.48 48.69 55.46 46.51 55.59 C 41.66 55.76 36.83 56.24 31.98 56.18 C 27.90 56.16 23.82 56.17 19.74 56.31 C 17.65 56.38 15.56 56.46 13.47 56.64 C 10.40 56.94 6.88 55.95 4.23 57.96 C 3.32 56.49 1.59 56.01 0.00 55.70 L 0.00 54.60 Z" />
</g>
<g id="#e2374fec">
<path fill="#e2374f" opacity="0.93" d=" M 0.00 55.70 C 1.59 56.01 3.32 56.49 4.23 57.96 L 3.94 58.54 C 2.92 58.61 1.95 58.44 1.05 58.00 C 0.79 57.59 0.26 56.77 0.00 56.36 L 0.00 55.70 Z" />
</g>
<g id="#fa5effff">
<path fill="#fa5eff" opacity="1.00" d=" M 13.47 56.64 C 15.56 56.46 17.65 56.38 19.74 56.31 C 20.31 56.76 21.46 57.65 22.03 58.10 C 18.78 57.65 15.49 57.62 12.22 57.81 L 13.47 56.64 Z" />
<path fill="#fa5eff" opacity="1.00" d=" M 5.40 175.39 C 8.39 174.68 11.44 174.36 14.51 174.44 C 14.11 178.31 13.83 182.19 13.46 186.05 C 13.30 183.17 13.09 180.29 13.18 177.40 C 10.93 177.47 8.67 177.52 6.43 177.80 C 5.09 178.04 3.75 178.33 2.42 178.63 C 3.43 177.56 4.42 176.47 5.40 175.39 Z" />
</g>
<g id="#5a5fd7df">
<path fill="#5a5fd7" opacity="0.87" d=" M 19.74 56.31 C 23.82 56.17 27.90 56.16 31.98 56.18 C 32.04 56.61 32.18 57.46 32.24 57.89 C 28.85 57.45 25.39 57.49 22.03 58.10 C 21.46 57.65 20.31 56.76 19.74 56.31 Z" />
</g>
<g id="#3cb7c2f8">
<path fill="#3cb7c2" opacity="0.97" d=" M 31.98 56.18 C 36.83 56.24 41.66 55.76 46.51 55.59 C 45.08 56.81 43.57 57.97 41.80 58.65 C 39.01 58.67 36.22 58.58 33.43 58.48 C 33.13 58.33 32.54 58.04 32.24 57.89 C 32.18 57.46 32.04 56.61 31.98 56.18 Z" />
</g>
<g id="#5bffa6ff">
<path fill="#5bffa6" opacity="1.00" d=" M 46.51 55.59 C 48.69 55.46 50.89 55.48 53.07 55.67 C 52.75 56.41 52.10 57.89 51.78 58.63 C 48.45 58.60 45.13 58.60 41.80 58.65 C 43.57 57.97 45.08 56.81 46.51 55.59 Z" />
<path fill="#5bffa6" opacity="1.00" d=" M 35.88 173.32 C 39.93 173.33 43.98 173.10 48.01 172.66 C 47.80 173.42 47.38 174.95 47.17 175.72 C 45.74 175.96 44.30 175.71 42.88 175.56 C 40.74 174.29 38.43 173.22 35.88 173.32 Z" />
</g>
<g id="#010101ff">
<path fill="#010101" opacity="1.00" d=" M 0.00 56.36 C 0.26 56.77 0.79 57.59 1.05 58.00 C 1.95 58.44 2.92 58.61 3.94 58.54 L 5.16 58.68 C 10.21 60.15 15.65 59.91 20.70 58.58 C 24.94 58.50 29.18 58.55 33.43 58.48 C 36.22 58.58 39.01 58.67 41.80 58.65 C 45.13 58.60 48.45 58.60 51.78 58.63 C 55.80 67.05 60.73 74.99 64.94 83.32 C 67.25 89.67 68.49 96.41 71.98 102.29 C 73.30 105.61 73.36 109.31 74.94 112.54 C 76.99 116.29 77.64 120.52 78.65 124.62 C 78.87 129.00 79.55 133.40 79.04 137.79 C 77.77 134.12 78.70 130.13 77.44 126.46 C 76.52 123.81 76.13 121.02 75.44 118.31 C 74.52 114.76 71.94 111.80 71.61 108.08 C 71.45 103.81 68.91 100.28 67.47 96.41 C 65.71 92.00 65.20 87.15 63.13 82.86 C 59.16 75.43 54.85 68.19 50.76 60.82 C 48.15 63.19 45.30 65.27 42.53 67.44 C 41.07 72.10 44.19 76.35 44.52 80.92 C 47.06 88.42 48.26 96.26 49.48 104.04 C 49.56 112.39 51.68 120.54 51.67 128.89 C 52.46 135.59 53.60 142.26 54.32 148.98 C 54.46 156.78 54.18 164.59 54.44 172.39 C 52.62 172.47 50.80 172.56 48.98 172.62 L 48.01 172.66 C 43.98 173.10 39.93 173.33 35.88 173.32 C 34.27 173.36 32.67 173.44 31.07 173.56 C 31.00 174.96 31.00 176.37 31.06 177.78 C 31.35 181.85 31.38 185.92 31.48 190.00 C 30.72 189.99 29.20 189.98 28.43 189.97 C 27.49 184.78 27.86 179.50 27.72 174.25 C 24.23 174.46 20.75 174.71 17.25 174.71 C 16.54 179.77 17.05 184.89 16.56 189.96 C 15.47 189.95 14.39 189.95 13.30 189.95 C 13.34 188.65 13.39 187.35 13.46 186.05 C 13.83 182.19 14.11 178.31 14.51 174.44 C 11.44 174.36 8.39 174.68 5.40 175.39 C 3.61 175.60 1.80 175.71 0.00 175.83 L 0.00 174.59 L 1.30 174.48 C 5.56 174.19 9.72 173.08 13.99 172.90 C 26.80 172.80 39.52 170.91 52.33 171.28 C 52.40 159.53 52.79 147.74 50.61 136.13 C 49.25 130.16 49.96 123.96 48.66 117.99 C 47.60 111.65 48.22 105.10 46.52 98.88 C 45.80 95.76 45.74 92.52 44.85 89.43 C 43.93 85.30 41.90 81.41 42.08 77.08 C 39.25 83.19 34.48 88.03 30.38 93.27 C 21.45 103.65 11.07 112.73 0.00 120.76 L 0.00 118.34 C 4.98 114.21 10.56 110.80 14.96 105.98 C 22.60 99.93 28.57 92.14 34.76 84.69 C 37.73 80.60 41.88 76.29 40.39 70.80 C 26.89 70.54 13.43 72.07 0.00 73.13 L 0.00 70.72 C 13.35 70.80 26.63 68.43 40.02 69.11 C 40.56 64.81 45.29 63.56 47.82 60.63 C 44.20 60.58 40.61 60.12 37.01 59.73 C 24.67 59.40 12.33 60.16 0.00 59.46 L 0.00 56.36 Z" />
<path fill="#010101" opacity="1.00" d=" M 164.71 118.45 C 164.74 117.05 164.68 115.64 164.58 114.24 L 165.54 115.68 C 166.65 117.35 167.83 118.98 168.85 120.70 C 167.35 120.53 165.93 120.01 164.69 119.14 L 164.71 118.45 Z" />
</g>
<g id="#d048b5dd">
<path fill="#d048b5" opacity="0.87" d=" M 4.23 57.96 C 6.88 55.95 10.40 56.94 13.47 56.64 L 12.22 57.81 C 9.88 58.19 7.52 58.48 5.16 58.68 L 3.94 58.54 L 4.23 57.96 Z" />
</g>
<g id="#77d839e5">
<path fill="#77d839" opacity="0.90" d=" M 51.78 58.63 C 52.10 57.89 52.75 56.41 53.07 55.67 C 54.92 58.43 56.42 61.40 58.00 64.31 C 59.83 68.19 61.94 71.93 64.22 75.56 C 65.06 77.37 65.82 79.21 66.60 81.05 C 66.18 81.62 65.35 82.75 64.94 83.32 C 60.73 74.99 55.80 67.05 51.78 58.63 Z" />
</g>
<g id="#8e0b9aff">
<path fill="#8e0b9a" opacity="1.00" d=" M 5.16 58.68 C 7.52 58.48 9.88 58.19 12.22 57.81 C 15.49 57.62 18.78 57.65 22.03 58.10 L 20.70 58.58 C 15.65 59.91 10.21 60.15 5.16 58.68 Z" />
</g>
<g id="#1239ffff">
<path fill="#1239ff" opacity="1.00" d=" M 22.03 58.10 C 25.39 57.49 28.85 57.45 32.24 57.89 C 32.54 58.04 33.13 58.33 33.43 58.48 C 29.18 58.55 24.94 58.50 20.70 58.58 L 22.03 58.10 Z" />
<path fill="#1239ff" opacity="1.00" d=" M 150.21 98.58 C 153.18 99.20 156.09 100.12 159.07 100.69 C 159.58 100.78 160.09 100.85 160.61 100.90 C 160.88 102.51 161.76 103.27 163.24 103.21 C 163.19 106.93 163.66 110.64 164.58 114.24 C 164.68 115.64 164.74 117.05 164.71 118.45 L 164.69 119.14 C 164.37 125.18 164.68 131.24 164.42 137.28 L 164.41 137.57 L 164.33 137.46 L 164.12 137.18 C 160.45 136.74 156.74 136.71 153.06 137.01 C 153.48 131.04 153.26 125.04 153.25 119.06 C 153.30 112.08 150.28 105.55 150.21 98.58 Z" />
<path fill="#1239ff" opacity="1.00" d=" M 152.66 139.33 C 156.48 139.77 160.32 139.90 164.17 139.85 L 164.22 139.85 C 164.33 150.27 164.33 160.69 164.30 171.11 C 164.26 171.47 164.20 172.18 164.17 172.54 C 160.72 178.28 157.68 184.28 153.85 189.78 L 152.51 190.09 C 152.30 173.54 152.52 156.98 152.50 140.43 L 152.66 139.33 Z" />
</g>
<g id="#1e1e1e69">
<path fill="#1e1e1e" opacity="0.41" d=" M 98.29 62.33 L 99.20 62.32 C 98.91 62.76 98.32 63.64 98.03 64.08 L 97.69 63.23 L 98.29 62.33 Z" />
</g>
<g id="#fdfdfdff">
<path fill="#fdfdfd" opacity="1.00" d=" M 109.89 62.12 C 111.45 62.43 112.92 63.03 114.33 63.75 C 114.37 64.17 114.45 65.02 114.49 65.44 C 114.10 65.42 113.30 65.37 112.91 65.35 C 111.92 64.26 110.79 63.30 109.89 62.12 Z" />
<path fill="#fdfdfd" opacity="1.00" d=" M 173.18 63.21 C 175.96 62.51 177.75 64.72 179.07 66.81 C 176.69 66.45 175.00 64.61 173.18 63.21 Z" />
<path fill="#fdfdfd" opacity="1.00" d=" M 125.69 85.70 C 127.54 85.70 129.40 85.70 131.26 85.71 C 131.27 87.36 131.27 89.00 131.28 90.65 C 129.41 90.66 127.55 90.66 125.68 90.67 C 125.68 89.01 125.68 87.36 125.69 85.70 Z" />
<path fill="#fdfdfd" opacity="1.00" d=" M 97.89 187.64 L 98.22 186.89 C 98.74 186.83 99.79 186.70 100.31 186.63 C 100.36 187.72 100.41 188.82 100.46 189.92 C 99.48 189.92 98.50 189.93 97.52 189.95 C 97.61 189.37 97.80 188.22 97.89 187.64 Z" />
</g>
<g id="#14141487">
<path fill="#141414" opacity="0.53" d=" M 91.62 82.48 C 93.88 76.88 92.61 69.69 97.13 65.17 C 93.94 75.38 90.72 86.26 93.12 96.99 C 94.09 102.90 96.82 108.27 99.18 113.71 C 97.42 112.47 96.62 110.42 95.77 108.53 C 91.93 100.49 90.63 91.30 91.62 82.48 Z" />
</g>
<g id="#1e1e1e91">
<path fill="#1e1e1e" opacity="0.57" d=" M 199.58 72.21 C 200.73 73.53 200.47 75.37 200.68 76.98 C 202.45 90.90 202.68 105.53 197.88 118.89 C 197.45 119.91 196.79 120.78 195.89 121.48 C 200.34 109.91 201.23 97.30 200.42 85.03 C 199.92 80.77 199.30 76.51 199.58 72.21 Z" />
</g>
<g id="#6a4d376b">
<path fill="#6a4d37" opacity="0.42" d=" M 64.22 75.56 C 67.47 80.39 69.70 85.84 71.35 91.41 C 72.93 97.19 76.30 102.29 77.52 108.19 C 80.36 115.13 82.41 122.46 82.97 129.96 C 83.03 135.89 83.31 141.81 83.91 147.71 L 82.98 147.67 C 82.96 146.42 82.92 145.17 82.88 143.93 C 83.35 141.80 83.42 139.54 82.25 137.62 C 82.21 128.07 81.63 118.17 77.01 109.59 C 76.48 107.13 75.86 104.67 74.81 102.37 C 71.15 95.62 69.93 87.93 66.60 81.05 C 65.82 79.21 65.06 77.37 64.22 75.56 Z" />
</g>
<g id="#f5babaff">
<path fill="#f5baba" opacity="1.00" d=" M 164.13 78.34 C 169.09 78.42 174.06 78.62 179.01 78.05 C 180.69 77.79 183.36 78.64 182.72 80.82 C 177.63 82.07 172.26 83.20 167.02 82.27 C 164.98 81.98 164.01 80.24 164.13 78.34 Z" />
</g>
<g id="#f6c2c2ff">
<path fill="#f6c2c2" opacity="1.00" d=" M 104.79 79.93 C 107.97 77.99 111.73 78.59 115.18 79.38 C 113.26 81.99 109.51 81.69 106.73 82.75 C 106.08 81.80 105.43 80.86 104.79 79.93 Z" />
<path fill="#f6c2c2" opacity="1.00" d=" M 182.54 151.08 C 185.09 154.94 185.98 159.52 187.05 163.95 C 186.14 160.99 185.60 157.85 183.86 155.22 C 183.50 155.30 182.78 155.45 182.41 155.53 C 182.58 158.01 182.65 160.50 182.51 162.99 C 182.28 159.57 182.33 156.15 182.30 152.73 C 182.36 152.32 182.48 151.49 182.54 151.08 Z" />
</g>
<g id="#e6d03afc">
<path fill="#e6d03a" opacity="1.00" d=" M 64.94 83.32 C 65.35 82.75 66.18 81.62 66.60 81.05 C 69.93 87.93 71.15 95.62 74.81 102.37 C 74.10 102.35 72.69 102.31 71.98 102.29 C 68.49 96.41 67.25 89.67 64.94 83.32 Z" />
</g>
<g id="#f7b7b7ff">
<path fill="#f7b7b7" opacity="1.00" d=" M 166.39 99.04 C 166.80 94.54 170.73 89.97 175.53 90.43 C 173.39 95.80 171.10 101.09 168.35 106.18 C 165.50 104.97 166.26 101.50 166.39 99.04 Z" />
<path fill="#f7b7b7" opacity="1.00" d=" M 103.51 118.98 L 104.08 119.65 L 104.27 119.90 C 103.73 124.79 102.86 129.65 102.61 134.57 L 102.43 133.36 C 102.44 131.93 102.47 130.49 102.49 129.06 C 102.81 125.69 102.93 122.31 103.51 118.98 Z" />
</g>
<g id="#0127e8ff">
<path fill="#0127e8" opacity="1.00" d=" M 150.74 96.55 C 152.51 96.09 154.26 95.23 156.14 95.45 C 158.07 96.89 159.59 98.79 161.31 100.46 C 160.75 100.52 159.63 100.63 159.07 100.69 C 156.09 100.12 153.18 99.20 150.21 98.58 C 150.34 98.07 150.61 97.06 150.74 96.55 Z" />
</g>
<g id="#a2a304ff">
<path fill="#a2a304" opacity="1.00" d=" M 131.69 99.60 C 133.81 97.36 136.88 97.22 139.76 97.32 C 139.71 97.60 139.60 98.16 139.54 98.45 C 138.52 105.90 138.34 113.48 138.47 120.99 C 139.42 129.99 137.76 138.99 138.51 148.01 C 138.27 156.33 138.40 164.66 138.38 172.98 C 138.42 178.34 138.01 183.75 139.08 189.05 C 138.90 189.18 138.56 189.45 138.38 189.58 L 138.09 189.78 C 138.37 172.21 138.62 154.60 137.88 137.06 C 138.84 128.06 137.15 119.05 138.06 110.07 C 138.13 106.45 138.00 102.81 138.40 99.21 C 136.16 99.31 133.92 99.39 131.69 99.60 Z" />
</g>
<g id="#1c864bff">
<path fill="#1c864b" opacity="1.00" d=" M 139.76 97.32 C 143.43 97.36 147.22 97.89 150.74 96.55 C 150.61 97.06 150.34 98.07 150.21 98.58 L 149.04 98.61 C 148.18 98.61 146.47 98.62 145.62 98.62 C 143.59 98.58 141.56 98.50 139.54 98.45 C 139.60 98.16 139.71 97.60 139.76 97.32 Z" />
</g>
<g id="#3fff12ff">
<path fill="#3fff12" opacity="1.00" d=" M 138.47 120.99 C 138.34 113.48 138.52 105.90 139.54 98.45 C 141.56 98.50 143.59 98.58 145.62 98.62 C 144.03 102.28 145.52 106.21 145.44 110.00 C 145.55 126.67 145.39 143.34 145.44 160.00 C 145.47 164.34 144.32 168.65 144.94 172.99 C 145.71 178.61 145.37 184.29 145.47 189.95 C 142.97 189.96 140.46 189.96 137.97 189.90 L 138.38 189.58 C 138.56 189.45 138.90 189.18 139.08 189.05 C 138.01 183.75 138.42 178.34 138.38 172.98 C 138.40 164.66 138.27 156.33 138.51 148.01 C 137.76 138.99 139.42 129.99 138.47 120.99 Z" />
<path fill="#3fff12" opacity="1.00" d=" M 48.98 172.62 C 50.80 172.56 52.62 172.47 54.44 172.39 L 54.49 172.39 C 58.90 173.97 63.61 173.44 68.18 173.24 L 67.42 173.30 C 65.20 173.40 62.99 173.75 60.83 174.25 C 58.98 173.59 57.00 173.75 55.13 174.24 C 53.14 173.48 51.09 172.90 48.98 172.62 Z" />
</g>
<g id="#12ffc9ff">
<path fill="#12ffc9" opacity="1.00" d=" M 145.62 98.62 C 146.47 98.62 148.18 98.61 149.04 98.61 C 149.10 105.51 152.03 112.06 151.43 119.01 C 151.78 126.14 150.34 133.50 152.50 140.43 C 152.52 156.98 152.30 173.54 152.51 190.09 C 150.17 189.93 147.82 189.94 145.47 189.95 C 145.37 184.29 145.71 178.61 144.94 172.99 C 144.32 168.65 145.47 164.34 145.44 160.00 C 145.39 143.34 145.55 126.67 145.44 110.00 C 145.52 106.21 144.03 102.28 145.62 98.62 Z" />
</g>
<g id="#15b0ddff">
<path fill="#15b0dd" opacity="1.00" d=" M 149.04 98.61 L 150.21 98.58 C 150.28 105.55 153.30 112.08 153.25 119.06 C 153.26 125.04 153.48 131.04 153.06 137.01 C 152.96 137.59 152.76 138.75 152.66 139.33 L 152.50 140.43 C 150.34 133.50 151.78 126.14 151.43 119.01 C 152.03 112.06 149.10 105.51 149.04 98.61 Z" />
</g>
<g id="#753b0aff">
<path fill="#753b0a" opacity="1.00" d=" M 124.77 100.88 C 126.94 100.23 129.21 100.00 131.45 99.64 C 131.04 99.95 130.21 100.56 129.79 100.87 C 126.12 102.16 122.47 103.70 119.83 106.69 L 119.01 106.51 C 115.70 105.59 112.24 106.29 109.48 108.32 C 109.49 107.82 109.50 106.82 109.51 106.32 C 112.27 105.68 115.11 105.39 117.86 104.69 C 120.33 103.76 122.21 101.67 124.77 100.88 Z" />
</g>
<g id="#fffb11ff">
<path fill="#fffb11" opacity="1.00" d=" M 131.45 99.64 L 131.69 99.60 C 133.92 99.39 136.16 99.31 138.40 99.21 C 138.00 102.81 138.13 106.45 138.06 110.07 C 137.15 119.05 138.84 128.06 137.88 137.06 C 138.62 154.60 138.37 172.21 138.09 189.78 C 135.73 190.09 133.34 189.94 130.97 189.97 C 130.13 186.04 129.63 182.04 129.71 178.02 C 129.78 170.69 129.43 163.34 129.92 156.02 C 130.52 150.47 131.08 144.92 131.34 139.34 C 131.38 138.54 131.44 136.92 131.48 136.11 C 131.41 124.90 131.91 113.69 131.55 102.47 C 131.11 102.07 130.23 101.27 129.79 100.87 C 130.21 100.56 131.04 99.95 131.45 99.64 Z" />
</g>
<g id="#ff9812ff">
<path fill="#ff9812" opacity="1.00" d=" M 119.83 106.69 C 122.47 103.70 126.12 102.16 129.79 100.87 C 130.23 101.27 131.11 102.07 131.55 102.47 C 131.91 113.69 131.41 124.90 131.48 136.11 C 126.74 134.62 122.18 132.66 117.58 130.80 C 117.99 122.72 121.62 114.88 119.83 106.69 Z" />
</g>
<g id="#1b2d94ff">
<path fill="#1b2d94" opacity="1.00" d=" M 160.61 100.90 C 161.60 100.76 162.56 100.89 163.46 101.31 C 163.41 101.78 163.30 102.73 163.24 103.21 C 161.76 103.27 160.88 102.51 160.61 100.90 Z" />
</g>
<g id="#e98247fb">
<path fill="#e98247" opacity="1.00" d=" M 71.98 102.29 C 72.69 102.31 74.10 102.35 74.81 102.37 C 75.86 104.67 76.48 107.13 77.01 109.59 C 76.49 110.33 75.46 111.80 74.94 112.54 C 73.36 109.31 73.30 105.61 71.98 102.29 Z" />
</g>
<g id="#bcc8ffff">
<path fill="#bcc8ff" opacity="1.00" d=" M 163.46 101.31 C 165.79 105.75 165.87 110.79 165.54 115.68 L 164.58 114.24 C 163.66 110.64 163.19 106.93 163.24 103.21 C 163.30 102.73 163.41 101.78 163.46 101.31 Z" />
<path fill="#bcc8ff" opacity="1.00" d=" M 164.33 137.46 L 164.41 137.57 C 166.96 140.77 171.25 137.19 174.42 136.72 L 174.75 137.17 C 173.52 137.38 172.35 137.76 171.24 138.33 C 170.77 138.46 169.83 138.72 169.36 138.84 C 167.42 139.48 164.33 139.73 164.67 142.53 C 164.76 151.34 164.53 160.17 164.85 168.98 C 165.55 168.04 166.24 167.09 166.87 166.11 C 166.66 167.16 166.33 168.17 165.90 169.15 C 165.60 169.40 165.01 169.92 164.72 170.18 L 164.30 171.11 C 164.33 160.69 164.33 150.27 164.22 139.85 C 164.24 139.25 164.30 138.06 164.33 137.46 Z" />
</g>
<g id="#ed0000ff">
<path fill="#ed0000" opacity="1.00" d=" M 109.48 108.32 C 112.24 106.29 115.70 105.59 119.01 106.51 C 118.79 108.62 118.56 110.72 118.46 112.84 C 116.64 113.64 114.83 114.45 113.02 115.27 C 114.68 116.64 116.26 118.15 117.38 120.01 C 113.39 118.57 110.43 115.48 107.05 113.08 C 107.86 112.06 108.13 110.88 107.88 109.55 C 108.40 109.14 108.94 108.73 109.48 108.32 Z" />
<path fill="#ed0000" opacity="1.00" d=" M 104.80 116.12 C 108.86 119.97 111.79 124.87 116.16 128.42 C 116.01 129.76 115.88 131.10 115.76 132.44 C 110.96 129.20 108.24 123.97 104.27 119.90 L 104.08 119.65 C 104.27 118.46 104.51 117.28 104.80 116.12 Z" />
</g>
<g id="#fd5315ff">
<path fill="#fd5315" opacity="1.00" d=" M 119.01 106.51 L 119.83 106.69 C 121.62 114.88 117.99 122.72 117.58 130.80 C 117.46 131.81 117.31 132.81 117.12 133.81 C 115.37 141.06 114.55 148.52 114.82 155.97 C 115.18 165.30 114.11 174.63 114.83 183.94 C 115.03 185.87 114.72 187.79 114.24 189.65 C 113.29 186.19 112.91 182.61 113.07 179.03 C 113.39 169.68 113.32 160.33 113.27 150.98 C 113.10 144.69 115.29 138.67 115.76 132.44 C 115.88 131.10 116.01 129.76 116.16 128.42 C 117.15 123.25 118.83 118.18 118.46 112.84 C 118.56 110.72 118.79 108.62 119.01 106.51 Z" />
</g>
<g id="#f34f4afa">
<path fill="#f34f4a" opacity="0.98" d=" M 77.01 109.59 C 81.63 118.17 82.21 128.07 82.25 137.62 L 81.27 138.76 C 79.58 134.18 80.83 129.03 78.65 124.62 C 77.64 120.52 76.99 116.29 74.94 112.54 C 75.46 111.80 76.49 110.33 77.01 109.59 Z" />
</g>
<g id="#984746ff">
<path fill="#984746" opacity="1.00" d=" M 106.46 112.70 C 105.28 111.40 106.16 109.54 107.88 109.55 C 108.13 110.88 107.86 112.06 107.05 113.08 L 106.46 112.70 Z" />
</g>
<g id="#ff1212ff">
<path fill="#ff1212" opacity="1.00" d=" M 106.46 112.70 L 107.05 113.08 C 110.43 115.48 113.39 118.57 117.38 120.01 C 116.26 118.15 114.68 116.64 113.02 115.27 C 114.83 114.45 116.64 113.64 118.46 112.84 C 118.83 118.18 117.15 123.25 116.16 128.42 C 111.79 124.87 108.86 119.97 104.80 116.12 L 104.92 115.83 C 105.30 115.04 106.07 113.48 106.46 112.70 Z" />
<path fill="#ff1212" opacity="1.00" d=" M 104.27 119.90 C 108.24 123.97 110.96 129.20 115.76 132.44 C 115.29 138.67 113.10 144.69 113.27 150.98 C 113.32 160.33 113.39 169.68 113.07 179.03 C 112.91 182.61 113.29 186.19 114.24 189.65 L 114.18 190.01 C 109.61 189.90 105.03 190.01 100.46 189.92 C 100.41 188.82 100.36 187.72 100.31 186.63 C 100.30 186.40 100.28 185.94 100.27 185.72 C 101.25 181.37 101.54 176.93 102.11 172.53 C 103.49 166.79 102.56 160.87 102.81 155.04 C 102.85 148.22 103.90 141.34 102.61 134.57 C 102.86 129.65 103.73 124.79 104.27 119.90 Z" />
</g>
<g id="#2b2b2bb1">
<path fill="#2b2b2b" opacity="0.69" d=" M 194.70 123.68 C 194.71 123.66 194.74 123.61 194.76 123.59 C 194.74 123.61 194.71 123.66 194.70 123.68 Z" />
</g>
<g id="#92150bff">
<path fill="#92150b" opacity="1.00" d=" M 78.65 124.62 C 80.83 129.03 79.58 134.18 81.27 138.76 C 82.11 147.84 82.05 156.96 82.07 166.07 C 81.99 169.96 78.46 172.64 75.14 173.97 C 72.57 173.74 70.00 173.46 67.42 173.30 L 68.18 173.24 C 70.98 173.03 73.78 172.65 76.48 171.85 C 78.51 170.95 79.28 168.53 80.51 166.83 C 81.09 160.08 81.62 153.12 79.95 146.48 C 79.75 143.57 79.76 140.63 79.04 137.79 C 79.55 133.40 78.87 129.00 78.65 124.62 Z" />
</g>
<g id="#f4ccd2f5">
<path fill="#f4ccd2" opacity="0.96" d=" M 0.00 126.54 C 0.47 129.34 0.87 132.16 0.93 135.00 C 1.42 148.15 1.51 161.32 1.30 174.48 L 0.00 174.59 L 0.00 126.54 Z" />
</g>
<g id="#844c4c85">
<path fill="#844c4c" opacity="0.52" d=" M 102.17 127.95 L 102.49 129.06 C 102.47 130.49 102.44 131.93 102.43 133.36 C 101.75 146.39 101.34 159.50 102.11 172.53 C 101.31 174.00 100.62 175.54 100.10 177.14 C 102.22 160.82 99.19 144.18 102.17 127.95 Z" />
</g>
<g id="#2d2d2d80">
<path fill="#2d2d2d" opacity="0.50" d=" M 187.43 130.61 C 187.46 130.59 187.51 130.56 187.54 130.54 C 187.51 130.56 187.46 130.59 187.43 130.61 Z" />
</g>
<g id="#ec8400ff">
<path fill="#ec8400" opacity="1.00" d=" M 117.58 130.80 C 122.18 132.66 126.74 134.62 131.48 136.11 C 131.44 136.92 131.38 138.54 131.34 139.34 C 126.36 138.18 121.74 135.95 117.12 133.81 C 117.31 132.81 117.46 131.81 117.58 130.80 Z" />
</g>
<g id="#ff3c3cff">
<path fill="#ff3c3c" opacity="1.00" d=" M 102.43 133.36 L 102.61 134.57 C 103.90 141.34 102.85 148.22 102.81 155.04 C 102.56 160.87 103.49 166.79 102.11 172.53 C 101.34 159.50 101.75 146.39 102.43 133.36 Z" />
</g>
<g id="#ff9913ff">
<path fill="#ff9913" opacity="1.00" d=" M 117.12 133.81 C 121.74 135.95 126.36 138.18 131.34 139.34 C 131.08 144.92 130.52 150.47 129.92 156.02 C 129.43 163.34 129.78 170.69 129.71 178.02 C 129.63 182.04 130.13 186.04 130.97 189.97 C 128.61 189.97 126.26 189.97 123.91 189.79 C 124.34 186.91 120.34 187.38 120.18 189.82 C 118.18 189.93 116.18 189.97 114.18 190.01 L 114.24 189.65 C 114.72 187.79 115.03 185.87 114.83 183.94 C 114.11 174.63 115.18 165.30 114.82 155.97 C 114.55 148.52 115.37 141.06 117.12 133.81 Z" />
</g>
<g id="#0025ebff">
<path fill="#0025eb" opacity="1.00" d=" M 153.06 137.01 C 156.74 136.71 160.45 136.74 164.12 137.18 L 164.33 137.46 C 164.30 138.06 164.24 139.25 164.22 139.85 L 164.17 139.85 C 160.32 139.90 156.48 139.77 152.66 139.33 C 152.76 138.75 152.96 137.59 153.06 137.01 Z" />
</g>
<g id="#e93937fa">
<path fill="#e93937" opacity="0.98" d=" M 81.27 138.76 L 82.25 137.62 C 81.32 139.70 81.59 142.07 82.88 143.93 C 82.92 145.17 82.96 146.42 82.98 147.67 C 83.12 155.11 82.65 162.57 83.41 169.99 C 83.35 170.28 83.22 170.86 83.16 171.15 C 81.25 171.70 79.67 173.17 79.14 175.11 C 78.74 175.19 77.93 175.35 77.53 175.44 C 76.70 175.40 75.04 175.32 74.21 175.28 L 75.14 173.97 C 78.46 172.64 81.99 169.96 82.07 166.07 C 82.05 156.96 82.11 147.84 81.27 138.76 Z" />
</g>
<g id="#f36c6af3">
<path fill="#f36c6a" opacity="0.95" d=" M 82.25 137.62 C 83.42 139.54 83.35 141.80 82.88 143.93 C 81.59 142.07 81.32 139.70 82.25 137.62 Z" />
</g>
<g id="#1313139d">
<path fill="#131313" opacity="0.62" d=" M 175.88 138.62 L 176.63 139.90 C 176.81 143.71 176.56 148.18 173.21 150.65 C 175.15 146.94 175.76 142.76 175.88 138.62 Z" />
</g>
<g id="#1e1e1eac">
<path fill="#1e1e1e" opacity="0.67" d=" M 180.84 141.06 C 182.49 140.89 183.08 141.66 182.60 143.35 C 181.60 142.94 181.01 142.18 180.84 141.06 Z" />
</g>
<g id="#23232388">
<path fill="#232323" opacity="0.53" d=" M 183.78 146.32 C 185.60 145.81 186.68 148.98 185.54 150.20 C 184.60 149.10 183.82 147.80 183.78 146.32 Z" />
</g>
<g id="#925f5fff">
<path fill="#925f5f" opacity="1.00" d=" M 79.95 146.48 C 81.62 153.12 81.09 160.08 80.51 166.83 C 79.38 160.10 79.95 153.26 79.95 146.48 Z" />
</g>
<g id="#dd7c7cdd">
<path fill="#dd7c7c" opacity="0.87" d=" M 82.98 147.67 L 83.91 147.71 C 83.90 155.12 84.71 162.66 83.41 169.99 C 82.65 162.57 83.12 155.11 82.98 147.67 Z" />
</g>
<g id="#3838387d">
<path fill="#383838" opacity="0.49" d=" M 186.46 151.43 C 186.47 151.45 186.50 151.51 186.52 151.53 C 186.50 151.51 186.47 151.45 186.46 151.43 Z" />
</g>
<g id="#2020204a">
<path fill="#202020" opacity="0.29" d=" M 187.03 152.54 C 189.91 154.95 189.56 159.33 189.89 162.73 C 188.90 159.34 187.98 155.93 187.03 152.54 Z" />
</g>
<g id="#1c1c1c67">
<path fill="#1c1c1c" opacity="0.40" d=" M 170.89 163.00 C 171.09 161.52 171.82 160.20 172.69 159.01 C 173.86 160.25 172.76 163.57 170.89 163.00 Z" />
</g>
<g id="#2a2a2a73">
<path fill="#2a2a2a" opacity="0.45" d=" M 167.82 162.61 C 168.11 161.96 168.68 160.66 168.97 160.01 C 168.68 160.66 168.11 161.96 167.82 162.61 Z" />
</g>
<g id="#2e2e2d89">
<path fill="#2e2e2d" opacity="0.54" d=" M 167.51 163.65 C 167.55 163.54 167.61 163.33 167.64 163.22 C 167.61 163.33 167.55 163.54 167.51 163.65 Z" />
</g>
<g id="#30303085">
<path fill="#303030" opacity="0.52" d=" M 189.94 163.26 L 190.85 163.35 L 191.34 164.31 L 190.90 165.13 C 190.66 164.67 190.18 163.73 189.94 163.26 Z" />
</g>
<g id="#2e2e2e92">
<path fill="#2e2e2e" opacity="0.57" d=" M 188.30 166.96 C 188.94 167.78 189.24 168.71 189.22 169.75 C 187.50 169.41 187.20 168.48 188.30 166.96 Z" />
</g>
<g id="#0d1c78ec">
<path fill="#0d1c78" opacity="0.93" d=" M 164.72 170.18 C 165.01 169.92 165.60 169.40 165.90 169.15 C 165.66 170.96 165.80 172.77 166.28 174.54 C 166.13 174.86 165.81 175.51 165.65 175.84 C 165.29 176.87 164.98 177.92 164.72 178.99 L 164.64 178.26 C 164.49 176.35 164.30 174.45 164.17 172.54 C 164.20 172.18 164.26 171.47 164.30 171.11 L 164.72 170.18 Z" />
</g>
<g id="#1a1a1a6c">
<path fill="#1a1a1a" opacity="0.42" d=" M 166.80 172.90 C 167.14 171.47 167.87 170.19 168.68 168.98 C 170.01 170.22 168.69 173.48 166.80 172.90 Z" />
</g>
<g id="#37212038">
<path fill="#372120" opacity="0.22" d=" M 79.14 175.11 C 79.67 173.17 81.25 171.70 83.16 171.15 C 83.07 173.37 81.36 175.04 79.14 175.11 Z" />
</g>
<g id="#63662aff">
<path fill="#63662a" opacity="1.00" d=" M 54.49 172.39 C 61.76 171.21 69.15 172.04 76.48 171.85 C 73.78 172.65 70.98 173.03 68.18 173.24 C 63.61 173.44 58.90 173.97 54.49 172.39 Z" />
</g>
<g id="#47ee55f7">
<path fill="#47ee55" opacity="0.97" d=" M 48.01 172.66 L 48.98 172.62 C 51.09 172.90 53.14 173.48 55.13 174.24 L 55.41 174.64 C 52.64 174.84 49.91 175.30 47.17 175.72 C 47.38 174.95 47.80 173.42 48.01 172.66 Z" />
</g>
<g id="#fb6768fc">
<path fill="#fb6768" opacity="1.00" d=" M 100.10 177.14 C 100.62 175.54 101.31 174.00 102.11 172.53 C 101.54 176.93 101.25 181.37 100.27 185.72 C 99.88 182.87 99.62 179.98 100.10 177.14 Z" />
</g>
<g id="#0025edff">
<path fill="#0025ed" opacity="1.00" d=" M 153.85 189.78 C 157.68 184.28 160.72 178.28 164.17 172.54 C 164.30 174.45 164.49 176.35 164.64 178.26 L 164.53 179.46 C 162.11 182.75 160.16 186.36 158.51 190.09 C 156.95 189.99 155.40 189.90 153.85 189.78 Z" />
</g>
<g id="#5373587f">
<path fill="#537358" opacity="0.50" d=" M 31.06 177.78 C 31.00 176.37 31.00 174.96 31.07 173.56 C 31.10 174.35 31.16 175.94 31.19 176.73 C 35.10 176.42 39.00 176.09 42.88 175.56 C 44.30 175.71 45.74 175.96 47.17 175.72 C 49.91 175.30 52.64 174.84 55.41 174.64 C 57.07 175.32 58.91 175.45 60.63 174.89 C 65.15 175.29 69.68 175.13 74.21 175.28 C 75.04 175.32 76.70 175.40 77.53 175.44 C 67.49 177.57 57.18 174.81 47.11 176.38 C 41.75 176.67 36.28 176.16 31.06 177.78 Z" />
</g>
<g id="#4febf4ff">
<path fill="#4febf4" opacity="1.00" d=" M 31.07 173.56 C 32.67 173.44 34.27 173.36 35.88 173.32 C 38.43 173.22 40.74 174.29 42.88 175.56 C 39.00 176.09 35.10 176.42 31.19 176.73 C 31.16 175.94 31.10 174.35 31.07 173.56 Z" />
</g>
<g id="#a0f65cff">
<path fill="#a0f65c" opacity="1.00" d=" M 55.13 174.24 C 57.00 173.75 58.98 173.59 60.83 174.25 L 60.63 174.89 C 58.91 175.45 57.07 175.32 55.41 174.64 L 55.13 174.24 Z" />
</g>
<g id="#f4d24cff">
<path fill="#f4d24c" opacity="1.00" d=" M 60.83 174.25 C 62.99 173.75 65.20 173.40 67.42 173.30 C 70.00 173.46 72.57 173.74 75.14 173.97 L 74.21 175.28 C 69.68 175.13 65.15 175.29 60.63 174.89 L 60.83 174.25 Z" />
</g>
<g id="#f06b9cfc">
<path fill="#f06b9c" opacity="1.00" d=" M 0.00 175.83 C 1.80 175.71 3.61 175.60 5.40 175.39 C 4.42 176.47 3.43 177.56 2.42 178.63 C 3.75 178.33 5.09 178.04 6.43 177.80 C 4.33 178.82 2.15 179.69 0.00 180.62 L 0.00 175.83 Z" />
</g>
<g id="#3235484e">
<path fill="#323548" opacity="0.31" d=" M 164.72 178.99 C 164.98 177.92 165.29 176.87 165.65 175.84 C 165.75 178.99 166.36 182.22 165.40 185.31 C 165.23 183.19 164.94 181.09 164.72 178.99 Z" />
</g>
<g id="#34242474">
<path fill="#342424" opacity="0.45" d=" M 99.39 177.26 L 100.10 177.14 C 99.62 179.98 99.88 182.87 100.27 185.72 C 100.28 185.94 100.30 186.40 100.31 186.63 C 99.79 186.70 98.74 186.83 98.22 186.89 L 98.83 185.44 C 97.74 185.40 95.54 185.30 94.45 185.26 C 96.05 184.72 97.74 184.53 99.42 184.34 C 99.45 181.98 99.44 179.62 99.39 177.26 Z" />
</g>
<g id="#3c53ced0">
<path fill="#3c53ce" opacity="0.82" d=" M 164.64 178.26 L 164.72 178.99 C 164.94 181.09 165.23 183.19 165.40 185.31 C 164.77 187.67 162.38 188.85 160.43 189.98 C 163.32 187.18 164.84 183.51 164.53 179.46 L 164.64 178.26 Z" />
</g>
<g id="#1e42fbfd">
<path fill="#1e42fb" opacity="1.00" d=" M 158.51 190.09 C 160.16 186.36 162.11 182.75 164.53 179.46 C 164.84 183.51 163.32 187.18 160.43 189.98 C 159.95 190.01 158.99 190.07 158.51 190.09 Z" />
</g>
<g id="#111111d3">
<path fill="#111111" opacity="0.83" d=" M 94.33 189.95 C 94.37 188.39 94.41 186.82 94.45 185.26 C 95.54 185.30 97.74 185.40 98.83 185.44 L 98.22 186.89 L 97.89 187.64 C 97.80 188.22 97.61 189.37 97.52 189.95 C 96.72 189.95 95.13 189.95 94.33 189.95 Z" />
</g>
<g id="#f8b55ef9">
<path fill="#f8b55e" opacity="0.98" d=" M 120.18 189.82 C 120.34 187.38 124.34 186.91 123.91 189.79 C 122.68 190.41 121.43 190.42 120.18 189.82 Z" />
</g>
</svg>
