<?xml version="1.0" encoding="UTF-8" ?>
<!DOCTYPE svg PUBLIC "-//W3C//DTD SVG 1.1//EN" "http://www.w3.org/Graphics/SVG/1.1/DTD/svg11.dtd">
<svg width="320pt" height="240pt" viewBox="0 0 320 240" version="1.1" xmlns="http://www.w3.org/2000/svg">
<g id="#020202fe">
<path fill="#020202" opacity="1.00" d=" M 139.77 21.10 C 144.09 20.07 148.63 19.94 153.02 20.57 C 157.22 21.80 161.23 23.99 165.76 23.49 C 165.73 24.20 165.67 25.63 165.65 26.34 C 171.34 29.81 176.29 34.35 180.93 39.11 C 183.97 42.23 185.47 46.44 188.26 49.77 C 191.13 53.58 195.26 56.45 197.22 60.92 C 199.21 65.47 201.79 70.00 201.61 75.13 C 203.56 78.54 204.65 82.35 206.54 85.78 C 210.29 91.50 214.00 97.36 216.14 103.90 C 217.48 107.69 220.02 110.98 220.87 114.96 C 221.88 118.28 220.68 121.69 220.57 125.04 C 220.33 127.75 221.43 130.34 221.52 133.03 C 221.74 137.43 221.15 141.89 222.01 146.25 C 222.93 151.10 222.59 156.05 222.51 160.95 C 219.14 165.29 221.76 171.07 223.00 175.79 C 223.11 174.89 223.34 173.09 223.45 172.19 C 223.99 172.25 225.08 172.38 225.63 172.45 C 225.38 175.75 225.86 179.26 224.37 182.34 C 222.45 186.36 222.00 190.88 220.19 194.94 C 218.14 199.77 214.48 203.78 213.02 208.87 C 211.57 213.97 209.29 218.76 207.17 223.60 C 202.17 224.57 197.06 224.21 192.01 224.24 C 163.00 224.25 134.00 224.25 105.00 224.24 C 98.99 224.22 92.96 224.44 86.96 223.89 C 77.37 224.04 67.63 225.03 58.11 223.55 C 56.07 219.01 51.63 215.48 52.06 210.05 C 50.64 210.69 49.23 211.35 47.81 212.01 C 47.50 212.12 46.87 212.35 46.55 212.46 C 47.03 211.03 47.54 209.60 47.78 208.11 C 46.95 207.20 46.09 206.31 45.21 205.44 C 38.34 206.29 30.55 201.47 30.38 194.08 C 30.31 179.04 30.42 164.00 30.33 148.96 C 30.38 146.90 30.13 144.62 31.45 142.86 C 33.81 139.97 33.34 135.95 35.36 132.87 C 35.39 120.44 35.75 108.01 35.57 95.57 C 36.05 95.54 37.00 95.47 37.47 95.44 C 38.21 98.26 38.88 101.23 37.71 104.05 C 37.44 109.37 37.61 114.70 37.51 120.03 C 37.46 124.37 36.05 128.65 36.75 133.00 C 37.42 133.28 38.76 133.84 39.43 134.12 C 39.99 126.69 39.49 119.24 39.49 111.81 C 40.52 110.65 41.54 109.49 42.61 108.37 C 41.24 115.55 41.60 122.88 41.61 130.14 C 47.63 133.39 53.78 136.59 58.96 141.13 C 62.00 143.78 64.99 146.90 65.91 150.95 C 68.06 158.78 67.26 166.95 67.36 174.96 C 67.33 178.98 67.64 183.03 67.14 187.04 C 66.50 191.67 63.42 195.35 61.43 199.43 C 59.51 202.40 61.95 205.85 63.89 208.12 C 69.72 212.92 77.12 215.28 83.14 219.81 C 84.79 221.01 86.32 222.37 88.11 223.37 C 92.02 224.18 96.06 223.65 100.02 223.73 C 134.01 223.70 168.00 223.72 201.98 223.73 C 205.79 224.34 205.98 219.68 207.11 217.21 C 211.30 206.64 213.21 194.95 220.17 185.67 C 221.89 179.52 219.09 173.21 218.83 167.00 C 218.67 160.30 217.24 153.70 217.47 146.99 C 217.43 141.30 218.05 135.51 216.79 129.91 C 212.69 115.96 207.93 102.21 203.72 88.29 C 201.43 80.38 194.65 75.14 190.97 67.99 C 187.76 62.46 187.61 55.76 184.42 50.22 C 183.18 48.15 181.05 46.88 179.23 45.39 C 180.13 44.68 181.03 43.97 181.93 43.26 C 176.64 37.23 170.52 32.03 164.14 27.21 C 161.54 29.60 158.86 31.90 156.10 34.09 C 158.70 35.48 161.26 36.94 163.69 38.62 C 159.62 39.31 155.93 37.18 152.01 36.64 C 149.17 37.72 147.34 40.55 146.04 43.18 C 144.71 47.32 147.08 51.73 145.96 55.89 C 143.55 60.67 138.66 63.67 136.38 68.57 C 133.05 74.16 134.94 81.34 130.98 86.66 C 128.92 86.60 126.87 86.55 124.81 86.50 C 125.71 84.99 126.66 83.50 127.39 81.89 C 126.38 78.75 122.89 76.63 123.22 73.04 C 122.93 66.75 125.69 60.98 128.54 55.57 C 131.05 50.91 130.59 45.48 130.47 40.39 C 132.34 40.86 134.21 41.51 136.17 41.41 C 137.07 39.55 137.65 37.55 138.29 35.59 C 130.76 35.77 123.55 32.93 116.01 33.29 C 108.39 33.54 100.50 31.64 93.13 34.38 C 88.01 36.05 84.41 40.39 81.79 44.90 C 79.03 49.63 75.27 53.64 71.37 57.45 C 71.33 57.91 71.25 58.84 71.20 59.31 C 76.34 61.32 81.45 63.76 87.02 64.25 C 89.36 64.54 91.76 64.46 94.05 65.04 C 96.68 66.04 98.45 68.39 100.46 70.24 C 97.94 71.31 95.40 72.35 92.85 73.35 C 97.29 80.86 105.38 84.93 110.92 91.48 C 110.04 92.45 109.20 93.46 108.40 94.50 C 109.21 95.87 110.24 97.09 111.21 98.34 C 111.35 96.39 111.49 94.44 111.63 92.50 C 112.86 93.26 114.05 94.09 115.19 94.99 C 115.32 99.65 114.35 104.36 112.52 108.64 C 110.40 113.49 106.21 116.93 103.28 121.23 C 99.75 126.59 95.41 131.69 89.85 134.99 C 84.97 136.29 79.77 135.40 74.93 134.31 C 70.57 133.43 66.58 130.38 65.06 126.14 C 63.88 121.68 64.43 116.79 62.18 112.62 C 61.16 110.18 59.04 107.86 59.69 105.04 C 60.33 101.27 61.49 97.55 63.28 94.16 C 65.66 89.86 70.46 88.00 74.24 85.18 C 77.24 83.15 80.09 80.25 83.98 80.26 C 88.54 79.68 92.78 81.69 96.71 83.74 C 96.65 83.19 96.53 82.09 96.48 81.54 C 92.68 77.94 89.67 73.61 85.81 70.07 C 80.46 65.82 73.54 64.34 66.96 63.16 C 61.69 70.09 55.47 76.21 49.88 82.86 C 45.42 87.40 48.49 94.18 48.41 99.73 C 47.84 99.68 46.70 99.59 46.13 99.54 C 46.24 98.56 46.46 96.60 46.57 95.62 C 45.83 95.22 44.35 94.40 43.61 93.99 C 42.89 96.58 42.36 99.29 40.77 101.53 C 39.78 95.69 41.87 89.65 45.56 85.12 C 45.51 80.63 45.39 76.13 45.50 71.64 C 46.02 71.62 47.07 71.59 47.60 71.57 C 47.69 74.80 47.63 78.03 47.49 81.25 C 48.76 80.66 50.15 80.15 50.95 78.92 C 55.44 73.50 59.37 67.64 63.10 61.69 C 58.48 61.61 53.85 61.50 49.23 61.72 C 49.34 61.20 49.56 60.15 49.67 59.63 C 53.26 59.52 56.85 59.51 60.44 59.52 C 60.49 58.76 60.57 57.23 60.61 56.47 C 62.42 57.03 64.21 57.74 66.12 57.86 C 72.26 54.63 77.07 49.25 80.48 43.26 C 82.15 40.22 84.26 37.37 87.13 35.36 C 90.99 32.04 96.27 31.74 100.94 30.26 C 105.10 29.20 108.87 27.01 113.03 25.93 C 116.89 25.12 121.05 25.97 124.71 24.17 C 129.43 21.90 134.76 22.17 139.77 21.10 M 145.37 21.84 C 145.33 25.60 145.31 29.37 145.29 33.13 C 146.02 33.20 147.48 33.33 148.21 33.40 C 151.62 30.62 154.33 27.06 157.27 23.80 C 153.45 22.45 149.46 21.41 145.37 21.84 M 132.02 24.39 C 127.52 24.54 123.63 27.47 119.10 27.45 C 115.36 27.69 110.79 26.81 108.48 30.54 C 113.65 30.88 118.83 30.31 123.99 30.72 C 129.02 31.49 134.10 33.70 139.23 32.30 C 141.18 29.49 142.21 26.10 142.55 22.72 C 139.12 23.70 135.59 24.24 132.02 24.39 M 152.35 33.30 C 156.41 31.84 160.02 29.17 161.94 25.21 C 157.35 25.71 154.14 29.32 152.35 33.30 M 144.48 35.43 C 144.63 36.43 144.92 38.42 145.06 39.42 C 146.19 38.48 148.05 37.91 147.94 36.12 C 147.13 34.97 145.63 35.60 144.48 35.43 M 138.34 43.83 C 139.87 43.36 142.17 43.62 142.80 41.75 C 143.95 39.55 142.61 37.17 142.08 35.01 C 140.23 37.66 139.14 40.73 138.34 43.83 M 133.55 52.28 C 135.35 50.02 136.87 47.40 136.46 44.39 C 132.24 43.90 132.22 49.57 133.55 52.28 M 137.76 50.36 C 137.04 53.23 136.77 56.20 136.46 59.14 C 139.02 55.10 141.92 50.93 141.77 45.92 C 140.31 47.25 138.33 48.34 137.76 50.36 M 138.86 60.28 C 140.31 59.33 142.06 58.61 143.01 57.07 C 143.89 55.53 145.42 53.43 142.98 52.49 C 140.64 54.46 139.64 57.43 138.86 60.28 M 133.29 55.40 C 131.86 55.62 131.25 57.75 132.30 58.72 C 134.25 59.81 135.49 55.62 133.29 55.40 M 190.16 59.14 C 189.97 62.88 192.45 65.96 194.03 69.16 C 195.65 71.66 196.76 75.65 200.43 75.51 C 200.20 69.29 196.56 63.77 192.75 59.10 C 192.10 59.11 190.80 59.13 190.16 59.14 M 125.28 70.71 C 125.81 70.65 126.88 70.55 127.41 70.50 C 129.53 67.35 129.95 63.44 130.45 59.78 C 126.56 61.93 125.96 66.75 125.28 70.71 M 130.96 67.04 C 130.09 70.62 127.43 73.33 125.87 76.60 C 127.40 77.09 128.95 77.57 130.49 78.04 C 130.84 74.75 130.99 71.35 132.43 68.30 C 133.17 66.20 134.81 64.16 134.20 61.82 C 131.67 62.25 131.76 65.16 130.96 67.04 M 86.92 67.22 C 88.63 70.36 93.48 72.07 96.06 69.01 C 93.51 66.93 90.06 66.38 86.92 67.22 M 70.63 90.59 C 65.36 93.24 63.85 99.39 62.50 104.62 C 61.53 108.24 65.43 110.66 65.91 114.07 C 67.57 119.50 66.00 126.92 71.73 130.26 C 76.83 132.68 82.84 133.23 88.39 132.47 C 94.60 129.20 98.86 123.31 102.60 117.54 C 107.21 112.79 111.78 107.26 111.59 100.21 C 109.88 99.51 107.37 99.56 106.59 97.52 C 104.54 93.75 103.44 88.90 99.30 86.79 C 95.07 85.01 90.61 83.52 86.01 83.15 C 79.83 82.56 75.69 88.03 70.63 90.59 M 207.26 92.10 C 207.30 92.80 207.39 94.21 207.43 94.92 C 210.09 102.26 212.98 109.55 215.05 117.08 C 216.14 120.28 215.18 125.46 219.59 126.09 C 219.89 121.68 220.15 117.16 218.81 112.89 C 218.43 113.08 217.69 113.45 217.31 113.64 C 217.84 109.66 215.54 106.22 214.37 102.58 C 213.14 98.90 211.33 95.42 209.06 92.28 L 207.26 92.10 M 41.51 137.69 C 44.25 140.87 47.90 143.15 50.55 146.44 C 54.04 150.13 55.63 155.12 56.71 159.97 C 57.40 164.65 56.34 169.35 55.99 174.02 C 55.49 178.28 55.84 182.58 55.36 186.84 C 54.09 192.56 50.43 197.30 46.76 201.70 C 45.19 203.49 47.34 205.38 48.96 206.03 C 49.79 204.88 50.50 203.64 51.32 202.49 C 52.40 203.14 53.41 203.90 54.44 204.63 C 58.46 198.76 63.20 192.41 62.79 184.92 C 62.88 175.29 62.41 165.66 62.54 156.02 C 62.54 152.70 62.14 148.91 59.50 146.57 C 56.73 144.32 53.61 142.52 51.03 140.04 C 48.95 138.28 46.93 135.95 44.04 135.72 C 42.96 135.56 40.58 136.16 41.51 137.69 M 32.53 147.99 C 32.49 161.98 32.62 175.97 32.49 189.95 C 32.46 193.20 32.52 196.75 34.61 199.44 C 36.54 202.03 39.72 203.16 42.80 203.65 C 44.10 198.83 48.64 196.07 50.66 191.65 C 53.42 187.08 53.16 181.57 53.12 176.44 C 49.82 179.24 50.92 183.65 50.33 187.42 C 49.25 190.12 47.17 192.26 45.88 194.86 C 44.41 197.44 43.86 201.42 39.99 200.86 C 41.65 196.51 44.05 192.52 46.80 188.78 C 49.36 185.39 47.70 180.85 49.21 177.09 C 51.20 172.22 49.08 167.02 49.80 161.99 C 49.87 159.18 51.03 156.06 49.29 153.52 C 45.92 147.72 41.24 142.85 36.86 137.83 C 34.91 140.94 32.44 144.12 32.53 147.99 M 52.28 159.18 C 52.40 163.39 52.45 167.60 52.41 171.81 C 52.67 171.78 53.18 171.72 53.43 171.69 C 53.84 167.65 54.40 163.62 54.68 159.56 C 54.08 159.46 52.88 159.27 52.28 159.18 M 53.27 208.83 C 54.39 214.44 57.73 219.10 60.86 223.75 C 68.49 223.57 76.15 224.02 83.77 223.50 C 77.22 218.30 69.35 215.16 62.39 210.58 C 60.47 209.30 60.06 206.83 59.09 204.89 C 57.03 206.02 55.10 207.36 53.27 208.83 Z" />
<path fill="#020202" opacity="1.00" d=" M 154.59 56.88 C 156.43 52.98 161.19 52.24 165.01 51.73 C 169.77 52.15 172.45 56.61 176.35 58.80 C 179.69 60.53 180.64 64.39 182.92 67.09 C 185.19 69.78 187.97 72.01 189.95 74.94 C 192.10 77.95 193.22 81.54 195.28 84.60 C 196.79 86.91 199.26 88.59 200.34 91.16 C 200.94 95.89 201.28 101.25 198.31 105.32 C 195.14 110.01 190.01 114.33 183.98 113.72 C 174.41 113.47 164.32 114.73 155.32 110.70 C 150.32 108.58 147.55 103.67 144.46 99.52 C 142.71 97.05 140.41 95.00 138.80 92.43 C 137.80 85.66 137.74 77.96 142.40 72.40 C 146.74 67.24 152.30 63.26 157.44 58.94 C 160.08 56.93 163.43 56.46 166.66 56.71 C 162.84 58.76 158.83 60.59 155.64 63.60 C 151.48 67.47 146.53 70.68 143.46 75.57 C 140.89 79.54 140.99 84.51 141.26 89.05 C 141.33 92.36 143.95 94.68 145.76 97.18 C 149.22 101.43 152.12 106.74 157.58 108.70 C 164.42 111.16 171.82 111.18 179.00 111.31 C 183.76 111.27 189.17 111.33 192.89 107.85 C 197.54 103.45 200.19 95.52 196.13 89.91 C 193.66 86.65 191.19 83.37 189.47 79.63 C 187.08 74.32 182.20 70.83 179.00 66.08 C 176.00 61.78 171.85 58.43 167.54 55.52 C 163.47 52.59 158.74 55.88 154.59 56.88 Z" />
<path fill="#020202" opacity="1.00" d=" M 145.42 120.67 C 149.11 119.18 153.20 119.68 157.03 120.23 C 160.79 120.73 163.65 123.48 166.98 125.04 C 172.25 127.94 179.14 127.91 183.21 132.82 C 186.84 137.42 188.72 143.25 189.59 148.98 C 189.94 156.97 189.28 165.01 190.28 172.98 C 191.13 178.86 188.62 184.35 187.52 190.00 C 186.74 194.14 184.35 197.71 182.19 201.24 C 180.90 203.12 179.34 205.40 176.84 205.53 C 166.86 205.80 156.68 205.65 146.98 208.35 C 141.00 209.32 135.02 207.88 129.04 207.65 C 126.64 207.53 124.00 207.61 122.11 205.86 C 116.40 201.32 111.61 194.60 111.70 187.03 C 111.86 183.63 109.56 180.95 108.61 177.85 C 107.51 173.64 107.80 169.23 108.16 164.95 C 108.14 160.47 111.95 157.48 113.59 153.61 C 116.37 147.26 118.38 140.35 122.98 135.00 C 126.28 132.16 130.75 130.90 133.58 127.45 C 136.54 123.73 141.21 122.42 145.42 120.67 M 144.27 124.34 C 141.11 125.51 138.58 127.82 135.96 129.86 C 131.56 133.44 126.51 136.40 123.15 141.09 C 116.34 150.20 114.31 161.85 114.43 172.99 C 114.50 179.03 113.54 185.68 117.00 191.03 C 119.27 194.11 121.47 197.24 123.83 200.25 C 126.26 203.42 130.37 204.42 134.17 204.61 C 142.70 204.95 151.42 205.13 159.69 202.65 C 165.68 200.81 172.14 199.86 177.42 196.28 C 179.49 195.03 180.14 192.60 180.71 190.42 C 182.09 184.70 183.47 178.93 183.62 173.02 C 184.31 162.96 188.69 152.41 184.44 142.60 C 183.16 138.80 179.58 136.66 176.55 134.38 C 171.54 130.44 165.73 127.62 159.88 125.19 C 154.75 124.57 149.39 123.09 144.27 124.34 M 110.53 177.41 C 111.04 177.50 112.05 177.68 112.55 177.77 C 112.43 172.00 112.72 166.23 112.84 160.47 C 107.59 164.42 110.14 171.89 110.53 177.41 M 185.33 176.67 C 185.00 180.24 183.75 183.81 184.67 187.41 C 187.10 183.37 188.91 178.79 188.55 173.99 C 188.34 172.24 188.68 169.95 186.87 168.89 C 185.47 171.25 185.65 174.04 185.33 176.67 M 182.50 193.84 C 185.02 192.45 185.89 189.97 185.19 187.24 C 183.28 188.96 182.36 191.27 182.50 193.84 M 172.13 202.16 C 172.32 202.48 172.71 203.11 172.91 203.43 C 176.84 204.47 179.57 201.22 180.79 197.94 C 177.82 199.17 174.84 200.42 172.13 202.16 Z" />
<path fill="#020202" opacity="1.00" d=" M 152.46 141.76 C 155.67 141.12 158.65 143.19 161.11 145.00 C 163.70 147.67 164.58 151.47 166.17 154.75 C 168.85 160.12 167.73 166.32 166.80 171.98 C 166.08 176.68 161.42 179.86 156.91 180.25 C 151.38 180.71 145.06 181.25 140.43 177.56 C 137.63 175.62 137.02 172.05 135.70 169.14 C 134.45 165.78 131.86 162.78 132.15 158.99 C 131.92 153.84 132.88 147.65 137.76 144.83 C 142.03 141.70 147.58 142.96 152.46 141.76 M 142.19 146.16 C 138.17 149.96 136.75 155.64 137.29 161.03 C 136.71 165.55 140.22 169.03 143.56 171.46 C 148.86 175.00 155.56 173.67 161.37 172.39 C 161.21 166.83 161.91 161.19 161.11 155.70 C 158.85 152.17 156.43 148.66 153.61 145.55 C 149.83 145.39 145.84 145.15 142.19 146.16 M 157.88 145.78 C 158.28 147.83 159.18 149.72 161.31 150.45 C 161.05 148.30 159.72 146.77 157.88 145.78 M 163.59 157.69 C 163.17 161.85 163.37 166.07 164.39 170.14 C 165.06 166.20 167.77 160.46 163.59 157.69 M 139.72 172.93 C 141.39 176.01 144.45 178.19 148.02 178.30 C 152.65 178.55 157.97 179.09 161.82 175.94 C 159.99 173.88 157.27 175.50 154.99 175.55 C 149.69 176.74 144.66 174.46 139.72 172.93 Z" />
</g>
<g id="#4e4d4dfe">
<path fill="#4e4d4d" opacity="1.00" d=" M 145.37 21.84 C 149.46 21.41 153.45 22.45 157.27 23.80 C 154.33 27.06 151.62 30.62 148.21 33.40 C 147.48 33.33 146.02 33.20 145.29 33.13 C 145.31 29.37 145.33 25.60 145.37 21.84 Z" />
<path fill="#4e4d4d" opacity="1.00" d=" M 132.02 24.39 C 135.59 24.24 139.12 23.70 142.55 22.72 C 142.21 26.10 141.18 29.49 139.23 32.30 C 134.10 33.70 129.02 31.49 123.99 30.72 C 118.83 30.31 113.65 30.88 108.48 30.54 C 110.79 26.81 115.36 27.69 119.10 27.45 C 123.63 27.47 127.52 24.54 132.02 24.39 Z" />
<path fill="#4e4d4d" opacity="1.00" d=" M 196.58 27.71 C 197.53 27.77 198.48 27.83 199.43 27.88 C 199.40 28.14 199.35 28.65 199.32 28.91 C 199.20 29.89 199.08 30.87 198.96 31.85 C 198.32 31.83 197.04 31.79 196.40 31.76 C 196.42 31.17 196.48 29.98 196.51 29.39 C 196.53 28.97 196.56 28.13 196.58 27.71 Z" />
<path fill="#4e4d4d" opacity="1.00" d=" M 204.50 28.18 C 205.42 28.07 206.34 27.96 207.27 27.92 C 207.84 32.17 207.48 36.48 207.64 40.75 C 207.34 40.76 206.72 40.78 206.41 40.79 C 206.41 38.26 206.36 35.73 205.95 33.23 L 204.31 33.71 C 204.36 31.87 204.42 30.02 204.50 28.18 Z" />
<path fill="#4e4d4d" opacity="1.00" d=" M 235.42 28.54 C 236.42 28.23 237.42 27.91 238.42 27.59 C 238.62 31.98 238.56 36.37 238.66 40.76 C 238.36 40.77 237.75 40.78 237.45 40.79 C 237.39 38.28 237.17 35.77 236.69 33.30 L 235.34 33.64 C 235.36 31.94 235.38 30.24 235.42 28.54 Z" />
<path fill="#4e4d4d" opacity="1.00" d=" M 242.45 28.23 C 243.30 28.14 244.15 28.02 245.01 28.03 C 245.76 29.41 246.28 30.89 246.89 32.34 L 245.27 32.52 C 245.39 33.02 245.62 34.03 245.73 34.54 L 244.47 34.32 C 244.01 37.00 243.59 39.69 242.86 42.32 C 242.11 37.66 242.55 32.92 242.45 28.23 Z" />
<path fill="#4e4d4d" opacity="1.00" d=" M 250.58 28.82 C 251.31 28.48 252.04 28.14 252.77 27.79 C 253.28 28.26 253.80 28.73 254.33 29.20 C 254.36 33.01 254.39 36.82 254.45 40.63 C 253.94 40.63 252.92 40.61 252.41 40.60 C 252.06 37.73 253.88 33.54 250.45 31.99 C 250.49 30.94 250.53 29.88 250.58 28.82 Z" />
<path fill="#4e4d4d" opacity="1.00" d=" M 257.70 28.87 C 258.56 28.45 259.43 28.02 260.29 27.58 C 260.81 29.04 261.33 30.49 261.83 31.96 C 258.05 33.29 259.93 37.68 259.57 40.63 C 259.06 40.62 258.05 40.61 257.54 40.61 C 257.62 36.70 257.64 32.79 257.70 28.87 Z" />
<path fill="#4e4d4d" opacity="1.00" d=" M 156.10 34.09 C 158.86 31.90 161.54 29.60 164.14 27.21 C 170.52 32.03 176.64 37.23 181.93 43.26 C 181.03 43.97 180.13 44.68 179.23 45.39 C 181.05 46.88 183.18 48.15 184.42 50.22 C 187.61 55.76 187.76 62.46 190.97 67.99 C 194.65 75.14 201.43 80.38 203.72 88.29 C 207.93 102.21 212.69 115.96 216.79 129.91 C 218.05 135.51 217.43 141.30 217.47 146.99 C 217.24 153.70 218.67 160.30 218.83 167.00 C 219.09 173.21 221.89 179.52 220.17 185.67 C 213.21 194.95 211.30 206.64 207.11 217.21 C 205.98 219.68 205.79 224.34 201.98 223.73 C 168.00 223.72 134.01 223.70 100.02 223.73 C 96.06 223.65 92.02 224.18 88.11 223.37 C 86.32 222.37 84.79 221.01 83.14 219.81 C 77.12 215.28 69.72 212.92 63.89 208.12 C 61.95 205.85 59.51 202.40 61.43 199.43 C 63.42 195.35 66.50 191.67 67.14 187.04 C 67.64 183.03 67.33 178.98 67.36 174.96 C 67.26 166.95 68.06 158.78 65.91 150.95 C 64.99 146.90 62.00 143.78 58.96 141.13 C 53.78 136.59 47.63 133.39 41.61 130.14 C 41.60 122.88 41.24 115.55 42.61 108.37 C 42.62 108.26 42.65 108.03 42.67 107.92 C 43.99 105.25 44.64 102.33 45.45 99.49 L 46.13 99.54 C 46.70 99.59 47.84 99.68 48.41 99.73 C 48.49 94.18 45.42 87.40 49.88 82.86 C 55.47 76.21 61.69 70.09 66.96 63.16 C 73.54 64.34 80.46 65.82 85.81 70.07 C 89.67 73.61 92.68 77.94 96.48 81.54 C 96.53 82.09 96.65 83.19 96.71 83.74 C 92.78 81.69 88.54 79.68 83.98 80.26 C 80.09 80.25 77.24 83.15 74.24 85.18 C 70.46 88.00 65.66 89.86 63.28 94.16 C 61.49 97.55 60.33 101.27 59.69 105.04 C 59.04 107.86 61.16 110.18 62.18 112.62 C 64.43 116.79 63.88 121.68 65.06 126.14 C 66.58 130.38 70.57 133.43 74.93 134.31 C 79.77 135.40 84.97 136.29 89.85 134.99 C 95.41 131.69 99.75 126.59 103.28 121.23 C 106.21 116.93 110.40 113.49 112.52 108.64 C 114.35 104.36 115.32 99.65 115.19 94.99 C 114.05 94.09 112.86 93.26 111.63 92.50 C 111.49 94.44 111.35 96.39 111.21 98.34 C 110.24 97.09 109.21 95.87 108.40 94.50 C 109.20 93.46 110.04 92.45 110.92 91.48 C 105.38 84.93 97.29 80.86 92.85 73.35 C 95.40 72.35 97.94 71.31 100.46 70.24 C 98.45 68.39 96.68 66.04 94.05 65.04 C 91.76 64.46 89.36 64.54 87.02 64.25 C 81.45 63.76 76.34 61.32 71.20 59.31 C 71.25 58.84 71.33 57.91 71.37 57.45 C 75.27 53.64 79.03 49.63 81.79 44.90 C 84.41 40.39 88.01 36.05 93.13 34.38 C 100.50 31.64 108.39 33.54 116.01 33.29 C 123.55 32.93 130.76 35.77 138.29 35.59 C 137.65 37.55 137.07 39.55 136.17 41.41 C 134.21 41.51 132.34 40.86 130.47 40.39 C 130.59 45.48 131.05 50.91 128.54 55.57 C 125.69 60.98 122.93 66.75 123.22 73.04 C 122.89 76.63 126.38 78.75 127.39 81.89 C 126.66 83.50 125.71 84.99 124.81 86.50 C 126.87 86.55 128.92 86.60 130.98 86.66 C 134.94 81.34 133.05 74.16 136.38 68.57 C 138.66 63.67 143.55 60.67 145.96 55.89 C 147.08 51.73 144.71 47.32 146.04 43.18 C 147.34 40.55 149.17 37.72 152.01 36.64 C 155.93 37.18 159.62 39.31 163.69 38.62 C 161.26 36.94 158.70 35.48 156.10 34.09 M 154.59 56.88 C 155.54 57.56 156.49 58.25 157.44 58.94 C 152.30 63.26 146.74 67.24 142.40 72.40 C 137.74 77.96 137.80 85.66 138.80 92.43 C 140.41 95.00 142.71 97.05 144.46 99.52 C 147.55 103.67 150.32 108.58 155.32 110.70 C 164.32 114.73 174.41 113.47 183.98 113.72 C 190.01 114.33 195.14 110.01 198.31 105.32 C 201.28 101.25 200.94 95.89 200.34 91.16 C 199.26 88.59 196.79 86.91 195.28 84.60 C 193.22 81.54 192.10 77.95 189.95 74.94 C 187.97 72.01 185.19 69.78 182.92 67.09 C 180.64 64.39 179.69 60.53 176.35 58.80 C 172.45 56.61 169.77 52.15 165.01 51.73 C 161.19 52.24 156.43 52.98 154.59 56.88 M 145.42 120.67 C 141.21 122.42 136.54 123.73 133.58 127.45 C 130.75 130.90 126.28 132.16 122.98 135.00 C 118.38 140.35 116.37 147.26 113.59 153.61 C 111.95 157.48 108.14 160.47 108.16 164.95 C 107.80 169.23 107.51 173.64 108.61 177.85 C 109.56 180.95 111.86 183.63 111.70 187.03 C 111.61 194.60 116.40 201.32 122.11 205.86 C 124.00 207.61 126.64 207.53 129.04 207.65 C 135.02 207.88 141.00 209.32 146.98 208.35 C 156.68 205.65 166.86 205.80 176.84 205.53 C 179.34 205.40 180.90 203.12 182.19 201.24 C 184.35 197.71 186.74 194.14 187.52 190.00 C 188.62 184.35 191.13 178.86 190.28 172.98 C 189.28 165.01 189.94 156.97 189.59 148.98 C 188.72 143.25 186.84 137.42 183.21 132.82 C 179.14 127.91 172.25 127.94 166.98 125.04 C 163.65 123.48 160.79 120.73 157.03 120.23 C 153.20 119.68 149.11 119.18 145.42 120.67 Z" />
<path fill="#4e4d4d" opacity="1.00" d=" M 212.02 28.66 C 213.49 27.43 215.48 29.75 214.73 31.23 C 213.86 31.33 213.01 31.29 212.17 31.12 C 212.13 30.50 212.06 29.27 212.02 28.66 Z" />
<path fill="#4e4d4d" opacity="1.00" d=" M 221.08 29.37 C 224.42 29.60 219.45 32.29 221.08 29.37 Z" />
<path fill="#4e4d4d" opacity="1.00" d=" M 267.18 29.22 C 268.65 28.05 270.28 30.62 268.79 31.59 C 267.31 32.76 265.69 30.20 267.18 29.22 Z" />
<path fill="#4e4d4d" opacity="1.00" d=" M 138.34 43.83 C 139.14 40.73 140.23 37.66 142.08 35.01 C 142.61 37.17 143.95 39.55 142.80 41.75 C 142.17 43.62 139.87 43.36 138.34 43.83 Z" />
<path fill="#4e4d4d" opacity="1.00" d=" M 137.76 50.36 C 138.33 48.34 140.31 47.25 141.77 45.92 C 141.92 50.93 139.02 55.10 136.46 59.14 C 136.77 56.20 137.04 53.23 137.76 50.36 Z" />
<path fill="#4e4d4d" opacity="1.00" d=" M 205.50 49.55 C 206.73 49.56 207.96 49.57 209.20 49.58 L 208.72 51.02 C 207.41 54.57 206.76 58.31 206.34 62.07 C 206.50 58.29 206.32 54.50 205.68 50.78 C 205.64 50.47 205.54 49.86 205.50 49.55 Z" />
<path fill="#4e4d4d" opacity="1.00" d=" M 213.39 49.67 C 214.73 49.61 216.08 49.55 217.43 49.50 C 217.44 53.78 217.49 58.06 217.51 62.34 C 217.07 62.37 216.20 62.44 215.77 62.47 L 215.80 62.23 C 216.92 58.23 215.75 54.24 213.86 50.69 C 213.74 50.43 213.51 49.92 213.39 49.67 Z" />
<path fill="#4e4d4d" opacity="1.00" d=" M 221.31 49.42 C 222.36 49.47 223.42 49.52 224.47 49.58 C 224.52 51.42 224.55 53.27 224.57 55.12 C 221.09 55.46 223.02 59.59 222.58 61.91 C 222.02 61.76 220.91 61.48 220.35 61.33 C 220.62 60.51 221.15 58.88 221.42 58.06 C 221.39 55.18 221.33 52.30 221.31 49.42 Z" />
<path fill="#4e4d4d" opacity="1.00" d=" M 229.44 49.55 C 230.50 49.52 231.55 49.50 232.62 49.48 C 232.28 54.11 233.42 58.97 231.80 63.43 C 231.34 60.75 231.36 58.02 231.44 55.31 C 230.94 55.39 229.95 55.54 229.45 55.61 C 229.44 53.59 229.43 51.57 229.44 49.55 Z" />
<path fill="#4e4d4d" opacity="1.00" d=" M 236.64 49.51 C 237.92 49.55 239.20 49.59 240.48 49.62 C 240.38 49.88 240.17 50.38 240.07 50.64 C 238.41 54.24 237.64 58.14 237.36 62.08 C 237.48 57.88 237.21 53.67 236.64 49.51 Z" />
<path fill="#4e4d4d" opacity="1.00" d=" M 244.55 49.66 C 245.82 49.60 247.09 49.54 248.36 49.49 C 248.40 53.72 248.53 57.95 248.34 62.18 C 248.04 59.30 247.83 56.42 247.64 53.54 C 247.08 53.26 245.96 52.71 245.40 52.43 C 245.19 51.74 244.76 50.35 244.55 49.66 Z" />
<path fill="#4e4d4d" opacity="1.00" d=" M 252.74 49.53 C 254.91 49.49 257.09 49.44 259.27 49.38 C 260.46 50.47 261.63 51.57 262.81 52.67 C 261.85 54.47 260.69 56.14 259.49 57.78 C 260.85 59.17 262.03 60.73 262.99 62.43 C 261.90 62.40 260.81 62.37 259.73 62.33 C 259.65 61.66 259.49 60.31 259.41 59.64 C 257.83 58.66 256.23 57.71 254.62 56.81 C 254.49 58.85 254.41 60.89 254.30 62.93 C 253.41 62.42 252.38 62.11 251.71 61.31 C 251.53 58.13 251.69 54.94 251.61 51.76 C 251.89 51.20 252.46 50.08 252.74 49.53 M 254.49 51.53 C 254.52 52.87 254.56 54.21 254.61 55.56 C 257.41 55.95 260.04 54.92 259.83 51.62 C 258.05 51.57 256.27 51.54 254.49 51.53 Z" />
<path fill="#4e4d4d" opacity="1.00" d=" M 265.44 49.58 C 267.76 49.52 270.07 49.48 272.39 49.41 C 273.82 50.71 275.23 52.03 276.64 53.36 C 275.47 54.35 274.28 55.32 273.09 56.28 C 274.05 58.52 275.19 60.68 275.94 63.01 C 275.20 62.58 273.71 61.73 272.97 61.31 C 272.17 59.99 271.35 58.69 270.52 57.39 C 269.59 57.43 268.66 57.47 267.74 57.51 C 267.46 59.37 268.55 62.39 265.51 62.19 C 265.16 58.00 265.37 53.78 265.44 49.58 M 267.26 55.39 C 269.12 55.48 270.98 55.55 272.84 55.60 C 272.98 54.87 273.27 53.40 273.41 52.66 C 272.33 51.61 271.02 50.85 269.81 49.97 C 268.24 51.41 267.31 53.25 267.26 55.39 Z" />
<path fill="#4e4d4d" opacity="1.00" d=" M 190.16 59.14 C 190.80 59.13 192.10 59.11 192.75 59.10 C 196.56 63.77 200.20 69.29 200.43 75.51 C 196.76 75.65 195.65 71.66 194.03 69.16 C 192.45 65.96 189.97 62.88 190.16 59.14 Z" />
<path fill="#4e4d4d" opacity="1.00" d=" M 130.96 67.04 C 131.76 65.16 131.67 62.25 134.20 61.82 C 134.81 64.16 133.17 66.20 132.43 68.30 C 130.99 71.35 130.84 74.75 130.49 78.04 C 128.95 77.57 127.40 77.09 125.87 76.60 C 127.43 73.33 130.09 70.62 130.96 67.04 Z" />
<path fill="#4e4d4d" opacity="1.00" d=" M 86.92 67.22 C 90.06 66.38 93.51 66.93 96.06 69.01 C 93.48 72.07 88.63 70.36 86.92 67.22 Z" />
<path fill="#4e4d4d" opacity="1.00" d=" M 216.79 71.61 C 219.57 71.43 222.36 71.36 225.15 71.37 C 226.03 72.21 226.93 73.04 227.83 73.87 C 227.60 75.59 226.91 77.15 225.49 78.22 C 225.40 78.97 225.32 79.72 225.24 80.48 C 225.78 80.81 226.85 81.47 227.39 81.80 C 227.45 82.71 227.52 83.63 227.60 84.55 C 227.13 84.49 226.19 84.36 225.72 84.30 C 225.18 83.09 224.63 81.88 224.11 80.66 C 222.65 80.06 221.17 79.47 219.69 78.93 C 219.62 80.77 219.56 82.62 219.49 84.47 C 218.58 84.38 217.67 84.28 216.76 84.20 C 216.75 80.00 216.77 75.81 216.79 71.61 M 219.75 73.50 C 219.69 74.40 219.62 75.30 219.56 76.21 C 220.86 76.69 222.16 77.20 223.45 77.72 C 224.07 76.32 224.60 74.89 225.04 73.43 C 223.28 73.41 221.51 73.43 219.75 73.50 Z" />
<path fill="#4e4d4d" opacity="1.00" d=" M 243.71 71.56 C 246.99 71.78 251.43 70.03 253.60 73.37 C 256.10 75.37 252.53 77.34 251.36 78.97 C 252.69 80.65 253.92 82.42 254.94 84.32 C 254.41 84.33 253.35 84.35 252.82 84.37 C 251.20 82.08 249.69 79.28 246.61 78.86 C 246.51 80.71 246.44 82.56 246.37 84.41 C 245.48 84.35 244.60 84.30 243.72 84.24 C 243.63 80.02 243.71 75.79 243.71 71.56 M 246.74 72.57 C 246.50 74.25 246.47 75.95 246.44 77.64 C 248.16 77.39 249.87 77.13 251.58 76.81 C 251.61 75.65 251.64 74.49 251.67 73.34 C 250.04 72.98 248.41 72.62 246.74 72.57 Z" />
<path fill="#4e4d4d" opacity="1.00" d=" M 257.42 71.43 C 260.78 71.75 265.28 70.11 267.43 73.59 C 268.14 75.51 267.43 77.93 265.01 78.09 C 265.46 79.64 266.28 81.01 267.31 82.25 C 267.43 83.03 267.55 83.81 267.67 84.59 C 267.24 84.50 266.39 84.33 265.97 84.24 C 264.59 81.91 263.01 79.61 260.35 78.61 C 260.27 80.21 260.20 81.82 260.17 83.44 C 259.22 83.55 258.27 83.67 257.33 83.79 C 257.34 79.67 257.37 75.55 257.42 71.43 M 259.41 76.17 C 260.21 78.12 262.74 77.12 264.31 77.65 C 264.77 76.34 265.22 75.03 265.66 73.71 C 263.96 73.19 262.25 72.67 260.55 72.18 C 260.09 73.49 259.71 74.82 259.41 76.17 Z" />
<path fill="#4e4d4d" opacity="1.00" d=" M 270.54 71.48 C 274.33 71.35 278.53 70.72 281.37 73.86 C 281.36 74.66 281.35 75.46 281.35 76.25 C 280.23 76.84 279.11 77.42 277.98 77.98 C 279.18 80.18 280.52 82.30 281.86 84.42 C 280.96 84.36 280.06 84.29 279.17 84.23 C 277.82 81.86 276.20 79.49 273.44 78.64 C 273.34 80.51 273.29 82.38 273.24 84.25 C 272.35 84.30 271.47 84.35 270.60 84.39 C 270.42 80.09 270.52 75.78 270.54 71.48 M 273.37 77.56 C 274.46 77.54 276.64 77.48 277.72 77.45 C 278.10 76.16 278.50 74.87 278.92 73.58 C 277.15 73.10 275.38 72.63 273.60 72.20 C 272.91 73.94 272.49 75.79 273.37 77.56 Z" />
<path fill="#4e4d4d" opacity="1.00" d=" M 230.65 71.82 C 231.60 71.61 233.49 71.20 234.44 70.99 C 233.75 73.17 233.30 75.41 233.30 77.70 C 236.14 77.74 238.58 76.71 238.92 73.61 C 238.00 73.54 236.16 73.38 235.24 73.30 C 235.99 72.55 236.75 71.81 237.52 71.07 C 240.98 72.03 242.34 77.37 238.07 78.27 C 238.75 79.65 239.61 80.93 240.62 82.10 C 240.52 83.13 240.41 84.15 240.31 85.18 C 238.16 82.78 236.61 78.72 232.73 79.21 C 232.74 80.73 232.76 82.25 232.78 83.77 L 230.42 83.59 C 230.54 79.67 230.32 75.73 230.65 71.82 Z" />
<path fill="#4e4d4d" opacity="1.00" d=" M 207.26 92.10 L 209.06 92.28 C 211.33 95.42 213.14 98.90 214.37 102.58 C 215.54 106.22 217.84 109.66 217.31 113.64 C 217.69 113.45 218.43 113.08 218.81 112.89 C 220.15 117.16 219.89 121.68 219.59 126.09 C 215.18 125.46 216.14 120.28 215.05 117.08 C 212.98 109.55 210.09 102.26 207.43 94.92 C 207.39 94.21 207.30 92.80 207.26 92.10 Z" />
<path fill="#4e4d4d" opacity="1.00" d=" M 229.77 93.56 C 232.00 93.52 234.23 93.48 236.47 93.40 C 237.54 94.52 238.70 95.58 239.52 96.91 C 239.30 98.89 237.47 100.15 236.58 101.82 C 237.45 102.79 238.39 103.71 239.32 104.63 C 239.37 105.14 239.47 106.17 239.52 106.69 C 238.76 106.53 238.00 106.38 237.25 106.22 C 236.18 104.57 235.07 102.96 233.90 101.38 C 233.30 101.41 232.11 101.48 231.51 101.51 C 231.47 103.32 231.43 105.14 231.37 106.96 C 230.47 106.45 229.33 106.23 228.74 105.32 C 228.54 102.14 228.70 98.96 228.62 95.78 C 228.91 95.22 229.48 94.11 229.77 93.56 M 231.49 95.48 C 231.47 96.81 231.46 98.13 231.46 99.46 C 233.15 99.49 234.85 99.52 236.54 99.54 C 236.57 98.18 236.60 96.83 236.63 95.47 C 234.91 95.47 233.20 95.47 231.49 95.48 Z" />
<path fill="#4e4d4d" opacity="1.00" d=" M 242.49 93.56 C 246.21 93.27 250.09 93.18 253.01 95.88 C 252.51 97.77 251.48 99.44 250.52 101.12 C 250.58 103.13 252.32 104.68 253.13 106.46 C 252.57 106.46 251.46 106.44 250.90 106.44 C 249.79 104.74 248.65 103.06 247.47 101.40 C 246.56 101.45 245.66 101.50 244.75 101.55 C 244.23 103.15 245.76 107.29 242.52 105.84 C 242.18 101.75 242.43 97.65 242.49 93.56 M 245.00 95.50 C 244.81 96.78 244.64 98.06 244.47 99.34 C 246.19 99.42 247.91 99.48 249.63 99.53 C 249.66 98.19 249.69 96.84 249.72 95.50 C 248.14 95.50 246.57 95.49 245.00 95.50 Z" />
<path fill="#4e4d4d" opacity="1.00" d=" M 255.52 94.13 C 258.09 93.54 260.73 93.41 263.36 93.32 C 264.33 94.73 266.25 95.85 266.29 97.72 C 265.49 98.83 264.49 99.78 263.55 100.77 C 263.50 101.21 263.40 102.10 263.35 102.54 C 263.95 102.89 265.14 103.58 265.74 103.92 C 265.57 105.11 265.39 106.30 265.21 107.49 C 264.09 105.94 263.00 104.36 261.98 102.75 C 260.86 102.16 259.73 101.58 258.61 101.01 C 258.27 102.64 257.90 104.26 257.56 105.89 L 255.48 105.69 C 255.54 101.84 255.60 97.98 255.52 94.13 M 258.50 95.28 C 258.47 96.65 258.45 98.02 258.45 99.40 C 259.72 99.42 260.99 99.45 262.26 99.48 C 262.65 98.71 263.45 97.17 263.84 96.39 C 262.09 95.90 260.30 95.55 258.50 95.28 Z" />
<path fill="#4e4d4d" opacity="1.00" d=" M 269.74 93.48 C 272.19 93.80 275.60 92.34 276.87 95.37 C 275.10 95.46 273.34 95.51 271.57 95.55 C 271.50 96.44 271.44 97.33 271.37 98.23 C 273.09 98.79 274.82 99.37 276.51 100.02 C 274.96 100.69 272.73 100.22 271.58 101.61 C 271.43 103.21 271.42 104.82 271.39 106.44 C 270.97 106.46 270.12 106.50 269.70 106.52 C 269.42 105.94 268.87 104.78 268.59 104.20 C 268.70 101.41 268.76 98.61 268.75 95.82 C 269.00 95.24 269.49 94.07 269.74 93.48 Z" />
<path fill="#4e4d4d" opacity="1.00" d=" M 280.46 93.56 C 280.87 93.67 281.70 93.88 282.12 93.99 C 282.10 96.23 282.19 98.47 282.42 100.71 C 282.34 102.92 283.69 106.43 280.50 107.09 C 280.18 102.59 280.28 98.07 280.46 93.56 Z" />
<path fill="#4e4d4d" opacity="1.00" d=" M 242.70 114.75 C 245.31 114.64 247.93 114.58 250.55 114.52 C 250.51 115.09 250.44 116.25 250.41 116.82 C 250.19 116.46 249.74 115.73 249.52 115.37 C 248.34 115.29 247.16 115.21 245.99 115.13 C 245.47 116.98 245.01 118.84 244.66 120.72 C 245.49 121.23 246.33 121.74 247.16 122.25 L 245.36 122.45 C 245.38 124.13 245.40 125.82 245.43 127.50 C 244.46 127.50 243.50 127.51 242.54 127.51 C 242.60 123.26 242.57 119.00 242.70 114.75 Z" />
<path fill="#4e4d4d" opacity="1.00" d=" M 276.69 115.22 L 277.40 114.99 C 277.71 115.20 278.33 115.63 278.64 115.85 C 278.90 118.07 279.01 120.32 278.99 122.56 C 278.88 124.23 278.71 125.90 278.58 127.57 L 276.39 127.59 C 276.54 123.48 276.07 119.24 276.69 115.22 Z" />
<path fill="#4e4d4d" opacity="1.00" d=" M 254.47 136.52 C 256.84 136.48 259.22 136.45 261.59 136.40 C 261.60 136.94 261.62 138.01 261.63 138.54 C 259.95 138.51 258.26 138.49 256.59 138.49 C 256.54 139.20 256.44 140.63 256.40 141.34 C 258.19 141.81 259.99 142.30 261.79 142.76 C 261.32 143.11 260.37 143.80 259.89 144.14 C 258.74 144.23 257.60 144.32 256.46 144.41 C 256.48 146.09 256.50 147.79 256.51 149.48 C 255.56 149.44 254.60 149.41 253.65 149.38 C 253.68 145.08 253.36 140.72 254.47 136.52 Z" />
<path fill="#4e4d4d" opacity="1.00" d=" M 242.58 137.24 C 244.97 136.50 247.48 136.23 249.97 136.51 C 250.64 139.50 246.57 137.84 245.50 139.26 C 244.63 142.34 245.13 145.62 244.67 148.77 C 243.42 148.58 243.40 147.00 243.20 146.06 C 242.80 143.14 242.71 140.18 242.58 137.24 Z" />
<path fill="#4e4d4d" opacity="1.00" d=" M 265.52 136.52 C 265.92 136.65 266.72 136.90 267.12 137.03 C 267.07 139.28 267.21 141.53 267.74 143.73 C 267.69 145.65 267.61 147.56 267.54 149.49 L 265.33 149.49 C 265.33 145.17 265.29 140.84 265.52 136.52 Z" />
<path fill="#4e4d4d" opacity="1.00" d=" M 276.51 137.66 C 278.13 135.49 281.39 136.85 283.69 136.30 C 283.67 136.90 283.63 138.09 283.61 138.69 C 282.24 138.56 280.86 138.45 279.49 138.34 C 279.21 139.06 278.65 140.50 278.37 141.22 C 279.90 141.67 281.44 142.13 282.98 142.59 C 282.98 142.76 282.98 143.12 282.98 143.29 C 281.62 143.55 280.28 143.87 278.96 144.27 C 278.66 145.99 278.64 147.74 278.53 149.47 C 278.00 149.49 276.94 149.54 276.41 149.56 C 276.42 145.59 276.25 141.61 276.51 137.66 Z" />
<path fill="#4e4d4d" opacity="1.00" d=" M 32.53 147.99 C 32.44 144.12 34.91 140.94 36.86 137.83 C 41.24 142.85 45.92 147.72 49.29 153.52 C 51.03 156.06 49.87 159.18 49.80 161.99 C 49.08 167.02 51.20 172.22 49.21 177.09 C 47.70 180.85 49.36 185.39 46.80 188.78 C 44.05 192.52 41.65 196.51 39.99 200.86 C 43.86 201.42 44.41 197.44 45.88 194.86 C 47.17 192.26 49.25 190.12 50.33 187.42 C 50.92 183.65 49.82 179.24 53.12 176.44 C 53.16 181.57 53.42 187.08 50.66 191.65 C 48.64 196.07 44.10 198.83 42.80 203.65 C 39.72 203.16 36.54 202.03 34.61 199.44 C 32.52 196.75 32.46 193.20 32.49 189.95 C 32.62 175.97 32.49 161.98 32.53 147.99 Z" />
<path fill="#4e4d4d" opacity="1.00" d=" M 142.19 146.16 C 145.84 145.15 149.83 145.39 153.61 145.55 C 156.43 148.66 158.85 152.17 161.11 155.70 C 161.91 161.19 161.21 166.83 161.37 172.39 C 155.56 173.67 148.86 175.00 143.56 171.46 C 140.22 169.03 136.71 165.55 137.29 161.03 C 136.75 155.64 138.17 149.96 142.19 146.16 Z" />
<path fill="#4e4d4d" opacity="1.00" d=" M 242.64 158.56 C 245.68 158.39 248.75 158.28 251.76 158.85 C 249.44 160.19 245.05 159.47 245.03 163.12 C 246.95 163.50 248.88 163.96 250.51 165.14 C 248.88 165.34 247.26 165.52 245.63 165.67 C 245.41 167.64 245.17 169.60 244.85 171.56 C 244.28 171.48 243.15 171.34 242.59 171.26 C 242.58 167.03 242.59 162.79 242.64 158.56 Z" />
<path fill="#4e4d4d" opacity="1.00" d=" M 265.44 158.50 C 267.88 158.43 270.33 158.39 272.77 158.33 C 272.71 158.82 272.58 159.80 272.51 160.29 C 271.12 160.29 269.74 160.33 268.36 160.43 C 268.27 161.21 268.08 162.77 267.99 163.55 C 268.90 163.54 270.72 163.50 271.63 163.49 C 271.64 163.96 271.67 164.90 271.69 165.37 C 270.31 165.65 268.46 165.17 267.77 166.76 C 267.58 168.30 267.54 169.86 267.46 171.42 C 266.94 171.42 265.90 171.43 265.38 171.44 C 265.31 167.12 265.31 162.81 265.44 158.50 Z" />
<path fill="#4e4d4d" opacity="1.00" d=" M 52.28 159.18 C 52.88 159.27 54.08 159.46 54.68 159.56 C 54.40 163.62 53.84 167.65 53.43 171.69 C 53.18 171.72 52.67 171.78 52.41 171.81 C 52.45 167.60 52.40 163.39 52.28 159.18 Z" />
<path fill="#4e4d4d" opacity="1.00" d=" M 254.93 170.87 C 254.21 166.58 253.62 161.82 256.27 158.04 C 256.32 158.62 256.42 159.77 256.47 160.35 C 256.56 161.36 256.56 162.38 256.49 163.39 C 256.19 165.92 255.61 168.41 254.93 170.87 Z" />
<path fill="#4e4d4d" opacity="1.00" d=" M 276.93 160.92 C 276.72 159.22 278.76 159.11 279.80 158.46 C 279.30 159.69 278.79 160.91 278.27 162.13 C 278.72 162.84 279.17 163.56 279.63 164.28 C 278.86 166.48 278.02 168.67 277.12 170.82 C 276.86 167.53 276.55 164.21 276.93 160.92 Z" />
<path fill="#4e4d4d" opacity="1.00" d=" M 242.61 180.49 C 245.68 180.34 248.80 180.13 251.80 180.98 C 249.77 181.46 247.69 181.66 245.61 181.83 C 245.53 183.07 245.46 184.31 245.39 185.56 C 246.19 185.50 247.78 185.38 248.58 185.32 C 248.65 185.85 248.79 186.92 248.86 187.46 C 247.71 187.45 246.57 187.45 245.43 187.45 C 245.42 189.17 245.41 190.89 245.41 192.61 C 244.44 192.61 243.47 192.61 242.51 192.62 C 242.61 188.57 242.60 184.53 242.61 180.49 Z" />
<path fill="#4e4d4d" opacity="1.00" d=" M 254.07 180.45 C 256.62 180.36 259.18 180.34 261.73 180.32 C 261.74 180.63 261.76 181.25 261.77 181.56 C 260.42 181.58 259.08 181.66 257.75 181.77 C 256.36 182.49 256.55 184.14 256.24 185.44 C 257.69 185.45 259.14 185.46 260.59 185.47 C 260.59 185.97 260.58 186.97 260.57 187.47 C 259.23 187.46 257.89 187.46 256.56 187.47 C 256.50 189.49 256.45 191.52 256.38 193.55 C 255.46 193.11 254.54 192.67 253.62 192.24 C 253.68 188.31 253.53 184.35 254.07 180.45 Z" />
<path fill="#4e4d4d" opacity="1.00" d=" M 265.40 180.42 C 267.85 180.36 270.30 180.34 272.75 180.30 C 272.77 180.66 272.80 181.38 272.82 181.74 C 272.04 181.69 270.48 181.61 269.70 181.56 C 269.08 181.93 267.84 182.68 267.22 183.05 C 267.51 185.75 270.18 185.53 272.32 185.75 C 272.33 186.15 272.35 186.95 272.36 187.35 C 270.77 187.41 269.19 187.48 267.62 187.55 C 267.62 189.25 267.64 190.95 267.66 192.65 C 267.06 192.66 265.88 192.68 265.28 192.70 C 265.35 188.60 265.34 184.51 265.40 180.42 Z" />
<path fill="#4e4d4d" opacity="1.00" d=" M 276.59 179.97 L 278.16 180.72 C 278.29 180.79 278.55 180.93 278.68 181.00 C 278.87 183.16 279.14 185.32 279.14 187.50 C 279.03 189.25 278.79 190.99 278.60 192.73 C 278.03 192.71 276.90 192.65 276.33 192.63 C 276.43 188.41 276.32 184.18 276.59 179.97 Z" />
<path fill="#4e4d4d" opacity="1.00" d=" M 172.13 202.16 C 174.84 200.42 177.82 199.17 180.79 197.94 C 179.57 201.22 176.84 204.47 172.91 203.43 C 172.71 203.11 172.32 202.48 172.13 202.16 Z" />
<path fill="#4e4d4d" opacity="1.00" d=" M 255.37 201.62 C 257.43 201.59 259.48 201.56 261.54 201.53 C 261.58 202.02 261.65 203.01 261.68 203.50 C 259.91 203.66 258.15 203.84 256.39 204.10 C 256.48 205.19 256.57 206.28 256.66 207.38 C 258.02 207.38 259.38 207.38 260.75 207.39 C 260.66 207.89 260.49 208.90 260.41 209.40 C 259.11 209.40 257.81 209.41 256.52 209.43 C 256.49 211.33 256.46 213.24 256.41 215.14 C 255.49 214.80 254.55 214.46 253.63 214.12 C 253.68 210.58 253.70 207.04 253.66 203.50 C 254.23 202.87 254.80 202.24 255.37 201.62 Z" />
<path fill="#4e4d4d" opacity="1.00" d=" M 242.95 203.84 C 243.75 203.20 244.56 202.57 245.36 201.93 C 245.11 203.88 245.00 205.85 245.01 207.83 C 244.48 209.75 246.32 213.28 243.99 214.07 C 243.71 213.98 243.14 213.78 242.85 213.68 C 242.85 210.40 242.97 207.12 242.95 203.84 Z" />
<path fill="#4e4d4d" opacity="1.00" d=" M 265.69 202.84 C 266.39 202.95 267.81 203.17 268.51 203.27 C 268.33 204.21 267.97 206.09 267.78 207.03 C 269.34 207.33 270.91 207.59 272.48 207.82 C 271.03 208.51 269.56 209.15 268.18 209.97 C 267.32 211.41 266.57 212.91 265.80 214.40 C 265.76 210.54 265.72 206.69 265.69 202.84 Z" />
<path fill="#4e4d4d" opacity="1.00" d=" M 277.49 214.57 C 276.84 210.46 275.57 205.48 278.42 201.93 C 279.22 206.15 279.48 210.61 277.49 214.57 Z" />
<path fill="#4e4d4d" opacity="1.00" d=" M 53.27 208.83 C 55.10 207.36 57.03 206.02 59.09 204.89 C 60.06 206.83 60.47 209.30 62.39 210.58 C 69.35 215.16 77.22 218.30 83.77 223.50 C 76.15 224.02 68.49 223.57 60.86 223.75 C 57.73 219.10 54.39 214.44 53.27 208.83 Z" />
</g>
<g id="#2d2d2dfe">
<path fill="#2d2d2d" opacity="1.00" d=" M 152.35 33.30 C 154.14 29.32 157.35 25.71 161.94 25.21 C 160.02 29.17 156.41 31.84 152.35 33.30 Z" />
<path fill="#2d2d2d" opacity="1.00" d=" M 220.95 27.82 C 221.72 27.82 222.50 27.82 223.28 27.82 C 223.46 32.08 223.47 36.35 223.56 40.61 C 223.01 40.62 221.91 40.65 221.36 40.67 C 221.42 38.75 221.47 36.84 221.52 34.92 C 218.75 34.45 219.65 31.51 219.42 29.52 C 219.80 29.10 220.57 28.25 220.95 27.82 M 221.08 29.37 C 219.45 32.29 224.42 29.60 221.08 29.37 Z" />
<path fill="#2d2d2d" opacity="1.00" d=" M 266.35 28.31 C 267.42 28.33 268.50 28.35 269.58 28.38 C 269.51 32.79 269.75 37.21 269.43 41.61 C 267.36 39.63 267.61 36.75 267.43 34.13 C 264.89 32.90 265.74 30.48 266.35 28.31 M 267.18 29.22 C 265.69 30.20 267.31 32.76 268.79 31.59 C 270.28 30.62 268.65 28.05 267.18 29.22 Z" />
<path fill="#2d2d2d" opacity="1.00" d=" M 195.60 29.38 L 196.51 29.39 C 196.48 29.98 196.42 31.17 196.40 31.76 C 197.04 31.79 198.32 31.83 198.96 31.85 C 199.08 30.87 199.20 29.89 199.32 28.91 C 199.46 30.81 199.55 32.72 199.67 34.62 C 199.11 34.55 198.01 34.40 197.45 34.32 C 197.54 36.45 197.61 38.57 197.70 40.69 C 197.15 40.66 196.05 40.60 195.50 40.58 C 195.59 36.84 195.63 33.11 195.60 29.38 Z" />
<path fill="#2d2d2d" opacity="1.00" d=" M 211.36 40.83 C 211.51 36.77 211.08 32.64 212.02 28.66 C 212.06 29.27 212.13 30.50 212.17 31.12 C 213.01 31.29 213.86 31.33 214.73 31.23 L 215.90 31.16 C 213.44 33.68 213.11 37.09 213.31 40.43 C 212.82 40.53 211.84 40.73 211.36 40.83 Z" />
<path fill="#2d2d2d" opacity="1.00" d=" M 226.58 40.55 C 226.70 36.64 226.46 32.70 226.87 28.81 C 227.76 28.63 229.53 28.28 230.41 28.10 C 230.47 29.78 230.51 31.45 230.53 33.13 C 228.26 35.08 228.46 37.99 228.56 40.70 C 228.07 40.67 227.08 40.59 226.58 40.55 Z" />
<path fill="#2d2d2d" opacity="1.00" d=" M 144.48 35.43 C 145.63 35.60 147.13 34.97 147.94 36.12 C 148.05 37.91 146.19 38.48 145.06 39.42 C 144.92 38.42 144.63 36.43 144.48 35.43 Z" />
<path fill="#2d2d2d" opacity="1.00" d=" M 201.73 40.32 C 200.08 40.02 200.18 37.12 201.76 36.79 C 203.29 37.14 203.25 39.97 201.73 40.32 Z" />
<path fill="#2d2d2d" opacity="1.00" d=" M 231.11 40.29 C 231.74 38.51 232.41 36.75 233.12 35.00 C 233.39 36.91 233.60 38.84 233.77 40.76 C 233.11 40.64 231.78 40.41 231.11 40.29 Z" />
<path fill="#2d2d2d" opacity="1.00" d=" M 262.96 39.98 C 261.78 39.09 262.92 36.51 264.35 37.62 C 265.45 38.50 264.37 41.13 262.96 39.98 Z" />
<path fill="#2d2d2d" opacity="1.00" d=" M 133.55 52.28 C 132.22 49.57 132.24 43.90 136.46 44.39 C 136.87 47.40 135.35 50.02 133.55 52.28 Z" />
<path fill="#2d2d2d" opacity="1.00" d=" M 208.72 51.02 L 209.17 49.76 C 209.32 51.85 209.40 53.94 209.45 56.04 C 210.63 56.47 211.75 56.39 212.81 55.81 C 213.63 54.23 213.55 52.40 213.86 50.69 C 215.75 54.24 216.92 58.23 215.80 62.23 C 215.59 60.18 215.43 58.11 215.17 56.06 C 214.44 56.45 212.99 57.23 212.27 57.62 C 212.31 59.19 212.39 60.77 212.46 62.34 C 211.96 62.34 210.97 62.34 210.48 62.34 C 210.48 60.36 210.51 58.38 210.56 56.40 C 209.76 56.36 208.17 56.29 207.38 56.25 C 207.41 58.32 207.43 60.39 207.44 62.46 C 206.95 62.44 205.97 62.39 205.49 62.37 C 204.55 58.53 204.83 54.61 205.68 50.78 C 206.32 54.50 206.50 58.29 206.34 62.07 C 206.76 58.31 207.41 54.57 208.72 51.02 Z" />
<path fill="#2d2d2d" opacity="1.00" d=" M 235.86 62.16 C 236.57 57.98 236.39 53.73 236.64 49.51 C 237.21 53.67 237.48 57.88 237.36 62.08 C 237.64 58.14 238.41 54.24 240.07 50.64 C 240.33 52.53 240.46 54.54 242.11 55.78 C 242.74 55.84 243.99 55.97 244.61 56.03 C 244.56 53.91 244.55 51.78 244.55 49.66 C 244.76 50.35 245.19 51.74 245.40 52.43 C 245.96 52.71 247.08 53.26 247.64 53.54 C 247.83 56.42 248.04 59.30 248.34 62.18 L 248.37 62.47 C 247.91 62.44 246.98 62.40 246.52 62.37 C 246.54 60.35 246.55 58.32 246.59 56.29 C 245.76 56.29 244.09 56.27 243.26 56.26 C 243.37 58.05 243.48 59.85 243.59 61.64 C 243.07 61.65 242.03 61.68 241.51 61.69 C 241.39 60.18 241.61 58.57 240.74 57.23 C 240.29 56.92 239.40 56.31 238.95 56.00 C 238.54 58.14 238.42 60.32 238.30 62.50 C 237.48 62.38 236.67 62.27 235.86 62.16 Z" />
<path fill="#2d2d2d" opacity="1.00" d=" M 138.86 60.28 C 139.64 57.43 140.64 54.46 142.98 52.49 C 145.42 53.43 143.89 55.53 143.01 57.07 C 142.06 58.61 140.31 59.33 138.86 60.28 Z" />
<path fill="#2d2d2d" opacity="1.00" d=" M 154.59 56.88 C 158.74 55.88 163.47 52.59 167.54 55.52 C 171.85 58.43 176.00 61.78 179.00 66.08 C 182.20 70.83 187.08 74.32 189.47 79.63 C 191.19 83.37 193.66 86.65 196.13 89.91 C 200.19 95.52 197.54 103.45 192.89 107.85 C 189.17 111.33 183.76 111.27 179.00 111.31 C 171.82 111.18 164.42 111.16 157.58 108.70 C 152.12 106.74 149.22 101.43 145.76 97.18 C 143.95 94.68 141.33 92.36 141.26 89.05 C 140.99 84.51 140.89 79.54 143.46 75.57 C 146.53 70.68 151.48 67.47 155.64 63.60 C 158.83 60.59 162.84 58.76 166.66 56.71 C 163.43 56.46 160.08 56.93 157.44 58.94 C 156.49 58.25 155.54 57.56 154.59 56.88 Z" />
<path fill="#2d2d2d" opacity="1.00" d=" M 133.29 55.40 C 135.49 55.62 134.25 59.81 132.30 58.72 C 131.25 57.75 131.86 55.62 133.29 55.40 Z" />
<path fill="#2d2d2d" opacity="1.00" d=" M 225.31 60.11 C 225.83 59.10 226.88 57.10 227.40 56.10 C 227.52 58.40 227.58 60.71 227.56 63.02 C 226.81 62.05 226.05 61.08 225.31 60.11 Z" />
<path fill="#2d2d2d" opacity="1.00" d=" M 125.28 70.71 C 125.96 66.75 126.56 61.93 130.45 59.78 C 129.95 63.44 129.53 67.35 127.41 70.50 C 126.88 70.55 125.81 70.65 125.28 70.71 Z" />
<path fill="#2d2d2d" opacity="1.00" d=" M 70.63 90.59 C 75.69 88.03 79.83 82.56 86.01 83.15 C 90.61 83.52 95.07 85.01 99.30 86.79 C 103.44 88.90 104.54 93.75 106.59 97.52 C 107.37 99.56 109.88 99.51 111.59 100.21 C 111.78 107.26 107.21 112.79 102.60 117.54 C 98.86 123.31 94.60 129.20 88.39 132.47 C 82.84 133.23 76.83 132.68 71.73 130.26 C 66.00 126.92 67.57 119.50 65.91 114.07 C 65.43 110.66 61.53 108.24 62.50 104.62 C 63.85 99.39 65.36 93.24 70.63 90.59 Z" />
<path fill="#2d2d2d" opacity="1.00" d=" M 280.46 93.56 C 282.86 93.50 285.26 93.44 287.67 93.38 C 287.66 93.96 287.66 95.13 287.66 95.71 C 286.13 95.58 284.60 95.45 283.08 95.31 C 283.06 96.46 283.05 97.61 283.04 98.77 C 283.92 98.72 285.67 98.61 286.54 98.55 C 286.60 99.08 286.71 100.14 286.77 100.67 C 285.32 100.68 283.87 100.69 282.42 100.71 C 282.19 98.47 282.10 96.23 282.12 93.99 C 281.70 93.88 280.87 93.67 280.46 93.56 Z" />
<path fill="#2d2d2d" opacity="1.00" d=" M 254.45 114.66 C 256.81 114.60 259.18 114.55 261.55 114.49 C 261.59 115.00 261.67 116.01 261.72 116.52 C 260.17 116.58 258.63 116.59 257.10 116.81 C 256.70 117.69 256.34 118.58 256.01 119.49 C 257.90 119.96 259.80 120.40 261.70 120.82 C 261.29 121.30 260.89 121.79 260.49 122.28 C 259.17 122.32 257.85 122.37 256.54 122.42 C 256.51 124.27 256.49 126.13 256.44 127.99 C 255.75 127.75 254.38 127.28 253.70 127.04 C 253.61 122.90 254.39 118.80 254.45 114.66 Z" />
<path fill="#2d2d2d" opacity="1.00" d=" M 265.49 114.69 C 267.88 114.61 270.27 114.55 272.66 114.48 C 272.65 115.05 272.64 116.19 272.64 116.76 C 271.33 116.65 270.03 116.54 268.73 116.44 C 268.35 117.17 267.59 118.63 267.20 119.36 C 268.92 119.83 270.64 120.29 272.37 120.73 C 272.36 121.12 272.33 121.92 272.32 122.32 C 271.00 122.30 269.68 122.29 268.37 122.27 C 267.99 124.23 267.64 126.20 267.30 128.17 C 266.86 128.21 265.97 128.30 265.52 128.35 C 265.17 123.80 265.25 119.24 265.49 114.69 Z" />
<path fill="#2d2d2d" opacity="1.00" d=" M 277.27 114.54 C 279.66 114.48 282.06 114.65 284.45 114.53 C 284.40 115.40 284.36 116.27 284.32 117.14 C 282.53 117.23 280.74 117.35 278.96 117.51 C 280.11 118.84 281.67 119.65 283.23 120.40 C 283.31 121.05 283.40 121.69 283.50 122.34 C 282.08 122.33 280.67 122.32 279.27 122.31 C 279.37 124.21 279.50 126.12 279.57 128.03 C 279.32 126.21 279.09 124.39 278.99 122.56 C 279.01 120.32 278.90 118.07 278.64 115.85 C 278.33 115.63 277.71 115.20 277.40 114.99 L 277.27 114.54 Z" />
<path fill="#2d2d2d" opacity="1.00" d=" M 245.99 115.13 C 247.16 115.21 248.34 115.29 249.52 115.37 C 249.74 115.73 250.19 116.46 250.41 116.82 L 250.53 117.02 C 249.30 117.28 248.07 117.56 246.85 117.86 C 245.05 119.05 248.29 119.99 249.15 120.20 C 249.41 120.95 249.78 121.65 250.24 122.30 C 249.21 122.26 248.18 122.27 247.16 122.25 C 246.33 121.74 245.49 121.23 244.66 120.72 C 245.01 118.84 245.47 116.98 245.99 115.13 Z" />
<path fill="#2d2d2d" opacity="1.00" d=" M 144.27 124.34 C 149.39 123.09 154.75 124.57 159.88 125.19 C 165.73 127.62 171.54 130.44 176.55 134.38 C 179.58 136.66 183.16 138.80 184.44 142.60 C 188.69 152.41 184.31 162.96 183.62 173.02 C 183.47 178.93 182.09 184.70 180.71 190.42 C 180.14 192.60 179.49 195.03 177.42 196.28 C 172.14 199.86 165.68 200.81 159.69 202.65 C 151.42 205.13 142.70 204.95 134.17 204.61 C 130.37 204.42 126.26 203.42 123.83 200.25 C 121.47 197.24 119.27 194.11 117.00 191.03 C 113.54 185.68 114.50 179.03 114.43 172.99 C 114.31 161.85 116.34 150.20 123.15 141.09 C 126.51 136.40 131.56 133.44 135.96 129.86 C 138.58 127.82 141.11 125.51 144.27 124.34 M 152.46 141.76 C 147.58 142.96 142.03 141.70 137.76 144.83 C 132.88 147.65 131.92 153.84 132.15 158.99 C 131.86 162.78 134.45 165.78 135.70 169.14 C 137.02 172.05 137.63 175.62 140.43 177.56 C 145.06 181.25 151.38 180.71 156.91 180.25 C 161.42 179.86 166.08 176.68 166.80 171.98 C 167.73 166.32 168.85 160.12 166.17 154.75 C 164.58 151.47 163.70 147.67 161.11 145.00 C 158.65 143.19 155.67 141.12 152.46 141.76 Z" />
<path fill="#2d2d2d" opacity="1.00" d=" M 41.51 137.69 C 40.58 136.16 42.96 135.56 44.04 135.72 C 46.93 135.95 48.95 138.28 51.03 140.04 C 53.61 142.52 56.73 144.32 59.50 146.57 C 62.14 148.91 62.54 152.70 62.54 156.02 C 62.41 165.66 62.88 175.29 62.79 184.92 C 63.20 192.41 58.46 198.76 54.44 204.63 C 53.41 203.90 52.40 203.14 51.32 202.49 C 50.50 203.64 49.79 204.88 48.96 206.03 C 47.34 205.38 45.19 203.49 46.76 201.70 C 50.43 197.30 54.09 192.56 55.36 186.84 C 55.84 182.58 55.49 178.28 55.99 174.02 C 56.34 169.35 57.40 164.65 56.71 159.97 C 55.63 155.12 54.04 150.13 50.55 146.44 C 47.90 143.15 44.25 140.87 41.51 137.69 Z" />
<path fill="#2d2d2d" opacity="1.00" d=" M 265.52 136.52 C 267.90 136.47 270.29 136.42 272.68 136.36 C 272.68 136.94 272.66 138.10 272.65 138.68 C 271.15 138.55 269.66 138.42 268.18 138.30 C 268.04 139.45 267.91 140.60 267.78 141.76 C 268.71 141.73 270.57 141.67 271.50 141.64 C 271.58 142.07 271.76 142.94 271.84 143.38 C 270.87 143.71 268.93 144.39 267.95 144.72 L 267.74 143.73 C 267.21 141.53 267.07 139.28 267.12 137.03 C 266.72 136.90 265.92 136.65 265.52 136.52 Z" />
<path fill="#2d2d2d" opacity="1.00" d=" M 242.54 149.56 C 242.56 145.46 242.61 141.35 242.58 137.24 C 242.71 140.18 242.80 143.14 243.20 146.06 C 243.40 147.00 243.42 148.58 244.67 148.77 C 245.13 145.62 244.63 142.34 245.50 139.26 C 245.67 139.82 246.00 140.96 246.17 141.52 C 247.70 141.95 249.24 142.39 250.77 142.85 C 250.02 143.14 249.27 143.43 248.52 143.71 C 245.81 144.70 244.91 147.25 245.39 149.93 C 244.44 149.81 243.49 149.69 242.54 149.56 Z" />
<path fill="#2d2d2d" opacity="1.00" d=" M 157.88 145.78 C 159.72 146.77 161.05 148.30 161.31 150.45 C 159.18 149.72 158.28 147.83 157.88 145.78 Z" />
<path fill="#2d2d2d" opacity="1.00" d=" M 253.81 160.04 C 255.34 157.11 259.27 157.64 262.04 157.88 C 261.98 158.73 261.87 159.58 261.80 160.44 C 260.02 160.39 258.24 160.36 256.47 160.35 C 256.42 159.77 256.32 158.62 256.27 158.04 C 253.62 161.82 254.21 166.58 254.93 170.87 C 255.61 168.41 256.19 165.92 256.49 163.39 C 258.32 163.52 260.16 163.66 261.99 163.82 C 259.29 165.74 255.60 167.41 256.23 171.44 C 255.37 171.39 254.51 171.34 253.66 171.30 C 253.70 167.55 253.45 163.78 253.81 160.04 Z" />
<path fill="#2d2d2d" opacity="1.00" d=" M 276.79 158.96 C 279.02 157.60 281.75 157.80 284.26 157.62 C 284.33 158.55 284.41 159.49 284.49 160.43 C 282.75 160.38 281.00 160.32 279.26 160.28 C 279.26 161.10 279.25 162.73 279.24 163.55 C 280.65 163.54 282.07 163.54 283.48 163.54 C 283.46 164.02 283.41 165.00 283.38 165.48 C 281.98 165.72 280.56 165.96 279.17 166.23 C 279.19 167.93 279.22 169.63 279.24 171.33 C 278.09 171.32 276.96 171.31 275.82 171.30 C 276.10 167.22 274.99 162.77 276.79 158.96 M 276.93 160.92 C 276.55 164.21 276.86 167.53 277.12 170.82 C 278.02 168.67 278.86 166.48 279.63 164.28 C 279.17 163.56 278.72 162.84 278.27 162.13 C 278.79 160.91 279.30 159.69 279.80 158.46 C 278.76 159.11 276.72 159.22 276.93 160.92 Z" />
<path fill="#2d2d2d" opacity="1.00" d=" M 163.59 157.69 C 167.77 160.46 165.06 166.20 164.39 170.14 C 163.37 166.07 163.17 161.85 163.59 157.69 Z" />
<path fill="#2d2d2d" opacity="1.00" d=" M 110.53 177.41 C 110.14 171.89 107.59 164.42 112.84 160.47 C 112.72 166.23 112.43 172.00 112.55 177.77 C 112.05 177.68 111.04 177.50 110.53 177.41 Z" />
<path fill="#2d2d2d" opacity="1.00" d=" M 185.33 176.67 C 185.65 174.04 185.47 171.25 186.87 168.89 C 188.68 169.95 188.34 172.24 188.55 173.99 C 188.91 178.79 187.10 183.37 184.67 187.41 C 183.75 183.81 185.00 180.24 185.33 176.67 Z" />
<path fill="#2d2d2d" opacity="1.00" d=" M 139.72 172.93 C 144.66 174.46 149.69 176.74 154.99 175.55 C 157.27 175.50 159.99 173.88 161.82 175.94 C 157.97 179.09 152.65 178.55 148.02 178.30 C 144.45 178.19 141.39 176.01 139.72 172.93 Z" />
<path fill="#2d2d2d" opacity="1.00" d=" M 276.87 179.91 C 279.36 179.73 281.86 179.68 284.37 179.65 C 284.38 180.55 284.39 181.45 284.41 182.35 C 282.56 182.33 280.70 182.33 278.86 182.35 C 278.61 185.51 281.03 185.66 283.45 185.65 C 283.45 186.10 283.44 186.99 283.44 187.44 C 282.00 187.45 280.57 187.47 279.14 187.50 C 279.14 185.32 278.87 183.16 278.68 181.00 C 278.55 180.93 278.29 180.79 278.16 180.72 C 277.84 180.52 277.19 180.11 276.87 179.91 Z" />
<path fill="#2d2d2d" opacity="1.00" d=" M 182.50 193.84 C 182.36 191.27 183.28 188.96 185.19 187.24 C 185.89 189.97 185.02 192.45 182.50 193.84 Z" />
<path fill="#2d2d2d" opacity="1.00" d=" M 242.70 201.75 C 245.32 201.63 247.96 201.55 250.59 201.49 C 250.52 202.42 250.45 203.36 250.38 204.30 C 249.41 204.26 247.46 204.17 246.48 204.12 C 246.17 204.95 246.31 205.63 246.90 206.16 C 247.52 206.35 248.76 206.72 249.38 206.90 C 249.42 207.60 249.47 208.30 249.53 209.01 C 246.11 209.01 244.70 211.98 245.44 214.99 C 244.46 214.87 243.49 214.75 242.53 214.63 C 242.57 210.33 242.55 206.04 242.70 201.75 M 242.95 203.84 C 242.97 207.12 242.85 210.40 242.85 213.68 C 243.14 213.78 243.71 213.98 243.99 214.07 C 246.32 213.28 244.48 209.75 245.01 207.83 C 245.00 205.85 245.11 203.88 245.36 201.93 C 244.56 202.57 243.75 203.20 242.95 203.84 Z" />
<path fill="#2d2d2d" opacity="1.00" d=" M 265.61 201.67 C 268.18 201.60 270.76 201.57 273.35 201.57 C 273.33 202.11 273.31 203.20 273.30 203.75 C 271.70 203.62 270.10 203.51 268.51 203.27 C 267.81 203.17 266.39 202.95 265.69 202.84 C 265.72 206.69 265.76 210.54 265.80 214.40 C 266.57 212.91 267.32 211.41 268.18 209.97 C 268.20 211.41 268.24 212.84 268.29 214.28 C 267.09 214.61 265.87 214.63 264.66 214.34 C 264.70 210.10 264.74 205.84 265.61 201.67 Z" />
<path fill="#2d2d2d" opacity="1.00" d=" M 277.07 201.58 C 279.53 201.57 281.99 201.56 284.45 201.56 C 284.41 202.45 284.37 203.35 284.33 204.25 C 282.61 204.23 280.89 204.20 279.18 204.20 L 279.24 206.78 C 280.57 206.80 281.91 206.83 283.25 206.85 C 283.32 207.69 283.39 208.53 283.47 209.38 C 282.06 209.38 280.65 209.38 279.25 209.39 C 279.23 210.86 279.22 212.34 279.22 213.81 C 278.74 214.26 278.26 214.72 277.79 215.17 C 277.12 214.73 276.45 214.29 275.79 213.86 C 275.82 209.75 275.44 205.47 277.07 201.58 M 277.49 214.57 C 279.48 210.61 279.22 206.15 278.42 201.93 C 275.57 205.48 276.84 210.46 277.49 214.57 Z" />
<path fill="#2d2d2d" opacity="1.00" d=" M 287.62 208.71 C 289.09 208.74 290.55 208.76 292.03 208.78 C 292.27 209.67 292.64 210.51 293.16 211.29 C 291.25 211.38 289.34 211.47 287.44 211.54 C 287.50 210.59 287.56 209.65 287.62 208.71 Z" />
</g>
</svg>
