<?xml version="1.0" encoding="UTF-8" ?>
<!DOCTYPE svg PUBLIC "-//W3C//DTD SVG 1.1//EN" "http://www.w3.org/Graphics/SVG/1.1/DTD/svg11.dtd">
<svg width="320pt" height="240pt" viewBox="0 0 320 240" version="1.1" xmlns="http://www.w3.org/2000/svg">
<g id="#000000fe">
<path fill="#000000" opacity="1.00" d=" M 141.86 20.10 C 146.21 19.12 150.50 17.46 155.03 17.63 C 158.79 17.45 162.14 19.37 165.53 20.71 C 169.18 22.44 173.31 21.20 177.18 21.63 C 175.86 22.88 174.48 24.07 173.12 25.27 C 177.52 29.10 182.59 32.13 186.70 36.31 C 190.47 39.99 192.93 44.73 196.33 48.72 C 199.09 52.27 202.92 55.05 204.66 59.32 C 207.40 64.38 207.57 70.27 209.62 75.57 C 211.59 81.63 215.26 86.92 219.09 91.94 C 220.49 93.67 221.35 95.74 221.89 97.88 C 222.90 101.86 225.64 105.10 226.80 109.03 C 229.28 117.62 227.77 126.62 228.61 135.40 C 230.12 144.84 228.75 154.42 229.53 163.92 C 230.02 167.40 232.51 170.34 232.46 173.93 C 232.91 180.33 230.54 186.49 228.17 192.31 C 222.58 202.54 219.79 214.01 214.05 224.17 C 213.52 224.24 212.46 224.38 211.93 224.44 L 212.19 223.67 C 213.89 216.27 217.21 209.41 219.18 202.10 C 221.31 195.70 223.89 189.42 227.35 183.63 C 227.80 179.03 227.69 174.33 226.75 169.79 C 225.35 157.64 228.30 145.05 224.49 133.19 C 223.31 128.75 223.18 124.11 221.85 119.70 C 220.53 114.51 218.06 109.73 216.40 104.66 C 214.33 97.25 212.19 89.81 209.07 82.76 C 206.22 76.35 200.65 71.66 197.73 65.30 C 196.99 63.75 197.48 61.99 197.52 60.36 C 200.76 63.97 202.48 68.67 205.93 72.11 C 204.87 65.45 200.65 59.67 195.09 55.99 C 192.95 53.30 192.35 49.60 190.02 46.96 C 188.07 44.85 188.57 41.56 186.55 39.52 C 182.35 34.94 177.40 31.09 172.14 27.81 C 169.28 25.96 167.19 29.95 164.92 31.20 C 163.03 32.84 161.18 34.52 159.33 36.21 C 156.03 40.86 153.68 46.27 152.83 51.93 C 152.15 58.55 146.07 62.56 143.66 68.45 C 141.21 73.02 141.41 78.29 141.42 83.32 C 139.20 83.89 136.96 84.33 134.78 85.00 C 133.01 86.37 135.31 88.23 136.85 88.28 C 138.99 87.75 141.06 87.01 143.18 86.41 C 141.36 88.85 138.89 91.67 135.47 90.60 C 131.55 88.53 128.18 84.59 127.95 79.97 C 130.16 81.08 132.30 82.38 134.73 82.94 C 134.68 79.78 132.91 77.13 131.39 74.50 C 129.51 75.40 127.59 76.21 125.59 76.80 C 127.11 74.69 129.16 73.05 130.83 71.08 C 130.48 69.11 129.75 67.24 129.17 65.34 C 135.81 58.62 138.70 48.80 138.50 39.51 C 140.38 39.59 142.27 39.67 144.16 39.71 C 144.70 38.08 145.24 36.45 145.75 34.82 C 140.72 34.90 135.88 33.64 131.03 32.51 C 124.69 32.01 118.29 32.18 111.94 32.32 C 107.54 32.34 104.04 35.45 99.82 36.27 C 96.47 36.86 93.85 39.21 92.01 41.95 C 88.50 47.10 83.39 50.88 79.92 56.07 C 87.07 59.57 94.47 62.49 102.05 64.90 C 104.91 65.54 106.16 68.33 107.38 70.68 C 109.08 74.73 113.81 75.71 117.48 77.19 C 118.42 74.00 118.53 70.67 118.66 67.36 C 120.27 68.98 121.84 70.65 123.43 72.30 C 121.56 74.27 121.28 76.85 121.50 79.43 C 119.69 79.80 117.90 80.35 116.05 80.42 C 113.31 79.60 111.19 77.49 108.75 76.09 C 108.70 78.17 107.99 80.62 109.57 82.34 C 112.42 85.74 115.79 88.65 118.91 91.80 C 120.75 90.66 122.83 90.21 124.97 90.39 C 124.19 87.37 123.28 84.35 123.27 81.20 C 126.64 85.17 129.93 89.25 132.63 93.72 C 130.39 93.63 128.22 93.10 126.11 92.41 C 124.47 95.93 122.57 99.36 121.46 103.10 C 120.52 106.17 119.90 109.40 118.19 112.18 C 116.53 115.15 113.95 117.68 113.19 121.10 C 112.25 123.93 112.22 127.13 110.64 129.70 C 107.19 133.15 103.24 136.08 99.84 139.58 C 98.97 138.98 98.09 138.39 97.22 137.80 C 96.88 137.95 96.20 138.26 95.86 138.41 C 94.08 139.18 92.29 139.91 90.49 140.60 C 91.96 138.43 93.56 136.36 95.19 134.31 C 91.65 134.86 88.10 135.44 84.55 135.90 C 79.97 133.57 75.82 130.23 73.46 125.57 C 71.52 121.46 68.79 117.63 68.02 113.07 C 67.37 109.73 65.93 106.56 65.56 103.16 C 67.11 98.59 70.08 94.70 72.63 90.66 C 75.70 85.73 80.32 81.92 85.41 79.24 C 91.58 77.32 97.94 79.51 104.00 80.88 C 99.28 74.78 94.05 68.56 86.86 65.31 C 83.04 63.53 78.86 62.68 74.68 62.30 C 70.18 70.05 62.63 75.26 57.72 82.67 C 54.43 87.33 56.24 93.23 55.14 98.44 C 53.66 102.85 52.08 107.23 50.34 111.54 C 48.00 116.02 48.75 121.18 48.70 126.04 C 48.86 134.51 47.66 143.05 49.17 151.46 C 48.54 152.69 47.89 153.93 47.41 155.24 C 48.70 155.55 50.00 155.76 51.31 155.98 C 51.61 159.69 52.37 163.39 53.94 166.79 C 57.14 174.05 58.89 181.84 60.75 189.52 C 61.99 193.74 65.98 196.13 68.94 199.06 C 73.35 203.05 75.74 208.90 80.70 212.32 C 84.25 214.60 88.21 216.13 92.00 217.94 C 92.90 218.65 93.81 219.36 94.72 220.08 C 92.69 220.93 90.48 220.85 88.50 219.92 C 82.66 218.21 77.89 214.32 72.76 211.22 C 70.29 209.49 67.45 207.84 66.05 205.05 C 65.53 203.54 65.06 202.01 64.58 200.49 C 63.37 199.97 62.15 199.47 60.96 198.93 C 58.02 197.48 57.07 194.03 55.68 191.33 C 53.68 186.22 49.80 181.90 49.14 176.30 C 44.57 165.11 44.38 152.85 44.45 140.95 C 42.33 132.57 42.38 123.86 42.93 115.29 C 44.24 111.94 46.08 108.77 46.62 105.16 C 48.19 96.04 52.28 87.64 56.69 79.60 C 60.72 73.29 66.64 68.00 68.87 60.67 C 64.75 61.16 60.61 61.51 56.46 61.52 C 56.11 59.60 55.73 57.69 55.41 55.77 C 61.92 55.08 68.46 55.72 74.97 55.44 C 81.65 51.59 84.46 44.04 90.06 39.08 C 92.71 36.52 95.01 33.39 98.41 31.78 C 102.73 29.96 107.43 29.38 111.90 28.02 C 115.51 26.87 118.70 24.60 122.47 23.92 C 128.95 22.75 135.43 21.55 141.86 20.10 M 142.95 21.83 C 136.54 24.02 129.76 24.67 123.15 25.98 C 120.86 26.35 118.91 27.64 117.14 29.07 C 122.12 31.60 127.71 28.92 132.99 29.83 C 136.96 31.37 141.16 32.17 145.40 32.50 L 145.84 31.70 C 148.43 32.03 151.02 32.32 153.63 32.40 C 154.53 32.47 155.43 32.53 156.33 32.60 C 158.32 28.57 161.90 25.86 165.04 22.79 C 161.11 21.30 156.81 20.92 152.68 21.62 L 152.65 20.81 C 154.85 20.85 157.05 20.77 159.24 20.54 C 153.82 19.85 148.15 20.01 142.95 21.83 M 146.29 42.93 C 147.74 42.27 149.15 41.55 150.55 40.79 C 150.41 38.46 151.56 35.32 148.95 33.97 C 147.83 36.87 146.39 39.75 146.29 42.93 M 140.14 49.55 C 140.75 49.55 141.96 49.53 142.57 49.53 C 143.37 47.36 143.69 45.08 143.43 42.79 C 141.48 44.54 140.70 47.08 140.14 49.55 M 140.67 53.69 C 140.24 54.61 139.81 55.53 139.38 56.44 C 140.40 56.44 141.42 56.43 142.44 56.42 C 142.47 55.41 142.50 54.40 142.52 53.39 C 142.06 53.46 141.13 53.61 140.67 53.69 M 82.74 85.85 C 79.70 87.98 75.70 90.06 75.09 94.11 C 78.29 94.77 81.88 95.30 84.18 97.89 C 86.18 99.57 85.92 102.60 85.37 104.89 C 82.30 108.76 77.51 110.37 73.35 112.70 C 74.41 117.33 74.59 122.45 77.51 126.42 C 79.60 129.05 82.44 131.69 86.03 131.64 C 91.62 132.28 96.50 128.91 100.66 125.63 C 107.83 119.70 111.40 110.86 115.56 102.81 C 115.81 101.86 116.07 100.92 116.33 99.98 C 115.46 98.59 114.57 97.22 113.68 95.86 C 114.86 95.34 116.04 94.81 117.22 94.29 C 114.99 91.28 110.81 90.75 108.25 87.98 C 104.06 85.38 99.63 83.00 94.83 81.75 C 90.36 80.81 86.47 83.88 82.74 85.85 M 216.99 95.70 C 217.45 97.01 218.04 98.27 218.76 99.46 C 219.25 98.06 219.72 96.66 220.18 95.26 C 219.38 95.37 217.79 95.59 216.99 95.70 M 72.98 99.96 C 71.45 102.01 68.99 105.66 71.85 107.60 C 76.26 108.68 81.26 105.07 80.71 100.37 C 78.51 98.92 74.89 97.17 72.98 99.96 M 220.52 102.77 C 221.18 105.64 221.60 108.55 221.81 111.48 C 222.75 111.48 223.70 111.49 224.65 111.49 C 225.11 107.94 222.63 105.28 220.52 102.77 M 98.02 134.69 C 99.54 134.47 101.30 134.63 102.45 133.41 C 105.07 131.10 108.33 128.63 107.90 124.71 C 104.18 127.56 100.80 130.91 98.02 134.69 M 52.46 174.25 C 52.60 176.70 52.63 179.16 52.61 181.62 C 53.68 182.30 54.74 182.98 55.80 183.69 C 54.84 180.48 53.53 177.41 52.46 174.25 Z" />
<path fill="#000000" opacity="1.00" d=" M 149.58 24.48 C 150.46 23.95 151.35 23.43 152.23 22.91 C 152.19 24.84 152.12 26.77 152.05 28.70 C 151.27 28.73 149.71 28.78 148.93 28.81 C 149.15 27.37 149.37 25.92 149.58 24.48 Z" />
<path fill="#000000" opacity="1.00" d=" M 163.76 52.81 C 169.83 50.58 177.44 50.95 182.13 55.84 C 187.01 60.98 192.36 65.82 196.01 71.97 C 198.09 75.47 201.05 78.52 202.13 82.53 C 202.75 85.26 204.41 87.52 205.65 89.98 C 205.83 93.67 205.75 97.38 205.54 101.07 C 204.39 106.14 199.03 108.38 196.26 112.37 C 199.99 112.94 204.82 110.93 207.02 115.10 C 202.32 116.26 198.12 119.25 193.06 118.65 C 193.09 121.26 195.55 122.39 197.37 123.74 C 202.43 127.16 207.21 130.99 211.52 135.32 C 209.60 135.32 207.69 135.41 205.77 135.50 C 206.73 137.10 207.72 138.67 208.73 140.24 C 210.77 143.84 212.76 147.76 213.43 151.84 C 212.00 157.59 213.26 163.72 211.10 169.31 C 208.78 174.02 203.75 176.57 198.93 178.01 C 194.41 179.40 189.33 177.70 184.95 179.12 C 180.86 183.67 175.13 186.67 172.04 192.07 C 167.90 194.99 164.12 199.12 158.82 199.73 C 160.32 197.19 163.12 196.11 165.40 194.45 C 167.37 192.73 168.86 190.55 170.79 188.79 C 173.79 185.89 177.49 183.61 179.65 179.94 C 166.09 187.84 154.83 199.78 139.68 204.89 C 136.74 205.72 134.28 207.52 132.20 209.73 C 123.46 209.68 114.86 208.01 106.21 206.96 C 101.45 205.63 96.53 203.83 93.00 200.21 C 96.51 196.53 98.05 191.60 100.34 187.17 C 104.19 179.47 106.70 171.16 108.51 162.78 C 108.72 155.87 108.61 148.90 110.08 142.11 C 112.17 133.67 116.08 125.88 118.86 117.67 C 120.99 117.74 122.83 116.78 124.35 115.37 C 127.19 112.79 130.89 111.37 133.49 108.53 C 132.00 108.43 130.50 108.37 129.00 108.36 C 129.23 107.61 129.68 106.10 129.91 105.35 C 132.00 105.34 133.90 106.47 135.96 106.47 C 138.66 105.97 141.30 105.14 144.01 104.73 C 150.80 105.16 156.33 110.13 163.07 110.79 C 159.68 107.84 154.94 106.59 152.30 102.81 C 151.40 101.60 150.55 100.36 149.67 99.14 C 149.02 100.34 148.39 101.57 147.77 102.80 C 144.33 101.31 141.79 98.18 142.13 94.28 C 143.66 94.77 145.18 95.29 146.72 95.75 C 146.76 93.42 145.86 91.26 145.48 89.01 C 144.75 81.44 148.04 74.22 151.90 67.92 C 155.14 62.26 162.20 59.52 163.76 52.81 M 154.89 69.89 C 151.00 75.44 148.47 82.60 149.72 89.40 C 154.42 97.86 160.93 106.96 171.00 109.11 C 174.61 109.90 178.34 109.28 182.00 109.56 C 185.50 109.50 189.37 110.39 192.52 108.40 C 198.81 105.29 203.08 98.14 202.26 91.12 C 199.44 85.76 198.74 79.31 194.16 74.98 C 192.61 76.30 191.40 77.95 190.19 79.57 C 185.65 79.30 180.39 80.50 176.57 77.42 C 173.63 75.18 174.23 71.17 174.44 67.93 C 175.11 63.75 179.12 61.50 182.03 58.91 C 178.49 56.43 173.98 57.17 169.95 57.49 C 163.94 60.21 159.53 65.38 154.89 69.89 M 178.77 73.20 C 180.57 75.31 183.28 76.06 185.98 75.77 C 188.55 75.98 191.88 74.25 191.73 71.34 C 189.06 68.45 186.40 65.54 184.47 62.08 C 179.03 62.39 176.96 68.72 178.77 73.20 M 135.32 111.00 C 133.99 111.99 132.71 113.04 131.40 114.06 C 133.51 116.70 135.26 119.61 136.95 122.53 C 139.07 123.45 141.18 124.42 143.16 125.63 C 144.40 125.51 145.64 125.36 146.89 125.19 C 147.31 119.91 147.57 113.98 144.55 109.38 C 141.47 108.49 137.73 108.65 135.32 111.00 M 148.49 110.35 C 148.58 112.21 147.91 114.46 149.86 115.63 C 150.69 115.28 152.35 114.59 153.18 114.24 C 154.66 115.99 156.23 117.66 158.11 118.98 C 158.76 117.33 159.38 115.67 159.83 113.95 C 156.19 112.38 152.59 110.30 148.49 110.35 M 165.93 111.58 C 169.20 113.92 172.84 116.13 176.89 116.67 C 181.12 114.94 186.17 114.53 190.21 117.04 C 192.32 118.34 194.53 117.02 196.33 115.86 C 189.53 110.88 180.78 115.00 173.27 112.60 C 170.89 111.83 168.44 111.37 165.93 111.58 M 121.58 123.02 C 120.78 127.14 124.31 130.14 126.80 132.87 C 128.17 131.76 129.59 130.69 131.17 129.89 C 131.35 132.31 131.36 134.75 131.65 137.17 C 132.08 136.79 132.95 136.03 133.38 135.64 C 133.22 132.28 134.64 129.50 136.78 126.99 C 133.64 124.05 132.24 119.99 130.32 116.26 C 126.34 116.19 123.00 119.53 121.58 123.02 M 180.38 118.54 C 180.53 119.48 180.68 120.41 180.84 121.35 C 182.24 121.34 183.65 121.32 185.05 121.28 C 185.21 120.36 185.37 119.45 185.54 118.54 C 183.82 118.55 182.10 118.55 180.38 118.54 M 117.69 143.13 C 118.47 142.75 119.25 142.36 120.03 141.97 C 121.31 140.60 122.61 139.26 123.86 137.87 C 121.38 135.69 118.85 132.88 115.24 133.12 C 114.46 136.70 116.75 139.83 117.69 143.13 M 160.20 158.59 C 156.20 159.14 152.35 158.33 148.93 156.18 C 147.10 157.94 145.11 159.61 143.70 161.76 C 141.56 165.05 140.96 169.02 139.29 172.52 C 137.95 175.34 136.54 178.14 134.90 180.80 C 131.89 185.52 126.58 187.93 122.88 192.01 C 124.08 193.59 125.51 194.96 127.17 196.06 C 127.58 194.29 127.19 192.11 128.82 190.89 C 131.35 188.42 133.87 185.92 136.52 183.59 C 139.94 180.46 144.85 181.50 149.07 181.20 C 150.29 182.34 151.61 183.37 153.09 184.17 C 153.46 178.05 156.32 171.56 161.98 168.62 C 166.11 167.58 170.25 168.49 173.68 170.94 C 175.23 168.00 176.42 164.89 178.01 161.97 C 179.43 160.45 181.35 159.50 182.97 158.20 C 180.44 154.25 177.14 150.71 173.07 148.34 C 166.72 147.91 162.66 153.52 160.20 158.59 M 195.45 156.87 C 195.37 158.98 195.48 161.08 195.56 163.19 C 192.97 165.75 190.72 168.75 191.44 172.63 C 196.62 172.47 202.90 174.00 207.08 170.08 C 209.44 168.18 208.59 164.88 208.78 162.25 C 207.46 162.41 206.13 162.57 204.82 162.73 C 202.82 160.81 200.89 158.78 198.61 157.18 C 197.64 156.31 196.59 156.21 195.45 156.87 M 178.28 168.25 C 176.87 171.36 175.32 174.45 173.08 177.06 C 171.16 175.38 169.56 173.38 168.04 171.34 L 168.32 170.69 C 166.03 171.61 163.61 172.23 161.43 173.40 C 159.96 175.44 159.84 178.22 158.04 180.09 C 156.06 182.18 156.11 185.18 155.82 187.87 C 155.36 189.13 155.33 190.49 155.18 191.82 C 156.44 191.67 157.96 192.01 158.94 190.99 C 162.09 188.39 165.23 185.77 168.77 183.70 C 173.69 180.81 178.03 177.04 182.96 174.17 C 184.65 173.13 186.90 173.80 188.54 172.67 C 189.82 170.50 189.14 167.88 189.49 165.51 L 188.86 165.15 C 187.17 163.56 185.79 160.86 183.14 161.02 C 181.14 163.07 180.28 166.10 178.28 168.25 M 137.50 186.53 C 134.52 192.09 131.98 197.89 128.57 203.22 C 125.96 202.41 124.16 200.28 122.21 198.50 C 117.43 197.82 113.35 200.72 108.62 200.62 C 108.55 201.53 108.48 202.45 108.40 203.36 C 113.24 203.56 118.10 204.12 122.83 205.18 C 124.93 205.53 127.09 207.23 129.23 206.19 C 137.57 202.35 146.47 199.61 154.20 194.52 C 152.87 191.38 150.14 189.15 147.79 186.79 C 147.05 186.62 145.56 186.27 144.82 186.09 C 143.48 187.59 142.19 189.12 140.88 190.64 C 140.40 189.17 139.92 187.71 139.44 186.25 C 138.95 186.32 137.98 186.46 137.50 186.53 Z" />
<path fill="#000000" opacity="1.00" d=" M 221.39 69.36 C 224.38 69.29 227.39 69.28 230.32 69.91 C 228.33 71.08 226.22 72.02 224.12 72.98 C 225.71 74.02 227.32 75.03 228.93 76.04 C 227.49 76.80 226.04 77.56 224.60 78.32 C 224.24 79.74 223.86 81.15 223.49 82.57 C 222.94 82.59 221.85 82.63 221.31 82.65 C 221.19 78.22 221.24 73.79 221.39 69.36 Z" />
<path fill="#000000" opacity="1.00" d=" M 85.84 124.81 C 87.13 124.71 88.43 124.62 89.72 124.54 C 88.92 126.57 88.02 128.71 85.51 128.83 C 85.60 127.49 85.72 126.15 85.84 124.81 Z" />
<path fill="#000000" opacity="1.00" d=" M 97.13 170.74 C 99.02 168.17 101.51 170.45 100.62 172.96 C 98.67 174.95 98.07 172.08 97.13 170.74 Z" />
<path fill="#000000" opacity="1.00" d=" M 167.04 202.98 C 167.30 200.83 167.67 198.59 169.61 197.32 C 172.50 198.97 175.78 199.54 179.09 199.37 C 180.32 199.40 181.51 199.78 182.70 200.10 C 182.62 201.30 182.52 202.49 182.42 203.70 C 179.97 202.60 177.58 201.34 174.99 200.64 C 172.23 200.99 169.69 202.20 167.04 202.98 Z" />
</g>
<g id="#744a49e3">
<path fill="#744a49" opacity="0.89" d=" M 142.95 21.83 C 148.15 20.01 153.82 19.85 159.24 20.54 C 157.05 20.77 154.85 20.85 152.65 20.81 L 152.68 21.62 C 152.71 25.24 153.08 28.83 153.63 32.40 C 151.02 32.32 148.43 32.03 145.84 31.70 C 147.65 28.78 148.80 25.51 148.99 22.07 C 144.37 22.93 139.83 24.19 135.19 24.95 C 129.91 26.13 124.21 25.99 119.41 28.79 C 123.92 29.30 128.50 29.01 132.99 29.83 C 127.71 28.92 122.12 31.60 117.14 29.07 C 118.91 27.64 120.86 26.35 123.15 25.98 C 129.76 24.67 136.54 24.02 142.95 21.83 M 149.58 24.48 C 149.37 25.92 149.15 27.37 148.93 28.81 C 149.71 28.78 151.27 28.73 152.05 28.70 C 152.12 26.77 152.19 24.84 152.23 22.91 C 151.35 23.43 150.46 23.95 149.58 24.48 Z" />
<path fill="#744a49" opacity="0.89" d=" M 238.54 25.58 C 241.26 25.52 243.98 25.49 246.70 25.55 C 246.50 26.28 246.31 27.02 246.12 27.75 C 244.48 28.28 242.84 28.82 241.23 29.43 C 242.63 30.38 244.06 31.29 245.47 32.22 C 244.19 32.99 242.90 33.73 241.60 34.47 C 241.28 35.88 240.95 37.29 240.62 38.70 C 240.03 38.72 238.85 38.76 238.26 38.77 C 238.23 34.37 238.24 29.97 238.54 25.58 Z" />
<path fill="#744a49" opacity="0.89" d=" M 260.64 25.64 C 263.30 25.53 265.97 25.47 268.64 25.46 C 268.61 25.95 268.55 26.95 268.51 27.45 C 266.65 28.09 264.80 28.75 262.98 29.51 C 264.44 30.25 265.92 30.96 267.41 31.67 C 267.46 32.05 267.57 32.80 267.63 33.18 C 266.34 33.48 265.07 33.79 263.79 34.10 C 263.59 35.61 263.41 37.13 263.24 38.65 C 262.28 38.68 261.32 38.71 260.36 38.75 C 260.32 34.38 260.33 30.00 260.64 25.64 Z" />
<path fill="#744a49" opacity="0.89" d=" M 271.66 25.67 C 274.32 25.56 276.99 25.48 279.66 25.41 C 279.66 25.97 279.65 27.09 279.65 27.65 C 278.16 27.97 276.67 28.29 275.18 28.60 C 275.22 29.05 275.28 29.95 275.31 30.40 C 276.41 30.76 277.52 31.13 278.62 31.51 C 278.63 31.94 278.65 32.81 278.65 33.24 C 277.38 33.54 276.12 33.83 274.86 34.14 C 274.64 35.64 274.46 37.14 274.27 38.64 C 273.32 38.66 272.37 38.68 271.43 38.69 C 271.41 34.35 271.41 30.01 271.66 25.67 Z" />
<path fill="#744a49" opacity="0.89" d=" M 215.77 27.08 C 217.46 24.54 220.95 25.62 223.51 25.56 C 224.40 28.56 220.96 28.21 219.12 28.76 C 219.21 29.13 219.38 29.86 219.47 30.23 C 220.60 30.79 221.73 31.36 222.86 31.93 C 220.36 33.30 218.74 35.48 217.86 38.16 C 217.31 38.37 216.21 38.79 215.66 39.00 C 215.56 35.03 215.29 31.03 215.77 27.08 Z" />
<path fill="#744a49" opacity="0.89" d=" M 226.85 27.15 C 228.76 24.09 233.52 25.38 236.07 27.04 C 234.10 27.67 232.11 28.19 230.10 28.66 C 230.14 29.09 230.23 29.94 230.27 30.37 C 231.71 30.86 233.16 31.35 234.60 31.86 C 231.55 33.25 229.43 35.60 229.05 39.00 C 228.43 38.81 227.18 38.42 226.56 38.22 C 226.69 34.53 226.35 30.81 226.85 27.15 Z" />
<path fill="#744a49" opacity="0.89" d=" M 249.58 25.61 C 252.52 25.55 255.77 24.94 258.22 27.02 C 256.34 27.67 254.43 28.22 252.52 28.75 C 252.43 29.14 252.27 29.92 252.19 30.32 C 253.72 30.79 255.25 31.27 256.78 31.77 C 253.54 33.46 252.05 36.78 249.73 39.38 C 248.98 34.83 249.29 30.19 249.58 25.61 Z" />
<path fill="#744a49" opacity="0.89" d=" M 282.77 27.11 C 284.74 24.48 289.04 25.19 291.38 26.99 C 289.65 27.63 287.90 28.21 286.14 28.77 C 286.21 29.13 286.35 29.86 286.41 30.22 C 287.60 30.83 288.78 31.45 289.96 32.08 C 288.71 32.83 287.45 33.55 286.18 34.27 C 285.63 36.40 285.58 39.17 282.62 38.90 C 282.53 34.98 282.17 31.01 282.77 27.11 Z" />
<path fill="#744a49" opacity="0.89" d=" M 159.33 36.21 C 161.18 34.52 163.03 32.84 164.92 31.20 C 164.66 31.94 164.39 32.67 164.13 33.41 C 165.63 33.83 167.13 34.25 168.63 34.67 C 168.66 35.69 168.70 36.72 168.74 37.74 C 165.60 37.26 162.48 36.66 159.33 36.21 Z" />
<path fill="#744a49" opacity="0.89" d=" M 226.85 49.06 C 228.76 46.65 233.52 46.56 235.65 48.88 C 233.85 49.48 232.04 49.98 230.23 50.49 C 230.25 50.93 230.30 51.80 230.32 52.24 C 231.73 52.75 233.13 53.27 234.54 53.82 C 230.93 55.13 229.46 58.53 227.92 61.73 C 225.82 57.85 226.65 53.27 226.85 49.06 Z" />
<path fill="#744a49" opacity="0.89" d=" M 238.53 47.45 C 241.46 47.45 244.91 46.54 247.14 49.01 C 245.03 49.68 242.91 50.31 240.82 51.03 C 242.49 52.05 244.21 53.00 245.93 53.92 C 244.52 54.77 243.10 55.60 241.69 56.44 C 241.17 58.17 240.60 59.89 239.97 61.58 C 235.96 57.96 238.88 52.09 238.53 47.45 Z" />
<path fill="#744a49" opacity="0.89" d=" M 249.55 47.57 C 252.23 47.44 254.92 47.39 257.61 47.43 C 257.58 47.89 257.51 48.82 257.48 49.28 C 255.58 49.81 253.69 50.36 251.82 50.99 C 253.53 52.08 255.30 53.08 257.08 54.06 C 255.59 54.81 254.09 55.56 252.60 56.31 C 252.29 57.76 251.95 59.21 251.61 60.66 C 251.04 60.68 249.89 60.72 249.32 60.73 C 249.27 56.35 249.24 51.95 249.55 47.57 Z" />
<path fill="#744a49" opacity="0.89" d=" M 260.56 47.56 C 263.25 47.40 265.96 47.32 268.67 47.34 C 268.64 47.84 268.59 48.82 268.56 49.32 C 266.70 49.82 264.84 50.35 263.01 50.94 C 264.61 52.03 266.24 53.06 267.87 54.12 C 266.53 54.78 265.19 55.42 263.85 56.05 C 263.50 57.58 263.15 59.10 262.78 60.62 C 262.17 60.65 260.96 60.70 260.36 60.72 C 260.34 56.33 260.32 51.94 260.56 47.56 Z" />
<path fill="#744a49" opacity="0.89" d=" M 271.65 47.69 C 274.34 47.50 277.04 47.37 279.74 47.34 C 279.69 47.81 279.59 48.75 279.54 49.22 C 277.66 49.85 275.82 50.58 274.11 51.56 C 275.58 52.23 277.09 52.81 278.54 53.51 C 278.63 55.43 275.92 55.36 274.73 56.29 C 274.57 57.68 274.42 59.08 274.27 60.48 C 273.32 60.57 272.38 60.67 271.44 60.77 C 271.41 56.41 271.39 52.05 271.65 47.69 Z" />
<path fill="#744a49" opacity="0.89" d=" M 283.40 47.50 C 285.82 47.43 288.24 47.36 290.66 47.34 C 290.65 47.83 290.63 48.81 290.62 49.30 C 289.13 50.04 286.07 49.42 286.07 51.68 C 287.30 52.56 288.62 53.30 289.91 54.11 C 288.60 54.78 287.28 55.43 285.96 56.07 C 285.57 58.25 285.77 61.22 282.65 60.88 C 282.50 56.42 281.99 51.83 283.40 47.50 Z" />
<path fill="#744a49" opacity="0.89" d=" M 216.58 47.37 C 219.21 47.49 222.15 46.83 224.33 48.75 C 222.63 49.43 220.91 50.03 219.20 50.63 C 219.24 51.05 219.31 51.87 219.35 52.29 C 220.46 52.78 221.58 53.27 222.69 53.77 C 219.87 55.55 218.30 58.46 216.83 61.34 C 214.74 57.05 215.20 51.82 216.58 47.37 Z" />
<path fill="#744a49" opacity="0.89" d=" M 232.73 69.35 C 235.37 69.33 238.01 69.31 240.65 69.34 C 240.63 69.84 240.59 70.85 240.58 71.36 C 238.62 71.61 236.67 71.92 234.74 72.33 C 236.08 73.77 237.81 74.70 239.48 75.70 C 239.39 77.43 236.73 77.41 235.58 78.35 C 235.20 79.75 234.81 81.16 234.43 82.57 C 233.90 82.57 232.84 82.57 232.31 82.57 C 232.20 78.16 232.10 73.72 232.73 69.35 Z" />
<path fill="#744a49" opacity="0.89" d=" M 243.55 69.46 C 246.24 69.35 248.94 69.29 251.64 69.31 C 251.60 69.80 251.52 70.77 251.48 71.25 C 249.77 71.72 248.07 72.21 246.38 72.75 C 247.83 73.88 249.31 74.97 250.78 76.07 C 249.49 76.72 248.20 77.37 246.90 78.00 C 246.56 79.51 246.21 81.03 245.82 82.53 C 245.22 82.56 244.03 82.61 243.43 82.63 C 243.42 78.24 243.43 73.85 243.55 69.46 Z" />
<path fill="#744a49" opacity="0.89" d=" M 254.88 69.35 C 257.54 69.27 260.22 69.22 262.85 69.78 C 261.19 70.88 259.46 71.86 257.73 72.83 C 259.04 73.98 260.39 75.08 261.74 76.20 C 260.46 76.79 259.17 77.36 257.87 77.92 C 257.46 80.07 257.61 82.98 254.59 82.81 C 254.37 78.33 254.33 73.81 254.88 69.35 Z" />
<path fill="#744a49" opacity="0.89" d=" M 265.63 69.55 C 268.30 69.37 270.98 69.29 273.67 69.29 C 273.65 69.79 273.62 70.80 273.61 71.31 C 271.70 71.75 269.82 72.25 267.94 72.78 C 269.57 73.80 271.23 74.77 272.90 75.73 C 270.39 77.30 268.53 79.53 268.07 82.53 C 267.23 82.51 266.40 82.48 265.57 82.45 C 265.44 78.15 265.47 73.85 265.63 69.55 Z" />
<path fill="#744a49" opacity="0.89" d=" M 277.17 69.37 C 279.97 69.32 282.77 69.30 285.58 69.37 C 285.58 69.84 285.60 70.80 285.60 71.28 C 283.51 71.56 281.41 71.92 279.53 72.94 C 281.17 73.94 282.88 74.85 284.60 75.73 C 284.50 76.02 284.29 76.59 284.19 76.87 C 282.86 77.26 281.54 77.64 280.23 78.03 C 279.92 79.53 279.64 81.05 279.37 82.56 C 278.74 82.57 277.48 82.58 276.85 82.59 C 276.45 78.20 276.37 73.73 277.17 69.37 Z" />
<path fill="#744a49" opacity="0.89" d=" M 108.25 87.98 C 110.81 90.75 114.99 91.28 117.22 94.29 C 116.04 94.81 114.86 95.34 113.68 95.86 C 114.57 97.22 115.46 98.59 116.33 99.98 C 116.07 100.92 115.81 101.86 115.56 102.81 C 114.05 97.49 111.10 92.68 108.25 87.98 Z" />
<path fill="#744a49" opacity="0.89" d=" M 248.58 91.61 C 250.77 89.90 253.89 90.93 256.47 90.64 C 256.47 91.47 256.47 92.31 256.48 93.15 C 254.44 93.45 252.38 93.85 250.60 94.95 C 252.17 95.68 253.78 96.34 255.40 96.98 C 255.46 97.34 255.60 98.07 255.67 98.44 C 254.27 98.85 252.88 99.27 251.49 99.69 C 251.35 101.36 251.21 103.04 251.07 104.71 C 249.91 104.36 247.71 104.47 247.77 102.78 C 247.80 99.08 247.09 95.11 248.58 91.61 Z" />
<path fill="#744a49" opacity="0.89" d=" M 236.61 91.49 C 239.30 90.95 242.04 90.62 244.79 90.73 C 244.78 91.35 244.75 92.59 244.74 93.21 C 243.06 93.66 241.40 94.16 239.76 94.73 C 241.48 95.85 243.24 96.92 244.97 98.04 C 243.48 98.52 242.00 99.02 240.52 99.51 C 240.15 101.22 239.77 102.93 239.39 104.64 C 238.50 104.53 237.62 104.43 236.73 104.32 C 236.63 100.05 236.66 95.77 236.61 91.49 Z" />
<path fill="#744a49" opacity="0.89" d=" M 259.48 91.49 C 262.42 90.75 265.55 90.15 268.27 91.95 C 266.22 92.99 264.10 93.88 262.00 94.82 C 263.53 95.85 265.07 96.85 266.58 97.93 C 265.29 98.53 263.99 99.11 262.70 99.69 C 262.42 101.31 262.13 102.93 261.79 104.54 C 261.20 104.57 260.02 104.61 259.43 104.63 C 259.29 100.25 259.29 95.87 259.48 91.49 Z" />
<path fill="#744a49" opacity="0.89" d=" M 270.56 91.58 C 271.53 91.49 272.50 91.40 273.48 91.31 C 273.51 94.54 273.34 97.78 273.67 101.00 C 274.60 102.36 276.14 101.82 277.48 101.65 C 277.62 98.23 277.65 94.82 277.88 91.41 C 278.58 91.40 279.97 91.40 280.66 91.39 C 280.66 95.08 281.08 98.83 280.32 102.47 C 278.89 105.08 275.23 105.39 272.82 104.15 C 268.72 101.35 270.88 95.71 270.56 91.58 Z" />
<path fill="#744a49" opacity="0.89" d=" M 283.84 91.36 C 284.53 91.36 285.92 91.37 286.62 91.37 C 286.60 94.82 286.61 98.27 286.95 101.71 C 288.16 101.73 289.38 101.75 290.60 101.77 C 290.57 98.08 290.68 94.35 291.80 90.80 C 295.74 92.67 294.38 97.41 294.07 100.88 C 293.14 105.65 285.86 106.26 284.05 101.82 C 283.05 98.45 283.71 94.82 283.84 91.36 Z" />
<path fill="#744a49" opacity="0.89" d=" M 216.99 95.70 C 217.79 95.59 219.38 95.37 220.18 95.26 C 219.72 96.66 219.25 98.06 218.76 99.46 C 218.04 98.27 217.45 97.01 216.99 95.70 Z" />
<path fill="#744a49" opacity="0.89" d=" M 167.53 102.44 C 168.78 102.52 170.03 102.60 171.29 102.69 C 171.36 103.64 171.44 104.59 171.53 105.55 C 170.31 105.42 169.10 105.30 167.90 105.18 C 167.77 104.26 167.65 103.35 167.53 102.44 Z" />
<path fill="#744a49" opacity="0.89" d=" M 135.32 111.00 C 137.73 108.65 141.47 108.49 144.55 109.38 C 147.57 113.98 147.31 119.91 146.89 125.19 C 145.90 124.40 144.92 123.61 143.93 122.83 C 143.74 123.53 143.35 124.93 143.16 125.63 C 141.18 124.42 139.07 123.45 136.95 122.53 C 139.96 121.45 142.96 120.33 145.99 119.29 C 145.61 116.22 145.07 113.18 144.37 110.17 C 141.34 110.27 138.28 110.33 135.32 111.00 Z" />
<path fill="#744a49" opacity="0.89" d=" M 48.70 126.04 C 48.75 121.18 48.00 116.02 50.34 111.54 C 50.06 118.04 50.43 124.55 50.25 131.06 C 50.06 136.68 49.06 142.33 49.70 147.96 C 50.50 150.96 52.28 153.63 52.87 156.70 C 53.54 160.02 53.42 163.44 53.94 166.79 C 52.37 163.39 51.61 159.69 51.31 155.98 C 50.00 155.76 48.70 155.55 47.41 155.24 C 47.89 153.93 48.54 152.69 49.17 151.46 C 47.66 143.05 48.86 134.51 48.70 126.04 Z" />
<path fill="#744a49" opacity="0.89" d=" M 244.60 112.70 C 245.22 112.64 246.44 112.52 247.06 112.46 C 247.43 116.10 247.71 119.82 247.18 123.46 C 245.37 128.42 237.15 127.33 236.75 122.00 C 236.78 118.99 235.16 113.26 239.60 112.97 C 239.68 116.52 239.95 120.07 240.49 123.58 C 241.58 123.62 242.67 123.65 243.77 123.69 C 244.41 120.06 244.40 116.37 244.60 112.70 Z" />
<path fill="#744a49" opacity="0.89" d=" M 257.62 112.62 C 258.52 112.63 259.43 112.65 260.33 112.66 C 260.49 116.27 260.89 119.94 260.32 123.53 C 258.73 127.76 252.26 127.64 250.57 123.56 C 250.03 120.14 250.36 116.66 250.37 113.22 C 251.37 113.29 252.37 113.35 253.38 113.41 C 253.32 116.84 253.32 120.27 253.68 123.69 C 254.57 123.67 256.33 123.63 257.22 123.61 C 257.58 119.96 257.53 116.28 257.62 112.62 Z" />
<path fill="#744a49" opacity="0.89" d=" M 263.70 112.71 C 264.58 112.69 265.47 112.66 266.35 112.64 C 266.51 116.40 266.37 120.20 267.09 123.92 C 268.18 123.74 269.27 123.52 270.35 123.26 C 270.86 119.97 270.62 116.63 270.83 113.31 C 271.55 113.29 272.98 113.25 273.69 113.23 C 273.61 116.98 274.01 120.78 273.38 124.50 C 270.95 127.63 265.24 127.46 263.76 123.49 C 263.13 119.93 263.52 116.29 263.70 112.71 Z" />
<path fill="#744a49" opacity="0.89" d=" M 276.64 113.43 C 277.63 113.36 278.62 113.30 279.62 113.23 C 279.63 116.68 279.64 120.14 280.26 123.55 C 281.00 123.64 282.49 123.83 283.23 123.92 C 284.73 120.39 284.20 116.50 284.52 112.78 C 288.62 113.95 287.35 118.80 287.33 121.99 C 287.12 126.82 279.96 128.53 277.57 124.44 C 275.87 121.05 276.85 117.08 276.64 113.43 Z" />
<path fill="#744a49" opacity="0.89" d=" M 204.87 125.05 C 210.40 127.42 215.02 131.57 219.00 136.00 C 222.32 139.73 224.25 145.88 220.15 149.79 C 217.26 146.98 214.65 143.88 212.90 140.23 C 212.01 138.13 210.09 136.93 208.10 136.03 C 208.29 137.44 208.50 138.84 208.73 140.24 C 207.72 138.67 206.73 137.10 205.77 135.50 C 207.69 135.41 209.60 135.32 211.52 135.32 C 214.94 137.67 215.29 142.89 219.51 144.32 C 218.18 135.57 209.01 132.08 204.87 125.05 Z" />
<path fill="#744a49" opacity="0.89" d=" M 117.69 143.13 C 116.75 139.83 114.46 136.70 115.24 133.12 C 116.21 136.37 117.78 139.42 120.03 141.97 C 119.25 142.36 118.47 142.75 117.69 143.13 Z" />
<path fill="#744a49" opacity="0.89" d=" M 84.55 135.90 C 88.10 135.44 91.65 134.86 95.19 134.31 C 93.56 136.36 91.96 138.43 90.49 140.60 C 88.54 138.99 86.56 137.42 84.55 135.90 Z" />
<path fill="#744a49" opacity="0.89" d=" M 255.85 134.31 C 256.75 134.65 257.65 134.99 258.56 135.34 C 258.56 137.88 258.46 140.43 258.64 142.97 C 258.49 145.05 260.65 145.87 262.40 145.57 C 262.68 142.18 262.66 138.79 262.61 135.40 C 263.58 135.34 264.55 135.28 265.53 135.22 C 265.80 138.99 267.22 143.41 264.70 146.71 C 262.34 149.80 257.12 148.87 255.83 145.26 C 255.12 141.66 255.50 137.94 255.85 134.31 Z" />
<path fill="#744a49" opacity="0.89" d=" M 289.60 134.66 C 290.53 134.64 291.47 134.63 292.40 134.62 C 292.06 139.02 294.42 145.05 289.94 147.94 C 287.38 149.68 283.88 148.15 282.51 145.59 C 281.95 142.16 282.26 138.66 282.30 135.20 C 283.31 135.27 284.33 135.33 285.35 135.40 C 285.27 138.79 285.27 142.18 285.56 145.56 C 287.30 145.93 289.65 145.18 289.42 143.01 C 289.55 140.23 289.48 137.44 289.60 134.66 Z" />
<path fill="#744a49" opacity="0.89" d=" M 104.34 141.24 C 105.40 138.89 105.83 135.51 108.87 135.00 C 108.64 137.93 107.49 140.65 106.71 143.46 C 105.89 148.01 106.97 152.85 105.14 157.24 C 104.30 159.18 102.09 159.89 100.50 161.06 C 99.47 158.30 101.92 156.81 103.33 154.88 C 103.98 150.36 102.56 145.59 104.34 141.24 Z" />
<path fill="#744a49" opacity="0.89" d=" M 242.34 135.23 C 243.36 135.27 244.38 135.30 245.40 135.33 C 245.35 138.74 245.33 142.15 245.59 145.55 C 247.25 145.81 249.83 145.26 249.52 143.04 C 249.62 140.47 249.53 137.90 249.52 135.33 C 250.53 135.32 251.55 135.30 252.58 135.29 C 252.04 139.48 254.37 145.28 249.97 147.95 C 247.24 149.73 243.15 147.89 242.47 144.78 C 242.10 141.61 242.30 138.41 242.34 135.23 Z" />
<path fill="#744a49" opacity="0.89" d=" M 268.83 135.68 C 269.51 135.52 270.87 135.21 271.56 135.05 C 271.63 138.57 271.60 142.13 272.47 145.57 C 273.70 145.49 274.94 145.40 276.18 145.32 C 276.29 141.88 276.25 138.44 276.38 135.01 C 277.07 135.17 278.44 135.49 279.13 135.65 C 279.28 139.90 280.60 145.61 276.36 148.37 C 273.98 148.99 271.07 148.58 269.70 146.33 C 268.26 142.98 268.49 139.22 268.83 135.68 Z" />
<path fill="#744a49" opacity="0.89" d=" M 95.86 138.41 C 96.20 138.26 96.88 137.95 97.22 137.80 C 98.09 138.39 98.97 138.98 99.84 139.58 C 96.91 142.70 93.13 144.83 89.06 146.08 C 91.38 143.61 95.48 142.18 95.86 138.41 Z" />
<path fill="#744a49" opacity="0.89" d=" M 217.34 164.83 C 217.35 160.59 217.22 156.11 220.10 152.64 C 220.66 156.56 220.67 160.53 220.52 164.48 C 219.46 164.59 218.39 164.71 217.34 164.83 Z" />
<path fill="#744a49" opacity="0.89" d=" M 250.47 156.35 C 251.42 156.47 252.37 156.59 253.32 156.71 C 253.81 160.27 252.11 164.76 254.85 167.56 C 255.52 167.35 256.86 166.95 257.53 166.75 C 257.50 163.22 257.48 159.70 257.70 156.18 C 258.38 156.46 259.75 157.01 260.43 157.28 C 260.70 160.65 260.80 164.08 260.29 167.42 C 259.11 169.09 257.11 170.43 255.03 170.44 C 252.98 169.81 250.27 168.43 250.38 165.93 C 250.15 162.74 250.33 159.54 250.47 156.35 Z" />
<path fill="#744a49" opacity="0.89" d=" M 271.20 156.47 C 271.81 156.46 273.02 156.42 273.63 156.40 C 273.64 160.11 273.98 163.86 273.45 167.54 C 271.54 171.36 265.75 171.04 263.73 167.42 C 263.20 163.98 263.53 160.48 263.48 157.02 C 264.22 156.86 265.69 156.55 266.42 156.39 C 266.66 160.17 265.85 164.20 267.69 167.70 C 268.42 167.50 269.88 167.08 270.61 166.87 C 270.60 163.39 270.58 159.90 271.20 156.47 Z" />
<path fill="#744a49" opacity="0.89" d=" M 276.79 156.78 C 277.71 156.62 278.64 156.46 279.58 156.30 C 280.26 159.99 277.99 165.59 282.05 167.68 C 286.00 165.67 283.61 160.42 284.36 156.94 C 285.06 157.10 286.47 157.44 287.18 157.60 C 287.24 161.42 288.76 166.53 285.10 169.17 C 283.40 170.90 280.58 170.77 278.88 169.12 C 275.12 166.17 276.98 160.85 276.79 156.78 Z" />
<path fill="#744a49" opacity="0.89" d=" M 236.57 163.04 C 236.67 160.81 236.04 156.58 239.08 156.30 C 240.89 159.81 238.30 165.28 242.01 167.74 C 246.84 165.46 242.16 158.85 246.12 155.77 C 247.78 158.93 247.60 162.56 247.31 166.01 C 247.13 168.29 244.95 169.76 242.95 170.38 C 239.04 170.72 236.10 166.73 236.57 163.04 Z" />
<path fill="#744a49" opacity="0.89" d=" M 178.28 168.25 C 180.28 166.10 181.14 163.07 183.14 161.02 C 185.79 160.86 187.17 163.56 188.86 165.15 C 186.98 164.17 185.16 163.04 183.18 162.27 C 182.17 165.44 182.94 168.80 183.13 172.04 C 181.50 170.80 179.90 169.51 178.28 168.25 Z" />
<path fill="#744a49" opacity="0.89" d=" M 100.02 169.03 C 98.10 166.97 98.19 164.63 100.02 162.52 C 101.90 164.52 101.52 166.97 100.02 169.03 Z" />
<path fill="#744a49" opacity="0.89" d=" M 161.43 173.40 C 163.61 172.23 166.03 171.61 168.32 170.69 L 168.04 171.34 C 166.77 174.08 165.99 177.01 165.30 179.94 C 164.21 178.54 163.12 177.16 162.03 175.77 C 159.92 179.79 157.20 183.49 155.82 187.87 C 156.11 185.18 156.06 182.18 158.04 180.09 C 159.84 178.22 159.96 175.44 161.43 173.40 Z" />
<path fill="#744a49" opacity="0.89" d=" M 97.49 175.32 C 98.02 174.99 99.09 174.33 99.62 174.00 C 99.06 180.04 96.38 185.71 94.07 191.27 C 93.69 190.43 92.92 188.76 92.53 187.92 C 94.27 183.76 95.31 179.27 97.49 175.32 Z" />
<path fill="#744a49" opacity="0.89" d=" M 207.52 176.49 C 208.22 176.44 209.60 176.34 210.30 176.30 C 209.28 177.81 208.10 179.21 206.76 180.46 C 207.01 179.13 207.26 177.81 207.52 176.49 Z" />
<path fill="#744a49" opacity="0.89" d=" M 282.40 178.44 C 283.36 178.50 284.32 178.57 285.29 178.64 C 285.75 182.26 283.97 186.87 286.94 189.64 C 291.06 188.18 288.89 183.34 289.50 180.07 C 289.16 177.85 292.73 177.94 292.44 180.13 C 292.39 183.98 294.01 189.61 289.54 191.61 C 287.18 193.26 284.07 191.52 282.57 189.50 C 281.90 185.85 282.26 182.12 282.40 178.44 Z" />
<path fill="#744a49" opacity="0.89" d=" M 202.16 179.03 C 203.81 178.50 204.37 179.04 203.83 180.67 C 202.17 181.19 201.62 180.64 202.16 179.03 Z" />
<path fill="#744a49" opacity="0.89" d=" M 242.39 187.80 C 242.34 184.42 241.26 180.29 244.11 177.71 C 245.85 181.15 245.30 185.04 245.50 188.74 C 246.82 188.74 248.14 188.74 249.46 188.72 C 249.71 185.02 248.73 180.94 250.99 177.67 C 253.22 180.31 252.58 183.89 252.58 187.07 C 252.90 190.12 249.74 192.16 247.04 192.38 C 244.99 191.64 242.35 190.33 242.39 187.80 Z" />
<path fill="#744a49" opacity="0.89" d=" M 255.45 181.99 C 255.21 180.51 255.99 176.97 258.13 178.75 C 258.90 181.95 258.50 185.28 258.63 188.54 C 259.90 188.92 261.30 189.72 262.41 188.51 C 262.88 184.89 262.12 181.07 263.97 177.73 C 266.59 180.43 265.70 184.44 265.67 187.82 C 265.72 191.21 261.24 193.24 258.50 191.56 C 254.67 190.04 255.54 185.27 255.45 181.99 Z" />
<path fill="#744a49" opacity="0.89" d=" M 268.67 186.05 C 268.55 183.15 267.87 179.33 271.38 178.15 C 271.74 181.61 271.71 185.09 271.79 188.57 C 273.21 188.60 274.75 189.02 276.06 188.24 C 276.48 184.87 276.21 181.45 276.60 178.07 C 280.55 179.41 279.24 183.88 279.27 187.06 C 279.25 190.63 274.72 193.64 271.63 191.46 C 269.36 190.68 268.84 188.15 268.67 186.05 Z" />
<path fill="#744a49" opacity="0.89" d=" M 178.17 189.04 C 178.90 187.51 180.75 187.51 182.13 187.00 C 180.84 192.06 175.68 194.42 172.51 198.15 C 174.72 198.39 177.11 198.13 179.09 199.37 C 175.78 199.54 172.50 198.97 169.61 197.32 C 173.03 195.21 176.14 192.55 178.17 189.04 Z" />
<path fill="#744a49" opacity="0.89" d=" M 87.52 194.93 C 89.85 199.31 93.19 203.18 94.90 207.84 C 89.04 206.76 87.53 199.99 87.52 194.93 Z" />
<path fill="#744a49" opacity="0.89" d=" M 60.96 198.93 C 62.15 199.47 63.37 199.97 64.58 200.49 C 65.06 202.01 65.53 203.54 66.05 205.05 C 63.51 203.83 61.90 201.52 60.96 198.93 Z" />
<path fill="#744a49" opacity="0.89" d=" M 236.66 202.96 C 236.81 201.50 237.73 199.24 239.54 200.40 C 239.81 203.81 239.87 207.23 240.44 210.61 C 241.57 210.64 242.70 210.68 243.83 210.71 C 244.47 207.32 244.42 203.86 244.43 200.42 C 245.17 200.43 246.65 200.44 247.39 200.44 C 246.84 204.57 249.07 210.25 245.00 213.07 C 242.64 214.41 238.91 214.04 237.59 211.38 C 236.24 208.80 236.52 205.77 236.66 202.96 Z" />
<path fill="#744a49" opacity="0.89" d=" M 250.39 200.27 C 251.38 200.32 252.37 200.37 253.37 200.42 C 253.31 203.86 253.32 207.30 253.66 210.73 C 254.56 210.72 256.36 210.70 257.26 210.69 C 257.54 207.31 257.54 203.91 257.57 200.52 C 258.55 200.44 259.53 200.36 260.52 200.28 C 260.08 204.51 262.24 210.18 258.16 213.12 C 255.57 214.74 251.57 213.56 250.58 210.57 C 250.01 207.16 250.36 203.69 250.39 200.27 Z" />
<path fill="#744a49" opacity="0.89" d=" M 263.57 200.51 C 264.55 200.41 265.54 200.31 266.53 200.22 C 266.52 203.59 266.49 206.97 266.61 210.35 C 267.90 210.49 269.20 210.62 270.51 210.73 C 270.63 207.28 270.64 203.82 270.90 200.38 C 271.59 200.35 272.98 200.31 273.68 200.29 C 273.61 204.01 274.03 207.80 273.37 211.49 C 271.88 213.99 268.24 214.41 265.87 213.05 C 261.81 210.26 263.94 204.63 263.57 200.51 Z" />
<path fill="#744a49" opacity="0.89" d=" M 284.47 200.41 C 286.31 199.15 287.16 201.49 287.35 202.97 C 287.50 205.56 287.64 208.28 286.80 210.78 C 285.44 214.85 278.52 214.87 277.18 210.77 C 276.18 207.53 276.55 204.01 276.82 200.68 C 277.50 200.55 278.87 200.28 279.55 200.15 C 279.74 203.17 279.40 206.24 279.92 209.23 C 280.20 211.02 282.24 210.57 283.54 210.95 C 284.15 207.46 284.18 203.92 284.47 200.41 Z" />
<path fill="#744a49" opacity="0.89" d=" M 290.32 207.28 C 292.06 207.35 293.80 207.42 295.54 207.49 C 295.53 208.03 295.50 209.12 295.48 209.66 C 293.77 209.89 292.06 210.12 290.34 210.31 C 290.34 209.55 290.33 208.04 290.32 207.28 Z" />
<path fill="#744a49" opacity="0.89" d=" M 92.00 217.94 C 96.51 219.39 100.79 221.41 105.18 223.17 C 109.37 224.13 113.74 223.49 118.00 223.64 C 149.40 223.65 180.79 223.58 212.19 223.67 L 211.93 224.44 C 208.63 224.83 205.30 224.60 202.00 224.64 C 170.33 224.63 138.66 224.62 106.99 224.65 C 102.50 224.71 98.46 222.29 94.72 220.08 C 93.81 219.36 92.90 218.65 92.00 217.94 Z" />
</g>
<g id="#fdfdfdfe">
<path fill="#fdfdfd" opacity="1.00" d=" M 152.68 21.62 C 156.81 20.92 161.11 21.30 165.04 22.79 C 161.90 25.86 158.32 28.57 156.33 32.60 C 155.43 32.53 154.53 32.47 153.63 32.40 C 153.08 28.83 152.71 25.24 152.68 21.62 Z" />
<path fill="#fdfdfd" opacity="1.00" d=" M 135.19 24.95 C 139.83 24.19 144.37 22.93 148.99 22.07 C 148.80 25.51 147.65 28.78 145.84 31.70 L 145.40 32.50 C 141.16 32.17 136.96 31.37 132.99 29.83 C 128.50 29.01 123.92 29.30 119.41 28.79 C 124.21 25.99 129.91 26.13 135.19 24.95 Z" />
<path fill="#fdfdfd" opacity="1.00" d=" M 164.92 31.20 C 167.19 29.95 169.28 25.96 172.14 27.81 C 177.40 31.09 182.35 34.94 186.55 39.52 C 188.57 41.56 188.07 44.85 190.02 46.96 C 192.35 49.60 192.95 53.30 195.09 55.99 C 200.65 59.67 204.87 65.45 205.93 72.11 C 202.48 68.67 200.76 63.97 197.52 60.36 C 197.48 61.99 196.99 63.75 197.73 65.30 C 200.65 71.66 206.22 76.35 209.07 82.76 C 212.19 89.81 214.33 97.25 216.40 104.66 C 218.06 109.73 220.53 114.51 221.85 119.70 C 223.18 124.11 223.31 128.75 224.49 133.19 C 228.30 145.05 225.35 157.64 226.75 169.79 C 227.69 174.33 227.80 179.03 227.35 183.63 C 223.89 189.42 221.31 195.70 219.18 202.10 C 217.21 209.41 213.89 216.27 212.19 223.67 C 180.79 223.58 149.40 223.65 118.00 223.64 C 113.74 223.49 109.37 224.13 105.18 223.17 C 100.79 221.41 96.51 219.39 92.00 217.94 C 88.21 216.13 84.25 214.60 80.70 212.32 C 75.74 208.90 73.35 203.05 68.94 199.06 C 65.98 196.13 61.99 193.74 60.75 189.52 C 58.89 181.84 57.14 174.05 53.94 166.79 C 53.42 163.44 53.54 160.02 52.87 156.70 C 52.28 153.63 50.50 150.96 49.70 147.96 C 49.06 142.33 50.06 136.68 50.25 131.06 C 50.43 124.55 50.06 118.04 50.34 111.54 C 52.08 107.23 53.66 102.85 55.14 98.44 C 56.24 93.23 54.43 87.33 57.72 82.67 C 62.63 75.26 70.18 70.05 74.68 62.30 C 78.86 62.68 83.04 63.53 86.86 65.31 C 94.05 68.56 99.28 74.78 104.00 80.88 C 97.94 79.51 91.58 77.32 85.41 79.24 C 80.32 81.92 75.70 85.73 72.63 90.66 C 70.08 94.70 67.11 98.59 65.56 103.16 C 65.93 106.56 67.37 109.73 68.02 113.07 C 68.79 117.63 71.52 121.46 73.46 125.57 C 75.82 130.23 79.97 133.57 84.55 135.90 C 86.56 137.42 88.54 138.99 90.49 140.60 C 92.29 139.91 94.08 139.18 95.86 138.41 C 95.48 142.18 91.38 143.61 89.06 146.08 C 93.13 144.83 96.91 142.70 99.84 139.58 C 103.24 136.08 107.19 133.15 110.64 129.70 C 112.22 127.13 112.25 123.93 113.19 121.10 C 113.95 117.68 116.53 115.15 118.19 112.18 C 119.90 109.40 120.52 106.17 121.46 103.10 C 122.57 99.36 124.47 95.93 126.11 92.41 C 128.22 93.10 130.39 93.63 132.63 93.72 C 129.93 89.25 126.64 85.17 123.27 81.20 C 123.28 84.35 124.19 87.37 124.97 90.39 C 122.83 90.21 120.75 90.66 118.91 91.80 C 115.79 88.65 112.42 85.74 109.57 82.34 C 107.99 80.62 108.70 78.17 108.75 76.09 C 111.19 77.49 113.31 79.60 116.05 80.42 C 117.90 80.35 119.69 79.80 121.50 79.43 C 121.28 76.85 121.56 74.27 123.43 72.30 C 121.84 70.65 120.27 68.98 118.66 67.36 C 118.53 70.67 118.42 74.00 117.48 77.19 C 113.81 75.71 109.08 74.73 107.38 70.68 C 106.16 68.33 104.91 65.54 102.05 64.90 C 94.47 62.49 87.07 59.57 79.92 56.07 C 83.39 50.88 88.50 47.10 92.01 41.95 C 93.85 39.21 96.47 36.86 99.82 36.27 C 104.04 35.45 107.54 32.34 111.94 32.32 C 118.29 32.18 124.69 32.01 131.03 32.51 C 135.88 33.64 140.72 34.90 145.75 34.82 C 145.24 36.45 144.70 38.08 144.16 39.71 C 142.27 39.67 140.38 39.59 138.50 39.51 C 138.70 48.80 135.81 58.62 129.17 65.34 C 129.75 67.24 130.48 69.11 130.83 71.08 C 129.16 73.05 127.11 74.69 125.59 76.80 C 127.59 76.21 129.51 75.40 131.39 74.50 C 132.91 77.13 134.68 79.78 134.73 82.94 C 132.30 82.38 130.16 81.08 127.95 79.97 C 128.18 84.59 131.55 88.53 135.47 90.60 C 138.89 91.67 141.36 88.85 143.18 86.41 C 141.06 87.01 138.99 87.75 136.85 88.28 C 135.31 88.23 133.01 86.37 134.78 85.00 C 136.96 84.33 139.20 83.89 141.42 83.32 C 141.41 78.29 141.21 73.02 143.66 68.45 C 146.07 62.56 152.15 58.55 152.83 51.93 C 153.68 46.27 156.03 40.86 159.33 36.21 C 162.48 36.66 165.60 37.26 168.74 37.74 C 168.70 36.72 168.66 35.69 168.63 34.67 C 167.13 34.25 165.63 33.83 164.13 33.41 C 164.39 32.67 164.66 31.94 164.92 31.20 M 163.76 52.81 C 162.20 59.52 155.14 62.26 151.90 67.92 C 148.04 74.22 144.75 81.44 145.48 89.01 C 145.86 91.26 146.76 93.42 146.72 95.75 C 145.18 95.29 143.66 94.77 142.13 94.28 C 141.79 98.18 144.33 101.31 147.77 102.80 C 148.39 101.57 149.02 100.34 149.67 99.14 C 150.55 100.36 151.40 101.60 152.30 102.81 C 154.94 106.59 159.68 107.84 163.07 110.79 C 156.33 110.13 150.80 105.16 144.01 104.73 C 141.30 105.14 138.66 105.97 135.96 106.47 C 133.90 106.47 132.00 105.34 129.91 105.35 C 129.68 106.10 129.23 107.61 129.00 108.36 C 130.50 108.37 132.00 108.43 133.49 108.53 C 130.89 111.37 127.19 112.79 124.35 115.37 C 122.83 116.78 120.99 117.74 118.86 117.67 C 116.08 125.88 112.17 133.67 110.08 142.11 C 108.61 148.90 108.72 155.87 108.51 162.78 C 106.70 171.16 104.19 179.47 100.34 187.17 C 98.05 191.60 96.51 196.53 93.00 200.21 C 96.53 203.83 101.45 205.63 106.21 206.96 C 114.86 208.01 123.46 209.68 132.20 209.73 C 134.28 207.52 136.74 205.72 139.68 204.89 C 154.83 199.78 166.09 187.84 179.65 179.94 C 177.49 183.61 173.79 185.89 170.79 188.79 C 168.86 190.55 167.37 192.73 165.40 194.45 C 163.12 196.11 160.32 197.19 158.82 199.73 C 164.12 199.12 167.90 194.99 172.04 192.07 C 175.13 186.67 180.86 183.67 184.95 179.12 C 189.33 177.70 194.41 179.40 198.93 178.01 C 203.75 176.57 208.78 174.02 211.10 169.31 C 213.26 163.72 212.00 157.59 213.43 151.84 C 212.76 147.76 210.77 143.84 208.73 140.24 C 208.50 138.84 208.29 137.44 208.10 136.03 C 210.09 136.93 212.01 138.13 212.90 140.23 C 214.65 143.88 217.26 146.98 220.15 149.79 C 224.25 145.88 222.32 139.73 219.00 136.00 C 215.02 131.57 210.40 127.42 204.87 125.05 C 209.01 132.08 218.18 135.57 219.51 144.32 C 215.29 142.89 214.94 137.67 211.52 135.32 C 207.21 130.99 202.43 127.16 197.37 123.74 C 195.55 122.39 193.09 121.26 193.06 118.65 C 198.12 119.25 202.32 116.26 207.02 115.10 C 204.82 110.93 199.99 112.94 196.26 112.37 C 199.03 108.38 204.39 106.14 205.54 101.07 C 205.75 97.38 205.83 93.67 205.65 89.98 C 204.41 87.52 202.75 85.26 202.13 82.53 C 201.05 78.52 198.09 75.47 196.01 71.97 C 192.36 65.82 187.01 60.98 182.13 55.84 C 177.44 50.95 169.83 50.58 163.76 52.81 M 104.34 141.24 C 102.56 145.59 103.98 150.36 103.33 154.88 C 101.92 156.81 99.47 158.30 100.50 161.06 C 102.09 159.89 104.30 159.18 105.14 157.24 C 106.97 152.85 105.89 148.01 106.71 143.46 C 107.49 140.65 108.64 137.93 108.87 135.00 C 105.83 135.51 105.40 138.89 104.34 141.24 M 217.34 164.83 C 218.39 164.71 219.46 164.59 220.52 164.48 C 220.67 160.53 220.66 156.56 220.10 152.64 C 217.22 156.11 217.35 160.59 217.34 164.83 M 100.02 169.03 C 101.52 166.97 101.90 164.52 100.02 162.52 C 98.19 164.63 98.10 166.97 100.02 169.03 M 97.13 170.74 C 98.07 172.08 98.67 174.95 100.62 172.96 C 101.51 170.45 99.02 168.17 97.13 170.74 M 97.49 175.32 C 95.31 179.27 94.27 183.76 92.53 187.92 C 92.92 188.76 93.69 190.43 94.07 191.27 C 96.38 185.71 99.06 180.04 99.62 174.00 C 99.09 174.33 98.02 174.99 97.49 175.32 M 207.52 176.49 C 207.26 177.81 207.01 179.13 206.76 180.46 C 208.10 179.21 209.28 177.81 210.30 176.30 C 209.60 176.34 208.22 176.44 207.52 176.49 M 202.16 179.03 C 201.62 180.64 202.17 181.19 203.83 180.67 C 204.37 179.04 203.81 178.50 202.16 179.03 M 178.17 189.04 C 176.14 192.55 173.03 195.21 169.61 197.32 C 167.67 198.59 167.30 200.83 167.04 202.98 C 169.69 202.20 172.23 200.99 174.99 200.64 C 177.58 201.34 179.97 202.60 182.42 203.70 C 182.52 202.49 182.62 201.30 182.70 200.10 C 181.51 199.78 180.32 199.40 179.09 199.37 C 177.11 198.13 174.72 198.39 172.51 198.15 C 175.68 194.42 180.84 192.06 182.13 187.00 C 180.75 187.51 178.90 187.51 178.17 189.04 M 87.52 194.93 C 87.53 199.99 89.04 206.76 94.90 207.84 C 93.19 203.18 89.85 199.31 87.52 194.93 Z" />
<path fill="#fdfdfd" opacity="1.00" d=" M 146.29 42.93 C 146.39 39.75 147.83 36.87 148.95 33.97 C 151.56 35.32 150.41 38.46 150.55 40.79 C 149.15 41.55 147.74 42.27 146.29 42.93 Z" />
<path fill="#fdfdfd" opacity="1.00" d=" M 140.14 49.55 C 140.70 47.08 141.48 44.54 143.43 42.79 C 143.69 45.08 143.37 47.36 142.57 49.53 C 141.96 49.53 140.75 49.55 140.14 49.55 Z" />
<path fill="#fdfdfd" opacity="1.00" d=" M 140.67 53.69 C 141.13 53.61 142.06 53.46 142.52 53.39 C 142.50 54.40 142.47 55.41 142.44 56.42 C 141.42 56.43 140.40 56.44 139.38 56.44 C 139.81 55.53 140.24 54.61 140.67 53.69 Z" />
<path fill="#fdfdfd" opacity="1.00" d=" M 154.89 69.89 C 159.53 65.38 163.94 60.21 169.95 57.49 C 173.98 57.17 178.49 56.43 182.03 58.91 C 179.12 61.50 175.11 63.75 174.44 67.93 C 174.23 71.17 173.63 75.18 176.57 77.42 C 180.39 80.50 185.65 79.30 190.19 79.57 C 191.40 77.95 192.61 76.30 194.16 74.98 C 198.74 79.31 199.44 85.76 202.26 91.12 C 203.08 98.14 198.81 105.29 192.52 108.40 C 189.37 110.39 185.50 109.50 182.00 109.56 C 178.34 109.28 174.61 109.90 171.00 109.11 C 160.93 106.96 154.42 97.86 149.72 89.40 C 148.47 82.60 151.00 75.44 154.89 69.89 M 167.53 102.44 C 167.65 103.35 167.77 104.26 167.90 105.18 C 169.10 105.30 170.31 105.42 171.53 105.55 C 171.44 104.59 171.36 103.64 171.29 102.69 C 170.03 102.60 168.78 102.52 167.53 102.44 Z" />
<path fill="#fdfdfd" opacity="1.00" d=" M 178.77 73.20 C 176.96 68.72 179.03 62.39 184.47 62.08 C 186.40 65.54 189.06 68.45 191.73 71.34 C 191.88 74.25 188.55 75.98 185.98 75.77 C 183.28 76.06 180.57 75.31 178.77 73.20 Z" />
<path fill="#fdfdfd" opacity="1.00" d=" M 82.74 85.85 C 86.47 83.88 90.36 80.81 94.83 81.75 C 99.63 83.00 104.06 85.38 108.25 87.98 C 111.10 92.68 114.05 97.49 115.56 102.81 C 111.40 110.86 107.83 119.70 100.66 125.63 C 96.50 128.91 91.62 132.28 86.03 131.64 C 82.44 131.69 79.60 129.05 77.51 126.42 C 74.59 122.45 74.41 117.33 73.35 112.70 C 77.51 110.37 82.30 108.76 85.37 104.89 C 85.92 102.60 86.18 99.57 84.18 97.89 C 81.88 95.30 78.29 94.77 75.09 94.11 C 75.70 90.06 79.70 87.98 82.74 85.85 M 85.84 124.81 C 85.72 126.15 85.60 127.49 85.51 128.83 C 88.02 128.71 88.92 126.57 89.72 124.54 C 88.43 124.62 87.13 124.71 85.84 124.81 Z" />
<path fill="#fdfdfd" opacity="1.00" d=" M 72.98 99.96 C 74.89 97.17 78.51 98.92 80.71 100.37 C 81.26 105.07 76.26 108.68 71.85 107.60 C 68.99 105.66 71.45 102.01 72.98 99.96 Z" />
<path fill="#fdfdfd" opacity="1.00" d=" M 220.52 102.77 C 222.63 105.28 225.11 107.94 224.65 111.49 C 223.70 111.49 222.75 111.48 221.81 111.48 C 221.60 108.55 221.18 105.64 220.52 102.77 Z" />
<path fill="#fdfdfd" opacity="1.00" d=" M 135.32 111.00 C 138.28 110.33 141.34 110.27 144.37 110.17 C 145.07 113.18 145.61 116.22 145.99 119.29 C 142.96 120.33 139.96 121.45 136.95 122.53 C 135.26 119.61 133.51 116.70 131.40 114.06 C 132.71 113.04 133.99 111.99 135.32 111.00 Z" />
<path fill="#fdfdfd" opacity="1.00" d=" M 148.49 110.35 C 152.59 110.30 156.19 112.38 159.83 113.95 C 159.38 115.67 158.76 117.33 158.11 118.98 C 156.23 117.66 154.66 115.99 153.18 114.24 C 152.35 114.59 150.69 115.28 149.86 115.63 C 147.91 114.46 148.58 112.21 148.49 110.35 Z" />
<path fill="#fdfdfd" opacity="1.00" d=" M 165.93 111.58 C 168.44 111.37 170.89 111.83 173.27 112.60 C 180.78 115.00 189.53 110.88 196.33 115.86 C 194.53 117.02 192.32 118.34 190.21 117.04 C 186.17 114.53 181.12 114.94 176.89 116.67 C 172.84 116.13 169.20 113.92 165.93 111.58 Z" />
<path fill="#fdfdfd" opacity="1.00" d=" M 121.58 123.02 C 123.00 119.53 126.34 116.19 130.32 116.26 C 132.24 119.99 133.64 124.05 136.78 126.99 C 134.64 129.50 133.22 132.28 133.38 135.64 C 132.95 136.03 132.08 136.79 131.65 137.17 C 131.36 134.75 131.35 132.31 131.17 129.89 C 129.59 130.69 128.17 131.76 126.80 132.87 C 124.31 130.14 120.78 127.14 121.58 123.02 Z" />
<path fill="#fdfdfd" opacity="1.00" d=" M 180.38 118.54 C 182.10 118.55 183.82 118.55 185.54 118.54 C 185.37 119.45 185.21 120.36 185.05 121.28 C 183.65 121.32 182.24 121.34 180.84 121.35 C 180.68 120.41 180.53 119.48 180.38 118.54 Z" />
<path fill="#fdfdfd" opacity="1.00" d=" M 143.93 122.83 C 144.92 123.61 145.90 124.40 146.89 125.19 C 145.64 125.36 144.40 125.51 143.16 125.63 C 143.35 124.93 143.74 123.53 143.93 122.83 Z" />
<path fill="#fdfdfd" opacity="1.00" d=" M 98.02 134.69 C 100.80 130.91 104.18 127.56 107.90 124.71 C 108.33 128.63 105.07 131.10 102.45 133.41 C 101.30 134.63 99.54 134.47 98.02 134.69 Z" />
<path fill="#fdfdfd" opacity="1.00" d=" M 115.24 133.12 C 118.85 132.88 121.38 135.69 123.86 137.87 C 122.61 139.26 121.31 140.60 120.03 141.97 C 117.78 139.42 116.21 136.37 115.24 133.12 Z" />
<path fill="#fdfdfd" opacity="1.00" d=" M 160.20 158.59 C 162.66 153.52 166.72 147.91 173.07 148.34 C 177.14 150.71 180.44 154.25 182.97 158.20 C 181.35 159.50 179.43 160.45 178.01 161.97 C 176.42 164.89 175.23 168.00 173.68 170.94 C 170.25 168.49 166.11 167.58 161.98 168.62 C 156.32 171.56 153.46 178.05 153.09 184.17 C 151.61 183.37 150.29 182.34 149.07 181.20 C 144.85 181.50 139.94 180.46 136.52 183.59 C 133.87 185.92 131.35 188.42 128.82 190.89 C 127.19 192.11 127.58 194.29 127.17 196.06 C 125.51 194.96 124.08 193.59 122.88 192.01 C 126.58 187.93 131.89 185.52 134.90 180.80 C 136.54 178.14 137.95 175.34 139.29 172.52 C 140.96 169.02 141.56 165.05 143.70 161.76 C 145.11 159.61 147.10 157.94 148.93 156.18 C 152.35 158.33 156.20 159.14 160.20 158.59 Z" />
<path fill="#fdfdfd" opacity="1.00" d=" M 195.45 156.87 C 196.59 156.21 197.64 156.31 198.61 157.18 C 200.89 158.78 202.82 160.81 204.82 162.73 C 206.13 162.57 207.46 162.41 208.78 162.25 C 208.59 164.88 209.44 168.18 207.08 170.08 C 202.90 174.00 196.62 172.47 191.44 172.63 C 190.72 168.75 192.97 165.75 195.56 163.19 C 195.48 161.08 195.37 158.98 195.45 156.87 Z" />
<path fill="#fdfdfd" opacity="1.00" d=" M 183.18 162.27 C 185.16 163.04 186.98 164.17 188.86 165.15 L 189.49 165.51 C 189.14 167.88 189.82 170.50 188.54 172.67 C 186.90 173.80 184.65 173.13 182.96 174.17 C 178.03 177.04 173.69 180.81 168.77 183.70 C 165.23 185.77 162.09 188.39 158.94 190.99 C 157.96 192.01 156.44 191.67 155.18 191.82 C 155.33 190.49 155.36 189.13 155.82 187.87 C 157.20 183.49 159.92 179.79 162.03 175.77 C 163.12 177.16 164.21 178.54 165.30 179.94 C 165.99 177.01 166.77 174.08 168.04 171.34 C 169.56 173.38 171.16 175.38 173.08 177.06 C 175.32 174.45 176.87 171.36 178.28 168.25 C 179.90 169.51 181.50 170.80 183.13 172.04 C 182.94 168.80 182.17 165.44 183.18 162.27 Z" />
<path fill="#fdfdfd" opacity="1.00" d=" M 52.46 174.25 C 53.53 177.41 54.84 180.48 55.80 183.69 C 54.74 182.98 53.68 182.30 52.61 181.62 C 52.63 179.16 52.60 176.70 52.46 174.25 Z" />
<path fill="#fdfdfd" opacity="1.00" d=" M 137.50 186.53 C 137.98 186.46 138.95 186.32 139.44 186.25 C 139.92 187.71 140.40 189.17 140.88 190.64 C 142.19 189.12 143.48 187.59 144.82 186.09 C 145.56 186.27 147.05 186.62 147.79 186.79 C 150.14 189.15 152.87 191.38 154.20 194.52 C 146.47 199.61 137.57 202.35 129.23 206.19 C 127.09 207.23 124.93 205.53 122.83 205.18 C 118.10 204.12 113.24 203.56 108.40 203.36 C 108.48 202.45 108.55 201.53 108.62 200.62 C 113.35 200.72 117.43 197.82 122.21 198.50 C 124.16 200.28 125.96 202.41 128.57 203.22 C 131.98 197.89 134.52 192.09 137.50 186.53 Z" />
</g>
</svg>
