<?xml version="1.0" encoding="UTF-8" ?>
<!DOCTYPE svg PUBLIC "-//W3C//DTD SVG 1.1//EN" "http://www.w3.org/Graphics/SVG/1.1/DTD/svg11.dtd">
<svg width="210pt" height="220pt" viewBox="0 0 210 220" version="1.1" xmlns="http://www.w3.org/2000/svg">
<g id="#000000fe">
<path fill="#000000" opacity="1.00" d=" M 138.99 16.59 C 141.43 12.66 145.10 8.99 149.93 8.54 C 157.81 7.60 165.33 15.13 164.41 23.01 C 163.71 29.47 157.68 35.25 151.01 34.71 C 144.01 35.04 138.17 28.53 138.10 21.74 C 130.65 19.81 123.09 18.36 115.66 16.33 C 112.70 25.01 110.18 33.83 107.22 42.52 C 121.12 43.57 135.29 46.68 147.07 54.46 C 149.99 52.37 153.23 50.28 156.97 50.38 C 163.77 49.67 170.31 54.27 172.82 60.46 C 175.47 67.56 172.66 75.93 166.22 79.94 C 166.85 89.19 164.02 98.77 157.59 105.57 C 151.46 112.65 143.22 117.49 134.59 120.90 C 148.96 127.90 153.79 147.26 147.24 161.21 C 144.21 168.17 138.32 173.91 130.92 175.98 C 130.02 178.45 129.10 180.91 128.19 183.37 C 133.39 183.35 138.90 184.69 142.67 188.48 C 146.49 191.94 148.49 197.88 146.17 202.72 C 145.59 203.85 144.04 203.54 143.01 203.71 C 134.68 203.90 126.32 203.32 118.02 204.21 C 106.36 204.12 94.67 204.69 83.05 203.73 C 75.60 203.56 68.14 204.03 60.71 203.46 C 59.32 200.04 58.95 196.04 60.83 192.74 C 63.97 186.39 71.22 183.19 78.06 183.34 C 76.93 180.47 76.87 176.17 73.38 175.09 C 60.69 170.06 54.58 154.72 57.15 141.86 C 58.57 133.11 63.96 125.01 71.89 120.90 C 60.19 116.22 48.61 108.73 43.20 96.89 C 40.56 91.60 40.08 85.59 40.58 79.77 C 36.54 76.75 33.22 72.18 33.24 66.95 C 32.47 57.91 41.01 49.44 50.06 50.39 C 53.73 50.07 56.58 52.55 59.76 53.85 C 61.94 53.17 63.81 51.78 65.86 50.79 C 77.07 45.21 89.62 43.02 102.03 42.40 C 104.63 33.11 107.79 23.99 110.61 14.77 C 111.24 13.03 112.08 9.84 114.59 10.82 C 122.72 12.74 130.85 14.67 138.99 16.59 M 143.51 24.18 C 144.60 25.60 145.71 26.99 146.84 28.37 C 149.47 29.60 152.72 30.23 155.25 28.40 C 158.06 26.92 158.96 23.75 159.48 20.86 C 158.12 17.37 155.26 13.56 151.02 14.17 C 145.77 13.74 142.49 19.48 143.51 24.18 M 84.85 49.78 C 83.47 50.16 82.09 50.48 80.70 50.79 C 77.01 51.93 73.38 53.23 69.80 54.68 C 60.37 59.26 51.18 66.04 47.19 76.09 C 46.72 77.70 46.27 79.32 45.73 80.92 C 45.59 83.31 45.60 85.71 45.73 88.10 C 46.26 89.70 46.71 91.31 47.20 92.93 C 51.45 103.31 61.08 110.44 71.09 114.82 C 75.53 116.70 80.15 118.07 84.83 119.22 C 89.53 120.18 94.28 120.76 99.09 120.87 C 101.67 121.45 104.35 121.49 106.94 120.89 C 114.48 120.83 121.90 119.35 129.13 117.24 C 130.38 116.77 131.64 116.30 132.90 115.83 C 134.58 115.14 136.24 114.43 137.90 113.71 C 146.23 109.57 154.02 103.62 158.37 95.20 C 161.98 87.64 161.56 78.15 156.79 71.17 C 151.38 62.47 142.24 56.90 132.93 53.18 C 131.67 52.71 130.41 52.24 129.15 51.77 C 126.78 51.12 124.40 50.50 122.02 49.84 C 115.97 48.57 109.79 48.01 103.60 48.22 L 103.49 47.55 C 98.70 48.25 93.82 48.17 89.06 49.09 C 87.66 49.34 86.25 49.55 84.85 49.78 M 152.35 56.83 C 152.38 57.24 152.45 58.05 152.48 58.45 C 157.40 62.29 161.49 67.31 163.84 73.12 C 164.12 73.52 164.69 74.33 164.97 74.74 C 166.43 72.33 168.56 70.01 168.54 67.03 C 169.05 62.35 165.79 57.85 161.50 56.23 C 158.55 54.81 155.26 55.89 152.35 56.83 M 44.60 56.66 C 39.29 59.21 36.89 65.91 39.56 71.23 C 40.41 72.23 41.26 73.21 42.12 74.20 C 42.63 73.06 43.16 71.93 43.65 70.78 C 46.29 65.28 50.93 61.33 54.95 56.92 C 51.67 55.69 47.83 54.73 44.60 56.66 M 124.95 123.84 C 120.77 125.19 116.36 125.39 112.07 126.19 C 103.66 126.89 95.24 126.39 86.91 125.16 C 85.28 124.74 83.63 124.41 81.99 124.03 C 80.29 123.56 78.53 123.30 76.77 123.16 C 76.55 126.80 76.39 130.44 76.12 134.08 C 75.47 138.63 75.45 143.36 76.13 147.92 C 76.46 151.58 76.30 155.30 77.16 158.90 C 77.38 160.31 77.58 161.73 77.80 163.15 C 78.22 164.75 78.53 166.37 78.86 167.99 C 79.25 169.32 79.57 170.67 79.90 172.01 C 80.79 174.74 81.71 177.45 82.72 180.14 C 85.72 187.13 89.76 193.91 96.00 198.47 C 100.74 198.70 105.48 198.60 110.23 198.57 C 116.64 193.96 120.92 187.14 123.86 179.93 C 125.63 175.42 126.95 170.76 128.16 166.08 C 128.43 164.40 128.68 162.70 129.13 161.06 C 130.85 150.11 130.97 138.99 130.15 127.95 C 129.78 126.32 129.56 124.67 129.35 123.02 C 127.88 123.27 126.42 123.55 124.95 123.84 M 135.36 128.11 C 135.66 132.40 135.84 136.70 136.20 140.99 C 135.56 146.62 135.87 152.34 134.94 157.94 C 134.66 159.64 134.42 161.35 134.15 163.06 C 133.54 165.23 133.34 167.47 133.14 169.71 C 137.58 166.95 140.95 162.79 142.95 157.98 C 143.37 156.65 143.79 155.32 144.26 154.01 C 144.81 149.97 144.78 145.88 144.34 141.83 C 142.97 136.91 140.58 132.32 137.04 128.62 C 136.62 128.49 135.78 128.24 135.36 128.11 M 62.04 145.10 C 61.78 146.71 61.69 148.34 62.01 149.95 C 62.61 157.67 66.45 165.81 73.65 169.35 C 72.57 164.23 71.48 159.10 71.11 153.87 C 69.77 145.22 71.10 136.41 70.44 127.74 C 65.86 132.44 62.50 138.46 62.04 145.10 M 64.66 196.82 C 64.66 197.25 64.66 198.10 64.66 198.52 C 72.45 198.64 80.25 198.69 88.04 198.50 C 85.44 195.80 83.21 192.77 81.22 189.60 C 80.71 189.36 79.69 188.86 79.18 188.62 C 73.25 188.13 66.79 190.94 64.66 196.82 M 125.08 189.59 C 123.37 192.84 121.03 195.69 118.76 198.57 C 126.46 198.63 134.16 198.62 141.86 198.58 C 141.94 194.73 139.17 191.76 135.95 190.08 C 132.48 188.79 128.60 187.88 125.08 189.59 Z" />
<path fill="#000000" opacity="1.00" d=" M 80.44 100.40 C 83.97 99.17 86.32 102.29 89.10 103.85 C 98.36 107.12 108.67 107.09 117.95 103.87 C 120.07 102.60 122.05 101.13 123.96 99.57 C 124.65 99.87 126.03 100.48 126.72 100.78 C 127.94 105.61 122.23 107.26 119.01 109.23 C 116.41 110.03 113.76 110.62 111.11 111.24 C 106.05 111.61 100.97 111.63 95.91 111.22 C 90.33 110.27 84.61 108.37 80.53 104.27 C 80.02 103.04 80.40 101.67 80.44 100.40 Z" />
</g>
<g id="#fefefeff">
<path fill="#fefefe" opacity="1.00" d=" M 143.51 24.18 C 142.49 19.48 145.77 13.74 151.02 14.17 C 155.26 13.56 158.12 17.37 159.48 20.86 C 158.96 23.75 158.06 26.92 155.25 28.40 C 152.72 30.23 149.47 29.60 146.84 28.37 C 145.71 26.99 144.60 25.60 143.51 24.18 Z" />
<path fill="#fefefe" opacity="1.00" d=" M 84.85 49.78 C 86.25 49.55 87.66 49.34 89.06 49.09 C 93.82 48.17 98.70 48.25 103.49 47.55 L 103.60 48.22 C 109.79 48.01 115.97 48.57 122.02 49.84 C 124.40 50.50 126.78 51.12 129.15 51.77 C 130.41 52.24 131.67 52.71 132.93 53.18 C 142.24 56.90 151.38 62.47 156.79 71.17 C 161.56 78.15 161.98 87.64 158.37 95.20 C 154.02 103.62 146.23 109.57 137.90 113.71 C 136.24 114.43 134.58 115.14 132.90 115.83 C 131.64 116.30 130.38 116.77 129.13 117.24 C 121.90 119.35 114.48 120.83 106.94 120.89 C 104.35 121.49 101.67 121.45 99.09 120.87 C 94.28 120.76 89.53 120.18 84.83 119.22 C 80.15 118.07 75.53 116.70 71.09 114.82 C 61.08 110.44 51.45 103.31 47.20 92.93 C 46.71 91.31 46.26 89.70 45.73 88.10 C 45.60 85.71 45.59 83.31 45.73 80.92 C 46.27 79.32 46.72 77.70 47.19 76.09 C 51.18 66.04 60.37 59.26 69.80 54.68 C 73.38 53.23 77.01 51.93 80.70 50.79 C 82.09 50.48 83.47 50.16 84.85 49.78 M 74.37 71.29 C 72.53 73.52 72.48 76.48 72.55 79.23 C 73.81 81.80 75.48 84.36 78.14 85.66 C 80.26 86.91 82.82 86.40 85.16 86.48 C 89.92 84.51 93.54 79.07 91.65 73.93 C 90.43 69.63 86.12 67.40 82.00 66.70 C 79.17 67.64 76.06 68.61 74.37 71.29 M 117.96 69.92 C 116.19 71.55 115.60 73.97 114.64 76.09 C 115.06 80.61 117.64 84.61 121.85 86.47 C 124.86 86.58 128.21 86.80 130.59 84.58 C 134.88 81.59 135.95 75.06 132.59 70.98 C 130.69 68.08 127.12 67.43 123.99 66.73 C 121.91 67.63 119.58 68.25 117.96 69.92 M 80.44 100.40 C 80.40 101.67 80.02 103.04 80.53 104.27 C 84.61 108.37 90.33 110.27 95.91 111.22 C 100.97 111.63 106.05 111.61 111.11 111.24 C 113.76 110.62 116.41 110.03 119.01 109.23 C 122.23 107.26 127.94 105.61 126.72 100.78 C 126.03 100.48 124.65 99.87 123.96 99.57 C 122.05 101.13 120.07 102.60 117.95 103.87 C 108.67 107.09 98.36 107.12 89.10 103.85 C 86.32 102.29 83.97 99.17 80.44 100.40 Z" />
<path fill="#fefefe" opacity="1.00" d=" M 152.35 56.83 C 155.26 55.89 158.55 54.81 161.50 56.23 C 165.79 57.85 169.05 62.35 168.54 67.03 C 168.56 70.01 166.43 72.33 164.97 74.74 C 164.69 74.33 164.12 73.52 163.84 73.12 C 161.49 67.31 157.40 62.29 152.48 58.45 C 152.45 58.05 152.38 57.24 152.35 56.83 Z" />
<path fill="#fefefe" opacity="1.00" d=" M 44.60 56.66 C 47.83 54.73 51.67 55.69 54.95 56.92 C 50.93 61.33 46.29 65.28 43.65 70.78 C 43.16 71.93 42.63 73.06 42.12 74.20 C 41.26 73.21 40.41 72.23 39.56 71.23 C 36.89 65.91 39.29 59.21 44.60 56.66 Z" />
<path fill="#fefefe" opacity="1.00" d=" M 124.95 123.84 C 126.42 123.55 127.88 123.27 129.35 123.02 C 129.56 124.67 129.78 126.32 130.15 127.95 C 130.97 138.99 130.85 150.11 129.13 161.06 C 128.68 162.70 128.43 164.40 128.16 166.08 C 126.95 170.76 125.63 175.42 123.86 179.93 C 120.92 187.14 116.64 193.96 110.23 198.57 C 105.48 198.60 100.74 198.70 96.00 198.47 C 89.76 193.91 85.72 187.13 82.72 180.14 C 81.71 177.45 80.79 174.74 79.90 172.01 C 79.57 170.67 79.25 169.32 78.86 167.99 C 78.53 166.37 78.22 164.75 77.80 163.15 C 77.58 161.73 77.38 160.31 77.16 158.90 C 76.30 155.30 76.46 151.58 76.13 147.92 C 75.45 143.36 75.47 138.63 76.12 134.08 C 76.39 130.44 76.55 126.80 76.77 123.16 C 78.53 123.30 80.29 123.56 81.99 124.03 C 83.63 124.41 85.28 124.74 86.91 125.16 C 95.24 126.39 103.66 126.89 112.07 126.19 C 116.36 125.39 120.77 125.19 124.95 123.84 Z" />
<path fill="#fefefe" opacity="1.00" d=" M 135.36 128.11 C 135.78 128.24 136.62 128.49 137.04 128.62 C 140.58 132.32 142.97 136.91 144.34 141.83 C 144.78 145.88 144.81 149.97 144.26 154.01 C 143.79 155.32 143.37 156.65 142.95 157.98 C 140.95 162.79 137.58 166.95 133.14 169.71 C 133.34 167.47 133.54 165.23 134.15 163.06 C 134.42 161.35 134.66 159.64 134.94 157.94 C 135.87 152.34 135.56 146.62 136.20 140.99 C 135.84 136.70 135.66 132.40 135.36 128.11 Z" />
<path fill="#fefefe" opacity="1.00" d=" M 62.04 145.10 C 62.50 138.46 65.86 132.44 70.44 127.74 C 71.10 136.41 69.77 145.22 71.11 153.87 C 71.48 159.10 72.57 164.23 73.65 169.35 C 66.45 165.81 62.61 157.67 62.01 149.95 C 61.69 148.34 61.78 146.71 62.04 145.10 Z" />
<path fill="#fefefe" opacity="1.00" d=" M 64.66 196.82 C 66.79 190.94 73.25 188.13 79.18 188.62 C 79.69 188.86 80.71 189.36 81.22 189.60 C 83.21 192.77 85.44 195.80 88.04 198.50 C 80.25 198.69 72.45 198.64 64.66 198.52 C 64.66 198.10 64.66 197.25 64.66 196.82 Z" />
<path fill="#fefefe" opacity="1.00" d=" M 125.08 189.59 C 128.60 187.88 132.48 188.79 135.95 190.08 C 139.17 191.76 141.94 194.73 141.86 198.58 C 134.16 198.62 126.46 198.63 118.76 198.57 C 121.03 195.69 123.37 192.84 125.08 189.59 Z" />
</g>
<g id="#fc4402ff">
<path fill="#fc4402" opacity="1.00" d=" M 74.37 71.29 C 76.06 68.61 79.17 67.64 82.00 66.70 C 86.12 67.40 90.43 69.63 91.65 73.93 C 93.54 79.07 89.92 84.51 85.16 86.48 C 82.82 86.40 80.26 86.91 78.14 85.66 C 75.48 84.36 73.81 81.80 72.55 79.23 C 72.48 76.48 72.53 73.52 74.37 71.29 Z" />
<path fill="#fc4402" opacity="1.00" d=" M 117.96 69.92 C 119.58 68.25 121.91 67.63 123.99 66.73 C 127.12 67.43 130.69 68.08 132.59 70.98 C 135.95 75.06 134.88 81.59 130.59 84.58 C 128.21 86.80 124.86 86.58 121.85 86.47 C 117.64 84.61 115.06 80.61 114.64 76.09 C 115.60 73.97 116.19 71.55 117.96 69.92 Z" />
</g>
</svg>
