<?xml version="1.0" encoding="UTF-8" ?>
<!DOCTYPE svg PUBLIC "-//W3C//DTD SVG 1.1//EN" "http://www.w3.org/Graphics/SVG/1.1/DTD/svg11.dtd">
<svg width="210pt" height="220pt" viewBox="0 0 210 220" version="1.1" xmlns="http://www.w3.org/2000/svg">
<g id="#060606fe">
<path fill="#060606" opacity="1.00" d=" M 121.99 8.54 C 126.89 8.22 131.39 10.46 136.02 11.64 C 138.97 11.95 141.94 11.66 144.90 11.73 C 143.78 13.61 141.67 14.03 139.63 14.27 C 143.48 18.20 148.41 20.86 152.33 24.74 C 157.87 29.65 160.95 36.63 166.30 41.72 C 169.91 45.00 171.93 49.59 173.47 54.12 C 174.38 59.80 176.02 65.40 178.56 70.57 C 181.00 74.42 183.55 78.19 186.16 81.93 C 188.14 84.40 187.46 87.99 189.59 90.42 C 192.93 94.87 193.83 100.56 193.73 106.00 C 193.56 115.35 194.64 124.67 195.02 134.00 C 194.11 141.58 194.22 149.25 194.77 156.85 C 195.98 156.43 197.19 156.00 198.40 155.58 C 199.69 165.34 196.03 174.84 191.24 183.16 C 188.32 190.19 185.82 197.40 182.80 204.38 C 181.94 206.27 179.92 206.12 179.44 204.08 C 183.16 195.92 184.91 187.07 188.63 178.92 C 189.65 175.82 190.89 172.74 193.30 170.45 C 193.39 166.61 193.65 162.73 193.08 158.91 C 191.18 147.96 193.50 136.76 191.72 125.80 C 189.17 115.54 188.31 104.71 183.47 95.13 C 179.83 84.12 177.65 72.08 170.09 62.87 C 165.12 56.87 162.09 49.53 160.18 42.04 C 159.39 38.61 157.06 35.87 154.25 33.87 C 154.72 33.42 155.65 32.51 156.11 32.05 C 150.90 25.91 144.64 20.81 137.78 16.62 C 135.23 19.05 132.61 21.39 129.87 23.59 C 132.01 23.96 134.16 24.32 136.30 24.71 C 136.38 25.24 136.55 26.31 136.63 26.85 C 133.09 26.67 129.59 25.39 126.05 25.82 C 123.67 27.19 122.29 29.75 121.24 32.19 C 119.31 36.85 122.40 42.63 118.99 46.80 C 116.46 50.73 112.43 53.77 111.14 58.42 C 109.70 62.74 109.75 67.31 109.44 71.79 C 106.98 73.11 104.17 73.45 101.43 73.66 C 101.36 73.17 101.21 72.20 101.14 71.72 C 101.83 71.29 103.20 70.45 103.89 70.03 C 102.60 67.27 100.64 64.84 99.56 61.98 C 98.77 54.19 103.16 47.27 105.58 40.16 C 107.00 36.53 106.53 32.57 106.63 28.76 C 108.42 29.22 110.22 29.63 112.02 30.01 C 112.76 28.17 113.51 26.33 114.24 24.49 C 108.68 24.72 103.40 23.03 98.08 21.76 C 89.40 21.21 80.56 21.56 72.08 23.49 C 67.96 25.62 63.72 28.14 61.07 32.07 C 57.45 37.41 52.10 41.29 48.65 46.78 C 55.36 50.09 62.63 51.94 69.95 53.36 C 72.93 53.75 75.08 55.94 77.07 57.99 C 74.47 59.00 71.82 59.85 69.16 60.64 C 74.23 67.30 80.20 73.34 86.88 78.35 C 86.77 79.05 86.63 79.74 86.48 80.44 C 85.01 80.23 83.55 80.12 82.07 80.12 C 83.68 82.43 85.76 84.34 87.89 86.16 C 86.21 86.27 84.53 86.37 82.85 86.45 C 81.27 82.91 80.63 78.85 78.20 75.74 C 75.03 73.21 71.10 71.91 67.45 70.24 C 67.67 73.37 67.91 76.70 70.13 79.15 C 70.21 79.57 70.37 80.39 70.46 80.80 C 68.79 79.82 66.24 79.35 65.97 77.05 C 65.53 74.79 65.47 72.47 65.28 70.18 C 60.16 69.87 55.17 72.10 51.35 75.38 C 49.22 76.84 51.11 79.48 51.94 81.17 C 53.48 85.06 58.02 82.12 61.02 82.31 C 64.15 81.30 64.35 85.19 64.58 87.25 C 63.40 86.33 62.24 85.40 61.11 84.42 C 57.85 86.32 54.21 84.96 50.86 84.12 C 49.85 82.05 48.88 79.96 47.95 77.86 C 44.74 80.06 43.03 83.59 43.01 87.45 C 45.18 87.58 47.35 87.69 49.53 87.86 C 47.28 90.03 44.26 90.01 41.38 89.83 C 41.12 92.82 40.56 96.31 43.88 97.80 C 45.21 97.05 46.55 96.30 47.88 95.53 C 49.32 95.87 50.78 96.16 52.24 96.40 C 55.63 94.07 58.26 89.80 63.00 90.59 C 62.39 92.74 60.42 93.42 58.53 94.00 C 58.41 94.31 58.18 94.91 58.07 95.22 C 59.13 95.77 60.19 96.33 61.26 96.89 C 61.36 97.39 61.57 98.40 61.67 98.90 C 59.59 98.41 57.53 96.99 55.33 97.56 C 51.40 98.80 46.93 97.70 43.59 100.64 C 44.07 102.74 44.50 104.85 44.88 106.98 C 46.92 105.61 49.08 104.34 51.58 104.06 C 49.39 106.84 46.54 108.99 44.25 111.67 C 45.29 111.61 47.37 111.48 48.41 111.42 C 48.43 113.30 48.52 115.22 49.45 116.91 C 50.90 115.84 52.45 114.85 53.71 113.54 C 53.90 111.99 52.96 110.56 52.62 109.11 C 53.71 107.67 55.14 106.58 56.80 105.86 C 56.23 107.35 55.61 108.82 54.99 110.29 C 56.06 110.40 58.21 110.60 59.28 110.71 C 57.33 113.78 54.45 116.02 51.84 118.49 C 54.62 118.72 57.40 118.81 60.19 118.73 C 62.86 114.46 60.80 109.69 60.79 105.13 C 61.28 104.73 62.27 103.92 62.77 103.52 C 63.41 108.59 64.56 113.77 63.28 118.85 C 64.40 118.81 65.52 118.78 66.65 118.75 C 69.32 116.09 72.06 113.51 74.70 110.83 C 72.83 111.08 70.96 111.33 69.09 111.60 C 69.99 110.42 70.88 109.25 71.79 108.09 C 70.01 106.12 68.25 104.14 66.73 101.97 C 68.82 102.53 70.72 103.54 72.57 104.63 C 72.62 103.34 72.67 102.05 72.73 100.77 C 73.30 100.62 74.42 100.33 74.99 100.18 C 75.12 103.54 72.86 107.56 75.75 110.25 C 78.15 106.26 81.06 102.63 83.92 98.98 C 87.12 94.90 88.23 89.74 89.43 84.83 C 88.64 83.37 87.84 81.93 87.02 80.50 C 88.17 80.29 89.33 80.10 90.49 79.92 C 92.30 85.49 90.76 91.46 88.27 96.55 C 85.98 101.06 81.99 104.40 79.62 108.87 C 77.32 113.04 73.14 115.57 69.87 118.89 C 66.55 122.37 61.34 121.03 57.07 121.26 C 51.40 121.71 47.01 117.53 43.72 113.47 C 41.99 110.62 42.85 107.08 42.07 103.95 C 41.65 99.43 37.26 95.67 39.15 90.94 C 40.88 86.04 40.92 79.88 45.42 76.50 C 49.28 73.40 53.63 71.01 57.76 68.31 C 63.56 67.36 69.55 67.99 74.74 70.87 C 70.16 65.97 66.51 60.01 60.62 56.50 C 55.93 53.42 50.42 51.84 44.87 51.32 C 40.35 58.80 33.32 64.21 28.19 71.19 C 25.94 73.95 26.59 77.71 26.33 81.01 C 26.82 89.84 19.83 97.14 20.46 105.99 C 20.58 114.33 20.54 122.67 19.77 130.98 C 19.29 134.17 20.70 137.12 22.01 139.93 C 23.77 143.69 23.30 147.98 24.46 151.91 C 27.41 160.96 30.92 170.02 31.58 179.60 C 34.06 182.10 37.03 184.27 38.60 187.51 C 39.87 189.76 40.68 192.49 42.99 193.94 C 49.47 198.14 57.20 200.32 63.13 205.39 C 59.94 206.68 57.11 204.12 54.42 202.77 C 49.31 199.53 42.87 198.05 38.91 193.23 C 36.83 189.35 34.90 185.29 31.26 182.57 C 31.63 190.98 33.82 199.36 38.23 206.57 C 37.57 206.57 36.25 206.58 35.59 206.59 C 30.90 198.95 29.21 189.95 29.13 181.10 C 25.62 178.07 24.97 173.24 22.50 169.51 C 21.00 166.74 18.33 164.33 18.39 160.96 C 18.38 156.88 16.61 153.10 16.34 149.06 C 16.13 144.30 14.39 139.74 14.65 134.95 C 14.81 117.40 14.53 99.84 14.68 82.30 C 15.18 82.26 16.18 82.17 16.68 82.13 C 16.81 100.05 16.61 117.97 16.62 135.89 C 16.57 138.13 16.88 140.37 17.64 142.48 C 18.77 145.76 18.11 149.33 19.17 152.63 C 20.13 155.77 20.29 159.05 20.81 162.27 C 22.03 165.17 24.27 167.50 25.55 170.37 C 26.73 172.71 27.34 175.47 29.45 177.20 C 27.55 168.96 25.32 160.76 22.31 152.86 C 21.28 149.67 21.71 146.23 20.71 143.04 C 19.91 139.96 17.71 137.31 17.65 134.05 C 17.51 130.41 17.78 126.77 18.17 123.16 C 18.89 115.45 18.00 107.68 18.73 99.99 C 20.24 94.84 21.89 89.70 24.45 84.96 C 23.90 83.49 23.19 82.09 22.60 80.64 C 22.32 83.30 21.93 85.97 20.97 88.49 C 20.04 86.80 19.45 84.92 19.66 82.98 C 19.64 78.80 23.34 75.93 24.35 72.06 C 24.84 67.92 24.40 63.74 24.41 59.58 C 24.94 59.57 25.98 59.55 26.50 59.54 C 26.53 62.38 26.56 65.22 26.71 68.06 C 32.23 62.74 35.85 55.91 40.21 49.70 C 35.60 50.16 30.98 50.60 26.34 50.41 C 26.67 49.62 27.34 48.06 27.68 47.28 C 32.84 47.40 37.95 48.59 43.12 48.11 C 40.95 47.52 38.38 47.22 37.70 44.64 C 39.99 44.87 42.27 45.18 44.55 45.51 C 46.59 43.59 48.74 41.79 50.76 39.84 C 53.41 37.37 54.64 33.78 57.36 31.37 C 60.37 28.64 62.72 25.22 65.98 22.77 C 71.65 19.29 78.69 19.57 84.51 16.45 C 88.15 14.50 92.24 13.68 96.32 13.36 C 96.48 13.25 96.80 13.03 96.95 12.92 C 105.35 11.78 113.52 9.21 121.99 8.54 M 120.60 11.23 C 120.54 14.68 120.56 18.13 120.62 21.58 C 121.75 21.97 122.87 22.36 124.00 22.74 C 125.84 18.52 129.37 15.61 132.90 12.84 C 128.95 11.46 124.75 11.14 120.60 11.23 M 108.92 12.87 C 104.30 14.00 99.66 15.07 94.95 15.72 C 91.22 16.32 87.21 16.86 84.25 19.44 C 90.49 19.90 96.98 18.44 103.02 20.57 C 106.69 21.70 110.54 22.11 114.36 22.38 C 115.98 18.71 117.44 14.97 118.71 11.17 C 115.42 11.54 112.18 12.27 108.92 12.87 M 127.19 22.06 C 130.75 20.39 134.08 17.89 135.93 14.34 C 132.34 16.02 129.00 18.44 127.19 22.06 M 116.65 24.31 C 115.64 27.08 114.54 29.85 114.11 32.79 C 115.62 32.01 117.08 31.15 118.53 30.26 C 118.54 28.28 118.54 26.30 118.54 24.32 C 118.07 24.32 117.12 24.32 116.65 24.31 M 119.78 26.88 C 120.43 26.79 121.74 26.60 122.40 26.51 C 122.41 25.85 122.43 24.54 122.43 23.89 C 120.68 23.99 119.98 25.27 119.78 26.88 M 108.33 39.66 C 108.83 39.57 109.83 39.39 110.33 39.31 C 111.43 36.85 111.72 34.16 111.40 31.50 C 109.88 34.01 109.09 36.85 108.33 39.66 M 112.44 48.18 C 114.39 43.20 116.65 38.30 117.83 33.06 C 112.89 36.38 112.47 42.78 112.44 48.18 M 108.36 46.03 C 110.11 45.35 110.73 43.66 111.10 41.96 C 108.70 42.05 108.35 44.04 108.36 46.03 M 162.45 46.06 C 162.56 46.70 162.80 47.99 162.92 48.63 C 167.24 52.02 168.02 57.97 172.34 61.28 C 172.35 54.86 167.92 49.04 162.45 46.06 M 102.13 57.32 C 101.95 57.76 101.60 58.64 101.43 59.09 C 104.93 56.98 105.34 52.43 105.52 48.75 C 103.74 51.31 102.80 54.30 102.13 57.32 M 62.91 54.48 C 66.04 56.14 69.36 58.68 73.09 57.33 C 70.16 55.16 66.39 54.97 62.91 54.48 M 102.60 62.97 C 103.37 64.17 104.13 65.37 104.87 66.59 C 105.20 66.60 105.88 66.61 106.22 66.62 C 106.52 63.27 106.73 59.90 106.57 56.54 C 105.17 58.64 103.94 60.84 102.60 62.97 M 180.42 77.04 C 180.51 77.59 180.68 78.70 180.77 79.25 C 183.67 84.95 183.82 91.59 186.99 97.16 C 189.43 101.70 189.29 107.10 191.56 111.70 C 192.61 103.72 190.77 95.50 186.12 88.91 C 186.06 84.18 182.23 81.13 180.42 77.04 Z" />
<path fill="#060606" opacity="1.00" d=" M 132.05 41.76 C 137.48 40.76 144.19 40.22 148.53 44.39 C 151.23 46.98 153.77 49.81 155.67 53.05 C 156.98 56.13 161.10 56.58 162.16 59.85 C 164.02 64.45 168.84 67.70 168.78 73.00 C 169.13 75.08 171.06 76.44 172.28 78.05 C 172.26 81.69 172.64 85.37 172.09 88.98 C 169.53 95.18 163.72 99.99 157.13 101.31 C 152.47 100.71 147.77 100.79 143.09 100.59 C 133.80 98.83 123.70 94.57 119.46 85.52 C 117.98 82.48 115.38 80.19 113.77 77.26 C 112.88 70.29 116.00 63.50 120.04 58.00 C 123.49 54.13 127.69 50.98 131.15 47.11 C 130.97 45.19 129.16 42.38 132.05 41.76 M 131.94 45.79 C 134.73 45.22 137.47 44.32 140.35 44.31 C 139.56 46.91 136.48 46.71 134.53 47.90 C 133.53 50.70 137.98 50.90 139.52 52.05 C 137.47 53.45 134.99 53.65 132.60 53.93 C 132.52 52.83 132.37 50.64 132.29 49.54 C 129.86 51.67 127.57 53.95 125.17 56.12 C 120.12 60.31 117.31 66.62 115.89 72.89 C 114.83 77.75 120.15 80.34 121.67 84.46 C 123.95 89.86 129.25 92.71 133.82 95.87 C 135.56 93.42 137.27 90.96 138.93 88.45 C 139.25 88.39 139.89 88.27 140.21 88.21 C 140.81 89.54 141.43 90.86 142.05 92.19 C 139.72 92.99 137.50 94.10 136.01 96.13 C 141.21 98.45 146.93 98.96 152.55 98.61 C 152.66 96.96 152.76 95.32 152.88 93.67 C 150.49 93.58 147.88 93.53 148.33 90.28 C 149.44 90.68 150.55 91.08 151.66 91.49 C 151.30 90.01 150.66 88.58 150.64 87.05 C 151.93 85.14 153.15 83.20 154.18 81.14 C 156.91 83.11 154.37 85.89 153.49 88.09 C 153.71 90.10 154.67 91.95 155.24 93.88 C 155.24 95.59 155.24 97.30 155.27 99.02 C 159.13 98.99 162.36 96.86 165.44 94.79 C 163.91 92.41 163.30 89.69 163.01 86.91 C 161.82 85.15 160.55 83.41 162.41 81.58 C 160.11 80.47 157.77 79.40 155.76 77.79 C 158.97 76.65 161.79 78.65 164.62 79.83 C 165.44 83.80 165.43 87.88 165.78 91.91 C 171.18 90.59 170.35 84.17 170.19 79.93 C 169.47 76.59 165.88 75.08 162.71 75.48 C 164.10 74.28 165.51 73.09 166.93 71.92 C 165.89 69.92 164.69 67.08 162.00 67.17 C 159.15 66.97 159.21 70.26 158.19 72.07 C 157.63 73.71 155.75 73.91 154.40 74.58 C 155.18 72.84 156.10 71.16 156.74 69.36 C 154.85 67.90 152.09 67.06 151.92 64.28 C 153.97 65.05 155.98 65.95 158.01 66.79 C 159.25 65.95 160.49 65.11 161.73 64.26 C 160.36 59.50 155.76 57.41 152.70 53.96 C 151.72 55.70 150.81 57.48 149.91 59.26 C 147.39 56.68 150.00 53.95 151.71 51.81 C 150.42 50.26 149.48 47.99 147.55 47.21 C 145.93 48.72 144.71 51.08 142.13 50.85 C 143.16 48.83 144.40 46.93 145.62 45.03 C 143.84 44.29 142.09 43.27 140.10 43.30 C 137.22 43.44 133.21 42.35 131.94 45.79 Z" />
<path fill="#060606" opacity="1.00" d=" M 124.61 69.42 C 127.20 64.32 132.18 59.73 138.16 59.62 C 141.64 60.81 144.07 63.77 146.33 66.52 C 149.40 71.12 147.96 76.92 147.69 82.06 C 145.56 83.54 143.57 85.27 141.17 86.31 C 136.82 87.14 132.36 86.80 127.96 86.64 C 126.48 85.38 125.02 84.11 123.53 82.86 C 123.65 78.37 123.81 73.85 124.61 69.42 M 126.30 73.94 C 126.21 76.17 125.78 78.37 125.76 80.59 C 126.79 82.09 128.18 83.29 129.43 84.61 C 132.95 84.69 136.52 84.96 140.01 84.31 C 142.14 83.54 143.85 81.98 145.69 80.70 C 145.68 76.97 146.19 73.16 145.36 69.50 C 143.59 66.06 140.58 63.43 137.23 61.59 C 131.88 63.33 126.11 67.79 126.30 73.94 Z" />
<path fill="#060606" opacity="1.00" d=" M 130.71 72.47 C 131.49 70.31 132.77 68.39 133.95 66.44 C 137.00 65.90 139.27 67.91 141.31 69.85 C 141.24 73.11 142.07 76.90 139.70 79.59 C 138.12 81.89 135.44 82.83 132.75 82.94 C 131.02 79.77 129.74 76.10 130.71 72.47 Z" />
<path fill="#060606" opacity="1.00" d=" M 68.36 93.21 C 68.03 90.50 69.16 87.71 71.81 86.65 C 73.55 85.94 74.49 87.88 75.26 88.99 C 75.38 90.97 74.65 92.88 74.31 94.81 C 72.26 94.51 70.27 93.97 68.36 93.21 Z" />
<path fill="#060606" opacity="1.00" d=" M 169.94 118.69 C 170.46 118.63 171.52 118.50 172.04 118.44 C 171.04 122.15 168.63 125.25 167.39 128.84 C 166.65 135.62 168.03 142.52 166.58 149.25 C 166.13 148.97 165.23 148.43 164.78 148.15 C 164.83 142.07 164.76 135.98 164.80 129.90 C 164.80 125.57 167.80 122.19 169.94 118.69 Z" />
<path fill="#060606" opacity="1.00" d=" M 122.05 131.17 C 128.34 128.86 133.93 124.46 140.80 123.99 C 140.39 124.62 139.58 125.87 139.18 126.50 C 140.76 126.55 142.33 126.60 143.91 126.71 C 146.82 128.25 150.13 128.40 153.34 128.53 C 152.74 131.17 149.88 130.17 148.02 130.44 C 145.01 130.68 142.20 129.48 139.37 128.63 C 140.65 129.54 141.95 130.48 143.55 130.73 C 144.72 131.70 145.84 132.74 146.91 133.84 C 144.16 133.86 141.56 132.99 139.12 131.82 C 138.58 131.73 137.50 131.54 136.96 131.44 C 138.39 132.20 139.80 132.99 141.23 133.76 C 144.67 135.66 148.55 137.05 151.20 140.12 C 151.27 140.48 151.42 141.19 151.50 141.55 C 146.66 140.25 142.92 136.67 138.25 134.98 C 136.11 136.65 133.72 138.05 130.97 138.37 C 128.05 138.64 127.51 142.52 124.92 143.48 C 120.89 144.23 116.65 143.98 112.88 142.32 C 112.81 144.03 112.72 145.75 112.62 147.47 C 108.94 150.01 104.47 149.28 100.66 147.45 C 99.77 151.33 99.90 155.51 98.28 159.19 L 96.40 160.18 C 96.39 157.77 96.55 155.36 96.62 152.95 C 94.56 156.55 92.62 160.22 90.79 163.95 C 87.57 160.60 92.02 156.63 93.68 153.58 C 93.43 153.56 92.95 153.51 92.70 153.49 L 92.66 154.44 C 91.10 155.24 89.53 156.03 87.96 156.79 C 86.79 158.31 85.46 159.81 83.40 159.88 C 85.01 155.47 88.10 151.90 91.20 148.46 C 88.84 148.76 86.49 149.19 84.12 149.45 C 84.53 146.38 87.83 147.07 89.86 145.99 C 91.84 144.61 93.51 142.71 95.85 141.89 C 99.33 140.62 103.09 140.25 106.45 138.65 C 111.70 136.25 116.62 133.16 122.05 131.17 M 130.08 136.58 C 132.32 136.10 134.41 135.12 135.87 133.30 C 133.47 133.30 129.91 133.24 130.08 136.58 M 115.23 139.33 C 115.86 143.24 121.38 141.17 124.19 141.50 C 125.46 139.53 126.69 137.53 127.85 135.49 C 123.69 136.92 119.44 138.07 115.23 139.33 M 103.70 146.63 C 105.95 146.81 108.21 146.78 110.46 146.56 C 110.58 145.13 110.68 143.71 110.76 142.29 C 108.30 143.50 105.02 143.91 103.70 146.63 Z" />
<path fill="#060606" opacity="1.00" d=" M 58.44 147.32 C 62.22 148.09 64.70 151.21 67.42 153.67 C 70.08 156.33 73.34 158.54 75.04 162.01 C 76.73 165.19 79.33 168.17 79.48 171.91 C 79.72 174.52 79.78 177.14 79.88 179.75 C 79.33 179.69 78.24 179.58 77.70 179.52 C 77.42 175.50 77.79 171.15 75.51 167.60 C 73.41 164.14 71.73 160.25 68.46 157.69 C 65.08 154.85 61.97 151.71 58.49 148.99 C 58.48 148.57 58.46 147.74 58.44 147.32 Z" />
</g>
<g id="#fefefeff">
<path fill="#fefefe" opacity="1.00" d=" M 120.60 11.23 C 124.75 11.14 128.95 11.46 132.90 12.84 C 129.37 15.61 125.84 18.52 124.00 22.74 C 122.87 22.36 121.75 21.97 120.62 21.58 C 120.56 18.13 120.54 14.68 120.60 11.23 Z" />
<path fill="#fefefe" opacity="1.00" d=" M 108.92 12.87 C 112.18 12.27 115.42 11.54 118.71 11.17 C 117.44 14.97 115.98 18.71 114.36 22.38 C 110.54 22.11 106.69 21.70 103.02 20.57 C 96.98 18.44 90.49 19.90 84.25 19.44 C 87.21 16.86 91.22 16.32 94.95 15.72 C 99.66 15.07 104.30 14.00 108.92 12.87 Z" />
<path fill="#fefefe" opacity="1.00" d=" M 127.19 22.06 C 129.00 18.44 132.34 16.02 135.93 14.34 C 134.08 17.89 130.75 20.39 127.19 22.06 Z" />
<path fill="#fefefe" opacity="1.00" d=" M 137.78 16.62 C 144.64 20.81 150.90 25.91 156.11 32.05 C 155.65 32.51 154.72 33.42 154.25 33.87 C 157.06 35.87 159.39 38.61 160.18 42.04 C 162.09 49.53 165.12 56.87 170.09 62.87 C 177.65 72.08 179.83 84.12 183.47 95.13 C 188.31 104.71 189.17 115.54 191.72 125.80 C 193.50 136.76 191.18 147.96 193.08 158.91 C 193.65 162.73 193.39 166.61 193.30 170.45 C 190.89 172.74 189.65 175.82 188.63 178.92 C 184.91 187.07 183.16 195.92 179.44 204.08 C 179.92 206.12 181.94 206.27 182.80 204.38 C 182.60 207.60 179.11 206.43 177.06 206.62 C 130.78 206.51 84.50 206.64 38.23 206.57 C 33.82 199.36 31.63 190.98 31.26 182.57 C 34.90 185.29 36.83 189.35 38.91 193.23 C 42.87 198.05 49.31 199.53 54.42 202.77 C 57.11 204.12 59.94 206.68 63.13 205.39 C 57.20 200.32 49.47 198.14 42.99 193.94 C 40.68 192.49 39.87 189.76 38.60 187.51 C 37.03 184.27 34.06 182.10 31.58 179.60 C 30.92 170.02 27.41 160.96 24.46 151.91 C 23.30 147.98 23.77 143.69 22.01 139.93 C 20.70 137.12 19.29 134.17 19.77 130.98 C 20.54 122.67 20.58 114.33 20.46 105.99 C 19.83 97.14 26.82 89.84 26.33 81.01 C 26.59 77.71 25.94 73.95 28.19 71.19 C 33.32 64.21 40.35 58.80 44.87 51.32 C 50.42 51.84 55.93 53.42 60.62 56.50 C 66.51 60.01 70.16 65.97 74.74 70.87 C 69.55 67.99 63.56 67.36 57.76 68.31 C 53.63 71.01 49.28 73.40 45.42 76.50 C 40.92 79.88 40.88 86.04 39.15 90.94 C 37.26 95.67 41.65 99.43 42.07 103.95 C 42.85 107.08 41.99 110.62 43.72 113.47 C 47.01 117.53 51.40 121.71 57.07 121.26 C 61.34 121.03 66.55 122.37 69.87 118.89 C 73.14 115.57 77.32 113.04 79.62 108.87 C 81.99 104.40 85.98 101.06 88.27 96.55 C 90.76 91.46 92.30 85.49 90.49 79.92 C 89.33 80.10 88.17 80.29 87.02 80.50 C 87.84 81.93 88.64 83.37 89.43 84.83 C 88.23 89.74 87.12 94.90 83.92 98.98 C 81.06 102.63 78.15 106.26 75.75 110.25 C 72.86 107.56 75.12 103.54 74.99 100.18 C 74.42 100.33 73.30 100.62 72.73 100.77 C 72.67 102.05 72.62 103.34 72.57 104.63 C 70.72 103.54 68.82 102.53 66.73 101.97 C 68.25 104.14 70.01 106.12 71.79 108.09 C 70.88 109.25 69.99 110.42 69.09 111.60 C 70.96 111.33 72.83 111.08 74.70 110.83 C 72.06 113.51 69.32 116.09 66.65 118.75 C 65.52 118.78 64.40 118.81 63.28 118.85 C 64.56 113.77 63.41 108.59 62.77 103.52 C 62.27 103.92 61.28 104.73 60.79 105.13 C 60.80 109.69 62.86 114.46 60.19 118.73 C 57.40 118.81 54.62 118.72 51.84 118.49 C 54.45 116.02 57.33 113.78 59.28 110.71 C 58.21 110.60 56.06 110.40 54.99 110.29 C 55.61 108.82 56.23 107.35 56.80 105.86 C 55.14 106.58 53.71 107.67 52.62 109.11 C 52.96 110.56 53.90 111.99 53.71 113.54 C 52.45 114.85 50.90 115.84 49.45 116.91 C 48.52 115.22 48.43 113.30 48.41 111.42 C 47.37 111.48 45.29 111.61 44.25 111.67 C 46.54 108.99 49.39 106.84 51.58 104.06 C 49.08 104.34 46.92 105.61 44.88 106.98 C 44.50 104.85 44.07 102.74 43.59 100.64 C 46.93 97.70 51.40 98.80 55.33 97.56 C 57.53 96.99 59.59 98.41 61.67 98.90 C 61.57 98.40 61.36 97.39 61.26 96.89 C 60.19 96.33 59.13 95.77 58.07 95.22 C 58.18 94.91 58.41 94.31 58.53 94.00 C 60.42 93.42 62.39 92.74 63.00 90.59 C 58.26 89.80 55.63 94.07 52.24 96.40 C 50.78 96.16 49.32 95.87 47.88 95.53 C 46.55 96.30 45.21 97.05 43.88 97.80 C 40.56 96.31 41.12 92.82 41.38 89.83 C 44.26 90.01 47.28 90.03 49.53 87.86 C 47.35 87.69 45.18 87.58 43.01 87.45 C 43.03 83.59 44.74 80.06 47.95 77.86 C 48.88 79.96 49.85 82.05 50.86 84.12 C 54.21 84.96 57.85 86.32 61.11 84.42 C 62.24 85.40 63.40 86.33 64.58 87.25 C 64.35 85.19 64.15 81.30 61.02 82.31 C 58.02 82.12 53.48 85.06 51.94 81.17 C 51.11 79.48 49.22 76.84 51.35 75.38 C 55.17 72.10 60.16 69.87 65.28 70.18 C 65.47 72.47 65.53 74.79 65.97 77.05 C 66.24 79.35 68.79 79.82 70.46 80.80 C 70.37 80.39 70.21 79.57 70.13 79.15 C 67.91 76.70 67.67 73.37 67.45 70.24 C 71.10 71.91 75.03 73.21 78.20 75.74 C 80.63 78.85 81.27 82.91 82.85 86.45 C 84.53 86.37 86.21 86.27 87.89 86.16 C 85.76 84.34 83.68 82.43 82.07 80.12 C 83.55 80.12 85.01 80.23 86.48 80.44 C 86.63 79.74 86.77 79.05 86.88 78.35 C 80.20 73.34 74.23 67.30 69.16 60.64 C 71.82 59.85 74.47 59.00 77.07 57.99 C 75.08 55.94 72.93 53.75 69.95 53.36 C 62.63 51.94 55.36 50.09 48.65 46.78 C 52.10 41.29 57.45 37.41 61.07 32.07 C 63.72 28.14 67.96 25.62 72.08 23.49 C 80.56 21.56 89.40 21.21 98.08 21.76 C 103.40 23.03 108.68 24.72 114.24 24.49 C 113.51 26.33 112.76 28.17 112.02 30.01 C 110.22 29.63 108.42 29.22 106.63 28.76 C 106.53 32.57 107.00 36.53 105.58 40.16 C 103.16 47.27 98.77 54.19 99.56 61.98 C 100.64 64.84 102.60 67.27 103.89 70.03 C 103.20 70.45 101.83 71.29 101.14 71.72 C 101.21 72.20 101.36 73.17 101.43 73.66 C 104.17 73.45 106.98 73.11 109.44 71.79 C 109.75 67.31 109.70 62.74 111.14 58.42 C 112.43 53.77 116.46 50.73 118.99 46.80 C 122.40 42.63 119.31 36.85 121.24 32.19 C 122.29 29.75 123.67 27.19 126.05 25.82 C 129.59 25.39 133.09 26.67 136.63 26.85 C 136.55 26.31 136.38 25.24 136.30 24.71 C 134.16 24.32 132.01 23.96 129.87 23.59 C 132.61 21.39 135.23 19.05 137.78 16.62 M 132.05 41.76 C 129.16 42.38 130.97 45.19 131.15 47.11 C 127.69 50.98 123.49 54.13 120.04 58.00 C 116.00 63.50 112.88 70.29 113.77 77.26 C 115.38 80.19 117.98 82.48 119.46 85.52 C 123.70 94.57 133.80 98.83 143.09 100.59 C 147.77 100.79 152.47 100.71 157.13 101.31 C 163.72 99.99 169.53 95.18 172.09 88.98 C 172.64 85.37 172.26 81.69 172.28 78.05 C 171.06 76.44 169.13 75.08 168.78 73.00 C 168.84 67.70 164.02 64.45 162.16 59.85 C 161.10 56.58 156.98 56.13 155.67 53.05 C 153.77 49.81 151.23 46.98 148.53 44.39 C 144.19 40.22 137.48 40.76 132.05 41.76 M 68.36 93.21 C 70.27 93.97 72.26 94.51 74.31 94.81 C 74.65 92.88 75.38 90.97 75.26 88.99 C 74.49 87.88 73.55 85.94 71.81 86.65 C 69.16 87.71 68.03 90.50 68.36 93.21 M 169.94 118.69 C 167.80 122.19 164.80 125.57 164.80 129.90 C 164.76 135.98 164.83 142.07 164.78 148.15 C 165.23 148.43 166.13 148.97 166.58 149.25 C 168.03 142.52 166.65 135.62 167.39 128.84 C 168.63 125.25 171.04 122.15 172.04 118.44 C 171.52 118.50 170.46 118.63 169.94 118.69 M 122.05 131.17 C 116.62 133.16 111.70 136.25 106.45 138.65 C 103.09 140.25 99.33 140.62 95.85 141.89 C 93.51 142.71 91.84 144.61 89.86 145.99 C 87.83 147.07 84.53 146.38 84.12 149.45 C 86.49 149.19 88.84 148.76 91.20 148.46 C 88.10 151.90 85.01 155.47 83.40 159.88 C 85.46 159.81 86.79 158.31 87.96 156.79 C 89.53 156.03 91.10 155.24 92.66 154.44 L 92.70 153.49 C 92.95 153.51 93.43 153.56 93.68 153.58 C 92.02 156.63 87.57 160.60 90.79 163.95 C 92.62 160.22 94.56 156.55 96.62 152.95 C 96.55 155.36 96.39 157.77 96.40 160.18 L 98.28 159.19 C 99.90 155.51 99.77 151.33 100.66 147.45 C 104.47 149.28 108.94 150.01 112.62 147.47 C 112.72 145.75 112.81 144.03 112.88 142.32 C 116.65 143.98 120.89 144.23 124.92 143.48 C 127.51 142.52 128.05 138.64 130.97 138.37 C 133.72 138.05 136.11 136.65 138.25 134.98 C 142.92 136.67 146.66 140.25 151.50 141.55 C 151.42 141.19 151.27 140.48 151.20 140.12 C 148.55 137.05 144.67 135.66 141.23 133.76 C 139.80 132.99 138.39 132.20 136.96 131.44 C 137.50 131.54 138.58 131.73 139.12 131.82 C 141.56 132.99 144.16 133.86 146.91 133.84 C 145.84 132.74 144.72 131.70 143.55 130.73 C 141.95 130.48 140.65 129.54 139.37 128.63 C 142.20 129.48 145.01 130.68 148.02 130.44 C 149.88 130.17 152.74 131.17 153.34 128.53 C 150.13 128.40 146.82 128.25 143.91 126.71 C 142.33 126.60 140.76 126.55 139.18 126.50 C 139.58 125.87 140.39 124.62 140.80 123.99 C 133.93 124.46 128.34 128.86 122.05 131.17 M 58.44 147.32 C 58.46 147.74 58.48 148.57 58.49 148.99 C 61.97 151.71 65.08 154.85 68.46 157.69 C 71.73 160.25 73.41 164.14 75.51 167.60 C 77.79 171.15 77.42 175.50 77.70 179.52 C 78.24 179.58 79.33 179.69 79.88 179.75 C 79.78 177.14 79.72 174.52 79.48 171.91 C 79.33 168.17 76.73 165.19 75.04 162.01 C 73.34 158.54 70.08 156.33 67.42 153.67 C 64.70 151.21 62.22 148.09 58.44 147.32 Z" />
<path fill="#fefefe" opacity="1.00" d=" M 116.65 24.31 C 117.12 24.32 118.07 24.32 118.54 24.32 C 118.54 26.30 118.54 28.28 118.53 30.26 C 117.08 31.15 115.62 32.01 114.11 32.79 C 114.54 29.85 115.64 27.08 116.65 24.31 Z" />
<path fill="#fefefe" opacity="1.00" d=" M 119.78 26.88 C 119.98 25.27 120.68 23.99 122.43 23.89 C 122.43 24.54 122.41 25.85 122.40 26.51 C 121.74 26.60 120.43 26.79 119.78 26.88 Z" />
<path fill="#fefefe" opacity="1.00" d=" M 108.33 39.66 C 109.09 36.85 109.88 34.01 111.40 31.50 C 111.72 34.16 111.43 36.85 110.33 39.31 C 109.83 39.39 108.83 39.57 108.33 39.66 Z" />
<path fill="#fefefe" opacity="1.00" d=" M 112.44 48.18 C 112.47 42.78 112.89 36.38 117.83 33.06 C 116.65 38.30 114.39 43.20 112.44 48.18 Z" />
<path fill="#fefefe" opacity="1.00" d=" M 108.36 46.03 C 108.35 44.04 108.70 42.05 111.10 41.96 C 110.73 43.66 110.11 45.35 108.36 46.03 Z" />
<path fill="#fefefe" opacity="1.00" d=" M 131.94 45.79 C 133.21 42.35 137.22 43.44 140.10 43.30 C 142.09 43.27 143.84 44.29 145.62 45.03 C 144.40 46.93 143.16 48.83 142.13 50.85 C 144.71 51.08 145.93 48.72 147.55 47.21 C 149.48 47.99 150.42 50.26 151.71 51.81 C 150.00 53.95 147.39 56.68 149.91 59.26 C 150.81 57.48 151.72 55.70 152.70 53.96 C 155.76 57.41 160.36 59.50 161.73 64.26 C 160.49 65.11 159.25 65.95 158.01 66.79 C 155.98 65.95 153.97 65.05 151.92 64.28 C 152.09 67.06 154.85 67.90 156.74 69.36 C 156.10 71.16 155.18 72.84 154.40 74.58 C 155.75 73.91 157.63 73.71 158.19 72.07 C 159.21 70.26 159.15 66.97 162.00 67.17 C 164.69 67.08 165.89 69.92 166.93 71.92 C 165.51 73.09 164.10 74.28 162.71 75.48 C 165.88 75.08 169.47 76.59 170.19 79.93 C 170.35 84.17 171.18 90.59 165.78 91.91 C 165.43 87.88 165.44 83.80 164.62 79.83 C 161.79 78.65 158.97 76.65 155.76 77.79 C 157.77 79.40 160.11 80.47 162.41 81.58 C 160.55 83.41 161.82 85.15 163.01 86.91 C 163.30 89.69 163.91 92.41 165.44 94.79 C 162.36 96.86 159.13 98.99 155.27 99.02 C 155.24 97.30 155.24 95.59 155.24 93.88 C 154.67 91.95 153.71 90.10 153.49 88.09 C 154.37 85.89 156.91 83.11 154.18 81.14 C 153.15 83.20 151.93 85.14 150.64 87.05 C 150.66 88.58 151.30 90.01 151.66 91.49 C 150.55 91.08 149.44 90.68 148.33 90.28 C 147.88 93.53 150.49 93.58 152.88 93.67 C 152.76 95.32 152.66 96.96 152.55 98.61 C 146.93 98.96 141.21 98.45 136.01 96.13 C 137.50 94.10 139.72 92.99 142.05 92.19 C 141.43 90.86 140.81 89.54 140.21 88.21 C 139.89 88.27 139.25 88.39 138.93 88.45 C 137.27 90.96 135.56 93.42 133.82 95.87 C 129.25 92.71 123.95 89.86 121.67 84.46 C 120.15 80.34 114.83 77.75 115.89 72.89 C 117.31 66.62 120.12 60.31 125.17 56.12 C 127.57 53.95 129.86 51.67 132.29 49.54 C 132.37 50.64 132.52 52.83 132.60 53.93 C 134.99 53.65 137.47 53.45 139.52 52.05 C 137.98 50.90 133.53 50.70 134.53 47.90 C 136.48 46.71 139.56 46.91 140.35 44.31 C 137.47 44.32 134.73 45.22 131.94 45.79 M 124.61 69.42 C 123.81 73.85 123.65 78.37 123.53 82.86 C 125.02 84.11 126.48 85.38 127.96 86.64 C 132.36 86.80 136.82 87.14 141.17 86.31 C 143.57 85.27 145.56 83.54 147.69 82.06 C 147.96 76.92 149.40 71.12 146.33 66.52 C 144.07 63.77 141.64 60.81 138.16 59.62 C 132.18 59.73 127.20 64.32 124.61 69.42 Z" />
<path fill="#fefefe" opacity="1.00" d=" M 162.45 46.06 C 167.92 49.04 172.35 54.86 172.34 61.28 C 168.02 57.97 167.24 52.02 162.92 48.63 C 162.80 47.99 162.56 46.70 162.45 46.06 Z" />
<path fill="#fefefe" opacity="1.00" d=" M 102.13 57.32 C 102.80 54.30 103.74 51.31 105.52 48.75 C 105.34 52.43 104.93 56.98 101.43 59.09 C 101.60 58.64 101.95 57.76 102.13 57.32 Z" />
<path fill="#fefefe" opacity="1.00" d=" M 62.91 54.48 C 66.39 54.97 70.16 55.16 73.09 57.33 C 69.36 58.68 66.04 56.14 62.91 54.48 Z" />
<path fill="#fefefe" opacity="1.00" d=" M 102.60 62.97 C 103.94 60.84 105.17 58.64 106.57 56.54 C 106.73 59.90 106.52 63.27 106.22 66.62 C 105.88 66.61 105.20 66.60 104.87 66.59 C 104.13 65.37 103.37 64.17 102.60 62.97 Z" />
<path fill="#fefefe" opacity="1.00" d=" M 126.30 73.94 C 126.11 67.79 131.88 63.33 137.23 61.59 C 140.58 63.43 143.59 66.06 145.36 69.50 C 146.19 73.16 145.68 76.97 145.69 80.70 C 143.85 81.98 142.14 83.54 140.01 84.31 C 136.52 84.96 132.95 84.69 129.43 84.61 C 128.18 83.29 126.79 82.09 125.76 80.59 C 125.78 78.37 126.21 76.17 126.30 73.94 M 130.71 72.47 C 129.74 76.10 131.02 79.77 132.75 82.94 C 135.44 82.83 138.12 81.89 139.70 79.59 C 142.07 76.90 141.24 73.11 141.31 69.85 C 139.27 67.91 137.00 65.90 133.95 66.44 C 132.77 68.39 131.49 70.31 130.71 72.47 Z" />
<path fill="#fefefe" opacity="1.00" d=" M 180.42 77.04 C 182.23 81.13 186.06 84.18 186.12 88.91 C 190.77 95.50 192.61 103.72 191.56 111.70 C 189.29 107.10 189.43 101.70 186.99 97.16 C 183.82 91.59 183.67 84.95 180.77 79.25 C 180.68 78.70 180.51 77.59 180.42 77.04 Z" />
<path fill="#fefefe" opacity="1.00" d=" M 130.08 136.58 C 129.91 133.24 133.47 133.30 135.87 133.30 C 134.41 135.12 132.32 136.10 130.08 136.58 Z" />
<path fill="#fefefe" opacity="1.00" d=" M 115.23 139.33 C 119.44 138.07 123.69 136.92 127.85 135.49 C 126.69 137.53 125.46 139.53 124.19 141.50 C 121.38 141.17 115.86 143.24 115.23 139.33 Z" />
<path fill="#fefefe" opacity="1.00" d=" M 103.70 146.63 C 105.02 143.91 108.30 143.50 110.76 142.29 C 110.68 143.71 110.58 145.13 110.46 146.56 C 108.21 146.78 105.95 146.81 103.70 146.63 Z" />
</g>
</svg>
