<?xml version="1.0" encoding="UTF-8" ?>
<!DOCTYPE svg PUBLIC "-//W3C//DTD SVG 1.1//EN" "http://www.w3.org/Graphics/SVG/1.1/DTD/svg11.dtd">
<svg width="210pt" height="220pt" viewBox="0 0 210 220" version="1.1" xmlns="http://www.w3.org/2000/svg">
<g id="#1e1e1e9d">
<path fill="#1e1e1e" opacity="0.62" d=" M 33.30 31.92 C 48.96 28.62 65.01 27.92 80.95 27.20 C 85.42 26.81 89.92 27.00 94.41 27.09 C 74.32 28.27 54.18 29.16 34.28 32.29 L 33.30 31.92 Z" />
</g>
<g id="#000000ff">
<path fill="#000000" opacity="1.00" d=" M 94.41 27.09 C 100.77 27.02 107.15 27.00 113.51 27.10 C 120.47 27.58 127.43 28.22 134.41 28.19 L 134.51 28.19 C 149.22 29.36 163.98 30.37 178.52 33.05 C 182.69 33.60 186.87 34.72 190.53 36.84 C 192.27 38.71 194.00 40.58 195.82 42.36 L 195.82 42.36 C 198.28 46.92 199.92 51.82 201.88 56.59 L 202.24 57.42 L 202.03 58.15 C 201.64 59.23 201.87 60.20 202.72 61.05 C 203.96 63.04 203.54 65.58 203.94 67.82 C 204.34 72.82 204.78 77.86 206.37 82.66 C 206.39 86.49 206.42 90.33 206.35 94.16 C 205.51 97.03 204.68 99.91 204.43 102.91 C 203.58 111.93 202.01 120.97 198.74 129.46 C 196.82 134.22 194.15 139.10 189.61 141.80 C 185.99 143.63 181.95 144.40 178.00 145.16 C 165.45 147.37 152.70 147.87 140.02 148.78 C 112.69 149.48 85.29 149.71 58.00 147.83 C 54.64 158.66 60.24 170.72 69.78 176.35 C 69.95 176.45 70.30 176.66 70.48 176.76 L 70.68 177.29 C 71.10 178.47 71.95 179.11 73.24 179.20 C 73.78 179.45 74.85 179.95 75.39 180.20 C 75.48 180.29 75.67 180.46 75.76 180.54 L 76.41 181.26 C 77.58 182.93 79.37 184.04 81.42 184.22 L 82.27 184.43 C 82.35 184.46 82.51 184.53 82.60 184.56 L 82.90 184.75 C 85.50 186.96 88.76 188.05 91.86 189.34 C 92.03 190.03 92.37 191.39 92.54 192.07 C 88.32 191.76 84.07 192.15 79.86 191.88 C 73.59 189.96 67.14 188.66 61.11 185.98 L 60.65 185.72 C 58.76 184.34 56.78 183.10 54.69 182.07 L 54.38 181.81 C 51.98 179.12 49.33 176.66 46.81 174.08 L 46.73 173.59 C 46.59 173.05 46.31 171.97 46.17 171.43 L 45.45 171.52 L 45.04 171.55 C 44.01 169.18 42.99 166.81 42.01 164.42 L 42.02 163.94 C 41.85 163.44 41.52 162.44 41.35 161.94 L 41.26 161.58 C 40.41 156.51 40.21 151.39 39.86 146.27 C 32.55 145.06 24.85 144.55 18.27 140.81 C 17.32 140.17 16.38 139.32 16.20 138.13 C 16.03 136.89 15.39 136.02 14.27 135.52 L 13.65 135.22 C 13.55 134.75 13.34 133.83 13.23 133.36 C 13.08 132.02 12.42 130.83 11.58 129.79 L 11.28 129.32 C 9.95 123.56 7.99 117.96 7.11 112.09 C 5.67 104.88 5.93 97.40 3.61 90.37 C 3.61 87.11 3.58 83.84 3.63 80.58 C 5.88 73.96 5.72 66.89 7.35 60.13 C 9.01 52.79 11.40 45.20 16.74 39.67 C 21.19 35.13 27.79 34.28 33.57 32.39 L 34.28 32.29 C 54.18 29.16 74.32 28.27 94.41 27.09 M 38.11 34.72 C 30.44 36.41 21.16 37.30 16.46 44.50 C 9.35 55.58 8.58 69.19 7.79 81.97 C 7.82 97.63 9.01 113.62 14.46 128.43 C 16.31 132.83 18.38 137.93 23.12 139.89 C 29.27 141.89 35.74 142.56 42.11 143.51 C 42.39 143.86 42.94 144.56 43.22 144.91 C 42.94 153.28 43.44 162.08 47.75 169.49 C 53.41 179.31 64.04 185.23 74.91 187.39 C 77.53 187.84 80.13 188.76 82.83 188.32 C 73.21 183.58 63.83 177.37 57.84 168.28 C 53.83 161.32 53.01 152.28 55.85 144.80 C 64.59 145.32 73.37 145.84 82.14 145.81 L 82.83 146.21 C 106.14 146.65 129.48 146.57 152.75 145.03 C 164.21 144.01 175.90 143.46 186.94 139.88 C 193.47 136.84 195.80 129.29 197.92 122.97 C 202.52 106.05 203.09 88.21 201.20 70.84 C 199.88 61.39 198.12 51.55 192.64 43.52 C 189.16 38.34 182.63 37.22 176.98 35.99 C 157.54 32.21 137.69 31.63 117.97 30.73 C 91.31 30.40 64.51 30.61 38.11 34.72 Z" />
</g>
<g id="#1e1e1e9a">
<path fill="#1e1e1e" opacity="0.60" d=" M 113.51 27.10 C 117.05 26.99 120.62 26.75 124.14 27.31 C 127.54 27.78 131.15 26.85 134.41 28.19 C 127.43 28.22 120.47 27.58 113.51 27.10 Z" />
</g>
<g id="#1313137e">
<path fill="#131313" opacity="0.49" d=" M 134.51 28.19 C 135.99 27.87 137.48 27.75 139.00 27.83 C 152.23 28.64 165.44 29.98 178.50 32.24 L 178.52 33.05 C 163.98 30.37 149.22 29.36 134.51 28.19 Z" />
</g>
<g id="#fefefeff">
<path fill="#fefefe" opacity="1.00" d=" M 38.11 34.72 C 64.51 30.61 91.31 30.40 117.97 30.73 C 137.69 31.63 157.54 32.21 176.98 35.99 C 182.63 37.22 189.16 38.34 192.64 43.52 C 198.12 51.55 199.88 61.39 201.20 70.84 C 203.09 88.21 202.52 106.05 197.92 122.97 C 195.80 129.29 193.47 136.84 186.94 139.88 C 175.90 143.46 164.21 144.01 152.75 145.03 C 129.48 146.57 106.14 146.65 82.83 146.21 L 82.14 145.81 C 73.37 145.84 64.59 145.32 55.85 144.80 C 53.01 152.28 53.83 161.32 57.84 168.28 C 63.83 177.37 73.21 183.58 82.83 188.32 C 80.13 188.76 77.53 187.84 74.91 187.39 C 64.04 185.23 53.41 179.31 47.75 169.49 C 43.44 162.08 42.94 153.28 43.22 144.91 C 42.94 144.56 42.39 143.86 42.11 143.51 C 35.74 142.56 29.27 141.89 23.12 139.89 C 18.38 137.93 16.31 132.83 14.46 128.43 C 9.01 113.62 7.82 97.63 7.79 81.97 C 8.58 69.19 9.35 55.58 16.46 44.50 C 21.16 37.30 30.44 36.41 38.11 34.72 Z" />
<path fill="#fefefe" opacity="1.00" d=" M 45.45 171.52 L 46.17 171.43 C 46.31 171.97 46.59 173.05 46.73 173.59 C 45.23 173.75 44.80 173.06 45.45 171.52 Z" />
</g>
<g id="#2222228b">
<path fill="#222222" opacity="0.55" d=" M 27.96 33.13 C 29.79 32.75 31.70 31.56 33.57 32.39 C 27.79 34.28 21.19 35.13 16.74 39.67 C 11.40 45.20 9.01 52.79 7.35 60.13 C 5.72 66.89 5.88 73.96 3.63 80.58 C 2.98 78.38 3.11 76.17 4.25 74.16 C 5.92 62.67 7.15 50.20 14.63 40.77 C 17.85 36.50 22.95 34.45 27.96 33.13 Z" />
</g>
<g id="#14141499">
<path fill="#141414" opacity="0.60" d=" M 190.53 36.84 C 192.72 38.14 194.94 39.88 195.82 42.36 C 194.00 40.58 192.27 38.71 190.53 36.84 Z" />
</g>
<g id="#14141496">
<path fill="#141414" opacity="0.59" d=" M 195.82 42.36 C 199.22 46.24 201.12 51.51 201.88 56.59 C 199.92 51.82 198.28 46.92 195.82 42.36 Z" />
</g>
<g id="#1b1b1b99">
<path fill="#1b1b1b" opacity="0.60" d=" M 202.03 58.15 C 203.49 58.70 203.72 59.67 202.72 61.05 C 201.87 60.20 201.64 59.23 202.03 58.15 Z" />
</g>
<g id="#2020207a">
<path fill="#202020" opacity="0.48" d=" M 203.94 67.82 L 204.70 67.32 C 205.35 71.25 204.59 75.75 206.97 79.18 C 206.82 80.35 206.62 81.51 206.37 82.66 C 204.78 77.86 204.34 72.82 203.94 67.82 Z" />
</g>
<g id="#1c1c1c84">
<path fill="#1c1c1c" opacity="0.52" d=" M 3.61 90.37 C 5.93 97.40 5.67 104.88 7.11 112.09 C 7.99 117.96 9.95 123.56 11.28 129.32 C 10.20 128.38 9.94 126.91 9.49 125.62 C 6.66 116.27 5.30 106.55 4.31 96.86 C 3.19 94.82 2.86 92.61 3.61 90.37 Z" />
</g>
<g id="#1e1e1e8d">
<path fill="#1e1e1e" opacity="0.55" d=" M 204.43 102.91 C 204.68 99.91 205.51 97.03 206.35 94.16 C 206.91 96.13 206.99 98.20 205.83 99.98 C 203.88 112.98 202.87 127.10 194.89 138.10 C 191.36 143.36 184.73 144.70 178.93 145.84 C 161.11 148.94 142.99 149.39 124.96 150.07 C 102.81 150.36 80.63 150.24 58.53 148.70 C 57.03 155.91 58.42 163.88 63.31 169.56 C 65.11 172.16 68.05 173.72 69.78 176.35 C 60.24 170.72 54.64 158.66 58.00 147.83 C 85.29 149.71 112.69 149.48 140.02 148.78 C 152.70 147.87 165.45 147.37 178.00 145.16 C 181.95 144.40 185.99 143.63 189.61 141.80 C 194.15 139.10 196.82 134.22 198.74 129.46 C 202.01 120.97 203.58 111.93 204.43 102.91 Z" />
</g>
<g id="#20202070">
<path fill="#202020" opacity="0.44" d=" M 11.58 129.79 C 12.42 130.83 13.08 132.02 13.23 133.36 C 11.62 133.84 10.52 130.86 11.58 129.79 Z" />
</g>
<g id="#202020ab">
<path fill="#202020" opacity="0.67" d=" M 14.27 135.52 C 15.39 136.02 16.03 136.89 16.20 138.13 C 14.64 138.05 14.00 137.18 14.27 135.52 Z" />
</g>
<g id="#1c1c1c82">
<path fill="#1c1c1c" opacity="0.51" d=" M 18.27 140.81 C 24.85 144.55 32.55 145.06 39.86 146.27 C 40.21 151.39 40.41 156.51 41.26 161.58 C 39.04 157.19 39.43 151.80 39.15 146.95 C 32.27 145.77 24.83 145.41 18.73 141.70 L 18.27 140.81 Z" />
</g>
<g id="#26262681">
<path fill="#262626" opacity="0.51" d=" M 41.35 161.94 C 41.52 162.44 41.85 163.44 42.02 163.94 L 41.14 163.74 L 40.80 162.71 L 41.35 161.94 Z" />
</g>
<g id="#19191953">
<path fill="#191919" opacity="0.33" d=" M 42.01 164.42 C 42.99 166.81 44.01 169.18 45.04 171.55 C 42.88 170.01 41.96 166.98 42.01 164.42 Z" />
</g>
<g id="#1e1e1e85">
<path fill="#1e1e1e" opacity="0.52" d=" M 46.81 174.08 C 49.33 176.66 51.98 179.12 54.38 181.81 C 51.18 180.30 48.31 177.32 46.81 174.08 Z" />
</g>
<g id="#272727b3">
<path fill="#272727" opacity="0.70" d=" M 70.68 177.29 C 72.30 177.07 73.16 177.71 73.24 179.20 C 71.95 179.11 71.10 178.47 70.68 177.29 Z" />
</g>
<g id="#2d2d2da2">
<path fill="#2d2d2d" opacity="0.64" d=" M 75.39 180.20 C 75.48 180.29 75.67 180.46 75.76 180.54 C 75.67 180.46 75.48 180.29 75.39 180.20 Z" />
</g>
<g id="#242424a5">
<path fill="#242424" opacity="0.65" d=" M 76.41 181.26 C 78.09 181.16 81.16 182.52 81.42 184.22 C 79.37 184.04 77.58 182.93 76.41 181.26 Z" />
</g>
<g id="#1b1b1b8d">
<path fill="#1b1b1b" opacity="0.55" d=" M 54.69 182.07 C 56.78 183.10 58.76 184.34 60.65 185.72 C 58.31 185.39 56.07 183.98 54.69 182.07 Z" />
</g>
<g id="#2f2f2f84">
<path fill="#2f2f2f" opacity="0.52" d=" M 82.27 184.43 C 82.35 184.46 82.51 184.53 82.60 184.56 C 82.51 184.53 82.35 184.46 82.27 184.43 Z" />
</g>
<g id="#1f1f1f92">
<path fill="#1f1f1f" opacity="0.57" d=" M 82.90 184.75 C 86.17 185.72 89.23 187.32 92.30 188.79 C 93.85 189.36 93.20 191.08 92.54 192.07 C 92.37 191.39 92.03 190.03 91.86 189.34 C 88.76 188.05 85.50 186.96 82.90 184.75 Z" />
</g>
<g id="#1a1a1a84">
<path fill="#1a1a1a" opacity="0.52" d=" M 61.11 185.98 C 67.14 188.66 73.59 189.96 79.86 191.88 C 74.39 191.55 69.05 189.99 64.00 187.91 C 62.98 187.40 61.64 187.11 61.11 185.98 Z" />
</g>
</svg>
