<?xml version="1.0" encoding="UTF-8" ?>
<!DOCTYPE svg PUBLIC "-//W3C//DTD SVG 1.1//EN" "http://www.w3.org/Graphics/SVG/1.1/DTD/svg11.dtd">
<svg width="210pt" height="220pt" viewBox="0 0 210 220" version="1.1" xmlns="http://www.w3.org/2000/svg">
<g id="#010101fe">
<path fill="#010101" opacity="1.00" d=" M 93.45 43.46 C 93.81 43.13 94.54 42.48 94.90 42.15 C 105.93 42.26 116.95 42.18 127.98 42.20 C 131.23 42.26 134.52 41.89 137.74 42.54 C 142.50 44.12 147.57 43.15 152.48 43.42 C 155.32 46.66 159.94 48.01 161.97 51.96 C 168.57 57.21 169.62 66.43 175.20 72.52 C 180.37 75.61 183.98 80.53 188.44 84.48 C 189.00 86.77 189.94 88.95 191.29 90.89 C 191.35 93.05 191.39 95.21 191.43 97.38 C 191.15 97.74 190.58 98.46 190.30 98.82 C 189.98 103.86 186.79 107.94 183.56 111.55 C 180.89 114.34 178.27 117.35 174.70 119.02 C 174.57 120.07 174.44 121.13 174.32 122.18 C 173.58 123.77 172.89 125.37 172.20 126.99 C 169.13 130.29 167.19 134.70 163.27 137.14 C 160.54 139.05 158.47 141.69 156.18 144.07 C 152.79 144.57 150.44 147.41 147.25 148.50 C 141.37 151.91 134.90 154.03 128.73 156.84 C 124.22 158.58 119.64 160.34 115.81 163.37 C 115.19 163.32 113.94 163.22 113.32 163.17 C 111.86 164.13 110.41 165.10 108.98 166.09 C 107.62 166.84 106.27 167.61 104.94 168.40 C 102.22 168.49 99.44 168.17 96.77 168.78 C 93.46 169.91 90.20 171.19 86.77 171.92 C 86.75 173.57 86.73 175.23 86.71 176.89 C 85.59 176.86 84.46 176.82 83.34 176.79 C 83.04 175.76 82.72 174.74 82.36 173.74 C 78.43 173.31 74.58 174.35 70.68 174.54 C 70.27 174.81 69.45 175.36 69.04 175.63 C 62.09 175.41 55.10 175.91 48.17 175.41 C 43.28 174.14 37.82 173.88 33.91 170.29 C 29.56 167.64 26.64 163.39 24.57 158.83 C 23.91 155.04 25.06 151.21 25.58 147.46 C 25.82 147.13 26.31 146.48 26.55 146.15 C 26.50 134.65 26.65 123.16 26.49 111.66 C 24.38 107.86 21.18 104.68 19.57 100.61 C 19.01 94.39 19.73 88.11 19.19 81.88 C 21.58 77.72 25.62 75.06 29.45 72.37 C 32.13 68.19 30.09 62.44 33.84 58.85 C 37.75 53.95 44.19 52.46 48.86 48.48 C 51.66 48.48 54.39 47.84 57.12 47.29 C 63.19 45.05 69.66 44.57 75.99 43.49 C 81.80 43.23 87.63 43.45 93.45 43.46 M 95.17 46.25 C 91.42 46.09 87.47 46.94 83.89 45.56 C 81.45 45.31 79.25 46.32 77.10 47.30 C 74.09 47.49 71.09 47.97 68.09 47.42 C 66.52 47.09 65.29 48.41 63.92 48.94 C 59.47 47.11 56.02 51.54 51.62 50.88 C 47.04 53.88 42.26 56.58 37.79 59.75 C 33.53 62.86 34.45 68.68 33.45 73.24 C 31.40 75.23 29.95 78.33 26.66 78.24 C 25.47 80.43 23.89 82.36 22.49 84.41 C 21.98 86.56 22.22 88.82 21.97 91.02 C 22.46 90.15 22.93 89.27 23.39 88.39 C 23.03 92.94 26.83 96.54 26.47 101.17 C 25.66 100.25 24.86 99.31 24.07 98.37 C 25.18 102.37 26.73 106.38 29.27 109.72 C 29.39 111.14 29.64 112.56 30.35 113.82 C 30.87 121.87 30.19 129.93 30.51 137.99 C 30.79 141.07 29.27 143.89 29.23 146.95 C 27.46 150.04 28.39 153.76 28.28 157.15 C 29.77 161.62 32.94 165.49 36.69 168.32 C 40.82 169.67 44.83 171.40 49.02 172.63 C 54.34 172.85 59.68 172.63 65.01 172.73 C 66.66 172.84 68.30 172.55 69.79 171.83 C 73.32 171.48 76.48 169.44 80.09 169.70 C 80.46 169.41 81.21 168.82 81.58 168.52 C 85.13 168.94 88.58 168.33 91.83 166.88 C 94.89 166.28 97.82 163.79 100.99 164.98 C 102.00 164.69 103.01 164.41 104.01 164.11 C 109.00 162.92 112.83 159.28 117.70 157.80 C 121.66 156.40 124.88 152.94 129.29 153.09 C 134.23 149.94 140.92 150.54 145.10 146.14 C 147.97 142.94 153.11 142.85 155.08 138.63 C 155.57 138.59 156.54 138.52 157.03 138.48 C 160.42 135.10 164.05 131.97 167.08 128.23 C 168.58 122.69 171.64 117.82 175.80 113.90 C 175.48 113.60 174.84 113.01 174.51 112.71 C 176.68 111.53 179.01 110.56 180.97 109.05 C 182.56 106.07 184.57 103.36 187.08 101.09 C 187.68 97.05 188.15 92.92 187.11 88.90 C 186.64 88.72 185.70 88.35 185.23 88.17 C 183.22 84.06 180.32 80.41 176.55 77.79 L 175.20 79.17 C 175.70 79.21 176.69 79.28 177.18 79.32 C 178.58 81.86 180.90 83.71 182.32 86.24 C 178.23 84.32 175.87 80.09 172.24 77.46 C 168.76 77.01 164.55 78.73 161.58 76.39 C 165.72 76.00 169.87 76.29 174.02 76.14 C 172.77 74.65 171.31 73.36 169.71 72.26 C 169.24 71.30 168.77 70.34 168.31 69.37 C 167.25 66.88 166.24 64.35 164.82 62.03 C 164.66 61.59 164.35 60.71 164.19 60.27 C 162.34 58.45 160.99 56.23 159.88 53.90 C 157.88 52.65 156.24 50.93 154.50 49.36 C 150.33 46.07 144.99 46.08 139.95 46.26 C 132.86 43.77 125.25 45.16 117.88 44.86 C 114.97 45.27 112.02 45.25 109.11 44.85 C 107.37 44.84 105.62 44.83 103.88 44.80 C 100.95 45.08 97.85 44.83 95.17 46.25 M 21.92 93.40 C 22.22 95.34 21.78 97.81 23.77 99.01 C 23.80 96.64 24.22 94.10 23.06 91.90 C 22.58 90.05 20.89 92.71 21.92 93.40 Z" />
<path fill="#010101" opacity="1.00" d=" M 105.81 46.47 C 107.77 47.66 109.36 50.08 111.94 49.71 C 118.22 49.38 124.44 50.07 130.70 50.33 C 130.69 50.69 130.69 51.40 130.69 51.76 C 128.14 51.74 125.58 51.70 123.06 51.26 C 118.11 50.32 113.03 51.83 108.10 50.60 C 106.48 49.91 106.35 47.90 105.81 46.47 Z" />
<path fill="#010101" opacity="1.00" d=" M 71.40 51.56 C 73.99 50.33 76.86 50.21 79.67 50.21 C 79.68 50.57 79.69 51.29 79.69 51.65 C 73.72 51.22 68.66 55.06 62.87 55.86 C 62.44 55.71 61.58 55.39 61.15 55.23 C 64.29 53.31 68.08 53.08 71.40 51.56 Z" />
<path fill="#010101" opacity="1.00" d=" M 98.13 50.35 C 102.64 53.18 108.07 52.66 113.15 52.66 C 113.46 53.13 114.09 54.06 114.40 54.53 C 111.24 54.16 108.05 54.21 104.87 54.17 C 102.63 53.57 100.35 53.18 98.15 52.45 C 98.14 51.93 98.13 50.88 98.13 50.35 Z" />
<path fill="#010101" opacity="1.00" d=" M 84.00 54.34 C 85.29 52.84 86.66 51.18 88.87 51.46 C 87.67 52.92 86.47 54.43 84.98 55.61 C 81.97 56.71 78.50 55.96 75.87 58.11 C 76.92 58.17 79.02 58.30 80.07 58.36 L 81.37 59.27 C 80.27 59.32 78.06 59.43 76.96 59.48 C 76.97 59.72 77.00 60.18 77.02 60.41 C 78.84 60.39 80.68 60.54 81.40 62.51 C 79.16 62.17 76.78 61.98 74.89 60.60 C 69.94 60.19 65.10 61.45 60.17 61.44 C 55.57 61.14 56.70 68.93 51.69 67.95 C 51.10 68.68 50.51 69.42 49.92 70.15 C 49.80 68.62 48.37 66.46 50.84 65.99 C 50.83 65.49 50.81 64.47 50.80 63.96 C 51.96 63.51 53.12 63.05 54.27 62.58 C 53.38 63.90 52.49 65.22 51.67 66.59 C 54.91 66.49 55.00 62.68 56.41 60.52 C 58.85 59.87 61.38 59.70 63.90 59.77 C 64.32 59.50 65.16 58.95 65.58 58.67 C 68.11 60.48 70.65 58.80 69.88 55.76 C 70.61 56.48 71.33 57.20 72.04 57.93 C 74.14 57.81 75.75 56.52 77.33 55.29 C 79.57 55.09 81.79 54.74 84.00 54.34 Z" />
<path fill="#010101" opacity="1.00" d=" M 101.58 60.66 C 104.53 58.34 108.13 56.39 112.01 56.94 C 117.89 57.88 123.86 57.43 129.78 57.57 C 132.54 59.65 135.82 61.60 136.90 65.10 C 137.28 64.69 138.04 63.87 138.42 63.45 C 139.48 65.34 141.49 65.58 143.40 65.86 C 143.66 67.02 143.92 68.18 144.23 69.32 C 143.80 69.44 143.36 69.57 142.93 69.69 C 141.74 68.67 140.52 67.69 139.29 66.72 C 135.32 67.08 133.39 63.19 130.95 60.80 C 130.01 60.43 129.07 60.06 128.14 59.69 C 126.81 59.55 125.50 59.26 124.24 58.84 C 119.10 58.74 113.96 58.72 108.82 58.81 C 105.74 58.95 104.26 61.95 102.62 64.10 C 102.60 65.63 102.63 67.16 102.51 68.68 C 99.23 67.30 101.54 63.19 101.58 60.66 Z" />
<path fill="#010101" opacity="1.00" d=" M 72.92 63.58 C 74.41 63.87 75.88 64.21 77.36 64.53 C 79.08 67.51 78.84 71.02 78.45 74.30 C 77.55 73.03 77.34 71.47 76.94 70.01 C 76.45 67.42 74.31 65.69 72.92 63.58 Z" />
<path fill="#010101" opacity="1.00" d=" M 113.99 69.04 C 114.44 68.70 115.35 68.01 115.81 67.67 C 118.99 67.72 122.18 67.72 125.36 67.65 C 125.76 67.97 126.56 68.59 126.96 68.90 C 130.32 68.30 133.27 69.79 136.02 71.50 C 140.53 72.43 143.26 77.15 142.87 81.55 C 139.05 81.84 135.12 81.72 131.93 79.32 C 130.05 79.27 128.17 79.26 126.28 79.23 C 125.53 79.79 124.77 80.34 124.01 80.90 L 125.49 82.24 C 124.68 82.24 123.07 82.24 122.26 82.24 C 122.86 81.44 124.07 79.84 124.67 79.03 C 122.43 79.16 120.19 79.35 117.96 79.62 C 114.49 80.84 111.57 83.69 107.70 83.52 C 107.31 84.04 106.53 85.08 106.14 85.60 C 104.35 84.39 102.41 83.43 100.42 82.59 C 99.56 81.46 98.93 80.17 98.19 78.97 C 98.83 77.86 99.46 76.75 100.07 75.63 C 100.51 75.45 101.40 75.11 101.85 74.94 C 105.39 72.19 109.19 68.74 113.99 69.04 M 103.75 78.04 C 103.97 78.80 104.42 80.33 104.64 81.09 C 108.93 79.55 113.01 77.14 117.69 77.05 C 117.82 75.44 117.96 73.82 118.19 72.22 C 115.54 72.98 112.78 73.19 110.10 73.79 C 107.90 75.08 105.86 76.62 103.75 78.04 M 132.69 74.61 C 132.67 75.01 132.63 75.82 132.61 76.22 C 135.15 77.07 137.39 78.87 140.19 78.81 C 138.42 76.32 135.80 74.62 132.69 74.61 M 124.80 77.05 C 126.39 77.62 128.23 77.00 129.73 76.38 C 129.15 75.10 125.38 75.76 124.80 77.05 Z" />
<path fill="#010101" opacity="1.00" d=" M 50.30 77.17 C 52.07 75.37 53.94 73.48 56.46 72.81 C 61.93 73.78 67.52 72.84 72.98 73.55 C 75.88 75.09 77.80 77.98 80.79 79.40 C 82.27 78.94 83.68 78.30 85.17 77.87 C 86.40 78.42 86.78 79.76 87.36 80.86 C 85.93 81.65 84.49 82.42 83.08 83.25 C 82.51 83.34 81.38 83.51 80.81 83.60 C 80.81 86.39 81.02 89.19 80.70 91.97 C 79.42 94.07 76.71 94.71 74.69 95.93 C 74.06 97.07 73.45 98.21 72.85 99.36 C 73.55 100.41 74.22 101.48 74.85 102.57 C 76.63 104.94 79.11 106.66 82.09 107.09 C 82.55 105.58 83.53 104.91 85.02 105.08 C 85.39 105.97 85.71 106.87 86.00 107.80 C 85.33 108.29 84.66 108.79 84.00 109.28 C 81.59 109.42 79.02 110.24 76.72 109.14 C 73.95 107.03 71.67 104.35 69.19 101.91 C 64.94 104.40 59.97 106.26 57.70 111.01 C 56.21 111.88 54.49 112.69 53.78 114.37 C 51.54 119.86 46.09 122.98 42.83 127.77 C 41.76 129.42 40.41 130.84 38.93 132.12 C 38.63 131.32 38.04 129.74 37.74 128.95 C 40.02 124.98 43.32 121.76 46.13 118.18 C 49.95 116.17 50.44 111.58 53.29 108.70 C 53.72 108.64 54.58 108.51 55.01 108.45 C 56.11 106.81 57.44 105.35 58.85 103.97 C 58.39 103.23 57.94 102.49 57.50 101.74 C 61.48 102.37 64.35 99.35 66.82 96.74 C 67.22 96.63 68.02 96.39 68.42 96.27 C 70.24 94.16 72.73 92.83 75.38 92.06 C 77.13 89.58 76.81 86.55 76.82 83.68 C 75.52 83.36 74.22 83.03 72.95 82.59 C 69.41 80.48 65.16 81.73 61.50 79.98 C 57.44 81.45 53.29 80.10 50.30 77.17 M 64.55 75.77 C 61.89 76.18 59.19 76.18 56.52 76.49 C 59.17 78.42 62.68 77.32 65.70 77.20 C 65.32 76.72 64.93 76.25 64.55 75.77 Z" />
<path fill="#010101" opacity="1.00" d=" M 144.08 76.61 C 144.74 76.47 146.06 76.17 146.73 76.03 C 147.78 76.55 148.84 77.07 149.91 77.59 C 150.66 77.16 151.43 76.73 152.19 76.31 C 152.33 76.71 152.62 77.52 152.76 77.92 C 151.13 78.41 149.52 78.98 147.86 79.35 C 147.23 80.18 146.82 81.20 146.01 81.88 L 145.58 81.83 C 145.37 81.32 144.95 80.32 144.74 79.81 C 145.70 79.29 146.67 78.77 147.60 78.19 C 146.42 77.68 145.24 77.16 144.08 76.61 Z" />
<path fill="#010101" opacity="1.00" d=" M 27.14 82.85 C 29.57 81.42 31.16 78.53 34.10 78.13 C 33.30 79.87 32.02 81.30 30.37 82.27 C 31.37 82.84 32.39 83.37 33.41 83.90 C 32.51 84.83 31.61 85.76 30.72 86.70 C 30.97 89.59 30.33 92.37 29.27 95.04 C 31.12 96.77 33.15 98.31 35.07 99.96 C 32.54 99.77 30.22 98.47 28.52 96.61 C 27.54 94.60 28.18 92.15 29.29 90.30 C 29.32 88.59 29.34 86.89 29.38 85.19 L 30.55 85.32 C 30.06 84.57 29.56 83.81 29.07 83.06 L 28.04 83.88 C 27.81 83.62 27.37 83.10 27.14 82.85 Z" />
<path fill="#010101" opacity="1.00" d=" M 45.45 83.95 C 47.77 85.67 49.83 87.74 51.16 90.33 C 55.75 90.37 60.11 92.22 64.14 94.29 C 61.83 95.28 59.63 93.80 57.46 93.18 C 54.95 92.13 52.23 91.89 49.60 91.33 C 49.46 88.03 45.02 87.33 45.45 83.95 Z" />
<path fill="#010101" opacity="1.00" d=" M 24.26 88.21 C 23.56 87.06 24.73 84.73 26.20 85.26 C 26.95 86.38 25.61 88.60 24.26 88.21 Z" />
<path fill="#010101" opacity="1.00" d=" M 110.17 88.20 C 112.72 89.30 115.02 91.40 117.97 91.16 C 122.01 91.01 125.99 92.01 130.03 91.67 C 132.19 91.11 134.31 90.02 136.61 90.59 C 134.97 93.11 130.72 92.57 128.01 93.30 C 124.00 92.68 119.95 92.47 115.90 92.49 C 113.46 92.20 110.44 91.00 110.17 88.20 Z" />
<path fill="#010101" opacity="1.00" d=" M 99.64 95.02 C 102.13 92.92 105.46 93.74 108.44 93.52 C 111.61 95.76 112.17 99.70 113.41 103.10 C 113.43 108.70 113.51 114.31 113.37 119.91 C 112.17 121.45 112.15 123.39 112.13 125.25 C 110.95 129.83 109.44 134.35 109.20 139.11 C 107.48 144.69 104.65 149.83 103.16 155.48 C 101.19 156.03 100.24 154.86 100.21 153.03 C 101.23 147.07 105.41 142.21 106.10 136.16 C 106.12 131.31 108.48 126.88 108.76 122.06 C 110.25 117.41 109.64 112.50 109.64 107.70 C 107.41 108.45 105.08 108.68 102.74 108.71 C 101.46 106.65 100.36 104.49 99.14 102.39 C 96.23 103.17 93.05 104.75 90.11 103.06 C 90.30 102.61 90.66 101.70 90.85 101.24 C 95.13 99.77 100.11 98.45 104.39 100.60 C 104.37 102.02 104.39 103.43 104.47 104.85 C 107.76 106.34 108.39 102.30 107.84 99.94 C 108.19 96.90 104.65 98.07 102.83 97.64 C 101.32 97.63 100.72 95.77 99.64 95.02 Z" />
<path fill="#010101" opacity="1.00" d=" M 175.49 107.27 C 179.55 106.39 180.25 102.23 181.47 98.94 C 183.04 102.97 180.52 106.60 177.12 108.57 C 176.72 108.25 175.90 107.59 175.49 107.27 Z" />
<path fill="#010101" opacity="1.00" d=" M 49.83 104.88 C 52.40 103.64 55.18 102.53 56.06 99.52 C 56.51 101.07 56.97 102.61 57.41 104.16 C 55.09 104.10 53.05 105.17 50.95 105.97 C 47.46 110.27 42.64 113.37 39.95 118.34 C 39.59 118.19 38.88 117.87 38.52 117.72 C 41.45 112.72 46.23 109.31 49.83 104.88 Z" />
<path fill="#010101" opacity="1.00" d=" M 26.15 102.15 C 26.41 100.62 28.95 100.94 29.43 102.14 C 29.15 103.60 26.48 103.58 26.15 102.15 Z" />
<path fill="#010101" opacity="1.00" d=" M 120.66 100.81 C 122.27 102.06 121.66 104.25 122.06 106.00 C 123.18 115.58 122.19 125.33 122.55 134.97 C 123.38 139.87 119.09 143.31 117.98 147.77 C 115.95 143.73 120.93 140.92 121.15 137.05 C 121.27 129.04 121.13 121.02 121.21 113.01 C 121.38 108.92 120.07 104.90 120.66 100.81 Z" />
<path fill="#010101" opacity="1.00" d=" M 30.50 102.77 C 32.29 102.18 33.81 103.37 35.39 104.01 C 35.39 104.51 35.40 105.50 35.40 106.00 C 33.76 104.93 32.13 103.86 30.50 102.77 Z" />
<path fill="#010101" opacity="1.00" d=" M 131.50 104.97 C 133.47 106.36 132.50 109.00 132.72 111.02 C 132.41 115.37 132.09 119.70 132.10 124.07 C 131.32 128.24 130.17 132.36 130.10 136.65 C 127.54 134.63 129.12 131.06 129.63 128.44 C 131.11 124.44 130.51 120.17 130.72 116.01 C 131.78 112.42 131.02 108.63 131.50 104.97 Z" />
<path fill="#010101" opacity="1.00" d=" M 170.63 108.68 C 171.79 108.27 172.95 107.88 174.13 107.51 C 174.28 107.90 174.58 108.68 174.73 109.07 C 173.34 109.52 171.97 110.01 170.60 110.51 C 170.61 110.05 170.62 109.14 170.63 108.68 Z" />
<path fill="#010101" opacity="1.00" d=" M 49.89 138.01 C 55.60 137.82 61.31 136.93 67.02 137.92 C 69.10 139.75 71.19 141.57 73.34 143.33 C 78.65 144.33 82.38 148.56 86.26 151.95 C 86.32 154.92 89.82 160.30 84.78 160.70 C 83.95 158.23 83.24 155.73 82.48 153.25 C 78.87 151.16 76.45 146.94 71.85 146.96 C 69.73 145.55 67.96 143.72 66.16 141.94 C 60.49 139.88 54.64 141.99 48.84 141.59 C 46.23 143.15 43.74 146.49 40.39 145.38 C 40.33 146.84 40.34 148.28 40.27 149.75 C 42.01 149.79 43.76 149.80 45.51 149.82 C 45.52 150.22 45.53 151.01 45.54 151.40 C 43.56 151.38 41.59 151.37 39.61 151.35 C 39.16 149.80 38.73 148.24 38.29 146.69 C 36.67 146.43 33.77 146.56 34.11 144.08 C 33.59 140.78 36.66 138.77 39.09 137.32 L 39.67 138.94 C 37.72 140.16 35.84 141.66 35.21 143.99 C 36.23 144.44 38.27 145.33 39.29 145.78 C 39.72 144.85 40.13 143.92 40.53 142.99 C 42.45 141.55 44.49 140.27 46.40 138.82 C 47.56 138.54 48.72 138.26 49.89 138.01 Z" />
<path fill="#010101" opacity="1.00" d=" M 55.61 146.93 C 56.98 143.75 61.32 145.89 64.01 145.28 C 66.74 147.64 69.32 150.19 71.48 153.09 C 71.72 155.01 70.85 155.82 68.86 155.53 C 66.53 153.51 64.95 150.78 62.64 148.71 C 60.34 148.28 56.29 150.25 55.61 146.93 Z" />
<path fill="#010101" opacity="1.00" d=" M 91.91 156.52 C 92.42 156.55 93.44 156.62 93.96 156.66 C 91.55 159.88 90.34 164.51 86.45 166.27 C 83.64 166.69 79.09 166.80 78.83 162.96 C 81.11 164.20 83.54 165.05 86.18 164.97 C 88.70 162.61 90.25 159.49 91.91 156.52 Z" />
</g>
<g id="#fefefeff">
<path fill="#fefefe" opacity="1.00" d=" M 95.17 46.25 C 97.85 44.83 100.95 45.08 103.88 44.80 C 105.62 44.83 107.37 44.84 109.11 44.85 C 112.02 45.25 114.97 45.27 117.88 44.86 C 125.25 45.16 132.86 43.77 139.95 46.26 C 144.99 46.08 150.33 46.07 154.50 49.36 C 156.24 50.93 157.88 52.65 159.88 53.90 C 160.99 56.23 162.34 58.45 164.19 60.27 C 164.35 60.71 164.66 61.59 164.82 62.03 C 166.24 64.35 167.25 66.88 168.31 69.37 C 168.77 70.34 169.24 71.30 169.71 72.26 C 171.31 73.36 172.77 74.65 174.02 76.14 C 169.87 76.29 165.72 76.00 161.58 76.39 C 164.55 78.73 168.76 77.01 172.24 77.46 C 175.87 80.09 178.23 84.32 182.32 86.24 C 180.90 83.71 178.58 81.86 177.18 79.32 C 176.69 79.28 175.70 79.21 175.20 79.17 L 176.55 77.79 C 180.32 80.41 183.22 84.06 185.23 88.17 C 185.70 88.35 186.64 88.72 187.11 88.90 C 188.15 92.92 187.68 97.05 187.08 101.09 C 184.57 103.36 182.56 106.07 180.97 109.05 C 179.01 110.56 176.68 111.53 174.51 112.71 C 174.84 113.01 175.48 113.60 175.80 113.90 C 171.64 117.82 168.58 122.69 167.08 128.23 C 164.05 131.97 160.42 135.10 157.03 138.48 C 156.54 138.52 155.57 138.59 155.08 138.63 C 153.11 142.85 147.97 142.94 145.10 146.14 C 140.92 150.54 134.23 149.94 129.29 153.09 C 124.88 152.94 121.66 156.40 117.70 157.80 C 112.83 159.28 109.00 162.92 104.01 164.11 C 103.01 164.41 102.00 164.69 100.99 164.98 C 97.82 163.79 94.89 166.28 91.83 166.88 C 88.58 168.33 85.13 168.94 81.58 168.52 C 81.21 168.82 80.46 169.41 80.09 169.70 C 76.48 169.44 73.32 171.48 69.79 171.83 C 68.30 172.55 66.66 172.84 65.01 172.73 C 59.68 172.63 54.34 172.85 49.02 172.63 C 44.83 171.40 40.82 169.67 36.69 168.32 C 32.94 165.49 29.77 161.62 28.28 157.15 C 28.39 153.76 27.46 150.04 29.23 146.95 C 29.27 143.89 30.79 141.07 30.51 137.99 C 30.19 129.93 30.87 121.87 30.35 113.82 C 29.64 112.56 29.39 111.14 29.27 109.72 C 26.73 106.38 25.18 102.37 24.07 98.37 C 24.86 99.31 25.66 100.25 26.47 101.17 C 26.83 96.54 23.03 92.94 23.39 88.39 C 22.93 89.27 22.46 90.15 21.97 91.02 C 22.22 88.82 21.98 86.56 22.49 84.41 C 23.89 82.36 25.47 80.43 26.66 78.24 C 29.95 78.33 31.40 75.23 33.45 73.24 C 34.45 68.68 33.53 62.86 37.79 59.75 C 42.26 56.58 47.04 53.88 51.62 50.88 C 56.02 51.54 59.47 47.11 63.92 48.94 C 65.29 48.41 66.52 47.09 68.09 47.42 C 71.09 47.97 74.09 47.49 77.10 47.30 C 79.25 46.32 81.45 45.31 83.89 45.56 C 87.47 46.94 91.42 46.09 95.17 46.25 M 105.81 46.47 C 106.35 47.90 106.48 49.91 108.10 50.60 C 113.03 51.83 118.11 50.32 123.06 51.26 C 125.58 51.70 128.14 51.74 130.69 51.76 C 130.69 51.40 130.69 50.69 130.70 50.33 C 124.44 50.07 118.22 49.38 111.94 49.71 C 109.36 50.08 107.77 47.66 105.81 46.47 M 71.40 51.56 C 68.08 53.08 64.29 53.31 61.15 55.23 C 61.58 55.39 62.44 55.71 62.87 55.86 C 68.66 55.06 73.72 51.22 79.69 51.65 C 79.69 51.29 79.68 50.57 79.67 50.21 C 76.86 50.21 73.99 50.33 71.40 51.56 M 98.13 50.35 C 98.13 50.88 98.14 51.93 98.15 52.45 C 100.35 53.18 102.63 53.57 104.87 54.17 C 108.05 54.21 111.24 54.16 114.40 54.53 C 114.09 54.06 113.46 53.13 113.15 52.66 C 108.07 52.66 102.64 53.18 98.13 50.35 M 84.00 54.34 C 81.79 54.74 79.57 55.09 77.33 55.29 C 75.75 56.52 74.14 57.81 72.04 57.93 C 71.33 57.20 70.61 56.48 69.88 55.76 C 70.65 58.80 68.11 60.48 65.58 58.67 C 65.16 58.95 64.32 59.50 63.90 59.77 C 61.38 59.70 58.85 59.87 56.41 60.52 C 55.00 62.68 54.91 66.49 51.67 66.59 C 52.49 65.22 53.38 63.90 54.27 62.58 C 53.12 63.05 51.96 63.51 50.80 63.96 C 50.81 64.47 50.83 65.49 50.84 65.99 C 48.37 66.46 49.80 68.62 49.92 70.15 C 50.51 69.42 51.10 68.68 51.69 67.95 C 56.70 68.93 55.57 61.14 60.17 61.44 C 65.10 61.45 69.94 60.19 74.89 60.60 C 76.78 61.98 79.16 62.17 81.40 62.51 C 80.68 60.54 78.84 60.39 77.02 60.41 C 77.00 60.18 76.97 59.72 76.96 59.48 C 78.06 59.43 80.27 59.32 81.37 59.27 L 80.07 58.36 C 79.02 58.30 76.92 58.17 75.87 58.11 C 78.50 55.96 81.97 56.71 84.98 55.61 C 86.47 54.43 87.67 52.92 88.87 51.46 C 86.66 51.18 85.29 52.84 84.00 54.34 M 101.58 60.66 C 101.54 63.19 99.23 67.30 102.51 68.68 C 102.63 67.16 102.60 65.63 102.62 64.10 C 104.26 61.95 105.74 58.95 108.82 58.81 C 113.96 58.72 119.10 58.74 124.24 58.84 C 125.50 59.26 126.81 59.55 128.14 59.69 C 129.07 60.06 130.01 60.43 130.95 60.80 C 133.39 63.19 135.32 67.08 139.29 66.72 C 140.52 67.69 141.74 68.67 142.93 69.69 C 143.36 69.57 143.80 69.44 144.23 69.32 C 143.92 68.18 143.66 67.02 143.40 65.86 C 141.49 65.58 139.48 65.34 138.42 63.45 C 138.04 63.87 137.28 64.69 136.90 65.10 C 135.82 61.60 132.54 59.65 129.78 57.57 C 123.86 57.43 117.89 57.88 112.01 56.94 C 108.13 56.39 104.53 58.34 101.58 60.66 M 72.92 63.58 C 74.31 65.69 76.45 67.42 76.94 70.01 C 77.34 71.47 77.55 73.03 78.45 74.30 C 78.84 71.02 79.08 67.51 77.36 64.53 C 75.88 64.21 74.41 63.87 72.92 63.58 M 113.99 69.04 C 109.19 68.74 105.39 72.19 101.85 74.94 C 101.40 75.11 100.51 75.45 100.07 75.63 C 99.46 76.75 98.83 77.86 98.19 78.97 C 98.93 80.17 99.56 81.46 100.42 82.59 C 102.41 83.43 104.35 84.39 106.14 85.60 C 106.53 85.08 107.31 84.04 107.70 83.52 C 111.57 83.69 114.49 80.84 117.96 79.62 C 120.19 79.35 122.43 79.16 124.67 79.03 C 124.07 79.84 122.86 81.44 122.26 82.24 C 123.07 82.24 124.68 82.24 125.49 82.24 L 124.01 80.90 C 124.77 80.34 125.53 79.79 126.28 79.23 C 128.17 79.26 130.05 79.27 131.93 79.32 C 135.12 81.72 139.05 81.84 142.87 81.55 C 143.26 77.15 140.53 72.43 136.02 71.50 C 133.27 69.79 130.32 68.30 126.96 68.90 C 126.56 68.59 125.76 67.97 125.36 67.65 C 122.18 67.72 118.99 67.72 115.81 67.67 C 115.35 68.01 114.44 68.70 113.99 69.04 M 50.30 77.17 C 53.29 80.10 57.44 81.45 61.50 79.98 C 65.16 81.73 69.41 80.48 72.95 82.59 C 74.22 83.03 75.52 83.36 76.82 83.68 C 76.81 86.55 77.13 89.58 75.38 92.06 C 72.73 92.83 70.24 94.16 68.42 96.27 C 68.02 96.39 67.22 96.63 66.82 96.74 C 64.35 99.35 61.48 102.37 57.50 101.74 C 57.94 102.49 58.39 103.23 58.85 103.97 C 57.44 105.35 56.11 106.81 55.01 108.45 C 54.58 108.51 53.72 108.64 53.29 108.70 C 50.44 111.58 49.95 116.17 46.13 118.18 C 43.32 121.76 40.02 124.98 37.74 128.95 C 38.04 129.74 38.63 131.32 38.93 132.12 C 40.41 130.84 41.76 129.42 42.83 127.77 C 46.09 122.98 51.54 119.86 53.78 114.37 C 54.49 112.69 56.21 111.88 57.70 111.01 C 59.97 106.26 64.94 104.40 69.19 101.91 C 71.67 104.35 73.95 107.03 76.72 109.14 C 79.02 110.24 81.59 109.42 84.00 109.28 C 84.66 108.79 85.33 108.29 86.00 107.80 C 85.71 106.87 85.39 105.97 85.02 105.08 C 83.53 104.91 82.55 105.58 82.09 107.09 C 79.11 106.66 76.63 104.94 74.85 102.57 C 74.22 101.48 73.55 100.41 72.85 99.36 C 73.45 98.21 74.06 97.07 74.69 95.93 C 76.71 94.71 79.42 94.07 80.70 91.97 C 81.02 89.19 80.81 86.39 80.81 83.60 C 81.38 83.51 82.51 83.34 83.08 83.25 C 84.49 82.42 85.93 81.65 87.36 80.86 C 86.78 79.76 86.40 78.42 85.17 77.87 C 83.68 78.30 82.27 78.94 80.79 79.40 C 77.80 77.98 75.88 75.09 72.98 73.55 C 67.52 72.84 61.93 73.78 56.46 72.81 C 53.94 73.48 52.07 75.37 50.30 77.17 M 144.08 76.61 C 145.24 77.16 146.42 77.68 147.60 78.19 C 146.67 78.77 145.70 79.29 144.74 79.81 C 144.95 80.32 145.37 81.32 145.58 81.83 L 146.01 81.88 C 146.82 81.20 147.23 80.18 147.86 79.35 C 149.52 78.98 151.13 78.41 152.76 77.92 C 152.62 77.52 152.33 76.71 152.19 76.31 C 151.43 76.73 150.66 77.16 149.91 77.59 C 148.84 77.07 147.78 76.55 146.73 76.03 C 146.06 76.17 144.74 76.47 144.08 76.61 M 27.14 82.85 C 27.37 83.10 27.81 83.62 28.04 83.88 L 29.07 83.06 C 29.56 83.81 30.06 84.57 30.55 85.32 L 29.38 85.19 C 29.34 86.89 29.32 88.59 29.29 90.30 C 28.18 92.15 27.54 94.60 28.52 96.61 C 30.22 98.47 32.54 99.77 35.07 99.96 C 33.15 98.31 31.12 96.77 29.27 95.04 C 30.33 92.37 30.97 89.59 30.72 86.70 C 31.61 85.76 32.51 84.83 33.41 83.90 C 32.39 83.37 31.37 82.84 30.37 82.27 C 32.02 81.30 33.30 79.87 34.10 78.13 C 31.16 78.53 29.57 81.42 27.14 82.85 M 45.45 83.95 C 45.02 87.33 49.46 88.03 49.60 91.33 C 52.23 91.89 54.95 92.13 57.46 93.18 C 59.63 93.80 61.83 95.28 64.14 94.29 C 60.11 92.22 55.75 90.37 51.16 90.33 C 49.83 87.74 47.77 85.67 45.45 83.95 M 24.26 88.21 C 25.61 88.60 26.95 86.38 26.20 85.26 C 24.73 84.73 23.56 87.06 24.26 88.21 M 110.17 88.20 C 110.44 91.00 113.46 92.20 115.90 92.49 C 119.95 92.47 124.00 92.68 128.01 93.30 C 130.72 92.57 134.97 93.11 136.61 90.59 C 134.31 90.02 132.19 91.11 130.03 91.67 C 125.99 92.01 122.01 91.01 117.97 91.16 C 115.02 91.40 112.72 89.30 110.17 88.20 M 99.64 95.02 C 100.72 95.77 101.32 97.63 102.83 97.64 C 104.65 98.07 108.19 96.90 107.84 99.94 C 108.39 102.30 107.76 106.34 104.47 104.85 C 104.39 103.43 104.37 102.02 104.39 100.60 C 100.11 98.45 95.13 99.77 90.85 101.24 C 90.66 101.70 90.30 102.61 90.11 103.06 C 93.05 104.75 96.23 103.17 99.14 102.39 C 100.36 104.49 101.46 106.65 102.74 108.71 C 105.08 108.68 107.41 108.45 109.64 107.70 C 109.64 112.50 110.25 117.41 108.76 122.06 C 108.48 126.88 106.12 131.31 106.10 136.16 C 105.41 142.21 101.23 147.07 100.21 153.03 C 100.24 154.86 101.19 156.03 103.16 155.48 C 104.65 149.83 107.48 144.69 109.20 139.11 C 109.44 134.35 110.95 129.83 112.13 125.25 C 112.15 123.39 112.17 121.45 113.37 119.91 C 113.51 114.31 113.43 108.70 113.41 103.10 C 112.17 99.70 111.61 95.76 108.44 93.52 C 105.46 93.74 102.13 92.92 99.64 95.02 M 175.49 107.27 C 175.90 107.59 176.72 108.25 177.12 108.57 C 180.52 106.60 183.04 102.97 181.47 98.94 C 180.25 102.23 179.55 106.39 175.49 107.27 M 49.83 104.88 C 46.23 109.31 41.45 112.72 38.52 117.72 C 38.88 117.87 39.59 118.19 39.95 118.34 C 42.64 113.37 47.46 110.27 50.95 105.97 C 53.05 105.17 55.09 104.10 57.41 104.16 C 56.97 102.61 56.51 101.07 56.06 99.52 C 55.18 102.53 52.40 103.64 49.83 104.88 M 26.15 102.15 C 26.48 103.58 29.15 103.60 29.43 102.14 C 28.95 100.94 26.41 100.62 26.15 102.15 M 120.66 100.81 C 120.07 104.90 121.38 108.92 121.21 113.01 C 121.13 121.02 121.27 129.04 121.15 137.05 C 120.93 140.92 115.95 143.73 117.98 147.77 C 119.09 143.31 123.38 139.87 122.55 134.97 C 122.19 125.33 123.18 115.58 122.06 106.00 C 121.66 104.25 122.27 102.06 120.66 100.81 M 30.50 102.77 C 32.13 103.86 33.76 104.93 35.40 106.00 C 35.40 105.50 35.39 104.51 35.39 104.01 C 33.81 103.37 32.29 102.18 30.50 102.77 M 131.50 104.97 C 131.02 108.63 131.78 112.42 130.72 116.01 C 130.51 120.17 131.11 124.44 129.63 128.44 C 129.12 131.06 127.54 134.63 130.10 136.65 C 130.17 132.36 131.32 128.24 132.10 124.07 C 132.09 119.70 132.41 115.37 132.72 111.02 C 132.50 109.00 133.47 106.36 131.50 104.97 M 170.63 108.68 C 170.62 109.14 170.61 110.05 170.60 110.51 C 171.97 110.01 173.34 109.52 174.73 109.07 C 174.58 108.68 174.28 107.90 174.13 107.51 C 172.95 107.88 171.79 108.27 170.63 108.68 M 49.89 138.01 C 48.72 138.26 47.56 138.54 46.40 138.82 C 44.49 140.27 42.45 141.55 40.53 142.99 C 40.13 143.92 39.72 144.85 39.29 145.78 C 38.27 145.33 36.23 144.44 35.21 143.99 C 35.84 141.66 37.72 140.16 39.67 138.94 L 39.09 137.32 C 36.66 138.77 33.59 140.78 34.11 144.08 C 33.77 146.56 36.67 146.43 38.29 146.69 C 38.73 148.24 39.16 149.80 39.61 151.35 C 41.59 151.37 43.56 151.38 45.54 151.40 C 45.53 151.01 45.52 150.22 45.51 149.82 C 43.76 149.80 42.01 149.79 40.27 149.75 C 40.34 148.28 40.33 146.84 40.39 145.38 C 43.74 146.49 46.23 143.15 48.84 141.59 C 54.64 141.99 60.49 139.88 66.16 141.94 C 67.96 143.72 69.73 145.55 71.85 146.96 C 76.45 146.94 78.87 151.16 82.48 153.25 C 83.24 155.73 83.95 158.23 84.78 160.70 C 89.82 160.30 86.32 154.92 86.26 151.95 C 82.38 148.56 78.65 144.33 73.34 143.33 C 71.19 141.57 69.10 139.75 67.02 137.92 C 61.31 136.93 55.60 137.82 49.89 138.01 M 55.61 146.93 C 56.29 150.25 60.34 148.28 62.64 148.71 C 64.95 150.78 66.53 153.51 68.86 155.53 C 70.85 155.82 71.72 155.01 71.48 153.09 C 69.32 150.19 66.74 147.64 64.01 145.28 C 61.32 145.89 56.98 143.75 55.61 146.93 M 91.91 156.52 C 90.25 159.49 88.70 162.61 86.18 164.97 C 83.54 165.05 81.11 164.20 78.83 162.96 C 79.09 166.80 83.64 166.69 86.45 166.27 C 90.34 164.51 91.55 159.88 93.96 156.66 C 93.44 156.62 92.42 156.55 91.91 156.52 Z" />
<path fill="#fefefe" opacity="1.00" d=" M 103.75 78.04 C 105.86 76.62 107.90 75.08 110.10 73.79 C 112.78 73.19 115.54 72.98 118.19 72.22 C 117.96 73.82 117.82 75.44 117.69 77.05 C 113.01 77.14 108.93 79.55 104.64 81.09 C 104.42 80.33 103.97 78.80 103.75 78.04 Z" />
<path fill="#fefefe" opacity="1.00" d=" M 132.69 74.61 C 135.80 74.62 138.42 76.32 140.19 78.81 C 137.39 78.87 135.15 77.07 132.61 76.22 C 132.63 75.82 132.67 75.01 132.69 74.61 Z" />
<path fill="#fefefe" opacity="1.00" d=" M 64.55 75.77 C 64.93 76.25 65.32 76.72 65.70 77.20 C 62.68 77.32 59.17 78.42 56.52 76.49 C 59.19 76.18 61.89 76.18 64.55 75.77 Z" />
<path fill="#fefefe" opacity="1.00" d=" M 124.80 77.05 C 125.38 75.76 129.15 75.10 129.73 76.38 C 128.23 77.00 126.39 77.62 124.80 77.05 Z" />
<path fill="#fefefe" opacity="1.00" d=" M 21.92 93.40 C 20.89 92.71 22.58 90.05 23.06 91.90 C 24.22 94.10 23.80 96.64 23.77 99.01 C 21.78 97.81 22.22 95.34 21.92 93.40 Z" />
</g>
</svg>
