<?xml version="1.0" encoding="UTF-8" ?>
<!DOCTYPE svg PUBLIC "-//W3C//DTD SVG 1.1//EN" "http://www.w3.org/Graphics/SVG/1.1/DTD/svg11.dtd">
<svg width="320pt" height="240pt" viewBox="0 0 320 240" version="1.1" xmlns="http://www.w3.org/2000/svg">
<g id="#030303fc">
<path fill="#030303" opacity="1.00" d=" M 75.60 0.00 L 86.69 0.00 C 77.32 1.06 68.13 3.59 59.54 7.49 C 53.82 10.11 49.97 15.29 45.59 19.60 C 41.38 24.06 36.61 27.96 32.52 32.53 C 31.08 33.95 30.66 35.98 30.88 37.93 C 31.72 48.60 31.73 59.33 30.85 70.00 C 30.33 77.80 30.99 85.67 32.57 93.32 C 33.58 98.17 36.29 102.43 39.16 106.39 C 41.03 103.18 42.32 99.69 43.29 96.12 C 44.26 92.31 46.87 89.28 49.32 86.32 C 56.99 76.31 68.70 70.05 80.69 66.75 C 89.67 63.96 98.19 59.48 105.32 53.32 C 108.96 50.21 112.71 47.00 117.30 45.39 C 123.41 43.24 129.63 41.45 135.92 39.90 C 145.45 36.97 155.56 39.37 165.23 37.15 C 161.07 28.45 155.88 20.29 151.17 11.89 C 148.67 7.29 145.06 3.44 141.16 0.00 L 144.40 0.00 C 150.24 4.91 153.79 11.75 157.64 18.20 C 161.42 25.04 165.06 31.98 169.26 38.58 C 179.21 38.26 189.44 38.31 198.73 42.41 C 198.68 42.92 198.60 43.93 198.56 44.44 C 194.93 46.58 191.30 49.06 187.00 49.53 C 182.35 50.16 177.92 51.86 173.93 54.32 C 183.00 59.44 191.20 66.12 198.06 73.96 C 202.45 78.83 203.40 85.50 205.28 91.52 C 206.90 98.04 209.85 104.16 211.04 110.80 C 212.74 117.17 212.58 124.09 215.87 129.98 C 219.11 135.89 220.76 142.47 223.54 148.57 C 226.11 154.21 224.68 160.59 226.19 166.47 C 227.52 172.27 227.45 178.23 227.25 184.14 C 230.32 186.18 233.52 188.69 234.14 192.59 C 235.30 197.06 231.58 201.74 226.89 201.37 C 223.26 202.02 221.37 198.47 219.24 196.27 C 216.77 206.40 214.51 216.91 208.78 225.81 C 206.04 230.20 204.85 235.29 202.81 240.00 L 199.61 240.00 C 202.71 233.59 203.59 226.39 206.87 220.07 C 208.09 217.26 208.57 214.05 210.63 211.67 C 211.84 209.94 213.80 208.37 213.47 206.04 C 213.40 198.71 210.66 191.65 211.28 184.25 C 209.76 177.93 210.51 171.42 210.37 164.99 C 209.86 150.15 204.40 136.18 199.87 122.22 C 197.12 115.35 196.03 107.65 191.29 101.71 C 186.44 96.03 182.21 89.56 180.46 82.22 C 178.80 77.51 177.46 72.16 173.15 69.12 C 173.18 67.48 174.28 65.45 172.78 64.17 C 168.57 59.39 163.71 55.11 158.54 51.40 C 154.76 50.90 151.87 54.02 149.13 56.13 C 149.58 58.58 152.96 58.41 154.75 59.59 C 154.72 60.29 154.67 61.71 154.65 62.42 C 151.19 61.10 147.78 59.25 143.98 59.33 C 141.63 60.79 139.93 63.16 138.70 65.59 C 137.13 70.82 140.79 77.19 136.72 81.67 C 133.28 85.70 129.04 89.29 127.52 94.58 C 125.36 98.87 128.14 104.62 124.15 108.10 C 122.35 110.33 119.23 109.46 116.75 109.65 C 117.77 107.82 119.30 106.22 119.82 104.15 C 118.68 102.19 117.01 100.61 115.79 98.71 C 115.01 94.79 115.93 90.79 117.00 87.01 C 118.35 82.09 121.97 78.06 122.80 72.96 C 123.51 69.56 123.31 66.07 123.33 62.63 C 124.99 63.31 126.65 64.00 128.31 64.68 C 129.32 62.36 130.18 59.98 130.88 57.54 C 121.47 56.56 113.75 62.80 105.83 66.79 C 94.26 71.27 83.66 77.80 72.51 83.19 C 72.47 83.72 72.37 84.79 72.33 85.32 C 76.13 86.39 79.98 87.47 83.97 87.38 C 87.82 87.28 92.10 90.02 92.04 94.20 C 89.67 94.79 87.30 95.36 84.91 95.85 C 89.89 103.51 98.38 107.75 103.89 114.87 L 103.08 115.24 C 101.72 115.37 100.36 115.27 99.01 115.15 C 100.56 117.54 102.27 119.83 104.33 121.81 C 104.29 120.07 104.38 118.33 104.59 116.61 C 105.60 116.38 106.63 116.29 107.68 116.31 C 108.16 124.73 105.87 133.65 99.56 139.58 C 95.58 143.10 94.21 148.65 89.97 151.93 C 86.68 154.76 83.65 159.10 78.78 158.71 C 71.84 158.67 63.39 158.26 59.03 151.97 C 55.71 148.37 57.25 143.17 55.87 138.87 C 55.45 135.92 53.47 133.63 52.29 131.00 C 51.60 122.22 56.19 112.94 64.47 109.30 C 68.63 107.03 71.98 102.78 77.04 102.57 C 81.66 102.12 85.68 104.85 89.97 106.05 C 86.83 101.89 83.17 98.15 79.69 94.27 C 76.33 90.56 71.51 88.87 66.90 87.32 C 57.69 94.07 49.59 102.19 40.35 108.89 C 40.14 112.92 40.98 116.94 40.57 120.95 C 39.74 123.99 38.82 127.03 37.63 129.95 C 36.64 132.36 34.41 134.36 34.44 137.10 C 34.21 144.73 35.12 152.44 33.65 159.99 C 33.79 165.25 32.40 170.99 35.04 175.84 C 37.49 180.59 37.04 186.16 38.97 191.08 C 40.46 194.71 41.20 198.61 42.95 202.14 C 44.74 205.82 45.78 209.89 45.52 214.00 C 45.71 215.79 44.90 218.05 46.59 219.33 C 48.94 221.62 51.87 223.43 53.46 226.41 C 54.80 228.39 55.37 231.07 57.57 232.34 C 61.93 235.14 66.43 237.75 71.10 240.00 L 65.39 240.00 C 61.93 238.42 58.74 236.33 55.48 234.39 C 53.10 232.99 52.46 230.10 51.09 227.90 C 49.92 225.44 47.70 223.78 45.50 222.30 C 45.42 228.28 45.91 234.58 48.67 240.00 L 45.81 240.00 C 44.45 236.13 43.55 232.06 43.50 227.94 C 43.32 224.34 43.90 220.41 41.81 217.22 C 38.34 211.29 34.00 205.75 32.01 199.07 C 30.08 193.55 30.39 187.62 29.02 181.99 C 28.42 179.39 27.86 176.75 28.02 174.07 C 28.87 163.07 27.85 152.04 28.34 141.02 C 28.30 137.10 29.31 132.69 26.73 129.32 C 19.74 119.79 17.06 107.66 17.64 95.99 C 18.11 82.15 16.37 68.02 19.72 54.44 C 23.09 45.53 25.35 35.37 32.92 28.92 C 39.61 22.60 45.95 15.93 52.48 9.45 C 55.20 6.63 58.85 5.02 62.45 3.66 C 66.72 2.10 71.05 0.53 75.60 0.00 M 25.67 45.95 C 26.05 63.16 24.43 80.45 26.58 97.59 C 28.17 102.44 31.24 106.62 33.76 111.02 C 34.61 110.59 36.30 109.74 37.15 109.32 C 34.87 104.90 31.98 100.76 30.25 96.08 C 28.09 86.21 28.23 76.06 28.53 66.02 C 29.27 57.22 30.05 48.22 28.24 39.50 C 26.96 41.45 25.31 43.44 25.67 45.95 M 116.05 48.93 C 112.67 50.34 109.99 52.91 107.21 55.22 C 98.88 62.31 89.02 67.70 78.38 70.34 C 70.86 72.26 64.17 76.42 58.06 81.07 C 53.95 84.65 50.67 89.06 47.31 93.32 C 45.49 95.43 45.56 98.30 45.48 100.92 C 47.76 99.45 49.95 97.83 51.98 96.02 C 62.27 86.57 74.01 78.72 86.61 72.68 C 91.78 70.24 96.69 67.27 102.04 65.22 C 109.54 62.35 115.90 57.04 123.67 54.78 C 130.32 52.90 136.90 49.89 143.97 50.42 C 149.49 50.99 154.55 48.34 159.96 47.93 C 168.63 47.24 177.33 47.54 186.01 47.50 C 189.32 47.69 192.07 45.64 194.67 43.89 C 192.25 42.66 189.74 41.49 187.01 41.24 C 177.72 40.04 168.33 40.75 159.00 40.67 C 153.71 40.81 148.37 40.25 143.12 41.06 C 133.96 43.18 124.88 45.67 116.05 48.93 M 162.64 50.61 C 163.87 51.95 165.06 53.34 166.49 54.47 C 169.97 54.55 172.90 52.06 175.87 50.56 C 171.51 49.47 167.03 50.18 162.64 50.61 M 138.52 53.04 C 138.50 53.71 138.46 55.05 138.43 55.71 C 139.79 55.67 141.14 55.63 142.49 55.58 C 142.54 54.47 142.59 53.37 142.64 52.26 C 141.27 52.51 139.89 52.76 138.52 53.04 M 144.18 55.88 C 145.70 55.70 147.21 55.51 148.73 55.32 C 148.57 54.29 148.25 52.25 148.09 51.22 C 146.73 52.73 145.43 54.29 144.18 55.88 M 20.56 58.97 C 20.04 72.98 20.45 87.00 20.38 101.02 C 20.15 109.64 22.52 118.24 26.82 125.69 C 28.15 121.47 30.05 117.45 32.62 113.84 C 29.53 108.69 25.39 103.93 23.90 98.00 C 22.59 83.16 23.83 68.21 23.15 53.36 C 21.90 55.02 20.41 56.75 20.56 58.97 M 169.46 56.27 C 172.19 60.24 176.04 63.36 178.16 67.75 C 179.89 71.21 182.40 74.18 185.11 76.91 C 190.45 82.20 193.41 89.50 194.61 96.82 C 196.26 106.86 204.45 113.87 207.71 123.24 C 208.56 125.79 209.76 128.20 211.34 130.37 C 211.75 125.61 211.06 120.87 209.90 116.27 C 208.69 111.69 208.16 106.92 206.36 102.51 C 203.32 94.86 202.08 86.61 198.90 79.02 C 195.49 73.01 189.82 68.75 184.71 64.27 C 180.21 60.73 175.52 56.44 169.46 56.27 M 133.48 58.50 C 132.55 61.26 131.60 64.03 131.25 66.93 C 132.69 66.22 134.25 65.66 135.44 64.54 C 135.65 62.51 135.53 60.46 135.51 58.42 C 135.00 58.44 133.99 58.48 133.48 58.50 M 137.49 58.40 C 137.44 59.00 137.32 60.19 137.27 60.79 C 137.87 60.75 139.09 60.68 139.69 60.65 C 139.74 60.01 139.83 58.74 139.87 58.11 C 139.28 58.18 138.09 58.33 137.49 58.40 M 126.37 67.50 C 125.75 69.77 125.42 72.10 125.41 74.45 C 127.99 72.94 128.84 70.20 128.86 67.35 C 128.23 67.39 126.99 67.46 126.37 67.50 M 130.38 74.34 C 128.87 75.57 127.28 76.70 125.59 77.66 L 125.65 77.80 C 124.30 79.05 124.28 80.84 124.38 82.55 C 124.44 83.16 124.64 83.72 124.99 84.22 C 124.29 86.74 123.77 89.31 123.07 91.83 C 122.00 94.31 119.95 96.16 118.33 98.27 C 119.81 99.48 121.43 100.49 123.30 100.96 C 123.47 98.42 123.34 95.85 123.68 93.32 C 124.46 90.95 125.80 88.84 126.88 86.60 L 127.22 86.98 C 127.62 85.44 128.00 83.90 128.44 82.37 C 129.95 82.49 131.46 82.63 132.96 82.78 L 133.00 82.29 C 134.83 80.56 136.16 78.42 136.82 75.98 C 135.92 76.27 134.12 76.86 133.23 77.15 C 133.08 76.68 132.79 75.74 132.65 75.27 C 133.95 73.51 134.04 71.19 134.52 69.12 C 132.29 69.97 129.99 71.61 130.38 74.34 M 120.69 83.64 C 119.86 86.72 118.88 89.75 118.00 92.81 C 118.64 92.74 119.90 92.59 120.54 92.52 C 121.46 89.44 122.32 86.33 122.96 83.17 C 122.39 83.29 121.26 83.53 120.69 83.64 M 183.70 84.00 C 185.65 88.83 187.88 93.79 191.56 97.56 C 192.26 91.54 187.84 86.66 184.71 82.00 C 184.46 82.50 183.95 83.50 183.70 84.00 M 78.95 89.65 C 80.97 92.70 84.45 93.17 87.85 92.71 C 87.72 92.18 87.47 91.12 87.34 90.60 C 84.62 89.76 81.79 89.44 78.95 89.65 M 66.35 111.38 C 62.98 113.12 59.66 115.34 57.75 118.71 C 56.07 122.27 55.29 126.17 54.32 129.96 C 54.77 130.63 55.68 131.98 56.14 132.65 C 60.00 131.27 64.04 130.40 67.76 128.65 C 67.71 126.99 67.58 125.33 67.43 123.68 C 64.74 123.52 62.06 123.20 59.47 122.43 C 59.42 121.86 59.31 120.72 59.26 120.15 C 62.16 120.35 65.06 120.47 67.96 120.50 C 69.89 123.01 71.54 126.14 70.49 129.39 C 67.43 132.98 62.45 133.48 58.21 134.80 C 58.24 138.60 59.94 142.16 59.69 145.99 C 59.54 149.17 62.11 151.68 64.46 153.45 C 68.69 155.43 73.50 155.62 78.05 156.31 C 83.58 156.04 86.62 150.74 90.48 147.52 C 92.84 143.91 94.81 139.98 98.11 137.08 C 102.17 133.32 103.86 127.90 104.71 122.60 C 103.26 122.59 101.81 122.53 100.36 122.42 C 97.07 118.02 96.32 110.94 90.48 108.89 C 86.23 108.07 82.43 105.29 78.00 105.55 C 73.20 104.94 70.19 109.36 66.35 111.38 M 200.39 115.54 C 202.08 120.87 203.90 126.16 205.58 131.49 C 207.55 136.27 209.02 141.25 209.68 146.39 C 210.16 146.52 211.10 146.80 211.57 146.94 C 211.51 143.78 211.73 140.60 211.28 137.46 C 210.05 133.05 207.24 129.27 206.03 124.84 C 205.16 121.21 202.56 118.44 200.39 115.54 M 35.76 116.97 C 35.52 119.09 35.40 121.23 35.10 123.35 C 32.69 124.78 32.29 120.83 31.38 119.42 L 31.38 120.59 C 29.27 126.11 29.89 132.16 29.63 137.94 C 29.84 145.52 28.07 153.12 29.68 160.63 C 30.37 160.25 31.74 159.48 32.42 159.09 C 32.21 150.89 33.10 142.61 31.75 134.47 C 35.47 129.99 36.41 124.17 38.65 118.95 C 37.73 118.23 36.74 117.61 35.76 116.97 M 213.39 131.54 C 213.39 134.53 213.64 137.55 214.56 140.42 C 216.01 145.86 220.04 150.32 220.76 156.00 C 222.14 163.15 220.09 171.34 224.99 177.49 C 225.57 173.62 224.90 169.76 223.98 166.00 C 223.01 162.07 223.42 157.99 222.93 154.01 C 222.55 150.63 220.71 147.69 219.51 144.57 C 217.63 140.16 216.98 135.03 213.39 131.54 M 213.24 146.72 C 213.31 151.51 214.75 156.18 214.39 160.99 C 213.82 168.97 217.11 177.05 214.60 184.89 C 213.50 188.01 212.98 191.60 214.43 194.70 C 215.41 196.24 217.57 195.12 219.00 194.98 C 220.79 193.27 218.70 189.99 218.56 187.66 C 219.89 186.59 221.23 185.52 222.56 184.45 C 222.47 177.48 219.29 170.97 219.45 163.99 C 219.43 159.02 218.88 153.90 216.60 149.41 C 215.96 147.97 214.84 147.07 213.24 146.72 M 29.20 174.63 C 30.00 178.48 31.79 182.08 32.40 185.96 C 31.88 196.27 36.79 205.94 42.63 214.12 C 42.88 210.18 42.11 206.26 40.15 202.83 C 38.40 199.84 38.07 196.35 36.80 193.18 C 34.35 187.59 34.94 181.18 32.29 175.64 C 31.52 175.39 29.97 174.88 29.20 174.63 M 221.59 187.71 C 221.09 191.45 222.62 195.03 223.45 198.61 C 225.80 198.61 228.16 198.58 230.52 198.51 C 232.32 195.03 231.93 190.46 228.96 187.74 C 226.51 187.51 224.04 187.57 221.59 187.71 Z" />
<path fill="#030303" opacity="1.00" d=" M 146.75 79.66 C 148.37 75.59 153.29 75.04 157.07 74.42 C 162.21 73.82 164.68 79.21 168.73 81.24 C 172.98 83.09 173.41 88.38 176.86 91.12 C 181.01 94.56 184.07 99.08 186.08 104.06 C 187.58 108.32 192.09 110.67 193.32 115.04 C 193.41 118.77 194.08 122.83 192.02 126.19 C 189.98 130.96 185.78 134.34 181.14 136.43 C 173.98 136.51 166.81 136.35 159.64 136.54 C 153.46 135.92 146.79 134.33 142.36 129.64 C 139.17 126.42 137.26 122.18 134.05 118.97 C 132.57 117.25 130.57 115.50 130.56 113.06 C 130.55 108.66 130.02 104.04 132.02 99.96 C 134.31 94.05 139.59 90.24 144.15 86.16 C 147.50 83.58 150.53 80.61 153.94 78.10 C 155.78 78.70 157.83 79.20 158.66 81.18 C 156.96 81.41 155.25 81.47 153.57 81.77 C 151.29 83.41 149.43 85.55 147.17 87.22 C 142.58 91.29 137.12 94.84 134.61 100.69 C 132.71 104.96 133.17 109.78 133.65 114.30 C 137.44 118.26 140.41 122.89 143.84 127.14 C 146.46 130.56 150.57 132.23 154.65 133.12 C 161.30 135.03 168.26 134.82 175.10 134.72 C 177.23 134.72 179.35 134.31 181.28 133.41 C 185.31 131.38 188.33 127.90 190.26 123.86 C 191.13 120.30 191.56 116.17 189.34 112.99 C 183.26 108.36 182.76 99.85 177.02 94.98 C 174.50 92.74 172.08 90.29 170.62 87.20 C 169.38 83.86 165.49 83.20 163.36 80.65 C 161.67 78.70 159.36 77.54 157.09 76.42 C 153.80 77.90 150.50 79.86 146.75 79.66 Z" />
<path fill="#030303" opacity="1.00" d=" M 161.23 89.22 C 161.84 89.25 163.06 89.31 163.68 89.34 C 164.54 92.94 164.34 96.65 164.35 100.32 C 168.99 100.66 173.96 101.38 177.69 97.92 C 178.62 101.34 175.14 103.92 172.00 103.57 C 168.45 103.44 164.39 104.01 161.57 101.36 C 160.98 97.36 161.56 93.26 161.23 89.22 Z" />
<path fill="#030303" opacity="1.00" d=" M 116.77 134.04 C 121.02 132.57 125.40 130.92 129.99 131.54 C 134.35 132.15 138.92 132.02 143.06 133.71 C 151.79 137.12 159.56 142.41 167.92 146.56 C 169.72 144.96 171.22 142.06 174.02 142.46 C 177.29 143.02 180.51 144.74 182.59 147.39 C 187.44 152.89 189.88 159.96 194.09 165.90 C 195.63 168.22 197.48 170.39 198.48 173.02 C 198.74 177.69 198.54 182.37 198.60 187.04 C 198.86 193.58 192.86 200.32 186.06 199.58 C 180.52 199.28 175.06 200.32 169.56 200.59 C 164.83 204.18 159.86 207.47 155.31 211.29 C 151.30 214.40 146.57 216.43 142.61 219.63 C 139.18 222.35 135.62 225.02 131.53 226.67 C 129.24 227.70 126.57 227.27 124.34 228.45 C 121.47 229.89 119.76 232.83 117.04 234.48 C 112.29 235.34 107.67 233.44 102.97 233.13 C 99.09 232.29 94.97 233.22 91.22 231.76 C 87.48 230.40 83.47 229.12 80.64 226.18 C 78.73 221.45 83.87 218.37 85.24 214.33 C 87.16 209.00 90.24 204.07 91.17 198.41 C 91.81 193.93 93.88 189.55 92.70 184.98 C 93.29 176.23 96.20 167.78 96.81 159.02 C 97.08 157.13 97.33 155.11 98.54 153.55 C 101.69 149.36 104.18 144.65 107.96 140.95 C 110.65 138.38 113.10 135.25 116.77 134.04 M 115.45 137.38 C 117.45 140.15 119.13 143.13 121.04 145.96 C 124.08 147.69 127.30 149.10 130.57 150.36 C 130.85 145.07 130.68 139.76 130.58 134.47 C 125.32 133.84 120.34 135.75 115.45 137.38 M 133.54 135.30 C 133.53 137.12 133.53 138.93 133.54 140.75 C 136.29 142.11 139.27 142.86 142.24 143.57 C 143.22 142.39 144.11 141.14 145.15 140.02 C 146.25 140.16 148.48 141.54 147.19 142.72 C 144.54 147.76 138.01 145.48 133.74 144.17 C 133.75 147.47 133.64 150.82 132.28 153.89 C 129.28 153.09 126.49 151.72 123.66 150.48 C 123.19 154.69 125.23 160.41 120.83 163.10 C 117.61 164.67 114.55 162.22 111.73 160.87 C 111.31 162.40 110.87 163.93 110.44 165.46 C 107.57 166.71 104.83 168.25 101.93 169.45 C 101.43 169.10 100.41 168.39 99.91 168.03 C 102.56 166.02 105.57 164.57 108.54 163.08 C 108.51 162.45 108.44 161.17 108.41 160.53 C 106.52 159.61 104.58 158.78 102.66 157.91 C 104.22 156.39 106.30 156.32 108.34 156.26 C 106.61 154.85 105.15 151.27 102.54 152.41 C 98.79 156.20 100.12 161.74 98.65 166.41 C 98.40 172.71 96.06 178.70 95.64 184.99 C 97.29 189.39 94.97 193.63 94.17 197.93 C 93.16 204.52 89.73 210.35 87.30 216.47 C 86.23 219.46 82.25 221.79 83.54 225.26 C 87.60 227.82 92.24 229.36 96.94 230.21 C 100.40 230.56 103.92 230.08 107.35 230.75 C 110.31 231.35 113.41 232.22 116.42 231.50 C 118.42 229.82 120.15 227.81 122.38 226.42 C 124.64 224.74 127.60 224.89 130.20 224.13 C 133.49 222.36 136.78 220.56 139.90 218.50 C 137.83 213.13 133.32 209.42 128.05 207.40 C 125.58 208.57 122.47 209.37 121.33 212.16 C 118.98 216.98 117.32 222.15 114.43 226.70 C 114.04 227.92 112.61 227.85 111.67 227.40 C 108.75 224.96 106.53 221.77 103.49 219.46 C 102.54 219.19 101.63 219.30 100.77 219.79 C 96.68 221.90 93.59 225.49 89.43 227.50 C 89.42 226.74 89.39 225.22 89.37 224.46 C 93.30 222.01 96.58 218.59 100.82 216.65 C 101.89 216.14 103.15 216.20 104.24 216.62 C 107.47 218.80 109.79 222.01 112.79 224.48 C 114.98 220.02 116.66 215.33 118.85 210.87 C 120.99 206.56 126.31 204.13 130.93 205.65 C 134.24 207.09 136.88 209.60 139.55 211.95 C 139.42 207.58 139.65 203.21 141.27 199.09 C 141.97 195.28 145.99 193.46 149.32 192.47 C 152.71 191.50 155.50 193.90 158.08 195.69 C 159.94 193.49 161.37 191.00 162.37 188.31 C 163.45 185.36 166.16 183.59 168.23 181.40 C 165.58 178.50 162.97 175.55 160.00 172.98 C 159.08 172.04 157.61 172.24 156.45 172.43 C 150.09 174.93 147.17 181.95 141.04 184.79 C 139.32 183.42 137.70 181.92 135.85 180.73 C 134.27 180.67 133.21 182.21 132.02 183.05 C 126.74 187.13 126.48 194.37 122.70 199.53 C 121.94 199.51 120.42 199.48 119.66 199.47 C 121.34 196.20 123.28 193.05 124.35 189.51 C 126.10 183.87 130.81 179.75 136.02 177.31 C 137.97 178.79 139.89 180.31 141.89 181.72 C 145.53 177.75 149.02 173.48 153.72 170.71 C 155.88 169.13 159.35 168.57 161.41 170.60 C 164.62 173.68 168.25 176.57 170.30 180.62 C 171.31 182.63 172.67 184.43 174.16 186.13 C 175.03 183.54 175.16 180.29 177.82 178.79 C 181.01 177.26 184.34 179.19 186.98 180.93 C 189.67 182.76 193.27 184.74 192.90 188.53 C 188.46 185.93 184.79 182.11 179.86 180.29 C 175.82 184.67 177.62 191.27 177.70 196.68 C 181.79 196.79 185.93 196.97 189.99 196.31 C 193.12 194.76 195.67 191.53 195.67 187.94 C 195.72 183.11 195.89 178.25 195.47 173.43 C 194.68 170.90 192.67 168.93 191.32 166.67 C 187.29 160.91 184.97 154.04 180.18 148.82 C 178.27 146.50 175.32 145.45 172.44 145.03 C 172.39 145.62 172.29 146.80 172.24 147.38 C 174.03 148.30 175.80 149.28 177.56 150.28 C 177.51 150.99 177.42 152.40 177.38 153.11 C 174.11 151.44 170.96 149.38 167.19 149.11 C 159.18 145.73 152.21 140.34 144.23 136.91 C 140.87 135.41 137.17 135.12 133.54 135.30 M 106.38 147.46 C 105.27 150.62 108.59 152.20 110.26 154.24 C 110.56 155.48 110.61 156.76 110.75 158.02 C 114.13 158.45 116.86 161.19 120.40 160.59 C 120.71 156.94 120.98 153.23 120.53 149.59 C 117.42 146.79 116.04 142.78 113.71 139.41 C 111.04 141.81 107.92 144.18 106.38 147.46 M 164.55 190.35 C 163.51 194.21 159.61 196.54 159.14 200.63 C 158.67 200.64 157.73 200.68 157.26 200.70 C 156.12 198.89 155.28 196.72 153.35 195.59 C 149.94 194.60 145.63 195.85 144.39 199.46 C 141.54 204.53 142.87 210.48 142.45 216.01 C 152.02 211.17 159.94 203.85 168.74 197.83 C 170.62 197.04 172.76 197.50 174.76 197.34 C 174.90 192.79 174.29 187.50 169.71 185.28 C 166.71 184.74 165.51 188.17 164.55 190.35 Z" />
</g>
<g id="#5e5e5efe">
<path fill="#5e5e5e" opacity="1.00" d=" M 86.69 0.00 L 141.16 0.00 C 145.06 3.44 148.67 7.29 151.17 11.89 C 155.88 20.29 161.07 28.45 165.23 37.15 C 155.56 39.37 145.45 36.97 135.92 39.90 C 129.63 41.45 123.41 43.24 117.30 45.39 C 112.71 47.00 108.96 50.21 105.32 53.32 C 98.19 59.48 89.67 63.96 80.69 66.75 C 68.70 70.05 56.99 76.31 49.32 86.32 C 46.87 89.28 44.26 92.31 43.29 96.12 C 42.32 99.69 41.03 103.18 39.16 106.39 C 36.29 102.43 33.58 98.17 32.57 93.32 C 30.99 85.67 30.33 77.80 30.85 70.00 C 31.73 59.33 31.72 48.60 30.88 37.93 C 30.66 35.98 31.08 33.95 32.52 32.53 C 36.61 27.96 41.38 24.06 45.59 19.60 C 49.97 15.29 53.82 10.11 59.54 7.49 C 68.13 3.59 77.32 1.06 86.69 0.00 Z" />
<path fill="#5e5e5e" opacity="1.00" d=" M 116.05 48.93 C 124.88 45.67 133.96 43.18 143.12 41.06 C 148.37 40.25 153.71 40.81 159.00 40.67 C 168.33 40.75 177.72 40.04 187.01 41.24 C 189.74 41.49 192.25 42.66 194.67 43.89 C 192.07 45.64 189.32 47.69 186.01 47.50 C 177.33 47.54 168.63 47.24 159.96 47.93 C 154.55 48.34 149.49 50.99 143.97 50.42 C 136.90 49.89 130.32 52.90 123.67 54.78 C 115.90 57.04 109.54 62.35 102.04 65.22 C 96.69 67.27 91.78 70.24 86.61 72.68 C 74.01 78.72 62.27 86.57 51.98 96.02 C 49.95 97.83 47.76 99.45 45.48 100.92 C 45.56 98.30 45.49 95.43 47.31 93.32 C 50.67 89.06 53.95 84.65 58.06 81.07 C 64.17 76.42 70.86 72.26 78.38 70.34 C 89.02 67.70 98.88 62.31 107.21 55.22 C 109.99 52.91 112.67 50.34 116.05 48.93 Z" />
<path fill="#5e5e5e" opacity="1.00" d=" M 162.64 50.61 C 167.03 50.18 171.51 49.47 175.87 50.56 C 172.90 52.06 169.97 54.55 166.49 54.47 C 165.06 53.34 163.87 51.95 162.64 50.61 Z" />
<path fill="#5e5e5e" opacity="1.00" d=" M 144.18 55.88 C 145.43 54.29 146.73 52.73 148.09 51.22 C 148.25 52.25 148.57 54.29 148.73 55.32 C 147.21 55.51 145.70 55.70 144.18 55.88 Z" />
<path fill="#5e5e5e" opacity="1.00" d=" M 20.56 58.97 C 20.41 56.75 21.90 55.02 23.15 53.36 C 23.83 68.21 22.59 83.16 23.90 98.00 C 25.39 103.93 29.53 108.69 32.62 113.84 C 30.05 117.45 28.15 121.47 26.82 125.69 C 22.52 118.24 20.15 109.64 20.38 101.02 C 20.45 87.00 20.04 72.98 20.56 58.97 Z" />
<path fill="#5e5e5e" opacity="1.00" d=" M 125.59 77.66 C 127.28 76.70 128.87 75.57 130.38 74.34 C 130.34 75.54 130.31 76.75 130.29 77.96 C 131.08 77.07 131.88 76.18 132.65 75.27 C 132.79 75.74 133.08 76.68 133.23 77.15 C 133.27 78.87 133.13 80.58 133.00 82.29 L 132.96 82.78 C 131.46 82.63 129.95 82.49 128.44 82.37 C 128.00 83.90 127.62 85.44 127.22 86.98 L 126.88 86.60 C 126.20 85.84 125.58 85.04 124.99 84.22 C 124.64 83.72 124.44 83.16 124.38 82.55 C 125.12 81.62 125.90 80.70 126.66 79.78 C 126.33 79.12 125.99 78.46 125.65 77.80 L 125.59 77.66 Z" />
<path fill="#5e5e5e" opacity="1.00" d=" M 213.39 131.54 C 216.98 135.03 217.63 140.16 219.51 144.57 C 220.71 147.69 222.55 150.63 222.93 154.01 C 223.42 157.99 223.01 162.07 223.98 166.00 C 224.90 169.76 225.57 173.62 224.99 177.49 C 220.09 171.34 222.14 163.15 220.76 156.00 C 220.04 150.32 216.01 145.86 214.56 140.42 C 213.64 137.55 213.39 134.53 213.39 131.54 Z" />
</g>
<g id="#b3b2b2fe">
<path fill="#b3b2b2" opacity="1.00" d=" M 25.67 45.95 C 25.31 43.44 26.96 41.45 28.24 39.50 C 30.05 48.22 29.27 57.22 28.53 66.02 C 28.23 76.06 28.09 86.21 30.25 96.08 C 31.98 100.76 34.87 104.90 37.15 109.32 C 36.30 109.74 34.61 110.59 33.76 111.02 C 31.24 106.62 28.17 102.44 26.58 97.59 C 24.43 80.45 26.05 63.16 25.67 45.95 Z" />
<path fill="#b3b2b2" opacity="1.00" d=" M 133.23 77.15 C 134.12 76.86 135.92 76.27 136.82 75.98 C 136.16 78.42 134.83 80.56 133.00 82.29 C 133.13 80.58 133.27 78.87 133.23 77.15 Z" />
<path fill="#b3b2b2" opacity="1.00" d=" M 125.65 77.80 C 125.99 78.46 126.33 79.12 126.66 79.78 C 125.90 80.70 125.12 81.62 124.38 82.55 C 124.28 80.84 124.30 79.05 125.65 77.80 Z" />
<path fill="#b3b2b2" opacity="1.00" d=" M 120.69 83.64 C 121.26 83.53 122.39 83.29 122.96 83.17 C 122.32 86.33 121.46 89.44 120.54 92.52 C 119.90 92.59 118.64 92.74 118.00 92.81 C 118.88 89.75 119.86 86.72 120.69 83.64 Z" />
<path fill="#b3b2b2" opacity="1.00" d=" M 133.65 114.30 C 133.17 109.78 132.71 104.96 134.61 100.69 C 134.65 105.24 134.56 109.82 133.65 114.30 Z" />
<path fill="#b3b2b2" opacity="1.00" d=" M 241.83 145.71 C 242.60 146.36 243.39 147.01 244.17 147.66 C 244.23 148.64 244.29 149.62 244.36 150.61 C 243.08 150.47 241.80 150.33 240.53 150.18 C 240.95 148.69 241.38 147.20 241.83 145.71 Z" />
</g>
<g id="#fdfdfdfe">
<path fill="#fdfdfd" opacity="1.00" d=" M 149.13 56.13 C 151.87 54.02 154.76 50.90 158.54 51.40 C 163.71 55.11 168.57 59.39 172.78 64.17 C 174.28 65.45 173.18 67.48 173.15 69.12 C 177.46 72.16 178.80 77.51 180.46 82.22 C 182.21 89.56 186.44 96.03 191.29 101.71 C 196.03 107.65 197.12 115.35 199.87 122.22 C 204.40 136.18 209.86 150.15 210.37 164.99 C 210.51 171.42 209.76 177.93 211.28 184.25 C 210.66 191.65 213.40 198.71 213.47 206.04 C 213.80 208.37 211.84 209.94 210.63 211.67 C 208.57 214.05 208.09 217.26 206.87 220.07 C 203.59 226.39 202.71 233.59 199.61 240.00 L 71.10 240.00 C 66.43 237.75 61.93 235.14 57.57 232.34 C 55.37 231.07 54.80 228.39 53.46 226.41 C 51.87 223.43 48.94 221.62 46.59 219.33 C 44.90 218.05 45.71 215.79 45.52 214.00 C 45.78 209.89 44.74 205.82 42.95 202.14 C 41.20 198.61 40.46 194.71 38.97 191.08 C 37.04 186.16 37.49 180.59 35.04 175.84 C 32.40 170.99 33.79 165.25 33.65 159.99 C 35.12 152.44 34.21 144.73 34.44 137.10 C 34.41 134.36 36.64 132.36 37.63 129.95 C 38.82 127.03 39.74 123.99 40.57 120.95 C 40.98 116.94 40.14 112.92 40.35 108.89 C 49.59 102.19 57.69 94.07 66.90 87.32 C 71.51 88.87 76.33 90.56 79.69 94.27 C 83.17 98.15 86.83 101.89 89.97 106.05 C 85.68 104.85 81.66 102.12 77.04 102.57 C 71.98 102.78 68.63 107.03 64.47 109.30 C 56.19 112.94 51.60 122.22 52.29 131.00 C 53.47 133.63 55.45 135.92 55.87 138.87 C 57.25 143.17 55.71 148.37 59.03 151.97 C 63.39 158.26 71.84 158.67 78.78 158.71 C 83.65 159.10 86.68 154.76 89.97 151.93 C 94.21 148.65 95.58 143.10 99.56 139.58 C 105.87 133.65 108.16 124.73 107.68 116.31 C 106.63 116.29 105.60 116.38 104.59 116.61 C 104.38 118.33 104.29 120.07 104.33 121.81 C 102.27 119.83 100.56 117.54 99.01 115.15 C 100.36 115.27 101.72 115.37 103.08 115.24 L 103.89 114.87 C 98.38 107.75 89.89 103.51 84.91 95.85 C 87.30 95.36 89.67 94.79 92.04 94.20 C 92.10 90.02 87.82 87.28 83.97 87.38 C 79.98 87.47 76.13 86.39 72.33 85.32 C 72.37 84.79 72.47 83.72 72.51 83.19 C 83.66 77.80 94.26 71.27 105.83 66.79 C 113.75 62.80 121.47 56.56 130.88 57.54 C 130.18 59.98 129.32 62.36 128.31 64.68 C 126.65 64.00 124.99 63.31 123.33 62.63 C 123.31 66.07 123.51 69.56 122.80 72.96 C 121.97 78.06 118.35 82.09 117.00 87.01 C 115.93 90.79 115.01 94.79 115.79 98.71 C 117.01 100.61 118.68 102.19 119.82 104.15 C 119.30 106.22 117.77 107.82 116.75 109.65 C 119.23 109.46 122.35 110.33 124.15 108.10 C 128.14 104.62 125.36 98.87 127.52 94.58 C 129.04 89.29 133.28 85.70 136.72 81.67 C 140.79 77.19 137.13 70.82 138.70 65.59 C 139.93 63.16 141.63 60.79 143.98 59.33 C 147.78 59.25 151.19 61.10 154.65 62.42 C 154.67 61.71 154.72 60.29 154.75 59.59 C 152.96 58.41 149.58 58.58 149.13 56.13 M 146.75 79.66 C 150.50 79.86 153.80 77.90 157.09 76.42 C 159.36 77.54 161.67 78.70 163.36 80.65 C 165.49 83.20 169.38 83.86 170.62 87.20 C 172.08 90.29 174.50 92.74 177.02 94.98 C 182.76 99.85 183.26 108.36 189.34 112.99 C 189.73 116.60 190.03 120.23 190.26 123.86 C 188.33 127.90 185.31 131.38 181.28 133.41 C 172.40 133.83 163.52 133.51 154.65 133.12 C 150.57 132.23 146.46 130.56 143.84 127.14 C 140.41 122.89 137.44 118.26 133.65 114.30 C 134.56 109.82 134.65 105.24 134.61 100.69 C 137.12 94.84 142.58 91.29 147.17 87.22 C 149.43 85.55 151.29 83.41 153.57 81.77 C 155.25 81.47 156.96 81.41 158.66 81.18 C 157.83 79.20 155.78 78.70 153.94 78.10 C 150.53 80.61 147.50 83.58 144.15 86.16 C 139.59 90.24 134.31 94.05 132.02 99.96 C 130.02 104.04 130.55 108.66 130.56 113.06 C 130.57 115.50 132.57 117.25 134.05 118.97 C 137.26 122.18 139.17 126.42 142.36 129.64 C 146.79 134.33 153.46 135.92 159.64 136.54 C 162.93 137.88 166.53 137.59 170.00 137.62 C 173.73 137.53 177.64 138.01 181.14 136.43 C 185.78 134.34 189.98 130.96 192.02 126.19 C 194.08 122.83 193.41 118.77 193.32 115.04 C 192.09 110.67 187.58 108.32 186.08 104.06 C 184.07 99.08 181.01 94.56 176.86 91.12 C 173.41 88.38 172.98 83.09 168.73 81.24 C 164.68 79.21 162.21 73.82 157.07 74.42 C 153.29 75.04 148.37 75.59 146.75 79.66 M 161.23 89.22 C 161.56 93.26 160.98 97.36 161.57 101.36 C 164.39 104.01 168.45 103.44 172.00 103.57 C 175.14 103.92 178.62 101.34 177.69 97.92 C 173.96 101.38 168.99 100.66 164.35 100.32 C 164.34 96.65 164.54 92.94 163.68 89.34 C 163.06 89.31 161.84 89.25 161.23 89.22 M 116.77 134.04 C 113.10 135.25 110.65 138.38 107.96 140.95 C 104.18 144.65 101.69 149.36 98.54 153.55 C 97.33 155.11 97.08 157.13 96.81 159.02 C 96.20 167.78 93.29 176.23 92.70 184.98 C 93.88 189.55 91.81 193.93 91.17 198.41 C 90.24 204.07 87.16 209.00 85.24 214.33 C 83.87 218.37 78.73 221.45 80.64 226.18 C 83.47 229.12 87.48 230.40 91.22 231.76 C 94.97 233.22 99.09 232.29 102.97 233.13 C 107.67 233.44 112.29 235.34 117.04 234.48 C 119.76 232.83 121.47 229.89 124.34 228.45 C 126.57 227.27 129.24 227.70 131.53 226.67 C 135.62 225.02 139.18 222.35 142.61 219.63 C 146.57 216.43 151.30 214.40 155.31 211.29 C 159.86 207.47 164.83 204.18 169.56 200.59 C 175.06 200.32 180.52 199.28 186.06 199.58 C 192.86 200.32 198.86 193.58 198.60 187.04 C 198.54 182.37 198.74 177.69 198.48 173.02 C 197.48 170.39 195.63 168.22 194.09 165.90 C 189.88 159.96 187.44 152.89 182.59 147.39 C 180.51 144.74 177.29 143.02 174.02 142.46 C 171.22 142.06 169.72 144.96 167.92 146.56 C 159.56 142.41 151.79 137.12 143.06 133.71 C 138.92 132.02 134.35 132.15 129.99 131.54 C 125.40 130.92 121.02 132.57 116.77 134.04 Z" />
<path fill="#fdfdfd" opacity="1.00" d=" M 138.52 53.04 C 139.89 52.76 141.27 52.51 142.64 52.26 C 142.59 53.37 142.54 54.47 142.49 55.58 C 141.14 55.63 139.79 55.67 138.43 55.71 C 138.46 55.05 138.50 53.71 138.52 53.04 Z" />
<path fill="#fdfdfd" opacity="1.00" d=" M 133.48 58.50 C 133.99 58.48 135.00 58.44 135.51 58.42 C 135.53 60.46 135.65 62.51 135.44 64.54 C 134.25 65.66 132.69 66.22 131.25 66.93 C 131.60 64.03 132.55 61.26 133.48 58.50 Z" />
<path fill="#fdfdfd" opacity="1.00" d=" M 130.38 74.34 C 129.99 71.61 132.29 69.97 134.52 69.12 C 134.04 71.19 133.95 73.51 132.65 75.27 C 131.88 76.18 131.08 77.07 130.29 77.96 C 130.31 76.75 130.34 75.54 130.38 74.34 Z" />
<path fill="#fdfdfd" opacity="1.00" d=" M 183.70 84.00 C 183.95 83.50 184.46 82.50 184.71 82.00 C 187.84 86.66 192.26 91.54 191.56 97.56 C 187.88 93.79 185.65 88.83 183.70 84.00 Z" />
<path fill="#fdfdfd" opacity="1.00" d=" M 124.99 84.22 C 125.58 85.04 126.20 85.84 126.88 86.60 C 125.80 88.84 124.46 90.95 123.68 93.32 C 123.34 95.85 123.47 98.42 123.30 100.96 C 121.43 100.49 119.81 99.48 118.33 98.27 C 119.95 96.16 122.00 94.31 123.07 91.83 C 123.77 89.31 124.29 86.74 124.99 84.22 Z" />
<path fill="#fdfdfd" opacity="1.00" d=" M 78.95 89.65 C 81.79 89.44 84.62 89.76 87.34 90.60 C 87.47 91.12 87.72 92.18 87.85 92.71 C 84.45 93.17 80.97 92.70 78.95 89.65 Z" />
<path fill="#fdfdfd" opacity="1.00" d=" M 66.35 111.38 C 70.19 109.36 73.20 104.94 78.00 105.55 C 82.43 105.29 86.23 108.07 90.48 108.89 C 96.32 110.94 97.07 118.02 100.36 122.42 C 101.81 122.53 103.26 122.59 104.71 122.60 C 103.86 127.90 102.17 133.32 98.11 137.08 C 94.81 139.98 92.84 143.91 90.48 147.52 C 86.62 150.74 83.58 156.04 78.05 156.31 C 73.50 155.62 68.69 155.43 64.46 153.45 C 62.11 151.68 59.54 149.17 59.69 145.99 C 59.94 142.16 58.24 138.60 58.21 134.80 C 62.45 133.48 67.43 132.98 70.49 129.39 C 71.54 126.14 69.89 123.01 67.96 120.50 C 65.06 120.47 62.16 120.35 59.26 120.15 C 59.31 120.72 59.42 121.86 59.47 122.43 C 62.06 123.20 64.74 123.52 67.43 123.68 C 67.58 125.33 67.71 126.99 67.76 128.65 C 64.04 130.40 60.00 131.27 56.14 132.65 C 55.68 131.98 54.77 130.63 54.32 129.96 C 55.29 126.17 56.07 122.27 57.75 118.71 C 59.66 115.34 62.98 113.12 66.35 111.38 Z" />
<path fill="#fdfdfd" opacity="1.00" d=" M 35.76 116.97 C 36.74 117.61 37.73 118.23 38.65 118.95 C 36.41 124.17 35.47 129.99 31.75 134.47 C 30.90 129.88 31.43 125.22 31.38 120.59 L 31.38 119.42 C 32.29 120.83 32.69 124.78 35.10 123.35 C 35.40 121.23 35.52 119.09 35.76 116.97 Z" />
<path fill="#fdfdfd" opacity="1.00" d=" M 279.90 129.29 C 280.66 127.63 281.44 125.99 282.28 124.38 C 282.66 126.57 282.82 129.10 279.90 129.29 Z" />
<path fill="#fdfdfd" opacity="1.00" d=" M 115.45 137.38 C 120.34 135.75 125.32 133.84 130.58 134.47 C 130.68 139.76 130.85 145.07 130.57 150.36 C 127.30 149.10 124.08 147.69 121.04 145.96 C 119.13 143.13 117.45 140.15 115.45 137.38 Z" />
<path fill="#fdfdfd" opacity="1.00" d=" M 133.54 135.30 C 137.17 135.12 140.87 135.41 144.23 136.91 C 152.21 140.34 159.18 145.73 167.19 149.11 C 170.96 149.38 174.11 151.44 177.38 153.11 C 177.42 152.40 177.51 150.99 177.56 150.28 C 175.80 149.28 174.03 148.30 172.24 147.38 C 172.29 146.80 172.39 145.62 172.44 145.03 C 175.32 145.45 178.27 146.50 180.18 148.82 C 184.97 154.04 187.29 160.91 191.32 166.67 C 192.67 168.93 194.68 170.90 195.47 173.43 C 195.89 178.25 195.72 183.11 195.67 187.94 C 195.67 191.53 193.12 194.76 189.99 196.31 C 185.93 196.97 181.79 196.79 177.70 196.68 C 177.62 191.27 175.82 184.67 179.86 180.29 C 184.79 182.11 188.46 185.93 192.90 188.53 C 193.27 184.74 189.67 182.76 186.98 180.93 C 184.34 179.19 181.01 177.26 177.82 178.79 C 175.16 180.29 175.03 183.54 174.16 186.13 C 172.67 184.43 171.31 182.63 170.30 180.62 C 168.25 176.57 164.62 173.68 161.41 170.60 C 159.35 168.57 155.88 169.13 153.72 170.71 C 149.02 173.48 145.53 177.75 141.89 181.72 C 139.89 180.31 137.97 178.79 136.02 177.31 C 130.81 179.75 126.10 183.87 124.35 189.51 C 123.28 193.05 121.34 196.20 119.66 199.47 C 120.42 199.48 121.94 199.51 122.70 199.53 C 126.48 194.37 126.74 187.13 132.02 183.05 C 133.21 182.21 134.27 180.67 135.85 180.73 C 137.70 181.92 139.32 183.42 141.04 184.79 C 147.17 181.95 150.09 174.93 156.45 172.43 C 157.61 172.24 159.08 172.04 160.00 172.98 C 162.97 175.55 165.58 178.50 168.23 181.40 C 166.16 183.59 163.45 185.36 162.37 188.31 C 161.37 191.00 159.94 193.49 158.08 195.69 C 155.50 193.90 152.71 191.50 149.32 192.47 C 145.99 193.46 141.97 195.28 141.27 199.09 C 139.65 203.21 139.42 207.58 139.55 211.95 C 136.88 209.60 134.24 207.09 130.93 205.65 C 126.31 204.13 120.99 206.56 118.85 210.87 C 116.66 215.33 114.98 220.02 112.79 224.48 C 109.79 222.01 107.47 218.80 104.24 216.62 C 103.15 216.20 101.89 216.14 100.82 216.65 C 96.58 218.59 93.30 222.01 89.37 224.46 C 89.39 225.22 89.42 226.74 89.43 227.50 C 93.59 225.49 96.68 221.90 100.77 219.79 C 101.63 219.30 102.54 219.19 103.49 219.46 C 106.53 221.77 108.75 224.96 111.67 227.40 C 112.61 227.85 114.04 227.92 114.43 226.70 C 117.32 222.15 118.98 216.98 121.33 212.16 C 122.47 209.37 125.58 208.57 128.05 207.40 C 133.32 209.42 137.83 213.13 139.90 218.50 C 136.78 220.56 133.49 222.36 130.20 224.13 C 127.60 224.89 124.64 224.74 122.38 226.42 C 120.15 227.81 118.42 229.82 116.42 231.50 C 113.41 232.22 110.31 231.35 107.35 230.75 C 103.92 230.08 100.40 230.56 96.94 230.21 C 92.24 229.36 87.60 227.82 83.54 225.26 C 82.25 221.79 86.23 219.46 87.30 216.47 C 89.73 210.35 93.16 204.52 94.17 197.93 C 94.97 193.63 97.29 189.39 95.64 184.99 C 96.06 178.70 98.40 172.71 98.65 166.41 C 100.12 161.74 98.79 156.20 102.54 152.41 C 105.15 151.27 106.61 154.85 108.34 156.26 C 106.30 156.32 104.22 156.39 102.66 157.91 C 104.58 158.78 106.52 159.61 108.41 160.53 C 108.44 161.17 108.51 162.45 108.54 163.08 C 105.57 164.57 102.56 166.02 99.91 168.03 C 100.41 168.39 101.43 169.10 101.93 169.45 C 104.83 168.25 107.57 166.71 110.44 165.46 C 110.87 163.93 111.31 162.40 111.73 160.87 C 114.55 162.22 117.61 164.67 120.83 163.10 C 125.23 160.41 123.19 154.69 123.66 150.48 C 126.49 151.72 129.28 153.09 132.28 153.89 C 133.64 150.82 133.75 147.47 133.74 144.17 C 138.01 145.48 144.54 147.76 147.19 142.72 C 148.48 141.54 146.25 140.16 145.15 140.02 C 144.11 141.14 143.22 142.39 142.24 143.57 C 139.27 142.86 136.29 142.11 133.54 140.75 C 133.53 138.93 133.53 137.12 133.54 135.30 Z" />
<path fill="#fdfdfd" opacity="1.00" d=" M 106.38 147.46 C 107.92 144.18 111.04 141.81 113.71 139.41 C 116.04 142.78 117.42 146.79 120.53 149.59 C 120.98 153.23 120.71 156.94 120.40 160.59 C 116.86 161.19 114.13 158.45 110.75 158.02 C 110.61 156.76 110.56 155.48 110.26 154.24 C 108.59 152.20 105.27 150.62 106.38 147.46 Z" />
<path fill="#fdfdfd" opacity="1.00" d=" M 255.35 151.35 C 252.84 149.87 252.95 147.18 255.30 145.62 C 255.51 147.52 255.55 149.44 255.35 151.35 Z" />
<path fill="#fdfdfd" opacity="1.00" d=" M 241.05 168.43 C 241.78 168.51 243.25 168.65 243.99 168.72 C 243.56 170.36 242.87 171.90 241.96 173.32 C 241.59 171.70 241.31 170.07 241.05 168.43 Z" />
<path fill="#fdfdfd" opacity="1.00" d=" M 253.51 168.55 C 254.04 168.50 255.09 168.41 255.62 168.36 C 255.67 169.52 255.73 170.68 255.78 171.84 C 255.16 171.82 253.92 171.77 253.30 171.74 C 253.37 170.67 253.44 169.61 253.51 168.55 Z" />
<path fill="#fdfdfd" opacity="1.00" d=" M 29.20 174.63 C 29.97 174.88 31.52 175.39 32.29 175.64 C 34.94 181.18 34.35 187.59 36.80 193.18 C 38.07 196.35 38.40 199.84 40.15 202.83 C 42.11 206.26 42.88 210.18 42.63 214.12 C 36.79 205.94 31.88 196.27 32.40 185.96 C 31.79 182.08 30.00 178.48 29.20 174.63 Z" />
<path fill="#fdfdfd" opacity="1.00" d=" M 164.55 190.35 C 165.51 188.17 166.71 184.74 169.71 185.28 C 174.29 187.50 174.90 192.79 174.76 197.34 C 172.76 197.50 170.62 197.04 168.74 197.83 C 159.94 203.85 152.02 211.17 142.45 216.01 C 142.87 210.48 141.54 204.53 144.39 199.46 C 145.63 195.85 149.94 194.60 153.35 195.59 C 155.28 196.72 156.12 198.89 157.26 200.70 C 157.73 200.68 158.67 200.64 159.14 200.63 C 159.61 196.54 163.51 194.21 164.55 190.35 Z" />
<path fill="#fdfdfd" opacity="1.00" d=" M 253.46 190.42 C 254.00 190.41 255.10 190.39 255.64 190.39 C 255.68 191.51 255.73 192.64 255.77 193.76 C 255.17 193.75 253.97 193.72 253.36 193.71 C 253.39 192.61 253.42 191.51 253.46 190.42 Z" />
<path fill="#fdfdfd" opacity="1.00" d=" M 241.93 210.85 C 242.70 212.38 243.47 213.92 244.19 215.48 C 243.40 215.52 241.80 215.61 241.01 215.65 C 241.31 214.05 241.61 212.44 241.93 210.85 Z" />
<path fill="#fdfdfd" opacity="1.00" d=" M 265.53 212.62 C 266.20 212.21 266.88 211.80 267.56 211.39 C 267.86 212.68 268.25 213.96 268.39 215.29 C 267.53 215.80 266.64 216.24 265.76 216.71 C 265.66 215.34 265.59 213.98 265.53 212.62 Z" />
<path fill="#fdfdfd" opacity="1.00" d=" M 253.43 212.41 C 253.98 212.40 255.09 212.38 255.65 212.37 C 255.70 213.48 255.76 214.60 255.82 215.71 C 255.20 215.70 253.96 215.67 253.35 215.66 C 253.37 214.57 253.40 213.49 253.43 212.41 Z" />
<path fill="#fdfdfd" opacity="1.00" d=" M 45.50 222.30 C 47.70 223.78 49.92 225.44 51.09 227.90 C 52.46 230.10 53.10 232.99 55.48 234.39 C 58.74 236.33 61.93 238.42 65.39 240.00 L 48.67 240.00 C 45.91 234.58 45.42 228.28 45.50 222.30 Z" />
</g>
<g id="#d13b00f6">
<path fill="#d13b00" opacity="0.96" d=" M 212.31 55.49 C 214.48 55.00 216.72 54.27 218.97 54.72 C 221.35 55.66 222.55 58.03 223.99 59.97 C 225.94 57.47 228.28 53.96 231.95 54.60 C 234.52 55.60 236.17 57.92 237.95 59.91 C 239.52 57.68 241.28 55.33 244.03 54.53 C 246.00 54.61 247.69 55.81 249.46 56.56 C 249.48 57.60 249.49 58.65 249.51 59.69 C 247.37 58.85 245.16 56.47 242.75 57.67 C 240.62 59.16 241.57 62.12 241.33 64.32 C 242.22 65.08 243.12 65.83 244.02 66.59 C 245.82 65.46 247.62 64.33 249.45 63.24 C 249.47 64.37 249.49 65.49 249.51 66.62 C 247.38 67.60 245.09 69.23 242.64 68.31 C 240.55 67.09 239.24 64.98 237.95 63.01 C 236.18 65.36 234.45 68.82 231.00 68.58 C 227.52 68.87 225.68 65.40 223.86 63.03 C 222.74 64.84 221.56 66.62 220.36 68.38 C 217.73 68.49 215.10 68.47 212.47 68.42 C 212.22 64.11 212.30 59.80 212.31 55.49 M 214.69 57.91 C 214.66 60.58 214.66 63.25 214.66 65.92 C 217.11 67.02 219.97 66.36 220.90 63.62 C 222.70 60.48 219.53 57.82 217.20 56.22 C 216.57 56.64 215.32 57.49 214.69 57.91 M 227.24 61.91 C 226.98 64.37 229.53 65.52 231.03 66.97 C 232.22 65.84 233.55 64.80 234.50 63.44 C 235.20 61.10 234.39 57.85 231.75 57.28 C 229.06 56.54 226.83 59.40 227.24 61.91 Z" />
<path fill="#d13b00" opacity="0.96" d=" M 169.46 56.27 C 175.52 56.44 180.21 60.73 184.71 64.27 C 189.82 68.75 195.49 73.01 198.90 79.02 C 202.08 86.61 203.32 94.86 206.36 102.51 C 208.16 106.92 208.69 111.69 209.90 116.27 C 211.06 120.87 211.75 125.61 211.34 130.37 C 209.76 128.20 208.56 125.79 207.71 123.24 C 204.45 113.87 196.26 106.86 194.61 96.82 C 193.41 89.50 190.45 82.20 185.11 76.91 C 182.40 74.18 179.89 71.21 178.16 67.75 C 176.04 63.36 172.19 60.24 169.46 56.27 Z" />
<path fill="#d13b00" opacity="0.96" d=" M 252.54 65.08 C 253.50 65.60 254.47 66.12 255.43 66.65 C 255.33 67.80 255.24 68.95 255.15 70.10 C 254.31 70.22 253.48 70.35 252.64 70.47 C 252.59 68.67 252.53 66.88 252.54 65.08 Z" />
<path fill="#d13b00" opacity="0.96" d=" M 213.44 88.62 C 208.70 84.76 213.03 76.32 218.82 77.30 C 221.43 77.15 222.64 79.69 223.00 81.87 C 220.90 81.02 218.87 80.02 216.80 79.10 C 213.71 81.74 213.76 86.31 216.81 88.97 C 218.81 88.00 220.77 86.95 222.76 85.96 C 222.67 87.14 222.58 88.32 222.48 89.50 C 219.57 90.77 215.59 91.70 213.44 88.62 Z" />
<path fill="#d13b00" opacity="0.96" d=" M 225.44 77.51 C 226.16 77.51 227.60 77.53 228.32 77.53 C 228.32 78.85 228.32 80.17 228.30 81.50 C 227.61 81.49 226.21 81.48 225.52 81.47 C 225.49 80.15 225.47 78.83 225.44 77.51 Z" />
<path fill="#d13b00" opacity="0.96" d=" M 230.64 77.43 C 231.60 77.45 233.52 77.50 234.48 77.52 C 234.87 82.20 232.08 86.32 231.99 90.97 C 231.60 90.46 230.83 89.45 230.45 88.94 C 230.26 85.10 230.57 81.26 230.64 77.43 Z" />
<path fill="#d13b00" opacity="0.96" d=" M 238.63 77.51 C 239.93 77.47 241.24 77.43 242.56 77.39 C 242.28 82.06 242.95 86.78 242.11 91.41 C 240.60 86.91 238.17 82.39 238.63 77.51 Z" />
<path fill="#d13b00" opacity="0.96" d=" M 249.42 77.44 C 253.83 76.06 258.43 80.38 257.58 84.85 C 257.48 89.88 250.44 92.93 246.95 89.09 C 242.93 85.83 244.61 78.84 249.42 77.44 M 249.48 80.15 C 245.26 82.37 248.38 90.47 252.75 88.12 C 257.04 86.04 254.05 76.96 249.48 80.15 Z" />
<path fill="#d13b00" opacity="0.96" d=" M 278.51 77.37 C 279.83 77.43 281.16 77.50 282.49 77.57 C 283.31 82.50 280.72 86.89 278.88 91.26 C 277.96 86.68 278.54 82.00 278.51 77.37 Z" />
<path fill="#d13b00" opacity="0.96" d=" M 286.66 77.51 C 287.95 77.47 289.25 77.44 290.56 77.41 C 290.38 81.38 290.93 85.40 290.41 89.34 C 290.04 89.73 289.30 90.50 288.92 90.88 C 289.14 86.21 286.05 82.15 286.66 77.51 Z" />
<path fill="#d13b00" opacity="0.96" d=" M 293.77 77.58 C 295.01 77.50 296.25 77.43 297.49 77.35 C 299.51 81.91 295.86 86.07 295.33 90.56 C 294.91 90.53 294.07 90.48 293.65 90.46 C 293.64 86.16 293.70 81.87 293.77 77.58 Z" />
<path fill="#d13b00" opacity="0.96" d=" M 302.36 77.41 C 303.69 77.45 305.03 77.49 306.37 77.54 C 306.46 81.86 306.52 86.18 306.48 90.50 C 306.01 90.52 305.08 90.58 304.61 90.61 C 303.89 86.19 301.68 81.99 302.36 77.41 Z" />
<path fill="#d13b00" opacity="0.96" d=" M 259.80 77.65 C 260.36 77.57 261.49 77.40 262.06 77.32 C 264.07 79.98 265.34 83.13 267.37 85.79 C 267.63 82.69 267.28 79.42 268.98 76.64 C 271.49 81.07 269.16 86.05 269.51 90.79 C 268.63 90.66 267.76 90.53 266.88 90.40 C 265.65 87.44 264.11 84.58 261.76 82.35 C 261.65 85.38 261.78 88.44 261.26 91.45 C 258.23 87.56 260.07 82.21 259.80 77.65 Z" />
<path fill="#d13b00" opacity="0.96" d=" M 283.07 85.39 C 283.79 85.40 285.23 85.42 285.95 85.42 C 285.77 87.53 285.31 89.61 283.95 91.29 C 283.56 89.34 283.31 87.37 283.07 85.39 Z" />
<path fill="#d13b00" opacity="0.96" d=" M 300.03 91.15 C 298.14 88.79 298.38 85.99 299.99 83.54 C 301.74 85.95 301.68 88.72 300.03 91.15 Z" />
<path fill="#d13b00" opacity="0.96" d=" M 236.18 86.68 C 237.61 86.27 238.03 88.70 236.82 89.19 C 235.38 89.61 234.97 87.18 236.18 86.68 Z" />
<path fill="#d13b00" opacity="0.96" d=" M 224.55 98.48 C 225.54 98.52 226.53 98.56 227.53 98.59 C 229.82 103.41 225.95 107.95 224.94 112.57 C 222.64 108.15 223.86 103.14 224.55 98.48 Z" />
<path fill="#d13b00" opacity="0.96" d=" M 232.83 98.56 C 233.97 98.59 235.11 98.62 236.26 98.64 C 236.35 102.93 236.41 107.22 236.43 111.51 C 235.98 111.56 235.06 111.66 234.60 111.72 C 234.33 108.54 233.42 105.45 231.68 102.76 C 232.07 101.36 232.45 99.96 232.83 98.56 Z" />
<path fill="#d13b00" opacity="0.96" d=" M 239.61 98.54 C 240.76 98.58 241.92 98.63 243.07 98.67 C 243.47 101.61 244.38 104.46 246.08 106.93 C 246.97 104.27 247.56 101.52 247.92 98.74 C 249.10 98.64 250.28 98.54 251.46 98.45 C 251.59 102.86 251.60 107.26 251.65 111.67 C 251.14 111.65 250.12 111.60 249.61 111.57 C 249.55 109.37 249.46 107.17 249.25 104.98 C 247.04 106.53 246.85 109.33 246.23 111.72 C 245.86 111.66 245.13 111.52 244.76 111.45 C 244.25 109.27 243.69 107.10 243.01 104.97 C 241.76 107.00 241.49 109.35 241.32 111.67 C 240.85 111.65 239.90 111.62 239.43 111.60 C 239.47 107.25 239.49 102.90 239.61 98.54 Z" />
<path fill="#d13b00" opacity="0.96" d=" M 255.49 98.49 C 256.48 98.53 257.47 98.56 258.47 98.59 C 260.71 103.43 256.94 107.97 255.94 112.61 C 253.72 108.19 254.68 103.14 255.49 98.49 Z" />
<path fill="#d13b00" opacity="0.96" d=" M 263.67 98.52 C 264.86 98.57 266.06 98.63 267.25 98.69 C 267.34 102.96 267.42 107.24 267.46 111.52 C 267.00 111.56 266.08 111.65 265.62 111.70 C 265.33 107.17 261.48 103.02 263.67 98.52 Z" />
<path fill="#d13b00" opacity="0.96" d=" M 270.60 98.53 C 271.75 98.58 272.90 98.63 274.05 98.68 C 274.40 101.64 275.34 104.50 277.09 106.96 C 278.00 104.28 278.57 101.50 278.84 98.69 C 280.02 98.76 281.35 98.40 282.40 99.13 C 282.69 103.29 282.52 107.47 282.62 111.63 C 282.10 111.63 281.07 111.61 280.56 111.60 C 280.51 109.38 280.43 107.16 280.24 104.95 C 278.07 106.49 277.78 109.21 277.19 111.59 C 276.84 111.58 276.16 111.57 275.81 111.56 C 275.15 109.24 274.83 106.60 272.78 105.03 C 272.57 107.22 272.50 109.42 272.46 111.62 C 271.95 111.62 270.91 111.62 270.40 111.62 C 270.44 107.25 270.46 102.89 270.60 98.53 Z" />
<path fill="#d13b00" opacity="0.96" d=" M 285.76 98.72 C 286.96 98.64 288.17 98.55 289.38 98.47 C 289.71 99.91 290.25 101.33 290.32 102.82 C 288.91 106.15 287.73 109.55 286.98 113.09 C 284.64 108.65 285.91 103.51 285.76 98.72 Z" />
<path fill="#d13b00" opacity="0.96" d=" M 294.55 98.59 C 295.58 98.57 296.60 98.54 297.64 98.51 C 298.43 103.12 299.44 108.29 297.03 112.58 C 296.25 107.91 292.63 103.38 294.55 98.59 Z" />
<path fill="#d13b00" opacity="0.96" d=" M 230.01 112.46 C 228.42 110.12 228.20 107.48 229.98 105.16 C 231.86 107.45 231.77 110.15 230.01 112.46 Z" />
<path fill="#d13b00" opacity="0.96" d=" M 262.06 111.60 C 258.25 112.23 259.54 106.95 261.00 105.19 C 262.14 107.13 262.92 109.39 262.06 111.60 Z" />
<path fill="#d13b00" opacity="0.96" d=" M 293.01 111.57 C 289.26 112.28 290.55 106.89 292.01 105.17 C 293.06 107.13 293.95 109.38 293.01 111.57 Z" />
<path fill="#d13b00" opacity="0.96" d=" M 230.54 120.45 C 231.72 120.49 232.91 120.54 234.11 120.59 C 234.53 123.19 235.14 125.75 235.87 128.29 C 238.41 126.46 238.62 123.45 238.84 120.61 C 240.04 120.55 241.24 120.49 242.44 120.44 C 242.53 124.82 242.57 129.20 242.57 133.58 C 242.09 133.58 241.13 133.59 240.64 133.60 C 240.54 130.98 240.56 128.26 238.96 126.03 C 238.31 128.50 237.76 131.00 237.27 133.51 C 236.86 133.53 236.03 133.57 235.61 133.58 C 235.30 131.17 236.17 127.65 232.56 127.91 C 232.52 129.83 232.51 131.75 232.50 133.67 C 231.97 133.64 230.91 133.58 230.39 133.55 C 230.42 129.18 230.45 124.82 230.54 120.45 Z" />
<path fill="#d13b00" opacity="0.96" d=" M 246.32 120.43 C 247.38 120.45 248.44 120.47 249.50 120.49 C 251.70 125.37 247.81 129.71 246.94 134.41 C 244.72 130.07 245.60 125.04 246.32 120.43 Z" />
<path fill="#d13b00" opacity="0.96" d=" M 254.54 120.42 C 255.78 120.48 257.02 120.56 258.26 120.63 C 258.33 124.91 258.39 129.19 258.43 133.47 C 257.97 133.51 257.06 133.59 256.60 133.63 C 256.28 129.09 252.41 124.95 254.54 120.42 Z" />
<path fill="#d13b00" opacity="0.96" d=" M 261.49 120.50 C 262.76 120.51 264.03 120.52 265.30 120.53 C 266.16 125.43 263.58 129.95 261.89 134.37 C 261.01 129.80 261.61 125.12 261.49 120.50 Z" />
<path fill="#d13b00" opacity="0.96" d=" M 269.68 120.22 C 270.95 120.41 272.22 120.66 273.47 120.97 C 273.20 125.31 274.86 130.42 271.98 134.10 C 272.12 129.26 268.88 125.05 269.68 120.22 Z" />
<path fill="#d13b00" opacity="0.96" d=" M 280.00 120.36 C 281.03 120.47 282.07 120.58 283.10 120.69 C 284.27 124.60 285.52 128.50 287.15 132.25 C 289.89 128.67 290.50 124.07 292.42 120.09 C 293.62 120.57 295.38 120.55 295.68 122.13 C 297.25 126.08 298.71 130.10 299.75 134.23 C 297.64 133.13 295.84 131.56 293.82 130.33 C 291.33 130.39 290.43 133.81 287.86 133.63 C 285.15 134.21 283.91 131.25 281.72 130.41 C 279.64 129.92 278.75 132.47 277.42 133.58 C 276.88 133.58 275.79 133.59 275.24 133.59 C 276.78 129.16 278.19 124.68 280.00 120.36 M 279.30 123.66 C 279.41 125.54 279.61 127.42 279.90 129.29 C 282.82 129.10 282.66 126.57 282.28 124.38 C 282.43 124.08 282.73 123.49 282.89 123.19 C 281.69 123.34 280.49 123.50 279.30 123.66 M 292.43 124.47 C 292.36 125.84 292.30 127.21 292.25 128.58 C 292.89 128.58 294.17 128.57 294.81 128.57 C 294.77 127.20 294.73 125.82 294.70 124.45 C 294.13 124.46 293.00 124.46 292.43 124.47 Z" />
<path fill="#d13b00" opacity="0.96" d=" M 252.74 133.56 C 249.16 133.99 250.60 128.71 252.03 127.10 C 252.92 129.12 254.06 131.43 252.74 133.56 Z" />
<path fill="#d13b00" opacity="0.96" d=" M 266.36 128.73 C 269.21 128.61 268.47 131.55 268.71 133.45 C 268.14 133.46 266.99 133.49 266.42 133.51 C 266.38 131.91 266.35 130.32 266.36 128.73 Z" />
<path fill="#d13b00" opacity="0.96" d=" M 240.33 144.03 C 240.64 142.47 242.42 142.55 243.61 142.06 C 245.38 145.99 246.47 150.18 248.20 154.13 C 250.81 150.68 251.64 146.36 253.14 142.40 C 254.18 142.45 255.23 142.50 256.28 142.56 C 257.61 146.19 258.42 150.04 260.26 153.46 C 260.55 153.49 261.14 153.54 261.44 153.56 C 263.04 150.08 263.97 146.34 264.99 142.65 C 266.12 142.56 267.25 142.46 268.39 142.37 C 269.89 146.37 271.08 150.48 272.89 154.36 C 275.16 150.65 276.25 146.42 277.68 142.36 C 278.79 142.45 279.90 142.55 281.02 142.66 C 282.06 147.25 284.92 151.46 284.65 156.30 C 283.16 155.06 281.82 153.66 280.30 152.46 C 277.19 151.29 275.97 155.98 273.00 155.61 C 270.68 155.75 269.56 153.23 267.68 152.29 C 265.15 151.71 263.93 154.36 262.38 155.81 C 259.56 155.93 257.53 154.14 255.53 152.45 C 253.03 151.47 251.84 154.38 250.32 155.76 C 249.13 155.61 247.92 155.53 246.76 155.25 C 245.17 154.32 244.11 152.32 242.14 152.23 C 240.05 153.33 238.31 154.97 236.27 156.17 C 237.21 152.00 238.74 147.98 240.33 144.03 M 279.19 144.95 C 278.49 146.73 277.83 148.53 277.20 150.34 C 278.45 150.38 279.71 150.42 280.97 150.45 C 280.45 148.59 279.84 146.76 279.19 144.95 M 241.83 145.71 C 241.38 147.20 240.95 148.69 240.53 150.18 C 241.80 150.33 243.08 150.47 244.36 150.61 C 244.29 149.62 244.23 148.64 244.17 147.66 C 243.39 147.01 242.60 146.36 241.83 145.71 M 265.57 146.38 C 265.53 147.76 265.50 149.14 265.48 150.52 C 266.49 150.50 267.50 150.48 268.51 150.47 C 268.43 149.18 268.36 147.90 268.30 146.62 C 267.38 146.54 266.47 146.46 265.57 146.38 M 255.35 151.35 C 255.55 149.44 255.51 147.52 255.30 145.62 C 252.95 147.18 252.84 149.87 255.35 151.35 Z" />
<path fill="#d13b00" opacity="0.96" d=" M 240.75 164.37 C 241.88 164.40 243.02 164.43 244.16 164.46 C 245.39 168.38 246.60 172.31 248.21 176.10 C 250.67 172.64 251.65 168.46 252.85 164.47 C 254.00 164.43 255.16 164.40 256.31 164.38 C 257.55 167.98 258.73 171.61 259.90 175.24 C 260.27 175.34 261.01 175.55 261.38 175.65 C 262.78 171.99 264.02 168.27 265.02 164.48 C 266.32 164.47 267.62 164.48 268.92 164.52 C 269.84 168.56 271.07 172.55 273.01 176.22 C 275.06 172.45 276.24 168.30 277.67 164.27 C 278.79 164.37 279.92 164.47 281.05 164.58 C 282.29 169.17 284.28 173.51 285.49 178.11 C 283.44 177.01 281.70 175.44 279.73 174.25 C 276.93 173.97 275.79 177.82 273.01 177.57 C 270.18 177.87 269.16 173.58 266.28 174.30 C 264.52 174.73 263.63 176.67 262.32 177.79 C 259.04 177.73 256.71 175.31 254.13 173.64 C 252.44 174.95 251.33 177.77 248.87 177.56 C 246.06 178.12 244.70 175.19 242.89 173.65 C 240.69 175.14 238.61 176.80 236.28 178.07 C 237.27 173.35 239.27 168.94 240.75 164.37 M 265.32 167.33 C 265.13 169.18 264.96 171.03 264.79 172.88 C 266.23 172.87 267.67 172.87 269.11 172.86 C 268.93 171.04 268.75 169.22 268.57 167.40 C 267.49 167.37 266.40 167.35 265.32 167.33 M 276.76 172.86 C 278.57 172.81 280.38 172.73 282.20 172.63 C 281.42 170.34 280.40 168.13 278.99 166.15 C 277.84 168.24 277.15 170.52 276.76 172.86 M 241.05 168.43 C 241.31 170.07 241.59 171.70 241.96 173.32 C 242.87 171.90 243.56 170.36 243.99 168.72 C 243.25 168.65 241.78 168.51 241.05 168.43 M 253.51 168.55 C 253.44 169.61 253.37 170.67 253.30 171.74 C 253.92 171.77 255.16 171.82 255.78 171.84 C 255.73 170.68 255.67 169.52 255.62 168.36 C 255.09 168.41 254.04 168.50 253.51 168.55 Z" />
<path fill="#d13b00" opacity="0.96" d=" M 240.47 187.49 C 240.88 185.85 243.04 186.00 244.14 186.80 C 245.79 190.44 246.20 194.67 248.89 197.81 C 250.48 194.03 251.75 190.13 252.91 186.21 C 254.01 186.31 255.12 186.38 256.21 186.60 C 258.05 190.28 258.69 194.48 260.99 197.96 C 262.72 194.27 263.99 190.38 264.99 186.43 C 266.31 186.43 267.63 186.45 268.95 186.49 C 269.86 190.47 271.10 194.39 273.00 198.02 C 275.03 194.32 276.21 190.25 277.61 186.29 C 278.75 186.35 279.91 186.41 281.06 186.48 C 282.07 191.08 285.13 195.29 284.53 200.15 C 283.02 198.78 281.60 197.32 280.22 195.83 C 277.80 196.45 275.96 198.18 273.88 199.45 C 271.24 200.07 269.81 197.21 267.70 196.21 C 264.82 195.58 263.65 199.54 260.89 199.51 C 258.37 199.80 257.14 196.91 255.42 195.58 C 253.34 196.68 251.55 198.23 249.51 199.39 C 246.66 200.37 245.02 197.53 243.35 195.80 C 240.77 196.38 238.90 198.28 236.87 199.82 C 236.83 195.48 239.01 191.48 240.47 187.49 M 264.59 194.82 C 266.18 194.81 267.77 194.80 269.36 194.78 C 268.87 192.38 268.15 190.03 267.06 187.83 C 265.60 189.90 264.84 192.31 264.59 194.82 M 240.85 190.39 C 241.22 192.05 241.59 193.71 242.02 195.36 C 242.84 193.81 243.57 192.22 244.19 190.58 C 243.36 190.53 241.69 190.44 240.85 190.39 M 253.46 190.42 C 253.42 191.51 253.39 192.61 253.36 193.71 C 253.97 193.72 255.17 193.75 255.77 193.76 C 255.73 192.64 255.68 191.51 255.64 190.39 C 255.10 190.39 254.00 190.41 253.46 190.42 M 277.93 190.23 C 277.81 191.03 277.57 192.63 277.45 193.42 C 278.49 193.60 279.54 193.77 280.60 193.94 C 280.58 192.79 280.56 191.65 280.54 190.52 C 279.89 190.45 278.58 190.30 277.93 190.23 Z" />
<path fill="#d13b00" opacity="0.96" d=" M 240.66 208.36 C 241.76 208.30 242.87 208.26 243.98 208.21 C 245.45 212.21 246.50 216.42 248.77 220.08 C 250.35 216.26 251.65 212.32 252.84 208.36 C 254.00 208.32 255.15 208.28 256.32 208.26 C 257.66 212.20 258.77 216.28 260.97 219.87 C 262.72 216.13 263.93 212.17 265.25 208.27 C 266.36 208.27 267.47 208.27 268.59 208.28 C 270.26 211.97 270.27 216.80 273.76 219.39 C 275.09 215.59 276.30 211.76 277.67 207.98 C 278.89 208.38 280.86 208.00 281.30 209.58 C 282.75 213.55 284.74 217.50 284.77 221.82 C 282.78 220.33 280.91 218.70 278.98 217.15 C 277.46 218.56 275.99 220.02 274.51 221.47 C 273.52 221.46 272.53 221.45 271.54 221.45 C 270.06 219.99 268.58 218.53 267.05 217.13 C 264.80 218.63 263.10 221.80 260.07 221.47 C 258.19 220.40 256.76 218.73 254.99 217.51 C 252.19 218.16 250.75 222.20 247.55 221.38 C 245.61 220.16 244.14 218.28 241.99 217.40 C 240.26 218.75 238.76 220.37 237.10 221.81 C 236.23 217.12 239.72 212.87 240.66 208.36 M 241.93 210.85 C 241.61 212.44 241.31 214.05 241.01 215.65 C 241.80 215.61 243.40 215.52 244.19 215.48 C 243.47 213.92 242.70 212.38 241.93 210.85 M 265.53 212.62 C 265.59 213.98 265.66 215.34 265.76 216.71 C 266.64 216.24 267.53 215.80 268.39 215.29 C 268.25 213.96 267.86 212.68 267.56 211.39 C 266.88 211.80 266.20 212.21 265.53 212.62 M 278.10 211.50 C 277.92 213.13 277.79 214.77 277.72 216.41 C 278.44 216.36 279.87 216.26 280.59 216.21 C 280.53 214.74 280.46 213.28 280.38 211.82 C 279.81 211.74 278.67 211.58 278.10 211.50 M 253.43 212.41 C 253.40 213.49 253.37 214.57 253.35 215.66 C 253.96 215.67 255.20 215.70 255.82 215.71 C 255.76 214.60 255.70 213.48 255.65 212.37 C 255.09 212.38 253.98 212.40 253.43 212.41 Z" />
<path fill="#d13b00" opacity="0.96" d=" M 240.81 230.14 C 241.64 230.16 243.31 230.22 244.14 230.25 C 245.22 233.49 246.30 236.74 247.34 240.00 L 237.13 240.00 C 238.51 236.77 239.61 233.44 240.81 230.14 M 241.71 232.95 C 241.45 234.50 241.19 236.05 240.94 237.61 C 241.66 237.62 243.11 237.64 243.84 237.65 C 243.76 236.60 243.69 235.56 243.63 234.51 C 243.15 234.12 242.19 233.34 241.71 232.95 Z" />
<path fill="#d13b00" opacity="0.96" d=" M 254.02 228.78 C 257.47 231.61 258.23 236.12 259.91 240.00 L 249.48 240.00 C 250.97 236.25 252.18 232.39 254.02 228.78 M 253.40 234.50 C 253.31 235.54 253.22 236.59 253.13 237.64 C 253.95 237.64 255.57 237.65 256.38 237.65 C 255.99 236.08 255.60 234.53 255.21 232.97 C 254.76 233.35 253.85 234.12 253.40 234.50 Z" />
<path fill="#d13b00" opacity="0.96" d=" M 261.82 240.00 C 263.12 236.02 264.40 231.95 267.00 228.59 C 269.43 232.02 270.74 236.03 272.00 240.00 L 261.82 240.00 M 265.69 233.62 C 265.57 234.96 265.45 236.30 265.35 237.65 C 266.41 237.64 267.49 237.64 268.56 237.63 C 268.45 236.31 268.34 234.99 268.24 233.67 C 267.38 233.65 266.53 233.63 265.69 233.62 Z" />
<path fill="#d13b00" opacity="0.96" d=" M 274.01 240.00 C 275.48 236.11 276.74 232.11 279.00 228.57 C 281.75 231.84 283.04 235.95 284.14 240.00 L 274.01 240.00 M 276.86 238.68 C 278.36 238.68 279.86 238.69 281.37 238.70 C 281.11 236.64 281.05 234.47 280.03 232.61 C 276.62 231.86 277.66 236.58 276.86 238.68 Z" />
<path fill="#d13b00" opacity="0.96" d=" M 287.83 237.19 C 288.90 237.23 289.98 237.27 291.06 237.32 C 291.31 238.21 291.58 239.11 291.87 240.00 L 286.63 240.00 C 286.93 239.30 287.53 237.89 287.83 237.19 Z" />
</g>
<g id="#d9d5d5fe">
<path fill="#d9d5d5" opacity="1.00" d=" M 137.49 58.40 C 138.09 58.33 139.28 58.18 139.87 58.11 C 139.83 58.74 139.74 60.01 139.69 60.65 C 139.09 60.68 137.87 60.75 137.27 60.79 C 137.32 60.19 137.44 59.00 137.49 58.40 Z" />
<path fill="#d9d5d5" opacity="1.00" d=" M 126.37 67.50 C 126.99 67.46 128.23 67.39 128.86 67.35 C 128.84 70.20 127.99 72.94 125.41 74.45 C 125.42 72.10 125.75 69.77 126.37 67.50 Z" />
<path fill="#d9d5d5" opacity="1.00" d=" M 200.39 115.54 C 202.56 118.44 205.16 121.21 206.03 124.84 C 207.24 129.27 210.05 133.05 211.28 137.46 C 211.73 140.60 211.51 143.78 211.57 146.94 C 211.10 146.80 210.16 146.52 209.68 146.39 C 209.02 141.25 207.55 136.27 205.58 131.49 C 203.90 126.16 202.08 120.87 200.39 115.54 Z" />
<path fill="#d9d5d5" opacity="1.00" d=" M 292.43 124.47 C 293.00 124.46 294.13 124.46 294.70 124.45 C 294.73 125.82 294.77 127.20 294.81 128.57 C 294.17 128.57 292.89 128.58 292.25 128.58 C 292.30 127.21 292.36 125.84 292.43 124.47 Z" />
<path fill="#d9d5d5" opacity="1.00" d=" M 279.19 144.95 C 279.84 146.76 280.45 148.59 280.97 150.45 C 279.71 150.42 278.45 150.38 277.20 150.34 C 277.83 148.53 278.49 146.73 279.19 144.95 Z" />
<path fill="#d9d5d5" opacity="1.00" d=" M 265.57 146.38 C 266.47 146.46 267.38 146.54 268.30 146.62 C 268.36 147.90 268.43 149.18 268.51 150.47 C 267.50 150.48 266.49 150.50 265.48 150.52 C 265.50 149.14 265.53 147.76 265.57 146.38 Z" />
<path fill="#d9d5d5" opacity="1.00" d=" M 266.11 169.30 C 267.56 168.15 269.27 170.64 267.77 171.65 C 266.32 172.79 264.60 170.30 266.11 169.30 Z" />
<path fill="#d9d5d5" opacity="1.00" d=" M 278.25 169.31 C 279.61 167.79 281.71 170.26 280.34 171.55 C 278.98 173.05 276.82 170.60 278.25 169.31 Z" />
<path fill="#d9d5d5" opacity="1.00" d=" M 221.59 187.71 C 224.04 187.57 226.51 187.51 228.96 187.74 C 231.93 190.46 232.32 195.03 230.52 198.51 C 228.16 198.58 225.80 198.61 223.45 198.61 C 222.62 195.03 221.09 191.45 221.59 187.71 Z" />
<path fill="#d9d5d5" opacity="1.00" d=" M 240.85 190.39 C 241.69 190.44 243.36 190.53 244.19 190.58 C 243.57 192.22 242.84 193.81 242.02 195.36 C 241.59 193.71 241.22 192.05 240.85 190.39 Z" />
<path fill="#d9d5d5" opacity="1.00" d=" M 277.93 190.23 C 278.58 190.30 279.89 190.45 280.54 190.52 C 280.56 191.65 280.58 192.79 280.60 193.94 C 279.54 193.77 278.49 193.60 277.45 193.42 C 277.57 192.63 277.81 191.03 277.93 190.23 Z" />
<path fill="#d9d5d5" opacity="1.00" d=" M 266.11 191.14 C 267.56 189.96 269.21 192.51 267.75 193.51 C 266.29 194.67 264.64 192.14 266.11 191.14 Z" />
<path fill="#d9d5d5" opacity="1.00" d=" M 278.10 211.50 C 278.67 211.58 279.81 211.74 280.38 211.82 C 280.46 213.28 280.53 214.74 280.59 216.21 C 279.87 216.26 278.44 216.36 277.72 216.41 C 277.79 214.77 277.92 213.13 278.10 211.50 Z" />
<path fill="#d9d5d5" opacity="1.00" d=" M 241.71 232.95 C 242.19 233.34 243.15 234.12 243.63 234.51 C 243.69 235.56 243.76 236.60 243.84 237.65 C 243.11 237.64 241.66 237.62 240.94 237.61 C 241.19 236.05 241.45 234.50 241.71 232.95 Z" />
<path fill="#d9d5d5" opacity="1.00" d=" M 253.40 234.50 C 253.85 234.12 254.76 233.35 255.21 232.97 C 255.60 234.53 255.99 236.08 256.38 237.65 C 255.57 237.65 253.95 237.64 253.13 237.64 C 253.22 236.59 253.31 235.54 253.40 234.50 Z" />
<path fill="#d9d5d5" opacity="1.00" d=" M 265.69 233.62 C 266.53 233.63 267.38 233.65 268.24 233.67 C 268.34 234.99 268.45 236.31 268.56 237.63 C 267.49 237.64 266.41 237.64 265.35 237.65 C 265.45 236.30 265.57 234.96 265.69 233.62 Z" />
<path fill="#d9d5d5" opacity="1.00" d=" M 278.37 235.12 C 279.99 234.60 280.53 235.16 280.01 236.80 C 278.39 237.32 277.84 236.75 278.37 235.12 Z" />
</g>
<g id="#848484fe">
<path fill="#848484" opacity="1.00" d=" M 189.34 112.99 C 191.56 116.17 191.13 120.30 190.26 123.86 C 190.03 120.23 189.73 116.60 189.34 112.99 Z" />
<path fill="#848484" opacity="1.00" d=" M 29.63 137.94 C 29.89 132.16 29.27 126.11 31.38 120.59 C 31.43 125.22 30.90 129.88 31.75 134.47 C 33.10 142.61 32.21 150.89 32.42 159.09 C 31.74 159.48 30.37 160.25 29.68 160.63 C 28.07 153.12 29.84 145.52 29.63 137.94 Z" />
<path fill="#848484" opacity="1.00" d=" M 154.65 133.12 C 163.52 133.51 172.40 133.83 181.28 133.41 C 179.35 134.31 177.23 134.72 175.10 134.72 C 168.26 134.82 161.30 135.03 154.65 133.12 Z" />
<path fill="#848484" opacity="1.00" d=" M 159.64 136.54 C 166.81 136.35 173.98 136.51 181.14 136.43 C 177.64 138.01 173.73 137.53 170.00 137.62 C 166.53 137.59 162.93 137.88 159.64 136.54 Z" />
</g>
<g id="#fd5a5afe">
<path fill="#fd5a5a" opacity="1.00" d=" M 279.30 123.66 C 280.49 123.50 281.69 123.34 282.89 123.19 C 282.73 123.49 282.43 124.08 282.28 124.38 C 281.44 125.99 280.66 127.63 279.90 129.29 C 279.61 127.42 279.41 125.54 279.30 123.66 Z" />
<path fill="#fd5a5a" opacity="1.00" d=" M 265.32 167.33 C 266.40 167.35 267.49 167.37 268.57 167.40 C 268.75 169.22 268.93 171.04 269.11 172.86 C 267.67 172.87 266.23 172.87 264.79 172.88 C 264.96 171.03 265.13 169.18 265.32 167.33 M 266.11 169.30 C 264.60 170.30 266.32 172.79 267.77 171.65 C 269.27 170.64 267.56 168.15 266.11 169.30 Z" />
<path fill="#fd5a5a" opacity="1.00" d=" M 276.76 172.86 C 277.15 170.52 277.84 168.24 278.99 166.15 C 280.40 168.13 281.42 170.34 282.20 172.63 C 280.38 172.73 278.57 172.81 276.76 172.86 M 278.25 169.31 C 276.82 170.60 278.98 173.05 280.34 171.55 C 281.71 170.26 279.61 167.79 278.25 169.31 Z" />
<path fill="#fd5a5a" opacity="1.00" d=" M 264.59 194.82 C 264.84 192.31 265.60 189.90 267.06 187.83 C 268.15 190.03 268.87 192.38 269.36 194.78 C 267.77 194.80 266.18 194.81 264.59 194.82 M 266.11 191.14 C 264.64 192.14 266.29 194.67 267.75 193.51 C 269.21 192.51 267.56 189.96 266.11 191.14 Z" />
<path fill="#fd5a5a" opacity="1.00" d=" M 276.86 238.68 C 277.66 236.58 276.62 231.86 280.03 232.61 C 281.05 234.47 281.11 236.64 281.37 238.70 C 279.86 238.69 278.36 238.68 276.86 238.68 M 278.37 235.12 C 277.84 236.75 278.39 237.32 280.01 236.80 C 280.53 235.16 279.99 234.60 278.37 235.12 Z" />
</g>
</svg>
