<?xml version="1.0" encoding="UTF-8" ?>
<!DOCTYPE svg PUBLIC "-//W3C//DTD SVG 1.1//EN" "http://www.w3.org/Graphics/SVG/1.1/DTD/svg11.dtd">
<svg width="210pt" height="220pt" viewBox="0 0 210 220" version="1.1" xmlns="http://www.w3.org/2000/svg">
<g id="#fefefeff">
<path fill="#fefefe" opacity="1.00" d=" M 22.35 19.85 C 22.91 18.15 23.78 16.07 25.94 16.26 C 27.64 17.75 29.52 19.03 31.31 20.42 C 30.52 20.66 28.95 21.15 28.17 21.39 C 27.11 20.38 26.12 19.30 25.20 18.15 C 24.22 18.67 23.34 19.35 22.35 19.85 Z" />
<path fill="#fefefe" opacity="1.00" d=" M 30.38 23.93 C 31.68 22.75 32.92 21.50 34.13 20.23 C 35.69 20.78 37.29 21.29 38.75 22.08 C 41.93 24.57 45.38 26.95 47.67 30.33 C 48.72 35.36 47.82 40.59 48.17 45.70 C 46.94 49.55 44.24 52.79 40.96 55.09 C 38.09 56.75 34.85 57.59 31.80 58.84 C 28.47 59.27 25.03 59.51 21.75 58.63 C 17.81 55.64 14.29 52.09 11.55 47.96 C 9.26 43.47 10.31 38.36 10.71 33.58 C 11.01 33.09 11.62 32.11 11.93 31.62 C 12.25 31.60 12.89 31.54 13.21 31.52 C 14.47 32.24 15.73 32.94 16.99 33.63 C 17.59 33.16 18.78 32.21 19.38 31.74 C 20.37 29.44 19.76 27.03 18.74 24.87 C 20.08 23.73 21.36 22.50 22.85 21.55 C 25.22 20.77 27.14 22.87 29.15 23.71 C 26.09 23.67 22.13 25.99 23.58 29.55 C 25.30 34.52 27.28 40.85 32.73 42.73 C 29.75 37.88 25.79 33.24 25.18 27.37 C 26.74 25.38 29.74 25.14 31.82 26.41 C 35.86 28.62 39.60 31.35 43.65 33.57 C 43.01 32.25 42.67 30.56 41.22 29.85 C 37.70 27.72 34.27 25.36 30.38 23.93 Z" />
<path fill="#fefefe" opacity="1.00" d=" M 71.63 85.08 C 73.02 85.48 73.71 86.36 73.71 87.70 C 72.32 87.40 71.62 86.52 71.63 85.08 Z" />
<path fill="#fefefe" opacity="1.00" d=" M 112.28 131.10 C 112.49 131.17 112.93 131.30 113.14 131.37 C 114.35 133.00 115.71 134.51 117.12 135.98 C 115.44 134.42 113.66 132.93 112.28 131.10 Z" />
<path fill="#fefefe" opacity="1.00" d=" M 173.68 151.77 C 185.84 152.24 197.76 155.50 210.00 155.10 L 210.00 192.09 C 208.22 192.06 206.43 192.03 204.65 192.00 C 204.60 187.38 204.94 182.74 204.56 178.13 C 204.19 175.02 200.93 172.93 197.94 174.01 C 194.75 173.82 193.34 177.14 193.04 179.79 C 192.61 184.18 192.98 188.61 192.79 193.01 L 191.56 192.96 C 184.76 192.05 177.87 192.37 171.04 192.60 C 171.36 190.68 171.75 188.78 172.11 186.87 C 172.84 175.18 174.09 163.50 173.68 151.77 Z" />
<path fill="#fefefe" opacity="1.00" d=" M 155.03 184.86 C 156.82 186.94 159.29 188.75 159.75 191.63 C 158.76 191.20 157.78 190.73 156.80 190.27 C 156.51 188.38 155.82 186.59 155.03 184.86 Z" />
<path fill="#fefefe" opacity="1.00" d=" M 119.63 194.60 C 126.17 194.95 132.61 193.72 139.04 192.76 C 145.01 192.23 151.00 192.72 156.98 192.50 C 157.25 193.19 157.79 194.58 158.07 195.27 C 157.65 195.70 156.82 196.55 156.40 196.97 C 156.31 198.57 156.18 200.17 156.26 201.78 C 165.28 202.95 174.45 201.62 183.50 202.44 C 183.93 202.81 184.78 203.55 185.21 203.91 C 174.92 204.07 164.63 204.02 154.34 203.95 C 153.14 202.85 151.93 201.77 150.71 200.70 C 150.60 200.18 150.36 199.13 150.24 198.61 C 148.47 197.99 146.50 196.83 144.61 197.72 C 143.65 198.69 142.91 199.86 142.10 200.95 C 142.59 201.38 143.59 202.23 144.08 202.66 C 146.88 202.74 149.93 202.09 152.37 203.87 C 144.28 204.06 136.19 203.98 128.10 203.99 C 125.17 200.96 122.35 197.82 119.63 194.60 Z" />
<path fill="#fefefe" opacity="1.00" d=" M 120.04 198.52 L 120.58 198.46 C 122.30 200.27 123.91 202.17 125.62 204.00 C 123.76 204.00 121.90 204.00 120.04 203.95 C 119.96 202.15 119.64 200.30 120.04 198.52 Z" />
</g>
<g id="#393939ff">
<path fill="#393939" opacity="1.00" d=" M 25.94 16.26 C 26.63 16.11 28.00 15.82 28.69 15.68 C 29.92 16.88 31.12 18.10 32.31 19.34 C 34.21 19.33 36.12 19.32 38.01 19.19 L 38.38 19.96 C 38.83 19.94 39.71 19.91 40.15 19.90 C 40.73 20.65 41.30 21.40 41.89 22.14 C 42.09 22.65 42.51 23.68 42.71 24.19 C 41.39 23.49 40.08 22.77 38.75 22.08 C 37.29 21.29 35.69 20.78 34.13 20.23 C 32.92 21.50 31.68 22.75 30.38 23.93 C 34.27 25.36 37.70 27.72 41.22 29.85 C 42.67 30.56 43.01 32.25 43.65 33.57 C 39.60 31.35 35.86 28.62 31.82 26.41 C 29.74 25.14 26.74 25.38 25.18 27.37 C 25.79 33.24 29.75 37.88 32.73 42.73 C 27.28 40.85 25.30 34.52 23.58 29.55 C 22.13 25.99 26.09 23.67 29.15 23.71 C 27.14 22.87 25.22 20.77 22.85 21.55 C 21.36 22.50 20.08 23.73 18.74 24.87 C 18.54 24.44 18.15 23.57 17.95 23.14 C 19.40 22.01 20.85 20.90 22.35 19.85 C 23.34 19.35 24.22 18.67 25.20 18.15 C 26.12 19.30 27.11 20.38 28.17 21.39 C 28.95 21.15 30.52 20.66 31.31 20.42 C 29.52 19.03 27.64 17.75 25.94 16.26 Z" />
<path fill="#393939" opacity="1.00" d=" M 82.55 98.79 C 83.11 98.92 84.23 99.20 84.79 99.34 L 85.15 99.63 C 84.50 101.50 86.02 103.60 88.06 103.13 C 90.67 106.60 93.63 109.80 96.72 112.84 C 97.04 114.16 97.88 114.90 99.23 115.06 C 100.36 116.72 101.52 118.37 102.68 120.01 C 103.06 121.28 103.86 121.91 105.08 121.91 L 104.96 122.56 C 104.84 123.11 104.61 124.20 104.50 124.75 C 103.06 123.19 101.58 121.65 99.96 120.27 C 100.81 118.73 99.43 117.28 98.04 116.80 C 97.15 116.16 96.26 115.51 95.34 114.91 C 96.06 113.18 94.23 111.99 92.72 111.94 C 90.22 109.00 87.77 106.03 85.08 103.26 C 84.18 101.80 83.36 100.30 82.55 98.79 Z" />
<path fill="#393939" opacity="1.00" d=" M 122.79 142.66 C 124.57 144.63 126.48 146.47 128.33 148.36 C 128.40 148.44 128.54 148.61 128.61 148.69 C 132.14 153.83 136.64 158.17 140.97 162.62 C 140.63 162.98 139.97 163.69 139.63 164.04 C 138.48 162.70 137.26 161.42 136.03 160.15 C 135.53 159.80 134.52 159.08 134.02 158.72 C 133.70 158.43 133.05 157.85 132.72 157.55 C 132.66 157.48 132.54 157.34 132.48 157.27 C 130.30 153.81 127.50 150.82 124.71 147.85 C 123.76 146.25 123.25 144.44 122.79 142.66 Z" />
<path fill="#393939" opacity="1.00" d=" M 133.90 192.31 C 134.34 192.13 135.23 191.79 135.67 191.62 C 142.71 192.92 149.88 191.92 156.98 192.50 C 151.00 192.72 145.01 192.23 139.04 192.76 C 132.61 193.72 126.17 194.95 119.63 194.60 C 122.35 197.82 125.17 200.96 128.10 203.99 C 127.48 203.99 126.24 204.00 125.62 204.00 C 123.91 202.17 122.30 200.27 120.58 198.46 C 119.83 197.62 119.06 196.80 118.27 196.01 C 118.83 195.35 119.39 194.70 119.96 194.05 C 124.63 193.86 129.46 193.99 133.90 192.31 Z" />
</g>
<g id="#64646485">
<path fill="#646464" opacity="0.52" d=" M 38.01 19.19 C 38.55 19.36 39.62 19.72 40.15 19.90 C 39.71 19.91 38.83 19.94 38.38 19.96 L 38.01 19.19 Z" />
</g>
<g id="#525252ff">
<path fill="#525252" opacity="1.00" d=" M 38.75 22.08 C 40.08 22.77 41.39 23.49 42.71 24.19 C 42.51 23.68 42.09 22.65 41.89 22.14 C 43.84 23.88 45.91 25.47 48.03 27.00 C 48.63 28.14 49.24 29.28 49.86 30.40 C 50.19 35.90 50.09 41.41 49.94 46.91 C 49.61 47.63 49.26 48.35 48.91 49.06 C 48.65 47.94 48.40 46.82 48.17 45.70 C 47.82 40.59 48.72 35.36 47.67 30.33 C 45.38 26.95 41.93 24.57 38.75 22.08 Z" />
<path fill="#525252" opacity="1.00" d=" M 45.42 55.87 C 43.04 55.42 43.73 52.61 46.07 53.20 C 45.91 53.87 45.58 55.20 45.42 55.87 Z" />
<path fill="#525252" opacity="1.00" d=" M 15.61 55.73 C 17.43 57.11 19.51 58.13 21.75 58.63 C 25.03 59.51 28.47 59.27 31.80 58.84 L 33.76 60.07 C 30.08 61.38 26.04 61.86 22.21 61.02 C 19.52 59.99 17.61 57.70 15.61 55.73 Z" />
<path fill="#525252" opacity="1.00" d=" M 58.42 72.72 C 60.27 73.18 62.46 74.34 61.99 76.61 C 59.92 76.37 58.77 74.63 58.42 72.72 Z" />
<path fill="#525252" opacity="1.00" d=" M 79.94 93.32 C 80.60 94.30 81.19 95.32 81.79 96.34 C 82.78 97.35 83.77 98.36 84.79 99.34 C 84.23 99.20 83.11 98.92 82.55 98.79 C 83.36 100.30 84.18 101.80 85.08 103.26 C 82.60 100.82 80.49 98.05 78.36 95.31 C 78.88 94.65 79.41 93.98 79.94 93.32 Z" />
<path fill="#525252" opacity="1.00" d=" M 85.15 99.63 C 86.44 100.49 87.31 101.80 88.06 103.13 C 86.02 103.60 84.50 101.50 85.15 99.63 Z" />
<path fill="#525252" opacity="1.00" d=" M 104.96 122.56 C 106.23 123.86 107.51 125.16 108.70 126.54 C 108.50 127.14 108.09 128.34 107.88 128.93 C 106.72 127.56 105.58 126.18 104.50 124.75 C 104.61 124.20 104.84 123.11 104.96 122.56 Z" />
<path fill="#525252" opacity="1.00" d=" M 117.89 136.73 C 119.16 137.09 119.92 137.92 120.18 139.22 C 118.63 139.11 117.87 138.28 117.89 136.73 Z" />
<path fill="#525252" opacity="1.00" d=" M 119.04 141.33 C 119.91 141.29 120.77 141.24 121.64 141.20 C 122.01 141.69 122.40 142.18 122.79 142.66 C 123.25 144.44 123.76 146.25 124.71 147.85 C 122.74 145.75 120.74 143.66 119.04 141.33 Z" />
<path fill="#525252" opacity="1.00" d=" M 139.63 164.04 C 139.97 163.69 140.63 162.98 140.97 162.62 C 142.22 164.04 143.40 165.53 144.64 166.97 C 143.12 166.10 141.55 165.35 140.03 164.51 C 139.93 164.39 139.73 164.16 139.63 164.04 Z" />
<path fill="#525252" opacity="1.00" d=" M 193.04 179.79 C 193.34 177.14 194.75 173.82 197.94 174.01 C 200.93 172.93 204.19 175.02 204.56 178.13 C 204.94 182.74 204.60 187.38 204.65 192.00 C 206.43 192.03 208.22 192.06 210.00 192.09 L 210.00 193.84 C 208.33 193.86 206.66 193.88 205.00 193.92 C 205.03 195.27 205.08 196.62 205.12 197.97 C 206.75 197.90 208.37 197.82 210.00 197.74 L 210.00 200.00 C 208.88 200.08 207.77 200.17 206.66 200.27 C 204.02 202.61 200.29 202.19 197.02 202.17 C 195.20 202.30 193.67 201.29 192.20 200.37 C 191.48 200.43 190.03 200.55 189.31 200.61 C 188.25 199.48 187.29 197.79 185.47 198.07 C 176.45 198.32 167.43 197.93 158.41 197.83 C 158.51 198.87 158.09 200.76 159.90 200.32 C 164.91 200.55 169.94 200.27 174.95 200.39 C 178.90 200.28 183.27 201.22 186.57 198.40 C 186.53 200.24 186.41 202.08 186.39 203.92 C 185.40 203.48 184.45 202.96 183.50 202.44 C 174.45 201.62 165.28 202.95 156.26 201.78 C 156.18 200.17 156.31 198.57 156.40 196.97 C 156.82 196.55 157.65 195.70 158.07 195.27 C 158.41 194.89 159.10 194.14 159.44 193.76 C 159.67 194.27 160.13 195.30 160.36 195.81 C 168.57 195.66 176.76 196.31 184.97 196.13 C 187.80 195.64 190.10 198.31 192.69 198.13 C 192.81 197.37 193.06 195.86 193.19 195.10 C 185.74 193.32 177.97 195.28 170.59 193.51 C 177.51 192.03 184.56 193.06 191.56 192.96 L 192.79 193.01 C 192.98 188.61 192.61 184.18 193.04 179.79 M 196.44 176.42 C 195.14 178.68 194.61 181.32 194.64 183.91 C 194.64 189.21 194.67 194.51 194.59 199.82 C 197.44 199.83 200.29 199.80 203.14 199.68 C 203.42 195.08 202.41 190.54 202.63 185.95 C 202.52 182.56 203.41 178.81 201.22 175.86 C 199.63 176.02 197.98 175.94 196.44 176.42 Z" />
<path fill="#525252" opacity="1.00" d=" M 148.10 176.44 C 149.53 176.96 151.61 180.13 152.73 177.67 C 153.14 178.55 153.57 179.42 154.04 180.27 C 153.48 180.36 152.36 180.55 151.80 180.64 C 152.43 182.57 153.04 184.52 153.69 186.45 C 151.59 183.25 149.79 179.87 148.10 176.44 Z" />
<path fill="#525252" opacity="1.00" d=" M 165.77 188.18 C 166.34 188.38 167.49 188.78 168.06 188.98 C 168.78 190.45 169.50 191.93 170.21 193.40 C 169.00 193.03 167.79 192.65 166.56 192.36 C 165.12 191.98 163.69 191.59 162.29 191.13 C 162.02 190.80 161.50 190.14 161.24 189.81 L 161.96 190.69 C 163.80 190.65 165.63 190.57 167.47 190.44 C 167.04 189.87 166.19 188.74 165.77 188.18 Z" />
<path fill="#525252" opacity="1.00" d=" M 118.31 200.04 C 116.82 197.83 116.51 195.21 116.77 192.63 C 117.28 193.75 117.77 194.87 118.27 196.01 C 119.06 196.80 119.83 197.62 120.58 198.46 L 120.04 198.52 C 119.64 200.30 119.96 202.15 120.04 203.95 L 118.84 203.91 C 119.67 202.65 119.08 201.13 118.31 200.04 Z" />
</g>
<g id="#626262e9">
<path fill="#626262" opacity="0.91" d=" M 12.35 23.51 C 14.22 23.35 16.09 23.26 17.95 23.14 C 18.15 23.57 18.54 24.44 18.74 24.87 C 19.76 27.03 20.37 29.44 19.38 31.74 C 18.96 28.96 18.83 25.95 16.83 23.75 L 17.22 25.62 C 15.71 25.60 14.20 25.66 12.70 25.75 C 12.71 26.52 12.74 28.07 12.75 28.84 C 12.57 27.07 12.50 25.29 12.35 23.51 Z" />
</g>
<g id="#030303ff">
<path fill="#030303" opacity="1.00" d=" M 11.15 29.97 C 11.30 27.79 10.98 25.39 12.35 23.51 C 12.50 25.29 12.57 27.07 12.75 28.84 C 13.92 29.98 15.16 31.03 16.40 32.08 C 17.19 30.01 18.20 27.83 17.22 25.62 L 16.83 23.75 C 18.83 25.95 18.96 28.96 19.38 31.74 C 18.78 32.21 17.59 33.16 16.99 33.63 C 15.73 32.94 14.47 32.24 13.21 31.52 C 12.89 31.54 12.25 31.60 11.93 31.62 C 11.62 32.11 11.01 33.09 10.71 33.58 C 8.02 37.81 8.81 43.44 10.72 47.83 L 9.16 47.74 C 8.82 47.06 8.12 45.69 7.78 45.01 C 7.91 44.25 8.17 42.73 8.30 41.97 C 8.08 37.74 8.26 33.35 11.15 29.97 Z" />
<path fill="#030303" opacity="1.00" d=" M 11.31 51.10 C 11.37 50.32 11.49 48.74 11.55 47.96 C 14.29 52.09 17.81 55.64 21.75 58.63 C 19.51 58.13 17.43 57.11 15.61 55.73 C 14.93 55.04 14.26 54.35 13.60 53.65 L 13.47 53.51 L 13.35 53.39 C 12.65 52.65 11.96 51.89 11.31 51.10 Z" />
<path fill="#030303" opacity="1.00" d=" M 172.42 150.42 L 173.70 150.32 C 173.18 156.39 173.52 162.53 172.42 168.55 C 171.26 174.61 172.67 180.77 172.11 186.87 C 171.75 188.78 171.36 190.68 171.04 192.60 C 177.87 192.37 184.76 192.05 191.56 192.96 C 184.56 193.06 177.51 192.03 170.59 193.51 L 170.21 193.40 C 169.50 191.93 168.78 190.45 168.06 188.98 C 167.49 188.78 166.34 188.38 165.77 188.18 C 161.59 184.62 157.47 180.94 153.78 176.87 C 153.73 176.39 153.62 175.44 153.57 174.96 C 159.18 179.65 164.18 185.07 170.01 189.53 C 171.05 185.09 171.46 180.53 171.25 175.97 C 171.01 167.43 172.20 158.95 172.42 150.42 Z" />
<path fill="#030303" opacity="1.00" d=" M 144.46 168.78 C 145.76 169.23 147.06 169.70 148.35 170.20 C 149.82 171.44 151.32 172.63 152.63 174.05 L 152.65 174.98 C 152.19 175.25 151.28 175.80 150.82 176.07 C 151.28 176.17 152.19 176.38 152.65 176.49 L 152.73 177.67 C 151.61 180.13 149.53 176.96 148.10 176.44 L 148.03 176.31 C 148.21 174.75 147.54 173.83 146.01 173.56 C 145.90 173.35 145.67 172.95 145.56 172.74 C 145.17 171.43 144.80 170.10 144.46 168.78 Z" />
<path fill="#030303" opacity="1.00" d=" M 151.80 180.64 C 152.36 180.55 153.48 180.36 154.04 180.27 C 156.00 183.76 158.87 186.61 161.24 189.81 C 161.50 190.14 162.02 190.80 162.29 191.13 C 163.69 191.59 165.12 191.98 166.56 192.36 C 164.01 192.46 161.46 192.52 158.91 192.51 L 159.44 193.76 C 159.10 194.14 158.41 194.89 158.07 195.27 C 157.79 194.58 157.25 193.19 156.98 192.50 C 149.88 191.92 142.71 192.92 135.67 191.62 C 142.32 190.78 149.05 191.49 155.74 191.24 C 155.07 189.63 154.40 188.03 153.69 186.45 C 153.04 184.52 152.43 182.57 151.80 180.64 M 155.03 184.86 C 155.82 186.59 156.51 188.38 156.80 190.27 C 157.78 190.73 158.76 191.20 159.75 191.63 C 159.29 188.75 156.82 186.94 155.03 184.86 Z" />
<path fill="#030303" opacity="1.00" d=" M 116.77 192.63 C 122.48 192.81 128.20 192.68 133.90 192.31 C 129.46 193.99 124.63 193.86 119.96 194.05 C 119.39 194.70 118.83 195.35 118.27 196.01 C 117.77 194.87 117.28 193.75 116.77 192.63 Z" />
<path fill="#030303" opacity="1.00" d=" M 144.61 197.72 C 146.50 196.83 148.47 197.99 150.24 198.61 C 150.36 199.13 150.60 200.18 150.71 200.70 C 151.93 201.77 153.14 202.85 154.34 203.95 C 153.85 203.93 152.86 203.89 152.37 203.87 C 149.93 202.09 146.88 202.74 144.08 202.66 C 143.59 202.23 142.59 201.38 142.10 200.95 C 142.91 199.86 143.65 198.69 144.61 197.72 M 144.61 200.89 C 145.67 201.77 147.95 201.54 148.45 200.12 C 147.97 198.24 143.98 198.88 144.61 200.89 Z" />
</g>
<g id="#fefefefe">
<path fill="#fefefe" opacity="1.00" d=" M 12.70 25.75 C 14.20 25.66 15.71 25.60 17.22 25.62 C 18.20 27.83 17.19 30.01 16.40 32.08 C 15.16 31.03 13.92 29.98 12.75 28.84 C 12.74 28.07 12.71 26.52 12.70 25.75 Z" />
<path fill="#fefefe" opacity="1.00" d=" M 74.01 87.84 C 76.42 88.78 78.02 90.93 79.59 92.88 C 77.45 91.54 75.71 89.69 74.01 87.84 Z" />
<path fill="#fefefe" opacity="1.00" d=" M 144.61 200.89 C 143.98 198.88 147.97 198.24 148.45 200.12 C 147.95 201.54 145.67 201.77 144.61 200.89 Z" />
</g>
<g id="#44444457">
<path fill="#444444" opacity="0.34" d=" M 49.86 30.40 L 50.71 31.79 C 51.10 36.32 51.13 40.90 50.66 45.43 L 49.94 46.91 C 50.09 41.41 50.19 35.90 49.86 30.40 Z" />
</g>
<g id="#7a7a7aea">
<path fill="#7a7a7a" opacity="0.92" d=" M 10.72 47.83 C 8.81 43.44 8.02 37.81 10.71 33.58 C 10.31 38.36 9.26 43.47 11.55 47.96 C 11.49 48.74 11.37 50.32 11.31 51.10 C 10.47 50.07 9.71 48.96 9.16 47.74 L 10.72 47.83 Z" />
</g>
<g id="#49494957">
<path fill="#494949" opacity="0.34" d=" M 7.78 45.01 C 6.68 44.13 6.69 42.22 8.30 41.97 C 8.17 42.73 7.91 44.25 7.78 45.01 Z" />
</g>
<g id="#343434e3">
<path fill="#343434" opacity="0.89" d=" M 48.17 45.70 C 48.40 46.82 48.65 47.94 48.91 49.06 C 48.08 50.52 47.09 51.88 46.07 53.20 C 43.73 52.61 43.04 55.42 45.42 55.87 C 45.86 56.27 46.72 57.06 47.15 57.45 C 46.89 57.93 46.38 58.87 46.12 59.34 C 45.35 58.35 44.59 57.35 43.83 56.35 C 40.51 57.68 37.18 59.01 33.76 60.07 L 31.80 58.84 C 34.85 57.59 38.09 56.75 40.96 55.09 C 44.24 52.79 46.94 49.55 48.17 45.70 Z" />
</g>
<g id="#59595991">
<path fill="#595959" opacity="0.57" d=" M 13.35 53.39 L 13.47 53.51 L 13.60 53.65 L 13.47 53.52 L 13.35 53.39 Z" />
</g>
<g id="#3d3d3dff">
<path fill="#3d3d3d" opacity="1.00" d=" M 47.15 57.45 C 49.71 60.25 51.96 63.32 54.74 65.91 C 55.08 67.19 55.91 67.96 57.20 68.21 C 61.66 74.14 67.22 79.11 71.63 85.08 C 71.62 86.52 72.32 87.40 73.71 87.70 L 74.01 87.84 C 75.71 89.69 77.45 91.54 79.59 92.88 L 79.94 93.32 C 79.41 93.98 78.88 94.65 78.36 95.31 C 76.73 93.48 74.97 91.79 73.19 90.11 C 72.93 88.60 72.09 87.94 70.67 88.14 C 70.39 87.52 69.83 86.28 69.55 85.67 L 69.48 85.51 L 69.37 85.39 C 68.00 83.81 66.54 82.30 65.16 80.73 C 64.32 79.59 63.41 78.38 61.98 78.00 L 61.99 76.61 C 62.46 74.34 60.27 73.18 58.42 72.72 C 55.41 69.80 52.44 66.82 49.62 63.71 C 49.54 63.62 49.39 63.44 49.32 63.36 C 48.25 62.02 47.14 60.72 46.12 59.34 C 46.38 58.87 46.89 57.93 47.15 57.45 Z" />
<path fill="#3d3d3d" opacity="1.00" d=" M 173.68 151.77 C 173.89 151.32 174.31 150.42 174.52 149.97 C 178.51 150.44 182.49 151.04 186.51 151.25 C 189.05 151.51 191.60 151.55 194.15 151.66 L 195.23 151.99 C 196.38 152.35 197.53 152.69 198.71 152.98 L 199.89 153.25 C 203.25 153.56 206.63 153.41 210.00 153.65 L 210.00 155.10 C 197.76 155.50 185.84 152.24 173.68 151.77 Z" />
<path fill="#3d3d3d" opacity="1.00" d=" M 140.03 164.51 C 141.55 165.35 143.12 166.10 144.64 166.97 C 145.86 168.06 147.10 169.14 148.35 170.20 C 147.06 169.70 145.76 169.23 144.46 168.78 C 144.80 170.10 145.17 171.43 145.56 172.74 L 145.05 171.89 C 143.56 169.31 141.93 166.81 140.03 164.51 Z" />
</g>
<g id="#5959597c">
<path fill="#595959" opacity="0.49" d=" M 49.32 63.36 C 49.39 63.44 49.54 63.62 49.62 63.71 L 49.46 63.54 L 49.32 63.36 Z" />
</g>
<g id="#2222222f">
<path fill="#222222" opacity="0.18" d=" M 54.74 65.91 C 56.28 65.90 57.10 66.67 57.20 68.21 C 55.91 67.96 55.08 67.19 54.74 65.91 Z" />
</g>
<g id="#1919191b">
<path fill="#191919" opacity="0.11" d=" M 61.98 78.00 C 63.41 78.38 64.32 79.59 65.16 80.73 C 63.31 81.61 61.45 79.93 61.98 78.00 Z" />
</g>
<g id="#6d6d6d9a">
<path fill="#6d6d6d" opacity="0.60" d=" M 69.37 85.39 L 69.48 85.51 L 69.55 85.67 C 69.50 85.60 69.41 85.46 69.37 85.39 Z" />
</g>
<g id="#1d1d1d2f">
<path fill="#1d1d1d" opacity="0.18" d=" M 70.67 88.14 C 72.09 87.94 72.93 88.60 73.19 90.11 C 71.84 90.09 71.00 89.43 70.67 88.14 Z" />
</g>
<g id="#474747aa">
<path fill="#474747" opacity="0.67" d=" M 92.72 111.94 C 94.23 111.99 96.06 113.18 95.34 114.91 C 94.02 114.39 93.11 113.28 92.72 111.94 Z" />
</g>
<g id="#27272735">
<path fill="#272727" opacity="0.21" d=" M 96.72 112.84 C 98.21 112.83 99.05 113.58 99.23 115.06 C 97.88 114.90 97.04 114.16 96.72 112.84 Z" />
</g>
<g id="#40404087">
<path fill="#404040" opacity="0.53" d=" M 98.04 116.80 C 99.43 117.28 100.81 118.73 99.96 120.27 C 98.65 119.59 97.98 118.24 98.04 116.80 Z" />
</g>
<g id="#44444469">
<path fill="#444444" opacity="0.41" d=" M 102.68 120.01 C 104.35 119.86 105.15 120.49 105.08 121.91 C 103.86 121.91 103.06 121.28 102.68 120.01 Z" />
</g>
<g id="#2b2b2bd8">
<path fill="#2b2b2b" opacity="0.85" d=" M 107.88 128.93 C 108.09 128.34 108.50 127.14 108.70 126.54 C 109.95 128.01 111.12 129.56 112.28 131.10 C 113.66 132.93 115.44 134.42 117.12 135.98 C 117.31 136.16 117.70 136.54 117.89 136.73 C 117.87 138.28 118.63 139.11 120.18 139.22 C 120.54 139.72 121.27 140.71 121.64 141.20 C 120.77 141.24 119.91 141.29 119.04 141.33 C 115.54 137.00 111.14 133.49 107.88 128.93 Z" />
</g>
<g id="#5858586e">
<path fill="#585858" opacity="0.43" d=" M 128.33 148.36 L 128.47 148.51 L 128.61 148.69 C 128.54 148.61 128.40 148.44 128.33 148.36 Z" />
</g>
<g id="#848484ec">
<path fill="#848484" opacity="0.93" d=" M 172.42 150.42 C 172.45 150.20 172.49 149.75 172.52 149.53 C 176.75 149.43 180.99 149.84 185.13 150.73 L 186.51 151.25 C 182.49 151.04 178.51 150.44 174.52 149.97 C 174.31 150.42 173.89 151.32 173.68 151.77 C 174.09 163.50 172.84 175.18 172.11 186.87 C 172.67 180.77 171.26 174.61 172.42 168.55 C 173.52 162.53 173.18 156.39 173.70 150.32 L 172.42 150.42 Z" />
</g>
<g id="#14141432">
<path fill="#141414" opacity="0.20" d=" M 195.23 151.99 C 199.81 152.25 204.41 152.24 208.99 152.52 C 205.56 152.65 202.14 152.87 198.71 152.98 C 197.53 152.69 196.38 152.35 195.23 151.99 Z" />
</g>
<g id="#5757575f">
<path fill="#575757" opacity="0.37" d=" M 132.48 157.27 C 132.54 157.34 132.66 157.48 132.72 157.55 L 132.57 157.44 L 132.48 157.27 Z" />
</g>
<g id="#676767b1">
<path fill="#676767" opacity="0.69" d=" M 134.02 158.72 C 134.52 159.08 135.53 159.80 136.03 160.15 C 135.53 159.80 134.52 159.08 134.02 158.72 Z" />
</g>
<g id="#3b3b3b94">
<path fill="#3b3b3b" opacity="0.58" d=" M 146.01 173.56 C 147.54 173.83 148.21 174.75 148.03 176.31 C 146.81 175.79 146.14 174.87 146.01 173.56 Z" />
</g>
<g id="#ffffffff">
<path fill="#ffffff" opacity="1.00" d=" M 152.63 174.05 C 152.86 174.28 153.34 174.73 153.57 174.96 C 153.62 175.44 153.73 176.39 153.78 176.87 C 157.47 180.94 161.59 184.62 165.77 188.18 C 166.19 188.74 167.04 189.87 167.47 190.44 C 165.63 190.57 163.80 190.65 161.96 190.69 L 161.24 189.81 C 158.87 186.61 156.00 183.76 154.04 180.27 C 153.57 179.42 153.14 178.55 152.73 177.67 L 152.65 176.49 C 152.19 176.38 151.28 176.17 150.82 176.07 C 151.28 175.80 152.19 175.25 152.65 174.98 L 152.63 174.05 Z" />
<path fill="#ffffff" opacity="1.00" d=" M 196.44 176.42 C 197.98 175.94 199.63 176.02 201.22 175.86 C 203.41 178.81 202.52 182.56 202.63 185.95 C 202.41 190.54 203.42 195.08 203.14 199.68 C 200.29 199.80 197.44 199.83 194.59 199.82 C 194.67 194.51 194.64 189.21 194.64 183.91 C 194.61 181.32 195.14 178.68 196.44 176.42 Z" />
<path fill="#ffffff" opacity="1.00" d=" M 158.91 192.51 C 161.46 192.52 164.01 192.46 166.56 192.36 C 167.79 192.65 169.00 193.03 170.21 193.40 L 170.59 193.51 C 177.97 195.28 185.74 193.32 193.19 195.10 C 193.06 195.86 192.81 197.37 192.69 198.13 C 190.10 198.31 187.80 195.64 184.97 196.13 C 176.76 196.31 168.57 195.66 160.36 195.81 C 160.13 195.30 159.67 194.27 159.44 193.76 L 158.91 192.51 Z" />
<path fill="#ffffff" opacity="1.00" d=" M 205.00 193.92 C 206.66 193.88 208.33 193.86 210.00 193.84 L 210.00 197.74 C 208.37 197.82 206.75 197.90 205.12 197.97 C 205.08 196.62 205.03 195.27 205.00 193.92 Z" />
<path fill="#ffffff" opacity="1.00" d=" M 159.90 200.32 C 158.09 200.76 158.51 198.87 158.41 197.83 C 167.43 197.93 176.45 198.32 185.47 198.07 C 187.29 197.79 188.25 199.48 189.31 200.61 C 190.03 200.55 191.48 200.43 192.20 200.37 C 193.67 201.29 195.20 202.30 197.02 202.17 C 200.29 202.19 204.02 202.61 206.66 200.27 C 207.77 200.17 208.88 200.08 210.00 200.00 L 210.00 203.92 C 202.13 203.84 194.26 204.08 186.39 203.92 C 186.41 202.08 186.53 200.24 186.57 198.40 C 183.27 201.22 178.90 200.28 174.95 200.39 C 169.94 200.27 164.91 200.55 159.90 200.32 Z" />
</g>
<g id="#0000007a">
<path fill="#000000" opacity="0.48" d=" M 118.31 200.04 C 119.08 201.13 119.67 202.65 118.84 203.91 L 118.20 203.88 C 117.59 202.59 117.62 201.31 118.31 200.04 Z" />
</g>
</svg>
