<?xml version="1.0" encoding="UTF-8" ?>
<!DOCTYPE svg PUBLIC "-//W3C//DTD SVG 1.1//EN" "http://www.w3.org/Graphics/SVG/1.1/DTD/svg11.dtd">
<svg width="210pt" height="220pt" viewBox="0 0 210 220" version="1.1" xmlns="http://www.w3.org/2000/svg">
<g id="#050406ff">
<path fill="#050406" opacity="1.00" d=" M 91.06 9.63 C 94.73 6.87 99.27 4.84 103.95 5.26 C 109.31 5.70 114.20 8.84 117.43 13.04 C 117.29 13.30 117.01 13.82 116.87 14.09 C 116.71 14.06 116.39 14.01 116.23 13.99 C 114.18 10.08 110.08 8.17 106.19 6.60 C 100.99 6.01 95.41 7.12 91.72 11.09 C 90.52 11.49 89.77 10.13 91.06 9.63 Z" />
<path fill="#050406" opacity="1.00" d=" M 92.71 12.94 C 93.86 12.45 95.00 11.94 96.14 11.42 C 98.86 12.69 100.74 15.76 98.31 18.31 C 97.73 18.59 96.57 19.14 95.99 19.42 C 94.90 18.96 93.81 18.50 92.72 18.06 C 92.30 16.37 92.25 14.63 92.71 12.94 Z" />
<path fill="#050406" opacity="1.00" d=" M 143.64 52.00 C 145.75 44.27 154.32 39.44 162.08 40.97 L 161.13 41.12 C 159.20 41.41 157.29 41.75 155.41 42.25 C 150.64 43.52 146.58 47.23 144.81 51.82 C 143.97 54.86 144.42 58.06 144.55 61.15 C 146.30 64.34 148.53 67.32 151.61 69.33 C 154.98 72.47 159.74 72.10 163.65 70.23 C 164.62 69.89 166.56 69.23 167.53 68.89 C 165.61 70.27 163.57 71.47 161.67 72.87 C 155.51 72.65 149.22 70.62 145.45 65.45 C 143.02 61.46 142.77 56.50 143.64 52.00 Z" />
<path fill="#050406" opacity="1.00" d=" M 164.76 49.67 C 165.14 49.65 165.92 49.61 166.30 49.59 C 167.39 50.54 168.44 51.54 169.43 52.60 C 169.43 53.06 169.42 53.99 169.42 54.46 C 167.95 56.91 165.27 58.36 162.83 56.17 C 162.52 55.61 161.89 54.50 161.58 53.94 C 162.11 52.16 163.15 50.65 164.76 49.67 Z" />
<path fill="#050406" opacity="1.00" d=" M 82.08 66.83 C 84.86 65.52 87.21 63.43 90.07 62.27 C 93.97 60.48 98.53 61.13 102.36 62.78 C 111.54 66.65 119.99 72.09 127.81 78.23 C 131.35 81.23 135.10 84.19 137.67 88.10 C 136.61 90.12 135.29 91.99 134.15 93.97 C 132.33 95.00 130.53 96.09 128.74 97.18 C 129.54 98.42 130.35 99.65 131.17 100.88 C 129.94 100.37 128.71 99.83 127.49 99.30 C 125.42 101.97 124.03 105.07 123.13 108.32 C 125.28 110.05 127.65 112.22 130.57 112.21 C 133.86 111.32 137.92 110.38 139.34 106.87 C 137.81 106.58 136.28 106.30 134.76 106.02 C 136.99 105.70 139.43 105.69 141.09 103.90 C 138.99 103.12 136.88 102.38 134.77 101.65 C 137.20 102.12 139.63 102.59 142.09 102.91 C 142.51 102.37 143.33 101.29 143.74 100.75 C 142.15 105.20 139.59 109.21 137.55 113.45 C 130.02 128.76 122.93 144.29 115.92 159.84 C 114.55 162.75 114.21 165.99 113.63 169.12 C 110.25 166.83 106.32 165.52 102.25 165.34 C 103.79 167.81 105.39 170.33 105.93 173.24 C 107.52 181.68 106.22 190.31 104.13 198.55 C 106.31 197.97 108.49 197.36 110.60 196.56 C 107.88 200.22 103.31 200.85 99.05 200.51 C 100.09 191.93 97.37 183.30 93.05 175.96 C 90.81 172.06 87.50 168.88 83.55 166.73 C 83.38 171.31 84.64 176.43 81.86 180.48 C 80.33 170.88 76.93 161.17 69.74 154.32 C 65.44 149.66 59.54 146.74 53.23 146.13 C 53.38 146.96 53.68 148.61 53.82 149.44 C 51.99 148.24 50.10 147.10 48.20 146.01 L 47.60 145.67 C 47.74 145.67 48.03 145.67 48.17 145.67 C 49.78 145.68 51.39 145.73 53.00 145.77 C 51.56 142.62 49.85 139.62 47.87 136.78 C 47.66 133.19 48.40 129.61 48.36 126.01 C 48.31 113.33 53.24 101.41 57.85 89.83 L 58.10 89.80 C 58.76 89.74 60.07 89.62 60.72 89.56 C 64.47 84.38 68.74 79.61 73.00 74.86 C 72.16 74.69 70.48 74.35 69.64 74.18 C 69.62 73.75 69.59 72.90 69.58 72.48 C 71.09 72.88 72.60 73.32 74.14 73.58 C 76.21 72.25 78.01 70.55 79.91 69.00 C 77.83 67.44 75.84 65.78 73.96 63.99 C 76.61 65.03 79.17 66.78 82.08 66.83 Z" />
<path fill="#050406" opacity="1.00" d=" M 48.18 158.15 C 48.26 157.32 48.34 156.49 48.41 155.66 C 50.49 157.15 52.38 158.90 53.83 161.02 C 52.04 160.12 50.26 159.22 48.48 158.30 L 48.18 158.15 Z" />
</g>
<g id="#fefefeff">
<path fill="#fefefe" opacity="1.00" d=" M 91.72 11.09 C 95.41 7.12 100.99 6.01 106.19 6.60 C 110.08 8.17 114.18 10.08 116.23 13.99 C 116.39 14.01 116.71 14.06 116.87 14.09 L 117.21 14.48 C 119.14 19.93 119.98 26.45 116.62 31.54 C 112.36 38.71 102.25 41.61 94.98 37.31 C 87.62 33.59 84.78 24.35 87.29 16.75 C 87.63 15.19 88.78 14.02 89.62 12.72 C 90.35 12.22 91.05 11.67 91.72 11.09 M 92.71 12.94 C 92.25 14.63 92.30 16.37 92.72 18.06 C 93.81 18.50 94.90 18.96 95.99 19.42 C 96.57 19.14 97.73 18.59 98.31 18.31 C 100.74 15.76 98.86 12.69 96.14 11.42 C 95.00 11.94 93.86 12.45 92.71 12.94 Z" />
<path fill="#fefefe" opacity="1.00" d=" M 144.81 51.82 C 146.58 47.23 150.64 43.52 155.41 42.25 C 164.15 40.62 173.64 47.74 172.91 56.95 C 173.25 62.15 169.50 66.05 165.93 69.23 L 167.53 68.89 C 166.56 69.23 164.62 69.89 163.65 70.23 C 159.63 71.01 155.45 70.78 151.61 69.33 C 148.53 67.32 146.30 64.34 144.55 61.15 C 144.42 58.06 143.97 54.86 144.81 51.82 M 164.76 49.67 C 163.15 50.65 162.11 52.16 161.58 53.94 C 161.89 54.50 162.52 55.61 162.83 56.17 C 165.27 58.36 167.95 56.91 169.42 54.46 C 169.42 53.99 169.43 53.06 169.43 52.60 C 168.44 51.54 167.39 50.54 166.30 49.59 C 165.92 49.61 165.14 49.65 164.76 49.67 Z" />
<path fill="#fefefe" opacity="1.00" d=" M 80.05 45.71 C 84.88 44.11 91.03 43.08 95.21 46.72 C 108.32 56.37 118.93 69.68 134.18 76.24 C 139.69 79.08 146.98 76.64 151.63 81.38 C 154.02 82.81 152.37 85.51 151.31 87.23 C 148.53 91.60 146.47 96.37 143.74 100.75 C 143.33 101.29 142.51 102.37 142.09 102.91 C 139.63 102.59 137.20 102.12 134.77 101.65 C 136.88 102.38 138.99 103.12 141.09 103.90 C 139.43 105.69 136.99 105.70 134.76 106.02 C 136.28 106.30 137.81 106.58 139.34 106.87 C 137.92 110.38 133.86 111.32 130.57 112.21 C 127.65 112.22 125.28 110.05 123.13 108.32 C 124.03 105.07 125.42 101.97 127.49 99.30 C 128.71 99.83 129.94 100.37 131.17 100.88 C 130.35 99.65 129.54 98.42 128.74 97.18 C 130.53 96.09 132.33 95.00 134.15 93.97 C 135.29 91.99 136.61 90.12 137.67 88.10 C 135.10 84.19 131.35 81.23 127.81 78.23 C 119.99 72.09 111.54 66.65 102.36 62.78 C 98.53 61.13 93.97 60.48 90.07 62.27 C 87.21 63.43 84.86 65.52 82.08 66.83 C 79.17 66.78 76.61 65.03 73.96 63.99 C 75.84 65.78 77.83 67.44 79.91 69.00 C 78.01 70.55 76.21 72.25 74.14 73.58 C 72.60 73.32 71.09 72.88 69.58 72.48 C 69.59 72.90 69.62 73.75 69.64 74.18 C 70.48 74.35 72.16 74.69 73.00 74.86 C 68.74 79.61 64.47 84.38 60.72 89.56 C 60.07 89.62 58.76 89.74 58.10 89.80 C 64.09 74.50 71.89 59.96 80.05 45.71 Z" />
<path fill="#fefefe" opacity="1.00" d=" M 47.87 136.78 C 49.85 139.62 51.56 142.62 53.00 145.77 C 51.39 145.73 49.78 145.68 48.17 145.67 C 47.67 142.73 47.64 139.75 47.87 136.78 Z" />
<path fill="#fefefe" opacity="1.00" d=" M 48.20 146.01 C 50.10 147.10 51.99 148.24 53.82 149.44 C 56.81 158.07 57.75 167.23 58.89 176.24 C 59.38 181.80 65.28 184.47 69.87 186.22 C 80.36 189.32 89.37 195.69 99.05 200.51 C 103.31 200.85 107.88 200.22 110.60 196.56 C 108.49 197.36 106.31 197.97 104.13 198.55 C 106.22 190.31 107.52 181.68 105.93 173.24 C 105.39 170.33 103.79 167.81 102.25 165.34 C 106.32 165.52 110.25 166.83 113.63 169.12 C 113.50 173.41 114.00 177.73 113.59 182.01 C 113.01 182.32 111.85 182.94 111.27 183.25 C 112.33 183.64 113.38 184.05 114.44 184.46 C 114.49 189.16 114.72 193.86 114.49 198.56 C 112.68 200.03 110.92 201.72 108.69 202.55 C 104.01 203.31 99.55 201.23 95.18 199.87 C 80.39 194.41 65.61 187.75 53.55 177.39 C 47.69 172.94 48.86 164.79 48.48 158.30 C 50.26 159.22 52.04 160.12 53.83 161.02 C 52.38 158.90 50.49 157.15 48.41 155.66 C 48.18 152.45 48.16 149.22 48.20 146.01 Z" />
</g>
<g id="#70164cff">
<path fill="#70164c" opacity="1.00" d=" M 117.21 14.48 C 120.29 16.90 120.49 21.43 120.25 25.04 C 119.41 32.28 113.61 37.73 107.16 40.40 C 102.39 41.23 97.10 41.09 93.07 38.08 C 88.29 34.63 85.07 29.00 85.31 23.01 C 85.56 20.86 84.84 17.82 87.29 16.75 C 84.78 24.35 87.62 33.59 94.98 37.31 C 102.25 41.61 112.36 38.71 116.62 31.54 C 119.98 26.45 119.14 19.93 117.21 14.48 Z" />
<path fill="#70164c" opacity="1.00" d=" M 155.41 42.25 C 157.29 41.75 159.20 41.41 161.13 41.12 C 170.30 42.54 177.68 53.63 173.10 62.32 C 171.65 65.34 169.55 68.72 165.93 69.23 C 169.50 66.05 173.25 62.15 172.91 56.95 C 173.64 47.74 164.15 40.62 155.41 42.25 Z" />
<path fill="#70164c" opacity="1.00" d=" M 151.61 69.33 C 155.45 70.78 159.63 71.01 163.65 70.23 C 159.74 72.10 154.98 72.47 151.61 69.33 Z" />
<path fill="#70164c" opacity="1.00" d=" M 53.23 146.13 C 59.54 146.74 65.44 149.66 69.74 154.32 C 76.93 161.17 80.33 170.88 81.86 180.48 C 84.64 176.43 83.38 171.31 83.55 166.73 C 87.50 168.88 90.81 172.06 93.05 175.96 C 97.37 183.30 100.09 191.93 99.05 200.51 C 89.37 195.69 80.36 189.32 69.87 186.22 C 65.28 184.47 59.38 181.80 58.89 176.24 C 57.75 167.23 56.81 158.07 53.82 149.44 C 53.68 148.61 53.38 146.96 53.23 146.13 Z" />
</g>
<g id="#fe0000ff">
<path fill="#fe0000" opacity="1.00" d=" M 67.69 40.85 C 70.76 33.37 79.45 31.26 86.76 31.30 C 88.54 33.82 90.43 36.38 93.07 38.08 C 97.10 41.09 102.39 41.23 107.16 40.40 L 108.50 40.23 C 117.31 47.82 125.45 56.36 135.51 62.33 C 138.51 64.24 142.01 64.91 145.45 65.45 C 149.22 70.62 155.51 72.65 161.67 72.87 C 163.97 75.07 165.33 77.96 166.38 80.91 C 167.08 86.08 164.70 90.81 161.99 95.01 C 149.44 117.38 139.08 140.88 128.43 164.19 C 125.35 171.14 127.53 178.74 127.56 186.01 C 127.64 191.33 128.22 196.76 127.07 202.01 C 124.72 208.59 118.46 212.97 112.13 215.32 C 107.60 216.29 102.82 215.84 98.38 214.61 C 88.23 211.83 78.55 207.60 69.12 202.99 C 60.82 198.55 52.43 194.00 45.39 187.67 C 42.11 184.56 38.74 181.22 37.15 176.89 C 35.68 171.37 35.47 165.62 35.35 159.94 C 34.13 147.69 34.00 135.27 35.37 123.04 C 35.50 112.99 38.65 103.34 42.06 93.99 C 49.03 75.57 57.95 57.95 67.69 40.85 M 80.05 45.71 C 71.89 59.96 64.09 74.50 58.10 89.80 L 57.85 89.83 C 53.24 101.41 48.31 113.33 48.36 126.01 C 48.40 129.61 47.66 133.19 47.87 136.78 C 47.64 139.75 47.67 142.73 48.17 145.67 C 48.03 145.67 47.74 145.67 47.60 145.67 L 48.20 146.01 C 48.16 149.22 48.18 152.45 48.41 155.66 C 48.34 156.49 48.26 157.32 48.18 158.15 L 48.48 158.30 C 48.86 164.79 47.69 172.94 53.55 177.39 C 65.61 187.75 80.39 194.41 95.18 199.87 C 99.55 201.23 104.01 203.31 108.69 202.55 C 110.92 201.72 112.68 200.03 114.49 198.56 C 114.72 193.86 114.49 189.16 114.44 184.46 C 113.38 184.05 112.33 183.64 111.27 183.25 C 111.85 182.94 113.01 182.32 113.59 182.01 C 114.00 177.73 113.50 173.41 113.63 169.12 C 114.21 165.99 114.55 162.75 115.92 159.84 C 122.93 144.29 130.02 128.76 137.55 113.45 C 139.59 109.21 142.15 105.20 143.74 100.75 C 146.47 96.37 148.53 91.60 151.31 87.23 C 152.37 85.51 154.02 82.81 151.63 81.38 C 146.98 76.64 139.69 79.08 134.18 76.24 C 118.93 69.68 108.32 56.37 95.21 46.72 C 91.03 43.08 84.88 44.11 80.05 45.71 Z" />
</g>
</svg>
