<?xml version="1.0" encoding="UTF-8" ?>
<!DOCTYPE svg PUBLIC "-//W3C//DTD SVG 1.1//EN" "http://www.w3.org/Graphics/SVG/1.1/DTD/svg11.dtd">
<svg width="210pt" height="220pt" viewBox="0 0 210 220" version="1.1" xmlns="http://www.w3.org/2000/svg">
<g id="#fefefeff">
<path fill="#fefefe" opacity="1.00" d=" M 109.28 6.31 C 110.58 6.75 111.89 6.71 113.20 6.20 L 111.70 7.03 C 111.83 7.23 112.09 7.63 112.22 7.82 C 114.45 8.32 116.74 7.73 118.99 7.64 L 118.19 6.56 C 121.42 6.62 124.65 6.62 127.88 6.64 C 127.52 7.07 126.81 7.95 126.45 8.38 C 130.22 9.68 134.78 8.62 137.87 11.56 C 138.94 11.60 140.01 11.65 141.09 11.70 C 138.78 12.16 136.37 12.28 134.85 10.14 C 130.66 9.94 126.62 8.50 122.42 8.57 C 117.90 8.58 113.37 7.95 108.85 8.55 C 109.21 8.35 109.94 7.94 110.30 7.74 C 110.04 7.38 109.53 6.67 109.28 6.31 Z" />
<path fill="#fefefe" opacity="1.00" d=" M 106.05 13.08 C 109.91 12.44 113.80 11.96 117.68 11.37 C 116.57 14.86 115.36 18.31 114.24 21.79 C 108.41 22.18 102.63 21.22 96.94 20.09 C 92.00 19.04 86.93 19.35 81.91 19.31 C 89.32 15.38 97.86 14.33 106.05 13.08 Z" />
<path fill="#fefefe" opacity="1.00" d=" M 120.73 11.36 C 124.82 11.16 128.88 11.73 132.96 11.98 C 132.01 13.08 130.98 14.14 129.74 14.91 C 129.98 15.96 130.28 17.00 130.58 18.03 C 132.58 16.66 134.66 15.39 136.81 14.24 C 136.20 18.50 131.29 19.76 128.26 21.97 C 128.62 21.22 129.34 19.73 129.70 18.98 C 129.38 18.42 128.81 16.49 128.04 17.72 C 126.33 19.98 123.92 23.58 120.67 21.73 C 120.82 18.28 120.78 14.82 120.73 11.36 Z" />
<path fill="#fefefe" opacity="1.00" d=" M 130.21 24.17 C 133.30 22.11 135.95 19.47 138.95 17.30 C 143.05 19.27 146.85 21.82 150.64 24.33 C 154.30 26.79 157.82 30.35 157.70 35.10 C 163.80 38.48 164.16 45.84 166.38 51.67 C 166.56 49.25 166.57 46.82 166.68 44.40 C 169.03 51.60 177.68 56.03 176.26 64.43 C 172.60 60.99 172.94 54.84 168.11 52.38 C 168.05 62.71 178.62 67.95 181.78 76.97 C 184.03 83.21 187.08 89.32 187.42 96.06 C 187.56 103.18 193.58 108.22 194.92 115.00 C 198.55 131.30 198.37 148.10 198.30 164.71 C 202.46 168.93 199.86 175.27 200.48 180.50 C 190.65 190.69 189.58 205.48 184.45 218.04 C 142.09 217.96 99.73 218.00 57.37 218.02 C 56.07 214.84 52.96 213.92 49.86 213.42 C 45.90 209.82 40.87 208.06 36.12 205.83 C 32.07 204.13 32.44 199.06 29.66 196.23 C 27.41 193.24 23.57 191.15 23.01 187.16 C 20.03 173.51 15.78 160.19 11.46 146.92 C 9.80 143.16 10.56 138.99 10.46 135.02 C 10.41 125.98 11.76 116.99 11.31 107.94 C 10.97 104.63 13.27 101.96 14.18 98.95 C 17.19 89.80 17.09 79.88 20.76 70.91 C 21.91 70.36 23.05 69.83 24.17 69.22 C 30.71 65.89 31.16 56.53 38.16 53.78 C 43.76 53.17 49.73 54.62 54.44 57.75 C 60.33 62.11 64.83 68.00 69.05 73.92 C 60.79 71.64 51.37 71.00 43.79 75.67 C 34.68 80.83 30.37 91.94 31.59 102.06 C 36.43 106.81 34.01 114.07 35.43 120.03 C 42.30 127.35 53.02 129.58 62.61 127.62 C 65.56 124.61 70.31 121.98 69.66 117.08 C 66.56 119.49 64.33 122.89 61.11 125.13 C 54.15 126.22 45.87 125.82 40.68 120.39 C 36.48 115.94 36.18 109.51 36.19 103.74 C 41.06 103.75 46.76 101.94 48.71 97.04 C 50.40 94.15 48.46 91.15 47.26 88.53 C 43.62 88.51 39.98 88.44 36.35 88.64 C 38.48 91.57 42.46 90.79 45.60 91.38 C 45.96 93.14 47.53 95.30 45.95 96.89 C 42.96 100.58 37.76 100.56 33.44 100.86 C 33.38 96.86 33.26 92.70 35.05 89.00 C 40.62 76.44 57.64 70.49 69.78 76.93 C 74.91 79.58 77.34 85.12 78.64 90.45 C 80.66 90.36 82.68 90.26 84.70 90.12 C 82.46 88.40 79.27 87.42 78.63 84.30 C 81.60 83.89 85.01 84.85 85.70 88.15 C 86.11 94.20 83.50 100.06 79.69 104.64 C 76.84 108.56 73.10 111.98 71.21 116.52 C 72.15 116.12 73.09 115.68 74.01 115.23 C 76.55 112.08 79.93 109.70 82.27 106.38 C 86.64 100.09 88.49 92.14 87.44 84.56 C 78.04 79.37 70.47 71.54 64.29 62.85 C 66.45 62.71 68.62 62.53 70.78 62.28 C 70.70 61.10 70.70 59.92 70.45 58.77 C 67.37 55.23 62.38 54.69 58.06 53.75 C 52.51 52.92 46.99 51.56 42.07 48.77 C 43.85 45.18 46.89 42.47 49.42 39.43 C 53.84 34.16 58.52 29.01 64.18 25.05 C 67.00 23.03 70.64 23.10 73.95 22.64 C 87.20 21.89 100.78 21.84 113.61 25.69 C 112.79 27.61 112.04 29.56 110.94 31.35 C 108.75 31.80 107.22 29.93 105.48 28.96 C 105.12 31.32 104.78 33.68 104.51 36.06 C 103.40 45.29 98.09 53.58 98.10 63.01 C 98.07 67.08 99.34 70.94 101.57 74.33 C 100.86 74.45 99.43 74.69 98.72 74.81 C 100.21 79.68 105.25 75.75 108.39 75.03 C 108.29 70.31 107.95 65.33 110.04 60.94 C 112.31 55.16 116.98 50.90 120.49 45.92 C 121.08 41.66 120.23 37.26 121.36 33.04 C 121.86 30.25 123.58 27.52 126.27 26.42 C 130.30 25.73 135.53 29.59 138.15 24.84 C 135.51 24.54 132.85 24.41 130.21 24.17 M 131.18 46.99 C 136.82 42.48 144.52 44.60 150.17 47.93 C 151.17 52.83 157.47 54.05 157.66 59.29 C 164.84 61.12 165.31 69.66 170.40 73.92 C 168.89 79.20 175.58 81.80 174.42 87.00 C 174.98 94.43 169.38 100.20 163.28 103.47 C 156.48 103.53 149.67 103.57 142.88 103.17 C 142.40 103.84 141.91 104.51 141.43 105.18 C 150.30 106.49 159.96 107.70 168.22 103.28 C 173.09 100.96 176.16 96.04 177.09 90.84 C 178.65 78.95 168.76 70.19 165.09 59.72 C 163.27 58.95 161.45 58.19 159.66 57.37 C 159.34 56.40 158.99 55.45 158.60 54.51 C 157.10 50.41 152.23 49.18 151.19 44.76 C 146.93 43.29 142.48 42.26 137.95 42.48 C 135.03 42.46 130.68 43.05 131.18 46.99 M 135.80 46.63 C 127.15 50.21 123.20 59.39 115.78 64.56 C 114.42 70.66 112.38 76.76 113.35 83.10 C 116.02 85.92 119.18 88.55 120.63 92.27 C 121.39 93.88 121.74 95.83 123.27 96.94 C 128.50 101.22 135.11 103.05 141.30 105.44 C 141.31 104.48 141.33 103.52 141.35 102.57 C 139.50 102.64 137.59 102.57 135.98 101.53 C 126.96 97.16 121.75 88.24 115.19 81.11 C 115.50 75.72 116.73 70.29 119.44 65.58 C 123.64 57.83 131.10 52.65 138.74 48.67 C 139.38 48.53 140.65 48.26 141.29 48.13 C 141.40 47.71 141.64 46.86 141.76 46.44 C 139.77 46.46 137.78 46.53 135.80 46.63 M 144.82 57.70 C 144.69 61.52 144.68 65.36 144.89 69.18 C 149.57 70.23 154.25 72.12 159.13 71.64 C 161.27 71.50 162.24 69.22 163.63 67.90 C 162.74 67.01 161.84 66.13 160.94 65.24 C 160.37 66.84 159.90 68.71 158.07 69.28 C 154.41 69.91 150.94 68.06 147.52 67.05 C 147.48 63.51 147.54 59.97 147.42 56.44 C 146.52 56.78 145.43 56.85 144.82 57.70 M 160.06 129.04 C 159.35 131.73 158.70 134.43 158.27 137.18 C 163.65 138.02 169.56 138.61 174.46 135.70 C 179.79 132.66 184.75 128.77 190.86 127.38 C 190.64 123.06 189.01 118.95 189.16 114.61 C 188.92 114.21 188.45 113.40 188.21 113.00 C 182.91 111.00 177.66 108.84 172.07 107.75 C 170.70 107.68 169.33 107.61 167.96 107.56 C 163.69 114.01 161.68 121.57 160.06 129.04 Z" />
<path fill="#fefefe" opacity="1.00" d=" M 115.85 25.21 C 116.28 25.31 117.14 25.52 117.57 25.63 C 118.07 28.94 117.48 33.78 113.20 33.92 C 113.94 30.97 115.12 28.16 115.85 25.21 Z" />
<path fill="#fefefe" opacity="1.00" d=" M 109.73 32.95 C 110.74 35.35 110.21 37.85 109.21 40.14 C 108.73 40.23 107.78 40.40 107.31 40.49 C 107.48 38.45 108.16 36.52 108.82 34.60 L 109.81 34.63 L 109.73 32.95 Z" />
<path fill="#fefefe" opacity="1.00" d=" M 114.94 35.66 C 115.41 35.58 116.33 35.42 116.80 35.34 C 115.91 39.11 114.34 42.65 112.90 46.23 C 111.42 42.55 113.38 38.92 114.94 35.66 Z" />
<path fill="#fefefe" opacity="1.00" d=" M 168.65 40.87 C 169.88 41.97 171.05 43.13 172.19 44.33 C 173.89 48.46 177.52 51.35 179.36 55.35 C 179.45 62.43 181.48 69.48 185.31 75.46 C 186.32 79.86 189.82 82.93 192.38 86.45 C 192.87 87.92 192.28 89.47 192.23 90.96 L 192.04 91.54 C 195.74 99.92 199.93 108.81 198.31 118.24 C 195.70 106.83 189.04 96.74 187.24 85.12 C 188.76 86.42 190.24 87.74 191.76 89.03 C 192.01 86.16 190.11 83.84 188.48 81.71 C 188.12 81.67 187.40 81.59 187.04 81.55 C 183.45 73.26 179.81 64.90 178.35 55.92 C 176.71 50.06 171.97 45.80 168.65 40.87 Z" />
<path fill="#fefefe" opacity="1.00" d=" M 28.14 49.22 C 28.66 48.84 29.69 48.09 30.20 47.72 C 30.83 48.06 32.07 48.73 32.69 49.06 C 31.55 50.16 29.84 49.95 28.41 49.74 L 28.14 49.22 Z" />
<path fill="#fefefe" opacity="1.00" d=" M 62.58 57.48 C 64.18 57.78 65.76 58.14 67.32 58.57 C 67.39 59.10 67.53 60.15 67.60 60.67 C 65.81 60.41 64.03 60.03 62.30 59.51 C 62.37 59.00 62.51 57.99 62.58 57.48 Z" />
<path fill="#fefefe" opacity="1.00" d=" M 104.11 60.01 C 105.43 61.75 105.46 63.91 104.93 65.95 C 104.74 67.28 104.54 68.61 104.35 69.94 C 103.12 68.52 100.94 67.33 101.14 65.20 C 101.76 63.30 103.13 61.74 104.11 60.01 Z" />
<path fill="#fefefe" opacity="1.00" d=" M 12.60 87.34 C 13.09 87.37 14.06 87.42 14.54 87.45 C 12.48 95.37 8.84 102.83 7.67 110.97 C 7.43 117.83 6.44 124.64 7.75 131.46 L 8.32 131.53 C 9.29 149.13 15.10 165.91 18.49 183.10 C 18.11 182.36 17.74 181.62 17.37 180.89 C 14.84 177.05 11.07 173.74 10.28 169.02 C 7.72 157.15 7.32 144.95 7.20 132.85 C 6.34 123.79 7.06 114.70 6.71 105.63 C 6.69 105.08 6.64 103.98 6.61 103.43 L 7.44 103.66 L 7.29 102.23 L 8.84 102.64 L 8.27 101.38 L 9.42 101.68 C 11.07 98.66 12.43 95.31 11.63 91.82 L 12.52 91.69 C 12.54 90.24 12.57 88.79 12.60 87.34 Z" />
<path fill="#fefefe" opacity="1.00" d=" M 176.93 112.60 C 180.63 112.35 184.12 113.73 187.32 115.43 C 187.30 118.99 186.99 122.68 188.58 126.00 C 184.85 124.97 182.94 121.40 179.95 119.31 C 176.33 120.19 173.29 122.64 169.73 123.78 C 169.74 126.73 169.62 129.67 169.26 132.59 C 167.52 132.67 165.78 132.66 164.05 132.69 C 163.16 133.09 162.27 133.48 161.37 133.85 C 162.74 128.81 163.18 123.42 165.86 118.81 C 167.62 118.25 169.38 117.68 171.17 117.18 C 171.69 116.91 172.73 116.36 173.25 116.09 C 173.44 115.53 173.82 114.41 174.01 113.85 C 174.99 113.44 175.96 113.02 176.93 112.60 Z" />
<path fill="#fefefe" opacity="1.00" d=" M 171.32 125.82 C 173.65 124.81 175.92 123.67 178.11 122.37 C 178.67 122.40 179.78 122.47 180.34 122.51 C 180.38 122.94 180.46 123.80 180.50 124.23 C 176.64 124.81 174.14 127.79 173.00 131.35 C 172.05 129.63 171.55 127.75 171.32 125.82 Z" />
<path fill="#fefefe" opacity="1.00" d=" M 178.06 127.51 C 178.60 128.04 179.15 128.57 179.70 129.10 C 178.57 130.63 177.29 132.12 175.18 131.77 C 176.10 130.32 177.09 128.93 178.06 127.51 Z" />
<path fill="#fefefe" opacity="1.00" d=" M 23.50 194.04 C 28.26 198.83 31.14 205.36 36.79 209.25 C 39.54 211.25 42.92 211.97 46.19 212.62 C 48.49 214.96 51.17 216.98 54.35 217.93 C 45.93 218.00 37.50 218.08 29.08 217.92 C 26.44 210.18 22.82 202.44 23.50 194.04 Z" />
</g>
<g id="#020202fe">
<path fill="#020202" opacity="1.00" d=" M 122.42 8.57 C 126.62 8.50 130.66 9.94 134.85 10.14 C 136.37 12.28 138.78 12.16 141.09 11.70 C 141.85 11.65 143.36 11.55 144.12 11.50 C 144.88 14.19 145.49 17.17 147.75 19.05 C 151.30 22.20 155.40 24.76 158.38 28.53 C 161.70 32.73 165.51 36.52 168.65 40.87 C 171.97 45.80 176.71 50.06 178.35 55.92 C 179.81 64.90 183.45 73.26 187.04 81.55 C 187.40 81.59 188.12 81.67 188.48 81.71 C 190.11 83.84 192.01 86.16 191.76 89.03 C 190.24 87.74 188.76 86.42 187.24 85.12 C 189.04 96.74 195.70 106.83 198.31 118.24 C 199.93 108.81 195.74 99.92 192.04 91.54 L 192.23 90.96 C 192.52 90.70 193.12 90.16 193.41 89.90 C 199.07 97.33 201.26 106.79 201.36 115.99 C 201.30 127.00 201.36 138.02 201.31 149.03 C 201.22 153.02 202.05 156.94 202.42 160.90 C 202.81 165.68 206.51 170.05 204.96 174.98 C 203.58 179.81 202.75 184.89 200.50 189.41 C 197.87 193.24 195.72 197.43 194.75 202.01 C 194.27 205.41 191.65 207.85 190.48 210.97 C 189.56 213.08 189.37 215.40 189.05 217.65 C 187.52 217.80 185.98 217.93 184.45 218.04 C 189.58 205.48 190.65 190.69 200.48 180.50 C 199.86 175.27 202.46 168.93 198.30 164.71 C 198.37 148.10 198.55 131.30 194.92 115.00 C 193.58 108.22 187.56 103.18 187.42 96.06 C 187.08 89.32 184.03 83.21 181.78 76.97 C 178.62 67.95 168.05 62.71 168.11 52.38 C 172.94 54.84 172.60 60.99 176.26 64.43 C 177.68 56.03 169.03 51.60 166.68 44.40 C 166.57 46.82 166.56 49.25 166.38 51.67 C 164.16 45.84 163.80 38.48 157.70 35.10 C 157.82 30.35 154.30 26.79 150.64 24.33 C 146.85 21.82 143.05 19.27 138.95 17.30 C 135.95 19.47 133.30 22.11 130.21 24.17 C 132.85 24.41 135.51 24.54 138.15 24.84 C 135.53 29.59 130.30 25.73 126.27 26.42 C 123.58 27.52 121.86 30.25 121.36 33.04 C 120.23 37.26 121.08 41.66 120.49 45.92 C 116.98 50.90 112.31 55.16 110.04 60.94 C 107.95 65.33 108.29 70.31 108.39 75.03 C 105.25 75.75 100.21 79.68 98.72 74.81 C 99.43 74.69 100.86 74.45 101.57 74.33 C 99.34 70.94 98.07 67.08 98.10 63.01 C 98.09 53.58 103.40 45.29 104.51 36.06 C 104.78 33.68 105.12 31.32 105.48 28.96 C 107.22 29.93 108.75 31.80 110.94 31.35 C 112.04 29.56 112.79 27.61 113.61 25.69 C 100.78 21.84 87.20 21.89 73.95 22.64 C 70.64 23.10 67.00 23.03 64.18 25.05 C 58.52 29.01 53.84 34.16 49.42 39.43 C 46.89 42.47 43.85 45.18 42.07 48.77 C 46.99 51.56 52.51 52.92 58.06 53.75 C 62.38 54.69 67.37 55.23 70.45 58.77 C 70.70 59.92 70.70 61.10 70.78 62.28 C 68.62 62.53 66.45 62.71 64.29 62.85 C 70.47 71.54 78.04 79.37 87.44 84.56 C 88.49 92.14 86.64 100.09 82.27 106.38 C 79.93 109.70 76.55 112.08 74.01 115.23 C 73.09 115.68 72.15 116.12 71.21 116.52 C 73.10 111.98 76.84 108.56 79.69 104.64 C 83.50 100.06 86.11 94.20 85.70 88.15 C 85.01 84.85 81.60 83.89 78.63 84.30 C 79.27 87.42 82.46 88.40 84.70 90.12 C 82.68 90.26 80.66 90.36 78.64 90.45 C 77.34 85.12 74.91 79.58 69.78 76.93 C 57.64 70.49 40.62 76.44 35.05 89.00 C 33.26 92.70 33.38 96.86 33.44 100.86 C 37.76 100.56 42.96 100.58 45.95 96.89 C 47.53 95.30 45.96 93.14 45.60 91.38 C 42.46 90.79 38.48 91.57 36.35 88.64 C 39.98 88.44 43.62 88.51 47.26 88.53 C 48.46 91.15 50.40 94.15 48.71 97.04 C 46.76 101.94 41.06 103.75 36.19 103.74 C 36.18 109.51 36.48 115.94 40.68 120.39 C 45.87 125.82 54.15 126.22 61.11 125.13 C 64.33 122.89 66.56 119.49 69.66 117.08 C 70.31 121.98 65.56 124.61 62.61 127.62 C 53.02 129.58 42.30 127.35 35.43 120.03 C 34.01 114.07 36.43 106.81 31.59 102.06 C 30.37 91.94 34.68 80.83 43.79 75.67 C 51.37 71.00 60.79 71.64 69.05 73.92 C 64.83 68.00 60.33 62.11 54.44 57.75 C 49.73 54.62 43.76 53.17 38.16 53.78 C 31.16 56.53 30.71 65.89 24.17 69.22 C 23.05 69.83 21.91 70.36 20.76 70.91 C 17.09 79.88 17.19 89.80 14.18 98.95 C 13.27 101.96 10.97 104.63 11.31 107.94 C 11.76 116.99 10.41 125.98 10.46 135.02 C 10.56 138.99 9.80 143.16 11.46 146.92 C 15.78 160.19 20.03 173.51 23.01 187.16 C 23.57 191.15 27.41 193.24 29.66 196.23 C 32.44 199.06 32.07 204.13 36.12 205.83 C 40.87 208.06 45.90 209.82 49.86 213.42 C 52.96 213.92 56.07 214.84 57.37 218.02 C 56.62 218.00 55.11 217.96 54.35 217.93 C 51.17 216.98 48.49 214.96 46.19 212.62 C 42.92 211.97 39.54 211.25 36.79 209.25 C 31.14 205.36 28.26 198.83 23.50 194.04 C 22.82 202.44 26.44 210.18 29.08 217.92 C 27.59 217.97 26.10 218.02 24.61 218.07 C 24.10 215.75 23.78 213.40 23.61 211.04 C 23.30 206.81 21.04 203.05 20.45 198.87 C 19.62 195.30 20.05 191.33 17.91 188.17 C 15.12 183.07 10.87 178.79 8.93 173.24 C 8.26 169.21 9.18 164.94 7.62 161.05 C 4.36 152.11 3.34 142.48 3.62 133.01 C 3.80 126.99 3.13 120.90 4.18 114.93 C 4.74 111.49 5.00 107.98 4.53 104.51 C 5.25 104.90 5.98 105.27 6.71 105.63 C 7.06 114.70 6.34 123.79 7.20 132.85 C 7.32 144.95 7.72 157.15 10.28 169.02 C 11.07 173.74 14.84 177.05 17.37 180.89 C 17.74 181.62 18.11 182.36 18.49 183.10 C 15.10 165.91 9.29 149.13 8.32 131.53 L 7.75 131.46 C 6.44 124.64 7.43 117.83 7.67 110.97 C 8.84 102.83 12.48 95.37 14.54 87.45 C 14.06 87.42 13.09 87.37 12.60 87.34 C 12.57 88.79 12.54 90.24 12.52 91.69 L 11.63 91.82 C 10.86 88.11 10.54 83.99 12.57 80.60 C 14.94 76.66 16.03 72.18 17.85 68.00 C 23.19 67.05 24.95 61.49 27.96 57.76 C 29.28 56.31 29.67 54.40 29.71 52.49 C 26.41 52.26 23.11 52.33 19.81 52.37 C 19.68 51.88 19.42 50.88 19.29 50.39 C 22.17 49.08 25.36 49.32 28.41 49.74 C 29.84 49.95 31.55 50.16 32.69 49.06 C 32.07 48.73 30.83 48.06 30.20 47.72 C 33.24 47.38 36.75 47.54 38.99 45.07 C 41.92 42.13 46.19 40.27 47.80 36.22 C 49.33 31.89 53.65 29.77 56.72 26.69 C 60.97 23.38 65.42 19.32 71.14 19.33 C 77.79 18.93 83.45 15.09 89.86 13.72 C 97.93 11.85 105.94 9.08 114.31 9.21 C 117.03 9.14 119.72 8.75 122.42 8.57 M 106.05 13.08 C 97.86 14.33 89.32 15.38 81.91 19.31 C 86.93 19.35 92.00 19.04 96.94 20.09 C 102.63 21.22 108.41 22.18 114.24 21.79 C 115.36 18.31 116.57 14.86 117.68 11.37 C 113.80 11.96 109.91 12.44 106.05 13.08 M 120.73 11.36 C 120.78 14.82 120.82 18.28 120.67 21.73 C 123.92 23.58 126.33 19.98 128.04 17.72 C 128.81 16.49 129.38 18.42 129.70 18.98 C 129.34 19.73 128.62 21.22 128.26 21.97 C 131.29 19.76 136.20 18.50 136.81 14.24 C 134.66 15.39 132.58 16.66 130.58 18.03 C 130.28 17.00 129.98 15.96 129.74 14.91 C 130.98 14.14 132.01 13.08 132.96 11.98 C 128.88 11.73 124.82 11.16 120.73 11.36 M 115.85 25.21 C 115.12 28.16 113.94 30.97 113.20 33.92 C 117.48 33.78 118.07 28.94 117.57 25.63 C 117.14 25.52 116.28 25.31 115.85 25.21 M 109.73 32.95 L 109.81 34.63 L 108.82 34.60 C 108.16 36.52 107.48 38.45 107.31 40.49 C 107.78 40.40 108.73 40.23 109.21 40.14 C 110.21 37.85 110.74 35.35 109.73 32.95 M 114.94 35.66 C 113.38 38.92 111.42 42.55 112.90 46.23 C 114.34 42.65 115.91 39.11 116.80 35.34 C 116.33 35.42 115.41 35.58 114.94 35.66 M 62.58 57.48 C 62.51 57.99 62.37 59.00 62.30 59.51 C 64.03 60.03 65.81 60.41 67.60 60.67 C 67.53 60.15 67.39 59.10 67.32 58.57 C 65.76 58.14 64.18 57.78 62.58 57.48 M 104.11 60.01 C 103.13 61.74 101.76 63.30 101.14 65.20 C 100.94 67.33 103.12 68.52 104.35 69.94 C 104.54 68.61 104.74 67.28 104.93 65.95 C 105.46 63.91 105.43 61.75 104.11 60.01 Z" />
<path fill="#020202" opacity="1.00" d=" M 131.18 46.99 C 130.68 43.05 135.03 42.46 137.95 42.48 C 142.48 42.26 146.93 43.29 151.19 44.76 C 152.23 49.18 157.10 50.41 158.60 54.51 C 158.99 55.45 159.34 56.40 159.66 57.37 C 161.45 58.19 163.27 58.95 165.09 59.72 C 168.76 70.19 178.65 78.95 177.09 90.84 C 176.16 96.04 173.09 100.96 168.22 103.28 C 159.96 107.70 150.30 106.49 141.43 105.18 C 141.91 104.51 142.40 103.84 142.88 103.17 C 149.67 103.57 156.48 103.53 163.28 103.47 C 169.38 100.20 174.98 94.43 174.42 87.00 C 175.58 81.80 168.89 79.20 170.40 73.92 C 165.31 69.66 164.84 61.12 157.66 59.29 C 157.47 54.05 151.17 52.83 150.17 47.93 C 144.52 44.60 136.82 42.48 131.18 46.99 Z" />
<path fill="#020202" opacity="1.00" d=" M 135.80 46.63 C 137.78 46.53 139.77 46.46 141.76 46.44 C 141.64 46.86 141.40 47.71 141.29 48.13 C 140.65 48.26 139.38 48.53 138.74 48.67 C 131.10 52.65 123.64 57.83 119.44 65.58 C 116.73 70.29 115.50 75.72 115.19 81.11 C 121.75 88.24 126.96 97.16 135.98 101.53 C 137.59 102.57 139.50 102.64 141.35 102.57 C 141.33 103.52 141.31 104.48 141.30 105.44 C 135.11 103.05 128.50 101.22 123.27 96.94 C 121.74 95.83 121.39 93.88 120.63 92.27 C 119.18 88.55 116.02 85.92 113.35 83.10 C 112.38 76.76 114.42 70.66 115.78 64.56 C 123.20 59.39 127.15 50.21 135.80 46.63 Z" />
<path fill="#020202" opacity="1.00" d=" M 144.82 57.70 C 145.43 56.85 146.52 56.78 147.42 56.44 C 147.54 59.97 147.48 63.51 147.52 67.05 C 150.94 68.06 154.41 69.91 158.07 69.28 C 159.90 68.71 160.37 66.84 160.94 65.24 C 161.84 66.13 162.74 67.01 163.63 67.90 C 162.24 69.22 161.27 71.50 159.13 71.64 C 154.25 72.12 149.57 70.23 144.89 69.18 C 144.68 65.36 144.69 61.52 144.82 57.70 Z" />
<path fill="#020202" opacity="1.00" d=" M 160.06 129.04 C 161.68 121.57 163.69 114.01 167.96 107.56 C 169.33 107.61 170.70 107.68 172.07 107.75 C 177.66 108.84 182.91 111.00 188.21 113.00 C 188.45 113.40 188.92 114.21 189.16 114.61 C 189.01 118.95 190.64 123.06 190.86 127.38 C 184.75 128.77 179.79 132.66 174.46 135.70 C 169.56 138.61 163.65 138.02 158.27 137.18 C 158.70 134.43 159.35 131.73 160.06 129.04 M 176.93 112.60 C 175.96 113.02 174.99 113.44 174.01 113.85 C 173.82 114.41 173.44 115.53 173.25 116.09 C 172.73 116.36 171.69 116.91 171.17 117.18 C 169.38 117.68 167.62 118.25 165.86 118.81 C 163.18 123.42 162.74 128.81 161.37 133.85 C 162.27 133.48 163.16 133.09 164.05 132.69 C 165.78 132.66 167.52 132.67 169.26 132.59 C 169.62 129.67 169.74 126.73 169.73 123.78 C 173.29 122.64 176.33 120.19 179.95 119.31 C 182.94 121.40 184.85 124.97 188.58 126.00 C 186.99 122.68 187.30 118.99 187.32 115.43 C 184.12 113.73 180.63 112.35 176.93 112.60 M 171.32 125.82 C 171.55 127.75 172.05 129.63 173.00 131.35 C 174.14 127.79 176.64 124.81 180.50 124.23 C 180.46 123.80 180.38 122.94 180.34 122.51 C 179.78 122.47 178.67 122.40 178.11 122.37 C 175.92 123.67 173.65 124.81 171.32 125.82 M 178.06 127.51 C 177.09 128.93 176.10 130.32 175.18 131.77 C 177.29 132.12 178.57 130.63 179.70 129.10 C 179.15 128.57 178.60 128.04 178.06 127.51 Z" />
</g>
</svg>
