<?xml version="1.0" encoding="UTF-8" ?>
<!DOCTYPE svg PUBLIC "-//W3C//DTD SVG 1.1//EN" "http://www.w3.org/Graphics/SVG/1.1/DTD/svg11.dtd">
<svg width="210pt" height="220pt" viewBox="0 0 210 220" version="1.1" xmlns="http://www.w3.org/2000/svg">
<g id="#221f20fe">
<path fill="#221f20" opacity="1.00" d=" M 108.13 11.28 C 113.38 10.54 118.33 8.00 123.70 8.03 C 127.37 8.73 130.72 10.51 134.13 11.99 C 135.75 12.57 136.43 14.25 137.40 15.53 C 141.03 21.19 147.24 24.47 151.13 29.91 C 156.48 36.69 155.52 45.95 155.32 54.03 C 155.33 59.02 152.90 63.42 150.23 67.47 C 147.74 71.12 148.40 75.68 147.88 79.84 C 145.34 82.30 143.37 85.25 141.89 88.45 L 141.52 89.06 C 141.89 87.15 142.25 85.25 142.68 83.36 C 143.80 82.09 144.69 80.63 145.20 79.01 C 145.38 77.70 146.86 76.33 146.06 75.04 C 145.42 74.89 144.13 74.61 143.49 74.47 C 151.43 65.41 154.81 52.96 153.77 41.06 C 154.04 34.77 149.47 29.87 145.15 25.92 C 141.16 22.14 136.44 18.87 134.01 13.76 C 130.73 12.65 127.66 11.05 124.47 9.73 C 120.92 8.79 117.25 9.76 113.98 11.19 C 104.82 14.12 94.42 13.13 86.26 18.89 C 86.14 22.91 87.17 27.31 84.82 30.91 C 82.32 35.78 76.18 38.90 76.40 44.98 C 75.88 50.48 79.18 55.48 82.95 59.16 C 87.15 54.82 89.70 49.20 90.95 43.33 C 92.74 37.70 94.18 30.94 99.68 27.72 C 105.26 24.80 111.91 26.94 116.58 30.63 C 120.97 34.21 126.46 35.67 131.73 37.39 C 128.84 37.67 125.73 37.98 122.97 36.81 C 118.13 35.00 114.78 30.69 110.06 28.66 C 106.24 28.04 101.34 27.25 98.46 30.49 C 96.34 32.54 95.09 35.26 93.78 37.85 C 90.91 46.06 89.60 56.88 80.85 61.05 C 79.98 58.61 79.10 56.18 78.20 53.76 C 74.42 55.14 73.63 59.35 73.50 62.90 C 73.29 66.83 73.95 70.72 74.65 74.56 C 76.63 75.07 78.64 75.48 80.66 75.84 C 80.32 83.04 80.55 90.53 83.64 97.18 C 86.01 102.09 90.17 105.88 94.98 108.36 C 99.40 109.47 103.98 109.53 108.45 110.38 C 105.02 110.75 101.57 110.67 98.14 110.40 C 92.34 108.16 87.98 103.70 83.31 99.79 C 83.24 103.54 82.77 107.36 83.49 111.08 C 87.07 116.16 93.09 118.73 98.38 121.67 C 102.31 123.95 106.86 122.24 110.36 119.99 C 110.49 116.86 110.26 113.73 109.81 110.63 C 109.85 107.98 110.36 105.34 110.49 102.69 C 116.68 101.49 122.96 100.95 129.22 100.36 C 130.07 97.13 131.07 93.91 132.79 91.02 C 135.27 90.23 137.61 89.08 139.81 87.71 C 140.04 87.85 140.48 88.12 140.71 88.25 C 140.70 88.63 140.67 89.39 140.65 89.76 C 138.01 91.37 134.70 92.31 132.95 95.05 C 131.78 96.68 131.44 98.69 130.96 100.60 C 133.27 100.72 135.75 100.28 137.87 101.43 L 138.25 101.88 L 138.16 102.43 C 129.33 103.07 120.28 102.26 111.64 104.55 C 111.72 109.17 111.68 113.80 111.66 118.42 C 122.50 119.35 133.36 119.55 144.24 119.35 C 144.71 119.02 145.65 118.37 146.12 118.04 C 146.44 116.35 146.75 114.65 147.14 112.97 C 147.23 111.78 147.34 110.60 147.45 109.42 L 148.68 109.09 C 148.69 111.90 148.56 114.71 148.33 117.52 C 151.97 119.10 155.93 119.31 159.79 119.90 C 165.14 121.40 169.07 125.86 174.43 127.36 C 180.64 128.68 187.53 125.87 193.34 129.17 C 197.63 131.84 201.44 135.59 203.69 140.16 C 206.29 146.81 204.89 154.11 205.99 161.02 C 206.30 165.14 208.09 168.89 209.25 172.80 C 208.76 172.56 207.76 172.08 207.27 171.84 C 204.70 169.25 204.36 165.38 203.64 161.99 C 203.20 155.66 203.64 149.30 203.54 142.96 C 201.69 138.97 199.23 135.07 195.38 132.73 C 192.03 130.83 188.29 129.75 184.58 128.78 C 180.61 128.16 176.56 128.57 172.55 128.44 C 167.01 124.67 160.29 123.10 153.97 121.06 C 152.18 120.37 150.26 120.32 148.37 120.26 C 148.59 121.97 148.20 124.00 149.54 125.35 C 152.36 128.92 155.87 132.00 158.10 136.02 C 159.39 138.20 158.12 140.66 157.47 142.83 C 160.12 142.59 162.78 142.53 165.44 142.71 C 167.84 166.85 158.27 189.68 150.40 211.94 C 149.81 211.94 148.62 211.94 148.03 211.94 C 149.38 207.00 151.49 202.33 153.27 197.55 C 160.01 180.60 164.43 162.44 163.46 144.09 C 158.59 143.72 154.78 147.16 150.13 147.70 C 152.77 143.56 157.69 140.28 156.65 134.70 C 153.30 131.45 149.71 128.45 145.95 125.68 C 144.83 129.67 144.03 133.90 141.42 137.25 C 146.60 139.12 147.25 145.07 145.19 149.51 C 141.30 149.14 137.45 148.35 133.54 148.12 C 132.38 152.71 132.00 157.48 132.48 162.19 C 134.46 168.43 140.64 171.59 144.94 176.03 C 141.88 178.12 138.59 179.90 135.00 180.90 C 134.66 181.37 133.98 182.30 133.64 182.76 C 134.93 188.08 134.18 193.59 134.43 199.00 C 134.21 202.95 135.11 207.35 132.85 210.86 C 132.73 210.78 132.50 210.61 132.38 210.53 C 131.89 200.84 132.75 191.14 132.64 181.44 C 127.07 181.68 119.26 181.28 117.09 175.06 C 118.95 172.86 121.68 171.47 123.01 168.82 C 120.47 168.72 117.93 168.69 115.39 168.51 C 118.30 166.15 122.21 166.18 125.69 165.37 C 125.61 163.92 125.42 162.50 125.13 161.09 C 122.81 157.99 118.64 158.47 115.23 158.18 C 115.67 157.67 116.11 157.16 116.55 156.65 C 119.51 156.68 122.46 156.75 125.42 156.80 C 125.42 154.65 125.42 152.50 125.41 150.35 C 121.63 150.38 117.84 150.54 114.06 150.36 C 114.50 149.53 114.49 148.25 115.52 147.88 C 124.93 143.86 135.07 146.78 144.85 146.81 C 144.68 144.32 144.15 141.88 143.25 139.56 C 131.99 139.40 120.99 136.45 109.72 136.38 C 117.93 132.66 127.08 133.65 135.82 133.46 C 135.40 131.49 134.89 129.56 134.34 127.63 C 121.98 124.29 109.58 129.19 98.71 134.78 C 95.98 145.49 88.50 154.16 79.76 160.58 C 77.82 161.83 76.38 163.63 75.70 165.85 C 75.23 169.23 74.52 172.59 74.56 176.02 C 75.58 178.85 76.75 181.66 78.73 183.97 C 78.68 184.40 78.56 185.26 78.50 185.69 C 72.02 180.29 73.47 171.28 73.94 163.87 C 71.64 165.00 69.31 166.10 66.87 166.90 C 64.92 170.23 63.23 173.70 61.85 177.31 C 61.40 177.69 60.49 178.46 60.04 178.84 C 59.63 175.43 61.42 172.43 62.92 169.52 C 62.22 169.81 60.83 170.39 60.14 170.67 L 60.34 170.88 C 46.04 176.79 31.27 181.81 17.86 189.66 C 22.48 183.03 31.14 181.84 37.48 177.51 C 37.66 177.19 38.04 176.55 38.23 176.23 C 38.68 170.08 37.32 163.99 36.67 157.90 C 41.59 162.97 39.96 170.56 40.39 176.95 C 44.31 175.92 48.09 174.42 51.78 172.75 C 53.43 172.33 53.06 170.29 53.47 169.05 C 51.60 163.87 50.03 158.59 48.03 153.46 C 45.55 146.95 45.34 139.11 49.89 133.44 C 53.72 134.09 57.18 136.22 61.09 136.43 C 60.81 132.86 56.17 131.73 56.04 128.12 C 58.83 121.14 69.22 119.52 69.89 111.40 C 60.92 112.98 52.32 116.09 43.84 119.32 C 42.53 119.28 41.22 119.20 39.91 119.10 C 40.32 117.75 41.75 117.58 42.93 117.28 C 49.39 115.86 55.16 112.21 61.76 111.28 C 66.58 110.26 72.13 110.36 76.14 107.13 C 81.58 98.84 79.53 88.23 78.61 78.95 C 76.01 77.17 73.22 75.23 72.08 72.16 C 70.68 68.28 70.61 63.96 71.69 59.99 C 72.57 57.50 74.67 55.63 75.47 53.11 C 75.60 49.54 74.04 46.03 74.74 42.47 C 76.30 38.65 79.93 36.20 81.84 32.58 C 84.22 28.88 83.38 24.33 83.53 20.18 C 87.55 16.96 91.51 13.32 96.54 11.77 C 100.35 10.93 104.28 11.76 108.13 11.28 M 80.34 102.16 C 77.74 115.21 83.33 128.15 82.30 141.27 L 84.09 140.52 C 87.26 135.50 88.75 128.95 93.96 125.55 C 100.34 123.15 105.22 129.75 111.56 128.39 C 111.64 126.26 111.14 124.20 110.44 122.21 C 107.93 123.65 104.97 125.39 102.08 123.84 C 94.89 123.05 88.26 119.06 83.41 113.81 C 81.39 111.88 81.35 109.06 81.32 106.48 L 82.56 106.56 C 82.56 105.54 82.55 103.50 82.54 102.48 C 81.99 102.40 80.89 102.24 80.34 102.16 M 70.11 117.11 C 66.42 121.05 61.00 123.23 58.19 128.07 C 58.30 132.04 64.49 133.02 63.72 137.51 C 61.16 137.59 58.55 137.72 56.08 136.93 C 54.00 136.83 51.24 134.45 49.64 136.47 C 48.33 139.52 48.33 142.92 48.52 146.18 C 49.18 154.76 54.32 162.36 54.61 170.99 C 63.92 167.90 72.97 163.54 80.59 157.29 C 79.05 154.44 79.57 151.12 79.44 148.02 C 79.51 137.64 79.60 127.27 79.29 116.89 C 78.34 114.10 77.72 111.21 77.14 108.32 C 72.98 109.09 71.67 113.79 70.11 117.11 M 91.43 132.40 C 88.59 135.65 86.42 139.40 83.73 142.76 C 79.75 146.47 82.45 152.32 81.55 157.06 C 87.23 152.59 91.23 146.57 95.68 141.00 C 95.21 138.05 94.24 135.22 93.36 132.37 C 92.87 132.38 91.91 132.39 91.43 132.40 M 127.18 147.49 C 127.50 150.67 127.64 153.87 127.39 157.06 C 126.91 157.53 125.95 158.47 125.47 158.94 C 126.19 160.89 128.18 162.75 127.15 164.97 C 125.80 169.52 122.21 172.83 118.93 176.06 C 120.49 177.34 122.19 178.41 123.94 179.41 C 127.63 179.70 131.34 179.72 135.02 179.27 C 137.42 178.28 139.91 177.46 142.51 177.21 C 143.43 175.11 142.08 173.63 140.27 172.75 C 137.51 170.87 135.18 168.43 133.24 165.72 C 131.16 162.49 131.71 158.61 131.69 154.98 C 131.78 153.68 131.50 152.16 132.61 151.18 C 132.59 150.51 132.55 149.18 132.53 148.52 C 131.47 146.82 128.82 148.03 127.18 147.49 Z" />
<path fill="#221f20" opacity="1.00" d=" M 138.48 36.10 C 140.49 36.22 143.06 36.80 143.50 39.11 C 144.83 47.89 141.47 56.37 140.28 64.95 C 140.16 63.66 140.03 62.38 139.92 61.09 C 140.01 60.34 140.19 58.83 140.28 58.08 C 141.06 52.10 142.32 46.08 141.68 40.02 C 140.81 38.57 139.52 37.41 138.48 36.10 Z" />
<path fill="#221f20" opacity="1.00" d=" M 103.83 40.67 C 109.77 40.12 115.43 42.99 120.05 46.48 C 121.31 46.18 122.22 46.88 123.01 47.67 C 126.66 48.88 131.36 47.50 134.13 50.75 C 131.99 50.69 129.85 50.58 127.71 50.43 C 128.26 52.89 131.11 52.11 132.61 53.44 C 132.72 54.47 132.71 55.51 132.57 56.55 C 130.11 56.50 127.65 56.51 125.21 56.21 C 124.22 54.15 126.96 54.39 128.11 53.85 C 125.69 53.25 123.31 52.52 120.98 51.66 C 123.40 51.54 125.82 51.57 128.24 51.59 C 127.70 49.55 125.44 49.28 123.96 48.25 C 122.70 49.20 121.82 48.14 120.95 47.50 C 119.86 47.09 118.76 46.70 117.65 46.34 C 113.27 43.91 108.60 42.13 103.83 40.67 Z" />
<path fill="#221f20" opacity="1.00" d=" M 102.71 43.19 C 107.09 43.56 110.91 45.92 114.35 48.49 C 113.17 48.46 110.80 48.41 109.62 48.39 C 111.26 49.74 113.10 50.81 115.06 51.64 C 114.28 51.53 112.71 51.31 111.93 51.20 C 112.46 52.64 113.01 54.06 113.57 55.48 C 113.88 55.72 114.49 56.19 114.79 56.42 C 114.30 56.43 113.33 56.44 112.84 56.44 C 112.70 55.98 112.41 55.05 112.26 54.59 L 110.39 53.91 C 110.38 54.38 110.36 55.33 110.34 55.81 C 106.34 53.35 101.77 50.59 96.88 51.60 C 95.57 52.25 94.35 53.06 93.11 53.81 C 93.44 49.76 98.33 48.65 101.65 49.42 C 105.40 49.81 108.18 52.50 111.44 54.05 C 111.53 53.21 111.70 51.54 111.78 50.71 C 108.11 49.25 103.85 48.58 100.63 46.34 C 102.81 46.32 104.98 46.37 107.16 46.49 C 105.61 45.52 103.71 44.84 102.71 43.19 Z" />
<path fill="#221f20" opacity="1.00" d=" M 123.66 59.65 C 127.09 59.07 130.55 58.69 134.02 58.73 C 135.52 60.97 137.02 63.22 138.48 65.49 C 138.18 65.60 137.57 65.83 137.27 65.95 C 136.86 65.82 136.05 65.57 135.65 65.44 C 135.11 64.09 134.57 62.72 134.07 61.35 C 130.51 61.26 126.96 61.37 123.41 61.51 C 123.47 61.05 123.60 60.12 123.66 59.65 Z" />
<path fill="#221f20" opacity="1.00" d=" M 100.52 64.83 C 100.84 63.12 101.15 61.41 101.48 59.71 C 103.15 60.40 104.82 61.09 106.50 61.78 C 106.62 62.39 106.86 63.61 106.98 64.22 C 104.97 65.38 102.70 65.73 100.52 64.83 Z" />
<path fill="#221f20" opacity="1.00" d=" M 114.40 71.38 C 114.80 68.76 116.02 65.86 118.83 65.13 C 118.46 66.65 117.53 67.88 116.48 69.01 C 116.44 69.63 116.37 70.88 116.33 71.50 C 115.85 71.47 114.88 71.41 114.40 71.38 Z" />
<path fill="#221f20" opacity="1.00" d=" M 122.76 66.62 C 126.04 66.17 132.16 66.51 131.58 71.19 C 129.43 71.53 127.30 71.92 125.17 72.33 C 123.17 71.93 121.46 70.50 120.13 69.00 C 120.91 68.11 121.85 67.37 122.76 66.62 M 122.36 68.18 C 122.36 68.79 122.36 70.00 122.36 70.61 C 122.83 70.69 123.77 70.84 124.24 70.92 L 125.06 71.39 C 125.41 71.09 126.13 70.50 126.49 70.20 C 127.49 67.50 123.76 68.65 122.36 68.18 Z" />
<path fill="#221f20" opacity="1.00" d=" M 103.30 81.34 C 103.97 81.37 105.31 81.41 105.98 81.43 C 106.09 82.51 106.05 83.59 105.93 84.67 C 105.39 84.61 104.30 84.48 103.76 84.41 C 103.60 83.39 103.45 82.36 103.30 81.34 Z" />
<path fill="#221f20" opacity="1.00" d=" M 207.60 95.34 C 208.20 95.29 209.40 95.20 210.00 95.16 L 210.00 95.54 C 205.90 97.60 207.39 102.96 207.38 106.64 C 206.93 106.58 206.03 106.48 205.58 106.43 C 205.87 104.36 206.21 102.29 206.65 100.24 C 205.78 99.48 204.88 98.75 203.99 98.01 C 204.42 97.74 205.27 97.21 205.70 96.94 C 206.17 96.54 207.12 95.74 207.60 95.34 Z" />
<path fill="#221f20" opacity="1.00" d=" M 15.83 122.84 C 18.17 119.67 22.23 118.40 26.02 118.37 C 30.44 118.40 34.97 117.75 39.28 119.08 C 38.06 120.89 35.75 120.13 33.96 120.34 C 29.55 120.55 24.91 119.60 20.67 121.09 C 17.44 122.12 17.20 125.82 16.36 128.57 L 15.47 128.60 C 15.59 126.68 15.46 124.73 15.83 122.84 Z" />
<path fill="#221f20" opacity="1.00" d=" M 14.31 135.02 L 14.78 134.00 C 14.91 140.01 12.66 145.69 12.05 151.62 C 9.24 162.76 7.53 174.11 6.42 185.55 C 5.53 186.43 4.63 187.30 3.81 188.26 C 2.36 190.46 1.20 192.84 0.00 195.19 L 0.00 191.21 C 5.31 185.51 6.29 177.39 7.24 170.00 C 7.77 158.09 8.96 145.86 14.31 135.02 Z" />
<path fill="#221f20" opacity="1.00" d=" M 189.79 159.48 C 190.20 159.48 191.01 159.48 191.42 159.49 C 191.92 174.00 190.51 188.50 191.18 203.01 C 191.27 205.08 191.76 207.11 192.33 209.10 C 191.91 210.05 191.50 211.01 191.09 211.97 C 190.36 211.98 189.63 211.98 188.90 211.98 C 188.89 194.50 187.02 176.84 189.79 159.48 Z" />
<path fill="#221f20" opacity="1.00" d=" M 93.01 183.76 C 99.58 178.25 105.78 171.47 114.20 168.94 C 113.39 170.18 112.55 171.40 111.68 172.61 C 112.02 180.82 110.79 188.94 110.10 197.08 C 109.69 198.39 109.31 199.71 108.91 201.02 C 108.73 201.71 108.36 203.10 108.18 203.80 C 107.43 206.42 106.83 209.08 106.34 211.77 C 98.92 211.52 91.34 212.69 84.03 211.00 C 82.51 210.45 83.13 208.51 83.01 207.31 C 84.20 203.28 84.40 198.79 83.62 194.66 L 82.01 193.61 C 83.89 191.61 85.95 189.77 88.32 188.35 C 88.43 187.74 88.65 186.51 88.77 185.90 C 85.46 186.46 81.80 186.92 78.91 184.81 C 83.33 184.28 87.78 184.58 92.22 184.40 C 92.42 184.24 92.82 183.92 93.01 183.76 Z" />
<path fill="#221f20" opacity="1.00" d=" M 51.45 211.94 C 51.61 203.64 49.96 193.59 56.92 187.42 C 57.01 187.99 57.21 189.13 57.30 189.70 C 55.89 193.41 54.22 197.07 53.47 200.99 C 53.55 203.18 55.25 204.96 56.40 206.74 C 64.05 203.93 71.41 200.19 78.27 195.78 C 78.95 195.46 80.31 194.83 81.00 194.51 C 81.08 195.02 81.24 196.05 81.32 196.56 C 78.73 202.61 73.13 206.63 69.35 211.91 C 68.83 211.91 67.78 211.93 67.26 211.94 C 70.38 208.62 74.28 205.51 74.91 200.68 C 67.69 202.35 61.57 206.63 54.95 209.72 C 54.60 207.82 54.11 205.90 52.51 204.62 C 52.38 207.06 52.39 209.50 52.40 211.95 L 51.45 211.94 Z" />
</g>
<g id="#fefefeff">
<path fill="#fefefe" opacity="1.00" d=" M 113.98 11.19 C 117.25 9.76 120.92 8.79 124.47 9.73 C 127.66 11.05 130.73 12.65 134.01 13.76 C 136.44 18.87 141.16 22.14 145.15 25.92 C 149.47 29.87 154.04 34.77 153.77 41.06 C 154.81 52.96 151.43 65.41 143.49 74.47 C 142.42 75.07 141.34 75.63 140.22 76.15 C 140.19 72.41 140.37 68.68 140.28 64.95 C 141.47 56.37 144.83 47.89 143.50 39.11 C 143.06 36.80 140.49 36.22 138.48 36.10 C 139.52 37.41 140.81 38.57 141.68 40.02 C 142.32 46.08 141.06 52.10 140.28 58.08 C 139.75 60.56 139.09 63.02 138.48 65.49 C 137.02 63.22 135.52 60.97 134.02 58.73 C 130.55 58.69 127.09 59.07 123.66 59.65 C 123.60 60.12 123.47 61.05 123.41 61.51 C 126.96 61.37 130.51 61.26 134.07 61.35 C 134.57 62.72 135.11 64.09 135.65 65.44 C 136.05 65.57 136.86 65.82 137.27 65.95 L 137.53 66.30 C 139.50 68.00 138.48 70.73 138.60 72.98 C 138.24 76.25 140.65 79.39 139.70 82.61 C 139.15 82.87 138.05 83.39 137.50 83.65 C 137.44 84.12 137.34 85.05 137.29 85.52 C 138.46 85.53 139.61 85.28 140.78 85.25 C 141.13 86.21 140.21 86.92 139.81 87.71 C 137.61 89.08 135.27 90.23 132.79 91.02 C 131.07 93.91 130.07 97.13 129.22 100.36 C 122.96 100.95 116.68 101.49 110.49 102.69 C 110.36 105.34 109.85 107.98 109.81 110.63 C 110.26 113.73 110.49 116.86 110.36 119.99 C 106.86 122.24 102.31 123.95 98.38 121.67 C 93.09 118.73 87.07 116.16 83.49 111.08 C 82.77 107.36 83.24 103.54 83.31 99.79 C 87.98 103.70 92.34 108.16 98.14 110.40 C 101.57 110.67 105.02 110.75 108.45 110.38 C 103.98 109.53 99.40 109.47 94.98 108.36 C 90.17 105.88 86.01 102.09 83.64 97.18 C 80.55 90.53 80.32 83.04 80.66 75.84 C 78.64 75.48 76.63 75.07 74.65 74.56 C 73.95 70.72 73.29 66.83 73.50 62.90 C 73.63 59.35 74.42 55.14 78.20 53.76 C 79.10 56.18 79.98 58.61 80.85 61.05 C 89.60 56.88 90.91 46.06 93.78 37.85 C 95.09 35.26 96.34 32.54 98.46 30.49 C 101.34 27.25 106.24 28.04 110.06 28.66 C 114.78 30.69 118.13 35.00 122.97 36.81 C 125.73 37.98 128.84 37.67 131.73 37.39 C 126.46 35.67 120.97 34.21 116.58 30.63 C 111.91 26.94 105.26 24.80 99.68 27.72 C 94.18 30.94 92.74 37.70 90.95 43.33 C 89.70 49.20 87.15 54.82 82.95 59.16 C 79.18 55.48 75.88 50.48 76.40 44.98 C 76.18 38.90 82.32 35.78 84.82 30.91 C 87.17 27.31 86.14 22.91 86.26 18.89 C 94.42 13.13 104.82 14.12 113.98 11.19 M 103.83 40.67 C 108.60 42.13 113.27 43.91 117.65 46.34 C 118.76 46.70 119.86 47.09 120.95 47.50 C 121.82 48.14 122.70 49.20 123.96 48.25 C 125.44 49.28 127.70 49.55 128.24 51.59 C 125.82 51.57 123.40 51.54 120.98 51.66 C 123.31 52.52 125.69 53.25 128.11 53.85 C 126.96 54.39 124.22 54.15 125.21 56.21 C 127.65 56.51 130.11 56.50 132.57 56.55 C 132.71 55.51 132.72 54.47 132.61 53.44 C 131.11 52.11 128.26 52.89 127.71 50.43 C 129.85 50.58 131.99 50.69 134.13 50.75 C 131.36 47.50 126.66 48.88 123.01 47.67 C 122.22 46.88 121.31 46.18 120.05 46.48 C 115.43 42.99 109.77 40.12 103.83 40.67 M 102.71 43.19 C 103.71 44.84 105.61 45.52 107.16 46.49 C 104.98 46.37 102.81 46.32 100.63 46.34 C 103.85 48.58 108.11 49.25 111.78 50.71 C 111.70 51.54 111.53 53.21 111.44 54.05 C 108.18 52.50 105.40 49.81 101.65 49.42 C 98.33 48.65 93.44 49.76 93.11 53.81 C 94.35 53.06 95.57 52.25 96.88 51.60 C 101.77 50.59 106.34 53.35 110.34 55.81 C 110.36 55.33 110.38 54.38 110.39 53.91 L 112.26 54.59 C 112.41 55.05 112.70 55.98 112.84 56.44 C 113.33 56.44 114.30 56.43 114.79 56.42 C 114.49 56.19 113.88 55.72 113.57 55.48 C 113.01 54.06 112.46 52.64 111.93 51.20 C 112.71 51.31 114.28 51.53 115.06 51.64 C 113.10 50.81 111.26 49.74 109.62 48.39 C 110.80 48.41 113.17 48.46 114.35 48.49 C 110.91 45.92 107.09 43.56 102.71 43.19 M 94.20 60.81 C 95.94 62.67 98.09 64.05 100.52 64.83 C 102.70 65.73 104.97 65.38 106.98 64.22 C 106.87 63.60 106.67 62.36 106.57 61.74 C 104.42 60.80 102.32 59.65 99.99 59.22 C 97.94 59.12 96.05 60.06 94.20 60.81 M 114.40 71.38 C 114.88 71.41 115.85 71.47 116.33 71.50 C 116.37 70.88 116.44 69.63 116.48 69.01 C 117.53 67.88 118.46 66.65 118.83 65.13 C 116.02 65.86 114.80 68.76 114.40 71.38 M 122.76 66.62 C 121.85 67.37 120.91 68.11 120.13 69.00 C 121.46 70.50 123.17 71.93 125.17 72.33 C 127.30 71.92 129.43 71.53 131.58 71.19 C 132.16 66.51 126.04 66.17 122.76 66.62 M 117.36 80.62 C 117.60 80.84 118.10 81.29 118.34 81.52 C 120.47 85.83 123.87 90.05 122.57 95.19 C 121.76 96.02 120.96 96.85 120.18 97.71 C 121.98 96.68 124.16 95.38 124.39 93.10 C 124.81 88.36 121.57 84.45 119.06 80.78 C 118.64 80.74 117.78 80.66 117.36 80.62 M 103.30 81.34 C 103.45 82.36 103.60 83.39 103.76 84.41 C 104.30 84.48 105.39 84.61 105.93 84.67 C 106.05 83.59 106.09 82.51 105.98 81.43 C 105.31 81.41 103.97 81.37 103.30 81.34 M 95.87 93.96 C 95.73 94.36 95.46 95.17 95.33 95.58 C 99.78 94.09 104.47 92.64 109.22 93.48 C 110.10 94.57 110.85 95.77 111.61 96.95 C 111.57 96.27 111.49 94.90 111.45 94.22 C 107.33 89.43 100.77 92.13 95.87 93.96 Z" />
<path fill="#fefefe" opacity="1.00" d=" M 99.47 63.12 C 98.10 62.11 98.07 61.26 99.40 60.54 C 100.28 61.44 100.31 62.29 99.47 63.12 Z" />
<path fill="#fefefe" opacity="1.00" d=" M 122.36 68.18 C 123.76 68.65 127.49 67.50 126.49 70.20 C 126.13 70.50 125.41 71.09 125.06 71.39 L 124.24 70.92 C 123.77 70.84 122.83 70.69 122.36 70.61 C 122.36 70.00 122.36 68.79 122.36 68.18 Z" />
<path fill="#fefefe" opacity="1.00" d=" M 142.18 83.22 C 140.33 80.93 141.42 74.46 145.34 75.49 C 145.30 76.37 145.23 78.13 145.20 79.01 C 144.69 80.63 143.80 82.09 142.68 83.36 L 142.18 83.22 Z" />
<path fill="#fefefe" opacity="1.00" d=" M 80.34 102.16 C 80.89 102.24 81.99 102.40 82.54 102.48 C 82.55 103.50 82.56 105.54 82.56 106.56 L 81.32 106.48 C 81.35 109.06 81.39 111.88 83.41 113.81 C 88.26 119.06 94.89 123.05 102.08 123.84 C 104.97 125.39 107.93 123.65 110.44 122.21 C 111.14 124.20 111.64 126.26 111.56 128.39 C 105.22 129.75 100.34 123.15 93.96 125.55 C 88.75 128.95 87.26 135.50 84.09 140.52 L 82.30 141.27 C 83.33 128.15 77.74 115.21 80.34 102.16 Z" />
<path fill="#fefefe" opacity="1.00" d=" M 144.30 102.38 C 144.36 102.44 144.49 102.57 144.55 102.64 C 144.66 102.79 144.87 103.10 144.98 103.26 C 144.45 105.71 143.74 109.47 147.45 109.42 C 147.34 110.60 147.23 111.78 147.14 112.97 C 146.75 114.65 146.44 116.35 146.12 118.04 C 145.65 118.37 144.71 119.02 144.24 119.35 C 133.36 119.55 122.50 119.35 111.66 118.42 C 111.68 113.80 111.72 109.17 111.64 104.55 C 120.28 102.26 129.33 103.07 138.16 102.43 C 138.12 104.57 138.18 106.72 138.27 108.86 C 139.07 108.88 140.68 108.93 141.48 108.95 C 141.50 107.30 141.53 105.64 141.56 103.99 C 142.24 103.58 143.61 102.78 144.30 102.38 Z" />
<path fill="#fefefe" opacity="1.00" d=" M 70.11 117.11 C 71.67 113.79 72.98 109.09 77.14 108.32 C 77.72 111.21 78.34 114.10 79.29 116.89 C 79.60 127.27 79.51 137.64 79.44 148.02 C 79.57 151.12 79.05 154.44 80.59 157.29 C 72.97 163.54 63.92 167.90 54.61 170.99 C 54.32 162.36 49.18 154.76 48.52 146.18 C 48.33 142.92 48.33 139.52 49.64 136.47 C 51.24 134.45 54.00 136.83 56.08 136.93 C 58.55 137.72 61.16 137.59 63.72 137.51 C 64.49 133.02 58.30 132.04 58.19 128.07 C 61.00 123.23 66.42 121.05 70.11 117.11 Z" />
<path fill="#fefefe" opacity="1.00" d=" M 43.84 119.32 C 52.32 116.09 60.92 112.98 69.89 111.40 C 69.22 119.52 58.83 121.14 56.04 128.12 C 56.17 131.73 60.81 132.86 61.09 136.43 C 57.18 136.22 53.72 134.09 49.89 133.44 C 45.34 139.11 45.55 146.95 48.03 153.46 C 50.03 158.59 51.60 163.87 53.47 169.05 C 53.06 170.29 53.43 172.33 51.78 172.75 C 48.09 174.42 44.31 175.92 40.39 176.95 C 39.96 170.56 41.59 162.97 36.67 157.90 C 37.32 163.99 38.68 170.08 38.23 176.23 C 38.04 176.55 37.66 177.19 37.48 177.51 C 31.14 181.84 22.48 183.03 17.86 189.66 C 31.27 181.81 46.04 176.79 60.34 170.88 C 60.62 171.16 61.19 171.72 61.47 172.00 C 58.30 176.64 59.45 182.57 56.92 187.42 C 49.96 193.59 51.61 203.64 51.45 211.94 C 34.30 211.99 17.15 211.97 0.00 211.96 L 0.00 196.08 C 1.32 193.49 2.46 190.83 3.81 188.26 C 4.63 187.30 5.53 186.43 6.42 185.55 C 7.53 174.11 9.24 162.76 12.05 151.62 C 12.66 145.69 14.91 140.01 14.78 134.00 C 14.88 133.75 15.08 133.26 15.18 133.01 C 15.35 131.54 15.41 130.07 15.47 128.60 L 16.36 128.57 C 17.20 125.82 17.44 122.12 20.67 121.09 C 24.91 119.60 29.55 120.55 33.96 120.34 C 35.75 120.13 38.06 120.89 39.28 119.08 L 39.91 119.10 C 41.22 119.20 42.53 119.28 43.84 119.32 Z" />
<path fill="#fefefe" opacity="1.00" d=" M 148.37 120.26 C 150.26 120.32 152.18 120.37 153.97 121.06 C 160.29 123.10 167.01 124.67 172.55 128.44 C 176.56 128.57 180.61 128.16 184.58 128.78 C 188.29 129.75 192.03 130.83 195.38 132.73 C 199.23 135.07 201.69 138.97 203.54 142.96 C 203.64 149.30 203.20 155.66 203.64 161.99 C 204.36 165.38 204.70 169.25 207.27 171.84 C 207.52 172.12 208.03 172.68 208.28 172.96 C 208.92 174.08 209.49 175.24 210.00 176.43 L 210.00 211.95 C 203.70 212.00 197.39 211.94 191.09 211.97 C 191.50 211.01 191.91 210.05 192.33 209.10 C 191.76 207.11 191.27 205.08 191.18 203.01 C 190.51 188.50 191.92 174.00 191.42 159.49 C 191.01 159.48 190.20 159.48 189.79 159.48 C 187.02 176.84 188.89 194.50 188.90 211.98 C 176.07 211.94 163.23 212.01 150.40 211.94 C 158.27 189.68 167.84 166.85 165.44 142.71 C 162.78 142.53 160.12 142.59 157.47 142.83 C 158.12 140.66 159.39 138.20 158.10 136.02 C 155.87 132.00 152.36 128.92 149.54 125.35 C 148.20 124.00 148.59 121.97 148.37 120.26 Z" />
<path fill="#fefefe" opacity="1.00" d=" M 98.71 134.78 C 109.58 129.19 121.98 124.29 134.34 127.63 C 134.89 129.56 135.40 131.49 135.82 133.46 C 127.08 133.65 117.93 132.66 109.72 136.38 C 120.99 136.45 131.99 139.40 143.25 139.56 C 144.15 141.88 144.68 144.32 144.85 146.81 C 135.07 146.78 124.93 143.86 115.52 147.88 C 114.49 148.25 114.50 149.53 114.06 150.36 C 117.84 150.54 121.63 150.38 125.41 150.35 C 125.42 152.50 125.42 154.65 125.42 156.80 C 122.46 156.75 119.51 156.68 116.55 156.65 C 116.11 157.16 115.67 157.67 115.23 158.18 C 118.64 158.47 122.81 157.99 125.13 161.09 C 125.42 162.50 125.61 163.92 125.69 165.37 C 122.21 166.18 118.30 166.15 115.39 168.51 C 117.93 168.69 120.47 168.72 123.01 168.82 C 121.68 171.47 118.95 172.86 117.09 175.06 C 119.26 181.28 127.07 181.68 132.64 181.44 C 132.75 191.14 131.89 200.84 132.38 210.53 C 132.50 210.61 132.73 210.78 132.85 210.86 C 135.11 207.35 134.21 202.95 134.43 199.00 C 134.18 193.59 134.93 188.08 133.64 182.76 C 133.98 182.30 134.66 181.37 135.00 180.90 C 138.59 179.90 141.88 178.12 144.94 176.03 C 140.64 171.59 134.46 168.43 132.48 162.19 C 132.00 157.48 132.38 152.71 133.54 148.12 C 137.45 148.35 141.30 149.14 145.19 149.51 C 147.25 145.07 146.60 139.12 141.42 137.25 C 144.03 133.90 144.83 129.67 145.95 125.68 C 149.71 128.45 153.30 131.45 156.65 134.70 C 157.69 140.28 152.77 143.56 150.13 147.70 C 154.78 147.16 158.59 143.72 163.46 144.09 C 164.43 162.44 160.01 180.60 153.27 197.55 C 151.49 202.33 149.38 207.00 148.03 211.94 C 134.35 211.87 120.68 212.06 107.01 211.90 C 107.27 209.19 107.51 206.45 108.18 203.80 C 108.36 203.10 108.73 201.71 108.91 201.02 C 109.31 199.71 109.69 198.39 110.10 197.08 C 110.79 188.94 112.02 180.82 111.68 172.61 C 112.55 171.40 113.39 170.18 114.20 168.94 C 105.78 171.47 99.58 178.25 93.01 183.76 C 88.26 184.00 83.49 183.87 78.73 183.97 C 76.75 181.66 75.58 178.85 74.56 176.02 C 74.52 172.59 75.23 169.23 75.70 165.85 C 76.38 163.63 77.82 161.83 79.76 160.58 C 88.50 154.16 95.98 145.49 98.71 134.78 Z" />
<path fill="#fefefe" opacity="1.00" d=" M 91.43 132.40 C 91.91 132.39 92.87 132.38 93.36 132.37 C 94.24 135.22 95.21 138.05 95.68 141.00 C 91.23 146.57 87.23 152.59 81.55 157.06 C 82.45 152.32 79.75 146.47 83.73 142.76 C 86.42 139.40 88.59 135.65 91.43 132.40 Z" />
<path fill="#fefefe" opacity="1.00" d=" M 127.18 147.49 C 128.82 148.03 131.47 146.82 132.53 148.52 C 132.55 149.18 132.59 150.51 132.61 151.18 C 131.50 152.16 131.78 153.68 131.69 154.98 C 131.71 158.61 131.16 162.49 133.24 165.72 C 135.18 168.43 137.51 170.87 140.27 172.75 C 142.08 173.63 143.43 175.11 142.51 177.21 C 139.91 177.46 137.42 178.28 135.02 179.27 C 131.34 179.72 127.63 179.70 123.94 179.41 C 122.19 178.41 120.49 177.34 118.93 176.06 C 122.21 172.83 125.80 169.52 127.15 164.97 C 128.18 162.75 126.19 160.89 125.47 158.94 C 125.95 158.47 126.91 157.53 127.39 157.06 C 127.64 153.87 127.50 150.67 127.18 147.49 Z" />
<path fill="#fefefe" opacity="1.00" d=" M 66.87 166.90 C 69.31 166.10 71.64 165.00 73.94 163.87 C 73.47 171.28 72.02 180.29 78.50 185.69 C 78.47 185.92 78.43 186.37 78.40 186.60 C 81.17 187.26 84.03 187.62 86.80 186.63 C 86.11 191.15 81.51 193.23 78.27 195.78 C 71.41 200.19 64.05 203.93 56.40 206.74 C 55.25 204.96 53.55 203.18 53.47 200.99 C 54.22 197.07 55.89 193.41 57.30 189.70 C 58.40 186.07 59.59 182.44 61.59 179.19 C 61.66 178.72 61.79 177.78 61.85 177.31 C 63.23 173.70 64.92 170.23 66.87 166.90 Z" />
<path fill="#fefefe" opacity="1.00" d=" M 81.32 196.56 C 82.09 196.52 82.86 196.49 83.63 196.48 C 83.60 200.10 83.36 203.73 82.57 207.27 C 82.09 208.80 81.67 210.37 81.12 211.89 C 77.20 212.02 73.28 211.95 69.35 211.91 C 73.13 206.63 78.73 202.61 81.32 196.56 Z" />
<path fill="#fefefe" opacity="1.00" d=" M 54.95 209.72 C 61.57 206.63 67.69 202.35 74.91 200.68 C 74.28 205.51 70.38 208.62 67.26 211.94 C 62.31 211.97 57.35 211.97 52.40 211.95 C 52.39 209.50 52.38 207.06 52.51 204.62 C 54.11 205.90 54.60 207.82 54.95 209.72 Z" />
</g>
<g id="#df272efb">
<path fill="#df272e" opacity="1.00" d=" M 94.20 60.81 C 96.05 60.06 97.94 59.12 99.99 59.22 C 102.32 59.65 104.42 60.80 106.57 61.74 C 106.67 62.36 106.87 63.60 106.98 64.22 C 106.86 63.61 106.62 62.39 106.50 61.78 C 104.82 61.09 103.15 60.40 101.48 59.71 C 101.15 61.41 100.84 63.12 100.52 64.83 C 98.09 64.05 95.94 62.67 94.20 60.81 M 99.47 63.12 C 100.31 62.29 100.28 61.44 99.40 60.54 C 98.07 61.26 98.10 62.11 99.47 63.12 Z" />
<path fill="#df272e" opacity="1.00" d=" M 138.48 65.49 C 139.09 63.02 139.75 60.56 140.28 58.08 C 140.19 58.83 140.01 60.34 139.92 61.09 C 140.03 62.38 140.16 63.66 140.28 64.95 C 140.37 68.68 140.19 72.41 140.22 76.15 C 141.34 75.63 142.42 75.07 143.49 74.47 C 144.13 74.61 145.42 74.89 146.06 75.04 C 146.86 76.33 145.38 77.70 145.20 79.01 C 145.23 78.13 145.30 76.37 145.34 75.49 C 141.42 74.46 140.33 80.93 142.18 83.22 L 142.68 83.36 C 142.25 85.25 141.89 87.15 141.52 89.06 C 141.30 89.23 140.87 89.59 140.65 89.76 C 140.67 89.39 140.70 88.63 140.71 88.25 C 140.48 88.12 140.04 87.85 139.81 87.71 C 140.21 86.92 141.13 86.21 140.78 85.25 C 139.61 85.28 138.46 85.53 137.29 85.52 C 137.34 85.05 137.44 84.12 137.50 83.65 C 138.05 83.39 139.15 82.87 139.70 82.61 C 140.65 79.39 138.24 76.25 138.60 72.98 C 138.48 70.73 139.50 68.00 137.53 66.30 L 137.27 65.95 C 137.57 65.83 138.18 65.60 138.48 65.49 Z" />
<path fill="#df272e" opacity="1.00" d=" M 148.91 75.87 C 150.57 75.56 152.28 75.03 153.97 75.49 C 155.83 75.90 155.71 78.20 155.90 79.67 C 153.86 79.87 152.51 78.84 151.63 77.17 C 151.59 77.75 151.52 78.92 151.48 79.51 C 152.92 80.61 154.59 81.52 155.67 83.01 C 156.03 84.74 155.79 86.51 155.74 88.25 C 152.50 90.72 147.19 88.82 148.19 84.21 C 150.45 83.87 151.60 84.75 151.63 86.83 C 152.16 86.69 153.21 86.41 153.74 86.27 C 152.50 84.08 150.40 82.65 148.62 80.95 C 148.45 79.26 148.81 77.56 148.91 75.87 Z" />
<path fill="#df272e" opacity="1.00" d=" M 162.14 75.68 C 163.13 74.56 165.83 75.59 164.72 77.18 C 163.80 78.56 160.74 77.20 162.14 75.68 Z" />
<path fill="#df272e" opacity="1.00" d=" M 157.39 75.50 C 158.17 75.51 159.74 75.51 160.52 75.51 C 160.47 80.02 160.72 84.54 160.37 89.03 C 159.64 89.09 158.18 89.22 157.45 89.28 C 157.35 84.69 157.32 80.09 157.39 75.50 Z" />
<path fill="#df272e" opacity="1.00" d=" M 175.27 75.49 C 176.06 75.50 177.62 75.51 178.41 75.51 C 178.45 76.19 178.54 77.55 178.59 78.23 C 179.98 78.30 181.38 78.42 182.77 78.56 C 182.67 82.06 182.88 85.57 182.56 89.07 C 181.83 89.11 180.37 89.21 179.64 89.26 C 179.60 86.23 179.61 83.21 179.61 80.19 C 179.31 80.22 178.69 80.27 178.39 80.30 C 178.42 83.29 178.43 86.29 178.39 89.28 C 177.68 89.22 176.26 89.09 175.55 89.03 C 175.01 84.54 175.44 80.00 175.27 75.49 Z" />
<path fill="#df272e" opacity="1.00" d=" M 188.37 79.03 C 188.89 76.74 189.54 74.39 192.46 75.52 C 192.39 80.03 192.40 84.54 192.41 89.05 C 189.65 89.20 186.81 89.39 184.19 88.34 C 183.82 85.66 185.31 82.24 183.19 80.07 C 183.63 78.81 184.13 77.57 184.68 76.36 C 186.63 76.05 187.45 77.72 188.37 79.03 M 187.34 80.37 C 187.32 82.54 187.31 84.70 187.29 86.87 C 187.77 86.81 188.72 86.70 189.19 86.65 C 189.17 84.59 189.16 82.53 189.17 80.47 C 188.71 80.45 187.79 80.40 187.34 80.37 Z" />
<path fill="#df272e" opacity="1.00" d=" M 166.56 78.51 C 169.18 78.20 171.82 78.32 174.45 78.48 C 174.35 81.73 174.35 84.98 174.42 88.23 C 174.09 88.77 173.43 89.84 173.09 90.38 C 170.74 90.79 167.79 91.44 166.14 89.16 C 168.74 88.14 166.17 85.85 166.52 84.06 C 166.44 82.21 166.52 80.36 166.56 78.51 Z" />
<path fill="#df272e" opacity="1.00" d=" M 161.68 78.40 C 162.58 78.44 164.38 78.51 165.28 78.55 C 165.29 81.88 165.24 85.21 165.34 88.54 C 164.07 88.89 162.77 89.25 161.56 88.54 C 161.74 85.17 161.70 81.78 161.68 78.40 Z" />
<path fill="#df272e" opacity="1.00" d=" M 193.22 78.10 C 197.51 77.48 196.19 82.22 196.98 84.93 C 197.89 82.35 196.58 77.61 200.73 78.09 C 200.38 81.77 199.86 85.44 199.30 89.09 C 198.44 91.25 195.82 90.35 194.03 90.70 C 196.47 86.64 193.63 82.33 193.22 78.10 Z" />
<path fill="#df272e" opacity="1.00" d=" M 117.36 80.62 C 117.78 80.66 118.64 80.74 119.06 80.78 C 121.57 84.45 124.81 88.36 124.39 93.10 C 124.16 95.38 121.98 96.68 120.18 97.71 C 120.96 96.85 121.76 96.02 122.57 95.19 C 123.87 90.05 120.47 85.83 118.34 81.52 C 118.10 81.29 117.60 80.84 117.36 80.62 Z" />
<path fill="#df272e" opacity="1.00" d=" M 95.87 93.96 C 100.77 92.13 107.33 89.43 111.45 94.22 C 111.49 94.90 111.57 96.27 111.61 96.95 C 110.85 95.77 110.10 94.57 109.22 93.48 C 104.47 92.64 99.78 94.09 95.33 95.58 C 95.46 95.17 95.73 94.36 95.87 93.96 Z" />
<path fill="#df272e" opacity="1.00" d=" M 168.32 95.67 C 169.29 94.52 172.06 95.66 170.89 97.20 C 169.91 98.55 167.01 97.23 168.32 95.67 Z" />
<path fill="#df272e" opacity="1.00" d=" M 138.26 95.37 C 140.51 95.67 143.22 95.00 144.92 96.97 C 144.03 97.42 142.25 98.32 141.36 98.77 C 141.40 99.06 141.48 99.64 141.53 99.92 C 142.22 100.54 143.61 101.76 144.30 102.38 C 143.61 102.78 142.24 103.58 141.56 103.99 C 141.53 105.64 141.50 107.30 141.48 108.95 C 140.68 108.93 139.07 108.88 138.27 108.86 C 138.18 106.72 138.12 104.57 138.16 102.43 L 138.25 101.88 C 138.73 99.74 138.29 97.54 138.26 95.37 Z" />
<path fill="#df272e" opacity="1.00" d=" M 153.23 95.48 C 154.02 95.49 155.61 95.50 156.41 95.51 C 156.07 100.02 156.80 104.53 156.29 109.03 C 155.56 109.06 154.11 109.11 153.38 109.14 C 153.24 104.59 153.26 100.03 153.23 95.48 Z" />
<path fill="#df272e" opacity="1.00" d=" M 207.38 106.64 C 207.39 102.96 205.90 97.60 210.00 95.54 L 210.00 108.58 C 207.55 108.70 203.39 110.74 202.77 106.99 C 202.52 104.00 202.03 100.57 203.99 98.01 C 204.88 98.75 205.78 99.48 206.65 100.24 C 206.21 102.29 205.87 104.36 205.58 106.43 C 206.03 106.48 206.93 106.58 207.38 106.64 Z" />
<path fill="#df272e" opacity="1.00" d=" M 172.60 100.97 C 172.47 98.96 174.64 98.30 175.98 97.40 C 177.91 98.20 180.69 99.49 179.38 102.12 C 178.73 102.18 177.44 102.31 176.80 102.37 C 176.47 101.53 176.13 100.69 175.79 99.85 C 175.97 102.27 174.78 105.27 176.47 107.32 C 176.51 106.66 176.58 105.33 176.62 104.67 C 177.40 104.62 178.95 104.51 179.72 104.46 C 180.28 107.28 177.93 110.33 174.92 109.26 C 171.50 108.06 172.68 103.73 172.60 100.97 Z" />
<path fill="#df272e" opacity="1.00" d=" M 188.57 98.94 C 189.19 97.28 190.08 95.84 192.11 96.56 C 192.89 97.60 193.50 98.72 193.96 99.94 C 191.36 101.03 192.87 104.24 192.45 106.37 C 193.09 106.79 194.38 107.63 195.03 108.05 C 193.39 109.58 191.31 108.90 189.40 108.45 C 189.21 105.28 189.91 101.93 188.57 98.94 Z" />
<path fill="#df272e" opacity="1.00" d=" M 181.50 98.42 C 183.79 98.26 187.04 97.34 188.26 100.02 C 188.57 102.93 188.36 105.86 188.26 108.78 C 187.36 108.83 185.56 108.95 184.66 109.01 C 184.75 107.35 184.72 105.69 184.55 104.05 C 184.03 104.67 183.72 105.37 183.62 106.13 L 184.02 106.72 C 184.43 108.09 182.36 108.78 181.91 109.84 C 181.08 107.93 181.06 105.89 181.27 103.88 C 182.36 103.36 183.45 102.83 184.55 102.31 C 184.52 101.67 184.46 100.39 184.43 99.75 C 183.90 100.73 183.54 101.78 183.33 102.88 L 181.40 102.33 C 181.43 101.35 181.48 99.40 181.50 98.42 Z" />
<path fill="#df272e" opacity="1.00" d=" M 144.55 102.64 C 144.81 101.12 145.12 99.63 145.51 98.14 C 147.50 98.21 149.49 98.30 151.48 98.43 C 151.78 101.83 151.82 105.25 151.83 108.66 C 150.78 108.78 149.73 108.92 148.68 109.09 L 147.45 109.42 C 143.74 109.47 144.45 105.71 144.98 103.26 C 144.87 103.10 144.66 102.79 144.55 102.64 Z" />
<path fill="#df272e" opacity="1.00" d=" M 158.23 109.88 C 157.00 106.02 157.56 101.95 157.54 97.98 C 161.65 96.80 160.23 100.95 160.61 102.99 C 160.54 105.51 161.11 108.64 158.23 109.88 Z" />
<path fill="#df272e" opacity="1.00" d=" M 162.19 98.26 C 163.97 98.35 165.76 98.45 167.54 98.55 C 167.19 100.22 166.48 101.77 165.35 103.05 C 165.37 104.87 165.42 106.68 165.50 108.49 C 164.72 108.70 163.15 109.13 162.36 109.34 C 162.14 105.65 162.19 101.95 162.19 98.26 Z" />
<path fill="#df272e" opacity="1.00" d=" M 167.68 98.45 C 168.56 98.45 170.33 98.44 171.21 98.44 C 171.19 101.68 171.36 104.94 171.15 108.18 C 170.42 109.85 168.87 108.84 167.60 108.54 C 167.73 105.18 167.63 101.81 167.68 98.45 Z" />
<path fill="#df272e" opacity="1.00" d=" M 194.48 98.64 C 196.72 98.12 199.02 98.05 201.27 98.61 C 201.46 100.29 201.63 101.97 201.78 103.66 C 200.42 103.69 199.05 103.71 197.69 103.74 C 197.58 104.72 197.47 105.71 197.36 106.70 C 197.68 106.73 198.32 106.79 198.64 106.82 C 198.63 106.26 198.62 105.14 198.61 104.58 C 199.39 104.56 200.95 104.52 201.73 104.51 C 202.37 107.32 199.89 110.31 196.94 109.29 C 192.68 107.45 194.75 102.21 194.48 98.64 Z" />
<path fill="#df272e" opacity="1.00" d=" M 60.14 170.67 C 60.83 170.39 62.22 169.81 62.92 169.52 C 61.42 172.43 59.63 175.43 60.04 178.84 C 60.49 178.46 61.40 177.69 61.85 177.31 C 61.79 177.78 61.66 178.72 61.59 179.19 C 59.59 182.44 58.40 186.07 57.30 189.70 C 57.21 189.13 57.01 187.99 56.92 187.42 C 59.45 182.57 58.30 176.64 61.47 172.00 C 61.19 171.72 60.62 171.16 60.34 170.88 L 60.14 170.67 Z" />
<path fill="#df272e" opacity="1.00" d=" M 78.73 183.97 C 83.49 183.87 88.26 184.00 93.01 183.76 C 92.82 183.92 92.42 184.24 92.22 184.40 C 87.78 184.58 83.33 184.28 78.91 184.81 C 81.80 186.92 85.46 186.46 88.77 185.90 C 88.65 186.51 88.43 187.74 88.32 188.35 C 85.95 189.77 83.89 191.61 82.01 193.61 L 83.62 194.66 C 84.40 198.79 84.20 203.28 83.01 207.31 C 83.13 208.51 82.51 210.45 84.03 211.00 C 91.34 212.69 98.92 211.52 106.34 211.77 C 106.83 209.08 107.43 206.42 108.18 203.80 C 107.51 206.45 107.27 209.19 107.01 211.90 C 98.38 212.00 89.75 211.93 81.12 211.89 C 81.67 210.37 82.09 208.80 82.57 207.27 C 83.36 203.73 83.60 200.10 83.63 196.48 C 82.86 196.49 82.09 196.52 81.32 196.56 C 81.24 196.05 81.08 195.02 81.00 194.51 C 80.31 194.83 78.95 195.46 78.27 195.78 C 81.51 193.23 86.11 191.15 86.80 186.63 C 84.03 187.62 81.17 187.26 78.40 186.60 C 78.43 186.37 78.47 185.92 78.50 185.69 C 78.56 185.26 78.68 184.40 78.73 183.97 Z" />
<path fill="#df272e" opacity="1.00" d=" M 0.00 195.19 C 1.20 192.84 2.36 190.46 3.81 188.26 C 2.46 190.83 1.32 193.49 0.00 196.08 L 0.00 195.19 Z" />
</g>
</svg>
