<?xml version="1.0" encoding="UTF-8" ?>
<!DOCTYPE svg PUBLIC "-//W3C//DTD SVG 1.1//EN" "http://www.w3.org/Graphics/SVG/1.1/DTD/svg11.dtd">
<svg width="210pt" height="220pt" viewBox="0 0 210 220" version="1.1" xmlns="http://www.w3.org/2000/svg">
<g id="#030403fe">
<path fill="#030403" opacity="1.00" d=" M 92.93 31.43 C 103.38 29.81 113.80 26.41 124.48 27.81 C 131.21 28.67 136.08 33.85 141.43 37.51 C 147.05 41.25 150.71 47.01 154.80 52.22 C 157.57 55.76 161.48 58.59 162.80 63.09 C 165.08 70.21 166.07 78.04 171.02 83.99 C 174.90 88.55 176.70 94.31 179.52 99.49 C 183.34 108.12 180.73 117.78 182.21 126.83 C 183.36 133.87 181.86 140.93 181.80 147.98 C 181.32 151.53 185.36 153.43 185.25 156.94 C 185.27 162.59 183.60 168.23 180.86 173.17 C 177.69 179.17 175.48 185.60 172.95 191.89 C 172.23 191.90 170.77 191.92 170.04 191.93 C 173.26 183.30 175.48 174.20 180.19 166.21 C 182.26 163.06 181.42 159.08 181.07 155.57 C 179.01 145.16 181.88 134.38 179.19 124.06 C 177.50 117.08 176.69 109.81 173.67 103.22 C 169.61 94.08 168.65 83.56 162.56 75.37 C 159.39 71.20 156.02 67.03 154.45 61.95 C 158.94 63.73 159.49 69.07 162.79 72.10 C 163.21 66.34 158.46 62.48 155.53 58.14 C 154.98 59.19 154.42 60.24 153.87 61.29 C 152.69 56.81 151.51 52.10 148.03 48.78 C 147.98 44.27 143.80 41.83 140.76 39.25 C 136.20 35.99 131.71 32.47 126.60 30.13 C 117.43 27.59 108.03 30.55 99.01 32.34 C 93.19 33.58 86.39 33.55 82.14 38.38 C 75.75 38.55 69.53 41.52 65.67 46.65 C 62.14 51.45 57.34 55.16 54.09 60.17 C 51.90 63.54 49.06 66.41 46.53 69.52 C 43.11 73.69 38.59 76.97 35.84 81.67 C 35.12 84.03 35.47 86.57 35.26 89.01 C 35.33 96.43 29.43 102.48 30.21 110.00 C 30.78 118.34 28.57 126.71 29.96 135.00 C 31.62 139.49 32.88 144.09 33.56 148.84 C 35.58 155.92 38.53 162.76 39.44 170.13 C 39.49 173.20 42.27 174.95 44.02 177.10 C 46.39 179.69 47.16 183.64 50.40 185.42 C 54.22 187.67 58.25 189.53 62.15 191.64 C 60.86 191.90 59.59 191.97 58.31 191.86 C 55.11 190.41 51.97 188.82 48.94 187.05 C 44.38 184.65 44.31 178.21 39.37 176.16 C 39.64 181.67 41.36 186.95 43.36 192.04 C 42.77 191.95 41.60 191.75 41.02 191.65 C 38.45 186.31 38.32 180.23 37.17 174.51 C 35.16 169.88 32.51 165.56 29.93 161.23 C 27.71 157.90 27.94 153.69 27.04 149.92 C 24.02 135.83 24.95 121.33 24.75 107.02 C 24.89 101.66 24.47 96.29 24.94 90.95 C 25.31 90.56 26.04 89.77 26.40 89.37 C 26.97 102.45 26.28 115.55 26.57 128.63 C 26.24 138.32 28.76 147.76 30.34 157.24 C 32.21 162.06 35.33 166.30 37.56 170.97 C 36.48 162.35 32.20 154.59 30.78 146.06 C 30.57 140.00 25.70 134.99 27.30 128.74 C 27.87 124.51 28.52 120.27 28.36 115.99 C 28.45 111.42 27.76 106.68 29.31 102.28 C 30.39 98.71 32.18 95.42 33.34 91.89 C 33.80 90.51 32.30 89.70 31.59 88.79 C 31.41 90.57 31.23 92.34 31.06 94.12 C 28.48 93.69 29.37 90.73 29.59 89.02 C 30.53 86.20 32.63 83.91 33.38 81.03 C 33.64 77.39 33.37 73.72 33.81 70.09 C 36.12 72.19 35.17 75.43 35.43 78.17 C 40.00 73.42 42.91 67.31 47.95 62.98 C 55.48 56.09 60.61 47.06 68.36 40.39 C 71.56 37.19 76.30 36.79 80.44 35.64 C 84.74 34.63 88.52 32.03 92.93 31.43 M 171.64 89.24 C 172.60 97.69 177.67 104.87 178.89 113.26 C 179.25 113.40 179.98 113.69 180.34 113.84 C 180.09 110.50 179.87 107.12 178.99 103.88 C 178.02 100.03 175.34 96.91 174.43 93.04 C 174.14 91.37 172.86 90.27 171.64 89.24 Z" />
<path fill="#030403" opacity="1.00" d=" M 126.28 55.61 C 130.70 54.24 135.82 53.60 140.03 55.96 C 144.53 58.43 146.72 63.34 150.35 66.76 C 156.35 72.14 159.48 79.74 162.65 86.94 C 164.23 92.29 162.57 98.48 158.04 101.91 C 154.56 105.24 149.69 106.18 145.03 105.84 C 137.13 106.06 129.05 104.04 122.54 99.46 C 118.29 96.63 116.39 91.64 113.26 87.79 C 109.58 83.62 112.14 77.76 114.27 73.44 C 116.81 67.72 122.33 64.35 126.69 60.17 C 126.54 58.65 126.40 57.13 126.28 55.61 M 127.73 58.59 C 130.09 58.15 132.42 57.60 134.80 57.33 C 132.52 59.71 129.09 60.39 126.75 62.72 C 120.25 68.06 113.29 75.03 113.62 84.08 C 115.58 87.75 118.24 91.00 120.45 94.52 C 126.62 101.84 136.89 104.10 146.08 103.75 C 150.34 104.16 154.68 102.61 157.63 99.50 C 161.94 95.39 161.90 88.18 158.55 83.51 C 156.95 78.49 153.98 74.10 150.66 70.06 C 150.87 72.44 151.84 74.97 150.86 77.27 C 146.43 78.16 141.97 77.05 137.65 76.09 C 136.56 73.19 136.22 69.93 137.61 67.06 C 138.62 64.05 142.29 64.22 144.84 63.44 C 142.30 60.39 139.46 56.68 135.10 56.57 C 132.58 56.59 128.98 55.61 127.73 58.59 Z" />
<path fill="#030403" opacity="1.00" d=" M 50.83 85.65 C 54.84 82.48 59.09 79.49 63.88 77.64 C 68.21 77.25 72.61 77.70 76.88 78.48 C 81.61 80.42 86.31 83.16 89.21 87.50 C 89.98 87.87 90.74 88.24 91.51 88.60 C 93.50 95.18 89.88 101.90 85.84 106.94 C 81.56 112.70 77.20 118.68 71.01 122.55 C 66.73 123.08 62.36 122.97 58.06 122.61 C 54.69 121.22 51.86 118.50 49.81 115.52 C 49.08 112.42 49.07 109.20 48.34 106.11 C 47.69 103.92 46.35 102.00 45.77 99.79 C 46.10 97.05 47.24 94.50 47.92 91.85 C 48.60 89.69 48.90 87.13 50.83 85.65 M 50.58 89.31 C 52.68 89.85 54.82 90.25 56.88 90.95 C 60.05 92.15 62.17 96.74 59.59 99.49 C 57.56 102.64 53.60 102.65 50.35 103.44 C 51.21 108.22 50.05 114.27 54.20 117.76 C 58.36 121.64 64.69 121.89 69.93 120.60 C 76.53 116.79 80.67 110.17 85.29 104.34 C 89.02 99.46 91.08 93.00 88.79 87.03 C 87.33 87.52 85.87 88.02 84.41 88.53 C 85.73 90.16 87.00 91.82 88.14 93.58 C 87.21 93.31 85.35 92.77 84.42 92.50 C 83.14 89.91 82.53 86.66 79.86 85.07 C 75.91 82.71 72.13 78.81 67.15 79.40 C 60.53 80.26 55.04 84.62 50.58 89.31 Z" />
<path fill="#030403" opacity="1.00" d=" M 131.36 137.33 C 132.58 136.87 133.82 136.45 135.07 136.05 C 135.82 137.60 136.82 139.14 136.72 140.95 C 136.70 146.67 136.92 152.41 136.50 158.12 C 133.03 162.76 127.94 166.18 121.98 166.12 C 116.50 164.99 110.24 167.16 105.42 163.57 C 100.47 160.46 94.81 155.49 95.82 149.03 C 96.40 148.58 97.56 147.67 98.14 147.22 C 100.45 150.83 101.36 155.44 104.96 158.11 C 110.80 162.96 118.94 161.92 125.95 161.29 C 128.77 159.74 132.39 157.71 132.56 154.11 C 132.68 148.51 133.12 142.74 131.36 137.33 Z" />
</g>
<g id="#fefefeff">
<path fill="#fefefe" opacity="1.00" d=" M 99.01 32.34 C 108.03 30.55 117.43 27.59 126.60 30.13 C 131.71 32.47 136.20 35.99 140.76 39.25 C 143.80 41.83 147.98 44.27 148.03 48.78 C 151.51 52.10 152.69 56.81 153.87 61.29 C 154.42 60.24 154.98 59.19 155.53 58.14 C 158.46 62.48 163.21 66.34 162.79 72.10 C 159.49 69.07 158.94 63.73 154.45 61.95 C 156.02 67.03 159.39 71.20 162.56 75.37 C 168.65 83.56 169.61 94.08 173.67 103.22 C 176.69 109.81 177.50 117.08 179.19 124.06 C 181.88 134.38 179.01 145.16 181.07 155.57 C 181.42 159.08 182.26 163.06 180.19 166.21 C 175.48 174.20 173.26 183.30 170.04 191.93 C 135.35 192.00 100.66 191.93 65.96 191.96 C 64.70 191.89 63.36 192.08 62.15 191.64 C 58.25 189.53 54.22 187.67 50.40 185.42 C 47.16 183.64 46.39 179.69 44.02 177.10 C 42.27 174.95 39.49 173.20 39.44 170.13 C 38.53 162.76 35.58 155.92 33.56 148.84 C 32.88 144.09 31.62 139.49 29.96 135.00 C 28.57 126.71 30.78 118.34 30.21 110.00 C 29.43 102.48 35.33 96.43 35.26 89.01 C 35.47 86.57 35.12 84.03 35.84 81.67 C 38.59 76.97 43.11 73.69 46.53 69.52 C 49.06 66.41 51.90 63.54 54.09 60.17 C 57.34 55.16 62.14 51.45 65.67 46.65 C 69.53 41.52 75.75 38.55 82.14 38.38 C 86.39 33.55 93.19 33.58 99.01 32.34 M 126.28 55.61 C 126.40 57.13 126.54 58.65 126.69 60.17 C 122.33 64.35 116.81 67.72 114.27 73.44 C 112.14 77.76 109.58 83.62 113.26 87.79 C 116.39 91.64 118.29 96.63 122.54 99.46 C 129.05 104.04 137.13 106.06 145.03 105.84 C 149.69 106.18 154.56 105.24 158.04 101.91 C 162.57 98.48 164.23 92.29 162.65 86.94 C 159.48 79.74 156.35 72.14 150.35 66.76 C 146.72 63.34 144.53 58.43 140.03 55.96 C 135.82 53.60 130.70 54.24 126.28 55.61 M 50.83 85.65 C 48.90 87.13 48.60 89.69 47.92 91.85 C 47.24 94.50 46.10 97.05 45.77 99.79 C 46.35 102.00 47.69 103.92 48.34 106.11 C 49.07 109.20 49.08 112.42 49.81 115.52 C 51.86 118.50 54.69 121.22 58.06 122.61 C 62.36 122.97 66.73 123.08 71.01 122.55 C 77.20 118.68 81.56 112.70 85.84 106.94 C 89.88 101.90 93.50 95.18 91.51 88.60 C 90.74 88.24 89.98 87.87 89.21 87.50 C 86.31 83.16 81.61 80.42 76.88 78.48 C 72.61 77.70 68.21 77.25 63.88 77.64 C 59.09 79.49 54.84 82.48 50.83 85.65 M 131.36 137.33 C 133.12 142.74 132.68 148.51 132.56 154.11 C 132.39 157.71 128.77 159.74 125.95 161.29 C 118.94 161.92 110.80 162.96 104.96 158.11 C 101.36 155.44 100.45 150.83 98.14 147.22 C 97.56 147.67 96.40 148.58 95.82 149.03 C 94.81 155.49 100.47 160.46 105.42 163.57 C 110.24 167.16 116.50 164.99 121.98 166.12 C 127.94 166.18 133.03 162.76 136.50 158.12 C 136.92 152.41 136.70 146.67 136.72 140.95 C 136.82 139.14 135.82 137.60 135.07 136.05 C 133.82 136.45 132.58 136.87 131.36 137.33 Z" />
<path fill="#fefefe" opacity="1.00" d=" M 127.73 58.59 C 128.98 55.61 132.58 56.59 135.10 56.57 C 139.46 56.68 142.30 60.39 144.84 63.44 C 142.29 64.22 138.62 64.05 137.61 67.06 C 136.22 69.93 136.56 73.19 137.65 76.09 C 141.97 77.05 146.43 78.16 150.86 77.27 C 151.84 74.97 150.87 72.44 150.66 70.06 C 153.98 74.10 156.95 78.49 158.55 83.51 C 161.90 88.18 161.94 95.39 157.63 99.50 C 154.68 102.61 150.34 104.16 146.08 103.75 C 136.89 104.10 126.62 101.84 120.45 94.52 C 118.24 91.00 115.58 87.75 113.62 84.08 C 113.29 75.03 120.25 68.06 126.75 62.72 C 129.09 60.39 132.52 59.71 134.80 57.33 C 132.42 57.60 130.09 58.15 127.73 58.59 Z" />
<path fill="#fefefe" opacity="1.00" d=" M 50.58 89.31 C 55.04 84.62 60.53 80.26 67.15 79.40 C 72.13 78.81 75.91 82.71 79.86 85.07 C 82.53 86.66 83.14 89.91 84.42 92.50 C 85.35 92.77 87.21 93.31 88.14 93.58 C 87.00 91.82 85.73 90.16 84.41 88.53 C 85.87 88.02 87.33 87.52 88.79 87.03 C 91.08 93.00 89.02 99.46 85.29 104.34 C 80.67 110.17 76.53 116.79 69.93 120.60 C 64.69 121.89 58.36 121.64 54.20 117.76 C 50.05 114.27 51.21 108.22 50.35 103.44 C 53.60 102.65 57.56 102.64 59.59 99.49 C 62.17 96.74 60.05 92.15 56.88 90.95 C 54.82 90.25 52.68 89.85 50.58 89.31 Z" />
<path fill="#fefefe" opacity="1.00" d=" M 171.64 89.24 C 172.86 90.27 174.14 91.37 174.43 93.04 C 175.34 96.91 178.02 100.03 178.99 103.88 C 179.87 107.12 180.09 110.50 180.34 113.84 C 179.98 113.69 179.25 113.40 178.89 113.26 C 177.67 104.87 172.60 97.69 171.64 89.24 Z" />
<path fill="#fefefe" opacity="1.00" d=" M 26.57 128.63 C 26.75 128.66 27.12 128.71 27.30 128.74 C 25.70 134.99 30.57 140.00 30.78 146.06 C 32.20 154.59 36.48 162.35 37.56 170.97 C 35.33 166.30 32.21 162.06 30.34 157.24 C 28.76 147.76 26.24 138.32 26.57 128.63 Z" />
<path fill="#fefefe" opacity="1.00" d=" M 39.37 176.16 C 44.31 178.21 44.38 184.65 48.94 187.05 C 51.97 188.82 55.11 190.41 58.31 191.86 C 53.33 192.05 48.34 191.83 43.36 192.04 C 41.36 186.95 39.64 181.67 39.37 176.16 Z" />
</g>
</svg>
