<?xml version="1.0" encoding="UTF-8" ?>
<!DOCTYPE svg PUBLIC "-//W3C//DTD SVG 1.1//EN" "http://www.w3.org/Graphics/SVG/1.1/DTD/svg11.dtd">
<svg width="210pt" height="220pt" viewBox="0 0 210 220" version="1.1" xmlns="http://www.w3.org/2000/svg">
<g id="#0c0c0cfa">
<path fill="#0c0c0c" opacity="0.98" d=" M 91.85 28.64 C 97.73 28.19 103.23 25.93 108.96 24.76 C 116.57 24.14 124.51 23.39 131.89 25.84 C 134.57 26.64 137.39 26.70 140.17 26.86 C 139.26 27.65 138.37 28.46 137.47 29.27 C 137.58 30.60 137.09 31.59 136.03 32.24 L 135.48 32.35 L 136.83 31.05 C 130.84 25.76 122.53 25.89 115.03 25.77 C 108.35 25.54 102.45 29.25 95.94 30.03 C 91.80 30.57 87.59 31.28 83.92 33.39 C 86.70 33.67 89.49 33.70 92.27 33.92 C 88.44 36.60 83.39 35.68 78.96 36.39 C 71.87 36.46 65.50 40.84 61.45 46.42 C 57.92 51.19 53.45 55.18 49.81 59.87 C 46.93 63.34 44.70 67.31 41.69 70.68 C 38.23 74.66 34.09 78.09 31.22 82.55 C 29.43 85.36 29.70 88.84 29.56 92.02 C 30.02 99.81 23.75 106.18 24.30 113.99 C 24.62 123.04 23.21 132.06 23.79 141.12 C 24.01 142.64 24.72 144.03 25.25 145.46 C 27.13 149.85 27.00 154.75 28.45 159.27 C 31.09 167.20 33.85 175.19 34.66 183.56 C 38.25 186.84 41.45 190.64 43.24 195.21 L 43.16 195.76 C 42.68 195.79 41.71 195.86 41.23 195.89 C 39.24 192.57 37.46 188.97 34.18 186.69 C 34.37 189.82 34.86 192.92 35.54 195.98 C 35.03 195.99 34.02 196.01 33.52 196.02 C 32.72 192.66 32.64 189.21 32.20 185.81 C 29.27 179.88 25.91 174.13 22.82 168.29 C 21.05 157.68 17.99 146.98 19.01 136.14 C 19.00 121.38 17.98 106.55 19.41 91.83 C 20.86 92.97 20.35 94.97 20.58 96.56 C 20.86 104.72 20.41 112.88 20.56 121.03 C 20.85 128.87 19.88 136.73 20.58 144.55 C 21.51 150.39 22.60 156.21 23.44 162.06 C 23.94 169.42 29.15 175.10 32.33 181.44 C 31.70 173.06 27.83 165.33 25.84 157.23 C 25.10 153.44 25.03 149.41 23.09 145.97 C 20.26 141.47 21.46 135.96 21.85 130.99 C 22.96 124.02 21.94 116.95 22.53 109.95 C 23.56 105.12 25.62 100.59 27.39 96.00 C 28.14 94.17 27.14 92.14 25.59 91.08 C 25.45 93.14 25.40 95.21 25.35 97.28 C 24.92 97.33 24.08 97.43 23.65 97.49 C 23.56 94.09 23.48 90.42 25.70 87.60 C 29.74 82.82 26.62 76.23 28.97 70.83 C 30.00 73.68 29.82 76.74 29.99 79.71 C 35.39 74.70 37.96 67.37 43.71 62.70 C 46.67 59.98 48.61 56.34 51.76 53.80 C 54.96 51.47 55.77 47.23 58.89 44.83 C 61.87 42.48 63.86 39.09 66.98 36.91 C 70.89 34.71 75.42 34.08 79.69 32.84 C 83.84 31.71 87.47 28.96 91.85 28.64 Z" />
<path fill="#0c0c0c" opacity="0.98" d=" M 137.95 32.97 C 137.76 32.55 137.38 31.72 137.20 31.30 C 146.99 35.51 152.73 44.87 159.08 52.88 C 163.55 57.20 167.01 62.68 168.01 68.90 C 169.30 77.24 173.71 84.67 178.70 91.33 C 180.97 94.13 180.98 97.99 183.01 100.94 C 186.35 106.30 186.88 112.80 186.64 118.96 C 186.32 126.31 187.67 133.60 187.60 140.94 C 186.68 151.02 187.64 161.14 187.68 171.24 L 188.66 171.27 C 188.65 168.03 188.64 164.79 188.63 161.54 L 190.56 161.38 C 190.89 165.17 190.88 169.03 189.92 172.73 C 188.48 181.06 182.79 187.73 180.74 195.87 C 179.56 195.90 178.39 195.94 177.22 195.97 C 179.27 189.69 180.97 183.18 184.48 177.50 C 187.38 173.63 186.25 168.55 185.90 164.10 C 184.04 152.69 186.91 140.94 183.88 129.67 C 182.66 125.07 182.20 120.30 180.93 115.71 C 179.37 109.58 176.45 103.91 174.91 97.78 C 172.48 90.64 170.80 82.99 166.20 76.84 C 162.94 72.29 158.98 67.85 157.98 62.14 C 162.30 64.69 163.27 69.98 166.36 73.61 C 167.38 66.55 160.97 62.24 157.67 56.91 C 157.54 58.20 157.27 60.78 157.13 62.07 C 155.67 56.90 154.69 51.11 150.39 47.40 C 150.44 46.73 150.54 45.40 150.59 44.73 C 147.20 39.95 141.86 37.23 137.95 32.97 M 174.29 88.97 C 175.83 92.96 176.98 97.08 178.11 101.20 C 179.04 104.62 181.07 107.60 181.96 111.03 C 182.76 114.08 183.33 117.20 184.45 120.16 C 185.73 113.11 183.94 105.76 180.12 99.77 C 178.79 95.87 177.45 91.83 174.29 88.97 Z" />
<path fill="#0c0c0c" opacity="0.98" d=" M 110.55 52.35 C 114.05 56.65 120.01 57.24 123.98 60.94 C 127.47 64.30 132.22 65.91 135.61 69.38 C 138.75 72.60 142.52 75.38 144.62 79.46 C 140.89 79.54 138.85 75.84 136.42 73.59 C 132.54 68.93 126.68 66.80 122.20 62.88 C 119.34 60.39 115.85 58.84 112.36 57.45 C 112.27 59.67 112.22 61.90 112.18 64.13 L 111.78 64.77 C 111.15 73.40 111.93 82.07 111.14 90.69 C 109.31 90.62 108.83 88.60 108.81 87.16 C 108.44 78.06 109.63 69.00 109.56 59.89 C 109.84 57.39 108.92 54.53 110.55 52.35 Z" />
<path fill="#0c0c0c" opacity="0.98" d=" M 49.40 92.82 C 55.81 95.21 61.06 99.69 66.80 103.25 C 71.87 104.78 79.50 101.11 82.59 106.77 C 77.04 106.29 71.49 105.75 65.93 105.56 C 60.96 102.92 56.85 98.84 51.65 96.56 C 51.66 103.09 50.88 109.73 52.29 116.16 C 52.79 118.54 52.82 120.98 52.65 123.40 C 52.09 123.49 50.95 123.68 50.38 123.77 C 50.53 119.46 49.16 115.29 49.25 110.98 C 49.31 104.93 49.17 98.87 49.40 92.82 Z" />
<path fill="#0c0c0c" opacity="0.98" d=" M 145.04 111.29 C 145.57 111.34 146.61 111.45 147.14 111.50 C 149.15 114.10 151.09 116.88 151.93 120.11 C 152.68 123.25 154.63 125.93 155.55 128.98 C 155.77 132.83 154.33 136.53 154.20 140.36 C 148.11 144.35 141.78 149.70 134.00 148.79 C 130.50 148.92 127.69 146.66 124.80 145.05 C 125.32 153.48 118.76 160.56 111.21 163.28 C 109.46 163.49 107.69 163.70 105.99 164.23 C 96.22 163.34 90.57 154.35 85.10 147.32 C 86.61 147.40 88.44 147.09 89.53 148.41 C 92.42 151.26 93.93 155.25 97.06 157.91 C 101.20 161.46 107.72 162.97 112.50 159.77 C 117.22 157.81 120.63 153.80 122.28 149.01 C 122.30 147.65 122.31 146.28 122.31 144.91 C 121.48 142.67 120.50 140.49 119.41 138.37 C 124.01 138.75 126.05 144.11 130.44 145.42 C 137.71 148.87 145.00 143.87 150.59 139.56 C 152.64 136.88 152.67 133.19 153.20 129.96 C 152.33 126.90 150.53 124.24 149.49 121.25 C 148.23 117.82 145.74 114.94 145.04 111.29 Z" />
</g>
<g id="#fefefeff">
<path fill="#fefefe" opacity="1.00" d=" M 95.94 30.03 C 102.45 29.25 108.35 25.54 115.03 25.77 C 122.53 25.89 130.84 25.76 136.83 31.05 L 135.48 32.35 L 136.03 32.24 C 136.51 32.42 137.47 32.79 137.95 32.97 C 141.86 37.23 147.20 39.95 150.59 44.73 C 150.54 45.40 150.44 46.73 150.39 47.40 C 154.69 51.11 155.67 56.90 157.13 62.07 C 157.27 60.78 157.54 58.20 157.67 56.91 C 160.97 62.24 167.38 66.55 166.36 73.61 C 163.27 69.98 162.30 64.69 157.98 62.14 C 158.98 67.85 162.94 72.29 166.20 76.84 C 170.80 82.99 172.48 90.64 174.91 97.78 C 176.45 103.91 179.37 109.58 180.93 115.71 C 182.20 120.30 182.66 125.07 183.88 129.67 C 186.91 140.94 184.04 152.69 185.90 164.10 C 186.25 168.55 187.38 173.63 184.48 177.50 C 180.97 183.18 179.27 189.69 177.22 195.97 C 133.09 195.90 88.95 196.02 44.81 195.92 C 44.50 195.84 43.89 195.68 43.59 195.61 L 43.24 195.21 C 41.45 190.64 38.25 186.84 34.66 183.56 C 33.85 175.19 31.09 167.20 28.45 159.27 C 27.00 154.75 27.13 149.85 25.25 145.46 C 24.72 144.03 24.01 142.64 23.79 141.12 C 23.21 132.06 24.62 123.04 24.30 113.99 C 23.75 106.18 30.02 99.81 29.56 92.02 C 29.70 88.84 29.43 85.36 31.22 82.55 C 34.09 78.09 38.23 74.66 41.69 70.68 C 44.70 67.31 46.93 63.34 49.81 59.87 C 53.45 55.18 57.92 51.19 61.45 46.42 C 65.50 40.84 71.87 36.46 78.96 36.39 C 83.39 35.68 88.44 36.60 92.27 33.92 C 89.49 33.70 86.70 33.67 83.92 33.39 C 87.59 31.28 91.80 30.57 95.94 30.03 M 110.55 52.35 C 108.92 54.53 109.84 57.39 109.56 59.89 C 109.63 69.00 108.44 78.06 108.81 87.16 C 108.83 88.60 109.31 90.62 111.14 90.69 C 111.93 82.07 111.15 73.40 111.78 64.77 L 112.18 64.13 C 112.22 61.90 112.27 59.67 112.36 57.45 C 115.85 58.84 119.34 60.39 122.20 62.88 C 126.68 66.80 132.54 68.93 136.42 73.59 C 138.85 75.84 140.89 79.54 144.62 79.46 C 142.52 75.38 138.75 72.60 135.61 69.38 C 132.22 65.91 127.47 64.30 123.98 60.94 C 120.01 57.24 114.05 56.65 110.55 52.35 M 49.40 92.82 C 49.17 98.87 49.31 104.93 49.25 110.98 C 49.16 115.29 50.53 119.46 50.38 123.77 C 50.95 123.68 52.09 123.49 52.65 123.40 C 52.82 120.98 52.79 118.54 52.29 116.16 C 50.88 109.73 51.66 103.09 51.65 96.56 C 56.85 98.84 60.96 102.92 65.93 105.56 C 71.49 105.75 77.04 106.29 82.59 106.77 C 79.50 101.11 71.87 104.78 66.80 103.25 C 61.06 99.69 55.81 95.21 49.40 92.82 M 145.04 111.29 C 145.74 114.94 148.23 117.82 149.49 121.25 C 150.53 124.24 152.33 126.90 153.20 129.96 C 152.67 133.19 152.64 136.88 150.59 139.56 C 145.00 143.87 137.71 148.87 130.44 145.42 C 126.05 144.11 124.01 138.75 119.41 138.37 C 120.50 140.49 121.48 142.67 122.31 144.91 C 122.31 146.28 122.30 147.65 122.28 149.01 C 120.63 153.80 117.22 157.81 112.50 159.77 C 107.72 162.97 101.20 161.46 97.06 157.91 C 93.93 155.25 92.42 151.26 89.53 148.41 C 88.44 147.09 86.61 147.40 85.10 147.32 C 90.57 154.35 96.22 163.34 105.99 164.23 C 107.69 163.70 109.46 163.49 111.21 163.28 C 118.76 160.56 125.32 153.48 124.80 145.05 C 127.69 146.66 130.50 148.92 134.00 148.79 C 141.78 149.70 148.11 144.35 154.20 140.36 C 154.33 136.53 155.77 132.83 155.55 128.98 C 154.63 125.93 152.68 123.25 151.93 120.11 C 151.09 116.88 149.15 114.10 147.14 111.50 C 146.61 111.45 145.57 111.34 145.04 111.29 Z" />
<path fill="#fefefe" opacity="1.00" d=" M 174.29 88.97 C 177.45 91.83 178.79 95.87 180.12 99.77 C 183.94 105.76 185.73 113.11 184.45 120.16 C 183.33 117.20 182.76 114.08 181.96 111.03 C 181.07 107.60 179.04 104.62 178.11 101.20 C 176.98 97.08 175.83 92.96 174.29 88.97 Z" />
<path fill="#fefefe" opacity="1.00" d=" M 34.18 186.69 C 37.46 188.97 39.24 192.57 41.23 195.89 C 39.33 195.92 37.44 195.95 35.54 195.98 C 34.86 192.92 34.37 189.82 34.18 186.69 Z" />
</g>
</svg>
