<?xml version="1.0" encoding="UTF-8" ?>
<!DOCTYPE svg PUBLIC "-//W3C//DTD SVG 1.1//EN" "http://www.w3.org/Graphics/SVG/1.1/DTD/svg11.dtd">
<svg width="320pt" height="240pt" viewBox="0 0 320 240" version="1.1" xmlns="http://www.w3.org/2000/svg">
<g id="#080404fe">
<path fill="#080404" opacity="1.00" d=" M 155.61 6.63 C 160.42 1.30 168.73 1.40 174.82 4.26 C 183.70 8.56 190.83 16.16 195.09 25.01 C 197.23 29.38 200.21 33.28 202.33 37.66 C 204.52 42.10 204.91 47.13 205.35 51.98 C 205.66 57.68 205.99 63.63 203.85 69.04 C 202.72 72.19 200.11 74.41 197.93 76.82 C 199.73 78.54 201.76 80.00 203.93 81.24 C 204.19 83.34 203.96 85.75 205.57 87.38 C 208.33 90.67 211.72 93.51 213.55 97.49 C 216.37 102.81 216.79 108.97 219.32 114.41 C 220.82 118.08 222.90 121.48 225.00 124.84 C 224.89 125.18 224.66 125.88 224.55 126.22 C 224.12 126.80 223.26 127.95 222.83 128.53 C 223.47 129.52 224.12 130.50 224.78 131.48 C 226.61 137.59 228.60 143.64 230.80 149.63 C 230.12 150.87 229.43 152.11 228.75 153.36 C 227.74 146.96 224.71 141.15 223.13 134.91 C 221.19 129.90 220.29 124.51 217.79 119.73 C 216.67 126.08 217.85 132.55 217.25 138.93 C 214.01 144.57 209.35 149.41 203.82 152.85 C 209.99 158.58 212.83 166.67 217.58 173.43 C 219.28 176.02 221.66 178.61 221.43 181.94 C 221.44 185.94 221.60 189.97 221.32 193.97 C 220.33 198.54 216.83 203.14 211.90 203.66 C 206.23 204.73 200.40 203.94 194.73 204.73 C 187.66 209.24 181.52 215.11 174.18 219.22 C 169.31 221.98 165.40 226.25 160.17 228.41 C 157.73 229.50 154.98 229.62 152.53 230.67 C 149.80 232.31 147.82 235.00 144.92 236.40 C 140.22 236.49 135.72 234.56 131.01 234.61 C 124.63 234.85 118.06 232.87 112.99 228.99 C 109.66 226.09 113.60 222.76 115.02 219.98 C 118.50 213.40 121.62 206.48 122.83 199.07 C 124.32 193.99 122.90 188.61 124.29 183.51 C 125.41 177.22 127.09 171.02 127.71 164.66 C 128.30 166.53 128.97 168.36 129.55 170.24 C 128.59 174.87 128.34 179.61 127.16 184.21 C 125.79 188.92 127.30 193.90 125.87 198.59 C 123.79 208.47 119.94 218.06 114.11 226.33 C 115.64 227.52 117.23 228.65 118.84 229.74 C 121.61 225.49 125.72 222.31 130.13 219.90 C 131.56 219.10 133.52 218.86 134.83 220.02 C 137.45 221.98 139.58 224.49 142.00 226.70 C 145.35 220.94 145.96 212.60 152.70 209.57 C 157.90 206.57 162.59 211.94 166.47 214.75 C 166.51 209.91 167.13 204.89 169.57 200.62 C 171.87 198.18 175.37 196.74 178.74 197.40 C 180.71 198.00 182.49 199.08 184.38 199.90 C 186.88 195.36 188.84 190.40 192.99 187.03 C 190.17 183.87 187.20 180.83 183.93 178.13 C 178.13 180.21 174.89 185.71 170.10 189.19 C 167.32 190.91 164.98 187.54 162.77 186.33 C 160.19 188.49 157.29 190.58 155.92 193.77 C 154.53 197.05 153.24 200.37 151.56 203.51 C 150.76 203.57 149.16 203.68 148.36 203.73 C 150.16 200.35 151.74 196.86 153.17 193.31 C 154.98 188.81 158.99 185.77 162.98 183.28 C 164.98 184.54 166.94 185.87 168.91 187.17 C 173.39 182.55 177.72 177.36 184.06 175.28 C 188.40 178.08 192.36 181.65 195.01 186.12 C 196.07 187.91 197.34 189.57 198.76 191.09 C 199.39 187.69 201.25 183.08 205.59 184.29 C 209.95 185.85 215.43 188.47 216.10 193.63 C 212.31 191.42 208.91 188.61 205.11 186.41 C 204.45 186.71 203.12 187.32 202.46 187.62 C 201.24 192.18 200.95 197.02 202.50 201.54 C 207.00 201.32 212.37 202.39 215.90 198.85 C 220.10 194.67 218.28 188.27 218.58 183.00 C 218.92 177.96 214.61 174.55 212.50 170.42 C 208.72 164.41 206.26 156.33 199.01 153.65 C 198.22 153.91 196.64 154.44 195.85 154.70 C 197.73 156.00 199.64 157.25 201.56 158.46 C 201.58 159.09 201.61 160.33 201.63 160.96 C 196.36 158.08 190.28 157.10 185.16 153.90 C 177.73 149.76 170.34 144.06 161.38 144.39 C 161.40 146.31 161.43 148.24 161.55 150.17 C 163.86 150.79 166.17 151.71 168.60 151.60 C 170.35 150.93 171.81 149.69 173.43 148.76 C 173.50 150.11 173.57 151.47 173.63 152.82 C 169.95 155.27 165.63 154.36 161.71 153.13 C 161.64 156.19 161.03 159.19 159.64 161.93 C 157.23 160.96 154.86 159.90 152.48 158.84 C 152.23 162.75 153.18 167.86 149.39 170.41 C 146.58 171.28 143.93 169.78 141.47 168.63 C 140.23 173.15 135.64 174.48 131.96 176.44 C 131.36 175.91 130.77 175.38 130.18 174.85 C 132.73 172.95 135.50 171.38 138.33 169.93 C 137.23 167.62 135.00 166.31 132.96 164.93 C 134.50 164.34 136.05 163.75 137.59 163.16 C 136.12 161.92 134.65 160.67 133.15 159.47 C 133.10 158.01 133.00 156.50 133.43 155.08 C 137.28 149.34 142.48 143.73 149.48 142.14 C 154.49 140.67 159.81 141.49 164.93 141.75 C 174.65 143.81 182.68 150.04 191.50 154.24 C 192.84 155.21 194.02 153.80 195.17 153.22 C 190.52 150.22 185.70 147.32 180.38 145.64 C 176.32 144.33 172.36 142.60 168.90 140.07 C 163.47 136.57 160.35 130.67 155.35 126.68 C 152.47 122.97 148.71 120.25 144.84 117.67 C 143.40 117.50 141.95 117.64 140.52 117.70 C 140.50 122.86 141.61 128.39 138.84 133.09 C 137.95 135.03 137.09 136.98 136.33 138.97 C 134.26 142.87 131.80 146.57 128.85 149.87 C 126.11 152.85 124.58 156.75 121.53 159.47 C 118.00 162.70 114.38 167.23 109.02 166.52 C 103.65 166.09 97.47 165.58 93.51 161.49 C 88.60 156.96 91.16 149.46 87.89 144.05 C 84.87 139.35 86.49 133.39 88.66 128.70 C 91.71 122.98 98.53 121.21 102.61 116.46 C 95.70 119.23 88.86 122.71 83.75 128.24 C 82.61 130.03 81.59 131.90 80.42 133.67 C 78.08 136.87 75.90 140.29 72.81 142.85 C 71.36 144.16 69.40 145.36 69.41 147.57 C 68.71 147.94 67.32 148.68 66.63 149.05 C 66.36 149.22 65.83 149.55 65.56 149.71 C 65.41 155.30 65.25 160.89 65.45 166.48 C 65.15 168.27 64.87 170.06 64.68 171.86 C 64.60 174.74 64.79 177.63 65.22 180.49 C 65.65 184.74 67.68 188.68 67.67 193.00 C 68.03 201.37 71.78 209.09 76.27 215.99 C 77.51 217.96 78.86 219.88 80.41 221.62 C 82.83 223.82 85.68 225.69 87.32 228.60 C 88.53 230.40 89.20 232.71 91.11 233.93 C 94.63 236.27 98.28 238.50 102.25 240.00 L 96.32 240.00 C 93.45 238.51 90.52 237.05 87.98 235.03 C 85.62 231.53 84.00 227.46 80.62 224.70 C 78.92 229.73 81.04 234.99 81.94 240.00 L 79.49 240.00 C 78.04 234.21 78.16 228.20 77.40 222.31 C 76.29 218.62 73.58 215.69 71.69 212.39 C 68.29 206.85 65.89 200.57 65.56 194.03 C 65.45 188.98 63.51 184.16 63.64 179.09 C 63.86 169.88 63.35 160.66 63.67 151.45 C 62.47 151.10 61.28 150.75 60.08 150.40 C 61.67 148.43 63.90 146.65 64.23 143.99 C 64.63 139.74 64.35 135.47 64.27 131.21 C 59.50 133.10 54.69 134.90 49.81 136.48 C 44.40 138.32 38.60 137.45 33.01 137.65 C 28.57 137.51 23.36 138.51 19.83 135.12 C 15.69 131.29 16.53 125.01 16.48 119.90 C 16.38 114.15 22.43 111.52 25.36 107.34 C 28.56 102.73 32.24 98.45 36.70 95.00 C 35.64 89.73 35.17 84.37 35.32 79.00 C 35.52 70.14 34.80 61.21 36.17 52.41 C 37.08 46.03 35.96 39.06 39.27 33.24 C 41.64 28.91 46.38 26.88 50.45 24.50 C 55.33 21.89 59.84 18.31 65.43 17.30 C 71.94 15.98 78.21 13.28 84.95 13.30 C 94.19 12.24 103.49 12.95 112.75 12.60 C 118.51 12.42 123.75 9.60 129.42 9.02 C 135.65 15.09 144.03 17.82 151.42 22.12 C 151.63 16.79 151.42 10.62 155.61 6.63 M 157.09 8.07 C 153.35 11.63 153.46 17.18 153.59 21.95 C 158.96 26.44 164.95 30.14 170.14 34.85 C 175.89 39.98 179.30 47.01 183.88 53.09 C 186.56 56.95 190.10 60.97 189.47 66.04 C 189.58 69.57 186.61 72.43 183.38 73.31 C 176.75 75.28 170.00 77.13 163.05 77.44 C 159.95 77.34 157.81 79.81 155.40 81.34 C 146.39 87.05 135.29 87.88 126.03 93.01 C 121.04 96.59 115.46 99.14 110.10 102.10 C 105.75 104.45 100.83 105.39 96.25 107.19 C 90.13 109.58 83.81 111.43 77.59 113.52 C 72.36 115.26 67.35 117.78 61.87 118.68 C 58.64 119.26 55.29 119.72 52.47 121.52 C 50.37 122.90 47.99 123.69 45.49 123.92 C 45.83 120.94 46.35 117.97 46.49 114.97 C 46.99 110.52 43.56 107.12 41.79 103.36 C 40.52 101.43 39.95 98.79 37.95 97.51 C 31.52 100.30 29.19 107.67 24.00 111.96 C 21.94 113.98 19.04 115.79 18.80 118.95 C 18.43 122.60 18.58 126.32 19.31 129.92 C 19.87 133.48 23.56 135.92 27.05 135.69 C 33.37 135.73 39.72 135.89 46.02 135.26 C 52.38 134.52 57.65 130.58 63.64 128.68 C 68.30 127.18 72.77 125.20 77.22 123.19 C 82.45 120.67 88.44 120.31 93.55 117.49 C 99.61 113.78 106.61 112.14 113.06 109.27 C 122.99 106.67 133.14 104.63 142.64 100.62 C 145.69 99.19 148.10 96.72 151.19 95.34 C 153.94 94.07 156.77 92.95 159.41 91.45 C 163.62 89.04 168.37 87.85 172.67 85.62 C 179.49 81.81 187.51 80.67 193.93 76.05 C 192.71 74.48 191.50 72.90 190.39 71.26 C 193.16 70.96 195.06 73.22 197.12 74.67 C 199.02 72.63 201.09 70.58 201.98 67.86 C 204.70 60.51 203.30 52.52 202.35 44.97 C 201.42 37.74 196.10 32.33 193.15 25.92 C 188.94 16.97 181.62 9.32 172.38 5.57 C 167.34 3.55 161.02 4.04 157.09 8.07 M 126.36 11.96 C 121.60 12.98 116.94 14.64 112.02 14.68 C 103.00 14.87 93.95 14.29 84.96 15.27 C 78.82 15.33 73.14 17.92 67.19 19.06 C 61.37 20.09 56.58 23.69 51.45 26.36 C 47.89 28.33 43.84 30.03 41.63 33.67 C 37.79 39.19 39.21 46.24 38.18 52.51 C 36.57 61.58 37.47 70.83 37.22 79.99 C 37.40 84.10 36.73 88.53 38.63 92.34 C 40.74 96.21 42.81 100.13 45.26 103.79 C 48.85 103.01 51.84 100.56 55.32 99.37 C 69.32 93.97 83.11 88.06 96.79 81.90 C 101.10 79.92 105.05 77.13 109.66 75.85 C 116.63 73.87 123.62 71.90 130.78 70.69 C 138.02 69.45 144.24 65.23 151.28 63.34 C 158.32 61.24 165.91 60.39 172.17 56.26 C 174.91 54.86 177.54 52.41 177.40 49.07 C 173.09 38.77 163.37 32.64 154.74 26.28 C 146.89 21.13 137.53 18.66 130.13 12.78 C 129.08 11.85 127.70 11.43 126.36 11.96 M 167.08 61.81 C 161.63 63.76 155.84 64.54 150.35 66.37 C 144.70 68.13 139.62 71.36 133.86 72.78 C 122.67 75.25 110.94 76.94 100.92 82.86 C 95.56 85.73 89.76 87.63 84.30 90.29 C 72.24 96.21 59.20 99.91 47.31 106.17 C 48.60 110.67 48.86 115.36 48.90 120.02 C 55.53 116.29 63.37 116.37 70.26 113.35 C 82.36 108.98 94.61 105.02 106.72 100.69 C 111.98 98.02 117.35 95.51 122.32 92.32 C 131.42 85.76 143.14 85.03 152.88 79.79 C 155.90 78.13 158.38 75.17 162.04 74.96 C 168.79 74.36 175.43 72.86 181.93 70.98 C 184.10 70.45 186.36 69.05 186.62 66.62 C 187.46 61.11 183.20 56.75 180.28 52.61 C 176.80 56.81 172.01 59.62 167.08 61.81 M 183.31 83.97 C 176.94 85.40 171.77 89.62 165.67 91.76 C 165.56 92.31 165.36 93.40 165.25 93.95 C 170.77 90.74 176.66 88.11 182.85 86.54 C 183.79 86.53 185.65 86.53 186.58 86.53 C 186.62 87.33 186.70 88.95 186.74 89.75 C 187.00 89.72 187.54 89.66 187.80 89.63 C 190.48 93.88 196.24 94.93 198.15 99.75 C 200.53 104.54 205.62 107.21 207.98 112.01 C 209.83 115.60 211.10 119.64 214.41 122.24 C 214.63 120.16 214.64 118.07 214.53 115.99 C 214.80 113.14 212.23 111.37 210.89 109.18 C 207.39 104.80 206.35 98.71 201.72 95.24 C 198.95 93.17 196.66 90.33 193.42 89.01 L 194.34 88.89 C 192.00 88.59 189.64 88.53 187.29 88.48 L 187.26 86.36 C 190.95 86.38 194.64 86.51 198.33 86.57 C 198.37 89.85 200.57 92.30 203.74 92.91 C 203.10 90.31 202.02 87.76 199.61 86.33 C 197.19 84.88 198.73 81.76 198.51 79.49 C 197.79 78.96 197.08 78.44 196.37 77.91 C 192.08 80.08 188.07 82.86 183.31 83.97 M 173.66 93.49 C 170.60 92.45 168.12 95.23 166.05 97.05 C 161.31 101.11 159.12 107.15 156.79 112.75 C 160.16 112.72 161.03 109.00 162.92 106.90 C 166.84 102.17 171.98 98.67 176.55 94.63 C 178.73 93.54 181.14 93.11 183.57 93.48 C 182.08 94.27 180.58 95.01 179.08 95.75 C 173.31 101.73 165.09 105.74 161.77 113.74 C 161.11 117.58 161.24 121.60 161.62 125.48 C 163.32 128.02 165.48 130.20 167.23 132.71 C 169.45 135.72 171.58 139.13 175.13 140.72 C 182.95 144.31 191.69 143.41 200.04 143.52 C 204.90 143.95 209.25 140.69 211.94 136.90 C 214.46 133.65 213.66 129.26 213.39 125.46 C 212.02 123.01 209.64 121.31 208.27 118.87 C 206.83 116.29 205.71 113.55 204.45 110.89 C 202.34 108.23 199.60 106.15 197.48 103.51 C 195.84 101.49 194.99 98.75 192.68 97.33 C 190.06 95.66 187.72 93.60 185.74 91.21 C 181.62 89.01 177.47 92.10 173.66 93.49 M 160.07 92.81 C 159.68 93.94 159.30 95.08 158.92 96.21 C 159.75 96.30 161.41 96.50 162.24 96.59 C 162.48 95.44 162.73 94.29 162.99 93.14 C 162.26 93.06 160.80 92.89 160.07 92.81 M 207.15 95.01 C 207.75 98.45 209.98 101.32 212.90 103.16 C 212.23 99.75 210.26 96.66 207.15 95.01 M 152.55 98.59 C 152.47 100.35 152.51 102.13 152.26 103.88 C 150.97 106.13 149.18 108.02 147.54 110.02 C 147.86 110.65 148.49 111.90 148.81 112.52 C 149.94 112.52 151.08 112.51 152.22 112.51 C 152.23 110.02 152.11 107.51 152.54 105.06 C 153.43 102.78 154.54 100.60 155.30 98.27 C 154.61 98.35 153.23 98.51 152.55 98.59 M 146.24 105.71 C 150.35 106.56 150.86 101.91 150.62 98.98 C 147.46 99.69 147.09 103.15 146.24 105.71 M 154.62 109.68 C 158.01 107.40 159.11 103.31 160.16 99.61 C 156.76 101.85 154.71 105.61 154.62 109.68 M 119.23 110.46 C 119.29 111.04 119.39 112.20 119.44 112.78 C 122.76 115.45 127.14 114.13 131.01 114.84 C 136.60 115.81 142.30 115.08 147.95 115.40 C 146.89 113.85 145.71 112.39 144.72 110.79 C 144.30 108.11 144.70 105.39 144.74 102.70 C 136.49 106.02 127.98 108.77 119.23 110.46 M 108.58 114.25 C 111.67 114.55 114.79 114.52 117.90 114.46 C 117.15 113.35 116.39 112.25 115.63 111.16 C 113.14 111.84 110.74 112.83 108.58 114.25 M 153.05 118.30 C 154.03 121.41 155.85 124.23 158.38 126.31 C 158.45 122.74 158.37 119.18 158.40 115.61 C 156.59 116.46 154.79 117.33 153.05 118.30 M 106.44 117.63 C 103.14 119.51 100.42 122.28 96.99 123.98 C 90.66 127.21 88.39 134.99 88.53 141.62 C 92.67 141.70 96.73 140.22 100.33 138.27 C 100.52 137.07 100.51 135.86 100.55 134.66 C 97.57 133.91 94.51 133.37 91.74 131.98 C 93.81 129.51 97.14 130.69 99.89 130.85 C 102.57 132.49 103.59 135.62 103.73 138.61 C 100.51 142.26 95.58 142.94 91.32 144.77 C 92.14 148.12 93.25 151.43 93.40 154.90 C 93.15 157.96 95.72 160.35 98.20 161.66 C 102.77 163.19 107.72 164.05 112.53 163.37 C 115.46 162.31 117.22 159.51 119.53 157.58 C 122.75 154.97 123.93 150.75 126.94 147.94 C 130.91 144.02 134.32 138.95 133.86 133.11 C 132.49 132.84 131.12 132.59 129.76 132.34 C 127.99 128.15 126.55 123.23 122.39 120.78 C 117.29 118.83 112.03 116.50 106.44 117.63 M 125.51 117.50 C 128.23 120.70 132.30 122.58 134.28 126.44 C 133.27 126.47 131.25 126.55 130.25 126.58 C 130.33 127.26 130.41 127.95 130.48 128.63 C 131.83 129.84 133.24 130.98 134.72 132.04 C 134.55 130.88 134.22 128.54 134.05 127.37 C 135.16 126.95 136.30 126.59 137.30 125.95 C 137.65 123.17 137.52 120.37 137.56 117.58 C 133.54 117.69 129.53 117.47 125.51 117.50 M 76.74 126.80 C 75.36 128.29 75.91 130.47 75.14 132.21 C 74.36 134.08 73.48 135.91 73.27 137.95 C 78.37 134.35 80.88 128.24 84.13 123.08 C 81.47 123.87 78.89 125.02 76.74 126.80 M 69.15 134.26 C 68.25 132.77 67.45 131.22 66.53 129.74 C 66.51 134.58 66.23 139.41 66.34 144.25 C 71.39 140.94 70.83 134.18 73.74 129.42 C 70.41 128.18 70.17 132.15 69.15 134.26 M 203.00 146.34 C 198.53 146.63 194.04 146.14 189.57 146.52 C 193.20 150.77 199.06 149.86 204.03 149.59 C 207.35 147.39 210.11 144.38 212.45 141.17 C 209.30 142.88 206.48 145.29 203.00 146.34 M 144.74 146.60 C 146.31 149.21 147.80 151.91 149.74 154.28 C 152.36 156.11 155.37 157.42 158.49 158.13 C 158.76 153.52 158.60 148.91 158.57 144.30 C 153.86 142.55 149.23 145.42 144.74 146.60 M 135.29 157.05 C 137.46 159.57 139.99 161.95 140.60 165.38 C 143.42 166.44 146.14 168.39 149.29 167.53 C 149.44 164.47 149.59 161.40 149.45 158.35 C 147.10 155.42 144.99 152.33 143.28 148.97 C 139.49 150.19 137.40 153.95 135.29 157.05 M 190.01 194.92 C 188.55 198.76 185.62 201.76 184.03 205.54 C 182.01 203.29 180.44 199.85 177.02 199.63 C 174.80 200.17 172.40 201.11 171.44 203.36 C 168.56 208.05 169.78 213.69 169.45 218.88 C 178.17 214.42 185.47 207.80 193.48 202.27 C 195.31 201.15 197.63 201.67 199.68 201.31 C 199.20 199.05 198.77 196.79 198.23 194.55 C 197.18 192.74 195.44 191.48 193.97 190.03 C 192.40 191.44 190.70 192.85 190.01 194.92 M 149.41 216.42 C 147.58 221.05 145.44 225.53 143.07 229.91 C 139.27 229.32 137.61 225.34 134.76 223.21 C 133.36 221.53 130.89 222.23 129.39 223.37 C 126.24 225.51 123.37 228.05 120.13 230.07 C 123.58 231.56 127.32 231.83 131.04 231.72 C 135.83 231.60 140.45 234.27 145.23 233.24 C 147.14 231.87 148.67 230.06 150.57 228.68 C 152.79 226.94 155.76 227.13 158.33 226.28 C 161.25 224.71 164.11 223.03 166.95 221.33 C 165.44 217.41 162.66 214.06 158.79 212.31 C 155.29 209.91 150.73 212.95 149.41 216.42 Z" />
</g>
<g id="#944949fe">
<path fill="#944949" opacity="1.00" d=" M 157.09 8.07 C 161.02 4.04 167.34 3.55 172.38 5.57 C 181.62 9.32 188.94 16.97 193.15 25.92 C 196.10 32.33 201.42 37.74 202.35 44.97 C 203.30 52.52 204.70 60.51 201.98 67.86 C 201.09 70.58 199.02 72.63 197.12 74.67 C 195.06 73.22 193.16 70.96 190.39 71.26 C 191.50 72.90 192.71 74.48 193.93 76.05 C 187.51 80.67 179.49 81.81 172.67 85.62 C 168.37 87.85 163.62 89.04 159.41 91.45 C 156.77 92.95 153.94 94.07 151.19 95.34 C 148.10 96.72 145.69 99.19 142.64 100.62 C 133.14 104.63 122.99 106.67 113.06 109.27 C 106.61 112.14 99.61 113.78 93.55 117.49 C 88.44 120.31 82.45 120.67 77.22 123.19 C 72.77 125.20 68.30 127.18 63.64 128.68 C 57.65 130.58 52.38 134.52 46.02 135.26 C 39.72 135.89 33.37 135.73 27.05 135.69 C 23.56 135.92 19.87 133.48 19.31 129.92 C 18.58 126.32 18.43 122.60 18.80 118.95 C 19.04 115.79 21.94 113.98 24.00 111.96 C 29.19 107.67 31.52 100.30 37.95 97.51 C 39.95 98.79 40.52 101.43 41.79 103.36 C 43.56 107.12 46.99 110.52 46.49 114.97 C 46.35 117.97 45.83 120.94 45.49 123.92 C 47.99 123.69 50.37 122.90 52.47 121.52 C 55.29 119.72 58.64 119.26 61.87 118.68 C 67.35 117.78 72.36 115.26 77.59 113.52 C 83.81 111.43 90.13 109.58 96.25 107.19 C 100.83 105.39 105.75 104.45 110.10 102.10 C 115.46 99.14 121.04 96.59 126.03 93.01 C 135.29 87.88 146.39 87.05 155.40 81.34 C 157.81 79.81 159.95 77.34 163.05 77.44 C 170.00 77.13 176.75 75.28 183.38 73.31 C 186.61 72.43 189.58 69.57 189.47 66.04 C 190.10 60.97 186.56 56.95 183.88 53.09 C 179.30 47.01 175.89 39.98 170.14 34.85 C 164.95 30.14 158.96 26.44 153.59 21.95 C 153.46 17.18 153.35 11.63 157.09 8.07 Z" />
</g>
<g id="#934848fe">
<path fill="#934848" opacity="1.00" d=" M 126.36 11.96 C 127.70 11.43 129.08 11.85 130.13 12.78 C 137.53 18.66 146.89 21.13 154.74 26.28 C 163.37 32.64 173.09 38.77 177.40 49.07 C 177.54 52.41 174.91 54.86 172.17 56.26 C 165.91 60.39 158.32 61.24 151.28 63.34 C 144.24 65.23 138.02 69.45 130.78 70.69 C 123.62 71.90 116.63 73.87 109.66 75.85 C 105.05 77.13 101.10 79.92 96.79 81.90 C 83.11 88.06 69.32 93.97 55.32 99.37 C 51.84 100.56 48.85 103.01 45.26 103.79 C 42.81 100.13 40.74 96.21 38.63 92.34 C 36.73 88.53 37.40 84.10 37.22 79.99 C 37.47 70.83 36.57 61.58 38.18 52.51 C 39.21 46.24 37.79 39.19 41.63 33.67 C 43.84 30.03 47.89 28.33 51.45 26.36 C 56.58 23.69 61.37 20.09 67.19 19.06 C 73.14 17.92 78.82 15.33 84.96 15.27 C 93.95 14.29 103.00 14.87 112.02 14.68 C 116.94 14.64 121.60 12.98 126.36 11.96 Z" />
</g>
<g id="#700000fe">
<path fill="#700000" opacity="1.00" d=" M 167.08 61.81 C 172.01 59.62 176.80 56.81 180.28 52.61 C 183.20 56.75 187.46 61.11 186.62 66.62 C 186.36 69.05 184.10 70.45 181.93 70.98 C 175.43 72.86 168.79 74.36 162.04 74.96 C 158.38 75.17 155.90 78.13 152.88 79.79 C 143.14 85.03 131.42 85.76 122.32 92.32 C 117.35 95.51 111.98 98.02 106.72 100.69 C 94.61 105.02 82.36 108.98 70.26 113.35 C 63.37 116.37 55.53 116.29 48.90 120.02 C 48.86 115.36 48.60 110.67 47.31 106.17 C 59.20 99.91 72.24 96.21 84.30 90.29 C 89.76 87.63 95.56 85.73 100.92 82.86 C 110.94 76.94 122.67 75.25 133.86 72.78 C 139.62 71.36 144.70 68.13 150.35 66.37 C 155.84 64.54 161.63 63.76 167.08 61.81 Z" />
</g>
<g id="#f60000f7">
<path fill="#f60000" opacity="0.97" d=" M 241.63 68.39 C 242.54 68.57 243.45 68.75 244.37 68.93 C 244.20 70.16 244.04 71.40 243.88 72.64 C 242.98 72.64 242.08 72.65 241.19 72.65 C 241.33 71.23 241.48 69.81 241.63 68.39 Z" />
<path fill="#f60000" opacity="0.97" d=" M 272.82 88.23 C 273.59 88.27 275.13 88.34 275.90 88.37 L 275.93 89.14 C 275.95 89.77 276.00 91.01 276.03 91.63 C 274.84 91.50 273.67 91.36 272.49 91.22 C 272.57 90.47 272.74 88.98 272.82 88.23 Z" />
<path fill="#f60000" opacity="0.97" d=" M 297.19 125.21 C 298.81 124.69 299.37 125.24 298.85 126.87 C 297.22 127.39 296.66 126.84 297.19 125.21 Z" />
</g>
<g id="#f50000f6">
<path fill="#f50000" opacity="0.96" d=" M 257.74 68.90 C 258.71 68.76 259.68 68.62 260.66 68.49 C 260.61 69.14 260.53 70.45 260.49 71.10 C 260.44 71.41 260.36 72.02 260.32 72.32 C 259.80 72.51 258.76 72.88 258.24 73.06 C 258.07 71.67 257.90 70.29 257.74 68.90 Z" />
</g>
<g id="#fd0000fe">
<path fill="#fd0000" opacity="1.00" d=" M 290.40 68.61 C 290.98 68.60 292.15 68.57 292.74 68.56 C 293.14 70.23 293.47 71.90 293.77 73.59 C 293.03 73.61 291.54 73.64 290.80 73.66 C 289.73 72.20 290.50 70.28 290.40 68.61 Z" />
<path fill="#fd0000" opacity="1.00" d=" M 225.85 73.51 C 222.88 72.65 225.35 69.14 227.04 68.29 C 228.46 69.76 228.48 71.82 228.76 73.72 C 228.03 73.66 226.58 73.56 225.85 73.51 Z" />
<path fill="#fd0000" opacity="1.00" d=" M 273.22 73.70 C 273.52 71.83 273.63 69.84 274.97 68.37 C 276.98 69.07 278.86 72.43 276.14 73.54 C 275.41 73.58 273.95 73.66 273.22 73.70 Z" />
<path fill="#fd0000" opacity="1.00" d=" M 245.78 110.48 C 246.31 109.14 246.83 107.81 247.37 106.48 C 247.85 107.34 248.81 109.07 249.29 109.93 C 248.11 110.08 246.95 110.29 245.78 110.48 Z" />
</g>
<g id="#eb0000eb">
<path fill="#eb0000" opacity="0.92" d=" M 218.73 70.06 C 219.05 69.54 219.70 68.51 220.02 67.99 C 221.41 71.36 222.78 74.74 224.40 78.00 C 224.29 78.74 224.05 80.22 223.94 80.96 C 222.91 80.77 221.90 80.52 220.90 80.21 C 220.02 76.87 219.02 73.50 218.73 70.06 Z" />
</g>
<g id="#e50000e6">
<path fill="#e50000" opacity="0.90" d=" M 229.19 80.66 C 228.93 76.26 231.90 72.63 233.09 68.54 C 234.50 68.55 235.90 68.77 237.29 69.00 C 237.45 69.89 237.76 71.66 237.92 72.54 C 238.69 75.55 239.61 78.54 239.72 81.67 C 235.50 80.19 236.69 75.04 235.26 71.68 C 232.93 74.08 233.20 77.65 232.42 80.69 C 231.34 80.68 230.26 80.67 229.19 80.66 Z" />
<path fill="#e50000" opacity="0.90" d=" M 290.46 97.76 C 291.44 97.13 292.44 96.52 293.44 95.91 C 293.72 97.43 294.00 98.95 294.29 100.48 C 292.80 99.88 291.20 99.31 290.46 97.76 Z" />
<path fill="#e50000" opacity="0.90" d=" M 246.09 216.25 C 246.49 211.83 247.86 207.46 250.16 203.66 C 250.63 203.59 251.57 203.45 252.04 203.38 C 254.67 206.56 255.15 210.85 256.99 214.45 C 259.54 210.87 258.68 204.16 263.92 203.21 C 265.46 206.87 266.59 210.67 268.06 214.35 C 270.63 210.77 270.51 205.80 274.01 202.79 C 277.41 205.85 277.31 210.79 279.95 214.31 C 281.40 210.78 282.11 206.92 284.12 203.63 C 284.60 203.58 285.56 203.46 286.04 203.40 C 288.82 207.08 289.88 211.74 290.84 216.17 C 288.88 215.20 287.16 213.75 285.05 213.12 C 283.53 213.84 282.21 214.93 280.67 215.63 C 277.98 216.35 276.05 213.94 273.99 212.69 C 272.10 213.78 270.49 215.95 268.10 215.72 C 265.89 215.77 264.51 213.70 262.82 212.61 C 261.37 213.58 259.99 214.68 258.45 215.51 C 255.59 216.57 253.39 213.96 251.19 212.63 C 249.52 213.89 247.85 215.14 246.09 216.25 M 249.95 210.69 C 250.68 210.63 252.14 210.50 252.87 210.43 C 252.59 209.37 252.33 208.30 251.98 207.26 C 250.10 207.29 250.42 209.41 249.95 210.69 M 262.05 207.24 C 261.67 208.28 261.40 209.36 261.10 210.43 C 261.83 210.50 263.29 210.63 264.02 210.70 C 263.55 209.43 263.81 207.43 262.05 207.24 M 273.16 208.19 C 271.66 209.18 273.33 211.71 274.80 210.55 C 276.30 209.56 274.61 207.01 273.16 208.19 M 283.92 210.76 C 284.66 210.68 286.15 210.53 286.89 210.46 C 286.53 209.18 286.15 207.87 284.95 207.13 C 284.56 208.33 284.22 209.53 283.92 210.76 Z" />
</g>
<g id="#70000071">
<path fill="#700000" opacity="0.44" d=" M 244.37 68.93 C 244.92 70.63 245.47 72.34 246.02 74.05 C 246.74 73.41 247.46 72.77 248.18 72.13 C 247.62 74.80 246.57 77.33 245.61 79.87 C 246.50 80.06 248.27 80.45 249.15 80.64 C 248.14 80.88 247.12 81.08 246.10 81.26 C 245.08 79.35 244.41 77.28 243.47 75.32 C 240.96 76.01 240.97 79.67 239.72 81.67 C 239.61 78.54 238.69 75.55 237.92 72.54 C 239.01 72.61 240.10 72.66 241.19 72.65 C 242.08 72.65 242.98 72.64 243.88 72.64 C 244.04 71.40 244.20 70.16 244.37 68.93 Z" />
</g>
<g id="#e30000e4">
<path fill="#e30000" opacity="0.89" d=" M 248.70 68.74 C 250.21 68.68 251.72 68.66 253.23 68.68 L 253.52 69.89 C 254.11 72.77 255.19 75.51 256.27 78.23 C 256.43 78.79 256.75 79.91 256.91 80.46 C 255.77 80.57 254.63 80.68 253.49 80.78 C 252.73 77.72 252.84 74.25 250.68 71.74 C 249.69 74.61 249.34 77.63 249.15 80.64 C 248.27 80.45 246.50 80.06 245.61 79.87 C 246.57 77.33 247.62 74.80 248.18 72.13 C 248.31 71.28 248.57 69.58 248.70 68.74 Z" />
<path fill="#e30000" opacity="0.89" d=" M 280.17 72.70 C 280.97 70.91 281.27 67.74 284.00 68.51 C 285.63 68.11 285.96 70.28 286.50 71.33 C 287.35 74.50 290.04 77.25 289.24 80.72 C 288.06 80.66 286.89 80.60 285.73 80.54 C 285.40 77.43 285.09 74.12 283.07 71.58 C 282.41 74.58 281.81 77.59 281.28 80.61 C 280.12 80.64 278.97 80.67 277.82 80.69 C 276.95 77.69 279.29 75.37 280.17 72.70 Z" />
<path fill="#e30000" opacity="0.89" d=" M 226.13 100.28 C 227.19 95.57 227.98 90.10 232.05 86.95 C 234.46 90.06 235.42 93.89 236.57 97.57 C 236.92 97.60 237.63 97.67 237.98 97.70 C 239.43 94.00 239.85 89.69 243.01 86.88 C 246.35 89.97 246.22 94.90 248.94 98.36 C 250.31 94.42 251.39 90.30 253.94 86.91 C 257.64 89.74 257.81 94.73 260.00 98.53 C 262.10 94.72 262.15 89.59 266.06 86.97 C 268.77 90.88 270.20 95.52 270.79 100.21 C 269.11 99.25 267.56 98.09 265.82 97.25 C 263.63 97.78 262.04 99.65 259.98 100.53 C 257.87 99.58 256.04 98.14 254.11 96.88 C 252.39 98.18 250.67 99.48 248.93 100.74 C 246.91 99.58 245.07 98.12 242.95 97.15 C 240.81 98.00 239.01 99.52 237.04 100.68 C 235.34 99.50 233.75 98.12 231.89 97.19 C 229.81 97.88 228.07 99.29 226.13 100.28 M 230.37 92.27 C 230.38 92.88 230.38 94.10 230.39 94.71 C 230.97 94.73 232.15 94.78 232.74 94.80 C 232.73 94.15 232.73 92.85 232.73 92.20 C 232.14 92.22 230.96 92.25 230.37 92.27 M 242.12 92.31 C 240.59 93.31 242.34 95.80 243.79 94.63 C 245.30 93.62 243.56 91.15 242.12 92.31 M 253.30 92.36 C 251.91 93.61 253.99 96.21 255.34 94.63 C 256.67 93.36 254.68 90.78 253.30 92.36 M 264.37 92.27 C 264.37 92.88 264.37 94.10 264.38 94.71 C 264.95 94.72 266.11 94.75 266.69 94.76 C 266.69 94.13 266.70 92.86 266.71 92.23 C 266.12 92.24 264.95 92.26 264.37 92.27 Z" />
</g>
<g id="#66000067">
<path fill="#660000" opacity="0.40" d=" M 255.72 73.99 C 256.43 72.31 257.09 70.61 257.74 68.90 C 257.90 70.29 258.07 71.67 258.24 73.06 C 258.76 72.88 259.80 72.51 260.32 72.32 C 260.36 72.02 260.44 71.41 260.49 71.10 C 261.63 71.92 262.77 72.74 263.94 73.53 C 263.18 76.17 262.43 78.84 262.29 81.61 C 261.41 79.46 260.55 77.31 259.68 75.17 C 258.54 76.19 257.41 77.22 256.27 78.23 C 255.19 75.51 254.11 72.77 253.52 69.89 C 254.26 71.25 254.98 72.63 255.72 73.99 Z" />
</g>
<g id="#f20000f3">
<path fill="#f20000" opacity="0.95" d=" M 264.73 69.21 C 266.54 68.46 268.43 68.73 270.18 69.52 C 269.48 73.71 274.29 76.60 272.71 80.66 C 271.70 80.64 270.70 80.63 269.71 80.61 C 269.21 77.91 268.62 75.22 268.27 72.49 C 267.84 72.44 266.98 72.34 266.55 72.28 C 265.48 75.58 266.43 80.35 262.29 81.61 C 262.43 78.84 263.18 76.17 263.94 73.53 C 264.27 72.10 264.53 70.66 264.73 69.21 Z" />
<path fill="#f20000" opacity="0.95" d=" M 251.64 113.75 C 252.66 115.22 253.66 116.69 254.66 118.18 C 253.54 118.39 252.41 118.58 251.29 118.77 C 251.32 118.32 251.38 117.43 251.40 116.98 C 251.46 116.18 251.58 114.56 251.64 113.75 Z" />
<path fill="#f20000" opacity="0.95" d=" M 249.87 143.87 C 250.75 143.55 251.63 143.27 252.54 143.04 C 254.13 146.67 255.23 150.49 256.99 154.05 C 258.81 150.69 259.80 146.99 261.13 143.43 C 261.81 143.39 263.18 143.33 263.86 143.30 C 265.70 146.81 266.26 150.90 268.62 154.14 C 270.04 150.68 270.77 146.94 272.65 143.68 C 273.53 143.01 275.31 143.06 275.67 144.33 C 277.27 147.32 277.98 150.66 279.16 153.82 C 281.88 151.12 281.93 147.02 283.86 143.86 C 284.73 143.55 285.61 143.28 286.50 143.05 C 288.26 147.24 290.24 151.46 290.73 156.03 C 288.81 154.82 287.14 153.22 285.05 152.31 C 283.05 153.40 281.53 155.73 279.05 155.62 C 277.19 154.72 275.63 153.32 273.97 152.13 C 272.47 153.24 271.05 154.46 269.45 155.42 C 266.66 156.36 264.86 153.57 262.95 152.11 C 260.69 153.24 258.87 155.99 256.10 155.47 C 254.33 154.47 252.74 153.21 251.05 152.10 C 249.50 153.41 247.95 154.73 246.33 155.96 C 246.21 151.68 247.97 147.60 249.87 143.87 M 250.31 147.29 C 250.30 148.43 250.31 149.57 250.31 150.72 C 250.87 150.65 251.99 150.52 252.55 150.45 C 252.55 149.47 252.56 148.49 252.57 147.50 C 252.01 147.45 250.87 147.34 250.31 147.29 M 261.39 147.42 C 261.40 148.46 261.42 149.50 261.43 150.54 C 261.99 150.56 263.11 150.61 263.67 150.63 C 263.67 149.55 263.67 148.46 263.68 147.38 C 263.11 147.39 261.97 147.41 261.39 147.42 M 272.88 147.36 C 272.12 149.04 272.64 151.54 274.99 150.60 C 275.93 148.83 275.32 146.39 272.88 147.36 M 284.26 147.29 C 284.26 148.43 284.27 149.57 284.29 150.72 C 284.85 150.65 285.97 150.52 286.53 150.45 C 286.54 149.46 286.56 148.48 286.59 147.50 C 286.00 147.45 284.84 147.34 284.26 147.29 Z" />
</g>
<g id="#e10000e2">
<path fill="#e10000" opacity="0.89" d=" M 293.83 78.04 C 295.43 75.07 296.66 71.95 297.88 68.81 C 298.37 68.76 299.34 68.66 299.82 68.62 C 299.48 72.61 298.71 76.59 297.33 80.36 C 296.34 80.60 295.34 80.80 294.34 80.95 C 294.21 80.22 293.96 78.77 293.83 78.04 Z" />
</g>
<g id="#fefefefe">
<path fill="#fefefe" opacity="1.00" d=" M 183.31 83.97 C 188.07 82.86 192.08 80.08 196.37 77.91 C 196.82 80.47 197.14 83.05 197.51 85.62 C 192.62 85.30 187.60 85.06 182.85 86.54 C 176.66 88.11 170.77 90.74 165.25 93.95 C 165.36 93.40 165.56 92.31 165.67 91.76 C 171.77 89.62 176.94 85.40 183.31 83.97 Z" />
<path fill="#fefefe" opacity="1.00" d=" M 119.23 110.46 C 127.98 108.77 136.49 106.02 144.74 102.70 C 144.70 105.39 144.30 108.11 144.72 110.79 C 145.71 112.39 146.89 113.85 147.95 115.40 C 142.30 115.08 136.60 115.81 131.01 114.84 C 127.14 114.13 122.76 115.45 119.44 112.78 C 119.39 112.20 119.29 111.04 119.23 110.46 Z" />
<path fill="#fefefe" opacity="1.00" d=" M 190.01 194.92 C 190.70 192.85 192.40 191.44 193.97 190.03 C 195.44 191.48 197.18 192.74 198.23 194.55 C 198.77 196.79 199.20 199.05 199.68 201.31 C 197.63 201.67 195.31 201.15 193.48 202.27 C 185.47 207.80 178.17 214.42 169.45 218.88 C 169.78 213.69 168.56 208.05 171.44 203.36 C 172.40 201.11 174.80 200.17 177.02 199.63 C 180.44 199.85 182.01 203.29 184.03 205.54 C 185.62 201.76 188.55 198.76 190.01 194.92 Z" />
</g>
<g id="#c9cacafe">
<path fill="#c9caca" opacity="1.00" d=" M 196.37 77.91 C 197.08 78.44 197.79 78.96 198.51 79.49 C 198.73 81.76 197.19 84.88 199.61 86.33 C 202.02 87.76 203.10 90.31 203.74 92.91 C 200.57 92.30 198.37 89.85 198.33 86.57 C 194.64 86.51 190.95 86.38 187.26 86.36 L 187.29 88.48 C 189.64 88.53 192.00 88.59 194.34 88.89 L 193.42 89.01 C 191.54 89.19 189.67 89.42 187.80 89.63 C 187.54 89.66 187.00 89.72 186.74 89.75 C 186.70 88.95 186.62 87.33 186.58 86.53 C 185.65 86.53 183.79 86.53 182.85 86.54 C 187.60 85.06 192.62 85.30 197.51 85.62 C 197.14 83.05 196.82 80.47 196.37 77.91 Z" />
<path fill="#c9caca" opacity="1.00" d=" M 207.15 95.01 C 210.26 96.66 212.23 99.75 212.90 103.16 C 209.98 101.32 207.75 98.45 207.15 95.01 Z" />
<path fill="#c9caca" opacity="1.00" d=" M 65.56 149.71 C 65.83 149.55 66.36 149.22 66.63 149.05 C 66.30 154.87 67.55 160.87 65.45 166.48 C 65.25 160.89 65.41 155.30 65.56 149.71 Z" />
</g>
<g id="#b10000b2">
<path fill="#b10000" opacity="0.70" d=" M 279.21 94.34 C 279.58 91.87 280.02 89.40 280.96 87.07 C 283.23 91.17 283.04 96.65 281.12 100.83 C 278.18 99.47 277.34 96.04 275.57 93.59 C 274.98 95.96 276.21 99.99 272.58 99.92 C 272.47 97.02 272.46 94.12 272.49 91.22 C 273.67 91.36 274.84 91.50 276.03 91.63 C 276.00 91.01 275.95 89.77 275.93 89.14 C 277.01 90.88 278.09 92.63 279.21 94.34 M 279.25 96.41 C 277.78 97.42 279.45 99.93 280.91 98.79 C 282.38 97.79 280.70 95.27 279.25 96.41 Z" />
<path fill="#b10000" opacity="0.70" d=" M 245.44 106.45 C 245.99 106.29 247.09 105.97 247.64 105.81 L 247.37 106.48 C 246.83 107.81 246.31 109.14 245.78 110.48 C 246.95 110.29 248.11 110.08 249.29 109.93 C 250.33 110.61 251.25 111.44 252.21 112.21 C 252.28 110.22 252.33 108.22 252.41 106.23 C 252.94 106.33 254.01 106.54 254.55 106.64 C 254.67 110.48 254.58 114.33 254.66 118.18 C 253.66 116.69 252.66 115.22 251.64 113.75 C 251.58 114.56 251.46 116.18 251.40 116.98 C 250.10 115.29 248.85 113.56 247.59 111.83 C 247.51 114.06 247.51 116.30 247.32 118.53 C 246.71 118.47 245.49 118.35 244.88 118.29 C 244.44 114.33 245.04 110.38 245.44 106.45 Z" />
</g>
<g id="#b90000b9">
<path fill="#b90000" opacity="0.73" d=" M 285.34 88.05 C 285.76 87.91 286.60 87.62 287.02 87.48 C 288.87 89.65 290.17 92.23 292.03 94.41 C 292.20 92.35 292.29 90.28 292.39 88.21 C 292.97 88.22 294.13 88.24 294.71 88.26 C 294.72 92.33 294.74 96.42 294.29 100.48 C 294.00 98.95 293.72 97.43 293.44 95.91 C 292.44 96.52 291.44 97.13 290.46 97.76 C 289.62 96.29 288.69 94.88 287.72 93.51 C 287.05 95.83 288.49 100.15 284.87 100.12 C 284.66 96.10 284.36 91.99 285.34 88.05 M 286.15 89.21 C 284.68 90.20 286.36 92.72 287.81 91.57 C 289.29 90.57 287.61 88.05 286.15 89.21 Z" />
</g>
<g id="#f9d7d7fe">
<path fill="#f9d7d7" opacity="1.00" d=" M 187.80 89.63 C 189.67 89.42 191.54 89.19 193.42 89.01 C 196.66 90.33 198.95 93.17 201.72 95.24 C 206.35 98.71 207.39 104.80 210.89 109.18 C 212.23 111.37 214.80 113.14 214.53 115.99 C 214.64 118.07 214.63 120.16 214.41 122.24 C 211.10 119.64 209.83 115.60 207.98 112.01 C 205.62 107.21 200.53 104.54 198.15 99.75 C 196.24 94.93 190.48 93.88 187.80 89.63 Z" />
</g>
<g id="#f70000f8">
<path fill="#f70000" opacity="0.97" d=" M 286.15 89.21 C 287.61 88.05 289.29 90.57 287.81 91.57 C 286.36 92.72 284.68 90.20 286.15 89.21 Z" />
</g>
<g id="#7c6c6cfe">
<path fill="#7c6c6c" opacity="1.00" d=" M 173.66 93.49 C 177.47 92.10 181.62 89.01 185.74 91.21 C 185.08 92.70 184.43 94.20 183.72 95.68 C 182.17 95.70 180.62 95.72 179.08 95.75 C 180.58 95.01 182.08 94.27 183.57 93.48 C 181.14 93.11 178.73 93.54 176.55 94.63 C 175.59 94.23 174.63 93.85 173.66 93.49 Z" />
</g>
<g id="#dcbcbcfe">
<path fill="#dcbcbc" opacity="1.00" d=" M 183.72 95.68 C 184.43 94.20 185.08 92.70 185.74 91.21 C 187.72 93.60 190.06 95.66 192.68 97.33 C 194.99 98.75 195.84 101.49 197.48 103.51 C 199.60 106.15 202.34 108.23 204.45 110.89 C 203.76 111.54 203.07 112.19 202.38 112.83 C 202.12 112.36 201.60 111.43 201.34 110.97 C 197.66 112.74 193.58 112.72 189.61 112.38 C 189.51 109.09 189.46 105.80 189.38 102.52 C 188.39 102.39 187.41 102.26 186.43 102.13 C 186.44 103.46 186.45 104.78 186.48 106.10 C 185.52 104.58 184.49 103.11 183.45 101.64 C 183.18 106.63 182.11 112.87 186.53 116.46 C 191.29 120.67 198.12 118.66 203.26 116.30 C 205.89 120.00 209.02 123.60 210.14 128.11 C 210.86 131.81 209.95 136.50 206.38 138.45 C 202.88 140.22 198.83 140.14 195.01 140.18 C 189.71 140.04 184.37 139.83 179.15 138.78 C 173.68 137.75 170.73 132.46 167.52 128.46 C 163.88 124.12 163.80 117.91 165.79 112.83 C 169.39 104.93 178.38 102.03 183.72 95.68 Z" />
<path fill="#dcbcbc" opacity="1.00" d=" M 98.81 126.67 C 102.55 123.74 106.69 119.71 111.89 120.91 C 116.61 122.01 122.72 123.15 124.58 128.33 C 125.93 131.71 128.55 134.27 130.63 137.18 C 129.47 141.84 125.33 144.84 122.76 148.70 C 119.54 153.04 116.71 158.83 110.96 160.10 C 106.30 160.39 100.71 160.50 97.07 157.11 C 95.65 154.08 95.40 150.58 95.51 147.28 C 99.32 144.28 105.45 143.21 106.67 137.76 C 106.90 132.76 102.27 129.50 98.81 126.67 Z" />
</g>
<g id="#41000042">
<path fill="#410000" opacity="0.26" d=" M 242.12 92.31 C 243.56 91.15 245.30 93.62 243.79 94.63 C 242.34 95.80 240.59 93.31 242.12 92.31 Z" />
<path fill="#410000" opacity="0.26" d=" M 253.30 92.36 C 254.68 90.78 256.67 93.36 255.34 94.63 C 253.99 96.21 251.91 93.61 253.30 92.36 Z" />
</g>
<g id="#5d5f5ffe">
<path fill="#5d5f5f" opacity="1.00" d=" M 160.07 92.81 C 160.80 92.89 162.26 93.06 162.99 93.14 C 162.73 94.29 162.48 95.44 162.24 96.59 C 161.41 96.50 159.75 96.30 158.92 96.21 C 159.30 95.08 159.68 93.94 160.07 92.81 Z" />
</g>
<g id="#fcdadafe">
<path fill="#fcdada" opacity="1.00" d=" M 166.05 97.05 C 168.12 95.23 170.60 92.45 173.66 93.49 C 174.63 93.85 175.59 94.23 176.55 94.63 C 171.98 98.67 166.84 102.17 162.92 106.90 C 161.03 109.00 160.16 112.72 156.79 112.75 C 159.12 107.15 161.31 101.11 166.05 97.05 Z" />
</g>
<g id="#f1ceceff">
<path fill="#f1cece" opacity="1.00" d=" M 161.77 113.74 C 165.09 105.74 173.31 101.73 179.08 95.75 C 180.62 95.72 182.17 95.70 183.72 95.68 C 178.38 102.03 169.39 104.93 165.79 112.83 C 163.80 117.91 163.88 124.12 167.52 128.46 C 170.73 132.46 173.68 137.75 179.15 138.78 C 184.37 139.83 189.71 140.04 195.01 140.18 C 198.83 140.14 202.88 140.22 206.38 138.45 C 209.95 136.50 210.86 131.81 210.14 128.11 C 209.02 123.60 205.89 120.00 203.26 116.30 C 198.12 118.66 191.29 120.67 186.53 116.46 C 182.11 112.87 183.18 106.63 183.45 101.64 C 184.49 103.11 185.52 104.58 186.48 106.10 C 186.55 108.43 186.44 110.76 186.34 113.09 C 190.97 116.20 198.23 117.27 202.38 112.83 C 203.07 112.19 203.76 111.54 204.45 110.89 C 205.71 113.55 206.83 116.29 208.27 118.87 C 209.64 121.31 212.02 123.01 213.39 125.46 C 213.66 129.26 214.46 133.65 211.94 136.90 C 209.25 140.69 204.90 143.95 200.04 143.52 C 191.69 143.41 182.95 144.31 175.13 140.72 C 171.58 139.13 169.45 135.72 167.23 132.71 C 165.48 130.20 163.32 128.02 161.62 125.48 C 161.24 121.60 161.11 117.58 161.77 113.74 Z" />
</g>
<g id="#ee0000ef">
<path fill="#ee0000" opacity="0.94" d=" M 279.25 96.41 C 280.70 95.27 282.38 97.79 280.91 98.79 C 279.45 99.93 277.78 97.42 279.25 96.41 Z" />
</g>
<g id="#f7f7f7ff">
<path fill="#f7f7f7" opacity="1.00" d=" M 152.55 98.59 C 153.23 98.51 154.61 98.35 155.30 98.27 C 154.54 100.60 153.43 102.78 152.54 105.06 C 152.11 107.51 152.23 110.02 152.22 112.51 C 151.08 112.51 149.94 112.52 148.81 112.52 C 148.49 111.90 147.86 110.65 147.54 110.02 C 149.18 108.02 150.97 106.13 152.26 103.88 C 152.51 102.13 152.47 100.35 152.55 98.59 Z" />
</g>
<g id="#818282fe">
<path fill="#818282" opacity="1.00" d=" M 146.24 105.71 C 147.09 103.15 147.46 99.69 150.62 98.98 C 150.86 101.91 150.35 106.56 146.24 105.71 Z" />
</g>
<g id="#4e5050fe">
<path fill="#4e5050" opacity="1.00" d=" M 154.62 109.68 C 154.71 105.61 156.76 101.85 160.16 99.61 C 159.11 103.31 158.01 107.40 154.62 109.68 Z" />
</g>
<g id="#1a1818fe">
<path fill="#1a1818" opacity="1.00" d=" M 186.43 102.13 C 187.41 102.26 188.39 102.39 189.38 102.52 C 189.46 105.80 189.51 109.09 189.61 112.38 C 193.58 112.72 197.66 112.74 201.34 110.97 C 201.60 111.43 202.12 112.36 202.38 112.83 C 198.23 117.27 190.97 116.20 186.34 113.09 C 186.44 110.76 186.55 108.43 186.48 106.10 C 186.45 104.78 186.44 103.46 186.43 102.13 Z" />
</g>
<g id="#c50000c5">
<path fill="#c50000" opacity="0.77" d=" M 232.91 106.32 C 233.57 106.37 234.89 106.46 235.55 106.51 C 236.75 108.81 237.99 111.11 239.38 113.31 C 239.64 111.27 239.86 109.24 240.13 107.20 C 240.72 107.22 241.92 107.25 242.51 107.26 C 242.46 111.23 242.39 115.20 242.22 119.16 C 241.71 119.24 240.71 119.39 240.20 119.47 C 238.60 116.91 237.17 114.24 235.52 111.71 C 235.35 113.92 235.29 116.13 235.07 118.33 C 234.46 118.35 233.24 118.40 232.63 118.42 C 232.24 114.39 232.53 110.34 232.91 106.32 Z" />
</g>
<g id="#f40000f5">
<path fill="#f40000" opacity="0.96" d=" M 257.62 106.45 C 258.49 106.51 259.35 106.57 260.22 106.63 C 260.48 107.19 260.99 108.32 261.25 108.88 C 260.08 109.77 258.90 110.66 257.93 111.76 C 257.47 114.06 258.58 116.29 259.22 118.45 L 259.41 119.00 C 258.94 118.83 258.01 118.51 257.54 118.34 C 257.45 114.38 257.55 110.42 257.62 106.45 Z" />
</g>
<g id="#d00000d1">
<path fill="#d00000" opacity="0.82" d=" M 269.64 106.66 C 270.51 106.57 271.38 106.47 272.25 106.38 C 272.41 107.73 272.58 109.09 272.77 110.44 C 274.97 108.76 276.94 106.52 279.82 106.05 C 278.82 108.07 277.01 109.73 276.47 111.93 C 277.65 114.16 278.99 116.31 280.02 118.62 C 276.48 119.23 275.72 115.01 273.08 113.60 C 272.78 115.26 272.48 116.92 272.26 118.59 C 271.37 118.58 270.48 118.58 269.59 118.59 C 269.64 114.61 269.62 110.63 269.64 106.66 Z" />
</g>
<g id="#be0000bf">
<path fill="#be0000" opacity="0.75" d=" M 281.66 107.40 C 282.38 106.95 283.11 106.51 283.85 106.07 C 284.38 107.35 284.73 108.70 285.41 109.92 C 287.61 108.73 289.31 106.44 291.97 105.94 C 291.04 108.02 289.83 109.94 288.59 111.85 C 290.22 114.06 291.71 116.45 292.02 119.25 C 289.42 118.17 287.75 115.86 285.75 114.00 C 286.34 113.20 286.94 112.41 287.53 111.62 C 285.89 110.69 284.37 109.56 282.94 108.33 C 282.99 111.55 283.03 114.78 283.01 118.00 C 283.74 116.90 284.47 115.80 285.24 114.72 C 284.95 116.08 284.67 117.45 284.41 118.82 C 283.52 118.66 282.64 118.50 281.76 118.35 C 281.72 114.70 281.66 111.05 281.66 107.40 Z" />
<path fill="#be0000" opacity="0.75" d=" M 292.36 230.33 C 293.78 230.32 295.20 230.32 296.63 230.32 C 296.62 230.97 296.59 232.27 296.58 232.91 C 295.20 232.89 293.82 232.87 292.44 232.84 C 292.42 232.21 292.38 230.96 292.36 230.33 Z" />
</g>
<g id="#ea0000ea">
<path fill="#ea0000" opacity="0.92" d=" M 294.50 106.70 C 294.95 106.60 295.84 106.40 296.29 106.30 C 296.74 107.83 297.23 109.35 297.72 110.87 C 299.73 108.85 301.58 106.21 304.75 106.18 C 303.38 108.10 301.91 109.95 300.44 111.80 C 302.12 113.91 303.67 116.13 305.01 118.48 C 304.32 118.52 302.95 118.59 302.26 118.63 C 300.76 117.16 300.14 113.19 297.51 114.30 C 297.05 115.75 296.74 117.24 296.41 118.72 C 295.92 118.65 294.93 118.51 294.44 118.43 C 294.39 114.52 294.38 110.61 294.50 106.70 Z" />
</g>
<g id="#92000093">
<path fill="#920000" opacity="0.58" d=" M 264.56 106.56 C 265.23 106.59 266.57 106.65 267.25 106.68 C 267.39 110.95 267.26 115.23 266.59 119.45 C 263.15 118.88 262.12 115.38 260.57 112.77 C 260.14 114.66 259.70 116.56 259.22 118.45 C 258.58 116.29 257.47 114.06 257.93 111.76 C 258.90 110.66 260.08 109.77 261.25 108.88 C 262.27 110.30 263.27 111.74 264.31 113.15 C 264.40 110.96 264.47 108.76 264.56 106.56 M 264.16 115.28 C 262.71 116.28 264.36 118.82 265.82 117.69 C 267.25 116.68 265.62 114.15 264.16 115.28 Z" />
</g>
<g id="#e40000e4">
<path fill="#e40000" opacity="0.89" d=" M 282.94 108.33 C 284.37 109.56 285.89 110.69 287.53 111.62 C 286.94 112.41 286.34 113.20 285.75 114.00 L 285.24 114.72 C 284.47 115.80 283.74 116.90 283.01 118.00 C 283.03 114.78 282.99 111.55 282.94 108.33 Z" />
</g>
<g id="#f6f6f6fe">
<path fill="#f6f6f6" opacity="1.00" d=" M 108.58 114.25 C 110.74 112.83 113.14 111.84 115.63 111.16 C 116.39 112.25 117.15 113.35 117.90 114.46 C 114.79 114.52 111.67 114.55 108.58 114.25 Z" />
<path fill="#f6f6f6" opacity="1.00" d=" M 224.78 131.48 C 227.73 134.78 229.06 139.10 230.97 143.01 C 232.77 146.42 232.58 150.34 232.54 154.07 C 231.95 152.60 231.36 151.12 230.80 149.63 C 228.60 143.64 226.61 137.59 224.78 131.48 Z" />
</g>
<g id="#f30000f4">
<path fill="#f30000" opacity="0.96" d=" M 264.16 115.28 C 265.62 114.15 267.25 116.68 265.82 117.69 C 264.36 118.82 262.71 116.28 264.16 115.28 Z" />
<path fill="#f30000" opacity="0.96" d=" M 249.91 163.93 C 250.75 163.61 251.61 163.33 252.48 163.09 C 254.18 166.68 255.27 170.51 256.69 174.21 C 259.31 171.02 259.54 166.67 261.46 163.10 C 262.35 163.33 263.23 163.60 264.11 163.91 C 265.88 167.18 266.58 170.88 268.05 174.28 C 270.21 170.96 271.00 167.02 272.56 163.43 C 273.49 163.43 274.43 163.44 275.37 163.45 C 276.89 166.97 278.00 170.63 279.23 174.26 C 282.49 171.01 281.28 164.56 286.13 162.93 C 288.32 167.03 290.15 171.43 290.74 176.07 C 288.76 174.90 286.92 173.52 285.03 172.22 C 283.56 173.30 282.40 174.99 280.63 175.54 C 277.84 176.25 276.02 173.58 273.99 172.21 C 272.51 173.32 271.12 174.58 269.50 175.50 C 266.78 176.33 265.03 173.67 262.95 172.49 C 260.61 173.00 259.14 175.31 257.01 176.35 C 254.94 175.16 253.24 173.39 251.06 172.37 C 249.43 173.51 247.93 174.82 246.32 175.99 C 246.27 171.73 247.93 167.63 249.91 163.93 M 250.34 167.40 C 250.31 168.51 250.28 169.62 250.25 170.73 C 250.83 170.68 251.99 170.58 252.57 170.53 C 252.57 169.51 252.57 168.49 252.58 167.47 C 252.02 167.45 250.90 167.42 250.34 167.40 M 261.39 167.45 C 261.40 168.48 261.41 169.51 261.42 170.55 C 262.00 170.59 263.16 170.68 263.74 170.72 C 263.71 169.62 263.68 168.51 263.66 167.41 C 263.09 167.42 261.96 167.44 261.39 167.45 M 272.96 167.40 C 271.95 169.14 272.69 171.64 275.09 170.65 C 275.86 168.91 275.36 166.44 272.96 167.40 M 284.27 167.31 C 284.27 168.45 284.27 169.60 284.27 170.74 C 284.84 170.69 285.99 170.58 286.56 170.52 C 286.55 169.52 286.55 168.52 286.55 167.53 C 285.98 167.47 284.84 167.37 284.27 167.31 Z" />
</g>
<g id="#f0cdcdfe">
<path fill="#f0cdcd" opacity="1.00" d=" M 83.75 128.24 C 88.86 122.71 95.70 119.23 102.61 116.46 C 98.53 121.21 91.71 122.98 88.66 128.70 C 86.49 133.39 84.87 139.35 87.89 144.05 C 91.16 149.46 88.60 156.96 93.51 161.49 C 97.47 165.58 103.65 166.09 109.02 166.52 C 114.38 167.23 118.00 162.70 121.53 159.47 C 124.58 156.75 126.11 152.85 128.85 149.87 C 131.80 146.57 134.26 142.87 136.33 138.97 C 136.24 142.59 135.40 146.25 133.29 149.25 C 130.10 153.77 127.27 158.52 123.95 162.94 C 121.61 166.05 119.86 169.70 116.79 172.20 C 112.28 173.13 107.59 172.46 103.01 172.59 C 99.51 172.35 95.83 172.84 92.50 171.55 C 89.47 169.66 87.98 166.17 86.85 162.94 C 85.45 158.40 83.52 153.89 83.62 149.05 C 83.64 142.11 83.31 135.17 83.75 128.24 Z" />
</g>
<g id="#fee9e9fe">
<path fill="#fee9e9" opacity="1.00" d=" M 153.05 118.30 C 154.79 117.33 156.59 116.46 158.40 115.61 C 158.37 119.18 158.45 122.74 158.38 126.31 C 155.85 124.23 154.03 121.41 153.05 118.30 Z" />
</g>
<g id="#f1cecefe">
<path fill="#f1cece" opacity="1.00" d=" M 106.44 117.63 C 112.03 116.50 117.29 118.83 122.39 120.78 C 126.55 123.23 127.99 128.15 129.76 132.34 C 131.12 132.59 132.49 132.84 133.86 133.11 C 134.32 138.95 130.91 144.02 126.94 147.94 C 123.93 150.75 122.75 154.97 119.53 157.58 C 117.22 159.51 115.46 162.31 112.53 163.37 C 107.72 164.05 102.77 163.19 98.20 161.66 C 95.72 160.35 93.15 157.96 93.40 154.90 C 93.25 151.43 92.14 148.12 91.32 144.77 C 95.58 142.94 100.51 142.26 103.73 138.61 C 103.59 135.62 102.57 132.49 99.89 130.85 C 97.14 130.69 93.81 129.51 91.74 131.98 C 94.51 133.37 97.57 133.91 100.55 134.66 C 100.51 135.86 100.52 137.07 100.33 138.27 C 96.73 140.22 92.67 141.70 88.53 141.62 C 88.39 134.99 90.66 127.21 96.99 123.98 C 100.42 122.28 103.14 119.51 106.44 117.63 M 98.81 126.67 C 102.27 129.50 106.90 132.76 106.67 137.76 C 105.45 143.21 99.32 144.28 95.51 147.28 C 95.40 150.58 95.65 154.08 97.07 157.11 C 100.71 160.50 106.30 160.39 110.96 160.10 C 116.71 158.83 119.54 153.04 122.76 148.70 C 125.33 144.84 129.47 141.84 130.63 137.18 C 128.55 134.27 125.93 131.71 124.58 128.33 C 122.72 123.15 116.61 122.01 111.89 120.91 C 106.69 119.71 102.55 123.74 98.81 126.67 Z" />
</g>
<g id="#f7d5d5fe">
<path fill="#f7d5d5" opacity="1.00" d=" M 125.51 117.50 C 129.53 117.47 133.54 117.69 137.56 117.58 C 137.52 120.37 137.65 123.17 137.30 125.95 C 136.30 126.59 135.16 126.95 134.05 127.37 C 132.86 127.79 131.67 128.21 130.48 128.63 C 130.41 127.95 130.33 127.26 130.25 126.58 C 131.25 126.55 133.27 126.47 134.28 126.44 C 132.30 122.58 128.23 120.70 125.51 117.50 Z" />
</g>
<g id="#fdfdfdfe">
<path fill="#fdfdfd" opacity="1.00" d=" M 140.52 117.70 C 141.95 117.64 143.40 117.50 144.84 117.67 C 148.71 120.25 152.47 122.97 155.35 126.68 C 160.35 130.67 163.47 136.57 168.90 140.07 C 172.36 142.60 176.32 144.33 180.38 145.64 C 185.70 147.32 190.52 150.22 195.17 153.22 C 194.02 153.80 192.84 155.21 191.50 154.24 C 182.68 150.04 174.65 143.81 164.93 141.75 C 159.81 141.49 154.49 140.67 149.48 142.14 C 142.48 143.73 137.28 149.34 133.43 155.08 C 135.08 151.53 137.35 148.27 138.50 144.49 C 139.85 140.83 139.27 136.87 138.84 133.09 C 141.61 128.39 140.50 122.86 140.52 117.70 Z" />
<path fill="#fdfdfd" opacity="1.00" d=" M 217.25 138.93 C 217.85 132.55 216.67 126.08 217.79 119.73 C 220.29 124.51 221.19 129.90 223.13 134.91 C 224.71 141.15 227.74 146.96 228.75 153.36 C 230.30 160.80 231.79 168.35 231.43 176.00 C 231.07 182.34 232.15 188.61 232.53 194.93 C 233.08 200.88 234.79 206.72 234.40 212.75 C 230.31 215.89 229.82 221.23 227.57 225.53 C 225.70 230.26 224.60 235.27 222.68 240.00 L 102.25 240.00 C 98.28 238.50 94.63 236.27 91.11 233.93 C 89.20 232.71 88.53 230.40 87.32 228.60 C 85.68 225.69 82.83 223.82 80.41 221.62 C 80.45 217.07 80.22 212.44 78.53 208.16 C 76.36 203.03 74.51 197.75 73.02 192.39 C 72.35 188.06 71.43 183.77 69.51 179.81 C 68.98 169.06 70.48 158.31 69.41 147.57 C 69.40 145.36 71.36 144.16 72.81 142.85 C 75.90 140.29 78.08 136.87 80.42 133.67 C 81.53 141.92 79.25 150.55 82.25 158.53 C 83.94 163.76 85.49 169.43 89.65 173.30 C 92.80 175.99 97.20 175.22 101.01 175.50 C 106.33 175.44 111.67 175.82 116.96 175.35 C 121.91 172.74 124.13 167.24 127.24 162.90 C 127.36 163.34 127.59 164.22 127.71 164.66 C 127.09 171.02 125.41 177.22 124.29 183.51 C 122.90 188.61 124.32 193.99 122.83 199.07 C 121.62 206.48 118.50 213.40 115.02 219.98 C 113.60 222.76 109.66 226.09 112.99 228.99 C 118.06 232.87 124.63 234.85 131.01 234.61 C 135.72 234.56 140.22 236.49 144.92 236.40 C 147.82 235.00 149.80 232.31 152.53 230.67 C 154.98 229.62 157.73 229.50 160.17 228.41 C 165.40 226.25 169.31 221.98 174.18 219.22 C 181.52 215.11 187.66 209.24 194.73 204.73 C 200.40 203.94 206.23 204.73 211.90 203.66 C 216.83 203.14 220.33 198.54 221.32 193.97 C 221.60 189.97 221.44 185.94 221.43 181.94 C 221.66 178.61 219.28 176.02 217.58 173.43 C 212.83 166.67 209.99 158.58 203.82 152.85 C 209.35 149.41 214.01 144.57 217.25 138.93 Z" />
<path fill="#fdfdfd" opacity="1.00" d=" M 76.74 126.80 C 78.89 125.02 81.47 123.87 84.13 123.08 C 80.88 128.24 78.37 134.35 73.27 137.95 C 73.48 135.91 74.36 134.08 75.14 132.21 C 75.91 130.47 75.36 128.29 76.74 126.80 Z" />
<path fill="#fdfdfd" opacity="1.00" d=" M 144.74 146.60 C 149.23 145.42 153.86 142.55 158.57 144.30 C 158.60 148.91 158.76 153.52 158.49 158.13 C 155.37 157.42 152.36 156.11 149.74 154.28 C 147.80 151.91 146.31 149.21 144.74 146.60 Z" />
<path fill="#fdfdfd" opacity="1.00" d=" M 161.38 144.39 C 170.34 144.06 177.73 149.76 185.16 153.90 C 190.28 157.10 196.36 158.08 201.63 160.96 C 201.61 160.33 201.58 159.09 201.56 158.46 C 199.64 157.25 197.73 156.00 195.85 154.70 C 196.64 154.44 198.22 153.91 199.01 153.65 C 206.26 156.33 208.72 164.41 212.50 170.42 C 214.61 174.55 218.92 177.96 218.58 183.00 C 218.28 188.27 220.10 194.67 215.90 198.85 C 212.37 202.39 207.00 201.32 202.50 201.54 C 200.95 197.02 201.24 192.18 202.46 187.62 C 203.12 187.32 204.45 186.71 205.11 186.41 C 208.91 188.61 212.31 191.42 216.10 193.63 C 215.43 188.47 209.95 185.85 205.59 184.29 C 201.25 183.08 199.39 187.69 198.76 191.09 C 197.34 189.57 196.07 187.91 195.01 186.12 C 192.36 181.65 188.40 178.08 184.06 175.28 C 177.72 177.36 173.39 182.55 168.91 187.17 C 166.94 185.87 164.98 184.54 162.98 183.28 C 158.99 185.77 154.98 188.81 153.17 193.31 C 151.74 196.86 150.16 200.35 148.36 203.73 C 149.16 203.68 150.76 203.57 151.56 203.51 C 153.24 200.37 154.53 197.05 155.92 193.77 C 157.29 190.58 160.19 188.49 162.77 186.33 C 164.98 187.54 167.32 190.91 170.10 189.19 C 174.89 185.71 178.13 180.21 183.93 178.13 C 187.20 180.83 190.17 183.87 192.99 187.03 C 188.84 190.40 186.88 195.36 184.38 199.90 C 182.49 199.08 180.71 198.00 178.74 197.40 C 175.37 196.74 171.87 198.18 169.57 200.62 C 167.13 204.89 166.51 209.91 166.47 214.75 C 162.59 211.94 157.90 206.57 152.70 209.57 C 145.96 212.60 145.35 220.94 142.00 226.70 C 139.58 224.49 137.45 221.98 134.83 220.02 C 133.52 218.86 131.56 219.10 130.13 219.90 C 125.72 222.31 121.61 225.49 118.84 229.74 C 117.23 228.65 115.64 227.52 114.11 226.33 C 119.94 218.06 123.79 208.47 125.87 198.59 C 127.30 193.90 125.79 188.92 127.16 184.21 C 128.34 179.61 128.59 174.87 129.55 170.24 C 130.06 166.44 130.93 162.67 133.15 159.47 C 134.65 160.67 136.12 161.92 137.59 163.16 C 136.05 163.75 134.50 164.34 132.96 164.93 C 135.00 166.31 137.23 167.62 138.33 169.93 C 135.50 171.38 132.73 172.95 130.18 174.85 C 130.77 175.38 131.36 175.91 131.96 176.44 C 135.64 174.48 140.23 173.15 141.47 168.63 C 143.93 169.78 146.58 171.28 149.39 170.41 C 153.18 167.86 152.23 162.75 152.48 158.84 C 154.86 159.90 157.23 160.96 159.64 161.93 C 161.03 159.19 161.64 156.19 161.71 153.13 C 165.63 154.36 169.95 155.27 173.63 152.82 C 173.57 151.47 173.50 150.11 173.43 148.76 C 171.81 149.69 170.35 150.93 168.60 151.60 C 166.17 151.71 163.86 150.79 161.55 150.17 C 161.43 148.24 161.40 146.31 161.38 144.39 Z" />
<path fill="#fdfdfd" opacity="1.00" d=" M 135.29 157.05 C 137.40 153.95 139.49 150.19 143.28 148.97 C 144.99 152.33 147.10 155.42 149.45 158.35 C 149.59 161.40 149.44 164.47 149.29 167.53 C 146.14 168.39 143.42 166.44 140.60 165.38 C 139.99 161.95 137.46 159.57 135.29 157.05 Z" />
<path fill="#fdfdfd" opacity="1.00" d=" M 149.41 216.42 C 150.73 212.95 155.29 209.91 158.79 212.31 C 162.66 214.06 165.44 217.41 166.95 221.33 C 164.11 223.03 161.25 224.71 158.33 226.28 C 155.76 227.13 152.79 226.94 150.57 228.68 C 148.67 230.06 147.14 231.87 145.23 233.24 C 140.45 234.27 135.83 231.60 131.04 231.72 C 127.32 231.83 123.58 231.56 120.13 230.07 C 123.37 228.05 126.24 225.51 129.39 223.37 C 130.89 222.23 133.36 221.53 134.76 223.21 C 137.61 225.34 139.27 229.32 143.07 229.91 C 145.44 225.53 147.58 221.05 149.41 216.42 Z" />
<path fill="#fdfdfd" opacity="1.00" d=" M 81.94 240.00 C 81.04 234.99 78.92 229.73 80.62 224.70 C 84.00 227.46 85.62 231.53 87.98 235.03 C 90.52 237.05 93.45 238.51 96.32 240.00 L 81.94 240.00 Z" />
</g>
<g id="#eb0000ec">
<path fill="#eb0000" opacity="0.93" d=" M 248.82 128.25 C 250.82 126.62 252.78 124.94 255.08 123.75 C 254.27 125.58 253.20 127.28 252.28 129.06 C 252.99 131.72 254.86 133.92 255.93 136.46 C 255.33 136.45 254.13 136.43 253.53 136.42 C 252.34 134.55 251.11 132.69 249.88 130.85 C 248.62 132.79 247.86 134.99 246.89 137.07 C 244.87 134.46 245.62 131.06 245.48 128.02 C 245.33 126.33 245.83 124.85 247.00 123.59 C 247.63 125.13 248.24 126.68 248.82 128.25 Z" />
</g>
<g id="#d40000d5">
<path fill="#d40000" opacity="0.84" d=" M 257.66 124.59 C 258.47 124.50 259.27 124.40 260.09 124.31 C 260.56 125.59 261.05 126.86 261.57 128.13 C 263.44 126.52 264.98 123.83 267.84 124.38 C 266.74 126.01 265.51 127.54 264.27 129.07 C 265.41 131.54 268.59 134.04 267.17 136.97 C 264.93 135.37 263.45 133.02 261.71 130.95 C 261.07 132.80 260.56 134.70 260.13 136.61 C 259.33 136.48 258.53 136.36 257.74 136.23 C 257.65 132.35 257.62 128.47 257.66 124.59 Z" />
</g>
<g id="#e70000e8">
<path fill="#e70000" opacity="0.91" d=" M 270.37 124.35 C 270.87 124.35 271.87 124.33 272.38 124.32 C 272.64 125.63 272.92 126.95 273.22 128.26 C 275.39 126.65 277.30 124.47 280.10 123.98 C 279.06 125.81 277.79 127.49 276.49 129.14 C 277.91 131.58 280.30 133.97 279.37 137.05 C 277.41 135.12 275.76 132.91 273.92 130.88 C 273.22 132.85 272.63 134.86 272.08 136.87 C 271.65 136.56 270.79 135.93 270.37 135.61 C 270.34 131.86 270.32 128.11 270.37 124.35 Z" />
</g>
<g id="#f50000f5">
<path fill="#f50000" opacity="0.96" d=" M 285.36 124.26 C 286.34 124.31 287.33 124.37 288.32 124.43 C 289.50 127.50 290.59 130.60 291.47 133.76 C 291.92 133.74 292.82 133.70 293.27 133.68 C 293.52 133.09 294.04 131.91 294.29 131.32 C 294.61 130.60 294.94 129.88 295.29 129.16 C 295.70 129.65 296.54 130.63 296.95 131.12 C 297.31 131.56 298.03 132.43 298.39 132.86 C 298.65 132.39 299.17 131.45 299.43 130.98 C 300.02 129.87 300.63 128.78 301.26 127.70 C 301.60 130.72 303.88 133.67 302.80 136.71 C 301.44 135.60 300.23 134.29 298.75 133.36 C 296.14 133.35 294.66 136.60 292.07 136.52 C 290.12 135.82 288.62 134.30 286.94 133.15 C 285.08 134.27 283.23 135.41 281.31 136.42 C 282.25 132.25 283.68 128.20 285.36 124.26 M 285.36 128.47 C 285.42 129.44 285.48 130.41 285.55 131.38 C 286.08 131.47 287.15 131.64 287.68 131.72 C 287.72 130.55 287.77 129.38 287.81 128.22 C 287.20 128.28 285.97 128.41 285.36 128.47 Z" />
</g>
<g id="#95000095">
<path fill="#950000" opacity="0.58" d=" M 294.29 131.32 C 294.52 128.48 294.91 124.64 298.02 123.50 C 300.08 123.87 300.44 126.12 301.26 127.70 C 300.63 128.78 300.02 129.87 299.43 130.98 C 298.81 129.77 298.10 128.61 297.40 127.46 C 297.29 128.38 297.06 130.21 296.95 131.12 C 296.54 130.63 295.70 129.65 295.29 129.16 C 294.94 129.88 294.61 130.60 294.29 131.32 M 297.19 125.21 C 296.66 126.84 297.22 127.39 298.85 126.87 C 299.37 125.24 298.81 124.69 297.19 125.21 Z" />
</g>
<g id="#000000f1">
<path fill="#000000" opacity="0.95" d=" M 225.00 124.84 C 228.42 130.41 230.70 136.55 233.43 142.46 C 235.64 147.30 234.42 152.74 235.05 157.85 C 235.75 163.75 235.30 169.72 236.17 175.61 C 236.75 180.45 236.91 185.39 236.14 190.22 C 235.51 190.44 234.25 190.88 233.62 191.10 C 231.76 179.63 233.44 167.91 230.89 156.52 C 231.87 156.41 232.86 156.29 233.85 156.17 C 233.80 151.91 234.15 147.45 232.31 143.48 C 229.77 137.71 227.49 131.81 224.55 126.22 C 224.66 125.88 224.89 125.18 225.00 124.84 Z" />
</g>
<g id="#cfb5b5fe">
<path fill="#cfb5b5" opacity="1.00" d=" M 130.48 128.63 C 131.67 128.21 132.86 127.79 134.05 127.37 C 134.22 128.54 134.55 130.88 134.72 132.04 C 133.24 130.98 131.83 129.84 130.48 128.63 Z" />
</g>
<g id="#6b6b6bfd">
<path fill="#6b6b6b" opacity="1.00" d=" M 222.83 128.53 C 223.26 127.95 224.12 126.80 224.55 126.22 C 227.49 131.81 229.77 137.71 232.31 143.48 C 234.15 147.45 233.80 151.91 233.85 156.17 C 232.86 156.29 231.87 156.41 230.89 156.52 C 233.44 167.91 231.76 179.63 233.62 191.10 C 233.92 195.00 234.36 198.88 234.95 202.75 C 235.43 206.06 235.93 209.62 234.40 212.75 C 234.79 206.72 233.08 200.88 232.53 194.93 C 232.15 188.61 231.07 182.34 231.43 176.00 C 231.79 168.35 230.30 160.80 228.75 153.36 C 229.43 152.11 230.12 150.87 230.80 149.63 C 231.36 151.12 231.95 152.60 232.54 154.07 C 232.58 150.34 232.77 146.42 230.97 143.01 C 229.06 139.10 227.73 134.78 224.78 131.48 C 224.12 130.50 223.47 129.52 222.83 128.53 Z" />
</g>
<g id="#2a2424fe">
<path fill="#2a2424" opacity="1.00" d=" M 80.42 133.67 C 81.59 131.90 82.61 130.03 83.75 128.24 C 83.31 135.17 83.64 142.11 83.62 149.05 C 83.52 153.89 85.45 158.40 86.85 162.94 C 87.98 166.17 89.47 169.66 92.50 171.55 C 95.83 172.84 99.51 172.35 103.01 172.59 C 107.59 172.46 112.28 173.13 116.79 172.20 C 119.86 169.70 121.61 166.05 123.95 162.94 C 127.27 158.52 130.10 153.77 133.29 149.25 C 135.40 146.25 136.24 142.59 136.33 138.97 C 137.09 136.98 137.95 135.03 138.84 133.09 C 139.27 136.87 139.85 140.83 138.50 144.49 C 137.35 148.27 135.08 151.53 133.43 155.08 C 133.00 156.50 133.10 158.01 133.15 159.47 C 130.93 162.67 130.06 166.44 129.55 170.24 C 128.97 168.36 128.30 166.53 127.71 164.66 C 127.59 164.22 127.36 163.34 127.24 162.90 C 124.13 167.24 121.91 172.74 116.96 175.35 C 111.67 175.82 106.33 175.44 101.01 175.50 C 97.20 175.22 92.80 175.99 89.65 173.30 C 85.49 169.43 83.94 163.76 82.25 158.53 C 79.25 150.55 81.53 141.92 80.42 133.67 Z" />
</g>
<g id="#51000052">
<path fill="#510000" opacity="0.32" d=" M 297.40 127.46 C 298.10 128.61 298.81 129.77 299.43 130.98 C 299.17 131.45 298.65 132.39 298.39 132.86 C 298.03 132.43 297.31 131.56 296.95 131.12 C 297.06 130.21 297.29 128.38 297.40 127.46 Z" />
</g>
<g id="#fcfcfcff">
<path fill="#fcfcfc" opacity="1.00" d=" M 69.15 134.26 C 70.17 132.15 70.41 128.18 73.74 129.42 C 70.83 134.18 71.39 140.94 66.34 144.25 C 66.23 139.41 66.51 134.58 66.53 129.74 C 67.45 131.22 68.25 132.77 69.15 134.26 Z" />
</g>
<g id="#f9d9d9fe">
<path fill="#f9d9d9" opacity="1.00" d=" M 203.00 146.34 C 206.48 145.29 209.30 142.88 212.45 141.17 C 210.11 144.38 207.35 147.39 204.03 149.59 C 199.06 149.86 193.20 150.77 189.57 146.52 C 194.04 146.14 198.53 146.63 203.00 146.34 Z" />
</g>
<g id="#484848fe">
<path fill="#484848" opacity="1.00" d=" M 66.63 149.05 C 67.32 148.68 68.71 147.94 69.41 147.57 C 70.48 158.31 68.98 169.06 69.51 179.81 C 68.69 177.40 68.12 174.92 67.54 172.45 C 66.82 172.30 65.39 172.01 64.68 171.86 C 64.87 170.06 65.15 168.27 65.45 166.48 C 67.55 160.87 66.30 154.87 66.63 149.05 Z" />
</g>
<g id="#1d1d1dfe">
<path fill="#1d1d1d" opacity="1.00" d=" M 64.68 171.86 C 65.39 172.01 66.82 172.30 67.54 172.45 C 68.12 174.92 68.69 177.40 69.51 179.81 C 71.43 183.77 72.35 188.06 73.02 192.39 C 74.51 197.75 76.36 203.03 78.53 208.16 C 80.22 212.44 80.45 217.07 80.41 221.62 C 78.86 219.88 77.51 217.96 76.27 215.99 C 76.75 213.75 76.97 211.35 75.95 209.22 C 73.52 204.03 71.68 198.57 70.32 193.01 C 69.23 188.64 69.77 183.01 65.22 180.49 C 64.79 177.63 64.60 174.74 64.68 171.86 Z" />
</g>
<g id="#fbfbfbfe">
<path fill="#fbfbfb" opacity="1.00" d=" M 65.22 180.49 C 69.77 183.01 69.23 188.64 70.32 193.01 C 71.68 198.57 73.52 204.03 75.95 209.22 C 76.97 211.35 76.75 213.75 76.27 215.99 C 71.78 209.09 68.03 201.37 67.67 193.00 C 67.68 188.68 65.65 184.74 65.22 180.49 Z" />
</g>
<g id="#ef0000f0">
<path fill="#ef0000" opacity="0.94" d=" M 249.94 183.97 C 250.76 183.65 251.61 183.36 252.47 183.12 C 254.13 186.48 255.03 190.13 256.40 193.61 C 256.70 193.61 257.32 193.60 257.63 193.59 C 259.04 190.14 259.85 186.46 261.52 183.10 C 262.38 183.35 263.22 183.64 264.06 183.97 C 265.93 187.19 266.57 190.93 268.02 194.34 C 270.34 190.89 271.03 186.70 272.92 183.04 C 277.99 184.40 276.87 190.96 279.94 194.29 C 281.37 190.88 282.08 187.16 283.91 183.93 C 284.73 183.63 285.57 183.37 286.42 183.15 C 288.33 187.29 290.11 191.58 290.77 196.13 C 288.78 195.01 286.92 193.67 285.04 192.37 C 283.34 193.50 282.01 195.63 279.81 195.66 C 277.36 195.90 275.84 193.51 273.99 192.32 C 272.53 193.41 271.18 194.68 269.57 195.56 C 266.77 196.40 264.89 193.82 262.94 192.33 C 261.43 193.37 259.98 194.52 258.39 195.44 C 255.49 196.48 253.35 193.68 251.10 192.39 C 249.48 193.70 247.86 195.01 246.14 196.19 C 246.44 191.90 247.81 187.69 249.94 183.97 M 250.39 187.40 C 250.33 188.52 250.28 189.64 250.23 190.76 C 250.82 190.71 252.00 190.61 252.59 190.55 C 252.57 189.55 252.55 188.54 252.53 187.54 C 252.00 187.51 250.93 187.44 250.39 187.40 M 261.46 187.53 C 261.43 188.53 261.41 189.52 261.40 190.52 C 261.98 190.58 263.15 190.68 263.74 190.74 C 263.68 189.62 263.64 188.51 263.59 187.40 C 263.06 187.43 261.99 187.50 261.46 187.53 M 284.60 186.91 C 284.43 188.21 284.27 189.51 284.13 190.81 C 284.83 190.71 286.22 190.50 286.91 190.39 C 286.62 188.92 286.07 187.54 284.60 186.91 M 273.16 188.14 C 271.68 189.13 273.34 191.66 274.80 190.51 C 276.29 189.52 274.62 186.95 273.16 188.14 Z" />
</g>
<g id="#3c00003d">
<path fill="#3c0000" opacity="0.24" d=" M 273.16 188.14 C 274.62 186.95 276.29 189.52 274.80 190.51 C 273.34 191.66 271.68 189.13 273.16 188.14 Z" />
</g>
<g id="#010101b4">
<path fill="#010101" opacity="0.71" d=" M 233.62 191.10 C 234.25 190.88 235.51 190.44 236.14 190.22 C 235.87 192.36 235.14 194.61 235.82 196.73 C 236.96 198.38 238.58 199.68 239.57 201.45 C 240.05 204.41 239.21 207.38 238.19 210.15 C 238.10 207.96 237.90 205.79 237.70 203.62 C 237.01 203.41 235.64 202.97 234.95 202.75 C 234.36 198.88 233.92 195.00 233.62 191.10 Z" />
</g>
<g id="#010101fd">
<path fill="#010101" opacity="1.00" d=" M 234.95 202.75 C 235.64 202.97 237.01 203.41 237.70 203.62 C 237.90 205.79 238.10 207.96 238.19 210.15 C 236.07 215.91 234.51 221.95 231.12 227.15 C 228.57 231.11 227.18 235.63 225.53 240.00 L 222.68 240.00 C 224.60 235.27 225.70 230.26 227.57 225.53 C 229.82 221.23 230.31 215.89 234.40 212.75 C 235.93 209.62 235.43 206.06 234.95 202.75 Z" />
</g>
<g id="#3e00003f">
<path fill="#3e0000" opacity="0.25" d=" M 273.16 208.19 C 274.61 207.01 276.30 209.56 274.80 210.55 C 273.33 211.71 271.66 209.18 273.16 208.19 Z" />
<path fill="#3e0000" opacity="0.25" d=" M 273.15 228.29 C 274.59 227.14 276.34 229.60 274.81 230.61 C 273.37 231.77 271.61 229.28 273.15 228.29 Z" />
</g>
<g id="#e90000ea">
<path fill="#e90000" opacity="0.92" d=" M 246.05 236.26 C 246.57 231.51 248.14 226.84 250.95 222.95 C 254.76 225.68 254.87 230.73 257.00 234.56 C 259.25 230.78 259.14 225.61 263.07 222.95 C 265.50 226.04 266.26 229.92 267.54 233.54 C 267.89 233.59 268.60 233.69 268.95 233.74 C 270.44 230.03 270.85 225.71 274.01 222.89 C 277.29 226.01 277.38 230.83 279.93 234.40 C 281.48 230.52 282.41 226.33 284.94 222.92 C 288.97 226.14 289.53 231.60 290.82 236.25 C 288.86 235.26 287.02 234.07 285.14 232.96 C 283.46 233.93 282.02 235.69 279.96 235.73 C 277.58 235.98 275.89 233.98 273.99 232.92 C 271.90 234.12 269.93 236.28 267.29 235.68 C 265.59 235.19 264.30 233.86 262.82 232.96 C 260.71 234.04 258.80 236.18 256.22 235.70 C 254.33 235.26 252.86 233.85 251.17 232.95 C 249.49 234.09 247.81 235.23 246.05 236.26 M 250.31 228.23 C 248.79 229.51 250.97 231.88 252.35 230.46 C 253.68 229.20 251.65 226.56 250.31 228.23 M 261.36 228.26 C 261.38 228.85 261.42 230.02 261.44 230.61 C 262.01 230.66 263.15 230.76 263.72 230.81 C 263.72 230.17 263.71 228.88 263.71 228.24 C 263.12 228.25 261.95 228.26 261.36 228.26 M 273.15 228.29 C 271.61 229.28 273.37 231.77 274.81 230.61 C 276.34 229.60 274.59 227.14 273.15 228.29 M 284.29 228.27 C 282.75 229.55 284.96 231.91 286.33 230.48 C 287.67 229.21 285.63 226.60 284.29 228.27 Z" />
</g>
</svg>
