<?xml version="1.0" encoding="UTF-8" ?>
<!DOCTYPE svg PUBLIC "-//W3C//DTD SVG 1.1//EN" "http://www.w3.org/Graphics/SVG/1.1/DTD/svg11.dtd">
<svg width="210pt" height="220pt" viewBox="0 0 210 220" version="1.1" xmlns="http://www.w3.org/2000/svg">
<g id="#918080f4">
<path fill="#918080" opacity="0.96" d=" M 118.00 11.56 C 121.54 11.85 124.12 7.75 127.80 9.21 L 128.87 10.38 C 122.14 10.84 115.40 12.04 109.24 14.89 C 105.59 16.00 103.52 19.41 101.03 22.04 C 99.26 23.84 98.45 26.26 97.91 28.68 C 97.45 27.89 96.93 27.14 96.37 26.43 L 96.18 26.20 C 98.69 21.69 103.26 19.13 106.05 14.90 C 109.99 13.68 113.77 11.45 118.00 11.56 Z" />
<path fill="#918080" opacity="0.96" d=" M 123.99 14.03 C 125.88 11.72 128.60 10.24 131.65 10.69 C 132.97 11.62 134.31 12.55 135.77 13.26 C 138.20 13.66 141.09 14.57 141.99 17.13 C 143.87 18.47 146.24 19.53 147.05 21.87 C 148.32 25.32 150.86 28.08 152.19 31.50 C 152.95 33.02 153.25 35.12 155.16 35.64 C 156.22 36.88 157.31 38.12 158.42 39.33 C 158.59 41.09 158.33 43.08 159.82 44.42 L 159.28 44.65 C 157.71 45.32 156.12 45.93 154.53 46.53 L 155.06 45.06 C 157.30 44.62 155.18 41.69 154.64 44.24 C 154.38 43.70 153.85 42.62 153.58 42.08 C 154.54 42.22 156.46 42.50 157.41 42.64 C 156.69 38.83 153.65 36.14 149.73 36.19 C 150.54 35.95 152.15 35.46 152.96 35.22 C 149.99 29.33 147.49 23.09 142.81 18.28 C 138.95 18.48 135.10 18.80 131.28 19.41 C 132.01 21.99 130.84 24.41 130.01 26.79 C 129.46 26.77 128.36 26.75 127.81 26.74 C 128.11 25.42 128.44 24.09 128.75 22.77 C 128.70 23.54 128.60 25.09 128.54 25.87 C 129.42 24.69 130.29 23.50 131.14 22.31 C 130.85 21.64 130.26 20.30 129.96 19.62 C 133.00 17.64 136.94 18.08 140.35 17.13 C 136.31 15.71 132.62 13.50 128.89 11.54 C 128.31 11.85 127.16 12.46 126.58 12.76 C 127.31 13.29 128.78 14.35 129.52 14.88 C 127.67 14.59 125.83 14.32 123.99 14.03 Z" />
<path fill="#918080" opacity="0.96" d=" M 147.62 37.43 L 148.46 36.78 C 148.39 37.29 148.24 38.31 148.17 38.83 C 148.72 38.66 149.82 38.33 150.37 38.17 C 150.82 41.91 150.69 45.68 150.00 49.39 C 149.29 48.88 147.87 47.86 147.16 47.35 C 147.63 44.06 147.59 40.74 147.62 37.43 Z" />
<path fill="#918080" opacity="0.96" d=" M 100.77 49.71 C 101.91 53.18 103.15 56.70 105.45 59.60 C 106.67 61.25 107.94 62.86 109.21 64.48 C 108.55 64.50 107.24 64.56 106.58 64.58 C 109.06 65.57 111.60 66.41 114.19 67.05 C 113.70 67.52 112.73 68.46 112.24 68.94 C 112.84 68.83 114.02 68.63 114.61 68.53 C 114.51 67.84 114.30 66.45 114.19 65.76 C 115.07 65.66 116.81 65.45 117.68 65.34 C 117.74 65.53 117.86 65.91 117.92 66.10 C 118.37 69.56 118.61 73.04 118.76 76.53 C 118.86 79.02 118.99 81.50 119.34 83.96 C 117.72 82.40 115.98 80.93 113.91 80.00 C 112.30 77.46 110.97 74.75 110.23 71.83 C 109.44 70.07 108.18 68.60 107.03 67.08 C 104.92 63.67 103.85 59.71 101.52 56.43 C 100.39 54.84 99.54 53.06 99.03 51.18 C 99.63 51.80 100.25 52.41 100.87 53.01 C 100.85 52.18 100.80 50.53 100.77 49.71 M 112.11 71.40 C 112.89 75.03 115.05 78.06 117.76 80.53 C 117.41 77.40 117.17 74.23 116.24 71.21 C 115.21 71.25 113.14 71.35 112.11 71.40 Z" />
<path fill="#918080" opacity="0.96" d=" M 31.13 52.86 C 32.05 53.32 32.96 53.80 33.87 54.28 L 33.79 55.17 C 33.49 56.29 33.69 57.23 34.39 57.99 L 35.65 59.01 L 34.41 60.03 C 33.73 60.77 33.50 61.69 33.73 62.80 L 33.74 63.63 L 33.09 63.35 L 32.31 63.68 C 33.06 62.13 33.74 60.53 34.49 58.97 C 33.45 56.89 32.57 54.70 31.13 52.86 Z" />
<path fill="#918080" opacity="0.96" d=" M 167.01 59.63 C 167.07 59.24 167.19 58.46 167.25 58.07 C 168.48 59.54 169.77 60.99 171.44 61.97 C 171.48 62.99 171.53 64.02 171.57 65.04 C 174.63 67.30 177.02 70.40 180.41 72.21 L 179.48 73.20 C 175.86 71.35 172.74 68.68 169.30 66.54 C 169.27 65.46 169.39 64.39 169.48 63.32 C 168.65 62.09 167.83 60.86 167.01 59.63 M 170.20 65.22 C 170.75 65.72 170.75 65.72 170.20 65.22 Z" />
<path fill="#918080" opacity="0.96" d=" M 180.76 74.48 C 180.99 74.27 181.46 73.85 181.70 73.65 C 183.56 74.24 184.37 76.20 185.76 77.42 C 187.78 79.59 190.67 80.43 193.19 81.83 C 194.88 84.39 196.54 86.98 198.13 89.60 C 199.44 93.67 199.32 98.11 201.26 101.99 C 201.42 102.99 201.58 103.99 201.74 104.99 C 203.08 108.62 205.21 112.04 205.50 115.98 C 205.76 120.50 208.91 124.37 208.61 129.00 C 209.19 133.48 206.95 137.60 204.10 140.87 C 204.46 138.31 205.61 136.01 206.69 133.71 C 209.19 128.61 205.57 123.81 204.00 119.12 C 203.72 115.57 203.45 111.95 201.82 108.72 C 198.85 102.83 198.12 96.24 196.25 90.02 C 193.90 82.41 185.06 80.59 180.76 74.48 Z" />
<path fill="#918080" opacity="0.96" d=" M 51.82 86.80 C 53.88 88.18 55.22 90.31 56.50 92.38 C 56.97 94.56 57.20 96.79 57.34 99.02 C 56.03 102.99 53.10 106.23 49.83 108.75 C 49.62 108.52 49.20 108.07 48.99 107.84 C 49.02 107.65 49.06 107.27 49.09 107.07 C 54.51 105.69 57.49 99.36 56.10 94.15 C 55.40 92.08 54.15 90.25 52.95 88.44 C 52.67 88.03 52.10 87.21 51.82 86.80 Z" />
<path fill="#918080" opacity="0.96" d=" M 10.99 88.57 C 12.12 87.40 13.93 87.46 14.97 88.71 C 13.61 89.45 12.29 89.40 10.99 88.57 Z" />
<path fill="#918080" opacity="0.96" d=" M 35.82 104.49 C 31.84 100.49 31.71 94.01 35.42 89.80 C 34.53 93.24 32.88 96.95 34.37 100.47 C 36.19 106.25 42.72 109.55 48.54 108.25 C 45.05 110.38 38.96 109.10 36.75 105.27 C 36.20 106.40 35.69 107.55 35.22 108.73 C 31.01 109.62 26.68 108.96 22.42 109.23 C 22.31 108.93 22.10 108.31 22.00 108.01 L 21.89 107.64 C 26.31 107.84 32.29 110.37 35.46 106.28 C 32.20 105.51 28.86 105.31 25.52 105.14 L 24.97 104.70 C 25.16 104.71 25.54 104.73 25.73 104.74 C 29.10 104.86 32.45 104.46 35.82 104.49 Z" />
<path fill="#918080" opacity="0.96" d=" M 128.88 94.44 C 133.77 94.33 138.69 93.77 143.35 92.23 C 141.07 94.14 138.84 96.25 136.04 97.39 C 134.00 97.18 132.14 96.23 130.34 95.31 C 129.97 95.09 129.25 94.66 128.88 94.44 Z" />
<path fill="#918080" opacity="0.96" d=" M 119.94 96.95 C 120.37 96.28 121.21 94.95 121.64 94.29 C 122.10 97.52 121.26 100.66 120.02 103.62 C 120.45 103.43 121.30 103.04 121.73 102.85 C 120.13 105.75 119.27 108.97 118.19 112.09 C 118.00 111.37 117.60 109.95 117.41 109.23 C 117.46 107.93 117.37 106.62 117.24 105.32 L 117.12 104.03 L 117.15 103.99 C 118.67 101.91 119.46 99.46 119.94 96.95 Z" />
<path fill="#918080" opacity="0.96" d=" M 150.78 129.04 C 152.00 130.46 153.27 131.84 154.51 133.25 C 154.07 137.33 154.21 141.48 155.34 145.45 L 154.58 145.38 C 154.11 145.33 153.17 145.24 152.70 145.19 C 153.01 144.82 153.64 144.09 153.95 143.72 C 152.23 138.98 151.36 134.03 150.78 129.04 Z" />
<path fill="#918080" opacity="0.96" d=" M 202.58 153.22 C 203.67 153.82 204.28 154.70 204.39 155.86 C 204.87 160.99 205.11 166.16 204.83 171.32 C 203.29 165.41 202.66 159.31 202.58 153.22 Z" />
<path fill="#918080" opacity="0.96" d=" M 134.57 171.73 C 141.79 166.28 149.10 160.50 157.76 157.55 C 157.04 158.84 156.35 160.29 154.97 161.01 C 148.37 164.77 141.47 168.39 136.03 173.78 C 137.47 176.94 139.55 179.74 141.46 182.62 C 146.60 179.39 151.55 175.87 156.39 172.19 C 157.46 171.57 158.57 170.22 159.87 171.11 C 159.93 171.37 160.05 171.90 160.10 172.16 C 155.19 176.42 149.61 179.82 144.28 183.51 C 142.58 184.73 141.77 186.74 140.63 188.43 C 138.88 189.91 137.01 191.24 135.17 192.60 C 134.57 192.04 133.98 191.47 133.39 190.90 C 135.74 189.49 138.52 188.35 140.02 185.91 C 138.29 181.15 135.75 176.60 132.13 173.00 C 132.65 174.06 133.17 175.12 133.71 176.18 C 133.10 176.17 131.88 176.15 131.26 176.15 C 130.09 177.95 129.14 179.93 127.74 181.58 C 127.54 181.46 127.15 181.23 126.95 181.11 C 126.79 180.30 126.45 178.69 126.29 177.88 C 125.81 178.97 124.74 180.13 125.71 181.29 C 128.03 185.28 131.41 188.70 132.74 193.24 C 128.18 190.52 126.06 185.27 123.52 180.84 C 123.06 176.22 129.03 174.39 131.89 171.67 C 132.78 171.69 133.67 171.71 134.57 171.73 Z" />
<path fill="#918080" opacity="0.96" d=" M 100.44 169.00 C 100.78 168.51 101.45 167.54 101.78 167.05 C 101.87 167.77 102.06 169.21 102.15 169.93 C 102.57 170.29 103.40 171.00 103.82 171.36 C 102.91 175.51 102.28 179.72 101.78 183.94 C 101.26 188.07 103.35 192.13 102.21 196.23 C 101.06 200.77 101.29 205.47 101.26 210.11 C 99.04 210.48 99.95 208.20 99.68 207.08 C 99.78 204.06 99.25 200.92 100.22 198.00 C 100.96 190.19 100.00 182.33 100.79 174.51 C 101.43 173.69 102.08 172.88 102.73 172.07 C 101.96 171.04 101.16 170.05 100.44 169.00 Z" />
<path fill="#918080" opacity="0.96" d=" M 160.96 202.80 C 162.13 202.06 163.35 201.38 164.56 200.69 C 163.75 203.75 163.04 206.84 162.13 209.88 C 161.43 209.93 160.02 210.03 159.32 210.08 C 159.85 207.65 160.40 205.22 160.96 202.80 Z" />
</g>
<g id="#000000ff">
<path fill="#000000" opacity="1.00" d=" M 127.80 9.21 C 128.87 10.17 130.29 10.42 131.65 10.69 C 128.60 10.24 125.88 11.72 123.99 14.03 C 125.83 14.32 127.67 14.59 129.52 14.88 C 129.76 17.29 128.65 19.42 127.28 21.31 C 127.71 21.35 128.58 21.45 129.01 21.49 L 128.75 22.77 C 128.44 24.09 128.11 25.42 127.81 26.74 C 128.36 26.75 129.46 26.77 130.01 26.79 C 130.84 24.41 132.01 21.99 131.28 19.41 C 135.10 18.80 138.95 18.48 142.81 18.28 C 147.49 23.09 149.99 29.33 152.96 35.22 C 152.15 35.46 150.54 35.95 149.73 36.19 C 149.41 36.34 148.78 36.63 148.46 36.78 L 147.62 37.43 C 147.59 40.74 147.63 44.06 147.16 47.35 C 147.87 47.86 149.29 48.88 150.00 49.39 C 150.69 45.68 150.82 41.91 150.37 38.17 C 151.32 37.89 152.28 37.63 153.24 37.38 C 152.78 38.02 151.86 39.28 151.40 39.91 C 151.03 43.39 150.61 46.87 150.64 50.37 C 148.44 48.34 145.34 52.28 143.56 49.58 C 140.69 46.38 137.17 43.94 133.18 42.33 C 130.89 40.22 129.51 37.39 128.11 34.65 C 125.47 33.34 122.62 33.33 119.98 34.67 C 119.64 38.85 116.99 42.38 113.51 44.55 C 111.43 45.64 111.51 48.01 111.22 50.03 C 110.42 48.93 109.61 47.83 108.76 46.77 C 108.31 46.70 107.40 46.56 106.95 46.49 C 104.63 46.08 102.28 45.90 100.00 45.30 C 97.92 41.87 98.24 38.07 99.53 34.42 C 100.40 34.15 101.26 33.88 102.13 33.60 C 101.42 33.67 100.00 33.80 99.29 33.87 C 99.39 33.03 99.60 31.37 99.70 30.53 C 99.12 30.54 97.95 30.56 97.37 30.57 C 96.09 34.90 96.52 39.45 96.45 43.90 L 96.45 44.18 C 94.06 38.39 97.44 32.16 95.92 26.31 C 96.04 26.34 96.26 26.40 96.37 26.43 C 96.93 27.14 97.45 27.89 97.91 28.68 C 98.45 26.26 99.26 23.84 101.03 22.04 C 103.52 19.41 105.59 16.00 109.24 14.89 C 115.40 12.04 122.14 10.84 128.87 10.38 L 127.80 9.21 Z" />
<path fill="#000000" opacity="1.00" d=" M 121.91 60.48 C 125.13 56.75 129.84 53.27 134.98 53.55 C 131.90 55.57 128.62 57.40 126.09 60.13 C 124.85 61.35 123.54 62.49 122.18 63.56 C 121.10 63.09 120.04 62.63 118.97 62.17 C 118.37 61.71 117.77 61.26 117.17 60.82 C 118.75 60.74 120.35 60.81 121.91 60.48 Z" />
<path fill="#000000" opacity="1.00" d=" M 128.31 61.29 C 130.78 59.51 133.15 57.59 135.72 55.95 C 135.72 58.86 132.69 60.16 130.98 62.06 C 129.20 64.14 126.28 63.60 123.87 63.45 C 124.21 60.98 126.66 61.64 128.31 61.29 Z" />
<path fill="#000000" opacity="1.00" d=" M 112.92 64.31 C 113.48 63.96 114.59 63.27 115.14 62.92 L 115.63 62.71 C 116.15 63.37 117.17 64.69 117.68 65.34 C 116.81 65.45 115.07 65.66 114.19 65.76 C 114.30 66.45 114.51 67.84 114.61 68.53 C 114.02 68.63 112.84 68.83 112.24 68.94 C 112.73 68.46 113.70 67.52 114.19 67.05 C 111.60 66.41 109.06 65.57 106.58 64.58 C 107.24 64.56 108.55 64.50 109.21 64.48 C 110.44 64.43 111.68 64.38 112.92 64.31 Z" />
<path fill="#000000" opacity="1.00" d=" M 131.07 76.71 C 134.38 75.55 137.70 74.18 141.29 74.35 C 141.46 75.27 141.81 77.10 141.99 78.02 C 138.66 78.81 136.36 81.70 133.03 82.44 C 130.74 83.06 128.44 83.61 126.17 84.29 C 123.72 83.90 120.32 84.42 119.26 81.56 C 123.50 80.67 126.91 77.80 131.07 76.71 Z" />
</g>
<g id="#fefefeff">
<path fill="#fefefe" opacity="1.00" d=" M 128.89 11.54 C 132.62 13.50 136.31 15.71 140.35 17.13 C 136.94 18.08 133.00 17.64 129.96 19.62 C 130.26 20.30 130.85 21.64 131.14 22.31 C 130.29 23.50 129.42 24.69 128.54 25.87 C 128.60 25.09 128.70 23.54 128.75 22.77 L 129.01 21.49 C 128.58 21.45 127.71 21.35 127.28 21.31 C 128.65 19.42 129.76 17.29 129.52 14.88 C 128.78 14.35 127.31 13.29 126.58 12.76 C 127.16 12.46 128.31 11.85 128.89 11.54 Z" />
<path fill="#fefefe" opacity="1.00" d=" M 97.37 30.57 C 97.95 30.56 99.12 30.54 99.70 30.53 C 99.60 31.37 99.39 33.03 99.29 33.87 C 100.00 33.80 101.42 33.67 102.13 33.60 C 101.26 33.88 100.40 34.15 99.53 34.42 C 98.24 38.07 97.92 41.87 100.00 45.30 C 99.66 45.39 98.99 45.56 98.66 45.65 C 98.32 43.29 98.08 40.92 97.67 38.56 C 97.59 39.74 97.48 40.91 97.35 42.08 C 97.13 42.54 96.68 43.45 96.45 43.90 C 96.52 39.45 96.09 34.90 97.37 30.57 Z" />
<path fill="#fefefe" opacity="1.00" d=" M 119.98 34.67 C 122.62 33.33 125.47 33.34 128.11 34.65 C 129.51 37.39 130.89 40.22 133.18 42.33 C 133.31 43.06 133.58 44.50 133.71 45.23 C 137.55 48.87 140.78 53.10 143.59 57.58 C 145.68 61.04 149.11 63.47 151.14 66.97 C 153.24 71.09 151.35 75.75 151.99 80.13 C 148.35 84.66 144.53 89.41 138.84 91.42 C 136.05 91.02 133.26 90.62 130.46 90.26 C 132.67 88.18 134.68 85.89 136.31 83.33 C 135.74 83.48 134.60 83.79 134.03 83.94 C 131.67 84.47 129.39 85.25 127.15 86.14 C 126.17 86.38 125.18 86.63 124.20 86.88 C 123.77 86.40 123.34 85.93 122.91 85.46 C 123.99 85.05 125.08 84.67 126.17 84.29 C 128.44 83.61 130.74 83.06 133.03 82.44 C 136.36 81.70 138.66 78.81 141.99 78.02 C 141.81 77.10 141.46 75.27 141.29 74.35 C 137.70 74.18 134.38 75.55 131.07 76.71 C 129.89 76.07 128.74 74.79 127.25 75.33 C 125.12 75.28 124.90 77.78 124.09 79.21 C 122.84 80.10 121.42 80.71 119.94 79.88 C 119.48 78.79 119.08 77.67 118.76 76.53 C 118.61 73.04 118.37 69.56 117.92 66.10 C 117.86 65.91 117.74 65.53 117.68 65.34 C 117.17 64.69 116.15 63.37 115.63 62.71 C 112.67 60.68 108.90 60.29 105.45 59.60 C 103.15 56.70 101.91 53.18 100.77 49.71 L 100.20 47.87 C 102.31 47.46 105.93 49.02 106.95 46.49 C 107.40 46.56 108.31 46.70 108.76 46.77 C 109.61 47.83 110.42 48.93 111.22 50.03 C 111.51 48.01 111.43 45.64 113.51 44.55 C 116.99 42.38 119.64 38.85 119.98 34.67 M 121.91 60.48 C 120.35 60.81 118.75 60.74 117.17 60.82 C 117.77 61.26 118.37 61.71 118.97 62.17 C 120.04 62.63 121.10 63.09 122.18 63.56 C 123.54 62.49 124.85 61.35 126.09 60.13 C 128.62 57.40 131.90 55.57 134.98 53.55 C 129.84 53.27 125.13 56.75 121.91 60.48 M 128.31 61.29 C 126.66 61.64 124.21 60.98 123.87 63.45 C 126.28 63.60 129.20 64.14 130.98 62.06 C 132.69 60.16 135.72 58.86 135.72 55.95 C 133.15 57.59 130.78 59.51 128.31 61.29 M 127.52 71.45 C 126.30 72.73 124.23 73.59 124.33 75.69 C 126.85 73.96 129.86 74.19 132.73 74.54 C 132.28 71.84 129.79 71.34 127.52 71.45 Z" />
<path fill="#fefefe" opacity="1.00" d=" M 148.46 36.78 C 148.78 36.63 149.41 36.34 149.73 36.19 C 153.65 36.14 156.69 38.83 157.41 42.64 C 156.46 42.50 154.54 42.22 153.58 42.08 C 153.85 42.62 154.38 43.70 154.64 44.24 L 155.06 45.06 L 154.53 46.53 C 154.35 46.61 154.01 46.75 153.84 46.82 C 153.74 47.77 153.64 48.73 153.54 49.68 C 152.52 50.49 150.01 51.14 150.85 52.93 C 151.14 54.17 151.66 55.36 152.25 56.49 C 155.14 58.73 155.53 62.43 156.45 65.70 C 156.29 67.55 156.06 69.40 155.83 71.25 C 154.67 67.18 154.11 62.84 151.87 59.17 C 150.33 56.57 148.31 54.30 146.28 52.08 C 147.75 51.54 149.21 50.98 150.64 50.37 C 150.61 46.87 151.03 43.39 151.40 39.91 C 151.86 39.28 152.78 38.02 153.24 37.38 C 152.28 37.63 151.32 37.89 150.37 38.17 C 149.82 38.33 148.72 38.66 148.17 38.83 C 148.24 38.31 148.39 37.29 148.46 36.78 Z" />
<path fill="#fefefe" opacity="1.00" d=" M 16.22 53.50 C 18.28 48.82 23.72 46.50 28.61 46.84 L 29.60 47.21 C 24.62 46.82 19.87 48.87 16.82 52.83 L 16.22 53.50 Z" />
<path fill="#fefefe" opacity="1.00" d=" M 158.48 46.60 C 161.17 48.97 162.96 52.47 162.78 56.11 C 160.87 58.07 159.43 60.40 158.23 62.84 C 157.86 62.76 157.13 62.61 156.76 62.53 C 156.60 61.04 156.43 59.56 156.25 58.08 C 159.48 54.84 157.13 50.49 158.48 46.60 Z" />
<path fill="#fefefe" opacity="1.00" d=" M 33.79 55.17 L 34.23 54.81 C 34.40 55.36 34.75 56.48 34.92 57.03 L 34.39 57.99 C 33.69 57.23 33.49 56.29 33.79 55.17 Z" />
<path fill="#fefefe" opacity="1.00" d=" M 164.45 57.05 C 165.09 57.69 166.37 58.98 167.01 59.63 C 167.83 60.86 168.65 62.09 169.48 63.32 C 169.39 64.39 169.27 65.46 169.30 66.54 C 172.74 68.68 175.86 71.35 179.48 73.20 L 180.16 73.51 C 180.58 73.49 181.43 73.47 181.85 73.45 L 181.70 73.65 C 181.46 73.85 180.99 74.27 180.76 74.48 C 185.06 80.59 193.90 82.41 196.25 90.02 C 198.12 96.24 198.85 102.83 201.82 108.72 C 202.37 112.22 202.87 115.75 204.00 119.12 C 205.57 123.81 209.19 128.61 206.69 133.71 C 202.95 127.20 203.61 118.82 198.54 112.88 C 197.83 112.65 197.12 112.41 196.42 112.16 C 196.22 111.75 195.82 110.92 195.62 110.51 C 195.46 110.15 195.15 109.44 195.00 109.08 C 194.77 109.71 194.31 110.96 194.08 111.59 C 193.79 111.13 193.20 110.20 192.91 109.74 C 192.58 107.17 192.57 104.58 192.52 102.00 C 187.85 97.87 183.41 92.86 177.10 91.36 C 172.94 90.95 169.24 93.75 166.63 96.72 C 162.25 101.64 156.45 105.53 153.81 111.77 C 151.82 115.37 151.18 119.48 150.96 123.53 C 149.99 119.87 150.23 116.04 150.92 112.35 C 151.99 108.14 152.85 103.88 153.41 99.57 C 153.90 94.89 157.96 91.93 160.37 88.22 C 159.97 86.15 159.44 84.08 159.42 81.96 C 161.18 78.65 163.98 76.02 165.65 72.65 C 167.35 69.55 167.43 65.92 167.54 62.48 C 165.84 64.88 164.44 67.47 163.08 70.07 C 163.03 69.52 162.93 68.40 162.88 67.84 C 164.58 64.46 164.93 60.77 164.45 57.05 Z" />
<path fill="#fefefe" opacity="1.00" d=" M 33.73 62.80 C 33.50 61.69 33.73 60.77 34.41 60.03 C 34.52 60.61 34.73 61.77 34.84 62.35 L 34.18 63.16 L 33.73 62.80 Z" />
<path fill="#fefefe" opacity="1.00" d=" M 32.31 63.68 L 33.09 63.35 L 33.74 63.63 C 34.22 64.97 32.23 66.42 31.12 65.58 C 31.41 65.10 32.01 64.16 32.31 63.68 Z" />
<path fill="#fefefe" opacity="1.00" d=" M 112.11 71.40 C 113.14 71.35 115.21 71.25 116.24 71.21 C 117.17 74.23 117.41 77.40 117.76 80.53 C 115.05 78.06 112.89 75.03 112.11 71.40 Z" />
<path fill="#fefefe" opacity="1.00" d=" M 40.65 85.80 C 44.34 84.07 48.39 84.87 51.82 86.80 C 52.10 87.21 52.67 88.03 52.95 88.44 C 49.68 84.94 44.98 85.23 40.65 85.80 Z" />
<path fill="#fefefe" opacity="1.00" d=" M 36.31 89.32 C 35.94 87.19 38.84 85.66 40.65 85.80 C 39.71 87.45 38.25 88.98 36.31 89.32 Z" />
<path fill="#fefefe" opacity="1.00" d=" M 121.73 102.85 C 124.16 99.48 125.00 95.38 125.74 91.39 C 126.77 92.42 127.80 93.46 128.88 94.44 C 129.25 94.66 129.97 95.09 130.34 95.31 C 131.80 102.00 128.17 108.13 126.68 114.44 C 125.91 118.86 126.40 123.39 126.29 127.85 C 125.73 128.17 124.60 128.81 124.04 129.13 C 122.82 129.83 121.59 130.56 120.66 131.63 C 118.21 135.65 119.70 140.50 120.32 144.82 L 120.43 144.73 C 120.96 144.60 122.03 144.34 122.56 144.21 C 123.49 143.64 124.39 143.02 125.26 142.37 C 125.52 144.78 125.30 147.45 126.92 149.46 C 126.37 150.15 125.83 150.85 125.31 151.55 C 124.71 151.60 123.51 151.69 122.92 151.73 C 122.02 153.31 121.15 154.89 120.35 156.52 C 122.61 160.14 123.38 164.39 124.87 168.33 C 126.37 167.56 127.87 166.79 129.39 166.03 C 130.32 167.86 131.17 169.74 131.89 171.67 C 129.03 174.39 123.06 176.22 123.52 180.84 C 126.06 185.27 128.18 190.52 132.74 193.24 C 131.41 188.70 128.03 185.28 125.71 181.29 C 124.74 180.13 125.81 178.97 126.29 177.88 C 126.45 178.69 126.79 180.30 126.95 181.11 C 127.15 181.23 127.54 181.46 127.74 181.58 C 129.14 179.93 130.09 177.95 131.26 176.15 C 131.88 176.15 133.10 176.17 133.71 176.18 C 133.17 175.12 132.65 174.06 132.13 173.00 C 135.75 176.60 138.29 181.15 140.02 185.91 C 138.52 188.35 135.74 189.49 133.39 190.90 C 133.98 191.47 134.57 192.04 135.17 192.60 C 137.01 191.24 138.88 189.91 140.63 188.43 C 140.60 190.07 140.74 192.04 139.24 193.13 C 135.57 195.60 131.13 196.50 127.03 198.01 C 122.48 195.99 117.43 194.74 113.58 191.44 C 112.01 190.39 110.59 187.83 108.43 188.99 C 108.68 191.02 109.15 193.01 109.51 195.01 C 111.42 196.55 113.35 198.07 115.29 199.59 C 114.83 200.33 113.90 201.83 113.44 202.57 C 118.22 204.65 123.50 203.75 128.44 202.91 C 122.14 206.09 114.28 205.45 108.50 209.91 C 106.09 209.96 103.67 209.95 101.26 210.11 C 101.29 205.47 101.06 200.77 102.21 196.23 C 103.35 192.13 101.26 188.07 101.78 183.94 C 102.28 179.72 102.91 175.51 103.82 171.36 C 105.51 166.69 103.45 161.43 106.03 157.04 C 108.21 151.12 109.14 144.81 111.01 138.79 C 112.09 135.63 112.41 132.31 112.43 129.00 C 114.69 123.48 116.01 117.64 118.19 112.09 C 119.27 108.97 120.13 105.75 121.73 102.85 M 132.68 178.24 C 134.54 179.84 135.28 183.56 137.82 183.82 C 137.98 180.98 134.82 178.96 133.92 176.31 C 133.50 176.95 133.09 177.59 132.68 178.24 M 128.35 184.24 C 129.80 186.12 131.09 188.16 132.88 189.76 C 135.35 189.96 137.06 187.60 138.67 186.10 L 137.92 185.89 C 136.05 185.93 134.70 187.35 133.16 188.21 C 131.96 186.39 130.82 184.51 129.98 182.49 C 129.43 183.07 128.89 183.65 128.35 184.24 Z" />
<path fill="#fefefe" opacity="1.00" d=" M 52.32 93.24 C 54.92 96.98 52.42 102.04 49.01 104.36 C 51.96 101.41 53.72 97.40 52.32 93.24 Z" />
<path fill="#fefefe" opacity="1.00" d=" M 117.24 105.32 C 117.37 106.62 117.46 107.93 117.41 109.23 C 114.94 115.59 111.82 122.04 111.76 128.99 C 112.00 133.83 108.60 137.79 108.09 142.54 C 105.39 141.79 102.67 141.07 99.96 140.35 C 103.78 135.25 105.81 129.19 108.72 123.58 C 110.44 120.13 111.07 116.23 113.03 112.88 C 114.47 110.38 116.12 108.00 117.24 105.32 Z" />
<path fill="#fefefe" opacity="1.00" d=" M 121.48 132.99 C 122.26 132.46 123.83 131.39 124.61 130.86 C 124.54 133.94 124.60 137.02 124.51 140.10 C 124.12 140.48 123.35 141.23 122.97 141.60 L 121.21 141.59 C 121.45 138.73 121.46 135.86 121.48 132.99 Z" />
<path fill="#fefefe" opacity="1.00" d=" M 185.39 145.66 C 186.32 143.15 187.18 140.61 188.03 138.08 C 191.18 144.13 193.40 150.60 196.14 156.84 C 197.64 160.25 198.01 163.99 198.82 167.59 C 199.33 170.53 202.21 172.00 203.95 174.15 C 204.50 178.18 204.36 182.26 204.46 186.32 C 204.10 189.25 203.55 192.16 203.32 195.11 C 202.84 196.17 202.36 197.23 201.91 198.31 C 201.75 195.13 201.36 191.96 200.97 188.80 C 197.66 191.04 194.67 193.73 191.16 195.67 C 191.69 200.54 193.04 205.27 194.38 209.98 C 192.69 209.96 191.01 209.96 189.32 209.97 C 188.55 201.02 186.83 192.15 183.43 183.82 C 181.86 179.65 186.98 178.43 189.29 176.22 C 190.64 170.53 188.63 164.61 186.51 159.34 C 183.51 153.54 178.69 148.65 177.29 142.06 C 179.35 142.50 180.85 143.90 182.21 145.40 C 183.00 145.47 184.59 145.59 185.39 145.66 M 195.70 176.20 C 192.57 178.44 189.34 180.57 186.46 183.12 C 188.74 185.76 189.63 191.08 194.02 190.46 C 196.81 191.07 198.54 188.29 199.28 186.03 C 198.99 182.61 199.19 178.07 195.70 176.20 Z" />
<path fill="#fefefe" opacity="1.00" d=" M 98.09 147.41 C 99.42 148.61 100.79 149.77 102.25 150.81 C 100.67 152.64 99.33 154.87 97.16 156.06 C 94.44 156.44 91.66 156.56 88.97 157.21 C 88.98 157.11 89.00 156.92 89.01 156.83 C 92.32 153.98 95.68 151.09 98.09 147.41 Z" />
<path fill="#fefefe" opacity="1.00" d=" M 124.86 165.91 C 125.60 161.75 119.81 157.62 124.23 154.29 C 125.50 157.51 126.75 160.75 127.79 164.06 L 127.17 165.01 C 126.59 165.24 125.44 165.69 124.86 165.91 Z" />
<path fill="#fefefe" opacity="1.00" d=" M 70.62 161.91 C 73.44 161.07 76.25 160.21 79.09 159.44 C 77.69 161.32 76.12 163.11 75.10 165.24 C 73.85 167.89 74.32 170.91 74.85 173.68 C 74.82 175.31 77.26 179.76 73.83 178.86 C 71.35 173.60 69.82 167.76 70.62 161.91 Z" />
<path fill="#fefefe" opacity="1.00" d=" M 79.63 168.43 C 80.54 168.46 82.36 168.51 83.27 168.54 C 81.89 170.85 80.19 172.96 78.31 174.90 C 78.40 176.37 78.49 177.85 78.58 179.34 C 79.82 179.60 81.05 179.88 82.29 180.16 C 81.30 182.55 79.40 180.55 77.89 180.02 C 77.59 178.36 77.25 176.72 76.82 175.10 C 77.74 172.87 78.70 170.66 79.63 168.43 Z" />
<path fill="#fefefe" opacity="1.00" d=" M 140.85 200.50 C 143.74 203.26 145.75 206.75 147.76 210.16 C 147.48 210.08 146.91 209.93 146.63 209.85 C 144.26 207.05 141.83 204.10 140.85 200.50 Z" />
<path fill="#fefefe" opacity="1.00" d=" M 136.74 209.92 C 138.52 208.96 140.24 207.86 141.95 206.78 C 142.76 207.83 143.60 208.86 144.48 209.87 C 141.90 209.99 139.32 209.98 136.74 209.92 Z" />
</g>
<g id="#5d5757e8">
<path fill="#5d5757" opacity="0.91" d=" M 97.35 42.08 C 97.48 40.91 97.59 39.74 97.67 38.56 C 98.08 40.92 98.32 43.29 98.66 45.65 C 98.99 45.56 99.66 45.39 100.00 45.30 C 102.28 45.90 104.63 46.08 106.95 46.49 C 105.93 49.02 102.31 47.46 100.20 47.87 L 100.77 49.71 C 100.80 50.53 100.85 52.18 100.87 53.01 C 100.25 52.41 99.63 51.80 99.03 51.18 C 97.27 49.33 96.56 46.67 96.45 44.18 L 96.45 43.90 C 96.68 43.45 97.13 42.54 97.35 42.08 Z" />
<path fill="#5d5757" opacity="0.91" d=" M 154.64 44.24 C 155.18 41.69 157.30 44.62 155.06 45.06 L 154.64 44.24 Z" />
<path fill="#5d5757" opacity="0.91" d=" M 154.53 46.53 C 156.12 45.93 157.71 45.32 159.28 44.65 C 163.11 48.05 164.38 53.41 167.34 57.54 L 167.25 58.07 C 167.19 58.46 167.07 59.24 167.01 59.63 C 166.37 58.98 165.09 57.69 164.45 57.05 C 164.93 60.77 164.58 64.46 162.88 67.84 C 161.01 72.58 159.64 77.80 155.74 81.36 C 154.22 81.83 152.32 81.81 151.38 83.32 C 148.91 86.46 146.52 89.73 143.35 92.23 C 138.69 93.77 133.77 94.33 128.88 94.44 C 127.80 93.46 126.77 92.42 125.74 91.39 C 125.00 95.38 124.16 99.48 121.73 102.85 C 121.30 103.04 120.45 103.43 120.02 103.62 C 121.26 100.66 122.10 97.52 121.64 94.29 C 122.62 92.31 123.43 90.25 123.81 88.07 C 122.16 86.96 119.89 86.10 119.34 83.96 C 118.99 81.50 118.86 79.02 118.76 76.53 C 119.08 77.67 119.48 78.79 119.94 79.88 C 121.42 80.71 122.84 80.10 124.09 79.21 C 124.90 77.78 125.12 75.28 127.25 75.33 C 128.74 74.79 129.89 76.07 131.07 76.71 C 126.91 77.80 123.50 80.67 119.26 81.56 C 120.32 84.42 123.72 83.90 126.17 84.29 C 125.08 84.67 123.99 85.05 122.91 85.46 C 123.34 85.93 123.77 86.40 124.20 86.88 C 126.03 88.74 127.83 91.03 130.50 91.67 C 133.26 92.05 136.08 91.74 138.84 91.42 C 144.53 89.41 148.35 84.66 151.99 80.13 C 152.85 79.15 153.71 78.19 154.57 77.22 C 155.48 77.31 156.39 77.40 157.30 77.50 C 156.50 76.66 155.69 75.82 154.89 74.98 C 155.66 73.86 156.43 72.74 157.21 71.63 C 157.41 72.52 157.79 74.31 157.98 75.21 C 160.16 70.36 162.32 65.43 163.25 60.17 C 161.57 61.54 159.97 62.99 158.39 64.46 C 158.32 66.44 158.23 68.43 158.05 70.40 C 157.49 68.84 156.94 67.28 156.45 65.70 C 155.53 62.43 155.14 58.73 152.25 56.49 C 153.41 56.12 154.56 55.75 155.72 55.38 C 155.95 55.03 156.40 54.33 156.62 53.98 C 156.26 52.28 155.90 50.57 155.54 48.87 C 154.87 49.13 154.20 49.40 153.54 49.68 C 153.64 48.73 153.74 47.77 153.84 46.82 C 154.01 46.75 154.35 46.61 154.53 46.53 M 158.48 46.60 C 157.13 50.49 159.48 54.84 156.25 58.08 C 156.43 59.56 156.60 61.04 156.76 62.53 C 157.13 62.61 157.86 62.76 158.23 62.84 C 159.43 60.40 160.87 58.07 162.78 56.11 C 162.96 52.47 161.17 48.97 158.48 46.60 Z" />
<path fill="#5d5757" opacity="0.91" d=" M 23.05 51.64 C 25.49 51.11 28.03 51.30 30.27 52.44 C 27.64 50.80 24.61 51.70 22.00 52.84 C 22.26 52.54 22.79 51.94 23.05 51.64 Z" />
<path fill="#5d5757" opacity="0.91" d=" M 153.01 50.83 C 154.28 51.49 154.26 52.18 152.96 52.90 C 151.68 52.23 151.70 51.54 153.01 50.83 Z" />
<path fill="#5d5757" opacity="0.91" d=" M 127.52 71.45 C 129.79 71.34 132.28 71.84 132.73 74.54 C 129.86 74.19 126.85 73.96 124.33 75.69 C 124.23 73.59 126.30 72.73 127.52 71.45 Z" />
<path fill="#5d5757" opacity="0.91" d=" M 5.20 87.26 C 9.72 83.61 16.86 83.83 21.06 87.87 C 20.11 84.45 23.64 85.23 25.55 85.42 C 25.89 91.85 25.60 98.30 25.73 104.74 C 25.54 104.73 25.16 104.71 24.97 104.70 C 23.89 98.35 25.74 91.74 24.05 85.51 C 23.59 85.66 22.67 85.96 22.22 86.12 C 22.07 86.52 21.77 87.33 21.62 87.74 C 21.65 94.37 21.29 101.02 21.89 107.64 L 22.00 108.01 C 21.65 107.63 20.95 106.89 20.60 106.52 C 16.34 110.42 8.97 110.25 4.96 106.07 C 2.81 104.30 1.79 101.66 0.57 99.25 C 0.60 97.49 0.61 95.74 0.62 93.99 C 2.17 91.77 3.17 89.12 5.20 87.26 M 1.52 96.97 C 1.38 104.00 8.81 110.16 15.69 108.13 C 17.45 107.45 20.91 106.54 19.01 104.10 C 15.37 104.37 10.94 106.87 7.92 103.22 C 5.10 101.09 3.75 97.12 5.35 93.85 C 6.11 91.12 8.71 89.82 10.99 88.57 C 12.29 89.40 13.61 89.45 14.97 88.71 C 16.28 89.19 17.57 90.33 19.06 90.01 C 21.20 87.32 17.18 85.93 15.08 85.54 C 8.25 83.98 1.30 90.08 1.52 96.97 M 5.50 98.03 C 6.18 99.81 7.11 101.49 7.92 103.22 C 10.19 104.09 12.53 104.86 15.00 104.79 C 15.97 104.00 16.96 103.22 17.96 102.46 C 18.50 102.63 19.59 102.96 20.13 103.12 L 20.84 102.74 C 20.84 99.03 20.66 95.32 20.93 91.61 L 20.29 90.87 C 16.84 90.24 13.32 89.94 9.84 89.46 C 7.05 91.31 5.30 94.70 5.50 98.03 Z" />
<path fill="#5d5757" opacity="0.91" d=" M 127.15 86.14 C 129.39 85.25 131.67 84.47 134.03 83.94 C 132.64 86.69 129.82 86.98 127.15 86.14 Z" />
<path fill="#5d5757" opacity="0.91" d=" M 117.15 103.99 C 117.58 101.47 118.69 99.15 119.94 96.95 C 119.46 99.46 118.67 101.91 117.15 103.99 Z" />
<path fill="#5d5757" opacity="0.91" d=" M 111.52 111.46 C 113.25 108.88 114.15 105.54 117.12 104.03 L 117.24 105.32 C 116.12 108.00 114.47 110.38 113.03 112.88 C 111.07 116.23 110.44 120.13 108.72 123.58 C 105.81 129.19 103.78 135.25 99.96 140.35 C 102.67 141.07 105.39 141.79 108.09 142.54 C 108.60 137.79 112.00 133.83 111.76 128.99 C 111.82 122.04 114.94 115.59 117.41 109.23 C 117.60 109.95 118.00 111.37 118.19 112.09 C 116.01 117.64 114.69 123.48 112.43 129.00 C 112.41 132.31 112.09 135.63 111.01 138.79 C 109.14 144.81 108.21 151.12 106.03 157.04 C 103.45 161.43 105.51 166.69 103.82 171.36 C 103.40 171.00 102.57 170.29 102.15 169.93 C 102.06 169.21 101.87 167.77 101.78 167.05 C 101.45 167.54 100.78 168.51 100.44 169.00 C 97.91 171.43 93.33 170.80 91.85 174.55 C 90.27 176.08 88.59 177.49 86.97 178.98 C 85.32 180.41 83.99 182.21 82.13 183.39 C 79.72 183.78 77.33 182.96 74.94 182.68 C 73.12 181.11 71.09 179.43 70.63 176.92 C 69.66 172.98 68.08 169.11 68.31 164.98 C 67.87 161.82 70.95 159.61 73.56 158.65 C 77.40 157.72 80.90 155.65 84.89 155.36 C 87.00 155.08 88.90 154.08 90.80 153.19 C 92.72 150.30 95.28 147.94 97.57 145.37 C 96.50 140.39 99.82 136.40 102.60 132.75 C 104.03 127.21 107.50 122.50 109.08 117.02 C 109.55 115.02 110.37 113.14 111.52 111.46 M 98.09 147.41 C 95.68 151.09 92.32 153.98 89.01 156.83 L 89.07 156.05 C 86.36 158.33 82.53 157.72 79.39 159.05 L 79.09 159.44 C 76.25 160.21 73.44 161.07 70.62 161.91 C 69.82 167.76 71.35 173.60 73.83 178.86 C 77.26 179.76 74.82 175.31 74.85 173.68 C 76.92 169.79 78.10 165.52 79.89 161.50 C 80.39 161.45 81.37 161.34 81.87 161.29 C 81.51 163.78 80.47 166.08 79.63 168.43 C 78.70 170.66 77.74 172.87 76.82 175.10 C 77.25 176.72 77.59 178.36 77.89 180.02 C 79.40 180.55 81.30 182.55 82.29 180.16 C 81.71 178.27 81.09 176.40 80.40 174.55 C 81.52 174.61 82.65 174.68 83.78 174.64 C 85.69 173.51 86.57 170.80 88.99 170.57 C 93.67 169.77 98.44 168.19 102.23 165.29 C 104.49 161.44 104.13 156.68 105.56 152.50 C 104.47 151.91 103.36 151.34 102.25 150.81 C 100.79 149.77 99.42 148.61 98.09 147.41 M 83.27 177.41 C 86.21 178.05 90.07 175.24 89.84 172.04 C 87.56 173.71 85.42 175.56 83.27 177.41 Z" />
<path fill="#5d5757" opacity="0.91" d=" M 194.08 111.59 C 194.31 110.96 194.77 109.71 195.00 109.08 C 195.15 109.44 195.46 110.15 195.62 110.51 C 195.25 114.48 194.75 118.65 196.40 122.43 C 199.04 128.59 199.84 135.28 201.66 141.69 C 202.24 141.49 203.41 141.10 203.99 140.90 C 203.43 141.94 202.86 142.98 202.29 144.02 C 202.58 149.22 205.20 153.93 204.83 159.15 C 207.20 167.21 206.07 175.73 206.36 184.01 C 206.40 192.74 202.06 200.57 201.36 209.19 L 200.51 208.40 C 200.28 204.97 201.32 201.65 201.91 198.31 C 202.36 197.23 202.84 196.17 203.32 195.11 C 203.55 192.16 204.10 189.25 204.46 186.32 C 205.04 181.34 204.91 176.32 204.83 171.32 C 205.11 166.16 204.87 160.99 204.39 155.86 C 204.28 154.70 203.67 153.82 202.58 153.22 C 202.05 147.05 199.67 141.25 198.82 135.14 C 198.31 130.68 196.21 126.70 194.54 122.61 C 192.91 119.12 194.10 115.26 194.08 111.59 Z" />
<path fill="#5d5757" opacity="0.91" d=" M 148.38 111.14 C 149.02 111.44 150.28 112.05 150.92 112.35 C 150.23 116.04 149.99 119.87 150.96 123.53 C 151.71 127.16 154.61 129.75 156.07 133.04 C 156.44 144.13 159.07 155.07 162.71 165.52 C 164.55 171.08 165.20 176.98 167.41 182.43 C 168.07 184.49 169.32 186.56 168.88 188.81 C 167.68 195.90 166.05 202.92 164.60 209.96 C 163.99 209.94 162.75 209.90 162.13 209.88 C 163.04 206.84 163.75 203.75 164.56 200.69 C 163.35 201.38 162.13 202.06 160.96 202.80 C 160.00 203.54 159.07 204.33 158.19 205.16 C 157.84 205.46 157.15 206.07 156.81 206.38 C 152.82 203.08 149.78 198.80 145.65 195.65 C 144.18 197.05 142.86 198.58 141.70 200.24 C 143.21 199.49 144.72 198.72 146.22 197.93 C 148.69 200.58 151.25 203.16 153.28 206.17 C 150.15 204.66 147.93 201.95 145.20 199.91 C 145.01 200.39 144.63 201.35 144.44 201.83 C 146.31 204.53 148.30 207.16 149.93 210.02 C 151.38 208.48 152.79 206.90 154.14 205.26 C 156.37 207.25 154.05 208.81 152.51 210.14 C 150.92 210.06 149.34 210.08 147.76 210.16 C 145.75 206.75 143.74 203.26 140.85 200.50 C 141.83 204.10 144.26 207.05 146.63 209.85 C 146.09 209.85 145.02 209.86 144.48 209.87 C 143.60 208.86 142.76 207.83 141.95 206.78 C 140.62 204.95 139.10 202.83 139.58 200.44 C 140.76 197.87 142.69 195.61 145.02 194.01 C 146.07 194.44 147.09 194.91 148.10 195.43 C 153.35 190.81 159.14 186.84 164.23 182.05 C 162.78 177.89 162.32 173.50 161.51 169.20 C 160.41 165.65 159.67 162.01 159.00 158.35 C 156.93 154.33 156.44 149.78 155.34 145.45 C 154.21 141.48 154.07 137.33 154.51 133.25 C 153.27 131.84 152.00 130.46 150.78 129.04 C 148.09 123.43 148.40 117.18 148.38 111.14 M 149.68 196.37 C 151.73 198.99 153.84 201.58 156.02 204.09 C 158.44 202.16 161.26 200.52 163.04 197.92 C 163.88 193.61 165.46 189.44 165.72 185.03 C 159.34 187.12 155.16 192.77 149.68 196.37 Z" />
<path fill="#5d5757" opacity="0.91" d=" M 132.68 178.24 C 133.09 177.59 133.50 176.95 133.92 176.31 C 134.82 178.96 137.98 180.98 137.82 183.82 C 135.28 183.56 134.54 179.84 132.68 178.24 Z" />
<path fill="#5d5757" opacity="0.91" d=" M 128.35 184.24 C 128.89 183.65 129.43 183.07 129.98 182.49 C 130.82 184.51 131.96 186.39 133.16 188.21 C 134.70 187.35 136.05 185.93 137.92 185.89 L 138.67 186.10 C 137.06 187.60 135.35 189.96 132.88 189.76 C 131.09 188.16 129.80 186.12 128.35 184.24 Z" />
</g>
<g id="#c4c4c4ff">
<path fill="#c4c4c4" opacity="1.00" d=" M 133.18 42.33 C 137.17 43.94 140.69 46.38 143.56 49.58 C 145.34 52.28 148.44 48.34 150.64 50.37 C 149.21 50.98 147.75 51.54 146.28 52.08 C 148.31 54.30 150.33 56.57 151.87 59.17 C 154.11 62.84 154.67 67.18 155.83 71.25 C 156.06 69.40 156.29 67.55 156.45 65.70 C 156.94 67.28 157.49 68.84 158.05 70.40 C 158.23 68.43 158.32 66.44 158.39 64.46 C 159.97 62.99 161.57 61.54 163.25 60.17 C 162.32 65.43 160.16 70.36 157.98 75.21 C 157.79 74.31 157.41 72.52 157.21 71.63 C 156.43 72.74 155.66 73.86 154.89 74.98 C 155.69 75.82 156.50 76.66 157.30 77.50 C 156.39 77.40 155.48 77.31 154.57 77.22 C 153.71 78.19 152.85 79.15 151.99 80.13 C 151.35 75.75 153.24 71.09 151.14 66.97 C 149.11 63.47 145.68 61.04 143.59 57.58 C 140.78 53.10 137.55 48.87 133.71 45.23 C 133.58 44.50 133.31 43.06 133.18 42.33 Z" />
<path fill="#c4c4c4" opacity="1.00" d=" M 2.39 50.31 C 4.16 48.80 6.13 47.58 8.23 46.60 C 10.86 47.42 13.18 48.88 15.00 50.96 C 14.05 51.94 13.11 52.91 12.15 53.88 C 11.13 53.03 10.13 52.15 9.04 51.39 C 6.52 50.88 6.38 53.18 6.02 55.01 C 9.34 56.20 12.64 57.78 14.66 60.83 C 15.07 58.38 15.15 55.79 16.22 53.50 L 16.82 52.83 C 15.31 55.85 14.98 59.25 15.27 62.57 L 16.39 62.50 C 17.37 66.98 21.35 70.80 26.08 70.72 C 33.35 71.30 39.83 63.54 37.78 56.52 C 36.84 52.33 33.10 49.79 29.91 47.33 C 33.64 48.72 36.55 51.94 38.36 55.41 C 38.78 58.70 39.06 62.39 37.12 65.28 C 34.48 69.37 29.29 71.87 24.46 71.11 C 21.39 70.13 17.69 68.72 16.80 65.22 C 14.11 67.31 12.55 71.11 8.85 71.65 C 5.28 72.47 2.71 69.46 0.00 67.73 L 0.00 66.25 C 0.98 65.74 1.96 65.23 2.95 64.73 C 4.83 65.71 6.70 67.37 8.98 66.82 C 10.35 66.16 10.95 64.52 11.13 63.10 C 10.56 62.25 9.85 61.53 9.01 60.95 C 6.47 60.41 4.48 58.73 2.50 57.17 C 2.12 54.90 2.13 52.60 2.39 50.31 M 4.04 50.08 C 1.03 52.90 3.04 57.29 5.97 59.26 C 9.40 59.19 12.62 61.78 11.44 65.48 C 10.78 66.11 10.13 66.74 9.48 67.37 C 8.24 67.39 6.99 67.41 5.75 67.44 C 5.18 66.93 4.05 65.93 3.48 65.42 C 2.69 66.02 1.90 66.63 1.13 67.25 C 2.70 68.38 4.21 69.61 5.89 70.57 C 10.82 71.95 16.94 65.93 13.85 61.19 C 12.43 57.81 8.48 57.13 5.64 55.38 C 5.63 54.41 5.63 53.44 5.62 52.46 C 6.25 51.85 6.87 51.24 7.50 50.62 C 7.95 50.64 8.86 50.68 9.31 50.70 C 10.50 51.82 13.42 54.07 13.80 51.01 C 11.65 47.77 6.62 46.81 4.04 50.08 Z" />
<path fill="#c4c4c4" opacity="1.00" d=" M 153.54 49.68 C 154.20 49.40 154.87 49.13 155.54 48.87 C 155.90 50.57 156.26 52.28 156.62 53.98 C 156.40 54.33 155.95 55.03 155.72 55.38 C 154.56 55.75 153.41 56.12 152.25 56.49 C 151.66 55.36 151.14 54.17 150.85 52.93 C 150.01 51.14 152.52 50.49 153.54 49.68 M 153.01 50.83 C 151.70 51.54 151.68 52.23 152.96 52.90 C 154.26 52.18 154.28 51.49 153.01 50.83 Z" />
<path fill="#c4c4c4" opacity="1.00" d=" M 21.42 51.43 C 25.81 49.59 30.61 50.97 33.87 54.28 C 32.96 53.80 32.05 53.32 31.13 52.86 L 30.27 52.44 C 28.03 51.30 25.49 51.11 23.05 51.64 C 22.79 51.94 22.26 52.54 22.00 52.84 C 18.65 55.78 17.88 61.47 21.29 64.67 C 23.42 67.08 26.90 67.10 29.80 66.41 L 29.69 67.37 C 26.70 67.41 23.21 67.85 21.14 65.17 C 16.78 61.65 18.50 55.29 21.42 51.43 Z" />
<path fill="#c4c4c4" opacity="1.00" d=" M 105.45 59.60 C 108.90 60.29 112.67 60.68 115.63 62.71 L 115.14 62.92 C 114.59 63.27 113.48 63.96 112.92 64.31 C 111.68 64.38 110.44 64.43 109.21 64.48 C 107.94 62.86 106.67 61.25 105.45 59.60 Z" />
<path fill="#c4c4c4" opacity="1.00" d=" M 163.08 70.07 C 164.44 67.47 165.84 64.88 167.54 62.48 C 167.43 65.92 167.35 69.55 165.65 72.65 C 163.98 76.02 161.18 78.65 159.42 81.96 C 159.44 84.08 159.97 86.15 160.37 88.22 C 157.96 91.93 153.90 94.89 153.41 99.57 C 152.85 103.88 151.99 108.14 150.92 112.35 C 150.28 112.05 149.02 111.44 148.38 111.14 C 148.40 117.18 148.09 123.43 150.78 129.04 C 151.36 134.03 152.23 138.98 153.95 143.72 C 153.64 144.09 153.01 144.82 152.70 145.19 C 147.20 148.31 142.62 152.72 137.44 156.32 C 134.97 158.28 131.74 159.88 130.91 163.19 C 139.03 157.57 146.53 151.10 154.58 145.38 L 155.34 145.45 C 156.44 149.78 156.93 154.33 159.00 158.35 C 159.67 162.01 160.41 165.65 161.51 169.20 C 162.32 173.50 162.78 177.89 164.23 182.05 C 159.14 186.84 153.35 190.81 148.10 195.43 C 147.09 194.91 146.07 194.44 145.02 194.01 C 142.69 195.61 140.76 197.87 139.58 200.44 C 139.10 202.83 140.62 204.95 141.95 206.78 C 140.24 207.86 138.52 208.96 136.74 209.92 C 127.33 210.01 117.91 209.97 108.50 209.91 C 114.28 205.45 122.14 206.09 128.44 202.91 C 123.50 203.75 118.22 204.65 113.44 202.57 C 113.90 201.83 114.83 200.33 115.29 199.59 C 113.35 198.07 111.42 196.55 109.51 195.01 C 109.15 193.01 108.68 191.02 108.43 188.99 C 110.59 187.83 112.01 190.39 113.58 191.44 C 117.43 194.74 122.48 195.99 127.03 198.01 C 131.13 196.50 135.57 195.60 139.24 193.13 C 140.74 192.04 140.60 190.07 140.63 188.43 C 141.77 186.74 142.58 184.73 144.28 183.51 C 149.61 179.82 155.19 176.42 160.10 172.16 C 160.05 171.90 159.93 171.37 159.87 171.11 C 158.57 170.22 157.46 171.57 156.39 172.19 C 151.55 175.87 146.60 179.39 141.46 182.62 C 139.55 179.74 137.47 176.94 136.03 173.78 C 141.47 168.39 148.37 164.77 154.97 161.01 C 156.35 160.29 157.04 158.84 157.76 157.55 C 149.10 160.50 141.79 166.28 134.57 171.73 C 133.67 171.71 132.78 171.69 131.89 171.67 C 131.17 169.74 130.32 167.86 129.39 166.03 C 129.68 165.40 129.98 164.76 130.27 164.14 C 129.01 160.33 127.27 156.65 126.47 152.71 C 128.87 149.25 132.75 147.38 136.22 145.21 C 140.19 142.84 143.49 139.57 147.17 136.80 C 147.27 136.35 147.47 135.45 147.57 134.99 C 143.09 137.62 139.45 141.41 135.00 144.08 C 132.25 145.78 129.45 147.44 126.92 149.46 C 125.30 147.45 125.52 144.78 125.26 142.37 C 128.14 139.54 130.80 136.48 133.99 133.97 C 137.22 131.25 141.04 129.08 143.34 125.41 C 136.55 128.73 131.31 134.47 125.54 139.25 C 125.48 135.96 125.47 132.66 125.31 129.36 C 124.99 129.30 124.36 129.19 124.04 129.13 C 124.60 128.81 125.73 128.17 126.29 127.85 C 126.40 123.39 125.91 118.86 126.68 114.44 C 128.17 108.13 131.80 102.00 130.34 95.31 C 132.14 96.23 134.00 97.18 136.04 97.39 C 138.84 96.25 141.07 94.14 143.35 92.23 C 146.52 89.73 148.91 86.46 151.38 83.32 C 152.32 81.81 154.22 81.83 155.74 81.36 C 159.64 77.80 161.01 72.58 162.88 67.84 C 162.93 68.40 163.03 69.52 163.08 70.07 M 132.92 122.93 C 130.82 125.16 127.61 126.92 127.18 130.21 C 130.35 128.12 132.64 125.03 135.62 122.71 C 137.99 120.84 140.37 118.90 142.09 116.37 C 138.23 117.18 135.91 120.67 132.92 122.93 Z" />
<path fill="#c4c4c4" opacity="1.00" d=" M 134.03 83.94 C 134.60 83.79 135.74 83.48 136.31 83.33 C 134.68 85.89 132.67 88.18 130.46 90.26 C 133.26 90.62 136.05 91.02 138.84 91.42 C 136.08 91.74 133.26 92.05 130.50 91.67 C 127.83 91.03 126.03 88.74 124.20 86.88 C 125.18 86.63 126.17 86.38 127.15 86.14 C 129.82 86.98 132.64 86.69 134.03 83.94 Z" />
<path fill="#c4c4c4" opacity="1.00" d=" M 60.65 85.77 C 63.98 85.07 68.06 84.78 70.20 88.03 C 70.37 86.70 71.00 84.22 72.92 84.68 C 77.07 84.60 81.22 84.78 85.37 84.58 C 86.80 85.82 87.34 88.46 85.14 89.25 C 81.71 89.73 78.21 89.38 74.76 89.28 C 74.69 91.32 74.49 93.35 74.41 95.39 C 77.44 95.24 80.55 94.46 83.51 95.51 C 83.41 96.89 83.82 98.62 82.22 99.31 C 79.59 99.48 76.96 99.36 74.33 99.41 L 74.32 98.66 C 77.23 98.65 80.15 98.62 83.06 98.54 C 82.85 97.79 82.44 96.28 82.24 95.53 C 79.60 95.27 76.95 95.51 74.31 95.66 C 74.24 93.26 74.17 90.87 74.18 88.48 C 77.99 88.50 81.81 88.51 85.63 88.51 C 85.67 87.75 85.76 86.22 85.80 85.46 C 80.97 85.44 76.14 85.43 71.31 85.43 C 71.30 93.08 71.04 100.74 71.47 108.38 C 76.05 108.41 80.66 108.72 85.23 108.26 C 85.45 107.52 85.89 106.02 86.11 105.28 C 82.19 105.07 78.26 105.35 74.34 105.34 C 78.27 104.28 82.38 104.97 86.39 104.77 C 86.46 106.10 86.50 107.43 86.53 108.76 C 81.17 108.73 75.80 108.97 70.46 108.60 C 70.53 107.79 70.66 106.16 70.73 105.35 C 70.43 105.40 69.83 105.52 69.52 105.58 C 70.03 103.70 70.51 101.81 70.94 99.92 C 68.72 97.16 66.18 94.32 62.41 93.98 C 61.86 92.46 60.84 90.63 62.30 89.25 C 64.35 86.57 68.23 92.45 69.84 89.04 C 68.51 87.16 66.58 85.18 64.05 85.46 C 61.73 85.51 60.08 87.35 58.35 88.64 C 58.32 90.61 58.27 92.58 58.21 94.56 C 60.69 96.23 63.48 97.36 66.01 98.95 C 68.33 100.36 67.53 104.04 65.15 104.94 C 62.79 106.51 60.51 102.97 58.20 104.21 C 56.48 105.97 59.52 107.04 60.70 107.93 C 63.67 109.88 66.73 107.36 69.39 106.10 C 67.42 108.30 64.60 109.32 61.69 109.35 C 59.67 108.17 57.86 106.65 56.33 104.88 C 57.05 103.37 58.04 102.09 59.87 102.37 C 61.01 104.06 62.83 105.54 64.98 104.67 C 67.16 104.14 66.28 101.33 66.58 99.73 C 64.01 98.25 61.29 97.08 58.70 95.65 C 58.28 96.79 57.79 97.90 57.34 99.02 C 57.20 96.79 56.97 94.56 56.50 92.38 C 57.73 90.12 58.09 87.01 60.65 85.77 M 63.04 89.95 C 61.95 90.83 62.22 92.14 62.32 93.36 C 65.77 93.27 68.14 95.79 70.44 97.96 C 70.56 95.22 70.53 92.48 70.56 89.75 C 68.02 91.94 65.59 88.63 63.04 89.95 Z" />
<path fill="#c4c4c4" opacity="1.00" d=" M 38.69 91.56 C 40.96 88.61 45.54 87.41 48.71 89.62 C 46.42 89.43 44.11 89.37 41.81 89.28 C 37.26 92.41 37.06 98.72 39.82 103.12 C 42.64 104.76 45.84 105.21 49.01 104.36 C 45.99 105.68 42.30 105.31 39.68 103.31 C 38.24 101.80 37.43 99.82 36.39 98.05 C 36.82 95.79 37.18 93.38 38.69 91.56 Z" />
<path fill="#c4c4c4" opacity="1.00" d=" M 166.63 96.72 C 169.24 93.75 172.94 90.95 177.10 91.36 C 183.41 92.86 187.85 97.87 192.52 102.00 C 192.57 104.58 192.58 107.17 192.91 109.74 C 193.20 110.20 193.79 111.13 194.08 111.59 C 194.10 115.26 192.91 119.12 194.54 122.61 C 196.21 126.70 198.31 130.68 198.82 135.14 C 199.67 141.25 202.05 147.05 202.58 153.22 C 202.66 159.31 203.29 165.41 204.83 171.32 C 204.91 176.32 205.04 181.34 204.46 186.32 C 204.36 182.26 204.50 178.18 203.95 174.15 C 202.21 172.00 199.33 170.53 198.82 167.59 C 198.01 163.99 197.64 160.25 196.14 156.84 C 193.40 150.60 191.18 144.13 188.03 138.08 C 187.18 140.61 186.32 143.15 185.39 145.66 C 184.59 145.59 183.00 145.47 182.21 145.40 C 180.85 143.90 179.35 142.50 177.29 142.06 C 178.69 148.65 183.51 153.54 186.51 159.34 C 188.63 164.61 190.64 170.53 189.29 176.22 C 186.98 178.43 181.86 179.65 183.43 183.82 C 186.83 192.15 188.55 201.02 189.32 209.97 C 181.08 209.95 172.84 209.97 164.60 209.96 C 166.05 202.92 167.68 195.90 168.88 188.81 C 169.32 186.56 168.07 184.49 167.41 182.43 C 165.20 176.98 164.55 171.08 162.71 165.52 C 159.07 155.07 156.44 144.13 156.07 133.04 C 154.61 129.75 151.71 127.16 150.96 123.53 C 151.18 119.48 151.82 115.37 153.81 111.77 C 156.45 105.53 162.25 101.64 166.63 96.72 Z" />
<path fill="#c4c4c4" opacity="1.00" d=" M 106.54 108.44 C 104.39 106.82 105.50 102.93 108.05 102.38 C 109.62 101.96 110.63 103.51 111.63 104.42 C 111.47 105.63 111.39 106.86 111.10 108.06 C 109.67 108.57 107.98 109.25 106.54 108.44 M 107.18 104.10 C 106.90 104.98 106.32 106.74 106.03 107.62 C 107.66 107.69 109.29 107.73 110.92 107.72 C 110.64 106.82 110.08 105.02 109.79 104.12 C 109.14 104.11 107.84 104.10 107.18 104.10 Z" />
<path fill="#c4c4c4" opacity="1.00" d=" M 201.82 108.72 C 203.45 111.95 203.72 115.57 204.00 119.12 C 202.87 115.75 202.37 112.22 201.82 108.72 Z" />
<path fill="#c4c4c4" opacity="1.00" d=" M 196.40 122.43 C 194.75 118.65 195.25 114.48 195.62 110.51 C 195.82 110.92 196.22 111.75 196.42 112.16 C 197.12 112.41 197.83 112.65 198.54 112.88 C 203.61 118.82 202.95 127.20 206.69 133.71 C 205.61 136.01 204.46 138.31 204.10 140.87 L 203.99 140.90 C 203.41 141.10 202.24 141.49 201.66 141.69 C 199.84 135.28 199.04 128.59 196.40 122.43 Z" />
<path fill="#c4c4c4" opacity="1.00" d=" M 120.32 144.82 C 119.70 140.50 118.21 135.65 120.66 131.63 C 120.54 134.94 120.20 138.37 121.21 141.59 L 122.97 141.60 C 122.06 142.59 121.26 143.67 120.43 144.73 L 120.32 144.82 Z" />
<path fill="#c4c4c4" opacity="1.00" d=" M 102.25 150.81 C 103.36 151.34 104.47 151.91 105.56 152.50 C 104.13 156.68 104.49 161.44 102.23 165.29 C 98.44 168.19 93.67 169.77 88.99 170.57 C 86.57 170.80 85.69 173.51 83.78 174.64 C 82.65 174.68 81.52 174.61 80.40 174.55 C 81.09 176.40 81.71 178.27 82.29 180.16 C 81.05 179.88 79.82 179.60 78.58 179.34 C 78.49 177.85 78.40 176.37 78.31 174.90 C 80.19 172.96 81.89 170.85 83.27 168.54 C 82.36 168.51 80.54 168.46 79.63 168.43 C 80.47 166.08 81.51 163.78 81.87 161.29 C 81.37 161.34 80.39 161.45 79.89 161.50 C 78.10 165.52 76.92 169.79 74.85 173.68 C 74.32 170.91 73.85 167.89 75.10 165.24 C 76.12 163.11 77.69 161.32 79.09 159.44 L 79.39 159.05 C 82.53 157.72 86.36 158.33 89.07 156.05 L 89.01 156.83 C 89.00 156.92 88.98 157.11 88.97 157.21 C 91.66 156.56 94.44 156.44 97.16 156.06 C 99.33 154.87 100.67 152.64 102.25 150.81 Z" />
<path fill="#c4c4c4" opacity="1.00" d=" M 83.27 177.41 C 85.42 175.56 87.56 173.71 89.84 172.04 C 90.07 175.24 86.21 178.05 83.27 177.41 Z" />
<path fill="#c4c4c4" opacity="1.00" d=" M 86.97 178.98 C 88.59 177.49 90.27 176.08 91.85 174.55 C 90.79 176.55 89.12 178.19 86.97 178.98 Z" />
<path fill="#c4c4c4" opacity="1.00" d=" M 195.70 176.20 C 199.19 178.07 198.99 182.61 199.28 186.03 C 198.54 188.29 196.81 191.07 194.02 190.46 C 189.63 191.08 188.74 185.76 186.46 183.12 C 189.34 180.57 192.57 178.44 195.70 176.20 Z" />
<path fill="#c4c4c4" opacity="1.00" d=" M 149.68 196.37 C 155.16 192.77 159.34 187.12 165.72 185.03 C 165.46 189.44 163.88 193.61 163.04 197.92 C 161.26 200.52 158.44 202.16 156.02 204.09 C 153.84 201.58 151.73 198.99 149.68 196.37 Z" />
<path fill="#c4c4c4" opacity="1.00" d=" M 191.16 195.67 C 194.67 193.73 197.66 191.04 200.97 188.80 C 201.36 191.96 201.75 195.13 201.91 198.31 C 201.32 201.65 200.28 204.97 200.51 208.40 L 200.59 209.87 C 198.51 209.93 196.45 209.97 194.38 209.98 C 193.04 205.27 191.69 200.54 191.16 195.67 Z" />
<path fill="#c4c4c4" opacity="1.00" d=" M 141.70 200.24 C 142.86 198.58 144.18 197.05 145.65 195.65 C 149.78 198.80 152.82 203.08 156.81 206.38 L 156.94 206.77 C 155.99 208.56 154.78 210.22 152.51 210.14 C 154.05 208.81 156.37 207.25 154.14 205.26 C 152.79 206.90 151.38 208.48 149.93 210.02 C 148.30 207.16 146.31 204.53 144.44 201.83 C 144.63 201.35 145.01 200.39 145.20 199.91 C 147.93 201.95 150.15 204.66 153.28 206.17 C 151.25 203.16 148.69 200.58 146.22 197.93 C 144.72 198.72 143.21 199.49 141.70 200.24 Z" />
<path fill="#c4c4c4" opacity="1.00" d=" M 158.19 205.16 C 159.07 204.33 160.00 203.54 160.96 202.80 C 160.40 205.22 159.85 207.65 159.32 210.08 C 157.93 209.97 156.54 209.87 155.15 209.77 C 156.75 208.63 158.00 207.19 158.19 205.16 Z" />
</g>
<g id="#fc0d0dfd">
<path fill="#fc0d0d" opacity="1.00" d=" M 16.82 52.83 C 19.87 48.87 24.62 46.82 29.60 47.21 L 29.91 47.33 C 33.10 49.79 36.84 52.33 37.78 56.52 C 39.83 63.54 33.35 71.30 26.08 70.72 C 21.35 70.80 17.37 66.98 16.39 62.50 L 15.27 62.57 C 14.98 59.25 15.31 55.85 16.82 52.83 M 21.42 51.43 C 18.50 55.29 16.78 61.65 21.14 65.17 C 23.21 67.85 26.70 67.41 29.69 67.37 L 29.80 66.41 C 30.13 66.20 30.79 65.79 31.12 65.58 C 32.23 66.42 34.22 64.97 33.74 63.63 L 33.73 62.80 L 34.18 63.16 L 34.84 62.35 C 34.73 61.77 34.52 60.61 34.41 60.03 L 35.65 59.01 L 34.39 57.99 L 34.92 57.03 C 34.75 56.48 34.40 55.36 34.23 54.81 L 33.79 55.17 L 33.87 54.28 C 30.61 50.97 25.81 49.59 21.42 51.43 Z" />
<path fill="#fc0d0d" opacity="1.00" d=" M 4.04 50.08 C 6.62 46.81 11.65 47.77 13.80 51.01 C 13.42 54.07 10.50 51.82 9.31 50.70 C 8.86 50.68 7.95 50.64 7.50 50.62 C 6.87 51.24 6.25 51.85 5.62 52.46 C 5.63 53.44 5.63 54.41 5.64 55.38 C 8.48 57.13 12.43 57.81 13.85 61.19 C 16.94 65.93 10.82 71.95 5.89 70.57 C 4.21 69.61 2.70 68.38 1.13 67.25 C 1.90 66.63 2.69 66.02 3.48 65.42 C 4.05 65.93 5.18 66.93 5.75 67.44 C 6.99 67.41 8.24 67.39 9.48 67.37 C 10.13 66.74 10.78 66.11 11.44 65.48 C 12.62 61.78 9.40 59.19 5.97 59.26 C 3.04 57.29 1.03 52.90 4.04 50.08 Z" />
<path fill="#fc0d0d" opacity="1.00" d=" M 1.52 96.97 C 1.30 90.08 8.25 83.98 15.08 85.54 C 17.18 85.93 21.20 87.32 19.06 90.01 C 17.57 90.33 16.28 89.19 14.97 88.71 C 13.93 87.46 12.12 87.40 10.99 88.57 C 8.71 89.82 6.11 91.12 5.35 93.85 C 3.75 97.12 5.10 101.09 7.92 103.22 C 10.94 106.87 15.37 104.37 19.01 104.10 C 20.91 106.54 17.45 107.45 15.69 108.13 C 8.81 110.16 1.38 104.00 1.52 96.97 Z" />
<path fill="#fc0d0d" opacity="1.00" d=" M 22.22 86.12 C 22.67 85.96 23.59 85.66 24.05 85.51 C 25.74 91.74 23.89 98.35 24.97 104.70 L 25.52 105.14 C 28.86 105.31 32.20 105.51 35.46 106.28 C 32.29 110.37 26.31 107.84 21.89 107.64 C 21.29 101.02 21.65 94.37 21.62 87.74 C 21.77 87.33 22.07 86.52 22.22 86.12 Z" />
<path fill="#fc0d0d" opacity="1.00" d=" M 40.65 85.80 C 44.98 85.23 49.68 84.94 52.95 88.44 C 54.15 90.25 55.40 92.08 56.10 94.15 C 57.49 99.36 54.51 105.69 49.09 107.07 C 49.06 107.27 49.02 107.65 48.99 107.84 L 48.54 108.25 C 42.72 109.55 36.19 106.25 34.37 100.47 C 32.88 96.95 34.53 93.24 35.42 89.80 L 35.51 89.49 L 36.31 89.32 C 38.25 88.98 39.71 87.45 40.65 85.80 M 38.69 91.56 C 37.18 93.38 36.82 95.79 36.39 98.05 C 37.43 99.82 38.24 101.80 39.68 103.31 C 42.30 105.31 45.99 105.68 49.01 104.36 C 52.42 102.04 54.92 96.98 52.32 93.24 C 51.15 92.01 49.99 90.76 48.71 89.62 C 45.54 87.41 40.96 88.61 38.69 91.56 Z" />
<path fill="#fc0d0d" opacity="1.00" d=" M 58.35 88.64 C 60.08 87.35 61.73 85.51 64.05 85.46 C 66.58 85.18 68.51 87.16 69.84 89.04 C 68.23 92.45 64.35 86.57 62.30 89.25 C 60.84 90.63 61.86 92.46 62.41 93.98 C 66.18 94.32 68.72 97.16 70.94 99.92 C 70.51 101.81 70.03 103.70 69.52 105.58 L 69.39 106.10 C 66.73 107.36 63.67 109.88 60.70 107.93 C 59.52 107.04 56.48 105.97 58.20 104.21 C 60.51 102.97 62.79 106.51 65.15 104.94 C 67.53 104.04 68.33 100.36 66.01 98.95 C 63.48 97.36 60.69 96.23 58.21 94.56 C 58.27 92.58 58.32 90.61 58.35 88.64 Z" />
<path fill="#fc0d0d" opacity="1.00" d=" M 71.31 85.43 C 76.14 85.43 80.97 85.44 85.80 85.46 C 85.76 86.22 85.67 87.75 85.63 88.51 C 81.81 88.51 77.99 88.50 74.18 88.48 C 74.17 90.87 74.24 93.26 74.31 95.66 C 76.95 95.51 79.60 95.27 82.24 95.53 C 82.44 96.28 82.85 97.79 83.06 98.54 C 80.15 98.62 77.23 98.65 74.32 98.66 L 74.33 99.41 C 74.36 101.38 74.35 103.36 74.34 105.34 C 78.26 105.35 82.19 105.07 86.11 105.28 C 85.89 106.02 85.45 107.52 85.23 108.26 C 80.66 108.72 76.05 108.41 71.47 108.38 C 71.04 100.74 71.30 93.08 71.31 85.43 Z" />
<path fill="#fc0d0d" opacity="1.00" d=" M 89.57 103.39 C 92.22 99.82 97.13 106.56 93.14 108.38 C 89.99 110.62 86.74 105.68 89.57 103.39 Z" />
<path fill="#fc0d0d" opacity="1.00" d=" M 97.45 103.70 C 98.46 102.87 99.63 102.37 100.95 102.21 C 101.33 102.78 102.08 103.93 102.45 104.50 C 102.43 105.79 102.40 107.08 102.37 108.37 C 100.76 108.65 99.14 108.73 97.52 108.52 C 97.40 106.92 97.01 105.28 97.45 103.70 Z" />
<path fill="#fc0d0d" opacity="1.00" d=" M 107.18 104.10 C 107.84 104.10 109.14 104.11 109.79 104.12 C 110.08 105.02 110.64 106.82 110.92 107.72 C 109.29 107.73 107.66 107.69 106.03 107.62 C 106.32 106.74 106.90 104.98 107.18 104.10 Z" />
</g>
<g id="#373636ee">
<path fill="#373636" opacity="0.93" d=" M 170.20 65.22 C 170.75 65.72 170.75 65.72 170.20 65.22 Z" />
<path fill="#373636" opacity="0.93" d=" M 132.92 122.93 C 135.91 120.67 138.23 117.18 142.09 116.37 C 140.37 118.90 137.99 120.84 135.62 122.71 C 132.64 125.03 130.35 128.12 127.18 130.21 C 127.61 126.92 130.82 125.16 132.92 122.93 Z" />
<path fill="#373636" opacity="0.93" d=" M 125.54 139.25 C 131.31 134.47 136.55 128.73 143.34 125.41 C 141.04 129.08 137.22 131.25 133.99 133.97 C 130.80 136.48 128.14 139.54 125.26 142.37 C 124.39 143.02 123.49 143.64 122.56 144.21 C 122.03 144.34 120.96 144.60 120.43 144.73 C 121.26 143.67 122.06 142.59 122.97 141.60 C 123.35 141.23 124.12 140.48 124.51 140.10 C 124.60 137.02 124.54 133.94 124.61 130.86 C 123.83 131.39 122.26 132.46 121.48 132.99 C 121.46 135.86 121.45 138.73 121.21 141.59 C 120.20 138.37 120.54 134.94 120.66 131.63 C 121.59 130.56 122.82 129.83 124.04 129.13 C 124.36 129.19 124.99 129.30 125.31 129.36 C 125.47 132.66 125.48 135.96 125.54 139.25 Z" />
<path fill="#373636" opacity="0.93" d=" M 135.00 144.08 C 139.45 141.41 143.09 137.62 147.57 134.99 C 147.47 135.45 147.27 136.35 147.17 136.80 C 143.49 139.57 140.19 142.84 136.22 145.21 C 132.75 147.38 128.87 149.25 126.47 152.71 C 127.27 156.65 129.01 160.33 130.27 164.14 C 129.98 164.76 129.68 165.40 129.39 166.03 C 127.87 166.79 126.37 167.56 124.87 168.33 C 123.38 164.39 122.61 160.14 120.35 156.52 C 121.15 154.89 122.02 153.31 122.92 151.73 C 123.51 151.69 124.71 151.60 125.31 151.55 C 125.83 150.85 126.37 150.15 126.92 149.46 C 129.45 147.44 132.25 145.78 135.00 144.08 M 124.86 165.91 C 125.44 165.69 126.59 165.24 127.17 165.01 L 127.79 164.06 C 126.75 160.75 125.50 157.51 124.23 154.29 C 119.81 157.62 125.60 161.75 124.86 165.91 Z" />
<path fill="#373636" opacity="0.93" d=" M 137.44 156.32 C 142.62 152.72 147.20 148.31 152.70 145.19 C 153.17 145.24 154.11 145.33 154.58 145.38 C 146.53 151.10 139.03 157.57 130.91 163.19 C 131.74 159.88 134.97 158.28 137.44 156.32 Z" />
</g>
</svg>
