<?xml version="1.0" encoding="UTF-8" ?>
<!DOCTYPE svg PUBLIC "-//W3C//DTD SVG 1.1//EN" "http://www.w3.org/Graphics/SVG/1.1/DTD/svg11.dtd">
<svg width="320pt" height="240pt" viewBox="0 0 320 240" version="1.1" xmlns="http://www.w3.org/2000/svg">
<g id="#2e000045">
<path fill="#2e0000" opacity="0.27" d=" M 110.78 2.28 C 119.78 1.11 129.16 0.23 137.98 2.92 C 145.57 5.06 153.45 6.31 160.76 9.38 C 165.45 11.33 169.62 14.29 173.73 17.23 C 167.59 14.31 162.03 10.14 155.42 8.28 C 147.13 5.89 138.70 3.33 129.99 3.31 C 123.24 3.23 116.48 3.25 109.77 4.04 C 103.47 4.39 97.14 4.54 90.93 5.73 C 96.94 2.12 104.11 2.97 110.78 2.28 Z" />
<path fill="#2e0000" opacity="0.27" d=" M 230.06 67.73 C 230.71 66.08 231.38 64.43 232.07 62.79 C 232.15 63.61 232.30 65.25 232.38 66.07 C 232.52 67.58 232.66 69.09 232.83 70.59 C 232.00 72.33 231.26 74.11 230.56 75.90 C 230.04 75.87 229.00 75.79 228.48 75.75 C 227.82 74.09 227.16 72.43 226.48 70.78 C 226.83 69.20 227.19 67.62 227.44 66.02 C 228.31 66.58 229.18 67.15 230.06 67.73 Z" />
<path fill="#2e0000" opacity="0.27" d=" M 288.98 62.79 C 289.74 64.56 290.48 66.34 291.25 68.11 C 292.17 66.35 293.08 64.58 293.99 62.81 C 294.07 63.64 294.24 65.30 294.32 66.13 C 294.47 67.64 294.64 69.15 294.82 70.66 C 293.62 72.51 293.42 75.49 291.02 76.16 C 289.84 74.50 288.82 72.70 288.23 70.75 C 288.36 69.22 288.51 67.69 288.66 66.17 C 288.74 65.32 288.90 63.64 288.98 62.79 Z" />
<path fill="#2e0000" opacity="0.27" d=" M 242.66 64.05 C 243.50 65.29 244.32 66.55 245.13 67.81 C 245.87 66.84 246.62 65.88 247.37 64.91 C 248.05 68.24 248.76 71.57 249.19 74.94 C 248.60 73.64 248.03 72.34 247.45 71.05 C 247.21 72.32 246.99 73.61 246.76 74.89 C 245.95 73.78 245.13 72.67 244.32 71.56 C 244.23 72.41 244.05 74.11 243.96 74.96 C 243.46 74.08 242.97 73.21 242.48 72.33 C 241.78 73.23 241.07 74.12 240.36 75.01 C 240.69 71.27 241.55 67.63 242.66 64.05 Z" />
<path fill="#2e0000" opacity="0.27" d=" M 273.62 65.05 C 274.43 65.99 275.24 66.94 276.04 67.89 C 276.89 66.87 277.75 65.85 278.61 64.84 C 279.61 68.18 280.23 71.60 280.82 75.03 C 279.98 73.77 279.17 72.51 278.37 71.23 C 277.99 72.46 277.60 73.69 277.22 74.92 C 276.69 73.78 276.13 72.65 275.59 71.51 C 275.27 72.44 274.64 74.32 274.32 75.25 C 274.14 73.89 273.94 72.52 273.75 71.16 C 273.12 72.47 272.49 73.77 271.86 75.08 C 272.41 71.73 273.10 68.40 273.62 65.05 Z" />
<path fill="#2e0000" opacity="0.27" d=" M 231.22 97.89 C 230.54 93.55 230.65 89.07 231.74 84.80 C 231.69 88.97 231.67 93.15 232.16 97.30 C 232.92 93.39 233.82 89.51 235.27 85.79 C 235.99 87.58 236.75 89.36 237.56 91.12 C 238.42 89.42 239.28 87.71 240.14 86.01 C 241.05 89.97 242.11 93.89 243.21 97.81 L 243.47 98.76 C 241.14 97.64 240.64 94.99 239.70 92.82 C 239.45 94.59 239.20 96.35 238.95 98.12 C 238.25 98.11 236.84 98.09 236.14 98.08 C 235.86 96.31 235.57 94.55 235.27 92.79 C 234.43 94.69 233.71 96.64 232.86 98.53 C 232.45 98.37 231.63 98.05 231.22 97.89 Z" />
<path fill="#2e0000" opacity="0.27" d=" M 250.72 86.98 C 251.49 88.04 252.26 89.10 253.04 90.16 C 253.83 89.07 254.63 87.98 255.43 86.89 C 256.09 90.27 256.76 93.64 257.22 97.06 C 256.56 95.70 255.90 94.34 255.22 92.98 C 254.97 94.57 254.74 96.15 254.54 97.74 C 253.91 96.35 253.27 94.97 252.61 93.60 C 252.29 95.04 251.97 96.49 251.66 97.94 C 251.34 96.68 251.02 95.41 250.70 94.16 C 250.03 95.62 249.36 97.08 248.68 98.53 C 249.33 94.67 250.04 90.83 250.72 86.98 Z" />
<path fill="#2e0000" opacity="0.27" d=" M 272.24 95.59 C 273.10 94.71 274.02 93.90 274.94 93.08 C 274.81 94.59 274.84 96.11 275.06 97.61 C 275.10 97.92 275.19 98.53 275.23 98.84 C 273.79 98.37 269.51 99.81 270.72 97.30 C 271.20 96.71 271.71 96.15 272.24 95.59 Z" />
<path fill="#2e0000" opacity="0.27" d=" M 27.80 151.57 C 28.69 147.37 30.57 142.07 35.69 141.92 C 35.69 142.52 35.68 143.71 35.68 144.31 C 35.44 148.33 35.49 152.37 35.56 156.40 C 35.53 160.53 35.71 164.67 35.36 168.79 C 34.52 172.17 34.78 175.66 35.73 178.99 C 33.36 172.58 34.45 165.68 33.97 159.01 C 33.63 153.75 33.95 148.46 33.57 143.21 C 30.99 144.51 29.88 147.53 29.00 150.12 C 26.02 160.97 26.13 172.32 24.95 183.44 C 26.41 184.89 28.49 186.02 29.07 188.13 C 30.39 193.12 30.65 198.33 30.60 203.47 C 24.70 205.02 18.59 205.13 12.54 204.76 C 10.86 199.81 8.84 194.54 10.08 189.24 C 11.08 187.47 13.38 186.99 14.85 185.67 C 15.79 178.83 16.08 171.94 16.25 165.06 C 16.28 160.71 18.10 156.73 19.80 152.83 C 18.26 158.43 16.42 164.09 16.54 169.97 C 16.58 175.63 16.50 181.30 16.29 186.96 C 14.44 187.51 12.52 187.96 10.92 189.10 C 9.35 194.39 11.57 199.76 13.83 204.50 C 19.34 204.58 24.85 204.13 30.21 202.77 C 30.14 198.40 29.64 194.01 28.43 189.80 C 27.75 187.40 25.42 185.96 24.53 183.69 C 23.61 172.87 25.85 162.15 27.80 151.57 Z" />
<path fill="#2e0000" opacity="0.27" d=" M 247.25 174.30 C 253.72 174.48 260.33 174.13 266.72 175.11 C 267.00 175.43 267.56 176.08 267.85 176.40 L 266.58 176.22 C 264.82 175.95 263.07 175.66 261.31 175.38 C 261.74 179.17 261.36 183.07 262.31 186.78 C 262.74 187.07 263.59 187.65 264.02 187.94 C 264.35 184.61 264.28 181.23 265.11 177.98 C 265.14 181.22 265.50 184.51 264.83 187.71 C 264.25 189.16 262.69 188.74 261.49 188.77 C 261.36 185.13 261.29 181.48 261.08 177.84 C 258.75 177.58 256.40 177.57 254.07 177.86 C 253.64 181.57 254.55 185.62 252.87 189.07 C 252.43 189.08 251.56 189.09 251.13 189.09 C 248.54 185.53 252.37 179.33 247.50 177.33 C 247.20 177.14 246.58 176.75 246.28 176.56 C 246.60 175.80 246.92 175.05 247.25 174.30 M 249.22 175.52 C 251.21 179.18 250.68 183.40 250.70 187.40 C 251.35 187.40 252.65 187.40 253.30 187.40 C 253.29 183.41 252.85 179.22 254.71 175.54 C 252.88 175.53 251.05 175.53 249.22 175.52 Z" />
<path fill="#2e0000" opacity="0.27" d=" M 48.89 214.28 C 49.85 215.88 50.44 217.67 50.69 219.52 C 50.84 225.80 51.54 232.16 53.93 238.03 C 48.39 231.42 49.85 222.23 48.89 214.28 Z" />
</g>
<g id="#060607fa">
<path fill="#060607" opacity="0.98" d=" M 109.77 4.04 C 116.48 3.25 123.24 3.23 129.99 3.31 C 138.70 3.33 147.13 5.89 155.42 8.28 C 162.03 10.14 167.59 14.31 173.73 17.23 C 180.54 21.28 185.07 27.89 190.37 33.58 C 193.07 37.86 195.32 42.46 198.87 46.16 C 204.93 53.25 205.08 62.93 206.14 71.67 C 209.74 74.41 214.85 75.66 216.86 80.15 C 218.88 83.61 218.34 87.67 217.88 91.45 C 217.45 93.80 219.30 95.66 220.39 97.53 C 224.49 103.22 226.71 109.93 229.57 116.26 C 231.49 116.80 234.06 116.69 235.10 118.75 C 237.84 123.02 240.45 127.39 243.71 131.30 C 238.20 134.46 232.82 137.81 228.04 142.02 C 226.72 136.89 223.71 132.54 221.06 128.05 C 219.17 125.25 222.58 122.00 220.85 119.17 C 219.01 115.49 217.34 111.73 215.99 107.83 C 214.63 103.68 211.29 100.57 207.80 98.12 C 206.15 97.14 203.76 95.59 202.35 97.77 C 203.46 103.74 207.48 108.49 210.29 113.72 C 213.34 118.93 215.05 124.78 217.88 130.10 C 220.13 134.04 219.70 138.66 219.61 143.01 C 219.33 148.03 220.58 152.98 220.42 158.01 C 219.99 165.87 222.95 173.76 220.65 181.52 C 219.49 184.84 219.89 188.31 220.71 191.65 C 221.97 191.74 223.24 191.84 224.51 191.94 C 224.71 196.72 224.36 201.58 221.95 205.83 C 220.09 203.29 221.04 200.12 220.44 197.26 C 219.87 201.67 220.85 206.11 220.51 210.53 C 219.25 216.98 214.45 221.90 212.23 227.97 C 210.76 232.01 209.68 236.21 207.61 240.00 L 205.14 240.00 C 206.45 235.11 208.73 230.54 209.97 225.63 C 210.99 221.00 213.68 217.00 214.87 212.43 C 215.66 209.51 218.16 207.58 219.55 204.99 C 220.41 196.66 216.74 188.69 217.45 180.34 C 215.51 172.69 217.04 164.75 216.33 156.97 C 214.53 140.35 207.61 124.94 202.90 109.04 C 200.88 102.17 196.27 96.49 191.49 91.34 C 190.31 89.92 188.36 91.24 186.91 91.34 C 189.06 94.58 191.10 97.89 192.70 101.45 C 194.24 105.10 197.78 107.42 199.36 111.04 C 199.81 114.33 199.83 117.72 199.37 121.01 C 197.44 126.72 192.73 131.55 187.01 133.48 C 182.37 134.07 177.67 133.61 173.01 133.75 C 165.96 133.91 158.59 133.17 152.35 129.63 C 147.47 126.85 145.19 121.46 141.60 117.40 C 139.96 115.35 137.81 113.52 137.07 110.90 C 135.72 104.50 137.49 97.87 140.76 92.32 C 138.53 92.41 136.30 92.44 134.08 92.71 C 131.50 96.31 134.07 101.62 130.93 104.96 C 129.03 107.38 125.70 106.49 123.06 106.54 C 124.20 104.88 125.43 103.29 126.63 101.68 C 124.69 99.03 122.64 96.45 121.06 93.55 C 113.27 95.17 105.40 96.38 97.58 97.81 C 97.48 98.33 97.30 99.37 97.20 99.89 C 101.34 103.37 105.76 106.54 109.44 110.53 C 110.99 112.21 112.81 113.60 114.62 114.98 C 113.82 119.50 113.54 124.19 111.68 128.45 C 110.09 132.31 107.12 135.34 104.38 138.41 C 101.63 141.40 100.36 145.52 97.12 148.11 C 94.13 150.57 91.86 154.19 88.03 155.42 C 82.49 156.19 76.74 155.61 71.46 153.76 C 67.95 152.61 65.34 149.61 63.77 146.36 C 63.18 142.28 63.09 138.08 61.73 134.13 C 61.11 131.76 59.26 130.00 58.44 127.73 C 57.83 122.91 60.39 118.55 61.76 114.09 C 56.19 115.72 50.74 117.78 45.75 120.76 C 45.30 124.80 43.75 128.56 41.05 131.62 C 40.73 130.96 40.09 129.62 39.76 128.96 C 41.11 127.18 42.03 125.14 42.81 123.06 C 40.65 124.20 38.63 125.59 36.76 127.16 C 35.64 131.99 35.78 136.99 35.69 141.92 C 30.57 142.07 28.69 147.37 27.80 151.57 C 25.85 162.15 23.61 172.87 24.53 183.69 C 25.42 185.96 27.75 187.40 28.43 189.80 C 29.64 194.01 30.14 198.40 30.21 202.77 C 24.85 204.13 19.34 204.58 13.83 204.50 C 11.57 199.76 9.35 194.39 10.92 189.10 C 12.52 187.96 14.44 187.51 16.29 186.96 C 16.50 181.30 16.58 175.63 16.54 169.97 C 16.42 164.09 18.26 158.43 19.80 152.83 C 20.22 151.54 20.63 150.24 21.04 148.95 C 14.89 148.16 8.87 142.86 10.35 136.18 C 10.36 129.83 16.27 126.39 19.07 121.39 C 19.94 115.39 18.74 109.25 19.73 103.24 C 21.05 96.62 20.22 89.68 22.39 83.21 C 23.66 79.58 24.66 75.87 25.28 72.07 C 26.58 64.36 32.57 58.83 36.45 52.38 C 40.39 46.77 43.30 40.55 46.78 34.68 C 52.73 26.07 60.64 18.72 70.07 14.08 C 76.39 9.76 84.41 9.64 90.93 5.73 C 97.14 4.54 103.47 4.39 109.77 4.04 M 96.80 6.32 C 91.16 7.03 86.44 10.56 80.92 11.74 C 75.15 13.04 70.15 16.26 65.05 19.09 C 60.64 21.49 57.46 25.47 53.87 28.89 C 50.21 32.41 47.56 36.80 45.27 41.29 C 41.58 48.38 37.16 55.05 32.54 61.57 C 29.74 65.58 27.28 70.00 26.75 74.96 C 26.10 80.12 23.49 84.79 22.99 89.99 C 22.50 94.46 22.67 99.01 21.47 103.39 C 19.82 109.65 21.62 116.20 20.37 122.49 C 18.14 127.20 12.96 130.38 12.61 135.98 C 11.48 140.40 14.56 145.43 19.01 146.33 C 24.45 146.37 30.45 144.28 33.30 139.34 C 34.73 136.34 34.32 132.92 34.12 129.72 C 30.51 131.04 27.90 133.91 24.84 136.08 C 24.54 135.58 23.94 134.58 23.63 134.08 C 25.29 131.93 27.53 130.35 29.73 128.81 C 35.06 125.16 40.03 120.99 45.48 117.52 C 52.05 113.44 59.89 112.30 66.73 108.80 C 70.96 106.69 75.45 105.04 79.41 102.40 C 83.49 99.58 88.56 99.13 92.98 97.07 C 100.33 93.62 108.52 92.93 116.42 91.54 C 125.97 91.22 135.40 89.30 144.98 89.36 C 159.95 87.92 175.01 89.39 190.01 88.28 C 197.76 87.54 205.62 87.67 213.30 89.04 C 210.52 92.59 205.74 90.13 201.99 90.74 C 199.61 91.56 200.72 95.42 203.13 95.18 C 206.75 95.23 210.65 94.74 213.79 92.83 C 217.90 90.30 216.72 84.61 215.08 80.91 C 213.20 76.72 208.40 75.67 204.40 74.57 C 203.13 66.77 203.38 58.57 199.85 51.29 C 197.92 46.51 193.42 43.44 191.27 38.78 C 189.13 33.88 184.79 30.57 181.55 26.45 C 175.71 19.54 167.26 15.61 159.39 11.51 C 145.28 6.44 130.13 3.23 115.09 4.99 C 109.02 5.87 102.83 5.09 96.80 6.32 M 195.25 90.35 C 195.41 91.33 195.57 92.31 195.73 93.29 C 196.74 93.43 197.76 93.57 198.78 93.71 C 198.39 92.64 197.99 91.58 197.59 90.51 C 197.01 90.47 195.84 90.39 195.25 90.35 M 144.21 92.49 C 140.70 96.87 139.28 102.52 139.72 108.07 C 139.38 111.13 141.79 113.30 143.59 115.41 C 147.02 119.29 149.22 124.32 153.59 127.32 C 159.41 130.73 166.44 130.76 172.99 130.83 C 177.64 130.64 182.33 131.22 186.94 130.51 C 191.34 128.81 194.97 125.08 196.49 120.61 C 196.86 117.58 196.78 114.48 196.43 111.45 C 194.68 108.37 191.55 106.27 190.23 102.90 C 188.49 98.74 186.36 94.71 183.14 91.49 C 179.02 91.60 174.89 91.53 170.77 91.59 C 170.58 93.33 170.44 95.08 170.34 96.83 C 173.33 97.75 176.52 97.77 179.61 97.52 C 181.20 97.11 182.56 94.64 184.25 95.79 C 185.32 97.95 182.45 99.45 180.93 100.39 C 176.47 100.60 171.05 101.47 167.60 97.95 C 167.00 95.89 168.41 93.25 166.97 91.57 C 159.37 91.54 151.74 91.25 144.21 92.49 M 125.65 93.67 C 124.45 96.28 127.43 97.67 129.56 97.93 C 129.63 96.34 129.65 94.75 129.63 93.16 C 128.30 93.29 126.96 93.39 125.65 93.67 M 209.93 97.04 C 212.93 100.42 216.81 103.33 218.19 107.83 C 219.73 112.31 221.47 116.73 224.06 120.72 C 225.97 120.11 228.85 118.96 227.46 116.44 C 224.51 109.15 221.46 101.66 216.53 95.45 C 214.23 95.16 212.09 96.43 209.93 97.04 M 92.62 102.32 C 93.79 102.46 94.97 102.57 96.15 102.63 C 95.22 101.21 94.02 100.01 92.70 98.97 C 92.25 100.09 92.23 101.21 92.62 102.32 M 74.74 108.49 C 70.61 110.37 65.25 111.86 63.71 116.69 C 62.54 119.97 61.15 123.32 61.28 126.87 C 60.98 128.26 62.31 130.12 63.80 129.32 C 66.86 128.12 70.19 127.60 73.13 126.06 C 76.09 124.67 73.94 119.72 70.92 120.44 C 68.46 120.68 66.20 119.57 64.66 117.67 C 67.88 117.01 71.17 117.48 74.43 117.53 C 75.79 119.85 77.72 122.15 77.57 124.99 C 75.17 129.99 69.12 130.45 64.42 131.86 C 64.43 135.68 66.48 139.14 66.40 142.97 C 65.99 146.57 68.90 149.62 71.98 150.98 C 77.20 152.84 82.95 153.18 88.39 152.38 C 90.85 150.54 92.75 148.06 95.14 146.13 C 98.52 143.65 99.33 139.17 102.43 136.43 C 107.05 132.01 110.91 126.20 110.73 119.56 C 109.32 119.55 107.91 119.54 106.49 119.52 C 104.32 115.68 103.28 111.15 100.02 107.99 C 98.20 105.63 94.99 105.58 92.43 104.53 C 90.29 103.85 88.33 102.34 86.00 102.49 C 82.10 104.22 78.81 107.11 74.74 108.49 M 106.16 112.20 C 106.56 114.98 108.62 118.26 111.84 117.58 C 110.73 115.08 109.50 111.97 106.16 112.20 M 207.16 112.93 C 209.44 119.66 211.11 126.59 213.89 133.14 C 215.24 136.81 215.59 140.79 217.30 144.34 C 217.63 140.93 217.72 137.49 217.46 134.08 C 216.22 129.97 213.51 126.45 212.38 122.29 C 211.52 118.74 209.16 115.90 207.16 112.93 M 221.91 125.16 C 224.10 129.77 226.71 134.18 229.70 138.31 C 232.99 135.38 236.72 133.02 240.63 131.01 C 238.26 127.01 235.61 123.18 232.94 119.37 C 229.15 121.08 225.48 123.04 221.91 125.16 M 23.07 150.12 C 20.19 157.05 17.91 164.44 18.54 172.04 C 19.02 176.97 16.81 182.02 18.70 186.79 C 19.99 186.50 21.29 186.22 22.59 185.93 C 22.56 173.08 23.82 160.19 26.83 147.68 C 25.47 148.30 23.52 148.39 23.07 150.12 M 12.52 189.64 C 12.18 194.04 12.58 198.51 14.89 202.37 C 19.47 202.59 24.19 202.91 28.56 201.19 C 27.91 196.80 27.38 192.40 26.80 188.01 C 22.17 189.50 17.31 189.35 12.52 189.64 Z" />
<path fill="#060607" opacity="0.98" d=" M 121.58 131.69 C 126.75 129.53 132.35 127.74 138.01 128.72 C 141.77 129.44 145.76 129.03 149.33 130.65 C 158.02 134.13 165.94 139.20 174.15 143.63 C 175.72 142.18 177.15 140.56 178.98 139.42 C 183.18 139.47 187.42 141.77 189.76 145.28 C 194.06 150.56 196.41 157.08 200.33 162.62 C 202.58 166.07 205.92 169.48 205.36 173.96 C 204.99 179.20 206.45 184.90 203.69 189.69 C 201.69 193.59 197.65 196.92 193.06 196.59 C 187.47 196.26 181.96 197.28 176.38 197.48 C 168.29 202.57 161.30 209.40 152.80 213.92 C 146.60 217.94 141.05 224.12 133.24 224.63 C 128.86 225.16 126.73 229.68 123.07 231.54 C 121.07 231.85 119.02 231.69 117.04 231.31 C 111.48 230.13 105.79 229.76 100.13 229.45 C 96.67 228.63 93.36 227.18 90.16 225.63 C 87.92 224.51 85.59 222.24 86.62 219.51 C 88.30 216.30 90.88 213.59 92.10 210.14 C 93.90 205.03 96.96 200.34 97.65 194.88 C 98.11 191.86 99.30 188.96 99.52 185.90 C 98.61 175.53 102.47 165.61 103.30 155.35 C 103.25 151.90 105.88 149.42 107.63 146.73 C 111.34 140.97 115.78 135.44 121.58 131.69 M 122.02 134.39 C 123.94 137.30 125.48 140.54 127.84 143.13 C 130.76 144.83 133.81 146.52 137.20 147.00 C 137.31 141.81 138.24 136.33 136.47 131.34 C 131.45 131.11 126.68 132.73 122.02 134.39 M 140.03 132.30 C 139.70 134.30 139.34 136.50 140.83 138.15 C 143.36 140.02 146.65 139.63 149.61 139.85 C 150.18 138.95 150.75 138.05 151.32 137.15 C 151.87 137.22 152.97 137.36 153.52 137.43 C 153.54 138.47 153.56 139.51 153.59 140.56 C 150.15 144.14 144.65 142.81 140.57 141.13 C 140.45 144.35 139.73 147.48 139.12 150.63 C 135.95 150.62 133.23 148.85 130.38 147.70 C 130.36 152.02 131.29 157.68 126.92 160.34 C 123.58 161.43 120.84 159.05 117.84 158.09 C 117.67 159.39 117.46 160.69 117.21 161.98 C 114.31 164.20 110.75 165.30 107.47 166.83 C 107.44 165.81 107.42 164.79 107.41 163.77 C 109.86 162.61 112.30 161.41 114.78 160.31 C 114.53 159.25 114.87 157.92 114.06 157.08 C 112.37 156.12 110.17 155.75 109.49 153.66 C 111.07 153.51 112.65 153.39 114.24 153.29 C 113.19 151.52 111.89 148.61 109.36 149.29 C 107.83 150.88 106.19 152.72 106.45 155.10 C 106.55 158.54 105.04 161.72 104.62 165.09 C 104.80 171.10 101.77 176.70 102.41 182.76 C 103.24 188.25 100.51 193.31 99.80 198.65 C 97.01 206.49 93.74 214.23 89.00 221.12 C 91.38 223.59 94.66 224.72 97.80 225.86 C 104.67 228.20 112.06 226.67 119.01 228.66 C 123.26 229.83 125.55 225.58 128.57 223.53 C 130.73 221.65 133.73 221.78 136.38 221.22 C 139.66 219.50 142.87 217.62 146.02 215.65 C 144.58 210.27 139.94 206.54 134.93 204.61 C 131.65 204.95 128.42 206.91 127.25 210.11 C 125.12 215.14 122.96 220.16 120.21 224.90 C 115.29 223.87 113.61 217.61 108.98 216.30 C 103.70 217.50 100.54 222.82 95.35 224.38 C 95.23 222.91 95.72 221.75 96.84 220.90 C 100.36 218.03 103.88 214.87 108.22 213.32 C 113.29 213.15 115.29 219.10 119.37 221.10 C 121.36 217.09 122.85 212.86 124.74 208.80 C 126.43 205.27 129.89 202.12 134.00 202.24 C 139.03 201.99 142.62 206.23 146.34 209.00 C 146.11 203.57 146.13 197.78 149.05 193.00 C 151.86 190.57 155.68 188.56 159.49 189.56 C 161.23 190.33 162.71 191.55 164.27 192.64 C 166.35 190.67 167.72 188.16 168.65 185.48 C 169.65 182.56 172.24 180.72 174.49 178.81 C 172.03 175.24 169.15 171.85 165.52 169.45 C 164.28 169.14 162.89 169.19 161.79 169.90 C 157.38 172.31 154.60 176.67 150.79 179.82 C 149.54 180.66 147.77 182.36 146.32 180.89 C 144.52 179.82 142.90 177.22 140.52 178.44 C 137.45 180.63 134.59 183.51 133.54 187.23 C 132.46 190.60 130.86 193.78 128.79 196.64 C 128.10 196.59 126.72 196.49 126.02 196.45 C 127.62 193.26 129.63 190.26 130.66 186.82 C 132.29 181.12 137.10 177.13 142.05 174.29 C 144.19 175.58 146.14 177.14 148.07 178.71 C 152.71 174.53 156.45 169.00 162.38 166.50 C 167.49 165.07 170.33 170.56 173.65 173.36 C 176.78 175.87 176.94 181.20 181.22 182.24 C 180.56 178.02 184.38 174.02 188.66 175.43 C 193.14 177.27 197.38 180.19 200.03 184.35 C 198.70 184.84 197.21 184.92 196.25 183.71 C 192.95 181.03 189.40 177.28 184.71 178.38 C 183.53 183.43 182.82 188.67 184.42 193.73 C 189.52 193.35 196.03 195.30 199.66 190.64 C 203.64 186.39 202.22 180.22 202.45 174.97 C 202.70 171.58 201.20 168.45 199.18 165.84 C 194.66 159.79 191.97 152.59 187.35 146.63 C 185.32 143.78 181.87 142.18 178.40 142.20 C 178.42 142.72 178.47 143.74 178.49 144.25 C 181.10 145.37 183.68 146.86 184.84 149.59 C 181.95 149.99 179.83 147.91 177.39 146.82 C 176.03 146.49 174.61 146.48 173.28 146.06 C 165.54 142.58 158.62 137.54 150.89 134.04 C 147.49 132.46 143.73 132.10 140.03 132.30 M 118.58 137.56 C 116.09 140.09 112.38 142.74 112.45 146.63 C 114.62 149.20 117.33 151.45 117.71 155.07 C 119.95 155.67 121.98 156.84 124.14 157.65 C 126.30 158.26 127.47 155.87 127.40 154.06 C 127.45 151.69 127.40 149.32 127.44 146.95 C 125.27 145.17 123.66 142.89 122.55 140.32 C 121.78 138.88 120.57 136.24 118.58 137.56 M 174.43 182.41 C 172.52 183.58 171.59 185.70 170.82 187.69 C 169.52 191.36 166.20 193.90 165.30 197.77 C 164.86 197.74 163.98 197.68 163.54 197.64 C 162.48 195.75 161.50 193.61 159.49 192.55 C 156.76 191.88 153.54 192.42 151.79 194.79 C 148.09 200.06 149.45 206.87 148.53 212.89 C 158.57 208.44 166.39 200.47 175.52 194.61 C 177.38 194.29 179.28 194.43 181.15 194.23 C 181.40 190.73 180.97 186.41 178.09 183.94 C 177.16 182.91 175.93 181.73 174.43 182.41 Z" />
<path fill="#060607" opacity="0.98" d=" M 39.55 147.01 C 39.62 142.09 39.02 136.99 40.82 132.29 C 40.27 141.18 40.88 150.10 40.37 159.00 C 40.64 163.78 39.30 168.94 41.68 173.36 C 43.88 177.92 43.46 183.19 45.30 187.87 C 46.89 191.72 47.63 195.87 49.55 199.58 C 52.18 204.49 51.60 210.22 52.55 215.54 C 54.58 218.11 57.51 219.85 59.35 222.60 C 61.12 225.14 61.98 228.54 65.02 229.95 C 70.95 233.48 76.89 237.08 83.15 240.00 L 77.40 240.00 C 72.65 237.77 68.13 235.10 63.63 232.42 C 58.26 230.24 58.14 223.38 53.71 220.08 C 52.70 219.87 51.70 219.68 50.69 219.52 C 50.44 217.67 49.85 215.88 48.89 214.28 C 44.44 207.78 39.79 201.16 37.85 193.40 C 36.35 188.72 37.00 183.71 35.73 178.99 C 34.78 175.66 34.52 172.17 35.36 168.79 C 36.44 166.07 37.63 163.40 38.84 160.73 C 39.14 164.24 39.32 167.77 39.63 171.28 C 40.62 163.21 39.41 155.10 39.55 147.01 M 36.46 170.85 C 35.63 174.82 38.15 178.25 38.54 182.05 C 38.36 192.29 42.61 202.24 48.72 210.30 C 48.82 207.06 48.78 203.66 47.02 200.82 C 44.62 197.02 44.43 192.42 42.49 188.42 C 40.14 182.73 41.83 175.05 36.46 170.85 Z" />
</g>
<g id="#436278fe">
<path fill="#436278" opacity="1.00" d=" M 96.80 6.32 C 102.83 5.09 109.02 5.87 115.09 4.99 C 130.13 3.23 145.28 6.44 159.39 11.51 C 167.26 15.61 175.71 19.54 181.55 26.45 C 184.79 30.57 189.13 33.88 191.27 38.78 C 193.42 43.44 197.92 46.51 199.85 51.29 C 203.38 58.57 203.13 66.77 204.40 74.57 C 208.40 75.67 213.20 76.72 215.08 80.91 C 216.72 84.61 217.90 90.30 213.79 92.83 C 210.65 94.74 206.75 95.23 203.13 95.18 C 200.72 95.42 199.61 91.56 201.99 90.74 C 205.74 90.13 210.52 92.59 213.30 89.04 C 205.62 87.67 197.76 87.54 190.01 88.28 C 175.01 89.39 159.95 87.92 144.98 89.36 C 135.40 89.30 125.97 91.22 116.42 91.54 C 108.52 92.93 100.33 93.62 92.98 97.07 C 88.56 99.13 83.49 99.58 79.41 102.40 C 75.45 105.04 70.96 106.69 66.73 108.80 C 59.89 112.30 52.05 113.44 45.48 117.52 C 40.03 120.99 35.06 125.16 29.73 128.81 C 27.53 130.35 25.29 131.93 23.63 134.08 C 23.94 134.58 24.54 135.58 24.84 136.08 C 27.90 133.91 30.51 131.04 34.12 129.72 C 34.32 132.92 34.73 136.34 33.30 139.34 C 30.45 144.28 24.45 146.37 19.01 146.33 C 14.56 145.43 11.48 140.40 12.61 135.98 C 12.96 130.38 18.14 127.20 20.37 122.49 C 21.62 116.20 19.82 109.65 21.47 103.39 C 22.67 99.01 22.50 94.46 22.99 89.99 C 23.49 84.79 26.10 80.12 26.75 74.96 C 27.28 70.00 29.74 65.58 32.54 61.57 C 37.16 55.05 41.58 48.38 45.27 41.29 C 47.56 36.80 50.21 32.41 53.87 28.89 C 57.46 25.47 60.64 21.49 65.05 19.09 C 70.15 16.26 75.15 13.04 80.92 11.74 C 86.44 10.56 91.16 7.03 96.80 6.32 Z" />
</g>
<g id="#7f000080">
<path fill="#7f0000" opacity="0.50" d=" M 223.23 75.72 C 222.97 71.36 223.10 66.98 223.56 62.64 C 223.74 63.49 224.11 65.19 224.29 66.04 C 224.82 65.98 225.88 65.86 226.41 65.80 C 226.70 65.05 227.27 63.53 227.56 62.78 C 227.56 63.86 227.52 64.94 227.44 66.02 C 227.19 67.62 226.83 69.20 226.48 70.78 C 226.11 72.44 225.77 74.10 225.44 75.77 C 224.88 75.76 223.78 75.73 223.23 75.72 Z" />
<path fill="#7f0000" opacity="0.50" d=" M 235.49 62.62 C 236.39 66.95 236.52 71.40 235.98 75.79 C 235.35 75.73 234.09 75.63 233.46 75.57 C 233.25 73.91 233.02 72.25 232.83 70.59 C 232.66 69.09 232.52 67.58 232.38 66.07 C 232.99 65.98 234.20 65.81 234.81 65.72 C 234.98 64.94 235.32 63.39 235.49 62.62 Z" />
<path fill="#7f0000" opacity="0.50" d=" M 247.37 64.91 C 246.53 61.97 249.73 62.49 251.53 62.93 C 251.55 67.17 251.61 71.42 251.58 75.66 C 251.02 75.71 249.89 75.79 249.32 75.83 L 249.19 74.94 C 248.76 71.57 248.05 68.24 247.37 64.91 Z" />
<path fill="#7f0000" opacity="0.50" d=" M 254.33 75.79 C 254.13 71.34 254.14 66.87 254.59 62.44 C 254.92 64.07 255.25 65.70 255.59 67.32 C 256.46 66.08 257.33 64.84 258.19 63.59 L 258.49 63.15 C 258.75 65.38 259.48 67.50 261.06 69.15 C 261.74 67.05 262.34 64.93 262.91 62.80 L 263.14 63.37 C 264.83 67.06 265.45 71.09 265.66 75.11 C 265.64 70.87 265.80 66.63 266.20 62.41 C 267.09 66.81 266.88 71.31 266.69 75.77 C 266.14 75.75 265.05 75.72 264.51 75.70 C 264.31 73.66 264.07 71.62 263.77 69.59 C 261.93 71.10 261.70 73.48 261.34 75.67 C 260.93 75.67 260.11 75.67 259.70 75.66 C 259.17 73.73 258.63 71.80 258.03 69.90 C 257.40 71.80 256.84 73.72 256.31 75.65 C 255.81 75.69 254.83 75.76 254.33 75.79 Z" />
<path fill="#7f0000" opacity="0.50" d=" M 269.50 70.01 C 269.61 67.57 269.16 64.71 271.11 62.84 C 270.47 64.21 270.75 65.23 271.95 65.89 C 273.15 65.28 273.46 64.28 272.89 62.90 C 273.07 63.44 273.43 64.51 273.62 65.05 C 273.10 68.40 272.41 71.73 271.86 75.08 L 271.63 76.31 C 269.12 75.20 269.61 72.25 269.50 70.01 Z" />
<path fill="#7f0000" opacity="0.50" d=" M 285.13 75.81 C 284.59 71.42 284.74 66.97 285.52 62.62 C 285.71 63.38 286.08 64.91 286.26 65.67 C 286.86 65.80 288.06 66.04 288.66 66.17 C 288.51 67.69 288.36 69.22 288.23 70.75 C 288.03 72.36 287.76 73.96 287.52 75.56 C 286.92 75.62 285.73 75.75 285.13 75.81 Z" />
<path fill="#7f0000" opacity="0.50" d=" M 297.41 62.63 C 298.16 66.95 298.46 71.35 297.82 75.71 C 297.23 75.73 296.04 75.76 295.44 75.78 C 295.23 74.07 295.02 72.36 294.82 70.66 C 294.64 69.15 294.47 67.64 294.32 66.13 C 294.92 66.03 296.13 65.82 296.74 65.71 C 296.90 64.94 297.24 63.40 297.41 62.63 Z" />
<path fill="#7f0000" opacity="0.50" d=" M 244.32 71.56 C 245.13 72.67 245.95 73.78 246.76 74.89 C 246.04 75.15 244.58 75.68 243.85 75.94 L 243.96 74.96 C 244.05 74.11 244.23 72.41 244.32 71.56 Z" />
<path fill="#7f0000" opacity="0.50" d=" M 275.59 71.51 C 276.13 72.65 276.69 73.78 277.22 74.92 L 277.59 75.74 C 276.77 75.62 275.14 75.37 274.32 75.25 C 274.64 74.32 275.27 72.44 275.59 71.51 Z" />
<path fill="#7f0000" opacity="0.50" d=" M 247.10 84.97 C 248.40 85.03 249.71 85.10 251.02 85.18 C 250.95 85.63 250.80 86.53 250.72 86.98 C 250.04 90.83 249.33 94.67 248.68 98.53 C 248.22 98.10 247.31 97.23 246.86 96.80 C 246.18 92.88 246.70 88.89 247.10 84.97 M 248.14 86.18 C 247.62 87.81 248.17 88.37 249.80 87.85 C 250.32 86.22 249.77 85.66 248.14 86.18 Z" />
<path fill="#7f0000" opacity="0.50" d=" M 255.10 85.06 C 256.54 85.12 257.99 85.20 259.44 85.30 C 259.66 89.60 259.67 93.91 259.30 98.20 C 258.85 98.36 257.93 98.66 257.48 98.82 C 257.42 98.38 257.29 97.50 257.22 97.06 C 256.76 93.64 256.09 90.27 255.43 86.89 C 255.35 86.43 255.18 85.52 255.10 85.06 M 256.22 86.17 C 255.70 87.80 256.25 88.35 257.88 87.83 C 258.40 86.20 257.85 85.65 256.22 86.17 Z" />
<path fill="#7f0000" opacity="0.50" d=" M 252.61 93.60 C 253.27 94.97 253.91 96.35 254.54 97.74 C 253.82 97.79 252.38 97.89 251.66 97.94 C 251.97 96.49 252.29 95.04 252.61 93.60 Z" />
<path fill="#7f0000" opacity="0.50" d=" M 284.25 95.95 C 285.30 95.49 286.23 94.83 287.20 94.23 C 287.09 94.85 286.87 96.11 286.77 96.73 C 287.35 96.50 288.52 96.04 289.11 95.81 C 287.84 100.27 282.32 98.68 280.62 95.42 C 281.82 95.66 283.03 95.88 284.25 95.95 Z" />
<path fill="#7f0000" opacity="0.50" d=" M 283.77 156.22 C 284.62 159.29 285.03 162.47 285.63 165.60 C 286.03 162.72 286.30 159.81 286.83 156.95 C 287.05 156.69 287.50 156.19 287.73 155.94 C 287.49 159.20 287.46 162.47 287.51 165.74 C 286.80 166.01 285.38 166.54 284.67 166.81 C 283.33 163.42 283.67 159.76 283.77 156.22 Z" />
<path fill="#7f0000" opacity="0.50" d=" M 283.83 178.17 C 284.57 181.29 284.99 184.47 285.68 187.61 C 286.06 184.68 286.27 181.73 286.72 178.80 C 286.94 178.55 287.38 178.05 287.60 177.80 C 287.46 181.10 287.47 184.40 287.53 187.70 C 286.83 187.94 285.41 188.44 284.70 188.69 C 283.20 185.36 283.72 181.69 283.83 178.17 Z" />
<path fill="#7f0000" opacity="0.50" d=" M 259.21 196.45 C 269.66 196.81 280.13 196.35 290.57 196.71 L 289.73 197.09 C 287.31 197.39 284.87 197.37 282.45 197.33 C 282.77 197.99 283.10 198.65 283.42 199.31 C 280.77 199.06 278.08 199.30 275.72 200.63 C 275.73 199.95 275.74 198.59 275.75 197.91 C 275.08 197.90 273.76 197.87 273.10 197.85 C 273.31 201.71 273.48 205.60 273.00 209.45 L 272.91 210.28 C 272.39 206.79 272.47 203.26 272.52 199.75 C 270.14 198.39 267.36 198.28 265.26 200.23 C 264.18 203.31 264.93 206.72 264.74 209.94 C 263.61 209.95 262.47 209.95 261.34 209.95 C 261.49 205.75 262.22 201.12 259.09 197.76 C 259.12 197.44 259.18 196.78 259.21 196.45 M 262.01 197.85 C 262.10 201.29 262.06 204.74 262.16 208.18 C 262.37 208.41 262.79 208.87 263.00 209.10 C 263.29 208.90 263.87 208.52 264.16 208.32 C 264.44 204.81 264.43 201.28 264.67 197.76 C 264.01 197.78 262.68 197.82 262.01 197.85 Z" />
<path fill="#7f0000" opacity="0.50" d=" M 283.69 199.99 C 284.50 203.14 284.98 206.37 285.68 209.55 C 286.04 206.65 286.26 203.73 286.76 200.85 C 286.96 200.58 287.38 200.04 287.58 199.77 C 287.47 203.11 287.47 206.45 287.51 209.80 C 286.36 209.88 285.21 209.96 284.06 210.05 C 283.67 206.71 283.66 203.35 283.69 199.99 Z" />
</g>
<g id="#be0101bf">
<path fill="#be0101" opacity="0.75" d=" M 223.56 62.64 C 224.56 62.67 226.56 62.74 227.56 62.78 C 227.27 63.53 226.70 65.05 226.41 65.80 C 225.88 65.86 224.82 65.98 224.29 66.04 C 224.11 65.19 223.74 63.49 223.56 62.64 Z" />
<path fill="#be0101" opacity="0.75" d=" M 232.07 62.79 C 232.92 62.74 234.63 62.66 235.49 62.62 C 235.32 63.39 234.98 64.94 234.81 65.72 C 234.20 65.81 232.99 65.98 232.38 66.07 C 232.30 65.25 232.15 63.61 232.07 62.79 Z" />
<path fill="#be0101" opacity="0.75" d=" M 239.35 64.16 C 238.92 61.83 242.68 61.95 242.66 64.05 C 241.55 67.63 240.69 71.27 240.36 75.01 L 240.18 76.24 C 238.37 72.54 239.57 68.15 239.35 64.16 Z" />
<path fill="#be0101" opacity="0.75" d=" M 254.59 62.44 C 255.49 62.73 257.29 63.30 258.19 63.59 C 257.33 64.84 256.46 66.08 255.59 67.32 C 255.25 65.70 254.92 64.07 254.59 62.44 Z" />
<path fill="#be0101" opacity="0.75" d=" M 263.14 63.37 C 263.90 63.13 265.43 62.65 266.20 62.41 C 265.80 66.63 265.64 70.87 265.66 75.11 C 265.45 71.09 264.83 67.06 263.14 63.37 Z" />
<path fill="#be0101" opacity="0.75" d=" M 271.11 62.84 C 271.56 62.86 272.44 62.89 272.89 62.90 C 273.46 64.28 273.15 65.28 271.95 65.89 C 270.75 65.23 270.47 64.21 271.11 62.84 Z" />
<path fill="#be0101" opacity="0.75" d=" M 278.14 63.11 C 279.44 62.85 281.93 61.70 281.67 64.12 C 281.73 68.13 282.25 72.27 281.04 76.16 L 280.82 75.03 C 280.23 71.60 279.61 68.18 278.61 64.84 C 278.49 64.41 278.26 63.54 278.14 63.11 Z" />
<path fill="#be0101" opacity="0.75" d=" M 285.52 62.62 C 286.39 62.66 288.12 62.75 288.98 62.79 C 288.90 63.64 288.74 65.32 288.66 66.17 C 288.06 66.04 286.86 65.80 286.26 65.67 C 286.08 64.91 285.71 63.38 285.52 62.62 Z" />
<path fill="#be0101" opacity="0.75" d=" M 293.99 62.81 C 294.84 62.77 296.55 62.68 297.41 62.63 C 297.24 63.40 296.90 64.94 296.74 65.71 C 296.13 65.82 294.92 66.03 294.32 66.13 C 294.24 65.30 294.07 63.64 293.99 62.81 Z" />
<path fill="#be0101" opacity="0.75" d=" M 231.74 84.80 C 232.91 85.13 234.09 85.46 235.27 85.79 C 233.82 89.51 232.92 93.39 232.16 97.30 C 231.67 93.15 231.69 88.97 231.74 84.80 Z" />
<path fill="#be0101" opacity="0.75" d=" M 239.97 85.27 C 241.16 85.30 242.35 85.33 243.54 85.36 C 243.56 89.51 243.79 93.68 243.21 97.81 C 242.11 93.89 241.05 89.97 240.14 86.01 L 239.97 85.27 Z" />
<path fill="#be0101" opacity="0.75" d=" M 277.60 85.39 C 278.61 85.35 279.62 85.32 280.64 85.29 C 281.98 88.80 283.14 92.36 284.25 95.95 C 283.03 95.88 281.82 95.66 280.62 95.42 C 280.02 95.28 278.82 94.98 278.22 94.83 C 277.17 95.76 276.11 96.68 275.06 97.61 C 274.84 96.11 274.81 94.59 274.94 93.08 C 275.74 90.49 276.72 87.96 277.60 85.39 M 277.58 87.65 C 277.69 88.26 277.91 89.48 278.03 90.08 L 277.48 90.94 C 277.66 91.45 278.01 92.47 278.18 92.98 L 277.25 93.33 C 278.33 93.53 280.47 93.92 281.54 94.12 C 281.32 91.55 281.51 86.69 277.58 87.65 Z" />
<path fill="#be0101" opacity="0.75" d=" M 289.70 85.41 C 290.88 85.41 292.07 85.41 293.25 85.42 C 294.41 89.69 296.34 93.76 296.95 98.17 C 295.14 97.22 293.53 95.95 291.96 94.66 C 291.01 95.04 290.05 95.43 289.11 95.81 C 288.52 96.04 287.35 96.50 286.77 96.73 C 286.87 96.11 287.09 94.85 287.20 94.23 C 287.70 91.20 288.75 88.31 289.70 85.41 M 290.36 86.37 C 289.74 88.83 289.24 91.32 288.92 93.84 C 290.63 93.85 292.34 93.84 294.06 93.83 C 293.69 91.32 293.18 88.84 292.59 86.38 C 292.03 86.38 290.92 86.37 290.36 86.37 Z" />
<path fill="#be0101" opacity="0.75" d=" M 248.14 86.18 C 249.77 85.66 250.32 86.22 249.80 87.85 C 248.17 88.37 247.62 87.81 248.14 86.18 Z" />
<path fill="#be0101" opacity="0.75" d=" M 256.22 86.17 C 257.85 85.65 258.40 86.20 257.88 87.83 C 256.25 88.35 255.70 87.80 256.22 86.17 Z" />
<path fill="#be0101" opacity="0.75" d=" M 268.78 87.81 C 270.17 90.29 271.15 92.97 272.24 95.59 C 271.71 96.15 271.20 96.71 270.72 97.30 C 269.51 96.33 268.34 95.31 267.00 94.53 C 265.02 95.67 263.21 97.08 261.23 98.21 C 261.64 95.50 262.59 92.87 264.22 90.64 C 264.24 91.41 264.27 92.94 264.28 93.71 C 266.06 93.79 267.84 93.87 269.62 93.95 C 269.34 91.90 269.06 89.85 268.78 87.81 Z" />
<path fill="#be0101" opacity="0.75" d=" M 245.44 106.62 C 248.30 105.91 250.51 108.30 252.12 110.30 C 248.84 110.56 244.42 107.49 242.48 111.57 C 241.09 115.11 243.76 117.80 246.97 118.76 C 247.47 118.34 248.48 117.50 248.98 117.08 C 248.34 115.75 247.71 114.42 247.11 113.07 C 248.81 113.57 251.57 112.89 252.04 115.19 C 252.16 115.87 252.41 117.24 252.53 117.93 C 250.09 119.07 247.58 121.26 244.71 120.28 C 241.52 118.72 238.17 115.41 239.61 111.54 C 240.95 109.35 243.00 107.50 245.44 106.62 Z" />
<path fill="#be0101" opacity="0.75" d=" M 268.54 111.52 C 270.30 108.50 274.21 105.03 277.83 107.24 C 279.35 107.73 279.61 109.41 280.23 110.67 C 278.02 110.22 275.82 108.99 273.53 109.43 C 270.93 110.59 270.65 113.87 271.67 116.20 C 272.80 117.46 274.47 118.00 275.96 118.74 C 276.44 118.32 277.41 117.48 277.90 117.06 C 277.27 115.74 276.65 114.43 276.06 113.10 C 278.04 113.40 280.00 113.83 281.94 114.34 C 282.94 110.84 285.23 107.42 289.00 106.60 C 291.70 106.44 294.10 108.22 295.06 110.69 C 292.58 110.26 290.13 108.97 287.58 109.45 C 284.92 110.94 284.50 115.20 286.92 117.08 C 288.32 118.38 291.04 119.29 292.18 117.20 C 291.59 115.77 290.85 114.41 290.17 113.03 C 291.83 113.50 294.23 112.96 295.12 114.82 C 295.41 115.73 295.66 116.65 295.87 117.59 C 293.47 119.11 290.79 121.43 287.75 120.23 C 285.65 118.97 284.00 117.12 282.23 115.46 C 281.03 117.15 279.88 119.12 277.78 119.82 C 272.87 122.42 266.99 116.49 268.54 111.52 Z" />
<path fill="#be0101" opacity="0.75" d=" M 302.68 106.73 C 304.81 106.02 306.73 107.60 308.61 108.34 C 308.67 108.94 308.80 110.14 308.86 110.73 C 306.53 110.08 304.13 108.82 301.67 109.53 C 298.86 111.56 299.02 116.43 302.36 117.81 C 303.81 118.98 305.44 117.94 306.89 117.36 C 305.98 115.98 305.05 114.62 304.13 113.25 C 306.23 113.37 308.33 113.53 310.43 113.72 C 310.20 115.25 311.17 117.44 309.44 118.34 C 307.51 119.52 305.32 120.73 302.98 120.42 C 299.73 119.61 296.94 116.55 297.20 113.08 C 297.10 109.91 300.06 107.81 302.68 106.73 Z" />
<path fill="#be0101" opacity="0.75" d=" M 253.62 113.02 C 254.37 109.92 256.93 107.46 259.98 106.64 C 261.96 106.56 263.73 107.72 265.55 108.35 C 265.61 108.94 265.72 110.12 265.78 110.71 C 263.01 109.93 258.86 107.76 257.04 111.24 C 254.54 115.18 259.82 120.47 263.68 117.46 C 262.83 116.00 261.95 114.54 261.12 113.07 C 262.97 113.32 264.81 113.66 266.61 114.16 C 266.63 115.35 266.66 116.55 266.69 117.75 C 264.54 119.15 262.25 121.14 259.47 120.41 C 256.31 119.38 253.96 116.31 253.62 113.02 Z" />
<path fill="#be0101" opacity="0.75" d=" M 250.42 130.41 C 255.86 129.10 261.10 136.70 256.87 140.95 C 253.90 146.08 245.81 143.31 245.27 137.92 C 244.70 134.54 247.35 131.40 250.42 130.41 M 250.20 132.77 C 247.24 134.78 247.45 140.30 251.02 141.55 C 252.66 141.93 253.85 140.79 254.70 139.53 C 257.04 136.74 253.87 130.98 250.20 132.77 Z" />
<path fill="#be0101" opacity="0.75" d=" M 264.42 130.39 C 269.23 129.30 274.85 136.12 271.15 140.19 C 269.37 143.85 263.94 145.15 261.26 141.75 C 257.39 138.31 259.55 131.50 264.42 130.39 M 264.26 132.91 C 261.05 134.84 261.54 140.18 265.02 141.58 C 267.45 141.68 269.09 139.16 269.38 137.01 C 269.04 134.79 266.77 131.20 264.26 132.91 Z" />
<path fill="#be0101" opacity="0.75" d=" M 278.35 130.36 C 282.97 129.47 287.75 135.20 285.47 139.52 C 283.95 143.13 278.81 145.40 275.70 142.31 C 271.31 139.06 273.09 131.50 278.35 130.36 M 278.32 133.01 C 274.70 134.88 275.75 141.27 279.96 141.48 C 282.51 140.31 283.56 137.24 282.36 134.73 C 281.45 133.61 279.84 131.57 278.32 133.01 Z" />
<path fill="#be0101" opacity="0.75" d=" M 286.89 130.51 C 290.23 130.36 293.58 130.39 296.93 130.48 C 295.84 131.65 294.71 132.80 293.76 134.09 C 293.26 136.97 293.69 139.91 293.43 142.81 C 292.47 143.65 291.53 143.64 290.59 142.79 C 290.36 139.86 290.50 136.92 290.48 133.99 C 289.26 132.84 288.06 131.70 286.89 130.51 Z" />
<path fill="#be0101" opacity="0.75" d=" M 298.90 130.43 C 302.00 130.37 305.11 130.35 308.22 130.56 C 307.08 131.78 305.87 132.92 304.66 134.06 C 304.17 137.37 305.92 141.72 302.85 144.09 C 301.15 141.06 301.85 137.59 301.52 134.30 C 300.83 132.89 299.79 131.70 298.90 130.43 Z" />
<path fill="#be0101" opacity="0.75" d=" M 247.62 153.45 C 250.41 153.36 253.21 153.33 256.01 153.27 C 252.81 156.72 253.42 161.43 253.52 165.77 C 252.50 165.77 251.48 165.77 250.46 165.78 C 250.40 161.46 251.59 156.47 247.62 153.45 Z" />
<path fill="#be0101" opacity="0.75" d=" M 258.99 153.28 C 261.75 153.32 264.50 153.36 267.26 153.46 C 263.62 156.66 264.84 161.47 264.49 165.72 C 264.09 165.94 263.30 166.37 262.91 166.58 C 260.87 164.56 261.92 161.50 261.64 158.96 C 261.98 156.66 260.11 155.04 258.99 153.28 Z" />
<path fill="#be0101" opacity="0.75" d=" M 270.06 153.28 C 273.04 153.34 276.02 153.35 279.01 153.39 C 277.75 155.13 275.54 156.57 275.75 158.97 C 275.64 161.27 275.71 163.57 275.69 165.87 C 274.66 165.80 273.64 165.72 272.62 165.65 C 272.73 161.34 273.58 156.53 270.06 153.28 Z" />
<path fill="#be0101" opacity="0.75" d=" M 280.87 153.45 C 284.01 153.32 287.15 153.31 290.28 153.44 C 289.43 154.27 288.56 155.08 287.73 155.94 C 287.50 156.19 287.05 156.69 286.83 156.95 C 286.30 159.81 286.03 162.72 285.63 165.60 C 285.03 162.47 284.62 159.29 283.77 156.22 C 282.86 155.23 281.85 154.36 280.87 153.45 Z" />
<path fill="#be0101" opacity="0.75" d=" M 270.09 175.23 C 272.85 175.31 275.62 175.34 278.39 175.41 C 274.80 178.66 275.79 183.52 275.70 187.83 C 274.67 187.76 273.64 187.69 272.62 187.62 C 272.72 183.32 273.59 178.50 270.09 175.23 Z" />
<path fill="#be0101" opacity="0.75" d=" M 281.43 175.45 C 284.34 175.33 287.25 175.29 290.17 175.31 C 289.31 176.13 288.43 176.94 287.60 177.80 C 287.38 178.05 286.94 178.55 286.72 178.80 C 286.27 181.73 286.06 184.68 285.68 187.61 C 284.99 184.47 284.57 181.29 283.83 178.17 C 283.06 177.23 282.26 176.32 281.43 175.45 Z" />
<path fill="#be0101" opacity="0.75" d=" M 249.22 175.52 C 251.05 175.53 252.88 175.53 254.71 175.54 C 252.85 179.22 253.29 183.41 253.30 187.40 C 252.65 187.40 251.35 187.40 250.70 187.40 C 250.68 183.40 251.21 179.18 249.22 175.52 Z" />
<path fill="#be0101" opacity="0.75" d=" M 261.31 175.38 C 263.07 175.66 264.82 175.95 266.58 176.22 C 266.21 176.66 265.48 177.54 265.11 177.98 C 264.28 181.23 264.35 184.61 264.02 187.94 C 263.59 187.65 262.74 187.07 262.31 186.78 C 261.36 183.07 261.74 179.17 261.31 175.38 Z" />
<path fill="#be0101" opacity="0.75" d=" M 247.48 197.39 C 250.34 196.57 253.34 196.48 256.19 197.40 C 252.34 200.46 253.62 205.40 253.52 209.67 C 252.50 209.67 251.48 209.67 250.47 209.68 C 250.28 205.40 251.82 200.13 247.48 197.39 Z" />
<path fill="#be0101" opacity="0.75" d=" M 282.45 197.33 C 284.87 197.37 287.31 197.39 289.73 197.09 C 289.03 198.00 288.29 198.88 287.58 199.77 C 287.38 200.04 286.96 200.58 286.76 200.85 C 286.26 203.73 286.04 206.65 285.68 209.55 C 284.98 206.37 284.50 203.14 283.69 199.99 L 283.42 199.31 C 283.10 198.65 282.77 197.99 282.45 197.33 Z" />
<path fill="#be0101" opacity="0.75" d=" M 262.01 197.85 C 262.68 197.82 264.01 197.78 264.67 197.76 C 264.43 201.28 264.44 204.81 264.16 208.32 C 263.87 208.52 263.29 208.90 263.00 209.10 C 262.79 208.87 262.37 208.41 262.16 208.18 C 262.06 204.74 262.10 201.29 262.01 197.85 Z" />
<path fill="#be0101" opacity="0.75" d=" M 273.10 197.85 C 273.76 197.87 275.08 197.90 275.75 197.91 C 275.74 198.59 275.73 199.95 275.72 200.63 C 275.71 203.69 275.74 206.76 275.71 209.83 C 275.04 209.74 273.68 209.54 273.00 209.45 C 273.48 205.60 273.31 201.71 273.10 197.85 Z" />
<path fill="#be0101" opacity="0.75" d=" M 258.71 218.65 C 261.84 218.57 264.97 218.55 268.10 218.67 C 267.02 219.89 265.88 221.06 264.72 222.21 C 264.58 225.36 264.58 228.51 264.62 231.67 C 263.93 231.67 262.56 231.66 261.88 231.66 C 261.61 228.28 261.63 224.89 261.59 221.50 C 260.55 221.09 259.52 220.67 258.48 220.27 C 258.54 219.86 258.65 219.05 258.71 218.65 Z" />
<path fill="#be0101" opacity="0.75" d=" M 247.90 218.64 C 250.94 218.57 254.00 218.57 257.03 219.01 C 255.91 220.08 254.76 221.11 253.59 222.12 C 253.48 225.28 253.49 228.44 253.50 231.60 C 252.49 231.61 251.48 231.61 250.47 231.63 C 250.58 227.12 251.13 222.28 247.90 218.64 Z" />
<path fill="#be0101" opacity="0.75" d=" M 269.92 218.78 C 272.77 218.55 275.68 218.42 278.46 219.26 C 274.81 222.48 275.77 227.37 275.70 231.69 C 275.06 231.68 273.78 231.66 273.14 231.65 C 272.73 228.53 272.68 225.38 272.72 222.24 C 271.77 221.09 270.83 219.94 269.92 218.78 Z" />
<path fill="#be0101" opacity="0.75" d=" M 281.56 219.28 C 284.35 218.43 287.29 218.54 290.17 218.77 C 289.22 219.95 288.24 221.11 287.26 222.27 C 287.30 225.40 287.20 228.55 286.79 231.66 C 286.17 231.67 284.92 231.68 284.30 231.69 C 284.22 227.38 285.13 222.53 281.56 219.28 Z" />
<path fill="#be0101" opacity="0.75" d=" M 291.77 226.99 C 293.39 226.61 295.02 226.30 296.66 226.01 C 296.63 226.74 296.57 228.19 296.55 228.92 C 294.82 228.64 293.14 228.12 291.77 226.99 Z" />
</g>
<g id="#f94a4afa">
<path fill="#f94a4a" opacity="0.98" d=" M 265.50 85.52 C 266.47 85.49 267.44 85.45 268.41 85.42 C 268.50 86.02 268.69 87.21 268.78 87.81 C 269.06 89.85 269.34 91.90 269.62 93.95 C 267.84 93.87 266.06 93.79 264.28 93.71 C 264.27 92.94 264.24 91.41 264.22 90.64 C 264.36 88.87 264.97 87.20 265.50 85.52 M 266.12 90.23 C 264.60 91.22 266.34 93.71 267.78 92.56 C 269.29 91.56 267.55 89.08 266.12 90.23 Z" />
<path fill="#f94a4a" opacity="0.98" d=" M 290.36 86.37 C 290.92 86.37 292.03 86.38 292.59 86.38 C 293.18 88.84 293.69 91.32 294.06 93.83 C 292.34 93.84 290.63 93.85 288.92 93.84 C 289.24 91.32 289.74 88.83 290.36 86.37 M 291.17 88.87 C 290.81 90.10 290.47 91.34 290.13 92.58 C 290.86 92.55 292.31 92.49 293.03 92.46 C 292.42 91.25 291.80 90.06 291.17 88.87 Z" />
<path fill="#f94a4a" opacity="0.98" d=" M 277.58 87.65 C 281.51 86.69 281.32 91.55 281.54 94.12 C 280.47 93.92 278.33 93.53 277.25 93.33 L 278.18 92.98 C 280.83 93.02 280.77 89.54 278.03 90.08 C 277.91 89.48 277.69 88.26 277.58 87.65 Z" />
</g>
<g id="#fefefefe">
<path fill="#fefefe" opacity="1.00" d=" M 291.17 88.87 C 291.80 90.06 292.42 91.25 293.03 92.46 C 292.31 92.49 290.86 92.55 290.13 92.58 C 290.47 91.34 290.81 90.10 291.17 88.87 Z" />
<path fill="#fefefe" opacity="1.00" d=" M 195.25 90.35 C 195.84 90.39 197.01 90.47 197.59 90.51 C 197.99 91.58 198.39 92.64 198.78 93.71 C 197.76 93.57 196.74 93.43 195.73 93.29 C 195.57 92.31 195.41 91.33 195.25 90.35 Z" />
<path fill="#fefefe" opacity="1.00" d=" M 266.12 90.23 C 267.55 89.08 269.29 91.56 267.78 92.56 C 266.34 93.71 264.60 91.22 266.12 90.23 Z" />
<path fill="#fefefe" opacity="1.00" d=" M 186.91 91.34 C 188.36 91.24 190.31 89.92 191.49 91.34 C 196.27 96.49 200.88 102.17 202.90 109.04 C 207.61 124.94 214.53 140.35 216.33 156.97 C 217.04 164.75 215.51 172.69 217.45 180.34 C 216.74 188.69 220.41 196.66 219.55 204.99 C 218.16 207.58 215.66 209.51 214.87 212.43 C 213.68 217.00 210.99 221.00 209.97 225.63 C 208.73 230.54 206.45 235.11 205.14 240.00 L 83.15 240.00 C 76.89 237.08 70.95 233.48 65.02 229.95 C 61.98 228.54 61.12 225.14 59.35 222.60 C 57.51 219.85 54.58 218.11 52.55 215.54 C 51.60 210.22 52.18 204.49 49.55 199.58 C 47.63 195.87 46.89 191.72 45.30 187.87 C 43.46 183.19 43.88 177.92 41.68 173.36 C 39.30 168.94 40.64 163.78 40.37 159.00 C 40.88 150.10 40.27 141.18 40.82 132.29 L 41.05 131.62 C 43.75 128.56 45.30 124.80 45.75 120.76 C 50.74 117.78 56.19 115.72 61.76 114.09 C 60.39 118.55 57.83 122.91 58.44 127.73 C 59.26 130.00 61.11 131.76 61.73 134.13 C 63.09 138.08 63.18 142.28 63.77 146.36 C 65.34 149.61 67.95 152.61 71.46 153.76 C 76.74 155.61 82.49 156.19 88.03 155.42 C 91.86 154.19 94.13 150.57 97.12 148.11 C 100.36 145.52 101.63 141.40 104.38 138.41 C 107.12 135.34 110.09 132.31 111.68 128.45 C 113.54 124.19 113.82 119.50 114.62 114.98 C 112.81 113.60 110.99 112.21 109.44 110.53 C 105.76 106.54 101.34 103.37 97.20 99.89 C 97.30 99.37 97.48 98.33 97.58 97.81 C 105.40 96.38 113.27 95.17 121.06 93.55 C 122.64 96.45 124.69 99.03 126.63 101.68 C 125.43 103.29 124.20 104.88 123.06 106.54 C 125.70 106.49 129.03 107.38 130.93 104.96 C 134.07 101.62 131.50 96.31 134.08 92.71 C 136.30 92.44 138.53 92.41 140.76 92.32 C 137.49 97.87 135.72 104.50 137.07 110.90 C 137.81 113.52 139.96 115.35 141.60 117.40 C 145.19 121.46 147.47 126.85 152.35 129.63 C 158.59 133.17 165.96 133.91 173.01 133.75 C 177.67 133.61 182.37 134.07 187.01 133.48 C 192.73 131.55 197.44 126.72 199.37 121.01 C 199.83 117.72 199.81 114.33 199.36 111.04 C 197.78 107.42 194.24 105.10 192.70 101.45 C 191.10 97.89 189.06 94.58 186.91 91.34 M 121.58 131.69 C 115.78 135.44 111.34 140.97 107.63 146.73 C 105.88 149.42 103.25 151.90 103.30 155.35 C 102.47 165.61 98.61 175.53 99.52 185.90 C 99.30 188.96 98.11 191.86 97.65 194.88 C 96.96 200.34 93.90 205.03 92.10 210.14 C 90.88 213.59 88.30 216.30 86.62 219.51 C 85.59 222.24 87.92 224.51 90.16 225.63 C 93.36 227.18 96.67 228.63 100.13 229.45 C 105.79 229.76 111.48 230.13 117.04 231.31 C 119.02 231.69 121.07 231.85 123.07 231.54 C 126.73 229.68 128.86 225.16 133.24 224.63 C 141.05 224.12 146.60 217.94 152.80 213.92 C 161.30 209.40 168.29 202.57 176.38 197.48 C 181.96 197.28 187.47 196.26 193.06 196.59 C 197.65 196.92 201.69 193.59 203.69 189.69 C 206.45 184.90 204.99 179.20 205.36 173.96 C 205.92 169.48 202.58 166.07 200.33 162.62 C 196.41 157.08 194.06 150.56 189.76 145.28 C 187.42 141.77 183.18 139.47 178.98 139.42 C 177.15 140.56 175.72 142.18 174.15 143.63 C 165.94 139.20 158.02 134.13 149.33 130.65 C 145.76 129.03 141.77 129.44 138.01 128.72 C 132.35 127.74 126.75 129.53 121.58 131.69 Z" />
<path fill="#fefefe" opacity="1.00" d=" M 144.21 92.49 C 151.74 91.25 159.37 91.54 166.97 91.57 C 168.41 93.25 167.00 95.89 167.60 97.95 C 171.05 101.47 176.47 100.60 180.93 100.39 C 182.45 99.45 185.32 97.95 184.25 95.79 C 182.56 94.64 181.20 97.11 179.61 97.52 C 176.52 97.77 173.33 97.75 170.34 96.83 C 170.44 95.08 170.58 93.33 170.77 91.59 C 174.89 91.53 179.02 91.60 183.14 91.49 C 186.36 94.71 188.49 98.74 190.23 102.90 C 191.55 106.27 194.68 108.37 196.43 111.45 C 196.78 114.48 196.86 117.58 196.49 120.61 C 194.97 125.08 191.34 128.81 186.94 130.51 C 182.33 131.22 177.64 130.64 172.99 130.83 C 166.44 130.76 159.41 130.73 153.59 127.32 C 149.22 124.32 147.02 119.29 143.59 115.41 C 141.79 113.30 139.38 111.13 139.72 108.07 C 139.28 102.52 140.70 96.87 144.21 92.49 Z" />
<path fill="#fefefe" opacity="1.00" d=" M 125.65 93.67 C 126.96 93.39 128.30 93.29 129.63 93.16 C 129.65 94.75 129.63 96.34 129.56 97.93 C 127.43 97.67 124.45 96.28 125.65 93.67 Z" />
<path fill="#fefefe" opacity="1.00" d=" M 92.62 102.32 C 92.23 101.21 92.25 100.09 92.70 98.97 C 94.02 100.01 95.22 101.21 96.15 102.63 C 94.97 102.57 93.79 102.46 92.62 102.32 Z" />
<path fill="#fefefe" opacity="1.00" d=" M 74.74 108.49 C 78.81 107.11 82.10 104.22 86.00 102.49 C 88.33 102.34 90.29 103.85 92.43 104.53 C 94.99 105.58 98.20 105.63 100.02 107.99 C 103.28 111.15 104.32 115.68 106.49 119.52 C 107.91 119.54 109.32 119.55 110.73 119.56 C 110.91 126.20 107.05 132.01 102.43 136.43 C 99.33 139.17 98.52 143.65 95.14 146.13 C 92.75 148.06 90.85 150.54 88.39 152.38 C 82.95 153.18 77.20 152.84 71.98 150.98 C 68.90 149.62 65.99 146.57 66.40 142.97 C 66.48 139.14 64.43 135.68 64.42 131.86 C 69.12 130.45 75.17 129.99 77.57 124.99 C 77.72 122.15 75.79 119.85 74.43 117.53 C 71.17 117.48 67.88 117.01 64.66 117.67 C 66.20 119.57 68.46 120.68 70.92 120.44 C 73.94 119.72 76.09 124.67 73.13 126.06 C 70.19 127.60 66.86 128.12 63.80 129.32 C 62.31 130.12 60.98 128.26 61.28 126.87 C 61.15 123.32 62.54 119.97 63.71 116.69 C 65.25 111.86 70.61 110.37 74.74 108.49 Z" />
<path fill="#fefefe" opacity="1.00" d=" M 106.16 112.20 C 109.50 111.97 110.73 115.08 111.84 117.58 C 108.62 118.26 106.56 114.98 106.16 112.20 Z" />
<path fill="#fefefe" opacity="1.00" d=" M 207.16 112.93 C 209.16 115.90 211.52 118.74 212.38 122.29 C 213.51 126.45 216.22 129.97 217.46 134.08 C 217.72 137.49 217.63 140.93 217.30 144.34 C 215.59 140.79 215.24 136.81 213.89 133.14 C 211.11 126.59 209.44 119.66 207.16 112.93 Z" />
<path fill="#fefefe" opacity="1.00" d=" M 36.76 127.16 C 38.63 125.59 40.65 124.20 42.81 123.06 C 42.03 125.14 41.11 127.18 39.76 128.96 C 39.09 129.72 38.40 130.47 37.71 131.22 C 37.38 129.87 37.07 128.51 36.76 127.16 Z" />
<path fill="#fefefe" opacity="1.00" d=" M 122.02 134.39 C 126.68 132.73 131.45 131.11 136.47 131.34 C 138.24 136.33 137.31 141.81 137.20 147.00 C 133.81 146.52 130.76 144.83 127.84 143.13 C 125.48 140.54 123.94 137.30 122.02 134.39 Z" />
<path fill="#fefefe" opacity="1.00" d=" M 140.03 132.30 C 143.73 132.10 147.49 132.46 150.89 134.04 C 158.62 137.54 165.54 142.58 173.28 146.06 C 174.61 146.48 176.03 146.49 177.39 146.82 C 179.83 147.91 181.95 149.99 184.84 149.59 C 183.68 146.86 181.10 145.37 178.49 144.25 C 178.47 143.74 178.42 142.72 178.40 142.20 C 181.87 142.18 185.32 143.78 187.35 146.63 C 191.97 152.59 194.66 159.79 199.18 165.84 C 201.20 168.45 202.70 171.58 202.45 174.97 C 202.22 180.22 203.64 186.39 199.66 190.64 C 196.03 195.30 189.52 193.35 184.42 193.73 C 182.82 188.67 183.53 183.43 184.71 178.38 C 189.40 177.28 192.95 181.03 196.25 183.71 C 197.21 184.92 198.70 184.84 200.03 184.35 C 197.38 180.19 193.14 177.27 188.66 175.43 C 184.38 174.02 180.56 178.02 181.22 182.24 C 176.94 181.20 176.78 175.87 173.65 173.36 C 170.33 170.56 167.49 165.07 162.38 166.50 C 156.45 169.00 152.71 174.53 148.07 178.71 C 146.14 177.14 144.19 175.58 142.05 174.29 C 137.10 177.13 132.29 181.12 130.66 186.82 C 129.63 190.26 127.62 193.26 126.02 196.45 C 126.72 196.49 128.10 196.59 128.79 196.64 C 130.86 193.78 132.46 190.60 133.54 187.23 C 134.59 183.51 137.45 180.63 140.52 178.44 C 142.90 177.22 144.52 179.82 146.32 180.89 C 147.77 182.36 149.54 180.66 150.79 179.82 C 154.60 176.67 157.38 172.31 161.79 169.90 C 162.89 169.19 164.28 169.14 165.52 169.45 C 169.15 171.85 172.03 175.24 174.49 178.81 C 172.24 180.72 169.65 182.56 168.65 185.48 C 167.72 188.16 166.35 190.67 164.27 192.64 C 162.71 191.55 161.23 190.33 159.49 189.56 C 155.68 188.56 151.86 190.57 149.05 193.00 C 146.13 197.78 146.11 203.57 146.34 209.00 C 142.62 206.23 139.03 201.99 134.00 202.24 C 129.89 202.12 126.43 205.27 124.74 208.80 C 122.85 212.86 121.36 217.09 119.37 221.10 C 115.29 219.10 113.29 213.15 108.22 213.32 C 103.88 214.87 100.36 218.03 96.84 220.90 C 95.72 221.75 95.23 222.91 95.35 224.38 C 100.54 222.82 103.70 217.50 108.98 216.30 C 113.61 217.61 115.29 223.87 120.21 224.90 C 122.96 220.16 125.12 215.14 127.25 210.11 C 128.42 206.91 131.65 204.95 134.93 204.61 C 139.94 206.54 144.58 210.27 146.02 215.65 C 142.87 217.62 139.66 219.50 136.38 221.22 C 133.73 221.78 130.73 221.65 128.57 223.53 C 125.55 225.58 123.26 229.83 119.01 228.66 C 112.06 226.67 104.67 228.20 97.80 225.86 C 94.66 224.72 91.38 223.59 89.00 221.12 C 93.74 214.23 97.01 206.49 99.80 198.65 C 100.51 193.31 103.24 188.25 102.41 182.76 C 101.77 176.70 104.80 171.10 104.62 165.09 C 105.04 161.72 106.55 158.54 106.45 155.10 C 106.19 152.72 107.83 150.88 109.36 149.29 C 111.89 148.61 113.19 151.52 114.24 153.29 C 112.65 153.39 111.07 153.51 109.49 153.66 C 110.17 155.75 112.37 156.12 114.06 157.08 C 114.87 157.92 114.53 159.25 114.78 160.31 C 112.30 161.41 109.86 162.61 107.41 163.77 C 107.42 164.79 107.44 165.81 107.47 166.83 C 110.75 165.30 114.31 164.20 117.21 161.98 C 117.46 160.69 117.67 159.39 117.84 158.09 C 120.84 159.05 123.58 161.43 126.92 160.34 C 131.29 157.68 130.36 152.02 130.38 147.70 C 133.23 148.85 135.95 150.62 139.12 150.63 C 139.73 147.48 140.45 144.35 140.57 141.13 C 144.65 142.81 150.15 144.14 153.59 140.56 C 153.56 139.51 153.54 138.47 153.52 137.43 C 152.97 137.36 151.87 137.22 151.32 137.15 C 150.75 138.05 150.18 138.95 149.61 139.85 C 146.65 139.63 143.36 140.02 140.83 138.15 C 139.34 136.50 139.70 134.30 140.03 132.30 Z" />
<path fill="#fefefe" opacity="1.00" d=" M 118.58 137.56 C 120.57 136.24 121.78 138.88 122.55 140.32 C 123.66 142.89 125.27 145.17 127.44 146.95 C 127.40 149.32 127.45 151.69 127.40 154.06 C 127.47 155.87 126.30 158.26 124.14 157.65 C 121.98 156.84 119.95 155.67 117.71 155.07 C 117.33 151.45 114.62 149.20 112.45 146.63 C 112.38 142.74 116.09 140.09 118.58 137.56 Z" />
<path fill="#fefefe" opacity="1.00" d=" M 36.46 170.85 C 41.83 175.05 40.14 182.73 42.49 188.42 C 44.43 192.42 44.62 197.02 47.02 200.82 C 48.78 203.66 48.82 207.06 48.72 210.30 C 42.61 202.24 38.36 192.29 38.54 182.05 C 38.15 178.25 35.63 174.82 36.46 170.85 Z" />
<path fill="#fefefe" opacity="1.00" d=" M 174.43 182.41 C 175.93 181.73 177.16 182.91 178.09 183.94 C 180.97 186.41 181.40 190.73 181.15 194.23 C 179.28 194.43 177.38 194.29 175.52 194.61 C 166.39 200.47 158.57 208.44 148.53 212.89 C 149.45 206.87 148.09 200.06 151.79 194.79 C 153.54 192.42 156.76 191.88 159.49 192.55 C 161.50 193.61 162.48 195.75 163.54 197.64 C 163.98 197.68 164.86 197.74 165.30 197.77 C 166.20 193.90 169.52 191.36 170.82 187.69 C 171.59 185.70 172.52 183.58 174.43 182.41 Z" />
<path fill="#fefefe" opacity="1.00" d=" M 52.46 223.50 C 52.19 222.17 53.06 221.12 53.71 220.08 C 58.14 223.38 58.26 230.24 63.63 232.42 C 68.13 235.10 72.65 237.77 77.40 240.00 L 57.71 240.00 C 53.92 235.36 52.79 229.33 52.46 223.50 Z" />
</g>
<g id="#b4b4b4fe">
<path fill="#b4b4b4" opacity="1.00" d=" M 278.03 90.08 C 280.77 89.54 280.83 93.02 278.18 92.98 C 278.01 92.47 277.66 91.45 277.48 90.94 L 278.03 90.08 Z" />
<path fill="#b4b4b4" opacity="1.00" d=" M 35.68 144.31 C 36.64 141.23 37.27 138.06 37.67 134.87 C 37.47 140.60 38.44 146.32 37.92 152.05 C 37.90 153.82 36.53 155.06 35.56 156.40 C 35.49 152.37 35.44 148.33 35.68 144.31 Z" />
</g>
<g id="#8e4646fd">
<path fill="#8e4646" opacity="1.00" d=" M 209.93 97.04 C 212.09 96.43 214.23 95.16 216.53 95.45 C 221.46 101.66 224.51 109.15 227.46 116.44 C 228.85 118.96 225.97 120.11 224.06 120.72 C 221.47 116.73 219.73 112.31 218.19 107.83 C 216.81 103.33 212.93 100.42 209.93 97.04 Z" />
<path fill="#8e4646" opacity="1.00" d=" M 23.07 150.12 C 23.52 148.39 25.47 148.30 26.83 147.68 C 23.82 160.19 22.56 173.08 22.59 185.93 C 21.29 186.22 19.99 186.50 18.70 186.79 C 16.81 182.02 19.02 176.97 18.54 172.04 C 17.91 164.44 20.19 157.05 23.07 150.12 Z" />
</g>
<g id="#5e5e5efe">
<path fill="#5e5e5e" opacity="1.00" d=" M 221.91 125.16 C 225.48 123.04 229.15 121.08 232.94 119.37 C 235.61 123.18 238.26 127.01 240.63 131.01 C 236.72 133.02 232.99 135.38 229.70 138.31 C 226.71 134.18 224.10 129.77 221.91 125.16 Z" />
<path fill="#5e5e5e" opacity="1.00" d=" M 35.69 141.92 C 35.78 136.99 35.64 131.99 36.76 127.16 C 37.07 128.51 37.38 129.87 37.71 131.22 C 38.40 130.47 39.09 129.72 39.76 128.96 C 40.09 129.62 40.73 130.96 41.05 131.62 L 40.82 132.29 C 39.02 136.99 39.62 142.09 39.55 147.01 C 39.41 155.10 40.62 163.21 39.63 171.28 C 39.32 167.77 39.14 164.24 38.84 160.73 C 37.63 163.40 36.44 166.07 35.36 168.79 C 35.71 164.67 35.53 160.53 35.56 156.40 C 36.53 155.06 37.90 153.82 37.92 152.05 C 38.44 146.32 37.47 140.60 37.67 134.87 C 37.27 138.06 36.64 141.23 35.68 144.31 C 35.68 143.71 35.69 142.52 35.69 141.92 Z" />
<path fill="#5e5e5e" opacity="1.00" d=" M 12.52 189.64 C 17.31 189.35 22.17 189.50 26.80 188.01 C 27.38 192.40 27.91 196.80 28.56 201.19 C 24.19 202.91 19.47 202.59 14.89 202.37 C 12.58 198.51 12.18 194.04 12.52 189.64 Z" />
<path fill="#5e5e5e" opacity="1.00" d=" M 50.69 219.52 C 51.70 219.68 52.70 219.87 53.71 220.08 C 53.06 221.12 52.19 222.17 52.46 223.50 C 52.79 229.33 53.92 235.36 57.71 240.00 L 55.62 240.00 C 55.20 239.51 54.35 238.52 53.93 238.03 C 51.54 232.16 50.84 225.80 50.69 219.52 Z" />
</g>
</svg>
