<?xml version="1.0" encoding="UTF-8" ?>
<!DOCTYPE svg PUBLIC "-//W3C//DTD SVG 1.1//EN" "http://www.w3.org/Graphics/SVG/1.1/DTD/svg11.dtd">
<svg width="320pt" height="240pt" viewBox="0 0 320 240" version="1.1" xmlns="http://www.w3.org/2000/svg">
<g id="#474747e3">
<path fill="#474747" opacity="0.89" d=" M 152.83 93.99 C 158.61 91.18 165.07 90.10 171.32 88.83 C 178.21 88.32 185.14 88.83 192.05 88.61 C 197.98 88.28 203.69 90.21 209.16 92.22 C 215.39 95.13 219.84 100.69 223.83 106.11 C 227.40 110.85 227.74 116.98 228.69 122.63 C 230.00 129.83 228.47 137.24 225.87 143.98 C 226.33 141.59 226.59 139.18 226.90 136.77 C 228.05 129.47 227.76 121.98 225.92 114.82 C 224.31 106.88 218.43 100.57 211.94 96.11 C 208.10 93.36 203.44 92.12 198.79 91.71 C 192.22 91.01 185.59 91.35 178.99 91.31 C 170.61 91.12 162.49 93.63 154.58 96.11 C 146.81 99.59 142.58 107.72 139.59 115.27 C 138.48 115.97 137.77 116.93 137.45 118.16 C 134.42 127.69 135.92 137.67 137.88 147.24 C 133.05 136.19 133.61 123.31 138.36 112.35 C 140.52 104.59 146.41 98.52 152.83 93.99 Z" />
</g>
<g id="#fbfbfbfe">
<path fill="#fbfbfb" opacity="1.00" d=" M 154.58 96.11 C 162.49 93.63 170.61 91.12 178.99 91.31 C 185.59 91.35 192.22 91.01 198.79 91.71 C 207.57 94.67 216.87 98.90 221.41 107.49 C 225.05 114.70 226.83 122.97 226.29 131.04 C 225.84 137.53 222.69 143.36 220.11 149.21 C 216.46 154.72 211.83 159.51 206.91 163.89 C 202.51 167.85 196.65 169.35 191.61 172.25 C 190.46 172.61 189.31 172.97 188.19 173.43 C 182.37 165.92 178.17 156.11 169.10 151.94 C 163.39 149.15 156.75 148.93 150.80 151.07 C 148.67 152.47 147.16 154.58 145.40 156.38 C 143.05 153.05 141.44 149.29 140.04 145.49 C 142.38 144.96 144.73 144.50 147.01 143.77 C 152.41 142.40 152.84 136.16 154.80 131.92 C 156.67 131.02 158.49 129.85 160.58 129.58 C 161.83 130.22 162.97 131.08 164.14 131.87 C 166.05 136.34 165.64 143.09 171.17 144.93 C 176.54 147.50 182.61 146.15 187.86 143.98 C 191.14 142.29 194.26 139.59 195.25 135.90 C 195.36 134.01 194.83 132.18 194.48 130.35 C 193.16 129.32 191.76 128.11 189.98 128.20 C 183.73 127.92 177.61 129.57 171.38 129.66 C 166.69 129.79 162.71 126.31 157.99 126.58 C 155.80 126.93 154.05 128.48 152.40 129.84 C 152.02 130.35 151.25 131.36 150.87 131.86 C 146.53 131.19 142.18 130.43 137.78 130.41 C 137.34 126.89 137.54 123.33 137.72 119.80 C 139.12 118.72 139.74 117.01 139.59 115.27 C 142.58 107.72 146.81 99.59 154.58 96.11 Z" />
<path fill="#fbfbfb" opacity="1.00" d=" M 17.40 127.36 C 39.67 127.54 61.94 127.38 84.21 127.44 C 84.05 127.98 83.74 129.07 83.58 129.62 C 81.20 132.79 79.04 136.12 77.07 139.56 C 65.71 139.90 54.36 139.29 43.01 139.20 C 34.93 137.92 26.73 139.08 18.63 138.39 C 16.41 135.31 17.89 130.96 17.40 127.36 Z" />
<path fill="#fbfbfb" opacity="1.00" d=" M 156.58 155.68 C 161.75 154.80 166.80 156.73 171.97 156.71 C 176.72 161.62 180.84 167.10 184.50 172.86 C 180.11 174.01 175.52 173.92 171.02 173.68 C 162.61 173.22 155.01 168.40 149.45 162.33 C 147.92 160.74 149.00 158.47 149.04 156.57 C 151.56 156.31 154.07 156.02 156.58 155.68 M 156.30 158.77 C 156.38 159.44 156.53 160.79 156.60 161.47 C 159.94 161.46 163.28 161.54 166.62 161.61 C 166.49 160.61 166.35 159.61 166.23 158.61 C 162.92 158.32 159.59 158.14 156.30 158.77 Z" />
</g>
<g id="#717171fe">
<path fill="#717171" opacity="1.00" d=" M 198.79 91.71 C 203.44 92.12 208.10 93.36 211.94 96.11 C 218.43 100.57 224.31 106.88 225.92 114.82 C 227.76 121.98 228.05 129.47 226.90 136.77 C 225.37 141.27 223.00 145.44 220.11 149.21 C 222.69 143.36 225.84 137.53 226.29 131.04 C 226.83 122.97 225.05 114.70 221.41 107.49 C 216.87 98.90 207.57 94.67 198.79 91.71 Z" />
<path fill="#717171" opacity="1.00" d=" M 119.42 208.71 C 120.60 208.81 121.78 208.93 122.96 209.07 C 125.74 209.94 128.45 211.00 131.15 212.08 C 130.44 213.85 129.68 215.60 128.96 217.38 C 130.00 217.38 131.04 217.39 132.08 217.39 C 128.50 220.35 123.66 219.30 119.41 219.97 C 119.46 218.82 119.51 217.67 119.52 216.53 C 122.56 216.36 125.60 215.98 128.56 215.28 C 128.69 214.96 128.96 214.31 129.09 213.99 C 127.53 210.66 122.61 210.88 119.44 209.74 L 119.42 208.71 Z" />
</g>
<g id="#4b4b4bfe">
<path fill="#4b4b4b" opacity="1.00" d=" M 137.45 118.16 C 137.77 116.93 138.48 115.97 139.59 115.27 C 139.74 117.01 139.12 118.72 137.72 119.80 C 137.65 119.39 137.52 118.57 137.45 118.16 Z" />
<path fill="#4b4b4b" opacity="1.00" d=" M 137.78 130.41 C 142.18 130.43 146.53 131.19 150.87 131.86 C 150.33 132.74 149.85 133.66 149.41 134.59 L 148.38 134.53 C 144.76 134.16 141.18 133.56 137.58 133.10 C 137.63 132.43 137.73 131.08 137.78 130.41 Z" />
</g>
<g id="#0e0e0e85">
<path fill="#0e0e0e" opacity="0.52" d=" M 14.88 124.68 C 17.33 120.37 21.48 115.84 26.91 116.32 C 47.97 116.42 69.02 116.46 90.08 116.31 C 92.01 116.38 94.02 116.41 95.85 117.16 C 99.00 125.17 99.93 133.87 101.56 142.28 C 103.73 156.46 108.36 170.20 109.42 184.55 C 106.79 177.77 106.12 170.49 104.42 163.47 C 101.16 148.38 98.32 133.21 95.45 118.05 C 72.62 117.35 49.75 117.99 26.90 117.72 C 20.32 117.16 16.01 124.07 15.76 129.94 C 15.12 134.84 17.27 139.37 18.59 143.95 C 21.67 157.95 24.99 171.88 27.99 185.90 C 28.72 189.61 29.55 193.31 30.03 197.07 L 29.86 197.92 C 29.28 200.38 28.59 202.82 28.03 205.29 C 29.24 195.49 26.87 185.84 24.56 176.39 C 22.33 165.47 19.61 154.65 16.95 143.83 C 14.62 137.79 13.05 131.06 14.88 124.68 Z" />
</g>
<g id="#575757fe">
<path fill="#575757" opacity="1.00" d=" M 15.76 129.94 C 16.01 124.07 20.32 117.16 26.90 117.72 C 49.75 117.99 72.62 117.35 95.45 118.05 C 98.32 133.21 101.16 148.38 104.42 163.47 C 106.12 170.49 106.79 177.77 109.42 184.55 C 109.86 188.17 110.66 191.73 111.69 195.22 C 109.91 197.01 108.14 198.81 106.37 200.61 C 103.02 200.71 99.67 200.96 96.33 201.13 C 96.91 202.20 97.50 203.29 98.08 204.37 C 95.96 204.33 93.85 204.26 91.73 204.22 C 90.30 203.18 88.89 201.75 86.97 201.93 C 81.68 201.74 76.32 202.08 71.12 200.85 C 77.58 200.46 84.05 200.72 90.51 200.60 C 86.04 181.56 81.70 162.49 77.37 143.41 C 69.91 143.28 62.42 143.62 55.00 142.63 C 43.37 142.55 31.73 142.11 20.09 142.39 C 21.56 150.68 23.81 158.80 25.54 167.04 C 26.81 172.30 27.37 177.84 29.98 182.68 C 32.61 173.52 31.69 163.69 34.77 154.65 C 35.31 156.01 35.86 157.37 36.34 158.76 C 36.83 169.63 33.38 180.23 32.63 191.04 L 32.05 190.29 C 30.79 188.74 29.39 187.31 27.99 185.90 C 24.99 171.88 21.67 157.95 18.59 143.95 C 17.27 139.37 15.12 134.84 15.76 129.94 M 19.61 124.20 C 37.07 124.34 54.54 124.22 72.00 124.26 C 77.10 123.96 82.25 123.25 87.27 124.63 C 93.22 149.41 98.27 174.39 103.69 199.29 C 105.95 197.70 109.35 195.60 108.29 192.34 C 103.02 168.12 99.24 143.56 93.28 119.49 C 70.84 119.59 48.39 119.50 25.95 119.54 C 22.92 119.23 21.02 121.95 19.61 124.20 M 84.21 127.44 C 61.94 127.38 39.67 127.54 17.40 127.36 C 17.89 130.96 16.41 135.31 18.63 138.39 C 26.73 139.08 34.93 137.92 43.01 139.20 C 54.36 139.29 65.71 139.90 77.07 139.56 C 79.04 136.12 81.20 132.79 83.58 129.62 C 83.57 130.09 83.57 131.03 83.56 131.50 C 84.48 131.55 86.31 131.64 87.23 131.69 C 87.12 129.26 87.04 126.71 84.91 125.12 C 84.73 125.70 84.39 126.86 84.21 127.44 M 84.49 133.41 C 83.17 136.03 81.49 138.47 80.42 141.21 C 80.62 144.42 81.94 147.44 82.62 150.57 C 86.04 166.06 89.56 181.55 93.16 196.98 C 94.15 200.27 98.02 199.49 100.66 199.91 C 95.65 180.77 92.20 161.26 87.77 141.98 C 87.09 139.06 86.62 136.10 86.32 133.13 C 85.86 133.20 84.95 133.34 84.49 133.41 Z" />
</g>
<g id="#323232fe">
<path fill="#323232" opacity="1.00" d=" M 137.88 147.24 C 135.92 137.67 134.42 127.69 137.45 118.16 C 137.52 118.57 137.65 119.39 137.72 119.80 C 137.54 123.33 137.34 126.89 137.78 130.41 C 137.73 131.08 137.63 132.43 137.58 133.10 C 137.43 135.16 137.18 137.25 137.58 139.29 C 139.56 141.88 143.00 142.10 145.93 141.37 C 147.18 140.50 148.37 139.56 149.60 138.65 C 149.53 137.30 149.42 135.95 149.41 134.59 C 149.85 133.66 150.33 132.74 150.87 131.86 C 151.25 131.36 152.02 130.35 152.40 129.84 C 153.25 130.47 154.05 131.16 154.80 131.92 C 152.84 136.16 152.41 142.40 147.01 143.77 C 144.69 143.74 142.38 143.62 140.07 143.52 C 139.49 144.47 138.91 145.44 138.35 146.41 L 137.88 147.24 Z" />
</g>
<g id="#fcfcfcfd">
<path fill="#fcfcfc" opacity="1.00" d=" M 19.61 124.20 C 21.02 121.95 22.92 119.23 25.95 119.54 C 48.39 119.50 70.84 119.59 93.28 119.49 C 99.24 143.56 103.02 168.12 108.29 192.34 C 109.35 195.60 105.95 197.70 103.69 199.29 C 98.27 174.39 93.22 149.41 87.27 124.63 C 82.25 123.25 77.10 123.96 72.00 124.26 C 54.54 124.22 37.07 124.34 19.61 124.20 Z" />
</g>
<g id="#020202fe">
<path fill="#020202" opacity="1.00" d=" M 84.21 127.44 C 84.39 126.86 84.73 125.70 84.91 125.12 C 87.04 126.71 87.12 129.26 87.23 131.69 C 86.31 131.64 84.48 131.55 83.56 131.50 C 83.57 131.03 83.57 130.09 83.58 129.62 C 83.74 129.07 84.05 127.98 84.21 127.44 Z" />
<path fill="#020202" opacity="1.00" d=" M 137.88 147.24 L 138.35 146.41 C 140.29 150.09 141.84 154.12 144.99 156.99 C 147.16 158.69 147.40 161.52 147.92 164.02 C 147.53 163.78 146.75 163.31 146.36 163.08 C 145.53 162.13 144.78 161.11 144.07 160.07 C 141.50 156.06 139.29 151.80 137.88 147.24 Z" />
</g>
<g id="#a4a4a4fe">
<path fill="#a4a4a4" opacity="1.00" d=" M 152.40 129.84 C 154.05 128.48 155.80 126.93 157.99 126.58 C 162.71 126.31 166.69 129.79 171.38 129.66 C 177.61 129.57 183.73 127.92 189.98 128.20 C 191.76 128.11 193.16 129.32 194.48 130.35 C 184.11 126.89 172.64 134.59 162.79 128.38 C 163.24 129.54 163.70 130.70 164.14 131.87 C 162.97 131.08 161.83 130.22 160.58 129.58 C 158.49 129.85 156.67 131.02 154.80 131.92 C 154.05 131.16 153.25 130.47 152.40 129.84 Z" />
</g>
<g id="#464746fe">
<path fill="#464746" opacity="1.00" d=" M 162.79 128.38 C 172.64 134.59 184.11 126.89 194.48 130.35 C 194.83 132.18 195.36 134.01 195.25 135.90 C 194.26 139.59 191.14 142.29 187.86 143.98 C 182.61 146.15 176.54 147.50 171.17 144.93 C 165.64 143.09 166.05 136.34 164.14 131.87 C 163.70 130.70 163.24 129.54 162.79 128.38 M 168.20 136.61 C 169.88 136.22 171.54 135.77 173.22 135.36 C 173.41 136.31 173.60 137.27 173.81 138.22 C 172.46 138.84 171.12 139.48 169.79 140.14 C 173.94 143.79 179.86 142.93 184.78 141.67 C 188.92 140.72 192.69 136.99 191.71 132.46 C 185.50 132.11 179.29 132.68 173.09 132.74 C 170.60 132.44 169.40 134.91 168.20 136.61 Z" />
</g>
<g id="#fcfcfcfe">
<path fill="#fcfcfc" opacity="1.00" d=" M 168.20 136.61 C 169.40 134.91 170.60 132.44 173.09 132.74 C 179.29 132.68 185.50 132.11 191.71 132.46 C 192.69 136.99 188.92 140.72 184.78 141.67 C 179.86 142.93 173.94 143.79 169.79 140.14 C 171.12 139.48 172.46 138.84 173.81 138.22 C 173.60 137.27 173.41 136.31 173.22 135.36 C 171.54 135.77 169.88 136.22 168.20 136.61 Z" />
<path fill="#fcfcfc" opacity="1.00" d=" M 20.09 142.39 C 31.73 142.11 43.37 142.55 55.00 142.63 C 62.42 143.62 69.91 143.28 77.37 143.41 C 81.70 162.49 86.04 181.56 90.51 200.60 C 84.05 200.72 77.58 200.46 71.12 200.85 C 71.71 191.85 73.58 183.01 74.57 174.06 C 75.25 167.77 73.31 161.67 72.50 155.50 C 72.21 155.57 71.62 155.73 71.33 155.81 C 70.70 155.95 69.45 156.22 68.82 156.35 C 67.74 156.42 66.67 156.47 65.59 156.50 C 60.38 155.31 55.00 155.86 49.75 155.05 C 44.79 154.38 39.76 154.60 34.77 154.65 C 31.69 163.69 32.61 173.52 29.98 182.68 C 27.37 177.84 26.81 172.30 25.54 167.04 C 23.81 158.80 21.56 150.68 20.09 142.39 Z" />
<path fill="#fcfcfc" opacity="1.00" d=" M 36.34 158.76 L 37.10 158.63 C 47.03 157.77 57.00 159.18 66.95 158.52 C 65.91 172.76 63.35 186.84 62.22 201.07 C 61.57 204.40 60.99 207.75 60.58 211.12 C 50.42 211.36 40.23 211.64 30.08 210.89 C 31.33 204.33 32.63 197.74 32.63 191.04 C 33.38 180.23 36.83 169.63 36.34 158.76 Z" />
<path fill="#fcfcfc" opacity="1.00" d=" M 119.44 209.74 C 122.61 210.88 127.53 210.66 129.09 213.99 C 128.96 214.31 128.69 214.96 128.56 215.28 C 125.60 215.98 122.56 216.36 119.52 216.53 C 119.52 214.26 119.46 212.00 119.44 209.74 Z" />
<path fill="#fcfcfc" opacity="1.00" d=" M 0.00 215.54 C 7.67 215.55 15.34 215.61 23.00 215.49 C 21.87 218.07 20.71 220.65 19.78 223.31 C 30.16 224.17 40.59 223.58 51.00 223.50 C 55.87 223.46 60.80 223.80 65.62 222.86 C 75.64 221.07 86.15 224.11 95.94 220.80 C 103.75 220.23 111.64 221.24 119.41 219.97 C 123.66 219.30 128.50 220.35 132.08 217.39 C 132.37 217.23 132.95 216.89 133.24 216.72 C 153.50 216.12 173.77 216.43 194.04 216.32 C 196.61 216.28 199.09 217.02 201.61 217.38 C 208.37 217.64 215.12 217.20 221.87 217.05 C 221.34 217.73 220.81 218.41 220.28 219.09 C 216.81 219.55 213.34 220.00 209.90 220.64 C 197.70 222.87 185.23 224.10 173.47 228.29 C 115.65 228.57 57.82 228.35 0.00 228.40 L 0.00 215.54 Z" />
</g>
<g id="#fdfdfdfe">
<path fill="#fdfdfd" opacity="1.00" d=" M 84.49 133.41 C 84.95 133.34 85.86 133.20 86.32 133.13 C 86.62 136.10 87.09 139.06 87.77 141.98 C 92.20 161.26 95.65 180.77 100.66 199.91 C 98.02 199.49 94.15 200.27 93.16 196.98 C 89.56 181.55 86.04 166.06 82.62 150.57 C 81.94 147.44 80.62 144.42 80.42 141.21 C 81.49 138.47 83.17 136.03 84.49 133.41 Z" />
<path fill="#fdfdfd" opacity="1.00" d=" M 140.23 139.85 C 142.75 137.80 145.31 135.71 148.38 134.53 L 149.41 134.59 C 149.42 135.95 149.53 137.30 149.60 138.65 C 148.37 139.56 147.18 140.50 145.93 141.37 C 144.03 140.85 142.12 140.37 140.23 139.85 Z" />
</g>
<g id="#cfcfcfff">
<path fill="#cfcfcf" opacity="1.00" d=" M 137.58 133.10 C 141.18 133.56 144.76 134.16 148.38 134.53 C 145.31 135.71 142.75 137.80 140.23 139.85 C 142.12 140.37 144.03 140.85 145.93 141.37 C 143.00 142.10 139.56 141.88 137.58 139.29 C 137.18 137.25 137.43 135.16 137.58 133.10 M 141.10 135.12 C 139.16 135.50 139.84 138.74 141.80 138.00 C 143.71 137.59 143.04 134.46 141.10 135.12 Z" />
</g>
<g id="#6b6b6bfe">
<path fill="#6b6b6b" opacity="1.00" d=" M 141.10 135.12 C 143.04 134.46 143.71 137.59 141.80 138.00 C 139.84 138.74 139.16 135.50 141.10 135.12 Z" />
</g>
<g id="#252525fb">
<path fill="#252525" opacity="1.00" d=" M 220.11 149.21 C 223.00 145.44 225.37 141.27 226.90 136.77 C 226.59 139.18 226.33 141.59 225.87 143.98 C 222.97 150.56 218.23 156.18 212.86 160.90 C 211.69 162.02 210.46 163.09 209.56 164.45 C 209.15 167.83 210.73 171.05 211.86 174.15 C 212.40 175.53 212.97 176.91 213.54 178.28 C 213.11 178.73 212.25 179.62 211.83 180.07 C 211.09 178.65 210.18 177.33 209.47 175.91 C 208.15 173.29 206.93 170.61 205.43 168.09 C 203.63 169.09 201.83 170.10 200.04 171.11 C 197.26 171.72 194.43 171.95 191.61 172.25 C 196.65 169.35 202.51 167.85 206.91 163.89 C 211.83 159.51 216.46 154.72 220.11 149.21 Z" />
</g>
<g id="#7f7f7ffe">
<path fill="#7f7f7f" opacity="1.00" d=" M 138.35 146.41 C 138.91 145.44 139.49 144.47 140.07 143.52 C 142.38 143.62 144.69 143.74 147.01 143.77 C 144.73 144.50 142.38 144.96 140.04 145.49 C 141.44 149.29 143.05 153.05 145.40 156.38 C 147.16 154.58 148.67 152.47 150.80 151.07 C 156.75 148.93 163.39 149.15 169.10 151.94 C 162.89 151.38 156.64 151.54 150.43 152.05 C 149.92 153.09 149.41 154.13 148.90 155.17 C 156.59 154.18 164.67 153.43 171.97 156.71 C 166.80 156.73 161.75 154.80 156.58 155.68 C 154.07 156.02 151.56 156.31 149.04 156.57 C 149.00 158.47 147.92 160.74 149.45 162.33 C 155.01 168.40 162.61 173.22 171.02 173.68 C 175.52 173.92 180.11 174.01 184.50 172.86 C 184.73 173.64 184.93 174.44 185.13 175.25 C 177.19 177.25 168.46 176.47 161.10 172.81 C 156.32 170.48 152.59 166.54 147.92 164.02 C 147.40 161.52 147.16 158.69 144.99 156.99 C 141.84 154.12 140.29 150.09 138.35 146.41 Z" />
</g>
<g id="#050505fe">
<path fill="#050505" opacity="1.00" d=" M 150.43 152.05 C 156.64 151.54 162.89 151.38 169.10 151.94 C 178.17 156.11 182.37 165.92 188.19 173.43 C 187.15 174.01 186.15 174.65 185.13 175.25 C 184.93 174.44 184.73 173.64 184.50 172.86 C 180.84 167.10 176.72 161.62 171.97 156.71 C 164.67 153.43 156.59 154.18 148.90 155.17 C 149.41 154.13 149.92 153.09 150.43 152.05 Z" />
</g>
<g id="#454545fe">
<path fill="#454545" opacity="1.00" d=" M 34.77 154.65 C 39.76 154.60 44.79 154.38 49.75 155.05 C 55.00 155.86 60.38 155.31 65.59 156.50 C 56.23 158.97 46.46 156.10 37.10 158.63 L 36.34 158.76 C 35.86 157.37 35.31 156.01 34.77 154.65 Z" />
</g>
<g id="#5d5d5dfe">
<path fill="#5d5d5d" opacity="1.00" d=" M 71.33 155.81 C 71.62 155.73 72.21 155.57 72.50 155.50 C 73.31 161.67 75.25 167.77 74.57 174.06 C 73.58 183.01 71.71 191.85 71.12 200.85 C 70.64 200.76 69.67 200.58 69.19 200.49 C 68.53 203.39 67.81 206.29 66.82 209.11 C 67.72 201.98 68.31 194.81 69.53 187.72 C 70.34 179.69 72.98 171.50 70.47 163.51 C 68.18 171.09 67.93 179.08 66.88 186.89 C 66.22 193.62 65.09 200.29 64.29 207.00 C 64.04 206.29 63.52 204.87 63.26 204.16 C 62.98 204.89 62.70 205.62 62.44 206.36 C 62.38 204.59 62.27 202.83 62.22 201.07 C 63.35 186.84 65.91 172.76 66.95 158.52 C 57.00 159.18 47.03 157.77 37.10 158.63 C 46.46 156.10 56.23 158.97 65.59 156.50 C 66.67 156.47 67.74 156.42 68.82 156.35 C 68.74 157.94 68.67 159.54 68.60 161.13 C 69.24 161.34 70.51 161.75 71.15 161.95 C 71.21 159.90 71.25 157.86 71.33 155.81 Z" />
</g>
<g id="#030303fe">
<path fill="#030303" opacity="1.00" d=" M 68.82 156.35 C 69.45 156.22 70.70 155.95 71.33 155.81 C 71.25 157.86 71.21 159.90 71.15 161.95 C 70.51 161.75 69.24 161.34 68.60 161.13 C 68.67 159.54 68.74 157.94 68.82 156.35 Z" />
</g>
<g id="#525252fe">
<path fill="#525252" opacity="1.00" d=" M 156.30 158.77 C 159.59 158.14 162.92 158.32 166.23 158.61 C 166.35 159.61 166.49 160.61 166.62 161.61 C 163.28 161.54 159.94 161.46 156.60 161.47 C 156.53 160.79 156.38 159.44 156.30 158.77 Z" />
</g>
<g id="#424242e1">
<path fill="#424242" opacity="0.88" d=" M 144.07 160.07 C 144.78 161.11 145.53 162.13 146.36 163.08 L 146.19 164.15 C 145.26 168.40 145.35 172.77 145.05 177.09 C 143.89 177.10 142.74 177.11 141.59 177.12 C 141.33 171.32 142.42 165.61 144.07 160.07 Z" />
</g>
<g id="#1414147d">
<path fill="#141414" opacity="0.49" d=" M 209.56 164.45 C 210.46 163.09 211.69 162.02 212.86 160.90 C 210.53 164.94 211.03 169.76 211.86 174.15 C 210.73 171.05 209.15 167.83 209.56 164.45 Z" />
</g>
<g id="#e3e3e3fe">
<path fill="#e3e3e3" opacity="1.00" d=" M 66.88 186.89 C 67.93 179.08 68.18 171.09 70.47 163.51 C 72.98 171.50 70.34 179.69 69.53 187.72 C 68.31 194.81 67.72 201.98 66.82 209.11 C 66.63 209.67 66.24 210.79 66.05 211.35 C 65.43 209.91 64.80 208.48 64.29 207.00 C 65.09 200.29 66.22 193.62 66.88 186.89 Z" />
</g>
<g id="#191919d0">
<path fill="#191919" opacity="0.82" d=" M 146.36 163.08 C 146.75 163.31 147.53 163.78 147.92 164.02 C 152.59 166.54 156.32 170.48 161.10 172.81 C 168.46 176.47 177.19 177.25 185.13 175.25 C 186.15 174.65 187.15 174.01 188.19 173.43 C 189.31 172.97 190.46 172.61 191.61 172.25 C 194.43 171.95 197.26 171.72 200.04 171.11 C 196.78 173.22 194.05 176.01 191.49 178.90 C 192.26 181.39 193.03 183.87 193.78 186.36 C 193.74 187.01 193.64 188.31 193.59 188.96 C 192.37 187.00 191.01 185.14 189.58 183.33 C 189.91 183.00 190.24 182.66 190.57 182.33 C 190.03 181.52 189.50 180.71 188.97 179.90 C 188.44 179.07 187.92 178.23 187.41 177.40 C 179.35 177.18 170.94 178.68 163.24 175.62 C 156.69 173.29 151.45 168.51 146.19 164.15 L 146.36 163.08 Z" />
</g>
<g id="#404040d3">
<path fill="#404040" opacity="0.83" d=" M 209.47 175.91 C 210.18 177.33 211.09 178.65 211.83 180.07 L 212.14 180.78 C 211.64 181.10 210.63 181.74 210.13 182.06 C 211.61 192.96 207.28 203.27 204.67 213.61 C 209.57 214.04 214.48 214.25 219.38 214.64 L 218.83 215.62 C 213.98 216.07 209.09 215.91 204.25 215.39 C 203.98 214.86 203.44 213.81 203.17 213.28 C 202.56 212.16 201.85 211.11 201.10 210.08 C 204.93 204.37 205.48 197.36 206.91 190.82 C 207.50 185.80 207.58 180.68 209.47 175.91 Z" />
</g>
<g id="#1f1f1f8d">
<path fill="#1f1f1f" opacity="0.55" d=" M 141.59 177.12 C 142.74 177.11 143.89 177.10 145.05 177.09 C 144.00 186.58 144.78 196.14 146.09 205.57 C 145.62 205.64 144.68 205.80 144.20 205.87 C 144.02 208.42 143.81 210.96 143.62 213.51 C 141.31 201.51 141.32 189.29 141.59 177.12 Z" />
</g>
<g id="#424242de">
<path fill="#424242" opacity="0.87" d=" M 213.54 178.28 C 221.20 188.60 219.90 201.97 222.83 213.85 C 221.94 213.64 221.06 213.39 220.18 213.15 C 219.98 213.52 219.58 214.27 219.38 214.64 C 218.68 203.11 216.67 191.46 212.14 180.78 L 211.83 180.07 C 212.25 179.62 213.11 178.73 213.54 178.28 Z" />
</g>
<g id="#383838de">
<path fill="#383838" opacity="0.87" d=" M 160.40 206.42 C 171.01 198.79 178.82 188.06 188.97 179.90 C 189.50 180.71 190.03 181.52 190.57 182.33 C 190.24 182.66 189.91 183.00 189.58 183.33 C 185.96 187.13 182.01 190.60 177.95 193.93 C 173.58 197.51 170.28 202.24 165.73 205.63 C 162.50 208.10 159.32 210.66 156.43 213.54 C 169.88 213.71 183.33 213.62 196.79 213.65 C 197.56 205.22 194.61 197.21 193.59 188.96 C 193.64 188.31 193.74 187.01 193.78 186.36 C 199.03 192.84 199.04 201.52 200.54 209.32 C 199.56 208.52 198.58 207.72 197.61 206.92 C 197.90 209.23 198.24 211.53 198.59 213.83 C 193.69 217.22 187.55 215.71 182.00 215.91 C 166.88 216.04 151.76 215.52 136.64 216.17 C 135.51 216.28 134.29 216.19 133.24 216.72 C 132.95 216.89 132.37 217.23 132.08 217.39 C 131.04 217.39 130.00 217.38 128.96 217.38 C 129.68 215.60 130.44 213.85 131.15 212.08 C 128.45 211.00 125.74 209.94 122.96 209.07 C 121.26 208.50 119.56 207.93 117.84 207.45 C 121.86 207.05 125.90 207.87 129.59 209.47 C 131.48 210.45 132.57 212.52 134.47 213.47 C 137.50 213.89 140.57 213.60 143.62 213.51 C 143.81 210.96 144.02 208.42 144.20 205.87 C 144.68 205.80 145.62 205.64 146.09 205.57 C 146.55 208.47 147.01 211.38 147.56 214.28 C 152.62 213.15 156.31 209.33 160.40 206.42 Z" />
</g>
<g id="#191919ff">
<path fill="#191919" opacity="1.00" d=" M 27.99 185.90 C 29.39 187.31 30.79 188.74 32.05 190.29 C 31.32 192.53 30.61 194.78 30.03 197.07 C 29.55 193.31 28.72 189.61 27.99 185.90 Z" />
<path fill="#191919" opacity="1.00" d=" M 96.33 201.13 C 99.67 200.96 103.02 200.71 106.37 200.61 C 105.05 201.93 103.72 203.23 102.31 204.47 C 100.90 204.43 99.49 204.40 98.08 204.37 C 97.50 203.29 96.91 202.20 96.33 201.13 Z" />
</g>
<g id="#9a9a9afe">
<path fill="#9a9a9a" opacity="1.00" d=" M 30.03 197.07 C 30.61 194.78 31.32 192.53 32.05 190.29 L 32.63 191.04 C 32.63 197.74 31.33 204.33 30.08 210.89 C 40.23 211.64 50.42 211.36 60.58 211.12 C 60.99 207.75 61.57 204.40 62.22 201.07 C 62.27 202.83 62.38 204.59 62.44 206.36 C 62.09 208.41 61.73 210.46 61.36 212.51 C 50.59 212.59 39.79 213.08 29.05 212.19 C 29.33 207.43 29.59 202.68 29.86 197.92 L 30.03 197.07 Z" />
</g>
<g id="#222222fe">
<path fill="#222222" opacity="1.00" d=" M 28.03 205.29 C 28.59 202.82 29.28 200.38 29.86 197.92 C 29.59 202.68 29.33 207.43 29.05 212.19 C 39.79 213.08 50.59 212.59 61.36 212.51 C 61.73 210.46 62.09 208.41 62.44 206.36 C 62.70 205.62 62.98 204.89 63.26 204.16 C 63.52 204.87 64.04 206.29 64.29 207.00 C 64.80 208.48 65.43 209.91 66.05 211.35 C 66.24 210.79 66.63 209.67 66.82 209.11 C 67.81 206.29 68.53 203.39 69.19 200.49 C 69.67 200.58 70.64 200.76 71.12 200.85 C 76.32 202.08 81.68 201.74 86.97 201.93 C 88.89 201.75 90.30 203.18 91.73 204.22 C 84.25 204.42 76.77 204.32 69.29 204.54 C 69.38 205.85 69.48 207.16 69.58 208.48 C 73.74 208.53 77.89 208.43 82.04 208.61 C 86.72 208.73 91.25 210.28 95.95 210.17 C 102.56 210.11 109.18 210.10 115.78 210.58 C 109.15 210.27 102.53 210.64 95.91 210.63 C 94.13 210.61 92.29 210.92 90.91 212.14 C 91.13 212.86 91.34 213.58 91.57 214.31 C 90.46 213.66 89.49 212.44 88.10 212.54 C 81.29 212.45 74.48 212.42 67.68 212.65 C 60.84 213.66 53.91 213.87 47.00 213.66 C 40.76 213.69 34.34 212.83 28.26 214.70 C 27.13 215.98 26.03 217.30 24.92 218.60 C 24.44 217.12 23.95 215.65 23.48 214.17 C 15.65 214.02 7.82 214.11 0.00 214.23 L 0.00 213.34 C 9.12 213.11 18.30 213.98 27.36 212.60 C 27.52 210.16 27.69 207.71 28.03 205.29 Z" />
</g>
<g id="#2c2c2c75">
<path fill="#2c2c2c" opacity="0.46" d=" M 69.29 204.54 C 76.77 204.32 84.25 204.42 91.73 204.22 C 93.85 204.26 95.96 204.33 98.08 204.37 C 99.49 204.40 100.90 204.43 102.31 204.47 C 100.07 205.59 97.58 206.14 95.08 206.23 C 86.90 206.60 78.68 205.78 70.51 206.61 C 77.44 207.55 84.57 206.06 91.34 208.26 C 84.09 208.52 76.84 208.42 69.58 208.48 C 69.48 207.16 69.38 205.85 69.29 204.54 Z" />
</g>
<g id="#595959ed">
<path fill="#595959" opacity="0.93" d=" M 197.61 206.92 C 198.58 207.72 199.56 208.52 200.54 209.32 L 201.10 210.08 C 201.85 211.11 202.56 212.16 203.17 213.28 C 201.63 213.44 200.11 213.61 198.59 213.83 C 198.24 211.53 197.90 209.23 197.61 206.92 Z" />
</g>
<g id="#5b5b5bfe">
<path fill="#5b5b5b" opacity="1.00" d=" M 69.58 208.48 C 76.84 208.42 84.09 208.52 91.34 208.26 C 100.18 208.42 108.98 207.27 117.84 207.45 C 119.56 207.93 121.26 208.50 122.96 209.07 C 121.78 208.93 120.60 208.81 119.42 208.71 L 119.44 209.74 C 119.46 212.00 119.52 214.26 119.52 216.53 C 119.51 217.67 119.46 218.82 119.41 219.97 C 111.62 219.65 103.51 218.28 95.94 220.80 C 86.15 224.11 75.64 221.07 65.62 222.86 C 60.80 223.80 55.87 223.46 51.00 223.50 C 40.59 223.58 30.16 224.17 19.78 223.31 C 20.71 220.65 21.87 218.07 23.00 215.49 C 15.34 215.61 7.67 215.55 0.00 215.54 L 0.00 214.23 C 7.82 214.11 15.65 214.02 23.48 214.17 C 23.95 215.65 24.44 217.12 24.92 218.60 C 25.09 219.13 25.42 220.18 25.58 220.71 C 38.29 220.58 50.99 220.05 63.70 220.26 C 63.74 218.65 63.76 217.05 63.76 215.45 C 51.96 214.22 40.09 215.06 28.26 214.70 C 34.34 212.83 40.76 213.69 47.00 213.66 C 53.91 213.87 60.84 213.66 67.68 212.65 C 67.24 213.73 66.80 214.82 66.36 215.92 C 66.71 216.57 67.39 217.87 67.73 218.52 C 76.14 218.73 84.55 218.45 92.95 218.71 C 92.50 217.24 92.01 215.78 91.57 214.31 C 91.34 213.58 91.13 212.86 90.91 212.14 C 93.86 213.69 96.33 216.84 99.94 216.65 C 105.36 216.76 110.79 216.61 116.21 216.66 C 116.26 214.64 116.27 212.62 116.24 210.60 L 115.78 210.58 C 109.18 210.10 102.56 210.11 95.95 210.17 C 91.25 210.28 86.72 208.73 82.04 208.61 C 77.89 208.43 73.74 208.53 69.58 208.48 Z" />
<path fill="#5b5b5b" opacity="1.00" d=" M 220.18 213.15 C 221.06 213.39 221.94 213.64 222.83 213.85 C 228.04 214.55 233.33 214.42 238.56 213.94 C 239.14 215.13 239.73 216.32 240.32 217.51 C 243.09 216.66 245.84 215.74 248.54 214.68 C 248.23 219.15 248.94 223.74 247.82 228.11 L 246.72 228.25 C 246.00 224.88 245.63 221.46 245.44 218.03 C 237.48 218.56 229.82 220.87 221.97 222.11 C 210.63 224.16 199.19 225.65 187.93 228.07 C 188.33 228.11 189.12 228.20 189.52 228.24 C 184.17 228.48 178.82 228.44 173.47 228.29 C 185.23 224.10 197.70 222.87 209.90 220.64 C 213.34 220.00 216.81 219.55 220.28 219.09 C 223.23 218.65 226.21 218.38 229.16 217.90 C 231.00 217.58 232.81 217.10 234.62 216.61 C 230.29 214.41 225.39 215.13 220.75 215.50 C 220.27 215.53 219.31 215.59 218.83 215.62 L 219.38 214.64 C 219.58 214.27 219.98 213.52 220.18 213.15 Z" />
</g>
<g id="#fdfdfdfd">
<path fill="#fdfdfd" opacity="1.00" d=" M 90.91 212.14 C 92.29 210.92 94.13 210.61 95.91 210.63 C 102.53 210.64 109.15 210.27 115.78 210.58 L 116.24 210.60 C 116.27 212.62 116.26 214.64 116.21 216.66 C 110.79 216.61 105.36 216.76 99.94 216.65 C 96.33 216.84 93.86 213.69 90.91 212.14 Z" />
</g>
<g id="#fdfdfdff">
<path fill="#fdfdfd" opacity="1.00" d=" M 67.68 212.65 C 74.48 212.42 81.29 212.45 88.10 212.54 C 89.49 212.44 90.46 213.66 91.57 214.31 C 92.01 215.78 92.50 217.24 92.95 218.71 C 84.55 218.45 76.14 218.73 67.73 218.52 C 67.39 217.87 66.71 216.57 66.36 215.92 C 66.80 214.82 67.24 213.73 67.68 212.65 Z" />
</g>
<g id="#080808fe">
<path fill="#080808" opacity="1.00" d=" M 198.59 213.83 C 200.11 213.61 201.63 213.44 203.17 213.28 C 203.44 213.81 203.98 214.86 204.25 215.39 C 203.36 216.04 202.48 216.70 201.61 217.38 C 199.09 217.02 196.61 216.28 194.04 216.32 C 173.77 216.43 153.50 216.12 133.24 216.72 C 134.29 216.19 135.51 216.28 136.64 216.17 C 151.76 215.52 166.88 216.04 182.00 215.91 C 187.55 215.71 193.69 217.22 198.59 213.83 Z" />
</g>
<g id="#030303f8">
<path fill="#030303" opacity="0.97" d=" M 238.56 213.94 C 241.90 213.45 245.28 213.80 248.54 214.68 C 245.84 215.74 243.09 216.66 240.32 217.51 C 239.73 216.32 239.14 215.13 238.56 213.94 Z" />
</g>
<g id="#fefefeff">
<path fill="#fefefe" opacity="1.00" d=" M 28.26 214.70 C 40.09 215.06 51.96 214.22 63.76 215.45 C 63.76 217.05 63.74 218.65 63.70 220.26 C 50.99 220.05 38.29 220.58 25.58 220.71 C 25.42 220.18 25.09 219.13 24.92 218.60 C 26.03 217.30 27.13 215.98 28.26 214.70 Z" />
</g>
<g id="#dcdcdcff">
<path fill="#dcdcdc" opacity="1.00" d=" M 201.61 217.38 C 202.48 216.70 203.36 216.04 204.25 215.39 C 209.09 215.91 213.98 216.07 218.83 215.62 C 219.31 215.59 220.27 215.53 220.75 215.50 C 223.76 215.30 226.82 215.88 229.16 217.90 C 226.21 218.38 223.23 218.65 220.28 219.09 C 220.81 218.41 221.34 217.73 221.87 217.05 C 215.12 217.20 208.37 217.64 201.61 217.38 Z" />
</g>
<g id="#989898fa">
<path fill="#989898" opacity="0.98" d=" M 220.75 215.50 C 225.39 215.13 230.29 214.41 234.62 216.61 C 232.81 217.10 231.00 217.58 229.16 217.90 C 226.82 215.88 223.76 215.30 220.75 215.50 Z" />
</g>
<g id="#fcfcfcff">
<path fill="#fcfcfc" opacity="1.00" d=" M 221.97 222.11 C 229.82 220.87 237.48 218.56 245.44 218.03 C 245.63 221.46 246.00 224.88 246.72 228.25 C 227.66 228.51 208.58 228.54 189.52 228.24 C 189.12 228.20 188.33 228.11 187.93 228.07 C 199.19 225.65 210.63 224.16 221.97 222.11 Z" />
</g>
<g id="#a1a1a1fe">
<path fill="#a1a1a1" opacity="1.00" d=" M 95.94 220.80 C 103.51 218.28 111.62 219.65 119.41 219.97 C 111.64 221.24 103.75 220.23 95.94 220.80 Z" />
</g>
<g id="#5c5c5c5e">
<path fill="#5c5c5c" opacity="0.37" d=" M 0.00 228.40 C 57.82 228.35 115.65 228.57 173.47 228.29 C 178.82 228.44 184.17 228.48 189.52 228.24 C 208.58 228.54 227.66 228.51 246.72 228.25 L 247.82 228.11 C 247.70 228.43 247.47 229.07 247.35 229.39 C 164.90 229.41 82.45 229.24 0.00 229.51 L 0.00 228.40 Z" />
</g>
</svg>
