<?xml version="1.0" encoding="UTF-8" ?>
<!DOCTYPE svg PUBLIC "-//W3C//DTD SVG 1.1//EN" "http://www.w3.org/Graphics/SVG/1.1/DTD/svg11.dtd">
<svg width="210pt" height="220pt" viewBox="0 0 210 220" version="1.1" xmlns="http://www.w3.org/2000/svg">
<g id="#010101ff">
<path fill="#010101" opacity="1.00" d=" M 58.38 13.33 C 69.85 5.20 83.98 1.00 98.01 1.28 C 106.71 1.38 115.50 0.84 124.11 2.41 C 135.44 4.07 146.73 7.83 155.81 15.00 C 160.22 18.48 162.60 23.73 165.01 28.65 C 173.87 47.38 177.84 68.63 174.81 89.22 C 173.62 95.41 176.33 101.54 175.24 107.73 C 174.15 114.07 170.05 119.30 168.11 125.36 C 163.13 139.71 156.59 153.56 148.03 166.14 C 142.12 174.38 134.74 181.79 125.43 186.07 C 129.98 190.40 132.88 196.19 137.85 200.12 C 144.13 205.36 147.10 213.17 151.21 220.00 L 145.27 220.00 C 142.44 216.52 140.22 212.61 138.17 208.64 C 135.88 204.17 131.23 201.67 128.43 197.58 C 125.40 193.33 121.82 189.22 116.89 187.15 C 116.38 198.09 116.72 209.05 116.75 220.00 L 111.53 220.00 C 111.63 211.60 111.57 203.19 111.70 194.79 C 111.68 193.97 111.62 192.33 111.59 191.51 C 110.77 192.58 109.98 193.68 109.28 194.84 C 105.93 203.54 101.14 211.55 97.26 220.00 L 90.90 220.00 C 95.54 211.79 100.14 203.58 103.97 194.95 C 105.20 192.28 106.16 189.48 107.07 186.69 C 111.76 186.88 116.52 187.08 121.15 186.18 C 132.07 183.12 140.52 174.81 146.88 165.77 C 152.45 157.97 156.88 149.42 161.00 140.79 C 163.74 135.20 164.38 128.90 164.70 122.77 C 174.01 117.86 176.70 105.27 173.25 95.99 C 171.19 99.16 169.68 102.76 166.81 105.33 C 166.83 81.94 162.96 58.67 156.57 36.19 C 155.64 33.13 155.22 29.58 152.69 27.33 C 147.15 22.16 139.70 18.64 131.99 19.24 C 118.47 18.27 106.16 25.19 95.02 32.00 C 91.19 33.93 90.51 38.43 88.69 41.89 C 84.25 51.12 76.43 58.07 68.49 64.27 C 68.59 79.46 65.15 94.58 59.46 108.62 C 59.10 108.64 58.38 108.67 58.02 108.69 C 54.25 97.54 47.93 86.77 37.95 80.12 C 36.90 81.04 35.83 81.95 34.84 82.94 C 29.58 87.47 31.74 95.21 33.12 101.03 C 31.52 97.57 31.16 93.74 31.48 89.97 C 32.52 77.37 29.24 64.47 32.71 52.07 C 36.85 36.91 45.52 22.62 58.38 13.33 Z" />
<path fill="#010101" opacity="1.00" d=" M 71.37 70.92 C 76.90 63.69 87.58 61.40 95.77 65.16 C 98.56 66.44 102.04 67.55 103.10 70.78 C 97.91 68.93 92.54 67.83 87.00 68.33 C 81.58 67.79 76.66 70.43 71.37 70.92 Z" />
<path fill="#010101" opacity="1.00" d=" M 129.28 70.31 C 134.39 66.58 140.67 64.64 147.01 65.27 C 151.00 64.92 154.31 67.35 157.79 68.87 C 157.28 69.76 156.78 70.66 156.28 71.55 C 151.98 68.92 146.80 69.51 141.99 69.47 C 138.96 69.36 136.07 70.37 133.11 70.80 C 131.83 70.67 130.55 70.50 129.28 70.31 Z" />
<path fill="#010101" opacity="1.00" d=" M 99.05 79.09 C 100.08 77.82 101.17 76.60 102.27 75.40 C 103.43 76.41 104.62 77.39 105.84 78.33 C 105.33 81.17 103.49 83.19 100.80 84.13 C 100.28 83.01 99.77 81.88 99.28 80.75 C 99.22 80.33 99.11 79.51 99.05 79.09 Z" />
<path fill="#010101" opacity="1.00" d=" M 149.15 77.58 C 149.83 77.34 151.20 76.87 151.88 76.63 C 152.73 77.78 153.61 78.92 154.48 80.06 C 153.90 81.48 153.33 82.91 152.74 84.32 C 151.73 84.32 150.73 84.33 149.74 84.36 C 149.32 82.12 149.15 79.85 149.15 77.58 Z" />
<path fill="#010101" opacity="1.00" d=" M 135.70 108.91 C 135.63 109.47 135.56 110.03 135.49 110.59 C 131.29 110.09 129.34 114.80 125.59 115.88 C 124.17 113.12 126.94 111.18 129.33 110.81 C 130.78 110.56 132.41 110.90 133.72 110.08 C 134.39 109.72 135.06 109.33 135.70 108.91 Z" />
<path fill="#010101" opacity="1.00" d=" M 105.95 110.27 C 108.03 110.41 110.10 110.54 112.18 110.62 C 113.12 111.70 114.07 112.77 115.04 113.84 C 114.21 114.75 113.42 115.69 112.65 116.66 C 110.72 115.49 108.82 114.27 106.93 113.03 C 106.60 112.11 106.28 111.19 105.95 110.27 Z" />
<path fill="#010101" opacity="1.00" d=" M 44.12 119.00 C 47.95 119.83 51.89 120.00 55.80 120.31 C 56.32 127.01 57.78 133.70 57.25 140.44 C 54.69 136.33 52.59 131.96 50.41 127.64 C 48.83 124.43 47.12 121.11 44.12 119.00 Z" />
<path fill="#010101" opacity="1.00" d=" M 96.81 172.05 C 100.81 174.17 104.40 177.09 108.77 178.46 C 112.29 179.94 116.21 179.56 119.93 179.32 C 125.20 178.06 129.52 174.68 134.16 172.07 C 132.13 175.73 127.99 177.40 124.48 179.29 C 121.57 180.94 118.17 180.59 114.97 180.64 C 108.12 181.02 100.80 177.63 96.81 172.05 Z" />
</g>
<g id="#fefefeff">
<path fill="#fefefe" opacity="1.00" d=" M 95.02 32.00 C 106.16 25.19 118.47 18.27 131.99 19.24 C 139.70 18.64 147.15 22.16 152.69 27.33 C 155.22 29.58 155.64 33.13 156.57 36.19 C 162.96 58.67 166.83 81.94 166.81 105.33 C 169.68 102.76 171.19 99.16 173.25 95.99 C 176.70 105.27 174.01 117.86 164.70 122.77 C 164.38 128.90 163.74 135.20 161.00 140.79 C 156.88 149.42 152.45 157.97 146.88 165.77 C 140.52 174.81 132.07 183.12 121.15 186.18 C 110.57 187.53 99.89 183.81 91.55 177.39 C 80.38 168.62 71.05 157.78 62.71 146.35 C 56.64 138.76 58.63 128.38 56.61 119.46 C 51.83 118.73 45.99 119.61 42.42 115.64 C 39.21 111.83 37.45 107.06 35.53 102.53 C 32.86 96.37 32.31 89.24 34.84 82.94 C 35.83 81.95 36.90 81.04 37.95 80.12 C 47.93 86.77 54.25 97.54 58.02 108.69 C 58.38 108.67 59.10 108.64 59.46 108.62 C 65.15 94.58 68.59 79.46 68.49 64.27 C 76.43 58.07 84.25 51.12 88.69 41.89 C 90.51 38.43 91.19 33.93 95.02 32.00 M 71.37 70.92 C 76.66 70.43 81.58 67.79 87.00 68.33 C 92.54 67.83 97.91 68.93 103.10 70.78 C 102.04 67.55 98.56 66.44 95.77 65.16 C 87.58 61.40 76.90 63.69 71.37 70.92 M 129.28 70.31 C 128.80 70.25 127.84 70.11 127.37 70.04 C 127.36 70.81 127.34 72.34 127.34 73.11 C 129.43 72.83 131.50 72.25 133.11 70.80 C 136.07 70.37 138.96 69.36 141.99 69.47 C 146.80 69.51 151.98 68.92 156.28 71.55 C 157.75 72.37 159.40 72.74 161.06 72.93 C 160.35 71.29 159.25 69.89 157.79 68.87 C 154.31 67.35 151.00 64.92 147.01 65.27 C 140.67 64.64 134.39 66.58 129.28 70.31 M 79.62 75.58 C 78.17 76.96 76.04 78.61 76.76 80.88 C 77.98 83.36 80.78 84.41 82.67 86.29 C 84.15 87.40 85.13 89.49 87.19 89.55 C 93.01 90.39 99.22 90.57 104.67 88.04 C 104.05 85.18 104.99 82.50 106.48 80.08 C 106.32 79.64 106.00 78.77 105.84 78.33 C 104.62 77.39 103.43 76.41 102.27 75.40 C 99.52 72.77 95.47 73.48 92.01 73.27 C 87.86 73.45 83.00 72.58 79.62 75.58 M 127.92 76.90 C 126.88 77.94 125.18 79.17 125.76 80.86 C 126.60 84.26 127.41 88.62 131.38 89.64 C 139.21 92.07 148.15 91.13 155.19 86.81 C 154.40 85.95 153.70 84.99 152.74 84.32 C 153.33 82.91 153.90 81.48 154.48 80.06 C 153.61 78.92 152.73 77.78 151.88 76.63 C 149.22 74.94 146.27 73.50 143.04 73.58 C 137.90 73.49 132.03 73.25 127.92 76.90 M 127.78 100.98 C 128.23 104.75 131.90 106.97 133.72 110.08 C 132.41 110.90 130.78 110.56 129.33 110.81 C 126.94 111.18 124.17 113.12 125.59 115.88 C 129.34 114.80 131.29 110.09 135.49 110.59 C 135.56 110.03 135.63 109.47 135.70 108.91 C 133.58 105.99 131.86 101.39 127.78 100.98 M 96.67 108.90 C 98.42 112.61 103.05 115.26 106.93 113.03 C 108.82 114.27 110.72 115.49 112.65 116.66 C 113.73 119.11 117.39 115.47 115.44 113.85 L 115.04 113.84 C 114.07 112.77 113.12 111.70 112.18 110.62 C 109.34 109.00 105.85 108.60 103.55 111.36 C 102.10 110.51 100.62 109.66 99.36 108.54 C 99.56 105.94 101.66 103.95 102.54 101.56 C 98.90 101.48 95.81 105.40 96.67 108.90 M 108.09 124.01 C 108.16 126.57 107.52 130.47 110.87 131.18 C 111.23 126.91 111.23 122.62 111.12 118.35 C 108.18 118.50 108.24 121.81 108.09 124.01 M 116.54 119.75 C 116.10 123.74 116.88 127.70 118.52 131.35 C 119.15 131.47 120.41 131.71 121.04 131.83 C 120.30 127.61 119.34 123.44 118.56 119.24 C 118.06 119.37 117.05 119.62 116.54 119.75 M 135.68 121.08 C 138.72 121.66 141.83 121.45 144.89 121.80 C 147.28 122.79 148.26 125.45 149.61 127.47 C 150.20 127.53 151.38 127.66 151.97 127.73 C 151.26 124.10 149.28 120.49 145.75 118.96 C 142.31 117.78 138.24 118.36 135.68 121.08 M 84.13 123.09 C 82.13 125.55 82.71 128.85 83.07 131.74 C 83.67 131.74 84.88 131.75 85.49 131.75 C 85.56 129.58 85.47 127.38 85.93 125.24 C 87.21 123.94 88.89 123.17 90.45 122.29 C 90.52 121.73 90.67 120.62 90.74 120.07 C 88.33 120.47 85.59 120.87 84.13 123.09 M 90.45 135.78 C 90.74 137.29 91.88 139.04 93.66 138.74 C 93.27 136.00 92.74 133.28 92.20 130.56 C 98.07 133.78 104.17 137.15 110.99 137.61 C 116.67 137.87 122.51 137.92 127.94 135.99 C 133.13 134.38 137.65 131.27 142.50 128.90 C 142.59 131.91 142.62 134.91 142.80 137.92 C 147.03 135.45 146.08 128.69 142.98 125.61 C 136.13 128.88 129.66 133.47 121.94 134.50 C 117.67 134.90 113.34 134.93 109.07 134.50 C 101.86 133.38 95.74 129.18 89.72 125.36 C 88.41 128.78 89.58 132.40 90.45 135.78 M 96.81 172.05 C 100.80 177.63 108.12 181.02 114.97 180.64 C 118.17 180.59 121.57 180.94 124.48 179.29 C 127.99 177.40 132.13 175.73 134.16 172.07 C 129.52 174.68 125.20 178.06 119.93 179.32 C 116.21 179.56 112.29 179.94 108.77 178.46 C 104.40 177.09 100.81 174.17 96.81 172.05 Z" />
<path fill="#fefefe" opacity="1.00" d=" M 82.20 77.20 C 87.37 74.97 93.16 75.82 98.58 76.40 C 98.70 77.08 98.94 78.42 99.05 79.09 C 99.11 79.51 99.22 80.33 99.28 80.75 C 99.19 81.46 99.00 82.88 98.91 83.59 C 92.35 84.17 84.87 84.88 79.27 80.71 C 78.90 78.85 80.86 77.94 82.20 77.20 Z" />
<path fill="#fefefe" opacity="1.00" d=" M 128.71 79.70 C 133.85 74.96 141.58 76.16 147.91 77.05 C 148.00 79.43 148.14 81.80 148.35 84.17 C 142.46 86.28 135.57 85.93 130.02 82.99 C 128.77 82.48 127.40 80.88 128.71 79.70 Z" />
</g>
<g id="#929292fb">
<path fill="#929292" opacity="1.00" d=" M 157.79 68.87 C 159.25 69.89 160.35 71.29 161.06 72.93 C 159.40 72.74 157.75 72.37 156.28 71.55 C 156.78 70.66 157.28 69.76 157.79 68.87 Z" />
<path fill="#929292" opacity="1.00" d=" M 127.37 70.04 C 127.84 70.11 128.80 70.25 129.28 70.31 C 130.55 70.50 131.83 70.67 133.11 70.80 C 131.50 72.25 129.43 72.83 127.34 73.11 C 127.34 72.34 127.36 70.81 127.37 70.04 Z" />
<path fill="#929292" opacity="1.00" d=" M 79.62 75.58 C 83.00 72.58 87.86 73.45 92.01 73.27 C 95.47 73.48 99.52 72.77 102.27 75.40 C 101.17 76.60 100.08 77.82 99.05 79.09 C 98.94 78.42 98.70 77.08 98.58 76.40 C 93.16 75.82 87.37 74.97 82.20 77.20 C 80.86 77.94 78.90 78.85 79.27 80.71 C 84.87 84.88 92.35 84.17 98.91 83.59 C 99.00 82.88 99.19 81.46 99.28 80.75 C 99.77 81.88 100.28 83.01 100.80 84.13 C 103.49 83.19 105.33 81.17 105.84 78.33 C 106.00 78.77 106.32 79.64 106.48 80.08 C 104.99 82.50 104.05 85.18 104.67 88.04 C 99.22 90.57 93.01 90.39 87.19 89.55 C 85.13 89.49 84.15 87.40 82.67 86.29 C 80.78 84.41 77.98 83.36 76.76 80.88 C 76.04 78.61 78.17 76.96 79.62 75.58 Z" />
<path fill="#929292" opacity="1.00" d=" M 127.92 76.90 C 132.03 73.25 137.90 73.49 143.04 73.58 C 146.27 73.50 149.22 74.94 151.88 76.63 C 151.20 76.87 149.83 77.34 149.15 77.58 C 149.15 79.85 149.32 82.12 149.74 84.36 C 150.73 84.33 151.73 84.32 152.74 84.32 C 153.70 84.99 154.40 85.95 155.19 86.81 C 148.15 91.13 139.21 92.07 131.38 89.64 C 127.41 88.62 126.60 84.26 125.76 80.86 C 125.18 79.17 126.88 77.94 127.92 76.90 M 128.71 79.70 C 127.40 80.88 128.77 82.48 130.02 82.99 C 135.57 85.93 142.46 86.28 148.35 84.17 C 148.14 81.80 148.00 79.43 147.91 77.05 C 141.58 76.16 133.85 74.96 128.71 79.70 Z" />
<path fill="#929292" opacity="1.00" d=" M 33.12 101.03 C 31.74 95.21 29.58 87.47 34.84 82.94 C 32.31 89.24 32.86 96.37 35.53 102.53 C 37.45 107.06 39.21 111.83 42.42 115.64 C 45.99 119.61 51.83 118.73 56.61 119.46 C 58.63 128.38 56.64 138.76 62.71 146.35 C 71.05 157.78 80.38 168.62 91.55 177.39 C 99.89 183.81 110.57 187.53 121.15 186.18 C 116.52 187.08 111.76 186.88 107.07 186.69 C 106.16 189.48 105.20 192.28 103.97 194.95 C 105.04 192.24 105.93 189.47 106.84 186.70 C 96.46 183.39 87.72 176.59 80.00 169.11 C 71.57 160.29 63.91 150.67 57.25 140.44 C 57.78 133.70 56.32 127.01 55.80 120.31 C 51.89 120.00 47.95 119.83 44.12 119.00 C 37.99 114.94 36.02 107.36 33.12 101.03 Z" />
<path fill="#929292" opacity="1.00" d=" M 127.78 100.98 C 131.86 101.39 133.58 105.99 135.70 108.91 C 135.06 109.33 134.39 109.72 133.72 110.08 C 131.90 106.97 128.23 104.75 127.78 100.98 Z" />
<path fill="#929292" opacity="1.00" d=" M 96.67 108.90 C 95.81 105.40 98.90 101.48 102.54 101.56 C 101.66 103.95 99.56 105.94 99.36 108.54 C 100.62 109.66 102.10 110.51 103.55 111.36 C 105.85 108.60 109.34 109.00 112.18 110.62 C 110.10 110.54 108.03 110.41 105.95 110.27 C 106.28 111.19 106.60 112.11 106.93 113.03 C 103.05 115.26 98.42 112.61 96.67 108.90 Z" />
<path fill="#929292" opacity="1.00" d=" M 115.04 113.84 L 115.44 113.85 C 117.39 115.47 113.73 119.11 112.65 116.66 C 113.42 115.69 114.21 114.75 115.04 113.84 Z" />
<path fill="#929292" opacity="1.00" d=" M 108.09 124.01 C 108.24 121.81 108.18 118.50 111.12 118.35 C 111.23 122.62 111.23 126.91 110.87 131.18 C 107.52 130.47 108.16 126.57 108.09 124.01 Z" />
<path fill="#929292" opacity="1.00" d=" M 116.54 119.75 C 117.05 119.62 118.06 119.37 118.56 119.24 C 119.34 123.44 120.30 127.61 121.04 131.83 C 120.41 131.71 119.15 131.47 118.52 131.35 C 116.88 127.70 116.10 123.74 116.54 119.75 Z" />
<path fill="#929292" opacity="1.00" d=" M 135.68 121.08 C 138.24 118.36 142.31 117.78 145.75 118.96 C 149.28 120.49 151.26 124.10 151.97 127.73 C 151.38 127.66 150.20 127.53 149.61 127.47 C 148.26 125.45 147.28 122.79 144.89 121.80 C 141.83 121.45 138.72 121.66 135.68 121.08 Z" />
<path fill="#929292" opacity="1.00" d=" M 84.13 123.09 C 85.59 120.87 88.33 120.47 90.74 120.07 C 90.67 120.62 90.52 121.73 90.45 122.29 C 88.89 123.17 87.21 123.94 85.93 125.24 C 85.47 127.38 85.56 129.58 85.49 131.75 C 84.88 131.75 83.67 131.74 83.07 131.74 C 82.71 128.85 82.13 125.55 84.13 123.09 Z" />
<path fill="#929292" opacity="1.00" d=" M 90.45 135.78 C 89.58 132.40 88.41 128.78 89.72 125.36 C 95.74 129.18 101.86 133.38 109.07 134.50 C 113.34 134.93 117.67 134.90 121.94 134.50 C 129.66 133.47 136.13 128.88 142.98 125.61 C 146.08 128.69 147.03 135.45 142.80 137.92 C 142.62 134.91 142.59 131.91 142.50 128.90 C 137.65 131.27 133.13 134.38 127.94 135.99 C 122.51 137.92 116.67 137.87 110.99 137.61 C 104.17 137.15 98.07 133.78 92.20 130.56 C 92.74 133.28 93.27 136.00 93.66 138.74 C 91.88 139.04 90.74 137.29 90.45 135.78 Z" />
<path fill="#929292" opacity="1.00" d=" M 109.28 194.84 C 109.98 193.68 110.77 192.58 111.59 191.51 C 111.62 192.33 111.68 193.97 111.70 194.79 C 111.10 194.80 109.89 194.83 109.28 194.84 Z" />
</g>
</svg>
