<?xml version="1.0" encoding="UTF-8" ?>
<!DOCTYPE svg PUBLIC "-//W3C//DTD SVG 1.1//EN" "http://www.w3.org/Graphics/SVG/1.1/DTD/svg11.dtd">
<svg width="210pt" height="220pt" viewBox="0 0 210 220" version="1.1" xmlns="http://www.w3.org/2000/svg">
<g id="#131313eb">
<path fill="#131313" opacity="0.92" d=" M 62.75 0.00 L 87.27 0.00 C 102.68 2.89 117.70 9.92 128.17 21.84 C 139.94 35.61 144.86 54.06 144.65 71.92 C 143.62 89.58 139.82 108.71 126.61 121.49 C 114.20 133.32 96.23 136.77 79.63 135.51 C 80.33 140.94 80.51 146.41 80.68 151.87 C 90.20 143.75 102.72 139.08 115.30 140.28 C 120.04 140.93 126.15 140.83 128.89 145.52 C 123.20 145.45 117.73 143.42 112.02 143.64 C 101.64 143.18 91.50 147.34 83.48 153.74 C 82.57 154.57 81.33 155.42 81.27 156.79 C 80.90 161.81 81.36 166.86 81.29 171.89 C 80.06 171.95 78.82 172.01 77.59 172.08 C 77.44 167.33 78.40 162.23 76.09 157.85 C 72.41 150.49 70.34 142.47 68.52 134.48 C 50.59 131.92 33.49 124.17 19.93 112.15 C 10.06 103.87 3.02 92.38 0.00 79.86 L 0.00 62.68 C 1.87 50.66 7.80 39.94 13.34 29.31 C 19.66 18.36 30.96 11.85 41.56 5.68 C 47.98 1.87 55.47 0.92 62.75 0.00 M 65.15 3.69 C 61.01 3.33 56.81 3.36 52.85 4.77 C 45.45 7.32 37.84 9.91 31.70 14.94 C 20.33 23.14 12.16 35.05 6.75 47.86 C 1.74 60.32 0.10 74.49 4.73 87.33 C 7.26 93.11 10.34 98.71 14.52 103.47 C 28.37 119.13 48.18 129.17 68.83 131.93 C 66.97 123.93 65.06 115.95 63.02 108.00 C 62.34 104.83 60.55 101.63 61.76 98.35 C 65.38 108.32 67.40 118.83 69.84 129.14 C 70.15 130.20 70.46 131.27 70.76 132.33 C 75.17 132.63 79.55 133.32 83.97 133.41 C 89.35 133.63 94.67 132.64 100.01 132.14 C 105.20 130.75 110.49 129.49 115.23 126.86 C 125.62 121.59 132.87 111.72 136.84 100.96 C 137.20 99.94 137.56 98.92 137.92 97.90 C 140.37 89.84 141.79 81.45 141.79 73.02 C 142.50 70.72 142.50 68.27 141.82 65.97 C 141.83 58.75 140.43 51.63 138.26 44.77 C 137.77 43.54 137.31 42.31 136.85 41.07 C 132.55 29.57 124.58 19.44 114.14 12.93 C 100.72 4.15 84.41 1.12 68.58 1.64 C 67.40 2.27 66.26 2.95 65.15 3.69 M 71.76 134.46 C 73.84 140.96 75.58 147.56 77.46 154.12 C 77.40 147.94 76.24 141.83 76.38 135.64 C 74.84 135.25 73.29 134.87 71.76 134.46 Z" />
<path fill="#131313" opacity="0.92" d=" M 103.29 12.59 C 103.82 12.55 104.87 12.46 105.40 12.42 C 102.82 14.33 100.10 16.05 97.19 17.40 C 94.01 17.43 90.77 17.74 87.65 17.00 C 90.87 16.55 94.14 16.60 97.39 16.50 C 98.18 16.10 98.97 15.71 99.77 15.32 C 100.96 14.44 102.15 13.55 103.29 12.59 Z" />
<path fill="#131313" opacity="0.92" d=" M 98.27 22.46 C 102.54 20.13 105.01 15.23 110.08 14.25 C 110.95 15.42 112.74 16.27 112.64 17.94 C 113.21 22.72 108.97 26.21 105.26 28.37 C 102.42 29.53 99.56 30.81 96.42 30.85 L 96.45 31.37 C 94.97 31.34 93.49 31.30 92.01 31.27 C 89.98 30.22 88.05 28.99 86.43 27.37 C 86.44 26.79 86.46 25.62 86.47 25.03 C 88.73 22.94 91.62 20.82 94.83 22.29 C 95.97 22.35 97.12 22.40 98.27 22.46 M 100.25 23.31 C 97.21 23.94 94.07 23.49 90.99 23.59 C 90.25 24.06 88.76 25.02 88.02 25.50 C 88.91 28.79 92.40 29.68 95.39 29.83 C 95.38 28.33 95.40 26.84 95.45 25.35 C 96.59 25.51 97.75 25.63 98.86 25.96 C 99.06 26.72 99.45 28.25 99.65 29.01 C 104.53 27.05 109.59 24.41 111.52 19.15 C 111.13 18.39 110.36 16.85 109.98 16.09 C 105.62 16.85 103.66 21.09 100.25 23.31 Z" />
<path fill="#131313" opacity="0.92" d=" M 29.97 18.95 C 34.56 16.40 38.46 21.26 42.65 22.41 C 47.26 20.53 53.58 20.84 55.84 26.02 C 54.16 28.34 51.84 30.02 49.33 31.33 C 48.17 31.49 47.02 31.66 45.87 31.84 C 40.32 33.26 34.15 30.88 30.69 26.39 C 28.88 24.40 29.05 21.31 29.97 18.95 M 30.33 22.95 C 33.01 27.34 37.52 30.66 42.83 30.66 C 42.76 29.73 42.63 27.87 42.56 26.94 C 43.18 26.56 44.43 25.78 45.05 25.40 C 45.62 25.79 46.75 26.57 47.31 26.96 C 47.40 27.68 47.57 29.12 47.66 29.84 C 49.60 28.91 51.59 28.05 53.37 26.83 C 54.54 24.52 51.70 23.57 49.92 23.33 C 47.26 23.00 44.60 23.57 41.94 23.59 C 38.22 23.54 35.76 19.48 32.03 19.67 C 31.41 20.73 30.84 21.83 30.33 22.95 Z" />
<path fill="#131313" opacity="0.92" d=" M 144.91 20.87 C 145.49 20.82 146.63 20.72 147.20 20.67 C 147.52 23.02 147.51 25.40 147.54 27.78 C 148.00 27.75 148.92 27.69 149.37 27.66 C 149.46 25.12 149.60 22.57 149.87 20.04 C 153.84 20.95 152.10 25.23 152.30 28.09 C 155.09 24.95 159.20 25.47 162.81 26.51 C 162.57 27.85 162.15 29.15 161.79 30.46 C 162.20 30.59 163.03 30.85 163.44 30.99 C 163.54 28.48 163.78 25.95 164.98 23.69 C 166.03 25.71 166.47 27.95 166.73 30.19 C 169.11 31.40 171.13 33.15 170.94 36.05 C 170.32 36.43 169.08 37.21 168.47 37.59 C 167.81 37.11 167.15 36.63 166.49 36.14 C 165.43 37.74 164.37 39.33 163.35 40.94 C 160.19 41.40 156.96 41.65 153.78 41.21 L 153.14 39.85 C 155.54 38.18 158.61 39.17 161.24 38.33 C 162.26 37.24 163.08 35.98 163.96 34.78 C 163.24 34.73 161.81 34.65 161.09 34.60 C 160.27 33.32 159.44 32.05 158.62 30.77 C 159.06 32.01 159.49 33.25 159.92 34.50 C 158.23 34.62 156.53 34.72 154.84 34.82 C 154.25 34.16 153.66 33.50 153.08 32.84 C 152.11 33.97 151.13 35.09 150.13 36.18 C 149.54 34.10 148.99 32.02 148.36 29.96 C 147.39 31.68 147.86 35.46 144.83 34.71 C 144.39 30.11 144.29 25.45 144.91 20.87 M 154.45 28.51 C 154.50 29.04 154.61 30.12 154.67 30.66 C 156.21 30.15 157.73 29.61 159.25 29.05 C 157.83 27.68 156.15 27.32 154.45 28.51 Z" />
<path fill="#131313" opacity="0.92" d=" M 180.91 24.08 C 181.78 25.19 182.65 26.31 183.45 27.47 C 185.16 25.54 187.49 25.57 189.71 26.63 C 190.00 26.11 190.58 25.07 190.87 24.56 C 191.52 24.81 192.81 25.32 193.45 25.57 C 192.88 27.88 192.40 30.22 192.33 32.61 C 194.28 30.83 193.99 26.48 197.22 26.69 C 197.45 28.15 197.58 29.63 197.71 31.11 C 199.37 31.46 200.78 32.16 200.89 34.07 C 199.35 34.56 197.83 35.04 196.29 35.50 C 194.74 35.11 193.19 34.75 191.63 34.47 C 191.24 34.08 190.47 33.30 190.08 32.92 C 189.61 33.43 188.68 34.45 188.21 34.96 C 187.37 34.75 185.70 34.32 184.86 34.11 C 183.40 33.49 184.98 32.32 185.66 31.89 C 187.13 31.17 187.88 29.83 188.37 28.35 C 187.40 28.45 186.43 28.56 185.47 28.67 C 184.69 30.15 183.93 31.68 182.72 32.87 C 182.31 34.51 182.21 36.20 181.91 37.86 C 180.89 39.73 178.75 40.55 177.09 41.73 C 174.26 41.43 171.32 41.42 168.74 40.04 C 170.34 38.79 172.25 38.72 174.11 39.31 C 176.52 38.94 178.65 37.80 180.33 36.03 C 179.25 35.35 178.16 34.67 177.07 34.00 C 176.40 32.91 175.73 31.82 175.06 30.74 C 176.09 29.07 175.67 24.86 178.48 25.77 C 178.78 27.85 178.71 29.95 178.74 32.04 C 179.31 31.21 179.88 30.38 180.45 29.55 C 180.59 27.73 180.72 25.90 180.91 24.08 Z" />
<path fill="#131313" opacity="0.92" d=" M 80.01 34.75 C 80.21 35.58 80.39 36.42 80.57 37.26 C 80.74 37.77 81.09 38.79 81.26 39.31 C 81.76 39.98 82.75 41.33 83.25 42.00 C 84.03 40.27 84.68 38.48 85.33 36.69 C 85.33 37.27 85.35 38.41 85.36 38.98 C 84.76 40.28 84.20 41.60 83.69 42.94 C 85.76 43.63 87.74 44.54 89.68 45.54 L 89.61 46.87 L 91.63 46.28 C 90.20 47.78 88.82 49.32 87.52 50.93 C 85.38 50.58 83.85 48.97 82.17 47.77 C 81.62 47.62 80.52 47.32 79.98 47.17 C 76.78 45.90 73.31 46.14 69.99 46.63 C 68.89 47.10 67.77 47.51 66.63 47.87 C 65.29 49.00 64.04 50.25 62.85 51.54 C 61.44 49.88 60.07 48.20 58.79 46.44 C 58.21 46.39 57.05 46.28 56.47 46.22 C 56.16 45.92 55.54 45.33 55.23 45.03 C 55.52 44.72 56.11 44.09 56.40 43.77 C 56.36 44.27 56.28 45.27 56.24 45.76 C 57.27 45.65 59.31 45.42 60.34 45.31 C 58.81 42.92 56.49 40.50 57.90 37.41 C 58.21 38.69 58.43 39.98 58.67 41.27 C 59.83 41.65 61.00 42.02 62.17 42.36 L 62.56 42.47 C 64.30 42.87 66.24 43.24 67.45 41.58 C 67.83 41.24 68.58 40.56 68.96 40.23 C 68.45 38.96 67.93 37.71 67.40 36.45 C 67.58 36.41 67.95 36.34 68.14 36.30 C 68.92 38.86 69.45 42.76 73.13 41.49 C 73.77 41.46 75.04 41.40 75.67 41.37 C 76.52 41.32 78.20 41.22 79.05 41.17 C 79.38 39.03 79.59 36.88 80.01 34.75 M 73.47 42.43 C 73.38 42.94 73.20 43.98 73.11 44.49 C 74.39 44.49 75.67 44.49 76.96 44.49 C 76.84 43.97 76.61 42.94 76.49 42.42 C 75.48 42.42 74.47 42.42 73.47 42.43 M 79.57 42.12 C 76.95 44.62 80.50 46.11 82.76 45.79 C 82.74 43.64 81.92 41.91 79.57 42.12 M 68.02 43.29 C 66.66 44.74 69.28 46.34 70.31 44.92 C 71.63 43.47 69.03 41.77 68.02 43.29 M 61.35 44.16 C 61.43 45.33 61.61 47.69 61.69 48.87 C 63.49 47.94 65.24 46.94 66.98 45.92 C 65.30 44.69 63.42 44.11 61.35 44.16 M 84.41 45.76 C 83.78 47.24 86.19 49.24 87.44 48.05 C 88.24 46.47 85.69 44.59 84.41 45.76 Z" />
<path fill="#131313" opacity="0.92" d=" M 164.74 43.29 C 165.90 42.54 167.08 41.81 168.27 41.11 C 168.47 44.18 168.34 47.28 167.57 50.28 C 169.08 50.41 170.58 50.56 172.08 50.76 C 173.34 49.98 174.59 49.19 175.85 48.42 C 176.95 48.87 178.06 49.32 179.17 49.77 C 179.28 49.34 179.50 48.48 179.62 48.05 C 181.44 48.39 183.27 48.67 185.12 48.89 C 186.30 50.20 187.53 51.50 188.44 53.02 C 187.34 54.85 185.78 56.33 184.33 57.86 C 183.70 57.82 182.45 57.73 181.83 57.69 C 181.79 59.94 182.09 62.44 180.08 64.03 C 179.43 61.96 178.87 59.87 178.38 57.76 C 176.50 57.70 174.63 57.63 172.76 57.53 C 170.44 57.78 168.10 57.71 165.85 57.03 C 161.82 58.81 157.28 57.27 154.86 53.66 C 157.80 52.95 160.64 54.06 163.47 54.71 C 161.46 52.11 158.82 50.13 156.30 48.07 C 156.82 47.02 157.35 45.96 157.87 44.90 C 160.02 43.86 162.36 43.36 164.74 43.29 M 159.85 46.84 C 161.45 48.43 163.06 50.01 164.65 51.62 C 164.61 50.29 164.54 47.64 164.51 46.31 C 162.95 46.47 161.40 46.65 159.85 46.84 M 174.39 51.49 C 174.42 52.85 174.45 54.21 174.50 55.58 C 176.16 54.74 177.40 53.39 178.05 51.65 C 176.83 51.58 175.61 51.53 174.39 51.49 M 181.67 54.50 C 182.42 54.52 183.91 54.54 184.65 54.56 C 184.59 53.23 184.51 51.91 184.42 50.59 C 183.49 51.88 182.55 53.17 181.67 54.50 M 168.43 53.14 C 167.11 54.66 169.81 56.17 170.73 54.60 C 172.06 53.08 169.37 51.62 168.43 53.14 Z" />
<path fill="#131313" opacity="0.92" d=" M 195.83 41.77 C 196.75 41.72 197.67 41.67 198.59 41.63 C 198.63 44.61 198.54 47.60 197.96 50.53 C 199.19 50.42 200.42 50.31 201.66 50.20 C 201.66 50.73 201.66 51.80 201.67 52.33 C 200.05 52.94 198.44 53.58 196.84 54.22 C 199.50 54.58 202.19 54.36 204.85 54.66 C 205.17 55.31 205.80 56.62 206.12 57.27 C 202.65 57.27 198.20 59.18 195.81 55.68 C 195.37 56.33 194.49 57.65 194.05 58.31 C 190.93 56.02 192.25 51.99 193.26 48.94 C 193.07 47.21 193.83 45.93 195.48 45.25 C 195.60 44.09 195.71 42.93 195.83 41.77 Z" />
</g>
<g id="#fefefeff">
<path fill="#fefefe" opacity="1.00" d=" M 65.15 3.69 C 66.26 2.95 67.40 2.27 68.58 1.64 C 84.41 1.12 100.72 4.15 114.14 12.93 C 124.58 19.44 132.55 29.57 136.85 41.07 C 137.31 42.31 137.77 43.54 138.26 44.77 C 140.43 51.63 141.83 58.75 141.82 65.97 C 142.50 68.27 142.50 70.72 141.79 73.02 C 141.79 81.45 140.37 89.84 137.92 97.90 C 137.56 98.92 137.20 99.94 136.84 100.96 C 132.87 111.72 125.62 121.59 115.23 126.86 C 110.49 129.49 105.20 130.75 100.01 132.14 C 94.67 132.64 89.35 133.63 83.97 133.41 C 79.55 133.32 75.17 132.63 70.76 132.33 C 70.46 131.27 70.15 130.20 69.84 129.14 C 67.40 118.83 65.38 108.32 61.76 98.35 C 60.55 101.63 62.34 104.83 63.02 108.00 C 65.06 115.95 66.97 123.93 68.83 131.93 C 48.18 129.17 28.37 119.13 14.52 103.47 C 10.34 98.71 7.26 93.11 4.73 87.33 C 0.10 74.49 1.74 60.32 6.75 47.86 C 12.16 35.05 20.33 23.14 31.70 14.94 C 37.84 9.91 45.45 7.32 52.85 4.77 C 56.81 3.36 61.01 3.33 65.15 3.69 M 103.29 12.59 C 102.15 13.55 100.96 14.44 99.77 15.32 C 98.97 15.71 98.18 16.10 97.39 16.50 C 94.14 16.60 90.87 16.55 87.65 17.00 C 90.77 17.74 94.01 17.43 97.19 17.40 C 100.10 16.05 102.82 14.33 105.40 12.42 C 104.87 12.46 103.82 12.55 103.29 12.59 M 35.34 13.74 C 39.65 19.60 47.98 18.56 54.39 19.41 C 54.53 18.89 54.81 17.87 54.95 17.36 C 48.18 17.70 41.66 15.96 35.34 13.74 M 98.27 22.46 C 97.12 22.40 95.97 22.35 94.83 22.29 C 91.62 20.82 88.73 22.94 86.47 25.03 C 86.46 25.62 86.44 26.79 86.43 27.37 C 88.05 28.99 89.98 30.22 92.01 31.27 C 93.49 31.30 94.97 31.34 96.45 31.37 L 96.42 30.85 C 99.56 30.81 102.42 29.53 105.26 28.37 C 108.97 26.21 113.21 22.72 112.64 17.94 C 112.74 16.27 110.95 15.42 110.08 14.25 C 105.01 15.23 102.54 20.13 98.27 22.46 M 29.97 18.95 C 29.05 21.31 28.88 24.40 30.69 26.39 C 34.15 30.88 40.32 33.26 45.87 31.84 C 47.02 31.66 48.17 31.49 49.33 31.33 C 51.84 30.02 54.16 28.34 55.84 26.02 C 53.58 20.84 47.26 20.53 42.65 22.41 C 38.46 21.26 34.56 16.40 29.97 18.95 M 105.46 33.27 C 108.16 33.76 110.93 33.72 113.67 33.77 C 113.67 32.63 113.66 31.48 113.66 30.34 C 110.91 29.72 105.10 29.11 105.46 33.27 M 30.54 33.68 C 29.09 34.33 28.72 36.10 27.94 37.34 C 30.64 37.46 33.39 37.74 36.06 37.17 C 36.46 35.99 36.70 34.77 36.97 33.55 C 34.83 33.52 32.65 33.26 30.54 33.68 M 73.13 41.49 C 69.45 42.76 68.92 38.86 68.14 36.30 C 67.95 36.34 67.58 36.41 67.40 36.45 C 67.93 37.71 68.45 38.96 68.96 40.23 C 68.58 40.56 67.83 41.24 67.45 41.58 L 65.61 42.34 C 65.17 40.99 64.72 39.65 64.26 38.30 C 63.60 39.68 62.91 41.03 62.17 42.36 C 61.00 42.02 59.83 41.65 58.67 41.27 C 58.43 39.98 58.21 38.69 57.90 37.41 C 56.49 40.50 58.81 42.92 60.34 45.31 C 59.31 45.42 57.27 45.65 56.24 45.76 C 56.28 45.27 56.36 44.27 56.40 43.77 C 56.11 44.09 55.52 44.72 55.23 45.03 C 55.54 45.33 56.16 45.92 56.47 46.22 C 57.05 46.28 58.21 46.39 58.79 46.44 C 60.07 48.20 61.44 49.88 62.85 51.54 C 64.04 50.25 65.29 49.00 66.63 47.87 C 67.77 47.51 68.89 47.10 69.99 46.63 C 73.31 46.14 76.78 45.90 79.98 47.17 C 80.52 47.32 81.62 47.62 82.17 47.77 C 83.85 48.97 85.38 50.58 87.52 50.93 C 88.82 49.32 90.20 47.78 91.63 46.28 L 89.61 46.87 L 89.68 45.54 C 87.74 44.54 85.76 43.63 83.69 42.94 C 84.20 41.60 84.76 40.28 85.36 38.98 C 85.35 38.41 85.33 37.27 85.33 36.69 C 84.68 38.48 84.03 40.27 83.25 42.00 C 82.75 41.33 81.76 39.98 81.26 39.31 C 81.09 38.79 80.74 37.77 80.57 37.26 C 80.39 36.42 80.21 35.58 80.01 34.75 C 79.59 36.88 79.38 39.03 79.05 41.17 C 78.20 41.22 76.52 41.32 75.67 41.37 C 75.62 38.88 75.62 36.38 75.54 33.88 C 73.70 36.02 73.41 38.81 73.13 41.49 Z" />
<path fill="#fefefe" opacity="1.00" d=" M 100.25 23.31 C 103.66 21.09 105.62 16.85 109.98 16.09 C 110.36 16.85 111.13 18.39 111.52 19.15 C 109.59 24.41 104.53 27.05 99.65 29.01 C 99.45 28.25 99.06 26.72 98.86 25.96 C 97.75 25.63 96.59 25.51 95.45 25.35 C 95.40 26.84 95.38 28.33 95.39 29.83 C 92.40 29.68 88.91 28.79 88.02 25.50 C 88.76 25.02 90.25 24.06 90.99 23.59 C 94.07 23.49 97.21 23.94 100.25 23.31 Z" />
<path fill="#fefefe" opacity="1.00" d=" M 30.33 22.95 C 30.84 21.83 31.41 20.73 32.03 19.67 C 35.76 19.48 38.22 23.54 41.94 23.59 C 44.60 23.57 47.26 23.00 49.92 23.33 C 51.70 23.57 54.54 24.52 53.37 26.83 C 51.59 28.05 49.60 28.91 47.66 29.84 C 47.57 29.12 47.40 27.68 47.31 26.96 C 46.75 26.57 45.62 25.79 45.05 25.40 C 44.43 25.78 43.18 26.56 42.56 26.94 C 42.63 27.87 42.76 29.73 42.83 30.66 C 37.52 30.66 33.01 27.34 30.33 22.95 Z" />
<path fill="#fefefe" opacity="1.00" d=" M 154.45 28.51 C 156.15 27.32 157.83 27.68 159.25 29.05 C 157.73 29.61 156.21 30.15 154.67 30.66 C 154.61 30.12 154.50 29.04 154.45 28.51 Z" />
<path fill="#fefefe" opacity="1.00" d=" M 73.47 42.43 C 74.47 42.42 75.48 42.42 76.49 42.42 C 76.61 42.94 76.84 43.97 76.96 44.49 C 75.67 44.49 74.39 44.49 73.11 44.49 C 73.20 43.98 73.38 42.94 73.47 42.43 Z" />
<path fill="#fefefe" opacity="1.00" d=" M 79.57 42.12 C 81.92 41.91 82.74 43.64 82.76 45.79 C 80.50 46.11 76.95 44.62 79.57 42.12 Z" />
<path fill="#fefefe" opacity="1.00" d=" M 68.02 43.29 C 69.03 41.77 71.63 43.47 70.31 44.92 C 69.28 46.34 66.66 44.74 68.02 43.29 Z" />
<path fill="#fefefe" opacity="1.00" d=" M 61.35 44.16 C 63.42 44.11 65.30 44.69 66.98 45.92 C 65.24 46.94 63.49 47.94 61.69 48.87 C 61.61 47.69 61.43 45.33 61.35 44.16 Z" />
<path fill="#fefefe" opacity="1.00" d=" M 84.41 45.76 C 85.69 44.59 88.24 46.47 87.44 48.05 C 86.19 49.24 83.78 47.24 84.41 45.76 Z" />
</g>
<g id="#ab938ffe">
<path fill="#ab938f" opacity="1.00" d=" M 35.34 13.74 C 41.66 15.96 48.18 17.70 54.95 17.36 C 54.81 17.87 54.53 18.89 54.39 19.41 C 47.98 18.56 39.65 19.60 35.34 13.74 Z" />
<path fill="#ab938f" opacity="1.00" d=" M 105.46 33.27 C 105.10 29.11 110.91 29.72 113.66 30.34 C 113.66 31.48 113.67 32.63 113.67 33.77 C 110.93 33.72 108.16 33.76 105.46 33.27 Z" />
<path fill="#ab938f" opacity="1.00" d=" M 30.54 33.68 C 32.65 33.26 34.83 33.52 36.97 33.55 C 36.70 34.77 36.46 35.99 36.06 37.17 C 33.39 37.74 30.64 37.46 27.94 37.34 C 28.72 36.10 29.09 34.33 30.54 33.68 Z" />
<path fill="#ab938f" opacity="1.00" d=" M 73.13 41.49 C 73.41 38.81 73.70 36.02 75.54 33.88 C 75.62 36.38 75.62 38.88 75.67 41.37 C 75.04 41.40 73.77 41.46 73.13 41.49 Z" />
<path fill="#ab938f" opacity="1.00" d=" M 64.26 38.30 C 64.72 39.65 65.17 40.99 65.61 42.34 L 67.45 41.58 C 66.24 43.24 64.30 42.87 62.56 42.47 L 62.17 42.36 C 62.91 41.03 63.60 39.68 64.26 38.30 Z" />
</g>
</svg>
