<?xml version="1.0" encoding="UTF-8" ?>
<!DOCTYPE svg PUBLIC "-//W3C//DTD SVG 1.1//EN" "http://www.w3.org/Graphics/SVG/1.1/DTD/svg11.dtd">
<svg width="210pt" height="220pt" viewBox="0 0 210 220" version="1.1" xmlns="http://www.w3.org/2000/svg">
<g id="#131313f2">
<path fill="#131313" opacity="0.95" d=" M 93.97 42.75 C 102.05 40.63 110.91 39.12 118.99 42.05 C 121.71 43.07 124.62 42.29 127.43 42.54 C 131.34 46.05 133.97 50.68 136.62 55.14 C 136.01 55.18 134.80 55.25 134.20 55.29 C 128.61 50.80 123.05 46.18 116.77 42.69 C 109.60 39.55 101.63 41.92 94.50 43.92 L 93.97 42.75 M 124.11 43.45 C 125.41 47.26 129.80 48.97 132.92 51.18 C 130.01 48.58 128.79 43.40 124.11 43.45 Z" />
<path fill="#131313" opacity="0.95" d=" M 78.42 46.49 C 82.62 44.00 87.71 43.80 92.46 43.49 C 90.92 44.27 89.39 45.10 87.73 45.61 C 85.49 45.88 83.25 46.24 81.10 46.97 C 79.34 47.84 78.17 49.58 76.37 50.37 C 73.34 51.05 69.96 50.49 67.24 52.23 C 64.53 54.22 61.48 55.97 59.69 58.91 C 57.14 62.56 53.37 65.13 50.86 68.81 C 48.41 72.35 45.47 75.51 42.96 79.01 C 39.62 83.72 35.02 87.33 31.56 91.95 C 31.56 95.61 31.59 99.27 31.59 102.94 C 30.62 104.67 29.71 106.44 28.82 108.22 C 28.71 111.67 26.09 114.50 26.51 118.02 C 26.60 125.69 26.53 133.36 26.52 141.02 C 26.24 143.30 27.93 145.03 28.69 147.03 C 29.84 149.50 29.18 152.31 29.88 154.88 C 32.62 162.35 35.17 170.03 35.90 177.99 C 39.34 180.79 42.10 184.26 43.58 188.49 C 48.40 191.52 53.47 194.11 58.50 196.77 C 59.86 197.45 60.59 198.86 61.49 200.02 C 60.90 199.98 59.73 199.91 59.14 199.87 C 53.70 196.09 47.49 193.66 42.00 189.96 C 40.47 186.50 38.75 183.00 35.53 180.80 C 35.89 184.39 36.48 187.95 36.49 191.56 C 36.66 190.65 36.79 189.73 36.93 188.81 C 37.38 192.89 39.62 196.39 41.24 200.06 C 40.70 199.98 39.62 199.80 39.07 199.71 C 34.67 192.60 34.76 183.95 32.55 176.12 C 33.81 174.00 33.15 171.64 32.36 169.52 C 30.95 165.82 30.35 161.88 28.86 158.22 C 27.29 154.31 27.18 150.03 26.25 145.96 C 25.38 144.80 23.92 143.82 24.17 142.19 C 23.85 132.51 25.47 122.87 24.73 113.19 C 27.74 110.56 27.83 106.30 29.06 102.76 C 29.73 101.19 29.70 99.15 28.08 98.17 L 27.25 97.43 C 28.44 95.07 29.42 92.62 30.32 90.14 C 31.22 86.74 35.22 85.75 36.77 82.73 C 40.62 75.56 46.67 70.00 52.34 64.29 C 54.16 62.11 55.45 59.51 57.63 57.63 C 60.33 55.26 62.24 51.80 65.79 50.56 C 69.83 48.68 74.47 48.59 78.42 46.49 Z" />
<path fill="#131313" opacity="0.95" d=" M 135.76 56.97 C 136.06 56.56 136.68 55.75 136.99 55.35 C 140.28 64.50 150.51 69.63 151.56 79.84 L 150.30 79.89 C 150.21 79.40 150.03 78.42 149.94 77.93 C 147.84 74.60 144.00 72.14 143.62 67.96 C 143.44 69.90 143.02 71.82 142.06 73.55 C 140.50 68.95 140.46 63.02 135.71 60.32 C 135.72 59.59 135.74 58.15 135.75 57.43 L 135.76 56.97 Z" />
<path fill="#131313" opacity="0.95" d=" M 116.52 67.36 C 119.20 65.05 122.88 65.87 126.11 65.76 C 130.16 67.60 132.98 70.95 136.10 73.98 C 136.61 75.11 137.12 76.24 137.64 77.36 C 139.11 78.16 140.94 78.75 141.65 80.43 C 143.48 84.60 147.46 87.71 147.61 92.56 C 152.56 97.94 150.89 107.83 144.54 111.59 C 142.50 112.83 140.55 114.81 137.97 114.49 C 132.94 114.25 127.67 115.27 122.86 113.36 C 118.45 112.28 114.40 110.09 110.79 107.39 C 107.55 103.95 106.26 99.13 102.73 95.90 C 102.65 93.59 102.65 91.29 102.72 88.98 C 104.33 85.10 105.92 81.02 108.99 78.03 C 113.05 74.69 116.50 70.61 121.22 68.14 C 119.44 67.99 117.90 68.82 116.47 69.78 C 116.48 69.17 116.51 67.96 116.52 67.36 M 123.41 68.03 C 123.39 68.53 123.35 69.54 123.33 70.04 C 118.12 71.29 114.85 75.70 111.02 79.06 C 107.63 82.00 106.03 86.37 104.56 90.48 C 104.27 92.19 103.92 94.31 105.33 95.65 C 107.59 98.48 109.27 101.72 111.41 104.63 C 118.55 111.75 129.33 113.67 139.04 112.42 C 143.17 110.54 146.94 107.53 148.36 103.06 C 148.50 99.84 149.24 95.77 145.73 94.08 C 146.51 88.51 140.72 85.67 139.36 80.71 C 135.39 79.74 134.86 75.28 132.01 72.97 C 129.79 70.39 127.15 67.65 123.41 68.03 Z" />
<path fill="#131313" opacity="0.95" d=" M 142.44 73.15 C 147.04 73.86 146.03 81.33 150.60 81.48 L 151.99 81.56 C 152.88 89.50 159.43 94.90 162.29 102.05 C 163.70 106.10 166.54 109.59 167.06 113.95 C 168.17 121.96 166.32 130.19 168.23 138.11 C 169.17 141.77 167.16 145.32 167.36 148.99 C 167.47 152.93 166.24 157.90 170.52 160.09 C 171.72 167.10 169.00 173.91 165.54 179.86 C 162.88 186.38 160.02 192.89 158.14 199.69 C 157.52 199.78 156.28 199.96 155.65 200.05 C 156.22 198.44 156.59 196.78 156.79 195.09 C 159.69 189.86 160.37 183.75 163.21 178.50 C 163.72 175.69 164.65 172.92 166.82 170.94 C 166.88 167.07 166.97 163.18 166.58 159.32 C 165.67 149.64 167.62 139.69 164.78 130.23 C 163.92 124.01 162.13 117.98 160.20 112.02 C 157.48 107.59 157.36 102.16 155.09 97.53 C 155.84 97.56 157.34 97.61 158.09 97.64 C 156.04 95.96 153.97 94.19 153.22 91.54 C 150.81 84.69 144.03 80.37 142.44 73.15 M 158.50 98.90 C 158.58 99.95 158.75 102.06 158.83 103.11 C 159.75 105.47 160.28 108.00 161.60 110.19 C 163.47 113.21 163.62 116.92 165.34 120.01 C 165.31 120.72 165.25 122.14 165.22 122.86 C 165.52 122.84 166.11 122.81 166.41 122.79 C 166.25 120.58 166.20 118.37 166.16 116.16 C 164.52 112.31 164.40 107.56 160.73 104.86 C 160.38 102.74 161.48 99.56 158.50 98.90 Z" />
<path fill="#131313" opacity="0.95" d=" M 123.71 88.47 C 127.44 87.05 132.67 87.79 134.41 91.83 C 134.97 94.49 132.04 96.11 129.85 96.48 C 126.94 97.37 124.54 95.12 122.66 93.23 C 123.22 91.69 123.53 90.09 123.71 88.47 M 124.91 93.11 C 127.06 94.63 131.97 95.71 132.28 91.94 C 131.26 89.26 128.05 90.60 125.89 90.27 C 125.65 90.98 125.15 92.40 124.91 93.11 Z" />
<path fill="#131313" opacity="0.95" d=" M 52.48 90.65 C 54.32 89.84 56.01 88.75 57.83 87.91 C 60.52 87.64 63.27 87.63 65.96 87.94 C 68.34 88.73 70.50 90.11 72.98 90.62 C 75.77 90.86 76.99 93.69 79.19 94.99 C 81.08 96.07 82.81 97.38 84.43 98.83 C 85.15 105.52 82.01 111.91 77.68 116.80 C 74.29 122.18 69.89 126.97 64.66 130.58 C 60.65 130.78 56.54 130.98 52.57 130.44 C 49.00 128.43 45.48 125.40 44.24 121.36 C 45.16 119.53 44.86 117.58 43.75 115.92 C 43.71 115.16 43.63 113.65 43.59 112.89 C 43.08 112.46 42.08 111.60 41.57 111.17 C 41.55 109.40 41.53 107.63 41.55 105.86 C 44.28 103.07 43.23 98.82 45.53 95.77 C 47.92 94.16 50.25 92.47 52.48 90.65 M 49.50 95.48 C 46.71 97.42 45.02 100.56 45.10 103.98 C 44.05 105.74 43.47 107.67 43.66 109.74 C 47.30 112.37 46.26 117.38 46.52 121.26 C 48.10 125.50 52.21 129.26 56.99 128.60 C 59.57 128.32 62.49 129.63 64.77 127.87 C 66.80 126.66 68.07 124.57 70.03 123.27 C 72.59 121.66 73.36 118.51 75.45 116.45 C 79.75 112.27 81.82 106.35 82.65 100.52 L 81.35 99.13 L 82.50 98.17 C 80.69 97.72 78.86 97.36 77.00 97.23 C 77.64 99.07 78.59 100.79 80.70 101.24 L 80.68 102.65 C 75.82 104.06 75.85 97.77 74.47 94.84 C 70.30 91.28 64.66 88.96 59.06 89.56 C 56.05 91.83 52.22 92.75 49.50 95.48 Z" />
<path fill="#131313" opacity="0.95" d=" M 55.11 108.40 C 57.99 103.94 65.64 104.83 68.55 108.88 C 67.28 112.08 64.90 115.47 61.01 115.22 C 57.15 116.21 53.16 112.86 53.12 108.98 C 55.05 109.48 56.10 111.17 57.18 112.69 C 59.93 112.35 64.34 114.15 65.64 110.68 C 66.60 108.88 64.54 107.58 62.93 107.72 C 60.28 107.50 57.76 108.85 55.11 108.40 Z" />
<path fill="#131313" opacity="0.95" d=" M 22.72 133.12 C 22.97 132.77 23.46 132.07 23.70 131.72 C 23.80 135.81 23.70 139.90 23.72 144.00 C 24.73 150.36 26.52 156.70 26.53 163.18 C 28.43 166.57 30.51 169.85 32.56 173.15 C 32.48 173.79 32.34 175.07 32.27 175.71 C 32.01 175.91 31.48 176.33 31.22 176.53 C 31.01 172.14 27.68 169.03 25.98 165.23 C 24.41 159.36 24.60 153.18 22.83 147.36 C 22.42 142.64 22.59 137.86 22.72 133.12 Z" />
<path fill="#131313" opacity="0.95" d=" M 151.90 146.90 C 149.84 144.85 150.91 140.62 153.73 139.91 C 153.70 142.37 153.58 144.91 151.90 146.90 Z" />
<path fill="#131313" opacity="0.95" d=" M 136.19 149.19 C 140.13 147.07 144.61 147.38 148.88 146.65 C 149.59 147.08 150.30 147.52 151.00 147.97 C 148.91 150.33 145.66 148.99 142.98 149.40 C 140.11 149.30 137.87 151.67 135.02 151.48 C 125.69 151.47 116.37 151.45 107.04 151.46 C 104.25 151.29 101.74 152.89 98.96 152.79 C 94.56 152.81 90.16 152.79 85.76 152.74 C 82.67 154.61 79.33 156.19 76.77 158.80 C 75.57 160.57 75.19 162.73 74.48 164.72 C 70.20 166.02 66.03 164.65 62.05 163.13 C 60.90 162.09 59.81 160.84 60.34 159.17 C 64.04 161.97 68.49 163.58 73.16 162.54 C 74.37 156.03 80.73 152.43 86.57 150.75 C 92.65 150.05 98.92 151.48 104.87 149.59 C 115.27 148.80 125.76 149.63 136.19 149.19 Z" />
</g>
<g id="#858585fd">
<path fill="#858585" opacity="1.00" d=" M 94.50 43.92 C 101.63 41.92 109.60 39.55 116.77 42.69 C 110.54 42.06 104.11 41.74 98.06 43.66 C 94.71 44.74 91.23 45.32 87.73 45.61 C 89.39 45.10 90.92 44.27 92.46 43.49 C 92.96 43.24 93.46 42.98 93.97 42.75 L 94.50 43.92 Z" />
<path fill="#858585" opacity="1.00" d=" M 28.08 98.17 C 29.70 99.15 29.73 101.19 29.06 102.76 C 28.21 101.57 27.02 99.52 28.08 98.17 Z" />
</g>
<g id="#fefefeff">
<path fill="#fefefe" opacity="1.00" d=" M 98.06 43.66 C 104.11 41.74 110.54 42.06 116.77 42.69 C 123.05 46.18 128.61 50.80 134.20 55.29 C 134.53 55.60 135.20 56.23 135.53 56.55 L 135.76 56.97 L 135.75 57.43 C 135.74 58.15 135.72 59.59 135.71 60.32 C 140.46 63.02 140.50 68.95 142.06 73.55 C 143.02 71.82 143.44 69.90 143.62 67.96 C 144.00 72.14 147.84 74.60 149.94 77.93 C 150.03 78.42 150.21 79.40 150.30 79.89 C 150.37 80.29 150.52 81.08 150.60 81.48 C 146.03 81.33 147.04 73.86 142.44 73.15 C 144.03 80.37 150.81 84.69 153.22 91.54 C 153.97 94.19 156.04 95.96 158.09 97.64 C 157.34 97.61 155.84 97.56 155.09 97.53 C 157.36 102.16 157.48 107.59 160.20 112.02 C 162.13 117.98 163.92 124.01 164.78 130.23 C 167.62 139.69 165.67 149.64 166.58 159.32 C 166.97 163.18 166.88 167.07 166.82 170.94 C 164.65 172.92 163.72 175.69 163.21 178.50 C 160.37 183.75 159.69 189.86 156.79 195.09 C 156.59 196.78 156.22 198.44 155.65 200.05 C 124.27 199.95 92.88 200.01 61.49 200.02 C 60.59 198.86 59.86 197.45 58.50 196.77 C 53.47 194.11 48.40 191.52 43.58 188.49 C 42.10 184.26 39.34 180.79 35.90 177.99 C 35.17 170.03 32.62 162.35 29.88 154.88 C 29.18 152.31 29.84 149.50 28.69 147.03 C 27.93 145.03 26.24 143.30 26.52 141.02 C 26.53 133.36 26.60 125.69 26.51 118.02 C 26.09 114.50 28.71 111.67 28.82 108.22 C 29.71 106.44 30.62 104.67 31.59 102.94 C 31.59 99.27 31.56 95.61 31.56 91.95 C 35.02 87.33 39.62 83.72 42.96 79.01 C 45.47 75.51 48.41 72.35 50.86 68.81 C 53.37 65.13 57.14 62.56 59.69 58.91 C 61.48 55.97 64.53 54.22 67.24 52.23 C 69.96 50.49 73.34 51.05 76.37 50.37 C 78.17 49.58 79.34 47.84 81.10 46.97 C 83.25 46.24 85.49 45.88 87.73 45.61 C 91.23 45.32 94.71 44.74 98.06 43.66 M 116.52 67.36 C 116.51 67.96 116.48 69.17 116.47 69.78 C 117.90 68.82 119.44 67.99 121.22 68.14 C 116.50 70.61 113.05 74.69 108.99 78.03 C 105.92 81.02 104.33 85.10 102.72 88.98 C 102.65 91.29 102.65 93.59 102.73 95.90 C 106.26 99.13 107.55 103.95 110.79 107.39 C 114.40 110.09 118.45 112.28 122.86 113.36 C 127.67 115.27 132.94 114.25 137.97 114.49 C 140.55 114.81 142.50 112.83 144.54 111.59 C 150.89 107.83 152.56 97.94 147.61 92.56 C 147.46 87.71 143.48 84.60 141.65 80.43 C 140.94 78.75 139.11 78.16 137.64 77.36 C 137.12 76.24 136.61 75.11 136.10 73.98 C 132.98 70.95 130.16 67.60 126.11 65.76 C 122.88 65.87 119.20 65.05 116.52 67.36 M 52.48 90.65 C 50.25 92.47 47.92 94.16 45.53 95.77 C 43.23 98.82 44.28 103.07 41.55 105.86 C 41.53 107.63 41.55 109.40 41.57 111.17 C 42.08 111.60 43.08 112.46 43.59 112.89 C 43.63 113.65 43.71 115.16 43.75 115.92 C 44.86 117.58 45.16 119.53 44.24 121.36 C 45.48 125.40 49.00 128.43 52.57 130.44 C 56.54 130.98 60.65 130.78 64.66 130.58 C 69.89 126.97 74.29 122.18 77.68 116.80 C 82.01 111.91 85.15 105.52 84.43 98.83 C 82.81 97.38 81.08 96.07 79.19 94.99 C 76.99 93.69 75.77 90.86 72.98 90.62 C 70.50 90.11 68.34 88.73 65.96 87.94 C 63.27 87.63 60.52 87.64 57.83 87.91 C 56.01 88.75 54.32 89.84 52.48 90.65 M 151.90 146.90 C 153.58 144.91 153.70 142.37 153.73 139.91 C 150.91 140.62 149.84 144.85 151.90 146.90 M 136.19 149.19 C 125.76 149.63 115.27 148.80 104.87 149.59 C 98.92 151.48 92.65 150.05 86.57 150.75 C 80.73 152.43 74.37 156.03 73.16 162.54 C 68.49 163.58 64.04 161.97 60.34 159.17 C 59.81 160.84 60.90 162.09 62.05 163.13 C 66.03 164.65 70.20 166.02 74.48 164.72 C 75.19 162.73 75.57 160.57 76.77 158.80 C 79.33 156.19 82.67 154.61 85.76 152.74 C 90.16 152.79 94.56 152.81 98.96 152.79 C 101.74 152.89 104.25 151.29 107.04 151.46 C 116.37 151.45 125.69 151.47 135.02 151.48 C 137.87 151.67 140.11 149.30 142.98 149.40 C 145.66 148.99 148.91 150.33 151.00 147.97 C 150.30 147.52 149.59 147.08 148.88 146.65 C 144.61 147.38 140.13 147.07 136.19 149.19 Z" />
<path fill="#fefefe" opacity="1.00" d=" M 124.11 43.45 C 128.79 43.40 130.01 48.58 132.92 51.18 C 129.80 48.97 125.41 47.26 124.11 43.45 Z" />
<path fill="#fefefe" opacity="1.00" d=" M 123.41 68.03 C 127.15 67.65 129.79 70.39 132.01 72.97 C 134.86 75.28 135.39 79.74 139.36 80.71 C 140.72 85.67 146.51 88.51 145.73 94.08 C 149.24 95.77 148.50 99.84 148.36 103.06 C 146.94 107.53 143.17 110.54 139.04 112.42 C 129.33 113.67 118.55 111.75 111.41 104.63 C 109.27 101.72 107.59 98.48 105.33 95.65 C 103.92 94.31 104.27 92.19 104.56 90.48 C 106.03 86.37 107.63 82.00 111.02 79.06 C 114.85 75.70 118.12 71.29 123.33 70.04 C 123.35 69.54 123.39 68.53 123.41 68.03 M 123.71 88.47 C 123.53 90.09 123.22 91.69 122.66 93.23 C 124.54 95.12 126.94 97.37 129.85 96.48 C 132.04 96.11 134.97 94.49 134.41 91.83 C 132.67 87.79 127.44 87.05 123.71 88.47 Z" />
<path fill="#fefefe" opacity="1.00" d=" M 49.50 95.48 C 52.22 92.75 56.05 91.83 59.06 89.56 C 64.66 88.96 70.30 91.28 74.47 94.84 C 75.85 97.77 75.82 104.06 80.68 102.65 L 80.70 101.24 C 78.59 100.79 77.64 99.07 77.00 97.23 C 78.86 97.36 80.69 97.72 82.50 98.17 L 81.35 99.13 L 82.65 100.52 C 81.82 106.35 79.75 112.27 75.45 116.45 C 73.36 118.51 72.59 121.66 70.03 123.27 C 68.07 124.57 66.80 126.66 64.77 127.87 C 62.49 129.63 59.57 128.32 56.99 128.60 C 52.21 129.26 48.10 125.50 46.52 121.26 C 46.26 117.38 47.30 112.37 43.66 109.74 C 43.47 107.67 44.05 105.74 45.10 103.98 C 45.02 100.56 46.71 97.42 49.50 95.48 M 55.11 108.40 C 57.76 108.85 60.28 107.50 62.93 107.72 C 64.54 107.58 66.60 108.88 65.64 110.68 C 64.34 114.15 59.93 112.35 57.18 112.69 C 56.10 111.17 55.05 109.48 53.12 108.98 C 53.16 112.86 57.15 116.21 61.01 115.22 C 64.90 115.47 67.28 112.08 68.55 108.88 C 65.64 104.83 57.99 103.94 55.11 108.40 Z" />
<path fill="#fefefe" opacity="1.00" d=" M 124.91 93.11 C 125.15 92.40 125.65 90.98 125.89 90.27 C 128.05 90.60 131.26 89.26 132.28 91.94 C 131.97 95.71 127.06 94.63 124.91 93.11 Z" />
<path fill="#fefefe" opacity="1.00" d=" M 158.50 98.90 C 161.48 99.56 160.38 102.74 160.73 104.86 C 164.40 107.56 164.52 112.31 166.16 116.16 C 166.20 118.37 166.25 120.58 166.41 122.79 C 166.11 122.81 165.52 122.84 165.22 122.86 C 165.25 122.14 165.31 120.72 165.34 120.01 C 163.62 116.92 163.47 113.21 161.60 110.19 C 160.28 108.00 159.75 105.47 158.83 103.11 C 158.75 102.06 158.58 99.95 158.50 98.90 Z" />
<path fill="#fefefe" opacity="1.00" d=" M 23.70 130.81 C 25.14 125.05 24.43 119.00 24.73 113.19 C 25.47 122.87 23.85 132.51 24.17 142.19 C 23.92 143.82 25.38 144.80 26.25 145.96 C 27.18 150.03 27.29 154.31 28.86 158.22 C 30.35 161.88 30.95 165.82 32.36 169.52 C 33.15 171.64 33.81 174.00 32.55 176.12 L 32.27 175.71 C 32.34 175.07 32.48 173.79 32.56 173.15 C 30.51 169.85 28.43 166.57 26.53 163.18 C 26.52 156.70 24.73 150.36 23.72 144.00 C 23.70 139.90 23.80 135.81 23.70 131.72 C 23.70 131.49 23.70 131.04 23.70 130.81 Z" />
<path fill="#fefefe" opacity="1.00" d=" M 35.53 180.80 C 38.75 183.00 40.47 186.50 42.00 189.96 C 47.49 193.66 53.70 196.09 59.14 199.87 C 53.18 200.19 47.21 199.85 41.24 200.06 C 39.62 196.39 37.38 192.89 36.93 188.81 C 36.79 189.73 36.66 190.65 36.49 191.56 C 36.48 187.95 35.89 184.39 35.53 180.80 Z" />
</g>
</svg>
