<?xml version="1.0" encoding="UTF-8" ?>
<!DOCTYPE svg PUBLIC "-//W3C//DTD SVG 1.1//EN" "http://www.w3.org/Graphics/SVG/1.1/DTD/svg11.dtd">
<svg width="210pt" height="220pt" viewBox="0 0 210 220" version="1.1" xmlns="http://www.w3.org/2000/svg">
<g id="#f0f0f0f0">
<path fill="#f0f0f0" opacity="0.94" d=" M 140.30 5.76 C 142.73 1.96 147.96 3.18 151.42 4.73 C 151.99 13.96 152.19 23.37 150.29 32.46 C 149.69 32.33 149.09 32.19 148.50 32.03 L 149.36 31.43 C 151.47 28.44 151.11 24.51 151.52 21.03 C 151.53 15.68 152.00 10.26 151.14 4.96 C 148.71 3.48 145.68 3.16 142.93 3.72 C 139.15 5.29 140.73 9.98 140.82 13.11 C 140.36 10.69 140.30 8.22 140.30 5.76 Z" />
<path fill="#f0f0f0" opacity="0.94" d=" M 85.24 25.43 C 87.07 25.59 88.78 26.26 90.56 26.65 C 91.73 27.17 92.95 27.61 94.12 28.12 C 98.82 27.90 103.55 30.14 108.12 28.47 C 111.81 28.73 115.84 29.19 118.99 31.31 C 120.75 32.00 122.61 32.39 124.48 32.63 C 124.45 33.75 124.41 34.86 124.37 35.98 C 127.21 39.04 131.64 37.62 134.89 36.10 C 134.43 36.38 133.51 36.93 133.05 37.20 C 131.89 39.11 130.29 40.67 128.07 41.25 C 125.86 36.72 121.64 33.87 117.80 30.86 C 115.12 30.40 112.34 30.87 109.69 30.16 C 101.60 28.42 92.65 29.69 85.24 25.43 Z" />
<path fill="#f0f0f0" opacity="0.94" d=" M 152.81 146.63 C 153.69 146.65 154.56 146.67 155.44 146.70 C 155.29 149.42 156.16 152.74 154.05 154.92 C 153.11 155.96 151.54 155.61 150.31 155.88 C 149.98 152.55 150.32 149.10 152.81 146.63 M 150.56 155.62 C 155.33 156.14 155.27 150.69 155.30 147.41 C 150.69 145.99 150.15 152.51 150.56 155.62 Z" />
<path fill="#f0f0f0" opacity="0.94" d=" M 78.60 173.80 C 79.32 172.22 80.05 170.64 80.83 169.09 C 82.21 169.29 83.57 169.61 84.83 170.24 C 83.38 170.13 80.72 168.57 80.18 170.86 C 79.23 172.66 78.38 175.16 80.10 176.80 C 80.63 177.18 81.70 177.93 82.24 178.31 C 80.92 178.38 79.68 178.09 78.52 177.44 C 78.54 176.53 78.58 174.71 78.60 173.80 Z" />
<path fill="#f0f0f0" opacity="0.94" d=" M 91.91 183.93 C 92.69 182.46 93.83 181.23 95.03 180.09 C 98.22 182.74 96.91 189.35 92.79 190.61 C 90.28 189.53 91.70 186.58 91.37 184.52 C 91.31 186.04 91.60 187.47 92.22 188.82 C 92.62 189.04 93.40 189.47 93.80 189.68 C 96.69 188.38 96.34 184.28 96.36 181.58 C 94.41 179.85 93.31 183.04 91.91 183.93 Z" />
<path fill="#f0f0f0" opacity="0.94" d=" M 24.50 193.14 C 24.98 193.26 25.96 193.51 26.44 193.64 C 26.52 194.12 26.67 195.08 26.75 195.56 C 25.41 196.51 23.50 194.41 24.50 193.14 Z" />
<path fill="#f0f0f0" opacity="0.94" d=" M 98.20 197.66 C 99.31 197.88 100.41 198.11 101.51 198.34 C 101.38 199.98 101.30 201.63 101.25 203.29 C 100.30 204.83 99.33 207.91 97.00 207.19 C 94.13 205.33 96.39 201.81 96.88 199.28 L 97.71 199.54 C 96.53 201.35 95.14 204.06 97.17 205.82 C 99.28 208.18 100.56 204.19 100.82 202.45 C 101.40 200.55 99.78 199.29 98.63 198.09 L 98.20 197.66 Z" />
</g>
<g id="#000000ff">
<path fill="#000000" opacity="1.00" d=" M 140.82 13.11 C 140.73 9.98 139.15 5.29 142.93 3.72 C 145.68 3.16 148.71 3.48 151.14 4.96 C 152.00 10.26 151.53 15.68 151.52 21.03 C 151.11 24.51 151.47 28.44 149.36 31.43 L 148.50 32.03 C 147.39 32.56 146.67 33.62 146.66 34.86 C 146.59 35.20 146.45 35.89 146.38 36.23 C 143.84 38.61 140.84 40.44 138.12 42.61 C 136.49 43.62 135.13 45.09 135.39 47.14 C 140.20 46.08 145.14 46.27 150.02 46.02 C 161.43 44.92 171.18 52.06 180.68 57.27 C 180.92 57.40 181.39 57.65 181.63 57.78 L 181.77 58.55 C 181.85 60.52 183.34 62.31 185.39 62.32 L 186.48 62.49 C 193.09 70.43 194.13 81.09 194.76 90.99 C 194.82 92.99 194.91 95.04 194.37 97.00 C 192.25 103.00 194.56 109.10 195.99 114.95 C 198.26 128.17 197.11 141.65 197.46 155.00 C 197.66 163.33 194.46 171.28 190.49 178.45 C 188.34 183.43 187.09 188.78 184.58 193.61 C 182.72 197.25 179.39 199.75 176.68 202.71 L 176.58 202.72 C 171.73 203.42 167.39 205.78 163.48 208.63 L 163.34 208.70 C 157.55 210.67 152.36 214.93 145.98 214.62 C 140.94 214.57 136.07 216.53 131.01 215.94 C 120.38 214.97 109.61 213.52 98.96 215.24 C 93.32 216.20 87.51 216.62 81.86 215.44 C 77.35 214.46 72.74 214.06 68.13 213.76 C 63.03 213.52 58.89 210.08 53.98 209.08 C 48.37 207.93 43.40 204.97 37.94 203.35 C 33.81 202.20 30.97 198.80 27.37 196.70 L 26.83 196.33 L 26.75 195.56 C 26.67 195.08 26.52 194.12 26.44 193.64 C 25.96 193.51 24.98 193.26 24.50 193.14 C 23.07 192.90 21.95 191.89 21.22 190.71 C 17.30 183.02 12.61 174.94 13.36 165.99 C 13.83 159.57 11.63 153.37 11.80 146.97 C 11.86 141.04 12.43 135.08 11.52 129.18 C 10.58 123.02 10.97 116.69 12.58 110.68 C 13.61 107.11 15.93 104.15 17.92 101.08 C 20.68 96.79 23.29 92.41 25.55 87.85 C 25.77 87.35 26.13 87.02 26.62 86.87 C 30.23 86.17 33.56 83.51 34.26 79.78 C 34.64 77.61 35.76 75.70 37.34 74.19 L 37.35 74.19 C 39.91 72.93 42.55 71.60 44.48 69.42 C 46.90 66.89 48.34 63.27 51.74 61.83 C 56.01 59.44 61.12 59.75 65.50 57.64 C 69.06 56.31 72.09 53.99 75.44 52.24 C 78.13 50.82 82.01 51.20 83.51 48.06 C 81.13 47.16 78.70 46.39 76.27 45.66 C 72.69 43.27 71.23 38.61 68.49 35.32 C 67.91 27.61 67.64 19.49 71.75 12.60 C 72.39 11.50 73.13 10.46 73.80 9.39 C 74.68 9.28 76.43 9.06 77.30 8.95 C 77.32 13.44 77.37 18.50 81.11 21.67 C 82.33 22.97 83.69 24.12 85.02 25.30 L 85.24 25.43 C 92.65 29.69 101.60 28.42 109.69 30.16 C 112.34 30.87 115.12 30.40 117.80 30.86 C 121.64 33.87 125.86 36.72 128.07 41.25 C 130.29 40.67 131.89 39.11 133.05 37.20 C 133.51 36.93 134.43 36.38 134.89 36.10 C 135.07 35.99 135.43 35.78 135.61 35.67 C 138.59 34.07 141.39 31.61 142.08 28.15 C 143.61 23.13 142.13 17.98 140.82 13.11 M 143.48 6.30 C 143.39 9.91 143.33 13.56 144.51 17.03 C 145.06 23.62 145.80 32.25 139.35 36.32 C 134.69 39.48 128.20 43.22 128.65 49.72 C 130.44 49.78 131.82 49.11 132.17 47.23 C 134.58 39.74 143.96 38.03 146.60 30.68 C 148.53 24.96 149.79 18.87 149.23 12.80 C 148.40 11.00 146.00 11.86 144.46 11.28 C 144.41 10.63 144.31 9.32 144.26 8.67 C 145.80 8.70 147.35 8.73 148.89 8.76 C 148.83 8.19 148.70 7.05 148.64 6.48 C 146.92 6.41 145.20 6.34 143.48 6.30 M 70.92 33.90 C 72.61 36.91 73.90 40.22 76.08 42.91 C 81.80 47.00 89.05 48.11 95.93 47.33 C 101.08 47.45 106.29 47.89 111.42 47.12 C 114.19 47.72 117.21 46.92 119.84 48.22 C 121.97 49.21 124.23 49.90 126.61 49.75 C 126.24 46.14 126.31 42.15 124.02 39.11 C 119.79 34.67 113.80 31.68 107.53 32.54 L 108.33 31.89 C 99.87 31.48 91.18 30.42 83.42 26.82 C 81.29 24.54 78.91 22.45 77.05 19.92 C 75.75 17.78 75.22 15.29 74.39 12.95 C 70.72 19.25 69.46 26.81 70.92 33.90 M 136.70 48.73 C 134.99 49.02 133.50 49.98 132.84 51.62 C 136.57 52.76 140.32 50.60 144.06 51.72 C 147.63 53.21 148.89 57.22 150.60 60.36 C 155.24 66.03 160.65 71.00 165.49 76.49 C 169.71 80.22 172.76 85.15 177.50 88.29 C 182.11 92.24 185.73 97.28 190.92 100.58 C 191.56 100.21 192.84 99.48 193.48 99.11 C 191.84 86.89 192.60 72.44 183.13 63.12 C 181.71 65.63 176.66 64.57 177.33 61.42 C 178.87 61.50 180.43 61.58 181.98 61.67 C 179.76 59.53 177.32 57.63 174.56 56.26 C 168.43 52.60 161.90 49.49 154.96 47.75 C 148.88 47.12 142.67 47.45 136.70 48.73 M 78.03 53.66 C 79.70 56.70 81.26 59.83 83.42 62.55 C 87.45 66.89 92.80 69.87 98.35 71.79 C 98.37 69.48 98.33 67.16 98.59 64.86 C 99.08 65.02 100.05 65.36 100.54 65.53 C 100.60 68.45 100.44 71.38 100.40 74.31 C 97.61 75.53 94.55 75.55 91.56 75.56 C 91.50 76.86 91.44 78.17 91.37 79.47 L 90.41 79.62 C 90.05 80.42 89.33 81.15 89.30 82.05 C 87.93 83.21 86.57 84.37 85.20 85.53 C 81.30 85.51 76.91 85.89 73.66 83.28 C 71.47 81.35 69.70 78.85 68.75 76.07 C 68.01 70.24 71.28 65.04 74.59 60.55 C 76.01 59.00 75.14 56.87 74.51 55.18 C 69.17 59.43 62.41 61.22 55.96 63.02 C 51.09 64.22 48.58 68.87 45.22 72.13 C 47.82 73.74 52.23 76.36 50.01 79.98 C 48.61 82.79 45.57 82.73 43.03 81.56 C 43.28 79.74 44.26 78.20 45.17 76.66 C 43.02 76.45 40.30 76.79 39.38 79.06 C 38.75 81.97 41.64 83.90 44.10 84.45 C 50.02 85.37 56.07 85.33 62.02 84.77 C 66.47 85.90 71.19 85.11 75.53 86.72 C 78.17 87.59 80.93 88.22 83.33 89.67 L 84.18 89.02 C 84.43 90.54 84.79 92.07 84.66 93.62 C 83.47 93.57 82.28 93.51 81.09 93.44 C 74.11 90.03 66.17 88.88 58.49 90.10 L 58.55 89.58 C 57.47 89.62 56.39 89.66 55.31 89.70 C 48.51 89.82 40.19 89.50 36.14 83.08 C 33.46 85.42 30.86 87.83 27.96 89.91 C 24.43 94.77 21.73 100.21 18.07 105.00 C 14.92 108.40 14.97 113.31 13.75 117.54 C 12.58 122.02 14.53 126.45 14.31 130.95 C 14.28 136.98 14.21 143.01 14.30 149.04 C 14.95 155.67 16.88 162.32 15.79 169.00 C 15.30 174.69 18.40 179.91 21.52 184.40 C 23.56 189.49 28.35 192.52 32.39 195.89 L 32.33 196.38 C 35.95 196.54 39.12 198.43 42.40 199.74 C 44.33 201.43 45.41 204.05 47.86 205.16 C 49.64 206.41 51.89 206.21 53.93 206.53 C 56.95 206.81 59.70 208.17 62.35 209.56 C 65.31 211.22 68.81 211.21 72.10 211.53 C 78.11 212.00 83.97 213.78 90.02 213.70 C 94.74 213.86 99.29 212.14 104.01 212.35 C 108.98 212.44 113.95 212.29 118.92 212.41 C 123.60 212.75 128.23 213.81 132.95 213.70 C 136.00 213.76 138.90 212.57 141.94 212.45 C 144.93 212.25 148.09 212.78 150.88 211.38 C 158.51 208.08 166.15 204.64 173.30 200.40 C 176.64 196.96 180.93 194.33 183.38 190.11 C 185.88 184.41 187.53 178.31 190.67 172.90 C 192.31 170.55 191.36 167.59 191.47 164.95 C 194.64 161.85 195.47 157.34 195.26 153.07 C 195.00 145.05 195.80 136.97 194.54 129.01 C 194.63 120.92 193.25 112.89 191.39 105.04 C 191.09 102.54 188.54 101.53 186.80 100.14 C 182.09 96.95 178.90 92.04 174.21 88.84 C 169.74 85.65 167.12 80.64 162.88 77.20 C 158.97 72.59 154.08 68.89 150.68 63.85 C 149.54 62.23 148.64 60.16 146.68 59.36 C 142.94 57.73 139.26 55.81 135.20 55.14 C 132.59 54.23 129.72 54.74 127.11 53.80 C 123.01 52.86 119.16 50.86 114.99 50.32 C 107.34 50.41 99.69 50.14 92.04 50.35 C 87.33 51.20 82.65 52.35 78.03 53.66 M 75.44 63.63 C 75.42 64.28 75.37 65.59 75.35 66.24 C 75.16 66.70 74.77 67.62 74.57 68.08 C 73.04 68.61 72.22 69.79 72.09 71.63 C 72.93 71.66 74.62 71.72 75.46 71.74 L 75.66 73.47 L 76.13 73.54 L 76.06 74.04 C 75.25 73.91 73.62 73.65 72.81 73.52 C 72.70 74.44 72.47 76.28 72.35 77.20 C 73.25 78.17 74.03 79.43 75.49 79.58 C 75.02 81.99 77.61 81.43 79.17 81.76 C 79.35 81.26 79.73 80.24 79.91 79.73 L 81.83 79.31 C 81.67 80.13 81.35 81.77 81.18 82.58 C 81.67 82.55 82.65 82.47 83.14 82.44 C 84.33 81.44 86.04 80.63 85.81 78.78 C 82.93 79.81 80.40 77.36 82.42 74.68 C 82.81 74.23 83.22 73.80 83.65 73.39 C 84.41 73.38 85.95 73.35 86.71 73.34 C 85.09 73.92 84.42 74.95 84.70 76.43 C 85.34 76.53 86.63 76.72 87.27 76.81 C 88.23 74.54 88.89 72.22 86.46 70.71 C 83.79 69.19 81.83 66.80 80.10 64.31 C 79.47 64.70 78.22 65.46 77.59 65.84 C 77.55 65.22 77.46 63.97 77.42 63.34 C 76.93 63.41 75.93 63.56 75.44 63.63 Z" />
<path fill="#000000" opacity="1.00" d=" M 134.05 65.18 C 134.80 65.37 135.55 65.57 136.31 65.78 C 136.41 66.30 136.60 67.34 136.70 67.86 C 136.21 68.87 135.72 69.88 135.23 70.90 C 136.92 72.96 138.90 75.14 138.51 78.03 C 139.33 84.40 133.93 89.91 128.06 91.28 C 122.10 91.74 115.18 92.17 110.64 87.52 L 110.56 87.20 C 109.96 85.03 109.59 82.80 109.39 80.55 C 108.86 80.37 107.80 80.01 107.27 79.83 C 106.09 79.38 104.91 78.92 103.74 78.44 C 108.70 73.03 116.80 76.25 122.81 73.17 C 127.30 71.70 131.16 68.90 134.05 65.18 M 129.47 72.83 L 129.69 74.29 C 128.71 74.25 128.09 74.72 127.83 75.70 L 127.75 75.59 C 123.43 76.32 119.17 77.36 114.93 78.42 L 114.93 78.65 L 113.91 78.77 C 111.11 79.52 112.03 83.24 113.13 85.10 C 114.18 87.94 117.60 87.65 119.98 88.61 C 121.45 89.46 122.11 87.27 123.13 86.67 C 123.69 87.27 124.79 88.47 125.35 89.07 L 125.21 88.23 C 127.39 88.71 129.49 88.10 131.23 86.76 L 131.32 86.80 C 131.47 84.99 132.53 83.41 134.40 83.08 C 134.41 82.77 134.45 82.17 134.47 81.87 C 135.80 80.05 136.20 78.02 134.67 76.22 C 134.62 75.53 134.52 74.14 134.47 73.44 C 132.83 73.06 131.15 72.85 129.47 72.83 Z" />
<path fill="#000000" opacity="1.00" d=" M 32.34 97.36 C 31.61 93.28 34.14 89.68 37.85 88.18 C 39.17 91.03 41.64 93.06 44.06 94.96 C 46.59 97.10 50.12 96.54 53.18 96.72 C 54.36 96.72 55.54 96.71 56.72 96.69 C 66.73 95.81 76.67 98.50 85.77 102.51 C 92.36 105.15 99.03 107.92 104.68 112.31 C 108.33 115.07 112.85 116.19 116.88 118.26 C 121.49 120.91 126.87 118.99 131.85 119.41 C 131.67 120.03 131.33 121.28 131.16 121.90 C 128.33 122.63 125.17 122.82 122.91 124.90 C 116.14 130.19 115.32 139.52 109.84 145.78 C 106.65 149.57 103.62 153.90 99.02 156.10 C 93.65 158.19 87.98 159.35 82.29 160.16 C 77.27 160.61 72.17 160.78 67.16 160.11 C 58.01 158.05 48.43 155.92 40.84 150.07 C 35.63 145.42 30.68 139.88 28.80 133.00 C 28.11 126.43 27.22 119.38 30.33 113.25 C 31.99 110.87 33.76 108.55 35.11 105.97 C 37.37 102.10 37.98 97.60 38.70 93.25 C 38.03 92.59 37.35 91.93 36.66 91.28 C 35.83 93.31 35.05 95.37 34.30 97.44 C 33.81 97.42 32.83 97.38 32.34 97.36 M 40.68 96.11 C 41.20 102.61 36.87 107.62 34.23 113.07 C 35.42 113.90 36.19 116.33 38.04 115.42 C 39.83 114.49 41.75 113.34 42.30 111.24 C 43.67 107.05 45.75 103.09 46.70 98.76 C 46.02 98.64 44.68 98.40 44.01 98.28 C 42.90 97.55 41.79 96.83 40.68 96.11 M 48.84 99.44 C 48.00 102.27 46.97 105.04 45.82 107.77 C 45.15 109.89 44.40 111.99 43.55 114.05 C 44.28 115.18 45.01 116.32 45.74 117.46 C 46.03 117.75 46.60 118.33 46.89 118.62 C 47.88 117.91 48.87 117.20 49.86 116.50 C 50.96 116.38 52.05 116.28 53.15 116.17 C 55.44 112.27 56.84 107.94 58.76 103.86 C 59.49 102.40 60.18 100.91 60.87 99.42 C 56.86 99.25 52.85 99.25 48.84 99.44 M 62.93 99.43 C 61.93 102.74 60.50 105.89 59.18 109.08 C 58.36 111.09 57.49 113.08 56.43 114.98 C 56.47 117.02 57.04 118.98 57.58 120.92 C 59.02 119.83 60.52 118.83 62.11 117.98 C 65.01 112.24 67.50 106.29 70.70 100.70 C 68.25 99.65 65.61 99.02 62.93 99.43 M 68.20 111.11 C 67.27 113.07 66.23 114.99 65.41 117.00 C 65.59 119.62 66.42 122.16 66.53 124.80 C 70.16 124.32 74.40 123.27 75.21 119.10 C 75.81 117.74 76.48 116.41 77.17 115.10 C 78.90 111.60 80.45 107.98 82.70 104.77 C 80.04 102.17 76.21 101.65 72.70 101.08 C 71.27 104.45 69.57 107.71 68.20 111.11 M 84.02 105.54 C 83.46 107.37 82.79 109.16 82.12 110.96 C 81.09 112.96 80.12 114.98 79.19 117.03 C 78.69 117.95 78.19 118.87 77.68 119.78 C 76.87 121.46 76.12 123.17 75.56 124.95 C 76.51 126.35 76.50 128.03 76.59 129.64 C 78.83 129.48 81.08 129.37 83.32 129.30 C 86.31 127.15 87.44 123.41 89.57 120.53 C 91.45 116.81 94.48 113.75 95.98 109.85 C 91.97 108.51 88.46 105.02 84.02 105.54 M 86.69 130.00 C 85.82 132.47 87.78 135.01 87.74 137.57 C 89.14 137.42 90.53 137.18 91.91 136.86 C 93.01 136.76 94.12 136.66 95.23 136.58 C 99.12 130.99 102.99 125.38 107.31 120.10 C 108.21 119.20 107.69 118.01 107.49 116.95 C 103.88 115.77 101.47 112.52 97.94 111.17 C 94.66 117.71 90.55 123.80 86.69 130.00 M 30.63 119.68 C 30.58 121.91 30.43 124.15 30.58 126.38 C 30.28 127.90 29.37 129.85 30.88 131.05 C 32.56 132.69 31.70 135.27 31.94 137.36 L 33.19 136.89 C 34.69 139.98 36.97 142.63 39.22 145.21 C 41.05 139.95 41.52 134.34 42.92 128.95 C 43.36 127.25 43.75 125.53 44.37 123.88 C 43.14 122.39 41.89 120.92 40.74 119.36 C 37.92 118.59 35.27 120.23 32.65 121.00 C 32.67 120.66 32.70 119.97 32.71 119.62 C 32.19 119.64 31.15 119.67 30.63 119.68 M 96.46 138.86 C 96.94 140.09 97.41 141.33 97.87 142.57 C 98.84 141.97 99.81 141.38 100.79 140.80 C 104.19 140.24 105.42 136.68 107.22 134.22 C 109.98 129.63 113.63 125.61 116.03 120.81 C 114.33 119.95 112.61 119.13 110.87 118.35 C 106.60 125.55 101.27 132.03 96.46 138.86 M 46.80 122.97 C 46.18 125.64 45.56 128.31 45.10 131.02 C 44.07 136.45 42.26 141.74 41.34 147.17 C 43.22 149.01 45.50 150.76 48.25 150.89 C 49.45 145.90 50.63 140.91 51.88 135.93 C 52.96 131.22 56.12 126.28 53.10 121.64 C 51.68 121.62 50.25 121.59 48.83 121.58 C 48.32 121.93 47.31 122.62 46.80 122.97 M 118.03 121.80 C 114.04 127.29 110.60 133.15 106.69 138.70 C 105.80 139.79 106.33 141.21 106.62 142.41 C 108.83 142.76 110.22 140.75 111.32 139.20 C 111.49 138.66 111.83 137.57 112.00 137.03 C 114.43 132.13 116.45 126.84 120.78 123.24 C 120.58 121.69 119.43 121.36 118.03 121.80 M 56.70 127.86 C 55.72 131.52 54.89 135.22 53.83 138.86 C 53.28 140.97 52.68 143.07 52.18 145.19 C 51.36 147.51 50.56 149.84 50.10 152.26 C 51.69 152.97 53.28 153.90 55.10 153.65 C 56.27 148.60 58.41 143.83 60.23 138.98 C 61.24 136.46 62.38 133.99 63.34 131.45 C 64.21 129.32 62.74 127.26 62.15 125.27 C 60.07 125.44 58.47 126.90 56.70 127.86 M 66.04 130.99 C 64.65 134.34 63.47 137.77 62.17 141.15 C 61.49 142.78 60.85 144.43 60.26 146.10 C 59.21 149.10 56.86 151.88 57.33 155.22 C 59.27 155.51 61.13 156.41 63.11 156.27 C 63.80 154.84 64.34 153.34 64.86 151.85 C 65.96 149.24 67.11 146.66 68.20 144.05 C 69.92 139.29 74.49 134.51 71.61 129.25 C 69.73 129.75 67.83 130.24 66.04 130.99 M 74.80 135.69 C 74.27 136.81 73.73 137.93 73.21 139.06 C 70.91 145.30 67.45 151.05 65.17 157.26 C 68.42 157.33 71.68 157.74 74.93 157.50 C 77.07 151.83 81.69 147.60 84.29 142.20 C 81.76 140.70 82.28 137.66 81.76 135.18 C 79.44 135.36 77.13 135.59 74.80 135.69 M 85.03 145.79 C 82.40 149.82 79.34 153.56 76.92 157.73 C 80.05 157.56 83.19 157.28 86.34 157.37 C 90.09 154.71 91.91 150.22 94.97 146.88 C 94.51 145.67 94.01 144.47 93.34 143.36 C 90.46 143.07 86.66 142.82 85.03 145.79 M 96.60 147.76 C 95.69 149.11 94.67 150.38 93.76 151.73 C 92.75 152.94 91.83 154.23 91.00 155.57 C 94.10 155.42 97.33 154.72 99.85 152.82 C 101.95 150.70 103.24 147.94 104.79 145.41 C 101.91 145.22 98.69 145.52 96.60 147.76 Z" />
<path fill="#000000" opacity="1.00" d=" M 90.51 92.54 C 95.61 91.64 100.48 93.20 105.24 94.84 C 105.53 95.20 105.85 95.54 106.18 95.87 C 117.58 98.56 123.21 111.24 134.96 113.20 C 137.93 113.49 143.57 114.30 143.73 110.03 C 144.19 107.19 141.43 105.48 139.01 105.09 C 138.44 106.63 137.93 108.19 137.21 109.67 C 133.84 110.37 132.28 105.72 134.30 103.46 C 135.79 100.77 139.27 99.71 142.06 100.97 C 147.63 102.76 150.56 110.79 146.27 115.23 C 143.80 118.44 139.39 117.55 135.87 117.85 L 135.34 117.94 C 134.89 118.19 133.98 118.69 133.52 118.94 L 133.61 117.59 C 129.96 116.30 126.31 114.89 123.00 112.85 C 119.59 110.72 116.93 107.66 113.82 105.16 C 109.79 101.81 104.79 100.04 100.06 97.98 C 97.04 96.59 93.70 96.43 90.44 96.37 C 90.46 95.09 90.48 93.81 90.51 92.54 Z" />
</g>
<g id="#29292a6b">
<path fill="#29292a" opacity="0.42" d=" M 140.59 16.65 C 139.91 13.19 138.18 8.94 140.30 5.76 C 140.30 8.22 140.36 10.69 140.82 13.11 C 142.13 17.98 143.61 23.13 142.08 28.15 C 141.39 31.61 138.59 34.07 135.61 35.67 C 136.87 33.21 138.88 31.31 141.10 29.72 C 141.57 25.37 142.12 20.86 140.59 16.65 Z" />
</g>
<g id="#43e800fe">
<path fill="#43e800" opacity="1.00" d=" M 143.48 6.30 C 145.20 6.34 146.92 6.41 148.64 6.48 C 148.70 7.05 148.83 8.19 148.89 8.76 C 147.35 8.73 145.80 8.70 144.26 8.67 C 144.31 9.32 144.41 10.63 144.46 11.28 C 146.00 11.86 148.40 11.00 149.23 12.80 C 149.79 18.87 148.53 24.96 146.60 30.68 C 143.96 38.03 134.58 39.74 132.17 47.23 C 131.82 49.11 130.44 49.78 128.65 49.72 C 128.20 43.22 134.69 39.48 139.35 36.32 C 145.80 32.25 145.06 23.62 144.51 17.03 C 143.33 13.56 143.39 9.91 143.48 6.30 Z" />
</g>
<g id="#1817187f">
<path fill="#181718" opacity="0.50" d=" M 73.80 9.39 C 74.44 7.84 76.50 6.67 77.72 8.38 C 78.87 9.59 78.18 11.52 78.45 13.02 C 78.23 16.17 80.10 18.83 81.11 21.67 C 77.37 18.50 77.32 13.44 77.30 8.95 C 76.43 9.06 74.68 9.28 73.80 9.39 Z" />
</g>
<g id="#1b1b1b28">
<path fill="#1b1b1b" opacity="0.16" d=" M 154.78 15.41 C 155.33 13.75 154.57 10.79 156.79 10.22 C 157.72 11.61 157.68 13.34 157.95 14.93 C 157.16 15.05 155.57 15.29 154.78 15.41 Z" />
</g>
<g id="#15141637">
<path fill="#151416" opacity="0.22" d=" M 67.32 33.91 C 67.03 26.81 65.86 17.82 71.75 12.60 C 67.64 19.49 67.91 27.61 68.49 35.32 C 68.20 34.97 67.62 34.26 67.32 33.91 Z" />
</g>
<g id="#3fdb00ff">
<path fill="#3fdb00" opacity="1.00" d=" M 70.92 33.90 C 69.46 26.81 70.72 19.25 74.39 12.95 C 75.22 15.29 75.75 17.78 77.05 19.92 C 78.91 22.45 81.29 24.54 83.42 26.82 C 82.12 27.97 80.81 29.13 79.51 30.28 C 79.09 30.32 78.24 30.41 77.82 30.45 C 77.59 29.94 77.12 28.91 76.89 28.40 C 75.96 28.77 75.03 29.14 74.11 29.53 C 76.62 34.82 79.69 40.27 85.11 43.07 C 88.68 45.23 92.96 45.25 96.98 45.68 C 96.72 46.09 96.19 46.91 95.93 47.33 C 89.05 48.11 81.80 47.00 76.08 42.91 C 73.90 40.22 72.61 36.91 70.92 33.90 Z" />
</g>
<g id="#2a9600ff">
<path fill="#2a9600" opacity="1.00" d=" M 83.42 26.82 C 91.18 30.42 99.87 31.48 108.33 31.89 L 107.53 32.54 C 107.24 32.78 106.66 33.26 106.37 33.51 C 109.50 35.61 113.75 38.57 112.24 42.98 C 111.22 46.11 107.49 45.37 104.94 45.52 C 107.12 45.98 109.27 46.56 111.42 47.12 C 106.29 47.89 101.08 47.45 95.93 47.33 C 96.19 46.91 96.72 46.09 96.98 45.68 C 92.96 45.25 88.68 45.23 85.11 43.07 C 87.64 43.39 90.20 43.55 92.75 43.70 C 92.65 42.70 92.55 41.70 92.45 40.70 C 85.53 41.72 80.07 36.52 77.82 30.45 C 78.24 30.41 79.09 30.32 79.51 30.28 C 80.81 29.13 82.12 27.97 83.42 26.82 Z" />
</g>
<g id="#000005ff">
<path fill="#000005" opacity="1.00" d=" M 74.11 29.53 C 75.03 29.14 75.96 28.77 76.89 28.40 C 77.12 28.91 77.59 29.94 77.82 30.45 C 80.07 36.52 85.53 41.72 92.45 40.70 C 92.55 41.70 92.65 42.70 92.75 43.70 C 90.20 43.55 87.64 43.39 85.11 43.07 C 79.69 40.27 76.62 34.82 74.11 29.53 Z" />
</g>
<g id="#132a2aff">
<path fill="#132a2a" opacity="1.00" d=" M 146.66 34.86 C 146.67 33.62 147.39 32.56 148.50 32.03 C 149.09 32.19 149.69 32.33 150.29 32.46 C 150.42 33.89 148.01 35.52 146.66 34.86 Z" />
<path fill="#132a2a" opacity="1.00" d=" M 105.77 56.11 C 108.27 56.46 110.71 57.15 113.15 57.77 C 114.57 59.25 115.64 61.03 117.06 62.52 C 119.01 62.69 120.97 62.57 122.93 62.60 C 122.28 64.03 121.14 64.81 119.51 64.93 C 116.05 64.63 112.58 64.64 109.12 64.68 C 109.41 63.35 109.71 62.02 110.00 60.69 C 111.06 60.98 112.12 61.25 113.19 61.50 C 110.81 59.57 107.42 59.23 105.30 57.09 L 105.77 56.11 Z" />
<path fill="#132a2a" opacity="1.00" d=" M 181.77 58.55 C 183.49 58.60 185.40 60.61 185.39 62.32 C 183.34 62.31 181.85 60.52 181.77 58.55 Z" />
<path fill="#132a2a" opacity="1.00" d=" M 32.65 121.00 C 35.27 120.23 37.92 118.59 40.74 119.36 C 38.82 120.20 36.20 120.22 34.91 122.03 C 33.84 126.61 33.47 131.31 32.82 135.96 L 33.19 136.89 L 31.94 137.36 C 31.70 135.27 32.56 132.69 30.88 131.05 C 29.37 129.85 30.28 127.90 30.58 126.38 C 30.75 127.71 30.96 129.03 31.17 130.36 C 31.57 127.22 32.50 124.17 32.65 121.00 Z" />
</g>
<g id="#2fdc00ff">
<path fill="#2fdc00" opacity="1.00" d=" M 106.37 33.51 C 106.66 33.26 107.24 32.78 107.53 32.54 C 113.80 31.68 119.79 34.67 124.02 39.11 C 126.31 42.15 126.24 46.14 126.61 49.75 C 124.23 49.90 121.97 49.21 119.84 48.22 C 117.21 46.92 114.19 47.72 111.42 47.12 C 109.27 46.56 107.12 45.98 104.94 45.52 C 107.49 45.37 111.22 46.11 112.24 42.98 C 113.75 38.57 109.50 35.61 106.37 33.51 M 113.28 35.24 C 113.30 35.81 113.33 36.95 113.34 37.52 C 114.28 37.98 115.23 38.44 116.17 38.90 C 117.12 41.11 117.86 43.41 118.49 45.74 C 118.98 45.61 119.96 45.36 120.45 45.23 C 120.95 40.88 118.24 35.17 113.28 35.24 Z" />
</g>
<g id="#04000aff">
<path fill="#04000a" opacity="1.00" d=" M 113.28 35.24 C 118.24 35.17 120.95 40.88 120.45 45.23 C 119.96 45.36 118.98 45.61 118.49 45.74 C 117.86 43.41 117.12 41.11 116.17 38.90 C 115.23 38.44 114.28 37.98 113.34 37.52 C 113.33 36.95 113.30 35.81 113.28 35.24 Z" />
<path fill="#04000a" opacity="1.00" d=" M 168.26 57.82 C 168.89 57.62 170.14 57.22 170.77 57.02 C 174.29 61.78 178.63 65.96 181.52 71.17 C 183.76 75.49 186.23 79.72 187.83 84.34 C 187.18 84.47 185.86 84.73 185.20 84.86 C 184.23 83.12 183.33 81.34 182.48 79.53 C 181.09 76.50 179.63 73.50 177.90 70.65 C 175.05 66.12 171.34 62.20 168.26 57.82 Z" />
</g>
<g id="#1d191e74">
<path fill="#1d191e" opacity="0.45" d=" M 135.39 47.14 C 135.13 45.09 136.49 43.62 138.12 42.61 C 137.59 43.73 137.06 44.84 136.53 45.95 C 143.23 44.38 150.20 45.04 157.02 45.17 C 164.14 46.89 170.82 50.22 177.02 54.08 C 178.40 54.94 179.86 55.81 180.68 57.27 C 171.18 52.06 161.43 44.92 150.02 46.02 C 145.14 46.27 140.20 46.08 135.39 47.14 Z" />
</g>
<g id="#1c1d1d7b">
<path fill="#1c1d1d" opacity="0.48" d=" M 76.27 45.66 C 78.70 46.39 81.13 47.16 83.51 48.06 C 82.01 51.20 78.13 50.82 75.44 52.24 C 72.09 53.99 69.06 56.31 65.50 57.64 C 61.12 59.75 56.01 59.44 51.74 61.83 C 48.34 63.27 46.90 66.89 44.48 69.42 C 42.55 71.60 39.91 72.93 37.35 74.19 C 38.86 72.03 41.39 71.00 43.28 69.24 C 46.21 66.64 47.52 62.29 51.50 60.92 C 56.28 58.11 62.10 58.65 66.91 55.92 C 70.62 54.66 73.32 51.42 77.17 50.51 C 78.79 50.03 80.64 49.85 81.77 48.41 C 79.84 47.71 77.73 47.21 76.27 45.66 Z" />
</g>
<g id="#35d800ff">
<path fill="#35d800" opacity="1.00" d=" M 136.70 48.73 C 142.67 47.45 148.88 47.12 154.96 47.75 C 161.90 49.49 168.43 52.60 174.56 56.26 C 177.32 57.63 179.76 59.53 181.98 61.67 C 180.43 61.58 178.87 61.50 177.33 61.42 C 176.66 64.57 181.71 65.63 183.13 63.12 C 192.60 72.44 191.84 86.89 193.48 99.11 C 192.84 99.48 191.56 100.21 190.92 100.58 C 185.73 97.28 182.11 92.24 177.50 88.29 C 177.48 87.82 177.43 86.89 177.41 86.43 C 180.24 87.23 183.62 88.13 185.20 84.86 C 185.86 84.73 187.18 84.47 187.83 84.34 C 186.23 79.72 183.76 75.49 181.52 71.17 C 178.63 65.96 174.29 61.78 170.77 57.02 C 168.06 55.14 165.10 53.67 162.15 52.23 C 157.03 50.87 151.89 55.26 152.42 60.55 C 151.96 60.50 151.06 60.41 150.60 60.36 C 148.89 57.22 147.63 53.21 144.06 51.72 C 140.32 50.60 136.57 52.76 132.84 51.62 C 133.50 49.98 134.99 49.02 136.70 48.73 M 183.69 71.76 C 181.95 75.11 186.31 74.66 188.32 74.89 C 190.46 72.08 185.61 71.03 183.69 71.76 Z" />
</g>
<g id="#fe0000ff">
<path fill="#fe0000" opacity="1.00" d=" M 78.03 53.66 C 82.65 52.35 87.33 51.20 92.04 50.35 C 99.69 50.14 107.34 50.41 114.99 50.32 C 119.16 50.86 123.01 52.86 127.11 53.80 C 129.72 54.74 132.59 54.23 135.20 55.14 C 132.82 55.05 130.43 55.01 128.05 55.11 C 127.83 55.28 127.38 55.63 127.15 55.80 C 126.76 56.14 125.97 56.81 125.57 57.14 C 122.67 57.03 119.47 56.65 117.23 58.91 C 118.77 59.55 120.32 60.17 121.88 60.78 C 120.37 61.12 118.86 61.47 117.35 61.82 C 116.73 60.67 116.11 59.51 115.50 58.36 C 114.91 58.21 113.74 57.91 113.15 57.77 C 110.71 57.15 108.27 56.46 105.77 56.11 L 105.30 57.09 C 107.42 59.23 110.81 59.57 113.19 61.50 C 112.12 61.25 111.06 60.98 110.00 60.69 C 106.19 59.83 104.00 55.73 100.03 55.48 C 102.00 58.58 104.92 60.86 107.96 62.85 C 102.66 61.94 98.33 58.78 94.00 55.82 C 94.40 57.02 94.23 58.63 95.45 59.40 C 99.14 62.38 103.58 64.47 108.26 65.28 C 112.22 65.71 116.21 65.41 120.18 65.42 C 120.54 65.69 121.25 66.24 121.61 66.52 C 121.11 67.00 120.11 67.96 119.60 68.44 C 121.46 68.92 123.40 70.19 125.36 69.42 C 128.00 68.45 129.98 66.36 132.24 64.76 C 132.69 64.86 133.59 65.07 134.05 65.18 C 131.16 68.90 127.30 71.70 122.81 73.17 C 118.11 73.65 113.41 74.06 108.73 74.70 C 109.89 73.51 111.08 72.33 112.28 71.16 C 112.33 70.59 112.43 69.46 112.48 68.89 C 110.56 69.73 108.86 70.96 107.26 72.31 C 107.37 73.05 107.57 74.53 107.67 75.27 C 106.17 75.71 104.66 76.14 103.17 76.62 L 102.40 76.91 C 102.09 77.88 101.80 78.85 101.53 79.83 C 101.25 78.87 100.98 77.91 100.70 76.94 C 97.24 76.43 94.57 78.83 91.37 79.47 C 91.44 78.17 91.50 76.86 91.56 75.56 C 94.55 75.55 97.61 75.53 100.40 74.31 C 100.44 71.38 100.60 68.45 100.54 65.53 C 100.05 65.36 99.08 65.02 98.59 64.86 C 98.33 67.16 98.37 69.48 98.35 71.79 C 92.80 69.87 87.45 66.89 83.42 62.55 C 81.26 59.83 79.70 56.70 78.03 53.66 M 87.69 60.72 C 91.46 60.87 91.70 56.14 91.59 53.42 C 88.07 52.76 84.90 58.37 87.69 60.72 M 103.80 66.63 C 103.62 68.94 103.16 71.21 102.43 73.41 C 102.96 73.44 104.02 73.49 104.56 73.52 C 105.75 71.41 106.68 69.14 106.44 66.67 C 105.56 66.66 104.68 66.64 103.80 66.63 Z" />
<path fill="#fe0000" opacity="1.00" d=" M 55.96 63.02 C 62.41 61.22 69.17 59.43 74.51 55.18 C 75.14 56.87 76.01 59.00 74.59 60.55 C 71.28 65.04 68.01 70.24 68.75 76.07 C 69.70 78.85 71.47 81.35 73.66 83.28 C 76.91 85.89 81.30 85.51 85.20 85.53 C 86.57 84.37 87.93 83.21 89.30 82.05 C 89.36 82.58 89.47 83.64 89.52 84.16 C 87.89 85.93 86.07 87.53 84.18 89.02 L 83.33 89.67 C 80.93 88.22 78.17 87.59 75.53 86.72 C 71.19 85.11 66.47 85.90 62.02 84.77 C 56.07 85.33 50.02 85.37 44.10 84.45 C 41.64 83.90 38.75 81.97 39.38 79.06 C 40.30 76.79 43.02 76.45 45.17 76.66 C 44.26 78.20 43.28 79.74 43.03 81.56 C 45.57 82.73 48.61 82.79 50.01 79.98 C 52.23 76.36 47.82 73.74 45.22 72.13 C 48.58 68.87 51.09 64.22 55.96 63.02 M 52.23 72.63 C 53.58 72.62 54.93 72.59 56.29 72.56 C 56.92 70.54 57.44 68.49 57.66 66.39 C 53.74 65.21 52.36 69.63 52.23 72.63 M 62.73 68.57 C 62.17 71.20 60.96 74.11 62.64 76.61 C 63.82 78.77 65.98 82.30 68.84 80.31 C 65.45 77.68 66.42 73.48 66.28 69.76 C 66.11 67.69 64.09 68.54 62.73 68.57 M 56.42 83.73 C 57.85 83.49 59.67 83.61 60.17 81.87 C 60.78 80.10 62.30 77.78 60.23 76.39 C 56.42 76.27 56.15 80.95 56.42 83.73 Z" />
<path fill="#fe0000" opacity="1.00" d=" M 27.96 89.91 C 30.86 87.83 33.46 85.42 36.14 83.08 C 40.19 89.50 48.51 89.82 55.31 89.70 C 53.88 91.78 53.23 94.21 53.18 96.72 C 50.12 96.54 46.59 97.10 44.06 94.96 C 41.64 93.06 39.17 91.03 37.85 88.18 C 34.14 89.68 31.61 93.28 32.34 97.36 C 32.83 97.38 33.81 97.42 34.30 97.44 C 35.05 95.37 35.83 93.31 36.66 91.28 C 37.35 91.93 38.03 92.59 38.70 93.25 C 37.98 97.60 37.37 102.10 35.11 105.97 C 34.68 104.00 34.52 101.99 34.51 99.98 C 31.72 99.38 28.84 99.30 26.04 99.89 C 25.79 100.27 25.28 101.03 25.03 101.41 C 23.92 103.43 23.46 105.69 23.54 107.98 C 23.23 106.89 22.91 105.80 22.58 104.72 C 19.68 107.55 19.40 111.54 18.97 115.32 C 18.05 117.52 17.44 119.83 17.48 122.23 C 18.67 122.26 19.86 122.28 21.04 122.34 C 22.25 122.42 23.46 122.54 24.68 122.66 C 25.77 118.52 27.06 114.35 29.60 110.83 C 29.78 111.43 30.15 112.64 30.33 113.25 C 27.22 119.38 28.11 126.43 28.80 133.00 C 30.68 139.88 35.63 145.42 40.84 150.07 C 48.43 155.92 58.01 158.05 67.16 160.11 C 72.17 160.78 77.27 160.61 82.29 160.16 C 82.12 160.53 81.79 161.27 81.62 161.64 C 76.37 161.19 71.06 161.93 65.84 161.02 C 61.77 160.33 57.53 160.99 53.58 159.60 C 48.87 158.34 44.87 155.46 40.55 153.33 C 36.70 151.36 32.89 148.83 30.95 144.80 C 27.94 138.87 24.72 132.54 25.36 125.68 C 24.37 125.49 23.38 125.29 22.39 125.10 C 21.87 127.45 21.42 129.91 22.22 132.26 C 21.71 134.52 21.29 136.80 20.71 139.05 C 20.11 141.98 16.95 143.79 16.98 146.92 C 16.57 152.44 17.37 158.04 19.52 163.15 C 19.75 162.41 20.22 160.94 20.45 160.20 C 20.91 160.85 21.37 161.50 21.83 162.15 C 21.65 163.83 21.57 165.52 21.46 167.21 C 23.21 169.25 25.02 171.25 27.10 172.95 C 26.73 172.84 25.99 172.61 25.62 172.50 C 21.63 172.22 20.07 176.30 20.35 179.60 C 21.61 179.59 22.88 179.58 24.15 179.58 C 27.33 185.45 30.63 191.46 36.29 195.32 C 34.99 195.53 33.69 195.73 32.39 195.89 C 28.35 192.52 23.56 189.49 21.52 184.40 C 18.40 179.91 15.30 174.69 15.79 169.00 C 16.88 162.32 14.95 155.67 14.30 149.04 C 14.21 143.01 14.28 136.98 14.31 130.95 C 14.53 126.45 12.58 122.02 13.75 117.54 C 14.97 113.31 14.92 108.40 18.07 105.00 C 21.73 100.21 24.43 94.77 27.96 89.91 M 17.58 133.32 C 16.49 135.28 16.25 137.49 16.26 139.70 C 17.30 139.65 18.35 139.59 19.39 139.54 C 20.31 137.60 20.74 135.50 21.00 133.39 C 19.86 133.36 18.72 133.34 17.58 133.32 Z" />
</g>
<g id="#2ac400ff">
<path fill="#2ac400" opacity="1.00" d=" M 152.42 60.55 C 151.89 55.26 157.03 50.87 162.15 52.23 C 159.36 54.93 153.48 57.17 154.82 61.89 C 158.03 67.45 164.37 69.95 169.25 73.78 C 170.01 73.33 170.78 72.88 171.55 72.43 C 171.34 74.22 170.89 76.10 171.76 77.80 C 172.16 78.26 172.95 79.18 173.35 79.64 C 175.22 81.85 177.52 83.67 180.13 84.95 C 180.92 83.14 181.70 81.33 182.48 79.53 C 183.33 81.34 184.23 83.12 185.20 84.86 C 183.62 88.13 180.24 87.23 177.41 86.43 C 177.43 86.89 177.48 87.82 177.50 88.29 C 172.76 85.15 169.71 80.22 165.49 76.49 C 160.65 71.00 155.24 66.03 150.60 60.36 C 151.06 60.41 151.96 60.50 152.42 60.55 Z" />
</g>
<g id="#2a9400ff">
<path fill="#2a9400" opacity="1.00" d=" M 154.82 61.89 C 153.48 57.17 159.36 54.93 162.15 52.23 C 165.10 53.67 168.06 55.14 170.77 57.02 C 170.14 57.22 168.89 57.62 168.26 57.82 C 171.34 62.20 175.05 66.12 177.90 70.65 C 177.43 71.44 176.98 72.23 176.54 73.03 C 176.12 72.31 175.29 70.85 174.87 70.12 C 173.21 72.38 172.23 75.04 171.76 77.80 C 170.89 76.10 171.34 74.22 171.55 72.43 C 170.78 72.88 170.01 73.33 169.25 73.78 C 164.37 69.95 158.03 67.45 154.82 61.89 M 166.40 61.40 C 165.80 63.18 165.44 65.03 165.23 66.89 C 166.26 66.83 167.24 66.59 168.16 66.17 C 168.61 64.63 168.63 63.01 168.79 61.42 C 168.19 61.42 167.00 61.41 166.40 61.40 Z" />
</g>
<g id="#e6eb00ff">
<path fill="#e6eb00" opacity="1.00" d=" M 87.69 60.72 C 84.90 58.37 88.07 52.76 91.59 53.42 C 91.70 56.14 91.46 60.87 87.69 60.72 Z" />
<path fill="#e6eb00" opacity="1.00" d=" M 17.58 133.32 C 18.72 133.34 19.86 133.36 21.00 133.39 C 20.74 135.50 20.31 137.60 19.39 139.54 C 18.35 139.59 17.30 139.65 16.26 139.70 C 16.25 137.49 16.49 135.28 17.58 133.32 Z" />
</g>
<g id="#ff0000ff">
<path fill="#ff0000" opacity="1.00" d=" M 127.15 55.80 C 127.38 55.63 127.83 55.28 128.05 55.11 C 130.43 55.01 132.82 55.05 135.20 55.14 C 139.26 55.81 142.94 57.73 146.68 59.36 C 148.64 60.16 149.54 62.23 150.68 63.85 C 150.17 63.79 149.15 63.68 148.64 63.62 L 147.04 63.73 C 146.29 64.03 145.54 64.34 144.81 64.66 C 140.92 60.93 135.63 59.49 130.54 58.26 C 130.19 57.39 129.84 56.52 129.48 55.66 C 128.90 55.70 127.74 55.77 127.15 55.80 Z" />
</g>
<g id="#000f0fff">
<path fill="#000f0f" opacity="1.00" d=" M 94.00 55.82 C 98.33 58.78 102.66 61.94 107.96 62.85 C 104.92 60.86 102.00 58.58 100.03 55.48 C 104.00 55.73 106.19 59.83 110.00 60.69 C 109.71 62.02 109.41 63.35 109.12 64.68 C 112.58 64.64 116.05 64.63 119.51 64.93 L 120.18 65.42 C 116.21 65.41 112.22 65.71 108.26 65.28 C 103.58 64.47 99.14 62.38 95.45 59.40 C 94.23 58.63 94.40 57.02 94.00 55.82 Z" />
<path fill="#000f0f" opacity="1.00" d=" M 149.01 137.98 C 153.59 133.14 160.01 130.10 166.61 129.36 C 166.64 130.36 166.66 131.35 166.68 132.35 C 159.52 133.51 152.32 137.07 148.50 143.47 C 144.46 151.27 144.10 160.38 145.81 168.86 C 144.78 168.69 143.75 168.52 142.72 168.35 C 142.45 164.23 140.94 160.12 141.95 155.99 C 142.93 149.62 144.30 142.74 149.01 137.98 Z" />
</g>
<g id="#e8e800ff">
<path fill="#e8e800" opacity="1.00" d=" M 125.57 57.14 C 125.97 56.81 126.76 56.14 127.15 55.80 C 127.74 55.77 128.90 55.70 129.48 55.66 C 129.33 57.61 129.67 59.79 128.45 61.48 C 127.67 63.01 125.71 62.42 124.34 62.74 C 124.63 60.85 124.98 58.97 125.57 57.14 Z" />
<path fill="#e8e800" opacity="1.00" d=" M 25.03 101.41 C 26.27 101.40 27.52 101.38 28.76 101.38 C 28.52 104.48 27.58 108.49 23.54 107.98 C 23.46 105.69 23.92 103.43 25.03 101.41 Z" />
<path fill="#e8e800" opacity="1.00" d=" M 108.38 112.62 C 107.90 109.76 109.10 103.86 113.14 105.87 C 114.05 108.74 111.94 113.16 108.38 112.62 Z" />
</g>
<g id="#e80000ff">
<path fill="#e80000" opacity="1.00" d=" M 129.48 55.66 C 129.84 56.52 130.19 57.39 130.54 58.26 C 135.63 59.49 140.92 60.93 144.81 64.66 C 143.66 67.70 142.40 71.30 144.83 74.11 C 146.05 72.84 147.62 71.78 148.38 70.13 C 148.73 67.98 148.64 65.79 148.64 63.62 C 149.15 63.68 150.17 63.79 150.68 63.85 C 154.08 68.89 158.97 72.59 162.88 77.20 C 167.12 80.64 169.74 85.65 174.21 88.84 C 178.90 92.04 182.09 96.95 186.80 100.14 C 188.54 101.53 191.09 102.54 191.39 105.04 C 193.25 112.89 194.63 120.92 194.54 129.01 C 195.80 136.97 195.00 145.05 195.26 153.07 C 195.47 157.34 194.64 161.85 191.47 164.95 C 191.36 167.59 192.31 170.55 190.67 172.90 C 187.53 178.31 185.88 184.41 183.38 190.11 C 180.93 194.33 176.64 196.96 173.30 200.40 C 166.15 204.64 158.51 208.08 150.88 211.38 C 148.09 212.78 144.93 212.25 141.94 212.45 C 138.90 212.57 136.00 213.76 132.95 213.70 C 128.23 213.81 123.60 212.75 118.92 212.41 C 113.95 212.29 108.98 212.44 104.01 212.35 C 99.29 212.14 94.74 213.86 90.02 213.70 C 83.97 213.78 78.11 212.00 72.10 211.53 C 68.81 211.21 65.31 211.22 62.35 209.56 C 59.70 208.17 56.95 206.81 53.93 206.53 C 51.89 206.21 49.64 206.41 47.86 205.16 C 45.41 204.05 44.33 201.43 42.40 199.74 C 39.12 198.43 35.95 196.54 32.33 196.38 L 32.39 195.89 C 33.69 195.73 34.99 195.53 36.29 195.32 C 30.63 191.46 27.33 185.45 24.15 179.58 C 24.93 177.29 25.45 174.92 25.62 172.50 C 25.99 172.61 26.73 172.84 27.10 172.95 C 29.77 174.71 32.46 176.81 35.84 176.77 C 34.91 173.12 30.82 172.09 28.10 170.10 C 27.53 168.64 26.48 167.15 24.74 167.14 C 24.69 164.15 25.39 161.24 25.96 158.33 C 25.38 158.38 24.21 158.49 23.62 158.54 C 23.01 159.74 22.40 160.93 21.83 162.15 C 21.37 161.50 20.91 160.85 20.45 160.20 C 20.22 160.94 19.75 162.41 19.52 163.15 C 17.37 158.04 16.57 152.44 16.98 146.92 C 16.95 143.79 20.11 141.98 20.71 139.05 C 21.29 136.80 21.71 134.52 22.22 132.26 C 24.96 138.52 26.67 145.47 31.41 150.62 C 35.11 154.14 39.77 156.40 44.22 158.82 C 48.78 161.34 53.75 163.41 59.02 163.67 C 61.68 163.79 64.35 163.91 67.00 164.28 C 73.98 165.17 81.05 163.96 88.00 165.10 C 91.63 165.89 95.47 164.05 97.65 161.15 L 97.27 159.66 C 94.63 159.64 92.66 161.93 90.08 162.24 C 87.25 162.37 84.44 161.88 81.62 161.64 C 81.79 161.27 82.12 160.53 82.29 160.16 C 87.98 159.35 93.65 158.19 99.02 156.10 C 103.62 153.90 106.65 149.57 109.84 145.78 C 115.32 139.52 116.14 130.19 122.91 124.90 C 125.17 122.82 128.33 122.63 131.16 121.90 C 131.73 121.55 132.88 120.83 133.45 120.47 C 133.67 121.07 134.12 122.26 134.34 122.86 C 133.05 124.05 131.80 125.31 130.74 126.72 C 132.65 126.49 135.19 127.31 136.57 125.55 C 139.09 123.34 136.50 120.12 135.34 117.94 L 135.87 117.85 C 139.39 117.55 143.80 118.44 146.27 115.23 C 150.56 110.79 147.63 102.76 142.06 100.97 C 139.27 99.71 135.79 100.77 134.30 103.46 C 132.28 105.72 133.84 110.37 137.21 109.67 C 137.93 108.19 138.44 106.63 139.01 105.09 C 141.43 105.48 144.19 107.19 143.73 110.03 C 143.57 114.30 137.93 113.49 134.96 113.20 C 123.21 111.24 117.58 98.56 106.18 95.87 C 109.11 94.07 110.83 90.98 110.64 87.52 C 115.18 92.17 122.10 91.74 128.06 91.28 C 133.93 89.91 139.33 84.40 138.51 78.03 C 138.90 75.14 136.92 72.96 135.23 70.90 C 135.72 69.88 136.21 68.87 136.70 67.86 C 136.60 67.34 136.41 66.30 136.31 65.78 C 135.55 65.57 134.80 65.37 134.05 65.18 C 133.59 65.07 132.69 64.86 132.24 64.76 C 129.98 66.36 128.00 68.45 125.36 69.42 C 123.40 70.19 121.46 68.92 119.60 68.44 C 120.11 67.96 121.11 67.00 121.61 66.52 C 121.25 66.24 120.54 65.69 120.18 65.42 L 119.51 64.93 C 121.14 64.81 122.28 64.03 122.93 62.60 C 120.97 62.57 119.01 62.69 117.06 62.52 C 115.64 61.03 114.57 59.25 113.15 57.77 C 113.74 57.91 114.91 58.21 115.50 58.36 C 116.11 59.51 116.73 60.67 117.35 61.82 C 118.86 61.47 120.37 61.12 121.88 60.78 C 120.32 60.17 118.77 59.55 117.23 58.91 C 119.47 56.65 122.67 57.03 125.57 57.14 C 124.98 58.97 124.63 60.85 124.34 62.74 C 125.71 62.42 127.67 63.01 128.45 61.48 C 129.67 59.79 129.33 57.61 129.48 55.66 M 153.25 87.81 C 158.42 88.81 160.09 81.05 157.24 77.92 C 153.39 79.73 152.83 84.02 153.25 87.81 M 139.79 82.28 C 139.61 87.90 134.40 90.69 130.09 93.08 C 130.22 93.48 130.47 94.28 130.60 94.68 C 136.67 94.07 142.47 89.25 142.34 82.82 C 141.70 82.68 140.43 82.41 139.79 82.28 M 144.31 99.75 C 149.56 100.61 149.85 94.08 149.56 90.42 C 144.43 89.62 143.90 96.09 144.31 99.75 M 123.25 93.51 C 121.41 95.44 120.26 97.80 120.61 100.53 C 121.96 100.36 123.76 101.04 124.59 99.57 C 126.09 97.94 125.49 95.52 125.68 93.51 C 125.07 93.51 123.86 93.51 123.25 93.51 M 161.38 94.50 C 158.66 96.75 159.28 100.60 159.33 103.72 C 164.29 103.93 164.68 98.04 164.63 94.42 C 163.54 94.36 162.46 94.39 161.38 94.50 M 176.15 99.15 C 173.72 101.39 174.21 104.92 174.22 107.89 C 178.14 108.53 179.52 104.11 179.51 101.02 C 180.29 98.90 177.40 97.34 176.15 99.15 M 160.29 118.59 C 161.68 118.50 163.68 119.25 164.53 117.70 C 166.39 115.34 165.50 112.10 165.56 109.35 C 160.86 109.41 160.20 115.01 160.29 118.59 M 187.83 124.99 C 191.89 123.31 191.97 118.77 191.76 115.04 C 186.54 114.17 184.93 121.87 187.83 124.99 M 176.50 118.62 C 174.74 120.89 174.56 123.92 174.50 126.68 C 175.77 126.69 177.06 126.68 178.34 126.61 C 178.55 126.22 178.96 125.43 179.17 125.04 C 179.76 122.76 179.75 120.39 179.79 118.06 C 178.68 118.19 177.59 118.38 176.50 118.62 M 148.25 128.82 C 152.75 129.27 155.24 121.78 152.16 119.23 C 147.46 119.46 148.17 125.51 148.25 128.82 M 149.01 137.98 C 144.30 142.74 142.93 149.62 141.95 155.99 C 140.94 160.12 142.45 164.23 142.72 168.35 C 143.75 168.52 144.78 168.69 145.81 168.86 C 144.10 160.38 144.46 151.27 148.50 143.47 C 152.32 137.07 159.52 133.51 166.68 132.35 C 166.66 131.35 166.64 130.36 166.61 129.36 C 160.01 130.10 153.59 133.14 149.01 137.98 M 133.54 139.98 C 133.10 141.50 134.00 144.58 136.13 143.51 C 139.35 141.93 139.14 137.64 139.52 134.58 C 135.89 133.08 133.89 136.94 133.54 139.98 M 170.34 137.46 C 167.63 139.76 168.25 143.59 168.33 146.73 C 173.23 146.84 173.61 141.02 173.59 137.43 C 172.50 137.37 171.42 137.39 170.34 137.46 M 184.87 147.94 C 188.88 146.21 189.02 141.78 188.76 138.02 C 183.54 137.13 181.87 144.86 184.87 147.94 M 117.26 147.59 C 118.64 147.50 120.58 148.17 121.43 146.66 C 123.28 144.29 122.47 141.08 122.57 138.32 C 117.73 138.21 117.07 143.93 117.26 147.59 M 152.81 146.63 C 150.32 149.10 149.98 152.55 150.31 155.88 C 151.54 155.61 153.11 155.96 154.05 154.92 C 156.16 152.74 155.29 149.42 155.44 146.70 C 154.56 146.67 153.69 146.65 152.81 146.63 M 19.92 153.95 C 22.02 152.28 23.67 149.55 23.22 146.81 C 19.13 144.43 16.52 151.85 19.92 153.95 M 165.80 168.13 C 166.89 169.00 168.84 168.88 169.56 167.57 C 171.22 165.15 171.87 161.92 170.78 159.14 C 166.41 159.06 164.78 164.63 165.80 168.13 M 34.31 161.65 C 34.33 163.37 34.33 165.08 34.35 166.80 C 38.46 166.95 39.02 162.35 38.56 159.22 C 36.80 159.39 35.42 160.34 34.31 161.65 M 129.32 160.49 C 126.68 162.80 127.26 166.58 127.37 169.69 C 132.27 169.82 132.76 164.06 132.67 160.41 C 131.54 160.33 130.43 160.36 129.32 160.49 M 181.25 170.60 C 182.45 170.44 184.04 171.07 184.99 170.07 C 187.26 167.77 186.50 164.26 186.59 161.36 C 181.66 161.02 181.06 166.94 181.25 170.60 M 105.39 169.04 C 105.02 170.70 105.77 173.55 108.07 172.35 C 111.25 170.37 110.65 166.31 110.74 163.13 C 107.05 162.36 105.51 166.05 105.39 169.04 M 52.52 167.48 C 50.70 169.47 50.06 172.01 50.34 174.67 C 51.46 174.59 52.58 174.52 53.70 174.45 C 54.81 172.39 55.54 170.16 55.43 167.79 C 54.46 167.68 53.49 167.58 52.52 167.48 M 67.27 167.38 C 64.70 168.85 65.41 172.17 65.59 174.61 C 69.08 174.18 70.36 170.42 70.58 167.38 C 69.48 167.33 68.37 167.33 67.27 167.38 M 78.60 173.80 C 78.58 174.71 78.54 176.53 78.52 177.44 C 79.68 178.09 80.92 178.38 82.24 178.31 C 83.77 175.88 84.15 172.97 84.83 170.24 C 83.57 169.61 82.21 169.29 80.83 169.09 C 80.05 170.64 79.32 172.22 78.60 173.80 M 37.40 173.99 C 36.67 178.38 39.20 183.09 43.86 183.73 C 45.92 183.75 48.01 183.86 50.06 183.54 C 51.88 183.33 53.82 183.53 55.50 182.67 C 58.05 181.36 62.15 179.80 60.38 176.18 C 57.19 177.98 54.33 181.06 50.34 180.51 L 50.33 180.66 C 47.99 180.57 45.64 180.58 43.31 180.77 C 42.29 179.55 40.83 178.56 40.48 176.92 C 39.83 174.50 40.99 172.14 41.35 169.78 C 38.79 168.22 37.12 171.94 37.40 173.99 M 149.34 181.01 C 149.02 183.17 149.95 183.99 152.12 183.50 C 154.95 181.22 154.77 177.48 154.68 174.20 C 150.73 173.34 149.06 177.85 149.34 181.01 M 91.91 183.93 L 91.37 184.52 C 91.70 186.58 90.28 189.53 92.79 190.61 C 96.91 189.35 98.22 182.74 95.03 180.09 C 93.83 181.23 92.69 182.46 91.91 183.93 M 130.23 189.97 C 135.51 190.93 137.12 183.09 134.10 180.05 C 130.38 182.01 129.79 186.16 130.23 189.97 M 111.32 190.60 C 112.44 190.68 113.55 190.64 114.66 190.48 C 117.40 188.26 116.50 184.38 116.62 181.31 C 111.82 181.20 111.11 186.96 111.32 190.60 M 170.31 190.83 C 175.58 191.70 176.06 185.26 175.43 181.60 C 170.45 180.65 169.90 187.30 170.31 190.83 M 62.85 186.65 C 60.77 188.95 61.25 192.23 61.18 195.06 C 62.50 194.81 63.83 194.58 65.16 194.33 C 65.88 191.76 66.45 189.15 66.64 186.49 C 65.40 186.49 64.00 185.97 62.85 186.65 M 37.23 195.88 C 42.54 196.89 43.99 189.16 41.23 185.98 C 37.44 187.85 36.87 192.09 37.23 195.88 M 76.08 203.97 C 81.25 204.83 82.68 197.44 80.11 194.17 C 75.89 195.61 75.94 200.27 76.08 203.97 M 152.41 205.69 C 157.86 206.64 157.91 199.99 157.65 196.31 C 152.49 195.61 151.97 202.01 152.41 205.69 M 98.20 197.66 L 98.63 198.09 L 97.71 199.54 L 96.88 199.28 C 96.39 201.81 94.13 205.33 97.00 207.19 C 99.33 207.91 100.30 204.83 101.25 203.29 C 101.30 201.63 101.38 199.98 101.51 198.34 C 100.41 198.11 99.31 197.88 98.20 197.66 M 132.47 206.66 C 137.57 206.99 137.93 200.91 137.65 197.22 C 132.27 196.28 131.97 202.98 132.47 206.66 M 112.80 200.73 C 110.73 203.31 109.46 207.12 111.66 210.03 C 112.94 209.35 114.17 208.58 115.34 207.72 C 115.70 205.77 116.24 203.85 116.40 201.87 C 116.55 199.94 113.89 199.90 112.80 200.73 Z" />
<path fill="#e80000" opacity="1.00" d=" M 26.04 99.89 C 28.84 99.30 31.72 99.38 34.51 99.98 C 34.52 101.99 34.68 104.00 35.11 105.97 C 33.76 108.55 31.99 110.87 30.33 113.25 C 30.15 112.64 29.78 111.43 29.60 110.83 C 27.06 114.35 25.77 118.52 24.68 122.66 C 23.46 122.54 22.25 122.42 21.04 122.34 C 21.72 120.05 22.33 117.74 22.79 115.39 C 21.52 115.37 20.24 115.34 18.97 115.32 C 19.40 111.54 19.68 107.55 22.58 104.72 C 22.91 105.80 23.23 106.89 23.54 107.98 C 27.58 108.49 28.52 104.48 28.76 101.38 C 27.52 101.38 26.27 101.40 25.03 101.41 C 25.28 101.03 25.79 100.27 26.04 99.89 Z" />
</g>
<g id="#000004fe">
<path fill="#000004" opacity="1.00" d=" M 166.40 61.40 C 167.00 61.41 168.19 61.42 168.79 61.42 C 168.63 63.01 168.61 64.63 168.16 66.17 C 167.24 66.59 166.26 66.83 165.23 66.89 C 165.44 65.03 165.80 63.18 166.40 61.40 Z" />
</g>
<g id="#ffffffff">
<path fill="#ffffff" opacity="1.00" d=" M 75.44 63.63 C 75.93 63.56 76.93 63.41 77.42 63.34 C 77.46 63.97 77.55 65.22 77.59 65.84 C 78.22 65.46 79.47 64.70 80.10 64.31 C 81.83 66.80 83.79 69.19 86.46 70.71 C 85.52 71.60 84.58 72.49 83.65 73.39 C 83.22 73.80 82.81 74.23 82.42 74.68 C 81.43 76.28 80.60 77.98 79.91 79.73 C 79.73 80.24 79.35 81.26 79.17 81.76 C 77.61 81.43 75.02 81.99 75.49 79.58 C 74.03 79.43 73.25 78.17 72.35 77.20 C 72.47 76.28 72.70 74.44 72.81 73.52 C 73.62 73.65 75.25 73.91 76.06 74.04 C 76.34 75.82 74.27 79.14 77.27 79.05 C 77.66 78.00 78.05 76.95 78.45 75.90 C 78.14 75.36 77.53 74.28 77.22 73.73 C 76.95 73.69 76.40 73.59 76.13 73.54 L 75.66 73.47 L 75.46 71.74 C 74.62 71.72 72.93 71.66 72.09 71.63 C 72.22 69.79 73.04 68.61 74.57 68.08 C 75.63 68.54 76.78 69.82 78.00 69.10 C 78.63 67.52 76.52 66.66 75.35 66.24 C 75.37 65.59 75.42 64.28 75.44 63.63 Z" />
<path fill="#ffffff" opacity="1.00" d=" M 62.93 99.43 C 65.61 99.02 68.25 99.65 70.70 100.70 C 67.50 106.29 65.01 112.24 62.11 117.98 C 60.52 118.83 59.02 119.83 57.58 120.92 C 57.04 118.98 56.47 117.02 56.43 114.98 C 57.49 113.08 58.36 111.09 59.18 109.08 C 60.50 105.89 61.93 102.74 62.93 99.43 Z" />
<path fill="#ffffff" opacity="1.00" d=" M 118.03 121.80 C 119.43 121.36 120.58 121.69 120.78 123.24 C 116.45 126.84 114.43 132.13 112.00 137.03 C 111.83 137.57 111.49 138.66 111.32 139.20 C 110.22 140.75 108.83 142.76 106.62 142.41 C 106.33 141.21 105.80 139.79 106.69 138.70 C 110.60 133.15 114.04 127.29 118.03 121.80 Z" />
<path fill="#ffffff" opacity="1.00" d=" M 66.04 130.99 C 67.83 130.24 69.73 129.75 71.61 129.25 C 74.49 134.51 69.92 139.29 68.20 144.05 C 67.11 146.66 65.96 149.24 64.86 151.85 C 64.34 153.34 63.80 154.84 63.11 156.27 C 61.13 156.41 59.27 155.51 57.33 155.22 C 56.86 151.88 59.21 149.10 60.26 146.10 C 60.85 144.43 61.49 142.78 62.17 141.15 C 63.47 137.77 64.65 134.34 66.04 130.99 Z" />
<path fill="#ffffff" opacity="1.00" d=" M 74.80 135.69 C 77.13 135.59 79.44 135.36 81.76 135.18 C 82.28 137.66 81.76 140.70 84.29 142.20 C 81.69 147.60 77.07 151.83 74.93 157.50 C 71.68 157.74 68.42 157.33 65.17 157.26 C 67.45 151.05 70.91 145.30 73.21 139.06 C 73.73 137.93 74.27 136.81 74.80 135.69 Z" />
</g>
<g id="#e6e400ff">
<path fill="#e6e400" opacity="1.00" d=" M 144.81 64.66 C 145.54 64.34 146.29 64.03 147.04 63.73 L 148.64 63.62 C 148.64 65.79 148.73 67.98 148.38 70.13 C 147.62 71.78 146.05 72.84 144.83 74.11 C 142.40 71.30 143.66 67.70 144.81 64.66 Z" />
</g>
<g id="#225858ff">
<path fill="#225858" opacity="1.00" d=" M 75.35 66.24 C 76.52 66.66 78.63 67.52 78.00 69.10 C 76.78 69.82 75.63 68.54 74.57 68.08 C 74.77 67.62 75.16 66.70 75.35 66.24 Z" />
</g>
<g id="#0d2121ff">
<path fill="#0d2121" opacity="1.00" d=" M 103.80 66.63 C 104.68 66.64 105.56 66.66 106.44 66.67 C 106.68 69.14 105.75 71.41 104.56 73.52 C 104.02 73.49 102.96 73.44 102.43 73.41 C 103.16 71.21 103.62 68.94 103.80 66.63 Z" />
<path fill="#0d2121" opacity="1.00" d=" M 107.26 72.31 C 108.86 70.96 110.56 69.73 112.48 68.89 C 112.43 69.46 112.33 70.59 112.28 71.16 C 111.08 72.33 109.89 73.51 108.73 74.70 C 113.41 74.06 118.11 73.65 122.81 73.17 C 116.80 76.25 108.70 73.03 103.74 78.44 C 104.91 78.92 106.09 79.38 107.27 79.83 C 106.01 79.63 104.74 79.45 103.48 79.28 C 103.37 78.39 103.27 77.51 103.17 76.62 C 104.66 76.14 106.17 75.71 107.67 75.27 C 107.57 74.53 107.37 73.05 107.26 72.31 Z" />
<path fill="#0d2121" opacity="1.00" d=" M 130.78 84.50 C 127.24 85.34 127.87 80.22 130.98 82.53 C 130.93 83.02 130.83 84.00 130.78 84.50 Z" />
</g>
<g id="#e6ef00ff">
<path fill="#e6ef00" opacity="1.00" d=" M 52.23 72.63 C 52.36 69.63 53.74 65.21 57.66 66.39 C 57.44 68.49 56.92 70.54 56.29 72.56 C 54.93 72.59 53.58 72.62 52.23 72.63 Z" />
</g>
<g id="#000d0eff">
<path fill="#000d0e" opacity="1.00" d=" M 62.73 68.57 C 64.09 68.54 66.11 67.69 66.28 69.76 C 66.42 73.48 65.45 77.68 68.84 80.31 C 65.98 82.30 63.82 78.77 62.64 76.61 C 60.96 74.11 62.17 71.20 62.73 68.57 Z" />
<path fill="#000d0e" opacity="1.00" d=" M 139.79 82.28 C 140.43 82.41 141.70 82.68 142.34 82.82 C 142.47 89.25 136.67 94.07 130.60 94.68 C 130.47 94.28 130.22 93.48 130.09 93.08 C 134.40 90.69 139.61 87.90 139.79 82.28 Z" />
</g>
<g id="#a8ffffff">
<path fill="#a8ffff" opacity="1.00" d=" M 86.46 70.71 C 88.89 72.22 88.23 74.54 87.27 76.81 C 86.63 76.72 85.34 76.53 84.70 76.43 C 84.42 74.95 85.09 73.92 86.71 73.34 C 85.95 73.35 84.41 73.38 83.65 73.39 C 84.58 72.49 85.52 71.60 86.46 70.71 Z" />
<path fill="#a8ffff" opacity="1.00" d=" M 127.83 75.70 C 128.09 74.72 128.71 74.25 129.69 74.29 C 131.19 74.24 132.70 74.25 134.20 74.27 C 132.36 74.75 130.50 75.22 128.74 75.98 C 131.11 76.75 133.57 77.42 135.57 78.99 C 133.39 79.16 131.21 79.32 129.09 79.84 C 130.83 80.63 132.64 81.28 134.47 81.87 C 134.45 82.17 134.41 82.77 134.40 83.08 C 132.53 83.41 131.47 84.99 131.32 86.80 L 131.23 86.76 C 129.71 86.06 128.19 85.35 126.64 84.71 C 127.56 82.45 128.69 80.28 129.92 78.17 C 129.22 77.35 128.52 76.53 127.83 75.70 M 130.78 84.50 C 130.83 84.00 130.93 83.02 130.98 82.53 C 127.87 80.22 127.24 85.34 130.78 84.50 Z" />
<path fill="#a8ffff" opacity="1.00" d=" M 30.63 119.68 C 31.15 119.67 32.19 119.64 32.71 119.62 C 32.70 119.97 32.67 120.66 32.65 121.00 C 32.50 124.17 31.57 127.22 31.17 130.36 C 30.96 129.03 30.75 127.71 30.58 126.38 C 30.43 124.15 30.58 121.91 30.63 119.68 Z" />
<path fill="#a8ffff" opacity="1.00" d=" M 96.60 147.76 C 98.69 145.52 101.91 145.22 104.79 145.41 C 103.24 147.94 101.95 150.70 99.85 152.82 C 97.33 154.72 94.10 155.42 91.00 155.57 C 91.83 154.23 92.75 152.94 93.76 151.73 C 93.71 152.40 93.62 153.73 93.57 154.39 C 98.14 153.72 101.50 150.41 103.06 146.18 C 100.90 146.70 98.76 147.25 96.60 147.76 Z" />
</g>
<g id="#000004ff">
<path fill="#000004" opacity="1.00" d=" M 171.76 77.80 C 172.23 75.04 173.21 72.38 174.87 70.12 C 175.29 70.85 176.12 72.31 176.54 73.03 C 175.48 75.23 174.50 77.48 173.35 79.64 C 172.95 79.18 172.16 78.26 171.76 77.80 Z" />
</g>
<g id="#299f00ff">
<path fill="#299f00" opacity="1.00" d=" M 176.54 73.03 C 176.98 72.23 177.43 71.44 177.90 70.65 C 179.63 73.50 181.09 76.50 182.48 79.53 C 181.70 81.33 180.92 83.14 180.13 84.95 C 177.52 83.67 175.22 81.85 173.35 79.64 C 174.50 77.48 175.48 75.23 176.54 73.03 Z" />
</g>
<g id="#0b1906ff">
<path fill="#0b1906" opacity="1.00" d=" M 183.69 71.76 C 185.61 71.03 190.46 72.08 188.32 74.89 C 186.31 74.66 181.95 75.11 183.69 71.76 Z" />
</g>
<g id="#000505ff">
<path fill="#000505" opacity="1.00" d=" M 76.13 73.54 C 76.40 73.59 76.95 73.69 77.22 73.73 C 77.53 74.28 78.14 75.36 78.45 75.90 C 78.05 76.95 77.66 78.00 77.27 79.05 C 74.27 79.14 76.34 75.82 76.06 74.04 L 76.13 73.54 Z" />
<path fill="#000505" opacity="1.00" d=" M 50.34 180.51 C 54.33 181.06 57.19 177.98 60.38 176.18 C 62.15 179.80 58.05 181.36 55.50 182.67 C 53.82 183.53 51.88 183.33 50.06 183.54 C 50.13 182.82 50.26 181.38 50.33 180.66 L 50.34 180.51 Z" />
</g>
<g id="#296161ff">
<path fill="#296161" opacity="1.00" d=" M 129.47 72.83 C 131.15 72.85 132.83 73.06 134.47 73.44 C 134.52 74.14 134.62 75.53 134.67 76.22 C 136.20 78.02 135.80 80.05 134.47 81.87 C 132.64 81.28 130.83 80.63 129.09 79.84 C 131.21 79.32 133.39 79.16 135.57 78.99 C 133.57 77.42 131.11 76.75 128.74 75.98 C 130.50 75.22 132.36 74.75 134.20 74.27 C 132.70 74.25 131.19 74.24 129.69 74.29 L 129.47 72.83 Z" />
</g>
<g id="#1b1c1c90">
<path fill="#1b1c1c" opacity="0.56" d=" M 33.38 78.91 C 33.35 76.55 35.20 74.82 37.34 74.19 C 35.76 75.70 34.64 77.61 34.26 79.78 C 33.56 83.51 30.23 86.17 26.62 86.87 C 29.23 84.64 33.23 82.83 33.38 78.91 Z" />
<path fill="#1b1c1c" opacity="0.56" d=" M 194.37 97.00 L 194.62 96.05 C 194.89 100.38 194.06 104.84 195.50 109.04 C 197.44 114.50 197.93 120.28 198.36 126.01 C 198.48 136.68 198.36 147.35 198.44 158.01 C 198.66 162.86 195.99 167.16 195.18 171.85 C 189.64 179.55 189.09 189.72 183.32 197.31 C 181.53 199.53 179.45 201.75 176.68 202.71 C 179.39 199.75 182.72 197.25 184.58 193.61 C 187.09 188.78 188.34 183.43 190.49 178.45 C 194.46 171.28 197.66 163.33 197.46 155.00 C 197.11 141.65 198.26 128.17 195.99 114.95 C 194.56 109.10 192.25 103.00 194.37 97.00 Z" />
</g>
<g id="#c2ffffff">
<path fill="#c2ffff" opacity="1.00" d=" M 79.91 79.73 C 80.60 77.98 81.43 76.28 82.42 74.68 C 80.40 77.36 82.93 79.81 85.81 78.78 C 86.04 80.63 84.33 81.44 83.14 82.44 C 82.65 82.47 81.67 82.55 81.18 82.58 C 81.35 81.77 81.67 80.13 81.83 79.31 L 79.91 79.73 Z" />
</g>
<g id="#e90000ff">
<path fill="#e90000" opacity="1.00" d=" M 102.40 76.91 L 103.17 76.62 C 103.27 77.51 103.37 78.39 103.48 79.28 C 104.74 79.45 106.01 79.63 107.27 79.83 C 107.80 80.01 108.86 80.37 109.39 80.55 C 109.59 82.80 109.96 85.03 110.56 87.20 C 109.70 87.34 107.99 87.60 107.13 87.73 C 105.78 89.87 105.14 92.31 105.24 94.84 C 100.48 93.20 95.61 91.64 90.51 92.54 C 90.48 93.81 90.46 95.09 90.44 96.37 C 93.70 96.43 97.04 96.59 100.06 97.98 C 104.79 100.04 109.79 101.81 113.82 105.16 C 116.93 107.66 119.59 110.72 123.00 112.85 C 126.31 114.89 129.96 116.30 133.61 117.59 L 133.52 118.94 C 133.50 119.32 133.47 120.09 133.45 120.47 C 132.88 120.83 131.73 121.55 131.16 121.90 C 131.33 121.28 131.67 120.03 131.85 119.41 C 126.87 118.99 121.49 120.91 116.88 118.26 C 112.85 116.19 108.33 115.07 104.68 112.31 C 99.03 107.92 92.36 105.15 85.77 102.51 C 86.06 101.99 86.64 100.93 86.93 100.41 C 88.09 98.37 89.00 96.03 88.35 93.66 C 87.02 93.69 85.73 94.01 84.51 94.60 L 84.66 93.62 C 84.79 92.07 84.43 90.54 84.18 89.02 C 86.07 87.53 87.89 85.93 89.52 84.16 C 89.47 83.64 89.36 82.58 89.30 82.05 C 89.33 81.15 90.05 80.42 90.41 79.62 L 91.37 79.47 C 94.57 78.83 97.24 76.43 100.70 76.94 C 100.98 77.91 101.25 78.87 101.53 79.83 C 101.80 78.85 102.09 77.88 102.40 76.91 M 93.65 87.04 C 96.71 86.39 99.57 80.76 95.95 79.24 C 93.21 80.67 91.38 84.38 93.65 87.04 M 108.38 112.62 C 111.94 113.16 114.05 108.74 113.14 105.87 C 109.10 103.86 107.90 109.76 108.38 112.62 Z" />
</g>
<g id="#559191ff">
<path fill="#559191" opacity="1.00" d=" M 114.93 78.42 C 119.17 77.36 123.43 76.32 127.75 75.59 C 125.72 77.40 122.97 77.53 120.44 77.99 C 120.12 79.27 119.19 80.48 119.33 81.83 C 120.53 82.33 121.78 81.37 122.98 81.24 C 122.61 82.65 122.13 84.03 121.55 85.38 C 121.94 85.70 122.74 86.34 123.13 86.67 C 122.11 87.27 121.45 89.46 119.98 88.61 C 117.60 87.65 114.18 87.94 113.13 85.10 C 112.03 83.24 111.11 79.52 113.91 78.77 C 111.80 82.04 113.70 86.43 117.38 87.41 C 117.39 86.80 117.42 85.59 117.43 84.98 C 118.66 84.77 120.09 84.94 121.07 84.04 C 119.64 82.91 117.61 82.32 117.22 80.24 C 116.88 81.49 116.55 82.74 116.21 84.00 C 115.36 82.11 116.72 80.48 117.48 78.85 C 116.84 78.80 115.56 78.70 114.93 78.65 L 114.93 78.42 M 119.30 85.90 C 118.72 87.48 119.27 88.01 120.96 87.49 C 121.55 85.90 120.99 85.37 119.30 85.90 Z" />
</g>
<g id="#fffefeff">
<path fill="#fffefe" opacity="1.00" d=" M 127.75 75.59 L 127.83 75.70 C 128.52 76.53 129.22 77.35 129.92 78.17 C 128.69 80.28 127.56 82.45 126.64 84.71 C 126.11 84.50 125.03 84.08 124.49 83.87 C 124.74 85.32 124.98 86.78 125.21 88.23 L 125.35 89.07 C 124.79 88.47 123.69 87.27 123.13 86.67 C 122.74 86.34 121.94 85.70 121.55 85.38 C 122.13 84.03 122.61 82.65 122.98 81.24 C 121.78 81.37 120.53 82.33 119.33 81.83 C 119.19 80.48 120.12 79.27 120.44 77.99 C 122.97 77.53 125.72 77.40 127.75 75.59 Z" />
<path fill="#fffefe" opacity="1.00" d=" M 40.68 96.11 C 41.79 96.83 42.90 97.55 44.01 98.28 C 44.68 98.40 46.02 98.64 46.70 98.76 C 45.75 103.09 43.67 107.05 42.30 111.24 C 41.75 113.34 39.83 114.49 38.04 115.42 C 36.19 116.33 35.42 113.90 34.23 113.07 C 36.87 107.62 41.20 102.61 40.68 96.11 Z" />
<path fill="#fffefe" opacity="1.00" d=" M 96.60 147.76 C 98.76 147.25 100.90 146.70 103.06 146.18 C 101.50 150.41 98.14 153.72 93.57 154.39 C 93.62 153.73 93.71 152.40 93.76 151.73 C 94.67 150.38 95.69 149.11 96.60 147.76 Z" />
</g>
<g id="#e8e400fe">
<path fill="#e8e400" opacity="1.00" d=" M 56.42 83.73 C 56.15 80.95 56.42 76.27 60.23 76.39 C 62.30 77.78 60.78 80.10 60.17 81.87 C 59.67 83.61 57.85 83.49 56.42 83.73 Z" />
</g>
<g id="#d8f6f6ff">
<path fill="#d8f6f6" opacity="1.00" d=" M 113.91 78.77 L 114.93 78.65 C 115.56 78.70 116.84 78.80 117.48 78.85 C 116.72 80.48 115.36 82.11 116.21 84.00 C 116.52 84.24 117.13 84.73 117.43 84.98 C 117.42 85.59 117.39 86.80 117.38 87.41 C 113.70 86.43 111.80 82.04 113.91 78.77 Z" />
</g>
<g id="#e6e300fe">
<path fill="#e6e300" opacity="1.00" d=" M 153.25 87.81 C 152.83 84.02 153.39 79.73 157.24 77.92 C 160.09 81.05 158.42 88.81 153.25 87.81 Z" />
<path fill="#e6e300" opacity="1.00" d=" M 144.31 99.75 C 143.90 96.09 144.43 89.62 149.56 90.42 C 149.85 94.08 149.56 100.61 144.31 99.75 Z" />
</g>
<g id="#e9ec00ff">
<path fill="#e9ec00" opacity="1.00" d=" M 93.65 87.04 C 91.38 84.38 93.21 80.67 95.95 79.24 C 99.57 80.76 96.71 86.39 93.65 87.04 Z" />
</g>
<g id="#000a0aff">
<path fill="#000a0a" opacity="1.00" d=" M 116.21 84.00 C 116.55 82.74 116.88 81.49 117.22 80.24 C 117.61 82.32 119.64 82.91 121.07 84.04 C 120.09 84.94 118.66 84.77 117.43 84.98 C 117.13 84.73 116.52 84.24 116.21 84.00 Z" />
<path fill="#000a0a" opacity="1.00" d=" M 22.39 125.10 C 23.38 125.29 24.37 125.49 25.36 125.68 C 24.72 132.54 27.94 138.87 30.95 144.80 C 32.89 148.83 36.70 151.36 40.55 153.33 C 44.87 155.46 48.87 158.34 53.58 159.60 C 57.53 160.99 61.77 160.33 65.84 161.02 C 71.06 161.93 76.37 161.19 81.62 161.64 C 84.44 161.88 87.25 162.37 90.08 162.24 C 92.66 161.93 94.63 159.64 97.27 159.66 L 97.65 161.15 C 95.47 164.05 91.63 165.89 88.00 165.10 C 81.05 163.96 73.98 165.17 67.00 164.28 C 64.35 163.91 61.68 163.79 59.02 163.67 C 53.75 163.41 48.78 161.34 44.22 158.82 C 39.77 156.40 35.11 154.14 31.41 150.62 C 26.67 145.47 24.96 138.52 22.22 132.26 C 21.42 129.91 21.87 127.45 22.39 125.10 Z" />
</g>
<g id="#7eb3b3ff">
<path fill="#7eb3b3" opacity="1.00" d=" M 124.49 83.87 C 125.03 84.08 126.11 84.50 126.64 84.71 C 128.19 85.35 129.71 86.06 131.23 86.76 C 129.49 88.10 127.39 88.71 125.21 88.23 C 124.98 86.78 124.74 85.32 124.49 83.87 Z" />
</g>
<g id="#e4fafaff">
<path fill="#e4fafa" opacity="1.00" d=" M 119.30 85.90 C 120.99 85.37 121.55 85.90 120.96 87.49 C 119.27 88.01 118.72 87.48 119.30 85.90 Z" />
</g>
<g id="#e8d900ff">
<path fill="#e8d900" opacity="1.00" d=" M 107.13 87.73 C 107.99 87.60 109.70 87.34 110.56 87.20 L 110.64 87.52 C 110.83 90.98 109.11 94.07 106.18 95.87 C 105.85 95.54 105.53 95.20 105.24 94.84 C 105.14 92.31 105.78 89.87 107.13 87.73 Z" />
</g>
<g id="#1c1d1d88">
<path fill="#1c1d1d" opacity="0.53" d=" M 19.52 96.54 C 21.51 93.64 22.64 90.00 25.55 87.85 C 23.29 92.41 20.68 96.79 17.92 101.08 C 15.93 104.15 13.61 107.11 12.58 110.68 C 10.97 116.69 10.58 123.02 11.52 129.18 C 12.43 135.08 11.86 141.04 11.80 146.97 C 11.63 153.37 13.83 159.57 13.36 165.99 C 12.61 174.94 17.30 183.02 21.22 190.71 C 19.90 189.72 18.59 188.62 18.02 187.01 C 16.25 183.05 14.47 179.07 13.14 174.94 C 11.88 171.41 12.47 167.62 12.38 163.97 C 12.49 159.25 11.00 154.69 10.75 150.01 C 10.51 141.99 11.24 133.92 10.14 125.94 C 9.58 121.49 10.19 117.01 10.96 112.62 C 12.07 106.46 16.71 101.92 19.52 96.54 Z" />
</g>
<g id="#eae000ff">
<path fill="#eae000" opacity="1.00" d=" M 55.31 89.70 C 56.39 89.66 57.47 89.62 58.55 89.58 L 58.49 90.10 C 58.36 92.40 57.66 94.60 56.72 96.69 C 55.54 96.71 54.36 96.72 53.18 96.72 C 53.23 94.21 53.88 91.78 55.31 89.70 Z" />
</g>
<g id="#f20000ff">
<path fill="#f20000" opacity="1.00" d=" M 58.49 90.10 C 66.17 88.88 74.11 90.03 81.09 93.44 C 82.28 93.51 83.47 93.57 84.66 93.62 L 84.51 94.60 C 84.43 96.59 82.71 99.02 84.65 100.57 C 85.22 100.53 86.36 100.45 86.93 100.41 C 86.64 100.93 86.06 101.99 85.77 102.51 C 76.67 98.50 66.73 95.81 56.72 96.69 C 57.66 94.60 58.36 92.40 58.49 90.10 Z" />
</g>
<g id="#e7db00ff">
<path fill="#e7db00" opacity="1.00" d=" M 123.25 93.51 C 123.86 93.51 125.07 93.51 125.68 93.51 C 125.49 95.52 126.09 97.94 124.59 99.57 C 123.76 101.04 121.96 100.36 120.61 100.53 C 120.26 97.80 121.41 95.44 123.25 93.51 Z" />
</g>
<g id="#e8ed00fe">
<path fill="#e8ed00" opacity="1.00" d=" M 84.51 94.60 C 85.73 94.01 87.02 93.69 88.35 93.66 C 89.00 96.03 88.09 98.37 86.93 100.41 C 86.36 100.45 85.22 100.53 84.65 100.57 C 82.71 99.02 84.43 96.59 84.51 94.60 Z" />
</g>
<g id="#e7e500ff">
<path fill="#e7e500" opacity="1.00" d=" M 161.38 94.50 C 162.46 94.39 163.54 94.36 164.63 94.42 C 164.68 98.04 164.29 103.93 159.33 103.72 C 159.28 100.60 158.66 96.75 161.38 94.50 Z" />
<path fill="#e7e500" opacity="1.00" d=" M 184.87 147.94 C 181.87 144.86 183.54 137.13 188.76 138.02 C 189.02 141.78 188.88 146.21 184.87 147.94 Z" />
<path fill="#e7e500" opacity="1.00" d=" M 117.26 147.59 C 117.07 143.93 117.73 138.21 122.57 138.32 C 122.47 141.08 123.28 144.29 121.43 146.66 C 120.58 148.17 118.64 147.50 117.26 147.59 Z" />
<path fill="#e7e500" opacity="1.00" d=" M 129.32 160.49 C 130.43 160.36 131.54 160.33 132.67 160.41 C 132.76 164.06 132.27 169.82 127.37 169.69 C 127.26 166.58 126.68 162.80 129.32 160.49 Z" />
<path fill="#e7e500" opacity="1.00" d=" M 132.47 206.66 C 131.97 202.98 132.27 196.28 137.65 197.22 C 137.93 200.91 137.57 206.99 132.47 206.66 Z" />
</g>
<g id="#fefefeff">
<path fill="#fefefe" opacity="1.00" d=" M 48.84 99.44 C 52.85 99.25 56.86 99.25 60.87 99.42 C 60.18 100.91 59.49 102.40 58.76 103.86 C 56.84 107.94 55.44 112.27 53.15 116.17 C 52.05 116.28 50.96 116.38 49.86 116.50 C 48.87 117.20 47.88 117.91 46.89 118.62 C 46.60 118.33 46.03 117.75 45.74 117.46 C 45.01 116.32 44.28 115.18 43.55 114.05 C 44.40 111.99 45.15 109.89 45.82 107.77 C 46.97 105.04 48.00 102.27 48.84 99.44 Z" />
<path fill="#fefefe" opacity="1.00" d=" M 68.20 111.11 C 69.57 107.71 71.27 104.45 72.70 101.08 C 76.21 101.65 80.04 102.17 82.70 104.77 C 80.45 107.98 78.90 111.60 77.17 115.10 C 76.48 116.41 75.81 117.74 75.21 119.10 C 74.40 123.27 70.16 124.32 66.53 124.80 C 66.42 122.16 65.59 119.62 65.41 117.00 C 66.23 114.99 67.27 113.07 68.20 111.11 Z" />
<path fill="#fefefe" opacity="1.00" d=" M 84.02 105.54 C 88.46 105.02 91.97 108.51 95.98 109.85 C 94.48 113.75 91.45 116.81 89.57 120.53 C 87.44 123.41 86.31 127.15 83.32 129.30 C 81.08 129.37 78.83 129.48 76.59 129.64 C 76.50 128.03 76.51 126.35 75.56 124.95 C 76.12 123.17 76.87 121.46 77.68 119.78 C 78.19 118.87 78.69 117.95 79.19 117.03 C 80.12 114.98 81.09 112.96 82.12 110.96 C 82.79 109.16 83.46 107.37 84.02 105.54 Z" />
<path fill="#fefefe" opacity="1.00" d=" M 86.69 130.00 C 90.55 123.80 94.66 117.71 97.94 111.17 C 101.47 112.52 103.88 115.77 107.49 116.95 C 107.69 118.01 108.21 119.20 107.31 120.10 C 102.99 125.38 99.12 130.99 95.23 136.58 C 94.12 136.66 93.01 136.76 91.91 136.86 C 90.53 137.18 89.14 137.42 87.74 137.57 C 87.78 135.01 85.82 132.47 86.69 130.00 Z" />
<path fill="#fefefe" opacity="1.00" d=" M 34.91 122.03 C 36.20 120.22 38.82 120.20 40.74 119.36 C 41.89 120.92 43.14 122.39 44.37 123.88 C 43.75 125.53 43.36 127.25 42.92 128.95 C 41.52 134.34 41.05 139.95 39.22 145.21 C 36.97 142.63 34.69 139.98 33.19 136.89 L 32.82 135.96 C 33.47 131.31 33.84 126.61 34.91 122.03 Z" />
<path fill="#fefefe" opacity="1.00" d=" M 46.80 122.97 C 47.31 122.62 48.32 121.93 48.83 121.58 C 50.25 121.59 51.68 121.62 53.10 121.64 C 56.12 126.28 52.96 131.22 51.88 135.93 C 50.63 140.91 49.45 145.90 48.25 150.89 C 45.50 150.76 43.22 149.01 41.34 147.17 C 42.26 141.74 44.07 136.45 45.10 131.02 C 45.56 128.31 46.18 125.64 46.80 122.97 Z" />
<path fill="#fefefe" opacity="1.00" d=" M 56.70 127.86 C 58.47 126.90 60.07 125.44 62.15 125.27 C 62.74 127.26 64.21 129.32 63.34 131.45 C 62.38 133.99 61.24 136.46 60.23 138.98 C 58.41 143.83 56.27 148.60 55.10 153.65 C 53.28 153.90 51.69 152.97 50.10 152.26 C 50.56 149.84 51.36 147.51 52.18 145.19 C 52.68 143.07 53.28 140.97 53.83 138.86 C 54.89 135.22 55.72 131.52 56.70 127.86 Z" />
<path fill="#fefefe" opacity="1.00" d=" M 85.03 145.79 C 86.66 142.82 90.46 143.07 93.34 143.36 C 94.01 144.47 94.51 145.67 94.97 146.88 C 91.91 150.22 90.09 154.71 86.34 157.37 C 83.19 157.28 80.05 157.56 76.92 157.73 C 79.34 153.56 82.40 149.82 85.03 145.79 Z" />
</g>
<g id="#e6e400fe">
<path fill="#e6e400" opacity="1.00" d=" M 176.15 99.15 C 177.40 97.34 180.29 98.90 179.51 101.02 C 179.52 104.11 178.14 108.53 174.22 107.89 C 174.21 104.92 173.72 101.39 176.15 99.15 Z" />
</g>
<g id="#e7e400ff">
<path fill="#e7e400" opacity="1.00" d=" M 160.29 118.59 C 160.20 115.01 160.86 109.41 165.56 109.35 C 165.50 112.10 166.39 115.34 164.53 117.70 C 163.68 119.25 161.68 118.50 160.29 118.59 Z" />
<path fill="#e7e400" opacity="1.00" d=" M 181.25 170.60 C 181.06 166.94 181.66 161.02 186.59 161.36 C 186.50 164.26 187.26 167.77 184.99 170.07 C 184.04 171.07 182.45 170.44 181.25 170.60 Z" />
<path fill="#e7e400" opacity="1.00" d=" M 105.39 169.04 C 105.51 166.05 107.05 162.36 110.74 163.13 C 110.65 166.31 111.25 170.37 108.07 172.35 C 105.77 173.55 105.02 170.70 105.39 169.04 Z" />
<path fill="#e7e400" opacity="1.00" d=" M 130.23 189.97 C 129.79 186.16 130.38 182.01 134.10 180.05 C 137.12 183.09 135.51 190.93 130.23 189.97 Z" />
<path fill="#e7e400" opacity="1.00" d=" M 62.85 186.65 C 64.00 185.97 65.40 186.49 66.64 186.49 C 66.45 189.15 65.88 191.76 65.16 194.33 C 63.83 194.58 62.50 194.81 61.18 195.06 C 61.25 192.23 60.77 188.95 62.85 186.65 Z" />
<path fill="#e7e400" opacity="1.00" d=" M 37.23 195.88 C 36.87 192.09 37.44 187.85 41.23 185.98 C 43.99 189.16 42.54 196.89 37.23 195.88 Z" />
<path fill="#e7e400" opacity="1.00" d=" M 152.41 205.69 C 151.97 202.01 152.49 195.61 157.65 196.31 C 157.91 199.99 157.86 206.64 152.41 205.69 Z" />
</g>
<g id="#e7df00ff">
<path fill="#e7df00" opacity="1.00" d=" M 18.97 115.32 C 20.24 115.34 21.52 115.37 22.79 115.39 C 22.33 117.74 21.72 120.05 21.04 122.34 C 19.86 122.28 18.67 122.26 17.48 122.23 C 17.44 119.83 18.05 117.52 18.97 115.32 Z" />
</g>
<g id="#e7e300ff">
<path fill="#e7e300" opacity="1.00" d=" M 187.83 124.99 C 184.93 121.87 186.54 114.17 191.76 115.04 C 191.97 118.77 191.89 123.31 187.83 124.99 Z" />
<path fill="#e7e300" opacity="1.00" d=" M 148.25 128.82 C 148.17 125.51 147.46 119.46 152.16 119.23 C 155.24 121.78 152.75 129.27 148.25 128.82 Z" />
<path fill="#e7e300" opacity="1.00" d=" M 133.54 139.98 C 133.89 136.94 135.89 133.08 139.52 134.58 C 139.14 137.64 139.35 141.93 136.13 143.51 C 134.00 144.58 133.10 141.50 133.54 139.98 Z" />
<path fill="#e7e300" opacity="1.00" d=" M 165.80 168.13 C 164.78 164.63 166.41 159.06 170.78 159.14 C 171.87 161.92 171.22 165.15 169.56 167.57 C 168.84 168.88 166.89 169.00 165.80 168.13 Z" />
<path fill="#e7e300" opacity="1.00" d=" M 149.34 181.01 C 149.06 177.85 150.73 173.34 154.68 174.20 C 154.77 177.48 154.95 181.22 152.12 183.50 C 149.95 183.99 149.02 183.17 149.34 181.01 Z" />
<path fill="#e7e300" opacity="1.00" d=" M 76.08 203.97 C 75.94 200.27 75.89 195.61 80.11 194.17 C 82.68 197.44 81.25 204.83 76.08 203.97 Z" />
<path fill="#e7e300" opacity="1.00" d=" M 112.80 200.73 C 113.89 199.90 116.55 199.94 116.40 201.87 C 116.24 203.85 115.70 205.77 115.34 207.72 C 114.17 208.58 112.94 209.35 111.66 210.03 C 109.46 207.12 110.73 203.31 112.80 200.73 Z" />
</g>
<g id="#fefefefe">
<path fill="#fefefe" opacity="1.00" d=" M 176.50 118.62 C 177.59 118.38 178.68 118.19 179.79 118.06 C 179.75 120.39 179.76 122.76 179.17 125.04 C 179.39 122.74 179.53 120.44 179.65 118.15 C 175.03 118.03 174.99 123.17 175.07 126.49 C 175.88 126.52 177.52 126.58 178.34 126.61 C 177.06 126.68 175.77 126.69 174.50 126.68 C 174.56 123.92 174.74 120.89 176.50 118.62 Z" />
<path fill="#fefefe" opacity="1.00" d=" M 96.46 138.86 C 101.27 132.03 106.60 125.55 110.87 118.35 C 112.61 119.13 114.33 119.95 116.03 120.81 C 113.63 125.61 109.98 129.63 107.22 134.22 C 105.42 136.68 104.19 140.24 100.79 140.80 C 99.81 141.38 98.84 141.97 97.87 142.57 C 97.41 141.33 96.94 140.09 96.46 138.86 Z" />
</g>
<g id="#000707ff">
<path fill="#000707" opacity="1.00" d=" M 133.52 118.94 C 133.98 118.69 134.89 118.19 135.34 117.94 C 136.50 120.12 139.09 123.34 136.57 125.55 C 135.19 127.31 132.65 126.49 130.74 126.72 C 131.80 125.31 133.05 124.05 134.34 122.86 C 134.12 122.26 133.67 121.07 133.45 120.47 C 133.47 120.09 133.50 119.32 133.52 118.94 Z" />
</g>
<g id="#e6e500fe">
<path fill="#e6e500" opacity="1.00" d=" M 175.07 126.49 C 174.99 123.17 175.03 118.03 179.65 118.15 C 179.53 120.44 179.39 122.74 179.17 125.04 C 178.96 125.43 178.55 126.22 178.34 126.61 C 177.52 126.58 175.88 126.52 175.07 126.49 Z" />
</g>
<g id="#e7e600ff">
<path fill="#e7e600" opacity="1.00" d=" M 170.34 137.46 C 171.42 137.39 172.50 137.37 173.59 137.43 C 173.61 141.02 173.23 146.84 168.33 146.73 C 168.25 143.59 167.63 139.76 170.34 137.46 Z" />
<path fill="#e7e600" opacity="1.00" d=" M 170.31 190.83 C 169.90 187.30 170.45 180.65 175.43 181.60 C 176.06 185.26 175.58 191.70 170.31 190.83 Z" />
<path fill="#e7e600" opacity="1.00" d=" M 97.71 199.54 L 98.63 198.09 C 99.78 199.29 101.40 200.55 100.82 202.45 C 100.56 204.19 99.28 208.18 97.17 205.82 C 95.14 204.06 96.53 201.35 97.71 199.54 Z" />
</g>
<g id="#e8ee00ff">
<path fill="#e8ee00" opacity="1.00" d=" M 19.92 153.95 C 16.52 151.85 19.13 144.43 23.22 146.81 C 23.67 149.55 22.02 152.28 19.92 153.95 Z" />
</g>
<g id="#e7e008ff">
<path fill="#e7e008" opacity="1.00" d=" M 150.56 155.62 C 150.15 152.51 150.69 145.99 155.30 147.41 C 155.27 150.69 155.33 156.14 150.56 155.62 Z" />
</g>
<g id="#000808fe">
<path fill="#000808" opacity="1.00" d=" M 23.62 158.54 C 24.21 158.49 25.38 158.38 25.96 158.33 C 25.39 161.24 24.69 164.15 24.74 167.14 C 24.45 169.06 26.51 169.98 28.10 170.10 C 30.82 172.09 34.91 173.12 35.84 176.77 C 32.46 176.81 29.77 174.71 27.10 172.95 C 25.02 171.25 23.21 169.25 21.46 167.21 C 21.57 165.52 21.65 163.83 21.83 162.15 C 22.40 160.93 23.01 159.74 23.62 158.54 Z" />
</g>
<g id="#e8eb00ff">
<path fill="#e8eb00" opacity="1.00" d=" M 34.31 161.65 C 35.42 160.34 36.80 159.39 38.56 159.22 C 39.02 162.35 38.46 166.95 34.35 166.80 C 34.33 165.08 34.33 163.37 34.31 161.65 Z" />
</g>
<g id="#532222ff">
<path fill="#532222" opacity="1.00" d=" M 24.74 167.14 C 26.48 167.15 27.53 168.64 28.10 170.10 C 26.51 169.98 24.45 169.06 24.74 167.14 Z" />
</g>
<g id="#e7d400ff">
<path fill="#e7d400" opacity="1.00" d=" M 52.52 167.48 C 53.49 167.58 54.46 167.68 55.43 167.79 C 55.54 170.16 54.81 172.39 53.70 174.45 C 52.58 174.52 51.46 174.59 50.34 174.67 C 50.06 172.01 50.70 169.47 52.52 167.48 Z" />
</g>
<g id="#e8de00ff">
<path fill="#e8de00" opacity="1.00" d=" M 67.27 167.38 C 68.37 167.33 69.48 167.33 70.58 167.38 C 70.36 170.42 69.08 174.18 65.59 174.61 C 65.41 172.17 64.70 168.85 67.27 167.38 Z" />
</g>
<g id="#000101ff">
<path fill="#000101" opacity="1.00" d=" M 37.40 173.99 C 37.12 171.94 38.79 168.22 41.35 169.78 C 40.99 172.14 39.83 174.50 40.48 176.92 C 40.83 178.56 42.29 179.55 43.31 180.77 C 43.44 181.51 43.72 182.99 43.86 183.73 C 39.20 183.09 36.67 178.38 37.40 173.99 Z" />
</g>
<g id="#e8df14ff">
<path fill="#e8df14" opacity="1.00" d=" M 80.18 170.86 C 80.72 168.57 83.38 170.13 84.83 170.24 C 84.15 172.97 83.77 175.88 82.24 178.31 C 81.70 177.93 80.63 177.18 80.10 176.80 C 78.38 175.16 79.23 172.66 80.18 170.86 Z" />
</g>
<g id="#e7e700ff">
<path fill="#e7e700" opacity="1.00" d=" M 20.35 179.60 C 20.07 176.30 21.63 172.22 25.62 172.50 C 25.45 174.92 24.93 177.29 24.15 179.58 C 22.88 179.58 21.61 179.59 20.35 179.60 Z" />
</g>
<g id="#112323ff">
<path fill="#112323" opacity="1.00" d=" M 43.31 180.77 C 45.64 180.58 47.99 180.57 50.33 180.66 C 50.26 181.38 50.13 182.82 50.06 183.54 C 48.01 183.86 45.92 183.75 43.86 183.73 C 43.72 182.99 43.44 181.51 43.31 180.77 Z" />
</g>
<g id="#e6e300ff">
<path fill="#e6e300" opacity="1.00" d=" M 91.91 183.93 C 93.31 183.04 94.41 179.85 96.36 181.58 C 96.34 184.28 96.69 188.38 93.80 189.68 C 93.40 189.47 92.62 189.04 92.22 188.82 C 91.60 187.47 91.31 186.04 91.37 184.52 L 91.91 183.93 Z" />
</g>
<g id="#e7e400fe">
<path fill="#e7e400" opacity="1.00" d=" M 111.32 190.60 C 111.11 186.96 111.82 181.20 116.62 181.31 C 116.50 184.38 117.40 188.26 114.66 190.48 C 113.55 190.64 112.44 190.68 111.32 190.60 Z" />
</g>
<g id="#1719198e">
<path fill="#171919" opacity="0.56" d=" M 27.37 196.70 C 30.97 198.80 33.81 202.20 37.94 203.35 C 43.40 204.97 48.37 207.93 53.98 209.08 C 58.89 210.08 63.03 213.52 68.13 213.76 C 72.74 214.06 77.35 214.46 81.86 215.44 C 87.51 216.62 93.32 216.20 98.96 215.24 C 109.61 213.52 120.38 214.97 131.01 215.94 C 136.07 216.53 140.94 214.57 145.98 214.62 C 152.36 214.93 157.55 210.67 163.34 208.70 C 163.17 210.38 161.13 210.48 159.99 211.23 C 155.72 212.80 151.79 216.02 147.01 215.63 C 142.92 215.36 139.00 216.78 134.94 216.94 C 123.99 216.59 113.03 214.59 102.07 215.89 C 94.98 217.02 87.65 217.74 80.56 216.22 C 76.39 215.44 72.18 214.97 67.95 214.77 C 62.55 214.68 58.34 210.71 53.11 209.90 C 48.06 209.16 43.82 206.15 38.96 204.83 C 34.37 203.51 30.15 200.58 27.37 196.70 Z" />
</g>
<g id="#1a1d1d94">
<path fill="#1a1d1d" opacity="0.58" d=" M 163.48 208.63 C 167.39 205.78 171.73 203.42 176.58 202.72 C 175.65 204.30 173.58 204.31 172.07 205.02 C 169.06 205.89 166.64 208.25 163.48 208.63 Z" />
</g>
</svg>
