<?xml version="1.0" encoding="UTF-8" ?>
<!DOCTYPE svg PUBLIC "-//W3C//DTD SVG 1.1//EN" "http://www.w3.org/Graphics/SVG/1.1/DTD/svg11.dtd">
<svg width="210pt" height="220pt" viewBox="0 0 210 220" version="1.1" xmlns="http://www.w3.org/2000/svg">
<g id="#a9a9a9fd">
<path fill="#a9a9a9" opacity="1.00" d=" M 73.19 10.28 C 75.85 8.74 78.65 7.25 81.77 6.95 C 84.45 8.95 87.86 10.71 88.96 14.10 C 88.66 14.93 88.29 15.73 87.85 16.50 C 85.99 13.84 83.57 11.68 80.59 10.38 C 80.20 10.11 79.43 9.57 79.04 9.30 C 77.92 9.41 75.68 9.64 74.56 9.76 C 75.04 10.24 76.01 11.21 76.49 11.70 C 69.55 12.67 62.59 13.79 55.97 16.17 C 53.12 16.92 49.93 18.79 47.20 16.71 C 48.96 16.12 50.74 15.59 52.53 15.13 L 52.33 14.56 C 54.35 14.11 56.37 13.62 58.41 13.29 C 58.85 12.87 59.74 12.02 60.18 11.60 C 61.96 11.56 63.75 11.52 65.54 11.48 L 65.52 10.63 C 68.08 10.53 70.63 10.37 73.19 10.28 Z" />
<path fill="#a9a9a9" opacity="1.00" d=" M 101.57 7.08 C 102.17 7.10 103.37 7.14 103.97 7.15 C 109.37 9.48 115.28 10.16 120.89 11.83 C 126.85 13.72 133.28 14.60 138.54 18.22 C 135.93 18.29 133.33 18.21 130.73 18.12 C 130.26 19.77 129.79 21.41 129.34 23.06 L 131.25 22.14 C 130.46 23.09 129.80 24.74 128.32 23.73 C 128.70 20.85 129.77 18.13 130.75 15.42 C 123.73 14.01 116.98 11.54 109.93 10.29 C 106.94 9.84 104.11 8.71 101.57 7.08 Z" />
<path fill="#a9a9a9" opacity="1.00" d=" M 69.13 30.03 C 74.21 33.86 80.37 36.46 84.42 41.50 C 87.18 45.66 89.72 50.07 91.09 54.90 C 87.98 55.78 84.75 55.42 81.59 55.17 C 84.86 57.57 88.50 59.77 90.75 63.25 C 91.17 64.68 90.64 65.26 89.17 65.01 C 86.48 63.53 84.19 61.46 81.69 59.71 C 80.03 58.37 78.77 56.62 78.23 54.53 C 77.36 53.93 76.48 53.34 75.61 52.76 C 73.84 52.63 72.07 52.38 70.39 51.79 C 71.12 51.78 72.60 51.76 73.34 51.76 C 73.31 51.20 73.26 50.09 73.23 49.53 C 74.90 50.21 76.56 50.90 78.23 51.59 C 78.71 51.20 79.66 50.43 80.14 50.05 C 83.12 51.61 86.01 53.32 88.92 55.01 C 88.56 51.17 86.39 47.91 84.61 44.60 C 81.61 38.44 74.70 36.10 69.48 32.27 C 69.39 31.71 69.22 30.59 69.13 30.03 Z" />
<path fill="#a9a9a9" opacity="1.00" d=" M 133.99 31.80 C 134.48 31.56 135.47 31.08 135.96 30.85 C 133.81 37.83 129.07 45.00 131.70 52.51 C 132.65 50.24 133.22 47.83 133.68 45.41 C 134.30 45.51 134.93 45.61 135.56 45.71 C 134.57 49.33 134.15 53.07 133.27 56.71 C 132.91 57.11 132.19 57.90 131.83 58.30 C 131.77 56.39 131.76 54.49 131.77 52.59 C 131.20 52.53 130.07 52.43 129.50 52.38 C 128.50 45.17 130.86 38.17 133.99 31.80 Z" />
<path fill="#a9a9a9" opacity="1.00" d=" M 164.80 36.97 C 166.49 38.62 167.93 40.49 169.44 42.30 C 168.59 42.27 166.88 42.20 166.02 42.17 C 165.75 42.04 165.19 41.77 164.92 41.64 C 165.12 41.92 165.52 42.48 165.72 42.76 C 164.67 41.50 163.58 40.29 162.49 39.08 C 163.26 38.38 164.03 37.67 164.80 36.97 Z" />
<path fill="#a9a9a9" opacity="1.00" d=" M 132.75 60.82 C 136.81 58.68 141.04 56.87 145.48 55.70 C 144.42 56.41 143.36 57.13 142.30 57.85 C 142.38 58.28 142.54 59.15 142.62 59.59 C 141.48 59.43 139.21 59.13 138.07 58.98 C 138.57 59.53 139.58 60.64 140.08 61.20 C 138.65 61.93 137.23 62.66 135.76 63.32 C 135.01 62.70 133.50 61.45 132.75 60.82 Z" />
<path fill="#a9a9a9" opacity="1.00" d=" M 149.24 58.24 C 154.25 53.93 160.89 57.93 166.13 59.65 C 165.08 61.22 162.63 62.41 163.29 64.58 C 168.04 68.34 174.47 65.25 179.71 67.61 C 179.70 68.10 179.69 69.07 179.68 69.56 C 176.15 69.04 172.62 68.44 169.10 67.86 C 165.16 67.31 160.96 68.08 157.22 66.50 C 159.14 66.43 161.07 66.34 163.00 66.25 C 162.59 65.20 162.18 64.15 161.78 63.10 C 162.59 62.06 163.40 61.03 164.22 59.99 C 159.50 58.01 154.29 56.19 149.24 58.24 Z" />
<path fill="#a9a9a9" opacity="1.00" d=" M 73.77 66.60 C 73.89 64.21 76.32 64.33 77.87 63.61 C 78.73 63.99 80.44 64.75 81.30 65.13 C 79.17 66.93 76.31 66.37 73.77 66.60 Z" />
<path fill="#a9a9a9" opacity="1.00" d=" M 37.49 65.03 C 38.87 65.56 40.09 66.68 41.65 66.63 C 50.34 66.60 59.04 66.70 67.73 66.49 C 67.59 67.76 67.46 69.04 67.32 70.31 C 69.11 70.72 70.90 71.17 72.71 71.52 C 74.28 69.69 76.45 68.78 78.76 68.33 C 79.89 67.11 81.02 65.88 82.16 64.67 C 81.98 66.25 81.78 67.83 81.58 69.41 C 76.17 73.79 69.60 76.30 63.04 78.37 C 56.12 80.59 48.74 80.11 41.67 81.50 C 41.59 81.07 41.42 80.19 41.33 79.76 C 43.23 79.40 45.12 79.03 47.00 78.60 C 48.81 74.40 54.31 75.24 56.67 71.62 C 53.75 71.15 50.80 71.14 47.86 70.90 C 47.68 70.32 47.30 69.15 47.12 68.57 C 52.38 68.52 57.64 68.63 62.90 68.52 C 52.19 68.26 41.47 68.56 30.78 68.15 C 30.60 67.44 30.24 66.02 30.05 65.31 C 32.52 65.13 35.01 64.75 37.49 65.03 Z" />
<path fill="#a9a9a9" opacity="1.00" d=" M 129.48 70.50 C 127.48 68.97 128.62 66.71 129.88 65.17 C 130.77 65.27 131.66 65.37 132.55 65.47 C 132.59 66.04 132.68 67.19 132.72 67.77 L 132.79 68.77 C 132.35 68.52 131.48 68.03 131.04 67.78 C 131.46 68.43 131.89 69.08 132.31 69.73 C 135.23 69.48 138.29 68.86 141.09 70.05 C 147.14 72.43 153.68 72.87 159.99 74.19 C 163.96 75.10 169.57 73.96 171.28 78.73 C 165.78 78.63 160.34 77.81 154.93 76.89 C 155.61 77.85 156.30 78.82 156.99 79.79 C 155.91 80.46 154.84 81.13 153.77 81.80 C 154.73 83.25 155.16 85.32 156.94 86.03 C 161.45 88.33 167.13 88.52 170.64 92.55 C 165.91 91.52 161.55 88.82 156.54 89.34 C 161.52 91.40 166.69 93.08 171.32 95.90 C 173.14 95.69 174.98 95.14 176.82 95.49 C 178.44 97.37 177.61 100.18 177.83 102.46 C 177.42 102.84 176.61 103.60 176.20 103.97 L 175.16 103.19 C 173.13 101.63 171.12 100.05 169.11 98.49 C 167.60 98.50 166.10 98.52 164.60 98.53 C 164.36 97.03 164.14 95.53 163.90 94.04 C 163.71 95.81 163.53 97.59 163.37 99.37 C 164.95 99.45 166.53 99.52 168.11 99.60 C 169.78 101.49 171.42 103.42 173.17 105.24 C 168.81 102.76 164.15 100.89 159.34 99.47 C 158.82 97.53 158.31 95.60 157.81 93.66 C 157.54 95.04 157.28 96.42 157.00 97.79 C 154.16 94.36 153.60 89.67 150.93 86.18 C 143.72 81.07 135.77 76.80 129.48 70.50 Z" />
<path fill="#a9a9a9" opacity="1.00" d=" M 8.86 68.14 C 13.12 69.51 16.41 72.67 20.14 75.01 C 22.00 76.28 24.30 77.41 24.86 79.81 C 21.67 78.22 18.81 76.07 15.91 74.04 C 13.42 72.26 10.54 70.81 8.86 68.14 Z" />
<path fill="#a9a9a9" opacity="1.00" d=" M 156.21 68.78 C 164.81 69.29 173.46 69.76 181.90 71.55 C 186.78 72.12 186.42 78.29 188.26 81.62 C 188.31 80.16 188.40 77.23 188.44 75.76 C 190.46 82.15 187.46 88.46 184.89 94.19 C 184.50 93.60 183.72 92.42 183.33 91.84 C 183.95 88.06 185.65 84.57 186.85 80.96 C 185.65 78.11 185.91 73.47 182.19 72.69 C 173.71 70.30 164.65 71.23 156.21 68.78 Z" />
<path fill="#a9a9a9" opacity="1.00" d=" M 173.06 75.66 C 170.77 75.37 168.90 74.36 167.43 72.62 C 172.59 72.94 178.01 73.16 182.86 75.15 C 183.11 75.74 183.61 76.94 183.87 77.54 C 180.19 77.48 176.53 76.89 173.06 75.66 Z" />
<path fill="#a9a9a9" opacity="1.00" d=" M 20.87 81.81 C 22.19 82.65 23.47 83.54 24.75 84.45 C 25.42 84.44 26.76 84.41 27.43 84.40 C 31.20 88.89 37.35 91.03 40.26 96.19 C 37.37 94.90 35.08 91.88 31.64 92.31 C 28.26 88.61 22.97 86.51 20.87 81.81 Z" />
<path fill="#a9a9a9" opacity="1.00" d=" M 81.17 84.70 C 80.82 81.06 84.39 82.69 86.53 82.60 C 86.57 83.10 86.66 84.09 86.70 84.59 C 85.95 84.47 84.45 84.23 83.70 84.11 C 84.10 85.19 84.90 87.37 85.30 88.45 L 84.04 86.99 C 83.84 86.76 83.43 86.28 83.23 86.04 C 81.35 87.46 79.45 88.84 77.57 90.23 C 75.98 88.81 74.33 87.47 72.68 86.12 C 74.28 86.36 75.87 86.62 77.46 86.88 C 77.76 86.36 78.37 85.31 78.67 84.78 C 79.30 84.76 80.55 84.72 81.17 84.70 Z" />
<path fill="#a9a9a9" opacity="1.00" d=" M 31.20 84.37 C 34.25 86.42 37.87 87.05 41.39 87.79 C 43.82 89.11 45.95 90.90 48.29 92.38 C 47.81 94.77 47.20 97.13 46.44 99.45 C 47.48 99.70 48.52 99.94 49.56 100.18 L 50.50 100.42 C 48.67 100.57 46.85 100.67 45.03 100.75 C 45.63 98.69 47.09 96.63 46.34 94.41 C 45.26 94.80 44.18 95.21 43.12 95.64 C 39.44 92.33 35.86 88.87 31.69 86.16 C 31.57 85.71 31.32 84.82 31.20 84.37 Z" />
<path fill="#a9a9a9" opacity="1.00" d=" M 43.81 87.30 C 47.25 87.38 50.84 87.61 53.59 89.99 C 50.15 90.08 46.20 90.26 43.81 87.30 Z" />
<path fill="#a9a9a9" opacity="1.00" d=" M 179.99 91.80 C 183.09 92.99 183.81 96.53 184.99 99.27 C 181.93 98.01 181.01 94.62 179.99 91.80 Z" />
<path fill="#a9a9a9" opacity="1.00" d=" M 174.98 93.81 C 176.05 93.65 177.11 93.49 178.19 93.33 C 179.68 96.37 181.35 99.31 183.18 102.16 C 181.49 102.78 179.78 103.39 178.07 103.96 C 178.11 101.45 178.23 98.93 178.45 96.43 C 177.31 95.54 176.14 94.67 174.98 93.81 Z" />
<path fill="#a9a9a9" opacity="1.00" d=" M 92.89 101.17 C 105.00 95.41 118.99 94.86 131.94 97.78 C 137.38 99.05 143.26 99.60 147.89 103.02 C 151.29 105.48 154.99 107.69 157.68 110.95 C 157.26 111.34 156.40 112.10 155.98 112.48 C 151.89 110.44 148.91 106.77 144.90 104.59 C 141.10 102.35 136.63 101.87 132.43 100.82 C 119.24 97.59 104.64 98.12 92.54 104.71 C 88.71 107.01 84.55 110.39 84.47 115.26 C 81.01 116.10 81.16 111.67 82.71 109.75 C 85.32 106.11 88.84 103.12 92.89 101.17 Z" />
<path fill="#a9a9a9" opacity="1.00" d=" M 125.76 110.30 C 127.13 110.15 128.49 110.00 129.86 109.83 C 131.52 110.09 133.19 110.34 134.87 110.55 L 134.95 111.49 C 132.79 111.27 130.62 111.09 128.46 110.91 C 129.13 112.90 129.82 114.88 130.55 116.84 C 130.15 116.67 129.33 116.33 128.92 116.16 C 128.40 115.11 129.02 112.52 127.18 113.17 C 126.35 114.15 125.58 115.18 124.82 116.21 C 124.01 116.38 123.21 116.54 122.41 116.71 L 123.00 116.17 C 123.42 115.77 124.27 114.97 124.70 114.57 C 125.09 113.15 125.44 111.73 125.76 110.30 Z" />
<path fill="#a9a9a9" opacity="1.00" d=" M 101.57 134.64 C 103.41 133.22 105.87 133.42 108.06 133.36 C 109.03 137.96 110.32 142.60 109.50 147.34 C 109.19 142.77 108.27 138.28 107.12 133.86 C 105.43 134.28 103.73 134.69 102.04 135.10 C 100.27 138.97 100.00 143.23 100.38 147.42 C 99.52 147.41 98.66 147.41 97.80 147.41 C 96.86 144.69 95.90 141.98 94.84 139.31 C 93.40 140.18 91.91 141.12 91.50 142.88 C 90.97 142.84 89.91 142.77 89.37 142.74 C 89.42 144.28 89.47 145.82 89.50 147.37 L 88.72 147.42 C 88.54 144.36 88.34 141.28 87.54 138.31 C 84.85 138.48 82.65 140.32 80.35 141.52 C 81.68 138.50 85.33 137.45 88.38 137.27 C 88.61 137.91 89.06 139.19 89.29 139.84 C 91.15 140.73 92.82 139.21 94.33 138.33 C 97.14 140.41 97.74 144.00 99.17 146.97 C 99.51 142.82 98.64 138.10 101.57 134.64 Z" />
<path fill="#a9a9a9" opacity="1.00" d=" M 57.95 149.61 C 58.39 145.17 57.04 139.87 59.90 136.09 C 58.88 141.70 59.65 147.41 59.14 153.05 C 58.53 153.32 57.32 153.87 56.72 154.15 C 56.70 153.25 56.66 151.45 56.64 150.55 C 55.84 151.20 54.22 152.50 53.42 153.15 C 53.17 148.49 54.73 144.00 54.69 139.36 C 50.77 142.89 51.21 148.49 49.88 153.17 C 50.69 155.88 51.58 158.56 52.42 161.26 C 49.82 158.47 48.43 154.36 49.33 150.60 C 50.04 146.57 50.66 142.31 53.09 138.89 C 56.00 137.28 56.13 141.12 55.82 143.04 C 55.44 145.58 54.70 148.04 54.13 150.54 C 55.09 150.31 57.00 149.84 57.95 149.61 Z" />
<path fill="#a9a9a9" opacity="1.00" d=" M 72.04 142.58 C 73.42 141.88 74.94 141.59 76.46 141.35 C 77.07 143.62 77.51 145.93 77.90 148.25 L 77.07 148.52 C 76.65 146.69 76.24 144.87 75.83 143.05 C 74.56 142.90 73.30 142.75 72.04 142.58 Z" />
<path fill="#a9a9a9" opacity="1.00" d=" M 159.82 142.61 C 161.66 142.75 163.48 143.04 165.24 143.62 C 167.17 147.93 168.23 152.54 169.13 157.16 C 170.38 155.07 169.78 152.55 170.44 150.32 C 171.56 149.56 173.38 151.31 172.63 152.45 C 172.28 152.48 171.59 152.56 171.24 152.60 C 170.61 155.50 171.78 158.31 172.76 160.99 C 171.12 160.08 169.53 159.02 167.67 158.62 C 167.83 154.02 166.76 149.38 164.65 145.29 C 163.87 143.55 161.56 144.32 160.07 143.86 C 160.19 147.43 159.74 151.14 160.82 154.59 C 162.59 155.80 164.51 156.76 166.35 157.87 C 164.10 157.12 161.44 156.99 159.67 155.26 C 159.30 151.07 158.15 146.66 159.82 142.61 Z" />
<path fill="#a9a9a9" opacity="1.00" d=" M 180.18 153.03 C 181.11 153.30 182.03 153.62 182.94 153.98 C 183.79 156.91 184.19 159.94 184.75 162.94 C 184.16 163.02 183.00 163.18 182.41 163.26 L 181.48 163.11 C 181.07 163.68 180.27 164.82 179.87 165.39 C 178.87 162.83 177.87 160.24 177.54 157.50 L 178.49 156.09 C 179.02 158.29 178.64 161.05 180.72 162.56 C 181.19 159.37 180.59 156.19 180.18 153.03 Z" />
<path fill="#a9a9a9" opacity="1.00" d=" M 186.34 155.20 C 186.93 155.21 188.13 155.24 188.73 155.25 C 189.32 160.35 187.97 165.61 184.70 169.60 C 181.89 171.33 178.90 169.56 177.74 166.81 C 179.67 168.37 182.04 169.01 184.50 169.00 C 186.15 165.81 187.60 162.49 188.19 158.92 L 185.98 159.92 C 186.08 158.34 186.21 156.77 186.34 155.20 Z" />
<path fill="#a9a9a9" opacity="1.00" d=" M 46.37 168.10 C 50.89 169.19 51.66 174.46 54.54 177.47 C 59.97 183.60 64.83 190.42 71.56 195.24 C 75.65 198.24 79.73 201.29 84.15 203.79 C 90.12 207.36 96.81 209.43 103.21 212.07 C 109.05 213.25 115.10 212.35 121.03 212.63 L 119.24 210.46 C 124.17 210.71 129.13 210.95 134.02 210.16 C 131.38 209.79 128.72 209.57 126.07 209.17 L 124.70 208.95 C 129.12 208.64 133.66 209.11 137.99 207.99 C 141.26 206.57 143.74 203.80 145.84 200.99 C 151.83 191.88 154.27 180.30 151.35 169.68 C 154.34 170.44 157.44 170.54 160.45 169.79 C 159.49 176.35 160.09 183.50 156.53 189.39 C 153.24 195.28 149.80 201.16 145.29 206.20 C 142.59 209.35 138.67 210.93 135.02 212.66 C 138.72 212.67 142.42 212.64 146.12 212.57 C 149.89 204.97 155.73 198.44 158.00 190.12 C 160.55 184.14 160.71 177.51 162.98 171.46 C 165.93 177.87 162.81 184.74 160.93 190.97 C 158.81 198.32 154.14 204.45 150.12 210.82 C 150.14 211.09 150.16 211.61 150.18 211.88 C 153.03 212.64 155.88 210.82 158.69 210.31 C 157.38 211.17 156.06 212.03 154.76 212.91 C 120.14 213.12 85.54 212.83 50.92 213.00 C 50.75 212.55 50.42 211.65 50.26 211.20 C 52.95 212.64 56.03 212.71 59.01 212.65 C 71.08 212.45 83.15 212.71 95.22 212.54 C 91.97 210.86 88.59 209.45 85.30 207.86 C 79.16 204.91 74.01 200.37 68.52 196.41 C 64.87 193.79 61.66 190.62 58.83 187.14 C 53.94 181.36 48.02 175.81 46.37 168.10 Z" />
</g>
<g id="#fefefeff">
<path fill="#fefefe" opacity="1.00" d=" M 81.77 6.95 C 82.53 6.96 84.05 6.98 84.81 6.99 C 85.11 7.17 85.70 7.52 86.00 7.69 C 87.92 9.62 89.81 11.58 91.73 13.52 C 92.29 13.40 93.42 13.16 93.98 13.04 C 93.71 12.90 93.15 12.60 92.88 12.46 C 91.31 10.54 89.56 8.79 87.83 7.03 C 92.41 7.04 96.99 6.97 101.57 7.08 C 104.11 8.71 106.94 9.84 109.93 10.29 C 116.98 11.54 123.73 14.01 130.75 15.42 C 129.77 18.13 128.70 20.85 128.32 23.73 C 129.80 24.74 130.46 23.09 131.25 22.14 C 131.51 21.82 132.04 21.18 132.30 20.86 C 135.38 19.91 138.65 19.08 141.90 19.48 C 150.91 23.30 157.59 30.63 164.80 36.97 C 164.03 37.67 163.26 38.38 162.49 39.08 C 163.58 40.29 164.67 41.50 165.72 42.76 C 170.56 49.52 175.40 56.33 179.19 63.76 C 178.10 63.62 177.01 63.47 175.93 63.32 C 171.70 58.69 165.66 56.97 159.94 55.00 C 155.19 53.94 150.08 53.99 145.48 55.70 C 141.04 56.87 136.81 58.68 132.75 60.82 C 133.50 61.45 135.01 62.70 135.76 63.32 C 135.05 63.53 134.34 63.73 133.62 63.92 C 133.58 63.34 133.50 62.19 133.46 61.61 L 132.00 61.64 C 131.69 62.19 131.09 63.29 130.79 63.84 L 129.88 65.17 C 128.62 66.71 127.48 68.97 129.48 70.50 C 135.77 76.80 143.72 81.07 150.93 86.18 C 153.60 89.67 154.16 94.36 157.00 97.79 C 157.28 96.42 157.54 95.04 157.81 93.66 C 158.31 95.60 158.82 97.53 159.34 99.47 C 164.15 100.89 168.81 102.76 173.17 105.24 C 174.33 105.88 175.52 106.48 176.71 107.07 C 176.54 106.03 176.41 105.00 176.20 103.97 C 176.61 103.60 177.42 102.84 177.83 102.46 C 177.61 100.18 178.44 97.37 176.82 95.49 C 174.98 95.14 173.14 95.69 171.32 95.90 C 166.69 93.08 161.52 91.40 156.54 89.34 C 161.55 88.82 165.91 91.52 170.64 92.55 C 167.13 88.52 161.45 88.33 156.94 86.03 C 155.16 85.32 154.73 83.25 153.77 81.80 C 154.84 81.13 155.91 80.46 156.99 79.79 C 156.30 78.82 155.61 77.85 154.93 76.89 C 160.34 77.81 165.78 78.63 171.28 78.73 C 169.57 73.96 163.96 75.10 159.99 74.19 C 153.68 72.87 147.14 72.43 141.09 70.05 C 138.29 68.86 135.23 69.48 132.31 69.73 C 131.89 69.08 131.46 68.43 131.04 67.78 C 131.48 68.03 132.35 68.52 132.79 68.77 L 132.72 67.77 C 134.79 68.37 136.93 68.64 139.06 68.97 C 140.78 69.33 142.51 69.67 144.24 69.99 L 143.03 68.51 C 147.42 68.69 151.82 68.49 156.21 68.78 C 164.65 71.23 173.71 70.30 182.19 72.69 C 185.91 73.47 185.65 78.11 186.85 80.96 C 185.65 84.57 183.95 88.06 183.33 91.84 C 183.72 92.42 184.50 93.60 184.89 94.19 C 187.46 88.46 190.46 82.15 188.44 75.76 C 188.04 73.72 187.28 71.78 186.43 69.90 C 185.30 69.05 183.88 68.40 183.28 67.04 C 180.07 61.03 176.89 54.83 172.01 49.97 C 169.67 47.64 167.96 44.81 166.02 42.17 C 166.88 42.20 168.59 42.27 169.44 42.30 C 177.37 51.37 184.30 61.39 189.30 72.38 C 190.83 76.27 192.33 80.18 194.05 84.00 C 196.04 88.45 196.68 93.33 198.19 97.94 C 198.35 98.48 198.66 99.55 198.81 100.09 C 199.62 102.74 200.34 105.42 201.06 108.10 C 201.34 110.75 201.44 113.43 202.02 116.05 C 203.32 120.61 203.31 125.37 204.14 130.01 C 204.98 147.05 205.05 164.13 204.42 181.17 C 201.47 186.72 197.13 191.36 192.53 195.56 C 185.56 200.75 177.06 203.00 169.21 206.42 C 167.79 206.89 166.37 207.36 164.95 207.80 C 162.86 208.62 160.77 209.46 158.69 210.31 C 155.88 210.82 153.03 212.64 150.18 211.88 C 150.16 211.61 150.14 211.09 150.12 210.82 C 154.14 204.45 158.81 198.32 160.93 190.97 C 162.81 184.74 165.93 177.87 162.98 171.46 C 160.71 177.51 160.55 184.14 158.00 190.12 C 155.73 198.44 149.89 204.97 146.12 212.57 C 142.42 212.64 138.72 212.67 135.02 212.66 C 138.67 210.93 142.59 209.35 145.29 206.20 C 149.80 201.16 153.24 195.28 156.53 189.39 C 160.09 183.50 159.49 176.35 160.45 169.79 C 157.44 170.54 154.34 170.44 151.35 169.68 C 154.27 180.30 151.83 191.88 145.84 200.99 C 143.74 203.80 141.26 206.57 137.99 207.99 C 133.66 209.11 129.12 208.64 124.70 208.95 C 120.43 208.69 116.25 207.82 112.05 207.03 C 110.71 206.60 109.38 206.18 108.05 205.72 C 106.07 205.03 104.09 204.35 102.13 203.62 C 100.36 203.13 98.58 202.66 96.79 202.27 C 89.48 198.88 82.35 195.13 75.12 191.57 C 74.09 191.46 73.06 191.35 72.03 191.24 C 73.60 192.34 75.21 193.39 76.84 194.40 C 83.81 197.05 89.87 201.69 97.06 203.79 C 98.34 204.27 99.62 204.75 100.89 205.23 C 103.60 206.22 106.34 207.14 109.11 207.95 C 110.43 208.27 111.75 208.57 113.08 208.88 C 115.13 209.43 117.19 209.92 119.24 210.46 L 121.03 212.63 C 115.10 212.35 109.05 213.25 103.21 212.07 C 96.81 209.43 90.12 207.36 84.15 203.79 C 79.73 201.29 75.65 198.24 71.56 195.24 C 64.83 190.42 59.97 183.60 54.54 177.47 C 51.66 174.46 50.89 169.19 46.37 168.10 C 48.02 175.81 53.94 181.36 58.83 187.14 C 61.66 190.62 64.87 193.79 68.52 196.41 C 74.01 200.37 79.16 204.91 85.30 207.86 C 88.59 209.45 91.97 210.86 95.22 212.54 C 83.15 212.71 71.08 212.45 59.01 212.65 C 56.03 212.71 52.95 212.64 50.26 211.20 C 45.04 207.67 39.80 204.12 35.03 200.01 C 29.81 194.55 24.02 189.59 19.43 183.56 C 16.33 180.00 12.58 177.04 9.61 173.38 C 7.00 168.22 3.25 163.81 0.00 159.06 L 0.00 46.07 C 2.86 44.23 5.47 41.96 7.17 38.97 C 7.60 38.72 8.47 38.24 8.90 37.99 C 12.42 33.95 16.97 30.92 21.97 29.02 C 30.18 24.69 39.19 22.20 47.49 18.07 C 47.42 17.73 47.27 17.05 47.20 16.71 C 49.93 18.79 53.12 16.92 55.97 16.17 C 62.59 13.79 69.55 12.67 76.49 11.70 C 78.55 13.68 80.90 15.32 83.26 16.93 C 83.62 17.22 84.35 17.78 84.72 18.07 C 84.07 15.17 82.48 12.62 80.59 10.38 C 83.57 11.68 85.99 13.84 87.85 16.50 C 88.29 15.73 88.66 14.93 88.96 14.10 C 87.86 10.71 84.45 8.95 81.77 6.95 M 69.13 30.03 C 69.22 30.59 69.39 31.71 69.48 32.27 C 74.70 36.10 81.61 38.44 84.61 44.60 C 86.39 47.91 88.56 51.17 88.92 55.01 C 86.01 53.32 83.12 51.61 80.14 50.05 C 79.66 50.43 78.71 51.20 78.23 51.59 C 76.56 50.90 74.90 50.21 73.23 49.53 C 73.26 50.09 73.31 51.20 73.34 51.76 C 72.60 51.76 71.12 51.78 70.39 51.79 C 65.13 49.71 59.50 49.45 53.93 49.03 C 51.04 48.45 48.06 48.55 45.17 47.96 C 43.64 47.82 42.11 47.67 40.57 47.54 L 40.47 48.27 C 37.18 48.34 33.87 48.39 30.61 48.79 C 26.01 49.90 21.60 51.63 17.13 53.17 C 15.44 53.66 13.76 54.18 12.07 54.69 C 12.23 55.50 12.40 56.32 12.56 57.13 C 16.28 57.29 19.87 58.27 23.54 58.78 L 23.49 59.40 C 26.47 59.65 29.47 59.80 32.47 59.71 L 32.42 60.38 C 37.97 60.70 43.39 62.11 48.99 61.77 C 53.37 62.99 58.02 62.18 62.50 62.69 L 62.46 63.38 C 66.15 63.76 69.95 63.33 73.56 64.27 C 70.82 64.61 68.04 64.52 65.28 64.55 L 65.86 65.47 C 59.01 65.29 52.14 65.29 45.29 65.41 L 45.56 64.44 C 44.04 64.58 42.52 64.71 41.00 64.84 L 40.16 64.81 C 38.86 64.52 37.58 64.18 36.31 63.76 C 32.73 63.55 29.05 63.01 25.53 63.97 C 29.42 65.18 33.72 63.70 37.49 65.03 C 35.01 64.75 32.52 65.13 30.05 65.31 C 30.24 66.02 30.60 67.44 30.78 68.15 C 41.47 68.56 52.19 68.26 62.90 68.52 C 57.64 68.63 52.38 68.52 47.12 68.57 C 47.30 69.15 47.68 70.32 47.86 70.90 C 50.80 71.14 53.75 71.15 56.67 71.62 C 54.31 75.24 48.81 74.40 47.00 78.60 C 45.12 79.03 43.23 79.40 41.33 79.76 C 41.42 80.19 41.59 81.07 41.67 81.50 C 48.74 80.11 56.12 80.59 63.04 78.37 C 69.60 76.30 76.17 73.79 81.58 69.41 C 81.78 67.83 81.98 66.25 82.16 64.67 C 83.58 64.66 84.99 64.63 86.41 64.57 C 84.93 62.86 83.33 61.26 81.69 59.71 C 84.19 61.46 86.48 63.53 89.17 65.01 C 90.64 65.26 91.17 64.68 90.75 63.25 C 88.50 59.77 84.86 57.57 81.59 55.17 C 84.75 55.42 87.98 55.78 91.09 54.90 C 89.72 50.07 87.18 45.66 84.42 41.50 C 80.37 36.46 74.21 33.86 69.13 30.03 M 133.99 31.80 C 130.86 38.17 128.50 45.17 129.50 52.38 C 130.07 52.43 131.20 52.53 131.77 52.59 C 131.76 54.49 131.77 56.39 131.83 58.30 C 132.19 57.90 132.91 57.11 133.27 56.71 C 134.15 53.07 134.57 49.33 135.56 45.71 C 134.93 45.61 134.30 45.51 133.68 45.41 C 133.22 47.83 132.65 50.24 131.70 52.51 C 129.07 45.00 133.81 37.83 135.96 30.85 C 135.47 31.08 134.48 31.56 133.99 31.80 M 3.50 48.22 C 3.50 49.25 3.50 50.28 3.50 51.30 C 4.47 51.76 6.41 52.67 7.38 53.13 C 6.11 53.74 4.82 54.35 3.50 54.87 C 3.56 55.25 3.68 56.00 3.74 56.38 C 5.21 56.30 6.67 56.22 8.13 56.11 L 5.91 55.17 C 7.07 54.10 8.23 53.01 9.43 51.98 C 9.35 51.75 9.21 51.27 9.13 51.04 C 7.72 50.32 6.32 49.56 4.97 48.73 C 4.60 48.60 3.87 48.35 3.50 48.22 M 10.89 64.08 C 11.68 64.76 12.52 65.36 13.43 65.88 L 13.37 66.59 L 14.50 66.44 L 14.61 67.10 C 16.49 68.50 18.24 70.06 19.95 71.65 C 20.32 71.59 21.07 71.47 21.44 71.41 L 21.56 72.73 C 22.04 72.66 23.00 72.51 23.48 72.44 L 23.51 73.84 C 23.97 73.73 24.88 73.52 25.34 73.41 C 25.52 74.03 25.87 75.28 26.05 75.90 C 26.13 75.55 26.29 74.84 26.38 74.49 C 27.25 74.34 28.12 74.19 28.99 74.02 C 28.34 73.87 27.04 73.56 26.39 73.40 L 26.42 72.30 C 25.97 72.38 25.08 72.55 24.63 72.64 L 24.37 71.32 C 23.92 71.40 23.01 71.55 22.56 71.62 L 22.35 70.27 C 21.91 70.37 21.01 70.57 20.57 70.67 L 20.61 69.86 C 20.23 69.53 19.48 68.86 19.10 68.53 L 18.47 68.57 L 18.39 67.84 C 16.77 66.64 15.20 65.37 13.54 64.21 L 13.34 63.90 C 11.96 62.81 10.60 61.70 9.21 60.63 C 9.38 61.99 9.51 63.42 10.89 64.08 M 8.86 68.14 C 10.54 70.81 13.42 72.26 15.91 74.04 C 18.81 76.07 21.67 78.22 24.86 79.81 C 24.30 77.41 22.00 76.28 20.14 75.01 C 16.41 72.67 13.12 69.51 8.86 68.14 M 173.06 75.66 C 176.53 76.89 180.19 77.48 183.87 77.54 C 183.61 76.94 183.11 75.74 182.86 75.15 C 178.01 73.16 172.59 72.94 167.43 72.62 C 168.90 74.36 170.77 75.37 173.06 75.66 M 20.87 81.81 C 22.97 86.51 28.26 88.61 31.64 92.31 C 35.08 91.88 37.37 94.90 40.26 96.19 C 37.35 91.03 31.20 88.89 27.43 84.40 C 26.76 84.41 25.42 84.44 24.75 84.45 C 23.47 83.54 22.19 82.65 20.87 81.81 M 81.17 84.70 C 80.55 84.72 79.30 84.76 78.67 84.78 C 78.37 85.31 77.76 86.36 77.46 86.88 C 75.87 86.62 74.28 86.36 72.68 86.12 C 74.33 87.47 75.98 88.81 77.57 90.23 C 76.16 90.32 74.75 90.40 73.34 90.47 L 73.60 91.92 C 73.09 91.75 72.07 91.41 71.56 91.24 L 71.67 92.39 C 68.90 92.37 66.13 92.49 63.36 92.47 L 63.71 91.52 C 61.78 91.41 59.53 92.12 57.93 90.64 C 54.84 90.49 51.75 90.27 48.65 90.31 C 48.56 90.83 48.38 91.86 48.29 92.38 C 45.95 90.90 43.82 89.11 41.39 87.79 C 37.87 87.05 34.25 86.42 31.20 84.37 C 31.32 84.82 31.57 85.71 31.69 86.16 C 35.86 88.87 39.44 92.33 43.12 95.64 C 44.18 95.21 45.26 94.80 46.34 94.41 C 47.09 96.63 45.63 98.69 45.03 100.75 C 46.85 100.67 48.67 100.57 50.50 100.42 L 49.56 100.18 C 49.62 97.58 49.59 94.98 49.55 92.38 C 51.91 92.39 54.26 92.41 56.61 92.50 L 56.40 93.66 L 57.68 93.20 L 57.53 94.38 C 61.52 94.31 65.51 94.42 69.50 94.55 L 69.35 93.42 C 70.62 93.46 71.90 93.49 73.17 93.51 C 75.05 92.24 77.34 91.90 79.51 91.40 L 79.35 90.73 C 79.74 90.45 80.53 89.88 80.92 89.59 C 81.17 89.58 81.68 89.54 81.93 89.53 C 82.46 88.89 83.51 87.63 84.04 86.99 L 85.30 88.45 C 84.90 87.37 84.10 85.19 83.70 84.11 C 84.45 84.23 85.95 84.47 86.70 84.59 C 86.66 84.09 86.57 83.10 86.53 82.60 C 84.39 82.69 80.82 81.06 81.17 84.70 M 43.81 87.30 C 46.20 90.26 50.15 90.08 53.59 89.99 C 50.84 87.61 47.25 87.38 43.81 87.30 M 179.99 91.80 C 181.01 94.62 181.93 98.01 184.99 99.27 C 183.81 96.53 183.09 92.99 179.99 91.80 M 174.98 93.81 C 176.14 94.67 177.31 95.54 178.45 96.43 C 178.23 98.93 178.11 101.45 178.07 103.96 C 179.78 103.39 181.49 102.78 183.18 102.16 C 181.35 99.31 179.68 96.37 178.19 93.33 C 177.11 93.49 176.05 93.65 174.98 93.81 M 92.89 101.17 C 88.84 103.12 85.32 106.11 82.71 109.75 C 81.16 111.67 81.01 116.10 84.47 115.26 C 84.55 110.39 88.71 107.01 92.54 104.71 C 104.64 98.12 119.24 97.59 132.43 100.82 C 136.63 101.87 141.10 102.35 144.90 104.59 C 148.91 106.77 151.89 110.44 155.98 112.48 C 156.40 112.10 157.26 111.34 157.68 110.95 C 154.99 107.69 151.29 105.48 147.89 103.02 C 143.26 99.60 137.38 99.05 131.94 97.78 C 118.99 94.86 105.00 95.41 92.89 101.17 M 109.46 108.65 L 109.59 109.43 C 108.24 109.49 106.89 109.56 105.53 109.62 L 105.47 110.24 C 104.28 110.37 103.09 110.52 101.90 110.68 C 99.90 111.49 97.85 112.19 95.77 112.75 C 93.52 113.83 91.25 114.86 88.94 115.81 C 88.02 116.33 87.10 116.84 86.18 117.35 C 85.64 117.56 84.56 117.99 84.02 118.20 C 81.48 119.52 79.08 121.08 76.70 122.66 C 72.66 126.08 68.33 129.25 65.15 133.54 L 64.61 133.30 C 64.37 134.63 64.12 135.96 63.81 137.28 C 63.37 134.72 64.15 132.27 64.94 129.87 C 65.27 128.78 65.57 127.68 65.84 126.57 L 66.40 126.56 C 67.40 125.19 68.47 123.84 68.99 122.19 C 68.46 122.31 67.40 122.54 66.86 122.65 C 65.22 124.94 64.04 127.51 62.66 129.96 C 61.97 131.52 61.33 133.11 60.65 134.68 C 60.46 135.04 60.09 135.74 59.90 136.09 C 57.04 139.87 58.39 145.17 57.95 149.61 C 57.00 149.84 55.09 150.31 54.13 150.54 C 54.70 148.04 55.44 145.58 55.82 143.04 C 56.13 141.12 56.00 137.28 53.09 138.89 C 50.66 142.31 50.04 146.57 49.33 150.60 C 48.43 154.36 49.82 158.47 52.42 161.26 C 52.50 161.50 52.65 161.98 52.73 162.22 C 54.31 162.82 55.88 163.44 57.46 164.03 C 57.57 161.15 56.38 157.13 59.78 155.72 C 61.60 155.23 63.37 154.63 65.16 154.06 C 66.57 153.69 68.00 153.44 69.43 153.19 L 69.47 152.69 C 70.64 152.46 71.81 152.22 72.97 151.96 C 74.28 151.57 75.59 151.18 76.89 150.74 C 78.29 150.51 79.68 150.29 81.07 150.03 C 87.64 149.08 94.32 149.84 100.93 149.64 C 105.68 149.74 110.50 149.14 115.20 150.13 C 119.42 150.64 123.82 149.70 127.92 151.20 C 129.76 151.41 131.61 151.58 133.46 151.71 L 133.54 152.28 C 139.16 152.47 144.65 153.80 150.16 154.85 C 151.37 155.31 152.59 155.76 153.80 156.23 C 155.26 156.72 156.71 157.25 158.18 157.76 C 160.44 158.52 162.73 159.21 164.95 160.10 C 166.57 160.85 168.21 161.54 169.85 162.25 C 172.12 163.15 174.29 164.29 176.27 165.74 C 176.64 166.00 177.37 166.54 177.74 166.81 C 178.90 169.56 181.89 171.33 184.70 169.60 C 187.97 165.61 189.32 160.35 188.73 155.25 C 188.13 155.24 186.93 155.21 186.34 155.20 C 186.21 156.77 186.08 158.34 185.98 159.92 C 185.43 161.18 184.99 162.47 184.52 163.76 C 183.99 163.63 182.94 163.38 182.41 163.26 C 183.00 163.18 184.16 163.02 184.75 162.94 C 184.19 159.94 183.79 156.91 182.94 153.98 C 182.03 153.62 181.11 153.30 180.18 153.03 C 180.59 156.19 181.19 159.37 180.72 162.56 C 178.64 161.05 179.02 158.29 178.49 156.09 L 177.54 157.50 C 177.48 157.11 177.36 156.33 177.30 155.94 C 176.70 154.69 176.12 153.45 175.54 152.20 C 174.96 150.74 176.34 147.43 174.07 147.43 C 174.69 145.72 174.30 143.96 173.87 142.27 C 173.51 141.50 172.80 139.95 172.44 139.18 C 172.51 138.78 172.66 138.00 172.73 137.61 L 171.89 137.56 C 171.46 136.37 171.00 135.19 170.52 134.03 C 170.52 133.75 170.51 133.18 170.51 132.89 C 169.78 131.95 169.06 131.01 168.33 130.07 L 168.63 128.80 C 168.39 128.70 167.92 128.49 167.68 128.38 C 167.44 127.82 166.97 126.70 166.73 126.14 L 166.40 125.81 C 165.24 124.15 164.33 122.21 162.58 121.08 C 162.42 120.79 162.10 120.20 161.95 119.91 C 161.83 120.54 161.59 121.78 161.47 122.41 L 162.23 122.48 C 163.02 123.84 163.85 125.17 164.67 126.51 L 165.25 126.60 C 166.43 128.91 167.59 131.23 168.66 133.59 L 169.39 133.42 C 169.43 134.22 169.50 135.81 169.53 136.60 L 170.51 136.39 C 170.51 137.23 170.51 138.91 170.50 139.75 L 171.58 139.36 C 171.54 141.08 171.49 142.81 171.35 144.53 C 170.89 143.14 170.57 141.70 170.24 140.27 L 169.33 140.42 C 169.41 139.98 169.57 139.10 169.65 138.65 L 168.39 138.35 C 168.42 138.01 168.47 137.31 168.49 136.97 C 166.75 134.80 165.21 132.48 163.66 130.18 C 163.20 129.27 162.74 128.36 162.29 127.45 L 161.49 127.50 L 161.56 126.82 C 161.20 126.49 160.49 125.83 160.13 125.50 L 159.91 125.28 C 158.46 123.35 156.81 121.59 155.16 119.83 C 152.48 117.54 150.07 114.90 147.03 113.07 C 145.31 112.34 143.65 111.48 142.05 110.53 C 141.77 110.49 141.22 110.40 140.95 110.36 C 138.34 108.85 135.46 108.01 132.43 108.33 L 132.47 107.62 C 126.17 107.61 119.87 107.63 113.58 107.61 L 113.60 108.43 C 112.22 108.51 110.84 108.58 109.46 108.65 M 46.79 175.87 C 46.65 177.57 46.55 179.29 46.46 181.00 C 47.30 181.66 48.14 182.31 48.97 182.97 C 49.16 183.37 49.54 184.18 49.73 184.58 L 50.10 184.64 C 50.69 185.59 51.43 186.39 52.34 187.06 C 52.36 187.39 52.41 188.07 52.44 188.40 L 53.14 188.59 C 53.76 189.39 54.37 190.18 54.99 190.99 C 55.68 191.63 56.36 192.27 57.04 192.93 C 60.76 197.21 65.20 200.77 69.18 204.80 C 70.86 206.45 72.18 209.19 75.00 208.39 C 74.71 208.13 74.14 207.61 73.85 207.35 C 69.61 201.79 63.65 197.91 59.02 192.72 L 58.38 192.53 L 58.63 191.38 L 57.42 191.57 L 57.56 190.84 C 57.21 190.48 56.52 189.77 56.17 189.41 L 55.87 189.49 C 54.66 187.82 53.39 186.20 52.18 184.54 L 51.90 184.31 C 51.25 183.54 50.60 182.78 49.94 182.02 C 48.84 179.99 47.80 177.94 46.79 175.87 Z" />
<path fill="#fefefe" opacity="1.00" d=" M 41.68 50.33 C 44.81 50.32 47.92 50.61 51.04 50.90 C 54.71 51.60 58.48 51.68 62.22 51.79 C 63.47 52.23 64.72 52.66 65.97 53.12 C 68.85 53.43 71.47 54.64 74.07 55.83 C 74.58 56.11 75.59 56.67 76.09 56.95 C 76.43 57.40 77.11 58.29 77.45 58.73 L 77.49 59.33 C 78.01 59.62 79.06 60.22 79.58 60.52 C 79.63 61.00 79.72 61.94 79.76 62.41 C 78.00 62.37 76.23 62.35 74.47 62.36 L 74.46 61.62 C 71.12 61.65 67.78 61.52 64.45 61.33 L 64.49 60.61 C 62.50 60.53 60.51 60.44 58.53 60.37 L 58.53 59.65 C 51.42 59.73 44.27 59.67 37.27 58.33 L 37.39 56.92 C 38.85 55.91 40.19 54.73 41.46 53.47 C 41.52 52.69 41.63 51.12 41.68 50.33 Z" />
<path fill="#fefefe" opacity="1.00" d=" M 18.37 55.20 C 20.51 54.33 23.00 53.52 24.91 55.33 L 25.19 55.70 C 27.95 56.79 30.94 56.95 33.83 57.49 C 31.05 57.33 28.27 57.32 25.49 57.38 L 25.64 56.54 C 23.92 56.48 22.21 56.38 20.49 56.30 L 20.41 55.42 L 18.37 55.20 Z" />
<path fill="#fefefe" opacity="1.00" d=" M 149.24 58.24 C 154.29 56.19 159.50 58.01 164.22 59.99 C 163.40 61.03 162.59 62.06 161.78 63.10 C 162.18 64.15 162.59 65.20 163.00 66.25 C 161.07 66.34 159.14 66.43 157.22 66.50 C 153.20 66.33 149.08 66.92 145.14 65.85 C 142.79 65.69 140.43 65.55 138.08 65.41 C 138.06 65.19 138.04 64.73 138.02 64.51 L 139.48 64.71 L 139.49 63.70 C 140.66 63.17 141.83 62.64 143.00 62.11 C 145.06 60.79 147.05 59.34 149.24 58.24 Z" />
<path fill="#fefefe" opacity="1.00" d=" M 111.67 110.93 C 113.29 110.59 114.95 110.44 116.59 110.24 C 116.58 111.33 116.57 112.41 116.56 113.50 L 115.45 113.40 L 115.36 114.41 C 114.49 114.39 113.62 114.37 112.75 114.36 C 112.22 113.27 111.32 112.23 111.67 110.93 Z" />
<path fill="#fefefe" opacity="1.00" d=" M 107.90 111.80 C 108.32 111.76 109.16 111.69 109.58 111.65 C 109.67 114.00 109.44 116.38 108.40 118.53 C 107.93 118.52 106.98 118.50 106.51 118.49 C 104.76 116.99 102.97 114.76 100.40 115.35 C 100.78 117.41 98.95 118.52 97.84 119.87 C 97.80 119.51 97.72 118.79 97.68 118.43 L 96.49 118.58 L 96.50 117.48 L 95.44 117.54 C 95.41 117.00 95.33 115.93 95.30 115.39 C 96.74 114.99 98.19 114.63 99.67 114.40 C 102.16 112.82 105.10 112.48 107.90 111.80 Z" />
<path fill="#fefefe" opacity="1.00" d=" M 119.11 110.43 C 121.33 110.32 123.54 110.29 125.76 110.30 C 125.44 111.73 125.09 113.15 124.70 114.57 C 124.27 114.97 123.42 115.77 123.00 116.17 C 121.35 114.52 119.96 112.62 119.11 110.43 Z" />
<path fill="#fefefe" opacity="1.00" d=" M 128.46 110.91 C 130.62 111.09 132.79 111.27 134.95 111.49 C 135.99 111.60 137.03 111.71 138.07 111.84 C 139.32 112.23 140.59 112.60 141.86 112.94 C 141.67 114.46 141.05 115.81 140.12 117.02 C 139.00 115.90 137.92 114.75 137.03 113.45 C 136.71 113.41 136.08 113.35 135.76 113.32 C 135.60 116.11 133.77 118.14 130.86 117.67 L 130.55 116.84 C 129.82 114.88 129.13 112.90 128.46 110.91 Z" />
<path fill="#fefefe" opacity="1.00" d=" M 114.36 136.36 C 114.35 135.16 114.36 133.96 114.39 132.76 C 119.51 131.89 124.75 132.37 129.51 134.50 C 129.55 135.84 129.60 137.18 129.64 138.52 L 130.28 138.47 C 130.36 140.54 130.48 142.61 130.58 144.68 L 129.64 144.48 C 129.68 145.96 129.72 147.44 129.75 148.92 C 127.87 148.61 126.00 148.26 124.15 147.80 C 120.24 147.31 116.30 147.46 112.38 147.45 C 112.32 144.53 112.56 141.61 112.70 138.69 C 113.25 137.91 113.80 137.14 114.36 136.36 Z" />
<path fill="#fefefe" opacity="1.00" d=" M 102.04 135.10 C 103.73 134.69 105.43 134.28 107.12 133.86 C 108.27 138.28 109.19 142.77 109.50 147.34 C 106.46 147.46 103.42 147.44 100.38 147.42 C 100.00 143.23 100.27 138.97 102.04 135.10 Z" />
<path fill="#fefefe" opacity="1.00" d=" M 80.35 141.52 C 82.65 140.32 84.85 138.48 87.54 138.31 C 88.34 141.28 88.54 144.36 88.72 147.42 C 85.94 147.42 83.17 147.43 80.40 147.52 C 80.38 145.52 80.31 143.52 80.35 141.52 Z" />
<path fill="#fefefe" opacity="1.00" d=" M 147.74 142.80 C 148.33 140.87 148.90 138.93 149.61 137.04 C 150.20 137.36 151.38 138.02 151.97 138.35 L 152.18 138.53 C 152.51 138.85 153.19 139.48 153.53 139.80 L 153.55 140.49 L 154.39 140.58 C 154.85 141.84 155.34 143.09 155.78 144.36 L 156.24 144.54 C 156.39 146.70 156.60 148.87 157.15 150.97 C 157.23 151.53 157.40 152.64 157.48 153.20 C 157.17 153.56 156.53 154.28 156.22 154.64 C 154.87 153.99 153.52 153.37 152.17 152.74 C 151.05 152.59 149.92 152.45 148.80 152.30 C 147.67 151.92 146.54 151.55 145.41 151.20 C 146.03 149.19 146.61 147.16 147.28 145.16 C 147.39 144.57 147.63 143.39 147.74 142.80 Z" />
<path fill="#fefefe" opacity="1.00" d=" M 63.06 143.00 C 63.98 140.27 66.21 138.92 69.09 139.34 C 69.37 140.59 69.67 141.84 69.98 143.09 C 70.42 145.10 70.43 147.15 70.45 149.20 C 69.79 149.33 68.49 149.60 67.83 149.74 C 66.08 150.41 64.32 151.05 62.55 151.68 C 62.53 148.79 62.34 145.84 63.06 143.00 Z" />
<path fill="#fefefe" opacity="1.00" d=" M 91.50 142.88 C 91.91 141.12 93.40 140.18 94.84 139.31 C 95.90 141.98 96.86 144.69 97.80 147.41 C 95.69 147.43 93.57 147.42 91.46 147.41 C 91.43 145.90 91.44 144.39 91.50 142.88 Z" />
<path fill="#fefefe" opacity="1.00" d=" M 133.31 141.28 L 134.53 141.66 L 134.46 140.67 C 136.48 140.69 138.49 140.70 140.51 140.68 L 140.50 141.69 L 141.79 141.56 C 141.74 141.89 141.65 142.56 141.60 142.89 C 142.42 145.49 143.24 148.11 143.79 150.79 C 139.96 150.70 136.19 150.01 132.42 149.39 L 132.52 148.49 L 131.56 148.53 C 131.55 146.50 131.55 144.48 131.56 142.46 C 131.98 142.48 132.82 142.51 133.24 142.53 L 133.31 141.28 Z" />
<path fill="#fefefe" opacity="1.00" d=" M 72.04 142.58 C 73.30 142.75 74.56 142.90 75.83 143.05 C 76.24 144.87 76.65 146.69 77.07 148.52 C 75.63 148.59 74.19 148.64 72.75 148.66 C 72.51 146.64 72.28 144.61 72.04 142.58 Z" />
<path fill="#fefefe" opacity="1.00" d=" M 160.07 143.86 C 161.56 144.32 163.87 143.55 164.65 145.29 C 166.76 149.38 167.83 154.02 167.67 158.62 L 166.35 157.87 C 164.51 156.76 162.59 155.80 160.82 154.59 C 159.74 151.14 160.19 147.43 160.07 143.86 Z" />
<path fill="#fefefe" opacity="1.00" d=" M 171.24 152.60 C 171.59 152.56 172.28 152.48 172.63 152.45 L 173.01 152.40 C 173.30 153.27 173.88 155.01 174.17 155.88 C 175.14 158.26 176.02 160.69 176.47 163.23 C 176.17 162.91 175.59 162.26 175.29 161.94 C 174.66 161.70 173.39 161.23 172.76 160.99 C 171.78 158.31 170.61 155.50 171.24 152.60 Z" />
</g>
<g id="#000000ff">
<path fill="#000000" opacity="1.00" d=" M 84.81 6.99 C 85.82 7.01 86.82 7.03 87.83 7.03 C 89.56 8.79 91.31 10.54 92.88 12.46 C 93.15 12.60 93.71 12.90 93.98 13.04 C 93.42 13.16 92.29 13.40 91.73 13.52 C 89.81 11.58 87.92 9.62 86.00 7.69 C 85.70 7.52 85.11 7.17 84.81 6.99 Z" />
<path fill="#000000" opacity="1.00" d=" M 103.97 7.15 C 111.32 6.99 118.68 7.01 126.04 6.99 C 129.47 6.93 132.77 8.06 135.86 9.45 C 143.38 12.87 151.40 15.72 157.46 21.58 C 163.04 25.57 167.73 30.54 172.20 35.69 C 179.43 42.36 185.25 50.52 189.13 59.56 C 194.48 68.73 198.93 78.47 201.78 88.71 C 203.21 93.53 206.11 97.91 206.48 103.01 C 207.19 109.30 208.29 115.56 210.00 121.66 L 210.00 185.07 C 204.95 195.96 194.23 202.55 183.71 207.35 C 179.60 209.00 175.44 210.59 171.63 212.90 C 166.01 213.06 160.38 212.93 154.76 212.91 C 156.06 212.03 157.38 211.17 158.69 210.31 C 160.77 209.46 162.86 208.62 164.95 207.80 C 166.37 207.36 167.79 206.89 169.21 206.42 C 177.06 203.00 185.56 200.75 192.53 195.56 C 197.13 191.36 201.47 186.72 204.42 181.17 C 205.05 164.13 204.98 147.05 204.14 130.01 C 203.31 125.37 203.32 120.61 202.02 116.05 C 201.44 113.43 201.34 110.75 201.06 108.10 C 200.34 105.42 199.62 102.74 198.81 100.09 C 198.66 99.55 198.35 98.48 198.19 97.94 C 196.68 93.33 196.04 88.45 194.05 84.00 C 192.33 80.18 190.83 76.27 189.30 72.38 C 184.30 61.39 177.37 51.37 169.44 42.30 C 167.93 40.49 166.49 38.62 164.80 36.97 C 157.59 30.63 150.91 23.30 141.90 19.48 C 138.65 19.08 135.38 19.91 132.30 20.86 C 132.04 21.18 131.51 21.82 131.25 22.14 L 129.34 23.06 C 129.79 21.41 130.26 19.77 130.73 18.12 C 133.33 18.21 135.93 18.29 138.54 18.22 C 133.28 14.60 126.85 13.72 120.89 11.83 C 115.28 10.16 109.37 9.48 103.97 7.15 Z" />
<path fill="#000000" opacity="1.00" d=" M 74.56 9.76 C 75.68 9.64 77.92 9.41 79.04 9.30 C 79.43 9.57 80.20 10.11 80.59 10.38 C 82.48 12.62 84.07 15.17 84.72 18.07 C 84.35 17.78 83.62 17.22 83.26 16.93 C 80.90 15.32 78.55 13.68 76.49 11.70 C 76.01 11.21 75.04 10.24 74.56 9.76 Z" />
<path fill="#000000" opacity="1.00" d=" M 164.92 41.64 C 165.19 41.77 165.75 42.04 166.02 42.17 C 167.96 44.81 169.67 47.64 172.01 49.97 C 176.89 54.83 180.07 61.03 183.28 67.04 C 183.88 68.40 185.30 69.05 186.43 69.90 C 187.28 71.78 188.04 73.72 188.44 75.76 C 188.40 77.23 188.31 80.16 188.26 81.62 C 186.42 78.29 186.78 72.12 181.90 71.55 C 173.46 69.76 164.81 69.29 156.21 68.78 C 151.82 68.49 147.42 68.69 143.03 68.51 L 144.24 69.99 C 142.51 69.67 140.78 69.33 139.06 68.97 C 136.93 68.64 134.79 68.37 132.72 67.77 C 132.68 67.19 132.59 66.04 132.55 65.47 C 131.66 65.37 130.77 65.27 129.88 65.17 L 130.79 63.84 C 131.09 63.29 131.69 62.19 132.00 61.64 L 133.46 61.61 C 133.50 62.19 133.58 63.34 133.62 63.92 C 134.34 63.73 135.05 63.53 135.76 63.32 C 137.23 62.66 138.65 61.93 140.08 61.20 C 139.58 60.64 138.57 59.53 138.07 58.98 C 139.21 59.13 141.48 59.43 142.62 59.59 C 142.54 59.15 142.38 58.28 142.30 57.85 C 143.36 57.13 144.42 56.41 145.48 55.70 C 150.08 53.99 155.19 53.94 159.94 55.00 C 165.66 56.97 171.70 58.69 175.93 63.32 C 177.01 63.47 178.10 63.62 179.19 63.76 C 175.40 56.33 170.56 49.52 165.72 42.76 C 165.52 42.48 165.12 41.92 164.92 41.64 M 149.24 58.24 C 147.05 59.34 145.06 60.79 143.00 62.11 C 141.83 62.64 140.66 63.17 139.49 63.70 L 139.48 64.71 L 138.02 64.51 C 138.04 64.73 138.06 65.19 138.08 65.41 C 140.43 65.55 142.79 65.69 145.14 65.85 C 149.08 66.92 153.20 66.33 157.22 66.50 C 160.96 68.08 165.16 67.31 169.10 67.86 C 172.62 68.44 176.15 69.04 179.68 69.56 C 179.69 69.07 179.70 68.10 179.71 67.61 C 174.47 65.25 168.04 68.34 163.29 64.58 C 162.63 62.41 165.08 61.22 166.13 59.65 C 160.89 57.93 154.25 53.93 149.24 58.24 Z" />
<path fill="#000000" opacity="1.00" d=" M 3.50 48.22 C 3.87 48.35 4.60 48.60 4.97 48.73 C 6.32 49.56 7.72 50.32 9.13 51.04 C 9.21 51.27 9.35 51.75 9.43 51.98 C 8.23 53.01 7.07 54.10 5.91 55.17 L 8.13 56.11 C 6.67 56.22 5.21 56.30 3.74 56.38 C 3.68 56.00 3.56 55.25 3.50 54.87 C 4.82 54.35 6.11 53.74 7.38 53.13 C 6.41 52.67 4.47 51.76 3.50 51.30 C 3.50 50.28 3.50 49.25 3.50 48.22 Z" />
<path fill="#000000" opacity="1.00" d=" M 30.61 48.79 C 33.87 48.39 37.18 48.34 40.47 48.27 L 40.57 47.54 C 42.11 47.67 43.64 47.82 45.17 47.96 C 48.06 48.55 51.04 48.45 53.93 49.03 C 59.50 49.45 65.13 49.71 70.39 51.79 C 72.07 52.38 73.84 52.63 75.61 52.76 C 76.48 53.34 77.36 53.93 78.23 54.53 C 78.77 56.62 80.03 58.37 81.69 59.71 C 83.33 61.26 84.93 62.86 86.41 64.57 C 84.99 64.63 83.58 64.66 82.16 64.67 C 81.02 65.88 79.89 67.11 78.76 68.33 C 76.45 68.78 74.28 69.69 72.71 71.52 C 70.90 71.17 69.11 70.72 67.32 70.31 C 67.46 69.04 67.59 67.76 67.73 66.49 C 59.04 66.70 50.34 66.60 41.65 66.63 C 40.09 66.68 38.87 65.56 37.49 65.03 C 33.72 63.70 29.42 65.18 25.53 63.97 C 29.05 63.01 32.73 63.55 36.31 63.76 C 37.58 64.18 38.86 64.52 40.16 64.81 L 41.00 64.84 C 42.52 64.71 44.04 64.58 45.56 64.44 L 45.29 65.41 C 52.14 65.29 59.01 65.29 65.86 65.47 L 65.28 64.55 C 68.04 64.52 70.82 64.61 73.56 64.27 C 69.95 63.33 66.15 63.76 62.46 63.38 L 62.50 62.69 C 58.02 62.18 53.37 62.99 48.99 61.77 C 43.39 62.11 37.97 60.70 32.42 60.38 L 32.47 59.71 C 29.47 59.80 26.47 59.65 23.49 59.40 L 23.54 58.78 C 19.87 58.27 16.28 57.29 12.56 57.13 C 12.40 56.32 12.23 55.50 12.07 54.69 C 13.76 54.18 15.44 53.66 17.13 53.17 C 21.60 51.63 26.01 49.90 30.61 48.79 M 41.68 50.33 C 41.63 51.12 41.52 52.69 41.46 53.47 C 40.19 54.73 38.85 55.91 37.39 56.92 L 37.27 58.33 C 44.27 59.67 51.42 59.73 58.53 59.65 L 58.53 60.37 C 60.51 60.44 62.50 60.53 64.49 60.61 L 64.45 61.33 C 67.78 61.52 71.12 61.65 74.46 61.62 L 74.47 62.36 C 76.23 62.35 78.00 62.37 79.76 62.41 C 79.72 61.94 79.63 61.00 79.58 60.52 C 79.06 60.22 78.01 59.62 77.49 59.33 L 77.45 58.73 C 77.11 58.29 76.43 57.40 76.09 56.95 C 75.59 56.67 74.58 56.11 74.07 55.83 C 71.47 54.64 68.85 53.43 65.97 53.12 C 64.72 52.66 63.47 52.23 62.22 51.79 C 58.48 51.68 54.71 51.60 51.04 50.90 C 47.92 50.61 44.81 50.32 41.68 50.33 M 18.37 55.20 L 20.41 55.42 L 20.49 56.30 C 22.21 56.38 23.92 56.48 25.64 56.54 L 25.49 57.38 C 28.27 57.32 31.05 57.33 33.83 57.49 C 30.94 56.95 27.95 56.79 25.19 55.70 L 24.91 55.33 C 23.00 53.52 20.51 54.33 18.37 55.20 M 73.77 66.60 C 76.31 66.37 79.17 66.93 81.30 65.13 C 80.44 64.75 78.73 63.99 77.87 63.61 C 76.32 64.33 73.89 64.21 73.77 66.60 Z" />
<path fill="#000000" opacity="1.00" d=" M 10.89 64.08 C 9.51 63.42 9.38 61.99 9.21 60.63 C 10.60 61.70 11.96 62.81 13.34 63.90 L 13.54 64.21 C 15.20 65.37 16.77 66.64 18.39 67.84 L 18.47 68.57 L 19.10 68.53 C 19.48 68.86 20.23 69.53 20.61 69.86 L 20.57 70.67 C 21.01 70.57 21.91 70.37 22.35 70.27 L 22.56 71.62 C 23.01 71.55 23.92 71.40 24.37 71.32 L 24.63 72.64 C 25.08 72.55 25.97 72.38 26.42 72.30 L 26.39 73.40 C 27.04 73.56 28.34 73.87 28.99 74.02 C 28.12 74.19 27.25 74.34 26.38 74.49 C 26.29 74.84 26.13 75.55 26.05 75.90 C 25.87 75.28 25.52 74.03 25.34 73.41 C 24.88 73.52 23.97 73.73 23.51 73.84 L 23.48 72.44 C 23.00 72.51 22.04 72.66 21.56 72.73 L 21.44 71.41 C 21.07 71.47 20.32 71.59 19.95 71.65 C 18.24 70.06 16.49 68.50 14.61 67.10 L 14.50 66.44 L 13.37 66.59 L 13.43 65.88 C 12.52 65.36 11.68 64.76 10.89 64.08 Z" />
<path fill="#000000" opacity="1.00" d=" M 77.57 90.23 C 79.45 88.84 81.35 87.46 83.23 86.04 C 83.43 86.28 83.84 86.76 84.04 86.99 C 83.51 87.63 82.46 88.89 81.93 89.53 C 81.68 89.54 81.17 89.58 80.92 89.59 C 80.53 89.88 79.74 90.45 79.35 90.73 L 79.51 91.40 C 77.34 91.90 75.05 92.24 73.17 93.51 C 71.90 93.49 70.62 93.46 69.35 93.42 L 69.50 94.55 C 65.51 94.42 61.52 94.31 57.53 94.38 L 57.68 93.20 L 56.40 93.66 L 56.61 92.50 C 54.26 92.41 51.91 92.39 49.55 92.38 C 49.59 94.98 49.62 97.58 49.56 100.18 C 48.52 99.94 47.48 99.70 46.44 99.45 C 47.20 97.13 47.81 94.77 48.29 92.38 C 48.38 91.86 48.56 90.83 48.65 90.31 C 51.75 90.27 54.84 90.49 57.93 90.64 C 59.53 92.12 61.78 91.41 63.71 91.52 L 63.36 92.47 C 66.13 92.49 68.90 92.37 71.67 92.39 L 71.56 91.24 C 72.07 91.41 73.09 91.75 73.60 91.92 L 73.34 90.47 C 74.75 90.40 76.16 90.32 77.57 90.23 Z" />
<path fill="#000000" opacity="1.00" d=" M 163.90 94.04 C 164.14 95.53 164.36 97.03 164.60 98.53 C 166.10 98.52 167.60 98.50 169.11 98.49 C 171.12 100.05 173.13 101.63 175.16 103.19 L 176.20 103.97 C 176.41 105.00 176.54 106.03 176.71 107.07 C 175.52 106.48 174.33 105.88 173.17 105.24 C 171.42 103.42 169.78 101.49 168.11 99.60 C 166.53 99.52 164.95 99.45 163.37 99.37 C 163.53 97.59 163.71 95.81 163.90 94.04 Z" />
<path fill="#000000" opacity="1.00" d=" M 109.46 108.65 C 110.84 108.58 112.22 108.51 113.60 108.43 L 113.58 107.61 C 119.87 107.63 126.17 107.61 132.47 107.62 L 132.43 108.33 C 135.46 108.01 138.34 108.85 140.95 110.36 C 141.22 110.40 141.77 110.49 142.05 110.53 C 143.65 111.48 145.31 112.34 147.03 113.07 C 150.07 114.90 152.48 117.54 155.16 119.83 C 156.81 121.59 158.46 123.35 159.91 125.28 L 160.13 125.50 C 160.49 125.83 161.20 126.49 161.56 126.82 L 161.49 127.50 L 162.29 127.45 C 162.74 128.36 163.20 129.27 163.66 130.18 C 165.21 132.48 166.75 134.80 168.49 136.97 C 168.47 137.31 168.42 138.01 168.39 138.35 L 169.65 138.65 C 169.57 139.10 169.41 139.98 169.33 140.42 L 170.24 140.27 C 170.57 141.70 170.89 143.14 171.35 144.53 C 171.49 142.81 171.54 141.08 171.58 139.36 L 170.50 139.75 C 170.51 138.91 170.51 137.23 170.51 136.39 L 169.53 136.60 C 169.50 135.81 169.43 134.22 169.39 133.42 L 168.66 133.59 C 167.59 131.23 166.43 128.91 165.25 126.60 L 164.67 126.51 C 163.85 125.17 163.02 123.84 162.23 122.48 L 161.47 122.41 C 161.59 121.78 161.83 120.54 161.95 119.91 C 162.10 120.20 162.42 120.79 162.58 121.08 C 164.33 122.21 165.24 124.15 166.40 125.81 L 166.73 126.14 C 166.97 126.70 167.44 127.82 167.68 128.38 C 167.92 128.49 168.39 128.70 168.63 128.80 L 168.33 130.07 C 169.06 131.01 169.78 131.95 170.51 132.89 C 170.51 133.18 170.52 133.75 170.52 134.03 C 171.00 135.19 171.46 136.37 171.89 137.56 L 172.73 137.61 C 172.66 138.00 172.51 138.78 172.44 139.18 C 172.80 139.95 173.51 141.50 173.87 142.27 C 174.30 143.96 174.69 145.72 174.07 147.43 C 176.34 147.43 174.96 150.74 175.54 152.20 C 176.12 153.45 176.70 154.69 177.30 155.94 C 177.36 156.33 177.48 157.11 177.54 157.50 C 177.87 160.24 178.87 162.83 179.87 165.39 C 180.27 164.82 181.07 163.68 181.48 163.11 L 182.41 163.26 C 182.94 163.38 183.99 163.63 184.52 163.76 C 184.99 162.47 185.43 161.18 185.98 159.92 L 188.19 158.92 C 187.60 162.49 186.15 165.81 184.50 169.00 C 182.04 169.01 179.67 168.37 177.74 166.81 C 177.37 166.54 176.64 166.00 176.27 165.74 C 174.29 164.29 172.12 163.15 169.85 162.25 C 168.21 161.54 166.57 160.85 164.95 160.10 C 162.73 159.21 160.44 158.52 158.18 157.76 C 156.71 157.25 155.26 156.72 153.80 156.23 C 152.59 155.76 151.37 155.31 150.16 154.85 C 144.65 153.80 139.16 152.47 133.54 152.28 L 133.46 151.71 C 131.61 151.58 129.76 151.41 127.92 151.20 C 123.82 149.70 119.42 150.64 115.20 150.13 C 110.50 149.14 105.68 149.74 100.93 149.64 C 94.32 149.84 87.64 149.08 81.07 150.03 C 79.68 150.29 78.29 150.51 76.89 150.74 C 75.59 151.18 74.28 151.57 72.97 151.96 C 71.81 152.22 70.64 152.46 69.47 152.69 L 69.43 153.19 C 68.00 153.44 66.57 153.69 65.16 154.06 C 63.37 154.63 61.60 155.23 59.78 155.72 C 56.38 157.13 57.57 161.15 57.46 164.03 C 55.88 163.44 54.31 162.82 52.73 162.22 C 52.65 161.98 52.50 161.50 52.42 161.26 C 51.58 158.56 50.69 155.88 49.88 153.17 C 51.21 148.49 50.77 142.89 54.69 139.36 C 54.73 144.00 53.17 148.49 53.42 153.15 C 54.22 152.50 55.84 151.20 56.64 150.55 C 56.66 151.45 56.70 153.25 56.72 154.15 C 57.32 153.87 58.53 153.32 59.14 153.05 C 59.65 147.41 58.88 141.70 59.90 136.09 C 60.09 135.74 60.46 135.04 60.65 134.68 C 61.33 133.11 61.97 131.52 62.66 129.96 C 64.04 127.51 65.22 124.94 66.86 122.65 C 67.40 122.54 68.46 122.31 68.99 122.19 C 68.47 123.84 67.40 125.19 66.40 126.56 L 65.84 126.57 C 65.57 127.68 65.27 128.78 64.94 129.87 C 64.15 132.27 63.37 134.72 63.81 137.28 C 64.12 135.96 64.37 134.63 64.61 133.30 L 65.15 133.54 C 68.33 129.25 72.66 126.08 76.70 122.66 C 79.08 121.08 81.48 119.52 84.02 118.20 C 84.56 117.99 85.64 117.56 86.18 117.35 C 87.10 116.84 88.02 116.33 88.94 115.81 C 91.25 114.86 93.52 113.83 95.77 112.75 C 97.85 112.19 99.90 111.49 101.90 110.68 C 103.09 110.52 104.28 110.37 105.47 110.24 L 105.53 109.62 C 106.89 109.56 108.24 109.49 109.59 109.43 L 109.46 108.65 M 111.67 110.93 C 111.32 112.23 112.22 113.27 112.75 114.36 C 113.62 114.37 114.49 114.39 115.36 114.41 L 115.45 113.40 L 116.56 113.50 C 116.57 112.41 116.58 111.33 116.59 110.24 C 114.95 110.44 113.29 110.59 111.67 110.93 M 125.76 110.30 C 123.54 110.29 121.33 110.32 119.11 110.43 C 119.96 112.62 121.35 114.52 123.00 116.17 L 122.41 116.71 C 123.21 116.54 124.01 116.38 124.82 116.21 C 125.58 115.18 126.35 114.15 127.18 113.17 C 129.02 112.52 128.40 115.11 128.92 116.16 C 129.33 116.33 130.15 116.67 130.55 116.84 L 130.86 117.67 C 133.77 118.14 135.60 116.11 135.76 113.32 C 136.08 113.35 136.71 113.41 137.03 113.45 C 137.92 114.75 139.00 115.90 140.12 117.02 C 141.05 115.81 141.67 114.46 141.86 112.94 C 140.59 112.60 139.32 112.23 138.07 111.84 C 137.03 111.71 135.99 111.60 134.95 111.49 L 134.87 110.55 C 133.19 110.34 131.52 110.09 129.86 109.83 C 128.49 110.00 127.13 110.15 125.76 110.30 M 107.90 111.80 C 105.10 112.48 102.16 112.82 99.67 114.40 C 98.19 114.63 96.74 114.99 95.30 115.39 C 95.33 115.93 95.41 117.00 95.44 117.54 L 96.50 117.48 L 96.49 118.58 L 97.68 118.43 C 97.72 118.79 97.80 119.51 97.84 119.87 C 98.95 118.52 100.78 117.41 100.40 115.35 C 102.97 114.76 104.76 116.99 106.51 118.49 C 106.98 118.50 107.93 118.52 108.40 118.53 C 109.44 116.38 109.67 114.00 109.58 111.65 C 109.16 111.69 108.32 111.76 107.90 111.80 M 101.57 134.64 C 98.64 138.10 99.51 142.82 99.17 146.97 C 97.74 144.00 97.14 140.41 94.33 138.33 C 92.82 139.21 91.15 140.73 89.29 139.84 C 89.06 139.19 88.61 137.91 88.38 137.27 C 85.33 137.45 81.68 138.50 80.35 141.52 C 80.31 143.52 80.38 145.52 80.40 147.52 C 83.17 147.43 85.94 147.42 88.72 147.42 L 89.50 147.37 C 89.47 145.82 89.42 144.28 89.37 142.74 C 89.91 142.77 90.97 142.84 91.50 142.88 C 91.44 144.39 91.43 145.90 91.46 147.41 C 93.57 147.42 95.69 147.43 97.80 147.41 C 98.66 147.41 99.52 147.41 100.38 147.42 C 103.42 147.44 106.46 147.46 109.50 147.34 C 110.32 142.60 109.03 137.96 108.06 133.36 C 105.87 133.42 103.41 133.22 101.57 134.64 M 114.36 136.36 C 113.80 137.14 113.25 137.91 112.70 138.69 C 112.56 141.61 112.32 144.53 112.38 147.45 C 116.30 147.46 120.24 147.31 124.15 147.80 C 126.00 148.26 127.87 148.61 129.75 148.92 C 129.72 147.44 129.68 145.96 129.64 144.48 L 130.58 144.68 C 130.48 142.61 130.36 140.54 130.28 138.47 L 129.64 138.52 C 129.60 137.18 129.55 135.84 129.51 134.50 C 124.75 132.37 119.51 131.89 114.39 132.76 C 114.36 133.96 114.35 135.16 114.36 136.36 M 147.74 142.80 C 147.63 143.39 147.39 144.57 147.28 145.16 C 146.61 147.16 146.03 149.19 145.41 151.20 C 146.54 151.55 147.67 151.92 148.80 152.30 C 149.92 152.45 151.05 152.59 152.17 152.74 C 153.52 153.37 154.87 153.99 156.22 154.64 C 156.53 154.28 157.17 153.56 157.48 153.20 C 157.40 152.64 157.23 151.53 157.15 150.97 C 156.60 148.87 156.39 146.70 156.24 144.54 L 155.78 144.36 C 155.34 143.09 154.85 141.84 154.39 140.58 L 153.55 140.49 L 153.53 139.80 C 153.19 139.48 152.51 138.85 152.18 138.53 L 151.97 138.35 C 151.38 138.02 150.20 137.36 149.61 137.04 C 148.90 138.93 148.33 140.87 147.74 142.80 M 63.06 143.00 C 62.34 145.84 62.53 148.79 62.55 151.68 C 64.32 151.05 66.08 150.41 67.83 149.74 C 68.49 149.60 69.79 149.33 70.45 149.20 C 70.43 147.15 70.42 145.10 69.98 143.09 C 69.67 141.84 69.37 140.59 69.09 139.34 C 66.21 138.92 63.98 140.27 63.06 143.00 M 72.04 142.58 C 72.28 144.61 72.51 146.64 72.75 148.66 C 74.19 148.64 75.63 148.59 77.07 148.52 L 77.90 148.25 C 77.51 145.93 77.07 143.62 76.46 141.35 C 74.94 141.59 73.42 141.88 72.04 142.58 M 133.31 141.28 L 133.24 142.53 C 132.82 142.51 131.98 142.48 131.56 142.46 C 131.55 144.48 131.55 146.50 131.56 148.53 L 132.52 148.49 L 132.42 149.39 C 136.19 150.01 139.96 150.70 143.79 150.79 C 143.24 148.11 142.42 145.49 141.60 142.89 C 141.65 142.56 141.74 141.89 141.79 141.56 L 140.50 141.69 L 140.51 140.68 C 138.49 140.70 136.48 140.69 134.46 140.67 L 134.53 141.66 L 133.31 141.28 M 159.82 142.61 C 158.15 146.66 159.30 151.07 159.67 155.26 C 161.44 156.99 164.10 157.12 166.35 157.87 L 167.67 158.62 C 169.53 159.02 171.12 160.08 172.76 160.99 C 173.39 161.23 174.66 161.70 175.29 161.94 C 175.59 162.26 176.17 162.91 176.47 163.23 C 176.02 160.69 175.14 158.26 174.17 155.88 C 173.88 155.01 173.30 153.27 173.01 152.40 L 172.63 152.45 C 173.38 151.31 171.56 149.56 170.44 150.32 C 169.78 152.55 170.38 155.07 169.13 157.16 C 168.23 152.54 167.17 147.93 165.24 143.62 C 163.48 143.04 161.66 142.75 159.82 142.61 Z" />
<path fill="#000000" opacity="1.00" d=" M 46.79 175.87 C 47.80 177.94 48.84 179.99 49.94 182.02 C 50.60 182.78 51.25 183.54 51.90 184.31 L 52.18 184.54 C 53.39 186.20 54.66 187.82 55.87 189.49 L 56.17 189.41 C 56.52 189.77 57.21 190.48 57.56 190.84 L 57.42 191.57 L 58.63 191.38 L 58.38 192.53 L 59.02 192.72 C 63.65 197.91 69.61 201.79 73.85 207.35 C 74.14 207.61 74.71 208.13 75.00 208.39 C 72.18 209.19 70.86 206.45 69.18 204.80 C 65.20 200.77 60.76 197.21 57.04 192.93 C 56.36 192.27 55.68 191.63 54.99 190.99 C 54.37 190.18 53.76 189.39 53.14 188.59 L 52.44 188.40 C 52.41 188.07 52.36 187.39 52.34 187.06 C 51.43 186.39 50.69 185.59 50.10 184.64 L 49.73 184.58 C 49.54 184.18 49.16 183.37 48.97 182.97 C 48.14 182.31 47.30 181.66 46.46 181.00 C 46.55 179.29 46.65 177.57 46.79 175.87 Z" />
<path fill="#000000" opacity="1.00" d=" M 72.03 191.24 C 73.06 191.35 74.09 191.46 75.12 191.57 C 82.35 195.13 89.48 198.88 96.79 202.27 C 98.58 202.66 100.36 203.13 102.13 203.62 C 104.09 204.35 106.07 205.03 108.05 205.72 C 109.38 206.18 110.71 206.60 112.05 207.03 C 116.25 207.82 120.43 208.69 124.70 208.95 L 126.07 209.17 C 128.72 209.57 131.38 209.79 134.02 210.16 C 129.13 210.95 124.17 210.71 119.24 210.46 C 117.19 209.92 115.13 209.43 113.08 208.88 C 111.75 208.57 110.43 208.27 109.11 207.95 C 106.34 207.14 103.60 206.22 100.89 205.23 C 99.62 204.75 98.34 204.27 97.06 203.79 C 89.87 201.69 83.81 197.05 76.84 194.40 C 75.21 193.39 73.60 192.34 72.03 191.24 Z" />
</g>
</svg>
