<?xml version="1.0" encoding="UTF-8" ?>
<!DOCTYPE svg PUBLIC "-//W3C//DTD SVG 1.1//EN" "http://www.w3.org/Graphics/SVG/1.1/DTD/svg11.dtd">
<svg width="210pt" height="220pt" viewBox="0 0 210 220" version="1.1" xmlns="http://www.w3.org/2000/svg">
<g id="#1f190e31">
<path fill="#1f190e" opacity="0.19" d=" M 70.98 15.98 C 80.14 13.79 93.28 15.39 104.01 15.09 L 103.90 16.10 C 92.93 15.90 81.96 16.05 70.98 15.98 Z" />
</g>
<g id="#4b3c197f">
<path fill="#4b3c19" opacity="0.50" d=" M 67.10 18.08 C 67.40 16.02 69.23 15.75 70.98 15.98 C 81.96 16.05 92.93 15.90 103.90 16.10 C 112.50 19.98 124.48 16.65 132.03 19.99 C 116.31 22.23 101.44 15.21 85.77 17.19 C 79.59 17.33 73.09 16.09 67.10 18.08 Z" />
</g>
<g id="#b6710afe">
<path fill="#b6710a" opacity="1.00" d=" M 67.10 18.08 C 73.09 16.09 79.59 17.33 85.77 17.19 C 102.73 17.85 119.18 22.09 136.24 21.89 C 137.20 22.19 138.16 22.50 139.11 22.81 L 138.05 23.01 C 131.72 24.33 125.19 23.03 118.85 23.61 C 111.08 27.39 103.95 20.68 96.46 23.28 C 99.40 30.37 87.95 30.30 92.73 25.07 C 88.37 20.71 81.77 22.73 76.32 22.30 C 72.49 23.53 65.72 20.95 64.33 26.16 C 58.25 30.70 52.37 35.39 47.65 41.63 C 41.76 42.03 37.61 46.34 36.16 51.75 C 38.58 52.57 41.55 54.44 39.16 57.18 C 35.72 60.72 36.75 67.94 41.97 69.05 C 43.98 69.49 44.89 71.49 46.18 72.89 C 42.36 72.85 38.54 72.01 34.74 72.55 C 33.63 72.66 32.52 72.78 31.41 72.88 C 24.78 69.01 21.87 77.88 16.01 78.13 C 13.27 69.84 23.76 66.51 23.82 58.72 C 31.26 48.91 36.44 35.66 48.54 30.53 C 51.48 25.77 57.81 25.14 60.92 20.69 C 62.91 19.66 65.01 18.88 67.10 18.08 Z" />
</g>
<g id="#785c1dca">
<path fill="#785c1d" opacity="0.79" d=" M 85.77 17.19 C 101.44 15.21 116.31 22.23 132.03 19.99 C 133.36 20.05 135.04 19.68 135.69 21.20 L 136.24 21.89 C 119.18 22.09 102.73 17.85 85.77 17.19 Z" />
</g>
<g id="#523b1685">
<path fill="#523b16" opacity="0.52" d=" M 52.33 23.44 C 56.77 20.56 61.43 17.04 67.10 18.08 C 65.01 18.88 62.91 19.66 60.92 20.69 C 57.99 21.79 55.23 23.28 52.30 24.38 L 52.33 23.44 Z" />
</g>
<g id="#a2640cfd">
<path fill="#a2640c" opacity="1.00" d=" M 52.30 24.38 C 55.23 23.28 57.99 21.79 60.92 20.69 C 57.81 25.14 51.48 25.77 48.54 30.53 C 36.44 35.66 31.26 48.91 23.82 58.72 C 23.76 66.51 13.27 69.84 16.01 78.13 C 21.87 77.88 24.78 69.01 31.41 72.88 C 27.12 75.54 22.40 78.72 21.23 83.95 C 22.45 88.21 25.47 91.45 28.29 94.72 C 32.58 93.02 36.77 88.84 41.56 90.02 C 40.25 90.67 38.95 91.32 37.63 91.95 C 29.15 93.53 48.27 102.05 34.04 99.93 C 23.35 99.66 21.00 89.12 17.02 81.56 C 12.30 87.50 13.60 96.00 12.95 103.00 C 12.63 105.30 15.02 106.90 17.11 106.36 C 23.47 105.45 22.61 117.19 29.99 114.04 C 39.44 115.56 48.74 112.16 58.14 112.89 C 58.55 112.98 59.39 113.15 59.81 113.24 C 60.57 113.77 61.34 114.30 62.11 114.84 C 48.87 115.65 35.50 116.27 22.38 118.35 C 19.28 118.99 17.14 122.73 18.29 125.68 C 22.96 131.90 27.02 138.51 31.83 144.64 C 34.41 154.18 40.05 163.15 48.12 168.99 C 44.26 168.55 39.78 165.78 37.93 170.94 C 41.56 178.48 49.49 182.50 52.16 190.40 C 48.91 194.01 44.19 188.94 40.49 190.97 C 37.23 191.20 35.10 188.27 32.00 187.82 C 30.73 187.70 30.66 186.10 30.06 185.25 C 32.92 183.66 31.03 175.99 28.38 173.58 C 29.35 165.20 34.49 154.64 27.20 147.81 C 22.45 144.05 25.27 132.48 17.41 133.32 C 14.33 130.92 8.01 130.70 10.01 124.94 C 10.55 121.20 6.41 123.79 4.98 125.02 C 5.34 110.51 9.24 96.27 8.77 81.73 C 9.46 76.31 12.78 71.71 13.30 66.29 C 16.12 62.59 18.75 58.64 20.31 54.23 C 29.86 43.06 39.00 31.26 52.30 24.38 Z" />
</g>
<g id="#563d1f8a">
<path fill="#563d1f" opacity="0.54" d=" M 135.69 21.20 C 139.59 21.46 146.31 21.56 148.94 24.18 C 145.65 23.81 142.40 23.17 139.11 22.81 C 138.16 22.50 137.20 22.19 136.24 21.89 L 135.69 21.20 Z" />
</g>
<g id="#ce7f05ff">
<path fill="#ce7f05" opacity="1.00" d=" M 76.32 22.30 C 81.77 22.73 88.37 20.71 92.73 25.07 C 87.95 30.30 99.40 30.37 96.46 23.28 C 103.95 20.68 111.08 27.39 118.85 23.61 C 118.54 24.88 118.20 26.14 117.84 27.40 C 111.36 27.31 104.42 26.73 100.87 32.96 C 95.90 31.07 92.44 32.37 91.92 37.99 C 87.46 37.51 90.19 32.91 88.88 30.06 C 84.47 29.43 81.60 34.70 76.87 33.26 C 68.83 32.59 70.17 42.77 66.16 47.11 C 64.17 50.31 60.90 52.34 58.40 55.09 C 64.21 63.91 47.75 63.98 49.88 72.99 C 48.65 72.97 47.41 72.94 46.18 72.89 C 44.89 71.49 43.98 69.49 41.97 69.05 C 36.75 67.94 35.72 60.72 39.16 57.18 C 41.55 54.44 38.58 52.57 36.16 51.75 C 37.61 46.34 41.76 42.03 47.65 41.63 C 52.37 35.39 58.25 30.70 64.33 26.16 C 65.72 20.95 72.49 23.53 76.32 22.30 Z" />
</g>
<g id="#4a36157e">
<path fill="#4a3615" opacity="0.49" d=" M 20.31 54.23 C 26.73 41.03 39.12 29.79 52.33 23.44 L 52.30 24.38 C 39.00 31.26 29.86 43.06 20.31 54.23 Z" />
</g>
<g id="#cb8427ff">
<path fill="#cb8427" opacity="1.00" d=" M 118.85 23.61 C 125.19 23.03 131.72 24.33 138.05 23.01 C 142.48 23.82 146.50 26.74 148.10 30.99 C 151.17 34.93 156.37 36.06 160.47 38.56 C 167.40 45.58 175.48 52.07 179.84 61.12 C 183.91 70.79 193.73 75.97 198.46 85.13 L 198.06 85.89 C 195.63 89.05 191.02 85.71 188.69 88.70 C 186.95 90.59 190.56 94.47 187.58 95.67 C 185.48 92.35 180.11 93.14 179.46 88.61 C 178.88 83.09 167.94 85.71 171.72 78.71 C 171.82 76.78 174.63 73.00 171.53 72.63 C 164.84 73.30 165.13 66.00 162.91 62.04 C 161.08 54.93 153.06 52.28 150.00 45.93 C 146.64 40.38 139.14 46.46 135.64 41.05 C 137.68 39.83 139.94 39.05 142.00 37.89 C 140.65 34.26 136.78 32.68 134.07 30.21 C 132.04 31.79 130.01 31.64 128.29 29.71 C 125.51 26.48 120.73 30.15 117.84 27.40 C 118.20 26.14 118.54 24.88 118.85 23.61 Z" />
</g>
<g id="#bd8348fc">
<path fill="#bd8348" opacity="1.00" d=" M 138.05 23.01 L 139.11 22.81 C 142.40 23.17 145.65 23.81 148.94 24.18 C 150.88 24.46 152.32 25.97 153.79 27.14 C 165.14 34.19 174.98 43.25 184.89 52.17 C 185.68 53.01 186.36 53.96 186.86 55.00 C 187.88 57.23 189.38 59.19 190.85 61.14 C 192.84 64.15 194.98 67.07 196.75 70.22 C 197.50 74.35 199.80 77.94 201.44 81.75 C 200.46 82.89 199.45 84.00 198.46 85.13 C 193.73 75.97 183.91 70.79 179.84 61.12 C 175.48 52.07 167.40 45.58 160.47 38.56 C 156.37 36.06 151.17 34.93 148.10 30.99 C 146.50 26.74 142.48 23.82 138.05 23.01 Z" />
</g>
<g id="#d9860fff">
<path fill="#d9860f" opacity="1.00" d=" M 100.87 32.96 C 104.42 26.73 111.36 27.31 117.84 27.40 C 120.73 30.15 125.51 26.48 128.29 29.71 C 130.01 31.64 132.04 31.79 134.07 30.21 C 136.78 32.68 140.65 34.26 142.00 37.89 C 139.94 39.05 137.68 39.83 135.64 41.05 C 139.14 46.46 146.64 40.38 150.00 45.93 C 153.06 52.28 161.08 54.93 162.91 62.04 C 165.13 66.00 164.84 73.30 171.53 72.63 C 174.63 73.00 171.82 76.78 171.72 78.71 C 169.94 79.86 168.19 81.07 166.33 82.08 C 158.54 79.04 164.97 98.05 156.16 93.26 C 150.79 101.91 137.22 106.39 126.86 101.73 C 131.52 96.92 132.94 85.64 142.08 89.83 C 146.46 90.38 140.20 84.72 140.08 82.11 C 147.96 81.22 143.30 69.29 138.17 66.83 C 136.45 62.14 127.48 63.29 128.40 57.58 C 131.52 49.98 122.31 51.44 117.98 50.79 C 117.33 47.64 123.32 48.76 121.87 45.24 C 119.47 42.92 115.36 42.11 115.62 38.02 C 112.17 46.27 102.91 42.77 97.20 47.17 C 95.93 50.77 94.49 54.84 89.98 55.14 C 90.02 52.94 93.35 49.69 90.74 48.34 C 84.28 48.60 81.42 64.22 74.89 55.98 C 70.05 57.53 63.19 61.13 63.95 67.13 C 67.45 62.62 71.43 68.19 66.80 70.80 C 63.35 75.16 63.53 66.18 60.21 67.08 C 58.64 69.14 58.31 71.81 57.61 74.23 C 55.02 73.86 52.46 73.37 49.88 72.99 C 47.75 63.98 64.21 63.91 58.40 55.09 C 60.90 52.34 64.17 50.31 66.16 47.11 C 70.17 42.77 68.83 32.59 76.87 33.26 C 81.60 34.70 84.47 29.43 88.88 30.06 C 90.19 32.91 87.46 37.51 91.92 37.99 C 92.44 32.37 95.90 31.07 100.87 32.96 Z" />
</g>
<g id="#58412b8b">
<path fill="#58412b" opacity="0.55" d=" M 153.79 27.14 C 166.62 30.17 174.81 42.39 184.82 50.24 C 184.84 50.72 184.87 51.69 184.89 52.17 C 174.98 43.25 165.14 34.19 153.79 27.14 Z" />
</g>
<g id="#e08e22ff">
<path fill="#e08e22" opacity="1.00" d=" M 97.20 47.17 C 102.91 42.77 112.17 46.27 115.62 38.02 C 115.36 42.11 119.47 42.92 121.87 45.24 C 123.32 48.76 117.33 47.64 117.98 50.79 C 122.31 51.44 131.52 49.98 128.40 57.58 C 127.48 63.29 136.45 62.14 138.17 66.83 C 143.30 69.29 147.96 81.22 140.08 82.11 C 139.64 81.74 138.75 80.99 138.31 80.62 C 136.03 78.27 132.96 77.10 129.96 75.98 C 126.18 71.99 129.86 69.64 132.14 66.41 C 129.26 67.21 127.87 64.52 125.56 63.58 C 121.38 63.68 119.35 61.65 119.45 57.48 C 113.42 54.73 106.27 51.55 100.04 55.36 C 101.28 57.98 109.32 61.91 99.46 59.76 C 97.77 55.94 92.92 54.71 90.32 58.35 C 85.55 61.46 75.84 69.53 82.97 75.19 C 86.92 73.67 89.15 65.30 89.99 73.44 C 85.42 75.16 81.41 77.84 78.82 82.07 C 75.87 81.43 73.00 80.15 69.92 80.90 C 66.28 77.89 61.77 76.33 57.61 74.23 C 58.31 71.81 58.64 69.14 60.21 67.08 C 63.53 66.18 63.35 75.16 66.80 70.80 C 71.43 68.19 67.45 62.62 63.95 67.13 C 63.19 61.13 70.05 57.53 74.89 55.98 C 81.42 64.22 84.28 48.60 90.74 48.34 C 93.35 49.69 90.02 52.94 89.98 55.14 C 94.49 54.84 95.93 50.77 97.20 47.17 Z" />
</g>
<g id="#df933dff">
<path fill="#df933d" opacity="1.00" d=" M 100.04 55.36 C 106.27 51.55 113.42 54.73 119.45 57.48 C 119.35 61.65 121.38 63.68 125.56 63.58 C 127.87 64.52 129.26 67.21 132.14 66.41 C 129.86 69.64 126.18 71.99 129.96 75.98 C 119.17 72.14 107.29 70.47 95.94 72.66 C 93.96 72.93 91.97 73.16 89.99 73.44 C 89.15 65.30 86.92 73.67 82.97 75.19 C 75.84 69.53 85.55 61.46 90.32 58.35 C 92.92 54.71 97.77 55.94 99.46 59.76 C 109.32 61.91 101.28 57.98 100.04 55.36 Z" />
</g>
<g id="#4935148b">
<path fill="#493514" opacity="0.55" d=" M 13.30 66.29 C 14.02 61.94 16.90 56.78 20.31 54.23 C 18.75 58.64 16.12 62.59 13.30 66.29 Z" />
</g>
<g id="#664c34a1">
<path fill="#664c34" opacity="0.63" d=" M 186.86 55.00 C 189.14 56.26 191.75 58.16 190.85 61.14 C 189.38 59.19 187.88 57.23 186.86 55.00 Z" />
</g>
<g id="#5f48319e">
<path fill="#5f4831" opacity="0.62" d=" M 190.85 61.14 C 193.69 62.77 197.10 65.59 196.79 69.22 L 196.75 70.22 C 194.98 67.07 192.84 64.15 190.85 61.14 Z" />
</g>
<g id="#4e381890">
<path fill="#4e3818" opacity="0.56" d=" M 3.03 105.97 C 4.70 92.86 5.66 76.36 13.30 66.29 C 12.78 71.71 9.46 76.31 8.77 81.73 C 3.59 99.13 3.02 118.41 4.95 136.10 C 8.68 141.27 9.12 147.97 10.39 154.06 C 7.09 149.31 6.77 140.60 2.99 135.01 C 3.01 125.33 2.95 115.65 3.03 105.97 Z" />
</g>
<g id="#4f3d2789">
<path fill="#4f3d27" opacity="0.54" d=" M 196.79 69.22 C 198.74 72.33 202.84 79.01 202.78 84.24 C 202.34 83.41 201.89 82.58 201.44 81.75 C 199.80 77.94 197.50 74.35 196.75 70.22 L 196.79 69.22 Z" />
</g>
<g id="#b56622ff">
<path fill="#b56622" opacity="1.00" d=" M 95.94 72.66 C 107.29 70.47 119.17 72.14 129.96 75.98 C 132.96 77.10 136.03 78.27 138.31 80.62 C 134.71 83.36 138.00 85.66 140.11 87.98 C 130.77 86.38 120.61 94.44 111.88 88.55 C 113.15 88.06 114.43 87.59 115.75 87.25 C 117.50 90.51 123.00 87.20 125.65 88.64 C 128.89 89.74 134.63 86.38 130.80 83.20 C 121.90 78.26 111.42 76.03 101.28 75.64 C 100.48 73.22 98.26 72.68 95.94 72.66 Z" />
</g>
<g id="#af5d16ff">
<path fill="#af5d16" opacity="1.00" d=" M 34.74 72.55 C 38.54 72.01 42.36 72.85 46.18 72.89 C 47.41 72.94 48.65 72.97 49.88 72.99 C 52.46 73.37 55.02 73.86 57.61 74.23 C 61.77 76.33 66.28 77.89 69.92 80.90 C 68.54 83.17 69.65 85.28 71.02 87.20 C 67.84 88.70 63.70 93.95 60.26 90.70 C 57.40 88.01 53.12 90.83 49.73 89.25 C 54.67 87.19 65.36 91.42 65.02 83.18 C 62.95 81.84 60.48 81.41 58.17 80.69 C 53.71 78.71 48.88 77.83 44.13 76.85 C 41.69 74.06 38.90 71.83 34.74 72.55 Z" />
</g>
<g id="#8b4411ff">
<path fill="#8b4411" opacity="1.00" d=" M 31.41 72.88 C 32.52 72.78 33.63 72.66 34.74 72.55 C 38.90 71.83 41.69 74.06 44.13 76.85 C 43.61 76.86 42.58 76.86 42.06 76.87 C 38.28 76.84 34.48 76.88 30.78 77.66 C 24.93 76.11 23.36 84.73 27.26 87.94 C 32.85 88.25 38.46 88.00 43.99 87.11 C 46.30 86.81 48.59 86.39 50.91 86.15 C 54.56 86.79 59.29 88.21 62.29 85.09 C 61.05 83.51 59.58 82.12 58.17 80.69 C 60.48 81.41 62.95 81.84 65.02 83.18 C 65.36 91.42 54.67 87.19 49.73 89.25 C 46.93 87.89 44.20 88.83 41.56 90.02 C 36.77 88.84 32.58 93.02 28.29 94.72 C 25.47 91.45 22.45 88.21 21.23 83.95 C 22.40 78.72 27.12 75.54 31.41 72.88 Z" />
</g>
<g id="#cc7c21ff">
<path fill="#cc7c21" opacity="1.00" d=" M 89.99 73.44 C 91.97 73.16 93.96 72.93 95.94 72.66 C 92.19 76.04 88.67 79.71 85.64 83.76 C 80.64 89.44 88.11 93.81 90.16 98.78 C 96.40 99.47 103.96 104.01 110.17 100.90 C 108.40 97.58 103.75 98.04 101.72 95.02 C 103.11 91.48 108.03 92.72 109.76 89.75 L 110.15 89.06 C 110.30 88.78 110.62 88.20 110.77 87.92 C 111.05 88.08 111.60 88.39 111.88 88.55 C 120.61 94.44 130.77 86.38 140.11 87.98 C 138.00 85.66 134.71 83.36 138.31 80.62 C 138.75 80.99 139.64 81.74 140.08 82.11 C 140.20 84.72 146.46 90.38 142.08 89.83 C 132.94 85.64 131.52 96.92 126.86 101.73 C 122.22 100.95 126.44 106.00 123.23 107.12 C 119.06 108.38 115.38 111.43 110.85 111.13 C 103.59 110.26 95.61 108.75 88.71 111.80 C 87.10 111.89 85.49 111.93 83.88 111.99 C 86.84 109.74 87.36 104.01 92.08 105.81 C 90.96 102.76 86.92 101.61 85.63 98.26 C 78.35 97.76 70.84 92.56 63.85 96.80 C 62.41 101.22 53.99 111.70 62.23 112.18 C 61.63 112.45 60.41 112.98 59.81 113.24 C 59.39 113.15 58.55 112.98 58.14 112.89 C 57.26 105.37 49.33 115.89 51.54 106.19 C 49.61 101.89 55.53 103.71 56.72 100.56 C 53.47 98.48 52.02 93.52 47.15 94.77 C 44.08 93.73 38.86 95.62 37.63 91.95 C 38.95 91.32 40.25 90.67 41.56 90.02 C 44.20 88.83 46.93 87.89 49.73 89.25 C 53.12 90.83 57.40 88.01 60.26 90.70 C 63.70 93.95 67.84 88.70 71.02 87.20 C 69.65 85.28 68.54 83.17 69.92 80.90 C 73.00 80.15 75.87 81.43 78.82 82.07 C 81.41 77.84 85.42 75.16 89.99 73.44 Z" />
</g>
<g id="#985115ff">
<path fill="#985115" opacity="1.00" d=" M 95.94 72.66 C 98.26 72.68 100.48 73.22 101.28 75.64 C 100.65 75.91 99.39 76.46 98.76 76.73 C 97.34 77.34 96.02 78.15 94.78 79.04 C 91.91 81.42 88.73 88.21 94.24 89.36 C 99.54 89.60 104.84 89.06 110.15 89.06 L 109.76 89.75 C 104.33 90.34 99.57 93.32 94.33 94.49 C 92.40 92.92 90.24 91.74 87.82 91.11 C 87.74 88.48 87.05 86.00 85.64 83.76 C 88.67 79.71 92.19 76.04 95.94 72.66 Z" />
</g>
<g id="#7f4219ff">
<path fill="#7f4219" opacity="1.00" d=" M 98.76 76.73 C 99.39 76.46 100.65 75.91 101.28 75.64 C 111.42 76.03 121.90 78.26 130.80 83.20 C 134.63 86.38 128.89 89.74 125.65 88.64 C 123.00 87.20 117.50 90.51 115.75 87.25 C 119.69 87.06 116.78 82.35 116.75 79.97 C 114.31 80.04 113.43 84.64 111.09 81.82 C 111.47 74.74 103.54 77.26 98.76 76.73 Z" />
</g>
<g id="#5a2d12ff">
<path fill="#5a2d12" opacity="1.00" d=" M 27.26 87.94 C 23.36 84.73 24.93 76.11 30.78 77.66 C 28.39 81.78 33.32 83.97 35.53 86.68 C 38.97 90.03 42.00 85.61 39.30 83.86 C 40.30 83.83 41.22 83.55 42.06 83.01 C 41.69 86.72 43.22 83.34 44.15 81.99 C 44.06 83.70 44.02 85.40 43.99 87.11 C 38.46 88.00 32.85 88.25 27.26 87.94 Z" />
</g>
<g id="#300f0bff">
<path fill="#300f0b" opacity="1.00" d=" M 30.78 77.66 C 34.48 76.88 38.28 76.84 42.06 76.87 C 43.06 78.44 43.84 80.14 44.15 81.99 C 43.22 83.34 41.69 86.72 42.06 83.01 C 42.83 79.37 37.30 81.40 39.30 83.86 C 42.00 85.61 38.97 90.03 35.53 86.68 C 33.32 83.97 28.39 81.78 30.78 77.66 Z" />
</g>
<g id="#672c16ff">
<path fill="#672c16" opacity="1.00" d=" M 42.06 76.87 C 42.58 76.86 43.61 76.86 44.13 76.85 C 48.88 77.83 53.71 78.71 58.17 80.69 C 59.58 82.12 61.05 83.51 62.29 85.09 C 59.29 88.21 54.56 86.79 50.91 86.15 C 50.72 81.30 48.47 79.17 44.15 81.99 C 43.84 80.14 43.06 78.44 42.06 76.87 Z" />
</g>
<g id="#422010ff">
<path fill="#422010" opacity="1.00" d=" M 94.78 79.04 C 96.02 78.15 97.34 77.34 98.76 76.73 C 103.54 77.26 111.47 74.74 111.09 81.82 C 110.15 82.95 109.45 86.57 107.87 84.06 C 109.27 78.95 103.71 82.55 106.94 85.21 C 104.83 92.36 95.47 83.60 94.78 79.04 Z" />
</g>
<g id="#6a391aff">
<path fill="#6a391a" opacity="1.00" d=" M 94.24 89.36 C 88.73 88.21 91.91 81.42 94.78 79.04 C 95.47 83.60 104.83 92.36 106.94 85.21 C 107.17 84.92 107.64 84.35 107.87 84.06 C 109.45 86.57 110.15 82.95 111.09 81.82 C 110.98 83.85 110.89 85.88 110.77 87.92 C 110.62 88.20 110.30 88.78 110.15 89.06 C 104.84 89.06 99.54 89.60 94.24 89.36 Z" />
</g>
<g id="#c17616ff">
<path fill="#c17616" opacity="1.00" d=" M 166.33 82.08 C 168.19 81.07 169.94 79.86 171.72 78.71 C 167.94 85.71 178.88 83.09 179.46 88.61 C 180.11 93.14 185.48 92.35 187.58 95.67 C 190.56 94.47 186.95 90.59 188.69 88.70 C 191.02 85.71 195.63 89.05 198.06 85.89 C 200.53 88.83 199.55 92.43 195.37 92.51 C 192.66 95.06 194.38 98.41 196.97 100.17 C 192.08 110.15 194.91 121.91 188.44 131.42 C 186.24 133.95 189.38 138.05 185.69 139.66 C 180.63 141.72 183.09 149.40 177.40 150.48 C 170.73 152.62 168.40 160.26 162.06 162.91 C 161.00 165.07 161.02 167.94 159.89 170.24 C 155.67 170.91 151.79 169.28 147.73 168.59 C 149.59 163.76 149.62 159.63 147.93 154.82 C 151.81 155.90 149.77 162.98 154.69 160.73 C 160.77 157.63 164.98 148.27 160.97 142.20 C 167.24 144.53 161.80 135.12 165.46 132.44 C 171.20 127.39 164.57 119.44 168.95 113.97 C 171.28 109.71 176.98 111.64 181.01 110.81 C 182.39 105.86 174.59 104.39 177.14 98.99 C 175.02 98.35 179.28 90.56 175.05 92.01 C 170.28 92.46 176.01 102.71 170.40 100.74 C 166.29 95.15 166.15 88.80 166.33 82.08 Z" />
</g>
<g id="#947068ff">
<path fill="#947068" opacity="1.00" d=" M 44.15 81.99 C 48.47 79.17 50.72 81.30 50.91 86.15 C 48.59 86.39 46.30 86.81 43.99 87.11 C 44.02 85.40 44.06 83.70 44.15 81.99 Z" />
</g>
<g id="#ab8373ff">
<path fill="#ab8373" opacity="1.00" d=" M 111.09 81.82 C 113.43 84.64 114.31 80.04 116.75 79.97 C 116.78 82.35 119.69 87.06 115.75 87.25 C 114.43 87.59 113.15 88.06 111.88 88.55 C 111.60 88.39 111.05 88.08 110.77 87.92 C 110.89 85.88 110.98 83.85 111.09 81.82 Z" />
</g>
<g id="#aa9ca5ff">
<path fill="#aa9ca5" opacity="1.00" d=" M 39.30 83.86 C 37.30 81.40 42.83 79.37 42.06 83.01 C 41.22 83.55 40.30 83.83 39.30 83.86 Z" />
</g>
<g id="#c6b7b0ff">
<path fill="#c6b7b0" opacity="1.00" d=" M 106.94 85.21 C 103.71 82.55 109.27 78.95 107.87 84.06 C 107.64 84.35 107.17 84.92 106.94 85.21 Z" />
</g>
<g id="#c87808ff">
<path fill="#c87808" opacity="1.00" d=" M 156.16 93.26 C 164.97 98.05 158.54 79.04 166.33 82.08 C 166.15 88.80 166.29 95.15 170.40 100.74 C 176.01 102.71 170.28 92.46 175.05 92.01 C 179.28 90.56 175.02 98.35 177.14 98.99 C 174.59 104.39 182.39 105.86 181.01 110.81 C 176.98 111.64 171.28 109.71 168.95 113.97 C 164.57 119.44 171.20 127.39 165.46 132.44 C 161.80 135.12 167.24 144.53 160.97 142.20 C 164.98 148.27 160.77 157.63 154.69 160.73 C 149.77 162.98 151.81 155.90 147.93 154.82 C 149.62 159.63 149.59 163.76 147.73 168.59 C 146.80 171.04 147.04 174.91 142.48 173.71 C 129.52 176.82 115.95 190.69 103.99 180.01 C 98.89 177.05 93.38 182.98 88.05 180.86 C 87.54 179.08 89.20 178.08 90.68 177.73 C 105.35 175.68 114.72 163.29 125.49 154.43 C 128.74 147.18 136.10 142.92 138.01 134.99 C 138.75 131.59 142.03 128.54 144.92 131.76 C 145.90 127.33 148.95 123.89 151.16 120.05 C 148.80 114.81 144.25 121.96 144.48 125.18 C 142.25 121.48 144.90 115.66 140.46 113.49 C 131.41 110.02 120.36 114.99 110.85 111.13 C 115.38 111.43 119.06 108.38 123.23 107.12 C 126.44 106.00 122.22 100.95 126.86 101.73 C 137.22 106.39 150.79 101.91 156.16 93.26 Z" />
</g>
<g id="#7e520eeb">
<path fill="#7e520e" opacity="0.92" d=" M 4.95 136.10 C 3.02 118.41 3.59 99.13 8.77 81.73 C 9.24 96.27 5.34 110.51 4.98 125.02 C 4.91 128.70 4.90 132.41 4.95 136.10 Z" />
</g>
<g id="#ba7009ff">
<path fill="#ba7009" opacity="1.00" d=" M 12.95 103.00 C 13.60 96.00 12.30 87.50 17.02 81.56 C 21.00 89.12 23.35 99.66 34.04 99.93 C 48.27 102.05 29.15 93.53 37.63 91.95 C 38.86 95.62 44.08 93.73 47.15 94.77 C 52.02 93.52 53.47 98.48 56.72 100.56 C 55.53 103.71 49.61 101.89 51.54 106.19 C 49.33 115.89 57.26 105.37 58.14 112.89 C 48.74 112.16 39.44 115.56 29.99 114.04 C 22.61 117.19 23.47 105.45 17.11 106.36 C 15.02 106.90 12.63 105.30 12.95 103.00 Z" />
</g>
<g id="#ab6d17fe">
<path fill="#ab6d17" opacity="1.00" d=" M 201.44 81.75 C 201.89 82.58 202.34 83.41 202.78 84.24 C 203.86 90.75 204.30 97.43 206.20 103.77 C 206.84 120.07 202.81 136.93 193.70 150.55 C 193.55 156.70 188.00 159.49 184.99 164.03 C 180.33 168.60 181.91 177.36 175.34 180.34 C 173.67 184.01 171.53 187.71 169.03 191.03 L 168.13 190.98 C 167.40 187.73 164.75 185.99 161.82 184.86 C 164.66 181.28 166.85 176.03 171.91 175.59 C 172.29 173.08 170.71 170.57 168.16 170.13 C 166.34 171.57 165.09 173.62 163.17 174.95 C 161.93 173.49 160.90 171.86 159.89 170.24 C 161.02 167.94 161.00 165.07 162.06 162.91 C 168.40 160.26 170.73 152.62 177.40 150.48 C 183.09 149.40 180.63 141.72 185.69 139.66 C 189.38 138.05 186.24 133.95 188.44 131.42 C 194.91 121.91 192.08 110.15 196.97 100.17 C 194.38 98.41 192.66 95.06 195.37 92.51 C 199.55 92.43 200.53 88.83 198.06 85.89 L 198.46 85.13 C 199.45 84.00 200.46 82.89 201.44 81.75 Z" />
</g>
<g id="#b96c1bff">
<path fill="#b96c1b" opacity="1.00" d=" M 90.16 98.78 C 88.11 93.81 80.64 89.44 85.64 83.76 C 87.05 86.00 87.74 88.48 87.82 91.11 C 90.24 91.74 92.40 92.92 94.33 94.49 C 99.57 93.32 104.33 90.34 109.76 89.75 C 108.03 92.72 103.11 91.48 101.72 95.02 C 103.75 98.04 108.40 97.58 110.17 100.90 C 103.96 104.01 96.40 99.47 90.16 98.78 Z" />
</g>
<g id="#4e3c2085">
<path fill="#4e3c20" opacity="0.52" d=" M 202.78 84.24 C 207.17 87.78 203.54 98.04 207.97 103.11 C 208.01 108.40 208.02 113.70 207.99 119.00 C 207.70 119.43 207.14 120.31 206.85 120.74 C 206.76 115.12 207.65 109.28 206.20 103.77 C 204.30 97.43 203.86 90.75 202.78 84.24 Z" />
</g>
<g id="#d28840ff">
<path fill="#d28840" opacity="1.00" d=" M 63.85 96.80 C 70.84 92.56 78.35 97.76 85.63 98.26 C 86.92 101.61 90.96 102.76 92.08 105.81 C 87.36 104.01 86.84 109.74 83.88 111.99 C 76.67 112.63 69.45 112.91 62.23 112.18 C 53.99 111.70 62.41 101.22 63.85 96.80 Z" />
</g>
<g id="#211a1039">
<path fill="#211a10" opacity="0.22" d=" M 207.97 103.11 C 209.22 104.98 210.52 116.95 207.99 119.00 C 208.02 113.70 208.01 108.40 207.97 103.11 Z" />
</g>
<g id="#9b6b3bf2">
<path fill="#9b6b3b" opacity="0.95" d=" M 206.20 103.77 C 207.65 109.28 206.76 115.12 206.85 120.74 C 205.29 136.52 198.82 151.37 192.80 165.85 C 190.01 169.45 186.89 172.88 184.84 176.98 C 183.80 178.81 182.50 180.51 181.04 182.02 C 177.47 185.17 173.84 188.26 170.03 191.12 L 169.03 191.03 C 171.53 187.71 173.67 184.01 175.34 180.34 C 181.91 177.36 180.33 168.60 184.99 164.03 C 188.00 159.49 193.55 156.70 193.70 150.55 C 202.81 136.93 206.84 120.07 206.20 103.77 Z" />
</g>
<g id="#2c210f54">
<path fill="#2c210f" opacity="0.33" d=" M 2.99 135.01 C 2.07 127.93 0.20 112.99 3.03 105.97 C 2.95 115.65 3.01 125.33 2.99 135.01 Z" />
</g>
<g id="#b66905ff">
<path fill="#b66905" opacity="1.00" d=" M 88.71 111.80 C 95.61 108.75 103.59 110.26 110.85 111.13 C 120.36 114.99 131.41 110.02 140.46 113.49 C 144.90 115.66 142.25 121.48 144.48 125.18 C 144.25 121.96 148.80 114.81 151.16 120.05 C 148.95 123.89 145.90 127.33 144.92 131.76 C 142.03 128.54 138.75 131.59 138.01 134.99 C 136.10 142.92 128.74 147.18 125.49 154.43 C 114.72 163.29 105.35 175.68 90.68 177.73 C 89.20 178.08 87.54 179.08 88.05 180.86 C 93.38 182.98 98.89 177.05 103.99 180.01 C 115.95 190.69 129.52 176.82 142.48 173.71 C 147.04 174.91 146.80 171.04 147.73 168.59 C 151.79 169.28 155.67 170.91 159.89 170.24 C 160.90 171.86 161.93 173.49 163.17 174.95 C 165.09 173.62 166.34 171.57 168.16 170.13 C 170.71 170.57 172.29 173.08 171.91 175.59 C 166.85 176.03 164.66 181.28 161.82 184.86 C 157.87 185.56 153.03 185.15 151.41 189.53 C 139.30 188.42 130.32 199.30 118.01 197.09 C 110.00 198.03 102.26 194.75 94.30 195.69 C 89.21 187.68 76.82 181.41 68.65 188.64 C 64.56 192.93 57.54 191.06 52.16 190.40 C 49.49 182.50 41.56 178.48 37.93 170.94 C 39.78 165.78 44.26 168.55 48.12 168.99 C 50.23 170.10 52.10 171.57 53.82 173.20 C 63.98 181.07 79.28 175.66 90.59 172.97 C 89.06 165.83 95.25 175.11 98.39 172.43 C 104.82 168.16 112.61 164.53 117.05 157.99 C 124.64 146.54 132.81 135.33 138.92 122.97 C 137.38 118.03 131.87 113.97 126.66 115.42 C 114.15 114.97 101.66 113.48 89.11 113.94 C 89.01 113.40 88.81 112.34 88.71 111.80 Z" />
</g>
<g id="#ae612cff">
<path fill="#ae612c" opacity="1.00" d=" M 62.23 112.18 C 69.45 112.91 76.67 112.63 83.88 111.99 C 85.49 111.93 87.10 111.89 88.71 111.80 C 88.81 112.34 89.01 113.40 89.11 113.94 C 85.14 118.16 78.02 116.55 74.70 122.07 C 74.27 121.89 73.41 121.53 72.98 121.34 C 73.79 117.88 64.96 117.58 62.11 114.84 C 61.34 114.30 60.57 113.77 59.81 113.24 C 60.41 112.98 61.63 112.45 62.23 112.18 Z" />
</g>
<g id="#9f520aff">
<path fill="#9f520a" opacity="1.00" d=" M 74.70 122.07 C 78.02 116.55 85.14 118.16 89.11 113.94 C 101.66 113.48 114.15 114.97 126.66 115.42 C 131.87 113.97 137.38 118.03 138.92 122.97 C 132.81 135.33 124.64 146.54 117.05 157.99 C 111.98 160.55 107.10 163.49 101.98 165.93 C 93.06 168.18 83.38 166.74 74.76 170.34 C 70.47 170.77 62.28 164.55 61.69 170.80 C 62.22 175.70 56.98 173.46 53.82 173.20 C 52.10 171.57 50.23 170.10 48.12 168.99 C 40.05 163.15 34.41 154.18 31.83 144.64 C 36.07 149.61 38.06 156.04 41.74 161.27 C 47.56 164.03 54.17 173.63 60.73 167.75 C 79.27 166.85 100.72 168.61 115.68 155.70 C 118.38 151.39 121.46 147.32 124.13 142.99 C 129.32 136.75 131.43 128.79 137.05 122.91 C 136.47 118.86 131.63 116.64 127.82 117.06 C 124.22 117.00 118.94 114.16 118.63 119.72 C 115.27 120.94 115.65 124.46 113.32 119.59 C 110.42 115.00 104.58 121.36 106.00 125.28 C 102.04 127.12 102.89 119.11 99.01 119.97 C 95.71 119.72 94.98 123.87 93.47 126.03 C 92.15 124.23 91.79 121.97 90.83 119.99 C 86.42 120.49 81.44 120.69 77.85 123.70 C 76.23 125.61 75.51 123.49 74.70 122.07 Z" />
</g>
<g id="#91490bff">
<path fill="#91490b" opacity="1.00" d=" M 22.38 118.35 C 35.50 116.27 48.87 115.65 62.11 114.84 C 64.96 117.58 73.79 117.88 72.98 121.34 C 72.29 121.19 70.90 120.90 70.21 120.75 C 63.46 117.26 61.09 121.30 60.87 126.93 C 59.35 125.51 58.46 122.72 56.00 122.96 C 52.32 121.87 53.62 129.79 49.86 127.10 C 49.72 126.52 49.45 125.35 49.32 124.77 C 49.22 124.32 49.03 123.44 48.93 123.00 C 52.07 120.08 59.12 122.20 60.71 119.16 C 50.74 116.29 40.20 120.91 29.99 119.05 C 25.73 119.08 18.64 119.82 20.06 125.65 C 23.91 125.66 29.16 127.00 27.71 131.81 C 33.61 143.25 39.79 155.87 50.61 163.41 C 55.14 167.44 61.16 164.41 66.46 165.39 C 69.41 165.08 75.24 168.06 76.20 163.41 C 76.49 162.82 77.07 161.64 77.36 161.05 C 83.65 159.69 89.82 157.72 96.23 157.00 C 96.01 159.27 93.41 159.30 91.82 160.20 C 88.31 161.62 83.53 160.80 80.81 163.83 C 94.63 166.81 109.67 160.09 117.36 148.35 C 119.07 145.95 121.70 144.54 124.13 142.99 C 121.46 147.32 118.38 151.39 115.68 155.70 C 100.72 168.61 79.27 166.85 60.73 167.75 C 54.17 173.63 47.56 164.03 41.74 161.27 C 38.06 156.04 36.07 149.61 31.83 144.64 C 27.02 138.51 22.96 131.90 18.29 125.68 C 17.14 122.73 19.28 118.99 22.38 118.35 Z" />
</g>
<g id="#572409ff">
<path fill="#572409" opacity="1.00" d=" M 118.63 119.72 C 118.94 114.16 124.22 117.00 127.82 117.06 C 134.92 118.31 130.46 124.56 127.51 128.24 C 127.90 136.79 121.17 143.12 114.95 147.94 C 118.48 141.64 126.17 136.84 126.07 129.01 C 124.71 129.26 123.38 129.63 122.06 130.02 C 125.06 126.80 124.51 117.48 118.63 119.72 Z" />
</g>
<g id="#7f360bff">
<path fill="#7f360b" opacity="1.00" d=" M 127.82 117.06 C 131.63 116.64 136.47 118.86 137.05 122.91 C 131.43 128.79 129.32 136.75 124.13 142.99 C 121.70 144.54 119.07 145.95 117.36 148.35 C 109.67 160.09 94.63 166.81 80.81 163.83 C 83.53 160.80 88.31 161.62 91.82 160.20 C 91.95 160.62 92.20 161.44 92.33 161.85 C 100.83 160.83 109.18 155.97 114.16 149.07 C 114.35 148.79 114.75 148.22 114.95 147.94 C 121.17 143.12 127.90 136.79 127.51 128.24 C 130.46 124.56 134.92 118.31 127.82 117.06 Z" />
</g>
<g id="#783809ff">
<path fill="#783809" opacity="1.00" d=" M 29.99 119.05 C 40.20 120.91 50.74 116.29 60.71 119.16 C 59.12 122.20 52.07 120.08 48.93 123.00 C 46.58 120.15 44.00 121.34 42.08 123.90 C 37.68 119.57 36.15 125.68 36.75 130.06 C 34.98 129.06 32.72 126.84 31.04 129.21 C 29.90 135.85 36.82 139.33 38.91 144.97 C 44.92 150.95 49.45 160.73 58.87 162.20 C 60.97 162.63 65.00 165.38 64.91 161.46 C 60.35 162.04 61.47 154.20 65.62 156.24 C 67.17 159.21 69.71 160.56 73.09 160.10 C 68.88 162.21 73.97 162.69 76.20 163.41 C 75.24 168.06 69.41 165.08 66.46 165.39 C 61.16 164.41 55.14 167.44 50.61 163.41 C 39.79 155.87 33.61 143.25 27.71 131.81 C 29.16 127.00 23.91 125.66 20.06 125.65 C 18.64 119.82 25.73 119.08 29.99 119.05 Z" />
</g>
<g id="#cd921bff">
<path fill="#cd921b" opacity="1.00" d=" M 106.00 125.28 C 104.58 121.36 110.42 115.00 113.32 119.59 C 109.52 119.23 107.05 121.91 106.00 125.28 Z" />
</g>
<g id="#946717ff">
<path fill="#946717" opacity="1.00" d=" M 118.63 119.72 C 124.51 117.48 125.06 126.80 122.06 130.02 C 121.61 130.29 120.71 130.82 120.27 131.09 C 120.75 127.21 119.30 123.48 118.63 119.72 Z" />
</g>
<g id="#ca9c2fff">
<path fill="#ca9c2f" opacity="1.00" d=" M 60.87 126.93 C 61.09 121.30 63.46 117.26 70.21 120.75 C 64.37 119.33 62.74 124.91 60.88 129.05 C 56.01 122.21 58.19 133.96 53.72 135.22 C 52.90 134.77 52.07 134.34 51.23 133.92 C 50.41 131.73 50.03 129.42 49.86 127.10 C 53.62 129.79 52.32 121.87 56.00 122.96 C 58.46 122.72 59.35 125.51 60.87 126.93 Z" />
</g>
<g id="#e4c02eff">
<path fill="#e4c02e" opacity="1.00" d=" M 77.85 123.70 C 81.44 120.69 86.42 120.49 90.83 119.99 C 91.79 121.97 92.15 124.23 93.47 126.03 C 94.98 123.87 95.71 119.72 99.01 119.97 C 102.89 119.11 102.04 127.12 106.00 125.28 C 105.97 127.13 105.96 128.99 105.96 130.85 C 104.53 130.01 103.75 130.92 103.21 132.24 C 101.19 129.41 99.19 126.41 95.95 124.85 C 93.61 126.97 92.28 129.93 93.64 132.99 C 93.36 133.27 92.81 133.82 92.54 134.10 C 87.29 134.81 90.42 128.74 87.80 126.17 C 85.91 123.03 83.01 127.86 80.81 125.92 C 79.83 125.16 78.84 124.43 77.85 123.70 Z" />
</g>
<g id="#f0d557ff">
<path fill="#f0d557" opacity="1.00" d=" M 106.00 125.28 C 107.05 121.91 109.52 119.23 113.32 119.59 C 113.77 124.11 114.15 128.69 113.17 133.17 C 111.81 138.96 107.04 134.23 105.96 130.85 C 105.96 128.99 105.97 127.13 106.00 125.28 Z" />
</g>
<g id="#c49926ff">
<path fill="#c49926" opacity="1.00" d=" M 113.32 119.59 C 115.65 124.46 115.27 120.94 118.63 119.72 C 119.30 123.48 120.75 127.21 120.27 131.09 C 118.05 132.92 114.11 129.43 113.17 133.17 C 114.15 128.69 113.77 124.11 113.32 119.59 Z" />
</g>
<g id="#ab811fff">
<path fill="#ab811f" opacity="1.00" d=" M 42.08 123.90 C 44.00 121.34 46.58 120.15 48.93 123.00 C 49.03 123.44 49.22 124.32 49.32 124.77 C 41.18 124.07 43.86 130.93 43.91 136.14 C 43.19 135.17 42.47 134.11 41.12 134.18 C 38.42 134.25 36.72 132.81 36.75 130.06 C 36.15 125.68 37.68 119.57 42.08 123.90 Z" />
</g>
<g id="#e6c969ff">
<path fill="#e6c969" opacity="1.00" d=" M 60.88 129.05 C 62.74 124.91 64.37 119.33 70.21 120.75 C 70.90 120.90 72.29 121.19 72.98 121.34 C 73.41 121.53 74.27 121.89 74.70 122.07 C 75.51 123.49 76.23 125.61 77.85 123.70 C 78.84 124.43 79.83 125.16 80.81 125.92 C 78.20 126.90 79.16 131.13 75.81 131.53 C 78.58 124.69 67.80 121.01 65.14 127.12 C 65.91 130.10 65.32 132.90 63.38 135.29 C 63.13 134.89 62.63 134.10 62.39 133.70 C 59.43 126.99 58.52 133.72 55.84 136.89 C 55.11 136.36 54.40 135.80 53.72 135.22 C 58.19 133.96 56.01 122.21 60.88 129.05 Z" />
</g>
<g id="#4a3a2a7a">
<path fill="#4a3a2a" opacity="0.48" d=" M 192.80 165.85 C 198.82 151.37 205.29 136.52 206.85 120.74 C 207.39 126.66 207.11 132.93 204.36 138.33 C 200.80 147.36 200.23 158.03 193.67 165.64 L 192.80 165.85 Z" />
</g>
<g id="#ac722dfc">
<path fill="#ac722d" opacity="1.00" d=" M 4.98 125.02 C 6.41 123.79 10.55 121.20 10.01 124.94 C 8.01 130.70 14.33 130.92 17.41 133.32 C 25.27 132.48 22.45 144.05 27.20 147.81 C 34.49 154.64 29.35 165.20 28.38 173.58 C 31.03 175.99 32.92 183.66 30.06 185.25 C 27.78 185.17 25.91 182.99 25.92 180.76 C 25.97 178.97 24.50 177.81 23.26 176.79 C 22.69 175.17 21.57 173.85 20.26 172.79 C 19.80 171.18 18.77 169.77 17.16 169.19 C 16.27 168.50 15.85 167.48 15.90 166.13 C 15.68 163.77 14.53 161.66 12.91 159.97 C 12.71 159.64 12.31 158.98 12.11 158.66 C 12.11 156.94 11.38 155.42 10.39 154.06 C 9.12 147.97 8.68 141.27 4.95 136.10 C 4.90 132.41 4.91 128.70 4.98 125.02 Z" />
</g>
<g id="#f3f0c2ff">
<path fill="#f3f0c2" opacity="1.00" d=" M 65.14 127.12 C 67.80 121.01 78.58 124.69 75.81 131.53 C 75.89 132.94 75.98 134.36 76.07 135.78 C 75.81 136.11 75.28 136.78 75.02 137.12 C 72.08 135.85 69.74 136.16 68.00 138.04 C 66.62 137.76 65.26 137.81 63.91 138.20 C 63.64 137.91 63.08 137.32 62.80 137.03 C 62.94 136.60 63.23 135.73 63.38 135.29 C 65.32 132.90 65.91 130.10 65.14 127.12 Z" />
</g>
<g id="#d7b868ff">
<path fill="#d7b868" opacity="1.00" d=" M 43.91 136.14 C 43.86 130.93 41.18 124.07 49.32 124.77 C 49.45 125.35 49.72 126.52 49.86 127.10 C 50.03 129.42 50.41 131.73 51.23 133.92 C 49.45 136.36 44.67 141.91 43.91 136.14 Z" />
</g>
<g id="#f1ea89ff">
<path fill="#f1ea89" opacity="1.00" d=" M 80.81 125.92 C 83.01 127.86 85.91 123.03 87.80 126.17 C 90.42 128.74 87.29 134.81 92.54 134.10 C 91.80 135.19 91.12 136.33 90.23 137.31 C 87.43 137.29 84.63 137.22 81.83 137.12 C 79.93 136.60 78.12 135.30 76.07 135.78 C 75.98 134.36 75.89 132.94 75.81 131.53 C 79.16 131.13 78.20 126.90 80.81 125.92 Z" />
</g>
<g id="#f1df72ff">
<path fill="#f1df72" opacity="1.00" d=" M 93.64 132.99 C 92.28 129.93 93.61 126.97 95.95 124.85 C 99.19 126.41 101.19 129.41 103.21 132.24 C 102.58 133.36 101.90 134.44 101.13 135.48 C 99.58 134.41 97.52 134.46 95.94 135.42 C 95.16 134.62 94.39 133.81 93.64 132.99 Z" />
</g>
<g id="#411507ff">
<path fill="#411507" opacity="1.00" d=" M 31.04 129.21 C 32.72 126.84 34.98 129.06 36.75 130.06 C 36.72 132.81 38.42 134.25 41.12 134.18 C 31.59 136.84 41.90 144.61 44.88 149.25 C 42.76 148.01 40.81 146.52 38.91 144.97 C 36.82 139.33 29.90 135.85 31.04 129.21 Z" />
</g>
<g id="#0d050aff">
<path fill="#0d050a" opacity="1.00" d=" M 122.06 130.02 C 123.38 129.63 124.71 129.26 126.07 129.01 C 126.17 136.84 118.48 141.64 114.95 147.94 C 114.75 148.22 114.35 148.79 114.16 149.07 L 113.30 149.32 C 107.40 151.25 101.82 145.84 95.91 148.87 C 88.80 152.99 80.36 155.57 72.21 152.88 C 66.87 151.18 61.62 148.96 56.06 148.11 C 53.00 148.83 51.41 152.63 47.88 152.39 C 46.86 151.37 45.86 150.32 44.88 149.25 C 41.90 144.61 31.59 136.84 41.12 134.18 C 42.47 134.11 43.19 135.17 43.91 136.14 C 44.67 141.91 49.45 136.36 51.23 133.92 C 52.07 134.34 52.90 134.77 53.72 135.22 C 54.40 135.80 55.11 136.36 55.84 136.89 C 57.95 137.34 60.17 136.97 61.20 134.89 C 61.60 135.70 62.14 136.41 62.80 137.03 C 63.08 137.32 63.64 137.91 63.91 138.20 C 64.84 139.80 67.14 139.57 68.00 138.04 C 70.99 139.31 73.33 139.01 75.02 137.12 C 75.28 136.78 75.81 136.11 76.07 135.78 C 78.12 135.30 79.93 136.60 81.83 137.12 C 84.54 137.68 87.64 138.81 90.23 137.31 C 91.12 136.33 91.80 135.19 92.54 134.10 C 92.81 133.82 93.36 133.27 93.64 132.99 C 94.39 133.81 95.16 134.62 95.94 135.42 C 97.24 135.44 99.84 135.46 101.13 135.48 C 101.90 134.44 102.58 133.36 103.21 132.24 C 103.75 130.92 104.53 130.01 105.96 130.85 C 107.04 134.23 111.81 138.96 113.17 133.17 C 114.11 129.43 118.05 132.92 120.27 131.09 C 120.71 130.82 121.61 130.29 122.06 130.02 Z" />
</g>
<g id="#e4e0b9ff">
<path fill="#e4e0b9" opacity="1.00" d=" M 55.84 136.89 C 58.52 133.72 59.43 126.99 62.39 133.70 C 62.09 134.00 61.50 134.59 61.20 134.89 C 60.17 136.97 57.95 137.34 55.84 136.89 Z" />
</g>
<g id="#7f7854ff">
<path fill="#7f7854" opacity="1.00" d=" M 61.20 134.89 C 61.50 134.59 62.09 134.00 62.39 133.70 C 62.63 134.10 63.13 134.89 63.38 135.29 C 63.23 135.73 62.94 136.60 62.80 137.03 C 62.14 136.41 61.60 135.70 61.20 134.89 Z" />
</g>
<g id="#7e744cff">
<path fill="#7e744c" opacity="1.00" d=" M 95.94 135.42 C 97.52 134.46 99.58 134.41 101.13 135.48 C 99.84 135.46 97.24 135.44 95.94 135.42 Z" />
</g>
<g id="#7e7d73ff">
<path fill="#7e7d73" opacity="1.00" d=" M 68.00 138.04 C 69.74 136.16 72.08 135.85 75.02 137.12 C 73.33 139.01 70.99 139.31 68.00 138.04 Z" />
</g>
<g id="#7e786cff">
<path fill="#7e786c" opacity="1.00" d=" M 81.83 137.12 C 84.63 137.22 87.43 137.29 90.23 137.31 C 87.64 138.81 84.54 137.68 81.83 137.12 Z" />
</g>
<g id="#615b4cff">
<path fill="#615b4c" opacity="1.00" d=" M 63.91 138.20 C 65.26 137.81 66.62 137.76 68.00 138.04 C 67.14 139.57 64.84 139.80 63.91 138.20 Z" />
</g>
<g id="#651d0aff">
<path fill="#651d0a" opacity="1.00" d=" M 38.91 144.97 C 40.81 146.52 42.76 148.01 44.88 149.25 C 45.86 150.32 46.86 151.37 47.88 152.39 C 51.30 155.68 55.05 159.79 59.80 160.84 C 64.57 156.36 49.49 155.33 55.22 150.06 C 60.97 150.60 66.34 153.20 72.21 152.88 C 80.36 155.57 88.80 152.99 95.91 148.87 C 103.03 146.92 104.35 149.17 103.83 154.37 C 107.34 156.78 110.36 150.56 113.30 149.32 L 114.16 149.07 C 109.18 155.97 100.83 160.83 92.33 161.85 C 92.20 161.44 91.95 160.62 91.82 160.20 C 93.41 159.30 96.01 159.27 96.23 157.00 C 89.82 157.72 83.65 159.69 77.36 161.05 C 75.96 160.62 74.56 160.15 73.09 160.10 C 69.71 160.56 67.17 159.21 65.62 156.24 C 61.47 154.20 60.35 162.04 64.91 161.46 C 65.00 165.38 60.97 162.63 58.87 162.20 C 49.45 160.73 44.92 150.95 38.91 144.97 Z" />
</g>
<g id="#460c08ff">
<path fill="#460c08" opacity="1.00" d=" M 47.88 152.39 C 51.41 152.63 53.00 148.83 56.06 148.11 C 61.62 148.96 66.87 151.18 72.21 152.88 C 66.34 153.20 60.97 150.60 55.22 150.06 C 49.49 155.33 64.57 156.36 59.80 160.84 C 55.05 159.79 51.30 155.68 47.88 152.39 Z" />
</g>
<g id="#3a0a0aff">
<path fill="#3a0a0a" opacity="1.00" d=" M 95.91 148.87 C 101.82 145.84 107.40 151.25 113.30 149.32 C 110.36 150.56 107.34 156.78 103.83 154.37 C 104.35 149.17 103.03 146.92 95.91 148.87 Z" />
</g>
<g id="#45352a77">
<path fill="#45352a" opacity="0.47" d=" M 10.39 154.06 C 11.38 155.42 12.11 156.94 12.11 158.66 C 10.14 158.84 9.17 155.45 10.39 154.06 Z" />
</g>
<g id="#b15904ff">
<path fill="#b15904" opacity="1.00" d=" M 101.98 165.93 C 107.10 163.49 111.98 160.55 117.05 157.99 C 112.61 164.53 104.82 168.16 98.39 172.43 C 95.25 175.11 89.06 165.83 90.59 172.97 C 79.28 175.66 63.98 181.07 53.82 173.20 C 56.98 173.46 62.22 175.70 61.69 170.80 C 62.28 164.55 70.47 170.77 74.76 170.34 C 83.38 166.74 93.06 168.18 101.98 165.93 Z" />
</g>
<g id="#4d3d2c7d">
<path fill="#4d3d2c" opacity="0.49" d=" M 12.91 159.97 C 14.53 161.66 15.68 163.77 15.90 166.13 C 13.78 164.85 12.95 162.34 12.91 159.97 Z" />
</g>
<g id="#c1824fff">
<path fill="#c1824f" opacity="1.00" d=" M 73.09 160.10 C 74.56 160.15 75.96 160.62 77.36 161.05 C 77.07 161.64 76.49 162.82 76.20 163.41 C 73.97 162.69 68.88 162.21 73.09 160.10 Z" />
</g>
<g id="#40342a68">
<path fill="#40342a" opacity="0.41" d=" M 184.84 176.98 C 186.89 172.88 190.01 169.45 192.80 165.85 L 193.67 165.64 C 191.84 169.91 189.02 174.56 184.84 176.98 Z" />
</g>
<g id="#5b483493">
<path fill="#5b4834" opacity="0.58" d=" M 17.16 169.19 C 18.77 169.77 19.80 171.18 20.26 172.79 C 18.55 173.16 16.34 170.88 17.16 169.19 Z" />
</g>
<g id="#58493198">
<path fill="#584931" opacity="0.60" d=" M 20.26 172.79 C 21.57 173.85 22.69 175.17 23.26 176.79 C 21.33 177.16 19.28 174.58 20.26 172.79 Z" />
</g>
<g id="#5c473495">
<path fill="#5c4734" opacity="0.58" d=" M 23.26 176.79 C 24.50 177.81 25.97 178.97 25.92 180.76 C 24.14 181.03 22.36 178.42 23.26 176.79 Z" />
</g>
<g id="#4732227c">
<path fill="#473222" opacity="0.49" d=" M 170.03 191.12 C 173.84 188.26 177.47 185.17 181.04 182.02 C 176.62 189.54 168.56 195.21 160.56 198.82 C 162.89 195.36 166.97 193.81 170.03 191.12 Z" />
</g>
<g id="#a75b04ff">
<path fill="#a75b04" opacity="1.00" d=" M 68.65 188.64 C 76.82 181.41 89.21 187.68 94.30 195.69 C 102.26 194.75 110.00 198.03 118.01 197.09 C 130.32 199.30 139.30 188.42 151.41 189.53 C 153.03 185.15 157.87 185.56 161.82 184.86 C 164.75 185.99 167.40 187.73 168.13 190.98 C 156.32 198.77 141.93 198.07 128.54 200.43 C 106.74 203.52 84.91 200.45 63.09 198.76 C 55.28 197.30 46.80 196.24 40.49 190.97 C 44.19 188.94 48.91 194.01 52.16 190.40 C 57.54 191.06 64.56 192.93 68.65 188.64 Z" />
</g>
<g id="#8d4508fa">
<path fill="#8d4508" opacity="0.98" d=" M 32.00 187.82 C 35.10 188.27 37.23 191.20 40.49 190.97 C 46.80 196.24 55.28 197.30 63.09 198.76 C 84.91 200.45 106.74 203.52 128.54 200.43 C 141.93 198.07 156.32 198.77 168.13 190.98 L 169.03 191.03 L 170.03 191.12 C 166.97 193.81 162.89 195.36 160.56 198.82 C 159.34 198.82 157.99 198.76 156.99 199.57 C 155.65 200.34 154.39 201.23 153.03 201.96 C 131.86 204.48 110.51 204.10 89.26 204.81 C 82.53 203.84 75.74 204.01 68.97 203.97 C 63.81 203.21 58.44 203.74 53.40 202.52 C 48.69 199.47 44.32 195.81 38.96 193.91 C 36.41 192.22 34.08 190.09 32.00 187.82 Z" />
</g>
<g id="#40230a8a">
<path fill="#40230a" opacity="0.54" d=" M 38.96 193.91 C 44.32 195.81 48.69 199.47 53.40 202.52 C 58.44 203.74 63.81 203.21 68.97 203.97 L 69.01 204.99 C 57.53 205.85 46.92 202.16 38.96 193.91 Z" />
</g>
<g id="#3f2b1087">
<path fill="#3f2b10" opacity="0.53" d=" M 156.99 199.57 C 157.99 198.76 159.34 198.82 160.56 198.82 C 161.07 200.70 157.79 200.70 156.99 199.57 Z" />
</g>
<g id="#591f04ba">
<path fill="#591f04" opacity="0.73" d=" M 89.26 204.81 C 110.51 204.10 131.86 204.48 153.03 201.96 C 152.31 204.84 149.20 203.80 147.00 204.01 C 132.25 205.36 117.24 203.76 102.68 206.74 C 98.53 206.88 94.39 206.96 90.24 207.00 C 89.93 206.69 89.32 206.07 89.02 205.76 L 89.26 204.81 Z" />
</g>
<g id="#672907d2">
<path fill="#672907" opacity="0.82" d=" M 68.97 203.97 C 75.74 204.01 82.53 203.84 89.26 204.81 C 82.51 204.92 75.76 205.06 69.01 204.99 L 68.97 203.97 Z" />
</g>
<g id="#2b0e015e">
<path fill="#2b0e01" opacity="0.37" d=" M 102.68 206.74 C 117.24 203.76 132.25 205.36 147.00 204.01 C 134.11 207.35 117.12 205.67 102.68 206.74 Z" />
</g>
<g id="#3112046c">
<path fill="#311204" opacity="0.42" d=" M 69.01 204.99 C 75.76 205.06 82.51 204.92 89.26 204.81 L 89.02 205.76 C 83.13 205.07 73.24 208.01 69.01 204.99 Z" />
</g>
<g id="#1d05024a">
<path fill="#1d0502" opacity="0.29" d=" M 90.24 207.00 C 94.39 206.96 98.53 206.88 102.68 206.74 C 102.65 208.43 90.91 209.34 90.24 207.00 Z" />
</g>
</svg>
