<?xml version="1.0" encoding="UTF-8" ?>
<!DOCTYPE svg PUBLIC "-//W3C//DTD SVG 1.1//EN" "http://www.w3.org/Graphics/SVG/1.1/DTD/svg11.dtd">
<svg width="210pt" height="220pt" viewBox="0 0 210 220" version="1.1" xmlns="http://www.w3.org/2000/svg">
<g id="#797979f3">
<path fill="#797979" opacity="0.95" d=" M 103.92 2.62 C 104.98 0.74 107.27 1.39 109.03 1.23 C 112.72 0.82 115.80 3.31 118.84 5.01 C 119.06 5.47 119.51 6.40 119.73 6.87 C 117.41 5.92 115.18 4.77 113.05 3.45 C 103.05 2.90 92.99 6.24 84.92 12.10 C 86.77 13.65 88.63 15.20 90.57 16.64 C 89.80 16.42 88.28 15.96 87.51 15.73 C 88.30 18.48 88.63 21.34 88.47 24.19 C 88.17 24.42 87.56 24.88 87.26 25.11 C 87.29 22.79 87.30 20.48 87.34 18.16 C 86.16 16.95 85.00 15.74 83.84 14.52 C 80.01 14.13 76.14 14.38 72.38 15.22 C 65.26 19.15 60.21 25.84 56.62 32.99 C 53.53 39.87 56.42 47.35 56.68 54.47 C 57.35 53.93 58.01 53.38 58.66 52.83 C 58.43 46.65 59.25 39.83 64.19 35.51 C 60.98 41.17 58.91 47.46 59.76 54.04 C 58.85 54.69 57.96 55.36 57.07 56.03 C 56.34 54.61 55.57 53.21 54.59 51.93 C 54.59 50.25 54.68 48.56 54.52 46.88 C 52.47 43.67 53.17 39.71 53.34 36.12 C 54.89 33.05 56.59 30.04 57.88 26.85 C 59.07 25.65 60.26 24.44 61.43 23.22 C 61.93 21.33 62.84 19.42 64.96 18.98 C 67.74 18.25 68.65 14.85 71.46 14.22 C 75.24 12.47 79.53 13.79 83.54 13.44 C 83.60 12.77 83.73 11.43 83.79 10.76 C 87.23 9.69 89.60 6.70 93.02 5.50 C 95.34 3.30 99.40 5.98 100.90 2.68 C 101.91 2.66 102.91 2.64 103.92 2.62 Z" />
<path fill="#797979" opacity="0.95" d=" M 125.30 5.80 C 127.13 5.19 129.17 5.33 130.15 7.21 C 132.27 7.09 134.15 7.92 135.90 9.01 C 137.27 9.83 138.65 10.63 140.02 11.44 C 140.56 11.50 141.63 11.63 142.17 11.69 C 142.77 12.59 143.37 13.48 143.97 14.38 C 144.61 14.45 145.91 14.59 146.55 14.66 C 149.97 17.88 152.73 21.90 156.94 24.16 C 160.04 26.20 162.17 29.29 163.16 32.85 C 164.51 33.96 164.65 35.60 164.53 37.24 C 165.55 38.85 166.70 40.39 167.51 42.12 C 167.67 45.48 167.32 48.83 167.26 52.18 C 167.78 52.59 168.82 53.42 169.34 53.83 C 169.27 55.22 169.18 56.62 169.10 58.01 C 167.76 63.60 170.33 69.86 167.34 74.97 C 168.45 76.91 170.34 78.23 171.88 79.80 C 171.87 81.01 171.87 82.21 171.88 83.42 C 174.09 83.34 173.29 85.68 173.56 86.95 C 173.35 89.04 174.40 91.98 171.82 92.98 C 171.47 89.06 171.38 85.12 170.78 81.22 C 168.23 78.36 166.65 74.42 162.95 72.81 L 162.36 75.32 C 159.83 75.99 157.23 76.30 154.64 76.61 C 156.93 78.16 159.34 79.75 160.77 82.21 C 159.59 85.24 159.44 88.50 159.22 91.71 L 161.60 92.04 C 161.55 92.35 161.45 92.98 161.40 93.30 C 159.98 94.35 158.54 95.38 157.09 96.38 C 157.50 93.26 158.46 90.21 158.63 87.06 C 158.79 83.99 156.21 81.85 154.24 79.87 C 152.14 78.63 149.55 79.39 147.24 79.29 C 149.41 79.66 151.59 80.02 153.71 80.61 C 152.43 80.46 149.87 80.16 148.59 80.00 C 149.83 82.28 151.00 84.59 152.15 86.92 C 150.52 85.75 149.64 83.90 148.65 82.24 C 148.15 83.28 147.66 84.32 147.17 85.36 C 146.70 85.55 145.75 85.93 145.28 86.13 C 146.36 84.19 147.34 82.20 148.30 80.21 C 142.85 83.73 136.17 85.47 129.74 84.05 C 126.10 83.22 122.60 80.24 123.24 76.14 C 120.84 76.51 118.45 76.86 116.06 77.28 C 119.71 75.57 123.74 73.81 127.86 74.65 C 130.74 75.27 133.61 75.94 136.57 75.98 C 136.63 75.16 136.75 73.52 136.81 72.70 C 137.17 73.11 137.91 73.94 138.27 74.36 C 137.36 75.46 136.58 77.31 134.89 77.25 C 131.37 76.82 127.97 75.69 124.48 75.10 C 125.97 76.83 127.72 78.40 128.83 80.44 C 129.06 81.01 129.51 82.17 129.74 82.74 C 132.42 82.36 135.16 81.98 137.79 82.94 L 137.86 80.60 C 140.86 78.72 144.05 77.18 147.36 75.95 C 147.41 75.28 147.49 73.94 147.53 73.27 C 153.32 71.69 159.33 71.40 165.27 72.20 C 161.04 66.64 153.64 71.07 147.95 70.83 C 145.33 71.37 143.91 68.93 142.38 67.31 C 143.62 64.96 145.17 62.68 145.72 60.04 C 146.23 57.21 144.36 54.79 143.31 52.32 C 144.05 51.56 144.80 50.81 145.55 50.05 C 143.89 48.17 142.41 46.13 141.34 43.86 C 137.79 41.61 135.65 37.42 131.46 36.23 C 129.77 35.47 127.20 35.37 127.23 32.95 C 128.46 32.43 129.71 31.94 130.97 31.48 C 130.00 32.28 129.05 33.09 128.11 33.92 C 131.12 35.00 134.57 35.63 136.68 38.28 C 138.44 40.38 140.60 42.06 143.08 43.24 C 143.22 44.12 143.37 44.99 143.52 45.87 C 146.11 47.70 146.18 50.52 145.03 53.23 C 145.83 54.78 146.70 56.29 147.27 57.95 C 147.26 61.26 145.03 63.98 144.07 67.05 C 144.69 68.38 145.69 69.48 146.58 70.63 C 151.77 69.24 157.19 67.88 162.60 68.74 C 164.56 69.05 165.57 71.02 166.94 72.23 C 167.77 65.21 167.38 57.99 166.31 51.04 C 166.46 45.69 165.20 40.37 162.91 35.55 C 162.82 34.93 162.65 33.68 162.56 33.06 C 160.25 29.85 158.16 26.28 154.68 24.19 C 151.63 22.33 149.03 19.89 146.63 17.28 C 139.82 10.61 130.35 7.87 121.10 6.81 C 122.50 6.47 123.90 6.12 125.30 5.80 Z" />
<path fill="#797979" opacity="0.95" d=" M 110.64 35.76 C 119.54 33.84 127.47 28.61 136.49 27.05 C 136.48 27.64 136.45 28.81 136.43 29.39 C 136.07 29.45 135.34 29.57 134.97 29.63 C 130.96 28.74 127.50 31.19 123.83 32.34 C 120.35 33.43 117.11 35.14 113.73 36.48 C 112.58 37.20 111.53 36.50 110.64 35.76 Z" />
<path fill="#797979" opacity="0.95" d=" M 95.06 51.10 C 103.67 49.27 112.62 47.57 121.43 48.80 C 127.49 50.57 134.34 52.46 138.22 57.81 C 135.07 58.23 132.95 55.76 130.40 54.46 C 125.03 51.71 119.00 50.03 112.93 50.63 C 104.40 52.12 95.62 53.33 86.96 52.18 C 89.54 51.05 92.29 50.80 95.06 51.10 Z" />
<path fill="#797979" opacity="0.95" d=" M 73.44 54.53 C 80.60 51.08 87.78 57.16 95.05 54.93 C 101.27 53.36 107.73 53.80 114.01 52.63 C 119.14 53.29 124.55 53.46 129.27 55.82 C 132.57 57.34 135.68 59.27 138.53 61.52 C 139.77 62.22 139.60 63.70 139.88 64.89 C 138.38 64.15 136.89 63.42 135.41 62.68 C 135.89 63.85 136.37 65.03 136.85 66.22 C 134.08 64.56 131.72 62.17 128.55 61.25 C 123.16 59.69 117.53 58.75 111.91 59.40 C 111.21 60.67 110.50 61.94 109.77 63.20 C 109.62 64.27 109.48 65.33 109.35 66.39 C 108.86 66.42 107.89 66.46 107.40 66.49 C 106.63 62.75 108.91 59.84 111.33 57.34 C 114.59 57.38 117.87 57.40 121.07 56.71 C 124.04 57.85 126.96 59.22 130.12 59.77 C 128.14 56.63 123.58 57.13 120.96 54.60 C 116.31 54.53 111.66 54.52 107.01 54.61 C 103.85 56.05 100.57 57.57 97.02 57.49 C 90.31 57.33 83.56 57.08 76.98 55.70 C 75.79 56.19 74.60 56.66 73.40 57.13 C 73.41 56.48 73.43 55.18 73.44 54.53 Z" />
<path fill="#797979" opacity="0.95" d=" M 71.32 67.13 C 70.54 62.24 75.89 58.13 80.47 59.60 C 77.22 61.87 73.89 64.05 71.32 67.13 Z" />
<path fill="#797979" opacity="0.95" d=" M 81.83 60.08 C 83.18 58.19 85.22 58.42 87.11 59.22 C 89.67 59.47 93.30 58.48 94.15 61.81 C 89.98 61.69 86.00 60.26 81.83 60.08 Z" />
<path fill="#797979" opacity="0.95" d=" M 89.41 63.18 C 93.49 63.15 93.48 67.71 93.40 70.71 C 92.79 70.57 91.56 70.27 90.94 70.12 C 90.67 67.76 90.32 65.40 89.41 63.18 Z" />
<path fill="#797979" opacity="0.95" d=" M 75.44 70.53 C 76.46 69.75 77.66 69.23 78.97 69.28 C 83.28 68.98 88.05 69.59 91.15 72.93 C 87.98 71.66 84.70 70.71 81.35 70.05 C 81.46 71.02 81.68 72.96 81.80 73.93 C 80.55 73.99 79.31 74.05 78.08 74.11 C 78.25 73.16 78.59 71.26 78.76 70.31 C 77.93 70.36 76.27 70.47 75.44 70.53 Z" />
<path fill="#797979" opacity="0.95" d=" M 130.43 71.18 C 131.62 71.81 134.78 70.92 134.25 73.04 C 134.46 75.31 131.73 73.65 130.64 73.44 C 130.59 72.87 130.49 71.74 130.43 71.18 Z" />
<path fill="#797979" opacity="0.95" d=" M 139.26 71.43 C 141.05 71.94 142.84 72.45 144.65 72.93 C 144.55 74.56 143.57 75.58 142.01 75.99 C 141.03 76.58 140.07 77.18 139.11 77.80 C 139.67 76.90 140.24 76.00 140.80 75.10 C 140.29 73.88 139.77 72.66 139.26 71.43 Z" />
<path fill="#797979" opacity="0.95" d=" M 55.48 76.62 C 59.40 72.59 65.16 72.70 70.36 72.63 C 70.39 73.55 70.42 74.47 70.46 75.40 C 67.42 75.34 64.39 75.32 61.36 75.33 C 61.33 76.43 61.27 78.63 61.24 79.73 C 65.93 79.15 71.25 79.28 74.49 83.27 C 70.06 81.06 63.36 78.36 59.89 83.49 C 59.62 83.79 59.10 84.39 58.83 84.69 C 58.45 85.16 57.68 86.09 57.29 86.56 C 58.53 88.24 59.71 90.03 59.92 92.17 C 58.73 91.33 57.55 90.48 56.38 89.62 C 56.38 86.53 56.38 83.45 56.29 80.37 C 55.32 81.63 54.37 82.89 53.41 84.16 C 52.89 83.45 52.38 82.74 51.88 82.02 C 50.80 79.77 52.66 77.86 53.96 76.21 C 54.34 76.31 55.10 76.52 55.48 76.62 Z" />
<path fill="#797979" opacity="0.95" d=" M 49.00 76.82 C 50.07 75.86 51.14 74.90 52.23 73.97 C 51.32 75.57 50.50 77.22 49.69 78.86 C 49.46 78.18 49.23 77.50 49.00 76.82 Z" />
<path fill="#797979" opacity="0.95" d=" M 76.08 83.49 C 77.55 82.35 79.34 82.06 81.15 82.09 C 80.38 86.40 76.00 88.00 72.07 87.46 L 71.55 86.57 C 74.72 86.47 78.26 86.33 80.10 83.29 C 79.09 83.34 77.08 83.44 76.08 83.49 Z" />
<path fill="#797979" opacity="0.95" d=" M 62.51 83.60 C 65.07 82.67 68.96 81.09 70.35 84.54 L 68.00 83.20 C 68.85 86.81 69.45 90.47 69.65 94.17 C 68.01 92.25 67.80 89.64 67.10 87.32 C 65.65 90.43 64.08 93.57 63.60 97.02 C 62.38 103.48 63.68 110.01 63.71 116.50 C 61.47 110.17 61.68 103.39 61.98 96.78 C 60.07 96.09 58.19 95.32 56.34 94.50 C 56.15 94.93 55.79 95.78 55.60 96.21 C 53.85 93.63 52.98 90.59 52.72 87.50 C 53.79 88.94 54.82 90.42 55.86 91.88 C 58.49 92.66 60.72 94.22 62.37 96.41 C 63.83 92.01 65.50 87.69 67.12 83.35 C 65.96 83.41 63.66 83.54 62.51 83.60 Z" />
<path fill="#797979" opacity="0.95" d=" M 112.88 87.25 C 114.59 87.46 116.52 87.04 118.02 88.07 C 120.76 90.03 124.31 89.11 127.42 89.94 C 123.94 91.25 120.19 90.66 116.60 90.35 C 116.72 92.74 115.71 94.85 114.35 96.73 C 114.77 94.29 115.17 91.86 115.47 89.41 C 114.60 88.69 113.74 87.97 112.88 87.25 Z" />
<path fill="#797979" opacity="0.95" d=" M 49.28 87.70 C 50.80 91.42 52.61 95.01 54.25 98.67 C 55.58 101.60 54.68 105.31 57.17 107.71 C 57.41 104.99 57.50 102.25 57.39 99.52 C 59.25 103.74 58.57 108.50 58.64 112.98 C 58.66 118.66 57.84 124.29 57.04 129.90 C 60.42 128.09 63.73 126.15 67.04 124.22 C 67.43 124.99 67.81 125.76 68.19 126.54 C 66.90 128.94 65.08 130.94 62.58 132.07 C 62.43 131.19 62.11 129.42 61.96 128.54 C 59.55 129.76 57.08 130.85 54.58 131.85 C 54.16 130.55 53.73 129.26 53.38 127.94 C 52.61 124.96 53.51 122.01 54.52 119.22 C 54.79 114.04 54.22 108.83 54.80 103.65 C 54.37 103.25 53.50 102.46 53.06 102.06 C 53.16 101.26 53.36 99.65 53.46 98.85 C 53.01 98.61 52.10 98.14 51.65 97.90 C 52.79 94.06 48.18 91.26 49.28 87.70 M 55.75 115.05 C 54.83 119.00 54.91 123.09 55.56 127.08 C 57.51 123.62 57.31 119.45 57.51 115.60 C 57.07 115.46 56.19 115.19 55.75 115.05 Z" />
<path fill="#797979" opacity="0.95" d=" M 75.67 93.91 C 78.14 92.55 80.63 91.23 83.10 89.88 C 82.61 90.44 81.64 91.56 81.16 92.13 C 82.93 92.65 84.72 93.13 86.48 93.72 C 82.67 93.37 78.96 94.26 75.51 95.83 C 75.55 95.35 75.63 94.39 75.67 93.91 Z" />
<path fill="#797979" opacity="0.95" d=" M 165.22 90.10 C 165.68 92.00 166.01 94.06 165.00 95.86 C 162.78 97.88 160.09 99.92 156.90 99.58 C 161.03 97.78 163.48 94.09 165.22 90.10 Z" />
<path fill="#797979" opacity="0.95" d=" M 100.35 95.45 C 100.43 93.82 100.45 92.05 102.42 91.60 C 102.30 92.48 102.18 93.37 102.05 94.25 C 104.51 94.18 106.97 94.15 109.44 94.14 C 109.14 93.47 108.54 92.12 108.24 91.45 C 110.02 92.03 110.53 93.63 110.73 95.31 C 107.27 95.27 103.81 95.30 100.35 95.45 Z" />
<path fill="#797979" opacity="0.95" d=" M 162.73 104.98 C 165.53 100.82 169.11 97.27 171.82 93.05 C 170.98 98.37 166.35 101.52 162.73 104.98 Z" />
<path fill="#797979" opacity="0.95" d=" M 95.94 95.70 C 96.49 95.56 97.59 95.26 98.14 95.12 C 97.21 97.11 96.18 99.05 95.14 100.98 C 102.41 100.54 109.37 98.31 116.57 97.52 C 105.61 101.83 93.37 103.15 81.76 101.01 C 78.19 100.44 75.04 98.52 72.29 96.24 C 78.57 99.37 85.51 101.28 92.57 100.72 C 91.94 100.00 90.67 98.56 90.04 97.83 C 91.39 98.57 92.77 99.23 94.15 99.92 C 94.90 98.87 95.64 97.82 96.39 96.77 L 94.15 96.62 C 94.60 96.39 95.49 95.93 95.94 95.70 Z" />
<path fill="#797979" opacity="0.95" d=" M 67.75 98.69 C 68.73 98.48 69.72 98.28 70.70 98.08 C 70.84 98.77 71.12 100.14 71.26 100.82 C 72.61 100.68 74.02 100.44 75.31 101.02 C 70.88 101.33 73.39 106.52 75.18 108.49 C 75.92 106.34 76.49 104.13 76.57 101.85 C 78.82 103.47 76.59 106.50 76.52 108.66 C 75.29 108.52 74.07 108.39 72.85 108.25 C 72.41 106.28 71.89 104.33 71.02 102.51 C 70.48 103.84 69.95 105.17 69.44 106.51 C 68.89 106.48 67.80 106.43 67.26 106.40 C 67.00 103.82 67.26 101.23 67.75 98.69 M 68.05 104.91 C 70.84 104.52 69.15 100.73 69.52 98.80 C 68.79 100.71 67.17 102.84 68.05 104.91 Z" />
<path fill="#797979" opacity="0.95" d=" M 79.08 108.66 C 79.49 106.86 78.67 103.78 81.02 103.16 C 83.92 103.28 86.77 103.87 89.61 104.43 C 89.56 106.10 89.49 107.78 89.41 109.45 C 85.95 109.63 82.46 109.54 79.08 108.66 M 80.69 104.24 C 80.42 105.02 79.88 106.59 79.60 107.38 C 82.44 108.56 85.52 108.50 88.53 108.49 C 88.49 107.58 88.40 105.77 88.36 104.87 C 85.80 104.67 83.25 104.46 80.69 104.24 Z" />
<path fill="#797979" opacity="0.95" d=" M 92.71 104.64 C 95.28 103.59 98.10 103.48 100.83 103.21 C 100.82 105.32 100.78 107.43 100.68 109.54 C 97.49 109.57 94.31 109.58 91.12 109.58 C 91.32 107.86 91.05 105.74 92.71 104.64 M 91.58 108.36 C 94.44 108.47 97.31 108.46 100.17 108.40 C 100.19 107.37 100.22 105.30 100.23 104.27 C 97.06 104.71 92.55 104.42 91.58 108.36 Z" />
<path fill="#797979" opacity="0.95" d=" M 144.15 128.18 C 148.38 125.06 151.92 121.12 155.95 117.76 C 155.76 118.36 155.38 119.56 155.19 120.16 C 152.55 122.86 150.17 126.28 146.20 127.02 C 147.42 128.81 149.62 129.38 151.11 130.86 C 152.87 132.56 154.46 134.42 156.11 136.22 C 156.70 136.29 157.87 136.42 158.45 136.49 C 159.51 137.77 160.59 139.04 161.69 140.29 C 164.56 140.55 166.06 143.22 167.96 145.01 C 170.22 145.74 172.66 146.42 174.25 148.32 C 173.65 148.32 172.46 148.32 171.87 148.31 C 165.86 145.17 160.84 140.54 155.34 136.64 C 152.03 134.37 149.52 131.19 146.42 128.69 C 146.13 128.82 145.54 129.09 145.24 129.23 C 146.19 134.87 143.59 140.08 141.94 145.34 C 139.52 151.99 136.09 158.23 133.83 164.94 C 133.02 167.32 132.04 169.68 130.37 171.60 L 128.30 171.59 C 122.97 175.87 118.65 181.99 111.82 183.98 C 113.90 179.41 118.38 176.87 121.90 173.56 C 123.77 171.93 125.38 169.99 127.42 168.55 C 128.61 168.76 129.76 169.16 130.95 169.43 C 132.46 165.98 133.57 162.38 134.81 158.83 C 134.24 158.87 133.09 158.97 132.52 159.02 C 126.59 165.89 119.78 171.93 113.07 178.02 C 111.41 179.67 109.17 180.41 106.92 180.81 C 110.65 175.34 116.15 171.46 120.91 166.96 C 125.19 163.15 128.96 158.80 133.48 155.27 C 134.36 155.90 135.22 156.58 136.14 157.15 C 138.90 149.76 141.94 142.46 144.12 134.88 C 144.79 133.02 143.87 131.15 143.54 129.33 C 141.02 130.77 138.40 132.04 135.66 132.98 C 138.30 131.06 141.17 129.51 144.15 128.18 Z" />
<path fill="#797979" opacity="0.95" d=" M 90.27 119.82 C 91.30 121.66 91.66 123.75 91.97 125.80 C 89.91 125.61 87.31 126.37 85.92 124.39 C 87.52 124.54 89.13 124.69 90.73 124.83 C 90.57 123.16 90.42 121.49 90.27 119.82 Z" />
<path fill="#797979" opacity="0.95" d=" M 119.15 129.04 C 125.48 126.21 131.25 122.07 138.05 120.37 C 135.84 123.62 131.99 124.85 128.78 126.81 C 126.28 128.35 123.63 129.59 120.91 130.69 C 129.82 129.72 136.33 122.19 145.06 120.84 C 143.36 124.04 139.83 125.31 136.86 126.99 C 128.40 131.56 119.27 134.77 109.96 137.10 C 108.58 137.41 107.28 136.68 105.95 136.42 C 101.48 140.34 95.06 139.00 89.71 140.66 C 89.59 140.10 89.34 138.99 89.22 138.43 C 91.08 138.43 92.94 138.42 94.80 138.36 C 97.37 137.58 100.02 137.11 102.64 136.52 C 102.56 135.72 102.39 134.11 102.31 133.31 C 104.30 133.42 106.32 133.60 108.15 134.48 C 111.11 131.40 115.49 130.90 119.15 129.04 Z" />
<path fill="#797979" opacity="0.95" d=" M 34.85 123.00 C 37.16 123.16 39.52 120.48 41.31 123.03 C 42.57 123.35 43.84 123.66 45.12 123.93 C 48.56 124.98 49.38 128.73 51.06 131.46 C 51.72 131.55 53.03 131.74 53.68 131.83 C 53.45 132.29 52.98 133.20 52.75 133.65 C 49.39 134.81 48.20 130.38 48.10 127.89 C 46.22 126.26 44.40 124.42 42.05 123.46 C 37.60 123.16 33.79 126.02 30.29 128.40 C 30.38 131.94 30.55 135.51 30.05 139.03 C 26.71 135.85 28.33 130.36 29.91 126.59 C 30.95 126.18 31.98 125.77 33.02 125.36 C 33.62 124.57 34.24 123.78 34.85 123.00 Z" />
<path fill="#797979" opacity="0.95" d=" M 68.12 131.41 C 70.69 129.64 73.21 127.62 76.22 126.68 C 79.83 126.44 83.30 127.75 86.78 128.53 C 83.81 128.59 80.85 128.28 77.90 127.98 C 75.36 127.59 73.15 129.29 70.90 130.17 C 75.01 133.45 80.35 133.62 85.29 134.54 C 85.35 135.01 85.46 135.94 85.52 136.41 C 79.31 136.89 72.98 135.43 68.12 131.41 Z" />
<path fill="#797979" opacity="0.95" d=" M 99.19 132.37 C 97.65 131.91 98.45 129.28 99.97 129.69 C 101.47 130.18 100.74 132.79 99.19 132.37 Z" />
<path fill="#797979" opacity="0.95" d=" M 56.31 138.42 C 59.18 136.05 62.73 134.76 65.95 132.95 C 65.77 133.46 65.42 134.49 65.24 135.00 C 68.75 136.74 72.58 137.73 76.49 137.97 C 77.23 138.74 77.96 139.51 78.70 140.29 C 76.28 140.35 73.84 140.56 71.42 140.25 C 68.12 139.64 65.43 137.47 62.68 135.69 C 60.84 136.72 59.01 137.76 57.19 138.80 C 57.36 139.60 57.70 141.22 57.87 142.02 C 57.06 140.97 55.82 139.90 56.31 138.42 Z" />
<path fill="#797979" opacity="0.95" d=" M 91.22 134.39 C 92.40 134.40 93.59 134.40 94.77 134.40 C 94.76 134.72 94.72 135.34 94.71 135.65 C 93.55 135.68 92.40 135.70 91.24 135.73 C 91.24 135.40 91.23 134.73 91.22 134.39 Z" />
<path fill="#797979" opacity="0.95" d=" M 41.15 146.39 C 45.05 144.33 49.09 142.55 52.97 140.46 C 53.75 140.80 54.53 141.14 55.30 141.49 C 56.23 143.05 57.19 144.60 58.13 146.16 C 56.42 144.54 54.66 142.96 52.83 141.48 C 51.27 142.50 49.70 143.53 47.99 144.30 C 45.80 145.27 43.52 146.03 41.15 146.39 Z" />
<path fill="#797979" opacity="0.95" d=" M 30.56 141.86 C 33.36 143.73 36.21 145.55 39.24 147.05 C 39.48 147.17 39.97 147.42 40.21 147.54 L 40.75 147.82 C 39.30 148.15 37.84 148.43 36.37 148.66 C 35.60 147.60 34.84 146.54 34.09 145.48 C 33.48 145.46 32.28 145.42 31.67 145.39 C 31.31 144.21 30.94 143.03 30.56 141.86 Z" />
<path fill="#797979" opacity="0.95" d=" M 94.72 148.68 C 100.89 146.86 107.31 146.19 113.52 144.54 C 108.96 147.73 103.20 147.41 98.06 148.94 C 89.08 151.32 79.82 153.17 70.48 152.31 C 70.59 165.15 68.44 177.94 68.83 190.79 C 69.39 190.56 70.51 190.11 71.07 189.89 C 70.83 190.29 70.36 191.09 70.12 191.50 C 69.32 191.61 68.53 191.73 67.73 191.83 C 67.16 182.17 68.30 172.56 68.93 162.94 C 69.21 159.61 69.86 156.23 69.12 152.90 C 65.77 153.25 63.49 155.96 60.88 157.77 C 52.97 163.43 44.40 168.06 35.93 172.83 C 33.09 174.39 30.02 175.49 26.99 176.63 C 27.01 176.09 27.05 174.99 27.07 174.45 C 29.72 175.11 31.85 173.56 34.01 172.31 C 36.03 171.32 38.05 170.35 40.04 169.31 C 41.87 167.20 44.54 166.23 47.02 165.15 C 49.46 161.85 54.31 162.07 56.55 158.54 C 57.11 158.44 58.23 158.26 58.79 158.16 C 60.55 155.08 64.62 154.94 66.36 151.81 C 64.48 150.90 62.61 149.99 60.69 149.17 C 60.06 148.37 59.43 147.56 58.80 146.76 C 69.60 153.53 83.01 151.68 94.72 148.68 Z" />
<path fill="#797979" opacity="0.95" d=" M 131.96 150.87 C 132.92 150.53 133.93 150.34 134.97 150.29 C 132.26 154.05 128.65 157.01 125.21 160.07 C 120.30 164.21 115.57 168.56 110.44 172.42 C 109.35 173.41 107.87 173.58 106.49 173.85 C 106.52 173.28 106.59 172.15 106.62 171.58 C 115.93 165.80 123.59 157.85 131.96 150.87 Z" />
<path fill="#797979" opacity="0.95" d=" M 74.13 158.40 C 74.81 158.39 76.18 158.37 76.86 158.36 C 77.26 159.98 77.62 161.61 77.94 163.25 C 75.66 162.58 74.25 160.77 74.13 158.40 Z" />
<path fill="#797979" opacity="0.95" d=" M 178.90 158.83 C 179.02 160.23 179.14 161.62 179.27 163.03 C 178.66 163.24 177.44 163.66 176.83 163.87 C 176.71 167.46 172.97 168.85 171.75 171.90 C 170.47 174.74 167.12 175.95 166.05 178.92 C 165.21 181.05 163.31 182.42 161.65 183.88 C 161.60 184.42 161.50 185.50 161.45 186.04 C 159.49 187.69 157.62 189.43 155.72 191.13 C 155.66 191.73 155.54 192.91 155.48 193.50 C 152.51 196.17 149.88 199.18 146.98 201.93 C 145.65 203.25 142.91 202.94 141.96 201.23 C 140.96 201.23 139.97 201.23 138.98 201.24 C 138.06 200.20 136.52 198.35 135.27 200.14 C 131.77 203.94 127.92 207.39 124.55 211.31 C 123.92 211.39 122.65 211.56 122.02 211.64 C 121.41 212.44 120.80 213.24 120.18 214.04 C 119.18 214.42 118.18 214.81 117.19 215.21 C 115.04 216.23 112.93 217.34 111.01 218.75 C 106.48 218.58 101.95 218.29 97.42 218.60 C 97.36 217.20 97.30 215.81 97.25 214.42 C 100.00 211.99 102.59 209.38 105.21 206.80 C 105.92 203.15 109.34 201.23 111.78 198.80 C 109.37 198.07 107.07 196.94 107.06 194.09 C 108.53 194.81 110.07 195.35 111.66 195.75 C 112.03 196.22 112.40 196.68 112.78 197.15 C 113.57 196.36 114.36 195.55 115.13 194.75 C 113.78 196.93 112.53 199.17 111.31 201.43 C 106.52 206.30 102.33 211.71 97.76 216.78 C 102.38 218.32 107.21 216.78 111.82 215.96 C 121.85 212.80 129.31 204.96 136.02 197.24 C 138.05 198.42 140.04 199.67 141.97 201.02 C 143.50 200.58 145.24 200.57 146.58 199.63 C 152.66 195.02 156.82 188.53 161.73 182.81 C 164.97 178.98 167.41 174.53 170.82 170.83 C 174.06 167.22 176.39 162.95 178.90 158.83 Z" />
<path fill="#797979" opacity="0.95" d=" M 73.70 162.97 C 75.85 164.22 77.01 166.33 77.32 168.76 C 76.00 168.35 74.68 167.91 73.37 167.45 C 73.45 166.33 73.62 164.09 73.70 162.97 Z" />
<path fill="#797979" opacity="0.95" d=" M 82.24 178.11 C 82.13 174.15 80.26 169.61 82.75 166.07 C 82.93 170.71 82.90 175.36 82.64 180.00 C 84.31 180.15 85.98 180.35 87.65 180.57 C 88.46 179.23 89.29 177.91 90.18 176.62 C 89.43 178.97 88.91 181.38 88.41 183.79 C 87.29 182.81 86.30 181.67 85.02 180.90 C 84.84 181.03 84.48 181.30 84.30 181.43 C 84.18 184.51 83.89 187.61 82.81 190.53 C 83.79 190.46 84.76 190.40 85.74 190.34 C 85.28 191.37 84.81 192.40 84.34 193.42 C 83.85 193.50 82.87 193.66 82.38 193.74 C 82.87 190.07 81.63 186.07 83.59 182.72 C 83.14 182.10 82.24 180.85 81.79 180.22 C 81.51 180.86 80.93 182.15 80.65 182.79 C 80.94 181.33 81.22 179.87 81.51 178.41 C 79.39 180.06 77.31 181.73 75.24 183.43 C 76.58 181.06 77.80 178.63 78.91 176.14 C 80.02 176.80 81.13 177.45 82.24 178.11 Z" />
<path fill="#797979" opacity="0.95" d=" M 72.32 167.39 C 74.01 168.64 75.31 170.29 76.33 172.11 C 77.01 172.50 77.70 172.88 78.40 173.25 C 78.83 172.85 79.69 172.04 80.12 171.64 C 78.81 173.81 77.48 175.97 76.17 178.15 C 76.31 177.48 76.59 176.14 76.74 175.46 C 75.70 174.96 74.66 174.48 73.62 174.00 C 73.09 171.82 72.64 169.61 72.32 167.39 Z" />
<path fill="#797979" opacity="0.95" d=" M 91.05 184.05 C 91.42 178.42 95.80 174.18 98.29 169.38 C 102.58 173.47 101.62 179.76 101.22 185.07 L 101.13 186.04 C 98.47 182.27 100.43 177.74 100.41 173.59 C 96.09 171.00 96.59 177.64 93.51 178.97 C 93.28 180.95 93.36 183.32 91.05 184.05 Z" />
<path fill="#797979" opacity="0.95" d=" M 33.65 178.34 C 37.51 177.15 41.30 175.50 45.40 175.37 C 45.06 178.88 44.24 182.40 44.65 185.94 C 45.35 190.53 48.49 194.15 50.54 198.17 C 52.33 197.96 54.11 197.71 55.90 197.48 C 56.94 200.43 58.61 203.07 60.66 205.42 C 62.18 204.60 63.71 203.79 65.25 202.99 C 65.27 204.52 65.30 206.05 65.32 207.58 L 67.30 207.63 C 67.53 202.68 70.50 198.60 72.43 194.22 C 74.20 190.26 76.36 186.29 79.89 183.62 C 79.92 187.18 75.49 188.06 75.05 191.44 C 73.97 193.30 72.93 195.18 71.88 197.06 C 71.36 198.54 71.19 200.11 71.18 201.68 C 70.79 202.00 69.99 202.64 69.59 202.96 C 69.97 205.74 69.45 208.36 67.09 210.07 C 66.48 209.93 65.27 209.66 64.66 209.52 C 64.74 208.05 64.81 206.59 64.87 205.13 C 63.58 205.62 62.31 206.14 61.04 206.68 C 59.61 205.83 58.17 205.01 56.77 204.12 C 56.09 202.28 54.97 200.66 53.75 199.15 C 50.76 198.92 47.49 197.45 47.10 194.11 C 45.25 192.41 43.79 190.34 42.85 188.01 C 42.99 184.69 43.84 181.26 42.60 178.03 C 41.30 177.27 40.01 177.36 38.72 178.28 C 37.03 178.35 35.34 178.35 33.65 178.34 Z" />
<path fill="#797979" opacity="0.95" d=" M 71.60 175.50 C 72.05 175.56 72.93 175.68 73.38 175.73 C 73.57 176.75 73.75 177.76 73.94 178.78 C 73.35 178.72 72.18 178.59 71.60 178.53 C 71.60 177.52 71.60 176.51 71.60 175.50 Z" />
<path fill="#797979" opacity="0.95" d=" M 123.99 180.39 C 125.31 178.49 126.64 176.60 128.01 174.74 C 126.53 178.99 124.18 182.84 121.18 186.18 C 121.40 185.36 121.84 183.73 122.05 182.91 C 120.83 183.80 119.62 184.69 118.41 185.60 C 117.64 185.58 116.86 185.57 116.08 185.56 C 117.93 182.82 120.50 180.43 123.99 180.39 Z" />
<path fill="#797979" opacity="0.95" d=" M 87.41 185.81 C 87.56 185.29 87.87 184.24 88.02 183.71 C 90.06 185.66 90.88 188.24 90.00 190.96 C 87.72 190.56 88.24 187.47 87.41 185.81 Z" />
<path fill="#797979" opacity="0.95" d=" M 102.00 187.70 C 101.93 186.52 101.86 185.35 101.79 184.18 C 103.07 187.35 104.72 190.36 106.51 193.27 C 104.52 191.84 103.08 189.87 102.00 187.70 Z" />
<path fill="#797979" opacity="0.95" d=" M 91.28 185.74 C 94.08 187.08 91.22 191.10 94.20 192.42 C 94.05 193.61 93.89 194.80 93.71 195.99 C 92.46 192.70 91.85 189.21 91.28 185.74 Z" />
<path fill="#797979" opacity="0.95" d=" M 90.43 192.71 C 91.11 194.38 91.91 196.10 91.66 197.97 L 91.44 198.42 C 90.97 198.39 90.02 198.34 89.54 198.31 C 89.84 196.44 90.11 194.57 90.43 192.71 Z" />
<path fill="#797979" opacity="0.95" d=" M 181.77 200.34 C 180.19 199.68 179.44 196.02 181.78 196.26 C 182.01 197.62 182.01 198.98 181.77 200.34 Z" />
<path fill="#797979" opacity="0.95" d=" M 93.82 216.68 C 94.80 210.18 94.36 203.64 94.27 197.11 C 94.64 197.60 95.38 198.58 95.75 199.07 C 95.58 203.37 95.58 207.66 95.68 211.96 C 95.42 212.30 94.91 213.00 94.66 213.34 C 94.67 215.10 94.59 216.86 94.46 218.62 C 92.85 218.62 91.24 218.60 89.63 218.58 C 89.11 215.68 89.39 212.75 89.72 209.85 C 90.16 209.70 91.05 209.40 91.49 209.25 C 91.51 210.74 91.52 212.23 91.53 213.73 L 90.07 213.19 C 90.05 214.37 90.03 215.56 90.01 216.75 C 90.97 216.73 92.87 216.70 93.82 216.68 Z" />
</g>
<g id="#010101ff">
<path fill="#010101" opacity="1.00" d=" M 84.92 12.10 C 92.99 6.24 103.05 2.90 113.05 3.45 C 115.18 4.77 117.41 5.92 119.73 6.87 C 119.51 6.40 119.06 5.47 118.84 5.01 C 120.88 5.91 123.13 5.75 125.30 5.80 C 123.90 6.12 122.50 6.47 121.10 6.81 C 130.35 7.87 139.82 10.61 146.63 17.28 C 149.03 19.89 151.63 22.33 154.68 24.19 C 158.16 26.28 160.25 29.85 162.56 33.06 C 162.65 33.68 162.82 34.93 162.91 35.55 C 165.20 40.37 166.46 45.69 166.31 51.04 C 167.38 57.99 167.77 65.21 166.94 72.23 C 165.57 71.02 164.56 69.05 162.60 68.74 C 157.19 67.88 151.77 69.24 146.58 70.63 C 145.69 69.48 144.69 68.38 144.07 67.05 C 145.03 63.98 147.26 61.26 147.27 57.95 C 146.70 56.29 145.83 54.78 145.03 53.23 C 146.18 50.52 146.11 47.70 143.52 45.87 C 143.37 44.99 143.22 44.12 143.08 43.24 C 140.60 42.06 138.44 40.38 136.68 38.28 C 134.57 35.63 131.12 35.00 128.11 33.92 C 129.05 33.09 130.00 32.28 130.97 31.48 C 132.31 30.87 133.63 30.24 134.97 29.63 C 135.34 29.57 136.07 29.45 136.43 29.39 C 136.45 28.81 136.48 27.64 136.49 27.05 C 127.47 28.61 119.54 33.84 110.64 35.76 C 103.69 29.68 98.45 21.64 90.57 16.64 C 88.63 15.20 86.77 13.65 84.92 12.10 Z" />
<path fill="#010101" opacity="1.00" d=" M 72.38 15.22 C 76.14 14.38 80.01 14.13 83.84 14.52 C 85.00 15.74 86.16 16.95 87.34 18.16 C 87.30 20.48 87.29 22.79 87.26 25.11 C 82.25 28.89 74.90 28.57 69.72 25.30 C 67.54 23.38 65.58 26.37 63.64 27.19 C 65.26 27.79 66.89 28.38 68.54 28.89 C 70.53 30.56 72.37 32.40 74.14 34.29 C 71.16 36.01 67.97 34.56 64.86 34.12 C 64.69 34.47 64.36 35.17 64.19 35.51 C 59.25 39.83 58.43 46.65 58.66 52.83 C 58.01 53.38 57.35 53.93 56.68 54.47 C 56.42 47.35 53.53 39.87 56.62 32.99 C 60.21 25.84 65.26 19.15 72.38 15.22 Z" />
<path fill="#010101" opacity="1.00" d=" M 91.39 23.42 C 91.54 22.73 91.71 22.05 91.88 21.37 C 95.88 24.23 99.68 27.41 102.92 31.13 C 104.01 31.98 103.65 33.43 103.80 34.61 C 102.77 34.59 100.72 34.53 99.70 34.50 C 99.32 30.25 96.27 27.27 93.36 24.48 L 92.44 24.53 L 92.63 23.33 L 91.39 23.42 Z" />
<path fill="#010101" opacity="1.00" d=" M 82.20 35.46 C 83.52 34.27 85.13 33.49 86.92 33.35 C 88.47 35.63 90.57 37.44 92.43 39.46 C 93.26 41.30 91.46 42.41 90.27 43.41 C 88.16 44.15 86.00 44.70 83.76 44.79 C 80.55 42.10 78.41 38.46 75.70 35.32 C 77.87 35.35 80.03 35.40 82.20 35.46 Z" />
<path fill="#010101" opacity="1.00" d=" M 57.07 56.03 C 57.96 55.36 58.85 54.69 59.76 54.04 C 62.34 58.87 61.54 64.42 60.31 69.51 C 58.30 71.84 56.10 74.00 53.96 76.21 C 52.66 77.86 50.80 79.77 51.88 82.02 C 52.32 83.82 52.50 85.66 52.72 87.50 C 52.98 90.59 53.85 93.63 55.60 96.21 L 56.07 96.98 C 56.55 97.80 57.00 98.65 57.39 99.52 C 57.50 102.25 57.41 104.99 57.17 107.71 C 54.68 105.31 55.58 101.60 54.25 98.67 C 52.61 95.01 50.80 91.42 49.28 87.70 C 49.06 87.11 48.62 85.94 48.40 85.35 C 48.39 83.60 48.43 81.85 48.51 80.10 C 48.60 78.81 48.71 77.54 48.82 76.26 L 49.00 76.82 C 49.23 77.50 49.46 78.18 49.69 78.86 C 50.50 77.22 51.32 75.57 52.23 73.97 C 52.53 73.71 53.12 73.19 53.41 72.93 C 57.07 69.85 58.60 65.13 58.95 60.49 C 59.96 58.45 58.54 57.17 57.07 56.03 Z" />
<path fill="#010101" opacity="1.00" d=" M 106.34 73.86 C 111.07 66.91 120.28 65.76 128.01 66.71 C 131.58 67.61 134.51 69.89 136.81 72.70 C 136.75 73.52 136.63 75.16 136.57 75.98 C 133.61 75.94 130.74 75.27 127.86 74.65 C 123.74 73.81 119.71 75.57 116.06 77.28 C 115.78 77.41 115.23 77.67 114.96 77.80 C 113.53 78.61 112.16 79.50 110.79 80.40 C 108.97 78.50 105.59 77.02 106.34 73.86 M 114.03 71.07 C 112.26 72.10 110.63 73.36 109.29 74.91 C 109.58 75.30 110.16 76.06 110.45 76.45 C 110.90 76.42 111.78 76.37 112.23 76.34 C 113.75 75.37 115.30 74.44 116.84 73.49 C 118.03 73.42 119.22 73.35 120.41 73.29 C 120.35 72.02 120.29 70.75 120.23 69.48 C 118.07 69.56 116.03 70.30 114.03 71.07 M 130.43 71.18 C 130.49 71.74 130.59 72.87 130.64 73.44 C 131.73 73.65 134.46 75.31 134.25 73.04 C 134.78 70.92 131.62 71.81 130.43 71.18 Z" />
<path fill="#010101" opacity="1.00" d=" M 72.06 74.07 C 73.15 72.86 74.20 71.59 75.44 70.53 C 76.27 70.47 77.93 70.36 78.76 70.31 C 78.59 71.26 78.25 73.16 78.08 74.11 C 79.31 74.05 80.55 73.99 81.80 73.93 C 81.68 72.96 81.46 71.02 81.35 70.05 C 84.70 70.71 87.98 71.66 91.15 72.93 C 92.69 75.03 95.30 74.65 97.60 74.70 C 97.58 75.31 97.54 76.51 97.52 77.12 C 96.16 77.64 94.80 78.20 93.44 78.74 C 93.42 80.90 93.42 83.05 93.42 85.21 C 91.25 86.98 89.13 88.82 87.20 90.85 C 89.36 92.84 90.85 96.59 94.15 96.62 L 96.39 96.77 C 95.64 97.82 94.90 98.87 94.15 99.92 C 92.77 99.23 91.39 98.57 90.04 97.83 C 88.81 96.50 87.67 95.09 86.48 93.72 C 84.72 93.13 82.93 92.65 81.16 92.13 C 81.64 91.56 82.61 90.44 83.10 89.88 C 85.61 87.94 88.02 85.88 90.45 83.85 C 90.48 81.83 90.48 79.81 90.47 77.79 C 85.98 76.92 81.46 76.23 76.88 76.33 C 75.27 75.58 73.66 74.83 72.06 74.07 Z" />
<path fill="#010101" opacity="1.00" d=" M 162.95 72.81 C 166.65 74.42 168.23 78.36 170.78 81.22 C 171.38 85.12 171.47 89.06 171.82 92.98 L 171.82 93.05 C 169.11 97.27 165.53 100.82 162.73 104.98 C 160.82 108.07 159.17 111.35 158.32 114.90 C 158.02 116.17 156.80 116.88 155.95 117.76 C 151.92 121.12 148.38 125.06 144.15 128.18 C 141.17 129.51 138.30 131.06 135.66 132.98 C 128.28 136.84 120.75 140.40 113.52 144.54 C 107.31 146.19 100.89 146.86 94.72 148.68 C 83.01 151.68 69.60 153.53 58.80 146.76 L 58.36 146.53 L 58.13 146.16 C 57.19 144.60 56.23 143.05 55.30 141.49 C 54.53 141.14 53.75 140.80 52.97 140.46 C 49.09 142.55 45.05 144.33 41.15 146.39 C 43.52 146.03 45.80 145.27 47.99 144.30 C 46.38 147.13 43.03 147.05 40.21 147.54 C 39.97 147.42 39.48 147.17 39.24 147.05 C 36.21 145.55 33.36 143.73 30.56 141.86 L 29.70 141.30 C 29.82 140.54 29.94 139.78 30.05 139.03 C 30.55 135.51 30.38 131.94 30.29 128.40 C 33.79 126.02 37.60 123.16 42.05 123.46 C 44.40 124.42 46.22 126.26 48.10 127.89 C 48.20 130.38 49.39 134.81 52.75 133.65 C 52.98 133.20 53.45 132.29 53.68 131.83 C 53.61 130.86 53.46 128.91 53.38 127.94 C 53.73 129.26 54.16 130.55 54.58 131.85 C 57.08 130.85 59.55 129.76 61.96 128.54 C 62.11 129.42 62.43 131.19 62.58 132.07 C 65.08 130.94 66.90 128.94 68.19 126.54 C 68.62 126.74 69.49 127.15 69.93 127.35 C 73.46 125.28 76.79 122.88 80.40 120.92 C 80.42 122.15 80.46 123.38 80.51 124.61 C 81.08 124.56 82.23 124.45 82.80 124.39 C 81.88 122.88 80.98 121.36 80.10 119.82 C 82.13 119.24 86.18 118.07 88.21 117.48 C 87.24 118.61 85.30 120.85 84.33 121.97 C 84.86 122.78 85.39 123.58 85.92 124.39 C 87.31 126.37 89.91 125.61 91.97 125.80 C 91.66 123.75 91.30 121.66 90.27 119.82 C 89.60 119.36 88.27 118.44 87.60 117.97 C 88.41 116.96 89.22 115.95 90.04 114.95 C 90.14 114.63 90.34 113.98 90.44 113.66 C 89.60 113.64 88.77 113.62 87.93 113.60 C 85.61 115.25 83.18 116.76 81.06 118.68 C 80.17 118.74 78.40 118.84 77.52 118.89 C 77.30 117.89 77.07 116.89 76.83 115.90 C 76.79 117.49 76.78 119.08 76.78 120.66 L 74.83 120.82 C 74.08 119.35 73.27 117.92 72.44 116.50 C 71.20 117.60 69.56 117.39 68.03 117.45 C 67.48 116.61 66.93 115.79 66.36 114.97 C 66.92 116.28 67.52 117.58 68.17 118.85 C 69.48 120.65 71.77 122.05 70.86 124.82 C 66.89 123.93 64.73 120.13 63.71 116.50 C 63.68 110.01 62.38 103.48 63.60 97.02 C 64.08 93.57 65.65 90.43 67.10 87.32 C 67.80 89.64 68.01 92.25 69.65 94.17 C 70.51 94.87 71.39 95.57 72.29 96.24 C 75.04 98.52 78.19 100.44 81.76 101.01 C 93.37 103.15 105.61 101.83 116.57 97.52 C 120.00 96.30 123.44 95.11 126.86 93.85 C 129.99 92.74 133.04 91.45 136.12 90.19 C 139.16 88.83 142.18 87.38 145.28 86.13 C 145.75 85.93 146.70 85.55 147.17 85.36 C 147.66 84.32 148.15 83.28 148.65 82.24 C 149.64 83.90 150.52 85.75 152.15 86.92 C 154.14 88.16 155.98 89.65 157.47 91.50 C 155.46 91.52 153.45 91.45 151.45 91.37 C 151.06 93.21 150.70 95.05 150.38 96.90 C 145.21 102.67 142.37 110.28 136.31 115.30 C 128.28 122.06 118.45 127.23 107.80 127.80 L 107.14 128.32 C 100.35 128.67 93.56 128.50 86.78 128.53 C 83.30 127.75 79.83 126.44 76.22 126.68 C 73.21 127.62 70.69 129.64 68.12 131.41 L 67.18 132.08 C 66.87 132.30 66.25 132.73 65.95 132.95 C 62.73 134.76 59.18 136.05 56.31 138.42 C 55.82 139.90 57.06 140.97 57.87 142.02 C 61.16 145.88 66.03 147.96 71.01 148.45 C 80.15 149.36 89.43 148.03 98.14 145.25 C 99.08 144.86 100.02 144.47 100.97 144.09 C 102.68 143.60 104.40 143.12 106.11 142.60 C 106.54 142.79 107.41 143.18 107.84 143.37 C 109.35 142.96 110.86 142.57 112.38 142.20 C 125.20 133.48 141.35 129.73 152.06 118.02 C 156.53 113.63 156.65 106.71 160.93 102.17 C 164.49 98.33 169.33 94.76 169.44 88.98 C 170.34 84.00 167.17 79.78 164.20 76.17 C 163.11 76.35 162.03 76.53 160.94 76.73 C 161.30 76.38 162.01 75.68 162.36 75.32 L 162.95 72.81 M 145.19 89.12 C 143.10 90.37 140.95 91.52 138.83 92.72 C 138.24 93.01 137.05 93.61 136.45 93.90 C 136.77 95.57 137.14 97.23 137.51 98.90 C 138.37 98.66 140.08 98.18 140.94 97.95 C 141.88 97.58 142.82 97.21 143.75 96.84 C 144.89 95.92 146.01 94.98 147.14 94.05 C 148.08 92.15 148.82 90.16 148.93 88.03 C 147.67 88.35 146.41 88.69 145.19 89.12 M 130.98 95.62 C 129.02 96.51 126.97 97.20 124.91 97.79 C 122.69 98.41 120.51 99.13 118.33 99.86 C 118.56 100.63 119.02 102.17 119.25 102.95 C 119.35 103.64 119.55 105.03 119.65 105.73 C 120.82 105.24 121.99 104.77 123.16 104.29 C 127.05 103.46 130.69 101.87 133.55 99.05 C 133.64 97.80 133.74 96.54 133.73 95.29 C 133.04 95.37 131.66 95.54 130.98 95.62 M 67.75 98.69 C 67.26 101.23 67.00 103.82 67.26 106.40 C 67.80 106.43 68.89 106.48 69.44 106.51 C 69.95 105.17 70.48 103.84 71.02 102.51 C 71.89 104.33 72.41 106.28 72.85 108.25 C 74.07 108.39 75.29 108.52 76.52 108.66 C 76.59 106.50 78.82 103.47 76.57 101.85 L 75.31 101.02 C 74.02 100.44 72.61 100.68 71.26 100.82 C 71.12 100.14 70.84 98.77 70.70 98.08 C 69.72 98.28 68.73 98.48 67.75 98.69 M 136.45 108.91 C 139.89 108.63 140.80 104.91 142.77 102.69 C 143.11 101.89 143.44 101.08 143.76 100.27 C 139.64 100.78 135.11 104.32 136.45 108.91 M 107.95 103.09 C 106.53 103.29 105.12 103.46 103.70 103.63 C 103.44 103.92 102.93 104.52 102.67 104.81 C 102.69 105.76 102.72 107.65 102.73 108.60 C 107.41 109.11 112.07 108.32 116.62 107.27 C 116.53 105.21 116.27 103.15 115.63 101.19 C 114.09 101.37 112.55 101.57 111.02 101.77 C 109.99 102.21 108.97 102.65 107.95 103.09 M 79.08 108.66 C 82.46 109.54 85.95 109.63 89.41 109.45 C 89.49 107.78 89.56 106.10 89.61 104.43 C 86.77 103.87 83.92 103.28 81.02 103.16 C 78.67 103.78 79.49 106.86 79.08 108.66 M 92.71 104.64 C 91.05 105.74 91.32 107.86 91.12 109.58 C 94.31 109.58 97.49 109.57 100.68 109.54 C 100.78 107.43 100.82 105.32 100.83 103.21 C 98.10 103.48 95.28 103.59 92.71 104.64 M 128.72 107.66 C 127.82 108.09 126.91 108.51 126.00 108.91 C 125.48 109.12 124.43 109.53 123.91 109.74 C 123.22 109.98 121.84 110.47 121.15 110.71 C 121.27 112.18 121.41 113.64 121.59 115.09 C 122.45 116.63 123.26 118.19 124.01 119.79 C 125.96 118.77 127.77 117.51 129.53 116.21 C 131.22 114.82 133.05 113.61 134.75 112.23 C 134.51 111.39 134.04 109.72 133.81 108.88 C 133.70 108.17 133.47 106.74 133.36 106.03 C 131.72 106.30 130.16 106.84 128.72 107.66 M 115.30 112.33 C 112.95 113.48 110.45 114.29 107.90 114.84 C 107.30 115.05 106.10 115.48 105.50 115.69 C 105.56 117.48 105.62 119.27 105.71 121.06 C 106.10 122.25 106.47 123.43 106.83 124.63 C 109.64 124.40 112.40 123.74 115.18 123.30 C 117.00 122.56 118.84 121.87 120.69 121.20 C 120.67 119.26 119.72 117.64 118.59 116.14 C 118.51 114.50 118.44 112.86 118.36 111.22 C 117.60 111.50 116.07 112.05 115.30 112.33 M 93.15 117.54 C 93.30 120.21 93.84 122.83 94.61 125.39 C 97.29 125.37 99.98 125.37 102.67 125.42 C 102.67 122.33 102.69 119.24 102.57 116.16 C 101.03 116.45 99.51 116.81 98.00 117.24 C 96.39 117.37 94.77 117.46 93.15 117.54 Z" />
<path fill="#010101" opacity="1.00" d=" M 128.83 80.44 C 131.84 80.54 134.85 80.57 137.86 80.60 L 137.79 82.94 C 135.16 81.98 132.42 82.36 129.74 82.74 C 129.51 82.17 129.06 81.01 128.83 80.44 Z" />
<path fill="#010101" opacity="1.00" d=" M 59.89 83.49 C 63.36 78.36 70.06 81.06 74.49 83.27 C 75.02 83.36 75.55 83.43 76.08 83.49 C 77.08 83.44 79.09 83.34 80.10 83.29 C 78.26 86.33 74.72 86.47 71.55 86.57 C 71.25 86.06 70.65 85.05 70.35 84.54 C 68.96 81.09 65.07 82.67 62.51 83.60 C 61.28 83.96 60.06 84.33 58.83 84.69 C 59.10 84.39 59.62 83.79 59.89 83.49 Z" />
<path fill="#010101" opacity="1.00" d=" M 160.77 82.21 C 162.42 85.28 162.53 88.73 161.60 92.04 L 159.22 91.71 C 159.44 88.50 159.59 85.24 160.77 82.21 Z" />
<path fill="#010101" opacity="1.00" d=" M 107.78 86.75 C 109.20 86.66 110.62 86.59 112.04 86.54 L 112.88 87.25 C 113.74 87.97 114.60 88.69 115.47 89.41 C 115.17 91.86 114.77 94.29 114.35 96.73 C 113.65 96.60 112.25 96.34 111.55 96.22 C 111.34 93.74 114.67 92.04 112.52 89.60 C 110.89 89.57 109.26 89.50 107.63 89.41 C 107.68 88.52 107.73 87.63 107.78 86.75 Z" />
<path fill="#010101" opacity="1.00" d=" M 102.43 91.54 C 104.36 91.54 106.30 91.52 108.24 91.45 C 108.54 92.12 109.14 93.47 109.44 94.14 C 106.97 94.15 104.51 94.18 102.05 94.25 C 102.18 93.37 102.30 92.48 102.42 91.60 L 102.43 91.54 Z" />
<path fill="#010101" opacity="1.00" d=" M 55.75 115.05 C 56.19 115.19 57.07 115.46 57.51 115.60 C 57.31 119.45 57.51 123.62 55.56 127.08 C 54.91 123.09 54.83 119.00 55.75 115.05 Z" />
<path fill="#010101" opacity="1.00" d=" M 70.14 118.46 L 71.14 118.69 C 72.73 120.73 68.53 120.09 70.14 118.46 Z" />
<path fill="#010101" opacity="1.00" d=" M 145.24 129.23 C 145.54 129.09 146.13 128.82 146.42 128.69 C 149.52 131.19 152.03 134.37 155.34 136.64 C 160.84 140.54 165.86 145.17 171.87 148.31 C 172.46 148.32 173.65 148.32 174.25 148.32 C 176.32 147.91 177.99 148.88 179.35 150.35 C 178.77 154.58 180.21 158.85 179.27 163.03 C 179.14 161.62 179.02 160.23 178.90 158.83 C 176.39 162.95 174.06 167.22 170.82 170.83 C 167.41 174.53 164.97 178.98 161.73 182.81 C 156.82 188.53 152.66 195.02 146.58 199.63 C 145.24 200.57 143.50 200.58 141.97 201.02 C 140.04 199.67 138.05 198.42 136.02 197.24 C 129.31 204.96 121.85 212.80 111.82 215.96 C 107.21 216.78 102.38 218.32 97.76 216.78 C 102.33 211.71 106.52 206.30 111.31 201.43 C 112.53 199.17 113.78 196.93 115.13 194.75 C 117.06 191.82 119.12 189.00 121.18 186.18 C 124.18 182.84 126.53 178.99 128.01 174.74 C 128.76 173.67 129.55 172.62 130.37 171.60 C 132.04 169.68 133.02 167.32 133.83 164.94 C 136.09 158.23 139.52 151.99 141.94 145.34 C 143.59 140.08 146.19 134.87 145.24 129.23 Z" />
<path fill="#010101" opacity="1.00" d=" M 134.84 142.82 C 136.28 141.48 137.84 140.27 139.49 139.20 C 138.14 141.81 136.44 144.24 134.22 146.18 C 129.67 150.34 125.17 154.64 120.00 158.04 C 119.28 158.62 118.56 159.20 117.84 159.77 C 114.02 162.31 111.00 166.41 106.46 167.64 C 106.31 167.96 106.00 168.58 105.85 168.89 C 105.81 168.40 105.74 167.41 105.70 166.91 C 115.61 159.16 126.29 152.16 134.84 142.82 Z" />
<path fill="#010101" opacity="1.00" d=" M 132.15 140.42 C 133.14 140.43 134.14 140.46 135.15 140.51 C 134.65 141.00 133.67 142.00 133.18 142.50 L 132.77 142.60 C 128.01 146.95 122.88 150.85 117.99 155.05 C 116.53 155.96 115.09 156.90 113.63 157.83 L 113.46 158.31 C 111.79 159.12 110.12 159.96 108.42 160.72 L 108.62 161.64 L 107.36 161.34 L 107.39 162.74 C 106.94 162.63 106.03 162.42 105.57 162.32 C 105.39 162.75 105.01 163.62 104.83 164.05 C 104.77 163.41 104.64 162.12 104.58 161.47 C 105.06 161.51 106.00 161.58 106.48 161.61 L 106.37 160.29 L 107.66 160.69 L 107.58 159.40 C 108.07 159.49 109.05 159.68 109.54 159.77 L 109.38 158.37 L 110.67 158.65 L 110.60 157.40 C 111.07 157.49 112.01 157.67 112.49 157.76 L 112.52 156.85 C 115.84 154.43 118.98 151.76 122.21 149.22 C 123.53 148.23 124.83 147.21 126.11 146.18 C 126.80 145.52 127.49 144.86 128.20 144.22 C 129.57 143.01 130.92 141.78 132.15 140.42 Z" />
<path fill="#010101" opacity="1.00" d=" M 60.88 157.77 C 63.49 155.96 65.77 153.25 69.12 152.90 C 69.86 156.23 69.21 159.61 68.93 162.94 C 68.30 172.56 67.16 182.17 67.73 191.83 C 68.53 191.73 69.32 191.61 70.12 191.50 C 70.36 191.09 70.83 190.29 71.07 189.89 C 72.06 188.20 73.01 186.49 73.94 184.77 C 73.20 184.69 71.72 184.53 70.98 184.45 C 73.01 182.62 74.86 180.57 76.17 178.15 C 77.48 175.97 78.81 173.81 80.12 171.64 L 80.34 171.27 C 80.44 169.09 80.13 166.86 80.68 164.73 C 81.87 163.13 83.70 162.21 85.32 161.12 C 85.37 161.69 85.47 162.84 85.52 163.41 C 84.59 164.29 83.65 165.17 82.75 166.07 C 80.26 169.61 82.13 174.15 82.24 178.11 C 81.13 177.45 80.02 176.80 78.91 176.14 C 77.80 178.63 76.58 181.06 75.24 183.43 C 77.31 181.73 79.39 180.06 81.51 178.41 C 81.22 179.87 80.94 181.33 80.65 182.79 L 80.60 183.03 L 79.89 183.62 C 76.36 186.29 74.20 190.26 72.43 194.22 C 70.50 198.60 67.53 202.68 67.30 207.63 L 65.32 207.58 C 65.30 206.05 65.27 204.52 65.25 202.99 C 63.71 203.79 62.18 204.60 60.66 205.42 C 58.61 203.07 56.94 200.43 55.90 197.48 C 54.11 197.71 52.33 197.96 50.54 198.17 C 48.49 194.15 45.35 190.53 44.65 185.94 C 44.24 182.40 45.06 178.88 45.40 175.37 C 41.30 175.50 37.51 177.15 33.65 178.34 C 35.34 178.35 37.03 178.35 38.72 178.28 C 36.91 180.05 33.62 177.86 31.91 180.40 C 30.28 180.44 28.65 180.45 27.03 180.46 C 27.02 179.50 27.00 177.59 26.99 176.63 C 30.02 175.49 33.09 174.39 35.93 172.83 C 44.40 168.06 52.97 163.43 60.88 157.77 Z" />
<path fill="#010101" opacity="1.00" d=" M 91.20 161.81 C 91.74 161.77 92.82 161.67 93.35 161.63 C 98.22 164.88 101.77 169.57 104.30 174.79 C 104.47 175.36 104.80 176.50 104.97 177.07 C 105.45 180.03 105.01 183.09 105.69 186.02 C 106.96 189.65 109.35 192.73 111.66 195.75 C 110.07 195.35 108.53 194.81 107.06 194.09 C 106.92 193.89 106.65 193.48 106.51 193.27 C 104.72 190.36 103.07 187.35 101.79 184.18 C 101.86 185.35 101.93 186.52 102.00 187.70 L 101.07 187.76 C 101.11 187.09 101.18 185.74 101.22 185.07 C 101.62 179.76 102.58 173.47 98.29 169.38 C 95.80 174.18 91.42 178.42 91.05 184.05 C 91.11 184.47 91.23 185.32 91.28 185.74 C 91.85 189.21 92.46 192.70 93.71 195.99 C 93.89 194.80 94.05 193.61 94.20 192.42 L 95.00 192.28 C 94.75 193.89 94.42 195.48 94.27 197.11 C 94.36 203.64 94.80 210.18 93.82 216.68 C 92.87 216.70 90.97 216.73 90.01 216.75 C 90.03 215.56 90.05 214.37 90.07 213.19 L 91.53 213.73 C 91.52 212.23 91.51 210.74 91.49 209.25 C 91.34 205.49 91.46 201.73 91.66 197.97 C 91.91 196.10 91.11 194.38 90.43 192.71 C 90.11 194.57 89.84 196.44 89.54 198.31 C 88.84 195.86 89.57 193.38 90.00 190.96 C 90.88 188.24 90.06 185.66 88.02 183.71 C 87.87 184.24 87.56 185.29 87.41 185.81 C 86.88 187.33 86.32 188.84 85.74 190.34 C 84.76 190.40 83.79 190.46 82.81 190.53 C 83.89 187.61 84.18 184.51 84.30 181.43 C 84.48 181.30 84.84 181.03 85.02 180.90 C 86.30 181.67 87.29 182.81 88.41 183.79 C 88.91 181.38 89.43 178.97 90.18 176.62 C 92.45 173.62 94.39 170.40 95.73 166.87 C 94.21 165.19 92.68 163.53 91.20 161.81 Z" />
<path fill="#010101" opacity="1.00" d=" M 109.27 187.12 C 110.64 187.71 112.01 188.33 113.39 188.91 C 113.41 189.76 113.43 190.62 113.46 191.48 C 112.98 191.47 112.03 191.46 111.56 191.45 C 111.06 191.11 110.06 190.42 109.56 190.08 C 109.46 189.09 109.36 188.11 109.27 187.12 Z" />
</g>
<g id="#fdfdfdff">
<path fill="#fdfdfd" opacity="1.00" d=" M 87.51 15.73 C 88.28 15.96 89.80 16.42 90.57 16.64 C 98.45 21.64 103.69 29.68 110.64 35.76 C 111.53 36.50 112.58 37.20 113.73 36.48 C 117.11 35.14 120.35 33.43 123.83 32.34 C 127.50 31.19 130.96 28.74 134.97 29.63 C 133.63 30.24 132.31 30.87 130.97 31.48 C 129.71 31.94 128.46 32.43 127.23 32.95 C 127.20 35.37 129.77 35.47 131.46 36.23 C 135.65 37.42 137.79 41.61 141.34 43.86 C 142.41 46.13 143.89 48.17 145.55 50.05 C 144.80 50.81 144.05 51.56 143.31 52.32 C 144.36 54.79 146.23 57.21 145.72 60.04 C 145.17 62.68 143.62 64.96 142.38 67.31 C 143.91 68.93 145.33 71.37 147.95 70.83 C 153.64 71.07 161.04 66.64 165.27 72.20 C 159.33 71.40 153.32 71.69 147.53 73.27 C 147.49 73.94 147.41 75.28 147.36 75.95 C 144.05 77.18 140.86 78.72 137.86 80.60 C 134.85 80.57 131.84 80.54 128.83 80.44 C 127.72 78.40 125.97 76.83 124.48 75.10 C 127.97 75.69 131.37 76.82 134.89 77.25 C 136.58 77.31 137.36 75.46 138.27 74.36 C 137.91 73.94 137.17 73.11 136.81 72.70 C 134.51 69.89 131.58 67.61 128.01 66.71 C 120.28 65.76 111.07 66.91 106.34 73.86 C 105.59 77.02 108.97 78.50 110.79 80.40 C 112.16 79.50 113.53 78.61 114.96 77.80 C 115.23 77.67 115.78 77.41 116.06 77.28 C 118.45 76.86 120.84 76.51 123.24 76.14 C 122.60 80.24 126.10 83.22 129.74 84.05 C 136.17 85.47 142.85 83.73 148.30 80.21 C 147.34 82.20 146.36 84.19 145.28 86.13 C 142.18 87.38 139.16 88.83 136.12 90.19 C 133.04 91.45 129.99 92.74 126.86 93.85 C 123.44 95.11 120.00 96.30 116.57 97.52 C 109.37 98.31 102.41 100.54 95.14 100.98 C 96.18 99.05 97.21 97.11 98.14 95.12 C 97.59 95.26 96.49 95.56 95.94 95.70 C 95.49 95.93 94.60 96.39 94.15 96.62 C 90.85 96.59 89.36 92.84 87.20 90.85 C 89.13 88.82 91.25 86.98 93.42 85.21 C 93.42 83.05 93.42 80.90 93.44 78.74 C 94.80 78.20 96.16 77.64 97.52 77.12 C 97.54 76.51 97.58 75.31 97.60 74.70 C 95.30 74.65 92.69 75.03 91.15 72.93 C 88.05 69.59 83.28 68.98 78.97 69.28 C 77.66 69.23 76.46 69.75 75.44 70.53 C 74.20 71.59 73.15 72.86 72.06 74.07 C 73.66 74.83 75.27 75.58 76.88 76.33 C 81.46 76.23 85.98 76.92 90.47 77.79 C 90.48 79.81 90.48 81.83 90.45 83.85 C 88.02 85.88 85.61 87.94 83.10 89.88 C 80.63 91.23 78.14 92.55 75.67 93.91 C 75.63 94.39 75.55 95.35 75.51 95.83 C 78.96 94.26 82.67 93.37 86.48 93.72 C 87.67 95.09 88.81 96.50 90.04 97.83 C 90.67 98.56 91.94 100.00 92.57 100.72 C 85.51 101.28 78.57 99.37 72.29 96.24 C 71.39 95.57 70.51 94.87 69.65 94.17 C 69.45 90.47 68.85 86.81 68.00 83.20 L 70.35 84.54 C 70.65 85.05 71.25 86.06 71.55 86.57 L 72.07 87.46 C 76.00 88.00 80.38 86.40 81.15 82.09 C 79.34 82.06 77.55 82.35 76.08 83.49 C 75.55 83.43 75.02 83.36 74.49 83.27 C 71.25 79.28 65.93 79.15 61.24 79.73 C 61.27 78.63 61.33 76.43 61.36 75.33 C 64.39 75.32 67.42 75.34 70.46 75.40 C 70.42 74.47 70.39 73.55 70.36 72.63 C 65.16 72.70 59.40 72.59 55.48 76.62 C 55.10 76.52 54.34 76.31 53.96 76.21 C 56.10 74.00 58.30 71.84 60.31 69.51 C 61.54 64.42 62.34 58.87 59.76 54.04 C 58.91 47.46 60.98 41.17 64.19 35.51 C 64.36 35.17 64.69 34.47 64.86 34.12 C 67.97 34.56 71.16 36.01 74.14 34.29 C 72.37 32.40 70.53 30.56 68.54 28.89 C 66.89 28.38 65.26 27.79 63.64 27.19 C 65.58 26.37 67.54 23.38 69.72 25.30 C 74.90 28.57 82.25 28.89 87.26 25.11 C 87.56 24.88 88.17 24.42 88.47 24.19 C 88.63 21.34 88.30 18.48 87.51 15.73 M 91.39 23.42 L 92.63 23.33 L 92.44 24.53 L 93.36 24.48 C 96.27 27.27 99.32 30.25 99.70 34.50 C 100.72 34.53 102.77 34.59 103.80 34.61 C 103.65 33.43 104.01 31.98 102.92 31.13 C 99.68 27.41 95.88 24.23 91.88 21.37 C 91.71 22.05 91.54 22.73 91.39 23.42 M 82.20 35.46 C 80.03 35.40 77.87 35.35 75.70 35.32 C 78.41 38.46 80.55 42.10 83.76 44.79 C 86.00 44.70 88.16 44.15 90.27 43.41 C 91.46 42.41 93.26 41.30 92.43 39.46 C 90.57 37.44 88.47 35.63 86.92 33.35 C 85.13 33.49 83.52 34.27 82.20 35.46 M 95.06 51.10 C 92.29 50.80 89.54 51.05 86.96 52.18 C 95.62 53.33 104.40 52.12 112.93 50.63 C 119.00 50.03 125.03 51.71 130.40 54.46 C 132.95 55.76 135.07 58.23 138.22 57.81 C 134.34 52.46 127.49 50.57 121.43 48.80 C 112.62 47.57 103.67 49.27 95.06 51.10 M 73.44 54.53 C 73.43 55.18 73.41 56.48 73.40 57.13 C 74.60 56.66 75.79 56.19 76.98 55.70 C 83.56 57.08 90.31 57.33 97.02 57.49 C 100.57 57.57 103.85 56.05 107.01 54.61 C 111.66 54.52 116.31 54.53 120.96 54.60 C 123.58 57.13 128.14 56.63 130.12 59.77 C 126.96 59.22 124.04 57.85 121.07 56.71 C 117.87 57.40 114.59 57.38 111.33 57.34 C 108.91 59.84 106.63 62.75 107.40 66.49 C 107.89 66.46 108.86 66.42 109.35 66.39 C 109.48 65.33 109.62 64.27 109.77 63.20 C 110.50 61.94 111.21 60.67 111.91 59.40 C 117.53 58.75 123.16 59.69 128.55 61.25 C 131.72 62.17 134.08 64.56 136.85 66.22 C 136.37 65.03 135.89 63.85 135.41 62.68 C 136.89 63.42 138.38 64.15 139.88 64.89 C 139.60 63.70 139.77 62.22 138.53 61.52 C 135.68 59.27 132.57 57.34 129.27 55.82 C 124.55 53.46 119.14 53.29 114.01 52.63 C 107.73 53.80 101.27 53.36 95.05 54.93 C 87.78 57.16 80.60 51.08 73.44 54.53 M 71.32 67.13 C 73.89 64.05 77.22 61.87 80.47 59.60 C 75.89 58.13 70.54 62.24 71.32 67.13 M 81.83 60.08 C 86.00 60.26 89.98 61.69 94.15 61.81 C 93.30 58.48 89.67 59.47 87.11 59.22 C 85.22 58.42 83.18 58.19 81.83 60.08 M 89.41 63.18 C 90.32 65.40 90.67 67.76 90.94 70.12 C 91.56 70.27 92.79 70.57 93.40 70.71 C 93.48 67.71 93.49 63.15 89.41 63.18 M 139.26 71.43 C 139.77 72.66 140.29 73.88 140.80 75.10 C 140.24 76.00 139.67 76.90 139.11 77.80 C 140.07 77.18 141.03 76.58 142.01 75.99 C 143.57 75.58 144.55 74.56 144.65 72.93 C 142.84 72.45 141.05 71.94 139.26 71.43 M 107.78 86.75 C 107.73 87.63 107.68 88.52 107.63 89.41 C 109.26 89.50 110.89 89.57 112.52 89.60 C 114.67 92.04 111.34 93.74 111.55 96.22 C 112.25 96.34 113.65 96.60 114.35 96.73 C 115.71 94.85 116.72 92.74 116.60 90.35 C 120.19 90.66 123.94 91.25 127.42 89.94 C 124.31 89.11 120.76 90.03 118.02 88.07 C 116.52 87.04 114.59 87.46 112.88 87.25 L 112.04 86.54 C 110.62 86.59 109.20 86.66 107.78 86.75 M 102.43 91.54 L 102.42 91.60 C 100.45 92.05 100.43 93.82 100.35 95.45 C 103.81 95.30 107.27 95.27 110.73 95.31 C 110.53 93.63 110.02 92.03 108.24 91.45 C 106.30 91.52 104.36 91.54 102.43 91.54 Z" />
<path fill="#fdfdfd" opacity="1.00" d=" M 57.53 60.45 C 57.89 60.46 58.60 60.48 58.95 60.49 C 58.60 65.13 57.07 69.85 53.41 72.93 C 53.95 71.94 54.57 71.00 55.12 70.02 C 58.16 67.65 57.97 63.92 57.53 60.45 Z" />
<path fill="#fdfdfd" opacity="1.00" d=" M 114.03 71.07 C 116.03 70.30 118.07 69.56 120.23 69.48 C 120.29 70.75 120.35 72.02 120.41 73.29 C 119.22 73.35 118.03 73.42 116.84 73.49 C 115.30 74.44 113.75 75.37 112.23 76.34 C 111.78 76.37 110.90 76.42 110.45 76.45 C 110.16 76.06 109.58 75.30 109.29 74.91 C 110.63 73.36 112.26 72.10 114.03 71.07 Z" />
<path fill="#fdfdfd" opacity="1.00" d=" M 154.64 76.61 C 157.23 76.30 159.83 75.99 162.36 75.32 C 162.01 75.68 161.30 76.38 160.94 76.73 C 162.03 76.53 163.11 76.35 164.20 76.17 C 167.17 79.78 170.34 84.00 169.44 88.98 C 169.33 94.76 164.49 98.33 160.93 102.17 C 156.65 106.71 156.53 113.63 152.06 118.02 C 141.35 129.73 125.20 133.48 112.38 142.20 C 110.86 142.57 109.35 142.96 107.84 143.37 C 107.41 143.18 106.54 142.79 106.11 142.60 C 104.40 143.12 102.68 143.60 100.97 144.09 C 100.02 144.47 99.08 144.86 98.14 145.25 C 89.43 148.03 80.15 149.36 71.01 148.45 C 66.03 147.96 61.16 145.88 57.87 142.02 C 57.70 141.22 57.36 139.60 57.19 138.80 C 59.01 137.76 60.84 136.72 62.68 135.69 C 65.43 137.47 68.12 139.64 71.42 140.25 C 73.84 140.56 76.28 140.35 78.70 140.29 C 77.96 139.51 77.23 138.74 76.49 137.97 C 72.58 137.73 68.75 136.74 65.24 135.00 C 65.42 134.49 65.77 133.46 65.95 132.95 C 66.25 132.73 66.87 132.30 67.18 132.08 L 68.12 131.41 C 72.98 135.43 79.31 136.89 85.52 136.41 C 85.46 135.94 85.35 135.01 85.29 134.54 C 80.35 133.62 75.01 133.45 70.90 130.17 C 73.15 129.29 75.36 127.59 77.90 127.98 C 80.85 128.28 83.81 128.59 86.78 128.53 C 93.56 128.50 100.35 128.67 107.14 128.32 L 107.80 127.80 C 118.45 127.23 128.28 122.06 136.31 115.30 C 142.37 110.28 145.21 102.67 150.38 96.90 C 150.70 95.05 151.06 93.21 151.45 91.37 C 153.45 91.45 155.46 91.52 157.47 91.50 C 155.98 89.65 154.14 88.16 152.15 86.92 C 151.00 84.59 149.83 82.28 148.59 80.00 C 149.87 80.16 152.43 80.46 153.71 80.61 C 151.59 80.02 149.41 79.66 147.24 79.29 C 149.55 79.39 152.14 78.63 154.24 79.87 C 156.21 81.85 158.79 83.99 158.63 87.06 C 158.46 90.21 157.50 93.26 157.09 96.38 C 158.54 95.38 159.98 94.35 161.40 93.30 C 161.45 92.98 161.55 92.35 161.60 92.04 C 162.53 88.73 162.42 85.28 160.77 82.21 C 159.34 79.75 156.93 78.16 154.64 76.61 M 165.22 90.10 C 163.48 94.09 161.03 97.78 156.90 99.58 C 160.09 99.92 162.78 97.88 165.00 95.86 C 166.01 94.06 165.68 92.00 165.22 90.10 M 119.15 129.04 C 115.49 130.90 111.11 131.40 108.15 134.48 C 106.32 133.60 104.30 133.42 102.31 133.31 C 102.39 134.11 102.56 135.72 102.64 136.52 C 100.02 137.11 97.37 137.58 94.80 138.36 C 92.94 138.42 91.08 138.43 89.22 138.43 C 89.34 138.99 89.59 140.10 89.71 140.66 C 95.06 139.00 101.48 140.34 105.95 136.42 C 107.28 136.68 108.58 137.41 109.96 137.10 C 119.27 134.77 128.40 131.56 136.86 126.99 C 139.83 125.31 143.36 124.04 145.06 120.84 C 136.33 122.19 129.82 129.72 120.91 130.69 C 123.63 129.59 126.28 128.35 128.78 126.81 C 131.99 124.85 135.84 123.62 138.05 120.37 C 131.25 122.07 125.48 126.21 119.15 129.04 M 99.19 132.37 C 100.74 132.79 101.47 130.18 99.97 129.69 C 98.45 129.28 97.65 131.91 99.19 132.37 M 91.22 134.39 C 91.23 134.73 91.24 135.40 91.24 135.73 C 92.40 135.70 93.55 135.68 94.71 135.65 C 94.72 135.34 94.76 134.72 94.77 134.40 C 93.59 134.40 92.40 134.40 91.22 134.39 Z" />
<path fill="#fdfdfd" opacity="1.00" d=" M 48.40 85.35 C 46.97 83.88 47.36 81.62 48.51 80.10 C 48.43 81.85 48.39 83.60 48.40 85.35 Z" />
<path fill="#fdfdfd" opacity="1.00" d=" M 53.41 84.16 C 54.37 82.89 55.32 81.63 56.29 80.37 C 56.38 83.45 56.38 86.53 56.38 89.62 C 57.55 90.48 58.73 91.33 59.92 92.17 C 59.71 90.03 58.53 88.24 57.29 86.56 C 57.68 86.09 58.45 85.16 58.83 84.69 C 60.06 84.33 61.28 83.96 62.51 83.60 C 63.66 83.54 65.96 83.41 67.12 83.35 C 65.50 87.69 63.83 92.01 62.37 96.41 C 60.72 94.22 58.49 92.66 55.86 91.88 C 54.82 90.42 53.79 88.94 52.72 87.50 C 52.50 85.66 52.32 83.82 51.88 82.02 C 52.38 82.74 52.89 83.45 53.41 84.16 Z" />
<path fill="#fdfdfd" opacity="1.00" d=" M 145.19 89.12 C 146.41 88.69 147.67 88.35 148.93 88.03 C 148.82 90.16 148.08 92.15 147.14 94.05 C 146.01 94.98 144.89 95.92 143.75 96.84 C 142.82 97.21 141.88 97.58 140.94 97.95 C 140.08 98.18 138.37 98.66 137.51 98.90 C 137.14 97.23 136.77 95.57 136.45 93.90 C 137.05 93.61 138.24 93.01 138.83 92.72 C 140.95 91.52 143.10 90.37 145.19 89.12 Z" />
<path fill="#fdfdfd" opacity="1.00" d=" M 55.60 96.21 C 55.79 95.78 56.15 94.93 56.34 94.50 C 58.19 95.32 60.07 96.09 61.98 96.78 C 61.68 103.39 61.47 110.17 63.71 116.50 C 64.73 120.13 66.89 123.93 70.86 124.82 C 71.77 122.05 69.48 120.65 68.17 118.85 C 67.52 117.58 66.92 116.28 66.36 114.97 C 66.93 115.79 67.48 116.61 68.03 117.45 C 69.56 117.39 71.20 117.60 72.44 116.50 C 73.27 117.92 74.08 119.35 74.83 120.82 L 76.78 120.66 C 76.78 119.08 76.79 117.49 76.83 115.90 C 77.07 116.89 77.30 117.89 77.52 118.89 C 78.40 118.84 80.17 118.74 81.06 118.68 C 83.18 116.76 85.61 115.25 87.93 113.60 C 88.77 113.62 89.60 113.64 90.44 113.66 C 90.34 113.98 90.14 114.63 90.04 114.95 C 89.22 115.95 88.41 116.96 87.60 117.97 C 88.27 118.44 89.60 119.36 90.27 119.82 C 90.42 121.49 90.57 123.16 90.73 124.83 C 89.13 124.69 87.52 124.54 85.92 124.39 C 85.39 123.58 84.86 122.78 84.33 121.97 C 85.30 120.85 87.24 118.61 88.21 117.48 C 86.18 118.07 82.13 119.24 80.10 119.82 C 80.98 121.36 81.88 122.88 82.80 124.39 C 82.23 124.45 81.08 124.56 80.51 124.61 C 80.46 123.38 80.42 122.15 80.40 120.92 C 76.79 122.88 73.46 125.28 69.93 127.35 C 69.49 127.15 68.62 126.74 68.19 126.54 C 67.81 125.76 67.43 124.99 67.04 124.22 C 63.73 126.15 60.42 128.09 57.04 129.90 C 57.84 124.29 58.66 118.66 58.64 112.98 C 58.57 108.50 59.25 103.74 57.39 99.52 C 57.00 98.65 56.55 97.80 56.07 96.98 L 55.60 96.21 M 70.14 118.46 C 68.53 120.09 72.73 120.73 71.14 118.69 L 70.14 118.46 Z" />
<path fill="#fdfdfd" opacity="1.00" d=" M 130.98 95.62 C 131.66 95.54 133.04 95.37 133.73 95.29 C 133.74 96.54 133.64 97.80 133.55 99.05 C 130.69 101.87 127.05 103.46 123.16 104.29 C 121.99 104.77 120.82 105.24 119.65 105.73 C 119.55 105.03 119.35 103.64 119.25 102.95 C 119.02 102.17 118.56 100.63 118.33 99.86 C 120.51 99.13 122.69 98.41 124.91 97.79 C 126.97 97.20 129.02 96.51 130.98 95.62 Z" />
<path fill="#fdfdfd" opacity="1.00" d=" M 68.05 104.91 C 67.17 102.84 68.79 100.71 69.52 98.80 C 69.15 100.73 70.84 104.52 68.05 104.91 Z" />
<path fill="#fdfdfd" opacity="1.00" d=" M 136.45 108.91 C 135.11 104.32 139.64 100.78 143.76 100.27 C 143.44 101.08 143.11 101.89 142.77 102.69 C 140.80 104.91 139.89 108.63 136.45 108.91 Z" />
<path fill="#fdfdfd" opacity="1.00" d=" M 75.18 108.49 C 73.39 106.52 70.88 101.33 75.31 101.02 L 76.57 101.85 C 76.49 104.13 75.92 106.34 75.18 108.49 Z" />
<path fill="#fdfdfd" opacity="1.00" d=" M 107.95 103.09 C 108.97 102.65 109.99 102.21 111.02 101.77 C 112.55 101.57 114.09 101.37 115.63 101.19 C 116.27 103.15 116.53 105.21 116.62 107.27 C 112.07 108.32 107.41 109.11 102.73 108.60 C 102.72 107.65 102.69 105.76 102.67 104.81 C 102.93 104.52 103.44 103.92 103.70 103.63 C 105.12 103.46 106.53 103.29 107.95 103.09 Z" />
<path fill="#fdfdfd" opacity="1.00" d=" M 80.69 104.24 C 83.25 104.46 85.80 104.67 88.36 104.87 C 88.40 105.77 88.49 107.58 88.53 108.49 C 85.52 108.50 82.44 108.56 79.60 107.38 C 79.88 106.59 80.42 105.02 80.69 104.24 Z" />
<path fill="#fdfdfd" opacity="1.00" d=" M 91.58 108.36 C 92.55 104.42 97.06 104.71 100.23 104.27 C 100.22 105.30 100.19 107.37 100.17 108.40 C 97.31 108.46 94.44 108.47 91.58 108.36 Z" />
<path fill="#fdfdfd" opacity="1.00" d=" M 128.72 107.66 C 130.16 106.84 131.72 106.30 133.36 106.03 C 133.47 106.74 133.70 108.17 133.81 108.88 C 134.04 109.72 134.51 111.39 134.75 112.23 C 133.05 113.61 131.22 114.82 129.53 116.21 C 127.77 117.51 125.96 118.77 124.01 119.79 C 123.26 118.19 122.45 116.63 121.59 115.09 C 121.41 113.64 121.27 112.18 121.15 110.71 C 121.84 110.47 123.22 109.98 123.91 109.74 C 124.43 109.53 125.48 109.12 126.00 108.91 C 126.91 108.51 127.82 108.09 128.72 107.66 Z" />
<path fill="#fdfdfd" opacity="1.00" d=" M 115.30 112.33 C 116.07 112.05 117.60 111.50 118.36 111.22 C 118.44 112.86 118.51 114.50 118.59 116.14 C 119.72 117.64 120.67 119.26 120.69 121.20 C 118.84 121.87 117.00 122.56 115.18 123.30 C 112.40 123.74 109.64 124.40 106.83 124.63 C 106.47 123.43 106.10 122.25 105.71 121.06 C 105.62 119.27 105.56 117.48 105.50 115.69 C 106.10 115.48 107.30 115.05 107.90 114.84 C 110.45 114.29 112.95 113.48 115.30 112.33 Z" />
<path fill="#fdfdfd" opacity="1.00" d=" M 93.15 117.54 C 94.77 117.46 96.39 117.37 98.00 117.24 C 99.51 116.81 101.03 116.45 102.57 116.16 C 102.69 119.24 102.67 122.33 102.67 125.42 C 99.98 125.37 97.29 125.37 94.61 125.39 C 93.84 122.83 93.30 120.21 93.15 117.54 Z" />
<path fill="#fdfdfd" opacity="1.00" d=" M 135.66 132.98 C 138.40 132.04 141.02 130.77 143.54 129.33 C 143.87 131.15 144.79 133.02 144.12 134.88 C 141.94 142.46 138.90 149.76 136.14 157.15 C 135.22 156.58 134.36 155.90 133.48 155.27 C 128.96 158.80 125.19 163.15 120.91 166.96 C 116.15 171.46 110.65 175.34 106.92 180.81 C 109.17 180.41 111.41 179.67 113.07 178.02 C 119.78 171.93 126.59 165.89 132.52 159.02 C 133.09 158.97 134.24 158.87 134.81 158.83 C 133.57 162.38 132.46 165.98 130.95 169.43 C 129.76 169.16 128.61 168.76 127.42 168.55 C 125.38 169.99 123.77 171.93 121.90 173.56 C 118.38 176.87 113.90 179.41 111.82 183.98 C 118.65 181.99 122.97 175.87 128.30 171.59 L 130.37 171.60 C 129.55 172.62 128.76 173.67 128.01 174.74 C 126.64 176.60 125.31 178.49 123.99 180.39 C 120.50 180.43 117.93 182.82 116.08 185.56 C 116.86 185.57 117.64 185.58 118.41 185.60 C 119.62 184.69 120.83 183.80 122.05 182.91 C 121.84 183.73 121.40 185.36 121.18 186.18 C 119.12 189.00 117.06 191.82 115.13 194.75 C 114.36 195.55 113.57 196.36 112.78 197.15 C 112.40 196.68 112.03 196.22 111.66 195.75 C 109.35 192.73 106.96 189.65 105.69 186.02 C 105.01 183.09 105.45 180.03 104.97 177.07 C 104.80 176.50 104.47 175.36 104.30 174.79 C 101.77 169.57 98.22 164.88 93.35 161.63 C 92.82 161.67 91.74 161.77 91.20 161.81 C 92.68 163.53 94.21 165.19 95.73 166.87 C 94.39 170.40 92.45 173.62 90.18 176.62 C 89.29 177.91 88.46 179.23 87.65 180.57 C 85.98 180.35 84.31 180.15 82.64 180.00 C 82.90 175.36 82.93 170.71 82.75 166.07 C 83.65 165.17 84.59 164.29 85.52 163.41 C 85.47 162.84 85.37 161.69 85.32 161.12 C 83.70 162.21 81.87 163.13 80.68 164.73 C 80.13 166.86 80.44 169.09 80.34 171.27 L 80.12 171.64 C 79.69 172.04 78.83 172.85 78.40 173.25 C 77.70 172.88 77.01 172.50 76.33 172.11 C 75.31 170.29 74.01 168.64 72.32 167.39 C 72.64 169.61 73.09 171.82 73.62 174.00 C 74.66 174.48 75.70 174.96 76.74 175.46 C 76.59 176.14 76.31 177.48 76.17 178.15 C 74.86 180.57 73.01 182.62 70.98 184.45 C 71.72 184.53 73.20 184.69 73.94 184.77 C 73.01 186.49 72.06 188.20 71.07 189.89 C 70.51 190.11 69.39 190.56 68.83 190.79 C 68.44 177.94 70.59 165.15 70.48 152.31 C 79.82 153.17 89.08 151.32 98.06 148.94 C 103.20 147.41 108.96 147.73 113.52 144.54 C 120.75 140.40 128.28 136.84 135.66 132.98 M 134.84 142.82 C 126.29 152.16 115.61 159.16 105.70 166.91 C 105.74 167.41 105.81 168.40 105.85 168.89 C 106.00 168.58 106.31 167.96 106.46 167.64 C 111.00 166.41 114.02 162.31 117.84 159.77 C 118.56 159.20 119.28 158.62 120.00 158.04 C 125.17 154.64 129.67 150.34 134.22 146.18 C 136.44 144.24 138.14 141.81 139.49 139.20 C 137.84 140.27 136.28 141.48 134.84 142.82 M 132.15 140.42 C 130.92 141.78 129.57 143.01 128.20 144.22 C 127.49 144.86 126.80 145.52 126.11 146.18 C 124.83 147.21 123.53 148.23 122.21 149.22 C 118.98 151.76 115.84 154.43 112.52 156.85 L 112.49 157.76 C 112.01 157.67 111.07 157.49 110.60 157.40 L 110.67 158.65 L 109.38 158.37 L 109.54 159.77 C 109.05 159.68 108.07 159.49 107.58 159.40 L 107.66 160.69 L 106.37 160.29 L 106.48 161.61 C 106.00 161.58 105.06 161.51 104.58 161.47 C 104.64 162.12 104.77 163.41 104.83 164.05 C 105.01 163.62 105.39 162.75 105.57 162.32 C 106.03 162.42 106.94 162.63 107.39 162.74 L 107.36 161.34 L 108.62 161.64 L 108.42 160.72 C 110.12 159.96 111.79 159.12 113.46 158.31 L 113.63 157.83 C 115.09 156.90 116.53 155.96 117.99 155.05 C 122.88 150.85 128.01 146.95 132.77 142.60 L 133.18 142.50 C 133.67 142.00 134.65 141.00 135.15 140.51 C 134.14 140.46 133.14 140.43 132.15 140.42 M 131.96 150.87 C 123.59 157.85 115.93 165.80 106.62 171.58 C 106.59 172.15 106.52 173.28 106.49 173.85 C 107.87 173.58 109.35 173.41 110.44 172.42 C 115.57 168.56 120.30 164.21 125.21 160.07 C 128.65 157.01 132.26 154.05 134.97 150.29 C 133.93 150.34 132.92 150.53 131.96 150.87 M 74.13 158.40 C 74.25 160.77 75.66 162.58 77.94 163.25 C 77.62 161.61 77.26 159.98 76.86 158.36 C 76.18 158.37 74.81 158.39 74.13 158.40 M 73.70 162.97 C 73.62 164.09 73.45 166.33 73.37 167.45 C 74.68 167.91 76.00 168.35 77.32 168.76 C 77.01 166.33 75.85 164.22 73.70 162.97 M 71.60 175.50 C 71.60 176.51 71.60 177.52 71.60 178.53 C 72.18 178.59 73.35 178.72 73.94 178.78 C 73.75 177.76 73.57 176.75 73.38 175.73 C 72.93 175.68 72.05 175.56 71.60 175.50 M 109.27 187.12 C 109.36 188.11 109.46 189.09 109.56 190.08 C 110.06 190.42 111.06 191.11 111.56 191.45 C 112.03 191.46 112.98 191.47 113.46 191.48 C 113.43 190.62 113.41 189.76 113.39 188.91 C 112.01 188.33 110.64 187.71 109.27 187.12 Z" />
</g>
</svg>
