<?xml version="1.0" encoding="UTF-8" ?>
<!DOCTYPE svg PUBLIC "-//W3C//DTD SVG 1.1//EN" "http://www.w3.org/Graphics/SVG/1.1/DTD/svg11.dtd">
<svg width="210pt" height="220pt" viewBox="0 0 210 220" version="1.1" xmlns="http://www.w3.org/2000/svg">
<g id="#231f20fe">
<path fill="#231f20" opacity="1.00" d=" M 110.24 10.89 C 115.10 9.85 119.95 7.51 125.02 8.39 C 128.43 9.28 131.70 10.73 134.80 12.41 C 136.91 14.23 138.09 16.89 140.05 18.88 C 143.97 22.98 148.79 26.25 151.95 31.05 C 155.01 35.36 155.41 40.85 155.51 45.97 C 155.52 50.29 155.57 54.68 154.55 58.90 C 153.50 63.38 149.93 66.72 148.64 71.10 C 148.08 73.54 148.36 76.06 148.42 78.54 C 146.21 81.54 144.00 84.53 141.89 87.60 C 144.65 87.60 147.40 87.58 150.16 87.57 C 150.67 88.99 151.20 90.41 151.81 91.79 C 155.54 91.51 159.30 91.83 162.86 93.06 L 161.57 93.38 C 161.55 94.19 161.51 95.81 161.49 96.62 C 162.06 96.67 163.20 96.77 163.77 96.82 C 163.68 95.52 163.57 94.22 163.46 92.92 C 165.17 92.50 166.85 91.95 168.56 91.52 C 168.71 93.64 168.84 95.77 168.92 97.90 C 164.60 97.52 160.26 97.54 155.93 97.47 C 155.81 96.02 155.69 94.57 155.56 93.13 C 152.56 93.38 152.42 95.90 152.36 98.29 C 150.17 97.47 147.87 97.36 145.65 98.14 C 145.39 98.03 144.86 97.82 144.60 97.71 C 144.67 94.48 144.66 91.25 144.55 88.03 C 141.28 89.52 137.86 90.82 134.94 92.96 C 132.48 94.68 131.74 97.75 130.74 100.39 C 136.75 100.92 142.75 101.60 148.69 102.69 C 148.80 107.49 148.78 112.31 148.36 117.10 C 148.95 117.46 150.14 118.18 150.73 118.54 C 150.20 119.08 149.13 120.15 148.60 120.69 C 148.41 122.04 148.17 123.64 149.14 124.77 C 151.97 128.64 155.78 131.78 158.11 136.03 C 159.42 138.40 157.95 141.05 157.37 143.41 C 160.00 142.61 162.75 142.44 165.48 142.66 C 167.79 166.83 158.31 189.68 150.39 211.94 C 149.80 211.94 148.61 211.94 148.01 211.94 C 150.49 203.75 154.18 195.98 156.78 187.83 C 161.60 173.82 164.17 158.97 163.46 144.13 C 161.65 144.31 159.85 144.50 158.05 144.72 C 155.56 146.12 152.93 147.34 150.09 147.82 C 152.73 143.61 157.67 140.27 156.65 134.64 C 153.28 131.40 149.56 128.55 146.02 125.49 C 144.94 129.62 143.85 133.85 141.42 137.44 C 142.75 138.24 144.08 139.04 145.41 139.86 C 145.78 141.86 146.17 143.86 146.47 145.87 C 145.97 147.07 145.47 148.28 144.99 149.50 C 141.17 149.08 137.39 148.36 133.56 148.08 C 133.42 148.84 133.13 150.34 132.99 151.10 C 132.26 155.86 131.22 161.42 134.19 165.63 C 136.63 169.69 141.17 171.75 143.97 175.50 C 144.36 175.54 145.13 175.62 145.52 175.67 C 142.12 178.01 138.45 179.97 134.45 181.07 C 134.11 189.38 134.65 197.71 134.33 206.03 C 134.38 207.80 133.61 209.39 132.65 210.82 C 131.56 201.10 132.90 191.23 132.64 181.45 C 127.06 181.73 120.25 181.20 117.12 175.83 C 118.22 172.87 121.52 171.45 123.21 168.84 C 120.57 168.73 117.93 168.70 115.29 168.66 C 115.73 168.23 116.61 167.38 117.04 166.95 C 119.89 166.50 122.73 165.99 125.56 165.39 C 125.50 163.82 125.45 162.25 125.40 160.69 C 122.42 158.71 118.91 158.18 115.40 158.17 C 115.54 157.80 115.82 157.06 115.96 156.69 C 119.11 156.67 122.26 156.74 125.42 156.80 C 125.42 154.65 125.41 152.49 125.40 150.34 C 121.75 150.38 118.10 150.50 114.46 150.43 C 114.45 149.87 114.43 148.75 114.43 148.19 C 120.04 146.24 126.01 145.18 131.95 145.80 C 136.22 146.60 140.58 146.68 144.91 146.79 C 144.60 144.34 144.07 141.93 143.33 139.58 C 131.93 139.33 120.77 136.50 109.35 136.33 C 117.77 132.87 126.94 133.53 135.83 133.45 C 135.41 131.51 134.92 129.58 134.40 127.67 C 122.03 124.24 109.63 129.20 98.74 134.76 C 96.21 144.29 90.10 152.40 82.44 158.47 C 79.84 160.56 76.77 162.40 75.65 165.76 C 75.31 169.19 74.61 172.59 74.50 176.05 C 75.63 178.57 76.73 181.12 77.89 183.64 C 82.89 183.89 87.99 184.38 92.95 183.55 C 99.83 178.35 105.82 171.37 114.33 168.82 C 113.48 170.10 112.59 171.36 111.68 172.60 C 112.07 180.78 110.72 188.87 110.19 197.01 C 108.56 201.84 107.31 206.82 106.93 211.93 C 98.36 212.00 89.79 211.99 81.22 211.94 C 83.44 206.40 83.99 200.39 83.33 194.48 C 79.36 200.84 74.08 206.18 69.32 211.92 C 68.78 211.93 67.71 211.95 67.17 211.95 C 70.49 208.72 74.08 205.41 75.06 200.65 C 67.87 202.33 61.69 206.47 55.14 209.67 C 54.47 207.81 53.68 205.99 52.65 204.31 C 52.42 206.85 52.38 209.40 52.36 211.95 L 51.44 211.94 C 51.54 205.98 50.89 199.86 52.58 194.06 C 53.52 190.79 56.00 188.30 58.08 185.73 C 57.12 190.97 54.61 195.75 53.47 200.93 C 53.66 203.13 55.30 204.91 56.15 206.90 C 67.83 201.95 80.34 196.81 88.53 186.66 C 84.59 187.07 79.70 187.53 76.91 184.05 C 72.16 178.43 73.27 170.35 74.54 163.67 C 71.99 164.80 69.46 165.97 66.84 166.91 C 63.62 172.34 61.52 178.31 59.17 184.14 C 58.62 179.04 60.04 174.14 62.75 169.92 C 47.56 176.13 31.97 181.59 17.63 189.66 C 22.68 182.98 31.58 181.81 37.99 177.03 C 38.94 170.83 37.51 164.51 36.55 158.37 C 36.96 158.49 37.78 158.73 38.19 158.86 C 40.66 164.59 40.33 170.88 40.39 176.97 C 44.56 175.76 48.70 174.32 52.56 172.31 C 52.95 171.28 53.29 170.23 53.57 169.17 C 51.65 164.17 50.18 159.01 48.23 154.02 C 45.57 147.35 45.25 139.28 49.89 133.39 C 52.74 134.08 55.53 135.00 58.19 136.23 C 59.06 136.25 60.79 136.30 61.66 136.33 C 59.71 133.52 57.39 131.00 55.37 128.25 C 59.28 121.69 68.45 119.39 70.17 111.46 C 61.07 112.92 52.30 116.01 43.78 119.44 C 42.07 119.36 40.41 119.05 38.80 118.50 C 44.54 116.99 50.13 115.03 55.64 112.85 C 62.27 110.28 70.25 111.48 76.12 107.11 C 81.59 98.89 79.55 88.28 78.66 79.04 C 75.90 77.06 72.83 74.91 71.82 71.48 C 71.04 68.40 71.08 65.17 71.35 62.03 C 71.52 58.58 74.38 56.20 75.44 53.07 C 75.59 49.51 74.12 45.98 74.77 42.43 C 76.50 38.43 80.35 35.82 82.21 31.87 C 84.15 28.32 83.38 24.13 83.51 20.26 C 87.48 16.97 91.47 13.35 96.50 11.80 C 101.02 10.84 105.74 12.03 110.24 10.89 M 117.02 10.20 C 116.40 10.30 115.15 10.50 114.52 10.60 L 114.47 11.27 C 109.37 12.32 104.27 13.39 99.11 14.11 C 96.67 14.50 94.27 15.09 91.90 15.78 C 91.39 16.02 90.37 16.52 89.86 16.77 C 88.76 17.48 87.66 18.19 86.64 19.00 C 85.63 20.84 86.51 23.01 86.39 24.99 C 86.71 28.10 84.83 30.78 83.35 33.34 C 81.42 35.45 79.49 37.55 77.75 39.82 C 77.47 40.35 76.91 41.41 76.63 41.95 C 76.51 44.55 76.12 47.24 76.81 49.80 C 78.11 52.94 79.93 55.84 81.99 58.53 C 83.51 58.76 84.45 58.11 84.81 56.60 L 85.60 56.60 L 85.37 55.38 L 86.43 55.59 C 86.90 54.28 87.38 52.98 87.82 51.65 L 88.71 51.47 C 88.61 51.00 88.41 50.06 88.31 49.59 L 89.28 49.61 C 89.60 48.17 89.96 46.73 90.33 45.30 C 90.59 44.24 90.87 43.19 91.17 42.14 C 92.16 39.46 93.14 36.78 94.06 34.07 C 95.65 31.00 98.02 28.42 101.11 26.82 C 104.05 26.42 107.03 26.32 109.96 26.81 C 113.52 28.51 116.77 30.74 120.04 32.92 C 124.18 35.65 129.26 36.20 133.98 37.23 C 129.98 37.97 125.58 38.15 121.83 36.33 C 117.60 34.30 114.42 30.62 110.15 28.65 C 107.04 27.91 103.82 28.22 100.67 28.48 C 98.84 30.15 97.11 31.94 95.48 33.81 C 95.51 34.20 95.57 34.98 95.60 35.37 L 94.33 35.61 C 94.42 36.06 94.60 36.97 94.69 37.43 L 93.76 37.45 C 93.48 38.93 93.21 40.41 92.80 41.85 C 92.00 43.79 91.30 45.77 90.65 47.76 C 90.16 49.38 89.50 50.95 88.80 52.50 C 87.78 54.51 86.63 56.44 85.24 58.21 C 84.27 58.99 83.31 59.78 82.37 60.58 C 81.93 60.62 81.07 60.69 80.63 60.73 C 79.96 58.68 79.38 56.60 79.02 54.47 C 77.04 53.97 75.64 55.24 74.55 56.70 C 73.33 61.06 73.31 65.60 73.79 70.07 C 74.18 71.56 74.47 73.08 74.75 74.60 C 76.68 75.17 78.66 75.52 80.66 75.80 C 80.25 84.61 80.64 94.38 86.45 101.56 C 89.48 105.16 93.59 108.64 98.53 108.71 L 98.38 109.31 C 101.78 109.56 105.10 110.39 108.48 110.81 C 106.23 111.42 103.88 111.37 101.57 111.43 L 101.53 110.76 C 100.04 110.54 98.56 110.27 97.12 109.82 C 91.67 107.75 87.71 103.36 83.33 99.72 C 83.25 103.48 82.77 107.32 83.47 111.05 C 85.71 114.66 89.68 116.68 93.19 118.87 C 96.56 120.61 99.90 123.31 103.93 122.66 C 106.47 122.67 108.41 120.89 110.44 119.61 C 110.34 116.92 110.33 114.22 110.40 111.53 L 109.31 111.38 C 110.12 108.55 110.45 105.63 110.44 102.69 C 116.62 101.50 122.90 100.90 129.17 100.43 C 130.10 97.16 131.00 93.81 132.89 90.93 C 136.55 90.14 139.63 87.91 142.16 85.24 L 141.08 84.88 C 140.51 84.76 139.35 84.51 138.78 84.39 L 138.41 85.66 C 138.24 85.67 137.92 85.69 137.75 85.70 C 137.69 85.16 137.57 84.09 137.51 83.55 C 138.37 83.55 140.10 83.55 140.97 83.54 C 140.32 80.97 139.55 78.42 139.33 75.77 C 141.03 75.76 142.56 75.26 143.98 74.36 C 143.95 75.70 142.61 76.32 141.75 77.11 C 141.63 79.07 140.57 81.31 142.07 82.99 C 144.11 83.99 144.02 81.02 144.87 79.89 C 145.41 78.20 145.94 76.51 146.51 74.83 C 146.16 74.58 145.47 74.07 145.12 73.82 C 144.70 71.52 147.26 70.03 148.19 68.12 C 149.64 64.82 151.31 61.59 152.20 58.07 C 154.48 51.23 153.92 43.90 153.43 36.83 C 152.09 33.95 150.41 31.23 148.26 28.87 C 143.53 23.83 137.10 20.15 134.05 13.72 C 133.55 13.53 132.56 13.16 132.07 12.98 C 129.89 12.30 127.82 11.33 125.86 10.17 C 123.06 9.04 119.83 9.16 117.02 10.20 M 147.46 93.61 L 146.53 93.41 C 146.55 94.20 146.59 95.78 146.60 96.57 C 147.99 96.63 149.37 96.69 150.76 96.75 C 150.60 93.94 150.26 91.14 149.59 88.40 L 147.28 88.35 C 147.33 90.11 147.38 91.86 147.46 93.61 M 158.89 96.51 C 160.25 95.98 160.27 93.23 158.86 92.76 C 157.28 93.24 157.22 96.12 158.89 96.51 M 165.46 93.31 C 165.52 94.37 165.63 96.50 165.69 97.57 C 167.86 97.22 168.22 95.26 167.98 93.39 C 167.35 93.37 166.09 93.33 165.46 93.31 M 80.28 102.23 C 77.76 115.43 83.31 128.42 82.37 141.67 C 87.59 137.50 87.88 129.16 93.93 125.57 C 100.34 123.13 105.30 129.78 111.69 128.40 C 111.53 126.29 111.12 124.21 110.47 122.20 C 108.06 123.68 105.41 124.67 102.55 124.62 L 102.60 123.69 C 95.34 123.51 88.80 119.24 83.80 114.27 C 81.52 112.22 81.29 109.15 81.29 106.29 L 82.54 106.78 C 82.54 105.69 82.53 103.51 82.52 102.42 C 81.96 102.37 80.84 102.28 80.28 102.23 M 111.65 104.59 C 111.72 109.21 111.68 113.82 111.66 118.43 C 115.06 118.69 118.49 118.58 121.85 119.20 C 129.34 119.45 136.85 119.48 144.33 119.24 C 146.81 118.56 146.48 115.56 146.72 113.58 L 147.39 113.48 C 147.35 110.35 147.37 107.22 147.47 104.09 C 142.45 102.73 137.13 103.50 131.98 103.13 C 125.21 103.35 118.20 102.52 111.65 104.59 M 70.21 117.23 C 66.18 121.33 59.23 123.62 58.12 129.83 C 60.53 131.88 63.92 133.90 63.78 137.52 C 61.21 137.60 58.60 137.67 56.11 136.95 C 54.04 136.41 51.96 135.92 49.88 135.44 C 49.52 136.62 49.15 137.78 48.75 138.95 C 48.10 143.71 48.54 148.54 49.78 153.17 C 50.27 154.37 50.74 155.58 51.22 156.80 C 51.51 157.84 51.82 158.89 52.13 159.93 C 53.28 163.57 54.62 167.20 54.69 171.07 C 57.19 170.17 59.65 169.16 62.14 168.21 C 65.57 166.70 68.91 165.02 72.17 163.17 C 75.05 161.40 77.91 159.57 80.51 157.40 C 79.90 155.67 79.43 153.87 79.48 152.02 C 79.35 142.02 79.68 132.03 79.41 122.04 C 79.58 117.27 78.02 112.71 77.03 108.11 C 73.14 109.50 71.40 113.60 70.21 117.23 M 91.41 132.42 C 88.78 135.58 86.42 138.96 84.23 142.44 L 83.62 142.49 C 80.02 146.56 82.30 152.24 81.54 157.11 C 87.19 152.54 91.29 146.55 95.73 140.90 C 95.12 138.00 94.24 135.16 93.34 132.34 C 92.86 132.36 91.89 132.40 91.41 132.42 M 127.17 147.57 C 127.15 151.37 129.00 156.25 125.48 159.06 C 126.79 161.12 127.90 163.35 127.16 165.85 C 125.04 169.73 122.18 173.11 118.91 176.08 C 120.28 177.08 121.67 178.06 123.04 179.07 C 127.01 179.94 131.09 179.64 135.11 179.32 C 136.11 178.87 137.11 178.42 138.12 177.97 C 139.61 177.68 141.10 177.43 142.60 177.19 C 142.97 175.42 142.65 173.43 140.48 173.18 L 140.59 172.84 C 137.55 171.03 135.06 168.42 133.21 165.43 L 132.52 165.34 C 132.52 164.98 132.52 164.26 132.52 163.90 C 130.83 160.09 132.06 155.73 131.73 151.69 L 132.74 151.70 C 132.67 150.69 132.52 148.68 132.45 147.67 C 130.69 147.65 128.93 147.61 127.17 147.57 Z" />
<path fill="#231f20" opacity="1.00" d=" M 138.24 36.15 C 140.40 36.14 142.89 36.64 143.49 39.00 C 144.32 44.99 143.32 51.10 141.72 56.89 C 141.45 59.43 141.29 62.00 140.60 64.47 C 140.23 60.38 140.15 56.19 141.18 52.18 C 141.65 48.15 142.07 44.08 141.71 40.02 C 140.94 38.45 139.31 37.48 138.24 36.15 Z" />
<path fill="#231f20" opacity="1.00" d=" M 101.90 43.20 C 106.33 43.31 110.48 45.33 113.66 48.33 C 112.63 48.36 110.59 48.41 109.57 48.44 C 110.10 48.78 111.15 49.47 111.68 49.81 C 111.72 50.07 111.79 50.58 111.83 50.84 C 110.90 50.54 109.98 50.23 109.07 49.91 C 106.21 48.62 103.12 47.90 100.31 46.50 C 102.08 46.37 103.86 46.28 105.65 46.22 C 104.71 45.46 102.84 43.96 101.90 43.20 Z" />
<path fill="#231f20" opacity="1.00" d=" M 123.67 48.49 C 126.18 48.40 128.69 48.48 131.20 48.60 C 132.23 49.30 133.25 50.00 134.27 50.72 C 132.43 50.42 130.65 50.55 128.93 51.10 C 129.73 53.28 133.19 52.92 134.23 55.21 L 132.39 55.34 L 132.46 56.56 C 129.75 56.49 127.04 56.38 124.34 56.28 L 124.23 54.67 C 125.56 54.47 126.90 54.27 128.23 54.03 C 126.00 53.35 123.78 52.61 121.66 51.66 C 123.30 51.11 126.15 52.52 127.18 50.97 C 127.08 49.11 124.91 49.22 123.67 48.49 Z" />
<path fill="#231f20" opacity="1.00" d=" M 92.20 54.40 C 93.48 52.48 94.58 50.03 97.07 49.49 C 102.34 48.27 107.19 51.24 111.28 54.17 C 111.47 53.20 111.83 51.25 112.02 50.28 C 112.37 52.04 112.88 53.76 113.47 55.46 C 113.82 55.68 114.52 56.12 114.87 56.34 C 114.39 56.37 113.44 56.42 112.97 56.44 C 112.33 55.77 111.05 54.41 110.42 53.73 C 110.42 54.25 110.41 55.30 110.41 55.82 C 106.35 53.42 101.80 50.54 96.87 51.62 C 95.18 52.31 93.69 53.37 92.20 54.40 Z" />
<path fill="#231f20" opacity="1.00" d=" M 123.65 59.65 C 127.09 59.14 130.55 58.65 134.04 58.73 C 135.60 60.96 137.13 63.24 138.22 65.75 C 137.59 65.70 136.32 65.61 135.69 65.57 C 135.13 64.17 134.57 62.77 134.07 61.36 C 130.53 61.24 126.98 61.38 123.45 61.53 C 123.50 61.06 123.60 60.12 123.65 59.65 Z" />
<path fill="#231f20" opacity="1.00" d=" M 100.37 59.36 C 101.32 59.68 103.20 60.32 104.15 60.64 C 104.77 60.95 106.03 61.56 106.65 61.86 C 106.71 62.48 106.83 63.72 106.90 64.34 C 104.85 65.35 102.58 65.64 100.43 64.80 C 100.42 63.44 100.39 60.72 100.37 59.36 Z" />
<path fill="#231f20" opacity="1.00" d=" M 114.29 71.31 C 114.88 68.71 116.12 66.33 118.45 64.91 C 118.42 65.40 118.37 66.38 118.34 66.87 C 117.03 68.13 116.29 69.72 116.09 71.52 C 115.64 71.46 114.74 71.36 114.29 71.31 Z" />
<path fill="#231f20" opacity="1.00" d=" M 122.82 66.57 C 126.16 66.19 131.91 66.54 131.71 71.15 C 129.41 71.50 127.12 71.87 124.85 72.39 C 123.46 71.65 122.05 70.91 121.03 69.67 C 120.72 69.55 120.09 69.32 119.78 69.21 C 120.79 68.33 121.80 67.45 122.82 66.57 M 122.41 68.11 C 122.41 68.77 122.41 70.10 122.41 70.76 C 122.91 70.61 123.92 70.32 124.43 70.17 L 124.32 71.60 L 126.67 71.54 C 126.55 70.81 126.32 69.34 126.20 68.61 C 124.95 68.34 123.67 68.25 122.41 68.11 Z" />
<path fill="#231f20" opacity="1.00" d=" M 117.56 80.53 C 118.04 80.61 118.99 80.77 119.47 80.85 C 119.43 81.26 119.34 82.09 119.30 82.50 L 120.36 82.39 C 121.26 84.04 122.16 85.69 122.95 87.40 L 123.62 87.58 C 123.63 87.94 123.66 88.66 123.67 89.02 C 124.30 90.72 124.36 92.53 124.45 94.32 L 123.75 94.39 C 123.17 96.44 120.89 96.80 119.30 97.76 C 120.13 97.02 120.96 96.29 121.78 95.55 L 122.67 95.71 C 122.79 93.11 122.96 90.44 121.98 87.96 C 121.40 86.92 120.82 85.89 120.28 84.84 C 119.36 83.41 118.48 81.96 117.56 80.53 Z" />
<path fill="#231f20" opacity="1.00" d=" M 103.29 81.25 C 104.36 81.39 105.42 81.54 106.48 81.70 C 106.24 83.29 105.77 84.85 103.86 84.83 C 103.67 83.64 103.48 82.44 103.29 81.25 Z" />
<path fill="#231f20" opacity="1.00" d=" M 94.52 87.54 C 95.06 87.52 96.13 87.46 96.67 87.44 C 96.15 88.51 95.64 89.59 95.13 90.66 C 97.39 90.70 99.71 90.47 101.90 91.18 C 103.91 91.45 105.96 91.63 107.92 92.22 C 111.57 92.76 115.28 92.71 118.95 93.10 L 117.85 93.41 C 115.64 95.48 112.32 93.48 109.96 95.08 C 109.88 95.95 110.13 96.74 110.71 97.47 C 110.13 97.49 108.98 97.54 108.41 97.56 L 108.58 96.47 C 107.13 96.41 105.69 96.35 104.24 96.30 C 104.25 96.14 104.26 95.83 104.27 95.67 C 105.18 95.67 107.01 95.67 107.92 95.67 L 108.19 94.97 C 107.80 93.49 106.73 92.83 104.99 93.00 C 102.05 92.48 99.16 91.69 96.29 90.85 L 96.33 92.33 C 95.89 92.35 95.00 92.39 94.55 92.41 C 94.52 90.79 94.51 89.17 94.52 87.54 Z" />
<path fill="#231f20" opacity="1.00" d=" M 175.95 92.98 C 174.25 92.05 173.32 90.38 174.50 88.61 C 176.42 90.52 178.39 92.38 180.51 94.08 C 180.42 94.80 180.25 96.22 180.17 96.93 C 179.88 97.09 179.31 97.40 179.02 97.56 C 178.54 95.69 177.60 94.03 175.95 92.98 Z" />
<path fill="#231f20" opacity="1.00" d=" M 181.37 97.33 C 181.68 95.67 181.09 92.91 182.99 92.11 C 184.70 93.16 183.11 95.94 183.44 97.57 C 182.92 97.51 181.89 97.39 181.37 97.33 Z" />
<path fill="#231f20" opacity="1.00" d=" M 185.21 93.73 C 185.85 93.56 187.14 93.23 187.78 93.07 C 187.66 94.44 187.52 95.82 187.38 97.20 L 187.29 98.10 L 186.81 97.11 C 186.41 96.27 185.61 94.58 185.21 93.73 Z" />
<path fill="#231f20" opacity="1.00" d=" M 190.30 92.94 C 190.91 93.05 192.13 93.26 192.75 93.37 C 192.58 94.31 192.24 96.19 192.07 97.13 C 191.68 97.25 190.91 97.48 190.52 97.60 C 190.44 96.05 190.36 94.49 190.30 92.94 Z" />
<path fill="#231f20" opacity="1.00" d=" M 193.24 93.31 C 194.38 93.08 195.51 92.86 196.65 92.63 L 196.63 93.69 C 196.61 94.85 196.63 96.00 196.68 97.16 C 196.13 97.02 195.03 96.74 194.48 96.60 C 194.17 95.77 193.55 94.13 193.24 93.31 Z" />
<path fill="#231f20" opacity="1.00" d=" M 201.90 97.08 C 200.77 98.95 198.77 93.59 200.22 92.82 C 201.84 93.47 201.98 95.57 201.90 97.08 Z" />
<path fill="#231f20" opacity="1.00" d=" M 15.89 122.90 C 18.98 118.38 25.03 118.24 29.95 118.26 C 33.33 118.45 37.15 117.57 40.06 119.79 C 33.90 121.10 27.50 119.49 21.36 120.81 C 17.70 121.63 17.20 125.66 16.28 128.66 L 15.44 128.52 C 15.57 126.65 15.47 124.74 15.89 122.90 Z" />
<path fill="#231f20" opacity="1.00" d=" M 151.62 119.97 C 158.78 117.47 164.91 122.35 170.66 125.77 C 177.78 130.31 187.02 124.84 194.05 129.59 C 199.36 133.27 204.51 138.54 204.91 145.35 C 205.86 154.39 204.88 163.98 209.40 172.26 C 208.91 172.24 207.93 172.21 207.44 172.19 L 207.03 172.10 C 201.61 163.32 203.97 152.64 203.54 142.91 C 201.12 137.34 196.84 132.34 190.80 130.65 C 185.07 128.04 178.77 128.40 172.64 128.43 C 166.32 124.10 158.51 123.04 151.62 119.97 Z" />
<path fill="#231f20" opacity="1.00" d=" M 7.38 169.11 C 7.73 157.12 9.29 144.84 14.80 134.02 C 14.35 143.51 11.18 152.60 10.04 162.00 C 7.60 169.59 7.63 177.63 6.42 185.45 C 3.43 188.25 1.79 192.03 0.00 195.63 L 0.00 191.36 C 5.26 185.22 6.61 176.89 7.38 169.11 Z" />
<path fill="#231f20" opacity="1.00" d=" M 189.79 159.50 C 190.20 159.49 191.01 159.47 191.42 159.46 C 191.93 173.96 190.50 188.46 191.19 202.96 C 191.31 205.07 191.76 207.13 192.28 209.17 C 191.87 210.10 191.47 211.03 191.07 211.97 C 190.35 211.97 189.63 211.97 188.92 211.98 C 188.88 194.50 187.02 176.85 189.79 159.50 Z" />
</g>
<g id="#fefefeff">
<path fill="#fefefe" opacity="1.00" d=" M 117.02 10.20 C 119.83 9.16 123.06 9.04 125.86 10.17 C 127.82 11.33 129.89 12.30 132.07 12.98 C 132.56 13.16 133.55 13.53 134.05 13.72 C 137.10 20.15 143.53 23.83 148.26 28.87 C 150.41 31.23 152.09 33.95 153.43 36.83 C 153.92 43.90 154.48 51.23 152.20 58.07 C 151.31 61.59 149.64 64.82 148.19 68.12 C 147.26 70.03 144.70 71.52 145.12 73.82 C 145.47 74.07 146.16 74.58 146.51 74.83 C 145.94 76.51 145.41 78.20 144.87 79.89 C 144.02 81.02 144.11 83.99 142.07 82.99 C 140.57 81.31 141.63 79.07 141.75 77.11 C 142.61 76.32 143.95 75.70 143.98 74.36 C 142.56 75.26 141.03 75.76 139.33 75.77 C 139.55 78.42 140.32 80.97 140.97 83.54 C 140.10 83.55 138.37 83.55 137.51 83.55 C 137.57 84.09 137.69 85.16 137.75 85.70 C 137.92 85.69 138.24 85.67 138.41 85.66 L 138.78 84.39 C 139.35 84.51 140.51 84.76 141.08 84.88 L 142.16 85.24 C 139.63 87.91 136.55 90.14 132.89 90.93 C 131.00 93.81 130.10 97.16 129.17 100.43 C 122.90 100.90 116.62 101.50 110.44 102.69 C 110.45 105.63 110.12 108.55 109.31 111.38 L 110.40 111.53 C 110.33 114.22 110.34 116.92 110.44 119.61 C 108.41 120.89 106.47 122.67 103.93 122.66 C 99.90 123.31 96.56 120.61 93.19 118.87 C 89.68 116.68 85.71 114.66 83.47 111.05 C 82.77 107.32 83.25 103.48 83.33 99.72 C 87.71 103.36 91.67 107.75 97.12 109.82 C 98.56 110.27 100.04 110.54 101.53 110.76 L 101.57 111.43 C 103.88 111.37 106.23 111.42 108.48 110.81 C 105.10 110.39 101.78 109.56 98.38 109.31 L 98.53 108.71 C 93.59 108.64 89.48 105.16 86.45 101.56 C 80.64 94.38 80.25 84.61 80.66 75.80 C 78.66 75.52 76.68 75.17 74.75 74.60 C 74.47 73.08 74.18 71.56 73.79 70.07 C 73.31 65.60 73.33 61.06 74.55 56.70 C 75.64 55.24 77.04 53.97 79.02 54.47 C 79.38 56.60 79.96 58.68 80.63 60.73 C 81.07 60.69 81.93 60.62 82.37 60.58 C 83.31 59.78 84.27 58.99 85.24 58.21 C 86.63 56.44 87.78 54.51 88.80 52.50 C 89.50 50.95 90.16 49.38 90.65 47.76 C 91.30 45.77 92.00 43.79 92.80 41.85 C 93.21 40.41 93.48 38.93 93.76 37.45 L 94.69 37.43 C 94.60 36.97 94.42 36.06 94.33 35.61 L 95.60 35.37 C 95.57 34.98 95.51 34.20 95.48 33.81 C 97.11 31.94 98.84 30.15 100.67 28.48 C 103.82 28.22 107.04 27.91 110.15 28.65 C 114.42 30.62 117.60 34.30 121.83 36.33 C 125.58 38.15 129.98 37.97 133.98 37.23 C 129.26 36.20 124.18 35.65 120.04 32.92 C 116.77 30.74 113.52 28.51 109.96 26.81 C 107.03 26.32 104.05 26.42 101.11 26.82 C 98.02 28.42 95.65 31.00 94.06 34.07 C 93.14 36.78 92.16 39.46 91.17 42.14 C 90.87 43.19 90.59 44.24 90.33 45.30 C 89.96 46.73 89.60 48.17 89.28 49.61 L 88.31 49.59 C 88.41 50.06 88.61 51.00 88.71 51.47 L 87.82 51.65 C 87.38 52.98 86.90 54.28 86.43 55.59 L 85.37 55.38 L 85.60 56.60 L 84.81 56.60 C 84.45 58.11 83.51 58.76 81.99 58.53 C 79.93 55.84 78.11 52.94 76.81 49.80 C 76.12 47.24 76.51 44.55 76.63 41.95 C 76.91 41.41 77.47 40.35 77.75 39.82 C 79.49 37.55 81.42 35.45 83.35 33.34 C 84.83 30.78 86.71 28.10 86.39 24.99 C 86.51 23.01 85.63 20.84 86.64 19.00 C 87.66 18.19 88.76 17.48 89.86 16.77 C 90.37 16.52 91.39 16.02 91.90 15.78 C 94.27 15.09 96.67 14.50 99.11 14.11 C 104.27 13.39 109.37 12.32 114.47 11.27 L 114.52 10.60 C 115.15 10.50 116.40 10.30 117.02 10.20 M 138.24 36.15 C 139.31 37.48 140.94 38.45 141.71 40.02 C 142.07 44.08 141.65 48.15 141.18 52.18 C 140.15 56.19 140.23 60.38 140.60 64.47 C 141.29 62.00 141.45 59.43 141.72 56.89 C 143.32 51.10 144.32 44.99 143.49 39.00 C 142.89 36.64 140.40 36.14 138.24 36.15 M 101.90 43.20 C 102.84 43.96 104.71 45.46 105.65 46.22 C 103.86 46.28 102.08 46.37 100.31 46.50 C 103.12 47.90 106.21 48.62 109.07 49.91 C 109.98 50.23 110.90 50.54 111.83 50.84 C 111.79 50.58 111.72 50.07 111.68 49.81 C 111.15 49.47 110.10 48.78 109.57 48.44 C 110.59 48.41 112.63 48.36 113.66 48.33 C 110.48 45.33 106.33 43.31 101.90 43.20 M 123.67 48.49 C 124.91 49.22 127.08 49.11 127.18 50.97 C 126.15 52.52 123.30 51.11 121.66 51.66 C 123.78 52.61 126.00 53.35 128.23 54.03 C 126.90 54.27 125.56 54.47 124.23 54.67 L 124.34 56.28 C 127.04 56.38 129.75 56.49 132.46 56.56 L 132.39 55.34 L 134.23 55.21 C 133.19 52.92 129.73 53.28 128.93 51.10 C 130.65 50.55 132.43 50.42 134.27 50.72 C 133.25 50.00 132.23 49.30 131.20 48.60 C 128.69 48.48 126.18 48.40 123.67 48.49 M 92.20 54.40 C 93.69 53.37 95.18 52.31 96.87 51.62 C 101.80 50.54 106.35 53.42 110.41 55.82 C 110.41 55.30 110.42 54.25 110.42 53.73 C 111.05 54.41 112.33 55.77 112.97 56.44 C 113.44 56.42 114.39 56.37 114.87 56.34 C 114.52 56.12 113.82 55.68 113.47 55.46 C 112.88 53.76 112.37 52.04 112.02 50.28 C 111.83 51.25 111.47 53.20 111.28 54.17 C 107.19 51.24 102.34 48.27 97.07 49.49 C 94.58 50.03 93.48 52.48 92.20 54.40 M 123.65 59.65 C 123.60 60.12 123.50 61.06 123.45 61.53 C 126.98 61.38 130.53 61.24 134.07 61.36 C 134.57 62.77 135.13 64.17 135.69 65.57 C 136.32 65.61 137.59 65.70 138.22 65.75 C 137.13 63.24 135.60 60.96 134.04 58.73 C 130.55 58.65 127.09 59.14 123.65 59.65 M 100.37 59.36 C 100.39 60.72 100.42 63.44 100.43 64.80 C 102.58 65.64 104.85 65.35 106.90 64.34 C 106.83 63.72 106.71 62.48 106.65 61.86 C 106.03 61.56 104.77 60.95 104.15 60.64 C 103.20 60.32 101.32 59.68 100.37 59.36 M 114.29 71.31 C 114.74 71.36 115.64 71.46 116.09 71.52 C 116.29 69.72 117.03 68.13 118.34 66.87 C 118.37 66.38 118.42 65.40 118.45 64.91 C 116.12 66.33 114.88 68.71 114.29 71.31 M 122.82 66.57 C 121.80 67.45 120.79 68.33 119.78 69.21 C 120.09 69.32 120.72 69.55 121.03 69.67 C 122.05 70.91 123.46 71.65 124.85 72.39 C 127.12 71.87 129.41 71.50 131.71 71.15 C 131.91 66.54 126.16 66.19 122.82 66.57 M 117.56 80.53 C 118.48 81.96 119.36 83.41 120.28 84.84 C 120.82 85.89 121.40 86.92 121.98 87.96 C 122.96 90.44 122.79 93.11 122.67 95.71 L 121.78 95.55 C 120.96 96.29 120.13 97.02 119.30 97.76 C 120.89 96.80 123.17 96.44 123.75 94.39 L 124.45 94.32 C 124.36 92.53 124.30 90.72 123.67 89.02 C 123.66 88.66 123.63 87.94 123.62 87.58 L 122.95 87.40 C 122.16 85.69 121.26 84.04 120.36 82.39 L 119.30 82.50 C 119.34 82.09 119.43 81.26 119.47 80.85 C 118.99 80.77 118.04 80.61 117.56 80.53 M 103.29 81.25 C 103.48 82.44 103.67 83.64 103.86 84.83 C 105.77 84.85 106.24 83.29 106.48 81.70 C 105.42 81.54 104.36 81.39 103.29 81.25 M 94.52 87.54 C 94.51 89.17 94.52 90.79 94.55 92.41 C 95.00 92.39 95.89 92.35 96.33 92.33 L 96.29 90.85 C 99.16 91.69 102.05 92.48 104.99 93.00 C 106.73 92.83 107.80 93.49 108.19 94.97 L 107.92 95.67 C 107.01 95.67 105.18 95.67 104.27 95.67 C 104.26 95.83 104.25 96.14 104.24 96.30 C 105.69 96.35 107.13 96.41 108.58 96.47 L 108.41 97.56 C 108.98 97.54 110.13 97.49 110.71 97.47 C 110.13 96.74 109.88 95.95 109.96 95.08 C 112.32 93.48 115.64 95.48 117.85 93.41 L 118.95 93.10 C 115.28 92.71 111.57 92.76 107.92 92.22 C 105.96 91.63 103.91 91.45 101.90 91.18 C 99.71 90.47 97.39 90.70 95.13 90.66 C 95.64 89.59 96.15 88.51 96.67 87.44 C 96.13 87.46 95.06 87.52 94.52 87.54 Z" />
<path fill="#fefefe" opacity="1.00" d=" M 122.41 68.11 C 123.67 68.25 124.95 68.34 126.20 68.61 C 126.32 69.34 126.55 70.81 126.67 71.54 L 124.32 71.60 L 124.43 70.17 C 123.92 70.32 122.91 70.61 122.41 70.76 C 122.41 70.10 122.41 68.77 122.41 68.11 Z" />
<path fill="#fefefe" opacity="1.00" d=" M 174.50 88.61 C 176.11 88.52 177.72 88.43 179.34 88.36 C 179.54 89.22 179.94 90.95 180.15 91.81 C 180.72 91.49 181.86 90.84 182.43 90.51 C 183.86 89.89 184.53 91.81 185.52 92.45 C 189.11 92.62 192.70 92.80 196.28 92.34 C 197.44 92.36 198.61 92.35 199.78 92.33 C 200.97 92.38 202.15 92.47 203.34 92.58 C 204.08 92.21 204.81 91.83 205.55 91.46 C 205.05 91.92 204.56 92.39 204.07 92.86 C 203.59 93.91 203.06 94.92 202.48 95.92 C 203.38 98.58 200.55 102.15 197.74 100.97 L 199.43 100.87 C 200.28 98.31 199.51 95.75 199.14 93.19 L 196.63 93.69 L 196.65 92.63 C 195.51 92.86 194.38 93.08 193.24 93.31 C 193.55 94.13 194.17 95.77 194.48 96.60 C 195.03 96.74 196.13 97.02 196.68 97.16 C 195.17 97.65 193.60 97.38 192.07 97.13 C 192.24 96.19 192.58 94.31 192.75 93.37 C 192.13 93.26 190.91 93.05 190.30 92.94 C 190.36 94.49 190.44 96.05 190.52 97.60 C 189.73 97.50 188.17 97.30 187.38 97.20 C 187.52 95.82 187.66 94.44 187.78 93.07 C 187.14 93.23 185.85 93.56 185.21 93.73 C 185.61 94.58 186.41 96.27 186.81 97.11 C 185.96 97.23 184.28 97.46 183.44 97.57 C 183.11 95.94 184.70 93.16 182.99 92.11 C 181.09 92.91 181.68 95.67 181.37 97.33 C 181.07 97.23 180.47 97.03 180.17 96.93 C 180.25 96.22 180.42 94.80 180.51 94.08 C 178.39 92.38 176.42 90.52 174.50 88.61 M 201.90 97.08 C 201.98 95.57 201.84 93.47 200.22 92.82 C 198.77 93.59 200.77 98.95 201.90 97.08 Z" />
<path fill="#fefefe" opacity="1.00" d=" M 147.46 93.61 C 147.38 91.86 147.33 90.11 147.28 88.35 L 149.59 88.40 C 150.26 91.14 150.60 93.94 150.76 96.75 C 149.37 96.69 147.99 96.63 146.60 96.57 C 146.59 95.78 146.55 94.20 146.53 93.41 L 147.46 93.61 Z" />
<path fill="#fefefe" opacity="1.00" d=" M 158.89 96.51 C 157.22 96.12 157.28 93.24 158.86 92.76 C 160.27 93.23 160.25 95.98 158.89 96.51 Z" />
<path fill="#fefefe" opacity="1.00" d=" M 162.86 93.06 C 163.01 93.03 163.31 92.96 163.46 92.92 C 163.57 94.22 163.68 95.52 163.77 96.82 C 163.20 96.77 162.06 96.67 161.49 96.62 C 161.51 95.81 161.55 94.19 161.57 93.38 L 162.86 93.06 Z" />
<path fill="#fefefe" opacity="1.00" d=" M 165.46 93.31 C 166.09 93.33 167.35 93.37 167.98 93.39 C 168.22 95.26 167.86 97.22 165.69 97.57 C 165.63 96.50 165.52 94.37 165.46 93.31 Z" />
<path fill="#fefefe" opacity="1.00" d=" M 175.95 92.98 C 177.60 94.03 178.54 95.69 179.02 97.56 C 177.89 97.50 175.62 97.39 174.49 97.33 L 174.50 95.90 C 175.08 94.98 175.57 94.01 175.95 92.98 Z" />
<path fill="#fefefe" opacity="1.00" d=" M 80.28 102.23 C 80.84 102.28 81.96 102.37 82.52 102.42 C 82.53 103.51 82.54 105.69 82.54 106.78 L 81.29 106.29 C 81.29 109.15 81.52 112.22 83.80 114.27 C 88.80 119.24 95.34 123.51 102.60 123.69 L 102.55 124.62 C 105.41 124.67 108.06 123.68 110.47 122.20 C 111.12 124.21 111.53 126.29 111.69 128.40 C 105.30 129.78 100.34 123.13 93.93 125.57 C 87.88 129.16 87.59 137.50 82.37 141.67 C 83.31 128.42 77.76 115.43 80.28 102.23 Z" />
<path fill="#fefefe" opacity="1.00" d=" M 111.65 104.59 C 118.20 102.52 125.21 103.35 131.98 103.13 C 137.13 103.50 142.45 102.73 147.47 104.09 C 147.37 107.22 147.35 110.35 147.39 113.48 L 146.72 113.58 C 146.48 115.56 146.81 118.56 144.33 119.24 C 136.85 119.48 129.34 119.45 121.85 119.20 C 118.49 118.58 115.06 118.69 111.66 118.43 C 111.68 113.82 111.72 109.21 111.65 104.59 Z" />
<path fill="#fefefe" opacity="1.00" d=" M 70.21 117.23 C 71.40 113.60 73.14 109.50 77.03 108.11 C 78.02 112.71 79.58 117.27 79.41 122.04 C 79.68 132.03 79.35 142.02 79.48 152.02 C 79.43 153.87 79.90 155.67 80.51 157.40 C 77.91 159.57 75.05 161.40 72.17 163.17 C 68.91 165.02 65.57 166.70 62.14 168.21 C 59.65 169.16 57.19 170.17 54.69 171.07 C 54.62 167.20 53.28 163.57 52.13 159.93 C 51.82 158.89 51.51 157.84 51.22 156.80 C 50.74 155.58 50.27 154.37 49.78 153.17 C 48.54 148.54 48.10 143.71 48.75 138.95 C 49.15 137.78 49.52 136.62 49.88 135.44 C 51.96 135.92 54.04 136.41 56.11 136.95 C 58.60 137.67 61.21 137.60 63.78 137.52 C 63.92 133.90 60.53 131.88 58.12 129.83 C 59.23 123.62 66.18 121.33 70.21 117.23 Z" />
<path fill="#fefefe" opacity="1.00" d=" M 43.78 119.44 C 52.30 116.01 61.07 112.92 70.17 111.46 C 68.45 119.39 59.28 121.69 55.37 128.25 C 57.39 131.00 59.71 133.52 61.66 136.33 C 60.79 136.30 59.06 136.25 58.19 136.23 C 55.53 135.00 52.74 134.08 49.89 133.39 C 45.25 139.28 45.57 147.35 48.23 154.02 C 50.18 159.01 51.65 164.17 53.57 169.17 C 53.29 170.23 52.95 171.28 52.56 172.31 C 48.70 174.32 44.56 175.76 40.39 176.97 C 40.33 170.88 40.66 164.59 38.19 158.86 C 37.78 158.73 36.96 158.49 36.55 158.37 C 37.51 164.51 38.94 170.83 37.99 177.03 C 31.58 181.81 22.68 182.98 17.63 189.66 C 31.97 181.59 47.56 176.13 62.75 169.92 C 60.04 174.14 58.62 179.04 59.17 184.14 C 61.52 178.31 63.62 172.34 66.84 166.91 C 69.46 165.97 71.99 164.80 74.54 163.67 C 73.27 170.35 72.16 178.43 76.91 184.05 C 79.70 187.53 84.59 187.07 88.53 186.66 C 80.34 196.81 67.83 201.95 56.15 206.90 C 55.30 204.91 53.66 203.13 53.47 200.93 C 54.61 195.75 57.12 190.97 58.08 185.73 C 56.00 188.30 53.52 190.79 52.58 194.06 C 50.89 199.86 51.54 205.98 51.44 211.94 C 34.29 212.00 17.15 211.97 0.00 211.96 L 0.00 195.63 C 1.79 192.03 3.43 188.25 6.42 185.45 C 7.63 177.63 7.60 169.59 10.04 162.00 C 11.18 152.60 14.35 143.51 14.80 134.02 C 14.93 133.75 15.18 133.19 15.31 132.91 C 15.35 131.45 15.38 129.98 15.44 128.52 L 16.28 128.66 C 17.20 125.66 17.70 121.63 21.36 120.81 C 27.50 119.49 33.90 121.10 40.06 119.79 L 38.80 118.50 C 40.41 119.05 42.07 119.36 43.78 119.44 Z" />
<path fill="#fefefe" opacity="1.00" d=" M 148.60 120.69 C 150.01 120.05 151.43 119.45 152.88 118.91 C 152.57 119.18 151.93 119.70 151.62 119.97 C 158.51 123.04 166.32 124.10 172.64 128.43 C 178.77 128.40 185.07 128.04 190.80 130.65 C 196.84 132.34 201.12 137.34 203.54 142.91 C 203.97 152.64 201.61 163.32 207.03 172.10 L 207.44 172.19 C 208.43 173.55 209.32 174.99 210.00 176.54 L 210.00 211.95 C 203.69 212.00 197.38 211.95 191.07 211.97 C 191.47 211.03 191.87 210.10 192.28 209.17 C 191.76 207.13 191.31 205.07 191.19 202.96 C 190.50 188.46 191.93 173.96 191.42 159.46 C 191.01 159.47 190.20 159.49 189.79 159.50 C 187.02 176.85 188.88 194.50 188.92 211.98 C 176.08 211.95 163.23 212.00 150.39 211.94 C 158.31 189.68 167.79 166.83 165.48 142.66 C 162.75 142.44 160.00 142.61 157.37 143.41 C 157.95 141.05 159.42 138.40 158.11 136.03 C 155.78 131.78 151.97 128.64 149.14 124.77 C 148.17 123.64 148.41 122.04 148.60 120.69 Z" />
<path fill="#fefefe" opacity="1.00" d=" M 98.74 134.76 C 109.63 129.20 122.03 124.24 134.40 127.67 C 134.92 129.58 135.41 131.51 135.83 133.45 C 126.94 133.53 117.77 132.87 109.35 136.33 C 120.77 136.50 131.93 139.33 143.33 139.58 C 144.07 141.93 144.60 144.34 144.91 146.79 C 140.58 146.68 136.22 146.60 131.95 145.80 C 126.01 145.18 120.04 146.24 114.43 148.19 C 114.43 148.75 114.45 149.87 114.46 150.43 C 118.10 150.50 121.75 150.38 125.40 150.34 C 125.41 152.49 125.42 154.65 125.42 156.80 C 122.26 156.74 119.11 156.67 115.96 156.69 C 115.82 157.06 115.54 157.80 115.40 158.17 C 118.91 158.18 122.42 158.71 125.40 160.69 C 125.45 162.25 125.50 163.82 125.56 165.39 C 122.73 165.99 119.89 166.50 117.04 166.95 C 116.61 167.38 115.73 168.23 115.29 168.66 C 117.93 168.70 120.57 168.73 123.21 168.84 C 121.52 171.45 118.22 172.87 117.12 175.83 C 120.25 181.20 127.06 181.73 132.64 181.45 C 132.90 191.23 131.56 201.10 132.65 210.82 C 133.61 209.39 134.38 207.80 134.33 206.03 C 134.65 197.71 134.11 189.38 134.45 181.07 C 138.45 179.97 142.12 178.01 145.52 175.67 C 145.13 175.62 144.36 175.54 143.97 175.50 C 141.17 171.75 136.63 169.69 134.19 165.63 C 131.22 161.42 132.26 155.86 132.99 151.10 C 133.13 150.34 133.42 148.84 133.56 148.08 C 137.39 148.36 141.17 149.08 144.99 149.50 C 145.47 148.28 145.97 147.07 146.47 145.87 C 146.17 143.86 145.78 141.86 145.41 139.86 C 144.08 139.04 142.75 138.24 141.42 137.44 C 143.85 133.85 144.94 129.62 146.02 125.49 C 149.56 128.55 153.28 131.40 156.65 134.64 C 157.67 140.27 152.73 143.61 150.09 147.82 C 152.93 147.34 155.56 146.12 158.05 144.72 C 159.85 144.50 161.65 144.31 163.46 144.13 C 164.17 158.97 161.60 173.82 156.78 187.83 C 154.18 195.98 150.49 203.75 148.01 211.94 C 134.32 211.88 120.63 212.03 106.93 211.93 C 107.31 206.82 108.56 201.84 110.19 197.01 C 110.72 188.87 112.07 180.78 111.68 172.60 C 112.59 171.36 113.48 170.10 114.33 168.82 C 105.82 171.37 99.83 178.35 92.95 183.55 C 87.99 184.38 82.89 183.89 77.89 183.64 C 76.73 181.12 75.63 178.57 74.50 176.05 C 74.61 172.59 75.31 169.19 75.65 165.76 C 76.77 162.40 79.84 160.56 82.44 158.47 C 90.10 152.40 96.21 144.29 98.74 134.76 Z" />
<path fill="#fefefe" opacity="1.00" d=" M 91.41 132.42 C 91.89 132.40 92.86 132.36 93.34 132.34 C 94.24 135.16 95.12 138.00 95.73 140.90 C 91.29 146.55 87.19 152.54 81.54 157.11 C 82.30 152.24 80.02 146.56 83.62 142.49 L 84.23 142.44 C 86.42 138.96 88.78 135.58 91.41 132.42 Z" />
<path fill="#fefefe" opacity="1.00" d=" M 127.17 147.57 C 128.93 147.61 130.69 147.65 132.45 147.67 C 132.52 148.68 132.67 150.69 132.74 151.70 L 131.73 151.69 C 132.06 155.73 130.83 160.09 132.52 163.90 C 132.52 164.26 132.52 164.98 132.52 165.34 L 133.21 165.43 C 135.06 168.42 137.55 171.03 140.59 172.84 L 140.48 173.18 C 142.65 173.43 142.97 175.42 142.60 177.19 C 141.10 177.43 139.61 177.68 138.12 177.97 C 137.11 178.42 136.11 178.87 135.11 179.32 C 131.09 179.64 127.01 179.94 123.04 179.07 C 121.67 178.06 120.28 177.08 118.91 176.08 C 122.18 173.11 125.04 169.73 127.16 165.85 C 127.90 163.35 126.79 161.12 125.48 159.06 C 129.00 156.25 127.15 151.37 127.17 147.57 Z" />
<path fill="#fefefe" opacity="1.00" d=" M 69.32 211.92 C 74.08 206.18 79.36 200.84 83.33 194.48 C 83.99 200.39 83.44 206.40 81.22 211.94 C 77.25 211.96 73.28 211.96 69.32 211.92 Z" />
<path fill="#fefefe" opacity="1.00" d=" M 55.14 209.67 C 61.69 206.47 67.87 202.33 75.06 200.65 C 74.08 205.41 70.49 208.72 67.17 211.95 C 62.23 211.96 57.30 211.97 52.36 211.95 C 52.38 209.40 52.42 206.85 52.65 204.31 C 53.68 205.99 54.47 207.81 55.14 209.67 Z" />
</g>
</svg>
