<?xml version="1.0" encoding="UTF-8" ?>
<!DOCTYPE svg PUBLIC "-//W3C//DTD SVG 1.1//EN" "http://www.w3.org/Graphics/SVG/1.1/DTD/svg11.dtd">
<svg width="320pt" height="240pt" viewBox="0 0 320 240" version="1.1" xmlns="http://www.w3.org/2000/svg">
<g id="#fbae4bff">
<path fill="#fbae4b" opacity="1.00" d=" M 0.00 0.00 L 320.00 0.00 L 320.00 240.00 L 0.00 240.00 L 0.00 0.00 M 169.07 72.00 C 168.45 83.35 170.43 94.65 170.09 106.01 C 176.07 106.23 181.99 105.12 187.95 104.80 C 187.96 102.33 187.97 97.40 187.97 94.93 C 183.59 95.11 179.49 97.06 175.06 96.99 C 175.70 89.06 176.69 81.15 176.91 73.20 C 174.36 72.55 171.69 72.09 169.07 72.00 M 84.03 75.00 C 84.87 79.55 80.64 89.55 89.97 86.17 C 89.12 93.42 88.76 100.73 89.03 108.04 C 104.03 110.51 93.99 92.39 96.00 84.12 C 102.55 84.75 109.05 84.87 105.98 76.13 C 98.64 76.00 91.36 74.99 84.03 75.00 M 208.17 75.04 C 205.61 83.89 204.68 93.14 202.71 102.14 C 198.08 94.73 198.82 84.66 196.85 76.20 C 194.33 77.56 186.73 74.64 188.20 78.92 C 190.99 89.03 190.94 99.76 194.33 109.69 C 197.90 111.28 201.89 111.27 205.72 110.89 C 208.66 100.05 210.98 89.06 212.93 78.00 C 213.72 75.31 210.02 75.07 208.17 75.04 M 144.02 76.06 C 145.90 87.25 144.58 98.66 145.06 109.94 C 151.70 110.10 158.35 110.10 165.01 109.93 C 164.97 107.52 164.90 102.69 164.87 100.27 C 162.05 96.64 156.18 101.82 153.17 98.78 C 152.71 95.93 153.06 92.97 153.02 90.12 C 156.19 89.50 162.89 91.89 160.33 86.87 C 161.28 79.85 147.80 88.24 150.15 81.22 C 154.60 78.27 166.32 85.34 166.01 76.07 C 158.68 75.83 151.35 75.95 144.02 76.06 M 109.22 79.12 C 106.65 81.01 108.73 84.74 108.66 87.31 C 111.46 95.32 107.57 107.66 115.06 112.98 C 125.72 117.24 119.86 103.92 124.88 101.05 C 127.19 107.05 126.86 116.84 136.82 112.95 C 138.59 101.69 140.50 90.40 140.99 78.99 C 128.28 76.37 134.07 90.68 133.00 98.02 C 137.18 103.97 131.72 103.98 130.16 101.79 C 129.60 95.57 130.25 89.31 129.95 83.08 C 125.66 82.77 121.35 82.99 117.07 83.03 C 116.65 88.37 117.37 93.69 117.83 99.00 C 119.47 100.86 118.11 105.76 115.22 104.92 C 112.58 96.99 114.75 88.43 113.84 80.27 C 112.99 78.46 110.83 78.95 109.22 79.12 M 228.41 80.60 C 223.98 81.20 219.48 80.86 215.04 81.09 C 215.15 92.38 216.48 103.65 216.06 114.98 C 222.70 115.23 229.41 115.04 235.97 113.82 C 236.06 110.56 235.64 107.29 234.84 104.13 C 231.03 102.93 222.06 106.90 223.95 100.02 C 218.85 90.63 233.88 98.60 231.33 91.89 C 231.85 86.17 223.96 90.46 221.04 88.90 C 218.55 77.90 241.31 94.24 235.99 79.98 C 233.45 79.99 230.92 80.19 228.41 80.60 M 139.06 118.99 C 139.04 129.19 138.53 139.43 139.49 149.61 C 139.95 157.60 153.32 149.32 157.32 149.34 C 159.02 140.37 156.91 130.46 155.75 121.24 C 150.57 118.76 144.66 118.85 139.06 118.99 M 249.06 119.06 C 248.92 130.69 248.93 142.32 249.05 153.95 C 254.36 154.10 259.68 154.10 265.00 153.94 C 264.99 149.71 266.94 141.26 260.02 142.96 C 251.66 146.82 256.35 137.08 255.08 134.20 C 262.13 136.66 262.85 130.88 259.82 127.15 C 256.83 126.67 251.61 128.62 253.03 124.09 C 256.94 123.98 260.86 123.90 264.78 123.84 C 270.20 114.60 253.64 120.47 249.06 119.06 M 39.34 122.29 C 35.69 123.20 34.24 127.60 34.99 131.00 C 33.21 139.57 43.09 142.16 48.14 146.13 C 45.60 151.32 39.33 147.58 35.03 147.03 C 35.03 149.76 35.03 155.22 35.02 157.94 C 41.37 157.84 51.78 160.06 53.98 151.94 C 55.66 142.38 46.44 139.04 39.99 134.88 C 39.10 127.41 49.43 132.50 52.97 134.07 C 52.97 131.60 52.95 126.66 52.94 124.19 C 48.98 121.74 43.82 121.74 39.34 122.29 M 164.34 122.29 C 160.69 123.20 159.24 127.60 159.99 131.00 C 158.36 139.43 167.64 142.36 173.03 146.15 C 170.67 151.54 164.24 147.88 160.04 146.99 C 161.78 149.44 156.70 158.77 162.00 158.03 C 167.73 157.98 176.37 159.69 178.73 152.72 C 181.97 142.76 171.40 138.94 165.10 134.81 C 163.96 127.42 174.55 132.52 177.97 134.07 C 177.97 131.60 177.95 126.66 177.94 124.19 C 173.98 121.74 168.82 121.74 164.34 122.29 M 229.03 122.04 C 228.72 127.56 227.40 134.86 233.96 134.10 C 232.49 140.98 232.93 148.06 233.05 155.05 C 235.28 155.10 237.45 154.52 239.56 153.85 C 238.40 146.01 239.09 138.01 239.05 130.12 C 241.63 129.21 248.07 132.38 247.02 127.99 C 249.44 116.92 234.52 123.77 229.03 122.04 M 84.40 123.50 C 81.06 124.37 76.86 123.80 74.19 126.27 C 72.15 134.93 72.68 144.03 74.20 152.74 C 78.57 157.38 85.97 156.37 91.78 156.90 C 93.64 153.60 92.97 149.63 92.99 146.05 C 88.67 145.55 82.92 145.03 83.72 150.96 C 74.48 150.07 82.64 133.96 80.06 127.99 C 89.80 124.92 78.90 140.30 88.60 135.50 C 96.27 135.92 93.34 117.26 84.40 123.50 M 116.01 123.00 C 117.00 134.96 117.18 146.98 117.05 159.00 C 128.22 160.96 118.96 142.82 122.17 136.69 C 127.93 143.02 123.76 160.23 135.86 158.00 C 136.66 146.36 136.76 134.67 137.94 123.06 C 135.33 122.90 132.71 122.89 130.10 123.03 C 130.01 126.85 129.82 134.51 129.73 138.34 C 125.77 131.99 127.08 118.96 116.01 123.00 M 191.07 123.00 C 190.41 134.68 191.38 146.32 192.15 157.97 C 196.77 157.79 201.33 157.03 205.95 156.80 C 205.96 154.33 205.97 149.40 205.97 146.93 C 202.48 146.77 199.42 148.81 195.99 149.08 C 196.68 140.71 198.10 131.72 196.32 123.68 C 195.01 123.51 192.39 123.17 191.07 123.00 M 269.37 123.35 C 268.81 123.56 267.67 123.97 267.11 124.17 C 267.71 135.44 266.91 146.71 267.02 158.00 L 271.88 157.99 C 271.94 155.48 272.05 150.46 272.11 147.95 C 278.41 147.37 275.77 155.79 277.18 159.89 C 280.15 160.22 283.06 159.93 286.06 159.96 C 284.96 154.36 280.83 148.79 283.00 143.00 C 284.74 137.57 283.94 131.72 282.74 126.25 C 279.20 123.18 273.89 122.35 269.37 123.35 M 55.05 125.04 C 54.62 137.04 55.20 149.03 56.12 160.99 C 60.85 159.14 73.34 163.53 71.03 154.99 C 74.88 146.59 64.87 151.58 62.02 149.87 C 62.02 147.44 62.03 142.58 62.03 140.16 C 72.93 143.70 67.69 129.11 60.05 133.84 C 57.49 123.96 75.99 137.44 72.01 125.07 C 66.36 124.79 60.70 124.96 55.05 125.04 M 210.00 126.05 C 211.38 128.87 207.24 136.39 212.63 136.28 C 211.87 144.34 208.96 152.03 207.96 160.00 C 219.57 165.52 210.33 148.19 220.71 153.04 C 219.55 158.59 222.05 165.12 228.82 159.79 C 227.77 148.52 225.39 137.39 224.79 126.07 C 221.09 126.07 213.70 126.05 210.00 126.05 M 99.33 130.30 C 96.75 131.25 93.93 133.32 95.83 136.98 C 95.47 144.90 93.58 153.87 96.78 161.24 C 102.23 164.21 113.71 164.53 114.59 156.63 C 115.69 148.16 114.27 139.61 112.70 131.30 C 109.64 127.92 103.39 130.94 99.33 130.30 Z" />
<path fill="#fbae4b" opacity="1.00" d=" M 148.12 126.17 C 151.57 126.89 156.31 129.15 153.75 133.89 C 152.14 138.44 155.62 149.66 147.06 147.01 C 147.70 140.28 145.38 132.30 148.12 126.17 Z" />
<path fill="#fbae4b" opacity="1.00" d=" M 275.08 128.03 C 281.94 126.26 279.24 136.59 279.87 140.78 C 272.41 146.29 275.16 132.93 275.08 128.03 Z" />
<path fill="#fbae4b" opacity="1.00" d=" M 219.20 133.17 C 223.07 133.69 221.49 141.06 222.82 144.77 C 215.39 149.00 216.57 137.05 219.20 133.17 Z" />
<path fill="#fbae4b" opacity="1.00" d=" M 103.22 138.40 C 111.09 139.69 105.47 151.56 106.93 157.01 C 98.74 160.63 100.06 151.18 100.71 146.99 C 102.38 144.92 98.91 138.66 103.22 138.40 Z" />
</g>
<g id="#671319ff">
<path fill="#671319" opacity="1.00" d=" M 169.07 72.00 C 171.69 72.09 174.36 72.55 176.91 73.20 C 176.69 81.15 175.70 89.06 175.06 96.99 C 179.49 97.06 183.59 95.11 187.97 94.93 C 187.97 97.40 187.96 102.33 187.95 104.80 C 181.99 105.12 176.07 106.23 170.09 106.01 C 170.43 94.65 168.45 83.35 169.07 72.00 Z" />
<path fill="#671319" opacity="1.00" d=" M 84.03 75.00 C 91.36 74.99 98.64 76.00 105.98 76.13 C 109.05 84.87 102.55 84.75 96.00 84.12 C 93.99 92.39 104.03 110.51 89.03 108.04 C 88.76 100.73 89.12 93.42 89.97 86.17 C 80.64 89.55 84.87 79.55 84.03 75.00 Z" />
<path fill="#671319" opacity="1.00" d=" M 208.17 75.04 C 210.02 75.07 213.72 75.31 212.93 78.00 C 210.98 89.06 208.66 100.05 205.72 110.89 C 201.89 111.27 197.90 111.28 194.33 109.69 C 190.94 99.76 190.99 89.03 188.20 78.92 C 186.73 74.64 194.33 77.56 196.85 76.20 C 198.82 84.66 198.08 94.73 202.71 102.14 C 204.68 93.14 205.61 83.89 208.17 75.04 Z" />
<path fill="#671319" opacity="1.00" d=" M 144.02 76.06 C 151.35 75.95 158.68 75.83 166.01 76.07 C 166.32 85.34 154.60 78.27 150.15 81.22 C 147.80 88.24 161.28 79.85 160.33 86.87 C 162.89 91.89 156.19 89.50 153.02 90.12 C 153.06 92.97 152.71 95.93 153.17 98.78 C 156.18 101.82 162.05 96.64 164.87 100.27 C 164.90 102.69 164.97 107.52 165.01 109.93 C 158.35 110.10 151.70 110.10 145.06 109.94 C 144.58 98.66 145.90 87.25 144.02 76.06 Z" />
<path fill="#671319" opacity="1.00" d=" M 109.22 79.12 C 110.83 78.95 112.99 78.46 113.84 80.27 C 114.75 88.43 112.58 96.99 115.22 104.92 C 118.11 105.76 119.47 100.86 117.83 99.00 C 117.37 93.69 116.65 88.37 117.07 83.03 C 121.35 82.99 125.66 82.77 129.95 83.08 C 130.25 89.31 129.60 95.57 130.16 101.79 C 131.72 103.98 137.18 103.97 133.00 98.02 C 134.07 90.68 128.28 76.37 140.99 78.99 C 140.50 90.40 138.59 101.69 136.82 112.95 C 126.86 116.84 127.19 107.05 124.88 101.05 C 119.86 103.92 125.72 117.24 115.06 112.98 C 107.57 107.66 111.46 95.32 108.66 87.31 C 108.73 84.74 106.65 81.01 109.22 79.12 Z" />
<path fill="#671319" opacity="1.00" d=" M 228.41 80.60 C 230.92 80.19 233.45 79.99 235.99 79.98 C 241.31 94.24 218.55 77.90 221.04 88.90 C 223.96 90.46 231.85 86.17 231.33 91.89 C 233.88 98.60 218.85 90.63 223.95 100.02 C 222.06 106.90 231.03 102.93 234.84 104.13 C 235.64 107.29 236.06 110.56 235.97 113.82 C 229.41 115.04 222.70 115.23 216.06 114.98 C 216.48 103.65 215.15 92.38 215.04 81.09 C 219.48 80.86 223.98 81.20 228.41 80.60 Z" />
<path fill="#671319" opacity="1.00" d=" M 139.06 118.99 C 144.66 118.85 150.57 118.76 155.75 121.24 C 156.91 130.46 159.02 140.37 157.32 149.34 C 153.32 149.32 139.95 157.60 139.49 149.61 C 138.53 139.43 139.04 129.19 139.06 118.99 M 148.12 126.17 C 145.38 132.30 147.70 140.28 147.06 147.01 C 155.62 149.66 152.14 138.44 153.75 133.89 C 156.31 129.15 151.57 126.89 148.12 126.17 Z" />
<path fill="#671319" opacity="1.00" d=" M 249.06 119.06 C 253.64 120.47 270.20 114.60 264.78 123.84 C 260.86 123.90 256.94 123.98 253.03 124.09 C 251.61 128.62 256.83 126.67 259.82 127.15 C 262.85 130.88 262.13 136.66 255.08 134.20 C 256.35 137.08 251.66 146.82 260.02 142.96 C 266.94 141.26 264.99 149.71 265.00 153.94 C 259.68 154.10 254.36 154.10 249.05 153.95 C 248.93 142.32 248.92 130.69 249.06 119.06 Z" />
<path fill="#671319" opacity="1.00" d=" M 39.34 122.29 C 43.82 121.74 48.98 121.74 52.94 124.19 C 52.95 126.66 52.97 131.60 52.97 134.07 C 49.43 132.50 39.10 127.41 39.99 134.88 C 46.44 139.04 55.66 142.38 53.98 151.94 C 51.78 160.06 41.37 157.84 35.02 157.94 C 35.03 155.22 35.03 149.76 35.03 147.03 C 39.33 147.58 45.60 151.32 48.14 146.13 C 43.09 142.16 33.21 139.57 34.99 131.00 C 34.24 127.60 35.69 123.20 39.34 122.29 Z" />
<path fill="#671319" opacity="1.00" d=" M 164.34 122.29 C 168.82 121.74 173.98 121.74 177.94 124.19 C 177.95 126.66 177.97 131.60 177.97 134.07 C 174.55 132.52 163.96 127.42 165.10 134.81 C 171.40 138.94 181.97 142.76 178.73 152.72 C 176.37 159.69 167.73 157.98 162.00 158.03 C 156.70 158.77 161.78 149.44 160.04 146.99 C 164.24 147.88 170.67 151.54 173.03 146.15 C 167.64 142.36 158.36 139.43 159.99 131.00 C 159.24 127.60 160.69 123.20 164.34 122.29 Z" />
<path fill="#671319" opacity="1.00" d=" M 229.03 122.04 C 234.52 123.77 249.44 116.92 247.02 127.99 C 248.07 132.38 241.63 129.21 239.05 130.12 C 239.09 138.01 238.40 146.01 239.56 153.85 C 237.45 154.52 235.28 155.10 233.05 155.05 C 232.93 148.06 232.49 140.98 233.96 134.10 C 227.40 134.86 228.72 127.56 229.03 122.04 Z" />
<path fill="#671319" opacity="1.00" d=" M 84.40 123.50 C 93.34 117.26 96.27 135.92 88.60 135.50 C 78.90 140.30 89.80 124.92 80.06 127.99 C 82.64 133.96 74.48 150.07 83.72 150.96 C 82.92 145.03 88.67 145.55 92.99 146.05 C 92.97 149.63 93.64 153.60 91.78 156.90 C 85.97 156.37 78.57 157.38 74.20 152.74 C 72.68 144.03 72.15 134.93 74.19 126.27 C 76.86 123.80 81.06 124.37 84.40 123.50 Z" />
<path fill="#671319" opacity="1.00" d=" M 116.01 123.00 C 127.08 118.96 125.77 131.99 129.73 138.34 C 129.82 134.51 130.01 126.85 130.10 123.03 C 132.71 122.89 135.33 122.90 137.94 123.06 C 136.76 134.67 136.66 146.36 135.86 158.00 C 123.76 160.23 127.93 143.02 122.17 136.69 C 118.96 142.82 128.22 160.96 117.05 159.00 C 117.18 146.98 117.00 134.96 116.01 123.00 Z" />
<path fill="#671319" opacity="1.00" d=" M 191.07 123.00 C 192.39 123.17 195.01 123.51 196.32 123.68 C 198.10 131.72 196.68 140.71 195.99 149.08 C 199.42 148.81 202.48 146.77 205.97 146.93 C 205.97 149.40 205.96 154.33 205.95 156.80 C 201.33 157.03 196.77 157.79 192.15 157.97 C 191.38 146.32 190.41 134.68 191.07 123.00 Z" />
<path fill="#671319" opacity="1.00" d=" M 269.37 123.35 C 273.89 122.35 279.20 123.18 282.74 126.25 C 283.94 131.72 284.74 137.57 283.00 143.00 C 280.83 148.79 284.96 154.36 286.06 159.96 C 283.06 159.93 280.15 160.22 277.18 159.89 C 275.77 155.79 278.41 147.37 272.11 147.95 C 272.05 150.46 271.94 155.48 271.88 157.99 L 267.02 158.00 C 266.91 146.71 267.71 135.44 267.11 124.17 C 267.67 123.97 268.81 123.56 269.37 123.35 M 275.08 128.03 C 275.16 132.93 272.41 146.29 279.87 140.78 C 279.24 136.59 281.94 126.26 275.08 128.03 Z" />
<path fill="#671319" opacity="1.00" d=" M 55.05 125.04 C 60.70 124.96 66.36 124.79 72.01 125.07 C 75.99 137.44 57.49 123.96 60.05 133.84 C 67.69 129.11 72.93 143.70 62.03 140.16 C 62.03 142.58 62.02 147.44 62.02 149.87 C 64.87 151.58 74.88 146.59 71.03 154.99 C 73.34 163.53 60.85 159.14 56.12 160.99 C 55.20 149.03 54.62 137.04 55.05 125.04 Z" />
<path fill="#671319" opacity="1.00" d=" M 210.00 126.05 C 213.70 126.05 221.09 126.07 224.79 126.07 C 225.39 137.39 227.77 148.52 228.82 159.79 C 222.05 165.12 219.55 158.59 220.71 153.04 C 210.33 148.19 219.57 165.52 207.96 160.00 C 208.96 152.03 211.87 144.34 212.63 136.28 C 207.24 136.39 211.38 128.87 210.00 126.05 M 219.20 133.17 C 216.57 137.05 215.39 149.00 222.82 144.77 C 221.49 141.06 223.07 133.69 219.20 133.17 Z" />
<path fill="#671319" opacity="1.00" d=" M 99.33 130.30 C 103.39 130.94 109.64 127.92 112.70 131.30 C 114.27 139.61 115.69 148.16 114.59 156.63 C 113.71 164.53 102.23 164.21 96.78 161.24 C 93.58 153.87 95.47 144.90 95.83 136.98 C 93.93 133.32 96.75 131.25 99.33 130.30 M 103.22 138.40 C 98.91 138.66 102.38 144.92 100.71 146.99 C 100.06 151.18 98.74 160.63 106.93 157.01 C 105.47 151.56 111.09 139.69 103.22 138.40 Z" />
</g>
</svg>
