<?xml version="1.0" encoding="UTF-8" ?>
<!DOCTYPE svg PUBLIC "-//W3C//DTD SVG 1.1//EN" "http://www.w3.org/Graphics/SVG/1.1/DTD/svg11.dtd">
<svg width="210pt" height="220pt" viewBox="0 0 210 220" version="1.1" xmlns="http://www.w3.org/2000/svg">
<g id="#b2b2b2ff">
<path fill="#b2b2b2" opacity="1.00" d=" M 116.36 28.43 C 119.33 28.83 122.04 27.35 124.97 27.31 C 128.31 27.10 131.66 27.18 134.99 27.39 C 133.17 29.36 130.58 30.08 128.27 31.26 C 125.99 33.94 124.81 37.57 124.66 41.07 C 126.12 43.33 128.94 44.03 131.31 44.93 C 139.84 47.45 148.58 44.37 157.15 43.89 C 157.05 44.49 156.86 45.67 156.76 46.26 C 147.21 47.48 137.70 49.24 128.06 49.45 C 127.21 50.93 125.95 52.03 124.44 52.79 C 129.98 52.56 135.44 51.31 140.97 50.83 C 147.42 50.01 153.97 49.86 160.23 47.96 C 160.24 48.64 160.24 50.00 160.24 50.68 C 151.28 52.84 142.03 52.71 132.96 54.13 C 126.91 55.18 120.49 53.56 114.86 56.68 C 120.90 56.50 126.92 55.89 132.96 56.09 C 138.03 56.28 142.98 54.87 148.04 54.91 C 153.05 54.91 158.06 54.92 163.08 54.85 C 163.07 55.39 163.06 56.46 163.06 57.00 C 158.73 57.03 154.40 56.97 150.07 57.01 C 144.67 57.03 139.44 58.74 134.02 58.57 C 130.92 58.78 127.50 58.23 124.65 59.70 C 122.43 61.87 119.85 64.60 120.02 67.93 C 121.19 71.56 125.30 73.43 126.24 77.20 C 126.24 79.92 125.75 82.68 124.80 85.23 C 122.73 88.97 118.09 91.14 117.87 95.88 C 120.58 92.91 122.87 89.54 126.06 87.04 C 124.35 89.82 122.41 92.46 120.24 94.90 C 120.36 96.58 120.37 98.29 120.78 99.93 C 121.84 101.01 123.05 101.92 124.23 102.86 C 124.40 103.34 124.74 104.31 124.91 104.79 C 123.09 102.85 120.93 101.25 118.45 100.25 C 118.85 99.46 119.26 98.68 119.68 97.90 C 118.93 97.15 118.17 96.40 117.42 95.65 C 117.37 97.41 117.31 99.17 117.25 100.93 C 116.48 101.13 114.94 101.54 114.17 101.75 C 114.27 102.95 115.29 103.81 115.86 104.82 C 116.21 104.34 116.91 103.39 117.26 102.92 C 118.18 100.71 120.40 102.63 121.52 103.50 C 124.30 105.57 125.22 110.00 129.23 110.17 C 128.44 108.63 127.62 107.11 126.78 105.59 C 128.37 102.68 131.08 100.34 134.62 101.56 C 134.12 103.98 132.51 105.52 130.24 106.32 C 130.57 107.22 130.89 108.13 131.20 109.04 C 130.77 109.32 129.91 109.88 129.48 110.16 C 132.17 110.88 134.56 112.54 137.40 112.71 C 138.26 113.26 139.11 113.81 139.98 114.35 C 141.98 114.41 143.98 114.45 145.99 114.46 L 145.01 112.84 C 146.43 112.91 147.85 112.96 149.27 113.01 C 148.52 111.53 147.73 110.07 146.96 108.60 C 143.66 109.15 140.53 108.02 137.81 106.21 C 135.76 106.72 132.54 109.01 131.44 105.86 C 132.93 105.18 134.42 104.50 135.92 103.84 C 135.88 102.73 135.85 101.63 135.82 100.53 C 133.68 99.56 131.58 98.33 131.46 95.70 C 133.76 96.57 136.19 97.37 138.09 99.01 C 138.41 100.30 138.48 101.64 138.64 102.96 C 140.41 104.49 142.33 106.59 144.95 105.99 C 150.48 105.61 156.99 103.17 161.83 107.01 C 164.38 108.99 167.50 111.40 167.36 114.99 C 167.61 123.29 167.34 131.66 165.92 139.84 C 165.34 140.06 164.18 140.51 163.60 140.73 C 164.57 131.89 165.56 122.99 164.83 114.09 C 162.66 107.41 154.21 105.58 148.31 108.37 C 152.88 110.93 155.38 115.96 155.13 121.14 C 152.64 122.46 152.40 117.63 151.41 116.02 C 148.63 115.45 145.79 115.31 142.96 115.41 C 144.94 115.53 146.93 115.62 148.93 115.71 C 149.24 116.36 149.88 117.68 150.20 118.33 C 146.67 118.24 142.80 118.35 140.17 115.58 C 136.62 116.22 133.18 117.32 129.91 118.81 C 131.70 118.33 133.49 117.67 135.38 117.79 C 134.85 119.05 133.85 119.99 133.13 121.13 C 129.77 120.93 126.39 121.22 123.05 120.86 C 119.43 120.07 118.74 115.90 117.04 113.21 C 116.58 113.77 116.13 114.33 115.68 114.89 C 115.93 115.39 116.45 116.40 116.70 116.90 C 113.75 117.15 109.62 120.01 108.05 116.07 C 106.47 116.80 104.91 117.54 103.35 118.28 C 103.22 119.75 103.08 121.22 102.95 122.70 C 103.97 122.56 105.00 122.43 106.02 122.30 C 105.74 124.74 105.10 127.11 104.03 129.32 C 100.92 129.90 98.35 128.33 97.51 125.28 C 97.54 124.44 97.61 122.75 97.65 121.90 C 99.75 122.77 100.30 125.00 101.33 126.79 C 102.89 127.26 102.74 125.44 103.16 124.46 C 99.29 122.74 100.26 118.08 102.04 115.13 C 103.11 113.66 104.38 112.37 105.57 111.00 C 106.95 109.31 108.46 107.60 110.81 107.36 C 110.13 110.04 108.18 112.01 106.21 113.80 C 111.81 111.64 117.80 110.65 123.27 108.13 C 121.53 106.99 119.59 107.97 117.81 108.45 C 116.23 107.46 114.67 106.42 113.11 105.39 C 108.46 106.82 103.67 107.61 98.88 108.40 C 97.20 108.60 95.39 109.51 94.83 111.22 C 93.71 115.78 95.71 120.38 95.02 124.97 C 94.09 131.24 94.32 137.69 95.97 143.83 C 95.04 143.59 94.11 143.35 93.18 143.12 C 91.88 138.23 92.13 132.91 89.63 128.39 C 88.10 125.41 86.66 122.02 83.44 120.51 C 83.26 115.13 83.48 109.74 83.31 104.36 L 84.35 104.42 C 84.24 92.53 84.14 80.63 84.66 68.75 C 86.18 66.23 85.32 63.17 85.41 60.40 L 86.46 60.50 C 86.44 58.80 86.45 57.10 86.46 55.41 C 86.97 55.44 88.01 55.50 88.52 55.53 C 88.51 54.29 88.51 53.06 88.50 51.82 C 89.82 50.67 92.47 50.45 92.55 48.32 L 93.25 48.46 C 94.13 47.26 94.68 45.85 95.69 44.74 C 95.91 44.38 96.34 43.66 96.56 43.30 L 97.49 43.48 L 97.46 42.66 C 97.75 42.36 98.33 41.75 98.62 41.45 L 99.46 41.45 L 99.40 40.39 L 100.49 40.48 L 100.45 39.37 C 102.13 39.77 102.84 39.10 102.57 37.36 C 103.03 37.43 103.95 37.56 104.41 37.63 L 104.39 36.55 C 106.02 36.69 106.76 35.93 106.62 34.28 C 107.09 34.40 108.05 34.63 108.52 34.75 L 108.37 33.63 C 109.32 33.26 110.25 32.85 111.18 32.41 C 111.51 32.12 112.19 31.54 112.53 31.25 L 112.42 30.59 C 113.62 30.53 114.73 30.23 115.76 29.67 L 116.59 29.57 L 116.36 28.43 M 114.87 66.43 C 114.72 67.73 114.55 69.03 114.37 70.33 C 115.18 71.88 116.28 73.53 115.37 75.30 C 113.82 74.34 112.84 73.02 112.43 71.36 C 109.58 72.20 106.60 71.60 103.71 71.41 C 100.78 69.58 97.12 70.76 93.88 70.87 C 93.67 71.32 93.25 72.23 93.03 72.68 C 94.91 72.57 96.78 72.48 98.65 72.38 C 98.62 72.91 98.57 73.99 98.54 74.52 C 103.77 74.58 109.00 74.50 114.22 74.62 C 114.50 75.14 115.05 76.19 115.33 76.72 C 115.89 75.84 116.40 74.93 116.93 74.04 C 117.39 74.50 118.29 75.41 118.75 75.87 C 117.11 72.94 114.58 70.05 115.28 66.45 C 115.18 66.44 114.97 66.44 114.87 66.43 M 96.65 77.42 C 96.39 79.46 96.45 81.93 94.33 83.02 C 94.38 83.65 94.46 84.92 94.50 85.55 C 96.40 87.13 98.22 89.83 101.02 89.02 C 98.44 88.67 95.89 87.13 95.94 84.19 C 100.53 84.52 105.25 83.85 109.74 84.45 C 110.89 86.95 106.88 86.71 105.38 87.39 C 104.96 88.88 105.83 90.06 107.22 90.56 C 107.51 88.91 108.96 86.63 110.85 88.06 C 112.25 90.46 109.28 92.50 109.20 94.91 C 107.04 97.14 104.33 99.60 100.95 98.74 C 94.68 97.23 88.83 91.68 88.92 84.92 C 87.66 90.32 92.89 95.81 97.62 98.23 C 99.77 99.05 102.01 99.53 104.32 99.40 C 107.89 97.45 110.90 94.43 112.50 90.65 C 113.23 88.34 111.52 86.33 111.20 84.16 C 111.73 83.93 112.78 83.46 113.31 83.23 C 113.28 81.58 113.27 79.92 113.27 78.27 C 113.10 78.25 112.74 78.20 112.56 78.17 L 112.61 79.06 C 111.19 79.96 105.52 81.23 107.36 78.12 C 108.05 77.93 109.43 77.54 110.12 77.35 C 106.59 77.89 102.87 76.93 99.47 78.14 C 99.21 77.94 98.69 77.55 98.43 77.36 C 97.99 77.38 97.10 77.41 96.65 77.42 M 123.35 118.21 C 123.55 119.40 124.28 119.64 125.52 118.92 L 125.52 118.10 C 124.98 118.13 123.89 118.19 123.35 118.21 Z" />
<path fill="#b2b2b2" opacity="1.00" d=" M 149.00 64.45 C 151.64 63.73 154.12 62.22 156.91 62.16 C 161.13 61.80 165.06 63.72 168.81 65.38 C 168.98 65.97 169.31 67.13 169.48 67.72 C 164.90 67.19 160.93 63.66 156.13 64.63 C 153.70 65.19 150.81 65.81 149.39 68.08 C 149.92 68.50 150.97 69.33 151.49 69.74 C 151.11 70.14 150.35 70.94 149.97 71.34 C 145.51 71.58 141.01 71.87 136.56 71.32 C 135.84 70.69 135.18 70.01 134.57 69.28 C 134.42 69.94 134.11 71.27 133.96 71.93 C 133.54 72.12 132.71 72.50 132.30 72.69 C 130.92 70.66 130.00 68.39 129.08 66.14 C 130.98 66.03 132.79 66.55 134.43 67.49 C 139.30 66.54 144.28 66.07 149.00 64.45 Z" />
<path fill="#b2b2b2" opacity="1.00" d=" M 135.11 73.82 C 135.65 73.63 136.74 73.26 137.28 73.07 C 138.06 77.32 136.14 82.46 138.82 86.10 C 137.97 86.81 137.06 87.44 136.17 88.09 C 134.14 87.19 131.46 86.96 130.22 84.89 C 129.42 82.66 130.50 80.41 131.27 78.35 C 132.75 77.38 134.96 76.57 134.33 74.31 L 135.11 73.82 Z" />
<path fill="#b2b2b2" opacity="1.00" d=" M 138.16 73.42 C 142.24 73.38 146.55 72.65 150.39 74.45 C 153.07 75.66 156.06 75.28 158.91 75.21 C 160.50 76.71 162.18 78.12 163.80 79.59 C 165.04 79.09 166.31 78.63 167.56 78.14 C 167.46 80.05 167.82 81.91 168.45 83.71 C 167.00 83.50 165.54 83.30 164.09 83.11 C 160.95 84.62 157.50 85.01 154.09 85.40 C 152.46 85.67 153.64 87.29 153.79 88.20 C 156.69 87.88 159.16 85.51 162.16 86.24 C 160.81 89.45 156.90 89.73 154.03 90.80 C 151.44 91.38 150.49 94.16 149.00 96.04 C 150.59 98.46 152.58 100.58 154.62 102.63 C 152.64 102.76 150.67 102.81 148.69 102.85 C 144.66 98.72 139.79 95.01 138.03 89.25 C 138.70 88.55 139.38 87.84 140.06 87.15 C 141.54 90.68 145.50 89.37 148.39 89.17 C 146.01 88.53 143.36 88.82 141.20 87.48 C 143.47 87.11 145.75 86.89 148.03 86.62 C 145.49 86.38 142.80 86.20 140.72 84.52 C 145.02 81.15 151.03 82.59 156.12 82.34 L 156.19 82.09 C 156.10 79.24 159.12 80.30 160.80 80.16 C 155.64 76.04 148.70 78.34 142.67 77.56 L 143.21 76.29 C 141.67 76.22 140.14 76.14 138.61 76.05 C 138.50 75.39 138.27 74.08 138.16 73.42 Z" />
<path fill="#b2b2b2" opacity="1.00" d=" M 100.68 79.07 C 100.79 79.63 101.00 80.76 101.11 81.33 C 104.93 80.36 108.83 80.95 112.69 81.15 C 111.51 81.85 110.35 82.59 109.33 83.52 C 104.78 83.78 100.22 83.72 95.67 83.50 C 97.55 82.27 99.52 81.08 100.68 79.07 Z" />
<path fill="#b2b2b2" opacity="1.00" d=" M 155.00 78.89 C 158.10 77.43 155.15 82.18 155.00 78.89 Z" />
<path fill="#b2b2b2" opacity="1.00" d=" M 161.93 99.26 C 162.26 95.30 164.86 91.96 165.94 88.18 C 169.45 91.15 165.15 95.87 163.71 99.01 C 163.26 99.07 162.38 99.19 161.93 99.26 Z" />
<path fill="#b2b2b2" opacity="1.00" d=" M 190.72 95.05 C 191.07 93.17 190.49 90.38 193.37 90.76 C 194.39 96.39 189.78 100.51 189.33 105.87 C 188.07 112.48 182.66 117.80 183.03 124.79 L 182.96 126.29 C 179.51 125.86 179.95 121.55 179.56 118.97 C 178.75 113.04 182.81 108.33 185.40 103.44 C 186.96 100.50 190.46 98.61 190.72 95.05 Z" />
<path fill="#b2b2b2" opacity="1.00" d=" M 157.12 118.79 C 159.06 119.29 159.51 121.34 160.28 122.91 C 158.91 125.40 156.91 127.45 154.15 128.33 C 152.78 126.44 151.40 124.47 151.17 122.08 C 152.85 122.23 154.00 123.30 154.93 124.63 C 155.42 124.18 156.41 123.28 156.90 122.84 C 156.96 121.49 157.03 120.14 157.12 118.79 Z" />
<path fill="#b2b2b2" opacity="1.00" d=" M 33.90 122.14 C 36.02 121.31 38.18 120.55 40.46 120.34 L 40.52 119.53 C 42.50 119.57 44.48 119.58 46.46 119.56 L 46.52 120.38 C 47.71 120.48 50.10 120.68 51.29 120.78 C 46.00 123.52 39.62 122.62 33.90 122.14 Z" />
<path fill="#b2b2b2" opacity="1.00" d=" M 3.96 121.64 C 5.42 120.93 8.55 122.51 8.76 119.95 C 9.47 120.38 10.87 121.23 11.58 121.66 L 11.68 123.74 L 10.42 123.38 C 10.41 123.72 10.40 124.40 10.40 124.74 C 8.70 123.92 6.95 123.23 5.19 122.55 L 3.96 121.64 Z" />
<path fill="#b2b2b2" opacity="1.00" d=" M 123.82 124.08 C 129.61 123.71 135.30 122.53 140.94 121.18 C 140.40 122.14 140.26 123.64 138.95 123.91 C 133.39 125.80 127.37 126.47 121.52 125.96 C 121.88 124.75 122.65 124.12 123.82 124.08 Z" />
<path fill="#b2b2b2" opacity="1.00" d=" M 15.88 123.11 C 17.16 123.03 18.44 122.99 19.73 123.00 C 21.37 124.31 23.61 124.87 25.64 124.27 C 26.99 123.51 28.45 123.12 30.02 123.11 C 29.85 123.98 29.53 125.73 29.36 126.61 C 28.82 126.64 27.74 126.70 27.19 126.73 C 27.98 127.10 28.78 127.46 29.54 127.89 L 29.56 128.93 C 27.10 128.43 24.60 128.13 22.11 127.82 C 19.54 127.01 17.34 125.39 15.88 123.11 Z" />
<path fill="#b2b2b2" opacity="1.00" d=" M 40.73 123.59 C 44.34 123.16 47.95 122.75 51.55 122.35 L 51.61 123.55 C 53.97 123.51 56.34 123.50 58.70 123.48 L 58.30 125.37 C 53.29 124.48 48.20 123.84 43.10 124.06 C 44.61 125.13 46.06 126.32 46.83 128.06 C 44.89 127.92 42.96 127.81 41.03 127.68 C 39.96 126.72 38.90 125.76 37.80 124.86 C 38.80 124.48 39.78 124.06 40.73 123.59 Z" />
<path fill="#b2b2b2" opacity="1.00" d=" M 109.89 125.18 C 112.27 124.90 114.64 124.53 117.00 124.09 C 117.24 127.81 112.30 127.07 109.83 127.19 C 109.85 126.69 109.88 125.68 109.89 125.18 Z" />
<path fill="#b2b2b2" opacity="1.00" d=" M 118.91 127.89 C 122.94 128.02 126.96 127.96 130.99 128.04 C 132.93 132.13 135.48 136.03 136.21 140.58 C 133.35 140.99 133.10 137.99 132.33 136.04 C 131.70 133.84 130.31 132.01 128.99 130.20 L 127.95 130.17 C 124.95 130.06 121.93 130.06 119.00 130.75 C 119.01 133.09 118.92 135.43 118.65 137.75 C 114.68 135.91 115.82 130.08 118.91 127.89 Z" />
<path fill="#b2b2b2" opacity="1.00" d=" M 156.18 128.90 C 156.68 128.77 157.68 128.52 158.18 128.40 C 157.97 131.91 158.23 135.61 156.98 138.96 C 156.53 138.91 155.64 138.83 155.19 138.78 C 154.61 135.45 156.14 132.23 156.18 128.90 Z" />
<path fill="#b2b2b2" opacity="1.00" d=" M 100.18 133.01 C 99.90 131.44 100.81 130.21 102.05 129.38 C 102.93 133.23 102.99 137.22 104.00 141.05 C 100.66 139.87 99.88 136.15 100.18 133.01 Z" />
<path fill="#b2b2b2" opacity="1.00" d=" M 121.25 137.07 C 121.53 136.68 122.10 135.91 122.39 135.52 C 124.93 137.56 124.20 141.11 123.96 143.94 C 122.94 147.01 120.76 149.50 119.49 152.45 C 119.19 154.56 119.45 156.73 118.91 158.81 C 116.40 159.59 117.14 156.51 116.92 155.02 C 116.37 150.34 120.74 147.24 121.41 142.90 C 121.44 140.95 121.34 139.01 121.25 137.07 Z" />
<path fill="#b2b2b2" opacity="1.00" d=" M 18.62 137.25 C 20.10 137.70 21.57 138.16 23.04 138.63 C 22.65 139.22 21.88 140.41 21.50 141.00 L 21.92 142.43 C 22.45 141.40 22.95 140.34 23.40 139.27 C 23.71 142.32 26.85 142.24 29.08 143.02 C 27.76 145.54 25.08 144.75 22.82 144.46 C 24.64 145.34 26.44 146.25 28.22 147.19 C 27.68 147.41 26.58 147.85 26.04 148.07 C 24.25 147.89 22.70 148.29 22.14 150.21 C 22.23 148.53 22.36 146.85 22.58 145.19 L 20.74 145.87 C 20.92 142.80 21.38 139.39 18.62 137.25 Z" />
<path fill="#b2b2b2" opacity="1.00" d=" M 126.47 138.24 L 126.90 137.27 L 128.42 137.72 C 129.11 141.71 128.60 146.02 126.38 149.48 C 124.67 151.54 126.01 154.13 126.27 156.44 C 123.95 157.28 123.27 154.60 123.15 152.91 C 122.83 150.55 124.45 148.60 125.20 146.49 C 126.40 143.90 126.09 140.99 126.47 138.24 Z" />
<path fill="#b2b2b2" opacity="1.00" d=" M 16.04 140.86 C 17.13 139.72 19.71 141.25 18.77 142.73 C 17.65 143.83 15.15 142.35 16.04 140.86 Z" />
<path fill="#b2b2b2" opacity="1.00" d=" M 33.42 143.19 C 36.22 144.84 39.42 144.44 42.50 144.36 C 41.04 144.78 39.56 145.14 38.09 145.51 C 41.67 148.73 38.44 153.41 39.08 157.46 L 37.46 157.58 C 37.50 157.08 37.57 156.09 37.61 155.59 C 35.79 155.65 33.99 155.41 32.36 154.54 C 33.88 152.64 33.87 150.03 32.75 147.94 C 32.40 149.85 32.09 151.81 31.03 153.49 C 28.83 151.84 29.60 149.01 29.41 146.71 C 30.94 146.25 32.27 145.36 33.60 144.52 L 33.42 143.19 Z" />
<path fill="#b2b2b2" opacity="1.00" d=" M 16.18 145.01 C 19.20 143.48 16.49 148.30 16.18 145.01 Z" />
<path fill="#b2b2b2" opacity="1.00" d=" M 42.53 146.97 C 47.17 148.14 47.42 153.81 48.37 157.66 C 48.91 157.87 49.98 158.29 50.51 158.50 C 47.70 158.74 44.88 158.67 42.06 158.71 L 42.22 157.72 C 43.47 157.79 44.73 157.85 45.98 157.90 C 45.91 156.00 45.79 154.11 45.69 152.22 C 45.03 152.20 43.72 152.17 43.06 152.16 C 42.85 150.43 42.70 148.70 42.53 146.97 Z" />
<path fill="#b2b2b2" opacity="1.00" d=" M 77.87 150.34 C 78.28 150.34 79.10 150.36 79.52 150.37 C 79.64 156.40 79.62 162.44 79.50 168.47 L 78.65 168.61 C 78.95 176.08 78.33 183.54 78.82 191.01 C 80.01 192.28 79.10 193.89 78.30 195.04 C 77.92 188.69 76.78 182.33 77.78 175.99 C 77.61 167.43 79.40 158.85 77.87 150.34 Z" />
<path fill="#b2b2b2" opacity="1.00" d=" M 163.91 156.02 C 164.95 154.08 165.88 151.67 168.48 151.53 C 166.65 157.88 162.27 163.00 157.79 167.68 C 157.79 167.94 157.78 168.47 157.78 168.73 L 157.64 169.23 C 157.32 169.57 156.69 170.24 156.37 170.57 C 154.74 170.53 153.11 170.51 151.49 170.43 L 151.50 171.54 C 149.35 171.65 147.20 171.71 145.06 171.85 C 143.91 172.80 142.37 172.52 141.01 172.59 C 135.94 172.47 130.87 172.76 125.82 172.39 L 126.96 171.41 C 134.64 170.66 142.53 171.94 150.09 170.22 C 156.01 167.11 160.98 162.03 163.91 156.02 Z" />
<path fill="#b2b2b2" opacity="1.00" d=" M 42.68 153.43 C 44.05 152.00 46.20 155.33 44.48 156.19 C 44.03 155.50 43.13 154.12 42.68 153.43 Z" />
<path fill="#b2b2b2" opacity="1.00" d=" M 126.08 158.13 C 127.50 157.65 127.96 158.11 127.47 159.50 C 126.03 159.99 125.57 159.53 126.08 158.13 Z" />
<path fill="#b2b2b2" opacity="1.00" d=" M 162.54 166.71 C 165.19 164.50 168.76 164.61 172.00 164.65 L 173.39 165.35 C 171.60 165.57 169.80 165.69 168.01 165.88 C 166.35 166.84 164.37 166.56 162.54 166.71 Z" />
</g>
<g id="#fdfdfdff">
<path fill="#fdfdfd" opacity="1.00" d=" M 134.99 27.39 C 139.17 27.43 143.33 27.90 147.51 27.57 L 147.50 28.57 C 150.85 28.52 154.20 28.56 157.55 28.47 L 157.53 29.45 C 159.33 29.57 161.43 28.96 162.98 30.16 C 165.14 30.47 167.32 30.70 169.51 30.62 L 169.57 31.63 C 170.03 31.59 170.95 31.49 171.41 31.45 L 171.60 32.77 C 172.05 32.67 172.96 32.47 173.41 32.37 L 173.56 33.56 C 174.04 33.49 174.99 33.34 175.47 33.27 L 175.59 34.63 C 176.06 34.58 176.99 34.49 177.45 34.45 L 177.49 35.56 C 178.23 35.55 179.72 35.54 180.46 35.53 L 180.41 36.52 C 181.18 36.49 182.72 36.43 183.48 36.40 L 183.49 37.57 C 184.25 37.56 185.77 37.53 186.53 37.51 L 186.53 38.68 C 187.01 38.61 187.97 38.48 188.44 38.41 L 188.40 39.36 C 189.42 39.80 190.45 40.23 191.48 40.66 L 191.47 41.54 L 192.44 41.29 L 192.53 42.44 L 193.62 42.67 L 193.37 43.65 L 194.36 43.37 C 194.58 43.74 195.04 44.46 195.26 44.82 C 196.31 46.22 197.50 47.63 197.69 49.44 L 198.34 49.45 C 199.57 52.28 200.25 55.32 200.75 58.36 L 201.63 58.51 C 201.61 58.88 201.56 59.62 201.54 59.99 L 202.45 60.79 C 202.74 66.05 202.54 71.33 202.50 76.60 L 203.51 76.44 C 203.94 78.80 202.34 82.22 204.54 83.88 C 204.55 84.17 204.56 84.75 204.57 85.04 C 206.42 87.44 205.31 90.74 205.51 93.53 L 206.54 93.45 C 206.86 97.17 205.52 101.29 207.32 104.74 C 207.33 108.55 207.34 112.36 207.31 116.17 C 206.02 117.66 206.59 119.71 206.45 121.50 L 205.60 121.43 C 205.74 123.46 205.02 125.33 204.23 127.15 C 203.61 128.53 203.37 129.99 203.33 131.49 L 202.66 131.47 C 202.24 133.15 201.74 134.80 201.23 136.45 L 200.48 136.56 C 200.47 137.88 200.46 139.20 200.46 140.52 L 199.28 140.48 C 199.36 140.88 199.51 141.68 199.59 142.08 C 199.26 142.61 198.59 143.67 198.26 144.21 C 197.70 146.22 196.09 147.62 195.21 149.46 L 194.36 149.40 L 194.44 150.19 C 191.12 152.16 188.73 155.39 186.05 158.12 C 184.88 158.56 183.64 158.90 183.15 160.19 C 182.65 160.50 181.67 161.14 181.18 161.46 C 180.89 161.49 180.30 161.57 180.01 161.60 C 179.42 161.90 178.24 162.48 177.66 162.78 L 177.44 163.68 C 177.06 163.64 176.31 163.56 175.94 163.52 C 174.84 164.45 173.52 164.83 172.00 164.65 C 168.76 164.61 165.19 164.50 162.54 166.71 C 161.10 167.76 159.68 168.85 157.78 168.73 C 157.78 168.47 157.79 167.94 157.79 167.68 C 162.27 163.00 166.65 157.88 168.48 151.53 C 165.88 151.67 164.95 154.08 163.91 156.02 C 160.98 162.03 156.01 167.11 150.09 170.22 C 142.53 171.94 134.64 170.66 126.96 171.41 C 124.42 171.86 122.02 170.72 119.58 170.24 C 122.35 167.56 125.81 169.76 128.98 170.14 C 131.82 170.66 134.72 170.32 137.57 170.06 C 130.35 164.78 120.67 164.86 113.47 159.57 C 108.89 156.11 106.32 150.85 103.51 146.00 C 102.52 148.24 101.46 150.49 101.06 152.93 C 100.73 154.38 100.80 155.89 100.72 157.37 L 101.52 157.17 C 101.58 158.62 102.38 159.76 103.17 160.90 C 104.53 162.79 107.41 164.27 106.54 166.98 C 105.83 166.55 104.42 165.69 103.72 165.26 C 103.24 165.00 102.29 164.49 101.82 164.24 C 100.86 163.78 99.86 163.43 98.83 163.19 C 98.59 161.64 97.06 161.60 95.88 161.17 C 93.61 157.99 90.16 155.75 88.49 152.13 C 88.47 151.84 88.43 151.26 88.41 150.97 C 87.29 149.85 87.51 148.16 87.26 146.74 C 85.82 144.43 87.17 141.51 85.70 139.22 C 85.70 136.00 85.24 132.81 85.22 129.60 L 84.31 129.60 C 84.34 128.28 84.38 126.96 84.42 125.64 L 83.42 125.61 C 83.45 123.91 83.46 122.21 83.44 120.51 C 86.66 122.02 88.10 125.41 89.63 128.39 C 92.13 132.91 91.88 138.23 93.18 143.12 C 94.11 143.35 95.04 143.59 95.97 143.83 C 94.32 137.69 94.09 131.24 95.02 124.97 C 95.71 120.38 93.71 115.78 94.83 111.22 C 95.39 109.51 97.20 108.60 98.88 108.40 C 103.67 107.61 108.46 106.82 113.11 105.39 C 114.67 106.42 116.23 107.46 117.81 108.45 C 119.59 107.97 121.53 106.99 123.27 108.13 C 117.80 110.65 111.81 111.64 106.21 113.80 C 108.18 112.01 110.13 110.04 110.81 107.36 C 108.46 107.60 106.95 109.31 105.57 111.00 C 105.39 110.41 105.05 109.21 104.88 108.61 C 101.97 109.35 98.19 108.88 96.02 111.20 C 94.75 115.85 95.53 120.93 97.51 125.28 C 98.35 128.33 100.92 129.90 104.03 129.32 C 105.10 127.11 105.74 124.74 106.02 122.30 C 105.00 122.43 103.97 122.56 102.95 122.70 C 103.08 121.22 103.22 119.75 103.35 118.28 C 104.91 117.54 106.47 116.80 108.05 116.07 C 109.62 120.01 113.75 117.15 116.70 116.90 C 116.45 116.40 115.93 115.39 115.68 114.89 C 116.13 114.33 116.58 113.77 117.04 113.21 C 118.74 115.90 119.43 120.07 123.05 120.86 C 126.39 121.22 129.77 120.93 133.13 121.13 C 133.85 119.99 134.85 119.05 135.38 117.79 C 133.49 117.67 131.70 118.33 129.91 118.81 C 133.18 117.32 136.62 116.22 140.17 115.58 C 142.80 118.35 146.67 118.24 150.20 118.33 C 149.88 117.68 149.24 116.36 148.93 115.71 C 146.93 115.62 144.94 115.53 142.96 115.41 C 145.79 115.31 148.63 115.45 151.41 116.02 C 152.40 117.63 152.64 122.46 155.13 121.14 C 155.38 115.96 152.88 110.93 148.31 108.37 C 154.21 105.58 162.66 107.41 164.83 114.09 C 165.56 122.99 164.57 131.89 163.60 140.73 C 164.18 140.51 165.34 140.06 165.92 139.84 C 167.34 131.66 167.61 123.29 167.36 114.99 C 167.50 111.40 164.38 108.99 161.83 107.01 C 156.99 103.17 150.48 105.61 144.95 105.99 C 142.33 106.59 140.41 104.49 138.64 102.96 C 138.48 101.64 138.41 100.30 138.09 99.01 C 136.19 97.37 133.76 96.57 131.46 95.70 C 131.58 98.33 133.68 99.56 135.82 100.53 C 135.85 101.63 135.88 102.73 135.92 103.84 C 134.42 104.50 132.93 105.18 131.44 105.86 C 132.54 109.01 135.76 106.72 137.81 106.21 C 140.53 108.02 143.66 109.15 146.96 108.60 C 147.73 110.07 148.52 111.53 149.27 113.01 C 147.85 112.96 146.43 112.91 145.01 112.84 C 143.30 112.69 141.59 112.49 139.90 112.22 C 138.17 111.43 136.29 111.31 134.42 111.34 L 134.45 110.28 C 134.04 110.35 133.20 110.50 132.78 110.57 C 132.39 110.19 131.60 109.43 131.20 109.04 C 130.89 108.13 130.57 107.22 130.24 106.32 C 132.51 105.52 134.12 103.98 134.62 101.56 C 131.08 100.34 128.37 102.68 126.78 105.59 C 127.62 107.11 128.44 108.63 129.23 110.17 C 125.22 110.00 124.30 105.57 121.52 103.50 C 120.40 102.63 118.18 100.71 117.26 102.92 C 116.91 103.39 116.21 104.34 115.86 104.82 C 115.29 103.81 114.27 102.95 114.17 101.75 C 114.94 101.54 116.48 101.13 117.25 100.93 C 117.31 99.17 117.37 97.41 117.42 95.65 C 118.17 96.40 118.93 97.15 119.68 97.90 C 119.26 98.68 118.85 99.46 118.45 100.25 C 120.93 101.25 123.09 102.85 124.91 104.79 C 124.74 104.31 124.40 103.34 124.23 102.86 C 123.05 101.92 121.84 101.01 120.78 99.93 C 120.37 98.29 120.36 96.58 120.24 94.90 C 122.41 92.46 124.35 89.82 126.06 87.04 C 122.87 89.54 120.58 92.91 117.87 95.88 C 118.09 91.14 122.73 88.97 124.80 85.23 C 125.75 82.68 126.24 79.92 126.24 77.20 C 125.30 73.43 121.19 71.56 120.02 67.93 C 119.85 64.60 122.43 61.87 124.65 59.70 C 127.50 58.23 130.92 58.78 134.02 58.57 C 139.44 58.74 144.67 57.03 150.07 57.01 C 154.40 56.97 158.73 57.03 163.06 57.00 C 163.06 56.46 163.07 55.39 163.08 54.85 C 158.06 54.92 153.05 54.91 148.04 54.91 C 142.98 54.87 138.03 56.28 132.96 56.09 C 126.92 55.89 120.90 56.50 114.86 56.68 C 120.49 53.56 126.91 55.18 132.96 54.13 C 142.03 52.71 151.28 52.84 160.24 50.68 C 160.24 50.00 160.24 48.64 160.23 47.96 C 153.97 49.86 147.42 50.01 140.97 50.83 C 135.44 51.31 129.98 52.56 124.44 52.79 C 125.95 52.03 127.21 50.93 128.06 49.45 C 137.70 49.24 147.21 47.48 156.76 46.26 C 156.86 45.67 157.05 44.49 157.15 43.89 C 148.58 44.37 139.84 47.45 131.31 44.93 C 128.94 44.03 126.12 43.33 124.66 41.07 C 124.81 37.57 125.99 33.94 128.27 31.26 C 130.58 30.08 133.17 29.36 134.99 27.39 M 149.00 64.45 C 144.28 66.07 139.30 66.54 134.43 67.49 C 132.79 66.55 130.98 66.03 129.08 66.14 C 128.98 65.90 128.77 65.40 128.67 65.16 C 129.31 68.30 130.16 72.66 133.65 73.68 C 133.63 73.93 133.59 74.41 133.57 74.65 L 134.33 74.31 C 134.96 76.57 132.75 77.38 131.27 78.35 C 130.50 80.41 129.42 82.66 130.22 84.89 C 131.46 86.96 134.14 87.19 136.17 88.09 C 136.47 88.18 137.07 88.36 137.37 88.45 C 137.85 89.71 138.35 90.96 138.80 92.24 C 139.94 94.43 141.44 96.40 142.92 98.37 L 143.57 98.37 L 143.55 99.42 L 144.31 99.52 C 147.05 102.92 151.94 104.95 155.95 102.53 C 156.54 102.47 157.73 102.33 158.33 102.27 C 159.23 101.81 160.04 101.20 160.94 100.73 C 160.34 100.67 159.15 100.54 158.56 100.48 L 158.63 101.72 C 157.99 101.75 156.71 101.82 156.07 101.85 C 155.71 102.04 154.98 102.43 154.62 102.63 C 152.58 100.58 150.59 98.46 149.00 96.04 C 150.49 94.16 151.44 91.38 154.03 90.80 C 156.90 89.73 160.81 89.45 162.16 86.24 C 159.16 85.51 156.69 87.88 153.79 88.20 C 153.64 87.29 152.46 85.67 154.09 85.40 C 157.50 85.01 160.95 84.62 164.09 83.11 C 165.54 83.30 167.00 83.50 168.45 83.71 C 167.82 81.91 167.46 80.05 167.56 78.14 C 166.31 78.63 165.04 79.09 163.80 79.59 C 162.18 78.12 160.50 76.71 158.91 75.21 L 158.68 74.65 C 156.33 74.66 153.98 74.68 151.63 74.83 C 151.21 73.78 150.83 72.71 150.46 71.65 C 151.49 71.65 153.56 71.66 154.59 71.66 L 154.56 70.39 C 156.03 70.36 157.46 70.62 158.83 71.16 C 161.45 71.90 164.10 72.70 166.87 72.67 C 166.44 71.86 166.10 71.01 165.86 70.13 C 165.30 69.96 164.17 69.61 163.61 69.43 L 163.40 68.57 C 161.56 68.46 159.73 68.35 157.90 68.21 C 157.38 68.09 156.35 67.84 155.83 67.71 L 155.04 68.43 C 154.67 68.40 153.94 68.34 153.57 68.32 L 153.47 69.28 C 152.97 69.39 151.99 69.63 151.49 69.74 C 150.97 69.33 149.92 68.50 149.39 68.08 C 150.81 65.81 153.70 65.19 156.13 64.63 C 160.93 63.66 164.90 67.19 169.48 67.72 C 169.31 67.13 168.98 65.97 168.81 65.38 C 165.06 63.72 161.13 61.80 156.91 62.16 C 154.12 62.22 151.64 63.73 149.00 64.45 M 161.93 99.26 C 162.38 99.19 163.26 99.07 163.71 99.01 C 165.15 95.87 169.45 91.15 165.94 88.18 C 164.86 91.96 162.26 95.30 161.93 99.26 M 190.72 95.05 C 190.46 98.61 186.96 100.50 185.40 103.44 C 182.81 108.33 178.75 113.04 179.56 118.97 C 179.95 121.55 179.51 125.86 182.96 126.29 L 183.03 124.79 C 187.09 123.22 191.80 122.29 194.64 118.68 C 197.75 114.90 200.29 109.97 198.77 104.98 C 198.65 99.56 193.52 96.12 193.37 90.76 C 190.49 90.38 191.07 93.17 190.72 95.05 M 157.12 118.79 C 157.03 120.14 156.96 121.49 156.90 122.84 C 156.41 123.28 155.42 124.18 154.93 124.63 C 154.00 123.30 152.85 122.23 151.17 122.08 C 151.40 124.47 152.78 126.44 154.15 128.33 C 156.91 127.45 158.91 125.40 160.28 122.91 C 159.51 121.34 159.06 119.29 157.12 118.79 M 123.82 124.08 C 122.65 124.12 121.88 124.75 121.52 125.96 C 127.37 126.47 133.39 125.80 138.95 123.91 C 140.26 123.64 140.40 122.14 140.94 121.18 C 135.30 122.53 129.61 123.71 123.82 124.08 M 109.89 125.18 C 109.88 125.68 109.85 126.69 109.83 127.19 C 112.30 127.07 117.24 127.81 117.00 124.09 C 114.64 124.53 112.27 124.90 109.89 125.18 M 118.91 127.89 C 115.82 130.08 114.68 135.91 118.65 137.75 C 118.87 139.46 119.27 141.15 119.47 142.87 C 119.96 142.87 120.93 142.89 121.41 142.90 C 120.74 147.24 116.37 150.34 116.92 155.02 C 117.14 156.51 116.40 159.59 118.91 158.81 C 119.45 156.73 119.19 154.56 119.49 152.45 C 120.76 149.50 122.94 147.01 123.96 143.94 C 124.20 141.11 124.93 137.56 122.39 135.52 C 123.87 133.39 125.95 131.79 127.95 130.17 L 128.99 130.20 C 130.31 132.01 131.70 133.84 132.33 136.04 C 133.10 137.99 133.35 140.99 136.21 140.58 C 135.48 136.03 132.93 132.13 130.99 128.04 C 126.96 127.96 122.94 128.02 118.91 127.89 M 156.18 128.90 C 156.14 132.23 154.61 135.45 155.19 138.78 C 155.64 138.83 156.53 138.91 156.98 138.96 C 158.23 135.61 157.97 131.91 158.18 128.40 C 157.68 128.52 156.68 128.77 156.18 128.90 M 100.18 133.01 C 99.88 136.15 100.66 139.87 104.00 141.05 C 102.99 137.22 102.93 133.23 102.05 129.38 C 100.81 130.21 99.90 131.44 100.18 133.01 M 126.47 138.24 C 126.09 140.99 126.40 143.90 125.20 146.49 C 124.45 148.60 122.83 150.55 123.15 152.91 C 123.27 154.60 123.95 157.28 126.27 156.44 C 126.01 154.13 124.67 151.54 126.38 149.48 C 128.60 146.02 129.11 141.71 128.42 137.72 L 126.90 137.27 L 126.47 138.24 M 126.08 158.13 C 125.57 159.53 126.03 159.99 127.47 159.50 C 127.96 158.11 127.50 157.65 126.08 158.13 Z" />
<path fill="#fdfdfd" opacity="1.00" d=" M 142.82 79.56 C 141.71 78.02 139.87 77.30 138.61 76.05 C 140.14 76.14 141.67 76.22 143.21 76.29 L 142.67 77.56 C 148.70 78.34 155.64 76.04 160.80 80.16 C 159.12 80.30 156.10 79.24 156.19 82.09 C 151.52 82.07 146.82 81.92 142.20 82.78 C 142.35 81.97 142.66 80.36 142.82 79.56 M 155.00 78.89 C 155.15 82.18 158.10 77.43 155.00 78.89 Z" />
<path fill="#fdfdfd" opacity="1.00" d=" M 99.47 78.14 C 102.87 76.93 106.59 77.89 110.12 77.35 C 109.43 77.54 108.05 77.93 107.36 78.12 C 105.52 81.23 111.19 79.96 112.61 79.06 C 112.63 79.58 112.67 80.63 112.69 81.15 C 108.83 80.95 104.93 80.36 101.11 81.33 C 101.00 80.76 100.79 79.63 100.68 79.07 L 99.47 78.14 Z" />
<path fill="#fdfdfd" opacity="1.00" d=" M 138.77 83.30 C 139.40 82.23 140.40 82.06 141.76 82.78 C 141.15 83.90 140.15 84.08 138.77 83.30 Z" />
<path fill="#fdfdfd" opacity="1.00" d=" M 14.47 121.52 C 16.52 121.47 18.57 121.54 20.62 121.45 L 20.51 122.48 C 22.71 122.48 24.90 122.50 27.09 122.58 C 26.73 123.00 26.01 123.85 25.64 124.27 C 23.61 124.87 21.37 124.31 19.73 123.00 C 18.44 122.99 17.16 123.03 15.88 123.11 C 15.27 124.18 14.59 125.21 13.92 126.25 C 15.31 130.78 19.13 133.70 23.39 135.37 C 23.02 132.84 22.59 130.33 22.11 127.82 C 24.60 128.13 27.10 128.43 29.56 128.93 L 29.54 127.89 C 29.70 126.36 29.92 124.83 30.19 123.31 C 32.32 123.36 34.44 123.48 36.57 123.55 L 36.73 124.04 C 37.00 124.25 37.53 124.66 37.80 124.86 C 38.90 125.76 39.96 126.72 41.03 127.68 C 42.96 127.81 44.89 127.92 46.83 128.06 C 46.06 126.32 44.61 125.13 43.10 124.06 C 48.20 123.84 53.29 124.48 58.30 125.37 L 59.21 126.01 C 57.92 127.21 56.34 127.77 54.63 127.96 C 54.59 128.43 54.52 129.36 54.48 129.82 C 54.73 129.79 55.23 129.72 55.47 129.69 L 55.34 128.57 C 57.50 129.06 58.77 127.30 60.11 125.98 C 60.44 126.41 61.10 127.28 61.43 127.71 L 61.48 128.48 L 62.39 128.44 L 62.45 129.57 L 63.58 129.63 L 63.43 130.61 L 64.58 130.35 L 64.49 131.49 L 65.57 131.44 L 65.50 132.50 L 66.53 132.47 L 66.52 133.49 L 67.54 133.47 L 67.53 134.48 L 68.57 134.46 L 68.53 135.50 L 69.61 135.46 L 69.46 136.59 L 70.69 136.56 C 70.58 137.03 70.36 137.96 70.24 138.43 L 71.60 138.57 C 71.54 139.02 71.40 139.92 71.34 140.37 L 72.30 140.60 C 72.51 141.16 72.93 142.28 73.14 142.84 C 74.50 144.52 75.84 146.22 77.41 147.72 C 77.52 148.37 77.75 149.68 77.87 150.34 C 79.40 158.85 77.61 167.43 77.78 175.99 C 76.78 182.33 77.92 188.69 78.30 195.04 C 70.55 195.30 62.93 194.03 55.18 194.26 C 53.95 192.71 52.05 191.91 50.75 190.47 C 51.35 186.12 52.66 181.84 52.55 177.42 C 52.42 175.18 50.40 173.84 48.93 172.43 C 48.68 176.66 48.73 180.90 48.42 185.13 C 47.76 178.88 48.77 172.49 46.91 166.38 C 50.29 166.74 53.67 167.19 57.04 167.64 C 54.98 163.83 50.71 163.12 46.77 162.77 C 47.42 162.26 48.07 161.75 48.72 161.23 C 46.49 161.28 44.25 161.39 42.01 161.34 C 41.77 161.02 41.27 160.40 41.02 160.08 C 46.06 160.81 51.32 160.58 55.79 157.89 C 56.06 157.62 56.61 157.09 56.88 156.83 C 59.29 156.11 60.35 153.69 61.96 152.01 C 63.03 151.14 66.13 151.16 65.06 149.15 L 64.66 150.52 C 62.46 150.51 60.83 152.10 59.16 153.29 L 58.43 153.40 L 58.38 154.19 C 57.08 154.66 56.04 155.56 55.03 156.47 C 54.67 156.46 53.95 156.44 53.59 156.43 L 53.43 157.27 C 52.83 157.62 51.62 158.34 51.02 158.69 L 50.51 158.50 C 49.98 158.29 48.91 157.87 48.37 157.66 C 47.42 153.81 47.17 148.14 42.53 146.97 C 42.70 148.70 42.85 150.43 43.06 152.16 C 43.72 152.17 45.03 152.20 45.69 152.22 C 45.79 154.11 45.91 156.00 45.98 157.90 C 44.73 157.85 43.47 157.79 42.22 157.72 C 41.17 157.65 40.12 157.56 39.08 157.46 C 38.44 153.41 41.67 148.73 38.09 145.51 C 39.56 145.14 41.04 144.78 42.50 144.36 L 42.74 142.61 C 41.08 142.62 39.44 142.55 37.79 142.40 L 39.32 141.16 C 39.42 140.71 39.63 139.82 39.74 139.38 C 42.64 138.60 42.27 141.94 43.05 143.70 C 45.58 143.96 47.12 141.81 48.75 140.26 C 49.38 140.26 50.66 140.27 51.30 140.28 L 51.33 139.52 C 52.28 139.29 53.19 138.98 54.08 138.58 C 53.11 138.65 51.17 138.79 50.20 138.85 L 50.30 136.39 L 51.68 136.48 L 51.30 135.25 C 51.63 135.11 52.29 134.81 52.62 134.66 C 51.37 134.75 50.37 135.34 49.90 136.58 C 48.26 136.50 46.61 136.60 44.99 136.27 C 43.33 136.80 41.74 137.59 39.98 137.86 C 34.11 140.20 27.61 136.96 21.47 137.46 L 21.55 136.39 L 20.43 136.62 L 20.33 135.82 C 19.16 135.37 18.02 134.83 16.88 134.28 C 16.09 133.01 15.00 131.98 13.81 131.09 C 12.63 128.72 12.08 126.13 12.42 123.49 L 13.34 123.59 L 13.53 122.51 L 14.58 122.37 L 14.47 121.52 M 42.68 153.43 C 43.13 154.12 44.03 155.50 44.48 156.19 C 46.20 155.33 44.05 152.00 42.68 153.43 Z" />
<path fill="#fdfdfd" opacity="1.00" d=" M 14.52 147.52 C 14.39 144.22 14.36 140.92 14.40 137.62 C 15.81 137.52 17.22 137.40 18.62 137.25 C 21.38 139.39 20.92 142.80 20.74 145.87 C 20.64 147.54 20.67 149.22 20.75 150.90 C 19.66 150.71 18.57 150.53 17.48 150.36 L 17.68 149.60 L 16.69 149.32 L 16.37 148.37 L 15.44 148.56 L 15.63 147.29 L 14.52 147.52 M 16.04 140.86 C 15.15 142.35 17.65 143.83 18.77 142.73 C 19.71 141.25 17.13 139.72 16.04 140.86 M 16.18 145.01 C 16.49 148.30 19.20 143.48 16.18 145.01 Z" />
<path fill="#fdfdfd" opacity="1.00" d=" M 23.40 139.27 C 27.83 139.21 32.25 139.93 36.67 139.51 L 36.38 140.57 L 37.53 140.33 L 37.36 142.54 C 35.50 142.80 32.63 141.63 32.07 144.14 C 31.55 144.36 30.53 144.80 30.02 145.02 C 29.39 145.72 28.79 146.44 28.22 147.19 C 26.44 146.25 24.64 145.34 22.82 144.46 C 25.08 144.75 27.76 145.54 29.08 143.02 C 26.85 142.24 23.71 142.32 23.40 139.27 Z" />
</g>
<g id="#dbdbdbff">
<path fill="#dbdbdb" opacity="1.00" d=" M 139.42 83.76 C 139.74 83.95 140.39 84.33 140.72 84.52 C 142.80 86.20 145.49 86.38 148.03 86.62 C 145.75 86.89 143.47 87.11 141.20 87.48 C 140.73 87.20 139.78 86.65 139.31 86.38 L 139.42 83.76 Z" />
<path fill="#dbdbdb" opacity="1.00" d=" M 193.37 90.76 C 193.52 96.12 198.65 99.56 198.77 104.98 C 200.29 109.97 197.75 114.90 194.64 118.68 C 191.80 122.29 187.09 123.22 183.03 124.79 C 182.66 117.80 188.07 112.48 189.33 105.87 C 189.78 100.51 194.39 96.39 193.37 90.76 Z" />
<path fill="#dbdbdb" opacity="1.00" d=" M 96.02 111.20 C 98.19 108.88 101.97 109.35 104.88 108.61 C 105.05 109.21 105.39 110.41 105.57 111.00 C 104.38 112.37 103.11 113.66 102.04 115.13 C 100.26 118.08 99.29 122.74 103.16 124.46 C 102.74 125.44 102.89 127.26 101.33 126.79 C 100.30 125.00 99.75 122.77 97.65 121.90 C 97.61 122.75 97.54 124.44 97.51 125.28 C 95.53 120.93 94.75 115.85 96.02 111.20 Z" />
<path fill="#dbdbdb" opacity="1.00" d=" M 3.42 122.31 L 5.19 122.55 C 6.95 123.23 8.70 123.92 10.40 124.74 C 10.94 126.80 11.60 128.84 12.01 130.93 C 13.24 132.40 14.67 133.83 15.11 135.77 C 12.89 135.72 10.67 135.62 8.45 135.51 L 8.59 134.57 C 7.56 134.19 6.53 133.81 5.51 133.41 L 5.65 132.30 L 4.40 132.55 C 4.40 131.81 4.40 130.32 4.39 129.58 L 3.47 129.59 C 3.23 127.17 2.97 124.73 3.42 122.31 Z" />
<path fill="#dbdbdb" opacity="1.00" d=" M 13.92 126.25 C 14.59 125.21 15.27 124.18 15.88 123.11 C 17.34 125.39 19.54 127.01 22.11 127.82 C 22.59 130.33 23.02 132.84 23.39 135.37 C 19.13 133.70 15.31 130.78 13.92 126.25 Z" />
<path fill="#dbdbdb" opacity="1.00" d=" M 119.00 130.75 C 121.93 130.06 124.95 130.06 127.95 130.17 C 125.95 131.79 123.87 133.39 122.39 135.52 C 122.10 135.91 121.53 136.68 121.25 137.07 C 121.34 139.01 121.44 140.95 121.41 142.90 C 120.93 142.89 119.96 142.87 119.47 142.87 C 119.27 141.15 118.87 139.46 118.65 137.75 C 118.92 135.43 119.01 133.09 119.00 130.75 Z" />
<path fill="#dbdbdb" opacity="1.00" d=" M 43.25 137.41 C 45.66 136.77 47.85 136.86 48.92 139.36 C 46.99 140.33 45.18 142.22 42.80 141.58 C 42.63 140.81 42.28 139.29 42.11 138.52 L 43.63 138.66 L 43.25 137.41 Z" />
<path fill="#dbdbdb" opacity="1.00" d=" M 101.06 152.93 C 101.46 150.49 102.52 148.24 103.51 146.00 C 106.32 150.85 108.89 156.11 113.47 159.57 C 120.67 164.86 130.35 164.78 137.57 170.06 C 134.72 170.32 131.82 170.66 128.98 170.14 C 125.81 169.76 122.35 167.56 119.58 170.24 C 119.15 170.32 118.31 170.48 117.88 170.56 C 116.77 168.67 114.23 169.72 112.44 169.43 L 112.78 168.21 L 111.45 168.65 L 111.50 167.47 L 110.35 167.47 L 110.32 166.00 C 109.79 166.41 108.72 167.24 108.19 167.65 L 108.52 165.44 L 107.27 165.86 C 107.72 163.20 104.30 162.05 103.27 159.82 C 101.93 158.91 102.32 157.13 102.05 155.76 L 101.18 155.73 C 101.15 155.03 101.09 153.63 101.06 152.93 Z" />
<path fill="#dbdbdb" opacity="1.00" d=" M 22.14 150.21 C 22.70 148.29 24.25 147.89 26.04 148.07 C 26.66 148.09 27.90 148.13 28.52 148.16 C 28.51 149.96 28.52 151.76 28.56 153.57 L 26.70 153.48 C 26.37 153.17 25.73 152.55 25.40 152.24 L 25.44 151.21 C 25.04 151.28 24.25 151.43 23.85 151.50 C 23.42 151.18 22.56 150.53 22.14 150.21 Z" />
<path fill="#dbdbdb" opacity="1.00" d=" M 27.95 154.58 C 29.14 154.52 30.33 154.44 31.53 154.36 L 31.34 155.45 C 33.27 156.14 35.16 156.91 36.94 157.93 C 37.95 158.48 39.05 158.76 40.23 158.76 C 40.43 159.09 40.83 159.75 41.02 160.08 C 41.27 160.40 41.77 161.02 42.01 161.34 C 44.25 161.39 46.49 161.28 48.72 161.23 C 48.07 161.75 47.42 162.26 46.77 162.77 C 50.71 163.12 54.98 163.83 57.04 167.64 C 53.67 167.19 50.29 166.74 46.91 166.38 C 48.77 172.49 47.76 178.88 48.42 185.13 C 48.73 180.90 48.68 176.66 48.93 172.43 C 50.40 173.84 52.42 175.18 52.55 177.42 C 52.66 181.84 51.35 186.12 50.75 190.47 C 49.26 190.46 47.77 190.46 46.28 190.47 C 46.55 187.70 45.70 184.31 47.52 182.00 C 46.01 180.65 46.35 177.60 47.37 176.00 C 46.19 173.11 46.72 169.52 45.32 166.50 L 44.37 166.52 L 44.29 165.48 C 43.85 165.54 42.97 165.65 42.53 165.70 L 42.42 164.68 C 41.76 164.65 40.43 164.57 39.76 164.53 C 38.50 163.95 37.17 163.55 35.81 163.27 C 35.36 162.27 34.62 161.58 33.59 161.22 L 33.61 160.40 L 32.51 160.50 L 32.60 159.42 L 31.50 159.47 L 31.54 158.70 C 30.36 157.31 28.96 156.11 27.95 154.58 Z" />
</g>
</svg>
