<?xml version="1.0" encoding="UTF-8" ?>
<!DOCTYPE svg PUBLIC "-//W3C//DTD SVG 1.1//EN" "http://www.w3.org/Graphics/SVG/1.1/DTD/svg11.dtd">
<svg width="210pt" height="220pt" viewBox="0 0 210 220" version="1.1" xmlns="http://www.w3.org/2000/svg">
<g id="#75a845ff">
<path fill="#75a845" opacity="1.00" d=" M 65.01 23.70 C 69.66 22.20 71.68 16.08 76.94 16.03 C 89.97 15.92 103.02 16.06 116.06 15.97 C 120.87 15.75 125.25 18.28 130.04 18.29 C 132.54 18.29 135.10 18.43 137.36 19.65 C 144.90 23.21 153.06 25.05 161.11 27.03 C 166.75 29.41 171.54 33.40 177.10 35.96 C 183.30 40.40 188.19 46.50 192.09 53.01 C 195.01 57.63 196.47 62.98 199.27 67.68 C 201.34 71.17 201.03 75.36 202.04 79.18 C 202.70 81.75 203.25 84.35 203.45 87.00 C 203.69 91.84 207.19 95.97 206.63 100.94 C 205.67 113.41 210.08 125.64 208.36 138.10 C 208.91 143.14 205.32 147.18 204.05 151.84 C 202.08 158.88 197.63 164.80 194.48 171.31 C 192.07 176.62 187.32 180.24 183.52 184.49 C 180.86 187.77 176.20 188.16 173.25 191.12 C 169.60 194.89 165.48 198.45 160.50 200.30 C 155.64 201.49 150.62 201.72 145.65 202.14 C 139.10 202.49 132.54 203.38 126.00 202.54 C 115.36 203.79 104.68 202.06 94.05 203.00 C 85.35 203.04 76.66 202.95 67.96 203.04 C 65.26 203.03 62.44 203.17 59.92 202.00 C 53.23 198.93 45.96 197.47 39.05 195.00 C 36.48 194.05 34.85 191.68 32.51 190.36 C 29.59 188.68 26.23 188.06 23.23 186.58 C 19.08 184.27 15.88 180.70 12.98 177.01 C 7.52 171.57 2.75 165.38 0.00 158.11 L 0.00 81.51 C 2.19 78.24 4.08 74.72 6.95 71.97 C 10.78 68.28 12.94 63.34 16.24 59.24 C 19.08 55.41 22.89 52.34 25.19 48.11 C 27.12 44.44 30.95 42.58 33.97 39.98 C 37.98 35.57 43.21 32.57 48.01 29.12 C 53.49 26.82 59.36 25.52 65.01 23.70 M 114.75 22.25 C 113.57 22.30 112.39 22.35 111.21 22.38 C 104.61 20.71 97.72 21.69 90.99 21.39 C 86.63 21.61 82.18 19.83 77.94 21.44 C 76.92 22.96 75.87 24.47 74.83 25.97 C 78.31 27.70 81.34 30.15 83.94 33.01 C 79.55 29.71 74.20 27.74 70.51 23.53 C 67.78 24.92 68.44 27.93 68.02 30.45 C 66.32 34.91 62.51 38.15 60.39 42.38 C 60.26 45.68 61.80 48.75 62.67 51.88 C 62.42 52.23 61.92 52.93 61.67 53.28 C 59.80 49.41 59.14 45.16 59.19 40.89 C 57.02 40.63 54.86 40.22 52.92 39.16 C 56.02 36.63 59.93 35.77 63.68 34.70 C 65.21 34.39 66.04 32.75 65.23 31.38 C 53.28 30.81 43.28 38.32 34.92 45.94 C 31.72 49.03 31.22 53.90 28.01 57.00 C 21.33 63.84 15.25 71.29 10.46 79.59 C 8.17 83.87 4.37 87.80 4.44 92.94 C 4.33 105.30 4.36 117.67 4.44 130.03 C 4.36 135.43 6.50 140.58 6.34 145.99 C 5.83 152.17 9.72 157.32 12.01 162.75 C 13.98 166.59 16.43 171.67 21.42 171.69 C 21.88 173.68 23.38 175.22 24.44 176.92 C 27.63 178.37 30.89 179.67 34.09 181.09 C 39.69 183.36 43.27 188.88 49.19 190.58 C 57.03 193.10 64.50 197.60 72.96 197.49 C 92.31 197.73 111.65 197.43 131.00 197.60 C 134.11 197.64 137.23 197.41 140.30 196.84 C 144.52 196.08 148.88 196.59 153.06 195.56 C 157.79 194.44 162.09 191.95 165.80 188.87 C 170.28 185.17 176.10 183.39 180.09 179.05 C 184.67 174.72 186.62 168.48 190.83 163.86 C 192.63 161.91 193.90 159.55 194.46 156.96 C 195.83 150.62 201.36 145.80 201.74 139.18 C 200.93 128.45 201.60 117.68 201.41 106.93 C 201.41 104.16 200.59 101.49 199.83 98.86 C 198.29 93.53 198.00 87.95 196.94 82.52 C 195.04 72.45 189.01 63.91 185.09 54.60 C 179.28 43.84 167.21 39.41 158.34 31.80 C 154.64 29.00 149.81 29.05 145.49 27.95 C 138.81 26.12 132.11 24.26 125.26 23.21 C 122.73 22.87 120.83 21.09 118.94 19.55 C 117.55 20.46 116.15 21.36 114.75 22.25 Z" />
<path fill="#75a845" opacity="1.00" d=" M 42.03 42.06 C 43.79 40.62 46.24 38.44 48.55 40.15 C 51.14 41.63 51.29 44.87 51.72 47.49 C 49.92 48.33 48.08 49.08 46.38 50.12 C 46.48 52.06 47.03 53.94 47.50 55.82 C 49.34 55.28 51.18 54.76 52.98 54.12 C 51.34 54.98 49.71 56.93 47.69 56.27 C 44.75 54.43 45.60 50.38 45.03 47.44 C 47.12 47.47 49.21 47.50 51.30 47.49 C 50.52 44.67 49.09 42.11 47.21 39.88 C 44.06 42.19 40.27 44.33 38.77 48.16 C 37.33 53.55 40.79 58.54 44.58 62.00 C 44.38 63.47 44.19 64.94 43.99 66.41 C 43.35 64.73 42.73 63.04 42.09 61.37 C 41.01 61.79 39.92 62.22 38.83 62.64 L 39.10 61.88 C 40.44 58.22 38.20 54.56 37.78 50.93 C 36.92 47.39 39.62 44.30 42.03 42.06 Z" />
<path fill="#75a845" opacity="1.00" d=" M 66.17 43.47 C 66.63 43.95 67.54 44.91 68.00 45.39 C 69.83 47.15 71.34 49.19 72.55 51.42 C 74.79 51.51 77.02 51.59 79.26 51.45 C 80.17 51.40 82.01 51.30 82.93 51.25 C 79.67 55.11 73.37 54.17 69.83 51.14 C 67.43 49.32 66.71 46.28 66.17 43.47 Z" />
<path fill="#75a845" opacity="1.00" d=" M 112.47 54.48 C 114.04 53.40 115.62 52.34 117.21 51.29 C 118.71 52.42 120.22 53.55 121.71 54.70 C 120.85 55.74 119.98 56.76 119.10 57.78 C 116.44 57.79 114.40 56.09 112.47 54.48 Z" />
<path fill="#75a845" opacity="1.00" d=" M 58.90 71.33 C 62.05 71.32 65.19 71.77 68.13 72.94 C 67.28 73.76 66.43 74.56 65.57 75.36 C 65.64 75.85 65.77 76.81 65.84 77.30 C 64.84 76.89 63.84 76.47 62.85 76.04 C 61.31 74.67 60.11 72.98 58.90 71.33 Z" />
<path fill="#75a845" opacity="1.00" d=" M 102.41 78.07 C 102.78 78.17 103.50 78.39 103.86 78.50 C 103.30 79.78 102.74 81.05 102.18 82.33 C 100.35 82.24 98.51 82.22 96.70 81.93 C 98.59 80.62 100.47 79.30 102.41 78.07 Z" />
<path fill="#75a845" opacity="1.00" d=" M 29.66 86.59 C 29.19 83.99 29.78 81.39 30.52 78.90 C 30.33 81.54 30.39 84.20 30.75 86.82 C 32.06 94.36 30.76 102.08 32.17 109.63 C 33.25 108.39 34.32 107.13 35.28 105.80 C 36.46 107.62 37.89 109.26 39.47 110.75 C 40.29 109.86 41.11 108.98 41.93 108.08 C 42.64 108.84 43.36 109.59 44.08 110.35 C 43.68 110.83 42.86 111.77 42.46 112.25 C 41.15 111.72 39.81 111.27 38.48 110.81 C 38.55 111.26 38.69 112.17 38.76 112.63 C 39.07 114.56 39.35 116.50 39.60 118.44 C 37.61 116.70 35.66 114.91 33.89 112.94 C 32.38 110.81 31.20 108.47 30.31 106.03 C 30.65 99.55 30.72 93.01 29.66 86.59 Z" />
<path fill="#75a845" opacity="1.00" d=" M 36.15 123.18 C 37.22 122.20 38.53 121.51 39.75 120.74 C 38.63 125.72 36.75 130.70 37.79 135.88 C 36.86 134.44 35.94 132.99 35.04 131.53 C 34.77 128.74 34.67 125.67 36.15 123.18 Z" />
</g>
<g id="#ed24b9ff">
<path fill="#ed24b9" opacity="1.00" d=" M 114.75 22.25 C 116.15 21.36 117.55 20.46 118.94 19.55 C 120.83 21.09 122.73 22.87 125.26 23.21 C 132.11 24.26 138.81 26.12 145.49 27.95 C 149.81 29.05 154.64 29.00 158.34 31.80 C 167.21 39.41 179.28 43.84 185.09 54.60 C 189.01 63.91 195.04 72.45 196.94 82.52 C 198.00 87.95 198.29 93.53 199.83 98.86 C 200.59 101.49 201.41 104.16 201.41 106.93 C 201.60 117.68 200.93 128.45 201.74 139.18 C 201.36 145.80 195.83 150.62 194.46 156.96 C 193.90 159.55 192.63 161.91 190.83 163.86 C 186.62 168.48 184.67 174.72 180.09 179.05 C 176.10 183.39 170.28 185.17 165.80 188.87 C 162.09 191.95 157.79 194.44 153.06 195.56 C 148.88 196.59 144.52 196.08 140.30 196.84 C 137.23 197.41 134.11 197.64 131.00 197.60 C 111.65 197.43 92.31 197.73 72.96 197.49 C 64.50 197.60 57.03 193.10 49.19 190.58 C 43.27 188.88 39.69 183.36 34.09 181.09 C 30.89 179.67 27.63 178.37 24.44 176.92 C 24.03 167.61 27.55 158.50 32.87 150.99 C 34.70 148.84 36.58 145.53 39.91 146.42 C 43.19 148.53 45.62 151.83 49.22 153.47 C 53.36 155.32 57.95 155.65 62.43 155.67 C 62.46 155.19 62.52 154.23 62.56 153.76 C 59.89 153.03 57.24 152.20 54.62 151.31 C 52.30 150.17 49.95 149.11 47.54 148.16 C 45.64 146.99 43.58 145.91 42.23 144.07 C 42.43 141.24 45.26 139.79 47.11 138.03 C 52.48 133.45 58.86 130.09 65.90 129.03 C 64.30 128.41 62.69 127.82 61.09 127.20 C 62.10 126.72 63.12 126.24 64.13 125.76 C 67.89 127.55 71.30 130.81 75.71 130.60 C 81.78 130.46 87.61 128.04 92.51 124.56 C 95.95 122.11 99.86 120.13 104.20 120.31 C 108.67 114.45 114.90 110.24 119.46 104.46 C 122.43 100.47 126.15 96.71 127.04 91.61 C 123.75 91.34 120.38 91.72 117.15 91.00 C 111.86 88.64 108.21 83.06 102.18 82.33 C 102.74 81.05 103.30 79.78 103.86 78.50 C 110.76 80.35 114.42 88.62 122.00 88.54 C 125.32 88.94 127.74 85.80 128.43 82.89 C 129.20 78.18 127.11 73.70 126.08 69.21 C 128.72 68.24 131.44 67.03 134.33 67.38 C 139.70 68.22 144.63 65.32 149.82 64.45 C 149.37 62.19 148.87 59.94 148.38 57.68 C 146.51 59.60 144.65 61.56 142.48 63.16 C 142.18 62.50 141.56 61.18 141.25 60.52 C 139.98 60.54 138.70 60.57 137.43 60.61 C 138.19 58.21 139.57 56.09 140.83 53.94 C 139.30 50.40 137.84 46.82 136.30 43.28 C 137.50 41.08 138.48 38.77 139.26 36.37 C 133.99 36.86 129.64 40.36 124.37 40.86 C 119.51 41.57 113.54 44.61 109.45 40.36 C 109.07 37.91 110.48 35.74 111.40 33.59 C 113.10 30.00 113.82 26.08 114.75 22.25 M 139.24 30.37 C 139.35 32.39 139.02 35.75 142.00 35.53 C 145.33 35.97 145.78 30.55 142.98 29.57 C 141.71 29.76 140.47 30.02 139.24 30.37 M 167.40 60.74 C 167.74 63.09 170.69 62.37 172.36 62.59 C 172.94 60.74 174.08 58.19 171.60 57.21 C 169.49 55.31 166.44 58.35 167.40 60.74 M 146.38 76.38 C 143.66 76.88 144.03 82.24 147.12 81.78 C 148.86 82.19 150.82 80.94 150.48 79.01 C 150.67 76.74 148.27 75.75 146.38 76.38 M 187.46 80.41 C 187.44 82.10 187.45 83.79 187.50 85.48 C 189.20 85.54 190.90 85.55 192.60 85.53 C 192.64 83.89 192.72 82.23 192.41 80.60 C 190.78 80.29 189.11 80.37 187.46 80.41 M 171.18 96.67 C 171.65 97.45 172.59 99.00 173.07 99.77 C 175.72 100.13 177.08 98.28 178.02 96.08 C 176.95 95.11 175.87 94.14 174.80 93.18 C 173.58 94.34 172.37 95.50 171.18 96.67 M 136.36 100.26 C 133.01 101.22 134.75 106.42 137.87 105.72 C 139.84 105.87 140.87 103.74 140.60 102.02 C 139.71 100.63 138.00 98.76 136.36 100.26 M 182.47 121.45 C 182.45 123.11 182.48 124.78 182.56 126.45 C 184.22 126.52 185.89 126.55 187.56 126.54 C 187.65 124.91 187.98 123.21 187.36 121.64 C 185.78 121.04 184.09 121.36 182.47 121.45 M 115.54 122.51 C 115.52 124.16 115.52 125.81 115.56 127.47 C 118.18 128.07 120.56 127.46 121.94 125.00 C 120.57 122.52 118.18 121.89 115.54 122.51 M 151.70 126.70 C 149.84 127.91 151.15 129.96 151.41 131.63 C 153.02 131.55 154.63 131.45 156.24 131.33 C 156.38 129.96 156.51 128.59 156.64 127.22 C 155.01 126.71 153.08 124.73 151.70 126.70 M 94.63 141.36 C 94.14 143.19 92.91 145.85 95.34 146.86 C 97.15 148.69 100.04 146.13 99.55 143.97 C 99.61 141.47 96.45 141.44 94.63 141.36 M 138.21 144.69 C 138.55 146.93 141.18 146.54 142.82 146.83 C 143.14 145.44 144.10 143.98 143.54 142.55 C 142.73 141.69 141.89 140.88 141.02 140.10 C 139.64 141.32 137.47 142.50 138.21 144.69 M 179.32 157.20 C 179.47 158.60 179.64 160.00 179.80 161.40 C 181.68 161.42 184.33 162.18 185.12 159.81 C 186.40 158.04 184.21 156.48 182.96 155.55 C 181.71 156.03 180.52 156.62 179.32 157.20 M 160.47 162.49 C 162.14 162.53 163.81 162.52 165.48 162.50 C 165.55 160.94 165.60 159.39 165.62 157.84 C 164.89 157.46 163.43 156.70 162.69 156.33 C 160.37 157.67 160.05 160.05 160.47 162.49 M 86.54 159.58 C 85.00 160.73 85.75 162.84 85.52 164.48 C 87.14 164.51 88.81 164.83 90.41 164.40 C 92.41 163.38 90.85 160.97 90.74 159.32 C 89.34 159.37 87.93 159.35 86.54 159.58 M 122.35 162.36 C 122.35 164.07 122.39 165.78 122.47 167.50 C 124.13 167.50 125.78 167.46 127.43 167.40 C 127.51 165.75 127.55 164.09 127.56 162.44 C 125.82 162.36 124.09 162.34 122.35 162.36 M 55.05 172.63 C 53.02 173.91 52.76 177.05 55.17 178.07 C 56.95 179.31 58.63 177.37 59.47 175.95 C 59.71 173.60 57.27 171.66 55.05 172.63 M 109.29 186.10 C 109.39 187.59 109.50 189.07 109.62 190.55 C 112.24 191.17 114.56 190.51 115.83 187.98 C 115.07 187.10 114.28 186.25 113.45 185.44 C 112.05 184.91 110.64 185.80 109.29 186.10 M 83.45 190.47 C 80.46 192.91 85.25 197.61 87.67 194.69 C 90.80 192.15 86.01 187.20 83.45 190.47 Z" />
<path fill="#ed24b9" opacity="1.00" d=" M 77.94 21.44 C 82.18 19.83 86.63 21.61 90.99 21.39 C 97.72 21.69 104.61 20.71 111.21 22.38 C 108.88 27.36 107.00 32.57 106.18 38.02 C 103.85 38.71 101.54 39.49 99.28 40.38 C 98.86 39.29 98.44 38.20 98.00 37.12 C 98.63 37.87 99.27 38.62 99.93 39.35 C 102.00 38.19 104.08 37.03 106.15 35.86 C 103.94 33.78 101.60 31.84 99.16 30.05 C 103.41 28.54 107.70 26.40 109.81 22.17 C 99.22 21.02 88.56 21.69 77.94 21.44 Z" />
<path fill="#ed24b9" opacity="1.00" d=" M 97.20 68.04 C 99.02 63.92 100.95 59.85 103.09 55.89 C 105.39 58.46 106.38 62.37 109.77 63.79 L 109.27 63.90 C 108.60 64.05 107.26 64.35 106.58 64.51 C 109.08 66.98 112.22 68.59 115.60 69.48 C 116.97 70.03 118.58 70.26 119.66 71.34 C 120.89 74.35 121.23 77.63 121.77 80.82 C 115.81 81.14 112.37 75.31 106.90 73.99 C 103.13 73.01 99.57 71.24 97.20 68.04 Z" />
<path fill="#ed24b9" opacity="1.00" d=" M 31.18 70.27 C 33.16 66.92 36.56 64.76 39.10 61.88 L 38.83 62.64 C 36.83 68.13 33.98 73.27 30.72 78.10 C 30.88 75.49 30.66 72.84 31.18 70.27 Z" />
<path fill="#ed24b9" opacity="1.00" d=" M 11.04 91.57 C 12.04 87.02 14.00 82.75 16.60 78.90 C 16.58 83.69 16.86 88.80 14.21 93.04 C 13.15 92.55 12.10 92.06 11.04 91.57 Z" />
<path fill="#ed24b9" opacity="1.00" d=" M 27.89 113.66 C 28.65 111.10 29.53 108.58 30.31 106.03 C 31.20 108.47 32.38 110.81 33.89 112.94 C 31.89 113.19 29.89 113.44 27.89 113.66 Z" />
</g>
<g id="#f694d7ff">
<path fill="#f694d7" opacity="1.00" d=" M 74.83 25.97 C 75.87 24.47 76.92 22.96 77.94 21.44 C 88.56 21.69 99.22 21.02 109.81 22.17 C 107.70 26.40 103.41 28.54 99.16 30.05 C 101.60 31.84 103.94 33.78 106.15 35.86 C 104.08 37.03 102.00 38.19 99.93 39.35 C 99.27 38.62 98.63 37.87 98.00 37.12 C 97.52 36.20 97.04 35.28 96.56 34.36 C 95.58 34.30 94.60 34.25 93.63 34.19 C 93.55 36.52 93.47 38.84 93.35 41.16 C 89.93 38.78 86.91 35.92 83.94 33.01 C 81.34 30.15 78.31 27.70 74.83 25.97 M 89.83 24.39 C 89.50 25.04 88.83 26.34 88.50 26.99 C 88.82 27.65 89.47 28.98 89.79 29.65 C 91.35 29.62 92.90 29.56 94.46 29.47 C 94.46 27.84 94.44 26.22 94.39 24.59 C 92.87 24.50 91.35 24.43 89.83 24.39 Z" />
<path fill="#f694d7" opacity="1.00" d=" M 34.92 45.94 C 43.28 38.32 53.28 30.81 65.23 31.38 C 66.04 32.75 65.21 34.39 63.68 34.70 C 59.93 35.77 56.02 36.63 52.92 39.16 C 54.86 40.22 57.02 40.63 59.19 40.89 C 59.14 45.16 59.80 49.41 61.67 53.28 C 61.31 53.79 60.59 54.81 60.23 55.33 C 58.83 54.21 57.44 53.10 56.04 52.00 C 55.02 52.71 54.01 53.43 52.98 54.12 C 51.18 54.76 49.34 55.28 47.50 55.82 C 47.03 53.94 46.48 52.06 46.38 50.12 C 48.08 49.08 49.92 48.33 51.72 47.49 C 51.29 44.87 51.14 41.63 48.55 40.15 C 46.24 38.44 43.79 40.62 42.03 42.06 C 39.62 44.30 36.92 47.39 37.78 50.93 C 38.20 54.56 40.44 58.22 39.10 61.88 C 36.56 64.76 33.16 66.92 31.18 70.27 C 30.66 72.84 30.88 75.49 30.72 78.10 L 30.52 78.90 C 29.78 81.39 29.19 83.99 29.66 86.59 C 30.72 93.01 30.65 99.55 30.31 106.03 C 29.53 108.58 28.65 111.10 27.89 113.66 C 29.89 113.44 31.89 113.19 33.89 112.94 C 35.66 114.91 37.61 116.70 39.60 118.44 C 39.35 116.50 39.07 114.56 38.76 112.63 C 40.86 114.30 42.93 116.01 44.97 117.75 C 44.28 118.65 43.59 119.55 42.90 120.45 C 47.57 122.91 52.32 125.34 56.31 128.85 C 50.71 132.04 45.41 135.74 39.85 139.00 C 39.15 137.97 38.46 136.93 37.79 135.88 C 36.75 130.70 38.63 125.72 39.75 120.74 C 38.53 121.51 37.22 122.20 36.15 123.18 C 34.67 125.67 34.77 128.74 35.04 131.53 C 35.26 135.05 35.67 138.57 36.63 141.98 C 28.55 149.94 22.63 160.28 21.42 171.69 C 16.43 171.67 13.98 166.59 12.01 162.75 C 9.72 157.32 5.83 152.17 6.34 145.99 C 6.50 140.58 4.36 135.43 4.44 130.03 C 4.36 117.67 4.33 105.30 4.44 92.94 C 4.37 87.80 8.17 83.87 10.46 79.59 C 15.25 71.29 21.33 63.84 28.01 57.00 C 31.22 53.90 31.72 49.03 34.92 45.94 M 20.69 73.67 C 18.84 74.93 20.29 76.95 20.57 78.62 C 22.15 78.54 23.72 78.44 25.30 78.31 C 25.38 76.78 25.44 75.24 25.47 73.70 C 23.85 73.31 21.82 71.53 20.69 73.67 M 11.04 91.57 C 12.10 92.06 13.15 92.55 14.21 93.04 C 16.86 88.80 16.58 83.69 16.60 78.90 C 14.00 82.75 12.04 87.02 11.04 91.57 M 18.13 100.29 C 17.52 101.18 16.94 102.09 16.41 103.02 C 15.89 105.67 19.84 107.97 21.46 105.44 C 23.22 104.14 21.77 102.27 21.37 100.68 C 20.29 100.55 19.21 100.42 18.13 100.29 M 26.48 118.35 C 26.45 119.41 26.42 120.47 26.39 121.53 C 27.98 121.42 29.57 121.31 31.15 121.20 C 31.22 120.72 31.34 119.74 31.41 119.26 C 29.77 118.90 28.13 118.61 26.48 118.35 M 20.25 131.75 C 21.87 135.72 24.07 139.69 27.60 142.28 C 29.44 142.75 31.37 142.60 33.25 142.67 C 29.51 139.69 25.18 137.17 22.66 132.97 C 22.31 129.83 22.64 126.66 22.47 123.50 C 21.26 126.02 18.67 128.86 20.25 131.75 M 8.49 133.51 C 8.44 135.17 8.43 136.85 8.48 138.52 C 10.18 138.59 11.88 138.60 13.58 138.57 C 13.61 136.87 13.60 135.18 13.54 133.48 C 11.86 133.44 10.17 133.45 8.49 133.51 Z" />
<path fill="#f694d7" opacity="1.00" d=" M 69.52 34.48 C 70.84 31.93 73.52 33.93 75.32 34.74 C 78.21 35.96 80.34 38.28 81.97 40.89 C 79.25 38.79 76.38 35.42 72.57 36.31 C 69.68 36.76 68.16 39.54 66.39 41.53 C 67.47 42.39 68.56 43.25 69.65 44.10 C 69.23 44.42 68.41 45.07 68.00 45.39 C 67.54 44.91 66.63 43.95 66.17 43.47 C 64.36 40.33 67.84 37.03 69.52 34.48 Z" />
<path fill="#f694d7" opacity="1.00" d=" M 119.16 48.11 C 123.09 45.61 127.88 45.33 132.40 45.34 C 133.41 47.98 135.94 50.43 135.40 53.42 C 133.75 55.63 131.80 57.74 129.41 59.16 C 126.97 59.89 124.39 59.65 121.89 59.57 C 126.81 58.05 131.12 55.12 135.26 52.14 C 131.46 47.30 124.80 46.17 119.16 48.11 Z" />
<path fill="#f694d7" opacity="1.00" d=" M 89.07 49.73 C 91.95 49.03 95.10 48.65 97.09 46.19 C 98.29 46.92 99.50 47.63 100.72 48.34 C 99.39 53.94 98.87 59.99 94.98 64.59 C 91.73 64.13 88.58 64.71 85.85 66.57 C 86.78 68.53 87.87 70.42 88.93 72.31 C 86.46 72.42 83.84 72.87 81.57 71.61 C 77.15 69.55 72.33 68.70 67.54 68.09 C 70.46 64.78 75.56 66.44 78.94 64.01 C 83.12 61.43 86.16 57.32 90.70 55.28 C 90.06 53.46 89.46 51.62 89.07 49.73 Z" />
<path fill="#f694d7" opacity="1.00" d=" M 102.56 52.72 C 103.97 52.46 105.39 52.32 106.81 52.09 C 106.68 53.78 106.55 55.48 106.32 57.17 C 105.03 55.71 103.78 54.23 102.56 52.72 Z" />
<path fill="#f694d7" opacity="1.00" d=" M 137.43 60.61 C 138.70 60.57 139.98 60.54 141.25 60.52 C 141.56 61.18 142.18 62.50 142.48 63.16 C 140.72 63.48 138.93 63.67 137.15 63.87 C 137.22 63.05 137.36 61.42 137.43 60.61 Z" />
<path fill="#f694d7" opacity="1.00" d=" M 106.58 64.51 C 107.26 64.35 108.60 64.05 109.27 63.90 C 111.50 65.62 113.49 67.62 115.60 69.48 C 112.22 68.59 109.08 66.98 106.58 64.51 Z" />
<path fill="#f694d7" opacity="1.00" d=" M 76.08 72.72 C 82.20 71.02 86.57 77.03 92.53 76.62 C 95.88 76.52 99.22 77.01 102.41 78.07 C 100.47 79.30 98.59 80.62 96.70 81.93 C 89.62 79.41 82.57 76.53 76.08 72.72 Z" />
<path fill="#f694d7" opacity="1.00" d=" M 49.51 120.37 C 54.74 120.91 59.24 124.06 64.13 125.76 C 63.12 126.24 62.10 126.72 61.09 127.20 C 57.00 125.39 52.35 124.12 49.51 120.37 Z" />
<path fill="#f694d7" opacity="1.00" d=" M 47.54 148.16 C 49.95 149.11 52.30 150.17 54.62 151.31 C 53.46 151.41 52.31 151.54 51.15 151.68 C 49.96 150.49 48.78 149.30 47.54 148.16 Z" />
</g>
<g id="#0a090aff">
<path fill="#0a090a" opacity="1.00" d=" M 111.21 22.38 C 112.39 22.35 113.57 22.30 114.75 22.25 C 113.82 26.08 113.10 30.00 111.40 33.59 C 110.48 35.74 109.07 37.91 109.45 40.36 C 113.54 44.61 119.51 41.57 124.37 40.86 C 129.64 40.36 133.99 36.86 139.26 36.37 C 138.48 38.77 137.50 41.08 136.30 43.28 C 137.84 46.82 139.30 50.40 140.83 53.94 C 139.57 56.09 138.19 58.21 137.43 60.61 C 137.36 61.42 137.22 63.05 137.15 63.87 C 138.93 63.67 140.72 63.48 142.48 63.16 C 144.65 61.56 146.51 59.60 148.38 57.68 C 148.87 59.94 149.37 62.19 149.82 64.45 C 144.63 65.32 139.70 68.22 134.33 67.38 C 131.44 67.03 128.72 68.24 126.08 69.21 C 127.11 73.70 129.20 78.18 128.43 82.89 C 127.74 85.80 125.32 88.94 122.00 88.54 C 114.42 88.62 110.76 80.35 103.86 78.50 C 103.50 78.39 102.78 78.17 102.41 78.07 C 99.22 77.01 95.88 76.52 92.53 76.62 C 86.57 77.03 82.20 71.02 76.08 72.72 C 82.57 76.53 89.62 79.41 96.70 81.93 C 98.51 82.22 100.35 82.24 102.18 82.33 C 108.21 83.06 111.86 88.64 117.15 91.00 C 120.38 91.72 123.75 91.34 127.04 91.61 C 126.15 96.71 122.43 100.47 119.46 104.46 C 114.90 110.24 108.67 114.45 104.20 120.31 C 99.86 120.13 95.95 122.11 92.51 124.56 C 87.61 128.04 81.78 130.46 75.71 130.60 C 71.30 130.81 67.89 127.55 64.13 125.76 C 59.24 124.06 54.74 120.91 49.51 120.37 C 52.35 124.12 57.00 125.39 61.09 127.20 C 62.69 127.82 64.30 128.41 65.90 129.03 C 58.86 130.09 52.48 133.45 47.11 138.03 C 45.26 139.79 42.43 141.24 42.23 144.07 C 43.58 145.91 45.64 146.99 47.54 148.16 C 48.78 149.30 49.96 150.49 51.15 151.68 C 52.31 151.54 53.46 151.41 54.62 151.31 C 57.24 152.20 59.89 153.03 62.56 153.76 C 62.52 154.23 62.46 155.19 62.43 155.67 C 57.95 155.65 53.36 155.32 49.22 153.47 C 45.62 151.83 43.19 148.53 39.91 146.42 C 36.58 145.53 34.70 148.84 32.87 150.99 C 27.55 158.50 24.03 167.61 24.44 176.92 C 23.38 175.22 21.88 173.68 21.42 171.69 C 22.63 160.28 28.55 149.94 36.63 141.98 C 35.67 138.57 35.26 135.05 35.04 131.53 C 35.94 132.99 36.86 134.44 37.79 135.88 C 38.46 136.93 39.15 137.97 39.85 139.00 C 45.41 135.74 50.71 132.04 56.31 128.85 C 52.32 125.34 47.57 122.91 42.90 120.45 C 43.59 119.55 44.28 118.65 44.97 117.75 C 42.93 116.01 40.86 114.30 38.76 112.63 C 38.69 112.17 38.55 111.26 38.48 110.81 C 39.81 111.27 41.15 111.72 42.46 112.25 C 45.23 113.64 47.77 115.43 50.42 117.04 C 53.28 112.96 55.36 108.39 57.40 103.85 C 57.12 101.06 55.51 98.58 54.50 96.00 C 48.50 98.69 48.98 106.45 44.08 110.35 C 43.36 109.59 42.64 108.84 41.93 108.08 C 45.39 104.30 48.05 99.32 47.35 94.04 C 45.38 94.40 43.35 94.66 41.52 95.52 C 39.10 98.72 37.65 102.55 35.28 105.80 C 34.32 107.13 33.25 108.39 32.17 109.63 C 30.76 102.08 32.06 94.36 30.75 86.82 C 30.39 84.20 30.33 81.54 30.52 78.90 L 30.72 78.10 C 33.98 73.27 36.83 68.13 38.83 62.64 C 39.92 62.22 41.01 61.79 42.09 61.37 C 42.73 63.04 43.35 64.73 43.99 66.41 C 50.59 66.52 57.20 66.54 63.80 66.51 C 62.71 65.47 61.57 64.48 60.38 63.55 C 55.17 62.64 49.33 64.95 44.58 62.00 C 40.79 58.54 37.33 53.55 38.77 48.16 C 40.27 44.33 44.06 42.19 47.21 39.88 C 49.09 42.11 50.52 44.67 51.30 47.49 C 49.21 47.50 47.12 47.47 45.03 47.44 C 45.60 50.38 44.75 54.43 47.69 56.27 C 49.71 56.93 51.34 54.98 52.98 54.12 C 54.01 53.43 55.02 52.71 56.04 52.00 C 57.44 53.10 58.83 54.21 60.23 55.33 C 60.59 54.81 61.31 53.79 61.67 53.28 C 61.92 52.93 62.42 52.23 62.67 51.88 C 61.80 48.75 60.26 45.68 60.39 42.38 C 62.51 38.15 66.32 34.91 68.02 30.45 C 68.44 27.93 67.78 24.92 70.51 23.53 C 74.20 27.74 79.55 29.71 83.94 33.01 C 86.91 35.92 89.93 38.78 93.35 41.16 C 93.47 38.84 93.55 36.52 93.63 34.19 C 94.60 34.25 95.58 34.30 96.56 34.36 C 97.04 35.28 97.52 36.20 98.00 37.12 C 98.44 38.20 98.86 39.29 99.28 40.38 C 101.54 39.49 103.85 38.71 106.18 38.02 C 107.00 32.57 108.88 27.36 111.21 22.38 M 69.52 34.48 C 67.84 37.03 64.36 40.33 66.17 43.47 C 66.71 46.28 67.43 49.32 69.83 51.14 C 73.37 54.17 79.67 55.11 82.93 51.25 C 82.01 51.30 80.17 51.40 79.26 51.45 C 77.71 49.79 77.05 47.73 77.41 45.48 C 79.97 45.17 82.50 45.50 84.77 46.80 C 85.14 44.30 84.03 42.26 81.97 40.89 C 80.34 38.28 78.21 35.96 75.32 34.74 C 73.52 33.93 70.84 31.93 69.52 34.48 M 119.16 48.11 C 116.93 48.95 114.68 49.83 112.70 51.19 C 112.59 52.28 112.51 53.38 112.47 54.48 C 114.40 56.09 116.44 57.79 119.10 57.78 C 118.74 58.20 118.03 59.02 117.67 59.44 C 119.07 59.60 120.48 59.64 121.89 59.57 C 124.39 59.65 126.97 59.89 129.41 59.16 C 131.80 57.74 133.75 55.63 135.40 53.42 C 135.94 50.43 133.41 47.98 132.40 45.34 C 127.88 45.33 123.09 45.61 119.16 48.11 M 89.07 49.73 C 89.46 51.62 90.06 53.46 90.70 55.28 C 86.16 57.32 83.12 61.43 78.94 64.01 C 75.56 66.44 70.46 64.78 67.54 68.09 C 72.33 68.70 77.15 69.55 81.57 71.61 C 83.84 72.87 86.46 72.42 88.93 72.31 C 87.87 70.42 86.78 68.53 85.85 66.57 C 88.58 64.71 91.73 64.13 94.98 64.59 C 98.87 59.99 99.39 53.94 100.72 48.34 C 99.50 47.63 98.29 46.92 97.09 46.19 C 95.10 48.65 91.95 49.03 89.07 49.73 M 102.56 52.72 C 103.78 54.23 105.03 55.71 106.32 57.17 C 106.55 55.48 106.68 53.78 106.81 52.09 C 105.39 52.32 103.97 52.46 102.56 52.72 M 97.20 68.04 C 99.57 71.24 103.13 73.01 106.90 73.99 C 112.37 75.31 115.81 81.14 121.77 80.82 C 121.23 77.63 120.89 74.35 119.66 71.34 C 118.58 70.26 116.97 70.03 115.60 69.48 C 113.49 67.62 111.50 65.62 109.27 63.90 L 109.77 63.79 C 106.38 62.37 105.39 58.46 103.09 55.89 C 100.95 59.85 99.02 63.92 97.20 68.04 M 37.35 73.25 C 35.88 78.09 34.72 83.12 34.38 88.16 C 37.71 86.44 40.82 84.18 43.50 81.57 C 44.95 77.92 45.64 73.96 47.87 70.63 C 44.47 71.12 38.73 68.77 37.35 73.25 M 58.90 71.33 C 60.11 72.98 61.31 74.67 62.85 76.04 C 62.05 75.75 60.46 75.16 59.67 74.86 C 57.06 79.72 55.37 85.27 56.67 90.79 C 58.89 88.87 61.44 87.41 64.11 86.24 C 65.07 83.41 66.20 80.63 66.87 77.72 L 65.84 77.30 C 65.77 76.81 65.64 75.85 65.57 75.36 C 66.43 74.56 67.28 73.76 68.13 72.94 C 65.19 71.77 62.05 71.32 58.90 71.33 M 49.35 72.10 C 48.05 76.94 46.01 81.61 45.35 86.59 C 48.18 86.95 50.98 86.11 53.13 84.23 C 54.63 80.78 56.09 77.29 57.03 73.64 C 54.49 73.03 51.96 72.39 49.35 72.10 M 69.73 77.23 C 68.80 80.89 67.30 84.38 66.38 88.03 C 66.80 89.58 67.59 91.01 68.25 92.48 C 70.24 91.71 72.27 91.02 74.31 90.37 C 75.49 86.61 76.80 82.82 76.66 78.81 C 74.31 78.47 72.02 77.83 69.73 77.23 M 79.72 80.06 C 79.23 83.99 77.65 87.65 76.60 91.44 C 75.90 93.41 77.74 95.00 78.43 96.71 C 80.95 96.43 84.59 96.94 85.82 94.13 C 87.36 90.22 88.93 86.12 88.59 81.83 C 85.61 81.37 82.68 80.62 79.72 80.06 M 88.78 93.77 C 88.16 96.24 87.59 99.42 89.77 101.31 C 91.55 101.89 93.45 101.39 95.28 101.38 C 97.05 96.79 98.41 92.01 98.92 87.11 C 96.46 86.01 93.98 84.98 91.53 83.88 C 90.69 87.19 89.85 90.51 88.78 93.77 M 101.78 89.02 C 101.02 95.28 97.06 101.02 98.65 107.48 C 99.20 107.51 100.28 107.58 100.82 107.61 C 105.06 102.97 106.40 96.61 110.16 91.65 C 107.40 90.69 104.65 89.65 101.78 89.02 M 34.43 94.72 C 34.35 96.62 34.34 98.52 34.44 100.41 C 36.51 97.89 38.34 95.17 40.00 92.35 C 38.14 93.15 36.29 93.95 34.43 94.72 M 111.35 94.35 C 109.22 98.88 106.75 103.24 104.86 107.88 C 107.25 104.91 110.08 102.34 112.62 99.50 C 114.00 98.16 113.58 96.10 113.85 94.37 C 113.23 94.36 111.98 94.35 111.35 94.35 M 60.96 102.92 C 58.47 108.04 55.94 113.15 53.34 118.22 C 55.22 119.17 57.13 120.08 59.08 120.90 C 62.61 116.09 66.45 111.38 68.59 105.74 C 68.59 103.68 67.25 101.92 66.52 100.06 C 64.63 100.94 62.71 101.78 60.96 102.92 M 69.95 108.77 C 67.82 113.50 64.65 117.64 60.95 121.25 C 63.60 122.98 66.54 124.27 69.64 124.94 C 72.83 120.66 75.81 116.16 78.25 111.41 C 78.22 109.23 77.47 107.13 77.26 104.96 C 74.62 105.62 70.96 105.74 69.95 108.77 M 80.27 114.18 C 77.91 118.21 74.74 121.69 72.47 125.78 C 75.35 125.30 78.45 125.14 81.10 123.92 C 83.28 121.17 85.66 118.56 87.69 115.70 C 87.64 113.72 86.69 111.91 86.19 110.03 C 84.07 111.17 81.47 111.91 80.27 114.18 M 93.44 111.72 C 91.03 116.49 87.24 120.33 84.61 124.91 C 90.48 123.84 93.08 117.67 96.97 113.81 C 95.80 113.10 94.63 112.39 93.44 111.72 Z" />
<path fill="#0a090a" opacity="1.00" d=" M 89.83 24.39 C 91.35 24.43 92.87 24.50 94.39 24.59 C 94.44 26.22 94.46 27.84 94.46 29.47 C 92.90 29.56 91.35 29.62 89.79 29.65 C 89.47 28.98 88.82 27.65 88.50 26.99 C 88.83 26.34 89.50 25.04 89.83 24.39 Z" />
<path fill="#0a090a" opacity="1.00" d=" M 139.24 30.37 C 140.47 30.02 141.71 29.76 142.98 29.57 C 145.78 30.55 145.33 35.97 142.00 35.53 C 139.02 35.75 139.35 32.39 139.24 30.37 Z" />
<path fill="#0a090a" opacity="1.00" d=" M 167.40 60.74 C 166.44 58.35 169.49 55.31 171.60 57.21 C 174.08 58.19 172.94 60.74 172.36 62.59 C 170.69 62.37 167.74 63.09 167.40 60.74 Z" />
<path fill="#0a090a" opacity="1.00" d=" M 20.69 73.67 C 21.82 71.53 23.85 73.31 25.47 73.70 C 25.44 75.24 25.38 76.78 25.30 78.31 C 23.72 78.44 22.15 78.54 20.57 78.62 C 20.29 76.95 18.84 74.93 20.69 73.67 Z" />
<path fill="#0a090a" opacity="1.00" d=" M 146.38 76.38 C 148.27 75.75 150.67 76.74 150.48 79.01 C 150.82 80.94 148.86 82.19 147.12 81.78 C 144.03 82.24 143.66 76.88 146.38 76.38 Z" />
<path fill="#0a090a" opacity="1.00" d=" M 187.46 80.41 C 189.11 80.37 190.78 80.29 192.41 80.60 C 192.72 82.23 192.64 83.89 192.60 85.53 C 190.90 85.55 189.20 85.54 187.50 85.48 C 187.45 83.79 187.44 82.10 187.46 80.41 Z" />
<path fill="#0a090a" opacity="1.00" d=" M 171.18 96.67 C 172.37 95.50 173.58 94.34 174.80 93.18 C 175.87 94.14 176.95 95.11 178.02 96.08 C 177.08 98.28 175.72 100.13 173.07 99.77 C 172.59 99.00 171.65 97.45 171.18 96.67 Z" />
<path fill="#0a090a" opacity="1.00" d=" M 18.13 100.29 C 19.21 100.42 20.29 100.55 21.37 100.68 C 21.77 102.27 23.22 104.14 21.46 105.44 C 19.84 107.97 15.89 105.67 16.41 103.02 C 16.94 102.09 17.52 101.18 18.13 100.29 Z" />
<path fill="#0a090a" opacity="1.00" d=" M 136.36 100.26 C 138.00 98.76 139.71 100.63 140.60 102.02 C 140.87 103.74 139.84 105.87 137.87 105.72 C 134.75 106.42 133.01 101.22 136.36 100.26 Z" />
<path fill="#0a090a" opacity="1.00" d=" M 26.48 118.35 C 28.13 118.61 29.77 118.90 31.41 119.26 C 31.34 119.74 31.22 120.72 31.15 121.20 C 29.57 121.31 27.98 121.42 26.39 121.53 C 26.42 120.47 26.45 119.41 26.48 118.35 Z" />
<path fill="#0a090a" opacity="1.00" d=" M 182.47 121.45 C 184.09 121.36 185.78 121.04 187.36 121.64 C 187.98 123.21 187.65 124.91 187.56 126.54 C 185.89 126.55 184.22 126.52 182.56 126.45 C 182.48 124.78 182.45 123.11 182.47 121.45 Z" />
<path fill="#0a090a" opacity="1.00" d=" M 115.54 122.51 C 118.18 121.89 120.57 122.52 121.94 125.00 C 120.56 127.46 118.18 128.07 115.56 127.47 C 115.52 125.81 115.52 124.16 115.54 122.51 Z" />
<path fill="#0a090a" opacity="1.00" d=" M 20.25 131.75 C 18.67 128.86 21.26 126.02 22.47 123.50 C 22.64 126.66 22.31 129.83 22.66 132.97 C 25.18 137.17 29.51 139.69 33.25 142.67 C 31.37 142.60 29.44 142.75 27.60 142.28 C 24.07 139.69 21.87 135.72 20.25 131.75 Z" />
<path fill="#0a090a" opacity="1.00" d=" M 151.70 126.70 C 153.08 124.73 155.01 126.71 156.64 127.22 C 156.51 128.59 156.38 129.96 156.24 131.33 C 154.63 131.45 153.02 131.55 151.41 131.63 C 151.15 129.96 149.84 127.91 151.70 126.70 Z" />
<path fill="#0a090a" opacity="1.00" d=" M 8.49 133.51 C 10.17 133.45 11.86 133.44 13.54 133.48 C 13.60 135.18 13.61 136.87 13.58 138.57 C 11.88 138.60 10.18 138.59 8.48 138.52 C 8.43 136.85 8.44 135.17 8.49 133.51 Z" />
<path fill="#0a090a" opacity="1.00" d=" M 94.63 141.36 C 96.45 141.44 99.61 141.47 99.55 143.97 C 100.04 146.13 97.15 148.69 95.34 146.86 C 92.91 145.85 94.14 143.19 94.63 141.36 Z" />
<path fill="#0a090a" opacity="1.00" d=" M 138.21 144.69 C 137.47 142.50 139.64 141.32 141.02 140.10 C 141.89 140.88 142.73 141.69 143.54 142.55 C 144.10 143.98 143.14 145.44 142.82 146.83 C 141.18 146.54 138.55 146.93 138.21 144.69 Z" />
<path fill="#0a090a" opacity="1.00" d=" M 179.32 157.20 C 180.52 156.62 181.71 156.03 182.96 155.55 C 184.21 156.48 186.40 158.04 185.12 159.81 C 184.33 162.18 181.68 161.42 179.80 161.40 C 179.64 160.00 179.47 158.60 179.32 157.20 Z" />
<path fill="#0a090a" opacity="1.00" d=" M 160.47 162.49 C 160.05 160.05 160.37 157.67 162.69 156.33 C 163.43 156.70 164.89 157.46 165.62 157.84 C 165.60 159.39 165.55 160.94 165.48 162.50 C 163.81 162.52 162.14 162.53 160.47 162.49 Z" />
<path fill="#0a090a" opacity="1.00" d=" M 86.54 159.58 C 87.93 159.35 89.34 159.37 90.74 159.32 C 90.85 160.97 92.41 163.38 90.41 164.40 C 88.81 164.83 87.14 164.51 85.52 164.48 C 85.75 162.84 85.00 160.73 86.54 159.58 Z" />
<path fill="#0a090a" opacity="1.00" d=" M 122.35 162.36 C 124.09 162.34 125.82 162.36 127.56 162.44 C 127.55 164.09 127.51 165.75 127.43 167.40 C 125.78 167.46 124.13 167.50 122.47 167.50 C 122.39 165.78 122.35 164.07 122.35 162.36 Z" />
<path fill="#0a090a" opacity="1.00" d=" M 55.05 172.63 C 57.27 171.66 59.71 173.60 59.47 175.95 C 58.63 177.37 56.95 179.31 55.17 178.07 C 52.76 177.05 53.02 173.91 55.05 172.63 Z" />
<path fill="#0a090a" opacity="1.00" d=" M 109.29 186.10 C 110.64 185.80 112.05 184.91 113.45 185.44 C 114.28 186.25 115.07 187.10 115.83 187.98 C 114.56 190.51 112.24 191.17 109.62 190.55 C 109.50 189.07 109.39 187.59 109.29 186.10 Z" />
<path fill="#0a090a" opacity="1.00" d=" M 83.45 190.47 C 86.01 187.20 90.80 192.15 87.67 194.69 C 85.25 197.61 80.46 192.91 83.45 190.47 Z" />
</g>
<g id="#fbfbfbff">
<path fill="#fbfbfb" opacity="1.00" d=" M 72.57 36.31 C 76.38 35.42 79.25 38.79 81.97 40.89 C 84.03 42.26 85.14 44.30 84.77 46.80 C 82.50 45.50 79.97 45.17 77.41 45.48 C 77.05 47.73 77.71 49.79 79.26 51.45 C 77.02 51.59 74.79 51.51 72.55 51.42 C 71.34 49.19 69.83 47.15 68.00 45.39 C 68.41 45.07 69.23 44.42 69.65 44.10 C 68.56 43.25 67.47 42.39 66.39 41.53 C 68.16 39.54 69.68 36.76 72.57 36.31 Z" />
<path fill="#fbfbfb" opacity="1.00" d=" M 119.16 48.11 C 124.80 46.17 131.46 47.30 135.26 52.14 C 131.12 55.12 126.81 58.05 121.89 59.57 C 120.48 59.64 119.07 59.60 117.67 59.44 C 118.03 59.02 118.74 58.20 119.10 57.78 C 119.98 56.76 120.85 55.74 121.71 54.70 C 120.22 53.55 118.71 52.42 117.21 51.29 C 115.62 52.34 114.04 53.40 112.47 54.48 C 112.51 53.38 112.59 52.28 112.70 51.19 C 114.68 49.83 116.93 48.95 119.16 48.11 Z" />
<path fill="#fbfbfb" opacity="1.00" d=" M 43.99 66.41 C 44.19 64.94 44.38 63.47 44.58 62.00 C 49.33 64.95 55.17 62.64 60.38 63.55 C 61.57 64.48 62.71 65.47 63.80 66.51 C 57.20 66.54 50.59 66.52 43.99 66.41 Z" />
<path fill="#fbfbfb" opacity="1.00" d=" M 37.35 73.25 C 38.73 68.77 44.47 71.12 47.87 70.63 C 45.64 73.96 44.95 77.92 43.50 81.57 C 40.82 84.18 37.71 86.44 34.38 88.16 C 34.72 83.12 35.88 78.09 37.35 73.25 Z" />
<path fill="#fbfbfb" opacity="1.00" d=" M 49.35 72.10 C 51.96 72.39 54.49 73.03 57.03 73.64 C 56.09 77.29 54.63 80.78 53.13 84.23 C 50.98 86.11 48.18 86.95 45.35 86.59 C 46.01 81.61 48.05 76.94 49.35 72.10 Z" />
<path fill="#fbfbfb" opacity="1.00" d=" M 56.67 90.79 C 55.37 85.27 57.06 79.72 59.67 74.86 C 60.46 75.16 62.05 75.75 62.85 76.04 C 63.84 76.47 64.84 76.89 65.84 77.30 L 66.87 77.72 C 66.20 80.63 65.07 83.41 64.11 86.24 C 61.44 87.41 58.89 88.87 56.67 90.79 Z" />
<path fill="#fbfbfb" opacity="1.00" d=" M 69.73 77.23 C 72.02 77.83 74.31 78.47 76.66 78.81 C 76.80 82.82 75.49 86.61 74.31 90.37 C 72.27 91.02 70.24 91.71 68.25 92.48 C 67.59 91.01 66.80 89.58 66.38 88.03 C 67.30 84.38 68.80 80.89 69.73 77.23 Z" />
<path fill="#fbfbfb" opacity="1.00" d=" M 79.72 80.06 C 82.68 80.62 85.61 81.37 88.59 81.83 C 88.93 86.12 87.36 90.22 85.82 94.13 C 84.59 96.94 80.95 96.43 78.43 96.71 C 77.74 95.00 75.90 93.41 76.60 91.44 C 77.65 87.65 79.23 83.99 79.72 80.06 Z" />
<path fill="#fbfbfb" opacity="1.00" d=" M 88.78 93.77 C 89.85 90.51 90.69 87.19 91.53 83.88 C 93.98 84.98 96.46 86.01 98.92 87.11 C 98.41 92.01 97.05 96.79 95.28 101.38 C 93.45 101.39 91.55 101.89 89.77 101.31 C 87.59 99.42 88.16 96.24 88.78 93.77 Z" />
<path fill="#fbfbfb" opacity="1.00" d=" M 101.78 89.02 C 104.65 89.65 107.40 90.69 110.16 91.65 C 106.40 96.61 105.06 102.97 100.82 107.61 C 100.28 107.58 99.20 107.51 98.65 107.48 C 97.06 101.02 101.02 95.28 101.78 89.02 Z" />
<path fill="#fbfbfb" opacity="1.00" d=" M 34.43 94.72 C 36.29 93.95 38.14 93.15 40.00 92.35 C 38.34 95.17 36.51 97.89 34.44 100.41 C 34.34 98.52 34.35 96.62 34.43 94.72 Z" />
<path fill="#fbfbfb" opacity="1.00" d=" M 41.52 95.52 C 43.35 94.66 45.38 94.40 47.35 94.04 C 48.05 99.32 45.39 104.30 41.93 108.08 C 41.11 108.98 40.29 109.86 39.47 110.75 C 37.89 109.26 36.46 107.62 35.28 105.80 C 37.65 102.55 39.10 98.72 41.52 95.52 Z" />
<path fill="#fbfbfb" opacity="1.00" d=" M 111.35 94.35 C 111.98 94.35 113.23 94.36 113.85 94.37 C 113.58 96.10 114.00 98.16 112.62 99.50 C 110.08 102.34 107.25 104.91 104.86 107.88 C 106.75 103.24 109.22 98.88 111.35 94.35 Z" />
<path fill="#fbfbfb" opacity="1.00" d=" M 44.08 110.35 C 48.98 106.45 48.50 98.69 54.50 96.00 C 55.51 98.58 57.12 101.06 57.40 103.85 C 55.36 108.39 53.28 112.96 50.42 117.04 C 47.77 115.43 45.23 113.64 42.46 112.25 C 42.86 111.77 43.68 110.83 44.08 110.35 Z" />
<path fill="#fbfbfb" opacity="1.00" d=" M 60.96 102.92 C 62.71 101.78 64.63 100.94 66.52 100.06 C 67.25 101.92 68.59 103.68 68.59 105.74 C 66.45 111.38 62.61 116.09 59.08 120.90 C 57.13 120.08 55.22 119.17 53.34 118.22 C 55.94 113.15 58.47 108.04 60.96 102.92 Z" />
<path fill="#fbfbfb" opacity="1.00" d=" M 69.95 108.77 C 70.96 105.74 74.62 105.62 77.26 104.96 C 77.47 107.13 78.22 109.23 78.25 111.41 C 75.81 116.16 72.83 120.66 69.64 124.94 C 66.54 124.27 63.60 122.98 60.95 121.25 C 64.65 117.64 67.82 113.50 69.95 108.77 Z" />
<path fill="#fbfbfb" opacity="1.00" d=" M 80.27 114.18 C 81.47 111.91 84.07 111.17 86.19 110.03 C 86.69 111.91 87.64 113.72 87.69 115.70 C 85.66 118.56 83.28 121.17 81.10 123.92 C 78.45 125.14 75.35 125.30 72.47 125.78 C 74.74 121.69 77.91 118.21 80.27 114.18 Z" />
<path fill="#fbfbfb" opacity="1.00" d=" M 93.44 111.72 C 94.63 112.39 95.80 113.10 96.97 113.81 C 93.08 117.67 90.48 123.84 84.61 124.91 C 87.24 120.33 91.03 116.49 93.44 111.72 Z" />
</g>
</svg>
