<?xml version="1.0" encoding="UTF-8" ?>
<!DOCTYPE svg PUBLIC "-//W3C//DTD SVG 1.1//EN" "http://www.w3.org/Graphics/SVG/1.1/DTD/svg11.dtd">
<svg width="240pt" height="180pt" viewBox="0 0 240 180" version="1.1" xmlns="http://www.w3.org/2000/svg">
<g id="#ffffffff">
<path fill="#ffffff" opacity="1.00" d=" M 0.00 0.00 L 240.00 0.00 L 240.00 180.00 L 0.00 180.00 L 0.00 0.00 M 112.47 16.79 C 108.55 18.87 104.37 20.47 100.56 22.76 C 97.42 25.20 97.32 29.75 94.35 32.37 C 94.12 34.95 93.91 37.62 92.61 39.93 C 91.72 41.28 92.32 42.87 92.65 44.30 C 92.41 44.67 91.93 45.42 91.68 45.80 C 92.47 48.51 93.16 51.26 94.04 53.95 C 95.51 58.14 94.47 62.64 94.77 66.97 C 95.50 74.35 97.54 81.63 97.41 89.09 C 95.04 92.44 91.22 95.08 86.98 94.84 C 82.95 94.88 78.61 95.16 75.35 97.84 C 79.53 96.33 83.84 95.03 88.35 95.36 C 87.56 96.59 86.75 97.82 85.97 99.06 C 87.33 100.01 88.65 101.02 89.93 102.08 C 88.36 105.32 84.04 104.47 82.33 107.45 C 81.16 109.48 80.36 111.71 79.08 113.69 C 82.29 113.40 85.12 115.03 87.69 116.75 C 86.37 120.39 86.36 124.30 85.45 128.02 C 83.75 131.82 81.30 135.33 78.13 138.05 C 76.86 139.18 75.48 140.27 74.71 141.84 C 80.50 137.55 86.33 131.62 86.88 124.00 C 87.19 121.99 87.29 119.85 88.60 118.18 C 89.46 126.83 88.78 135.62 90.86 144.13 C 91.92 147.85 90.79 151.83 92.09 155.49 C 92.95 149.57 91.44 143.71 90.48 137.91 C 89.60 128.61 88.73 119.11 91.03 109.94 C 91.83 107.66 89.39 106.30 88.06 104.94 C 88.92 104.08 89.78 103.23 90.66 102.39 C 90.54 101.09 91.02 99.39 89.80 98.48 C 88.74 98.70 87.71 99.05 86.72 99.53 C 88.63 94.10 95.95 94.35 98.45 89.14 C 98.74 90.65 99.08 92.15 99.47 93.64 L 99.80 94.27 C 102.70 102.23 102.01 110.92 103.47 119.18 C 104.55 133.61 102.70 148.09 102.62 162.51 C 103.99 156.76 103.63 150.79 104.01 144.94 C 104.56 136.95 104.59 128.93 104.42 120.92 C 103.82 116.73 103.25 112.53 103.25 108.28 C 104.97 110.87 106.59 113.54 107.89 116.37 C 109.96 120.68 109.88 125.71 112.27 129.89 C 116.61 136.76 115.72 145.90 121.75 151.87 C 119.67 155.13 116.85 158.40 117.35 162.55 C 119.95 161.83 122.58 161.24 125.26 160.94 C 122.79 159.74 120.32 160.84 118.01 161.90 C 118.27 160.05 118.51 158.12 119.64 156.56 C 122.05 152.89 124.11 149.00 126.32 145.21 C 125.38 145.50 123.49 146.06 122.55 146.34 C 122.40 144.91 122.36 143.48 122.37 142.05 C 124.37 141.96 125.77 143.26 126.98 144.66 C 127.65 137.61 131.38 131.60 134.12 125.28 C 134.58 121.26 136.34 117.69 138.13 114.14 C 138.47 112.08 138.35 109.85 139.51 108.04 C 142.27 103.73 141.71 98.36 142.70 93.53 C 146.46 98.18 144.12 104.35 141.55 108.95 C 141.71 108.95 142.03 108.93 142.19 108.93 C 142.70 108.07 143.74 106.36 144.26 105.51 C 144.67 111.68 143.36 117.79 143.38 123.96 C 142.18 130.71 142.71 137.59 141.98 144.37 C 140.53 145.08 139.20 145.99 138.32 147.37 C 139.31 148.37 140.31 149.36 141.33 150.34 C 141.84 153.51 141.83 156.73 141.39 159.92 C 140.70 159.54 139.30 158.79 138.60 158.41 C 137.93 159.58 137.28 160.76 136.65 161.96 C 136.84 162.61 137.05 163.26 137.25 163.91 C 137.60 162.45 137.98 161.00 138.39 159.56 C 139.63 159.91 140.88 160.27 142.14 160.60 C 142.48 155.90 143.65 150.07 139.08 146.95 C 140.19 146.36 141.30 145.80 142.44 145.26 C 143.78 138.36 142.79 131.29 144.06 124.38 C 144.81 116.29 144.75 108.14 145.41 100.05 C 146.04 96.04 141.92 93.06 143.51 88.98 C 145.37 90.58 147.04 92.48 149.28 93.58 C 154.77 96.41 159.71 100.26 164.02 104.67 C 163.19 105.38 162.35 106.06 161.47 106.71 C 161.45 107.25 161.41 108.33 161.39 108.87 L 160.22 108.74 C 161.48 109.48 162.76 110.19 164.02 110.93 C 162.38 113.63 161.54 116.64 161.46 119.78 C 166.96 126.40 170.34 134.48 176.14 140.86 C 178.39 143.38 182.32 143.95 184.01 147.02 C 185.01 149.86 184.22 153.08 185.58 155.84 C 186.78 158.28 187.96 160.76 189.53 162.99 C 188.74 160.70 187.58 158.57 186.56 156.39 C 190.73 156.45 194.94 156.69 199.01 157.72 C 201.26 158.34 202.07 160.68 203.05 162.54 C 204.00 162.54 204.96 162.55 205.91 162.55 C 206.74 158.75 207.34 154.82 209.30 151.39 C 210.50 149.60 210.39 147.40 210.50 145.35 C 212.18 148.00 214.32 150.32 216.18 152.85 C 218.54 156.27 218.33 160.58 219.73 164.36 C 219.36 160.76 218.71 157.19 217.92 153.67 L 216.66 152.87 C 217.05 152.40 217.44 151.93 217.84 151.46 C 216.69 147.57 213.72 144.28 213.86 140.04 C 213.83 135.89 213.03 131.87 211.49 128.03 C 211.24 123.87 210.78 118.33 214.48 115.55 C 220.15 112.05 219.13 104.30 218.88 98.58 C 217.78 98.80 216.68 99.02 215.59 99.29 C 216.37 99.32 217.94 99.38 218.72 99.41 C 218.68 103.94 218.91 108.66 217.02 112.90 C 215.37 114.63 212.61 115.40 211.90 117.91 C 210.76 121.33 210.96 125.01 210.31 128.52 C 207.51 132.73 205.62 137.84 207.21 142.88 L 207.75 142.75 C 207.48 141.15 207.21 139.55 206.88 137.96 C 207.56 134.51 209.07 131.31 210.87 128.31 C 214.62 134.81 211.68 143.12 216.57 149.11 C 216.05 149.65 215.54 150.18 215.03 150.72 C 213.23 148.38 211.41 146.00 210.42 143.17 C 209.21 146.74 206.88 150.00 203.43 151.68 C 203.19 150.72 202.95 149.77 202.70 148.83 L 203.01 150.67 C 197.29 150.82 191.43 151.34 185.84 149.85 C 185.36 145.26 180.81 143.72 177.50 141.56 C 172.67 136.79 169.30 130.79 166.24 124.80 C 167.15 123.20 168.72 121.79 169.63 120.05 C 168.01 121.29 166.40 122.53 164.83 123.83 C 162.49 121.27 161.93 117.92 162.49 114.59 C 164.98 114.77 167.47 115.12 169.93 115.57 C 172.30 119.14 175.05 122.45 178.38 125.15 C 180.42 123.58 182.03 121.54 184.06 119.98 C 185.88 119.67 187.73 119.67 189.58 119.58 C 189.83 123.34 189.80 127.12 189.73 130.89 C 188.76 132.27 187.80 133.67 186.98 135.15 C 191.93 131.43 189.87 124.76 190.30 119.52 C 192.01 120.55 193.68 121.67 195.42 122.64 C 192.34 118.68 187.27 119.10 182.83 119.67 C 182.97 118.01 183.11 116.35 183.19 114.68 C 184.63 113.45 186.12 112.28 187.45 110.95 C 186.11 111.52 184.79 112.13 183.49 112.79 C 182.79 110.46 182.29 108.08 182.40 105.64 C 183.45 105.17 184.51 104.71 185.58 104.26 C 185.65 104.04 185.78 103.61 185.84 103.39 C 184.48 104.07 183.10 104.70 181.72 105.34 C 181.27 103.90 180.82 102.46 180.38 101.02 C 180.81 100.66 181.67 99.94 182.10 99.58 L 179.49 100.03 C 178.78 97.32 179.27 94.51 179.40 91.77 C 180.35 91.75 182.25 91.71 183.20 91.69 C 184.90 94.69 185.94 97.97 186.85 101.28 C 188.22 104.19 191.03 106.30 191.60 109.62 C 190.88 109.98 189.43 110.69 188.71 111.04 C 190.92 110.67 192.97 109.77 195.14 109.26 C 196.33 107.30 194.75 106.51 192.97 106.04 C 193.53 106.69 194.66 107.99 195.22 108.64 C 194.45 108.73 192.92 108.89 192.16 108.98 C 190.29 105.91 190.47 102.20 190.22 98.76 C 191.64 99.35 193.09 99.91 194.55 100.43 C 192.99 99.48 191.29 98.83 189.54 98.37 C 189.28 96.18 188.98 93.99 188.65 91.81 C 189.88 91.67 191.11 91.50 192.34 91.32 C 191.40 91.15 189.50 90.81 188.56 90.64 C 188.38 88.86 188.13 87.07 188.15 85.28 C 189.18 84.33 190.23 82.92 191.81 83.15 C 196.05 85.05 193.56 90.18 195.57 93.41 C 198.31 98.08 197.32 103.68 198.86 108.72 C 199.16 108.53 199.78 108.17 200.09 107.98 C 200.42 107.81 201.09 107.46 201.42 107.29 C 201.13 105.64 200.86 103.98 200.60 102.32 C 202.69 102.14 204.78 101.93 206.88 101.71 C 206.80 103.50 206.69 105.29 206.54 107.08 C 205.84 106.66 204.44 105.82 203.75 105.40 C 204.56 106.48 207.10 107.18 205.81 108.80 C 204.63 108.78 203.47 108.61 202.32 108.29 C 203.95 109.51 205.57 110.80 207.46 111.61 C 209.26 111.27 211.00 110.52 212.55 109.54 C 213.81 106.66 214.58 103.55 214.80 100.42 C 212.90 102.92 213.91 106.32 212.19 108.93 C 210.81 108.94 208.92 111.19 207.82 109.92 C 206.06 105.24 209.16 99.41 205.48 95.27 C 205.14 92.80 206.29 89.59 204.38 87.64 C 201.95 87.00 200.03 88.61 198.54 90.29 C 198.72 92.11 198.89 93.94 199.28 95.73 C 199.41 93.82 199.31 91.90 199.51 89.99 C 200.65 88.34 202.62 88.11 204.45 87.85 C 205.14 90.36 205.32 92.97 204.48 95.47 C 206.65 96.68 206.68 99.22 207.11 101.38 C 204.94 101.46 202.78 101.55 200.62 101.68 C 200.20 99.75 199.76 97.82 199.23 95.92 C 199.39 99.51 201.51 103.42 199.89 106.83 C 199.61 106.89 199.06 107.03 198.78 107.09 C 197.99 101.97 198.37 96.36 195.29 91.90 C 195.29 88.62 195.10 84.83 192.65 82.40 C 190.59 82.09 188.52 83.82 187.62 85.55 C 188.14 92.22 189.20 98.82 190.39 105.39 C 186.10 101.88 186.55 95.83 183.59 91.51 C 182.03 91.13 180.36 91.16 178.86 91.76 C 178.59 93.96 178.65 96.18 178.51 98.39 C 178.71 99.64 179.32 100.82 179.26 102.10 C 178.99 103.74 177.48 102.18 176.94 101.67 C 176.69 101.84 176.20 102.17 175.96 102.34 C 174.13 101.51 172.34 100.62 170.61 99.63 C 168.97 99.09 167.07 99.49 165.61 98.43 C 163.63 94.89 159.86 97.95 156.84 97.78 C 154.08 95.97 151.27 94.25 148.35 92.72 C 146.91 92.24 146.27 90.98 145.93 89.59 C 144.66 89.05 143.38 88.57 142.12 88.03 C 141.76 78.41 152.74 71.92 151.41 61.84 C 152.80 59.47 153.24 56.76 152.10 54.19 C 152.88 53.14 153.65 52.08 154.43 51.03 C 154.11 50.62 153.47 49.81 153.15 49.41 C 153.60 47.62 154.15 45.76 153.61 43.91 C 152.55 39.17 151.04 34.52 149.06 30.09 C 146.46 26.11 143.16 22.49 138.99 20.13 C 136.84 19.68 134.83 18.78 132.74 18.13 C 131.27 17.34 129.85 16.00 128.04 16.22 C 122.87 16.68 117.53 15.38 112.47 16.79 M 63.48 109.47 C 60.63 111.49 57.60 108.85 54.62 108.62 C 56.11 109.45 57.70 110.09 59.18 110.94 C 61.08 113.10 61.77 116.13 64.00 118.06 C 62.97 115.63 61.60 113.37 60.50 110.98 C 61.31 110.87 62.92 110.65 63.73 110.54 C 65.16 108.99 66.70 107.48 67.56 105.51 C 66.09 106.72 64.93 108.24 63.48 109.47 M 197.91 145.08 C 200.79 144.12 203.38 142.38 205.14 139.86 C 202.55 141.34 200.12 143.09 197.91 145.08 M 65.48 155.78 C 65.56 156.64 65.64 157.50 65.72 158.36 C 66.44 158.30 67.16 158.24 67.88 158.18 C 67.85 157.35 67.79 155.67 67.76 154.83 C 67.19 155.07 66.05 155.54 65.48 155.78 Z" />
<path fill="#ffffff" opacity="1.00" d=" M 96.93 38.06 C 98.30 36.31 99.57 34.10 101.79 33.35 C 104.43 31.95 107.24 33.61 109.98 33.64 C 110.20 36.92 113.52 36.02 115.11 34.38 C 119.28 35.40 123.53 34.25 127.66 33.55 C 129.80 33.77 131.97 34.02 134.10 33.54 C 136.76 36.62 140.24 40.21 138.96 44.68 C 138.25 47.42 140.23 49.72 141.59 51.87 C 140.72 57.04 141.32 62.23 141.65 67.41 C 142.82 66.68 143.18 65.62 142.75 64.23 C 144.42 62.16 146.42 60.12 149.11 59.52 C 151.29 61.40 149.95 64.65 150.54 67.17 C 150.03 70.45 148.24 74.29 144.78 75.28 C 144.27 80.10 141.52 84.34 141.33 89.22 C 136.29 94.99 129.78 99.76 122.24 101.56 C 116.66 102.75 109.98 102.50 105.78 98.12 C 104.17 96.83 103.49 94.17 101.07 94.19 L 101.44 92.46 L 100.64 92.99 C 99.89 91.08 97.94 89.48 98.28 87.28 C 96.19 75.08 92.97 62.15 96.82 49.90 C 97.90 48.52 99.52 47.73 100.94 46.76 C 102.41 47.44 103.87 48.12 105.33 48.81 C 106.13 47.79 106.91 46.77 107.69 45.74 C 105.74 44.87 103.81 43.10 101.53 43.62 C 99.61 44.44 97.92 45.69 96.19 46.83 C 96.35 43.92 96.00 40.86 96.93 38.06 M 100.32 39.43 C 100.05 39.68 99.50 40.18 99.22 40.43 C 102.24 39.82 105.27 40.63 108.30 40.45 C 105.97 38.50 103.07 38.70 100.32 39.43 M 119.52 39.71 C 122.37 40.42 125.11 39.46 127.60 38.12 C 124.83 38.11 121.98 38.33 119.52 39.71 M 120.49 43.66 C 120.08 43.63 119.26 43.57 118.84 43.54 C 119.12 44.04 119.69 45.03 119.97 45.53 C 119.53 45.98 118.67 46.89 118.23 47.35 C 119.89 46.91 121.54 46.40 123.17 45.87 C 126.09 46.58 129.07 46.99 132.05 46.35 C 133.39 47.15 134.76 47.91 136.16 48.61 C 135.21 47.14 134.41 45.36 132.73 44.57 C 129.21 42.46 125.10 44.09 121.31 44.18 C 121.22 43.55 121.05 42.29 120.97 41.67 C 120.85 42.16 120.61 43.16 120.49 43.66 M 117.57 55.29 C 121.28 55.66 124.84 57.45 128.67 56.47 C 128.95 56.96 129.51 57.94 129.79 58.44 C 130.83 57.54 131.88 56.66 132.91 55.75 C 132.41 55.66 131.40 55.48 130.90 55.38 C 129.17 54.80 127.76 53.62 126.32 52.55 C 123.01 51.91 120.16 53.44 117.57 55.29 M 98.24 55.19 C 99.25 56.26 100.30 57.29 101.38 58.30 C 103.21 58.19 105.26 58.33 106.53 56.73 L 103.53 57.54 C 102.51 50.74 106.87 55.59 109.38 56.05 C 107.38 51.81 101.26 52.44 98.24 55.19 M 145.33 64.26 C 145.41 66.61 145.43 68.97 145.37 71.32 C 146.21 70.20 147.04 69.06 147.90 67.95 C 147.08 66.69 146.24 65.46 145.33 64.26 M 104.20 67.49 C 104.64 67.95 105.08 68.42 105.52 68.89 C 105.61 68.47 105.78 67.62 105.87 67.19 C 107.41 67.04 108.95 66.87 110.48 66.62 C 109.58 66.39 107.78 65.92 106.88 65.69 C 105.99 66.29 105.09 66.89 104.20 67.49 M 100.05 75.98 C 99.48 78.09 101.05 80.01 102.00 81.77 C 102.54 81.42 103.64 80.71 104.19 80.36 C 105.76 81.88 107.03 83.68 108.59 85.21 C 110.26 85.01 111.87 84.47 113.52 84.14 C 115.48 83.63 118.15 83.81 118.85 81.41 C 119.80 80.46 120.69 79.43 121.79 78.63 C 123.54 78.02 124.52 80.96 125.98 81.72 C 126.62 79.38 129.33 76.29 126.82 74.23 C 124.04 71.84 120.04 72.01 116.91 70.22 C 114.80 68.45 112.98 70.92 111.21 71.96 C 110.28 71.02 109.34 70.09 108.38 69.17 C 105.00 70.55 102.22 73.08 100.05 75.98 Z" />
<path fill="#ffffff" opacity="1.00" d=" M 125.81 55.61 C 124.23 53.93 127.78 52.68 127.88 54.86 L 127.57 55.64 C 127.13 55.63 126.25 55.62 125.81 55.61 Z" />
<path fill="#ffffff" opacity="1.00" d=" M 105.06 78.07 C 106.68 75.67 109.25 74.02 111.96 73.12 C 115.12 74.17 118.52 74.80 121.25 76.81 C 121.14 77.07 120.93 77.59 120.82 77.86 C 117.82 78.06 114.95 75.30 112.11 77.73 C 109.81 76.02 107.39 77.24 105.06 78.07 Z" />
<path fill="#ffffff" opacity="1.00" d=" M 104.42 79.35 C 106.02 78.68 107.62 78.01 109.19 77.28 C 110.12 77.71 111.05 78.14 111.98 78.57 C 113.21 78.12 114.44 77.68 115.67 77.25 C 117.21 77.92 118.78 78.54 120.36 79.11 C 116.35 83.41 108.30 84.16 104.42 79.35 Z" />
<path fill="#ffffff" opacity="1.00" d=" M 140.87 90.10 C 141.12 90.12 141.61 90.15 141.86 90.17 C 142.07 97.02 141.31 105.06 136.02 110.13 C 132.84 114.04 130.40 118.48 127.49 122.58 C 126.32 115.56 125.78 108.27 122.04 102.00 C 129.30 99.93 135.95 95.84 140.87 90.10 Z" />
<path fill="#ffffff" opacity="1.00" d=" M 102.11 96.19 C 104.09 96.34 105.21 98.31 106.75 99.35 C 108.93 101.30 111.81 102.04 114.59 102.64 C 112.91 107.04 111.48 111.52 110.03 115.99 C 111.63 116.43 113.61 116.32 114.73 117.80 C 114.49 120.20 111.55 119.73 110.01 119.16 C 108.04 115.41 106.55 111.36 103.82 108.04 C 102.38 104.34 101.52 100.13 102.11 96.19 Z" />
<path fill="#ffffff" opacity="1.00" d=" M 156.86 98.08 C 158.83 97.73 160.80 97.43 162.78 97.19 C 164.77 99.32 167.84 99.37 170.40 100.40 C 173.95 101.32 177.05 103.59 180.76 103.94 C 181.74 106.95 182.40 110.04 183.18 113.09 C 182.67 115.67 182.89 118.39 182.09 120.91 C 181.07 122.26 179.83 123.42 178.69 124.65 C 175.06 122.02 172.46 118.33 169.80 114.79 C 167.55 114.67 165.30 114.48 163.07 114.21 C 163.47 112.82 163.89 111.43 164.29 110.04 C 160.94 109.34 162.49 105.76 164.53 104.47 C 162.05 102.25 159.48 100.13 156.86 98.08 Z" />
<path fill="#ffffff" opacity="1.00" d=" M 115.05 103.90 C 116.04 103.10 117.96 104.45 117.44 105.63 C 116.45 106.28 114.42 105.13 115.05 103.90 Z" />
<path fill="#ffffff" opacity="1.00" d=" M 80.31 113.53 C 81.59 110.50 82.53 106.67 85.97 105.39 C 88.04 105.42 89.63 107.08 90.61 108.74 C 90.25 111.50 89.53 114.19 88.99 116.92 C 87.31 115.48 85.53 114.16 83.59 113.08 C 82.77 113.19 81.13 113.42 80.31 113.53 Z" />
<path fill="#ffffff" opacity="1.00" d=" M 118.96 106.47 C 120.99 107.23 121.26 109.45 119.66 110.74 C 118.50 109.56 118.80 107.94 118.96 106.47 Z" />
<path fill="#ffffff" opacity="1.00" d=" M 116.66 110.37 C 119.93 109.86 115.73 114.48 114.19 113.05 C 113.75 111.63 115.62 110.80 116.66 110.37 Z" />
<path fill="#ffffff" opacity="1.00" d=" M 127.75 123.99 C 130.69 118.59 134.29 113.54 138.01 108.63 C 137.74 110.75 137.51 112.88 137.30 115.01 C 133.21 119.75 134.33 126.72 130.16 131.47 C 129.23 129.01 128.26 126.56 127.75 123.99 Z" />
<path fill="#ffffff" opacity="1.00" d=" M 117.23 113.26 C 118.80 112.69 119.32 113.25 118.80 114.93 C 117.25 115.50 116.73 114.94 117.23 113.26 Z" />
<path fill="#ffffff" opacity="1.00" d=" M 123.52 114.07 C 125.66 113.57 125.99 116.36 126.51 117.82 C 125.84 119.06 124.60 119.82 123.50 120.62 C 122.70 121.44 121.89 122.25 121.10 123.07 C 120.49 125.80 119.07 128.22 117.86 130.71 C 116.55 129.80 114.58 128.94 114.61 127.06 C 114.88 125.94 115.41 124.91 115.82 123.85 C 117.04 119.67 121.34 117.66 123.52 114.07 Z" />
<path fill="#ffffff" opacity="1.00" d=" M 121.91 130.87 C 123.40 130.29 125.76 129.78 126.02 132.05 C 127.07 133.67 124.73 134.78 123.92 135.79 C 123.04 134.24 122.41 132.57 121.91 130.87 Z" />
<path fill="#ffffff" opacity="1.00" d=" M 118.74 139.03 C 121.36 139.64 122.65 142.68 120.14 144.44 C 117.10 144.36 118.35 140.88 118.74 139.03 Z" />
<path fill="#ffffff" opacity="1.00" d=" M 207.05 149.26 C 207.85 148.99 209.43 148.43 210.22 148.15 C 207.59 152.57 206.74 157.60 205.15 162.40 C 202.68 162.34 202.22 159.60 201.10 157.94 C 201.86 156.18 202.62 154.36 203.98 152.97 L 204.52 152.54 C 205.35 151.44 206.22 150.36 207.05 149.26 Z" />
<path fill="#ffffff" opacity="1.00" d=" M 185.01 150.05 C 190.14 151.23 195.55 151.99 200.78 150.95 C 201.48 151.19 202.18 151.44 202.87 151.71 C 201.77 153.54 201.25 155.62 200.78 157.68 C 195.88 156.25 190.76 155.97 185.70 155.54 C 185.45 153.71 185.22 151.88 185.01 150.05 Z" />
</g>
<g id="#010101ff">
<path fill="#010101" opacity="1.00" d=" M 112.47 16.79 C 117.53 15.38 122.87 16.68 128.04 16.22 C 129.85 16.00 131.27 17.34 132.74 18.13 C 134.83 18.78 136.84 19.68 138.99 20.13 C 143.16 22.49 146.46 26.11 149.06 30.09 C 151.04 34.52 152.55 39.17 153.61 43.91 C 154.15 45.76 153.60 47.62 153.15 49.41 C 153.47 49.81 154.11 50.62 154.43 51.03 C 153.65 52.08 152.88 53.14 152.10 54.19 C 153.24 56.76 152.80 59.47 151.41 61.84 C 152.74 71.92 141.76 78.41 142.12 88.03 C 143.38 88.57 144.66 89.05 145.93 89.59 C 146.27 90.98 146.91 92.24 148.35 92.72 C 151.27 94.25 154.08 95.97 156.84 97.78 C 159.86 97.95 163.63 94.89 165.61 98.43 C 167.07 99.49 168.97 99.09 170.61 99.63 C 172.34 100.62 174.13 101.51 175.96 102.34 C 176.20 102.17 176.69 101.84 176.94 101.67 C 177.48 102.18 178.99 103.74 179.26 102.10 C 179.32 100.82 178.71 99.64 178.51 98.39 C 178.65 96.18 178.59 93.96 178.86 91.76 C 180.36 91.16 182.03 91.13 183.59 91.51 C 186.55 95.83 186.10 101.88 190.39 105.39 C 189.20 98.82 188.14 92.22 187.62 85.55 C 188.52 83.82 190.59 82.09 192.65 82.40 C 195.10 84.83 195.29 88.62 195.29 91.90 C 198.37 96.36 197.99 101.97 198.78 107.09 C 199.06 107.03 199.61 106.89 199.89 106.83 C 201.51 103.42 199.39 99.51 199.23 95.92 C 199.76 97.82 200.20 99.75 200.62 101.68 C 202.78 101.55 204.94 101.46 207.11 101.38 C 206.68 99.22 206.65 96.68 204.48 95.47 C 205.32 92.97 205.14 90.36 204.45 87.85 C 202.62 88.11 200.65 88.34 199.51 89.99 C 199.31 91.90 199.41 93.82 199.28 95.73 C 198.89 93.94 198.72 92.11 198.54 90.29 C 200.03 88.61 201.95 87.00 204.38 87.64 C 206.29 89.59 205.14 92.80 205.48 95.27 C 209.16 99.41 206.06 105.24 207.82 109.92 C 208.92 111.19 210.81 108.94 212.19 108.93 C 213.91 106.32 212.90 102.92 214.80 100.42 C 214.58 103.55 213.81 106.66 212.55 109.54 C 211.00 110.52 209.26 111.27 207.46 111.61 C 205.57 110.80 203.95 109.51 202.32 108.29 C 203.47 108.61 204.63 108.78 205.81 108.80 C 207.10 107.18 204.56 106.48 203.75 105.40 C 204.44 105.82 205.84 106.66 206.54 107.08 C 206.69 105.29 206.80 103.50 206.88 101.71 C 204.78 101.93 202.69 102.14 200.60 102.32 C 200.86 103.98 201.13 105.64 201.42 107.29 C 201.09 107.46 200.42 107.81 200.09 107.98 C 199.78 108.17 199.16 108.53 198.86 108.72 C 197.32 103.68 198.31 98.08 195.57 93.41 C 193.56 90.18 196.05 85.05 191.81 83.15 C 190.23 82.92 189.18 84.33 188.15 85.28 C 188.13 87.07 188.38 88.86 188.56 90.64 C 189.50 90.81 191.40 91.15 192.34 91.32 C 191.11 91.50 189.88 91.67 188.65 91.81 C 188.98 93.99 189.28 96.18 189.54 98.37 C 191.29 98.83 192.99 99.48 194.55 100.43 C 193.09 99.91 191.64 99.35 190.22 98.76 C 190.47 102.20 190.29 105.91 192.16 108.98 C 192.92 108.89 194.45 108.73 195.22 108.64 C 194.66 107.99 193.53 106.69 192.97 106.04 C 194.75 106.51 196.33 107.30 195.14 109.26 C 192.97 109.77 190.92 110.67 188.71 111.04 C 189.43 110.69 190.88 109.98 191.60 109.62 C 191.03 106.30 188.22 104.19 186.85 101.28 C 185.94 97.97 184.90 94.69 183.20 91.69 C 182.25 91.71 180.35 91.75 179.40 91.77 C 179.27 94.51 178.78 97.32 179.49 100.03 L 182.10 99.58 C 181.67 99.94 180.81 100.66 180.38 101.02 C 180.82 102.46 181.27 103.90 181.72 105.34 C 183.10 104.70 184.48 104.07 185.84 103.39 C 185.78 103.61 185.65 104.04 185.58 104.26 C 184.51 104.71 183.45 105.17 182.40 105.64 C 182.29 108.08 182.79 110.46 183.49 112.79 C 184.79 112.13 186.11 111.52 187.45 110.95 C 186.12 112.28 184.63 113.45 183.19 114.68 C 183.11 116.35 182.97 118.01 182.83 119.67 C 187.27 119.10 192.34 118.68 195.42 122.64 C 193.68 121.67 192.01 120.55 190.30 119.52 C 189.87 124.76 191.93 131.43 186.98 135.15 C 187.80 133.67 188.76 132.27 189.73 130.89 C 189.80 127.12 189.83 123.34 189.58 119.58 C 187.73 119.67 185.88 119.67 184.06 119.98 C 182.03 121.54 180.42 123.58 178.38 125.15 C 175.05 122.45 172.30 119.14 169.93 115.57 C 167.47 115.12 164.98 114.77 162.49 114.59 C 161.93 117.92 162.49 121.27 164.83 123.83 C 166.40 122.53 168.01 121.29 169.63 120.05 C 168.72 121.79 167.15 123.20 166.24 124.80 C 169.30 130.79 172.67 136.79 177.50 141.56 C 180.81 143.72 185.36 145.26 185.84 149.85 C 191.43 151.34 197.29 150.82 203.01 150.67 L 202.70 148.83 C 202.95 149.77 203.19 150.72 203.43 151.68 C 206.88 150.00 209.21 146.74 210.42 143.17 C 211.41 146.00 213.23 148.38 215.03 150.72 C 215.54 150.18 216.05 149.65 216.57 149.11 C 211.68 143.12 214.62 134.81 210.87 128.31 C 209.07 131.31 207.56 134.51 206.88 137.96 C 207.21 139.55 207.48 141.15 207.75 142.75 L 207.21 142.88 C 205.62 137.84 207.51 132.73 210.31 128.52 C 210.96 125.01 210.76 121.33 211.90 117.91 C 212.61 115.40 215.37 114.63 217.02 112.90 C 218.91 108.66 218.68 103.94 218.72 99.41 C 217.94 99.38 216.37 99.32 215.59 99.29 C 216.68 99.02 217.78 98.80 218.88 98.58 C 219.13 104.30 220.15 112.05 214.48 115.55 C 210.78 118.33 211.24 123.87 211.49 128.03 C 213.03 131.87 213.83 135.89 213.86 140.04 C 213.72 144.28 216.69 147.57 217.84 151.46 C 217.44 151.93 217.05 152.40 216.66 152.87 L 217.92 153.67 C 218.71 157.19 219.36 160.76 219.73 164.36 C 218.33 160.58 218.54 156.27 216.18 152.85 C 214.32 150.32 212.18 148.00 210.50 145.35 C 210.39 147.40 210.50 149.60 209.30 151.39 C 207.34 154.82 206.74 158.75 205.91 162.55 C 204.96 162.55 204.00 162.54 203.05 162.54 C 202.07 160.68 201.26 158.34 199.01 157.72 C 194.94 156.69 190.73 156.45 186.56 156.39 C 187.58 158.57 188.74 160.70 189.53 162.99 C 187.96 160.76 186.78 158.28 185.58 155.84 C 184.22 153.08 185.01 149.86 184.01 147.02 C 182.32 143.95 178.39 143.38 176.14 140.86 C 170.34 134.48 166.96 126.40 161.46 119.78 C 161.54 116.64 162.38 113.63 164.02 110.93 C 162.76 110.19 161.48 109.48 160.22 108.74 L 161.39 108.87 C 161.41 108.33 161.45 107.25 161.47 106.71 C 162.35 106.06 163.19 105.38 164.02 104.67 C 159.71 100.26 154.77 96.41 149.28 93.58 C 147.04 92.48 145.37 90.58 143.51 88.98 C 141.92 93.06 146.04 96.04 145.41 100.05 C 144.75 108.14 144.81 116.29 144.06 124.38 C 142.79 131.29 143.78 138.36 142.44 145.26 C 141.30 145.80 140.19 146.36 139.08 146.95 C 143.65 150.07 142.48 155.90 142.14 160.60 C 140.88 160.27 139.63 159.91 138.39 159.56 C 137.98 161.00 137.60 162.45 137.25 163.91 C 137.05 163.26 136.84 162.61 136.65 161.96 C 137.28 160.76 137.93 159.58 138.60 158.41 C 139.30 158.79 140.70 159.54 141.39 159.92 C 141.83 156.73 141.84 153.51 141.33 150.34 C 140.31 149.36 139.31 148.37 138.32 147.37 C 139.20 145.99 140.53 145.08 141.98 144.37 C 142.71 137.59 142.18 130.71 143.38 123.96 C 143.36 117.79 144.67 111.68 144.26 105.51 C 143.74 106.36 142.70 108.07 142.19 108.93 C 142.03 108.93 141.71 108.95 141.55 108.95 C 144.12 104.35 146.46 98.18 142.70 93.53 C 141.71 98.36 142.27 103.73 139.51 108.04 C 138.35 109.85 138.47 112.08 138.13 114.14 C 136.34 117.69 134.58 121.26 134.12 125.28 C 131.38 131.60 127.65 137.61 126.98 144.66 C 125.77 143.26 124.37 141.96 122.37 142.05 C 122.36 143.48 122.40 144.91 122.55 146.34 C 123.49 146.06 125.38 145.50 126.32 145.21 C 124.11 149.00 122.05 152.89 119.64 156.56 C 118.51 158.12 118.27 160.05 118.01 161.90 C 120.32 160.84 122.79 159.74 125.26 160.94 C 122.58 161.24 119.95 161.83 117.35 162.55 C 116.85 158.40 119.67 155.13 121.75 151.87 C 115.72 145.90 116.61 136.76 112.27 129.89 C 109.88 125.71 109.96 120.68 107.89 116.37 C 106.59 113.54 104.97 110.87 103.25 108.28 C 103.25 112.53 103.82 116.73 104.42 120.92 C 104.59 128.93 104.56 136.95 104.01 144.94 C 103.63 150.79 103.99 156.76 102.62 162.51 C 102.70 148.09 104.55 133.61 103.47 119.18 C 102.01 110.92 102.70 102.23 99.80 94.27 L 99.47 93.64 C 99.08 92.15 98.74 90.65 98.45 89.14 C 95.95 94.35 88.63 94.10 86.72 99.53 C 87.71 99.05 88.74 98.70 89.80 98.48 C 91.02 99.39 90.54 101.09 90.66 102.39 C 89.78 103.23 88.92 104.08 88.06 104.94 C 89.39 106.30 91.83 107.66 91.03 109.94 C 88.73 119.11 89.60 128.61 90.48 137.91 C 91.44 143.71 92.95 149.57 92.09 155.49 C 90.79 151.83 91.92 147.85 90.86 144.13 C 88.78 135.62 89.46 126.83 88.60 118.18 C 87.29 119.85 87.19 121.99 86.88 124.00 C 86.33 131.62 80.50 137.55 74.71 141.84 C 75.48 140.27 76.86 139.18 78.13 138.05 C 81.30 135.33 83.75 131.82 85.45 128.02 C 86.36 124.30 86.37 120.39 87.69 116.75 C 85.12 115.03 82.29 113.40 79.08 113.69 C 80.36 111.71 81.16 109.48 82.33 107.45 C 84.04 104.47 88.36 105.32 89.93 102.08 C 88.65 101.02 87.33 100.01 85.97 99.06 C 86.75 97.82 87.56 96.59 88.35 95.36 C 83.84 95.03 79.53 96.33 75.35 97.84 C 78.61 95.16 82.95 94.88 86.98 94.84 C 91.22 95.08 95.04 92.44 97.41 89.09 C 97.54 81.63 95.50 74.35 94.77 66.97 C 94.47 62.64 95.51 58.14 94.04 53.95 C 93.16 51.26 92.47 48.51 91.68 45.80 C 91.93 45.42 92.41 44.67 92.65 44.30 C 92.32 42.87 91.72 41.28 92.61 39.93 C 93.91 37.62 94.12 34.95 94.35 32.37 C 97.32 29.75 97.42 25.20 100.56 22.76 C 104.37 20.47 108.55 18.87 112.47 16.79 M 96.93 38.06 C 96.00 40.86 96.35 43.92 96.19 46.83 C 97.92 45.69 99.61 44.44 101.53 43.62 C 103.81 43.10 105.74 44.87 107.69 45.74 C 106.91 46.77 106.13 47.79 105.33 48.81 C 103.87 48.12 102.41 47.44 100.94 46.76 C 99.52 47.73 97.90 48.52 96.82 49.90 C 92.97 62.15 96.19 75.08 98.28 87.28 C 97.94 89.48 99.89 91.08 100.64 92.99 L 101.44 92.46 L 101.07 94.19 C 103.49 94.17 104.17 96.83 105.78 98.12 C 109.98 102.50 116.66 102.75 122.24 101.56 C 129.78 99.76 136.29 94.99 141.33 89.22 C 141.52 84.34 144.27 80.10 144.78 75.28 C 148.24 74.29 150.03 70.45 150.54 67.17 C 149.95 64.65 151.29 61.40 149.11 59.52 C 146.42 60.12 144.42 62.16 142.75 64.23 C 143.18 65.62 142.82 66.68 141.65 67.41 C 141.32 62.23 140.72 57.04 141.59 51.87 C 140.23 49.72 138.25 47.42 138.96 44.68 C 140.24 40.21 136.76 36.62 134.10 33.54 C 131.97 34.02 129.80 33.77 127.66 33.55 C 123.53 34.25 119.28 35.40 115.11 34.38 C 113.52 36.02 110.20 36.92 109.98 33.64 C 107.24 33.61 104.43 31.95 101.79 33.35 C 99.57 34.10 98.30 36.31 96.93 38.06 M 140.87 90.10 C 135.95 95.84 129.30 99.93 122.04 102.00 C 125.78 108.27 126.32 115.56 127.49 122.58 C 130.40 118.48 132.84 114.04 136.02 110.13 C 141.31 105.06 142.07 97.02 141.86 90.17 C 141.61 90.15 141.12 90.12 140.87 90.10 M 102.11 96.19 C 101.52 100.13 102.38 104.34 103.82 108.04 C 106.55 111.36 108.04 115.41 110.01 119.16 C 111.55 119.73 114.49 120.20 114.73 117.80 C 113.61 116.32 111.63 116.43 110.03 115.99 C 111.48 111.52 112.91 107.04 114.59 102.64 C 111.81 102.04 108.93 101.30 106.75 99.35 C 105.21 98.31 104.09 96.34 102.11 96.19 M 156.86 98.08 C 159.48 100.13 162.05 102.25 164.53 104.47 C 162.49 105.76 160.94 109.34 164.29 110.04 C 163.89 111.43 163.47 112.82 163.07 114.21 C 165.30 114.48 167.55 114.67 169.80 114.79 C 172.46 118.33 175.06 122.02 178.69 124.65 C 179.83 123.42 181.07 122.26 182.09 120.91 C 182.89 118.39 182.67 115.67 183.18 113.09 C 182.40 110.04 181.74 106.95 180.76 103.94 C 177.05 103.59 173.95 101.32 170.40 100.40 C 167.84 99.37 164.77 99.32 162.78 97.19 C 160.80 97.43 158.83 97.73 156.86 98.08 M 115.05 103.90 C 114.42 105.13 116.45 106.28 117.44 105.63 C 117.96 104.45 116.04 103.10 115.05 103.90 M 80.31 113.53 C 81.13 113.42 82.77 113.19 83.59 113.08 C 85.53 114.16 87.31 115.48 88.99 116.92 C 89.53 114.19 90.25 111.50 90.61 108.74 C 89.63 107.08 88.04 105.42 85.97 105.39 C 82.53 106.67 81.59 110.50 80.31 113.53 M 118.96 106.47 C 118.80 107.94 118.50 109.56 119.66 110.74 C 121.26 109.45 120.99 107.23 118.96 106.47 M 116.66 110.37 C 115.62 110.80 113.75 111.63 114.19 113.05 C 115.73 114.48 119.93 109.86 116.66 110.37 M 127.75 123.99 C 128.26 126.56 129.23 129.01 130.16 131.47 C 134.33 126.72 133.21 119.75 137.30 115.01 C 137.51 112.88 137.74 110.75 138.01 108.63 C 134.29 113.54 130.69 118.59 127.75 123.99 M 117.23 113.26 C 116.73 114.94 117.25 115.50 118.80 114.93 C 119.32 113.25 118.80 112.69 117.23 113.26 M 123.52 114.07 C 121.34 117.66 117.04 119.67 115.82 123.85 C 115.41 124.91 114.88 125.94 114.61 127.06 C 114.58 128.94 116.55 129.80 117.86 130.71 C 119.07 128.22 120.49 125.80 121.10 123.07 C 121.89 122.25 122.70 121.44 123.50 120.62 C 124.60 119.82 125.84 119.06 126.51 117.82 C 125.99 116.36 125.66 113.57 123.52 114.07 M 121.91 130.87 C 122.41 132.57 123.04 134.24 123.92 135.79 C 124.73 134.78 127.07 133.67 126.02 132.05 C 125.76 129.78 123.40 130.29 121.91 130.87 M 118.74 139.03 C 118.35 140.88 117.10 144.36 120.14 144.44 C 122.65 142.68 121.36 139.64 118.74 139.03 M 207.05 149.26 C 206.22 150.36 205.35 151.44 204.52 152.54 L 203.98 152.97 C 202.62 154.36 201.86 156.18 201.10 157.94 C 202.22 159.60 202.68 162.34 205.15 162.40 C 206.74 157.60 207.59 152.57 210.22 148.15 C 209.43 148.43 207.85 148.99 207.05 149.26 M 185.01 150.05 C 185.22 151.88 185.45 153.71 185.70 155.54 C 190.76 155.97 195.88 156.25 200.78 157.68 C 201.25 155.62 201.77 153.54 202.87 151.71 C 202.18 151.44 201.48 151.19 200.78 150.95 C 195.55 151.99 190.14 151.23 185.01 150.05 Z" />
<path fill="#010101" opacity="1.00" d=" M 100.32 39.43 C 103.07 38.70 105.97 38.50 108.30 40.45 C 105.27 40.63 102.24 39.82 99.22 40.43 C 99.50 40.18 100.05 39.68 100.32 39.43 Z" />
<path fill="#010101" opacity="1.00" d=" M 119.52 39.71 C 121.98 38.33 124.83 38.11 127.60 38.12 C 125.11 39.46 122.37 40.42 119.52 39.71 Z" />
<path fill="#010101" opacity="1.00" d=" M 120.49 43.66 C 120.61 43.16 120.85 42.16 120.97 41.67 C 121.05 42.29 121.22 43.55 121.31 44.18 C 125.10 44.09 129.21 42.46 132.73 44.57 C 134.41 45.36 135.21 47.14 136.16 48.61 C 134.76 47.91 133.39 47.15 132.05 46.35 C 129.07 46.99 126.09 46.58 123.17 45.87 C 121.54 46.40 119.89 46.91 118.23 47.35 C 118.67 46.89 119.53 45.98 119.97 45.53 C 119.69 45.03 119.12 44.04 118.84 43.54 C 119.26 43.57 120.08 43.63 120.49 43.66 Z" />
<path fill="#010101" opacity="1.00" d=" M 117.57 55.29 C 120.16 53.44 123.01 51.91 126.32 52.55 C 127.76 53.62 129.17 54.80 130.90 55.38 C 131.40 55.48 132.41 55.66 132.91 55.75 C 131.88 56.66 130.83 57.54 129.79 58.44 C 129.51 57.94 128.95 56.96 128.67 56.47 C 124.84 57.45 121.28 55.66 117.57 55.29 M 125.81 55.61 C 126.25 55.62 127.13 55.63 127.57 55.64 L 127.88 54.86 C 127.78 52.68 124.23 53.93 125.81 55.61 Z" />
<path fill="#010101" opacity="1.00" d=" M 98.24 55.19 C 101.26 52.44 107.38 51.81 109.38 56.05 C 106.87 55.59 102.51 50.74 103.53 57.54 L 106.53 56.73 C 105.26 58.33 103.21 58.19 101.38 58.30 C 100.30 57.29 99.25 56.26 98.24 55.19 Z" />
<path fill="#010101" opacity="1.00" d=" M 145.33 64.26 C 146.24 65.46 147.08 66.69 147.90 67.95 C 147.04 69.06 146.21 70.20 145.37 71.32 C 145.43 68.97 145.41 66.61 145.33 64.26 Z" />
<path fill="#010101" opacity="1.00" d=" M 104.20 67.49 C 105.09 66.89 105.99 66.29 106.88 65.69 C 107.78 65.92 109.58 66.39 110.48 66.62 C 108.95 66.87 107.41 67.04 105.87 67.19 C 105.78 67.62 105.61 68.47 105.52 68.89 C 105.08 68.42 104.64 67.95 104.20 67.49 Z" />
<path fill="#010101" opacity="1.00" d=" M 100.05 75.98 C 102.22 73.08 105.00 70.55 108.38 69.17 C 109.34 70.09 110.28 71.02 111.21 71.96 C 112.98 70.92 114.80 68.45 116.91 70.22 C 120.04 72.01 124.04 71.84 126.82 74.23 C 129.33 76.29 126.62 79.38 125.98 81.72 C 124.52 80.96 123.54 78.02 121.79 78.63 C 120.69 79.43 119.80 80.46 118.85 81.41 C 118.15 83.81 115.48 83.63 113.52 84.14 C 111.87 84.47 110.26 85.01 108.59 85.21 C 107.03 83.68 105.76 81.88 104.19 80.36 C 103.64 80.71 102.54 81.42 102.00 81.77 C 101.05 80.01 99.48 78.09 100.05 75.98 M 105.06 78.07 C 107.39 77.24 109.81 76.02 112.11 77.73 C 114.95 75.30 117.82 78.06 120.82 77.86 C 120.93 77.59 121.14 77.07 121.25 76.81 C 118.52 74.80 115.12 74.17 111.96 73.12 C 109.25 74.02 106.68 75.67 105.06 78.07 M 104.42 79.35 C 108.30 84.16 116.35 83.41 120.36 79.11 C 118.78 78.54 117.21 77.92 115.67 77.25 C 114.44 77.68 113.21 78.12 111.98 78.57 C 111.05 78.14 110.12 77.71 109.19 77.28 C 107.62 78.01 106.02 78.68 104.42 79.35 Z" />
<path fill="#010101" opacity="1.00" d=" M 63.48 109.47 C 64.93 108.24 66.09 106.72 67.56 105.51 C 66.70 107.48 65.16 108.99 63.73 110.54 C 62.92 110.65 61.31 110.87 60.50 110.98 C 61.60 113.37 62.97 115.63 64.00 118.06 C 61.77 116.13 61.08 113.10 59.18 110.94 C 57.70 110.09 56.11 109.45 54.62 108.62 C 57.60 108.85 60.63 111.49 63.48 109.47 Z" />
<path fill="#010101" opacity="1.00" d=" M 197.91 145.08 C 200.12 143.09 202.55 141.34 205.14 139.86 C 203.38 142.38 200.79 144.12 197.91 145.08 Z" />
<path fill="#010101" opacity="1.00" d=" M 65.48 155.78 C 66.05 155.54 67.19 155.07 67.76 154.83 C 67.79 155.67 67.85 157.35 67.88 158.18 C 67.16 158.24 66.44 158.30 65.72 158.36 C 65.64 157.50 65.56 156.64 65.48 155.78 Z" />
</g>
</svg>
