<?xml version="1.0" encoding="UTF-8" ?>
<!DOCTYPE svg PUBLIC "-//W3C//DTD SVG 1.1//EN" "http://www.w3.org/Graphics/SVG/1.1/DTD/svg11.dtd">
<svg width="210pt" height="220pt" viewBox="0 0 210 220" version="1.1" xmlns="http://www.w3.org/2000/svg">
<g id="#ffffffff">
<path fill="#ffffff" opacity="1.00" d=" M 0.00 0.00 L 210.00 0.00 L 210.00 32.00 C 140.00 32.00 70.00 32.01 0.00 31.99 L 0.00 0.00 Z" />
<path fill="#ffffff" opacity="1.00" d=" M 118.46 60.55 C 124.90 58.88 131.44 57.48 138.07 56.80 C 148.57 55.87 158.25 60.96 167.30 65.55 C 166.70 72.65 167.04 79.91 164.85 86.78 C 163.56 92.80 160.09 97.95 157.43 103.40 C 155.48 107.38 152.02 110.42 150.45 114.60 C 149.51 116.94 149.40 119.48 149.38 121.98 C 149.50 128.45 146.98 134.54 145.17 140.65 C 134.38 134.96 121.44 134.41 109.84 137.84 C 109.59 138.37 109.08 139.43 108.82 139.97 C 116.77 137.21 125.47 136.18 133.72 138.15 C 135.50 138.45 136.67 139.90 137.92 141.05 C 137.44 141.25 136.48 141.64 136.00 141.83 C 134.31 141.62 132.64 141.24 130.98 140.89 C 133.08 144.33 137.18 144.95 140.57 146.53 C 133.92 151.94 127.00 158.50 117.98 159.07 C 116.01 159.24 114.03 159.21 112.07 159.01 C 102.63 155.75 94.16 148.51 91.35 138.68 C 86.34 126.57 83.38 113.41 84.57 100.26 C 85.54 91.02 90.38 82.41 97.27 76.27 C 103.19 69.73 109.93 63.42 118.46 60.55 M 122.80 80.54 C 121.67 82.45 120.54 84.37 119.33 86.23 C 121.51 87.84 123.96 89.02 126.39 90.20 C 122.48 92.12 118.18 93.94 115.66 97.70 C 114.09 100.12 112.17 102.55 111.65 105.45 C 108.87 109.46 106.56 113.86 104.82 118.42 L 105.25 118.80 C 106.72 123.30 111.54 125.47 115.99 125.58 C 122.75 125.79 130.12 126.07 135.91 121.94 C 140.59 118.45 145.83 114.35 146.73 108.18 C 148.83 106.84 150.85 105.34 152.48 103.45 C 152.78 101.50 152.96 99.50 153.63 97.64 C 154.43 95.90 156.13 94.17 155.15 92.14 C 154.79 90.49 153.21 89.74 151.95 88.86 C 151.00 92.11 150.12 95.39 149.20 98.65 C 146.92 96.31 144.73 93.85 142.14 91.84 C 139.35 89.78 136.04 88.64 132.98 87.06 C 129.49 85.03 126.49 82.23 122.80 80.54 M 104.20 141.31 C 105.91 143.10 108.22 143.88 110.67 143.89 C 109.41 142.84 108.03 141.92 106.65 141.03 C 107.20 139.39 107.70 137.72 108.05 136.03 C 106.27 137.39 105.22 139.37 104.20 141.31 Z" />
<path fill="#ffffff" opacity="1.00" d=" M 0.00 187.72 C 24.18 187.72 48.37 187.34 72.54 188.00 C 73.04 188.00 74.02 188.00 74.51 188.00 C 79.24 187.98 83.96 188.06 88.69 187.99 C 96.54 188.00 104.40 188.02 112.25 187.99 C 112.97 187.99 114.42 187.99 115.14 187.99 C 121.18 188.00 127.21 188.04 133.24 187.97 C 138.39 187.83 143.55 187.95 148.71 187.99 C 153.11 187.98 157.52 188.01 161.93 188.00 C 177.96 187.92 193.98 188.04 210.00 188.00 L 210.00 220.00 L 0.00 220.00 L 0.00 187.72 Z" />
</g>
<g id="#999999ff">
<path fill="#999999" opacity="1.00" d=" M 0.00 31.99 C 70.00 32.01 140.00 32.00 210.00 32.00 L 210.00 34.38 C 201.70 34.38 193.41 34.31 185.11 34.40 C 176.59 34.32 168.06 34.53 159.54 34.24 L 158.77 34.21 C 149.25 32.74 139.61 33.71 130.04 33.14 C 123.84 32.81 117.64 33.13 111.45 33.46 C 101.31 33.07 91.15 33.35 81.00 33.27 C 54.00 33.33 27.00 33.15 0.00 33.36 L 0.00 31.99 Z" />
<path fill="#999999" opacity="1.00" d=" M 62.05 187.40 C 66.40 187.50 70.47 185.89 74.42 184.27 C 73.77 185.50 73.15 186.75 72.54 188.00 C 48.37 187.34 24.18 187.72 0.00 187.72 L 0.00 187.40 C 20.68 187.30 41.37 187.35 62.05 187.40 Z" />
</g>
<g id="#fefefeff">
<path fill="#fefefe" opacity="1.00" d=" M 0.00 33.36 C 27.00 33.15 54.00 33.33 81.00 33.27 C 91.15 33.35 101.31 33.07 111.45 33.46 C 117.76 36.11 124.67 36.77 131.38 35.51 C 132.15 35.60 133.68 35.76 134.45 35.85 C 140.72 41.70 149.51 43.01 157.36 45.61 C 168.37 47.98 176.54 58.83 177.21 69.83 C 172.82 66.58 168.78 62.51 163.41 60.92 C 158.47 59.20 153.92 56.37 148.73 55.36 C 139.39 53.19 129.85 55.57 120.71 57.58 C 111.06 59.88 103.12 66.38 96.61 73.60 C 89.52 79.82 84.38 88.35 82.58 97.64 C 81.09 109.06 82.71 120.72 86.34 131.60 C 89.12 138.71 90.93 146.55 96.59 152.09 C 87.41 161.46 81.25 173.20 74.42 184.27 C 70.47 185.89 66.40 187.50 62.05 187.40 C 41.37 187.35 20.68 187.30 0.00 187.40 L 0.00 186.49 C 2.74 168.49 -0.75 150.18 2.02 132.18 C 3.69 135.48 5.99 138.56 6.78 142.24 C 7.32 144.77 7.68 147.35 8.57 149.80 C 9.41 146.41 8.83 142.66 10.55 139.52 C 11.97 136.73 13.69 134.11 15.31 131.43 C 14.61 131.41 13.22 131.36 12.52 131.33 C 11.23 133.98 9.87 136.59 8.51 139.20 C 6.63 136.04 5.29 132.23 1.81 130.45 C 0.40 121.69 1.11 112.82 1.02 104.00 C 1.11 92.85 0.38 81.66 1.87 70.57 C 3.21 75.93 4.87 81.21 5.94 86.63 C 6.56 86.64 7.79 86.66 8.41 86.67 C 9.75 82.10 11.12 77.54 12.16 72.88 C 13.47 77.43 14.53 82.04 15.57 86.65 C 16.16 86.66 17.35 86.66 17.94 86.66 C 19.79 80.90 21.42 75.06 22.90 69.19 C 22.32 69.25 21.15 69.37 20.57 69.43 C 19.35 73.83 18.22 78.26 16.98 82.66 C 15.59 78.30 14.77 73.80 13.76 69.35 C 13.12 69.35 11.83 69.34 11.19 69.33 C 9.90 73.79 8.79 78.31 7.28 82.71 C 6.08 78.37 5.22 73.95 4.33 69.55 C 3.67 69.43 2.35 69.19 1.69 69.07 C 0.55 58.88 0.37 48.51 2.04 38.37 C 2.86 40.92 4.29 43.20 5.42 45.61 C 7.16 49.11 7.16 53.12 8.50 56.75 C 9.40 53.18 8.96 49.24 10.88 45.97 C 12.23 43.36 13.82 40.89 15.30 38.35 C 14.60 38.35 13.18 38.34 12.48 38.33 C 11.19 40.88 9.85 43.40 8.48 45.90 C 6.71 42.79 5.04 39.52 2.18 37.26 C 1.42 36.51 0.69 35.73 0.00 34.93 L 0.00 33.36 M 20.39 38.47 C 13.59 40.96 13.25 52.13 19.65 55.34 C 21.81 55.97 24.18 55.98 26.34 55.35 C 32.36 52.60 32.90 43.19 27.83 39.27 C 25.65 37.84 22.84 37.96 20.39 38.47 M 34.21 38.32 C 34.29 42.75 33.83 47.23 34.53 51.63 C 35.65 57.05 44.41 57.32 46.37 52.40 C 47.77 47.53 47.44 42.30 46.31 37.41 C 42.20 41.92 47.50 49.58 42.50 53.65 C 40.11 54.47 37.27 53.63 36.63 50.96 C 36.22 46.78 36.51 42.57 36.47 38.38 C 35.90 38.36 34.77 38.34 34.21 38.32 M 49.52 53.45 C 49.52 53.99 49.52 55.06 49.53 55.60 C 50.61 55.60 51.70 55.59 52.78 55.58 C 52.58 54.46 52.37 53.35 52.16 52.24 C 51.28 52.64 50.40 53.05 49.52 53.45 M 56.03 51.72 C 55.58 53.03 55.13 54.33 54.67 55.64 C 55.66 55.59 57.64 55.48 58.63 55.43 C 57.77 54.18 56.89 52.96 56.03 51.72 M 59.75 55.47 C 60.67 55.52 62.49 55.63 63.41 55.68 C 63.17 54.27 62.59 52.96 62.08 51.64 C 61.27 52.89 60.49 54.17 59.75 55.47 M 25.59 68.40 C 25.01 74.79 24.92 81.30 25.66 87.69 C 28.32 85.34 27.17 81.59 27.37 78.49 C 30.17 78.51 32.96 78.51 35.76 78.48 C 35.73 81.54 35.88 84.60 36.53 87.60 C 37.68 86.40 38.38 84.78 38.25 83.10 C 38.21 78.88 38.39 74.65 38.15 70.43 C 37.60 69.97 36.49 69.04 35.94 68.57 C 35.80 71.19 35.80 73.81 35.80 76.43 C 33.09 76.14 29.84 77.23 27.48 75.81 C 27.13 73.27 28.15 70.08 25.59 68.40 M 46.34 70.08 C 44.39 75.80 41.62 81.43 41.20 87.55 C 43.37 86.09 44.20 83.58 45.14 81.27 C 47.05 81.29 48.95 81.30 50.85 81.31 C 51.72 83.64 52.43 86.28 54.86 87.49 C 54.25 81.17 51.48 75.30 49.36 69.39 C 48.41 69.40 46.61 68.71 46.34 70.08 M 53.22 69.64 C 54.85 71.33 57.16 71.38 59.34 71.50 C 59.45 76.90 58.94 82.34 59.80 87.70 C 60.52 86.57 61.49 85.46 61.35 84.02 C 61.45 79.83 61.32 75.63 61.31 71.44 C 63.57 71.33 66.06 71.51 67.71 69.64 C 62.91 69.07 58.02 69.06 53.22 69.64 M 24.67 100.36 C 22.69 106.13 20.73 111.92 18.82 117.71 C 19.43 117.71 20.65 117.71 21.26 117.70 C 21.78 115.93 22.33 114.16 22.87 112.39 C 24.95 112.37 27.03 112.36 29.10 112.34 C 29.85 114.77 30.34 117.81 33.35 118.35 C 31.85 112.22 29.53 106.32 27.45 100.36 C 26.52 100.36 25.60 100.36 24.67 100.36 M 32.69 100.38 C 34.65 106.12 36.47 111.89 38.32 117.67 C 39.03 117.69 40.44 117.74 41.14 117.76 C 42.92 111.90 45.32 106.25 47.17 100.41 C 46.56 100.42 45.32 100.42 44.70 100.42 C 43.01 105.10 41.57 109.87 39.86 114.54 C 38.27 109.86 36.65 105.19 35.37 100.41 C 34.70 100.41 33.36 100.39 32.69 100.38 M 48.79 100.37 C 48.76 106.16 48.78 111.94 48.76 117.73 C 52.41 117.83 56.08 117.93 59.69 117.34 C 57.38 115.17 54.10 115.82 51.23 115.75 C 51.26 113.69 51.28 111.64 51.30 109.59 C 53.49 109.58 55.67 109.58 57.86 109.59 C 57.85 109.11 57.83 108.15 57.82 107.66 C 55.64 107.68 53.46 107.70 51.28 107.70 C 51.27 105.94 51.25 104.18 51.23 102.42 C 53.65 101.95 57.40 103.49 58.79 100.98 C 55.64 99.71 52.10 100.56 48.79 100.37 M 3.60 118.61 C 6.77 116.72 5.06 112.55 5.49 109.53 C 8.25 109.56 11.00 109.56 13.75 109.56 C 13.75 112.51 13.85 115.47 14.37 118.38 C 15.83 117.79 16.56 116.51 16.35 114.96 C 16.34 110.12 16.43 105.27 16.27 100.43 C 15.68 100.45 14.49 100.47 13.89 100.48 C 13.75 102.86 13.80 105.24 13.80 107.61 C 11.03 107.60 8.26 107.60 5.49 107.60 C 5.39 104.75 6.12 101.52 3.80 99.33 C 2.88 105.69 3.19 112.21 3.60 118.61 M 21.30 131.16 C 13.77 133.02 12.89 144.95 19.59 148.42 C 21.82 149.06 24.27 149.04 26.51 148.45 C 30.67 146.37 32.34 140.70 30.66 136.50 C 29.63 132.66 25.17 129.87 21.30 131.16 M 34.21 131.28 C 34.34 135.93 33.70 140.67 34.68 145.25 C 36.24 150.56 45.45 150.17 46.60 144.76 C 47.69 140.06 47.43 135.11 46.33 130.44 C 42.09 134.81 47.64 142.79 42.45 146.59 C 40.66 148.60 38.07 146.32 36.79 144.80 C 36.09 140.36 36.55 135.83 36.47 131.35 C 35.90 131.33 34.77 131.30 34.21 131.28 M 3.33 162.49 C 3.27 168.34 3.25 174.19 3.34 180.04 C 6.63 180.25 10.09 180.37 13.17 178.99 C 18.60 176.20 19.34 167.29 14.19 163.86 C 11.02 161.63 6.95 162.43 3.33 162.49 M 24.56 162.68 C 17.24 165.70 17.79 178.94 26.06 180.19 C 31.39 181.29 36.19 176.18 35.57 170.99 C 36.23 165.25 29.99 160.24 24.56 162.68 M 38.46 162.37 C 38.43 168.16 38.45 173.96 38.43 179.75 C 38.92 179.78 39.88 179.82 40.37 179.85 C 40.37 175.19 40.33 170.53 40.41 165.87 C 42.84 169.95 45.24 174.05 47.90 177.98 C 48.65 179.26 50.04 179.86 51.23 180.63 C 51.58 175.05 51.58 169.46 51.40 163.88 C 50.98 163.31 50.15 162.17 49.73 161.60 C 49.03 166.46 49.43 171.38 49.36 176.26 C 46.70 171.53 43.67 167.03 40.78 162.45 C 40.20 162.43 39.04 162.39 38.46 162.37 M 55.39 162.43 C 55.40 168.21 55.40 173.99 55.38 179.78 C 58.90 179.83 62.44 179.92 65.96 179.49 C 63.81 177.09 60.45 177.81 57.62 177.72 C 57.62 175.75 57.64 173.78 57.66 171.81 C 60.30 171.75 62.97 171.77 65.54 171.08 C 63.17 169.52 60.30 169.83 57.62 169.77 C 57.62 167.99 57.63 166.21 57.64 164.44 C 59.98 164.42 62.33 164.42 64.67 164.42 C 64.68 163.92 64.70 162.92 64.71 162.41 C 61.60 162.42 58.49 162.44 55.39 162.43 M 66.60 163.08 C 68.63 164.08 70.89 164.35 73.09 164.75 C 72.92 168.79 68.77 171.50 69.74 175.74 C 71.99 172.76 74.69 169.66 75.53 165.99 C 75.52 161.39 69.61 161.58 66.60 163.08 M 69.45 176.40 C 69.45 177.45 69.45 179.53 69.45 180.58 C 70.55 180.11 71.64 179.62 72.71 179.10 C 72.27 177.54 70.75 177.04 69.45 176.40 Z" />
<path fill="#fefefe" opacity="1.00" d=" M 123.63 105.47 C 128.65 106.00 133.39 107.92 138.33 108.88 C 138.15 109.64 137.77 111.17 137.58 111.93 C 136.98 111.97 135.77 112.06 135.16 112.11 C 131.30 110.76 127.36 109.58 123.67 107.81 C 123.66 107.23 123.64 106.06 123.63 105.47 Z" />
<path fill="#fefefe" opacity="1.00" d=" M 78.51 181.75 C 84.46 172.54 89.79 162.82 97.18 154.65 C 100.47 161.50 103.06 168.67 106.61 175.41 C 98.19 180.51 88.03 180.79 78.51 181.75 Z" />
<path fill="#fefefe" opacity="1.00" d=" M 99.69 155.16 C 103.18 157.33 107.11 158.95 109.98 162.00 C 113.31 165.45 116.90 168.68 119.91 172.44 C 116.81 174.45 113.34 175.75 109.81 176.74 C 106.28 169.61 103.19 162.29 99.69 155.16 Z" />
</g>
<g id="#c4c4c4ff">
<path fill="#c4c4c4" opacity="1.00" d=" M 111.45 33.46 C 117.64 33.13 123.84 32.81 130.04 33.14 C 139.61 33.71 149.25 32.74 158.77 34.21 C 149.65 34.73 140.34 33.29 131.38 35.51 C 124.67 36.77 117.76 36.11 111.45 33.46 Z" />
<path fill="#c4c4c4" opacity="1.00" d=" M 162.41 118.50 C 162.96 118.49 164.08 118.47 164.64 118.46 C 164.65 118.95 164.68 119.91 164.70 120.40 C 164.08 120.43 162.83 120.48 162.21 120.51 C 162.26 120.01 162.36 119.00 162.41 118.50 Z" />
</g>
<g id="#545454ff">
<path fill="#545454" opacity="1.00" d=" M 131.38 35.51 C 140.34 33.29 149.65 34.73 158.77 34.21 L 159.54 34.24 C 160.17 35.80 160.80 37.35 161.43 38.91 C 163.54 38.59 165.65 38.27 167.74 37.84 C 170.50 40.61 173.23 43.41 176.12 46.04 C 173.12 45.34 170.04 44.91 167.16 43.78 C 163.44 42.34 160.11 39.96 156.20 38.99 C 151.83 37.92 147.30 37.88 142.87 37.21 C 140.09 36.61 137.27 36.18 134.45 35.85 C 133.68 35.76 132.15 35.60 131.38 35.51 Z" />
</g>
<g id="#eeededff">
<path fill="#eeeded" opacity="1.00" d=" M 0.00 34.93 C 0.69 35.73 1.42 36.51 2.18 37.26 L 2.04 38.37 C 0.37 48.51 0.55 58.88 1.69 69.07 C 1.74 69.45 1.83 70.20 1.87 70.57 C 0.38 81.66 1.11 92.85 1.02 104.00 C 1.11 112.82 0.40 121.69 1.81 130.45 C 1.86 130.88 1.96 131.75 2.02 132.18 C -0.75 150.18 2.74 168.49 0.00 186.49 L 0.00 34.93 Z" />
</g>
<g id="#2a2a2aff">
<path fill="#2a2a2a" opacity="1.00" d=" M 159.54 34.24 C 168.06 34.53 176.59 34.32 185.11 34.40 C 186.21 37.84 187.06 41.39 188.68 44.64 C 189.65 46.68 192.03 47.27 193.86 48.27 C 194.96 53.50 194.95 58.86 195.02 64.18 C 193.46 60.30 192.49 56.17 190.39 52.53 C 187.92 49.07 183.91 47.11 181.30 43.76 C 179.15 41.35 177.69 38.18 174.87 36.46 C 172.44 36.63 170.11 37.36 167.74 37.84 C 165.65 38.27 163.54 38.59 161.43 38.91 C 160.80 37.35 160.17 35.80 159.54 34.24 Z" />
</g>
<g id="#141414ff">
<path fill="#141414" opacity="1.00" d=" M 185.11 34.40 C 193.41 34.31 201.70 34.38 210.00 34.38 L 210.00 89.44 C 208.59 84.51 206.32 79.78 202.94 75.89 C 199.90 72.29 196.50 68.77 195.02 64.18 C 194.95 58.86 194.96 53.50 193.86 48.27 C 192.03 47.27 189.65 46.68 188.68 44.64 C 187.06 41.39 186.21 37.84 185.11 34.40 Z" />
</g>
<g id="#b1b1b1ff">
<path fill="#b1b1b1" opacity="1.00" d=" M 134.45 35.85 C 137.27 36.18 140.09 36.61 142.87 37.21 C 147.67 38.91 152.55 40.36 157.45 41.74 C 162.48 43.04 165.43 47.66 169.51 50.50 C 175.86 54.98 182.07 59.73 189.06 63.21 C 190.08 64.13 191.10 65.05 192.08 66.01 C 192.78 66.92 193.49 67.83 194.18 68.75 C 194.88 74.79 196.08 80.75 197.39 86.68 C 198.89 93.14 195.82 99.34 194.99 105.65 C 194.07 104.98 193.15 104.32 192.24 103.65 C 192.21 98.92 193.00 93.99 191.46 89.42 C 189.35 85.04 186.39 81.12 183.99 76.90 C 182.24 74.10 179.79 71.85 177.21 69.83 C 176.54 58.83 168.37 47.98 157.36 45.61 C 149.51 43.01 140.72 41.70 134.45 35.85 Z" />
<path fill="#b1b1b1" opacity="1.00" d=" M 164.90 156.59 C 172.87 151.36 178.39 143.50 183.92 135.92 C 184.61 140.33 183.93 144.78 183.02 149.10 C 182.47 150.07 181.89 151.02 181.27 151.95 C 175.79 153.39 170.33 154.96 164.90 156.59 Z" />
</g>
<g id="#3c3c3cff">
<path fill="#3c3c3c" opacity="1.00" d=" M 167.74 37.84 C 170.11 37.36 172.44 36.63 174.87 36.46 C 177.69 38.18 179.15 41.35 181.30 43.76 C 183.91 47.11 187.92 49.07 190.39 52.53 C 192.49 56.17 193.46 60.30 195.02 64.18 C 196.50 68.77 199.90 72.29 202.94 75.89 C 202.40 78.62 201.44 81.43 202.02 84.23 C 203.23 89.12 206.78 93.20 207.36 98.27 C 207.29 103.01 204.44 107.10 202.28 111.13 C 201.11 104.13 199.23 97.19 199.34 90.05 C 199.22 82.75 199.60 74.45 194.18 68.75 C 193.49 67.83 192.78 66.92 192.08 66.01 C 190.85 61.64 190.30 56.97 187.95 53.01 C 186.35 50.16 182.71 49.94 179.99 48.73 C 178.70 47.84 177.41 46.94 176.12 46.04 C 173.23 43.41 170.50 40.61 167.74 37.84 Z" />
</g>
<g id="#7b7b7bff">
<path fill="#7b7b7b" opacity="1.00" d=" M 142.87 37.21 C 147.30 37.88 151.83 37.92 156.20 38.99 C 160.11 39.96 163.44 42.34 167.16 43.78 C 170.04 44.91 173.12 45.34 176.12 46.04 C 177.41 46.94 178.70 47.84 179.99 48.73 C 183.36 53.34 186.04 58.38 189.06 63.21 C 182.07 59.73 175.86 54.98 169.51 50.50 C 165.43 47.66 162.48 43.04 157.45 41.74 C 152.55 40.36 147.67 38.91 142.87 37.21 Z" />
<path fill="#7b7b7b" opacity="1.00" d=" M 194.18 68.75 C 199.60 74.45 199.22 82.75 199.34 90.05 C 199.23 97.19 201.11 104.13 202.28 111.13 L 201.89 111.80 C 195.32 123.30 189.29 135.15 184.06 147.33 C 183.80 147.77 183.28 148.66 183.02 149.10 C 183.93 144.78 184.61 140.33 183.92 135.92 L 183.83 135.22 C 188.63 128.37 189.39 119.84 191.13 111.90 C 192.64 111.90 194.16 111.91 195.69 111.92 C 195.39 109.84 195.10 107.75 194.99 105.65 C 195.82 99.34 198.89 93.14 197.39 86.68 C 196.08 80.75 194.88 74.79 194.18 68.75 Z" />
<path fill="#7b7b7b" opacity="1.00" d=" M 164.90 156.59 C 170.33 154.96 175.79 153.39 181.27 151.95 C 178.12 156.92 173.43 160.57 168.83 164.11 C 168.17 162.90 167.51 161.69 166.85 160.49 C 166.82 161.35 166.77 163.08 166.74 163.95 C 165.05 166.53 162.92 168.78 160.74 170.95 C 160.06 169.56 159.40 168.18 158.73 166.79 C 157.92 169.45 157.60 172.50 155.52 174.55 C 152.93 177.23 150.04 179.60 147.22 182.02 L 146.67 182.37 C 144.11 180.47 141.50 178.30 138.26 177.79 C 134.84 177.26 131.38 177.79 127.97 178.09 C 126.17 176.19 124.43 174.24 122.78 172.21 C 127.67 169.69 132.93 168.04 138.26 166.72 C 137.39 166.62 136.52 166.52 135.65 166.43 C 143.14 166.58 150.90 165.96 157.68 162.50 C 160.56 161.17 162.47 158.53 164.90 156.59 Z" />
<path fill="#7b7b7b" opacity="1.00" d=" M 119.91 172.44 C 121.41 174.31 122.85 176.24 124.41 178.07 C 120.43 179.50 116.42 180.83 112.42 182.22 C 111.55 180.39 110.67 178.57 109.81 176.74 C 113.34 175.75 116.81 174.45 119.91 172.44 Z" />
</g>
<g id="#f31818ff">
<path fill="#f31818" opacity="1.00" d=" M 2.18 37.26 C 5.04 39.52 6.71 42.79 8.48 45.90 C 9.85 43.40 11.19 40.88 12.48 38.33 C 13.18 38.34 14.60 38.35 15.30 38.35 C 13.82 40.89 12.23 43.36 10.88 45.97 C 8.96 49.24 9.40 53.18 8.50 56.75 C 7.16 53.12 7.16 49.11 5.42 45.61 C 4.29 43.20 2.86 40.92 2.04 38.37 L 2.18 37.26 Z" />
</g>
<g id="#f50102ff">
<path fill="#f50102" opacity="1.00" d=" M 20.39 38.47 C 22.84 37.96 25.65 37.84 27.83 39.27 C 32.90 43.19 32.36 52.60 26.34 55.35 C 24.18 55.98 21.81 55.97 19.65 55.34 C 13.25 52.13 13.59 40.96 20.39 38.47 M 18.52 42.57 C 17.22 45.70 17.02 49.91 19.51 52.51 C 20.90 54.30 23.50 54.04 25.46 53.60 C 28.77 51.51 29.40 47.19 28.32 43.69 C 27.37 41.42 25.05 40.37 23.01 39.31 C 21.47 40.32 19.67 41.08 18.52 42.57 Z" />
</g>
<g id="#f60000ff">
<path fill="#f60000" opacity="1.00" d=" M 34.21 38.32 C 34.77 38.34 35.90 38.36 36.47 38.38 C 36.51 42.57 36.22 46.78 36.63 50.96 C 37.27 53.63 40.11 54.47 42.50 53.65 C 47.50 49.58 42.20 41.92 46.31 37.41 C 47.44 42.30 47.77 47.53 46.37 52.40 C 44.41 57.32 35.65 57.05 34.53 51.63 C 33.83 47.23 34.29 42.75 34.21 38.32 Z" />
<path fill="#f60000" opacity="1.00" d=" M 34.21 131.28 C 34.77 131.30 35.90 131.33 36.47 131.35 C 36.55 135.83 36.09 140.36 36.79 144.80 C 38.07 146.32 40.66 148.60 42.45 146.59 C 47.64 142.79 42.09 134.81 46.33 130.44 C 47.43 135.11 47.69 140.06 46.60 144.76 C 45.45 150.17 36.24 150.56 34.68 145.25 C 33.70 140.67 34.34 135.93 34.21 131.28 Z" />
</g>
<g id="#fbfefcff">
<path fill="#fbfefc" opacity="1.00" d=" M 18.52 42.57 C 19.67 41.08 21.47 40.32 23.01 39.31 C 25.05 40.37 27.37 41.42 28.32 43.69 C 29.40 47.19 28.77 51.51 25.46 53.60 C 23.50 54.04 20.90 54.30 19.51 52.51 C 17.02 49.91 17.22 45.70 18.52 42.57 Z" />
<path fill="#fbfefc" opacity="1.00" d=" M 25.50 164.51 C 27.20 164.07 29.37 163.93 30.66 165.35 C 33.64 167.67 33.06 171.99 32.37 175.24 C 30.99 177.41 27.91 179.48 25.42 177.76 C 20.42 175.33 20.76 167.06 25.50 164.51 Z" />
</g>
<g id="#555555ff">
<path fill="#555555" opacity="1.00" d=" M 179.99 48.73 C 182.71 49.94 186.35 50.16 187.95 53.01 C 190.30 56.97 190.85 61.64 192.08 66.01 C 191.10 65.05 190.08 64.13 189.06 63.21 C 186.04 58.38 183.36 53.34 179.99 48.73 Z" />
</g>
<g id="#f20708ff">
<path fill="#f20708" opacity="1.00" d=" M 49.52 53.45 C 50.40 53.05 51.28 52.64 52.16 52.24 C 52.37 53.35 52.58 54.46 52.78 55.58 C 51.70 55.59 50.61 55.60 49.53 55.60 C 49.52 55.06 49.52 53.99 49.52 53.45 Z" />
<path fill="#f20708" opacity="1.00" d=" M 56.03 51.72 C 56.89 52.96 57.77 54.18 58.63 55.43 C 57.64 55.48 55.66 55.59 54.67 55.64 C 55.13 54.33 55.58 53.03 56.03 51.72 Z" />
<path fill="#f20708" opacity="1.00" d=" M 59.75 55.47 C 60.49 54.17 61.27 52.89 62.08 51.64 C 62.59 52.96 63.17 54.27 63.41 55.68 C 62.49 55.63 60.67 55.52 59.75 55.47 Z" />
<path fill="#f20708" opacity="1.00" d=" M 48.79 100.37 C 52.10 100.56 55.64 99.71 58.79 100.98 C 57.40 103.49 53.65 101.95 51.23 102.42 C 51.25 104.18 51.27 105.94 51.28 107.70 C 53.46 107.70 55.64 107.68 57.82 107.66 C 57.83 108.15 57.85 109.11 57.86 109.59 C 55.67 109.58 53.49 109.58 51.30 109.59 C 51.28 111.64 51.26 113.69 51.23 115.75 C 54.10 115.82 57.38 115.17 59.69 117.34 C 56.08 117.93 52.41 117.83 48.76 117.73 C 48.78 111.94 48.76 106.16 48.79 100.37 Z" />
<path fill="#f20708" opacity="1.00" d=" M 24.56 162.68 C 29.99 160.24 36.23 165.25 35.57 170.99 C 36.19 176.18 31.39 181.29 26.06 180.19 C 17.79 178.94 17.24 165.70 24.56 162.68 M 25.50 164.51 C 20.76 167.06 20.42 175.33 25.42 177.76 C 27.91 179.48 30.99 177.41 32.37 175.24 C 33.06 171.99 33.64 167.67 30.66 165.35 C 29.37 163.93 27.20 164.07 25.50 164.51 Z" />
<path fill="#f20708" opacity="1.00" d=" M 66.60 163.08 C 69.61 161.58 75.52 161.39 75.53 165.99 C 74.69 169.66 71.99 172.76 69.74 175.74 C 68.77 171.50 72.92 168.79 73.09 164.75 C 70.89 164.35 68.63 164.08 66.60 163.08 Z" />
<path fill="#f20708" opacity="1.00" d=" M 69.45 176.40 C 70.75 177.04 72.27 177.54 72.71 179.10 C 71.64 179.62 70.55 180.11 69.45 180.58 C 69.45 179.53 69.45 177.45 69.45 176.40 Z" />
</g>
<g id="#040404ff">
<path fill="#040404" opacity="1.00" d=" M 120.71 57.58 C 129.85 55.57 139.39 53.19 148.73 55.36 C 153.92 56.37 158.47 59.20 163.41 60.92 C 168.78 62.51 172.82 66.58 177.21 69.83 C 179.79 71.85 182.24 74.10 183.99 76.90 C 183.48 77.14 182.44 77.63 181.92 77.87 C 177.96 72.81 172.61 69.08 167.30 65.55 C 158.25 60.96 148.57 55.87 138.07 56.80 C 131.44 57.48 124.90 58.88 118.46 60.55 C 109.93 63.42 103.19 69.73 97.27 76.27 C 90.38 82.41 85.54 91.02 84.57 100.26 C 83.38 113.41 86.34 126.57 91.35 138.68 C 94.16 148.51 102.63 155.75 112.07 159.01 C 122.02 162.32 132.52 164.27 143.02 164.23 C 148.72 164.27 153.64 161.04 158.28 158.13 C 155.12 150.66 149.74 143.77 142.02 140.72 C 140.68 140.00 139.22 140.57 137.92 141.05 C 136.67 139.90 135.50 138.45 133.72 138.15 C 125.47 136.18 116.77 137.21 108.82 139.97 C 109.08 139.43 109.59 138.37 109.84 137.84 C 121.44 134.41 134.38 134.96 145.17 140.65 C 152.04 144.17 156.93 150.48 159.36 157.73 C 164.08 154.01 169.25 150.75 173.13 146.09 C 176.63 141.89 179.87 137.48 183.49 133.37 C 183.57 133.84 183.75 134.76 183.83 135.22 L 183.92 135.92 C 178.39 143.50 172.87 151.36 164.90 156.59 C 162.47 158.53 160.56 161.17 157.68 162.50 C 150.90 165.96 143.14 166.58 135.65 166.43 C 127.93 165.74 120.33 164.10 112.88 161.99 C 116.36 165.22 119.88 168.43 122.78 172.21 C 124.43 174.24 126.17 176.19 127.97 178.09 C 130.97 181.05 133.52 184.69 137.32 186.67 C 140.86 186.49 143.72 184.06 146.67 182.37 L 147.22 182.02 C 152.53 181.04 157.50 178.84 161.84 175.64 C 160.99 174.35 160.14 173.06 159.29 171.77 C 160.93 172.16 162.57 172.55 164.21 172.95 C 165.74 170.19 166.95 167.17 166.74 163.95 C 166.77 163.08 166.82 161.35 166.85 160.49 C 167.51 161.69 168.17 162.90 168.83 164.11 C 169.36 165.10 169.89 166.10 170.42 167.09 C 169.12 169.41 167.85 171.73 166.62 174.09 C 170.09 173.10 174.57 173.03 176.74 169.69 C 178.26 167.45 176.47 164.96 175.40 162.97 C 175.12 162.50 174.56 161.56 174.27 161.09 C 175.64 160.88 177.01 160.70 178.39 160.49 C 180.52 156.65 182.73 152.75 186.02 149.77 C 187.52 151.59 189.03 153.41 190.56 155.21 C 191.75 153.73 192.95 152.25 194.15 150.77 C 196.51 151.03 198.90 151.50 201.28 151.21 C 204.84 147.93 207.26 143.62 210.00 139.67 L 210.00 188.00 C 193.98 188.04 177.96 187.92 161.93 188.00 C 164.56 185.20 167.16 182.38 169.69 179.49 C 167.56 178.74 165.30 176.89 162.97 177.98 C 157.58 180.28 153.13 184.23 148.71 187.99 C 143.55 187.95 138.39 187.83 133.24 187.97 C 130.43 184.55 127.32 181.40 124.41 178.07 C 122.85 176.24 121.41 174.31 119.91 172.44 C 116.90 168.68 113.31 165.45 109.98 162.00 C 107.11 158.95 103.18 157.33 99.69 155.16 C 103.19 162.29 106.28 169.61 109.81 176.74 C 110.67 178.57 111.55 180.39 112.42 182.22 C 113.34 184.14 114.24 186.07 115.14 187.99 C 114.42 187.99 112.97 187.99 112.25 187.99 C 111.36 185.92 110.46 183.87 109.53 181.82 C 108.84 180.30 108.16 178.78 107.47 177.26 C 107.25 176.79 106.83 175.87 106.61 175.41 C 103.06 168.67 100.47 161.50 97.18 154.65 C 89.79 162.82 84.46 172.54 78.51 181.75 C 77.57 183.29 76.65 184.85 75.68 186.38 C 75.39 186.79 74.81 187.60 74.51 188.00 C 74.02 188.00 73.04 188.00 72.54 188.00 C 73.15 186.75 73.77 185.50 74.42 184.27 C 81.25 173.20 87.41 161.46 96.59 152.09 C 90.93 146.55 89.12 138.71 86.34 131.60 C 82.71 120.72 81.09 109.06 82.58 97.64 C 84.38 88.35 89.52 79.82 96.61 73.60 C 103.12 66.38 111.06 59.88 120.71 57.58 Z" />
</g>
<g id="#474747ff">
<path fill="#474747" opacity="1.00" d=" M 167.30 65.55 C 172.61 69.08 177.96 72.81 181.92 77.87 C 184.28 81.32 186.53 84.87 188.34 88.65 C 190.37 92.85 190.08 97.64 190.18 102.18 C 182.66 102.50 175.11 102.68 167.62 101.84 C 168.60 99.74 169.58 97.63 170.54 95.51 C 170.34 95.07 169.95 94.20 169.75 93.76 C 166.42 96.99 162.59 100.23 161.68 105.03 C 157.13 109.20 153.66 114.45 151.98 120.42 C 150.34 125.44 150.00 131.01 151.88 136.01 C 152.94 138.85 155.48 140.70 157.64 142.67 C 156.79 140.53 155.89 138.42 154.99 136.31 C 155.80 136.48 156.62 136.65 157.44 136.82 C 156.80 134.93 156.16 133.05 155.56 131.15 C 159.24 133.34 163.25 135.19 167.58 135.50 C 173.27 136.11 179.48 133.24 181.92 127.92 C 184.75 122.34 184.83 115.94 184.39 109.85 C 185.95 110.27 187.51 110.69 189.07 111.12 C 188.16 118.76 185.88 126.10 183.49 133.37 C 179.87 137.48 176.63 141.89 173.13 146.09 C 169.25 150.75 164.08 154.01 159.36 157.73 C 156.93 150.48 152.04 144.17 145.17 140.65 C 146.98 134.54 149.50 128.45 149.38 121.98 C 149.40 119.48 149.51 116.94 150.45 114.60 C 152.02 110.42 155.48 107.38 157.43 103.40 C 160.09 97.95 163.56 92.80 164.85 86.78 C 167.04 79.91 166.70 72.65 167.30 65.55 Z" />
<path fill="#474747" opacity="1.00" d=" M 130.98 140.89 C 132.64 141.24 134.31 141.62 136.00 141.83 C 136.48 141.64 137.44 141.25 137.92 141.05 C 139.22 140.57 140.68 140.00 142.02 140.72 C 149.74 143.77 155.12 150.66 158.28 158.13 C 153.64 161.04 148.72 164.27 143.02 164.23 C 132.52 164.27 122.02 162.32 112.07 159.01 C 114.03 159.21 116.01 159.24 117.98 159.07 C 127.00 158.50 133.92 151.94 140.57 146.53 C 137.18 144.95 133.08 144.33 130.98 140.89 Z" />
</g>
<g id="#f30404ff">
<path fill="#f30404" opacity="1.00" d=" M 1.69 69.07 C 2.35 69.19 3.67 69.43 4.33 69.55 C 5.22 73.95 6.08 78.37 7.28 82.71 C 8.79 78.31 9.90 73.79 11.19 69.33 C 11.83 69.34 13.12 69.35 13.76 69.35 C 14.77 73.80 15.59 78.30 16.98 82.66 C 18.22 78.26 19.35 73.83 20.57 69.43 C 21.15 69.37 22.32 69.25 22.90 69.19 C 21.42 75.06 19.79 80.90 17.94 86.66 C 17.35 86.66 16.16 86.66 15.57 86.65 C 14.53 82.04 13.47 77.43 12.16 72.88 C 11.12 77.54 9.75 82.10 8.41 86.67 C 7.79 86.66 6.56 86.64 5.94 86.63 C 4.87 81.21 3.21 75.93 1.87 70.57 C 1.83 70.20 1.74 69.45 1.69 69.07 Z" />
<path fill="#f30404" opacity="1.00" d=" M 53.22 69.64 C 58.02 69.06 62.91 69.07 67.71 69.64 C 66.06 71.51 63.57 71.33 61.31 71.44 C 61.32 75.63 61.45 79.83 61.35 84.02 C 61.49 85.46 60.52 86.57 59.80 87.70 C 58.94 82.34 59.45 76.90 59.34 71.50 C 57.16 71.38 54.85 71.33 53.22 69.64 Z" />
</g>
<g id="#f30303ff">
<path fill="#f30303" opacity="1.00" d=" M 25.59 68.40 C 28.15 70.08 27.13 73.27 27.48 75.81 C 29.84 77.23 33.09 76.14 35.80 76.43 C 35.80 73.81 35.80 71.19 35.94 68.57 C 36.49 69.04 37.60 69.97 38.15 70.43 C 38.39 74.65 38.21 78.88 38.25 83.10 C 38.38 84.78 37.68 86.40 36.53 87.60 C 35.88 84.60 35.73 81.54 35.76 78.48 C 32.96 78.51 30.17 78.51 27.37 78.49 C 27.17 81.59 28.32 85.34 25.66 87.69 C 24.92 81.30 25.01 74.79 25.59 68.40 Z" />
<path fill="#f30303" opacity="1.00" d=" M 24.67 100.36 C 25.60 100.36 26.52 100.36 27.45 100.36 C 29.53 106.32 31.85 112.22 33.35 118.35 C 30.34 117.81 29.85 114.77 29.10 112.34 C 27.03 112.36 24.95 112.37 22.87 112.39 C 22.33 114.16 21.78 115.93 21.26 117.70 C 20.65 117.71 19.43 117.71 18.82 117.71 C 20.73 111.92 22.69 106.13 24.67 100.36 M 23.32 110.48 C 25.12 110.48 26.92 110.48 28.73 110.47 C 27.78 108.15 26.91 105.79 26.03 103.44 C 25.23 105.82 24.33 108.17 23.32 110.48 Z" />
<path fill="#f30303" opacity="1.00" d=" M 3.60 118.61 C 3.19 112.21 2.88 105.69 3.80 99.33 C 6.12 101.52 5.39 104.75 5.49 107.60 C 8.26 107.60 11.03 107.60 13.80 107.61 C 13.80 105.24 13.75 102.86 13.89 100.48 C 14.49 100.47 15.68 100.45 16.27 100.43 C 16.43 105.27 16.34 110.12 16.35 114.96 C 16.56 116.51 15.83 117.79 14.37 118.38 C 13.85 115.47 13.75 112.51 13.75 109.56 C 11.00 109.56 8.25 109.56 5.49 109.53 C 5.06 112.55 6.77 116.72 3.60 118.61 Z" />
<path fill="#f30303" opacity="1.00" d=" M 1.81 130.45 C 5.29 132.23 6.63 136.04 8.51 139.20 C 9.87 136.59 11.23 133.98 12.52 131.33 C 13.22 131.36 14.61 131.41 15.31 131.43 C 13.69 134.11 11.97 136.73 10.55 139.52 C 8.83 142.66 9.41 146.41 8.57 149.80 C 7.68 147.35 7.32 144.77 6.78 142.24 C 5.99 138.56 3.69 135.48 2.02 132.18 C 1.96 131.75 1.86 130.88 1.81 130.45 Z" />
</g>
<g id="#f40d0eff">
<path fill="#f40d0e" opacity="1.00" d=" M 46.34 70.08 C 46.61 68.71 48.41 69.40 49.36 69.39 C 51.48 75.30 54.25 81.17 54.86 87.49 C 52.43 86.28 51.72 83.64 50.85 81.31 C 48.95 81.30 47.05 81.29 45.14 81.27 C 44.20 83.58 43.37 86.09 41.20 87.55 C 41.62 81.43 44.39 75.80 46.34 70.08 M 45.40 79.34 C 47.10 79.35 48.80 79.36 50.50 79.36 C 49.79 77.36 49.18 75.32 48.43 73.34 C 46.01 73.50 46.60 77.63 45.40 79.34 Z" />
</g>
<g id="#fafefdff">
<path fill="#fafefd" opacity="1.00" d=" M 45.40 79.34 C 46.60 77.63 46.01 73.50 48.43 73.34 C 49.18 75.32 49.79 77.36 50.50 79.36 C 48.80 79.36 47.10 79.35 45.40 79.34 Z" />
<path fill="#fafefd" opacity="1.00" d=" M 23.32 110.48 C 24.33 108.17 25.23 105.82 26.03 103.44 C 26.91 105.79 27.78 108.15 28.73 110.47 C 26.92 110.48 25.12 110.48 23.32 110.48 Z" />
<path fill="#fafefd" opacity="1.00" d=" M 5.51 164.21 C 7.64 164.43 10.00 163.99 11.96 165.03 C 16.58 167.44 16.27 175.52 11.39 177.44 C 9.56 178.32 7.49 178.34 5.51 178.52 C 5.44 173.75 5.44 168.98 5.51 164.21 Z" />
</g>
<g id="#292929ff">
<path fill="#292929" opacity="1.00" d=" M 202.94 75.89 C 206.32 79.78 208.59 84.51 210.00 89.44 L 210.00 115.90 C 208.43 117.79 206.87 119.67 205.33 121.58 C 205.21 121.16 204.97 120.34 204.85 119.93 C 203.93 117.19 202.89 114.50 201.89 111.80 L 202.28 111.13 C 204.44 107.10 207.29 103.01 207.36 98.27 C 206.78 93.20 203.23 89.12 202.02 84.23 C 201.44 81.43 202.40 78.62 202.94 75.89 Z" />
</g>
<g id="#000000ff">
<path fill="#000000" opacity="1.00" d=" M 181.92 77.87 C 182.44 77.63 183.48 77.14 183.99 76.90 C 186.39 81.12 189.35 85.04 191.46 89.42 C 193.00 93.99 192.21 98.92 192.24 103.65 C 193.15 104.32 194.07 104.98 194.99 105.65 C 195.10 107.75 195.39 109.84 195.69 111.92 C 194.16 111.91 192.64 111.90 191.13 111.90 C 189.39 119.84 188.63 128.37 183.83 135.22 C 183.75 134.76 183.57 133.84 183.49 133.37 C 185.88 126.10 188.16 118.76 189.07 111.12 C 187.51 110.69 185.95 110.27 184.39 109.85 C 184.83 115.94 184.75 122.34 181.92 127.92 C 179.48 133.24 173.27 136.11 167.58 135.50 C 163.25 135.19 159.24 133.34 155.56 131.15 C 154.48 127.54 153.31 123.95 151.98 120.42 C 153.66 114.45 157.13 109.20 161.68 105.03 C 162.59 100.23 166.42 96.99 169.75 93.76 C 169.95 94.20 170.34 95.07 170.54 95.51 C 169.58 97.63 168.60 99.74 167.62 101.84 C 175.11 102.68 182.66 102.50 190.18 102.18 C 190.08 97.64 190.37 92.85 188.34 88.65 C 186.53 84.87 184.28 81.32 181.92 77.87 M 158.19 116.30 C 158.17 118.00 158.18 119.69 158.26 121.39 C 158.83 120.00 159.32 118.58 159.77 117.15 C 159.25 116.87 158.72 116.58 158.19 116.30 M 162.41 118.50 C 162.36 119.00 162.26 120.01 162.21 120.51 C 162.83 120.48 164.08 120.43 164.70 120.40 C 164.68 119.91 164.65 118.95 164.64 118.46 C 164.08 118.47 162.96 118.49 162.41 118.50 M 165.20 124.34 C 169.96 125.87 174.82 127.55 179.86 126.23 C 176.09 123.87 172.04 122.03 167.93 120.34 C 167.06 121.70 166.14 123.03 165.20 124.34 Z" />
<path fill="#000000" opacity="1.00" d=" M 122.80 80.54 C 126.49 82.23 129.49 85.03 132.98 87.06 C 136.04 88.64 139.35 89.78 142.14 91.84 C 144.73 93.85 146.92 96.31 149.20 98.65 C 150.12 95.39 151.00 92.11 151.95 88.86 C 153.21 89.74 154.79 90.49 155.15 92.14 C 156.13 94.17 154.43 95.90 153.63 97.64 C 152.96 99.50 152.78 101.50 152.48 103.45 C 150.82 102.93 149.16 102.43 147.49 101.93 C 147.26 104.01 147.04 106.10 146.73 108.18 C 145.83 114.35 140.59 118.45 135.91 121.94 C 130.12 126.07 122.75 125.79 115.99 125.58 C 111.54 125.47 106.72 123.30 105.25 118.80 C 108.17 121.08 111.32 123.38 115.05 124.07 C 118.49 124.59 121.98 124.23 125.43 124.00 C 121.48 122.40 117.33 121.27 113.55 119.30 C 112.61 118.95 112.71 117.87 112.57 117.06 C 112.31 113.19 111.94 109.32 111.65 105.45 C 112.17 102.55 114.09 100.12 115.66 97.70 C 118.18 93.94 122.48 92.12 126.39 90.20 C 123.96 89.02 121.51 87.84 119.33 86.23 C 120.54 84.37 121.67 82.45 122.80 80.54 M 115.10 102.21 C 115.19 103.25 115.35 104.29 115.57 105.32 C 116.65 105.48 117.73 105.62 118.83 105.72 C 118.91 103.32 117.35 102.31 115.10 102.21 M 123.63 105.47 C 123.64 106.06 123.66 107.23 123.67 107.81 C 127.36 109.58 131.30 110.76 135.16 112.11 C 136.92 112.41 138.69 112.69 140.45 112.97 C 140.72 112.15 141.27 110.53 141.54 109.71 C 140.47 109.43 139.40 109.16 138.33 108.88 C 133.39 107.92 128.65 106.00 123.63 105.47 Z" />
</g>
<g id="#f40304ff">
<path fill="#f40304" opacity="1.00" d=" M 32.69 100.38 C 33.36 100.39 34.70 100.41 35.37 100.41 C 36.65 105.19 38.27 109.86 39.86 114.54 C 41.57 109.87 43.01 105.10 44.70 100.42 C 45.32 100.42 46.56 100.42 47.17 100.41 C 45.32 106.25 42.92 111.90 41.14 117.76 C 40.44 117.74 39.03 117.69 38.32 117.67 C 36.47 111.89 34.65 106.12 32.69 100.38 Z" />
</g>
<g id="#fdfdfdff">
<path fill="#fdfdfd" opacity="1.00" d=" M 115.10 102.21 C 117.35 102.31 118.91 103.32 118.83 105.72 C 117.73 105.62 116.65 105.48 115.57 105.32 C 115.35 104.29 115.19 103.25 115.10 102.21 Z" />
<path fill="#fdfdfd" opacity="1.00" d=" M 158.19 116.30 C 158.72 116.58 159.25 116.87 159.77 117.15 C 159.32 118.58 158.83 120.00 158.26 121.39 C 158.18 119.69 158.17 118.00 158.19 116.30 Z" />
<path fill="#fdfdfd" opacity="1.00" d=" M 165.20 124.34 C 166.14 123.03 167.06 121.70 167.93 120.34 C 172.04 122.03 176.09 123.87 179.86 126.23 C 174.82 127.55 169.96 125.87 165.20 124.34 Z" />
<path fill="#fdfdfd" opacity="1.00" d=" M 112.88 161.99 C 120.33 164.10 127.93 165.74 135.65 166.43 C 136.52 166.52 137.39 166.62 138.26 166.72 C 132.93 168.04 127.67 169.69 122.78 172.21 C 119.88 168.43 116.36 165.22 112.88 161.99 Z" />
</g>
<g id="#484848ff">
<path fill="#484848" opacity="1.00" d=" M 147.49 101.93 C 149.16 102.43 150.82 102.93 152.48 103.45 C 150.85 105.34 148.83 106.84 146.73 108.18 C 147.04 106.10 147.26 104.01 147.49 101.93 Z" />
</g>
<g id="#464646ff">
<path fill="#464646" opacity="1.00" d=" M 104.82 118.42 C 106.56 113.86 108.87 109.46 111.65 105.45 C 111.94 109.32 112.31 113.19 112.57 117.06 C 112.71 117.87 112.61 118.95 113.55 119.30 C 117.33 121.27 121.48 122.40 125.43 124.00 C 121.98 124.23 118.49 124.59 115.05 124.07 C 111.32 123.38 108.17 121.08 105.25 118.80 L 104.82 118.42 Z" />
</g>
<g id="#424242ff">
<path fill="#424242" opacity="1.00" d=" M 138.33 108.88 C 139.40 109.16 140.47 109.43 141.54 109.71 C 141.27 110.53 140.72 112.15 140.45 112.97 C 138.69 112.69 136.92 112.41 135.16 112.11 C 135.77 112.06 136.98 111.97 137.58 111.93 C 137.77 111.17 138.15 109.64 138.33 108.88 Z" />
</g>
<g id="#565656ff">
<path fill="#565656" opacity="1.00" d=" M 184.06 147.33 C 189.29 135.15 195.32 123.30 201.89 111.80 C 202.89 114.50 203.93 117.19 204.85 119.93 C 202.15 127.29 196.72 133.04 192.32 139.37 C 190.11 142.55 187.06 144.95 184.06 147.33 Z" />
<path fill="#565656" opacity="1.00" d=" M 127.97 178.09 C 131.38 177.79 134.84 177.26 138.26 177.79 C 141.50 178.30 144.11 180.47 146.67 182.37 C 143.72 184.06 140.86 186.49 137.32 186.67 C 133.52 184.69 130.97 181.05 127.97 178.09 Z" />
<path fill="#565656" opacity="1.00" d=" M 124.41 178.07 C 127.32 181.40 130.43 184.55 133.24 187.97 C 127.21 188.04 121.18 188.00 115.14 187.99 C 114.24 186.07 113.34 184.14 112.42 182.22 C 116.42 180.83 120.43 179.50 124.41 178.07 Z" />
<path fill="#565656" opacity="1.00" d=" M 109.53 181.82 C 110.46 183.87 111.36 185.92 112.25 187.99 C 104.40 188.02 96.54 188.00 88.69 187.99 C 95.51 185.52 102.39 183.21 109.53 181.82 Z" />
</g>
<g id="#131313ff">
<path fill="#131313" opacity="1.00" d=" M 205.33 121.58 C 206.87 119.67 208.43 117.79 210.00 115.90 L 210.00 139.67 C 207.26 143.62 204.84 147.93 201.28 151.21 C 198.90 151.50 196.51 151.03 194.15 150.77 C 192.95 152.25 191.75 153.73 190.56 155.21 C 189.03 153.41 187.52 151.59 186.02 149.77 C 189.99 147.31 194.29 145.02 196.95 141.02 C 200.96 135.21 205.76 129.05 205.33 121.58 Z" />
</g>
<g id="#3a3a3aff">
<path fill="#3a3a3a" opacity="1.00" d=" M 204.85 119.93 C 204.97 120.34 205.21 121.16 205.33 121.58 C 205.76 129.05 200.96 135.21 196.95 141.02 C 194.29 145.02 189.99 147.31 186.02 149.77 C 182.73 152.75 180.52 156.65 178.39 160.49 C 177.01 160.70 175.64 160.88 174.27 161.09 C 174.56 161.56 175.12 162.50 175.40 162.97 C 174.49 164.49 173.59 166.01 172.68 167.54 C 171.93 167.39 171.18 167.24 170.42 167.09 C 169.89 166.10 169.36 165.10 168.83 164.11 C 173.43 160.57 178.12 156.92 181.27 151.95 C 181.89 151.02 182.47 150.07 183.02 149.10 C 183.28 148.66 183.80 147.77 184.06 147.33 C 187.06 144.95 190.11 142.55 192.32 139.37 C 196.72 133.04 202.15 127.29 204.85 119.93 Z" />
<path fill="#3a3a3a" opacity="1.00" d=" M 166.74 163.95 C 166.95 167.17 165.74 170.19 164.21 172.95 C 162.57 172.55 160.93 172.16 159.29 171.77 C 160.14 173.06 160.99 174.35 161.84 175.64 C 157.50 178.84 152.53 181.04 147.22 182.02 C 150.04 179.60 152.93 177.23 155.52 174.55 C 157.60 172.50 157.92 169.45 158.73 166.79 C 159.40 168.18 160.06 169.56 160.74 170.95 C 162.92 168.78 165.05 166.53 166.74 163.95 Z" />
</g>
<g id="#1e1e1eff">
<path fill="#1e1e1e" opacity="1.00" d=" M 151.88 136.01 C 150.00 131.01 150.34 125.44 151.98 120.42 C 153.31 123.95 154.48 127.54 155.56 131.15 C 156.16 133.05 156.80 134.93 157.44 136.82 C 156.62 136.65 155.80 136.48 154.99 136.31 C 155.89 138.42 156.79 140.53 157.64 142.67 C 155.48 140.70 152.94 138.85 151.88 136.01 Z" />
<path fill="#1e1e1e" opacity="1.00" d=" M 104.20 141.31 C 105.22 139.37 106.27 137.39 108.05 136.03 C 107.70 137.72 107.20 139.39 106.65 141.03 C 108.03 141.92 109.41 142.84 110.67 143.89 C 108.22 143.88 105.91 143.10 104.20 141.31 Z" />
</g>
<g id="#f50101ff">
<path fill="#f50101" opacity="1.00" d=" M 21.30 131.16 C 25.17 129.87 29.63 132.66 30.66 136.50 C 32.34 140.70 30.67 146.37 26.51 148.45 C 24.27 149.04 21.82 149.06 19.59 148.42 C 12.89 144.95 13.77 133.02 21.30 131.16 M 19.00 134.99 C 16.08 139.41 17.62 146.13 23.03 147.71 C 25.08 146.65 27.41 145.60 28.33 143.30 C 29.34 139.89 28.84 135.44 25.52 133.48 C 23.31 132.88 20.42 132.88 19.00 134.99 Z" />
</g>
<g id="#fbfdfdff">
<path fill="#fbfdfd" opacity="1.00" d=" M 19.00 134.99 C 20.42 132.88 23.31 132.88 25.52 133.48 C 28.84 135.44 29.34 139.89 28.33 143.30 C 27.41 145.60 25.08 146.65 23.03 147.71 C 17.62 146.13 16.08 139.41 19.00 134.99 Z" />
</g>
<g id="#f60101ff">
<path fill="#f60101" opacity="1.00" d=" M 3.33 162.49 C 6.95 162.43 11.02 161.63 14.19 163.86 C 19.34 167.29 18.60 176.20 13.17 178.99 C 10.09 180.37 6.63 180.25 3.34 180.04 C 3.25 174.19 3.27 168.34 3.33 162.49 M 5.51 164.21 C 5.44 168.98 5.44 173.75 5.51 178.52 C 7.49 178.34 9.56 178.32 11.39 177.44 C 16.27 175.52 16.58 167.44 11.96 165.03 C 10.00 163.99 7.64 164.43 5.51 164.21 Z" />
</g>
<g id="#f50202ff">
<path fill="#f50202" opacity="1.00" d=" M 38.46 162.37 C 39.04 162.39 40.20 162.43 40.78 162.45 C 43.67 167.03 46.70 171.53 49.36 176.26 C 49.43 171.38 49.03 166.46 49.73 161.60 C 50.15 162.17 50.98 163.31 51.40 163.88 C 51.58 169.46 51.58 175.05 51.23 180.63 C 50.04 179.86 48.65 179.26 47.90 177.98 C 45.24 174.05 42.84 169.95 40.41 165.87 C 40.33 170.53 40.37 175.19 40.37 179.85 C 39.88 179.82 38.92 179.78 38.43 179.75 C 38.45 173.96 38.43 168.16 38.46 162.37 Z" />
</g>
<g id="#f60201ff">
<path fill="#f60201" opacity="1.00" d=" M 55.39 162.43 C 58.49 162.44 61.60 162.42 64.71 162.41 C 64.70 162.92 64.68 163.92 64.67 164.42 C 62.33 164.42 59.98 164.42 57.64 164.44 C 57.63 166.21 57.62 167.99 57.62 169.77 C 60.30 169.83 63.17 169.52 65.54 171.08 C 62.97 171.77 60.30 171.75 57.66 171.81 C 57.64 173.78 57.62 175.75 57.62 177.72 C 60.45 177.81 63.81 177.09 65.96 179.49 C 62.44 179.92 58.90 179.83 55.38 179.78 C 55.40 173.99 55.40 168.21 55.39 162.43 Z" />
</g>
<g id="#1b1b1bff">
<path fill="#1b1b1b" opacity="1.00" d=" M 175.40 162.97 C 176.47 164.96 178.26 167.45 176.74 169.69 C 174.57 173.03 170.09 173.10 166.62 174.09 C 167.85 171.73 169.12 169.41 170.42 167.09 C 171.18 167.24 171.93 167.39 172.68 167.54 C 173.59 166.01 174.49 164.49 175.40 162.97 Z" />
</g>
<g id="#b0b0b0ff">
<path fill="#b0b0b0" opacity="1.00" d=" M 106.61 175.41 C 106.83 175.87 107.25 176.79 107.47 177.26 C 103.64 178.59 99.78 179.80 95.89 180.94 C 89.20 182.89 82.65 185.55 75.68 186.38 C 76.65 184.85 77.57 183.29 78.51 181.75 C 88.03 180.79 98.19 180.51 106.61 175.41 Z" />
</g>
<g id="#7a7a7aff">
<path fill="#7a7a7a" opacity="1.00" d=" M 107.47 177.26 C 108.16 178.78 108.84 180.30 109.53 181.82 C 102.39 183.21 95.51 185.52 88.69 187.99 C 83.96 188.06 79.24 187.98 74.51 188.00 C 74.81 187.60 75.39 186.79 75.68 186.38 C 82.65 185.55 89.20 182.89 95.89 180.94 C 99.78 179.80 103.64 178.59 107.47 177.26 Z" />
</g>
<g id="#161616ff">
<path fill="#161616" opacity="1.00" d=" M 162.97 177.98 C 165.30 176.89 167.56 178.74 169.69 179.49 C 167.16 182.38 164.56 185.20 161.93 188.00 C 157.52 188.01 153.11 187.98 148.71 187.99 C 153.13 184.23 157.58 180.28 162.97 177.98 Z" />
</g>
</svg>
