<?xml version="1.0" encoding="UTF-8" ?>
<!DOCTYPE svg PUBLIC "-//W3C//DTD SVG 1.1//EN" "http://www.w3.org/Graphics/SVG/1.1/DTD/svg11.dtd">
<svg width="210pt" height="220pt" viewBox="0 0 210 220" version="1.1" xmlns="http://www.w3.org/2000/svg">
<g id="#9d9d9db0">
<path fill="#9d9d9d" opacity="0.69" d=" M 0.00 11.00 C 70.00 11.00 140.00 11.00 210.00 11.00 L 210.00 12.00 C 140.00 12.00 70.00 12.00 0.00 12.00 L 0.00 11.00 Z" />
</g>
<g id="#fcfcfcfe">
<path fill="#fcfcfc" opacity="1.00" d=" M 113.07 30.60 C 121.11 25.06 131.78 23.58 141.15 26.12 C 151.56 28.28 161.42 35.00 165.51 45.09 C 165.42 50.20 165.64 55.31 164.15 60.27 C 165.59 60.51 167.05 60.66 168.51 60.72 C 173.10 62.55 177.11 65.95 178.12 71.00 C 178.13 71.66 178.14 72.31 178.14 72.97 C 177.58 74.29 177.00 75.61 176.42 76.93 C 176.97 77.59 177.39 78.32 177.67 79.12 C 177.52 80.61 176.05 78.87 175.82 78.27 C 174.26 78.60 172.82 79.41 171.27 79.76 C 172.30 80.28 174.36 81.33 175.39 81.86 C 174.81 81.81 173.65 81.73 173.07 81.68 C 178.06 87.66 181.25 94.91 183.50 102.30 L 184.00 102.50 C 184.43 105.48 185.72 108.27 185.61 111.34 C 186.71 112.94 186.21 114.70 185.79 116.41 C 187.34 123.68 185.16 131.09 184.07 138.29 C 180.22 149.05 174.77 159.52 166.04 167.15 C 164.66 167.99 165.32 169.55 165.76 170.73 C 164.77 170.65 163.54 169.70 162.70 170.64 C 159.79 173.37 156.36 175.43 153.18 177.81 C 153.27 178.36 153.43 179.46 153.52 180.01 C 153.20 179.55 152.58 178.62 152.26 178.16 C 150.27 179.56 148.32 181.17 145.88 181.73 C 145.58 183.28 145.33 184.90 144.09 186.06 C 144.29 185.20 144.69 183.48 144.90 182.62 C 141.18 183.75 137.91 185.97 134.17 187.00 C 126.93 188.97 119.64 191.24 112.07 191.26 C 106.65 192.10 100.91 192.17 95.60 190.96 C 97.15 190.85 98.69 190.80 100.25 190.82 C 106.12 192.07 112.11 190.68 118.01 190.36 C 127.26 188.85 136.42 186.18 144.73 181.77 C 151.58 178.33 158.34 174.27 163.45 168.45 C 177.39 157.02 185.83 139.05 185.47 121.00 C 186.03 108.31 181.96 95.68 174.80 85.27 C 173.45 83.20 171.81 81.34 170.60 79.18 C 171.25 78.97 172.57 78.56 173.23 78.35 C 174.41 77.33 175.85 76.52 176.71 75.17 C 177.33 71.60 177.02 67.45 174.03 64.98 C 171.35 61.76 167.13 61.19 163.25 60.64 C 165.32 53.35 166.19 44.40 160.74 38.32 C 150.08 25.68 130.34 21.52 115.72 29.52 C 111.06 32.21 107.82 36.68 105.13 41.23 C 101.66 39.76 97.60 38.80 94.01 40.45 C 90.02 42.41 88.34 46.96 88.07 51.15 C 65.48 54.80 43.86 67.30 31.50 86.85 C 20.39 103.93 18.31 126.54 26.66 145.20 C 29.90 153.27 35.46 160.08 41.28 166.43 C 41.89 166.23 43.11 165.82 43.73 165.62 L 41.32 166.59 C 52.17 176.87 65.47 184.60 79.96 188.36 C 84.96 189.63 90.08 191.04 95.29 190.52 C 90.99 192.16 86.41 189.90 82.06 189.37 C 69.14 185.87 56.20 180.76 46.17 171.63 C 38.45 164.79 30.83 157.00 27.19 147.15 C 26.57 147.48 25.33 148.15 24.71 148.48 C 25.28 148.10 26.43 147.36 27.00 146.98 C 26.50 144.92 25.12 143.93 23.05 143.90 C 23.68 143.90 24.94 143.89 25.57 143.89 C 25.03 142.39 24.48 140.90 23.92 139.42 C 22.85 135.29 21.43 131.14 21.61 126.82 C 21.72 124.51 20.51 122.37 20.70 120.06 C 21.46 113.84 22.12 107.63 23.93 101.58 C 30.91 79.61 49.54 62.94 70.76 54.95 C 76.32 53.25 81.95 51.83 87.51 50.13 C 87.41 45.70 90.33 41.30 94.38 39.52 C 97.87 38.86 101.55 39.11 104.89 40.37 C 106.68 36.72 109.41 33.69 112.50 31.10 C 112.51 30.53 112.51 29.41 112.51 28.85 L 113.07 30.60 Z" />
<path fill="#fcfcfc" opacity="1.00" d=" M 56.25 79.40 C 59.93 77.87 64.04 78.00 67.94 78.32 C 75.79 79.26 83.37 85.79 83.60 94.04 C 84.12 101.97 77.40 108.73 70.05 110.53 C 60.65 113.37 48.62 108.79 45.52 98.98 C 42.61 90.89 48.58 82.08 56.25 79.40 M 56.52 92.54 C 56.37 94.21 55.56 96.64 57.82 97.24 C 60.08 98.52 63.88 95.57 61.68 93.40 C 60.69 91.50 58.19 92.54 56.52 92.54 Z" />
</g>
<g id="#010000fe">
<path fill="#010000" opacity="1.00" d=" M 115.72 29.52 C 130.34 21.52 150.08 25.68 160.74 38.32 C 166.19 44.40 165.32 53.35 163.25 60.64 C 167.13 61.19 171.35 61.76 174.03 64.98 C 177.02 67.45 177.33 71.60 176.71 75.17 C 175.85 76.52 174.41 77.33 173.23 78.35 C 172.57 78.56 171.25 78.97 170.60 79.18 C 171.81 81.34 173.45 83.20 174.80 85.27 C 181.96 95.68 186.03 108.31 185.47 121.00 C 185.83 139.05 177.39 157.02 163.45 168.45 C 158.34 174.27 151.58 178.33 144.73 181.77 C 136.42 186.18 127.26 188.85 118.01 190.36 C 112.11 190.68 106.12 192.07 100.25 190.82 C 98.69 190.03 96.94 190.24 95.29 190.52 C 90.08 191.04 84.96 189.63 79.96 188.36 C 65.47 184.60 52.17 176.87 41.32 166.59 L 43.73 165.62 C 43.11 165.82 41.89 166.23 41.28 166.43 C 35.46 160.08 29.90 153.27 26.66 145.20 C 18.31 126.54 20.39 103.93 31.50 86.85 C 43.86 67.30 65.48 54.80 88.07 51.15 C 88.34 46.96 90.02 42.41 94.01 40.45 C 97.60 38.80 101.66 39.76 105.13 41.23 C 107.82 36.68 111.06 32.21 115.72 29.52 M 122.29 33.31 C 117.19 35.12 113.79 39.72 111.19 44.23 C 110.71 45.37 109.38 47.03 110.97 47.92 C 118.56 53.85 127.00 59.05 136.43 61.41 C 142.44 62.96 148.70 62.75 154.85 62.80 C 156.54 58.38 158.12 53.77 157.74 48.96 C 157.92 44.57 154.68 41.13 151.60 38.45 C 143.56 31.91 132.08 29.81 122.29 33.31 M 93.64 52.97 C 95.23 60.03 100.90 65.21 106.41 69.47 C 117.29 77.69 131.83 79.92 145.05 77.53 C 150.93 76.74 156.46 74.51 162.07 72.70 C 165.08 71.49 168.09 73.18 170.97 73.96 C 171.04 70.71 169.23 67.32 165.96 66.40 C 161.38 65.49 158.05 69.40 154.40 71.39 C 151.06 73.67 146.90 73.68 143.03 74.03 C 130.88 74.94 118.38 70.89 109.27 62.76 C 105.80 59.58 102.01 55.08 104.10 50.07 C 102.60 48.11 101.48 45.52 99.04 44.57 C 94.76 44.29 93.30 49.59 93.64 52.97 M 108.36 56.58 C 114.77 65.19 125.52 69.91 136.04 70.70 C 139.93 70.97 143.95 71.96 147.77 70.76 C 149.95 70.12 151.39 68.23 152.93 66.68 C 148.05 65.29 142.90 65.96 137.97 64.91 C 126.88 63.05 117.06 57.02 108.38 50.14 C 107.42 52.16 106.65 54.72 108.36 56.58 M 74.80 60.85 C 65.69 64.18 56.97 68.98 49.91 75.68 C 45.12 79.29 41.65 84.36 38.12 89.14 L 38.17 89.49 C 26.62 106.07 25.74 129.02 35.11 146.80 C 43.91 164.01 60.67 176.20 78.97 181.67 C 97.38 187.21 117.67 186.47 135.51 179.23 C 130.04 174.35 122.85 172.00 116.14 169.42 C 104.95 172.56 94.22 166.37 83.08 166.41 C 78.13 166.26 73.17 166.75 68.23 166.37 C 69.55 164.35 72.05 162.68 71.79 159.98 C 71.67 155.85 70.31 151.57 67.56 148.44 C 64.59 146.35 60.99 144.60 60.16 140.67 C 59.53 140.57 58.26 140.36 57.63 140.26 C 57.67 139.71 57.74 138.61 57.78 138.06 L 58.78 137.63 C 62.96 137.43 66.90 138.95 70.95 139.65 C 78.52 141.38 86.40 140.94 93.98 139.51 C 101.01 138.16 108.10 141.03 113.51 145.40 C 118.91 149.89 122.67 157.39 120.52 164.42 C 126.10 166.83 131.89 168.63 137.73 170.27 C 140.71 170.91 142.26 173.97 141.55 176.85 C 149.42 172.22 157.19 167.14 163.19 160.15 C 172.89 149.57 178.86 135.42 178.79 121.00 C 179.11 105.56 172.48 90.29 161.63 79.42 L 160.95 79.21 C 155.43 80.61 149.99 82.41 144.29 83.05 C 151.70 90.41 153.05 103.14 146.41 111.42 C 136.28 124.79 114.47 126.06 102.50 114.49 C 96.60 108.91 93.59 99.86 96.55 92.06 C 98.42 85.79 103.38 80.85 109.13 77.94 C 101.08 72.50 92.86 66.41 88.64 57.36 C 83.85 57.62 79.33 59.41 74.80 60.85 M 100.94 101.76 C 102.43 109.69 109.47 115.18 116.89 117.31 C 122.22 117.92 127.85 118.16 132.87 115.94 C 139.93 113.00 146.06 106.03 145.52 98.00 C 145.56 92.15 141.81 87.15 137.51 83.55 C 129.86 83.92 122.28 82.60 114.97 80.46 C 106.17 83.16 98.91 92.30 100.94 101.76 M 63.56 141.09 C 64.51 144.15 67.22 145.95 70.15 146.79 C 70.75 147.50 71.35 148.22 71.95 148.93 C 72.81 151.12 73.70 153.31 74.58 155.51 C 74.34 155.70 73.86 156.08 73.61 156.28 C 74.66 156.44 75.70 156.61 76.75 156.77 C 75.85 159.52 78.16 162.47 81.02 162.41 C 85.31 162.77 89.65 162.90 93.94 162.44 C 97.73 161.97 100.30 158.21 104.25 158.36 C 101.25 162.05 96.52 163.71 92.08 164.93 C 98.41 165.64 104.52 168.03 110.97 167.42 C 110.74 167.23 110.28 166.87 110.05 166.68 L 112.53 165.62 L 113.00 166.10 C 113.99 166.35 114.98 166.59 115.97 166.83 C 121.12 169.75 126.84 171.43 132.11 174.08 C 133.67 175.36 135.31 176.52 136.95 177.70 C 138.27 176.55 139.56 175.37 140.82 174.15 C 140.25 173.46 139.09 172.08 138.52 171.39 L 137.99 171.93 C 130.88 170.49 124.23 167.24 117.30 165.06 C 116.15 163.89 114.98 162.75 113.82 161.59 C 114.44 161.57 115.68 161.53 116.31 161.51 C 116.63 161.97 117.27 162.88 117.59 163.34 C 118.61 157.08 116.11 150.07 110.23 147.10 C 110.24 146.71 110.26 145.92 110.27 145.52 L 109.40 145.92 C 104.60 142.68 98.75 141.30 93.04 142.48 C 86.74 143.87 80.27 143.73 73.88 143.25 C 70.53 142.16 67.03 141.63 63.56 141.09 M 75.07 161.28 C 73.10 161.77 74.25 164.80 76.06 164.15 C 78.07 163.68 76.85 160.65 75.07 161.28 Z" />
</g>
<g id="#594748fe">
<path fill="#594748" opacity="1.00" d=" M 122.29 33.31 C 132.08 29.81 143.56 31.91 151.60 38.45 C 154.68 41.13 157.92 44.57 157.74 48.96 C 158.12 53.77 156.54 58.38 154.85 62.80 C 148.70 62.75 142.44 62.96 136.43 61.41 C 127.00 59.05 118.56 53.85 110.97 47.92 C 109.38 47.03 110.71 45.37 111.19 44.23 C 113.79 39.72 117.19 35.12 122.29 33.31 Z" />
</g>
<g id="#574a49fe">
<path fill="#574a49" opacity="1.00" d=" M 93.64 52.97 C 93.30 49.59 94.76 44.29 99.04 44.57 C 101.48 45.52 102.60 48.11 104.10 50.07 C 102.01 55.08 105.80 59.58 109.27 62.76 C 118.38 70.89 130.88 74.94 143.03 74.03 C 146.90 73.68 151.06 73.67 154.40 71.39 C 158.05 69.40 161.38 65.49 165.96 66.40 C 169.23 67.32 171.04 70.71 170.97 73.96 C 168.09 73.18 165.08 71.49 162.07 72.70 C 156.46 74.51 150.93 76.74 145.05 77.53 C 131.83 79.92 117.29 77.69 106.41 69.47 C 100.90 65.21 95.23 60.03 93.64 52.97 Z" />
</g>
<g id="#924533fe">
<path fill="#924533" opacity="1.00" d=" M 108.36 56.58 C 106.65 54.72 107.42 52.16 108.38 50.14 C 117.06 57.02 126.88 63.05 137.97 64.91 C 142.90 65.96 148.05 65.29 152.93 66.68 C 151.39 68.23 149.95 70.12 147.77 70.76 C 143.95 71.96 139.93 70.97 136.04 70.70 C 125.52 69.91 114.77 65.19 108.36 56.58 Z" />
</g>
<g id="#1d1e1d1f">
<path fill="#1d1e1d" opacity="0.12" d=" M 58.14 55.09 C 59.77 54.55 60.33 55.09 59.83 56.72 C 58.21 57.27 57.64 56.72 58.14 55.09 Z" />
</g>
<g id="#f1e48cfe">
<path fill="#f1e48c" opacity="1.00" d=" M 74.80 60.85 C 79.33 59.41 83.85 57.62 88.64 57.36 C 92.86 66.41 101.08 72.50 109.13 77.94 C 103.38 80.85 98.42 85.79 96.55 92.06 C 93.59 99.86 96.60 108.91 102.50 114.49 C 114.47 126.06 136.28 124.79 146.41 111.42 C 153.05 103.14 151.70 90.41 144.29 83.05 C 149.99 82.41 155.43 80.61 160.95 79.21 L 161.63 79.42 C 172.48 90.29 179.11 105.56 178.79 121.00 C 178.86 135.42 172.89 149.57 163.19 160.15 C 157.19 167.14 149.42 172.22 141.55 176.85 C 142.26 173.97 140.71 170.91 137.73 170.27 C 131.89 168.63 126.10 166.83 120.52 164.42 C 122.67 157.39 118.91 149.89 113.51 145.40 C 108.10 141.03 101.01 138.16 93.98 139.51 C 86.40 140.94 78.52 141.38 70.95 139.65 C 66.90 138.95 62.96 137.43 58.78 137.63 C 58.66 137.18 58.41 136.26 58.29 135.81 C 64.99 136.04 71.38 138.21 77.98 139.04 C 84.10 139.87 90.11 138.18 96.14 137.53 C 105.43 136.81 114.44 141.88 119.43 149.61 C 122.63 153.58 122.90 158.80 123.21 163.65 C 129.91 167.22 138.91 166.46 143.75 173.08 C 157.80 165.36 169.60 152.67 174.36 137.16 C 176.40 130.33 177.62 123.12 176.97 115.98 C 175.43 103.00 170.03 90.32 160.57 81.13 C 156.47 82.34 152.33 83.42 148.15 84.32 C 150.23 88.63 152.77 93.04 152.71 97.98 C 153.10 107.07 147.51 115.41 139.72 119.72 C 133.36 124.04 125.41 124.41 118.00 123.75 C 103.57 122.75 90.51 107.96 94.15 93.32 C 95.44 86.73 100.37 82.00 104.92 77.46 C 98.16 72.36 91.70 66.60 87.52 59.11 C 77.32 61.59 66.77 64.70 58.69 71.73 C 63.24 71.58 67.90 71.27 72.34 72.55 C 80.55 74.91 87.60 81.40 90.25 89.58 C 91.08 94.51 90.12 99.70 88.22 104.29 C 84.49 110.94 77.64 115.97 70.00 116.97 C 60.74 118.39 50.14 116.48 43.70 109.17 C 40.05 105.34 38.59 100.15 37.07 95.23 C 31.99 103.84 29.91 114.09 30.67 124.02 C 31.82 140.31 40.31 155.84 53.08 165.95 C 67.54 177.75 86.40 183.94 105.02 183.38 C 113.91 182.78 123.12 182.37 131.30 178.47 C 126.98 176.08 122.78 173.23 117.95 171.99 C 112.99 171.28 107.96 172.40 103.00 171.62 C 95.95 170.59 89.19 167.68 81.97 167.94 C 76.96 167.71 71.03 169.60 67.00 165.65 C 68.19 163.28 70.12 160.93 69.72 158.11 C 69.25 153.88 67.07 149.79 63.39 147.53 C 60.07 145.39 57.56 142.31 55.38 139.07 C 55.98 138.81 57.18 138.31 57.78 138.06 C 57.74 138.61 57.67 139.71 57.63 140.26 C 58.26 140.36 59.53 140.57 60.16 140.67 C 60.99 144.60 64.59 146.35 67.56 148.44 C 70.31 151.57 71.67 155.85 71.79 159.98 C 72.05 162.68 69.55 164.35 68.23 166.37 C 73.17 166.75 78.13 166.26 83.08 166.41 C 94.22 166.37 104.95 172.56 116.14 169.42 C 122.85 172.00 130.04 174.35 135.51 179.23 C 117.67 186.47 97.38 187.21 78.97 181.67 C 60.67 176.20 43.91 164.01 35.11 146.80 C 25.74 129.02 26.62 106.07 38.17 89.49 C 38.25 90.12 38.41 91.39 38.49 92.03 C 38.80 91.64 39.42 90.87 39.73 90.49 C 39.03 96.25 40.30 102.40 44.13 106.90 C 54.06 118.83 74.97 118.71 84.63 106.49 C 90.29 99.83 90.11 89.22 84.51 82.58 C 79.64 76.47 71.70 73.39 64.02 73.39 C 60.08 73.36 56.31 74.62 52.56 75.66 C 51.90 75.66 50.57 75.68 49.91 75.68 C 56.97 68.98 65.69 64.18 74.80 60.85 Z" />
</g>
<g id="#fddd58fe">
<path fill="#fddd58" opacity="1.00" d=" M 58.69 71.73 C 66.77 64.70 77.32 61.59 87.52 59.11 C 91.70 66.60 98.16 72.36 104.92 77.46 C 100.37 82.00 95.44 86.73 94.15 93.32 C 90.51 107.96 103.57 122.75 118.00 123.75 C 125.41 124.41 133.36 124.04 139.72 119.72 C 147.51 115.41 153.10 107.07 152.71 97.98 C 152.77 93.04 150.23 88.63 148.15 84.32 C 152.33 83.42 156.47 82.34 160.57 81.13 C 170.03 90.32 175.43 103.00 176.97 115.98 C 177.62 123.12 176.40 130.33 174.36 137.16 C 169.60 152.67 157.80 165.36 143.75 173.08 C 138.91 166.46 129.91 167.22 123.21 163.65 C 122.90 158.80 122.63 153.58 119.43 149.61 C 114.44 141.88 105.43 136.81 96.14 137.53 C 90.11 138.18 84.10 139.87 77.98 139.04 C 71.38 138.21 64.99 136.04 58.29 135.81 C 58.41 136.26 58.66 137.18 58.78 137.63 L 57.78 138.06 C 57.18 138.31 55.98 138.81 55.38 139.07 C 57.56 142.31 60.07 145.39 63.39 147.53 C 67.07 149.79 69.25 153.88 69.72 158.11 C 70.12 160.93 68.19 163.28 67.00 165.65 C 71.03 169.60 76.96 167.71 81.97 167.94 C 89.19 167.68 95.95 170.59 103.00 171.62 C 107.96 172.40 112.99 171.28 117.95 171.99 C 122.78 173.23 126.98 176.08 131.30 178.47 C 123.12 182.37 113.91 182.78 105.02 183.38 C 86.40 183.94 67.54 177.75 53.08 165.95 C 40.31 155.84 31.82 140.31 30.67 124.02 C 29.91 114.09 31.99 103.84 37.07 95.23 C 38.59 100.15 40.05 105.34 43.70 109.17 C 50.14 116.48 60.74 118.39 70.00 116.97 C 77.64 115.97 84.49 110.94 88.22 104.29 C 90.12 99.70 91.08 94.51 90.25 89.58 C 87.60 81.40 80.55 74.91 72.34 72.55 C 67.90 71.27 63.24 71.58 58.69 71.73 Z" />
</g>
<g id="#000000fe">
<path fill="#000000" opacity="1.00" d=" M 52.56 75.66 C 56.31 74.62 60.08 73.36 64.02 73.39 C 71.70 73.39 79.64 76.47 84.51 82.58 C 90.11 89.22 90.29 99.83 84.63 106.49 C 74.97 118.71 54.06 118.83 44.13 106.90 C 40.30 102.40 39.03 96.25 39.73 90.49 C 41.96 84.08 46.41 78.65 52.56 75.66 M 56.25 79.40 C 48.58 82.08 42.61 90.89 45.52 98.98 C 48.62 108.79 60.65 113.37 70.05 110.53 C 77.40 108.73 84.12 101.97 83.60 94.04 C 83.37 85.79 75.79 79.26 67.94 78.32 C 64.04 78.00 59.93 77.87 56.25 79.40 Z" />
<path fill="#000000" opacity="1.00" d=" M 56.52 92.54 C 58.19 92.54 60.69 91.50 61.68 93.40 C 63.88 95.57 60.08 98.52 57.82 97.24 C 55.56 96.64 56.37 94.21 56.52 92.54 Z" />
<path fill="#000000" opacity="1.00" d=" M 115.73 95.45 C 118.04 95.16 121.74 94.80 121.92 98.07 C 122.50 102.01 116.71 102.95 114.89 100.05 C 113.56 98.60 115.09 96.82 115.73 95.45 Z" />
</g>
<g id="#fefef4ff">
<path fill="#fefef4" opacity="1.00" d=" M 38.12 89.14 C 41.65 84.36 45.12 79.29 49.91 75.68 C 50.57 75.68 51.90 75.66 52.56 75.66 C 46.41 78.65 41.96 84.08 39.73 90.49 C 39.42 90.87 38.80 91.64 38.49 92.03 C 38.41 91.39 38.25 90.12 38.17 89.49 L 38.12 89.14 Z" />
<path fill="#fefef4" opacity="1.00" d=" M 110.56 163.54 C 112.86 163.75 115.12 164.28 117.30 165.06 C 124.23 167.24 130.88 170.49 137.99 171.93 C 137.66 172.26 136.99 172.94 136.66 173.28 C 135.14 173.53 133.62 173.79 132.11 174.08 C 126.84 171.43 121.12 169.75 115.97 166.83 C 114.98 166.59 113.99 166.35 113.00 166.10 L 112.53 165.62 C 112.03 165.10 111.05 164.06 110.56 163.54 Z" />
</g>
<g id="#fdfdfdfe">
<path fill="#fdfdfd" opacity="1.00" d=" M 100.94 101.76 C 98.91 92.30 106.17 83.16 114.97 80.46 C 122.28 82.60 129.86 83.92 137.51 83.55 C 141.81 87.15 145.56 92.15 145.52 98.00 C 146.06 106.03 139.93 113.00 132.87 115.94 C 127.85 118.16 122.22 117.92 116.89 117.31 C 109.47 115.18 102.43 109.69 100.94 101.76 M 115.73 95.45 C 115.09 96.82 113.56 98.60 114.89 100.05 C 116.71 102.95 122.50 102.01 121.92 98.07 C 121.74 94.80 118.04 95.16 115.73 95.45 Z" />
</g>
<g id="#26272529">
<path fill="#262725" opacity="0.16" d=" M 23.00 95.31 C 26.34 95.45 21.46 98.28 23.00 95.31 Z" />
</g>
<g id="#fefefdfe">
<path fill="#fefefd" opacity="1.00" d=" M 63.56 141.09 C 67.03 141.63 70.53 142.16 73.88 143.25 C 75.13 143.74 76.37 144.27 77.61 144.80 C 75.25 145.87 72.78 146.79 70.15 146.79 C 67.22 145.95 64.51 144.15 63.56 141.09 Z" />
</g>
<g id="#fefefefe">
<path fill="#fefefe" opacity="1.00" d=" M 73.88 143.25 C 80.27 143.73 86.74 143.87 93.04 142.48 C 98.75 141.30 104.60 142.68 109.40 145.92 C 105.43 148.28 100.64 148.37 96.47 146.46 C 93.67 145.01 90.84 146.98 88.00 147.27 C 84.32 148.09 80.89 146.17 77.61 144.80 C 76.37 144.27 75.13 143.74 73.88 143.25 Z" />
</g>
<g id="#230b13fd">
<path fill="#230b13" opacity="1.00" d=" M 70.15 146.79 C 72.78 146.79 75.25 145.87 77.61 144.80 C 80.89 146.17 84.32 148.09 88.00 147.27 C 90.84 146.98 93.67 145.01 96.47 146.46 C 100.64 148.37 105.43 148.28 109.40 145.92 L 110.27 145.52 C 110.26 145.92 110.24 146.71 110.23 147.10 C 107.28 150.31 102.64 150.95 98.66 149.42 C 95.14 148.03 91.42 148.65 87.83 149.36 C 84.83 150.05 81.98 148.73 79.16 147.93 C 76.73 147.02 74.29 148.37 71.95 148.93 C 71.35 148.22 70.75 147.50 70.15 146.79 Z" />
</g>
<g id="#7d1d44fe">
<path fill="#7d1d44" opacity="1.00" d=" M 71.95 148.93 C 74.29 148.37 76.73 147.02 79.16 147.93 C 81.98 148.73 84.83 150.05 87.83 149.36 C 91.42 148.65 95.14 148.03 98.66 149.42 C 102.64 150.95 107.28 150.31 110.23 147.10 C 116.11 150.07 118.61 157.08 117.59 163.34 C 117.27 162.88 116.63 161.97 116.31 161.51 C 113.58 157.30 110.04 153.21 105.06 151.74 C 99.42 150.06 93.69 153.15 88.00 151.90 C 83.20 150.91 78.12 152.02 74.58 155.51 C 73.70 153.31 72.81 151.12 71.95 148.93 Z" />
</g>
<g id="#2e0311fe">
<path fill="#2e0311" opacity="1.00" d=" M 88.00 151.90 C 93.69 153.15 99.42 150.06 105.06 151.74 C 110.04 153.21 113.58 157.30 116.31 161.51 C 115.68 161.53 114.44 161.57 113.82 161.59 C 114.98 162.75 116.15 163.89 117.30 165.06 C 115.12 164.28 112.86 163.75 110.56 163.54 C 111.05 164.06 112.03 165.10 112.53 165.62 L 110.05 166.68 L 109.04 165.92 C 108.95 162.98 111.61 162.03 113.83 160.99 C 110.49 157.25 106.44 153.10 101.00 153.27 C 96.88 153.00 92.88 155.24 88.80 154.12 C 84.67 153.08 79.75 153.43 76.75 156.77 C 75.70 156.61 74.66 156.44 73.61 156.28 C 73.86 156.08 74.34 155.70 74.58 155.51 C 78.12 152.02 83.20 150.91 88.00 151.90 Z" />
</g>
<g id="#f7c1dffe">
<path fill="#f7c1df" opacity="1.00" d=" M 76.75 156.77 C 79.75 153.43 84.67 153.08 88.80 154.12 C 92.88 155.24 96.88 153.00 101.00 153.27 C 106.44 153.10 110.49 157.25 113.83 160.99 C 111.61 162.03 108.95 162.98 109.04 165.92 L 110.05 166.68 C 110.28 166.87 110.74 167.23 110.97 167.42 C 104.52 168.03 98.41 165.64 92.08 164.93 C 96.52 163.71 101.25 162.05 104.25 158.36 C 100.30 158.21 97.73 161.97 93.94 162.44 C 89.65 162.90 85.31 162.77 81.02 162.41 C 78.16 162.47 75.85 159.52 76.75 156.77 Z" />
</g>
<g id="#39262ffe">
<path fill="#39262f" opacity="1.00" d=" M 75.07 161.28 C 76.85 160.65 78.07 163.68 76.06 164.15 C 74.25 164.80 73.10 161.77 75.07 161.28 Z" />
</g>
<g id="#afac92fe">
<path fill="#afac92" opacity="1.00" d=" M 137.99 171.93 L 138.52 171.39 C 139.09 172.08 140.25 173.46 140.82 174.15 C 139.56 175.37 138.27 176.55 136.95 177.70 C 135.31 176.52 133.67 175.36 132.11 174.08 C 133.62 173.79 135.14 173.53 136.66 173.28 C 136.99 172.94 137.66 172.26 137.99 171.93 Z" />
</g>
<g id="#3636363b">
<path fill="#363636" opacity="0.23" d=" M 72.25 189.19 C 72.74 189.71 72.74 189.71 72.25 189.19 Z" />
</g>
</svg>
