<?xml version="1.0" encoding="UTF-8" ?>
<!DOCTYPE svg PUBLIC "-//W3C//DTD SVG 1.1//EN" "http://www.w3.org/Graphics/SVG/1.1/DTD/svg11.dtd">
<svg width="210pt" height="220pt" viewBox="0 0 210 220" version="1.1" xmlns="http://www.w3.org/2000/svg">
<g id="#050505fd">
<path fill="#050505" opacity="1.00" d=" M 55.88 21.13 C 66.11 18.57 76.71 15.38 87.29 17.82 L 86.59 18.67 C 78.18 18.51 69.75 19.44 61.53 21.22 C 55.79 22.36 50.79 25.74 44.96 26.51 C 37.39 28.02 33.35 35.19 28.45 40.37 C 26.36 42.65 23.58 44.33 21.50 46.48 L 21.45 45.97 C 20.80 43.82 23.05 42.65 24.30 41.34 C 28.00 38.34 31.06 34.67 33.84 30.81 C 35.62 28.16 38.60 26.77 41.53 25.78 C 46.31 24.20 51.05 22.53 55.88 21.13 Z" />
<path fill="#050505" opacity="1.00" d=" M 87.55 18.16 C 90.52 19.08 93.15 20.87 95.86 22.38 C 101.45 25.54 105.08 30.98 108.94 35.91 C 111.46 35.37 113.97 34.81 116.48 34.25 C 116.77 36.60 119.07 40.15 115.35 40.77 C 115.36 40.20 115.37 39.06 115.38 38.49 C 114.28 38.50 113.17 38.51 112.07 38.51 C 112.20 38.96 112.45 39.87 112.58 40.32 C 112.97 40.38 113.76 40.50 114.15 40.56 C 115.12 43.71 116.81 46.56 118.09 49.58 C 118.71 52.10 118.26 54.83 119.33 57.25 C 122.77 64.34 127.86 70.47 131.59 77.40 C 135.34 84.01 133.09 91.80 133.76 98.98 C 135.37 111.26 134.28 123.68 134.65 136.03 C 135.19 147.01 130.72 158.13 122.21 165.21 C 121.54 168.73 120.50 172.33 118.14 175.12 C 115.51 178.03 111.11 178.61 108.78 181.87 C 108.15 182.98 106.28 184.19 107.55 185.49 C 108.20 185.72 109.49 186.19 110.14 186.42 C 108.45 186.67 106.76 186.39 105.10 186.16 C 97.70 192.38 88.80 196.32 80.12 200.37 C 78.54 201.11 76.78 201.20 75.07 201.38 C 76.75 198.83 78.97 196.52 82.01 195.70 C 92.58 192.33 103.12 186.68 108.98 176.87 C 116.11 176.41 119.69 169.25 120.86 163.05 C 122.05 156.84 122.26 149.27 117.60 144.38 C 115.68 141.98 112.44 142.46 109.74 142.31 C 113.38 152.93 107.95 164.30 99.55 170.92 C 100.64 164.18 106.11 159.43 108.03 153.06 C 109.36 149.13 107.19 145.29 105.12 142.10 C 101.16 143.86 98.77 147.84 98.80 152.14 C 99.16 159.07 95.02 166.04 88.97 169.37 C 89.40 167.55 89.37 165.38 90.88 164.04 C 92.50 162.04 95.33 160.76 95.66 157.96 C 96.57 153.87 97.03 149.12 94.57 145.47 C 92.99 143.11 88.93 142.64 87.49 145.38 C 84.09 152.01 86.17 161.05 80.36 166.54 C 75.61 168.55 70.34 169.24 65.43 170.90 C 63.18 164.03 65.72 156.19 61.97 149.73 C 57.65 148.38 53.48 151.99 52.21 155.92 C 49.25 164.73 51.28 174.08 53.19 182.88 C 46.94 188.79 39.16 192.67 31.00 195.19 L 30.71 195.53 C 30.52 195.21 30.15 194.57 29.96 194.25 C 31.02 191.87 33.85 191.84 35.97 191.14 C 41.50 189.98 45.25 185.44 49.39 181.98 C 48.13 174.86 48.08 167.60 48.50 160.40 C 49.47 155.80 50.71 150.46 55.13 147.92 C 57.90 146.10 61.28 146.89 64.30 147.49 C 66.85 153.49 67.11 160.05 66.81 166.47 C 70.87 166.82 75.42 166.66 78.41 163.46 C 83.69 157.94 83.50 149.82 84.32 142.72 C 88.81 141.27 93.61 141.45 97.70 143.93 C 100.42 141.43 103.87 139.94 107.62 140.63 C 108.98 139.81 110.41 139.15 111.87 138.52 C 114.87 139.35 118.35 139.87 120.29 142.62 C 124.09 147.80 123.30 154.58 124.75 160.55 C 126.17 156.73 126.92 152.44 130.22 149.67 C 132.63 139.29 133.38 128.58 133.21 117.95 C 133.05 107.76 130.43 97.91 128.62 87.95 C 127.33 81.27 124.09 75.22 121.74 68.89 C 120.73 65.31 120.04 61.50 117.68 58.49 C 114.82 54.76 111.49 51.17 110.49 46.41 C 114.09 47.57 114.03 51.87 116.32 54.32 C 116.12 51.26 115.66 47.89 113.25 45.71 C 110.13 42.45 105.28 42.55 101.13 42.80 C 103.88 47.28 107.84 50.83 110.80 55.15 C 113.44 58.89 114.33 63.45 116.28 67.53 C 117.94 70.88 117.37 75.12 114.93 77.95 C 111.97 81.49 107.85 84.59 103.04 84.64 C 94.91 84.90 87.30 80.85 81.09 75.95 C 77.09 72.46 72.29 67.83 73.77 61.96 C 74.70 53.93 81.57 48.86 86.93 43.62 C 82.57 41.57 77.68 41.29 73.19 39.67 C 70.59 38.87 69.08 36.55 67.73 34.37 C 70.14 34.79 73.35 37.20 74.31 33.51 C 74.87 35.15 75.42 36.80 75.96 38.45 C 78.80 38.49 81.64 38.50 84.48 38.52 C 83.91 37.03 83.34 35.55 82.81 34.05 C 89.83 37.81 97.86 38.38 105.66 37.65 C 104.90 34.66 103.88 31.55 101.45 29.48 C 97.07 25.59 91.91 22.72 87.14 19.37 L 87.55 18.16 M 90.46 43.46 C 83.89 49.27 75.58 55.38 75.33 65.05 C 80.82 77.56 96.01 84.05 109.04 80.56 C 113.22 77.92 116.46 73.01 115.14 67.90 C 112.11 58.40 104.32 51.68 99.37 43.27 C 96.40 43.36 93.39 42.99 90.46 43.46 M 125.14 70.62 C 124.97 75.61 128.43 79.53 130.02 84.01 C 130.83 86.05 129.57 88.74 131.49 90.33 C 131.59 87.56 131.81 84.67 130.72 82.06 C 129.26 78.08 128.08 73.82 125.14 70.62 Z" />
<path fill="#050505" opacity="1.00" d=" M 20.38 47.35 C 20.63 47.65 21.13 48.25 21.39 48.55 C 18.19 54.19 12.86 58.34 9.31 63.82 C 9.56 68.94 8.53 74.02 6.52 78.72 C 3.74 84.74 4.27 91.56 4.20 98.02 C 4.23 111.86 9.36 124.86 12.45 138.15 C 13.02 142.89 19.10 144.41 19.11 149.43 C 23.30 152.09 28.07 153.66 32.23 156.38 C 32.79 157.39 33.25 158.44 33.75 159.48 C 30.26 156.97 26.31 155.27 22.52 153.29 C 18.91 150.87 16.33 147.27 13.46 144.07 C 13.11 149.08 14.20 154.00 16.60 158.40 C 16.07 158.37 15.01 158.30 14.48 158.27 C 13.22 155.32 12.23 152.23 12.08 149.01 C 11.79 141.18 7.26 134.43 2.74 128.36 C 1.94 121.93 0.63 115.52 0.75 109.00 C 0.78 106.17 0.43 103.35 0.00 100.56 L 0.00 79.74 C 2.65 83.86 1.01 88.87 2.06 93.40 C 2.63 89.45 3.02 85.48 3.69 81.55 C 6.51 77.80 3.68 73.22 4.84 69.11 C 8.22 60.72 14.58 54.11 20.38 47.35 M 3.73 112.54 C 3.54 108.74 3.07 104.95 2.13 101.26 C 1.64 104.88 0.41 110.11 3.73 112.54 M 2.35 111.44 C 2.73 119.72 4.10 128.60 9.34 135.32 C 10.26 128.60 4.98 123.34 4.57 116.84 C 4.06 114.97 4.59 112.33 2.35 111.44 Z" />
<path fill="#050505" opacity="1.00" d=" M 30.85 46.75 C 32.56 47.70 33.59 49.80 33.06 51.71 C 32.32 54.93 30.60 57.78 29.12 60.68 C 33.33 58.94 38.13 58.59 42.42 60.28 C 47.82 62.45 52.59 65.87 57.54 68.89 C 57.04 74.05 55.73 79.23 52.78 83.57 C 49.29 88.70 44.77 93.01 40.56 97.53 C 35.76 97.94 30.63 98.38 26.03 96.64 C 23.38 95.72 21.94 93.20 20.91 90.76 C 18.31 93.37 18.29 99.16 13.64 98.91 C 13.61 98.34 13.56 97.19 13.53 96.62 C 17.65 94.14 19.06 89.25 20.23 84.90 C 21.17 80.98 22.43 77.12 22.86 73.10 C 20.87 74.87 19.44 77.24 19.67 79.99 C 17.48 80.72 16.14 82.67 14.39 84.04 C 13.14 78.76 17.76 75.18 19.72 70.85 C 18.05 71.78 16.64 73.07 15.11 74.20 C 15.56 68.48 21.34 66.27 25.14 63.09 C 28.11 58.10 29.45 52.33 30.85 46.75 M 27.47 64.43 C 26.11 72.72 21.95 80.52 22.26 89.05 C 24.80 94.92 31.86 97.29 37.85 96.19 C 44.08 89.80 52.52 84.27 54.35 74.90 C 54.31 72.68 55.82 69.18 53.00 68.16 C 47.81 65.60 42.81 62.17 36.96 61.39 C 33.48 60.89 30.30 62.65 27.47 64.43 Z" />
<path fill="#050505" opacity="1.00" d=" M 95.17 55.19 C 98.19 53.20 100.98 56.37 102.55 58.67 L 102.49 60.37 C 101.44 61.37 100.72 63.01 99.17 63.29 C 96.82 63.08 94.66 62.08 92.56 61.10 C 93.08 59.05 92.89 56.23 95.17 55.19 M 94.50 59.08 C 95.57 61.75 99.37 61.21 101.00 59.37 C 99.96 58.17 98.91 56.97 97.87 55.77 C 96.61 56.73 95.22 57.61 94.50 59.08 Z" />
<path fill="#050505" opacity="1.00" d=" M 27.72 85.56 C 22.76 82.73 27.02 74.43 32.30 76.36 C 32.75 78.27 33.40 80.19 33.22 82.19 C 32.16 84.27 29.69 84.76 27.72 85.56 M 29.04 78.88 C 27.87 79.84 27.16 81.30 27.32 82.83 C 28.81 84.31 31.14 82.39 31.34 80.70 C 31.53 79.69 29.95 76.61 29.04 78.88 Z" />
<path fill="#050505" opacity="1.00" d=" M 54.38 89.97 C 56.47 84.36 62.23 81.93 66.76 78.69 C 71.56 78.60 76.41 78.90 81.03 80.31 C 87.76 82.14 93.61 86.09 99.87 89.03 C 102.15 88.22 104.65 86.85 107.00 88.29 C 109.82 89.90 113.51 91.43 114.36 94.89 C 115.55 98.42 118.19 101.22 119.47 104.72 C 120.57 104.20 121.69 103.71 122.81 103.24 C 119.91 109.27 113.47 112.54 107.22 114.04 C 98.57 116.16 89.52 116.24 80.99 118.92 C 66.53 123.09 54.03 132.05 42.98 142.02 C 41.23 143.46 39.72 145.41 37.39 145.89 C 38.72 142.04 41.21 138.66 41.70 134.52 C 48.47 123.04 47.15 109.18 50.43 96.65 C 51.18 94.42 51.37 91.08 54.57 91.37 C 51.56 98.03 50.21 105.32 50.32 112.61 C 55.12 111.38 58.99 107.06 58.74 101.96 C 59.39 97.44 57.48 93.16 54.38 89.97 M 56.36 89.01 C 58.24 92.73 61.69 95.40 63.14 99.37 C 67.96 97.60 74.10 95.31 74.66 89.34 C 71.72 87.59 70.99 84.25 69.71 81.35 C 64.21 80.89 60.39 86.02 56.36 89.01 M 71.90 80.63 C 72.57 83.80 73.93 87.37 76.94 88.97 C 79.81 88.02 81.03 84.71 80.81 81.88 C 77.86 81.36 74.90 80.87 71.90 80.63 M 83.12 82.80 C 80.93 88.27 76.71 92.54 72.43 96.44 C 69.16 99.14 65.04 101.76 60.61 100.51 C 60.61 102.87 60.87 105.43 59.64 107.56 C 57.74 111.44 53.35 112.94 49.60 114.38 C 48.44 123.70 45.75 132.78 41.57 141.19 C 55.12 128.08 71.79 117.07 90.86 114.62 C 100.46 113.57 110.76 112.73 118.64 106.50 C 114.93 100.84 112.67 94.03 106.98 89.90 C 104.52 93.76 100.01 94.60 95.84 95.31 C 89.74 92.94 89.74 84.30 83.12 82.80 M 90.10 87.57 C 92.49 92.45 100.67 95.11 104.21 90.15 C 103.06 90.49 101.92 90.87 100.79 91.28 C 97.09 90.39 94.04 87.53 90.10 87.57 Z" />
<path fill="#050505" opacity="1.00" d=" M 183.86 134.90 C 186.67 132.69 190.14 131.65 193.71 131.87 C 197.07 130.92 201.02 129.72 204.20 131.86 C 208.50 134.91 209.91 140.53 210.00 145.53 L 210.00 150.21 C 209.01 148.35 208.87 146.22 208.23 144.24 C 207.04 141.09 206.42 137.49 203.91 135.05 C 202.04 133.16 199.25 133.00 196.79 132.45 C 199.26 143.35 194.48 154.73 186.25 161.93 C 186.62 153.64 195.46 148.36 194.78 139.90 C 194.76 137.16 192.80 135.11 191.23 133.09 C 188.88 134.94 186.05 136.84 185.49 140.02 C 184.08 145.26 185.10 151.75 180.79 155.80 C 179.22 157.65 177.28 159.15 175.12 160.27 C 175.43 154.42 182.16 151.77 182.74 146.06 C 183.00 142.57 183.36 138.17 180.14 135.85 C 178.30 134.23 175.73 134.85 173.51 134.73 C 172.00 142.05 171.99 150.09 167.41 156.37 C 164.70 159.98 159.66 159.77 155.59 159.77 C 154.94 160.62 154.29 161.46 153.64 162.31 C 147.38 156.44 153.10 146.88 148.28 140.31 C 146.11 140.62 143.59 140.34 141.84 141.92 C 138.88 144.36 137.94 148.39 137.50 152.03 C 136.78 159.45 137.68 166.95 139.77 174.08 C 131.73 179.72 123.12 186.42 112.70 185.63 C 120.66 182.56 128.78 179.56 135.50 174.12 C 135.47 167.75 135.48 161.39 135.44 155.02 C 135.34 150.15 136.40 145.10 139.14 141.01 C 141.36 137.14 146.52 138.35 150.18 138.76 C 154.08 144.30 153.23 151.55 153.31 157.97 C 156.17 157.85 159.04 157.71 161.90 157.51 C 164.61 154.90 167.66 152.29 168.70 148.51 C 170.67 143.62 169.44 137.96 172.25 133.35 C 176.18 133.26 180.26 133.05 183.86 134.90 Z" />
<path fill="#050505" opacity="1.00" d=" M 208.27 150.77 C 208.53 150.75 209.06 150.70 209.33 150.68 C 210.36 155.37 208.26 160.07 206.17 164.17 C 204.30 167.88 199.96 168.67 196.80 170.84 C 191.94 174.53 188.08 179.42 182.94 182.79 C 175.19 187.99 166.15 190.84 157.15 193.03 C 159.90 191.94 162.62 190.54 164.26 187.96 C 176.64 185.30 188.06 178.28 195.35 167.83 C 197.68 167.34 200.20 166.83 201.88 164.98 C 205.74 161.30 206.60 155.80 208.17 150.95 L 208.27 150.77 Z" />
<path fill="#050505" opacity="1.00" d=" M 170.02 172.81 C 170.98 172.76 171.95 172.72 172.91 172.68 C 172.84 174.84 171.01 176.12 169.56 177.44 C 164.13 182.10 157.39 185.10 152.55 190.45 C 150.63 192.45 149.66 195.22 147.46 196.97 C 147.43 195.41 147.46 193.85 147.53 192.30 C 151.38 189.83 152.35 184.81 156.33 182.49 C 161.04 179.49 166.49 177.35 170.02 172.81 Z" />
</g>
<g id="#fdfdfdfe">
<path fill="#fdfdfd" opacity="1.00" d=" M 61.53 21.22 C 69.75 19.44 78.18 18.51 86.59 18.67 L 86.04 19.34 C 86.32 19.35 86.87 19.36 87.14 19.37 C 91.91 22.72 97.07 25.59 101.45 29.48 C 103.88 31.55 104.90 34.66 105.66 37.65 C 97.86 38.38 89.83 37.81 82.81 34.05 C 83.34 35.55 83.91 37.03 84.48 38.52 C 81.64 38.50 78.80 38.49 75.96 38.45 C 75.42 36.80 74.87 35.15 74.31 33.51 C 73.35 37.20 70.14 34.79 67.73 34.37 C 69.08 36.55 70.59 38.87 73.19 39.67 C 77.68 41.29 82.57 41.57 86.93 43.62 C 81.57 48.86 74.70 53.93 73.77 61.96 C 72.29 67.83 77.09 72.46 81.09 75.95 C 87.30 80.85 94.91 84.90 103.04 84.64 C 107.85 84.59 111.97 81.49 114.93 77.95 C 117.37 75.12 117.94 70.88 116.28 67.53 C 114.33 63.45 113.44 58.89 110.80 55.15 C 107.84 50.83 103.88 47.28 101.13 42.80 C 105.28 42.55 110.13 42.45 113.25 45.71 C 115.66 47.89 116.12 51.26 116.32 54.32 C 114.03 51.87 114.09 47.57 110.49 46.41 C 111.49 51.17 114.82 54.76 117.68 58.49 C 120.04 61.50 120.73 65.31 121.74 68.89 C 124.09 75.22 127.33 81.27 128.62 87.95 C 130.43 97.91 133.05 107.76 133.21 117.95 C 133.38 128.58 132.63 139.29 130.22 149.67 C 126.92 152.44 126.17 156.73 124.75 160.55 C 123.30 154.58 124.09 147.80 120.29 142.62 C 118.35 139.87 114.87 139.35 111.87 138.52 C 110.41 139.15 108.98 139.81 107.62 140.63 C 103.87 139.94 100.42 141.43 97.70 143.93 C 93.61 141.45 88.81 141.27 84.32 142.72 C 83.50 149.82 83.69 157.94 78.41 163.46 C 75.42 166.66 70.87 166.82 66.81 166.47 C 67.11 160.05 66.85 153.49 64.30 147.49 C 61.28 146.89 57.90 146.10 55.13 147.92 C 50.71 150.46 49.47 155.80 48.50 160.40 C 45.29 160.44 42.07 160.68 38.87 160.42 C 36.42 159.51 34.32 157.90 32.23 156.38 C 28.07 153.66 23.30 152.09 19.11 149.43 C 19.10 144.41 13.02 142.89 12.45 138.15 C 9.36 124.86 4.23 111.86 4.20 98.02 C 4.27 91.56 3.74 84.74 6.52 78.72 C 8.53 74.02 9.56 68.94 9.31 63.82 C 12.86 58.34 18.19 54.19 21.39 48.55 C 21.50 47.86 21.54 47.17 21.50 46.48 C 23.58 44.33 26.36 42.65 28.45 40.37 C 33.35 35.19 37.39 28.02 44.96 26.51 C 50.79 25.74 55.79 22.36 61.53 21.22 M 30.85 46.75 C 29.45 52.33 28.11 58.10 25.14 63.09 C 21.34 66.27 15.56 68.48 15.11 74.20 C 16.64 73.07 18.05 71.78 19.72 70.85 C 17.76 75.18 13.14 78.76 14.39 84.04 C 16.14 82.67 17.48 80.72 19.67 79.99 C 19.44 77.24 20.87 74.87 22.86 73.10 C 22.43 77.12 21.17 80.98 20.23 84.90 C 19.06 89.25 17.65 94.14 13.53 96.62 C 13.56 97.19 13.61 98.34 13.64 98.91 C 18.29 99.16 18.31 93.37 20.91 90.76 C 21.94 93.20 23.38 95.72 26.03 96.64 C 30.63 98.38 35.76 97.94 40.56 97.53 C 44.77 93.01 49.29 88.70 52.78 83.57 C 55.73 79.23 57.04 74.05 57.54 68.89 C 52.59 65.87 47.82 62.45 42.42 60.28 C 38.13 58.59 33.33 58.94 29.12 60.68 C 30.60 57.78 32.32 54.93 33.06 51.71 C 33.59 49.80 32.56 47.70 30.85 46.75 M 54.38 89.97 C 57.48 93.16 59.39 97.44 58.74 101.96 C 58.99 107.06 55.12 111.38 50.32 112.61 C 50.21 105.32 51.56 98.03 54.57 91.37 C 51.37 91.08 51.18 94.42 50.43 96.65 C 47.15 109.18 48.47 123.04 41.70 134.52 C 41.21 138.66 38.72 142.04 37.39 145.89 C 39.72 145.41 41.23 143.46 42.98 142.02 C 54.03 132.05 66.53 123.09 80.99 118.92 C 89.52 116.24 98.57 116.16 107.22 114.04 C 113.47 112.54 119.91 109.27 122.81 103.24 C 121.69 103.71 120.57 104.20 119.47 104.72 C 118.19 101.22 115.55 98.42 114.36 94.89 C 113.51 91.43 109.82 89.90 107.00 88.29 C 104.65 86.85 102.15 88.22 99.87 89.03 C 93.61 86.09 87.76 82.14 81.03 80.31 C 76.41 78.90 71.56 78.60 66.76 78.69 C 62.23 81.93 56.47 84.36 54.38 89.97 Z" />
<path fill="#fdfdfd" opacity="1.00" d=" M 112.07 38.51 C 113.17 38.51 114.28 38.50 115.38 38.49 C 115.37 39.06 115.36 40.20 115.35 40.77 C 115.05 40.72 114.45 40.61 114.15 40.56 C 113.76 40.50 112.97 40.38 112.58 40.32 C 112.45 39.87 112.20 38.96 112.07 38.51 Z" />
<path fill="#fdfdfd" opacity="1.00" d=" M 90.46 43.46 C 93.39 42.99 96.40 43.36 99.37 43.27 C 104.32 51.68 112.11 58.40 115.14 67.90 C 116.46 73.01 113.22 77.92 109.04 80.56 C 96.01 84.05 80.82 77.56 75.33 65.05 C 75.58 55.38 83.89 49.27 90.46 43.46 M 95.17 55.19 C 92.89 56.23 93.08 59.05 92.56 61.10 C 94.66 62.08 96.82 63.08 99.17 63.29 C 100.72 63.01 101.44 61.37 102.49 60.37 L 102.55 58.67 C 100.98 56.37 98.19 53.20 95.17 55.19 Z" />
<path fill="#fdfdfd" opacity="1.00" d=" M 94.50 59.08 C 95.22 57.61 96.61 56.73 97.87 55.77 C 98.91 56.97 99.96 58.17 101.00 59.37 C 99.37 61.21 95.57 61.75 94.50 59.08 Z" />
<path fill="#fdfdfd" opacity="1.00" d=" M 27.47 64.43 C 30.30 62.65 33.48 60.89 36.96 61.39 C 42.81 62.17 47.81 65.60 53.00 68.16 C 55.82 69.18 54.31 72.68 54.35 74.90 C 52.52 84.27 44.08 89.80 37.85 96.19 C 31.86 97.29 24.80 94.92 22.26 89.05 C 21.95 80.52 26.11 72.72 27.47 64.43 M 27.72 85.56 C 29.69 84.76 32.16 84.27 33.22 82.19 C 33.40 80.19 32.75 78.27 32.30 76.36 C 27.02 74.43 22.76 82.73 27.72 85.56 Z" />
<path fill="#fdfdfd" opacity="1.00" d=" M 125.14 70.62 C 128.08 73.82 129.26 78.08 130.72 82.06 C 131.81 84.67 131.59 87.56 131.49 90.33 C 129.57 88.74 130.83 86.05 130.02 84.01 C 128.43 79.53 124.97 75.61 125.14 70.62 Z" />
<path fill="#fdfdfd" opacity="1.00" d=" M 29.04 78.88 C 29.95 76.61 31.53 79.69 31.34 80.70 C 31.14 82.39 28.81 84.31 27.32 82.83 C 27.16 81.30 27.87 79.84 29.04 78.88 Z" />
<path fill="#fdfdfd" opacity="1.00" d=" M 56.36 89.01 C 60.39 86.02 64.21 80.89 69.71 81.35 C 70.99 84.25 71.72 87.59 74.66 89.34 C 74.10 95.31 67.96 97.60 63.14 99.37 C 61.69 95.40 58.24 92.73 56.36 89.01 Z" />
<path fill="#fdfdfd" opacity="1.00" d=" M 71.90 80.63 C 74.90 80.87 77.86 81.36 80.81 81.88 C 81.03 84.71 79.81 88.02 76.94 88.97 C 73.93 87.37 72.57 83.80 71.90 80.63 Z" />
<path fill="#fdfdfd" opacity="1.00" d=" M 83.12 82.80 C 89.74 84.30 89.74 92.94 95.84 95.31 C 100.01 94.60 104.52 93.76 106.98 89.90 C 112.67 94.03 114.93 100.84 118.64 106.50 C 110.76 112.73 100.46 113.57 90.86 114.62 C 71.79 117.07 55.12 128.08 41.57 141.19 C 45.75 132.78 48.44 123.70 49.60 114.38 C 53.35 112.94 57.74 111.44 59.64 107.56 C 60.87 105.43 60.61 102.87 60.61 100.51 C 65.04 101.76 69.16 99.14 72.43 96.44 C 76.71 92.54 80.93 88.27 83.12 82.80 Z" />
<path fill="#fdfdfd" opacity="1.00" d=" M 90.10 87.57 C 94.04 87.53 97.09 90.39 100.79 91.28 C 101.92 90.87 103.06 90.49 104.21 90.15 C 100.67 95.11 92.49 92.45 90.10 87.57 Z" />
<path fill="#fdfdfd" opacity="1.00" d=" M 3.73 112.54 C 0.41 110.11 1.64 104.88 2.13 101.26 C 3.07 104.95 3.54 108.74 3.73 112.54 Z" />
<path fill="#fdfdfd" opacity="1.00" d=" M 2.35 111.44 C 4.59 112.33 4.06 114.97 4.57 116.84 C 4.98 123.34 10.26 128.60 9.34 135.32 C 4.10 128.60 2.73 119.72 2.35 111.44 Z" />
<path fill="#fdfdfd" opacity="1.00" d=" M 196.79 132.45 C 199.25 133.00 202.04 133.16 203.91 135.05 C 206.42 137.49 207.04 141.09 208.23 144.24 C 208.18 146.42 208.21 148.59 208.27 150.77 L 208.17 150.95 C 206.60 155.80 205.74 161.30 201.88 164.98 C 200.20 166.83 197.68 167.34 195.35 167.83 C 188.06 178.28 176.64 185.30 164.26 187.96 C 162.62 190.54 159.90 191.94 157.15 193.03 C 153.89 194.31 150.63 195.70 147.92 197.98 C 143.75 201.37 138.38 203.01 133.05 202.98 C 103.69 203.04 74.34 202.95 44.98 203.02 C 43.34 203.04 41.62 202.98 40.17 202.10 C 36.80 200.29 33.07 198.69 30.71 195.53 L 31.00 195.19 C 39.16 192.67 46.94 188.79 53.19 182.88 C 51.28 174.08 49.25 164.73 52.21 155.92 C 53.48 151.99 57.65 148.38 61.97 149.73 C 65.72 156.19 63.18 164.03 65.43 170.90 C 70.34 169.24 75.61 168.55 80.36 166.54 C 86.17 161.05 84.09 152.01 87.49 145.38 C 88.93 142.64 92.99 143.11 94.57 145.47 C 97.03 149.12 96.57 153.87 95.66 157.96 C 95.33 160.76 92.50 162.04 90.88 164.04 C 89.37 165.38 89.40 167.55 88.97 169.37 C 95.02 166.04 99.16 159.07 98.80 152.14 C 98.77 147.84 101.16 143.86 105.12 142.10 C 107.19 145.29 109.36 149.13 108.03 153.06 C 106.11 159.43 100.64 164.18 99.55 170.92 C 107.95 164.30 113.38 152.93 109.74 142.31 C 112.44 142.46 115.68 141.98 117.60 144.38 C 122.26 149.27 122.05 156.84 120.86 163.05 C 119.69 169.25 116.11 176.41 108.98 176.87 C 103.12 186.68 92.58 192.33 82.01 195.70 C 78.97 196.52 76.75 198.83 75.07 201.38 C 76.78 201.20 78.54 201.11 80.12 200.37 C 88.80 196.32 97.70 192.38 105.10 186.16 C 106.76 186.39 108.45 186.67 110.14 186.42 C 111.00 186.17 111.85 185.90 112.70 185.63 C 123.12 186.42 131.73 179.72 139.77 174.08 C 137.68 166.95 136.78 159.45 137.50 152.03 C 137.94 148.39 138.88 144.36 141.84 141.92 C 143.59 140.34 146.11 140.62 148.28 140.31 C 153.10 146.88 147.38 156.44 153.64 162.31 C 154.29 161.46 154.94 160.62 155.59 159.77 C 159.66 159.77 164.70 159.98 167.41 156.37 C 171.99 150.09 172.00 142.05 173.51 134.73 C 175.73 134.85 178.30 134.23 180.14 135.85 C 183.36 138.17 183.00 142.57 182.74 146.06 C 182.16 151.77 175.43 154.42 175.12 160.27 C 177.28 159.15 179.22 157.65 180.79 155.80 C 185.10 151.75 184.08 145.26 185.49 140.02 C 186.05 136.84 188.88 134.94 191.23 133.09 C 192.80 135.11 194.76 137.16 194.78 139.90 C 195.46 148.36 186.62 153.64 186.25 161.93 C 194.48 154.73 199.26 143.35 196.79 132.45 M 170.02 172.81 C 166.49 177.35 161.04 179.49 156.33 182.49 C 152.35 184.81 151.38 189.83 147.53 192.30 C 147.46 193.85 147.43 195.41 147.46 196.97 C 149.66 195.22 150.63 192.45 152.55 190.45 C 157.39 185.10 164.13 182.10 169.56 177.44 C 171.01 176.12 172.84 174.84 172.91 172.68 C 171.95 172.72 170.98 172.76 170.02 172.81 Z" />
</g>
</svg>
