<?xml version="1.0" encoding="UTF-8" ?>
<!DOCTYPE svg PUBLIC "-//W3C//DTD SVG 1.1//EN" "http://www.w3.org/Graphics/SVG/1.1/DTD/svg11.dtd">
<svg width="210pt" height="220pt" viewBox="0 0 210 220" version="1.1" xmlns="http://www.w3.org/2000/svg">
<g id="#000000ff">
<path fill="#000000" opacity="1.00" d=" M 57.08 14.04 C 60.90 10.43 66.73 8.71 71.88 9.93 C 81.77 12.23 92.11 13.05 101.41 17.42 C 105.81 19.16 109.29 22.78 113.95 23.89 C 115.87 24.54 118.34 24.66 119.46 26.62 C 121.54 29.94 120.71 34.14 119.82 37.71 C 117.95 43.89 116.84 50.26 115.29 56.52 C 123.09 56.62 132.23 54.53 138.57 60.39 C 138.46 65.49 139.92 71.72 135.40 75.45 C 128.60 80.29 120.03 82.43 111.73 81.67 C 110.87 83.74 109.92 85.82 108.29 87.42 C 109.05 85.23 109.77 83.03 110.51 80.84 C 108.66 80.37 106.84 79.83 104.96 79.48 C 105.84 80.30 106.73 81.13 107.61 81.95 C 107.38 84.14 107.37 86.36 107.77 88.53 C 106.41 94.69 104.13 100.59 101.12 106.13 C 103.47 107.46 105.78 108.89 107.99 110.46 C 112.66 110.30 117.42 110.15 121.96 111.48 C 130.65 113.97 139.80 113.99 148.61 115.90 C 151.47 116.92 153.75 119.05 156.03 120.99 C 157.28 122.25 159.18 123.44 158.96 125.50 C 155.33 122.51 152.32 118.46 147.73 116.87 C 143.48 116.10 139.09 116.07 134.93 114.80 C 133.49 114.69 132.05 114.60 130.61 114.51 C 127.16 121.50 128.42 129.49 128.56 136.98 C 128.44 141.42 131.23 145.08 133.31 148.76 C 133.41 152.04 134.38 155.23 136.40 157.83 C 136.65 160.12 137.42 162.29 138.79 164.15 C 138.51 164.70 137.96 165.80 137.68 166.35 C 136.70 168.21 136.06 170.35 136.70 172.44 C 137.89 176.71 139.38 180.90 140.95 185.04 C 141.61 186.82 142.65 188.41 143.68 190.00 C 143.54 192.32 143.39 194.64 143.22 196.96 C 141.70 202.48 141.35 208.21 141.70 213.91 C 117.01 213.94 92.33 213.98 67.64 213.89 C 67.41 209.68 64.22 206.56 61.31 203.88 C 54.34 197.78 46.62 191.71 42.89 182.97 C 40.21 176.14 44.86 168.04 51.95 166.60 C 55.79 165.90 59.04 168.45 61.94 170.56 C 63.87 169.49 65.84 168.50 67.84 167.55 C 69.29 168.27 70.74 168.98 72.19 169.71 C 72.65 169.27 73.56 168.38 74.02 167.93 C 74.25 167.68 74.72 167.18 74.95 166.93 C 74.98 165.56 74.98 164.19 74.96 162.82 C 76.08 162.56 77.20 162.31 78.32 162.06 C 77.75 160.26 77.05 158.50 76.02 156.91 C 76.22 156.47 76.60 155.59 76.80 155.16 C 77.94 156.30 79.04 157.50 80.23 158.60 C 80.64 157.94 81.46 156.61 81.87 155.95 C 82.57 156.70 83.27 157.44 83.98 158.19 C 84.18 157.81 84.59 157.03 84.79 156.65 C 83.53 156.10 82.26 155.58 80.91 155.31 C 80.22 153.94 79.76 152.42 78.76 151.23 C 70.71 143.93 63.18 136.08 55.53 128.36 C 55.53 127.78 55.54 126.63 55.54 126.06 C 53.09 124.74 51.73 122.35 50.63 119.90 C 50.18 119.43 49.71 118.97 49.24 118.52 C 48.11 117.02 47.54 115.27 48.13 113.41 C 48.42 111.76 48.45 110.06 47.10 108.80 C 47.62 105.80 48.24 102.78 49.62 100.03 C 50.21 101.27 50.77 102.53 51.27 103.82 C 51.32 106.00 50.77 108.63 52.55 110.32 C 56.91 115.07 62.34 118.66 67.46 122.53 C 71.47 125.30 75.19 128.61 79.78 130.43 C 79.49 128.11 79.01 125.83 78.51 123.55 C 74.95 121.95 70.92 120.88 68.30 117.80 C 66.27 115.42 64.21 113.05 61.72 111.13 C 61.49 110.46 61.02 109.10 60.78 108.43 C 57.80 105.11 55.28 99.96 50.15 100.12 C 50.48 99.62 51.15 98.63 51.48 98.13 C 49.92 94.62 49.31 90.83 48.62 87.08 C 41.39 82.67 38.92 72.54 41.93 64.87 C 42.31 64.63 43.06 64.14 43.44 63.90 C 43.41 64.44 43.36 65.52 43.33 66.06 L 42.27 66.22 C 42.78 71.87 40.71 78.72 45.40 83.12 C 46.13 83.88 46.87 84.63 47.62 85.38 C 48.10 85.41 49.06 85.45 49.54 85.47 C 48.60 83.99 48.18 82.43 49.28 80.86 C 49.13 80.34 48.83 79.32 48.68 78.81 L 48.22 77.22 C 48.80 77.12 49.97 76.93 50.55 76.84 C 50.03 75.25 49.55 73.65 48.97 72.08 L 48.53 71.00 C 47.86 69.40 47.07 67.86 46.30 66.30 C 45.91 65.48 45.50 64.67 45.06 63.87 L 44.21 63.41 C 43.02 60.66 42.48 57.70 42.19 54.73 C 38.04 51.86 33.65 49.35 29.64 46.30 C 27.48 44.65 25.36 42.61 24.68 39.90 C 24.04 37.09 24.28 34.18 24.46 31.33 C 26.59 31.30 28.88 30.87 30.85 31.97 C 35.75 34.43 40.04 37.91 44.33 41.29 C 51.96 34.01 50.65 22.01 57.08 14.04 M 56.82 61.54 C 52.07 69.15 51.66 78.42 52.79 87.09 C 53.18 88.41 53.50 89.76 53.77 91.11 C 54.83 97.93 61.27 101.61 65.35 106.55 C 66.22 103.70 67.83 101.09 70.58 99.71 C 74.72 100.36 78.22 98.10 82.07 97.26 C 82.26 99.67 84.80 98.04 86.17 98.33 C 90.33 98.80 95.06 100.48 96.99 104.57 C 97.32 104.62 97.97 104.71 98.29 104.76 C 102.05 98.07 104.70 90.76 105.71 83.13 C 104.80 83.88 102.97 85.36 102.05 86.10 C 104.74 84.83 104.69 78.37 100.85 79.38 L 99.05 81.73 L 99.54 78.40 C 99.31 78.37 98.86 78.33 98.63 78.30 C 98.68 79.11 98.77 80.73 98.82 81.54 C 97.67 81.57 95.38 81.62 94.24 81.65 C 94.32 81.12 94.49 80.06 94.57 79.54 L 93.42 79.55 C 93.38 78.66 93.30 76.88 93.25 75.98 C 92.98 77.23 92.72 78.48 92.50 79.74 C 91.54 79.75 89.62 79.77 88.66 79.78 C 89.28 79.03 90.53 77.53 91.15 76.78 C 83.55 74.27 75.79 72.08 68.86 67.95 C 65.10 65.16 61.05 68.66 57.21 69.50 C 58.71 68.01 60.21 66.52 61.84 65.16 C 60.90 63.19 58.45 62.80 56.82 61.54 M 75.70 102.63 L 75.68 103.74 L 74.32 103.25 L 74.73 104.59 C 71.98 103.78 68.87 104.67 68.65 107.94 C 69.48 115.26 78.25 120.04 85.07 117.93 C 90.50 116.67 93.73 111.14 94.51 105.96 C 93.21 103.97 90.67 103.43 88.45 103.33 L 88.40 102.38 C 86.28 103.05 84.12 103.69 81.87 103.57 C 80.14 102.12 77.75 102.80 75.70 102.63 M 50.17 112.49 C 50.32 112.70 50.32 112.70 50.17 112.49 M 96.35 112.03 C 95.24 113.44 97.60 115.25 98.62 113.72 C 99.82 112.29 97.36 110.43 96.35 112.03 M 56.34 118.96 C 55.72 120.55 56.23 121.14 57.89 120.73 C 58.51 119.14 58.00 118.55 56.34 118.96 M 83.96 122.82 C 83.21 123.87 82.44 124.89 81.60 125.87 C 81.44 127.00 81.31 128.13 81.19 129.27 C 83.92 126.86 86.15 123.97 88.76 121.44 C 87.08 121.62 85.51 122.21 83.96 122.82 M 97.34 121.22 C 96.17 122.67 98.65 124.43 99.62 122.82 C 100.77 121.37 98.30 119.62 97.34 121.22 M 79.44 123.36 C 79.42 123.81 79.39 124.70 79.38 125.15 L 80.14 125.54 C 82.25 125.50 81.13 121.90 79.44 123.36 M 65.27 126.24 C 64.10 127.70 66.61 129.45 67.59 127.88 C 68.70 126.44 66.26 124.72 65.27 126.24 M 58.19 127.30 C 57.75 128.88 58.36 129.43 60.01 128.96 C 60.45 127.38 59.84 126.82 58.19 127.30 M 92.61 134.64 C 92.54 135.52 92.41 137.29 92.34 138.18 C 93.06 138.55 94.51 139.29 95.23 139.66 C 96.70 137.67 98.28 135.73 99.32 133.47 C 99.93 131.36 99.55 129.12 99.43 126.96 C 96.81 129.20 94.93 132.12 92.61 134.64 M 74.90 134.94 C 72.42 133.70 69.84 132.61 67.07 132.25 C 67.27 132.69 67.67 133.55 67.87 133.99 C 71.84 135.69 74.36 139.24 77.49 142.03 C 77.41 139.86 76.82 137.73 75.39 136.05 C 76.80 134.34 78.24 132.66 79.72 131.00 C 78.07 132.26 76.37 133.47 74.90 134.94 M 83.08 132.09 C 83.17 132.72 83.36 133.96 83.45 134.58 C 83.91 134.50 84.84 134.34 85.30 134.25 C 85.37 133.78 85.50 132.83 85.56 132.35 C 84.94 132.29 83.70 132.16 83.08 132.09 M 121.75 132.03 C 121.55 133.67 122.15 135.11 123.40 136.18 C 123.74 139.10 123.33 142.22 125.84 144.35 C 126.35 144.45 127.35 144.63 127.85 144.73 C 127.27 142.54 126.28 140.51 125.32 138.48 L 124.71 138.46 C 124.58 136.79 123.61 135.43 122.45 134.31 C 122.22 133.55 121.99 132.79 121.75 132.03 M 108.92 133.32 C 108.55 134.55 108.16 135.78 107.74 137.00 C 107.70 137.76 107.63 139.27 107.60 140.03 C 108.63 141.94 109.41 143.98 109.81 146.12 L 110.33 146.84 C 111.16 151.30 110.10 155.68 109.32 160.05 C 110.74 161.09 111.10 163.39 112.88 163.91 C 117.22 160.52 121.55 156.46 123.37 151.11 C 124.58 145.07 117.98 142.38 114.85 138.42 C 112.86 136.79 111.85 133.25 108.92 133.32 M 79.30 137.22 C 77.82 138.19 79.42 140.69 80.88 139.53 C 82.46 138.57 80.78 135.94 79.30 137.22 M 86.63 169.60 C 85.85 171.82 86.86 173.65 88.89 174.65 C 89.76 174.14 90.64 173.63 91.52 173.13 C 91.51 171.95 91.47 170.78 91.42 169.61 C 89.83 169.43 88.22 169.42 86.63 169.60 M 64.80 181.69 C 63.05 184.36 63.70 187.65 64.79 190.42 C 66.35 190.30 68.40 190.98 69.30 189.25 C 72.46 184.98 75.62 180.68 78.03 175.93 C 78.68 174.82 78.51 173.49 78.63 172.26 C 73.49 174.34 67.88 176.84 64.80 181.69 M 90.66 193.73 C 88.92 194.66 88.62 197.52 90.66 198.30 C 92.46 199.32 93.94 197.47 94.60 195.98 C 93.85 194.52 92.46 192.91 90.66 193.73 Z" />
<path fill="#000000" opacity="1.00" d=" M 63.05 73.94 C 65.59 73.45 68.19 73.59 70.76 73.47 L 70.13 74.64 C 74.01 73.90 76.11 78.32 78.30 80.78 C 78.91 80.69 80.13 80.49 80.74 80.39 C 80.22 79.25 79.70 78.11 79.20 76.98 C 78.03 75.97 76.87 74.95 75.82 73.84 C 77.06 74.37 78.23 75.05 79.44 75.65 C 80.06 76.91 80.53 78.22 80.66 79.63 C 81.61 79.59 83.51 79.50 84.46 79.45 C 84.82 78.63 85.19 77.82 85.56 77.00 C 85.45 77.58 85.22 78.73 85.11 79.31 C 86.55 80.27 88.15 80.79 89.88 80.22 C 89.67 80.88 89.26 82.21 89.05 82.88 C 86.46 82.16 83.65 80.50 81.01 81.98 C 77.99 83.08 76.43 86.29 73.41 87.36 C 71.17 87.66 68.89 87.47 66.63 87.48 C 64.85 86.55 63.16 85.39 62.24 83.53 C 61.60 83.49 60.32 83.41 59.68 83.37 C 59.56 82.88 59.32 81.90 59.20 81.41 C 60.89 81.18 64.43 82.52 63.67 79.20 C 61.93 78.70 61.00 77.19 60.10 75.76 C 61.09 75.17 62.07 74.56 63.05 73.94 M 61.73 75.68 C 61.65 78.76 66.68 79.62 65.58 75.42 C 64.29 75.51 63.01 75.59 61.73 75.68 M 69.49 79.78 C 67.86 79.64 66.23 79.52 64.60 79.40 C 63.69 80.97 63.11 82.67 63.19 84.51 L 64.52 84.51 L 64.38 85.55 C 67.87 87.26 72.15 87.30 75.65 85.55 L 75.61 84.92 C 75.92 84.58 76.53 83.91 76.83 83.58 L 77.60 83.49 C 78.46 80.29 75.26 77.33 72.14 78.58 L 72.53 77.06 C 70.95 77.39 69.10 77.63 69.49 79.78 Z" />
<path fill="#000000" opacity="1.00" d=" M 90.41 105.17 L 91.06 104.73 C 91.23 105.08 91.57 105.78 91.74 106.13 L 91.09 106.56 C 90.92 106.21 90.58 105.52 90.41 105.17 Z" />
<path fill="#000000" opacity="1.00" d=" M 42.85 112.09 C 43.57 110.74 44.93 109.91 46.47 109.97 C 46.03 111.58 44.44 112.39 42.85 112.09 Z" />
<path fill="#000000" opacity="1.00" d=" M 39.01 114.29 C 39.37 113.99 40.09 113.40 40.45 113.11 L 41.24 113.44 C 40.68 113.65 39.57 114.08 39.01 114.29 Z" />
<path fill="#000000" opacity="1.00" d=" M 159.37 125.22 C 161.13 125.80 161.92 127.63 162.77 129.12 C 167.16 137.69 167.98 147.53 168.31 157.00 C 168.68 169.62 172.74 182.06 171.19 194.73 C 171.01 194.02 170.67 192.60 170.49 191.89 C 170.54 188.97 170.49 186.05 170.38 183.14 C 169.64 176.94 169.54 170.58 167.72 164.58 C 167.45 161.40 167.40 158.20 166.83 155.05 C 166.83 147.06 166.05 138.88 162.67 131.54 C 161.63 129.41 160.35 127.39 159.37 125.22 Z" />
<path fill="#000000" opacity="1.00" d=" M 17.68 134.87 C 19.62 131.11 21.48 125.85 26.24 125.18 C 26.76 126.48 27.32 127.77 27.86 129.07 C 28.84 131.96 28.83 135.05 28.32 138.04 C 27.20 139.59 26.61 141.67 24.93 142.71 C 20.66 142.80 18.16 138.67 17.68 134.87 Z" />
<path fill="#000000" opacity="1.00" d=" M 14.84 130.29 C 15.44 128.37 17.53 127.00 19.54 127.34 C 18.41 128.79 17.00 130.97 14.84 130.29 Z" />
<path fill="#000000" opacity="1.00" d=" M 0.00 136.88 C 4.53 134.08 9.44 131.86 14.68 130.82 L 14.59 132.16 C 9.33 133.03 4.66 135.68 0.00 138.11 L 0.00 136.88 Z" />
<path fill="#000000" opacity="1.00" d=" M 22.66 170.42 C 23.05 170.46 23.84 170.56 24.23 170.60 C 24.15 174.42 24.13 178.24 24.19 182.06 C 27.51 183.48 30.78 185.17 33.38 187.73 C 36.79 190.98 38.59 195.43 40.87 199.46 C 38.35 200.21 34.83 199.93 33.62 202.80 C 33.49 205.26 34.49 207.60 34.96 209.98 C 31.65 208.89 28.33 207.82 25.03 206.72 C 27.97 209.70 31.70 211.64 35.26 213.78 C 29.12 214.03 22.97 213.92 16.83 213.94 C 17.36 207.80 17.70 201.65 17.62 195.49 C 18.43 196.11 20.06 197.36 20.87 197.98 C 20.25 195.11 18.78 192.53 17.74 189.81 C 16.99 185.04 17.57 180.15 18.79 175.51 C 19.42 176.27 20.68 177.79 21.31 178.55 C 21.73 175.83 22.22 173.13 22.66 170.42 Z" />
<path fill="#000000" opacity="1.00" d=" M 52.73 211.06 C 54.68 211.72 56.49 212.70 58.16 213.90 C 56.30 213.90 54.45 213.93 52.60 213.94 C 52.63 213.22 52.70 211.78 52.73 211.06 Z" />
</g>
<g id="#a94849e8">
<path fill="#a94849" opacity="0.91" d=" M 161.51 10.62 C 164.53 10.69 167.55 10.69 170.57 10.57 C 170.61 11.07 170.69 12.06 170.73 12.56 C 169.98 12.64 168.48 12.79 167.72 12.87 C 167.64 16.84 167.69 20.81 167.72 24.78 C 166.58 24.76 165.44 24.73 164.31 24.70 C 164.33 20.76 164.35 16.81 164.33 12.87 C 163.57 12.79 162.03 12.63 161.27 12.56 C 161.33 12.07 161.45 11.10 161.51 10.62 Z" />
<path fill="#a94849" opacity="0.91" d=" M 184.55 10.64 C 185.56 10.62 186.58 10.61 187.60 10.59 C 187.68 12.53 187.70 14.48 187.89 16.42 C 188.56 16.52 189.91 16.73 190.58 16.83 C 190.58 14.80 190.58 12.78 190.61 10.76 C 191.59 10.66 192.56 10.55 193.54 10.45 C 194.98 15.01 193.88 19.86 194.28 24.55 C 193.04 24.64 191.80 24.73 190.57 24.79 C 190.57 22.71 190.57 20.63 190.54 18.55 C 186.40 17.79 188.06 22.33 187.72 24.82 C 186.62 24.78 185.53 24.73 184.44 24.69 C 184.48 20.01 184.35 15.32 184.55 10.64 Z" />
<path fill="#a94849" opacity="0.91" d=" M 141.36 10.70 C 143.67 10.71 145.98 10.71 148.29 10.58 C 151.37 11.97 151.07 15.31 149.66 17.82 C 150.53 19.95 151.76 22.97 149.26 24.53 C 146.63 25.09 143.92 24.72 141.26 24.73 C 141.31 20.06 141.16 15.38 141.36 10.70 M 144.68 12.47 C 144.63 13.87 144.58 15.27 144.54 16.66 C 145.17 16.68 146.43 16.71 147.06 16.72 C 147.18 15.66 147.53 14.58 147.33 13.51 C 146.66 12.78 145.55 12.81 144.68 12.47 M 144.64 18.47 C 144.64 20.05 144.66 21.63 144.71 23.22 C 148.47 23.62 148.40 18.05 144.64 18.47 Z" />
<path fill="#a94849" opacity="0.91" d=" M 155.21 24.95 C 155.43 20.20 154.66 15.34 155.62 10.66 C 156.32 10.63 157.73 10.57 158.43 10.54 C 158.55 15.20 158.40 19.86 158.61 24.52 C 157.48 24.67 156.34 24.81 155.21 24.95 Z" />
<path fill="#a94849" opacity="0.91" d=" M 172.32 13.01 C 173.83 8.99 182.66 9.61 181.57 14.69 C 179.77 13.55 177.93 12.25 175.67 12.70 C 175.47 15.98 175.50 19.27 175.50 22.56 C 177.75 23.33 179.85 22.38 181.74 21.18 C 182.06 26.37 175.88 25.33 172.66 24.28 C 172.06 20.56 172.03 16.76 172.32 13.01 Z" />
<path fill="#a94849" opacity="0.91" d=" M 196.68 21.62 C 197.62 21.60 199.48 21.57 200.41 21.55 C 200.64 24.33 200.24 28.16 196.61 28.18 C 198.10 26.00 196.72 23.89 196.68 21.62 Z" />
<path fill="#a94849" opacity="0.91" d=" M 156.54 32.83 C 158.88 32.44 162.40 32.69 163.07 35.52 C 163.25 38.64 163.41 41.83 162.96 44.92 C 161.67 47.90 157.58 47.68 155.05 46.64 C 152.74 45.76 153.79 42.81 153.47 40.94 C 153.56 38.02 152.59 33.59 156.54 32.83 M 157.36 35.47 C 156.52 38.34 157.19 41.53 157.32 44.51 C 157.79 44.78 158.75 45.31 159.23 45.58 C 159.90 41.99 159.81 38.31 159.35 34.69 C 158.85 34.89 157.86 35.28 157.36 35.47 Z" />
<path fill="#a94849" opacity="0.91" d=" M 176.67 34.99 C 178.54 31.28 185.27 32.23 184.76 36.80 C 183.29 36.15 181.94 34.90 180.22 35.19 C 179.90 38.89 185.36 40.18 184.71 43.99 C 184.62 48.56 175.58 48.51 176.53 43.37 C 178.25 44.17 180.07 45.91 181.91 44.28 C 180.03 41.33 175.62 39.00 176.67 34.99 Z" />
<path fill="#a94849" opacity="0.91" d=" M 193.60 32.76 C 194.59 32.74 195.58 32.71 196.57 32.69 C 197.02 36.84 196.49 41.04 197.22 45.17 C 196.98 45.75 196.50 46.90 196.25 47.47 C 195.55 47.28 194.13 46.90 193.42 46.71 C 193.51 42.06 193.32 37.40 193.60 32.76 Z" />
<path fill="#a94849" opacity="0.91" d=" M 141.41 33.35 C 143.87 32.24 147.72 32.28 150.10 33.96 C 151.26 37.61 150.75 41.72 150.41 45.49 C 148.43 48.25 144.37 46.87 141.48 47.35 C 141.18 42.69 141.10 38.00 141.41 33.35 M 144.73 34.59 C 144.55 38.25 144.53 41.93 144.72 45.59 C 145.36 45.28 146.64 44.65 147.27 44.34 C 147.57 41.40 147.36 38.45 147.36 35.50 C 146.70 35.27 145.39 34.82 144.73 34.59 Z" />
<path fill="#a94849" opacity="0.91" d=" M 165.66 33.50 C 168.11 32.51 170.79 32.56 173.37 32.82 L 174.06 34.69 C 172.53 34.72 171.00 34.75 169.47 34.76 C 169.39 36.03 169.32 37.30 169.24 38.57 C 170.53 38.94 171.82 39.33 173.10 39.74 C 171.86 40.42 170.59 41.04 169.36 41.72 C 169.36 42.59 169.36 44.32 169.36 45.19 C 170.94 45.23 172.52 45.28 174.10 45.34 C 173.53 48.97 168.92 46.60 166.44 47.37 C 165.03 42.89 166.24 38.10 165.66 33.50 Z" />
<path fill="#a94849" opacity="0.91" d=" M 200.20 32.73 C 203.45 32.78 206.69 32.75 209.94 32.64 C 210.40 35.14 207.81 34.79 206.30 35.35 C 206.27 38.99 206.46 42.63 206.27 46.27 C 205.51 48.15 203.91 46.95 202.59 46.52 C 202.70 42.67 202.97 38.79 202.50 34.96 C 201.92 34.87 200.75 34.69 200.16 34.60 L 200.20 32.73 Z" />
<path fill="#a94849" opacity="0.91" d=" M 176.56 55.34 C 177.46 55.20 178.36 54.75 179.28 54.89 C 180.43 56.35 180.76 58.07 180.28 60.07 C 182.45 57.95 184.20 54.20 187.85 55.40 C 185.84 57.74 183.71 59.97 181.59 62.22 C 183.50 64.43 185.51 66.54 187.62 68.55 C 183.99 71.91 182.73 65.02 179.46 65.13 C 179.70 65.88 180.17 67.36 180.40 68.11 C 180.19 68.46 179.76 69.17 179.54 69.52 C 178.56 69.44 177.58 69.36 176.60 69.28 C 176.55 64.63 176.60 59.99 176.56 55.34 Z" />
<path fill="#a94849" opacity="0.91" d=" M 140.71 55.56 C 142.02 55.45 143.32 55.35 144.64 55.26 C 144.61 59.28 144.49 63.30 144.62 67.32 C 146.17 67.37 147.73 67.41 149.29 67.46 C 149.28 67.95 149.26 68.94 149.25 69.43 C 146.63 69.43 144.01 69.41 141.38 69.38 C 141.25 64.77 141.41 60.14 140.71 55.56 Z" />
<path fill="#a94849" opacity="0.91" d=" M 152.03 57.70 C 152.92 54.20 157.29 55.28 159.92 55.52 C 162.22 56.84 161.41 59.79 161.61 61.97 C 161.38 64.45 162.44 67.99 159.50 69.23 C 157.65 69.48 155.78 69.36 153.93 69.40 C 150.72 66.39 151.86 61.61 152.03 57.70 M 155.54 57.23 C 155.97 60.72 153.85 65.42 157.05 67.96 C 158.81 65.26 158.25 61.91 158.15 58.87 C 158.43 57.17 156.63 57.34 155.54 57.23 Z" />
<path fill="#a94849" opacity="0.91" d=" M 164.76 56.55 C 166.67 54.32 170.56 55.14 173.03 55.92 C 174.62 59.82 173.68 64.29 173.47 68.39 C 170.77 69.32 166.53 70.58 164.67 67.63 C 164.20 64.00 164.02 60.14 164.76 56.55 M 168.71 56.35 C 167.22 59.35 167.62 62.77 167.78 65.99 C 167.76 67.72 170.51 68.13 170.36 66.03 C 170.24 62.84 171.78 58.57 168.71 56.35 Z" />
<path fill="#a94849" opacity="0.91" d=" M 45.06 63.87 C 45.50 64.67 45.91 65.48 46.30 66.30 C 45.66 66.68 44.36 67.44 43.71 67.81 C 43.37 69.93 43.00 72.04 42.62 74.14 C 44.25 72.58 46.00 71.12 48.07 70.16 C 47.14 71.47 46.18 72.75 45.21 74.02 C 45.90 74.70 47.29 76.04 47.98 76.71 C 48.47 76.03 48.95 75.36 49.43 74.67 C 49.21 73.76 48.76 71.92 48.53 71.00 L 48.97 72.08 C 49.55 73.65 50.03 75.25 50.55 76.84 C 49.97 76.93 48.80 77.12 48.22 77.22 L 48.68 78.81 C 47.16 77.39 45.49 76.14 43.81 74.91 C 44.72 77.17 45.92 79.31 46.73 81.61 C 46.40 81.99 45.73 82.74 45.40 83.12 C 40.71 78.72 42.78 71.87 42.27 66.22 L 43.33 66.06 C 44.87 66.01 45.44 65.28 45.06 63.87 Z" />
<path fill="#a94849" opacity="0.91" d=" M 175.28 77.47 C 178.19 77.58 181.47 75.86 183.98 78.02 C 182.63 79.74 180.38 79.30 178.47 79.40 C 178.50 80.39 178.56 82.36 178.59 83.34 C 179.36 83.37 180.90 83.43 181.67 83.46 C 181.61 83.93 181.50 84.89 181.45 85.36 C 180.72 85.40 179.26 85.46 178.53 85.50 C 178.54 86.52 178.56 88.56 178.57 89.59 C 180.15 89.59 181.73 89.61 183.31 89.62 C 183.33 90.10 183.35 91.05 183.37 91.52 C 180.68 91.59 178.00 91.57 175.32 91.54 C 175.26 86.85 175.29 82.16 175.28 77.47 Z" />
<path fill="#a94849" opacity="0.91" d=" M 141.29 77.31 C 142.39 77.35 143.50 77.40 144.61 77.45 C 144.54 81.48 144.52 85.52 144.63 89.55 C 146.17 89.57 147.71 89.58 149.25 89.60 C 149.27 90.08 149.30 91.05 149.32 91.54 C 146.64 91.60 143.96 91.57 141.28 91.53 C 141.24 86.79 141.27 82.05 141.29 77.31 Z" />
<path fill="#a94849" opacity="0.91" d=" M 161.35 77.36 C 162.45 77.37 163.54 77.38 164.64 77.39 C 164.67 78.90 164.72 80.41 164.78 81.92 C 167.39 80.49 168.62 76.79 172.09 77.13 C 170.82 79.98 168.41 82.03 166.33 84.25 C 168.20 86.81 170.96 88.77 172.08 91.82 C 168.64 92.16 167.05 88.77 164.81 86.87 C 164.75 88.04 164.65 90.39 164.59 91.56 C 163.52 91.56 162.46 91.56 161.39 91.56 C 161.33 86.83 161.33 82.09 161.35 77.36 Z" />
<path fill="#a94849" opacity="0.91" d=" M 153.53 77.55 C 154.35 77.48 155.98 77.33 156.80 77.25 C 156.74 81.98 156.96 86.72 156.67 91.44 C 155.87 91.47 154.26 91.53 153.46 91.57 C 153.56 86.90 153.41 82.22 153.53 77.55 Z" />
<path fill="#a94849" opacity="0.91" d=" M 192.19 77.26 C 192.99 77.34 194.59 77.48 195.39 77.55 C 195.63 82.25 195.44 86.95 195.47 91.64 C 194.68 91.59 193.11 91.49 192.33 91.44 C 192.03 86.72 192.27 81.99 192.19 77.26 Z" />
<path fill="#a94849" opacity="0.91" d=" M 165.76 99.64 C 168.34 99.56 170.92 99.55 173.49 99.59 C 174.17 100.18 174.85 100.78 175.53 101.38 C 174.41 105.42 175.68 109.44 175.47 113.53 C 174.41 113.58 173.34 113.64 172.28 113.69 C 172.02 111.37 173.12 106.98 169.33 107.29 C 169.30 109.34 169.32 111.40 169.33 113.46 C 168.27 113.56 167.22 113.66 166.17 113.76 C 165.45 109.08 165.94 104.34 165.76 99.64 M 169.38 101.14 C 169.36 102.71 169.36 104.29 169.38 105.87 C 170.73 105.57 172.51 104.87 172.17 103.14 C 172.08 101.65 170.47 101.53 169.38 101.14 Z" />
<path fill="#a94849" opacity="0.91" d=" M 178.34 99.56 C 181.17 99.97 185.17 98.09 186.93 101.15 C 185.10 101.38 183.27 101.55 181.44 101.71 C 181.48 102.67 181.57 104.59 181.61 105.56 C 182.35 105.57 183.83 105.61 184.57 105.62 C 184.60 106.10 184.66 107.04 184.69 107.52 C 183.92 107.56 182.37 107.65 181.59 107.69 C 181.57 108.67 181.51 110.64 181.49 111.62 C 183.08 111.66 184.67 111.69 186.27 111.73 C 186.29 112.19 186.33 113.11 186.35 113.57 C 183.67 113.68 180.99 113.66 178.32 113.59 C 178.27 108.91 178.24 104.24 178.34 99.56 Z" />
<path fill="#a94849" opacity="0.91" d=" M 190.63 99.47 C 192.64 99.51 194.64 99.52 196.65 99.51 C 198.07 100.72 199.10 102.41 198.42 104.34 C 197.54 105.05 196.63 105.70 195.68 106.31 C 195.01 108.67 195.21 111.10 195.55 113.48 C 194.46 113.56 193.37 113.63 192.29 113.71 C 192.38 111.14 192.23 108.56 192.37 105.99 C 193.47 104.61 194.89 103.47 195.56 101.78 C 193.15 101.00 190.95 102.14 188.80 103.07 C 189.21 101.77 189.86 100.59 190.63 99.47 Z" />
<path fill="#a94849" opacity="0.91" d=" M 50.15 100.12 C 55.28 99.96 57.80 105.11 60.78 108.43 C 60.76 109.14 60.71 110.57 60.69 111.28 C 57.44 108.72 54.51 105.72 52.75 101.92 C 52.38 102.40 51.64 103.34 51.27 103.82 C 50.77 102.53 50.21 101.27 49.62 100.03 L 50.15 100.12 Z" />
<path fill="#a94849" opacity="0.91" d=" M 141.38 101.93 C 142.00 98.92 145.67 99.41 147.99 99.51 C 149.97 99.31 150.58 101.53 151.03 103.00 C 149.01 102.43 146.97 100.93 144.78 101.79 C 144.44 105.01 144.63 108.25 144.70 111.49 C 146.90 112.14 148.84 110.91 150.78 110.06 C 150.60 111.14 150.42 112.22 150.23 113.30 C 147.38 113.36 143.60 114.61 141.51 112.03 C 141.08 108.69 141.14 105.28 141.38 101.93 Z" />
<path fill="#a94849" opacity="0.91" d=" M 153.66 101.52 C 154.29 100.78 154.95 100.07 155.66 99.40 C 158.13 99.92 162.56 98.38 163.01 102.00 C 163.44 105.77 163.04 109.59 163.20 113.38 C 162.02 113.46 160.84 113.53 159.67 113.59 C 159.66 111.45 159.64 109.31 159.56 107.18 C 155.71 106.68 157.49 111.25 157.27 113.39 C 156.01 113.47 154.75 113.52 153.49 113.59 C 153.60 109.57 153.24 105.52 153.66 101.52 M 156.81 105.53 C 157.54 105.53 159.00 105.55 159.73 105.56 C 159.41 104.27 160.29 101.89 158.58 101.45 C 156.40 101.29 157.02 104.12 156.81 105.53 Z" />
<path fill="#a94849" opacity="0.91" d=" M 46.47 109.97 L 47.10 108.80 C 48.45 110.06 48.42 111.76 48.13 113.41 C 47.43 113.48 46.04 113.63 45.34 113.70 C 45.71 115.30 46.08 116.90 46.53 118.48 C 47.21 118.49 48.56 118.51 49.24 118.52 C 49.71 118.97 50.18 119.43 50.63 119.90 C 50.65 120.63 50.68 122.07 50.70 122.80 C 50.02 122.58 48.66 122.15 47.98 121.93 C 55.36 132.46 64.15 141.95 71.47 152.53 C 72.69 154.26 73.85 156.26 76.02 156.91 C 77.05 158.50 77.75 160.26 78.32 162.06 C 77.20 162.31 76.08 162.56 74.96 162.82 C 74.98 164.19 74.98 165.56 74.95 166.93 C 74.72 167.18 74.25 167.68 74.02 167.93 C 74.11 166.16 74.21 164.38 74.32 162.61 C 75.11 162.28 76.70 161.61 77.49 161.28 C 71.73 155.06 67.30 147.78 61.85 141.31 C 55.48 133.07 48.52 125.22 43.34 116.13 C 43.74 115.30 44.54 113.63 44.94 112.79 C 37.68 116.04 31.20 120.75 24.03 124.18 C 24.84 123.06 25.62 121.83 26.90 121.19 C 30.91 118.85 34.99 116.61 39.01 114.29 C 39.57 114.08 40.68 113.65 41.24 113.44 L 41.80 112.87 C 42.06 112.67 42.58 112.29 42.85 112.09 C 44.44 112.39 46.03 111.58 46.47 109.97 Z" />
<path fill="#a94849" opacity="0.91" d=" M 50.17 112.49 C 50.32 112.70 50.32 112.70 50.17 112.49 Z" />
<path fill="#a94849" opacity="0.91" d=" M 96.35 112.03 C 97.36 110.43 99.82 112.29 98.62 113.72 C 97.60 115.25 95.24 113.44 96.35 112.03 Z" />
<path fill="#a94849" opacity="0.91" d=" M 56.34 118.96 C 58.00 118.55 58.51 119.14 57.89 120.73 C 56.23 121.14 55.72 120.55 56.34 118.96 Z" />
<path fill="#a94849" opacity="0.91" d=" M 97.34 121.22 C 98.30 119.62 100.77 121.37 99.62 122.82 C 98.65 124.43 96.17 122.67 97.34 121.22 Z" />
<path fill="#a94849" opacity="0.91" d=" M 133.46 121.34 C 134.02 121.37 135.15 121.42 135.71 121.45 C 134.99 125.18 133.44 128.76 133.52 132.63 C 133.00 132.62 131.96 132.60 131.44 132.60 C 131.97 128.82 132.43 125.02 133.46 121.34 Z" />
<path fill="#a94849" opacity="0.91" d=" M 145.13 143.08 C 147.51 137.08 149.23 130.82 151.57 124.83 C 150.74 132.57 148.10 139.98 145.17 147.15 C 144.07 149.96 142.15 152.33 139.85 154.25 C 141.26 150.36 143.81 147.01 145.13 143.08 Z" />
<path fill="#a94849" opacity="0.91" d=" M 65.27 126.24 C 66.26 124.72 68.70 126.44 67.59 127.88 C 66.61 129.45 64.10 127.70 65.27 126.24 Z" />
<path fill="#a94849" opacity="0.91" d=" M 58.19 127.30 C 59.84 126.82 60.45 127.38 60.01 128.96 C 58.36 129.43 57.75 128.88 58.19 127.30 Z" />
<path fill="#a94849" opacity="0.91" d=" M 83.08 132.09 C 83.70 132.16 84.94 132.29 85.56 132.35 C 85.50 132.83 85.37 133.78 85.30 134.25 C 84.84 134.34 83.91 134.50 83.45 134.58 C 83.36 133.96 83.17 132.72 83.08 132.09 Z" />
<path fill="#a94849" opacity="0.91" d=" M 79.30 137.22 C 80.78 135.94 82.46 138.57 80.88 139.53 C 79.42 140.69 77.82 138.19 79.30 137.22 Z" />
<path fill="#a94849" opacity="0.91" d=" M 153.44 168.14 C 156.27 164.97 156.06 160.29 158.64 156.91 C 158.56 159.04 157.66 160.97 156.67 162.81 C 155.19 167.85 154.97 173.14 154.34 178.33 C 152.79 175.20 153.54 171.51 153.44 168.14 Z" />
<path fill="#a94849" opacity="0.91" d=" M 167.72 164.58 C 169.54 170.58 169.64 176.94 170.38 183.14 C 168.19 183.25 165.93 183.60 164.20 185.08 C 159.11 188.56 156.56 194.31 153.27 199.28 C 153.74 195.21 155.19 191.34 156.68 187.54 C 158.93 182.34 162.42 176.60 168.66 175.96 C 168.67 172.14 168.04 168.37 167.72 164.58 M 157.20 190.37 C 161.04 187.39 164.31 182.82 169.58 182.48 C 169.52 180.40 169.45 178.32 169.38 176.24 C 162.14 176.89 158.54 184.05 157.20 190.37 Z" />
<path fill="#a94849" opacity="0.91" d=" M 136.70 172.44 C 136.06 170.35 136.70 168.21 137.68 166.35 C 137.43 168.18 137.38 170.02 137.37 171.87 C 142.90 174.98 143.72 181.74 144.33 187.42 C 142.47 182.30 142.56 176.13 137.72 172.56 C 138.76 176.73 140.02 180.85 140.95 185.04 C 139.38 180.90 137.89 176.71 136.70 172.44 Z" />
<path fill="#a94849" opacity="0.91" d=" M 18.34 167.27 C 19.58 167.91 19.52 168.60 18.17 169.37 C 16.95 168.72 17.01 168.02 18.34 167.27 Z" />
<path fill="#a94849" opacity="0.91" d=" M 0.00 169.58 C 4.13 177.00 7.51 184.84 12.01 192.05 C 13.40 194.32 16.19 197.14 18.69 194.45 C 18.35 192.91 18.03 191.36 17.74 189.81 C 18.78 192.53 20.25 195.11 20.87 197.98 C 20.06 197.36 18.43 196.11 17.62 195.49 C 17.70 201.65 17.36 207.80 16.83 213.94 L 16.48 213.94 C 16.51 210.96 16.97 207.90 16.21 204.97 C 13.80 197.31 9.22 190.63 5.53 183.57 C 3.80 180.46 2.46 177.07 0.00 174.44 L 0.00 169.58 M 14.88 197.79 C 14.17 199.12 14.84 201.14 16.10 201.90 C 17.68 201.15 16.87 197.01 14.88 197.79 Z" />
<path fill="#a94849" opacity="0.91" d=" M 14.21 176.27 C 14.36 173.71 13.89 170.57 16.42 168.96 C 16.16 171.41 16.59 174.71 14.21 176.27 Z" />
<path fill="#a94849" opacity="0.91" d=" M 167.09 213.86 C 168.32 206.55 169.25 199.19 170.49 191.89 C 170.67 192.60 171.01 194.02 171.19 194.73 C 170.29 201.08 169.41 207.44 168.22 213.75 C 167.94 213.77 167.37 213.83 167.09 213.86 Z" />
</g>
<g id="#fefefeff">
<path fill="#fefefe" opacity="1.00" d=" M 144.68 12.47 C 145.55 12.81 146.66 12.78 147.33 13.51 C 147.53 14.58 147.18 15.66 147.06 16.72 C 146.43 16.71 145.17 16.68 144.54 16.66 C 144.58 15.27 144.63 13.87 144.68 12.47 Z" />
<path fill="#fefefe" opacity="1.00" d=" M 144.64 18.47 C 148.40 18.05 148.47 23.62 144.71 23.22 C 144.66 21.63 144.64 20.05 144.64 18.47 Z" />
<path fill="#fefefe" opacity="1.00" d=" M 144.73 34.59 C 145.39 34.82 146.70 35.27 147.36 35.50 C 147.36 38.45 147.57 41.40 147.27 44.34 C 146.64 44.65 145.36 45.28 144.72 45.59 C 144.53 41.93 144.55 38.25 144.73 34.59 Z" />
<path fill="#fefefe" opacity="1.00" d=" M 157.36 35.47 C 157.86 35.28 158.85 34.89 159.35 34.69 C 159.81 38.31 159.90 41.99 159.23 45.58 C 158.75 45.31 157.79 44.78 157.32 44.51 C 157.19 41.53 156.52 38.34 157.36 35.47 Z" />
<path fill="#fefefe" opacity="1.00" d=" M 168.71 56.35 C 171.78 58.57 170.24 62.84 170.36 66.03 C 170.51 68.13 167.76 67.72 167.78 65.99 C 167.62 62.77 167.22 59.35 168.71 56.35 Z" />
<path fill="#fefefe" opacity="1.00" d=" M 155.54 57.23 C 156.63 57.34 158.43 57.17 158.15 58.87 C 158.25 61.91 158.81 65.26 157.05 67.96 C 153.85 65.42 155.97 60.72 155.54 57.23 Z" />
<path fill="#fefefe" opacity="1.00" d=" M 56.82 61.54 C 58.45 62.80 60.90 63.19 61.84 65.16 C 60.21 66.52 58.71 68.01 57.21 69.50 C 61.05 68.66 65.10 65.16 68.86 67.95 C 75.79 72.08 83.55 74.27 91.15 76.78 C 90.53 77.53 89.28 79.03 88.66 79.78 C 89.62 79.77 91.54 79.75 92.50 79.74 C 92.72 78.48 92.98 77.23 93.25 75.98 C 93.30 76.88 93.38 78.66 93.42 79.55 L 94.57 79.54 C 94.49 80.06 94.32 81.12 94.24 81.65 C 95.38 81.62 97.67 81.57 98.82 81.54 C 98.77 80.73 98.68 79.11 98.63 78.30 C 98.86 78.33 99.31 78.37 99.54 78.40 L 99.05 81.73 L 100.85 79.38 C 104.69 78.37 104.74 84.83 102.05 86.10 C 102.97 85.36 104.80 83.88 105.71 83.13 C 104.70 90.76 102.05 98.07 98.29 104.76 C 97.97 104.71 97.32 104.62 96.99 104.57 C 95.06 100.48 90.33 98.80 86.17 98.33 C 84.80 98.04 82.26 99.67 82.07 97.26 C 78.22 98.10 74.72 100.36 70.58 99.71 C 67.83 101.09 66.22 103.70 65.35 106.55 C 61.27 101.61 54.83 97.93 53.77 91.11 C 53.50 89.76 53.18 88.41 52.79 87.09 C 51.66 78.42 52.07 69.15 56.82 61.54 M 63.05 73.94 C 62.07 74.56 61.09 75.17 60.10 75.76 C 61.00 77.19 61.93 78.70 63.67 79.20 C 64.43 82.52 60.89 81.18 59.20 81.41 C 59.32 81.90 59.56 82.88 59.68 83.37 C 60.32 83.41 61.60 83.49 62.24 83.53 C 63.16 85.39 64.85 86.55 66.63 87.48 C 68.89 87.47 71.17 87.66 73.41 87.36 C 76.43 86.29 77.99 83.08 81.01 81.98 C 83.65 80.50 86.46 82.16 89.05 82.88 C 89.26 82.21 89.67 80.88 89.88 80.22 C 88.15 80.79 86.55 80.27 85.11 79.31 C 85.22 78.73 85.45 77.58 85.56 77.00 C 85.19 77.82 84.82 78.63 84.46 79.45 C 83.51 79.50 81.61 79.59 80.66 79.63 C 80.53 78.22 80.06 76.91 79.44 75.65 C 78.23 75.05 77.06 74.37 75.82 73.84 C 76.87 74.95 78.03 75.97 79.20 76.98 C 79.70 78.11 80.22 79.25 80.74 80.39 C 80.13 80.49 78.91 80.69 78.30 80.78 C 76.11 78.32 74.01 73.90 70.13 74.64 L 70.76 73.47 C 68.19 73.59 65.59 73.45 63.05 73.94 Z" />
<path fill="#fefefe" opacity="1.00" d=" M 43.44 63.90 L 44.21 63.41 L 45.06 63.87 C 45.44 65.28 44.87 66.01 43.33 66.06 C 43.36 65.52 43.41 64.44 43.44 63.90 Z" />
<path fill="#fefefe" opacity="1.00" d=" M 43.71 67.81 C 44.36 67.44 45.66 66.68 46.30 66.30 C 47.07 67.86 47.86 69.40 48.53 71.00 C 48.76 71.92 49.21 73.76 49.43 74.67 C 48.95 75.36 48.47 76.03 47.98 76.71 C 47.29 76.04 45.90 74.70 45.21 74.02 C 46.18 72.75 47.14 71.47 48.07 70.16 C 46.00 71.12 44.25 72.58 42.62 74.14 C 43.00 72.04 43.37 69.93 43.71 67.81 Z" />
<path fill="#fefefe" opacity="1.00" d=" M 43.81 74.91 C 45.49 76.14 47.16 77.39 48.68 78.81 C 48.83 79.32 49.13 80.34 49.28 80.86 C 48.18 82.43 48.60 83.99 49.54 85.47 C 49.06 85.45 48.10 85.41 47.62 85.38 C 46.87 84.63 46.13 83.88 45.40 83.12 C 45.73 82.74 46.40 81.99 46.73 81.61 C 45.92 79.31 44.72 77.17 43.81 74.91 Z" />
<path fill="#fefefe" opacity="1.00" d=" M 61.73 75.68 C 63.01 75.59 64.29 75.51 65.58 75.42 C 66.68 79.62 61.65 78.76 61.73 75.68 Z" />
<path fill="#fefefe" opacity="1.00" d=" M 69.49 79.78 C 69.10 77.63 70.95 77.39 72.53 77.06 L 72.14 78.58 C 75.26 77.33 78.46 80.29 77.60 83.49 L 76.83 83.58 C 76.53 83.91 75.92 84.58 75.61 84.92 L 75.65 85.55 C 72.15 87.30 67.87 87.26 64.38 85.55 L 64.52 84.51 L 63.19 84.51 C 63.11 82.67 63.69 80.97 64.60 79.40 C 66.23 79.52 67.86 79.64 69.49 79.78 Z" />
<path fill="#fefefe" opacity="1.00" d=" M 104.96 79.48 C 106.84 79.83 108.66 80.37 110.51 80.84 C 109.77 83.03 109.05 85.23 108.29 87.42 C 108.16 87.70 107.90 88.25 107.77 88.53 C 107.37 86.36 107.38 84.14 107.61 81.95 C 106.73 81.13 105.84 80.30 104.96 79.48 Z" />
<path fill="#fefefe" opacity="1.00" d=" M 156.81 105.53 C 157.02 104.12 156.40 101.29 158.58 101.45 C 160.29 101.89 159.41 104.27 159.73 105.56 C 159.00 105.55 157.54 105.53 156.81 105.53 Z" />
<path fill="#fefefe" opacity="1.00" d=" M 169.38 101.14 C 170.47 101.53 172.08 101.65 172.17 103.14 C 172.51 104.87 170.73 105.57 169.38 105.87 C 169.36 104.29 169.36 102.71 169.38 101.14 Z" />
<path fill="#fefefe" opacity="1.00" d=" M 75.70 102.63 C 77.75 102.80 80.14 102.12 81.87 103.57 C 84.12 103.69 86.28 103.05 88.40 102.38 L 88.45 103.33 C 90.67 103.43 93.21 103.97 94.51 105.96 C 93.73 111.14 90.50 116.67 85.07 117.93 C 78.25 120.04 69.48 115.26 68.65 107.94 C 68.87 104.67 71.98 103.78 74.73 104.59 L 74.32 103.25 L 75.68 103.74 L 75.70 102.63 M 90.41 105.17 C 90.58 105.52 90.92 106.21 91.09 106.56 L 91.74 106.13 C 91.57 105.78 91.23 105.08 91.06 104.73 L 90.41 105.17 Z" />
<path fill="#fefefe" opacity="1.00" d=" M 51.27 103.82 C 51.64 103.34 52.38 102.40 52.75 101.92 C 54.51 105.72 57.44 108.72 60.69 111.28 C 60.71 110.57 60.76 109.14 60.78 108.43 C 61.02 109.10 61.49 110.46 61.72 111.13 C 64.21 113.05 66.27 115.42 68.30 117.80 C 70.92 120.88 74.95 121.95 78.51 123.55 C 79.01 125.83 79.49 128.11 79.78 130.43 C 75.19 128.61 71.47 125.30 67.46 122.53 C 62.34 118.66 56.91 115.07 52.55 110.32 C 50.77 108.63 51.32 106.00 51.27 103.82 Z" />
<path fill="#fefefe" opacity="1.00" d=" M 24.03 124.18 C 31.20 120.75 37.68 116.04 44.94 112.79 C 44.54 113.63 43.74 115.30 43.34 116.13 C 48.52 125.22 55.48 133.07 61.85 141.31 C 67.30 147.78 71.73 155.06 77.49 161.28 C 76.70 161.61 75.11 162.28 74.32 162.61 C 74.21 164.38 74.11 166.16 74.02 167.93 C 73.56 168.38 72.65 169.27 72.19 169.71 C 70.74 168.98 69.29 168.27 67.84 167.55 C 65.84 168.50 63.87 169.49 61.94 170.56 C 59.04 168.45 55.79 165.90 51.95 166.60 C 44.86 168.04 40.21 176.14 42.89 182.97 C 46.62 191.71 54.34 197.78 61.31 203.88 C 64.22 206.56 67.41 209.68 67.64 213.89 C 64.48 213.92 61.32 213.95 58.16 213.90 C 56.49 212.70 54.68 211.72 52.73 211.06 C 52.70 211.78 52.63 213.22 52.60 213.94 C 46.82 213.91 41.04 214.05 35.26 213.78 C 31.70 211.64 27.97 209.70 25.03 206.72 C 28.33 207.82 31.65 208.89 34.96 209.98 C 34.49 207.60 33.49 205.26 33.62 202.80 C 34.83 199.93 38.35 200.21 40.87 199.46 C 38.59 195.43 36.79 190.98 33.38 187.73 C 30.78 185.17 27.51 183.48 24.19 182.06 C 24.13 178.24 24.15 174.42 24.23 170.60 C 23.84 170.56 23.05 170.46 22.66 170.42 C 22.22 173.13 21.73 175.83 21.31 178.55 C 20.68 177.79 19.42 176.27 18.79 175.51 C 17.57 180.15 16.99 185.04 17.74 189.81 C 18.03 191.36 18.35 192.91 18.69 194.45 C 16.19 197.14 13.40 194.32 12.01 192.05 C 7.51 184.84 4.13 177.00 0.00 169.58 L 0.00 138.11 C 4.66 135.68 9.33 133.03 14.59 132.16 L 14.68 130.82 C 14.72 130.68 14.80 130.42 14.84 130.29 C 17.00 130.97 18.41 128.79 19.54 127.34 C 20.47 126.55 21.45 125.82 22.43 125.10 L 22.58 124.37 C 22.90 124.38 23.53 124.39 23.85 124.39 L 24.03 124.18 M 17.68 134.87 C 18.16 138.67 20.66 142.80 24.93 142.71 C 26.61 141.67 27.20 139.59 28.32 138.04 C 28.83 135.05 28.84 131.96 27.86 129.07 C 27.32 127.77 26.76 126.48 26.24 125.18 C 21.48 125.85 19.62 131.11 17.68 134.87 M 18.34 167.27 C 17.01 168.02 16.95 168.72 18.17 169.37 C 19.52 168.60 19.58 167.91 18.34 167.27 M 14.21 176.27 C 16.59 174.71 16.16 171.41 16.42 168.96 C 13.89 170.57 14.36 173.71 14.21 176.27 Z" />
<path fill="#fefefe" opacity="1.00" d=" M 45.34 113.70 C 46.04 113.63 47.43 113.48 48.13 113.41 C 47.54 115.27 48.11 117.02 49.24 118.52 C 48.56 118.51 47.21 118.49 46.53 118.48 C 46.08 116.90 45.71 115.30 45.34 113.70 Z" />
<path fill="#fefefe" opacity="1.00" d=" M 128.56 136.98 C 128.42 129.49 127.16 121.50 130.61 114.51 C 132.05 114.60 133.49 114.69 134.93 114.80 C 139.09 116.07 143.48 116.10 147.73 116.87 C 152.32 118.46 155.33 122.51 158.96 125.50 L 159.37 125.22 C 160.35 127.39 161.63 129.41 162.67 131.54 C 166.05 138.88 166.83 147.06 166.83 155.05 C 167.40 158.20 167.45 161.40 167.72 164.58 C 168.04 168.37 168.67 172.14 168.66 175.96 C 162.42 176.60 158.93 182.34 156.68 187.54 C 155.19 191.34 153.74 195.21 153.27 199.28 C 156.56 194.31 159.11 188.56 164.20 185.08 C 165.93 183.60 168.19 183.25 170.38 183.14 C 170.49 186.05 170.54 188.97 170.49 191.89 C 169.25 199.19 168.32 206.55 167.09 213.86 C 158.63 214.04 150.16 213.90 141.70 213.91 C 141.35 208.21 141.70 202.48 143.22 196.96 C 143.39 194.64 143.54 192.32 143.68 190.00 C 142.65 188.41 141.61 186.82 140.95 185.04 C 140.02 180.85 138.76 176.73 137.72 172.56 C 142.56 176.13 142.47 182.30 144.33 187.42 C 143.72 181.74 142.90 174.98 137.37 171.87 C 137.38 170.02 137.43 168.18 137.68 166.35 C 137.96 165.80 138.51 164.70 138.79 164.15 C 137.42 162.29 136.65 160.12 136.40 157.83 C 134.38 155.23 133.41 152.04 133.31 148.76 C 131.23 145.08 128.44 141.42 128.56 136.98 M 133.46 121.34 C 132.43 125.02 131.97 128.82 131.44 132.60 C 131.96 132.60 133.00 132.62 133.52 132.63 C 133.44 128.76 134.99 125.18 135.71 121.45 C 135.15 121.42 134.02 121.37 133.46 121.34 M 145.13 143.08 C 143.81 147.01 141.26 150.36 139.85 154.25 C 142.15 152.33 144.07 149.96 145.17 147.15 C 148.10 139.98 150.74 132.57 151.57 124.83 C 149.23 130.82 147.51 137.08 145.13 143.08 M 153.44 168.14 C 153.54 171.51 152.79 175.20 154.34 178.33 C 154.97 173.14 155.19 167.85 156.67 162.81 C 157.66 160.97 158.56 159.04 158.64 156.91 C 156.06 160.29 156.27 164.97 153.44 168.14 Z" />
<path fill="#fefefe" opacity="1.00" d=" M 50.63 119.90 C 51.73 122.35 53.09 124.74 55.54 126.06 C 55.54 126.63 55.53 127.78 55.53 128.36 C 63.18 136.08 70.71 143.93 78.76 151.23 C 79.76 152.42 80.22 153.94 80.91 155.31 C 82.26 155.58 83.53 156.10 84.79 156.65 C 84.59 157.03 84.18 157.81 83.98 158.19 C 83.27 157.44 82.57 156.70 81.87 155.95 C 81.46 156.61 80.64 157.94 80.23 158.60 C 79.04 157.50 77.94 156.30 76.80 155.16 C 76.60 155.59 76.22 156.47 76.02 156.91 C 73.85 156.26 72.69 154.26 71.47 152.53 C 64.15 141.95 55.36 132.46 47.98 121.93 C 48.66 122.15 50.02 122.58 50.70 122.80 C 50.68 122.07 50.65 120.63 50.63 119.90 Z" />
<path fill="#fefefe" opacity="1.00" d=" M 83.96 122.82 C 85.51 122.21 87.08 121.62 88.76 121.44 C 86.15 123.97 83.92 126.86 81.19 129.27 C 81.31 128.13 81.44 127.00 81.60 125.87 C 82.44 124.89 83.21 123.87 83.96 122.82 Z" />
<path fill="#fefefe" opacity="1.00" d=" M 79.44 123.36 C 81.13 121.90 82.25 125.50 80.14 125.54 L 79.38 125.15 C 79.39 124.70 79.42 123.81 79.44 123.36 Z" />
<path fill="#fefefe" opacity="1.00" d=" M 92.61 134.64 C 94.93 132.12 96.81 129.20 99.43 126.96 C 99.55 129.12 99.93 131.36 99.32 133.47 C 98.28 135.73 96.70 137.67 95.23 139.66 C 94.51 139.29 93.06 138.55 92.34 138.18 C 92.41 137.29 92.54 135.52 92.61 134.64 Z" />
<path fill="#fefefe" opacity="1.00" d=" M 74.90 134.94 C 76.37 133.47 78.07 132.26 79.72 131.00 C 78.24 132.66 76.80 134.34 75.39 136.05 C 76.82 137.73 77.41 139.86 77.49 142.03 C 74.36 139.24 71.84 135.69 67.87 133.99 C 67.67 133.55 67.27 132.69 67.07 132.25 C 69.84 132.61 72.42 133.70 74.90 134.94 Z" />
<path fill="#fefefe" opacity="1.00" d=" M 121.75 132.03 C 121.99 132.79 122.22 133.55 122.45 134.31 C 123.61 135.43 124.58 136.79 124.71 138.46 L 125.32 138.48 C 126.28 140.51 127.27 142.54 127.85 144.73 C 127.35 144.63 126.35 144.45 125.84 144.35 C 123.33 142.22 123.74 139.10 123.40 136.18 C 122.15 135.11 121.55 133.67 121.75 132.03 Z" />
<path fill="#fefefe" opacity="1.00" d=" M 108.92 133.32 C 111.85 133.25 112.86 136.79 114.85 138.42 C 117.98 142.38 124.58 145.07 123.37 151.11 C 121.55 156.46 117.22 160.52 112.88 163.91 C 111.10 163.39 110.74 161.09 109.32 160.05 C 110.10 155.68 111.16 151.30 110.33 146.84 L 109.81 146.12 C 109.41 143.98 108.63 141.94 107.60 140.03 C 107.63 139.27 107.70 137.76 107.74 137.00 C 108.16 135.78 108.55 134.55 108.92 133.32 Z" />
<path fill="#fefefe" opacity="1.00" d=" M 86.63 169.60 C 88.22 169.42 89.83 169.43 91.42 169.61 C 91.47 170.78 91.51 171.95 91.52 173.13 C 90.64 173.63 89.76 174.14 88.89 174.65 C 86.86 173.65 85.85 171.82 86.63 169.60 Z" />
<path fill="#fefefe" opacity="1.00" d=" M 64.80 181.69 C 67.88 176.84 73.49 174.34 78.63 172.26 C 78.51 173.49 78.68 174.82 78.03 175.93 C 75.62 180.68 72.46 184.98 69.30 189.25 C 68.40 190.98 66.35 190.30 64.79 190.42 C 63.70 187.65 63.05 184.36 64.80 181.69 Z" />
<path fill="#fefefe" opacity="1.00" d=" M 0.00 174.44 C 2.46 177.07 3.80 180.46 5.53 183.57 C 9.22 190.63 13.80 197.31 16.21 204.97 C 16.97 207.90 16.51 210.96 16.48 213.94 C 10.99 213.93 5.49 213.96 0.00 213.91 L 0.00 174.44 Z" />
<path fill="#fefefe" opacity="1.00" d=" M 157.20 190.37 C 158.54 184.05 162.14 176.89 169.38 176.24 C 169.45 178.32 169.52 180.40 169.58 182.48 C 164.31 182.82 161.04 187.39 157.20 190.37 Z" />
<path fill="#fefefe" opacity="1.00" d=" M 90.66 193.73 C 92.46 192.91 93.85 194.52 94.60 195.98 C 93.94 197.47 92.46 199.32 90.66 198.30 C 88.62 197.52 88.92 194.66 90.66 193.73 Z" />
<path fill="#fefefe" opacity="1.00" d=" M 14.88 197.79 C 16.87 197.01 17.68 201.15 16.10 201.90 C 14.84 201.14 14.17 199.12 14.88 197.79 Z" />
</g>
</svg>
