<?xml version="1.0" encoding="UTF-8" ?>
<!DOCTYPE svg PUBLIC "-//W3C//DTD SVG 1.1//EN" "http://www.w3.org/Graphics/SVG/1.1/DTD/svg11.dtd">
<svg width="210pt" height="220pt" viewBox="0 0 210 220" version="1.1" xmlns="http://www.w3.org/2000/svg">
<g id="#a02f2fed">
<path fill="#a02f2f" opacity="0.93" d=" M 77.72 38.62 C 78.48 38.67 80.36 38.25 79.83 39.81 C 79.92 42.21 80.00 44.63 79.82 47.04 C 79.06 49.68 76.18 50.16 73.81 49.97 C 69.87 47.43 71.82 42.45 71.41 38.60 C 72.15 38.63 73.64 38.69 74.38 38.72 C 74.84 41.64 73.07 45.58 75.91 47.60 C 76.50 47.09 77.11 46.58 77.71 46.07 C 77.67 43.58 77.69 41.10 77.72 38.62 Z" />
<path fill="#a02f2f" opacity="0.93" d=" M 113.95 41.96 C 114.01 39.77 114.16 37.01 117.19 37.99 C 117.01 41.92 117.88 45.98 116.66 49.79 C 112.97 49.89 112.65 45.29 110.43 43.21 C 110.38 45.27 110.41 47.34 110.30 49.40 C 109.64 49.50 108.32 49.71 107.67 49.81 C 107.76 46.10 107.77 42.39 107.72 38.68 C 108.49 38.67 110.04 38.64 110.82 38.63 C 111.74 39.80 112.07 42.00 113.95 41.96 Z" />
<path fill="#a02f2f" opacity="0.93" d=" M 118.70 38.03 C 119.21 38.03 120.21 38.05 120.71 38.06 C 121.09 39.83 121.25 41.77 120.09 43.32 C 118.27 42.12 118.97 39.82 118.70 38.03 Z" />
<path fill="#a02f2f" opacity="0.93" d=" M 133.59 41.87 C 134.62 37.54 141.40 37.00 143.02 41.18 C 141.00 41.25 138.98 41.24 136.96 41.30 C 138.58 43.14 142.18 42.43 142.80 45.12 C 143.62 47.34 141.55 49.11 139.89 50.16 C 137.26 50.37 134.53 49.30 133.25 46.89 C 135.99 46.15 134.68 43.46 133.59 41.87 Z" />
<path fill="#a02f2f" opacity="0.93" d=" M 49.22 38.78 C 50.22 38.76 52.20 38.73 53.19 38.72 C 53.35 39.41 53.66 40.81 53.82 41.50 C 54.20 41.57 54.96 41.70 55.34 41.77 C 55.81 40.24 57.87 36.49 59.29 39.45 C 57.08 42.32 55.77 45.67 56.30 49.34 C 55.58 49.38 54.13 49.47 53.41 49.52 C 53.84 45.39 51.33 42.04 49.22 38.78 Z" />
<path fill="#a02f2f" opacity="0.93" d=" M 60.22 46.59 C 58.66 43.65 60.30 40.31 62.85 38.61 C 64.21 38.66 65.57 38.69 66.93 38.71 C 69.25 40.45 70.83 42.88 70.19 45.89 C 68.85 47.20 67.50 48.51 66.15 49.82 C 63.84 49.67 61.03 49.12 60.22 46.59 M 63.89 40.89 C 63.58 42.75 62.24 45.75 64.52 46.86 C 67.36 46.54 67.05 40.78 63.89 40.89 Z" />
<path fill="#a02f2f" opacity="0.93" d=" M 85.20 38.78 C 87.46 38.62 89.72 38.64 91.98 38.64 C 93.25 39.74 94.75 40.81 95.01 42.63 C 96.41 39.12 101.20 37.63 104.31 39.68 C 107.05 41.49 106.03 45.11 105.78 47.82 C 105.32 48.20 104.40 48.97 103.94 49.36 C 102.32 49.37 100.71 49.36 99.10 49.39 C 97.85 48.10 96.63 46.72 96.10 44.94 C 94.86 46.45 95.16 49.28 92.92 49.83 C 90.60 50.53 87.19 51.92 85.33 49.72 C 84.63 46.13 85.44 42.42 85.20 38.78 M 88.74 41.03 C 88.72 42.94 88.71 44.86 88.71 46.77 C 92.88 48.10 92.82 40.01 88.74 41.03 M 100.24 41.11 C 99.72 42.97 99.49 44.92 100.26 46.75 C 100.83 46.73 101.97 46.68 102.54 46.65 C 102.90 44.89 102.91 43.11 102.62 41.34 C 102.03 41.28 100.84 41.17 100.24 41.11 Z" />
<path fill="#a02f2f" opacity="0.93" d=" M 121.88 38.87 C 124.36 38.53 126.88 38.66 129.37 38.64 C 129.75 40.32 129.04 41.29 127.23 41.54 C 127.26 44.20 127.28 46.86 127.27 49.52 C 126.27 49.55 125.28 49.58 124.29 49.61 C 124.20 46.99 124.20 44.37 124.32 41.75 C 123.38 40.91 120.58 40.71 121.88 38.87 Z" />
<path fill="#a02f2f" opacity="0.93" d=" M 146.80 38.56 C 147.67 38.55 149.41 38.53 150.28 38.52 C 151.36 42.26 152.85 45.88 153.69 49.70 C 152.05 49.59 150.11 49.82 149.89 47.70 C 148.85 47.59 147.82 47.52 146.79 47.48 C 146.37 49.19 145.22 49.93 143.35 49.73 C 144.32 45.95 145.76 42.32 146.80 38.56 M 148.16 42.29 C 146.81 42.57 146.79 45.06 148.14 45.39 C 149.73 45.26 149.71 42.46 148.16 42.29 Z" />
<path fill="#a02f2f" opacity="0.93" d=" M 153.81 38.58 C 154.65 38.57 156.33 38.56 157.17 38.55 C 157.86 39.30 158.10 42.65 159.64 41.56 C 160.51 39.71 161.37 37.86 163.91 38.25 C 162.37 41.93 159.63 45.25 160.53 49.54 C 159.74 49.54 158.15 49.55 157.35 49.55 C 158.20 45.33 155.24 42.19 153.81 38.58 Z" />
<path fill="#a02f2f" opacity="0.93" d=" M 163.69 42.23 C 164.59 40.86 165.21 38.87 167.05 38.51 C 169.44 37.72 172.37 39.57 172.33 42.16 C 171.63 43.53 170.41 44.49 169.29 45.49 C 169.47 46.88 169.61 48.27 169.71 49.67 C 168.66 49.58 167.61 49.48 166.57 49.38 C 166.64 47.87 166.78 46.36 166.98 44.86 C 167.62 43.22 169.35 41.95 168.63 39.99 C 166.93 40.95 166.04 43.11 163.69 42.23 Z" />
<path fill="#a02f2f" opacity="0.93" d=" M 82.89 82.69 C 83.77 80.29 84.50 77.84 85.67 75.57 C 85.43 76.15 84.94 77.30 84.70 77.88 C 84.97 78.17 85.52 78.74 85.80 79.03 C 84.67 81.26 83.57 83.51 82.67 85.86 L 84.58 84.49 C 84.37 84.89 83.96 85.69 83.76 86.09 C 85.71 86.30 88.12 85.19 89.74 86.67 C 86.67 86.71 83.51 86.71 80.67 88.06 C 82.57 86.90 82.64 84.64 82.89 82.69 Z" />
<path fill="#a02f2f" opacity="0.93" d=" M 73.22 106.04 C 76.77 100.75 77.60 94.29 80.02 88.49 C 80.07 89.12 80.17 90.38 80.22 91.00 C 78.37 97.29 76.17 103.58 72.80 109.23 C 70.75 112.53 71.81 116.79 69.61 119.99 C 69.10 127.78 70.25 135.49 70.79 143.24 C 71.80 149.88 70.76 156.60 71.38 163.26 C 70.58 161.63 70.13 159.82 70.20 158.00 C 70.25 149.91 70.88 141.79 69.70 133.76 C 66.89 134.00 64.11 134.53 61.52 135.68 C 58.02 135.65 54.70 136.79 51.27 137.32 C 52.35 136.68 53.40 136.01 54.46 135.36 C 56.15 136.55 58.01 135.15 59.73 134.80 C 62.82 134.00 66.04 133.76 69.16 133.09 C 69.72 124.06 68.25 114.12 73.22 106.04 Z" />
<path fill="#a02f2f" opacity="0.93" d=" M 112.46 102.66 C 117.96 100.88 121.60 106.83 123.63 111.01 C 122.56 113.83 118.49 113.57 115.98 113.47 C 112.65 112.59 109.14 110.97 107.22 107.96 C 107.01 105.10 110.20 103.56 112.46 102.66 M 108.45 106.47 C 107.54 108.10 109.55 108.92 110.47 109.83 C 110.76 109.33 111.33 108.32 111.61 107.82 C 111.89 109.10 112.20 110.38 112.56 111.65 C 113.34 111.61 114.91 111.54 115.69 111.51 L 114.91 112.60 C 116.63 112.60 118.34 112.51 120.05 112.34 C 120.72 112.06 122.07 111.50 122.74 111.21 C 121.03 108.23 118.91 105.49 116.17 103.38 C 113.17 102.96 110.56 104.52 108.45 106.47 Z" />
<path fill="#a02f2f" opacity="0.93" d=" M 170.62 122.70 C 170.63 122.62 170.66 122.46 170.68 122.38 L 170.68 122.55 L 170.62 122.70 Z" />
<path fill="#a02f2f" opacity="0.93" d=" M 0.00 170.39 L 0.78 170.03 C 0.59 170.57 0.20 171.67 0.00 172.22 L 0.00 170.39 Z" />
</g>
<g id="#000000ff">
<path fill="#000000" opacity="1.00" d=" M 104.55 59.88 C 113.70 58.66 123.05 59.26 132.06 61.19 C 136.75 62.14 141.03 64.45 144.85 67.27 C 154.40 75.41 162.67 85.37 167.33 97.13 C 170.65 105.14 171.19 113.83 170.68 122.38 C 170.66 122.46 170.63 122.62 170.62 122.70 C 167.90 128.92 165.66 135.41 162.19 141.25 C 171.33 142.45 180.48 144.35 188.97 148.02 C 196.02 151.51 203.11 155.06 209.36 159.88 C 209.24 162.58 209.08 165.35 210.00 167.95 L 210.00 181.93 C 185.47 181.94 160.94 182.01 136.41 181.90 C 133.40 181.50 130.36 181.25 127.32 181.17 C 129.00 174.31 131.00 167.49 131.93 160.46 C 124.98 168.74 117.13 176.94 106.89 180.96 C 115.24 175.49 123.29 169.42 129.95 161.92 C 132.65 158.96 135.83 156.28 137.32 152.44 C 136.97 151.43 136.63 150.42 136.32 149.41 C 133.24 150.41 133.57 147.61 133.48 145.63 C 134.20 144.87 134.92 144.09 135.62 143.32 C 134.48 144.69 134.33 146.47 134.28 148.20 C 135.69 148.78 136.96 149.63 138.07 150.69 C 141.54 149.21 145.33 147.89 147.88 144.96 C 151.58 140.60 152.86 134.66 152.66 129.05 C 152.73 127.58 151.69 126.41 151.07 125.17 C 148.13 125.45 145.23 126.21 142.67 127.70 C 140.51 128.75 138.71 130.76 136.14 130.69 C 140.34 122.88 142.05 113.91 142.69 105.13 C 144.30 100.86 147.03 96.79 146.72 92.02 C 146.67 85.25 140.76 80.72 135.58 77.39 C 125.21 71.12 113.50 64.89 100.96 66.61 C 94.54 68.75 89.65 73.65 85.80 79.03 C 85.52 78.74 84.97 78.17 84.70 77.88 C 84.94 77.30 85.43 76.15 85.67 75.57 C 86.68 73.65 87.77 71.78 88.87 69.92 C 92.06 64.24 98.41 61.19 104.55 59.88 Z" />
<path fill="#000000" opacity="1.00" d=" M 84.58 84.49 C 86.08 83.33 87.90 81.61 89.98 82.51 C 93.81 84.98 97.78 89.16 96.50 94.14 C 94.56 91.39 92.46 88.69 89.74 86.67 C 88.12 85.19 85.71 86.30 83.76 86.09 C 83.96 85.69 84.37 84.89 84.58 84.49 Z" />
<path fill="#000000" opacity="1.00" d=" M 84.59 93.67 C 86.21 93.64 87.84 93.61 89.47 93.59 C 90.80 94.85 92.06 96.17 93.28 97.54 C 93.33 98.50 93.37 99.47 93.42 100.44 C 91.78 101.39 90.44 103.06 88.51 103.39 C 85.49 103.30 82.64 101.74 80.60 99.55 C 79.72 96.85 83.10 95.38 84.59 93.67 M 84.26 94.61 C 82.64 96.28 79.27 99.27 83.11 100.67 C 82.92 98.69 84.32 97.52 85.89 96.74 C 87.27 97.62 88.40 98.81 88.83 100.44 L 87.25 101.01 C 87.88 101.55 88.51 102.10 89.15 102.64 C 90.17 101.69 91.31 100.93 92.58 100.36 C 92.61 99.59 92.69 98.05 92.73 97.28 L 91.74 97.52 C 91.00 93.98 87.09 93.99 84.26 94.61 Z" />
<path fill="#000000" opacity="1.00" d=" M 111.07 96.15 C 114.07 95.10 117.34 92.99 120.55 94.40 C 125.00 96.12 129.81 99.64 129.66 104.93 C 126.08 97.19 116.35 96.61 108.92 97.34 C 109.63 96.93 110.34 96.53 111.07 96.15 Z" />
<path fill="#000000" opacity="1.00" d=" M 90.34 108.35 C 91.64 105.93 93.98 104.34 95.60 102.14 C 95.20 103.97 93.82 105.28 92.59 106.60 C 92.37 106.88 91.92 107.44 91.70 107.72 C 90.02 110.51 87.34 112.50 85.03 114.75 C 86.60 112.45 88.40 110.33 90.34 108.35 Z" />
<path fill="#000000" opacity="1.00" d=" M 111.61 107.82 C 112.32 105.84 114.56 106.33 116.20 106.07 C 116.64 107.16 117.13 108.23 117.57 109.32 C 117.10 109.87 116.16 110.96 115.69 111.51 C 114.91 111.54 113.34 111.61 112.56 111.65 C 112.20 110.38 111.89 109.10 111.61 107.82 Z" />
<path fill="#000000" opacity="1.00" d=" M 80.78 117.47 C 81.20 116.18 82.57 115.76 83.64 115.18 C 82.49 116.48 81.33 117.77 80.21 119.09 C 81.41 119.54 82.61 119.99 83.82 120.44 C 84.06 121.19 84.29 121.95 84.51 122.71 C 83.19 122.06 82.10 121.06 81.08 120.01 C 77.68 121.22 76.15 125.15 75.29 128.39 L 74.44 128.42 C 74.55 129.36 74.34 130.19 73.81 130.92 C 73.71 129.80 73.63 128.68 73.56 127.56 L 74.42 127.59 C 74.38 126.38 74.60 125.24 75.09 124.16 C 76.64 121.60 79.75 120.36 80.78 117.47 Z" />
<path fill="#000000" opacity="1.00" d=" M 100.38 118.29 C 101.63 119.01 103.07 119.70 103.72 121.07 C 103.73 122.51 103.02 123.81 102.51 125.13 C 103.18 122.40 102.15 120.22 100.38 118.29 Z" />
<path fill="#000000" opacity="1.00" d=" M 89.84 124.69 C 91.91 123.56 94.36 123.24 96.31 124.79 C 96.37 125.19 96.49 125.98 96.55 126.38 C 94.70 124.57 91.78 126.16 89.84 124.69 Z" />
<path fill="#000000" opacity="1.00" d=" M 149.45 128.00 C 151.22 128.94 150.20 131.36 150.34 132.95 C 149.46 136.47 149.36 140.84 146.08 143.12 C 144.05 145.02 141.14 144.67 138.59 144.68 C 138.62 144.01 138.70 142.65 138.73 141.97 C 139.10 142.64 139.46 143.32 139.82 144.00 C 141.61 143.77 143.38 143.42 145.12 142.95 C 143.80 142.17 142.42 141.55 141.06 140.87 C 141.98 140.77 143.82 140.57 144.74 140.47 C 145.12 138.10 144.78 135.66 143.44 133.64 C 143.65 133.57 144.06 133.42 144.27 133.34 C 146.37 135.95 145.56 139.39 145.50 142.45 C 149.37 138.80 150.04 133.03 149.45 128.00 Z" />
<path fill="#000000" opacity="1.00" d=" M 78.68 133.47 C 82.14 132.98 84.96 135.15 88.00 136.32 C 91.50 137.00 94.90 138.16 98.14 139.63 C 93.03 139.20 88.48 136.34 83.49 135.37 L 83.55 134.50 C 82.81 134.46 81.35 134.38 80.62 134.35 C 79.88 136.42 81.82 137.82 83.40 138.56 C 87.39 140.54 91.75 141.51 96.11 142.27 C 97.33 142.05 98.25 141.44 98.87 140.44 C 99.54 140.97 100.21 141.50 100.88 142.02 C 98.35 145.62 93.69 145.77 89.72 145.68 C 89.60 145.40 89.36 144.85 89.24 144.57 C 87.14 144.56 85.24 143.74 83.49 142.65 C 83.46 143.22 83.42 144.37 83.40 144.95 C 80.83 141.59 79.40 137.60 78.68 133.47 Z" />
<path fill="#000000" opacity="1.00" d=" M 61.52 135.68 C 64.11 134.53 66.89 134.00 69.70 133.76 C 70.88 141.79 70.25 149.91 70.20 158.00 C 70.13 159.82 70.58 161.63 71.38 163.26 C 72.49 165.83 74.56 167.76 76.79 169.36 C 79.61 169.19 82.25 170.22 84.52 171.82 C 87.96 174.15 91.66 171.02 94.71 169.43 C 92.61 172.19 89.21 172.90 85.99 173.45 C 87.59 176.29 89.64 178.83 91.88 181.19 C 88.86 179.65 86.61 177.11 84.98 174.18 C 83.55 171.45 80.46 170.24 77.51 170.43 C 78.87 173.76 79.40 177.34 80.60 180.72 C 77.90 181.28 75.17 181.61 72.43 181.90 C 48.29 182.01 24.14 181.93 0.00 181.94 L 0.00 172.22 C 0.20 171.67 0.59 170.57 0.78 170.03 C 0.68 167.64 0.66 165.25 0.64 162.86 C 6.08 156.43 14.23 153.52 21.44 149.62 C 31.05 144.83 40.74 139.74 51.27 137.32 C 54.70 136.79 58.02 135.65 61.52 135.68 Z" />
<path fill="#000000" opacity="1.00" d=" M 105.73 134.03 C 107.85 137.27 106.62 141.43 105.18 144.70 C 105.00 144.65 104.63 144.54 104.45 144.49 C 105.69 141.14 105.38 137.52 105.73 134.03 Z" />
<path fill="#000000" opacity="1.00" d=" M 124.95 154.33 C 122.66 158.06 119.24 160.97 115.54 163.23 C 112.79 164.61 110.21 166.86 106.93 166.45 C 108.13 165.96 109.36 165.56 110.61 165.19 C 115.86 162.23 120.78 158.72 124.95 154.33 Z" />
</g>
<g id="#ffffffff">
<path fill="#ffffff" opacity="1.00" d=" M 85.80 79.03 C 89.65 73.65 94.54 68.75 100.96 66.61 C 113.50 64.89 125.21 71.12 135.58 77.39 C 140.76 80.72 146.67 85.25 146.72 92.02 C 147.03 96.79 144.30 100.86 142.69 105.13 C 142.05 113.91 140.34 122.88 136.14 130.69 C 138.71 130.76 140.51 128.75 142.67 127.70 C 145.23 126.21 148.13 125.45 151.07 125.17 C 151.69 126.41 152.73 127.58 152.66 129.05 C 152.86 134.66 151.58 140.60 147.88 144.96 C 145.33 147.89 141.54 149.21 138.07 150.69 C 136.96 149.63 135.69 148.78 134.28 148.20 C 134.33 146.47 134.48 144.69 135.62 143.32 C 134.92 144.09 134.20 144.87 133.48 145.63 C 133.57 147.61 133.24 150.41 136.32 149.41 C 136.63 150.42 136.97 151.43 137.32 152.44 C 135.83 156.28 132.65 158.96 129.95 161.92 C 123.29 169.42 115.24 175.49 106.89 180.96 C 117.13 176.94 124.98 168.74 131.93 160.46 C 131.00 167.49 129.00 174.31 127.32 181.17 C 130.36 181.25 133.40 181.50 136.41 181.90 C 115.09 182.01 93.76 181.94 72.43 181.90 C 75.17 181.61 77.90 181.28 80.60 180.72 C 79.40 177.34 78.87 173.76 77.51 170.43 C 80.46 170.24 83.55 171.45 84.98 174.18 C 86.61 177.11 88.86 179.65 91.88 181.19 C 89.64 178.83 87.59 176.29 85.99 173.45 C 89.21 172.90 92.61 172.19 94.71 169.43 C 91.66 171.02 87.96 174.15 84.52 171.82 C 82.25 170.22 79.61 169.19 76.79 169.36 C 74.56 167.76 72.49 165.83 71.38 163.26 C 70.76 156.60 71.80 149.88 70.79 143.24 C 70.25 135.49 69.10 127.78 69.61 119.99 C 71.81 116.79 70.75 112.53 72.80 109.23 C 76.17 103.58 78.37 97.29 80.22 91.00 C 80.39 90.02 80.54 89.04 80.67 88.06 C 83.51 86.71 86.67 86.71 89.74 86.67 C 92.46 88.69 94.56 91.39 96.50 94.14 C 97.78 89.16 93.81 84.98 89.98 82.51 C 87.90 81.61 86.08 83.33 84.58 84.49 L 82.67 85.86 C 83.57 83.51 84.67 81.26 85.80 79.03 M 84.59 93.67 C 83.10 95.38 79.72 96.85 80.60 99.55 C 82.64 101.74 85.49 103.30 88.51 103.39 C 90.44 103.06 91.78 101.39 93.42 100.44 C 93.37 99.47 93.33 98.50 93.28 97.54 C 92.06 96.17 90.80 94.85 89.47 93.59 C 87.84 93.61 86.21 93.64 84.59 93.67 M 111.07 96.15 C 110.34 96.53 109.63 96.93 108.92 97.34 C 116.35 96.61 126.08 97.19 129.66 104.93 C 129.81 99.64 125.00 96.12 120.55 94.40 C 117.34 92.99 114.07 95.10 111.07 96.15 M 90.34 108.35 C 88.40 110.33 86.60 112.45 85.03 114.75 C 87.34 112.50 90.02 110.51 91.70 107.72 C 91.92 107.44 92.37 106.88 92.59 106.60 C 93.82 105.28 95.20 103.97 95.60 102.14 C 93.98 104.34 91.64 105.93 90.34 108.35 M 112.46 102.66 C 110.20 103.56 107.01 105.10 107.22 107.96 C 109.14 110.97 112.65 112.59 115.98 113.47 C 118.49 113.57 122.56 113.83 123.63 111.01 C 121.60 106.83 117.96 100.88 112.46 102.66 M 80.78 117.47 C 79.75 120.36 76.64 121.60 75.09 124.16 C 74.60 125.24 74.38 126.38 74.42 127.59 L 73.56 127.56 C 73.63 128.68 73.71 129.80 73.81 130.92 C 74.34 130.19 74.55 129.36 74.44 128.42 L 75.29 128.39 C 76.15 125.15 77.68 121.22 81.08 120.01 C 82.10 121.06 83.19 122.06 84.51 122.71 C 84.29 121.95 84.06 121.19 83.82 120.44 C 82.61 119.99 81.41 119.54 80.21 119.09 C 81.33 117.77 82.49 116.48 83.64 115.18 C 82.57 115.76 81.20 116.18 80.78 117.47 M 100.38 118.29 C 102.15 120.22 103.18 122.40 102.51 125.13 C 103.02 123.81 103.73 122.51 103.72 121.07 C 103.07 119.70 101.63 119.01 100.38 118.29 M 89.84 124.69 C 91.78 126.16 94.70 124.57 96.55 126.38 C 96.49 125.98 96.37 125.19 96.31 124.79 C 94.36 123.24 91.91 123.56 89.84 124.69 M 149.45 128.00 C 150.04 133.03 149.37 138.80 145.50 142.45 C 145.56 139.39 146.37 135.95 144.27 133.34 C 144.06 133.42 143.65 133.57 143.44 133.64 C 144.78 135.66 145.12 138.10 144.74 140.47 C 143.82 140.57 141.98 140.77 141.06 140.87 C 142.42 141.55 143.80 142.17 145.12 142.95 C 143.38 143.42 141.61 143.77 139.82 144.00 C 139.46 143.32 139.10 142.64 138.73 141.97 C 138.70 142.65 138.62 144.01 138.59 144.68 C 141.14 144.67 144.05 145.02 146.08 143.12 C 149.36 140.84 149.46 136.47 150.34 132.95 C 150.20 131.36 151.22 128.94 149.45 128.00 M 78.68 133.47 C 79.40 137.60 80.83 141.59 83.40 144.95 C 83.42 144.37 83.46 143.22 83.49 142.65 C 85.24 143.74 87.14 144.56 89.24 144.57 C 89.36 144.85 89.60 145.40 89.72 145.68 C 93.69 145.77 98.35 145.62 100.88 142.02 C 100.21 141.50 99.54 140.97 98.87 140.44 C 98.25 141.44 97.33 142.05 96.11 142.27 C 91.75 141.51 87.39 140.54 83.40 138.56 C 81.82 137.82 79.88 136.42 80.62 134.35 C 81.35 134.38 82.81 134.46 83.55 134.50 L 83.49 135.37 C 88.48 136.34 93.03 139.20 98.14 139.63 C 94.90 138.16 91.50 137.00 88.00 136.32 C 84.96 135.15 82.14 132.98 78.68 133.47 M 105.73 134.03 C 105.38 137.52 105.69 141.14 104.45 144.49 C 104.63 144.54 105.00 144.65 105.18 144.70 C 106.62 141.43 107.85 137.27 105.73 134.03 M 124.95 154.33 C 120.78 158.72 115.86 162.23 110.61 165.19 C 109.36 165.56 108.13 165.96 106.93 166.45 C 110.21 166.86 112.79 164.61 115.54 163.23 C 119.24 160.97 122.66 158.06 124.95 154.33 Z" />
<path fill="#ffffff" opacity="1.00" d=" M 84.26 94.61 C 87.09 93.99 91.00 93.98 91.74 97.52 L 92.73 97.28 C 92.69 98.05 92.61 99.59 92.58 100.36 C 91.31 100.93 90.17 101.69 89.15 102.64 C 88.51 102.10 87.88 101.55 87.25 101.01 L 88.83 100.44 C 88.40 98.81 87.27 97.62 85.89 96.74 C 84.32 97.52 82.92 98.69 83.11 100.67 C 79.27 99.27 82.64 96.28 84.26 94.61 Z" />
<path fill="#ffffff" opacity="1.00" d=" M 108.45 106.47 C 110.56 104.52 113.17 102.96 116.17 103.38 C 118.91 105.49 121.03 108.23 122.74 111.21 C 122.07 111.50 120.72 112.06 120.05 112.34 C 118.34 112.51 116.63 112.60 114.91 112.60 L 115.69 111.51 C 116.16 110.96 117.10 109.87 117.57 109.32 C 117.13 108.23 116.64 107.16 116.20 106.07 C 114.56 106.33 112.32 105.84 111.61 107.82 C 111.33 108.32 110.76 109.33 110.47 109.83 C 109.55 108.92 107.54 108.10 108.45 106.47 Z" />
</g>
</svg>
