<?xml version="1.0" encoding="UTF-8" ?>
<!DOCTYPE svg PUBLIC "-//W3C//DTD SVG 1.1//EN" "http://www.w3.org/Graphics/SVG/1.1/DTD/svg11.dtd">
<svg width="210pt" height="220pt" viewBox="0 0 210 220" version="1.1" xmlns="http://www.w3.org/2000/svg">
<g id="#2e2e2e40">
<path fill="#2e2e2e" opacity="0.25" d=" M 67.00 13.21 C 72.77 13.30 78.25 9.77 84.03 11.62 C 89.46 13.38 95.25 12.96 100.75 14.37 C 106.55 15.71 113.14 16.43 117.48 20.94 C 108.73 16.15 98.69 14.63 88.92 13.43 C 80.28 12.90 71.49 12.81 62.99 14.72 C 56.66 15.99 50.69 18.56 44.83 21.18 C 51.12 16.24 59.26 14.45 67.00 13.21 Z" />
<path fill="#2e2e2e" opacity="0.25" d=" M 118.72 128.75 C 121.32 124.81 125.33 122.09 128.52 118.66 C 126.40 122.50 122.74 125.04 119.88 128.26 C 124.36 129.74 129.12 130.19 133.51 131.98 C 128.44 131.62 123.54 130.25 118.72 128.75 Z" />
<path fill="#2e2e2e" opacity="0.25" d=" M 37.58 144.38 C 38.68 141.64 40.14 139.08 41.63 136.54 C 41.28 139.58 39.57 142.15 37.58 144.38 Z" />
<path fill="#2e2e2e" opacity="0.25" d=" M 57.00 145.58 C 59.54 148.19 61.63 151.20 63.07 154.56 C 60.70 151.81 58.63 148.82 57.00 145.58 Z" />
<path fill="#2e2e2e" opacity="0.25" d=" M 23.05 183.34 C 25.09 173.37 28.75 163.78 32.92 154.53 C 31.81 159.27 29.78 163.71 28.22 168.31 C 26.37 173.28 25.15 178.46 23.05 183.34 Z" />
<path fill="#2e2e2e" opacity="0.25" d=" M 91.88 182.09 C 95.39 177.98 99.82 174.75 104.34 171.83 C 100.55 175.67 96.22 178.92 91.88 182.09 Z" />
<path fill="#2e2e2e" opacity="0.25" d=" M 14.51 194.38 C 15.94 188.28 17.12 182.04 19.74 176.30 C 18.71 181.91 16.88 187.32 15.66 192.89 C 14.19 198.88 13.50 205.04 12.08 211.04 C 12.11 205.40 13.49 199.90 14.51 194.38 Z" />
<path fill="#2e2e2e" opacity="0.25" d=" M 79.61 177.86 C 81.84 179.68 83.81 181.83 84.97 184.50 C 83.01 182.43 81.13 180.28 79.61 177.86 Z" />
<path fill="#2e2e2e" opacity="0.25" d=" M 75.72 180.77 C 77.17 182.54 78.57 184.36 79.83 186.28 C 78.08 184.74 76.49 183.01 75.72 180.77 Z" />
<path fill="#2e2e2e" opacity="0.25" d=" M 95.63 185.14 C 95.73 183.24 97.67 182.48 99.19 181.94 C 98.86 183.72 97.47 185.05 95.63 185.14 Z" />
<path fill="#2e2e2e" opacity="0.25" d=" M 88.21 189.68 C 90.45 188.58 92.41 187.01 94.57 185.76 C 92.23 188.04 89.64 191.11 86.02 190.78 C 83.59 190.86 82.15 188.72 80.66 187.17 C 82.89 188.52 85.44 190.58 88.21 189.68 Z" />
<path fill="#2e2e2e" opacity="0.25" d=" M 15.23 220.00 C 16.98 209.07 18.92 198.13 21.90 187.46 C 20.59 198.39 17.20 209.00 16.24 220.00 L 15.23 220.00 Z" />
</g>
<g id="#000000ff">
<path fill="#000000" opacity="1.00" d=" M 62.99 14.72 C 71.49 12.81 80.28 12.90 88.92 13.43 C 98.69 14.63 108.73 16.15 117.48 20.94 L 117.63 21.09 C 118.06 22.81 119.57 23.87 121.30 23.95 C 122.19 24.82 123.09 25.68 123.97 26.55 C 126.71 31.01 130.30 34.91 132.56 39.66 C 134.47 43.15 135.48 47.07 137.49 50.50 C 141.65 51.39 146.10 50.15 150.33 51.17 C 146.08 52.53 141.73 53.51 137.39 54.54 C 137.30 57.26 140.50 57.86 142.33 59.07 L 142.46 59.16 C 144.53 61.35 146.94 63.37 148.25 66.14 C 150.06 71.67 147.23 77.12 146.32 82.52 L 146.25 82.91 C 144.53 83.12 144.23 85.12 144.14 86.51 C 143.09 88.51 142.05 90.51 140.99 92.50 C 137.79 97.00 136.25 102.36 135.06 107.69 C 134.07 109.67 133.02 111.62 132.00 113.58 C 130.13 114.37 129.09 116.13 128.92 118.11 C 128.82 118.25 128.62 118.52 128.52 118.66 C 125.33 122.09 121.32 124.81 118.72 128.75 C 123.54 130.25 128.44 131.62 133.51 131.98 L 134.01 132.16 C 136.12 133.40 138.57 133.42 140.92 133.03 L 141.59 133.10 C 146.03 133.92 150.54 134.31 155.06 134.20 C 162.18 134.06 169.32 134.45 176.43 133.86 L 175.86 132.44 L 175.60 131.80 C 175.55 131.67 175.44 131.41 175.39 131.29 C 175.01 130.37 174.61 129.46 174.21 128.56 C 172.48 123.44 168.75 119.36 166.91 114.30 C 176.61 109.76 187.44 110.53 197.82 111.03 C 198.52 111.10 199.92 111.25 200.63 111.33 C 200.50 111.90 200.25 113.04 200.12 113.61 C 195.24 115.40 189.80 116.28 185.71 119.72 C 183.02 122.03 180.39 124.75 179.45 128.27 C 178.62 131.25 178.21 134.32 177.71 137.37 C 174.70 137.56 171.69 137.68 168.69 137.49 C 160.21 137.13 151.69 137.10 143.21 137.47 C 133.89 137.17 125.17 133.51 116.01 132.21 C 114.15 131.79 112.32 132.41 110.52 132.80 L 110.46 132.82 C 99.55 133.89 89.07 138.19 77.97 137.67 C 68.32 137.76 58.94 135.09 49.35 134.60 C 50.77 137.51 52.62 140.19 54.88 142.52 L 55.00 142.67 C 55.06 144.01 55.70 144.94 56.92 145.46 L 57.00 145.58 C 58.63 148.82 60.70 151.81 63.07 154.56 C 63.38 155.02 64.01 155.93 64.32 156.39 C 64.37 156.46 64.47 156.62 64.52 156.69 C 64.81 157.15 65.37 158.06 65.65 158.51 C 66.58 161.18 68.19 163.51 70.30 165.38 C 70.36 165.45 70.47 165.59 70.52 165.66 C 71.91 168.62 73.91 171.21 76.24 173.49 C 76.38 173.80 76.67 174.42 76.81 174.73 C 76.91 176.26 77.69 177.06 79.13 177.13 C 79.25 177.31 79.49 177.67 79.61 177.86 C 81.13 180.28 83.01 182.43 84.97 184.50 C 85.24 184.86 85.79 185.57 86.07 185.93 C 86.29 186.21 86.73 186.77 86.95 187.05 C 88.52 185.66 90.02 184.18 91.40 182.59 C 91.52 182.47 91.76 182.22 91.88 182.09 C 96.22 178.92 100.55 175.67 104.34 171.83 C 104.41 171.77 104.56 171.65 104.64 171.59 C 110.13 167.40 116.48 163.14 118.96 156.40 L 119.07 156.18 C 119.32 155.62 119.82 154.50 120.07 153.94 L 120.01 153.20 C 120.28 152.65 120.83 151.54 121.11 150.99 L 121.07 150.17 C 121.28 149.59 121.69 148.43 121.90 147.85 L 122.10 147.30 C 123.22 145.63 124.72 143.94 126.94 144.19 C 135.41 144.27 143.88 143.22 152.35 143.75 C 153.92 146.03 150.30 146.43 148.90 146.95 C 142.75 148.14 136.83 150.76 132.50 155.40 C 132.39 155.46 132.17 155.57 132.06 155.63 C 130.52 155.81 129.32 156.85 128.78 158.28 C 128.70 158.34 128.55 158.45 128.48 158.51 C 122.94 161.76 117.76 165.75 113.28 170.35 C 113.11 170.48 112.77 170.74 112.60 170.87 C 110.13 172.12 108.09 173.98 106.29 176.05 C 106.10 176.18 105.71 176.46 105.52 176.59 C 103.22 177.76 101.21 179.39 99.65 181.45 C 99.54 181.57 99.31 181.81 99.19 181.94 C 97.67 182.48 95.73 183.24 95.63 185.14 C 95.36 185.29 94.83 185.60 94.57 185.76 C 92.41 187.01 90.45 188.58 88.21 189.68 C 85.44 190.58 82.89 188.52 80.66 187.17 C 80.45 186.95 80.04 186.50 79.83 186.28 C 78.57 184.36 77.17 182.54 75.72 180.77 C 75.67 180.68 75.57 180.52 75.52 180.44 C 74.36 177.78 72.61 175.47 70.52 173.49 C 70.46 173.36 70.34 173.10 70.28 172.97 C 69.79 171.25 68.90 169.58 67.21 168.81 L 67.20 168.34 C 67.22 166.99 66.54 166.13 65.15 165.76 L 65.00 165.53 C 62.58 160.72 59.67 156.09 55.87 152.24 C 55.32 151.44 54.77 150.64 54.21 149.84 C 51.76 144.94 48.31 140.67 45.02 136.33 L 44.84 135.91 C 45.18 133.35 41.79 132.79 41.84 135.57 L 41.63 136.54 C 40.14 139.08 38.68 141.64 37.58 144.38 C 37.48 144.57 37.29 144.94 37.19 145.13 C 35.31 148.00 33.95 151.15 32.96 154.43 L 32.92 154.53 C 28.75 163.78 25.09 173.37 23.05 183.34 L 22.93 183.75 C 21.84 184.63 21.52 185.73 21.96 187.06 L 21.90 187.46 C 18.92 198.13 16.98 209.07 15.23 220.00 L 10.74 220.00 C 11.52 217.15 11.80 214.20 12.05 211.26 L 12.08 211.04 C 13.50 205.04 14.19 198.88 15.66 192.89 C 16.88 187.32 18.71 181.91 19.74 176.30 C 19.80 176.07 19.92 175.61 19.99 175.38 C 20.21 174.80 20.67 173.63 20.90 173.05 L 21.07 172.15 C 21.32 171.58 21.82 170.44 22.07 169.87 L 22.10 169.12 C 24.03 168.18 24.39 165.93 24.17 164.00 L 24.27 163.52 C 26.87 158.27 29.30 152.91 31.08 147.32 C 31.33 146.74 31.59 146.16 31.85 145.58 C 34.81 140.48 37.67 135.30 40.25 129.99 C 39.93 129.76 39.30 129.31 38.98 129.09 C 38.67 128.88 38.06 128.47 37.75 128.27 C 36.09 126.02 34.08 124.05 31.51 122.87 C 31.08 122.43 30.64 122.00 30.21 121.56 C 29.16 118.92 27.14 116.96 24.79 115.46 C 24.61 115.21 24.26 114.72 24.09 114.47 C 24.20 113.00 23.55 112.08 22.13 111.70 L 22.09 111.37 C 22.12 109.93 21.45 108.98 20.07 108.54 C 19.73 107.97 19.40 107.41 19.06 106.84 C 17.48 101.87 15.00 97.18 13.96 92.03 C 12.71 86.46 13.24 80.72 13.18 75.06 C 13.31 63.97 17.82 53.66 22.09 43.64 L 22.20 43.45 C 24.55 40.69 26.75 37.81 28.49 34.63 C 28.55 34.55 28.67 34.40 28.73 34.33 C 31.08 32.27 33.28 30.04 35.34 27.68 C 35.42 27.62 35.57 27.51 35.64 27.45 C 37.99 26.18 40.12 24.58 42.08 22.79 L 42.52 22.54 C 42.67 22.45 42.97 22.27 43.13 22.19 L 43.88 21.75 C 44.02 21.67 44.31 21.49 44.46 21.41 L 44.83 21.18 C 50.69 18.56 56.66 15.99 62.99 14.72 M 67.87 18.81 C 60.08 20.84 52.28 23.21 45.26 27.26 C 44.39 27.73 43.52 28.21 42.65 28.69 C 35.27 32.41 30.33 39.34 26.18 46.26 C 21.54 54.76 18.94 64.22 17.33 73.73 C 18.28 73.59 20.18 73.31 21.13 73.17 C 22.84 72.60 24.63 72.44 26.42 72.35 L 26.60 71.69 C 28.11 71.61 29.62 71.49 31.11 71.28 C 34.23 70.02 37.72 70.00 40.85 68.74 C 41.93 68.55 43.01 68.36 44.09 68.18 C 45.38 67.67 46.72 67.34 48.09 67.11 C 49.64 66.60 51.25 66.28 52.81 65.78 C 55.50 65.13 58.20 64.48 60.88 63.79 C 63.30 63.52 65.72 63.34 68.15 63.15 C 76.72 62.16 85.45 62.95 94.09 62.76 C 95.42 65.11 96.82 67.42 98.06 69.82 C 100.13 67.91 102.45 66.30 104.88 64.90 C 114.03 61.80 123.63 60.74 133.24 60.21 C 133.40 58.49 133.54 56.78 133.68 55.06 C 129.61 55.35 125.59 56.25 121.78 57.72 C 121.12 57.83 119.80 58.07 119.14 58.18 C 114.01 58.33 108.96 59.49 103.82 59.36 C 102.93 57.15 102.00 54.97 101.07 52.78 C 101.78 52.44 103.20 51.77 103.91 51.43 C 104.90 51.46 105.90 51.50 106.90 51.55 C 105.79 52.99 105.25 54.67 105.28 56.57 C 108.75 55.60 112.41 55.76 115.88 54.84 C 117.89 54.61 119.90 54.38 121.86 53.86 C 125.24 53.46 128.54 52.53 131.94 52.29 C 131.19 47.29 129.23 42.53 127.23 37.91 C 126.98 37.41 126.48 36.42 126.23 35.92 C 121.62 29.14 114.67 24.07 106.88 21.57 C 103.42 20.22 99.72 19.81 96.18 18.78 C 92.56 18.18 88.74 18.80 85.22 17.71 C 81.45 17.49 77.66 17.53 73.89 17.78 C 72.03 18.71 69.86 18.47 67.87 18.81 M 109.35 67.28 C 109.38 67.85 109.45 68.98 109.48 69.55 C 109.99 69.54 110.99 69.52 111.49 69.51 C 111.53 68.95 111.61 67.84 111.65 67.28 C 111.07 67.28 109.92 67.28 109.35 67.28 M 48.51 70.49 C 48.56 70.90 48.67 71.70 48.73 72.11 C 49.08 72.20 49.79 72.40 50.15 72.50 C 50.57 72.12 51.42 71.38 51.84 71.01 C 51.15 70.50 50.54 69.90 50.02 69.22 C 49.64 69.54 48.89 70.17 48.51 70.49 M 30.12 75.10 C 25.79 75.84 21.48 76.66 17.15 77.37 C 17.27 79.97 17.50 82.57 17.82 85.16 C 18.89 89.80 19.52 94.56 21.10 99.08 C 25.21 111.60 34.81 121.96 46.82 127.32 C 47.53 127.64 48.23 127.98 48.92 128.34 C 63.85 134.81 80.54 133.94 96.23 131.28 L 96.85 130.89 C 98.22 130.67 99.58 130.38 100.92 130.03 C 102.95 129.42 104.99 128.80 106.94 127.95 C 108.31 127.33 109.67 126.68 111.08 126.13 C 116.47 123.08 122.04 119.82 125.71 114.68 C 130.66 108.24 132.72 100.21 134.73 92.48 C 131.67 92.32 128.61 92.27 125.55 92.36 L 125.42 91.68 C 122.86 91.69 120.32 91.51 117.78 91.29 C 110.31 89.16 107.11 81.32 103.70 75.11 C 103.22 74.15 102.75 73.18 102.28 72.20 C 100.42 72.72 98.56 73.26 96.69 73.73 C 95.53 77.50 94.45 81.31 92.77 84.89 C 90.39 89.23 87.51 93.75 83.04 96.15 C 74.04 99.19 64.05 99.03 55.07 95.98 C 53.26 95.25 51.51 94.27 50.32 92.68 C 45.37 87.11 44.94 79.29 43.22 72.38 C 38.87 73.35 34.48 74.14 30.12 75.10 Z" />
<path fill="#000000" opacity="1.00" d=" M 63.04 30.50 C 64.17 29.59 65.54 29.26 67.17 29.51 C 67.64 29.57 68.59 29.69 69.06 29.74 C 70.02 30.31 71.07 30.67 72.19 30.81 C 73.88 31.51 75.59 32.19 77.34 32.74 L 77.50 33.38 C 78.53 33.85 79.55 34.34 80.56 34.87 C 80.51 34.98 80.42 35.19 80.37 35.30 C 74.75 33.20 68.86 31.92 63.04 30.50 Z" />
<path fill="#000000" opacity="1.00" d=" M 89.51 37.92 C 92.71 41.55 95.40 45.79 96.72 50.47 C 96.07 50.47 94.77 50.47 94.12 50.47 C 84.20 50.98 74.95 47.00 65.53 44.59 C 58.34 42.49 50.50 44.57 44.30 48.45 C 43.99 48.63 43.38 48.99 43.07 49.17 C 42.57 49.41 41.57 49.88 41.07 50.12 C 38.78 51.25 36.54 52.74 33.90 52.83 C 35.49 50.45 37.55 48.46 39.74 46.63 C 40.00 46.51 40.53 46.26 40.80 46.13 C 46.50 43.33 52.64 41.21 59.02 40.78 C 70.42 40.77 80.61 46.59 91.53 48.92 C 91.27 46.51 90.76 44.14 90.10 41.82 C 89.73 40.55 89.59 39.23 89.51 37.92 Z" />
<path fill="#000000" opacity="1.00" d=" M 52.60 102.49 C 55.46 102.28 58.40 101.87 61.20 102.74 C 57.90 104.52 54.64 106.39 51.26 108.02 C 51.44 111.09 52.03 114.10 52.67 117.09 C 49.07 115.68 46.10 111.71 47.46 107.69 C 48.66 105.50 50.40 103.69 52.60 102.49 Z" />
<path fill="#000000" opacity="1.00" d=" M 57.15 107.93 C 65.19 110.81 73.56 112.50 81.90 114.11 C 84.49 114.46 87.10 114.64 89.70 114.79 C 89.63 116.10 89.40 117.39 89.13 118.67 C 78.13 117.11 67.20 115.01 56.46 112.18 C 56.59 111.33 56.87 109.63 57.01 108.78 L 57.15 107.93 Z" />
</g>
<g id="#ffffffff">
<path fill="#ffffff" opacity="1.00" d=" M 67.87 18.81 C 69.86 18.47 72.03 18.71 73.89 17.78 C 77.66 17.53 81.45 17.49 85.22 17.71 C 88.74 18.80 92.56 18.18 96.18 18.78 C 99.72 19.81 103.42 20.22 106.88 21.57 C 114.67 24.07 121.62 29.14 126.23 35.92 C 126.48 36.42 126.98 37.41 127.23 37.91 C 129.23 42.53 131.19 47.29 131.94 52.29 C 128.54 52.53 125.24 53.46 121.86 53.86 C 119.90 54.38 117.89 54.61 115.88 54.84 C 112.41 55.76 108.75 55.60 105.28 56.57 C 105.25 54.67 105.79 52.99 106.90 51.55 C 105.90 51.50 104.90 51.46 103.91 51.43 C 103.20 51.77 101.78 52.44 101.07 52.78 C 102.00 54.97 102.93 57.15 103.82 59.36 C 104.33 60.11 105.03 60.46 105.91 60.40 C 109.61 60.48 113.46 59.00 116.98 60.77 C 112.80 61.61 108.48 62.47 104.88 64.90 C 102.45 66.30 100.13 67.91 98.06 69.82 C 96.82 67.42 95.42 65.11 94.09 62.76 C 85.45 62.95 76.72 62.16 68.15 63.15 C 65.72 63.34 63.30 63.52 60.88 63.79 C 58.20 64.48 55.50 65.13 52.81 65.78 C 51.25 66.28 49.64 66.60 48.09 67.11 C 46.72 67.34 45.38 67.67 44.09 68.18 C 43.01 68.36 41.93 68.55 40.85 68.74 C 37.72 70.00 34.23 70.02 31.11 71.28 C 29.62 71.49 28.11 71.61 26.60 71.69 L 26.42 72.35 C 24.63 72.44 22.84 72.60 21.13 73.17 C 20.18 73.31 18.28 73.59 17.33 73.73 C 18.94 64.22 21.54 54.76 26.18 46.26 C 30.33 39.34 35.27 32.41 42.65 28.69 C 43.52 28.21 44.39 27.73 45.26 27.26 C 52.28 23.21 60.08 20.84 67.87 18.81 M 60.54 28.49 C 60.55 29.02 60.56 30.06 60.57 30.58 C 61.07 30.69 62.06 30.91 62.56 31.02 L 63.04 30.50 C 68.86 31.92 74.75 33.20 80.37 35.30 C 80.42 35.19 80.51 34.98 80.56 34.87 C 79.55 34.34 78.53 33.85 77.50 33.38 L 77.34 32.74 C 75.59 32.19 73.88 31.51 72.19 30.81 C 71.07 30.67 70.02 30.31 69.06 29.74 C 68.59 29.69 67.64 29.57 67.17 29.51 C 65.23 28.12 62.77 28.56 60.54 28.49 M 78.00 28.64 C 80.02 31.22 83.12 32.67 86.32 33.14 C 84.52 30.55 81.31 27.95 78.00 28.64 M 89.51 37.92 C 89.59 39.23 89.73 40.55 90.10 41.82 C 89.95 43.90 90.12 45.99 90.60 48.02 C 83.99 46.05 77.53 43.59 70.91 41.65 C 63.76 39.50 55.90 39.32 48.83 41.88 C 46.03 42.97 42.79 43.70 40.80 46.13 C 40.53 46.26 40.00 46.51 39.74 46.63 C 37.55 48.46 35.49 50.45 33.90 52.83 C 36.54 52.74 38.78 51.25 41.07 50.12 C 41.57 49.88 42.57 49.41 43.07 49.17 C 43.38 48.99 43.99 48.63 44.30 48.45 C 46.80 48.36 48.90 46.86 51.22 46.11 C 56.56 44.15 62.51 44.34 67.89 46.11 C 76.63 48.76 85.47 52.26 94.79 51.31 C 94.62 51.10 94.29 50.68 94.12 50.47 C 94.77 50.47 96.07 50.47 96.72 50.47 C 95.40 45.79 92.71 41.55 89.51 37.92 M 114.83 50.60 C 118.37 51.07 121.85 50.23 125.16 49.02 C 125.33 48.59 125.67 47.72 125.84 47.29 C 122.03 47.67 117.92 48.11 114.83 50.60 Z" />
<path fill="#ffffff" opacity="1.00" d=" M 109.35 67.28 C 109.92 67.28 111.07 67.28 111.65 67.28 C 111.61 67.84 111.53 68.95 111.49 69.51 C 110.99 69.52 109.99 69.54 109.48 69.55 C 109.45 68.98 109.38 67.85 109.35 67.28 Z" />
<path fill="#ffffff" opacity="1.00" d=" M 48.51 70.49 C 48.89 70.17 49.64 69.54 50.02 69.22 C 50.54 69.90 51.15 70.50 51.84 71.01 C 51.42 71.38 50.57 72.12 50.15 72.50 C 49.79 72.40 49.08 72.20 48.73 72.11 C 48.67 71.70 48.56 70.90 48.51 70.49 Z" />
<path fill="#ffffff" opacity="1.00" d=" M 30.12 75.10 C 34.48 74.14 38.87 73.35 43.22 72.38 C 44.94 79.29 45.37 87.11 50.32 92.68 C 51.51 94.27 53.26 95.25 55.07 95.98 C 64.05 99.03 74.04 99.19 83.04 96.15 C 87.51 93.75 90.39 89.23 92.77 84.89 C 94.45 81.31 95.53 77.50 96.69 73.73 C 98.56 73.26 100.42 72.72 102.28 72.20 C 102.75 73.18 103.22 74.15 103.70 75.11 C 107.11 81.32 110.31 89.16 117.78 91.29 C 120.32 91.51 122.86 91.69 125.42 91.68 L 125.55 92.36 C 128.61 92.27 131.67 92.32 134.73 92.48 C 132.72 100.21 130.66 108.24 125.71 114.68 C 122.04 119.82 116.47 123.08 111.08 126.13 C 109.67 126.68 108.31 127.33 106.94 127.95 C 104.99 128.80 102.95 129.42 100.92 130.03 C 99.58 130.38 98.22 130.67 96.85 130.89 L 96.23 131.28 C 80.54 133.94 63.85 134.81 48.92 128.34 C 48.23 127.98 47.53 127.64 46.82 127.32 C 34.81 121.96 25.21 111.60 21.10 99.08 C 19.52 94.56 18.89 89.80 17.82 85.16 C 17.50 82.57 17.27 79.97 17.15 77.37 C 21.48 76.66 25.79 75.84 30.12 75.10 M 52.60 102.49 C 50.40 103.69 48.66 105.50 47.46 107.69 C 46.10 111.71 49.07 115.68 52.67 117.09 C 52.03 114.10 51.44 111.09 51.26 108.02 C 54.64 106.39 57.90 104.52 61.20 102.74 C 58.40 101.87 55.46 102.28 52.60 102.49 M 57.15 107.93 L 57.01 108.78 C 56.21 110.12 56.00 111.62 56.32 113.15 C 67.12 115.75 78.00 118.29 89.08 119.32 L 89.13 118.67 C 89.40 117.39 89.63 116.10 89.70 114.79 C 87.10 114.64 84.49 114.46 81.90 114.11 C 73.56 112.50 65.19 110.81 57.15 107.93 Z" />
</g>
<g id="#30303094">
<path fill="#303030" opacity="0.58" d=" M 43.88 21.75 C 44.02 21.67 44.31 21.49 44.46 21.41 C 44.31 21.49 44.02 21.67 43.88 21.75 Z" />
</g>
<g id="#1b1b1b81">
<path fill="#1b1b1b" opacity="0.51" d=" M 117.63 21.09 C 119.48 20.82 120.74 22.38 121.30 23.95 C 119.57 23.87 118.06 22.81 117.63 21.09 Z" />
</g>
<g id="#31313172">
<path fill="#313131" opacity="0.45" d=" M 42.52 22.54 C 42.67 22.45 42.97 22.27 43.13 22.19 C 42.97 22.27 42.67 22.45 42.52 22.54 Z" />
</g>
<g id="#17171775">
<path fill="#171717" opacity="0.46" d=" M 35.64 27.45 C 37.34 25.33 39.56 23.76 42.08 22.79 C 40.12 24.58 37.99 26.18 35.64 27.45 Z" />
</g>
<g id="#1717178a">
<path fill="#171717" opacity="0.54" d=" M 123.97 26.55 C 131.07 32.56 134.14 41.70 138.14 49.80 C 142.80 50.41 147.45 49.76 152.11 49.67 C 152.99 49.85 155.51 49.67 154.59 51.23 C 149.35 52.78 143.98 53.86 138.71 55.29 C 139.89 56.58 141.07 57.86 142.33 59.07 C 140.50 57.86 137.30 57.26 137.39 54.54 C 141.73 53.51 146.08 52.53 150.33 51.17 C 146.10 50.15 141.65 51.39 137.49 50.50 C 135.48 47.07 134.47 43.15 132.56 39.66 C 130.30 34.91 126.71 31.01 123.97 26.55 Z" />
</g>
<g id="#1b1b1b4f">
<path fill="#1b1b1b" opacity="0.31" d=" M 28.73 34.33 C 30.25 31.51 32.51 29.21 35.34 27.68 C 33.28 30.04 31.08 32.27 28.73 34.33 Z" />
</g>
<g id="#b0b0b0ff">
<path fill="#b0b0b0" opacity="1.00" d=" M 60.54 28.49 C 62.77 28.56 65.23 28.12 67.17 29.51 C 65.54 29.26 64.17 29.59 63.04 30.50 L 62.56 31.02 C 62.06 30.91 61.07 30.69 60.57 30.58 C 60.56 30.06 60.55 29.02 60.54 28.49 Z" />
</g>
<g id="#c7c7c7ff">
<path fill="#c7c7c7" opacity="1.00" d=" M 78.00 28.64 C 81.31 27.95 84.52 30.55 86.32 33.14 C 83.12 32.67 80.02 31.22 78.00 28.64 Z" />
</g>
<g id="#15151579">
<path fill="#151515" opacity="0.47" d=" M 22.20 43.45 C 23.64 40.08 25.63 36.96 28.49 34.63 C 26.75 37.81 24.55 40.69 22.20 43.45 Z" />
<path fill="#151515" opacity="0.47" d=" M 135.06 107.69 C 136.25 102.36 137.79 97.00 140.99 92.50 C 139.07 97.58 137.71 102.91 135.06 107.69 Z" />
</g>
<g id="#888888ff">
<path fill="#888888" opacity="1.00" d=" M 48.83 41.88 C 55.90 39.32 63.76 39.50 70.91 41.65 C 77.53 43.59 83.99 46.05 90.60 48.02 C 90.12 45.99 89.95 43.90 90.10 41.82 C 90.76 44.14 91.27 46.51 91.53 48.92 C 80.61 46.59 70.42 40.77 59.02 40.78 C 52.64 41.21 46.50 43.33 40.80 46.13 C 42.79 43.70 46.03 42.97 48.83 41.88 Z" />
</g>
<g id="#858585ff">
<path fill="#858585" opacity="1.00" d=" M 44.30 48.45 C 50.50 44.57 58.34 42.49 65.53 44.59 C 74.95 47.00 84.20 50.98 94.12 50.47 C 94.29 50.68 94.62 51.10 94.79 51.31 C 85.47 52.26 76.63 48.76 67.89 46.11 C 62.51 44.34 56.56 44.15 51.22 46.11 C 48.90 46.86 46.80 48.36 44.30 48.45 Z" />
</g>
<g id="#1717178c">
<path fill="#171717" opacity="0.55" d=" M 11.97 81.99 C 12.00 68.67 14.52 54.84 22.09 43.64 C 17.82 53.66 13.31 63.97 13.18 75.06 C 13.24 80.72 12.71 86.46 13.96 92.03 C 15.00 97.18 17.48 101.87 19.06 106.84 C 13.99 99.64 12.33 90.62 11.97 81.99 Z" />
</g>
<g id="#a8a8a8ff">
<path fill="#a8a8a8" opacity="1.00" d=" M 114.83 50.60 C 117.92 48.11 122.03 47.67 125.84 47.29 C 125.67 47.72 125.33 48.59 125.16 49.02 C 121.85 50.23 118.37 51.07 114.83 50.60 Z" />
</g>
<g id="#7e7e7eff">
<path fill="#7e7e7e" opacity="1.00" d=" M 121.78 57.72 C 125.59 56.25 129.61 55.35 133.68 55.06 C 133.54 56.78 133.40 58.49 133.24 60.21 C 123.63 60.74 114.03 61.80 104.88 64.90 C 108.48 62.47 112.80 61.61 116.98 60.77 C 113.46 59.00 109.61 60.48 105.91 60.40 C 105.03 60.46 104.33 60.11 103.82 59.36 C 108.96 59.49 114.01 58.33 119.14 58.18 L 117.69 58.55 C 117.55 59.26 117.49 59.97 117.42 60.68 C 122.61 60.08 127.81 59.55 133.03 59.26 C 133.02 58.33 133.01 56.46 133.00 55.53 C 129.32 56.54 125.61 57.52 121.78 57.72 Z" />
</g>
<g id="#f3f3f3ff">
<path fill="#f3f3f3" opacity="1.00" d=" M 121.78 57.72 C 125.61 57.52 129.32 56.54 133.00 55.53 C 133.01 56.46 133.02 58.33 133.03 59.26 C 127.81 59.55 122.61 60.08 117.42 60.68 C 117.49 59.97 117.55 59.26 117.69 58.55 L 119.14 58.18 C 119.80 58.07 121.12 57.83 121.78 57.72 Z" />
</g>
<g id="#16161676">
<path fill="#161616" opacity="0.46" d=" M 142.46 59.16 C 145.89 60.55 148.50 63.56 149.63 67.05 C 150.67 72.41 148.86 77.84 146.32 82.52 C 147.23 77.12 150.06 71.67 148.25 66.14 C 146.94 63.37 144.53 61.35 142.46 59.16 Z" />
</g>
<g id="#1818185d">
<path fill="#181818" opacity="0.36" d=" M 144.14 86.51 C 144.23 85.12 144.53 83.12 146.25 82.91 C 146.43 84.47 145.58 85.89 144.14 86.51 Z" />
</g>
<g id="#1a1a1aa6">
<path fill="#1a1a1a" opacity="0.65" d=" M 20.07 108.54 C 21.45 108.98 22.12 109.93 22.09 111.37 C 20.73 110.94 20.06 110.00 20.07 108.54 Z" />
</g>
<g id="#808080ff">
<path fill="#808080" opacity="1.00" d=" M 56.32 113.15 C 56.00 111.62 56.21 110.12 57.01 108.78 C 56.87 109.63 56.59 111.33 56.46 112.18 C 67.20 115.01 78.13 117.11 89.13 118.67 L 89.08 119.32 C 78.00 118.29 67.12 115.75 56.32 113.15 Z" />
</g>
<g id="#1a1a1a7e">
<path fill="#1a1a1a" opacity="0.49" d=" M 165.90 114.12 C 171.66 110.89 178.47 109.82 185.01 109.93 C 189.30 109.98 193.69 109.58 197.82 111.03 C 187.44 110.53 176.61 109.76 166.91 114.30 C 168.75 119.36 172.48 123.44 174.21 128.56 C 171.01 124.05 167.70 119.35 165.90 114.12 Z" />
</g>
<g id="#181818a7">
<path fill="#181818" opacity="0.65" d=" M 22.13 111.70 C 23.55 112.08 24.20 113.00 24.09 114.47 C 22.77 114.02 22.11 113.10 22.13 111.70 Z" />
</g>
<g id="#1313136e">
<path fill="#131313" opacity="0.43" d=" M 128.92 118.11 C 129.09 116.13 130.13 114.37 132.00 113.58 C 132.01 115.64 130.89 117.43 128.92 118.11 Z" />
</g>
<g id="#1515157f">
<path fill="#151515" opacity="0.50" d=" M 185.71 119.72 C 189.80 116.28 195.24 115.40 200.12 113.61 C 199.84 113.95 199.28 114.65 199.00 114.99 C 195.22 116.64 190.94 117.14 187.45 119.48 C 183.81 121.99 180.71 125.68 179.91 130.13 C 179.38 132.94 178.97 135.78 178.07 138.50 C 165.11 138.99 152.10 139.51 139.17 138.25 C 129.49 137.08 120.41 132.56 110.52 132.80 C 112.32 132.41 114.15 131.79 116.01 132.21 C 125.17 133.51 133.89 137.17 143.21 137.47 C 151.66 138.23 160.23 138.05 168.69 137.49 C 171.69 137.68 174.70 137.56 177.71 137.37 C 178.21 134.32 178.62 131.25 179.45 128.27 C 180.39 124.75 183.02 122.03 185.71 119.72 Z" />
</g>
<g id="#111111b7">
<path fill="#111111" opacity="0.72" d=" M 24.79 115.46 C 27.14 116.96 29.16 118.92 30.21 121.56 C 28.04 119.87 26.17 117.84 24.79 115.46 Z" />
</g>
<g id="#1414149e">
<path fill="#141414" opacity="0.62" d=" M 31.51 122.87 C 34.08 124.05 36.09 126.02 37.75 128.27 C 35.20 127.06 33.16 125.12 31.51 122.87 Z" />
</g>
<g id="#16161688">
<path fill="#161616" opacity="0.53" d=" M 38.98 129.09 C 39.30 129.31 39.93 129.76 40.25 129.99 C 37.67 135.30 34.81 140.48 31.85 145.58 C 33.47 139.75 37.69 135.00 38.98 129.09 Z" />
</g>
<g id="#3030306d">
<path fill="#303030" opacity="0.43" d=" M 175.39 131.29 C 175.44 131.41 175.55 131.67 175.60 131.80 C 175.55 131.67 175.44 131.41 175.39 131.29 Z" />
</g>
<g id="#2c2c2c70">
<path fill="#2c2c2c" opacity="0.44" d=" M 134.01 132.16 C 136.32 131.11 138.89 131.63 140.92 133.03 C 138.57 133.42 136.12 133.40 134.01 132.16 Z" />
</g>
<g id="#13131382">
<path fill="#131313" opacity="0.51" d=" M 77.97 137.67 C 89.07 138.19 99.55 133.89 110.46 132.82 C 105.19 134.79 99.59 135.58 94.15 136.96 C 79.82 140.45 64.94 138.12 50.74 135.18 C 52.12 137.63 53.47 140.09 54.88 142.52 C 52.62 140.19 50.77 137.51 49.35 134.60 C 58.94 135.09 68.32 137.76 77.97 137.67 Z" />
</g>
<g id="#31313179">
<path fill="#313131" opacity="0.47" d=" M 141.59 133.10 C 153.00 132.39 164.49 133.69 175.86 132.44 L 176.43 133.86 C 169.32 134.45 162.18 134.06 155.06 134.20 C 150.54 134.31 146.03 133.92 141.59 133.10 Z" />
</g>
<g id="#191919ab">
<path fill="#191919" opacity="0.67" d=" M 41.84 135.57 C 41.79 132.79 45.18 133.35 44.84 135.91 C 43.84 135.83 42.83 135.79 41.84 135.57 Z" />
</g>
<g id="#1313135e">
<path fill="#131313" opacity="0.37" d=" M 45.02 136.33 C 48.31 140.67 51.76 144.94 54.21 149.84 C 50.56 145.81 47.01 141.45 45.02 136.33 Z" />
</g>
<g id="#1d1d1d42">
<path fill="#1d1d1d" opacity="0.26" d=" M 55.00 142.67 C 56.49 143.01 57.13 143.94 56.92 145.46 C 55.70 144.94 55.06 144.01 55.00 142.67 Z" />
</g>
<g id="#1e1e1e91">
<path fill="#1e1e1e" opacity="0.57" d=" M 123.13 143.93 C 133.01 142.15 143.06 142.80 153.03 142.70 C 152.98 144.13 152.93 145.55 152.88 146.98 C 149.57 147.89 146.22 148.64 142.96 149.71 C 139.14 150.95 136.14 153.78 132.50 155.40 C 136.83 150.76 142.75 148.14 148.90 146.95 C 150.30 146.43 153.92 146.03 152.35 143.75 C 143.88 143.22 135.41 144.27 126.94 144.19 C 124.72 143.94 123.22 145.63 122.10 147.30 C 122.45 146.18 122.80 145.06 123.13 143.93 Z" />
</g>
<g id="#17171752">
<path fill="#171717" opacity="0.32" d=" M 32.96 154.43 C 33.95 151.15 35.31 148.00 37.19 145.13 C 36.47 148.51 34.96 151.62 32.96 154.43 Z" />
</g>
<g id="#16161683">
<path fill="#161616" opacity="0.51" d=" M 24.27 163.52 C 25.34 157.71 28.06 152.34 31.08 147.32 C 29.30 152.91 26.87 158.27 24.27 163.52 Z" />
</g>
<g id="#2828286d">
<path fill="#282828" opacity="0.43" d=" M 121.07 150.17 C 121.28 149.59 121.69 148.43 121.90 147.85 C 121.69 148.43 121.28 149.59 121.07 150.17 Z" />
</g>
<g id="#28282867">
<path fill="#282828" opacity="0.40" d=" M 120.01 153.20 C 120.28 152.65 120.83 151.54 121.11 150.99 C 120.83 151.54 120.28 152.65 120.01 153.20 Z" />
</g>
<g id="#15151598">
<path fill="#151515" opacity="0.60" d=" M 55.87 152.24 C 59.67 156.09 62.58 160.72 65.00 165.53 C 61.46 161.47 58.39 157.00 55.87 152.24 Z" />
</g>
<g id="#25252579">
<path fill="#252525" opacity="0.47" d=" M 119.07 156.18 C 119.32 155.62 119.82 154.50 120.07 153.94 C 119.82 154.50 119.32 155.62 119.07 156.18 Z" />
</g>
<g id="#2b2b2b62">
<path fill="#2b2b2b" opacity="0.38" d=" M 64.32 156.39 C 64.37 156.46 64.47 156.62 64.52 156.69 C 64.47 156.62 64.37 156.46 64.32 156.39 Z" />
</g>
<g id="#1e1e1e7e">
<path fill="#1e1e1e" opacity="0.49" d=" M 128.78 158.28 C 129.32 156.85 130.52 155.81 132.06 155.63 C 132.11 157.38 130.26 158.17 128.78 158.28 Z" />
</g>
<g id="#1616164c">
<path fill="#161616" opacity="0.30" d=" M 104.64 171.59 C 109.19 166.31 115.01 162.25 118.96 156.40 C 116.48 163.14 110.13 167.40 104.64 171.59 Z" />
</g>
<g id="#1717179f">
<path fill="#171717" opacity="0.62" d=" M 65.65 158.51 C 67.47 160.61 69.00 162.93 70.30 165.38 C 68.19 163.51 66.58 161.18 65.65 158.51 Z" />
</g>
<g id="#16161678">
<path fill="#161616" opacity="0.47" d=" M 113.28 170.35 C 117.76 165.75 122.94 161.76 128.48 158.51 C 123.85 162.96 118.68 166.89 113.28 170.35 Z" />
</g>
<g id="#1b1b1b98">
<path fill="#1b1b1b" opacity="0.60" d=" M 22.10 169.12 C 22.08 167.24 22.36 165.02 24.17 164.00 C 24.39 165.93 24.03 168.18 22.10 169.12 Z" />
</g>
<g id="#1c1c1cad">
<path fill="#1c1c1c" opacity="0.68" d=" M 65.15 165.76 C 66.54 166.13 67.22 166.99 67.20 168.34 C 65.83 168.15 65.15 167.29 65.15 165.76 Z" />
</g>
<g id="#16161681">
<path fill="#161616" opacity="0.51" d=" M 70.52 165.66 C 72.90 167.89 74.92 170.49 76.24 173.49 C 73.91 171.21 71.91 168.62 70.52 165.66 Z" />
</g>
<g id="#1515156c">
<path fill="#151515" opacity="0.42" d=" M 67.21 168.81 C 68.90 169.58 69.79 171.25 70.28 172.97 C 68.11 172.95 66.94 170.76 67.21 168.81 Z" />
</g>
<g id="#2828287c">
<path fill="#282828" opacity="0.49" d=" M 21.07 172.15 C 21.32 171.58 21.82 170.44 22.07 169.87 C 21.82 170.44 21.32 171.58 21.07 172.15 Z" />
</g>
<g id="#19191972">
<path fill="#191919" opacity="0.45" d=" M 106.29 176.05 C 108.09 173.98 110.13 172.12 112.60 170.87 C 110.93 173.08 108.82 174.89 106.29 176.05 Z" />
</g>
<g id="#27272770">
<path fill="#272727" opacity="0.44" d=" M 19.99 175.38 C 20.21 174.80 20.67 173.63 20.90 173.05 C 20.67 173.63 20.21 174.80 19.99 175.38 Z" />
</g>
<g id="#1818188b">
<path fill="#181818" opacity="0.55" d=" M 70.52 173.49 C 72.61 175.47 74.36 177.78 75.52 180.44 C 73.45 178.44 71.58 176.20 70.52 173.49 Z" />
</g>
<g id="#1c1c1cb9">
<path fill="#1c1c1c" opacity="0.73" d=" M 76.81 174.73 C 78.10 174.92 78.88 175.72 79.13 177.13 C 77.69 177.06 76.91 176.26 76.81 174.73 Z" />
</g>
<g id="#1919198b">
<path fill="#191919" opacity="0.55" d=" M 99.65 181.45 C 101.21 179.39 103.22 177.76 105.52 176.59 C 103.90 178.59 101.87 180.17 99.65 181.45 Z" />
</g>
<g id="#1a1a1a9f">
<path fill="#1a1a1a" opacity="0.62" d=" M 86.07 185.93 C 87.87 184.86 89.67 183.78 91.40 182.59 C 90.02 184.18 88.52 185.66 86.95 187.05 C 86.73 186.77 86.29 186.21 86.07 185.93 Z" />
</g>
<g id="#2626266e">
<path fill="#262626" opacity="0.43" d=" M 21.96 187.06 C 21.52 185.73 21.84 184.63 22.93 183.75 C 23.50 185.12 23.17 186.23 21.96 187.06 Z" />
</g>
<g id="#1f1f1f8b">
<path fill="#1f1f1f" opacity="0.55" d=" M 9.76 220.00 C 10.54 217.09 11.26 214.17 12.05 211.26 C 11.80 214.20 11.52 217.15 10.74 220.00 L 9.76 220.00 Z" />
</g>
</svg>
